<?xml version="1.0" encoding="utf-8"?>
<!-- Generator: Adobe Illustrator 22.1.0, SVG Export Plug-In . SVG Version: 6.00 Build 0)  -->
<svg version="1.1" id="Layer_1" xmlns="http://www.w3.org/2000/svg" xmlns:xlink="http://www.w3.org/1999/xlink" x="0px" y="0px"
	 viewBox="0 0 1794.4 866.7" style="enable-background:new 0 0 1794.4 866.7;" xml:space="preserve">
<style type="text/css">
	.st0{fill:#FFFFFF;}
	.st1{fill:#84BB39;}
	.st2{fill:#485621;}
	.st3{fill:#FEFEFE;stroke:#FEFEFE;stroke-width:9.375000e-02;}
	.st4{fill:#E81E24;stroke:#E81E24;stroke-width:9.375000e-02;}
</style>
<path class="st0" d="M205.7,71.7c1.4,0.1,2.8-0.5,3.8-1.4c0.9-1.3,1.3-3,1.3-5.2V31.6c0-2.1-0.4-3.9-1.3-5.1
	c-1.1-0.9-2.5-1.4-3.9-1.3c-1.5-0.1-2.9,0.4-4,1.3c-0.8,1.6-1.3,3.3-1.3,5.1v33.2c0,2.3,0.6,4.1,1.3,5.3c0.9,0.9,2.1,1.4,4.1,1.4
	L205.7,71.7z M205.7,74.2c-9.5,0-17.1-2.2-22.7-7.3c-4.7-3.7-7.7-9.2-8.2-15.2c-0.3-1.2-0.3-2.1-0.3-3.2c0-1.2,0-2.1,0.3-3.2
	c0.5-6.1,3.2-11.1,8.2-15.3c6.5-5,14.5-7.4,22.7-7c9.1,0,16.7,2.3,22.3,7s8.6,10.9,8.6,18.5c0.2,7.2-3,14-8.6,18.5
	c-6.2,5.2-14.2,7.8-22.3,7.4V74.2z M268.6,32.4c1.3-3,3.5-5.3,6.5-7.1c2.9-1.7,6.1-2.3,9.8-2.3c3.9,0,6.9,0.9,9.5,2.3
	c2.3,1.7,3.9,4.3,4.4,7.1h0.9c1.4-3,3.5-5.3,6.5-7.1c2.9-1.7,6.1-2.3,10-2.3c5.2,0,9.1,1.2,11.4,4.1c2.1,2.6,3.2,7.6,3.2,14.6v28
	h5.6v2.6h-30.6v-2.6h3v-33c0-1.8,0-3.2-0.5-4.1c-0.6-0.6-1.6-1.3-2.5-1.3c-1.9,0-3.5,1.3-4.3,3.4c-1.3,2.1-1.8,5.2-1.8,9.3v25.7h3.2
	v2.6h-28.2v-2.6h3.2V36.8c0.1-1.4-0.1-2.9-0.8-4.1c-0.6-0.6-1.6-1.3-2.5-1.3c-1.9,0-3.5,1.3-4.7,3.4c-0.9,2.1-1.4,5.2-1.4,9.3v25.7
	h3.2v2.6H241v-2.6h5.6v-43H241v-2.6h11.4c2.3,0,4.7,0,6.7-0.4l6.7-0.9h1.8l-0.3,9.5H268.6z M777.2,55.7h2.3
	c2.6,4.8,5.8,8.9,10.4,11.7c4.3,2.9,8.7,4.3,13.1,4.3c2.3,0,4.4-0.3,5.6-1.2c1.6-1.2,2.1-2.3,2.1-3.9c0-2.9-4.9-5.8-14.6-8.7
	l-3.2-1.3c-4.3-0.9-8.2-3.3-11.1-6.6c-2.6-3-4.1-6.9-4.1-10.9c0-4.8,1.8-8.6,5.2-11.8c3.6-3,8-4.4,13.3-4.4c2.3,0,4.7,0,7,0.5
	l7.4,2.1l8.2-2.6h2.1l0.3,15.8h-1.9c-1.9-4.1-5-7.5-8.8-10c-3.4-2.5-7.6-3.8-11.8-3.9c-1.6,0-3.2,0.5-4.7,1.3
	c-1.1,0.7-1.8,1.9-1.8,3.2c0,3,3.9,5.6,11.1,7.6c0.4,0.2,0.8,0.3,1.3,0.3c5.5,1.4,10.5,4,14.9,7.6c3.2,3,4.7,6.7,4.7,11.4
	c0,5.7-1.8,10.1-5.2,13.3c-3.6,2.9-8.3,4.4-14.8,4.4c-2.6,0-5.2-0.4-7.6-0.6c-2.3-0.5-4.7-1.8-7.6-3l-8.2,3.6h-2.6l-0.6-15.3l-0.3-3
	h0.3v0.1C777.6,55.7,777.2,55.7,777.2,55.7z M777.2,10.9v3.6l-0.3,1.3c0,1.2-0.6,1.9-0.9,3.1c-0.6,1.3-0.9,2.1-1.8,3.2
	c-0.5,0.9-1.2,2.1-2.1,3c-0.8,0.9-1.7,1.8-2.6,2.3c-0.9,0.6-1.8,1.3-3,1.8c-0.5,0.3-0.8,0.5-1.4,0.5c-0.5,0.3-1.3,0.3-1.4,0.3
	c-0.6,0-1.3,0-1.6-0.3s-0.3-0.5-0.3-1.2V28l0.3-0.9c0.4,0,0.4-0.3,0.6-0.6c0.3,0,0.3-0.3,0.5-0.5l2.1-1.8c0.6-0.9,1.3-1.4,1.6-2.3
	l1.2-2.3l0.3-2.3c-1.4,0-3,0-4.1-0.4c-1.2-0.3-2.1-0.8-2.9-1.2l-1.6-1.9c-0.5-0.9-0.5-1.8-0.5-2.6c0-0.6,0-1.3,0.3-1.9
	c0-0.5,0.3-1.2,0.5-1.7c0.4-0.6,0.9-0.9,1.3-1.4c0.5-0.6,1.2-0.9,1.7-1.3l2.1-0.8c0.9,0,1.4-0.4,2.3-0.4c1.8,0,3.2,0.4,4.4,0.6
	c1.2,0.5,2.3,1.2,3,2.1c0.8,0.7,1.4,1.6,1.7,2.6C776.5,9,777.2,10.9,777.2,10.9z M520.3,67.6c1.6,0.1,3.1-0.8,3.6-2.3
	c0.8-1.8,1.3-4.1,1.3-7.8V47h-1.3c-1.6,0-2.5,0.3-3.6,0.5c-1.2,0.4-2.3,0.9-2.9,2.1c-1.3,1.6-1.8,4.8-1.8,9.5c0,3,0.3,4.9,0.9,6.5
	c0.7,1.3,2,2.1,3.5,2.1C520,67.6,520.3,67.6,520.3,67.6z M520.3,44.7h4.8V29.8c0-1.4-0.4-2.6-1.6-3.5c-0.5-0.5-1.7-0.9-3.2-0.9h-1.2
	c-0.8,0-1.7,0-2.6,0.4c-0.9,0.3-1.3,0.8-1.3,1.2c0,0,0.4,0.5,1,0.9c1.5,1.7,2.3,3.8,2.3,6.1c0.2,2.4-1,4.7-3,6
	c-2.1,1.2-5.2,1.7-9.1,1.7s-6.7-0.5-8.6-2.1c-2.1-1.4-2.9-3.2-2.9-6.1c0-3.9,1.9-6.5,5.8-8.3c3.9-1.7,10.4-2.3,19-2.3h0.3
	c6.9,0,11.8,0.3,15.5,1.2c3.9,0.6,6.9,1.8,8.6,3.5c1.1,1.2,2,2.6,2.6,4.1c0.6,1.4,0.9,3.9,0.9,7v24.6c0,1,0,1.9,0.4,2.5
	c0.3,0.3,0.9,0.6,1.7,0.6c0.9,0,1.6-0.4,2.1-0.6c0.9-0.5,1.3-1.2,1.8-1.8l1.4,1.3c-1.7,2.6-4.4,4.9-7.6,6.5
	c-2.9,1.7-6.3,2.6-9.7,2.6c-2.5,0.1-4.9-0.7-7-2.1S527,69,526,66.7c-1.7,1.8-3.7,3.3-5.8,4.4l-2.6,1.2c-3.5,1.5-7.2,2.2-11,2.1
	c-4.7,0-8.4-1.3-11.4-3.9c-2.9-2.3-4.5-5.9-4.4-9.6c0-5.1,2.6-8.8,7.6-11.8c4.9-3,11.7-4.4,20.6-4.4h1
	C520,44.7,520.3,44.7,520.3,44.7z M557.3,72.3v-2.6h5.6v-43h-5.6v-2.6h13.2c2.1,0,4.4,0,6.7-0.3l6.5-0.9h1.7v9.5h0.9
	c1.8-3,3.9-5.3,6.7-7.1c3-1.7,6.5-2.3,10.6-2.3c5.2,0,9.3,1.2,11.7,4.1c2.5,2.6,3.6,7.6,3.6,14.6v27.9h5.6v2.6h-32v-2.6h2.9V36.7
	c0-1.7-0.3-3.2-0.5-4c-0.7-0.8-1.6-1.2-2.6-1.3c-1.8,0-3.2,1.3-4.4,3.4c-0.9,2.1-1.6,5.2-1.6,9.3v25.7h3.2v2.6h-32.4L557.3,72.3
	L557.3,72.3z M681.2,59.6l2.1,1.6c-2.3,4.1-5.8,7.5-10,9.7c-4.4,2.3-9.7,3.5-15.8,3.5c-8.6,0-15.5-2.3-20.9-7.1
	c-5.3-4.9-7.8-11.1-7.8-18.8c0-7.9,2.7-14.1,7.8-18.8C641.8,25,648.9,23,658,23c8.2,0,14.4,1.2,18.8,4.1c4.7,2.9,6.7,6.7,6.7,12
	c0,3.5-0.9,6.1-3,8.2c-1.9,2.1-4.9,3-8.4,3c-2.8,0.2-5.6-0.8-7.8-2.6c-1.9-2-2.9-4.6-2.9-7.4c0-2.1,0.6-3.9,1.3-5.1
	c0.5-1.2,1.7-2.3,3.1-3.2l1.6-0.8c1.7-0.9,2.6-1.8,2.6-3c0-0.9-0.6-1.4-1.4-2.1c-0.9-0.6-2.3-0.6-3.9-0.6c-3.5,0-6.5,1.6-7.9,5.1
	c-1.8,3.2-2.6,8.8-2.6,16.2c0,9.1,0.8,14.9,2.9,18.1c1.8,3.6,4.8,5.1,9.1,5.1c2.8,0,5.5-0.9,7.8-2.6
	C676.5,65.8,678.8,63.2,681.2,59.6z M717.3,73.2l-26.8-46.5h-5.6v-2.6h37.3v2.6h-5.8l14.3,23.6l9.8-16.8l0.8-1.7
	c0.4-0.6,0.4-0.9,0.4-1.4c0-1.1-0.6-2.1-1.6-2.6c-0.8-0.6-2.6-1-4.9-1v-2.6h17v2.6c-3.5,0.6-6.7,3.2-9.3,8c0,0.3-0.4,0.5-0.4,0.5
	l-26,45.3c-3,5.6-6,9.1-8.8,11.4c-2.6,2.1-6,3.2-9.7,3.2c-3.9,0-6.7-1.3-9.1-3.2c-2.2-2-3.3-4.8-3.2-7.8c0-2.9,0.5-5.2,2.3-6.6
	c2-1.6,4.5-2.4,7-2.3c2.6,0,4.8,0.5,6.2,2.1c1.4,1.3,2.3,3.5,2.3,5.8c0,1.7-0.8,3.3-2.1,4.4c-1.4,1.4-2.1,2.3-2.1,2.6
	c0,0.4,0.4,0.6,0.6,0.9c0.3,0.3,0.5,0.3,1.2,0.3c1.7,0,3.9-0.8,6.1-3.2c2.5-2.1,4.4-4.9,6.5-8.4L717.3,73.2z M443.4,25.5h-3.2
	c-1.6-5.7-4.6-10.9-8.8-15.2c-3.2-3.3-7.7-5.2-12.3-5.2c-4.7,0-7.9,2.1-9.5,5.6c-1.7,3.9-2.6,13.5-2.6,28.8c0,12,0.9,20,3,23.8
	c1.9,3.9,5.6,5.8,10.8,5.8c5.3,0,10-1.8,13.9-5.2c3.5-3.6,5.8-8.7,7-15h3.2c-0.9,8.2-3.9,14.6-9.1,19c-5.6,4.1-13,6.5-22.3,6.5
	C392.8,75,375.6,58.7,375,38c0-0.2,0-0.4,0-0.7c0.2-9.6,3.9-18.8,10.4-25.9c3.4-3.5,7.5-6.1,12.6-8.2c4.7-2,9.8-3,14.9-3
	c3.5,0,6.7,0.6,9.7,1.3c2.6,0.8,5.8,2.3,9.3,4.3l8.6-5.7h3v25.4H443.4z M450.4,72.2v-2.6h6.7V4.3H451V1.7h14.6c2.1,0,4.4,0,6.7-0.4
	c2.1-0.3,4.4-0.5,6.5-1.2h1.8v69.7h5.8v2.6L450.4,72.2z M162.2,72.2h-48.1v-2.9h9.3V4.4c-4.7,0.3-8.4,2.3-12,6.2
	c-3.5,3.9-6.1,9.1-7.5,15.5h-2.5V1.6h73.5v24.6h-2.1c-1.8-6.5-4.4-11.7-7.8-15.5s-7.5-6-11.9-6.2v64.9h9.1v3V72.2z"/>
<path class="st1" d="M253.5,250.3l-9.3,42.9h69.2l9.7-44c7-32.1,14-64.3,20.7-96.4h74.1l1.7,0.4h8.6l1.2,0.3h3.2l1.4,0.3l1.3,0.3
	l1,0.3l0.6,0.4l0.9,0.3l0.3,0.5l0.5,0.4l0.4,0.5l0.3,0.9l0.3,0.9l0.3,0.9v1.4l0.4,1.4l-0.4,1.8l-0.3,1.8l-0.3,2.3l-0.3,1.2l-0.4,1.2
	l-0.3,0.9l-0.3,1.2l-0.3,1.2l-0.4,0.9l-0.5,1.2l-0.3,0.9l-0.4,0.8l-0.5,0.9l-0.3,0.9l-0.6,0.9l-0.5,0.9l-0.4,0.5l-0.5,0.9l-0.6,0.6
	l-0.3,0.3l-0.3,0.5l-0.6,0.4l-0.3,0.3l-0.5,0.3l-0.6,0.6l-0.9,0.3l-0.5,0.3l-0.9,0.4l-0.9,0.3l-1.2,0.3h-0.9l-1.2,0.3h-1.2l-1.4,0.4
	h-1.4L402,188h-53.6l-13,60.2H431l1.3-0.4h2.2l1.3-0.3h2.6l1.2-0.3h1.2l1.2-0.3h1.7l1.8-0.4l1.8-0.3l1.7-0.3l1.8-0.3l1.7-0.6
	l1.6-0.3l1.7-0.6l1.8-0.5l1.4-0.6l1.8-0.5l1.4-0.6l1.6-0.5l1.3-0.9l1.8-0.5l1.6-0.9l1.4-1.3l2.1-0.8l1.4-1.3l1.8-1.3l1.7-1.3
	l1.6-1.4l1.7-1.4l1.6-1.6l1.3-1.7l1.6-1.8l1.6-1.8l1.3-1.7l1.6-2.1l1.3-2.1l1-2.1l1.6-2.1l1.2-2.1l1.2-2.3l1.2-2.3l1.2-2.3l0.9-2.6
	l1.2-2.5l0.3-1.2l0.5-1.4l1.3-2.6l0.8-3l0.9-2.6l0.9-3l0.9-3l0.9-3.2l0.8-3l0.6-3.2l0.9-3.2l0.3-1.2v-1.2l0.3-0.8l0.3-1.3l0.4-1.2
	v-1.2l0.3-1.2l0.3-0.9v-1.2l0.3-1.2v-1.2l0.4-1.2v-0.9l0.3-1.2v-1.2l0.3-0.9v-2.3l0.3-1.2v-3.2l0.3-0.9v-9.6l-0.3-1.8V131l-0.3-1.3
	v-1.8l-0.3-1.8l-0.6-1.8l-0.3-1.3l-0.6-1.6l-0.3-1.8l-0.5-1.4l-0.9-1.6l-0.6-1.4l-0.5-1.3l-0.9-1.3l-0.9-1.6l-0.8-1.2l-1.3-1.2
	l-0.8-1.2l-1.3-1.3l-0.8-0.5l-0.3-0.3l-1.3-1.2l-1.3-0.9l-1.3-0.9l-1.4-0.8l-1.6-0.9l-1.3-0.6l-1.6-0.8l-1.6-0.6l-1.3-0.5l-1.8-0.6
	L484,97l-1.4-0.4l-1.8-0.5l-1.4-0.4l-1.8-0.3l-1.7-0.3l-1.6-0.3l-1.7-0.4l-1.8-0.3l-1.7-0.3l-1.8-0.3h-1.8l-1.7-0.4h-2.1l-1.8-0.3
	H456l-1.7-0.3l-24.1-0.3H287.9L253.5,250.3z M1585.6,293.2c7.5-35.6,15.3-71.3,23.2-106.9l7.3-33.6h74.6l16.5,0.6h3.2l1.2,0.3h2.3
	l1.2,0.3h0.9l0.8,0.4l0.6,0.3l0.6,0.3h0.5l0.3,0.3l0.3,0.4h0.6v0.3l0.3,0.3l0.3,0.3l0.4,0.6l0.3,0.3v0.6l0.3,0.5v0.6l0.3,0.5v4.4
	l-0.3,1.3l-0.3,1l-0.3,1.3l-0.4,1.7l-0.5,1.8l-0.6,1.7l-0.3,1.6l-0.6,1.3l-0.5,1.3l-0.6,1.3l-0.8,1l-0.6,0.9l-0.5,0.9l-0.6,0.5
	l-0.9,0.6l-0.5,0.6l-0.6,0.5l-0.8,0.3l-0.6,0.4l-0.3,0.3l-0.6,0.3h-0.5l-0.6,0.3h-0.5l-0.6,0.4h-0.5l-0.6,0.3h-1.4l-0.6,0.3h-4
	l-1.3,0.3h-7l-1.2,0.4h-70l-13,59.9h74.5l2.1,0.3h3.9l1.3,0.4h1.9l1.2,0.3l1.2,0.3l1.2,0.3l0.9,0.4l0.8,0.3l0.6,0.3l0.3,0.3l0.6,0.4
	l0.3,0.3v0.3l0.3,0.3v0.6l0.3,0.5v6.9l-0.3,1.4l-0.3,1.8l-0.3,1.8l-0.3,1.7l-0.4,2.1l-0.5,2.3l-4.4,24.1h68.9l5.8-27.6l0.4-1.4
	l0.5-1.4l0.3-1.6v-1.4l0.4-1.4l0.3-1.6l0.3-1.3l0.3-1.6v-1.3l0.4-1.3l0.3-1.3v-2.6l0.3-1.3V244l0.3-1.3v-4l-0.3-1.3v-2.9l-0.3-0.9
	v-0.9l-0.3-0.9l-0.4-0.8l-0.3-0.9v-0.9l-0.5-0.9l-0.6-1.7l-0.9-1.8l-1.2-1.4l-1.4-1.6l-1.4-1.3l-1.6-1.3l-1.7-1.3l-1.8-1l-1.8-1.3
	l-1.9-1h-0.4l0.9-0.4l1.4-0.5l1.3-0.6l1.2-0.5l1.2-0.9l1.2-0.5l1.2-0.6l1.2-0.5l1.2-0.6l0.9-0.9l1.2-0.5l0.9-0.9l0.8-0.5l1.3-0.9
	l0.8-0.6l0.9-0.9l0.9-0.5l0.5-0.9l0.9-0.9l0.9-0.9l0.5-0.8l0.6-0.9l0.9-0.9l0.5-0.9l0.6-0.9l0.5-0.8l0.6-0.9l0.5-0.9l0.6-0.9
	l0.3-1.2l0.6-0.9l0.5-1.2l0.6-0.8l0.5-1.3l0.3-1.2l0.6-0.8l0.6-1.3l0.3-1.2l0.5-1.2l0.4-1.2l0.5-1.4l0.3-1.3l0.6-1l0.3-1.6l0.6-1.2
	l0.3-1.2l0.3-1.4l0.6-1.4l0.3-1.3l0.3-1.3l0.3-1.6l0.6-1.4l0.3-1.6l0.3-1.4l0.3-2.1l0.4-1.8l0.5-1.9l0.3-1.8l0.4-1.8v-2.1l0.3-1.7
	l0.3-1.8l0.3-2.1v-1.8l0.3-1.7v-3.6l0.4-1.7v-6.5l-0.4-0.9v-2.1l-0.3-0.9v-0.8l-0.3-1.3l-0.3-0.8l-0.3-0.9v-0.9l-0.4-1.2l-0.3-0.9
	l-0.3-0.8l-0.6-0.9l-0.3-1.3l-0.5-1.3l-0.6-1.3l-0.5-1.2l-0.6-0.9l-0.9-1.2l-0.9-1.2l-0.5-0.9l-0.9-1.2l-0.9-0.8l-1.2-0.9l-0.8-0.9
	l-1.3-0.9l-0.8-0.9l-1.3-0.5l-1-0.9l-1.3-0.5l-1.2-0.6l-1.3-0.5l-1.3-0.6L1772,98l-1.3-0.6l-1.3-0.6l-1.4-0.3l-1.6-0.6l-1.4-0.3
	l-1.4-0.3l-1.8-0.3l-1.4-0.4l-1.8-0.3l-1.4-0.3h-1.8l-1.4-0.3h-1.4l-1.6-0.4h-1.3l-1.6-0.3h-3l-1.4-0.3h-6.2l-1.4-0.3h-176.2
	l-43.4,200.7h69.3L1585.6,293.2z M1524.7,237.7h-152l5.1-22.7h142l3.9-17.9l7.6-34.7h-142.1l3.2-14.3l12.3-55.7h-69.6l-24.4,111.7
	l-19.4,89h221.4L1524.7,237.7z M1523.6,148.1h19l12-55.6H1417l-12,55.7L1523.6,148.1z M1310.8,92.5h19.4l-13.2,60.2h-82.9
	l-30.4,140.4h-69.3l30.6-140.4h-82.5l4.4-20.7l8.8-39.5L1310.8,92.5L1310.8,92.5z M1086.8,113.4l4.8-20.7h-69.4l-28.5,130.8
	L921.1,92.6h-99.5l-43.7,200.5h69.2l28.5-131l72.5,131h99.5L1086.8,113.4z M814.5,92.6h-69.3l-43.8,200.5h69.3L814.5,92.6z
	 M499.7,238.6l31.9-146.1h69.2l-30.4,140.7h126.8L684,293.3H488L499.7,238.6z M253.5,107.3h0.3l0.9,1.2l0.9,1.2l0.9,1.2l0.9,1.3
	l0.8,1.3l0.6,1.3l0.5,1.3l0.6,1.6l0.5,1.4l0.6,1.6l0.3,1.4l0.3,1.4l0.6,1.8v1.4l0.3,1.8l0.3,1.8v8.8l-0.3,2.1l-0.3,1.7v2.1l-0.3,2.1
	l-0.6,2.1l-3.5,17.4h-68.4l0.9-13v-2.3l-0.3-0.6v-0.5l-0.3-0.4V149l-0.4-0.3l-0.3-0.4V148l0,0l-0.3-0.3l-0.4-0.3L188,147h-0.5
	l-0.4-0.3h-0.5l-0.3-0.3H185l-0.5-0.3h-1.8l-1.3-0.4h-3.1l-1.4-0.3h-4.4l-15.3-0.9h-33.4l-15,0.6h-1.4l-0.6,0.3h-2.1l-0.8,0.3h-1.3
	l-0.5,0.3h-1.3l-0.5,0.4h-0.5l-0.6,0.3h-0.6l-0.9,0.3l-0.9,0.3l-0.5,0.4l-0.9,0.3l-0.6,0.3l-0.5,0.6l-0.3,0.3l-0.6,0.5l-0.5,0.6
	l-0.4,0.5l-0.3,0.6l-0.5,0.5l-0.4,0.9l-0.3,0.9l-0.3,0.9l-0.3,1.2l-0.4,0.9v3.2l0.4,0.3v0.3l0.3,0.3l0.3,0.3l0.3,0.4l0.4,0.3
	l0.5,0.3l0.9,0.3l0.9,0.4l0.8,0.3l0.6,0.3h1.2l0.5,0.3H98l0.6,0.4h1.9l0.9,0.3h3.9l0.5,0.3l15,0.3l52.9,1.6l30.4,1.4h1.8l1.7,0.3
	h1.8l1.4,0.4l1.8,0.3h1.4l1.8,0.3l1.4,0.3l1.4,0.4l1.6,0.3l1.7,0.5l1.6,0.4l1.4,0.3l1.4,0.5l1.6,0.4l1.3,0.5l1.9,0.6l1.7,0.8
	l1.8,0.9l1.7,1.3l1.6,1l1.7,1.3l1.3,1.2l1.3,1.3l1.3,1.4l1.2,1.8l1.2,1.4l0.9,1.8l1.2,1.7l0.5,1.8l0.9,1.8l0.6,1.9l0.5,2.1l0.3,2.1
	l0.6,2.1l0.3,2.1v2.3l0.3,2.3v7.1l-0.3,2.6l-0.3,2.3l-0.3,2.6l-0.4,3l-0.5,2.6l-0.3,3l-0.6,2.6l-0.9,3.4l-0.8,3.2l-0.9,3.2l-0.9,2.9
	l-1.3,3l-1,2.6l-1.3,3l-1.3,2.6l-1.3,2.5l-1.4,2.6l-1.8,2.3l-1.4,2.5l-1.8,2.3l-1.7,2.1l-1.8,1.9l-2.1,2.1l-1.9,1.8l-2.1,1.8
	l-2.3,1.7l-2.1,1.6l-2.3,1.3l-2.5,1.6l-2.6,1.3l-2.3,1l-2.6,1.3l-2.7,0.8l-3,0.9l-2.6,0.9l-3,0.9l-2.9,0.5l-3,0.3l-3,0.6h-1.2
	l-0.9,0.3h-2.1l-1.2,0.3h-1.2l-0.9,0.4h-3.5l-0.9,0.3h-6.7l-1.4,0.3h-5.8l-1.3,0.3H150l-1.2,0.3h-27.1l-1.6-0.3h-14l-1.8-0.3H94.1
	l-1.9-0.3H83l-2.5-0.3h-7.3l-2.6-0.4h-7.3l-1.4-0.3h-5.6l-1.3-0.3h-2.6l-1.2-0.3h-3.9l-0.8-0.4H45l-1.3-0.3h-1.6l-1.8-0.3h-1.4
	l-1.4-0.3l-1.6-0.4l-1.4-0.3l-1.3-0.3l-1.3-0.3l-1.6-0.3l-1.2-0.4l-1.4-0.5l-1.3-0.3l-1.3-0.4l-1.3-0.5l-1.2-0.3l-1.2-0.6l-1.2-0.6
	l-1.2-0.5l-1.2-0.3l-0.9-0.6l-1.2-0.5l-0.9-0.9l-1.2-0.6l-0.8-0.5l-0.9-0.9l-1.3-0.5l-0.8-0.9l-0.9-0.6l-0.5-0.9l-0.9-0.8l-0.9-1
	L6,277l-0.8-0.9l-0.6-0.8L4.1,274l-0.6-0.8l-0.3-1.3l-0.6-1L2.3,270l-0.5-1.3l-0.4-1l-0.3-1.3L1,264.6l-0.3-1.3l-0.4-1.2v-1.4
	L0,259.4v-1.3v-1.6v-7.4l0.3-1.4v-1.8l0.3-1.4v-1.8l0.4-1.3l0.3-1.9v-1.7l0.3-1.8l3.2-18.1H74l-1.8,8.4l-0.3,1.8v1.4l-0.3,1.3v2.3
	l0.3,1.2v0.5l0.3,0.9v0.5l0.3,0.4l0.4,0.5v0.3h0.3l0.3,0.4l0.3,0.3H74l0.3,0.3h0.9l0.5,0.3l0.9,0.3h1.3l1,0.4h1.3l1,0.3h1.6l1.7,0.3
	h1.8l1.7,0.3h3.9l16.1,0.6h59l1.8-0.3l1.7-0.4l1.4-0.3l1.3-0.3l1.2-0.6l0.8-0.5l0.9-0.6l0.9-0.5l0.9-0.6l0.5-0.8l0.3-0.9l0.6-0.9
	l0.5-0.9l0.4-1.2l0.3-1.4l0.3-1.3v-3.1l-0.3-0.5V225l-0.3-0.3l-0.4-0.3v-0.3l-0.3-0.4l-0.5-0.3l-0.4-0.3h-0.5l-0.9-0.3l-0.9-0.4
	h-3.1l-0.9-0.3h-3.2l-2.1-0.3h-1.6l-11.4-0.6l-34.6-1.3l-16.5-1l-28.8-1.3h-1.8l-2.1-0.4h-3.9l-1.7-0.3h-1.7l-1.8-0.4h-1.8l-1.3-0.3
	l-1.9-0.3h-1.3l-1.8-0.3l-1.6-0.4H50l-1.4-0.3l-1.6-0.3l-2.9-0.6l-3.2-0.8l-2.6-0.9l-3.1-1.3l-2.3-1l-2.6-1.6l-2.1-1.7l-2.1-1.8
	l-2.1-2.1l-1.4-2.1l-1.4-2.3l-1.3-2.6l-0.8-2.3l-0.6-3l-0.5-2.6l-0.3-3v-3l-0.4-1.8V177l0.4-1.6v-3.2l0.3-1.7v-1.8l0.3-1.4l0.3-1.8
	l0.4-1.7l0.3-1.8l0.3-1.4l0.3-1.8l0.6-1.4l0.3-1.6l0.3-1.3l0.4-1.6l0.3-1.6l0.5-1.3l0.3-1.3l0.4-1.4l0.3-1.3l0.3-1.3l0.6-1.3
	l0.3-1.2l0.3-1.4l0.6-1.3l0.3-1l0.3-1.3l0.6-1l0.3-0.9l0.3-1.3l0.6-1l0.3-0.9l0.3-1.3L29,130l0.3-0.9l0.5-0.9l0.4-1.2l0.5-0.9
	l0.3-0.8l0.6-0.9l0.5-0.6l0.4-0.8l0.5-0.9l1.4-2.3l1.8-2.5l1.4-2.1l1.8-2.3l2.1-1.7l1.7-2.1l2.1-1.8l2.1-1.7l2.1-1.6l2.1-1.3
	l2.3-1.6l2.1-1.6l2.3-1.2l2.3-0.8l2.6-0.9l2.5-0.9l1.4-0.6l1.2-0.3l1.4-0.3l1.6-0.3l1.3-0.4l1.8-0.5L76,93l1.7-0.4H79l2.1-0.3
	l1.7-0.3l2.1-0.3l2.1-0.3h2l2.3-0.4l2.1-0.3h2.3l2.3-0.3h2.6l2.5-0.3h2.6l2.6-0.4h5.7l2.6-0.3h39.8l1.8,0.3h11.7l1.8,0.4h8.2
	l1.8,0.3h6.5l1.7,0.3h5.3l2.3,0.3h2.3l2.1,0.4h2.3l2.1,0.3h2.1l2.1,0.3l1.8,0.3h1.9l2.1,0.3l1.8,0.4l1.7,0.3l1.8,0.3l1.8,0.3
	l1.7,0.4l1.6,0.3l1.7,0.3l1.6,0.3l1.3,0.4l1.6,0.5l1.4,0.3l1.6,0.4l1.4,0.5l1.2,0.3l1.4,0.6l1.3,0.5l1,0.4l1.3,0.5l1.2,0.6l1.2,0.5
	l0.9,0.6l1.3,0.5l1.3,0.9l1.2,0.9l1.2,0.8l1.2,1.3L253.5,107.3z"/>
<path class="st0" d="M249.1,268.8l-3,13.9h57.5l7.4-32.9h-0.3L328,171l6.5-28.8h69c10.8,0,19,0.3,24.4,0.5
	c10.8,0.6,14.6,7.6,12,20.9c-1.1,6.4-3.8,12.5-7.8,17.6c-2.9,4.1-8.7,6.2-17.2,6.7l-17.9,0.4h-48.7L337.7,237h79.9
	c6.5,0,12.3-0.3,18.4-1.3c9.1-0.8,17.4-3.1,24.4-7.3c15.9-8.6,27.6-27.2,35.2-56.4c0.6-3,1.6-6,2.1-8.8c2.6-11.8,3.9-22.9,3.2-33.6
	c0-7.9-2.1-14.3-5.2-19.7c-4.5-6.5-11.3-10.9-20.3-13.2c-8.9-1.9-17.9-3-26.9-3.2l-23.8-0.3H287.6L249.1,268.8z M1518.6,280.5
	l40.8-187.1h167c7.9,0,15.5,0.3,23.3,1.3c16.8,1.7,27.7,8.2,31.6,19c1.7,4.7,2.6,9.1,2.6,13.2c-0.3,9.6-1.3,19.1-3.2,28.5
	c-2.3,12.6-7.1,24.6-14.1,35.2c-5.8,7.6-17.2,13.7-33.7,18.5c14.9,4.4,23.4,9.7,25.9,16.1c2.6,6.5,1.9,17.6-1.8,34.1l-5.1,23.3
	h-57.5l3.2-17.6c2.6-11.8,3-19.7,0.9-23.3c-2.1-4-9.1-6.1-21.1-6.1h-67.5l10.8-48.8h56.7c5.6,0,11.7,0,18.1-0.3
	c5.1-0.3,9.1-0.9,12.3-2.3c6.5-2.6,10.9-9.5,13.2-20.6c1.8-7.6,1.3-13.2-2.1-16.7c-2.6-2.6-7.8-4.1-16.7-4.1l-16.7-0.5h-79.2
	l-9.6,44.6l-10.6,48.8l-10.4,47h-57.4L1518.6,280.5z M1518.6,165.4l0.6-2.1h-142.1l5.6-25.9h0.3l9.7-44h-58.2l-28.8,132.5
	l-12.3,56.6h209.9l9.5-44h-152.1l7.4-34.3h142L1518.6,165.4z M1518.6,137.5h14.4l9.7-44h-126.2l-9.5,44H1518.6z M1305.7,93.4h12.3
	l-10.5,48.8h-83l-30.6,140.4h-57.5l30.6-140.4h-82.7l10.4-48.8L1305.7,93.4L1305.7,93.4z M821.2,93.4h91.6L991,234.5l30.8-141.2
	h57.5l-41.1,189.1h-91.9l-78-141.2l-30.8,141.6H780L821.2,93.4z M791.3,144.6l11.1-51.2h-57.9l-41.1,189.1H761L791.3,144.6z
	 M495.7,257l35.5-163.6h57.5l-30.3,140.4h126.8l-10.6,48.8H490.1L495.7,257z M249.1,113.2c3.5,7.3,4.1,17.2,1.8,29.5l-1.8,8.3
	l-0.9,4.7h-57.5l0.6-7c0-6.5-2.3-10.6-7.4-12c-5.3-1.3-10.7-1.9-16.2-1.8l-15.2-0.6h-33.7l-15.4,0.6c-3.9,0.1-7.7,0.7-11.4,1.8
	c-6.7,1.3-10.9,5.8-12.7,13c-1.7,7.5,0.9,12.3,8.6,14c3.9,0.9,7.9,1.6,12.7,1.6l14.9,0.3l52.6,1.7l30.4,1.3
	c8.8,0.5,16.5,1.9,23.4,4.3c17.4,6.5,22.9,24.5,16.5,54.4c-7.6,33.4-26.7,51.9-57.8,55.7c-4.9,0.6-10.9,1-16.8,1.3
	c-12.8,0.6-25.4,0.9-38.3,0.9c-14.1-0.3-34.6-0.6-62.2-1.6c-7-0.2-14.1-0.6-21.1-1.2c-16.5-1.2-28.2-5.6-35.2-13
	c-6.2-6.7-7.9-19.4-5.1-37.6l2.3-13.2h57.5c-1.9,10-0.8,16.5,3.6,19.2c2.9,1.7,10,2.6,21.1,3.2l16.5,0.3H160
	c12-0.3,19.2-5.2,20.9-14.8c1.4-8.4-1.4-13.2-8.8-14.3l-11.4-0.6L149,211l-34.5-1.4L98,208.7l-28.8-1.3c-8.7-0.4-17.4-1.3-26-2.6
	c-15.9-2.6-24.1-10.9-24.6-24.5c-0.4-20.7,4.3-41.2,13.9-59.6C39.1,109.5,49.6,101,62,96.9c11.9-3.9,35.8-5.6,71.5-5.6
	c19.2,0,37.1,0.5,54,1.3c24.6,1,41.7,3.9,51,9.6C243.6,104.7,247.1,108.3,249.1,113.2L249.1,113.2z"/>
<path class="st2" d="M703.6,527.4h340.7l13.6-66.5H818.8l4.9-25.3h195.2l13.5-66.3H837.1c6.4-30.6,12.9-61.2,19.7-91.7H754.5
	L703.6,527.4z M737.7,277.6l-13.5,66.5h-250l-0.6,0.3h-1.4l-0.6,0.3h-1.7l-0.3,0.3h-1.3l-0.8,0.4l-0.9,0.3h-0.9l-0.9,0.3l-0.9,0.3
	l-0.8,0.4l-0.9,0.3l-0.9,0.3l-0.6,0.5l-0.8,0.4l-0.9,0.3l-0.9,0.6l-0.9,0.3l-0.9,0.5l-0.8,0.6l-0.6,0.3l-0.9,0.6l-0.8,0.5l-0.6,0.6
	l-0.5,0.5l-0.6,0.3l-0.6,0.6l-0.3,0.5l-0.3,0.4l-0.6,0.5l-0.3,0.4l-0.3,0.5v0.3l-0.3,0.6l-0.4,0.3v0.9L430,449.4l-0.4,0.9v2.3
	l0.4,0.3v0.6l0.3,0.3l0.3,0.6l0.3,0.3l0.4,0.6l0.5,0.3l0.3,0.6l0.6,0.5l0.5,0.4l0.9,0.5l0.6,0.6l0.5,0.3l0.9,0.5l0.9,0.4l0.8,0.3
	l0.6,0.3l1.2,0.3l0.9,0.3l0.9,0.4l0.8,0.3h1.3l0.8,0.3h256.2L687,527.7H433.6L431,527h-3l-3-0.3h-2.6l-2.6-0.3l-2.7-0.3l-2.6-0.4
	l-2.6-0.3l-2.7-0.5l-2.6-0.4l-2.7-0.5l-2.3-0.6L399,523l-2.5-0.6l-2.3-0.5l-2.3-0.9l-2.3-0.6l-2.3-0.8l-2.3-0.9l-2.3-0.9l-2.1-1.2
	l-2.3-0.9l-2.1-0.9l-2.1-1.2l-2.1-1.2l-2.1-1.2l-2.1-1.2l-1.9-1.2l-1.8-1.4l-2.1-1.6l-1.7-1.2l-2.1-1.3l-1.8-1.6l-1.4-1.6l-1.8-1.4
	l-1.4-1.8l-1.4-1.3l-1.6-1.6l-1.4-1.8L346,491l-1.3-1.8l-1.3-1.8l-0.8-1.3l-1.3-1.8l-0.8-1.8l-0.9-1.8l-0.9-1.7l-0.5-2.1l-0.6-1.8
	l-0.5-1.7l-0.6-2.1l-0.5-1.8l-0.4-2.1l-0.3-1.7l-0.3-2.1v-7.9l0.3-2.1l0.3-2.1l0.4-2.1l0.3-2.1l0.3-1.7l0.3-1.8l0.6-1.8l0.3-1.7
	l0.3-1.8l0.3-1.4l0.4-1.8l0.3-1.8l0.6-1.3l0.3-1.6l0.3-1.8l0.3-1.4l0.3-1.4l0.4-1.6l0.3-1.4l0.3-1.4l0.3-1.6l0.4-1.4l0.3-1.4
	l0.3-1.3l0.3-1.3l0.4-1.3l0.3-1.4v-1.3l0.3-1l0.3-1.6l0.4-1.2l0.3-1.2l0.3-1.2v-0.9l0.3-1.2l0.4-1.2l0.3-2.1l0.5-1.8l0.4-1.9
	l0.3-1.8l0.5-2.1l0.3-1.8l0.4-1.7l0.3-2.1l0.5-1.8l0.4-1.7l0.3-1.8l0.3-1.7l0.6-1.8l0.3-1.8l0.3-1.7l0.3-1.8l0.4-1.4l0.3-1.8
	l0.5-1.4V366l0.4-1.3l0.3-1.3l0.3-1.2l0.3-0.9v-1.2l0.4-0.8l0.3-0.6v-1.4l0.3-0.6v-0.9l0.6-2.1l0.5-1.9l0.6-1.8l0.5-2.1l0.6-2.1
	l0.8-2.1l0.9-1.7l0.9-2.1l0.9-2.1l1.2-1.7l1.2-1.8l1.2-2.1l1.3-1.8l1-1.7l1.4-1.8l1.6-1.8l1.4-1.7l1.4-1.8l1.6-1.4l1.7-1.8l1.8-1.7
	l1.8-1.6l1.7-1.4l1.8-1.8l2.1-1.4l2.1-1.4l1.9-1.6l2.1-1.3l2.1-1.6l2.3-1.6l2.3-1.3l2.3-1.6l2.5-1.4l2.3-1.3l2.3-1.2l2.6-1.3
	l2.3-1.3l2.6-1.3l2.5-0.8l2.6-1.2l2.3-0.9l2.6-1.2l2.7-0.9l2.3-0.8l2.6-0.9l2.7-0.9l2.6-0.5l2.7-0.9l2.6-0.6l2.6-0.5l2.7-0.6
	l2.6-0.5l3-0.4l2.6-0.5l2.7-0.3l3-0.6l2.6-0.3l3-0.3l2.6-0.4h3l3-0.3h8.4L737.7,277.6z M1111,277.6h93.9l-37.3,183.3h231.6
	l-13.5,66.5h-325.6L1111,277.6z M1078.5,344.1l13.5-66.5H872.1l-14.4,66.5H1078.5z M1400.4,527.3l50.8-249.8h93.9l-37.6,183.3h231.9
	l-13.5,66.5H1400.4z"/>
<path class="st0" d="M1034.7,516.5l11.1-54.9H806.6l7.4-36.8h195.5l11.1-54.9H825.1l19.7-91.3h-90.7l-48.5,238L1034.7,516.5z
	 M725.5,278.5l-10,49.4l-1.2,5.6H468.8c-1.3,0.3-2.3,0.3-3.2,0.6l-3.5,0.3c-5.3,1.3-10.6,3.2-15.5,6.5c-5.1,3.2-8,7-8.8,11.1
	L419,443.3c-0.9,5.1,0.8,9.5,5.6,13.2c4.9,3.5,10.8,5.3,18.1,5.3h245.6l-11.1,54.7H431.5c-29.9,0-54.4-7-73.1-21.4
	c-14.4-11.3-22-23.8-22.9-38.6v-4.7c0.3-2.6,0.6-5.6,1.3-8.2c3.8-19.4,7-34.7,9.3-46.1l5.8-29.4l3.2-16.2
	c4.1-20.3,18.5-37.6,43.1-51.8c24.8-14.4,53-21.8,81.6-21.4L725.5,278.5z M1110.6,278.5h82.1l-37.2,183.1H1387l-11.1,54.9H1062
	L1110.6,278.5z M1079.8,278.5H871.9l-12,54.9h209L1079.8,278.5z M1402.1,516.5l48.3-238h82.5l-37.3,183.1h231.6l-11.1,54.9H1402.1z"
	/>
<g id="_x23_fefefeff">
	<path class="st3" d="M1736.9,484.9c-1.9,3.4-5.7,10.1-7.6,13.5c-21,0.3-42,0-63,0.3c-2.5-9.4-5.6-21-16.7-23.2
		c-20-8.8-41.4-4.1-61.7,0.3c-55.1,3.6-110.1,8.3-165.2,11.1l-4.1,0.2"/>
</g>
<g id="_x23_fefefeff_1_">
	<path class="st3" d="M1681,498.2c-2.5-9.3-5.5-20.7-16.5-22.8c-19.7-8.7-40.8-4-60.9,0.3c-54.3,3.6-108.5,8.1-162.9,10.9l-4,0.2"/>
</g>
<g id="_x23_e81e24ff">
	<path class="st4" d="M1679.8,500.9c-2.1,35.4-0.3,70.7,5,105.7c-9.2,0.6-18.4,1-27.6,1.6c-1.7-34.1-3.8-68.1-3.2-102.2
		c-6.6,0.4-13.1,0.6-19.6,0.8c-6.7-5.5-14.8-6.8-23.1-5.7c-2.7,5.1-5.4,10.3-8,15.5c-24.4-0.9-48.8-5.9-73.3-3.2
		c-29.6,1.3-59.7,7.6-89,0.8c-67.4,12.1-136.1,10.4-204.1,16.6c-9-18.4-27.1,1.1-41.4-0.9c-14.8-2.1-29.4-0.1-43.5,4.5
		c-0.4-4.4-1.2-13.3-1.6-17.8c-9,1.3-17.8,3.5-26.4,6.3c4.3,9.4-2.9,13.3-11.3,14.3c-52.4,3.6-104.8,7.2-157.3,9.1
		c0.5-3.6,1.5-10.7,2-14.3c4.6,0.8,9.2,1.7,13.8,2.6c12.5-5.3,33.4-3.6,36-20.7c12.4-0.5,24.9-0.8,37.2-2.6
		c38.2-0.6,76.5-6.8,114.8-9.5l5.4-3c81.2,0.7,162-7.3,243.1-10.9c11,0.1,22.1-0.3,33.1-1.2c54.3-2.8,108.5-7.4,162.9-10.9
		c20-4.3,41.2-9,60.9-0.3c11,2.1,14.1,13.5,16.5,22.8"/>
	<path class="st4" d="M708.5,529.2c24.7-1,49.5,1.3,74.1-0.8c11.9-1.7,23.6-5.4,35.7-3.4c-2.5,6.9-5,13.8-7.5,20.7
		c5.4-4.3,10.5-9,16.7-12.3c11.4,6.7,24.6,4.8,37.1,4.6c0.1,3,0.3,9.1,0.4,12.1c-11.9-2.1-23.6-0.1-35.1,3.1
		c-45,5.7-90.6,4-135.7,9.7c-10.8,1.6-21.7-5.6-32.1-0.1c-22.1,6.5-45.4,1.9-68.1,4c-62.3,6.1-125,7.5-187.4,12
		c-21.2-0.4-42,3.2-62.4,8.3c-27.9-5.6-56.3-1.9-84.4,0c-6.9,4.4-13.2,9.7-19.6,14.7c1.1,36.7-1.1,73.8,4.9,110.2
		c-9.3,0.6-18.6,1.2-27.9,1.8c0.7-20.9-5-42.6,1.7-62.9c1.4-7.4,7.8-18.6-0.9-23.9c-15-10.4,6.8-30.4-7.2-41.6
		c5.3-2.6,10.6-5.1,15.8-7.7c-2.1-0.6-6.3-1.8-8.4-2.5c-1.5-2.7-4.5-8-6-10.7l1.6-8.3c7.3-0.6,14.4-2.3,20.2-6.9
		c21.4-1,41.6,8.7,63.1,4.3c34.6-5.8,69.9-2,104.4-8.3c41.6-2.1,83.9,2.4,125-4.9c15.6-0.4,31.2,0,46.8,1.1
		c-0.3,3.4-0.8,10.1-1.1,13.5c9.7-1.6,19.2-3.7,28.7-6.1l5.4-1.4c2.9-4.8,5.9-9.5,8.8-14.3c3.3,1.8,10,5.3,13.3,7.1
		c-0.3,3.7-0.8,10.9-1.1,14.6c20,3,40.1,0,60.1,0.9c1.3-7.4-3.9-18.2,5.8-21.9c-0.5,4.4-1.5,13.3-2,17.8
		C706.5,553.9,706.6,540,708.5,529.2z"/>
	<path class="st4" d="M867.3,538.7c16.8,2.7,38.3-5.8,50.7,9.5c-15.7,1.6-31.8,3.8-47.4,0.5L867.3,538.7z"/>
	<path class="st4" d="M925.9,543.4c5.3-4.6,10.9-5.1,16.8-1.6C943.6,549.3,924.8,551.5,925.9,543.4z"/>
	<path class="st4" d="M1502,577.9c7.2-20.5,30.7-28.1,50.6-27.9c-0.4,14.7,1,32.6-16.8,37c1,5.7,0.7,12.7,6.7,15.9
		c22.8,14.9,49.3,25.5,67.9,46.1c14,14.8,10.3,39.1-3.9,52.4c-11.7,8.8-26.4,11.8-40.6,13c-1.6-10-2.7-20.1-2.4-30.3
		c8.6-1.4,21.2,0.1,20.9-12.2c-13.3-19.2-37.2-26.7-55.3-40.6C1510.5,621.2,1495,599.7,1502,577.9z"/>
	<path class="st4" d="M1558.8,549.7c18,0.8,43.8,2.1,50.6,22.5c2.4,6.5,3.5,13.3,4.9,20.1c-12,0.8-23.9,1.9-35.7,3.2
		c1.7,3.9,5.2,11.8,7,15.7c-5.5,1.9-11.2,1.8-17.1-0.6c0.5-2.4,1.4-7.3,1.9-9.7c-14.5,4.6-14.9-12.5-7.1-20
		C1561,570.5,1559.6,560.1,1558.8,549.7z"/>
	<path class="st4" d="M1379.8,564.3c11.5-1.4,22.5-6.1,34.4-4.9c0.6,12.8,2,25.6,3.2,38.4c-10.8-1.7-7.9-13.6-11.5-20.8
		c0.9,8.3-3.2,22.6,9.9,21.7c2.7,12.3,2.6,27.4,13.5,35.8l-0.3,2.7c-1.9,22.4-12.7,44.9-4.4,67.3c1.8-3,5.5-9.1,7.4-12.1
		c13-0.3,26-0.4,39-1.5l3.1-0.2c-0.8,8.3-1.6,16.6-2.4,24.9c-28.6-2.6-56.9,3.4-85.4,2.9c-0.2-4.5-0.5-13.6-0.6-18.1l-0.1-1.7
		c0.1-31-4.5-61.9-3.3-92.9c1.7-1.4,5-4.1,6.6-5.5c-2.5,0.3-7.4,0.9-9.8,1.2c-12.7-0.9-4.9-14.1-2.2-20.6c-4.9-2.8-8.2-6.8-10-12.1
		c3,0.9,9.1,2.8,12.2,3.7C1379.2,570.5,1379.6,566.4,1379.8,564.3 M1391.8,585.2c-4.1,4.9-1.9,14.1,3.8,16.9
		C1406.3,601.6,1402.2,579.3,1391.8,585.2z"/>
	<path class="st4" d="M1234.1,598.7c1.9-13-2.1-27.9,9-37.7c4.1,7.6,8.1,15.2,12,22.9c2.8-5.1,5.4-10.3,8.7-15.2
		c14.8-2.6,29.9-1.6,44.8-2.6c4.4,8.8,5,18.7,7.4,28.1c2.6,16.7,13.7,30.6,15.5,47.5c0.2,8.3,11.2,8.8,15.9,13.9
		c-17.7,10.1-1.4,29.7,2.4,43.6c4,8.4,6.8,17.1,8.7,26.3c-15.2-0.8-30.5-1-45.7,0.2c-0.2-3.1-0.7-9.2-0.9-12.3
		c-1.4,2.1-4.1,6.3-5.5,8.4l-7.8,6.8c-8.7-15.8,11.5-23.5,10.2-38.1c-12.6,1.5-25.3,3.2-37.9,4.5c-2.7,10.4-5.2,20.9-6,31.7
		c-11.6,1.6-23.4,2.9-35,4.3c-5.6-11.2-11.9-22.7-10.6-35.7c3.9-0.1,11.6-0.2,15.5-0.2c2.7-11.2,5.2-22.4,7.6-33.6
		c4.1-22.3,11-44.2,10.7-67C1247.5,595.8,1237.7,607.6,1234.1,598.7 M1274.2,690.9c2.9-7.5,5-15.3,7.1-22.9
		c7.1-0.8,14.2-1.6,21.3-2.2c-5.9-19.9-9.5-40.3-16.4-59.8C1279.9,633.7,1273.1,662.5,1274.2,690.9z"/>
	<path class="st4" d="M1157.5,571.9c8.5,0.8,18-1.4,25.9,2.9c9.1,12.8,1.3,29.8,7.6,43.8c9.1,24.4-2,49.5-1.2,74.4
		c0.6,5.8-1.9,9.5-7.5,11c4.5,4.7,9,9.4,13.3,14.4c0.5,3.1,1.5,9.4,2,12.5c-11.2,0.3-22.6,0.7-33.4,4.3c-6.5-0.9-13-1.9-19.5-2.8
		c0.3-2.8,0.7-8.5,1-11.4c2.8,0.4,8.3,1.1,11,1.6c2.5-27.2-4-53.9-2.9-81C1152.6,618.3,1149.7,594.3,1157.5,571.9z"/>
	<path class="st4" d="M1004.2,582c37.7,0.7,75.2-6.2,112.9-5.1c-0.5,8.4-0.9,16.8-1.4,25.2c-22.5,0.3-44.9,5.5-67.2,1.4
		c-14.5,2.6-29.3,3.7-44,4.3C1004.4,599.2,1004.3,590.6,1004.2,582z"/>
	<path class="st4" d="M932.7,584.9c11.7-1.6,23.6-2.9,35.2-0.4c-1.6,52.5,6.3,104.7,6,157.3c-11.3,0.1-22.6,0.7-34,0.3
		c-0.5-2.8-1.4-8.5-1.9-11.3c-3.3,0.4-9.9,1.3-13.2,1.7c6-23.9-15.1-41.5-23.7-61.9c-3.6-6.4-7.1-12.9-10.6-19.3
		c0.2-9.5,0.2-19.1-0.3-28.6c-6.2,6.8-5.7,15.9-3.9,24.2c4.5,20.4,0.9,41.5,4.8,62c2.8,12.3,2.9,24.9,2.8,37.5
		c-11.6,0.1-23.1,0.2-34.6,0.5c-0.4-3.1-1.1-9.4-1.5-12.4c-14.6,0.1-7,25.4-25.5,18.3c1-4.3,3.2-12.7,4.2-17
		c2.1,2.5,6.4,7.3,8.6,9.8c0.6-3.3,1.9-9.9,2.5-13.2c2.5,0.4,7.4,1,9.8,1.4c-1.4-35.4-3.6-70.7-4.4-106.1c6.8,0.6,13.5,0.3,20.2-0.8
		c-7.1-1.7-14.3-3.1-21.4-4.2c-0.7-11-3.4-22.4-0.4-33.2c10.9-2.5,22.2-1.6,33.3-1.8c-0.3,6.5-0.5,13-0.8,19.5
		c3.9,0.1,11.7,0.3,15.6,0.4c2,24.4,20.6,43.1,30,65c5.3-6.3,8-13.9,8-22.1c2.6-4.3,5.2-8.5,7.9-12.7c-3-0.1-8.9-0.2-11.9-0.3
		C934.1,619.9,933.7,602.4,932.7,584.9z"/>
	<path class="st4" d="M725.8,596.6c29.9-2.3,59.7-4.1,89.7-5c-0.4,8.8-0.7,17.7-1,26.6c-11.8,0.5-23.5,1.9-35,4.2
		c2.6,7.5,4.6,15,6.2,22.8c-7.2-1.3-14.4-2.5-21.6-3.6c0.6,17.8-2,36.2,3.3,53.5c2.7,0.4,8,1.3,10.7,1.6c-2.9,4.7-6.1,9.2-9.6,13.5
		c-0.2,10.2,0.1,20.6,0.4,30.9c4.6-8.9,4.8-21.4,14.2-26.8c1.1,2.4,3.2,7.1,4.3,9.4c13.4-0.4,26.9-1.9,40.3-0.6
		c1.7,9.5-5.1,17.7-6.7,26.8c-28.9,4.2-58.2,3.3-87.3,4.1c-8.7-31.5-1.9-64.2-8-96l9.7,1.5c-2.2-0.9-6.7-2.9-9-3.8
		C726.3,636.1,723.1,616.3,725.8,596.6z"/>
	<path class="st4" d="M594.1,603.2c9.8-1.5,19.5-3.4,29.2-5.4c0.9,7.4,1.6,14.8,2,22.3c-4.2,5.5-10.6,9.2-13.8,15.5
		c-4.3,16.2,15.1,22.3,26.7,26.7c0.1-3.8,0.2-11.3,0.2-15.1l8.7,2.2c-6.6-17.3-18.6-33.7-13-53.1c12.4,1.3,26.1,1.5,36.6,9.4
		c11.9,6.8,15.6,20.8,22.3,31.9c-12.5,4-25.8,4.8-38.8,6c-0.7,9.8-0.7,19.7,1.8,29.3c18.9,7.6,34.2,25,36.8,45.4
		c3.8,15.3-6.7,28.4-12.3,41.6c-12.3-3.1-24.9-3.1-36,3.7c-4.3-8.9-3.8-18.8-3.9-28.3c9.7-2.2,19.9-6.5,16-18.7
		c-22.5-22.3-54.3-32.9-75.3-56.7C567.9,640.9,576.8,616.4,594.1,603.2z"/>
	<path class="st4" d="M443.4,613.2c9.1-1.1,18.1-2.7,26.9-5.3c0.2,7.7,0.5,15.4,0.8,23.1c-11.2,3.9-23.1,20.2-10.6,29.4
		c17.8,9.8,35.9,19.2,52.7,30.8c0.4,2.5,1.1,7.5,1.5,10c6.6-0.2,13.2-0.3,19.7-0.4c0.4,13.1,10.1,25.6,4.8,38.8
		c-2.6,21.1-25.6,27.6-43.3,31.1c-8.3,4.9-7.1-10-14.8-9.1c-1.1,2.7-3.4,8-4.5,10.7c-13.9,2.4-30.3,4.5-40.3-7.7
		c-13-8.6-13.1-24.9-16.6-38.5c9.8-1.7,19.7-4,29.8-3.8c9,1.7,9.5,12.9,13.6,19.4c3.3,0.3,10,0.9,13.4,1.2c0.9,3.1,2.9,9.4,3.9,12.5
		c6.5-4.2,9.3-12.4,14.7-17.9c5.5,2.5,11,5,16.5,7.6c-2.6-2.6-7.9-7.6-10.6-10.2c7.3-7.4,17.3-10.7,26.2-15.6
		c-9.7,0.3-21.1,14-28.6,2.4c-10.9-0.7-15.5-11.6-23.9-16.9c-19-12.9-41-22.9-53.2-43.4c-1.6,2.7-4.6,8.3-6.2,11
		c-1.2-4.1-3.7-12.4-4.9-16.6c2.2-2.4,6.5-7.1,8.7-9.4c-0.9-6.7-0.7-13.3,0.7-19.7C427.6,622.1,435.7,618,443.4,613.2z"/>
	<path class="st4" d="M480.2,633.5c0.2-8.1-4-20.5,4.8-25.2c21.3-3.8,37,14,55.4,21.2c-0.5,8.2-1.1,16.5-1.7,24.7
		c-13.7-1.8-27.6-1.6-41.3-3.7c-1.1-3.2-3.4-9.5-4.6-12.7C489.7,636.8,483.4,634.6,480.2,633.5z"/>
	<path class="st4" d="M336.1,617.1c9.6-1,19.2-2,28.8-2.6c4.6-0.3,13.7-0.7,18.3-0.9c0.2,9.1,0.3,18.2,0.4,27.4
		c-15.7,0.4-31.3,0.7-46.9,1.5C336.5,634,336.4,625.5,336.1,617.1z"/>
	<path class="st4" d="M1042.4,613.2c12.3-0.6,24.7-0.9,37-0.8c3.8,36.6-0.4,74.2,9.2,110.1c1.1,5.6,1.2,11.3,0.3,17.1
		c-13.4-2.5-27-3.4-40.6-3.5c0.7-9,3.2-18,1.5-27C1044.7,677.3,1047.8,644.9,1042.4,613.2z"/>
	<path class="st4" d="M294.2,619.1c12-0.8,23.9-1.5,35.9-1.8c3,45,5,90,6.9,135c-1.8,2.9-3.6,5.9-5.3,8.8c2,3.1,6,9.5,7.9,12.7
		c-10.3,1.4-21.2,2.5-29.6,9.3c-19-6.9-11.9-30.6-5.2-44.2c-3.7-4.9-6.9-10-9.7-15.5c6.9-19.9-1-41.1,2.7-61.6
		C290.4,648.6,289.7,633.3,294.2,619.1z"/>
	<path class="st4" d="M1655,628c8.1-7,19.4-4.6,29.3-5.7c4,27.6,1.7,55.8,6.2,83.4c-0.3,3.4-1,10.2-1.3,13.6
		c9.2,11.2-0.9,23.9,1.8,36.5c6.4,14.7-22.3,30.6-21.2,8.2c2.7,0,8,0,10.7,0c-0.4-3-1.1-9-1.5-12c-22.1-5.5-35.6,20.5-57.9,12.4
		l-0.7,8c2.2,0.9,6.6,2.8,8.8,3.7c0.5,12.6-14.8,4.1-21.4,3.8c-10.9-2.5-22.1-0.6-33.1-0.1c1.8,12.6-11.9,11.7-19.7,15.4
		c-6.3-5.2-12.7-10.6-15.6-18.4c-1.5-6.8-2.6-13.7-3.8-20.6c6.5,0.7,13.1,1.5,19.6,2.3c2.3-10.1,14.2-7.4,21.6-8.7
		c12.4-0.5,25-0.7,37.2-3.3c6.6-1.1,13.2-2.2,19.7-3.4c4.4-5.2,10.8-7,17.3-8.2c19.2-23.1,10.7-53.9,12.3-81.3
		c2.9,0.1,8.8,0.2,11.8,0.2c-1.1-7.1-2.8-14-5.2-20.7C1666.2,631.7,1658.7,629.3,1655,628z"/>
	<path class="st4" d="M778.5,648.1c9.6,10.7,24,6.8,36.6,6.8c0.1,8.1,0.3,16.2,0.6,24.3c-14.5,3.6-29.3,7.1-44.3,4.6
		c-0.5-8-1-15.9-1.5-23.8C772,657,776.3,651,778.5,648.1z"/>
	<path class="st4" d="M1500.4,667.5c11.6-0.5,23.2-1.3,34.9-1.9c1.3,4.5,2.6,9.1,3.9,13.6c-8.8,0.9-17.6,2.5-25.8,5.7
		c4,0.3,11.9,0.8,15.9,1.1c6.5,4.3,13.1,8.3,19.8,12.3c-0.1-2.9-0.3-8.8-0.4-11.8c16.5,0.7,6.9,19.4,8.7,29
		c-15.6-2.4-32.8-4.4-44.8-15.7C1503.5,691.9,1502.7,678.7,1500.4,667.5z"/>
	<path class="st4" d="M341,680c14.1-3.9,28-8.1,42.5-3.1c0.5,9.7,0.9,19.4,1.2,29.1c-14.2,0.7-28.3-0.1-42.5-1.1
		C341.8,696.6,341.3,688.3,341,680z"/>
	<path class="st4" d="M575,716.8c12,0.7,24.3-5.4,35.7-2.7c3.1,11.9,12.9,18.8,22.7,25c-1.5,8-2.7,16.1-4.4,24.1
		c-13.1-8.2-31.8-1.6-41.8-15.3C578,740.2,577.8,727.5,575,716.8z"/>
	<path class="st4" d="M216.9,728.7c8.7-0.2,17.4-0.3,26.1-0.4c4.8,31.1,2.2,62.6,4.5,93.9c31.6,6.2,61.7-8.1,92.9-5.2
		c5.1-8.7,16.5-5.9,24.6-9.1c7.9-4,13.9,5,20.4,7.9c21.6-10.4,45.7-8.1,68.7-5.1c31.4,4.5,62.2-5.7,93.5-5.6
		c61.1,1.4,123.2-0.4,182.6-14.6c3.3,1.5,9.9,4.3,13.3,5.8c1.5-2.2,4.5-6.6,6.1-8.8c15.2,16.6,38.2,1.8,57.1,3.2
		c47.6,2.7,94.9-5.9,142.6-5.6c-2.1,3.1-6.2,9.2-8.3,12.3c9,7.4,8.9,13.5-0.3,18.4c-11.2-4.2-22.9-6.8-34.9-7.6
		c-0.2,1.9-0.6,5.7-0.8,7.7c-6.2-0.3-12.4-0.5-18.5-0.7c-20.6,11-46.8,4.6-69.5,6.8c0.2-3.3,0.7-9.9,0.9-13.3
		c-5.3,0.9-15.8,2.8-21.1,3.8c0-2.3,0-6.9,0-9.2c-16.3-0.2-31,8.8-47.4,7.7l-0.7,4.1c-13-0.9-25,2.8-33.5,12.9
		c-24.2,13.3-52.4,4.2-78.6,6.6c-38.7-1.1-76.2,10.7-114.8,8.9c-3.8-0.2-11.3-0.4-15.1-0.5c-3.7-0.4-11-1.1-14.7-1.5
		c0.6-2.8,1.7-8.5,2.3-11.4c-10.1,2.4-27.6-4.6-28.7,10.9c-2.9,0.7-8.8,2.1-11.8,2.8l-5.5,1.2c-11.8,0.9-23.7,0.7-35.5,0.6
		c3.2-5.5,6.3-11,9.5-16.5c-10.5,1.7-20.9,3.4-31.3,5.6c4.1,0.5,12.4,1.5,16.6,2c-2.7,15.7-21.6,13-33.3,15.9
		c-5.1,0.5-10.1,1-15.2,1.7c-7.6-4.2-17.1-7-18.9-17.1c-2.2,3.1-6.8,9.4-9,12.5c-0.1-2.9-0.2-8.7-0.3-11.6
		c-8.6,0.1-12.8,4.6-12.5,13.7c-19.3,0.9-38.6,3.8-57.9,4.2c-11.4-1.8-22.9-4-34.6-3c0.4-8.6,0.8-17.1,0.9-25.6
		c-6.6-10.3-10.6-22.7-7.4-34.9C223.8,771.3,220.2,749.8,216.9,728.7z"/>
	<path class="st4" d="M353.6,737.2c7.6,3,15.1,6.4,22.5,9.8c0.6,2.1,1.8,6.3,2.4,8.5c-0.1-3-0.2-9.1-0.2-12.1
		c17.8-2.2,12.5,19.6,11.7,29.8c-11.1-1.8-22.8-2.4-33.4,2c-4.1,1.3-12.4,3.8-16.5,5.1C339.8,764.3,342.8,749.2,353.6,737.2z"/>
	<path class="st4" d="M1364.5,762.9c52.3-2.3,104.4-11.5,156.8-8.3c0.6,7.7,1,15.4,1.3,23c0.1,2.1,0.2,6.4,0.3,8.5
		c-15.6-1.5-31.1-1.1-46.7-0.9c-11.6,5.2-23,0.7-34.6-1.7c-28.8,7.3-58.6,5.9-87.9,6.9c0-8.4,3.7-14.6,11.2-18.7
		C1364.8,769.6,1364.6,765.2,1364.5,762.9z"/>
	<path class="st4" d="M1526,765c1.2-2.4,3.7-7,4.9-9.4c0,2.3,0,6.8,0,9.1L1526,765z"/>
	<path class="st4" d="M1232.3,769.2c19-3.2,38.2-0.5,57.4-1.3c12.7-1.2,23.4,7.2,34.7,11.8c-0.5,4.6-1,9.2-1.5,13.9
		c-16.4,0.9-34-3.3-49.5,3.9c-13.3,0.2-28,4.4-40.2-2.6c-4.4-0.1-13.4-0.2-17.8-0.3c-15.9,8.2-34.6,3-51.7,5.9
		c-43,8.5-87.2,4.8-130.8,5.4c-15.6,1.9-28.7-9.9-44.5-5c-0.1-5.2-0.1-15.7-0.1-20.9c45.8,1.6,91.3-3.6,136.9-6.3l0.1,7.4
		c1.5-2.2,4.4-6.7,5.9-9c17.4,0.2,35.7,20.4,51.3,6.1C1196.3,765,1218.6,783.3,1232.3,769.2z"/>
	<path class="st4" d="M963.1,789c7,0.2,14.1,0.3,21.1,0.5c0,5.3-0.1,16-0.1,21.4c-4.9-0.1-14.7-0.1-19.6-0.2
		C964.1,805.2,963.4,794.4,963.1,789z"/>
</g>
</svg>
