<svg xmlns="http://www.w3.org/2000/svg" width="1469pt" height="151pt" viewBox="0 0 1469 151"><g stroke="#000" stroke-width=".09"><path d="M383.37 0h490.47c5.05 3.72 6.96 10.01 7.59 15.98a33.87 33.87 0 0 1-5.39 15.87c.8 2.48 1.5 4.98 2.15 7.51 17.29-2.92 35.38-1.07 51.57 5.7 5.12-4.84 12.44-5.86 19.22-5.59 8.29.38 16.89-1.1 24.88 1.85 2.76.85 4.89 2.91 6.64 5.13 4.99-6.58 13.94-7.27 21.54-6.97 9.44.39 20.14-1.72 28.24 4.43 17.74-4.64 36.4-7.88 54.67-4.49 7.3 1.56 14.78 2.89 21.47 6.37 6.45-7.1 16.8-6.41 25.54-6.29 15.62.42 31.62-1.55 46.85 2.91 7.58 1.46 14.5 5.5 19.91 10.95 5.41 5.67 6.88 14.63 3.23 21.64-4.37 7.9-9.02 15.64-13.51 23.46-2.48 4.73-7.33 8.12-7.71 13.82 54.1-.08 108.2 0 162.31-.05 5.38.24 11.34 1.38 15.04 5.68 3.4 3.44 4.14 8.47 4.84 13.05.54 7.08-.61 15.15-6.29 20.04H111.54c-1.86-1.68-3.63-3.58-4.59-5.93a31.95 31.95 0 0 1 .83-24.29c3.31-6.18 10.6-8.48 17.2-8.55 47.03.03 94.05.01 141.08.02 11.66-20.08 23.3-40.17 34.95-60.26 2.31-4.12 5.03-8.44 9.55-10.38 8.05-3.37 16.92-1.72 25.38-2.14 7.29-.26 15.75.68 20.51 6.92a88.55 88.55 0 0 1 3.46-3.53c1.07-6.83 5.48-12.29 8.65-18.23 5-8.17 9.14-16.89 14.81-24.63m11.98 12.02c-6.32 11.11-12.75 22.17-19.15 33.23l10.73.01c4.63-8 9.21-16.03 13.88-24.01 4.37.08 8.75-.15 13.12.09 1.23.57.23 1.63-.12 2.45-4.09 7.17-8.28 14.28-12.33 21.47l10.65-.01c4.84-8.25 9.55-16.6 14.39-24.86.71-1.37 1.61-2.77 1.52-4.38.36-2.66-2.65-4.15-4.92-3.98-9.26-.07-18.51-.02-27.77-.01m20.25 33.21c33.45.05 66.89 0 100.34.03a15.37 15.37 0 0 0 13.35-7.8c3.38-5.96 6.87-11.86 10.25-17.81.93-1.68 1.9-4.04.48-5.73-1.33-1.97-3.95-1.86-6.03-1.93-33.06.01-66.12.02-99.18 0-6.49 11.03-12.84 22.14-19.21 33.24m142.33-33.24c-6.46 11.05-12.77 22.2-19.23 33.26 3.64 0 7.29.04 10.95-.07 2.39-4.36 4.94-8.62 7.41-12.94l9.72.01c3.54-2.43 7.19-4.71 10.68-7.21-5.41-.09-10.83-.02-16.24-.04l2.18-3.75c6.6-.07 13.22.14 19.82-.09 3.7-1.95 6.96-4.65 10.55-6.81l-.29 1.13c-3.83 5.37-6.79 11.29-10.18 16.93-1.79 3.34-4.59 6.52-4.11 10.58 1.17.9 2.26 2.16 3.88 2.17 5.98.24 11.97 0 17.96.11 6 .32 11.93-3.24 14.6-8.6 3.43-6.28 7.36-12.3 10.57-18.7 1.47-2.95-1.09-6.05-4.16-5.9-21.37-.18-42.74 0-64.11-.08m75.27.03c-6.33 11.1-12.8 22.11-19.11 33.21 3.56.03 7.12.03 10.68 0 1.85-3.21 3.74-6.39 5.49-9.65 4.46-.15 8.92-.06 13.39-.07-1.9 3.21-3.76 6.44-5.55 9.72 3.57.03 7.15.06 10.74-.04 1.99-4.44 5.8-8.2 6.31-13.19l-1.94-1.02c5.25-1.25 7.5-6.56 9.98-10.76a7.27 7.27 0 0 0 1.1-6.09c-1.42-2.05-4.05-2.14-6.28-2.14-8.28.02-16.54-.01-24.81.03m43.57 8.74c-1.29 2.62-3.68 5.09-3.25 8.2.37 2.53 3.23 3.21 5.37 3.25 4.88.14 9.77-.03 14.66.06-1.16 1.56-2.13 4.05-4.48 3.72-4.88.08-9.77-.04-14.65.03-4.53 3.11-9.16 6.07-13.68 9.19 8.75.1 17.51 0 26.27.06 5.71.22 11.49-2.93 14.18-8.02 1.29-2.37 2.9-4.61 3.76-7.19a4.03 4.03 0 0 0-3.85-4.98c-5.38-.25-10.77.08-16.14-.17 1.13-1.46 2.18-3.53 4.29-3.6 6.51-.26 13.06.17 19.57-.17 3.51-2 6.79-4.37 10.17-6.59-5.77 10.3-11.74 20.47-17.65 30.68 3.58.03 7.16.02 10.74.02 1.9-3.24 3.71-6.54 5.66-9.76l15.33.02c5.51.13 10.72-3.33 13.3-8.11 1.83-3.46 4.22-6.67 5.54-10.39.79-2.84-2.17-5.12-4.79-4.98-18.7-.08-37.41 0-56.12-.04a15.85 15.85 0 0 0-14.23 8.77m62.7 24.49l100.56.01c5.73.02 11.13-3.61 13.68-8.68 3.43-6.25 7.32-12.26 10.52-18.63 1.61-3.42-1.81-6.48-5.15-5.93-33.41 0-66.82-.09-100.23.04-6.82 10.81-12.86 22.17-19.38 33.19m113.83.01l1.95-2.7 2.1-.57-2.08 2.28c1.54.01 3.1.08 4.66.19.73-1.32 1.45-2.65 2.17-3.99l-3.03 1.66-.88-1.84-1.26 1.3-2.18-1.35a735 735 0 0 1-1.45 5.02M430.63 63.45c1.32-2.32 2.66-4.64 4.02-6.94-8.45-.02-16.9-.01-25.35-.01-13.96 24.27-28.02 48.49-41.98 72.76-7.17-.01-14.34-.03-21.5.01 3.87-2.16 9.56-2.37 11.42-7.02 12.59-21.95 25.33-43.81 37.92-65.75-8.47.01-16.95-.03-25.42.02-11.45 19.93-23.1 39.74-34.5 59.7-8.42 2.86-17.98 3.76-26.39.43.8-2.55 2.36-4.74 3.66-7.04 10.26-17.7 20.52-35.4 30.75-53.11-8.43.19-17-.38-25.34.26-13.43 22.67-26.43 45.62-39.78 68.34a94.66 94.66 0 0 0 4.97 4.18c-53.7-.07-107.4-.01-161.1-.03L122 138h1224l-.01-8.75c-64.83.01-129.67-.01-194.51.01 4.81-8.38 9.72-16.69 14.48-25.1-3.35-3.19-7.87-4.52-12.25-5.54a78.96 78.96 0 0 0 18.03-5.17c5.33-9.03 10.49-18.15 15.81-27.18-6.42-7.82-17.19-9.22-26.66-9.71-13.78-.16-27.58 0-41.36-.07-14.14 24.22-28.12 48.53-42.22 72.78-4.49-.03-8.98-.01-13.47-.03 3.56-6.27 7.23-12.47 10.81-18.73-8.39-.02-16.77-.01-25.16-.01-1.55 2.44-2.75 5.1-4.47 7.43-8.31 2.31-17.32 2.63-25.63.17 2.58-4.65 5.32-9.21 7.95-13.83 13.25-.04 26.49-.01 39.74-.02 3.37-5.83 6.77-11.65 10.12-17.5-13.24.01-26.49-.02-39.73.01 2.49-4.23 4.88-8.52 7.44-12.71 8.4-1.84 17.31-2.43 25.66.01-1.5 2.55-2.97 5.12-4.46 7.67 8.41.03 16.83.02 25.25.01 3.56-6.28 7.23-12.5 10.83-18.77-9.69-6.56-21.83-7.68-33.21-7.98-14.57.38-29.36 2.51-42.87 8.1-12.96 21.95-25.6 44.11-38.41 66.15-9.65-.01-19.31.08-28.96-.05a178.91 178.91 0 0 0 33.32-34.18c9.38-12.64 18.25-25.66 27.4-38.48-8.37-.02-16.74-.12-25.1.03-2.28 1.98-3.62 4.9-5.5 7.26-14.07 19.49-27.2 40.02-44.97 56.43 3.88-22.54 15.18-42.73 23.62-63.74-8.41-.04-16.81.02-25.21-.03-3.05 6.87-5.98 13.8-8.97 20.7-7.29 16.34-12.53 34.03-11.97 52.08-12.53 0-25.05-.05-37.57.03a263.1 263.1 0 0 0 9.53-4c11.73-20.22 23.44-40.45 35.2-60.66-8.85-7.77-21.2-9.28-32.52-9.64-15.62.05-31.34 3.15-45.6 9.59-2.03 2.68-3.42 5.78-5.18 8.63-9.97 17.3-20.17 34.48-29.97 51.87 1.15 1.8 3.28 2.83 4.92 4.2-8.76-.04-17.52-.06-26.27.01 2.62-.99 5.25-2.03 7.85-3.12 3.83-6.65 7.72-13.26 11.55-19.92-8.38-.02-16.76.03-25.14-.02-2.18 3.41-3.84 7.17-6.26 10.41-8.19 2.61-17.3 3.08-25.51.3 7.7-13.99 15.94-27.68 23.89-41.53 8.33-2.09 17.58-3.29 25.72.12-2.15 3.43-4.1 6.98-6.16 10.47h25.18c4.3-7.38 8.59-14.76 12.87-22.16-7.56-6.03-17.43-7.93-26.83-8.6-16.77-1.01-33.73 2.16-49.25 8.52-12.07 20.78-24.11 41.57-36.17 62.36a174.1 174.1 0 0 0 4.27 3.14c-6.19-.03-12.38.02-18.56-.03 4.8-8.41 9.81-16.7 14.47-25.19-3.45-2.89-7.75-4.41-12.05-5.5a69.6 69.6 0 0 0 16.98-4.8c1.19-.43 1.62-1.78 2.31-2.73 4.74-8.28 9.56-16.51 14.34-24.76-6.66-7.99-17.73-9.31-27.45-9.73-13.55-.06-27.11-.01-40.66-.02-13.99 24.28-28.08 48.51-42.11 72.76-4.52-.02-9.03 0-13.53-.02 3.61-6.23 7.28-12.43 10.8-18.71-8.41-.04-16.82-.08-25.23.02-1.35 2.51-2.8 4.96-4.24 7.42-8.37 2.07-17.48 2.86-25.75-.05 2.76-4.49 5.28-9.12 7.98-13.65 13.24-.03 26.48-.02 39.72-.01 3.33-5.86 6.87-11.6 10.05-17.54-13.21.07-26.42.02-39.62.02 1.99-3.46 4.01-6.91 5.98-10.39.63-.95.99-2.39 2.38-2.44 8.06-1.83 16.65-2.18 24.65.16-1.43 2.56-2.9 5.1-4.37 7.64 8.41.06 16.83.06 25.25.01 3.53-6.29 7.19-12.49 10.8-18.74-9.37-6.33-21.01-7.62-32.03-7.98a127.4 127.4 0 0 0-41.2 6.85c-1.33.53-2.96.84-3.58 2.3-12.55 21.71-25.17 43.38-37.68 65.11-7.21-.03-14.41.01-21.61-.02 4.04-1.61 8.06-3.3 11.92-5.3 10.73-18.59 21.5-37.15 32.26-55.72-7.3-8.76-19.27-11.2-30.1-11.7-13.16-.06-26.32 0-39.47-.02-14.07 24.27-28.06 48.58-42.22 72.8-4.6-.09-9.2-.04-13.8-.04 12.41-21.65 24.96-43.21 37.35-64.87-3.84-3.87-8.54-7.04-13.92-8.25-12.74-2.97-26.61-.1-37.34 7.31z"/><path d="M497.24 21.19c3.72-1.93 7.01-4.61 10.58-6.83-4.13 7.25-8.29 14.48-12.52 21.67-8.81-.07-17.61-.01-26.41-.04l2.2-3.74 9.66.01c3.56-2.42 7.21-4.72 10.72-7.22-5.42-.09-10.83-.02-16.25-.04l2.18-3.75c6.61-.06 13.22.11 19.84-.06zM821.23 21.16c3.91-1.78 6.97-5.27 10.97-6.73-4.99 6.73-8.52 14.47-12.95 21.58-8.81-.03-17.61 0-26.41-.01.69-1.25 1.41-2.5 2.13-3.76 3.92-.44 8.53 1.24 11.88-1.44 2.83-1.98 5.79-3.77 8.64-5.75-5.45-.11-10.9-.02-16.34-.06l2.19-3.76c6.63-.03 13.26.16 19.89-.07zM460.23 21.26c3.4-2.29 6.86-4.48 10.26-6.77-4.13 7.17-8.29 14.33-12.41 21.51-8.8-.01-17.59.01-26.39-.01.75-1.26 1.5-2.52 2.27-3.78 3.92-.39 8.52 1.26 11.88-1.4 2.86-1.96 5.75-3.86 8.63-5.8-5.46-.03-10.92.01-16.38-.02l2.09-3.71c6.68-.05 13.37-.03 20.05-.02zM784.02 21.14c3.62-1.9 6.89-4.42 10.33-6.63a3242.9 3242.9 0 0 1-12.39 21.5c-8.78-.04-17.56.03-26.33-.04l2.19-3.73c3.19.01 6.39 0 9.59.04 3.63-2.39 7.27-4.78 10.85-7.25-5.44-.06-10.88-.01-16.31-.03.73-1.26 1.49-2.52 2.24-3.77 6.61-.05 13.23.19 19.83-.09zM514.55 21.26c4.27.37 8.87-.86 12.93.71-2.73 4.44-4.91 9.29-8.07 13.44-4.17 1.34-8.93.25-13.33.57 2.82-4.91 5.69-9.79 8.47-14.72zM600.08 22.35c3.72-2.25 8.55-.71 12.71-1 .52 1.57-.83 2.82-1.43 4.13-1.95 3.11-3.49 6.48-5.66 9.44-.8 1.22-2.36 1.05-3.59 1.1-3.15.01-6.3-.02-9.44-.09 1.55-4.91 4.65-9.28 7.41-13.58zM638.57 21.29c4.15-.06 8.3-.05 12.46-.01-.01 1.97-1.14 4.29-3.1 4.89-4.07.24-8.16 0-12.23.08l2.87-4.96zM723.06 26.27c.93-1.67 1.89-3.34 2.85-5.02 4.18.19 8.44-.43 12.58.35-.32 2.17-1.87 5.01-4.43 4.64-3.67.08-7.34-.04-11 .03zM838.41 21.32c4.11-.05 8.23-.22 12.34.05.74 1.75-1.13 3.22-1.72 4.74-2.15 3.09-3.32 7.02-6.13 9.55-4.23.8-8.64.12-12.93.35 2.82-4.9 5.68-9.76 8.44-14.69zM695.3 72.24c7.44.67 15.56-1.63 22.47 1.94-2.7 4.86-5.59 9.59-8.27 14.45-7.98 3.11-16.69 2.26-25.05 2.35 3.61-6.25 7.22-12.5 10.85-18.74zM1135.44 72.24c7.45.6 15.45-1.49 22.46 1.84-2.59 4.95-5.61 9.65-8.26 14.56-7.97 3.12-16.68 2.22-25.04 2.36 3.57-6.28 7.22-12.51 10.84-18.76zM437.77 73.79c4.07-1.33 8.93-1.28 12.43 1.47a13732.13 13732.13 0 0 1-31.13 53.99c-8.82-.01-17.65.02-26.47-.01 8.06-13.88 16.08-27.79 24.09-41.69 1.35-2.55 3.84-4.16 6.14-5.77 4.68-3.16 9.56-6.16 14.94-7.99zM515.42 74.31c7.95.31 16.73-1.54 23.93 2.75l.01.6c-7.01 12.47-14.31 24.8-21.46 37.2-8.73 3.66-18.3 3.21-27.56 3.14 8.37-14.56 16.77-29.1 25.08-43.69zM869.98 75.69c8.64-2.52 18.34-3.44 26.8.22-7.7 13.36-15.55 26.64-23.12 40.07-8.99 3.01-19.26 4.19-28.16.27 7.26-12.59 14.6-25.15 21.83-37.76.71-1.05 1.14-2.66 2.65-2.8zM674.98 107.97c7.28.35 15.07-.98 21.88 2.31-3.58 6.36-7.32 12.63-10.92 18.97-7.78-.01-15.56.02-23.33-.01 4.13-7.09 8.19-14.21 12.37-21.27zM1102.73 129.25a3448.1 3448.1 0 0 0 12.31-21.25c7.32.26 15.11-.96 21.98 2.25-3.59 6.37-7.34 12.64-10.95 19h-23.34z"/></g><g fill="#fff" stroke="#fff" stroke-width=".09"><path d="M395.35 12.02c9.26-.01 18.51-.06 27.77.01 2.27-.17 5.28 1.32 4.92 3.98.09 1.61-.81 3.01-1.52 4.38-4.84 8.26-9.55 16.61-14.39 24.86l-10.65.01c4.05-7.19 8.24-14.3 12.33-21.47.35-.82 1.35-1.88.12-2.45-4.37-.24-8.75-.01-13.12-.09-4.67 7.98-9.25 16.01-13.88 24.01l-10.73-.01c6.4-11.06 12.83-22.12 19.15-33.23zM415.6 45.23c6.37-11.1 12.72-22.21 19.21-33.24 33.06.02 66.12.01 99.18 0 2.08.07 4.7-.04 6.03 1.93 1.42 1.69.45 4.05-.48 5.73-3.38 5.95-6.87 11.85-10.25 17.81a15.37 15.37 0 0 1-13.35 7.8c-33.45-.03-66.89.02-100.34-.03m81.64-24.04c-6.62.17-13.23 0-19.84.06L475.22 25c5.42.02 10.83-.05 16.25.04-3.51 2.5-7.16 4.8-10.72 7.22l-9.66-.01-2.2 3.74c8.8.03 17.6-.03 26.41.04 4.23-7.19 8.39-14.42 12.52-21.67-3.57 2.22-6.86 4.9-10.58 6.83m-37.01.07c-6.68-.01-13.37-.03-20.05.02l-2.09 3.71c5.46.03 10.92-.01 16.38.02-2.88 1.94-5.77 3.84-8.63 5.8-3.36 2.66-7.96 1.01-11.88 1.4-.77 1.26-1.52 2.52-2.27 3.78 8.8.02 17.59 0 26.39.01 4.12-7.18 8.28-14.34 12.41-21.51-3.4 2.29-6.86 4.48-10.26 6.77m54.32 0c-2.78 4.93-5.65 9.81-8.47 14.72 4.4-.32 9.16.77 13.33-.57 3.16-4.15 5.34-9 8.07-13.44-4.06-1.57-8.66-.34-12.93-.71zM557.93 11.99c21.37.08 42.74-.1 64.11.08 3.07-.15 5.63 2.95 4.16 5.9-3.21 6.4-7.14 12.42-10.57 18.7a15.77 15.77 0 0 1-14.6 8.6c-5.99-.11-11.98.13-17.96-.11-1.62-.01-2.71-1.27-3.88-2.17-.48-4.06 2.32-7.24 4.11-10.58 3.39-5.64 6.35-11.56 10.18-16.93l.29-1.13c-3.59 2.16-6.85 4.86-10.55 6.81-6.6.23-13.22.02-19.82.09L561.22 25c5.41.02 10.83-.05 16.24.04-3.49 2.5-7.14 4.78-10.68 7.21l-9.72-.01c-2.47 4.32-5.02 8.58-7.41 12.94-3.66.11-7.31.07-10.95.07 6.46-11.06 12.77-22.21 19.23-33.26m42.15 10.36c-2.76 4.3-5.86 8.67-7.41 13.58 3.14.07 6.29.1 9.44.09 1.23-.05 2.79.12 3.59-1.1 2.17-2.96 3.71-6.33 5.66-9.44.6-1.31 1.95-2.56 1.43-4.13-4.16.29-8.99-1.25-12.71 1zM633.2 12.02c8.27-.04 16.53-.01 24.81-.03 2.23 0 4.86.09 6.28 2.14.64 2.09.08 4.3-1.1 6.09-2.48 4.2-4.73 9.51-9.98 10.76l1.94 1.02c-.51 4.99-4.32 8.75-6.31 13.19-3.59.1-7.17.07-10.74.04 1.79-3.28 3.65-6.51 5.55-9.72-4.47.01-8.93-.08-13.39.07-1.75 3.26-3.64 6.44-5.49 9.65-3.56.03-7.12.03-10.68 0 6.31-11.1 12.78-22.11 19.11-33.21m5.37 9.27l-2.87 4.96c4.07-.08 8.16.16 12.23-.08 1.96-.6 3.09-2.92 3.1-4.89-4.16-.04-8.31-.05-12.46.01zM676.77 20.76A15.85 15.85 0 0 1 691 11.99c18.71.04 37.42-.04 56.12.04 2.62-.14 5.58 2.14 4.79 4.98-1.32 3.72-3.71 6.93-5.54 10.39-2.58 4.78-7.79 8.24-13.3 8.11l-15.33-.02c-1.95 3.22-3.76 6.52-5.66 9.76-3.58 0-7.16.01-10.74-.02 5.91-10.21 11.88-20.38 17.65-30.68-3.38 2.22-6.66 4.59-10.17 6.59-6.51.34-13.06-.09-19.57.17-2.11.07-3.16 2.14-4.29 3.6 5.37.25 10.76-.08 16.14.17a4.03 4.03 0 0 1 3.85 4.98c-.86 2.58-2.47 4.82-3.76 7.19-2.69 5.09-8.47 8.24-14.18 8.02-8.76-.06-17.52.04-26.27-.06 4.52-3.12 9.15-6.08 13.68-9.19 4.88-.07 9.77.05 14.65-.03 2.35.33 3.32-2.16 4.48-3.72-4.89-.09-9.78.08-14.66-.06-2.14-.04-5-.72-5.37-3.25-.43-3.11 1.96-5.58 3.25-8.2m46.29 5.51c3.66-.07 7.33.05 11-.03 2.56.37 4.11-2.47 4.43-4.64-4.14-.78-8.4-.16-12.58-.35-.96 1.68-1.92 3.35-2.85 5.02zM739.47 45.25c6.52-11.02 12.56-22.38 19.38-33.19 33.41-.13 66.82-.04 100.23-.04 3.34-.55 6.76 2.51 5.15 5.93-3.2 6.37-7.09 12.38-10.52 18.63-2.55 5.07-7.95 8.7-13.68 8.68l-100.56-.01m81.76-24.09c-6.63.23-13.26.04-19.89.07l-2.19 3.76c5.44.04 10.89-.05 16.34.06-2.85 1.98-5.81 3.77-8.64 5.75-3.35 2.68-7.96 1-11.88 1.44-.72 1.26-1.44 2.51-2.13 3.76 8.8.01 17.6-.02 26.41.01 4.43-7.11 7.96-14.85 12.95-21.58-4 1.46-7.06 4.95-10.97 6.73m-37.21-.02c-6.6.28-13.22.04-19.83.09-.75 1.25-1.51 2.51-2.24 3.77 5.43.02 10.87-.03 16.31.03-3.58 2.47-7.22 4.86-10.85 7.25-3.2-.04-6.4-.03-9.59-.04l-2.19 3.73c8.77.07 17.55 0 26.33.04a3242.9 3242.9 0 0 0 12.39-21.5c-3.44 2.21-6.71 4.73-10.33 6.63m54.39.18c-2.76 4.93-5.62 9.79-8.44 14.69 4.29-.23 8.7.45 12.93-.35 2.81-2.53 3.98-6.46 6.13-9.55.59-1.52 2.46-2.99 1.72-4.74-4.11-.27-8.23-.1-12.34-.05zM853.3 45.26a735 735 0 0 0 1.45-5.02l2.18 1.35 1.26-1.3.88 1.84 3.03-1.66c-.72 1.34-1.44 2.67-2.17 3.99a73.18 73.18 0 0 0-4.66-.19l2.08-2.28-2.1.57-1.95 2.7zM430.63 63.45c10.73-7.41 24.6-10.28 37.34-7.31 5.38 1.21 10.08 4.38 13.92 8.25-12.39 21.66-24.94 43.22-37.35 64.87 4.6 0 9.2-.05 13.8.04 14.16-24.22 28.15-48.53 42.22-72.8 13.15.02 26.31-.04 39.47.02 10.83.5 22.8 2.94 30.1 11.7-10.76 18.57-21.53 37.13-32.26 55.72-3.86 2-7.88 3.69-11.92 5.3 7.2.03 14.4-.01 21.61.02 12.51-21.73 25.13-43.4 37.68-65.11.62-1.46 2.25-1.77 3.58-2.3a127.4 127.4 0 0 1 41.2-6.85c11.02.36 22.66 1.65 32.03 7.98-3.61 6.25-7.27 12.45-10.8 18.74-8.42.05-16.84.05-25.25-.01 1.47-2.54 2.94-5.08 4.37-7.64-8-2.34-16.59-1.99-24.65-.16-1.39.05-1.75 1.49-2.38 2.44-1.97 3.48-3.99 6.93-5.98 10.39 13.2 0 26.41.05 39.62-.02-3.18 5.94-6.72 11.68-10.05 17.54-13.24-.01-26.48-.02-39.72.01-2.7 4.53-5.22 9.16-7.98 13.65 8.27 2.91 17.38 2.12 25.75.05 1.44-2.46 2.89-4.91 4.24-7.42 8.41-.1 16.82-.06 25.23-.02-3.52 6.28-7.19 12.48-10.8 18.71 4.5.02 9.01 0 13.53.02 14.03-24.25 28.12-48.48 42.11-72.76 13.55.01 27.11-.04 40.66.02 9.72.42 20.79 1.74 27.45 9.73-4.78 8.25-9.6 16.48-14.34 24.76-.69.95-1.12 2.3-2.31 2.73a69.6 69.6 0 0 1-16.98 4.8c4.3 1.09 8.6 2.61 12.05 5.5-4.66 8.49-9.67 16.78-14.47 25.19 6.18.05 12.37 0 18.56.03a174.1 174.1 0 0 1-4.27-3.14c12.06-20.79 24.1-41.58 36.17-62.36 15.52-6.36 32.48-9.53 49.25-8.52 9.4.67 19.27 2.57 26.83 8.6-4.28 7.4-8.57 14.78-12.87 22.16h-25.18c2.06-3.49 4.01-7.04 6.16-10.47-8.14-3.41-17.39-2.21-25.72-.12-7.95 13.85-16.19 27.54-23.89 41.53 8.21 2.78 17.32 2.31 25.51-.3 2.42-3.24 4.08-7 6.26-10.41 8.38.05 16.76 0 25.14.02-3.83 6.66-7.72 13.27-11.55 19.92-2.6 1.09-5.23 2.13-7.85 3.12 8.75-.07 17.51-.05 26.27-.01-1.64-1.37-3.77-2.4-4.92-4.2 9.8-17.39 20-34.57 29.97-51.87 1.76-2.85 3.15-5.95 5.18-8.63 14.26-6.44 29.98-9.54 45.6-9.59 11.32.36 23.67 1.87 32.52 9.64-11.76 20.21-23.47 40.44-35.2 60.66a263.1 263.1 0 0 1-9.53 4c12.52-.08 25.04-.03 37.57-.03-.56-18.05 4.68-35.74 11.97-52.08 2.99-6.9 5.92-13.83 8.97-20.7 8.4.05 16.8-.01 25.21.03-8.44 21.01-19.74 41.2-23.62 63.74 17.77-16.41 30.9-36.94 44.97-56.43 1.88-2.36 3.22-5.28 5.5-7.26 8.36-.15 16.73-.05 25.1-.03-9.15 12.82-18.02 25.84-27.4 38.48a178.91 178.91 0 0 1-33.32 34.18c9.65.13 19.31.04 28.96.05 12.81-22.04 25.45-44.2 38.41-66.15 13.51-5.59 28.3-7.72 42.87-8.1 11.38.3 23.52 1.42 33.21 7.98-3.6 6.27-7.27 12.49-10.83 18.77-8.42.01-16.84.02-25.25-.01 1.49-2.55 2.96-5.12 4.46-7.67-8.35-2.44-17.26-1.85-25.66-.01-2.56 4.19-4.95 8.48-7.44 12.71 13.24-.03 26.49 0 39.73-.01-3.35 5.85-6.75 11.67-10.12 17.5-13.25.01-26.49-.02-39.74.02-2.63 4.62-5.37 9.18-7.95 13.83 8.31 2.46 17.32 2.14 25.63-.17 1.72-2.33 2.92-4.99 4.47-7.43 8.39 0 16.77-.01 25.16.01-3.58 6.26-7.25 12.46-10.81 18.73 4.49.02 8.98 0 13.47.03 14.1-24.25 28.08-48.56 42.22-72.78 13.78.07 27.58-.09 41.36.07 9.47.49 20.24 1.89 26.66 9.71-5.32 9.03-10.48 18.15-15.81 27.18a78.96 78.96 0 0 1-18.03 5.17c4.38 1.02 8.9 2.35 12.25 5.54-4.76 8.41-9.67 16.72-14.48 25.1 64.84-.02 129.68 0 194.51-.01l.01 8.75H122l.01-8.75c53.7.02 107.4-.04 161.1.03a94.66 94.66 0 0 1-4.97-4.18c13.35-22.72 26.35-45.67 39.78-68.34 8.34-.64 16.91-.07 25.34-.26a40532.5 40532.5 0 0 1-30.75 53.11c-1.3 2.3-2.86 4.49-3.66 7.04 8.41 3.33 17.97 2.43 26.39-.43 11.4-19.96 23.05-39.77 34.5-59.7 8.47-.05 16.95-.01 25.42-.02-12.59 21.94-25.33 43.8-37.92 65.75-1.86 4.65-7.55 4.86-11.42 7.02 7.16-.04 14.33-.02 21.5-.01 13.96-24.27 28.02-48.49 41.98-72.76 8.45 0 16.9-.01 25.35.01-1.36 2.3-2.7 4.62-4.02 6.94m264.67 8.79a7003.2 7003.2 0 0 0-10.85 18.74c8.36-.09 17.07.76 25.05-2.35 2.68-4.86 5.57-9.59 8.27-14.45-6.91-3.57-15.03-1.27-22.47-1.94m440.14 0c-3.62 6.25-7.27 12.48-10.84 18.76 8.36-.14 17.07.76 25.04-2.36 2.65-4.91 5.67-9.61 8.26-14.56-7.01-3.33-15.01-1.24-22.46-1.84m-697.67 1.55c-5.38 1.83-10.26 4.83-14.94 7.99-2.3 1.61-4.79 3.22-6.14 5.77-8.01 13.9-16.03 27.81-24.09 41.69 8.82.03 17.65 0 26.47.01 10.41-17.97 20.8-35.97 31.13-53.99-3.5-2.75-8.36-2.8-12.43-1.47m77.65.52c-8.31 14.59-16.71 29.13-25.08 43.69 9.26.07 18.83.52 27.56-3.14 7.15-12.4 14.45-24.73 21.46-37.2l-.01-.6c-7.2-4.29-15.98-2.44-23.93-2.75m354.56 1.38c-1.51.14-1.94 1.75-2.65 2.8-7.23 12.61-14.57 25.17-21.83 37.76 8.9 3.92 19.17 2.74 28.16-.27 7.57-13.43 15.42-26.71 23.12-40.07-8.46-3.66-18.16-2.74-26.8-.22m-195 32.28c-4.18 7.06-8.24 14.18-12.37 21.27 7.77.03 15.55 0 23.33.01 3.6-6.34 7.34-12.61 10.92-18.97-6.81-3.29-14.6-1.96-21.88-2.31m427.75 21.28h23.34c3.61-6.36 7.36-12.63 10.95-19-6.87-3.21-14.66-1.99-21.98-2.25a3448.1 3448.1 0 0 1-12.31 21.25z"/></g></svg>