<svg id="Layer_1" data-name="Layer 1" xmlns="http://www.w3.org/2000/svg" xmlns:xlink="http://www.w3.org/1999/xlink" viewBox="0 0 490 513"><defs><linearGradient id="linear-gradient" x1="84.14" y1="926.3" x2="473.08" y2="537.36" gradientTransform="translate(-28 -486)" gradientUnits="userSpaceOnUse"><stop offset="0" stop-color="#a68b56"/><stop offset="0.12" stop-color="#987b52"/><stop offset="0.25" stop-color="#e3d7b1"/><stop offset="0.3" stop-color="#dfd1a0"/><stop offset="0.34" stop-color="#ddcf9a"/><stop offset="0.58" stop-color="#ac9467"/><stop offset="0.69" stop-color="#987c52"/><stop offset="1" stop-color="#baa46c"/></linearGradient><linearGradient id="linear-gradient-2" x1="257.76" y1="774.19" x2="257.76" y2="983.56" gradientTransform="translate(-28 -486)" gradientUnits="userSpaceOnUse"><stop offset="0.13" stop-color="#e488b1"/><stop offset="0.21" stop-color="#e27cb0"/><stop offset="0.49" stop-color="#db56af"/><stop offset="0.64" stop-color="#d947ae"/></linearGradient><linearGradient id="linear-gradient-3" x1="224.24" y1="1025.89" x2="294.4" y2="860.39" gradientTransform="translate(-28 -486)" gradientUnits="userSpaceOnUse"><stop offset="0" stop-color="#a48955"/><stop offset="0.12" stop-color="#977b52"/><stop offset="0.25" stop-color="#e2d6b0"/><stop offset="0.3" stop-color="#ded09f"/><stop offset="0.34" stop-color="#dcce99"/><stop offset="0.58" stop-color="#ab9467"/><stop offset="0.69" stop-color="#977c52"/><stop offset="1" stop-color="#b8a36c"/></linearGradient><linearGradient id="linear-gradient-4" x1="10541.26" y1="-28835.44" x2="-6212.74" y2="19683.85" xlink:href="#linear-gradient"/><linearGradient id="linear-gradient-5" x1="1449.36" y1="-9139.29" x2="-483.64" y2="7281.61" xlink:href="#linear-gradient"/></defs><path d="M390.78,3.06V126.41H249v-.06H230.66v7.11h10.81A22.52,22.52,0,0,1,256,138.75a21.68,21.68,0,0,1,5.75-3.44,28.65,28.65,0,0,1,10.1-2h32.25c1.7,0,9.86.3,16,5.63a21.67,21.67,0,0,1,6-3.6,28.71,28.71,0,0,1,10.11-2H382v-3.77h45.28v9.12h32V215.9a18.64,18.64,0,0,1-5.51,13.43c-6.29,6.26-15.37,6.52-17.15,6.54H404.54c-1.79,0-10.86-.32-17.12-6.57A18.62,18.62,0,0,1,382,215.84V199.52H359V226.8A23.45,23.45,0,0,1,371.9,233a18.74,18.74,0,0,1,5.5,13.67v43a12.3,12.3,0,0,1,3.14,13.1c-.27.77-1.78,5.11-3.88,11.45a16.45,16.45,0,0,1-.59,1.8l-.21.65c7,.91,12.16,3.21,16,7a18.5,18.5,0,0,1,2.29,2.78,20.49,20.49,0,0,1,2.91,2.43,19.26,19.26,0,0,1,3.11,4.07c.71-.72,1.4-1.39,2.07-2,2-1.77,6.37-5.76,12.22-5.76a13.64,13.64,0,0,1,5.92,1.38,13.32,13.32,0,0,1,6.37,5.81c10.34,5.86,7.6,19,3.53,38.58-4.3,20.61-9.78,43.92-14.62,64.48-2.31,9.82-4.5,19.09-6.37,27.29l-1.69,7.38c-1.12,5-1.18,5.23-1.63,6.14-.11.31-.45,1.33-1.31,4.36-1.94,6.83-3.58,12.14-4.87,15.78-1.51,4.21-4.9,13.69-14.13,13.69a14.72,14.72,0,0,1-1.76-.11h-.61l-.35-.1a12.43,12.43,0,0,1-8.7-6.43c-3.78-2-6.94-6.08-7.06-13.08a74.71,74.71,0,0,1,.42-7.91,13,13,0,0,1,7-10.29c4.43-16.19,14-57.08,20.28-84.74q-6.5,5.69-12.57,5.69a13.29,13.29,0,0,1-6.37-1.68,13.53,13.53,0,0,1-4.84-4.24c-5.06,5.94-12.33,13-20.43,13a14.43,14.43,0,0,1-7.08-1.89,14.93,14.93,0,0,1-5.7-5.51,15.15,15.15,0,0,1-6.18-7.1c-7.4,9.67-14.57,16.88-22.43,16.88a13.86,13.86,0,0,1-6-1.4,13.58,13.58,0,0,1-6.38-5.81,13.35,13.35,0,0,1-5.79-6.38c-2.19,1.43-4.52,3-7.05,4.6-7.22,4.69-16.38,9.86-25.12,9.86a21.36,21.36,0,0,1-2.77-.18,16.88,16.88,0,0,1-10.91-6,15.22,15.22,0,0,1-1.2-1.69,16.79,16.79,0,0,1-4-3.52c-10.6-12.88,2.07-36.21,10.86-45.26,9.88-10.18,19.29-15.34,26.61-18h-19.4c-7.46-.11-15-3.27-19.12-9.21a20.15,20.15,0,0,1-9.22,7.18,29,29,0,0,1-10,2H187.6a29.26,29.26,0,0,1-9.61-1.88v1.88H134l-16.6,22.72.19.09a12.29,12.29,0,0,1,5.3,5.26,12.19,12.19,0,0,1,3.58,2.84,80.74,80.74,0,0,1,13.7-13.39l.72-.51c2.39-1.67,6.14-4.31,11-4.31a14.42,14.42,0,0,1,3,.32,13.85,13.85,0,0,1,9,6.51l.09.17a14.17,14.17,0,0,1,3,2.34c.6-.81,1.21-1.6,1.84-2.39,8.44-10.56,17.13-15.95,25.84-15.95h.51a19.81,19.81,0,0,1,15,7.27,15.22,15.22,0,0,1,.94,1.33,19.22,19.22,0,0,1,4.27,3.88A19,19,0,0,1,219,359.2a25.18,25.18,0,0,1-.88,4.12,11.42,11.42,0,0,1,1.94,1.28,12.23,12.23,0,0,1,3.21,3.9,12.08,12.08,0,0,1,2,1.31,12.41,12.41,0,0,1,1.93,17.43c-14.56,18.15-30.17,23.6-33.72,24.65a40.93,40.93,0,0,1-13.37,2.52c-7.43,0-12.32-2.82-15.4-5.78-11.44,6-20.45,8.9-27.77,8.9a26.07,26.07,0,0,1-3.42-.22,20.22,20.22,0,0,1-8.61-3.19,18.4,18.4,0,0,1-5.26-5.25,18.5,18.5,0,0,1-4.79-4.59,21.36,21.36,0,0,0-.84,3.33,12.41,12.41,0,0,1-12.16,14.55,11.16,11.16,0,0,1-1.63-.11,12.44,12.44,0,0,1-9.37-6.54,12.29,12.29,0,0,1-3.94-3.26,12.5,12.5,0,0,1-2.29-4.58c-.77-2.95-.9-6.52.45-12.21-7.56,10.23-13.58,18.28-16,21.36S61,427,53,427a14,14,0,0,1-12.17-7c-4.78-2.72-7.59-8.1-7.47-14.58l-2.53-39.12a12.59,12.59,0,0,1,.64-4.8,12.43,12.43,0,0,1,2.44-4.19,12.26,12.26,0,0,1,3.92-2.93,12.4,12.4,0,0,1,4.66-1.23h.8a12.38,12.38,0,0,1,11,6.64,12.1,12.1,0,0,1,2.41,1.65,12.34,12.34,0,0,1,4.13,8.51L61,374c12.86-17.42,30-40.82,41.57-56.68a19.28,19.28,0,0,1-1.91-8.58V246.57a18.94,18.94,0,0,1,5.48-13.65c6-6,14.6-6.58,16.84-6.58h1a19,19,0,0,1-3-10.46v-37.1h-6.4V152.24a30.57,30.57,0,0,1-3.58.21H56V44.06C56,32,67.63,23.89,78.53,23.89h96.88a25,25,0,0,1,16,5.67,22.09,22.09,0,0,1,5.9-3.57,28.55,28.55,0,0,1,10.08-2l86.86.06h9.45a26.13,26.13,0,0,1,12.92,3.66,21.54,21.54,0,0,1,2.87,2.07A21.69,21.69,0,0,1,325.66,26a29.48,29.48,0,0,1,10.12-2.07h9.65V3.06ZM305.5,335.31a12.44,12.44,0,0,1,6.87-8.63,21.62,21.62,0,0,1-5.86-3.54,21.7,21.7,0,0,1-6,3.61,26.49,26.49,0,0,1-3.13,1,12.47,12.47,0,0,1,4.82,5,12.56,12.56,0,0,1,3.33,2.55ZM393.78.06H342.37V20.87h-6.65a32.19,32.19,0,0,0-11.22,2.29,25.71,25.71,0,0,0-5.05,2.74c-.42-.29-.86-.57-1.3-.84A29.25,29.25,0,0,0,303.68,21h-9.46l-86.85-.06a31.73,31.73,0,0,0-11.22,2.28,25.3,25.3,0,0,0-4.75,2.56,28.61,28.61,0,0,0-16-4.89H78.51a27.55,27.55,0,0,0-17.29,6.25,21.73,21.73,0,0,0-8.29,17V155.47h58.7V181.8H118v34.1a22.64,22.64,0,0,0,1.31,7.74c-4,.57-10.32,2.25-15.26,7.17a21.82,21.82,0,0,0-6.36,15.78v62.15a23.18,23.18,0,0,0,1.47,8.2c-10.41,14.27-24.41,33.28-36,49.12a15.27,15.27,0,0,0-4.56-7,14.29,14.29,0,0,0-2.19-1.6,15.19,15.19,0,0,0-13.15-7.4h-1a15.41,15.41,0,0,0-14.43,16.38l2.45,39c-.09,7.16,3,13.33,8.3,16.7a16.86,16.86,0,0,0,12,7.69,16.31,16.31,0,0,0,2.31.16c9.51,0,15.79-7.89,18.47-11.26,1.63-2.05,4.92-6.4,9.81-13a20.72,20.72,0,0,0,.52,2.72,15.48,15.48,0,0,0,6.92,9.28,15.51,15.51,0,0,0,11.19,7.33,16.65,16.65,0,0,0,2,.13,15.4,15.4,0,0,0,15.4-14.32l.33.23a21.21,21.21,0,0,0,5.77,5.6,23.36,23.36,0,0,0,9.86,3.65,28.72,28.72,0,0,0,3.82.25c7.38,0,16.34-2.72,27.34-8.3a25,25,0,0,0,15.83,5.18,44.09,44.09,0,0,0,14.29-2.66c4.59-1.37,20.34-7.19,35.14-25.63a15.45,15.45,0,0,0-2.39-21.65,14.73,14.73,0,0,0-1.67-1.17,15.55,15.55,0,0,0-3.54-4l-.37-.29c.17-.8.31-1.61.41-2.4a21,21,0,0,0-8.69-20.7c-.26-.37-.52-.72-.78-1.06a22.89,22.89,0,0,0-7.73-6.11h15A31.83,31.83,0,0,0,231,329.54a24.27,24.27,0,0,0,8.09-5.3,27.43,27.43,0,0,0,19.06,7.56h6.46a83.25,83.25,0,0,0-15.78,12.84c-9.73,10-23,34.75-11,49.26a19.62,19.62,0,0,0,4.15,3.78c.35.53.7,1,1,1.43a19.85,19.85,0,0,0,12.85,7.08,24.15,24.15,0,0,0,3.18.21c9.61,0,19.34-5.53,26.75-10.34l4.4-2.87a16.61,16.61,0,0,0,4.61,4.31,16.75,16.75,0,0,0,7.31,6.35,17.09,17.09,0,0,0,7.26,1.68c8.46,0,15.62-6.65,22.09-14.59a18.16,18.16,0,0,0,4.34,4,18,18,0,0,0,6.43,6,17.6,17.6,0,0,0,8.53,2.26c6.56,0,13.27-3.76,20.43-11.46a17.7,17.7,0,0,0,3.37,2.32,16.22,16.22,0,0,0,7.8,2,18,18,0,0,0,8-2c-6.58,28.77-14.29,61.34-18.23,76a15.86,15.86,0,0,0-7.41,12,78.29,78.29,0,0,0-.44,8.24c.15,9,4.68,13.31,7.87,15.23a15.46,15.46,0,0,0,10.18,7.14l.22.07.29.08h.86a17.66,17.66,0,0,0,2.06.12c11.35,0,15.42-11.39,16.95-15.68,1.32-3.7,3-9.07,4.94-16,.73-2.58,1.07-3.64,1.2-4,.53-1.1.67-1.73,1.78-6.62l1.68-7.39c1.85-8.11,4-17.27,6.29-27l.07-.3c4.84-20.59,10.33-43.91,14.63-64.56,4.13-19.82,7.14-34.26-4.25-41.37a17.64,17.64,0,0,0-14.5-8c-6.59,0-11.46,4.05-13.82,6.16a20.19,20.19,0,0,0-1.46-1.61,23.15,23.15,0,0,0-2.87-2.46,22.59,22.59,0,0,0-2.33-2.75,27.34,27.34,0,0,0-14.21-7.1c2-6.06,3.41-10.08,3.57-10.54a15.39,15.39,0,0,0-3-15.3v-41.8a21.74,21.74,0,0,0-6.39-15.8,25.5,25.5,0,0,0-12-6.47V202.52h17v13.32a21.54,21.54,0,0,0,6.29,15.58c7.11,7.1,17.28,7.45,19.24,7.45h32.15c3.64-.05,12.72-.89,19.26-7.42a21.52,21.52,0,0,0,6.32-15.61V135.63h-32v-9.12H393.78ZM233.66,129.35H246v.06H379v.87H336.25A31.86,31.86,0,0,0,325,132.54a25.72,25.72,0,0,0-4.85,2.6,30,30,0,0,0-16-4.85H271.87a31.81,31.81,0,0,0-11.23,2.26A26,26,0,0,0,256,135a25.83,25.83,0,0,0-14.56-4.52h-7.82Zm69.5,199.5a24.74,24.74,0,0,0,3.35-1.94l.21.14a15.66,15.66,0,0,0-2.49,3.29,13.06,13.06,0,0,0-1.07-1.49ZM135.5,331.77H181v-.83a31.48,31.48,0,0,0,3.62.63c-6.16,2.6-12.23,7.59-18.11,14.94l-.34-.22a16.76,16.76,0,0,0-4.58-4.8,16.57,16.57,0,0,0-6.09-2.64,17.28,17.28,0,0,0-3.58-.38c-5.86,0-10.18,3-12.76,4.86l-.72.5a79.26,79.26,0,0,0-12.25,11.55,12.14,12.14,0,0,0-1.12-.75,15.36,15.36,0,0,0-3.39-3.93C127,343.43,131.78,336.85,135.5,331.77Z" style="fill:url(#linear-gradient)"/><path d="M427.28,138.63v-9.12H382v3.77H336.25a28.71,28.71,0,0,0-10.11,2,21.67,21.67,0,0,0-6,3.6c-6.18-5.33-14.34-5.63-16-5.63H271.87a28.65,28.65,0,0,0-10.1,2,21.68,21.68,0,0,0-5.75,3.44,22.57,22.57,0,0,0-14.55-5.29H230.66v-7.11H249v.06h141.8V3.06H345.37V23.87h-9.65a29.29,29.29,0,0,0-10.08,2.06,22.1,22.1,0,0,0-6.17,3.77,21.54,21.54,0,0,0-2.87-2.07A26.27,26.27,0,0,0,303.68,24h-9.45l-86.86-.06a28.54,28.54,0,0,0-10.08,2,22.09,22.09,0,0,0-5.9,3.57,24.89,24.89,0,0,0-16-5.67H78.51c-10.9,0-22.58,8.1-22.58,20.17V152.47h55.12a30.57,30.57,0,0,0,3.58-.21V178.8H121v37.1a19,19,0,0,0,3,10.46h-.73c-1.76,0-10.8.3-17.09,6.58a18.94,18.94,0,0,0-5.43,13.65v62.15c0,8.26,4.56,14.84,12.51,18a29.06,29.06,0,0,0,10,2H178v-1.88a29.26,29.26,0,0,0,9.61,1.88h32.16a29,29,0,0,0,10-2,20.2,20.2,0,0,0,9.22-7.18c4.15,5.94,11.66,9.1,19.12,9.21h32.35a29,29,0,0,0,10-2,21.7,21.7,0,0,0,6-3.61,22.22,22.22,0,0,0,6.08,3.64,29.06,29.06,0,0,0,10,2h32.23a29.54,29.54,0,0,0,10-2c8-3.2,12.53-9.78,12.53-18V246.7a18.85,18.85,0,0,0-5.5-13.67,23.45,23.45,0,0,0-12.89-6.15V199.52h23v16.32a18.62,18.62,0,0,0,5.41,13.46c6.26,6.25,15.33,6.57,17.12,6.57H436.6c1.79,0,10.86-.28,17.15-6.54a18.55,18.55,0,0,0,5.43-13.49V138.63Z"/><path d="M335.78,116.66h45.29V12.81h-26V33.62H335.78s-12.89.07-12.89,10.49v62.24C322.88,116.57,335.78,116.66,335.78,116.66Zm13-62.2h6.3V96.33h-6.3Zm-225,77.39V33.62H78.51c-7.73,0-12.83,5.56-12.83,10.44v62.46c0,10.23,12.88,10.3,12.88,10.3H97.9v5.24H65.68v20.67h45.37C123.78,142.7,123.78,131.85,123.78,131.85ZM97.89,96.12H91.61V54.45h6.28ZM284.48,54.51h6.24v62.15h25.75V44.2c0-8-8.78-10.48-12.78-10.48-8.64,0-15,1.8-19.2,5.23V33.73H258.78v82.93h25.7Zm165,114.55V148.38h-32v-9.12H391.78v9.12h-6.4v20.68h6.4V215.8c0,10.3,12.8,10.28,12.8,10.28h32.2s12.8,0,12.8-10.28V174.19H424v31.22h-6.4V169.06Zm-68.08-5.24.1-20.83H336.26s-12.88,0-12.88,10.49v72.68H349.3V189.78h32.24V168.94H349.3v-5.08Zm-64.53,52V200.28H291.12v5.25h-6.26V195.06h32.05V153.49c0-10.43-12.81-10.43-12.81-10.43H271.87s-12.81,0-12.81,10.48v62.35c0,10.28,12.83,10.31,12.83,10.31H304.1s12.81,0,12.81-10.33Zm-32.05-52h6.26v10.33h-6.26ZM130.78,215.88c0,10.24,12.82,10.32,12.82,10.32h32.18s12.8-.06,12.8-10.33V174.26H163v31.29h-6.4V169.06h32V148.38H156.21V138.9h-25.8v9.48h-6v20.68h6.37ZM156.2,85.63h6.22v46.65c0,10.3,13,10.31,13,10.31h19.75V226.2h25.74V164h6.23V226.2h25.75V153.68c0-10.46-11.43-10.46-11.43-10.46H220.91V122H188.19V80.38A6.72,6.72,0,0,0,185,74.26s3.21-1.2,3.22-4.2V44.2c0-10.48-12.8-10.58-12.8-10.58h-45v99.57h25.76Zm0-31.14h6.24V64.84H156.2Zm51.2,62.11h45V44.14c0-10.47-12.81-10.47-12.81-10.47H207.4s-12.81,0-12.81,10.47V59.51h25.76V54.44h6.25V64.75H207.39s-12.8,0-12.8,10.3v31.24c0,10.28,12.8,10.31,12.8,10.31Zm13-31.08h6.25V96H220.4Zm-65,150.54H123.28s-12.81,0-12.81,10.48V261.9h25.76v-5h6.25v10.31H123.27s-12.8,0-12.8,10.31v31.24c0,10.27,12.8,10.3,12.8,10.3h45V246.57C168.24,236.06,155.43,236.06,155.43,236.06Zm-13,62.31h-6.25V287.94h6.25Zm64.3-.08H200.5V236H174.78v72.56c0,10.39,12.78,10.46,12.78,10.46h32.13s12.77-.07,12.77-10.35V236.11H206.78Zm64.47-66.47H245.48v9.42h-6.4V262h6.4V308.7c0,10.09,12.8,10.29,12.8,10.29h32.15s12.8-.06,12.8-10.29V267.06H277.64v31.22h-6.4V262h32V241.27h-32Zm83.6,4.32H322.63s-12.82,0-12.82,10.45v62.1c0,10.3,12.82,10.3,12.82,10.3h32.15s12.84,0,12.84-10.3v-62.1c0-10.53-12.84-10.42-12.84-10.42Zm-13,62.25h-6.26v-41.5h6.24Z" style="fill:#fff"/><path d="M371.63,340.77H359v20.65h12.67Z"/><path d="M225.32,369.88a12.33,12.33,0,0,0-8.62-2.69,26.15,26.15,0,0,0,2.35-7.91,19.11,19.11,0,0,0-.37-7.53,18.9,18.9,0,0,0-3.26-6.79,19.86,19.86,0,0,0-15-7.28c-8.88-.22-17.74,5.17-26.36,15.95-1.11,1.39-2.18,2.81-3.19,4.26a15.37,15.37,0,0,0-1.74-4.38,13.82,13.82,0,0,0-9-6.52c-6.37-1.36-11.15,2-14,4l-.73.51c-3.15,2.19-9.68,8.1-15.81,16a12.38,12.38,0,0,0-15.29-11.75c14.22-19.42,26.26-35.94,26.53-36.31a12.41,12.41,0,0,0,1.08-14.16A12.36,12.36,0,0,0,125,300.89c-.22.12-.42.25-.63.39a12.07,12.07,0,0,0-3.52,3.56c-.45.62-38.25,52.48-58.95,80.4l-1.1-15.38a12.27,12.27,0,0,0-1.24-4.68,12.45,12.45,0,0,0-7.12-6.28,12.59,12.59,0,0,0-4.8-.64,12.35,12.35,0,0,0-8.52,4.18,12.2,12.2,0,0,0-2.43,4.18,12.41,12.41,0,0,0-.65,4.8l2.46,39.12c-.13,7.27,3.42,13.18,9.33,15.46a14.15,14.15,0,0,0,5.1.95C61,427,66.55,420,69,416.82c3.89-4.9,16.79-22.35,30.59-41.15-.76,1.68-1.54,3.45-2.32,5.27-8.18,19-8.91,26.51-7.49,31.94a12.44,12.44,0,0,0,10.41,9.18,12.18,12.18,0,0,0,4.77-.3,12.37,12.37,0,0,0,9.07-14.07,46.62,46.62,0,0,1,2.36-7.76A19.67,19.67,0,0,0,125,414.2a20.22,20.22,0,0,0,8.61,3.19c7.89,1.08,17.9-1.69,31.19-8.68,4.64,4.47,13.38,8.61,28.77,3.26,3.55-1,19.16-6.5,33.72-24.65a12.42,12.42,0,0,0-1.93-17.44ZM159,383.54a101.85,101.85,0,0,1-15.41,7.65,69.05,69.05,0,0,1,10-13.82,12.39,12.39,0,0,0,6.16-1,17.19,17.19,0,0,0,1.55-.77A57.65,57.65,0,0,0,159,383.54Zm266.56-51.79c-8.74-4.11-15.57,2.06-18.14,4.39-1.47,1.33-3.07,2.95-4.84,4.89a18.81,18.81,0,0,0-5.54-12.19c-4.91-4.93-12.11-7.33-22.69-7.45,3.25-10.15,5.86-17.62,6.22-18.66a12.4,12.4,0,0,0-23.1-9c-.06.14-5.73,13.28-16.24,31.88-10.69,2.32-19.35,4.84-21.92,5.61h-.12a12.42,12.42,0,0,0-5.79,19.93,14.39,14.39,0,0,0-7.17.1,12.38,12.38,0,0,0-9.17-19.94c-2-.11-20.49-.47-40.94,20.59-8.8,9.06-21.46,32.38-10.86,45.27a16.88,16.88,0,0,0,10.91,6c9.53,1.29,19.9-4.49,27.89-9.68,4-2.61,7.58-5,10.75-7,.12,6.09,2.14,11.66,8.47,14.62a14,14,0,0,0,6,1.4c9,0,17.16-9.52,25.77-21.37.13,6.47,1.88,13.43,8.54,17.1,10.87,6,21-3.45,27.51-11.08a13.65,13.65,0,0,0,4.84,4.25c6,3.25,12.51,1.78,19.3-4.37a100.43,100.43,0,0,0,8-8.38c-5.69,25.4-18.18,79.4-23.47,98.66a13,13,0,0,0-7,10.28,74.76,74.76,0,0,0-.42,7.92c.15,9.09,5.44,13.31,10.55,14.3l.35.1h.61a14.72,14.72,0,0,0,1.76.11c9.23,0,12.62-9.48,14.13-13.69,1.29-3.64,2.93-8.95,4.87-15.78.86-3,1.2-4.05,1.31-4.36.45-.91.51-1.17,1.63-6.14l1.68-7.39c1.87-8.2,4.06-17.47,6.37-27.29,4.84-20.56,10.32-43.87,14.62-64.48,4.25-20.23,7-33.62-4.67-39.15ZM282.19,365.12c-3.12,2.06-6.66,4.39-10.66,7a27.68,27.68,0,0,1,2.39-2.9C286,356.8,295.12,356.16,296,356.13h.13C292.61,358.28,288.06,361.27,282.19,365.12Zm39.41-7.93a11.34,11.34,0,0,0-1.52-2,13.14,13.14,0,0,0,2.65.31C322.36,356.06,322,356.64,321.6,357.19ZM376,348.06l-.23.74c-1.92,6.17-3.49,11.23-4.67,15.51a12.15,12.15,0,0,0-8.49-1.39c1-4.43,2.35-9.82,4.17-16.38a57.86,57.86,0,0,1,9.76-.22Q376.27,347.21,376,348.06Z"/><path d="M157.66,372.16h-9.22v8.49h9.22Z"/><path d="M220.11,364.67A12.3,12.3,0,0,0,211.5,362a25.78,25.78,0,0,0,2.28-7.93,19,19,0,0,0-3.63-14.32,19.81,19.81,0,0,0-15-7.27c-8.88-.22-17.74,5.17-26.35,15.94-1.12,1.39-2.18,2.81-3.2,4.26a14.81,14.81,0,0,0-1.74-4.38,13.85,13.85,0,0,0-9-6.51c-6.37-1.37-11.16,2-14,4l-.72.51c-3.16,2.19-9.68,8.1-15.82,16a12.39,12.39,0,0,0-12.69-12.08,12.13,12.13,0,0,0-2.61.34c14.21-19.43,26.26-35.95,26.52-36.32a12.42,12.42,0,0,0,1.08-14.16,12.54,12.54,0,0,0-3.36-3.71,12.36,12.36,0,0,0-14.2-.29,12.07,12.07,0,0,0-3.52,3.56c-.45.62-38.26,52.48-58.95,80.4l-1-15.41a12.43,12.43,0,0,0-24.15-3.2,12.28,12.28,0,0,0-.63,4.81l2.46,39.12c-.14,7.28,3.41,13.18,9.32,15.46a14.15,14.15,0,0,0,5.1.95c8.07,0,13.64-7,16.13-10.13,3.89-4.9,16.79-22.35,30.6-41.15-.76,1.68-1.55,3.45-2.33,5.27-8.18,19-8.91,26.51-7.49,31.94a12.43,12.43,0,0,0,24.28-5.2,46.62,46.62,0,0,1,2.36-7.76A19.63,19.63,0,0,0,119.78,409a20.22,20.22,0,0,0,8.61,3.19c7.89,1.08,17.9-1.69,31.19-8.68,4.65,4.47,13.39,8.61,28.78,3.27,3.54-1,19.16-6.51,33.71-24.65a12.42,12.42,0,0,0-1.93-17.46h0Zm-66.33,13.66A101.85,101.85,0,0,1,138.37,386a69.34,69.34,0,0,1,10-13.82,12.28,12.28,0,0,0,6.16-1c.53-.23,1.05-.48,1.56-.76A55.81,55.81,0,0,0,153.78,378.33Zm266.6-51.78c-8.74-4.12-15.57,2.06-18.14,4.38-1.48,1.33-3.07,3-4.85,4.89a18.92,18.92,0,0,0-5.61-12.19c-4.92-4.92-12.11-7.33-22.7-7.45,3.25-10.15,5.86-17.62,6.23-18.66a12.4,12.4,0,0,0-23.1-9c-.06.14-5.73,13.28-16.25,31.89-10.68,2.31-19.34,4.83-21.92,5.6h-.12a12.39,12.39,0,0,0-5.79,19.92A14.39,14.39,0,0,0,301,346a12.4,12.4,0,0,0-9.18-20c-2-.11-20.48-.46-40.94,20.6-8.79,9-21.46,32.38-10.86,45.26a16.84,16.84,0,0,0,10.91,6c9.53,1.29,19.9-4.48,27.89-9.68l10.75-7c.12,6.09,2.14,11.66,8.47,14.63a14.16,14.16,0,0,0,6,1.4c9,0,17.16-9.53,25.77-21.38.13,6.47,1.89,13.44,8.54,17.1,10.87,6,21-3.45,27.51-11.08a13.65,13.65,0,0,0,4.84,4.25c6,3.25,12.51,1.78,19.31-4.37a98.78,98.78,0,0,0,8-8.37c-5.65,25.39-18.15,79.41-23.41,98.63a13,13,0,0,0-7,10.29,74.71,74.71,0,0,0-.42,7.91c.16,9.1,5.44,13.31,10.56,14.3l.34.1.61.05a14.72,14.72,0,0,0,1.76.11c9.24,0,12.62-9.48,14.13-13.7,1.3-3.64,2.94-8.94,4.88-15.77.86-3,1.19-4,1.3-4.36.45-.91.51-1.18,1.64-6.14l1.68-7.4c1.87-8.19,4-17.47,6.36-27.29,4.84-20.56,10.32-43.86,14.62-64.48,4.22-20.23,7-33.64-4.69-39.15ZM277,359.92l-10.67,7a27.22,27.22,0,0,1,2.39-2.86c12.07-12.42,21.21-13.07,22.1-13.1h.12C287.4,353.06,282.78,356.06,277,359.92Zm93.79-17.08-.23.74c-1.91,6.17-3.49,11.24-4.66,15.51a12,12,0,0,0-6.09-1.62,12.92,12.92,0,0,0-2.4.23c1-4.43,2.34-9.82,4.16-16.38a58.92,58.92,0,0,1,9.76-.21Z"/><path d="M417.92,364.25c4.36-20.9,5.18-28.35-.66-31.11-6.19-2.91-11.38,3.39-28.59,24.27-2.37,2.87-4.31,5.12-5.9,6.87h-.07c1.28-4.69,3.05-10.39,4.63-15.46.65-2.12,1.33-4.31,2-6.55,2.09-6.83-.28-11.08-2.63-13.44-3.11-3.1-9.33-6.63-27.62-4.81,4.76-15.56,9.2-28.2,9.43-28.87a5.11,5.11,0,1,0-9.53-3.7,376.56,376.56,0,0,1-18.23,35.47c-13.16,2.68-24.1,6-24.61,6.15a5.09,5.09,0,0,0-3.59,4.4,5,5,0,0,0,.2,2,5.19,5.19,0,0,0,.95,1.76,5.36,5.36,0,0,0,1.54,1.26,5.2,5.2,0,0,0,1.92.57,5,5,0,0,0,2-.2c.09,0,6.11-1.85,14.44-3.86-4.85,7.86-10.36,16.24-16.49,24.8a144.53,144.53,0,0,1-9.33,11.76h0c.47-2.5,1.2-5.68,2.19-9.52l.19-.74c.92-3.57,2.18-8.47-1.66-11.22s-8.3-.1-11.6,1.81c-3.56,2.06-8.73,5.45-15.89,10.16-3.39,2.23-7.26,4.77-11.68,7.64-10.78,7-14.85,7.14-15.79,7-1.07-3.11,3.38-15,10-21.75,15-15.44,27-15.32,27.46-15.31a5.11,5.11,0,0,0,.53-10.21c-.68,0-16.83-.64-35.32,18.39-7.3,7.52-17.6,26.88-10.46,35.56A9.54,9.54,0,0,0,252,390.8c8.09,1.1,18.79-5.87,22.94-8.57,4.43-2.88,8.31-5.43,11.72-7.67,4.92-3.24,9.3-6.12,12.63-8.18,0,0,.07,0,.06.05-2.9,11.7-4.09,20.11,1.87,22.9,5.67,2.65,11.77-2.3,24.2-19.62,6.59-9.19,12.45-18.15,17.56-26.48a225.7,225.7,0,0,0-5,23.13c-1.27,8.72-1.67,17.22,3.95,20.31,6.82,3.75,14.54-4.34,21.88-13.64a5.21,5.21,0,0,0,.94-1.9,5.11,5.11,0,0,0-2.22-5.58,5.25,5.25,0,0,0-6.88,1.31,65.63,65.63,0,0,1-8.12,8.95h-.07c-.06-4.34,1-14.83,8-39.24l.54-1.88c18.53-2.46,22.82.64,23.55,1.37.23.23.83.83.09,3.23l-2,6.51c-6.93,22.36-9.53,30.72-3.33,34.07,4.52,2.44,9-1.63,11-3.37A124.12,124.12,0,0,0,396.72,364c4.58-5.55,9.86-12,13.81-16.3h0c-.72,5-1.92,11.19-2.59,14.63-1.85,9.54-21.88,97.36-27.38,115.65a5.8,5.8,0,0,0-5.64,5.13,70.25,70.25,0,0,0-.39,7.11c.09,5.47,2.72,7,4.91,7.31h.06c4.9.67,6.69-4.36,8.27-8.79,1.25-3.51,2.85-8.67,4.73-15.31,3.29-11.59,0,2.37,4.53-17.53C402.78,430.34,411.62,394.51,417.92,364.25ZM128.55,302.83a5.08,5.08,0,0,0-1.81-.84,5,5,0,0,0-3.87.6,5.26,5.26,0,0,0-1.47,1.35c-.62.85-60.76,83.35-70.89,96.3l-2.2-35.13a5.12,5.12,0,0,0-10.21.64l2.48,39.45c-.12,3.4,1,7.39,4.67,8.8a6.74,6.74,0,0,0,1.53.39c5,.68,9.21-4.62,11.35-7.31,9-11.35,69-93.62,71.53-97.12a5.11,5.11,0,0,0-1.11-7.13h0ZM97.93,409.5a5.06,5.06,0,0,0,3.67-6.16v0c-.69-4.11,7.15-23.14,14.9-38.34a5.12,5.12,0,0,0,.61-1.94,5.12,5.12,0,0,0-6.75-5.33,5,5,0,0,0-1.76,1,5.25,5.25,0,0,0-1.21,1.63c-.18.35-4.47,8.76-8.57,18.3-7.82,18.15-8,23.94-7.14,27.21a5.18,5.18,0,0,0,4.28,3.8A5.51,5.51,0,0,0,97.93,409.5Zm20.74-21c-.78,3.57-.59,10.62,5.08,14.35a13.29,13.29,0,0,0,5.6,2.06c5.81.79,15.31-1.18,32.31-10.94a13.54,13.54,0,0,0,1.35,2.37c3,4.22,9.44,8.22,23.09,3.43,2.22-.63,16.61-5.25,30.25-22.26a5.25,5.25,0,0,0,.92-1.77,5,5,0,0,0,.17-2,5.12,5.12,0,0,0-3.66-4.35,5,5,0,0,0-2-.17,5.1,5.1,0,0,0-3.44,1.89c-12.23,15.25-25,18.8-25.07,18.83l-.44.13c-5.89,2.09-10.2,2.22-11.53.34a5,5,0,0,1-.74-1.86c5.1-3.25,10.76-7.08,17-11.58,11.68-8.39,18.06-16.41,19-23.84a12,12,0,0,0-2.11-8.89,12.58,12.58,0,0,0-9.49-4.52c-6.48-.14-13.38,4.31-20.5,13.21s-12.91,20.32-14.09,29.91c-24.31,14.72-30.32,11.94-31,11.48-1-.61-.86-2.82-.73-3.59,2.66-10.25,11.84-21.29,17.77-26.94a5.09,5.09,0,0,0,5.22.65c1.26-.56,5.46-2.69,6.68-6.52a7,7,0,0,0-.7-5.88,6.63,6.63,0,0,0-4.3-3.14c-3.24-.69-5.92,1.19-8.28,2.85l-.75.52c-5.1,3.54-21.31,19.3-25.59,36.09a.74.74,0,0,1,0,.21Zm63.82-29.18c6.67-8.34,10.7-9.34,12.13-9.38h.52a2.38,2.38,0,0,1,1.26.54c.64,1.68-.74,8.1-14.73,18.15-3,2.12-5.73,4.07-8.37,5.86a65,65,0,0,1,9.19-15.13Z" style="fill:url(#linear-gradient-2)"/><path d="M306.62,319.06l-13.46,9.57,10.43,10.58,13.32-11.15Z"/><path d="M451.52,341a5.16,5.16,0,0,1-5,5.32,5.45,5.45,0,0,1-1.07-.08,5.09,5.09,0,0,1-2.68-1.38,5.18,5.18,0,0,1-.11-7.31,5.43,5.43,0,0,1,.83-.69,5.36,5.36,0,0,1,4.84-.52,5.06,5.06,0,0,1,1.66,1.08,5,5,0,0,1,1.12,1.63A4.87,4.87,0,0,1,451.52,341Zm-9,0a4,4,0,0,0,.27,1.53,3.88,3.88,0,0,0,.84,1.3,3.77,3.77,0,0,0,1.29.87,4,4,0,0,0,1.52.3,3.84,3.84,0,0,0,1.5-.31,3.59,3.59,0,0,0,1.26-.88,3.68,3.68,0,0,0,.82-1.3,3.9,3.9,0,0,0-7.2-3,3.81,3.81,0,0,0-.3,1.49Zm3.09,2.63h-1.16v-5a10.4,10.4,0,0,1,1.93-.15,3.1,3.1,0,0,1,1.74.37,1.4,1.4,0,0,1,.49,1.1,1.28,1.28,0,0,1-1,1.16v.06a1.44,1.44,0,0,1,.63.49,1.54,1.54,0,0,1,.29.74,3.9,3.9,0,0,0,.36,1.25h-1.25a4.79,4.79,0,0,1-.4-1.23.86.86,0,0,0-.92-.8h-.63Zm0-2.85h.55c.65,0,1.17-.21,1.17-.73s-.34-.76-1.08-.76a3.47,3.47,0,0,0-.64.06Z" style="fill:#fff"/><path d="M42.27,438.31,53,481.51l367-4.71,8.76-33.74Z" style="fill:url(#linear-gradient-3)"/><path d="M42.27,438.31l386.51,4.75L420,476.82,53,481.54l-10.75-43.2Zm-4-3.16,1,4L50,482.35l.6,2.41h2.48l367-4.71h2.4l.6-2.32,8.7-33.86,1-3.88-4-.05-386.5-4.72-4.07-.05Z" style="fill:url(#linear-gradient-4)"/><path d="M57.89,456.14h5.79V466.5h2.94V456.14h5.82v-2.26H57.89Zm31.23,2.64H80v-4.9H77V466.5H80v-5.44h9.17v5.43h3V453.88h-3ZM101,461h5.77v-2.15H101v-2.79h10v-2.15H98.07v12.62h13v-2.37H101Zm38.47-5.5a7.89,7.89,0,0,0-5.34-1.62H126V466.5h7.37a17.23,17.23,0,0,0,3.13-.23,5.41,5.41,0,0,0,4-3,6.79,6.79,0,0,0,.73-3.19,5.66,5.66,0,0,0-.39-2.51A5.57,5.57,0,0,0,139.48,455.5Zm-2.43,7.68a7.33,7.33,0,0,1-4.3.95H129v-8h5.21a4.39,4.39,0,0,1,3.11,1,3.81,3.81,0,0,1,.83,1.36,3.68,3.68,0,0,1,.22,1.58,3.57,3.57,0,0,1-.25,1.71A3.62,3.62,0,0,1,137.05,463.18ZM149.78,461h5.83v-2.15h-5.83v-2.79h10v-2.15h-13v12.62h13v-2.37h-10.1Zm15.57,5.5h2.94v-4.79h5.31v-2.3h-5.31v-3.35h9.83v-2.21H165.3Zm17.36,0h2.94V453.88h-2.94Zm21.11-6v.68a12.58,12.58,0,0,0,.09,1.5c-.2-.23-.41-.46-.63-.67s-.5-.45-.8-.7l-8.89-7.44h-2v12.62h2.64v-7.72c0-.35,0-.71-.09-1.1.15.16.3.33.47.49l.59.53,9.27,7.8h2V453.88h-2.69Zm8.61,6h2.94V453.88h-3Zm7.5-10.36h5.79V466.5h2.94V456.14h5.82v-2.26h-14.6Zm19.12,10.36H242V453.88h-2.93Zm15.88-3.5-5.15-9.12h-3.4l7.3,12.62h2l6.94-12.62h-2.84Zm15.23-2H276v-2.15h-5.83v-2.79h10v-2.15h-13v12.62h13v-2.37H270.11Zm32.31,0h5.83v-2.15h-5.83v-2.79h10v-2.15h-13v12.62h13v-2.37H302.42Zm29-5.5a7.89,7.89,0,0,0-5.34-1.62H318V466.5h7.37a17.41,17.41,0,0,0,3.14-.23,5.57,5.57,0,0,0,2.05-.75,5.42,5.42,0,0,0,2-2.22,6.79,6.79,0,0,0,.73-3.19,5.73,5.73,0,0,0-1.83-4.61ZM329,463.18a7.33,7.33,0,0,1-4.3.95h-3.8v-8h5.21a4.39,4.39,0,0,1,3.11,1,4,4,0,0,1,.84,1.36,3.86,3.86,0,0,1,.21,1.58,3.67,3.67,0,0,1-1.23,3.11Zm9.74,3.32h2.94V453.88h-2.94Zm7.49-10.36h5.8V466.5H355V456.14h5.77v-2.26H346.26Zm19.12,10.36h2.94V453.88h-2.94Zm21.19-12.62h-9.29a3.62,3.62,0,0,0-2.49.63,3.29,3.29,0,0,0-.64,2.35v6.66a3.27,3.27,0,0,0,.64,2.36,3.66,3.66,0,0,0,2.49.62h9.29a3.66,3.66,0,0,0,2.49-.62,3.27,3.27,0,0,0,.64-2.36v-6.66a3.24,3.24,0,0,0-.64-2.35,3.6,3.6,0,0,0-2.45-.63Zm.21,10.25H377.1v-8h9.68Zm21-10.25v7.31c0,.3,0,.79.1,1.5a6.75,6.75,0,0,0-.64-.67c-.23-.22-.49-.45-.8-.7l-8.89-7.44h-2V466.5h2.64v-7.72c0-.35-.05-.71-.09-1.1.14.16.3.33.46.49l.59.53,9.27,7.8h2V453.88Z"/><path d="M410.38,453.88V466.5h-2l-9.27-7.8-.59-.53c-.16-.16-.32-.33-.46-.49,0,.39.07.75.09,1.1s0,.65,0,.9v6.82h-2.64V453.88h2l8.89,7.44c.31.25.57.48.8.7a6.75,6.75,0,0,1,.64.67c0-.71-.08-1.21-.1-1.5s0-.52,0-.68v-6.63Zm-23.81,0a3.61,3.61,0,0,1,2.49.63,3.24,3.24,0,0,1,.64,2.35v6.66a3.27,3.27,0,0,1-.64,2.36,3.66,3.66,0,0,1-2.49.62h-9.29a3.66,3.66,0,0,1-2.49-.62,3.27,3.27,0,0,1-.64-2.36v-6.66a3.34,3.34,0,0,1,.64-2.35,3.62,3.62,0,0,1,2.49-.63Zm-9.48,10.25h9.69v-8h-9.69Zm-8.74-10.25V466.5h-2.94V453.88Zm-7.51,0v2.26H355V466.5h-2.94V456.14h-5.8v-2.26Zm-19.13,0V466.5h-2.93V453.88h2.93Zm-15.55,0a7.89,7.89,0,0,1,5.34,1.62,5.74,5.74,0,0,1,1.87,4.61,6.79,6.79,0,0,1-.73,3.19,5.42,5.42,0,0,1-2.05,2.22,5.57,5.57,0,0,1-2,.75,17.41,17.41,0,0,1-3.14.23H318V453.88ZM321,464.13h3.81a7.33,7.33,0,0,0,4.3-.95,3.68,3.68,0,0,0,1.27-3.11,3.86,3.86,0,0,0-.21-1.58,4,4,0,0,0-.84-1.36,4.39,4.39,0,0,0-3.11-1H321Zm-8.52-10.25v2.18h-10v2.82h5.83v2.18h-5.83v3.13h10.11v2.37H299.48V453.88h13Zm-32.35,0v2.18h-10v2.82h5.83v2.18h-5.82v3.13h10.11v2.37h-13V453.88Zm-17.37,0-7,12.62h-2l-7.3-12.62h3.3l5.11,9.12,4.88-9.12h3Zm-20.76,0V466.5H239V453.88Zm-7.5,0v2.26h-5.86V466.5h-2.94V456.14h-5.79v-2.26Zm-19.15,0V466.5h-2.94V453.88Zm-8.91,0V466.5h-2l-9.27-7.8-.59-.53c-.17-.16-.32-.33-.47-.49,0,.39.07.75.09,1.1s0,.65,0,.9v6.82h-2.64V453.88h2l8.89,7.44c.3.25.57.48.8.7a5.68,5.68,0,0,1,.63.67q-.07-1.06-.09-1.5v-7.31Zm-20.82,0V466.5h-2.94V453.88Zm-7.53,0v2.18h-9.83v3.32h5.31v2.3h-5.31v4.79h-2.94V453.88Zm-18.36,0v2.18h-10v2.82h5.83v2.18H149.7v3.13h10.08v2.37h-13V453.88H159.7Zm-25.56,0a7.89,7.89,0,0,1,5.34,1.62,5.74,5.74,0,0,1,1.87,4.61,6.79,6.79,0,0,1-.73,3.19,5.49,5.49,0,0,1-2,2.22,5.57,5.57,0,0,1-2.05.75,17.23,17.23,0,0,1-3.13.23H126V453.88ZM129,464.13h3.83a7.33,7.33,0,0,0,4.3-.95,3.68,3.68,0,0,0,1-1.4,3.57,3.57,0,0,0,.25-1.71,3.68,3.68,0,0,0-.22-1.58,3.81,3.81,0,0,0-.83-1.36,4.39,4.39,0,0,0-3.11-1H129Zm-18-10.25v2.18H101v2.82h5.83v2.18H101v3.13h10.11v2.37h-13V453.88H111Zm-18.87,0V466.5h-3v-5.44H80v5.43H77V453.88H80v4.9h9.17v-4.9h3Zm-19.6,0v2.26H66.62V466.5H63.68V456.14H57.89v-2.26Zm339.15-1.25h-5.14v7.11l-8.15-6.82-.35-.29h-3.71v15.12h5.14V460.6l8.14,6.86.35.29h3.72Zm-25.06,0h-9.29a4.64,4.64,0,0,0-3.36,1,4.42,4.42,0,0,0-.83,1.52,4.36,4.36,0,0,0-.17,1.72v6.66a4.41,4.41,0,0,0,.17,1.73,4.18,4.18,0,0,0,.83,1.52,4.68,4.68,0,0,0,3.36,1h9.29a4.68,4.68,0,0,0,3.36-1,4.18,4.18,0,0,0,.83-1.52,4.41,4.41,0,0,0,.17-1.73v-6.67a4.36,4.36,0,0,0-.17-1.72,4.18,4.18,0,0,0-.83-1.52,4.64,4.64,0,0,0-3.36-1Zm-8.23,4.76h7.19v5.49h-7.19Zm-8.77-4.76h-5.44v15.12h5.44Zm-7.51,0h-17v4.76h5.72v10.36h5.44V457.39H362Zm-19.1,0h-5.44v15.12H343Zm-16.84,0h-9.34v15.12h8.62a18.09,18.09,0,0,0,3.37-.25,7.26,7.26,0,0,0,2.48-.91,6.82,6.82,0,0,0,2.5-2.72,8,8,0,0,0,.87-3.76,7,7,0,0,0-2.3-5.55,9.13,9.13,0,0,0-6.2-1.93Zm-3.94,4.76h4a3.23,3.23,0,0,1,2.25.65,2.61,2.61,0,0,1,.66,2c0,1.54-.58,2-.77,2.11-.42.32-1.38.7-3.55.7h-2.55v-5.49Zm-8.52-4.76H298.23v15.12h15.55v-4.87H303.67v-.63h5.83V457.6h-5.83v-.32h10v-4.65Zm-32.31,0H265.92v15.12h15.55v-4.87H271.36v-.63h5.83V457.6h-5.83v-.32h10v-4.65Zm-16.55,0H259l-.36.66-3.79,7.11-4-7.13-.36-.64h-6.25l1.08,1.87,7.3,12.63.36.62h3.49l.36-.64,7-12.63,1-1.85Zm-21.62,0h-5.4v15.12h5.43Zm-7.5,0H218.63v4.76h5.79v10.36h5.44V457.39h5.82Zm-19.11,0h-5.44v15.12h5.44Zm-8.91,0h-5.14v7.11l-8.15-6.82-.35-.29h-3.71v15.12h5.14V460.6l8.15,6.86.35.29h3.71Zm-20.81,0h-5.44v15.12h5.37V452.63Zm-7.53,0H164.05v15.12h5.44V463h5.29v-4.8h-5.31v-.82h9.83v-4.71Zm-18.36,0H145.54v15.12h15.54v-4.87H151v-.63h5.8V457.6H151v-.32h10v-4.65Zm-26.82,0h-9.36v15.12h8.62a18,18,0,0,0,3.36-.25,7.26,7.26,0,0,0,2.48-.91,6.85,6.85,0,0,0,2.51-2.72,8.19,8.19,0,0,0,.86-3.76,7,7,0,0,0-.52-3,7.1,7.1,0,0,0-1.78-2.52,9.13,9.13,0,0,0-6.16-1.93Zm-3.94,4.76h4a3.23,3.23,0,0,1,2.25.65,2.61,2.61,0,0,1,.66,2c0,1.54-.58,2-.76,2.11-.43.32-1.39.7-3.56.7h-2.55v-5.49Zm-18-4.76H96.78v15.12h15.56v-4.87H102.26v-.63h5.83V457.6h-5.83v-.32h10v-4.65Zm-18.92,0H87.87v4.9H81.2v-4.9H75.78v15.12h5.44v-5.43h6.67v5.43h5.49V452.63Zm-19.64,0h-17v4.76h5.79v10.36h5.44V457.39h5.82v-4.76Z" style="fill:url(#linear-gradient-5)"/></svg>