<svg xmlns="http://www.w3.org/2000/svg" width="922.94" height="538.74" viewBox="0 0 692.21 404.06"><g stroke="#000" stroke-width=".09"><path d="M187.8 103.5c.62.62.62.62 0 0zM402.81 267.46c.67.68.67.68 0 0zM619.85 326.51c.66.66.66.66 0 0z"/></g><g fill="#a92a45" stroke="#a92a45" stroke-width=".09"><path d="M336.92 11.6C340.03 5.68 345.74.82 352.6.22c14.7-1.84 28.4 11.17 29.7 25.44 1.04 6.24-1.1 12.53-4.68 17.6-2.37 3.21-4.16 6.76-5.83 10.37-.34 4.82-1.64 9.82.04 14.53 1.5 4.94 5.37 8.51 8.61 12.33A25.92 25.92 0 0 1 366.7 60.3c.77-6.59 1.76-13.27 1.1-19.9-.8-4.96-5.57-7.4-9.27-10-3.99-2.75-6.89-6.7-9.33-10.82l-5.38 1.01c-.22 2.98-.2 6.02-.94 8.94-.9 3.05-3.45 5.18-4.9 7.94.01 3.88 3.64 8.34-.02 11.46h2.66c.11 2.24.22 4.48.35 6.72l-3.32.66c.64-1.33.34-2.2-.9-2.62-1.13.71-1.33 1.7-.59 2.94l-2.09.58a13.44 13.44 0 0 0-6.75-1.4c-.47.6-1.4 1.76-1.88 2.34-1.12-4.67-1.4-9.57-.15-14.25 1.36-4.98 1.12-10.25 2.73-15.17 1.86-6.24 6.03-11.37 8.91-17.13m33.32 33.72l-.8 4.1 3.01-2.83-2.2-1.27zM306.9 85.48c.56.57.56.57 0 0zM342.53 87.64l5.36-1.04c.06 3.23-1.59 6.95.54 9.82 4.41 6.7 9.18 13.97 8.8 22.35 3.91 1.87 7.25 4.68 10.91 6.97 3.38 2.2 7.37-.19 10.98.85 2.1.18 3.5 1.8 4.91 3.17 3.86-1.74 7.57-4.29 12-4.06l.37-3.2 3.46-1.12c-2.13-1.5-4.53-1.37-6.83-.32 1.1-3.65 4.92-4.62 8.3-4.02l-.4 1.9c2.22.1 4.43.4 6.61.85-.69-8.23.5-16.47 1.97-24.54.78-2.46 1.5-6.82 5-6.16 5.52 2.44 7.81 8.35 11.6 12.58 3.16.35 6.35-.19 9.52.08 5.06.18 9.88 2 14.94 2.25 9.32.55 18.76 2.12 27.3 6.04 6.95 3.96 8.72 12.61 10.24 19.83 3.92 2.26 8.31 4.1 11.27 7.66 3.58 5.67 6.93 11.6 8.54 18.16 3.01.94 5.83 2.41 8.84 3.38 2.03-.13 3.87-1.18 5.78-1.82 12.17-4.76 26.64-4.77 38.04 2.1 9.22 5.63 17.14 14.18 20.34 24.68 1.58 5.1 1.11 10.54.21 15.72-2.53-5.29-3.44-11.28-6.75-16.22-6.46-11.04-19.3-17.17-31.88-17.14 4.38 1.45 8.91 2.66 12.86 5.12 6.22 3.58 11.15 9.01 15.05 14.97-3.66-2.74-7.08-6.09-11.62-7.29a36.47 36.47 0 0 0-21.03.32c-5.29 1.64-10.93 3.21-16.48 2.04-3.9-.86-6.5-4.16-8.92-7.08-3.56.25-5.34 3.37-7.25 5.93-.08-1.74.33-3.59-.33-5.25-4.58-2.33-9.54-3.85-13.98-6.47-8.12 5.6-18.13 7.36-27.83 6.87-2.08 3.26-4.1 6.58-6.56 9.58-2.35 2.92-6 4.13-9.42 5.33l1.5 2.91c-3.2-1-6.76-2.96-10.05-1.2-2.45 2.3-4.32 5.66-8.02 6-3.3.3-5.52 2.75-7.67 5 4.65 1.62 8.48 4.7 12.45 7.47 4.4.97 9.07.76 13.28 2.54 2.9 1.31 5.44 3.25 8.37 4.48 6.21 4.97 8.84 13.51 16.21 17.12a28.54 28.54 0 0 0 15 3.47l.88.5c1.7.35 3.41.72 5.1 1.16a114 114 0 0 1-5.52.45c-11.97.84-24.3.33-35.5-4.38 8.76 10.73 23.98 11.61 36.78 11.15a45.7 45.7 0 0 1 7.76.05c-2.12 1.57-4.65 2.33-7.22 2.75-13.59 2.77-27.85 4.43-41.5 1.12-4.5-1.12-8.7-3.18-12.75-5.4l.3 1.7c-2.06-3.73-6.2-5.8-8-9.72-2.09-4.07-1.66-8.87-3.56-13-7.08 1.02-14.85 1.52-21.3-2.12a21.18 21.18 0 0 1-7.54-9.16c-.19-5.6.35-11.49 3.28-16.4 1.75-3.1 4.56-5.37 7.25-7.62-8.69-1.36-16.88-4.47-24.9-7.95-1.1 6.58-2.62 13.16-5.76 19.1 2.62 2.56 5.34 5.07 7.37 8.16 1.92 2.9 3.08 6.28 5.31 9 3.37 1.33 7.3 2.06 9.64 5.11 1.66 2.18 3.98 3.63 6.47 4.74-1.9.35-3.82.82-5.76.88-3.26-.94-6.25-2.59-9.18-4.25-3.78-2.07-6.08-5.86-9.2-8.7a36.25 36.25 0 0 1-8.09-10.94c-1.38-2.99-3.9-5.62-3.89-9.09-.37-6.42.37-12.84 1.53-19.15-3.2-1.38-6.38-3.08-9.93-3.3-5.8-28.45-11.7-56.87-17.6-85.3m74.13 10.76c-1.55 8 2.02 15.72 2.15 23.71l2.35-1.16c.5-5.22 2.11-10.23 2.98-15.36-1.02-3.47-4.92-4.97-7.48-7.19m15.18 9.26c1.38 11.56-.45 23.15-3.23 34.35 1.76.44 3.54.9 5.32 1.32-.69-11.37 1.1-22.62 3.62-33.66-1.9-.66-3.82-1.32-5.7-2m15 3.56c-.13 6.33-.12 12.71-1.29 18.96-.82 5.7-2.76 11.11-3.99 16.7l4 1.53c2.76-9.33 6.97-18.27 12.95-25.98-1.26-2.8-1.82-5.95-3.5-8.53-2.58-1.3-5.42-1.93-8.17-2.68m15 4.22c.32 1.97.64 3.94.94 5.91 5.94 1.23 11.87 2.64 17.51 4.91a68.74 68.74 0 0 1-2.05-9.07c-5.5-.1-11-.65-16.4-1.75m-64.2 11.8c-5.33 2.12-11.02 3-16.48 4.64l-.63 1.8c5.15.8 10.32 1.48 15.51 1.98 4.81.82 9.57 1.96 14.43 2.46-.9-4.6-1.86-9.2-2.75-13.83a65.19 65.19 0 0 0-10.09 2.95m21.28-2.89c.05 4.9-.83 9.71-1 14.57.75 1.07 2.28 1 3.4 1.52-.4-5.35-.92-10.7-.89-16.08h-1.5M371.37 129c1.12.97 1.88 3 3.65 2.7 2.27-.04 4.16-1.47 6.08-2.5-3.08-1.75-6.5-1.12-9.73-.2m-2.6 1.5c-.47 1.4.01 1.86 1.41 1.4.45-1.42-.02-1.89-1.4-1.4m97.38.63a28 28 0 0 1-2.62 8.5c-.59-1.53-1.15-3.05-1.72-4.57a90.04 90.04 0 0 1-9.92 18.76c2.04 2.2 3.57 5.03 6.18 6.62 2.58.76 5.63 2.3 8.12.51 5.62-3.29 11.82-5.88 18.4-6.24 5.35-.42 10.61.96 15.95.98-1.18-3.72-1.82-7.58-2.87-11.32-2.37-1.59-5.77-1.19-8.56-1.94-.88 3.5-2.3 6.86-4.73 9.56-.45-4.14-1.3-8.2-1.96-12.3a108.71 108.71 0 0 1-16.27-8.56m-18.02 22.31c.12 1.43.77 1.68 1.94.77-.14-1.43-.78-1.69-1.94-.77m-36.59 7.63c2.2 1 4.55 1.7 7 1.44-1.19-.85-2.38-1.69-3.54-2.55-1.16.36-2.32.73-3.46 1.11m-30.13 6.05c4.28-1.14 8.68-2.2 12.52-4.5-4.52.21-9 1.56-12.52 4.5m14.52-4.34c-1.27 1-2.37 2.18-3.48 3.33a108.6 108.6 0 0 0 8.27-2.42c-1.59-.35-3.17-.83-4.79-.9m-12.73 5.1c1.37 4.56 2.5 9.2 4 13.72a21.54 21.54 0 0 0-4-13.73zM37.88 119.56c.57.58.57.58 0 0z"/><path d="M462.9 179.5c.85-.5 2.88-.93 3.14.44-.44 2.27-5.96 1.7-3.14-.45zM457.66 185.82c1.17-.92 2.56 1.1 1.36 1.92-1.18.94-2.57-1.1-1.36-1.92zM381.1 190.28c1.5-2.44 4.44-2.5 6.98-2.9-.47 1.18-.34 2.93-1.73 3.53-1.77.03-3.52-.36-5.26-.63zM457.4 190.36c2.42-.69 4.86-1.34 7.31-1.94a63.96 63.96 0 0 1-3.6 6.8c-.4-1.06-.78-2.1-1.16-3.17l-2.55-1.69zM453.72 198.11c1.11-.99 3.04.84 2.2 2.03-1.15 1.01-3.1-.82-2.2-2.03zM381.95 205.11c1.75-2.9 5.6-2.22 8.47-2.6-2.23 2.27-5.47 2.6-8.47 2.6zM251.73 211.5c3.34.18-1.57 2.92 0 0zM398 230.48c2.88-1.64.24 3.35 0 0zM217.85 272.52c.58.57.58.57 0 0zM267.92 291.57c.6.58.6.58 0 0zM427.82 355.55c.6.6.6.6 0 0zM332.84 368.55c.56.55.56.55 0 0zM293.85 377.48c.6.58.6.58 0 0zM284.86 378.56c.55.55.55.55 0 0z"/></g><g fill="#fff" stroke="#fff" stroke-width=".09"><path d="M352.4 55.74a10.4 10.4 0 0 1 7.6-4.1 2342.3 2342.3 0 0 0 6.41 31.3c-6.2 1.08-12.34 2.5-18.52 3.66l-5.36 1.04c5.9 28.43 11.8 56.85 17.6 85.3 2.61 12.7 5.43 25.36 7.83 38.11-13.47 2.34-26.83 5.33-40.19 8.21-7.93-37.82-15.42-75.75-23.6-113.5-1.25 1.48-2.43 3.26-2.25 5.3 5 21.93 9.8 43.93 13.6 66.1l-1.62-1.02c-1.69-13.14-6.47-25.6-8.47-38.68-1.92-9.32-3.98-18.6-6.03-27.89-1.52-1.56-3.76-1.9-5.75-2.5-1.14-2.95-.6-6.1.97-8.78 2-.02 4 0 6.01.01l-.03-2.1c-7.25 1.74-14.57 3.17-21.88 4.66-2.1-10.4-4.33-20.79-6.39-31.2 11.15-2.33 22.46-3.89 33.5-6.7l-1 3.21c1.76-1.83 3.37-4.23 6.17-4.37 7.77-1.16 15.24-3.84 23.06-4.59l2.1-.58 1.48-.32 3.32-.66c3.68-.76 7.41-1.38 11.02-2.48l.41 2.57m.8 3.88c1.36-.04 2.75-.1 4.13-.17l.61-3.4c-1.57 1.21-3.18 2.37-4.75 3.57m-4.22 3.18c2.27-.88 2.18-3.72 2.88-5.69-2.86.26-2.26 3.67-2.88 5.7m-17.79-2.4c-.82 1.15 1.13 2.48 2.07 1.6.78-1.15-1.15-2.64-2.07-1.6m5.7.78c-1.3.76-1.02 2.87.04 3.7 1.32-.25 2-4.28-.04-3.7m16.56 1.26c.53 1.18 1.08 2.36 1.66 3.54.45-1.56.84-3.13 1.21-4.7-.96.37-1.92.76-2.87 1.16m-38.72 2.01l1.24 1.72c1.72-2.03 4.4-1.95 6.76-2.62l1.64 2.04c.6-1.05 1.17-2.1 1.73-3.17-3.9.04-8.07-.56-11.37 2.03m12.86-1.06c-1.65 2.83 3.36.23 0 0m2.78-.19c-.63 1.12 1.15 2.92 2.27 2.3.88-1.28-1-3.27-2.27-2.3m17.74.3c-.55 1.18 1.37 2.88 2.52 2.28.81-1.35-1.28-2.97-2.52-2.28m-36.47 1.45c-.39 1.4.1 1.92 1.48 1.57.36-1.43-.13-1.95-1.48-1.57m33.43-.67c.1 3.32 3-1.6 0 0m-37.2.67c1.03 1.67 1.48 4.04 3.53 4.81-.47-2.12-.55-5.15-3.54-4.8m-6.39 4.8c2.25-.15 5.2.55 6.72-1.59-2.3.25-4.57.74-6.72 1.58m22.68-1.03a5.35 5.35 0 0 0-3.23.98c.55 2.65 7.62-.4 3.23-.98m3.7-.29c-1.68 2.98 3.34.16 0 0m-30.09 2.1c-1.6 3.01 3.27.4 0 0m17.93.97c-1.52 3.07 3.26.28 0 0m26.63 6.55c2.54.15 5.1.12 7.6-.46-2.26-2.29-5.14-.43-7.6.46m-35.4 7.42c.56.57.56.57 0 0m-22.94 3.25c-3.08 1.23 1.45 3.01 2.64 1.41 1.25-1.68-1.66-2-2.64-1.4zM207.3 80.96c13.55-4.85 28.7-7.27 42.74-3.16 6.03 1.86 12.23 5.05 15.35 10.8 5.15 9.08 6.9 19.52 9.2 29.57-12.48 2.68-25 5.08-37.48 7.76-1.29-6-2.07-12.17-4.08-18-.76-2.38-2.59-5.1-5.44-4.67-3.56-.27-6.5 2.76-6.9 6.15-.6 5.38 1.02 10.75 3.2 15.61 2.31 5.16 7.96 7.24 12.86 9.16 11.74 4.1 23.55 8.33 34.31 14.66 4.94 2.87 9.35 6.83 12.18 11.85 5.3 9.26 7.8 19.81 9.56 30.24 1.11 5.37 1.01 10.9.77 16.35-.98 8.81-7.5 15.65-14.37 20.63a60.03 60.03 0 0 1-23.64 9.51c-7.59.6-15.27 1.43-22.87.67-5.24-1.25-11.1-2.34-15.25-5.89l-.18-2.18-1.58 1.77c-2.83-3.09-6.18-5.85-7.95-9.73-5.4-10.5-7.29-22.32-9.68-33.77 12.43-2.6 24.9-5.07 37.32-7.7 1.6 7.43 3 14.9 4.68 22.3.9 2.83 1.48 6.2 3.97 8.1 3.74 1.68 9.15.2 10.46-3.98 1.24-5.36-.29-10.83-1.7-15.99-1.36-4.6-3.29-9.72-7.94-11.9-14.7-8.13-31.4-12.1-45.62-21.23l1.7-2.44c-1.56-.36-3.24-.23-4.7-.85-4.34-4.3-7.23-9.9-9.03-15.7l3.72.91-1.36-2.17c-.87.31-1.75.6-2.62.9-2.72-10.1-5.1-20.65-4.03-31.17 1.58-12.94 12.92-22.02 24.4-26.4m-19.24 15.8c.62 1.45 1.15 2.98 2.28 4.14.24-1.89.4-3.79.48-5.68l-2.76 1.54m-.26 6.72c.62.63.62.63 0 0m2.2 3.1l.22 3.02c-.96-.4-1.92-.83-2.87-1.24a51.97 51.97 0 0 1 2 7.36c.77-.44 1.52-.92 2.25-1.44.61-2.65 1.47-6.2-1.6-7.7m14.84 7.91c-.4 1.65.17 2.25 1.73 1.82.43-1.64-.15-2.25-1.73-1.82m-9.12 3.45c1.24.41 2.5.77 3.77 1.07.8-.79 1.5-1.66 2.2-2.53-2.02.35-4.02.85-5.97 1.46m-3.07-.37c-.5 1.61.06 2.17 1.7 1.66.5-1.6-.08-2.17-1.7-1.66m16 3.31c-.37 1.4.14 1.91 1.53 1.56.33-1.4-.18-1.93-1.54-1.56m2.78-.44c-.43 1.55.2 2.14 1.87 1.77.43-1.56-.19-2.15-1.87-1.77m-16.78 4.6c4.24-.05 8.84.67 12.38-2.2-.48-.45-1.46-1.32-1.94-1.75l-.88 2.14c-2.26-.12-6.19 1.9-6.23-1.7-1.09 1.18-2.2 2.34-3.33 3.51m-6.44.65c-.3 1.74 3.35 2.51 3.32.52-.83-.62-2.4-1.3-3.32-.52m6.51 10.76c-.46 1.4.02 1.9 1.42 1.47.44-1.4-.04-1.89-1.42-1.47m2.32 2.2c-1.19.91-.64 3.06.82 3.32 1.97-.19 1.2-4.63-.82-3.32m54.7 72.83c-1.57 2.93 3.34.2 0 0m-39.09 1.04c-.76 1.21-.3 4.3 1.57 3.87.46-1.13-.09-4.03-1.57-3.87m-2.02 11.05c-.85.98.5 2.92 1.68 2.4.55-.96-.43-3.12-1.68-2.4m3.87 1.58c-.49 1.64.06 2.23 1.65 1.78.44-1.67-.1-2.26-1.65-1.78zM128.2 99.56c13.38-2.9 26.82-5.47 40.2-8.4 1.64 9.35 3.8 18.61 5.65 27.93.28 2.61 2.74 4.22 3.24 6.73 1.54 6.78 2.68 13.65 4.33 20.4l-2.09.72c1.98 6.84 2.95 13.93 4.6 20.85.84 1.53 2.48 2.62 2.73 4.47 3.07 13.92 5.57 27.97 8.84 41.84l-2.52.33c.2 3.44.9 6.95.05 10.37-.42 2.56-1.77 5.12-.92 7.73 1.41 8.21 4.6 16.3 3.14 24.75-2.1-7.62-3.16-15.49-5.02-23.17-4.9 11.13-15.58 18.6-26.98 22a61.02 61.02 0 0 0-1.17-4.06c.26 1.4.6 2.8.94 4.18-12.28 3.63-25.72 4.62-38 .48a34.67 34.67 0 0 1-20.69-18.37c-2.6-6.87-4.03-14.13-5.73-21.26-7.16-33.03-13.62-66.22-20.72-99.27 3.48-.47 7.17-.05 10.36-1.79 0-.56 0-1.67-.02-2.23a31.88 31.88 0 0 0-3.03 2.27c-1.68 0-3.35.1-5.02.2l.04-2.64c-.77.98-1.58 1.93-2.39 2.87-.55-2.2-1.08-4.39-1.53-6.6 1.03.43 2.08.85 3.13 1.23 1.48-.79 2.75-2.04 4.41-2.45 11-2.23 21.93-4.82 33-6.69 6.5 33.2 13.65 66.26 20.34 99.41 2.23 9.21 3.27 18.73 6.47 27.68 1.07 3.85 6.44 4.08 8.68 1.18 1.47-1.59 1.14-3.88 1.07-5.85-1.09-9.1-3.44-18-5.17-26.99-6.72-32.63-13.4-65.26-20.22-97.85m-34.48 13.15c-2.19.74.45 3.21 1.76 2.17.71-1.04-.67-2.45-1.76-2.17m-2.89.85l-.35.72 1.31.8.35-.7c-.33-.2-.98-.6-1.3-.82m80.87 7.84c-2.09.7.15 3.86 1.7 2.74.62-1.1-.4-2.87-1.7-2.74m-5.6 1.03c-.83.85-1.25 3.2.28 3.5 2.08-.1 1.9-4.73-.29-3.5m-12.05 2.07c-.9.95-2.27 2.52-1.9 3.9 2.03.94 3.77-3.07 1.9-3.9m17.02 2.28c-1 .72-1.7 2.5-.9 3.6 1.93.9 2.54-3.2.9-3.6m-24.2.82c-1.54.3-.99 2.4.5 1.86a4.88 4.88 0 0 0 2.87-1.69c-.38-1.38-2.48-.53-3.37-.17m16.86 2.8c.16 3.27 3.06-1.52 0 0m-12.64 1.14c-1.06.5-2.37 1.52-2.15 2.83 1.05 2.58 3.74-2.29 2.15-2.83m6.66.9c.13 3.3 3.07-1.5 0 0m-26.93 61.7c.1 1.35.12 2.7.13 4.06 1.16.7 2.33 1.4 3.54 2.02a58.27 58.27 0 0 0-1.8-2.55 87.9 87.9 0 0 0 2.32-2.79c-1.4-.28-2.8-.53-4.19-.74m-2.86 21.07l1.5.86c-.2-2-.1-4-.14-6-.64 1.66-.9 3.42-1.36 5.14m2.05 10.05c.12 3.33 3.01-1.54 0 0m3.9 14.3c.16 3.34 2.97-1.57 0 0m1.71 8.85c-1.66 2.98 3.3.2 0 0z"/><path d="M289.12 100.8c2.01 2.2 1.93 5.35 2.51 8.1-2.43-1.9-2.04-5.36-2.5-8.1zM58.93 113.68c2.78-.37 5.5-1 8.26-1.54 5.36 27.45 11.4 54.78 16.75 82.24 2.85.12 5.73-.29 8.57.1-.23 1.42-2.16 1.1-3.13 1.71-2.79.43-4.42 3.43-3.68 6.07 2.71 14.17 6.16 28.21 8.34 42.5.96 4.36-1.17 8.87.55 13.14 1.2 3.13 1.27 6.53 1.06 9.84a50.03 50.03 0 0 1-2.39-11.42c-1.94 3.16-3.53 6.74-6.6 9-5.9 4.46-13.36 6.01-20.4 7.75-7.54 1.48-15.02 3.24-22.58 4.6-1.85-9.03-3.87-18.03-5.59-27.09 4.44-.42 10.27-.79 12.41-5.46 2.21-3.38.32-7.35-.17-10.93l-3.09-.75c.26 2.43-1.56 5.53 1.15 7.06-1.86 2.45-1.14 6.33-3.69 8.12.2-1.07.44-2.13.72-3.19l-1.54-1.29c1.86-2.22 1.85-4.95 1.15-7.63-1.83-.02-3.73-.25-5.48.42-.76 1.35-1.25 2.83-2.12 4.12 1.1-3.56-.09-7.08-.56-10.63.68-.69 1.4-1.33 2.15-1.92.33 2.43.44 4.88.2 7.32 1.55-.08 3.1-.18 4.66-.29l-1.58-2.75c1.3.5 2.6 1 3.88 1.53-.35-1.67-.68-3.34-.97-5.02 2.11 1.12 3.51 3.05 5.03 4.83-.59-5.63-2.3-11.05-2.98-16.66-.75.56-2.26 1.68-3 2.25-1.45-2.53-1.22-5.3-.67-8.05l2.14-.76c-5.48-26.14-10.8-52.3-16.22-78.45-1.83.35-3.63.15-4.5-1.73l3.97-.64c-.57-3.48-1.48-6.9-2.08-10.37a47.7 47.7 0 0 1 2.76 2.36c1.5-1.64 3.17-3.05 5.31-3.73l-1.17 3.4c1.25-1.13 2.4-2.37 3.68-3.44 3.14-.89 6.42-1.16 9.55-2.12.58.98 1.23 1.92 1.94 2.82l.96-3.96c2.33.03 4.31 1 5.93 2.62l-.78-3.32 3.1-.32c-.24.74-.68 2.23-.9 2.97.61-1.07 1.12-2.19 1.65-3.3m4.61 2.95c-1.13.98.25 3.25 1.61 2.36 1.06-.96-.27-3.3-1.6-2.36m-25.67 2.92c.57.58.57.58 0 0m13.88.14c-1.13.98-.36 3.07 1.04 3.31 2.07-.26.92-4.47-1.04-3.3m2.98.08c.28.7.57 1.37.86 2.05 1.62-1.06 3.42-1.79 5.2-2.57-2.03.16-4.05.36-6.06.52m-9.23 2.65c-.53 1.65 0 2.23 1.57 1.75.52-1.66 0-2.24-1.57-1.75m-4.76 1.11c-1.38.1-2.4 2.7-.6 2.95 1.23-.1 2.17-2.75.6-2.95m13.2 3.85c4.15.11 8.56.38 12.1-2.2-.7-.53-1.43-1.04-2.16-1.53-.5.78-.99 1.57-1.44 2.4-1.78-.55-3.59-.2-5.35.2l-.05-2.94c-1.05 1.35-2.14 2.66-3.1 4.07m13.31-4.08c-.4 1.4.08 1.93 1.46 1.61.4-1.4-.09-1.94-1.46-1.6m-34.29 1.02c-1.18.27-2.64 1.41-2.14 2.78 1.2 2.78 4-2.22 2.14-2.78m13.87 3.35c-.79 1.33 1.38 2.83 2.41 1.72.86-1.33-1.4-2.7-2.4-1.72m-.95 85.74c-1.5.06-2.22 2.62-.3 2.63 1.5.14 2-2.72.3-2.63z"/><path d="M18.78 133.6c-2.4-.2.04-1.4 1.01-1.86 1.75-.57 3.63-.42 5.44-.54-.73 2.92-4.16 2.06-6.45 2.4zM.17 137.35c5.01-2.45 10.85-2.3 15.93-4.69l.17 2.42c-5.37.73-10.62 2.74-16.1 2.27zM683.71 157.53c1.6-.99 3.57-1.04 5.37-1.42.88 5.73 2.02 11.41 3.07 17.11-1.09.3-2.18.6-3.25.92-1.06-4.4-1.05-9.05-2.78-13.26-.79 4.38-.3 8.86-.83 13.26-1 .65-2.1 1.04-3.18 1.5-2.13-4.28-3.72-8.84-6.3-12.88.66 4.5 1.81 8.91 2.52 13.41l-3.5.22c-.76-5.7-1.96-11.33-2.95-16.98 1.8-.37 3.6-.8 5.4-1.23 1.67 3.71 3.31 7.45 5.17 11.08.46-3.9.66-7.84 1.26-11.73zM656.54 162.2c4.7-.97 9.44-1.68 14.12-2.7l-.14 3.31-4.64.66c.98 4.78 1.77 9.61 2.8 14.4l-3.74.52c-.57-4.8-1.62-9.52-2.55-14.25-1.82.3-3.62.7-5.4 1.07l-.45-3.02zM584.5 176.62c22.5-4.16 44.95-8.6 67.4-13.07 1.78 10.51 4.22 20.91 5.9 31.45-8.97 1.45-17.85 3.43-26.79 5.06 2.12 9.73 3.81 19.56 5.84 29.32 8.27-1.94 16.73-3.07 24.97-5.18 1.95 9.91 3.71 19.86 5.81 29.74-8.44 1.34-16.76 3.3-25.18 4.74 2.22 11.31 4.68 22.58 6.5 33.97 9.83-1.88 19.64-3.84 29.47-5.7 2.24 10.32 3.85 20.78 6.23 31.07-23.28 4.32-46.5 9-69.76 13.5-3.93-18.74-7.35-37.57-11.12-56.33-1.23-5.92-2.03-11.94-3.7-17.75-1.07-9.18-3.76-18.06-5.05-27.2a101.4 101.4 0 0 0-8.33 3.1 58.64 58.64 0 0 1-1.53-2.94c1.42.48 2.85 1 4.3 1.5 1.72-.72 3.5-1.3 5.3-1.86-.1-1.4-.18-2.82-.26-4.23a62.1 62.1 0 0 1-4.95-1.06c1.42-.5 2.86-.97 4.33-1.39-.58-4.37-2.68-8.09-4.7-11.88-1.57 2.33-5.03 1.14-6.56 3.01.46 3.71 1.81 7.25 2.18 11-2.57.54-5.14 1.07-7.74 1.46l-.8 2.27c-.6-.65-1.23-1.29-1.84-1.92-8.93 2.33-18.1 3.54-27.13 5.48-1.42-6.28-2-12.78-4.24-18.85-.86-2.67-3.5-4.65-6.37-3.8-4.68.5-6.49 5.88-5.85 9.93.85 5.16 1.83 10.65 5.23 14.82 4.3 4.3 10.37 6 15.92 8.08 5.97 2.06 11.74 4.61 17.57 7l3.71-.67-2.22 1.75a58.68 58.68 0 0 1 16.74 10.13c4.92 4.94 7.88 11.44 10.08 17.97 3.05 9.77 5.11 19.92 5.38 30.18-.07 3.67-.39 7.44-1.7 10.9-.58 2.13-3.14 2.4-4.66 3.63l3.3-.38c-6.9 10.08-17.8 16.88-29.54 19.87-11.45 3-23.8 3.95-35.19.17-3.93-1.08-7.32-3.47-11.2-4.6.24 4 1.32 7.9 1.4 11.91-1.99-2.36-2.1-5.55-3.37-8.25-1.87-1.66-4.47-1.74-6.8-1.97-.95-4.2-1.68-8.44-2.55-12.65 1.13-.09 2.25-.15 3.4-.2-2.43-4.56-3.22-9.8-6.16-14.06-1.45-7.09-2.78-14.2-4.1-21.33 1.73-.06 3.48-.1 5.23-.22l1-3.99-3.9-.24a82.07 82.07 0 0 1 3.24-3.49c-1.74-6.79-3.07-13.68-4.42-20.56-.27-2.08-2.06-3.39-3.19-5-2.69-3.28-4.57-7.1-6.19-10.99 3.9-.98 7.81-1.98 11.65-3.18a205.5 205.5 0 0 0-12.07 2.07c-3.24-11.63-5.99-24-3.69-36.07 4.11-1.04 8.93-.66 12.4-3.39-4.24.04-8.1 2.13-12.3 2.6 2.6-7.97 8.66-14.38 15.84-18.48 10.84-6.34 23.58-8.57 35.98-9.06 10.61.44 22.48 2.88 29.41 11.7-5.36.6-10.84 1.45-15.83 3.56 5.5-.4 10.83-1.96 16.22-3.06a72.12 72.12 0 0 1 6.67 18.12c2.1-.67 4.24-1.64 5.45-3.6-.84-3.94-1.4-7.94-1.99-11.93.78.07 2.35.2 3.13.25-1.67-6.87-2.6-13.9-4.22-20.78M557 197.4c.13 3.33 2.95-1.54 0 0m-15.84 3.92c3.96-.63 8.17-1 11.77-2.87-3.95.68-8.33.57-11.77 2.87m47.4-2.52c-1.5 3.04 3.33.1 0 0m-49.35 1.84a7.21 7.21 0 0 0-3.43 1.1c.53 2.81 7.65-1.02 3.43-1.1m-19.37 3.94c-1.72.27-3.42.75-4.92 1.64a64.73 64.73 0 0 0 20.23-4.28c-5.16.55-10.19 1.87-15.3 2.64m-12.67 3.73c2.06-.42 4.15-.9 6-1.95-2.1-.08-5-.43-6 1.95m2.35 56.24c1.86 7.51 2.92 15.21 5.01 22.67l2.52-.57c-.94.86-1.92 1.7-2.85 2.56 3.62 3.28 8.77 2.27 13.2 1.82 5.77-1.4 11.71-2 17.4-3.7 1.74 7.92 2.88 15.96 4.85 23.84.74 2.4 1.4 5.11 3.42 6.8 3.68 2 9.02.4 10.55-3.6 1.94-5.76-.55-11.7-1.64-17.38-2.44-.67-4.82-1.56-7.32-1.93a57.2 57.2 0 0 0-2.14 2.53c-1.52-1.18-2.88-2.53-4.46-3.6.9-.9 1.7-1.9 2.5-2.9.85 1.38 1.15 3.43 3.07 3.71 1.5-.3 1.6-2.28 2.38-3.35 1.18-.22 2.36-.45 3.54-.7-3.84-4.99-9.96-6.97-15.28-9.86l-1.53 2.43c-.96-1.4-1.38-3.44-3.07-4.18-10.19-4.52-20.94-8.16-30.15-14.59m151.25 46.11c-1.19 1.01.54 3.1 1.8 2.3 1.11-1.05-.5-3.15-1.8-2.3m-12.1 3.02c-1.59 1.06.35 3.3 1.77 2.23 1.6-1.02-.42-3.27-1.77-2.23m3.98.24c-1.2 2.35 3.75.96 4.64.02-.72-1.6-3.39-.49-4.64-.02m-17.32.85c1.71 2.94 4.96.5 7.21-.37-2.42-.13-4.83.03-7.2.37m32.07 2.12c-1.42 1.07.72 2.84 1.91 2.1 1.26-1.05-.75-2.96-1.9-2.1m-39.83.74c-1.88.65.24 3.6 1.7 2.64.5-1.06-.62-2.52-1.7-2.64m37-.09c-.37 1.4.15 1.94 1.56 1.67.31-1.38-.2-1.94-1.57-1.67m-42.65.98c-.74.91-1.07 3.22.41 3.56 2.1-.24 1.8-4.62-.4-3.56m8.92-.29c-.54 1.57.03 2.08 1.71 1.52.5-1.58-.07-2.08-1.7-1.52m20.41 2.96c3.93.5 10.1 1.48 11.78-3.1-2.63 1.01-5.3 2.06-8.15 2.17l-1.18-1.88a29.7 29.7 0 0 0-2.45 2.81m-7.25.61c-.7 1.65 2.83 2.76 3.13 1-.55-.98-2.14-1.65-3.13-1m-16.95 1.12c-.95.72-1.92 2.43-1.02 3.53 1.93.94 2.67-3.12 1.02-3.53m-48.98 3.27c-1.35.76-1.38 1.42-.09 1.97 1.37-.7 1.4-1.36.1-1.97m41.74.33c.66.66.66.66 0 0m-35.82.5c-.9.48-1.9 2.57-.48 3 1.8.07 3.12-4.04.48-3m-16.2 2.51c.16 3.3 3.1-1.59 0 0m-25.37 3.65a58.93 58.93 0 0 0-1.04 4.6c1.55-.58 1.71-2 1.5-3.43 2.3-.98 4.87-1.3 7.04-2.63-2.52.4-4.98 1.12-7.5 1.46m8.33-1.65c-.57 1.41-.12 1.83 1.34 1.27.58-1.39.14-1.82-1.34-1.27m31.07.88c-.03 3.35 3-1.43 0 0m-45.94 2.02c.2 3.24 3.07-1.53 0 0m26.17 2.42c1.7 2.65 5.58 2.52 8.18 1.43l-2.23-1.35.57-2.26c-1.95 1.31-4.24 1.78-6.52 2.18m10.58-2.23c-1.54 2.96 3.34.11 0 0m-41.95 1.82c-1.54 2.97 3.33.14 0 0m12.2 4.9c-.05 3.33 3.02-1.44 0 0z"/><path d="M585.85 191.53c.67.68.67.68 0 0zM583.17 193.56c1.06-1.17 3.61.45 2.63 1.88-1.12 1.13-3.62-.4-2.63-1.88zM439.84 204.92c13.46-2.69 26.94-5.35 40.44-7.84.51 5.17 2.15 10.14 2.57 15.32-4.82.66-9.64 1.44-14.33 2.74 4.96-.39 9.78-1.8 14.75-2.12 1.42 8.45 3.3 16.8 4.8 25.23a28.54 28.54 0 0 1-15-3.47c-7.38-3.6-10-12.15-16.22-17.12a24.34 24.34 0 0 0-15.99-6.84 83.56 83.56 0 0 0-1.02-5.9m18.5 12.16c3.17-.15 6.38-.5 9.44-1.46-3.19.18-6.4.5-9.45 1.46zM387.97 214.95c2.68-.49 5.36-.95 8.02-1.6a21.18 21.18 0 0 0 7.54 9.16c6.45 3.64 14.22 3.14 21.3 2.11 1.9 4.14 1.47 8.94 3.56 13.01 1.8 3.91 5.94 6 8 9.72 2.64 14.65 5.64 29.24 8.4 43.86 1.24 2.88 3.61 5.22 4.7 8.24-.64 2.47-2.68 4.72-1.63 7.4 2.12 9.31 3 18.97 6.23 28 1.41 4.3 7.57 3.96 9.42.21.87-6.07-.77-12.08-1.7-18.04-.36-1.29-.16-2.86-1.19-3.85l-2.55-.46-.42 3.73a36.77 36.77 0 0 0-5.3-4.02l4.2-2.1c-.02-2-.06-3.99.1-5.96a13.64 13.64 0 0 1 1.61 6.07c-.2 1.41 1 1.86 2.14 1.97.06-4.32-1.4-8.46-2.2-12.67-2.95-16.25-6.17-32.46-9.36-48.68 13.65 3.31 27.91 1.65 41.5-1.12 3.38 16.87 6.54 33.78 9.94 50.64.21 2.2 1.87 3.7 3.22 5.3a157.9 157.9 0 0 1 3.15-1.72l-.1 2.58c-1.7.18-3.39.37-5.07.6 1.32 7.86 2.97 15.83 2.05 23.83-1.8 9.22-6.84 17.98-14.59 23.45-9.64 6.93-21.59 9.77-33.27 10.64-6.52.34-13.03-.78-19.3-2.47 15.27-2.99 30.51-6.15 45.77-9.12 1.8.11 1.05-1.44.9-2.54a45.92 45.92 0 0 1-7.86 1.76c-2.82.34-5.62 2.14-8.44.8-2.07 1.66-4.74 1.97-7.25 2.45-6.34 1.03-12.55 2.7-18.9 3.55l-.67-2.2-.2 2.34c-2.56.35-5.17 1.8-7.74 1.23a35.34 35.34 0 0 1-17.67-17.87c-1.9.78-3.89 1.28-5.9 1.62.96 3.67 4.4 7.5 2.16 11.25-2.4-.89-6 1.51-6.84-1.88a20.38 20.38 0 0 0-1.72 3.88c3.55-.33 7.17-.57 10.54-1.88 1.06 2.9 2.08 5.81 3.21 8.68-11.32 1.91-22.55 4.35-33.82 6.5l-.72-2.17c-1.97 1.6-4.4 2.33-6.6 3.5-1.35-4.77-2.5-9.58-3.89-14.32-3.06.61-6.26.43-9.16 1.76-.26-1.45-.57-2.88-.88-4.3 1.04.77 2.07 1.56 3.1 2.37a37.7 37.7 0 0 0 3.23-3.7c1-.36 1.97-.74 2.95-1.15-.49-1.49-1.79-2.45-3.37-2.08-4.72.1-7.1 6.12-12.05 5.72.93 6.35 1.53 12.74 2.18 19.13-12.23 2.22-24.38 4.7-36.54 7.31-.34-1.98-2.33-1.86-3.85-2.24.46 1.13.93 2.26 1.43 3.4l-2.4-1.05c-.3-2.94-1-5.94-.44-8.88 1.95-.04 3.91.22 5.82-.32-1.56-.77-2.24-2.14-2.49-3.77a47.64 47.64 0 0 1-3.4 2.24 155.2 155.2 0 0 0-2.84-19.19c2.36-2.1.82-5.28.81-7.96-.94.24-1.87.47-2.79.72-.9-1.3-1.38-3.43-3.37-3.16-1.22 2.58-.84 5.38-.29 8.07.65 8.31 2.01 17.22-1.79 25.02-1.64.34-3.55.38-4.54 1.97 1.4-.17 2.77-.39 4.16-.63-3.23 4.33-5.6 11.05-11.77 11.56-5.52.78-10.88 2.77-16.5 2.7-6.53 2.38-13.46 3.16-20.2 4.66a574.58 574.58 0 0 1-21 3.97 31.63 31.63 0 0 1-17.09-16.22c-5.29-11.37-7.62-23.79-10.14-35.99-1.44 0-2.88.01-4.3.03l1.67-2.5 2.5.72c-3.46-16.17-6.45-32.43-9.47-48.67-1.2-7.99-2.89-16.2-1-24.23a2.9 2.9 0 0 1 2.9-2.67l-1.7-1.39c-.77-4.73-3-9.5-1.64-14.32l2.17 2.33c-.62.4-1.24.81-1.85 1.23 2.06 2.48 2.36 5.55 2.18 8.66 2.76-7.23 8.1-13.2 14.56-17.37.97 4.37 2.2 8.7 2.91 13.12-.19-4.64-2.35-9.07-2.24-13.67 13.02-8.52 29.18-10.27 44.36-9.04 9.35 1.52 18.41 5.96 24.4 13.46-6.3 1.48-13.07 1.7-18.97 4.36 6.57-.75 13.05-2.2 19.5-3.63 8.97 14.46 10.23 31.85 14.27 48-13.64 2.5-27.2 5.33-40.84 7.77-1.35-8.34-3.17-16.6-4.67-24.93-1.1-5.08-1.92-10.27-3.83-15.13-2.32-5.83-12.69-3.1-12.5 2.97-.03 7.83 2.21 15.43 3.47 23.11 2.14 10.56 4.13 21.15 6.23 31.72.81 3.65.9 7.53 2.7 10.9.4-2.48.18-5.08 1.28-7.4a51 51 0 0 1 2.32 8.06c-1.25.47-2.49.95-3.72 1.45.5 3.75 1.37 7.43 2.2 11.12 1.22-.82 2.42-1.66 3.65-2.46l-.46 3.9-3.16-1.29c1.33 7 2.2 14.25 5.14 20.8 2.2 4.9 10.45 3.65 11.95-1.18.64-5.48-.72-10.9-1.62-16.27-1.4-6.66-2.49-13.37-3.97-20 13.5-2.59 26.95-5.3 40.46-7.78.65 3.41 1.36 6.81 2.06 10.22 1.47.26 2.93.6 4.4.9-.58-7.38-2.77-14.53-3.84-21.85 2-.2 5.52.77 5.77-2.18.36-5.87-1.78-11.55-2.89-17.25l2.18-1.77c-.64-.26-1.9-.78-2.55-1.03 1.96-1.72 2.16-4.33 2.1-6.77-1.65-19.12-2.16-38.33-3.8-57.45 19.46-3.8 38.98-7.37 58.38-11.45a14026 14026 0 0 0 23.07 65.21c3.08 8.4 5.72 16.97 9.11 25.25.22-2.13.26-4.27.54-6.39 1 1.57 1.23 3.42 1.76 5.18a45.5 45.5 0 0 0 3.15-1.5c-.83-1.1-1.68-2.18-2.45-3.3 2.41.44 3.47 3.98 6.06 3.15.3-1.4.06-2.83-.27-4.2-5.24-26.24-10.09-52.55-15.46-78.75 2.93 1.66 5.92 3.31 9.18 4.25 1.94-.06 3.85-.53 5.76-.88-2.49-1.1-4.8-2.56-6.47-4.74-2.35-3.05-6.27-3.78-9.64-5.12l-.57-2.68M398 230.48c.25 3.35 2.9-1.64 0 0m1.76 4.12c-.83 1.25-.6 2.03.68 2.32.83-1.27.6-2.04-.68-2.32M258.8 258.12c-1.49.38-.95 2.76.6 1.91 1.6-.28.9-2.8-.6-1.9m-5.02 1.34c.13 3.31 3.04-1.52 0 0m-10.88 2.1c-.59 0-3.17 1.04-1.56 1.58 1.7-.22 3.67-.23 5.1-1.26-.3-1.46-2.59-.5-3.54-.33m100.8-.66c.6 16.97 2.2 33.93 3.24 50.9l2.21.4c-3.46 3.73-.59 9.24-.5 13.74 4.48-.89 8.96-1.75 13.45-2.6-6.49-20.72-12.44-41.59-18.4-62.44m-121.64 5.76c3.75-.24 7.35-1.4 11.06-1.93 2.42-.48 5.14-.48 7.05-2.29-6.09 1.13-12.4 1.67-18.1 4.22m-12.96 2.5c4.36-.76 8.92-1.1 13.03-2.82-4.42 0-9.04.86-13.03 2.81m55.16-2.86c-.18 1.63-.39 3.25-.6 4.88l2.13.01c-.49-1.64-1-3.27-1.53-4.89m138.54 1.17c.67.68.67.68 0 0m-201.8 3.25c2.45-.4 5.3-.34 7.2-2.23-2.5.37-4.93 1.14-7.2 2.23m16.84 1.81c.58.57.58.57 0 0m50.07 19.05c.6.58.6.58 0 0m-45.05 4.36c.9 5.92 1.36 12.07 3.65 17.66a118.02 118.02 0 0 0-3.65-17.66m177.82 15.9a75.73 75.73 0 0 0-4.18-.69c1.44 3.54 2.58 7.18 3.88 10.77l1.2.8c1.75.05 1.7-1.8 2.2-3l2.71-.47c.31-1.57.65-3.13 1-4.69-1.13-.8-2.28-1.56-3.4-2.34l3.63-.6a31.95 31.95 0 0 0-4.02-3.14 68.6 68.6 0 0 0-3.02 3.35m5.81 9c-.22 2.37.45 4.67.9 6.98-2.2-.68-3.56-2.69-5.58-3.56-.38 1.42.43 2.73.82 4.06a660.3 660.3 0 0 1 5.12 14.34c2.03-.25 4.08-.4 6.13-.52a264.2 264.2 0 0 1-4.03-16.14 7.66 7.66 0 0 0-3.36-5.16m-175.47 17.21c.26 2.71.83 5.4 1.78 7.97a22.49 22.49 0 0 0-1.78-7.97m257 6.25c-.58 1.38-.16 1.85 1.28 1.41.6-1.37.17-1.84-1.28-1.4m2.67.18c-.46 1.4.02 1.87 1.44 1.4.44-1.4-.04-1.88-1.44-1.4m-12.07 1.45c-.49 1.4-.04 1.87 1.35 1.46.5-1.4.03-1.89-1.35-1.46m-12.62 3.44c.07 3.34 2.96-1.5 0 0m-7.93.96c.17 3.32 2.94-1.52 0 0m-101.06 2.32c-1.12-.29-3.25 1.27-1.3 1.9 2.02 1.31 4.6-2.24 1.3-1.9m73.86 1.8c-1.3.7-1.3 1.36.01 2.01 1.31-.68 1.31-1.35 0-2m-3.07 1.1c.6.6.6.6 0 0m-33.05 2.18c-.35.92-.7 1.84-1.07 2.76 2.22-.56 4.5-.93 6.68-1.65-1.9-.25-3.86-.24-5.6-1.1m-17.05.9c-.6 1.3-1.22 2.56-1.82 3.84.51-.13 1.54-.4 2.05-.55-.09-1.1-.16-2.19-.23-3.29m12.1.94c-1.35 1.5 1.43 2.4 2.21 1.1 1.35-1.47-1.47-2.4-2.2-1.1m17.11-.09c.32 3.34 2.85-1.7 0 0m-18.16 3.02c-.5 1.41-.05 1.87 1.37 1.35.5-1.42.03-1.87-1.37-1.35m-55.95 6.04c.56.55.56.55 0 0m10.03.12c-1.53 1.62 1.26 2.31 2.05.94 1.5-1.49-1.4-2.46-2.05-.94m-59.94.9c-.73 1.15.37 2.86 1.64 3.04 1.8-.6-.08-4.17-1.64-3.04m42.3 6.45c2.6-.06 5.3-.2 7.63-1.54-2.57-.78-5.72-.5-7.64 1.54m-31.37 1.46c.6.58.6.58 0 0m-8.99 1.08c.55.55.55.55 0 0m-6.99.96c-1.05.2-2.19 2.21-.57 2.48 1.64.3 2.96-3.44.57-2.48m-26.06 5.24c1.62.15 3.23.45 4.84.75.21-.97.4-1.93.57-2.9-2.06.03-3.9.74-5.4 2.15m37.22-2.39c.15 3.33 2.94-1.56 0 0m-25.09 2c.15 3.33 2.95-1.56 0 0m.45 2.46c1.63.16 3.26.34 4.9.52v-1.97c-1.64.47-3.27.94-4.9 1.45m-25.35 2.65c1.74-.08 3.48-.19 5.22-.3l-.18-1.8c-1.68.68-3.37 1.37-5.04 2.1zM582.84 229.76a81.7 81.7 0 0 1 1.53-1.03c-.54 1.71-1.15 3.4-1.73 5.1 1.75-.37 3.35.14 4.84 1.06a210.2 210.2 0 0 0-2 3.16c-1.05-.16-2.1-.25-3.14-.33-.35-2.66.17-5.33.5-7.96zM550.06 234.41c.94-1.16 3.38.1 2.24 1.5-.89 1.26-3.29-.19-2.24-1.5zM555.72 234.81c1.7.46-.29 2.36-1.33 1.9-1.89-.56.18-2.4 1.33-1.9z"/><path d="M453.01 235.98c11.21 4.71 23.54 5.22 35.51 4.38.46 2.25.95 4.5 1.28 6.77-12.8.46-28.02-.42-36.79-11.15zM570.96 239.45c.72-.67 3.15-.28 1.94 1.01a4.6 4.6 0 0 1-3.35 1.1c-1.79-.65.5-2.1 1.41-2.1zM563 240.46c3.02-1.53.23 3.3 0 0zM39.67 242.48c1.61-.38 2.25.22 1.92 1.8-1.62.4-2.26-.2-1.92-1.8zM587.06 243.03c2.5 2.42 1.46 5.8-.82 7.92 0-2.66.37-5.3.82-7.92zM37.86 246.37c.85-1 3.74-.16 2.33 1.28-.83 1.22-3.54.13-2.33-1.28zM298.94 246c1.64 2.72 1.63 5.98 1.66 9.06-2.14-2.5-1.69-6.02-1.66-9.07zM299.72 254.73a3.63 3.63 0 0 1 1.86 2.66c1.58 7.8 3.82 15.42 5.52 23.17l-2.88-.4c-.96-8.57-3.54-16.86-4.5-25.43zM98.45 279.58c-1.9-2.82-2.97-7.35-1.18-10.58a30.35 30.35 0 0 1-.52 3.4c1.77 1.96 2 4.66 1.7 7.18zM98 280.06l1.21.64c1.01 3.7 1.64 7.5 1.93 11.32-2.9-3.23-2.55-7.94-3.14-11.96zM305.74 281.93l1.56.9a94.92 94.92 0 0 1 1.32 10.75l-2.29-.57c.42-1.27.9-2.52 1.38-3.76l-1.82-1.09c.61-2.06.07-4.16-.15-6.23zM520.78 283.62c4.85.48 9.68-1.34 14.48-.07-5.5 1.78-11.33 2.54-17.07 3.07.4-1.19.85-3.38 2.6-3zM400.84 313.48c.62.63.62.63 0 0zM352 315.92c1.61.02 3.01.66 4.07 1.88-1.06.68-2.13 1.34-3.2 1.98-.4 1.27-.16 3.44-2.09 3.21-1.8-1.4-1.4-3.34.72-4.09l.5-2.98zM452.86 316.53c.6.61.6.61 0 0zM271.8 330.5c.67.68.67.68 0 0zM402.47 369.28c4.34-.77 8.67-1.69 13.04-2.3 1.51-.12 1.45 1.98 2.22 2.9-14.05 2.55-28.02 5.63-42.1 8.03l-.23-3.72 1.98 1.08c7.73-4.22 16.8-3.63 25.1-5.99zM342.41 381.17c4.92-1.28 9.95-1.86 14.95-2.7l-.02 3.21c-13.92 2.47-27.74 5.46-41.66 7.93l-.28-3.14c2.64-.5 5.31-1.53 8.01-.77.45-1.08.92-2.15 1.4-3.2 5.8 2.51 11.74-.67 17.6-1.33zM279.07 393.6c4.9-1.42 10.02-1.74 14.93-3.16-11 9.73-26.06 13.1-40.39 13.57a65.75 65.75 0 0 1-16.44-2.3c7.88-2.13 16.06-3 24.02-4.82 5.34-.88 10.76-2.74 16.21-1.6l1.67-1.7z"/></g></svg>