<?xml version="1.0" encoding="UTF-8" standalone="no"?>
<!-- Created with Inkscape (http://www.inkscape.org/) -->
<svg xmlns:dc="http://purl.org/dc/elements/1.1/" xmlns:cc="http://creativecommons.org/ns#" xmlns:rdf="http://www.w3.org/1999/02/22-rdf-syntax-ns#" xmlns:svg="http://www.w3.org/2000/svg" xmlns="http://www.w3.org/2000/svg" xmlns:xlink="http://www.w3.org/1999/xlink" xmlns:sodipodi="http://sodipodi.sourceforge.net/DTD/sodipodi-0.dtd" xmlns:inkscape="http://www.inkscape.org/namespaces/inkscape" width="1001.6276" height="495.59375" id="svg2" version="1.1" inkscape:version="0.48.4 r" sodipodi:docname="Nowy dokument 1">
  <defs id="defs4">
    <linearGradient id="linearGradient5228">
      <stop style="stop-color:#fff200;stop-opacity:1;" offset="0" id="stop5230"/>
      <stop style="stop-color:#f36432;stop-opacity:1;" offset="1" id="stop5232"/>
    </linearGradient>
    <clipPath id="clipPath3577" clipPathUnits="userSpaceOnUse">
      <path id="path3579" d="m 254.17,251.166 -11.2,-27.978 -15.637,0 c -1.317,0 -2.152,0.791 -2.152,1.977 0,0.351 0.088,0.746 0.264,1.185 l 10.848,27.013 16.471,0 c 1.142,0 1.625,-0.528 1.625,-1.23 0,-0.308 -0.087,-0.615 -0.219,-0.967 z m -7.818,-2.152 c -0.923,0 -2.021,-0.615 -2.592,-2.064 l -3.514,-8.741 c -0.131,-0.351 -0.175,-0.614 -0.175,-0.878 0,-0.878 0.702,-1.362 1.537,-1.362 0.966,0 2.196,0.659 2.767,2.153 l 3.47,8.652 c 0.088,0.308 0.132,0.527 0.132,0.791 0,0.878 -0.747,1.449 -1.625,1.449" inkscape:connector-curvature="0"/>
    </clipPath>
    <clipPath id="clipPath3545" clipPathUnits="userSpaceOnUse">
      <path id="path3547" d="m 230.563,248.97 -4.041,0 c -1.098,0 -1.801,-0.615 -2.065,-1.273 l -3.777,-9.444 c -0.132,-0.263 -0.176,-0.527 -0.176,-0.79 0,-0.923 0.703,-1.538 1.713,-1.538 l 1.318,0 c 0.791,0 1.318,-0.439 1.318,-1.054 0,-0.175 0,-0.307 -0.088,-0.483 l -4.436,-11.244 -10.498,0 c -1.01,0 -1.713,0.659 -1.713,1.581 0,0.22 0.044,0.527 0.176,0.791 l 8.609,21.522 c 0.088,0.219 0.132,0.439 0.132,0.659 0,0.834 -0.791,1.273 -1.67,1.273 l -3.557,0 1.757,4.349 18.754,0 -1.756,-4.349" inkscape:connector-curvature="0"/>
    </clipPath>
    <clipPath id="clipPath3505" clipPathUnits="userSpaceOnUse">
      <path id="path3507" d="m 199.666,223.188 -15.681,0 c -1.23,0 -2.108,0.747 -2.108,1.889 0,0.351 0.088,0.746 0.264,1.142 l 10.804,27.144 10.146,0 -6.149,-15.241 c -0.131,-0.308 -0.219,-0.615 -0.219,-0.879 0,-0.878 0.702,-1.405 1.581,-1.405 0.966,0 2.152,0.658 2.767,2.24 l 5.93,15.285 4.699,0 -12.034,-30.175" inkscape:connector-curvature="0"/>
    </clipPath>
    <clipPath id="clipPath3467" clipPathUnits="userSpaceOnUse">
      <path id="path3469" d="m 188.285,251.166 -11.244,-28.022 -4.524,0 4.787,11.991 c 0.088,0.263 0.132,0.527 0.132,0.747 0,0.922 -0.747,1.493 -1.625,1.493 -0.922,0 -2.021,-0.615 -2.592,-2.064 l -4.831,-12.167 -6.984,0 c -1.317,0 -2.152,0.835 -2.152,2.021 0,0.351 0.088,0.746 0.264,1.185 l 10.849,27.013 16.47,0 c 1.186,0 1.669,-0.528 1.669,-1.274 0,-0.264 -0.087,-0.571 -0.219,-0.923 z m -7.862,-2.108 c -0.923,0 -1.977,-0.615 -2.548,-2.064 l -0.703,-1.757 c -0.087,-0.307 -0.131,-0.571 -0.131,-0.835 0,-0.878 0.659,-1.405 1.537,-1.405 0.966,0 2.152,0.703 2.723,2.196 l 0.615,1.581 c 0.132,0.308 0.176,0.527 0.176,0.791 0,0.922 -0.747,1.493 -1.669,1.493" inkscape:connector-curvature="0"/>
    </clipPath>
    <clipPath id="clipPath3435" clipPathUnits="userSpaceOnUse">
      <path id="path3437" d="m 311.956,282.645 -4.041,0 c -1.098,0 -1.801,-0.615 -2.065,-1.273 l -3.777,-9.444 c -0.132,-0.263 -0.176,-0.527 -0.176,-0.79 0,-0.923 0.703,-1.537 1.713,-1.537 l 1.318,0 c 0.791,0 1.318,-0.44 1.318,-1.055 0,-0.175 0,-0.307 -0.088,-0.483 l -4.436,-11.244 -10.498,0 c -1.01,0 -1.713,0.659 -1.713,1.581 0,0.22 0.044,0.527 0.176,0.791 l 8.609,21.522 c 0.088,0.219 0.131,0.439 0.131,0.659 0,0.834 -0.79,1.273 -1.669,1.273 l -3.557,0 1.757,4.349 18.754,0 -1.756,-4.349" inkscape:connector-curvature="0"/>
    </clipPath>
    <clipPath id="clipPath3395" clipPathUnits="userSpaceOnUse">
      <path id="path3397" d="m 291.874,283.963 -2.767,-6.984 -4.524,0 1.362,3.339 c 0.131,0.307 0.175,0.614 0.175,0.878 0,0.922 -0.702,1.449 -1.581,1.449 -0.966,0 -2.108,-0.702 -2.723,-2.24 l -2.767,-7.071 4.216,0 -2.415,-5.666 -4.041,0 -4.217,-10.849 -10.277,0 12.078,30.219 15.636,0 c 1.23,0 2.109,-0.747 2.109,-1.933 0,-0.351 -0.088,-0.747 -0.264,-1.142" inkscape:connector-curvature="0"/>
    </clipPath>
    <clipPath id="clipPath3357" clipPathUnits="userSpaceOnUse">
      <path id="path3359" d="m 268.817,282.733 -9.4,0 c -1.801,0 -2.767,-1.274 -2.767,-2.328 0,-0.79 0.483,-1.449 1.582,-1.449 l 9.179,0 -2.372,-5.666 -9.399,0 c -1.801,0 -2.811,-1.274 -2.811,-2.328 0,-0.79 0.527,-1.449 1.625,-1.449 l 8.916,0 -5.007,-12.65 -15.548,0 c -1.274,0 -2.152,0.659 -2.152,1.801 0,0.395 0.087,0.791 0.263,1.23 l 11.025,27.144 18.623,0 -1.757,-4.305" inkscape:connector-curvature="0"/>
    </clipPath>
    <clipPath id="clipPath3319" clipPathUnits="userSpaceOnUse">
      <path id="path3321" d="m 235.915,256.863 -4.524,0 5.666,14.319 c 0.132,0.307 0.176,0.571 0.176,0.79 0,0.923 -0.747,1.45 -1.625,1.45 -0.923,0 -2.021,-0.571 -2.592,-2.021 l -5.754,-14.538 -7.027,0 c -1.274,0 -2.152,0.791 -2.152,1.977 0,0.395 0.088,0.79 0.263,1.185 l 10.849,27.057 10.058,0 -2.372,-6.018 c -0.131,-0.307 -0.175,-0.571 -0.175,-0.834 0,-0.879 0.659,-1.362 1.493,-1.362 1.01,0 2.196,0.659 2.811,2.196 l 2.372,6.018 4.656,0 -12.123,-30.219" inkscape:connector-curvature="0"/>
    </clipPath>
    <clipPath id="clipPath3287" clipPathUnits="userSpaceOnUse">
      <path id="path3289" d="m 223.464,282.645 -4.041,0 c -1.098,0 -1.8,-0.615 -2.064,-1.273 l -3.777,-9.444 c -0.132,-0.263 -0.176,-0.527 -0.176,-0.79 0,-0.923 0.703,-1.537 1.713,-1.537 l 1.318,0 c 0.79,0 1.317,-0.44 1.317,-1.055 0,-0.175 0,-0.307 -0.088,-0.483 l -4.436,-11.244 -10.497,0 c -1.01,0 -1.713,0.659 -1.713,1.581 0,0.22 0.044,0.527 0.176,0.791 l 8.608,21.522 c 0.088,0.219 0.132,0.439 0.132,0.659 0,0.834 -0.79,1.273 -1.669,1.273 l -3.558,0 1.757,4.349 18.755,0 -1.757,-4.349" inkscape:connector-curvature="0"/>
    </clipPath>
    <clipPath id="clipPath3249" clipPathUnits="userSpaceOnUse">
      <path id="path3251" d="m 259.82,316.457 -8.829,-21.873 c -1.01,-2.504 -4.128,-3.646 -6.456,-3.646 l -13.748,0 12.123,30.175 13.396,0 c 2.899,0 3.909,-1.362 3.909,-2.899 0,-0.571 -0.132,-1.186 -0.395,-1.757 z m -6.896,0.308 -1.713,0 -5.183,-13.045 2.152,0 c 0.967,0 2.24,0.615 2.855,2.152 l 3.426,8.609 c 0.088,0.307 0.132,0.571 0.132,0.79 0,0.923 -0.791,1.494 -1.669,1.494" inkscape:connector-curvature="0"/>
    </clipPath>
    <clipPath id="clipPath3211" clipPathUnits="userSpaceOnUse">
      <path id="path3213" d="m 237.752,318.082 -10.805,-27.144 -4.568,0 9.4,23.499 c 0.132,0.307 0.175,0.615 0.175,0.878 0,0.923 -0.658,1.45 -1.537,1.45 -0.966,0 -2.152,-0.703 -2.767,-2.24 l -9.224,-23.587 -10.233,0 12.034,30.219 15.68,0 c 1.23,0 2.065,-0.747 2.065,-1.933 0,-0.351 -0.044,-0.746 -0.22,-1.142" inkscape:connector-curvature="0"/>
    </clipPath>
    <clipPath id="clipPath3173" clipPathUnits="userSpaceOnUse">
      <path id="path3175" d="m 215.523,318.961 -11.244,-28.023 -4.524,0 4.787,11.991 c 0.088,0.264 0.132,0.527 0.132,0.747 0,0.922 -0.747,1.493 -1.625,1.493 -0.923,0 -2.021,-0.615 -2.592,-2.064 l -4.831,-12.167 -6.984,0 c -1.317,0 -2.152,0.835 -2.152,2.021 0,0.351 0.088,0.746 0.264,1.186 l 10.848,27.012 16.471,0 c 1.186,0 1.669,-0.527 1.669,-1.274 0,-0.264 -0.087,-0.571 -0.219,-0.922 z m -7.862,-2.109 c -0.923,0 -1.977,-0.614 -2.548,-2.064 l -0.703,-1.757 c -0.087,-0.307 -0.131,-0.571 -0.131,-0.834 0,-0.879 0.659,-1.406 1.537,-1.406 0.966,0 2.152,0.703 2.723,2.196 l 0.615,1.581 c 0.132,0.308 0.176,0.528 0.176,0.791 0,0.922 -0.747,1.493 -1.669,1.493" inkscape:connector-curvature="0"/>
    </clipPath>
    <clipPath id="clipPath3135" clipPathUnits="userSpaceOnUse">
      <path id="path3137" d="m 190.699,319.005 -2.767,-6.94 c -1.098,-2.767 -2.987,-3.69 -5.446,-4.524 -1.23,-0.439 -2.021,-1.537 -2.021,-2.416 0,-0.747 0.527,-1.361 1.845,-1.361 l 4.436,-0.044 -5.095,-12.738 -4.304,0 c -1.362,0 -2.548,0.967 -2.504,2.636 l 0,0.043 -0.571,7.204 -3.865,-9.883 -7.291,0 c -1.274,0 -2.152,0.659 -2.152,1.801 0,0.351 0.088,0.791 0.263,1.23 l 11.025,27.188 16.998,0 c 1.186,0 1.625,-0.527 1.625,-1.23 0,-0.308 -0.044,-0.615 -0.176,-0.966 z m -8.038,-2.153 c -0.966,0 -2.02,-0.614 -2.635,-2.064 l -0.703,-1.713 c -0.131,-0.307 -0.175,-0.615 -0.175,-0.834 0,-0.879 0.658,-1.362 1.493,-1.362 1.01,0 2.196,0.659 2.811,2.152 l 0.659,1.581 c 0.088,0.308 0.175,0.571 0.175,0.791 0,0.878 -0.746,1.449 -1.625,1.449" inkscape:connector-curvature="0"/>
    </clipPath>
    <clipPath id="clipPath3095" clipPathUnits="userSpaceOnUse">
      <path id="path3097" d="m 166.679,316.808 -6.808,0 c -1.406,0 -2.284,-0.746 -2.636,-1.625 l -3.689,-9.267 c -0.132,-0.308 -0.176,-0.571 -0.176,-0.835 0,-0.922 0.703,-1.449 1.537,-1.449 1.011,0 2.153,0.659 2.768,2.24 l 2.767,7.335 4.699,0 -8.872,-22.225 -15.68,0 c -1.23,0 -2.109,0.747 -2.109,1.933 0,0.307 0.088,0.703 0.264,1.142 l 10.805,27.1 18.799,0 -1.669,-4.349" inkscape:connector-curvature="0"/>
    </clipPath>
    <clipPath id="clipPath3025" clipPathUnits="userSpaceOnUse">
      <path id="path3027" clip-rule="evenodd" d="m 36.35,373.65 338.74,0 0,-337.32 -338.74,0 0,337.32 z" inkscape:connector-curvature="0"/>
    </clipPath>
    <linearGradient inkscape:collect="always" xlink:href="#linearGradient5228" id="linearGradient5366" x1="388.5209" y1="554.26917" x2="425.03088" y2="554.26917" gradientUnits="userSpaceOnUse" gradientTransform="matrix(3.6856678,0,0,3.6856678,-629.74124,-1630.1743)"/>
    <linearGradient inkscape:collect="always" xlink:href="#linearGradient5228" id="linearGradient5368" x1="367.19214" y1="554.32416" x2="397.44339" y2="554.32416" gradientUnits="userSpaceOnUse" gradientTransform="matrix(3.6856678,0,0,3.6856678,-629.74124,-1630.1743)"/>
    <linearGradient inkscape:collect="always" xlink:href="#linearGradient5228" id="linearGradient5370" x1="334.3909" y1="554.26917" x2="371.66965" y2="554.26917" gradientUnits="userSpaceOnUse" gradientTransform="matrix(3.6856678,0,0,3.6856678,-629.74124,-1630.1743)"/>
    <linearGradient inkscape:collect="always" xlink:href="#linearGradient5228" id="linearGradient5372" x1="306.10965" y1="554.29663" x2="342.67465" y2="554.29663" gradientUnits="userSpaceOnUse" gradientTransform="matrix(3.6856678,0,0,3.6856678,-629.74124,-1630.1743)"/>
    <linearGradient inkscape:collect="always" xlink:href="#linearGradient5228" id="linearGradient5374" x1="656.07251" y1="452.94467" x2="686.32373" y2="452.94467" gradientUnits="userSpaceOnUse" gradientTransform="matrix(3.6856678,0,0,3.6856678,-1319.4692,-1411.6678)"/>
    <linearGradient inkscape:collect="always" xlink:href="#linearGradient5228" id="linearGradient5376" x1="622.07623" y1="452.91718" x2="659.35498" y2="452.91718" gradientUnits="userSpaceOnUse" gradientTransform="matrix(3.6856678,0,0,3.6856678,-1319.4692,-1411.6678)"/>
    <linearGradient inkscape:collect="always" xlink:href="#linearGradient5228" id="linearGradient5378" x1="595.01123" y1="452.88968" x2="632.39996" y2="452.88968" gradientUnits="userSpaceOnUse" gradientTransform="matrix(3.6856678,0,0,3.6856678,-1319.4692,-1411.6678)"/>
    <linearGradient inkscape:collect="always" xlink:href="#linearGradient5228" id="linearGradient5380" x1="566.78625" y1="452.86218" x2="604.22998" y2="452.86218" gradientUnits="userSpaceOnUse" gradientTransform="matrix(3.6856678,0,0,3.6856678,-1319.4692,-1411.6678)"/>
    <linearGradient inkscape:collect="always" xlink:href="#linearGradient5228" id="linearGradient5382" x1="545.45752" y1="452.94467" x2="575.70996" y2="452.94467" gradientUnits="userSpaceOnUse" gradientTransform="matrix(3.6856678,0,0,3.6856678,-1319.4692,-1411.6678)"/>
    <linearGradient inkscape:collect="always" xlink:href="#linearGradient5228" id="linearGradient5384" x1="408.92126" y1="333.15308" x2="445.70624" y2="333.15308" gradientUnits="userSpaceOnUse" gradientTransform="matrix(3.6856678,0,0,3.6856678,-679.10288,-1127.3458)"/>
    <linearGradient inkscape:collect="always" xlink:href="#linearGradient5228" id="linearGradient5386" x1="380.67749" y1="333.12558" x2="417.90125" y2="333.12558" gradientUnits="userSpaceOnUse" gradientTransform="matrix(3.6856678,0,0,3.6856678,-679.10288,-1127.3458)"/>
    <linearGradient inkscape:collect="always" xlink:href="#linearGradient5228" id="linearGradient5388" x1="353.54999" y1="333.12558" x2="390.11499" y2="333.12558" gradientUnits="userSpaceOnUse" gradientTransform="matrix(3.6856678,0,0,3.6856678,-679.10288,-1127.3458)"/>
    <linearGradient inkscape:collect="always" xlink:href="#linearGradient5228" id="linearGradient5390" x1="321.64124" y1="333.07056" x2="359.03" y2="333.07056" gradientUnits="userSpaceOnUse" gradientTransform="matrix(3.6856678,0,0,3.6856678,-679.10288,-1127.3458)"/>
    <linearGradient inkscape:collect="always" xlink:href="#linearGradient5228" id="linearGradient5392" x1="293.53751" y1="333.09808" x2="330.87125" y2="333.09808" gradientUnits="userSpaceOnUse" gradientTransform="matrix(3.6856678,0,0,3.6856678,-679.10288,-1127.3458)"/>
  </defs>
  <sodipodi:namedview id="base" pagecolor="#ffffff" bordercolor="#666666" borderopacity="1.0" inkscape:pageopacity="0.0" inkscape:pageshadow="2" inkscape:zoom="0.7" inkscape:cx="607.24261" inkscape:cy="61.723161" inkscape:document-units="px" inkscape:current-layer="layer1" showgrid="false" fit-margin-top="0" fit-margin-left="0" fit-margin-right="0" fit-margin-bottom="0" inkscape:window-width="1920" inkscape:window-height="1017" inkscape:window-x="-8" inkscape:window-y="-8" inkscape:window-maximized="1"/>
  <metadata id="metadata7">
    <rdf:RDF>
      <cc:Work rdf:about="">
        <dc:format>image/svg+xml</dc:format>
        <dc:type rdf:resource="http://purl.org/dc/dcmitype/StillImage"/>
        <dc:title/>
      </cc:Work>
    </rdf:RDF>
  </metadata>
  <g inkscape:label="Layer 1" inkscape:groupmode="layer" id="layer1" transform="translate(-249.62237,-24.25)">
    <g id="g3021" transform="matrix(1.25,0,0,-1.25,118.0875,788.61218)">
      <g id="g3023" clip-path="url(#clipPath3025)">
        <g id="g3029" transform="matrix(338.9013,0,0,337.4996,36.3501,36.1504)"/>
      </g>
    </g>
    <path inkscape:connector-curvature="0" d="m 423.96959,337.78944 c 0,0 1.68619,-10.11716 32.88537,-7.58787 8.43096,3.37239 24.52812,7.50955 35.02766,4.17863 -5.51928,7.62472 -14.79334,17.74649 -37.55695,11.00172 -22.76821,-6.74938 -21.08202,-8.43558 -30.35608,-7.59248" style="fill:#f68712;fill-opacity:1;fill-rule:nonzero;stroke:none" id="path3033"/>
    <path inkscape:connector-curvature="0" d="m 382.879,197.52674 c 0,0 14.9546,21.37688 45.30607,0.29928 8.43097,-4.21548 16.02344,-8.43557 23.61131,-8.43557 7.58787,0 -16.02344,-10.11716 -32.88537,-1.6862 -16.86193,8.43558 -30.12112,14.15297 -36.03201,9.82231" style="fill:#f14d3e;fill-opacity:1;fill-rule:nonzero;stroke:none" id="path3035"/>
    <path inkscape:connector-curvature="0" d="m 773.88689,253.47518 c 0,0 -26.13599,21.92051 -58.17827,-26.98369 -14.33264,-22.76361 -48.9042,-79.25568 -101.18079,-60.70756 9.27406,4.21548 37.94395,17.70503 7.58787,21.92051 -13.48955,-1.68619 -44.68873,-21.07741 -78.41259,-9.27406 -14.33724,6.74477 -27.82679,13.49415 -41.31633,5.90167 6.74477,7.59248 10.11716,11.80796 41.31633,18.55273 10.11716,4.21549 20.23432,27.82219 -16.02344,20.23432 -16.07872,-9.9467 -66.60923,-32.03767 -87.69125,-5.90168 15.18035,0 64.08455,5.90168 26.9837,23.60671 -16.86193,-3.37239 -37.10086,-10.11716 -37.10086,-10.11716 0,0 -41.31633,-12.64645 -59.02136,13.49415 -16.01883,5.05858 -32.04227,17.70503 -43.84563,14.33264 5.90168,5.90168 25.29751,16.86193 54.80588,1.68619 23.61131,-6.74477 44.68873,-10.96025 43.84563,15.17574 -5.05858,6.74477 -22.76361,17.70963 -35.41005,15.17574 5.05858,4.22009 19.39122,11.80796 52.27659,3.37699 17.70502,-4.22009 47.2134,-14.33725 44.68411,5.90168 -2.52929,5.90167 -11.80335,10.96025 -11.80335,10.96025 0,0 15.17574,7.58787 43.00253,-3.37238 21.92051,-4.21549 41.31634,-11.80336 43.00253,9.27406 -5.05858,5.90167 -31.19918,12.64644 -31.19918,12.64644 l 40.47324,9.27407 52.27659,-15.17574 c 0,0 27.8268,-6.74477 13.48955,17.70503 -10.11716,9.27866 -30.35148,16.86653 -30.35148,16.86653 0,0 29.50838,12.64645 54.80588,-6.74477 25.2929,-19.39583 44.68873,-25.2975 63.23685,-30.35608 17.70503,-6.74477 51.43349,-26.97909 49.7473,-67.45233" style="fill:#f14d3e;fill-opacity:1;fill-rule:nonzero;stroke:none" id="path3037"/>
    <path inkscape:connector-curvature="0" d="m 263.76743,275.39569 c 0,0 9.27406,-19.39122 42.15943,-6.74477 7.58787,4.21548 19.39122,13.48954 24.4498,11.80335 5.05858,-1.68619 -17.70503,12.65105 -43.00253,-0.8431 -9.27406,-4.21548 -20.23432,-5.05858 -23.6067,-4.21548" style="fill:#f14d3e;fill-opacity:1;fill-rule:nonzero;stroke:none" id="path3039"/>
    <path inkscape:connector-curvature="0" d="m 336.37048,276.62578 c -24.97962,28.19075 -57.25224,-12.20877 -78.86869,9.25564 0.41003,-18.02292 16.13401,-26.1406 31.74742,-24.54655 15.61342,1.59405 32.07914,17.89852 47.12127,15.29091 z m -68.71467,-2.10083 c 19.38661,-6.33013 36.25315,15.05135 58.62055,5.464 -16.31369,1.64013 -34.49786,-25.26986 -58.62055,-5.464" style="fill:#000000;fill-opacity:1;fill-rule:nonzero;stroke:none" id="path3041"/>
    <path inkscape:connector-curvature="0" d="m 462.22682,192.48659 c -18.1427,-3.43688 -31.88563,10.2093 -43.79956,14.86246 -11.91852,4.65315 -31.09782,4.78215 -41.45454,-14.15757 25.82731,12.47138 48.48035,-32.22656 85.2541,-0.70489 z m -79.34782,5.04015 c 24.81376,20.40018 49.13456,-11.97842 65.52196,-8.87324 -24.83219,-10.70687 -42.66621,16.23076 -65.52196,8.87324" style="fill:#000000;fill-opacity:1;fill-rule:nonzero;stroke:none" id="path3043"/>
    <path inkscape:connector-curvature="0" d="m 496.92278,329.05901 c -6.80928,20.4831 -25.70754,23.78178 -38.26184,21.3262 -12.55431,-2.45097 -28.50864,-13.42505 -45.74836,-6.80927 30.5588,-37.57539 60.82274,2.36343 84.0102,-14.51693 z m -71.09193,8.28354 c 15.57195,-5.97999 45.27843,21.53812 66.05177,-2.96235 -21.17416,11.3196 -43.52773,-12.00146 -66.05177,2.96235" style="fill:#000000;fill-opacity:1;fill-rule:nonzero;stroke:none" id="path3045"/>
    <path inkscape:connector-curvature="0" d="m 617.21837,371.28755 c -2.35422,5.0678 -10.70226,13.61394 -26.29724,14.96381 -21.42295,1.85666 -42.56486,-19.52021 -61.1222,-6.36238 21.57037,-45.68846 56.92975,7.68922 87.41944,-8.60143 z m -79.19118,1.97644 c 18.96736,-7.32066 46.33805,16.53483 68.64556,4.39055 -22.86496,5.18758 -49.59066,-23.69884 -68.64556,-4.39055" style="fill:#000000;fill-opacity:1;fill-rule:nonzero;stroke:none" id="path3047"/>
    <path inkscape:connector-curvature="0" d="m 603.47082,149.02796 c -4.75911,9.77163 -11.65592,16.69147 -23.72648,17.09229 -14.73807,0.48374 -32.73334,-15.71938 -45.98792,-2.70897 1.61708,-13.33751 15.40609,-18.08741 24.85983,-18.57576 15.85758,-0.81546 30.39294,11.09386 44.85457,4.19244 z m -58.45469,4.8743 c 10.67462,-2.58458 32.75177,13.05187 46.99688,3.14203 -12.40688,2.43715 -30.85365,-14.45243 -46.99688,-3.14203" style="fill:#000000;fill-opacity:1;fill-rule:nonzero;stroke:none" id="path3049"/>
    <path inkscape:connector-curvature="0" d="m 330.58398,259.16032 c 11.61446,7.83665 27.76229,7.07649 48.43428,-0.28564 20.6766,-7.35751 46.19524,-10.53179 49.98226,6.91985 3.79164,17.45163 -18.93511,26.51838 -36.82442,24.94736 9.02988,5.62064 24.9059,9.17271 52.63133,-0.85231 27.73005,-10.02962 42.00279,-5.68975 44.69333,3.6442 2.68593,9.32935 -5.27511,15.82534 -11.71121,16.69608 11.00172,3.35856 25.76743,0.78781 40.80495,-6.09517 15.03292,-6.88299 44.01148,-10.48573 45.21854,7.56483 1.02277,15.31856 -22.60236,14.18061 -30.3054,18.35923 15.1573,-1.76912 33.63632,12.55431 62.30621,-1.02277 13.97329,-6.61578 35.72334,-16.23998 43.32503,-6.4361 10.99711,14.18982 -7.65698,30.50351 -24.74926,34.81113 8.76728,2.99461 32.81626,0.87996 50.01451,-12.47598 31.2821,-24.28395 46.68359,-23.04464 68.82063,-33.64554 22.13704,-10.6009 32.06992,-21.45059 41.89222,-52.81562 -0.5206,12.99658 -0.72792,33.93578 -25.21457,52.45627 -24.48205,18.52048 -50.76086,12.57734 -78.57383,34.58999 -27.81758,22.01726 -56.39072,24.36226 -78.25134,11.73424 26.1406,-0.68645 49.78416,-19.87035 44.85919,-28.78967 -7.17784,-12.99659 -34.6545,9.41688 -57.70835,11.80796 -26.99291,2.7965 -43.57381,-14.34646 -67.91764,-2.49704 15.16191,-18.58959 48.65542,-11.31961 46.59145,-26.55063 -0.57128,-4.20166 -9.31092,-12.21799 -43.71202,-0.64039 -21.27091,7.15481 -41.40387,5.88786 -52.29042,-2.90246 7.90115,1.4973 23.82324,-0.94445 22.45954,-11.02475 -1.36369,-10.0803 -21.6533,-6.19193 -35.3133,-1.77373 -32.53524,10.51797 -57.58856,6.3716 -68.46589,-8.69357 21.03134,3.7087 43.4356,-5.59761 40.89249,-18.08281 -2.54772,-12.4898 -23.33028,-12.24102 -44.56434,-4.80519 -37.75966,13.22694 -53.37307,3.80546 -62.42139,-10.36594 41.57434,12.24103 50.1343,-25.92867 85.79314,-29.01081 23.30263,-2.0133 45.70228,12.35159 57.33977,13.5264 9.63802,0.9767 17.90313,0.23957 18.95816,-5.9846 1.05963,-6.22878 -17.18904,-17.44243 -44.36162,-10.34291 14.87167,-22.16468 42.9887,-23.86009 78.38494,-7.95183 21.45519,9.64263 34.09703,11.07544 37.42335,4.05885 8.28354,-17.47007 -45.00661,-9.49521 -53.90289,-38.70412 32.88997,12.65566 40.03556,-4.86048 70.54368,-6.8922 16.57629,-1.1011 30.31462,7.15019 40.99844,10.799 15.1481,5.16915 24.58341,4.65316 26.21892,-0.12899 1.63091,-4.78216 -9.16809,-14.34647 -30.97343,-12.53588 16.22155,-17.78335 55.83326,-16.75136 83.25003,11.15836 22.94788,23.36713 46.29659,72.77351 72.45101,74.59331 11.13072,0.77399 13.88115,-4.1602 17.2305,-10.31527 2.49704,15.62724 -12.2871,18.7923 -17.66357,18.35924 -12.30091,-0.99513 -22.72214,-5.51468 -58.45008,-58.23816 -26.93762,-39.74993 -59.93817,-43.97002 -79.47221,-39.42743 12.72477,1.32223 23.23353,9.91444 17.34106,18.56194 -11.42096,16.75597 -47.31476,-9.9513 -70.97214,-7.49573 -23.99369,2.48783 -39.54721,16.76058 -61.17748,8.66132 10.38898,14.94078 61.00702,9.89602 52.77416,33.15719 -3.76859,10.64237 -17.87088,9.52285 -29.56366,6.27946 -16.59011,-4.59326 -62.2279,-29.96909 -85.60885,-8.93775 21.87444,-4.1003 39.46429,2.26208 39.8605,13.61394 0.39621,11.35186 -12.84456,14.66435 -29.38399,10.43965 -16.53944,-4.22469 -44.75783,-21.09123 -72.02716,-1.27155 -13.49876,9.80848 -29.56827,21.68094 -49.91316,20.25274" style="fill:#000000;fill-opacity:1;fill-rule:nonzero;stroke:none" id="path3051"/>
    <path inkscape:connector-curvature="0" d="m 669.33371,221.28087 c 3.23878,4.98026 4.37673,13.37898 0.94906,17.54839 -7.9979,9.73938 -24.52812,4.17862 -31.0149,0.49296 -6.48677,-3.68106 -30.66015,-20.08229 -50.72861,-8.24208 18.79691,-2.26208 26.16364,12.13967 22.07255,19.81968 -13.48494,25.32054 -53.05058,-2.22522 -60.68913,-1.75991 1.91194,1.45124 5.7865,6.91524 2.56154,10.48573 -9.92366,11.00172 -33.07426,-12.62802 -53.1243,-2.78729 38.53366,-1.79215 60.09482,33.20787 91.79617,20.9346 16.17547,-6.26564 36.58486,-14.07925 44.11744,-0.55746 7.53719,13.52179 -7.21009,24.6433 -19.36358,25.43571 6.20575,3.72253 21.46441,4.79137 34.03254,-3.46913 29.79862,-19.58472 37.51088,1.19323 67.16669,-15.65027 -21.87444,23.77717 -37.67213,3.95749 -68.03743,19.75979 -17.36871,9.0391 -36.87511,9.84073 -50.0698,-5.48243 16.06491,4.95261 37.61685,-3.47374 34.19379,-14.89471 -3.119,-10.41201 -21.60723,-6.26103 -28.70675,-3.52442 -15.98658,6.15507 -29.77098,12.84456 -58.15062,-4.10491 -21.35845,-12.75241 -50.24487,-24.20562 -65.79378,-2.14229 11.38411,-31.76585 37.67674,-22.27987 47.52669,-19.0503 9.84534,3.22957 18.73701,5.73121 20.4877,1.78755 1.74609,-3.94367 -9.20495,-9.01607 -18.48362,-8.04397 12.13506,-9.34317 31.91327,1.23009 39.76375,5.16454 12.54048,6.28407 32.20352,6.19192 34.68213,-4.98026 2.47861,-11.17218 -16.53943,-16.86653 -26.52299,-12.66027 15.2771,-17.75109 36.79218,-14.67817 52.32266,-7.37133 15.53049,7.30683 28.95093,13.75675 35.32252,6.05371 6.367,-7.70766 -5.47782,-21.50127 -20.45545,-22.60697 32.63198,-3.28024 42.79982,21.28934 48.76138,31.6046 5.95696,10.31527 21.46441,32.16667 40.50089,19.03648 -4.08649,11.95999 -24.9013,18.54812 -40.92935,-9.56892 -8.60142,-15.0882 -14.31882,-25.72135 -24.18719,-31.22682" style="fill:#000000;fill-opacity:1;fill-rule:nonzero;stroke:none" id="path3053"/>
    <path inkscape:connector-curvature="0" d="m 729.19817,266.96473 c 0,0 -22.76361,11.80335 -40.47324,-25.2929 -5.90168,-12.65105 -12.64645,-19.39583 -27.82219,-26.1406 9.27407,15.17574 17.70503,20.23432 -4.21548,25.2929 -10.96025,-1.6862 -31.19918,-11.80335 -31.19918,-11.80335 0,0 -26.13599,-14.33265 -40.47324,2.52928 14.33725,2.52929 32.88537,5.90168 18.55273,25.29751 -6.74477,2.52929 -22.76821,5.05858 -43.84562,-5.90168 -10.11716,-4.21548 -16.01884,-4.21548 -16.01884,-4.21548 0,0 18.54813,16.01883 -5.90628,12.64645 -16.01883,-5.90168 -32.03767,-13.48955 -45.53182,1.68619 13.49415,-1.68619 29.51299,-3.37239 56.49668,13.48954 10.96026,5.90168 35.41006,16.01884 53.11969,2.52929 12.64645,-3.37238 32.88076,-11.80335 32.88076,12.64645 -3.37238,5.90628 -16.86193,12.65106 -23.6067,12.65106 9.27406,5.05858 21.07742,9.27406 43.00253,-2.52929 15.17574,-6.74478 18.54812,-6.74478 34.56696,-5.90168 17.70963,-3.37699 31.19918,-4.22009 40.47324,-26.98369" style="fill:#fdd605;fill-opacity:1;fill-rule:nonzero;stroke:none" id="path3055"/>
    <path inkscape:connector-curvature="0" d="m 669.33371,221.28087 c 3.23878,4.98026 4.37673,13.37898 0.94906,17.54839 -7.9979,9.73938 -24.52812,4.17862 -31.0149,0.49296 -6.48677,-3.68106 -30.66015,-20.08229 -50.72861,-8.24208 18.79691,-2.26208 26.16364,12.13967 22.07255,19.81968 -13.48494,25.32054 -53.05058,-2.22522 -60.68913,-1.75991 1.91194,1.45124 5.7865,6.91524 2.56154,10.48573 -9.92366,11.00172 -33.07426,-12.62802 -53.1243,-2.78729 38.53366,-1.79215 60.09482,33.20787 91.79617,20.9346 16.17547,-6.26564 36.58486,-14.07925 44.11744,-0.55746 7.53719,13.52179 -7.21009,24.6433 -19.36358,25.43571 6.20575,3.72253 21.46441,4.79137 34.03254,-3.46913 29.79862,-19.58472 37.51088,1.19323 67.16669,-15.65027 -21.87444,23.77717 -37.67213,3.95749 -68.03743,19.75979 -17.36871,9.0391 -36.87511,9.84073 -50.0698,-5.48243 16.06491,4.95261 37.61685,-3.47374 34.19379,-14.89471 -3.119,-10.41201 -21.60723,-6.26103 -28.70675,-3.52442 -15.98658,6.15507 -29.77098,12.84456 -58.15062,-4.10491 -21.35845,-12.75241 -50.24487,-24.20562 -65.79378,-2.14229 11.38411,-31.76585 37.67674,-22.27987 47.52669,-19.0503 9.84534,3.22957 18.73701,5.73121 20.4877,1.78755 1.74609,-3.94367 -9.20495,-9.01607 -18.48362,-8.04397 12.13506,-9.34317 31.91327,1.23009 39.76375,5.16454 12.54048,6.28407 32.20352,6.19192 34.68213,-4.98026 2.47861,-11.17218 -16.53943,-16.86653 -26.52299,-12.66027 15.2771,-17.75109 36.79218,-14.67817 52.32266,-7.37133 15.53049,7.30683 28.95093,13.75675 35.32252,6.05371 6.367,-7.70766 -5.47782,-21.50127 -20.45545,-22.60697 32.63198,-3.28024 42.79982,21.28934 48.76138,31.6046 5.95696,10.31527 21.46441,32.16667 40.50089,19.03648 -4.08649,11.95999 -24.9013,18.54812 -40.92935,-9.56892 -8.60142,-15.0882 -14.31882,-25.72135 -24.18719,-31.22682" style="fill:#000000;fill-opacity:1;fill-rule:nonzero;stroke:none" id="path3057"/>
    <path inkscape:connector-curvature="0" d="m 538.02719,373.26399 c 0,0 8.20521,-15.23563 34.34121,-5.96157 10.11715,5.05858 30.35608,12.64645 37.10085,9.27407 -10.11716,5.90167 -27.82679,9.27406 -43.00253,2.52929 -15.17574,-6.74478 -21.46441,-7.46809 -28.43953,-5.84179" style="fill:#f68712;fill-opacity:1;fill-rule:nonzero;stroke:none" id="path3059"/>
    <path inkscape:connector-curvature="0" d="m 542.86002,153.98058 c 0,0 8.17757,-9.80849 28.66528,-3.37239 9.27406,2.52929 15.27249,10.00659 23.61131,4.21548 -1.6908,4.21549 -9.27867,11.80336 -27.82679,5.90168 -18.54813,-5.90168 -14.33264,-10.96025 -24.4498,-6.74477" style="fill:#f68712;fill-opacity:1;fill-rule:nonzero;stroke:none" id="path3061"/>
    <path inkscape:connector-curvature="0" d="m 541.34889,66.404504 -31.36503,0 c -6.47295,0 -10.52258,3.441492 -12.13967,7.486513 l -17.00014,42.698463 c -0.60353,1.41437 -0.80624,2.63064 -0.80624,3.84231 0,4.25234 3.23417,6.68027 7.08109,6.68027 4.65315,0 9.91445,-3.03607 12.7478,-10.32448 l 12.74781,-33.792964 21.65329,0 -40.87866,102.392464 -72.23909,0 c -5.66671,0 -9.71173,-3.4415 -9.71173,-8.90089 0,-1.41898 0.40542,-3.23878 1.21627,-5.26129 l 49.77494,-124.852001 86.60859,0 -7.68923,20.031605 z" style="fill:#000000;fill-opacity:1;fill-rule:nonzero;stroke:#000000;stroke-width:43.84562683;stroke-linecap:butt;stroke-linejoin:miter;stroke-miterlimit:4;stroke-opacity:1;stroke-dasharray:none" id="path3063"/>
    <path inkscape:connector-curvature="0" d="m 652.01568,56.287346 -12.74781,31.973168 c -5.06318,12.747806 -13.76136,16.995536 -25.09479,20.837846 -5.66671,2.02712 -9.30631,7.08569 -9.30631,11.13072 0,3.44149 2.42794,6.27484 8.50007,6.27484 l 20.43703,0.20272 -23.4731,58.68044 -19.8335,0 c -6.27024,0 -11.73424,-4.45045 -11.53153,-12.13967 l 0,-0.20271 -2.63064,-33.18484 -17.80639,45.52722 -33.59025,0 c -5.86943,0 -9.91906,-3.03607 -9.91906,-8.29736 0,-1.61709 0.40543,-3.6396 1.21627,-5.66211 l 50.78851,-125.257423 78.31122,0 c 5.46401,0 7.48652,2.427934 7.48652,5.662108 0,1.418982 -0.20271,2.833357 -0.80624,4.455051 z m -37.03175,9.914446 c -4.45044,0 -9.30631,2.833357 -12.13967,9.509023 l -3.23878,7.891936 c -0.60813,1.418982 -0.81085,2.833357 -0.81085,3.846916 0,4.04502 3.03607,6.270242 6.88299,6.270242 4.65315,0 10.11716,-3.031461 12.95051,-9.914446 l 3.03147,-7.283801 c 0.40542,-1.414375 0.81084,-2.630645 0.81084,-3.644204 0,-4.045021 -3.44149,-6.675666 -7.48651,-6.675666 z" style="fill:#000000;fill-opacity:1;fill-rule:nonzero;stroke:#000000;stroke-width:43.84562683;stroke-linecap:butt;stroke-linejoin:miter;stroke-miterlimit:4;stroke-opacity:1;stroke-dasharray:none" id="path3065"/>
    <path inkscape:connector-curvature="0" d="m 766.37734,56.490057 -51.80206,129.099733 -20.84245,0 22.05872,-55.24356 c 0.40543,-1.21166 0.60814,-2.42793 0.60814,-3.43688 0,-4.25234 -3.4415,-6.88299 -7.49112,-6.88299 -4.24774,0 -9.30631,2.83336 -11.93696,9.51363 l -22.26143,56.0498 -32.17128,0 c -6.07213,0 -9.91444,-3.84231 -9.91444,-9.30631 0,-1.6217 0.40542,-3.4415 1.21166,-5.46401 l 49.98226,-124.446571 75.8833,0 c 5.464,0 7.68922,2.427934 7.68922,5.864819 0,1.21627 -0.40542,2.630645 -1.01356,4.252339 z m -36.2209,9.711735 c -4.24773,0 -9.1036,2.833357 -11.73424,9.509023 l -3.23878,8.094648 c -0.40543,1.418982 -0.60814,2.630645 -0.60814,3.846916 0,4.04502 3.03607,6.472954 7.08109,6.472954 4.45505,0 9.91905,-3.238781 12.5497,-10.117158 l 2.83336,-7.283801 c 0.60352,-1.418982 0.80624,-2.427934 0.80624,-3.644204 0,-4.247733 -3.43689,-6.878378 -7.68923,-6.878378 z" style="fill:#000000;fill-opacity:1;fill-rule:nonzero;stroke:#000000;stroke-width:43.84562683;stroke-linecap:butt;stroke-linejoin:miter;stroke-miterlimit:4;stroke-opacity:1;stroke-dasharray:none" id="path3067"/>
    <path inkscape:connector-curvature="0" d="m 868.79284,60.535078 -49.77955,125.054712 -21.04517,0 43.30199,-108.257281 c 0.60814,-1.418982 0.81085,-2.833357 0.81085,-4.049628 0,-4.247732 -3.03607,-6.675666 -7.08109,-6.675666 -4.45505,0 -9.91445,3.238781 -12.7478,10.31987 l -42.49575,108.662705 -47.14891,0 55.44627,-139.216891 72.23909,0 c 5.66671,0 9.50902,3.436885 9.50902,8.900888 0,1.621694 -0.20271,3.441492 -1.00895,5.261291 z" style="fill:#000000;fill-opacity:1;fill-rule:nonzero;stroke:#000000;stroke-width:43.84562683;stroke-linecap:butt;stroke-linejoin:miter;stroke-miterlimit:4;stroke-opacity:1;stroke-dasharray:none" id="path3069"/>
    <path inkscape:connector-curvature="0" d="M 970.45738,68.021591 929.78603,168.79696 c -4.65315,11.53154 -19.02265,16.79283 -29.74794,16.79283 l -63.3336,0 55.84708,-139.014179 61.72112,0 c 13.35133,0 18.00909,6.270242 18.00909,13.351332 0,2.630645 -0.60813,5.464002 -1.8244,8.094648 z m -31.76585,-1.414376 -7.89194,0 -23.87852,60.099425 9.91445,0 c 4.45044,0 10.31987,-2.83336 13.15322,-9.91906 l 15.78388,-39.657783 c 0.40542,-1.418982 0.60813,-2.630645 0.60813,-3.644204 0,-4.247732 -3.6442,-6.878378 -7.68922,-6.878378 z" style="fill:#000000;fill-opacity:1;fill-rule:nonzero;stroke:#000000;stroke-width:43.84562683;stroke-linecap:butt;stroke-linejoin:miter;stroke-miterlimit:4;stroke-opacity:1;stroke-dasharray:none" id="path3071"/>
    <path inkscape:connector-curvature="0" d="m 802.96681,223.79634 -18.61723,0 c -5.05858,0 -8.29736,2.83336 -9.50902,5.86943 l -17.40557,43.5047 c -0.60813,1.21627 -0.80624,2.42793 -0.80624,3.6442 0,4.24773 3.23417,7.08109 7.89194,7.08109 l 6.06753,0 c 3.6442,0 6.07214,2.02251 6.07214,4.85587 0,0.81085 0,1.41437 -0.40543,2.22522 l -20.43703,51.80206 -48.36517,0 c -4.65316,0 -7.89194,-3.03607 -7.89194,-7.2838 0,-1.01356 0.20271,-2.42793 0.81085,-3.6442 l 39.66239,-99.14907 c 0.40543,-1.01356 0.60814,-2.02712 0.60814,-3.03607 0,-3.84692 -3.64421,-5.86943 -7.68923,-5.86943 l -16.39201,0 8.09465,-20.0316 86.40588,0 -8.09465,20.0316 z" style="fill:#000000;fill-opacity:1;fill-rule:nonzero;stroke:#000000;stroke-width:43.84562683;stroke-linecap:butt;stroke-linejoin:miter;stroke-miterlimit:4;stroke-opacity:1;stroke-dasharray:none" id="path3073"/>
    <path inkscape:connector-curvature="0" d="m 860.32962,342.5762 -20.84245,0 26.10374,-65.96424 c 0.60353,-1.41898 0.80624,-2.63064 0.80624,-3.6442 0,-4.24774 -3.43688,-6.67567 -7.48651,-6.67567 -4.24773,0 -9.30631,2.63065 -11.93696,9.30631 l -26.50916,66.9778 -32.37859,0 c -5.86482,0 -9.91445,-3.6396 -9.91445,-9.1036 0,-1.8198 0.40542,-3.6442 1.21627,-5.464 l 49.98226,-124.64929 46.33806,0 -10.928,27.72083 c -0.60814,1.41898 -0.81085,2.63065 -0.81085,3.84692 0,4.04502 3.03607,6.27024 6.88298,6.27024 4.65316,0 10.11716,-3.03607 12.95052,-10.11716 l 10.9234,-27.72083 21.45058,0 -55.84708,139.21689 z" style="fill:#000000;fill-opacity:1;fill-rule:nonzero;stroke:#000000;stroke-width:43.84562683;stroke-linecap:butt;stroke-linejoin:miter;stroke-miterlimit:4;stroke-opacity:1;stroke-dasharray:none" id="path3075"/>
    <path inkscape:connector-curvature="0" d="m 1011.9073,223.39092 -43.30197,0 c -8.29736,0 -12.7478,5.86942 -12.7478,10.72529 0,3.6442 2.22522,6.67567 7.2838,6.67567 l 42.29307,0 -10.92804,26.10374 -43.30199,0 c -8.29736,0 -12.95052,5.86943 -12.95052,10.72529 0,3.64421 2.42794,6.68028 7.48652,6.68028 l 41.07677,0 -23.06768,58.27501 -71.63556,0 c -5.86482,0 -9.91445,-3.03607 -9.91445,-8.29275 0,-1.82441 0.40543,-3.64421 1.21627,-5.66672 l 50.78851,-125.05471 85.79777,0 -8.0947,19.8289 z" style="fill:#000000;fill-opacity:1;fill-rule:nonzero;stroke:#000000;stroke-width:43.84562683;stroke-linecap:butt;stroke-linejoin:miter;stroke-miterlimit:4;stroke-opacity:1;stroke-dasharray:none" id="path3077"/>
    <path inkscape:connector-curvature="0" d="m 1118.1375,217.7242 -12.7478,32.17588 -20.8425,0 6.2703,-15.37845 c 0.6081,-1.41898 0.8108,-2.83335 0.8108,-4.04962 0,-4.24774 -3.2388,-6.67567 -7.2838,-6.67567 -4.455,0 -9.7163,3.23878 -12.5451,10.31987 l -12.7524,32.5767 19.4281,0 -11.1307,26.10374 -18.6173,0 -19.4234,49.98226 -47.35165,0 55.64895,-139.21689 72.0364,0 c 5.6667,0 9.7117,3.43689 9.7117,8.90089 0,1.6217 -0.4054,3.44149 -1.2116,5.26129 z" style="fill:#000000;fill-opacity:1;fill-rule:nonzero;stroke:#000000;stroke-width:43.84562683;stroke-linecap:butt;stroke-linejoin:miter;stroke-miterlimit:4;stroke-opacity:1;stroke-dasharray:none" id="path3079"/>
    <path inkscape:connector-curvature="0" d="m 1210.6523,223.79634 -18.6172,0 c -5.0586,0 -8.2973,2.83336 -9.509,5.86943 l -17.401,43.5047 c -0.6081,1.21627 -0.8108,2.42793 -0.8108,3.6442 0,4.24773 3.2388,7.08109 7.8919,7.08109 l 6.0722,0 c 3.6396,0 6.0675,2.02251 6.0675,4.85587 0,0.81085 0,1.41437 -0.4054,2.22522 l -20.4371,51.80206 -48.3605,0 c -4.6532,0 -7.892,-3.03607 -7.892,-7.2838 0,-1.01356 0.2027,-2.42793 0.8109,-3.6442 l 39.6578,-99.14907 c 0.4054,-1.01356 0.6081,-2.02712 0.6081,-3.03607 0,-3.84692 -3.6442,-5.86943 -7.6892,-5.86943 l -16.392,0 8.0946,-20.0316 86.4059,0 -8.0947,20.0316 z" style="fill:#000000;fill-opacity:1;fill-rule:nonzero;stroke:#000000;stroke-width:43.84562683;stroke-linecap:butt;stroke-linejoin:miter;stroke-miterlimit:4;stroke-opacity:1;stroke-dasharray:none" id="path3081"/>
    <path inkscape:connector-curvature="0" d="m 640.88957,368.82276 -51.80206,129.09973 -20.84246,0 22.05873,-55.24355 c 0.40542,-1.21166 0.60813,-2.42793 0.60813,-3.43689 0,-4.25234 -3.44149,-6.87837 -7.48651,-6.87837 -4.25234,0 -9.31092,2.82875 -11.94156,9.50902 l -22.25683,56.04979 -32.17588,0 c -6.07214,0 -9.91445,-3.84231 -9.91445,-9.30631 0,-1.62169 0.40543,-3.44149 1.21167,-5.464 l 49.98226,-124.44658 75.88329,0 c 5.464,0 7.68923,2.42794 7.68923,5.86943 0,1.21166 -0.40543,2.63065 -1.01356,4.24773 z m -36.2209,9.71174 c -4.24774,0 -9.1036,2.83335 -11.73425,9.51363 l -3.23878,8.09004 c -0.40542,1.41898 -0.60813,2.63064 -0.60813,3.84691 0,4.04502 3.03607,6.47296 7.08569,6.47296 4.45045,0 9.91445,-3.23418 12.54509,-10.11716 l 2.83336,-7.2838 c 0.60353,-1.41438 0.80624,-2.42793 0.80624,-3.6396 0,-4.25234 -3.43688,-6.88298 -7.68922,-6.88298 z" style="fill:#000000;fill-opacity:1;fill-rule:nonzero;stroke:#000000;stroke-width:43.84562683;stroke-linecap:butt;stroke-linejoin:miter;stroke-miterlimit:4;stroke-opacity:1;stroke-dasharray:none" id="path3083"/>
    <path inkscape:connector-curvature="0" d="m 693.3228,497.71978 -72.23909,0 c -5.66671,0 -9.71173,-3.43688 -9.71173,-8.69818 0,-1.62169 0.40081,-3.44149 1.21166,-5.26129 l 49.77955,-125.05471 46.74348,0 -28.32896,70.21658 c -0.60814,1.41438 -1.01356,2.83336 -1.01356,4.04502 0,4.04963 3.23878,6.47757 7.28841,6.47757 4.45044,0 9.91444,-3.03607 12.7478,-10.31987 l 27.31541,-70.4193 21.65329,0 -55.44626,139.01418 z" style="fill:#000000;fill-opacity:1;fill-rule:nonzero;stroke:#000000;stroke-width:43.84562683;stroke-linecap:butt;stroke-linejoin:miter;stroke-miterlimit:4;stroke-opacity:1;stroke-dasharray:none" id="path3085"/>
    <path inkscape:connector-curvature="0" d="m 835.6679,378.93992 -18.61723,0 c -5.05858,0 -8.29736,2.83336 -9.50902,5.86943 l -17.40096,43.5047 c -0.60814,1.21627 -0.81085,2.42793 -0.81085,3.6442 0,4.24773 3.23878,7.08109 7.89194,7.08109 l 6.07213,0 c 3.6396,0 6.06753,2.02251 6.06753,4.85587 0,0.81085 0,1.41898 -0.40542,2.22522 l -20.43703,51.80206 -48.36057,0 c -4.65315,0 -7.89193,-3.03607 -7.89193,-7.2838 0,-1.01356 0.20271,-2.42793 0.81084,-3.6442 l 39.65779,-99.14907 c 0.40542,-1.01356 0.60813,-2.02712 0.60813,-3.03607 0,-3.84692 -3.6442,-5.86943 -7.68922,-5.86943 l -16.39201,0 8.09465,-20.0316 86.40588,0 -8.09465,20.0316 z" style="fill:#000000;fill-opacity:1;fill-rule:nonzero;stroke:#000000;stroke-width:43.84562683;stroke-linecap:butt;stroke-linejoin:miter;stroke-miterlimit:4;stroke-opacity:1;stroke-dasharray:none" id="path3087"/>
    <path inkscape:connector-curvature="0" d="m 944.42735,368.82276 -51.59935,128.89702 -72.03638,0 c -6.07214,0 -9.91445,-3.6396 -9.91445,-9.1036 0,-1.62169 0.40543,-3.44149 1.21167,-5.464 l 49.98226,-124.44658 75.88329,0 c 5.26129,0 7.48652,2.42794 7.48652,5.66672 0,1.41437 -0.40543,2.83336 -1.01356,4.45044 z m -36.01819,9.91445 c -4.24773,0 -9.30631,2.83336 -11.93696,9.51363 l -16.18929,40.26592 c -0.60814,1.61709 -0.81085,2.83336 -0.81085,4.04502 0,4.04963 3.23878,6.27485 7.0857,6.27485 4.45044,0 10.11715,-3.03607 12.7478,-9.91445 l 15.98198,-39.8651 c 0.40542,-1.41438 0.60813,-2.42793 0.60813,-3.6396 0,-4.04963 -3.43688,-6.68027 -7.48651,-6.68027 z" style="fill:#000000;fill-opacity:1;fill-rule:nonzero;stroke:#000000;stroke-width:43.84562683;stroke-linecap:butt;stroke-linejoin:miter;stroke-miterlimit:4;stroke-opacity:1;stroke-dasharray:none" id="path3089"/>
    <path inkscape:connector-curvature="0" d="m 1042.0883,119.97569 27.8729,0 -26.4216,14.66435 2.4141,23.26577 -18.479,-14.32803 -26.2328,14.32803 15.102,-23.26577 -18.67708,-14.66435 27.77608,0 14.5538,-22.676076 2.0916,22.676076 z" style="fill:#000000;fill-opacity:1;fill-rule:nonzero;stroke:#000000;stroke-width:15.17573643;stroke-linecap:butt;stroke-linejoin:round;stroke-miterlimit:4;stroke-opacity:1;stroke-dasharray:none" id="path3611"/>
    <path inkscape:connector-curvature="0" d="m 1039.7571,115.41467 27.8729,0 -26.4216,14.66896 2.4141,23.26578 -18.479,-14.33264 -26.23277,14.33264 15.10207,-23.26578 -18.67717,-14.66896 27.77607,0 14.5538,-22.67607 2.0916,22.67607" style="fill:#ffffff;fill-opacity:1;fill-rule:nonzero;stroke:none" id="path3613"/>
    <path inkscape:connector-curvature="0" d="m 1128.1302,119.97569 27.8729,0 -26.4216,14.66435 2.4187,23.26577 -18.479,-14.32803 -26.2374,14.32803 15.1021,-23.26577 -18.6772,-14.66435 27.7761,0 14.5538,-22.676076 2.0916,22.676076 z" style="fill:#000000;fill-opacity:1;fill-rule:nonzero;stroke:#000000;stroke-width:15.17573643;stroke-linecap:butt;stroke-linejoin:round;stroke-miterlimit:4;stroke-opacity:1;stroke-dasharray:none" id="path3615"/>
    <path inkscape:connector-curvature="0" d="m 1125.7991,115.41467 27.8728,0 -26.4216,14.66896 2.4141,23.26578 -18.4744,-14.33264 -26.2374,14.33264 15.1021,-23.26578 -18.6771,-14.66896 27.7761,0 14.5584,-22.67607 2.087,22.67607" style="fill:#ffffff;fill-opacity:1;fill-rule:nonzero;stroke:none" id="path3617"/>
    <path inkscape:connector-curvature="0" d="m 1214.1768,119.97569 27.8728,0 -26.4216,14.66435 2.4141,23.26577 -18.479,-14.32803 -26.2327,14.32803 15.102,-23.26577 -18.6817,-14.66435 27.7761,0 14.5584,-22.676076 2.0916,22.676076 z" style="fill:#000000;fill-opacity:1;fill-rule:nonzero;stroke:#000000;stroke-width:15.17573643;stroke-linecap:butt;stroke-linejoin:round;stroke-miterlimit:4;stroke-opacity:1;stroke-dasharray:none" id="path3619"/>
    <path inkscape:connector-curvature="0" d="m 1211.8456,115.41467 27.8682,0 -26.4216,14.66896 2.4187,23.26578 -18.479,-14.33264 -26.2327,14.33264 15.0974,-23.26578 -18.6771,-14.66896 27.7761,0 14.5584,-22.67607 2.0916,22.67607" style="fill:#ffffff;fill-opacity:1;fill-rule:nonzero;stroke:none" id="path3621"/>
    <path inkscape:connector-curvature="0" d="m 383.73592,396.18885 27.87286,0 -26.42163,14.66435 2.41872,23.26578 -18.47902,-14.32804 -26.23735,14.32804 15.10203,-23.26578 -18.67713,-14.66435 27.77612,0 14.55378,-22.67607 2.09162,22.67607 z" style="fill:#000000;fill-opacity:1;fill-rule:nonzero;stroke:#000000;stroke-width:15.17573643;stroke-linecap:butt;stroke-linejoin:round;stroke-miterlimit:4;stroke-opacity:1;stroke-dasharray:none" id="path3623"/>
    <path inkscape:connector-curvature="0" d="m 381.40473,391.62783 27.87286,0 -26.42163,14.66896 2.41872,23.26117 -18.48362,-14.32803 -26.23274,14.32803 15.10202,-23.26117 -18.67712,-14.66896 27.77611,0 14.55379,-22.67607 2.09161,22.67607" style="fill:#ffffff;fill-opacity:1;fill-rule:nonzero;stroke:none" id="path3625"/>
    <path inkscape:connector-curvature="0" d="m 301.64688,396.18885 27.87286,0 -26.42163,14.66435 2.41411,23.26578 -18.47901,-14.32804 -26.23274,14.32804 15.10202,-23.26578 -18.67712,-14.66435 27.77611,0 14.55378,-22.67607 2.09162,22.67607 z" style="fill:#000000;fill-opacity:1;fill-rule:nonzero;stroke:#000000;stroke-width:15.17573643;stroke-linecap:butt;stroke-linejoin:round;stroke-miterlimit:4;stroke-opacity:1;stroke-dasharray:none" id="path3627"/>
    <path inkscape:connector-curvature="0" d="m 299.31569,391.62783 27.87287,0 -26.42163,14.66896 2.41411,23.26117 -18.47902,-14.32803 -26.23274,14.32803 15.10203,-23.26117 -18.68173,-14.66896 27.78072,0 14.55378,-22.67607 2.09161,22.67607" style="fill:#ffffff;fill-opacity:1;fill-rule:nonzero;stroke:none" id="path3629"/>
    <path inkscape:connector-curvature="0" d="m 469.78244,396.18885 27.86825,0 -26.42163,14.66435 2.41872,23.26578 -18.47901,-14.32804 -26.23274,14.32804 15.10202,-23.26578 -18.68173,-14.66435 27.77611,0 14.55839,-22.67607 2.09162,22.67607 z" style="fill:#000000;fill-opacity:1;fill-rule:nonzero;stroke:#000000;stroke-width:15.17573643;stroke-linecap:butt;stroke-linejoin:round;stroke-miterlimit:4;stroke-opacity:1;stroke-dasharray:none" id="path3631"/>
    <path inkscape:connector-curvature="0" d="m 467.44665,391.62783 27.87286,0 -26.41702,14.66896 2.41411,23.26117 -18.47902,-14.32803 -26.23274,14.32803 15.10202,-23.26117 -18.68172,-14.66896 27.77611,0 14.55839,-22.67607 2.08701,22.67607" style="fill:#ffffff;fill-opacity:1;fill-rule:nonzero;stroke:none" id="path3633"/>
    <path id="path4452" style="fill:url(#linearGradient5372);fill-opacity:1;fill-rule:nonzero;stroke:none" d="m 632.23009,353.28767 -51.80206,129.09973 -20.84245,0 22.05872,-55.24355 c 0.40542,-1.21166 0.60814,-2.42793 0.60814,-3.43689 0,-4.25234 -3.4415,-6.87837 -7.48652,-6.87837 -4.25234,0 -9.31092,2.82875 -11.94156,9.50902 l -22.25683,56.04979 -32.17588,0 c -6.07214,0 -9.91444,-3.84231 -9.91444,-9.30631 0,-1.62169 0.40542,-3.44149 1.21166,-5.464 l 49.98226,-124.44658 75.8833,0 c 5.464,0 7.68922,2.42794 7.68922,5.86943 0,1.21166 -0.40542,2.63065 -1.01356,4.24773 z m -36.2209,9.71174 c -4.24773,0 -9.1036,2.83335 -11.73424,9.51363 l -3.23879,8.09004 c -0.40542,1.41898 -0.60813,2.63064 -0.60813,3.84691 0,4.04502 3.03607,6.47296 7.0857,6.47296 4.45044,0 9.91444,-3.23418 12.54509,-10.11716 l 2.83336,-7.2838 c 0.60352,-1.41438 0.80623,-2.42793 0.80623,-3.6396 0,-4.25234 -3.43688,-6.88298 -7.68922,-6.88298 z" inkscape:connector-curvature="0"/>
    <path id="path4454" style="fill:url(#linearGradient5370);fill-opacity:1;fill-rule:nonzero;stroke:none" d="m 684.66332,482.18469 -72.23909,0 c -5.66671,0 -9.71173,-3.43688 -9.71173,-8.69818 0,-1.62169 0.40082,-3.44149 1.21166,-5.26129 l 49.77955,-125.05471 46.74349,0 -28.32897,70.21658 c -0.60813,1.41438 -1.01356,2.83336 -1.01356,4.04502 0,4.04963 3.23878,6.47757 7.28841,6.47757 4.45044,0 9.91445,-3.03607 12.7478,-10.31987 l 27.31541,-70.4193 21.6533,0 -55.44627,139.01418 z" inkscape:connector-curvature="0"/>
    <path id="path4456" style="fill:url(#linearGradient5368);fill-opacity:1;fill-rule:nonzero;stroke:none" d="m 827.00842,363.40483 -18.61723,0 c -5.05858,0 -8.29736,2.83336 -9.50902,5.86943 l -17.40096,43.5047 c -0.60814,1.21627 -0.81085,2.42793 -0.81085,3.6442 0,4.24773 3.23878,7.08109 7.89194,7.08109 l 6.07214,0 c 3.63959,0 6.06753,2.02251 6.06753,4.85587 0,0.81085 0,1.41898 -0.40543,2.22522 l -20.43702,51.80206 -48.36057,0 c -4.65316,0 -7.89194,-3.03607 -7.89194,-7.2838 0,-1.01356 0.20271,-2.42793 0.81085,-3.6442 l 39.65778,-99.14907 c 0.40543,-1.01356 0.60814,-2.02712 0.60814,-3.03607 0,-3.84692 -3.64421,-5.86943 -7.68923,-5.86943 l -16.392,0 8.09464,-20.0316 86.40588,0 -8.09465,20.0316 z" inkscape:connector-curvature="0"/>
    <path id="path4458" style="fill:url(#linearGradient5366);fill-opacity:1;fill-rule:nonzero;stroke:none" d="m 935.76787,353.28767 -51.59935,128.89702 -72.03638,0 c -6.07213,0 -9.91444,-3.6396 -9.91444,-9.1036 0,-1.62169 0.40542,-3.44149 1.21166,-5.464 l 49.98226,-124.44658 75.8833,0 c 5.26129,0 7.48651,2.42794 7.48651,5.66672 0,1.41437 -0.40542,2.83336 -1.01356,4.45044 z m -36.01819,9.91445 c -4.24773,0 -9.30631,2.83336 -11.93695,9.51363 l -16.1893,40.26592 c -0.60814,1.61709 -0.81085,2.83336 -0.81085,4.04502 0,4.04963 3.23878,6.27485 7.0857,6.27485 4.45044,0 10.11716,-3.03607 12.7478,-9.91445 l 15.98198,-39.8651 c 0.40542,-1.41438 0.60814,-2.42793 0.60814,-3.6396 0,-4.04963 -3.43689,-6.68027 -7.48652,-6.68027 z" inkscape:connector-curvature="0"/>
    <path id="path5236" style="fill:url(#linearGradient5392);fill-opacity:1;fill-rule:nonzero;stroke:none" d="m 532.68942,50.867571 -31.36504,0 c -6.47295,0 -10.52258,3.441492 -12.13966,7.486513 l -17.00015,42.698466 c -0.60353,1.41437 -0.80624,2.63064 -0.80624,3.8423 0,4.25234 3.23418,6.68028 7.08109,6.68028 4.65316,0 9.91445,-3.03607 12.74781,-10.32448 l 12.7478,-33.792967 21.6533,0 -40.87867,102.392457 -72.23908,0 c -5.66672,0 -9.71174,-3.44149 -9.71174,-8.90089 0,-1.41898 0.40542,-3.23878 1.21627,-5.26129 l 49.77494,-124.851994 86.60859,0 -7.68922,20.031605 z" inkscape:connector-curvature="0"/>
    <path id="path5238" style="fill:url(#linearGradient5390);fill-opacity:1;fill-rule:nonzero;stroke:none" d="m 643.3562,40.750413 -12.7478,31.973168 c -5.06319,12.747804 -13.76137,16.995536 -25.09479,20.837845 -5.66672,2.027117 -9.30631,7.085694 -9.30631,11.130714 0,3.44149 2.42793,6.27485 8.50007,6.27485 l 20.43702,0.20271 -23.47309,58.68044 -19.8335,0 c -6.27024,0 -11.73425,-4.45044 -11.53154,-12.13967 l 0,-0.20271 -2.63064,-33.18483 -17.80638,45.52721 -33.59026,0 c -5.86942,0 -9.91905,-3.03607 -9.91905,-8.29736 0,-1.61708 0.40542,-3.63959 1.21627,-5.6621 l 50.7885,-125.257425 78.31123,0 c 5.464,0 7.48651,2.427933 7.48651,5.662107 0,1.418982 -0.20271,2.833357 -0.80624,4.455051 z m -37.03175,9.914446 c -4.45044,0 -9.30631,2.833357 -12.13967,9.509023 l -3.23878,7.891937 c -0.60813,1.418982 -0.81084,2.833357 -0.81084,3.846915 0,4.045021 3.03607,6.270243 6.88298,6.270243 4.65316,0 10.11716,-3.031462 12.95052,-9.914447 l 3.03146,-7.283801 c 0.40542,-1.414375 0.81085,-2.630645 0.81085,-3.644204 0,-4.04502 -3.4415,-6.675666 -7.48652,-6.675666 z" inkscape:connector-curvature="0"/>
    <path id="path5240" style="fill:url(#linearGradient5388);fill-opacity:1;fill-rule:nonzero;stroke:none" d="m 757.71787,40.953125 -51.80207,129.099725 -20.84245,0 22.05873,-55.24355 c 0.40542,-1.21166 0.60813,-2.42793 0.60813,-3.43688 0,-4.25234 -3.44149,-6.88299 -7.49112,-6.88299 -4.24773,0 -9.30631,2.83336 -11.93696,9.51363 l -22.26143,56.04979 -32.17127,0 c -6.07214,0 -9.91445,-3.8423 -9.91445,-9.30631 0,-1.62169 0.40542,-3.44149 1.21166,-5.464 l 49.98227,-124.446574 75.88329,0 c 5.464,0 7.68922,2.427934 7.68922,5.864819 0,1.216271 -0.40542,2.630646 -1.01355,4.25234 z m -36.2209,9.711734 c -4.24774,0 -9.1036,2.833357 -11.73425,9.509023 l -3.23878,8.094648 c -0.40542,1.418982 -0.60814,2.630646 -0.60814,3.846916 0,4.04502 3.03607,6.472954 7.08109,6.472954 4.45506,0 9.91906,-3.23878 12.5497,-10.117158 l 2.83336,-7.283801 c 0.60353,-1.418982 0.80624,-2.427934 0.80624,-3.644204 0,-4.247732 -3.43689,-6.878378 -7.68922,-6.878378 z" inkscape:connector-curvature="0"/>
    <path id="path5242" style="fill:url(#linearGradient5386);fill-opacity:1;fill-rule:nonzero;stroke:none" d="m 860.13336,44.998145 -49.77955,125.054705 -21.04516,0 43.30199,-108.257274 c 0.60813,-1.418982 0.81084,-2.833357 0.81084,-4.049627 0,-4.247733 -3.03607,-6.675666 -7.08109,-6.675666 -4.45505,0 -9.91444,3.23878 -12.7478,10.31987 l -42.49575,108.662697 -47.14891,0 55.44627,-139.216884 72.23909,0 c 5.66671,0 9.50902,3.436886 9.50902,8.900888 0,1.621694 -0.20271,3.441493 -1.00895,5.261291 z" inkscape:connector-curvature="0"/>
    <path id="path5244" style="fill:url(#linearGradient5384);fill-opacity:1;fill-rule:nonzero;stroke:none" d="M 961.7979,52.484658 921.12656,153.26003 c -4.65316,11.53153 -19.02266,16.79282 -29.74795,16.79282 l -63.33359,0 55.84708,-139.014172 61.72111,0 c 13.35133,0 18.0091,6.270243 18.0091,13.351332 0,2.630645 -0.60814,5.464002 -1.82441,8.094648 z m -31.76585,-1.414375 -7.89194,0 -23.87852,60.099417 9.91445,0 c 4.45044,0 10.31987,-2.83335 13.15323,-9.91905 l 15.78387,-39.657786 c 0.40542,-1.418982 0.60814,-2.630645 0.60814,-3.644204 0,-4.247732 -3.64421,-6.878377 -7.68923,-6.878377 z" inkscape:connector-curvature="0"/>
    <path id="path5246" style="fill:url(#linearGradient5382);fill-opacity:1;fill-rule:nonzero;stroke:none" d="m 794.31194,208.26033 -18.61723,0 c -5.05858,0 -8.29736,2.83336 -9.50902,5.86943 l -17.40557,43.5047 c -0.60813,1.21627 -0.80624,2.42793 -0.80624,3.6442 0,4.24773 3.23418,7.08109 7.89194,7.08109 l 6.06753,0 c 3.6442,0 6.07214,2.02251 6.07214,4.85587 0,0.81084 0,1.41437 -0.40543,2.22522 l -20.43703,51.80206 -48.36517,0 c -4.65316,0 -7.89194,-3.03607 -7.89194,-7.2838 0,-1.01356 0.20271,-2.42793 0.81085,-3.6442 l 39.66239,-99.14908 c 0.40543,-1.01355 0.60814,-2.02711 0.60814,-3.03606 0,-3.84692 -3.64421,-5.86943 -7.68923,-5.86943 l -16.392,0 8.09464,-20.0316 86.40588,0 -8.09465,20.0316 z" inkscape:connector-curvature="0"/>
    <path id="path5248" style="fill:url(#linearGradient5380);fill-opacity:1;fill-rule:nonzero;stroke:none" d="m 851.67475,327.04019 -20.84245,0 26.10374,-65.96424 c 0.60353,-1.41898 0.80624,-2.63065 0.80624,-3.6442 0,-4.24774 -3.43688,-6.67567 -7.48651,-6.67567 -4.24773,0 -9.30631,2.63065 -11.93696,9.30631 l -26.50916,66.9778 -32.37859,0 c -5.86482,0 -9.91445,-3.6396 -9.91445,-9.1036 0,-1.8198 0.40542,-3.6442 1.21627,-5.464 l 49.98226,-124.64929 46.33806,0 -10.928,27.72083 c -0.60814,1.41898 -0.81085,2.63065 -0.81085,3.84692 0,4.04502 3.03607,6.27024 6.88298,6.27024 4.65316,0 10.11716,-3.03607 12.95052,-10.11716 l 10.9234,-27.72083 21.45058,0 -55.84708,139.21689 z" inkscape:connector-curvature="0"/>
    <path id="path5250" style="fill:url(#linearGradient5378);fill-opacity:1;fill-rule:nonzero;stroke:none" d="m 1003.2524,207.85491 -43.30194,0 c -8.29736,0 -12.7478,5.86942 -12.7478,10.72529 0,3.6442 2.22522,6.67567 7.2838,6.67567 l 42.29304,0 -10.92801,26.10374 -43.30199,0 c -8.29736,0 -12.95052,5.86942 -12.95052,10.72529 0,3.64421 2.42794,6.68027 7.48652,6.68027 l 41.07677,0 -23.06768,58.27502 -71.63556,0 c -5.86482,0 -9.91445,-3.03607 -9.91445,-8.29275 0,-1.82441 0.40543,-3.64421 1.21627,-5.66672 l 50.78851,-125.05471 85.79774,0 -8.0947,19.8289 z" inkscape:connector-curvature="0"/>
    <path id="path5252" style="fill:url(#linearGradient5376);fill-opacity:1;fill-rule:nonzero;stroke:none" d="m 1109.4826,202.18819 -12.7478,32.17588 -20.8424,0 6.2702,-15.37845 c 0.6081,-1.41898 0.8108,-2.83335 0.8108,-4.04962 0,-4.24774 -3.2387,-6.67567 -7.2838,-6.67567 -4.455,0 -9.7163,3.23878 -12.545,10.31987 l -12.7525,32.5767 19.4281,0 -11.1307,26.10374 -18.6172,0 -19.4235,49.98226 -47.35162,0 55.64902,-139.21689 72.0363,0 c 5.6668,0 9.7118,3.43689 9.7118,8.90089 0,1.6217 -0.4055,3.44149 -1.2117,5.26129 z" inkscape:connector-curvature="0"/>
    <path id="path5254" style="fill:url(#linearGradient5374);fill-opacity:1;fill-rule:nonzero;stroke:none" d="m 1201.9975,208.26033 -18.6173,0 c -5.0585,0 -8.2973,2.83336 -9.509,5.86943 l -17.4009,43.5047 c -0.6082,1.21627 -0.8109,2.42793 -0.8109,3.6442 0,4.24773 3.2388,7.08109 7.892,7.08109 l 6.0721,0 c 3.6396,0 6.0675,2.02251 6.0675,4.85587 0,0.81084 0,1.41437 -0.4054,2.22522 l -20.437,51.80206 -48.3606,0 c -4.6532,0 -7.8919,-3.03607 -7.8919,-7.2838 0,-1.01356 0.2027,-2.42793 0.8108,-3.6442 l 39.6578,-99.14908 c 0.4054,-1.01355 0.6081,-2.02711 0.6081,-3.03606 0,-3.84692 -3.6442,-5.86943 -7.6892,-5.86943 l -16.392,0 8.0947,-20.0316 86.4058,0 -8.0946,20.0316 z" inkscape:connector-curvature="0"/>
  </g>
</svg>