<?xml version="1.0" encoding="utf-8"?>
<!-- Generator: Adobe Illustrator 22.1.0, SVG Export Plug-In . SVG Version: 6.00 Build 0)  -->
<svg version="1.1" id="svg2" xmlns:svg="http://www.w3.org/2000/svg"
	 xmlns="http://www.w3.org/2000/svg" xmlns:xlink="http://www.w3.org/1999/xlink" x="0px" y="0px" viewBox="0 0 745.3 228.3"
	 style="enable-background:new 0 0 745.3 228.3;" xml:space="preserve">
<style type="text/css">
	.st0{fill:#FFFFFF;}
	.st1{fill:#AE362E;stroke:#AE362F;stroke-width:3.6354;}
</style>
<g id="layer1">
	<path id="text3244" class="st0" d="M162.6,213.9V51.4c-9.2,9.9-15.9,20.3-19.9,31.1c-4,10.9-6.1,26-6.1,45.3v11.9v74.2H84.1v-86.1
		c0-19.4-2-34.5-6.1-45.3c-4-10.9-10.7-21.2-19.9-31.1v162.5H5.2V0h70.5C83,7.3,89.5,15.8,95.3,25.3c5.8,9.5,10.8,20,15.1,31.4
		c3.9-11.1,8.8-21.5,14.6-31.1C130.9,16,137.5,7.4,144.9,0h70.5v213.9H162.6z M295.1,138.4h25.8c-0.3-20.3-1.6-38.3-3.8-54.1
		c-2.2-15.8-5.2-29.2-9.1-40.1c-4,10.9-7.1,24.3-9.2,40.1C296.7,100,295.4,118.1,295.1,138.4L295.1,138.4z M242.6,213.9V172
		c0-40.3,3.4-74.1,10.1-101.5C259.4,43.1,270,19.6,284.5,0h47.4c14.5,19.8,25.1,43.4,31.9,70.8C370.6,98.2,374,131.9,374,172v41.9
		h-53v-35.3h-25.8v35.3H242.6z M401.3,213.9V0h105.5v40.7h-52.7v36.4h50.5v40.4h-50.5v96.5H401.3z M530.6,0h52.8v213.9h-52.8V0z
		 M665.2,138.4H691c-0.3-20.3-1.6-38.3-3.8-54.1c-2.2-15.8-5.2-29.2-9.1-40.1c-4,10.9-7.1,24.3-9.2,40.1
		C666.8,100,665.6,118.1,665.2,138.4L665.2,138.4z M612.7,213.9V172c0-40.3,3.4-74.1,10.1-101.5c6.7-27.4,17.3-50.9,31.8-70.5H702
		c14.5,19.8,25.1,43.4,31.9,70.8c6.8,27.4,10.2,61.2,10.2,101.2v41.9h-53v-35.3h-25.8v35.3H612.7z"/>
	<path id="path3248" class="st1" d="M0,226.4h745.3"/>
</g>
</svg>
