<svg xmlns="http://www.w3.org/2000/svg" viewBox="0 0 480.6 166.1">
  <path d="M2.3 1.7C4.4-.4 7.7.1 10.5 0c11.7 0 23.3.3 35 .2 3 0 6.5-.1 9.1 1.7C58.4 5 61.2 9.4 64 13.5c3.4 5.7 6.8 11.4 9 17.6A65.7 65.7 0 0 1 92.3 1.8C94.1.5 96.4.6 98.5.5h39c2.6.2 6 .2 7.5 3a17.3 17.3 0 0 1 .6 5.5v150.1c.2 4.3-4.6 5.9-8 5.8h-30.2c-3.6.3-6.5-3.4-6-6.9l-.1-99.8c-5 8.4-5.6 18.3-6.3 27.8v38c.6 10.4-.1 20.7.3 31 0 2.8 0 5.8-1.9 8-2.4 2.1-5.7 1.8-8.7 1.8-8.7.3-17.4 0-26.1.2-3.3 0-7.5-2-7.2-5.9-.2-21 0-42-.1-63a175.8 175.8 0 0 0-1.3-25c-.7-5.4-3-10.4-5.1-15.4.3 21.1-.2 42.2.4 63.3v39c0 2.8-1.6 6-4.6 6.3-5.3 1.1-10.8.3-16.1.5-7-.2-14.1.7-21-.8-3-.8-3.5-4.4-3.5-7V8c0-2.2.1-4.9 2.2-6.3m3 3.9q-.2 77 0 154l1.5-.3c11 .7 22.1.3 33.2.2l-.3-115.8 1.8-.1c2.7 3.2 5.7 6.2 7.7 10 5.7 9.3 7 20.6 7 31.4 0 18.7.2 37.3.1 56a127.2 127.2 0 0 1 0 18.6l.8-1-.5 1c10.4.2 20.7 0 31 0l2.2-.2c.3-21.4-.2-42.9 0-64.3-.2-9.8-.1-19.7 2.6-29.2 2-7.4 6.1-14 11-19.8a4.7 4.7 0 0 1 3.2-2c.1 9-.8 18-.1 27 .2 29.5-.2 59.1.3 88.7l33.3-.1c.2-51.3-.1-102.6 0-153.9H95.6c-6.4 6-12 12.9-15.4 21-2.1 5-4.7 10-5 15.4l-.4-.2a25.9 25.9 0 0 0-1.4 3.1A137.9 137.9 0 0 0 51.6 6c-3.6-.9-7.4-.4-11-.5-11.8 0-23.6-.3-35.3 0zM180.1 5.5c1.4-2.4 3.4-5 6.5-4.8 8.3-.3 16.6 0 24.9-.1 2.7 0 5.8-.2 8.2 1.3a97 97 0 0 1 16.1 25.8c6.4 15.6 8.8 32.5 10.4 49.2 2.3 26.6 1.4 53.4 1.6 80.1.2 2.8-.4 6.1-3.4 7.2-4.1 1.4-8.7.7-13 .9-7-.4-14 .2-21 0a6 6 0 0 1-6-6c-.2-6.5 0-13.1 0-19.7h-6.8v19.8c0 3.6-3.7 6.4-7 5.9-9.8-.3-19.5 0-29.2-.2-3 0-6.9-1.3-7-4.8-.5-5.6 0-11.3-.2-17 .2-18.6-.8-37.3 1-56a234.5 234.5 0 0 1 9.8-49.6c1.8-5.1 4-10 6-15 2.4-6 6-11.3 9-17m-.1 11.2c-4 6.3-6.2 13.6-9.1 20.5-7 20.8-10.4 42.8-11.5 64.8-.2 19.2 0 38.4 0 57.5 8 .2 16 .3 23.9 0a47.7 47.7 0 0 0 9.2 0c0-8.3-.4-16.8.2-25.1 5.7-.3 11.5-.2 17.2 0v25.3h1c10.6.2 21.4.1 32 0 0-20.4.2-40.7-.4-61-.5-8.4-.6-17-1.8-25.3-1.9-22.5-7.2-45.7-21.4-63.8-1.2-1.1-2-4-3.8-3.7-9.7-.2-19.4 0-29 0-2.4 3.4-4.4 7.1-6.5 10.7zM257.4 1.8c1.8-1.2 4-1.1 6-1.2h63c2.3.2 5 .1 6.4 2.2 1.7 2.4 1.3 5.5 1.4 8.3-.2 7.3 0 14.7-.2 22 .1 3-2 6.4-5.5 6-9.5.3-19.1.2-28.7 0V56h26.8a6.1 6.1 0 0 1 6 6q.2 13.6 0 27.2a6 6 0 0 1-6 6h-26.8c0 21 .1 42 0 63a6.4 6.4 0 0 1-6.2 7h-31c-2.2 0-4.9.1-6.2-1.9s-1.2-4.7-1.3-7.1V8c0-2.2.2-5 2.2-6.3m3 4v150.1l.3 3.7c11.3 0 22.7.5 34.1-.1V94a36.1 36.1 0 0 1 .2-4.5c11 0 21.8.2 32.7 0l-.4-.9c.2-9-.1-18 .2-27.1-10.9-.8-21.8-.1-32.7-.4 0-9-.2-18.2.1-27.2h18.7c5.3-.3 10.7.6 16-.6l-.8-.5c.2-8.8.4-17.7 0-26.6l.4-.3c-22-.2-44.1-.1-66.2-.1zM337.9 1.6a21.8 21.8 0 0 1 7.5-1c9 .2 18.1 0 27.2 0 1.9.2 4.1.2 5.6 1.7s1.4 3.8 1.6 5.7q-.2 74.5 0 149c0 2.2-.1 4.8-2 6.2-1.8 2.2-4.8 1.8-7.2 1.9h-29.3c-3.5 0-6.3-3.6-5.8-7V7c0-2 .3-4.4 2.4-5.4m3.3 3.9a21067.3 21067.3 0 0 0-.2 154.3c11.2-.3 22.5.4 33.7-.4-.3-51.3-.4-102.6-.1-154l-.6.6a654 654 0 0 0-32 0zM409.7 9.1c2-3.1 3.3-8.1 7.8-8.2 8.7-.4 17.4 0 26-.2 2.7.1 5.7-.2 8.1 1.2A97.2 97.2 0 0 1 470.5 35c4.3 12 6 24.6 7.4 37.2 1.7 11.5.8 23.2 2.6 34.7v54.2a4.7 4.7 0 0 1-5 5c-8.2-1.7-16.6-.6-25-1-3.9 0-7.9.6-11.6-.5-2.8-1.7-3-5.5-2.9-8.4.5-5.6 0-11.2 0-16.7l-7.2-.1c.4 5.8 0 11.7.2 17.6 0 2.7-.2 6-2.8 7.5a17.6 17.6 0 0 1-5.7.7h-29c-2 0-4.5-.4-5.5-2.5-.8-2-.6-4.4-.6-6.6v-53a295.5 295.5 0 0 1 6.5-49c2.6-8.5 4.4-17.3 8.3-25.4a92.9 92.9 0 0 1 9.5-19.5m6 0c-2.9 5.5-6.6 10.5-8.7 16.4-2.6 6.6-5.7 13-7.1 20a224.3 224.3 0 0 0-8 41.3c-2 24.2-.7 48.6-1 72.9h32.6l.3-2c0-7.7-.2-15.6.2-23.4 5.7 0 11.5-.2 17.2.2.1 8.4.3 16.9.1 25.3 11.4-.3 22.8.4 34.1-.4l-.7-.8v-28.1a702 702 0 0 0-1-48.4c-1.5-14.4-2.6-29.1-7.5-43a85.5 85.5 0 0 0-18.6-33.6l-.5.4c-9.2-.2-18.4 0-27.6-.1-2.2-.5-2.9 2-3.8 3.3z"/>
  <path d="M200 40.5l1.4-3.5c8 21.9 7.4 45.5 7.6 68.5h-16.3a272 272 0 0 1 7.4-65m1.5 19.5c-2.3 13.2-3 26.6-3.6 39.9h5.5c-.2-13.3-.2-26.6-1.9-39.9zM427 64a146.1 146.1 0 0 1 5.5-26.4 50 50 0 0 1 3.9 10.5c4.4 18.8 3.9 38.3 4.4 57.5-5.6 0-11.3.2-16.9 0A372.1 372.1 0 0 1 427 64m6-6.2c-1.4 14.1-3.5 28.3-3.4 42.5h5.7a351 351 0 0 0-2.3-42.5z"/>
  <path fill="#fbfbfb" d="M5.3 5.5c11.7-.3 23.5 0 35.3 0 3.6.1 7.4-.4 11 .5-5 1.7-8.9 5.4-12.3 9.3 4.5 8.1 12.4 13.8 16.8 22a199.9 199.9 0 0 1 12.7 30.4 82.3 82.3 0 0 0 4 11 28.7 28.7 0 0 1 1.3 5.3c-1.1 14.3-.1 28.7-.4 43-.3 5.9 1.1 12-1.9 17.4-2.6 2.3-5 5-7.4 7.5-2.3 2.4-5.4 4-7.3 6.7l-.8 1a127.2 127.2 0 0 0 0-18.6V85c0-10.8-1.3-22-7-31.5-2-3.7-5-6.7-7.8-10a55.4 55.4 0 0 1-6-8.3 102.8 102.8 0 0 0-12.2-17.7c-1.5 6-.6 12.3-.6 18.5v51c-.3 16.4 1.5 32.7.9 49-.4 10.7-12.2 14.7-16.8 23.2l-1.4.5Q5 82.7 5.3 5.5zM80.3 26.7c3.4-8 9-15 15.4-21h44.5a81.6 81.6 0 0 0-14.2 8c-2.2 1.3-1.9 4.1-2 6.3.1 38 0 76 .4 114 0 2.9.1 5.8-.5 8.5-1 1.7-2.5 2.8-4 4a107.3 107.3 0 0 0-13 13.2c-.5-29.6 0-59.1-.3-88.7-.7-9 .2-18 .1-26.9-.8-9.3 4-18.3 2.2-27.6-4 4-7.2 8.7-11 12.9a55.9 55.9 0 0 0-10.2 14.7C85 51.6 83 59.3 80.3 66.7c-1.9 5-2.2 10.4-5 15-1.2-5.1-.5-10.5-.7-15.7 0-6.5-.7-13 .6-19.5a9.8 9.8 0 0 0 0-4.4c.5-5.5 3-10.4 5-15.4z"/>
  <path fill="#e3edf1" d="M140.2 5.7c-.1 51.3.2 102.6 0 153.9l-33.3.1a107.3 107.3 0 0 1 13.1-13.2c1.4-1.2 3-2.3 4-4 .6-2.7.4-5.6.5-8.5-.4-38-.3-76-.4-114 .1-2.2-.2-5 2-6.3a81.6 81.6 0 0 1 14.1-8z"/>
  <path fill="#fcfcfd" d="M180 16.6c2-3.6 4-7.3 6.2-10.8h29c-2.8 2.2-5.8 4.2-8.4 6.7.4 3.9 3 7.1 4.5 10.6 4.3 8.5 6.2 17.9 9.4 26.8 3.7 9.8 3.7 20.5 4.9 30.8-1 10 .8 20.2.7 30.3-.2 10.6.7 21.2-.2 31.8-1.9 2.7-4.6 4.6-6.8 7-3.2 3-5.8 6.6-8.7 9.8h-1v-25.2c4.9-4.2 10-8.2 14-13.3-4.4-1.2-9-.7-13.5-.7a274.6 274.6 0 0 0-33.7 0c-1 7.2.6 14.7-.8 21.8-3.6 6.2-10.5 9.7-13.8 16 7 1 14.3-.7 21.3 1.3-8 .3-16 .2-24 0V102c1.1-22 4.5-44 11.6-64.9 2.9-6.9 5.1-14.1 9.1-20.5m11 8c-4.2 11-8.8 22.2-9.4 34l-.4.3c-2.1 7.8-2.6 16-3.7 24.1-.4 12-1.6 24.1-.9 36.2 4.5-4 9.3-7.4 13.9-11.1.7-.9 2-1.4 2.2-2.6H209c-.2-23 .3-46.6-7.7-68.4-1.1-3.9-4.1-7.4-3.4-11.7a21.4 21.4 0 0 0-1.7-10.2c-3.5 1.8-4 6-5.1 9.5z"/>
  <path fill="#d4dee0" d="M215.2 5.9c1.9-.4 2.7 2.5 4 3.6 14 18.2 19.4 41.4 21.3 63.8 1.2 8.5 1.3 17 1.7 25.4l-2.6 3.2-2.3-2.9c-2.4-.1-6.3 1.8-7.4-1.4-.1-2.7.2-5.4.1-8.2l-3.3 1.1a59.6 59.6 0 0 0-1-9.9c-1.3-10.2-1.2-21-5-30.7-3.2-9-5-18.3-9.4-26.8-1.5-3.5-4-6.8-4.4-10.7 2.6-2.4 5.5-4.4 8.3-6.5z"/>
  <path fill="#fdfdfd" d="M260.4 5.8h2.5c1.2 2 2.5 4 4.7 5.1 3.8 2 6.6 5.4 9.3 8.7 1 3.7.2 7.7.4 11.5 0 37.3-.2 74.7.2 112-5.2 6-11.5 10.8-16.9 16.6l-.3-3.7V5.8zM341.2 5.5l.8.6a97.8 97.8 0 0 0 16.1 16.3c-.2 40.2 0 80.4 0 120.6-5.8 5.4-11.4 11.1-17 16.8-.3-49.6-.2-99.2 0-148.7-.1-1.9 0-3.8.1-5.6z"/>
  <path fill="#ecf3f9" d="M263 5.8l66.2.1-.4.4a96.4 96.4 0 0 0-13.2 13.6c3.9 4.8 8 9.5 13.2 13l.7.5c-5.3 1.1-10.7.2-16 .6-4.3-.2-8.7-.2-13 0l-5.6-.1c-5.6-4.2-10.5-9.3-16.5-13-.5 8.4 0 16.7-.2 25.1.2 9.4-.5 18.8.5 28.2 5.6-4 10.4-9.1 16-13 11 .2 21.8-.5 32.7.3a72.8 72.8 0 0 0-13.1 13.3c-1.2 1.2.3 2.4 1 3.4 2.8 2.6 6 5 8 8.3l-3.8 1.1a39.1 39.1 0 0 1 7.7 1l.5.9a992 992 0 0 1-32.7 0c-3.6-3.2-7.8-5.5-11.1-8.9a26 26 0 0 0-5.3-4.1c-.7 6.5-.2 13-.3 19.4q0 20 .4 40.1c0 2.4.2 5-1.1 7-.5-37.3-.3-74.7-.3-112-.1-3.8.6-7.8-.4-11.5a30.8 30.8 0 0 0-9.3-8.7c-2.2-1-3.5-3-4.7-5z"/>
  <path fill="#edf4f8" d="M342 6c10.6-.3 21.3-.2 32 0-5.3 5.6-10.3 11.3-16 16.4a100 100 0 0 1-16-16.3z"/>
  <path fill="#d5e1e1" d="M374 6l.6-.6c-.3 51.4-.1 102.7 0 154a19.8 19.8 0 0 0-8.7-4.1v-1.5q2.7-1 5.5-1.8a39.7 39.7 0 0 1-5.9-2c-2.2-2.5-4-5.6-7.3-7 0-40.2-.2-80.4 0-120.6 5.5-5.1 10.6-10.8 15.8-16.4z"/>
  <path fill="#fcfdfd" d="M415.7 9.2c1-1.4 1.6-3.8 3.8-3.3H447c-2.6 2.4-5.6 4.2-8.2 6.6-.8 1 .4 2.3.9 3.3a85.3 85.3 0 0 1 8.7 17.8c3.2 9.6 6.2 19.3 7.3 29.4 2 14 2.2 28.2 2.4 42.3 0 4.5.5 9 .5 13.5-6.6-3.1-11.7-8.6-17.6-12.8l-.2-.4c-.6-19.2 0-38.7-4.5-57.5a50 50 0 0 0-3.8-10.5c-1.9-7.5-2.7-15.3-4.7-22.8a15.6 15.6 0 0 0-2.3 5.4c-2.7 9.8-6.2 19.5-8.6 29.4-3.5 12.3-8.1 24.6-8.8 37.5-.6 8.2.2 16.5-1 24.6a56.4 56.4 0 0 0-.9 12.4c.2 6.3-.3 12.5.5 18.8-5 5.9-10.8 11.1-16 16.9.4-24.3-1-48.7 1-73 1.8-13.8 3.9-27.8 8-41.2 1.5-7 4.7-13.4 7.2-20 2-5.9 5.9-10.9 8.7-16.4z"/>
  <path fill="#c8cfd0" d="M447.1 6l.5-.4a85.4 85.4 0 0 1 18.6 33.7c-1.4 2.1-.5 4.6.2 6.9l-2.3-1.8-1-5-1.7 1.6c-1.4-3.8-3.8-7-6.1-10.3a9 9 0 0 1-6.9 2.9 85.3 85.3 0 0 0-8.6-17.8c-.5-1-1.7-2.2-1-3.3 2.7-2.4 5.7-4.2 8.3-6.5z"/>
  <path fill="#e3ecf0" d="M39.3 15.3c3.4-4 7.3-7.6 12.3-9.4 10 11.4 16.1 25.4 21.9 39.2-1 11.2.6 22.4-.7 33.6a82.3 82.3 0 0 1-4-11 199.9 199.9 0 0 0-12.7-30.5c-4.4-8.2-12.3-13.8-16.9-22z"/>
  <path fill="#dbe5e8" d="M315.6 19.9a96.4 96.4 0 0 1 13.2-13.6c.3 8.8.1 17.7 0 26.6a59.8 59.8 0 0 1-13.2-13z"/>
  <path fill="#ebf4fa" d="M191 24.7c1-3.5 1.6-7.7 5.3-9.6a21.4 21.4 0 0 1 1.7 10.3c-.7 4.3 2.3 7.8 3.4 11.7l-1.3 3.4c-3.5 1-7 4.2-5.4 8-5.1 2.5-7.2 8.9-13 10.1.4-11.8 5-23 9.3-33.9z"/>
  <path fill="#e8f1f5" d="M425.6 20.2a15.6 15.6 0 0 1 2.3-5.4c2 7.5 2.8 15.3 4.7 22.8A146.1 146.1 0 0 0 427 64l-3.3-1.6c-2 4-3 8.2-5 12-2.3 3-6 4.5-8.6 7.4a19.4 19.4 0 0 0-2 5.3c.8-13 5.4-25.2 8.9-37.5 2.4-10 5.9-19.6 8.6-29.4z"/>
  <path fill="#eaf2f7" d="M97.9 29.4c3.8-4.2 7-8.9 11-12.9 1.7 9.3-3 18.3-2.2 27.6a4.7 4.7 0 0 0-3.1 2 52 52 0 0 0-11.1 19.7c-2.7 9.5-2.8 19.5-2.6 29.3-.2 21.4.3 42.8 0 64.2l-2.1.3a46.5 46.5 0 0 0 .6-10.6l-1.9 5.6a31.3 31.3 0 0 1-11.6-12l-3 1.8c3-5.3 1.6-11.6 1.8-17.3.3-14.4-.7-28.8.4-43.1a28.7 28.7 0 0 0-1.3-5.3c1.3-11.2-.3-22.4.7-33.6a25.9 25.9 0 0 1 1.3-3.1l.4.1a9.8 9.8 0 0 1 0 4.5c-1.3 6.4-.6 13-.6 19.5.2 5.2-.5 10.5.7 15.7 2.8-4.6 3.1-10.1 5-15C83 59.4 85 51.6 87.7 44a55.9 55.9 0 0 1 10.2-14.7z"/>
  <path fill="#eaf3f7" d="M22.7 36c0-6.2-.9-12.5.6-18.6a102.8 102.8 0 0 1 12.2 17.8 55.4 55.4 0 0 0 6 8.4h-1.8l.3 115.9c-11 .1-22.2.5-33.2-.3 4.6-8.5 16.3-12.5 16.7-23.2.7-16.3-1-32.6-.8-49V36z"/>
  <path fill="#d6e1e3" d="M278.4 21c6 3.6 10.9 8.7 16.5 13-.4 9-.2 18-.2 27.1-5.7 4-10.4 9-16 13.1-1-9.3-.3-18.8-.6-28.2.3-8.4-.2-16.7.3-25z"/>
  <path fill="#d0dadb" d="M448.4 33.6a9 9 0 0 0 6.9-2.9c2.3 3.3 4.7 6.5 6 10.3l1.9-1.6.9 5 2.3 1.7c-.7-2.2-1.6-4.7-.2-6.9 4.9 13.8 6 28.5 7.5 43a702 702 0 0 1 1 48.3l-2.6-1.7c-.8-3.5 0-7 1-10.3a11.5 11.5 0 0 1-6-5.7l2.1-2.8c-3.2.9-6.3 1.9-9.4 3l-.5-8.9-1.1 1.2c-.2-14.1-.4-28.3-2.4-42.3a142.2 142.2 0 0 0-7.4-29.4z"/>
  <path fill="#e5eef1" d="M194.7 48.5c-1.6-3.8 2-7 5.4-8a272 272 0 0 0-7.4 65c-.2 1.1-1.5 1.7-2.2 2.5-4.7 3.7-9.5 7.2-14 11.1-.6-12 .6-24 1-36.1 1-8 1.5-16.3 3.7-24.2l.4-.2c5.9-1.2 8-7.6 13-10z"/>
  <path fill="#dee7ed" d="M327.4 61.5c-.3 9 0 18.1-.2 27.1a39.1 39.1 0 0 0-7.7-1l3.8-1c-2-3.4-5.2-5.7-8-8.4-.7-1-2.3-2.2-1-3.4a72.8 72.8 0 0 1 13-13.3z"/>
  <path fill="#d9e3e5" d="M423.7 62.4l3.3 1.7a372.1 372.1 0 0 0-3 41.5c5.6.2 11.2 0 16.9 0l.2.4c-5.2.5-10.5 0-15.7.3-2-.1-3.5 1.4-5 2.5-4 3.3-7.9 6.7-12.1 9.6a52.7 52.7 0 0 1-1-6.7c1.2-8.1.4-16.4 1-24.6a19.4 19.4 0 0 1 2-5.3c2.5-2.9 6.2-4.3 8.5-7.4 1.8-3.9 3-8 5-12zM407.6 121.5a117 117 0 0 1 16.4 12.9c-.3 7.8-.2 15.6-.1 23.5l-11.3-.1 6.8-2.2c-4.7-3.5-7.7-8.5-12-12.2.1-7.3-.2-14.6.2-21.9z"/>
  <path fill="#dde7eb" d="M278.5 76.5a26 26 0 0 1 5.3 4.2c3.4 3.3 7.6 5.6 11.1 8.8a36.1 36.1 0 0 0-.3 4.5l.1 65.5c-11.4.6-22.8 0-34.2.2h.1c5.4-5.9 11.7-10.7 17-16.6 1.2-2.1 1.1-4.7 1.1-7l-.5-40c.2-6.6-.4-13.1.3-19.6z"/>
  <path fill="#e0ebee" d="M225.6 80.7a59.6 59.6 0 0 1 1.1 9.8l3.3-1c0 2.7-.3 5.4-.2 8.1 1.2 3.2 5 1.3 7.5 1.4l2.2 3 2.7-3.3c.7 20.3.4 40.6.5 60.9-10.7.2-21.4.2-32.1 0 3-3.3 5.5-6.8 8.7-9.8 2.2-2.4 5-4.3 6.8-7 1-10.6 0-21.2.2-31.8.2-10.1-1.7-20.2-.7-30.3z"/>
  <path fill="#d6e0e2" d="M458.2 105.3l1.1-1.2.5 8.9c3-1.1 6.2-2.1 9.4-3l-2.1 2.8a11.5 11.5 0 0 0 6 5.7c-1 3.3-1.8 6.8-1 10.3l2.7 1.7-.1 28.1-5-1.8c-1.6-6-8-8.3-11.2-13.2.4-7.3.2-14.5.2-21.8v-3c0-4.5-.5-9-.5-13.5z"/>
  <path fill="#eff5fc" d="M420.4 108.8c1.5-1 3-2.6 5-2.5 5.2-.3 10.4.2 15.6-.3 6 4.2 11 9.7 17.7 12.8v3l-1.8-.7c-3.4-1.3-7-.4-10.5-.2-5.3.5-10.5-1.3-15.9-.7-6.7 1-13.4-.5-20.1 0a3.6 3.6 0 0 0-2.8 1.3c-.4 7.3-.1 14.6-.3 21.9l-.6-.6c-.7-6.2-.2-12.5-.4-18.7a56.4 56.4 0 0 1 .9-12.4 52.7 52.7 0 0 0 1 6.7c4.3-2.9 8.2-6.3 12.2-9.6z"/>
  <path fill="#e4eef2" d="M176.5 120.3a274.6 274.6 0 0 1 33.7 0c4.5.1 9-.5 13.5.8-4 5-9.1 9-14 13.2-5.7-.1-11.4-.2-17.1 0-.7 8.4-.2 16.8-.3 25.2a47.7 47.7 0 0 1-9.2 0c-7-2-14.2-.4-21.2-1.3 3.2-6.3 10.1-9.9 13.7-16 1.5-7.2-.1-14.6.9-21.9z"/>
  <path fill="#e5f0f5" d="M407.6 121.5a3.6 3.6 0 0 1 2.8-1.2c6.7-.6 13.5.9 20.2 0 5.3-.6 10.5 1.2 15.9.6 3.5-.1 7-1.1 10.4.3-5.1 4.6-10.7 8.7-15.7 13.4-5.7-.4-11.5-.2-17.2-.2a117 117 0 0 0-16.4-12.9z"/>
  <path fill="#fbfcfc" d="M457 121.1l1.7.7c0 7.3.2 14.6-.2 21.8-6 5-11.3 11-17.2 16.2.2-8.4 0-16.8-.1-25.2 5-4.8 10.6-8.9 15.7-13.5z"/>
  <path fill="#e4edf0" d="M71.8 144.4l3-1.9c2.5 5.2 7 9 11.7 12l1.8-5.5a46.5 46.5 0 0 1-.6 10.6h-31l.4-1c1.9-2.8 5-4.4 7.2-6.7 2.6-2.5 4.9-5.2 7.5-7.5z"/>
  <path fill="#e1e9ed" d="M406.8 142.9l.5.5c4.4 3.7 7.4 8.7 12 12.2l-6.7 2.2h11.3l-.4 2h-32.6c5.1-5.8 10.9-11 15.9-17z"/>
  <path fill="#e0e9ec" d="M341 159.8c5.7-5.7 11.3-11.4 17.1-16.8 3.4 1.4 5.2 4.5 7.4 7.1a39.7 39.7 0 0 0 5.8 2l-5.5 1.7v1.5a19.8 19.8 0 0 1 8.8 4.2c-11.1.7-22.4 0-33.6.3z"/>
  <path fill="#e1e9ec" d="M441.3 159.8c6-5.2 11.2-11.1 17.2-16.2 3.1 5 9.6 7.3 11.1 13.2l5.1 1.8.7.9c-11.3.8-22.7 0-34 .3z"/>
</svg>
