<svg xmlns="http://www.w3.org/2000/svg" width="1253.572" height="246.24" viewBox="0 0 940.179 184.68"><defs><filter id="a" width="1.014" height="1.077" x="-.007" y="-.038" color-interpolation-filters="sRGB"><feGaussianBlur stdDeviation="2.746"/></filter></defs><g stroke="#000" stroke-width="7.5" filter="url(#a)" transform="translate(-15.509 -23.187)"><path d="M37.06 35.08c7.7-5.61 17.82-6.05 26.85-4.03 6.88 1.91 12.41 6.82 19.35 8.65-5.13 6.48-10.38 12.88-15.48 19.38-.1-7.5-.49-16.95-7.77-21.14-5.42-5.11-14.79-2.07-18.02 4-1.19 4.42-.55 9.13-.78 13.63 12.45 5.28 28.5 4.23 37.46 15.77 6.13 11.78 2.85 26.85-5.83 36.5-7.43 6.54-18.15 9.34-27.82 7.11-8.22-1.45-14.6-7.84-22.92-9.03 3.36-8.25 6.73-16.51 10.1-24.77.62-.05 1.86-.16 2.48-.21.21 4.61-.57 9.4.5 13.95 4.04 9.54 13.55 18.69 24.71 17 3.83-1.35 6.93-4.52 9.07-7.91 4.67-6.58 1.06-16.75-6.3-19.56-9.98-3.55-21.24-3.31-30.64-8.54-2.58-1.28-3.79-3.95-5.22-6.27-1.15 1.21-2.27 2.43-3.42 3.63-2.3-7.46 1.22-15.01 2.83-22.18 1.54-6.38 4.6-13.05 10.85-15.98zM218.52 32.58c22.47-1.11 44.96-1.8 67.46-1.82 9.5.77 19.02.82 28.54.47.19 1.13.39 2.26.59 3.39-6.75.31-13.66 3.9-20.31 1.25.39 6.62.87 13.25.86 19.89-4.83-6.57-7.72-15.92-16.84-17.57-6.27-1.18-14.14-3.3-19.6 1.02-.58 9.15-.27 18.33-.01 27.49 4.99-.05 10.99 2.47 15.48-.97 2.86-3.02 4.6-6.79 6.64-10.35.42 9.51 1.34 19.02 1.1 28.55-2.92-3.16-5.84-6.41-9.29-9-4.4-1.75-9.32-1.43-13.95-1.37.17 11.56-3.2 23.76 1.42 34.85 8.81-.34 19.02.72 26.07-5.76 5.67-3.86 7.11-10.83 9.16-16.89.09 7.24.16 14.48.23 21.72 4.14.43 8.29.98 12.33 2.02-5.29 1.25-10.59 2.81-16.04 3.05-20.35-.63-40.7-.78-61.05-.33 5.37-4.26 5.44-11.6 5.42-17.88-.6-15.79-.24-31.59.37-47.37-.75-2.65 1.18-7.24-1.88-9.15-4.87-3.45-11.14-3.67-16.7-5.24zM351.06 30.21c1.22-1.15 4.19.17 3.52 1.93-1.19.85-3.84-.4-3.52-1.93zM533.81 31.44c12.36-.19 24.71-.43 37 1.3-2.41 2.26-5.26 4.42-6.32 7.68-1.06 8.83-.33 17.73.22 26.57 11.36.03 22.74.02 34.12 0-.42-8.27.18-16.61-1.15-24.82-.5-4.07-4.49-5.85-7.53-7.79.07-.99.15-1.98.24-2.97 12.57.39 25.37-1.2 37.82 1.1-2.45 2.37-6.13 3.73-7.7 6.89-1.32 9.05-1.69 18.28-.65 27.37 3.81.44 7.63.92 11.45 1.45-4.17.32-8.31.61-12.42 1.31.61 12.24-.01 24.65 2.4 36.74 5.09.82 10.12 1.99 15.09 3.36-14.27 5.6-29.44 1.18-44.18 1.84 3.28-3.83 8.05-7.67 6.6-13.42-.28-8.97-.25-17.94.2-26.91-9.63-.12-19.24-1.17-28.87-.85-2.97.12-6.17 1.93-6.65 5.1-.95 8.17-.89 16.42-.41 24.62-.85 4.03 1.81 7.04 4.16 9.75l.06-3.44c3.56 1.51 7.28 2.55 10.96 3.75-14 1.45-28.12.66-42.15 1.26 1.94-1.37 4.57-2.29 5.46-4.69 1-12.47.4-24.99.43-37.48l-7.33-.72c2.72-.64 5.46-1.19 8.21-1.77-.03-8.75 1.59-17.67-.32-26.32-1.86-3.81-5.84-5.96-8.74-8.91zM629.97 30.99c1.01.42 2.03.85 3.05 1.27-.15 1.06-.31 2.12-.45 3.19-.63.17-1.88.52-2.51.69-.04-1.72-.07-3.43-.09-5.15zM646.67 32.34c12.44-.6 24.89-1.26 37.36-1.44-.02.78-.05 2.34-.07 3.12-2.37 1.06-4.76 2.1-7.13 3.13-.63 9.28-.54 18.6-.19 27.89.54 13.02-1.39 25.98-1.55 38.98-.05 4.37 4.93 5.4 8.02 7.02-11.57-.08-23.13-.05-34.68.26 1.5-1.76 3.36-3.41 3.94-5.73 3.59-21.01 2.81-42.42 2.64-63.63.1-4.9-5.32-6.72-8.34-9.6zM687.14 31c2.51 0 7.54.01 10.05.02-3.08 1.11-6.09 2.25-9.07 3.56-.33-1.19-.66-2.39-.98-3.58zM703.57 32.48c17.9-1.16 35.89-2.04 53.81-.73-7.16 1.25-15.05 1.04-21.09 5.62-3.32 3.09-1.69 8.51-2.75 12.43-.95 18.81-1.04 37.71.53 56.49 7.75.09 17.44 2.37 23.91-3.3 4.59-4.94 6.52-11.75 8.1-18.13.67 8.69.32 17.41.72 26.12-14.2.18-28.45-.67-42.6.57-6.64 1.46-13.4 2.22-20.16 2.72-.75-1.68-1.49-3.35-2.21-5.03 3.83-2.1 10.6-2.71 9.55-8.81 1.45-19.39 2.31-38.9 1.39-58.34-.38-5.08-5.53-7.15-9.2-9.61zM767.29 31.53c.77-1.15 2.85.12 2.04 1.32-.81 1.2-2.92-.09-2.04-1.32zM152.01 33.72c12.82-.49 25.7-1.56 38.53-.68-3.02 2.78-7.63 3.99-9.7 7.65-2.06 17.34-2.09 34.89-2.19 52.35-.34 6.02 1.4 11.85 3.04 17.58 8.51.82 17.68-.74 24.1-6.84 4.19-4.86 5.89-11.17 7.76-17.16.04 8.47-.16 16.93-.39 25.39-12.07.14-24.14-.53-36.21-.35-8.73.05-17.19 2.42-25.81 3.48l-2.01-3.72c4.25-2.67 11.49-4.55 9.69-11.41 1.11-17.31 2.04-34.68 1.45-52.03-.53-3.03.4-6.88-1.69-9.55-1.78-2.08-4.3-3.28-6.57-4.71z"/><path d="M316.3 32.56c9.42.09 18.86.59 28.27-.15 10.59 13.63 23.36 25.35 34.17 38.8 2.69 3.93 6.55 6.93 11.38 7.72.22-12.27.45-24.66-1.33-36.83-.58-4.84-5.79-6.36-9.15-8.91 9.07-.98 18.2-.79 27.3-.46-2.92 1.55-6.93 2.65-7.78 6.33-1.49 6.19-2.56 12.55-2.42 18.94.08 9.25-1.44 18.43-1.39 27.68.26 9.01-.28 18.02-.44 27.03-4.11-.72-9.74.06-11.82-4.76-14.13-17.5-27.54-35.68-43.09-51.98-2.42-2.8-6.21-3.41-9.6-4.27.23 18.43-1.86 37.69 3.83 55.55 5.12.59 10.18 1.63 15.16 3.01-9.61 4.85-20.75 3.59-31.15 3.81-1.1-1.29-2.2-2.57-3.3-3.86 3.37-1.81 8.71-2.41 9.3-7 3.81-19.45 4.23-39.47 3.64-59.22-.7-6.31-7.4-7.96-11.58-11.43zM409.33 35.52c1.83-1.43 3.78-2.7 5.81-3.85.13.75.4 2.27.54 3.02-2.12.3-4.24.59-6.35.83zM426.4 32.59c7.12-1.17 14.39.12 21.57-.02 15.65-.33 31.34-1.34 46.99-.24 2.24.19 4.37 1.02 6.47 1.8-4.98 1.45-10.5 3.22-13.38 7.87-2.35 3.14-3.7 6.86-5.14 10.48-2.37-6.93-8.02-12.05-15.33-12.73-1.62 20.04-2.06 40.18-1.55 60.28.23 2.41.45 5.04 1.88 7.08 2.33 2.03 5.5 2.68 8.27 3.92-12.88 1-25.79 1.13-38.68 1.75-.1-.59-.31-1.75-.41-2.34 2.59-1.63 6.49-2.5 7.39-5.82 1.2-22.78 1.13-45.6 1.11-68.4C435 38.25 428.41 47.38 422.3 55.4c-.61-.4-1.83-1.2-2.45-1.6 2.03-7.05.6-16.07 6.55-21.21zM503.2 31.55c1.44.99 2.88 2 4.3 3.04-1.37.05-2.73.1-4.09.13-.05-.79-.15-2.38-.21-3.17zM509.42 33.2l8.9-1.32c-3.73 1.67-7.51 3.21-11.27 4.79zM99.59 33.29c16.04-.38 32.1-.68 48.13.31-4.92 3.59-11.24 1.18-16.46 3.63-3.66 1.52-2.61 6.63-3.56 9.61-1.02 18.37-2.35 36.79-1.66 55.2.1 3 1.22 5.83 2.34 8.57 3.11-.52 6.29-.6 9.38.14-12.03 1.43-24.15 1.37-36.24 1.46 5.53-10.43 5.02-22.62 5.92-34.04.47-11.2 1.22-22.49.19-33.67.76-5.72-4.34-8.35-8.04-11.21zM785.42 33.47c13.19-.56 26.41-.53 39.62-.46l-.16 2.75c-2.71 1.23-5.7 2.08-7.96 4.07-2.2 9.55-1.76 19.44-2.02 29.17.04 13.07-.66 26.27 1.92 39.17 7.02.13 14.38.88 20.92-2.39 5.87-4.62 7.34-12.2 9.53-18.92.41 6.69.68 13.38.95 20.08 2.06 1.34 4.14 2.64 6.19 4-19.66 4.23-40.06-1.87-59.65 3.29-4.62 2.11-9.38.76-11.72-3.52 3.01-1.51 6.36-2.5 9.06-4.57 2.62-10.83 1.58-22.11 1.99-33.14-.3-10.9 1.5-21.89-.49-32.7-1.47-3.45-5.38-4.7-8.18-6.83zM897.37 51.32c6.08-6.94 11.04-15.48 19.89-19.3.8 1.11 1.62 2.22 2.45 3.33-.61 16.93-.83 33.86-.71 50.8 7.77.62 15.56 1.01 23.36 1.59-7.83 1.77-15.86 2.03-23.79 3.01 1.34 5.39 2.92 10.72 4.48 16.06 4.16 1.26 8.39 2.51 12.56 3.85-3.14 3.68-7.89 5.07-12.64 3.72-11.12-1.91-22.82 1.18-33.63-2.45 4.07-1.18 8.48-1.48 12.32-3.41 4.43-4.13 2.48-10.87 3.32-16.18-13.84-1.35-28.88 2.68-41.73-4.1 4.02-1.63 8.04-3.67 10.91-7.04 8.53-9.33 15.29-20.06 23.21-29.88m-10.81 22.31c-3.15 4.71-7.64 8.25-11.09 12.71 9.71.78 19.47.6 29.22.37-2.73-9.84.83-19.98-.73-29.97-8.2 2.61-12.69 10.38-17.4 16.89zM76.56 34.83c1.96-.05 3.92-.05 5.88 0-1.96.11-3.92.11-5.88 0zM89.26 33.94c1.37-1.05 3.04 1.17 1.3 1.93-1.37 1.08-3-1.15-1.3-1.93zM86.17 38.17c1.63-.52 2.18.03 1.66 1.66-1.63.52-2.18-.03-1.66-1.66zM284.35 68.06c5.4-.77 11.34-1.51 16.29 1.4-5.45.19-11 .04-16.29-1.4zM302.53 67.29c1.23-.87 2.51 1.24 1.32 2.04-1.2.82-2.47-1.26-1.32-2.04zM306.54 67.27c.87-1.14 2.84.32 1.92 1.46-.88 1.14-2.84-.32-1.92-1.46zM948.08 109.31c1.51.01 1.24 2.45-.16 2.38-1.54-.01-1.27-2.45.16-2.38zM942.54 111.12c1.4-2.19 3.14 1.91.56 1.29l-.56-1.29zM541.16 133.09c13.12-5.22 27.85-4.28 41.44-1.59 10.32 3.45 15.71 13.38 22.3 21.16-.68-2.74-1.56-5.41-2.46-8.07 5.95 5.08 7.99 12.72 11.33 19.46-2.67-.74-5.34-1.44-8-2.18-2.1 10.51-4.19 21.75-12.48 29.4-7.18 8.95-19.69 9.69-30.25 9.64-12.17-.11-24.68-4.88-32.66-14.27-6.72-8.73-8.08-20.14-8.55-30.77 1.62-10.33 10.92-17.67 19.33-22.78m23.17-1.66c-5.28.51-11.71 1.07-15.03 5.85-7.56 11.11-6.48 25.59-5.76 38.31.97 7.24 3.43 15.81 10.56 19.27 6.36 3.02 14.06 2.91 20.68.94 8.09-5.58 10.41-16.47 9.53-25.73-.84-8.09-2.09-16.15-3.28-24.19-1.29-7.85-8.4-14.98-16.7-14.45zM632.95 136.94c11.21-8.74 26.01-7.93 39.47-7.33 9.34-.58 16.54 6.17 22.72 12.23 6.17 7.76 9.36 18.27 6.75 28.06-1.32 9.42-6.91 17.12-11.54 25.09 4.94 1.17 9.96 1.87 14.98 2.72-10.75.97-21.67.03-32.26 2.55-10.5 2.52-21.34-.06-31.38-3.22-8.78-5.26-16.84-13.17-19.04-23.5-.95-5.89-3.26-11.56-3.82-17.5 2.25-7.73 8.15-13.96 14.12-19.1m21.49-4.43c-8.15 1.88-11.27 11.27-12.2 18.58-1.51 12.54-2.82 26.53 3.86 37.87 2.47 4.41 7.04 7.53 12.18 7.83 6.1.41 13.91 1.08 18.26-4.22 6.87-9.27 7.46-21.73 5.03-32.67-2.03-8.15-.76-18.55-7.85-24.6-5.09-4.85-12.99-3.38-19.28-2.79zM718.7 130.04c8.71-.76 17.5-.71 26.21.17 3.72.49 4.58 4.83 6.37 7.48 3.41 7.64 7.43 15.02 12.38 21.78 1.81 2.55 5.1 3.1 7.85 4.11 5.32-11.65 11.4-22.93 16.53-34.67 8.83.07 17.66.19 26.51.47-2.76 2.88-7.3 4.71-8.05 9-1.17 12.31-.2 24.67-.35 37 .04 5.75-.61 11.67 1.27 17.24 1.55 2.97 5.06 4.02 7.71 5.78-11.66 2.38-23.63 1.77-35.38.62 3.53-3.12 8.49-6.35 7.05-12.01-.88-14.09 1.84-28.68-2.28-42.41-4.26 6.71-7.61 13.95-10.98 21.13 2.18.59 4.36 1.17 6.56 1.72-2.72 1.56-5.58 2.98-8.24 4.62-4.42 5.7-7.67 12.22-11.65 18.24-9.61-17.27-17.4-35.82-29.99-51.21-1.59 10.34-1.68 21.01 1.26 31.1 1.3 6.62 1.52 13.44 3.37 19.96.9 3.45 4.24 5.2 6.89 7.17.08.73.23 2.19.3 2.91-9.06.74-18.2.02-27.19-1.05 4.57-2.83 9.53-6.18 10.33-12.01 2.62-16.2 1.96-32.75 2.62-49.09-.19-4.92-5.64-6.02-9.1-8.05zM151.22 129.96c19.31.9 38.64 1.23 57.98 1.14-2.49 5.42-5.01 10.82-7.31 16.32-2.48-5.86-8.57-8.62-14.7-9.02.26 17.68-2.01 35.37-.71 53.02.14 4.85 4.86 6.84 8.58 8.65-11.86-.25-23.76.82-35.6-.21 2.79-1.87 5.77-3.44 8.73-5.03.85-13.27.11-26.56.83-39.83-.25-5.64 1.07-12.01-2.18-17.07-8.72-2.63-13.12 6.21-18.8 10.76.71-6.3 2.05-12.5 3.18-18.73zM221.62 131.02c11-1.24 22.09-.33 33.13-.31-1.92 2.08-4.2 4.02-5.21 6.73-.84 7.71-.58 15.48-.38 23.22 10.46.9 21.02 1.35 31.48.17-1.13-8.73 1.1-18.82-3.82-26.62-6.63-1.75-13.49-1.95-20.25-2.85 10.73-1.54 21.61-1.48 32.43-1.45 34.01.19 68.03.02 102.05.11-.46.88-.9 1.76-1.34 2.65-3.19.21-6.3.44-9.46.69.04 5.62.44 11.22.7 16.82-3.08-4.83-5.84-10.08-10.3-13.81-6.08-3.71-13.86-2.14-20.58-2.35-3.65 8.03-.38 17.57-1.03 26.13 3.54.16 7.11.78 10.67.41 4.54-2 6.43-7.03 8.91-10.99.8 8.19 1.09 16.42.75 24.64-2.59-1.91-4.82-4.24-7.44-6.09-3.88-2.58-8.63-2.49-13.07-2.72-.37 9.15-.94 18.35-.57 27.51.64 3.53 4.89 3.59 7.83 3.93 11.25.11 22.23-7.97 24.84-19.01.09 7.28.29 14.56.57 21.84-18.38.9-36.76-.37-55.14.07 4.64-12.39 1.39-25.92 2.58-38.79-.14-8.43 3.5-18.37-.81-26.09-8.19-3.53-17.93-2.77-26.51-1.17-3.35.8-3.74 5.23-4.1 7.89-.55 6.68.12 13.37.7 20.03 6.68.25 13.37.38 20.05.68-6.79.79-13.6 1.46-20.41 2.02.21 9.85-.5 19.83 1.32 29.58.62 2.62 2.7 4.51 4.41 6.47-11.65-.13-23.37.66-34.99-.35 3.72-2.57 9.96-3.33 10.72-8.63 1-8.81 1.38-17.7.74-26.56-7.67-.62-15.34-1.07-23.02-1.31-3.12-.11-6.47.56-8.84 2.73-.63 8.53-.72 17.14-.04 25.68.36 3.86 4.01 5.8 6.85 7.77-9.71-.29-19.42-.34-29.12.14 1.34-1.32 2.69-2.64 4.03-3.96.03-10.56.03-21.12 0-31.67-1.59-.38-3.17-.78-4.74-1.16 7.76.43 5.09-7.54 5.94-12.01-.37-5.01.96-10.77-1.86-15.28-2.29-1.98-5.1-3.19-7.67-4.73zM433.46 131.14c19.79-2.13 39.72-.95 59.58-.81 7.56 8.91 11.1 22.04 5.11 32.64l10.99.12c-1.43 1.37-2.62 3.05-4.34 4.09-6.85.53-13.74.04-20.59.65 2.89 7.5 7.83 13.98 12.5 20.45 2.34 2.51 4.07 6.01 7.32 7.53 3.91 1.44 8.13 1.92 12.16 2.97-9.66 1.51-19.45 2.36-29.24 2.26-2.51.17-4.56-1.5-5.81-3.51-4.86-7.42-9.08-15.31-14.88-22.07-1.93 2.02-4.09 3.86-5.64 6.2-.69 4.22-1.4 9.05.77 12.98 1.72 2.57 5.02 3.21 7.58 4.62-9.73-.21-19.45-.23-29.17-.03 5-8.11 1.7-17.96 2.66-26.91-.06-12.03 2.87-24.01 1.24-36.02-2.65-2.91-6.85-3.47-10.24-5.16m29.56 4.51c-1.13 9.22-2.23 18.46-2.22 27.77 5.56.31 11.12-.05 16.69-.03 5.19-6.93 7.65-17.99.73-24.62-3.5-4.81-10.08-4.66-15.2-3.12zM689.11 130.27c.85-1.09 2.92-1.09 3.78 0 .03 1.73-3.82 1.73-3.78 0zM211.24 131.11c1.57-.03 4.69-.08 6.26-.11.03 1.97.11 3.94.21 5.91-2.58-.37-5.17-.72-7.74-1.05.44-1.58.87-3.16 1.27-4.75z"/><path d="M760.48 149.2c2.21 2.07 4.03 4.51 5.53 7.14-1.95-2.3-3.77-4.71-5.53-7.14zM648.15 159.4c3.99-.82-.86 3.98 0 0zM774.14 173.12c1.36-.55 2.22 1.79.73 2.16-1.42.55-2.24-1.77-.73-2.16zM502.02 186.21c.79-1.05 3-.87 3.32.52-.15 1.88-3.85 1.27-3.32-.52zM382.58 198.19c6.91-.98 13.94-.91 20.81.31-6.94.14-13.88.04-20.81-.31zM471.54 198.12c1.4-2.19 3.15 1.91.56 1.29l-.56-1.29zM521.54 198.34c2.32.29 4.65.7 6.92 1.32-2.34-.29-4.66-.7-6.92-1.32z"/></g><g fill="#fff" stroke="#fff" stroke-width=".094"><path d="M21.551 11.893c7.7-5.61 17.82-6.05 26.85-4.03 6.88 1.91 12.41 6.82 19.35 8.65-5.13 6.48-10.38 12.88-15.48 19.38-.1-7.5-.49-16.95-7.77-21.14-5.42-5.11-14.79-2.07-18.02 4-1.19 4.42-.55 9.13-.78 13.63 12.45 5.28 28.5 4.23 37.46 15.77 6.13 11.78 2.85 26.85-5.83 36.5-7.43 6.54-18.15 9.34-27.82 7.11-8.22-1.45-14.6-7.84-22.92-9.03 3.36-8.25 6.73-16.51 10.1-24.77.62-.05 1.86-.16 2.48-.21.21 4.61-.57 9.4.5 13.95 4.04 9.54 13.55 18.69 24.71 17 3.83-1.35 6.93-4.52 9.07-7.91 4.67-6.58 1.06-16.75-6.3-19.56-9.98-3.55-21.24-3.31-30.64-8.54-2.58-1.28-3.79-3.95-5.22-6.27-1.15 1.21-2.27 2.43-3.42 3.63-2.3-7.46 1.22-15.01 2.83-22.18 1.54-6.38 4.6-13.05 10.85-15.98zM203.011 9.393c22.47-1.11 44.96-1.8 67.46-1.82 9.5.77 19.02.82 28.54.47.19 1.13.39 2.26.59 3.39-6.75.31-13.66 3.9-20.31 1.25.39 6.62.87 13.25.86 19.89-4.83-6.57-7.72-15.92-16.84-17.57-6.27-1.18-14.14-3.3-19.6 1.02-.58 9.15-.27 18.33-.01 27.49 4.99-.05 10.99 2.47 15.48-.97 2.86-3.02 4.6-6.79 6.64-10.35.42 9.51 1.34 19.02 1.1 28.55-2.92-3.16-5.84-6.41-9.29-9-4.4-1.75-9.32-1.43-13.95-1.37.17 11.56-3.2 23.76 1.42 34.85 8.81-.34 19.02.72 26.07-5.76 5.67-3.86 7.11-10.83 9.16-16.89.09 7.24.16 14.48.23 21.72 4.14.43 8.29.98 12.33 2.02-5.29 1.25-10.59 2.81-16.04 3.05-20.35-.63-40.7-.78-61.05-.33 5.37-4.26 5.44-11.6 5.42-17.88-.6-15.79-.24-31.59.37-47.37-.75-2.65 1.18-7.24-1.88-9.15-4.87-3.45-11.14-3.67-16.7-5.24zM335.551 7.023c1.22-1.15 4.19.17 3.52 1.93-1.19.85-3.84-.4-3.52-1.93zM518.301 8.253c12.36-.19 24.71-.43 37 1.3-2.41 2.26-5.26 4.42-6.32 7.68-1.06 8.83-.33 17.73.22 26.57 11.36.03 22.74.02 34.12 0-.42-8.27.18-16.61-1.15-24.82-.5-4.07-4.49-5.85-7.53-7.79.07-.99.15-1.98.24-2.97 12.57.39 25.37-1.2 37.82 1.1-2.45 2.37-6.13 3.73-7.7 6.89-1.32 9.05-1.69 18.28-.65 27.37 3.81.44 7.63.92 11.45 1.45-4.17.32-8.31.61-12.42 1.31.61 12.24-.01 24.65 2.4 36.74 5.09.82 10.12 1.99 15.09 3.36-14.27 5.6-29.44 1.18-44.18 1.84 3.28-3.83 8.05-7.67 6.6-13.42-.28-8.97-.25-17.94.2-26.91-9.63-.12-19.24-1.17-28.87-.85-2.97.12-6.17 1.93-6.65 5.1-.95 8.17-.89 16.42-.41 24.62-.85 4.03 1.81 7.04 4.16 9.75l.06-3.44c3.56 1.51 7.28 2.55 10.96 3.75-14 1.45-28.12.66-42.15 1.26 1.94-1.37 4.57-2.29 5.46-4.69 1-12.47.4-24.99.43-37.48l-7.33-.72c2.72-.64 5.46-1.19 8.21-1.77-.03-8.75 1.59-17.67-.32-26.32-1.86-3.81-5.84-5.96-8.74-8.91zM614.461 7.803c1.01.42 2.03.85 3.05 1.27-.15 1.06-.31 2.12-.45 3.19-.63.17-1.88.52-2.51.69-.04-1.72-.07-3.43-.09-5.15zM631.161 9.153c12.44-.6 24.89-1.26 37.36-1.44-.02.78-.05 2.34-.07 3.12-2.37 1.06-4.76 2.1-7.13 3.13-.63 9.28-.54 18.6-.19 27.89.54 13.02-1.39 25.98-1.55 38.98-.05 4.37 4.93 5.4 8.02 7.02-11.57-.08-23.13-.05-34.68.26 1.5-1.76 3.36-3.41 3.94-5.73 3.59-21.01 2.81-42.42 2.64-63.63.1-4.9-5.32-6.72-8.34-9.6zM671.631 7.813c2.51 0 7.54.01 10.05.02-3.08 1.11-6.09 2.25-9.07 3.56-.33-1.19-.66-2.39-.98-3.58zM688.061 9.293c17.9-1.16 35.89-2.04 53.81-.73-7.16 1.25-15.05 1.04-21.09 5.62-3.32 3.09-1.69 8.51-2.75 12.43-.95 18.81-1.04 37.71.53 56.49 7.75.09 17.44 2.37 23.91-3.3 4.59-4.94 6.52-11.75 8.1-18.13.67 8.69.32 17.41.72 26.12-14.2.18-28.45-.67-42.6.57-6.64 1.46-13.4 2.22-20.16 2.72-.75-1.68-1.49-3.35-2.21-5.03 3.83-2.1 10.6-2.71 9.55-8.81 1.45-19.39 2.31-38.9 1.39-58.34-.38-5.08-5.53-7.15-9.2-9.61zM751.781 8.343c.77-1.15 2.85.12 2.04 1.32-.81 1.2-2.92-.09-2.04-1.32zM136.501 10.533c12.82-.49 25.7-1.56 38.53-.68-3.02 2.78-7.63 3.99-9.7 7.65-2.06 17.34-2.09 34.89-2.19 52.35-.34 6.02 1.4 11.85 3.04 17.58 8.51.82 17.68-.74 24.1-6.84 4.19-4.86 5.89-11.17 7.76-17.16.04 8.47-.16 16.93-.39 25.39-12.07.14-24.14-.53-36.21-.35-8.73.05-17.19 2.42-25.81 3.48l-2.01-3.72c4.25-2.67 11.49-4.55 9.69-11.41 1.11-17.31 2.04-34.68 1.45-52.03-.53-3.03.4-6.88-1.69-9.55-1.78-2.08-4.3-3.28-6.57-4.71z"/><path d="M300.791 9.373c9.42.09 18.86.59 28.27-.15 10.59 13.63 23.36 25.35 34.17 38.8 2.69 3.93 6.55 6.93 11.38 7.72.22-12.27.45-24.66-1.33-36.83-.58-4.84-5.79-6.36-9.15-8.91 9.07-.98 18.2-.79 27.3-.46-2.92 1.55-6.93 2.65-7.78 6.33-1.49 6.19-2.56 12.55-2.42 18.94.08 9.25-1.44 18.43-1.39 27.68.26 9.01-.28 18.02-.44 27.03-4.11-.72-9.74.06-11.82-4.76-14.13-17.5-27.54-35.68-43.09-51.98-2.42-2.8-6.21-3.41-9.6-4.27.23 18.43-1.86 37.69 3.83 55.55 5.12.59 10.18 1.63 15.16 3.01-9.61 4.85-20.75 3.59-31.15 3.81-1.1-1.29-2.2-2.57-3.3-3.86 3.37-1.81 8.71-2.41 9.3-7 3.81-19.45 4.23-39.47 3.64-59.22-.7-6.31-7.4-7.96-11.58-11.43zM393.821 12.333c1.83-1.43 3.78-2.7 5.81-3.85.13.75.4 2.27.54 3.02-2.12.3-4.24.59-6.35.83zM410.891 9.403c7.12-1.17 14.39.12 21.57-.02 15.65-.33 31.34-1.34 46.99-.24 2.24.19 4.37 1.02 6.47 1.8-4.98 1.45-10.5 3.22-13.38 7.87-2.35 3.14-3.7 6.86-5.14 10.48-2.37-6.93-8.02-12.05-15.33-12.73-1.62 20.04-2.06 40.18-1.55 60.28.23 2.41.45 5.04 1.88 7.08 2.33 2.03 5.5 2.68 8.27 3.92-12.88 1-25.79 1.13-38.68 1.75-.1-.59-.31-1.75-.41-2.34 2.59-1.63 6.49-2.5 7.39-5.82 1.2-22.78 1.13-45.6 1.11-68.4-10.59 2.03-17.18 11.16-23.29 19.18-.61-.4-1.83-1.2-2.45-1.6 2.03-7.05.6-16.07 6.55-21.21zM487.691 8.363c1.44.99 2.88 2 4.3 3.04-1.37.05-2.73.1-4.09.13-.05-.79-.15-2.38-.21-3.17zM493.911 10.013l8.9-1.32c-3.73 1.67-7.51 3.21-11.27 4.79zM84.081 10.103c16.04-.38 32.1-.68 48.13.31-4.92 3.59-11.24 1.18-16.46 3.63-3.66 1.52-2.61 6.63-3.56 9.61-1.02 18.37-2.35 36.79-1.66 55.2.1 3 1.22 5.83 2.34 8.57 3.11-.52 6.29-.6 9.38.14-12.03 1.43-24.15 1.37-36.24 1.46 5.53-10.43 5.02-22.62 5.92-34.04.47-11.2 1.22-22.49.19-33.67.76-5.72-4.34-8.35-8.04-11.21zM769.911 10.283c13.19-.56 26.41-.53 39.62-.46l-.16 2.75c-2.71 1.23-5.7 2.08-7.96 4.07-2.2 9.55-1.76 19.44-2.02 29.17.04 13.07-.66 26.27 1.92 39.17 7.02.13 14.38.88 20.92-2.39 5.87-4.62 7.34-12.2 9.53-18.92.41 6.69.68 13.38.95 20.08 2.06 1.34 4.14 2.64 6.19 4-19.66 4.23-40.06-1.87-59.65 3.29-4.62 2.11-9.38.76-11.72-3.52 3.01-1.51 6.36-2.5 9.06-4.57 2.62-10.83 1.58-22.11 1.99-33.14-.3-10.9 1.5-21.89-.49-32.7-1.47-3.45-5.38-4.7-8.18-6.83zM881.861 28.133c6.08-6.94 11.04-15.48 19.89-19.3.8 1.11 1.62 2.22 2.45 3.33-.61 16.93-.83 33.86-.71 50.8 7.77.62 15.56 1.01 23.36 1.59-7.83 1.77-15.86 2.03-23.79 3.01 1.34 5.39 2.92 10.72 4.48 16.06 4.16 1.26 8.39 2.51 12.56 3.85-3.14 3.68-7.89 5.07-12.64 3.72-11.12-1.91-22.82 1.18-33.63-2.45 4.07-1.18 8.48-1.48 12.32-3.41 4.43-4.13 2.48-10.87 3.32-16.18-13.84-1.35-28.88 2.68-41.73-4.1 4.02-1.63 8.04-3.67 10.91-7.04 8.53-9.33 15.29-20.06 23.21-29.88m-10.81 22.31c-3.15 4.71-7.64 8.25-11.09 12.71 9.71.78 19.47.6 29.22.37-2.73-9.84.83-19.98-.73-29.97-8.2 2.61-12.69 10.38-17.4 16.89zM61.051 11.643c1.96-.05 3.92-.05 5.88 0-1.96.11-3.92.11-5.88 0zM73.751 10.753c1.37-1.05 3.04 1.17 1.3 1.93-1.37 1.08-3-1.15-1.3-1.93zM70.661 14.983c1.63-.52 2.18.03 1.66 1.66-1.63.52-2.18-.03-1.66-1.66zM268.841 44.873c5.4-.77 11.34-1.51 16.29 1.4-5.45.19-11 .04-16.29-1.4zM287.021 44.103c1.23-.87 2.51 1.24 1.32 2.04-1.2.82-2.47-1.26-1.32-2.04zM291.031 44.083c.87-1.14 2.84.32 1.92 1.46-.88 1.14-2.84-.32-1.92-1.46zM932.571 86.123c1.51.01 1.24 2.45-.16 2.38-1.54-.01-1.27-2.45.16-2.38zM927.031 87.933c1.4-2.19 3.14 1.91.56 1.29l-.56-1.29zM525.651 109.903c13.12-5.22 27.85-4.28 41.44-1.59 10.32 3.45 15.71 13.38 22.3 21.16-.68-2.74-1.56-5.41-2.46-8.07 5.95 5.08 7.99 12.72 11.33 19.46-2.67-.74-5.34-1.44-8-2.18-2.1 10.51-4.19 21.75-12.48 29.4-7.18 8.95-19.69 9.69-30.25 9.64-12.17-.11-24.68-4.88-32.66-14.27-6.72-8.73-8.08-20.14-8.55-30.77 1.62-10.33 10.92-17.67 19.33-22.78m23.17-1.66c-5.28.51-11.71 1.07-15.03 5.85-7.56 11.11-6.48 25.59-5.76 38.31.97 7.24 3.43 15.81 10.56 19.27 6.36 3.02 14.06 2.91 20.68.94 8.09-5.58 10.41-16.47 9.53-25.73-.84-8.09-2.09-16.15-3.28-24.19-1.29-7.85-8.4-14.98-16.7-14.45zM617.441 113.753c11.21-8.74 26.01-7.93 39.47-7.33 9.34-.58 16.54 6.17 22.72 12.23 6.17 7.76 9.36 18.27 6.75 28.06-1.32 9.42-6.91 17.12-11.54 25.09 4.94 1.17 9.96 1.87 14.98 2.72-10.75.97-21.67.03-32.26 2.55-10.5 2.52-21.34-.06-31.38-3.22-8.78-5.26-16.84-13.17-19.04-23.5-.95-5.89-3.26-11.56-3.82-17.5 2.25-7.73 8.15-13.96 14.12-19.1m21.49-4.43c-8.15 1.88-11.27 11.27-12.2 18.58-1.51 12.54-2.82 26.53 3.86 37.87 2.47 4.41 7.04 7.53 12.18 7.83 6.1.41 13.91 1.08 18.26-4.22 6.87-9.27 7.46-21.73 5.03-32.67-2.03-8.15-.76-18.55-7.85-24.6-5.09-4.85-12.99-3.38-19.28-2.79zM703.191 106.853c8.71-.76 17.5-.71 26.21.17 3.72.49 4.58 4.83 6.37 7.48 3.41 7.64 7.43 15.02 12.38 21.78 1.81 2.55 5.1 3.1 7.85 4.11 5.32-11.65 11.4-22.93 16.53-34.67 8.83.07 17.66.19 26.51.47-2.76 2.88-7.3 4.71-8.05 9-1.17 12.31-.2 24.67-.35 37 .04 5.75-.61 11.67 1.27 17.24 1.55 2.97 5.06 4.02 7.71 5.78-11.66 2.38-23.63 1.77-35.38.62 3.53-3.12 8.49-6.35 7.05-12.01-.88-14.09 1.84-28.68-2.28-42.41-4.26 6.71-7.61 13.95-10.98 21.13 2.18.59 4.36 1.17 6.56 1.72-2.72 1.56-5.58 2.98-8.24 4.62-4.42 5.7-7.67 12.22-11.65 18.24-9.61-17.27-17.4-35.82-29.99-51.21-1.59 10.34-1.68 21.01 1.26 31.1 1.3 6.62 1.52 13.44 3.37 19.96.9 3.45 4.24 5.2 6.89 7.17.08.73.23 2.19.3 2.91-9.06.74-18.2.02-27.19-1.05 4.57-2.83 9.53-6.18 10.33-12.01 2.62-16.2 1.96-32.75 2.62-49.09-.19-4.92-5.64-6.02-9.1-8.05zM135.711 106.773c19.31.9 38.64 1.23 57.98 1.14-2.49 5.42-5.01 10.82-7.31 16.32-2.48-5.86-8.57-8.62-14.7-9.02.26 17.68-2.01 35.37-.71 53.02.14 4.85 4.86 6.84 8.58 8.65-11.86-.25-23.76.82-35.6-.21 2.79-1.87 5.77-3.44 8.73-5.03.85-13.27.11-26.56.83-39.83-.25-5.64 1.07-12.01-2.18-17.07-8.72-2.63-13.12 6.21-18.8 10.76.71-6.3 2.05-12.5 3.18-18.73zM206.111 107.833c11-1.24 22.09-.33 33.13-.31-1.92 2.08-4.2 4.02-5.21 6.73-.84 7.71-.58 15.48-.38 23.22 10.46.9 21.02 1.35 31.48.17-1.13-8.73 1.1-18.82-3.82-26.62-6.63-1.75-13.49-1.95-20.25-2.85 10.73-1.54 21.61-1.48 32.43-1.45 34.01.19 68.03.02 102.05.11-.46.88-.9 1.76-1.34 2.65-3.19.21-6.3.44-9.46.69.04 5.62.44 11.22.7 16.82-3.08-4.83-5.84-10.08-10.3-13.81-6.08-3.71-13.86-2.14-20.58-2.35-3.65 8.03-.38 17.57-1.03 26.13 3.54.16 7.11.78 10.67.41 4.54-2 6.43-7.03 8.91-10.99.8 8.19 1.09 16.42.75 24.64-2.59-1.91-4.82-4.24-7.44-6.09-3.88-2.58-8.63-2.49-13.07-2.72-.37 9.15-.94 18.35-.57 27.51.64 3.53 4.89 3.59 7.83 3.93 11.25.11 22.23-7.97 24.84-19.01.09 7.28.29 14.56.57 21.84-18.38.9-36.76-.37-55.14.07 4.64-12.39 1.39-25.92 2.58-38.79-.14-8.43 3.5-18.37-.81-26.09-8.19-3.53-17.93-2.77-26.51-1.17-3.35.8-3.74 5.23-4.1 7.89-.55 6.68.12 13.37.7 20.03 6.68.25 13.37.38 20.05.68-6.79.79-13.6 1.46-20.41 2.02.21 9.85-.5 19.83 1.32 29.58.62 2.62 2.7 4.51 4.41 6.47-11.65-.13-23.37.66-34.99-.35 3.72-2.57 9.96-3.33 10.72-8.63 1-8.81 1.38-17.7.74-26.56-7.67-.62-15.34-1.07-23.02-1.31-3.12-.11-6.47.56-8.84 2.73-.63 8.53-.72 17.14-.04 25.68.36 3.86 4.01 5.8 6.85 7.77-9.71-.29-19.42-.34-29.12.14 1.34-1.32 2.69-2.64 4.03-3.96.03-10.56.03-21.12 0-31.67-1.59-.38-3.17-.78-4.74-1.16 7.76.43 5.09-7.54 5.94-12.01-.37-5.01.96-10.77-1.86-15.28-2.29-1.98-5.1-3.19-7.67-4.73zM417.951 107.953c19.79-2.13 39.72-.95 59.58-.81 7.56 8.91 11.1 22.04 5.11 32.64l10.99.12c-1.43 1.37-2.62 3.05-4.34 4.09-6.85.53-13.74.04-20.59.65 2.89 7.5 7.83 13.98 12.5 20.45 2.34 2.51 4.07 6.01 7.32 7.53 3.91 1.44 8.13 1.92 12.16 2.97-9.66 1.51-19.45 2.36-29.24 2.26-2.51.17-4.56-1.5-5.81-3.51-4.86-7.42-9.08-15.31-14.88-22.07-1.93 2.02-4.09 3.86-5.64 6.2-.69 4.22-1.4 9.05.77 12.98 1.72 2.57 5.02 3.21 7.58 4.62-9.73-.21-19.45-.23-29.17-.03 5-8.11 1.7-17.96 2.66-26.91-.06-12.03 2.87-24.01 1.24-36.02-2.65-2.91-6.85-3.47-10.24-5.16m29.56 4.51c-1.13 9.22-2.23 18.46-2.22 27.77 5.56.31 11.12-.05 16.69-.03 5.19-6.93 7.65-17.99.73-24.62-3.5-4.81-10.08-4.66-15.2-3.12zM673.601 107.083c.85-1.09 2.92-1.09 3.78 0 .03 1.73-3.82 1.73-3.78 0zM195.731 107.923c1.57-.03 4.69-.08 6.26-.11.03 1.97.11 3.94.21 5.91-2.58-.37-5.17-.72-7.74-1.05.44-1.58.87-3.16 1.27-4.75z"/><path d="M744.971 126.013c2.21 2.07 4.03 4.51 5.53 7.14-1.95-2.3-3.77-4.71-5.53-7.14zM632.641 136.213c3.99-.82-.86 3.98 0 0zM758.631 149.933c1.36-.55 2.22 1.79.73 2.16-1.42.55-2.24-1.77-.73-2.16zM486.511 163.023c.79-1.05 3-.87 3.32.52-.15 1.88-3.85 1.27-3.32-.52zM367.071 175.003c6.91-.98 13.94-.91 20.81.31-6.94.14-13.88.04-20.81-.31zM456.031 174.933c1.4-2.19 3.15 1.91.56 1.29l-.56-1.29zM506.031 175.153c2.32.29 4.65.7 6.92 1.32-2.34-.29-4.66-.7-6.92-1.32z"/></g></svg>