<svg version="1.1" id="Layer_1" xmlns="http://www.w3.org/2000/svg" x="0" y="0" viewBox="0 0 1224 489" xml:space="preserve"><style>.st0{fill:#fff}.st2{fill:#fce655}</style><path d="M896 192v-15h-43v38l-1-1-5-13-5-14-2-4-1-3-1-3h-34v143h43v-33l3 1 5 12 8 18 1 2h29l2-1 1-3v-11l1-2v-2l-1-1v-4l1-1v-3l-1-1v-4c2-2 1-4 1-5h-1v-4l1-1c1-2 0-3-1-4v-3l1-3-1-3v-3l1-3-1-3v-3l1-2v-4l-1-1v-1l1-1 1-3-1-3h-1v-1l1-1 1-4-1-1v-1l-1-2 1-1 1-2-1-4v-1h-1l1-2 1-3-1-3-1-1v-1h1v-1l1-4-1-2v-2l1-3v-1l-1-4h-1zm-48 89h-1v-2l3 1-2 1zm4-57-2-1c-1-1 1-2 2-2l2-2v6l-2-1zm-93-47h-1l-1 1-1 6-1 3-5 18-1 1v3l-2 6h-1l-1 1-2-1-6-20-5-17v-1h-46l1 2 1 4 1 1 2 6 5 15 1 1v2a172 172 0 0 1 4 12l-2 2 1 3 5 2h2-1l-3 2v1l-1 2 2 2 4 2h2l-1 1h-2l-2 3c0 2 2 3 3 3l2 1 3 1-1 1h-1l-2 1-1 3 2 2 2 1h2l1 1h1l-1 1h-1l-3 2v2l3 2 2 1 2 1h1l-1 1h-1l-2 2-1 1 2 2 2 1 1 1v3l-1 2v1l1 1v42h49v-42l2-1v-2l-2-1v-3l2-1h1c1 0 2-1 2-3l-1-2-3-2h-1a44 44 0 0 0 6-2l3-2v-2l-3-2h-1l-1-1 3-1h1l1-1 3-1v-2c0-2-1-2-2-3l-3-1h2l2-1 4-2h1v-1l-2-3-2-1h-1v-1h1l2-1h1l2-1 2-2-2-3-2-1h-1l1-1h1l2-1 3-1 1-1v-2l-2-2h-1l6-15 10-26 1-2h-45zm-12 46h-2l-2-1h1l1-1 2 1v1zm157-46h-1v2l-1 33v106l2 2h84l4-1 1-6v-22h-1l-2-1-11-6-1-1-3-1-1-1h-33v-7h4l3-1h13l3-1h1l4-1 1-2-1-1-3-1h-2l-8-1h-1l10-1h9l3-2v-2l-1-2 2-2v-2l-1-1h-1l1-2 1-1 1-3-2-3v-2l1-3c1-3-1-4-2-4l-5-1h-9 5l4-1 2-1 1-2h-1l-3-1-6-1h-10l2-1h10l2-2v-1l-5-1-2-1h-18l-2-1v-7h34l2-1 11-6h1l4-2v-29h-89zm-688 0h-2v1l-6 12-8 16-4 1-3 3 2 2 2 1h3l-1 1h-2l-4 1c-1 1-4 1-4 4l3 2 1 1h2l-3 1-2 1h-4l-3-1-2-1 2-1h1c1 0 3-1 3-3l-2-2-2-1h-3l-4-1 2-1 2-1c1 0 3-1 3-3l-3-2-4-1-7-14-3-7-1-2-2-4v-1l-1-1h-46v143h42v-42h1l7 2h2-2l-2 1c-1 1-3 1-3 3s2 2 2 2h1l4 2 16 31v1h5v-1l17-31 4-1 3-3c0-2-2-2-3-3l-3-1h-1l4-1 3-1h2v42h44V177h-43zm-55 95h-1l-1 1v-3l5 1-3 1zm29-40h-2l-4-1h2l1-1h1l2 1h2l-2 1zm25 40h-2l-2-1h1l3-1v2zm379-8-3-1h-4l3-1 5-1h5l3-1 1-2c1-3-2-3-3-3l-4-1 1-1 1-2v-5h-1v-2l2-3-2-4v-2l1-2c1-2 0-3-1-4v-2l1-1 1-3-1-3-1-1v-1l1-1 1-4-1-2-1-1 1-2 1-1v-1c1-2-1-4-1-5l-1-1v-3l-2-2v-1l-6-6-2-2-3-3-4-4-1-1-1-1h-71l-2 2v141h43v-39l2-1h9l5-1h18l4-1h2l3-1v-2c0-1-1-2-3-2l-8-1h-11l-9-1h-2 21l13-1c2-1 4-1 4-3s-1-3-3-3zm-40-23h-5v-2h8v1l-3 1zm-5-8v-24h7v24h-7zm152 71-3-20v-2l1-3-3-3-1-1 1-1s2-2 1-4l-2-2v-1h-1l-1-1h1l2-3-2-4h-1l-1-1v-1l2-2c2-2-1-4-2-5h-1l-1-1h1l2-4c0-2-2-3-3-4l-1-1 2-3c1-2-1-4-2-5h-1v-1l2-3-2-4-1-1h-1v-1h1l1-2 1-2-2-3h-1l-1-8v-1l-3-16-2-12v-1h-61v1l-1 7-2 12-1 2v3l-1 4v4l-1 5-2 4 2 2v1h1l-1 1-1 1-2 2c-1 2 1 4 1 4l1 1h-1v1c-1 1-4 3-2 6l1 1 1 1-1 1c-2 0-3 2-3 4s1 3 2 3v1l-1 1-2 2c-1 3 1 5 1 5h1l-1 1v1l-3 2c-1 2 1 4 2 4v2l-3 3h-1l2 4 1 1h-1v1l-3 3v3l1 1v1l-1 2v1l-1 6v2l-2 14-1 9-1 2h44v-2l1-5 1-8 1-3v-7h13v2a275 275 0 0 1 1 10l1 5v2l1 4v2h45l-1-2-2-14zm-51-85v1l-1-1 1-2v2zm1 39h-4v-1h6v1h-2zm2-13v1c-1 1-2 2-1 4h-5l1-2-1-2-1-2 1-1c1 0 2-1 2-3l-1-3-1-1 1-1 2-3-1-4h-1v-1l1-1 1-2 1 2 1 1v1h-1l-1 4 1 2 1 1 1 1-1 1-1 3 2 4 1 1h-1zm-170-68h-49v1l-13 32h-1l-14-32v-1h-47l1 2 20 40h-1v1h-1c-1 0-3 1-2 3l2 2 1 1h1l5 1 1 1h-2l-2 1c-1 0-2 1-2 3l4 3 4 1h3l-1 1h-2l-1 1-2 1v2c0 2 2 2 3 2l1 1v1l1 2-1 3v1l-3 1-1 2c-1 1 0 2 2 3l3 1h-1l-1 1h-2l-2 1c-1 0-4 1-4 3s2 2 3 2v1h2l1 1-6 1v1l-3 1-1 2 3 3h1l2 1h-1l-2 1h-3l-3 2-1 2 2 2 2 1 2 1h-2l-2 1v1l-1 1-2 3v1l-1 2v1h-1v1l-1 1-2 6-1-6-2-10v-1l-2-1v-1l2-3v-2l-2-3h-1l-1-1h1l2-4-1-2-1-1h-1v-1h-1v-1h1l1-2c1-2 0-3-1-4l-1-1-1-1v-1c1-1 3-2 2-5l-2-2h-1l-1-1h1l2-5h-1l-1-2-1-1-1-1c1-1 3-3 2-5l-2-2-1-1h-1l1-1c1-1 3-3 2-5l-3-2-1-1 1-1 1-2c2-2 0-4-1-4l-7-38v-1h-61v1l-6 38h-1l-1 1v1c-1 2 1 3 2 4v1h-1v1c-1 0-4 3-2 5l1 2h1l-1 1-1 1-2 3 2 4h1l-2 1-1 2c-1 0-2 2-1 3l1 2 1 1-1 1h-1c-1 1-3 3-2 5v1h1l1 1 1 1h-1v1h-1c-1 0-2 1-2 3-1 2 1 3 2 4v1h-1v1l-2 2-1 2 2 3h1l-1 1-3 3c-1 2 1 4 1 4h1v1l-1 1v1l-1 1-2 17-2 14-1 2h44v-2l3-20v-1h13l1 10 2 11v2h81l1-1 5-13a663 663 0 0 1 9-18h1l2 3v1l1 1v2l1 1 1 1 3 7 1 4 2 3 3 8v1h47l-1-2-6-15-2-4-5-10-1-1v-2l-1-1h-2l-2-1 4-1s2-1 2-3-2-2-3-3h-1l-3-1-3-1h1l2-1c1 0 3-1 3-3s-3-2-4-3l-3-1-3-1 3-1h1l1-2-1-3-2-1h-4l-3-1 3-1c1-1 3-1 3-3 1-2-2-3-3-4h-1v-1l-1-2 1-2v-2h2l2-2c1-1 0-3-2-4h-1l-2-1h-1 1l6-1v-1h1c3-1 3-2 3-3l-3-3h-1l-2-1h3l2-1h1c2-1 4-1 4-3 1-2-1-3-2-3l-1-1 20-40 2-2zm-168 42v-1 2-1zm-4 25 1-1 2-4-1-2-1-2h1c1-1 2-2 2-5l-1-1v-1h-1v-1l1-1v-1l1-1 1 2 1 1v1l-1 1-1 3 2 2v1l1 1-1 1v1l-1 3 1 1 1 1v1l1 1h-1l-1 3v2h-4v-2l-1-3h-1v-1c0 1 0 0 0 0zm4 14h-3v-1h6v1h-3zm104 22h3-3zm435-61-2 2c-1 0-3 1-2 2l2 1 2 1v-6zm-1 4h-1v-1h1v1z"/><path class="st0" d="m679 178 4 28 2 9v1l2 2v1l-1 1-1 3 2 2 2 2-1 2-2 2 2 2c1 1 3 2 2 4 0 1-2 1-2 3v1c1 1 4 2 4 4l-2 2-1 2 2 2c1 1 3 2 2 3l-3 3 1 1 2 2 2 2-2 2c0 1-2 2-1 3l2 2 2 2-1 2-2 3 2 2 2 2v1l-1 1v2l6 34h-42v-6l-1-12-1-3v-4h-16v5l-1 7-2 13h-41l4-22v-3l1-6 1-4v-1l-1-1v-1l2-3 2-2-2-2-1-2 3-3 1-2-1-2c-1 0-2-1-1-2l2-2c0-1 2-1 2-3l-2-1-1-3 2-2 2-1v-2l-3-3c0-2 1-2 2-3 1 0 3-1 2-3l-2-2c-1-2 1-3 2-4l2-2-1-2-2-2 2-2 2-2-1-2-1-2 1-2 1-1v-1l1-8 1-5 1-5 3-18 58-1zm-25 73v-2c-1-1 0-2 1-2l1-3c-1-1-3-2-3-4l2-4-3-3v-1c-1-2 1-3 1-4v-2l-2-3h-2c-1 2-3 2-3 4l1 2 1 3-1 1-2 2 1 2 1 3c0 2-2 2-3 4l2 4-1 3-1 1h11l-1-1zm-3-29v-10h-2l-1 4v4l1 2h2zm-7 34 1 1-1 3h11v-5l-11 1zm12 11h-12v-1h12v1zm-197-47 2 1 2 1-3 2-3 1-4 1-3 1c-2 1 2 2 3 2l4 1 1 1-1 2h-2l-7 2c-1 0-3 1-2 2l3 1 3 1 2 1-1 1-3 1-4 1h1l3 2-1 1-3 1h1l1 1 1 1-1 1-2 1h3l2 1 3 2-2 1-4 1-2 2 2 1 4 1 3 1h2v2l-1 1-3 1-3 1 3 2 7 2 2 1-2 1-4 2-2 1 2 1 8 3 2 1-1 1-4 1-2 1c-1 1 0 2 1 2l5 1v1l1 1v2l7 14 7 14h-44l-3-8-3-7-3-8-1-2v-1l-1-1c-1-2-1-4-3-5h-2l-3 1-13 31h-78l-3-23h-16l-1 3-2 20h-40l4-31 1-1c1-1 2-2 1-3l-1-1c-1 0-2-1-1-2 0-2 3-3 3-4v-1l-2-4v-1l2-1 2-1v-2c-1-1-3-2-2-4l2-2 2-2-1-2-2-1c-1-2 1-3 2-4l1-1 1-1-1-2-1-1v-2l2-2 2-2c0-1-3-2-3-4l2-2c1-1 3-2 2-3l-2-2c-1-2 1-3 2-4l1-1v-2l-2-4h1l1-1 6-38h58l6 38c2 1 3 1 2 3 0 1-2 1-2 3v1l4 3c1 2-4 3-3 5l2 2 2 2c1 2-3 3-2 5l1 2 2 2c1 2-1 2-2 4-1 1 1 2 2 2l2 2c1 1-1 2-1 3l-2 2 2 2 2 2v2l-1 1c-1 1-2 1-1 2l2 2 1 2 1 1c0 1-3 2-3 4l1 2 3 2v1c0 2-3 2-3 4l3 2 3 22 1-2 4-8 1-2 1-2 1-3 2-4 3-1 2-1c1 0 2-1 1-2h-2l-4-2c-1 0-2-1-1-2l4-1h1l5-2h1l1-1-2-1-4-2c-1 0-3-1-2-2l3-1 7-1 1-1 1-1-1-1-5-2-2-1 2-1 3-1h1l2-1h2c1-1 3-1 2-2l-3-1-3-2-2-1 1-1 4-1 2-1h1l-2-1h-1l2-2h1l-3-2v-1l1-1h2l-1-1-4-1c-1 0-3-1-2-2l2-1h2l2-1 2-1-1-1-2-1-7-2-3-1 1-1 2-1h2l1-1h2v-2l-10-2-2-1-1-1 2-1 3-1-1-2-20-40h44l14 33 1 1 2-2 13-32h44l-20 41zm-145-8v3l-1 3v3h1v1h2l1-1v-2l-1-2v-5h-2zm-4 31-1 1 1 1 1 3v2l-2 2h12l-2-3 1-4v-2h-1l-1-2v-2c0-1 2-2 1-4l-1-2-1-1v-2l1-1v-3l-1-1-1-3h-3l-1 2-1 1v2l1 2 1 1-2 4c-2 1-1 3 0 4l1 1-2 3v1zm-1 13 1 2-1 1 11 1-1-3 1-1h-11zm12 11h-12v-1h12v1zm98 15 4-1h1v-2l-4-1h-3l-2 2 1 1h2l1 1zM258 178v140h-41v-50l-3 1-5 1-2 1 2 1 5 2 2 1-3 2-7 2h-2l-1 1 2 1 5 2 2 1-2 1-5 2-17 31h-2l-16-31-5-2-2-1 2-1 2-1 3-1 2-1-1-1h-2a170 170 0 0 1-11-4l2-1 5-2 2-1c1-1-1-1-2-1l-8-2v50h-39V179h43v1l3 6 11 21 5 2 1 1-2 1-3 1-3 2 3 1 6 2 2 1 1 1-2 1-4 1-2 2 3 1a372 372 0 0 0 7 2h4l5-2 2-1h1l-2-2-4-1-2-1 2-2 6-1 3-1 1-1-2-2h-2l-3-1-1-1 1-1 5-2 14-28h1l42-1zm-72 51h-1l-3 1-1 1 1 1 2 1 6 1 2-1 3-1c1-1-1-2-1-2l-3-1-3-1-2 1zm0 12h4l1-1-2-1-1-1-3 1 1 2zm-28 12-1 1h2l-1-1zm57 1 2 1v-2l-2 1zm-57 11 5-2v-1l-5-2v5zm59-5-4 1-1 1v1l2 1 3 1v-5zm382-54c-1 1-3 2-3 4v1l2 2c1 2-1 3-2 5v1l2 4-2 3v1l2 5-1 3-1 1v1l2 4-2 4 1 2 1 2v2l-1 1-5 1h-3l-2 1h2l11 2 3 2-1 1h-3l-9 1-6 1h-3l-3 1 2 1 11 2 2 1 2 1-2 1-15 1h-11l-13 1-5 1v1l4 1h17l5 1h5a101 101 0 0 1 10 1c1 1-1 1-2 1l-2 1h-5l-11 1h-19c-2 0-4 0-4 2v38h-39V179h70l1 1 8 8 8 7 1 2v2l1 2v1s2 1 2 4zm-52 1v28h11v-28h-11zm1 30h-1v5h11v-5h-10zm-1 11v2h11v-2h-11zm442 43 2 1v20l-1 5-2 1h-83l-1-1V178h88v26l-5 3-11 5-2 1h-34l-1 1v9l1 1h6l10 1h7l3 1h-7l-7 1h-10l-3 1 5 1 4 1h12l10 1 1 1h-1l-5 1-7 1h-10l-3 1-1 1h8l7 1a220 220 0 0 0 16 0c1 1 2 1 1 3v2l-1 2 1 2 1 2-1 2c0 1-2 2-1 4v1l1 1c1 1 0 1-1 1h-12l-1 1c-1 1 1 1 2 1h8c2 0 3 1 3 2l-1 2h-6l-14 1h-6l-4 1h-2l1 1 3 1h9l9 1 1 1h3l-4 1-4 1h-7l-8 1h-4l-2 1v9l3 1h32l4 2 11 6zm-93-94-1 2v2c-1 1 1 2 1 4l-1 3v4l1 2c0 2-2 3-1 5l1 2v3l-2 3 2 4v1l-2 3v2l2 3-2 4v1c0 2 2 3 1 5l-1 3v2c0 1 2 2 1 3l-1 4v2l1 3-1 3v2c0 2 2 3 1 4l-1 3v3l1 1-1 3v5l1 1v2l-1 2v3l1 2v1l-1 2v14h-29l-14-32-4-1-1-1 1-1 4-2 2-1-2-1-6-2v41h-39V178h31l1 3 2 7 11 28 4 1v-39h40v14l1 5zm-42 23s0-1 0 0l-2 1c-1 0-3 1-2 2l2 1 2 1v-5zm-2 11 2 1v-2l-2 1zm-7 42 3-1 1-1-4-2v4zm-114-95 10 38 4 2-2 2c-1 1-4 2-3 3l2 1 3 1 2-1 2-1c1-2-1-2-2-3l-1-1-1-1 2-1 2-1 2-10 6-19 2-9h42l-16 42 2 1c1 0 2 1 1 2l-5 2-2 1c-1 0-3 0-2 1l1 1 4 2 1 2-3 1-2 1h-2l-2 1-1 1 2 1 1 1 3 1 1 1-5 3h-3l-2 2 1 1 4 1 1 2c1 1-1 1-2 1l-5 2c-1 0-3 1-2 2l5 2 1 2-2 1-5 2-1 1v2l4 2 1 1-2 1-3 1v5l1 1-1 2v41h-46v-30l-1-8v-4h-1v-1l1-1 1-2-1-3-3-2-1-1 2-1 2-1v-3l-2-1-4-1s-2-1-1-2l2-1 3-1v-2l-4-2-4-1v-2l3-1 2-1 1-1-2-2-5-1c-1-1-3-1-2-2l1-1 3-2c1 0 2-1 1-2l-2-1-5-1c-1-1-2-1-1-2l4-3 1-1-2-1-6-3c-2-1 1-2 2-3l-4-13-1-2-8-21-2-5 1-1h42zm13 52h-1c-1 1 0 2 1 3h1l1-1 1-1v-1l-2-1-1 1z"/><path d="m1109 240-2-1-15-1 10-8v-53h-90v36l1 1h51l-1 1h-18l-5 1v2h1a290 290 0 0 0 13 2l-14-1h-10l-1 1h-5v1l1 1h6l1 1h18c1 0 1 0 0 0l-15 1h-6v1h-1l1 1 1 1 13 1h1l-5 4v25l-1 1 1 1h1v1h25v4h-26v1h-1l-1 1 1 1h1v1h26v14h-20v-9h-33v28l18 18 3 1h50l1-1 18-17v-51l-4-3h1l4-1 1-1v-1l-1-1h-1l-7-1 11-1h1l2-1v-1z" fill="#ce5b39"/><path class="st2" d="M1032 179v-1 1zm1 0v-1 1zm-19 29c0-1 0 0 0 0h2v1h1-1l1 1v-1l1 1h-2v1-1h-1v1h-1 8l1 1v-1 1-1h1s0 1 0 0h6v1-1 1-1 1l1-1 1 1h1v-1c0-1 0 0 0 0l1 1v-1s0 1 0 0c0 1 0 1 0 0v1-1h1v1l1-1v1-1 1l1-1v1h2v-1 1h1v-1h1v1h1v-1h1v1h1v-1h1v1h1v-1l1 1h-1 1-1 2v-1h1l-1 1h2v-1 1h2c0-1 0 0 0 0v-1h1-1v1h2v-1 1h2-1l1-1v1h2-1l1-1v1-1 1h2v-1 1h2v-2h-4c0 1 0 1 0 0h-2v1-1h-2v1-1c0 1 0 1 0 0h-2v1-1h-2v1-1 1-1h-3v1l-1-1h-1v1l-1-1h-1s0 1 0 0v1-1h-2v1-1h-2v1l-1-1h-5v1l-1-1h-15v-1h1v1h1s-1 0 0 0v-1 2-1h1v-1 1h1-1 4-1 1v-1 1-1l1 1v-1 1l1-1v1-1h1-1 6v-1h-1 1v1h1v-1 1h1l1-1h1v1-1 1h1l-1-1h1s-1 0 0 0v1h1v-1l1 1v-1 1-1l1 1v-1 1-1h3v1-1 1-1l1 1v-2 1h1-1 1v1-1h1v1l1-1s0 1 0 0v1-1h1v-1 1s1 0 0 0h1-1 1v1-1 1h1v-1h1-1 1v1h1v-1h1v1h1v-1h1v1h1v-1l1 1h1v-1h1-1l1 1h1v-1h1v1h1v-1h1v1h1v-1 1-1h1-1v1h2v-1 1-2 1h1v1-1 1-1 1h1v-1h2v-1h1v2-1c0 1 0 0 0 0l1 1v-1 1-1h1v2-1h1v-1h1-1 1v1-1 1-1 1-1l1 1v-2 1-1l1 1h-1 1-1l1 1v-1h1v-1 1h2v-1h1v1h3-1 2-1 1l-1-1h1v1h2v-1 1h3v1-1h1v1-1 1h1v-1 1h1-1v-1h1v1l1-1h-1 2v1h-1v-1s0 1 0 0l-1 1v-1h1v1h-1v1-1 1l-1-1h-1 1v1-1l-1 1v-1 1-1 1h-5 1-3v-1l-1 1h-4l-1-1v1-1 1-1h-1v1l-1-1v1-1 1-1l-1 1v-1 1-1h-1s0 1 0 0v1l-1-1v1s0-1 0 0h-1v-1 1s0-1 0 0l-1-1v1h-1v-1 1-1l-1 1h-5v-1 1-1 1h-2l-1 1h1v1h1v-1h1v1h1v-1h1v1h1v-1h1l-1 1h2v-1h1-1 1v1h1v-1 1h2c0-1 0 0 0 0v-1 1h2v-1h1v1h1v-1h1v1h1v-1h1v1h1v-1h2l-1 1h2l-1-1h1v1-1 1h1v-1h1v1h1v-1 1-1h1v1h-1 2v-1 1h1v1-1 1-1 1-1h3v-1 1h4-1 1v1-1 1h-1 1v-2 1h2v-1h-1 1s-1 0 0 0h-1 1v1-1 1h1v-1 1-1h-1 1v-1h-3l1-1h-1 1s-1 0 0 0h-1c0 1 0 1 0 0v1-1h-1v1h1-1v-1h-1 1-1l1-1v1h2v-1 1-1s0 1 0 0h1v-1h1-1 1-1l1-1h-3 1-1 1-1 1v-1h-1 2v-1 1h1v-2h-2v-1h1-1v-1 1-1h2v-2h-2 1s-1 0 0 0h-1 1-1l1-1v-1h1v-1h-1v-1 1-1s0-1 0 0v-1h1v1-3s0 1 0 0h-1v-1h1v-1h1v-1h-1v1-1h-1s0-1 0 0v-1h1v-1h1-1v-1 1l-1-1h1v-2h1-1v-1h-1 1-1v-1h1v-2h-3v-1h-5s1 0 0 0h-11c-1 0 0 0 0 0h-1 1-2v1-1 1-1h-1s0 1 0 0h-3s0 1 0 0h-6v1-1h-1v1-1 1h-1v-1 1h-1v-1l-1 1v-1 1-1 1-1h-1v1-1 1s0-1 0 0h-2c0-1 0 0 0 0h-6c-1 0 0 0 0 0h-9v-1h-2v-1 1h-4 1-8 1-5v-1s0 1 0 0v1h-2v-1 1h-1 1v-1l-1 1h-2 1-1 1-2v-1 1-1 1-1l-1 1v-1 1-1 1-1 1-1 1l-1-1v1-1 1h-4v1-1h-1v1-1h-1v1l1-1v1-1l-1 1h1-1 1v1h-1 1v2-1l1 1h-3 1v1-1 1-1h-1 1-1l1 1h1l-1-1h1v2-1h1v1h-1 1-1v1-1 1h-1 1-1v2h1-1v1h1v-1 1h-1v1h-1 1v1h-1 2v1l-1-1v1h1-1 1v1-1 1h-1l-1 1h1-1v1h2-1 1c0-1 0 0 0 0v1-1 1h-1v1h-1v1-1l1 1v2h-1v2-1 1h1v-1 2h1-1v1-1 1-1 1s0-1 0 0h-1v1h1v1l1 1h-1v-1 1h1-1l-1 1v-1h-1v1c0-1 0 0 0 0zm1 3v-1 1zm1 0v-1 1zm40 1zm3-1zm2 0zm-3 0zm-2 0zm-1 0zm0 0zm-2 0zm0 0zm-2 0zm-9 0zm-8 0zm-12-1zm0 1zm42 0zm6 0zm0-1zm2 1zm2 0zm1-1zm1 1zm0 0zm1 0h-1 1zm4-1zm3 1zm0 0zm1 0zm1 1zm1-1zm0 0zm2 0zm0 0zm2-1zm0 1zm1 0zm0 0zm6 1zm-1-2s1 0 0 0zm0-1zm0 0zm0 1zm-1 1h1-1 1v1h-1v-1zm0 1zm0-3v1-1zm4-5zm-2-2c0 1 0 1 0 0zm0 1zm0 0zm0-1zm1-5zm0-2zm0-7zm0-1v1-1zm0-2zm0-4zm0 5zm0-1zm0-3zm-1 19zm0 1v-1 1zm0-2zm0-1zm0 2zm0 0zm0-2zm0-1zm0-5c1 0 1 0 0 0zm0 2zm0 0zm0 1v-1 1zm0 0zm0-1zm0 4v-1 1zm0 0zm0 0zm0 0zm0 0zm-1 7zm0 0zm0 0zm0-1zm1 3zm0 0zm0 0h-1c1 0 0 0 0 0h1zm-1-2zm0 1h1v1l-1-1zm0 1zm0-2zm0-4zm0 3zm0 0zm0-1zm0-2zm0 2zm0-2zm0 0zm0 3h-1 1zm-1 0zm0 3v-1 1zm0-2zm0 3v-1 1zm0-3zm0 3zm0 0zm0-3zm0 0zm0 0zm0 0zm0-1zm0 0v1-1zm0 1zm0-1zm0 5h-1v-1l1 1zm-1-1zm0-3zm1 3zm0 0c0 1 0 1 0 0 0 1 0 1 0 0zm0-3zm0-1zm0 4h-1 1zm0-3c-1 0-1 0 0 0zm-1-4zm0 3zm0 0v1-1zm-1 1zm0 0h1-1zm1 3h-1v-1h1v1zm0-3h-1 1zm0 3zm0 0zm-1 0v1-1zm0 1h-1v-1h1v1zm0 1zm1 1h-1v-1l1 1zm0-1zm0 0h-1 1zm0-1zm0 0h-1v-1h1v1zm0-1zm0-3zm0 3zm0 0zm0-4v1-1zm0 1v-1 1zm0-1zm0-1zm0 1zm0-3zm0 0zm0 0zm0 7v-1 1zm0 0zm0-7zm-1 3h1-1c-1 0 0 0 0 0zm0-3zm0 4zm0-4zm-68 7zm0-3s1 0 0 0zm1 3zm0-1zm0 1zm0-1zm1-1zm1 1zm1-1h-1 1s-1 0 0 0zm1 2v-1 1zm0-1zm0-1zm1 0zm0 0zm1 1c-1 0 0 0 0 0zm0 0zm0-1zm1 0zm0 2zm2-1s1 0 0 0zm1 0zm0-1zm0 1zm0-1zm2 1h-1 1-1 1zm0-1zm1 2v-1s0 1 0 0v1zm0-1h1-1zm0-1zm2 1h1-1zm2 0zm0 0zm0 0zm3-1zm1 1zm0 0zm0 0zm8 0h-1 1zm0 1zm5-1zm0 0zm1-1c-1 0-1 0 0 0zm1 1zm2 0zm0 0zm1-1zm3 2zm0-1v-1 1zm3-2zm1 2h-1 1-1l1-1v1zm0-1zm1 2zm0 0zm0 0h-1 1v-1 1zm1-1h-1v-1l1 1zm0 0zm1-1c-1 0-1 0 0 0v-1 1zm1 0zm1 0zm1 1zm1-1zm3 1h-1v-1 1h1-1 1zm0 0zm0-1zm2 0zm0-1zm2 0zm1 1c0-1 0-1 0 0l-1-1h1v1zm0 1zm0 0v-1 1zm0 0zm2 0zm0 0zm0-1zm2 1zm0 0zm0 0v-1 1zm0-2zm1 0zm0 0zm0 0zm0 0h1-1zm0-1zm1 2zm0-1zm0 0zm0 2zm0-2zm0 0zm0-4zm0 3zm0-3zm0 3c0 1 0 1 0 0zm0 0zm0 0v1-1 1-1zm-1-3h1-1zm0 1zm0 2v1-1c0 1 0 0 0 0zm0-2zm0 0zm0 2zm0 0zm0 0zm0 0zm0 0zm0-3zm0 1zm0 0zm0 1zm0-2zm0 0h-1 1zm0-3h-1 1zm0 3zm-1 0zm0 1zm0-1zm0 3h1-1l1 1h-1 1-1 1-1v1-1 1-1h-3 2v-1h1zm-2 1zm1-5h-1 1zm0 1zm0-3h-1 1zm-1 3zm1 3v1l-1-1h1zm0-3zm0 1v-1 1zm0 0zm0 0zm0-1zm0 2zm0-1zm0 1zm0 2zm1-3zm0-1zm0 0zm0 3zm0-3zm0 1zm-1-1h1-1zm1 3h-1 1zm-1-2zm0 1zm0 1 1 1h-1v-1zm0-3v1-1zm0-3zm0 0zm0 3h-1 1-1 1zm-1-3h1-1zm0 3zm0-1zm0-2zm0 3v1-1zm0-3zm0 0zm0 3zm0-3zm0 3zm0 1zm0-1zm0 1zm0 2zm0-2c-1 0-1 0 0 0zm-1 1zm0-1zm0 2v-1 1zm0 0zm0-2v-1 1zm0 0zm0 1zm0-2zm0 0c1 0 1 0 0 0zm0-3zm0 0zm0 3zm0-3zm0 3zm0 0v1-1zm0 0zm0 1zm0-1h-1 1zm0 1h-1 1zm0-1h-1 1zm0-2v-1 1zm-1-1h1-1zm0 3zm0-3zm0 3zm0 1zm0 2zm0-2zm0 0v-1 1zm0-3zm0-1zm0 3zm0 0zm0 1zm0-4zm0 4h-1c1 0 1 0 0 0h1-1 1zm0 0zm-1 1zm0-1zm0 2zm1-1h-1v1-1h1zm0-2zm0 0zm0-3h-1 1zm0 3h-1 1zm-1 0v1-1zm0-3zm0 3zm0 1zm0-4zm0 0zm0 3v1-1zm0-1zm-1 0h1-1zm1 0zm0 2zm0-4zm0 0zm0 0zm0 1zm-1-1zm0 2c1 0 1 0 0 0 1 0 1 0 0 0zm0-2zm0 0zm0 3h1-1 1-1zm1 1h-1 1zm-1-1zm0-3v-1 1zm0 0zm0-1zm0 1zm0 3c0 1 0 0 0 0v1-1zm0 1zm0-4zm0 0zm0 4h-1l1-1h-1 1v1zm-1-4c1 0 1 0 0 0 1 0 1 0 0 0zm1 4h-1 1zm-1 1v1-1zm0 0zm0-1h1-1zm0-4zm0 0zm0 4v-1 1zm0 0zm0-1zm0 1c0-1 0 0 0 0zm0 0zm0-1zm0 0h-1 1zm0-2zm0-1zm0 0zm0 1zm0 1h-1 1zm0 1h-1s1 0 0 0h1zm-1-3zm0 0zm0 3zm0 1v-1 1zm0 2h-1v-1h1v1zm0 0zm-1-2zm1 0h-1s1 0 0 0v-1 1h1zm-1-1zm1 1zm0-1zm0 0zm0 0zm0 0v1-1 1-1zm0-3zm-1 3h1-1zm0 1zm0-1zm0-1zm0 1zm0 0h-1 1v1-1zm0 1h-1 1zm-1 0h1-1zm0 0zm0 0v-1 1zm1-1zm-1 0h1-1zm0-3zm0 0zm0 3c0 1 0 1 0 0zm0-3zm0 3zm-1 0h1-1zm0 0h1v1-1 1h-1v-1zm1 1zm0 2zm0 0-1-1h1v1h-1 1zm-1-2zm0-1zm0 1zm0-2zm0 1zm-1 0h1-1 1v1h-1v-1 1-1zm1 1zm-1 0zm0 0zm0-1zm0 0v1-1zm0 1zm0 1zm0 0v1l-1-1h1zm0-1zm0 0h-1 1zm-1-1zm0 0zm0 0zm0 0v1-1zm0 1zm0-1zm0 1zm0 0v-1 1zm0 0zm0 0h-1 1zm0-1h-1 1zm0 1zm0-1h-1 1zm-1 0v1-1zm0 1zm0 0zm0 0zm0-1zm0-23zm0 23zm0 1-1-1h1v1zm0 0zm0 1v1-1zm0-1c-1 0-1 0 0 0zm-1 0v-1 1zm0-1zm0 1zm0 0zm0 0zm0-1c0 1 0 0 0 0zm0 1zm0-1zm0 0-1 1h1v-1zm0 1zm-1-1h1-1zm1 1c-1 0-1 0 0 0zm-1-24zm0 23zm0 3zm0-2zm0-1zm0 0v1-1zm0 1zm0 2zm0-2zm0 0zm0-1zm0 0v1-1zm0 2zm-1-2h1-1zm1 1h-1 1zm-1 0v-1 1c0-1 0 0 0 0zm0 0zm0-1zm0 0zm0 0zm0 1zm0-1zm0 1zm0 0h-1 1zm-1 0h1-1zm0-1zm1 0h-1 1-1 1zm-1 1zm0 0zm0 0zm0 2zm0-3zm0 0v1-1zm0 3zm0 0zm0-1v1-1zm0 1zm0-3zm0 0zm0 0zm0 3c0 1 0 0 0 0zm0-2zm-1-24zm0 23zm0 1zm0-1zm0 0zm0 1zm0-24c-1 0-1 0 0 0zm-1 23h1-1zm0 0zm0 1zm0-1zm0 1zm0-1zm0 1zm0 2zm0 0zm0-1zm0-1zm0 0zm-1-1c1 0 1 0 0 0zm1 1h-1 1zm-1-2zm0 2zm0 0zm0-1zm0 0c0 1 0 1 0 0zm0 1zm0 0zm0 0zm0-1zm0 0zm-1 1zm0 0zm0 0zm0 0zm0 0zm0 2zm0 0zm0-1v1-1zm0-1zm0-1v1-1c0-1 0 0 0 0zm0 0zm0 1zm0-1zm0 0zm-1 3zm0-2zm0 0zm0-1v1-1zm0 0zm0 0zm0 1zm-1-1zm0 0v1-1zm0 1zm0 0zm0-1zm0 2v1-1zm0 1zm0 0zm0-3zm0 1zm0-1zm0 0c-1 0 0 0 0 0zm-1 1zm0 0zm0-1zm0 0c0 1 0 0 0 0zm0 1zm0-1zm0 0v1-1zm-1 0h1-1zm0 1zm0 0h1-1zm0 2v-1 1-1 1zm0 0zm0-3zm0 0zm0 0zm0 0zm0 0zm0 1zm0 0zm0-1v1l-1-1h1zm0 0zm-1 0zm0 1zm0-1zm0 1zm0 2v1-1zm-1-3h1l-1 1c1 0 0 0 0 0v-1zm1 1zm-1 0zm0 0h1-1zm0 2v-1h1l-1 1zm1 0h-1v-1l1 1zm-1-3zm0 1zm0 0zm0 0zm0-1zm0 0zm0 0c0 1 0 1 0 0zm0 1zm-1-1zm0 0v1-1zm0 1zm0 0zm0-1zm0 1zm0-1v1-1zm0 1zm0 2h-1v-1h1v1zm0 0h-1 1-1 1zm-1-2zm0 0zm0 1zm0 1zm0-2h1-1zm1 0zm-1-1h1v1l-1-1zm0 1zm0 0zm0-1zm0 0zm0 0zm0 0h-1 1zm0 1zm0 0zm0 0c-1 0-1 0 0 0zm0 0zm-1-1c1 0 1 0 0 0zm0 3h1-1zm0-3zm0 0v1-1zm0 0zm0 0zm0 1zm-1 0h1-1zm1 0zm-1 2h1-1zm0 0 1-1v1h-1zm1-3zm-1 1h1-1zm0-1v1-1zm0 1zm0 0zm0-1zm0 1h-1 1zm0 0h-1 1zm0 0zm0-1zm0 0zm-1 0zm0 0h1v1l-1-1v1-1zm0 0zm0 1zm0 0zm0 0zm0 2h-1v-1l1 1zm0 0zm0-3zm-1 1h1-1zm0-1zm0 1zm0-1zm0 0zm0 1v-1 1zm0 0zm0 0zm0 0zm0-1zm0 0zm0 1zm0 0zm0-3zm0-1zm0 0h-1 1zm-1 3zm0 0h1v1-1l-1 1v-1zm0 1zm0 0zm0-4zm0 0zm0 0zm0 3v1-1zm0 1zm0 1zm0-1h-1 1zm-1 0s1 0 0 0zm1 0v-1 1zm0 0zm0-4h-1 1zm-1 0zm0 0zm0 3zm0 0h1-1v1h1-1v-1zm0 1zm0 0zm0 0zm0-1zm0 0zm0 1zm0-1v1-1zm0 1zm-1-4zm0 3h1-1zm0 0v1-1zm0 1zm1 0c-1 0-1 0 0 0zm-1 0zm0-1zm0 1zm0 0h-1 1zm0 2v-1 1zm-1-2h1-1zm0 0zm0-3zm0-1zm0 4zm1 0zm0 0zm0-4zm0 0zm0 3c0 1 0 0 0 0zm0 1zm0 0c-1 0 0 0 0 0zm0 0v-1 1zm0-4zm0 3zm0 0-1 1v-1h1zm-1 0h1-1zm0-3h1-1zm0 3zm0-2zm0 2zm0 0zm0 1zm0-3zm0 3zm0-3zm0 0zm0 2zm0 0v1-1zm0 1zm0 0zm0-4zm0 1zm0-1zm-1 3 1 1-1-1h1-1v1-1zm0 1zm0 0h1-1zm0 1v1-1zm0-1zm0 2v-1 1zm0-3zm0-3zm0 0zm0 4zm0-24zm0 23s0 1 0 0v1-1 1l-1-1h1zm0 1zm0 0zm-1-1c1 0 0 0 0 0zm0 0h1-1zm0-3h1-1 1-1zm0 3zm0-1zm0 1v1h1-1v-1zm0 1zm0-1v1-1zm0 1zm0 0zm0-3zm0 2zm0-3zm0 1zm0 2zm0 0v1-1c0 1 0 1 0 0zm0 1zm0 0zm0 0zm0 0zm0-3zm0 2zm-1 0zm0 1 1-1v1h-1zm0 0zm0 2zm0-2h-1 1zm0 0zm-1 0h1-1 1-1zm0 0zm1 0h-1 1zm0-1zm0-2v-1 1zm0-1zm0 1zm0 2v1-1c0 1 0 1 0 0zm0-3zm0-20zm0 20zm0 1zm0-1zm0 0zm0 3v1l-1-1h1zm-1 0zm0-3zm0 0zm0 1zm0-1zm0 1zm0 2zm0-3zm0 4v-1 1zm0 0zm0 0c-1 0-1 0 0 0zm-1 0zm0 0zm0 1zm0-1zm0 1zm0-1zm0 2zm0 0zm0 0v-1 1zm0-2zm0 0h1-1zm1-1h-1 1zm-1-3zm1 3zm0-3zm0 0zm-1 0h1-1zm0 1zm0 2zm0 1v-1 1zm0 0zm0-4zm0 0zm0-3zm0 3zm0 1v-1 1zm0-1zm0 1zm0 2h-1 1zm0-2zm0 0zm-1 0zm0-1zm0 2v1-1zm0 1zm0-23zm0 17zm0 3h1-1zm0 0zm0-3zm0 6h1v1-1 1h-1v-1 1-1zm1 1zm0 0zm0 0h-1 1zm-1 0zm0 0zm0 0zm0 0h1-1zm-1 1s0-1 0 0v-1h1l-1 1zm0 0v1-1zm0 1zm0 0zm-1-2 1-1v1h-1zm1-3zm0 2zm0 0h-1 1zm-1-1c1 0 1 0 0 0zm0-1zm1 2h-1 1zm-1 0c1 0 1 0 0 0zm1 1h-1 1zm0 0h-1 1zm0-3zm0-1zm0 1v-1 1zm0 0zm0 2v1-1zm0 1zm0 0zm0 0zm0 0zm1 0zm0 0h-1 1v-1 1zm0-4zm0 1zm0 2zm0 0zm0 1zm0 0zm0 0v-1 1zm0-4zm0 0zm0 0zm0-3zm0 3zm0-20zm0 20zm-1 0zm0 3zm0-3zm0 3s1 0 0 0h1l-1 1v-1zm0-3zm0 0zm0 1zm0-1zm0 3zm0-3zm0 0h-1 1zm-1-20c1 0 0 0 0 0zm0 20zm0 1zm0 2zm0 0v1-1zm0 1zm0 0zm-1 2v-1 1c1 0 0 0 0 0zm0-2v1-1h-1v-1 1-1h1l-1 1h2-1zm0 0zm-1 0zm0 0zm0 0zm1 0zm0 0zm0 0zm0 0zm0 0zm1 0-1-1 1 1zm0-1zm0 1h-1 1c-1 0-1 0 0 0zm-1 0h1-1zm1 0zm0-4zm0-3zm0 4zm0-1zm0 0zm0-1zm0-19zm0 17zm0 3zm0 0zm0-3zm0 3c0 1 0 1 0 0v1-1zm-1 0zm0 1c1 0 0 0 0 0zm0-21zm0 21zm0-1zm0 3v1-1 1-1zm0 0zm0 0-1-1 1 1zm0-1zm0-1zm0 0zm0-1zm0-3zm0 3zm0-20zm0 20zm0 0v1-1zm0 0zm0 3-1 1 1-1v1-1zm-1-2zm0 0v-1 1zm0-1zm0 0zm0 0zm0 0zm0 3zm0 1zm0 0zm0 0zm0-7zm0 7v1-1zm-1 2zm0 0v-1l1 1h-1s1 0 0 0zm0-2h1-1zm0 0zm1 1zm-1 0zm1 1zm0-6zm0 1zm0 0h-1 1zm0-4zm0 3zm-1 0s1 0 0 0h1-1c1 0 0 0 0 0zm0 3h1v1-1h-1v1h1-1v-1zm0-3zm0 0zm0-3zm0 7v-1 1zm-1 0zm0 0zm0 0v1-1zm1 0h-1c1 0 1 0 0 0h1zm-1 0v-1l1 1h-1zm1-1h-1 1zm0-1v1-1zm0 1zm0-2zm0 0zm0 2c0 1 0 1 0 0v1-1zm0 1zm0 0zm0-1zm0-2zm0 0zm0-1zm-1 0h1-1zm0 0h1v1l-1-1zm0 0zm0 1zm0 0zm0-1zm0 1zm0-21zm0 19zm0-2zm0 3zm0 1zm0-1zm0 0zm0 1zm0-1zm-1 0h1-1zm1 1h-1 1zm-1 0zm1-1zm-1-20zm0 17zm0 3zm0 3h1v1-1 1-1 1-1l-1 1v-1 1-1zm1 1zm0 0zm0 2h-1 1l-1-1h1v1zm-1 0zm1-2v1h-1v-1h1v1-1zm-1 0h-1 1zm-1-1v1-1 1-1zm0-3zm0 1zm0 0zm0 0zm0 0zm1 3zm0 0zm0 0zm0 0zm0-3zm0 2zm0-3zm0 1zm0-1zm0 1zm0 1zm0-5zm0 0zm0 3h-1 1zm-1 0zm0-3zm0 0zm0 0zm0 3zm0 0h1-1v1-1zm0-3zm-1 3h1-1zm0 1h1-1zm0-5zm0 1zm0 3zm0 0zm0 1zm0 2c1 0 1 0 0 0h1v1h-1 1-1 1-1v-1zm1 3v-1 1zm0 0zm0 0zm0 0v-1 1zm-1-3zm0-2zm0 2zm0-3zm0 0zm0 1zm0 0zm0-4zm0 3zm0 2zm0-2zm0 3v1-1h-1 1zm0 1zm-1 0h1-1zm0 0zm1 0zm0-3h-1l1-1v1zm-1-1h1-1zm0 0h1-1zm0 0zm0 1zm0 0zm0 2zm0-3zm0 0zm0 1zm0 2h-1 1s0 1 0 0h1l-1 1 1-1v1h-1v1-2h-1 1v1-1zm0 1zm0 3c0-1 0-1 0 0zm0-1v-1 1zm-1-2h1-1zm0 3zm0-3zm0 0zm0 0h1-1zm1-3c-1 0 0 0 0 0zm-1-1zm0 0zm0 1zm0-1zm0 1zm0 2zm0-2zm0 0zm0-1zm0 3v1-1h-1 1zm0-3zm0 4zm0 0h-1v1-1h-1v1-1h2zm-1 0zm0 2v-1 1zm0 1zm-1-4zm0 0zm0 1zm0-1zm0 1zm0 0zm0 0zm1-4zm0 0zm0 1zm0 0zm0 2zm0 0v1-1s0 1 0 0zm0-6zm0 3zm0 0zm0 3v1h-1v-1h1zm-1-3zm0 1zm0 0zm0 1zm0-2zm0 1zm0-1zm0 3h-1 1zm-1 1h1-1zm0 0zm0 0zm0 0s1 0 0 0zm1 0zm0 0zm0 0zm0-24zm0 23-1 1v-1h1zm-1-23zm0 0zm0 24zm0-7zm0 3zm0 1zm0-1zm0 0zm0 3v1-1 1-1 1-1 1-1zm0 3v-1 1zm0 0zm0-2zm0-4zm0 4v1-1zm0 0zm0-24zm-1 21zm0 2zm0-3zm0 3zm0 1zm0 0v-1 1zm0 0zm0-4zm0 4zm0 0zm0 0zm0 0zm0-4zm0-20zm-1 23h1l-1 1c1 0 0 0 0 0v-1zm1 1h-1 1zm-1 0zm0 0zm0 0v1-1zm0 0zm0 2v-1 1zm0 0zm0-1v-1 1zm0-5zm0 3v1-1zm0 1zm0 0zm0 0zm0 0zm0-1zm0-23zm0 0zm0 23h-1 1zm-1 1h1-1zm0 0zm0-3zm0 1zm0-2zm0 1zm0-21zm0 23v1-1zm0-2zm0 2zm0 1zm0 0zm0 0zm0-4zm-1 3c1 0 1 0 0 0h1v1l-1-1zm1 1zm0 0zm-1 0h1-1zm0-3zm0 2c0 1 0 1 0 0zm0 1zm0 2zm0 0v-1 1zm0 0zm0-2zm0 0zm0-4zm0-3zm0 7zm0 0zm0 0v-1 1zm0-1zm0-3zm0 4zm-1-4zm0 0zm0 3c1 0 0 0 0 0zm0 1zm0-1zm0 1zm0 3zm0-3zm0 0zm0-4zm0 4v-1 1-1 1zm0 3 1-1v1-1 1h1v-1 1-1 1l1-1v1-1 1-1l1 1h-1 2-1 1v1-1h2-1 1v1h1-1l1-1h1-1v1h1v-1 1h1v-1 1h-1 1v-1c0-1 0 0 0 0h1v1-1 1-1 1h1l-1-1 1 1v-1 1-1 1-1 1h2-1 1v-1 1-1 1h2-1 1v-1 1h1v-1l1 1h1-1 1-1 1v-1 1h1s0-1 0 0h1v-1l1 1v-1 1h1v-1 1h2v-1 1h1-1 2v-1 1h2-1 1v-1 1h2-1 4-1 1v1h2-1v-1 1h-1v-2 1h1-1 2v-1l1 1h-1 5-1 2-1 7-1 1-1 1v-1 1h1-1 2v-1 1h1l1-1v1-1 1-1l1 1v-1 1-1h2-1 2v1-1 1-1 1-1 1l1-1v1-1 1-1 1l1-1-1 1v-1h1v1h1c0-1 0 0 0 0v-1h1v1h1-2 1v1-1 1h-1v-1 1h-1 1v-1 1h-1 1v-2h-1 1-2 1-1v1-1h-2v1-1h-1c-1 0 0 0 0 0h-1v1h-1v-1 1-1 1-1 1-1 1h-1v-1h-2v1-1 1-1h-1l1 1h-1v-1 1-1 1h-1v-1 1-1 1-1 1-1l-1 1v-1h-3 1-2l1-1h-1v1h-2 1-5v-1 1l1-1h-1v1h-1 1-2v-1 1h-16 1-2c-1 0 0 0 0 0h-6 1-4v-1 1-1l-1 1v-1 1h-1v-1 1-1l-1 1v-1 1l-1-1v1-1 1h-1v-1 1-1h-1v1l-1-1v1-1 1h-1 1-1v-1 1h-1v-1h1-1v1h1-1v1-1h-1 1v1h-1v-2 1h2-1 1zm59 0h1-1zm-60 0zm0 0zm1-4zm0 4-1-1 1 1zm-1-1zm0 0zm0 0zm0 0zm0-2zm0 0c1 0 0 0 0 0zm0 0zm0 0v-1 1zm0 0zm0 0zm0 3v-1 1-1 1-1 1zm0 0zm0-3s-1 0 0 0zm-1-1zm0 4h1-1 1-1 1v1h-1 1l-1-1s1 0 0 0zm0 0zm0 0zm0-27zm0 28v-1 1zm0-4h-1 1zm-1 2zm0-2zm0 0zm0 2zm0 0zm0 2zm-1 2v-1 1zm1-2zm0-4zm0-24zm0 27zm0-3zm0 3zm0-27zm0 23zm0 4zm0 0zm0 1v-1c0 1 0 0 0 0v1-1 1h-1 1zm-1-1zm0 2zm0-2zm0-27zm0 28zm0-1zm0 0v1-1zm0 0zm-1-1zm0 2zm0-1zm0 1zm0-1zm0 0zm0 0zm-1 3zm0-1zm1-29zm0 0c-1 0-1 0 0 0zm-1 0zm0 0zm0 28zm0-1zm-1-27zm0 30h-1 1zm0 0zm0 0zm0-3-1 1v-1h1zm-1-26zm0 29zm0 0zm0-28zm0 29v-1 1zm0-31zm0 1zm-1 29zm0-27zm0-1zm0-1zm0 1zm0 28h-1 1zm0-1zm0-26zm0 27zm0-29zm0 0zm0 1c0 1 0 0 0 0zm-1-1h1-1zm0 0zm0 1zm0 0zm-3-1zm0 1zm1-1h-1 1zm-1 4zm0-1zm0 0v1-1zm1 0zm0 1zm0 0v-1 1zm0 1v-1 1zm-1 2zm0 0zm0 1v-1 1zm0-1zm1 3zm0-1zm0 1zm0-2zm0-2zm0 0v1-1zm0 0zm0 1zm0 0zm0-1zm0 2zm0 1zm0 9zm0-9zm0 0zm0-1c1 0 0 0 0 0zm1-7h-1 1zm0-1zm0 8zm0-2zm0-2zm0-1zm0 0zm0 0zm0 0v-1 1zm0-1zm0 0zm0 1zm0 2zm0-3zm0 2zm-1-2v-1c0 1 0 1 0 0v1c1 0 0 0 0 0zm1-1h-1 1zm-1 1zm0 1 1-1v1h-1zm0 2h1-1zm1 2zm0-1zm0 1c-1 0-1 0 0 0zm0 1zm0 2zm0-4zm0 4zm0 1zm0-5c0-1 0-1 0 0zm0 5zm0-6zm0 2zm0 2zm0-4v-1c0 1 0 1 0 0v1zm0-2zm0 1zm0-2zm0 0zm0 2zm0 0zm0 2zm0 0s0-1 0 0zm0-1zm0-1zm0-1v-1 1s0-1 0 0zm0 2zm0-2zm0 2zm0-2zm1 3zm0-1c0-1 0 0 0 0zm0-1zm0-2zm0-1zm0 4zm0 25v-1 1zm0-28zm0 28zm0-28zm0 0v-1 1zm0-1v-1 1zm0-1zm0 2zm0 5zm0-6zm0 28v1-1zm0-24zm0-4zm0-1zm0 0h-1 1zm-1 0zm0 1zm1 1h-1 1zm-1-1zm0 0zm0-1zm0 0zm0 1zm0-1zm0 0zm0 1zm0 1zm0-1zm0-1zm0 0zm-1 0c1 0 1 0 0 0zm0 0zm0 0zm0 0zm0 2zm0-1zm0-1v1-1zm0 1h-1 1zm0 0zm0 1zm0 0zm0 0zm0-1zm0 0v-1l1 1h-1c0-1 0-1 0 0zm0 2zm0 0zm0 1zm0 1v-1 1zm0-2zm0 2zm0 0zm0 0c0 1 0 1 0 0zm0 1zm0 0zm0 0zm0 1v-1 1zm0 0v1-1zm0 0zm0 1zm0 0h-1 1zm0-1c0 1 0 1 0 0zm-1 0v-1 1c1 0 1 0 0 0zm0 0zm0 1zm0-1zm0 1zm0-1zm0 1zm1 1zm0-1h-1 1zm0 1zm0-1zm0 3zm-2 0zm1 0zm0-1zm0 0zm1 1h-1zm0-1zm0 2zm-2 3zm1-1v-1 1zm0 0zm0 0zm0 1zm0 0zm0 0zm0 0zm-1 2zm0 0zm1 1zm0 0zm0 1zm0-2v-1 1zm0-1zm-1 5zm0 0zm0 0c1 0 1 0 0 0zm2 2zm-1 1h-1 1zm1 1zm0-13zm0 11zm0-10zm0-1zm0-3zm0 0v1-1zm0 1zm0 3zm0 0zm0 0zm-1 1v1-1zm0-1zm0 2zm0 0zm0 0h1-1zm1 8zm0-8zm0-2zm0-2zm0 14zm0 1zm-2 1z"/><path class="st2" d="M1035 179zm10 0zm-16 0zm7 0zm7 0zm-10 0zm0 0zm-3 0zm3 0zm12 0zm-19 0zm10 0zm11 0zm-21 0zm19 0zm3 0zm-19 0zm5 0zm0 0zm-7 0h-1 1zm-2 0zm-1 0zm0 0zm0 0zm14 0zm5 0h-1 1zm-20 0zm5 0zm2 0zm12 0zm-2 0zm28 0zm-29 0zm0 0zm1 0zm-21 0zm20 0zm48 0zm-66 0zm75 0zm1 0zm-76 0zm-3 0zm3 0zm-4 0zm80 0zm-80 0zm-2 1zm0 0h1l-1-1v1-1 1zm0 0zm0 0c-1 0-1 0 0 0zm0 0v1-1zm-1 0h1-1zm1 0zm0 1v-1 1zm0 0c-1 0-1 0 0 0zm1 0zm84 0zm-84 0zm1 1zm82 0zm-82 0zm0 1-1-1v1h1zm-1 0zm0 0zm-1 1zm0 0zm0 0zm0 0zm1 0h-1 1zm0 1v-1 1zm0 0zm0 0zm83 0zm0 1zm0 0zm0 0zm-83 0zm-1 1zm0 0zm1 1h-1 1zm0 0zm83 0zm0 0zm-83 1v-1 1zm0 0zm83 0zm0 0zm-83 0zm-1 1zm0 1c0-1 0-1 0 0zm0 0zm0 0zm0 0zm0 0v1-1zm84 2zm0 0zm-83 0zm-2 1zm1 0zm0 0zm84 2zm-83 0zm0 0zm0 0zm0 0zm-2 1zm86 1v-1 1-1 1zm-1 0zm-84 0zm1 1zm82 0h1-1zm-56 0zm57 0h-1 1c-1 0-1 0 0 0zm-1 0v1-1zm-83 3h1-1zm0 0zm1 0zm82 0c1 0 0 0 0 0zm-82 0zm82 0zm0 0zm-11 0zm-39 0zm-7 0zm1 1v-1 1zm-4 0c0-1 0-1 0 0v-1 1zm42-1zm-32 1zm-9 0zm43 0h-1 1zm0 0zm-66 0zm71 0zm-73 1h1-1zm0 0zm1 1v-1 1zm17 0zm-17 0zm74 0zm0 0zm-7 0h-1 1zm2 0h-1 1zm-4 0zm-2 0zm-36 0zm45 1h1v-1h-1v1zm-32-1h-1 1zm37 1v-1 1zm-41 0v-1 1zm30-1zm2 0zm-22 1v-1h-1l1 1zm2-1h-1 1zm25 1v-1 1zm0 0zm10 0v-1 1zm-51 0v-1 1zm41-1zm-37 1v-1 1zm17 0c0-1 0-1 0 0v-1 1zm8 0-1-1 1 1zm5-1zm-49 0zm25 0zm11 1c0-1 0-1 0 0zm8 0v-1 1zm2 0c0-1 0-1 0 0 0-1 0-1 0 0zm2-1v1-1zm-8 0zm10 0zm3 1v-1 1zm1 0v-1 1zm-33 0v-1 1zm6 0v-1 1zm21 0zm1 0s1 0 0 0zm-38 0v-1 1zm23 0v-1h-1 1v1zm1 0zm9 0h1v-1l-1 1v-1 1zm-19 0zm15 0v-1 1zm1 0zm2 0zm4 0v-1 1zm4 0zm9 0v-1 1zm-43 0zm7 0zm6 0v-1 1zm6 0v-1 1zm5 0v-1 1zm4 0zm7 0h-1 1-1 1zm2 0zm8 0zm-39 0v-1 1zm2 0v-1 1zm19 0zm2 0zm7 0v-1 1zm-51 0v-1 1zm30 0zm17 0zm0 0v-1 1zm-43 0zm24 0v-1 1zm-12 0v-1 1zm20 0zm11 0v-1 1zm-41 0zm21 0v-1l-1 1h1zm6 0zm1 0h1-1zm3 0zm9 0zm-48 0zm15 0zm7 0zm10 0v-1 1zm12 0zm2 0zm11 0zm-32 0h-1 1zm4 0zm1 0zm1 0zm4 0zm-23 0h1-1zm17 0h-1 1-1 1zm0 0zm3 0zm4 0v1h1v-1h-1zm0 0zm5 0zm10 0zm-20 0zm7 0h-1 1-1 1zm9 0zm-45 0h-1 1zm9 0zm6 0zm2 0zm1 0zm2 0zm4 0zm14 0h1-1zm-42 0zm8 0h-1 1zm7 0zm14 0c-1 0 0 0 0 0zm15 0h-1 1zm4 0h1-1 1-1zm-45 0zm11 0zm22 0h1-1zm9 0zm7 0h-1c1 0 1 0 0 0h1zm0 0zm-47 0zm5 0zm5 0c1 0 1 0 0 0zm21 0zm7 0zm1 0h1v-1 1l-1-1v1zm-42 0zm10 0zm8 0zm6 0zm15 0zm7 0zm8 0h-1 1zm0 0zm-52 0zm2 0zm10 0zm-10 0zm4 0zm8 0zm5 0zm11 0zm20 0zm3 0zm11 0zm-68 0zm10 0zm3 0zm5 0zm8 0zm4 0zm20 0zm3 0zm3 0zm-55 0zm11 0h1-1zm25 0zm15 0zm10 0zm-28 0zm9 0zm11 0zm-54 0zm1 0c-1 0-1 0 0 0zm1 0h1-1zm2 0zm3 0zm5 0zm5 0zm4 0zm2 0h-1 1zm11 0zm7 0zm8 0zm2 0zm-49 0zm9 0zm5 0zm3 0zm2 0zm9 0zm12 0zm3 0zm1 0zm1 0zm4 0zm2 0zm-44 0zm4 0h1-1zm9 0zm6 0zm2 0h-1 1zm2 0zm19 0zm-42 0zm3 0h-1 1zm13 0zm3 0zm2 0zm1 0zm18 0zm8 0zm-49 0zm2 0h1-1zm14 0h-1 1zm2 0h-1 1zm3 0zm12 0zm2 0zm2 0zm23 0zm-54 0zm5 0h-1 1zm3 0zm1 0zm14 0zm2 0zm0 0zm7 0zm11 0h1-1zm-36 0zm4 0zm1 0h1v1-1h-1c1 0 1 0 0 0zm2 0h-1 1zm0 0zm4 0h-1 1v1-1h1-1zm1 0h-1 1zm12 0zm2 0zm5 0zm3 0zm1 0s-1 0 0 0zm3 0zm-54 0h1-1zm0 0zm1 0zm4 0h-1 1zm5 0zm1 0zm36 0h-1 1zm2 0c-1 0-1 0 0 0zm-41 0zm11 0c0 1 0 1 0 0zm9 0zm4 0h-1 1zm5 0zm11 0zm-45 0zm12 0h1-1 1-1zm1 0zm17 0zm-27 0zm4 0zm2 0zm3 0zm8 0h1-1zm1 0zm15 0h-1 1zm-45 0zm23 0zm1 0zm5 0zm22 0zm-39 0zm9 0c-1 0-1 0 0 0zm13 0zm19 0zm-50 0v1l1-1h-1zm6 0zm6 0zm2 0h-1v1l1-1zm0 0zm1 0zm28 0zm2 0zm1 0h-1 1zm-49 0zm15 0h1-1zm13 0zm4 0zm20 0zm1 0zm-47 0zm2 0h-1 1zm1 0zm1 0zm12 0zm8 0zm5 0zm13 0zm10 0zm3 0zm-50 1v-1h-1l1 1zm7-1zm9 0zm18 0v1-1zm-40 0zm22 0zm13 0zm-32 0h1-1c1 0 1 0 0 0zm10 0zm0 0zm1 0h-1 1c-1 0 0 0 0 0zm0 0zm4 0zm4 0h-1 1zm17 0zm11 0zm0 0zm3 0zm-71 0zm22 0zm9 0zm33 0zm5 0zm-34 0zm18 1v-1 1zm11-1zm-51 0zm12 0zm13 0c-1 0 0 0 0 0h-1v1l1-1h-1 1zm21 0zm11 0zm0 0zm4 0zm-54 0zm7 0zm5 0zm2 0zm2 0zm8 0h-1 1zm-5 0zm12 0zm11 0zm2 0z"/><path class="st2" d="M1029 206zm8 0zm16 0zm0 0zm7 0zm-29 0zm22 0zm6 1v-1 1zm5-1zm15 0h-1 1zm-46 0zm2 0zm6 0zm5 0zm9 0zm-3 0zm5 0zm0 0zm4 0zm19 0h-1 1zm-49 1c0-1 0-1 0 0v-1 1zm8-1v1l1-1-1 1v-1zm24 0v1-1zm5 0zm7 0h-1l1 1v-1zm10 0zm-52 0c0 1 0 0 0 0zm2 0zm19 0zm22 0h1-1zm9 0zm-49 0zm7 0zm1 0zm14 0zm28 0zm-48 0zm28 0zm-29 0zm-3 0v1-1zm5 0zm19 0zm9 0zm-28 0zm8 0zm24 0zm10 0zm9 0zm-55 0zm15 0zm0 0c0 1 0 1 0 0h1-1zm3 0zm12 0v1-1zm-12 0zm2 0zm12 0zm4 0zm9 1h1v-1l-1 1zm-44-1v1-1zm24 0zm-19 1c0-1 0-1 0 0zm8-1v1-1zm33 0v1-1zm-35 1v-1 1zm3 0v-1h-1l1 1zm23 0v-1 1zm-45-1zm28 1c0-1 0-1 0 0 0-1 0-1 0 0zm-11 0v-1 1zm1 0v-1 1zm1-1v1-1h1-1zm1 1zm4-1v1-1zm5 1c0-1 0-1 0 0zm9-1c0 1 0 1 0 0zm-27 1zm4 0v-1 1zm9 0v-1 1zm6 0v-1l-1 1h1zm-25 0zm1 0zm10 0c0-1 0 0 0 0zm1 0zm15 0zm-25 0zm-7 0v-1 1zm7 0v-1h-1l1 1zm1 0zm4 0zm17 0zm-24 0zm3 0v-1 1zm6 0h1-1zm1 0zm2 0zm1 0zm-8 0zm2 0zm4 0zm0 0zm11 0zm-23 0h1-1zm7 0zm15 0zm7 0zm-15 0zm-11 0zm5 0zm8 0zm-32 0zm64 1zm-66 0zm2 0zm19 0zm-19 0c-1 0 0 0 0 0s-1 0 0 0zm-1 0zm-1 0zm2 0zm-1 0zm69 0zm-7 0c0 1 0 1 0 0zm17 0zm-2 0zm0 0zm-10 0zm8 0c0 1 0 1 0 0 0 0 0 1 0 0zm-32 1c-1 0 0 0 0 0zm28 0zm6 0v-1 1zm-2 0v-1 1zm-6 0zm-30 0zm-6 0zm7 0zm1 0zm1 0zm11 0zm-13 0zm4 0zm-5 0zm7 0zm10 0zm7 0zm5 0h-1 1zm-12 0zm15 0zm-9 0h-1 1zm-38 0zm53 0zm-34 0h1-1zm10 0zm8 0zm13 0zm-33 0zm9 0zm25 0zm4 0zm2 0zm-59 0h-1 1c-1 0-1 0 0 0zm3 0zm6 0zm15 0zm29 0zm2 0zm2 0zm-30 0zm5 0zm3 0zm21 0zm-5 0zm3 0zm1 0zm-5 0zm-52 0s-1 0 0 0zm43 0zm6 0zm-45 0zm33 0zm3 0zm11 0zm4 0zm1 0zm2 0zm-8 0zm8 1c0-1 0 0 0 0v-1 1-1h-1 1-1l1 1zm-64-1zm10 0zm48 0zm1 0zm3 0zm1 0zm-20 0zm6 0zm5 0zm2 0h-1 1zm-60 0zm48 0zm8 0zm-54 0zm5 0zm3 0zm56 0zm1 0zm-2 0zm-59 0zm54 0zm3 0zm-62 0h-1v1-1h1zm4 0zm3 0zm3 0zm33 0zm8 0c-1 0-1 0 0 0zm9 0zm0 0zm2 0h-1 1c-1 0-1 0 0 0zm10 0zm-59 0zm5 0zm32 0zm2 0zm-8 0zm1 0zm12 0zm15 0zm-70 0zm6 0zm6 0zm34 0zm24 0zm-75 0h1-1zm13 0zm-7 0zm5 0zm35 0zm5 0zm13 0zm1 0zm1 0zm-46 0zm41 0zm4 0zm-55 0zm43 0zm-50 0zm1 0zm66 0zm-1 0zm-43 0zm40 0s1 0 0 0zm1 0zm-67 0v1-1zm50 0zm18 0zm-68 1v-1 1zm1-1v1h-1 1v-1zm3 0zm17 0zm24 0zm4 0zm7 0zm8 0zm11 0v1-1zm-23 0zm23 1v-1 1zm-59-1zm3 0zm33 0h-1 1zm-46 0zm19 0zm20 0zm14 0zm-64 1h1-1v-1 1zm59-1zm12 0zm-53 0zm3 0zm4 0zm1 0zm23 0zm2 0zm2 0zm4 0zm3 0zm6 0v1-1zm0 0zm5 0zm-61 0zm37 0zm12 0zm9 0zm5 0zm-55 0zm7 0zm25 0zm13 0zm1 0zm3 0zm0 0zm-55 0zm46 0v1-1zm-47 0v1-1zm36 0zm11 0zm5 0zm7 1v-1 1zm3 0v-1 1zm-65 0v-1 1zm54-1c0 1 0 1 0 0zm3 0zm6 1-1-1 1 1zm3 0v-1 1c0-1 0-1 0 0zm-68 0c0-1 0-1 0 0 0-1 0 0 0 0zm3 0v-1h-1v1-1l1 1zm50-1zm-41 0zm10 1c0-1 0-1 0 0 0-1 0-1 0 0zm19-1zm14 0zm4 0zm3 0c0 1 0 1 0 0 1 0 1 1 0 0zm-53 1v-1 1zm53-1zm1 1c0-1 0-1 0 0zm-18 0v-1 1zm16 0v-1 1zm1-1c0 1 0 1 0 0 0 1 0 1 0 0zm5 1zm-41 0zm41 0zm-42 0zm25 0v-1 1zm16 0h-1 1zm-67 0v-1h-1l1 1zm66 0zm1 0zm-14 0zm3 0zm-53 0zm3 0zm7 0zm25 0zm4 0zm13 0zm12 0zm2 0zm-64 0zm49 0zm-51 0zm1 0zm56 0zm-65 0zm7 0zm5 0zm18 0zm37 0zm-61 0zm52 0zm6 0zm2 0zm5 0zm-64 0zm63 0zm-64 0h1-1c1 0 1 0 0 0zm16 0zm-23 0zm4 0zm3 0zm8 0zm39 0zm-27 0zm17 0zm-9 0zm-27 0zm2 0zm42 0zm-37 0zm40 0zm-48 0zm10 0zm4 0zm37 0zm1 0zm5 0c1 0 1 0 0 0zm-52 0zm40 0zm-44 0zm0 0s1 0 0 0zm2 0zm-5 0zm4 0zm3 0zm-4 0zm-2 0zm-2 0h-1 1zm25 0zm-26 0zm6 0zm-9 0zm35 0zm37 1zm10 0h1-1zm-33 0zm-25 0zm36 0zm-54 0zm60 0v1-1zm16 1v-1 1zm-2 0zm-4 0zm-2 0zm-18 0zm4 0zm-9 0zm22 0zm2 0zm6 0zm0 0zm-5 0zm2 0h-1 1zm1 0zm-3 0zm1 0v1-1 1-1 1-1zm3 0zm-3 0zm4 0zm-7 0zm4 0zm0 0v1-1zm-3 0zm5 1v-1 1zm0-1zm1 0zm-1 0zm-4 1v-1 1zm2 0c0-1 0-1 0 0v-1 1zm-4 0v-1 1zm2 0c0-1 0-1 0 0zm3-1v1-1zm0 0zm-3 1s0-1 0 0zm-4 0zm3 0zm3 0v-1 1zm2 0zm0 0h1l-1-1v1zm-6 0v-1 1zm3 0h1v-1 1h-1zm-4 0zm2 0zm0 0zm2 0zm1 0h1-1zm-2 0zm0 0zm-2 0zm3 0zm-1 0zm3 0zm2 0zm2 1v-1h-1v1-1h-2 1-4 1-25v1-1h-2v1-1h-2v1-1h-2v1h3-1v1h2-1v-1h1v1h2v-1h-1 6v1-1l-1 1h2v-1h-1 2v1-1 1-1 1h1v-1 1-1h1v1h-1 2v-1l1 1v-1s0 1 0 0h1v1-1l1 1h-1 1v1-1 1l1-1h-1 1v-1h1v2h1v-1h1-1v-1l1 1h2v1h2v-1h-1 1v1h4-1 7v-1 1h-1v-1h1-1 2l-2-1zm-32 1h-1 1zm0 0zm0 0v1-1zm2 0c-1 0 0 0 0 0zm8-1zm0 1zm1 0c-1 0-1 0 0 0zm0 0v-1 1zm0 0v-1 1zm0 0v-1 1zm2-2zm1 1zm0 0zm3 1zm0-1zm1 0zm2 0zm0 1v-1 1zm1 0-1-1h1v1zm0 0zm2-1zm1 0h-1l1 1h-1 1-1v-1h1zm0 1v-1 1zm1-1zm0 1zm0-1zm1 1-1-1 1 1h-1v-1h1v1zm0 0zm0-1zm1 0zm0 1zm0 0zm0 0v-1c0 1 0 0 0 0v1c1 0 0 0 0 0zm2 0v-1 1zm1 0zm-1-2z"/><path class="st2" d="M1097 213zm-10 0zm7 0zm-1 0zm-1 0zm1 0zm3 0zm-5 0zm5 0zm-5 0zm3 0zm-2 0zm3 0zm-11 0zm0 0zm-6 1zm-15 2h1v-1h-1 2-1l1-1h-2 1l-1 1v1zm1-1zm1-1zm13 0zm21 0zm-6 0zm6 1v-1 1zm-19 0h2-1v-1 1-1h-1v1zm2 0c-1 0-1 0 0 0z"/><path class="st2" d="m1064 214-1 1h1v-1zm22 1h1-1zm-11-1h-1l1 1v-1zm6 0v1-1zm-18 0zm0 1zm1 0c0-1 0-1 0 0 0-1 0 0 0 0zm-1-1c0 1 0 1 0 0zm4 1zm6 0h1v-1 1h-1v-1 1-1 1zm0 0zm-6 0zm4 0h1v-1h-1v1-1 1zm0 0zm4 0zm-1 0zm25 0h1-1zm-34 0zm0 0zm9 0zm-9 0h2-1 1-2zm2 0zm-4 0zm15 0zm7 0zm14 0zm-38 0h1v1-1h1-2zm1 0zm6 0zm-11 0h-2 2zm2 0h-2c1 0 0 0 0 0h2-1 1zm9 0zm-8 0h-1 2-1zm1 0zm-1 0zm30 0c-1 0-1 0 0 0zm-36 0v1-1 1l1-1h-2 1c-1 0 0 0 0 0zm-1 0h-1v1h1v-1s0 1 0 0zm31 0zm4 0zm0 0zm0 0zm-38 0v1-1 1h1v-1h-1zm47 0zm-48 0h-1l1 1v-1zm40 0zm-30 0zm35 0zm-47 0h-1v1-1h1zm36 0zm0 0zm8 0zm3 0s-1 0 0 0c-1 0-1 0 0 0zm3 0zm-2 0v1-1zm-12 0zm0 0zm8 0zm5 0zm1 1c0-1 0-1 0 0v-1h-1l1 1zm-5-1zm-47 1v-1 1zm38-1zm-38 0zm50 1-1-1v1h1c-1 0 0 0 0 0zm1-1v1-1zm-52 1zm1 0zm49 0zm4 0zm-4 0v-1 1zm3 0zm-1 0zm-3 0zm4 0zm-3 0zm0 0c1 0 0 0 0 0s1 0 0 0zm1 0zm-3 0zm1 0zm2 0zm0 0zm-1 0c-1 0 0 0 0 0zm1 0zm-2 0zm-2 0zm3 0zm2 0zm1 0zm-3 0zm-1 0s-1 0 0 0zm1 0zm3 0h1-1zm-1 0zm1 0zm-5 0zm3 0zm-2 0zm1 0zm3 0zm-5 0zm2 0zm2 0zm-3 0zm1 0zm-25 1h-4v1h1-1c-1 0 0 0 0 0v1h2v-1h-1 2-1v1h2v-1h-1 1v1h2v-1h-1 2-1v1h1v-1h1-1 1v-1 2h1v-1h5v1h1v-1h2v1l-1-1v1h1v-1h1v1h1v-2s0 1 0 0v1h1-1v1h1v-1 1-1 1h1v-1 1-1h-1 1v-1 1h1-1v1l1-1v1-1 1-1 1l1-1h-1 1v-1 1-1 2h2v-1h-1 1v1h2-1 5-1 1-1 1l-1-1h1v1h1-1 2-1v-1h2l-1 1v-1 1-1 1h1v1-2h1-1v-1 1h-1l-1-1h-2 1-4v1-1h-1s0 1 0 0h-1v1-1c0-1 0 0 0 0h-2v1-1h-1l-1 1v-1 1-1h-1v1h-1s0-1 0 0v-1 1-1h-1v1s0-1 0 0h-3v-1 1-1h-1v1h-10v-1zm-2 0zm1 1zm0 0zm0 0zm1 0zm1 0zm11 1zm0-1zm1 1zm0-1zm4 0zm2 0zm2 0zm7 0h1-1zm0 0zm-1 0h1-1zm-2 1zm0-1zm0 0zm0 0v-1 1zm-1 0zm0 0zm-1 0zm0 0zm0 0v-1 1zm-1 0zm0 0zm-2 0zm0 0zm-1-1zm0 1h-1c1 0 0 0 0 0h1zm-2-1zm-1 2zm0-1zm-1 0zm-1 0h1-1zm0 0zm-3 0h-1 1zm-1-1zm-2 0zm-2 0zm0 0zm-1 1zm-1-1zm-1 1zm-1-1zm-1 1zm-1-1z"/><path class="st2" d="M1095 216zm-2 0zm-2 0h1-1zm2 0zm1 0zm2 0c-1 0-1 0 0 0zm-3 0h1-1zm3 0zm-2 1c0-1 0-1 0 0zm4 0zm-10 0zm2 0zm2 0zm-6 0zm-4 0zm4 0zm-31 0h-1v1h2v-1 1h2v1h1v-1h1v1-1 1l1-1v1h-1 1v-1h1v1h1-1v-1h2v1h1v-1h1v-1h-11zm8 1zm1 0zm0-1zm-5 1zm0 0zm-3-1zm-3 0h-1v1h1s0-1 0 0v-1 1l1-1c0 1 0 0 0 0h-1zm-2 0h-1 2-1zm18 0zm-20 0zm1 0zm0 0zm15 1v-1 1zm-5 0zm34 0zm-4 0s1 0 0 0zm6 0zm-14 0h-1 1zm-3 1v-1h-2v1h1v-1l1 1zm-1-1zm-5 0zm19 0zm-16 1 1-1h-2 1-1l1 1zm2-1zm-7 0zm5 0zm11 0zm9 0zm-34 0zm11 0zm21 1zm-5 0zm-5 0zm10 0zm-2 0zm1 0zm2 0zm-30 0zm29 0zm2 0zm-1 0zm0 0c1 0 1 0 0 0zm1 0s1 0 0 0zm-1 0zm-1 0zm3 0zm-4 0zm1 0zm2 0zm1 0zm2 0zm-5 0zm6 5-1-1v-1h1l-1-1h1v-1h-1v-1 5s0-1 0 0h-4v-1 1-1 1-1l-1 1h-8v1h2v-1l1 1h6-1 1v1h-1 2v-1h-1 2-1l1 1h1v-1h-1 3v1h-1v-1h-1 2v2h-9 1-7s0 1 0 0h-2v1h2v-1 1h2l1-1v1h1v-1h1v1h1v-1h1v1-1l1 1s0-1 0 0v-1 1-1h1v1l1-1v1-1h1v1-1 1-1 1h1v-1h1v1-1h1v1-1h1v1c1 0 0 0 0 0l1-1v-2h-1 1v-2l-1 1zm-10 0zm7 1zm0 0-1-1v1-1h1v1zm-10 3zm2-1h-1 1zm2 1zm5 0zm0-1zm3 1zm0-8zm0 6zm-3-7zm-4 0zm1 0zm2 0zm0 0zm-1 0zm-1 0zm2 0zm2 0zm-1 1c0-1 0-1 0 0zm1 0c0-1 0-1 0 0 0 0 0-1 0 0zm-2 0zm2 0zm-4 0zm2 0zm1 0zm-2 0zm2 0v-1 1zm1 0zm-39 0zm35 0zm4 0zm-2 0zm-2 0zm4 0z"/><path class="st2" d="M1049 221h5-1 1v1h-1c1 0 1 0 0 0h1-1 1v-1h2-1v1h1v-1h1v1h1v-1h5-1v1h2v-1 1-1h-1 3v-1 1h3-1l1 1v-1h1-1 1v-1 1h2v-1 1h2v-1 1h1v-1h1v1h2v-1 1h1v-1 1h-1v1h1l1-1s-1 0 0 0h-1 1-1 1v-1 1h2v-1 1h1-1l1 1h1v-1h-1 1v-1 1h1-1 1-1v1h1v-1 1-1h1-1v-1h1v1h1c0-1 0 0 0 0v-1h4v1h-1 2-1v-1 1-1h1v1h1c0-1 0 0 0 0v-1h1v1h1v-1c1 0 0 0 0 0h1v1h-1 2v-1h1v1h-1 1-1 2l-1-1h1v1-1h1c0-1 0 0 0 0v-1h-5l-1 1v-1h-2v1-1 1-1h-1v1h-1l1-1h-1v1-1 1-1h-1v1h-1v-1h-1v1-1 1-1l-1 1v-1h-1v1h-1v-1 1-1h-1l-1 1v-1 1-1l-1 1v-1 1-1 1h-1v-1 1s0-1 0 0v-1l-1 1s0-1 0 0h-1v-1 1-1 1l-1-1v1h-1v-1 1-1 1l-1-1s0 1 0 0v1h-1v-1 1-1 1h-1v-1l-1 1v-1 1h-17c1 0 0 0 0 0h-5l-1 1zm19 1zm11 0zm0 0zm3 0zm15-1zm0-1zm-1 1zm-1 0zm0 1zm-1 0zm0-1zm0 0zm-1 0h1-1zm-1 0zm-1-1zm-1 2zm0-1zm-1-1v1-1c0 1 0 0 0 0zm0 0zm-3 0zm-1 0zm0 1v-1 1zm-1 0v1-1zm-1 0zm-2-1v1-1zm0 0zm-3 1zm-8 0zm-1 0zm0 0zm-6 0v1-1zm-1 0zm0 0zm-2 0zm-2 0c1 0 0 0 0 0zm0 0zm-4 0-1 1h1v-1zm43-1zm-2 0zm-5 0zm-8 0zm-21 0zm-1 0zm-12 0-1 1h2v-1h-1zm-2 0v1h-1 2v-1h-1zm-6 1h3v-1 1-1h-1v1h-1v-1 1l-1-1v1zm3 0h2v-1h-1l-1 1zm-6 0c1 0 0 0 0 0v-1 1h-1 1zm3 0-1-1h-1v1h1c1 0 0 0 0 0h1v-1l-1 1h1c-1 0-1 0 0 0zm-5 0h1-1zm-8 0c0-1 0 0 0 0h1-1zm2 0c-1 0 0 0 0 0h1-1zm0 0zm1 0zm5 0zm-4 0zm2 0zm-1 0z"/><path class="st2" d="M1035 221zm-1 0zm-2 0zm42 0zm-28 0zm2 0zm-2 0zm1 0zm21 0zm-16 0zm0 0zm40 0zm-12 1h1v-1 1-1h-1v1-1 1zm-23-1h-1 1zm32 0zm-1 0zm1 1v-1h-1v1-1 1-1 1-1l-1 1h2zm0 0zm-1-1zm-12 1v-1c1 0 0 0 0 0v1zm-2-1v1-1zm6 0zm-23 0zm29 1h1v-1h-1v1-1s0 1 0 0h-1v1h1zm0 0zm-12 0h2-2zm23 0c0-1 0-1 0 0 0-1 0-1 0 0zm-26 0h1l-1-1v1-1 1h-1c0-1 0 0 0 0h1zm0 0zm0 0zm0 0zm0 0zm0 0zm-4-1zm5 0zm-12 1h-1 1zm13-1zm-7 1h-1 1-2 2zm10 0h1-1zm15 0zm-29 0-1-1v1h1zm6 0h-2 2zm4 0h2l-1-1c0 1 0 1 0 0v1s0-1 0 0v-1h-1v1zm21 0zm-29 0zm19 0zm-13 0zm20 0zm-33 0zm35 0zm-23 0h1-1zm0 0c-1 0-1 0 0 0zm5 0zm-17 0zm2 0zm38 0zm-37 0zm-2 1-1-1 1 1zm38-1zm-41 1zm0 0v-1 1zm41 0zm-41 0zm2 0zm-4 0zm1 0zm1 0zm40 0zm-42 0zm5 0zm-4 0zm4 0zm38 0zm-42 0zm4 0zm-5 0zm3 0zm-2 0zm0 0zm-1 1h1v-1 1-1l-1 1 1-1h-1v1zm39-1zm-39 0zm3 0c0 1 0 0 0 0zm-2 1 1-1-1 1zm32 0v-1l-1 1v-1 1-1 1h-3 4zm-2 0zm0 0zm-29 0zm37 0zm-14 0v-1l-1 1v-1 1h-1 3-1 2v-1h-2v1-1 1zm0 0zm-23 0v-1 1zm27 0v-1l-1 1s0-1 0 0h-1 1-1 2zm-37 0h-1v1-1 1h2v-1l1 1v-1 1-1l1 1v-1l1 1h-1 1-1 1v1-1 1-1l1 1v-2 1h1-1 1-1v1h2v-1l1 1h-1 2v-1h1-1v1h1-1 2v-1s0 1 0 0v1h2v-1h-1 2-1v1h2v-1h-1 2l1-1v1h1-1v1h2v-1h-1 1v1h2v-1h-1 4v1-1 1-1l-1 1h2v-1l-1 1v-1h1v1h2v-1h-1 3v-1 1h1-1v1h2v-1h-1 1v-1h-6v1-1h-2v1-1h-1v1-1h-1v1-1 1-1h-2v1-1h-2v1-1h-1v1-1l-1 1v-1 1-1h-7s0 1 0 0l-1 1v-1 1-1h-1v1-1 1h-5l-1-1zm17 2c-1 0 0 0 0 0zm3-2zm-1 1zm0 0zm-1-1zm0 0zm-4 0zm0 0zm-1 1h1-1zm-1-1c1 0 1 0 0 0zm-1 1zm0 0zm-1 0v-1 1h1-1 1-2 1zm-1 0zm0-1c0 1 0 1 0 0v1-1zm-1 1zm0 0zm-1 0zm0 0zm0 0zm-1 0h1-1zm0 0zm0 0zm0 0zm-2 0zm-1-1z"/><path class="st2" d="M1053 224zm22 0h-1l1 1v-1 1-1l1 1v-1c0 1 0 1 0 0h-2 1zm0 0zm-18 0zm7 0zm1 0zm1 0zm12 0zm-22 0zm5 0zm25 0zm-51 0zm8 0h-1v1h1s0-1 0 0v-1 1l1-1v1-1h-1zm-2 0zm0 0h-1 1v1h1v-1h-1zm59 0zm-67 0h-2v1h1v-1h1zm0 1h1v-1h-1v1h1-1zm1-1zm3 1h1v-1h-1 1-1v1zm2-1h-1l1 1h1v-1 1-1h-1zm-3 0h-1v1s0-1 0 0h1v-1c0 1 0 1 0 0zm-5 0h-1v1h-1 2v-1zm55 0zm8 1zm-9 0v-1 1zm13 0zm-9 0h-1v1h1v-1 1-1 1-1 1h1v-1h-1zm3 0h1v1-1h-1zm-13 0zm16 0zm-5 0h2-2zm1 0zm0 0zm-22 0zm20 0zm1 0zm-35 0zm20 0c0 1 0 0 0 0v1h1v-1h-1zm9 0h-2 1v1c0-1 0 0 0 0l1-1zm-1 0zm1 0h2-2zm0 0zm-5 0zm9 0h-2 1c0 1 0 0 0 0h1-1 1zm-2 0zm-49 1 1-1h-1v1zm0-1zm36 0zm-11 0zm4 0zm-23 0h-1l1 1h1v-1h-1zm24 0zm10 0h1-1zm2 0v1-1 1-1h1-1zm13 0zm-11 0zm-20 0h-1v1h1v-1 1-1zm11 0h-1v1l1-1v1-1 1-1c0 1 0 1 0 0zm0 0zm0 0zm-15 0zm24 0v1-1h1-2 1zm1 0zm-16 0h-1 1v1-1 1-1 1l1-1h-1zm1 0zm-35 0h-1 1v1l1-1h-1zm15 0h-1v1h1l1-1h-1zm9 0zm-11 0h-1v1h2v-1h-1zm11 0zm37 0zm-37 0zm-23 0zm25 0zm-18 0h-1v1h1v-1zm-5 1v-1 1-1 1h1v-1h-1v1zm59-1zm2 0h-1 1zm-39 0zm-16 1h1v-1h-2l1 1zm0-1s-1 0 0 0zm51 0zm-1 0h1-1zm-56 0zm48 0zm10 0zm-16 0zm0 0zm-20 1h1v-1h-1v1zm19 0zm20 0zm-16 0zm0 0zm-22 0h-1 1zm-8 0zm10 0zm5 0zm-5 0zm0 0zm-8 0h-1 1zm2 0zm2 0zm-3 0zm-3 0zm2 0zm6 0zm-8 0zm1 0zm0 0zm1 0zm3 0zm0 0zm2 0zm-3 0v1-1zm3 0zm0 0zm-4 0h-1s1 0 0 0l1 1v-1 1-1zm1 0zm2 0zm1 0zm-7 0zm6 0zm0 0zm-6 0zm0 0zm2 1-1-1 1 1zm7-1zm-7 0zm2 0v1-1zm1 0h-1l1 1v-1zm-4 0zm1 0v1-1zm1 0zm4 0zm1 0zm-1 0v1-1zm-7 1v-1h-1l1 1zm1-1v1-1zm3 0v1-1zm1 0zm1 1v-1 1zm-1-1zm3 1zm-7 0zm5 0v-1 1zm-2 0zm-1 0zm-7 1h-1 2v2l1-1v1-1s0 1 0 0h1c0 1 0 0 0 0h1-1l1 1v-1l1 1v-1s0 1 0 0v1h1v-1l1 1v-1 1h2v-1 1-1h2v-1 1h-1v-1h1v1-1 1h2v-1h1-1 1l-1 1v-1 1h2-1v-1 1c0-1 0 0 0 0v-1h3s0 1 0 0v1h2l-1-1h5c0 1 0 0 0 0l1 1v-1h1v1-1 1h1v-1l1 1h1v-1h1-15v-1l-1 1s0-1 0 0v-1 1h-1v-1 1h-2v-1 1h-1 1-3v-1 1h-3 1-4v1h-1v-1zm25 0zm-5 0zm-3 0zm-1 0zm-2 0zm-3 0zm0 0zm-1 0zm0 1zm0-1h-1 1zm-1 0zm0 0zm0 0zm-1 0h1l-1 1v-1zm0 0zm-2 1zm0 0zm1-1zm0 0zm0 1zm0-2zm-1 1zm0 1zm-1-2zm0 1zm0 1h-1 1zm-1-1c1 0 1 0 0 0h1-1zm0 0h1-1zm0 1zm0-1zm0 1h-1 1zm-2 0zm0-1h1v1l-1-1zm-1 0c1 0 0 0 0 0z"/><path class="st2" d="M1053 227zm4 0zm2 0zm-10 0zm3 0v-1 1zm1 0zm4 0zm40 0zm-46 0v-1 1zm4 0zm0 0zm1 0zm-6 0h1-1zm6 0zm38 0zm1 0zm-44 0zm2 0h1-1zm4 0h-1 1zm37 0zm-39 0h-1 1zm-3 0zm5 0zm-3 0zm40 0zm4 0zm-7 0zm-40 0zm-1 0zm4 0zm1 0zm-1 0zm-5 0zm1 0zm9 0zm-10 0zm4 0zm-4 0zm24 1h2v-1h-2 1l-1 1zm10-1h-4v1-1h-4v1h8v-1zm-27 0zm5 0zm-1 0zm0 0zm4 0zm-15 0zm32 0zm0 1zm-4 0zm16 0zm1 0 1 1v-1 1h1v-1h-2 1v1l-1-1zm-20 0zm13 0zm3 0zm9 0zm-6 0v1h1v-1h-1 1-1zm-2 1h1v-1h-1v1zm-3-1zm9 0v1-1 1h1v-1h-1zm-8 1c0-1 0 0 0 0h1c1 0 0 0 0 0v-1c0 1 0 0 0 0v1-1 1l-1-1v1c0-1 0-1 0 0zm-1-1zm-42 0zm10 0zm29 0zm-18 0zm17 0zm8 0zm-30 0h-2v1h1v-1h1zm23 1h1v-1h-1l1 1-1-1v1-1 1zm1-1zm1 1h1v-1 1s0-1 0 0v-1h-1v1zm1-1v1-1zm0 1zm-38-1zm21 0zm13 0h-1v1h2l-1-1h1-1zm0 1zm-15-1v1-1l-1 1v-1 1h1v-1zm1 1h1v-1 1-1l-1 1zm1-1zm3 1h1v-1h-1v1zm9 0v-1 1h-1l1-1-1 1v-1 1-1 1l-1-1v1h2zm-2-1zm1 1v-1 1zm-18 0h1v-1h-1v1zm1-1zm0 1zm0-1c0 1 0 1 0 0zm1 0v1h1v-1h-1zm1 1zm-1 0zm13-1h-2v1-1 1-1 1h1v-1 1-1 1c0-1 0 0 0 0h1-1l1-1c0 1 0 1 0 0h-1 1zm20 0zm0 0v1-1zm-23 0v1h1v-1 1-1h-1s1 0 0 0c0 0 1 0 0 0zm4 1h1v-1h-2v1h1zm0 0zm-24-1zm17 1v-1 1l-1-1v1-1 1h1zm0 0zm-9-1zm-17 1v-1l-1 1v-1 1h-1 2zm20-1zm29 1zm-26 0zm26 0h1-1zm-36 0zm36 0zm-11 0zm-14 0zm-4 0zm0 0zm5 0zm9 0c1 0 1 0 0 0zm-15 0zm-22 0zm16 0zm35 0zm1 0zm-23 0zm-20 0zm2 0zm13 0zm1 0zm-9 0zm-13 0zm12 0zm-10 0zm3 0zm-4 0zm3 0zm-3 0zm5 0zm1 0zm-6 0zm7 0zm-6 1v-1 1zm2 0v-1 1zm-2 0h-1 1c-1 0 0 0 0 0zm2 0v-1l-1 1h1zm0 0zm-3 0zm4 0zm0 0zm0 0zm2 0zm-4 0zm0 0zm-1 0zm4 0zm2 0zm1 0h-1 1zm-7 0zm-2 0zm0 0zm1 0zm-1 0zm1 0zm1 0h1-1zm-3 0zm3 0zm1 0zm1 0zm4 0zm0 0zm-9 0zm1 0h-1 1zm4 0zm0 0h-1 1zm0 0zm5 0zm-3 0zm-6 0zm0 0zm1 0zm4 0zm5 0zm-10 0zm6 0h-1 1zm4 0zm-1 0zm-9 0zm0 0zm1 0zm3 0h1-1zm44 0zm-47 0zm6 0zm-4 0zm5 0zm-3 0zm-6 0zm7 0zm-7 0zm3 0zm0 0zm2 0zm0 0zm32 0h-1v1h10v1h1v-1h1v1s0-1 0 0v-1l1 1v-1 1-1l1 1v-1 1-1 1l1-1s0 1 0 0h-3v-1 1h-1l-1-1v1s0-1 0 0h-5 1-5v-1zm13 0zm-1 1zm-2 0zm-3-1zm-3 1zm-1 0zm-44 0v1h1l1-1v1-1 2-1 1h1-1 1-1v1c0-1 0 0 0 0h-3v1h2v1h1v1-1 2h-2v1h2-2v1h2v1h-1l-1 1h1v1s0-1 0 0h1v1-1 1-1 1-1l1 1v-1 1l1-1v1-1 1-1h2-1 2v-1h-3 1v-1 1h2v-1 1h2v-1 1h2v-1 1h2v-1 1h2v-1 1h3l1-1v1h1l1-1v1h1l1-1v1h1l1-1h-1 1v1h1v-1h1v1-1 1h1v-1h1-13s1 0 0 0h-2 1-5c1 0 0 0 0 0h-6 1-2 1-2v-1h1v1-1h1-1v-1 1h1-1 1v-1 1-1 1-1h1s0 1 0 0v1h1v-1 1-1h-1 1v-1 1s0-1 0 0h1l1-1v1-1h1s0 1 0 0v1-1h24-12 1-16v-1h-1v1h1l-1-1v1-1 1-1h-1v1-1 1-2 1-1 1h1v-1 1h-1v-1h1s0 1 0 0h1-1 1v1h1v-1 1-1h3-1s0-1 0 0h-1v-1 1h-1v-1h23-1 1v1l1-1v1s0-1 0 0v-1s0 1 0 0h1v1-1 1-1 1l1-1h1v1h1v-1 1-1 1h2v-1 1h2v-1 1h2v-1 1h2v-1 1h4v-1 1h1v-1 1h6v-1h-5v1-1h-4v1-1h-2c0 1 0 0 0 0h-2v1-1h-2v1-1h-2v1-2h-2 1-2l-1 1v-1h-1l-1 1v-1h-1v1h-1 1-1v-1 1-1l-1 1v-1 1-1 1-1 1h-1v-1 1-1l-1 1v-1 1h-1v-1 1-1 1-1 1s0-1 0 0h-1v-1 1h-1v-1 1h-15c0 1 0 1 0 0h-4v-1l1 1v-1h-1v1h-1v-1h1-1 4v-1 1h2v-1h1-1v1h2-1 1v-1 1h2v-1h2v-1h-10v1h-1v-1 1-1 1h-1v-1 1s0-1 0 0v-1l-1 1h-2v-2zm2 3zm-1 1zm0 0zm1 1zm0-1zm0 4h-1 1zm13 3zm-9-1zm-1 0zm0 1zm0 0zm0 0zm-1 0zm0 0zm0 0zm0 0zm-1 0h1-1zm23-4zm-7 0zm-4 0h-1 1zm-4 0zm-2 0zm-2 0zm0 0zm-1 1zm-1-1 1 1-1-1c0 1 0 0 0 0zm0-1zm0 2zm0 0zm0-1v1-1 1-1 1-1c0 1 0 0 0 0zm0 0v1h-1l1-1zm-1 0v1-1zm48-4zm-2 0zm-5 1zm-1 0zm-1-1zm0 0s0 1 0 0zm-1 0zm-3 0zm-2 0h-1 1zm-10 1zm0-1zm-2 0zm-5 0zm-1 0s1 0 0 0zm-1 1zm-12 1zm0-2zm0 1h1-1zm0 0zm-1-2zm-1 0zm3-1zm3 0zm3-1zm-2 1v-1 1-1c0 1 0 0 0 0v1h1v-1 1h1-1l-1-1v1zm0 0zm-2-1zm0 1zm0 0zm0 0zm-1 0zm0 0zm0 0zm-1 0zm-1 0zm0 0zm-1 0zm0 0 1-1v1h-1zm0-1zm-1 1zm0 0c-1 0-1 0 0 0zm0 0zm-2 1zm0 2h1-1zm1 1h-1 1zm0-1zm1 5c-1 0-1 0 0 0zm0-1zm0 1h-1 1c-1 0-1 0 0 0zm-1-2v1-1zm0-1zm0 0zm0 2zm0-2zm0-1zm0 1v-1 1zm0-1h1-1zm0 1h-1 1zm0 3v1-1zm0 0zm0 0h-1 1zm-1 0zm0-1v-1 1zm1-2h-1 1-1 1zm-1 2zm0 0zm0-2zm0 3zm0 0zm1-3zm0 0zm0 2v-1 1zm0 1zm-1-4zm0-1zm1-1s-1 0 0 0h-1 1zm-1 3zm0 3zm0 2h-1 1zm0 0h-1 1zm0 1zm0-1zm0 0h1-1zm0-1v-1s0 1 0 0v1zm1 0h-1 1zm0 1zm0-2zm0 2zm0-1zm0 0zm1-1h-1 1zm0 0h-1 1zm0 0v-1 1-1 1zm0-3h-1 1zm0 0v-1 1h-1 1zm0 0zm0-1zm1-1h-1 1zm0 1h-1 1zm-1-2zm0 1zm0 0zm0 1zm0 0zm0-2s-1 0 0 0zm-1-2zm0 1v1-1 1h1-2v-1l1 1v-1zm-1-1c1 0 0 0 0 0z"/><path class="st2" d="M1047 230zm5 0zm-3 0zm4 0zm-5 0zm4 0zm1 0zm37 0zm1 0zm-40 0c0 1 0 1 0 0zm0 0zm22 1v-1 1-1l-1 1v-1 1l-1-1v1-1 1h-13 1-2v2h2v-1c0 1 0 0 0 0l-1 1v-1 1-1h5v-1 1h3l1-1v1h1l1-1v1-1l1 1v-1h1v1-1 1-1 1l1-1h1v1-1 1-1l1 1v-2l-1 1zm-15 1zm0-1zm0 1zm1-1zm2 0zm5 0zm0 0zm14 0h-1v-1 1-1 1-1l-1 1v-1h-1v1s0-1 0 0h-1v-1h-1v1-1 1h5zm-4 0zm2 0zm0 0zm4 0h-1v-1l-1 1h2c-1 0 0 0 0 0zm-26 0v-1 1zm-2 0zm43-1v1-1c1 1 1 1 0 0zm1 0s0 1 0 0c0 1 0 0 0 0zm-16 1zm16 0zm-52 0zm7 0zm45 0zm0 0z"/><path class="st2" d="M1059 231zm38 0c1 0 1 0 0 0zm-32 0zm15 0zm10 0zm2 0zm-50 0h-1 1zm40 0zm12 0zm-14 0zm9 0zm4 1h2v-1h-1v1-1h-1v1zm1-1zm-6 1h1v-1 1h-1v-1 1-1s0 1 0 0v1zm4 0h1v-1l-1 1h1-1v-1c0 1 0 1 0 0v1zm-8 0h2-2zm6 0h1-1v-1 1-1l-1 1h1zm6 0zm-15 0zm15 0h-1 1v-1 1zm-13 0zm-1 0h1-1zm-26 0zm20 0h-2 1v1-1h1zm11 0h-1 1zm-17 0h-1s0 1 0 0v1-1 1l1-1v1-1 1-1zm0 0zm4 0h-2 1v1h1v-1zm3 0zm-17 0zm17 0h-1 1zm-12 0zm1 0h-1 1zm1 1v-1 1h1v-1h-1v1c0-1 0-1 0 0zm12-1h1-2 1zm2 0h-1 1v1-1zm-30 0zm4 0h1v1-1 1l1-1h-1 1-2zm17 0h-1 1zm-11 0zm3 0h-1v1-1l1 1v-1 1-1zm13 0zm-16 0h-1 1-1 1-2v1l1-1v1s0-1 0 0v-1h1s-1 0 0 0zm35 0zm0 0zm-16 0zm-38 1h1v-1 1-1h-1v1zm19-1 1 1c0-1 0 0 0 0v-1 1-1h-1zm16 0zm10 0zm9 0zm-55 0zm55 0zm-22 0zm2 0zm10 0zm4 0zm-8 0zm-29 0zm8 0zm27 0zm-37 1zm18 0zm-20 0zm2 0zm-3 0zm2 0zm-3 0c1 0 1 0 0 0 1 0 1 0 0 0 1 0 1 0 0 0zm3 0zm-3 0zm-3 0zm5 0zm2 0zm-2 0zm0 0zm-1 0zm0 0zm2 0zm-2 0h-1 1zm0 0zm0 0zm2 0zm-4 0h1-1zm1 0zm3 0zm-3 0zm0 0zm-1 0zm0 0c-1 0 0 0 0 0zm3 0zm2 0zm-3 1v-1c0 1 0 0 0 0v1zm2-1zm2 0zm-3 0zm1 0zm39 0zm-42 1v-1 1zm2-1zm-1 1v-1l-1 1h1zm4-1c-1 0 0 0 0 0zm-3 0c0 1 0 1 0 0zm0 1zm1 0v-1 1zm-5 0zm4 0zm-1 0v-1 1zm-5 0zm2 0v-1 1zm5 0zm-7 0zm1 0zm5 0zm2 0zm43 0zm-7 0zm-38 0zm-2 0zm3 0zm0 0zm0 0zm15 0zm19 0zm-35 0zm3 0zm11 0zm17 0zm0 0h1-1zm-20 0zm17 0zm12 1zm2 0zm-29 0zm8 0zm11 0zm4 0zm1 0zm7 0zm-41 0zm23 0zm18 0h-1l1 1v-1 1-1zm-35 0zm-10 0zm38 0 1 1v-1 1-1 1l1-1s0 1 0 0h-2zm1 1zm2-1h-1v1h1l1-1h-1zm-8 1v-1l1 1v-1h-1v1zm0 0c1 0 0 0 0 0zm10-1h-1v1h2v-1h-2 1zm-10 0zm-4 0v1-1 1h1v-1h-1 1-1c0 1 0 1 0 0zm0 0zm-27 0zm33 0v1h1v-1h-1zm1 0zm1 0v1h1v-1h-1zm-7 0zm-3 1h1v-1h-1v1zm7-1h-1 1zm-8 1h1v-1h-2v1h1zm0 0zm0-1zm5 0zm0 1h1v-1 1-1 1-1h-1v1c0-1 0 0 0 0zm-7-1zm3 0zm-6 0h-1 1zm2 1v-1h-1l-1 1h2zm-1 0zm-1 0v-1h-1c0 1 0 0 0 0v1h1zm0 0h-1 1zm24-1zm-39 1v-1h-2v1h2zm9 0v-1h-1v1h1zm-1 0zm3 0v-1h-1 1-2l1 1h1zm1-1zm3 0zm3 1h1v-1h-2 1-1v1h1zm-16 0-1-1h-1v1h2zm-1 0zm12-1zm25 0zm-25 1v-1h-1v1-1h-1v1h2zm2-1zm-10 1v-1 1-1s0 1 0 0h-1v1h1zm-17-1h-1v1h1v-1zm15 1v-1l-1 1v-1 1h1zm4 0v-1 1-1h-1v1h1zm5-1zm20 1c0-1 0-1 0 0zm-11 0zm4 0zm4 0v-1 1zm9 0zm-40 0zm0 0zm35 0zm-33 0zm18 0zm-13 0zm-7 0zm-3 0zm1 0zm-2 0zm0 0zm0 0c-1 0-1 0 0 0zm-1 0-1 1h1v-1zm3 0zm-7 0s1 0 0 0zm7 0zm1 0zm0 0zm32 1c0-1 0 0 0 0zm-35 0v-1 1zm1 0zm-1 0h-1 1zm0 0zm0 0zm1 0zm3 0zm-2 0zm1 0c1 0 1 0 0 0zm0 0zm2 0zm-4 0s-1 0 0 0zm-6 0zm5 0h-1 1zm1 0zm1 0zm2 0zm-2 0zm-6 0zm8 0zm-2 0zm35 0zm-36 0zm0 0zm2 0zm35 0zm3 0zm-40 0zm-6 0zm33 1h-1 16-1v-1s0 1 0 0h-1v1h-13l-1 1 1-1zm11 0zm-2 0zm-2 0zm-4 0z"/><path class="st2" d="M1090 237zm-8 0zm-30 0c1 0 0 0 0 0zm-9 0zm6 0zm4 0zm32 0zm-8 0zm1 0zm7 0zm-42 0zm13 0zm6 0zm0 0zm19 1c0-1 0-1 0 0v-1 1zm4 0zm-44 0v-1 1h-1 1-1 1zm50 0zm-6 0zm2 0zm-12 0h1-1zm8 0zm-17 0zm19 0zm-19 0zm0 0zm8 0zm5 0s1 0 0 0zm8 0zm-25 0zm27 0zm-38 0zm27 0zm0 0zm-21 0zm32 1-1-1-1 1h2-1 1zm-1 0zm0 0zm0 0zm-23-1zm20 1-1-1v1s0-1 0 0v-1 1h-1 2zm-1 0zm5-1zm-10 0zm8 1v-1h-1v1-1 1-1 1s1 0 0 0h1zm-15 0h1v-1 1h-1zm11 0v-1 1-1l-1 1s0-1 0 0v-1 1h-1 2zm7 0h-1 1zm0 0zm0 0zm0 0zm-34-1zm18 1h1-1zm5 0v-1l-1 1v-1 1-1 1-1 1h1zm-1 0zm1 0zm-12 0v-1 1zm10 0v-1 1h-1 1zm-1 0zm0 0zm1 0zm-6 0v-1 1zm10 0-1-1v1s0-1 0 0v-1 1h1zm-6 0v-1 1zm4 0zm2 0zm-25 0h-1 1zm14 0h-2 2-1 1zm0 0h2-2zm-27 0zm42 0zm-22 0h1-1zm10 0c-1 0 0 0 0 0-1 0-1 0 0 0zm-20 0h-4 4zm19 0zm-6 0h-2 2zm4 0zm-21 0zm17 0h2c1 0 0 0 0 0h-1v-1 1h-1 1-1zm1 0zm-18 0zm10 0h1v-1 1-1l-1 1v-1 1zm-1 0h-1c-1 0 0 0 0 0h1c1-1 0 0 0 0zm3 0zm9 0zm-16 0h-1 1zm0 0zm-1 0zm9 0h-1s0-1 0 0h1zm10 0zm-15 0zm9 0zm-25 0zm36 0zm14 0zm-50 0zm34 0zm-1 0zm16 0c1 0 1 0 0 0zm-24 0zm22 0zm-12 0zm4 0zm-39 0zm41 0zm-8 0h1-1zm-23 0zm15 0zm15 0zm2 0zm-8 0zm6 0c-1 0-1 0 0 0zm3 0zm-29 0zm6 0zm-12 1v-1 1zm0 0zm-3 0zm2 0h-1 1zm-5 0zm1 0zm3 0zm1 0zm2 0zm-2 0zm-5 0zm7 0zm-3 0zm-4 0zm7 0zm35 0zm-38 0zm0 0h-1 1zm3 0zm0 0zm3 0c-1 0-1 0 0 0-1 0-1 0 0 0zm-1 0zm-5 0zm2 0zm-1 0zm0 0zm1 0h-1 1zm34 0zm-34 0zm-6 0zm41 0zm-36 0zm2 0zm1 0zm1 0zm-3 0zm0 0zm-6 0zm7 0zm1 0zm-3 0zm-1 1v-1 1zm3-1zm-2 0zm0 1v-1 1zm35 0c0-1 0-1 0 0zm-35 0c0-1 0-1 0 0zm33 0zm4 0zm0 0zm-13 0h-2 1v1-1 1-1h1s0 1 0 0h1v1l1-1v1h1-1 2v-1 1h11-1 4-6v-1h-1v1-1 1h-1v-1h-1v1h-1v-1s0 1 0 0v1-1l-1 1c0-1 0 0 0 0h-1v-1 1-1 1h-3v-1h-1c-1 0 0 0 0 0h-1v1-1h-1zm17 0zm-1 0zm-4 0zm0 0zm-2 0zm-2 0zm-4 0zm0 0zm0 0zm-2 0c1 0 1 0 0 0zm0 0zm13 0zm-43 0zm39 0zm4 0zm11 0v-1 1h1-1zm-9 0zm3 0h-1c0-1 0 0 0 0v-1 1h-1v-1 1h2v1-1h2-2zm-2 1v-1 1-1 1zm3-1zm7 0zm-57 0zm51 0zm1 0h-1 2-1zm0 0zm1 0h1v-1 1-1h-1v1zm2 0zm-49 0zm0 0zm53 0zm-18 0zm-38 0zm31 0zm24 0h-1 1zm-1 0zm-49 0zm19 0zm25 0zm7 0zm0 0zm-30 0zm6 0zm-28 0zm32 0zm0 0zm-28 0zm11 0zm-24 1h1v-1h-1s-1 0 0 0v1zm12-1z"/><path class="st2" d="M1097 241zm-42 0zm37 0zm-2 0zm-29 1v-1 1zm2 0v-1 1zm25 0s0-1 0 0zm-4 0zm2 0zm-18 0c1 0 1 0 0 0zm14 0zm-4 0h1-1zm-4 0c1 0 1 0 0 0zm8 0h-2v1h1v-1h1zm-1 0zm0 0zm-2 0zm-9 0zm1 0zm7 0zm1 0zm-2 0zm7 1v-1h-2 1v1-1 1-1h1v1zm-8-1zm10 0h-1 1-2 2c-1 1 0 0 0 0zm-17 0zm8 0zm-7 0zm10 0h-1s0 1 0 0h1zm-1 0zm3 0zm9 0zm-39 0c-1 0-1 0 0 0zm21 0zm20 0h-1 1zm-5 0h1-1zm1 0zm-1 0zm1 0zm2 0zm1 0zm-20 0zm19 0h-1 1zm-1 0zm0 0zm-3 0h-1l1 1v-1 1-1l1 1v-1l-1 1v-1h1-1 1-1zm0 0zm0 0zm0 0zm2 0zm-40 0zm29 0h-2 1v1h1v-1zm-4 0h-2 1v1h1v-1zm8 0zm-33 0zm27 0h-1v1-1 1-1l1 1v-1 1-1zm-1 0zm-3 1v-1h-1v1h1v-1 1zm-3-1v1-1 1-1l1 1v-1 1-1h-1zm-1 0h-1v1h1v-1zm-12 0v1-1 1h1v-1h-1zm7 0v1h2l-1-1h1-2zm1 1zm-14 0h1v-1h-1v1zm2 0h1v-1h-1v1zm2-1v1h1v-1h-2 1zm6 1h-1 2v-1 1-1h-2l1 1zm3-1h-2v1h1v-1h1-1 1zm-5 0c-1 0-1 0 0 0zm34 0z"/><path class="st2" d="M1057 242h1v1h1v-1 1-1h-2c1 0 1 0 0 0zm1 1zm8-1h-1c-1 0 0 0 0 0v1-1 1h1v-1 1l1-1h-1zm27 0zm-52 1h1v-1h-1v1zm35-1zm2 0zm15 0zm-24 0zm11 0zm6 0zm-23 0zm4 0zm11 0zm2 0zm-8 0zm8 0zm-9 0v1-1zm6 1c0-1 0 0 0 0s-1-1 0 0zm5 0zm6 0zm-36 0zm36 0v-1 1zm-4 0zm3 0zm-33 0zm18 0zm-6 0zm18 0zm-16 0zm-18 0zm-1 0zm-3 0zm1 0zm-2 0c1 0 1 0 0 0zm3 0zm-5 0zm5 0zm0 0zm-2 1v-1 1zm0-1zm1 0zm33 0zm-35 0zm3 0zm3 0zm-6 0v1-1zm-1 1v-1 1zm2-1v1h1l-1-1c0 1 0 0 0 0zm3 0zm-1 0zm-3 0v1-1zm-1 1h-1 1zm2-1v1-1zm3 0v1-1zm-2 1c0-1 0-1 0 0zm3 0zm-3 0v-1 1zm0 0v-1 1zm-2 0zm0 0zm6 0zm-8 0zm6 0zm1 0h-1 1zm-3 0zm-1 0zm0 0zm1 0zm1 0zm1 0zm-4 0s1 0 0 0zm0 0zm0 0zm0 0zm3 0zm0 0zm-5 0zm5 0zm2 0s1 0 0 0zm-1 0zm-5 0zm3 0zm-6 1h2v1l1 1h1v-1 1l1-1v1-1 1-1h1v1-2 1-1 1-1h1-1v1h2v-1h-1 3-1v1-1l-1 1h2v-1h8v-1 1h2v-1 1h8-1v-1l1 1h5v-1 1h2v-1 1h2v-1 1h2v-1 1h8-1 1v-1h-2v1-1 1l-1-1h1-2s0 1 0 0v1l-1-1h-1v1-1h-2v1l-1-1h-1v1-1 1-1h-1s0 1 0 0l-1 1v-1 1l-1-1s0 1 0 0v1h-1l-1-1v1s0-1 0 0h-7 1-1v-1l-1 1-1-1v1-1 1-1l-1 1s0-1 0 0l-1-1s0 1 0 0h-1v1-1h-1l-1 1h-2v-1h-1v1h-9v-1h-1l1 1h-2v-1l-1 1v-1 1h-3zm45-1zm-3 0zm-2 1zm0-1c0 1 0 0 0 0zm-2 1v-1 1zm-6 0zm-2 0zm-3 0zm-10 0zm-2 0zm-8 0h1-1zm-1 0zm-1 0zm0 0zm0 0v1l-1-1h1zm-1 0s0 1 0 0v1l-1-1h1zm-1 0zm-1 0h1-1zm0 0zm45-1h-1v1h1v-1 1h2v-1 1h2v-1h-4zm4 0zm-4 0zm1 0zm-6 0zm11 0h-2 1-1v1h1-1 2v-1s0 1 0 0zm-49 0zm0 0zm0 0c-1 0-1 0 0 0zm5 0zm23 0zm13 0zm-12 0zm8 0zm-19 0zm27 0zm-43 0zm12 0zm35 1h2l-1-1h-1v1zm-26-1zm29 1v-1 1-1 1-1l1 1v-1l-1 1zm0 0zm-1 0zm-56 0h1-1z"/><path class="st2" d="M1097 245zm-5 0zm4 0zm3 0zm-12 0zm1 0zm-17 0zm22 0zm-18 0zm10 0zm2 0zm-23 0zm20 0zm2 0zm-7 0zm4 0zm-1 0zm7 0zm-1 1v-1h-1v1-1 1h1zm-14-1zm12 0zm5 0zm5 0zm-13 1h1v-1 1-1h-1v1zm1 0zm0 0zm0 0zm-1 0zm3-1zm2 0zm5 1h1v-1 1h-1l1-1h-1v1-1 1zm1 0zm-1 0zm4-1zm0 0zm-16 1v-1 1h2v-1h-2v1zm1 0zm2-1zm3 0zm1 0zm3 0zm1 0c-1 0-1 0 0 0zm2 0zm3 0zm-19 0v1-1h-1v1h2-1v-1zm5 0zm-2 1-1-1v1s0-1 0 0v-1h-1v1h2zm-1 0v-1 1zm0 0zm0 0zm19-1zm-10 1h1l-1-1h-1l1 1zm8-1c1 0 0 0 0 0zm-1 1h1v-1 1-1 1-1 1-1 1-1 1-1h-1c1 0 1 0 0 0v1zm1 0zm0 0zm-49-1zm37 0v1h1v-1h-1c1 1 1 1 0 0zm1 1zm9-1zm1 1v-1 1zm1-1zm2 0h-1 1c0 1 0 1 0 0zm-45 0s-1 0 0 0zm19 1s1 0 0 0h2v-1 1-1l-1 1v-1 1-1l-1 1zm1 0zm0 0zm7-1zm3 0zm7 1h1v-1 1-1 1l-1-1v1c0-1 0 0 0 0zm-38 0v-1l-1 1h2-1zm13 0h1-1zm30-1zm1 0zm-39 1-1-1s0 1 0 0h-1v1c0 1 0 0 0 0h2zm-1 0zm11 0h1-1zm1 0zm0 0zm-1 0zm5-1v1-1l-1 1v-1 1-1 1h1v-1zm-1 1zm1 0zm2 0h2-2zm1 0zm0 0zm21-1zm-35 1h1v-1 1-1h-1v1zm1 0zm7 0h1v-1h-1v1zm0 0zm5 0v-1 1zm-25-1zm2 1v-1 1l-1-1v1-1 1h1c0-1 0 0 0 0zm8 0h2-1 1l-1-1v1-1l-1 1v-1 1zm2-1c0 1 0 1 0 0zm22 0zm6 0c0 1 0 1 0 0zm5 1v-1 1zm0 0zm0 0zm1-1zm2 0zm-42 1v-1l-1 1v-1 1-1h-1v1h2zm0 0zm2 0h1v-1 1l-1-1v1zm0 0zm6 0h2-1c0-1 0 0 0 0l-1-1v1zm6-1v1-1zm27 0zm-47 1v-1 1zm22-1c-1 1-1 1 0 0l-1 1 1-1c0 1 0 1 0 0zm25 1h1v-1 1h-1zm-1 0v-1 1zm-15 0v-1 1zm9 0v-1 1zm7 0zm0 0zm-56 0h2-1c0-1 0 0 0 0v-1l-1 1zm55 0zm-51 0v-1 1zm20 0zm18 0zm4 0zm9 0c-1 0 0 0 0 0zm2 0zm-47 0h-1 1zm-2 0zm48 0zm-29 0zm28 0zm2 0zm-17 0zm-17 0zm17 0zm9 0zm-40 0zm12 0zm27 0zm-3 0zm-14 0zm10 0zm-3 0c1 0 1 0 0 0zm-20 0zm-9 0zm-1 0zm1 0zm-1 0zm-3 1c0-1 0-1 0 0 0-1 0-1 0 0 0 0 0-1 0 0zm4-1zm-3 1zm2 0zm-5 0zm4 0zm2 0zm0 0zm-6 0h1-1v-1 1c1 0 0 0 0 0zm2 0zm2 0zm-3 0zm0 0zm-1 0zm4 0zm-4 0zm3 0zm-1 0zm1 0zm-1 0h-1 1zm-3 0zm4 0zm-2 0zm0 0zm1 0zm6 0zm0 0zm-2 0zm-3 0zm-4 0zm6 0zm4 0zm-5 0zm-4 0zm1 0zm0 0zm-1 0zm3 0zm0 0c1 0 1 0 0 0zm-4 0zm2 0v1-1zm5 0zm-5 0h-1 1zm1 0zm-2 0zm4 0zm1 0zm-6 1h-1l1 1h1v1h2l-1-1h1-1 1v1h1v-1h1-1l1 1h-1 2v-1h14v-1h-14v1-1h-2v1-1h-4zm4 1zm1 0zm13-1zm-4 0zm0 0zm-6 0zm0 0zm-2 0zm-2 1zm-1 0zm-1 0zm0 0zm0 0zm-1 1zm0-1zm4-2zm-2 1c0-1 0-1 0 0 0-1 0 0 0 0 1 0 1 0 0 0zm27 0h-1 3v1-1 1s0-1 0 0v-1h2v1-1h1-1 1v1h1s0-1 0 0v-1h1v1-1 1l1-1h3-1 4v-1 1h-1v-1 1h-1v-1 1-1 1l-1-1v1h-8c-1 0 0 0 0 0h-1v-1h-1s0 1 0 0v1h-1v-1 1zm12 0zm-5 0zm-1 0c1 0 1 0 0 0zm-1 0zm-2 0zm-2 0zm18-1v1-1 1-1l-1 1v-1 1-1 1l-1-1v1s0-1 0 0v-1l-1 1h4-1 1-1v-1c1 1 1 0 0 0zm-1 1z"/><path class="st2" d="M1089 247c0 1-1 1 0 0h-1v1-1 1h-1 2v-1zm-40 1zm33 0zm-35 0zm40 0zm7 0h-1 1c1 0 0 0 0 0h1-1zm-20 0zm-29 0zm51 0h-1 1zm0 0zm-32 0h-2 1s0 1 0 0c0 0 0 1 0 0v1l1-1s0 1 0 0h4-1v-1 1-1 1h-3zm2 0zm-2 0zm11 0zm4 0zm-32 0zm3 0zm2 0zm35 0zm-36 0zm18 0h-1 2-1 3-3zm1 0zm-17 0zm8 0zm26 0zm-38 0zm10 0zm-18 1v-1h-1l1 1zm48-1zm6 0zm1 0zm-11 0zm-22 0c-1 0-1 0 0 0zm5 0zm22 0zm-24 1zm15 0zm8 0zm-12 0zm-1 0zm16 0zm-3 0s-1 0 0 0zm1 0zm-15 0zm-22 0zm0 0zm36 0h-1 1-1v-1 1h1-1 1zm-1 0zm4 0h-1 2-1zm0 0zm-2 0s-1 0 0 0h1-1zm0 0zm0 0zm-6 0h1-1zm1 0zm-1 0zm6 0zm-11 0h-1 1zm-1 0zm0 0c1 0 1 0 0 0zm1 0c-1 0 0 0 0 0zm0 0zm0 0zm0 0zm4 0h-1 1zm10 0h2-2 1-1zm-32 0zm15 0h2-1 1-1v-1 1-1l-1 1s0-1 0 0zm1 0zm0 0zm4 0h-1v1h1v-1h-1 1zm-1 0zm6 0h1-2 1zm0 0c1 0 0 0 0 0zm0 0zm2 0zm-30 0zm6 1v-1 1-1h-1c1 0 1 0 0 0h1-1v1h1v-1 1zm24-1zm-23 0zm2 0zm0 0zm8 0zm-1 0h-2 2zm-1 0zm2 0c-1 0-1 0 0 0h-1 1zm-10 0zm-11 0zm13 0v1h1v-1h-1 1-1zm0 0zm4 1v-1s0 1 0 0v1-1h1-2l1 1zm0-1zm0 0zm-26 0zm5 0zm1 0h-2l1 1v-1 1-1l1 1s0-1 0 0v-1zm2 0h-2 1c0 1 0 1 0 0v1h1v-1zm2 0zm7 0h-1s1 0 0 0v1l1-1v1s0-1 0 0v-1zm14 0zm-18 0h-1v1l1-1v1-1 1-1h1-1zm8 0h-1 1c0 1 0 0 0 0zm-1 0zm0 0zm1 0zm0 0zm3 0v1-1 1l1-1h-1v1-1zm1 0zm-1 0zm0 0zm18 0zm6 0zm-22 0zm-2 0h-1 1zm-14 1v-1h-2l1 1h1zm10-1zm-23 1h1v-1h-1v1zm2-1zm11 0c0 1 0 1 0 0v1h1v-1 1-1 1l1-1h-2c0 1 0 0 0 0zm-14 1v-1 1zm24-1zm-5 1v-1 1-1h-1v1h1zm0-1zm36 0zm-37 0zm9 0zm-4 0zm8 0zm-17 0zm30 0-1 1h1v-1zm-15 0zm18 0zm2 0zm-24 1zm-15 0zm38 0zm-36 0v-1 1zm21 0zm-13 0zm-15 0h-1 1zm0 0zm-1 0zm3 0zm1 0zm-2 0zm-1 0zm-2 0zm4 0zm-3 0zm1 0zm-1 0zm1 0zm0 0c1 0 1 0 0 0zm-2 0zm1 0zm3 0zm-1 0zm-2 0zm1 0zm-2 0zm2 0s0 1 0 0zm1 1zm1 0c1-1 1 0 0 0zm-2 0zm0 0zm-1 0zm1 0zm-1 0zm48 0h-3v1-1h-2v1-1h-4v1-1h-1v1-1 1l-1-1v1-1h-1v1h-1v-1h-1v1h-1c0-1 0 0 0 0l-1-1v1h-1l1-1h-2v1-1 1h-1v-1l-1 1h-2v1h1l1-1v1-1 1l1-1v1-1 1l1-1v1-1h1v1-1h2v1s0-1 0 0l1-1h8-1 8l-1-1zm-18 0zm-1 0zm1 1zm9-1zm2 0zm0 0zm2 1v-1s0 1 0 0v1zm6-1zm-2 0zm-4 0zm1 0zm6 0h-1v1-1 1h1v-1 1-1h2-1 1-1s-1 0 0 0h-1zm-48 0zm-3 1h13-1 6-1 5v-1l1 1h3v-1h-2v1-1h-2v1-1h-1v1h-1v-1h-22v1h2zm25-1zm-6 1zm-2-1zm-5 0v1-1c0 1 0 1 0 0zm-2 1zm-2 0s0-1 0 0v-1 1zm-8 0zm35-1z"/><path class="st2" d="M1044 251zm21 0zm34 1-1-1v1l1-1v1zm-34-1zm0 0zm-24 1h1v-1h-1v1zm19-1zm-6 0zm23 1zm-10 0zm19 0zm-20 0zm28 0zm-46 0zm10 0zm35 0h-1v1h2-1v-1zm-1 1zm1 0zm0 0zm0-1zm-2 0zm5 1h1v-1 1-1h-1v1-1 1zm1-1zm0 0zm-16 0v1h1v-1h-1zm1 1zm14-1h-1v1-1h-1v1h1l1-1zm-30 0zm15 0zm3 0h-1v1h1v-1zm-1 1v-1 1zm4-1h-1c1 0 0 0 0 0l1 1h1v-1 1-1h-1zm0 0zm1 0zm-1 0zm0 1zm3-1h-1 1-1v1-1 1-1l-1 1h2v-1zm-1 1zm2 0h1l-1-1v1-1h-1v1h1-1 1zm0 0zm-14 0h1v-1c0 1 0 0 0 0h-1v1zm1-1zm0 0c0 1 0 1 0 0zm-1 0zm0 0zm0 1zm-14 0h2l-1-1h-1v1zm12-1zm-2 0v1h1v-1l-1 1v-1zm1 1zm1 0h1v-1h-1v1zm0 0zm23-1v1-1zm-41 0h-1v1h1v-1s0 1 0 0h-1 1zm0 1zm12-1-1 1v-1 1-1l-1 1h2v-1zm0 0zm3 0h-1 1zm13 0-1 1h2v-1h-1v1-1 1-1zm1 1zm-1 0zm-25 0h1v-1 1l-1-1v1s0-1 0 0v-1c0 1 0 1 0 0v1zm9 0h2v-1h-1v1-1 1l-1-1v1zm1 0z"/><path class="st2" d="M1071 253h1v-1 1l-1-1v1zm1-1v1-1zm4 0zm10 0zm-42 1h2v-1 1-1 1h-1v-1 1h-1zm1-1zm34 1v-1 1h1v-1 1-1c0 1 0 1 0 0v1h-1zm7-1h-1 1zm-21 0v1h2l-1-1v1-1 1-1h-1zm15 0zm12 0h-1l1 1v-1zm-48 1v-1h-1v1h1zm-1-1zm9 1-1-1c0 1 0 0 0 0v1-1h-1v1h2zm11 0v-1s0 1 0 0h-1v1h1-1 1zm35-1zm-51 1h1v-1h-1l-1 1s1 0 0 0h1zm11 0h1v-1l-1 1v-1 1-1 1zm1 0zm0 0zm7-1zm0 0zm-17 0zm5 0-1 1v-1 1-1h-1v1h1l1-1zm1 1v-1 1-1 1h-1v-1 1-1 1h1zm-6-1v1-1l-1 1h2v-1h-1zm-8 1h1v-1h-1v1zm42 0zm-18 0zm16 0zm-24 0zm33 0zm-8 0zm14 0zm-8 0zm3 0zm-13 0zm-20 0zm6 0zm6 0zm4 0zm-29 0zm47 1zm4 1v-1h-1v1h-1v-1 1-1l-1 1v-1 1-1 1h-1v-1s0 1 0 0h-1s0 1 0 0v1-1 1h-1v-1c0 1 0 0 0 0h-1v1h4-1 3-1 2zm-6 0zm6-1zm1 0v1h-1 3s-1 0 0 0v-1l-1 1v-1h-1zm0 1zm0-1zm-15 0-1 1h6v-1h-1v1-1 1l-1-1v1-1h-1l-1 1v-1h-1zm5 1v-1 1zm-2 0zm4 0h-1v-1 1-1 1-1 1h-1 2zm-1 0zm-7-1zm-3 1h-1 4-1c1 0 0 0 0 0v-1s0 1 0 0h-1v1h-1zm3 0zm-2 0zm-3-1v1-1 1h1v-1h-1zm-5 1h-1s0-1 0 0h5v-1 1h-4c0-1 0 0 0 0zm3 0z"/><path class="st2" d="M1095 255c0-1 0-1 0 0zm-26 0h-1v-1 1h2-1v-1 1zm-1 0zm-7 0h-1 2v1-1l1 1 1-1h-3zm4 0v-1l-1 1v-1 1h2v-1h-1v1zm2 0-1-1v1-1 1h2-1zm14 0zm18 0v-1 1-1l-1 1h1zm-54 1h1v-1 1l1-1v1-1h-2v1c0-1 0-1 0 0zm2-1v1-1h4v-1c0 1 0 1 0 0l-1 1v-1l-1 1-1-1h-1v1zm2 0zm3 0h-1v-1 1h1zm1 0h3v-1l-1 1v-1 1-1 1h-1v-1l-1 1zm6 0v-1 1-1 1h-1 2v-1s0 1 0 0l-1 1zm-17 1h1v-1 1h2v-1c0 1 0 1 0 0h-3v1zm1-1zm14 0h-1 1s0 1 0 0h1-1zm30 0zm-21 0zm13 0zm-5 0zm25 0zm-25 0zm-33 0h-1c1 0 1 0 0 0h1zm58 0zm-3 0zm-38 0zm10 0zm13 0zm13 0zm-4 0zm-5 0zm-12 0zm25 1h-1 1zm-1 0zm0 0zm1 0zm-4 0v-1 1l-1-1v1h1zm0 0zm0 0zm1 0zm-5 0h-1 1zm-1 0zm1 0zm2 0h-1 1-1v1l1-1v1-1 1-1zm0 0zm0 0zm4 0h-1v1-1h1zm0 0zm-1 0zm-7 0-1-1v1-1 1h1zm0 0h-1 1zm0 0zm-4 0h-1 2-1zm0 0zm0 0zm0 0zm2 0h-1 1-1 1zm-1 0zm-12 0h-1 1-1 1zm0 0h-1 1zm0 0zm0 0zm0 0zm8 0h1-1 2-2zm1 0zm-6 0h1-1 1-1zm0 0zm3 0h-1 1zm-1 0zm-8 0h1v1-1h-1zm1 0zm-1 0zm-3 0h-1 1v1-1c1 0 0 0 0 0h1-1zm0 0zm2 0zm11 0h-1 2-1z"/><path class="st2" d="M1096 256zm-53 0v1h2v-1h-1 1-1v-1 1h-1zm1 0zm0 0zm7 1h1v-1h-1v1zm1-1zm0 0zm-1 0h1-1zm17 0h1-1zm1 0h-1 1zm5 0h1-1 1-1zm0 0zm-29 1h1v-1h-1v1zm1-1zm2 0zm17 0h1-1zm-8 0zm-13 0zm3 1h1l1-1h-1 1-2 1-1v1zm1-1zm0 0zm0 0zm15 0zm1 0h1-1c1 0 1 0 0 0zm-15 0v1h1v-1h-1 1-1zm1 0zm4 0zm1 0zm2 0v1-1 1l1-1s0 1 0 0h-1 1-1 1-1zm0 0zm6 0c1 0 1 0 0 0h1-1zm32 0zm-42 0zm9 0h-1 1zm-13 0zm1 0zm3 1h1v-1 1-1h-1v1zm0-1zm0 0zm7 0h-1 1zm1 0h-1 1zm-6 0zm4 0zm-4 0v1h1v-1 1h-1l1-1h-1v1-1zm0 0zm6 0zm-18 0h-1 1zm0 0zm14 0zm7 0h1-1zm-17 0zm-5 0zm20 0zm-20 0zm41 0zm-18 0zm18 0zm-24 0zm-17 1h1v-1h-1v1-1 1zm8-1zm10 0zm1 0h1-1zm0 0zm14 0zm12 0zm4 0zm3 0zm-21 0zm5 0zm-14 1h3v3-1h1v-1h-1v-1h-2v-1 1-1h-1l1 1h-1zm2 0zm-7-1v1-1zm8 0zm21 0h-1 1zm-29 0v1-1zm4 0v1-1c0 1 0 1 0 0zm0 0zm17 0zm6 0zm-44 0zm18 1v-1 1zm24-1zm7 0zm-29 0zm-5 0zm12 0zm15 0zm-24 1c1 0 1 0 0 0 1 0 1 0 0 0 1-1 1-1 0 0zm-6 0c0-1 0 0 0 0zm9 0h1l-1-1v1zm-16 0c0-1 0 0 0 0zm12-1zm-8 1zm5 0zm-13 0zm2 0zm20 0zm31 1zm3 0h-2 1-5 1-4v1h1s0-1 0 0v-1h6c-1 0 0 0 0 0h2zm-8 0zm0 0s0 1 0 0zm0 0zm1 0h-1 1zm3 0zm2 0zm0 0zm-10 0h-1v1h1v-1zm2 0h-2l1 1s0-1 0 0h1v-1zm-17 0h-2l1 1h1v-1zm7 0h-1v1h1l1-1h2-1v-1s0 1 0 0l-1 1v-1 1h-1zm-5 0h-2v1h4v-1 1h2v-1h-5 1zm0 0zm9 0h-1v1h2v-1h-1zm2 0h-1c0 1 0 1 0 0h1v1l1-1h-1zm1 0zm-16 0h-1v1h1v-1zm4 0zm16 0c-1 0-1 0 0 0-1 0-1 0 0 0zm-2 0zm-10 0zm11 0h1-1c1 0 0 0 0 0zm-21 0zm10 1zm12 0zm-15 0zm-2 0zm19 0zm2 0zm2 0zm-2 0zm-5 0zm3 0v1h1s0-1 0 0v-1h-1zm0 0zm1 0zm5 1v-1 1zm-2-1h-1l1 1h-1 2v-1h-1c1 0 0 0 0 0h1-1v1-1zm0 1zm-10-1zm2 0zm2 0v1-1 1h1v-1 1c0-1 0 0 0 0h-1 1v-1h-1v1-1 1-1zm4 0v1h1v-1h-1zm0 0c0 1 0 1 0 0zm-11 0h-1l1 1h1-1 1l-1-1zm0 1zm0-1zm0 1zm-5-1zm9 1v-1h-1v1h1zm2 0v-1h-1v1-1 1h1zm0 0c0-1 0-1 0 0zm-18 0h1v-1h-1v1c0-1 0-1 0 0zm0 0zm21-1zm6 0zm-28 0h-1v1-1 1h1v-1zm-1 1v-1h1l-1 1zm0-1h1-1zm1 1zm10 0h1v-1h-1v1zm-7-1v1h-1 2v-1h-1zm3 0h-1v1h1v-1 1-1zm-1 1c0-1 0-1 0 0zm1-1h1v1h1v-1h-2c1 0 0 0 0 0zm1 1zm0-1zm2 1h1v-1l-1 1v-1 1h-1 1zm0-1zm0 1zm6-1v1-1 1-1 1-1zm0 1zm0-1zm-1 0v1h1v-1h-1zm0 0zm14 0v1-1zm-5 0zm6 1c-1-1-1-1 0 0zm-5-1zm1 1zm-28 0zm11 0zm17 0zm-19 0zm6 0zm0 0zm-8 0zm-7 1zm0 0zm31 1v-1h-1l-1 1v-1 1-1l-1 1h-5v1h8v-1zm-4 0zm0 0zm-6 0v-1h-1v1h1zm-2 0v-1h-1c0 1 0 0 0 0l-1 1v-1h-1v1l-1-1h-3v1l-1-1h-1v1l-1-1h-1v1-1h-4v1h2v-1s0 1 0 0v1h2v-1 1-1 1h2v-1 1-1 1h1v-1l1 1v-1 1h1v-1l1 1h1l1-1v1-1 1h3zm-5 0zm0 0z"/><path class="st2" d="M1096 261zm-4 0zm1 0zm-3 0h-1v1h-1 2v-1zm-20 0c0 1 0 1 0 0v1h-1 2v-1 1-1h-1zm29 1v-1s0 1 0 0h-1s1 0 0 0v1h1zm0 0zm-1 0zm-30 0h1v-1h-1v1s0-1 0 0zm-1 0v-1 1zm2 0zm6 0zm-6 0h1-1zm10 0zm20 0zm-1 0zm-6 0zm-21 0zm14 0h-1 1zm2 0zm-14 0zm22 0zm-21 0s-1 0 0 0zm11 0zm3 0zm9 1h1-1v-1 1-1 1-1 1h-1 1zm0 0zm0 0zm-10 0h1-1zm1 0c-1 0-1 0 0 0zm3 0h1-2 1zm1 0h-1 1zm-1 0zm0 0zm-8 0h1-1zm10 0v-1 1h-1 2-1 1-1zm0 0zm0 0zm-7 0v-1 1h-1 1zm-3 0zm6 0h1-1zm0 0h1-1zm6 0h-1 2-1zm0 0zm-25 0zm5 0h2-2zm6 0h1-1zm0 0h1-1zm0 0zm-10 0h2-2s1 0 0 0zm1 0zm2 0zm3 0h2-2zm0 0zm1 0zm21 0c-1 0-1 0 0 0zm-25 0zm6 0h-1 1c0 1 0 1 0 0zm0 0zm0 0zm0 0zm6 0h-1 1zm-1 0zm-18 0zm3 0c-1 0 0 0 0 0h1-1zm0 0zm4 0h1-1c-1 0-1 0 0 0zm0 0zm0 0zm16 0zm-21 0zm8 0zm-8 0zm-1 0zm1 0h-1 1zm-1 0zm26 0h-1 1zm3 0zm-5 0zm-24 0zm27 0zm-9 0zm-16 0zm14 0zm0 0zm0 0zm-17 1zm5 0zm-1 1zm21 0h-1v1-1l1 1v-1 1l1-1h-1zm-1 0zm6 0h-1c1 0 1 0 0 0h-1v1h2v-1z"/><path class="st2" d="M1092 265zm2 0h-1 2-1 1-1zm-1 0zm-20 0h-5 3-1v1l1-1v1-1h4v1-1h9l-1-1h-3v1-1h-2v1-1h-2v1-1h-2v1-1h-1v1zm-3 0zm2 0zm0 0zm1 1zm18-1h-2v1-1h1v1-1 1s0-1 0 0l1-1zm0 0zm7 0h-1v1-1 1h1v-1zm0 0zm-12 0h-1v1-1h1v1h1v-1h-1z"/><path class="st2" d="M1078 265zm6 0h-1v1h2v-1h-1zm13 0zm-8 0h-2v1-1l1 1s0-1 0 0v-1h1-1 1zm-2 0zm-21 0v1h1-1v1h2v-1h-1 1v-1h-2zm27 0zm-15 0h-1 1zm-17 1h3v-1h1v1-1h1-1s0-1 0 0h-16v1h1l1-1v1h1l1-1v1h1l1-1v1l1-1v1-1h2v1-1h1v1h1l1-1v1zm-8-1zm32 0zm13 0zm-50 1h1v-1h-1v1zm51-1zm-53 0h-1l1 1h1v-1h-1zm-4 1h1v-1h1v1h1v-1h-3v1zm2-1zm-1 0zm-1 0zm0 0zm7 0zm-9 1h1v-1h-1v1zm1-1c0 1 0 1 0 0zm2 0zm51 1zm-7 0zm-15 0zm7 0zm-11 0zm-24 0zm37 0zm-11 0zm0 0zm-2 0c1 0 0 0 0 0zm24 0zm-22 0v1h1v-1h1-2zm25 0 1 1v-1h-1zm1 0h-1 1zm-6 0zm2 0zm1 0 1 1v-1 1-1h-1zm1 0zm-1 0h1-1zm4 0zm-26 0zm17 0v1h1l-1-1h-1 1zm0 0zm5 0zm3 0zm-23 0zm2 0h-1c1 0 1 0 0 0h1zm4 0zm19 0h-1v1h1v-1zm-1 1zm-23-1v1h1v-1l1 1v-1h-2zm1 1zm1-1v1h1v-1h1-2zm1 1zm15-1h-1v1h1v-1h-1 1zm0 0zm0 0zm-21 0zm16 0zm-18 0zm4 0zm7 1v-1l1 1v-1h-1 1-1v1zm1 0zm0 0zm0-1zm0 1zm-1 0zm3-1zm2 0h-1 1zm5 0v1h1v-1h-1zm1 0c-1 0-1 0 0 0h-1 1zm-19 0v1h2v-1 1-1h-2zm1 1zm12-1zm1 0h-1l1 1h1v-1h-1v1-1zm5 0zm-9 1h1v-1h-1v1zm1-1zm1 0zm-5 1v-1h-1c0 1 0 0 0 0v1-1l1 1zm-11-1v1h2v-1h-2zm-5 0zm2 0zm13 0zm11 0h1v1-1h-1zm7 0zm-7 0zm-26 0h1-2l1 1v-1zm33 0zm-31 0zm-3 0v1-1zm3 0zm-4 1zm0 0h1-1zm4 0zm0-1zm20 1v-1 1zm-19 0h-1 1zm32 0zm-12 0zm-12 0zm-7 0zm8 0zm7 0zm12 0zm1 0zm-27 0zm2 0zm-3 1zm30 0zm0 0h-1v1h1v-1zm-10 0h-1v1-1 1h2-1v-1zm8 0h-1v1h2l-1-1zm-13 1v-1l-1 1v-1 1h-1 2zm-2 0zm5-1h-1v1h2v-1h-1zm5 1h1v-1h1v1h1v-1h-3v1zm6-1zm-18 1v-1 1-1 1l-1-1v1h-1v-1 1h-6c-1 0 0 0 0 0h-1l1 1v-1 1-1 1l1-1v1h1v-1h1v1-1h1s0 1 0 0h1v1-1 1l1-1h1v1-1 1l1-1zm0 0zm10-1zm-8 1v-1s0 1 0 0h-1c1 0 0 1 0 0v1h1zm1-1zm18 1-1-1v1h1zm-16-1zm6 0v1-1l-1 1h2v-1h-1zm-5 1v-1 1h-1v-1 1-1h-1v1-1 1h2zm-16 0h1l-1-1v1h-1v-1 1h1zm26 0zm-25 0zm13 0zm2 0z"/><path class="st2" d="M1099 269zm-30 0zm3 0zm22 0zm2 0zm1 1h-1v-1 1h1zm-9 0h1v-1 1-1l-1 1v-1 1zm1 0zm0 0zm0 0zm4 0v-1h-1v1s0-1 0 0h1zm0 0h-1 1zm0 0zm-3 0h1-1zm1 0zm0 0zm-1 0zm5 0h-1c0-1 0 0 0 0h1zm-10 0h1-1v-1 1-1 1-1h-1v1h1zm0 0zm2 0h-1 1zm-11 0h-1 1zm0 0zm-1 0zm6 0h1-1zm0 0zm2 0h-1 1zm1 0h-1 1zm-1 0zm0 0zm5 0h-1 1zm-18 0zm2 0h-1 1zm0 0zm-1 0zm1 0zm6 0h-1 1zm-1 0h1-1zm2 0zm-12 0h1-1zm6 0zm13 0zm11 0zm-6 0zm-18 0h1-1zm6 0h1-1zm1 0zm-10 0h-1 1zm25 0zm-21 0zm0 0zm10 0zm-10 0zm21 0zm-4 0zm-16 0zm19 0zm-22 0zm1 0zm14 0zm1 0zm8 0zm-27 0zm14 0zm0 0c1 0 1 0 0 0h1-1zm-4 0zm0 0c1 0 1 0 0 0zm-9 0zm11 0zm8 0zm4 0c-1 0-1 0 0 0zm-8 0zm-11 0zm3 0zm-10 1zm29 1h-1v1-1h1zm-1 0zm3 0h-2 1-1 2zm-9 0h1-1zm-3 0h-1v1-1 1h2v-1h-1zm6 0h-1v1h2l-1-1h1-1zm-1 0zm3 0zm5 0h1-1 1-1 1-1zm-18 0h-2l1 1 1-1v1-1zm-1 0zm1 1h1v-1h1-2v1zm3-1zm10 0h-1v1-1h1zm-1 0zm-5 0h-1v1h1l1-1h-1zm0 0zm-21 0zm8 0h-2 1v1l1-1c0 1 0 0 0 0zm7 0zm2 0h-1 1-1v1h1v-1 1h1l-1-1h1-1zm-17 0v1-1zm3 0zm6 1h1v-1h-2v1h1zm3-1zm-7 0h-2v1h1l1-1zm1 0h-2 1v1h1v-1zm21 0zm-15 0h-2l1 1h1v-1zm-1 0zm-9 0h-1v1h1v-1zm23 0zm-11 0zm-4 0zm22 0zm-5 0zm4 0zm-13 0zm4 0c-1 0-1 0 0 0zm3 0zm-11 0zm13 0zm-5 0zm2 0zm-6 0zm-4 0zm-9 0h-1 1zm11 0zm11 0zm5 0s1 0 0 0zm-2 1zm-4 0zm-5 0h-1c1 0 0 0 0 0h1zm9 0zm0 0v1-1zm-17 0zm9 0zm3 0s-1 0 0 0h-1v1-1h1v1-1zm-8 0h-1 1zm10 0h-1 1zm-1 0zm-8 0zm1 0h-1 1zm-4 1v-1 1-1h-1l1 1zm0-1h-1 1zm0 0h1-1 1-1zm-11 0zm5 0zm-2 0zm10 1v-1 1s0-1 0 0zm-12 0h1v-1h-1v1zm1-1zm-1 0zm1 0zm6 0h-2 1-1l1 1v-1 1-1h1zm2 0h-2 1-1 2zm9 0zm8 0zm-31 1v-1 1zm3-1v1-1zm6 1 1-1v1-1h-2 1-1 1c0 1 0 0 0 0v1zm0-1zm7 0zm12 0zm1 0zm-25 1v-1h-1 1v1zm2-1zm1 0zm22 0zm-12 0zm-10 0c0 1 0 1 0 0h1c0 1 0 1 0 0h-1c1 0 1 0 0 0zm1 0zm1 0zm8 1v-1 1zm6-1zm5 0zm-21 0v1-1zm12 0zm12 0c-1 0 0 0 0 0zm-19 0zm4 0h-1 1zm0 1v-1 1zm1-1zm11 0zm-6 0zm8 0zm-9 0v1-1zm9 0zm-23 1v-1 1zm16-1zm3 0zm2 0zm-26 0zm15 1v-1 1zm2-1s0 1 0 0zm-12 1zm-3 0zm6 0zm9 0zm-11 0zm7 0zm-4 0zm10 0zm-4 0zm-17 0zm-53 23h1l-1 1 1-1h2v1-1 1h-1 1v1-1h1v-1 2-1h2v1-1h1v-1h1v1h1v-1h4v1h2v-1l1 1 1-1v1h1l1-1v1h1v-1h1l1 1v-1h1-7v-1 1s0-1 0 0h-1v-1h-5v1l-1-1h-7v1-1h-1 1-1 1l-1-1v1-2 1-1 1h2v-1h-1 1v1h1v-1l1 1h1v-1h1-1l1 1h1v-1l1 1h1v-1h1-1l1 1h1v-1h2v-1 1h3l1-1v1h1v-1h-1c1 0 0 0 0 0h-14v-1h1l-1 1h1v-1 1-1 1l1-1h-1 1-3v-1h2v-1 1h2v-1h1-1v1h2v-1h-1 8v-1h1-12v-1h-1v1-1h4v-1 1h2v-1h-1 7v-1 1h1l1-1v1h2v-1h-15 1v-1 1-1h-1v1-1h1-2 1v-1h1c-1 0-1 0 0 0v1h1v-1h1-1v1h2v-1h10l-1-1h-1v1-1h-2v1-1h-10v-1 1-1h1c1 0 0 0 0 0h1-1 1v-1h-1 1v1h1v-1h1v1h1v-1h-1 5v-1l1 1h1v-1 1h2v-1 1h1l1-1h-3v-1l-1 1h-1v-1h-1v1-1h-2v1-1h-2v1-1h-3s0 1 0 0l-1 1h-2v-1h-2l1-1h1v-1h-1 1v1h1v-1h4-1v1h1v-1h14s-1 0 0 0h-1v-1h-1v1l-1-1v1h-1c0 1 0 0 0 0h-2v-1h-1l-1 1v-1h-17v20-1 1h1-1v1h1-1 1v1l-1-1v1h1l1-1zm2 1zm0 0zm7-1c-1 0 0 0 0 0zm-2 0zm-1 1zm-1-1h1v1l-1-1zm-1 1zm-3-2zm17-3zm-2 0zm-4 1zm0 0zm0 0zm-2 0zm0 0zm-1 0zm-2-2zm-1 0zm0 0zm3-2zm0 0zm-1 0zm-2 0s0 1 0 0zm0-1zm9-3zm-2 1zm-6 0h1-1zm-1 1zm1-3zm-1 0zm0 0zm0 0zm0 0zm3-2c0 1 0 1 0 0zm-3-1zm13-3zm-11 1c1 0 1 0 0 0zm0 0zm-1 0zm-1 0zm16-4zm-2 0zm-2 0zm-12 0zm0 0v1-1zm-1 0c0 1 0 1 0 0zm-1 0v1-1zm0 1zm-3 19zm1-1zm0-1zm0 0zm1 1zm0-2h-1v-1 1h1zm0-5h-1v1-1 1h1-2v-2h1v1h1zm0 0zm-1 1zm0-9h-1 1zm-1 4v-1h1v1h-1v1l1-1s0 1 0 0v1-1 1h1-1 1l-1 1h-1v-2zm1 0zm1 1zm-2 3zm2-2zm0-1zm0 1zm0 2zm0 1zm0-4v-1h-1 1v1h1-1zm0-1zm0-2zm0 1zm0 1zm0 0zm1-2zm-1 4zm0 2v-1h1v1h-1zm1 4zm-1 0zm1 1zm0-1zm0-11v1-1zm0 4v-1 1zm0 0zm0 0zm0-3zm0 3zm0 1zm0 2zm0 0zm0 3zm0-2zm0 1zm0-1zm0 4zm0-1zm0 1zm0-1c0-1 0-1 0 0v-1 1s0-1 0 0zm1 2zm0-2zm0 0zm0 0zm-1 1 1-1v1h-1v-1 1zm0-7s0-1 0 0h1-1zm1 3zm0 0zm0 0h1-1zm0-1zm0 0zm0-3zm0 1c0-1 0 0 0 0zm0 2h-1 1zm0-3h-1 1zm-1-3h1-1zm0 0zm1 0v-1 1zm0 2zm1-2h-2 2zm-1 0zm1-2v2l-1-1v1-1h-1v1-1h-1v1l-1-1v1h1-2v-1h1v-1h1-1v1h2v-1 1h2v-1c0 1 0 1 0 0zm-3-2zm0 0zm1 2zm0 0zm2 0zm-1-2c1 0 1 0 0 0zm0 0zm-1 0zm0 0zm0 0zm0 0c0 1 0 1 0 0 0 0 0 1 0 0zm0 0v1-1l1 1v-1 1-1 1h-1v-1 1l-1-1h1zm0 0zm0 0zm-1-2h1-1c0 1 0 1 0 0zm0 0v1h1v1h-1v-2zm-2 2v-1h1v1h1v1h-2v-1zm0 13 1 1v-1h-1v-1 1s0-1 0 0h1v1-1 1h1-2v1h1-1 1-2v-2h1zm-1 0zm0-11zm0 15v-1 1zm0 2zm0-1zm0-1zm0 2zm1-1zm0-1h-1 1zm-1-5zm0 7zm0-3zm0-6zm0 3zm0-1zm0-3zm0 7zm0-1zm0 1zm0 2zm0 0zm0 1zm81-22h-1l-1 1v-1 1h2v-1zm2 1v-1h-2v1h2zm3 0v-1h-1v1h1zm-10 0h1l1-1v1h-1v-1h-1v1h1-1zm2-1z"/><path class="st2" d="M1093 275h-1c1 0 0 0 0 0h-1v1h2v-1zm-6 1v-1h-1v1h1zm2 0v-1h-1l-1 1h2zm10-1h-2c1 0 1 0 0 0h1-1v1h2v-1zm-1 0zm0 1zm-22 0v-1h-2v1h2zm3 0h3v-1h-1s0 1 0 0v1-1 1h-2 1-2 1zm1-1zm5 0zm1 0zm-15 0zm-3 1h-1v-1 1h1-1 1zm0 0zm16 0h1v-1h-1v1zm-10 0v-1h-1l-1 1h2zm4 0v-1h-2v1h2zm-1 0zm7 0h-2 2c-1 0-1 0 0 0zm-1 0zm-11 0v-1h-1 1l-1 1v-1 1h-1 2zm-3 0h1v-1h-1v1zm26-1zm-57 1h2l-1-1c0 1 0 0 0 0l-1 1zm51-1zm-2 1v-1 1zm10-1c0 1 0 0 0 0zm-56 1h1v-1h-2v1h1zm37 0zm-36 0h1l-1-1v1zm30 0zm21 0zm-5 0h-1 1zm-45 0zm54 0zm-23 0zm18 0h-1 1zm5 0zm-21 0zm-44 0zm50 1c0-1 0-1 0 0zm8 0s0-1 0 0zm2-1c0 1 0 1 0 0zm-5 1h-1 1zm4 0zm1 0zm1 0zm-70 0v-1l-1 1h-1v1h1l1-1zm53 0h1-1c1 0 0 0 0 0zm1 0zm4 0v-1l-1 1h1zm7 0v-1 1zm-2 0zm1 0zm-68 0zm62 0zm2 0zm3 0zm-58 0h-1l1 1s0-1 0 0v-1zm2 0h-1 1zm42 0-1-1v1h1zm-1 0zm-44 0h-1s1 0 0 0h-1v1-1h2c-1 0-1 0 0 0-1 0 0 0 0 0zm8 0h1v-1h-1l-1 1h1c-1 0 0 0 0 0zm32 0zm27 0zm4 0zm1 0zm-67 0h-1v-1 1h-1 2zm6 0h-2 2zm37 0h1v-1l-1 1zm3 0h-1 1zm13 0v-1 1zm-16 0zm6 0zm7 0zm2 0zm7 0zm-64 0h1-2 1zm7 0h-2 2zm34 0zm1 0zm10 0h-1 1zm1 0zm3 0zm-20 0zm4 0zm5 0zm4 0h1-1v-1 1zm3 0zm0 0zm-16 0zm14 0zm11 0zm2 0zm-56 0h1-1zm1 0zm0 0zm0 0zm34 0zm15 0c1 0 1 0 0 0zm4 0zm-24 0h-1 1-1 1zm5 0zm15 0zm2 0h1-1zm1 0zm-7 0h1-1zm-7 0zm1 0zm-7 0zm8 0zm-12 0zm4 0zm6 0zm8 0zm9 0zm-7 0zm-10 0h-1 1zm14 0h-1 1zm1 0zm-20 0h-1 1zm-5 0zm2 0zm23 0zm-10 0zm-7 0h1-1zm2 0zm8 0zm-15 0zm16 0zm-5 0zm2 0zm-2 0zm-13 0zm5 0zm-8 0zm-48 1v-1 1zm-2 0v-1 1zm4 0zm-1 0zm0 0zm0 0h1v1-1h-1zm0 0zm0 0zm-1 0c1 0 1 0 0 0 1 0 1 0 0 0zm4 0h-1 1zm-2 0zm0 0zm1 0zm-6 0zm6 0zm0 0zm1 0zm-1 0zm-2 0zm2 0zm0 0zm1 0zm0 0zm-1 1v-1 1zm0-1zm0 1h-1 1zm-1 0zm78 0h1-1zm-3 0h-2v1-1 1-1l1 1s0-1 0 0l1-1zm2 0h-1 1-2v1h1v-1 1-1h1zm-9 0zm3 0h-1v1h1v-1zm-6 0h-2 1-1l1 1h1v-1zm7 0h1-2l1 1v-1zm-11 0h-3v1h1v-1h1v1h1v-1zm-2 1zm4-1h-2 1-1 1v1h1v-1zm5 1 1-1h-2s1 0 0 0h1v1s0-1 0 0c0 0 0-1 0 0zm0-1zm-2 1 1-1h-2 1v1-1 1zm-13 0v-1h1-2v1h1zm2 0 1-1h-1 1-2v1h1s0-1 0 0zm3-1h-1 1-2l1 1v-1h1zm-8 0h-2l1 1 1-1zm-36 1h2v-1h-2v1zm37 0h1v-1h-2 1v1zm26-1h1-1zm-60 0h-1v1h1v-1h1-1zm0 1zm1 0h2l-1-1h-1v1zm28-1zm2 0h-1v1l1-1zm-27 1v-1h-1v1h1zm48-1zm9 0zm-1 0zm-30 0zm30 0zm-14 0zm-11 0zm-30 0zm44 0zm9 1h1-1zm-14 0zm5 0zm4 0zm0 0zm-17 0zm2 0zm15 0h1-1zm2 0zm2 0zm-11 0zm3 0zm-6 0zm4 0zm12 0zm-25 0zm7 0zm6 0 1 1v-1h-1zm6 0zm-64 1v-1h-2v1h2zm50-1zm6 0zm10 0zm2 0zm-24 0h-1 1-1 1zm5 1v-1h-1 1v1zm-1-1zm6 0s0 1 0 0zm1 1v-1 1zm15-1zm-68 1v-1h-1v1h1zm45 0v-1 1zm10-1zm-54 1h1v-1c0 1 0 0 0 0h-1v1zm50-1zm7 0zm8 0zm-25 0zm7 0zm7 0zm-53 1h2v-1h-1v1h-1zm8 0h1v-1h-1v1zm31-1zm2 0zm8 0c0 1 0 1 0 0v1-1zm2 0h-1 1zm3 0zm10 0zm-61 1h1v-1h-2l1 1zm36-1zm2 1v-1 1-1 1zm2-1zm13 0zm10 0zm-19 0zm0 0zm8 0zm-51 0v1h1v-1h-1zm2 1h1v-1h-1v1zm1 0zm33-1zm9 0h-1 1-1v1l1-1zm-1 0zm5 0zm9 0zm-21 0zm13 0c0 1 0 1 0 0zm-71 0zm59 0zm3 1v-1 1zm-6-1v1-1zm14 0zm-7 0zm20 0zm-56 0zm31 1c0-1 0-1 0 0v-1 1zm-5 0v-1 1s0-1 0 0zm28-1zm-25 0v1-1zm11 0zm7 1v-1 1zm1-1zm-11 0v1-1zm6 0zm-10 0zm15 0zm0 0zm-2 0zm-45 0zm32 0zm4 0zm0 0zm-36 1c0-1 0 0 0 0zm36-1zm-2 1c0-1 0-1 0 0 0-1 0 0 0 0zm1 0c0-1 0-1 0 0zm6-1zm4 0c0 1 0 0 0 0zm-11 0zm17 0zm-10 0c0 1 0 1 0 0zm0 1c0-1 0 0 0 0zm-9 0zm10 0zm-12 0zm-1 0c-1 0 0 0 0 0zm-1 0zm-52 0zm0 0zm-1 0zm2 0zm1 0zm-4 0zm0 0h1v1l-1-1c1 0 0 0 0 0zm5 0zm-5 0zm4 0zm1 1c0-1 0-1 0 0zm2 0zm-6 0zm4 0zm-4 0zm4 0zm0 0zm1 0zm-1 0h1-1zm3 0zm-2 0zm1 0zm-2 0zm2 0zm-7 0zm4 0zm1 0zm78 1h1v-1h-1v1zm1-1zm-1 0v1-1zm-82 0zm4 0zm0 0zm75 0h-1v1h1l1-1h-1 1-1zm-29 1h1-1v-1h-1v1h1zm28 0v-1h-2v1-1 1h2-1 1c-1 0 0 0 0 0zm-1-1zm0 0zm-1 0h-2v1-1 1h1v-1h1c0 1-1 0 0 0zm5 1v-1 1l-1-1v1h1v-1 1zm-8 0 1-1s0 1 0 0h-2v1h1zm-6 0h1v-1h-1c1 0 0 0 0 0h-1l1 1zm3 0c0-1 0 0 0 0v-1h-1l-1 1h2zm0 0zm2-1h-1v1-1 1c1 0 0 0 0 0h1v-1c0 1 0 1 0 0zm-8 1v-1h-1v1h1zm1 0h1v-1h-1v1h-1 1zm0 0zm0 0zm-7-1h-1v1h1v-1zm2 1v-1h-1v1h1zm2 0v-1h-1v1h1zm-10 0h1v-1h-2v1h1zm3 0-1-1-1 1h2zm1 0h1l-1-1h1-2v1h1zm24-1zm-63 1h2l-1-1h-1v1zm2-1v1h1v-1h-1zm3 0h-1v1h1v-1zm1 0v1h-1 2l-1-1zm35 0v1h1l-1-1zm2 0zm-35 1h1v-1h-1v1zm47 0zm-2 0v-1 1zm-43 0zm35 0zm-39 0zm30 0zm-46 0zm64 1s-1 0 0 0zm4 0zm-6 0zm-60 0h-2 2v-1 1zm59 0h-1 1zm-57 0h2v-1h-1l-1 1zm-1 0h-1 2-1zm55 0zm0 0zm11 0v-1 1zm-22 0h-1 1zm15 0zm-54 0h-2 2zm3 0v-1h-1v1h1zm34 0zm5 0zm7 0zm-45 0h1v-1 1-1 1-1l-1 1zm1 0zm36 0zm5 0zm1 0-1-1 1 1zm1 0zm12 0zm0 0zm0 0zm-19 0zm2 0zm1 0zm19 0zm-56 0h-1 1zm0 0zm-1 0h1-1zm2 0h1-1zm37 0zm9 0zm-53 0h1-2c1 0 1 0 0 0h1zm40 0h-1 1zm2 0zm5 0zm10 0zm-21 0zm7 0h1-1zm12 0zm3 0zm-8 0zm-1 0zm-13 0zm-27 0zm27 0h1-1zm5 0zm5 0zm5 0zm6 0zm-49 0zm51 0h-1 1zm-4 0zm2 0zm-4 0zm-18 0c1 0 1 0 0 0zm7 0h-1 1zm-6 0zm12 0zm-8 0zm5 0zm-3 0zm4 0zm2 0zm1 0zm4 0zm-45 0zm30 0zm1 0zm1 0zm-57 1zm5 0zm0 0zm-1 0zm-4 0zm6 0zm0 0zm-1 0zm0 0zm1 0h-1 1zm1 0zm-1 0zm0 0zm0 1v-1 1zm-6 0zm5 0c1 0 1 0 0 0zm73 0h1-1zm-3 0h-1 1zm0 0zm6 0h-1 1-1 1zm-11 0h-2 1c0 1 0 1 0 0 0 1 0 1 0 0 0 1 0 0 0 0h1zm7 0h-1 1zm0 0zm0 0zm-11 0h-2 2v1-1zm7 0h1-2 1zm4 0zm3 0zm4 0h-1 1zm-16 0h-2 1v1h1-1l1-1zm3 0h-1v1h1v-1zm-12 1h1v-1h-2 1v1zm19-1zm-24 0c1 0 0 0 0 0h-1v1h1v-1zm10 0h-2s1 0 0 0h2c0 1 0 0 0 0zm0 0zm19 0c1 0 0 0 0 0zm-35 1 1-1h-2 1v1zm10 0v-1h-1v1-1l1 1zm-20 0h1v-1h-1v1zm4-1c-1 0 0 0 0 0v1h1v-1h-1zm11 0h-1c1 0 0 0 0 0h-1 1v1l1-1c-1 0 0 0 0 0zm9 0h-1l1 1v-1zm14 0zm8 0h-1 1zm-63 1h1v-1h-1v1zm19-1v1h1v-1h-1zm5 0h-2v1h1l1-1zm6 0h-2 2zm5 0h-1v1-1l1 1v-1zm-34 0zm5 1 1-1h-2l1 1zm5-1h-1c1 0 0 0 0 0h-1v1h1l1-1c0-1 0 0 0 0zm1 1 1-1h-2l1 1zm14-1h-2l1 1s0-1 0 0l1-1zm-28 1h1v-1h-2l1 1zm16-1h-1v1h1v-1zm-12 1h1v-1h-2l1 1zm2 0h1v-1h-1c1 0 0 0 0 0h-1v1h1zm4-1h-1v1h1l1-1h-1zm7 1h1v-1h-1v1zm46-1zm-18 0zm18 0zm-16 0zm-4 0zm14 0zm-8 0zm-12 0zm-5 0z"/><path class="st2" d="M1100 286zm-15 0s0 1 0 0zm15 1v-1h-1v1h1zm-75 1h2v-1h-2v1zm2-1zm-1 0zm46 0zm11 0h-1 1zm-25 1v-1 1l1-1v1-1h-1v1-1 1zm21-1zm1 0zm5 0c-1 0-1 0 0 0h-1 1zm-25 0h1-1c0 1 0 0 0 0zm1 0zm1 0zm2 0zm2 0h-1l1 1-1-1c1 0 1 0 0 0h1zm5 0zm2 0zm-44 0h-2v1h2v-1zm53 0h-1 1zm3 0zm-55 1v-1h-1l1 1zm36-1zm4 0zm17 0h-1 1zm4 0zm-40 0c0 1 0 1 0 0zm4 0h-1 1zm8 0h-1v1h1-1l1-1zm3 0v1-1c1 0 0 0 0 0zm3 0h1-1zm7 0h-1 1zm-1 0zm4 0zm8 0zm0 0zm2 0zm-58 1h1v-1h-1v1zm2 0h1v-1h-1v1zm11 0h1v-1h-1v1zm33-1zm2 0zm8 0zm5 0zm-53 1h1v-1h-1v1zm24-1h1-1zm14 0zm-26 1v-1c0 1 0 1 0 0h-1v1-1l1 1zm0-1zm5 1 1-1h-1v1s0-1 0 0v-1 1zm6-1h-1 1zm8 0zm4 0zm5 0zm0 0zm-41 1v-1 1-1h-1v1h1zm39-1c0 1 0 1 0 0zm3 0zm1 0zm9 0zm-42 1h1v-1h-1v1s0-1 0 0zm4 0h1-1l1-1h-1v1zm19 0v-1 1-1 1zm5-1zm16 0zm-57 1v-1h1c0 1 0 0 0 0h-1v1zm1-1zm-1 0zm6 0v1-1zm2 0v1-1 1-1h1-2v1l1-1zm9 0v1-1zm18 0zm0 0zm3 0zm11 0zm6 0zm-43 1v-1h-1v1h1zm10-1v1-1zm10 0h1-1zm-26 1s0-1 0 0h1v-1h-1v1zm34-1v1-1zm6 0zm0 0zm-28 0v1-1zm11 1v-1h1v1l-1-1v1zm9-1zm4 0zm10 0zm-26 0zm12 0zm8 0zm-34 0zm3 0zm27 0h1-1zm8 0zm-19 0c0 1 0 0 0 0zm8 0zm-5 0zm12 0c1 0 1 0 0 0h1-1zm-17 1v-1 1zm6-1zm15 0zm-37 0zm14 0zm6 0zm9 0zm10 0zm-23 0h-1v1l1-1zm16 1c0-1 0-1 0 0zm-13-1zm1 1zm-15 0zm13-1c0 1 0 1 0 0zm2 1zm4 0zm-23 0zm6 0zm-24 0zm25 0zm-37 0h1-1zm2 0zm-4 0zm4 1h1l-1-1v1-1h-1s1 0 0 0h1v1-1 1zm0 0zm0 0zm0 0zm0-1zm1 0zm0 1h1-1zm1 0zm0 0zm-1 0zm2 0zm-8 0zm4 0zm1 0zm78 1h1v-1h-1v1zm1-1zm-1 0zm-77 0zm74 1v-1h-1v1-1 1h1zm-1 0zm1-1zm0 1zm1-1h-1v1h1l1-1h-1zm0 1zm-5-1h-1v1h1v-1c0 1 0 1 0 0zm2 1v-1h-1v1h1zm0 0zm-5 0h1v-1 1-1h-1v1zm-3-1h-1v1h1v-1zm-11 0h-1v1h1v-1zm5 1v-1h-1v1h1zm4 0h1-1 1-1l1-1h-2v1h1zm9-1zm4 0zm-28 1v-1c0 1 0 0 0 0h-1v1h1zm4 0v-1h-2v1-1l1 1h1zm22-1zm-13 1h1l-1-1v1-1l-1 1v-1 1h1zm0 0zm-24 0v-1h-2v1h2zm2-1h-2v1h2v-1zm6 1h-1v-1c-1 0 0 0 0 0h-1v1h2zm5 0v-1h-1v1h1zm6 0v-1 1-1h-2v1h2zm20-1c-1 0-1 0 0 0zm-34 1 1-1h-2v1h1zm4 0v-1h-1v1h1zm20 0h1v-1l-1 1v-1 1zm6-1zm-60 1v-1h-1l-1 1h2zm10 0h2l-1-1v1-1l-1 1zm5 0v-1h-1v1h1zm2 0v-1h-1v1h-1 2zm4-1h-2l1 1h1v-1zm7 1h1v-1h-1v1h-1 1zm17 0h1v-1h-2v1h1zm-44 0h1v-1h-1v1zm12 0h1-1v-1h-1v1h1zm5 0h1v-1h-1v1zm5 0v-1h-1l-1 1h2zm-20 0h1v-1h-2v1h1zm2 0h1v-1h-1l-1 1h1zm5 0-1-1h-1v1h2zm-2 0-1-1h-1v1h2zm57 0zm-32 0zm17 0zm-23 0zm-35 1h-1 2-1zm2 0s1 0 0 0v-1s0 1 0 0h-1v1h1zm2 0h-1s0-1 0 0h1zm51 0zm-50 0h1v-1h-1v1zm44 0zm-15 0h-1 1zm6 0h-1 1zm-31 0h1-2 1zm1 0zm20 0zm4 0h1s-1 0 0 0h-1zm2 0zm6 0zm9 0h1-1zm-30 0zm3 0zm0 0h1-1zm4 0h1-1zm2 0zm2 0zm4 0h-1 1zm2 0zm7 0zm2 0zm3 0h-1 1zm-61 0zm19 0h-1 1zm7 0h1-1v-1 1-1h-1v1h1zm0 0zm17 0zm4 0zm4 0zm1 0h1-1 1-1zm5 0zm3 0zm8 0h-1 1zm-40 0h-1 1zm0 0zm9 0h1-1zm5 0h-1 1zm29 0zm-49 0h1-2 1zm0 0zm0 0zm8 0h-1 1zm3 0zm0 0zm1 0h-1 1zm15 0h-1 1zm6 0h-1 1zm-31 0h1v-1h-1v1h-1 1zm0 0zm38 0zm10 0zm-48 0zm8 0h-1 1-1 1zm-1 0zm9 0zm14 0zm3 0zm1 0zm0 0zm3 0zm11 0zm-40 0zm7 0zm4 0zm4 0zm19 0h1-1zm2 0zm-40 0zm14 0zm7 0zm5 0zm10 0zm-40 0c-1 0 0 0 0 0zm23 0zm19 0zm2 0zm-24 0zm16 0zm5 0zm-33 0zm-13 0zm30 0zm4 0zm-2 0zm3 0zm-12 0s-1 0 0 0zm14 0zm2 0zm14 0zm-12 0zm11 0zm-12 0zm-16 0zm-9 0zm3 0zm9 0zm9 0zm-8 0h-1 1zm-12 0zm12 0zm-15 0zm2 0zm5 0h1-1zm-33 1zm-1 0zm1 0zm-1 0zm81 0h-1 1zm-79 0zm1 0zm-6 0zm5 0zm0 0zm1 0zm78 0zm-78 0zm-2 0zm-5 1s0-1 0 0zm85 0h-1v-1 2h1-1 1v-1zm-80-1c0 1 0 1 0 0 0 0 0 1 0 0zm-5 1zm75 0h1-1zm4 0h1-1 1-2 1-1 1zm0 0zm0 0zm2 0zm-11 1v-1h-1v1-1h1v1zm3-1s0 1 0 0h1-1zm9 0zm-14 0h-1 1zm14 0h-2 1v1-1h1zm0 0h-1 1zm-18 0h-1 1-1 1zm8 0h-1v1-1 1l1-1zm-17 0h-2l1 1h1v-1zm3 1 1-1h-2 1v1zm19-1zm-29 1h1v-1h-1v1zm12-1h1-2c1 0 0 0 0 0h1v1-1 1-1s0 1 0 0zm18 0h-1 1c-1 0 0 0 0 0zm-1 0zm0 0zm-56 0h-2l1 1h1v-1zm1 1h1v-1h-2v1h1zm1 0h1v-1h1s-1 0 0 0h-2v1zm2 0h2v-1h-2v1zm9-1h-2c1 0 0 0 0 0v1h2v-1zm6 0h-2 1v1h1v-1zm3 1v-1h1-2v1h1zm3-1h-2v1h1v-1h1zm5 1v-1h-1v1h1zm0-1c0 1 0 0 0 0zm-1 0zm-19 1h1v-1h-1v1zm4 0 1-1h-2l1 1zm12-1h-1v1h1v-1zm0 1zm0 0zm15-1h1-2l1 1v-1 1-1 1-1zm0 0zm4 0h-1v1-1h1v1-1zm-38 1v-1h-1v1h1zm2 0v-1h-2 1v1h1zm8-1h-2v1h2v-1zm3 1c1 0 0 0 0 0l1-1h-2v1h1zm12 0v-1h-1 1v1zm3-1h1-1v1-1zm0 0zm22 0zm-17 0zm22 0zm0 0zm-39 0zm15 1c0-1 0-1 0 0 0 0 0-1 0 0zm9-1zm2 0zm15 1zm0 0c-1 0-1 0 0 0h-1 1zm-1 1s1 0 0 0v-1h1-1 1-1v1zm-72 0h1v-1h-2 1v1zm3 0v-1h-1v1l1-1v1zm1 0h1v-1h-1s0 1 0 0v1zm34-1zm35 0zm-66 0h-1v1h1v-1zm0 1zm31-1zm7 0zm8 0zm2 0zm2 0zm-45 1h1v-1h-2v1h1zm6-1zm24 0zm-28 1v-1h-1l1 1zm0-1zm2 1v-1h-1l1 1zm6-1v1-1h-1v1h1l-1-1h1zm6 0c-1 0-1 0 0 0zm16 0zm2 0zm-18 1v-1h-1 1-1c0 1 0 0 0 0v1h1c-1 0-1 0 0 0-1 0 0-1 0 0zm20-1h-1 1zm0 0zm-40 1h1v-1h-2v1h1zm1-1zm1 1 1-1h-2l1 1zm7 0h1v-1h-1v1zm1-1zm10 0h1-1zm4 1 1-1c0 1 0 1 0 0v1-1 1-1 1l-1-1v1zm6 0c0-1 0-1 0 0v-1zm-17-1v1-1 1-1zm2 0zm10 0zm3 1v-1h1-1v1zm8-1zm4 0zm-14 0c1 0 0 0 0 0zm3 0zm7 0zm8 0zm-37 0v1-1zm9 1-1-1v1h1zm5-1v1-1h1-1c1 0 0 0 0 0zm0 0zm5 0zm14 0zm2 0zm4 0s-1 0 0 0zm0 0zm-35 0h1-1zm6 0zm6 0v1-1zm0 0s0 1 0 0v1-1c0 1 0 0 0 0zm0 0zm-6 1s0-1 0 0v-1h-1 1v1zm-14-1zm15 0h-1 1zm-1 0v1-1zm4 0h-1l1 1v-1zm6 0h-1 1zm13 0zm-13 0zm13 0zm-27 0zm13 0zm8 0zm2 0h1-1zm-1 0c0 1 0 0 0 0zm-6 0zm-7 0zm7 0zm4 0zm5 0zm0 0zm-6 0zm-7 0zm6 1c0-1 0 0 0 0zm9 0zm-29 0zm54 0h-1 1-1 1v1-1zm-1 0zm-82 0zm2 1v-1 1h-1 1zm0 0zm-2-1zm1 1v-1h-1v1h1l-1-1 1 1zm0 0v-1 1zm1-1zm0 1v-1 1zm-2-1zm-1 0zm0 0zm3 0zm2 0v1-1c0 1 0 1 0 0zm-2 1zm-2 0h-1 1zm1 0zm0 0zm82 0zm0 0zm-79 0zm-1 0zm-4 0zm5 0zm78 0zm-79 0zm80 0zm-81 0zm-1 0zm1 0c1 0 1 0 0 0zm81 1v-1h-1 1-1v1h1zm-1 0zm0-1h1-1zm-10 1h1v-1h-1 1-1c0 1 0 1 0 0h-1l1 1zm1 0zm-1-1zm6 1v-1h1-1v1-1h-1v1h1zm0 0zm0 0zm-4 0h1v-1h-2 1-1v1h1zm0 0zm2 0h1v-1h-2l1 1v-1 1zm0 0zm-8 0h1-1zm-10 0-1-1h-1v1h2zm-16 0v-1h-1v1h1zm6 0v-1h-1v1h1zm13 0v-1h-1c0 1 0 1 0 0v1h1zm1 0h1v-1 1l-1-1v1-1 1-1 1zm4 0h1v-1h-1l-1 1h1zm0 0zm11-1v1-1zm-55 1h-1v-1h-1v1h2zm14 0v-1h-1v1h1zm13 0h1v-1h-1 1-1v1zm5 0h-1v-1h-1v1h2zm1 0 1-1h-1v1h-1 1zm15 0h1v-1 1-1h-1v1zm0 0zm-48 0h1v-1h-1v1zm2 0h1l-1-1v1h-1 1zm2 0h1v-1h-1v1zm5 0v-1h-2v1h2zm4 0v-1h-1c0 1 0 0 0 0l-1 1c-1 0 0 0 0 0h2zm3-1c-1 0-1 0 0 0zm5 1h1v-1h-1v1zm2 0h1v-1h-1v1zm6 0h1v-1h-2s1 0 0 0v1h1zm19-1c0 1 0 1 0 0zm-42 1h1v-1 1h-1v-1 1z"/><path class="st2" d="m1056 297-1-1h-1v1h2zm1 0v-1h-1v1h1zm19 0v-1h-1v1h1zm-1 0zm-26 0h1-1v-1l-1 1h1zm33 0v-1 1h-1s1 0 0 0v-1 1h1zm-1 0zm16-1c-1 0-1 0 0 0 0 1 0 1 0 0zm0 0v1-1zm-1 1v-1h-1 1v1zm1 0v-1 1zm-10 0zm-1 0zm9 0h-1 1zm1 0h1-1zm1 0zm-41 0zm0 0zm41 0zm-10 0zm13 0zm-6 0zm6 0h-1v1h1-1l1-1zm-85 1c1 0 0 0 0 0 1 0 1 0 0 0h1-1v-1 1h-1 1zm1 0zm0 0zm-1 0zm0 0zm10 0h-2 2zm1 0h1l-1-1v1zm3 0h-2 1v1h1v-1zm2 0h-2l1 1 1-1zm1 0h1v-1l-1 1h-1 1zm2 0v-1 1-1h-1v1h1zm2 0h1-2 1zm0 0zm1 0h1-1zm3 0h-1 1zm1 0h1-1 1-1zm1 0zm-1 0zm2 0h1-1 1-1zm0 0zm6 0h1-1 1-2c1 0 1 0 0 0h1zm0 0zm2 0zm4 0h-1 1zm0 0zm-40 0zm38 0c1 0 1 0 0 0h1-1zm13 0zm-21 0h1-2 1zm12 0zm3 0zm0 0h1-1 1-1zm2 0zm2 0zm4 0h1-1zm6 0zm-23 0h-1 1zm7 0h1-1c1 0 0 0 0 0zm1 0zm6 0h-1 1zm5 0zm-23 0zm11 0v-1 1zm5 0h-1 1zm-15 0h-1 1zm5 0zm9 0zm4 0zm4 0zm4 0zm-22 0c-1 0 0 0 0 0h-1 1zm0 0zm8 0zm-3 0zm5 0zm4 0zm15 0zm-25 0zm6 0zm14 0h-1 1zm-4 0zm4 0zm-19 0zm5 0zm37 0zm-43 0zm-4 0zm3 0zm8 0zm3 0zm3 0zm1 0zm-17 0zm3 0zm-5 0zm0 0zm-3 0zm5 0zm-38 0h-1 1zm0 0zm0 0zm85 0v1-1zm-82 1zm1 0zm-1 0zm0 0zm1 1 1-1h-1 1-1v1zm-5-1zm6 0zm-2 0zm1 0zm-4 0zm4 0zm2 0zm0 0zm1 0zm-3 0zm2 0zm-1 0zm0 1v-1 1zm-5-1h-1 1c0 1 0 0 0 0zm3 0c0 1 0 1 0 0zm1 0zm2 1zm72 7h-1v1h-1v1h-1v1h-3l1 1h1l-1 1h-1v1h-1v1h-1v1h-2 1-1v1h-48v-1h-1v1-1h-2v1-1h-3 1v-1h-2v-1h-1v-2h16v-1h-18v-1h-1 1s-1 0 0 0v-1h-1 1v-1 2h1v-1s0-1 0 0v-1l1 1 2-1v1h1v-1l1 1h1v-1 1h2v-1 1h2v-1 1h2v-1 1h1l1-1v1h2v-1h-20v-1 1-1h-1 1v-1c0-1 0 0 0 0v-1 1h1-1l1 1h1v-1h-1 1v-1 1h2v-1h8c0 1 0 0 0 0h1v-1h-1v1s0-1 0 0h-1v-1h-1s0 1 0 0v1h-1v-1h-1l-1 1h-12 1-1v-1h-1 1v-1h-1s-1 0 0 0h-1 1v1l-1-1h2v-1 1h1-1l1 1h1v-2 2h2v-1h-1l1-1v2h1v-1h1-1v-1h1v1l1 1v-2h8v-1h-3v1l-1-1h-1v1-1h-14 1-1v1h1l1 1h-1 1-1 1v1h1l1 1s-1 0 0 0v1h1l1 1 1 1v1h1v1h1l1 1v1h1s-1 0 0 0l1 1v1-1l1 1v1h1l-1 1h2v1h1v1h2v1h18s0-1 0 0h30c1 0 0 0 0 0s0-1 0 0h4v-1h1v-1h1v-1h1v-1h1v-1h1v-1h1l1-1 1-1h1v-3 1l1-1zm-60 0zm-7 1h1-1zm-4-4c0 1 0 1 0 0zm1-3zm-2 0zm-1 0zm-5 0s0-1 0 0zm0 0zm1 0zm0 0zm1 0zm0 1zm0 0zm1 1v-1 1zm0 0zm3 2v-1h1v1h-1zm0 0zm0 0zm0 1v-1 1zm0 0v-1 1zm1 0h-1 1zm0 0zm0 0zm0 1v-1 1zm1 0zm0 0v-1 1c0-1 0-1 0 0zm0 1c1 0 1 0 0 0zm2 1zm0 0zm0 1c0-1 0 0 0 0zm1 0zm0 0zm4 6zm0 0zm1 1zm0 0zm0 0zm0 0c1 0 0 0 0 0zm1 0h-1 1zm4-1zm44 1zm1 0zm1 0zm0 0zm2-1zm0 0zm0 0zm1-1v1-1zm0 0c0-1 0-1 0 0zm0-1zm3-2zm0 0zm3-4zm-1-8h-1 1zm0 0zm0 0zm6 0zm-2 0zm-5 0h-2c1 0 1 0 0 0h2zm1 0zm4 0h-1 1zm-1 0zm3 0h-1 1z"/><path class="st2" d="M1036 300h-1c1 0 0 0 0 0h-1v1h1l1-1zm0 0v1h1v-1l1 1h1v-1h-3zm27 1h1v-1h-2 1v1zm18-1h-1v1h1v-1zm1 0h1-1zm9 0zm1 0zm-52 1h1v-1h-2v1h1zm3-1h-2v1h2v-1zm1 1h1v-1h-2l1 1zm4 0h1v-1h-2l1 1zm31-1h-1l1 1v-1zm-1 0zm6 0h1-1zm-39 1h2v-1h-2v1zm9-1h-1v1h1v-1zm40 0zm-44 1 1-1h-2v1h1zm2 0v-1h-1v1h1zm5 0h1v-1h-1v1zm9-1h1c0 1 0 0 0 0h-1zm3 1 1-1h-1c1 0 0 0 0 0h-1v1h1zm-14 0h1v-1h-1c1 0 0 0 0 0v1zm5 0v-1h-2 1v1h1zm0-1zm2 0h-2 2zm11 1v-1h-1v1h1zm1 0v-1h1v1-1h-1v1zm18-1zm-26 0h-2 1c0 1 0 1 0 0h1zm21 0h-1 1-2v1l1-1h1zm-1 0zm0 0zm-15 0c-1 0 0 1 0 0h-1 1zm0 0zm6 0h-1c1 0 0 0 0 0h1zm-1 0zm15 0h1-1c1 0 0 0 0 0zm0 0zm8 0zm-6 0h-1 1zm2 0zm-3 0zm7 0c1 0 0 0 0 0zm-10 0zm5 0zm0 0zm2 0zm-5 0zm4 0zm4 0zm-54 0zm54 0zm-15 1c0-1 0-1 0 0zm-56 0h-2c1 0 0 0 0 0v1h2v-1zm2 1v-1h-2v1h2zm1 0v-1l1 1-1-1h-1c1 0 0 0 0 0v1h1zm2 0v-1h-1v1h1zm2-1h-1v1h1v-1zm1 1h1v-1h-2l1 1zm1 0zm2-1h-1v1h1v-1zm9 0zm6 1c0-1 0-1 0 0 0-1 0 0 0 0v-1h-1v1h1zm-14 0h1l-1-1 1 1v-1 1-1h-2 1v1zm1 0zm1 0h1v-1h-2l1 1zm0-1zm2 1 1-1v1-1h-2v1h1zm1-1zm3 1v-1 1h1l-1-1h-1v1h1c0-1 0 0 0 0zm0-1zm12 0c-1 0-1 0 0 0zm-14 0v1-1c0 1 0 1 0 0h-1v1-1h1zm4 0zm3 0zm7 1v-1 1zm4-1h-1 1zm-1 0zm-13 0zm8 0h-1 1v1-1zm3 0zm7 0zm-6 0zm1 0zm-13 1v-1 1zm9 0h1v-1h-1v1zm4-1zm-11 0h-1 1-1 1zm-1 0zm6 0zm12 0zm-17 0zm11 0zm-8 1 1-1h-1v1zm10-1zm-16 1v-1 1zm5-1zm2 0zm-41 0zm46 0c0 1 0 0 0 0zm2 1v-1 1zm-7 0zm2 0-1-1 1 1-1-1 1 1zm3-1c0 1 0 1 0 0zm4 0zm0 1c0-1 0-1 0 0zm-5 0v-1 1zm9 0c0-1 0 0 0 0zm-19 0zm2 0zm11 0zm-15 0zm-10 0zm-20 0zm1 0v1-1zm1 1zm0 0zm3 0zm66 1v-1h-1v1-1 1h1zm0 0zm0 0zm0 0zm4 0v-1h-1v1-1 1h1v-1 1c0-1 0 0 0 0zm0 0h-1 1zm-2-1zm5 0zm-50 1v-1h-1l-1 1h2zm-6-1h-3l-1 1h4v-1s0 1 0 0c0 1 0 1 0 0zm2 1v-1h-1l-1 1h2zm-2 0zm2 0h2l-1-1h-1v1zm41 0h1-1 1l-1-1h-1v1h1zm2 0h1-1v-1h-1v1h1zm-39 0h2l-1-1h-1v1zm2 0h1v-1h-1v1zm3 0v-1h-1v1h1zm2 0v-1h-1v1h1zm6 0v-1h-1c0 1 0 0 0 0l-1 1h2zm15 0v-1c0 1 0 0 0 0h-1v1h1zm21-1h-1v1-1h1zm1 0zm-31 1-1-1h-1v1h2zm0 0zm26 0v-1l-1 1v-1 1h1zm-1 0c1 0 0 0 0 0zm-35 0v-1h-1s0 1 0 0v1h1zm13 0v-1h-1v1s0-1 0 0h1zm2 0v-1 1-1 1l-1-1c0 1 0 0 0 0v1h1zm1 0h1v-1l-1 1v-1 1zm6 0h1l-1-1h1-1v1-1 1h-1 1zm2 0h1c0-1 0 0 0 0l-1-1c0 1 0 0 0 0v1h-1s1 0 0 0h1zm-22 0v-1l-1 1h-1 2zm3 0h1l-1-1h-1v1h1zm2-1zm4 1v-1s0 1 0 0v1l-1-1v1h1zm10 0v-1h-1v1h1zm0 0zm12 0-1-1v1h-1 2zm-1 0zm-25 0h1v-1h-2v1h1zm25-1zm9 0v1h-1 1v-1zm-15 1h1l-1-1h-1v1h1zm0 0h1-1zm0 0zm5 0zm8 0zm-18 0zm20 0zm-10 0zm9 0zm-4 0zm4 0zm-53 0zm17 0zm36 0zm0 1zm-68 0h-2 1-1 2zm7 0h-1 1zm-6 0h-1 2v-1h-1v1zm2 0h-1 1s1 0 0 0zm5 0h1-1s0-1 0 0zm-3 0h-1s0 1 0 0l1 1v-1s0 1 0 0zm7 0h1-1zm-1 0h-1 1zm3 0h-1 2-1zm0 0zm0 0zm2 0h1-2 1zm1 0zm2 0h-1v-1 1-1s0 1 0 0h-1v1h2zm0 0h1-1zm1 0zm0 0c-1 0-1 0 0 0-1 0-1 0 0 0zm1 0h1v-1l-1 1s0-1 0 0c0 0 1 0 0 0h1-1zm1 0zm0 0zm-1 0zm0 0zm4 0h1-1zm-1 0h-1s0-1 0 0h1zm3 0h1-1zm1 0zm-1 0zm0 0zm2 0zm4 0h-1c1 0 1 0 0 0h1zm35 0zm0 0zm-37 0h1-1zm2 0zm6 0zm-10 0zm8 0zm0 0zm-3 0c-1 0-1 0 0 0zm7 0zm7 0zm-23 0zm4 0zm4 0zm14 0zm-8 0h-1 1c-1 0-1 0 0 0zm0 0zm0 0zm8 0zm-10 0zm4 0zm-21 0zm6 0zm7 0zm4 0zm5 0zm4 0zm-16 0zm1 0zm11 0zm-6 0zm7 0zm5 0zm-17 0zm-2 0zm10 0zm-5 0zm3 0h-1 1zm-7 0zm9 0zm-6 0c-1 0 0 0 0 0zm0 0zm0 0zm-15 0zm6 0zm15 0zm-1 0c1 0 1 0 0 0 1 0 0 0 0 0zm-7 0zm8 0zm-18 0zm46 0v1-1zm0 1zm-71 0zm70 0h1-1zm-70 0zm0 0zm0 0zm67 1h-1l1 1v-1s0 1 0 0zm-2 0h-1v1h1v-1zm-5 0v1s0-1 0 0h1v-1h-1zm1 0zm-1 0zm-40 1h1v-1h1v1h1v-1h-3l-1 1h1zm4 0h1v-1h-2l1 1zm3-1 1 1h1v-1h-3v1h1v-1zm12 1h1v-1h-1v1zm6 0h1v-1h-1v1zm-14-1h-2l1 1h1v-1zm1 1h1v-1h-2 1v1zm1 0h1l1-1h-2v1zm4-1h-2v1h1v-1h1zm7 0h-1v1h1v-1zm5 1h1v-1h-1v1zm2 0h1v-1h-2l1 1zm11 0h1v-1h-1v1zm1-1zm0 0zm-1 0zm-21 0c0 1 0 1 0 0v1h1v-1h-1c0 1 0 0 0 0zm15 0h-2v1h1l1-1zm3 0h-1v1h1v-1c1 0 1 0 0 0zm6 0zm-27 0h-1c1 0 0 0 0 0v1-1h1c1 0 1 0 0 0zm20 0h-2l1 1v-1h1-1 1zm-11 1h1v-1h-2 1v1zm6-1h1-2 1-1 1c0 1 0 1 0 0zm15 0h1-2 1zm0 0zm-18 0zm17 0zm-1 0zm0 1zm1 1v-1h-1 1-1v1-1 1h1zm0-1zm-62 1h1v-1h-2l1 1zm2-1v1h1v-1h-1zm3 0h-1v1h1v-1zm1 1h1v-1h-2v1h1zm9 0h1v-1h-1v1zm-7 0h1v-1h-2l1 1zm0 0zm2 0h1v-1h-2l1 1zm9 0h1v-1 1-1h-1v1zm1 0zm-1 0zm-5-1h-1v1h1-1 1v-1zm4 1v-1h-1v1h1zm7 0h1v-1h-2l1 1v-1 1zm-4 0h1v-1h-1c1 0 0 0 0 0v1-1 1zm10 0 1-1h-2l1 1zm0 0zm6 0v-1h-1l1 1zm-26 0h2v-1h-2v1zm12 0h1v-1h-1c1 0 0 0 0 0v1zm4 0 1-1v1-1h-2l1 1zm2 0h1l-1-1h-1v1h1zm0-1zm6 1v-1 1-1h-1v1-1l1 1zm-1 0s0-1 0 0zm6-1h1v1-1h-1v1-1zm0 0zm23 0zm-30 0v1-1 1-1h-1v1h1v-1zm0 0zm5 0h1v1-1h-1c0 1 0 0 0 0zm0 0zm10 0zm-6 1h1v-1 1h-1v-1 1zm1-1c0 1 0 0 0 0zm4 0c-1 0-1 0 0 0h-1v1-1h1zm-5 0v1-1zm1 0zm5 0v1-1zm-2 0c0 1 0 1 0 0zm1 1v-1 1zm1-1zm-2 0zm14 0zm0 1zm-13 0zm-4 0zm18 0zm-39 0zm-24 0zm0 0zm0 1zm64 0zm-64 0h1-1zm32 1h1-1v-1h-1v1h1zm19 0h1-1c1 0 0 0 0 0v-1h-1v1h1zm-14 0h1-1zm16 0h1l-1-1h-1v1h1zm3 0h1v-1h-1v1zm3 0v-1h-1v1h1zm-11 0-1-1h-1v1h2zm13 0v-1h-1c0 1 0 0 0 0v1h1zm-43 0h3v-1h-1s0 1 0 0l-1 1v-1h-1v1zm5 0v-1h-2v1h2zm1 0h1v-1h-2v1h1zm5 0-1-1v1h-3l1 1s0-1 0 0h1v-1l1 1h1v-1zm0 0h2v-1h-2v1zm11 0v-1h-1l-1 1h1c-1 0 0 0 0 0h-1 2zm0 0h2v-1h-1c1 0 0 0 0 0l-1 1zm-5 0h1l-1-1v1zm13 0h2-1 1l-1-1s0 1 0 0h-1v1zm-15 0h1-1zm9 0h2v-1h-2v1zm3 0h1v-1h-2v1h1zm10 0h-1 1zm0 0zm0 0zm1 0zm-29 0zm-22 2h1v-1h-2l1 1zm56-1h-1 1zm-1 0zm-57 0h-1 1v1h1v-1h-1zm4 1 1-1h-1v-1h-1v1h1v1zm3-1h-2 2zm1 0h1-2 1zm2 0h1-2 1zm3 0h1-1zm4 0h1-1v1-1zm14 0-1-1v1h1zm3 0h1-1zm2 0h1-1zm-24 0h-1v-1 1h1zm0 0zm3 0h1-1v1-1zm4 0h1-1zm4 0h1-2 1zm2 0h1-2 1zm15 0h1-1zm6 0h-1 1zm0 0zm0 0zm-19 0h-1 1zm2 0h1-2 1zm9 0h1-1zm6 0h1-1c-1 0 0 0 0 0zm-12 0h1-1zm10 0h1-2 1zm0 0zm-21 0h1-2 1zm34 0h1-1zm-8 0zm3 0h-1 1zm0 0zm5 0zm0 0zm0 0zm-5 0zm0 0zm-2 0h-1 1zm7 0zm0 0zm-3 0zm0 0zm-3 0zm-30 0zm-17 3h2v-1h-2v1zm7-1h-5l1 1h1v-1 1h1l1-1v1h1v-1c0 1 1 0 0 0zm2 0h-1v1h1v-1zm8 1v-1h-2l1 1h1zm6 0v-1h-2v1h2zm15-1h-2v1h2v-1zm-27 0h-2v1h2v-1zm8 0h-2v1h2v-1zm2 1-1-1h-1v1h2zm3-1h-1v1h1v-1zm2 0h-1v1h1l1-1h-1zm6 0h-2 1v1h1v-1zm4 0h-2l1 1h1v-1zm7 0h-1v1h1v-1zm9 1h1v-1h-2 1v1zm-39-1h-2v1h2v-1zm2 0h-2l1 1h1v-1zm13 0h-1v1h1v-1zm2 0h-1v1h1v-1zm11 1 1-1h-2v1h1zm6 0v-1h-1l1 1zm1 0h1v-1h-1v1zm-14-1h-2l1 1h1v-1zm6 0h-2l1 1h1v-1zm5 0h-1 1-1 1zm6 1c0-1 0-1 0 0v-1h-1v1h1zm3 0zm-47 0h-1v1h1v-1zm2 0h-1v1h1v-1zm2 0h-1v1h1v-1zm2 0h-1v1h1v-1zm14 0v1h1v-1h-1zm-13 0v1h1v-1h-1zm2 0h-1v1h2l-1-1zm0 1zm2-1h-1v1h2v-1h-1zm0 1zm4 0v-1h-1v1h1zm0 0zm10-1h-1v1h1v-1zm-12 1v-1h-1v1h1zm3-1v1h1v-1h-1zm1 1zm2 0h-1 1zm4-1h-1v1h1v-1zm4 0h-1v1h1v-1zm3 0h-1l1 1 1-1h-1zm2 1v-1h-1l1 1zm-4-1v1-1zm0 1v-1 1zm8 0v-1 1zm-2-1h-1 1zm3 0c0 1 0 0 0 0 0 1 0 0 0 0zm-9 0zm8 0zm0 1v-1h-1v1h1zm0-1c0 1 0 1 0 0 0 1 0 0 0 0 0 1 0 1 0 0zm0 0zm5 0zm3 0zm-8 0zm0 0zm0 1c0-1 0-1 0 0 0 0 0-1 0 0zm1 0zm-1 0zm-39 2v-1h-1v1h1zm-2 0h-1 1-1 1zm3 0h1v-1l-1 1zm3 0h-1 1v-1 1zm3 0zm0 0zm-2 0zm2 0zm-2 0zm-1 0z"/><path d="M1032 320h-3l-18-18v-28l1-1v-1h33v1l1 2v6h17l1-7v-5h-25l-1-1h-1l-1-1v-2h1l1-1 1-1h25v-3h-26l-1-1v-27l4-3-11-1-3-2v-1l1-1h1v-1h1-6v-3l1-1h15l-2-2 1-1h1-27v-1h-1l-1-1v-37h1l1-1h87l2 1v1l1 1v52l-9 7 13 1 2 1v2l-2 1h-1l-3 1 1 1h1l-1 1v2h-4l3 3-1 51-17 18h-1l-1 1h-51v-1zm-1-1h52v-1l18-17v-50l-4-3v-1l1-1h5v-1l-1-1h-7l-1-1 1-1h1l10-1h2l-1-1-15-1h-3l12-9v-52h-88v35h51v1h1l-1 1h-1l-18 1h-1l-4 1h2a251 251 0 0 0 14 3l-1 1h-1l-5-1h-21v1h-3 7v1h18l2 1-2 1-14 1h-7v1h2l12 1 1 1h1l-6 5v26h27v5h-1v1h-25l-1 1h-1l1 1h1v1h25l1 1v14h-21l-1-1v-8h-31v27l18 18z"/><path d="M1002 177c-3 0-6 2-6 5v1c0 3 3 5 6 5s6-2 6-5c0-4-3-6-6-6z" fill="#212020"/><path class="st0" d="M1007 183c0 2-2 4-5 4s-5-2-5-4v-1c0-2 2-4 5-4s5 2 5 5zm-9 0c0 2 2 3 4 3s4-1 4-3c0-3-2-4-4-4s-4 1-4 4zm3 2h-1v-5h4v2l-1 1 1 1v1h-1v-1l-1-1h-1v2zm0-3h2l-1-1h-1v1z"/></svg>