<svg xmlns="http://www.w3.org/2000/svg" width="1595.26" height="547.15" viewBox="0 0 1196.44 410.36"><g fill="#bdc0c1" stroke="#bdc0c1" stroke-width=".09"><path d="M465.45 3.07C490.5 1.65 515.6.38 540.7.38c-10.36 1.32-20.86.34-31.23 1.58a1343.82 1343.82 0 0 0-101.2 8.68c-71.08 9.1-141.8 23.7-209.16 48.56-26.56 10-52.56 21.66-77.02 36.1a6.8 6.8 0 0 0-1.94 2.12c5 .77 10.1.33 15.15.42 23.8.04 47.6-.09 71.4.07-24.83 15.5-48.72 34.11-64.45 59.21-11.07 17.51-16.84 38.76-13.74 59.43 1.1 8.66 3.99 16.95 7.34 24.97-.81 6.21-3.14 12.15-4.15 18.34-4.83.48-9.6-1.23-14.38 0-6.97-.03-14.01.5-20.94-.44-12.91 1.34-25.96-.3-38.88.85-13.02-16.53-20.94-37.62-19.75-58.82.62-17.67 7.64-34.59 17.72-48.92 7.97-11.49 17.8-21.65 28.52-30.59.53-.66 1.02-1.35 1.45-2.07-9.02-.05-18.04-.02-27.06.03-2.18.05-4.3-.52-6.36-1.1C76.9 99.1 105.38 84.45 134.4 71.91c38.34-16.3 78.33-28.48 118.8-38.23C322.84 17.05 394.06 7.65 465.45 3.07zM1011.89 96.96c4.29-2.75 7.7-6.57 11.37-10.08a328.45 328.45 0 0 1 42.36 26.68c-2.42 2.37-2.36 5.78-3.28 8.8-4.87 6.55-8.83 13.76-14.15 20-8.3 9.61-13.5 21.5-21.92 31.01-3.13 3.9-5.64 8.24-8.83 12.08-4.42 5.3-7.76 11.36-11.73 16.97-2.92-4.22-7.33-7.03-11.91-9.15-2.83-19.37-12.68-36.98-25.12-51.82 6.67-7.06 11.37-15.66 17.73-22.98 3.45-3.59 7.62-6.4 10.99-10.1 4.18-4.56 9.33-8.04 14.49-11.4zM1101.6 172.68c2.75-4.14 3.84-9.23 7.2-12.99 9.66 15.25 14.85 33.67 13.15 51.75.53.1 1.59.26 2.13.35-11.16 4-22.86 7.47-32.36 14.86-6.34 2.2-13.22 3.41-18.83 7.35-5.67 4.51-12.8 6.96-19.95 7.65a6.01 6.01 0 0 1 .79-4.77c2.63-4.53 6.29-8.3 9.46-12.44 6.5-8.5 13.52-16.62 19.9-25.23 2.1-2.9 4.5-5.68 5.8-9.07 2.3-7.04 8.63-11.54 12.72-17.46zM77.15 281.54c9.48 8.28 19.18 16.34 29.7 23.28 30.74 20.8 64.87 36.03 99.64 48.7 39.9 14.4 81.08 25.01 122.65 33.32 62.7 12.38 126.4 19.32 190.23 21.97 5.7.34 11.46-.58 17.1.41-4.05.01-8.11-.05-12.17.15-48.8-.97-97.56-4.58-146.01-10.6-49.2-6.22-98.11-15.08-146.07-27.74-38.31-10.18-76.1-22.69-112.12-39.32-27.83-13.02-55-28.3-78.05-48.79 10.1-.13 20.22-.03 30.33-.04 1.72.14 3.26-.63 4.77-1.34z"/></g><g fill="#fcfcfc" stroke="#fcfcfc" stroke-width=".09"><path d="M540.7.38c49.9-.93 99.88 0 149.65 3.94 20.07 1.5 40.12 3.74 60.08 5.93-2.31-.1-4.7-.53-6.92.3-17.36 5.31-34.75 10.51-52.1 15.82-3.42 1.37-7.04.15-10.52-.16-54.21-6.64-108.97-8.55-163.53-6.25-51.23 2.24-102.36 8.28-152.5 19.18-37.41 8.18-74.34 19.05-109.61 34.06-16.7 7.18-33.06 15.18-48.54 24.71-23.8-.16-47.6-.03-71.4-.07-5.05-.09-10.14.35-15.15-.42a6.8 6.8 0 0 1 1.94-2.12c24.46-14.44 50.46-26.1 77.02-36.1 67.36-24.86 138.08-39.46 209.17-48.56 33.6-4.09 67.36-7.14 101.19-8.68C519.85.72 530.35 1.7 540.7.38zM1056.36 7.44c4.14-1.44 8.48-2.94 12.94-2.34 5.77.75 11.58 1.57 17.15 3.35 1.88.62 3.89.14 5.84.5 5.8 2.15 10.3 6.67 15.58 9.76 7.02 1.16 11.87 6.93 16.1 12.17 2.58 3.6 5.68 7.1 6.6 11.56 2.39 9.68 4.57 19.41 7.14 29.04-.03 11.47-3.26 22.64-5.12 33.9-.78 6.4-3.8 12.2-6.11 18.13-2.75 7.37-7.95 13.81-8.9 21.81-.52 5.72-5.4 9.26-8.96 13.16l.18 1.21c-3.36 3.76-4.45 8.85-7.2 13-4.08 5.91-10.4 10.41-12.71 17.45-1.3 3.4-3.7 6.17-5.8 9.07-6.38 8.61-13.4 16.72-19.9 25.23-3.17 4.13-6.83 7.91-9.46 12.44a6.01 6.01 0 0 0-.8 4.77c7.16-.69 14.29-3.14 19.96-7.65 5.6-3.94 12.49-5.16 18.83-7.35 9.5-7.39 21.2-10.86 32.36-14.86a207.85 207.85 0 0 1 22.85-11.99c2.54-1.37 5.19.4 7.64 1.11 1.42-1.32 2.66-3.14 4.73-3.48 2.5.8 2.62 4.41 5.05 5.22 4.1-1.27 7.66-4.04 11.94-4.87 4.99.07 10.79-.8 14.77 2.96a49.23 49.23 0 0 0 4.38 8.85 6.23 6.23 0 0 1-.57 7.4c-1.97 2.45-5.01 3.56-7.43 5.43-2.64 2.74-1.01 7.46-4.37 9.71-10.43 9.5-22.32 17.22-34.15 24.81a485.97 485.97 0 0 1-59.97 31.97 628.16 628.16 0 0 0-42.54 20.97c-17.67 10.01-35.4 19.98-52.22 31.4-2.9 2.4-5.58 5.03-8.3 7.61-4.04 4.04-8.71 7.66-11.16 12.97-1.81 4.16-6.4 5.26-10.4 6.08-5.14 4.55-11.01 8.68-17.82 10.2-5.2 1.08-10.32-.5-15.17-2.12-4.57.35-7.14-3.8-11-5.34-2.32-1.04-4.7-2.25-6.15-4.43-3.32-4.64-5.2-10.29-9.4-14.28-1.6-1.73-3.44-3.3-4.61-5.36-1.4-4.27.27-8.62 1.26-12.78-.66-.23-1.98-.7-2.64-.95-.37-3.6-1.16-7.27-.34-10.86 1.19-2.78.22-5.72.26-8.59.6-2.45 3.39-3.23 5.29-4.46 2.57-1.22 4.6-3.67 7.5-4.05 6.62-.36 13.3.48 19.88-.45 4.22-.82 7.64-3.72 10.1-7.13 3.05 4.16 7.64 7.48 12.98 7.51 8.3.1 16.6.07 24.9.01 7.19-.04 13.47-5.69 15.12-12.53 2.58-10.24 5.3-20.45 7.47-30.79.92-3.9.52-7.94-.21-11.84 4.7-6.2 6.6-13.98 7.95-21.5 1.18-8.67 1.26-18.33-4-25.78 3.98-5.6 7.32-11.67 11.74-16.97 3.19-3.84 5.7-8.19 8.83-12.08 8.43-9.52 13.62-21.4 21.92-31.02 5.32-6.23 9.28-13.44 14.15-20 .92-3 .86-6.42 3.28-8.79 2.87-4.58 5.56-9.28 8.1-14.04 2.64-6.53 3.98-13.52 6.69-20.02 2.05-5.63.84-11.56-1.04-17.04-3.77.82-8.11-1.02-11.36 1.55-4.74 3.2-10.4 4.52-15.73 6.31-4.04 1.76-7.4 4.71-11.2 6.86a510.25 510.25 0 0 0-17.82 9.7c-3.66 3.51-7.08 7.33-11.37 10.08-5.16 3.37-10.31 6.85-14.5 11.41-3.36 3.7-7.53 6.51-10.98 10.1-6.36 7.32-11.06 15.92-17.73 22.98-3.98 3.56-3.68 9.26-6.7 13.35-1.91 2.41-1.74 6.01-4.25 7.97a38.18 38.18 0 0 1-24.48 8.63c-4.38-1.37-7.16-5.4-10.65-8.15-2.87-2.49-6.9-2.84-9.93-5.03-2.27-2.43-2.95-5.82-4.33-8.75-1.7-4.43-5.87-7.4-7.1-12.08-1.6-5.29-2.98-10.97-2.07-16.5.9-5.15 7.06-7.45 7.19-12.82l.7-2.69c3.76-1.66 7.48-3.55 10.37-6.55-27.95-16.86-58.06-29.9-88.97-40.28-37.3-12.52-75.75-21.32-114.54-27.67a2623.4 2623.4 0 0 1 58.3-17.57c63.63 9.26 126.88 23.03 187.27 45.36 3.03-3.05 5.8-6.72 10.1-8 5.33-3.58 9.62-8.47 14.12-13 3.49-3.25 9.08-3.04 12.27-6.74 3.18-3.35 7.56-5.13 11.57-7.28a259.18 259.18 0 0 1 22.68-10.4c8.33-3.48 17.8-2.32 26.13-5.8zM10.84 164.84c10-18.25 24.98-33.23 41.19-46.05 2.07.6 4.18 1.16 6.36 1.11 9.02-.05 18.04-.08 27.06-.03-.43.72-.92 1.41-1.45 2.07-10.72 8.94-20.55 19.1-28.52 30.6-10.08 14.32-17.1 31.24-17.72 48.91-1.2 21.2 6.73 42.3 19.75 58.82 6.32 7.28 12.13 15.14 19.64 21.27-1.51.71-3.05 1.48-4.77 1.34-10.11.01-20.22-.09-30.33.04-17.92-16.04-33.95-35.79-39.77-59.59-5.03-19.67-1.28-40.9 8.56-58.49z"/><path d="M797.32 123.38c-.04-2.13 1.92-3.62 3.9-3.72 3.2-.25 6.54-.5 9.66.33 1.87.71 1.08 2.86.74 4.28a386.18 386.18 0 0 1-6.04 19.05c-2.6-.29-6.31 1.4-8.12-1.02-.17-6.3-.32-12.62-.14-18.92zM196.8 133.87l49.28.01c-.45 2.75-.9 5.51-1.28 8.28-5.41.13-10.83.02-16.24.07-2.65 16.7-5.27 33.38-7.98 50.07-5.61-.04-11.23.02-16.84-.04 2.66-16.65 5.3-33.3 7.94-49.95h-16.22l1.34-8.44zM265.94 134.05c10.04-1.38 20.34-1.76 30.37-.1 4.4.73 9.5 2.65 10.98 7.32 2.13 7.34-2.14 14.68-1.18 22.03a278.65 278.65 0 0 1-4.3 17.08c-.83 3.23-2.35 6.43-5.1 8.46-3.22 2.56-7.44 3.24-11.43 3.61-10.41 1.11-21.01 1.11-31.33-.72-4.1-.66-7.65-4.08-7.75-8.35-.9-9.84 2.1-19.46 3.52-29.12 1.15-4.6 1.15-9.67 3.62-13.83 2.83-4.1 7.92-5.63 12.6-6.38m8.59 7.57c-4.3.61-7.13 4.5-7.74 8.58a421.46 421.46 0 0 0-3.75 24.22c-.16 3.4-.58 8.23 3.3 9.76 3.86 1.01 7.96 1.01 11.92.67a8.43 8.43 0 0 0 7.58-6.47c2.56-9.18 3.63-18.67 5.03-28.07.47-3.02-.22-6.88-3.45-8.06-4.08-1.57-8.65-1.34-12.9-.63zM326.1 139.22c2.45-3.1 6.33-4.67 10.14-5.25a96.84 96.84 0 0 1 31.05.1c3.45.63 7.2 2.04 8.97 5.3 2.2 4.07 1.04 8.85.6 13.2-1.9 13.15-3.98 26.3-6.2 39.4-5.57.72-11.65.08-17.41.3 2.08-14 4.59-27.94 6.49-41.96.24-2.77 1.02-6.86-2.24-8.18-3.62-.98-7.48-.64-11.18-.43-2.38 0-4.9 1.3-5.67 3.66-1.56 4.72-2.13 9.7-2.94 14.6-1.76 10.77-3.42 21.56-5.2 32.34-5.77-.03-11.55 0-17.33-.02 1.93-13.35 4.2-26.65 6.29-39.98.8-4.55 1.7-9.36 4.63-13.08zM392.7 133.83h16.44c-1.08 7.86-2.55 15.7-3.02 23.62.42 4 5.33 3.72 8.28 3.88 4.26-.2 10.26.73 12.56-3.89 2.58-7.63 3.28-15.7 4.68-23.6 5.57.01 11.15.05 16.72-.04a631.67 631.67 0 0 1-5.7 26.52c-.53 3.3-3.22 5.84-6.3 6.88-4.38 1.43-9.03 1.67-13.54 2.51-1.11 7.52-2.35 15.03-3.55 22.54-5.46-.05-10.91.06-16.37-.07 1.28-7.56 2.43-15.13 3.64-22.69-4.94-.55-10.24-.14-14.77-2.5a6.2 6.2 0 0 1-3.17-6.65c1.09-8.88 2.69-17.69 4.1-26.5zM495.75 133.82c5.74.02 11.48 0 17.23.02-1.24 7.9-2.52 15.77-3.75 23.67h20.64c1.23-7.87 2.52-15.72 3.72-23.59 5.8-.06 11.6-.02 17.42-.02-3.03 19.42-6.25 38.82-9.2 58.27-5.77.15-11.54.04-17.3.07 1.4-8.79 2.76-17.59 4.2-26.37-6.9-.15-13.8-.05-20.7-.05-1.34 8.8-2.85 17.58-4.13 26.4-5.81.14-11.63.03-17.44.06 3.1-19.48 6.18-38.98 9.3-58.46zM571.48 136.55c8.55-4.47 18.55-3.16 27.84-3.23 5.65.41 11.99-.2 16.85 3.26 3.94 2.93 4.02 8.35 3.39 12.77-1.8 14.35-4.38 28.6-6.54 42.9-5.84.03-11.67.02-17.5 0 1.23-7.79 2.5-15.57 3.7-23.36-6.85.01-13.7.02-20.54 0-1.26 7.75-2.5 15.51-3.7 23.28-5.83.05-11.65.04-17.48.01 2.02-13.78 4.28-27.53 6.55-41.27 1.2-5.24 2.24-11.53 7.43-14.36m11.87 7.95c-1.6 5.14-2.43 10.47-3.65 15.7 6.8.03 13.63.01 20.46.01.73-4.97 1.88-9.9 2.12-14.93-.84-3.9-5.71-4.02-8.9-4.19-3.44.2-7.92.2-10.03 3.41zM625.7 133.73c5.23.07 10.48-.19 15.7.15 1.17.3 1.15 1.66 1.42 2.61 2 11.91 3.67 23.88 5.87 35.75.75-1.2 1.46-2.43 1.96-3.77 4.35-10.86 8.89-21.65 13.25-32.5.4-1.02.96-2.38 2.32-2.22 4.9.1 9.86-.23 14.76.13l.77 1c2.16 12.56 3.57 25.26 5.87 37.81 5.26-12.05 10.14-24.26 15.33-36.34.48-1.04 1.06-2.64 2.49-2.53 4.97-.2 9.96-.03 14.94-.1-9.34 19.56-18.84 39.06-28.2 58.63-5 .04-9.98.11-14.97-.05-1.4.26-2.06-1.2-2.18-2.3-1.51-7.89-2.98-15.78-4.42-23.68-.46-2.25-.6-4.63-1.74-6.67-4.81 9.96-9.5 19.97-14.26 29.94-.6 1.3-1.53 2.93-3.21 2.71-4.94.17-9.88.08-14.81.07l-10.9-58.64zM731.42 133.8c5.47.08 10.95 0 16.42.04-1.24 8.17-2.7 16.32-3.8 24.51 8-7.44 15.4-15.5 23.27-23.09.82-.77 1.78-1.6 3-1.47 4.74-.16 9.49-.04 14.23-.08-7.81 8.3-16.11 16.12-24.04 24.3 4.82 1.14 9.95 1.61 14.37 4.03 3.33 1.82 4.9 5.87 4.17 9.53a2038.2 2038.2 0 0 0-3.31 20.76l-17.41.01c.88-6.66 2.27-13.25 2.97-19.93a4.95 4.95 0 0 0-4.38-5.39c-4.7-.77-9.47-.33-14.2-.36-1.36 8.46-2.63 16.94-4.05 25.4-5.54.34-11.11.08-16.66.1 3.22-19.45 6.05-38.96 9.42-58.37zM835.3 134.04c10.59-.39 21.2-.14 31.8-.18-.55 2.8-.65 5.71-1.5 8.45-9.12.26-18.28-.32-27.38.33-7.28.4-8.22 13.33-.86 14.4 7.42 1 15.06.13 22.4 1.76 4.23.94 7.49 5.18 6.73 9.56-.9 5.08-1.13 10.37-2.93 15.24-1.96 4.9-7.25 7.3-12.2 7.8-12.21 1.47-24.52.88-36.78 1 .39-2.87.84-5.73 1.32-8.58 8.48-.2 16.97.05 25.45-.15 2.33-.12 5.22-.4 6.5-2.69 1.34-2.6 1.69-5.6 1.89-8.48.22-3.05-2.32-5.66-5.24-6-7.41-.86-15.02.08-22.3-1.84-3.73-.88-7.03-4.23-6.7-8.26.37-5.3 1.23-10.7 3.39-15.59 3.43-5.48 10.59-6.1 16.4-6.77zM178.27 206.64c13.1-2.02 26.66-2.4 39.67.51 5.54 1.27 11.47 5.11 11.83 11.34.2 10.9-1.7 22.25-7.63 31.58-4.02 6.15-11.73 8.51-18.74 8.64-10.64.14-21.28.16-31.92.03-2.78 10.06-5.03 20.25-7.6 30.37-7.67-.03-15.35.1-23.02-.07 4.28-17.82 8.6-35.63 13.13-53.39a90.63 90.63 0 0 1 7.59-20.22c3.42-5.79 10.44-7.85 16.69-8.79m3.35 15.78c-3.16 7.91-5.26 16.2-7.74 24.33 6.17.16 12.35.12 18.53.06 4.3-.1 9.55-1.43 11.32-5.85a79.79 79.79 0 0 0 4.34-18.53c.25-2.33-1.65-4.24-3.78-4.8-4.2-1.23-8.68-.96-13-.7-3.78.26-8.13 1.66-9.67 5.5zM264.96 207.18c15.3-2.63 31.2-3.2 46.42.26 3.68.81 7.6 3.03 8.47 7 1.3 7.58-.27 15.4-3.04 22.48-2.56 6.1-9.22 8.97-15.3 10.2 4.53 1.4 11.15 3.37 10.96 9.26-1.77 11.04-5.12 21.75-7.62 32.63-7.98.11-15.97.08-23.96.02 2.28-9.55 4.83-19.04 6.73-28.68.82-3.07-1.3-6.14-4.31-6.8-6.72-1.77-13.78-.86-20.64-1a5131.4 5131.4 0 0 1-9 36.58c-7.71-.08-15.43.08-23.14-.09a5020 5020 0 0 1 9.27-38.06c2.9-11.36 5.16-23.02 10.46-33.59 2.3-6.05 8.68-9.14 14.7-10.2m6.29 15.21c-2.64 6.16-4.33 12.68-6.38 19.06 6.86 0 13.72.2 20.58-.08 3.6-.15 7.8-1.4 9.44-4.94 2.03-4.68 3.56-9.92 2.54-15.04-.27-2-2.03-3.49-3.93-3.9-4.3-.76-8.7-.85-13.04-.52-3.64.28-7.68 1.82-9.21 5.42zM362.99 206.2a148.91 148.91 0 0 1 37.26.15c5.84.82 13.29 2.41 15.39 8.8 2.44 12-2.82 23.58-4.74 35.24-2.17 7.4-4.15 14.85-6.64 22.15a24.4 24.4 0 0 1-18.76 16.05 159 159 0 0 1-41.57 1.04c-5.6-.59-12.16-1.3-15.77-6.19-3.23-4.78-1.68-10.92-1.16-16.24a540.2 540.2 0 0 1 8.29-34.82c1.64-6.65 4.74-12.88 8.62-18.49 4.72-5.46 12.3-6.75 19.08-7.69m9.04 11.01c-3.4.62-6.81 2.01-9.1 4.68-2.13 2.74-3.3 6.1-4.28 9.4a843.04 843.04 0 0 0-6.57 26.66 59.52 59.52 0 0 0-1.68 14.51c.03 3.25 3.3 5.14 6.13 5.76 4.86 1.03 9.99 1.31 14.86.2 5.44-1.2 10.13-5.57 11.4-11.04 1.67-5.99 3.53-11.93 5.13-17.94 1.19-7.79 4.1-15.23 5.02-23.08.47-3.37-1.22-7.02-4.52-8.22-5.2-1.98-10.98-1.6-16.4-.93zM689.19 206.97a135.45 135.45 0 0 1 41.14-.62c4.16.6 8.57 1.51 11.83 4.37 2.49 2.13 3.67 5.47 3.56 8.71a68.02 68.02 0 0 1-2.03 14.47c-4.46 18.4-8.92 36.81-13.54 55.18-8.02-.13-16.04.13-24.06-.13 2.79-11.03 5.47-22.08 8.15-33.12-9.44.03-18.9 0-28.33.01-2.68 11.06-5.48 22.08-8.1 33.15-8.11.15-16.22.01-24.33.08 4.4-18.25 8.8-36.49 13.48-54.67 1.52-6.13 4-11.96 6.68-17.66 2.87-5.89 9.47-8.6 15.55-9.77m6.07 15.42c-2.73 6.97-4.73 14.2-7.01 21.3 9.67 0 19.35.06 29.02-.03 1.49-6.72 3.25-13.42 4.03-20.27a5.04 5.04 0 0 0-3.31-5.53c-4.36-1.56-9.13-1.16-13.67-.9-3.6.28-7.8 1.67-9.06 5.43zM939.86 207.06c15.33-2.53 31.26-3.1 46.47.55 3.74.9 7.56 3.6 7.96 7.72.95 7.33-.52 14.8-3.21 21.62-2.63 6.11-9.37 9.05-15.54 10.16 3.74 1.22 8.12 2.22 10.33 5.82 1.65 2.61.56 5.73.02 8.5a793.3 793.3 0 0 1-6.9 27.68c-7.91-.03-15.81-.03-23.71 0 2.02-9.95 5.02-19.7 6.74-29.7.62-4.3-4.01-6.23-7.5-6.5-5.82-.49-11.95-.82-17.64-.12-3.04 12.08-5.94 24.2-8.95 36.3-7.73-.04-15.46.03-23.18-.05 4.4-17.87 8.65-35.79 13.25-53.6a90.81 90.81 0 0 1 7.52-19.98c2.87-5.13 8.83-7.42 14.34-8.4m5.64 15.41c-2.58 6.16-4.31 12.64-6.38 18.98 8.08-.2 16.26.7 24.27-.62 6.17-1.26 7.49-8.28 8.48-13.49.28-3.22.64-7.8-2.87-9.42-4.02-1.34-8.4-1.06-12.57-1.06-4.17.1-9.2 1.37-10.93 5.61zM487.28 214.33c4.65-5.52 12.19-6.97 19.04-7.35 15.48-.82 31-.97 46.5-.87-.97 4.07-2.04 8.11-2.93 12.2-11.85.23-23.71-.05-35.55.18-3.32.16-7.36.7-9.13 3.92a21.76 21.76 0 0 0-2.2 11.91c.2 3.13 3.54 4.67 6.3 4.92 9.16.82 18.45.21 27.54 1.83 4.92.88 10.5 3.91 10.96 9.45.34 7.8-1.5 15.64-4.72 22.72-1.97 4.34-4.54 8.7-8.73 11.22-5.68 3.47-12.56 3.76-19.02 4.06-14.2.51-28.41.8-42.62.66 1.02-4.1 2-8.2 3.05-12.3 11.54.03 23.09.1 34.64-.04 3.9-.1 8.82-.76 10.56-4.84a40.2 40.2 0 0 0 2.84-13.5c.12-3.47-3.3-5.47-6.31-5.83-10.38-1.4-21.2.28-31.31-2.95-4.44-1.33-7.85-5.54-7.64-10.26.15-8.99 3.04-18.1 8.73-25.13zM559.8 289.08c6.8-27.59 13.56-55.2 20.35-82.8 7.59-.06 15.18 0 22.78-.03-2.73 11.67-5.9 23.24-8.42 34.96 12.52-10.96 24.22-22.85 36.5-34.08 1.46-1.34 3.57-.99 5.39-1.06 5.78.16 11.55-.1 17.33.16-11.95 11.82-24.64 22.88-36.55 34.73 6.9.86 14.37 1.25 20.24 5.44 3.15 2.14 5.1 6.06 4.33 9.9-1.94 11.07-5.15 21.87-7.82 32.78-7.96-.08-15.92.13-23.87-.1 2.2-8.84 4.36-17.68 6.36-26.56.43-2.17 1.07-4.73-.42-6.65-1.83-2.2-4.9-2.65-7.57-2.99-5.54-.49-11.13-.34-16.68-.23-3.11 12.15-5.68 24.54-9.2 36.52-7.58.1-15.17.04-22.75.01zM762.45 206.28h68.06c-.98 3.96-1.9 7.94-2.96 11.88-7.44-.02-14.87-.1-22.3.05-5.75 23.63-11.61 47.24-17.37 70.87-7.77.02-15.54.03-23.31 0 5.8-23.64 11.64-47.26 17.4-70.9-7.5-.04-14.98.08-22.46-.07 1.02-3.93 1.96-7.89 2.94-11.83zM841.59 214.55a19.64 19.64 0 0 1 15.77-8.02c16.39-.26 32.79-.43 49.19-.42-1 4.01-1.95 8.03-2.97 12.03-11.07.03-22.14 0-33.21.25-3.38.06-6.92 1.17-9.16 3.82-4.3 4.93-5.43 11.6-6.8 17.8 10.53-.1 21.06-.03 31.6-.05l-2.8 11.38c-10.56.02-21.12 0-31.7.01-1.43 6.95-4.41 13.88-3.24 21.1.58 3.3 4.35 4.24 7.22 4.31 11.18.3 22.38.1 33.57.16-1 4.07-1.98 8.15-3.02 12.22-14.2.14-28.4.02-42.58.06-4.94-.03-10.16-.03-14.7-2.2-2.47-1.17-3.86-3.82-4-6.46-1.03-13.32 3.23-26.19 6.38-38.95 2.76-9.24 4.02-19.43 10.45-27.04z"/></g><g fill="#010101" stroke="#010101" stroke-width=".09"><path d="M743.5 10.55c2.23-.83 4.62-.4 6.93-.3 7.25 1.12 14.55 1.9 21.8 3.06a2623.4 2623.4 0 0 0-58.31 17.57c38.79 6.35 77.25 15.15 114.54 27.67 30.9 10.37 61.02 23.42 88.97 40.28-2.9 3-6.61 4.9-10.36 6.55l-.71 2.7c-31.63-18.43-65.85-32.06-100.84-42.6-34.72-10.44-70.28-17.96-106.14-23.15-5.38-.58-10.7-1.64-16.1-2.03-3.42.47-6.65 1.82-9.97 2.74-85.33 25.66-170.63 51.4-255.96 77.03.97.85 1.95 1.68 2.94 2.53 3.85-3.43 8.93-5 14.05-4.57 6.55.4 13.32-.89 19.69 1.02 6.9 2.51 11.39 10.25 9.93 17.5-1.24 6.5-2.75 12.94-4.12 19.41-1.4 5.83-2.1 12.13-5.85 17.04-4.02 5.8-10.67 9.06-17.38 10.62-.84 4.55-1.15 9.22-2.42 13.7-.91 3.21-3.3 5.68-5.65 7.93 3.86 6.94 3.7 15.08 3.22 22.77 11.84 11.75 23.57 23.62 35.45 35.34 2.08-.85 4.2-1.63 6.35-2.3-6.1-4.74-10.38-11.87-10.72-19.69-.51-13.5 4.16-27.06 12.52-37.64-3.5-3.88-5.5-9.16-4.42-14.39 2.67-16.95 5.4-33.88 8.08-50.82.89-5.3 1.08-11.3 5.09-15.38 3.76-4.39 9.82-5.57 15.35-5.15 8 .42 16.98-1.69 23.87 3.6 7.29-5.42 16.7-3 25.1-3.57a17.93 17.93 0 0 1 14.34 5.14c7.77-4.35 16.79-5.86 25.6-5.83 9.75 0 19.6-.1 29.15 2.14 7.4-2.42 15.24-1.48 22.9-1.58 3.58-.02 7.2.84 10.1 3.01.98.72 1.9 1.5 2.87 2.25 3.4-2.82 7.46-5.14 12-5.17 5.34-.03 10.69-.12 16.03.01 4.3.17 8.16 2.4 11.35 5.17 3.29-2.68 7.12-5.04 11.5-5.1 7.06-.15 14.16-.48 21.19.45 3.63 0 7.25-.69 10.9-.5 7.46.22 15.82-1.32 22.07 3.84 6.86-5.1 15.67-3.88 23.66-3.89 2.58-7.26 8.95-13.09 16.76-13.94 7.23-.65 15.37-1.12 21.59 3.32 3.9 2.67 6.29 7 7.23 11.57 10.87-1.38 21.84-.77 32.77-.9 4.59.07 9.5-.54 13.73 1.7a15.8 15.8 0 0 1 8.6 15.65c-.9 5.95-1.04 12.45-4.94 17.37 3.13 5 5.15 10.84 4.39 16.8-.95 7.02-1.7 14.18-4.24 20.85 9.79 0 19.58-.3 29.37-.07 5.38.07 9.99 3.46 13.02 7.7a43.11 43.11 0 0 1 15.2-6.25c14.42-2.68 29.26-3.39 43.84-1.58-2.9-12.98-9.34-24.9-17.42-35.38 3-4.09 2.7-9.79 6.69-13.35 12.44 14.84 22.29 32.45 25.12 51.82 4.58 2.12 8.99 4.93 11.9 9.15 5.26 7.45 5.18 17.11 4 25.77-1.35 7.53-3.24 15.31-7.95 21.51.73 3.9 1.13 7.93.2 11.84-2.16 10.34-4.88 20.55-7.46 30.8-1.65 6.83-7.93 12.48-15.11 12.52-8.3.06-16.61.08-24.91 0-5.34-.04-9.93-3.36-12.98-7.52-2.46 3.41-5.88 6.31-10.1 7.13-6.58.93-13.26.1-19.87.45-2.91.38-4.94 2.83-7.51 4.05-1.9 1.23-4.68 2.01-5.3 4.46-.03 2.87.94 5.81-.25 8.6-12.55 5.98-25 12.27-37.94 17.42-32.34 13.25-66 23.15-100.08 30.77-54.53 12.2-110.3 18.28-166.07 20.42a734.26 734.26 0 0 1 18.74 18.7c-20.16 1.04-40.4.45-60.6.53-9.4 1.16-18.8-.3-28.21-.5 4.06-.2 8.12-.14 12.18-.15 5.05.6 10.14.05 15.2.45a1302.5 1302.5 0 0 0-16.64-18.94c-46.17-1.2-92.28-5.5-137.8-13.47-39.7-7.02-79.01-16.79-116.93-30.64-35.85-13.2-70.81-29.97-101-53.64-1.94 5.38-6.08 10.31-11.92 11.42-6.28.87-12.63.22-18.94.42-5.15-.13-10.8.73-15.4-2.13a15.78 15.78 0 0 1-7.5-16.36c1.7-8.9 4.49-17.56 6.16-26.47 1-6.19 3.34-12.13 4.15-18.34-3.35-8.02-6.24-16.3-7.34-24.97-3.1-20.67 2.67-41.92 13.74-59.43 15.73-25.1 39.62-43.72 64.45-59.2 15.48-9.54 31.85-17.54 48.54-24.72 35.27-15 72.2-25.88 109.62-34.06C415 28.24 466.13 22.2 517.36 19.96c54.56-2.3 109.32-.39 163.53 6.25 3.48.31 7.1 1.53 10.52.16 17.35-5.3 34.74-10.5 52.1-15.82M445.43 39.32c-57.3 6.92-114.21 19.02-168.24 39.55.5.65 1.07 1.26 1.67 1.84 15.05 12.36 30.15 24.65 45.16 37.04 1.05.72 1.92 1.91 3.26 2.1 14.58-3.6 30.02-3.72 44.74-.9 2.8.3 5.42 2.68 8.27 1.65l158.16-47.94c38.98-11.94 78.1-23.44 116.98-35.65-69.82-6.44-140.34-5.95-210 2.31M206.8 113.77c-2.06 1.3-4.16 2.57-5.83 4.36 15.43.11 30.88-.1 46.3.11 3.25-.43 5.84 2.73 8.99 1.94 10.17-3.03 20.89-3.09 31.4-2.98-6.07-11.79-12.85-23.24-19.38-34.8-21.3 8.76-42.13 18.84-61.48 31.37m590.5 9.61c-.17 6.3-.02 12.62.15 18.92 1.8 2.42 5.53.73 8.12 1.02 2.18-6.3 4.19-12.65 6.04-19.05.34-1.42 1.13-3.57-.74-4.28-3.12-.84-6.46-.58-9.65-.33-2 .1-3.95 1.6-3.91 3.72m-627.14 19.94c-13.91 14.45-25.67 32.24-28.3 52.52 15.33-5.8 30.47-12.1 45.77-18 1.02-.62 2.98-.68 2.84-2.33 1-5.82 1.87-11.67 2.78-17.5-5.7-1.03-10.85-4.98-12.64-10.57-1.74-4.56-.31-9.4.35-14-4 2.81-7.35 6.43-10.8 9.88m26.62-9.45l-1.34 8.44h16.22c-2.63 16.65-5.28 33.3-7.94 49.95 5.6.06 11.23 0 16.84.04 2.7-16.69 5.33-33.38 7.98-50.07 5.4-.05 10.83.06 16.24-.07.39-2.77.83-5.53 1.28-8.28-16.43-.02-32.86 0-49.28 0m69.14.17c-4.68.75-9.77 2.27-12.6 6.38-2.47 4.16-2.47 9.23-3.62 13.83-1.41 9.66-4.42 19.28-3.52 29.12.1 4.27 3.66 7.7 7.75 8.35 10.32 1.83 20.92 1.83 31.33.72 3.99-.37 8.2-1.05 11.44-3.6 2.74-2.04 4.26-5.24 5.1-8.47a278.65 278.65 0 0 0 4.29-17.08c-.96-7.35 3.3-14.69 1.18-22.03-1.47-4.67-6.58-6.59-10.98-7.33-10.03-1.65-20.33-1.27-30.37.11m60.16 5.17c-2.93 3.72-3.83 8.53-4.63 13.08-2.1 13.33-4.36 26.63-6.3 39.98 5.79.01 11.57 0 17.35.02 1.77-10.78 3.43-21.57 5.19-32.35.8-4.9 1.38-9.87 2.94-14.59.77-2.37 3.29-3.66 5.67-3.66 3.7-.2 7.56-.55 11.18.43 3.26 1.32 2.48 5.41 2.24 8.18-1.9 14.02-4.41 27.96-6.5 41.96 5.77-.22 11.85.42 17.43-.3 2.2-13.1 4.3-26.25 6.19-39.4.44-4.35 1.6-9.13-.6-13.2-1.77-3.26-5.52-4.67-8.97-5.3a96.84 96.84 0 0 0-31.05-.1c-3.81.58-7.7 2.14-10.14 5.25m66.6-5.39c-1.41 8.82-3.01 17.63-4.1 26.51a6.2 6.2 0 0 0 3.17 6.64c4.53 2.37 9.83 1.96 14.77 2.51-1.21 7.56-2.36 15.13-3.64 22.7 5.46.12 10.9.01 16.37.06 1.2-7.5 2.44-15.02 3.55-22.54 4.5-.84 9.16-1.08 13.55-2.5 3.07-1.05 5.76-3.59 6.29-6.89a631.67 631.67 0 0 0 5.7-26.52c-5.57.1-11.15.05-16.72.03-1.4 7.9-2.1 15.98-4.68 23.61-2.3 4.62-8.3 3.68-12.56 3.9-2.95-.17-7.86.1-8.28-3.89.47-7.92 1.94-15.76 3.02-23.62H392.7m103.04 0c-3.13 19.47-6.21 38.97-9.31 58.45 5.8-.03 11.63.08 17.44-.06 1.28-8.82 2.79-17.6 4.14-26.4 6.9 0 13.8-.1 20.7.05-1.45 8.78-2.81 17.58-4.21 26.37 5.76-.03 11.53.08 17.3-.07 2.95-19.45 6.17-38.85 9.2-58.27-5.81 0-11.61-.04-17.42.02-1.2 7.87-2.5 15.72-3.72 23.6h-20.64c1.23-7.9 2.5-15.79 3.75-23.68-5.75-.02-11.5 0-17.23-.02m75.73 2.73c-5.2 2.83-6.23 9.12-7.43 14.36a2298.96 2298.96 0 0 0-6.55 41.27c5.83.03 11.65.04 17.48 0 1.2-7.78 2.44-15.54 3.7-23.29 6.84.02 13.69.01 20.54 0-1.2 7.8-2.47 15.57-3.7 23.36 5.83.02 11.66.03 17.5 0 2.16-14.3 4.75-28.55 6.54-42.9.63-4.42.55-9.84-3.4-12.77-4.85-3.46-11.2-2.85-16.84-3.26-9.3.07-19.3-1.24-27.84 3.23m54.22-2.82c3.62 19.55 7.26 39.1 10.89 58.64 4.93.01 9.87.1 14.8-.07 1.69.22 2.63-1.42 3.22-2.7 4.77-9.98 9.45-19.99 14.26-29.95 1.15 2.04 1.28 4.42 1.74 6.67 1.44 7.9 2.9 15.8 4.42 23.68.12 1.1.79 2.56 2.18 2.3 4.99.16 9.98.1 14.98.05 9.35-19.57 18.85-39.07 28.19-58.64-4.98.08-9.97-.1-14.94.11-1.43-.1-2.01 1.5-2.5 2.53-5.18 12.08-10.06 24.3-15.32 36.34-2.3-12.55-3.71-25.25-5.87-37.82l-.77-.99c-4.9-.36-9.85-.04-14.76-.13-1.36-.16-1.92 1.2-2.32 2.21-4.36 10.86-8.9 21.65-13.25 32.51a21.07 21.07 0 0 1-1.96 3.77c-2.2-11.87-3.86-23.84-5.87-35.75-.27-.95-.25-2.3-1.41-2.6-5.23-.35-10.48-.09-15.71-.16m105.72.06c-3.37 19.41-6.2 38.92-9.42 58.36 5.55 0 11.12.25 16.66-.1 1.42-8.45 2.69-16.93 4.06-25.39 4.72.03 9.5-.4 14.19.36a4.95 4.95 0 0 1 4.38 5.4c-.7 6.67-2.1 13.26-2.97 19.92 5.8-.02 11.6 0 17.4 0a2038.2 2038.2 0 0 1 3.32-20.77c.74-3.66-.84-7.7-4.17-9.53-4.42-2.42-9.55-2.89-14.37-4.03 7.93-8.18 16.23-16 24.04-24.3-4.74.04-9.5-.08-14.22.08-1.23-.14-2.2.7-3.01 1.47-7.87 7.58-15.27 15.65-23.26 23.1 1.09-8.2 2.55-16.35 3.79-24.52-5.47-.04-10.95.04-16.42-.05m103.88.25c-5.82.67-12.98 1.3-16.41 6.77-2.16 4.88-3.02 10.3-3.38 15.6-.34 4.02 2.96 7.37 6.7 8.25 7.27 1.92 14.88.98 22.29 1.84 2.92.34 5.46 2.95 5.24 6-.2 2.88-.55 5.88-1.9 8.48-1.27 2.3-4.16 2.57-6.5 2.7-8.47.2-16.96-.06-25.44.14-.48 2.85-.93 5.71-1.32 8.58 12.26-.12 24.57.47 36.78-1 4.95-.5 10.24-2.9 12.2-7.8 1.8-4.87 2.03-10.16 2.93-15.24.76-4.38-2.5-8.62-6.72-9.56-7.35-1.63-15-.77-22.41-1.76-7.36-1.07-6.42-14 .86-14.4 9.1-.65 18.26-.07 27.38-.33.85-2.74.95-5.65 1.5-8.45-10.6.04-21.21-.2-31.8.18m-657.03 72.6c-6.25.94-13.27 3-16.7 8.8a90.63 90.63 0 0 0-7.58 20.21 3919.33 3919.33 0 0 0-13.13 53.4c7.67.15 15.35.03 23.03.06 2.56-10.12 4.8-20.3 7.59-30.37 10.64.13 21.28.11 31.92-.03 7-.13 14.72-2.49 18.74-8.64 5.94-9.33 7.84-20.68 7.63-31.58-.36-6.23-6.3-10.07-11.83-11.34-13.01-2.9-26.57-2.53-39.67-.5m86.69.53c-6.02 1.07-12.4 4.16-14.7 10.21-5.3 10.57-7.55 22.23-10.46 33.6a5020 5020 0 0 0-9.27 38.05c7.7.17 15.43.01 23.15.1a5131.4 5131.4 0 0 0 8.99-36.59c6.86.14 13.92-.77 20.64 1 3.02.66 5.13 3.73 4.3 6.8-1.9 9.64-4.44 19.13-6.72 28.68 7.99.06 15.98.1 23.96-.02 2.5-10.88 5.85-21.59 7.62-32.63.19-5.89-6.43-7.86-10.96-9.27 6.08-1.22 12.74-4.1 15.3-10.19 2.77-7.08 4.35-14.9 3.04-22.49-.86-3.96-4.8-6.18-8.47-6.99-15.22-3.47-31.12-2.89-46.42-.26m98.03-.98c-6.78.94-14.36 2.23-19.08 7.7-3.88 5.6-6.98 11.83-8.62 18.48a540.2 540.2 0 0 0-8.3 34.82c-.51 5.32-2.06 11.46 1.17 16.24 3.6 4.88 10.17 5.6 15.77 6.2a159 159 0 0 0 41.57-1.05 24.4 24.4 0 0 0 18.76-16.05c2.49-7.3 4.47-14.75 6.64-22.15 1.92-11.66 7.18-23.25 4.74-35.25-2.1-6.38-9.55-7.97-15.4-8.79a148.91 148.91 0 0 0-37.25-.15m326.2.77c-6.08 1.16-12.68 3.88-15.55 9.77-2.67 5.7-5.16 11.53-6.68 17.66-4.67 18.18-9.07 36.42-13.48 54.67 8.1-.07 16.22.07 24.34-.08 2.6-11.07 5.4-22.09 8.09-33.15 9.44-.02 18.89.02 28.33 0-2.68 11.03-5.36 22.08-8.15 33.11 8.02.26 16.04 0 24.06.13 4.62-18.37 9.08-36.78 13.54-55.18 1.2-4.73 1.87-9.6 2.03-14.47.1-3.24-1.07-6.58-3.56-8.7-3.26-2.87-7.67-3.79-11.83-4.38a135.45 135.45 0 0 0-41.14.62m250.67.1c-5.51.97-11.47 3.26-14.34 8.4a90.81 90.81 0 0 0-7.52 19.96c-4.6 17.82-8.84 35.74-13.25 53.61 7.72.08 15.45.01 23.18.04 3-12.09 5.9-24.2 8.95-36.29 5.69-.7 11.82-.37 17.64.12 3.49.27 8.12 2.2 7.5 6.5-1.72 10-4.72 19.75-6.74 29.7 7.9-.03 15.8-.03 23.7 0a793.3 793.3 0 0 0 6.9-27.68c.55-2.77 1.64-5.89-.01-8.5-2.21-3.6-6.6-4.6-10.33-5.82 6.17-1.1 12.9-4.05 15.54-10.16 2.69-6.82 4.16-14.29 3.2-21.62-.4-4.12-4.21-6.82-7.95-7.72-15.21-3.65-31.14-3.08-46.47-.55m-452.58 7.27c-5.7 7.02-8.58 16.14-8.73 25.13-.21 4.72 3.2 8.93 7.64 10.26 10.12 3.23 20.93 1.54 31.3 2.95 3.03.36 6.44 2.36 6.32 5.82a40.2 40.2 0 0 1-2.84 13.51c-1.74 4.08-6.66 4.73-10.56 4.84-11.55.13-23.1.07-34.64.04-1.04 4.1-2.03 8.2-3.05 12.3a946.3 946.3 0 0 0 42.62-.66c6.46-.3 13.34-.59 19.02-4.06 4.19-2.52 6.76-6.88 8.73-11.22 3.23-7.08 5.06-14.92 4.72-22.72-.46-5.54-6.04-8.57-10.96-9.45-9.1-1.62-18.38-1-27.54-1.83-2.76-.25-6.1-1.79-6.3-4.92-.34-4.05.29-8.3 2.2-11.9 1.77-3.23 5.8-3.77 9.13-3.93 11.84-.23 23.7.05 35.55-.18.89-4.09 1.96-8.13 2.93-12.2-15.5-.1-31.02.05-46.5.87-6.85.38-14.4 1.83-19.04 7.35m72.52 74.75c7.58.03 15.17.1 22.75 0 3.52-11.99 6.09-24.38 9.2-36.53 5.55-.1 11.14-.26 16.68.23 2.68.34 5.74.78 7.57 3 1.49 1.91.85 4.47.42 6.64-2 8.88-4.15 17.72-6.36 26.55 7.95.24 15.9.03 23.87.11 2.67-10.9 5.88-21.7 7.82-32.79.77-3.83-1.18-7.75-4.33-9.89-5.87-4.19-13.33-4.58-20.24-5.44 11.9-11.85 24.6-22.9 36.55-34.73-5.78-.27-11.55 0-17.33-.16-1.82.07-3.93-.28-5.4 1.06-12.27 11.23-23.97 23.12-36.5 34.08 2.53-11.72 5.7-23.29 8.43-34.96-7.6.02-15.2-.03-22.78.03-6.8 27.6-13.54 55.21-20.35 82.8m202.65-82.8c-.98 3.94-1.92 7.9-2.94 11.83 7.48.15 14.97.03 22.47.07-5.77 23.64-11.6 47.26-17.41 70.9 7.77.03 15.54.02 23.3 0 5.77-23.63 11.63-47.24 17.38-70.87 7.43-.15 14.86-.07 22.3-.05 1.07-3.94 1.98-7.92 2.96-11.88h-68.06m79.14 8.27c-6.43 7.61-7.7 17.8-10.45 27.04-3.15 12.76-7.41 25.63-6.37 38.95.13 2.64 1.52 5.3 3.99 6.45 4.54 2.18 9.76 2.18 14.7 2.21 14.19-.04 28.39.08 42.58-.06 1.04-4.07 2.02-8.15 3.02-12.22-11.2-.07-22.4.13-33.57-.16-2.87-.07-6.64-1-7.22-4.32-1.17-7.2 1.8-14.14 3.25-21.09h31.7c.92-3.8 1.86-7.6 2.79-11.39-10.54.02-21.07-.05-31.6.04 1.37-6.19 2.5-12.86 6.8-17.79 2.24-2.65 5.78-3.76 9.16-3.82 11.07-.26 22.14-.22 33.2-.25 1.03-4 1.99-8.02 2.98-12.03-16.4 0-32.8.16-49.2.42a19.64 19.64 0 0 0-15.76 8.02m-418.41 50.27c-2.3 7.21-3.85 14.84-8.06 21.28a39.99 39.99 0 0 1-27.66 18.21 174.5 174.5 0 0 1-50.05.44c-6.77-.93-13.5-3.42-18.53-8.15-2.98 4.6-7.88 8.24-13.55 8.23-8.61.03-17.22.13-25.81-.06-5.01-.17-9.05-3.45-12.1-7.1l-1.5 1.27a15.44 15.44 0 0 1-12.48 5.94c-8.04-.02-16.08.12-24.11-.08-7.84-.4-14.5-7.6-14.42-15.44.26-5.9 2.3-11.54 3.57-17.27-11.3 3.46-23.2 2.18-34.83 2.47l-.95 3.81c21.18 17.97 45.7 31.54 70.94 42.9 40.13 17.86 82.58 30.06 125.56 38.78a880.03 880.03 0 0 0 143.28 16.43c-32.78-37.39-65.7-74.66-98.56-111.98l-.74.32m308.2 40.01c-8.7.1-17.38.06-26.06.01-5.6-.14-10.6-3.72-13.31-8.49-3 4.68-7.9 8.47-13.66 8.48-8.33.08-16.66.03-25 .01-3.54.11-6.76-1.45-9.73-3.2-3.03 2.01-6.53 3.38-10.21 3.23-8.32-.07-16.64.16-24.94-.12-5.03-.23-8.94-3.63-12.05-7.24-3.2 4-7.64 7.34-12.98 7.35-8.32.06-16.66.13-25-.05-5.58-.27-10.17-4.1-12.98-8.7-10.65 7.92-24.4 8.18-37.11 8.47 23.39 23.58 47.02 46.93 70.43 70.5 1 .94 2 2.4 3.63 2.11 45.85-.98 91.68-4.99 136.9-12.7 63.06-10.96 125.77-28.5 182.04-59.62-2-.93-3.96-1.89-5.92-2.84-3.02 1.82-6.43 3.05-10 2.96-11.01.11-22.03.01-33.05.05-10.51-.1-21.77.95-31.38-4.23-3.04-1.43-5.08-4.14-7.6-6.22-3.56-.25-7.13-.07-10.68-.02-2.2 5.88-7.97 10.22-14.28 10.33-8.05.07-16.1.04-24.14.01a15.45 15.45 0 0 1-13.76-8.77c-.61-2.5-3.52-1.45-5.34-1.74-2.31 5.64-7.6 10.13-13.82 10.43z"/><path d="M274.53 141.62c4.24-.7 8.8-.94 12.89.63 3.23 1.18 3.92 5.04 3.45 8.06-1.4 9.4-2.47 18.9-5.03 28.07a8.43 8.43 0 0 1-7.58 6.47c-3.96.34-8.06.34-11.92-.67-3.88-1.53-3.46-6.36-3.3-9.76.95-8.1 2.33-16.18 3.75-24.22.6-4.08 3.44-7.97 7.74-8.58zM583.35 144.5c2.1-3.2 6.59-3.22 10.04-3.4 3.18.16 8.05.27 8.89 4.18-.24 5.03-1.4 9.96-2.12 14.93-6.83 0-13.65.02-20.46 0 1.22-5.24 2.06-10.57 3.65-15.7zM181.62 222.42c1.54-3.83 5.89-5.23 9.67-5.49 4.32-.26 8.8-.53 13 .7 2.13.56 4.03 2.47 3.78 4.8a79.79 79.79 0 0 1-4.34 18.53c-1.77 4.42-7.02 5.75-11.32 5.85-6.18.06-12.36.1-18.53-.06 2.48-8.14 4.58-16.42 7.74-24.33zM372.03 217.21c5.4-.67 11.19-1.05 16.39.93 3.3 1.2 4.99 4.85 4.52 8.22-.91 7.85-3.83 15.3-5.02 23.08-1.6 6.01-3.46 11.95-5.12 17.94-1.28 5.47-5.97 9.83-11.41 11.03-4.87 1.12-10 .84-14.86-.19-2.83-.62-6.1-2.5-6.13-5.76-.05-4.89.54-9.77 1.68-14.5a843.04 843.04 0 0 1 6.57-26.68c.98-3.29 2.15-6.65 4.29-9.39 2.28-2.67 5.7-4.06 9.09-4.68zM695.26 222.4c1.26-3.77 5.46-5.16 9.06-5.45 4.54-.25 9.3-.65 13.67.91a5.04 5.04 0 0 1 3.3 5.53c-.77 6.85-2.53 13.55-4.02 20.27-9.67.1-19.35.03-29.02.03 2.28-7.1 4.28-14.33 7-21.3zM271.25 222.4c1.53-3.6 5.57-5.14 9.2-5.42 4.35-.33 8.76-.24 13.05.51 1.9.42 3.66 1.91 3.93 3.91 1.02 5.12-.51 10.36-2.54 15.04-1.64 3.53-5.83 4.8-9.44 4.94-6.86.27-13.72.07-20.58.08 2.05-6.38 3.74-12.9 6.38-19.06zM945.5 222.47c1.74-4.24 6.76-5.5 10.93-5.6 4.18 0 8.55-.29 12.57 1.05 3.5 1.62 3.15 6.2 2.87 9.42-1 5.21-2.31 12.23-8.48 13.5-8.01 1.31-16.2.41-24.27.61 2.07-6.34 3.8-12.82 6.38-18.98z"/></g><g fill="#c95d10" stroke="#c95d10" stroke-width=".09"><path d="M445.43 39.32c69.66-8.26 140.18-8.75 210-2.3-38.88 12.2-78 23.7-116.98 35.64L380.29 120.6c-2.85 1.03-5.47-1.35-8.27-1.66-14.72-2.8-30.16-2.7-44.74.91-1.34-.19-2.21-1.38-3.26-2.1-15.01-12.39-30.11-24.68-45.16-37.04-.6-.58-1.16-1.19-1.67-1.84 54.03-20.53 110.95-32.63 168.24-39.55zM673.3 43.04c3.33-.92 6.56-2.27 9.99-2.74 5.39.4 10.7 1.45 16.09 2.03-15.03 24.7-30.21 49.3-45.16 74.03a19.48 19.48 0 0 1-3.7 4.54c-2.9-2.17-6.52-3.03-10.1-3-7.66.1-15.5-.85-22.9 1.57-9.54-2.24-19.4-2.14-29.14-2.14-8.82-.03-17.84 1.48-25.61 5.83a17.93 17.93 0 0 0-14.33-5.14c-8.4.56-17.82-1.85-25.11 3.57-6.9-5.29-15.86-3.18-23.87-3.6-5.53-.42-11.6.76-15.35 5.15-4.01 4.08-4.2 10.08-5.1 15.38-2.67 16.94-5.4 33.87-8.07 50.82-1.07 5.23.92 10.51 4.42 14.4-8.36 10.57-13.03 24.12-12.52 37.63.34 7.82 4.63 14.95 10.72 19.7a78.78 78.78 0 0 0-6.35 2.3c-11.88-11.73-23.61-23.6-35.45-35.35.48-7.69.64-15.83-3.22-22.77 2.36-2.25 4.74-4.72 5.65-7.94 1.27-4.47 1.58-9.14 2.42-13.69 6.7-1.56 13.36-4.82 17.38-10.62 3.75-4.9 4.45-11.2 5.85-17.04 1.37-6.47 2.88-12.9 4.12-19.4 1.46-7.26-3.03-15-9.93-17.5-6.37-1.92-13.14-.64-19.7-1.03a18.67 18.67 0 0 0-14.04 4.57c-1-.85-1.97-1.68-2.94-2.53C502.68 94.44 587.98 68.7 673.3 43.04zM206.8 113.77c19.36-12.53 40.2-22.6 61.49-31.37 6.53 11.56 13.3 23.01 19.39 34.8-10.52-.1-21.24-.05-31.41 2.98-3.15.8-5.74-2.37-8.98-1.94-15.43-.22-30.88 0-46.31-.1 1.67-1.8 3.77-3.08 5.83-4.37zM170.18 143.32c3.45-3.45 6.8-7.07 10.8-9.89-.66 4.61-2.1 9.45-.35 14.01 1.79 5.6 6.95 9.54 12.64 10.56-.91 5.84-1.77 11.7-2.78 17.51.14 1.65-1.82 1.71-2.84 2.32-15.3 5.9-30.44 12.2-45.77 18.01 2.63-20.28 14.39-38.07 28.3-52.52zM423.18 264.82l.74-.32c32.86 37.32 65.78 74.6 98.56 111.98-48.1-1.59-96.1-7-143.28-16.43-42.98-8.72-85.43-20.92-125.56-38.78-25.24-11.36-49.76-24.93-70.94-42.9l.95-3.8c11.64-.3 23.53.98 34.83-2.48-1.27 5.73-3.31 11.36-3.57 17.27-.07 7.83 6.58 15.03 14.42 15.44 8.03.2 16.07.06 24.1.08 4.79.08 9.6-2.09 12.5-5.94l1.49-1.28c3.05 3.66 7.09 6.94 12.1 7.11 8.59.2 17.2.1 25.8.06 5.68.01 10.58-3.63 13.56-8.23 5.04 4.73 11.76 7.22 18.53 8.15a174.5 174.5 0 0 0 50.05-.44 39.99 39.99 0 0 0 27.66-18.2c4.2-6.45 5.76-14.08 8.06-21.29z"/></g><g fill="#b61c18" stroke="#b61c18" stroke-width=".09"><path d="M699.38 42.33c35.86 5.2 71.42 12.71 106.14 23.14 34.99 10.55 69.2 24.18 100.84 42.6-.13 5.37-6.3 7.67-7.2 12.82-.9 5.53.48 11.21 2.08 16.5 1.23 4.67 5.4 7.65 7.1 12.08 1.38 2.93 2.06 6.32 4.33 8.75 3.03 2.2 7.06 2.54 9.93 5.03 3.49 2.75 6.27 6.78 10.65 8.15 8.8.05 17.69-2.96 24.48-8.63 2.5-1.96 2.34-5.56 4.26-7.97 8.08 10.47 14.53 22.4 17.42 35.38-14.58-1.8-29.42-1.1-43.84 1.58a43.11 43.11 0 0 0-15.2 6.25c-3.03-4.24-7.64-7.63-13.02-7.7-9.8-.23-19.58.07-29.37.07 2.55-6.67 3.29-13.83 4.24-20.86.76-5.95-1.26-11.8-4.4-16.79 3.9-4.92 4.06-11.42 4.96-17.37a15.8 15.8 0 0 0-8.61-15.66c-4.22-2.23-9.14-1.62-13.73-1.69-10.93.13-21.9-.48-32.77.9-.94-4.57-3.33-8.9-7.23-11.57-6.22-4.44-14.36-3.97-21.6-3.32-7.8.85-14.17 6.68-16.75 13.94-8 .01-16.8-1.2-23.66 3.9-6.25-5.17-14.61-3.63-22.07-3.85-3.65-.19-7.27.5-10.9.5-7.03-.93-14.13-.6-21.18-.46-4.4.07-8.22 2.43-11.51 5.11-3.2-2.77-7.04-5-11.35-5.17-5.34-.13-10.7-.04-16.02 0-4.55.02-8.6 2.34-12.01 5.16-.97-.76-1.9-1.53-2.87-2.25a19.48 19.48 0 0 0 3.7-4.54c14.95-24.74 30.13-49.34 45.16-74.03zM731.38 304.83c6.23-.3 11.5-4.79 13.82-10.43 1.82.3 4.73-.76 5.34 1.74a15.45 15.45 0 0 0 13.76 8.77c8.04.03 16.09.06 24.14 0 6.3-.12 12.09-4.46 14.28-10.34 3.55-.05 7.12-.23 10.68.02 2.52 2.08 4.56 4.8 7.6 6.22 9.6 5.18 20.87 4.13 31.38 4.23 11.02-.04 22.04.06 33.06-.05 3.56.1 6.97-1.14 9.99-2.96 1.96.95 3.93 1.91 5.92 2.84-56.27 31.12-118.98 48.66-182.03 59.61-45.23 7.72-91.06 11.73-136.91 12.71-1.63.28-2.62-1.17-3.63-2.1-23.41-23.58-47.04-46.93-70.43-70.5 12.7-.3 26.46-.56 37.1-8.49 2.82 4.6 7.4 8.44 13 8.71 8.33.18 16.67.11 24.99.05 5.34 0 9.79-3.36 12.98-7.35 3.1 3.61 7.02 7.01 12.05 7.24 8.3.28 16.62.05 24.94.12 3.68.15 7.18-1.22 10.2-3.23 2.98 1.75 6.2 3.31 9.75 3.2 8.33.02 16.66.07 24.99 0 5.77-.02 10.66-3.8 13.66-8.49 2.7 4.77 7.7 8.35 13.3 8.5 8.69.04 17.38.08 26.07-.02z"/></g><g fill="#656d6f" stroke="#656d6f" stroke-width=".09"><path d="M57.5 260.27c12.93-1.15 25.98.5 38.89-.85 6.93.93 13.97.41 20.94.43 4.79-1.22 9.55.5 14.38.01-1.67 8.91-4.46 17.57-6.16 26.47a15.78 15.78 0 0 0 7.5 16.36c4.6 2.86 10.25 2 15.4 2.13 6.3-.2 12.66.45 18.94-.42 5.84-1.1 9.98-6.04 11.92-11.42 30.19 23.67 65.15 40.44 101 53.64 37.92 13.85 77.23 23.62 116.94 30.64 45.5 7.97 91.62 12.27 137.79 13.47a1302.5 1302.5 0 0 1 16.65 18.94c-5.07-.4-10.16.15-15.21-.45-5.65-.99-11.41-.07-17.11-.4-63.83-2.66-127.53-9.6-190.23-21.98-41.57-8.3-82.75-18.93-122.65-33.33-34.77-12.66-68.9-27.89-99.63-48.69-10.53-6.94-20.23-15-29.71-23.28-7.51-6.13-13.32-13.99-19.64-21.27zM860.52 339.45c12.95-5.15 25.39-11.44 37.94-17.43-.82 3.6-.03 7.26.34 10.86l2.64.95c-1 4.16-2.65 8.51-1.26 12.78 1.17 2.06 3 3.63 4.6 5.36 4.22 4 6.09 9.64 9.4 14.28-22.57 6.98-45.6 12.45-68.7 17.45-44.26 9.4-89.11 15.88-134.15 20.13-32.66 2.96-65.44 5.14-98.22 5.51a734.26 734.26 0 0 0-18.74-18.7c55.78-2.14 111.54-8.22 166.07-20.42 34.09-7.62 67.74-17.52 100.08-30.77z"/></g></svg>