<svg xmlns="http://www.w3.org/2000/svg" viewBox="0 0 500 381"><path fill="#020000" d="M256 24c5 2 9 0 14-2 4 1 8 2 12 1 2 3 6 6 10 4l4 7-4 1c3 3 7 5 7 10l-4 1c2 2 5 2 7 3l4 4 3-4c6 8 17 11 25 7 4-2 9 1 14-1 2-1 7-3 7 0 1 2 1 6 4 5 8-1 15-5 23-4l-19 5a305 305 0 0 1-7 0c-3-2-5-6-9-3-5 2-11-1-17 1-3 1-7-1-10 1-2 2-3-1-5-1l-5 3c-5-2-10-2-14-6 2 0 4-2 2-3-1-2-3-2-5-1-4-3-1-10-6-12-3-1-4-5-6-8h-10c0-1-3-4-3-2 1 3-2 2-3 2-10-2-19 3-29 4-5 2-10 2-16 3-4 0-12-3-15 2-2 3-6 3-4 8 0 3 1 7-5 4-2 2-5 5-4 8 3 8-5 13-8 20-2 2-2 5-3 7-5 3-9 8-15 10-2 0-1 2-1 4 2-1 4-1 5 1-5 8 3 17 4 25l-5 16-8 2-4 5c1 4 2 9 6 11v2c-7-4-5 2-4 5 2 3-3 4-3 7s-4 4-2 7l-2 5c-7 1-7 10-4 15v23c-2 5-4 12-1 17 7 3 15 1 22 4l7 13 2 12-3-1v3l-3-3 1-5c-2-3-6-4-7-7 0-3-3-5-4-8l-3-3c-7 0-13-5-20-3-3 0-7 2-9 0 6 1 10-5 7-10v-8c1 1 1 3 3 3 3-1 6-4 6-7 1-6 3-13-1-19-3-5 1-11 0-16l-4-4c1-2 4-3 6-3 0-4-1-7 1-10 3 2 8 0 7-4l-9-3-4-10c2 0 9 0 7-4-1-2 1-4 3-5 8-2 16-7 18-15 2-6-4-11-4-17-5-5-12-6-17-11-1-2-2-6 0-7 6-2 13 0 19-1 1-6 4-11 7-16l2-18 8-4c2-4 6-6 10-9 4-7 9-15 18-17 5 3 11 3 16 0h5c4-2 8-2 12-1l10-5Z" opacity=".1"/><path fill="#2d1f0d" d="M453 33c7-2 14-6 22-6 2 0 3 4 1 5 1-6-6-3-9-1l-9 2h-5Z" opacity=".5"/><path fill="#040000" d="M268 30c0-2 3 1 3 2h10c2 3 3 7 6 8 5 2 2 9 6 12 2-1 4-1 5 1 2 1 0 3-2 3 4 4 9 4 14 6l5-3c2 0 3 3 5 1 3-2 7 0 10-1 6-2 12 1 17-1 4-3 6 1 9 3-3 0-5-2-7-3-4 3-9 4-14 4-7-1-13 0-20 1-7 2-14-1-21-1-3-2-9-5-7-10 0-3-5-3-4-6 2-5-5-7-10-6 0-6-7-6-12-6-4 6-11 5-18 5-5 5-11 3-18 3-1 2-3 5-6 5l-6-3-6 4c-1 6-7 11-6 18-3 0-4 3-5 6l-8 8c0 5-2 8-5 12-3 2-7 3-10 6-2 4-1 8-2 12l6 18c-1 5-6 10-5 16 0 2-3 3-2 6l-2 10 1 10h-7c0 3-1 5-3 7 0 2 2 2 3 3 0 3-2 5-3 7l-7 1 2-5c-2-3 2-4 2-7s5-4 3-7c-1-3-3-9 4-5v-2c-4-2-5-7-6-11l4-5 8-2 5-16c-1-8-9-17-4-25-1-2-3-2-5-1 0-2-1-4 1-4 6-2 10-7 15-10 1-2 1-5 3-7 3-7 11-12 8-20-1-3 2-6 4-8 6 3 5-1 5-4-2-5 2-5 4-8 3-5 11-2 15-2 6-1 11-1 16-3 10-1 19-6 29-4 1 0 4 1 3-2Z" opacity=".1"/><path fill="#907d2f" d="M467 31c3-2 10-5 9 1l-2 2h-2l2-4-7 1Z" opacity=".9"/><path fill="#d9ca85" d="m467 31 7-1-2 4-11 4c-13 2-25 10-38 11-7 2-14 2-20 5-2 1-5 1-5 3h-2l-7-2 10-4 9-3 12-2c6-1 12-3 17-6l7-2 12-4 2-1 9-2Z"/><path fill="#5f451b" d="m451 34 2-1h5l-2 1h-5Z" opacity=".8"/><path fill="#080100" d="M261 34c5 0 12 0 12 6 5-1 12 1 10 6-1 3 4 3 4 6-2 5 4 8 7 10 7 0 14 3 21 1 7-1 13-2 20-1 5 0 10-1 14-4 2 1 4 3 7 3h4l-4 1c-9-1-17 2-26 2-3-2-5 0-8 1-7-2-15 0-23 1-3-1-8 0-9-4-1-2-4 0-6 0-1-3-2-6 0-8-2-3-5-6-6-10-2-3-6 1-8-1-4-5-11-3-16 0-9-2-18 4-27 4-3-1-5 3-8 3-2-2-6-2-8 0 0 4 6 4 6 8-3 1-7 1-6 5l-2 5c-3 1-8 0-9 4-2 4-7 5-9 9-1 9-9 15-16 19-1 7 1 14 3 20 1 2 0 5 2 7v3c-6 6-3 15-8 21-2 6-2 13-1 19-3 3-8 5-8 10l2 6-5 2-1-1c1-2 3-4 3-7-1-1-3-1-3-3 2-2 3-4 3-7h7l-1-10 2-10c-1-3 2-4 2-6-1-6 4-11 5-16l-6-18c1-4 0-8 2-12 3-3 7-4 10-6 3-4 5-7 5-12l8-8c1-3 2-6 5-6-1-7 5-12 6-18l6-4 6 3c3 0 5-3 6-5 7 0 13 2 18-3 7 0 14 1 18-5Z" opacity=".2"/><path fill="#8c741f" d="m444 37 7-3h5l-12 4v-1Z" opacity=".9"/><path fill="#453517" d="m461 38 11-4h2c-4 3-9 4-13 5v-1Z" opacity=".7"/><path fill="#725b1e" d="m437 39 7-2v1l-7 2v-1Z" opacity=".8"/><path fill="#5b4621" d="M423 49c13-1 25-9 38-11v1c-12 2-22 8-34 11h-4v-1Z" opacity=".8"/><path fill="#5b4318" d="m433 40 4-1v1c-5 3-11 5-17 6h-9c7-1 14-1 20-5l2-1Z" opacity=".8"/><g fill="#0b0200"><path d="M254 43c5-3 12-5 16 0 2 2 6-2 8 1 1 4 4 7 6 10-2 2-1 5 0 8h-5c1-2 3-3 2-5-3-3-9-5-7-11l-6 1-1-4c-2 1-6-1-8 1s-6 1-7 5c-3 2-5-1-8-1-2-1-3 3-5 4-2-1-5-1-4-4 2 0 2-1 1-2l-10 5c-3 3-10 1-7 8 0 3-4 5-6 7-2 0 1 3-2 3l-2-1 2-5c-1-4 3-4 6-5 0-4-6-4-6-8 2-2 6-2 8 0 3 0 5-4 8-3 9 0 18-6 27-4ZM284 62c2 0 5-2 6 0 1 4 6 3 9 4v1h-1c-3 1-5-2-8-1-3 2-4-2-6-4Z" opacity=".2"/></g><path fill="#130c06" d="M414 44c6 1 11-2 17-3-6 4-13 4-20 5h-3c2-2 4-2 6-2Z" opacity=".4"/><path fill="#120401" d="M259 44c2-2 6 0 8-1l1 4 6-1c-2 6 4 8 7 11 1 2-1 3-2 5h5c2 2 3 6 6 4 3-1 5 2 8 1-2 3-5 3-8 2h-1l-11-4c-1-4-1-9-5-12-1-6-11-3-13-9h-1Z" opacity=".3"/><path fill="#170502" d="M252 49c1-4 5-3 7-5h1c2 6 12 3 13 9h-2l-5-2-4 2 1-4c-3 1-5 4-7 7-2 2-6 0-4-3-5-1-6 6-11 5-1-2-1-4-4-5 3 0 6-2 8 0 3-1 6-1 7-4Z" opacity=".3"/><path fill="#110301" d="m226 51 10-5c1 1 1 2-1 2-1 3 2 3 4 4 2-1 3-5 5-4 3 0 5 3 8 1-1 3-4 3-7 4-2-2-5 0-8 0l-10 2c-1 3 1 4 2 6-3 1-6 1-7 4l-2 1h-7c2-2 6-4 6-7-3-7 4-5 7-8Z" opacity=".3"/><path fill="#443318" d="m398 51 10-5h1l-1 2-9 3h-1Z" opacity=".7"/><path fill="#a78b35" d="M409 46h11l-12 2 1-2Z"/><path fill="#200805" d="M256 56c2-3 4-6 7-7l-1 4 4-2 5 2c-3 0-6 1-6 5l-2 4-2-1c3-3-2-5-5-5Z" opacity=".4"/><path fill="#81642e" d="M403 54c6-3 13-3 20-5v1c-3 1-7 1-9 3l-3 1h-8Z" opacity=".9"/><path fill="#281b0d" d="M414 53c2-2 6-2 9-3h4c-4 2-8 3-13 3Z" opacity=".5"/><path fill="#62492c" d="m386 55 12-4h1l-10 4h-3Z" opacity=".8"/><path fill="#1d0704" d="m227 55 10-2c3 1 3 3 4 5-4 0-9-4-10 1-1 4-5 7-9 6 1-3 4-3 7-4-1-2-3-3-2-6Z" opacity=".4"/><path fill="#1f0704" d="M241 58c5 1 6-6 11-5-2 3 2 5 4 3 1 3-1 3-4 3l1 6c-1 2-3 2-5 1l-7-8Z" opacity=".4"/><path fill="#39150c" d="M265 58c0-4 3-5 6-5v6l-6-1Z" opacity=".6"/><path fill="#1f0905" d="M271 53h2c4 3 4 8 5 12l11 4c-1 3-5 1-7 2l-1-4c-3 0-7 2-10 0v-1l-1-4 4-1-3-7v-1Z" opacity=".4"/><path fill="#2b0d08" d="m271 54 3 7-4 1 1 4c-1 0-3 0-2-1 1-3-3-3-5-3h-1l2-4 6 1v-5Z" opacity=".5"/><path fill="#493117" d="M398 57c0-2 3-2 5-3h5l-10 3Z" opacity=".7"/><path fill="#070201" d="M408 54h3l-7 7c-3 0-5-2-8 0-3 4-9 1-13 2l-14 8-21 6c-9 2-17 10-27 7-1 3-2 6-5 7-5 4-8 11-13 16-4 3-1 9 0 13-1 1-4 1-4 3l5 5c-2 6-3 12-9 14 4 8-1 16 1 25l1 20 4 2h-7c-2-3-4-6-4-9 3-10 1-21 2-31-2-9 2-19-1-29-1-4 9-1 5-8 3-10 11-18 19-25l-1-4 1-1c7 1 14-2 20-5l-1-2 8-2 10-3 9-3c6 0 10-4 16-5l15-4 4-1h2l10-3Z" opacity=".1"/><path fill="#c29745" d="m382 56 4-1h3l7 2-8 1c-10 1-19 4-27 9l-9 2-8 2v-1l3-2 8-4c3-1 6-1 8-3l19-5Z"/><path fill="#2f0c09" d="M231 59c1-5 6-1 10-1l7 8c-3-1-6 1-9-1 1-2 1-6-2-5-4 1-2 5-1 7 1 1 3 1 3 3-2 1-4 3-3 6 1 2-2 1-3 1 1 2 0 6-2 6l-3-4c2-2 5-4 4-7-4-3-7 4-11 5l1-7 13-1c1-4-3-2-5-2 2-2 2-5 1-8Z" opacity=".5"/><path fill="#2b0d08" d="M256 56c3 0 8 2 5 5-1 0-3-2-4 0 0 2-3 3-4 4l-1-6c3 0 5 0 4-3Z" opacity=".5"/><path fill="#5a4225" d="m388 58 8-1-4 1h-4Z" opacity=".8"/><path fill="#402a17" d="M361 67c8-5 17-8 27-9h4l-15 4c-6 1-10 5-16 5Z" opacity=".7"/><path fill="#250806" d="M222 65c4 1 8-2 9-6 1 3 1 6-1 8 2 0 6-2 5 2l-13 1-1 7c4-1 7-8 11-5 1 3-2 5-4 7l3 4c-2-1-3-1-4 1l-6-4c-3-1-4-5-7-5l-1 9 6-1c3 0 5 7 1 6l-6-2c-2 1-4 3-7 3 0-3-1-8-5-7 0 2-1 5-4 3-5 8-11 14-15 22v-4l13-19c1-4 4-3 6-6 3-3 6 1 9 2 1-4 3-9 7-11l2-4 2-1Z" opacity=".4"/><path fill="#3d140d" d="M237 60c3-1 3 3 2 5 3 2 6 0 9 1 2 1 4 1 5-1 1-1 4-2 4-4 1-2 3 0 4 0l2 1h1l-2 6c3-1 7-6 4 3l-1 1-4 1c-4-3-9-1-14 0 0-3-2-6-5-5-4 3 2 8 0 11l-3-2c-1-3 2-5 0-7 0-2-2-2-3-3-1-2-3-6 1-7Z" opacity=".6"/><path fill="#422614" d="M360 61h3c-2 2-5 2-8 3-3-1-6 1-9 2l3-3a45 45 0 0 0 11-2Z" opacity=".7"/><path fill="#4e1c12" d="M264 62c2 0 6 0 5 3-1 1 1 1 2 1v1c-3 1-2 4 1 4 0 2 2 4 1 5l-3-1-5-3 1-1c3-9-1-4-4-3l2-6Z" opacity=".7"/><path fill="#180903" d="M330 64c9 0 17-3 26-2l-7 1c-6 1-12 3-19 3v-2Z" opacity=".4"/><path fill="#1b0703" d="M322 65c3-1 5-3 8-1-4 1-7 4-11 3l3-2Z" opacity=".4"/><path fill="#37140c" d="M330 66c7 0 13-2 19-3l-3 3c-5 0-10 0-15 2-2-3-6 1-9 0-3 1-7 0-8 3l-6 1c1-2 4-2 6-4l5-1c4 1 7-2 11-3v2Z" opacity=".6"/><path fill="#0e0201" d="M299 66c8-1 16-3 23-1l-3 2-5 1c-5-3-10 2-15-1v-1Z" opacity=".3"/><path fill="#5e3119" d="M346 66c3-1 6-3 9-2l-8 4h-16c5-2 10-2 15-2Z" opacity=".8"/><path fill="#1a0404" d="M211 69c3 0 0-3 2-3h7l-2 4c-4 2-6 7-7 11-3-1-6-5-9-2-2 3-5 2-6 6l-13 19v5c-3 4-1 7 2 10-4 2-2 8-4 11h-1v-3c4-8-5-17-2-26 5-4 12-8 14-14 2-4 5-8 9-9 3-3 6-7 10-9Z" opacity=".3"/><path fill="#3e140e" d="M271 67c3 2 7 0 10 0l1 4c2-1 6 1 7-2h1c2 4 6 1 9 0 2 2 5 3 8 3v1h-9c-3-1-6-1-8 2l-1 1-10-1c0-3-3-3-5-2l1-4-3 2c-3 0-4-3-1-4Z" opacity=".6"/><path fill="#220805" d="M298 67h1c5 3 10-2 15 1-2 2-5 2-6 4h-1c-3 0-6-1-8-3-3 1-7 4-9 0 3 1 6 1 8-2Z" opacity=".4"/><path fill="#6b2e1a" d="M322 68c3 1 7-3 9 0-2 2-5 2-8 1-2 3-6 0-9 2 1-3 5-2 8-3Z" opacity=".8"/><path fill="#9f4e1f" d="M331 68h11l-5 2-7 1-3 1c-8 0-16 3-24 4l1 3-5-1 9-5 6-2c3-2 7 1 9-2 3 1 6 1 8-1Z" opacity=".9"/><path fill="#a87136" d="M342 68h5l-3 2h-7l5-2Z"/><path fill="#422611" d="m352 69 9-2-9 3v-1Z" opacity=".6"/><path fill="#120202" d="m209 68 2 1c-4 2-7 6-10 9-4 1-7 5-9 9-2 6-9 10-14 14-3 9 6 18 2 26-2-2-1-5-2-7-2-6-4-13-3-20 7-4 15-10 16-19 2-4 7-5 9-9 1-4 6-3 9-4Z" opacity=".2"/><path fill="#340e0a" d="M242 68c3-1 5 2 5 5v2l-3-1c0 2 3 4 1 6-1 2-2 0-3-1 2-3-4-8 0-11Z" opacity=".5"/><path fill="#642117" d="m272 71 3-2-1 4c2-1 5-1 5 2l-1 1 10 2c1 1 1 1-1 1h-1c-2 0-4-1-5 2-2 3-7 3-10 3 0-3 5-2 4-6 2-1-1-1-2-2 1-1-1-3-1-5Z" opacity=".7"/><path fill="#785021" d="m344 71 8-2v1l-10 3h-2l4-2Z" opacity=".8"/><path fill="#531b13" d="M236 76c-1-3 1-5 3-6 2 2-1 4 0 7l3 2c1 1 2 3 3 1 2-2-1-4-1-6l3 1c1 2 2 4 4 4l3 1 1 3-3-1c-3-1-4 2-6 3l-5-1-3-1c-2-1-2 1-2 3l-1 3c-3 0-7-3-9 0l1-5c1-2 2-2 4-1 2 0 3-4 2-6 1 0 4 1 3-1Z" opacity=".7"/><path fill="#c78132" d="m330 71 7-1h1c-2 2-5 1-8 1Z"/><path fill="#ddba42" d="M338 70h6v1l-4 2-7 2-4 1c-4 0-7 3-11 3l-8 3h-3l10-5h-7c5-3 12-2 17-5l3-1c3 0 6 1 8-1Z"/><path fill="#5f2116" d="M247 73c5-1 10-3 14 0l4-1 5 3-1 4c-3-1-9-6-10-1l-1 1-4 1c0-1 0-3 2-3s3-2 3-4l-3 1h-6c0 2 2 3 1 5-2 0-3-2-4-4v-2Z" opacity=".7"/><path fill="#5c2316" d="m308 72 6-1-6 2h-1v-1h1Z" opacity=".7"/><path fill="#5d1c15" d="M290 75c2-3 5-3 8-2v2h-8Z" opacity=".7"/><path fill="#d07e1c" d="M303 76c8-1 16-4 24-4-5 3-12 2-17 5l-6 2-1-3Z"/><path fill="#7c301c" d="M250 74h6l3-1c0 2-1 4-3 4s-2 2-2 3l-3-1c1-2-1-3-1-5Z" opacity=".8"/><path fill="#88311d" d="M298 73h10l-9 5h-9l1 4-1 1-3-4c2 0 2 0 1-1l1-2 1-1h8v-2Z" opacity=".9"/><path fill="#623818" d="m333 75 7-2h2l-8 2h-1Z" opacity=".7"/><path fill="#360e0b" d="M214 75c3 0 4 4 7 5-2 0-2 1-2 3l-6 1 1-9Z" opacity=".5"/><path fill="#84311d" d="m269 79 1-4 3 1c1 1 4 1 2 2 1 4-4 3-4 6 3 0 8 0 10-3 1-3 3-2 5-2-2 1-5 2-3 6h-4l-2 4c-4 0-6 4-9 3l-2-4c2-1 4-2 2-4-3 0-4-1-5-3v-4l-4 1c1-5 7 0 10 1Z" opacity=".8"/><path fill="#511a13" d="m278 76 1-1 10 1-1 2-10-2Z" opacity=".7"/><path fill="#2c0f09" d="M333 75h1l1 2c-6 3-13 6-20 5l2-1c4 0 8-3 12-5l4-1Z" opacity=".5"/><path fill="#773219" d="M318 79c4 0 7-3 11-3-4 2-8 5-12 5l1-2Z" opacity=".8"/><path fill="#b0581e" d="m259 78 4-1v4l-5 2v-4l1-1Z"/><path fill="#b1481e" d="M290 78h6c-1 1-2 4-5 4l-1-4Z"/><path fill="#f3e573" d="m304 79 6-2h7l-10 5c-6 3-13 4-16 9 2 0 6-4 6 0l-4 3h-2c2-3-3-3-5-3-4 2-8 3-13 3v-1l4-1c4 1 9-2 12-5 4-4 10-5 15-8Z"/><path fill="#d68418" d="M291 82c3 0 4-3 5-4h3l5 1c-5 3-11 4-15 8l-6 1c1-3 5-2 7-5l1-1Z"/><path fill="#75281a" d="m254 80 4-1v4l2 4c-2 1 1 1 2 1 0 4-6 4-8 7-2 0-4 3-6 1 3-3 4-7 0-10 0 1 0 4-2 3l-5-5 5 1c2-1 3-4 6-3v4c2 1 2-2 3-3l-1-3m2 6c-1 0-3 2-1 3s3-2 1-3Z" opacity=".8"/><path fill="#c1491a" d="M286 79h1l3 4c-2 3-6 2-7 5l-2 1h-4l2-4h4c-2-4 1-5 3-6Z"/><path fill="#9c461b" d="m310 82 8-3-1 2a239 239 0 0 1-3 2h-1l-5 2h-1c0-2 2-2 3-3Z" opacity=".9"/><path fill="#42130f" d="M219 83c0-2 0-3 2-3l6 4-1 5-1 1c-2 1-5 0-7 2-1-3-3-1-5 0 0-4 4-3 7-3 4 1 2-6-1-6Z" opacity=".6"/><path fill="#8e381e" d="M263 81c1 2 2 3 5 3 2 2 0 3-2 4l-6-1-2-4 5-2Z" opacity=".9"/><path fill="#dfa01e" d="M291 91c3-5 10-6 16-9h3c-1 1-3 1-3 3l-9 3v3h-1c0-4-4 0-6 0Z"/><path fill="#110402" d="M313 83h1l1 4c-8 7-16 15-19 25 4 7-6 4-5 8 3 10-1 20 1 29-1 10 1 21-2 31 0 3 2 6 4 9h-4c-4-1-3-5-3-8-2-3 2-6 1-10 0-8 2-17 0-25-2-9 4-18 0-26 0-4 2-8 4-11 2-2 0-5 1-7 7-6 16-11 20-19Z" opacity=".3"/><path fill="#340c0b" d="M202 83c4-1 5 4 5 7 3 0 5-2 7-3l6 2c-3 0-7-1-7 3l-9-2c-1 2-2 3-4 3 1-2 2-5-2-4-2 6-8 9-9 16l-4 11-2-7v-1c4-8 10-14 15-22 3 2 4-1 4-3Z" opacity=".5"/><path fill="#812e1d" d="M236 86c0-2 0-4 2-3-2 3 4 3 4 6l-2 9c0 2-2 2-4 3-1-2-1-5-3-7h-1c-2-2-5-2-7 0-3 1-3 5-7 4a944 944 0 0 0 0-6c2-2 5-1 7-2l11 1c2-1 0-4 0-5Z" opacity=".8"/><path fill="#8a2f1e" d="M252 86v-4l3 1c-1 1-1 4-3 3Z" opacity=".9"/><path fill="#1e0905" d="m308 85 5-2c-4 8-13 13-20 19-1 2 1 5-1 7-2 3-4 7-4 11 4 8-2 17 0 26 2 8 0 17 0 25 1 4-3 7-1 10 0 3-1 7 3 8h-5v-12l1-6v-40c2-4 3-9 0-13v-2l-1-6 3-6c5-5 13-9 15-16l5-3Z" opacity=".4"/><path fill="#94321e" d="M242 89c0-3-6-3-4-6l3 1 5 5c2 1 2-2 2-3 4 3 3 7 0 10 2 2 4-1 6-1v3h-14l2-9Z" opacity=".9"/><path fill="#9e3e1c" d="m298 88 9-3h1l-5 3-5 3v-3Z" opacity=".9"/><path fill="#672518" d="m235 89 1-3c0 1 2 4 0 5l-11-1 1-1c2-3 6 0 9 0Z" opacity=".8"/><path fill="#8d331d" d="M256 86c2 1 1 4-1 3s0-3 1-3Z" opacity=".9"/><path fill="#a3461e" d="M262 88c-1 0-4 0-2-1l6 1 2 4c-2 3-6 3-8 5-2 0-4-1-6 1v-3c2-3 8-3 8-7Z" opacity=".9"/><path fill="#eec441" d="m283 88 6-1c-3 3-8 6-12 5l4-3 2-1Z"/><path fill="#491611" d="m298 91 5-3c-2 7-10 11-15 16-3 1-5 5-7 8v-5c6-5 13-9 17-16Z" opacity=".6"/><path fill="#461410" d="M198 89c4-1 3 2 2 4 2 0 3-1 4-3l9 2c-3 0-6 1-4 4-2-1-5-3-8-2-2 2-2 5-3 7l-5-1-4 5c1-7 7-10 9-16Z" opacity=".6"/><path fill="#c26c19" d="M268 92c3 1 5-3 9-3h1l-6 4-12 4c2-2 6-2 8-5Z"/><path fill="#de9d1d" d="M278 89h3l-4 3-4 1h-1l6-4Z"/><path fill="#591e15" d="M213 92c2-1 4-3 5 0l-1 3h-1l-6-1v4l-5-2-7 5c1-2 1-5 3-7 3-1 6 1 8 2-2-3 1-4 4-4Z" opacity=".7"/><path fill="#f8f1b1" d="M273 94c5 0 9-1 13-3 2 0 7 0 5 3l-1 1-12 6c-4 0-6 3-9 5l-4 2-9 2 11-7c-1-3-4-3-7-3l13-6Z"/><path fill="#973c1e" d="M297 91h1c-4 7-11 11-17 16l-2 1c-1 2-3 3-5 3 2-3 6-5 7-8 5-1 10-4 12-9l4-3Z" opacity=".9"/><path fill="#9d4820" d="M225 94c2-2 5-2 7 0-2 1-4 3-7 2-1 3-3 5-6 7 0-2-1-4-3-5v-3h1l1 3c4 1 4-3 7-4Z" opacity=".9"/><path fill="#e5c028" d="m260 97 12-4h1v1l-13 6h-1c-5 0-10 3-14 5l-2 1-9 1h-2l12-4a144 144 0 0 0 16-6Z"/><path fill="#6f271a" d="m210 94 6 1v3c1 3-3 1-4 2l-4-1v4c-2 0-5-2-8-1l-5 8 3-9 7-5 5 2v-4Z" opacity=".8"/><path fill="#bc6220" d="M232 94h1c1 4-4 5-7 6 1 3 1 7 6 3h6c-4 3-10 2-15 1-4 3-9 3-14 4h-2v-1c4-1 9-1 12-4 3-2 5-4 6-7 3 1 5-1 7-2Z"/><path fill="#b4471e" d="M233 94c2 2 2 5 3 7 2-1 4-1 4-3h14v1c-5 0-11 0-15 4h-7c-5 4-5 0-6-3 3-1 8-2 7-6Z"/><path fill="#c96e1b" d="M291 94h2c-2 5-7 8-12 9l9-8 1-1Z"/><path fill="#e8cc37" d="m278 101 12-6-9 8-9 4-12 5-8 2c4-3 9-4 13-6l4-2c3-1 7-2 9-5Z"/><path fill="#c46b18" d="M254 98c2-2 4-1 6-1l-6 2v-1Z"/><path fill="#a2391f" d="M216 98c2 1 3 3 3 5-3 3-8 3-12 4l-2-1-7 7c0 3 3 5 1 7-1 3-2 5-1 8l-2 1-1-6v-1l3-3-4-6 1-2c4-1 4-9 10-6l3-2c2 0 3-2 4-3s5 1 4-2Z" opacity=".9"/><path fill="#89331e" d="m208 99 4 1c-1 1-2 3-4 3v-4Z" opacity=".9"/><path fill="#ce6814" d="M239 103c4-4 10-4 15-4l-10 4h-5Z"/><path fill="#5a1715" d="m193 100 5 1-3 9c-3-1-4 1-5 3l-1-8 4-5Z" opacity=".7"/><path fill="#f7ed89" d="M245 105c4-2 9-5 14-5-4 3-9 5-14 5Z"/><path fill="#fdf9d5" d="M259 100h1c3 0 6 0 7 3l-11 7-10 4-5 6c-6 0-5 7-5 11l-1 3c-2 11-1 21-2 32l2 3a41 41 0 0 0 8 10c2 3 4 5 7 5l10 7c3 3 9 6 7 12 1 3-1 9-5 8l-10-14c-2-6-8-7-12-11l-13-8c-4-2-7 2-10 2l2-5c-1-2-4-5-3-8 2-3-1-6 1-9 2-2 0-4-1-6 5 1 2-5 1-8-2-8 2-17-2-24 0-6 6-8 10-10 3-3 7 2 10 0l8-4 2-1c5 0 10-2 14-5Z"/><path fill="#f2e47e" d="M269 106c3-2 5-5 9-5-2 3-6 4-9 5Z"/><path fill="#88301e" d="M200 102c3-1 6 1 8 1l-3 2c-6-3-6 5-10 6v-1l5-8Z" opacity=".9"/><path fill="#d9991c" d="M238 103h6l-12 4c-6-1-12-1-17 2-3 1-6 1-7 4l-2 3-1 8c-3-6 0-11 4-16 5-1 10-1 14-4 5 1 11 2 15-1Z"/><path fill="#c56d1c" d="m272 107 9-4c-1 3-5 5-7 8l-1 1-5-1 4-4Z"/><path fill="#30120a" d="M281 112c2-3 4-7 7-8l-3 6 1 6-3-1-2-3Z" opacity=".5"/><path fill="#430d0f" d="m185 116 4-11 1 8v2c1 2-1 4-2 6l1 9 3 5h-4l4 7c0 2-2 2-3 2-2-1-1-2 0-4-1-2-2-5-4-6-2 0-3-1-1-2 6-1 2-9 1-13v-3Z" opacity=".6"/><path fill="#b8461d" d="m205 106 2 1v1l-4 6c-3 4-2 10-2 16-2 0-4 2-2 4 5 2 6 8 3 12l2 5-2 1c-3-3-3 2-1 3v2c-3-1-2 2-1 3l-2 4c-3 1-4 5-6 7l-1-14v-1l1-1c3 0 9 0 6-4-1-5 2-10 0-16h-2c-2-2-2-4-1-6h1l2-1c-1-3 0-5 1-8 2-2-1-4-1-7l7-7Z"/><path fill="#e8d249" d="M215 109a33 33 0 0 1 19-2l-14 2c-4 0-8 4-12 4 1-3 4-3 7-4Z"/><path fill="#faf5b5" d="m234 107 9-1-8 4c-3 2-7-3-10 0-4 2-10 4-10 10 4 7 0 16 2 24 1 3 4 9-1 8 1 2 3 4 1 6-2 3 1 6-1 9-1 3 2 6 3 8l-2 5c3 0 6-4 10-2l13 8c4 4 10 5 12 11-3-2-5-4-8-4l-5-1-5-4-3-2-6-1c-4 0-8 4-13 3-2-2 0-6-2-8l2-6c4-2 2-8 3-11 0-9 1-18-1-27v-2c0-6-4-12-4-19 3-3 7-3 10-6l14-2Z"/><path fill="#d79319" d="m260 112 12-5-4 4h-2c-2 2-4 2-6 2v-1Z"/><path fill="#613119" d="m279 108 2-1v5l2 3-2 8-1-1 2-7c-3-1-3-4-3-7Z" opacity=".7"/><path fill="#d46d16" d="M207 108h2c-4 5-7 10-4 16l2 4c0 6 5 10 4 16-3 2-4 5-3 8l1 13c-1 2-3 3-6 3l2 4h-1c-3 1-3-3-6-1 1-3 1-7 5-6 3 0 4-1 4-4-2 1-5 0-7-1-1-1-2-4 1-3 2 0 6 0 5-3-1-1-4 0-4-2l2-1c3 0 2-4 2-7l4-4h-4c-2-5 1-12-4-16l1-10 4-6Z"/><path fill="#f6eb76" d="m256 110 9-2c-4 2-9 3-13 6l-2 1c-2 0-4 2-5 4l-2 2h-2v-1l5-6 10-4Z"/><path fill="#80421e" d="M274 111c2 0 4-1 5-3 0 3 0 6 3 7l-2 7-4-4h-1l2-5c-2 0-4 2-4-1l1-1Z" opacity=".8"/><path fill="#270507" d="M185 119c-3-3-5-6-2-10l2 7v3Z" opacity=".4"/><path fill="#f4eb8a" d="M208 113c4 0 8-4 12-4-3 3-7 3-10 6 0 7 4 13 4 19h-1l-2-5c-1-2-2-5-4-6l1-10Z"/><path fill="#75211a" d="M190 113c1-2 2-4 5-3v1l-1 2c-4 2 4 5 0 6l1 3v7l-2 1c0-2-1-3-3-3 2-4 2-8 2-12h-2v-2Z" opacity=".8"/><path fill="#bf6f1e" d="M260 113c2 0 4 0 6-2 0 3 1 3 3 3l-2 3h3l-5 2-4-3-1-1v-2Z"/><path fill="#a45c21" d="M266 111h2l5 1c0 3 2 1 4 1l-2 5c-1 2-3-2-5-1h-3l2-3c-2 0-3 0-3-3Z" opacity=".9"/><path fill="#e2b319" d="m252 114 8-2v3c-3 2-10 0-10 5h-1c-1-2 0-4 1-5l2-1Z"/><path fill="#8a291e" d="M194 119c4-1-4-4 0-6l4 6-3 3-1-3Z" opacity=".9"/><path fill="#ecd83f" d="m206 116 2-3-1 10-1-7Z"/><path fill="#ca5418" d="M201 130c0-6-1-12 2-16l-1 10c5 4 2 11 4 16h4l-4 4c0 3 1 7-2 7l-2-5c3-4 2-10-3-12-2-2 0-4 2-4Z"/><path fill="#591514" d="M190 115h2c0 4 0 8-2 12 2 0 3 1 3 3l-1 5-3-5-1-9c1-2 3-4 2-6Z" opacity=".7"/><path fill="#edd41b" d="M245 119c1-2 3-4 5-4-1 1-2 3-1 5l-4-1Z"/><path fill="#da8c17" d="m260 115 1 1v1h-6l3 1-1 3h-4c1 2 2 5-2 4h-4c-2 0-3 0-3 2-1 2 1 7-3 6-2-4 1-8 2-11v-1l2-2 4 1h1c0-5 7-3 10-5Z"/><path fill="#4c2313" d="m283 115 3 1v2l-2 1 2 12v2c-1 3 0 7-4 6v-6c2-3 0-7-1-10l2-8Z" opacity=".6"/><path fill="#e9c820" d="m205 124 1-8 1 7c0 3 2 5 4 6l2 5c0 9-1 18 1 26 1 4-1 8-2 12l-4 4 2-7c3-8 1-16 2-24v-1c1-6 0-13-5-16l-2-4Z"/><path fill="#c08b24" d="m261 116 4 3 5-2c2-1 4 3 5 1h1l-1 6-7 2v-4h-6l2-3c-2 0-3 0-3-2v-1Z"/><path fill="#bf6c1d" d="M255 117h6c0 2 1 2 3 2l-2 3c-2 1-4 0-5-1l1-3-3-1Z"/><path fill="#9f6021" d="m276 118 4 4 1 1-1 4 2 6h-3c1 3-1 6 1 8l-3 2c0-2 2-4 0-6-3-4 4-9-1-12l-1-1 1-6Z" opacity=".9"/><path fill="#291309" d="m284 119 2-1c3 4 2 9 0 13l-2-12Z" opacity=".5"/><path fill="#2d0709" d="M181 130c2-3 0-9 4-11 1 4 5 12-1 13-2 1-1 2 1 2 2 1 3 4 4 6-1 2-2 3 0 4l1 2v6c-2 2-6 3-6 6-3 0-2-6-5-3l-1 10c0-5-2-10 2-14 3 1 5 1 7-1l-1-5c-7 3-4-1-4-4l-1-11Z" opacity=".4"/><path fill="#faf29c" d="M236 131c0-4-1-11 5-11v1c-1 1-3 2-3 4l-2 6Z"/><path fill="#f0dd3d" d="M238 125c0-2 2-3 3-4h2v1c-4 1-4 4-5 7v-4Z"/><path fill="#d8ab26" d="M253 121h4c1 1 3 2 5 1h6v4l7-2 1 1c0 3-2 6-5 4-1 3 5 1 2 3-1 2-5-1-4 2-1 1-3 0-4-1-1 2-2 3-4 3 0-2-1-3-3-4l1 4-4-4c2 0 3-2 3-4 4-1 0 3 2 3 4 1 1-4 1-6-2 1-3 1-3 3-3 1-5-1-7-3 4 1 3-2 2-4Z"/><path fill="#e4b718" d="M238 129c1-3 1-6 5-7-1 3-4 7-2 11 4 1 2-4 3-6 2 0 3 4 2 6-3 1-4 6-8 4l1 5v11a1012 1012 0 0 1-2 0c0-4 1-9-1-13l2-11Z"/><path fill="#8b2c1e" d="M195 129v-6l1 6h-1Z" opacity=".9"/><path fill="#eede43" d="M207 123c2 1 3 4 4 6-2-1-4-3-4-6Z"/><path fill="#69341a" d="M281 123c1 3 3 7 1 10l-2-6 1-4Z" opacity=".8"/><path fill="#ead028" d="M247 125h4c2 2 4 4 7 3 0 2-1 4-3 4s-4 0-2-1-1-2-2-3l-4-3Z"/><path fill="#f6eb67" d="m236 131 2-6v4l-2 11v21c-2 5 2 9 2 13l-3-5v-35l1-3Z"/><path fill="#dca21e" d="M244 127c0-2 1-2 3-2l4 3c-3 1-2 5 0 7-2 3-2 6 0 9l-3 1-6-1c0-2 5-2 3-4s0-5 1-7 0-6-2-6Z"/><path fill="#d08a1b" d="M258 128c0-2 1-2 3-3 0 2 3 7-1 6-2 0 2-4-2-3Z"/><path fill="#c78b23" d="M276 125c5 3-2 8 1 12 2 2 0 4 0 6-3 0-3 1-3 3l-1 3c-2 0-6 2-5-1 2-3 0-5-2-5 1-1 2-2 4-1 2 2 3-1 5-1-1-2-2-4-4-4 1-1 1-2-1-3l-1 3v-3c-1-3 3 0 4-2 3-2-3 0-2-3 3 2 5-1 5-4Z"/><path fill="#de9f10" d="M207 128c5 3 6 10 5 16h-1c1-6-4-10-4-16Z"/><path fill="#e0bb2c" d="M251 128c1 1 4 2 2 3s0 1 2 1l4 4-3 7c-3 1-1 4 1 5-1 2 0 5-3 4v-3c1-3-1-4-3-5-2-3-2-6 0-9-2-2-3-6 0-7Z"/><path fill="#8a2f1e" d="m193 130 2-1c-1 2-1 4 1 6 1 3 2 6 0 9 0 3-3 8 2 7 3 4-3 4-6 4 1-4 5-9 0-13 0-2 2-6 0-7l1-5Z" opacity=".9"/><path fill="#160304" d="M172 151c5-6 2-15 8-21v14c-3 5-5 11-6 17l3 4-10 13c-3-2-1 1 0 3l1 7-8 1v-1l5-2-2-6c0-5 5-7 8-10-1-6-1-13 1-19Z" opacity=".2"/><path fill="#200506" d="M180 130h1l1 11c0 3-3 7 4 4l1 5c-2 2-4 2-7 1-4 4-2 9-2 14h-1l-3-4c1-6 3-12 6-17v-14Z" opacity=".3"/><path fill="#d49f21" d="M258 132c2 1 3 2 3 4v1c-2 3 2 2 4 2 1 2-2 2-3 2 1 2 2 2 4 2s4 2 2 5c-2 0-3 1-5 3l-2-5c0-4-2-4-5-3l3-7-1-4Z"/><path fill="#d28019" d="M238 137c4 2 5-3 8-4-1 2-3 5-1 7s-3 2-3 4c1 1 1 3-1 2-2 0-1-3-2-4l-1-5Z"/><path fill="#e0c542" d="M265 133c1 1 3 2 4 1v4l-8-1v-1c2 0 3-1 4-3Z"/><path fill="#763c1c" d="M279 133h3v6l-1 2h-1c-2-2 0-5-1-8Z" opacity=".8"/><path fill="#36140c" d="M282 139c4 1 3-3 4-6v20l-1-1-2-7-4 1 2-5 1-2Z" opacity=".5"/><path fill="#f1de39" d="M213 134h1v26c-2-8-1-17-1-26Z"/><path fill="#fbf7b1" d="M233 166c1-11 0-21 2-32v35l-2-3Z"/><path fill="#bb7920" d="M270 134c2 1 2 2 1 3 2 0 3 2 4 4-2 0-3 3-5 1 1-1 1-3-1-4v-1l1-3Z"/><path fill="#551613" d="M188 135h4c2 1 0 5 0 7l-4-7Z" opacity=".7"/><path fill="#9e3c1f" d="M196 135h2c2 6-1 11 0 16-5 1-2-4-2-7 2-3 1-6 0-9Z" opacity=".9"/><path fill="#f7ee70" d="M214 136c2 9 1 18 1 27-1 3 1 9-3 11v-2c1-4 3-8 2-12v-24Z"/><path fill="#d9b62f" d="m261 137 8 1c2 1 2 3 1 4-2-1-3 0-4 1-2 0-3 0-4-2 1 0 4 0 3-2-2 0-6 1-4-2Z"/><path fill="#eedc35" d="M236 140c2 4 1 9 1 13l-1 8v-21Z"/><path fill="#5b2816" d="M280 141h1l-2 5 4-1 2 7-3 1c0-2 1-6-3-6-2-1-2-2-2-4l3-2Z" opacity=".7"/><path fill="#621b17" d="M192 142c5 4 1 9 0 13l-1 1h-2l1-4 3-4-3-2-1-2c1 0 3 0 3-2Z" opacity=".7"/><path fill="#d39a22" d="M239 142c1 1 0 4 2 4 2 1 2-1 1-2l6 1v2c-3 4 4 6 5 2h1v3c3 1 2-2 3-4h1c2 1 3 3 2 6 4 2 6-1 10-1-1-2 0-2 2-2l1 3v1l-4-1c0 2 2 2 3 2 1 2-2 2-3 2 1 3 7 5-3 3l2 5 3-2c0 2-2 4 1 4l1 3-6 2-7-1c-1-3-4-4-7-5 1-2 2-5 5-4 0 1-1 3 1 4l2-3c1 3 3 6 6 7-2-2-4-4-4-7l1-4c1 0 3 0 2-2l-6-3v3c-1 0-3-2-3 0 1 2-4 6-5 3-1 1-2 3-4 3l-1-2c-3-2 2-3 2-6-2 0-3-1-3-3-1 3-4-1-7 0v-11Z"/><path fill="#e6ce4d" d="M256 143c3-1 5-1 5 3l-3 2h-1c-2-1-4-4-1-5Z"/><path fill="#9f531f" d="M274 146c0-2 0-3 3-3 0 2 0 3 2 4v6l-1 2h-5v-1c4 0 3-5 1-8Z" opacity=".9"/><path fill="#dc8514" d="M208 152c-1-3 0-6 3-8h1v1c0 3-1 5-4 7Z"/><path fill="#e8c941" d="m248 145 3-1c2 1 4 2 3 5h-1c-2-1-6 2-5-2v-2Z"/><path fill="#e2a113" d="M208 152c3-2 4-4 4-7-1 8 1 16-2 24h-1v-4l-1-13Z"/><path fill="#3d0e0d" d="m190 146 3 2-3 4v-6Z" opacity=".6"/><path fill="#dcb025" d="m258 148 3-2 2 5c2-2 3-3 5-3-1 3 3 1 5 1l-1 2c-2 0-3 0-2 2-4 0-6 3-10 1 1-3 0-5-2-6Z"/><path fill="#b97122" d="M274 146c2 3 3 8-1 8l-1-3 1-2 1-3Z"/><path fill="#deb128" d="M253 149c-1 4-8 2-5-2-1 4 3 1 5 2Z"/><path fill="#7f3a1d" d="M279 147c4 0 3 4 3 6h-3v-6Z" opacity=".8"/><path fill="#c25c1a" d="M201 155c-2-1-2-6 1-3 0 2 3 1 4 2 1 3-3 3-5 3v-2Z"/><path fill="#3e0c0e" d="M184 158c0-3 4-4 6-6l-1 4-5 2Z" opacity=".5"/><path fill="#491e11" d="m282 153 3-1 1 1v5h-1c-2-2-5-2-3-5Z" opacity=".6"/><path fill="#e9c821" d="m237 153 2 2v2l-1 4c0 3-1 6 1 8 0 4 2 6 5 8l1 2h-2l-5-5c0-4-4-8-2-13l1-8Z"/><path fill="#d38717" d="M239 153c3-1 6 3 7 0 0 2 1 3 3 3 0 3-5 4-2 6l-7-1-1 8c-2-2-1-5-1-8 2-1 7 1 6-3l-5-1v-4Z"/><path fill="#662b18" d="M279 153h3c-2 3 1 3 3 5v1c-4 2-2 6-3 10-2-1-2-3-3-5 0-1-2-5 0-3 3 1 2-7-1-6l1-2Z" opacity=".7"/><path fill="#3f0c0e" d="M179 155c3-3 2 3 5 3-2 2-2 4-2 6l-5 4v-3h1l1-10Z" opacity=".5"/><path fill="#bd7322" d="m269 154 4 1h5c1 2 1 3-2 3 2 4-4 3-4 7 0 2 0 2 1 1 3-1 3 3 4 4l2 5-7-1c-1 2-3 6 0 7-3 2-3-2-6-1 2-2 2-5 1-7l6-2-1-3c-3 0-1-2-1-4l-3 2-2-5c10 2 4 0 3-3 1 0 4 0 3-2-1 0-3 0-3-2Z"/><path fill="#d8aa26" d="m260 155 6 3c1 2-1 2-2 2l-1 4c-3-1-1-5-3-6v-3Z"/><path fill="#a35521" d="M278 155c3-1 4 7 1 6-2-2 0 2 0 3l-2 6c-1-1-1-5-4-4-1 1-1 1-1-1 0-4 6-3 4-7 3 0 3-1 2-3Z" opacity=".9"/><path fill="#621416" d="m184 158 5-2c-1 3-5 2-3 7-1 0-3-1-3 1h-1c0-2 0-4 2-6Z" opacity=".7"/><path fill="#8a1f1d" d="M189 156h2v1c-2 2-2 5-1 8-4 1-5 7-2 9h-2c-2-2-4-5-4-8l1-2c0-2 2-1 3-1-2-5 2-4 3-7Z" opacity=".8"/><path fill="#a92d1f" d="M190 165c-1-3-1-6 1-8l1 14v3h-4c-3-2-2-8 2-9Z" opacity=".9"/><path fill="#dea50e" d="m239 157 5 1c1 4-4 2-6 3l1-4Z"/><path fill="#c47f1d" d="M257 158c0-2 2 0 3 0 2 1 0 5 3 6 0 3 2 5 4 7-3-1-5-4-6-7l-2 3c-2-1-1-3-1-4-3-1-4 2-5 4h-2c-1-2-2 3-4 2v-3l1-2c2 0 3-2 4-3 1 3 6-1 5-3Z"/><path fill="#33100b" d="M285 158h1v13c-4-2 0-9-1-12v-1Z" opacity=".5"/><path fill="#461910" d="M282 169c1-4-1-8 3-10 1 3-3 10 1 12l-1 6-2 1-1-1v-8Z" opacity=".6"/><path fill="#ce5417" d="M200 160c2 1 5 2 7 1 0 3-1 4-4 4-4-1-4 3-5 6l-1 1-4 2h-1v-3c2-2 3-6 6-7l2-4Z"/><path fill="#cd741b" d="m240 161 7 1 1 2-1 2c-3 2-2 5-1 8 2-1 8-1 5 2-1 2 0 4 1 6l-5-1c0-3 0-5-3-4-3-2-5-4-5-8l1-8Z"/><path fill="#561313" d="M182 164h1l-1 2-5 6c1 2 5 2 4 5v7c-3 0-7-2-11 0h-1l-1-3c1-1 2 1 4 1l2-6c2-1 2-4 2-7l1-1 5-4Z" opacity=".6"/><path fill="#87401e" d="M279 164c1 2 1 4 3 5v2c-1 2 0 8-4 5l1-1c3-2-1-4-2-5l2-6Z" opacity=".8"/><path fill="#220507" d="m167 178 10-13v3l-1 1c-1 2-4 5-2 7-2 0-5 3-7 2Z" opacity=".3"/><path fill="#e08216" d="M203 168c3 0 5-1 6-3v4l-4 3-2-4Z"/><path fill="#671717" d="m177 172 5-6c0 3 2 6 4 8l2 7h-6l2 6h5c0 2-1 4 1 5l-3 1h-1c0-2-3-4-4-1l-1-8v-7c1-3-3-3-4-5Z" opacity=".7"/><path fill="#d19b27" d="M246 174c-1-3-2-6 1-8v3c2 1 3-4 4-2 1 1 3 4 0 4 1 3 3 1 4 0 1 0 2 3 2 1s2 0 3 0l-1 4c-2-1-4 1-5 2l-3-2c3-3-3-3-5-2Z"/><path fill="#dbb937" d="M251 167h2c3 1 6 2 7 5-1 0-3-2-3 0s-1-1-2-1c-1 1-3 3-4 0 3 0 1-3 0-4Z"/><path fill="#3a0b0d" d="M174 176c-2-2 1-5 2-7 0 3 0 6-2 7Z" opacity=".5"/><path fill="#eab029" d="m205 172 4-3h1l-2 7-2 2-2-6h1Z"/><path fill="#e09224" d="M198 171c3-2 3 2 6 1l2 6v1l-5 3c-4-2-3-7-4-10l1-1Z"/><path fill="#a75620" d="M277 170c1 1 5 3 2 5l-2-5Z" opacity=".9"/><path fill="#6d331a" d="M282 171v6c-4 1-2 5-3 8h-1c0-2 2-8-2-7-2-2 0-2 2-2 4 3 3-3 4-5Z" opacity=".8"/><path fill="#d1781a" d="m193 174 4-2c1 3 0 8 4 10v2l-5 4-1-6-2-6v-2Z"/><path fill="#f1e24d" d="m208 176 4-4v2l-2 6-2 5-2-6v-1l2-2Z"/><path fill="#c38326" d="m260 172 7 1c1 2 1 5-1 7 3-1 3 3 6 1 3 2-1 4-2 5-3-1-5-2-8-1-1-1-2 0-3 1-3 0-5-2-7-4-1-2-2-4-1-6l3 2c1-1 3-3 5-2l1-4Z"/><path fill="#7e201b" d="M186 174h4c-3 5 1 9 2 13-4-1-1 4 0 5l2 5v7l-1-4-3-8c-2-1-1-3-1-5h-5l-2-6h6l-2-7Z" opacity=".8"/><path fill="#95341e" d="M190 174h3v2c-3 2 5 11-1 11-1-4-5-8-2-13Z" opacity=".9"/><path fill="#ad5d22" d="m272 174 7 1-1 1c-2 0-4 0-2 2l-2 3 4 4v7c-2 0-2-1-2-3h-4l-2-3c1-1 5-3 2-5-3-1-1-5 0-7Z" opacity=".9"/><path fill="#360b0c" d="M167 178c2 1 5-2 7-2l-2 6c-2 0-3-2-4-1h-1c-1-2-3-5 0-3Z" opacity=".4"/><path fill="#c1601e" d="M192 187c6 0-2-9 1-11l2 6 1 6c0 3 1 6 3 8l4 9 1 8-2-2c-1-5-5-8-4-13-3-2-5-4-5-8l-1-3Z"/><path fill="#e1a11f" d="M244 177c3-1 3 1 3 4l-2-2-1-2Z"/><path fill="#542515" d="m282 177 1 1v1c-4 0-2 5-2 7 0 4 1 6 4 7v1l-5-1-1-1v-7c1-3-1-7 3-8Z" opacity=".6"/><path fill="#2a120a" d="m283 178 2-1v12h7v1l-5 1h-4v-13Z" opacity=".4"/><path fill="#8f4920" d="M276 178c4-1 2 5 2 7l-4-4 2-3Z" opacity=".9"/><path fill="#e7b62c" d="m201 182 5-3 2 6-4 3h-1c1-3 1-5-2-4v-2Z"/><path fill="#f6ea6d" d="M243 179h2l2 2 3 3c-3 0-5-2-7-5Z"/><path fill="#36190d" d="M281 186c0-2-2-7 2-7v12h3l-1 2c-3-1-4-3-4-7Z" opacity=".5"/><path fill="#f7ee98" d="m208 185 2-5c2 2 0 6 2 8 5 1 9-3 13-3-3 3-9 7-14 4-1-1-3-2-3-4Z"/><path fill="#290e0b" d="M167 181h1l1 3 2 6h-14l3-1 8-1-1-7Z" opacity=".3"/><path fill="#e4b421" d="m247 181 5 1c2 2 4 4 7 4v1l-9-3-3-3Z"/><path fill="#88221b" d="M170 184c4-2 8 0 11 0l1 8-1 2h-1v-1l1-6-11-3Z" opacity=".8"/><path fill="#38100d" d="M169 184h1l11 3-1 6-6-1-2-1-1-1-2-6Z" opacity=".5"/><path fill="#dd8b26" d="m196 188 5-4c3-1 3 1 2 4l-3 3c2 1 6-1 7 2v1h-1c-5 2-1 9-1 13l-2-2-4-9c-2-2-3-5-3-8Z"/><path fill="#f2e273" d="m250 184 9 3c1 3 4 3 5 6l-4-2-10-7Z"/><path fill="#e3b13f" d="M259 186c1-1 2-2 3-1v4c3 1 7 2 10 1l3 4c-3 0-6-1-8 1l-3-2c-1-3-4-3-5-6v-1Z"/><path fill="#d28d28" d="M262 185c3-1 5 0 8 1l2 3v1c-3 1-7 0-10-1v-4Z"/><path fill="#f5da6c" d="m204 188 4-3c0 2 2 3 3 4 5 3 11-1 14-4l6 1c-2 0-6 0-7 3-3 1-8 1-5 5h-12v-1c0-3-2-4-3-5Z"/><path fill="#8b3d1e" d="M278 185h1v7h-1v-7Z" opacity=".8"/><path fill="#f4d946" d="M224 189c1-3 5-3 7-3l3 2v1l-5-1-4 1h-1Z"/><path fill="#110b07" d="M91 191c7-6 18-5 25 1 5-3 11-5 16-3 4 0 7 5 5 9v37l-1-1c-2-13-1-26 0-40-2-5-9-4-14-4-2 2-5 4-3 8 0 14-1 28 1 41 1 6 8 4 13 4l2-3 2-5c3 5-1 11-7 10-4 0-9 0-12-3-1-1-4-3-5-1-6 5-14 5-21 3-3 0-6-3-8-1-6 3-12 1-19 1v-1h12c3 1 6-2 7-5 3-1 4 4 7 4l3 1h10c9-2 15-12 11-20l-1-2c0-2-1-4-3-5l-4-5-5-7 5-1c2 1 5 2 6-1s3-8-1-10c-7-7-23-3-24 8-1 4-2 9 1 12 2 4 6 8 10 11 1 2 4 4 2 7-3 1-5-1-6-3-1-3-5-2-5 1h-1c-2 0-4 2-6 1-1-2-3-2-5 0h-1c-6 4-7-5-4-7h7c3-1 4-6 2-9-1-6-8-2-10-6-1-6 6-2 9-4 5-2 4-11-1-12l-3-1H62c-4 1-8 4-6 9v11c-1-6-4-12-2-19 3-3 7-3 11-3 6 0 13-1 19 2l1 5c3 1 4-3 6-4Z" opacity=".1"/><path fill="#150b07" d="m152 188 7-1 1 1v1l-3 1c-3 0-6 1-8 3-2 3-1 7-1 10-3-5-3-14 4-15Z" opacity=".1"/><path fill="#932e1f" d="M192 192c-1-1-4-6 0-5l1 3-1 2Z" opacity=".9"/><path fill="#eec943" d="m200 191 3-3h1c1 1 3 2 3 5-1-3-5-1-7-2Z"/><path fill="#eba841" d="m225 189 4-1c-2 1-1 4-2 6h-1c-2-1-3-3-1-5Z"/><path fill="#e3922e" d="m229 188 5 1 3 3 1 4-3-1c-2-1-3-2-5 0-1-1-2 0-3 1v-2c1-2 0-5 2-6Z"/><path fill="#f6df66" d="m234 188 5 4h-2l-3-3v-1Z"/><path fill="#130e0a" d="M313 189c5-3 12 3 10 9 2 4-1 7-5 7v-1l2-2c1-2 2-7 0-9l-1-1-5-2-1-1Z" opacity=".1"/><path fill="#110b07" d="M459 188c6-1 18 0 16 9l-1 29c4 3 10-2 13 2s2 10 0 14c-4 3-10 3-15 2-6 1-12 2-17-2v-19c0-10 1-19-1-29 0-3 2-6 5-6m-3 5c0 2-2 9 1 8v38h1c3 7 12 3 18 4 8 2 13-9 9-15-1-2-4-2-5 0-2 0-5 2-7 0l1-33c0-4-6-6-10-5-4-2-6 1-8 3Z" opacity=".1"/><path fill="#18110b" d="M7 194c1-4 5-7 10-5v1l-3 1c-3 1-6 3-5 6v42h2l1 1v1c2 4 10 2 12-1 4-2 0-7 1-10 5 1 5 8 10 10 3 3 8 3 11 0l4-1c0 3-4 4-6 5-6 1-11-3-16-6-1 3-2 6-6 6-5 0-14 2-15-5 2-15 1-30 0-45Z" opacity=".1"/><path fill="#2d2117" d="M17 189c7 0 15 0 20 5 5 4 5 12 4 18-1 2-4 5-3 8l11 14h-3l-10-13 1-8 2-3c1-2 2-7 0-9l-2-3c-1-4-5-5-8-6l-3-1-9-1v-1Z" opacity=".2"/><path fill="#211710" d="M62 190h15-15Z" opacity=".1"/><path fill="#32271c" d="M88 200c1-11 17-15 24-8-4 0-9-3-13-1l-8 5-3 4Z" opacity=".2"/><path fill="#f1c05e" d="M219 194c-3-4 2-4 5-5h1c-2 2-1 4 1 5h-7Z"/><path fill="#c36f30" d="M272 189h4c0 2 0 3 2 3h1l1 1-1 1h-4l-3-4v-1Z"/><path fill="#271a10" d="M292 189h2a1700 1700 0 0 1 2 1h-4v-1Z" opacity=".2"/><path fill="#20160f" d="M352 189h17c5-2 8 3 11 5 2-4 6-6 11-5 3-1 9 1 9 5h-1c-4-4-11-5-16-1l2 10 13 35c1 3 5 3 8 3-3 2-6 0-9-1l-7-17c-3-8-4-17-9-24-2 0-2 2-3 4l-5 4c4 3 6 8 5 13l-2 2c-3 1-9-1-9 4-1 3 2 3 4 3-3 2-8 0-5-5 0-3 5-1 7-3l1-1c4-2 2-7 1-10-3-2-9 1-9-4-1-3 3-3 5-3l4-1c3-2 2-8-1-10-3-3-8-1-12-2-4 0-9 0-11 4-2 3 0 6 0 9v36h1l4 3v1c-3 1-6-1-7-4 2-14 1-28 0-41-1-4 1-7 3-9Z" opacity=".1"/><path fill="#241a12" d="M413 189h14c4 0 11-1 13 4h-3c-1-2-4-2-6-2l-7 2c-3-2-8-3-11-1l-1 1-1 1-1 7-2 1c0-4 0-11 5-13Z" opacity=".1"/><path fill="#3a2e22" d="m14 191 3-1 9 1H14Z" opacity=".2"/><path fill="#3c2c1e" d="M56 199c-2-5 2-8 6-9h15l3 1c3 3 3 8 1 12-3 2-10-2-9 4 2 4 9 0 10 6l-1 5-1-6c-2-4-12 1-9-8 0-3 3-2 5-2 4 3 7-6 4-8h-1v-1c-2-2-4-4-7-2-4 1-9-2-12 2-2 0-3 2-3 4v2h-1Z" opacity=".3"/><path fill="#5f4a36" d="M99 191c4-2 9 1 13 1v1h-2c-6-2-13-2-17 4l-1 1h-1v-2l8-5Z" opacity=".4"/><path fill="#2f2217" d="M122 190c5 0 12-1 14 4-1 14-2 27 0 40l-2-1v-40h-3c-4-5-13-1-11 5v41c-2-13-1-27-1-41-2-4 1-6 3-8Z" opacity=".2"/><path fill="#482f1f" d="M149 193c2-2 5-3 8-3h14l1 1c-6 0-12-1-17 1l-6 2v-1Z" opacity=".4"/><path fill="#3d1510" d="M182 192c1-3 4-1 4 1l-3 3-2-2 1-2Z" opacity=".5"/><path fill="#a7471f" d="M193 190c0 4 2 6 5 8-1 5 3 8 4 13l-1 1c-1-2-3-3-3-6-2-2-1-7-4-9l-2-5 1-2Z" opacity=".9"/><path fill="#4a3221" d="m287 191 5-1h4v1h-9Z" opacity=".4"/><path fill="#423224" d="M296 190h18l5 2h-4l-19-1v-1Z" opacity=".3"/><path fill="#403022" d="M351 194c2-4 7-4 11-4 4 1 9-1 12 2 3 2 4 8 1 10 0-2 1-7-1-8h-1l-1-1-1-1c-4-2-10-1-15 0l-1 1-4 1Z" opacity=".3"/><path fill="#2b1e14" d="M456 193c2-2 4-5 8-3 4-1 10 1 10 5l-1 33c2 2 5 0 7 0v1l-1 1c-4 1-10 0-7-6v-22c0-3 1-6-1-8-3-5-15-4-14 3v4c-3 1-1-6-1-8Z" opacity=".2"/><path fill="#5c422c" d="M9 197c-1-3 2-5 5-6a473 473 0 0 0 15 1c-5 1-10-1-15 1l-1 1-2 1-1 1-1 1Z" opacity=".4"/><path fill="#564432" d="M60 193c3-4 8-1 12-2a2003 2003 0 0 1 4 2c-5-1-10-2-14 0h-2Z" opacity=".3"/><path fill="#211911" d="M80 191c5 1 6 10 1 12 2-4 2-9-1-12Z" opacity=".1"/><path fill="#584532" d="M120 198c-2-6 7-10 11-5-3 0-6-1-8 1l-1 1-1 2v1h-1Z" opacity=".4"/><path fill="#60412c" d="M155 192c5-2 11-1 17-1l2 1h-19Z" opacity=".5"/><path fill="#f8e2b4" d="m260 191 4 2 3 2 3 1 1 1a724 724 0 0 0-1 30c-8-11-16-22-26-32v-2c3 0 5 2 8 4l10 14c4 1 6-5 5-8 2-6-4-9-7-12Z"/><path fill="#63422b" d="M286 191h9v1a439 439 0 0 0-9 2h-1v-1l1-2Z" opacity=".5"/><path fill="#5f4935" d="M295 191h1l19 1h-20v-1Z" opacity=".4"/><path fill="#584432" d="M356 192c5-1 11-2 15 0h-15Z" opacity=".4"/><path fill="#574431" d="M383 193c5-4 12-3 16 1v6l-2-5-1-1h-10c-2 0-2 0-2 2 6 14 9 29 16 42h-2l-13-35-2-10Z" opacity=".4"/><path fill="#483626" d="M413 192c3-2 8-1 11 1l7-2-3 2-1 1h-5l-2-1-7-1Z" opacity=".3"/><path fill="#5b4734" d="M431 191c2 0 5 0 6 2h-9l3-2Z" opacity=".4"/><path fill="#544330" d="M457 197c-1-7 11-8 14-3h-2c-3 0-7-2-9 0l-1 1-1 2h-1Z" opacity=".4"/><path fill="#75553c" d="M14 193c5-2 10 0 15-1 3 1 7 2 8 6l-8-5H14Z" opacity=".5"/><path fill="#6d5b45" d="M62 193c4-2 9-1 14 0H62Z" opacity=".5"/><path fill="#8b7755" d="M93 197c4-6 11-6 17-4v1h-3c-2-2-5-2-7 0l-6 4-1-1Z" opacity=".6"/><path fill="#3e291c" d="M112 192c4 2 2 7 1 10l-1-9v-1Z" opacity=".3"/><path fill="#7b5a3d" d="m149 194 6-2h18v1c-7 1-14-1-20 1l-2 1-1 2h-1v-3Z" opacity=".6"/><path fill="#69432d" d="M173 192h1l6 1v2l-7-2v-1Z" opacity=".6"/><path fill="#45100f" d="m187 193 3-1c0 2 1 4-1 6l-4-1 2-4Z" opacity=".6"/><path fill="#5f1d17" d="m190 192 3 8-5 2-3-4v-1l4 1c2-2 1-4 1-6Z" opacity=".7"/><path fill="#edba49" d="M237 192h2l1 5h-3c0 6 3 11 1 16l-4-9c0-3-2-6 1-9l3 1-1-4Z"/><path fill="#eccd6e" d="m239 192 5 1v1h-1l-1 2-2 1-1-5Z"/><path fill="#8d6342" d="M286 194c1-2 2-2 4-2v2h-4Z" opacity=".7"/><path fill="#7e654c" d="M290 192a439 439 0 0 1 25 0v1h-25v-1Z" opacity=".5"/><path fill="#6e462d" d="M315 192h4l1 1v6h-1c0-1 1-5-1-5h-2l-1-1v-1Z" opacity=".5"/><path fill="#6e5943" d="m355 193 1-1h15l1 1h-17Z" opacity=".5"/><path fill="#6b4b32" d="m412 193 1-1 7 1h-8Z" opacity=".4"/><path fill="#a58964" d="m13 194 1-1h15l8 5 1 6-2-2c-1-4-3-6-7-7l-16-1Z" opacity=".7"/><path fill="#6c5438" d="M57 197c0-2 1-4 3-4h1v1c-3 0-1 1 0 2h-1l-2 1h-1Z" opacity=".6"/><path fill="#928664" d="M61 193h18v1H61v-1Z" opacity=".6"/><path fill="#854430" d="M100 194c2-2 5-2 7 0h-7Z" opacity=".9"/><path fill="#905331" d="M110 193h2l1 9c-1 3-4 2-6 1v-2l2 1c4 1 2-6 1-8v-1Z" opacity=".6"/><path fill="#8f7d5b" d="M123 194c2-2 5-1 8-1h1v1h-9Z" opacity=".6"/><path fill="#554130" d="M132 193h2v40h-1v-37l-1-2v-1Z" opacity=".4"/><path fill="#291a11" d="M148 203c0-3-1-7 1-10v46h1l2 1c2 2 4 2 7 2h17l-2 2h-4c-7-2-17 2-22-4v-37Z" opacity=".2"/><path fill="#a58560" d="M153 194c6-2 13 0 20-1l7 2-2 1-5-1h-1l-19-1Z" opacity=".7"/><path fill="#83281e" d="m183 196 3-3h1l-2 4v1h-1l-1-2Z" opacity=".8"/><path fill="#e3a730" d="M230 195c2-2 3-1 5 0-3 3-1 6-1 9l-1 4-2-2-7 2 1-3c-2 0-2 2-3 2-4-1 2-3 3-5 2 3 4-2 6-3l-1-4Z"/><path fill="#804827" d="m280 193 5 1h1l-1 6c-3-1-6-2-6-5v-1l1-1Z" opacity=".8"/><path fill="#a1916b" d="M290 193h25l1 1h-26v-1Z" opacity=".7"/><path fill="#3c291c" d="M320 193a342 342 0 0 0 0 0Z" opacity=".3"/><path fill="#65513a" d="m351 194 4-1v1c-2 0-2 0-2 2v40l1 1v2l-2-1c-1-15 2-30-1-44Z" opacity=".4"/><path fill="#968965" d="M355 193a286 286 0 0 0 18 1h-18v-1Z" opacity=".6"/><path fill="#978360" d="M386 194h10-10Z" opacity=".6"/><path fill="#8e6e4c" d="m411 194 1-1h8l2 1c-2 1-9-2-9 2 0 3 0 6-2 8v-10Z" opacity=".6"/><path fill="#907c59" d="m427 194 1-1h9v1h-10Z" opacity=".6"/><path fill="#5b3e2a" d="M437 193h3l-1 10h-1v-7l-1-2v-1Z" opacity=".4"/><path fill="#2f2016" d="M440 193v40l-1-1v-29l1-10Z" opacity=".2"/><path fill="#8d7d5d" d="M460 194c2-2 6 0 9 0h-9Z" opacity=".6"/><path fill="#623726" d="m11 195 2-1 16 1c-5 0-10-1-15 1h-2l-1-1Z" opacity=".9"/><path fill="#420e0c" d="M61 196c-1-1-3-2 0-2h1c5 1 11 2 16 0h2l-2 7v-1c0-1-1-3-3-3s-7-3-8 0v16h10l-11 1 1 1v1a9256 9256 0 0 1 0 11h-3v-30h-2l-1-1Z"/><path fill="#83402e" d="M62 194h16c-5 2-11 1-16 0Z" opacity=".9"/><path fill="#684f35" d="M80 194c3 2 0 11-4 8l2-1 2-7Z" opacity=".5"/><path fill="#3c120e" d="m94 198 6-4h8c2 1 2 4 1 6l-1-2c-1-3-5-2-8-2-4 2-5 8-2 11 6 6 15 12 14 22-2 4-4 8-8 9l-11-1-1-8h1c-1 4 5 8 9 7l5-4c5-12-12-15-14-26l1-8Z"/><path fill="#693020" d="M108 194h2c1 2 3 9-1 8v-2c1-2 1-5-1-6Z" opacity=".9"/><path fill="#683426" d="m122 195 1-1h9l1 2h-10l-1-1Z" opacity=".9"/><path fill="#673526" d="m151 195 2-1 19 1c-6 0-12-1-18 1h-3v-1Z" opacity=".9"/><path fill="#ab7654" d="M180 194h1l2 2 1 2 4 7-1 1c-2-4-5-7-9-10l2-1v-1Z" opacity=".8"/><path fill="#e09941" d="M205 207c0-4-4-11 1-13v2a824 824 0 0 0-1 11Z"/><path fill="#aa5e3e" d="M206 194h20c-5 1-11 0-17 2h-3v-2Z"/><path fill="#6f1518" d="M226 194h1v7l-2-2-2-2c-2-2-6-2-8 0-2 5 0 11-1 16h-1v-17h-2l-1 1-1-1c6-2 12-1 17-2Z"/><path fill="#dfa44c" d="M227 196c1-1 2-2 3-1l1 4c-2 1-4 6-6 3v-3l2 2v-5Z"/><path fill="#624133" d="m242 196 1-2v39h-1v-37Z"/><path fill="#77070f" d="M243 194h1v9c0 10 1 21-1 31v-40Z"/><path fill="#964b33" d="M267 195c2-2 5-1 8-1h4v1l-2 1h-7l-3-1Z"/><path fill="#ac8954" d="M286 194h1l-1 7-1-1 1-6Z" opacity=".8"/><path fill="#593623" d="M287 194h1v7h-2l1-7Z"/><path fill="#711317" d="M288 194h2l15 1v2a170 170 0 0 0 1 38v1h-7l1-1c2-9 0-20 1-30-1-2 1-6-1-8-3-2-7-2-10 0l-1 1h-1v-4Z"/><path fill="#944232" d="M290 194h26l-11 1-15-1Z" opacity=".9"/><path fill="#4c1110" d="M316 194h1v5l-2-1c-3-2-7-1-10-1v-2l11-1Z"/><path fill="#633825" d="M317 194h1v8h-2l1-3v-5Z" opacity=".8"/><path fill="#926f49" d="M318 194c2 0 1 4 1 5l-1 3v-8Z" opacity=".6"/><path fill="#402f20" d="M351 203c0-3-2-6 0-9 3 14 0 29 1 44v1h-1v-36Z" opacity=".3"/><path fill="#753d2c" d="M353 196c0-2 0-2 2-2a417 417 0 0 0 1 2h-3Z" opacity=".9"/><path fill="#3e0a09" d="M372 194h2v1l-2 4-2-2h-1l-8-1v-1l11-1Z"/><path fill="#6d573e" d="M374 194c2 1 1 6 1 8l-4 1c-5-3-7 1-6 6h-1c-1-5 0-12 7-9l1 1h2v-7Z" opacity=".5"/><path fill="#623425" d="M384 196c0-2 0-2 2-2h10l1 1-1 1h-12Z" opacity=".9"/><path fill="#3d2d20" d="M399 194h1l4 16c3-1 3-5 4-8l2-1c-2 4 0 13-7 13l-2-5-2-9v-6Z" opacity=".3"/><path fill="#6c5640" d="m410 201 1-7v11l-5 15-2-1-1-3v-2c7 0 5-9 7-13Z" opacity=".4"/><path fill="#643123" d="M413 196c0-4 7-1 9-2h1v2h-10Z" opacity=".9"/><path fill="#5a4430" d="M423 194h3v8h-1c1-3-1-3-3-2l1-4v-2Z" opacity=".4"/><path fill="#7b644a" d="M426 194h1v8h-1v-8Z" opacity=".5"/><path fill="#6d3427" d="M427 194h10l1 2h-11v-2Z" opacity=".9"/><path fill="#563123" d="m459 195 1-1h11v2h-12v-1Z" opacity=".9"/><path fill="#4d3a29" d="M471 194c2 2 1 5 1 8h-1v-8Z" opacity=".4"/><path fill="#a58261" d="m10 196 1-1 1 1 1 7v33h-1l-1-1v-1c2-11 1-23 1-35l-1-1-1-2Z" opacity=".7"/><path fill="#350e0b" d="M14 196c5-2 10-1 15-1 4 1 6 3 7 7 1 6-1 11-6 15l4 6c3 5 6 9 10 12l4 1-1 1h-6c-7-3-10-12-14-18h-8c0 5-1 10 1 14v1l2 2h2v1H14l-2-1h1c1 0 2-1 2-3v-1l1-1c2-10 1-21 1-31l-1-1-1-1v-1l-1-1m6 1h-1v19h1c0 2 10 2 8 0 1-1 3-2 3-4h1c-1-2 2-9-1-9 0-5-7-9-11-6Z"/><path fill="#92785a" d="m121 197 1-2 1 1c-1 13 1 27-1 40v1h2l-1 2h-2v-5c1-12 2-25 0-37Z" opacity=".6"/><path fill="#551011" d="M125 196h6l-1 1v7h-3l-1-5-1-3Z"/><path fill="#83694e" d="m150 197 1-2v1c2 13 0 27 1 40l1 1v1l2 1v1h-3l-2-1v-5c1-12 2-24 0-36v-1Z" opacity=".6"/><path fill="#360b0a" d="M154 196c6-2 12-1 18-1h1c1 1 3 2 2 4l-4-1-2-1c-3 0-7-2-9 0-2 11-1 23-1 35l1 1 1 1 2 1c3 1 6 2 9 0l2-1 4-2 2 2c-2 1-4 3-7 3a485 485 0 0 0-19-2v-1c2-8 1-17 1-25-1-4 1-9-1-13Z"/><path fill="#561817" d="m173 195 5 1c4 3 7 6 9 10 2 10 1 21-7 28l-2-2 3-4c4-9 3-22-6-29 1-2-1-3-2-4Z"/><path fill="#952526" d="M244 195c10 10 18 21 26 32l2 2h1c0 3 0 5-2 6l-16-19-4-4-6-8-1-1v-8Z"/><path fill="#8b1218" d="M270 196h5v1c-2 7-1 14-1 21v20l-3-3c2-1 2-3 2-6 0-8 1-16-1-23 0-3 1-7-1-9l-1-1Z"/><path fill="#b3722f" d="m277 196 2-1c0 3 3 4 6 5l1 1 2 4v1h-1c-4-3-8-6-10-10Z" opacity=".9"/><path fill="#3a0f0c" d="m356 196 2-1v24h3c1 5-1 10 1 14l1 1c2 1 7 2 9 0l1-2a259 259 0 0 0 2-1l-1 6h-20l-1-1h1l2-1v-1c2-8 1-17 1-25-1-4 1-9-1-12v-1Z"/><path fill="#510d0f" d="M358 195h3v24h-3v-24Z"/><path fill="#603424" d="m372 199 2-4v6h-2v-2Z" opacity=".9"/><path fill="#471211" d="M388 196h7c0 8 5 15 7 23l2 9-2 7a3007 3007 0 0 0-14-39Z"/><path fill="#876448" d="m397 195 2 5 2 9-5-13 1-1Z" opacity=".6"/><path fill="#421812" d="M415 196h5l-4 10-7 20-2 5-1-3 1-6c3-5 4-10 5-15 1-4 5-8 3-11Z"/><path fill="#561312" d="M429 196h7l-1 12v19l-4 4v-4l1-14c2 0 0 4 2 4v-16c-3 2-2-2-3-3l-1-1-1-1Z"/><path fill="#75614b" d="m458 197 1-2v1c2 8 1 17 1 26-1 4 1 9-1 13 0-13 1-25-1-37v-1Z" opacity=".5"/><path fill="#340505" d="M462 196h6v1c-2 11-1 22-1 33l-3-1c-1-10 1-21-1-31v-1l-1-1Z"/><path fill="#cdb187" d="M12 196h2l1 1-1 6h-1l-1-7Z" opacity=".9"/><path fill="#dcbf93" d="M20 197c4-3 11 1 11 6v9c0 2-2 3-3 4l-1-1 2-2c2-2 2-7 0-9l-3-5c-3-2-5-2-5 1l1 16h-2v-19Z" opacity=".9"/><path fill="#93785a" d="m58 197 2-1v40c-1 1-1 1 1 1v1c4 2 11 0 16 1l-16 1h-1l-2-6c2-12 1-24 1-36l-1-1Z" opacity=".6"/><path fill="#c7ad85" d="M60 196h1l1 1-1 5h-1v-6Z" opacity=".8"/><path fill="#4d3c2b" d="M67 197c1-3 6 0 8 0h-8Z"/><path fill="#4f3d2c" d="m88 200 3-4v2c-4 7 0 16 6 21 2 4 8 6 6 11-1 4-7 2-9-1l1-2c1 2 3 4 6 3 2-3-1-5-2-7-4-3-8-7-10-11l-1-12Z" opacity=".3"/><path fill="#b29774" d="M98 207c-3-3-2-9 2-11l5 2c-5-4-10 4-6 7h1v1l-2 1Z" opacity=".8"/><path fill="#bfb17f" d="M100 196c3 0 7-1 8 2h-3l-5-2Z" opacity=".9"/><path fill="#c7a27a" d="M123 196h2c-1 13-2 26 0 39l-3 1c2-13 0-27 1-40Z" opacity=".8"/><path fill="#ac9170" d="m130 197 1-1h1v9l-2-8Z" opacity=".7"/><path fill="#94694a" d="M132 196h1v37l2 3h-3v-40Z" opacity=".6"/><path fill="#c2966e" d="M151 196h2v10c1 10-1 20 1 29l-2 1c-1-13 1-27-1-40Z" opacity=".8"/><path fill="#dfc79d" d="M153 196h1v10h-1v-10Z" opacity=".9"/><path fill="#b7b994" d="M154 196c2 4 0 9 1 13 0 8 1 17-1 25v-38Z"/><path fill="#6d6244" d="M160 197c2-2 6 0 9 0h-9Z" opacity=".9"/><path fill="#e5b269" d="M206 196h1l1 22-2-7v-15Z"/><path fill="#ecc489" d="M207 196h2l1 1c-2 11-1 23-1 35l1 1c0 2-2 3-3 3 2-6 1-12 1-18l-1-22Z"/><path fill="#881f20" d="M211 196h2v17h2v3c-1 5-2 10 0 15 0 2 1 2 2 3 2 2 6 2 8 0l2-2v-1h2l-2 6-16-1v-3c2-11 1-23 1-35l-1-2Z"/><path fill="#5a432e" d="M215 197a786 786 0 0 1 0 0Z"/><path fill="#edd898" d="m240 197 2-1v13l-2-3v-9Z"/><path fill="#f3d688" d="M275 196h1l3 6-4-2v-4Z"/><path fill="#e0b552" d="M276 196h1c2 4 6 7 10 10v1h-1l-7-5-3-6Z"/><path fill="#431e17" d="M290 197c3-2 7-2 10 0h-10Z"/><path fill="#b39774" d="M353 196h2v36l1 3-2 1c-1-13 1-26-1-39v-1Z" opacity=".7"/><path fill="#e1cda2" d="M355 196h1v39l-1-3v-36Z" opacity=".9"/><path fill="#513c2c" d="m361 196 8 1h-8v-1Z"/><path fill="#8e765a" d="M384 196h2l14 39 3 3h2v1c-2 2-3 0-5-1-7-13-10-28-16-42Z" opacity=".6"/><path fill="#cbb894" d="M386 196h2l2 2a3007 3007 0 0 1 10 37l-14-39Z" opacity=".9"/><path fill="#b58c69" d="M402 219c-2-8-7-15-7-23h1l5 13 2 5v2l-1 3Z" opacity=".8"/><path fill="#baa67b" d="M413 196h2c2 3-2 7-3 11l-1-2v-1c2-2 2-5 2-8Z" opacity=".8"/><path fill="#a88b67" d="M420 196h1l-3 10h-2l4-10Z" opacity=".8"/><path fill="#7b6248" d="M421 196h2l-1 4-4 8v-2l3-10Z" opacity=".5"/><path fill="#9a8063" d="M427 196h1v40h-1v-5a4659 4659 0 0 0 0-35Z" opacity=".6"/><path fill="#c2a47e" d="M428 196h1l1 1-1 13h-1v-14Z" opacity=".8"/><path fill="#bc9672" d="m435 208 1-12 1 8v4h-2Z" opacity=".8"/><path fill="#a9916f" d="M436 196h1v8l-1-8Z" opacity=".7"/><path fill="#846348" d="M437 196h1v11h-1v-11Z" opacity=".6"/><path fill="#b08b68" d="M459 196h2v40h-1l-1-1c2-4 0-9 1-13 0-9 1-18-1-26Z" opacity=".7"/><path fill="#cdb28b" d="M461 196h1l1 1-1 10h-1v-11Z" opacity=".8"/><path fill="#9f8161" d="M468 196h2v13h-1v-1l-1-11v-1Z" opacity=".7"/><path fill="#7f5e43" d="M470 196h1v6c1 10-1 20 1 29v1l-2-2v-34Z" opacity=".5"/><path fill="#352519" d="m9 197 1-1v43H9v-42Z" opacity=".2"/><path fill="#53402d" d="m10 196 1 2v37h-1v-39Z" opacity=".3"/><path fill="#f3e5b4" d="m14 203 1-6v36l-1-7v-23Z"/><path fill="#7a4333" d="M19 197h1v19h-1v-19Z"/><path fill="#4d3927" d="M57 197h1v37l2 6h-2l-1-1v-42Z" opacity=".3"/><path fill="#665541" d="m58 197 1 1c0 12 1 24-1 36v-37Z" opacity=".4"/><path fill="#f9dcac" d="m61 202 1-5v38c-2-11 0-22-1-33Z"/><path fill="#7b775f" d="M62 197h1v36h-1v-36Z"/><path fill="#200101" d="M63 197h1v30l-1 6v-36Z"/><path fill="#c8b690" d="M67 197h8c-3 0-7 0-6 4v3l-2-1v-6Z" opacity=".8"/><path fill="#aa9771" d="M75 197c2 0 3 2 3 3-3 0-7-2-8 1h-1c-1-4 3-4 6-4Z" opacity=".8"/><path fill="#a39771" d="m93 197 1 1-1 8h-1l-1-5 1-3 1-1Z" opacity=".8"/><path fill="#695641" d="M121 197a924 924 0 0 1 0 1v-1Z" opacity=".4"/><path fill="#eedfb1" d="M125 235c-2-13-1-26 0-39v39Z" opacity=".9"/><path fill="#867a61" d="m125 196 1 3v34h-1v-37Z"/><path fill="#c89a73" d="m130 197 2 8v31h-1c-2-11-1-21-1-32v-7Z" opacity=".9"/><path fill="#432f20" d="M149 197h1v42h-1v-42Z" opacity=".3"/><path fill="#9d644a" d="M159 232c0-12-1-24 1-35v36l-1-1Z"/><path fill="#cfba8d" d="M160 197h9l2 1-1 1-9-1v8h-1v-9Z" opacity=".8"/><path fill="#8e341e" d="M194 197c3 2 2 7 4 9 0 3 2 4 3 6v3h-2c0-4-5-6-5-11v-7Z" opacity=".9"/><path fill="#f4ebb2" d="M209 232c0-12-1-24 1-35v36l-1-1Z"/><path fill="#6d5c49" d="m210 197 1-1v37h-1v-36Z"/><path fill="#510608" d="m211 196 1 2c0 12 1 24-1 35v-37Z"/><path fill="#994031" d="M214 213c1-5-1-11 1-16v16h-1Z"/><path fill="#f2d192" d="M215 197a786 786 0 0 0 10 2c-3-1-8-2-8 3-2 4 1 8 3 11h-5v-16Z"/><path fill="#f0ba66" d="M237 197h3v9c0 4 2 8 0 12l-2-4v-1c2-5-1-10-1-16Z"/><path fill="#69543f" d="M271 197c2 2 1 6 1 9v10h-1v-19Z"/><path fill="#c67c60" d="M274 218c0-7-1-14 1-21v21h-1Z"/><path fill="#bcab81" d="M290 197h7l1 3v2c-2-4-6-3-9-4l1-1Z" opacity=".8"/><path fill="#c9cda4" d="M297 197h3v36c-3-11 1-22-2-33l-1-3Z" opacity=".9"/><path fill="#4e2e24" d="M300 197c2 2 0 6 1 8-1 10 1 21-1 30v-38Z"/><path fill="#954c3e" d="M305 233c-2-12-1-24 0-36v36Z"/><path fill="#c8b087" d="M305 197c3 0 7-1 10 1l-8 1-1 9v27l-1-2v-36Z" opacity=".8"/><path fill="#866f56" d="M353 197c2 13 0 26 1 39h-1v-39Z" opacity=".5"/><path fill="#b8ae8e" d="M356 197c2 3 0 8 1 12 0 8 1 17-1 25v-37Z"/><path fill="#a97760" d="M361 197h1v16h-1v-16Z" opacity=".9"/><path fill="#cab891" d="M362 197h8l-6 2c-1 3-4 12 2 13v1h-4v-16Z" opacity=".8"/><path fill="#af9e73" d="m370 197 2 2v2l-1-1-7-1 6-2Z" opacity=".8"/><path fill="#ebd9ab" d="m429 210 1-13v37l-1-5v-19Z"/><path fill="#72664f" d="m430 197 1 1v29a253 253 0 0 0-1 6v-36Z"/><path fill="#3a281b" d="M457 197h1v42h-1v-42Z" opacity=".2"/><path fill="#dbcea4" d="m462 207 1-10v34l-1 5h-1v-5l1-24Z"/><path fill="#713d2d" d="M467 230c0-11-1-22 1-33v34l-1-1Z"/><path fill="#c0ab86" d="m468 197 1 11h-1v-11Z" opacity=".8"/><path fill="#6e5c47" d="m11 198 1 1c0 12 1 24-1 35v-36Z" opacity=".5"/><path fill="#5c5542" d="m15 198 1 1v32l-1 1v-34Z"/><path fill="#c09974" d="M21 200c0-3 2-3 5-1l-4 1h-1Z" opacity=".8"/><path fill="#7c563c" d="m37 198 2 3v9l-2 3 1-9-1-6Z" opacity=".5"/><path fill="#856d53" d="M91 198h1l-1 3c0 3-1 6 1 9 3 6 8 10 12 15l-1 9c-2 0-2 1-1 2-4 1-10-3-9-7h1c2 3 8 5 9 1 2-5-4-7-6-11-6-5-10-14-6-21Z" opacity=".6"/><path fill="#9d7f61" d="M99 205c-4-3 1-11 6-7h1v1c-6-2-8 1-7 6Z" opacity=".6"/><path fill="#af9160" d="M106 198h2l1 2v2l-2-1-1-1v-2Z" opacity=".8"/><path fill="#4d3927" d="M120 198h1v41h-1v-41Z" opacity=".3"/><path fill="#5f4936" d="M150 198c2 12 1 24 0 36v-36Z" opacity=".4"/><path fill="#a47e5d" d="m161 198 9 1 2 1 1 2h-1l-4-2c-4-3-6 0-6 3v3h-1v-8Z" opacity=".7"/><path fill="#d3c09b" d="m170 199 1-1 4 1c9 7 10 20 6 29l-1-1c1-7 2-16-3-22-1-2-2-5-5-5l-2-1Z" opacity=".9"/><path fill="#955939" d="M184 198h1l3 4c3 5 4 11 4 16v3c-2 4-2 8-6 10h-1c5-7 7-18 3-26l-4-7Z" opacity=".8"/><path fill="#ebc170" d="M217 202c0-5 5-4 8-3v2c-2 1-6 0-7 3-1 4 3 9 7 8l-1 1h-4c-2-3-5-7-3-11Z"/><path fill="#a4815e" d="M288 198h1c3 1 7 0 9 4v14l-2-1c0-3 3-9 0-12-1-3-4-4-7-2h-1v-3Z" opacity=".8"/><path fill="#9f8463" d="m315 198 2 1-1 3c-2-1-5-3-7-1-3 1-2 4-2 7h-1l1-9 8-1Z" opacity=".7"/><path fill="#370606" d="M431 198c1 1 0 5 3 3v16c-2 0 0-4-2-4l-1 14v-29Z"/><path fill="#554331" d="M458 198c2 12 1 24 1 37l-1-1v-36Z" opacity=".3"/><path fill="#413226" d="M463 198c2 10 0 21 1 31l-1 2v-33Z"/><path fill="#1d0202" d="m16 199 1 1c0 10 1 21-1 31v-32Z"/><path fill="#8e7055" d="m22 200 4-1 3 5v8h-1c0-3 2-8-2-9l-3-1v12c-2-4-1-9-1-14Z" opacity=".6"/><path fill="#2a1d14" d="M56 199h1v40c-2-4-1-8-1-12v-28Z" opacity=".2"/><path fill="#877154" d="M70 201c1-3 5-1 8-1v1l-2 1c-1-3-4-1-6 0v-1Z" opacity=".6"/><path fill="#7d664e" d="M99 205c-1-5 1-8 7-6v1h-5l-1 5h-1Z" opacity=".5"/><path fill="#160302" d="m126 199 1 5c-1 9 1 19-1 28v-33Z"/><path fill="#816348" d="M162 203c0-3 2-6 6-3-1 0-4 0-4 2l-1 1h-1Z" opacity=".6"/><path fill="#83351d" d="M319 199h1v3l-2 2-2-1 2-1 1-3Z" opacity=".6"/><path fill="#9d8061" d="M366 212c-6-1-3-10-2-13l7 1c-7-3-8 4-7 9l2 3Z" opacity=".6"/><path fill="#382a1e" d="M422 200c2-1 4-1 3 2v33c0 2 1 4 3 5 3 2 7 3 9 0h2c-4 5-12 4-15-1v-36h-2l-11 33-5 5c-3 0-7 0-8-3h2c2 1 3 3 5 1 4-2 5-7 6-11v-1l7-19 4-8Z" opacity=".2"/><path fill="#e39769" d="M21 200h1c0 5-1 10 1 14l4 1 1 1c2 2-8 2-8 0h2l-1-16Z"/><path fill="#695039" d="M70 202c2-1 5-3 6 0-2 0-5-1-5 2-3 9 7 4 9 8l-1 7c1-3 1-5-1-7s-6 0-8-2v-8Z" opacity=".4"/><path fill="#302319" d="M89 212c-3-3-2-8-1-12l1 12Z" opacity=".2"/><path fill="#624e3a" d="M101 200h5l1 1v1l-5-1-1 5h-1v-1l1-5Z" opacity=".4"/><path fill="#66442e" d="M164 202c0-2 3-2 4-2l4 2 5 5 2 5v11h-1l-1-11c-2-4-4-8-8-9l-5-1Z" opacity=".5"/><path fill="#be9b75" d="M172 200c3 0 4 3 5 5l-4-3-1-2Z" opacity=".8"/><path fill="#7a281c" d="m188 202 5-2 1 4c0 5 5 7 5 11l-7 3c0-5-1-11-4-16Z" opacity=".8"/><path fill="#f9edbf" d="m275 200 4 2 7 5c3 3 5 7 6 12 2 2 0 5-1 7-5 4-10 8-16 10v-36Z"/><path fill="#724e2f" d="M289 201c3-2 6-1 7 2-1 2 2 9-2 9l-2-3v-1c2 1 6 3 3-4 0-4-5-2-6 1h-1l1-4Z" opacity=".6"/><path fill="#d4b48b" d="M298 200c3 11-1 22 2 33v2l-1 1h-1v-36Z" opacity=".9"/><path fill="#785a40" d="M309 201c2-2 5 0 7 1h2l-2 1h-2c-4-3-8 0-6 5 0 8-1 17 1 25v3h-1c-2-9-1-19-1-28 0-3-1-6 2-7Z" opacity=".5"/><path fill="#483a2a" d="M39 201c2 2 1 7 0 9v-9Z" opacity=".3"/><path fill="#a17956" d="M69 201h1v9c2 2 6 0 8 2l-1 1h-5c-4-2-3-5-3-9v-3Z" opacity=".7"/><path fill="#c7b287" d="m91 201 1 5v4c-2-3-1-6-1-9Z" opacity=".8"/><path fill="#453122" d="m102 201 5 1v1l-5 1 5 7-6-5 1-5Z" opacity=".3"/><path fill="#eab951" d="M218 204c1-3 5-2 7-3v1c-1 2-7 4-3 5l6 3v10h-1v-7l-2-1c-4 1-8-4-7-8Z"/><path fill="#906131" d="M286 201h3l-1 4-2-4Z" opacity=".8"/><path fill="#443021" d="m23 202 3 1c1 4 3 10-3 9v-10Z" opacity=".3"/><path fill="#bd926b" d="m36 202 2 2-1 9c-3 2-3 5-2 8l-1 2-4-6c5-4 7-9 6-15Z" opacity=".8"/><path fill="#dba477" d="M60 202h1c1 11-1 22 1 33l-2 1v-34Z" opacity=".9"/><path fill="#402c1d" d="m163 203 1-1 5 1-5 1c0 9-1 17 1 25 1 2 3 1 5 1l4-2-3 4h-7l-1-1v-28Z" opacity=".3"/><path fill="#8c664a" d="M172 202h1l4 3v2l-5-5Z" opacity=".7"/><path fill="#492c17" d="M289 205c1-3 6-5 6-1 3 7-1 5-3 4l-3-3Z" opacity=".5"/><path fill="#473526" d="M308 208c-2-5 2-8 6-5l-5 1v29c-2-8-1-17-1-25Z" opacity=".3"/><path fill="#483626" d="M365 209c-1-5 1-9 6-6-2 0-6 0-5 3 0 5 6 2 9 4 1 3 3 8-1 10 0-2 1-6-1-8l-8-3Z" opacity=".3"/><path fill="#4b3a29" d="M425 202h1v29l-1 4v-33Z" opacity=".3"/><path fill="#685642" d="M426 202h1v29h-1v-29Z" opacity=".4"/><path fill="#403325" d="M471 202h1v22c-3 6 3 7 7 6l-7 1c-2-9 0-19-1-29Z" opacity=".3"/><path fill="#e8ae7d" d="M13 203h1v23h-1v-23Z" opacity=".9"/><path fill="#69543e" d="M26 203c4 1 2 6 2 9-1 2-3 2-5 2v-2c6 1 4-5 3-9Z" opacity=".4"/><path fill="#938e6e" d="M31 203c3 0 0 7 1 9h-1v-9Z"/><path fill="#dcb186" d="m67 203 2 1c0 4-1 7 3 9h-5v-10Z" opacity=".9"/><path fill="#70513a" d="M162 203h1v28h-1v-28Z" opacity=".5"/><path fill="#29120b" d="m164 204 5-1c4 1 6 5 8 9-1 5 1 12-3 16l-4 2c3-4 6-7 6-12-1-6-3-13-10-14-3 8 0 17-1 25-2-8-1-16-1-25Z" opacity=".3"/><path fill="#bd2e2d" d="m244 203 1 1v19c0 3-1 7 1 10l1 3c-2 0-5 1-4-2 2-10 1-21 1-31Z"/><path fill="#896644" d="M296 203c3 3 0 9 0 12h-1l-1-3c4 0 1-7 2-9Z" opacity=".7"/><path fill="#2c1c12" d="m309 204 5-1h2l2 1v1c-2 0-6-3-8 0 0 10-1 20 1 29h-2v-30Z" opacity=".2"/><path fill="#130d08" d="M422 203h2v36c3 5 11 6 15 1l3-2-1 4c-2 4-8 1-11 2-3 2-5 0-7-2-3-5 0-10 0-15v-16h-2l-8 23c-1 4-3 8-7 9-3 2-8 0-9-3 3 1 6 3 9 1l5-5 11-33Z" opacity=".1"/><path fill="#4b3d2d" d="M438 203h1v29h-1v-29Z" opacity=".3"/><path fill="#c39c75" d="M29 204c2 2 2 7 0 9v-9Z" opacity=".8"/><path fill="#3a0807" d="M127 204h3c0 11-1 21 1 32-3 0-6 1-5-3v-1c2-9 0-19 1-28Z"/><path fill="#110403" d="M166 204c7 1 9 8 10 14 0 5-3 8-6 12-2 0-4 1-5-1 1-8-2-17 1-25Z" opacity=".1"/><path fill="#eab333" d="m234 204 4 9v1l-1 2c-2-1-3-4-5-3-2 0-2 2-1 4l-3 3v-10l-6-3c1 0 1-2 3-2l-1 3 7-2 2 2 1-4Z"/><path fill="#e3dabc" d="m245 204 6 8c-1-1-3-3-5-2h-1v-6Z"/><path fill="#0c0604" d="M310 205c2-3 6 0 8 0-1 3-4 2-6 3v27l-1-1c-2-9-1-19-1-29Z" opacity=".1"/><path fill="#b28a67" d="M177 205c5 6 4 15 3 22h-1v-4c0-3 2-8 0-11l-2-5v-2Z" opacity=".8"/><path fill="#c7996d" d="m187 206 1-1c4 8 2 19-3 26l-5 6-2 1-5 1v-2c3 0 5-2 7-3 8-7 9-18 7-28Z" opacity=".9"/><path fill="#c07b33" d="m203 205 2 2 1 3v23h-1l-1-20-1-8Z"/><path fill="#7e5321" d="M288 205h1l3 3v1l-4-3v-1Z" opacity=".8"/><path fill="#d49e6b" d="m411 205 1 2c-1 5-2 10-5 15-2 0-4 0-3-3l2 1 5-15Z" opacity=".9"/><path fill="#d3be9b" d="M92 206h1c2 11 19 14 14 26l-2-6-1-1c-4-5-9-9-12-15v-4Z" opacity=".9"/><path fill="#c68b62" d="m98 207 2-1h1l6 5 4 5c2 4 2 9 2 13h-1c1-10-8-16-14-22Z" opacity=".9"/><path fill="#f9c998" d="M153 206h1v29c-2-9 0-19-1-29Z"/><path fill="#f8b782" d="M160 206h1c1 8-2 17 1 25 0 2 2 4-1 3l-1-1v-27Z"/><path fill="#d57d50" d="M161 206h1v25c-3-8 0-17-1-25Z" opacity=".9"/><path fill="#ebc986" d="m240 206 2 3v24l-2 3v-18c2-4 0-8 0-12Z"/><path fill="#690e14" d="M272 206c2 7 1 15 1 23h-1v-23Z"/><path fill="#bb903e" d="M287 206h1l4 3 2 3 1 3v1a331 331 0 0 1-8-9v-1Z"/><path fill="#d18051" d="M416 206h2v2l-7 19-2-1 7-20Z" opacity=".9"/><path fill="#e9d483" d="M286 207h1c2 2 5 4 6 7l1 9c-2 5-6 7-10 11l-6 4h-3v-2c6-2 11-6 16-10 1-2 3-5 1-7-1-5-3-9-6-12Z"/><path fill="#a56946" d="M437 207h1v25l1 4h-2v-29Z" opacity=".7"/><path fill="#f3b380" d="M461 207h1l-1 24v-24Z"/><path fill="#b17e5a" d="M306 208h1c0 9-1 19 1 28h-2v-28Z" opacity=".7"/><path fill="#e99f6e" d="M435 208h2v23h-2v-23Z"/><path fill="#eeaf7e" d="M468 208h1v1c0 7-1 15 1 21l2 2 3 1-5 1-2-3v-23Z"/><path fill="#f1d99a" d="M246 210c2-1 4 1 5 2l4 4-1 10-2 9v-6c1-4 2-8 0-11-1-3-2-7-6-5v-3Z"/><path fill="#826a4e" d="M364 209h1l8 3-2 1h-5v-1l-2-3Z" opacity=".6"/><path fill="#e38757" d="M469 209h1v21c-2-6-1-14-1-21Z" opacity=".9"/><path fill="#eebe72" d="M245 210h1v3c4-2 5 2 6 5h-1c-1-1-2-3-4-3v16l3-1 2-1v10l-7 2 2-2-8-1h11v-1l-3-1-1-3v-10l-1-9v-4Z"/><path fill="#e2a272" d="M428 210h1v19h-1v-19Z" opacity=".9"/><path fill="#a35e25" d="m201 212 1-1 2 2 1 20-3 7h-1l1-5 1-2c2-2 1-5 0-8 2-4-1-7-2-10v-3Z" opacity=".9"/><path fill="#d9a05e" d="m206 211 2 7c0 6 1 12-1 18l-1-3v-22Z"/><path fill="#130c07" d="m440 211 2 24-2-2v-22Z" opacity=".1"/><path fill="#b0825f" d="M28 212h1v1l-2 2-4-1c2 0 4 0 5-2Z" opacity=".7"/><path fill="#573523" d="m77 213 1-1c2 2 2 4 1 7v1h-2v-7Z" opacity=".8"/><path fill="#513a27" d="m80 212 1 6-1 3h-1v-2l1-7Z" opacity=".3"/><path fill="#573725" d="m177 212 1 11-2 7-4 2h-1l3-4c4-4 2-11 3-16Z" opacity=".4"/><path fill="#8f6b4d" d="M179 212c2 3 0 8 0 11v-11Z" opacity=".7"/><path fill="#791115" d="m225 212 2 1-1 3-4-1h-7v-1c3-1 7 1 9-1l1-1Z"/><path fill="#3c0808" d="m371 213 2-1v2l-2 3-1-1h-1l-8-1v-1c3 0 7 1 10-1Z"/><path fill="#6b553c" d="M373 212c2 2 1 6 1 8l-1 1c-3 0-6-1-8 1v8l-1-9 6-2h1c3 3 2-2 2-5v-2Z" opacity=".5"/><path fill="#755840" d="M35 221c-1-3-1-6 2-8l-1 8h-1Z" opacity=".5"/><path fill="#240906" d="M77 213v4h-1l-1-1c-2-2-6-1-8-1l-1-1 11-1Z"/><path fill="#211a12" d="M82 213c2 3 1 8-2 9v-1l1-3 1-5Z" opacity=".1"/><path fill="#b24b3b" d="M215 213a146 146 0 0 1 9 0c-2 2-6 0-9 1v-1Z"/><path fill="#e2992e" d="m226 216 1-3v7h1l3-3 1 2c1 4-3 3-4 6 2-1 3 0 4 2 2-1 3-2 3-4l1-1c2 1 2 3 2 5-3-2-5 2-3 4 1 4-3 4-5 5l-1-5h-9c-1-3-4-8 0-8v5c1-2 3-3 5-1 3-3-2-4-4-4 1-2 4-1 5-3v-4Z"/><path fill="#e28f20" d="M231 217c-1-2-1-4 1-4 2-1 3 2 5 3l-1 6-1 1c-1-2 0-7-3-4l-1-2Z"/><path fill="#79352a" d="M361 213h10c-3 2-7 1-10 1v-1Z" opacity=".9"/><path fill="#e7a855" d="m237 216 1-2 2 4v18h-2v-9c0-2 0-4-2-5l1-6Z"/><path fill="#de995c" d="m245 214 1 9h-1v-9Z"/><path fill="#d5af5f" d="m293 214 2 2v7h-1l-1-9Z"/><path fill="#5d3826" d="m371 217 2-3c0 3 1 8-2 5v-2Z" opacity=".9"/><path fill="#524735" d="M67 215c2 0 6-1 8 1h-8v-1Z"/><path fill="#6d2d19" d="m192 218 7-3h1c0 4-1 9 3 10v8l-1 2h-1c0-4 1-9-3-11l-3-1-3-2v-3Z" opacity=".7"/><path fill="#7d451d" d="M200 215h1c1 3 4 6 2 10-4-1-3-6-3-10Z" opacity=".8"/><path fill="#5e5039" d="M215 215h7v1h-7v-1Z"/><path fill="#592c1e" d="m222 215 4 1v4l-1-1c0-2-1-3-3-3v-1Z"/><path fill="#dda048" d="M247 215c2 0 3 2 4 3l-1 12-3 1v-16Z"/><path fill="#b98f59" d="M295 215h1l2 1v7l-1 1h-2v-9Z" opacity=".9"/><path fill="#564735" d="m361 215 8 1h-8v-1Z"/><path fill="#d3c199" d="M67 216a726 726 0 0 1 9 1c-3-1-7-1-7 3l-2-1v-3Z" opacity=".9"/><path fill="#8d5f41" d="M111 216c2 1 3 3 3 5 0 3 1 6-1 9v-1c0-4 0-9-2-13Z" opacity=".6"/><path fill="#983d2f" d="M215 231c-2-5-1-10 0-15v15Z"/><path fill="#f6dba4" d="M215 216h5l-5 4v-4Z"/><path fill="#f1c77e" d="M220 216h2c2 0 3 1 3 3-4 0-10 3-8 8 0 5 6 7 10 5l-2 2h-8c-1-1-2-1-2-3v-11l5-4Z"/><path fill="#eedcab" d="m254 226 1-10 16 19 3 3h1c-5 6-13 5-19 10l-7 6-8 5c-3 0-6 3-8 5l-3 3h-2c2-3 3-6 6-8 7-4 14-7 20-12 4-3 9-3 13-6 1-6-5-10-8-15-1-2-4-1-5 0Z"/><path fill="#94866a" d="M271 216h1v13l-2-2 1-11Z"/><path fill="#a0725b" d="M361 216h1a428 428 0 0 0 0 17c-2-4 0-9-1-14v-3Z" opacity=".9"/><path fill="#d0c49b" d="M362 216h8c-3 0-8 1-7 5h-1v-5Z" opacity=".8"/><path fill="#ae9873" d="m370 216 1 1v2h-1c-3-2-6-1-6 2h-1c-1-4 4-5 7-5Z" opacity=".7"/><path fill="#d2b28f" d="m403 216 1 3c-1 3 1 3 3 3l-1 6h-2l-2-9 1-3Z" opacity=".9"/><path fill="#b59b73" d="M69 220c0-4 4-4 7-3h1v2c-3-1-6-1-8 1Z" opacity=".7"/><path fill="#927254" d="M69 220c2-2 5-2 8-1v1l-5-1c-4 3-1 8-2 12l-1-11Z" opacity=".6"/><path fill="#da791c" d="M232 219c3-3 2 2 3 4 0 2-1 3-3 4-1-2-2-3-4-2 1-3 5-2 4-6Z"/><path fill="#e9cc4e" d="M251 218h1c2 3 1 7 0 11l-2 1 1-12Z"/><path fill="#d88d6f" d="M274 218h1v20h-1v-20Z"/><path fill="#8d765a" d="M364 221c0-3 3-4 6-2l-6 2Z" opacity=".6"/><path fill="#713d2f" d="M19 219h1a1089 1089 0 0 0 0 14c-2-4-1-9-1-14Z"/><path fill="#d6b990" d="M20 219h7c4 6 7 15 14 18l2 2c-9 0-13-11-18-17-2-1-3 1-3 3l-1 2h-1v-8Z" opacity=".9"/><path fill="#cba880" d="m67 219 2 1 1 11 1 1v2h-2c-3-1-2-4-2-7v-8Z" opacity=".9"/><path fill="#65503b" d="m72 219 5 1h2v1c-3 0-6-1-8 1v8c2 2 4 1 6 1l-6 1-1-1c1-4-2-9 2-12Z" opacity=".4"/><path fill="#eaae51" d="M217 227c-2-5 4-8 8-8l1 1c-1 2-4 1-5 3h-1c-4 0-1 5 0 8h7v1c-4 2-10 0-10-5Z"/><path fill="#cf8357" d="M35 221h1l10 13-2 1c-4-3-7-7-10-12l1-2Z" opacity=".9"/><path fill="#3c2b1d" d="M71 222c2-2 5-1 8-1h1v1h-7c-3 2-2 11 4 7h1l-1 2c-2 0-4 1-6-1v-8Z" opacity=".3"/><path fill="#67533d" d="m114 221 1 2c3 12-10 22-21 18-5-2-7-7-5-11v-2h1l1 1c0 2-3 7 1 9l1 1c3 1 8 2 11 0 5-1 7-5 9-9 2-3 1-6 1-9Z" opacity=".4"/><path fill="#692e1e" d="M186 231c4-2 4-6 6-10l3 2c-4 0-3 6-5 8l-4 2v-2Z" opacity=".6"/><path fill="#baa787" d="M362 221h1c0 4-1 9 2 13h-2l-1-1v-12Z" opacity=".8"/><path fill="#917b5c" d="M363 221h1l1 9c0 5 5 3 8 2l-1 2h-7c-3-4-2-9-2-13Z" opacity=".6"/><path fill="#453323" d="M365 222c2-2 5-1 8-1-2 2-7 0-7 3-3 5 2 7 5 5h2c-1 4-5 2-8 1v-8Z" opacity=".3"/><path fill="#8b7055" d="M22 225c0-2 1-4 3-3 5 6 9 17 18 17h2v1c-8 2-14-6-17-12-2-1-3-3-5-3l1 11h-2v-11Z" opacity=".6"/><path fill="#0f0a06" d="M367 226c0-5 6-3 9-4 2 5 7 9 5 16-1 3-3 7-7 6 4-3 8-11 3-15h-6c-2 0-5 0-4-3Z" opacity=".1"/><path fill="#3c2f22" d="M115 223c4 8-2 18-11 20H94l-3-1c-3-3-7-9-2-12-2 4 0 9 5 11 11 4 24-6 21-18Z" opacity=".3"/><path fill="#8a6245" d="M178 223h1v4l-3 3 2-7Z" opacity=".6"/><path fill="#511d13" d="M190 231c2-2 1-8 5-8l3 1 1 14-3 3 1-10c-2-2-5-1-7 0Z" opacity=".6"/><path fill="#de7f22" d="M220 223h1c2 0 7 1 4 4-2-2-4-1-5 1v-5Z"/><path fill="#c2794e" d="M245 223h1v10c-2-3-1-7-1-10Z"/><path fill="#c8a346" d="M294 223h1v1l-1 3-8 7h-2c4-4 8-6 10-11Z"/><path fill="#ae8c66" d="m297 224 1-1v13h-1v-12Z" opacity=".8"/><path fill="#5b2b16" d="M198 224c4 2 3 7 3 11l-2 3-1-14Z" opacity=".7"/><path fill="#936f49" d="M295 224h2v12c-3-2 1-9-3-9l1-3Z" opacity=".8"/><path fill="#ab8565" d="m21 227 1-2v11l-2-2c1-2 2-5 1-7Z" opacity=".7"/><path fill="#4d3929" d="M23 225c2 0 3 2 5 3 3 6 9 14 17 12h1c-3 3-8 3-11 0-5-2-5-9-10-10-1 3 3 8-1 10h-2l2-3v-1l-1-11Z" opacity=".3"/><path fill="#78311a" d="M90 228c0-3 4-4 5-1l-1 2h-3l-1-1Z" opacity=".6"/><path fill="#9b8469" d="m104 225 1 1c0 3 2 7-2 8l1-9Z" opacity=".6"/><path fill="#80451e" d="M203 225c1 3 2 6 0 8v-8Z" opacity=".8"/><path fill="#f3eac6" d="M254 226c1-1 4-2 5 0 3 5 9 9 8 15-4 3-9 3-13 6-6 5-13 8-20 12-3 2-4 5-6 8l-1 1-3 4c-1-4 3-7 5-11 4-6 10-8 15-12 2-2 2-7-4-3-3 1-4 4-7 4 3-4 7-8 13-7 3 0 5-2 6-4v-4l2-9Z"/><path fill="#cfb38d" d="M13 226h1l1 7c0 2-1 3-2 3v-10Z" opacity=".9"/><path fill="#ac9979" d="m105 226 2 6-5 4c-1-1-1-2 1-2 4-1 2-5 2-8Z" opacity=".8"/><path fill="#0c0503" d="M147 243c-3-5-1-12 1-17v14c5 6 15 2 22 4 6 3 6 11 9 16h-3l-7-13c-7-3-15-1-22-4Z" opacity=".1"/><path fill="#d88a2e" d="M235 231c-2-2 0-6 3-4v11l-1 3-6 2-5-2c3 0 3-3 4-5 2-1 6-1 5-5Z"/><path fill="#b18e69" d="m409 226 2 1v1c-2 3-3 7-6 10l2-7 2-5Z" opacity=".8"/><path fill="#c6ae87" d="M20 227h1c1 2 0 5-1 7v-7Z" opacity=".8"/><path fill="#0e0906" d="M50 236c4-1 4-6 6-9 0 4-1 8 1 12l1 1c2 2 4 3 7 3v1c-4 3-9-2-13-3-2 3-5 4-8 3 2-1 6-2 6-5v-3Z" opacity=".1"/><path fill="#501311" d="M64 227h3c0 3-1 6 2 7 2 2 6 2 8 0h1l2-4c2 0 0 5 0 7h-1c-5-3-13 2-17-3v-1h1l1-6Z"/><path fill="#40291a" d="M78 229c2-2 4-2 5 0 0 3 2 7-1 9v-9h-4Z" opacity=".3"/><path fill="#d79f70" d="m176 230 3-3h1l1 1-3 4-4 2-2-1v-1l4-2Z" opacity=".9"/><path fill="#8e6224" d="m286 234 8-7-1 3c-4 2-6 7-10 8l3-4Z" opacity=".9"/><path fill="#735130" d="M294 227c4 0 0 7 3 9l1 1v1l-2 1h-1v-2c-1-2 2-7-2-7l1-3Z" opacity=".7"/><path fill="#7f1a1d" d="m431 231 4-4v4l1 5h-6v-3l1-2Z"/><path fill="#3b2a1d" d="M480 228c1-2 4-2 5 0 4 6-1 17-9 15-6-1-15 3-18-4l4 1 1 1c5 1 11 2 16 0l2-1c4-2 4-7 2-10l-1-1h-2v-1Z" opacity=".3"/><path fill="#271d14" d="M83 229c2 1 4-1 6-1v2c-5 3-1 9 2 12-3 0-4-5-7-4-1 3-4 6-7 5v-1l3-2 2-2c3-2 1-6 1-9Z" opacity=".2"/><path fill="#443020" d="M373 229h4c2 5 1 11-5 13h-1v-1l1-1c4-1 6-6 3-9a94 94 0 0 1-2-2Z" opacity=".3"/><path fill="#66221e" d="M404 228h2l1 3-2 7h-2l-1-3 2-7Z"/><path fill="#735941" d="M405 238c3-3 4-7 6-10-1 4-2 9-6 11v-1Z" opacity=".5"/><path fill="#665039" d="M78 229h4v9l-2 2-18 1-1-1 16-1h1l2-2c0-2 2-7 0-7l-3 1 1-2Z" opacity=".4"/><path fill="#9a8558" d="M92 238c-4-2-1-7-1-9h1l1 8-1 1Z" opacity=".8"/><path fill="#9b8a67" d="M112 229h1v1c-2 4-4 8-9 9v-1c4-1 6-5 8-9Z" opacity=".7"/><path fill="#6f5940" d="m373 229 1 1-1 2c-3 1-8 3-8-2 3 1 7 3 8-1Z" opacity=".5"/><path fill="#1d150f" d="M377 229c5 4 1 12-3 15l-18-1 16-1c6-2 7-8 5-13Z" opacity=".1"/><path fill="#c7aa86" d="M428 229h1l1 5v2h-2v-7Z" opacity=".9"/><path fill="#541312" d="m464 229 3 1 1 1 2 3c2 2 5 1 8 1-5 2-11 1-16 1l1-5 1-2Z"/><path fill="#655038" d="M480 229h2l-1 3h-9v-1l7-1 1-1Z" opacity=".5"/><path fill="#33100b" d="m482 229 1 1-1 7a888 888 0 0 0-21 0l-1-1h2c5 0 11 1 16-1l1-1 2-2 1-3Z"/><path fill="#846647" d="m77 231 3-1-2 4c-2-1-5-2-7-1v-1l6-1Z" opacity=".6"/><path fill="#461a12" d="M190 231c2-1 5-2 7 0l-1 10-2 3a355 355 0 0 0-1-10c-5-3-6 2-9 3v-2l2-2 4-2Z" opacity=".5"/><path fill="#59361a" d="M283 238c4-1 6-6 10-8 4 0 1 5 2 7l-1-2-1-3-10 8v-2Z" opacity=".6"/><path fill="#7a5f40" d="M483 230c2 3 2 8-2 10h-3v-1h2l2-2 1-7Z" opacity=".6"/><path fill="#c98d61" d="M162 231h1l1 1v1c1 3 5 2 7 0h1l2 1-2 1h-9l-2-1c3 1 1-1 1-3Z" opacity=".9"/><path fill="#8f6142" d="M185 231h1v2l-2 2-4 2 5-6Z" opacity=".7"/><path fill="#e19f52" d="m229 231 1 5c-1 2-1 5-4 5-2-2-4 1-6 1-4-1-10 0-13-4h2l18 1v-2l2-6Z"/><path fill="#7b6243" d="M375 231c3 3 1 8-3 9h-2v-1l3-1 1-1 1-6Z" opacity=".5"/><path fill="#7d6346" d="M426 231h1v5l1 1c1 4 6 1 9 2v1h-9c-2-1-3-3-3-5l1-4Z" opacity=".5"/><path fill="#c29571" d="M435 231h2v5h-1l-1-5Z" opacity=".8"/><path fill="#9d7855" d="M472 232h9l-2 2-4-1-3-1Z" opacity=".7"/><path fill="#75533a" d="M164 232h8v1h-8v-1Z" opacity=".5"/><path fill="#3e1e10" d="m283 240 10-8 1 3c-4 0-7 4-9 7l-2 2-21 12v-2c5-4 11-5 16-10 2 0 4-2 5-4Z" opacity=".5"/><path fill="#623923" d="M438 232h1l1 1 2 2v3l-3 2h-2v-1l1-1c1-1 3-2 1-2l-1-4Z" opacity=".4"/><path fill="#a78b65" d="M71 233c2-1 5 0 7 1h-7v-1Z" opacity=".7"/><path fill="#27140e" d="M125 233h1c-1 4 2 3 5 3h4l-2 1h-11v-1l3-1v-2Z"/><path fill="#713c22" d="M133 233h1l2 1 1 1-2 5h-3v-1l1-2 2-1-2-3Z" opacity=".5"/><path fill="#c26f46" d="M164 233h7c-2 2-6 3-7 0Z" opacity=".8"/><path fill="#cd8b39" d="M205 233h1l1 3 2 1v1h-2c3 4 9 3 13 4-3 2-9-2-11 2-3-1-5-2-8-1l1-3 3-7Z"/><path fill="#421311" d="M210 233h1v3l16 1a423 423 0 0 0-20-1c1 0 3-1 3-3Z"/><path fill="#61221a" d="M242 233h1v1c-1 3 2 2 4 2l3 1h-12v-1h2l2-3Z"/><path fill="#b37b56" d="m475 233 4 1-1 1c-3 0-6 1-8-1l5-1Z" opacity=".9"/><path fill="#975330" d="M46 234h2v2l-4-1 2-1Z" opacity=".7"/><path fill="#5d301a" d="M48 234h1l1 2v3l-4 1h-1v-1l2-2 1-1v-2Z" opacity=".4"/><path fill="#2c0d0a" d="M62 234c4 5 12 0 17 3h-8a270 270 0 0 0-11-1l2-1v-1Z"/><path fill="#a57757" d="M69 234h8c-2 2-6 2-8 0Z" opacity=".8"/><path fill="#290909" d="M184 237c3-1 4-6 9-3 1 2 3 5 1 7-3 2-5 6-6 9l-2 1c-1 1-2 2-1 3 0 3 0 6 3 8v3h-1c-1-4-4-6-6-10 2-4 5-8 6-13h-10l7-5Z" opacity=".4"/><path fill="#d69762" d="M217 234Z"/><path fill="#be9130" d="m278 238 6-4h2l-3 4c-6 4-12 8-19 10l-6 1c5-5 15-4 20-11Z"/><path fill="#69351e" d="M309 234h2l1 1v3l-2 1h-3v-2l2-1v-2Z" opacity=".5"/><path fill="#94694f" d="M363 234h9c-2 2-7 1-9 0Z" opacity=".8"/><path fill="#98643e" d="m458 234 1 1 1 1 1 1v1l2 1v1h-1l-4-1v-5Z" opacity=".7"/><path fill="#99653d" d="M10 235h1l1 1 2 1-1 2h-3v-4Z" opacity=".7"/><path fill="#783a29" d="M163 235h9c-3 2-6 1-9 0Z" opacity=".9"/><path fill="#4d3322" d="m180 237 4-2v2l-7 5h-18c4 0 8 1 12-1l3-1 4-2 2-1Z" opacity=".4"/><path fill="#83451e" d="m199 238 2-3h1l-1 5-5 5h-2v-1l2-3 3-3Z" opacity=".8"/><path fill="#29170b" d="M285 242c2-3 5-7 9-7l1 2v2h-1l-9 3Z" opacity=".4"/><path fill="#3e120e" d="M297 236h12l-2 1h-9l-1-1Z"/><path fill="#220605" d="M362 237h11-11Z"/><path fill="#4f1d15" d="M427 236h1a132 132 0 0 1 8 0h3c2 0 0 1-1 2l-10-1-1-1Z" opacity=".9"/><path fill="#b19f73" d="M14 237h7c0 4-5 1-8 2l1-2Z" opacity=".8"/><path fill="#7b6243" d="M21 237h3l-2 3H12l-1-1h2c3-1 8 2 8-2Z" opacity=".6"/><path fill="#9c7d4e" d="M41 237h6l-2 2h-2l-2-2Z" opacity=".8"/><path fill="#b1a37a" d="M61 237h10v1H61v-1Z" opacity=".9"/><path fill="#897a54" d="M71 237h9l-2 2-7-1v-1Z" opacity=".8"/><path fill="#ada375" d="m92 238 1-1 11 1v1H93l-1-1Z" opacity=".8"/><path fill="#b49b6d" d="M124 237h9l-1 2h-9l1-2Z" opacity=".8"/><path fill="#a79e79" d="M153 237h8v1h-8v-1Z" opacity=".9"/><path fill="#675538" d="M161 237h12v1h-12v-1Z"/><path fill="#c2af7e" d="M209 237h9v1h-9v-1Z"/><path fill="#a18c5b" d="M218 237h9v1h-9v-1Z"/><path fill="#ad9159" d="M238 237h12v1h-12v-1Z"/><path fill="#a6966d" d="M298 237h9v2h-1l-8-1v-1Z" opacity=".8"/><path fill="#a59974" d="M354 237a715 715 0 0 1 12 0v1h-12v-1Z" opacity=".9"/><path fill="#867651" d="M366 237h8l-1 1h-7v-1Z" opacity=".9"/><path fill="#a7966b" d="m428 237 10 1-1 1c-3-1-8 2-9-2Z" opacity=".8"/><path fill="#b4a479" d="M461 237h12v1h-12v-1Z"/><path fill="#918058" d="M473 237h9l-2 2-7-1v-1Z" opacity=".9"/><path fill="#c4af80" d="M61 238h10l7 1h-1c-5-1-12 1-16-1Z" opacity=".8"/><path fill="#cfb682" d="M153 238h20v1h-18l-2-1Z" opacity=".8"/><path fill="#a07854" d="m173 239 5-1-4 2h-19v-1h18Z" opacity=".7"/><path fill="#faca82" d="M209 238h18v1l-18-1Z"/><path fill="#dfaf56" d="M238 238h1l8 1-2 2h-1l-7 1v-1l1-3Z"/><path fill="#dfbd61" d="M275 238h3c-5 7-15 6-20 11l-2 3h-1l1-4c6-5 14-4 19-10Z"/><path fill="#935c20" d="M264 248c7-2 13-6 19-10v2c-2 0-4 2-5 4l-12 5h-2v-1Z" opacity=".9"/><path fill="#81684a" d="m296 239 2-1 8 1-9 1-1-1Z" opacity=".5"/><path fill="#0c0503" d="m310 239 2-1-1 5c-6 3-12 0-18 2-4 4-8 8-13 10-6 2-10 7-15 9l-5 5-1-4c5-4 10-9 16-12 7-3 13-9 20-12 4 3 12 3 15-2Z" opacity=".1"/><path fill="#51402f" d="m352 238 2 1h1l1 1c5 2 10 1 15 1v1h-15l-4-3v-1Z" opacity=".3"/><path fill="#b7a87d" d="M354 238h19l-3 1h-16v-1Z" opacity=".7"/><path fill="#dcb57f" d="M461 238a949 949 0 0 0 19 1h-17l-2-1Z" opacity=".9"/><path fill="#947f5d" d="M93 239h11c-3 2-8 1-11 0Z" opacity=".6"/><path fill="#281e15" d="M120 239h1c3 4 8 4 12 1h2l-2 3c-5 0-12 2-13-4Z" opacity=".2"/><path fill="#4e3e2e" d="M121 239h2l9 1h1c-4 3-9 3-12-1Z" opacity=".3"/><path fill="#8a6c4d" d="M123 239h9v1l-9-1Z" opacity=".6"/><path fill="#f2e3a5" d="m245 241 7-2c-1 2-3 4-6 4-6-1-10 3-13 7h-2c1-6 8-7 13-9h1Z"/><path fill="#190804" d="m285 242 9-3 1 2c-7 3-13 9-20 12-6 3-11 8-16 12l-4 4c-13 5-15 20-16 32-5 6-7 14-15 17-3 1-4 4-6 6-2 4-9 2-8 8-2 4-1 11-6 12-2 0-2 2-3 3v-2a282 282 0 0 0 1-11l2-2c5-3 6-9 11-12 6-1 9-7 13-11l3-3c3 0 5-3 5-6s3-7 1-10l1-1 1-10 8-11c11-4 19-14 29-18 3-1 6-3 7-6l2-2Z" opacity=".3"/><path fill="#302318" d="M294 239h2l1 1c3 4 8 2 11-1h2c-3 5-11 5-15 2l-1-2Z" opacity=".2"/><path fill="#534230" d="M306 239h2c-3 3-8 5-11 1l9-1Z" opacity=".3"/><path fill="#8b7559" d="M355 239h15v1h-14l-1-1Z" opacity=".6"/><path fill="#a57f5b" d="M463 239h15v1h-15v-1Z" opacity=".7"/><path fill="#4f4030" d="M12 240h10c-3 2-7 2-10 1v-1Z" opacity=".3"/><path fill="#2e2319" d="M22 240h2c-2 3-10 5-12 1 3 1 7 1 10-1Z" opacity=".2"/><path fill="#36291e" d="M58 240h3l1 1c5 2 10 1 15 1v1H65c-3 0-5-1-7-3Z" opacity=".2"/><path fill="#4e3f2f" d="m62 241 18-1-3 2c-5 0-10 1-15-1Z" opacity=".3"/><path fill="#564332" d="M152 240h3l16 1c-4 2-8 1-12 1-3 0-5 0-7-2Z" opacity=".4"/><path fill="#745b44" d="M155 240h19l-3 1-16-1Z" opacity=".5"/><path fill="#bf7827" d="m196 245 5-5h1l-1 3-1 2c-2 1-3 3-2 6l-3-2 1-4Z"/><path fill="#cc8228" d="M220 242c2 0 4-3 6-1l5 2-1 1c-4 0-8-2-6 3-5 0-9-3-13-2l-2-1c2-4 8 0 11-2Z"/><path fill="#5f3619" d="M278 244c1-2 3-4 5-4-1 2-3 4-5 4Z" opacity=".7"/><path fill="#6a5743" d="M356 240h16l-1 1c-5 0-10 1-15-1Z" opacity=".4"/><path fill="#534333" d="M428 240h9c-2 3-6 2-9 0Z" opacity=".3"/><path fill="#685743" d="M462 240h19l-2 1h-16l-1-1Z" opacity=".4"/><path fill="#3b0f0d" d="M188 250c1-3 3-7 6-9v4h-1c-2 1-2 2-1 4l-4 1Z" opacity=".5"/><path fill="#deb534" d="m231 243 6-2v1l-6 3-4 7c-4-3-10-1-15-3l-4-3c-5-4-6 2-5 5 0 2-2 5 1 5-2 2-4 5-2 7l-1 5c-4 2-2 7-2 11v7h-1l-2-7c1-6 1-12 3-17 2-6 0-12 1-17l1-2c3-1 5 0 8 1l2 1c5 5 15 6 19-1l1-1Z"/><path fill="#efd571" d="m237 242 7-1c-5 2-12 3-13 9l-3 3h-1v-1l4-7 6-3Z"/><path fill="#4f4130" d="M463 241Z" opacity=".3"/><path fill="#1d0506" d="M176 242h11c-1 5-4 9-6 13 2 4 5 6 6 10l-5-1c-1-5-3-10-2-15-2-2-3-5-6-5l2-2Z" opacity=".3"/><path fill="#36291d" d="M356 242h16l-16 1v-1Z" opacity=".2"/><path fill="#251b13" d="M94 243h10-10Z" opacity=".2"/><path fill="#0e0202" d="M170 244h4c3 0 4 3 6 5-1 5 1 10 2 15l5 1-2 9c3 5 2 11 5 16 0 4-2 7-3 10-5 7-8 17-4 26 2 6 0 14 2 20s8 11 12 16c4 0 4-5 5-7 4 2 0 8-2 11-5 0-7-6-10-9-3-4-7-8-8-13 0-6 2-13-3-18-2-3 0-6 0-9-2-6 3-11 4-17 2-4 5-8 4-13 0-6-5-12-3-19-5 1-5-4-5-8-3-5-3-13-9-16Z" opacity=".2"/><path fill="#d49221" d="M224 247c-2-5 2-3 6-3-4 7-14 6-19 1 4-1 8 2 13 2Z"/><path fill="#682b19" d="m266 249 12-5c-5 5-11 6-16 10l-6 3v-3c4 0 7-3 10-5Z" opacity=".7"/><path fill="#250c07" d="m262 256 21-12c-1 3-4 5-7 6-10 4-18 14-29 18l-8 11-1 10-2-3-1-7c0-3 0-6 3-7s5-6 9-6c2-2 6-2 8-5l7-5Z" opacity=".4"/><path fill="#561314" d="M192 249c-1-2-1-3 1-4l-1 9-3-1-1 7-2-9 2-1 4-1Z" opacity=".6"/><path fill="#892f1d" d="M193 245h1v11l-2 4h-1l1-6 1-9Z" opacity=".8"/><path fill="#b4601d" d="M194 245h2l-1 4 2 5h-3v-9Z"/><path fill="#d1981e" d="M198 251c-1-3 0-5 2-6-1 5 1 11-1 17-2 5-2 11-3 17-2-4-4-9-1-13l-1-10v-2h3l-2-5 3 2Z"/><path fill="#edd258" d="M203 251c-1-3 0-9 5-5-2 0-3 1-4 3 2 1 7 2 5 5 2-1 3-3 3-5 5 2 11 0 15 3v1l-6 1v-3h-8l-1 8c-2 0-5 0-4-3-4 0-5 4-6 7-2-2 0-5 2-7-3 0-1-3-1-5Z"/><path fill="#efd978" d="M204 249c1-2 2-3 4-3l4 3c0 2-1 4-3 5 2-3-3-4-5-5Z"/><path fill="#f9f6ce" d="M233 250c3 0 4-3 7-4 6-4 6 1 4 3-5 4-11 6-15 12-2 4-6 7-5 11v2h-1c-5 3-11 1-16 1-6 3-5-1-5-4v-1c5-2 9-7 14-11 3-4 10-1 12-6l3-3h2Z"/><path fill="#e2cd8d" d="m249 254 7-6-1 4c-1 2-4 2-6 2Z"/><path fill="#b35724" d="m258 249 6-1v1l-8 4v-1l2-3Z"/><path fill="#89351e" d="m256 253 8-4h2c-3 2-6 5-10 5v-1Z" opacity=".8"/><path fill="#380a0c" d="M185 254c-1-1 0-2 1-3l2 9v2c-3-2-3-5-3-8Z" opacity=".5"/><path fill="#f2e27f" d="M213 251h8v3l-9 5 1-8Z"/><path fill="#c88f39" d="M255 252h1v5h-2c-5-3-8 1-11 4l-1 1-7 3v-1l6-5 8-5c2 0 5 0 6-2Z"/><path fill="#6d1a18" d="m189 253 3 1-1 6-2 2-1-1v-1l1-7Z" opacity=".7"/><path fill="#f3ecad" d="m221 254 6-1h1c-2 5-9 2-12 6-5 4-9 9-14 11l2-10c3 0 6 1 8-1l9-5Z"/><path fill="#531913" d="m256 257 6-3v2l-7 5-16 7 2-3 6-3c3-1 7-2 9-5Z" opacity=".6"/><path fill="#b15b1c" d="m194 256 1 10c-3 4-1 9 1 13l2 7h-1l-3-6-1-4-2-7 1-9 2-4Z"/><path fill="#ede087" d="M202 263c1-3 2-7 6-7-1 3 2 3 4 3-2 2-5 1-8 1l-2 10h-1v-2l1-5Z"/><path fill="#a94823" d="M243 261c3-3 6-7 11-4l-6 3-5 1Z" opacity=".9"/><path fill="#6d2119" d="M254 257h2c-2 3-6 4-9 5l1-2 6-3Z" opacity=".8"/><path fill="#070100" d="M176 260h3c0 4 0 9 5 8-2 7 3 13 3 19 1 5-2 9-4 13-1 6-6 11-4 17 0 3-2 6 0 9 5 5 3 12 3 18 1 5 5 9 8 13 3 3 5 9 10 9 2-3 6-9 2-11l-1-7v-1c1-1 1-3 3-3 5-1 4-8 6-12-1-6 6-4 8-8 2-2 3-5 6-6 8-3 10-11 15-17 1-12 3-27 16-32l2 2c-3 3-7 5-9 9-5 7-3 16-7 24-2 6-7 10-10 16l-14 16v7l-6 10-1 14c-4 1-4 7-9 6-6-2-8-10-12-15-6-6-11-16-9-25l-5-9-1-19 10-13c1-7 0-13-3-19l-2 1-1-2-2-12Z" opacity=".1"/><path fill="#e1ca79" d="M233 264c2-2 5-5 8-5l-6 5h-2Z"/><path fill="#8f321d" d="M191 260h1l-1 9h-1l-1-7 2-2Z" opacity=".9"/><path fill="#8f341e" d="m243 261 5-1-1 2-6 3h-2l3-3 1-1Z" opacity=".9"/><path fill="#4d1111" d="m188 261 1 1 1 7v4h-1l-1-8v-4Z" opacity=".6"/><path fill="#3c120d" d="m239 268 16-7c-2 3-6 3-8 5-4 0-6 5-9 6s-3 4-3 7h-1l-1-3-1-5c3 0 5-1 7-3Z" opacity=".5"/><path fill="#b25223" d="m235 265 7-3-3 3c-4 3-10 5-8 11l-1-3 2-6 3-2Z"/><path fill="#e2be53" d="m230 267 3-3h2v1l-3 2h-2Z"/><path fill="#190504" d="M187 265h1l1 8c-2 3-1 5 2 7 0 7 2 13 0 20-3 0-3 2-4 4v-4c1-3 3-6 3-10-3-5-2-11-5-16l2-9Z" opacity=".3"/><path fill="#6e2619" d="M231 276c-2-6 4-8 8-11h2l-2 3c-2 2-4 3-7 3l1 5h-2Z" opacity=".8"/><path fill="#20150f" d="m255 269 4-4 1 4-1 2h-2l-2-2Z" opacity=".2"/><path fill="#0d0a08" d="M281 266c3-1 7-1 6 3-2 2-7 1-6-3Z" opacity=".1"/><path fill="#ecd751" d="M228 267h2l-3 5v-4l1-1Z"/><path fill="#e2b52f" d="M230 267h2l-2 6-2 11h-1v-12l3-5Z"/><path fill="#e9d760" d="M199 279c0-4-2-9 2-11v2c-1 2-2 5 0 7l1 3-3-1Z"/><path fill="#f1e687" d="m224 272 3-4v5l-1 10c-2-3-2-6-2-9v-2Z"/><path fill="#73231a" d="M190 269h1l2 7h-1l-2-3v-4Z" opacity=".8"/><path fill="#f4eda6" d="M201 277c-2-2-1-5 0-7h1v1c-3 5 0 5 3 5 0 3-3 1-4 1Z"/><path fill="#28211a" d="m175 271 3 1 1 2c0 3 1 7-1 10h-3c2-3 1-7 0-10v-3Z" opacity=".2"/><path fill="#f9f4bd" d="M205 276c-3 0-6 0-3-5 0 3-1 7 5 4 5 0 11 2 16-1-1 4-2 9 1 12-2 2-8 3-7 8 1 3-3 5-5 6-2-1-4-3-6-1v-4c0-3 5-2 6-5 2-4 2-9 2-13l-4 1-5-2Z"/><path fill="#020000" d="m179 274 2-1c3 6 4 12 3 19l-10 13 1 19 5 9c-2 9 3 19 9 25 4 5 6 13 12 15 5 1 5-5 9-6 2 0 5 1 4 4l-5 10h-16l-3-9c-2-7-6-13-9-19-1-4-5-6-7-9-3-2-3-7-5-10 1-6 3-13 1-19 2-5-5-7-3-12 5-5 13-9 13-17l-3 1 1-3c2-3 1-7 1-10Z" opacity=".1"/><path fill="#270707" d="M189 273h1l2 3c0 4 0 8 2 11v7c0 4-2 7-4 10-1 3-1 7-3 9l2 2v2c-1 1-1 2-3 2-2-4 0-9 0-13l1-2c1-2 1-4 4-4 2-7 0-13 0-20-3-2-4-4-2-7Z" opacity=".4"/><path fill="#ebd45f" d="M227 273v11l-1-1 1-10Z"/><path fill="#d0821a" d="m228 284 2-11 1 3c-1 4 2 8 0 12l-3-3v-1Z"/><path fill="#f2e8aa" d="M223 274h1c0 3 0 6 2 9l1 1c0 3 1 6-1 9-1-2 0-5-2-7-3-3-2-8-1-12Z"/><path fill="#471110" d="M192 276h1l1 4v7c-2-3-2-7-2-11Z" opacity=".6"/><path fill="#f8e882" d="m205 276 5 2-1 5c2 0 5-4 4 0 1 3-2 2-4 2s-3-2-3 1c-4 0 0-3 0-5h-4v-1l-1-3c1 0 4 2 4-1Z"/><path fill="#ba501b" d="M231 276h1l2 7 1 7-1 5h-1c0-3 1-6-2-7 2-4-1-8 0-12Z"/><path fill="#992e1f" d="M232 276h1l1 3v4l-2-7Z" opacity=".9"/><path fill="#f2e197" d="m210 278 4-1c0 4 0 9-2 13-1 3-6 2-6 5v14c2-1 4-3 6-1 4 1 3 5 5 8-1 0-3-2-4-1-1 2-3-1-4-1 0 2-1 5-4 5-1-3 1-8-2-10a208 208 0 0 0 1-7c-2-5 2-9 1-13l1-3c0-3 1-1 3-1s5 1 4-2c1-4-2 0-4 0l1-5Z"/><path fill="#e7c839" d="m199 279 3 1v10h-1l-1-2-1-1v-8Z"/><path fill="#5f1616" d="M234 279h1l1 7-2-3v-4Z" opacity=".7"/><path fill="#631a17" d="m194 280 3 6v5c-1 2-3 4-1 6v3h-1l-1-6v-14Z" opacity=".7"/><path fill="#efd74e" d="M202 281h4c0 2-4 5 0 5l-1 3c-3 3-2 9-1 13l-1 4-1-16v-9Z"/><path fill="#902e1d" d="m234 283 2 3-1 4-1-7Z" opacity=".8"/><path fill="#100e0b" d="m174 288 1-4h3l-1 3-3 1Z" opacity=".1"/><path fill="#e9cd74" d="M227 284h1v1l-1 11h-2l1-3c2-3 1-6 1-9Z"/><path fill="#dfa131" d="m228 285 3 3-2 10h-2v-2l1-11Z"/><path fill="#98391e" d="M197 286h2v1c0 2 0 3-2 4v-5Z" opacity=".9"/><path fill="#f5e9ca" d="M217 294c-1-5 5-6 7-8 2 2 1 5 2 7l-1 3-2 11-1 1c-2 2-2 5-3 7l-2 1c-2-3-1-7-5-8-2-2-4 0-6 1v-10c2-2 4 0 6 1 2-1 6-3 5-6Z"/><path fill="#531813" d="m236 286 2 3-1 1c-1 3-1 6-3 8v-3a51 51 0 0 0 2-9Z" opacity=".6"/><path fill="#b3481d" d="m199 287 1 1v15h-2l-2-3v-3l1-6c2-1 2-2 2-4Z"/><path fill="#cf881a" d="m200 288 1 2c0 4 1 9-1 13v-15Z"/><path fill="#d3761b" d="M231 288c3 1 2 4 2 7 0 2 0 4-2 5l-2-2 2-10Z"/><path fill="#f5e580" d="M204 302c-1-4-2-10 1-13 1 4-3 8-1 13Z"/><path fill="#d8b12a" d="M201 290h1l1 16v21h4l-4 4c-4 0-1-7-2-10 0-6 2-12-1-18 2-4 1-9 1-13Z"/><path fill="#290d08" d="M237 290c2 3-1 7-1 10s-2 6-5 6l3-8c2-2 2-5 3-8Z" opacity=".4"/><path fill="#93291e" d="M196 297c-2-2 0-4 1-6l-1 6Z" opacity=".9"/><path fill="#440d0f" d="M190 304c2-3 4-6 4-10l1 6c-2 2-1 6-1 9v4c1 3-4 3-3 0 0-3-1 2-2 2l-2-2c2-2 2-6 3-9Z" opacity=".6"/><path fill="#95341c" d="M233 295h1v3l-3 8-3 3 3-9c2-1 2-3 2-5Z" opacity=".8"/><path fill="#e5cb2d" d="M225 296h2v2l-4 9 2-11Z"/><path fill="#d59912" d="M227 298h2l2 2-3 9c-4 4-7 10-13 11l4-5c2-2 3-4 3-7l1-1 4-9Z"/><path fill="#120202" d="M183 326c-4-9-1-19 4-26v4l-1 2-4 12 4 15v10l-1 3c-2-6 0-14-2-20Z" opacity=".3"/><path fill="#8a251d" d="M195 300h1l2 3c-4 2-2 6-3 10h-1v-4c0-3-1-7 1-9Z" opacity=".8"/><path fill="#b83f1c" d="M195 313c1-4-1-8 3-10l2 6-3 6 3 3v15l3-1h1l-2 2c-4 1-3-3-4-6s-3-5-3-8c2-2 1-4 0-6v-1Z"/><path fill="#d48b10" d="M198 303h2c3 6 1 12 1 18l-1-3-3-3 3-6-2-6Z"/><path fill="#1a0304" d="m182 318 4-12c0 4-2 9 0 13 2 0 2-1 3-2l2 1c0 2-2 2-4 3l1 4-3-1 1 9-4-15Z" opacity=".3"/><path fill="#eacf68" d="M219 315c1-2 1-5 3-7 0 3-1 5-3 7Z"/><path fill="#deb962" d="M203 309c3 2 1 7 2 10 3 0 4-3 4-5 1 0 3 3 4 1 1-1 3 1 4 1l2-1-4 5c-4 0-7 4-8 7h-4v-18Z"/><path fill="#621516" d="M189 315c1 0 2-5 2-2-1 3 4 3 3 0h1v1l-1 6v1c-1-1-1-3-3-3l-2-1v-2Z" opacity=".7"/><path fill="#8c231d" d="M195 314c1 2 2 4 0 6h-1l1-6Z" opacity=".8"/><path fill="#280608" d="M191 318c2 0 2 2 3 3v2c-1 2-2 2-4 1l1 4-3-1-1-1c-1 5 2 10 3 15l-4 1v-9l-1-9 3 1-1-4c2-1 4-1 4-3Z" opacity=".4"/><path fill="#c76e1b" d="m200 318 1 3c1 3-2 10 2 10v1l-3 1v-15Z"/><path fill="#a62a1e" d="M194 320h1c0 3 2 5 3 8s0 7 4 6l-1 5c-2 2-2-2-4-2l-2 4c-2 0-2 0-2-2 1-3 2-7-1-10 2 0 3-1 2-3v-6Z" opacity=".9"/><path fill="#ab6927" d="M207 327c1-3 4-7 8-7-5 3-6 9-11 12h-1v-1l4-4Z" opacity=".9"/><path fill="#400c0e" d="M190 324c2 1 3 1 4-1v3l-3 2-1-4Z" opacity=".5"/><path fill="#3a0a0d" d="m187 326 1 1c-1 4 2 8 4 11l-2 4 1 5-5-4v-1l4-1c-1-5-4-10-3-15Z" opacity=".5"/><path fill="#89191d" d="m191 328 3-2c1 2 0 3-2 3 3 3 2 7 1 10 1-4-2-7-2-11Z" opacity=".8"/><path fill="#571114" d="m188 327 3 1c0 4 3 7 2 11 0 2 0 2 2 2v5c-2-1-3 0-4 1l-1-5 2-4c-2-3-5-7-4-11Z" opacity=".6"/><path fill="#853c1b" d="M197 337c2 0 2 4 4 2v6c-1 2 0 8-3 5-3-1-1-4 0-6l-3-3 2-4Z" opacity=".8"/><path fill="#702a18" d="m195 341 3 3c-1 2-3 5 0 6l-4 1 1-5v-5Z" opacity=".7"/><path fill="#1a0705" d="m185 346 1-3c1 6 7 11 11 15 3 4 2-4 3-6l1-4 1 7c-1 2-1 7-5 7-4-5-10-10-12-16Z" opacity=".3"/><path fill="#280b09" d="m186 343 5 4c2 1 2 3 2 5 2 2 5 1 7 0-1 2 0 10-3 6-4-4-10-9-11-15Z" opacity=".4"/><path fill="#3d150e" d="M191 347c1-1 2-2 4-1l-1 5 4-1c3 3 2-3 3-5v3l-1 4c-2 1-5 2-7 0 0-2 0-4-2-5Z" opacity=".5"/></svg>