<svg id="Layer_1" data-name="Layer 1" xmlns="http://www.w3.org/2000/svg" xmlns:xlink="http://www.w3.org/1999/xlink" viewBox="0 0 490 513"><defs><linearGradient id="linear-gradient" x1="34.68" y1="959.87" x2="450.19" y2="544.35" gradientTransform="translate(0 -488)" gradientUnits="userSpaceOnUse"><stop offset="0" stop-color="#a68b56"/><stop offset="0.12" stop-color="#987b52"/><stop offset="0.25" stop-color="#e3d7b1"/><stop offset="0.3" stop-color="#dfd1a0"/><stop offset="0.34" stop-color="#ddcf9a"/><stop offset="0.58" stop-color="#ac9467"/><stop offset="0.69" stop-color="#987c52"/><stop offset="1" stop-color="#baa46c"/></linearGradient><linearGradient id="linear-gradient-2" x1="201.42" y1="1054.58" x2="271.55" y2="889.11" gradientTransform="translate(0 -488)" gradientUnits="userSpaceOnUse"><stop offset="0" stop-color="#a48955"/><stop offset="0.12" stop-color="#977b52"/><stop offset="0.25" stop-color="#e2d6b0"/><stop offset="0.3" stop-color="#ded09f"/><stop offset="0.34" stop-color="#dcce99"/><stop offset="0.58" stop-color="#ab9467"/><stop offset="0.69" stop-color="#977c52"/><stop offset="1" stop-color="#b8a36c"/></linearGradient><linearGradient id="linear-gradient-3" x1="11496.96" y1="-31669.55" x2="-5235.05" y2="16829.06" xlink:href="#linear-gradient"/><linearGradient id="linear-gradient-4" x1="149.67" y1="1064.54" x2="331.82" y2="882.38" gradientTransform="translate(0 -488)" gradientUnits="userSpaceOnUse"><stop offset="0" stop-color="#7a6846"/><stop offset="0.23" stop-color="#977b52"/><stop offset="0.47" stop-color="#dacb95"/><stop offset="0.59" stop-color="#bda978"/><stop offset="0.76" stop-color="#977b52"/><stop offset="1" stop-color="#c2ae7d"/></linearGradient></defs><path d="M489.67,355.58a5.16,5.16,0,0,1-.8,2.91,5.08,5.08,0,0,1-2.28,2,5.16,5.16,0,1,1-2.06-9.88,5,5,0,0,1,3.62,1.41,5.09,5.09,0,0,1,1.12,1.64,5,5,0,0,1,.4,1.95Zm-9,0a3.83,3.83,0,0,0,.26,1.53,3.88,3.88,0,0,0,3.65,2.47,3.81,3.81,0,0,0,2.76-1.19,3.73,3.73,0,0,0,.82-1.29,4,4,0,0,0,.25-1.52,3.87,3.87,0,1,0-7.74,0Zm3.09,2.63h-1.17v-5a9.55,9.55,0,0,1,1.93-.16,3.16,3.16,0,0,1,1.75.37,1.45,1.45,0,0,1,.37.5,1.53,1.53,0,0,1,.12.6,1.34,1.34,0,0,1-.33.76,1.3,1.3,0,0,1-.72.4v.06a1.44,1.44,0,0,1,.63.49,1.5,1.5,0,0,1,.29.74,3.68,3.68,0,0,0,.37,1.25h-1.25a3.73,3.73,0,0,1-.4-1.22.87.87,0,0,0-1-.8h-.55Zm0-2.84h.55c.64,0,1.16-.22,1.16-.74s-.34-.76-1.07-.76a2.73,2.73,0,0,0-.64.06Z" style="fill:#fff"/><path d="M468,352l-1-.84-1.27-.34c-5.58-1.47-10.08-.82-13.37,1.94a11.26,11.26,0,0,0-2.94,3.83l-5.29-6.06L440,352.6,433.25,356a10.45,10.45,0,0,0-3.22-3.83,12.17,12.17,0,0,0-9.75-1.7c-2.85-3-8.62-9.08-9.39-9.81l-4.52-4.3c-1.55,2.36-4.73,7-9.12,6.69a23.62,23.62,0,0,0-6.81.47L378.05,325.4l-16.73,10.5-3.91-5.62a29.12,29.12,0,0,0,9.12-2c8-3.2,12.53-9.78,12.53-18v-62.1a18.83,18.83,0,0,0-5.5-13.67,23.59,23.59,0,0,0-12.89-6.15v-27.3h23v16.32a18.64,18.64,0,0,0,5.42,13.47c6.26,6.25,15.33,6.57,17.12,6.57h32.14c1.79,0,10.87-.28,17.15-6.54a18.67,18.67,0,0,0,5.43-13.49V140.18h-32v-9.12h-45.3v3.77H337.88a28.58,28.58,0,0,0-10.12,2,21.82,21.82,0,0,0-6,3.6c-6.18-5.33-14.34-5.63-16-5.63H273.5a28.22,28.22,0,0,0-10.1,2,21.21,21.21,0,0,0-5.76,3.44A22.43,22.43,0,0,0,243.1,135H232.29v-7.11h18.32v.06H392.44V4.6H347V25.41h-9.64a29.36,29.36,0,0,0-10.09,2.07,21.64,21.64,0,0,0-6.16,3.76,22.05,22.05,0,0,0-2.87-2.07,26.28,26.28,0,0,0-12.93-3.66l-64.14-.05H209a28.77,28.77,0,0,0-10.07,2.05A22,22,0,0,0,193,31.08a24.92,24.92,0,0,0-16-5.67H80.16c-10.9,0-22.57,8.1-22.57,20.17V154h55.12a30.44,30.44,0,0,0,3.58-.21v26.54h6.41v37.1a18.88,18.88,0,0,0,3,10.46H125c-1.76,0-10.8.31-17.09,6.59a18.81,18.81,0,0,0-5.48,13.64v62.15c0,8.26,4.56,14.84,12.5,18a26,26,0,0,0,4.38,1.34c-1.17,4.38-2.51,7-8.93,3.71-7.41-3.77-14.38-7.47-14.38-7.47-1.32,10.14-1.24,14.29-12.09,13.06l-4.06,18c-.93-.54-2.41-1.11-3.39-1.59,2.35-6.32,9.73-25.73,9.73-25.73L65.44,316.15l-1.54,2.67L41.35,302.6l-3.54,2.71c-1,.73-23.28,18.14-22.83,43.22-6.57,6.54-8.15,18.59-8.47,22.15-.2,1.71-1.65,16.64,7.23,27.62C2.92,406.6,2.57,417.6,3.5,426.38v.22c1.75,11.33,6.46,18.65,14,21.72,10.28,4.21,22-1.25,28.48-5.17l14.57,11.28,3.72-2.83a114.36,114.36,0,0,0,25-28.57,25.06,25.06,0,0,0,11.61,6.46l3.16.63,9.23-9.29a16.66,16.66,0,0,0,9,2.86h2.32l1.69-1.59c.35-.34.94-.9,9-11.27l8.87,5.58,9.7-9.29a16.53,16.53,0,0,0,12.31,4.13l2.25-.16L170,409.5c.71-.72,2-2,3.24-3.21a13.3,13.3,0,0,0,7.37,2.31h.21c3.25,0,8-1.47,12.25-7.92a13.46,13.46,0,0,0,.79-1.37,75.56,75.56,0,0,1,9.16,6.85l4.21,3.57,3.91-3.9c.77-.77,2.48-2.43,5.08-4.94a15.32,15.32,0,0,0,8.4,3.49c4.66.4,9.27-1.43,13.69-5.46,1.89,1.62,4.18,3.62,6.31,5.5l3.81,3.36,10.36-8.44a17.72,17.72,0,0,0,10.89,6.48l3,.47,2.16-2.1c1.06-1,5.55-5.18,7.56-7,2.86,1.6,8.11,5.14,14.7,12.32l3.28,3.58,4.19-2.47a11.42,11.42,0,0,0,1.28-.91c7-5.28,11.33-7.66,13.87-8.73,4,3.5,11.15,9.67,14.11,12.24l3.55,3,12.45-8.75,23,20.05,8.88-8.2c2.32,5,6.31,10.93,12.78,13.16l2.49.86,2.32-1.25c.44-.24,1.24-.68,5.06-4.07a22.83,22.83,0,0,0,8.4,6.53,5.52,5.52,0,0,0,2.38.8,5.6,5.6,0,0,0,2.5-.32c6.53,5.17,12,7.14,16.32,5.87a5,5,0,0,0,1.67-.84c3.61,3.44,9.16,15.12,9.16,15.12,7.68-6.44,13.32-10.85,25.76-10l.66-5.24c2.26-18.12,1.86-31.55-1.18-39.92a22.88,22.88,0,0,0-2.49-5,68.93,68.93,0,0,0,5.93-11.76C479.89,366.46,474.05,357,468,352Zm-117.1,25.39-.8-1-.74.7a47,47,0,0,1-.46-6.82l2.08-1.66c.1,2.94.08,5.86-.08,8.79Z" style="fill-rule:evenodd"/><path d="M392.44,4.6V128H250.61v-.06H232.29V135H243.1a22.46,22.46,0,0,1,14.54,5.28,21.73,21.73,0,0,1,5.76-3.44,28.88,28.88,0,0,1,10.1-2h32.24c1.7,0,9.86.3,16,5.64a22.1,22.1,0,0,1,6-3.61,29,29,0,0,1,10.12-2h45.75v-3.77h45.28v9.12h32v77.21a18.64,18.64,0,0,1-5.43,13.49c-6.28,6.26-15.36,6.53-17.15,6.54H406.16c-1.79,0-10.86-.32-17.12-6.57a18.6,18.6,0,0,1-5.42-13.46V201.07h-23v27.28a23.5,23.5,0,0,1,12.89,6.14,19,19,0,0,1,4.14,6.27,18.76,18.76,0,0,1,1.36,7.4v62.1c0,8.27-4.56,14.86-12.53,18a29.12,29.12,0,0,1-9.12,2l3.91,5.62L378,325.38l12.39,18.06a21.56,21.56,0,0,1,4.93-.51c.59,0,1.22,0,1.88,0h.35c4.21,0,7.26-4.41,8.77-6.7l4.52,4.3c.77.73,6.54,6.81,9.39,9.81a16.45,16.45,0,0,1,3.12-.33,11.19,11.19,0,0,1,6.63,2,10.45,10.45,0,0,1,3.22,3.83l6.79-3.36,4.16-2.06,5.23,6.05a11.32,11.32,0,0,1,2.94-3.82,12.12,12.12,0,0,1,8-2.7,21.93,21.93,0,0,1,5.41.76l1.27.34,1,.84c6,5,11.86,14.45,5.45,31.37a68.93,68.93,0,0,1-5.93,11.76,22.88,22.88,0,0,1,2.49,5c3,8.37,3.44,21.8,1.18,39.92l-.66,5.24c-1.06-.07-2.06-.11-3-.11-10.38,0-15.71,4.2-22.73,10.09,0,0-5.55-11.68-9.16-15.12a5.15,5.15,0,0,1-1.67.84,8.86,8.86,0,0,1-2.66.37c-3.82,0-8.41-2.09-13.66-6.24a5.55,5.55,0,0,1-1.94.35,5.78,5.78,0,0,1-2.94-.83,22.76,22.76,0,0,1-8.46-6.57c-3.82,3.39-4.62,3.83-5.06,4.07l-2.32,1.25-2.49-.86c-6.47-2.23-10.46-8.14-12.78-13.16l-8.88,8.2-23-20-12.45,8.75-3.55-3c-3-2.58-10.1-8.74-14.11-12.24-2.54,1.07-6.9,3.45-13.87,8.73a14.75,14.75,0,0,1-1.28.91l-4.19,2.47-3.28-3.58c-6.59-7.19-11.84-10.73-14.7-12.33-2,1.86-6.5,6-7.56,7l-2.16,2.1-3-.47a17.72,17.72,0,0,1-10.89-6.48l-10.36,8.44-3.81-3.36c-2.13-1.88-4.42-3.88-6.31-5.5-4,3.67-8.2,5.51-12.43,5.51-.42,0-.84,0-1.26-.05a15.32,15.32,0,0,1-8.4-3.49c-2.6,2.51-4.31,4.17-5.08,4.94l-3.91,3.9L203,406.14a75.56,75.56,0,0,0-9.16-6.85c-.24.47-.51.93-.79,1.37-4.23,6.46-9,7.88-12.25,7.93h-.21a13.46,13.46,0,0,1-7.37-2.31c-1.27,1.24-2.53,2.48-3.24,3.2l-1.59,1.59-2.25.16h-1.25A16.49,16.49,0,0,1,153.75,407l-9.7,9.29-8.89-5.63c-8,10.36-8.62,10.92-9,11.26l-1.58,1.66h-2.52a16.73,16.73,0,0,1-8.81-2.85L104,430l-3.16-.63A25.24,25.24,0,0,1,89.25,423a114.33,114.33,0,0,1-25,28.66l-3.68,2.87L46,443.19c-4.8,2.93-12.54,6.68-20.43,6.68a20.91,20.91,0,0,1-8-1.51c-7.54-3.08-12.25-10.39-14-21.72v-.26c-.93-8.73-.58-19.73,10.24-28.08C5,387.3,6.4,372.39,6.6,370.68c.32-3.56,1.9-15.61,8.47-22.15C14.62,323.46,36.94,306,37.9,305.31l3.45-2.71L63.9,318.82l1.54-2.67L86.16,329.6s-7.41,19.4-9.81,25.74c1,.48,2.46,1.05,3.39,1.59l4.06-18a26.27,26.27,0,0,0,3.31.21c7.54,0,7.61-4.28,8.78-13.27,0,0,7,3.7,14.38,7.47A10.78,10.78,0,0,0,115,334.8c2.56,0,3.45-2.16,4.25-5.17a26,26,0,0,1-4.38-1.34c-7.94-3.2-12.5-9.78-12.5-18V248.11a18.84,18.84,0,0,1,5.48-13.65c6-6,14.6-6.58,16.84-6.58h1a18.88,18.88,0,0,1-3-10.46v-37.1h-6.41V153.78a30.44,30.44,0,0,1-3.58.21H57.54V45.6c0-12.07,11.67-20.17,22.57-20.17H177a24.92,24.92,0,0,1,16,5.67,22,22,0,0,1,5.91-3.57A28.77,28.77,0,0,1,209,25.48h32.18l64.13.05a26.28,26.28,0,0,1,12.93,3.66,22.05,22.05,0,0,1,2.87,2.07,21.64,21.64,0,0,1,6.16-3.76,29.36,29.36,0,0,1,10.09-2.07H347V4.6Zm-43,372.46.74-.7.8,1a86.23,86.23,0,0,0,.08-8.81L349,370.21a47,47,0,0,0,.46,6.82Zm46-375.46H344V22.41h-6.64a32.58,32.58,0,0,0-11.19,2.29,25.32,25.32,0,0,0-5,2.74c-.43-.29-.86-.57-1.3-.84a29.53,29.53,0,0,0-14.48-4.09H209a31.72,31.72,0,0,0-11.21,2.28A25.38,25.38,0,0,0,193,27.35a28.66,28.66,0,0,0-16-4.89H80.16a27.6,27.6,0,0,0-17.28,6.25A21.78,21.78,0,0,0,54.56,45.6V157h58.7v26.34h6.41v34.09a22.63,22.63,0,0,0,1.3,7.74c-4,.58-10.32,2.25-15.25,7.17a21.74,21.74,0,0,0-6.36,15.78v62.15c0,9.55,5.24,17.15,14.38,20.83.51.2,1,.39,1.57.57a.44.44,0,0,1-.13.14H115a7.79,7.79,0,0,1-3.32-1.14c-7.3-3.71-14.26-7.41-14.33-7.44l-3.82-2L93,325.53c-.07.54-.13,1.06-.2,1.57-1.08,8.49-1.44,9.09-5.6,9.09h-.24C88.12,333,89,330.78,89,330.72l.86-2.26-2-1.33L67.07,313.6l-2.65-1.72L63,314.43,43.1,300.18l-1.81-1.3-1.77,1.35L36,302.94c-1,.75-23.76,18.52-24,44.41-6.53,7.37-8.12,19.35-8.46,23C3.32,372.2,2,386.28,9.68,397.79a28.21,28.21,0,0,0-8.35,13.6,41.63,41.63,0,0,0-.8,15.29v.4c2,12.53,7.3,20.53,15.88,24.07a24.07,24.07,0,0,0,9.18,1.73c7.58,0,14.9-3.09,20.2-6.06l13,10,1.85,1.43,1.84-1.43,3.68-2.88A118.85,118.85,0,0,0,90,427.6a27.1,27.1,0,0,0,10.32,4.87l3.15.63,1.58.31,1.14-1.14,7.62-7.67a18.45,18.45,0,0,0,8.29,2.12h3.74l.84-.8,1.69-1.59c.48-.46,1-1,7.61-9.46l6.57,4.13,2,1.25,1.65-1.65,7.85-7.51a19.38,19.38,0,0,0,10.89,3.26,11.69,11.69,0,0,0,1.45,0l2.25-.14,1.13-.08.79-.8,1.64-1.73c.4-.41,1-1,1.62-1.6a15.68,15.68,0,0,0,6.88,1.6h.22c3.8-.06,9.18-1.54,13.94-8.1,1.88,1.32,4,3,6.31,4.95l4.21,3.57,2.11,1.79,2-1.95,3.91-3.9c.58-.58,1.69-1.67,3.26-3.19a17.83,17.83,0,0,0,7.84,2.6c.5,0,1,.06,1.52.06a20.31,20.31,0,0,0,12.4-4.57c1.41,1.22,2.92,2.54,4.36,3.81l3.81,3.36,1.91,1.68,2-1.61,8.19-6.67a20.11,20.11,0,0,0,10.51,5.35l3,.48,1.49.23,1.08-1.05,2.15-2.1c.72-.7,3.27-3.07,5.85-5.46a64.81,64.81,0,0,1,12.11,10.62l3.28,3.59,1.64,1.79,2.1-1.23,4.19-2.48a17.6,17.6,0,0,0,1.57-1.1,77.81,77.81,0,0,1,11.54-7.58c4.57,4,11.24,9.73,12.65,11l3.55,3,1.77,1.52,1.91-1.33,10.53-7.4,21.2,18.5,2,1.76,2-1.82,6-5.54c3.32,5.58,7.64,9.41,12.64,11.14l2.49.86,1.26.42,1.16-.63,2.32-1.26A19.31,19.31,0,0,0,404,432.2a24.93,24.93,0,0,0,7.35,5.06,8.58,8.58,0,0,0,5.54,1.06c5.31,4,10.13,6,14.35,6a12.47,12.47,0,0,0,3.44-.47h.12a92.66,92.66,0,0,1,7.23,12.75l1.67,3.5,3-2.48c7.14-6,11.63-9.4,20.8-9.4a26.48,26.48,0,0,1,2.82.11l2.84.19.35-2.82.66-5.23c2.32-18.61,1.87-32.51-1.34-41.33a27.88,27.88,0,0,0-1.79-3.94,70.4,70.4,0,0,0,5.21-10.69c7-18.58.44-29.15-6.34-34.75l-1-.84-.51-.42-.64-.16-1.27-.34a25.16,25.16,0,0,0-6.17-.86,14.89,14.89,0,0,0-9.88,3.4,16.48,16.48,0,0,0-1.29,1.22l-2.71-3.16L445,346.85l-2.08,1-4.16,2.06-.09,0c-.59.28-2.27,1.12-4.31,2.12a13.88,13.88,0,0,0-2.52-2.38,14.05,14.05,0,0,0-8.39-2.61,16.9,16.9,0,0,0-2,.12c-3.67-3.86-7.72-8.11-8.41-8.77l-4.53-4.29-2.6-2.49-2,3C403,336,400.35,340,397.6,340h-.18c-.75,0-1.41-.06-2.05-.06a28.24,28.24,0,0,0-3.56.22l-11.29-16.45-1.43-2.11a22.1,22.1,0,0,0,3-11.36V248.13a21.85,21.85,0,0,0-6.38-15.8,25.68,25.68,0,0,0-12-6.47v-21.8h17v13.32A21.47,21.47,0,0,0,387,233c7.1,7.11,17.27,7.45,19.24,7.45h32.14c3.65,0,12.72-.89,19.27-7.42A21.51,21.51,0,0,0,464,217.38v-80.2H432v-9.12H395.44ZM235.29,130.89h12.32V131h133v.87H337.88a32.18,32.18,0,0,0-11.25,2.26,25.64,25.64,0,0,0-4.84,2.6,30.07,30.07,0,0,0-16.05-4.85H273.5a32.08,32.08,0,0,0-11.24,2.26,26.56,26.56,0,0,0-4.59,2.44A25.94,25.94,0,0,0,243.1,132h-7.81Z" style="fill:url(#linear-gradient)"/><path d="M350,310.28H122v30.9H350Z"/><path d="M337.4,118.2h45.29V14.35H356.74V35.16H337.4s-12.89.07-12.89,10.48v62.25C324.51,118.11,337.4,118.2,337.4,118.2Zm13-62.2h6.29V97.87H350.4Zm-225,77.39V35.16H80.16c-7.77,0-12.82,5.56-12.82,10.42V108c0,10.23,12.88,10.31,12.88,10.31h19.3v5.25H67.3v20.67h45.37c12.77,0,12.79-10.88,12.79-10.88ZM99.51,97.66H93.23V56h6.28ZM286.1,56.05h6.25V118.2H318.1V45.74c0-8-8.79-10.48-12.79-10.48-8.63,0-15,1.8-19.2,5.23V35.27H260.36V118.2H286.1ZM451.16,170.6V149.93h-32V140.8H393.38v9.12H387V170.6h6.39v46.75c0,10.25,12.78,10.25,12.78,10.25h32.15s12.8,0,12.8-10.28V175.74h-25.6V207h-6.35V170.6Zm-68.1-5.2.1-20.8H337.88S325,144.6,325,155.1v72.68h25.92V191.32h32.24V170.49H350.92V165.4Zm-64.53,52V201.82H292.75v5.25h-6.27V196.6h32V155c0-10.47-12.81-10.45-12.81-10.45H273.5s-12.82,0-12.82,10.48v62.35c0,10.28,12.83,10.31,12.83,10.31h32.21s12.82,0,12.82-10.31Zm-32.06-52h6.27v10.34h-6.27Zm-154.07,52c0,10.25,12.81,10.32,12.81,10.32h32.17s12.78,0,12.78-10.31V175.8H164.58v31.29h-6.42V170.6h32V149.93H157.83v-9.48H132v9.48H126V170.6h6.41ZM157.82,87.17h6.23v46.65c0,10.3,13,10.31,13,10.31h19.74v83.61h25.78V165.53h6.22v62.21h25.76V155.22c0-10.46-11.43-10.46-11.43-10.46H222.57V123.49H189.84V81.92a6.74,6.74,0,0,0-3.21-6.12s3.18-1.2,3.18-4.2V45.74c0-10.48-12.79-10.58-12.79-10.58H132v99.58h25.76Zm0-31.14h6.23V66.38h-6.23ZM209,118.14h45V45.68c0-10.47-12.82-10.47-12.82-10.47H209s-12.8,0-12.8,10.47V61.05H222V56h6.25V66.29H209s-12.8,0-12.8,10.31v31.23C196.22,118.11,209,118.14,209,118.14Zm13-31.08h6.24V97.51H222Zm-65,150.54H124.9s-12.8,0-12.8,10.48v15.36h25.75v-5h6.25v10.31H124.9s-12.8,0-12.8,10.31V310.3c0,10.27,12.8,10.3,12.8,10.3h45V248.11C169.86,237.6,157.05,237.6,157.05,237.6Zm-13,62.31h-6.25V289.49h6.25Zm64.3-.07h-6.24v-62.3H176.44V310.1c0,10.4,12.79,10.46,12.79,10.46h32.12s12.81-.06,12.81-10.35V237.65H208.4Zm64.47-66.47H247.16v9.42h-6.4V263.5h6.4v46.74c0,10.09,12.79,10.29,12.79,10.29h32.11s12.79-.06,12.79-10.29V268.6H279.26v31.22h-6.39V263.53h32V242.82h-32Zm83.61,4.32H324.26s-12.83,0-12.83,10.45v62.1c0,10.29,12.83,10.29,12.83,10.29h32.22s12.83,0,12.83-10.29V248.13c0-10.53-12.83-10.42-12.83-10.42Zm-13,62.25h-6.26v-41.5h6.26Z" style="fill:#fff"/><path d="M130.16,332.31c-2.31-1.22-10-6.34-10-6.34-1.76,6.35-1.81,11.49-9.88,7.39-7.41-3.77-14.38-7.47-14.38-7.47C94.58,336,94.66,340.18,83.81,339l-4.06,18c-.93-.54-2.41-1.11-3.39-1.59l9.8-25.76L65.44,316.15l-1.54,2.67L41.35,302.6l-3.54,2.71c-1,.73-23.28,18.14-22.83,43.22-6.57,6.54-8.15,18.59-8.47,22.15-.2,1.71-1.65,16.64,7.23,27.62C2.92,406.6,2.57,417.6,3.5,426.38v.22c1.75,11.33,6.46,18.65,14,21.72,10.28,4.21,22-1.25,28.48-5.17l14.57,11.28,3.72-2.83a114.36,114.36,0,0,0,25-28.57,25.06,25.06,0,0,0,11.61,6.46l3.16.63,9.23-9.29a16.66,16.66,0,0,0,9,2.86h2.32l1.69-1.59c.35-.34.94-.9,9-11.27l8.87,5.58,9.7-9.29a16.53,16.53,0,0,0,12.31,4.13l2.25-.16L170,409.5c.71-.72,2-2,3.24-3.21a13.3,13.3,0,0,0,7.37,2.31h.21c3.25,0,8-1.47,12.25-7.92a13.46,13.46,0,0,0,.79-1.37,75.56,75.56,0,0,1,9.16,6.85l4.21,3.57,3.91-3.9c.77-.77,2.48-2.43,5.08-4.94a15.32,15.32,0,0,0,8.4,3.49c4.66.4,9.27-1.43,13.69-5.46,1.89,1.62,4.18,3.62,6.31,5.5l3.81,3.36,10.36-8.44a17.72,17.72,0,0,0,10.89,6.48l3,.47,2.16-2.1c1.06-1,5.55-5.18,7.56-7,2.86,1.6,8.11,5.14,14.7,12.32l3.28,3.58,4.19-2.47a11.42,11.42,0,0,0,1.28-.91c7-5.28,11.33-7.66,13.87-8.73,4,3.5,11.15,9.67,14.11,12.24l3.55,3,12.45-8.75,23,20.05,8.88-8.2c2.32,5,6.31,10.93,12.78,13.16l2.49.86,2.32-1.25c.44-.24,1.24-.68,5.06-4.07a22.83,22.83,0,0,0,8.4,6.53,5.52,5.52,0,0,0,2.38.8,5.6,5.6,0,0,0,2.5-.32c6.53,5.17,12,7.14,16.32,5.87a5,5,0,0,0,1.67-.84c3.61,3.44,9.16,15.12,9.16,15.12,7.68-6.44,13.32-10.85,25.76-10l.66-5.24c2.26-18.12,1.86-31.55-1.18-39.92a22.88,22.88,0,0,0-2.49-5,68.93,68.93,0,0,0,5.93-11.76c6.41-16.92.57-26.4-5.45-31.37l-1-.84-1.27-.34c-5.58-1.47-10.08-.82-13.37,1.94a11.32,11.32,0,0,0-2.94,3.82l-5.28-6L440,352.6,433.25,356a10.45,10.45,0,0,0-3.22-3.83,12.17,12.17,0,0,0-9.75-1.7c-2.85-3-8.62-9.08-9.39-9.81l-4.52-4.3c-1.55,2.36-4.73,7-9.12,6.69a23.62,23.62,0,0,0-6.81.47L378.05,325.4l-16.73,10.5-9.71-14-10.54,6.8-7.32-7.61-8.06,6.13-6.18-6.62-3,2.09L284,290l-8.95,1.39.3,24.06-1.9,1.74-7-5.44L256.83,321a22.17,22.17,0,0,0-11.3-4L241,316.7V312l.76-2.42c1.91-1.86,4.86-5.48,4.66-10.1-.22-4.84-3.81-9-9.62-11.18l-2.3-.86-2.23,1c-.23.1-.44.18-.74.28a16.27,16.27,0,0,0-2.31,1l-.45.29c-.68.48-1.53,1.2-3,2.42-.65.56-1.69,1.44-2.62,2.21l-.13-.06a43.29,43.29,0,0,0-6.76-2.36c-12.65-3-23.44-1.41-32.08,4.8-9.24,6.63-13.76,17-16,24.89l.54-1.15L164.41,325l-7.81-4.43-8.76,8.53c-4.19-3.64-14.42-4.72-14.42-4.72A24.11,24.11,0,0,1,130.16,332.31ZM350.92,377.4l-.8-1-.74.7a47.17,47.17,0,0,1-.46-6.82l2.08-1.66c.11,2.93.09,5.85-.07,8.78Z"/><path d="M100.16,334.47c1.91.94,3.58,2,7.53,4.08,5.25,2.74,11.74,5.72,15.35-3.63a79.38,79.38,0,0,0,7.62,4.55c2.45-.3,6-5.61,6.84-8.17A16.71,16.71,0,0,1,148,337.53l9.51-9.68,7.84,4.75,3.45-3.45,3.68,2.07s3.91-42.31,42.4-33.12c2.92.65,5.75,2.14,9.09,3.37,1.74-.82,6.84-5.51,8.27-6.54.8-.37,1.62-.71,2.45-1,3.9,1.45,5.62,3.78,5.71,5.82.15,3.4-3.88,6.43-3.88,6.43L235,311.07l-.07,23.39s6.82-1.73,10.2-11.52a16.23,16.23,0,0,1,11.73,6.31l10-9.63,6.9,5.37,3.85-3.53s7.07,8.13,7.6,8.68c-2.53,4.09-3,5.5-2.22,6a1.35,1.35,0,0,0,.95.24,1.37,1.37,0,0,0,.88-.47c1.94-1.74,4-3.62,4-3.62l-7.38-10.24-.27-25.58.79-.12,33.87,34.14,2.88-2,6.34,6.79,8.12-6.18,7,7.31,9.81-6.32L359.65,344l16.71-10.43,12,17.46s1.26-2.56,8.92-2a11.58,11.58,0,0,0,9.51-4c.9.85,11.75,12.31,11.75,12.31s11.71-5.65,9.9,7.85c1.5-.83,14.28-7.15,14.28-7.15l9.78,11.31s2.14,1.83,1.63,0c.41-1.76-3.47-16.26,10.11-12.7,15.82,13.07-4.55,39.44-4.55,39.44s10.77,1.81,5.6,43.21a29.08,29.08,0,0,0-18.61,6.43s-4.5-8.91-9.35-12.71c-1.63-1.63-2.38,1.86-4.84,2.14-4.49,1.63-14.42-7.62-14.42-7.62s-2.38,2.21-2.3,1.86a17.83,17.83,0,0,1-9.9-10.83s-8.25,7.64-9.45,8.29c-9.05-3.12-12-18.2-12-18.2l-11.75,10.79-22.51-19.61-12.43,8.73s-15.28-13.16-16.57-14.39c-7.43,1.42-19.13,10.89-19.66,11.2C289.43,392.25,281.23,390,281.23,390s-9,8.24-10.6,9.84c-7.53-1.2-10.13-9.67-10.13-9.67l-11.9,9.7s-10.42-9.19-10.82-9.23c-13.07,16.48-21.2,1.54-21.2,1.54s-7.59,7.29-9.67,9.35c-13-11-17-10.23-17.2-10.13-.28,3.12-.74,4.55-1.66,6-7.41,11.32-14.92.65-14.92.65s-5.48,5.3-7.37,7.2c-8.33.58-11.21-7.2-11.21-7.2l-11.21,10.74-9.52-6S122.89,417,122.16,417.69c-4.62.08-9.33-4.93-9.33-4.93s-11,11-10.78,10.86-9.83-2-13.35-12.68C80,431.76,60.6,446.87,60.6,446.87l-14.29-11s-31.6,23.62-36.82-10.1c-1.08-10,.24-19.89,14.26-26.45-13.74-8.8-11.29-28-11.29-28s1.43-15.93,8.7-20.05c-2.35-23.85,20.31-41.21,20.31-41.21L65.8,327.6l1.69-3L78.85,332s-9.33,24.43-10.13,26.72c16.23,5.36,20.85,17.43,20.85,17.43s12.68-9.18-3.67-19.53l2.54-11.75C97.16,345.6,99.1,340.35,100.16,334.47ZM54.05,351l-7.53-4.68s-1.45,3.76-.38,5.91a7.08,7.08,0,0,0,6.3,3.15ZM54.78,403c3.39,1.73.34,4.78.34,4.78L50.34,405s.69-3.5,4.44-2ZM31.16,426.19c-2.61.3-2.5-2.67-2.5-2.67s0-2.27,1.44-3c1.83-1,6,3.16,6,3.16C35,425.5,31.16,426.19,31.16,426.19Zm74.18-64.06,2.38.55-.08,8.14s-1.38.73-1.53-1.23a23.46,23.46,0,0,0-.75-7.46Zm-.45,19.47s1,.58,2.72,1.71c-.17,3.32-.6,10.91-.6,10.91s-.36,3.93-.93,2.38C104.16,393.46,104.89,381.6,104.89,381.6Zm24.35-21.17c0-3.61,1.07-3.84,1.07-3.84s1.23-1.15,1.31,2.84c0,1,0,31.25-.08,31.76s-1.39,2.3-2.14.18c-.11-.27-.17-26.83-.16-31ZM151.75,357,153.7,355s.12,27,.06,28.68c.08,1.11-.8,4.84-1.5.41,0,.4-.57-8.93-.57-8.93Zm20.78-9.2s3.75,12.84,7.89,15.6a108.43,108.43,0,0,0-8.06,16c0-1.05.17-31.63.17-31.63Zm18.4-9c.22.19,2,2.89,4.6.79-1.85,3.58-1.88,3.66-3.66,6.9-.7-2.18-1.31-6.77-.94-7.77Zm21.52,4.4-.13,6.35L209,350Zm-12.13,25.7,11.66-.76s.11,7.5-.08,7.91c-.08.1-.23,2.91-4.49,1.9a47.54,47.54,0,0,1-6-2.24,11.4,11.4,0,0,0-3.52-1.12c0-.24,2.43-5.75,2.43-5.75Zm34.44-27.34,4.36,5.19s.08,22.4-.08,27.78c-1-.45-4.32-3.83-4.32-3.83Zm23.75,6.91,2.18-2.38v33.13s-.11,1.33-.94,1.27c-.43.12-1.47.06-1.24-1.49V348.5Zm22-.23,1.61-.16c.12,4.32,0,22-.52,26.45.08.08-.32,3.8-.85.24-.44-2.28-.27-26.56-.27-26.56Zm20.14.59,2.33,2.44s0,22.63-.07,24.76A10.52,10.52,0,0,1,300.6,375Zm21.42,2.85,1-.46s.27,0,.35.43c1.8,4.72-.65,32.2-1.11,33.12.07.12-.58,0-.58,0Zm51.87,13.07,1.21,1.49-1.23,1Zm29.7,3.81c.06.09,1.84,1.89,1.84,1.89s0,4.64-.06,4.6C404.16,374.84,404.39,372,403.64,368.6Zm-1.58,19.49c.12.17,2.37,2.7,2.37,2.7s-.29,8.62-1.39,10.7c-.8-.31-2.19-5.83-1-13.39ZM392.16,373c-8.06,8.93-8,19.52-8.69,20.79-7,7.37-7.31.06-7.31.06l-.24-10,15.49-13.65S392.09,372.6,392.16,373Zm30.17.69,2-.92.12,25,7.54,9.28-4.25,6.54s-2.65-3.45-5.36-4.32c.12-1.88,0-35.63,0-35.63ZM443,385.23a7.64,7.64,0,0,0,3.32,2.16c-.31.39-1.44,2.16-2.46,3.64-1.4.13-.82-5.79-.82-5.79Zm4.87,33.12c-1.75-.8-4.58-2.3-4.58-2.3l3.52-5.71s2,1.49,1.1,8Zm-103.48-59.1,3.57,4.09s7.28-5.79,7.67-6c3.61,16.82-.67,35-.67,35l-5.54-7.09s-3.83,3.63-5-2c-3.36-14.56,0-24,0-24Z" style="fill:#fff;fill-rule:evenodd"/><path d="M275.79,380.6c-.23-2.67,0-32,0-43.6-.18-1.85,3-6.06,3.84-7.68-.5-.48-.93-1-2-2.17-1.2,1.24-2.47,2.41-3.78,3.52-1.49-1.39-3.85-3.52-6.2-5.43-3.39,3.66-7,6.47-12.94,12.73-.55-4.2-2.46-8.89-6.76-9-.89,3.15-6.77,7.83-9.74,9.46a24.35,24.35,0,0,0,1.43,2.2c.62-.31,4.61-2.84,4.51-1.06.18,5.28.56,44.67-1.53,47.26.4.87,5.21,5.08,6.56,6.27a60,60,0,0,0,7.27-6.52c-2.45-4-1.45-36.06-1.38-42,2.07-2.25,5-4.92,6.58-6.43,1.77-1.34,3.83,1.13,3.76,4l.15,37.33c.06,2.42-.42,10.94,4.26,13.91.84-.74,9-8.74,10.75-10.46-.38-.61-1.39-1.91-1.73-2.37C277.31,381.38,276.16,382,275.79,380.6ZM125.51,399c-.63,0-1.15.21-1.34-.92V349.6c.41-1.41,2.91-4.69,2.75-4.89.56-1.44-2.06-2.71-2.2-2.71a10.33,10.33,0,0,1-5.41,4.86c-4.76,1.56-12.21-2.24-16.2-4.61-.6.71-.66,7-9.79,8.24a21.52,21.52,0,0,1-.73,4A12.38,12.38,0,0,1,95.82,358c1.8,2.65,2.38,4.14,3.07,8.22a31.92,31.92,0,0,1-.08,6.91c-.88,1.07-1.69,1.66-2.59,2.95a30.12,30.12,0,0,0-3.32,6.46c-3.36,9.13-3,21.22,2.74,29.48a14,14,0,0,0,5.73,4.46c2.72-2.72,5.35-5.53,8.08-8.25.92-1.24,1.89-2.12,3.1-3.58,0-.07,4.5,6,8.18,6.6,2.81-2.91,6.56-8.36,9.06-11.4-.53-.65-1.18-1.61-1.69-2.22A6.57,6.57,0,0,1,125.51,399Zm-19.18,4.47c-.56,0-7.88-1-5-27.21,3.31,1.33,6.54,2.68,9.86,4C110.94,388,112.27,400.25,106.33,403.5Zm4.9-27.88a62.28,62.28,0,0,1-8.67-3.13c0-1.85,1.35-9-3.92-15.95,4.84.92,12.57,2.55,12.64,2.62,0,5.53,0,10.93,0,16.44ZM343,349.5c.88,1.25,4.65,6,5.49,7.12,1.27-1,6.79-5.6,8.08-6.69-.2-.47-7.9-12.91-7.9-13-3.06,2.24-8.64,6-8.71,6.13-2.22-2.43-6.39-6.9-7-7.47-2.17,1.6-7.65,5.35-9.35,6.47.44.59,1,1.48,1.47,2.06a12.56,12.56,0,0,1,2.53-.72c1.83.54,1.89,8.55,1.89,12.14A194.62,194.62,0,0,1,328,381.31c-.67,3-.71,6.27-2.12,9,2,2.28,10.45,9.79,12.06,11,1.67-1.1,10-7,11.69-8.9-.56-.81-1.58-2.29-2.26-3.17-.37.29-2.11,1.66-3.36,1.3-1.83-.6-2.13-1.19-3-2.54-3.87-6-4.22-24-1.58-31.9C340.27,353.6,340.77,351.53,343,349.5Zm-28.62-13.69c-.33-.16-.49.46-1.22-.42-1.16-1.27-25.8-28-28.1-30.17,0,4.86-.07,9.94-.07,14.8,1.72,1.59,11.39,13.22,11.47,13.3-3.42,2.72-6.61,5.25-10.1,8.06l.42,30.94c0,3.83-.23,11-1.88,13,7.72,1.57,14.36,8.52,17.51,12.24A69.43,69.43,0,0,1,317,389.17V339.66a10.73,10.73,0,0,1,2.41-4.35c-.54-.69-1-1.15-1.65-2.06C316.91,333.76,316.16,335.21,314.38,335.81Zm-7.9,50.79c-1.27-1.07-1.77-1.56-2.87-2.35a43.71,43.71,0,0,0-7.54-4.68V344s2.36-3.53,3.31-4.86c2.39,2.44,5.19,5.4,7.11,7.66C306.51,360.16,306.48,373.15,306.48,386.6Zm54.68-36.89c.36,5.9,1.1,22.71,1.1,25.21.16,2.93.22,18.76-3.89,24.46,1.92,1.61,13.29,11.4,14.21,12.37,2.11-1.58,9.62-8.66,12.55-11.45a24.24,24.24,0,0,0-1.57-2.23c-2.5,1.54-6,5.34-9.36,4.71-2.2-1-2.43-6.12-2.54-7.5v-15c.19-.39,12.94-10,17.31-15.36-1.11-2.88-12.92-23-14.05-24.41C372.94,341.84,364.06,347.71,361.16,349.71ZM371,374.1c.07-6.41.12-12.57.19-19,1.36,1.61,8.25,12.37,8.33,12.44-1.31,1.15-8.38,6.56-8.53,6.56Zm46.21-11.7c-.88-.93-8.19-8.43-10.92-11.15-3.07,4.15-12.32,1.65-14.19,4.29.07.23,0,.36.07.59a32.37,32.37,0,0,1,2.38,4.56c.86,1.51,3.45,9.53,3.37,12.37,0,.81.12,1.26.12,2.07-.54.34-1.57,1.08-2,1.37a15.41,15.41,0,0,0-4.39,5.78c-4.29,9.9-3.83,29.84,4.69,38.06,1.62-1.73,11-9.47,12.18-10.62a34.79,34.79,0,0,0,.88,6.43c1.06,2.86,1.62,4.26,5.31,6.66l7.76-7.55c.07-.07-1.13-1.44-1.47-2-.56.3-.82.48-1.31.71s-1.42.5-1.48-.79V369.25c0-2.89,4.48-5.07,4.81-6.87a3.22,3.22,0,0,0-.09-1.38,3.13,3.13,0,0,0-.7-1.19C420.64,360.65,418.6,361.75,417.16,362.4Zm-12,42.75a4.47,4.47,0,0,1-2.73,2.6c-2-1.45-2.86-3-3.68-5.79-2.08-7.08-.62-16.52,1.35-21,2.79,2,5.71,5.5,7.83,7.57C408.16,394.82,407.7,400.24,405.16,405.15Zm3-22.5c-2.42-2.08-4.26-4.65-6.53-6.91a59.78,59.78,0,0,0-2.76-15c3.38,1.92,6.83,5.52,9.37,7.79.07,4.9,0,9.32,0,14.07Zm56.32-8.83c1.06-3.72,1-9.54-.89-12.16a3.48,3.48,0,0,0-4-1.11c-3.77,1.47,1.19,10.78-1.31,13.89-2,2.11-4.42,2.07-6.68.73-3.46-1.72-9.91-10.7-10.22-11.09-4,2.37-7.94,4.37-12.12,6.82v23.88c.92,1.39,7.32,9.45,9.1,11.69-1.59,2.61-11.63,18-12.78,19.76,1.55,1.32,4,3.31,4.09,3.39,1.84-2.3,5.12-4.61,9-2.71,4.72,2.31,9.24,11,9.31,11a17.88,17.88,0,0,1,12.39-4.18c.78-10.83,2.2-23.44-2.59-32.37-1.23-2-2.63-4-5.11-4.74,1.26-1.71,3-4.58,4-6,1.56-1.65,6.34-10.29,7.88-16.8Zm-13.62,53.62c-1-.84-5.84-8.29-14.06-8.5,2.28-3.54,8.8-13.57,9.57-15.1,7.71,1.65,5.56,16.58,4.56,23.6Zm-7-28.84c-1.48-1.7-4.09-5-5-6.32v-15.4c3.45,4.24,8.83,8.22,13.43,8-1.64,2.87-8.44,13.72-8.44,13.72Zm-372.27-33a55.93,55.93,0,0,0-6.43-3.1c-1-.44-1.61-.68-2.93-1.21.4-1.36,2-5.51,2.49-6.75,2.52-6.82,5-13.28,7.47-19.79C70.93,334,68,332,67.64,331.87c-.5,1-1.21,2.53-1.81,3.66-.19.18-4.69-3.29-5.6-3.93-4.63-3.23-16.37-11.79-18.08-13.35A50.58,50.58,0,0,0,38,323a66.92,66.92,0,0,0-7.72,12.64,70.42,70.42,0,0,0-3.1,9.72c-.29,2-.59,4-.88,6,0,1.52-.08,2.31-.11,3.24A10.58,10.58,0,0,0,23,358.19a31.52,31.52,0,0,0-2.65,6.64c-4,12.26.65,24.82,8.4,29.63A30.48,30.48,0,0,0,36,397.33a46.38,46.38,0,0,0,6.64.66,8.65,8.65,0,0,1-3,5.23c-2.24,1.33-6.85-1.6-10.43-.75-6.14,1.44-10.53,6.56-12.49,13-3.24,10.63,1.9,25.13,15.16,22.13,5-1.14,8.22-4,11.87-6.7,1.07-.83,3.41-3,3.48-3,1.66,1.29,3.12,2.61,4.65,3.76,1.61,1.41,7.22,6.13,8.72,7.3,2.34-1.86,7.94-8.18,9.75-10.27a77.92,77.92,0,0,0,5-6.32A81.33,81.33,0,0,0,86.4,400.49c2.06-6.4,2-15.08-.88-20.8C82.87,373.41,77.09,369,71.59,365.6Zm-33,61c-3.17,2.33-11.12,6.74-14,1.58-1.51-2.67-1.41-7.92.08-10.44,3.46-5.9,10.63.34,14.13,2.76,1.19.83,2,1.75,3.26,2.78a26.88,26.88,0,0,1-3.51,3.32Zm2.2-82a39.07,39.07,0,0,1,2.83-7.13c2.16,1.38,15.21,10.74,16.78,11.75-1.42,4.22-2.85,7.81-4.34,11.66-10.64,0-18.08-5-15.31-16.28ZM30.67,372.93a56.76,56.76,0,0,1-1.32-10.86c3.55,8.79,7.59,16.45,20,16.36-.77,2.38-1.55,3.94-2.36,6C38.1,384,33.34,379.44,30.67,372.93Zm28.18,37c-.55.83-1.47,2.16-1.93,2.7-2.65-1.41-8.12-4.66-11.74-6.42,1.3-3,2-4.61,3.12-7.36,6.46-.26,9.79.56,12,3.58.92,2.32.45,4.67-1.4,7.53ZM75.64,398.6a44,44,0,0,1-1.38,5.34,44.69,44.69,0,0,1-5.1,10.35c-.89,1.4-2,3-3.11,4.68a19,19,0,0,1-3.26-2.3c1.44-2.08,2.74-3.93,3.81-5.62,4-6.43,7.92-16.71.15-22.18a21.09,21.09,0,0,0-5.26-2.64,40.28,40.28,0,0,0-9-1.47c1-2.45,1.57-3.72,2.34-6,9.61.66,17,3.87,20,11.14a21.78,21.78,0,0,1,1,3.91,13,13,0,0,1-.2,4.85ZM168,388.46c-.23-2.68.15-32.14.15-43.81-.19-1.86,3-7.09,3.87-8.7a27.29,27.29,0,0,0-2.48-1.78c-1.51,1.74-2.67,3.16-3.5,4.29-1.62-1.28-4.3-3-6.65-5-3.55,3.52-6.5,6.52-12.4,12.78-.55-4.19-3.53-8.33-6.91-8.83-1.2,3.06-6.57,8-9.54,9.65a20.31,20.31,0,0,0,1.09,2.07c.61-.31,5-2.73,4.93-1,.17,5.28,1.12,44.3-1,46.89.39.86,5.92,4.81,7.28,6a55.79,55.79,0,0,0,7.07-6.23c-3.29-4.56-2.52-35.93-2.45-41.89,2.06-2.25,5-5.21,6.57-6.72,1.76-1.34,3.82,1.13,3.75,4v37.53c.06,2.42.56,9.81,6.17,11.77.84-.73,7.72-8.31,9.45-10-.37-.63-1.33-1.63-1.68-2.1-1.52,1-3.43,3-3.72,1.11Zm67.44-9.81c-1.23-.57-3.66,2.19-3.66,2.19s-1.76,1.69-1.79-.66V307.91c.33-1.67,4.21-6,5.62-7.6a2.46,2.46,0,0,0-.55-1,2.58,2.58,0,0,0-1-.64c-2.23,1.92-8.68,7.4-10.31,8.82-4.87-2.74-15.66-9-26.25-4.43-9.65,3.59-19.9,16.14-19.23,38,.07,1.4.65,10.35,4.64,17,.61,1,4.13,5,4,5.09-8.14,12.55-8.83,15.54-10.39,20.34-1.08,3.31-1.83,8.64.17,11.62,1.27,2.52,9.16,5.05,8.12-3.81-.14-.68-1.47-8.33,5.63-6.25,7.06,1.72,14.69,8.06,15.8,9.07,2.7-2.76,10.6-10.78,10.67-10.86,2.17,4.71,6.57,12.73,13.43,7.75,2.29-1.66,4.9-5.52,6.58-10a1.94,1.94,0,0,0,0-.76,2.14,2.14,0,0,0-.29-.72,2.1,2.1,0,0,0-.54-.53,1.94,1.94,0,0,0-.71-.29Zm-48.59-33.32c-2-10.46,1.41-21.59,6.78-26.18a13.36,13.36,0,0,1,4.41-2.73c.83-.25,6-2.29,13.63,1.2-.81,1.47-1.63,2.79-2.44,4.27-1.89-.35-3.54-1-6.24-.66-4.6,1-6.66,3.5-8.18,7.07a19.17,19.17,0,0,0-1.29,8.1c1.26-1.8,3.27-5.89,8.48-5.87a19.83,19.83,0,0,1,2.65.69c-1.11,2.08-1.81,3.47-2.77,5-2.36,3.88-4.34,7.81-6.71,11.66-1.36,2.21-2.69,4.68-4.42,7.46-2-2.49-3.17-7.18-3.9-10Zm29.47,33.35c-2,2.71-5.7,5.76-9.73,4.5-3.46-1.09-6.56-3.23-9.75-4.62-1.66-.73-5.59-2.18-5.74-2.18,1.84-3.67,3.91-7.76,5.53-11,6.63-.52,13.26-1.3,19.89-1.81,0,1.85-.2,13.07-.2,15.18Zm.32-24.08c-3.78.21-10.34,1-12.68,1.15-.15,0-3.31.31-3.46.31,1.54-2.77,3.39-6.25,4.69-8.37,2.53-4.34,11.52-21.69,11.59-21.69,0,9.62-.15,19.26-.14,28.62Z" style="fill-rule:evenodd"/><path d="M489.83,355.18a5.14,5.14,0,0,1-.8,2.91,5,5,0,0,1-2.28,2,5.16,5.16,0,0,1-4.17-9.44,5.32,5.32,0,0,1,2.11-.44,5,5,0,0,1,4.74,3.05A4.89,4.89,0,0,1,489.83,355.18Zm-9,0a3.77,3.77,0,0,0,.26,1.53,3.87,3.87,0,0,0,3.65,2.47A3.77,3.77,0,0,0,487.5,358a3.56,3.56,0,0,0,.82-1.29,3.92,3.92,0,0,0,.25-1.52,3.87,3.87,0,0,0-7.74,0Zm3.09,2.63h-1.17v-5a10.48,10.48,0,0,1,1.93-.16,3.3,3.3,0,0,1,1.75.37,1.39,1.39,0,0,1,.37.5,1.57,1.57,0,0,1,.12.6,1.29,1.29,0,0,1-1.05,1.16v.06a1.54,1.54,0,0,1,.63.49,1.48,1.48,0,0,1,.29.74,3.84,3.84,0,0,0,.37,1.25h-1.25a4,4,0,0,1-.4-1.22.86.86,0,0,0-.92-.8H484Zm0-2.84h.55c.64,0,1.16-.22,1.16-.73s-.34-.77-1.07-.77a3.47,3.47,0,0,0-.64.06Z" style="fill:#fff"/><path d="M47.44,465l10.72,43.18,367-4.71,8.8-33.76Z" style="fill:url(#linear-gradient-2)"/><path d="M47.43,465,434,469.74l-8.82,33.76-367,4.71Zm-4-3.19,1,4L55.16,509l.6,2.43h2.5l367-4.71h2.4l.6-2.32,8.8-33.77,1-3.88-4,0-386.59-4.8H43.4Z" style="fill:url(#linear-gradient-3)"/><path d="M63.05,482.84h5.8v10.37h2.94V482.84H77.6V480.6H63.05Zm31.23,2.65H85.16V480.6h-3v12.64h3v-5.45h9.17v5.45h3V480.6h-3Zm11.88,2.22H112V485.6h-5.83v-2.82h10V480.6H103.24v12.64h13v-2.39H106.16Zm38.47-5.49a7.85,7.85,0,0,0-5.35-1.63h-8.12v12.63h7.37a18.18,18.18,0,0,0,3.13-.24,6.15,6.15,0,0,0,2.05-.74,5.6,5.6,0,0,0,2.06-2.23,7,7,0,0,0,.73-3.18,5.52,5.52,0,0,0-.42-2.51,5.64,5.64,0,0,0-1.44-2.1Zm-2.43,7.68a7.56,7.56,0,0,1-4.3.94h-3.74v-8h5.21a4.26,4.26,0,0,1,3.1,1,3.68,3.68,0,0,1,.83,1.35,3.81,3.81,0,0,1,.22,1.57,3.64,3.64,0,0,1-1.31,3.14Zm12.67-2.19h5.83V485.6h-5.83v-2.82h10V480.6H152v12.64H165v-2.39H154.89Zm15.57,5.51h2.94v-4.79h5.32v-2.31h-5.32v-3.33h9.83V480.6H170.46Zm17.36,0h2.94V480.6H187.8Zm21.12-6v.68a10.21,10.21,0,0,0,.1,1.51c-.2-.23-.41-.46-.64-.68s-.5-.45-.8-.7l-8.85-7.43h-2v12.64h2.64V485.5a4.13,4.13,0,0,0-.09-1.1c.14.17.3.33.46.49l.59.54,9.27,7.8h2V480.6H209Zm8.61,6h2.94V480.6h-2.94ZM225,482.85h5.8v10.37h2.93V482.84h5.82V480.6H225Zm19.14,10.36h3V480.6h-3Zm15.89-3.5-5.12-9.11h-3.35l7.29,12.64h2l7-12.64h-2.93Zm15.22-2h5.89V485.6h-5.84v-2.82h10V480.6h-13v12.64h13v-2.39H275.27Zm32.32,0h5.83V485.6h-5.83v-2.82h10V480.6H304.65v12.64h13v-2.39h-10.1Zm29-5.49a8,8,0,0,0-5.35-1.63h-8.08v12.63h7.37a17.23,17.23,0,0,0,3.13-.23,6.37,6.37,0,0,0,2-.74,5.56,5.56,0,0,0,2.06-2.24,6.82,6.82,0,0,0,.72-3.17,5.83,5.83,0,0,0-1.87-4.62Zm-2.43,7.68a7.56,7.56,0,0,1-4.3.94h-3.79v-8h5.2a4.28,4.28,0,0,1,3.11,1,3.83,3.83,0,0,1,1,2.92,3.65,3.65,0,0,1-.25,1.73A3.51,3.51,0,0,1,334.16,489.9Zm9.74,3.32h2.94V480.6H343.9Zm7.5-10.37h5.76v10.37h3V482.84H366V480.6H351.43Zm19.11,10.37h2.94V480.6h-2.94Zm21.23-12.62h-9.3a3.6,3.6,0,0,0-2.48.64,3.29,3.29,0,0,0-.65,2.35v6.65a3.26,3.26,0,0,0,.65,2.36,3.54,3.54,0,0,0,2.48.63h9.3a3.58,3.58,0,0,0,2.48-.63,3.26,3.26,0,0,0,.65-2.36V483.6a3.29,3.29,0,0,0-.65-2.35A3.64,3.64,0,0,0,391.74,480.6Zm.2,10.25h-9.69v-8h9.69Zm21-10.25v7.31c0,.3.05.8.1,1.52a5.77,5.77,0,0,0-.63-.68c-.23-.22-.5-.46-.8-.71l-8.91-7.44h-2v12.64h2.64V485.5c0-.35,0-.71-.09-1.1.15.17.3.33.47.49l.58.54,9.27,7.8h2V480.6Z"/><path d="M415.54,480.6v12.64h-2l-9.27-7.8-.58-.54c-.17-.16-.32-.33-.47-.49,0,.39.07.76.09,1.1s0,.65,0,.91v6.82h-2.64V480.6h2l8.89,7.44c.3.25.57.49.8.71a5.77,5.77,0,0,1,.63.68c-.05-.71-.08-1.21-.1-1.52s0-.51,0-.67V480.6Zm-23.81,0a3.64,3.64,0,0,1,2.48.64,3.25,3.25,0,0,1,.65,2.35v6.65a3.26,3.26,0,0,1-.65,2.36,3.58,3.58,0,0,1-2.48.63h-9.3a3.54,3.54,0,0,1-2.48-.63,3.26,3.26,0,0,1-.65-2.36V483.6a3.29,3.29,0,0,1,.65-2.35,3.54,3.54,0,0,1,2.48-.63h9.3Zm-9.49,10.27h9.69v-8h-9.69Zm-8.76-10.27v12.64h-2.94V480.6Zm-7.5,0v2.27h-5.82v10.37h-2.94v-10.4h-5.79V480.6H366Zm-19.1,0v12.64h-2.94V480.6Zm-15.59,0a7.91,7.91,0,0,1,5.35,1.64,5.81,5.81,0,0,1,1.86,4.61,6.89,6.89,0,0,1-.72,3.18,5.6,5.6,0,0,1-2.06,2.23,6.37,6.37,0,0,1-2.05.74,18.18,18.18,0,0,1-3.13.24h-7.38V480.6Zm-5.13,10.25H330a7.4,7.4,0,0,0,4.3-.94,3.68,3.68,0,0,0,1-1.4,3.48,3.48,0,0,0,.26-1.72,3.8,3.8,0,0,0-1.05-2.92,4.28,4.28,0,0,0-3.11-1h-5.19v8Zm-8.59-10.25v2.15h-10v2.85h5.83v2.15h-5.83v3.13h10.1v2.38h-13V480.6Zm-32.31,0v2.15h-10v2.85h5.83v2.15h-5.82v3.13h10.11v2.38h-13V480.6Zm-17.37,0L261,493.24h-2l-7.37-12.64h3.35l5.12,9.14,4.87-9.14h3Zm-20.79,0v12.64h-2.94V480.6h2.94Zm-7.5,0v2.27h-5.83v10.37h-2.93v-10.4H225V480.6Zm-19.11,0v12.64h-2.94V480.6Zm-8.91,0v12.64h-2l-9.27-7.8-.59-.54c-.16-.16-.32-.33-.46-.49,0,.39.07.76.09,1.1s0,.65,0,.91v6.82h-2.64V480.6h2L207.6,488c.3.25.57.49.8.71s.44.45.64.68c0-.71-.08-1.21-.1-1.52s0-.51,0-.67V480.6Zm-20.82,0v12.64h-2.94V480.6Zm-7.53,0v2.21H173.4v3.32h5.32v2.31H173.4v4.8h-2.94V480.6Zm-18.35,0v2.15h-10v2.85h5.83v2.15h-5.83v3.13H165v2.38H152V480.6Zm-25.58,0a7.91,7.91,0,0,1,5.35,1.64,5.77,5.77,0,0,1,1.87,4.6,7,7,0,0,1-.73,3.18,5.47,5.47,0,0,1-2.06,2.23,5.68,5.68,0,0,1-2,.74,16.38,16.38,0,0,1-3.13.24h-7.44V480.6h8.14Zm-5.14,10.24H138a7.56,7.56,0,0,0,4.3-.94,3.68,3.68,0,0,0,1-1.41,3.59,3.59,0,0,0,.25-1.71,3.84,3.84,0,0,0-.22-1.58,3.68,3.68,0,0,0-.83-1.35,4.26,4.26,0,0,0-3.1-1h-5.2v8Zm-18-10.24v2.15h-10v2.85H112v2.15h-5.83v3.13h10.1v2.38h-13V480.6Zm-18.9,0v12.64h-3v-5.45h-9.1v5.45h-3V480.6h3v4.9h9.17v-4.9h2.93Zm-19.63,0v2.27H71.79v10.37H68.85v-10.4h-5.8V480.6Zm339.16-1.25h-5.14v7.12l-8.15-6.87-.35-.29h-3.71v15.13h5.14v-7.15l8.15,6.86.35.29h3.71Zm-25.05,0h-9.3a3.47,3.47,0,0,0-4.19,2.52,4.41,4.41,0,0,0-.17,1.73v6.65a3.66,3.66,0,0,0,4.35,4.26h9.3a4.6,4.6,0,0,0,3.35-1,4.35,4.35,0,0,0,.83-1.52,4.44,4.44,0,0,0,.17-1.74V483.6a4.63,4.63,0,0,0-.18-1.73,4.49,4.49,0,0,0-.82-1.52,4.73,4.73,0,0,0-3.36-1Zm-8.24,4.77h7.19v5.48H383.5Zm-8.77-4.77h-5.44v15.14h5.44Zm-7.5,0H350.16v4.77H356v10.37h5.44v-10.4h5.82v-4.74Zm-19.11,0h-5.44v15.14h5.48V479.34Zm-16.84,0h-9.37v15.14h8.62a18.1,18.1,0,0,0,3.37-.27,7,7,0,0,0,2.47-.91,6.78,6.78,0,0,0,2.51-2.72,8.1,8.1,0,0,0,.86-3.75,7,7,0,0,0-2.29-5.52,9.23,9.23,0,0,0-6.17-2Zm-3.93,4.77h3.95a3.28,3.28,0,0,1,2.25.64,3.2,3.2,0,0,1,.53.93,2.61,2.61,0,0,1,.13,1.07c0,1.55-.57,2-.76,2.11-.43.32-1.39.7-3.56.7h-2.54Zm-8.53-4.77H303.4v15.14h15.54V489.6h-10.1V489h5.83v-4.66h-5.83V484h10v-4.65Zm-32.31,0H271.09v15.14h15.54V489.6H276.52V489h5.83v-4.66h-5.83V484h10v-4.64Zm-16.55,0h-5.8l-.35.66-3.8,7.11L256,480l-.35-.64H249.4l1.08,1.88,7.3,12.62.36.63h3.49l.36-.65,6.94-12.63,1-1.85Zm-21.61,0h-5.44v15.14h5.44Zm-7.51,0h-17v4.77h5.8v10.37h5.43v-10.4h5.82v-4.76Zm-19.1,0H216.3v15.14h5.44Zm-8.91,0h-5.14v7.12l-8.15-6.87-.35-.29h-3.71v15.13h5.14v-7.15l8.14,6.86.35.29h3.72V479.35Zm-20.82,0h-5.44v15.14H192Zm-7.53,0H169.16v15.14h5.44v-4.8h5.32v-4.81H174.6v-.82h9.83v-4.71Zm-18.35,0H150.7v15.14h15.55V489.6H156.16V489H162v-4.66h-5.83V484h10v-4.65Zm-26.83,0h-9.37v15.14h8.62a18.1,18.1,0,0,0,3.37-.27,7,7,0,0,0,2.47-.91,6.78,6.78,0,0,0,2.51-2.72,8.23,8.23,0,0,0,.87-3.75,6.88,6.88,0,0,0-.53-3,7,7,0,0,0-1.77-2.52,9.23,9.23,0,0,0-6.17-2Zm-3.93,4.77h4a3.2,3.2,0,0,1,2.24.64,2.73,2.73,0,0,1,.66,2c0,1.55-.57,2-.76,2.11-.43.32-1.39.7-3.55.7h-2.59v-5.45Zm-18-4.77H102v15.14h15.54V489.6h-10.1V489h5.83v-4.66h-5.83V484h10v-4.65Zm-18.91,0H93v4.9H86.36v-4.9H80.92v15.14h5.44V489H93v5.45H98.5V479.34Zm-19.65,0h-17v4.77h5.8v10.37h5.44v-10.4h5.81v-4.76Z" style="fill:url(#linear-gradient-4)"/></svg>