<svg viewBox="0 0 790 366" xmlns="http://www.w3.org/2000/svg"><path fill="#56c4f0" stroke="#56c4f0" stroke-width=".09" d="M487.27 38.99a107.84 107.84 0 0 1 65.67-22.94c6.2-.17 12.55.44 18.25 3.08 5.85 2.39 12.33 6.15 14 12.7 0 3.08-.02 6.16-.06 9.24-1.27 6.31-4.57 12.02-7.77 17.54l-.22-.06c-26.27-5.9-52.71-11.11-79.02-16.82-3.68-.63-7.36-1.37-10.85-2.74Z"/><path d="M585.19 31.83a15.1 15.1 0 0 1-.06 9.24c.04-3.08.06-6.16.06-9.24ZM452.46 80.08a84.83 84.83 0 0 1 4.01-6.74c2.71.78 5.52.92 8.33.89.1 3.53.23 7.06.38 10.59 3.72.12 7.44.19 11.16.2l.04 1.38c-.18 3.82-.65 8.11 1.8 11.37 2.44 3.19 5.69 5.64 8.91 7.99l.03 1.11c.08 3.24.37 6.6-.89 9.68-2.95-1.19-5.49.68-6.87 3.17-1.05-2.92-2.03-5.86-3.07-8.77-4.29-12.55-12.38-23.93-23.83-30.87Zm35.74 38.72c3.18-1.05 6.54-.97 9.84-.89-.06 3.91.01 7.81.08 11.71-6-.13-7.2-6.8-9.92-10.82Z" fill="#bee8f9" stroke="#bee8f9" stroke-width=".09"/><path d="M314.62 51.3c14.66-6.58 30.33-11.35 46.37-12.97 3.92-.47 7.86-.24 11.78.04l-.21.15c-11.41 8.09-23.46 15.19-34.98 23.1-9.93 5.97-19.28 12.86-29.2 18.85-8.11 5.15-15.9 10.82-24.16 15.73-7.89 5.11-15.5 10.69-23.75 15.2l-.88-.61c1.34-6.51 4.51-12.54 7.75-18.3l.12-.2a82.6 82.6 0 0 1 2.92-4.74l.12-.17a98.57 98.57 0 0 1 25.85-25.9l.19-.12 2.8-1.87.2-.13 2.94-1.84.19-.11c3.77-2.13 7.48-4.43 11.56-5.93l.2-.08.19-.1ZM707.5 288.92c3.8-.4 7.65-.42 11.45.16 6.73.93 13.6-.17 20.28 1.17-5.41-.03-10.79-.65-16.19-.69-5.18-.23-10.41.22-15.54-.64Z" fill="#ff4e52" stroke="#ff4e52" stroke-width=".09"/><path fill="#ff6460" stroke="#ff6460" stroke-width=".09" d="M337.58 61.62c11.52-7.91 23.57-15.01 34.98-23.1 6.81.68 13.55 2.98 18.95 7.27a105.27 105.27 0 0 1-11.18 7.55c-6.23 3.66-11.96 8.07-18.11 11.86-9.73 5.81-18.78 12.66-28.55 18.41-11.98 8.12-24.25 15.76-36.28 23.79-9.54 5.7-18.44 12.4-27.97 18.1-4.74 2.81-8.94 6.5-14.04 8.67.29-8.05 1.88-15.92 3.69-23.74l.52.36.88.61c8.25-4.51 15.86-10.09 23.75-15.2 8.26-4.91 16.05-10.58 24.16-15.73 9.92-5.99 19.27-12.88 29.2-18.85Z"/><path fill="#6bcbf2" stroke="#6bcbf2" stroke-width=".09" d="M464 62.67a126.66 126.66 0 0 1 23.27-23.68c3.49 1.37 7.17 2.11 10.85 2.74 26.31 5.71 52.75 10.92 79.02 16.82l-.71 1.3c-13.33 1.04-25.78 7.92-35.41 16.98-.89.81-1.76 1.63-2.59 2.49-10.7-2.93-22.21-3.93-31.87-9.8-2.3-.96-4.83-1.07-7.27-1.37-3.09 3.13-7.31 1.13-10.97.41-4.62-1.22-9.89-1.2-13.59-4.64-3.3-.23-6.6-.09-9.89.05l-.84-1.3Z"/><path fill="#ff7a70" stroke="#ff7a70" stroke-width=".09" d="M391.51 45.79c5.96 4.9 10.22 11.71 12.56 19.01l-.54 2.74c-7.18 4.43-14.42 8.81-21.05 14.04-6.98-2.58-14.95-1.34-21.14 2.65-6.46 3.76-10.53 10.32-13.68 16.88-5.92 2.06-10.53 6.53-15.87 9.67a672.89 672.89 0 0 0-24.84 16.19c-4.56 3.15-10.01 5.26-13.53 9.73-2.65-.19-5.55-.51-7.92.94-1.6.89-2 2.82-2.76 4.33-2.23 2.81-5.68 4.12-8.52 6.16-5.35 3.41-10.32 7.51-16.15 10.1a97.37 97.37 0 0 1-2.69-24.06c5.1-2.17 9.3-5.86 14.04-8.67 9.53-5.7 18.43-12.4 27.97-18.1 12.03-8.03 24.3-15.67 36.28-23.79 9.77-5.75 18.82-12.6 28.55-18.41 6.15-3.79 11.88-8.2 18.11-11.86 3.89-2.27 7.61-4.8 11.18-7.55Z"/><path fill="#c1797a" stroke="#c1797a" stroke-width=".09" opacity=".77" d="m314.23 51.48.39-.18-.19.1-.2.08Z"/><path fill="#d2d4d2" stroke="#d2d4d2" stroke-width=".09" d="M675.14 53.3c17.65-4.23 36.89-1.19 52.54 7.94 9.32 5.61 17.59 13.72 21.7 23.94-7.47-1.66-13.94-6.03-21.2-8.31-8.49-3.81-17.16-7.22-25.57-11.2-7.09-2.4-13.67-6.03-20.7-8.56-2.46-.88-4.85-2.01-6.77-3.81Z"/><path fill="#c3c4c3" stroke="#c3c4c3" stroke-width=".09" d="M660.62 60.09c4.27-3.3 9.31-5.46 14.52-6.79 1.92 1.8 4.31 2.93 6.77 3.81 7.03 2.53 13.61 6.16 20.7 8.56 8.41 3.98 17.08 7.39 25.57 11.2 7.26 2.28 13.73 6.65 21.2 8.31l.33.08a59.84 59.84 0 0 1 3.9 15.92 218.69 218.69 0 0 1-10.58-4.14 105.4 105.4 0 0 0-3.37 1.65c.81-1.29 1.55-2.64 2.3-3.97a90.06 90.06 0 0 1-5.75-1.19c-4.33-3.82-10.18-5.14-15.32-7.52-13.87-6.3-28.06-11.84-42.04-17.88-6.08-2.66-12.41-4.79-18.23-8.04Z"/><path fill="#6f5b5c" stroke="#6f5b5c" stroke-width=".09" opacity=".44" d="m302.48 57.52.19-.11-.19.11Z"/><path fill="#e4f1d1" stroke="#e4f1d1" stroke-width=".09" d="m577.14 58.55.22.06c2.48.8 5.05-.25 7.58-.23 4.6-.1 9.22.02 13.82.32l.08.37c-2.92.16-5.83.25-8.74.27-.21 4.17-.28 8.35-.27 12.53-3.51.14-7.01.24-10.51.3-.12 3.61-.3 7.22-.53 10.82a203 203 0 0 1-10.46.21c-.09 3.63-.11 7.27-.11 10.9-.02 2.62-.08 5.24-.16 7.86-3.23.07-6.45.13-9.67.17a84.92 84.92 0 0 1 1.9-9.07c1.21-3.78 2.73-7.46 4.3-11.1 3.48-7.61 8.01-14.68 11.84-22.11l.71-1.3Z"/><path opacity=".63" d="m299.34 59.49.2-.13-.2.13Zm-2.99 1.99.19-.12-.19.12Z" fill="#9d6d6f" stroke="#9d6d6f" stroke-width=".09"/><path fill="#d9eabc" stroke="#d9eabc" stroke-width=".09" d="M590.1 59.34c2.91-.02 5.82-.11 8.74-.27 6.67-.16 13.2 1.75 19.65 3.29 10.02 2.96 20.05 6.37 29.1 11.66a145.65 145.65 0 0 0-3.54 7.07c-10.9.13-21.87-.71-32.73.38-5.77 1.51-11.55-.36-17.33-.54-2.01-.21-3.72.89-5.3 1.95-3.09.12-6.17.24-9.24.48a37.44 37.44 0 0 0-.13 9.92c-3.43 1.83-7.41.86-11.1.82 0-3.63.02-7.27.11-10.9a203 203 0 0 0 10.46-.21c.23-3.6.41-7.21.53-10.82 3.5-.06 7-.16 10.51-.3-.01-4.18.06-8.36.27-12.53Z"/><path fill="#5cbbb2" stroke="#5cbbb2" stroke-width=".09" d="M541.02 76.83c9.63-9.06 22.08-15.94 35.41-16.98-3.83 7.43-8.36 14.5-11.84 22.11-1.17-2.23-3.91-2.03-6.01-2.62-5.78-1.38-11.77-1.27-17.56-2.51Z"/><path fill="#b0b1b0" stroke="#b0b1b0" stroke-width=".09" d="m660.45 60 .17.09c5.82 3.25 12.15 5.38 18.23 8.04 13.98 6.04 28.17 11.58 42.04 17.88 5.14 2.38 10.99 3.7 15.32 7.52-1.67-.15-3.33-.24-4.98-.34a325.15 325.15 0 0 0-3.63 4.68c-1.44-4.57-7.27-3.79-10.47-6.58l-.44 2.88c-.52-1.3-1.02-2.63-1.87-3.75-3.73-1.03-7.58-1.55-11.41-2.11l-.05 1.47a68.3 68.3 0 0 0-4.8-2.5c-.61 1.39-1.23 2.78-1.81 4.18l-.01-4.22-1.98-.56 2.29-1.13c-4.66-2.56-9.82-3.95-14.69-6.05-9.72-4.04-19.21-8.62-29.01-12.49 2.03-2.66 4.6-4.81 7.1-7.01Z"/><path fill="#9cdcf6" stroke="#9cdcf6" stroke-width=".09" d="M456.47 73.34c2.36-3.66 4.79-7.28 7.53-10.67l.84 1.3c.3 3.2.36 6.43.6 9.64 3.46.19 6.91.32 10.38.39.16 3.67.35 7.35.52 11.02-3.72-.01-7.44-.08-11.16-.2a749.1 749.1 0 0 1-.38-10.59c-2.81.03-5.62-.11-8.33-.89Z"/><path fill="#7fd2f3" stroke="#7fd2f3" stroke-width=".09" d="M464.84 63.97c3.29-.14 6.59-.28 9.89-.05 3.7 3.44 8.97 3.42 13.59 4.64 3.66.72 7.88 2.72 10.97-.41 2.44.3 4.97.41 7.27 1.37 9.66 5.87 21.17 6.87 31.87 9.8a38.4 38.4 0 0 0-6.72 11.52c-1.77 4.48-2.23 9.33-2.03 14.11.05 1.74.16 3.47.26 5.2l-.73-.13-.56-2.85c-10.12-1.15-19.9-4.17-29.95-5.72-.5-1.61-1-3.23-1.4-4.86.24-4.62.35-9.64-2.11-13.74-2.79-4.71-9.63-5.48-14.02-2.69-2.37 1.36-3.6 3.91-4.79 6.24l-.04-1.38c-.17-3.67-.36-7.35-.52-11.02-3.47-.07-6.92-.2-10.38-.39-.24-3.21-.3-6.44-.6-9.64Z"/><path d="M404.07 64.8a47.54 47.54 0 0 1 3.05 11.74l.17 1.13a70.3 70.3 0 0 0-18.8 7.82 30.38 30.38 0 0 0-6.01-3.91c6.63-5.23 13.87-9.61 21.05-14.04l.54-2.74Zm-72.28 45.98c5.34-3.14 9.95-7.61 15.87-9.67-4.53 9.64-7.28 20.24-13.71 28.89a26.68 26.68 0 0 1-20.96 10.94c-6.69-.48-12.98-3.13-19.57-4.24 3.52-4.47 8.97-6.58 13.53-9.73a672.89 672.89 0 0 1 24.84-16.19Z" fill="#ff9080" stroke="#ff9080" stroke-width=".09"/><path fill="#9f9f9e" stroke="#9f9f9e" stroke-width=".09" d="m653.17 66.93.18.08c9.8 3.87 19.29 8.45 29.01 12.49 4.87 2.1 10.03 3.49 14.69 6.05l-2.29 1.13c-2.53-.29-5.14-1.25-7.66-.7-.65 2.01-.9 4.1-1.25 6.17a146.1 146.1 0 0 0-6.29-3.35l.31-4.54a1748.8 1748.8 0 0 1-21.68-3.6c-2.33-3.53-6.51-4.77-10.15-6.44 1.65-2.47 3.34-4.91 5.13-7.29Z"/><path fill="#fdfad1" stroke="#fdfad1" stroke-width=".09" d="M410.53 76.4c8.64-2.18 17.83-3.29 26.63-1.41-3.64.28-7.28.35-10.93.22-.04 16.32-.54 32.65-.32 48.97a64.38 64.38 0 0 1-7.98 4.48c-3.17-2.82-4.43-8.09-9.05-8.93.64-8.04 1.28-16.13.5-24.19a132.36 132.36 0 0 0-2.09-17.87l-.17-1.13c1.07.7 2.28.08 3.41-.14Z"/><path d="m647.59 74.02.45.2c3.64 1.67 7.82 2.91 10.15 6.44a267.6 267.6 0 0 0-3.82-.51 862.62 862.62 0 0 1-3.46 20.85c-3.95-1.32-8.15-.99-12.23-1.14l.31-.85c1.44-.86 1.97-3.18.24-4.06l.76-2.67a69.58 69.58 0 0 1 4.06-11.19c1.1-2.4 2.31-4.73 3.54-7.07Zm77.23 244.1 3.35-.05c5.31 0 10.65-.28 15.95.12 1.91.11 1.69 2.44 1.79 3.79-.01 4.7.1 9.41-.11 14.11.2 1.51-1.08 2.96-2.64 2.78-4.98.21-9.96-.08-14.94.08l-2.81.13c-1.71-2.76-1.34-6.05-1.34-9.14.07-3.95-.36-7.98.75-11.82m2.13.56a10.08 10.08 0 0 0-1.25 5.28c.11 4.29-.2 8.6.2 12.88l1.32.94c5.14.21 10.33.27 15.48-.03l1.36-1.02c.54-4.52.09-9.12.25-13.68.31-2.03-1.01-4.52-3.32-4.33-4.68-.22-9.37.01-14.04-.04Z" fill="#717a5f" stroke="#717a5f" stroke-width=".09"/><path fill="#fcf7ad" stroke="#fcf7ad" stroke-width=".09" d="M426.23 75.21c3.65.13 7.29.06 10.93-.22 5.33.4 10.47 2.47 15.15 4.98-3.01 6.3-6.35 12.44-8.89 18.95-2.17 5.46-4.33 10.98-5.31 16.8-4.24 2.57-8.14 5.64-12.2 8.46-.22-16.32.28-32.65.32-48.97Z"/><path fill="#62bcab" stroke="#62bcab" stroke-width=".09" d="M538.43 79.32c.83-.86 1.7-1.68 2.59-2.49 5.79 1.24 11.78 1.13 17.56 2.51 2.1.59 4.84.39 6.01 2.62a122.35 122.35 0 0 0-4.3 11.1l-.72-1.82c-9.28-.53-18.58.1-27.86-.4a38.4 38.4 0 0 1 6.72-11.52Z"/><path fill="#fb9853" stroke="#fb9853" stroke-width=".09" d="M388.49 85.49a70.3 70.3 0 0 1 18.8-7.82 132.36 132.36 0 0 1 2.09 17.87 4.37 4.37 0 0 0-2.18 2.45c-3.45 2.94-7.42 5.18-11.45 7.2.38-7.2-1.98-14.65-7.26-19.7Z"/><g fill="#010101" stroke="#010101" stroke-width=".09"><path d="M481.17 80.16c4.39-2.79 11.23-2.02 14.02 2.69 2.46 4.1 2.35 9.12 2.11 13.74-.99 4.66-4.57 10.77-10.21 9.17-3.22-2.35-6.47-4.8-8.91-7.99-2.45-3.26-1.98-7.55-1.8-11.37 1.19-2.33 2.42-4.88 4.79-6.24Z"/><path d="M361.34 84.23c6.19-3.99 14.16-5.23 21.14-2.65a30.38 30.38 0 0 1 6.01 3.91c5.28 5.05 7.64 12.5 7.26 19.7-.65 4.04-1 8.63-3.61 11.91-4.55 2.66-9.1 6.04-10.47 11.44-1.79 3.93 2.6 7.76.47 11.64-1.85 3.36-4.64 6.21-5.74 9.97-.87 2.88-1.71 6.08-.56 9.01 1.25 3.07 5.19 3.93 8.09 2.92 3.15-.95 5.16-3.84 6.51-6.67 2.43-5.25 3.54-10.96 5.07-16.51 2.08-7.52 4.8-16.91 13.37-19.17 4.62.84 5.88 6.11 9.05 8.93a64.38 64.38 0 0 0 7.98-4.48c4.06-2.82 7.96-5.89 12.2-8.46 5.12-2.74 11.38-3.6 16.83-1.28 6.87 2.59 9.12 10.8 15.52 14.02 1.63.93 3.38-.33 4.45-1.54 1.82-2.17 2.99-4.79 4.45-7.2 1.38-2.49 3.92-4.36 6.87-3.17.67.73 1.33 1.47 1.97 2.25 2.72 4.02 3.92 10.69 9.92 10.82 4.89-.94 8.35-4.73 11.5-8.28 4.89-5.91 11.34-11.82 19.59-11.32l.73.13c5.32.99 10.47 2.7 15.55 4.5 4.08 1.25 5.55 5.67 8.66 8.17 2.26 1.77 5.37 1.31 7.97.69 3.63-2.1 4.84-6.4 6.46-9.97 1.1-1.56 2.14-3.93 4.4-3.86 2.55-.05 2.87 3.04 3.52 4.87.45 4.64.35 9.5 2.55 13.76 10.42-2.48 14.23-13.58 20.61-20.89 2.91-3.38 6.83-6.17 11.4-6.55 8.31-1.18 17.07 4.8 18.64 13.11.69 7.8-3.21 14.99-7.53 21.18-3.46 5.16-7.79 9.89-9.82 15.87.22 2.54.73 5.22 2.53 7.16 2.45 2.92 7.7 2.61 9.77-.61 1.28-2 1.45-4.44 1.89-6.72.54-2.95.73-6.49 3.43-8.38 5.19.11 7.73 5.98 8.16 10.48a25.97 25.97 0 0 1-5.83 14.8c-5.71 7-15.53 12.04-24.47 8.34-4.85-1.95-7.37-6.81-9.57-11.23-3.71-7.21-1.94-15.61 1.01-22.74 1.14-3.58 2.46-7.34 1.86-11.14-1.14-4.12-6.92-4.98-10.21-3.08-4.51 3.2-5.88 8.98-7.35 14.01-2.36 9.33-3.37 18.92-5.25 28.35-.73 3.61-2.01 7.16-4.28 10.1a18.79 18.79 0 0 1-3.12 3.18c-3.66 2.7-8.35 4.26-12.9 3.56-4.03-.92-5.53-5.34-5.9-8.99.03-5.46 2.56-10.45 5.48-14.92 2.73-4.26 5.78-8.32 8.31-12.71 2.15-4.04 3.88-8.99 1.88-13.43-.99-2.51-3.52-3.82-5.89-4.71-2 .41-5.24.08-5.7 2.69-1.99 6.71-3.44 13.57-5.37 20.3-2.01 7.11-4.72 14.15-9.18 20.1-6.03 7.71-17.34 11.3-26.49 7.35-9.9-4.42-14.51-15.36-16.48-25.38a58.6 58.6 0 0 1 1.52-24.61c-2.97 1.71-5.77 3.89-7.36 7-4.22 7.7-4.31 16.73-6.41 25.09-1.16 4.91-3.29 9.77-7.16 13.15-2.24 1.32-4.55 2.82-7.21 3.01-4.05-2.76-4.51-8.33-5.11-12.78-.83-9.31 3.9-17.98 3.52-27.21-.41-1.44-.36-4.56-2.41-4.39-4.61 1.89-5.93 9.62-12.03 7.73-5.53-2.42-6.25-9.42-9.68-13.83a9.87 9.87 0 0 0-11.34-4.35 12.2 12.2 0 0 0-7.55 9.74c.11 3.57 2.63 6.45 5.43 8.39 4.45 2.67 9.47 4.21 13.95 6.83 5.17 3.08 8.37 8.71 9.32 14.57a30.4 30.4 0 0 1-3.35 16.71c-2.85 5.41-6.93 10.46-12.75 12.81-7.43 3.43-15.83 5.08-23.97 3.92-4.52-.64-8.89-2.67-11.93-6.12-3.39-3.95-3.58-9.25-3.94-14.16-1.48-2.26-4.22-3.26-6.28-4.91-.73-2.72-.02-5.45.49-8.13-4.69 3.48-7.3 9.16-12.38 12.23-6.08 4.28-14.92 2.12-19.38-3.51-4.88-5.64-6.16-13.6-4.58-20.76a42.79 42.79 0 0 1 7.85-15.78c3.01-4.51 9.23-5.98 11.36-11.09 1.77-4.42-2.76-7.58-4.65-11.04-1.25-5.09-.14-10.44-1.45-15.54a24.97 24.97 0 0 0-3.36-4.48c-10.39 5.18-12.95 17.32-17.99 26.73a90.72 90.72 0 0 0-2.02 3.62c5.4-.05 9.96-3.76 15.38-3.6 1.23 3.48-.85 6.93-3.25 9.31-5.02 5.01-11.76 7.62-17.79 11.15a265.9 265.9 0 0 0-1.39 3.97c-2.33 7.09-4.31 14.28-6.3 21.47-2.78 10.72-6.95 20.99-10.39 31.48v.58c14.94.06 29.89-.03 44.83.07 2.18-.21 3.96 1.08 5.37 2.59 2.38 2.43 4.75 4.87 7.19 7.25a27.43 27.43 0 0 1 3.96 4.58c.93 3.6 3.51 7.28 1.34 10.97.82 2.06.7 4.18-.11 6.22.74 2.09.7 4.27-.06 6.36a9.3 9.3 0 0 1 .03 6.31c.67 2.02.67 4.1.01 6.13.34 2.08.59 4.17.78 6.27 1.78-.44 2.58-2.02 3.33-3.54-1.49-3.39 1.73-6.43.45-9.84l1.51-3c-.71-2.19-.19-4.33.92-6.28-.1-1.36-.49-2.78.12-4.08 2.18-4.9 2.26-10.35 3.28-15.55.6-3.57 1.11-7.16 1.68-10.74.24-2.03 1.36-3.5 3.56-3.62 13.58-.21 27.16-.02 40.74-.04 1.19.48 2.82.78 2.94 2.37.96 3.6 1.3 7.32 2.01 10.97.9 4.94 1.34 9.99 2.73 14.83a5.23 5.23 0 0 1 .72 5.81c1.32 1.92 2.23 4.04 1.06 6.3 1.44 1.89 2.03 4.02.98 6.27 1.59 1.85 2.18 4.18 1 6.43 1.34 1.92 2.2 4.05 1.05 6.31a6.75 6.75 0 0 1 1.24 6.25c1.11 2.01 1.79 4.18.71 6.38 2.23 1.91 1.47 4.7 1.29 7.25 1.03 7.44 2.45 14.83 3.48 22.28.37 2.05-.95 4.32-3.26 4.07-8.67.31-17.35-.01-26.03.16-2.13.09-5.05-.06-5.52-2.68-1.14-5.05-1.07-10.28-1.67-15.41-2.13.04-4.25.05-6.37.04-.57 5.1-.95 10.24-1.93 15.28-.39 2.66-3.32 2.81-5.44 2.77-8.31-.08-16.62.01-24.93-.05-2.22.37-3.27-1.68-4.23-3.23 1.23-7.04 2.27-14.12 3.45-21.18.7-3.16-.87-6.66 1.41-9.41.63-1.74-1.72-1.31-2.78-1.69l2.21-1.4c.5-.98 1.01-1.96 1.54-2.93l-.19-2.79-4.2.47c.31.92.59 1.86.85 2.81-.45 2.21-2.91 2.72-4.62 3.56l.65 1.44 2.89-.8c-.85.56-1.73 1.09-2.62 1.59-.51 1.34-.56 3.3-2.43 3.36-5.91 1.05-11.97.96-17.94 1.28-3.48.14-6.95.43-10.42.13l.24 1.58c.29 7.29.04 14.59.1 21.89.31 2.42-1.13 5.62-4.01 5.3-8.64.09-17.29.11-25.93-.04-2.42.34-3.78-2.03-3.72-4.13-.07-6.51.03-13.03-.01-19.55v-45.48c.09-6.67-.25-13.35.26-20.01a116.58 116.58 0 0 1-3.88 8.14c-2.49 4.5-5.73 8.65-9.95 11.65-2.98 1.78-6.23 3.3-9.73 3.63-3.06.29-5.93-.98-8.78-1.88.35 1.1.66 2.22.92 3.35-.35 1.9-2.4 2.42-3.8 3.32.11 1.1.42 2.21.25 3.32-.73 1.7-2.97 2.43-3.26 4.31 2.43 1.59 4.23 4.07 2.95 7.03l2.95 1.1c.32 1.6.33 3.23.11 4.85 2.86 1.03 4.27 3.98 2.28 6.58a4.1 4.1 0 0 1 2.84 7.13l.66 1.28c3.26 6.73 6.39 13.54 9.67 20.27 1.47 2.49-1.44 5.01-3.84 4.9-9 .08-18.01.23-27.01.26-2.2.24-4.52-.88-5.24-3.06a792.83 792.83 0 0 1-8.26-19.45c-2.75 5.06-4.64 10.53-6.9 15.81-1 2.13-1.56 4.72-3.5 6.24-1.6.62-3.35.44-5.02.51-16.69-.03-33.38-.06-50.06-.05-1.83-.11-4.65.02-5.02-2.34-1.02-4.66-1.14-9.47-1.74-14.19-2.26.12-4.52.25-6.77.43-.49 4.25-.86 8.53-1.59 12.75a3.7 3.7 0 0 1-3.85 3.19c-7.99.13-15.98-.05-23.97.05-2.06.1-4.1-.24-6.03-.93a15.72 15.72 0 0 1-5.95 1c-8.35-.13-16.71.13-25.06-.1-2.38.28-3.61-2.09-3.55-4.13-.05-6.59-.06-13.17.06-19.76l-4.15 1.01c-3.81 6.96-7.14 14.18-10.96 21.13-1.52 2.81-6.01 2.35-7.25-.47-3.54-6.86-6.79-13.87-10.33-20.72l-4.51-1.17c.17 5.66.03 11.32.12 16.99-.05 2.13.21 4.49-1.06 6.37-1.93 1.11-4.29.75-6.43.86-7.63-.14-15.28.15-22.91-.13-2.42.27-3.56-2.13-3.45-4.19-.03-31.32.03-62.65-.04-93.97.06-2.15-.24-4.53 1.04-6.41 1.6-1.06 3.65-.83 5.48-.94 8.65.05 17.3-.06 25.94.05 2.19-.08 3.89 1.65 4.69 3.54 2.81 5.79 5.5 11.64 8.46 17.36 1.44.57 3.05.9 4.28 1.9 1.45 1.45.32 3.42.01 5.09 2.23 1.15 4.59 1.23 6.62-.38-.39-1.66-1.25-3.56.26-4.95 1.28-.79 2.73-1.23 4.12-1.75 3.1-6.31 5.91-12.76 9.27-18.93.94-1.96 3.4-1.87 5.24-1.9 8.98.16 17.97-.13 26.94.14 2.49-.28 3.67 2.15 3.54 4.29.1 31.27-.14 62.58.09 93.82.14-6.48 1.54-12.83 2.63-19.19.2-1.56-1.27-3.1-.35-4.58 1.78-2.85-.38-6.5 2.35-8.95-1.28-2.13-.56-4.36.69-6.28-.78-2.16.01-4.18.83-6.16-.07-2.2-.51-4.66 1.49-6.19a6.51 6.51 0 0 1 .81-6.56c-.84-2.13-.09-4.12.7-6.1-.41-3.05 1.14-5.71 1.91-8.54 1.28-7.47 2.32-14.99 3.77-22.42.31-1.76 1.86-3.2 3.71-3.01 12.33-.16 24.67-.08 37-.16 2.14.13 5.22-.4 6.08 2.2 2.54 9.55 2.16 19.92 6.12 29.09l-.74 2.45c1.49 1.93 2.31 4.21 1.04 6.51 1.54 1.85 2.23 4.04 1.08 6.33.58 1.15 1.92 2.18 1.54 3.62-1.39 3.15 2.48 5.69.61 8.81 1.38 1.96 2.11 4.2.9 6.47 1.42 1.78 2.25 3.96.97 6.12a20.88 20.88 0 0 1 1.97 4.55l-1.27 1.98c.84 2.68 1.35 5.44 2.01 8.17 1.13-2.55 2.32-5.07 3.53-7.59-2.84-2.44-1.07-7.07 2.68-6.91-2.13-2.44-.62-5.62 2.21-6.5-.84-2.82.37-5.31 3.13-6.27a4.46 4.46 0 0 1 2.9-6.25l-.09-2.1-2.15-1.05-1.19-2.45.64-2.68c-2.95-.63-4.63-3.37-3.22-6.17-1.15-.74-2.69-1.09-3.49-2.25-1.13-1.92.75-3.61 1.54-5.22-4.09-8.67-8.6-17.15-12.78-25.78-1.22-2.17.1-5.64 2.99-5.14 9.31-.19 18.63-.01 27.94-.09 1.9-.17 4.04.57 4.91 2.38 1.4 2.76 2.53 5.65 3.78 8.47 1.47 3.58 3.03 7.13 4.61 10.67 1.3-3.25 2.65-6.49 3.9-9.76 1.18-2.82 2.3-5.66 3.46-8.49.8-1.69 2.22-3.4 4.3-3.23 6.42-.13 12.85.03 19.27-.02 4.09-.13 8.22.32 12.31-.13 12.03-10.6 14.89-27.32 23.81-40.1 2.43-3.03 2.55-6.95 2.46-10.65-3.15 1.08-6.22 2.37-9.34 3.51-6.27 2.01-12.74 3.54-19.33 3.78-4.23-.18-8.99-.86-11.94-4.23-2.65-2.94-2.62-7.14-2.47-10.86.76-1.51 1.16-3.44 2.76-4.33 2.37-1.45 5.27-1.13 7.92-.94 6.59 1.11 12.88 3.76 19.57 4.24A26.68 26.68 0 0 0 333.95 130c6.43-8.65 9.18-19.25 13.71-28.89 3.15-6.56 7.22-13.12 13.68-16.88m166.79 36.88c-8.3 7.17-12.35 18.07-12.94 28.84-.12 7.2.18 15.63 5.96 20.8 2.89 2.87 7.45 2.15 10.79.54 5.88-3.16 9.16-9.42 11.37-15.45a48.85 48.85 0 0 0 2.08-9.32c1.17-7.8.99-16.56-3.66-23.26-2.19-3.24-6.27-4.36-10-4.01-1.23.58-2.53 1.03-3.6 1.86m-114.24 19.02c-2.68 9.28-6.92 18.12-8.33 27.74-.46 3.12-.61 6.6 1.14 9.38 1.92 2.68 5.13 3.76 8.16 4.62 6.99 1.25 14.82.72 20.67-3.68 5.5-4.9 8.97-12.95 6.37-20.18-1.3-3.92-4.99-6.44-8.89-7.31-2.36.9-4.72 1.78-7.01 2.82-2.65.46-5.08-.91-5.59-3.6a50.32 50.32 0 0 0-3.46-13.27c-1.49.68-2.8 1.78-3.06 3.48M39.75 203.87c.01 33.07.05 66.14-.01 99.22h27.47c.12-11.86-.35-23.74.36-35.58 2.56.66 5.12 1.27 7.67 1.98-1.49 2.01-4.41 1.86-6.48 2.97 2.47 1.99 5.95 1.69 8.82 2.81l.47 1.59c-2.03.82-4.14 1.43-6.12 2.36 1.7.54 3.41 1.03 5.13 1.54 3.76 7.28 7.11 14.79 10.98 22.01l1.7.1c3.98-7.21 7.34-14.77 11.54-21.86 1.45-1 3.3-1.09 4.93-1.67-1.84-1.38-4.2-1.73-6.32-2.48l.6-1.36c2.94-1.28 6.4-1.15 9.12-2.96-2.16-.87-4.84-.82-6.61-2.45 1.42-2.33 5.16-1.69 7.51-2.78.25 11.92.04 23.85.09 35.78l28.67-.01c-.04-33.06-.05-66.13 0-99.19-10.02.09-20.05-.22-30.06.15-3.08 6.83-6.6 13.44-9.75 20.23-1.52.44-3.05.87-4.56 1.32 2.11 1.18 4.74 1.54 6.35 3.48-3.04 1.23-6.27 1.85-9.35 2.95 2.03.98 4.2 1.67 6.08 2.95-2.3 1.82-5.29 2.18-8.06 2.77-2.73-.29-5.34-1.27-8.02-1.81-.18-2.97 3.68-2.47 5.53-3.61-2.74-1.77-6.16-1.91-9.15-3.1 1.32-2.21 4.14-2.3 6.13-3.63-1.49-.79-3.87-.41-4.73-2.13-2.85-5.56-5.52-11.22-8.25-16.84-.59-1.01-.88-2.52-2.27-2.71-9.8-.16-19.61-.05-29.41-.04m120.57.23c-1.15 7.95-2.61 15.85-3.83 23.79a7.28 7.28 0 0 1-1.95 4.36l2.13 2.83c-1.09 1.06-2.21 2.1-3.32 3.14.73.94 1.44 1.91 2.13 2.89-.4 1.59-2.11 2.36-3.13 3.55a42.33 42.33 0 0 1 2.36 3.31l-3.51 2.93 2.53 3.14-3.52 3.15 2.52 3a218 218 0 0 1-3.53 3.23 297 297 0 0 0 2.4 2.78c-.81 1.47-2.1 2.55-3.35 3.63.8 1.05 1.6 2.11 2.39 3.18l-3.43 3.14 2.29 2.81c-.69 1.24-1.66 2.42-1.83 3.88-1.04 6.73-2.07 13.47-3.07 20.2 9.41-.02 18.82.07 28.24-.03.5-5.35 1.27-10.67 2.03-15.99 4.06.04 8.13-.43 12.18-.01.58 5.35 1.13 10.71 1.77 16.05 18.66.06 37.32.24 55.98-.05 2.92-7.06 5.8-14.14 8.87-21.14.8-2.4 4.73-2.2 5.32.24 3.01 6.71 5.69 13.57 8.73 20.26l1.09.68c9.78.15 19.58-.04 29.37-.11-3.28-7.29-6.9-14.42-10.27-21.67a18.06 18.06 0 0 1-5.13-2.24 42.3 42.3 0 0 1 6.51-2.56c-2.91-1.72-6.38-2-9.45-3.36 1.74-1.82 4.42-1.96 6.37-3.44-2.88-.84-5.78-1.57-8.66-2.37v-1.54a29.92 29.92 0 0 0 5.74-2.37c-3.15-1.1-6.83-1.18-9.45-3.44a66.45 66.45 0 0 1 6.44-2.42c-1.46-1.03-3.23-1.41-4.94-1.78l1.24-2.06-2.12-1.55 2.56-.71-2.19-2.28c1.84-.43 3.69-.85 5.49-1.41-1.99-1.52-5.61-.97-6.48-3.67 3.15-.86 6.33-1.61 9.5-2.43-1.91-1.55-4.43-1.86-6.63-2.79 2.18-2.84 6.52-2.07 9.57-3.42-.82-.89-1.92-1.46-2.77-2.31 4.87-9.78 9.96-19.44 14.74-29.27-10.22-.12-20.45.16-30.66-.14-4.29 7.89-6.92 16.62-10.57 24.84-1.66-.08-2.02-1.75-2.62-2.92-2.81-6.59-5.69-13.16-8.48-19.76-.32-1.24-1.41-2.45-2.83-2.04-9.37.11-18.76-.2-28.12.16.2 1.06.54 2.08 1.04 3.05 3.82 7.57 7.58 15.17 11.42 22.74.59 1.31 1.62 2.61 1.31 4.15-1.1.29-2.12.76-3.05 1.4 3.23.96 6.53 1.61 9.75 2.63-1.21 2.56-4.58 2.12-6.69 3.59 3.15.93 6.34 1.69 9.52 2.53-.43 2.88-4.33 2.21-6.2 3.54 1.7.77 3.53 1.17 5.37 1.54l-1.9 2.51 2.04.38c-1.28 1.04-1.6 2.28-.95 3.73-1.36.41-2.72.84-4.06 1.32 1.54 1.83 4.72 1.38 5.63 3.79-3 .92-6.04 1.71-9.04 2.63 1.97 1.06 4.09 1.82 6.15 2.71-2.2 2.67-6.25 2.22-9.21 3.56 1.78 1.49 4.57 1.3 6 3.16-2.5 2.13-6.35 1.58-9 3.63 2.19.69 4.44 1.32 6.37 2.62-1.6.95-3.33 1.65-5.12 2.17-1.88 4.1-3.86 8.16-5.81 12.23a5.78 5.78 0 0 1-1.98 2.35c-1.7-5.57-.69-12.14-4.3-16.99l2.27-2.81c-1.09-1.02-2.2-2.01-3.2-3.12a11.17 11.17 0 0 1 2.1-3.19c-.92-1.27-3.24-2.03-2.95-3.83l2.06-2.35c-1.08-1.23-2.54-2.18-3.28-3.66.72-.98 1.51-1.89 2.29-2.81-1.11-1.03-2.42-1.88-3.28-3.14.38-1.23 1.42-2.1 2.13-3.13-1.04-.97-2.11-1.93-3.09-2.96a13.1 13.1 0 0 1 1.75-3.17c-.62-1.34-1.92-2.14-2.84-3.23.64-1.34 1.69-2.52 1.68-4.07-.91-.8-3.68-1.94-2.02-3.45l1.21-1.9c-.61-.95-1.51-1.78-1.58-2.97-1.33-8.34-2.95-16.64-3.99-25.03-13.72-.4-27.47-.19-41.2-.04m160.03-.13c.18 33 .18 66 0 99 9.15.37 18.32.1 27.49.17.15-8.05.23-16.11.04-24.16.13-1.33-.64-3.67 1.26-4.03 9.88-1.49 20.13.12 29.89-2.29-9.94-1.04-19.96-.8-29.88-1.78l.25-2.14c10.96-1 22.1.32 32.94-2.06-3.84-1.57-8.12-1.46-12.07-2.69a3.32 3.32 0 0 1 2.59-1.37c5.09-.71 10.2-1.26 15.28-2.02-3.34-1.9-7.36-1.75-10.97-2.86 1.74-1.8 4.47-1.15 6.66-1.9.97-1.58-.55-3.29-.85-4.86.47-.98.93-1.96 1.41-2.93l-1.41-3.03a6 6 0 0 0 .26-6.14c.67-2.34 1.26-4.59-.22-6.77.5-1.04 1.02-2.06 1.54-3.08l-1.59-3.01a419.2 419.2 0 0 1 1.94-3.64 13.48 13.48 0 0 1-2.24-6.13c-4.24-4.07-8.08-8.64-12.62-12.34-16.56-.08-33.14-.21-49.7.06m81.66-.17c-1.39 8.38-2.65 16.78-4.08 25.16-.04 1.26-1.09 2.08-1.65 3.12.56 1.02 1.25 1.96 1.83 2.99-.72 1.38-2.06 2.27-3.12 3.37.65 1.07 2.52 1.94 1.94 3.44-.91.94-1.95 1.72-2.95 2.55.73 1.13 1.93 2.07 2.09 3.49-.72 1.25-2.14 1.86-3.01 2.99.65 1.03 1.46 1.97 2.02 3.06-.39 1.51-2.11 2.13-3.14 3.16.9 1.16 1.83 2.32 2.31 3.72l-3.36 2.5c.69 1.2 2.28 2.15 2.07 3.69-.83 1.05-2.35 1.64-2.76 2.95.61 1.01 1.47 1.88 1.89 3.01-.88 1.05-1.96 1.89-2.89 2.89.32 1.24.88 2.49.59 3.81-1.29 7.81-2.45 15.64-3.77 23.44 9.53-.1 19.07.16 28.61-.12.67-5.93 1.1-11.94 2.28-17.79 3.86-.21 7.74-.11 11.61.04.55 5.95 1.25 11.9 1.68 17.87 9.69-.02 19.39.01 29.08-.02-1.09-6.7-2.15-13.4-3.21-20.1-.27-2.37-1.33-4.89.02-7.13-.97-.95-1.98-1.87-2.9-2.86a12.28 12.28 0 0 1 1.94-3.13c-.82-1.27-2.1-2.11-3.2-3.09.65-1.2 2.01-2.16 1.98-3.63-.95-.93-2.01-1.74-3.03-2.57.62-.92 1.29-1.8 1.87-2.74.67-1.99-2.29-2.26-2.62-3.91.61-1.04 1.34-1.98 1.98-3-.76-1.17-2.02-1.88-2.97-2.88-.1-1.56 2.1-2.32 1.72-3.9-.89-.98-1.97-1.75-2.96-2.59.7-1.16 1.75-2.17 2.08-3.53-.78-1.16-2.44-1.68-2.79-3.08.56-.98 1.23-1.89 1.79-2.87-.54-.98-1.44-1.75-1.64-2.88-1.44-8.43-2.8-16.88-4.22-25.32-13.71-.14-27.41-.05-41.11-.11M89.34 234.26c.5.53.5.53 0 0m-19 42.02c.48.53.48.53 0 0Zm495.1-40.86c.05-1.51 2.37-1.67 3.34-2.57.01 1.38 0 2.75-.01 4.13-1.13-.49-2.27-.97-3.33-1.56Z"/><path d="M488.64 241.83c.67-1.07 1.77-2.58 3.17-1.39 2.3 1.54-2.11 3.08-3.17 1.39Zm79.53-1.57c1.3.64 1.31 1.34.05 2.08-1.26-.67-1.28-1.37-.05-2.08Zm-480.98 7.22c1.51-.8 3.14-1.02 4.69-.18-1.25 1.64-3.25 1.45-4.69.18Zm-19.43 14.7c1.46.33 2.89.73 4.31 1.2-1.11 1.13-2.64 1.46-4.13 1.78l-.18-2.98Zm38.43 1.34a60.58 60.58 0 0 1 4.31-1.45l-.2 3.35a29.43 29.43 0 0 1-4.11-1.9Zm456.19 4.93c1.35.14 3.87 1.57 1.59 2.45-1.99 1.6-1.48-1.49-1.59-2.45Zm-309.76 8.41c1.14-2.68 5.86-2.71 7.06-.31-2.15 1.49-4.76 1.21-7.06.31ZM684 322.01a9.64 9.64 0 0 1 2.92-.57c-1.07 1.38-2.85 2.66-2.34 4.66 1.07 2.37 3.45 3.77 4.96 5.84l-1.04 2.04c-1.27-1.64-2.68-3.08-4.68-1.55 1.16 1.26 2.17 3.2 4.15 3.2 1.57-.03 3.66-.81 3.82-2.63.61-2.52-1.61-4.22-3.15-5.79 1.24.46 3.81 1.22 3.4-1.04a3.21 3.21 0 0 0-.5-2.75l-.92-1.24 2.92-.41c-.1 4.49-.08 9-.04 13.5l2.63-.02c.05-1.95.12-3.89.3-5.83a18.8 18.8 0 0 1 1.9 4.97c-.71 1.4-1.99 1.89-3.52 1.65l-3.58-.08c-2.06-.04-4.13.17-6.17-.11-1.77-.95-1.91-3.02-2.12-4.77l3.59-.09c-2.56-2.3-4.15-5.66-2.53-8.98Zm14.46 4.88c.83-1.55 1.65-3.11 2.49-4.66l2.3 1.95c.18 3.55-.05 7.11.2 10.66l2.77.67c.01-2.83 0-5.66-.05-8.49.62.64 1.26 1.29 1.91 1.93 0 2.11.01 4.21.03 6.32l2.89.01-.02-3.44 1.65 1.67-.9 2.49c-3.75-.03-7.5.08-11.25-.08.86-3.14-1.26-6.07-2.02-9.03m2.74 5.25.8-.1c.01-2.89.05-5.78-.1-8.66-2.71 2.43-1.54 5.79-.7 8.76Zm9.84-8.6c2.89.23 2.83 3.14 1.26 4.81l-1.26-1.27v-3.54Z"/></g><path fill="#8ad0a7" stroke="#8ad0a7" stroke-width=".09" d="m452.31 79.97.15.11c11.45 6.94 19.54 18.32 23.83 30.87l-1.27.99c-5.23-5.37-13.42-4.66-19.49-8.46-3.9-1.88-8.26-2.55-12.11-4.56 2.54-6.51 5.88-12.65 8.89-18.95Z"/><path d="m654.37 80.15 3.82.51a1748.8 1748.8 0 0 0 21.68 3.6l-.31 4.54-.37 3.71c-5.33-.44-10.46-2.16-15.81-2.33l-.52 1.41c-.38 2.94-.6 5.89-.89 8.84 4.57.91 9.17 1.68 13.79 2.32-.53 2.61-1.01 5.23-1.47 7.85-4.53-.35-8.94-1.57-13.46-1.88l-1.09.72c-1.23 5.43-1.71 11.01-2.84 16.47-3.21-.35-6.4-.91-9.55-1.57.84-5.9 2.34-11.71 2.61-17.68.33-1.89.63-3.77.95-5.66 1.23-6.94 2.4-13.88 3.46-20.85Zm32.73 5.83c2.52-.55 5.13.41 7.66.7l1.98.56.01 4.22a47.7 47.7 0 0 0-.81 3.54c-.83 4.91-1.74 9.81-2.46 14.73-1.19 7.31-3.04 14.54-3.35 21.97-1.78-.16-3.56-.29-5.33-.43-1.8-.38-3.59-.77-5.37-1.13l.56-3.21c.32-1.88.65-3.76.94-5.65l.44-3.04c1.01-4.75 1.74-9.55 2.51-14.35l.47-2.82c.49-2.98 1.02-5.94 1.5-8.92.35-2.07.6-4.16 1.25-6.17Zm16.31 2.33c3.83.56 7.68 1.08 11.41 2.11.85 1.12 1.35 2.45 1.87 3.75.94 4.67 2.4 9.22 3.6 13.83 2.33-3.46 4.76-6.83 7.31-10.13 1.19-1.57 2.41-3.13 3.63-4.68 1.65.1 3.31.19 4.98.34 1.89.47 3.81.84 5.75 1.19-.75 1.33-1.49 2.68-2.3 3.97a53.8 53.8 0 0 0-6.09 7.14l-.87.95c-1.67 1.84-3.38 3.65-5.05 5.48-1.7 1.48-1.47 3.68-.68 5.56 1.08 2.73 2.24 5.43 3.34 8.15 1.77 4.43 3.75 8.79 5.17 13.35l-3.63-.25c-2.95-.57-5.88-1.14-8.79-1.85-.34-1.39-.68-2.79-1.06-4.17-1.31-4.35-2.95-8.6-3.95-13.04-2.69 2.84-4.86 6.1-7.27 9.17a105 105 0 0 0-3.84 5.3c-1.35-.09-2.69-.2-4.02-.33a79.71 79.71 0 0 1-8.83-1.76c1.71-1.84 3.46-3.64 5.17-5.49 3.7-3.77 7.09-7.82 10.66-11.71 3.92-3.06-.12-7.74-1.1-11.33a235.35 235.35 0 0 0-5.46-14.08l.05-1.47ZM39.75 203.87c9.8-.01 19.61-.12 29.41.04 1.39.19 1.68 1.7 2.27 2.71 2.73 5.62 5.4 11.28 8.25 16.84.86 1.72 3.24 1.34 4.73 2.13-1.99 1.33-4.81 1.42-6.13 3.63 2.99 1.19 6.41 1.33 9.15 3.1-1.85 1.14-5.71.64-5.53 3.61 2.68.54 5.29 1.52 8.02 1.81 2.77-.59 5.76-.95 8.06-2.77-1.88-1.28-4.05-1.97-6.08-2.95 3.08-1.1 6.31-1.72 9.35-2.95-1.61-1.94-4.24-2.3-6.35-3.48 1.51-.45 3.04-.88 4.56-1.32 3.15-6.79 6.67-13.4 9.75-20.23 10.01-.37 20.04-.06 30.06-.15-.05 33.06-.04 66.13 0 99.19l-28.67.01c-.05-11.93.16-23.86-.09-35.78-2.35 1.09-6.09.45-7.51 2.78 1.77 1.63 4.45 1.58 6.61 2.45-2.72 1.81-6.18 1.68-9.12 2.96l-.6 1.36c2.12.75 4.48 1.1 6.32 2.48-1.63.58-3.48.67-4.93 1.67-4.2 7.09-7.56 14.65-11.54 21.86l-1.7-.1c-3.87-7.22-7.22-14.73-10.98-22.01-1.72-.51-3.43-1-5.13-1.54 1.98-.93 4.09-1.54 6.12-2.36l-.47-1.59c-2.87-1.12-6.35-.82-8.82-2.81 2.07-1.11 4.99-.96 6.48-2.97-2.55-.71-5.11-1.32-7.67-1.98-.71 11.84-.24 23.72-.36 35.58H39.74c.06-33.08.02-66.15.01-99.22m44.53 37.75c3.41 1.63 7.83 2.39 10.73-.64-3.37-1.81-7.81-2.3-10.73.64m2.91 5.86c1.44 1.27 3.44 1.46 4.69-.18-1.55-.84-3.18-.62-4.69.18m-19.69 9.48c.14 3.32 2.99-1.49 0 0m41.87.08c.26 3.28 2.99-1.62 0 0m-41.61 5.14.18 2.98c1.49-.32 3.02-.65 4.13-1.78a45.85 45.85 0 0 0-4.31-1.2m38.43 1.34c1.31.76 2.7 1.35 4.11 1.9l.2-3.35c-1.45.43-2.89.91-4.31 1.45Zm54.13-59.42c13.73-.15 27.48-.36 41.2.04 1.04 8.39 2.66 16.69 3.99 25.03.07 1.19.97 2.02 1.58 2.97l-1.21 1.9c-1.66 1.51 1.11 2.65 2.02 3.45.01 1.55-1.04 2.73-1.68 4.07.92 1.09 2.22 1.89 2.84 3.23a13.1 13.1 0 0 0-1.75 3.17c.98 1.03 2.05 1.99 3.09 2.96-.71 1.03-1.75 1.9-2.13 3.13.86 1.26 2.17 2.11 3.28 3.14-.78.92-1.57 1.83-2.29 2.81.74 1.48 2.2 2.43 3.28 3.66l-2.06 2.35c-.29 1.8 2.03 2.56 2.95 3.83-.89.95-1.59 2.02-2.1 3.19 1 1.11 2.11 2.1 3.2 3.12l-2.27 2.81c3.61 4.85 2.6 11.42 4.3 16.99a5.78 5.78 0 0 0 1.98-2.35c1.95-4.07 3.93-8.13 5.81-12.23a22.02 22.02 0 0 0 5.12-2.17c-1.93-1.3-4.18-1.93-6.37-2.62 2.65-2.05 6.5-1.5 9-3.63-1.43-1.86-4.22-1.67-6-3.16 2.96-1.34 7.01-.89 9.21-3.56-2.06-.89-4.18-1.65-6.15-2.71 3-.92 6.04-1.71 9.04-2.63-.91-2.41-4.09-1.96-5.63-3.79 1.34-.48 2.7-.91 4.06-1.32-.65-1.45-.33-2.69.95-3.73l-2.04-.38 1.9-2.51a24.67 24.67 0 0 1-5.37-1.54c1.87-1.33 5.77-.66 6.2-3.54-3.18-.84-6.37-1.6-9.52-2.53 2.11-1.47 5.48-1.03 6.69-3.59-3.22-1.02-6.52-1.67-9.75-2.63a9.72 9.72 0 0 1 3.05-1.4c.31-1.54-.72-2.84-1.31-4.15-3.84-7.57-7.6-15.17-11.42-22.74-.5-.97-.84-1.99-1.04-3.05 9.36-.36 18.75-.05 28.12-.16 1.42-.41 2.51.8 2.83 2.04 2.79 6.6 5.67 13.17 8.48 19.76.6 1.17.96 2.84 2.62 2.92 3.65-8.22 6.28-16.95 10.57-24.84 10.21.3 20.44.02 30.66.14-4.78 9.83-9.87 19.49-14.74 29.27.85.85 1.95 1.42 2.77 2.31-3.05 1.35-7.39.58-9.57 3.42 2.2.93 4.72 1.24 6.63 2.79-3.17.82-6.35 1.57-9.5 2.43.87 2.7 4.49 2.15 6.48 3.67-1.8.56-3.65.98-5.49 1.41l2.19 2.28-2.56.71 2.12 1.55-1.24 2.06c1.71.37 3.48.75 4.94 1.78a66.45 66.45 0 0 0-6.44 2.42c2.62 2.26 6.3 2.34 9.45 3.44a29.92 29.92 0 0 1-5.74 2.37v1.54c2.88.8 5.78 1.53 8.66 2.37-1.95 1.48-4.63 1.62-6.37 3.44 3.07 1.36 6.54 1.64 9.45 3.36a42.3 42.3 0 0 0-6.51 2.56 18.06 18.06 0 0 0 5.13 2.24c3.37 7.25 6.99 14.38 10.27 21.67-9.79.07-19.59.26-29.37.11l-1.09-.68c-3.04-6.69-5.72-13.55-8.73-20.26-.59-2.44-4.52-2.64-5.32-.24-3.07 7-5.95 14.08-8.87 21.14-18.66.29-37.32.11-55.98.05-.64-5.34-1.19-10.7-1.77-16.05-4.05-.42-8.12.05-12.18.01-.76 5.32-1.53 10.64-2.03 15.99-9.42.1-18.83.01-28.24.03 1-6.73 2.03-13.47 3.07-20.2.17-1.46 1.14-2.64 1.83-3.88l-2.29-2.81 3.43-3.14c-.79-1.07-1.59-2.13-2.39-3.18 1.25-1.08 2.54-2.16 3.35-3.63a297 297 0 0 1-2.4-2.78 218 218 0 0 0 3.53-3.23l-2.52-3 3.52-3.15-2.53-3.14 3.51-2.93a42.33 42.33 0 0 0-2.36-3.31c1.02-1.19 2.73-1.96 3.13-3.55-.69-.98-1.4-1.95-2.13-2.89 1.11-1.04 2.23-2.08 3.32-3.14l-2.13-2.83a7.28 7.28 0 0 0 1.95-4.36c1.22-7.94 2.68-15.84 3.83-23.79m19.84 30.75c-.73 1.02-1.55 2-2.1 3.15.35 1.74 1.49 3.75-.03 5.28-1.52 1.41-.07 3 .58 4.41-.75 1.08-1.5 2.17-2.23 3.26l1.68 2.94-1.36 2.42c2.73.07 5.47.07 8.2.11-1.77-2.88 1.59-6.37-1.86-8.62 1.52-2 1.53-4.37-.45-6.1 1.6-2.45 1.03-4.93-1.01-6.89 1.26-2.43-.02-5.09-.33-7.58-1.89 1.84-2.08 5.25-1.09 7.62m-2.82 23.83-.01 2.99c2.37-.07 4.74-.07 7.11-.01 0-1 .02-1.99.04-2.98-2.38.07-4.76.07-7.14 0m-.5 7.33.04 1.07c2.68.03 5.37.02 8.06-.02l.02-1c-2.71-.06-5.42-.07-8.12-.05m75.78 10.85c2.3.9 4.91 1.18 7.06-.31-1.2-2.4-5.92-2.37-7.06.31Zm67.73-72.89c16.56-.27 33.14-.14 49.7-.06 4.54 3.7 8.38 8.27 12.62 12.34.2 2.21 1.03 4.27 2.24 6.13a419.2 419.2 0 0 0-1.94 3.64l1.59 3.01c-.52 1.02-1.04 2.04-1.54 3.08 1.48 2.18.89 4.43.22 6.77a6 6 0 0 1-.26 6.14l1.41 3.03c-.48.97-.94 1.95-1.41 2.93.3 1.57 1.82 3.28.85 4.86-2.19.75-4.92.1-6.66 1.9 3.61 1.11 7.63.96 10.97 2.86-5.08.76-10.19 1.31-15.28 2.02a3.32 3.32 0 0 0-2.59 1.37c3.95 1.23 8.23 1.12 12.07 2.69-10.84 2.38-21.98 1.06-32.94 2.06l-.25 2.14c9.92.98 19.94.74 29.88 1.78-9.76 2.41-20.01.8-29.89 2.29-1.9.36-1.13 2.7-1.26 4.03.19 8.05.11 16.11-.04 24.16-9.17-.07-18.34.2-27.49-.17.18-33 .18-66 0-99m27.76 20.14c-.05 6.66-.04 13.33-.01 19.99l8.29.03c.07-6.7.24-13.4.04-20.09-2.78 0-5.55-.01-8.32.07m.17 21.56c.02 1.24.07 2.51.11 3.77 2.57-.14 5.17.07 7.74-.28.11-1.14.11-2.29.15-3.43a194.1 194.1 0 0 0-8-.06m.21 7.14-.29 1.97c2.75.12 5.52.15 8.26-.17l-.43-1.67c-2.52-.03-5.03-.05-7.54-.13Zm53.52-49.01c13.7.06 27.4-.03 41.11.11 1.42 8.44 2.78 16.89 4.22 25.32.2 1.13 1.1 1.9 1.64 2.88-.56.98-1.23 1.89-1.79 2.87.35 1.4 2.01 1.92 2.79 3.08-.33 1.36-1.38 2.37-2.08 3.53.99.84 2.07 1.61 2.96 2.59.38 1.58-1.82 2.34-1.72 3.9.95 1 2.21 1.71 2.97 2.88-.64 1.02-1.37 1.96-1.98 3 .33 1.65 3.29 1.92 2.62 3.91-.58.94-1.25 1.82-1.87 2.74 1.02.83 2.08 1.64 3.03 2.57.03 1.47-1.33 2.43-1.98 3.63 1.1.98 2.38 1.82 3.2 3.09-.81.96-1.46 2-1.94 3.13.92.99 1.93 1.91 2.9 2.86-1.35 2.24-.29 4.76-.02 7.13 1.06 6.7 2.12 13.4 3.21 20.1-9.69.03-19.39 0-29.08.02-.43-5.97-1.13-11.92-1.68-17.87-3.87-.15-7.75-.25-11.61-.04-1.18 5.85-1.61 11.86-2.28 17.79-9.54.28-19.08.02-28.61.12 1.32-7.8 2.48-15.63 3.77-23.44.29-1.32-.27-2.57-.59-3.81.93-1 2.01-1.84 2.89-2.89-.42-1.13-1.28-2-1.89-3.01.41-1.31 1.93-1.9 2.76-2.95.21-1.54-1.38-2.49-2.07-3.69l3.36-2.5c-.48-1.4-1.41-2.56-2.31-3.72 1.03-1.03 2.75-1.65 3.14-3.16-.56-1.09-1.37-2.03-2.02-3.06.87-1.13 2.29-1.74 3.01-2.99-.16-1.42-1.36-2.36-2.09-3.49 1-.83 2.04-1.61 2.95-2.55.58-1.5-1.29-2.37-1.94-3.44 1.06-1.1 2.4-1.99 3.12-3.37-.58-1.03-1.27-1.97-1.83-2.99.56-1.04 1.61-1.86 1.65-3.12 1.43-8.38 2.69-16.78 4.08-25.16m19.65 31.2-2.17 2.96c.47 1.22.97 2.44 1.44 3.67-2.1 1.68-2.22 4.14-.62 6.23-.62 1.15-2.44 2.16-1.75 3.65.76 1.57.93 3.21.25 4.87 2.65-.03 5.3-.01 7.95.06-1.57-1.86-.92-3.74.34-5.49-1.66-1.78-2.87-4.14-.66-6.1a34.87 34.87 0 0 0-2.37-3.14c1.62-2.36 1.32-4.85-.8-6.79.58-2.48.87-5.89-1.28-7.71-.49 2.56-1.21 5.24-.33 7.79m-2.5 23.85-.03 2.79c2.42-.08 4.84-.07 7.27.01-.1-.99-.17-1.97-.21-2.95-2.35.08-4.7-.01-7.03.15m-1.37 7.5c3.01 1.27 6.37.68 9.54.5-2.81-1.75-6.44-.7-9.54-.5Zm33.06-62.58c9.79.03 19.59.09 29.39.09 2.62 8.94 4.99 17.95 7.66 26.88l2.36 1.39c.12 1.7-3.07 1.43-3.01 3.29 1.19.66 2.45 1.2 3.7 1.77 1-.83 3.64-.97 2.79-2.85a16.76 16.76 0 0 1-2.54-1.74c-.43-1.19 1.79-1.4 2.4-2.18 2.53-8.73 4.71-17.57 7.35-26.26l.67-.41c9.65-.01 19.31.11 28.97.09-3.64 9.38-7.17 18.81-10.8 28.21-1.26 1.66.93 2.36 1.94 3.2-2.49.81-4.96 1.64-7.4 2.58.92 2.03 3.41 2.4 5.07 3.69-2.53.89-5.09 1.71-7.54 2.82 1.19 1.86 3.56 2.12 5.39 3.07-2.3 1.69-5.59 1.55-7.54 3.6 1.36 1.46 3.48 1.81 5.05 3.03-2.4 1.37-6.37 1.04-7.51 3.89 1.76.71 3.63 1.33 5.12 2.57-2.03.7-4.09 1.33-6.14 1.94l-.12 2.23c1.31.57 2.64 1.14 3.96 1.73-1.31.62-2.62 1.22-3.94 1.78.15 11.52-.13 23.09-.07 34.64-10.79-.15-21.58.15-32.36-.23-.03-9.92.43-19.87-.34-29.76.33-1.61.4-3.25.25-4.88l-3.43-1.17c1.21-1.12 3.98-1.54 3.56-3.7-1.54-1.56-3.92-1.78-5.85-2.65 1.65-1.19 3.7-1.91 4.96-3.58-2.35-1.17-5.16-1.49-7.15-3.27 1.46-.62 2.94-1.2 4.44-1.74-.37-3.04-4.36-2.67-6.48-4 1.17-1.49 4.17-1.54 4.25-3.71-1.92-.91-3.99-1.44-5.91-2.31-.12-2.34 4.31-1.76 3.55-4.08-2.17-.98-4.54-1.53-6.56-2.8 1.59-.51 2.64-1.89 1.63-3.49-3.24-9.23-6.71-18.39-9.77-27.68m37.79 38.06c1.06 1.69 5.47.15 3.17-1.39-1.4-1.19-2.5.32-3.17 1.39Zm46.03-37.96c6.83.04 13.67-.12 20.51.05 1.45.28 1.45 1.96 2.01 3.01 2.9 7.94 5.81 15.87 8.84 23.76l2.96.54c.05-9.15-.13-18.3.11-27.45h28.26c.05 4.35-.64 8.88 1.1 13.01l-1.32 3c1.39 1.98 1.26 4.28-.06 6.27l1.29 2.88a6.22 6.22 0 0 0-.42 6.18c-.46 2.3-1.26 4.56.26 6.72a114.4 114.4 0 0 0-1.28 3.03c1.14 2 .92 4.15.19 6.24.9 2.28.32 4.54.08 6.86 1.31 3.03-1.14 6.09.71 9a6.32 6.32 0 0 0-.05 6.15c-.86 2.01-1.12 4.22-.1 6.23a9.1 9.1 0 0 0-.1 6.5 9.5 9.5 0 0 0-.11 6.23c-.83 3.64-.4 7.39-.66 11.09-6.83-.12-13.68.16-20.5-.2-2.77-6.94-5.9-13.73-8.82-20.6-.57-2.35-3.33-2.4-5.06-3.42 1.82-.91 3.7-1.73 5.55-2.6-1.62-1.35-3.81-1.61-5.75-2.23-.36 9.68-.26 19.37-.25 29.06l-27.39-.01c.04-33.1.04-66.2 0-99.3m30.77 31.55c1.06.59 2.2 1.07 3.33 1.56.01-1.38.02-2.75.01-4.13-.97.9-3.29 1.06-3.34 2.57m2.73 4.84c-1.23.71-1.21 1.41.05 2.08 1.26-.74 1.25-1.44-.05-2.08m-5.79 28.19c.11.96-.4 4.05 1.59 2.45 2.28-.88-.24-2.31-1.59-2.45Zm42.73-64.54h62.01c-.09 5.75.12 11.5-.07 17.24-.18 1.38-1.7 1.69-2.68 2.31-3.19 1.49-6.21 3.35-9.47 4.68-8.38.55-16.8-.04-25.19.37.04 2.62.05 5.25.04 7.88 6.1.77 12.29.21 18.38 1.16-5.88.72-11.82.26-17.69.87l-.74 1.6c7.38 1.13 14.9.74 22.28 1.9-5.88 1.47-12.04.82-18 1.77-.91.13-1.14.65-.68 1.58 7.74.54 15.68-.13 23.29 1.34-.71 1.77-2.21 3.74-.76 5.58 1.58 1.66-.23 3.27-.98 4.82l1.06 2.47c-3.49-.01-6.99.07-10.46.44 2.34 3 7.05.93 10.31 2.19l-1.04 1.34c-6.92.76-13.91.69-20.83 1.44-1.19-.6-2.15 1.51-.91 1.7 5.68.9 11.49.94 17.17 1.91-6.72 1.59-13.71.97-20.5 2.07-.08 2.6-.09 5.2-.02 7.8 8.28.36 16.59-.19 24.86.3 4.18 1.97 8.47 3.97 12.34 6.49.42 5.95.19 11.95.08 17.92-20.62-.14-41.27.35-61.86-.24-.2-32.97-.12-65.96.06-98.93Zm81.81 117.53c1.09.13 2.2.2 3.32.24l.38.5.92 1.24c-.73.53-1.48 1.02-2.25 1.46l-.95-.43c-1.9-1.1-1.8 2.12-.18 2.3l.48.46c1.54 1.57 3.76 3.27 3.15 5.79-.16 1.82-2.25 2.6-3.82 2.63-1.98 0-2.99-1.94-4.15-3.2 2-1.53 3.41-.09 4.68 1.55l1.04-2.04c-1.51-2.07-3.89-3.47-4.96-5.84-.51-2 1.27-3.28 2.34-4.66Zm6.62.33 2.46.44a5.16 5.16 0 0 0 .05 3.59 4.95 4.95 0 0 0 2.49-4.07l2.02.16.39.34c-.84 1.55-1.66 3.11-2.49 4.66.76 2.96 2.88 5.89 2.02 9.03a68.9 68.9 0 0 1-2.15-1.53 18.8 18.8 0 0 0-1.9-4.97 87.18 87.18 0 0 0-.3 5.83l-2.63.02c-.04-4.5-.06-9.01.04-13.5Zm14.51.29c2.16.07 4.37-.05 6.51.42 2.39 2.07 1.53 5.62-.7 7.44l-1.56-1.57c1.57-1.67 1.63-4.58-1.26-4.81v3.54c-.97-.96-1.94-1.91-2.88-2.88l-.11-2.14Zm31.33.59a160 160 0 0 0 2.19.05c-.01 3.07-.01 6.15.07 9.22-3.45.11-6.89.09-10.33.08l.08 2.06a14.62 14.62 0 0 1-3.63-3.06c1.04-1.2 2.13-2.43 3.65-3.04l-.11 2.04h8.02c0-2.45 0-4.9.06-7.35Zm-36.13 1.53c.99.91 1.95 1.87 2.92 2.84.05 2.83.06 5.66.05 8.49l-2.77-.67c-.25-3.55-.02-7.11-.2-10.66Zm4.83 4.77c.95.97 1.92 1.92 2.9 2.89l.02 3.44-2.89-.01c-.02-2.11-.03-4.21-.03-6.32Z" fill="#fff" stroke="#fff" stroke-width=".09"/><path fill="#d0e6b1" stroke="#d0e6b1" stroke-width=".09" d="M588.69 82.88c1.58-1.06 3.29-2.16 5.3-1.95 5.78.18 11.56 2.05 17.33.54 10.86-1.09 21.83-.25 32.73-.38a69.58 69.58 0 0 0-4.06 11.19c-8.88 1.7-17.97.06-26.92.94-3.33.37-6.68 1.2-10.04.68-7.82-1.37-15.82-1.11-23.71-.62-.44-3.3-.31-6.63.13-9.92 3.07-.24 6.15-.36 9.24-.48Z"/><path fill="#886364" stroke="#886364" stroke-width=".09" opacity=".55" d="m270.38 87.55.12-.17-.12.17Z"/><path d="M698.56 87.28a68.3 68.3 0 0 1 4.8 2.5c1.95 4.64 3.81 9.32 5.46 14.08-4.2-.18-8.11-1.98-11.6-4.18-1.54-1.01-1.1-3.12-1.28-4.68.21-1.19.51-2.37.81-3.54.58-1.4 1.2-2.79 1.81-4.18Zm29.09 24.98c1.67-1.83 3.38-3.64 5.05-5.48 6.66 3.09 13.56 5.65 20.35 8.47-.4 2.03-.91 4.05-1.34 6.08l-.2-.08c-8.05-2.72-15.49-7.37-23.86-8.99Z" fill="#969796" stroke="#969796" stroke-width=".09"/><path fill="#8c8c8b" stroke="#8c8c8b" stroke-width=".09" d="M679.56 88.8a146.1 146.1 0 0 1 6.29 3.35c-.48 2.98-1.01 5.94-1.5 8.92-3.44-2.65-6.63-5.67-10.38-7.89-3.43-1.59-7.37-2.41-11.11-1.59l.52-1.41c5.35.17 10.48 1.89 15.81 2.33l.37-3.71Z"/><path fill="#65bc9f" stroke="#65bc9f" stroke-width=".09" d="M529.68 104.95c-.2-4.78.26-9.63 2.03-14.11 9.28.5 18.58-.13 27.86.4l.72 1.82a84.92 84.92 0 0 0-1.9 9.07c-.44 3.73-.54 7.5-.57 11.26a32.58 32.58 0 0 1-1.13-8.27c-9-.3-18.01-.02-27.01-.17Z"/><path fill="#707a5f" stroke="#707a5f" stroke-width=".09" d="M662.86 91.59c3.74-.82 7.68 0 11.11 1.59 3.75 2.22 6.94 5.24 10.38 7.89l-.47 2.82c-2.71-.57-6.21-2.07-7.79 1.13l-.33-2.27c-4.62-.64-9.22-1.41-13.79-2.32.29-2.95.51-5.9.89-8.84Z"/><path fill="#a4a5a3" stroke="#a4a5a3" stroke-width=".09" d="M717.13 91.29c3.2 2.79 9.03 2.01 10.47 6.58-2.55 3.3-4.98 6.67-7.31 10.13-1.2-4.61-2.66-9.16-3.6-13.83l.44-2.88Z"/><path fill="#b07575" stroke="#b07575" stroke-width=".09" opacity=".7" d="M267.34 92.49Z"/><path fill="#c9e3a7" stroke="#c9e3a7" stroke-width=".09" d="M613.07 93.22c8.95-.88 18.04.76 26.92-.94l-.76 2.67a8.22 8.22 0 0 0-.24 4.06l-.31.85c-.36.96-.66 1.93-.91 2.92-1.01 3.58-1.18 7.32-1.2 11.02l-6.87.18c-1.57-8.31-10.33-14.29-18.64-13.11-4.57.38-8.49 3.17-11.4 6.55-2.24-.14-4.47-.19-6.69-.49-2.42-.34-4.5-1.97-6.99-1.92-2.25-.08-4.48.06-6.72.16-.7 3.11 1.19 8.13-2.76 9.38-.65-1.83-.97-4.92-3.52-4.87-2.26-.07-3.3 2.3-4.4 3.86-.66-3.83-.7-7.71-.52-11.58.08-2.62.14-5.24.16-7.86 3.69.04 7.67 1.01 11.1-.82 7.89-.49 15.89-.75 23.71.62 3.36.52 6.71-.31 10.04-.68Z"/><path fill="#535b45" stroke="#535b45" stroke-width=".09" opacity=".68" d="M639.23 94.95c1.73.88 1.2 3.2-.24 4.06a8.22 8.22 0 0 1 .24-4.06Z"/><path fill="#848583" stroke="#848583" stroke-width=".09" d="M693.48 109.73c.72-4.92 1.63-9.82 2.46-14.73.18 1.56-.26 3.67 1.28 4.68 3.49 2.2 7.4 4 11.6 4.18.98 3.59 5.02 8.27 1.1 11.33a289.65 289.65 0 0 0-11.57-5.42c-1.54-.83-3.27-.19-4.87-.04Z"/><path fill="#ff9684" stroke="#ff9684" stroke-width=".09" d="M349.85 122.63c5.04-9.41 7.6-21.55 17.99-26.73a24.97 24.97 0 0 1 3.36 4.48c-4.4 3.93-7.95 8.64-11.92 12.97-3 3.23-5.53 7.03-9.43 9.28Z"/><path fill="#fbb457" stroke="#fbb457" stroke-width=".09" d="M407.2 97.99a4.37 4.37 0 0 1 2.18-2.45c.78 8.06.14 16.15-.5 24.19-8.57 2.26-11.29 11.65-13.37 19.17-6.63 3.32-11.93 9.05-19.11 11.25 1.1-3.76 3.89-6.61 5.74-9.97 2.13-3.88-2.26-7.71-.47-11.64 1.37-5.4 5.92-8.78 10.47-11.44 2.61-3.28 2.96-7.87 3.61-11.91 4.03-2.02 8-4.26 11.45-7.2Z"/><path fill="#8ed7f5" stroke="#8ed7f5" stroke-width=".09" d="M497.3 96.59c.4 1.63.9 3.25 1.4 4.86 10.05 1.55 19.83 4.57 29.95 5.72l.56 2.85c-8.25-.5-14.7 5.41-19.59 11.32l-.92-3.18c-3.55-.22-7.11-.29-10.66-.25.08-3.64.02-7.28-.14-10.91-3.59-.22-7.19-.26-10.78-.13l-.03-1.11c5.64 1.6 9.22-4.51 10.21-9.17Z"/><path fill="#afb0ae" stroke="#afb0ae" stroke-width=".09" d="M739.66 98.69c1.1-.57 2.23-1.11 3.37-1.65 3.49 1.47 7.01 2.85 10.58 4.14.17 2.27.26 4.54.31 6.81a176.2 176.2 0 0 1-15.46-5.64 92.24 92.24 0 0 1-4.89 3.48 53.8 53.8 0 0 1 6.09-7.14Z"/><path fill="#95d3a4" stroke="#95d3a4" stroke-width=".09" d="M438.11 115.72c.98-5.82 3.14-11.34 5.31-16.8 3.85 2.01 8.21 2.68 12.11 4.56 6.07 3.8 14.26 3.09 19.49 8.46l1.27-.99c1.04 2.91 2.02 5.85 3.07 8.77-1.46 2.41-2.63 5.03-4.45 7.2-1.07 1.21-2.82 2.47-4.45 1.54-6.4-3.22-8.65-11.43-15.52-14.02-5.45-2.32-11.71-1.46-16.83 1.28Z"/><path fill="#657055" stroke="#657055" stroke-width=".09" d="M637.77 102.78c.25-.99.55-1.96.91-2.92 4.08.15 8.28-.18 12.23 1.14-.32 1.89-.62 3.77-.95 5.66l-.44 1.47c-3.98-.21-7.96-.24-11.93-.2.06-1.72.09-3.44.18-5.15Z"/><path fill="#fa9947" stroke="#fa9947" stroke-width=".09" d="M359.28 113.35c3.97-4.33 7.52-9.04 11.92-12.97 1.31 5.1.2 10.45 1.45 15.54-3.04 2.39-6.25 4.55-9.44 6.73-5.42-.16-9.98 3.55-15.38 3.6a90.72 90.72 0 0 1 2.02-3.62c3.9-2.25 6.43-6.05 9.43-9.28Z"/><path fill="#ddeec9" stroke="#ddeec9" stroke-width=".09" d="M558.39 102.13c3.22-.04 6.44-.1 9.67-.17-.18 3.87-.14 7.75.52 11.58-1.62 3.57-2.83 7.87-6.46 9.97l-2.09-.27c-.77-3.27-1.39-6.58-2.21-9.85.03-3.76.13-7.53.57-11.26Z"/><path fill="#a3a3a2" stroke="#a3a3a2" stroke-width=".09" d="M738.46 102.35a176.2 176.2 0 0 0 15.46 5.64l-.87 7.26c-6.79-2.82-13.69-5.38-20.35-8.47l.87-.95a92.24 92.24 0 0 0 4.89-3.48Z"/><path fill="#b5da8c" stroke="#b5da8c" stroke-width=".09" d="M636.57 113.8c.02-3.7.19-7.44 1.2-11.02-.09 1.71-.12 3.43-.18 5.15-.14 2.66-.3 5.32-.29 7.98.01 2.67.13 5.34.37 8 .11 1.31.28 2.62.51 3.93a40.62 40.62 0 0 0 2.12 8.03c-6.04-.09-12.21.82-18.13-.71 4.32-6.19 8.22-13.38 7.53-21.18l6.87-.18Z"/><path fill="#a7aaa2" stroke="#a7aaa2" stroke-width=".09" d="m675.76 102.75.33 2.27a99.1 99.1 0 0 1-1.22 6.59c-4.75-.45-9.43-1.42-14.16-2.07-.66 3.4-1.35 6.79-1.79 10.22-.23 1.66-.44 3.33-.75 4.98l-.52 1.99a71.58 71.58 0 0 1-10.89-1.94c.26-2.2.56-4.4.85-6.6.54-3.37.94-6.78 1.91-10.06l.44-1.47c-.27 5.97-1.77 11.78-2.61 17.68 3.15.66 6.34 1.22 9.55 1.57 1.13-5.46 1.61-11.04 2.84-16.47l1.09-.72c4.52.31 8.93 1.53 13.46 1.88.46-2.62.94-5.24 1.47-7.85Z"/><path fill="#606a51" stroke="#606a51" stroke-width=".09" d="M676.09 105.02c1.58-3.2 5.08-1.7 7.79-1.13-.77 4.8-1.5 9.6-2.51 14.35-.02-2.04-.04-4.07.01-6.1-2.18-.18-4.34-.34-6.51-.53.47-2.19.9-4.38 1.22-6.59Z"/><path fill="#67bb94" stroke="#67bb94" stroke-width=".09" d="M529.68 104.95c9 .15 18.01-.13 27.01.17.07 2.78.35 5.58 1.13 8.27.82 3.27 1.44 6.58 2.21 9.85l2.09.27c-2.6.62-5.71 1.08-7.97-.69-3.11-2.5-4.58-6.92-8.66-8.17-5.08-1.8-10.23-3.51-15.55-4.5-.1-1.73-.21-3.46-.26-5.2Z"/><path fill="#bfde99" stroke="#bfde99" stroke-width=".09" d="M579.26 105.17c2.24-.1 4.47-.24 6.72-.16 2.49-.05 4.57 1.58 6.99 1.92 2.22.3 4.45.35 6.69.49-6.38 7.31-10.19 18.41-20.61 20.89-2.2-4.26-2.1-9.12-2.55-13.76 3.95-1.25 2.06-6.27 2.76-9.38Z"/><path fill="#ace1f7" stroke="#ace1f7" stroke-width=".09" d="M487.12 106.87c3.59-.13 7.19-.09 10.78.13.16 3.63.22 7.27.14 10.91-3.3-.08-6.66-.16-9.84.89-.64-.78-1.3-1.52-1.97-2.25 1.26-3.08.97-6.44.89-9.68Z"/><path fill="#59634a" stroke="#59634a" stroke-width=".09" d="M637.59 107.93c3.97-.04 7.95-.01 11.93.2-.97 3.28-1.37 6.69-1.91 10.06l-.93-1.97c-3.12-.3-6.26-.3-9.38-.31-.01-2.66.15-5.32.29-7.98Z"/><path fill="#727372" stroke="#727372" stroke-width=".09" d="M693.48 109.73c1.6-.15 3.33-.79 4.87.04 3.9 1.71 7.75 3.54 11.57 5.42-3.57 3.89-6.96 7.94-10.66 11.71.22-4.45-3.29-7.67-5.79-10.91-.95 5.27-1.88 10.55-3.34 15.71.31-7.43 2.16-14.66 3.35-21.97Z"/><path fill="#555f46" stroke="#555f46" stroke-width=".09" d="M660.71 109.54c4.73.65 9.41 1.62 14.16 2.07 2.17.19 4.33.35 6.51.53-.05 2.03-.03 4.06-.01 6.1l-.44 3.04a4.39 4.39 0 0 0-3.89-2.39c-6.03-.83-12.23-.79-18.12.87.44-3.43 1.13-6.82 1.79-10.22Z"/><path fill="#8a8b8a" stroke="#8a8b8a" stroke-width=".09" d="M727.65 112.26c8.37 1.62 15.81 6.27 23.86 8.99-.52 1.72-1.06 3.43-1.65 5.12-7.72-2.62-14.95-6.62-22.89-8.55-.79-1.88-1.02-4.08.68-5.56Z"/><path fill="#faa84a" stroke="#faa84a" stroke-width=".09" d="M372.65 115.92c1.89 3.46 6.42 6.62 4.65 11.04-2.13 5.11-8.35 6.58-11.36 11.09-1.04-.34-1.91-1.63-3.12-1.2-3.01.54-6.39 1.49-7.68 4.58-3.43.04-5.79 2.88-8.91 3.83-1.83.58-3.66 1.15-5.45 1.82.45-1.33.92-2.65 1.39-3.97 6.03-3.53 12.77-6.14 17.79-11.15 2.4-2.38 4.48-5.83 3.25-9.31 3.19-2.18 6.4-4.34 9.44-6.73Z"/><path fill="#4d563e" stroke="#4d563e" stroke-width=".09" d="M637.3 115.91c3.12.01 6.26.01 9.38.31l.93 1.97c-.29 2.2-.59 4.4-.85 6.6-2.96-.82-6.05-.89-9.09-.88a92.9 92.9 0 0 1-.37-8Z"/><path fill="#454e36" stroke="#454e36" stroke-width=".09" d="M693.47 115.99c2.5 3.24 6.01 6.46 5.79 10.91-1.71 1.85-3.46 3.65-5.17 5.49a45.58 45.58 0 0 0-3.96-.69c1.46-5.16 2.39-10.44 3.34-15.71Z"/><path fill="#9ddcf6" stroke="#9ddcf6" stroke-width=".09" d="M498.04 117.91c3.55-.04 7.11.03 10.66.25l.92 3.18c-3.15 3.55-6.61 7.34-11.5 8.28-.07-3.9-.14-7.8-.08-11.71Z"/><path fill="#4a543b" stroke="#4a543b" stroke-width=".09" d="M658.92 119.76c5.89-1.66 12.09-1.7 18.12-.87 1.69.02 3.07.9 3.89 2.39-.29 1.89-.62 3.77-.94 5.65-.95-.63-1.67-1.82-2.91-1.82-6.3-.6-12.65.82-18.91-.37.31-1.65.52-3.32.75-4.98Z"/><path fill="#80817f" stroke="#80817f" stroke-width=".09" d="M726.97 117.82c7.94 1.93 15.17 5.93 22.89 8.55a49 49 0 0 1-2.78 5.27 247.58 247.58 0 0 0-15.02-6.37l-1.75.7c-1.1-2.72-2.26-5.42-3.34-8.15Z"/><path fill="#a0ddf7" stroke="#a0ddf7" stroke-width=".09" d="M528.13 121.11c1.07-.83 2.37-1.28 3.6-1.86a77.88 77.88 0 0 0 13.66 27.27 48.85 48.85 0 0 1-2.08 9.32c-9.38-1.92-18.72-4.07-28.12-5.89.59-10.77 4.64-21.67 12.94-28.84Z"/><path fill="#6aba86" stroke="#6aba86" stroke-width=".09" d="M531.73 119.25c3.73-.35 7.81.77 10 4.01 4.65 6.7 4.83 15.46 3.66 23.26a77.88 77.88 0 0 1-13.66-27.27Z"/><path fill="#6a6a69" stroke="#6a6a69" stroke-width=".09" d="M710.78 129.18c2.41-3.07 4.58-6.33 7.27-9.17 1 4.44 2.64 8.69 3.95 13.04-4.07-.17-7.64-2.17-11.22-3.87Z"/><path fill="#3f4931" stroke="#3f4931" stroke-width=".09" d="M637.67 123.91c3.04-.01 6.13.06 9.09.88 3.56.97 7.22 1.53 10.89 1.94l.52-1.99c6.26 1.19 12.61-.23 18.91.37 1.24 0 1.96 1.19 2.91 1.82l-.56 3.21c1.78.36 3.57.75 5.37 1.13a44 44 0 0 1-9.78.8c-11.53-.26-23.07.21-34.59-.27-.77-1.31-1.55-2.62-2.25-3.96-.23-1.31-.4-2.62-.51-3.93Z"/><path fill="#717170" stroke="#717170" stroke-width=".09" d="m730.31 125.97 1.75-.7a247.58 247.58 0 0 1 15.02 6.37l.32.15c-2.4 3.63-4.64 7.41-7.59 10.64-2.68-1.06-5.3-2.26-7.96-3.36l3.63.25c-1.42-4.56-3.4-8.92-5.17-13.35Z"/><path fill="#abda97" stroke="#abda97" stroke-width=".09" d="M435.01 126.22a9.87 9.87 0 0 1 11.34 4.35c3.43 4.41 4.15 11.41 9.68 13.83 6.1 1.89 7.42-5.84 12.03-7.73 2.05-.17 2 2.95 2.41 4.39.38 9.23-4.35 17.9-3.52 27.21a67.86 67.86 0 0 1-10.79-2.52c-.95-5.86-4.15-11.49-9.32-14.57-4.48-2.62-9.5-4.16-13.95-6.83.7-6.04 1.52-12.07 2.12-18.13Z"/><path fill="#fbf6a1" stroke="#fbf6a1" stroke-width=".09" d="M427.46 135.96a12.2 12.2 0 0 1 7.55-9.74c-.6 6.06-1.42 12.09-2.12 18.13-2.8-1.94-5.32-4.82-5.43-8.39Z"/><path fill="#b1d886" stroke="#b1d886" stroke-width=".09" d="M590.92 127.91c3.29-1.9 9.07-1.04 10.21 3.08.6 3.8-.72 7.56-1.86 11.14-5.24-.03-10.47-.08-15.7-.21 1.47-5.03 2.84-10.81 7.35-14.01Z"/><path fill="#343e28" stroke="#343e28" stroke-width=".09" d="M638.18 127.84c.7 1.34 1.48 2.65 2.25 3.96 11.52.48 23.06.01 34.59.27a44 44 0 0 0 9.78-.8c1.77.14 3.55.27 5.33.43 1.33.16 2.63.41 3.96.69 2.91.72 5.84 1.37 8.83 1.76l.23.89c.29 1.32.54 2.64.82 3.96-17.43.07-34.82-.18-52.23-.41a43.76 43.76 0 0 0-10.23.23c-.44-.98-.84-1.96-1.21-2.95a40.62 40.62 0 0 1-2.12-8.03Z"/><path d="M706.94 134.48a105 105 0 0 1 3.84-5.3c3.58 1.7 7.15 3.7 11.22 3.87.38 1.38.72 2.78 1.06 4.17 2.91.71 5.84 1.28 8.79 1.85 2.66 1.1 5.28 2.3 7.96 3.36l.28.11c-2.02 2.05-3.99 4.16-6.21 6-9.93-5.2-20.86-8.21-30.73-13.5l-.23-.89c1.33.13 2.67.24 4.02.33ZM67.5 256.96c2.99-1.49.14 3.32 0 0Zm624.04 66.46c.58.82.75 1.73.5 2.75-1.25.16-2.17-.27-2.75-1.29.77-.44 1.52-.93 2.25-1.46Zm-3.38 3.33c-1.62-.18-1.72-3.4.18-2.3l-.18 2.3Z" fill="#595958" stroke="#595958" stroke-width=".09"/><path fill="#d3f0fb" stroke="#d3f0fb" stroke-width=".09" d="M492.84 139.8c1.59-3.11 4.39-5.29 7.36-7a58.6 58.6 0 0 0-1.52 24.61c-.51 3.24-.92 6.5-.92 9.78-3.8-.63-7.58-1.41-11.33-2.3 2.1-8.36 2.19-17.39 6.41-25.09Z"/><path fill="#69b976" stroke="#69b976" stroke-width=".09" d="M556.2 135.04c.46-2.61 3.7-2.28 5.7-2.69 1.26 6.06 2.52 12.13 4.01 18.14-2.53 4.39-5.58 8.45-8.31 12.71a69.57 69.57 0 0 0-6.77-7.86c1.93-6.73 3.38-13.59 5.37-20.3Z"/><path fill="#d8ebc2" stroke="#d8ebc2" stroke-width=".09" d="M561.9 132.35c2.37.89 4.9 2.2 5.89 4.71 2 4.44.27 9.39-1.88 13.43-1.49-6.01-2.75-12.08-4.01-18.14Z"/><path fill="#abd67f" stroke="#abd67f" stroke-width=".09" d="M612.35 151.03c2.03-5.98 6.36-10.71 9.82-15.87 5.92 1.53 12.09.62 18.13.71.37.99.77 1.97 1.21 2.95a47.6 47.6 0 0 0 3.41 6.07l.79 1.2 1.27 2.06.7 1.93 1.38 1.93.34.75c-3.76.15-7.52.21-11.27.2-.43-4.5-2.97-10.37-8.16-10.48-2.7 1.89-2.89 5.43-3.43 8.38-4.73.01-9.46.07-14.19.17Z"/><path fill="#4a4b49" stroke="#4a4b49" stroke-width=".09" d="M703.15 135.04c9.87 5.29 20.8 8.3 30.73 13.5l.3.15a606.1 606.1 0 0 1-6.1 5.41l-.23-.09c-7.72-3.23-15.56-6.23-22.99-10.08-.24-1.65-.58-3.29-.89-4.93-.28-1.32-.53-2.64-.82-3.96Z"/><path fill="#f9b143" stroke="#f9b143" stroke-width=".09" d="M362.82 136.85c1.21-.43 2.08.86 3.12 1.2a42.79 42.79 0 0 0-7.85 15.78l-1.78-.29c-4.29 2.95-8.94 5.48-12.58 9.26-2.68 2.41-5.4 5.52-9.25 5.75 1.99-7.19 3.97-14.38 6.3-21.47 1.79-.67 3.62-1.24 5.45-1.82 3.12-.95 5.48-3.79 8.91-3.83 1.29-3.09 4.67-4.04 7.68-4.58Z"/><path fill="#fdf9c2" stroke="#fdf9c2" stroke-width=".09" d="M413.89 140.13c.26-1.7 1.57-2.8 3.06-3.48a50.32 50.32 0 0 1 3.46 13.27l-5.19.11c-.29 6.99-.28 14-.28 21l-.08 10.84c-3.03-.86-6.24-1.94-8.16-4.62-1.75-2.78-1.6-6.26-1.14-9.38 1.41-9.62 5.65-18.46 8.33-27.74Z"/><path d="M641.51 138.82c3.39-.46 6.82-.57 10.23-.23 17.41.23 34.8.48 52.23.41.31 1.64.65 3.28.89 4.93l.14 1.86c-20-1.22-40.06-.55-60.08-.9a47.6 47.6 0 0 1-3.41-6.07ZM696 322.21c.88-.1 1.77.14 2.54-.48-.1 1.67-1 3.26-2.49 4.07a5.16 5.16 0 0 1-.05-3.59Z" fill="#2a341e" stroke="#2a341e" stroke-width=".09"/><path fill="#fac855" stroke="#fac855" stroke-width=".09" d="M376.4 150.15c7.18-2.2 12.48-7.93 19.11-11.25-1.53 5.55-2.64 11.26-5.07 16.51-1.35 2.83-3.36 5.72-6.51 6.67-2.9 1.01-6.84.15-8.09-2.92-1.15-2.93-.31-6.13.56-9.01Z"/><path fill="#ff9482" stroke="#ff9482" stroke-width=".09" d="M274.22 148.13c2.84-2.04 6.29-3.35 8.52-6.16-.15 3.72-.18 7.92 2.47 10.86 2.95 3.37 7.71 4.05 11.94 4.23-7.18 4.9-14.34 9.85-21.77 14.37-3.3 2.12-6.44 4.58-10.18 5.89a90.84 90.84 0 0 1-7.13-19.09c5.83-2.59 10.8-6.69 16.15-10.1Z"/><path fill="#a5d377" stroke="#a5d377" stroke-width=".09" d="M583.57 141.92c5.23.13 10.46.18 15.7.21-2.95 7.13-4.72 15.53-1.01 22.74-2.66.08-5.31.19-7.96.33-.09 5.26-.33 10.52-.41 15.78-3.63.11-7.26.13-10.88.06.01-3.6.3-7.26-.69-10.77 1.88-9.43 2.89-19.02 5.25-28.35Z"/><path fill="#3b3b3a" stroke="#3b3b3a" stroke-width=".09" d="M704.86 143.93c7.43 3.85 15.27 6.85 22.99 10.08-6.68 5.78-14.74 9.74-22.98 12.75.28-6.99.46-13.98.13-20.97l-.14-1.86Z"/><path fill="#202a15" stroke="#202a15" stroke-width=".09" d="M644.92 144.89c20.02.35 40.08-.32 60.08.9.33 6.99.15 13.98-.13 20.97a49.08 49.08 0 0 0-6.24 3.01c-8.83 4.34-18.94 5.43-28.6 3.91-4.03-1.05-7.45-3.62-10.47-6.39-4.22-4.2-7.38-9.31-10.16-14.53l-.34-.75.05-.89-1.43-1.04-.7-1.93-1.27-2.06-.79-1.2Z"/><path fill="#2e3c21" stroke="#2e3c21" stroke-width=".09" opacity=".71" d="m645.71 146.09 1.27 2.06-1.27-2.06Z"/><path fill="#f8ad30" stroke="#f8ad30" stroke-width=".09" d="M316.48 153.28c3.12-1.14 6.19-2.43 9.34-3.51.09 3.7-.03 7.62-2.46 10.65-8.92 12.78-11.78 29.5-23.81 40.1-4.09.45-8.22 0-12.31.13a138.42 138.42 0 0 1-6.81-5.49c2.33-1.65 5.12-3 6.51-5.63 3.27-6.24 8.56-11.06 13.44-16.02 2.5-2.65 2.53-6.48 2.26-9.88 4.54-3.55 9.68-6.32 13.84-10.35Z"/><path d="m415.22 150.03 5.19-.11c.51 2.69 2.94 4.06 5.59 3.6.17 5.83-.03 11.66-.19 17.49-3.62.1-7.25.11-10.87.02 0-7-.01-14.01.28-21Zm-22.08 43.08c3.67-.1 7.34-.16 11.02-.04.05 2.69.04 5.53-1.88 7.64-2.2.12-3.32 1.59-3.56 3.62l-5.54-.22c-.04 3.59-.12 7.19-.24 10.79a637 637 0 0 1-7.5.2 27.43 27.43 0 0 0-3.96-4.58l.72-6.52c3.39-.15 6.89.33 10.21-.52.84-3.39.58-6.92.73-10.37Z" fill="#fcf7aa" stroke="#fcf7aa" stroke-width=".09"/><path fill="#ade2f8" stroke="#ade2f8" stroke-width=".09" d="M515.19 149.95c9.4 1.82 18.74 3.97 28.12 5.89-2.21 6.03-5.49 12.29-11.37 15.45-3.34 1.61-7.9 2.33-10.79-.54-5.78-5.17-6.08-13.6-5.96-20.8Z"/><path fill="#465932" stroke="#465932" stroke-width=".09" opacity=".74" d="m647.68 150.08 1.43 1.04-.05.89-1.38-1.93Z"/><path d="M426 153.52c2.29-1.04 4.65-1.92 7.01-2.82-.44 9.23.82 18.43 2.52 27.49-5.85 4.4-13.68 4.93-20.67 3.68l.08-10.84c3.62.09 7.25.08 10.87-.02.16-5.83.36-11.66.19-17.49Zm-74.82 73.46 2.05.28c.28 3.37.21 6.77-.16 10.12-1.2.69-1.39 2.27-.82 3.44l-.98.18c-.03-4.68-.01-9.35-.09-14.02Zm-.53 50.53c3.47.3 6.94.01 10.42-.13-3.39.6-6.8 1.11-10.18 1.71l-.24-1.58Z" fill="#fbf48d" stroke="#fbf48d" stroke-width=".09"/><path fill="#b8de8d" stroke="#b8de8d" stroke-width=".09" d="M433.01 150.7c3.9.87 7.59 3.39 8.89 7.31 2.6 7.23-.87 15.28-6.37 20.18-1.7-9.06-2.96-18.26-2.52-27.49Z"/><path fill="#a4d374" stroke="#a4d374" stroke-width=".09" d="M612.35 151.03c4.73-.1 9.46-.16 14.19-.17-.44 2.28-.61 4.72-1.89 6.72-2.07 3.22-7.32 3.53-9.77.61-1.8-1.94-2.31-4.62-2.53-7.16Z"/><path fill="#ffa48e" stroke="#ffa48e" stroke-width=".09" d="M297.15 157.06c6.59-.24 13.06-1.77 19.33-3.78-4.16 4.03-9.3 6.8-13.84 10.35-10.69 7.04-22.3 12.79-31.9 21.38l-.34.29a100.1 100.1 0 0 1-5.2-7.98c3.74-1.31 6.88-3.77 10.18-5.89 7.43-4.52 14.59-9.47 21.77-14.37Z"/><path fill="#f9c642" stroke="#f9c642" stroke-width=".09" d="m356.31 153.54 1.78.29c-1.58 7.16-.3 15.12 4.58 20.76a38.1 38.1 0 0 1-5.6 6.37c-1.31 4.25-6.7 4.63-9.27 7.88-3.1 3.8-5.12 9-10.22 10.63-4.42.92-9.01.35-13.49.56 3.44-10.49 7.61-20.76 10.39-31.48 3.85-.23 6.57-3.34 9.25-5.75 3.64-3.78 8.29-6.31 12.58-9.26Z"/><path fill="#9fd16f" stroke="#9fd16f" stroke-width=".09" d="M638.13 152.96c3.75.01 7.51-.05 11.27-.2 2.78 5.22 5.94 10.33 10.16 14.53a23.78 23.78 0 0 1-7.59.92c-6.56-.23-13.14.31-19.67-.45a25.97 25.97 0 0 0 5.83-14.8Z"/><path fill="#afe2f8" stroke="#afe2f8" stroke-width=".09" d="M550.83 155.34a69.57 69.57 0 0 1 6.77 7.86c-2.92 4.47-5.45 9.46-5.48 14.92-3.49-.91-6.98-1.8-10.47-2.68 4.46-5.95 7.17-12.99 9.18-20.1Z"/><path fill="#c0e8fa" stroke="#c0e8fa" stroke-width=".09" d="M498.68 157.41c1.97 10.02 6.58 20.96 16.48 25.38 9.15 3.95 20.46.36 26.49-7.35 3.49.88 6.98 1.77 10.47 2.68.37 3.65 1.87 8.07 5.9 8.99 4.55.7 9.24-.86 12.9-3.56-.12 5.67.93 11.35.04 17-2.29-.21-4.59 1.04-4.88 3.49-.42 5.75.11 11.52-.22 17.27-2.53-6-4.38-12.26-6.96-18.23-1.39-3.02-5.18-2.35-7.88-2.43-6.21.26-12.48-.5-18.62.63-4.07-1.01-8.28-.55-12.42-.63-6.66.04-13.33-.26-19.99.06-.8-1.51-1.95-2.96-1.9-4.76-.21-8 .16-16.02-.27-24.02-.05-1.58-.08-3.16-.06-4.74 0-3.28.41-6.54.92-9.78Z"/><path fill="#f8a328" stroke="#f8a328" stroke-width=".09" d="M270.74 185.01c9.6-8.59 21.21-14.34 31.9-21.38.27 3.4.24 7.23-2.26 9.88-4.88 4.96-10.17 9.78-13.44 16.02-1.39 2.63-4.18 3.98-6.51 5.63a76.85 76.85 0 0 1-9.69-10.15Z"/><path fill="#e1f4fc" stroke="#e1f4fc" stroke-width=".09" d="M486.43 164.89c3.75.89 7.53 1.67 11.33 2.3-.02 1.58.01 3.16.06 4.74-3.57-.12-7.15-.08-10.72.11-.08 11.64-.22 23.27-.07 34.91.02 2.19-.31 4.37-.82 6.51-1.33-3.91-1.81-8.17-3.82-11.81-3.55-1.77-7.79-.69-11.63-.99.88-1.95 1.78-3.9 2.68-5.84 2.44-5.4 4.66-10.94 5.83-16.78 3.87-3.38 6-8.24 7.16-13.15Z"/><path fill="#92cb5d" stroke="#92cb5d" stroke-width=".09" d="M590.3 165.2c2.65-.14 5.3-.25 7.96-.33 2.2 4.42 4.72 9.28 9.57 11.23 8.94 3.7 18.76-1.34 24.47-8.34 6.53.76 13.11.22 19.67.45 2.56.1 5.12-.2 7.59-.92 3.02 2.77 6.44 5.34 10.47 6.39 9.66 1.52 19.77.43 28.6-3.91a92.05 92.05 0 0 1 5.86-2.26c-1.27 9.9-5.16 19.8-11.94 27.14-2.47-.64-5.01-1-7.56-.87-16.33.29-32.68-.24-49 .22a43.72 43.72 0 0 1-17.02-.02c-6.19-.07-12.56-.72-18.65.27-.55 1.95-.76 3.97-1 5.97-3.29-1.9-6.31-4.2-9.34-6.48a258.5 258.5 0 0 1-.09-12.76c.08-5.26.32-10.52.41-15.78Z"/><path fill="#f9de4e" stroke="#f9de4e" stroke-width=".09" d="M382.05 178.1c5.08-3.07 7.69-8.75 12.38-12.23-.51 2.68-1.22 5.41-.49 8.13-3.18 11.52-10.73 21.49-19.65 29.27-1.41-1.51-3.19-2.8-5.37-2.59-14.94-.1-29.89-.01-44.83-.07v-.58c4.48-.21 9.07.36 13.49-.56 5.1-1.63 7.12-6.83 10.22-10.63 2.57-3.25 7.96-3.63 9.27-7.88a38.1 38.1 0 0 0 5.6-6.37c4.46 5.63 13.3 7.79 19.38 3.51Z"/><path fill="#c0e092" stroke="#c0e092" stroke-width=".09" d="M456.16 165.75c3.53 1.11 7.13 2 10.79 2.52.6 4.45 1.06 10.02 5.11 12.78 2.66-.19 4.97-1.69 7.21-3.01-1.17 5.84-3.39 11.38-5.83 16.78-1.64-3.97-6.25-4.54-9.31-6.99-3.35-2.6-7.34-4.08-11.32-5.37a30.4 30.4 0 0 0 3.35-16.71Z"/><path fill="#c8e4ad" stroke="#c8e4ad" stroke-width=".09" d="M578.32 170.27c.99 3.51.7 7.17.69 10.77l.06 3.61a89.4 89.4 0 0 1-5.03-4.28c2.27-2.94 3.55-6.49 4.28-10.1Z"/><path fill="#d1eefb" stroke="#d1eefb" stroke-width=".09" d="M487.1 172.04c3.57-.19 7.15-.23 10.72-.11.43 8 .06 16.02.27 24.02-.05 1.8 1.1 3.25 1.9 4.76-2.53 1.51-2.5 4.77-3.39 7.25-2.05 7.02-3.57 14.2-6.07 21.08-1.41-5.2-2.92-10.38-4.32-15.58.51-2.14.84-4.32.82-6.51-.15-11.64-.01-23.27.07-34.91Z"/><path fill="#fdf9be" stroke="#fdf9be" stroke-width=".09" d="M393.94 174c2.06 1.65 4.8 2.65 6.28 4.91.36 4.91.55 10.21 3.94 14.16-3.68-.12-7.35-.06-11.02.04-.15 3.45.11 6.98-.73 10.37-3.32.85-6.82.37-10.21.52l-.72 6.52c-2.44-2.38-4.81-4.82-7.19-7.25 8.92-7.78 16.47-17.75 19.65-29.27Z"/><path fill="#aad681" stroke="#aad681" stroke-width=".09" d="M579.01 181.04c3.62.07 7.25.05 10.88-.06-.07 4.25-.05 8.51.09 12.76-3.73-2.92-7.6-5.71-10.91-9.09l-.06-3.61Z"/><path fill="#c9e38b" stroke="#c9e38b" stroke-width=".09" d="M440.06 195.27c5.82-2.35 9.9-7.4 12.75-12.81 3.98 1.29 7.97 2.77 11.32 5.37 3.06 2.45 7.67 3.02 9.31 6.99-.9 1.94-1.8 3.89-2.68 5.84-6.28.06-12.57-.18-18.85-.04-1.62.12-3.95.33-4.05 2.42-.05 3.55 1.97 6.78 2.92 10.15l-2.85-1.31.04 2.13c-.71-3.65-1.05-7.37-2.01-10.97-.12-1.59-1.75-1.89-2.94-2.37-1-1.8-1.98-3.6-2.96-5.4Z"/><path fill="#fbf7a5" stroke="#fbf7a5" stroke-width=".09" d="m270.4 185.3.34-.29a76.85 76.85 0 0 0 9.69 10.15c2.19 1.92 4.5 3.71 6.81 5.49-6.42.05-12.85-.11-19.27.02-2.08-.17-3.5 1.54-4.3 3.23l-3.37.03c-.2-2.36-.42-4.71-.51-7.07a65.72 65.72 0 0 1 10.61-11.56Z"/><path fill="#fbf586" stroke="#fbf586" stroke-width=".09" d="M404.16 193.07c3.04 3.45 7.41 5.48 11.93 6.12 8.14 1.16 16.54-.49 23.97-3.92.98 1.8 1.96 3.6 2.96 5.4-13.58.02-27.16-.17-40.74.04 1.92-2.11 1.93-4.95 1.88-7.64Z"/><path fill="#88c650" stroke="#88c650" stroke-width=".09" d="M600.32 194.25c6.09-.99 12.46-.34 18.65-.27a43.72 43.72 0 0 0 17.02.02c16.32-.46 32.67.07 49-.22 2.55-.13 5.09.23 7.56.87-2.22 2.96-5.06 5.36-8.71 6.24-1.7.21-1.72 1.96-2.05 3.25l-.48-.58a8.26 8.26 0 0 0-6.25-3.68c-1.8.21-3.25 1.38-4.81 2.17-1.68-.64-3.39-1.36-5.22-1.3-19.01-.03-38.03.05-57.05-.03a8.58 8.58 0 0 0-5.4 1.41c-1.11-.54-2.2-1.09-3.29-1.65l.03-.26c.24-2 .45-4.02 1-5.97Z"/><path fill="#f9f163" stroke="#f9f163" stroke-width=".09" d="M255.06 203.93a60.89 60.89 0 0 1 4.73-7.07c.09 2.36.31 4.71.51 7.07l3.37-.03c-1.16 2.83-2.28 5.67-3.46 8.49-.18-2.67-.45-5.33-.68-7.99a677.1 677.1 0 0 0-4.47-.47Z"/><path d="M447.86 203.04c.1-2.09 2.43-2.3 4.05-2.42 6.28-.14 12.57.1 18.85.04 3.84.3 8.08-.78 11.63.99 2.01 3.64 2.49 7.9 3.82 11.81 1.4 5.2 2.91 10.38 4.32 15.58 2.5-6.88 4.02-14.06 6.07-21.08.89-2.48.86-5.74 3.39-7.25 6.66-.32 13.33-.02 19.99-.06 4.14.08 8.35-.38 12.42.63 6.14-1.13 12.41-.37 18.62-.63 2.7.08 6.49-.59 7.88 2.43 2.58 5.97 4.43 12.23 6.96 18.23.33-5.75-.2-11.52.22-17.27.29-2.45 2.59-3.7 4.88-3.49 8.01.08 16.02.02 24.03.04 1.81.12 4.54-.15 5.12 2.12.97 3.63-.12 7.48.72 11.15a8.72 8.72 0 0 1-.16 5.55c.64 2.19.72 4.43-.1 6.59.73 2.07.54 4.21.15 6.34.26 2.05.65 4.12-.2 6.11a9.58 9.58 0 0 1-.07 6.47c1.3 2.98-.55 6.05.47 9.1-1.06 3.31.73 6.67-.64 9.89a7.78 7.78 0 0 1-.05 6.15l.49 2.32c-.43 10.18-.03 20.45-.74 30.65-.44 1.78-1.95 3.49-3.94 3.27-5.67.09-11.35 0-17.02.01-1.9-.1-4.47-.02-5.29-2.15-3.03-6.36-5.5-12.99-8.52-19.36-.26 6.39.32 12.81-.27 19.18-.32 2.31-3.21 2.33-4.99 2.4-8.29-.09-16.58.13-24.86-.12-2.5.26-3.67-2.09-3.57-4.25-.04-17.17-.01-34.34 0-51.51.15-13.91-.36-27.84.23-41.74-2.23 7.14-5.17 14.04-7.82 21.03-1.29 2.31 1.1 4.8.1 7.15-.82.84-1.9 1.33-2.85 1.97.37 1 .71 2.01 1.01 3.05-.53 1.39-1.86 2.21-2.86 3.23.97 2.46-.07 4.78-2.12 6.27.4 2.47.16 5.5-2.8 6.06.3 1.13.66 2.24.77 3.42-.21 2.04-3.78 2.18-2.77 4.51.83 2.35-1.12 4.09-3.06 4.95 1.47 2.36-.26 4.99-.1 7.51-.05 8.05.11 16.1-.04 24.15.37 2.86-2.85 4.02-5.16 3.78l-28.14-.04c-1.94-.02-4.84-.38-5.16-2.77-.58-10.3.37-20.68-.69-30.97l.44-1.65c-2.28-1.39-3.84-3.73-2.5-6.39-2.47-1.22-2.97-3.59-2.28-6.07-1.85-1.75-3.53-4.07-2.05-6.62-2.13-1.17-3.72-3.4-2.43-5.85-1.82-1.86-3.62-3.9-2.12-6.61-2.78-1.27-3.47-4.52-1.69-6.97-.79-2.61-1.78-5.16-2.71-7.71-1.28-3.68-2.63-7.33-3.94-11-.95-3.37-2.97-6.6-2.92-10.15m2.99.73c3.06 9.29 6.53 18.45 9.77 27.68 1.01 1.6-.04 2.98-1.63 3.49 2.02 1.27 4.39 1.82 6.56 2.8.76 2.32-3.67 1.74-3.55 4.08 1.92.87 3.99 1.4 5.91 2.31-.08 2.17-3.08 2.22-4.25 3.71 2.12 1.33 6.11.96 6.48 4-1.5.54-2.98 1.12-4.44 1.74 1.99 1.78 4.8 2.1 7.15 3.27-1.26 1.67-3.31 2.39-4.96 3.58 1.93.87 4.31 1.09 5.85 2.65.42 2.16-2.35 2.58-3.56 3.7l3.43 1.17c.15 1.63.08 3.27-.25 4.88.77 9.89.31 19.84.34 29.76 10.78.38 21.57.08 32.36.23-.06-11.55.22-23.12.07-34.64 1.32-.56 2.63-1.16 3.94-1.78-1.32-.59-2.65-1.16-3.96-1.73l.12-2.23a150.5 150.5 0 0 0 6.14-1.94c-1.49-1.24-3.36-1.86-5.12-2.57 1.14-2.85 5.11-2.52 7.51-3.89-1.57-1.22-3.69-1.57-5.05-3.03 1.95-2.05 5.24-1.91 7.54-3.6-1.83-.95-4.2-1.21-5.39-3.07 2.45-1.11 5.01-1.93 7.54-2.82-1.66-1.29-4.15-1.66-5.07-3.69 2.44-.94 4.91-1.77 7.4-2.58-1.01-.84-3.2-1.54-1.94-3.2 3.63-9.4 7.16-18.83 10.8-28.21-9.66.02-19.32-.1-28.97-.09l-.67.41c-2.64 8.69-4.82 17.53-7.35 26.26-.61.78-2.83.99-2.4 2.18.78.65 1.63 1.23 2.54 1.74.85 1.88-1.79 2.02-2.79 2.85-1.25-.57-2.51-1.11-3.7-1.77-.06-1.86 3.13-1.59 3.01-3.29l-2.36-1.39c-2.67-8.93-5.04-17.94-7.66-26.88-9.8 0-19.6-.06-29.39-.09m83.82.1c.04 33.1.04 66.2 0 99.3l27.39.01c-.01-9.69-.11-19.38.25-29.06 1.94.62 4.13.88 5.75 2.23-1.85.87-3.73 1.69-5.55 2.6 1.73 1.02 4.49 1.07 5.06 3.42 2.92 6.87 6.05 13.66 8.82 20.6 6.82.36 13.67.08 20.5.2.26-3.7-.17-7.45.66-11.09a9.5 9.5 0 0 1 .11-6.23 9.1 9.1 0 0 1 .1-6.5c-1.02-2.01-.76-4.22.1-6.23a6.32 6.32 0 0 1 .05-6.15c-1.85-2.91.6-5.97-.71-9 .24-2.32.82-4.58-.08-6.86.73-2.09.95-4.24-.19-6.24.41-1.02.84-2.02 1.28-3.03-1.52-2.16-.72-4.42-.26-6.72a6.22 6.22 0 0 1 .42-6.18l-1.29-2.88c1.32-1.99 1.45-4.29.06-6.27l1.32-3c-1.74-4.13-1.05-8.66-1.1-13.01H569.1c-.24 9.15-.06 18.3-.11 27.45l-2.96-.54c-3.03-7.89-5.94-15.82-8.84-23.76-.56-1.05-.56-2.73-2.01-3.01-6.84-.17-13.68-.01-20.51-.05Zm135.58-1.82c1.56-.79 3.01-1.96 4.81-2.17a8.26 8.26 0 0 1 6.25 3.68c.01 2.6.58 6.19-2.22 7.64-2.77 2.27-6.66 1.22-8.97-1.14.17 3.98.34 7.98.06 11.96-.69 2.92-3.85 3.77-6.14 5.07-3.14 1.41-6.01 3.55-9.41 4.31-7.42.27-14.86.15-22.28.1l.43 2.02c5.68.41 11.57-.15 17.06 1.67 1.37.45 1.1 2.27 1.58 3.37 2.51.11 3.91 1.6 3.97 4.11 3.51.8 5 4.4 3.3 7.56l.86 2.86c-.72 4.12-.34 8.48-1.94 12.42a7.86 7.86 0 0 1-6.2.93c1.71 1.42 1.06 4.08-.56 5.24-5.85 1.37-11.95.83-17.87 1.65l-.57 2.02c6.53-.02 13.07-.01 19.62-.02 4.24-.33 7.63 2.65 11.3 4.28 2.46 1.39 5.95 2.2 6.69 5.37.25 5.69.08 11.41.08 17.11.06 2.14-1.8 4.35-4.06 4.13-19.68.08-39.36 0-59.04.04-2.56.4-5.46-1.48-5.23-4.27.07-28.63.17-57.27.1-85.9.33-4.64-.49-9.41.71-13.96a8.58 8.58 0 0 1 5.4-1.41c19.02.08 38.04 0 57.05.03 1.83-.06 3.54.66 5.22 1.3m2.91 1.14c-1.09 1.37-1.28 3.08-1.37 4.78 1.21.63 2.44 1.25 3.68 1.86l-.26-2.96c.66.83 1.32 1.67 2 2.5 1.31-1.17 2.78-3.31 1.2-4.89-1.11-1.82-3.52-.92-5.25-1.29m-68.05.72a8585.3 8585.3 0 0 0-.06 98.93c20.59.59 41.24.1 61.86.24.11-5.97.34-11.97-.08-17.92-3.87-2.52-8.16-4.52-12.34-6.49-8.27-.49-16.58.06-24.86-.3-.07-2.6-.06-5.2.02-7.8 6.79-1.1 13.78-.48 20.5-2.07-5.68-.97-11.49-1.01-17.17-1.91-1.24-.19-.28-2.3.91-1.7 6.92-.75 13.91-.68 20.83-1.44l1.04-1.34c-3.26-1.26-7.97.81-10.31-2.19 3.47-.37 6.97-.45 10.46-.44l-1.06-2.47c.75-1.55 2.56-3.16.98-4.82-1.45-1.84.05-3.81.76-5.58-7.61-1.47-15.55-.8-23.29-1.34-.46-.93-.23-1.45.68-1.58 5.96-.95 12.12-.3 18-1.77-7.38-1.16-14.9-.77-22.28-1.9l.74-1.6c5.87-.61 11.81-.15 17.69-.87-6.09-.95-12.28-.39-18.38-1.16.01-2.63 0-5.26-.04-7.88 8.39-.41 16.81.18 25.19-.37 3.26-1.33 6.28-3.19 9.47-4.68.98-.62 2.5-.93 2.68-2.31.19-5.74-.02-11.49.07-17.24h-62.01Zm78.73-3.02c3.68-.67 7.4-1.15 11.16-1.09 15.99-.08 31.98-.24 47.97-.01 2.51-.18 5.64 1.39 5.44 4.29.17 11.61.05 23.23-.05 34.84.22 2.37-1.4 3.95-3.38 4.85 2.46.02 5.22-.46 7.46.82 1.53 2.07.61 5.23-1.99 5.81a7.98 7.98 0 0 1-2.38 3.04c.22 11.54.24 23.07.16 34.61-.12 1.61.13 3.59-1.36 4.66-3.79 3.59-7.19 7.57-10.97 11.16-1.27 1.39-3.27 1.19-4.96 1.25-10.65.1-21.3-.07-31.95.22-5.06.6-7.57-4.55-10.87-7.38-2.38-2.83-6.28-4.86-6.83-8.83-.71-5.01-.24-10.1-.34-15.15-.18-2.4 1.13-5.77 4.08-5.42 6.33.23 12.69.07 19.02.49 3.28.53 3.4 4.1 4.11 6.66 3.55-.09 7.11-.09 10.67.06-.01-2.44-.03-4.88-.07-7.31-5.86-.03-11.84.5-17.59-.78-2.79-1.84.09-4.73 1.75-6.2-3.73-1.73-2.86-6.24-2.81-9.57.4-4.18-.53-8.46.76-12.54-2.41-.12-5.02.19-7.22-.99-.4-1.02-.75-2.04-1.05-3.08-1.05-1.27-2.52-3.08-.92-4.58 2.57-1.88 6.13-.73 9.13-.95l-.07-.59c-5.55-.23-11.13.81-16.65 0-2.58-.15-2.44-3.23-2.54-5.11.03-6.64-.04-13.29.24-19.93.33-1.29.35-3.04 2.05-3.25m4.94 2.71c-1.35.06-2.69.16-4.01.3.01 4.25.16 8.52-.18 12.76l1.23.58-1.17.47c.06 1.5.07 3.01.03 4.52.09 1.4.33 2.78.64 4.16 11.82-.12 23.7-.23 35.48.68l-.98 1.66c-2.92.23-5.85.4-8.76.71l4.38 2.17c-1.07.84-2.47.95-3.71 1.25.61 3.37-4.07 2.1-5.94 2.57l1.84 2.41c-1.24 1.07-2.53 2.09-3.71 3.22-.69 3.28-.11 6.68-.25 10.01.01 2.44.03 4.89.01 7.34 5.78.59 11.65.54 17.43.06 1.05 1.8 1.25 3.88 1.36 5.93-5.82 1.97-12.15.28-18.17 1.09 5.85.38 11.74.09 17.61.35.26 1.94.43 3.89.48 5.85-.08 1.88-.08 3.76.07 5.65l-.66.77c-4.83 1.43-9.96.52-14.91.66-3.67.4-2.59-4.23-2.77-6.43l-1.27.35.86-.37c-2.44-.27-4.9-.52-7.34-.26-4.07-.23-8.16-.19-12.23-.33-.12 5.3-.43 10.62.08 15.9.17 3.2 3.34 4.73 5.2 6.94 1.53 1.28 2.63 3.41 4.49 4.11l.01 1.14.54-.01c1.86 2.86 5.21 2.51 8.2 2.22 8.44.14 16.89-.05 25.34.04 2.2-.15 4.83.44 6.52-1.39.74-.87 1.51-1.73 2.29-2.57a35.54 35.54 0 0 0 5.41-6.27l-1.33.06c1.25-.39 2.46-.95 3.7-1.44.44-2.53.7-5.09.55-7.66l-.72-.34c.15-1.57.29-3.13.4-4.7l-.07-.59.03-5.5c-.05-5.56-.06-11.11-.02-16.66l-1.2-.1c-.14-1.3-.67-2.52-1.02-3.76 1.46-.26 2.97-.5 4.45-.76-2.01-.67-7.18.98-6.22-2.44 2.36-.35 4.77-.47 7.12-.99-3.07-.27-6.16-.36-9.21-.75 1.45-4.27 8.17-5.37 6.5-10.75-.08-9.6.46-19.23-.17-28.81l.48-3.01-1.36.03.01-.56c-12.38-.49-24.78-.21-37.17-.18-6.05.46-12.18-.3-18.19.67Zm-340.67 20.51c2.77-.08 5.54-.07 8.32-.07.2 6.69.03 13.39-.04 20.09l-8.29-.03c-.03-6.66-.04-13.33.01-19.99m3.07 2.87c.08 4.67.06 9.34.09 14.02l.98-.18.58.05c.88-1.11.96-2.27.24-3.49.37-3.35.44-6.75.16-10.12l-2.05-.28Zm-171.02 7.87c-.99-2.37-.8-5.78 1.09-7.62.31 2.49 1.59 5.15.33 7.58 2.04 1.96 2.61 4.44 1.01 6.89 1.98 1.73 1.97 4.1.45 6.1 3.45 2.25.09 5.74 1.86 8.62-2.73-.04-5.47-.04-8.2-.11l1.36-2.42-1.68-2.94c.73-1.09 1.48-2.18 2.23-3.26-.65-1.41-2.1-3-.58-4.41 1.52-1.53.38-3.54.03-5.28.55-1.15 1.37-2.13 2.1-3.15m.11 15.53c-1.04.72-.24 3.17 1.07 2.1 1.17-.7.24-3.11-1.07-2.1ZM421.66 235c-.88-2.55-.16-5.23.33-7.79 2.15 1.82 1.86 5.23 1.28 7.71 2.12 1.94 2.42 4.43.8 6.79.84 1 1.64 2.04 2.37 3.14-2.21 1.96-1 4.32.66 6.1-1.26 1.75-1.91 3.63-.34 5.49-2.65-.07-5.3-.09-7.95-.06.68-1.66.51-3.3-.25-4.87-.69-1.49 1.13-2.5 1.75-3.65-1.6-2.09-1.48-4.55.62-6.23-.47-1.23-.97-2.45-1.44-3.67l2.17-2.96m.46 9.17c-1.55 3 3.29.21 0 0m-.01 7.81c-1.74 1.94 2.47 1.96.78 0 1.68-2-2.48-1.99-.78 0ZM84.28 241.62c2.92-2.94 7.36-2.45 10.73-.64-2.9 3.03-7.32 2.27-10.73.64Zm264 4.05c2.66-.03 5.33-.02 8 .06-.04 1.14-.04 2.29-.15 3.43-2.57.35-5.17.14-7.74.28-.04-1.26-.09-2.53-.11-3.77Zm-170.94 13.01c2.38.07 4.76.07 7.14 0-.02.99-.04 1.98-.04 2.98-2.37-.06-4.74-.06-7.11.01l.01-2.99Zm241.82.17c2.33-.16 4.68-.07 7.03-.15.04.98.11 1.96.21 2.95-2.43-.08-4.85-.09-7.27-.01l.03-2.79Zm307.79 59.83c4.67.05 9.36-.18 14.04.04 2.31-.19 3.63 2.3 3.32 4.33-.16 4.56.29 9.16-.25 13.68l-1.36 1.02c-5.15.3-10.34.24-15.48.03l-1.32-.94c-.4-4.28-.09-8.59-.2-12.88-.15-1.86.43-3.63 1.25-5.28m12.43 3.97c-.06 2.45-.06 4.9-.06 7.35h-8.02l.11-2.04c-1.52.61-2.61 1.84-3.65 3.04a14.62 14.62 0 0 0 3.63 3.06l-.08-2.06c3.44.01 6.88.03 10.33-.08-.08-3.07-.08-6.15-.07-9.22a160 160 0 0 1-2.19-.05Z" stroke="#000" stroke-width=".09"/><path fill="#6b6b6b" stroke="#6b6b6b" stroke-width=".09" d="M673.16 203.19c1.73.37 4.14-.53 5.25 1.29 1.58 1.58.11 3.72-1.2 4.89-.68-.83-1.34-1.67-2-2.5l.26 2.96a180.6 180.6 0 0 1-3.68-1.86c.09-1.7.28-3.41 1.37-4.78m-.08 2.13c-1.54 3.09 3.16.25 0 0m4.16.82c.5.5.5.5 0 0Z"/><path fill="#d8ad24" stroke="#d8ad24" stroke-width=".09" d="M688.78 203.6c6.01-.97 12.14-.21 18.19-.67 12.39-.03 24.79-.31 37.17.18l-.01.56c-3.07.07-6.14.12-9.2.1-8.86-.17-17.71 0-26.56.05-2.81-.02-5.61-.09-8.41-.1-2.28.01-4.56.05-6.82 0l-4.36-.12Z"/><path fill="#f7ee3b" stroke="#f7ee3b" stroke-width=".09" d="m255.06 203.93 4.47.47c.23 2.66.5 5.32.68 7.99-1.25 3.27-2.6 6.51-3.9 9.76a385.44 385.44 0 0 1-4.61-10.67c.58-2.72 2.17-5.07 3.36-7.55Z"/><path fill="#faf486" stroke="#faf486" stroke-width=".09" d="m393.18 204.11 5.54.22c-.57 3.58-1.08 7.17-1.68 10.74l-3.55.51c-.21 3.44-.38 6.89-.51 10.33l-6.2.16c2.17-3.69-.41-7.37-1.34-10.97a637 637 0 0 0 7.5-.2c.12-3.6.2-7.2.24-10.79Z"/><path fill="#fcf063" stroke="#fcf063" stroke-width=".09" d="M684.77 203.9c1.32-.14 2.66-.24 4.01-.3l4.36.12c-.94 3.82-2.91 7.26-4.07 11.01l-1.78.5 1.35 1.51-2.82.5-1.23-.58c.34-4.24.19-8.51.18-12.76Z"/><path fill="#fde94a" stroke="#fde94a" stroke-width=".09" d="M693.14 203.72c2.26.05 4.54.01 6.82 0a33.68 33.68 0 0 0-2.83 5.94l-1.95.79c.42 1.4.84 2.8 1.29 4.21-1.86.25-3.7.51-5.54.8 1.98.41 3.97.8 5.97 1.17-1.94.19-3.88.39-5.8.6l2.6 1.46c-1.57.69-3.13 1.38-4.68 2.09 1.47-.03 2.95-.06 4.44-.11l3.48.87c-4.06.6-8.16.8-12.26.69.04-1.51.03-3.02-.03-4.52l1.17-.47 2.82-.5-1.35-1.51 1.78-.5c1.16-3.75 3.13-7.19 4.07-11.01Z"/><path fill="#fde437" stroke="#fde437" stroke-width=".09" d="M699.96 203.72c2.8.01 5.6.08 8.41.1a8.4 8.4 0 0 1-.69 5.11l.96.75c-.83.61-1.64 1.23-2.45 1.85l2.66.73-1.59 1.62c2.32.49 4.63 1.02 6.95 1.57-2.84.43-5.67.89-8.51 1.24-2.65.23-5.3.52-7.93.82 3.14.39 6.31.67 9.48.96-4.49 1.44-9.26 1.03-13.79 2.2-1.49.05-2.97.08-4.44.11 1.55-.71 3.11-1.4 4.68-2.09l-2.6-1.46c1.92-.21 3.86-.41 5.8-.6-2-.37-3.99-.76-5.97-1.17 1.84-.29 3.68-.55 5.54-.8-.45-1.41-.87-2.81-1.29-4.21l1.95-.79c.74-2.07 1.7-4.05 2.83-5.94Z"/><path fill="#fef423" stroke="#fef423" stroke-width=".09" d="M708.37 203.82c8.85-.05 17.7-.22 26.56-.05l2.86 2.82a21.5 21.5 0 0 0-1.85 5.22c2.61.16 5.23.3 7.86.4a99.18 99.18 0 0 0-.13 4.57c-12.66.15-25.33 1.21-37.97-.09 2.84-.35 5.67-.81 8.51-1.24-2.32-.55-4.63-1.08-6.95-1.57l1.59-1.62-2.66-.73c.81-.62 1.62-1.24 2.45-1.85l-.96-.75a8.4 8.4 0 0 0 .69-5.11Z"/><path fill="#fef634" stroke="#fef634" stroke-width=".09" d="M734.93 203.77c3.06.02 6.13-.03 9.2-.1l1.36-.03-.48 3.01a43.7 43.7 0 0 0-1.21 5.56c-2.63-.1-5.25-.24-7.86-.4.4-1.81 1-3.57 1.85-5.22l-2.86-2.82Z"/><path fill="#0b0d0c" stroke="#0b0d0c" stroke-width=".09" d="M673.08 205.32c3.16.25-1.54 3.09 0 0Z"/><path fill="#0c0c0c" stroke="#0c0c0c" stroke-width=".09" d="M677.24 206.14c.5.5.5.5 0 0Z"/><path d="M743.8 212.21a43.7 43.7 0 0 1 1.21-5.56c.63 9.58.09 19.21.17 28.81l-1.62 1.13c-.04.71-.07 1.43-.07 2.14a48.8 48.8 0 0 0-9.96.6c0-.57.01-1.13.04-1.69 2.96.15 5.91-.27 8.73-1.22-5.42-.72-10.89-.62-16.34-.52-3.62.09-7.35-.13-10.81 1.13 4.08 1.64 8.54 1.13 12.83 1.48-5.42.39-10.96-.42-16.25 1.13 9.82 1.65 19.82-.08 29.67.96-10.47.54-20.99-.59-31.42.73l3.69 2.18c-1.64.32-3.27.64-4.88.99 9.7 2.1 19.7-.22 29.48.96-10.15 1.09-20.42-.76-30.54.85l4.28 1.45c-1.72.59-3.44 1.19-5.14 1.81 2.98.52 6 .83 9.04.96-4.08.25-8.16.47-12.24.54.14-3.33-.44-6.73.25-10.01 1.18-1.13 2.47-2.15 3.71-3.22l-1.84-2.41c1.87-.47 6.55.8 5.94-2.57 1.24-.3 2.64-.41 3.71-1.25l-4.38-2.17c2.91-.31 5.84-.48 8.76-.71l.98-1.66c-11.78-.91-23.66-.8-35.48-.68a26.82 26.82 0 0 1-.64-4.16c4.1.11 8.2-.09 12.26-.69l-3.48-.87c4.53-1.17 9.3-.76 13.79-2.2-3.17-.29-6.34-.57-9.48-.96 2.63-.3 5.28-.59 7.93-.82 12.64 1.3 25.31.24 37.97.09.02-1.53.04-3.05.13-4.57m-58.35 12.05c3.9.51 7.85.04 11.68-.79-2.34-.25-4.68-.48-7.01-.63-1.58.11-4.25-.91-4.67 1.42m28.52 10.26c9 .59 18.12.97 27.1-.06-4.61-1.15-9.38-.64-14.07-.66-4.36.01-8.73-.05-13.03.72Zm-19.51 65.29a73.1 73.1 0 0 1 7.25.08l.95 2.14c-2.99.29-6.34.64-8.2-2.22Z" fill="#f7c828" stroke="#f7c828" stroke-width=".09"/><path fill="#def3fc" stroke="#def3fc" stroke-width=".09" d="M523.93 229.79c2.65-6.99 5.59-13.89 7.82-21.03-.59 13.9-.08 27.83-.23 41.74-4.75.7-9.55.62-14.31.96 2.05-1.49 3.09-3.81 2.12-6.27 1-1.02 2.33-1.84 2.86-3.23-.3-1.04-.64-2.05-1.01-3.05.95-.64 2.03-1.13 2.85-1.97 1-2.35-1.39-4.84-.1-7.15Z"/><path fill="#faf481" stroke="#faf481" stroke-width=".09" d="m447.93 211.88 2.85 1.31c1.31 3.67 2.66 7.32 3.94 11-1.37 1.52-2.69 3.08-4.02 4.65-1.39-4.84-1.83-9.89-2.73-14.83l-.04-2.13Z"/><path fill="#f9f162" stroke="#f9f162" stroke-width=".09" d="m393.49 215.58 3.55-.51c-1.02 5.2-1.1 10.65-3.28 15.55-.61 1.3-.22 2.72-.12 4.08-1.11 1.95-1.63 4.09-.92 6.28l-1.51 3c1.28 3.41-1.94 6.45-.45 9.84-.75 1.52-1.55 3.1-3.33 3.54-.19-2.1-.44-4.19-.78-6.27a9.67 9.67 0 0 0-.01-6.13 9.3 9.3 0 0 0-.03-6.31c.76-2.09.8-4.27.06-6.36.81-2.04.93-4.16.11-6.22l6.2-.16c.13-3.44.3-6.89.51-10.33Z"/><path fill="#fbf596" stroke="#fbf596" stroke-width=".09" d="M313.7 225.21c1.4-2.66 2.69-5.38 3.88-8.14-.51 6.66-.17 13.34-.26 20.01l-2.32-.07c-.14-3.94.8-8.21-1.3-11.8Z"/><path fill="#f8e442" stroke="#f8e442" stroke-width=".09" d="M685.45 224.26c.42-2.33 3.09-1.31 4.67-1.42 2.33.15 4.67.38 7.01.63-3.83.83-7.78 1.3-11.68.79Z"/><path fill="#f9f47f" stroke="#f9f47f" stroke-width=".09" d="M303.75 236.86c4.22-3 7.46-7.15 9.95-11.65 2.1 3.59 1.16 7.86 1.3 11.8-3.75-.08-7.5-.05-11.25-.15Z"/><path stroke="#000" stroke-width=".09" opacity=".46" d="M89.34 234.26c.5.53.5.53 0 0Z"/><path fill="#f1a122" stroke="#f1a122" stroke-width=".09" d="M713.97 234.52c4.3-.77 8.67-.71 13.03-.72 4.69.02 9.46-.49 14.07.66-8.98 1.03-18.1.65-27.1.06Z"/><path fill="#efa924" stroke="#efa924" stroke-width=".09" d="M715.15 237.03c3.46-1.26 7.19-1.04 10.81-1.13 5.45-.1 10.92-.2 16.34.52a23.57 23.57 0 0 1-8.73 1.22c-.03.56-.04 1.12-.04 1.69a48.8 48.8 0 0 1 9.96-.6c0-.71.03-1.43.07-2.14l1.62-1.13c1.67 5.38-5.05 6.48-6.5 10.75 3.05.39 6.14.48 9.21.75-2.35.52-4.76.64-7.12.99-.96 3.42 4.21 1.77 6.22 2.44-1.48.26-2.99.5-4.45.76.35 1.24.88 2.46 1.02 3.76l.14 2.84c-7.53.27-15.11-.39-22.59.72-5.78.48-11.65.53-17.43-.06.02-2.45 0-4.9-.01-7.34 4.08-.07 8.16-.29 12.24-.54a69.96 69.96 0 0 1-9.04-.96c1.7-.62 3.42-1.22 5.14-1.81l-4.28-1.45c10.12-1.61 20.39.24 30.54-.85-9.78-1.18-19.78 1.14-29.48-.96 1.61-.35 3.24-.67 4.88-.99l-3.69-2.18c10.43-1.32 20.95-.19 31.42-.73-9.85-1.04-19.85.69-29.67-.96 5.29-1.55 10.83-.74 16.25-1.13-4.29-.35-8.75.16-12.83-1.48Z"/><path fill="#f7ed2b" stroke="#f7ed2b" stroke-width=".09" d="M294.02 240.49c3.5-.33 6.75-1.85 9.73-3.63.08 3.68.2 7.36.38 11.04 4.39.33 8.79.44 13.19.35v34.31c-8.75.2-17.52-.46-26.18-1.68l-.66-1.28a4.1 4.1 0 0 0-2.84-7.13c1.99-2.6.58-5.55-2.28-6.58.22-1.62.21-3.25-.11-4.85l-2.95-1.1c1.28-2.96-.52-5.44-2.95-7.03.29-1.88 2.53-2.61 3.26-4.31.17-1.11-.14-2.22-.25-3.32 1.4-.9 3.45-1.42 3.8-3.32a42.48 42.48 0 0 0-.92-3.35c2.85.9 5.72 2.17 8.78 1.88Z"/><path fill="#f7ef41" stroke="#f7ef41" stroke-width=".09" d="M303.75 236.86c3.75.1 7.5.07 11.25.15l2.32.07v11.17c-4.4.09-8.8-.02-13.19-.35-.18-3.68-.3-7.36-.38-11.04Z"/><path fill="#f8f059" stroke="#f8f059" stroke-width=".09" d="M352.25 240.82c-.57-1.17-.38-2.75.82-3.44a2.84 2.84 0 0 1-.24 3.49l-.58-.05Z"/><path fill="#413f1c" stroke="#413f1c" stroke-width=".09" d="M422.12 244.17c3.29.21-1.55 3 0 0Z"/><path stroke="#000" stroke-width=".09" opacity=".45" d="M180.27 250.38c1.31-1.01 2.24 1.4 1.07 2.1-1.31 1.07-2.11-1.38-1.07-2.1Z"/><path fill="#d7d260" stroke="#d7d260" stroke-width=".09" d="M422.11 251.98c-1.7-1.99 2.46-2 .78 0h-.78Z"/><path fill="#050505" stroke="#050505" stroke-width=".09" d="M348.49 252.81c2.51.08 5.02.1 7.54.13l.43 1.67c-2.74.32-5.51.29-8.26.17l.29-1.97Z"/><path fill="#111110" stroke="#111110" stroke-width=".09" opacity=".61" d="M422.11 251.98h.78c1.69 1.96-2.52 1.94-.78 0Z"/><path d="m743.56 254.91 1.2.1c-.04 5.55-.03 11.1.02 16.66-7.46.03-14.93.18-22.39.02a54.49 54.49 0 0 0-.48-5.85c-5.87-.26-11.76.03-17.61-.35 6.02-.81 12.35.88 18.17-1.09-.11-2.05-.31-4.13-1.36-5.93 7.48-1.11 15.06-.45 22.59-.72l-.14-2.84Zm-21.1 22.43c7.42-.22 14.86.18 22.29-.17l.07.59c-7.67-.04-15.38-.38-23.02.35l.66-.77Z" fill="#e48522" stroke="#e48522" stroke-width=".09"/><path fill="#8e8e8e" stroke="#8e8e8e" stroke-width=".09" d="M109.37 257.04c2.99-1.62.26 3.28 0 0Z"/><path fill="#f8f053" stroke="#f8f053" stroke-width=".09" d="m384.29 264.14 4.2-.47.19 2.79c-.53.97-1.04 1.95-1.54 2.93l-2.21 1.4-.87.36-2.89.8-.65-1.44c1.71-.84 4.17-1.35 4.62-3.56-.26-.95-.54-1.89-.85-2.81Z"/><path fill="#777" stroke="#777" stroke-width=".09" d="M176.84 266.01c2.7-.02 5.41-.01 8.12.05l-.02 1c-2.69.04-5.38.05-8.06.02l-.04-1.07Z"/><path fill="#929292" stroke="#929292" stroke-width=".09" d="M417.79 266.35c3.1-.2 6.73-1.25 9.54.5-3.17.18-6.53.77-9.54-.5Z"/><path fill="#efc641" stroke="#efc641" stroke-width=".09" d="M684.14 271.73c4.07.14 8.16.1 12.23.33-1.16.48-2.31.98-3.45 1.5 1.43.85 2.86 1.71 4.34 2.5l-2.57.13-5.61.09 5.3 1.44-4.18.77 3.01 2.28-3.1.6 3.22 1.37-3.09.73 3.11 2.82-2.47.1c3.43.35 6.88.66 10.34.76-3.47.38-6.92.9-10.37 1.37 1.93.8 3.83 1.67 5.7 2.64-2.83.01-5.65.16-8.46.36 3.54.16 7.08.33 10.63.42-1.95 1.47-4.42 1.54-6.74 1.71 4.45.62 8.39 3.38 12.96 3.22 4.98-.11 9.99.45 14.94-.24 5.58-1.01 11.27-.39 16.91-.53l.47.61c-4.79.34-9.59.02-14.38.39-7.48.55-15.15-.75-22.5 1-2.16.28-4.31.53-6.47.58-1.86-.7-2.96-2.83-4.49-4.11-1.86-2.21-5.03-3.74-5.2-6.94-.51-5.28-.2-10.6-.08-15.9Z"/><path fill="#e88c29" stroke="#e88c29" stroke-width=".09" d="M696.37 272.06c2.44-.26 4.9-.01 7.34.26l-.86.37-2.44.79 2.94 2.22c-2.04.13-4.06.27-6.09.36-1.48-.79-2.91-1.65-4.34-2.5 1.14-.52 2.29-1.02 3.45-1.5Z"/><path fill="#dc7120" stroke="#dc7120" stroke-width=".09" d="M722.39 271.69c7.46.16 14.93.01 22.39-.02l-.03 5.5c-7.43.35-14.87-.05-22.29.17a46.34 46.34 0 0 1-.07-5.65Z"/><path fill="#d96824" stroke="#d96824" stroke-width=".09" d="m700.41 273.48 2.44-.79 1.27-.35c.18 2.2-.9 6.83 2.77 6.43 4.95-.14 10.08.77 14.91-.66 7.64-.73 15.35-.39 23.02-.35a186.1 186.1 0 0 1-.4 4.7c-16.76-.58-33.58.51-50.3-.95a78.2 78.2 0 0 0 9.27-1.26c-2.89-.35-5.85-.53-8.57-1.63 2.92-.23 5.85-.46 8.73-1.07-2.96-.5-5.9-.99-8.86-1.36l2.57-.13c2.03-.09 4.05-.23 6.09-.36l-2.94-2.22Z"/><path stroke="#000" stroke-width=".09" opacity=".65" d="M70.34 276.28c.48.53.48.53 0 0Z"/><path fill="#dd882b" stroke="#dd882b" stroke-width=".09" d="m689.08 276.28 5.61-.09c2.96.37 5.9.86 8.86 1.36-2.88.61-5.81.84-8.73 1.07 2.72 1.1 5.68 1.28 8.57 1.63a78.2 78.2 0 0 1-9.27 1.26c16.72 1.46 33.54.37 50.3.95l.72.34-1.24-.03c-15.03.02-30.16-.62-45.13.97 5.07 1.48 10.43.81 15.58 1.87-7.02-.14-13.99.86-21 .68l-3.11-2.82 3.09-.73-3.22-1.37 3.1-.6-3.01-2.28 4.18-.77-5.3-1.44Z"/><path fill="#ce570e" stroke="#ce570e" stroke-width=".09" d="M698.77 283.74c14.97-1.59 30.1-.95 45.13-.97l-1.33 2.9c-1.49.03-2.97.07-4.43.08-7.93-.33-15.88.43-23.79-.14-5.15-1.06-10.51-.39-15.58-1.87Z"/><path fill="#80420d" stroke="#80420d" stroke-width=".09" d="m743.9 282.77 1.24.03c.15 2.57-.11 5.13-.55 7.66-1.24.49-2.45 1.05-3.7 1.44-2.76.16-5.52.14-8.25.46l.36-1.76c2.33-.01 4.67-.08 7.01-.23l-.78-.12c-6.68-1.34-13.55-.24-20.28-1.17-3.8-.58-7.65-.56-11.45-.16l-4.46-.43c13.3-.49 26.62-.36 39.92-.94a81.75 81.75 0 0 0-4.92-.32l.1-1.48c1.46-.01 2.94-.05 4.43-.08l1.33-2.9Z"/><path fill="#c84218" stroke="#c84218" stroke-width=".09" d="m690.88 286.39 2.47-.1c7.01.18 13.98-.82 21-.68 7.91.57 15.86-.19 23.79.14l-.1 1.48c-12.27.46-24.56-.43-36.82-.08-3.46-.1-6.91-.41-10.34-.76Z"/><path fill="#d97d1a" stroke="#d97d1a" stroke-width=".09" d="M701.22 287.15c12.26-.35 24.55.54 36.82.08 1.63.05 3.28.17 4.92.32-13.3.58-26.62.45-39.92.94l4.46.43c5.13.86 10.36.41 15.54.64 5.4.04 10.78.66 16.19.69l.78.12c-2.34.15-4.68.22-7.01.23-12.16-.28-24.31.29-36.45.56a73.32 73.32 0 0 0-5.7-2.64c3.45-.47 6.9-.99 10.37-1.37Z"/><path fill="#c2481b" stroke="#c2481b" stroke-width=".09" d="M688.09 291.52c2.81-.2 5.63-.35 8.46-.36 12.14-.27 24.29-.84 36.45-.56l-.36 1.76-1.28.17c-6.44-.39-12.9-.02-19.33-.55a78.88 78.88 0 0 0-13.31-.04c-3.55-.09-7.09-.26-10.63-.42Z"/><path fill="#d76122" stroke="#d76122" stroke-width=".09" d="M698.72 291.94c4.43-.37 8.88-.34 13.31.04 6.43.53 12.89.16 19.33.55a32.5 32.5 0 0 0 7.55 1.05c-7.67.26-15.43-.65-23.01.79 6.62.93 13.32.67 19.97 1.13l.92.6c-5.64.14-11.33-.48-16.91.53-4.95.69-9.96.13-14.94.24-4.57.16-8.51-2.6-12.96-3.22 2.32-.17 4.79-.24 6.74-1.71Z"/><path fill="#a45512" stroke="#a45512" stroke-width=".09" d="m731.36 292.53 1.28-.17c2.73-.32 5.49-.3 8.25-.46l1.33-.06a35.54 35.54 0 0 1-5.41 6.27c-4.6-.28-9.28.16-13.79-.98l-.14-.03c4.79-.37 9.59-.05 14.38-.39l-.47-.61-.92-.6c-6.65-.46-13.35-.2-19.97-1.13 7.58-1.44 15.34-.53 23.01-.79a32.5 32.5 0 0 1-7.55-1.05Z"/><path fill="#d58e1a" stroke="#d58e1a" stroke-width=".09" d="M700.38 298.1c7.35-1.75 15.02-.45 22.5-1l.14.03c-7.49.91-15.1 1.21-22.64.97Z"/><path fill="#ad4c1c" stroke="#ad4c1c" stroke-width=".09" d="M693.91 298.68c2.16-.05 4.31-.3 6.47-.58 7.54.24 15.15-.06 22.64-.97 4.51 1.14 9.19.7 13.79.98-.78.84-1.55 1.7-2.29 2.57-10.93-.56-21.88-.29-32.81-.79a73.1 73.1 0 0 0-7.25-.08l-.54.01-.01-1.14Z"/><path fill="#c5762a" stroke="#c5762a" stroke-width=".09" d="M701.71 299.89c10.93.5 21.88.23 32.81.79-1.69 1.83-4.32 1.24-6.52 1.39-8.45-.09-16.9.1-25.34-.04l-.95-2.14Z"/><path fill="#da251d" stroke="#da251d" stroke-width=".09" d="M691.38 320.92c3.05-7.37 10.51-12.99 18.64-12.84 7.33-.45 14.45 3.74 18.15 9.99l-3.35.05c-2.84-2.21-5.38-5.03-8.95-6.04a17.49 17.49 0 0 0-16.61 3.37c1.9 1.84 3.8 3.7 5.68 5.58l3.22 3.17c.94.97 1.91 1.92 2.88 2.88l1.26 1.27 1.56 1.57.74.75c2.84 2.82 5.59 5.74 8.5 8.49l2.31-.08 2.81-.13c-3.78 6.2-10.83 10.47-18.2 9.97-8.25.21-15.59-5.6-18.79-12.96l3.58.08c2.43 3.9 5.78 7.49 10.31 8.87 5.27 1.6 11.64.9 15.83-2.88-2.53-3.07-5.62-5.61-8.32-8.52l-1.65-1.67c-.98-.97-1.95-1.92-2.9-2.89-.65-.64-1.29-1.29-1.91-1.93a97.11 97.11 0 0 0-2.92-2.84l-2.3-1.95-.39-.34c-1.34-1.16-2.04-3.81-4.1-3.58a4.07 4.07 0 0 0-.92 3.63l-4.16-1.02Z"/><path fill="#2e1b18" stroke="#2e1b18" stroke-width=".09" opacity=".95" d="M704.94 321.03c3.25.04 6.56-.38 9.77.29 3.29.92 2.08 4.88 2.35 7.41l-2.46 1.94-.74-.75c2.23-1.82 3.09-5.37.7-7.44-2.14-.47-4.35-.35-6.51-.42l.11 2.14-3.22-3.17Z"/><path fill="#090403" stroke="#090403" stroke-width=".09" opacity=".06" d="M701.2 332.14c-.84-2.97-2.01-6.33.7-8.76.15 2.88.11 5.77.1 8.66l-.8.1Z"/></svg>