<?xml version="1.0" encoding="utf-8"?>
<!-- Generator: Adobe Illustrator 22.1.0, SVG Export Plug-In . SVG Version: 6.00 Build 0)  -->
<svg version="1.1" id="Layer_1" xmlns="http://www.w3.org/2000/svg" xmlns:xlink="http://www.w3.org/1999/xlink" x="0px" y="0px"
	 viewBox="0 0 644.4 230.6" style="enable-background:new 0 0 644.4 230.6;" xml:space="preserve">
<style type="text/css">
	.st0{fill:#FFFFFF;}
</style>
<path class="st0" d="M142.1,0c0.7,1.1,1.3,2.4,1.7,3.8c3.2,0.8,8.1-0.8,9.7,3h-2.8l-0.1,0.8h1.4c-0.5,2-1,3.9-1.3,5.9
	c0.8-1.6,1.4-3.3,2.3-4.9c0.8-1,1.4,0.7,2,1.2c2.3-2,5.6,0,8.3,0.3l-1.8-2.3l5.7,0.3c-1.3,0.6-2.6,1.4-3.7,2.3
	c3.5,0.4,6.8,1.9,10.4,2.4c1.6,2.9,1,6.2,1.1,9.4c0.2,3-2.2,5-3.7,7.3l4.3-3.2c-0.5,2.8-2.5,4.8-4.7,6.4h4.1l-1.2,4.4l-1.9,1
	l2.7,3.1c-1.7,0.5-3.8,1-3.2,3.4l-2.5-2.5l0.7,3.3c-1.8-0.8-3.7-1.6-5.4-2.6c1.8-1.1,4-1.7,5.2-3.6c-1.3-1-3-1.5-4.5-2l2.6-2.2
	l1.7,2.7l3.4-1.6l-2.4-3.2l-0.5,3.2l-3.7-2.8l-0.7,3.5h-3.7v0.6l2,0.8l-0.5,0.7l-0.5,0.5c0.3,0.5,1,1.4,1.2,2
	c-1.7,0.3-3.2-0.7-4.8-1.2c-4.4-3.7-10.4-4.4-15.2-7.4l-5.2,0.4l-1-3.7l-4.2,0.9l0.8-3c-1,0.8-1.8,1.7-2.6,2.6
	c-4.2-0.3-8.5-0.7-12.7-1.2l-0.7-3.4l-0.9,2.4l-2.6-0.5l0.6,2c-0.7-0.1-2-0.6-2.7-0.8c-4,1.5-8.1,3-12.4,3.2l0.8,1.7
	c-3.6,0.6-7,1.7-10.5,2.9c-0.7,2.3-3.2,2.8-5.1,3.5l-0.8-2.6c0.3,2.1,0.4,4.3,0.5,6.5L83,44.6c-0.1,1.7-0.5,3.5-1,5.2L78,50
	c-0.2,1.3-0.1,2.7-1.7,3.2c-1.2,1.7-3,3-4.5,4.4L69,63.7l-2.4-1.4c2.8,3,0.2,6.6,0.1,10c-1.9,1.6-2,3.9-2,6
	c-2.5,3.8-2.2,8.4-2.3,12.7l1.8-0.6l-2.3,1.5c-0.5,5.8-0.3,11.6,0.3,17.4l2.3-2l0.3,3.6l-2.7-0.3l2.2,4.6l2,1.9l-3,3.1
	c2.4-0.5,3.8,0.4,4.3,2.6l-4-0.4l2,2l-2.1,0.7c2.5,0.5,7.7,3.4,4.1,6l3.3,0.4c0,6.6,3.5,12.4,7.2,17.5l-1.3,1v1.3l2.7,1
	c0.3-1.7-0.2-3.9,1.7-4.7c-0.4,2.7-1.1,5.3-1.8,8l3.8,1.2l-1.8,1.5c2.2,0.2,4.5,0.6,6,2.4l2.4-1.3l0.7,2.5l1.6-2.2l-0.7,4l3.5,0.3
	l-0.3-1.7h1l0.5,4.8l2.1,1l-0.6,2.5h2l-0.2-1.5l3.8,0.7l-0.7-2.3l-3.6,1.6l-0.5-5.3c7.1,3.5,14.8,5.1,22.4,7c3.3,1,6.8,0.7,10.2,0.7
	c0,1.3-1.3,4.1,1,3.2c1.6,0.2,0.4-2,0.8-2.9c4.7-1,9.2,0.2,13.8,1.1c0.2-1.7,0.8-3.7-1.1-4.7l-0.5,2.3l-2.5,0.2l0.3-4.8l0.5,4.3
	l3-3.4l2-0.9l-1,2.7l3.4,1.2l-3.2,3.1l2.6,3.4l-1.6,1.2l2,3.8c0.5-1.6,1-3.3,2.2-4.8v6.7l0.8-4.9c1.1-2,1.8-4.3,2.7-6.4l-0.6-2
	c1.5-0.4,3-0.9,4.2-1.9l1.3-0.3l-1-1.9c-0.1-1.1,0.1-2.3,0.5-3.3l-0.8-1.3l0.3,2.2l-2.7-1.3l0.5,3.3c-2,0.2-4.8,1.4-4.7-1.8h2.6
	l0.6-3l-3.7,2.5c-0.5-3.3,3.3-4.2,5.6-5c-1.2-2.2-3.6-1.5-5.7-1.5l0.6,2.2l-5.5-0.4l-0.3-2.5l2.7,1.1l-0.6-3c1.4,0.4,2.7,1.1,4,1.9
	l1.8-0.8l-1.9-2c2-0.3,4-0.8,5.2-2.4l4.9-0.6c-2.9-0.6-5.3-2.3-7.2-4.4l-6-1.5c4.8-1.3,9.7-1.4,14.6-1.8v-1l-1.5,0.6l-6.6-0.7
	l-0.2-3.4c-1-1.5-1.7-3-2.5-4.5c0.9,0,2.6,0.3,3.4,0.4l-2.5-3l2.7-0.9c-2.6-0.3-5.1-0.5-7.7-0.6l-0.1,3.7l-1.2,0.1
	c0.1-1.1,0.5-2.3,0.2-3.4l-3-0.4l-0.2-6c-1.6-3.4-3-6.8-4.3-10.4l-2.2,1.5l-0.6-2.8l4.3-0.1l-2.7-1.2c-0.5-1.3-1.7-1.6-2.9-2
	c-0.2-2.3-2-3.4-4-4.1l0.7,4.6l-1.2,0.2l-0.1-5.2c-1.1,0.9-1.7,2.1-1.8,3.7c-1.8-2.5,0.2-5-0.5-7.7c1.4-0.5,3-0.7,4.5-0.6
	c-1-2-1.1-4,0-6l4.3,1.6v1l-4.4-1.2c1.4,1.3,3.1,2.6,3,4.7l2.7-2.3l2.3,3.3l0.3-8.4c0.5,2.3,1,4.7,3.7,5.3c-0.6-3.6,2.1-2.5,4-1.8
	l-0.2-2l4.2,2.2l0.8-1.5l1,2.5c3-0.1,5.9,0.3,8.6,1.5l-2-3.1c1.5-0.9,3.2-1.8,5.1-1.6h23.5c0,0.8-0.3,2.3-0.4,3l2.5,0.6
	c0.1-1.3-0.4-3.4,1.5-3.4l-1,4.7c1.8-1.2,3.7-2.1,5.8-2.7v-1.3h0.7c-0.7,2.1-1.4,4.3-0.4,6.4l0.2,1.2l2,2.8l-2-0.3
	c0.5,3.2,0.2,6.4-1,9.5l1,1.2l-0.2,3.7l-1.4-1.5c-0.6,0.9-1.6,1.5-2.7,1.7l0.6-0.1l-2,1.8l2.6-1.7l-0.5,3.4l1.2-3.4
	c2.6,1,2.4,4,3,6.3l-2,0.3l1.8,0.1c-0.2,6.1-0.9,12.4,0.9,18.4c-0.2,2.7-1.5,5.4-0.4,8l0.6,4.5l-1.1-0.3l1,3.9
	c-1.3,2.8-1.1,5.9-1.2,8.9c0,6.3-0.3,12.5-0.4,18.8l-4.2,0.5l4.4-0.2c0,2.9-1.7,3.9-4.1,3.9l1.8,3.5l-1.9-0.2l1.7,1.8l-2.4,0.7
	l1.1,3l5.3-0.2l-0.7,1.7l-2.3,0.3c0.4,1.5,1,3,1.4,4.7c-5.7,0.2-11.5,2-17.1,0.4l-4.6,0.3v-1.7h-2.8l-1-3.1c0,2.2-1.2,3.4-3.4,3.4
	l-0.7,3l-4.6,0.2l2.9-3l-5-1.7l0.3,3.3l-1-3c-3,0.9-6.7,0.9-9,3.5l1.5,2l-1.9-1l-6,1.5c-1.2-0.6-2.3-1.4-3.4-2.2v2.1l-4.2,0.1
	l2.7-2.1l-1.5-0.4c0.8-1,1.5-2,2.1-3.1c-1.5-0.7-3-1.5-3.7-3.2l-0.6-0.1c0.9,1.2,1.7,2.4,2.4,3.8c0,1.2-1.3,2.6-2.7,2.3l2.4,1.9
	c-1.6,0.2-3.1-0.1-4.5-1l1,2c-7.8,0-15.7,0.2-23.6,1l0.3-1.3c-3.1,0.3-6.3,0-8.8-2.2l-0.2,1.8c-4.7-1-9.4-1.6-14.2-2.1
	c-5.5-0.7-10.6-2.8-15.8-4.6l1-3.8c1.4,0.5,2.9,1,4.4,1.3l-0.6,3.1c1-1.2,1.3-2.7,1.7-4.2c-2.5,0.9-5.1-0.5-4.3-3.4
	c1-1.4,5.5-4.7,5.3-0.3l-4.1,0.9c0.8,0.5,1.6,1,2.4,1.7l1.6-2l2,1.9l-1.4-1.9c0.8-0.5,2-0.6,2.4-1.7h-0.5c-1.9,0.2-3-1.8-4.5-2.6
	l-3,1.5v-2.9l3.3-1.8l1.5,2c-0.6-1.6-1.1-3.1-1.3-4.8c-1.3,1.2-2.2,4-4.3,3.7c-0.6-2.1,1-4,1.8-5.9l-3.4,0.9l-0.2,5.6l0.7,0.4
	l1.8,1.8l-4-0.2l3.2,0.8l-1.6,0.9l0.5,1.7l-0.8,1c0.3,2.5,1.1,5.7-1.4,7.5l-0.3-1.6c-3.8,0-7.2-2-10.9-3l-1.8-5l0.5,4.3
	c-5.2-2.4-10.8-4.3-15.1-8.3h-1.2c-4.5-3.5-9.6-6.4-13.6-10.6l0.2-3.3l-1,2.6c-3-2.6-5.7-5.7-8-9c-0.5-1.1,1.2-1.7,1.7-2.5l0.5-1.5
	l-2.4-0.3l-0.1,3.5c-1.1-1.2-2.1-2.6-3-4c-2.6-2.9-4.6-6-6.6-9.2l-2.3-5.7l2.8,1.2l0.5-2.8l-3.6,1.3l-1.3,0.2c0-2.5-0.3-5-0.6-7.5
	c-2-2.8-1.7-7.5-5.2-8.9l3.7,0.1v-6.5l-1.6,2.6l-1.2-2.8l3.1-0.3l-0.7-2.1l1.4-2.5l-4.7-1.9c0.9-1.8,3.2-1.8,4.6-3l1.6-3.4H5.1
	l2.5-1l-3.4-5.3c3.3,0,2.7,3.7,3.6,6c3-0.1,3.2-2.4,3.2-4.7l4.2-1c-0.1-0.5-0.4-1.3-0.4-1.8l-3.7-0.5l2.5,1.8
	c-1.1,0.3-2.3,0.4-3.4,0.6c-1.2-1.3-2.4-2.5-3.7-3.6c-1.4-0.5-2.9-0.5-4.3-0.5l-1.9,1.8c-0.3-2.2,0-4.4,0.5-6.5
	c1.6,0.8,2.6,2.3,3.4,3.8h2l2.1,1.6l2-0.3c-1.3-2-3.6-2.7-5.7-3.7l4-0.9c-1.7-1.5-4.8-1.4-4.2-4.5L8.7,96l-3.3-0.3l0.5-1.8
	c-3.7-0.1-3.3-4.7-3.4-7.3l2.2,0.2L4.9,83c-2-1.2-2.3-3.5-2.7-5.5l4.4,0.3l-0.2-2.5l4.8,0.4l-3.5-0.8l-0.1-7.7L9.9,68
	c-2-1.2-0.8-3-0.2-4.5l2.9,0.1l1.4-5l1.1-0.6c-2.1-0.2-3-2.2-4-3.8l3-0.8l1,1.9c1.3-3.7,2-7.6,1.9-11.5l3,2c0-0.6-0.4-2-0.5-2.7
	c4-8.9,12.5-14.4,19.7-20.5l1.6,1.9l-2.1,4.7c1.3-0.6,2.5-1.3,3.6-2.3c1.3-0.6,2.6-1.3,4-1.8c-1.4-0.3-2.7-1.2-3.5-2.4l-2.4-0.8
	c2.6-1.8,5.3-3.4,8.2-4.6c3-1.8,6-3.6,9.4-4.6c1.1-0.3,2,0.7,3,1.1l0.7-1.5c0.8,1,1.7,2,2.7,2.8l1.3-3.3h3.4l-0.8-3.6L70,9.6
	c1.7-1.6,3.4,0.6,5.2,0.2l6.4-4.4v2.4L83.9,8l-0.3-3.2l3,0.2l4.3-1.5v3.8l-2.4-1.8l0.7,2h2c2-2.7,5.2-3.5,8.3-2.3l2-1.1l0.8,2.3
	l5.6-2l-0.2-2.5l2.7,0.1c0.6,1.1,1.4,2,2.4,2.8c0-0.7-0.3-2-0.4-2.7c10.3,1.2,20.7,0,31,1.7L142.1,0 M107.3,6.2l6.3,0.8l-3.4,1.7
	c1.7-0.4,4.1-0.2,4,2l0.7,0.1l-0.1-2.4l-1.2-3.6C111.6,5.1,107.4,2.8,107.3,6.2 M139.8,6.8c0.6,2,4.7,1.2,3-1
	C142,4.9,139.5,5.2,139.8,6.8 M78.6,13.4C79.1,14,79.1,14,78.6,13.4 M71.6,14.4c-0.8,1.4-2,2.4-3.6,3v3c1.5,0.4,3,0.8,4.7,1
	c1.2-2.4-0.9-3.2-2.8-4C70.6,16.5,71.2,15.5,71.6,14.4 M170.5,14.4C171,17.8,173.2,12.5,170.5,14.4 M57.7,25.4
	C58,28.7,60.5,23.6,57.7,25.4 M25.3,56.5C23.9,59.5,28.7,56.5,25.3,56.5 M147.8,96.2l-1.4,3.5c3.2-1,6.6-1.8,9.5-3.5h-8 M180.5,96.4
	C180.6,99.7,183.4,94.8,180.5,96.4 M12.2,115.2c-0.5,1.4,0,1.9,1.4,1.4C14.1,115.2,13.6,114.7,12.2,115.2 M28.6,119.2
	C29.1,119.9,29.1,119.9,28.6,119.2 M152.3,122.7c-1.2,1.2-2.5,2.3-4,3.2c2,0,3.8,0.2,5.7,0.5c-0.1-1.3-0.2-2.6-0.3-3.9L152.3,122.7
	 M26.7,140.7l0.2,4.8c1.1,1.4,2,2.9,3,4.4c0.7-1.1,1.5-2.3,2.9-2.5l-3.8-1c-0.6-1.8-0.3-3.8-0.4-5.7h-2 M78.6,160.5l2.8,3.4
	c-1.6-0.3-3.2-0.8-4.8-1.4l0.3,1.8l2.2,2.1v2.2l1.9,1.3l-1.5-1.5l0.9-3.2c1.5-1.7,4.6,0.7,6.6,0.9l-2.3-2.5l0.2-3.2l-5.6,0.3
	l0.6-3.9c-1.2,1-1.3,2.4-1.4,3.7 M76.5,158.5C77.1,158.9,77.1,158.9,76.5,158.5 M26.5,167.5c1.5-0.8,0.7-3.9-1-3.8
	C23.9,164.5,24.8,167.3,26.5,167.5 M87.5,164.5C85.7,167.3,90.8,164.8,87.5,164.5 M26.5,168.5C27.1,168.9,27.1,168.9,26.5,168.5
	 M157.3,175.5c1.3,0,1.8-0.8,1.6-2C157.7,172.3,155.5,175,157.3,175.5 M27.8,174.5c-0.9,0.8,0.3,2.9,1.5,2.2c1-0.9-0.2-3-1.5-2.3
	 M125,176.4c1.5-0.8,1.5-1.6,0-2.5C123.6,174.7,123.5,175.5,125,176.4 M135,174.4C133.7,177.6,138.4,174.4,135,174.4 M37.7,176.2
	C37.2,179.5,40.8,175.2,37.7,176.2 M40.5,177.5c0.6,1.2,1.3,1.2,2,0C42,176.2,41.3,176.2,40.5,177.5 M141.5,177.5
	C139.7,180.3,144.8,177.8,141.5,177.5 M147.7,180.2C146,183.2,151,180.4,147.7,180.2 M38.3,185.4C38.9,186,38.9,186,38.3,185.4
	 M85.8,193.4c0.1,1.4,0.8,1.7,2,0.8C87.6,192.8,86.9,192.5,85.8,193.4 M70.3,198.2C70.6,201.6,73.2,196.6,70.3,198.2 M183.7,202.2
	l1.3,3.9l2.1-0.5C187.3,203.3,185.8,202.3,183.7,202.2 M151.6,205.5c0.6,1.3,1.3,1.3,2,0C153,204.2,152.3,204.2,151.6,205.5
	 M103.6,207.2C103.7,210.6,106.5,205.6,103.6,207.2 M109.4,207.5C110,207.9,110,207.9,109.4,207.5z M210.5,6.6
	c1.1,0,1.8,1.3,2.7,1.8c2.4,1.3,1.2,3.3,0.1,5.1c2,0.7,4,0.1,6,0c-0.1-2.2,1.7-3.1,3.4-4l1.2,4.2c2.1-1.5,4.7-1.1,7.1-0.7
	c-1.1,1-2.4,1.7-3.6,2.5l2.5,2.3c-2.2,0.6-3.7-0.8-5-2.3l-3.3-1.1l0.6,6.2l-5.2-6.1l-1.4,1.4l-4.7-2.4l-1.3,1.5l0.6-3.1
	c0.7-0.7,1-1.6,0.9-2.5c-1.3-1.3-2,0.3-3,1.2l-4-2.1l4.2,0.2c0.7-0.7,1.4-1.4,2.2-2L210.5,6.6z M199.5,7.7c1.6-0.5,2.2,0,1.8,1.6
	C199.6,9.9,199.1,9.3,199.5,7.7z M492.6,9.4c1.9,0,3.4,1.6,3.5,3.4l2.3-3.3c1.8,0.4,3.6,0.9,5.4,1v0.9c1.5,0.3,3,0.6,4.3,1.3
	c-0.3,2.1-1.5,4-2.5,5.9l6.5,0.4c-0.6-2.3-1.5-4.6-1.2-7c1.7,0.1,3.5,0.5,5.2,0.7l-1.9,1c1.8,2.8,3.9,5.4,6.1,7.9
	c1.7-0.2,3.5-0.4,5.2-0.3l-5.5,1.6c1.7,3.3,4.8,5.7,6.5,9c1,2,3,3.4,4.5,5l-0.7,3.6l1.5-2.4c2,2.9,4.1,5.8,6.9,8
	c1.2,2,2.3,4.1,3.3,6.3l-3.7-2.7l-0.8,3.1h4.1c0.3,2.2,0.2,4.3,0.1,6.4h1.3v-2l3.7,0.6l3.6,4h-2.7l-0.3,2c1.7,0,3.5,0.2,5.2,0.5
	l-4.4,1.5c2.3,0.6,6.2-0.4,7,2.6c-1.3,1.4-2.7-0.1-3.9-0.9l1.8,3.6l1.1-1.9c1.9,0.8,3.5,1.9,4.8,3.5l-1.5,2c1.6,2.4,2,5.1,0.2,7.5
	l2.2,0.8v5.5c2.1,1.2,4.3,2.1,6.8,2.4l-2.2-1.3l1.6-4c-1.1,1.4-1.8,3-2.5,4.6l-2.6-1.8l-0.3-4.4c-1.1-1.6-1.2-3.3-0.1-4.8l-2-2.7
	c0.7-0.6,1.3-1.3,2-1.9c1.9,2.2,3.5,5,1.8,7.8l2-2.1c1.2,1,2.3,2.2,3.4,3.3c-1.6,0.2-3.2,0.4-4.8,0.8h4.9l3.1,4
	c1.7,2.1,3.2,4.3,5,6.3c0.8,2.2,2.3,0,3.4-0.5l1.4-0.9l-0.2,2.3l3-2.1c-1,1.4-2.4,2.5-4,3.2l-0.5-0.2c-3.4-0.8,0.4,2.4,1,3.5
	l3.7-1.9l-4,3.7c2-0.2,4-0.6,6-1c-1.3,0.6-2.6,1-4,1.5l0.1,5l1.8-3l2.4,4.2l2,0.4l3.5-1.5c0.7-3.6,3-8.7-0.8-11.4
	c2.6,0,1.7-2.6,1.7-4.3l2.2,0.3l-2-0.8l-2.3-2.5l5.4-0.4c-1.8-1.1-3.9-2.3-3.9-4.7h1.5c1.5,2.4,4.6,2,7,2.7l-0.1-0.6
	c-3.3-0.4-6.4-1.6-7.6-5l-2.8,4.2l-1.6-4.5l-3-1l3.5,0.6c1.3-0.4,3.8,0.4,3.6-1.7V62.6l4,0.4c-1.2-0.4-2.5-0.7-3.6-1.2
	c-0.5-2.8-1.6-6.6,1.2-8.4l-1.7,0.2L592,41.1l3.2,0.5l1.3-1.1l-4.6,0.2c-0.2-2-1.4-4-0.8-6c1-2.3-1-4.3-1.9-6.2c0-3-1.6-5.6-3.4-7.9
	l-1.9-0.7c-1-1.9-1.5-4.4-3.5-5.5l-2.5,2.6c0-1,0.1-2,0.3-2.9c2.4-0.6,4.9-0.6,7.4-0.8l0.1-3.1c0.8,1.5,1.6,3.2,3.4,3.9l-0.6,1.9
	l-2.8-1.8v1.6l3.6,1l-1.8,2.9l0.8,0.1c1.2-2.4,3-4.4,4-7c2.3,1.5,1.5,4.3,1.6,6.4l2.4,1.2l4-0.8c-1.8,0.1-3.8,0.6-5.4-0.4
	c1.2-1.8,1-3.7-0.3-5.5c5.6,0.4,10.6-2.4,16.2-2l0.2,2.1c3.5,0,7.8-1.6,10.3,1.8l-3,0.9h3l1.7,2l-1.2-1.8l-0.2-3.3
	c5,0.2,10,0.2,14.9,0.1l2.4-2.5l-1.7,2.8c1.8,0,3.7-0.5,4.8-2l-0.3,2.1l2.7-2.4l-3.3,4.3l-1.4-0.2c-1,2-2,4-3.3,5.8l-2.6-3.3
	l2.5-0.3l-0.8-2.8c-1.3,1.6-2.8,2.1-4.3,0.5c1.3,1.3,2.6,2.8,1.6,4.7l2.1,1.5l0.2,3.4l-4.5-0.6l-4,1.5l1,3.2c0.3-0.4,1-1.3,1.2-1.8
	h3.8c0.3,1.7-0.7,3.1-1.3,4.5l-5.5-0.4l-1.5-2.3c-3,3,1,6.8-0.8,10.1c-1.6,0.6-3.1-0.3-4.6-0.6c1.7,1.4,3.3,2.8,4.6,4.4
	c-1.6,1.1-4.3,1.1-5.2,3.1c0.3,1.7,2.4,1.9,3.3,3.2c-1.2,0.7-2.6,0.3-3.9,0.4l-0.3,0.9l6.7,1.6c-0.5,1.3-1.8,2.5-1.3,4l2.4,0.5
	c-1,2.2-2,4.4-2.8,6.7h3.8l-1.6,2.2l5.6,0.9c-0.1,5.4-0.3,10.8-0.2,16.1l4.6-0.3c-2,0.5-4,1.1-5.1,2.8l0.8,2.8l-1.9,3.6l1.9,1h-2
	l-0.8,1.3c-1,1.5-1.8,3-2.8,4.3l2.2-0.7l0.2-2.6l2.8-1c0,5.4,0.5,10.9-1.1,16l1.6,0.5l-1.5,1.9c1.4,3.5,0.2,7.7,1.9,11
	c-1.1,1.4-1,3.2-1,4.8l-5.8-0.2c2,0.8,4,1.4,6,2v6l-3-0.5l2,1.5l1.3,5.7h-3.4c0.8,0,2.3,0.4,3,0.6l0.1,8.5l-4.2-2.4l1.4,2.1l2.7,1.6
	l-0.1,8.8l-3.3-0.5c2,1,2.8,3,2.6,5.3l-4-4l-1.8,1h2.1l2.5,3.8l-3.8,0.3l-1.3-1.2c0.2,1.1,0.4,2.2,0.8,3.3c1-0.6,2-1.8,3.4-1.5
	l-0.1,1.6c2.5-1,4.4-3,6.6-4.6c-1.1,1.4-2.3,2.6-3.6,3.8v15c0.5,2-2,2.2-3.1,3l3.8-0.1l-3.3,3.2l2.7-0.6c0.2,5.9-1.4,12.3,2.2,17.4
	l-3-2c-0.6-1.1-1.4-1.5-2.6-1.1c-0.6,1.1-0.7,2.4-0.3,3.6l1.3-1.7l1.6-0.8c0.8,3.3,1,6.7,1,10.1l-3.6-2l2.6-1.1
	c0-1.1-0.7-1.7-2.2-1.7l-0.7-2.5c-1.6-0.8-3,0-4,1.3l3.2,1.8c-1.5,0.7-2.1,1.7-1.9,3l3.3,2.9l-2.6-0.3c0,1.8-0.7,4,0.3,5.6h0.5
	l1-4.6c2.7-0.4,3.9,1.6,4.4,4l-2,1.1l2.1,2l-5.7,0.7c0.8-1.3,0.6-2-0.5-2.1l-2,0.5l0.1-2.7c-2.2,3.2-6.2,2.6-9.6,2.8
	c0.3,2.3,1,4.5,1.2,6.8h-2.2c0.2-3.1,1-6,1-9l3-3.2l2.5,1.9l-3.2,1.7c1.4,0.3,2.8,1,4.2,0.2c0.6-2.3-0.9-4.5-1-6.8l2-1.7l1.7,2.7
	l-2,2l2.6,0.1c0.5-1.5,0.3-3-0.1-4.4c-1.7-0.9-3.1-2.4-3.8-4.2c0.5,2,0,3.5-1.2,4.8l-2.7-3.9l-2.1-0.3c0.7,1.6,1.7,3.2,2.6,4.8
	l-3,0.7l-1.5-4.8l0.2,2l1,3.8c-2.4-0.2-4.8-0.2-7.2-0.1c-0.2-2.2,0.8-5.6-2.5-5.5l-1.3,3.3l-0.3-3.2l-1.6,0.3c-1-2.2-3.2-3-5.1-4.1
	c-1.8-1.6-1.2-4.3-1-6.4l-3,2l-6-7.3l-0.2-2.3c-2.2-1.2-4.1-2.7-5.8-4.5l-2.4-0.3l-0.2-4.7l2.6,0.8c-1.5,1.6-1.8,3.5,0.7,3.8l-1-2.3
	l1.6-0.1l1.5,4.1l3.1,0.5l1.4-5.1l-3.3,2.4l-0.3-5.1l4.5,0.7l-5-1.6l-1.6-2.2v3.5l-4.4,0.2c-6.2-4.3-10.2-10.8-14.9-16.5l2.9-2.1
	l-3.8,0.9c-2.2-2.5-4.2-5.1-6-7.8l3.1-0.8l-3.5,0.4c-1.7-2.1-3.3-4.2-4.6-6.6l-3.2,0.7l2.2-1.6l-2.5-2c1.7-2,1.2-5.5-1.3-6.8v4.7
	l-3.7-5.5h3.1v-1l-5-1.4l-1-4.3c-1.5-1-3.2-1.6-5-1.8c0.7-1.3,1.8-2.3,3-3.1l-2-0.7l-0.7,2.9c-2-2.6-3.8-5.4-5.6-8l-0.9,2.2
	c-1.3,0-2.6,0.1-3.9,0.2l-1.5-2.6l1.5-1l-0.3,2.4c1.4-0.7,3-1.4,4.3-2.2c-3.1-3.4-5.9-7.2-9-10.7l-3.3,0.1c2.3-2,0.3-4.2-0.8-6.2
	c1.5,0.3,3,0.2,4.7,0c1.5,1,1.6,2.8,1.3,4.5l0.7-2c-0.8-1.3-1.7-2.7-2-4.2c-1,0.7-2,0.8-3,0.3c-2.2-2.7-2.3,2.5-3.3,3.8l-2.2-2.2
	l0.5,4.3l2.4-0.7v3.2c-1.8-1-3.5-1.7-5.3-2.4l1.5,2.4c-1.4,1.2-3.6,2.4-1.2,4l-4.1,1l0.7-1.4c0.1-1.3,0.5-2.5,1-3.7l0.7-2.2
	l-1.8,0.7c-3-1.1-6.4-1.8-9.7-1.6c0.3,3,0.3,6.1-0.8,9l1.6,2c0,0.9,0.2,1.6,0.3,2.4c-0.8,1.9-1.2,3.9-1.6,5.9l1.9-0.2l-0.5,3h-1.6
	c-1.6,6.2,0,12.5-0.4,18.7c0.2,1.7-0.8,3-1.6,4.2c2,1.4,1.7,3.8,1.1,5.8l1,6l-4.2,1l4.8-0.1l0.6,4.9h-1.9l2,0.8
	c1.3,3.9,2.9,7.7,5,11.2h3l-2.1,0.7c0.8,1.8,3,3.1,2.8,5.3l-1.1,0.8l1,2l1.4-1.5c1.5-0.1,2.5,1.8,3.8,2.5l-3,2.7
	c-1-3-4.5-1.5-6.8-1.8c0.2,3.6-6.6,4.5-7,0.9l3.3-0.5l-10.6-0.8l-2,3l-0.9-2.7l-3.4-0.4l-0.2,1.8l-2.5-1.8l-0.3,3.6h-3v-3.2
	c-4.3,0-8.7-0.6-12.9-1.9l-0.9,2.1c-1.4-0.8-2.8-1.6-4.1-2.5c1.6,0,3.2,0.2,4.8,0.4l1.2-3l-0.6,2.8l5.4,0.6l-3.4-4.7l-1.5,0.5
	l-2.3-2l0.7,3.4l-5-1.4c-1.3,0.6-2.8,1-4.2,1.2c2.5-2.5,5.6-4.3,9.2-4.7c-1.6-1.8-3.8-2.8-6.1-3c0.8-1,1.8-1.5,2.8-2l2.2-1l-1.4,0.3
	v-4.8h-1l-0.3,2.6c-1.4-0.5-1.9-1.6-1.5-3.3c1.5-0.7,5.8,0,4-2.6l-2.4,0.2c1-11.4,1.3-22.8,1-34.2l3.5-1.5l-0.7-2l3.1-0.3
	c-1.7-1-3-2.1-1.2-4l-2.2,2.2c-1.3-1.2-2.3-2.7-3-4.3l7.2-0.7l-1.6-3c-1.7-0.4-3.4-1-5-1.6v-3.8l-3.3-0.5l4-0.2
	c-0.3-0.7-1-2.1-1.2-2.9l0.5-6.2l4.6-0.2c-0.2-1.2-0.4-2.5-0.8-3.8c-1.6-1.4-3.2-2.9-4.3-4.7l3.6,1.1l0.4-3.2h-3.6
	c0.6-5.1,0.1-10.3,0.3-15.4c2,0,3.9-0.4,5.8-1l-3.7-0.3l2.5-2l-2-2.1l-2.8,4.3l0.3-5.9l-2.2-1c-1-1,0.7-0.9,1.3-0.9
	c1.1-0.4,2-1.2,3-2l2.6-1.1l-5,0.1v-2c2.4,0,5,0.1,7.3-0.7h-4.3v-2.6l-2.1,0.9c0.2-4.3,0.5-8.8-1.2-12.8l4.3-0.5l-4-0.3v-4.1
	l1.4,0.2c-0.3-1.5-1.5-3.1-0.6-4.5l0.5-0.8l-1-0.1c-0.6-2-0.9-4.3-1.9-6.2c-1.9-0.4-2.9,1.9-4.3,2.8l1.2-3.3c1-0.1,2-0.5,2.7-1.2
	c0.6-1.2,0.2-2.5,0.3-3.8l-2.7-3.5h5.9l-5.8-0.5c-3.1-5.7-6.8-11.1-11-16h4.4l-0.2,1.7c2,0.4,3.9,1,5.8,1.6l0.5,3l3.6-0.1l1.3-3.1
	h3.5c3.1,0.4,6.2-2.6,9.1-0.4c2.5-0.9,5.1-1,7.8-0.8l-2.4,5l3.6,1.3l1.3-1.7l0.1,2.1l4,2.8v-2c2.3-0.3,3.4-2.2,4.6-4
	c0.4-2.2,1-4.4,1.6-6.7l0.5,3.4l4.2-2l-1.2-2.4 M490.5,14.8l1.3,4l-4.3-1.4l1,3.5c3.4-0.2,7-0.3,10.4,0.1l-0.3-3.3h-3.3l-1.8,1.6
	l1.4-1.9c0-0.8-0.3-2.4-0.4-3.1L490.5,14.8 M489.2,22.7c-1.6,1.5,2.2,3.3,2.8,1.3C492.2,22.6,490.2,22,489.2,22.7 M524.7,33.2
	C525,36.5,527.5,31.4,524.7,33.2 M609.3,35.6l-2.8,0.4c1.5,2.3,4.6,1.3,7,1.7c2,0.7,3.3-1.1,4.8-2.1l-6.4-0.7v-1.7L609.3,35.6
	 M523.5,36.4C523.5,39.7,526.5,35,523.5,36.4 M524.1,39.7c0.2-1.2-0.3-1.9-1.6-2C520.5,38.3,522.9,40.9,524.1,39.7 M617.5,38.3
	C618,38.8,618,38.8,617.5,38.3 M528.5,39.3C529.1,39.9,529.1,39.9,528.5,39.3 M610.5,40.2l1.4,2l4,1.6l-0.1-3
	C613.8,41.8,612.1,41.3,610.5,40.2 M596.4,42.4C594.8,45.4,599.8,42.6,596.4,42.4 M609.9,46c1.3,0.9,2.8,1.4,4.3,1.5
	c1.3,0,4.4,1.2,3-1.3C615.2,44.9,612.2,46.2,609.9,46 M622.5,58.5C623.1,59,623.1,59,622.5,58.5 M596.6,64.9l0.1,2.4l-2.6-1l2.4,4
	l1.5-3.8L596.6,64.9 M550.3,75.7c-0.5,1.4,0,2,1.4,1.6C552.2,75.9,551.7,75.4,550.3,75.7 M594.5,75.5
	C595.1,75.9,595.1,75.9,594.5,75.5 M497.3,86.8l-1.4,5.4c-0.1,2.4-0.2,4.9-1,7.2c-0.3,2-0.9,4-1.5,5.8l2.6,1.2l-3.2,1.6
	c3.5,0.3,7.2,2.4,10.5,0.6l-1.8-1.9l2-3l-2.4,0.3l0.8-2.7l2.9,2l0.2-2.7l-8.4,0.6l1.5-3c1.3,1.9,3.4,1,5.2,1c1.9-0.3,3.4,1,4.9,2
	l-0.3-3.5l-3.5-1l-3.4-0.3l2.5-3.2c-2.6,0-3.3,2.6-4.4,4.4C500.1,93.9,500.7,89.5,497.3,86.8 M568.8,90.8l-1.5,1.1c2,0.6,4,1,6,1
	l-5.4-6c-0.4,1.4,0,2.7,0.9,3.8 M563.3,92.2l-0.9,4.7l1.9,1v-0.4l-0.9-2.7l5.3,0.1l-1.7,2.3l1.6,1.6l-3,0.8c2.8,2.7,6.1,4.9,9.7,6.4
	l-1.8-3.2l-2.8-1.5l0.5-3.2l-2,1l1-4.1l-7-2.8 M571.6,96.2l3,1.3l-3.3,1.5l5.4,2.4c-0.7-2.7-1.5-5.4-2.4-8L571.6,96.2 M576.7,103.9
	c1.1,0.6,3-0.2,3-1.6C579.1,100.3,575.7,102.3,576.7,103.9 M506,103.2c1.2,1.3,2.9,1.6,4.4,2l-0.4-2.7L506,103.2 M570,106.2
	c0.7,1.4,1.4,1.4,2.2,0.2c-0.7-1.3-1.4-1.3-2.2-0.1 M507.2,106.4C505.5,109.4,510.5,106.7,507.2,106.4 M461.6,107.1
	C461.8,110.5,464.6,105.5,461.6,107.1 M579.3,109c1.3-0.8,1.3-1.5,0-2.1C578,107.6,578,108.4,579.3,109 M458.3,113.3
	c-0.4,1,1.5,3.3,2,1.4C460.7,113.7,458.8,111.3,458.3,113.3 M489.5,114.5C487.7,117.3,492.9,114.9,489.5,114.5 M461.5,118.5
	C462.1,119,462.1,119,461.5,118.5 M480.5,118.5C481.1,119,481.1,119,480.5,118.5 M626.5,121.9c1.2-0.6,1.2-1.3,0-2.1
	C625.2,120.4,625.2,121.1,626.5,121.9 M459.6,128.4C460,129,460,129,459.6,128.4 M482.7,130.4c-0.7,1.2,1.2,2.8,2.1,1.8
	c0.7-1.2-1-2.7-2-1.7 M624.8,145.2c-1,1.5,1.1,3.3,2.5,2.1c1.3-1.1-1.4-3-2.5-2 M463.4,159.4C464,159.8,464,159.8,463.4,159.4
	 M622.6,159.4c0.2,1.4,0.9,1.6,2,0.6C624.3,158.7,623.6,158.4,622.6,159.4 M570.4,177.4C571,177.9,571,177.9,570.4,177.4
	 M588.4,194.4C589.1,194.9,589.1,194.9,588.4,194.4 M588.1,198.4c2.7-0.3,5.1-2,6.4-4.4C591.8,194.4,589.7,196.3,588.1,198.4
	 M594.5,196.3C594.9,196.9,594.9,196.9,594.5,196.3 M596.2,203.2l1.8-2.8h-1.6l0.3-3C595.2,199.1,595.9,201.2,596.2,203.2
	 M599,201.7l-0.4,4.5c-1-0.8-2.2-1.5-3.3-2.2l4.9,4.8l2.2-1.6l2.2,2v-6.6l-2.8-0.1l-0.3,3.3C600.5,204.5,599.8,203.1,599,201.7
	L599,201.7z M609.6,9.5C610.1,10.1,610.1,10.1,609.6,9.5z"/>
<path class="st0" d="M333.5,11.2c3.2,1.1,7.4,1.3,9,5l2.8,1.6l1.6-1c0-1-0.3-2.6-0.4-3.5l4.5,1l-0.3,2.8l2.4-0.6v1l-2.6,1.6
	c1,1.3,2.3,2.5,2.9,4c-0.5,1-1.3,1.2-2.4,1l-1.4-2l0.1,4l-3,1.5c2.1-0.2,4.2,0.3,6.1,1.2c1-1.3,1.1-3,1.7-4.4
	c1.6-0.4,2.1,1.8,3.2,2.6c-0.9,2-1.1,4.5,0.9,6l-0.1-4.5l1.7,0.6l2.9-3.4l-2.5-1.5c0.7-1.3,3-2.1,2.6-3.9c-1-1.2-2-3.5-4-2.7
	l-2.5,2.8c-0.4-1.8,0.6-3.3,1.2-4.9l3.4,1.7l2.5,0.3l-0.2,6.5c2-0.1,4.5-0.8,6.2,0.8l3-0.4l0.5,1.8l1.8-1.1l-0.4,2l3.5-0.4l0.5-2
	l2-2.2c-0.7,0-2,0.3-2.7,0.4v-1.5h3.5c-0.8,2.7-1.7,5.3-1.6,8c1-0.7,1.6-1.6,2-2.7l3.4-4h4.3c-0.5-2.4,0.4-4.9,2.2-6.5l-3.5,2.3
	l0.6-4.3l-2,2.2c-0.2-1.8-0.2-3.6-0.2-5.4h3.7l1.3,3.2l-0.3-3.3L401,11l-0.4,2l4-0.6l1.1,1.8l1-2.7c4,0.3,7.9,0.1,11.8,0
	c-2.5,3.5-4.9,7.3-7.7,10.6l-0.5,2.4l-3.4,0.3l-0.4,4.7l3.7,1.2c1.1-1.2,2.1-2.6,3.1-4l1.5,2h-1c-0.4,3.5-4.5,2-6.8,2.3l1.6,3
	l-1.9-0.7l-0.3,5l3.8-2.3l-2,5l-0.7-2.3c-2.2,1.1-2.3,4.4-1.1,6.3l1.3,0.2c0-0.8,0.3-2.3,0.4-3c0.2,1.4,0.5,2.9,0.9,4.3
	c-0.9-0.5-1.8-0.6-2.7-0.4c-2.6,6.2-0.8,13.5-2.3,20c0.6,2.8,1.1,6-0.3,8.5c-0.1,2,0.4,3.9,1.1,5.7c-3,0.1-1.3-5-4.2-3.8l0.3,3.3
	l-1.8-2.9c-1.3,1.1-1.5,2.7-1.3,4.3l-3,1.6l2.4-1l2.7,0.3l0.1-1.8l5,1.3l-0.4,3.2h-2.3l-2.3,4.4l1.8-1.8l0.8,3.3
	c0.8-0.8,1.6-1.7,2.4-2.5c-0.6,2-2,3.9-1.3,6c1.3,5,0.8,10.2,0.9,15.4c-1.7,0.1-3.3,0.4-5,0.6c1.6,1.7,4.8,0.6,5.7,3.2l-3.8,0.1
	l3.3,0.7l-0.3,21l-0.8,2.4l1.3,1.7l-1.1,1.4c1,1.7,0.8,3.4-0.5,4.9l1.4,1.3c-0.9,1.5-1,3.2-1,4.8l-2.6,0.6l2.4,0.3
	c0.8,1.9,1.1,3.9,1.2,6l-2.9,0.2c0,2.4-0.4,4.8-3.5,4.5c0.2-1.7,0.5-3.4,1.2-5l-1.7,0.5l-0.1,5l4-0.1l-0.3,3l3,1.1l0.7,4.6l-2,1.7
	l3-1c-0.2,1.9-0.3,3.7-0.8,5.5h-3.1l2,1l-1.4,1c1.2,2.2,1,4.6,1,7l3.5-0.1l-1.4,2.1l-0.2,2.4c1.3-1,2.8-2.2,4.3-0.8l-0.4,3.2
	l2.6-1.1v1.6c-3.9,0-7.9,0.2-11.8-0.8l-3-0.2l0.2-0.8c1.9-0.4,2.6-2,3.1-3.5c-1-1-0.8-2.2,0.1-3.2l-2.5,0.3l1.6,2.2l-1.7,2
	c-1.3-1.1-2.8-2-4.3-2.6l0.2,4c-3,2.5-7,1.6-10.5,1.6l-1.4-2.5l-1.5,1.6c-2.6-1.1-6.5-2.5-9-0.4l5.3,0.4l-5.8,2.2l-0.8-2.8l-3.5,3
	c1.1-3.2-2-4.6-3.9-6.5v3.4l1.7,2.6h-4c0-2.2-0.4-4.3-0.8-6.5l-1.7,0.7l-1,1.7c-1.4,1.2-2.7,2.5-4,3.8c-1.3,0-2.8,0.5-3.9-0.3
	c-0.7-1-1.4-2-2-3.2c3.3,0,2.9-3.7,3.3-6c0-1.7,1-3.2,1.7-4.7l-4.1,0.5l1-4.3l-4,1.6l1.9,1.5l-1.8,1.3c-2,3.5-7.2,4.1-9.6,0.6
	c0.7-2.2,0.2-4-2.1-4.5c0.6,2.2,1.1,4.4,1.5,6.7l-5-0.2c0.8,1.4,1.9,2.7,3.3,3.7l-6-2l0.3,3.8c-0.8-0.6-1.6-1.1-2.4-1.7l-2.8,0.5
	c-1.1-0.6-2.3-1.2-3.4-1.8c1.1,2.6-2.5,5.2-3.8,2.3c-1.5,2-4,1.3-6,1.5c0.7,0.5,2.2,1.6,3,2l-2.6,3.4l5.8-1l0.3-2.2
	c2.4-0.5,4.2-2,5.6-4c0.2,1.4,0.8,2.5,1.9,3.2l1.4-2.8l3,3.4c-3.5,1-8.5-2-10.8,1.9l6-0.2c-3.3,2.5-7.3,3.7-11.4,3.3
	c-3.6-1.3-3.4-5.2-4.4-8.2l-0.3,3.6l-2.1-1.4l-2.3,0.6c1.9,0.1,3.6,0.8,5.4,1.5l-2.5,2.8c-2-0.2-4,0.3-5.9,1c-0.6-1.9-1.7-3.5-3-4.9
	c0.4,2,1,4,1.7,6c-1.4-0.1-2.7-0.4-4.1-0.6l-0.6,1.8l-3-2l2.2-2.2h-4.4l2.3,2.5c-2.8,0.9-5.6,0-8.2-1l0.4,2.4l-2.7-0.3l0.2-2
	l-2.5-0.3v1.4l-6,0.4l-0.9,3.1l0.4-3.8l-2.6,0.3l0.6-2.4l-3.5,1.3l0.3-2.2l-2,1.2c0-1.6-0.2-3.1-0.3-4.7l-3.8-1.1
	c-0.1,2,0.3,3.9,2.4,4.6c-3.4-1-6.5-2.5-9.2-4.7l-2.3-4.6v3.2L248,186l-0.4-4.2c2.6,0,5,1.1,7.1,2.4c-1-3.9-5.6-2.3-8.5-2.5
	c-0.1-1.8-1.4-3-2.6-4.1l3.5-0.8v-1.2c-2.2,0.7-4.4,1.2-6.7,1.7c-1.2-1.8-2.6-3.5-3.6-5.5c-1-1.7,1-3.3,2-4.4c0.2,2.4,0.7,4.8,1.3,7
	l1-0.8c-2.1-1.8-1.3-4.8-1.3-7.2l-4.5,2.8c-2.5-8-5.6-16.5-4.7-25c0.7,0.5,1.3,1.2,1.7,2l-0.1-3.1l-1.6-0.2
	c-1.1-5.3-0.4-10.8-0.6-16.3l3.5,0.6l-0.7-2.5l-2.5,0.4l0.6-5.8l3.5,2l-2.8-2.7l2.7-0.9h-2.2L231,115l-1.2-2.8l3.5-3l-1.3-2.6
	l-2,0.3l-0.3-2.3l2.6,0.1c-0.6-1.7-1.5-3.2-2.5-4.7l3.3-0.8l-3.6-4l3.4,1l-0.2-3.2c-1.5-0.3-3,0.3-4.4,0.7l0.7-3.2
	c4.1-0.8,8.3-1,12.4-1l-4.2-0.7l1.9-4l-5-1l1.1-2.9l-3-0.2l-2.4-3.1l1-3.1c-1.8-3.8-0.2-8,0.3-11.8h3c-0.8-0.5-1.7-1-2.5-1.7
	l0.4-1.5l-1.3-1v-3.4l-0.4-4.5c0.8,1.2,1.4,2.5,2,3.9l1-5.2l-2.7,1v-2.5l2,0.4l-3-3l2.5-0.7c-1.1-2.4-2.6-4.6-3.4-7
	c0.7-1,1.6-1.8,2.4-2.7c-3.1,0.6-2.1-2.8-2.4-4.7c-2.3-0.2-3-2-3.3-4.1l2.9,0.1l-0.5,1.9l3.2-0.1l-0.5-1.5l2.1-1.5l1.3-4.2
	c1.4,0,2.9-0.7,4.3-0.3c2,2-0.7,1.8-2.4,2v2.3l0.9-1.3c1.4-1,3,0.2,4.5,0.5l-2-1.6c0.8-1.9,2-3.4,4.3-2.9l-3.1-0.7l-1,0.4l-3.1,0.9
	l-1.5-2.2h-2.5l2.1,2.4l-4.1,2l1.9,2.4l-3.4,1.7c-1-2.2-2.4-4.3-3.9-6.3c1.9-0.8,4.7-0.6,5.4-2.8c0.6-1.9,3-1.3,4.4-2l-4.4-1
	c1.7-1.3,4-0.8,6-0.8c3.9,0.2,7.8-0.1,11.7,0.2c0,2.3-0.2,4.5,0.2,6.8l0.7-6.9c2.4,0.4,6-0.7,6.1,2.8c0.5-1.4,0.8-3.1,2.7-2.3
	c0,1,0.2,2.2,0.4,3.3l2.4-3.4l0.4,4.4l5.5,2c-1.3-0.8-2.7-1.6-3.1-3.3l3,0.9l-2-4.4l5.7,1.2c-0.5,2.3-1.1,4.6-0.6,6.9l0.3-3l5.6,1.3
	c0.2-1.5,0.3-3,0.3-4.6l2.8,0.7l2.4-1.9l-0.2,3l4.4-1.8l-0.3,2.7l2.6,0.2c-0.5,0.5-1.3,1.7-1.7,2.3l2.7-2.3l-2.6-2.6
	c1.8,0,3.5,0.4,5,1.3l2.5,0.3c-1.1-1.2-2.2-2.3-3.2-3.6c3,0.5,6-0.2,9-0.8l1,1.2l-2.4,2.3l3.5,2c-0.8,1-1.2,2.7-2.7,2.8
	c-0.6-1.2-1-2.4-1.5-3.7c-1.9,3-3.7,6-5.9,8.7c-0.6,2.9-1.4,5.7-3,8.2l0.1,3.5c0.8,0,2.3-0.3,3-0.4l-0.3,2.6l-3-1.6v5.7l-2.4-0.7
	l-1.6,1.2c1.6,0.4,3.3,0.8,4.1,2.4l-5.6-0.7c1.5,1.1,2.9,2.4,4,3.9l-0.3-1.7l2.8-0.1l-1.5,3.3l-1.2,2.2c1.6,0.7,1.6,2.2,1.6,3.7
	l1.4,1.5l-2.3,3l-2-1.5c2.3,3.1-1.8,4.6-3.5,6.5l-3.1-0.7c1,0.5,2,1,3.2,1.4c1-1.6,2.6-2.7,4.3-3.6l0.3-2c3.4,1,0,6.2,3.8,7
	c-1.5,2.3-3.2,4.8-3.1,7.8h-2.6l3.5,1l0.1,7l-3.3-1.8l0.2,1c2,0.7,2.9,2.4,3.1,4.5c0.4,0,1.1,0.4,1.5,0.5l-1.4,0.4
	c-0.2,1.9-0.5,3.9-0.9,5.8c1,4.1-0.1,8.4,0.8,12.6c-1.7,1.1-3.3,2.4-4.8,3.7l4.5-2.5c0.2,2.2,0.5,4.5,0.4,6.7c-1.6,1.3-4,0.4-6,0.8
	l5.4,1.3l0.6,5.7l-2.5-0.6l2.1,3.9l-3.9-0.4l0.5-2.2c-0.7,0.7-1.6,1.3-2.5,1.6c-1.6-1.8,1-3,2.5-3.2l-0.1-4l-1.5,3.5l-2.8,0.1
	l0.5,2.6l-2,1c2.4,1.7,6.2,0,7.7,2.8l-3.5-0.1l3.4,1.3l0.7-3l0.3,2.6l2.7,1l-2,0.2l0.3,7.2c-1.1,1-2.3,2-3.3,3.1l3.3-1.8l0.5,3.7
	l-1.6-0.5c2,2,3,4.6,3.7,7.3l-3.2-0.2l2.9,0.6c-1,2.4-1.5,5-2.2,7.4l-2.3,1.3l1.2,2.5c1.4-2.2,2.6-4.5,3.6-6.8c1.3,0.5,2.7,0.8,4,1
	c3,2.7,8.4,3.5,8.7,8c1.7,0.9,0.7,2-0.2,3l2.5,1.6l-4.1,0.7c2.3,0.4,4.7,0.8,7,1.5l1.6,0.5c3-1.9,6.4-2.9,9.6-4.3h2.8l-4.3-3.2
	l-0.8,1.4l2.4,1.3l-4.9,2.1l0.2-2.7l-2,0.3c-1.3-2.1-3.7-3-5.7-4.2l3.9,1c4,0.2,8.2,0,12.2,0.3c1.7,0.7,3,1.8,4.6,2.7l-2.5-3.3
	c1.7-0.2,3.3-0.3,4.8,0.5l-1.9,3.6l2.8-2.4l-1.5-2.1l4.2-1.4l0.2,3.4c2.5,0,5,0,7.5-0.2l0.6,3.9c0-1.6-0.3-3.3-0.4-5
	c2.2,0.8,3.3-0.7,4-2.5l-2.8,2.4c-0.9-2.2-1.6-4.4-2.3-6.6l1.9-1.3c0.8-1.3,1.9-2.5,3-3.6c2-6.6,1.8-13.5,1.7-20.3l-2.6,0.7l0.3,1.8
	l-0.5-1.6c1.4-1.5,4-3,2.9-5.5l-1.6-0.5c0.7-1.1,1.3-2.3,1.8-3.5c1.7,1.1,2.7,3,2.6,5l0.7-2.6c-0.5-1.2-1-2.5,0-3.5h-1.6l0.6-1.8
	l-3.4-2l3.3-1.8l-2.6-1l2-3l2.2,1.3l2,0.5c-1.4-2.2-2-5,0-7l-2,0.8c0-2-0.5-4.4-2.8-5l-1.4,1.7l-2-0.6l-0.2,1.8l-1.1-1l-0.1-2.9
	l1.4,2c1.9-0.6,3.6-1.5,5.6-1.7l-3.7-3v-3c2.4-1,3.4-3.6,5-5.5l-3.7-1.3l2,2.8l-3,3.1v-5.2c0.7-1.5,0.2-2.9-0.6-4.2
	c0.8-1,2.2,0.3,3.2,0c-0.2-1.1-0.7-2.3-1.2-3.3l3.8-0.4c-1.2-0.6-2.5-1.2-3.7-1.8l-1.6,0.5l-0.1-1.4l5.7,0.2c-1.3-2.4-3.7-2-6-2
	c-0.3-3.7,1.2-7.7-1-11c1.4,0,2.9,0,4.4-0.2l-0.7-2.7l1.6,0.6c0.3,0,0.8,0.3,1,0.4l3.1-1.1l-1.5-0.8c-1.7-0.7-3.6-0.4-5.4-0.5V63
	h-3.9h0.2l3.4-2.2c-1.6-2.7-0.2-5.7-0.3-8.5l3,1l1.3-3l-2.4,1l-2.4-3c-0.3-2.2-0.8-4.4-1.6-6.4c1.7-0.1,3.4-0.3,2.1-2.3
	c-2.1-0.7-2.8,1.6-3.8,3l-1.3-4.7c1.2-0.2,2.3-0.6,3.4-1.1h-4.3c0.5-2.6,0.2-5.2-0.3-7.8c1,1.8,2.2,3.4,3.7,4.8
	c-1.2-3.3-2.3-6.8-4.7-9.5l-1.5,3.6l-2.6-2.4l2.5,0.7c-0.2-1.7,0.7-3.1,2-4.2c-1.4-1.3-2.8-2.7-4-4.2l-2.8-0.8h3.7L333.5,11.2
	 M393.4,13.5C393.9,14.1,393.9,14.1,393.4,13.5 M237.4,15.5c-0.5,1.6,0,2,1.8,1.5c0.4-1.6-0.2-2-1.9-1.5 M394,17.4
	c1.4-0.8,1.4-1.6-0.1-2.4c-1.5,0.8-1.4,1.6,0,2.4 M242.7,16.4c-1,1.1,1.2,2.2,2,1.2C245.7,16.3,243.5,15.2,242.7,16.4 M281.3,17.6
	C280.1,20.8,284.7,17.4,281.3,17.6 M276.8,20.8h2.2c-1,2.3,0,4.3,1.8,5.7l-4.5,1.5c2.3-0.5,4.6-1.3,7-2.1H281l0.4-1.9
	c2.3-0.7,1.2-3.4,1.6-5c-1.5,1.2-1.5,3.1-2.1,4.8c-1-1.8-1.5-3.8-1.4-5.8L276.8,20.8 M397.5,18.5C398,19.1,398,19.1,397.5,18.5
	 M400.5,19.5C401,20.1,401,20.1,400.5,19.5 M228.3,20.5c-0.6,1.5-0.1,1.9,1.3,1.3C230.2,20.4,229.7,20,228.3,20.5 M400.3,21.2
	l0.4,4.4c-2.3,1-1.8,2.8-1,4.6c-1.1,3.4-5,0.5-7.2,0l-0.2,0.9l2.2,0.1l0.1,2.7l4-0.4v2.7c1.4-0.6,3-1.2,4.4-2c0.5-2.3-2.8-1.2-3.8-2
	c1.6-1.2,3.5-1.6,5.4-2c0.2-2.2,0.7-4.4,1.3-6.5l1.2-3.4l-4,2.7L400.3,21.2 M343.5,25.5c-1.1,1.5,1.6,2.4,2.3,1
	C347,25,344.3,24.1,343.5,25.5 M386.5,25.5c-1.3,0-1.8,2.4-0.3,2.5C387.5,28,388.1,25.6,386.5,25.5 M366.6,26.8
	c-0.5,1.7,0,2.2,1.7,1.6C368.8,26.8,368.3,26.3,366.6,26.8 M369.6,27.5C370,28.1,370,28.1,369.6,27.5 M349.5,30.2
	C349.9,33.6,352.3,28.5,349.5,30.2 M230.5,31.4C231,31.9,231,31.9,230.5,31.4 M232.3,40.5C230.7,43.5,235.7,40.6,232.3,40.5
	 M274.3,44.1c2.1,1,5.6,1,5.4,4h0.4l-0.3-2.6l-1.8-1.8l-2,1l-1.4-3.5L274.3,44.1 M268.5,43.4C268.9,44,268.9,44,268.5,43.4
	 M239.5,48.2c-0.5,1.5,0,2,1.3,1.5C241.3,48.2,240.8,47.7,239.5,48.2 M278,59.2l2-1.5c1,0.8,2.4,1,3.5,0.3l-4-1.4L278,59.2
	 M285.5,58.5C284.1,61.5,288.9,58.5,285.5,58.5 M351.2,70.2l2.3,2.4l-1.8,1l1.4,3.8c-0.3,2.8-0.4,5.7,0.5,8.4
	c0.2-2.4,0.2-4.8,0.2-7.2h1C352.5,76.1,355.8,70.4,351.2,70.2 M348,74.4c0.7,1.5,1.5,1.6,2.4,0.1C349.7,73,348.9,73,348,74.4
	 M232.3,75.5c-0.8,1.4,0,3.5,1.1,4.5c1.5-0.7,0.8-4.7-1-4.5 M397.3,85.9l5.8-1.7l0.2-2C401.3,83.4,398.8,84,397.3,85.9 M393.7,84
	c-1.6,1.6-2.8,3.5-4.2,5.2l1.7,2.8l-0.3,4.5l2.2,0.4c-0.6-1.1-1.2-2.3-1.6-3.5l1.8-2.4l-2.8-0.4c0.4-3.2,4.4-0.5,5.9-3l-4,0.3
	l1.7-3.7l2,1.7C395.7,84.9,394.9,83.4,393.7,84 M284.7,87.7C285.3,88.2,285.3,88.2,284.7,87.7 M395.7,91.3l0.3,3.2l2.3-3
	c1.5,1,2.9,2.8,5,2.2c-1.1-1.5-2.2-4-4.4-2.2l-1.2-4.4L395.7,91.3 M399.7,96.5c-1.2,1.9,2.6,1.9,3,0.5
	C402.7,95.6,400.4,95.8,399.7,96.5 M400.5,101.4c-2.3-1-4.6,0.1-6.9,0.8l1.6,1.4l0.4,0.4l1.5-1l3.8,1c0.7-1.7,1.1-3.5,0.6-5.2
	L400.5,101.4 M399.3,107.2c0.4,1.3,2.4,2,3.5,1C403.4,106.7,399.6,105.4,399.3,107.2 M234.6,109C234.6,112.4,237.6,107.6,234.6,109
	 M397.6,110.1C397.4,113.5,400.6,108.9,397.6,110.1 M282.6,113.5C283.2,113.9,283.2,113.9,282.6,113.5 M280.2,117.5
	C278.8,120.5,283.6,117.4,280.2,117.5 M235.7,123.4l-0.9,5.1l2.2-2.9l3,0.4C238.6,125,237.1,124.2,235.7,123.4 M396.5,130.4
	c2.4,0,5.6,1.5,6.9-1.5l-4-0.3l0.8-3.4L396.5,130.4 M231.5,129.4C232.1,130,232.1,130,231.5,129.4 M400.8,132v3.5l-1.6,2l4-0.1
	L400.8,132 M234.3,135.6C232.8,138.6,237.7,135.6,234.3,135.6 M399.3,138.2c-1.7,1.7,1.6,4.1,1.9,1.2c0.8-0.4,1.3-0.8,1.5-1.4
	C401.6,137.8,400.4,137.8,399.3,138.2 M395.4,155.2C395.7,158.6,398.3,153.6,395.4,155.2 M275.4,160.8c1.5-0.7,1.2-3,0.3-4
	C274.4,156.8,273.7,160.4,275.4,160.8 M283.4,157.3C284,157.9,284,157.9,283.4,157.3 M343.2,165.9c0.7,2.7,1.6,5.3,2.6,8l3.3-0.8
	l-0.7,1.8l5.3,3l1.5-2.6l-3.9,0.2l0.5-3.5l-5-0.5c0-2.4-1-4.8-3.6-5.7 M348.6,166.9l-0.2,3.7l6.1-0.1
	C352.8,169,350.8,167.8,348.6,166.9 M393.5,170.3l1.5,2.7c0.3-0.5,1-1.6,1.2-2.2l1.1,2l2.2-3l0.2,5.5c1.3-2,0.8-4.2,0.5-6.4
	C398.2,170.4,395.8,171,393.5,170.3 M250.7,171.5l0.2,3.7l-3.2-1v5.4c1.3-1.1,2.1-2.7,2.4-4.4l1.6,0.6l1.2-4l4.4,3.4
	c-0.9-1-1.4-2.5-2.6-3.3c-1.3-0.3-2.7-0.3-4-0.5 M395.5,175.2C395.3,178.5,398.5,173.8,395.5,175.2 M249.7,179
	c0.9,1.4,1.7,1.4,2.4-0.1c-0.9-1.5-1.7-1.5-2.4,0 M352.7,183.7c-0.1,1.5-0.1,3.1,0.2,4.7c0.3,1.4,2.5,2.4,3.3,0.7c2-1.5-2-2.3-3-2.8
	l2.3-3.8l-2.9,1.2 M367.5,190.3C368,190.9,368,190.9,367.5,190.3 M286.4,194.3C287,194.8,287,194.8,286.4,194.3z"/>
<path class="st0" d="M381.2,20.3c2.2-2.9,0.8-7.1,3.7-9.7c0,2.2,0,4.4-0.2,6.6c1.5,1,3.3,1.6,5.1,1.7l-4.2,2.7
	C384.1,21.1,382.6,20.6,381.2,20.3z M480.6,15.2c0.7-1.2,3,0,1.9,1.2C481.7,17.6,479.5,16.5,480.6,15.2z M224.8,18.5
	C225.4,19.1,225.4,19.1,224.8,18.5z M224.9,25.9c-0.6-2-4.1-5.5-0.7-6.7c0.7,1.7,1.6,3.4,2.7,4.9L224.9,25.9z M355.3,21.8
	c1.4-0.4,2,0,1.5,1.5C355.4,23.7,354.9,23.2,355.3,21.8z M374.5,21.5C375.1,22,375.1,22,374.5,21.5z M382.3,21.6
	C385.7,21.9,380.7,24.6,382.3,21.6z M335.7,22.2C338.7,20.7,335.8,25.6,335.7,22.2z M358.3,22.2c1.3-1,2.6,1.4,1.7,2.4
	C358.7,25.6,357.2,23.2,358.3,22.2L358.3,22.2z M376.6,22.3C377.1,22.9,377.1,22.9,376.6,22.3z M351.2,25.6c1.7-0.6,2.2,0,1.6,1.6
	C351.2,27.7,350.6,27.2,351.2,25.6z M402.6,28.2C405.4,26.5,402.8,31.7,402.6,28.2z M623.9,35.2c2.3-1.1,4.9-0.4,7.3-0.2l-2.4,3.4
	V36L623.9,35.2L623.9,35.2z M165.3,38.3C165.8,39,165.8,39,165.3,38.3z M627.9,39.7c1.8-1.8,4,1.9,1.5,2.5
	C628,42.7,626.8,40.7,627.9,39.7z M173.1,43.9c2-0.9,1.4,2.7,0.8,3.6C172.4,47.4,170.9,44.7,173.1,43.9z M626.3,45.8
	c-0.1-2.1,1.4-3,3.2-3.4l0.8,2.9L626.3,45.8l2.2,2.8c-3,1-3.1-2.6-4.2-4.4L626.3,45.8z M344.3,44.2
	C347.7,44.4,342.8,47.2,344.3,44.2z M578.4,49.5C581.8,49.5,576.9,52.5,578.4,49.5z M452.6,61c1.6-1,2.2,1.8,0.7,2.3
	C451.6,64.2,451,61.4,452.6,61L452.6,61z M338.9,66.7l1.2-0.2l-2,1.8l-0.6,3c-1-1-2.1-1.8-3.2-2.7l3-0.1
	C337.3,68.5,338.9,66.7,338.9,66.7z M420.6,78.5C421.1,79,421.1,79,420.6,78.5z M571.3,79.6C574.8,79.9,569.7,82.4,571.3,79.6z
	 M231.7,83.2l1.9-1.2l0.2,5l2.5-0.6l-1,3.1l-3.3-1.7C232,86.2,231.8,84.7,231.7,83.2L231.7,83.2z M210.5,92.5
	C211.1,93,211.1,93,210.5,92.5z M127.1,93.5h6.4l-2.7,0.8l0.3,1.4l-2.8,0.1L127.1,93.5z M158.7,94.3c0.8-2,4.4-0.3,3.6,1.5
	C161.1,96.3,158.9,95.8,158.7,94.3z M226.7,100.3C229.7,98.8,226.9,103.7,226.7,100.3z M347.3,107.7c1.5,0.2,1.7,0.9,0.8,2.1
	c-1.4-0.2-1.6-0.8-0.7-2L347.3,107.7z M229.9,108.6c1.6-0.6,2.1,0,1.6,1.6C229.9,110.8,229.4,110.2,229.9,108.6z M350.3,110.4
	c-1.3-0.9-1.3-1.8,0-2.6C351.8,108.8,351.8,109.6,350.3,110.4z M289.3,109.5C292.7,109.7,287.7,112.5,289.3,109.5z M0.6,112.7
	c1.3,0.2,1.5,0.9,0.6,2C-0.2,114.5-0.4,113.9,0.6,112.7z M517.9,114l1,2.2c-0.4,1.9-1.2,4.2,1.8,3.8c-2.4,1.5-3.3,5.5-0.4,7
	l-2.3-0.3l0.3,3h-1.7l1.3-2.7l-3.5-2.2l1.4,0.1l0.8-4.8v-1.9l1.3-4.3L517.9,114z M510,121.5c0.2-2.7,1.4-5,3.4-6.6
	c-0.6,2.3-1.5,4.4-2.2,6.6H510z M507.3,121.7c1.5,0.1,1.7,0.8,0.8,2C506.7,123.6,506.5,122.9,507.3,121.7L507.3,121.7z M143.5,126.8
	c1.4,0.1,1.6,0.8,0.8,2C142.9,128.7,142.6,128,143.5,126.8z M137.7,130.2c1-1.1,3.5,0,2.5,1.5C139.3,132.7,136.8,131.7,137.7,130.2z
	 M455.4,132.5C458.8,132.5,454,135.5,455.4,132.5z M294.7,133.3C297.4,131.5,295.1,136.6,294.7,133.3z M147.3,140
	c1.3-1,2.4-2,3.2-3.4l4.2,1.4c-2.2,1.7-4.8,2-7.5,2H147.3z M2.8,142.3c1.4-0.4,2,0,1.5,1.4C2.9,144.2,2.3,143.7,2.8,142.3z
	 M502,144.7l3.7-2.5c-0.7,2.2-0.4,4.3,0.5,6.4l-5.4-0.8C501.4,146.8,501.8,145.8,502,144.7L502,144.7z M148.3,151.8
	C151.7,151.6,147.1,154.9,148.3,151.8z M446.5,155.4C447.1,155.9,447.1,155.9,446.5,155.4z M335.3,159.2l1.2-0.5
	c1.2,1.6,3,2.1,5,2.2l-6.8,2.2l1.1-2.3L335.3,159.2L335.3,159.2z M147.7,159.2c1.4-0.1,3.4,1.5,3.2,3
	C149.4,164.2,147.7,160.6,147.7,159.2z M81.7,162.2c1.4-0.3,1.9,0.1,1.4,1.6c-1.4,0.4-1.9-0.1-1.4-1.5V162.2z M402.5,165.5
	c0.3-1.5,2.4-1.6,3.4-0.8C406.9,166.7,402.6,167.7,402.5,165.5z M501.4,168.6c1.2-1.5,2.4-3.1,3.5-4.7l-1.6,4.3
	c2.5,0.3,4.3-1.3,6-2.8c-0.3,2.8-1,5.6-2,8.3l1.8,1.7l-2.3,0.2c0.3-2,0.7-4.2,1.4-6.2l-2.4,0.5v-1.8c-3,0.6-3.5,4.5-7,3.9l1.6-3
	L501.4,168.6L501.4,168.6z M149.9,168.5c-2.2-2.9,3.3-2,2,0.4L149.9,168.5L149.9,168.5z M153.6,170.5
	C154.2,171,154.2,171,153.6,170.5z M151.3,171.6C154.7,171.5,149.9,174.6,151.3,171.6z M151.6,174.5
	C152.1,175,152.1,175,151.6,174.5z M451.7,178.4C454.7,176.8,451.8,181.8,451.7,178.4z M242.2,179.1c1.3-0.4,2.4,1.6,1.8,2.6
	C242.7,182.1,241.5,180.1,242.2,179.1z M448.3,184.5c1-1.7,2-3.3,3.3-4.8c0,2,0.5,4,0.2,6c-2,1.4-4.3,2.1-6.7,2.7l3.3-4L448.3,184.5
	z M580.2,185.4C583.5,185.7,578.5,188.4,580.2,185.4z M415.6,191.3h1.2l-0.3,2.7l2.6-2.3l3.1,3.2h-6.3L415.6,191.3L415.6,191.3z
	 M440.9,192.8c0.3,0.3,0.8,0.8,1,1.2l4.4,0.4l-1.7-1.8c2.9,0.5,5.8,0.2,8.6-0.4l-0.3,2.3c-4.8,0.3-9.6,0-14.5,0.3L440.9,192.8z
	 M377.8,193.3C378.4,193.9,378.4,193.9,377.8,193.3z M415.5,197c2-0.3,4-0.2,5.1,1.5l-3.4,0.1l-1.5,1.9L415.5,197z M628.6,216.5
	C629.1,217,629.1,217,628.6,216.5z"/>
</svg>
