<?xml version="1.0" encoding="UTF-8" ?>
<!DOCTYPE svg PUBLIC "-//W3C//DTD SVG 1.1//EN" "http://www.w3.org/Graphics/SVG/1.1/DTD/svg11.dtd">
<svg width="1200pt" height="453pt" viewBox="0 0 1200 453" version="1.1" xmlns="http://www.w3.org/2000/svg">
<g id="#f27f10ff">
<path fill="#f27f10" opacity="1.00" d=" M 1073.78 0.00 L 1157.78 0.00 C 1162.45 1.23 1166.86 4.19 1168.08 9.14 C 1153.66 18.57 1139.49 28.44 1124.83 37.47 C 1126.09 34.60 1128.47 32.15 1128.99 29.01 C 1129.35 26.87 1126.65 26.22 1125.04 26.33 C 1113.11 26.31 1101.17 26.36 1089.24 26.31 C 1078.56 44.66 1067.99 63.06 1057.36 81.43 C 1056.41 83.14 1054.70 84.18 1053.12 85.21 C 1037.90 95.11 1022.89 105.35 1007.55 115.07 C 1015.64 100.16 1024.47 85.63 1032.84 70.87 C 1046.50 47.25 1060.15 23.63 1073.78 0.00 Z" />
<path fill="#f27f10" opacity="1.00" d=" M 1199.34 0.00 L 1200.00 0.00 L 1200.00 1.05 C 1191.17 8.84 1182.65 16.97 1173.95 24.91 C 1169.43 29.36 1164.31 33.23 1160.13 37.99 C 1149.62 55.91 1139.36 73.97 1128.88 91.90 C 1106.49 91.90 1084.09 92.03 1061.70 91.83 C 1065.61 88.53 1070.13 86.07 1074.32 83.14 C 1115.93 55.35 1158.00 28.20 1199.34 0.00 Z" />
<path fill="#f27f10" opacity="1.00" d=" M 43.13 21.78 C 62.39 21.43 81.67 21.75 100.93 21.62 C 104.91 21.41 109.57 22.88 111.26 26.80 C 112.80 30.64 110.96 34.68 109.00 37.98 C 98.72 55.72 88.54 73.52 78.11 91.17 C 70.98 91.05 63.85 91.22 56.72 91.10 C 56.62 90.96 56.42 90.68 56.32 90.54 C 65.11 75.27 74.02 60.08 82.71 44.76 C 84.18 43.32 83.32 40.64 81.09 40.99 C 72.17 40.94 63.24 40.80 54.33 41.08 C 44.49 57.73 35.29 74.78 25.09 91.21 C 17.85 91.03 10.60 91.19 3.35 91.13 C 16.27 67.83 30.04 44.99 43.13 21.78 Z" />
<path fill="#f27f10" opacity="1.00" d=" M 85.62 91.11 C 99.02 67.94 112.27 44.67 125.85 21.61 C 194.89 21.65 263.92 21.63 332.96 21.62 C 337.22 21.55 342.12 21.28 345.43 24.49 C 348.68 27.53 348.10 32.66 346.01 36.18 C 338.28 49.68 330.44 63.11 322.67 76.58 C 317.09 85.12 307.10 90.72 296.93 91.15 C 226.50 91.12 156.06 91.17 85.62 91.11 M 200.93 26.33 C 194.60 30.65 188.18 34.82 181.81 39.08 C 180.37 40.00 178.94 41.24 177.10 40.95 C 163.76 40.96 150.42 40.88 137.08 40.98 C 135.62 43.55 134.08 46.08 132.63 48.65 C 143.90 48.63 155.18 48.63 166.46 48.64 C 161.03 53.22 154.62 56.56 148.83 60.70 C 146.94 61.72 145.35 63.74 143.05 63.67 C 136.72 63.64 130.38 63.68 124.05 63.64 C 122.39 66.31 120.89 69.09 119.26 71.78 C 137.73 71.70 156.20 71.76 174.67 71.75 C 183.47 56.63 192.16 41.46 200.93 26.33 M 258.23 40.07 C 257.28 40.78 256.21 41.08 255.02 40.95 C 241.69 40.91 228.36 40.97 215.04 40.92 C 213.58 43.52 212.04 46.07 210.57 48.65 C 221.87 48.71 233.20 48.45 244.50 48.78 C 237.30 53.86 229.90 58.70 222.47 63.44 C 215.72 63.97 208.82 63.53 202.01 63.63 C 200.26 66.25 198.77 69.04 197.17 71.76 C 215.70 71.75 234.24 71.72 252.77 71.77 C 261.57 56.58 270.36 41.38 279.15 26.19 C 272.20 30.85 265.15 35.36 258.23 40.07 M 275.09 71.75 C 283.10 71.72 291.12 71.76 299.13 71.74 C 301.89 71.84 304.42 70.05 305.57 67.58 C 310.18 59.34 315.35 51.39 319.58 42.96 C 319.39 42.54 319.01 41.72 318.81 41.30 C 310.25 40.50 301.56 41.15 292.94 40.96 C 286.92 51.18 281.10 61.52 275.09 71.75 Z" />
<path fill="#f27f10" opacity="1.00" d=" M 383.93 21.61 C 428.28 21.62 472.63 21.60 516.99 21.59 C 521.08 21.49 525.92 23.27 527.32 27.48 C 528.54 30.90 527.00 34.49 525.31 37.45 C 518.06 49.90 510.85 62.36 503.68 74.85 C 497.36 86.23 483.75 92.52 470.96 91.17 C 460.31 91.16 449.66 91.19 439.01 91.16 C 435.09 91.20 430.65 89.64 428.93 85.86 C 427.22 82.17 428.99 78.10 430.90 74.87 C 440.35 58.67 449.65 42.38 459.09 26.18 C 451.92 30.94 444.80 35.76 437.57 40.44 C 436.20 41.36 434.48 40.99 432.95 41.07 C 420.34 41.06 407.72 41.02 395.11 41.04 C 393.75 43.60 392.15 46.03 390.82 48.61 C 402.11 48.74 413.40 48.42 424.68 48.76 C 417.52 53.96 409.99 58.68 402.57 63.51 C 395.78 63.96 388.93 63.53 382.13 63.69 C 376.68 72.79 371.51 82.05 366.10 91.16 C 358.66 91.11 351.22 91.21 343.78 91.11 C 357.04 67.87 370.38 44.68 383.93 21.61 M 469.59 46.61 C 465.60 53.58 461.57 60.52 457.57 67.48 C 456.71 68.77 456.22 71.32 458.33 71.65 C 464.88 71.86 471.46 71.66 478.02 71.74 C 480.77 71.97 483.82 70.83 485.13 68.27 C 489.98 59.80 494.96 51.41 499.65 42.86 C 499.18 41.66 498.35 41.06 497.16 41.06 C 490.76 41.03 484.36 41.07 477.96 41.05 C 474.25 40.71 471.24 43.58 469.59 46.61 Z" />
<path fill="#f27f10" opacity="1.00" d=" M 501.59 91.12 C 514.85 67.85 528.23 44.65 541.77 21.54 C 560.47 21.66 579.17 21.48 597.87 21.60 C 602.16 21.67 607.00 24.35 607.48 29.00 C 607.94 34.81 603.63 39.35 601.19 44.23 C 597.17 51.45 592.12 59.71 583.20 61.09 C 585.06 61.91 587.43 62.75 587.65 65.13 C 587.53 67.85 586.03 70.22 584.78 72.56 C 581.21 78.78 577.63 85.00 573.97 91.17 C 566.58 91.16 559.18 91.24 551.78 91.13 C 555.44 84.30 559.59 77.74 563.25 70.91 C 553.93 71.02 544.59 70.65 535.28 71.09 C 531.65 77.86 527.60 84.39 523.89 91.11 C 516.46 91.22 509.02 91.20 501.59 91.12 M 546.77 51.44 C 555.17 51.37 563.59 51.58 571.99 51.34 C 575.49 50.78 577.05 47.33 578.56 44.56 C 579.35 43.47 579.51 41.72 578.02 41.15 C 569.63 40.92 561.22 41.16 552.82 41.04 C 550.82 44.52 548.75 47.95 546.77 51.44 Z" />
<path fill="#f27f10" opacity="1.00" d=" M 633.18 39.42 C 638.11 29.27 648.84 22.28 660.04 21.56 C 700.01 21.53 739.98 21.53 779.95 21.53 C 783.62 21.54 787.82 22.91 789.66 26.33 C 791.39 29.62 790.33 33.53 788.60 36.57 C 785.25 42.45 781.79 48.26 778.45 54.14 C 773.63 63.21 764.02 69.35 753.95 70.80 C 742.06 71.23 730.14 70.60 718.26 71.11 C 714.59 77.88 710.63 84.49 706.77 91.15 C 699.33 91.22 691.88 91.22 684.44 91.15 C 696.80 69.53 709.21 47.93 721.82 26.45 C 714.55 31.33 707.31 36.28 699.90 40.94 C 685.95 41.33 671.95 40.84 657.99 41.16 C 654.16 41.90 651.99 45.36 650.29 48.53 C 660.84 48.56 671.38 48.48 681.92 48.56 C 685.91 48.51 690.30 50.43 691.73 54.41 C 693.23 58.68 690.71 62.89 688.58 66.45 C 685.19 71.74 682.85 77.86 678.04 82.09 C 671.76 87.69 663.47 91.55 654.93 91.14 C 636.54 91.05 618.15 91.22 599.76 91.05 C 600.38 90.24 601.12 89.56 601.98 88.99 C 610.41 83.53 618.75 77.92 627.13 72.37 C 628.49 71.25 630.37 71.79 631.98 71.65 C 641.51 71.61 651.05 71.83 660.57 71.53 C 664.65 71.04 665.93 66.76 667.93 63.85 C 657.25 63.64 646.56 63.89 635.88 63.72 C 631.07 63.81 625.64 60.42 625.82 55.14 C 626.24 49.17 630.66 44.60 633.18 39.42 M 729.77 51.38 C 738.19 51.27 746.63 51.52 755.05 51.26 C 758.73 50.59 760.22 46.80 761.80 43.88 C 762.51 42.69 761.68 40.80 760.15 41.11 C 752.04 40.99 743.93 41.16 735.83 41.04 C 733.74 44.45 731.85 47.97 729.77 51.38 Z" />
<path fill="#f27f10" opacity="1.00" d=" M 804.23 21.67 C 874.48 21.31 944.74 21.62 1014.99 21.52 C 1018.75 21.37 1023.03 22.38 1025.28 25.65 C 1027.52 28.97 1026.51 33.34 1024.62 36.56 C 1016.71 50.27 1008.80 63.98 1000.80 77.64 C 994.43 86.21 983.70 91.82 972.92 91.22 C 903.39 91.17 833.85 91.24 764.32 91.18 C 777.34 67.85 791.07 44.91 804.23 21.67 M 859.71 39.72 C 858.60 40.38 857.46 41.31 856.08 41.10 C 842.68 41.05 829.28 41.13 815.88 41.05 C 814.41 43.52 812.93 45.98 811.51 48.47 C 822.78 48.53 834.05 48.43 845.33 48.51 C 844.74 49.31 844.11 50.10 843.21 50.53 C 836.35 54.74 829.85 59.54 822.95 63.67 C 816.27 63.86 809.57 63.75 802.89 63.69 C 801.16 66.25 799.76 69.01 798.09 71.61 C 816.51 71.62 834.94 71.61 853.36 71.61 C 862.07 56.63 870.60 41.54 879.42 26.61 C 872.85 30.99 866.25 35.32 859.71 39.72 M 957.80 26.32 C 951.10 30.83 944.29 35.17 937.63 39.72 C 936.55 40.39 935.42 41.31 934.07 41.10 C 920.65 41.04 907.23 41.15 893.82 41.04 C 892.33 43.49 890.90 45.97 889.51 48.47 C 900.73 48.51 911.95 48.47 923.17 48.48 C 922.76 49.27 922.17 49.88 921.40 50.31 C 914.46 54.64 907.83 59.50 900.81 63.68 C 894.14 63.85 887.46 63.77 880.80 63.69 C 879.02 66.22 877.58 68.95 876.00 71.60 C 894.53 71.62 913.05 71.61 931.57 71.61 C 940.24 56.47 948.91 41.33 957.80 26.32 M 971.45 41.21 C 965.72 51.40 959.86 61.52 953.96 71.60 C 961.98 71.63 970.00 71.64 978.03 71.62 C 980.48 71.65 982.79 70.15 983.94 68.01 C 988.36 60.43 992.69 52.79 997.13 45.21 C 997.84 44.00 998.87 41.84 996.98 41.17 C 988.48 41.05 979.95 40.98 971.45 41.21 Z" />
<path fill="#f27f10" opacity="1.00" d=" M 1134.37 87.84 C 1136.32 87.96 1140.90 86.23 1140.11 89.88 C 1140.99 88.99 1141.92 88.10 1142.86 87.23 C 1143.44 89.31 1141.68 91.00 1140.94 92.80 C 1140.50 90.51 1137.55 91.27 1136.62 92.79 C 1137.10 91.63 1138.06 89.30 1138.54 88.14 C 1135.95 88.68 1136.13 91.63 1134.14 92.75 C 1134.09 91.62 1134.41 90.60 1135.11 89.68 C 1134.92 89.22 1134.55 88.30 1134.37 87.84 Z" />
<path fill="#f27f10" opacity="1.00" d=" M 312.72 111.85 C 358.13 111.81 403.54 111.85 448.96 111.82 C 473.31 112.02 498.07 118.34 518.11 132.53 C 544.12 150.33 560.56 180.64 562.72 211.94 C 564.43 231.01 560.79 250.68 551.64 267.56 C 541.83 285.47 526.32 300.12 508.06 309.18 C 532.13 356.44 556.93 403.36 581.28 450.48 C 548.89 450.47 516.49 450.53 484.10 450.43 C 464.20 408.44 444.11 366.54 424.20 324.56 C 414.95 324.60 405.71 324.58 396.46 324.55 C 396.48 366.53 396.51 408.51 396.51 450.48 C 368.58 450.48 340.65 450.52 312.72 450.45 C 312.82 337.58 312.66 224.72 312.72 111.85 M 396.51 187.13 C 396.58 209.69 396.52 232.24 396.48 254.80 C 412.66 254.75 428.85 254.81 445.03 254.76 C 456.73 254.70 468.46 248.63 474.46 238.44 C 481.21 227.31 480.79 212.31 473.29 201.65 C 467.05 192.43 455.96 187.26 444.97 187.15 C 428.82 187.08 412.66 187.11 396.51 187.13 Z" />
<path fill="#f27f10" opacity="1.00" d=" M 581.50 111.83 C 609.46 111.79 637.43 111.78 665.40 111.82 C 665.46 184.53 665.34 257.25 665.37 329.96 C 665.34 341.31 667.73 353.13 674.47 362.48 C 680.59 371.20 690.65 376.59 701.09 378.06 C 712.61 379.68 724.98 378.33 735.05 372.18 C 743.88 366.82 750.03 357.73 752.71 347.85 C 756.03 336.89 755.06 325.33 755.19 314.04 C 755.22 246.63 755.03 179.21 755.09 111.80 C 783.09 111.79 811.09 111.75 839.09 111.83 C 839.30 184.88 838.76 257.93 838.86 330.98 C 839.35 358.52 830.36 386.42 812.73 407.72 C 804.31 418.03 794.11 426.85 782.72 433.72 C 764.57 445.02 743.52 450.82 722.38 453.00 L 697.07 453.00 C 693.40 452.45 689.71 452.04 686.06 451.46 C 655.29 446.83 625.77 431.21 606.48 406.52 C 592.52 388.94 584.17 367.10 582.20 344.78 C 581.26 336.53 581.61 328.22 581.54 319.93 C 581.58 250.57 581.41 181.20 581.50 111.83 Z" />
<path fill="#f27f10" opacity="1.00" d=" M 865.46 111.81 C 889.88 111.79 914.31 111.77 938.73 111.83 C 974.71 168.26 1010.73 224.67 1046.64 281.14 C 1046.71 224.71 1046.43 168.27 1046.68 111.84 C 1074.65 111.73 1102.62 111.85 1130.59 111.82 C 1130.72 224.71 1130.57 337.60 1130.57 450.49 C 1106.21 450.55 1081.85 450.41 1057.50 450.53 C 1022.49 396.15 987.90 341.49 953.00 287.03 C 951.84 285.26 950.91 283.31 949.38 281.82 C 949.31 338.04 949.48 394.25 949.34 450.47 C 921.39 450.51 893.45 450.47 865.51 450.50 C 865.46 345.67 865.48 240.83 865.39 136.00 C 865.43 127.93 865.27 119.87 865.46 111.81 Z" />
<path fill="#f27f10" opacity="1.00" d=" M 0.00 113.91 C 30.74 113.95 61.49 113.89 92.23 113.93 C 92.29 123.22 92.29 132.52 92.22 141.81 C 82.02 141.84 71.82 141.79 61.61 141.83 C 61.58 174.17 61.61 206.50 61.53 238.84 C 51.18 238.81 40.83 238.86 30.47 238.82 C 30.47 206.49 30.46 174.15 30.44 141.82 C 20.29 141.81 10.14 141.79 0.00 141.83 L 0.00 113.91 Z" />
<path fill="#f27f10" opacity="1.00" d=" M 96.26 114.11 C 106.65 113.67 117.07 114.04 127.48 113.92 C 127.68 129.88 127.53 145.86 127.52 161.83 C 138.16 161.78 148.81 161.89 159.45 161.77 C 159.38 145.82 159.24 129.86 159.48 113.91 C 169.84 113.91 180.20 113.92 190.56 113.91 C 190.84 155.53 190.54 197.17 190.64 238.80 C 180.23 238.85 169.82 238.87 159.42 238.78 C 159.46 222.40 159.40 206.02 159.41 189.64 C 148.78 189.65 138.15 189.64 127.53 189.65 C 127.48 206.06 127.58 222.48 127.42 238.89 C 117.07 238.74 106.71 238.90 96.36 238.81 C 96.35 197.24 96.34 155.68 96.26 114.11 Z" />
<path fill="#f27f10" opacity="1.00" d=" M 202.12 114.03 C 230.52 113.77 258.92 113.97 287.33 113.92 C 287.45 123.22 287.44 132.53 287.32 141.84 C 269.29 141.90 251.26 141.65 233.25 141.97 C 233.41 148.61 233.30 155.26 233.30 161.91 C 248.66 161.92 264.02 161.90 279.38 161.92 C 279.54 171.23 279.47 180.54 279.40 189.86 C 264.01 189.94 248.61 189.63 233.23 190.00 C 233.40 197.04 233.24 204.07 233.31 211.11 C 251.31 211.15 269.32 211.11 287.33 211.13 C 287.38 220.37 287.37 229.61 287.33 238.85 C 258.94 238.83 230.55 238.87 202.16 238.83 C 202.18 197.23 202.02 155.63 202.12 114.03 Z" />
</g>
</svg>
