<!-- Generated by IcoMoon.io -->
<svg version="1.1" xmlns="http://www.w3.org/2000/svg" width="32" height="32" viewBox="0 0 32 32">
<path d="M15.979 0.286h0.336c0 0.031 0 0.092 0 0.123-0.112 0-0.224 0.001-0.336 0.001 0-0.031 0-0.093 0-0.124zM13.945 0.49c0.097-0.014 0.193-0.026 0.292-0.038-0.098 0.012-0.196 0.025-0.292 0.038zM17.72 0.455c0.096 0.013 0.195 0.028 0.292 0.043-0.099-0.014-0.195-0.029-0.292-0.043zM13.188 0.615c0.055-0.013 0.11-0.026 0.166-0.038-0.055 0.013-0.11 0.026-0.166 0.038zM18.643 0.576c0.085 0.011 0.169 0.028 0.253 0.048-0.085-0.013-0.169-0.028-0.253-0.048zM12.564 0.745c0.055-0.012 0.111-0.023 0.167-0.034-0.056 0.013-0.112 0.025-0.167 0.034zM19.354 0.71c0.056 0.012 0.112 0.025 0.168 0.039-0.056-0.013-0.112-0.026-0.168-0.039zM19.858 0.831c0.056 0.014 0.113 0.029 0.169 0.044-0.057-0.014-0.113-0.029-0.169-0.044zM11.957 0.925c-0.031-0.067 0.043-0.132 0.109-0.122 0.034 0.068-0.043 0.133-0.109 0.122zM11.553 0.996c0.056-0.014 0.112-0.028 0.169-0.039-0.057 0.012-0.113 0.026-0.169 0.039zM20.361 0.958c0.056 0.015 0.112 0.031 0.168 0.048-0.056-0.016-0.112-0.033-0.168-0.048zM20.74 1.074c0.055 0.018 0.112 0.037 0.167 0.057-0.056-0.018-0.112-0.037-0.167-0.057zM21.117 1.2c0.056 0.018 0.112 0.037 0.168 0.056-0.057-0.018-0.112-0.037-0.168-0.056zM21.494 1.327c0.056 0.019 0.112 0.040 0.167 0.061-0.056-0.020-0.112-0.041-0.167-0.061zM10.044 1.515c0.055-0.024 0.111-0.048 0.167-0.071-0.055 0.024-0.111 0.048-0.167 0.071zM22.123 1.573c0.055 0.024 0.11 0.048 0.164 0.074-0.055-0.025-0.109-0.050-0.164-0.074zM22.379 1.69c0.055 0.025 0.109 0.051 0.164 0.077-0.055-0.025-0.11-0.050-0.164-0.077zM9.167 1.899c0.054-0.027 0.109-0.052 0.164-0.077-0.055 0.026-0.109 0.052-0.164 0.077zM8.915 2.023c0.053-0.028 0.107-0.055 0.161-0.081-0.054 0.027-0.108 0.054-0.161 0.081zM8.664 2.15c0.053-0.028 0.107-0.055 0.161-0.082-0.054 0.028-0.107 0.055-0.161 0.082zM8.414 2.282c0.053-0.029 0.107-0.058 0.161-0.086-0.053 0.029-0.107 0.057-0.161 0.086zM23.639 2.313c0.053 0.029 0.107 0.058 0.16 0.087-0.054-0.029-0.107-0.058-0.16-0.087zM23.887 2.448c0.053 0.029 0.106 0.058 0.159 0.089-0.053-0.030-0.106-0.060-0.159-0.089zM24.534 2.844c0.036-0.134 0.175 0.013 0.026 0.018l-0.026-0.018zM7.159 3.043c0.051-0.035 0.102-0.069 0.154-0.102-0.051 0.034-0.102 0.068-0.154 0.102zM24.896 3.070c0.052 0.032 0.104 0.066 0.154 0.101-0.051-0.034-0.102-0.068-0.154-0.101zM25.405 3.439c0.049 0.036 0.099 0.072 0.148 0.109-0.050-0.036-0.1-0.072-0.148-0.109zM6.278 3.673c0.049-0.037 0.099-0.073 0.149-0.108-0.050 0.037-0.099 0.072-0.149 0.108zM25.908 3.816c0.050 0.035 0.1 0.071 0.15 0.108-0.050-0.036-0.1-0.071-0.15-0.108zM5.517 4.301c0.093-0.081 0.19-0.158 0.29-0.23-0.091 0.083-0.188 0.16-0.29 0.23zM27.026 4.819c0.227 0.114 0.411 0.298 0.525 0.526-0.198-0.15-0.375-0.327-0.525-0.526zM3.785 6.093c0.072-0.1 0.149-0.197 0.23-0.29-0.070 0.101-0.147 0.198-0.23 0.29zM28.318 6.187c0.036 0.050 0.071 0.1 0.107 0.151-0.037-0.050-0.072-0.101-0.107-0.151zM28.753 6.687c0.061 0.030 0.086 0.125 0.024 0.169-0.058-0.033-0.085-0.125-0.024-0.169zM3.029 7.092c0.035-0.051 0.070-0.101 0.106-0.151-0.035 0.050-0.070 0.101-0.106 0.151zM29.076 7.191c0.035 0.050 0.068 0.102 0.101 0.154-0.034-0.052-0.068-0.103-0.101-0.154zM29.387 7.682c0.002-0.15 0.151-0.011 0.017 0.025l-0.017-0.025zM2.28 8.228c0.031-0.053 0.063-0.106 0.095-0.158-0.032 0.052-0.064 0.105-0.095 0.158zM29.711 8.195c0.032 0.052 0.063 0.105 0.096 0.158-0.033-0.052-0.065-0.105-0.096-0.158zM30.603 9.953c0.023 0.055 0.047 0.111 0.069 0.167-0.023-0.056-0.047-0.112-0.069-0.167zM1.285 10.246c0.023-0.056 0.047-0.112 0.072-0.167-0.024 0.055-0.048 0.111-0.072 0.167zM30.853 10.583c0.021 0.055 0.042 0.111 0.063 0.167-0.021-0.056-0.042-0.112-0.063-0.167zM1.041 10.876c0.020-0.056 0.041-0.112 0.062-0.167-0.021 0.055-0.042 0.111-0.062 0.167zM30.989 10.958c0.021 0.056 0.042 0.112 0.063 0.168-0.022-0.056-0.044-0.112-0.063-0.168zM0.913 11.252c0.018-0.056 0.038-0.112 0.057-0.167-0.018 0.056-0.038 0.112-0.057 0.167zM0.793 11.631c0.016-0.057 0.033-0.113 0.051-0.169-0.017 0.056-0.034 0.112-0.051 0.169zM31.247 11.712c0.017 0.056 0.033 0.112 0.049 0.169-0.017-0.056-0.034-0.112-0.049-0.169zM0.518 12.478c-0.009-0.065 0.056-0.14 0.123-0.109 0.010 0.066-0.055 0.143-0.123 0.109zM31.499 12.72c0.013 0.056 0.025 0.112 0.037 0.169-0.013-0.056-0.026-0.113-0.037-0.169zM0.426 13.143c0.012-0.056 0.023-0.112 0.036-0.167-0.011 0.056-0.023 0.112-0.036 0.167zM31.63 13.347c0.012 0.055 0.025 0.11 0.036 0.166-0.013-0.055-0.025-0.111-0.036-0.166zM0.298 13.766c0.009-0.056 0.021-0.112 0.033-0.166-0.011 0.055-0.021 0.111-0.033 0.166zM31.746 14.107c0.013 0.096 0.025 0.193 0.040 0.291-0.014-0.097-0.029-0.194-0.040-0.291zM0.133 14.51c0.068-0.022 0.091 0.001 0.070 0.070-0.068 0.022-0.091-0.002-0.070-0.070zM0.177 14.78c0.008-0.057 0.019-0.113 0.030-0.169-0.010 0.056-0.021 0.113-0.030 0.169zM31.831 15.516c0.143-0.093 0.147 0.163 0.001 0.073 0-0.018-0.001-0.055-0.001-0.073zM31.845 15.755c0.037 0.012 0.074 0.025 0.112 0.037-0.011 0.127-0.021 0.255-0.028 0.383-0.049-0.134-0.068-0.279-0.084-0.42zM31.841 16.273c0.022-0.002 0.068-0.007 0.090-0.009 0.008 0.22 0.017 0.441 0.026 0.662-0.030 0.003-0.089 0.011-0.119 0.014 0-0.223 0.002-0.445 0.004-0.667zM0.163 17.756c0.012 0.096 0.027 0.19 0.040 0.287-0.016-0.096-0.032-0.191-0.040-0.287zM31.711 18.401c0.003-0.054 0.008-0.162 0.011-0.216 0.018 0.023 0.053 0.068 0.070 0.091-0.003 0.056-0.030 0.097-0.081 0.125zM0.298 18.765c0.010 0.055 0.019 0.109 0.028 0.165-0.010-0.055-0.020-0.11-0.028-0.165zM31.628 19.179c0.011-0.056 0.023-0.11 0.036-0.165-0.011 0.055-0.022 0.11-0.036 0.165zM31.497 19.804c0.009-0.056 0.022-0.112 0.034-0.167-0.012 0.055-0.023 0.111-0.034 0.167zM0.556 20.043l0.009 0.029c-0.037 0.148-0.148-0.025-0.009-0.029zM31.375 20.262c0.005-0.058 0.035-0.085 0.090-0.081-0.001 0.061-0.031 0.088-0.090 0.081zM31.239 20.815c0.016-0.056 0.033-0.112 0.048-0.168-0.015 0.056-0.031 0.112-0.048 0.168zM0.788 20.899c0.019 0.056 0.038 0.112 0.057 0.168-0.020-0.056-0.039-0.112-0.057-0.168zM31.113 21.193c0.018-0.056 0.038-0.112 0.057-0.167-0.019 0.056-0.038 0.112-0.057 0.167zM0.916 21.276c0.020 0.056 0.040 0.112 0.060 0.168-0.021-0.056-0.041-0.112-0.060-0.168zM30.987 21.57c0.018-0.056 0.037-0.112 0.056-0.167-0.019 0.056-0.037 0.112-0.056 0.167zM30.855 21.947c0.020-0.056 0.041-0.112 0.061-0.168-0.020 0.056-0.040 0.112-0.061 0.168zM1.284 22.284c0.024 0.055 0.047 0.111 0.070 0.167-0.024-0.055-0.048-0.112-0.070-0.167zM30.601 22.576c0.023-0.056 0.048-0.111 0.072-0.166-0.023 0.055-0.047 0.111-0.072 0.166zM29.917 23.982c-0.137 0.047-0.064-0.142 0.015-0.028l-0.015 0.028zM2.556 24.796c-0.037-0.176 0.193-0.063 0.060 0.037-0.015-0.009-0.045-0.028-0.060-0.037zM3.028 25.438c0.036 0.049 0.072 0.099 0.108 0.149-0.037-0.049-0.073-0.099-0.108-0.149zM28.696 25.839c0.036-0.050 0.072-0.1 0.108-0.149-0.036 0.050-0.071 0.1-0.108 0.149zM3.405 25.942c0.037 0.049 0.073 0.099 0.109 0.149-0.037-0.049-0.073-0.099-0.109-0.149zM4.035 26.696c0.037 0.049 0.073 0.099 0.109 0.15-0.037-0.049-0.073-0.1-0.109-0.15zM5.397 28.104c0.052 0.029 0.106 0.058 0.16 0.086-0.055-0.027-0.108-0.055-0.16-0.086zM5.588 28.204c0.065 0.012 0.119 0.094 0.069 0.152-0.065-0.014-0.12-0.095-0.069-0.152zM26.035 28.588c0.049-0.037 0.099-0.073 0.149-0.109-0.049 0.037-0.099 0.073-0.149 0.109zM6.13 28.737c0.068-0.043 0.166 0.028 0.141 0.107-0.067 0.001-0.122-0.044-0.141-0.107zM25.456 29.016c0.185-0.009 0.014 0.198-0.056 0.046 0.014-0.011 0.042-0.035 0.056-0.046zM6.658 29.106c0.050 0.036 0.099 0.072 0.149 0.108-0.050-0.036-0.1-0.072-0.149-0.108zM24.357 29.843c-0.017-0.056 0.005-0.094 0.065-0.112 0.010 0.057-0.012 0.095-0.065 0.112zM7.785 29.868c0.052 0.031 0.105 0.063 0.158 0.095-0.053-0.031-0.106-0.063-0.158-0.095zM23.635 30.206c0.052-0.030 0.105-0.060 0.159-0.089-0.053 0.030-0.106 0.060-0.159 0.089zM23.389 30.346c0.052-0.031 0.105-0.062 0.158-0.091-0.053 0.030-0.106 0.060-0.158 0.091zM22.376 30.835c0.056-0.023 0.112-0.047 0.168-0.069-0.056 0.023-0.112 0.047-0.168 0.069zM21.778 31.134c-0.038-0.067 0.033-0.134 0.098-0.135 0.039 0.065-0.031 0.137-0.098 0.135zM10.422 31.14c0.056 0.022 0.112 0.045 0.168 0.068-0.057-0.022-0.112-0.045-0.168-0.068zM11.614 31.494c0.066-0.007 0.126 0.068 0.091 0.13-0.071 0.019-0.127-0.071-0.091-0.13zM12.075 31.61c0.149-0.064 0.16 0.172 0.012 0.075-0.003-0.019-0.009-0.056-0.012-0.075zM19.894 31.728c-0.035-0.068 0.038-0.138 0.106-0.125 0.032 0.067-0.042 0.13-0.106 0.125zM12.56 31.787c0.056 0.010 0.112 0.021 0.169 0.031-0.057-0.010-0.113-0.019-0.169-0.031zM13.282 31.883c0.057 0.004 0.080 0.035 0.068 0.093-0.058-0.004-0.081-0.035-0.068-0.093zM18.605 31.946c0.055-0.011 0.109-0.021 0.165-0.030-0.055 0.010-0.11 0.020-0.165 0.030zM14.069 32.037c0.058 0.009 0.115 0.021 0.173 0.035-0.058-0.010-0.116-0.021-0.173-0.035zM17.723 32.076c0.056-0.011 0.111-0.021 0.168-0.029-0.056 0.010-0.112 0.019-0.168 0.029zM14.237 0.452c0.578-0.058 1.161-0.043 1.742-0.043 0.112 0 0.223-0 0.336-0.001 0.468 0 0.939-0.006 1.405 0.047 0.097 0.013 0.193 0.029 0.292 0.043 0.209 0.032 0.42 0.050 0.631 0.078 0.083 0.020 0.168 0.035 0.253 0.048 0.153 0.026 0.306 0.055 0.459 0.086 0.056 0.013 0.112 0.026 0.168 0.039 0.112 0.027 0.222 0.054 0.335 0.082 0.056 0.015 0.112 0.029 0.169 0.044 0.111 0.029 0.221 0.055 0.334 0.084 0.056 0.016 0.112 0.032 0.168 0.048 0.070 0.022 0.141 0.044 0.211 0.068 0.055 0.019 0.111 0.038 0.167 0.057 0.070 0.024 0.14 0.047 0.21 0.070 0.056 0.019 0.111 0.038 0.168 0.056 0.069 0.024 0.139 0.046 0.209 0.070 0.056 0.020 0.111 0.041 0.167 0.061 0.155 0.058 0.309 0.12 0.462 0.185 0.055 0.024 0.109 0.049 0.164 0.074 0.023 0.011 0.069 0.032 0.092 0.043 0.054 0.026 0.109 0.052 0.164 0.077 0.372 0.168 0.739 0.347 1.096 0.546 0.053 0.029 0.106 0.059 0.16 0.087 0.022 0.012 0.066 0.036 0.088 0.048 0.053 0.030 0.105 0.060 0.159 0.089 0.166 0.098 0.33 0.198 0.489 0.307l0.026 0.018c0.11 0.071 0.225 0.137 0.336 0.208 0.052 0.033 0.103 0.067 0.154 0.101 0.123 0.083 0.235 0.182 0.355 0.269 0.049 0.037 0.098 0.073 0.148 0.109 0.12 0.087 0.234 0.182 0.355 0.268 0.049 0.037 0.099 0.072 0.15 0.108 0.356 0.262 0.618 0.627 0.968 0.895 0.15 0.199 0.326 0.375 0.525 0.526 0.231 0.303 0.546 0.532 0.767 0.843 0.035 0.050 0.070 0.101 0.107 0.151 0.091 0.132 0.203 0.248 0.328 0.349-0.060 0.044-0.034 0.136 0.024 0.169 0.111 0.101 0.216 0.21 0.299 0.335 0.034 0.051 0.068 0.103 0.101 0.154 0.071 0.111 0.138 0.224 0.209 0.336l0.017 0.025c0.11 0.158 0.207 0.324 0.307 0.488 0.031 0.053 0.063 0.106 0.096 0.158 0.304 0.512 0.566 1.051 0.796 1.6 0.022 0.055 0.046 0.111 0.069 0.167 0.062 0.154 0.122 0.308 0.181 0.463 0.020 0.055 0.042 0.111 0.063 0.167 0.025 0.069 0.048 0.139 0.073 0.208 0.020 0.056 0.041 0.112 0.063 0.168 0.078 0.191 0.142 0.387 0.195 0.587 0.016 0.056 0.032 0.112 0.049 0.169 0.083 0.276 0.146 0.557 0.202 0.839 0.011 0.056 0.025 0.113 0.037 0.169 0.030 0.152 0.061 0.305 0.094 0.458 0.011 0.055 0.023 0.111 0.036 0.166 0.034 0.197 0.052 0.396 0.081 0.594 0.011 0.097 0.026 0.194 0.040 0.291 0.044 0.371 0.051 0.745 0.045 1.119 0 0.018 0.001 0.055 0.001 0.073 0.003 0.055 0.008 0.11 0.013 0.166 0.016 0.141 0.035 0.286 0.084 0.42 0 0.023 0.001 0.067 0.002 0.090-0.022 0.002-0.068 0.007-0.090 0.009-0.002 0.222-0.003 0.444-0.004 0.667-0.003 0.445-0.007 0.892-0.046 1.336-0.017-0.023-0.052-0.068-0.070-0.091-0.003 0.054-0.008 0.162-0.011 0.216-0.008 0.205-0.027 0.409-0.047 0.613-0.013 0.055-0.025 0.109-0.036 0.165-0.032 0.152-0.065 0.305-0.096 0.458-0.013 0.055-0.025 0.111-0.034 0.167-0.017 0.125-0.026 0.249-0.032 0.376-0.055-0.004-0.086 0.023-0.090 0.081-0.026 0.129-0.059 0.255-0.088 0.385-0.016 0.056-0.033 0.112-0.048 0.168-0.022 0.070-0.044 0.141-0.068 0.211-0.020 0.055-0.039 0.111-0.057 0.167-0.024 0.070-0.047 0.14-0.070 0.21-0.019 0.055-0.039 0.111-0.056 0.167-0.024 0.070-0.047 0.14-0.071 0.209-0.021 0.056-0.042 0.112-0.061 0.168-0.059 0.155-0.12 0.309-0.182 0.463-0.024 0.055-0.048 0.111-0.072 0.166-0.204 0.468-0.443 0.92-0.669 1.378-0.079-0.114-0.152 0.075-0.015 0.028-0.363 0.574-0.71 1.16-1.113 1.707-0.037 0.049-0.073 0.099-0.108 0.149-0.172 0.219-0.356 0.43-0.512 0.661-0.324 0.373-0.696 0.7-1.038 1.057-0.322 0.306-0.609 0.652-0.962 0.922-0.050 0.036-0.1 0.072-0.149 0.109-0.192 0.144-0.369 0.308-0.579 0.427-0.014 0.011-0.042 0.035-0.056 0.046-0.279 0.284-0.632 0.479-0.978 0.669-0.060 0.018-0.082 0.056-0.065 0.112-0.198 0.068-0.38 0.172-0.563 0.274-0.054 0.029-0.107 0.059-0.159 0.089-0.022 0.012-0.065 0.037-0.087 0.049-0.053 0.029-0.106 0.059-0.158 0.091-0.27 0.163-0.553 0.302-0.845 0.421-0.057 0.022-0.112 0.046-0.168 0.069-0.162 0.068-0.329 0.123-0.501 0.164-0.065 0.001-0.135 0.068-0.098 0.135-0.61 0.094-1.153 0.459-1.778 0.468-0.068-0.013-0.141 0.058-0.106 0.125-0.376 0.056-0.748 0.134-1.124 0.188-0.055 0.009-0.11 0.019-0.165 0.030-0.238 0.036-0.477 0.063-0.714 0.102-0.057 0.008-0.112 0.018-0.168 0.029-1.157 0.071-2.324 0.077-3.481-0.004-0.057-0.014-0.115-0.026-0.173-0.035-0.239-0.031-0.48-0.044-0.719-0.062 0.012-0.058-0.011-0.089-0.068-0.093-0.185-0.021-0.37-0.040-0.553-0.065-0.057-0.010-0.113-0.021-0.169-0.031-0.159-0.032-0.317-0.065-0.473-0.102 0.148 0.097 0.137-0.139-0.012-0.075-0.123 0.008-0.248 0.007-0.371 0.014 0.035-0.062-0.024-0.137-0.091-0.13-0.353-0.046-0.694-0.155-1.024-0.286-0.056-0.023-0.112-0.046-0.168-0.068-0.859-0.318-1.672-0.747-2.479-1.177-0.052-0.032-0.105-0.064-0.158-0.095-0.333-0.208-0.663-0.421-0.978-0.654-0.050-0.037-0.099-0.073-0.149-0.108-0.127-0.091-0.246-0.195-0.388-0.263 0.025-0.078-0.073-0.15-0.141-0.107-0.136-0.15-0.286-0.296-0.473-0.381 0.050-0.058-0.004-0.14-0.069-0.152l-0.031-0.015c-0.054-0.028-0.107-0.057-0.16-0.086-0.21-0.133-0.366-0.332-0.544-0.504-0.239-0.249-0.507-0.473-0.71-0.754-0.036-0.050-0.072-0.101-0.109-0.15-0.155-0.218-0.365-0.388-0.521-0.605-0.036-0.050-0.072-0.1-0.109-0.149-0.087-0.12-0.182-0.234-0.269-0.354-0.036-0.050-0.072-0.1-0.108-0.149-0.149-0.194-0.283-0.398-0.412-0.605 0.133-0.1-0.096-0.213-0.060-0.037-0.427-0.767-0.87-1.529-1.202-2.344-0.023-0.056-0.047-0.112-0.070-0.167-0.122-0.273-0.205-0.561-0.308-0.84-0.020-0.056-0.040-0.112-0.060-0.168-0.025-0.070-0.048-0.139-0.071-0.209-0.018-0.056-0.038-0.112-0.057-0.168-0.089-0.272-0.154-0.551-0.224-0.828l-0.009-0.029c-0.106-0.365-0.183-0.736-0.23-1.113-0.009-0.056-0.018-0.11-0.028-0.165-0.035-0.24-0.060-0.482-0.095-0.722-0.013-0.097-0.028-0.192-0.040-0.287-0.058-0.99-0.084-1.988 0.014-2.976 0.010-0.057 0.021-0.113 0.030-0.169 0.043-0.28 0.057-0.564 0.091-0.844 0.011-0.056 0.022-0.112 0.033-0.166 0.031-0.153 0.063-0.305 0.095-0.456 0.013-0.056 0.026-0.112 0.036-0.167 0.025-0.166 0.040-0.333 0.056-0.498 0.069 0.034 0.133-0.043 0.123-0.109 0.024-0.25 0.084-0.496 0.152-0.738 0.017-0.057 0.034-0.113 0.051-0.169 0.022-0.070 0.045-0.141 0.068-0.211 0.019-0.056 0.039-0.112 0.057-0.167 0.024-0.070 0.047-0.14 0.071-0.209 0.021-0.056 0.042-0.112 0.062-0.167 0.058-0.156 0.119-0.309 0.182-0.463 0.024-0.056 0.048-0.112 0.072-0.167 0.286-0.627 0.593-1.246 0.923-1.851 0.031-0.052 0.063-0.105 0.095-0.158 0.206-0.333 0.422-0.662 0.654-0.978 0.036-0.050 0.071-0.1 0.106-0.151 0.211-0.288 0.411-0.583 0.65-0.849 0.083-0.092 0.16-0.188 0.23-0.29 0.226-0.287 0.501-0.528 0.755-0.788 0.246-0.241 0.475-0.5 0.747-0.713 0.102-0.070 0.199-0.147 0.29-0.23 0.16-0.129 0.304-0.278 0.471-0.398 0.050-0.036 0.1-0.072 0.149-0.108 0.239-0.179 0.487-0.348 0.731-0.522 0.051-0.034 0.102-0.068 0.154-0.102 0.358-0.235 0.722-0.46 1.101-0.658 0.054-0.029 0.107-0.057 0.161-0.086 0.022-0.012 0.067-0.035 0.089-0.046 0.054-0.027 0.107-0.054 0.161-0.082 0.023-0.011 0.068-0.034 0.090-0.045 0.054-0.027 0.108-0.054 0.161-0.081 0.023-0.011 0.068-0.033 0.091-0.044 0.055-0.026 0.109-0.052 0.164-0.077 0.236-0.106 0.473-0.208 0.713-0.307 0.056-0.024 0.112-0.047 0.167-0.071 0.434-0.184 0.884-0.334 1.342-0.448 0.056-0.013 0.112-0.027 0.169-0.039 0.078-0.016 0.156-0.025 0.236-0.032 0.066 0.010 0.142-0.054 0.109-0.122 0.166-0.016 0.332-0.034 0.498-0.057 0.056-0.010 0.112-0.022 0.167-0.034 0.152-0.031 0.304-0.063 0.456-0.096 0.055-0.012 0.111-0.024 0.166-0.038 0.196-0.038 0.394-0.058 0.592-0.088 0.096-0.013 0.194-0.026 0.292-0.038M15.634 1.606c-0.303 0.043-0.609 0.054-0.914 0.071-1.535 0.12-3.036 0.523-4.457 1.104-1.112 0.515-2.193 1.115-3.16 1.87-0.222 0.124-0.393 0.312-0.572 0.487-0.149 0.15-0.35 0.232-0.502 0.378-0.187 0.176-0.362 0.365-0.547 0.543-0.287 0.252-0.433 0.621-0.732 0.862-0.484 0.572-0.884 1.211-1.302 1.832-0.312 0.546-0.565 1.125-0.859 1.681-0.238 0.435-0.346 0.922-0.514 1.385-0.164 0.451-0.262 0.922-0.38 1.387-0.153 0.64-0.164 1.302-0.27 1.949-0.143 1.054 0.027 2.109 0.12 3.158 0.242 1.676 0.779 3.307 1.575 4.801 0.278 0.644 0.714 1.197 1.088 1.785 0.118 0.179 0.295 0.309 0.413 0.489 0.245 0.448 0.728 0.699 0.972 1.148 0.091 0.146 0.262 0.204 0.389 0.312 0.366 0.306 0.64 0.717 1.062 0.955 0.244 0.204 0.515 0.373 0.756 0.58 0.438 0.273 0.892 0.523 1.327 0.802 0.616 0.383 1.32 0.577 1.977 0.871 0.84 0.325 1.73 0.498 2.613 0.658 1.158 0.244 2.349 0.118 3.522 0.14 1.428-0.128 2.834-0.471 4.177-0.971 0.517-0.273 1.093-0.416 1.587-0.737 0.395-0.274 0.851-0.444 1.235-0.736 0.359-0.283 0.725-0.558 1.099-0.821 0.231-0.184 0.401-0.435 0.648-0.599 0.258-0.15 0.487-0.355 0.656-0.602 0.248-0.457 0.74-0.712 0.991-1.168 0.333-0.402 0.598-0.852 0.894-1.281 0.247-0.347 0.409-0.744 0.604-1.12 0.554-1.045 0.947-2.171 1.218-3.321 0.192-0.716 0.211-1.463 0.316-2.194 0.065-0.808 0.089-1.63-0.059-2.43-0.096-1.068-0.292-2.131-0.651-3.143-0.149-0.414-0.251-0.847-0.446-1.243-0.425-0.835-0.813-1.694-1.338-2.472-0.255-0.32-0.498-0.651-0.736-0.984-0.148-0.183-0.343-0.325-0.473-0.523-0.161-0.294-0.423-0.506-0.652-0.743-0.146-0.145-0.282-0.302-0.455-0.416-0.354-0.186-0.563-0.552-0.916-0.74-0.464-0.378-0.981-0.684-1.474-1.022-1.14-0.605-2.302-1.208-3.57-1.491-0.847-0.192-1.697-0.409-2.57-0.428-0.564 0.007-1.125-0.189-1.687-0.066zM10.352 6.471c1.176-0.042 2.353-0.011 3.53-0.020 3.896 0.008 7.792-0.015 11.688 0.011-0.26 0.304-0.558 0.572-0.835 0.861-0.171 0.185-0.413 0.28-0.59 0.458-0.595 0.593-1.184 1.193-1.783 1.782-0.263 0.194-0.531 0.448-0.888 0.409-3.384 0.008-6.768-0.001-10.152 0.003 0 4.194-0 8.388 0 12.581 4.455 0.009 8.911-0.016 13.365 0.012-0.105 0.124-0.222 0.237-0.332 0.357-0.159 0.166-0.249 0.386-0.419 0.545-0.365 0.362-0.729 0.726-1.092 1.089-0.178 0.182-0.377 0.346-0.52 0.559-0.144 0.256-0.362 0.455-0.567 0.661-0.092 0.083-0.187 0.187-0.332 0.16-0.907 0.044-1.815 0.001-2.723 0.015-2.995-0.011-5.992 0.023-8.986-0.017-0.308-0.339-0.644-0.652-0.962-0.981-0.171-0.185-0.413-0.28-0.59-0.458-0.324-0.32-0.639-0.648-0.963-0.967-0.19-0.192-0.471-0.274-0.624-0.505-0.009-0.096-0.026-0.287-0.035-0.383-0.011-1.678 0.006-3.357-0.001-5.035 0.019-0.481-0.153-0.944-0.13-1.425 0.003-1.888 0.008-3.775-0.002-5.663 0.026-0.197-0.064-0.455 0.117-0.599 0.258-0.244 0.491-0.517 0.769-0.738 0.498-0.284 0.811-0.786 1.258-1.132 0.506-0.288 0.819-0.804 1.28-1.147 0.198-0.11 0.37-0.26 0.517-0.432zM18.493 12.716c0.611-0.090 1.227-0.131 1.845-0.094 0.069 0.215 0.237 0.366 0.364 0.545 0.109 0.18 0.257 0.331 0.378 0.502 0.137 0.242 0.371 0.414 0.481 0.674 0.058 0.121 0.134 0.286 0.024 0.396-0.353 0.379-0.611 0.835-0.952 1.223 0.388 0.347 0.73 0.74 1.117 1.087 0.021 0.577 0.019 1.154 0.018 1.731-0.629 0-1.258 0-1.887-0-0.001-0.487-0.001-0.974-0.004-1.461-0.187-0.161-0.339-0.363-0.54-0.508-0.574-0.088-1.16-0.003-1.733-0.096-0.48-0.088-0.972-0.099-1.458-0.071-0.157-0.023-0.288 0.057-0.418 0.125-0.001 0.559 0.008 1.118 0.003 1.678 0.112 0.367-0.285 0.459-0.507 0.624-0.429 0.224-0.849 0.463-1.251 0.734-0.007-2.302-0.026-4.606 0.010-6.908 0.047-0.045 0.093-0.091 0.138-0.138 1.456-0.059 2.916 0.030 4.371-0.044M15.727 13.875c-0 0.503-0 1.006 0 1.509 1.204-0.026 2.413 0.055 3.614-0.037 0.249-0.171 0.337-0.481 0.56-0.678-0.209-0.337-0.497-0.701-0.936-0.704-0.371-0.101-0.76-0.088-1.141-0.095-0.699 0.001-1.398 0.005-2.097 0.004z"></path>
</svg>
