<!-- Generated by IcoMoon.io -->
<svg version="1.1" xmlns="http://www.w3.org/2000/svg" width="32" height="32" viewBox="0 0 32 32">
<path d="M31.981 24.327c-0.106-0.357-0.77-2.508-1.888-4.571-1.473-2.718-2.74-4.661-4.85-6.634-0.679-0.635-1.322-1.202-1.991-1.711h0.001c0 0-0.005-0.004-0.014-0.011-0.012-0.009-0.025-0.019-0.038-0.028-0.25-0.193-1.302-1.080-0.928-2.059 0.125-0.328 0.428-0.601 0.789-0.821l1.939-0.016v-0.719h-0c0 0 0-0 0-0s-1.135-0.386-3.122-0.258c-1.864 0.12-3.54 1.21-3.853 1.363-1.004-0.287-2.15-0.541-3.49-0.768-4.634-0.786-8.557 0.467-10.525 1.833-2.58 1.79-2.508 3.459-2.721 4.293-0.132 0.517-1.303 1.473-1.289 2.143v0.706l0.242 0.249 0.912-0.31 0.109-0.381c0.375-0.134 0.786-0.321 1.16-0.474 0.931-0.383 1.003-0.592 3.549-0.971 1.171-0.175 2.404-0.225 3.322-0.233 0.357 0.754 1.245 2.304 2.783 3.048 1 0.483 2.121 0.731 3.014 0.858l-0.117 0.589 1.776 0.263v-0.718l-0.001-0.001c0 0 0.001 0 0.001 0s-1.491-0.619-2.409-1.537c-0.624-0.624-0.774-1.572-0.806-2.115l0.006 0.001c1.503 0.286 2.816 0.492 5.956 1.694 0.581 0.222 1.122 0.466 1.616 0.712l-0.093 0.052 1.415 1.141 1.69 1.399v-0.718l-0.006-0.005c-0.025-0.031-1.95-2.416-5.185-4.011-2.673-1.319-4.869-1.97-7.91-2.118-3.324-0.161-5.774 0.266-5.774 0.266s0.069-1.477 2.578-2.654c2.182-1.024 5.615-1.195 9.556-0.19 5.567 1.42 7.465 3.838 9.86 6.337 1.519 1.585 2.916 3.816 3.796 5.36l-0.148-0.067 0.456 1.178 0.652 1.392v-0.723l-0.019-0.056zM30.094 20.473c-1.473-2.718-2.74-4.661-4.85-6.634-0.679-0.635-1.322-1.202-1.991-1.711l0.001 0c0 0-0.005-0.004-0.015-0.011-0.012-0.009-0.024-0.018-0.036-0.027-0.248-0.192-1.303-1.079-0.929-2.059 0.411-1.075 2.727-1.556 2.727-1.556s-1.135-0.386-3.122-0.258c-1.864 0.12-3.54 1.21-3.853 1.363-1.004-0.287-2.15-0.541-3.49-0.768-4.634-0.786-8.557 0.467-10.525 1.833-2.58 1.79-2.508 3.459-2.721 4.293-0.153 0.601-1.709 1.793-1.18 2.443 0.33 0.405 1.428-0.145 2.314-0.51 0.931-0.383 1.003-0.592 3.549-0.971 1.171-0.175 2.404-0.225 3.321-0.233 0.357 0.754 1.245 2.304 2.783 3.048 2.077 1.004 4.672 0.991 4.672 0.991s-1.491-0.619-2.409-1.537c-0.624-0.624-0.774-1.573-0.806-2.115l0.006 0.001c1.503 0.286 2.816 0.492 5.956 1.694 2.747 1.052 4.624 2.582 4.624 2.582s-1.929-2.406-5.185-4.012c-2.673-1.319-4.869-1.97-7.91-2.118-3.324-0.161-5.774 0.266-5.774 0.266s0.069-1.477 2.578-2.654c2.182-1.024 5.615-1.195 9.556-0.19 5.567 1.42 7.465 3.838 9.86 6.337 2.549 2.66 4.752 7.136 4.752 7.136s-0.68-2.365-1.903-4.623z"></path>
</svg>
