<!-- Generated by IcoMoon.io -->
<svg version="1.1" xmlns="http://www.w3.org/2000/svg" width="32" height="32" viewBox="0 0 32 32">
<path d="M19.771 8.656l-12.84 0.020-2.090 3.34h12.82l2.11-3.36zM14.221 20.806c-0.15 0-7.6 0.020-8.11 0.020 0.25-0.39 1.67-2.61 1.74-2.73h5.27l2.12-3.35-12.12 0.010-2.11 3.34h2.83l-3.84 6.060h16.15c0.29-0.45 5.65-9.020 5.9-9.41 0.22 0.33 1.66 2.62 1.9 3h-1.68l-2.1 3.34h5.91c0.090 0.14 1.83 2.88 1.92 3.020h4l-9.96-15.69c-0.39 0.61-7.73 12.24-7.82 12.39z"></path>
</svg>
