<!-- Generated by IcoMoon.io -->
<svg version="1.1" xmlns="http://www.w3.org/2000/svg" width="34" height="32" viewBox="0 0 34 32">
<path d="M30.712 0.747h-27.879c-0.654 0-1.249 0.266-1.677 0.695s-0.695 1.024-0.695 1.677v26.335c-0 0.654 0.266 1.25 0.695 1.678s1.024 0.695 1.677 0.695h27.879c0.654 0 1.249-0.266 1.677-0.695s0.695-1.024 0.695-1.678v-26.335c0-0.654-0.266-1.249-0.695-1.677s-1.023-0.695-1.677-0.695v0.693c0.465 0 0.882 0.188 1.187 0.492 0.304 0.305 0.491 0.723 0.492 1.187v26.335c-0 0.465-0.187 0.883-0.492 1.187s-0.723 0.492-1.187 0.492h-27.879c-0.465 0-0.882-0.187-1.187-0.492s-0.491-0.722-0.492-1.187v-26.335c0-0.464 0.187-0.882 0.492-1.187 0.305-0.304 0.723-0.491 1.187-0.492h27.879v-0.693zM16.689 20.602h-2.661c-0.291 0-0.525 0.235-0.525 0.527v2.654c0 0.29 0.234 0.529 0.525 0.529l0.006-0.003v0.003h2.65v-0.003l0.006 0.003c0.29 0 0.524-0.239 0.524-0.529v-2.654c0-0.292-0.234-0.527-0.524-0.527zM18.123 8.284h-2.7c-0.296 0-0.534 0.24-0.534 0.535v2.695c0 0.296 0.237 0.536 0.534 0.536h2.7c0.297 0 0.529-0.24 0.529-0.536v-2.695c0-0.295-0.231-0.535-0.529-0.535zM29.234 15.68v-7.798c0-0.767-0.624-1.391-1.39-1.391h-4.572c-0.769 0-1.391 0.623-1.391 1.391v4.571c0 0.768 0.622 1.39 1.391 1.39h3.091v-1.792h-2.157c-0.292 0-0.531-0.24-0.531-0.536v-2.695c0-0.295 0.239-0.535 0.531-0.535h2.702c0.297 0 0.535 0.24 0.535 0.535v5.923c0 0.295-0.238 0.535-0.535 0.535h-5.027v1.793h5.963c0.766 0 1.39-0.621 1.39-1.391zM29.229 26.078v-7.243h-7.464c-0.758 0-1.37 0.613-1.37 1.366v5.881h1.766v-4.954c0-0.292 0.234-0.527 0.526-0.527h1.242v5.476h1.767v-4.949c0-0.292 0.233-0.527 0.525-0.527h1.241v5.476h1.767zM19.059 13.843h-4.573c-0.767 0-1.389-0.621-1.389-1.39v-4.571c0-0.767 0.621-1.391 1.389-1.391h4.573c0.766 0 1.389 0.623 1.389 1.391v4.571c0 0.768-0.623 1.39-1.389 1.39zM18.98 24.709c0 0.756-0.613 1.369-1.369 1.369h-4.504c-0.759 0-1.37-0.613-1.37-1.369v-4.507c0-0.753 0.612-1.366 1.37-1.366h4.504c0.756 0 1.369 0.613 1.369 1.366v4.507zM11.662 15.68v-7.798c0-0.767-0.623-1.391-1.391-1.391h-4.572c-0.769 0-1.39 0.623-1.39 1.391v4.571c0 0.768 0.621 1.39 1.39 1.39h3.093v-1.792h-2.158c-0.295 0-0.533-0.24-0.533-0.536v-2.695c0-0.295 0.237-0.535 0.533-0.535h2.701c0.296 0 0.533 0.24 0.533 0.535v5.923c0 0.295-0.237 0.535-0.533 0.535h-5.026v1.793h5.961c0.768 0 1.391-0.621 1.391-1.391zM10.322 20.602v-1.766h-4.636c-0.758 0-1.371 0.613-1.371 1.366v4.507c0 0.756 0.613 1.369 1.371 1.369l4.636 0.005v-1.768h-3.714c-0.292 0-0.526-0.239-0.526-0.529l0.001-0.001h-0.001v-2.651h0.001l-0.001-0.004c0-0.292 0.234-0.527 0.526-0.527h3.714z"></path>
</svg>
