<!-- Generated by IcoMoon.io -->
<svg version="1.1" xmlns="http://www.w3.org/2000/svg" width="16" height="32" viewBox="0 0 16 32">
<path d="M12.639 0.286h0.431c0.072 0.071 0.144 0.141 0.217 0.21-0.056 0.26-0.074 0.526-0.152 0.782-0.068 0.224-0.014 0.461-0.047 0.688-0.066 0.229-0.26 0.406-0.287 0.648-0.188 1.311-0.383 2.621-0.61 3.926 0.034 0.027 0.1 0.081 0.133 0.108 0.069 0.377-0.249 0.677-0.186 1.054-0.015 0.023-0.045 0.071-0.060 0.094 0.084 0.078 0.167 0.156 0.252 0.233-0.072 0.483-0.137 0.968-0.231 1.447-0.051 0.38-0.103 0.761-0.179 1.138-0.042 0.354-0.117 0.705-0.148 1.060-0.017 0.038-0.050 0.114-0.067 0.153 0.386 0.013 0.774-0.017 1.16 0.013 0.234 0.072 0.412 0.254 0.611 0.389 0.218 0.151 0.387 0.401 0.343 0.677-0.035 0.365 0.057 0.723 0.062 1.087 0.153 0.33 0.352 0.635 0.546 0.941 0.098 0.155 0.105 0.343 0.145 0.516 0.113 0.381 0.329 0.753 0.263 1.164-0.117 0.706-0.249 1.41-0.377 2.114-0.030 0.124-0.054 0.25-0.081 0.375-0.057 0.266-0.164 0.525-0.145 0.801-0.016 0.231 0.13 0.423 0.203 0.633 0.086 0.24 0.261 0.444 0.492 0.556 0.124 0.019 0.247 0.047 0.37 0.075 0.051 0.057 0.103 0.115 0.154 0.173-0.135 0.325-0.479 0.435-0.766 0.584-0.237 0.095-0.495 0.073-0.745 0.075-0.116-0.002-0.239 0.005-0.343-0.057-0.087 0.013-0.212-0.048-0.272 0.038-0.056 0.133-0.086 0.276-0.141 0.41-0.027 0.061-0.054 0.122-0.081 0.183 0.004 0.187 0.027 0.372 0.035 0.559 0.007 0.145-0.078 0.275-0.092 0.418-0.013 0.173 0.015 0.352-0.045 0.52-0.053 0.243-0.103 0.488-0.141 0.735-0.018 0.391 0.165 0.766 0.112 1.158-0.112 0.164 0.066 0.346 0.004 0.522-0.104 0.358-0.005 0.741-0.135 1.096-0.056 0.16-0.074 0.346 0.015 0.499 0.061 0.238-0.135 0.397-0.223 0.591-0.042 0.321 0.026 0.648-0.038 0.967-0.082 0.37 0.011 0.753-0.059 1.125-0.066 0.328-0.022 0.664-0.034 0.996-0.012 0.020-0.036 0.059-0.048 0.078 0.046 0.144 0.053 0.297 0.052 0.447h-12.126c0.029-0.092 0.054-0.184 0.081-0.276 0.019-0.080 0.037-0.16 0.057-0.238 0.058-0.221 0.12-0.44 0.182-0.659 0.030-0.136 0.063-0.27 0.095-0.406 0.079-0.3 0.162-0.598 0.242-0.897 0.020-0.080 0.039-0.16 0.058-0.239 0.028-0.104 0.054-0.209 0.083-0.312 0.068-0.303 0.166-0.598 0.237-0.899 0.020-0.081 0.041-0.161 0.063-0.24 0.011-0.053 0.022-0.106 0.033-0.158 0.042-0.192 0.089-0.385 0.102-0.581-0.050-0.298-0.041-0.62-0.233-0.871-0.002-0.029-0.007-0.087-0.009-0.117-0.111-0.175-0.289-0.345-0.236-0.573 0.076-0.367 0.163-0.733 0.215-1.104 0.078-0.196 0.133-0.398 0.187-0.602 0.038-0.189 0.077-0.378 0.084-0.571 0.051-0.111 0.126-0.22 0.115-0.348 0.005-0.277-0.209-0.548-0.079-0.82 0.005-0.029 0.014-0.086 0.019-0.115 0.065-0.064 0.131-0.127 0.198-0.189 0.075-0.020 0.168-0.022 0.21-0.099 0.028-0.261-0.023-0.528 0.035-0.787 0.048-0.2-0.002-0.422 0.106-0.605 0.092-0.219 0.303-0.393 0.29-0.648 0.147-0.237 0.355-0.429 0.481-0.681-0.123-0.214-0.173-0.462-0.056-0.691 0.19-0.386 0.365-0.783 0.479-1.199 0.090-0.209 0.243-0.384 0.328-0.595 0.027-0.118 0.019-0.24 0.023-0.361 0.125-0.119 0.218-0.266 0.288-0.422 0.004-0.029 0.011-0.086 0.014-0.114 0.12-0.234 0.238-0.468 0.374-0.692-0.114 0.001-0.227 0.002-0.34 0.009-0.154 0.077-0.329 0.049-0.493 0.051-0.049-0.049-0.098-0.099-0.147-0.147 0-0.082 0-0.164 0-0.245 0.546-0.54 1.087-1.085 1.631-1.628 0.229-0.234 0.483-0.449 0.663-0.726-0.025-0.029-0.074-0.088-0.098-0.117-0.143-0.035-0.288-0.063-0.435-0.077-0.048-0.045-0.097-0.091-0.145-0.136-0.001-0.033-0.002-0.099-0.003-0.132 0.163-0.173 0.414-0.262 0.508-0.494-0.249 0.013-0.52 0.004-0.69-0.207 0.003-0.031 0.009-0.093 0.012-0.123 0.045-0.060 0.090-0.121 0.134-0.181-0.112-0.051-0.223-0.105-0.332-0.163 0.010-0.136 0.029-0.271 0.072-0.4 0.16-0.103 0.325-0.034 0.487 0.021 0.105-0.028 0.174-0.123 0.256-0.19 0.193 0.136 0.331 0.328 0.468 0.516 0.211 0.020 0.418 0.064 0.63 0.074 0.064-0.143 0.081-0.297 0.074-0.452-0.086-0.105-0.212-0.221-0.178-0.371 0.045-0.069 0.133-0.077 0.205-0.101 0.027 0.032 0.082 0.097 0.109 0.129 0.125 0.028 0.249 0.057 0.376 0.081 0.079-0.136 0.175-0.262 0.286-0.373 0.037-0.001 0.108-0.003 0.144-0.004 0.111 0.139 0.149 0.309 0.141 0.485 0.086-0.001 0.171-0.001 0.257-0.001-0.051-0.050-0.102-0.1-0.153-0.15-0.016-0.136 0.042-0.243 0.168-0.298 0.028-0.15 0.114-0.273 0.202-0.394-0.040-0.053-0.082-0.104-0.126-0.153-0.032-0.154 0.060-0.272 0.216-0.281 0.111 0.205 0.276 0.413 0.537 0.391 0.027-0.032 0.082-0.095 0.109-0.126 0.246 0.004 0.481-0.085 0.727-0.070 0.066-0.099 0.127-0.207 0.227-0.277 0.172-0.133 0.412-0.023 0.591-0.142-0.024-0.227-0.018-0.459 0.071-0.672 0.182-0.392 0.261-0.82 0.415-1.223 0.043-0.106 0.040-0.224 0.049-0.336-0.075 0.027-0.155 0.050-0.205 0.118-0.239 0.233-0.419 0.519-0.666 0.745-0.185 0.005-0.373 0.008-0.551-0.049-0.058 0.059-0.115 0.118-0.172 0.179-0.147-0.007-0.279-0.071-0.404-0.141 0.007 0.184 0.126 0.326 0.188 0.49 0.014 0.369 0.016 0.741 0.001 1.111-0.081 0.136-0.256 0.070-0.385 0.087-0.057-0.062-0.114-0.123-0.171-0.184-0.103 0.001-0.207 0.001-0.31 0.001-0.057-0.060-0.114-0.12-0.169-0.18-0.030 0.001-0.089 0.003-0.119 0.004-0.173 0.15-0.386 0.266-0.477 0.489-0.136-0.001-0.294-0.050-0.325-0.202-0.020-0.238-0.020-0.479 0-0.717 0.076-0.185 0.226-0.333 0.279-0.528 0.020-0.14 0.012-0.282 0.011-0.423-0.181 0.002-0.364 0.011-0.543-0.014-0.439-0.106-0.803 0.252-1.218 0.33-0.122 0.049-0.245 0.097-0.367 0.144-0.5 0.191-0.951 0.492-1.459 0.664-0.228 0.029-0.468 0.034-0.69-0.029-0.105-0.035-0.246-0.17-0.117-0.267 0.194-0.106 0.38-0.227 0.568-0.346 0.443-0.233 0.951-0.451 1.214-0.901 0.141 0.001 0.282 0.002 0.423-0.001 0.423-0.373 1.017-0.43 1.531-0.614 0-0.028 0-0.084 0-0.112-0.506 0.057-0.973 0.342-1.494 0.31-0.212-0.053-0.339 0.169-0.538 0.174-0.203 0.008-0.4 0.070-0.604 0.070-0.080 0.011-0.176-0.046-0.179-0.132-0.005-0.179 0.071-0.351 0.062-0.531-0.016-0.303 0.079-0.598 0.065-0.901-0.010-0.144 0.107-0.247 0.19-0.348 0.297 0.005 0.528-0.229 0.821-0.245 0.195-0.001 0.361-0.105 0.538-0.168 0.19-0.017 0.387-0.005 0.563-0.091 0.292-0.135 0.621-0.113 0.933-0.091 0.206 0.065 0.377 0.226 0.602 0.234 0.184 0.007 0.342 0.145 0.4 0.316 0.047 0.223-0.038 0.474 0.092 0.678 0.097 0.159 0.187 0.324 0.295 0.476 0.144 0.143 0.367 0.137 0.557 0.147 0.047 0.042 0.094 0.083 0.141 0.125 0.143-0.21 0.371-0.33 0.583-0.457 0.359-0.304 0.714-0.614 1.040-0.956 0-0.062 0-0.124 0.001-0.186 0.089-0.087 0.176-0.175 0.264-0.264 0.034-0.002 0.101-0.007 0.134-0.009 0.128-0.19 0.274-0.371 0.463-0.502 0.091-0.072 0.207-0.135 0.239-0.257 0.158-0.997 0.313-1.995 0.407-3 0.008-0.111 0.063-0.211 0.126-0.301zM9.404 10.572c-0.020 0.071-0.074 0.137-0.069 0.213 0.050 0.059 0.106 0.112 0.162 0.166 0.044-0.118 0.081-0.24 0.071-0.367-0.041-0.003-0.123-0.009-0.164-0.012zM10.103 11.083c0.215 0.172 0.354 0.442 0.304 0.721-0.091 0.15-0.203 0.291-0.353 0.386-0.056-0.023-0.112-0.048-0.166-0.074-0.046-0.167-0.218-0.233-0.341-0.335-0.115-0.111-0.286-0.073-0.429-0.066-0.064 0.051-0.095 0.129-0.131 0.2-0.053 0.141-0.151 0.257-0.219 0.391-0.083 0.002-0.165 0.004-0.248 0.005-0.069 0.045-0.145 0.081-0.2 0.143-0.007 0.187 0.017 0.389-0.117 0.542-0.004 0.029-0.013 0.089-0.017 0.118-0.045 0.070-0.063 0.148-0.055 0.234 0.051-0.047 0.101-0.094 0.151-0.141 0.032-0.001 0.095-0.001 0.126-0.002 0.121 0.117 0.239 0.239 0.324 0.386 0.001 0.102 0.002 0.204 0.004 0.307 0.052 0.083 0.109 0.163 0.176 0.236 0.013 0.169 0.017 0.352-0.113 0.48-0.002 0.067-0.005 0.134-0.006 0.202 0.198-0.005 0.386 0.068 0.584 0.072 0.045 0.134 0.113 0.257 0.217 0.354 0.064-0.001 0.128-0.002 0.192-0.002 0.234-0.231 0.47-0.465 0.642-0.749 0.032-0.059 0.065-0.117 0.099-0.175 0.027-0.259-0.049-0.535 0.043-0.782 0.017-0.062 0.040-0.122 0.068-0.179 0.005-0.029 0.016-0.087 0.022-0.116 0.106-0.284 0.127-0.595 0.102-0.897-0.013-0.023-0.038-0.070-0.051-0.093-0.011-0.31 0.002-0.62-0.003-0.929-0.19-0.196-0.432-0.363-0.51-0.639-0.027 0.136-0.059 0.271-0.093 0.405zM6.282 12.731c-0.013 0.287-0.009 0.578 0.066 0.858 0.063-0.069 0.118-0.147 0.159-0.231 0.049-0.185 0.207-0.342 0.131-0.547-0.068-0.068-0.135-0.138-0.208-0.199-0.072-0.032-0.147 0.053-0.148 0.119zM6.876 12.809c0.002 0.044 0.004 0.13 0.005 0.174 0.123-0.045 0.301-0.151 0.288-0.297-0.124-0.073-0.211 0.050-0.293 0.123zM8.724 15.233c0.042 0.066 0.069 0.139 0.082 0.217 0.051 0.063 0.104 0.126 0.126 0.207 0.025 0 0.075 0.001 0.1 0.002 0-0.091 0.001-0.182 0.001-0.273-0.049-0.048-0.098-0.096-0.146-0.145-0.041-0.002-0.121-0.005-0.162-0.007zM5.293 8.173c0.066 0.005 0.127 0.025 0.182 0.061 0.14 0.007 0.28 0.008 0.42 0.008 0.225 0.124 0.376 0.339 0.568 0.504 0.030 0.145-0.044 0.309-0.215 0.276-0.058-0.041-0.116-0.081-0.174-0.121-0.269-0.047-0.519 0.075-0.785 0.059-0.109-0.109-0.219-0.218-0.33-0.327-0.071-0.252 0.229-0.287 0.333-0.46zM4.635 8.479c0.071 0.071 0.143 0.141 0.217 0.209-0.001 0.084-0.016 0.222-0.131 0.213-0.194 0.022-0.314-0.178-0.304-0.352 0.086 0.007 0.159-0.016 0.218-0.071zM5.238 9.796c0.060-0.064 0.121-0.128 0.182-0.192 0.063 0.069 0.119 0.144 0.163 0.227 0.052 0.050 0.118 0.101 0.1 0.184-0.080 0.063-0.182 0.073-0.279 0.088-0.066 0.085-0.138 0.166-0.223 0.233-0.033-0.001-0.099-0.002-0.132-0.004-0.17-0.126-0.346-0.245-0.511-0.378 0.008-0.098-0.017-0.222 0.092-0.273 0.083-0.009 0.167-0.007 0.251-0.008 0.026 0.030 0.078 0.092 0.104 0.123 0.084-0.001 0.168-0.001 0.252-0.001z"></path>
</svg>
