<!-- Generated by IcoMoon.io -->
<svg version="1.1" xmlns="http://www.w3.org/2000/svg" width="25" height="32" viewBox="0 0 25 32">
<path d="M23.841 13.992c0.496 2.38 0.218 4.912-0.78 7.127-2.116 4.522-5.686 8.35-10.050 10.777-0.139 0.066-0.344 0.066-0.443-0.073-0.112-0.145-0.066-0.357 0.046-0.489 0.588-0.82 0.998-1.765 1.223-2.75 0.040-0.205 0.099-0.41 0.086-0.622-0.073-0.093-0.192-0.066-0.291-0.059-2.122 0.212-4.304-0.165-6.215-1.104-2.050-0.992-3.795-2.605-4.945-4.569-1.064-1.805-1.626-3.914-1.587-6.010 0.007-1.924 0.536-3.835 1.461-5.521 2.149-4.145 5.527-7.636 9.613-9.891 0.172-0.093 0.423-0.026 0.483 0.172 0.066 0.165-0.046 0.311-0.139 0.436-0.635 0.906-1.058 1.95-1.256 3.035-0.119 0.053-0.159 0.178-0.119 0.298 0.059 0.020 0.119 0.040 0.178 0.059 1.236-0.106 2.486-0.086 3.702 0.172 2.215 0.443 4.284 1.567 5.871 3.167 1.593 1.593 2.711 3.65 3.16 5.845zM16.813 17.674c0.575-1.772-0.112-3.848-1.613-4.945-0.945-0.721-2.182-1.038-3.352-0.866-1.263 0.172-2.426 0.912-3.127 1.964-0.476 0.727-0.767 1.587-0.76 2.459-0.033 1.17 0.43 2.34 1.236 3.18 0.707 0.76 1.686 1.256 2.711 1.388 1.045 0.139 2.136-0.106 3.021-0.681 0.893-0.575 1.58-1.474 1.884-2.499z"></path>
</svg>
