<!-- Generated by IcoMoon.io -->
<svg version="1.1" xmlns="http://www.w3.org/2000/svg" width="32" height="32" viewBox="0 0 32 32">
<path d="M17.809 1.273l1.829 8.044-3.891 6.256-6.201-3.953-1.829-8.044zM0.834 14.473l8.044-1.829 6.256 3.891-3.953 6.201-8.044 1.829zM14.096 31.503l-1.829-8.044 3.891-6.256 6.201 3.953 1.829 8.044zM31.215 18.254l-8.044 1.829-6.256-3.891 3.953-6.201 8.044-1.829zM17.027 2.636l1.402 6.146-3.114 4.854-4.895-3.032-1.402-6.146zM2.178 15.286l6.146-1.402 4.854 3.114-3.032 4.895-6.146 1.402zM14.896 30.161l-1.402-6.146 3.114-4.854 4.895 3.032 1.402 6.146zM29.884 17.486l-6.146 1.402-4.854-3.114 3.032-4.895 6.146-1.402z"></path>
</svg>
