<!-- Generated by IcoMoon.io -->
<svg version="1.1" xmlns="http://www.w3.org/2000/svg" width="40" height="32" viewBox="0 0 40 32">
<path d="M19.517 4.669c1.021-0.088 2.070 0.083 2.979 0.565 0.82 0.369 1.498 0.99 2.053 1.688 0.37 0.471 0.605 1.027 0.833 1.575 0.237 0.55 0.241 1.16 0.311 1.746 0.014 1.594-0.69 3.178-1.851 4.264-0.907 0.776-2.032 1.364-3.238 1.451-0.665 0.002-1.347 0.070-1.991-0.132-1.145-0.326-2.238-0.95-2.991-1.886-0.493-0.626-0.871-1.346-1.097-2.111-0.249-0.994-0.261-2.048 0.010-3.040 0.365-1.229 1.112-2.368 2.179-3.095 0.837-0.554 1.785-0.986 2.802-1.027zM18.959 5.228c-2.091 0.378-3.817 2.216-4.093 4.32-0.026 0.549 0.003 1.099 0.008 1.648 0.263 1.671 1.432 3.154 2.965 3.854 0.686 0.347 1.468 0.427 2.226 0.44 0.673-0.043 1.367-0.086 1.986-0.382 1.522-0.652 2.664-2.057 3.051-3.662 0.030-0.379 0.045-0.759 0.054-1.139 0.131-2.169-1.432-4.221-3.452-4.905-0.885-0.289-1.832-0.202-2.745-0.173zM10.949 16.237c0.517-0.055 1.041-0.043 1.559-0.009 1.582 0.234 3.081 1.128 3.945 2.487 0.409 0.692 0.75 1.441 0.851 2.246 0.232 1.477-0.203 3.022-1.097 4.209-1.463 1.961-4.309 2.756-6.558 1.76-1.857-0.721-3.2-2.542-3.421-4.51-0.025-0.659-0.059-1.335 0.117-1.979 0.249-0.884 0.668-1.733 1.294-2.412 0.848-0.962 2.054-1.575 3.311-1.792zM11.085 16.63c-2.218 0.235-4.138 2.108-4.434 4.317-0.104 0.982-0.067 2.018 0.369 2.923 0.598 1.409 1.869 2.492 3.336 2.908 1.018 0.252 2.112 0.25 3.111-0.088 1.081-0.355 1.997-1.121 2.644-2.046 0.886-1.29 1.054-2.981 0.621-4.465-0.387-1.161-1.167-2.2-2.225-2.829-1.003-0.658-2.243-0.853-3.421-0.721zM27.235 16.258c0.566-0.081 1.144-0.069 1.713-0.026 1.487 0.217 2.875 1.052 3.755 2.272 0.509 0.734 0.864 1.586 0.995 2.47 0.066 0.812 0.075 1.655-0.192 2.436-0.261 0.773-0.639 1.524-1.21 2.116-1.092 1.216-2.744 1.914-4.379 1.825-0.528-0.026-1.055-0.116-1.558-0.283-0.718-0.289-1.43-0.638-1.983-1.192-1.181-1.067-1.834-2.668-1.799-4.253-0.006-0.885 0.286-1.744 0.68-2.527 0.347-0.668 0.873-1.226 1.444-1.711 0.733-0.577 1.618-0.955 2.533-1.127zM25.91 17.093c-1.759 0.845-2.965 2.732-2.957 4.688 0.004 1.951 1.198 3.841 2.964 4.673 0.934 0.432 1.998 0.67 3.021 0.471 1.548-0.255 2.982-1.211 3.745-2.592 0.57-1.056 0.885-2.311 0.606-3.501-0.27-1.258-0.955-2.455-2.010-3.213-0.926-0.674-2.060-1.086-3.211-1.080-0.747 0.041-1.48 0.24-2.158 0.554zM18.959 5.228c0.913-0.029 1.861-0.115 2.745 0.173 2.020 0.684 3.583 2.736 3.452 4.905-0.009 0.38-0.023 0.76-0.054 1.139-0.387 1.605-1.529 3.010-3.051 3.662-0.618 0.296-1.313 0.339-1.986 0.382-0.758-0.013-1.541-0.092-2.226-0.44-1.533-0.699-2.702-2.182-2.965-3.854-0.005-0.549-0.034-1.1-0.008-1.648 0.276-2.104 2.002-3.942 4.093-4.32zM19.28 5.549c-1.916 0.256-3.575 1.804-3.98 3.693-0.184 0.889-0.16 1.838 0.158 2.696 0.462 1.324 1.537 2.423 2.856 2.903 1.308 0.488 2.833 0.387 4.050-0.306 0.989-0.592 1.821-1.505 2.185-2.611 0.423-1.108 0.367-2.376-0.094-3.462-0.52-1.281-1.635-2.294-2.943-2.73-0.712-0.266-1.488-0.21-2.233-0.183zM25.91 17.093c0.678-0.314 1.411-0.513 2.158-0.554 1.152-0.006 2.285 0.407 3.211 1.080 1.055 0.758 1.74 1.955 2.010 3.213 0.279 1.189-0.036 2.445-0.606 3.501-0.763 1.381-2.197 2.337-3.745 2.592-1.023 0.199-2.088-0.038-3.021-0.471-1.766-0.832-2.96-2.722-2.964-4.673-0.008-1.956 1.198-3.843 2.957-4.688zM27.443 17.014c-0.589 0.083-1.154 0.298-1.673 0.586-1.23 0.698-2.11 1.969-2.359 3.357-0.063 0.506-0.056 1.021-0.015 1.529 0.305 2.074 2.101 3.85 4.202 4.056 0.658 0.042 1.339 0.062 1.968-0.168 1.004-0.305 1.883-0.963 2.504-1.804 0.751-1.034 1.080-2.381 0.832-3.64-0.203-1.157-0.852-2.223-1.784-2.939-1.015-0.823-2.386-1.181-3.675-0.977zM11.085 16.63c1.178-0.132 2.418 0.063 3.421 0.721 1.058 0.629 1.838 1.667 2.225 2.829 0.433 1.484 0.265 3.175-0.621 4.465-0.647 0.925-1.563 1.691-2.644 2.046-0.999 0.338-2.093 0.34-3.111 0.088-1.467-0.416-2.738-1.499-3.336-2.908-0.436-0.905-0.473-1.941-0.369-2.923 0.296-2.21 2.216-4.082 4.434-4.317zM11.186 16.96c-1.128 0.167-2.214 0.696-2.977 1.553-0.779 0.838-1.232 1.962-1.268 3.105-0.045 1.209 0.404 2.42 1.195 3.333 1.231 1.436 3.364 2.044 5.155 1.409 1.031-0.317 1.904-1.034 2.509-1.915 0.646-0.989 0.945-2.218 0.745-3.389-0.169-1.336-0.979-2.547-2.082-3.302-0.95-0.649-2.139-0.925-3.278-0.795zM19.28 5.549c0.745-0.027 1.521-0.083 2.233 0.183 1.307 0.436 2.423 1.449 2.943 2.73 0.46 1.086 0.517 2.355 0.094 3.462-0.363 1.107-1.196 2.019-2.185 2.611-1.217 0.693-2.742 0.793-4.050 0.306-1.319-0.48-2.394-1.579-2.856-2.903-0.318-0.857-0.342-1.806-0.158-2.696 0.404-1.889 2.064-3.437 3.98-3.693zM19.443 5.872c-0.536 0.045-1.050 0.229-1.525 0.472-1.276 0.621-2.178 1.922-2.356 3.324-0.137 0.839 0.014 1.701 0.333 2.481 0.614 1.343 1.897 2.393 3.376 2.598 0.867 0.076 1.774 0.047 2.578-0.326 1.269-0.581 2.259-1.764 2.539-3.14 0.268-0.93 0.055-1.909-0.276-2.793-0.346-0.79-0.929-1.477-1.659-1.94-0.877-0.589-1.967-0.799-3.009-0.678zM11.186 16.96c1.139-0.13 2.328 0.146 3.278 0.795 1.103 0.755 1.913 1.966 2.082 3.302 0.2 1.172-0.099 2.4-0.745 3.389-0.605 0.881-1.479 1.598-2.509 1.915-1.791 0.635-3.924 0.026-5.155-1.409-0.791-0.913-1.24-2.124-1.195-3.333 0.036-1.143 0.489-2.267 1.268-3.105 0.763-0.857 1.849-1.387 2.977-1.553zM11.424 17.273c-0.731 0.075-1.463 0.281-2.072 0.704-1.127 0.695-1.89 1.934-2.045 3.245-0.154 1.096 0.155 2.233 0.776 3.142 0.589 0.842 1.475 1.465 2.461 1.75 0.565 0.137 1.152 0.137 1.73 0.116 1.945-0.144 3.642-1.748 3.947-3.664 0.051-0.52 0.052-1.048 0.002-1.569-0.197-1.169-0.892-2.226-1.839-2.929-0.845-0.621-1.928-0.83-2.958-0.796zM27.443 17.014c1.289-0.204 2.659 0.154 3.675 0.977 0.933 0.715 1.582 1.781 1.784 2.939 0.248 1.259-0.081 2.607-0.832 3.64-0.621 0.84-1.5 1.499-2.504 1.804-0.63 0.23-1.31 0.21-1.968 0.168-2.1-0.206-3.897-1.982-4.202-4.056-0.041-0.508-0.048-1.023 0.015-1.529 0.249-1.388 1.128-2.659 2.359-3.357 0.519-0.289 1.084-0.503 1.673-0.586zM27.608 17.585c-0.721 0.107-1.409 0.41-1.99 0.849-0.897 0.646-1.48 1.687-1.634 2.775-0.182 1.132 0.187 2.315 0.893 3.207 0.772 0.911 1.913 1.502 3.108 1.577 0.769 0.002 1.561-0.148 2.224-0.554 0.988-0.513 1.73-1.472 1.995-2.552 0.232-0.68 0.265-1.433 0.032-2.118-0.252-1.061-0.923-2.048-1.89-2.578-0.794-0.541-1.796-0.699-2.738-0.605zM19.443 5.872c1.043-0.12 2.132 0.089 3.009 0.678 0.73 0.463 1.312 1.15 1.659 1.94 0.331 0.884 0.544 1.863 0.276 2.793-0.28 1.375-1.27 2.559-2.539 3.14-0.804 0.372-1.711 0.402-2.578 0.326-1.479-0.205-2.761-1.255-3.376-2.598-0.318-0.78-0.47-1.643-0.333-2.481 0.178-1.403 1.080-2.704 2.356-3.324 0.476-0.244 0.99-0.427 1.525-0.472zM17.691 7.544c-0.753 0.614-1.292 1.543-1.297 2.53-0.002 0.387-0.023 0.782 0.081 1.159 0.149 0.559 0.458 1.063 0.815 1.512 0.598 0.643 1.423 1.061 2.286 1.206 0.428 0.029 0.857-0.002 1.278-0.083 0.74-0.173 1.392-0.613 1.884-1.186 1.302-1.37 1.141-3.786-0.273-5.018-0.653-0.661-1.586-0.944-2.492-1.007-0.827 0.033-1.661 0.329-2.281 0.887zM11.424 17.273c1.030-0.035 2.113 0.175 2.958 0.796 0.947 0.703 1.642 1.76 1.839 2.929 0.051 0.52 0.049 1.048-0.002 1.569-0.305 1.917-2.002 3.52-3.947 3.664-0.577 0.021-1.165 0.021-1.73-0.116-0.986-0.285-1.872-0.908-2.461-1.75-0.621-0.909-0.93-2.046-0.776-3.142 0.155-1.31 0.918-2.55 2.045-3.245 0.61-0.423 1.341-0.63 2.072-0.704zM10.894 18.234c-0.413 0.164-0.857 0.277-1.213 0.553-0.237 0.188-0.452 0.403-0.66 0.622-0.32 0.325-0.47 0.767-0.699 1.152-0.091 0.401-0.195 0.806-0.187 1.221-0.004 0.411 0.112 0.808 0.193 1.207 0.232 0.409 0.388 0.873 0.735 1.206 0.691 0.755 1.695 1.217 2.722 1.225 0.546 0.052 1.051-0.19 1.563-0.338 0.612-0.346 1.131-0.85 1.533-1.424 0.755-1.24 0.685-2.955-0.232-4.095-0.463-0.644-1.166-1.066-1.905-1.325-0.61-0.117-1.243-0.164-1.851-0.005zM27.608 17.585c0.942-0.093 1.944 0.065 2.738 0.605 0.966 0.53 1.638 1.517 1.89 2.578 0.233 0.685 0.2 1.438-0.032 2.118-0.265 1.080-1.007 2.039-1.995 2.552-0.663 0.406-1.455 0.556-2.224 0.554-1.195-0.075-2.336-0.666-3.108-1.577-0.706-0.892-1.075-2.075-0.893-3.207 0.153-1.088 0.737-2.129 1.634-2.775 0.581-0.439 1.269-0.743 1.99-0.849zM27.372 18.154c-0.042 0.033-0.123 0.097-0.165 0.13-0.119 0.007-0.238 0.015-0.356 0.026-0.35 0.257-0.751 0.443-1.073 0.741-0.403 0.317-0.696 0.752-0.913 1.212-0.113 0.273-0.204 0.554-0.353 0.811 0.026 0.107 0.036 0.216 0.031 0.326-0.063 0.176-0.113 0.359-0.105 0.549 0.137 0.259 0.108 0.565 0.221 0.832 0.157 0.391 0.293 0.8 0.564 1.132 0.427 0.536 0.97 1.006 1.626 1.229 0.198 0.067 0.388 0.155 0.568 0.261 0.043-0.009 0.129-0.026 0.172-0.035 0.155 0.057 0.31 0.14 0.48 0.121 0.416-0.044 0.874-0.024 1.217-0.306 0.043 0.013 0.13 0.039 0.173 0.053 0.461-0.333 1.008-0.552 1.371-1.010 0.085-0.004 0.17-0.007 0.257-0.010-0.024-0.049-0.071-0.148-0.095-0.197 0.177-0.217 0.334-0.451 0.476-0.692 0.002-0.055 0.008-0.164 0.010-0.219 0.074-0.078 0.147-0.157 0.218-0.237 0.014-0.233 0.060-0.461 0.149-0.677 0.023-0.289 0.023-0.578 0.020-0.867-0.034-0.038-0.102-0.116-0.136-0.153-0.006-0.155-0.018-0.308-0.032-0.461-0.211-0.379-0.384-0.781-0.653-1.125 0.008-0.062 0.025-0.186 0.034-0.248-0.083-0.003-0.167-0.006-0.249-0.010-0.233-0.239-0.452-0.515-0.766-0.652-0.219-0.097-0.423-0.223-0.605-0.379-0.052 0.022-0.157 0.067-0.209 0.089-0.076-0.077-0.151-0.154-0.226-0.231-0.549-0.092-1.105-0.117-1.653-0.004zM17.691 7.544c0.62-0.558 1.454-0.854 2.281-0.887 0.905 0.063 1.839 0.346 2.492 1.007 1.415 1.232 1.575 3.648 0.273 5.018-0.492 0.573-1.144 1.013-1.884 1.186-0.421 0.082-0.849 0.112-1.278 0.083-0.863-0.145-1.688-0.563-2.286-1.206-0.357-0.449-0.666-0.953-0.815-1.512-0.104-0.377-0.083-0.772-0.081-1.159 0.005-0.987 0.544-1.916 1.297-2.53zM19.448 7.656c-0.986 0.129-1.742 0.962-2.077 1.855-0.146 0.667-0.176 1.416 0.171 2.031 0.239 0.43 0.562 0.826 0.978 1.095 0.682 0.379 1.517 0.589 2.277 0.328 0.667-0.269 1.324-0.704 1.64-1.374 0.433-0.78 0.393-1.774-0.008-2.558-0.163-0.431-0.537-0.722-0.897-0.982-0.589-0.445-1.379-0.451-2.083-0.394zM27.372 18.154c0.548-0.113 1.104-0.088 1.653 0.004 0.075 0.077 0.15 0.154 0.226 0.231 0.052-0.022 0.157-0.067 0.209-0.089 0.181 0.156 0.386 0.282 0.605 0.379 0.314 0.137 0.533 0.413 0.766 0.652 0.083 0.003 0.166 0.006 0.249 0.010-0.009 0.062-0.026 0.186-0.034 0.248 0.269 0.344 0.442 0.746 0.653 1.125 0.014 0.153 0.026 0.306 0.032 0.461 0.034 0.038 0.102 0.115 0.136 0.153 0.003 0.289 0.003 0.578-0.020 0.867-0.089 0.216-0.136 0.444-0.149 0.677-0.071 0.080-0.144 0.16-0.218 0.237-0.002 0.055-0.008 0.164-0.010 0.219-0.142 0.241-0.299 0.475-0.476 0.692 0.024 0.049 0.071 0.148 0.095 0.197-0.087 0.003-0.172 0.006-0.257 0.010-0.363 0.458-0.91 0.677-1.371 1.010-0.043-0.014-0.13-0.040-0.173-0.053-0.343 0.282-0.801 0.261-1.217 0.306-0.171 0.019-0.326-0.064-0.48-0.121-0.043 0.009-0.13 0.026-0.172 0.035-0.18-0.107-0.37-0.194-0.568-0.261-0.657-0.223-1.2-0.693-1.626-1.229-0.271-0.332-0.407-0.741-0.564-1.132-0.113-0.267-0.084-0.573-0.221-0.832-0.008-0.19 0.042-0.373 0.105-0.549 0.005-0.111-0.006-0.22-0.031-0.326 0.148-0.257 0.24-0.538 0.353-0.811 0.217-0.46 0.51-0.895 0.913-1.212 0.322-0.298 0.723-0.484 1.073-0.741 0.118-0.010 0.237-0.018 0.356-0.026 0.042-0.033 0.123-0.097 0.165-0.13zM27.652 18.999c-0.301 0.075-0.59 0.189-0.87 0.318-0.385 0.176-0.65 0.52-0.906 0.842-0.518 0.653-0.557 1.556-0.415 2.344 0.12 0.681 0.614 1.207 1.142 1.615 0.269 0.152 0.574 0.222 0.856 0.348 0.566 0.256 1.236 0.189 1.778-0.095 1.293-0.516 2.087-2.068 1.63-3.409-0.15-0.656-0.642-1.146-1.15-1.549-0.603-0.392-1.353-0.592-2.064-0.415zM10.894 18.234c0.608-0.16 1.241-0.112 1.851 0.005 0.739 0.259 1.442 0.681 1.905 1.325 0.917 1.14 0.986 2.855 0.232 4.095-0.403 0.573-0.921 1.077-1.533 1.424-0.512 0.148-1.017 0.391-1.563 0.338-1.027-0.009-2.031-0.471-2.722-1.225-0.346-0.333-0.503-0.797-0.735-1.206-0.081-0.399-0.197-0.796-0.193-1.207-0.008-0.415 0.096-0.82 0.187-1.221 0.229-0.386 0.379-0.828 0.699-1.152 0.209-0.219 0.423-0.434 0.66-0.622 0.357-0.276 0.8-0.39 1.213-0.553zM11.503 19.043c-0.511 0.063-1.015 0.245-1.421 0.565-0.457 0.356-0.755 0.876-0.954 1.412-0.269 0.853-0.020 1.802 0.523 2.493 0.454 0.537 1.118 0.882 1.811 0.98 0.694-0.010 1.455-0.094 2.006-0.559 0.44-0.371 0.845-0.843 0.936-1.43 0.107-0.658 0.103-1.37-0.171-1.987-0.302-0.488-0.692-0.966-1.23-1.2-0.472-0.194-0.984-0.346-1.5-0.274zM19.448 7.656c0.703-0.057 1.493-0.051 2.083 0.394 0.361 0.261 0.735 0.551 0.897 0.982 0.401 0.784 0.441 1.778 0.008 2.558-0.316 0.67-0.973 1.104-1.64 1.374-0.759 0.261-1.595 0.051-2.277-0.328-0.415-0.269-0.739-0.665-0.978-1.095-0.347-0.614-0.317-1.363-0.171-2.031 0.335-0.893 1.092-1.726 2.077-1.855zM27.652 18.999c0.711-0.176 1.461 0.023 2.064 0.415 0.508 0.403 1 0.893 1.15 1.549 0.456 1.34-0.338 2.893-1.63 3.409-0.542 0.284-1.212 0.35-1.778 0.095-0.282-0.126-0.587-0.196-0.856-0.348-0.528-0.408-1.022-0.934-1.142-1.615-0.141-0.788-0.103-1.691 0.415-2.344 0.257-0.322 0.521-0.666 0.906-0.842 0.28-0.129 0.569-0.244 0.87-0.318zM11.503 19.043c0.516-0.071 1.028 0.080 1.5 0.274 0.538 0.233 0.928 0.712 1.23 1.2 0.273 0.618 0.278 1.329 0.171 1.987-0.091 0.587-0.496 1.059-0.936 1.43-0.551 0.465-1.312 0.549-2.006 0.559-0.693-0.098-1.357-0.443-1.811-0.98-0.543-0.691-0.792-1.641-0.523-2.493 0.198-0.536 0.496-1.055 0.954-1.412 0.407-0.32 0.91-0.502 1.421-0.565z"></path>
</svg>
