<!-- Generated by IcoMoon.io -->
<svg version="1.1" xmlns="http://www.w3.org/2000/svg" width="22" height="32" viewBox="0 0 22 32">
<path d="M8.314 0.664c0.085-0.153 0.234-0.255 0.353-0.378 0.004 0.272-0.004 0.548 0 0.824l0.025 0.059 0.043 0.085c0.076 0.132 0.183 0.246 0.238 0.391 0.038 0.072 0.089 0.14 0.127 0.212s0.085 0.14 0.127 0.212c0.038 0.072 0.089 0.14 0.127 0.212s0.089 0.14 0.127 0.212 0.085 0.14 0.127 0.208c0.051 0.119 0.123 0.221 0.187 0.331 0.064 0.093 0.119 0.195 0.17 0.297 0.064 0.153 0.183 0.276 0.255 0.425 0.064 0.119 0.153 0.217 0.212 0.34 0.034 0.059 0.076 0.119 0.11 0.178 0.064 0.132 0.166 0.242 0.229 0.374 0.081 0.144 0.195 0.268 0.255 0.425 0.034 0.059 0.076 0.119 0.115 0.178l0.055 0.119c0.059 0.106 0.136 0.2 0.2 0.306 0.047 0.119 0.127 0.221 0.187 0.331 0.038 0.072 0.089 0.14 0.127 0.208 0.064 0.178 0.221 0.297 0.297 0.467 0.038 0.11 0.115 0.195 0.17 0.297 0.038 0.11 0.115 0.195 0.17 0.297 0.043 0.127 0.149 0.225 0.191 0.353 0.047 0.085 0.102 0.161 0.149 0.242 0.008 0.021 0.030 0.068 0.038 0.089 0.047 0.068 0.089 0.14 0.132 0.212 0.038 0.072 0.089 0.14 0.127 0.212 0.055 0.106 0.136 0.2 0.195 0.306 0.021 0.038 0.038 0.081 0.059 0.119 0.025 0.055 0.055 0.115 0.085 0.17 0.021 0.047 0.043 0.093 0.064 0.14 0.102 0.178 0.272 0.31 0.344 0.51 0.030 0.055 0.055 0.115 0.085 0.17 0.034 0.068 0.068 0.136 0.102 0.204 0.034 0.059 0.076 0.119 0.11 0.178 0.038 0.072 0.089 0.14 0.127 0.212 0.064 0.132 0.166 0.242 0.229 0.374 0.038 0.072 0.089 0.14 0.127 0.212 0.064 0.115 0.144 0.221 0.212 0.331 0.242 0.178 0.493 0.361 0.659 0.616 0.047 0.076 0.225 0.14 0.127 0.242-0.043 0.068-0.064 0.149-0.055 0.234-0.17-0.034-0.212 0.161-0.144 0.28 0.051 0.076 0.115 0.149 0.187 0.208-0.055 0.068-0.119 0.132-0.187 0.191-0.072 0.013-0.153-0.008-0.212 0.038-0.106 0-0.157 0.115-0.263 0.102-0.055 0.055-0.106 0.106-0.157 0.166-0.085 0-0.174 0-0.259 0-0.068-0.072-0.174-0.030-0.259-0.043-0.119-0.115-0.221-0.255-0.37-0.331-0.055-0.038-0.021-0.115-0.034-0.166-0.051-0.021-0.102-0.043-0.149-0.064-0.047-0.038-0.11-0.030-0.166-0.038-0.047-0.051-0.115-0.034-0.174-0.043-0.072-0.043-0.14-0.093-0.212-0.14-0.064-0.034-0.14-0.025-0.212-0.030-0.055-0.034-0.115-0.064-0.17-0.093-0.132-0.043-0.323-0.068-0.425 0.051-0.2 0.013-0.395 0.013-0.595 0.004-0.038-0.030-0.085-0.047-0.132-0.047-0.115-0.072-0.242-0.136-0.331-0.242-0.059 0-0.119-0.008-0.174-0.030-0.11-0.059-0.17-0.174-0.276-0.229-0.217-0.14-0.34-0.374-0.523-0.548l-0.089-0.004c-0.055-0.064-0.149-0.030-0.221-0.038-0.064 0.166-0.225 0.285-0.37 0.378-0.119-0.034-0.263 0.072-0.166 0.195l0.055 0.085c0.004 0.021 0.004 0.068 0.008 0.089 0.025 0.038 0.047 0.081 0.072 0.119 0.043 0.119 0.089 0.238 0.149 0.353 0.021 0.038 0.038 0.081 0.059 0.119 0.072 0.144 0.238 0.225 0.28 0.391 0.021 0.038 0.043 0.076 0.064 0.119 0.021 0.047 0.043 0.089 0.064 0.136l0.064 0.119c0 0.047 0.017 0.093 0.047 0.132l0.008 0.127c0.102 0.191 0.004 0.433 0.038 0.642 0.153 0.076 0.11 0.251 0.195 0.374 0.068 0.085 0.098 0.225 0.221 0.251 0.008 0.064 0.030 0.127 0.059 0.187 0.051 0.072 0.081 0.161 0.081 0.251 0.059 0.072 0.013 0.174 0.064 0.251l0.051 0.081c0.030 0.072 0.055 0.144 0.081 0.217 0.047 0.089 0.098 0.178 0.153 0.263 0.030 0.059 0.115 0.059 0.14 0.119 0.064 0.132 0.208 0.2 0.259 0.34 0.025 0.059 0.055 0.115 0.085 0.17 0.030 0.072 0.051 0.149 0.089 0.217l0.013 0.085c0.038 0.055 0.034 0.123 0.081 0.174-0.004 0.034-0.013 0.072-0.017 0.106-0.255-0.336-0.365-0.794-0.731-1.041-0.119-0.038-0.17-0.149-0.217-0.255-0.038-0.076-0.076-0.149-0.106-0.225-0.076-0.098-0.123-0.208-0.144-0.331-0.025-0.047-0.047-0.089-0.068-0.136-0.085-0.157-0.166-0.314-0.255-0.467-0.025-0.072-0.068-0.153-0.157-0.157-0.004 0.102-0.008 0.208 0.055 0.293 0.030 0.093 0.072 0.178 0.132 0.255 0.059 0.089 0.064 0.191 0.098 0.293 0.030 0.055 0.059 0.11 0.089 0.17 0.013 0.064 0.034 0.123 0.064 0.178 0.034 0.051 0.030 0.11 0.038 0.17 0.025 0.064 0.089 0.11 0.081 0.183l-0.102 0.013 0.059-0.072c-0.030-0.038-0.072-0.064-0.119-0.064-0.025-0.064-0.051-0.123-0.081-0.183-0.115-0.149-0.183-0.319-0.289-0.472-0.008-0.025-0.030-0.081-0.038-0.106h-0.081l-0.004-0.106c-0.068-0.089-0.025-0.221-0.089-0.319h-0.204c0.013 0.089-0.030 0.2 0.038 0.276l0.013 0.085 0.043 0.123c-0.089-0.038-0.089-0.132-0.127-0.208l-0.013-0.085c-0.025-0.038-0.043-0.081-0.047-0.127-0.021-0.038-0.034-0.081-0.034-0.127 0.076-0.059 0.136-0.14 0.17-0.234 0.081-0.055 0.153-0.123 0.221-0.191-0.038-0.034-0.055-0.085-0.051-0.136-0.093-0.115-0.204-0.208-0.289-0.327-0.081-0.098-0.208-0.14-0.327-0.11-0.043 0.059-0.098 0.106-0.161 0.14-0.051-0.085-0.183-0.064-0.259-0.025l-0.085 0.047c-0.047 0.004-0.089 0.021-0.127 0.043-0.093 0-0.149 0.076-0.212 0.132-0.059 0.008-0.115 0.008-0.174 0.013-0.047 0.051-0.119 0.034-0.178 0.043-0.013 0.051-0.043 0.098-0.081 0.136-0.017-0.068-0.059-0.123-0.098-0.178 0.034-0.102 0.093-0.208 0.208-0.229-0.021-0.11 0.051-0.272-0.051-0.348 0.051-0.038 0.11-0.076 0.166-0.106 0.034 0.059 0.072 0.059 0.119 0.004 0.144-0.004 0.289 0 0.433 0-0.017-0.076 0.183-0.161 0.043-0.187 0.098-0.081 0.212-0.136 0.314-0.212-0.076-0.098-0.187-0.149-0.289-0.212-0.013-0.021-0.038-0.068-0.047-0.089-0.004-0.021-0.008-0.064-0.013-0.085-0.030-0.11-0.115-0.187-0.132-0.297-0.038-0.098-0.043-0.204-0.102-0.293 0.025-0.102-0.025-0.242-0.14-0.251 0-0.017 0-0.055 0-0.076-0.064 0.008-0.14-0.017-0.191 0.038l-0.089 0.013c-0.085 0.051-0.17 0.093-0.259 0.132-0.119 0.089-0.259 0.132-0.382 0.217-0.064 0.025-0.123 0.068-0.17 0.119l-0.106-0.055c-0.021-0.106 0.064-0.149 0.144-0.191 0.059-0.144 0.225-0.191 0.336-0.285-0.017-0.030-0.047-0.089-0.064-0.119l-0.089 0.043c-0.043 0.008-0.089 0.021-0.127 0.043-0.106 0.043-0.217 0.081-0.302 0.157-0.043 0.013-0.085 0.025-0.127 0.030-0.034-0.038-0.072-0.072-0.106-0.11 0.004-0.051-0.004-0.127 0.064-0.136 0.191-0.047 0.319-0.225 0.506-0.285-0.017-0.025-0.047-0.072-0.064-0.093 0.021-0.047 0.051-0.085 0.089-0.119l0.004 0.102h0.11c0.047-0.047 0.093-0.098 0.14-0.14-0.013-0.081 0.017-0.166 0.081-0.217 0.038-0.043-0.098-0.115 0.013-0.115-0.043-0.072-0.089-0.144-0.144-0.208-0.072 0.004-0.153-0.008-0.221 0.025-0.081 0.047-0.136 0.132-0.229 0.157-0.008 0.025-0.021 0.072-0.026 0.098-0.034-0.025-0.064-0.051-0.098-0.076-0.004 0.038-0.008 0.119-0.008 0.157-0.102-0.093-0.089-0.234-0.085-0.357h0.072l0.055-0.098c-0.098-0.098-0.059-0.306-0.238-0.293-0.085-0.072-0.221 0.017-0.293-0.072-0.051 0-0.102 0-0.153 0 0.021-0.043 0.043-0.085 0.059-0.127l-0.093-0.004c-0.013-0.068 0.026-0.174-0.064-0.2-0.064-0.017-0.132-0.034-0.195-0.051 0.051-0.064 0.043-0.144 0.047-0.221-0.132 0.038-0.183 0.166-0.272 0.251l-0.030-0.038 0.051-0.132c-0.072 0.059-0.144 0.119-0.242 0.132-0.008-0.068 0.047-0.225-0.047-0.229l0.030-0.085c0.043-0.076 0.102-0.144 0.132-0.225l-0.123-0.004c-0.043 0.047-0.085 0.089-0.127 0.136-0.047-0.123-0.14 0.017-0.195 0.055-0.106-0.081-0.242-0.038-0.365-0.038-0.013-0.093 0.021-0.191 0.089-0.259 0.093-0.106 0.161-0.229 0.268-0.327 0.017-0.034 0.034-0.068 0.051-0.102-0.038-0.051-0.068-0.11-0.093-0.166l-0.038-0.093c-0.059-0.017-0.132-0.093-0.178-0.013-0.098 0.017-0.217-0.034-0.297 0.038-0.072-0.008-0.149 0-0.217 0.017-0.017-0.043-0.030-0.085-0.047-0.127 0.076-0.064 0.187-0.034 0.263-0.093l0.127-0.008c0.043-0.051 0.11-0.034 0.17-0.047 0.038-0.025 0.085-0.043 0.132-0.043 0.047-0.059 0.11-0.106 0.183-0.136 0-0.017 0-0.059 0-0.076-0.051-0.004-0.106 0.008-0.149 0.043l-0.085 0.008c-0.043 0.051-0.115 0.034-0.17 0.043-0.11 0.064-0.293 0.064-0.378-0.043-0.076-0.021-0.157-0.004-0.234-0.008v-0.085l-0.106-0.004c-0.047-0.059-0.127-0.034-0.195-0.043v-0.123c-0.076 0-0.153 0-0.229 0 0.174-0.166 0.293-0.374 0.429-0.569 0.026-0.059 0.055-0.115 0.085-0.17 0.034-0.072 0.072-0.149 0.11-0.221 0.043-0.064 0.068-0.136 0.085-0.212 0.030-0.055 0.059-0.11 0.089-0.17 0.047-0.072-0.004-0.217 0.115-0.234 0.11-0.030 0.174 0.081 0.272 0.115 0.072 0.038 0.14 0.089 0.212 0.127 0.098 0.034 0.178 0.102 0.268 0.153 0.119 0.059 0.221 0.149 0.34 0.212 0.081 0.038 0.144 0.098 0.229 0.132-0.030 0.064-0.055 0.123-0.085 0.187 0.221 0.187 0.497 0.302 0.714 0.501-0.115 0.026-0.059 0.144-0.098 0.221l-0.072-0.072-0.093-0.004c-0.064-0.093-0.144 0-0.161 0.072 0.17 0.064 0.285 0.229 0.463 0.28 0.119 0.059 0.221 0.153 0.34 0.212 0.072 0.038 0.14 0.085 0.208 0.127-0.004-0.098-0.030-0.212 0.059-0.28 0.085-0.038 0.174 0.017 0.255 0.038 0.136 0.157 0.361 0.246 0.429 0.455-0.043 0.021-0.055 0.068-0.038 0.11 0.004 0.008 0.008 0.017 0.017 0.021 0.025 0.055 0.068 0.102 0.123 0.123 0.072 0.038 0.153 0.021 0.234 0.025 0 0.021 0 0.059 0 0.081 0.098-0.008 0.191 0.021 0.272 0.076 0.166 0.064 0.276 0.204 0.433 0.285l0.102 0.038c0 0.017 0 0.055 0 0.076h0.161c0.021 0.055 0.043 0.115 0.064 0.17h0.072v0.102l0.102-0.093-0.008 0.136c0.047-0.043 0.093-0.093 0.136-0.14h0.11c0 0.025 0 0.068 0.004 0.093 0.055 0.004 0.11-0.013 0.157-0.047l0.098 0.055c0-0.021 0-0.064 0-0.085l-0.106-0.034c-0.123-0.089-0.238-0.195-0.378-0.259-0.123-0.068-0.221-0.178-0.348-0.238-0.085-0.043-0.161-0.102-0.246-0.144-0.068-0.025-0.119-0.081-0.17-0.132-0.064-0.008-0.123-0.030-0.183-0.059-0.076-0.055-0.166-0.085-0.259-0.081-0.11-0.217-0.242-0.438-0.459-0.569-0.217-0.259-0.574-0.293-0.845-0.472-0.059-0.034-0.119-0.076-0.178-0.11-0.076-0.038-0.144-0.093-0.221-0.132 0.008-0.055 0.017-0.11 0.026-0.166l-0.068-0.059 0.055-0.013 0.123 0.072c0.072 0.030 0.144 0.055 0.217 0.081l0.085 0.047c0.059 0.026 0.119 0.059 0.174 0.098 0.030-0.043 0.072-0.072 0.119-0.085 0.004-0.021 0.017-0.064 0.026-0.085 0.11-0.021 0.2 0.051 0.28 0.115 0.047-0.047 0.098 0.017 0.149 0.008 0.051 0 0.102 0.008 0.149 0.030 0.072 0.038 0.144 0.076 0.221 0.11 0.093 0.051 0.191 0.098 0.289 0.144 0.085 0.043 0.17 0.081 0.255 0.132 0.055 0.025 0.115 0.047 0.178 0.064l0.123 0.038c-0.072-0.093-0.187-0.149-0.289-0.208-0.119-0.064-0.217-0.153-0.34-0.212-0.072-0.043-0.14-0.089-0.212-0.127-0.059-0.034-0.119-0.076-0.178-0.11-0.072-0.038-0.14-0.085-0.212-0.127-0.132-0.059-0.234-0.178-0.378-0.217-0.047-0.026-0.089-0.055-0.132-0.085-0.068-0.034-0.14-0.068-0.208-0.098-0.098 0-0.195 0-0.297 0-0.051 0.021-0.115 0.038-0.149 0.085 0.004 0.064 0.013 0.127 0.026 0.191-0.085-0.064-0.174-0.123-0.268-0.178-0.085-0.043-0.161-0.102-0.242-0.149-0.153-0.038-0.289-0.132-0.425-0.212-0.047-0.021-0.093-0.043-0.14-0.059-0.106-0.072-0.212-0.136-0.327-0.191-0.043-0.026-0.157-0.055-0.085-0.115 0.059-0.047 0.14-0.021 0.208-0.034 0.047-0.055 0.123-0.034 0.187-0.038 0.008-0.064-0.021-0.144 0.043-0.187 0.008-0.115-0.021-0.234 0.026-0.34 0.178-0.234 0.34-0.48 0.565-0.671 0.008-0.064 0.030-0.127 0.059-0.183s0.059-0.11 0.085-0.17c0.089-0.183 0.178-0.365 0.251-0.552l0.047-0.085c0.034-0.068 0.068-0.136 0.102-0.204 0.013-0.076 0.043-0.149 0.085-0.212 0.021-0.047 0.047-0.089 0.068-0.136 0.030-0.055 0.055-0.115 0.085-0.17 0.026-0.072 0.051-0.144 0.081-0.212 0.021-0.038 0.043-0.076 0.064-0.119l0.055-0.089c0.004-0.021 0.008-0.068 0.013-0.089 0.034-0.055 0.064-0.115 0.093-0.174 0.038-0.064 0.068-0.136 0.081-0.212 0.013-0.021 0.034-0.064 0.043-0.089l0.064-0.119c0.043-0.119 0.089-0.238 0.149-0.348 0.026-0.085 0.059-0.17 0.102-0.246 0.021-0.047 0.047-0.089 0.068-0.136 0.017-0.042 0.034-0.085 0.042-0.127 0.017-0.115 0.115-0.187 0.123-0.297l0.047-0.085 0.043-0.085c0.017-0.106 0.055-0.17 0.085-0.242zM5.795 8.97c-0.055 0.076-0.11 0.153-0.157 0.238l-0.043 0.085c-0.008 0.030-0.026 0.089-0.038 0.119 0.098-0.11 0.259-0.153 0.323-0.293 0.064-0.068-0.004-0.174-0.085-0.149zM10.239 9.887c0.030 0.038 0.076 0.055 0.123 0.051 0.025-0.059-0.115-0.132-0.123-0.051zM9.538 13.592c-0.038 0.059-0.119 0.047-0.17 0.085-0.059 0.004-0.115 0.013-0.17 0.034-0.081 0.025-0.132 0.11-0.115 0.195 0.055 0.004 0.11-0.013 0.153-0.047h0.085l0.064 0.043c0.068-0.072 0.166-0.106 0.263-0.089-0.008-0.025-0.025-0.076-0.038-0.102-0.013-0.047-0.043-0.085-0.072-0.119v0zM8.382 13.766c-0.025 0.034-0.051 0.068-0.072 0.106l-0.030 0.064c0.025 0.136 0.174 0.072 0.255 0.030 0-0.025 0-0.076 0-0.102-0.059-0.013-0.102-0.059-0.153-0.098v0zM3.798 9.743c0.11-0.047 0.217-0.102 0.319-0.166-0.144 0.263-0.161 0.565-0.238 0.854 0.030 0.076 0.009 0.157-0.047 0.217-0.004 0.021-0.013 0.064-0.013 0.085-0.021 0.043-0.038 0.085-0.047 0.132-0.038 0.064-0.021 0.144-0.059 0.208-0.038 0.072-0.059 0.157-0.127 0.212l-0.017-0.115c-0.14 0.132-0.302 0.268-0.348 0.459-0.042 0.064-0.030 0.14-0.034 0.212-0.055 0.051-0.034 0.127-0.038 0.195-0.004 0.17 0.009 0.336 0.034 0.501-0.009-0.051-0.030-0.102-0.059-0.144-0.026-0.043-0.038-0.089-0.085-0.11-0.047 0.038-0.055 0.098-0.068 0.153-0.064 0.106-0.055 0.246-0.144 0.34-0.004 0.021-0.017 0.064-0.026 0.085-0.038 0.051-0.030 0.11-0.038 0.17-0.047 0.038-0.064 0.144 0.013 0.161-0.059 0.038-0.098 0.102-0.102 0.174-0.034 0.025-0.038 0.076-0.013 0.11 0.004 0.004 0.009 0.008 0.013 0.013 0.009 0.055 0.030 0.106 0.059 0.153l-0.123-0.004c-0.017 0.059-0.055 0.11-0.051 0.174-0.004 0.234 0.004 0.467-0.004 0.701-0.055 0.043-0.055 0.085 0 0.123 0 0.072 0 0.144 0.004 0.217-0.051 0.021-0.106 0.043-0.157 0.064-0.042-0.047-0.064-0.102-0.064-0.166-0.042-0.017-0.085-0.038-0.123-0.059 0.021 0.136-0.042 0.297 0.042 0.416-0.102 0.221-0.098 0.472-0.161 0.701-0.081 0.242-0.093 0.501-0.161 0.748-0.047 0.144-0.042 0.302-0.042 0.45-0.030 0.021-0.055 0.047-0.085 0.068-0.008-0.064-0.017-0.123-0.034-0.187 0.034-0.085-0.008-0.195 0.059-0.263 0.013-0.085-0.030-0.191 0.042-0.255 0.013-0.085-0.030-0.191 0.042-0.255 0.021-0.123-0.042-0.276 0.042-0.382 0.013-0.085-0.030-0.191 0.043-0.255 0.013-0.085-0.030-0.191 0.042-0.255 0.004-0.059 0.004-0.115 0.009-0.17 0.055-0.043 0.034-0.115 0.047-0.17 0.026-0.038 0.042-0.081 0.047-0.127 0.021-0.059 0.042-0.115 0.068-0.17l0.013-0.085c0.026-0.038 0.042-0.081 0.047-0.127 0.085-0.11-0.026-0.276 0.072-0.378 0.013-0.085-0.030-0.191 0.042-0.255 0.013-0.085-0.030-0.191 0.042-0.255l0.009-0.127c0.047-0.043 0.034-0.115 0.051-0.17 0.038-0.051 0.072-0.106 0.106-0.166 0.030-0.089 0.119-0.136 0.153-0.225 0.021-0.038 0.042-0.081 0.064-0.119 0-0.047 0.017-0.093 0.047-0.132 0-0.021 0.004-0.064 0.009-0.089l0.076-0.123 0.009-0.089c0.047-0.064 0.076-0.136 0.093-0.212 0.038-0.047 0.030-0.11 0.038-0.17 0.047-0.043 0.034-0.115 0.042-0.17 0.034-0.072 0.055-0.144 0.085-0.217l0.064-0.115c0.034-0.076 0.072-0.149 0.11-0.221 0.017-0.043 0.030-0.085 0.038-0.127 0.030-0.055 0.059-0.115 0.089-0.17 0.055-0.076-0.004-0.187 0.068-0.251 0.013-0.085-0.030-0.191 0.042-0.255 0.004-0.055 0.004-0.115 0.009-0.17 0.051-0.059 0.034-0.144 0.064-0.212 0.034-0.055 0.093-0.123 0.102-0.212zM8.85 21.401c-0.412-0.353-0.871-0.654-1.27-1.020-0.059 0.059-0.11 0.127-0.144 0.2 0.068 0.059 0.132 0.127 0.191 0.2l-0.123-0.047c-0.153-0.021-0.31 0.004-0.399 0.14-0.004 0.059-0.013 0.119-0.017 0.178-0.038-0.026-0.081-0.051-0.119-0.076 0.008 0.038 0.026 0.076 0.047 0.106l1.857 0.331c-0.008 0-0.017-0.004-0.021-0.013zM22.165 31.682c-0.183-0.204-0.416-0.357-0.633-0.518-0.599-0.518-1.275-0.93-1.882-1.432-0.127-0.132-0.297-0.217-0.438-0.331-0.251-0.208-0.54-0.365-0.765-0.595-0.259-0.161-0.489-0.361-0.735-0.531-0.047-0.038-0.085-0.085-0.132-0.127-0.701-0.514-1.377-1.062-2.065-1.593-0.404-0.285-0.769-0.62-1.181-0.896-0.472-0.382-0.952-0.765-1.457-1.109-0.021-0.17 0.2-0.068 0.272-0.149l0.089-0.009c0.038-0.026 0.081-0.047 0.119-0.068 0.229-0.068 0.336-0.293 0.463-0.472 0.055-0.055 0.025-0.136 0.030-0.2-0.064-0.055-0.034-0.14-0.047-0.212-0.059-0.059-0.017-0.153-0.072-0.212-0.008-0.059 0-0.119-0.038-0.17-0.008-0.043-0.025-0.085-0.043-0.123-0.059-0.076-0.038-0.178-0.089-0.259-0.013-0.055 0.004-0.127-0.047-0.17l-0.008-0.127c-0.030-0.038-0.047-0.085-0.047-0.132l-0.051-0.085c-0.034-0.068-0.008-0.153-0.064-0.208-0.021-0.14 0.034-0.297-0.034-0.425-0.017-0.072-0.043-0.144-0.085-0.208-0.030-0.055-0.051-0.115-0.064-0.178-0.055-0.076 0-0.183-0.064-0.251 0.025-0.149-0.119-0.221-0.174-0.336l-0.008-0.089c-0.051-0.043-0.034-0.115-0.043-0.17-0.025-0.038-0.043-0.085-0.047-0.127-0.047-0.106-0.11-0.204-0.191-0.289-0.034-0.144-0.153-0.246-0.212-0.382-0.013-0.021-0.034-0.068-0.047-0.093 0.059-0.157-0.038-0.293-0.098-0.429-0.081-0.246-0.187-0.484-0.208-0.744-0.051-0.030-0.11-0.051-0.136-0.106-0.025 0.055-0.059 0.106-0.102 0.149-0.013 0.238 0.106 0.45 0.166 0.671 0.076 0.161 0.093 0.344 0.174 0.506 0.030 0.072 0.055 0.144 0.085 0.212l0.043 0.119-0.081-0.051c0.030 0.072 0.043 0.149 0.038 0.225 0.072 0.038 0.132 0.098 0.212 0.119-0.017 0.034-0.034 0.064-0.051 0.098 0.025 0.038 0.051 0.076 0.072 0.115 0.013 0.047 0.059 0.089 0.047 0.136-0.072 0.081-0.153 0.149-0.225 0.229h-0.098c-0.008 0.106-0.132 0.136-0.183 0.221h-0.098c-0.043-0.234-0.064-0.467-0.093-0.705 0.017-0.076 0.025-0.153 0.038-0.225-0.055-0.242-0.149-0.476-0.285-0.684-0.013 0.026-0.038 0.076-0.051 0.102 0.017 0.17-0.004 0.344-0.064 0.501-0.043 0.093-0.021 0.212-0.081 0.297 0.021 0.043 0.038 0.085 0.047 0.132 0.051 0.106 0.051 0.234 0 0.34-0.013 0.043-0.025 0.085-0.038 0.127-0.021 0.055-0.068 0.102-0.127 0.119-0.072 0.021-0.132 0.068-0.161 0.136-0.076 0.089 0.051 0.144 0.093 0.208 0.017 0.055-0.004 0.127 0.047 0.174 0 0.026 0.004 0.081 0.004 0.106h-0.11c-0.051-0.059-0.106-0.115-0.157-0.17l-0.093-0.009-0.11-0.051c0.038 0.106 0.068 0.221 0.17 0.285 0 0.043 0 0.085 0.008 0.123 0.038 0.009 0.076 0.030 0.102 0.055 0.021 0.021 0.038 0.047 0.047 0.072 0.004 0.004 0.004 0.004 0.008 0.004l0.17 0.030v0.026h-0.025v-0.026l-0.14-0.017c0.068 0.051 0.123 0.119 0.157 0.2 0.034 0.183 0.212 0.246 0.327 0.361 0.064 0.009 0.127 0.009 0.191 0.009 0-0.021 0.004-0.064 0.004-0.089 0.204-0.047 0.37 0.081 0.527 0.191 0.11 0.093 0.17 0.255 0.323 0.289v0.11c-0.123-0.034-0.263 0.106-0.361 0.004-0.072 0-0.144-0.013-0.208 0.021-0.047 0.030-0.127 0.055-0.106 0.127 0.076 0.068 0.191 0.115 0.208 0.229 0.025 0.098 0.093 0.217 0.021 0.31 0.068 0.115-0.076 0.323-0.208 0.217-0.425-0.306-0.837-0.637-1.262-0.943-0.098-0.089-0.204-0.17-0.319-0.238-0.208-0.191-0.455-0.336-0.667-0.527-0.297-0.229-0.586-0.463-0.888-0.688l-1.861-0.336c0.004 0.004 0.004 0.009 0.008 0.013l-0.064 0.043c0.115 0.093 0.259 0.153 0.327 0.293 0.093 0.136-0.119 0.212-0.064 0.361h-0.081v-0.081c-0.115 0.009-0.217-0.072-0.229-0.187-0.204 0.064-0.195 0.365-0.408 0.408 0 0.059 0 0.119 0.004 0.178 0.098 0.089-0.017 0.251 0.076 0.34 0.004 0.072-0.004 0.144 0.030 0.212 0.043 0.085 0.115 0.149 0.204 0.178 0.072 0.038 0.14 0.089 0.212 0.127 0.068 0.026 0.127 0.064 0.174 0.115 0.144 0.17 0.306 0.323 0.489 0.455 0.408 0.336 0.833 0.659 1.207 1.037 0.098 0.085 0.187 0.191 0.306 0.242-0.034 0.026-0.064 0.051-0.093 0.081l0.098-0.009c0.076 0.204 0.306 0.31 0.497 0.391l-0.102-0.136c0.072 0.047 0.144 0.115 0.127 0.217l0.064-0.072c0 0.017 0 0.055 0 0.072 0.17 0.17 0.353 0.336 0.569 0.442 0.093 0.098 0.212 0.17 0.34 0.212 0.051 0.055 0.11 0.102 0.178 0.14l0.004-0.068h0.059l-0.051 0.068c0.153 0.076 0.28 0.195 0.45 0.242 0.059 0.055 0.127 0.149 0.217 0.119 0.008 0.064 0.055 0.119 0.119 0.136 0.174 0.11 0.365 0.208 0.501 0.37h0.098c0.068 0.081 0.144 0.149 0.234 0.204 0.297 0.229 0.591 0.467 0.901 0.68l0.043 0.081c0.132 0.055 0.204 0.195 0.336 0.259 0.132 0.14 0.28 0.259 0.442 0.361 0.429 0.344 0.884 0.654 1.33 0.981 0.161 0.123 0.361 0.17 0.54 0.259 0.365 0.178 0.709 0.395 1.083 0.561 0.459 0.144 0.892 0.37 1.355 0.506 0.246 0.11 0.523 0.149 0.761 0.28 0.132 0.026 0.251 0.081 0.361 0.157 0.017-0.009 0.051-0.021 0.068-0.026 0.217 0.059 0.425 0.178 0.659 0.17 0.204 0.068 0.433 0.051 0.646 0.026 0.081-0.026 0.178-0.127 0.255-0.043 0.055-0.043 0.115-0.076 0.183-0.093 0-0.021 0.004-0.064 0.004-0.085 0.166 0.076 0.28 0.242 0.446 0.323 0.119 0.064 0.229 0.149 0.319 0.251-0.17 0.093-0.374 0.059-0.561 0.102-0.327-0.013-0.646 0.076-0.973 0.034-0.37-0.059-0.744 0-1.113-0.038-0.438-0.085-0.854-0.225-1.279-0.353-0.374-0.17-0.714-0.404-1.088-0.578-0.408-0.153-0.769-0.404-1.134-0.633-0.361-0.178-0.735-0.353-1.037-0.625-0.272-0.259-0.646-0.37-0.926-0.608-0.217-0.136-0.404-0.31-0.625-0.438-0.098-0.051-0.157-0.157-0.263-0.2-0.051-0.021-0.093-0.047-0.132-0.085-0.123-0.123-0.28-0.204-0.421-0.302-0.306-0.268-0.671-0.459-0.969-0.735-0.183-0.106-0.34-0.255-0.518-0.37-0.14-0.051-0.217-0.191-0.353-0.251-0.238-0.136-0.404-0.361-0.642-0.497-0.263-0.191-0.531-0.378-0.786-0.578-0.297-0.183-0.544-0.429-0.85-0.599-0.089-0.047-0.17-0.115-0.259-0.166-0.161-0.043-0.272-0.178-0.412-0.263-0.106-0.068-0.208-0.14-0.31-0.208-0.123-0.013-0.174-0.149-0.302-0.157-0.31-0.31-0.697-0.531-1.054-0.782-0.11-0.059-0.204-0.157-0.31-0.225-0.013 0.013-0.038 0.038-0.047 0.051 0.021-0.178-0.234-0.093-0.234-0.263h-0.059c-0.008-0.153-0.212-0.149-0.238-0.285-0.068-0.013-0.17-0.081-0.106-0.161 0.026 0.038 0.051 0.076 0.076 0.119 0.013-0.093-0.085-0.136-0.106-0.217l0.098-0.004c0-0.034 0-0.106 0-0.14 0.047 0.034 0.081 0.085 0.098 0.14 0.098-0.009 0.195 0.026 0.268 0.093 0.051-0.068 0.081-0.157 0.166-0.191 0.043-0.013 0.085-0.026 0.127-0.030l0.034 0.051c0.064-0.047 0.115-0.115 0.14-0.191 0.034-0.059 0.076-0.119 0.11-0.178 0.021-0.038 0.038-0.081 0.059-0.119 0.051-0.102 0.102-0.204 0.153-0.306 0.030-0.055 0.055-0.11 0.085-0.17 0.038-0.072 0.085-0.14 0.127-0.212 0.043-0.089 0.098-0.166 0.153-0.246l-3.39-0.608 3.395 0.608c0.038-0.055 0.072-0.115 0.102-0.178 0.047-0.093 0.085-0.187 0.119-0.285 0.008-0.089-0.021-0.174-0.034-0.259-0.030-0.102-0.030-0.229-0.132-0.289-0.208-0.127-0.395-0.285-0.591-0.429-0.153-0.153-0.353-0.242-0.493-0.408-0.055-0.004-0.123-0.004-0.153-0.064-0.021-0.068 0.030-0.127 0.047-0.191 0.093-0.043 0.229-0.038 0.263-0.157 0.013-0.068 0.081-0.14 0.038-0.212 0.055-0.059 0.076-0.136 0.11-0.208 0.004-0.021 0.013-0.064 0.013-0.085 0.076-0.081 0-0.208 0.068-0.293 0.017-0.055 0.013-0.136 0.085-0.153 0.038 0.043 0.064 0.093 0.085 0.149 0.043 0.072 0.11 0.132 0.106 0.225 0.043 0.030 0.068 0.085 0.123 0.098 0.038-0.017 0.072-0.038 0.11-0.055l0.102-0.043v-0.059c0.119-0.030 0.183-0.144 0.268-0.221 0.051-0.009 0.127 0 0.149-0.064 0.013-0.064 0.008-0.136 0.051-0.191-0.004-0.098-0.004-0.191-0.004-0.285-0.093-0.072-0.144-0.195-0.263-0.229-0.14-0.043-0.208-0.191-0.268-0.314-0.115-0.043-0.085-0.166-0.132-0.255-0.008-0.14-0.076-0.268-0.187-0.353-0.187-0.14-0.361-0.297-0.518-0.467-0.072-0.234-0.132-0.484-0.093-0.731-0.026 0.034-0.051 0.068-0.072 0.106-0.059 0.072-0.026 0.17-0.034 0.255-0.085 0.106-0.021 0.255-0.043 0.382l-0.038 0.055c-0.008 0.221 0 0.438-0.004 0.659-0.055 0.038-0.038 0.11-0.047 0.17-0.043 0.047-0.034 0.115-0.043 0.17-0.059 0.072-0.030 0.17-0.038 0.255-0.11 0.132 0.030 0.336-0.076 0.467-0.008 0.157 0 0.31-0.004 0.467-0.089 0.136-0.013 0.314-0.043 0.467-0.034 0.051-0.043 0.119-0.076 0.17-0.004 0.119 0.004 0.238-0.004 0.357-0.034 0.081-0.072 0.157-0.115 0.229-0.047 0.081-0.11 0.234-0.008 0.293-0.034 0.085-0.102 0.157-0.187 0.191-0.047 0-0.093 0.017-0.132 0.047-0.157 0.004-0.314 0.004-0.467 0-0.038-0.026-0.081-0.047-0.123-0.068-0.098-0.038-0.149-0.136-0.238-0.187-0.144-0.098-0.297-0.178-0.416-0.306-0.127-0.068-0.229-0.174-0.297-0.302 0-0.047-0.017-0.093-0.042-0.132-0.013-0.055 0.009-0.127-0.047-0.17-0.013-0.085 0.026-0.187-0.042-0.255-0.009-0.072 0.017-0.157-0.042-0.212 0.017-0.127-0.042-0.238-0.102-0.344-0.068-0.098-0.093-0.221-0.072-0.336 0.064-0.055 0.034-0.14 0.047-0.212 0.055-0.043 0.034-0.115 0.038-0.17-0.034-0.034-0.051-0.081-0.042-0.127 0.093-0.098 0.026-0.259 0.047-0.382 0.089-0.149 0.017-0.344 0.042-0.51 0.064-0.051 0.034-0.14 0.042-0.212 0.030-0.038 0.047-0.081 0.051-0.127 0.042-0.098 0.034-0.208 0.106-0.293 0.030-0.068 0.055-0.14 0.081-0.212 0.038-0.072 0.076-0.144 0.11-0.221 0.026-0.085 0.059-0.17 0.102-0.246l0.127-0.255 0.051-0.089c0.009-0.072-0.021-0.161 0.042-0.212 0-0.072 0.004-0.14 0.004-0.212 0.098-0.149 0.009-0.344 0.051-0.51 0.153-0.212 0.31-0.416 0.45-0.633 0.026-0.055 0.055-0.11 0.081-0.17 0.030-0.055 0.068-0.106 0.115-0.153h0.102c0.051 0.234 0.302 0.336 0.412 0.531 0.085 0.149 0.195 0.289 0.348 0.374 0.076 0.038 0.102 0.127 0.153 0.191 0.059 0.081 0.183 0.098 0.221 0.2 0.013 0.043 0.026 0.085 0.038 0.127 0.093 0.127-0.068 0.391 0.153 0.412-0.038 0.127 0.093 0.191 0.102 0.31 0.115-0.068 0.255-0.064 0.374-0.127 0.072 0.025 0.14-0.004 0.208-0.030v-0.076h0.072c0.017-0.183 0.31-0.174 0.272-0.382 0.123 0.004 0.263 0.021 0.331-0.106-0.047-0.047-0.072-0.11-0.081-0.174-0.068 0-0.132-0.051-0.149-0.119l0.051-0.043c0.017-0.136-0.14-0.11-0.212-0.055v0.076h-0.089c-0.043-0.187 0.229-0.17 0.229-0.344-0.068 0.043-0.144 0.059-0.225 0.051v-0.132l-0.14-0.004c0.021-0.076 0.089-0.132 0.11-0.208l-0.098-0.004v-0.127h-0.043v0.127h-0.085v-0.085h-0.161c-0.051-0.076-0.030-0.157-0.004-0.238-0.072-0.059-0.132-0.149-0.234-0.161 0.076-0.051 0.153-0.11 0.221-0.17l-0.127 0.013c0.034-0.047 0.055-0.102 0.055-0.161 0.059-0.068 0.153-0.047 0.234-0.047 0.013-0.047 0.034-0.089 0.059-0.132l-0.093 0.004v-0.085c0.102 0 0.217 0.021 0.272-0.085l-0.102-0.004c0-0.021 0.004-0.068 0.004-0.089-0.064 0.064-0.149 0.051-0.229 0.051 0.030-0.161 0.208-0.204 0.306-0.31-0.068-0.072 0.034-0.14 0.055-0.208-0.102-0.013-0.17 0.055-0.246 0.11-0.059 0.013-0.115 0.034-0.166 0.059-0.068 0.004-0.14 0.008-0.195 0.059 0-0.025 0.008-0.072 0.008-0.098-0.043 0.025-0.093 0.047-0.14 0.059 0.004-0.021 0.013-0.059 0.021-0.081 0.14-0.106 0.191-0.319 0.374-0.37v-0.098c0.051-0.047 0.098-0.093 0.14-0.144l-0.123 0.004c0 0 0 0 0 0-0.055 0.059-0.153 0.059-0.208 0.004-0.093 0.008-0.208-0.021-0.2-0.14-0.055 0.034-0.106 0.064-0.161 0.098 0.017-0.081-0.030-0.161-0.11-0.187-0.089 0.098-0.144 0.225-0.251 0.31-0.026-0.021-0.047-0.043-0.072-0.064 0.051-0.068 0.102-0.144 0.144-0.217 0.047-0.089 0.102-0.174 0.161-0.251-0.004-0.064-0.034-0.093-0.089-0.089-0.119 0.008-0.246 0.004-0.357 0.055-0.089 0.081-0.2 0.047-0.297 0.013-0.076 0.051-0.153 0.115-0.246 0.136 0.055-0.072 0.115-0.14 0.183-0.204l-0.064-0.038c-0.013-0.055-0.030-0.11-0.043-0.166-0.059-0.030-0.119-0.038-0.17 0.008-0.038-0.013-0.076-0.11-0.11-0.047-0.043 0.068-0.123 0.059-0.195 0.059-0.043 0.043-0.072 0.102-0.076 0.166-0.017 0.2-0.051 0.395-0.098 0.591 0.047-0.025 0.093-0.038 0.149-0.043l0.102-0.089c0.004 0.025 0.004 0.081 0.004 0.106 0.051 0 0.098-0.013 0.144-0.034 0.059-0.034 0.149-0.098 0.187 0-0.021 0.051-0.034 0.102-0.043 0.157l0.106 0.004c-0.013 0.025-0.038 0.076-0.051 0.102-0.004 0.076-0.004 0.157-0.004 0.234h-0.085v0.043h0.102c-0.055 0.064-0.115 0.123-0.178 0.183-0.030 0.17-0.166 0.302-0.208 0.472-0.076 0.174-0.183 0.336-0.259 0.51-0.123 0.259-0.289 0.497-0.416 0.756-0.11 0.17 0.047 0.399-0.059 0.565-0.013 0.098 0.030 0.217-0.038 0.297-0.004 0.021-0.009 0.064-0.013 0.085-0.055 0.047-0.051 0.089 0.009 0.123-0.042 0.038-0.081 0.081-0.123 0.123 0.004 0.161-0.047 0.314-0.106 0.463-0.127-0.081-0.174-0.217-0.225-0.353 0.119-0.115 0.195-0.272 0.161-0.442 0.047-0.064 0.030-0.144 0.038-0.217 0.051-0.059 0.034-0.14 0.059-0.208-0.051-0.11-0.068-0.238-0.042-0.357l-0.068 0.059c0-0.102 0.085-0.166 0.115-0.255 0.089-0.161 0.17-0.327 0.234-0.501-0.115 0.030-0.204 0.119-0.234 0.234-0.038-0.013-0.072-0.021-0.11-0.034-0.004 0.115-0.132 0.246-0.042 0.348l-0.038 0.038c0.055 0.055 0.042 0.144 0.030 0.217-0.059 0.051-0.093 0.132-0.085 0.212-0.064 0.068-0.009 0.178-0.064 0.251-0.009 0.064-0.042 0.123-0.089 0.17-0.034 0.047 0.042 0.085 0.064 0.119-0.026 0.072-0.064 0.144-0.11 0.208-0.004-0.064 0.072-0.144 0.009-0.191-0.034-0.064-0.093-0.017-0.127 0.013-0.034-0.076-0.132-0.025-0.195-0.043 0.013 0.025 0.038 0.081 0.051 0.106 0.004 0.115 0.004 0.229 0.004 0.344 0.021 0.038 0.051 0.072 0.085 0.106 0.055-0.025 0.098-0.076 0.157-0.098-0.009 0.093 0.055 0.212-0.021 0.289 0.013 0.191-0.034 0.365-0.047 0.552 0.055 0.038 0.055 0.081 0.009 0.127 0 0.098-0.034 0.187-0.093 0.263l0.042 0.030c-0.017 0.314-0.030 0.633-0.098 0.943 0.021 0.047 0.047 0.093 0.068 0.14l-0.068 0.009c-0.004 0.072 0.004 0.153-0.051 0.208 0.013 0.072 0.021 0.149 0.034 0.221 0.026 0.059 0.034 0.123 0.030 0.183-0.068 0.051-0.034 0.14-0.047 0.212-0.055 0.059-0.026 0.149-0.068 0.212-0.017 0.059-0.038 0.119-0.068 0.178-0.089 0.064 0.064 0.14-0.021 0.204-0.047 0.072-0.064 0.157-0.055 0.238l-0.051-0.004 0.021 0.055c0.089-0.076 0.11-0.229 0.251-0.234 0 0.055-0.009 0.11-0.030 0.161-0.119 0.157-0.246 0.31-0.331 0.489h-0.059c-0.021 0.051-0.042 0.102-0.064 0.153-0.034 0.034-0.034 0.085-0.004 0.123-0.026 0.098 0.072 0.217-0.021 0.302-0.004 0.072 0.013 0.149-0.034 0.212-0.004 0.064-0.034 0.119-0.081 0.161-0.017-0.059-0.047-0.119-0.093-0.161-0.013-0.106-0.017-0.208-0.009-0.314 0-0.064 0.106-0.089 0.081-0.157-0.038-0.043-0.081-0.081-0.123-0.119 0-0.055-0.004-0.11-0.004-0.166-0.115 0.009-0.153 0.178-0.276 0.136-0.098-0.055-0.047-0.178-0.064-0.263-0.093 0.013-0.132 0.11-0.212 0.144-0.076-0.051-0.166-0.119-0.174-0.221-0.059 0.059-0.136 0.068-0.174-0.017-0.004-0.136 0.14-0.2 0.221-0.293 0.004-0.085-0.017-0.178 0.026-0.259 0.072-0.102 0.127-0.217 0.225-0.293l0.008-0.132c0.026-0.072 0.042-0.153 0.11-0.2l-0.136-0.059c-0.149-0.106-0.306-0.212-0.421-0.357-0.089 0-0.204-0.021-0.251 0.076-0.055 0.119-0.174 0.191-0.246 0.306-0.225 0.276-0.438 0.565-0.646 0.862 0.076 0.038 0.021 0.144 0.076 0.204 0.009 0.043 0.021 0.089 0.043 0.127 0.004 0.047 0.021 0.089 0.047 0.127 0.004 0.021 0.009 0.068 0.009 0.089 0.025 0.051 0.059 0.102 0.098 0.144 0.093 0.030 0.144-0.064 0.221-0.098l0.119-0.059c0.047-0.021 0.089-0.047 0.136-0.068 0.038-0.017 0.081-0.034 0.123-0.043 0.089-0.064 0.212-0.047 0.285 0.034-0.085 0.030-0.042 0.127-0.055 0.191 0.008 0.076-0.021 0.17 0.038 0.229 0.013 0.055-0.008 0.127 0.047 0.17 0 0.021 0.008 0.064 0.008 0.089 0.026 0.072 0.076 0.132 0.144 0.17 0.042 0.013 0.085 0.026 0.127 0.030 0.034-0.055 0.076-0.064 0.127-0.021 0.059 0.021 0.102 0.068 0.119 0.127l0.064 0.119c-0.004 0.11 0.123 0.166 0.102 0.28h0.106c0.068 0.072 0.136 0.14 0.204 0.212 0.072-0.009 0.161 0.021 0.217-0.038 0.174 0.030 0.31-0.102 0.421-0.217h0.178c0.093 0.098 0.178 0.204 0.297 0.272 0.102 0.064 0.166 0.178 0.272 0.238 0.081 0.043 0.136 0.123 0.204 0.178 0.183 0.102 0.289 0.289 0.472 0.387-0.021 0.136-0.191 0.208-0.268 0.319-0.055 0.004-0.123 0-0.144 0.064-0.072 0.127-0.178 0.238-0.212 0.382-0.076 0.102-0.055 0.234-0.055 0.353 0.093 0.017 0.149 0.093 0.208 0.157 0.009 0.055-0.038 0.098-0.051 0.149 0.093 0.004 0.195-0.017 0.285 0.026 0.059 0.017 0.093 0.059 0.106 0.106l0.603 0.106c0.021 0.009 0.043 0.017-0.599-0.093 0.004 0.030 0.004 0.059 0 0.089-0.004 0.004-0.008 0.009-0.013 0.013-0.013 0.085-0.072 0.166-0.178 0.174-0.030 0.021-0.064 0.038-0.106 0.043-0.047 0.026-0.089 0.059-0.127 0.098v0.204c0.064-0.009 0.144 0.017 0.191-0.043 0.047-0.004 0.089-0.004 0.136-0.004 0.072 0.068 0.132 0.144 0.183 0.229 0.026 0.119-0.021 0.217-0.102 0.302-0.047 0.098-0.021 0.212-0.021 0.319l-0.093-0.004c0.059 0.068 0.051 0.153 0.047 0.238-0.064 0.051-0.034 0.14-0.047 0.212-0.051 0.043-0.034 0.11-0.047 0.17-0.047 0.047-0.034 0.115-0.042 0.17-0.055 0.059-0.030 0.14-0.038 0.212-0.064 0.055-0.017 0.153-0.076 0.212l-0.013 0.085c-0.059 0.059-0.017 0.153-0.072 0.212-0.004 0.021-0.009 0.064-0.013 0.085-0.026 0.038-0.042 0.081-0.051 0.127-0.042 0.064-0.021 0.144-0.064 0.208-0.004 0.047-0.021 0.089-0.047 0.127-0.004 0.021-0.009 0.064-0.013 0.085-0.026 0.038-0.042 0.081-0.047 0.127-0.038 0.064-0.021 0.144-0.059 0.208-0.042 0.064-0.064 0.14-0.064 0.217-0.026 0.038-0.038 0.081-0.047 0.127-0.021 0.043-0.034 0.085-0.042 0.127-0.017 0.059-0.042 0.115-0.068 0.17-0.004 0.021-0.009 0.064-0.013 0.085-0.026 0.038-0.042 0.081-0.051 0.127-0.038 0.051-0.030 0.115-0.038 0.17-0.055 0.059-0.030 0.14-0.038 0.212-0.055 0.059-0.021 0.149-0.068 0.212-0.009 0.043-0.021 0.085-0.038 0.127l-0.042 0.085c-0.030 0.055-0.051 0.119-0.059 0.178-0.034 0.038-0.064 0.081-0.093 0.123l-0.034 0.106 0.098 0.004c0.021 0.268-0.276 0.391-0.378 0.608-0.038 0.068-0.055 0.144-0.059 0.221-0.081 0.081 0.013 0.221-0.076 0.297-0.009 0.115-0.009 0.229 0 0.344 0.042 0.064 0.115 0.102 0.183 0.136 0.098 0.047 0.191 0.11 0.302 0.102 0.072 0.064 0.17 0.026 0.255 0.038l0.038 0.030c0.195 0.026 0.395-0.004 0.595 0.013 0.072 0.072 0.187 0.030 0.28 0.043 0.076-0.009 0.174 0.026 0.229-0.043 0.098-0.017 0.217 0.030 0.297-0.038 0.059-0.009 0.119 0 0.17-0.038 0.098 0 0.144-0.102 0.242-0.102-0.068-0.064-0.043-0.157-0.051-0.238l-0.085-0.068c0-0.102 0-0.204 0-0.306 0.161-0.102-0.149-0.212 0-0.297 0.004-0.059-0.004-0.115-0.026-0.17-0.038-0.059-0.081-0.115-0.115-0.174-0.030-0.055-0.055-0.115-0.085-0.17-0.068-0.085 0.013-0.217-0.068-0.293-0.008-0.072 0.021-0.161-0.043-0.212-0.004-0.14-0.004-0.285 0-0.425 0.081-0.106 0.017-0.259 0.043-0.382 0.026-0.055 0.051-0.11 0.072-0.166 0.030-0.072 0.055-0.14 0.085-0.212 0.047-0.098 0.068-0.204 0.127-0.297 0.030-0.055 0.051-0.119 0.064-0.178l0.064-0.119c0.043-0.11 0.115-0.2 0.17-0.297l0.038-0.089c0.038-0.059 0.081-0.115 0.115-0.178 0.021-0.038 0.038-0.081 0.059-0.119 0.013-0.021 0.034-0.064 0.043-0.085s0.030-0.064 0.043-0.085l0.038-0.085c0.085-0.106 0.115-0.238 0.2-0.348 0.017-0.038 0.038-0.081 0.059-0.119 0.030-0.055 0.051-0.119 0.064-0.178l0.047-0.085c0.017-0.043 0.030-0.085 0.038-0.127 0.047-0.106 0.106-0.204 0.174-0.297 0.026-0.081-0.047-0.17-0.017-0.255 0.030-0.034 0.047-0.081 0.051-0.127 0.026-0.043 0.038-0.089 0.038-0.14 0.093-0.068 0.225-0.021 0.31-0.089 0.093-0.004 0.183-0.004 0.276 0 0.166 0.081 0.302 0.212 0.391 0.374 0.153 0.072 0.229 0.229 0.302 0.374 0.026 0.072 0.051 0.144 0.076 0.217 0.076 0.034 0.144 0.081 0.212 0.132 0.051 0.076 0.093 0.166 0.187 0.191 0.102 0.055 0.191 0.127 0.297 0.17l0.119 0.059c0.2 0.123 0.391 0.263 0.591 0.387 0.013 0.021 0.034 0.059 0.043 0.081 0.115 0.064 0.225 0.144 0.336 0.217 0.030 0.081 0.098 0.14 0.178 0.166 0.115 0.021 0.11 0.17 0.221 0.2l0.085 0.038c0.187 0.085 0.348 0.221 0.527 0.327 0.047 0.021 0.085 0.068 0.093 0.119l0.089 0.038c0.085 0.043 0.17 0.098 0.268 0.106 0.047 0.055 0.098 0.11 0.174 0.132 0.021 0.047 0.043 0.093 0.064 0.14 0.064 0.132 0.017 0.285 0.025 0.425-0.055 0.038-0.034 0.11-0.047 0.17-0.047 0.059-0.030 0.14-0.059 0.208-0.081 0.119-0.153 0.246-0.272 0.336v0.446c0.034 0.034 0.068 0.068 0.102 0.102l0.089 0.004c0.098 0.081 0.246 0 0.344 0.093 0.106 0.089 0.246 0.076 0.378 0.076 0.119 0.089 0.285 0.017 0.425 0.043 0.119 0.089 0.285 0.017 0.425 0.043 0.144 0.093 0.344 0.013 0.51 0.043 0.144 0.093 0.344 0.013 0.51 0.043 0.149 0.093 0.344 0.013 0.51 0.043l0.038 0.034c0.221 0.021 0.442 0 0.663 0.009 0.085 0.093 0.212 0.115 0.306 0.2 0.297 0.323 0.726 0.472 1.1 0.684 0.357 0.302 0.79 0.497 1.224 0.663 0.276 0.14 0.54 0.293 0.811 0.446 0.327 0.183 0.701 0.238 1.045 0.37 0.327 0.085 0.654 0.17 0.994 0.17 0.48 0.034 0.96-0.030 1.44-0.004 0.263-0.081 0.548-0.059 0.816-0.127 0.076-0.013 0.115-0.085 0.157-0.14-0.017-0.149-0.149-0.225-0.238-0.327zM6.165 20.568h-0.034c-0.008-0.026-0.030-0.076-0.043-0.102-0.034-0.068-0.072-0.14-0.106-0.208v0c0.161 0.013 0.208 0.174 0.183 0.31zM6.279 20.024c0.051 0.144 0.191 0.217 0.306 0.302 0.004 0.085 0.017 0.178-0.026 0.259-0.021 0.043-0.047 0.081-0.076 0.115-0.034-0.034-0.064-0.072-0.085-0.115-0.017-0.055-0.034-0.11-0.055-0.166-0.013-0.021-0.034-0.064-0.043-0.085-0.034-0.068-0.081-0.123-0.14-0.17l-0.004-0.153-0.098-0.021-0.026-0.115c0.072 0.068 0.153 0.119 0.246 0.149zM5.982 20.007c-0.055 0.021-0.11-0.026-0.157-0.055 0.021-0.068 0.178-0.017 0.157 0.055zM7.104 17.768h0.026v0.026h-0.026v-0.026zM6.275 17.633c0.013 0.038-0.013 0.132-0.064 0.119v0c-0.034-0.043 0-0.149 0.064-0.119zM0.854 17.828c-0.008-0.047 0-0.093 0.025-0.132 0.030-0.038 0.042-0.115 0.106-0.11 0.093-0.021 0.119 0.089 0.161 0.14-0.034 0.047-0.047 0.102-0.047 0.157-0.085-0.004-0.195 0.038-0.246-0.055zM3.335 20.398c-0.055-0.038-0.106-0.089-0.144-0.149v0c0.017-0.055 0.093 0.009 0.119 0.030 0.013 0.026 0.076 0.102 0.026 0.119zM7.010 21.087c0 0 0 0 0 0l-0.17-0.034c0 0 0 0 0 0l0.17 0.034zM6.466 12.203l0.026-0 0 0.025-0.026 0-0-0.025zM7.46 12.823c0.026-0.034 0.072-0.038 0.106-0.017 0.008 0.004 0.013 0.013 0.021 0.021l0.089 0.008c0.043 0.076 0.102 0.017 0.149-0.013l-0.004 0.127c-0.072-0.008-0.149 0.025-0.187 0.089l0.144 0.004v0.115c-0.059 0.021-0.119 0.047-0.183 0.068 0.102-0.068 0-0.153-0.072-0.187-0.038 0.017-0.076 0.038-0.11 0.055l-0.089 0.043c-0.013-0.098-0.089-0.174-0.183-0.191v-0.030l0.11-0.004 0.085-0.055c0.038-0.013 0.081-0.025 0.123-0.034zM7.278 14.212c0.072-0.089 0.115-0.225 0.242-0.246 0 0.021 0.004 0.064 0.004 0.085 0.068 0.013 0.149 0.055 0.127 0.14 0.013 0.085-0.081 0.127-0.102 0.204l-0.089 0.038c-0.102 0.064-0.217 0.149-0.246 0.272h-0.085c0.038-0.051 0.17-0.14 0.051-0.187 0.115-0.068 0.081-0.195 0.098-0.306zM7.053 14.901c0.030-0.068 0.076-0.127 0.132-0.174l-0.055 0.123c0.043 0.047 0.106 0.072 0.17 0.068-0.008 0.093 0.059 0.161 0.11 0.229 0.013 0.043 0.026 0.085 0.038 0.127 0.026 0.072 0.051 0.144 0.085 0.212 0.021 0.043 0.034 0.085 0.043 0.127 0.021 0.055 0.038 0.11 0.059 0.166 0.030 0.051 0.051 0.11 0.064 0.17-0.106-0.072-0.191-0.174-0.234-0.297l-0.043-0.102-0.059-0.004c-0.038-0.093-0.11-0.17-0.127-0.272l-0.047-0.085c-0.021-0.047-0.047-0.089-0.068-0.136s-0.021-0.115-0.068-0.153zM8.71 16.001c0.038 0.034 0.072 0.076 0.102 0.123 0.013 0.043 0.025 0.085 0.038 0.127 0.017 0.043 0.034 0.085 0.043 0.127 0.047 0.064 0.008 0.153 0.068 0.208 0.004 0.115 0 0.229 0.004 0.34 0.132 0.102-0.119 0.161-0.093 0.28-0.034-0.017-0.064-0.038-0.098-0.055l-0.115 0.064c-0.008-0.055 0.008-0.115 0.047-0.161-0.008-0.085 0.034-0.191-0.038-0.255-0.004-0.17-0.004-0.34 0-0.51 0.081-0.072 0.030-0.191 0.043-0.289zM8.807 16.868l-0.059 0.106c0.025 0.026 0.051 0.047 0.081 0.068 0.055-0.043 0.059-0.11 0.059-0.174h-0.081zM7.715 16.762c0.030-0.043 0.059-0.085 0.098-0.123 0 0.055 0.013 0.11 0.038 0.161 0.064 0.089 0.055 0.195 0.059 0.302 0.059 0.047 0.034 0.127 0.038 0.191-0.004 0.191 0 0.382-0.004 0.574-0.102 0.102 0.021 0.28-0.081 0.382-0.004 0.098-0.004 0.2 0 0.297 0.098 0.064 0 0.144-0.072 0.161-0.072-0.187-0.047-0.391-0.059-0.591l-0.043-0.030c0.064-0.059 0.038-0.149 0.043-0.221-0.064-0.043-0.034-0.127-0.043-0.191-0.004-0.221 0.008-0.442-0.004-0.663l-0.034-0.034c0.047-0.059 0.038-0.144 0.064-0.217zM9.916 16.732c0.059 0.017 0.11 0.059 0.132 0.119 0.013 0.043 0.025 0.085 0.038 0.127 0.059 0.072 0 0.183 0.068 0.251 0.004 0.021 0.008 0.064 0.013 0.085l0.043 0.081c-0.017 0.026-0.047 0.085-0.064 0.11h-0.144c-0.008 0.11-0.115 0.17-0.195 0.076 0.013 0.030 0.034 0.085 0.043 0.11 0.008 0.055 0.030 0.106 0.059 0.153-0.064 0-0.127-0.004-0.191-0.004l0.064 0.059c-0.043 0.043-0.081 0.081-0.123 0.123-0.021-0.059-0.043-0.119-0.064-0.183h-0.038c-0.008 0.081 0.008 0.157 0.051 0.225-0.093-0.004-0.132-0.089-0.174-0.161v-0.089c0.068-0.034 0.174-0.043 0.174-0.149 0.030 0.064 0.038 0.153 0.132 0.136-0.004-0.072-0.047-0.136-0.115-0.161-0.004-0.106-0.093-0.17-0.178-0.221l0.089-0.102c0.085 0 0.17 0.021 0.246 0.055-0.004-0.085-0.030-0.17-0.076-0.242-0.047-0.076-0.119-0.144-0.106-0.242 0.093-0.013 0.178 0.030 0.187 0.132l0.081 0.004c-0.085-0.076 0.034-0.191 0.051-0.293zM8.361 16.825l0.085 0.004c0.025 0.064 0.064 0.127 0.055 0.2-0.055 0.038-0.115 0.072-0.178 0.102 0.017-0.038 0.034-0.081 0.055-0.115-0.115-0.021 0.017-0.081 0.034-0.123l-0.051-0.068zM10.842 17.016c0.178 0.106 0.361 0.229 0.45 0.421 0.081 0.132 0.153 0.272 0.217 0.412 0.072 0.059 0.051 0.153 0.055 0.234 0.043 0.034 0.081 0.068 0.11 0.11 0 0.051-0.047 0.093-0.064 0.14l-0.013-0.072c-0.059 0.081-0.14-0.017-0.217 0.004 0.030-0.047 0.059-0.098 0.093-0.144-0.076-0.072-0.14-0.17-0.246-0.204l-0.038-0.089c-0.047-0.089-0.098-0.178-0.153-0.263-0.034-0.081-0.102-0.14-0.119-0.229-0.004-0.068-0.068-0.089-0.127-0.089 0.059-0.059 0.043-0.149 0.051-0.229zM9.593 18.113c0.055-0.017 0.11-0.038 0.166-0.059 0.013 0.030 0.034 0.085 0.043 0.11 0.013 0.043 0.025 0.085 0.038 0.127l0.055 0.085 0.008 0.089c0.047 0.047 0.030 0.115 0.047 0.174 0.025 0.072 0.11 0.055 0.17 0.064 0.008 0.089-0.055 0.153-0.106 0.217 0.064-0.017 0.123-0.038 0.187-0.064-0.021 0.038-0.038 0.081-0.055 0.123-0.038 0.085-0.119 0.144-0.212 0.161 0.025 0.055 0.059 0.106 0.089 0.161l-0.068 0.047c0.047 0.11 0.021 0.234 0.025 0.348-0.051 0.093-0.064 0.204-0.098 0.302-0.013 0.076-0.119-0.102-0.119 0.030l-0.038-0.064-0.055 0.047c0-0.14-0.089-0.251-0.136-0.378-0.068-0.161-0.089-0.34-0.064-0.514 0.055-0.11 0.102-0.221 0.144-0.336 0.038 0.047 0.059 0.123 0.144 0.093-0.047-0.055-0.098-0.106-0.153-0.149l0.191 0.021c-0.017-0.051-0.025-0.11-0.081-0.132l-0.098 0.081c0.076-0.183 0.17-0.45-0.025-0.586zM9.823 19.43v0.026h0.025v-0.026h-0.025zM9.011 24.783c0.064-0.004 0.098 0.017 0.106 0.072-0.059 0.009-0.093-0.017-0.106-0.072z"></path>
</svg>
