<!-- Generated by IcoMoon.io -->
<svg version="1.1" xmlns="http://www.w3.org/2000/svg" width="31" height="32" viewBox="0 0 31 32">
<path d="M31 16.286c0 8.563-6.95 15.5-15.525 15.5-7.112 0-13.1-4.769-14.938-11.275l5.95 2.456c0.4 2.006 2.181 3.525 4.306 3.525 2.45 0 4.494-2.025 4.387-4.594l5.281-3.762c3.256 0.081 5.988-2.556 5.988-5.844 0-3.225-2.625-5.844-5.856-5.844s-5.856 2.625-5.856 5.844v0.075l-3.7 5.356c-0.969-0.056-1.919 0.212-2.719 0.756l-8.319-3.438c0.637-7.981 7.319-14.256 15.475-14.256 8.575 0 15.525 6.938 15.525 15.5zM9.731 24.304l-1.906-0.788c0.356 0.728 0.95 1.293 1.678 1.604l0.022 0.008c1.681 0.7 3.612-0.1 4.313-1.775 0.338-0.813 0.344-1.706 0.006-2.519s-0.969-1.45-1.781-1.788c-0.806-0.337-1.669-0.325-2.431-0.038l1.969 0.813c1.238 0.512 1.825 1.931 1.306 3.169-0.519 1.244-1.938 1.825-3.175 1.313zM20.594 16.186c-2.15 0-3.9-1.75-3.9-3.894s1.75-3.894 3.9-3.894 3.9 1.75 3.9 3.894-1.744 3.894-3.9 3.894zM20.6 15.211c1.619 0 2.931-1.313 2.931-2.925 0-1.619-1.313-2.925-2.931-2.925s-2.931 1.313-2.931 2.925c0.006 1.613 1.319 2.925 2.931 2.925z"></path>
</svg>
