<!-- Generated by IcoMoon.io -->
<svg version="1.1" xmlns="http://www.w3.org/2000/svg" width="31" height="32" viewBox="0 0 31 32">
<path d="M14.509 0.286c-9.938 0-14.229 8.847-14.229 8.847l1.264 0.903c0 0-1.591 3.023-1.543 6.896 0 7.91 6.3 15.363 15.57 15.363 8.424 0 15.378-6.858 15.378-15.344 0-11.072-8.587-16.666-16.44-16.666v0zM14.596 2.987c7.766 0 13.787 6.257 13.787 13.532 0 7.713-5.8 13.071-12.557 13.071-4.974 0-9.462-3.787-9.462-8.982 0-2.999 1.595-5.089 3.378-6.204l0.259 0.284c-0.49 0.384-1.884 2.624-1.884 4.825 0 4.085 3.205 6.915 7.242 6.915 5.142 0 8.573-4.387 8.573-9.476 0-5.925-5.228-10.957-11.524-10.957-3.479 0-6.435 1.499-8.136 2.821l-0.264-0.24c2.23-3.431 6.079-5.589 10.587-5.589v0zM12.28 8.652c4.017 0 7.939 2.657 8.914 6.43l-0.356 0.135c-1.759-2.321-4.637-4.243-8.040-4.243-6.257 0-9.544 5.685-9.063 10.433l-0.37 0.135c0 0-0.692-1.523-0.692-3.335 0.010-5.233 4.311-9.553 9.606-9.553v0zM14.932 15.226c1.903 0 3.422 1.543 3.422 3.369 0 1.514-0.971 2.412-0.971 2.412l1.153 0.807c0 0-1.144 1.792-3.474 1.792-2.23 0-4.2-1.797-4.2-4.219 0-2.494 2.143-4.162 4.070-4.162v0z"></path>
</svg>
