<!-- Generated by IcoMoon.io -->
<svg version="1.1" xmlns="http://www.w3.org/2000/svg" width="27" height="32" viewBox="0 0 27 32">
<path d="M17.339 22.5v3.768c0 0.804-0.232 1.196-0.696 1.196-0.268 0-0.536-0.125-0.804-0.393v-5.375c0.268-0.268 0.536-0.393 0.804-0.393 0.464 0 0.696 0.411 0.696 1.196zM23.375 22.518v0.821h-1.607v-0.821c0-0.804 0.268-1.214 0.804-1.214s0.804 0.411 0.804 1.214zM6.125 18.625h1.911v-1.679h-5.571v1.679h1.875v10.161h1.786v-10.161zM11.268 28.786h1.589v-8.821h-1.589v6.75c-0.357 0.5-0.696 0.75-1.018 0.75-0.214 0-0.339-0.125-0.375-0.375-0.018-0.054-0.018-0.25-0.018-0.625v-6.5h-1.589v6.982c0 0.625 0.054 1.036 0.143 1.304 0.143 0.446 0.518 0.661 1.036 0.661 0.571 0 1.179-0.357 1.821-1.089v0.964zM18.929 26.143v-3.518c0-0.821-0.036-1.411-0.161-1.768-0.196-0.661-0.643-1-1.268-1-0.589 0-1.143 0.321-1.661 0.964v-3.875h-1.589v11.839h1.589v-0.857c0.536 0.661 1.089 0.982 1.661 0.982 0.625 0 1.071-0.339 1.268-0.982 0.125-0.375 0.161-0.964 0.161-1.786zM24.964 25.964v-0.232h-1.625c0 0.643-0.018 1-0.036 1.089-0.089 0.429-0.321 0.643-0.714 0.643-0.554 0-0.821-0.411-0.821-1.232v-1.554h3.196v-1.839c0-0.946-0.161-1.625-0.482-2.071-0.464-0.607-1.089-0.911-1.893-0.911-0.821 0-1.446 0.304-1.911 0.911-0.339 0.446-0.5 1.125-0.5 2.071v3.089c0 0.946 0.179 1.643 0.518 2.071 0.464 0.607 1.089 0.911 1.929 0.911s1.5-0.321 1.929-0.946c0.196-0.286 0.339-0.607 0.375-0.964 0.036-0.161 0.036-0.518 0.036-1.036zM14.107 9.661v-3.75c0-0.821-0.232-1.232-0.768-1.232-0.518 0-0.768 0.411-0.768 1.232v3.75c0 0.821 0.25 1.25 0.768 1.25 0.536 0 0.768-0.429 0.768-1.25zM26.946 23.071c0 2.054-0.018 4.25-0.464 6.25-0.339 1.411-1.482 2.446-2.857 2.589-3.286 0.375-6.607 0.375-9.911 0.375s-6.625 0-9.911-0.375c-1.375-0.143-2.536-1.179-2.857-2.589-0.464-2-0.464-4.196-0.464-6.25v0c0-2.071 0.018-4.25 0.464-6.25 0.339-1.411 1.482-2.446 2.875-2.607 3.268-0.357 6.589-0.357 9.893-0.357s6.625 0 9.911 0.357c1.375 0.161 2.536 1.196 2.857 2.607 0.464 2 0.464 4.179 0.464 6.25zM9.125 0.286h1.821l-2.161 7.125v4.839h-1.786v-4.839c-0.161-0.875-0.518-2.125-1.089-3.786-0.393-1.107-0.786-2.232-1.161-3.339h1.893l1.268 4.696zM15.732 6.232v3.125c0 0.946-0.161 1.661-0.5 2.107-0.446 0.607-1.071 0.911-1.893 0.911-0.804 0-1.429-0.304-1.875-0.911-0.339-0.464-0.5-1.161-0.5-2.107v-3.125c0-0.946 0.161-1.643 0.5-2.089 0.446-0.607 1.071-0.911 1.875-0.911 0.821 0 1.446 0.304 1.893 0.911 0.339 0.446 0.5 1.143 0.5 2.089zM21.714 3.339v8.911h-1.625v-0.982c-0.643 0.75-1.25 1.107-1.839 1.107-0.518 0-0.893-0.214-1.054-0.661-0.089-0.268-0.143-0.696-0.143-1.339v-7.036h1.625v6.554c0 0.375 0 0.589 0.018 0.625 0.036 0.25 0.161 0.393 0.375 0.393 0.321 0 0.661-0.25 1.018-0.768v-6.804h1.625z"></path>
</svg>
