<svg xmlns="http://www.w3.org/2000/svg" width="512pt" height="296" viewBox="0 0 512 222"><g fill="#eaa90a"><path d="M306 0h5c23 5 46 11 69 12h28l-4 4c-7 4-15 8-23 8l-6 1-1 3c-7 5-14 6-22 6-5 4-12 5-18 6-1 3-5 4-8 5l-1 2 9-2 2 5h-9c2-1 6-1 7-4-6 0-11 5-17 4-8 0-16 0-24 2l-7 4-2 8-4 3-1-1-2-7c-2 2-1 4-1 6l1 18h-33c-3 0-5 4-8 1 0-3 2-6 5-8-1-2-1-4-3-5s-4 1-6 1l1 44c-1 2 0 4 2 5l1 1c2 0 5-1 6-3l-1-14h33l3-1v24l-5 8c-4 4-10 5-15 5h-40c-5 1-11-1-15-4-3 3-6 3-10 3l2-20 2-7c3-6 0-13 1-19-1-2-1-4-3-5l-1-4 3-1 1-1c0-7 0-13 2-20 1-4 4-7 6-11h1v-1l2-4-9-4-1-1 17-13c1-2 3-1 4 0-4 4-10 7-13 13 6 0 12-4 15-10l2 4c5-3 8-7 11-12 2-3 1-7 2-11l-9 15c-4-1-9 1-12-3l4-4c-6 4-14 7-21 3l12-8c2-2 4-5 7-5l5 2-4 4 6-4 1 4 2-1c0-3-3-5-6-5-11-1-23 0-34 1-9 1-17 3-26 3l4-2 17-4h-1c13-4 26-8 40-9 12 0 23 4 35 5 11 1 21 1 32-1l18-4m-9 4-27 6c5 1 10 1 15-1 8 1 15-3 22-5l1-2-11 2m-84 3c6 0 12 1 17 5l1 3v1c-1-3-2-8-6-9h-12m79 4c-8 2-16 7-25 7 3 4 4 8 3 13l1-2 8 1c2 1-1 3-2 4l-7-1-1 4 10 1 2 3 3-3-6-3 3-4c3 2 7 5 11 3-3-2-7-4-8-7h5l14 7c-3-5-10-6-13-10-4 2-11 1-13-4l9-4 10-4v2c5-1 8 4 12 6l-2-3 11 3-2-2 2-2c-7 1-16 1-21-4 3-2 5-3 8-3l12 3c-2-2-5-2-6-4 8-1 15 2 22 3v3c-4 0-9 1-13-1l8 4c1-4 6-2 8-2l-2-4 21 3c-10-1-21-3-31-6l-17-1-14 4m97 4-27 2h-3l7 1c7 2 15 2 23 2 5-2 11-3 14-7l-14 2m-135 5c-3 2-5 6-4 10 2 2 4 5 7 6l3-4c-3-3 2-8 6-6 0-6-7-8-12-6m77 0c6 3 13 5 20 6 5 1 11 1 16 4 2 0 4-2 6-4a222 222 0 0 1-42-6m-94 14h1l7-7-8 7m81-7c5 3 11 4 15 9l13-1c-2-2-5-2-8-2-7-1-13-5-20-6m-78 11h12l-5-4-1-5c0 4-3 6-6 9m17 0c5 0 10-2 11-7-3 3-7 6-11 7m35 0 1 13c3-3 1-8 2-11 2 2 3 6 6 7l-5-10-4 1m-86 17-2 6-2-3c-1 5-3 10-2 15v49c0 3 0 6 2 8l2 4h-1c4 4 9 6 14 5h38c5 1 10 0 14-3 3-2 5-5 5-9l-1-19v-1h-29c0 6 2 12-2 16-3 2-8 2-11 0-3-3-2-8-2-13V75l3-5c3-2 8-2 11-1l1 2 1 9v1h-1v1h30V66l-4-7-3-2c0-2-2-2-4-2-3-1-6-2-9-1-2-1-4 0-6-2l-12 5c-4 1-8 4-12 3-7 1-10 7-14 13h-2c-1-5 1-9 2-12l2-1-2-2h9l-5-1c2-3 6-5 9-3 3-1 2-5 3-8-7 3-14 4-20 9m24 2c6-2 13-3 18-8 3 2 6 0 9 0l8 2 3-3h-9c-4 0-9-1-13 1-7-2-12 4-16 8m37-6 5 3 2-5-7 2Z"/><path d="M198 13c2-2 5-2 8-2l2 2 5-2c-4 6-11 11-18 12l-7-1c3-4 8-5 10-9Z"/><path d="m187 14 10-2c-1 4-5 6-8 8-5 2-11 3-15-1-1-1-1-4 1-4l12-1ZM147 17c4-1 7 0 10 1l-8 4c8-2 15-5 24-6-1 3-3 5-6 6-5 3-12 3-17 5-8 3-16 3-24 2l-7-3-2-3c3-2 7-2 10-3 7 0 14-1 20-3ZM250 28c0-4 5-9 9-7l-9 7Z"/><path d="M164 24c4-1 7-4 11-3v3h4c-3 3-7 4-11 6 5-1 9-5 14-6l-1 3c5 0 9-3 13-2-3 4-8 5-12 8-5 1-9 4-14 6l-14 4c-4 0-9-1-11-4l9-3c-4 0-7 2-11 1l3-2-10 1-5-5c7-1 15-1 22-4l13-3ZM273 27c-3-1-3-5 0-6l11 5-3 4c-3 0-5-2-8-3ZM177 37l20-11-2 4 7-1 6-2-3 4 3 1c-3 4-8 6-12 9-5 6-13 1-20 4l-12-1 13-7ZM114 56c3-4 8-5 13-6v2l40-1c7 0 15 2 20 7l2 3 1 4v38c-1 9 0 18-2 26-1 4-3 7-6 9-5 3-11 4-16 3h-33c-7 0-16 0-21-7l-2-4-1-11V69c0-5 1-10 5-13m5-1c-4 3-7 8-7 13l1 48c0 5-1 10 2 14l2 4c2 4 8 5 12 5h42c5 0 11-1 14-6 4-8 3-16 2-24V66l-3-6-2-2-2-2c-3-1-6-3-10-3h-37l-14 2ZM213 51c3-1 5-2 8-1-2 2-5 4-8 4v-3ZM34 53c8-2 17-1 25-1 13 0 26-2 39 3l2 2c3 7 3 14 2 20a1818 1818 0 0 1-35 2l-1-3c0-3-2-5-4-6l-3 2c-1 3-1 6 3 7l9 4 1 1 17 7c3 2 8 3 10 6 3 7 4 15 4 22s-2 16-9 19c-9 5-19 3-29 3-11 0-23 2-34-2-4-2-6-7-8-11l-1-20c1 2 3 1 5 2l21-1c4 0 7 1 11-1 0 5-1 9 2 13 1 1 3 2 5 1 3-2 2-6 1-9l-1-4v-1l-1-1-29-13c-5-2-10-6-13-11V67c1-6 5-12 11-14m-7 10-1 16c0 3 2 5 4 8l1 1c1 1 1 2 3 2 4 3 10 4 15 7l18 8v-2c2 2 4 4 3 7v11l-3 2c-3 2-8 2-11-1-2-3-1-7-1-11H26v15c0 4 3 7 6 9l1 2c4 2 9 3 13 3l37-1c6 0 12-1 15-7 3-4 1-9 1-13v-10c-1-4-1-10-6-11l-1-1-4-2c-10-5-22-9-32-15-2-4-2-10 3-12 3-1 8-1 11 2l1 5v-1l-1 2h30V65c-1-1-1-5-3-5l-3-3h-1l-4-2-29-1H38c-5 1-10 4-11 9ZM289 57c5-5 12-6 18-6l37 1 15 3 2 2 3 15v50c0 5-2 10-5 14-4 4-10 5-16 5h-38a34 34 0 0 1-20-6l-6 2 2-9 4 1-1-6c-1-11 1-22-1-32l-3-1 3-10c0-4-2-7-3-11l3-2 1 3c1-4 1-10 5-13m0 3c-2 4-2 9-2 14v48c0 5 2 10 5 13 1 2 3 2 5 3 3 1 6 2 10 1h38v-1c4-1 10-1 13-6 3-7 2-16 2-23V68c0-4-1-9-6-11-4-3-9-3-14-3h-39c-4 0-10 2-12 6ZM371 52h45l9 36 1-3v-1l8-31 46-1c-2 4-1 8-1 12v76h-31V93l-1 1-12 46-19 1-1-3-2-7-1-2-6-22-2-9-2-6 1 48-31 1-1-89m42 2v3l-1-3h-37v84l-1 1h26V93l2-4h3l13 49 1-1h13l8-29 3-11 2-7c2-2 7-2 7 2v45l-1 2h26v-2h-1v-25a678 678 0 0 0 0-20h1V58h-1v-4h-38l-9 36-6 1-1-1v-2c-3-11-5-23-9-34ZM366 66h5l-4 2-1-2Z"/><path d="M144 69c3-2 7-2 10-1l-8 2-2 6v35l-2 6-1-12 1-29c0-3 0-6 2-7ZM329 69l2 2 1 42c0 3 0 6-2 9s-6 2-9 2-5-2-5-5V89c1-6-1-13 3-18 2-4 7-1 10-2m-8 2-1 3v44l1 2v2h6c2-2 2-5 2-8 1-5-1-11-1-16 1-8 2-17 0-25l-2-1-5-1ZM156 70l2 2v2l-1 37c0 4 1 8-2 12-1 2-4 2-7 1-3 0-6-2-6-5v-1l5 4c2 0 5 1 7-1l1-7V77l1-7Z"/><path d="m327 74 1 1v19l-1 3-4-1 1-5c-2-4 0-9 1-13l3-1-1-3ZM237 86l6-1 1 3 1 1v1l-8 4 2-5h3-2l-3 1v-4ZM368 91v-4h3v3l-3 1Z"/><path d="M246 90h5l-1 2c5-2 12-3 16 2-2 1-2 3-2 5v5h-13v-6l1-5c-6 0-10 1-15 4l2 4v3l-3 3V93l1 1 1 1 8-5ZM267 93h7l-1 5-3 1-3-3v-3ZM275 93h7c0 2 3 5 0 7-4 2-6-4-7-7ZM323 105v-1l5 1v9l-4-1-1-8ZM368 110v-3l3 1v4l-3-2ZM49 183h23v1l-1 4H55v5h16v5H56v8h-7v-23m1 1 1 4c6-2 13-1 20-1l-1-4-20 1ZM77 183h6v22l-7 1 1-23m4 6v-5l-3-1c0 3 0 6 3 6ZM89 183h24v1H90l2 5c5-3 12-2 18-1H96v7l3-1h11l-1-4 1-2 5 2-2-6 1-1c4 3 3 8 2 12-1 1-3 0-4 2l5 3-1 5-7 1v-6H96v6h-7v-23ZM122 183h24v4h-2c1-1 0-4-2-3h-19v4l4-1 2 5h16v1l-1 4-16-1v5h18v4l-25 1v-21l1-2ZM150 183l26 1v5h-10v17h-7v-18l-10 1 1-6m2 5h11c3-2 7 0 11 0v-5h-23c0 2-1 3 1 5ZM179 183h24l1 5h-18v4h16l1 1-1 3h-17l1 5h18v6c-8-2-17-1-25-1v-23m2 6h2l3-2h16v-4h-22l1 6ZM218 183h9l12 23h-8v-1l-1-2-1-2-14 1-2 3-7 1 12-23m0 6c3-2 6-2 9 0l-2-6h-5l-2 6m4 1-3 7h7c-1-2-2-6-4-7ZM242 183h11l7 15 8-15h10v22l-5 1h-1l-1-17-8 16-6 1-8-15v15h-7v-23m2 5h9l-2-4h-5c-3-1-3 2-2 4m24 0h9v-5h-7l-2 5ZM299 185c1-2 4-2 6-2h18-22l1 7 3-2h2l-1 4h14l-1-4 6 1-1-6c4 2 3 8 1 11 3 3 4 9 0 11-8 2-17-1-25 1h-1v-21m7 16 15-1-2-3h-13v4ZM333 183h19c3 0 6 0 7 3 1 4 1 8-2 11 3 2 3 5 3 9h-7l-1-7h-13v6l-5 1h-2c2-8 0-15 1-23m1 5h24l-3-5h-21v5m5 0 1 6h13v-6h-14ZM375 183c3 0 8-2 10 2l11 21h-8l-2-4h-13l-2 3-8 1 12-23m1 6c2-2 5-2 8 0l-2-6h-6v6m3 0-3 8h7l-4-8ZM418 183h8l-12 23h-9l-2-4-5-10c-1-3-4-6-4-9l2 1 4 5 1-6c4 5 5 12 9 17l8-17m0 6c3 0 5-2 6-4l-4-2-2 6ZM428 194c0-3 0-8 4-10l-2 6h3c2-1 3-3 5-3 5 0 11 0 16 2l2-2h2v14c0 3-3 4-6 4h-22c-2-4-2-7-2-11m7 1c0 2 0 5 2 5h13c3-2 1-7 1-10-3-2-8-1-12-1-3-1-4 3-4 6Z"/></g><g fill="#e9ebeb"><path d="m297 4 11-2-1 2c-7 2-14 6-22 5-5 2-10 2-15 1l27-6ZM213 7h12c4 1 5 6 6 9v-1l-1-3c-5-4-11-5-17-5ZM227 28l9-15c-1 4 0 8-2 11-3 5-6 9-11 12l-2-4-1-2c2 3 5 0 7-2ZM389 15l14-2c-3 4-9 5-14 7-8 0-16 0-23-2l-7-1h3l27-2ZM331 20l7 1c11 3 23 4 35 5-2 2-4 4-6 4-5-3-11-3-16-4-7-1-14-3-20-6ZM237 34l8-7-7 7h-1ZM318 27c7 1 13 5 20 6 3 0 6 0 8 2l-13 1c-4-5-10-6-15-9ZM257 38c4-1 8-4 11-7-1 5-6 7-11 7ZM292 38l4-1 5 10c-3-1-4-5-6-7-1 3 1 8-2 11l-1-13ZM317 50c6 1 11-4 17-4-1 3-5 3-7 4h9c8 0 17 0 23 5l-15-3-37-1c-6 0-13 1-18 6-4 3-4 9-5 13l-1-3-3 2-1-1v-2l1 1 4-3 2-8 7-4c8-2 16-2 24-2ZM230 57c4-4 9-10 16-8h2c-5 5-12 6-18 8ZM26 56c4-4 9-5 14-6h45c5 1 9 2 13 5-13-5-26-3-39-3-8 0-17-1-25 1-6 2-10 8-11 14v16l-1-16c0-4 2-8 4-11ZM127 50h35l13 1c5 0 10 2 12 7-5-5-13-7-20-7l-40 1v-2ZM371 51h44l1 1h-45l1 89h-1v-6l-3-1v-2h3V68h-4l4-2V51ZM434 53l1-2h45v1l-46 1ZM198 61c1-4 4-7 7-9-2 4-5 7-6 11-2 7-2 13-2 20l-1 1c1-8-1-16 2-23Z"/><path d="M413 54c4 11 6 23 9 34v2l-9-32v-4ZM441 58h36v34h-1V58h-33c-5 7-5 17-8 25l-2 10c-3 2-7 1-10-2l6-1v3c2 1 5-1 4-3 0-4 2-7 3-10 0-6 3-11 4-16l1-5v-1ZM270 59l4 7v16h-30v-1h1l3-1h25c0-7 1-14-3-21ZM97 60c2 0 2 4 3 5v11H70l1-2h28c0-4 0-9-2-14ZM184 60l3 6v43c1 8 2 16-2 24-3 5-9 6-14 6h-42c-4 0-10-1-12-5 5 4 11 4 16 4h34c5 0 10 0 15-3l4-11V98a655 655 0 0 0-2-38ZM232 68c4-2 8-1 11 1-3-1-8-1-11 1l-3 5c0-3 0-6 3-7ZM316 75c0-3 1-7 5-7 3-1 6-1 8 1-3 1-8-2-10 2-4 5-2 12-3 18v29-43Z"/><path d="m154 68 2 2-1 7v37l-1 7c-2 2-5 1-7 1l-5-4v-1l2-6V76l2-6 8-2m-8 3-2 8a6445 6445 0 0 1 3 41l2 1c3 0 5-2 4-4l1-15-1-14v-3l1-1-1-10-1-3h-6ZM326 72l2 1c2 8 1 17 0 25 0 5 2 11 1 16 0 3 0 6-2 8h-6v-2l1 1 4-1c2-1 2-4 2-6V75l-1-1-1-2ZM31 88c11 6 24 9 35 15h1v2l-18-8c-5-3-11-4-15-7-2 0-2-1-3-2ZM399 91c1-2 3-2 5-3l1 1h-3l-2 4v46h-26l1-1 24-1V91ZM194 89c2 1 2 3 3 5-1 6 2 13-1 19V95l-2-2v-4ZM237 94l8-4h1l-8 5-1-1ZM241 104h36l-3 1h-33l1 14c-1 2-4 3-6 3l-1-1h4c3-5 1-12 2-17ZM22 108h37c-4 2-7 1-11 1l-21 1c-2-1-4 0-5-2Z"/><path d="M271 132c4-7 1-16 2-24l1 19c0 4-2 7-5 9-4 3-9 4-14 3h-38c-5 1-10-1-14-5h1c6 4 12 4 18 4h34c5 0 11-1 15-6ZM99 109v10c0 4 2 9-1 13-3 6-9 7-15 7l-37 1c-4 0-9-1-13-3l-1-2c5 3 11 3 16 3h32c5 0 11-1 15-5 6-6 3-14 4-22v-2Z"/><path d="M67 113c1 3 2 7-1 9-2 1-4 0-5-1l4-1c2-1 2-5 2-7ZM284 123l1 6-4-1v-2l2-2 1-1ZM110 130l2 4-6 1 1-3h4l-1-2ZM412 129l1 2 2 7-2-4h-5l-1-2h6l-1-3ZM484 132h21v1l-3 2-18-1v1-3ZM292 135c6 4 14 3 21 3h32v1h-38c-4 1-7 0-10-1-2-1-4-1-5-3ZM452 137h25v2h-26l1-2ZM282 142l7 2-3 2 9 1c-6 5-11 12-16 18l-1 8c-2 0-4 0-6 2h-1v-10l-13-15-3-1-5 10-7 15a87 87 0 0 0-12 1h-1l-13-26-1-2h9c2 8 7 14 9 22l4-1 9-19 1-2h18c2 5 6 8 9 12l10-13c-3 1-7 3-8-1l3 1 2-4ZM24 147h8l-1 19 2 1 8 1c3 0 8 1 10-2l1-18v-1h8c-1 7 0 15-2 22-1 3-4 4-7 5-9 0-17 0-26-2-3-8-1-17-1-25ZM80 148c6-2 12-1 18-1l8 1 3 6-8 1-2-3c-5 0-11-1-16 1l1 5h16c3 0 7 0 9 3a98 98 0 0 1 0 12 416 416 0 0 1-28 2c-2 0-3-2-4-3l-1-6 6-1 2 1-1 3h19c1-2 0-3-1-5v-1c-8 1-15-1-23-1-3-3-2-9 0-13l2-1ZM138 147h15c2 8 9 14 13 22l3-1c-2-7-1-14-1-21h9c-1 4-2 7-1 11 1 5-1 10-1 15l-14 1a149 149 0 0 1-11-15l-2-5v-1h-3v19c-1 2-4 1-5 2l-2 1v-28ZM180 173l14-26h12l7 14c2 4 5 8 5 12l-7 1-1-3-1-2h-18l-3 5c-2-1-5-1-8 1h-1l1-2m13-8a314 314 0 0 0 14-1l-4-8-1-1v-3h-3c-2 4-5 8-6 13ZM310 147h22l5 1 2 6-7 1-2-3h-14c-3 0-2 3-3 5l18 1h4l4 1c0 4 1 9-1 12-2 2-5 2-8 3l-18-1h-4l-1-2v-5h7v1l-1 1a174 174 0 0 0 20 1l-2-6h-22l-2-3c0-4-1-10 3-13ZM344 147h31l-2 5-22 1v6l1-1a1181 1181 0 0 0 22-1l-2 5h-21v7l1-1h23l-1-3h2l-1 4c-1 2-1 5-4 4l-27 1v-27ZM390 147h13c0 3 1 5 3 7l5 10a57 57 0 0 1 3 4l3 6c-3-1-6 0-8 1h-1l-2-6h-20v2l-3 2-7 1v-1l13-24 1-2m5 6-3 5a67 67 0 0 0-3 7l3-1 1-4v4h10c-2-4-5-7-5-12l-3 1ZM419 147h9l-1 21h21v7h-29v-28ZM455 152l21-1c3 1 3 4 4 6l-7 1h-2l-1-3-10 1-2 1v2l13 1 8 1c3 2 2 7 3 10l-6 3h-23c-3 0-3-4-4-6h10l-1 1h15l-1-4-15 1-1-1-4-1-2-3c-1-4 0-9 5-9ZM67 168h6l-2 3 1 3h-8v-6h3ZM114 168a302 302 0 0 1 8 1l-1 4-7 1v1-7ZM394 183h7l-1 6-4-5-2-1ZM432 184c6-2 14 0 21-1l2 1 1 3-2 2c-5-2-11-2-16-2-2 0-3 2-5 3h-3l2-6ZM50 184l20-1 1 4c-7 0-14-1-20 1l-1-4ZM81 189c-3 0-3-3-3-6l3 1v5ZM90 184h23l2 6-5-2c-6-1-13-2-18 1l-2-5ZM123 184h19c2-1 3 2 2 3a170 170 0 0 0-21 1v-4ZM152 188c-2-2-1-3-1-5h23v5c-4 0-8-2-11 0h-11ZM181 189l-1-6h22v4h-16l-3 2h-2ZM218 189l2-6h5l2 6c-3-2-6-2-9 0ZM244 188c-1-2-1-5 2-4h5l2 4h-9ZM268 188l2-5h7v5h-9ZM302 190l-1-7h23l1 6-6-1h-14l-3 2ZM334 188v-5h21l3 5h-24ZM376 189v-6h6l2 6c-3-2-6-2-8 0ZM418 189l2-6 4 2c-1 2-3 4-6 4Z"/></g><g fill="#7f6655"><path d="m292 11 14-4 17 1c10 3 21 5 31 6l-21-3 2 4c-2 0-7-2-8 2l-8-4c4 2 9 1 13 1v-3c-7-1-14-4-22-3 1 2 4 2 6 4l-12-3c-3 0-5 1-8 3 5 5 14 5 21 4l-2 2 2 2-11-3 2 3c-4-2-7-7-12-6v-2l-10 4-9 4c2 5 9 6 13 4 3 4 10 5 13 10l-14-7h-5c1 3 5 5 8 7-4 2-8-1-11-3l-3 4 6 3-3 3-2-3-10-1 1-4 7 1c1-1 4-3 2-4l-8-1-1 2c1-5 0-9-3-13 9 0 17-5 25-7m-19 16c3 1 5 3 8 3l3-4-11-5c-3 1-3 5 0 6ZM127 20c18-2 36-7 54-11h1l-17 4-4 2c9 0 17-2 26-3 11-1 23-2 34-1 3 0 6 2 6 5l-2 1-1-4-6 4 4-4-5-2c-3 0-5 3-7 5l-12 8c7 4 15 1 21-3l-4 4c3 4 8 2 12 3-2 2-5 5-7 2l1 2c-3 6-9 10-15 10 3-6 9-9 13-13-1-1-3-2-4 0l-17 13 1 1-3-2c4-3 9-5 12-9l-3-1 3-4-6 2-7 1 2-4-20 11-13 7 12 1c-5 2-10 2-15 0-7-1-14 0-19-5l-10-4-6-7c8 1 16 1 24-2 5-2 12-2 17-5 3-1 5-3 6-6-9 1-16 4-24 6l8-4c-3-1-6-2-10-1-6 2-13 3-20 3m71-7c-2 4-7 5-10 9l7 1c7-1 14-6 18-12l-5 2-2-2c-3 0-6 0-8 2m-11 1-12 1c-2 0-2 3-1 4 4 4 10 3 15 1 3-2 7-4 8-8l-10 2m-23 10-13 3c-7 3-15 3-22 4l5 5 10-1-3 2c4 1 7-1 11-1l-9 3c2 3 7 4 11 4l14-4c5-2 9-5 14-6 4-3 9-4 12-8-4-1-8 2-13 2l1-3c-5 1-9 5-14 6 4-2 8-3 11-6h-4v-3c-4-1-7 2-11 3ZM381 24c8 0 16-4 23-8v1c-5 3-9 6-14 7l-15 1 6-1ZM254 20c5-2 12 0 12 6-4-2-9 3-6 6l-3 4c-3-1-5-4-7-6-1-4 1-8 4-10m-4 8 9-7c-4-2-9 3-9 7ZM240 38c3-3 6-5 6-9l1 5 5 4h-12ZM206 55c6-5 13-6 20-9-1 3 0 7-3 8-3-2-7 0-9 3l5 1h-9l2 2-2 1-1-3c-3 1-4 4-5 7l-2-4-2 13v45l2 11c-2-2-2-5-2-8V73c-1-5 1-10 2-15l2 3 2-6m7-4v3c3 0 6-2 8-4-3-1-5 0-8 1ZM246 49c4-2 9-1 13-1h9l-3 3-8-2c-3 0-6 2-9 0h-2ZM267 51l7-2-2 5-5-3ZM40 50h45-45ZM415 51h1l2 5c2 10 4 20 8 29l-1 3-9-36-1-1ZM480 52v90h-33v-7h-4c-1-4 3-2 5-3v8h31V64c0-4-1-8 1-12ZM119 55l14-2h37c4 0 7 2 10 3l2 2a213 213 0 0 0-11-4h-33c-6 0-13 0-19 3-4 2-5 6-6 9v48c0 5 0 11 2 16-3-4-2-9-2-14l-1-48c0-5 3-10 7-13ZM100 57l4 8-1 14a6354 6354 0 0 0-1-2c1-6 1-13-2-20Z"/><path d="m361 57 4 7 1 1-2 6v50c0 5-1 10-3 14-3 5-9 7-14 7h-46l-10-2c3 7 12 7 19 7-4 3-3 9-3 13l-3-2 1 8 10-1v3l-1-1v-1h-7v5l-3-1c1 3-1 8 3 9 4 2 10 1 15 2 6-1 13 0 16-6l-23 1c-3-1-5-1-7-3h4l18 1c3-1 6-1 8-3 2-3 1-8 1-12l-4-1 5-1c0 5 2 9 1 14-1 3-2 6-1 9h37c3 0 6-3 8-5h-42v-10c1-5-1-10-2-14l-1 5h-10l1-2h-16l1 3c5 1 10-1 15 1l-18-1c1-2 0-5 3-5h14l2 3 7-1-2-6-5-1h11c6-1 12 0 18-3 4-2 5-8 6-13l1 1v2l3 1v6h1l31-1-1-48 2 6-1 6v38l-28-1v6h32l-1-14v-1h1l1 2h5a62 62 0 0 0 3 7l3 6v8h-4v-5l-2 1c-2 4-1 8-2 13l-5-10c-2-2-3-4-3-7h-13l-1 2-4 2c-4 4-4 9-7 13l-2 1h-2l1 3h-4l2-4h-20l-1 4-1 1v-7h21l2-5-4 1 4-4h-21l-1 4-1 1v-6l22-1 2-5h-31v27l27-1c3 1 3-2 4-4l1 4v1l7-1 3-2v-2h20l2 6c-1 1-3 2-3 4l9 1h20l15 1 4 2c-7 1-15-1-21 1-4 2-4 7-4 10l-3 2v12c3 5 8 4 12 4l1 1h-11l1 2h-30l-12-2h-18l1-5v-1l-7-1v3l-1 5-4-1v-4l1-3c-2 1-6 0-7 2v5l-14-1 1-3 2-2-6-1 5-1v-6h13l1 7h7c0-4 0-7-3-9 3-3 3-7 2-11-1-3-4-3-7-3h-19c-1 8 1 15-1 23l-2 7h-5l2-7-1 1-26-1c8-2 17 1 25-1 4-2 3-8 0-11 2-3 3-9-1-11h-19c-2 0-5 0-6 2l-1 23v5h-20l-1-2 1-4-5-1 5-1v-22h-10l-8 15-7-15h-11v23l1 4h6v-14c3 4 6 9 8 15l6-1c3-5 8-10 8-17l-7 13-7 1v-1l6-1 8-16 1 17v7H168v-18h9v-3l-1-8-26-1-1 6 10-1v1h-9l3 7 6-2v12l2 3 1 4h-12l-1-5-7-2-19 1-2-1 25-1v-4l2 1c-1-2-2-4-4-4l-15-1v2l2 2h-3v-5l16 1 1-4 4 1-2-5h-17l-1 3-2-5h19v-4h-24l-1 2-2 1c-1-2-3-4-5-3l-1 1v-1l-2-2 3-2h3l1 3 10-2v-8l-4-3-1 6-9-1 7-1 1-4 1-3-6 1-3-4 2-2-1-2c0-2-1-5-3-7v6c-3-2-7-2-11-2l-2-3-13 1-2 2-1-3c5-2 11-1 16-1l2 3 8-1-3-6-8-1c-6 0-12-1-18 1 5-3 12 0 18-2 4-2 7-7 8-11l6-1c5 7 14 7 21 7h33c5 1 11 0 16-3 3-2 5-5 6-9 2-8 1-17 2-26V65v60c0 6-3 11-8 14s-11 3-17 3h-39c-4 0-8-2-11-3 4 7 12 8 19 8h34c0 7-1 14 1 21l-3 1c-4-8-11-14-13-22h-15v28l2-1c1-1 4 0 5-2v-19h3v1c-2 7 0 15 0 22l-10-1c2 2 3 5 5 5h7v-21l5 6 4 7v2l1 1 5 5 15-1c3 2 7 1 10 1l3-4h15c3-1 4 5 7 4 3 1 7 1 9-2l-2-3h-11v-1l7-1c0-4-3-8-5-12l-7-14h-12l-14 26v-18l-1-4c-1 8-2 16-1 25-6-1-11-2-16-1l-1-1 14-1c0-5 2-10 1-15-1-4 0-7 1-11 3 1 6 0 8-2l21 1c7 3 12 10 15 17l4 7 5 10 13 1 7-12 6-14 3 3 11 12-1 3 1 7 8 1 3-6h-9c2-2 4-2 6-2l1-8c5-6 10-13 16-18l-9-1 3-2-7-2-2 4-3-1c1 4 5 2 8 1l-10 13c-3-4-7-7-9-12 4 0 7-2 10-5l12-6c5 3 11 5 17 5h38c6 0 12-1 16-5 3-4 5-9 5-14V72l-3-15m25 118 13 1c2 0 2 5 5 3 1-2-1-3-2-5l4-3h-18l-2 4m-207 8v23l3 5 11-1h11l1-8h-1v-1h-18l-1-5h17l1-3 1 1 1-9-1 5c-6-2-12-1-18-1v-1h18l-1-5h-24m39 0-12 23 7-1 2-3 14-1 1 2-14-1v4c5-2 10-1 15-1v1c1 5 5 4 8 2v-2l-12-23h-9m157 0-12 23 8-1h5c2-1 4 1 6 1l2-3-10-1h12l2 4h8l-11-21c-2-4-7-2-10-2m19 0c0 3 3 6 4 9-1 2-3 3-2 5l4 10 1-2 3-2-1-1 2 4h9l12-23h-8l-8 17c-4-5-5-12-9-17h-7m-208 14v3h17v-3h-17m154 4c0 1 0 4 2 4h8l1-4h-11m-133 6c0 3 4 2 6 3 2 0 2-2 1-4l-7 1m179 2 4 1 4-3c-3 0-7-2-8 2m16 1c2 1 5 2 8 1l2-4c-4-1-9-2-10 3Z"/><path d="M276 65c0-2-1-4 1-6l2 7v2l-1 1v16l-33-1v5l-1-1-1-3-6 1v4l3-1h2-3l-2 5-1-1v-9c3 3 5-1 8-1h33l-1-18ZM367 68a348 348 0 0 1 4 2h-3l-1-2Z"/><path d="M280 69c1 4 3 7 3 11l-3 10 3 1c2 10 0 21 1 32l-1 1v-19l1-4c-3 0-6 0-8-3l-6 1 3-1 1-5h-7v3l-1-2c-4-5-11-4-16-2l1-2h29V69m-5 24c1 3 3 9 7 7 3-2 0-5 0-7h-7ZM23 83c3 5 8 9 13 11l29 13 1 1c-13-7-27-10-39-18l-4-7ZM405 89l3 4v3l11 41-1 1-13-49Z"/><path d="m447 94 1-1v4l-1 3c-4 10-6 21-9 32-1 3-1 7-3 9h-19l19-1 12-46ZM99 97l3 4 1 21c0 5-1 11-5 14-3 4-8 6-13 6H40c-5 0-9-3-13-4 2 3 5 7 9 8 5 2 10 3 16 2l-1 18c-2 3-7 2-10 2l-1-16-3-3v2h-4v16l-2-1 1-19h-8c0 8-2 17 1 25 9 2 17 2 26 2 3-1 6-2 7-5 2-7 1-15 2-22 2 1 4 2 4 5l-3-1c0 6-2 12 3 16l3 1a222 222 0 0 1-6-1l-2 5-7 4-23-1c5 3 11 6 17 6 6-1 13 1 19-2 2-1 4 0 6 2l1 2H49v23l1 1 3 2 1 3c-4 2-8 1-12 0l-7-13-13-28-12-24c-3-5-5-11-9-15h22v-4c2 4 4 9 8 11 11 4 23 2 34 2 10 0 20 2 29-3 7-3 9-12 9-19s-1-15-4-22ZM484 134l18 1-7 15-5-5-3 2-2-2c1-3 0-7-1-11ZM225 147c7 3 15 0 22 2l-9 19-4 1c-2-8-7-14-9-22ZM193 165c1-5 4-9 6-13h3v3l-2-1c0 4-4 7-6 10 4 1 6-1 7-4l3 4-11 1ZM309 163h22l2 6h-4l2-4-14-1-8-1ZM83 183l4 2v5l-3 1v12l4 5c-3-1-7-2-10-1h-2v-1l7-1v-22Z"/><path d="m72 184 3 1 1 5c-7-1-13-2-20-1 1 1 3 3 5 3l10 1H55v-5h16l1-4ZM455 184c2 0 3 2 4 3v15h2l-1 4 4-1 2 5-1 2-4 1h-11a155 155 0 0 1 3-5c-7-2-16 0-24-3h23c3 0 6-1 6-4v-14h-2l-1-3ZM472 186h5l-3 3-2-3ZM96 188h14l-1 2-12-1 2 5-3 1v-7ZM339 188h14v6h-2v-2c0-1 1-3-1-2h-10v4l-1-6Z"/><path d="M451 190c0 3 2 8-1 10h-13c-2 0-2-3-2-5 4-1 9-2 12 3v-5l4-3ZM71 193l4 3v4l-9-2h5v-5ZM96 200h13-12l3 6v2c-3-2-7-2-10-1h-1v-1h7v-6ZM117 200l3 3-1 5c-2-2-5-2-8-1l-1-1h-1l7-1 1-5Z"/></g><g fill="#101111"><path d="M390 24c5-1 9-4 14-7h1v3c-5 4-10 8-16 8h-15l1-3 15-1ZM119 26l7 3 6 7 10 4c5 5 12 4 19 5 5 2 10 2 15 0 7-3 15 2 20-4l3 2 9 4-2 4v1l-1-2-7-3-20 1h15c-6 2-13-2-18 3l-13-1c-4-1-9 0-13-2-3 0-5-2-8-4l-7-2c-3-2-5-6-8-7l-8-6 1-3ZM352 34c8 0 15-1 22-6v5c-4 2-7 4-11 4l-9 1-9 4-11 3-9 2 1-2c3-1 7-2 8-5 6-1 13-2 18-6ZM370 64c2-4 0-9 1-13v15h-5l1 2 1 2 2 2c-3 5-3 10-2 15v23l3 2h-3l2 2-2 4-1 13c-1 5-2 11-6 13-6 3-12 2-18 3h-33c-7 0-16 0-19-7l10 2h46c5 0 11-2 14-7 2-4 3-9 3-14a11843 11843 0 0 0 2-56c1 0 3 1 4-1ZM236 57l12-5c2 2 4 1 6 2 3-1 6 0 9 1 2 0 4 0 4 2h-22l-16 5c-4 0-9 2-12 5-3 2-5 6-8 7l-1-1h2c4-6 7-12 14-13 4 1 8-2 12-3ZM438 54h38v4h-35v1l-1 5c-1 5-4 10-4 16-1 3-3 6-3 10 1 2-2 4-4 3v-3l9-36ZM27 63c1-5 6-8 11-9h22l29 1 4 2H48c-7 0-15 3-17 10s-1 13-1 20c-2-3-4-5-4-8l1-16ZM119 57c6-3 13-3 19-3h33l9 3h-48c-6 0-12 4-15 9-2 5-2 11-2 16 1 12 0 24 3 36l2 1c7-2 15 2 21-3l1 4v-1c0 3 3 5 6 5 3 1 6 1 7-1 3-4 2-8 2-12l1-37 2 7 1 25 2 9c7-1 15 0 22-2l1 11-4 11c-5 3-10 3-15 3h-34c-5 0-11 0-16-4l-2-4c-2-5-2-11-2-16V66c1-3 2-7 6-9Z"/><path d="M289 60c2-4 8-6 12-6h39c5 0 10 0 14 3h-46c-7 0-13 3-16 10-2 3-2 7-2 11v26c1 3 1 6 3 8h15l7-2 1 9c0 3 2 5 5 5s7 1 9-2 2-6 2-9l-1-42 2 1 2 6c-1 10 0 20 1 30 2 2 5 1 8 2l16-1c0 7 1 16-2 23-3 5-9 5-13 6h-32c-7 0-15 1-21-3-3-3-5-8-5-13V74c0-5 0-10 2-14ZM375 54h37l1 3v1h-35v45c1 2 1 4 3 4 6 1 11 1 17-1l1-3v34l-24 1V54ZM418 56l2 1 6 27v1c-4-9-6-19-8-29ZM480 56l4 2v77l-1 11h-31l-1-4h29V56ZM204 65c1-3 2-6 5-7l1 3c-2 1-4 3-5 6-4 5-2 12-2 18 0 8-1 16 1 24 1 1 1 2 3 2 7 0 14 1 22-1 0 5-1 10 2 13 3 2 8 2 11 0 4-4 2-10 2-16h29v1c-1 8 2 17-2 24-4 5-10 6-15 6h-34c-6 0-12 0-18-4l-2-4-2-11V74l2-13 2 4Z"/><path d="M189 61c2 3 4 6 4 9v15a54 54 0 0 0 1 8l2 2v2l-2 1v22l-2 20c4 0 7 0 10-3 4 3 10 5 15 4h40c5 0 11-1 15-5l5-8v-24 5l4 2v14l2-1-2 2v2l-2 9 6-2 3 1-12 6c-3 3-6 5-10 5h-18l-1 2c-7-2-15 1-22-2h-9l1 2c-2-3-6-3-9-4l-5-5-6 3c-4 1-9-1-12 2-2 2-5 3-8 2h-43c-7 0-15-1-19-8 3 1 7 3 11 3h39c6 0 12 0 17-3s8-8 8-14V65l-1-4ZM104 65c5 5 2 12 3 19H72l-1-1-1-4h33l1-14ZM278 69l1-1 1 1v16l-2 5c-11-1-22 1-32-2l-1-4 33 1V69ZM70 70l3 4h-2v1l-1-5ZM59 72l3-2c2 1 4 3 4 6l-4 3c-4-1-4-4-3-7Z"/><path d="M146 71h6l1 3v2l-3 3-1 42-2-1c-2-2-3-4-3-7a6445 6445 0 0 0 2-42ZM232 72c2 0 4-2 6-1s2 3 3 5c-3 2-5 5-5 8a600 600 0 0 0 3 20c0 6-5 11-2 16l2 1h-4c-2-1-3-3-2-5l-1-44ZM245 72c2 2 2 5 3 8l-3 1v-9ZM321 71l5 1 1 2 1 3-3 1c-1 4-3 9-1 13l-1 5 4 1v1c0 2-2 3-3 4l-1 2v1l1 8 4 1-1 3-3 1-2 3-1-1-1-2V74l1-3ZM56 80c10 6 22 10 32 15l4 2 1 1h-1L68 88c-4-3-9-4-12-8ZM153 97V85v3l1 14-1 15V97ZM27 90c12 8 26 11 39 18v3l-7-2v5h3l1 6h2l-4 1c-3-4-2-8-2-13h-2c-8-4-16-6-24-11-3-1-4-4-6-7Z"/><path d="M237 97c5-3 9-4 15-4l-1 5c-4 0-9 0-12 3l-2-4ZM264 99c0-2 0-4 2-5l1 2 3 3 6-1c2 3 5 3 8 3l-1 4c-3 0-5 0-7-2h-6l-3-4h-3ZM408 96l5 11c2 2 5 2 8 3 6-1 13 0 19-2l-8 29h-13l-11-41ZM452 95c4 5 3 12 4 18 7 0 13 2 20-1v25h-24V95ZM403 104l1-6 2 9v26l1 14h-32v-6l28 1v-38ZM102 101c2 3 4 7 4 11l1 20-1 3c-1 4-4 9-8 11-6 2-13-1-18 2l-2 1H65c2 2 4 4 3 6v13h-1l-3-1v-15c0-3-2-4-4-5h-8v1c-6 1-11 0-16-2-4-1-7-5-9-8 4 1 8 4 13 4h45c5 0 10-2 13-6 4-3 5-9 5-14l-1-21Z"/><path d="M438 132c3-11 5-22 9-32v16l-4 16-4 14a299 299 0 0 1-20 1l-3-6h19c2-2 2-6 3-9ZM71 109l7 5 10-1 11-2c-1 8 2 16-4 22-4 4-10 5-15 5H48c-5 0-11 0-16-3-3-2-6-5-6-9v-15h29c0 4-1 8 1 11 3 3 8 3 11 1l3-2 1-12Z"/><path d="m502 135 3-2c1 2 2 5 1 7l-36 74c0 2-2 4-4 4H47c-3 0-5-2-7-3l-7-15 2-1 7 13c4 1 8 2 12 0l-1-3-3-2c3-1 7 0 10 1l-1-5 1-2-3-2 9-1 9 2v-4l-4-3-10-1c-2 0-4-2-5-3 7-1 13 0 20 1l-1 13-14 1-1 8c10 3 20 0 29 2l26-1-4-6c3-1 6-1 8 1l1 5h31c3 2 6 2 9 2h291l10-2 4-1 1-2 12-24 17-36 7-15Z"/><path d="M428 147v20h13l1-10 7-3c-3 2-4 5-4 9l5-2 2 3 4 1 1 1 15-1 1 4h-15l1-1h-10c1 2 1 6 4 6h21v4c-8 4-17 3-25 3l-15-1h-20l-9-1c0-2 2-3 3-4h40v-7h-21l1-21ZM37 149l3 3 1 16-8-1 3-2 1-14v-2ZM255 149l3 1 13 15v10h10l-3 6-8-1a239 239 0 0 0 0-10l-11-12 1-3-5-6ZM385 151l4-2-13 24-1-4 1-4 2-1c3-4 3-9 7-13Z"/><path d="m413 151 2-1v5c0 5 1 10-1 13a225 225 0 0 1-3-4c1-5 0-9 2-13ZM179 151l1 4v18l-1 2h1l9 1 1 3h-10l-15 1-5-5-1-1v-2l-4-7a149 149 0 0 0 7 10c5-1 10 0 16 1-1-9 0-17 1-25ZM341 151c1 4 3 9 2 14v10h42c-2 2-5 5-8 5h-37c-1-3 0-6 1-9 1-5-1-9-1-14l-5 1h-4c-5-2-10 0-15-1l-1-3h16l-1 2h10l1-5ZM84 158l-1-5 1 3 2-2 13-1 2 3c4 0 8 0 11 2v-6c2 2 3 5 3 7l-3 3h-2l-1-1c-2-3-6-3-9-3H84Z"/><path d="M353 154h21l-4 4h-18l1-4ZM148 176c0-7-2-15 0-22l2 5v21h-7c-2 0-3-3-5-5l10 1ZM458 157l2-1 10-1 1 3h2l-2 2-13-1v-2ZM304 158l3 2 2 3 8 1 14 1-2 4-16-1 1-1 1 1v-3l-10 1-1-8ZM353 164h20l-2 4h-19l1-4ZM82 165l5-1h14c1 2 2 3 1 5H83l1-3-2-1ZM304 170a709 709 0 0 0 4 3c2 2 4 2 7 3l23-1c-3 6-10 5-16 6-5-1-11 0-15-2-4-1-2-6-3-9ZM192 171h18l1 3v1h-19v-4ZM386 175l2-4h18l-4 3c1 2 3 3 2 5-3 2-3-3-5-3l-13-1ZM59 172l5 3c4 1 8 0 12 3l1-6c1 1 2 3 4 2a416 416 0 0 0 32 0l1 2c4 0 7-1 11 1v-5c2 2 3 5 2 8-3 1-7 0-10-1h-3c-7 3-15 2-23 2-4 0-7-3-11-5l-2 4-7 1c-2-2-4-3-6-2-6 3-13 1-19 2-6 0-12-3-17-6l23 1 7-4ZM231 175l3-1c2 2 6 2 9 2v4l-12-1v-4ZM176 184l1 8h-9v16c-2 2-5 2-7 1l-2-3h7v-17h10v-5ZM87 185h1v19c0 2 1 4-1 5-1 2-3 1-5 2l-1-3-3-1c3-1 7 0 10 1l-4-5v-12l3-1v-5ZM204 190l1-5-1 9-1-1-1-1h-16v-3c6 0 12-1 18 1ZM298 208l1-23v21h1l26 1-5 1-2 3-15-1c-2 1-4-1-6-2Z"/><path d="M307 188h12l1 4h-14l1-4ZM97 189l12 1 1 4H99l-2-5ZM129 192l1-3h17l2 5-4-1v-1h-16ZM340 190h10c2-1 1 1 1 2h-11v-2ZM435 195c0-3 1-7 4-6 4 0 9-1 12 1l-4 3v5c-3-5-8-4-12-3ZM249 191l8 15v1l7-1 7-13c0 7-5 12-8 17l-6 1c-2-6-5-11-8-15v-5ZM396 197c-1-2 1-3 2-5l5 10 1 1-3 2-1 2-4-10ZM112 197c1-2 3-1 4-2l4 2v6l-3-3-5-3ZM129 197l15 1c2 0 3 2 4 4l-2-1h-15l-2-2v-2ZM186 197h17v3h-17v-3ZM306 201v-4h13l2 3-15 1ZM97 200h12v6h-9l-3-6ZM340 201h11l-1 4h-8c-2 0-2-3-2-4ZM204 202h1l-1 8h-11l-11 1-3-5c8 0 17-1 25 1v-5ZM216 202l14 1 1 2c-5 0-10-1-15 1v-4ZM373 202h1l10 1-2 3c-2 0-4-2-6-1h-5l2-3ZM425 208l4-3c8 3 17 1 24 3l-1 1-12 1c-5-1-10 0-15-2ZM231 206h8v2c-3 2-7 3-8-2ZM242 206h7v4h-6l-1-4ZM272 206h1l5 1-1 4-1-1-3 1-1-4v-1ZM90 207c3-1 7-1 10 1v3c-4 0-7-2-10-4ZM123 207l19-1 7 2-1 3h-21l-4-4ZM207 207l7-1c1 2 1 4-1 4-2-1-6 0-6-3ZM351 208c1-2 5-1 7-2l-1 3-4 1-1 2-1 1v-5ZM362 206l7 1v1l-7 1v-3ZM386 209c1-4 5-2 8-2l-4 3-4-1Z"/></g><g fill="#007e9e"><path d="M31 67c2-7 10-10 17-10h46l3 3c2 5 2 10 2 14H73l-3-4c-3-3-8-3-11-2-5 2-5 8-3 12 3 4 8 5 12 8l24 10 1 2c-7 2-15 3-22 2-2-1-3 0-5 1-11-6-24-9-35-15l-1-1c0-7-1-13 1-20ZM132 57h48l2 1 2 2 2 9v29c-1 1-3 3-5 2l-19 1c-2-8 1-17-2-24l-2-5-2-2-2-2c-3-1-7-1-10 1-2 1-2 4-2 7l-1 29v-8c-8 3-15 3-23 3l-1-18c0-6-1-13 3-18 3-4 8-5 12-7ZM229 62l16-5h22l3 2c4 7 3 14 3 21h-25c-1-3-1-6-3-8v8l-1-9-1-2c-3-2-7-3-11-1-3 1-3 4-3 7v27l-2-6c-6 2-12 1-19 2-3 0-4-4-4-6l1-25c1-3 3-5 5-6-1 3-3 7-2 12l1 1c3-1 5-5 8-7 3-3 8-5 12-5ZM292 67c3-7 9-10 16-10h46c5 2 6 7 6 11v23c-7 3-15 3-22 2-4-4-1-10-3-15l-2-6-2-1-2-2c-2-2-5-2-8-1-4 0-5 4-5 7v44l-1-9 1-9-24-1-1-18 1-15ZM378 58h35l9 32 1 1c3 3 7 4 10 2l2-10c3-8 3-18 8-25h33v39c-6 3-13 2-19 1l-5-6c0-4-5-4-7-2l-2 7-9 2-21-1-5-5-3-4-1-1c-2 1-4 1-5 3l-2 5c-6 1-12 3-17 0l-2-13V58Z"/></g><g fill="#1c3f4c"><path d="M117 66c3-5 9-9 15-9-4 2-9 3-12 7-4 5-3 12-3 18l1 18c8 0 15 0 23-3v8l1 12v3l-1-4c-6 5-14 1-21 3l-2-1c-3-12-2-24-3-36 0-5 0-11 2-16ZM203 85c0-6-2-13 2-18l-1 25c0 2 1 6 4 6 7-1 13 0 19-2l2 6v8c-8 2-15 1-22 1-2 0-2-1-3-2-2-8-1-16-1-24ZM290 78c0-4 0-8 2-11l-1 15 1 18 24 1-1 9-7 2h-15c-2-2-2-5-3-8V78ZM158 72l2 5c3 7 0 16 2 24l19-1c2 1 4-1 5-2v26l-1-11c-7 2-15 1-22 2l-2-9-1-25-2-7v-2ZM335 78c2 5-1 11 3 15 7 1 15 1 22-2v18l-16 1c-3-1-6 0-8-2-1-10-2-20-1-30ZM378 83l2 13c5 3 11 1 17 0l2-5v12l-1 3c-6 2-11 2-17 1-2 0-2-2-3-4V83ZM245 89v-5l1 4c10 3 21 1 32 2l2-5v5h-35v-1ZM452 92l5 6c6 1 13 2 19-1v15c-7 3-13 1-20 1-1-6 0-13-4-18v-3ZM408 93l5 5 21 1 9-2-3 11c-6 2-13 1-19 2-3-1-6-1-8-3l-5-11v-3Z"/><path d="m447 100 1-3v35c-2 1-6-1-5 3h4v7h4l1 4h31l1-11v-1c1 4 2 8 1 11l2 2 3-2 5 5-17 36-12 24-2-5-4 1 1-4h-2v-15c-1-1-2-3-4-3l-2-1-4-2c8 0 17 1 25-3v-4h2l6-3c-1-3 0-8-3-10l-8-1 2-2 7-1c-1-2-1-5-4-6l-21 1c-5 0-6 5-5 9l-5 2c0-4 1-7 4-9l-7 3-1 10h-13v-20l11-1 4-14h4v-32m25 86 2 3 3-3h-5ZM92 98h1c5 1 5 7 6 11v2l-11 2-10 1-7-5-1 12v-11c1-3-1-5-3-7h-1c2-1 3-2 5-1 7 1 15 0 22-2l-1-2ZM0 132h1c4 4 6 10 9 15l12 24 13 28-2 1-26-53-7-14v-1ZM197 143l6-3 5 5c3 1 7 1 9 4l13 26h1v4l12 1v-4c-3 0-7 0-9-2h9l7-15 5-10 5 6-1 3-3-3-6 14-7 12-13-1-5-10-4-7c-3-7-8-14-15-17l-21-1c3-3 8-1 12-2ZM65 149h13c-2 4-3 10 0 13 8 0 15 2 23 1v1H87l-5 1-6 1 1 6-1 6c-4-3-8-2-12-3l-5-3 2-5 3 1v6h8l-1-3 2-3h-5v-13c1-2-1-4-3-6ZM33 151h4l-1 14-3 2v-16Z"/><path d="m61 151 3 1v15c-5-4-3-10-3-16ZM395 153l3-1c0 5 3 8 5 12h-10v-4l-1 4-3 1a114 114 0 0 1 3-7l3-5ZM200 154l2 1 1 1 4 8h-3l-3-4c-1 3-3 5-7 4 2-3 6-6 6-10ZM415 155h4v20h-10c2-1 5-2 8-1l-3-6c2-3 1-8 1-13ZM115 159l1 2-2 2 3 4 6-1-1 3-1-2-7 1v7-1l9 1 1-6 4 3v8l-10 2-1-3c3 1 7 2 10 1 1-3 0-6-2-8v5c-4-2-7-1-11-1l-1-2-4-1 1-11h2l3-3ZM188 174l3-5h18l1 2h-18v4h30l2 3c-2 3-6 3-9 2-3 1-4-5-7-4h-15l-3 4c-3 0-7 1-10-1h10l-1-3-9-1c3-2 6-2 8-1ZM80 176c4 2 7 5 11 5 8 0 16 1 23-2l-3 2 2 2H89v24h1c3 2 6 4 10 4v-5h10l1 1 4 6-26 1c-9-2-19 1-29-2l1-8 14-1 1-13-1-5-3-1v-1l-1-2 7-1 2-4m-3 7-1 23v1h2l3 1 1 3c2-1 4 0 5-2 2-1 1-3 1-5v-19h-1l-4-2h-6Z"/><path d="M114 183c2-1 4 1 5 3l2-1v21l2 1 4 4h21l1-3 1 5h-30l-1-5 1-5v-6l-4-2c1-4 2-9-2-12ZM150 189h9v5l-6 2-3-7ZM222 190c2 1 3 5 4 7h-7l3-7ZM379 189l4 8h-7l3-8ZM168 192h9v3h-9v-3ZM340 192h11v2h-11v-2ZM425 196l3-2c0 4 0 7 2 11h-1l-4 3v-12ZM56 198h10l-9 1 3 2-1 2 1 5c-3-1-7-2-10-1l-1-1h7v-8ZM326 207l1-1-2 7h5l2-7h2l6 1-2 2-1 3 14 1 1-1 1-2 4-1v4l4 1 1-5 7-1-1 5h18l12 2H160c-3 0-6 0-9-2h11l-1-4c2 1 5 1 7-1v5h104v-6l1 4 3-1 1 1 1 2h20v-5c2 1 4 3 6 2l15 1 2-3 5-1ZM402 210c1-5 6-4 10-3l-2 4c-3 1-6 0-8-1ZM425 208c5 2 10 1 15 2l12-1-2 4h11l-10 2h-23l-1-2h11l-1-1c-4 0-9 1-12-4Z"/></g></svg>