<?xml version="1.0" encoding="utf-8"?>
<!-- Generator: Adobe Illustrator 22.1.0, SVG Export Plug-In . SVG Version: 6.00 Build 0)  -->
<svg version="1.1" id="Layer_1" xmlns="http://www.w3.org/2000/svg" xmlns:xlink="http://www.w3.org/1999/xlink" x="0px" y="0px"
	 viewBox="0 0 1794.4 866.7" style="enable-background:new 0 0 1794.4 866.7;" xml:space="preserve">
<style type="text/css">
	.st0{fill:#FFFFFF;}
	.st1{fill:#84BB39;}
	.st2{fill:#485621;}
	.st3{fill:#00D400;}
</style>
<path class="st0" d="M205.7,71.7c1.4,0.1,2.8-0.5,3.8-1.4c0.9-1.3,1.3-3,1.3-5.2V31.6c0-2.1-0.4-3.9-1.3-5.1
	c-1.1-0.9-2.5-1.4-3.9-1.3c-1.5-0.1-2.9,0.4-4,1.3c-0.8,1.6-1.3,3.3-1.3,5.1v33.2c0,2.3,0.6,4.1,1.3,5.3c0.9,0.9,2.1,1.4,4.1,1.4
	L205.7,71.7z M205.7,74.2c-9.5,0-17.1-2.2-22.7-7.3c-4.7-3.7-7.7-9.2-8.2-15.2c-0.3-1.2-0.3-2.1-0.3-3.2c0-1.2,0-2.1,0.3-3.2
	c0.5-6.1,3.2-11.1,8.2-15.3c6.5-5,14.5-7.4,22.7-7c9.1,0,16.7,2.3,22.3,7s8.6,10.9,8.6,18.5c0.2,7.2-3,14-8.6,18.5
	c-6.2,5.2-14.2,7.8-22.3,7.4V74.2z M268.6,32.4c1.3-3,3.5-5.3,6.5-7.1c2.9-1.7,6.1-2.3,9.8-2.3c3.9,0,6.9,0.9,9.5,2.3
	c2.3,1.7,3.9,4.3,4.4,7.1h0.9c1.4-3,3.5-5.3,6.5-7.1c2.9-1.7,6.1-2.3,10-2.3c5.2,0,9.1,1.2,11.4,4.1c2.1,2.6,3.2,7.6,3.2,14.6v28
	h5.6v2.6h-30.6v-2.6h3v-33c0-1.8,0-3.2-0.5-4.1c-0.6-0.6-1.6-1.3-2.5-1.3c-1.9,0-3.5,1.3-4.3,3.4c-1.3,2.1-1.8,5.2-1.8,9.3v25.7h3.2
	v2.6h-28.2v-2.6h3.2V36.8c0.1-1.4-0.1-2.9-0.8-4.1c-0.6-0.6-1.6-1.3-2.5-1.3c-1.9,0-3.5,1.3-4.7,3.4c-0.9,2.1-1.4,5.2-1.4,9.3v25.7
	h3.2v2.6H241v-2.6h5.6V26.8H241v-2.6h11.4c2.3,0,4.7,0,6.7-0.4l6.7-0.9h1.8l-0.3,9.5H268.6z M777.2,55.7h2.3
	c2.6,4.8,5.8,8.9,10.4,11.7c4.3,2.9,8.7,4.3,13.1,4.3c2.3,0,4.4-0.3,5.6-1.2c1.6-1.2,2.1-2.3,2.1-3.9c0-2.9-4.9-5.8-14.6-8.7
	l-3.2-1.3c-4.3-0.9-8.2-3.3-11.1-6.6c-2.6-3-4.1-6.9-4.1-10.9c0-4.8,1.8-8.6,5.2-11.8c3.6-3,8-4.4,13.3-4.4c2.3,0,4.7,0,7,0.5
	l7.4,2.1l8.2-2.6h2.1l0.3,15.8h-1.9c-1.9-4.1-5-7.5-8.8-10c-3.4-2.5-7.6-3.8-11.8-3.9c-1.6,0-3.2,0.5-4.7,1.3
	c-1.1,0.7-1.8,1.9-1.8,3.2c0,3,3.9,5.6,11.1,7.6c0.4,0.2,0.8,0.3,1.3,0.3c5.5,1.4,10.5,4,14.9,7.6c3.2,3,4.7,6.7,4.7,11.4
	c0,5.7-1.8,10.1-5.2,13.3c-3.6,2.9-8.3,4.4-14.8,4.4c-2.6,0-5.2-0.4-7.6-0.6c-2.3-0.5-4.7-1.8-7.6-3l-8.2,3.6h-2.6l-0.6-15.3l-0.3-3
	h0.3V55.7z M777.2,10.9v3.6l-0.3,1.3c0,1.2-0.6,1.9-0.9,3.1c-0.6,1.3-0.9,2.1-1.8,3.2c-0.5,0.9-1.2,2.1-2.1,3
	c-0.8,0.9-1.7,1.8-2.6,2.3c-0.9,0.6-1.8,1.3-3,1.8c-0.5,0.3-0.8,0.5-1.4,0.5c-0.5,0.3-1.3,0.3-1.4,0.3c-0.6,0-1.3,0-1.6-0.3
	c-0.3-0.3-0.3-0.5-0.3-1.2v-0.5l0.3-0.9c0.4,0,0.4-0.3,0.6-0.6c0.3,0,0.3-0.3,0.5-0.5l2.1-1.8c0.6-0.9,1.3-1.4,1.6-2.3l1.2-2.3
	l0.3-2.3c-1.4,0-3,0-4.1-0.4c-1.2-0.3-2.1-0.8-2.9-1.2l-1.6-1.9c-0.5-0.9-0.5-1.8-0.5-2.6c0-0.6,0-1.3,0.3-1.9
	c0-0.5,0.3-1.2,0.5-1.7c0.4-0.6,0.9-0.9,1.3-1.4c0.5-0.6,1.2-0.9,1.7-1.3l2.1-0.8c0.9,0,1.4-0.4,2.3-0.4c1.8,0,3.2,0.4,4.4,0.6
	c1.2,0.5,2.3,1.2,3,2.1c0.8,0.7,1.4,1.6,1.7,2.6C776.5,9,777.2,10.9,777.2,10.9z M520.3,67.6c1.6,0.1,3.1-0.8,3.6-2.3
	c0.8-1.8,1.3-4.1,1.3-7.8V47h-1.3c-1.6,0-2.5,0.3-3.6,0.5c-1.2,0.4-2.3,0.9-2.9,2.1c-1.3,1.6-1.8,4.8-1.8,9.5c0,3,0.3,4.9,0.9,6.5
	c0.7,1.3,2,2.1,3.5,2.1C520,67.6,520.3,67.6,520.3,67.6z M520.3,44.7h4.8V29.8c0-1.4-0.4-2.6-1.6-3.5c-0.5-0.5-1.7-0.9-3.2-0.9h-1.2
	c-0.8,0-1.7,0-2.6,0.4c-0.9,0.3-1.3,0.8-1.3,1.2c0,0,0.4,0.5,1,0.9c1.5,1.7,2.3,3.8,2.3,6.1c0.2,2.4-1,4.7-3,6
	c-2.1,1.2-5.2,1.7-9.1,1.7s-6.7-0.5-8.6-2.1c-2.1-1.4-2.9-3.2-2.9-6.1c0-3.9,1.9-6.5,5.8-8.3c3.9-1.7,10.4-2.3,19-2.3h0.3
	c6.9,0,11.8,0.3,15.5,1.2c3.9,0.6,6.9,1.8,8.6,3.5c1.1,1.2,2,2.6,2.6,4.1c0.6,1.4,0.9,3.9,0.9,7v24.6c0,1,0,1.9,0.4,2.5
	c0.3,0.3,0.9,0.6,1.7,0.6c0.9,0,1.6-0.4,2.1-0.6c0.9-0.5,1.3-1.2,1.8-1.8l1.4,1.3c-1.7,2.6-4.4,4.9-7.6,6.5
	c-2.9,1.7-6.3,2.6-9.7,2.6c-2.5,0.1-4.9-0.7-7-2.1c-2.1-1.4-3.7-3.3-4.7-5.6c-1.7,1.8-3.7,3.3-5.8,4.4l-2.6,1.2
	c-3.5,1.5-7.2,2.2-11,2.1c-4.7,0-8.4-1.3-11.4-3.9c-2.9-2.3-4.5-5.9-4.4-9.6c0-5.1,2.6-8.8,7.6-11.8c4.9-3,11.7-4.4,20.6-4.4h1
	L520.3,44.7z M557.3,72.3v-2.6h5.6v-43h-5.6v-2.6h13.2c2.1,0,4.4,0,6.7-0.3l6.5-0.9h1.7v9.5h0.9c1.8-3,3.9-5.3,6.7-7.1
	c3-1.7,6.5-2.3,10.6-2.3c5.2,0,9.3,1.2,11.7,4.1c2.5,2.6,3.6,7.6,3.6,14.6v27.9h5.6v2.6h-32v-2.6h2.9V36.7c0-1.7-0.3-3.2-0.5-4
	c-0.7-0.8-1.6-1.2-2.6-1.3c-1.8,0-3.2,1.3-4.4,3.4c-0.9,2.1-1.6,5.2-1.6,9.3v25.7h3.2v2.6h-32.4H557.3z M681.2,59.6l2.1,1.6
	c-2.3,4.1-5.8,7.5-10,9.7c-4.4,2.3-9.7,3.5-15.8,3.5c-8.6,0-15.5-2.3-20.9-7.1c-5.3-4.9-7.8-11.1-7.8-18.8c0-7.9,2.7-14.1,7.8-18.8
	c5.2-4.7,12.3-6.7,21.4-6.7c8.2,0,14.4,1.2,18.8,4.1c4.7,2.9,6.7,6.7,6.7,12c0,3.5-0.9,6.1-3,8.2c-1.9,2.1-4.9,3-8.4,3
	c-2.8,0.2-5.6-0.8-7.8-2.6c-1.9-2-2.9-4.6-2.9-7.4c0-2.1,0.6-3.9,1.3-5.1c0.5-1.2,1.7-2.3,3.1-3.2l1.6-0.8c1.7-0.9,2.6-1.8,2.6-3
	c0-0.9-0.6-1.4-1.4-2.1c-0.9-0.6-2.3-0.6-3.9-0.6c-3.5,0-6.5,1.6-7.9,5.1c-1.8,3.2-2.6,8.8-2.6,16.2c0,9.1,0.8,14.9,2.9,18.1
	c1.8,3.6,4.8,5.1,9.1,5.1c2.8,0,5.5-0.9,7.8-2.6C676.5,65.8,678.8,63.2,681.2,59.6z M717.3,73.2l-26.8-46.5h-5.6v-2.6h37.3v2.6h-5.8
	l14.3,23.6l9.8-16.8l0.8-1.7c0.4-0.6,0.4-0.9,0.4-1.4c0-1.1-0.6-2.1-1.6-2.6c-0.8-0.6-2.6-1-4.9-1v-2.6h17v2.6
	c-3.5,0.6-6.7,3.2-9.3,8c0,0.3-0.4,0.5-0.4,0.5l-26,45.3c-3,5.6-6,9.1-8.8,11.4c-2.6,2.1-6,3.2-9.7,3.2c-3.9,0-6.7-1.3-9.1-3.2
	c-2.2-2-3.3-4.8-3.2-7.8c0-2.9,0.5-5.2,2.3-6.6c2-1.6,4.5-2.4,7-2.3c2.6,0,4.8,0.5,6.2,2.1c1.4,1.3,2.3,3.5,2.3,5.8
	c0,1.7-0.8,3.3-2.1,4.4c-1.4,1.4-2.1,2.3-2.1,2.6c0,0.4,0.4,0.6,0.6,0.9c0.3,0.3,0.5,0.3,1.2,0.3c1.7,0,3.9-0.8,6.1-3.2
	c2.5-2.1,4.4-4.9,6.5-8.4L717.3,73.2z M443.4,25.5h-3.2c-1.6-5.7-4.6-10.9-8.8-15.2c-3.2-3.3-7.7-5.2-12.3-5.2
	c-4.7,0-7.9,2.1-9.5,5.6c-1.7,3.9-2.6,13.5-2.6,28.8c0,12,0.9,20,3,23.8c1.9,3.9,5.6,5.8,10.8,5.8c5.3,0,10-1.8,13.9-5.2
	c3.5-3.6,5.8-8.7,7-15h3.2c-0.9,8.2-3.9,14.6-9.1,19c-5.6,4.1-13,6.5-22.3,6.5c-20.7,0.6-37.9-15.7-38.5-36.4c0-0.2,0-0.4,0-0.7
	c0.2-9.6,3.9-18.8,10.4-25.9c3.4-3.5,7.5-6.1,12.6-8.2c4.7-2,9.8-3,14.9-3c3.5,0,6.7,0.6,9.7,1.3c2.6,0.8,5.8,2.3,9.3,4.3l8.6-5.7h3
	V25.5z M450.4,72.2v-2.6h6.7V4.3h-6.1V1.7h14.6c2.1,0,4.4,0,6.7-0.4c2.1-0.3,4.4-0.5,6.5-1.2h1.8v69.7h5.8v2.6L450.4,72.2z
	 M162.2,72.2h-48.1v-2.9h9.3V4.4c-4.7,0.3-8.4,2.3-12,6.2c-3.5,3.9-6.1,9.1-7.5,15.5h-2.5V1.6h73.5v24.6h-2.1
	c-1.8-6.5-4.4-11.7-7.8-15.5s-7.5-6-11.9-6.2v64.9h9.1v3L162.2,72.2z"/>
<path class="st1" d="M253.5,250.3l-9.3,42.9h69.2l9.7-44c7-32.1,14-64.3,20.7-96.4h74.1l1.7,0.4h8.6l1.2,0.3h3.2l1.4,0.3l1.3,0.3
	l1,0.3l0.6,0.4l0.9,0.3l0.3,0.5l0.5,0.4l0.4,0.5l0.3,0.9l0.3,0.9l0.3,0.9v1.4l0.4,1.4l-0.4,1.8l-0.3,1.8l-0.3,2.3l-0.3,1.2l-0.4,1.2
	l-0.3,0.9l-0.3,1.2l-0.3,1.2l-0.4,0.9l-0.5,1.2l-0.3,0.9l-0.4,0.8l-0.5,0.9l-0.3,0.9l-0.6,0.9l-0.5,0.9l-0.4,0.5l-0.5,0.9l-0.6,0.6
	l-0.3,0.3l-0.3,0.5l-0.6,0.4l-0.3,0.3l-0.5,0.3l-0.6,0.6l-0.9,0.3l-0.5,0.3l-0.9,0.4l-0.9,0.3l-1.2,0.3h-0.9l-1.2,0.3h-1.2l-1.4,0.4
	h-1.4l-17.6,0.3h-53.6l-13,60.2H431l1.3-0.4h2.2l1.3-0.3h2.6l1.2-0.3h1.2l1.2-0.3h1.7l1.8-0.4l1.8-0.3l1.7-0.3l1.8-0.3l1.7-0.6
	l1.6-0.3l1.7-0.6l1.8-0.5l1.4-0.6l1.8-0.5l1.4-0.6l1.6-0.5l1.3-0.9l1.8-0.5l1.6-0.9l1.4-1.3l2.1-0.8l1.4-1.3l1.8-1.3l1.7-1.3
	l1.6-1.4l1.7-1.4l1.6-1.6l1.3-1.7l1.6-1.8l1.6-1.8l1.3-1.7l1.6-2.1l1.3-2.1l1-2.1l1.6-2.1l1.2-2.1l1.2-2.3l1.2-2.3l1.2-2.3l0.9-2.6
	l1.2-2.5l0.3-1.2l0.5-1.4l1.3-2.6l0.8-3l0.9-2.6l0.9-3l0.9-3l0.9-3.2l0.8-3l0.6-3.2l0.9-3.2l0.3-1.2v-1.2l0.3-0.8l0.3-1.3l0.4-1.2
	v-1.2l0.3-1.2l0.3-0.9v-1.2l0.3-1.2v-1.2l0.4-1.2v-0.9l0.3-1.2v-1.2l0.3-0.9v-2.3l0.3-1.2v-3.2l0.3-0.9v-9.6l-0.3-1.8V131l-0.3-1.3
	v-1.8l-0.3-1.8l-0.6-1.8l-0.3-1.3l-0.6-1.6l-0.3-1.8l-0.5-1.4l-0.9-1.6l-0.6-1.4l-0.5-1.3l-0.9-1.3l-0.9-1.6l-0.8-1.2l-1.3-1.2
	l-0.8-1.2l-1.3-1.3l-0.8-0.5l-0.3-0.3l-1.3-1.2l-1.3-0.9l-1.3-0.9l-1.4-0.8l-1.6-0.9l-1.3-0.6l-1.6-0.8l-1.6-0.6l-1.3-0.5l-1.8-0.6
	l-1.8-0.5l-1.4-0.4l-1.8-0.5l-1.4-0.4l-1.8-0.3l-1.7-0.3l-1.6-0.3l-1.7-0.4l-1.8-0.3l-1.7-0.3l-1.8-0.3h-1.8l-1.7-0.4h-2.1l-1.8-0.3
	h-3.9l-1.7-0.3l-24.1-0.3H287.9L253.5,250.3z M1585.6,293.2c7.5-35.6,15.3-71.3,23.2-106.9l7.3-33.6h74.6l16.5,0.6h3.2l1.2,0.3h2.3
	l1.2,0.3h0.9l0.8,0.4l0.6,0.3l0.6,0.3h0.5l0.3,0.3l0.3,0.4h0.6v0.3l0.3,0.3l0.3,0.3l0.4,0.6l0.3,0.3v0.6l0.3,0.5v0.6l0.3,0.5v4.4
	l-0.3,1.3l-0.3,1l-0.3,1.3l-0.4,1.7l-0.5,1.8l-0.6,1.7l-0.3,1.6l-0.6,1.3l-0.5,1.3l-0.6,1.3l-0.8,1l-0.6,0.9l-0.5,0.9l-0.6,0.5
	l-0.9,0.6l-0.5,0.6l-0.6,0.5l-0.8,0.3l-0.6,0.4l-0.3,0.3l-0.6,0.3h-0.5l-0.6,0.3h-0.5l-0.6,0.4h-0.5l-0.6,0.3h-1.4l-0.6,0.3h-4
	l-1.3,0.3h-7l-1.2,0.4h-70l-13,59.9h74.5l2.1,0.3h3.9l1.3,0.4h1.9l1.2,0.3l1.2,0.3l1.2,0.3l0.9,0.4l0.8,0.3l0.6,0.3l0.3,0.3l0.6,0.4
	l0.3,0.3v0.3l0.3,0.3v0.6l0.3,0.5v6.9l-0.3,1.4l-0.3,1.8l-0.3,1.8l-0.3,1.7l-0.4,2.1l-0.5,2.3l-4.4,24.1h68.9l5.8-27.6l0.4-1.4
	l0.5-1.4l0.3-1.6v-1.4l0.4-1.4l0.3-1.6l0.3-1.3l0.3-1.6v-1.3l0.4-1.3l0.3-1.3v-2.6l0.3-1.3V244l0.3-1.3v-4l-0.3-1.3v-2.9l-0.3-0.9
	v-0.9l-0.3-0.9l-0.4-0.8l-0.3-0.9v-0.9l-0.5-0.9l-0.6-1.7l-0.9-1.8l-1.2-1.4l-1.4-1.6l-1.4-1.3l-1.6-1.3l-1.7-1.3l-1.8-1l-1.8-1.3
	l-1.9-1h-0.4l0.9-0.4l1.4-0.5l1.3-0.6l1.2-0.5l1.2-0.9l1.2-0.5l1.2-0.6l1.2-0.5l1.2-0.6l0.9-0.9l1.2-0.5l0.9-0.9l0.8-0.5l1.3-0.9
	l0.8-0.6l0.9-0.9l0.9-0.5l0.5-0.9l0.9-0.9l0.9-0.9l0.5-0.8l0.6-0.9l0.9-0.9l0.5-0.9l0.6-0.9l0.5-0.8l0.6-0.9l0.5-0.9l0.6-0.9
	l0.3-1.2l0.6-0.9l0.5-1.2l0.6-0.8l0.5-1.3l0.3-1.2l0.6-0.8l0.6-1.3l0.3-1.2l0.5-1.2l0.4-1.2l0.5-1.4l0.3-1.3l0.6-1l0.3-1.6l0.6-1.2
	l0.3-1.2l0.3-1.4l0.6-1.4l0.3-1.3l0.3-1.3l0.3-1.6l0.6-1.4l0.3-1.6l0.3-1.4l0.3-2.1l0.4-1.8l0.5-1.9l0.3-1.8l0.4-1.8v-2.1l0.3-1.7
	l0.3-1.8l0.3-2.1v-1.8l0.3-1.7v-3.6l0.4-1.7v-6.5l-0.4-0.9v-2.1l-0.3-0.9v-0.8l-0.3-1.3l-0.3-0.8l-0.3-0.9v-0.9l-0.4-1.2l-0.3-0.9
	l-0.3-0.8l-0.6-0.9l-0.3-1.3l-0.5-1.3l-0.6-1.3l-0.5-1.2l-0.6-0.9l-0.9-1.2l-0.9-1.2l-0.5-0.9l-0.9-1.2l-0.9-0.8l-1.2-0.9l-0.8-0.9
	l-1.3-0.9l-0.8-0.9l-1.3-0.5l-1-0.9l-1.3-0.5l-1.2-0.6l-1.3-0.5l-1.3-0.6L1772,98l-1.3-0.6l-1.3-0.6l-1.4-0.3l-1.6-0.6l-1.4-0.3
	l-1.4-0.3l-1.8-0.3l-1.4-0.4l-1.8-0.3l-1.4-0.3h-1.8l-1.4-0.3h-1.4l-1.6-0.4h-1.3l-1.6-0.3h-3l-1.4-0.3h-6.2l-1.4-0.3h-176.2
	l-43.4,200.7h69.3L1585.6,293.2z M1524.7,237.7h-152l5.1-22.7h142l3.9-17.9l7.6-34.7h-142.1l3.2-14.3l12.3-55.7h-69.6l-24.4,111.7
	l-19.4,89h221.4L1524.7,237.7z M1523.6,148.1h19l12-55.6H1417l-12,55.7L1523.6,148.1z M1310.8,92.5h19.4l-13.2,60.2h-82.9
	l-30.4,140.4h-69.3l30.6-140.4h-82.5l4.4-20.7l8.8-39.5H1310.8z M1086.8,113.4l4.8-20.7h-69.4l-28.5,130.8L921.1,92.6h-99.5
	l-43.7,200.5h69.2l28.5-131l72.5,131h99.5L1086.8,113.4z M814.5,92.6h-69.3l-43.8,200.5h69.3L814.5,92.6z M499.7,238.6l31.9-146.1
	h69.2l-30.4,140.7h126.8l-13.2,60.1H488L499.7,238.6z M253.5,107.3h0.3l0.9,1.2l0.9,1.2l0.9,1.2l0.9,1.3l0.8,1.3l0.6,1.3l0.5,1.3
	l0.6,1.6l0.5,1.4l0.6,1.6l0.3,1.4l0.3,1.4l0.6,1.8v1.4l0.3,1.8l0.3,1.8v8.8l-0.3,2.1l-0.3,1.7v2.1l-0.3,2.1l-0.6,2.1l-3.5,17.4
	h-68.4l0.9-13v-2.3l-0.3-0.6v-0.5l-0.3-0.4V149l-0.4-0.3l-0.3-0.4v-0.3H189l-0.3-0.3l-0.4-0.3l-0.3-0.4h-0.5l-0.4-0.3h-0.5l-0.3-0.3
	h-1.3l-0.5-0.3h-1.8l-1.3-0.4h-3.1l-1.4-0.3h-4.4l-15.3-0.9h-33.4l-15,0.6h-1.4l-0.6,0.3h-2.1l-0.8,0.3h-1.3l-0.5,0.3h-1.3l-0.5,0.4
	h-0.5l-0.6,0.3h-0.6l-0.9,0.3l-0.9,0.3l-0.5,0.4l-0.9,0.3l-0.6,0.3l-0.5,0.6l-0.3,0.3l-0.6,0.5l-0.5,0.6l-0.4,0.5l-0.3,0.6l-0.5,0.5
	l-0.4,0.9l-0.3,0.9l-0.3,0.9l-0.3,1.2l-0.4,0.9v3.2l0.4,0.3v0.3l0.3,0.3l0.3,0.3l0.3,0.4l0.4,0.3l0.5,0.3l0.9,0.3l0.9,0.4l0.8,0.3
	l0.6,0.3h1.2l0.5,0.3h0.9l0.6,0.4h1.9l0.9,0.3h3.9l0.5,0.3l15,0.3l52.9,1.6l30.4,1.4h1.8l1.7,0.3h1.8l1.4,0.4l1.8,0.3h1.4l1.8,0.3
	l1.4,0.3l1.4,0.4l1.6,0.3l1.7,0.5l1.6,0.4l1.4,0.3l1.4,0.5l1.6,0.4l1.3,0.5l1.9,0.6l1.7,0.8l1.8,0.9l1.7,1.3l1.6,1l1.7,1.3l1.3,1.2
	l1.3,1.3l1.3,1.4l1.2,1.8l1.2,1.4l0.9,1.8l1.2,1.7l0.5,1.8l0.9,1.8l0.6,1.9l0.5,2.1l0.3,2.1l0.6,2.1l0.3,2.1v2.3l0.3,2.3v7.1
	l-0.3,2.6l-0.3,2.3l-0.3,2.6l-0.4,3l-0.5,2.6l-0.3,3l-0.6,2.6l-0.9,3.4l-0.8,3.2l-0.9,3.2l-0.9,2.9l-1.3,3l-1,2.6l-1.3,3l-1.3,2.6
	l-1.3,2.5l-1.4,2.6l-1.8,2.3l-1.4,2.5l-1.8,2.3l-1.7,2.1l-1.8,1.9l-2.1,2.1l-1.9,1.8l-2.1,1.8l-2.3,1.7l-2.1,1.6l-2.3,1.3l-2.5,1.6
	l-2.6,1.3l-2.3,1l-2.6,1.3l-2.7,0.8l-3,0.9l-2.6,0.9l-3,0.9l-2.9,0.5l-3,0.3l-3,0.6h-1.2l-0.9,0.3h-2.1l-1.2,0.3h-1.2l-0.9,0.4h-3.5
	l-0.9,0.3h-6.7l-1.4,0.3h-5.8l-1.3,0.3H150l-1.2,0.3h-27.1l-1.6-0.3h-14l-1.8-0.3H94.1l-1.9-0.3H83l-2.5-0.3h-7.3l-2.6-0.4h-7.3
	l-1.4-0.3h-5.6l-1.3-0.3h-2.6l-1.2-0.3h-3.9l-0.8-0.4H45l-1.3-0.3h-1.6l-1.8-0.3h-1.4l-1.4-0.3l-1.6-0.4l-1.4-0.3l-1.3-0.3l-1.3-0.3
	l-1.6-0.3l-1.2-0.4l-1.4-0.5l-1.3-0.3l-1.3-0.4l-1.3-0.5l-1.2-0.3l-1.2-0.6l-1.2-0.6l-1.2-0.5l-1.2-0.3l-0.9-0.6l-1.2-0.5l-0.9-0.9
	l-1.2-0.6l-0.8-0.5l-0.9-0.9l-1.3-0.5l-0.8-0.9l-0.9-0.6l-0.5-0.9l-0.9-0.8l-0.9-1l-0.6-0.9l-0.8-0.9l-0.6-0.8l-0.5-1.3l-0.6-0.8
	l-0.3-1.3l-0.6-1l-0.3-0.9l-0.5-1.3l-0.4-1l-0.3-1.3L1,264.6l-0.3-1.3l-0.4-1.2v-1.4l-0.3-1.3v-1.3L0,256.5v-7.4l0.3-1.4v-1.8
	l0.3-1.4v-1.8l0.4-1.3l0.3-1.9v-1.7l0.3-1.8l3.2-18.1H74l-1.8,8.4l-0.3,1.8v1.4l-0.3,1.3v2.3l0.3,1.2v0.5l0.3,0.9v0.5l0.3,0.4
	l0.4,0.5v0.3h0.3l0.3,0.4l0.3,0.3H74l0.3,0.3h0.9l0.5,0.3l0.9,0.3h1.3l1,0.4h1.3l1,0.3h1.6l1.7,0.3h1.8l1.7,0.3h3.9l16.1,0.6H167
	l1.8-0.3l1.7-0.4l1.4-0.3l1.3-0.3l1.2-0.6l0.8-0.5l0.9-0.6l0.9-0.5l0.9-0.6l0.5-0.8l0.3-0.9l0.6-0.9l0.5-0.9l0.4-1.2l0.3-1.4
	l0.3-1.3v-3.1l-0.3-0.5V225l-0.3-0.3l-0.4-0.3v-0.3l-0.3-0.4l-0.5-0.3l-0.4-0.3h-0.5l-0.9-0.3l-0.9-0.4h-3.1l-0.9-0.3h-3.2l-2.1-0.3
	h-1.6l-11.4-0.6l-34.6-1.3l-16.5-1l-28.8-1.3h-1.8l-2.1-0.4h-3.9l-1.7-0.3h-1.7l-1.8-0.4h-1.8l-1.3-0.3l-1.9-0.3h-1.3l-1.8-0.3
	l-1.6-0.4h-1.4l-1.4-0.3l-1.6-0.3l-2.9-0.6l-3.2-0.8l-2.6-0.9l-3.1-1.3l-2.3-1l-2.6-1.6l-2.1-1.7l-2.1-1.8l-2.1-2.1l-1.4-2.1
	l-1.4-2.3l-1.3-2.6l-0.8-2.3l-0.6-3l-0.5-2.6l-0.3-3v-3l-0.4-1.8v-3.1l0.4-1.6v-3.2l0.3-1.7v-1.8l0.3-1.4l0.3-1.8l0.4-1.7l0.3-1.8
	l0.3-1.4l0.3-1.8l0.6-1.4l0.3-1.6l0.3-1.3l0.4-1.6l0.3-1.6l0.5-1.3l0.3-1.3l0.4-1.4l0.3-1.3l0.3-1.3l0.6-1.3l0.3-1.2l0.3-1.4
	l0.6-1.3l0.3-1l0.3-1.3l0.6-1l0.3-0.9l0.3-1.3l0.6-1l0.3-0.9l0.3-1.3l0.6-0.8l0.3-0.9l0.5-0.9l0.4-1.2l0.5-0.9l0.3-0.8l0.6-0.9
	l0.5-0.6l0.4-0.8l0.5-0.9l1.4-2.3l1.8-2.5l1.4-2.1l1.8-2.3l2.1-1.7l1.7-2.1l2.1-1.8l2.1-1.7l2.1-1.6l2.1-1.3l2.3-1.6l2.1-1.6
	l2.3-1.2l2.3-0.8l2.6-0.9l2.5-0.9l1.4-0.6l1.2-0.3l1.4-0.3l1.6-0.3l1.3-0.4l1.8-0.5l1.6-0.3l1.7-0.4H79l2.1-0.3l1.7-0.3l2.1-0.3
	l2.1-0.3H89l2.3-0.4l2.1-0.3h2.3l2.3-0.3h2.6l2.5-0.3h2.6l2.6-0.4h5.7l2.6-0.3h39.8l1.8,0.3h11.7l1.8,0.4h8.2l1.8,0.3h6.5l1.7,0.3
	h5.3l2.3,0.3h2.3l2.1,0.4h2.3l2.1,0.3h2.1l2.1,0.3l1.8,0.3h1.9l2.1,0.3l1.8,0.4l1.7,0.3l1.8,0.3l1.8,0.3l1.7,0.4l1.6,0.3l1.7,0.3
	l1.6,0.3l1.3,0.4l1.6,0.5l1.4,0.3l1.6,0.4l1.4,0.5l1.2,0.3l1.4,0.6l1.3,0.5l1,0.4l1.3,0.5l1.2,0.6l1.2,0.5l0.9,0.6l1.3,0.5l1.3,0.9
	l1.2,0.9l1.2,0.8l1.2,1.3L253.5,107.3z"/>
<path class="st0" d="M249.1,268.8l-3,13.9h57.5l7.4-32.9h-0.3L328,171l6.5-28.8h69c10.8,0,19,0.3,24.4,0.5
	c10.8,0.6,14.6,7.6,12,20.9c-1.1,6.4-3.8,12.5-7.8,17.6c-2.9,4.1-8.7,6.2-17.2,6.7l-17.9,0.4h-48.7l-10.6,48.7h79.9
	c6.5,0,12.3-0.3,18.4-1.3c9.1-0.8,17.4-3.1,24.4-7.3c15.9-8.6,27.6-27.2,35.2-56.4c0.6-3,1.6-6,2.1-8.8c2.6-11.8,3.9-22.9,3.2-33.6
	c0-7.9-2.1-14.3-5.2-19.7c-4.5-6.5-11.3-10.9-20.3-13.2c-8.9-1.9-17.9-3-26.9-3.2l-23.8-0.3H287.6L249.1,268.8z M1518.6,280.5
	l40.8-187.1h167c7.9,0,15.5,0.3,23.3,1.3c16.8,1.7,27.7,8.2,31.6,19c1.7,4.7,2.6,9.1,2.6,13.2c-0.3,9.6-1.3,19.1-3.2,28.5
	c-2.3,12.6-7.1,24.6-14.1,35.2c-5.8,7.6-17.2,13.7-33.7,18.5c14.9,4.4,23.4,9.7,25.9,16.1c2.6,6.5,1.9,17.6-1.8,34.1l-5.1,23.3
	h-57.5l3.2-17.6c2.6-11.8,3-19.7,0.9-23.3c-2.1-4-9.1-6.1-21.1-6.1h-67.5l10.8-48.8h56.7c5.6,0,11.7,0,18.1-0.3
	c5.1-0.3,9.1-0.9,12.3-2.3c6.5-2.6,10.9-9.5,13.2-20.6c1.8-7.6,1.3-13.2-2.1-16.7c-2.6-2.6-7.8-4.1-16.7-4.1l-16.7-0.5h-79.2
	l-9.6,44.6l-10.6,48.8l-10.4,47h-57.4L1518.6,280.5z M1518.6,165.4l0.6-2.1h-142.1l5.6-25.9h0.3l9.7-44h-58.2l-28.8,132.5
	l-12.3,56.6h209.9l9.5-44h-152.1l7.4-34.3h142L1518.6,165.4z M1518.6,137.5h14.4l9.7-44h-126.2l-9.5,44H1518.6z M1305.7,93.4h12.3
	l-10.5,48.8h-83l-30.6,140.4h-57.5l30.6-140.4h-82.7l10.4-48.8H1305.7z M821.2,93.4h91.6l78.2,141.1l30.8-141.2h57.5l-41.1,189.1
	h-91.9l-78-141.2l-30.8,141.6h-57.5L821.2,93.4z M791.3,144.6l11.1-51.2h-57.9l-41.1,189.1H761L791.3,144.6z M495.7,257l35.5-163.6
	h57.5l-30.3,140.4h126.8l-10.6,48.8H490.1L495.7,257z M249.1,113.2c3.5,7.3,4.1,17.2,1.8,29.5l-1.8,8.3l-0.9,4.7h-57.5l0.6-7
	c0-6.5-2.3-10.6-7.4-12c-5.3-1.3-10.7-1.9-16.2-1.8l-15.2-0.6h-33.7l-15.4,0.6c-3.9,0.1-7.7,0.7-11.4,1.8c-6.7,1.3-10.9,5.8-12.7,13
	c-1.7,7.5,0.9,12.3,8.6,14c3.9,0.9,7.9,1.6,12.7,1.6l14.9,0.3l52.6,1.7l30.4,1.3c8.8,0.5,16.5,1.9,23.4,4.3
	c17.4,6.5,22.9,24.5,16.5,54.4c-7.6,33.4-26.7,51.9-57.8,55.7c-4.9,0.6-10.9,1-16.8,1.3c-12.8,0.6-25.4,0.9-38.3,0.9
	c-14.1-0.3-34.6-0.6-62.2-1.6c-7-0.2-14.1-0.6-21.1-1.2c-16.5-1.2-28.2-5.6-35.2-13c-6.2-6.7-7.9-19.4-5.1-37.6l2.3-13.2h57.5
	c-1.9,10-0.8,16.5,3.6,19.2c2.9,1.7,10,2.6,21.1,3.2l16.5,0.3h57.1c12-0.3,19.2-5.2,20.9-14.8c1.4-8.4-1.4-13.2-8.8-14.3l-11.4-0.6
	l-11.7-0.6l-34.5-1.4l-16.5-0.9l-28.8-1.3c-8.7-0.4-17.4-1.3-26-2.6c-15.9-2.6-24.1-10.9-24.6-24.5c-0.4-20.7,4.3-41.2,13.9-59.6
	c6.6-11.2,17.1-19.7,29.5-23.8c11.9-3.9,35.8-5.6,71.5-5.6c19.2,0,37.1,0.5,54,1.3c24.6,1,41.7,3.9,51,9.6
	C243.6,104.7,247.1,108.3,249.1,113.2L249.1,113.2z"/>
<g>
	<defs>
		<path id="SVGID_1_" d="M249.1,269l-3,13.7h57.5l7.4-32.9h-0.4L328,171l6.5-28.8h68.9c10.9,0,19.2,0.3,24.4,0.5
			c10.9,0.6,14.8,7.8,12,20.9c-1.1,6.4-3.7,12.4-7.6,17.6c-2.9,4.1-8.8,6.2-17.2,6.9l-17.9,0.3h-48.8l-10.5,48.7h79.8
			c6.5,0,12.3-0.3,18.5-1.2c9.1-0.9,17.4-3.2,24.4-7.3c15.8-8.6,27.6-27.3,35.2-56.5c0.5-3,1.4-5.8,2.1-8.8
			c2.6-11.7,3.9-22.9,3.2-33.4c0-8-2.1-14.5-5.3-19.7c-4.4-6.5-11.1-10.9-20.2-13.3c-8.9-1.9-18-3-27.1-3.2l-23.7-0.3H287.6
			L249.1,269z M1518.6,280.6l40.8-187.1h167c7.8,0,15.5,0.3,23.2,1.2c17,1.7,27.9,8.2,31.6,19c1.8,4.7,2.6,9.1,2.6,13.2
			c-0.2,9.6-1.3,19.1-3.1,28.5c-2.3,12.6-7.1,24.6-14.1,35.2c-5.8,7.8-17.4,13.9-33.7,18.5c14.9,4.4,23.3,9.7,25.8,16.2
			c2.6,6.5,2.1,17.6-1.8,34.1l-4.9,23.2h-57.5l3.2-17.6c2.6-11.7,2.9-19.7,0.8-23.3c-1.9-3.9-9.1-6.1-21.1-6.1h-67.4l10.8-48.7h56.6
			c5.6,0,11.7,0,18.1-0.3c5.2-0.4,9.2-0.9,12.4-2.5c6.5-2.6,10.9-9.3,13.2-20.5c1.7-7.8,1.2-13.2-2.1-16.8c-2.6-2.6-7.9-4-16.8-4
			l-16.6-0.6h-79.3l-9.7,44.7l-10.5,48.7l-10.4,47h-57.5L1518.6,280.6z M1518.6,165.4l0.5-2.1h-142l5.6-25.9h0.3l9.7-44h-58.2
			l-28.8,132.5l-12.3,56.7h209.9l9.3-44h-152l7.3-34.3H1510L1518.6,165.4z M1518.6,137.6h14.3l9.7-44h-126.2l-9.3,44H1518.6z
			 M1305.7,93.5h12.3l-10.5,48.7h-83.2l-30.4,140.4h-57.5l30.4-140.4h-82.4l10.4-48.7H1305.7z M821.2,93.5h91.5l78.4,140.9
			l30.8-140.9h57.5l-41.1,189.1h-92l-78-141.6l-30.8,141.6H780L821.2,93.5z M791.2,144.6l11.1-51h-57.8l-41.1,189.1H761L791.2,144.6
			z M495.7,257.2l35.5-163.6h57.5L558.1,234h127l-10.6,48.7H490.1L495.7,257.2z M249.1,113.2c3.5,7.3,4,17.2,1.7,29.7l-1.7,8.2
			l-0.9,4.7h-57.5l0.5-7c0-6.5-2.3-10.6-7.3-12c-5.3-1.3-10.7-1.9-16.2-1.8l-15.3-0.5h-33.7l-15.3,0.5c-3.9,0.1-7.7,0.7-11.4,1.8
			c-6.9,1.4-10.9,5.8-12.7,13c-1.7,7.6,0.9,12.3,8.6,14.1c3.9,0.8,7.9,1.4,12.6,1.4l15,0.3l52.5,1.8l30.6,1.2
			c8.8,0.5,16.5,2.1,23.4,4.4c17.4,6.5,22.9,24.4,16.5,54.4c-7.6,33.4-26.7,51.8-57.8,55.7c-5.1,0.6-10.9,0.9-16.8,1.3
			c-13,0.5-25.5,0.8-38.3,0.8c-14.1-0.3-34.7-0.5-62.2-1.4c-7.1-0.2-14.2-0.7-21.2-1.3c-16.5-1-28.1-5.4-35.2-12.8
			c-6.1-6.7-7.8-19.4-4.9-37.6l2.3-13.2h57.5c-2.1,10-0.9,16.5,3.5,19c3,1.8,10,2.6,21.1,3.2l16.5,0.3h57.3c12-0.3,19-5.2,20.7-14.6
			c1.6-8.6-1.3-13.2-8.7-14.4l-11.5-0.6L149,211l-34.3-1.6l-16.5-0.8l-28.8-1.6c-8.8-0.4-17.5-1.3-26.2-2.6
			c-15.8-2.6-24.1-10.9-24.6-24.4c-0.5-20.7,4.3-41.2,13.7-59.6c6.7-11.3,17.3-19.8,29.8-23.8c11.9-3.9,35.8-5.7,71.5-5.7
			c19,0,36.9,0.6,54,1.3c24.6,1.2,41.7,4,51,9.6c4.8,2.6,8.3,6.2,10.4,11.1L249.1,113.2z"/>
	</defs>
	<clipPath id="SVGID_2_">
		<use xlink:href="#SVGID_1_"  style="overflow:visible;"/>
	</clipPath>
</g>
<path class="st2" d="M703.6,527.4h340.7l13.6-66.5H818.8l4.9-25.3h195.2l13.5-66.3H837.1c6.4-30.6,12.9-61.2,19.7-91.7H754.5
	L703.6,527.4z M737.7,277.6l-13.5,66.5h-250l-0.6,0.3h-1.4l-0.6,0.3h-1.7l-0.3,0.3h-1.3l-0.8,0.4l-0.9,0.3h-0.9l-0.9,0.3l-0.9,0.3
	l-0.8,0.4l-0.9,0.3l-0.9,0.3l-0.6,0.5l-0.8,0.4l-0.9,0.3l-0.9,0.6l-0.9,0.3l-0.9,0.5l-0.8,0.6l-0.6,0.3l-0.9,0.6l-0.8,0.5l-0.6,0.6
	l-0.5,0.5l-0.6,0.3l-0.6,0.6l-0.3,0.5l-0.3,0.4l-0.6,0.5l-0.3,0.4l-0.3,0.5v0.3l-0.3,0.6l-0.4,0.3v0.9l-18.4,91.1l-0.4,0.9v2.3
	l0.4,0.3v0.6l0.3,0.3l0.3,0.6l0.3,0.3l0.4,0.6l0.5,0.3l0.3,0.6l0.6,0.5l0.5,0.4l0.9,0.5l0.6,0.6l0.5,0.3l0.9,0.5l0.9,0.4l0.8,0.3
	l0.6,0.3l1.2,0.3l0.9,0.3l0.9,0.4l0.8,0.3h1.3l0.8,0.3h256.2l-13.5,66.1H433.6L431,527h-3l-3-0.3h-2.6l-2.6-0.3l-2.7-0.3l-2.6-0.4
	l-2.6-0.3l-2.7-0.5l-2.6-0.4l-2.7-0.5l-2.3-0.6L399,523l-2.5-0.6l-2.3-0.5l-2.3-0.9l-2.3-0.6l-2.3-0.8l-2.3-0.9l-2.3-0.9l-2.1-1.2
	l-2.3-0.9l-2.1-0.9l-2.1-1.2l-2.1-1.2l-2.1-1.2l-2.1-1.2l-1.9-1.2l-1.8-1.4l-2.1-1.6l-1.7-1.2l-2.1-1.3l-1.8-1.6l-1.4-1.6l-1.8-1.4
	l-1.4-1.8l-1.4-1.3l-1.6-1.6l-1.4-1.8L346,491l-1.3-1.8l-1.3-1.8l-0.8-1.3l-1.3-1.8l-0.8-1.8l-0.9-1.8l-0.9-1.7l-0.5-2.1l-0.6-1.8
	l-0.5-1.7l-0.6-2.1l-0.5-1.8l-0.4-2.1l-0.3-1.7l-0.3-2.1v-7.9l0.3-2.1l0.3-2.1l0.4-2.1l0.3-2.1l0.3-1.7l0.3-1.8l0.6-1.8l0.3-1.7
	l0.3-1.8l0.3-1.4l0.4-1.8l0.3-1.8l0.6-1.3l0.3-1.6l0.3-1.8l0.3-1.4l0.3-1.4l0.4-1.6l0.3-1.4l0.3-1.4l0.3-1.6l0.4-1.4l0.3-1.4
	l0.3-1.3l0.3-1.3l0.4-1.3l0.3-1.4v-1.3l0.3-1l0.3-1.6l0.4-1.2l0.3-1.2l0.3-1.2v-0.9l0.3-1.2l0.4-1.2l0.3-2.1l0.5-1.8l0.4-1.9
	l0.3-1.8l0.5-2.1l0.3-1.8l0.4-1.7l0.3-2.1l0.5-1.8l0.4-1.7l0.3-1.8l0.3-1.7l0.6-1.8l0.3-1.8l0.3-1.7l0.3-1.8l0.4-1.4l0.3-1.8
	l0.5-1.4V366l0.4-1.3l0.3-1.3l0.3-1.2l0.3-0.9v-1.2l0.4-0.8l0.3-0.6v-1.4l0.3-0.6v-0.9l0.6-2.1l0.5-1.9l0.6-1.8l0.5-2.1l0.6-2.1
	l0.8-2.1l0.9-1.7l0.9-2.1l0.9-2.1l1.2-1.7l1.2-1.8l1.2-2.1l1.3-1.8l1-1.7l1.4-1.8l1.6-1.8l1.4-1.7l1.4-1.8l1.6-1.4l1.7-1.8l1.8-1.7
	l1.8-1.6l1.7-1.4l1.8-1.8l2.1-1.4l2.1-1.4l1.9-1.6l2.1-1.3l2.1-1.6l2.3-1.6l2.3-1.3l2.3-1.6l2.5-1.4l2.3-1.3l2.3-1.2l2.6-1.3
	l2.3-1.3l2.6-1.3l2.5-0.8l2.6-1.2l2.3-0.9l2.6-1.2l2.7-0.9l2.3-0.8l2.6-0.9l2.7-0.9l2.6-0.5l2.7-0.9l2.6-0.6l2.6-0.5l2.7-0.6
	l2.6-0.5l3-0.4l2.6-0.5l2.7-0.3l3-0.6l2.6-0.3l3-0.3l2.6-0.4h3l3-0.3h8.4L737.7,277.6z M1111,277.6h93.9l-37.3,183.3h231.6
	l-13.5,66.5h-325.6L1111,277.6z M1078.5,344.1l13.5-66.5H872.1l-14.4,66.5H1078.5z M1400.4,527.3l50.8-249.8h93.9l-37.6,183.3h231.9
	l-13.5,66.5H1400.4z"/>
<path class="st0" d="M1034.7,516.5l11.1-54.9H806.6l7.4-36.8h195.5l11.1-54.9H825.1l19.7-91.3h-90.7l-48.5,238L1034.7,516.5z
	 M725.5,278.5l-10,49.4l-1.2,5.6H468.8c-1.3,0.3-2.3,0.3-3.2,0.6l-3.5,0.3c-5.3,1.3-10.6,3.2-15.5,6.5c-5.1,3.2-8,7-8.8,11.1
	L419,443.3c-0.9,5.1,0.8,9.5,5.6,13.2c4.9,3.5,10.8,5.3,18.1,5.3h245.6l-11.1,54.7H431.5c-29.9,0-54.4-7-73.1-21.4
	c-14.4-11.3-22-23.8-22.9-38.6v-4.7c0.3-2.6,0.6-5.6,1.3-8.2c3.8-19.4,7-34.7,9.3-46.1l5.8-29.4l3.2-16.2
	c4.1-20.3,18.5-37.6,43.1-51.8c24.8-14.4,53-21.8,81.6-21.4L725.5,278.5z M1110.6,278.5h82.1l-37.2,183.1h231.5l-11.1,54.9H1062
	L1110.6,278.5z M1079.8,278.5H871.9l-12,54.9h209L1079.8,278.5z M1402.1,516.5l48.3-238h82.5l-37.3,183.1h231.6l-11.1,54.9H1402.1z"
	/>
<g>
	<path class="st3" d="M1622,473.6l-2.6,9.1c-25.3,1.7-50.5,3-75.5,5.4c-13.3,1.4-27.1,0.5-40.2,3.6c-9.5,2.6-19,0.5-28.5,1.3
		c-26.8,1.6-53.6,3.2-80.3,5.7l-1-5.6c-1.3,1.6-2.2,3.4-3,5.2c-8.8,1.4-17.7,0.9-26.7,2.1c-12.4,1.7-25,1.6-37.4,2.7
		c-11.7,1-23.1,3.1-34.7,3.1c-18.8,0-37.4,2.7-56.2,3c-17.6,2.6-35.5,1.3-53.1,3.6c-31.9,0.6-63.5,5.6-95.5,5.4
		c-9.3,2.6-19.2,1.7-28.5,3.5c-6.9,1.3-15-0.8-20.7,3.9l6.5,1.7l-6.7,1.3l-3.9-4.7c-8.8,0.8-17.6,0.3-26.3,0.4l0.1,7.3l-5.6,4.1
		l2.9-5.8l-2.6-4.3l-15.4,0.6c0,3.9-0.3,8,1.8,11.5l-5.4,4.3l-1.6-9.6l4.1,1.3l-2.3-7.5l-13.5,2.2v1.3c-5.3-1-10.6-1.3-15.9-1
		l-5.7,10.6l-7.5,6c-12.2,1.3-24.2,3.9-35,10.1l4.9-8.4c-5.4-2.6-10.9-6.5-17.2-4.7c0.9,6.9,1.3,13.9,1.3,20.7
		c31.5-2.6,62.8-4.4,94.3-6.6c4.1-0.4,8.3-1.8,12.4-2.7c2.5,0.9,5.2,1.6,7.8,1.2c20-1.4,39.8-2.5,59.6-4.1c3.2-2.2,8.2-5.6,10.4,0.5
		c-0.3-2.1-0.1-4.3,0.1-6.5l4.4-2.1c-3.1-1.7-6-3.7-8.6-6.1c3.6-1.4,7.3-3,10.2-5.7l3.6,5.4c4.3-2.1,8.7-4,13.2-5.6l5.7,5.1l1.9-5.8
		c3.9,3.1,1.9,6.6-0.4,9.8l4.5,2.6l-1.8,5.6c9.7-1.5,19-4.6,27.6-9.2l-0.4,5.7l6,1l-3.4-3.1c3.4-3.2,9.5-4.3,10,1.9l6.7,0.3
		c3.5-2.2,7.3-4.3,11-6.1l2.5,6.5l0.6-6.5c7.3-0.5,14.5-2.9,19.3-8.7c3.6,3.8,6.5,1.2,9.1-2.5c0.3,4.8,0.5,9.7,0.5,14.5
		c13.9-3.2,29.1,0.5,42.4-6c3.4,0.9,6.9,2.1,10.6,1.7l38.7-2.6l2.9-3.2l3.9,3.1c23.6-3,47.4-3,71.1-5.4l-10.9-6.9
		c4.3-2.9,8.4-7.5,14-7.3c4-0.4,2.9,4,3.5,6.6l5.1,1.8l-7.5,5.4c8.6,1.3,15.3-3.5,21.4-8.8l4,6.7l7.3-6.1l5.1,6.5
		c3.2-1.9,5.8-4.4,7.3-7.8c3,2.1,6.1,3.9,9.6,5.1c-1.5-3-3.1-6.1-4.8-9.1h4l6.5,9.3c18.9-0.4,37.6-2.6,56.6-3.8
		c22.4-2.6,45.1-1,67.5-3.2c14.4,3,29.1,0.3,43.5,2.2l3.6-3.1c0-1.3-0.4-3.9-0.6-5.2l2.7-2.9l5.2-5.4l-3.9-6.5l6.2,4.5
		c7.1-2.5,14.3-5.2,21.4-7.1l-2.9,11.4l5.7,1.9l1.8,1.3l1.9,1.6l7.4,0.1l1.6-1.7l2.2-2.2c2-0.5,4-0.9,6-1.3l-0.3,3.9
		c-0.8,7.4,0.3,14.6,0.9,22c2.3,26.7,3.9,53.5,6.5,80.2c9.8-1.2,19.7-1.9,29.7-2.5c-1.6-10.6-1.9-21.4-2.3-32.1l-6.9-6.1l5.8-3.5
		c-1.6-5.6-4.9-10.5-6.5-16.2c1.9-4.5,3.6-9.1,5.3-13.5l-11.8-8.3l8.7-1.2l1.6-9.3v-0.1V519v-0.3v-0.3V518h-4.4l-1.3-4.9l5.2,4.1
		c0-1.9-0.5-5.7-0.6-7.6c0-7.6-2-15.1-5.7-21.8l0.3-5.2l-8,7.8c-1.2-4-2.3-7.9-3.5-11.9c-17.2,2.7-34.8,1.3-52.1,4.1l-0.1-8.9
		L1622,473.6z M1388,512.3l-1.2,6.7l-6.3-5.7L1388,512.3L1388,512.3z M1345.9,523.7c5.4,0.4-1.3,8.6-3.1,2.3l1.9-2.2h1.3
		L1345.9,523.7z M1106.9,527.7c3.2-0.4-1.3,7.1-1.8,0.8C1105.8,527.9,1106.4,527.7,1106.9,527.7z M1224.4,529c3.9,0.3,7.5,3.8,6.1,8
		l-3.9-3.9c-1.8,4.7-8.8,0.8-6-3.1c1.1-0.7,2.4-1,3.8-0.9V529z M1126.3,532.2c2.5,0,4.5,3.9,2.1,5.7c-3.1,2.3-7-2.9-3.9-5.2
		C1125,532.3,1125.7,532.1,1126.3,532.2L1126.3,532.2z M1001.4,539.2l4.1,4.3l-3.5,5.4l-6.5-4C997.4,542.8,999.5,541,1001.4,539.2z
		 M991.4,547.5C998.7,548.8,987.3,553.4,991.4,547.5z M974.6,549.7c1.7,0,2.2,1.3,1.3,3.9c-3.5,1.3-4.7,0-3.6-3.5
		c0.7-0.2,1.5-0.4,2.2-0.4H974.6z M958.9,549.7c1.7,0,2.2,1.3,1.3,4.1c-3.4,1.2-4.7,0-3.5-3.6c0.7-0.2,1.5-0.4,2.2-0.4V549.7z
		 M1682.1,604.1c1.6,0,1.8,1,0.9,3.2c-3.1,1-4.1,0-2.9-2.9C1680.8,604.3,1681.4,604.1,1682.1,604.1z"/>
	<path class="st3" d="M1640.1,470.7l9.1,3l7.5,2.1c-3.6,0.3-7.4,1.6-11,0.8C1643.6,474.7,1641.9,472.6,1640.1,470.7z M1367,520.8
		c3-1.2,7,2.1,7.6,5.1c-2.6,4.4-8.4-1.6-7.6-5.2V520.8z M935.2,530.4l2.3-0.6c-1.8,4.4-1.6,8,4.1,8.8l-6,1.6L935.2,530.4z
		 M1537.9,538c32.4-3.1,64.9-4.5,97.3-7.5c1.3,11.1,1.3,22.7,4.8,33.4c2.5-0.9,4.8-2.2,7.1-3.2l-4.3,6.9l-7.3-1.6l-6.1,1.6
		c-9.8-3.4-20.2-0.6-30.3-0.3c-13.5,0.6-26.8,2.2-40.3,2.6l-2.6,4.7c-5.7-0.4-11.4-0.6-17.1-0.6c0.4-4.8,0.4-9.6,0.4-14.3l-4.4,4.8
		l-3.8-4.8l7.3-0.3c-3.6-2.5-7.5-4.9-5.8-10.1l5.7,6.6C1537.8,550,1537.6,544,1537.9,538L1537.9,538z M1638.9,530.3l11-1.3l3.8,6.5
		c-0.1-3.9,1.4-6.3,4.7-7.5l-0.6,9.7l-9.7,0.4c-0.4-2.9-1.3-5.7-2.9-8.2c-0.5,3.4-1,6.7-1.3,10.2c-0.4-0.1-0.9-0.2-1.3-0.3
		L1638.9,530.3L1638.9,530.3z M1090.8,543.3c-3.2-1.6-3.2-3.4,0-5.2C1094,539.7,1094,541.5,1090.8,543.3z M1472.8,542
		c13-0.9,25.9-2.6,39.1-2.9c3.6,60.4,7.8,120.7,12.3,181.1c-6.3,0.3-12.6,0.6-18.9,0.5c-1.4-5.8-3.4-11.7-6.5-16.8
		c0.1-10-6.1-18.4-7.3-28.2c-2.2-14.3-8.8-27.3-10.8-41.5c-1-6.6,4.3-12,4.1-18.4c-2.3-1.4-4.7-2.6-7-3.8c-0.8-23.3-3.6-46.6-5.2-70
		 M1491,542.6c-0.9,3.6,0.4,4.8,3.9,3.6C1495.6,542.4,1494.4,541.3,1491,542.6 M1484.5,545.2
		C1485.2,546.7,1485.2,546.7,1484.5,545.2z M732,548.5c3.4-6.5,12-3.1,18.1-4.5l0.4,5.2l-5.4-2.6l-1.8,4.4l-7.5-4.9l2.5,6.2
		l-9.3,3.1l7.8,3.1l-5.2,7l6.9,1.3l-6.7,3.8l8.8,2.3c3.8-4.1,7.3-8.4,10.6-12.8l-7-5.1l8.3-2.5l0.3,5.4l6.5,5.6h-6.2
		c0,3.4,2.1,9.1-3.1,9.8c-9.6,1.4-19.4,0.8-29,1.7c-3.6-1-7.5-1-11.1,0.1l-3.1-1.6c-4.9,4.9-12.3,3.5-18.7,4L686,574
		c-2.3,3.9-6.9,4.7-11,4.8c-30.7,1-61.1,4.7-91.7,6.1c9.3-4.7,20-5.2,29.8-8.2c6.1-3.6,8.6-10.6,13-15.8c-1.3-4.4-2.9-9.1,3.5-9.6
		l1.3,4.5l-0.3-4.1l10.5,0.8V563c3.9-3.2,6.5-7.5,8.7-11.9c4-0.6,8.2-1.3,12.3-0.3l-3.4,3.4c1.3,4.5-2.3,6.2-5.8,7.8l10.5,8.4
		l2.7-5.2c-1,0.3-3.2,0.4-4.3,0.5l1-3.5l-3-7.5c5.2-0.5,10.1-2.3,14.9-3.9c-1,4.4-5.1,6.9-8.4,9.5l9.1-3.4l6.9,3.9
		c3.5-3.9,6.7-8,8.8-13l7.4,5.3c0.3,7.3-2.2,15,1.2,21.8l2.6,0.1c3.6-4.7,5.8-10.1,8-15.5l8.7,5.2l-4.8,2.3l3.4,5.8
		c3.9-3,8-5.6,11.9-8.4c-2.1-2.9-4.3-5.6-6.5-8.2l-5.3,4l-0.1-4.5l-6.7-3.9c-1.7,3.2-2.6,6.6-2.6,10.4c-3-2.3-5.8-4.9-8.3-7.8
		l6.9,1.3c1.8-2.3,3.1-4.9,4.5-7.3c3.8,0.8,7-0.5,10-3.1c0,2.6,0.3,5.2,0.4,7.6l7.3-1.4c-2.5-2.6-4.9-5.1-7.1-7.8
		c3.4,1.4,6.9,3,10.1,4.7H732z M1414.2,545.8c10.5-1,21.1-1.3,31.6-2.2c6.5,23.6,14,46.9,20.1,70.6c-5.1,1.6-10.4,1.3-15.5,1.8
		c4.9,0.9,10,1.3,14.9,1.9c0,7.3-0.4,14.6-0.3,21.9h-4.5l-5.1,5.2c6.5-0.3,13-0.9,18.7-3.9c4.7,14.6,7.3,29.8,14,43.5
		c1.2,2.9,3,5.6,3,8.8c0,9.8,4.3,18.9,5.7,28.5c-11,0.8-22,0.9-32.9,2.3c-7.5-29-16.3-57.6-24-86.5c4.5,1.8,9.1,3.6,13.7,5.2
		c-2.7-1.5-5.3-3-8-4.4l-5.2-1.6c-3-7-5.1-14.3-6.3-21.8C1426.5,592.3,1421,568.9,1414.2,545.8L1414.2,545.8z M1385.8,548
		c6.7-0.9,13.5-1.7,20.3-1.8c6.2,22.4,12.8,44.8,18.3,67.5c-6.5-1.2-12.7-2.9-19-3.9c-5.7-1-10.6,2.6-15.5,4.4
		c-0.6-22-3.2-44-4-66.1L1385.8,548z"/>
	<path class="st3" d="M1484.6,545.3C1485.2,546.7,1485.2,546.7,1484.6,545.3z M704,547.7C705,549,705,549,704,547.7z M1323.5,552.5
		c14.3-1.6,28.5-2.3,42.8-3c0.4,11.3,0.8,22.5,2.9,33.7l-7.4-0.4l-4.3-4.5l-7.8,0.1l-1.2,4.8c-8.7,0.6-17.2,2.3-25.5,5.1l3.4,8.3
		c-2.9,0-6.1,0-6.5-3.6c-2.1-6.1,1.8-12.2,3.9-17.7C1324,567.6,1324.1,560.1,1323.5,552.5L1323.5,552.5z M1643.1,549.8
		c3.9-0.4,2.9,5.8-0.5,5.7C1638.7,555.6,1639.7,549.7,1643.1,549.8z"/>
	<path class="st3" d="M1274.8,555.5c13.5-0.4,26.9-1.3,40.4-3c1.4,13,2.3,26.2,2.7,39.3l-4.1,2.6l-1.6,4.4l6-6.1
		c1.2,15.7,1.8,31.5,3.5,47.2c-3.9-0.1-7.9-0.3-11.9,0.4l-3.1,4.5c-6,2.5-2.6-6.1-0.6-8.4c-2.2-2.2-4.7-3.9-7-6.1l0.5-4.5l-1.8,3.9
		l-2.3-1.8c0.3,3.5-1.3,6.5-3.1,9.3c0.6,3.4-0.1,7.8,3.5,9.7l2.3-8.4l6.1,8.9c3.6,0.3,6-2.3,7.6-5.4l7.8,1.6l-0.4,3l1.3,2.6l2.6-7.8
		l3.8,1.2l-1.8,8.4l7.9-0.4c-0.5-2.3-4.5-4.9-1.8-7.1l3.2-3.4l0.5-10c-0.9,3.2,1.3,9.1-3.6,9.1c-5.7-1.2-1.8-9.3-2.9-13.5
		c10-0.6,20-1.9,30.1-1.8c-0.1,10.4,0.8,20.5,1.9,30.7c-10.9-0.3-21.8,2.6-32.5,0.5l-5.2,2.2c1.6,14.6-0.9,30.7,5.6,44.4h2.6
		c2.6-3.9-1-7.8-2.1-11.4c3.5,0.6,6,2.6,6,6.6l4.7-1.3l-1.3,5.6c5.6-0.5,11.1-0.8,16.7-1.7l-2.3-3.5c-1-0.7-1.9-1.5-2.9-2.2l4.9-3
		l1,8.2c5.2-0.4,14.4,3.1,12.4-6l4.7,5.8l5.6-0.1c1.3,7,2.1,14.3,2.2,21.4l-7.3-5.4l1.3,5.8l-6.5-0.3c-3.9,3-9.1,2.3-13,4.9l4.8,5.7
		l-24.1,2.6l0.9-8.4l-6.7-5.1c1-4.3,3-8.6,2.7-13c-4.3,1-5.1,6.9-7.9,9.8c-2.9-0.8-5.7-1.8-8.4-2.9c-1.3,5.1-4.4,9.6-10.1,9.8
		l-0.3-7c6,0.3,8.3-4.5,9.5-9.5c3.9,0,7.8,0,11.7-0.3c-3.9-6-9.6-3.2-14.8-1.6l0.4,4.1l-5.1,0.5l0.8-13.3l-4.8-0.8l-1.9,4.7
		l-5.3,0.5l6.5,9.1c-5.6-1.3-9.1-5.8-13.3-9.3c0.3,5.7,3,10.1,8.7,11.4l-1.8,5.2c3.6,0.4,6.3,2.3,8,5.4l-3.9,8.6l3.6,0.4v-7.1
		l8.9-0.4l-0.4,9.1c-8.6,1.9-17.5,2.1-26.3,2.2L1286,721c-4-1-8.2-6.9-11.9-2.1c3.5-4.9,5.4-10.9,10.1-14.9
		c-2.6-33.3-4.8-66.6-7-99.9c-1.3-7.2-1.3-14.6,0-21.8c1.3-4.4-1.7-8.4-2.6-12.4h13c-0.3,3.5-1.6,7.5,0.9,10.6
		c0.4-5.8-0.1-11.7-1.9-17.2c-1.5-0.2-3-0.4-4.5-0.6l0.5,5.4l-4.4,0.5c-1.3-4.4-2.6-8.7-3.5-13.1 M1294.5,619.1l-1.9,2.3
		C1294.2,628.1,1302.1,618,1294.5,619.1 M1285.9,645.3C1286.7,652.6,1292,641.4,1285.9,645.3 M1288.8,698.2c3-3.1,5.7-6.5,8.2-9.8
		C1292.5,689.7,1288.1,693,1288.8,698.2 M1283.8,709.2c-3.6,0.5-1.8,8,1.7,6.9C1287.3,714,1286.4,709.9,1283.8,709.2 M1290.3,718.1
		c3.2-1.8,3.1-3.6-0.1-5.2C1286.9,714.6,1287.1,716.3,1290.3,718.1z M601.8,563.7c3.2-3.6,6.3-7.4,9.8-10.6c-0.4,4.8-1.9,9.5-3.5,14
		l5.6,3.8l-5.8,1.3C605.8,569.3,604,566.4,601.8,563.7L601.8,563.7z M616.7,554.2C618,555.5,618,555.5,616.7,554.2z M780.1,555.9
		c4.5-2.1,6.6,0.8,7.4,5.2c1.5-0.8,3.1-1.6,4.7-2.3c0.6,2.6,1.3,5.1,2.2,7.5C789.7,562.9,780.1,562.8,780.1,555.9L780.1,555.9z
		 M834.8,562.4l3.8-7c1.3,2.1,2.9,4.1,4.3,6.1l3.5-3.8l-1.4,6.7l7.6-0.5c-4.3,1.8-8.8,2.7-13.3,3.8l1.4-6.2L834.8,562.4z
		 M1191.1,559.1c9.5-0.6,18.9,0.1,28.2-0.8c6.2,4.9,15.2,9.3,15.2,18.5c3.1,2.9,4.5,6.5,3.9,10.8l2.6,0.5l-6.5,6.2l6.5-0.5
		c-5.2,6.5,4.5,15.3,1.3,23.3c-13.3,1.3-26.7,1.8-40.2,2.7c-1-10.4,1.9-24.2-9.1-30.3C1192.5,579.4,1192.5,569.3,1191.1,559.1z
		 M518.8,561c5.4-1.3,10.9-1.8,16.5-2.1c-3.4,5.1-7,10.1-7.8,16.3c4.1-2.6,5.8-7.1,8.2-11c1,3.6,1.9,7.8-1.7,10.4l-0.5,6.7l-4.9-3.5
		l-4.5,5.1l3.1-6.7l0.4-1.9c-3.9,2.3-7.9,4.7-12.7,4.5c2.1-2.7,4.4-5.3,6.5-8.2c0.6-3.4-1.8-6.5-2.6-9.6L518.8,561z M795.7,557.6
		c3-0.9,4.1,0.3,3.2,3.2C796,561.7,794.8,560.6,795.7,557.6z M810.7,561.3l7.5-2.5c1.3,3-1.6,5.2-2.9,7.4L810.7,561.3z M857.1,564.8
		c6-5.2,13.7-8,21.6-8v8C871.5,565.1,864.4,565.4,857.1,564.8z M822.6,557.9l10.5,5.8l0.1,3.4l-15.3,1.7L822.6,557.9z M1142.5,575.5
		c10-11.8,26.3-15.2,41.1-15.2c0.4,10.1,1.3,20.2,1.9,30.3c-1.8,2.2-5.2,3.6-5.7,6.7c-0.9,13,1.4,25.9,1.9,38.9
		c0.4,6.7-0.5,13.7,1.9,20.2l5.3-5.6l1.8,3.1c-2.6,1.3-5.4,2.5-8.2,3.5c1.3,12.8,1.3,25.8,3.5,38.5c0,6.2,0.1,12.6,4.1,17.9l5.6-1.8
		l-1.7,9.3l7.8-0.1l-2.1-6.7l7.1-4.3c0,3.9-0.8,7.5-2.6,10.9c-3.2,1.7-7.1,0.6-10.5,0.9l1.9,22.9c-8.4-0.5-17,0.4-25.5-0.8
		c-0.5-3,1.7-5.3,3-7.8v-5.7c-2.6,3.4-4,8.3-8,10.4c-4.3-1.8-9.6-3.8-10.5-8.8c-6.1-2.6-7.9-9.1-8.7-15c-3.3-24.6-5.5-49.3-6.3-74.1
		c-0.5-16.1-3.4-32.1-0.6-48.1c-1.2-5.6-1.3-15.3,6.5-14.8L1142.5,575.5 M1151,697.9c-2.2,0.5-4.3,4.8-1.3,5.6
		C1153.6,704.4,1156.1,696.3,1151,697.9 M1167.5,704.6l-5.7,12c5.2-0.3,7.4-5.2,10.4-8.4L1167.5,704.6 M1179.2,730.8l2.3,11.7
		l9.1-0.5l0.6-9.6l-9.7,4.1l0.4-5.4l-2.6-0.3H1179.2z M702.2,562.3C708.6,559.1,701.9,569.6,702.2,562.3z M769.7,563.2
		c4.8,1.2-0.3,9.3-3.9,6.9C764,567.4,766.8,563.6,769.7,563.2z M804.9,562.4c2.7-1.9,7.4,2.9,5.2,5.4
		C807,569.6,802.9,565.2,804.9,562.4z"/>
	<path class="st3" d="M398.4,587.4c7-6.5,13-14,18.1-22c0.3,3,1.2,5.6,2.9,8l8.9-7.5c9.1-0.5,18.3-1.7,27.2,0.1
		c3.9,1.3,7.1-1.8,10.8-2.6c3.6,3.1,6.6,8.6,12.2,4.8c-0.4,4.5-0.9,9.1-0.9,13.5c1.7,1.6,3.9,1.9,5.8,3c2.3-5.1,5.6-9.5,8.8-14
		c-1.4,5.4-3.5,10.8-4.9,16.1c8.2-3.6,15.5-8.8,22.7-14c-1.8,4.9-4.7,9.3-7,13.9c3.9-1.8,7.6-4.1,10.8-7.1l5.6,3.2l0.5,6.9
		l-10.5,0.5l-4.5-3.9l-3.5,5.2l1.4-6.2c-4.9-0.8-9.7,0.1-13.7,3l4.5,4.1c-3.2-1.8-7.5-2.9-8.4-7c-1.3,2.1-2.6,4.3-3.6,6.5
		c-57.4,4.1-114.8,8.4-172.3,12.3l-6-7.8l3.2,7.8c-20.7,2.2-41.6,2.6-62.2,5.2l-13.2,5.6l-3.9-1.7l-4.5,1.6
		c-6.6-2.3-13.5-3.3-20.5-3c-20.7,1.3-41.2,3.2-61.9,4.3v-2.9l-2.9,3.2l-13.2,1l1.3,5.7l-6.3-2.6l2.1,4.5l-2.3,3.6l-6.5-1l4.1,54.7
		c1.6,4.7-3.2,6.9-6,9.7l8.2,3c-0.8,3.6-1.8,7.4-3,10.9c1.7,4.7,3,9.3,3.9,14.3c-10,0.5-20,1.3-29.9,2.1c-1.3-13.3-2.2-26.7-2.6-40
		c3-5.2,6.2-10.1,7.6-15.9l4-4.1c-3.6-4.9-8.6-8.6-14.4-10.4l-1-7.8l6.7,0.4l-6.3-2.6l-0.3-7.9c3.2-2.6,6.3-5.1,9.2-7.8
		c1.3,2.3,3.4,4.1,6,5.2c0.3-7.3-9.2-7.8-9.7-14.5c3.4,1.6,6.5,3.5,9.6,5.6l-1.7-6.5l6-0.4l-3.5-2.3c-0.1-3.5-2.5-6.2-4.4-9.1
		l3.5-3.8c-2.1-4.8-3.2-13.7,3.9-14.4l1.6-4.3l7.5-0.5c6,4.1,13,5.7,20.3,6.3l-7.8-10.2l8.8,3.9h5.7l-6.5,5.7
		c3.9-0.4,7.6-0.5,11.4-0.6l3.8,5.4c2.6-2.6,4.7-6.7,9.1-6.6l6.9,8l-1.3-9.1c1.8,2.1,3,4.7,3.5,7.6c1.8-0.8,5.6-2.1,7.4-2.6
		l-5.2-4.3c21.8-1.9,43.7-3.1,65.4-5.8l4.3-1.7c4.9,1.9,10.2,1.8,15.5,1.6l4.7,5.3l-0.6-6.2c4,0,8,0,12,0.3c0,4.1-3,7.4-4.3,11.1
		l1.9,7.1l4.3-5.2c-4.7-4.4-1.7-9.8,2.2-13.6c3.2,8.6,5.7,0,8-3.1c5.6,0.9,11.1,1.6,16.7,2.1l-1-7.8c3.9,1.6,3.4,4.8,1.6,8.3
		c4.4-1.9,8.9-1,13,1c0.9-1.5,1.7-2.9,2.6-4.4l12.3,1.2l5.3-2.6l-0.4,4.8c1.8-2.5,4.1-4.4,6.7-6c0.4,5.3,4.1,9.1,8.8,11.4
		c-1.6-3.9-4.4-7.1-7.1-10.1l14.5-0.6c5.8-2.1,10.2,1.8,13,6.5l8,2.1c-0.1,3,0.8,5.4,2.6,7.5c1.6-2.2,2.9-4.5,4.1-6.7l3.4,4.4
		c6.9-0.8-0.8-5.8-2.1-8.2c4.9-2.9,9.8-5.7,14.9-8l-5.7,8.6h7l5.4-3.2c-2.2,6.7-9.8,12.2-15.8,5.3l-0.4,4.9L398.4,587.4
		 M279.6,579.7c4.9,3.8,11.3,9.1,17,3.6l-7-0.4l-2.3-7.1L279.6,579.7 M349,578.3c-1.3,2.6,3.1,5.2,5.2,3.4
		C355.5,579.1,350.9,576.5,349,578.3 M359.4,589.3c5.8,5.1,6.7-4.4,9.1-8C365.2,583.6,362,586.2,359.4,589.3 M350.8,588.7
		C351.6,595.9,357,584.8,350.8,588.7 M359.9,595.4c-1,3,0,4.1,3.1,3.5c1-3.1,0-4.3-3-3.5 M185.1,597.8
		C186.4,598.8,186.4,598.8,185.1,597.8 M104,650.4c-1.2,3.5,0,4.7,3.6,3.8c1.2-3.6,0-4.8-3.6-3.9 M101.6,693.7l2.3,3.9l-1.3,10.4
		l4.9,1.6l-3.5-6.1l4.8-2.1c2.6-0.3,5.2-0.5,7.5-2.1c-4.4-1.7-8.1-4.9-10.4-9.1L101.6,693.7 M98.1,698
		C99.4,699.1,99.4,699.1,98.1,698z M1046.1,570.9c12.4-0.8,24.9-0.9,37.2-2.7c4.1,22.9,10.4,45.5,15.2,68.4c0.4,3.6,2.7,6.5,4.9,9.1
		l-2.2,3.8c4.5,5.3,1.6,13.3,4.9,19.4c1.9-2.3,3.5-5.1,5.1-7.6h1.7l-3,7.5l5.8,2.2l1.9-4.4c-0.5-1.9-1.1-3.7-1.6-5.6l2.2,0.1
		c0.3,4.5,1.4,9.5-2.3,13l-9.7-2.7c3.6,15.2,6,30.7,10.4,45.6c2.2,6.3,1,12.8-0.9,18.9l5.1-1l2.3,13.2c-8.8,0.3-17.6,0.5-26.4,1.3
		l-1-4l-0.5,4.4l-13.7-0.5l-5.2-27.6l5.4,0.8l-0.4-7.3l-5.7,4.1l-9.3-48.7l7.1-0.5l-1.2-4.3l-6.7,2.3c-5.8-29.8-11.1-59.6-17.2-89.1
		l3.8-1C1049.4,576.2,1047.4,573.8,1046.1,570.9 M1073.3,595.3l0.5,4c2.1,1.7,4.1,3.2,6.1,5.2c-0.4-0.8-0.8-1.6-1.3-2.3h7.1
		c-0.9-1.6-1.3-4.3-3.5-3.8c-4.5,0.6-3.4-3.6-3-6.7C1077.5,593.1,1075.4,594.3,1073.3,595.3L1073.3,595.3z"/>
	<path class="st3" d="M375,569.5l4.9,0.1l-0.5,9.7l-8.6-2.6L375,569.5L375,569.5z M513.9,570c2.6,1.7,2.6,3.1-0.4,4.5
		C510.8,572.9,510.9,571.3,513.9,570z M279.3,571.8C280.5,573.1,280.5,573.1,279.3,571.8z M1017.5,572.9c7.1-0.3,14.3-0.6,21.4-1.3
		c3.9,18.8,7.3,37.8,11.7,56.5c0.9,20.3-4.1,40.8-0.8,60.9l3.6,1l0.3-4c-1.7-2.3-5.8-4.4-3.1-7.6c2.7-1,5.6-1.8,8.6-2.3l3.1,16.7
		l6-0.9l-4.5,5.8l0.9,8.9c-3.1-0.6-7.1,0-8.6-3.6l0.3,3.6l-10,0.6c0.4,4.7,0.3,9.6,1.9,14c6.5,0.9,2.3-7,2.7-10.6l2.9-1.8l2.7,7.8
		c-3.2,4.9-6.3,9.8-8.9,15.2c-1.8,5.4-2.3,11.5-5.6,16.5l4.5,5.2l-7.4-3.4c-3.5-6.9-12.3-6.5-18.8-8.4l-2.1,10
		c2.5-1.6,5.2-3,7.8-4.3l1.3,5.2l0.8-5.4c2.9,1.3,5.3,3.4,7,6.2c-10.6,1-21.4,2.5-32,2.6C1007.5,694.9,1013.1,634,1017.5,572.9
		 M1006.1,744.3c-1.3,3.6,0,4.8,3.5,3.5C1010.9,744.1,1009.6,743,1006.1,744.3z M1576.6,569.5c4.3,1.2,7.9,3.9,11.5,6.5
		c7.1-0.4,14.3-1.3,21.5-2.1c2.2,12.8,1.8,25.9,3.2,38.9c1.9,9.3-13.2,6-13.2,14.6c3.2,2.3,6.5,4.9,9.7,7.5l-0.6,9.1l3.9,3.4
		l-4.4,9.1c2.6,0.6,5.1,1.3,7.5,2.2c1.6,18.4,2.5,36.9,3.9,55.3c-14.1,0-28.2,2.5-42.4,2.2c0-12-1.2-24.1-1-36.1
		c-0.4-10.9-3.5-21.6-2.2-32.6c2.6-2.5,6.2-3.2,9.3-4.8c-0.8-2.9-3-5.1-5.8-6l2.6-8.7l-5.2,5.6c-3.2-3-2.9-7.4-3.5-11.3
		c-1.3-14.5-1.8-29.1-3.1-43.8c3.1-2.6,7.1-3.5,11-4.3L1576.6,569.5 M1587,668c-0.8,3.5-1.6,6.9-2.1,10.4c2.3,2.6,5.8,3,9.1,3.9
		l0.1-14.5L1587,668L1587,668z M1375,573.8l6.7,4.5l-3.9,6.9L1375,573.8L1375,573.8z M570.9,577.7l10.1,1.7c-1.3,2.2-3,4.3-4.4,6.3
		c-4.8,0.5-9.7,1.8-14.4,0.3c-0.1-2.3,1.2-4.1,3.9-5.2l1.2,5.2l3.4-0.6l0.3-7.8L570.9,577.7z M538.5,583.4c2.9-1.3,5.7-3.6,8.8-1.8
		c3.1,1.9,5.8-0.6,8.7-1.8c1.3,2.1,2.2,4.1,3.6,6c-10.6,1.7-22.3,4.4-32.9,1l7.8-4.3L538.5,583.4L538.5,583.4z M1373,580.4
		C1374.3,581.7,1374.3,581.7,1373,580.4z M872.8,583.2c14.1-0.4,28.1-2.6,42.4-2.9l1.9,32.6c-14,0-28,2.2-42.1,2.7
		C873.9,604.9,872.8,594.1,872.8,583.2z"/>
	<path class="st3" d="M823.5,586.4c13.5-1.3,26.9-0.8,40.3-2.9c2.5,17,2.6,34.1,4.4,51.2c-7.8,4-13.7,10.4-16.5,18.8
		c6.5-0.3,12.3-2.9,18.1-5.4c-0.8,3.6-1.7,7.3-4.3,10.1l4.1-2.2l0.8,8c-5.2,0.3-10.4,0.4-15.5,1.8c1,2.6,3,4.9,5.2,6.9
		c2.6-2.2,5.2-6.2,9.3-4.4c1.3,3.5,2.3,7,3.4,10.6c6.5-5.7,7.3-14.5,4.9-22.4l10.5-1.3c2.9,3.8,6.7,6.1,10.9,8
		c-3-2.3-5.8-4.8-8.3-7.6l16.7-0.9c-0.8,4.9,1.7,11.9-4.5,14c4.4,2.1,7.5,5.4,4.1,10.2l2.5,6.2c-10.1,0.8-20.2,1.3-30.3,2.5
		c0-1.9-0.5-5.8-0.6-7.8c-12,7-4.1,22-6.6,32.9c-2.1,2.1-4,4.4-5.8,6.7c3.6-1.2,6.7-3.5,9.7-5.7l6,7.8l8.3-6.1l3.4,3.9l-5.7-1.2
		c-0.1,4.5-0.5,9.1-0.9,13.5c8.9-0.8,17.9-0.3,26.7-0.8l1.6,6.1l0.3-7.3h13l1.3,31.4c-10,1.3-20,1-29.9,0.9l1.3-5.2l-4.8,0.8
		l0.4,6.2l-11.7,0.3c-0.5-6.5-1.3-13-1.7-19.4l-4.8-2.6c2.7-5.3,3.6-11.4,4.5-17.2c-3.5,2.5-7.5,5.2-8.2,9.8c-1,10,1.3,20,1.6,30.1
		c-5.4,0-12,3-16.3-1.8c-4.4-1.9-8.8-5.2-13.7-3l-0.5,6.7l-10.4,0.6c-3.5-45.3-6.7-90.9-9.2-136.3c2.9-0.5,5.4,0.6,8.2,1.8l4.8-4.1
		l0.6-7.3l-1.3,7.8c-3.9,0.6-7.8,0-10.5-3.2l-2.9,3.4c-0.3-6.3-0.4-12.6-0.4-18.9c3.4-1.3,6.2-3.4,9.1-5.7l-9.6,3.1
		C823.4,600.6,823.5,593.5,823.5,586.4 M846.2,599.7c-2.3,2.9,2.5,7.5,4.8,4.1C853.3,600.9,848.7,596.2,846.2,599.7 M851.5,622.1
		C848.7,628.7,858.9,621.7,851.5,622.1 M884.6,659.2c-0.9,3.1,0.1,4.1,3.2,3.5C888.7,659.5,887.5,658.4,884.6,659.2 M856.7,700.6
		c-2.6-0.3-5.2,5.1-1.3,5.1c2.6,0.1,5.2-5.2,1.3-5.2V700.6z M83.9,591.8l13-1.7l-5.2,5.7l0.6,7.8l-3.8,4l4.3-0.6l-0.6,6.9
		c-5.2,0.8-7.5,5.4-6,10.2l-6.1,1.7c1.3-2.3,2.6-4.8,3.6-7.1l-3.6-3.6l3-11.1l-3.1-4.3l6.1-1L83.9,591.8L83.9,591.8z M1328.8,595.6
		c-3-2.1-3-3.9,0.3-5.7C1332,591.8,1331.9,593.7,1328.8,595.6z M78.8,593.3C80.1,594.6,80.1,594.6,78.8,593.3z M717.3,593.3
		c13.7-0.8,27.5-1.8,41.2-2.3c2.6,33.3,4.7,66.6,6.9,99.8c-0.1,13.3,3,26.6,2.3,39.8l-5.3,1.8c4.5,5.2,11.4,10,18.5,6.9l-0.3,2.9
		l-3.8-0.4l-4.9,7.4l0.3-9.5l-5.4,0.3l3.1,7.4c-6.3,0.3-12.5-2.1-17-6.6l-0.1,3.2c-6.7-3.3-13.7-5.6-21-7c5.6,1.9,11.1,3.9,16.2,7.1
		c7.3,1.4,14.3,3.2,21.5,5.2c0.5,7.6,1,15.3,0.9,23.1c-13.3,1.4-26.8-0.3-40.2,2.2c-0.5-6-1.3-11.9-1.7-17.7l-6.9,1.3l0.6,4.7
		l-2.6-4l-4,3.9l-1-5.2l-3.9,3.5l-2.3-3.5l5.2-1.7c-0.6-4.7-1.4-9.3-2.6-13.9l-6.9,5.6l3.9,6.9l-6.3-6.5c0-2.7,0-5.6-0.3-8.4
		c2.9,2.9,6.9,1.6,10.4,0.9c1.6,2.6,3.9,4.3,6.7,5.4l-2.5-8.4l-3.2-2.3v-1.8c5.2,1.6,10.2,3.5,15.2,5.8c-1.2-5-1.9-10-1.9-15.2
		c-1.6-27.6-4.4-55.1-5.2-82.5l11.8,0.8l-5.7,3.2l9.3,5.1l0.8-7l6.5,3.5c0.9-1.9,2.6-5.6,3.2-7.5l-6.2,1l4.1-7.3
		c-8,2.6-16.3,3.9-24.7,4.4c-0.5-14.8-2.3-29.4-2.6-44.3 M741.2,650l0.8,4.8l4.1,0.6l0.4-5.4H741.2 M733.5,762.2
		c2.2,4.9,7,4.3,11.3,3.9C743.5,760.1,737.9,761.6,733.5,762.2z M185.1,597.8C186.4,598.8,186.4,598.8,185.1,597.8z"/>
	<path class="st3" d="M616.3,601.4c17.7-1.6,36-3.8,53.4,1.9l6.3,6.6l7.4-1.3l-3.4,5.7c6.5,13,6.6,27.9,7.3,42.1l7.8,4l4.7-4.4
		l-2.6,7.1c-3.9,0.8-7.3-1.6-10.9-2.2c-1,5.2-2.3,11,1.3,15.8c-7.6-1.3-13.1,4.5-20,6.2l-10.1,2.3c10,1.6,21.4,2.2,28.5,10.4
		c6.3,8.7,7.5,20,8.7,30.4l5.2,0.8l0.9-10l1.7,10.4l-7.4,3.2v13l3.4,4l-4.5,6.2l6.9-1.3l-4.7,8l-1-4.7c-4.4,6-8,12.8-14.5,16.8
		c-6.1,4.3-13.6,5.3-20.7,7l-10.2-6.3l0.8,6.3c-5.1,0.1-10,0.6-14.9,1.3c-1-9.8-1.4-19.8-1.3-29.8c5.7-0.4,13.3-0.1,16.5-6.2
		c2.6-6.6,0.9-14,0.9-20.9c2.6,0.6,5.3,3.9,8.2,2.1l1.9-5.2l-6.1-0.9l4.4-5.4c7.4-1.7,14.5-4.4,21.2-7.9l-12.2,5.1
		c-6.3,0.6-12.3,2.6-18.1,4.8c-1-4.7-0.8-10.8-5.6-13.3c-4.9-0.9-10-0.5-15-0.6c0-9.7-3.2-19.2-2.1-29c5.3-0.9,13.5,0,15.5-6.5
		c0.9-10.1,0.9-20.5-1.3-30.3c-3.6-10.6-17.1-5.2-25.4-5.8c2.1,12.7,1.2,25.9,4.1,38.3c-0.9,6.5-0.8,12.8,1.3,19l-7.4-0.8
		c1.3,2.9,3.8,4.5,6.7,5.4c0.3,9.1-0.6,18.7,3.5,27.2l-1.9,7.8l9.7-4l-3.2,6c5.2,1,8.9,4,7.3,9.7l-3.9,0.9l-0.8-9.1
		c-3,0.5-5.7,1.3-8.6,2.1l1.7,11.5l6.1-0.8c-1.9,2.6-4.1,5.2-5.8,7.9c0,9.8,1.3,19.6,0.9,29.4c-13.5,0.8-26.8,2.5-40.3,2.9
		c-1.7-5.8,0.5-14.1-5.6-17.7l4-3.6c-4.8-48.6-6.5-97.6-10.4-146.3c-0.6-4.1,0.4-8.3,1.3-12.3c11-1.7,22.4-2.2,33.7-2.1l2.5,5.2
		L616.3,601.4 M585.2,705.7c-0.8,3.5-1,7-1.3,10.6l19-0.4c4.4-3,9.1-5.4,12.8-9.5c-1.3-1.6-2.5-3.2-3.6-4.9
		c-0.6,1.3-2.1,4.1-2.6,5.6c-4.8-1.2-9.2-2.7-13.6-4.5C592.3,703.5,588.7,704.4,585.2,705.7 M591.4,725.5l0.8,6.7l5.8-1.6l-3.1-5.8
		L591.4,725.5z"/>
	<path class="st3" d="M674.7,602c3.5-1,4.8,0.3,3.8,3.9C674.8,606.8,673.7,605.5,674.7,602z M494.5,608.9c11.5,0,22.9-1.7,34.5-2.2
		c4-0.5,7.8,1.2,11.5,2.7c-2.6,3-4,6.5-4.3,10.4l5.8-5.2l-1.4,5.7h4.7l0.3-8.8c1.9,4.5,3.2,9.3,4.3,14.3l-7.8-1.6
		c2.2,3.4,8.3,6.1,5.7,10.8l-4.8,1.7l0.9,10.1c-1.3-0.4-4-0.8-5.4-1c1.2,17.4,3.5,34.7,3,52.1l-8-3.9l-6.5,3.2
		c1,3.6,2.5,7.3,3.6,10.9c-3.9-2.1-7.9-4-12.2-5.6l-8,10.4l-7.8-1.3c1.3,2.6,2.5,5.4,3.6,8.2c3.2-4.3,6.6-8.7,11.1-11.9
		c0.9,4.3-3.2,9.1-1.2,13.2c2.9-4.5,7-6.5,12.2-3.9l-4.1,4.1l5.7,4.1c2.6-4.7,5.4-9.1,9.8-12l-6.1-1.3l-7.1,2.3
		c2.9-1.6,5.7-7.5,9.1-2.9l4.1-3.9c-3.4-2.5-6.7-4.8-10.6-6.1l-0.6-4.1c3.1,0.5,6.3,0.9,9.5,1.9c1,2.9,1.7,5.8,2.6,8.7
		c0,1.2,0.4,3.4,0.5,4.5c3.9,7.5,2.6,16.2,3.6,24.4c0.4,14.6,1.9,31.9-9.1,43.5c-8.9,10.4-23.3,11.3-35.9,13
		c-1.3-10-1.2-20-2.7-29.8l-0.3-1.3c-0.1-2.6,1.3-3.9,4.3-3.9l3-6.1l-8.2,3.1c-2.9-0.8-5.8-1.5-8.7-2.2c5.8,0.3,11.7,0,17.2-1.9
		c-3.9-17-1.4-34.5-3.8-51.6c-1.3-8.8-1.4-17.6-1.9-26.4l3.9-2.6l-4.1-1.7c-1.3-7.8-1-15.7-1.7-23.6c-3.4-1.3-7.5-2.3-8.2-6.6
		c2.5,0.5,4.9,1.3,7.3,1.9c-1-10.6-0.6-21.2-1.3-32L494.5,608.9z"/>
	<path class="st3" d="M430.2,613.4c14.3-0.5,28.6-3.1,43-1.8l-7.4,3.9c3.2,0.3,6.3,1.2,8.8,3.4l11.7-3.9l0.8,5.6
		c-1.9-0.6-3.9-1.2-6-1.6c-6.5-0.1,1.6,6.6,1.6,9.7c2.5-3.4,5.8-5.8,9.5-7.8l-2.9,6.1l-4.4,2.2l-8,4.9l2.6-5.8
		c-1.7-3-2.4-6.4-1.9-9.8l-3.9,2.3c-1.3,8.6,0.4,17.2,1,25.8c2.5,36.4,4.5,72.9,8.2,109.3c2.9,3.4,8.2,4.4,9.5,8.8l0.4,0.8l-3.2,0.9
		c0.8,8.8,1,17.5,1.8,26.3c-12.7,0.4-27.5,2.6-37.6-6.6c-5.2-4-7.8-10.1-9.1-16.5c-4.9-6.1-3.9-14.5-5.2-21.8
		C436.8,703.1,433.6,658.3,430.2,613.4 M443.6,702.6c1.8,6.2,6.2,11.7,13,12.2l-0.1-8.7L443.6,702.6z M1391,614.1
		c5.4-1.9,11-2.9,16.8-2.5c5.4,2.1,11.3,2.2,17.1,2.6c6.5,19.8,5.2,41.2,7.3,61.9l6.9-4.9c-1.6,3.4-3.8,6.3-6.2,9.1
		c0.9,15.4,1.3,30.8,3.9,46c-8.8,0.4-17.5,1.2-26.3,1.7l0.4-6h-2.6l0.9,5.3l-6.2,0.3l1-6.9l-2.6,8.2l-3.4-0.1
		c0.3-9.8-1.3-19.4-2.1-29.1c-0.6-4.1,2.6-6.7,5.1-9.3c4.5-3.4-3.4-4.9-5.6-6l0.1-1.3c5.2,1.8,13.5,9.3,17,0.8l-9.6-2.3l5.6,0.3
		l0.3-6.9c-4.7,1.8-9.5,3.4-14.5,4.1C1394,657.3,1390.5,635.7,1391,614.1 M1406,691.9l0.5,4.8l4.9,0.4v-5.2L1406,691.9
		 M1406.1,709.3c-1.2,3.2,1.9,9.3,5.7,8C1413.4,714.1,1409.4,709.2,1406.1,709.3z M316.5,620.6c6-0.5,11.9-1.6,17.7-2.7
		c-0.6,5.4,2.6,12.4-2.1,16.7l3.5,1.2l1.3,13.3c-5.7,2.7-7.8,7.8-7.4,14l-4.3,1.3c3.4,2.9,5.8,6.5,6.5,10.9
		c-5.7,0-11.4-0.3-16.8-2.6v5.1c5.2-0.9,10.4-1.7,15.5-2.1l-3.6,6.7l2.3-3.9c4.7,16.2,3.9,33.2,5.1,49.9l-6.6,5.4
		c3-0.4,5.6-1.8,8.4-2.6c-0.4,3-1.8,5.7-3.9,7.9l2.6,1.3c2.1,8,1.6,16.5,2.3,24.7c1,3.5,5.2,4.4,7.8,6.5c0.5,10.6,1.3,21.2,2.3,32
		c-14.9,0.3-33.3,1.7-43.5-11.4c-6.5-5.7-3.9-16.8-11.9-20.7l2.3-5.2l-4.3-0.5l3.2-4.4c-1.7-0.4-3.5-0.9-5.2-1.3
		c1.7-1.6,3.6-2.9,5.4-4.1v-5.8c-4-1.3-7.5-3.4-8.3-8l-3.9,4.1l2.7,2.6l-3.8,2.6c-0.2-3.5-0.5-7.1-0.8-10.6l4.8,1.3l6.2-10.4
		l1.2,7.6l1-3.9c7.1,0.4,14.4,0.6,20.9-2.9v5.4l2.6-6.3l9.8,7.5c-1.9-4.4-7.6-5.6-11.3-8.3c-5.2,2.1-10.9,2.7-16.5,3.2
		c-0.1-4.9,2.6-7.9,6.9-10c-3-4.9-9.1-3.2-13.7-3.4l-0.3-7.8c-2.6-1-5.1-2.2-7.4-3.6h6.9c-1.3-11.5,1.6-23.7-4.3-34.3l2.3-3
		l-0.3-15.5l-10.1,1.2c6.3-2.6,2.6-8.3,1.3-12.7l8.3,9.1l1-7.6l-3.9-5.8l5.7-0.8c3.6-6.9,8.4-14.9,16.8-16.1
		c6.1,3.2,7.1,11.1,9.7,16.8l-1.3-7.9l4.4,0.5l6-7.8l-7-3.9l-2.5,4.3l-0.3-5.2 M320,667.7c-1.2,3.6,0,4.8,3.5,3.6
		C324.8,667.7,323.5,666.5,320,667.7 M320.5,680.3c-4,0.8-1.4,6.5,1.9,4.7C326.6,684,324,678.5,320.5,680.3z M345.1,616.9l6.5-1.3
		l0.6,5.6l1.6-5.2c11.1,1.3,24.2,1.8,31.9,11.5c9.8,12.3,9.1,29,10.8,43.8c0.3,7.9,2.3,15.7,2.3,23.7c-2.7,2.3-5.8,4.3-8.7,6.5
		c-7.8-1.3-15.7-2.9-23.7-3.1c-2.2,2.2-1.4,5.4-1.7,8.3l10.1,1l3.6,2.3l6.5-4.9l-0.9,7h9.2c-2.9-3-5-6.7-6-10.8
		c4.9,0.5,10.4,2.6,11.9,7.8c1.2,6.6,2.1,13.3,0.9,20.1h2.7l0.6-4.4l4.4,3.2l-8.6,5.7c1.2,3.6,2.2,7.4,3.1,11l-5.3,0.4v1.3
		c1.7-0.4,3.2-0.5,4.8-0.6c-0.3,14.3,2.3,30.2-7.1,42.2c-9.1,12.4-25.8,13.2-39.6,14.9c-1.3-8.8-1.6-17.7-1.6-26.7l-4.7,1.3
		c1.8-2.2,3.5-4.7,5.2-7c6.3-3.4,6.5-10.4,4.8-16.5l-1.3-11.3l-6.1-4.4l7.3-0.8c-0.3-1.7-0.6-3.5-0.9-5.2l-7.4,4.3
		c0.5-3.9,3.1-6.3,7-6.5c0.3-3.5,0.6-6.9,0.8-10.4c-1.9-4.9-2.3-10.2-4.3-15.2c3.2-9.3,0.3-19.3,0-28.9c-0.6-8.2,0.6-16.8-3.4-24.2
		c-1.7-1.6-6.1-1.3-6-4.3C344,637.4,341.1,626.6,345.1,616.9 M387.5,645.9c3.1-1.9,3-3.9,0-5.6C384.4,642.3,384.5,644.3,387.5,645.9
		 M375.3,713.7c-0.5,3.4,5.2,5.6,8.2,4.9C383.9,715.4,378.3,712.3,375.3,713.7 M364,719.5c-3.1,1.3-3.2,2.6-0.4,4.3
		C366.6,722.5,366.8,721.1,364,719.5z M147.7,621.5c2.6,3.8,4.9,8,8.7,10.8l4.1-3.1l1.4,3c3.9-0.5,7.9-0.4,11.1-3
		c16.6,4,34.1-3.4,50.9,0.9c16.8,2.5,26.2,19.2,28.2,34.5c2.7,20,4.9,40,5.4,60c3.5-0.8,5.2,0,4.9,2.6l-3.9,0.4
		c-0.3,4,0,8.2,0.5,12.2l6.9-1.9c0.3,4.1,0.8,8.2,0.8,12.3c-0.4,3.6-5.6,2.2-7.8,3.5c0.9,11.7,0.4,23.3-2.9,34.6
		c-1.2,2.5,0.3,4.7,1.3,6.9l5.7-6.5l-1.3,7.4c-11.9,2.9-21.8,11.7-34.3,12.3l-1.2,3.9l-8,0.3c-4.2-1.1-8.5-1.9-12.8-2.5
		c-0.8-10-0.5-20.1-2.2-30.1c6-0.8,12.7-8.4,18.1-3.5c5.3,5.8-5.2,7.8-8.9,10.6l-4.7-0.5c3.8,0.8,7.5,1.8,11.3,1.3
		c3.6-3.8,6.5-8.4,10.6-11.7l-4.7-0.8l-0.3-1.9c-2.5-0.9-5.2-1.1-7.8-0.6c0.3-19.8-0.3-39.6-1.8-59.3l8,2.3l2.2,10.4l-8.4-3.2
		l3.9,4.3l6-0.9c0-2.7-0.3-5.6-0.5-8.4c0-3,2.3-6.5-0.1-8.9l-5.8-1.4l-1.8-3.2l0.1,9.1l-3.6-3.1c-2.5-14.1-1.8-28.5-5.2-42.5
		c-3.9-8.8-14.8-5.8-22.2-5.8c2.2,36.5,5.2,73.2,7.4,109.7c0.5,5.3,0,11.1,3.5,15.5l-2.3-1.4c0.5,8.6,0.6,17.2,1.7,25.9
		c-7.4-0.3-15.3,2.3-22.3-0.5l-1.3-4.8c-4.3,1.4-8.4,3.4-11.8,6.3l15-0.3l-6.7,8.2c-1.3-1.7-2.3-3.4-3.5-5.2l-2.9,5.8l-6.5-7.5
		c-1-5.4-2.7-10.6-5.2-15.5c-2.6,1.9-5.4,3.2-8.4,4.1c2.1-2.3,4.5-4.5,7-6.5c-4-1.3-6.5-3.9-5.1-8.2l-3.8-0.6l4.4-1.3l-1.2-4.3
		l6.7,2.6c0.8-7,2.6-14.9-1.6-21.2c0.3-16.5-0.3-33-1.7-49.5c-0.6-7.5-1.9-15.5,1.9-22.5l-3.9-1.8c0-11.7-1.9-23.3-1.6-35
		c-8.3-4.3-1-13.7-3.4-20.5l11-0.9L147.7,621.5 M261,739.9c-1.9,2.2-1.7,7.3,1.6,8.2C266.5,747,265.4,737.7,261,739.9 M161.3,759.4
		l0.8,5.4c3.4-2.2,6.6-4.7,9.6-7.5C168.2,757.9,164.8,758.7,161.3,759.4 M234.4,763.1c3.2,6.5,9.8,10,14.8,14.9
		c1.3-0.9,1.9-2.5,2.9-3.6C246,770.8,241.6,764.6,234.4,763.1 M152.1,785.1c-3.6,1.3-1.9,9.7,1.8,9.3
		C155.7,791.8,155.3,786.6,152.1,785.1z M786.9,629.9c-0.8-2.3-1.6-4.9-0.4-7.3c0.9,3.2,1.8,6.7,2.1,10.4l5.6,4.3l0.1-7l6.2,5.6
		l-2.9,10.1l-3.4,3.2c-0.4,4.5-0.8,9.2-2.1,13.7l0.1,6.2c-1.7-0.8-3.4-1.7-5.2-2.5c1.4-4.9,3.2-10.1,1.3-15.2l5.1-3.5l0.9-10.4
		c-5.2,1.3-6.9-2.5-7.8-6.6c-1.9,0.7-3.7,1.4-5.6,2.1L786.9,629.9L786.9,629.9z M1685.4,627l14.3-1.4c0.8,22.5,4.3,44.8,5.2,67.4
		l8,1.2c-2.7,1.2-5.6,2.2-8,4c-0.3,6.1,1,11.9,2.1,17.9c2.6,1.3,5.2,3,7.5,4.9l-9.6-2.2l0.4,3.2l-5.6-3c-2.3,2.6-4.3,7.1-8.7,5.4
		l-4.4-3.8c-3,3.8-6.7,6.5-10.8,9.1l-6-3.9l1.9,11.4c-7.5,0.8-14,5.1-18,11.4c-9.5,0-18.9-0.5-28.2,1l-1.4,4.8l7.5-0.1l-2.7,7.9
		l9.1-2.3c-3.2,6.5-10.8,5.2-16.7,6.2l7.6-8.3c-4.4-2.1-9.1-2.2-13.9-2.3l-7.8,4.9c-6.2,4.4-14,3.2-21.1,4c-5.7,0.3-12,2.3-17.2-1.3
		l7.1-4.3c-7.1,2.6-14.8,4.3-20.9,9.1l-5.3-2.6c-0.9-4.2-2.2-8.2-3.9-12.2c4.5-3.9,10.4-3,14.5,1.2l-0.1-6.2
		c3.9-1.3,3.1-4.9,3.1-8.2l-2.5-3.4c11.9-1.3,24.1-1,36-2.5c4.9,0,10.4-1.9,14.9,1.3c10.4-4.7,22-3,33-5.2c6.1-2.2,13.1-1.3,19-4.4
		c2.9-0.4,5.4-2,7-4.4l-6.5-0.6c0.9-2.1,0-7,3.9-5.7c2.2,3,3.1,6.6,4.4,10.1l5.2-0.5l-6.6-6l3.4-1.3c-3.1-2.3-8-5.4-6.9-10l8.2,4.7
		c-0.6-3.2-1.6-6.3-1.8-9.5c2.2-4.3,6-7.4,8.8-11.1l-9.3,3.9c0.9-3.6,2.1-7.3,3.4-11h-3.5c1.3-4.3,2.6-8.4,3.6-12.7l-3.9-5.2
		c4.7,0,7.3-2.5,6.9-7.4l-6.9,4.1l-1.3-3.1l7.6-2.3l4.3,0.5c-3.1-4-7.8-6.5-11.8-9.7c7,0.6,14.3-0.4,19.2-6l-2.3-4.3
		c-1.3-3.9-4.8-6-8.8-6.6l5.2-4.9L1685.4,627z M1574,634.8C1581.4,635.3,1570.5,641.4,1574,634.8z"/>
	<path class="st3" d="M782.2,638.3l6.6,4.9c-2.1,4.1-4.5,8.6-1.7,13l-5.3,6.5l-0.4-6.5h-5.6c5.6-3.9,8.4-11.3,6.5-17.9H782.2z
		 M860.9,649.4c1.6-5.1,3.5-10,6.9-14c0.4,3.1,0.6,6.2,0.8,9.5C866.2,646.7,863.7,648.3,860.9,649.4L860.9,649.4z M1197.2,644.8
		c16.2-0.3,32.4-2.6,48.5-3c1.7,12.6,1.3,25.1,2.2,37.7h7.8l-0.4,4.4l2.2,2.6c-2.3,2.7-4.7,5.8-8.4,6.7c0.3,12.7,1.9,27.2-6.1,38.1
		c-9.2,11.7-25.5,11.5-38.9,13.9c0-7-0.4-13.9-0.8-20.7c2.9-1.6,6-2.6,8,0.6c-6.5-4.5-2.6-14.8,3.9-17.2l-5.2-3.1
		c-1.6-8.7-2-17.6-1.3-26.4l-9.3,0.1C1198.9,667.2,1197.6,656.1,1197.2,644.8 M1213.6,650c0,3.9,6.5,3.6,6.9,0
		C1220.2,646.3,1213.9,646.2,1213.6,650 M1207,652.6c-1.3,3.6-0.1,4.8,3.5,3.8c1.3-3.6,0-4.8-3.5-3.6 M1250.3,680.9
		c-2.1,1.6-1.4,7.1,1.7,6.9C1252.9,685.8,1253.7,680.8,1250.3,680.9 M1227.6,720.3l-8.8,2.9l0.4,3.5l4.1,0.4l3.1-3.4l7,2.6
		L1227.6,720.3L1227.6,720.3z M137.8,650.5c3.5-1,4.8,0.3,3.8,3.9C138.1,655.3,136.9,654.1,137.8,650.5z M688.6,665.9
		c3.5-1.2,4.8,0,3.9,3.6C688.8,670.6,687.5,669.4,688.6,665.9z M692.6,674.6C693.9,675.9,693.9,675.9,692.6,674.6z M682.9,680.1
		l4.4-0.1c1.3,3.6-5.8,3.9-4.4,0V680.1z M699.6,683C706.8,683.3,696.1,689.5,699.6,683z M1436.4,685.3l6.2,6.1l-5.1,5.8l-1.2-12
		L1436.4,685.3z M709.7,687.3c-1.2,2.7-1.6,6.1-4,8c-4.7-0.3-10.1-1-11.7-6.3c5.6,1.3,11.9,4.7,15.5-1.7L709.7,687.3z M624.6,691.3
		C631.9,691.4,621.3,697.9,624.6,691.3z M406.3,695.7c6.7-1.3,10.8,4,15,7.9l1.8,12.8c-3.2,0.5-8.6-2.3-9.8,2.2
		c-0.4,1.8-1.3,5.3-1.6,7.1l-5.1-7l6.7-3.9c-1.4-0.4-4.4-1.3-6-1.6l1.2-11.7c3.9,2.6,3.2,7.5,3.9,11.5c6.1-0.1,3.5-6.5,1.3-9.5
		C411.4,700.9,408.7,698.4,406.3,695.7z M548.1,693.2l8.7,7.8c-4.9,0-9.5,1.7-13.7,4.1l-0.5-7.4l5.4,2.1l0.1-6.5L548.1,693.2z
		 M98.1,698.3C99.4,699.2,99.4,699.2,98.1,698.3z M1279.3,702.6C1280.6,703.6,1280.6,703.6,1279.3,702.6z M587.8,708.9
		c3.6-1.4,7.4-2.6,11.1-3.9c-1.2,6.5-6.5,9.5-12.2,11.1C586.9,713.8,584.4,709.7,587.8,708.9L587.8,708.9z M808,708.9l3.6,12.2
		l4.5-4.8h3.9l-0.1,3.8c-1.7,1.3-3.2,2.7-4.8,4.3l-5.2,0.9c-3.4,1.3-7,2.6-10.5,3.6l4.4,8.7l2.6-6l6-2.9c-3.4,5.6-7,14.3-1.3,19.4
		l2.3-7l3.8,2.9l-3.9,4.1l6.1,2.5l2.1-5.3l-1.7-6.5c2.6,4.9,4.7,11.5-0.9,15.2l-9.7-3.9l0.5,19.3l-30.6,2.1
		c-0.5-8.2-1.2-16.3-2.1-24.4c5.2-1.8,13.7-1.8,13.3-9.3l6.1-0.5v-14l2.1,3.9c2.6-2.2,5.2-4.3,8.7-5.1l0.3-8.7l-3.8,0.8L808,708.9
		L808,708.9z M902.4,708.8C903.5,710.1,903.5,710.1,902.4,708.8z M220.2,710.3c2.9-0.9,3.9,0.3,3.1,3.5
		C220.4,714.6,219.5,713.4,220.2,710.3z M345.9,714l4.4-5.8l4,11.8l-6.2,0.6l2.7-6.6H346H345.9z M424.9,711
		C431.1,707.1,425.4,718.4,424.9,711z M632.6,710.6c2.6,3.1,7.1,6.1,4.4,10.6l3.5,2.6L634,721C633.4,717.5,633,714.1,632.6,710.6z
		 M881.8,711.2c3.6-1,4.8,0.1,3.6,3.8c-3.5,0.9-4.8-0.3-3.6-3.9V711.2z M896.2,717.3l6,5.1l-5.2,7.8L896.2,717.3L896.2,717.3z
		 M1313.9,733.8c0.6-6.5,3.6-14,11.1-14.6l1.9,8.6l-6-1.3v2.9h6C1326.5,736.8,1318.6,733.1,1313.9,733.8z M1717.3,719.7
		C1724.6,720.7,1713.4,725.7,1717.3,719.7z M273.6,722.1c4.1,1.4,8.3,3.5,12.3,5.2l0.8,6h-4.1c-0.6,5.2-6,4.3-9.7,4.9
		c-0.3-3.5-0.6-7.3,1.7-10.4L273.6,722.1L273.6,722.1z M1654.3,721.7c6.9-3.9,2.1,10.8-1.3,3.6L1654.3,721.7z M1660.8,722
		C1662,723.3,1662,723.3,1660.8,722z M489,729l3.6-5.3l0.3,3.6l6.7-4.5c2.9,3.4-1.6,5.3-3.5,7.5c-1.2,3.9,2.3,6.2,4.3,9.1l-10.4,1.8
		l5.8-5.8l-5.2,0.3l0.8-4.8L489,729L489,729z M420.1,729.8l1.8-5.6l6.7,4.9l6.7-3c-1.6,1.9-3,4-4.8,6c-3.5-0.4-7-1.4-10.4-2.3H420.1
		z M1366.2,729.8c2.6-6.7,9.8-5.6,13.9-0.8C1375.6,729.4,1370.9,729.6,1366.2,729.8z M1698.4,726.7l6.7,0.6c1.3,4.4,2.3,8.8,3,13.3
		l-8.2,5.7l2.2-5.2c-0.8-5.1-1.3-10.1-3.6-14.5L1698.4,726.7z M413.8,731.8c-2.7-1.7-2.9-3.2,0-4.7
		C416.6,728.9,416.6,730.4,413.8,731.8z M404.2,732.4c2.1-3.5,9.1-0.8,6,2.9c-2.3,2.6-10,1.2-5.8-2.9H404.2z M1680.3,735.5l6.1-7.1
		c1.6,1.6,3,3.4,3.9,5.4c-2.3,2.9-6.7,1.2-9.8,1.7H1680.3z M90.3,738.4c5.1,0.3,11.9-3.1,15.7,0.5c1.3,3.6,3.1,8.4,7.3,4.4l-4.1-2.1
		l-0.4-1.9c3.2-3,7.8-3.1,11.9-3.6c1.3,4.7-2.6,7.8-5.6,10.4l6.2-1.8c-0.3,9.1,1,18.3,1.9,27.5l-7.5,0.9c8.3,3.6,8.6,12.8,9.3,20.5
		l-6.3,4.5c2.6,2.9,6.7,4.8,7.5,8.8c-0.3,4.3-1.7,8.4-2.6,12.6c4,5.3,1.6,12.7,6,17.7l5.2-6.5l-2.9,6.9c14.8-1.3,29.5-2.3,44.3-3.4
		c3.4,0.4,4.5-3.6,6.6-5.3l0.8,6.5l9.1-4.8l4.3,3.1c0-1.7,0.4-4.9,0.5-6.5c1.9,3.1,4.7,4.7,8.3,4.7l-5.4-8c5.6,1.3,9.8,10,15.5,6.3
		l-5.2-5.3c3.5,0.5,6.6,2.2,9.3,4.4l8.3,1.8l1.4-8.2l2.6,8.8l3.9-11.9l2.1,8.6c0.8-0.4,2.2-1.3,3-1.6l-0.8-7.4
		c3.8,2.6,7.6,4.7,11.8,6.5l1-6.9l5.2-1.3c4.5,1.7,8.9,3.2,13.2,5.2l-8.8,4.8c6.5-0.5,12.8-0.9,19.2-0.8v-6.9l9.2,6.5l5.2-7.8
		c0,3.4-0.6,6.7-1.6,10l1.3-1.2c3-3.5,7.5-3.9,11.9-3.9c-0.8-2.7-1.7-5.4-2.7-8c5.1,3.4,9.1,9.1,15.7,9.1c-2.2-3.5-4.7-6.9-7-10.4
		c5.2,0.6,8.3,4.5,10.2,9.1l7.8-1.3l1.3,5.4l0.8-6.6c5.2,0.4,10.4,1.8,13.5,6.2l-1.6-5.7c21,0.6,41.7-2.2,62.4-4.5l3-0.3
		c5.2,0.4,10.4-0.5,15.5-1.3l0.9-4.1l4.7,4.7l4.5-6.2l0.9,6c7.8-1,15.5-1.8,23.3-1.7c-2.4-2.8-4.6-5.8-6.5-8.9
		c4.8,1.7,9.1,4.5,12,8.7l5.2-3.6l-0.5,6c7-4.7,17.1-5.8,22.5,1.7c2.3,0.8,4.7,1.6,7,2.6c1.4,3.5,2.5,7.4,3.6,11.1
		c0.9-5.4,1.3-11,4.5-15.5l8.9-0.6l-6.5-4.3l8.7-0.9l-2.2,5.6l9.1,6l-7,1l8.9-0.9l-4.4,6.9l8.2-10.4c-1,0.4-3.2,0.8-4.3,1l-3.9-9.3
		l10-1.4l-2.6,5.2l6.9-3.9c2.9,0.8,5.6,2.2,8.7,2.3c1.8-1.6,3.8-3,5.7-4.3c22-2.1,44-2.3,65.8-4.9l2.3-4.9l3.4,6l2.9-8.2l3.2,7.6
		l1.9-7.5l2.3-0.5l-0.8,5.7l8.3-0.1l4.3-2.1c1.2-8.8,8-1.9,10.8,1.8l3.4-3.5c5.2,1.8,10.6,1.9,15.9,2.3c-2.3-3.4-4.7-6.6-6.9-10.1
		c3.6,1.4,7.3,3.1,10.8,4.9l-1.3,4.3c13.2,0.3,26.3-3.2,39.5-2.6l0.3-4.7l3.6,4l13.9-0.5l-3-6.1l9.5,5.2c-0.9,3.4,0,4.5,2.6,3.4
		c1.8-3.5,3.9-2.6,6.3-0.3l-0.9-3.5l12.4-1l3.9,3.8l-2.5,2.9c2.6-1.4,3.4-4.3,4.4-6.9L794,791l-5.1,10.8l7.4-11.7
		c12.8,0.4,25.4-1.9,38.1-2.6c20.1-1.2,40-3,60.1-3.9c0,4.8,0,10-3.8,13.7l-3.9-6.2l4.4-5.2l-6.3,3.4c-4.1,3.1-7.7,6.6-11,10.5
		c0.5,4.8,0.6,9.6,0.8,14.3l-4.9,1c6.5-6-0.1-14.1-0.9-21c-4.5,3-3.1,7.3-1.3,11.3c-4.3,0.1-8.5-0.9-12.3-3c-0.6,2.1-1,4.3-1.3,6.5
		c-1.2-3.5-2.2-7.1-3.1-10.8l-6,7l-5.2-8.3l2.6,5.1l-7.5,4.3l0.4-8.3l-9.3,10.9l-5.7-2.3l5.2,11.7c-19,0.8-38.2,3.1-57.4,2.7
		l-4.8-4.4l-0.1,7.5c-3.3-3.6-6.3-7.4-9.1-11.4c1.8,0.9,5.2,3,6.9,4l3-2.5l-3.1-1c0.9-4.5-2.3-6.7-6-8.6l-0.3,7.4l-4.9-5.8l2.6-5.6
		c-5.1,0.5-7,3.9-7.3,8.4l-1.6-7.1l-4.1,3.9c-5.2-5.7-12.3-1.3-18.4-0.3c-3.2-1.2-5.7-3.8-8.6-5.6c-3.1,5.1-8.2,8.2-12.8,11.7
		c-3.2,0-6.6-0.3-9.7-1.6l-1.8,7.8l-5.8-5.3l3.2-3.6c-4.3,2.1-8.6,4.4-13,6.7l9.1,9.5c-6.7,3-8.6-6.9-10.6-11.1
		c-3.9,1.3-7.8,2.9-11.7,4.4l-7.8,6.3l5.7-13.5l-1.4,1c-2.6,3-5.4,5.8-8.6,8.4l0.6,4.8l-7.1,1l3.4-7.1l-10.2,6.9l6.3,4.9l-11.4,0.5
		l-3.1,7.8l0.8-8.2c-3.2,2.1-5.7,5.2-8,8.2l-4.4-2.5l-4.7,4l-3.6-3.4l-4.3,2.1l-15.9-4.4l-3.6,1.2c-8.8-1.8-17.7,0-26.7,0.5
		c-20.3,1.8-40.8,1.9-60.9,5.2c-8.4,2-17.1,2.2-25.5,0.5l1.3,6.5l-5.3-6.5l-4.3,7l0.1,2.3h-2.2l-0.3-3.5c-3.4-1.9-6.2-4.7-8-8.2
		c-17.7,13.2-40.8,7.8-61,6.6l-8.3,3.2c2.5-3.5,4.8-7.1,4.4-11.7c4,1.8,8.3,3.5,11.7,6.5h0.8l-1.3-8l-2.6-3.1l-11.7,6l-5.7-4.9
		c-2.2,1.9-4.5,4-7.8,4l-3.1,5.4l-5.8-2.2l7.4,7.4l-6.2,1.4c-3.5-4.3-7.9-0.9-11.8,0.9l3.4-6.9l-2.5-0.6c-1.3,2.6-1.9,5.4-4.4,7.3
		c-11.9,1.7-24,1.3-36,1.9c2.7-2.2,7.4-3.4,7.6-7.5c-1.3-4.4-4.3-7.9-7-11.4l-10.6,6.5l-0.3-10.4c-5.7,0.3-10.2,5-10.4,10.8
		l-3.9-2.2l-6.1,11.9c4.3-0.3,6.5-3.9,9.3-6.7l6,10.4c-8.3,2.1-17,2.6-25.5,2.1l0.4,6.5l-4.3-6.6l-5.3,8.8l1.7-7.5
		c-3.2-0.5-6.5-0.5-9.6-0.3l2.2,7.6c-4.5-0.5-8.4-2.6-10.1-7c-4.1-0.9-8.3-1.1-12.4-0.5c2.1-4.1,3.2-8.6,2.7-13
		c-6,1.9-11.9,8.7-18.5,4l6.1-7l-6.6,3.6c-5.6,3.4-12.2,5.2-16.5,10.2l-5.1-1.3l0.3,3.9l10.5-1.2l1.3,4.4
		c-25.7,0.9-51.2,3.6-76.7,5.1v-7.8l-4.9,5.6l-12.7-5.2v6c-4.3,0.3-8.4-0.6-11-4.3c4.5-3,9.2-5.7,12.6-10c-4.8,2.3-9.3,5.4-14.8,6.3
		c2.9-3.2,6-6.1,9.1-8.9l-4-0.3l-0.8-8l6.5-4.4c-4.7,0.4-9.1-0.4-12.4-3.9v-7.4l-5.7,0.4l-2.5-7.6c2.6,2.1,4.9,4.3,7.3,6.5
		c-1.3-10.8-0.4-21.5-1.2-32.1c2.6-1.6,6.9-3.2,3-6.2l-3.2-6.7l4.8-2.9l-4.4-1.3c-2.2-12-2.6-24.1-3.9-36 M880.5,787.5
		C881.8,788.7,881.8,788.7,880.5,787.5 M780.8,795.7C781.4,803,787.1,792.1,780.8,795.7 M698.5,805.4l3.8,0.5
		C706.2,800.8,697,799.5,698.5,805.4 M824.3,803.1C825.6,804.4,825.6,804.4,824.3,803.1 M765.2,804.9c-1.2,0.8-3.1,2.6-4.1,3.4
		l3.5,5.7l5.4-3.5L765.2,804.9 M640.6,813.6C641.9,814.6,641.9,814.6,640.6,813.6 M106.2,827.1c-3,3.4,3.2,6.2,5.2,3.1
		C114.3,826.8,108.3,823.9,106.2,827.1 M119.4,858.9c1.9-1,3.9-1.7,6-2.6c-2.3-2.8-3.7-6.2-3.9-9.8
		C120,850.4,116.1,854.6,119.4,858.9 M177.4,846.2l-6.2,6.2c3.1,0.5,7.1,3.4,9.3-0.4L177.4,846.2 M265.1,845.7
		c-1.3,3.6-0.1,4.8,3.4,3.6C269.7,845.8,268.7,844.5,265.1,845.7 M132.9,857.1C134.1,858.4,134.1,858.4,132.9,857.1z"/>
	<path class="st3" d="M815,737.4C816.3,738.4,816.3,738.4,815,737.4z M1545.9,737.1c2.6-1.8,4-1.3,4.3,1.8c-2.6,1.9-4.1,1.3-4.3-1.7
		V737.1z M1460.2,743.1c17.3-0.5,34.7-1.5,51.9-3l6.5,8.8l-1.3,8.8c-1.9,0-5.7-0.4-7.6-0.5c4.8,3.6,9.1,7.8,13.2,12.3l-5.2,2.1
		l-3.6-8.4l-5.4,4c-2.2,3.4-8,13.5-8.7,1.9c-1.8,2.2-3.4,4.5-5.1,6.9l2.7-9.2l5.1,2.6l3.5-7.3l-7.1,2.9l-0.5-6.5l-6-2.5l-2.1,5.4
		l6.5,0.9l-2.6,4.5c-3.6-1-7.2-2-10.8-2.9c-0.5-4.1-1-8.3-1.3-12.4l-2.2,9.2c-4.3,2.6-8.7,5.7-13.9,5.4l7,4.9
		c3.2-1.8,5.7-4.3,5.4-8.4l8.2,8.2l-9.8,3.1c-2-1.1-4.1-2.3-6.1-3.4l-6.7,3.1l-3.9-1.7l-1.8,5.4l-11.4-1l2.2-7.3
		c-1.4,0.6-4.3,1.8-5.6,2.6c-1.3-4.8-1-11.7-7.8-10l6.5,6.5c-2.9,2.2-6,2.1-9.1,0.4c-2.2,0.8-4.4,1.4-6.7,1.8
		c-2.6,1.8-4.9,3.9-7.3,5.8l-7.1-6.6l1.7,6.5c-17.6,2.6-35.4,2.1-52.9,4.4l-3.9-1.8l-3.8,2.2l-9.3-0.1l-0.4-9.5l-6.9-0.6
		c2.2-4,6.2-3.6,10.2-2.6c4.4-4.1,7-9.7,10-14.8l-7.5,2.7l-0.5-4.9h8.8c3.6,3,7.5,6.3,11.3,1.3l-5.1-1.3c11.9-1.3,23.8-2.6,35.8-3.2
		l2.6,6.7l4-6.5l3.5,1c7.5-2.6,15.4-2.9,23.1-3.8c-5.6,4.7,0.8,11,4.9,6.5c-0.5-2.4-1-4.7-1.7-7
		C1444.2,744.9,1452.2,744.3,1460.2,743.1 M1488.5,747.6C1488.8,754.9,1495,744.1,1488.5,747.6 M1503.4,755.9
		c3.1,1.7,7.1-2.9,5.8-5.8C1506.4,748.8,1501.7,753,1503.4,755.9 M1378.8,759.6l8.8,2.9c-0.6-2.7-1.2-5.6-2.6-8
		C1381.8,754.1,1380.6,757.5,1378.8,759.6 M1406.4,756.3c-1.4,3.4,3.5,7.8,6.6,6C1414.3,759,1409.4,754.5,1406.4,756.3
		 M1427.6,763.6C1428.8,764.9,1428.8,764.9,1427.6,763.6 M1355.3,765C1355.3,772.4,1361.8,761.9,1355.3,765z M1528.2,745.1l0.9-5.2
		l8.2,2.6l-7,2.9c0.3,2.6,0.9,5.1,0,7.5c-1.9,0.1-3.9,0-5.7-0.5C1524.5,749.3,1525.7,746.9,1528.2,745.1L1528.2,745.1z
		 M1550.2,742.3l4.5,3.9c-4.7,0.6-8.8,3-13,5.2l-3-3.9C1542.8,746.3,1546.6,744.5,1550.2,742.3L1550.2,742.3z M1681.9,757.5
		c9.2-4.5,18.4-9.1,27.7-13.3c-2.6,4.7-5.6,9.6-10.2,12.6C1693.7,758,1687.8,757.5,1681.9,757.5L1681.9,757.5z M349,747.5
		c3-1,4.1,0,3.4,3.2C349.4,751.7,348.2,750.6,349,747.5z M343.8,751.4c2.7,3.9,5.2,8.2,6.5,12.7c-2.9-0.9-9.5,1.9-8-3.8l3.9-1
		l0.3-1.3c-1.4-0.1-2.8-0.2-4.1-0.4L343.8,751.4z M352.8,754.9C360.1,755.2,349.4,761.4,352.8,754.9z M1299.4,755.3l9.5-0.3
		l-6.7,5.3c-1-1.7-1.8-3.4-2.6-4.9L1299.4,755.3z M1320.6,761.8c6.5-2.2,13.2-3.9,19.8-5.7l-0.5,9.2l-0.4-4.9
		c-6.2,0.6-13,4.8-18.9,1.3V761.8z M1532.3,757.5c3.6-1.3,4.8,0,3.6,3.4C1532.3,762.2,1531.1,760.9,1532.3,757.5z M1265.7,759.3
		l3.2-2.2l9.6,2.9l-1,3l6-0.6l3,7.8c3.2-3,6.7-5.4,10.1-8.2l3.6,3h-6l4.8,6.5l6.5-1.8c0.5,6.1-4.1,6.5-9.1,6l-5.1-6.7l-3.8,5.8
		l-5.4-3.1l-0.4,9.3c3.8-1.9,7.4-4.1,10.9-6.6l1.9,3l17.2,4.8c-4.3,1-8.7,1.8-13,2.6l-0.9-3.9l-13.5,2.6l-0.9,3.6l-5.6-5.7l-7.1-2.9
		l8.2-2.1c-3-2.6-9.1-3.8-8.2-9.1l5.2,4.3l1.3-4c-6-0.5-12.7-2.7-17.9,1.3l0.3,2.6c2.9,1.3,6.1,1.6,9.5,0.6
		c-2.8,1.3-5.6,2.6-8.4,3.9c-2.9-2.6-5.4-5.3-8-8c-3.2,3.8-6.6,7.5-9.5,11.7l-6-4l4.3,4.4c-2.7,2.5-5.4,5.2-1.3,7.5
		c4.8-2.3,10-3.6,15.4-3.4l-0.4-2.1h-9.6c1.6-3,3.2-5.8,5.1-8.6c2.3,1.4,4.8,3,7.1,4.8c0.4,3.4-1.3,6.6-2.2,10
		c-9.3-0.1-18.7,0.4-28,1.7c2.3-2.9,5.7-4,9.1-5.2l-1-2.7l-9.8,5.3c-5.1,1.2-10.1,2.3-15.2,3.2c-1.4-4.8-2.9-10.4-7.5-13l-2.3-5.7
		c-7.3-0.3-12.3,5.2-15.7,10.9l6.3,5.8c-6.1-3-12.8-2.6-19.3-1.9l-1.7-6.5c-1.3,2.2-2.3,4.4-3.5,6.7l-6.9-6.1l-1.3,5.4h6.2l-1,5.6
		l-14.1,0.4l-3.8-8.2c-4.8,2.7-10.2,2.6-15.5,1.3l-8.2,4.4l0.9,4.9l-4.3,0.3c-1.3-6.1-2.6-12.2-2.9-18.4l6.9,5.2l-1-7
		c4.1,1,8.4,1.9,12.7,2.7l-2.9,7.1l10-2.6l-3.1-6.2l5.2,1.7l6.1-2.6l-1-4.1l7,6c0-2.9-0.6-5.7-0.1-8.4c1.9-2.2,5.1-2.9,7.5-4.1
		l3.2,10.4l-0.9-7.9c7.4-2.7,14.4,2.6,17.4,9.1l3.9-5.4l3.1,0.6l6.5-2.6l0.3-3.5l3.2,4.9l3.6-2.6l-2.3-5.3c3.2,0.1,6.6,0.5,9.7,2.1
		l2.7-3c7.8-0.8,15.8-0.8,23.7-1.6c3.6-0.8,6.6,1.3,9.6,2.9l3-2.9c0.8,3.5,3.5,5.7,6.2,7.6v-6.7L1265.7,759.3 M1206.5,765.4
		c1.3,3.9,3.4,7.4,7.3,8.9C1212.8,770.4,1209.5,767.9,1206.5,765.4 M1242.4,766c-1,3.5,0.3,4.7,3.9,3.5
		C1247,765.9,1245.7,764.7,1242.4,766 M1181,778.7C1177.2,785,1188.2,779.4,1181,778.7 M1227.1,778.2
		C1227.9,785.5,1233.2,774.3,1227.1,778.2z M1313.8,759.2C1321.1,759.3,1310.5,765.6,1313.8,759.2z"/>
	<path class="st3" d="M1345.1,758.7C1351.8,755.8,1344.7,766,1345.1,758.7z M1518.6,758.7c3.5-1.2,4.7,0,3.6,3.6
		C1518.6,763.3,1517.4,762.2,1518.6,758.7z M847.6,763.7C854.9,763.4,844.7,770.3,847.6,763.7z M1427.6,763.6
		C1428.8,764.9,1428.8,764.9,1427.6,763.6z M1551,775.6c4.5-5.2,10.4-8.8,16.6-11.7c1.6,2.6,3.5,5.2,7,5.4l-4.9,9.3l-4.1-2.2
		C1560.6,778,1555.8,776.5,1551,775.6z M575.8,766.8c3.6-1.2,4.8,0,3.6,3.6C575.8,771.5,574.7,770.3,575.8,766.8z M1095.2,770.2
		c5.6-0.9,11.3-1.6,16.8-1.9l-1.8,8.9l4.3,3.1c0.9,3.9,1.8,8-0.6,11.7l4.3,1.2l-5.4,3.9c-3.5-0.3-8.4,2.6-10.8-1
		c-2.6-5.7-3.9-12-5.4-18.1c0.4,6.7,1.8,13.3,2.7,20c-3.6,2.1-6.6,0-9.5-2.1l3-4.5c-3,1.8-3.4,4.9-3.4,8c-8-0.5-16.1,2.1-24.1,1.7
		l-1.4-5.8l0.3,6.3l-7.8-0.6l-3.6-7.1l-1.6,8c-3.9,0.4-7.9,1.3-11.9,0.6c-2.3-1.9-4.4-4.1-6.5-6.3l4.7,7c-6.9,0.5-13.7,0.9-20.6,0.9
		c-1.4-2.6-2.9-5.2-4.5-7.8c-6.2-1.2-8,5.7-8.3,10.4c-7.9-5.2-3.8-20.7-15.9-21.4l-1.2,4.9c6.7-1.8,2.6,2.7,1.9,5.1
		c-2.6-1.9-4.8-7-8.2-3.4c-3.8,4.1,3.5,6,5.6,8.9c-2.1,1.1-4.5,1.4-6.9,0.9l-3.2,5.4c-1.2-4.3-1.6-8.8-3.5-12.8
		c-4.8-2.1-0.3,5.4-0.3,7.5l-3.6,2.2c0-5.6-0.6-11.1-1.6-16.8l-1.9,0.9l-7.3-8.8l12.2-0.6l-6.5,3.5c3.2,1.9,4.9,5.2,6.5,8.6
		c3.1,1.7,6.5-0.6,9.6-1.6c2.6-5.3,8.7-3.2,12.7-6.6l-8.4-3.1l-3,4.3l-7.8-5.7h14c7.8-1.6,15.5-1.3,23.3-2.2
		c7.1-0.5,14.3-1.8,21.2-0.3l2.2,4.9l-0.5-7.1c17.4,1.2,34.7-4.8,51.8-0.4l7.6-2.6l-2.6,8.9l4.8-4.4l4.5,1.3L1095.2,770.2
		 M1054.9,785.2C1056,786.5,1056,786.5,1054.9,785.2 M1049.7,789.6c-0.9,2.9,0,3.9,3.2,2.9c1-3,0-3.9-3.1-2.9H1049.7z M1510.5,769.3
		c3.5-1,4.7,0.1,3.4,3.6C1510.3,773.9,1509.1,772.8,1510.5,769.3z M1526.4,770.1c2.9-1.6,8.4,1.6,7.8,4.9
		C1531.3,775.8,1525.6,773.6,1526.4,770.1z M1576.5,769.4c2.6-1.7,5.2,3.1,3,4.9C1576.9,775.9,1574.4,771.2,1576.5,769.4z
		 M1191.3,783.5c1.3-2.2,2.2-4.9,4.5-6.3c3.6,1.6,7,3.6,10.4,5.4C1203,788.6,1196.3,783.7,1191.3,783.5L1191.3,783.5z M936.5,778.9
		c3,2.1,4.4,7.6,8.4,7.6v-8.3c5.2,1.2,3.9,6.2,4.1,10.1l-8.6,1.3C939.1,786.1,937.7,782.5,936.5,778.9L936.5,778.9z M1259.5,783.5
		c3.5-1,4.8,0,3.8,3.6c-3.6,1-4.9,0-3.9-3.6H1259.5z"/>
	<path class="st3" d="M955.6,784.8c2.2,3.1,4.7,6.1,4.7,10.1c1.8,3.9,2.1,7.8,1.8,12c-3.4,0.6-6.7,1.3-10,2.2l-1.9,0.9l-3-2.3
		l-6.1,2.6l-3.8-3.4l-2.1,2.5c-2.3-3.7-6.7-5.6-11-4.8l5.4,5.4l-9.1,0.4l-0.5-10.4l6.1,2.1l-3.9-7.8c5.2,3.9,9.7,1.3,13.6-2.6
		l-2.6,7.4l-6-0.3l-0.8,4.4c3-0.6,5.7,0,8,1.7c5.1-4.7,10.6,1.3,15.3,3.2l-1.6-3.4c1.3,0.5,2.9,0.6,4.3,0.4l1.6-0.3l6.2,0.6
		l-4.1-10.9l-6.2,3.6l-1.7-6.5l4.7,1.4L955.6,784.8L955.6,784.8z M1054.9,785.1C1056,786.4,1056,786.4,1054.9,785.1z M1168.8,785.9
		C1169.3,786.4,1169.3,786.4,1168.8,785.9z M880.5,787.5C881.8,788.7,881.8,788.7,880.5,787.5z M919.8,791.6
		C927.1,791.9,916.3,798,919.8,791.6z M656.2,793.6C662.6,790.3,656.6,800.9,656.2,793.6z M643.1,795.4
		C649.6,791.8,643.9,802.8,643.1,795.4z M882.2,797l13.5,0.6l-5.4,4.5l-1.7,8.4l6.9-3.1l1.4,5.8c-5.6,0.8-9.3-3.9-13.5-6.6l-0.6-3.4
		l4.5,0.3l-4.9-6.5L882.2,797z M1010,805c-3.2-1.8-3.1-3.6,0-5.6C1013.2,801.3,1013.1,803.1,1010,805z M824.3,803.2
		C825.6,804.3,825.6,804.3,824.3,803.2z M150.5,804.8C157.8,805.3,147,811.3,150.5,804.8z M911.8,805.9l4.8-1.9l3.9,5.6l-6.5,3
		l-2.2-6.5L911.8,805.9z M832.4,806.7C833.7,808,833.7,808,832.4,806.7z M440.7,808.5c3-0.9,4.1,0.1,3.4,3.2
		C441,812.7,440,811.5,440.7,808.5z M494,811.9c4,0.1,10-4.1,12.4,0.8l-0.3,6.6l-9.7-2.9L494,811.9z M827.8,811.6
		C835.1,812,824.3,818.1,827.8,811.6z M835.6,813.6c1.4-2.9,3-2.6,4.7,0.1c-1.4,2.7-3,2.6-4.7-0.3V813.6z M350,815.5
		c0.9-3,5.8-0.9,5.6,1.7C354.8,820.4,349.9,818.2,350,815.5z M640.6,813.6C641.9,814.6,641.9,814.6,640.6,813.6z M843.5,813.1
		C850,809.6,844,820.3,843.5,813.1z M326.9,816c2.6,1.6,2.6,3.1-0.3,4.7C324,819.2,324,817.5,326.9,816z M289.3,818.4
		C296.5,818.4,286.2,825,289.3,818.4z M300.6,817.7C307.7,818.4,296.8,824.2,300.6,817.7z M697.2,818.2c3.5-1,4.8,0.3,3.9,3.9
		C697.5,823,696.2,821.7,697.2,818.2z M682.1,822.3C683.1,823.6,683.1,823.6,682.1,822.3z M186.7,826.9
		C193.9,827.2,183.4,833.4,186.7,826.9z M634.4,835.3C635.2,836.8,635.2,836.8,634.4,835.3z M370.1,843.1c2.3-1.9,7.5,0.8,6.1,3.9
		C373.9,848.7,368.7,846.2,370.1,843.1z M292.3,846.9c4.5-1,7.4,2.9,10.5,5.2l-6.9,3.1L292.3,846.9L292.3,846.9z M307.4,846.4
		C313.9,843.1,307.4,853.6,307.4,846.4z M445.3,846.6c1.7-3.1,7.1-0.8,5.2,2.6l-4.4-0.5L445.3,846.6z M132.9,857.1
		C134.1,858.4,134.1,858.4,132.9,857.1z M274.5,861.6C275.8,862.7,275.8,862.7,274.5,861.6z"/>
</g>
</svg>
