<svg xmlns="http://www.w3.org/2000/svg" width="1267.84537" height="311.84536" viewBox="0 0 950.88403 233.88402"><defs><filter id="a" width="1.01482" height="1.06311" x="-.00741" y="-.03155" color-interpolation-filters="sRGB"><feGaussianBlur stdDeviation="2.8925"/></filter></defs><g fill="#fff" stroke="#000" stroke-width="7.5" filter="url(#a)" transform="translate(6.942 6.942)"><path d="M364.66 0h14.04v2.89c-1.34-1.12-2.82-2.07-4.35-2.88-.2 3.42-.19 6.84-.14 10.26 29.46.11 58.91.07 88.37.02.01-3.2.05-6.41-.09-9.61-.37-.17-1.09-.51-1.46-.68h5.84c-.23 1.5-.43 3.01-.6 4.52 1.87.02 3.76.04 5.64.05-.11-1.52-.22-3.05-.32-4.57h4.91c-.35 3.41-.31 6.85-.24 10.27 30.31.1 60.63.1 90.94 0-.16-3.42-.33-6.85-.56-10.27h11.9c-.03.84-.07 2.52-.09 3.36-.79-.92-1.57-1.84-2.34-2.77-1.77-.03-3.53-.06-5.28-.09-.01 1.14-.03 3.42-.05 4.56 1.58-.74 3.17-1.49 4.73-2.29-.03 1.72-.06 3.43-.09 5.15-1.38-.95-2.7-2.01-3.97-3.1l-.03 5.73c3.21.03 6.12-1.22 8.4-3.47-.28 1.75-.55 3.5-.8 5.25-73.42-.02-146.84.04-220.27-.03 0-.5-.02-1.49-.02-1.99 3.67.02 7.35.01 11.02-.03.17-3.42.36-6.84.4-10.27-2.08.56-3.88 1.71-5.55 3.02.02-.76.05-2.27.06-3.03m101.9 5.62c-.05.98-.15 2.95-.21 3.93 1.77.46 3.59.59 5.42.43 0-1.45 0-2.9.01-4.34-1.74-.01-3.49-.01-5.22-.02zM207.55 25.21c-.09-.87-.18-1.73-.26-2.6 6.34.14 12.68.05 19.02.07.05 1.97.11 3.93.16 5.89 2.89.05 5.77.07 8.66.07 8.94 13.62 17.53 27.47 26.49 41.07 1.26.46 1.51-1.27 2.19-1.96 7.9-13.07 15.81-26.15 23.91-39.1 2.68 0 5.36-.02 8.04-.04.02 2.31.03 4.62.07 6.93 22.47.08 44.94.11 67.42.19.27-.51.8-1.54 1.07-2.05 2.76.03 5.53.03 8.31 0 5.24 8.24 10.09 16.72 15.25 25.01-1.94.09-3.89.17-5.83.25 3.36 6.55 7.56 12.63 11.28 18.98 1.72 3.07 5.16 4.85 8.66 4.69 15.79-.11 31.58.07 47.36-.12.33-16.69.04-33.39.15-50.08-6.75.23-13.8-.87-20.27 1.54-4.15 1.49-5.46 6.1-6.89 9.8-1.01.04-2 .07-2.99.11.19-5.19.33-10.38.35-15.57 10.89-.31 21.79-.07 32.69-.12.09-.64.27-1.92.36-2.57 12.61-.11 25.23-.04 37.85-.21.32 4.83.65 9.67.76 14.52-.7-.05-2.09-.16-2.78-.22-1.43-3.59-2.95-8.07-7.09-9.25-5.83-1.3-11.87-1.24-17.8-.9.05 10.63.01 21.26.03 31.89 18.68.21 37.36-.22 56.04.07 1.17-10.64.22-21.4.55-32.08 11.88.43 24.39-1.48 35.65 3.3-.46 7.66-.11 15.33-.25 23-3.72 1.17-7.51 2.07-11.33 2.78 8.16 7.22 16.33 14.43 24.61 21.51 2.23 2.09 5.25 2.68 8.2 2.99.32.4.97 1.2 1.29 1.6 3.36 0 6.72.01 10.08.08.29-.47.88-1.41 1.18-1.88 2.87-.32 6.19.35 8.67-1.51 1.96-1.43 1.73-4.16 1.89-6.3-.09-12.34-.06-24.68-.16-37.02-.07-1.78-.49-3.51-.84-5.24-3.1-1.32-6.51-1.21-9.72-1.96-.31-.36-.92-1.09-1.22-1.46 8.85-.7 17.83.71 26.6-.96 3.63-.48 7.31-.46 10.98-.49 19.82.02 39.65.01 59.48-.12.05.95.11 1.9.18 2.85-3.18.02-6.33.44-9.41 1.19.63 5.62 5.75 8.92 9.07 12.97 2.21 2.01 3.84 5.16 6.76 6.05 2.32-1.51 4.34-3.44 6.41-5.28 4.15-3.86 8.83-7.19 12.35-11.68-1.75-3.18-5.47-3.15-8.61-3.26-.03-.42-.07-1.28-.09-1.7 9.7-.05 19.43-.18 29.13.27.1.33.31 1.01.41 1.34-5.27.55-10.69 1.76-14.83 5.28-6.41 5.42-12.61 11.12-18.87 16.71-2.16-.01-4.31-.01-6.45 0-.83.84-1.65 1.69-2.47 2.54 8.75 8.91 17.42 17.91 26.03 26.95 3.71 4.16 8.99 6.76 14.59 6.97.09.45.28 1.36.38 1.81-13.37.51-26.76.71-40.14.36l-.64-1.84c3.64-.83 7.67-.15 10.87-2.47-2.1-5.41-6.63-9.22-10.45-13.39-3.21-3.47-6.33-7.02-9.64-10.4-6.3 5.34-12.2 11.13-18.45 16.53-1.94 2.03-5.06 4.03-4.36 7.29 2.58 2.45 6.38 1.78 9.63 2.06-.01.59-.02 1.77-.02 2.37-10.47.02-20.93.04-31.4.13l-.24-1.87c4.68-.72 9.26-2.44 12.83-5.65 9.43-8.2 18.65-16.64 28.06-24.87-2.16-2.27-4.37-4.51-6.04-7.17 2.36-.08 4.73-.14 7.1-.17-5.95-6.23-11.5-12.97-18.55-18.02-1.88-1.48-4.23-1.98-6.51-2.45-2.69-.54-5.11-2.25-7.95-1.94-6.44.19-12.9-.1-19.33.29-3.14 2.57-7.59 1.38-11.09 3.2-.85 2.33-1.34 4.77-1.19 7.26.19 12.66-.19 25.33.17 37.97.33 5.06 6.24 4.56 9.9 4.94 2.11-.12.83 2.95 1.37 4.23-20.62-.03-41.24.14-61.86-.09-10.73-8.57-20.45-18.33-30.64-27.53-2.05.01-4.11.03-6.16.05.25 6.83-.54 13.75.42 20.53 2.41 3.66 7.45 1.84 10.82 3.91-5.2 1.67-10.74.44-16.09.85.02-7.15-.14-14.3-.02-21.44-18.87-.22-37.76-.13-56.64.12.08 4.33-.83 8.95.96 13.04 2.38 2.93 6.67 2.39 10.04 2.93l-.22 1.77c-6.16-.01-12.32.05-18.48.11-.21 2.65-.31 5.31-.38 7.96-6.08-.07-12.16.08-18.23.07-.01-.49-.03-1.45-.05-1.93 3.78-.37 7.85-.33 11.01-2.79-25.32-.33-50.66-.12-75.99-.24l-.04-1.83c2.98.06 6.21.06 8.28-2.46-1.74-4.91-4.72-9.19-7.3-13.67-9.77-.02-19.55-.14-29.31.03-1.31-.14-1.62 1.4-2.24 2.21-1.91 3.44-3.73 6.94-5.49 10.46 1.67 3.12 5.16 3.46 8.34 3.48l-.05 1.78c-7.68-.03-15.35.01-23.02-.12l-.12-1.52c4.59-.08 7.97-3.47 10.16-7.18 7.59-12.76 15.2-25.51 22.74-38.3-19.39-.18-38.78.09-58.17-.14.27 7.27-.55 14.54-.33 21.81.43 8.41-.25 16.82-.08 25.23-5.81.07-11.62.05-17.43.05l.04-1.74c3.32-.41 7.92.02 9.71-3.53.75-2.25.48-4.68.56-7.01-.13-11.61.17-23.22-.08-34.82-8.09 13.03-16.3 25.99-24.36 39.05-1.95 2.97-3.47 6.31-6.26 8.64-10.14-15.15-19.65-30.7-29.5-46.03-.09 9.47.02 18.95-.07 28.42-.48.3-1.43.89-1.91 1.18-.06 8.01-.04 16.02-.06 24.03-6.35.05-12.7-.06-19.05-.07l-.13-1.97c2.91-.44 5.94-.51 8.76-1.44 2.74-1.16 3.83-4.2 3.79-6.99.19-16.83-.15-33.67-.04-50.51-2.64-1.01-6.74.25-8.19-2.71 2.3-.13 4.61-.18 6.92-.3-2.38-3.74-7.13-3.11-10.94-3.28m317.86 8.38c-.16 7.55-.33 15.11.05 22.65 5.9-.73 11.98-.33 17.7-2.15 3.22-.99 6.49-2.81 7.99-5.97 1.38-4.1.79-9.61-3.38-11.88-6.66-3.88-14.96-4.15-22.36-2.65m-167.25 7.05c-3.97 7.4-8.81 14.33-12.38 21.94 8.53.07 17.05.03 25.58.03-4.38-7.34-8.27-14.99-13.2-21.97zM0 112.34c9.82.03 19.64-.08 29.46.08 0 1.65 0 3.3.01 4.94 9.83.06 19.69-.29 29.5.52 10.5 1.02 21.83 2.85 29.87 10.3 4.94 4.17 7.04 10.62 7.92 16.81-.17 8.43-7.18 14.88-14.23 18.45-13.62 6.68-29.26 5.73-44.01 6.04-.14 1.16-.32 2.32-.54 3.47-1.38.87-4.16.71-3.57 3.04-.07 11.24.02 22.48-.01 33.72 15.55 0 31.09 0 46.64.01 5.64.04 11.3-2.42 14.92-6.78 3.23-3.83 5.84-8.13 8.39-12.43 10.82-18.28 21.66-36.54 32.43-54.84 1.84-2.28.01-4.87-.79-7.15 4.22 0 8.45-.01 12.68 0 .65 1 1.31 2 1.97 3 1.93-.02 3.86-.03 5.79-.03 9.63 16.7 19.32 33.39 29 50.07-1.88.02-3.75.05-5.63.08 2.68 4.33 4.5 9.44 8.09 13.07 18.2.45 36.44.09 54.66.16-.04-24.04.04-48.07-.04-72.11-7.15-.04-14.41-.25-21.4 1.48-5.22 1.3-9.49 5.07-12.46 9.44-1.94 2.83-2.58 6.3-4.27 9.26-.73.18-2.2.56-2.94.75-.18-8.77-.02-17.54-.09-26.31 19.04-.06 38.08.01 57.12-.05.18.61.52 1.82.69 2.43 12.62.18 25.24.02 37.87-.04 1.47.18 3.25-.3 4.55.58.48 8.52.25 17.08.12 25.62-1.06-.05-2.11-.1-3.15-.14-1.33-3.33-2.59-6.72-4.48-9.78-3.1-5.1-8.63-8.36-14.35-9.69-6.35-1.1-12.84-.62-19.26-.74 0 25.14-.03 50.28.01 75.42.21 3.01-.05 6.8 2.64 8.83 4.39 3.28 10.15 2.73 15.32 2.89-.02.67-.06 2.02-.07 2.69-10.6.06-21.19 0-31.79.04-.05-.7-.16-2.1-.22-2.8-7.24.01-14.48.01-21.73-.03-.03-.64-.09-1.9-.13-2.53 5-.53 10.61.34 14.99-2.63 3.11-2.22 2.85-6.38 3.18-9.75-17.85 0-35.69-.09-53.54.05 2.3 3.35 4.43 6.98 7.72 9.48 2.57 1.93 5.89 2.2 8.95 2.76.04.65.13 1.97.17 2.63-17.08.04-34.16.02-51.23 0 0-.69.01-2.06.01-2.75 4.37-.29 9.2.49 13.16-1.79 2.59-1.37 1.47-4.63.43-6.65-2.81-5.39-5.93-10.62-8.96-15.89-14.73.1-29.47-.08-44.21.11-2.54 5.13-6.34 9.74-7.68 15.4-.77 2.91 1.14 5.9 3.84 6.96 3.92 1.58 8.24 1.48 12.38 1.82.06.92.12 1.86.19 2.79-15.96-.13-31.93.43-47.87-.48-12.33.04-24.66-.04-36.99.03-11.54.78-23.1.38-34.65.44.08-.92.17-1.84.25-2.76 4.87-.28 10.35.36 14.53-2.7 2.54-1.83 2.51-5.28 2.65-8.1.06-16.68-.07-33.36.06-50.04.08-4.4-1.49-8.63-1.28-13.04-.07-3.73.48-7.7-1.04-11.22-1.95-3.66-6.49-3.99-10.12-4.65-.02-.65-.05-1.94-.07-2.59 1.73-.14 3.47-.29 5.2-.45-4.74-1.32-9.66-1.66-14.56-1.64v-3.08m36.86 11.49c-.29 6.03.02 12.07-.1 18.1.38.47 1.15 1.39 1.53 1.86-.09 6.69-.03 13.38-.05 20.08 7.87.74 16.82-.09 22.81-5.82 3.84-3.67 4.76-9.14 5.28-14.18-.36-.41-1.09-1.22-1.45-1.63-.19-5.43-1.9-11.28-6.44-14.65-5.89-4.31-13.58-4.88-20.63-4.81-.24.27-.71.79-.95 1.05m100.68 24.4c-6.45 10.56-12.7 21.26-18.8 32.03 12.46.04 24.92.06 37.37-.02-5.14-9.53-10.7-18.84-15.96-28.31-.83-1.24-1.37-2.8-2.61-3.7zM552.11 115.23c11.95-.27 23.9-.06 35.85-.16 2.22.04 4.48-.16 6.67.36 4.39 3.17 7.87 7.42 11.88 11.04 18.46 17.34 36.6 35.02 55.12 52.3.11-9.93-.05-19.85.1-29.78.03-2.09-.24-4.17-.76-6.18-1.33-4.85-.19-9.95-1.38-14.81-.56-2.58-2.31-4.65-3.24-7.07-.35-1.99-.23-4.02-.26-6.03 9.88.36 19.77.14 29.65.23-.09 1.01-.16 2.01-.23 3.02-4.87.49-10.5.41-14.23 4.09-3.08 3.06-3.14 7.64-3.45 11.69-.1 3.38-.61 7.08 1.4 10.04.35 14.9.05 29.81.16 44.71 14.78.02 29.57.02 44.36 0-.01-3.17 0-6.33 0-9.49-1.86.02-3.71.04-5.55.07-.8-15.1.01-30.24-.42-45.35-.04-2.04-.52-4.22-2.23-5.52-4.21-3.52-10.1-2.97-15.21-3.11.02-.67.06-1.99.08-2.65 7.64.02 15.28-.02 22.93.04.44-.98.89-1.96 1.35-2.93 22.44.09 44.88.08 67.33-.01 2.11.08 4.23.32 6.34.6-.08 1.5-.14 2.99-.19 4.49 12.93.02 25.86-.02 38.79.02 3.29-.03 6.62.24 9.89-.3 2.65-.64 5.05-1.99 7.57-3 6.18-2.66 12.89-3.77 19.55-4.46 18.62-1.69 38.48.98 54.12 11.88 8.77 5.86 16.04 14.39 18.9 24.69v21.14c-3.6 12.81-13.53 22.97-25.06 29.11-11.55 6.03-24.67 8.38-37.59 8.8-.19 1.03-.36 2.06-.53 3.09-19.28 0-39.78-5.87-52.97-20.66-12.07-12.55-15.07-32.8-7.12-48.3 3.52-7.13 9.41-12.71 15.66-17.48-13.73-.06-27.45.01-41.17-.04-.29 6.13.57 12.35-.38 18.42-.77.28-2.29.85-3.05 1.14-1.97-5.75-3.75-12.05-8.62-16.09-5.91-4.81-13.7-6.48-21.14-6.97-8.06-.45-16.14-.18-24.21-.22.01 12.87.01 25.74 0 38.61 6.43-.1 13.48-.49 18.68-4.79 5.11-4.53 6.84-11.47 8.09-17.91.89.03 2.68.11 3.58.15.04 10.37 0 20.74.03 31.11-5.86-.07-12.02 1.01-17.54-1.51-4.08-1.64-8.51-1.68-12.83-1.76.17 11.18-.38 22.38.27 33.54-.11 4.19 4.11 6.58 7.84 6.61 11.22.38 22.84.74 33.55-3.18 9.84-3.29 17.34-11.45 21.04-20.99 1.15.01 2.3.03 3.46.05-1.72 10-3.72 19.94-5.63 29.91-23.05.03-46.11-.08-69.17.06-.94 4.2-5.53 2.26-8.49 2.11.09-8.49.01-16.99.05-25.49-14.79.01-29.58-.01-44.37.01 0 2.88 0 5.77.01 8.66 2.19 2.03 4.35 4.08 6.49 6.16-.02 4.35-.02 8.71-.01 13.06h-4.09c-30.67-28.06-60.89-56.63-91.32-84.96-.16 16.33.01 32.67-.09 49 .07 3.37-.16 6.95 1.44 10.04 1.04 2.22 3.08 3.7 4.86 5.29.04 1.74.07 3.47.11 5.21-11.39-.02-22.79.06-34.18-.03.01-.72.03-2.16.03-2.88 5.08-.31 10.53-.32 15.04-3.02 3.55-2.24 5.09-6.59 5.02-10.65.03-12.53-.01-25.07 0-37.6-17.5-.04-35 .01-52.49-.02-.02 2.36-.04 4.72-.04 7.08-.36.1-1.08.29-1.44.38-1-3.19-1.99-6.96-5.4-8.38-4.22-1.77-8.97-1.9-13.47-1.6-1.47.89-.97 2.76-1.13 4.18-.02 4.57.09 9.15-.03 13.73 3.73.52 7.27-.55 9.89-3.3.89-.1 1.79-.21 2.7-.31 0 2.54.01 5.08.02 7.62-4.06.06-8.11-.39-12.04-1.4-.82 6.3-.8 12.7.22 18.98 2.25.67 4.51 1.3 6.75 2-7.16 2.02-14.37-.91-21.61-.21-.15-.33-.44-1.01-.58-1.35 1.69-.52 3.81-.34 5.15-1.63 1.03-1.8.93-4.01 1.4-5.98-6.31-.15-12.59.52-18.9.49-3.86 5.04-9.44 8.9-15.87 9.62-8.16 1.1-17.43-.67-22.91-7.29-6.68-7.39-7.15-18.76-3.01-27.51-10.83-.01-21.66-.02-32.48 0-.04 15.75.03 31.51-.04 47.27 1.7.15 3.4.3 5.11.46.48 2.96-.1 6.7 2.49 8.83 3.98 3.38 9.58 2.5 14.41 2.69.01.66.04 1.98.06 2.64-16.47.02-32.93-.01-49.39.02.03-.68.1-2.03.14-2.7 4.7-.15 10.13.71 14.02-2.57 2.48-1.89 2.33-5.27 2.43-8.07-.01-10.06-.02-20.12-.02-30.18-14.01.06-28.05-.4-42.06.25.12 9.99-.02 19.98.05 29.97.13 2.9.29 6.43 2.91 8.27 4.03 3.02 9.35 2.21 14.06 2.35.01.67.05 2 .06 2.67-7.39-.02-14.78.01-22.17-.01-.27.65-.81 1.96-1.08 2.61h-28.98c-.02-.64-.05-1.91-.07-2.55 5.15-.25 11.77.76 15.33-3.87 2.05-3.81 1.33-8.41 1.55-12.59-.04-18.34-.02-36.68 0-55.01-.15-3.32.05-6.82-1.27-9.92-3.74-4.46-10.17-3.8-15.38-3.88-.1-.89-.2-1.77-.29-2.65 6.34 0 12.68-.03 19.03-.02.08-.7.26-2.09.34-2.78 10.97.02 21.95.02 32.92.01.03.66.08 1.98.11 2.64-4.21.16-8.7-.41-12.6 1.5-1.98.95-4.04 2.71-3.76 5.14.3 10.35.33 20.71.16 31.06-.3-10.45.54-20.94-.61-31.36-.56 10.64-.13 21.3-.28 31.95 14.01.12 28.02.03 42.03.05-.02-9.58.05-19.17 0-28.76-.14-2.27.02-5.04-2.02-6.57-3.98-3.41-9.58-2.94-14.47-2.98 0-.66-.01-1.99-.01-2.66 16.43-.02 32.85.01 49.28-.01.01.65.04 1.97.05 2.62-5.17.18-11.59-.66-15.32 3.77-2.12 3.56-1.33 7.99-1.63 11.95-1.72.03-3.42.07-5.12.11l.03 7.38c10.55.03 21.09.02 31.64.04 3.17.44 5.11-2.41 7.41-4.03 5.63-4.72 13.5-4.98 20.45-4.04 9.91 1.42 18.1 10.41 18.5 20.44.51 4.63-.84 9.14-2.2 13.5 5.68-.41 11.33-1.29 17.05-1.07.01-8.14-.02-16.28.04-24.42-.16-2.04.18-4.38-1.05-6.14-1.91-1.19-4.12-1.69-6.23-2.38 8.04-1.43 15.92 1.33 23.96.85 4.16-.08 8.32-.01 12.49-.02.33.51.99 1.52 1.32 2.02 17.26-.02 34.52-.05 51.78.03.2-6.66.11-13.31.09-19.96-2.97-2.78-5.84-5.83-9.57-7.59-3.09-1.46-6.62-1.16-9.86-2.03-.28-.64-.84-1.91-1.13-2.54m298.48 19.37c-6.52 9.76-7.52 21.97-7.31 33.39-.12 11.09 2.08 22.8 9.04 31.73 4.94 6.58 13.12 10.26 21.29 10.31-.04-.65-.12-1.95-.16-2.61 6-.77 12.29-1.89 17.12-5.84 9.05-6.96 12.75-18.63 13.63-29.61.74-11.56.22-23.72-5.01-34.28-4.54-9.09-14-15.46-24.16-16.05-9.66-.1-19.02 5-24.44 12.96m-403.26 12.69c-5.38 2.74-7.29 9.11-7.72 14.72-.39 7.09-.58 14.78 3.09 21.12 3.33 6.49 14.15 6.35 17.39-.17 4-7.23 3.49-15.99 2.48-23.93-.41-4.87-2.79-10.22-7.64-12.04-2.45-.67-5.26-.82-7.6.3z" opacity=".88"/></g><g fill="#fff" stroke="#030000" stroke-width=".09375"><path d="M371.602 6.942h14.04v2.89c-1.34-1.12-2.82-2.07-4.35-2.88-.2 3.42-.19 6.84-.14 10.26 29.46.11 58.91.07 88.37.02.01-3.2.05-6.41-.09-9.61-.37-.17-1.09-.51-1.46-.68h5.84c-.23 1.5-.43 3.01-.6 4.52 1.87.02 3.76.04 5.64.05-.11-1.52-.22-3.05-.32-4.57h4.91c-.35 3.41-.31 6.85-.24 10.27 30.31.1 60.63.1 90.94 0-.16-3.42-.33-6.85-.56-10.27h11.9c-.03.84-.07 2.52-.09 3.36-.79-.92-1.57-1.84-2.34-2.77-1.77-.03-3.53-.06-5.28-.09-.01 1.14-.03 3.42-.05 4.56 1.58-.74 3.17-1.49 4.73-2.29-.03 1.72-.06 3.43-.09 5.15-1.38-.95-2.7-2.01-3.97-3.1l-.03 5.73c3.21.03 6.12-1.22 8.4-3.47-.28 1.75-.55 3.5-.8 5.25-73.42-.02-146.84.04-220.27-.03 0-.5-.02-1.49-.02-1.99 3.67.02 7.35.01 11.02-.03.17-3.42.36-6.84.4-10.27-2.08.56-3.88 1.71-5.55 3.02.02-.76.05-2.27.06-3.03m101.9 5.62c-.05.98-.15 2.95-.21 3.93 1.77.46 3.59.59 5.42.43 0-1.45 0-2.9.01-4.34-1.74-.01-3.49-.01-5.22-.02zM214.492 32.152c-.09-.87-.18-1.73-.26-2.6 6.34.14 12.68.05 19.02.07.05 1.97.11 3.93.16 5.89 2.89.05 5.77.07 8.66.07 8.94 13.62 17.53 27.47 26.49 41.07 1.26.46 1.51-1.27 2.19-1.96 7.9-13.07 15.81-26.15 23.91-39.1 2.68 0 5.36-.02 8.04-.04.02 2.31.03 4.62.07 6.93 22.47.08 44.94.11 67.42.19.27-.51.8-1.54 1.07-2.05 2.76.03 5.53.03 8.31 0 5.24 8.24 10.09 16.72 15.25 25.01-1.94.09-3.89.17-5.83.25 3.36 6.55 7.56 12.63 11.28 18.98 1.72 3.07 5.16 4.85 8.66 4.69 15.79-.11 31.58.07 47.36-.12.33-16.69.04-33.39.15-50.08-6.75.23-13.8-.87-20.27 1.54-4.15 1.49-5.46 6.1-6.89 9.8-1.01.04-2 .07-2.99.11.19-5.19.33-10.38.35-15.57 10.89-.31 21.79-.07 32.69-.12.09-.64.27-1.92.36-2.57 12.61-.11 25.23-.04 37.85-.21.32 4.83.65 9.67.76 14.52-.7-.05-2.09-.16-2.78-.22-1.43-3.59-2.95-8.07-7.09-9.25-5.83-1.3-11.87-1.24-17.8-.9.05 10.63.01 21.26.03 31.89 18.68.21 37.36-.22 56.04.07 1.17-10.64.22-21.4.55-32.08 11.88.43 24.39-1.48 35.65 3.3-.46 7.66-.11 15.33-.25 23-3.72 1.17-7.51 2.07-11.33 2.78 8.16 7.22 16.33 14.43 24.61 21.51 2.23 2.09 5.25 2.68 8.2 2.99.32.4.97 1.2 1.29 1.6 3.36 0 6.72.01 10.08.08.29-.47.88-1.41 1.18-1.88 2.87-.32 6.19.35 8.67-1.51 1.96-1.43 1.73-4.16 1.89-6.3-.09-12.34-.06-24.68-.16-37.02-.07-1.78-.49-3.51-.84-5.24-3.1-1.32-6.51-1.21-9.72-1.96-.31-.36-.92-1.09-1.22-1.46 8.85-.7 17.83.71 26.6-.96 3.63-.48 7.31-.46 10.98-.49 19.82.02 39.65.01 59.48-.12.05.95.11 1.9.18 2.85-3.18.02-6.33.44-9.41 1.19.63 5.62 5.75 8.92 9.07 12.97 2.21 2.01 3.84 5.16 6.76 6.05 2.32-1.51 4.34-3.44 6.41-5.28 4.15-3.86 8.83-7.19 12.35-11.68-1.75-3.18-5.47-3.15-8.61-3.26-.03-.42-.07-1.28-.09-1.7 9.7-.05 19.43-.18 29.13.27.1.33.31 1.01.41 1.34-5.27.55-10.69 1.76-14.83 5.28-6.41 5.42-12.61 11.12-18.87 16.71-2.16-.01-4.31-.01-6.45 0-.83.84-1.65 1.69-2.47 2.54 8.75 8.91 17.42 17.91 26.03 26.95 3.71 4.16 8.99 6.76 14.59 6.97.09.45.28 1.36.38 1.81-13.37.51-26.76.71-40.14.36l-.64-1.84c3.64-.83 7.67-.15 10.87-2.47-2.1-5.41-6.63-9.22-10.45-13.39-3.21-3.47-6.33-7.02-9.64-10.4-6.3 5.34-12.2 11.13-18.45 16.53-1.94 2.03-5.06 4.03-4.36 7.29 2.58 2.45 6.38 1.78 9.63 2.06-.01.59-.02 1.77-.02 2.37-10.47.02-20.93.04-31.4.13l-.24-1.87c4.68-.72 9.26-2.44 12.83-5.65 9.43-8.2 18.65-16.64 28.06-24.87-2.16-2.27-4.37-4.51-6.04-7.17 2.36-.08 4.73-.14 7.1-.17-5.95-6.23-11.5-12.97-18.55-18.02-1.88-1.48-4.23-1.98-6.51-2.45-2.69-.54-5.11-2.25-7.95-1.94-6.44.19-12.9-.1-19.33.29-3.14 2.57-7.59 1.38-11.09 3.2-.85 2.33-1.34 4.77-1.19 7.26.19 12.66-.19 25.33.17 37.97.33 5.06 6.24 4.56 9.9 4.94 2.11-.12.83 2.95 1.37 4.23-20.62-.03-41.24.14-61.86-.09-10.73-8.57-20.45-18.33-30.64-27.53-2.05.01-4.11.03-6.16.05.25 6.83-.54 13.75.42 20.53 2.41 3.66 7.45 1.84 10.82 3.91-5.2 1.67-10.74.44-16.09.85.02-7.15-.14-14.3-.02-21.44-18.87-.22-37.76-.13-56.64.12.08 4.33-.83 8.95.96 13.04 2.38 2.93 6.67 2.39 10.04 2.93l-.22 1.77c-6.16-.01-12.32.05-18.48.11-.21 2.65-.31 5.31-.38 7.96-6.08-.07-12.16.08-18.23.07-.01-.49-.03-1.45-.05-1.93 3.78-.37 7.85-.33 11.01-2.79-25.32-.33-50.66-.12-75.99-.24l-.04-1.83c2.98.06 6.21.06 8.28-2.46-1.74-4.91-4.72-9.19-7.3-13.67-9.77-.02-19.55-.14-29.31.03-1.31-.14-1.62 1.4-2.24 2.21-1.91 3.44-3.73 6.94-5.49 10.46 1.67 3.12 5.16 3.46 8.34 3.48l-.05 1.78c-7.68-.03-15.35.01-23.02-.12l-.12-1.52c4.59-.08 7.97-3.47 10.16-7.18 7.59-12.76 15.2-25.51 22.74-38.3-19.39-.18-38.78.09-58.17-.14.27 7.27-.55 14.54-.33 21.81.43 8.41-.25 16.82-.08 25.23-5.81.07-11.62.05-17.43.05l.04-1.74c3.32-.41 7.92.02 9.71-3.53.75-2.25.48-4.68.56-7.01-.13-11.61.17-23.22-.08-34.82-8.09 13.03-16.3 25.99-24.36 39.05-1.95 2.97-3.47 6.31-6.26 8.64-10.14-15.15-19.65-30.7-29.5-46.03-.09 9.47.02 18.95-.07 28.42-.48.3-1.43.89-1.91 1.18-.06 8.01-.04 16.02-.06 24.03-6.35.05-12.7-.06-19.05-.07l-.13-1.97c2.91-.44 5.94-.51 8.76-1.44 2.74-1.16 3.83-4.2 3.79-6.99.19-16.83-.15-33.67-.04-50.51-2.64-1.01-6.74.25-8.19-2.71 2.3-.13 4.61-.18 6.92-.3-2.38-3.74-7.13-3.11-10.94-3.28m317.86 8.38c-.16 7.55-.33 15.11.05 22.65 5.9-.73 11.98-.33 17.7-2.15 3.22-.99 6.49-2.81 7.99-5.97 1.38-4.1.79-9.61-3.38-11.88-6.66-3.88-14.96-4.15-22.36-2.65m-167.25 7.05c-3.97 7.4-8.81 14.33-12.38 21.94 8.53.07 17.05.03 25.58.03-4.38-7.34-8.27-14.99-13.2-21.97zM6.942 119.282c9.82.03 19.64-.08 29.46.08 0 1.65 0 3.3.01 4.94 9.83.06 19.69-.29 29.5.52 10.5 1.02 21.83 2.85 29.87 10.3 4.94 4.17 7.04 10.62 7.92 16.81-.17 8.43-7.18 14.88-14.23 18.45-13.62 6.68-29.26 5.73-44.01 6.04-.14 1.16-.32 2.32-.54 3.47-1.38.87-4.16.71-3.57 3.04-.07 11.24.02 22.48-.01 33.72 15.55 0 31.09 0 46.64.01 5.64.04 11.3-2.42 14.92-6.78 3.23-3.83 5.84-8.13 8.39-12.43 10.82-18.28 21.66-36.54 32.43-54.84 1.84-2.28.01-4.87-.79-7.15 4.22 0 8.45-.01 12.68 0 .65 1 1.31 2 1.97 3 1.93-.02 3.86-.03 5.79-.03 9.63 16.7 19.32 33.39 29 50.07-1.88.02-3.75.05-5.63.08 2.68 4.33 4.5 9.44 8.09 13.07 18.2.45 36.44.09 54.66.16-.04-24.04.04-48.07-.04-72.11-7.15-.04-14.41-.25-21.4 1.48-5.22 1.3-9.49 5.07-12.46 9.44-1.94 2.83-2.58 6.3-4.27 9.26-.73.18-2.2.56-2.94.75-.18-8.77-.02-17.54-.09-26.31 19.04-.06 38.08.01 57.12-.05.18.61.52 1.82.69 2.43 12.62.18 25.24.02 37.87-.04 1.47.18 3.25-.3 4.55.58.48 8.52.25 17.08.12 25.62-1.06-.05-2.11-.1-3.15-.14-1.33-3.33-2.59-6.72-4.48-9.78-3.1-5.1-8.63-8.36-14.35-9.69-6.35-1.1-12.84-.62-19.26-.74 0 25.14-.03 50.28.01 75.42.21 3.01-.05 6.8 2.64 8.83 4.39 3.28 10.15 2.73 15.32 2.89-.02.67-.06 2.02-.07 2.69-10.6.06-21.19 0-31.79.04-.05-.7-.16-2.1-.22-2.8-7.24.01-14.48.01-21.73-.03-.03-.64-.09-1.9-.13-2.53 5-.53 10.61.34 14.99-2.63 3.11-2.22 2.85-6.38 3.18-9.75-17.85 0-35.69-.09-53.54.05 2.3 3.35 4.43 6.98 7.72 9.48 2.57 1.93 5.89 2.2 8.95 2.76.04.65.13 1.97.17 2.63-17.08.04-34.16.02-51.23 0 0-.69.01-2.06.01-2.75 4.37-.29 9.2.49 13.16-1.79 2.59-1.37 1.47-4.63.43-6.65-2.81-5.39-5.93-10.62-8.96-15.89-14.73.1-29.47-.08-44.21.11-2.54 5.13-6.34 9.74-7.68 15.4-.77 2.91 1.14 5.9 3.84 6.96 3.92 1.58 8.24 1.48 12.38 1.82.06.92.12 1.86.19 2.79-15.96-.13-31.93.43-47.87-.48-12.33.04-24.66-.04-36.99.03-11.54.78-23.1.38-34.65.44.08-.92.17-1.84.25-2.76 4.87-.28 10.35.36 14.53-2.7 2.54-1.83 2.51-5.28 2.65-8.1.06-16.68-.07-33.36.06-50.04.08-4.4-1.49-8.63-1.28-13.04-.07-3.73.48-7.7-1.04-11.22-1.95-3.66-6.49-3.99-10.12-4.65-.02-.65-.05-1.94-.07-2.59 1.73-.14 3.47-.29 5.2-.45-4.74-1.32-9.66-1.66-14.56-1.64v-3.08m36.86 11.49c-.29 6.03.02 12.07-.1 18.1.38.47 1.15 1.39 1.53 1.86-.09 6.69-.03 13.38-.05 20.08 7.87.74 16.82-.09 22.81-5.82 3.84-3.67 4.76-9.14 5.28-14.18-.36-.41-1.09-1.22-1.45-1.63-.19-5.43-1.9-11.28-6.44-14.65-5.89-4.31-13.58-4.88-20.63-4.81-.24.27-.71.79-.95 1.05m100.68 24.4c-6.45 10.56-12.7 21.26-18.8 32.03 12.46.04 24.92.06 37.37-.02-5.14-9.53-10.7-18.84-15.96-28.31-.83-1.24-1.37-2.8-2.61-3.7zM559.052 122.172c11.95-.27 23.9-.06 35.85-.16 2.22.04 4.48-.16 6.67.36 4.39 3.17 7.87 7.42 11.88 11.04 18.46 17.34 36.6 35.02 55.12 52.3.11-9.93-.05-19.85.1-29.78.03-2.09-.24-4.17-.76-6.18-1.33-4.85-.19-9.95-1.38-14.81-.56-2.58-2.31-4.65-3.24-7.07-.35-1.99-.23-4.02-.26-6.03 9.88.36 19.77.14 29.65.23-.09 1.01-.16 2.01-.23 3.02-4.87.49-10.5.41-14.23 4.09-3.08 3.06-3.14 7.64-3.45 11.69-.1 3.38-.61 7.08 1.4 10.04.35 14.9.05 29.81.16 44.71 14.78.02 29.57.02 44.36 0-.01-3.17 0-6.33 0-9.49-1.86.02-3.71.04-5.55.07-.8-15.1.01-30.24-.42-45.35-.04-2.04-.52-4.22-2.23-5.52-4.21-3.52-10.1-2.97-15.21-3.11.02-.67.06-1.99.08-2.65 7.64.02 15.28-.02 22.93.04.44-.98.89-1.96 1.35-2.93 22.44.09 44.88.08 67.33-.01 2.11.08 4.23.32 6.34.6-.08 1.5-.14 2.99-.19 4.49 12.93.02 25.86-.02 38.79.02 3.29-.03 6.62.24 9.89-.3 2.65-.64 5.05-1.99 7.57-3 6.18-2.66 12.89-3.77 19.55-4.46 18.62-1.69 38.48.98 54.12 11.88 8.77 5.86 16.04 14.39 18.9 24.69v21.14c-3.6 12.81-13.53 22.97-25.06 29.11-11.55 6.03-24.67 8.38-37.59 8.8-.19 1.03-.36 2.06-.53 3.09-19.28 0-39.78-5.87-52.97-20.66-12.07-12.55-15.07-32.8-7.12-48.3 3.52-7.13 9.41-12.71 15.66-17.48-13.73-.06-27.45.01-41.17-.04-.29 6.13.57 12.35-.38 18.42-.77.28-2.29.85-3.05 1.14-1.97-5.75-3.75-12.05-8.62-16.09-5.91-4.81-13.7-6.48-21.14-6.97-8.06-.45-16.14-.18-24.21-.22.01 12.87.01 25.74 0 38.61 6.43-.1 13.48-.49 18.68-4.79 5.11-4.53 6.84-11.47 8.09-17.91.89.03 2.68.11 3.58.15.04 10.37 0 20.74.03 31.11-5.86-.07-12.02 1.01-17.54-1.51-4.08-1.64-8.51-1.68-12.83-1.76.17 11.18-.38 22.38.27 33.54-.11 4.19 4.11 6.58 7.84 6.61 11.22.38 22.84.74 33.55-3.18 9.84-3.29 17.34-11.45 21.04-20.99 1.15.01 2.3.03 3.46.05-1.72 10-3.72 19.94-5.63 29.91-23.05.03-46.11-.08-69.17.06-.94 4.2-5.53 2.26-8.49 2.11.09-8.49.01-16.99.05-25.49-14.79.01-29.58-.01-44.37.01 0 2.88 0 5.77.01 8.66 2.19 2.03 4.35 4.08 6.49 6.16-.02 4.35-.02 8.71-.01 13.06h-4.09c-30.67-28.06-60.89-56.63-91.32-84.96-.16 16.33.01 32.67-.09 49 .07 3.37-.16 6.95 1.44 10.04 1.04 2.22 3.08 3.7 4.86 5.29.04 1.74.07 3.47.11 5.21-11.39-.02-22.79.06-34.18-.03.01-.72.03-2.16.03-2.88 5.08-.31 10.53-.32 15.04-3.02 3.55-2.24 5.09-6.59 5.02-10.65.03-12.53-.01-25.07 0-37.6-17.5-.04-35 .01-52.49-.02-.02 2.36-.04 4.72-.04 7.08-.36.1-1.08.29-1.44.38-1-3.19-1.99-6.96-5.4-8.38-4.22-1.77-8.97-1.9-13.47-1.6-1.47.89-.97 2.76-1.13 4.18-.02 4.57.09 9.15-.03 13.73 3.73.52 7.27-.55 9.89-3.3.89-.1 1.79-.21 2.7-.31 0 2.54.01 5.08.02 7.62-4.06.06-8.11-.39-12.04-1.4-.82 6.3-.8 12.7.22 18.98 2.25.67 4.51 1.3 6.75 2-7.16 2.02-14.37-.91-21.61-.21-.15-.33-.44-1.01-.58-1.35 1.69-.52 3.81-.34 5.15-1.63 1.03-1.8.93-4.01 1.4-5.98-6.31-.15-12.59.52-18.9.49-3.86 5.04-9.44 8.9-15.87 9.62-8.16 1.1-17.43-.67-22.91-7.29-6.68-7.39-7.15-18.76-3.01-27.51-10.83-.01-21.66-.02-32.48 0-.04 15.75.03 31.51-.04 47.27 1.7.15 3.4.3 5.11.46.48 2.96-.1 6.7 2.49 8.83 3.98 3.38 9.58 2.5 14.41 2.69.01.66.04 1.98.06 2.64-16.47.02-32.93-.01-49.39.02.03-.68.1-2.03.14-2.7 4.7-.15 10.13.71 14.02-2.57 2.48-1.89 2.33-5.27 2.43-8.07-.01-10.06-.02-20.12-.02-30.18-14.01.06-28.05-.4-42.06.25.12 9.99-.02 19.98.05 29.97.13 2.9.29 6.43 2.91 8.27 4.03 3.02 9.35 2.21 14.06 2.35.01.67.05 2 .06 2.67-7.39-.02-14.78.01-22.17-.01-.27.65-.81 1.96-1.08 2.61h-28.98c-.02-.64-.05-1.91-.07-2.55 5.15-.25 11.77.76 15.33-3.87 2.05-3.81 1.33-8.41 1.55-12.59-.04-18.34-.02-36.68 0-55.01-.15-3.32.05-6.82-1.27-9.92-3.74-4.46-10.17-3.8-15.38-3.88-.1-.89-.2-1.77-.29-2.65 6.34 0 12.68-.03 19.03-.02.08-.7.26-2.09.34-2.78 10.97.02 21.95.02 32.92.01.03.66.08 1.98.11 2.64-4.21.16-8.7-.41-12.6 1.5-1.98.95-4.04 2.71-3.76 5.14.3 10.35.33 20.71.16 31.06-.3-10.45.54-20.94-.61-31.36-.56 10.64-.13 21.3-.28 31.95 14.01.12 28.02.03 42.03.05-.02-9.58.05-19.17 0-28.76-.14-2.27.02-5.04-2.02-6.57-3.98-3.41-9.58-2.94-14.47-2.98 0-.66-.01-1.99-.01-2.66 16.43-.02 32.85.01 49.28-.01.01.65.04 1.97.05 2.62-5.17.18-11.59-.66-15.32 3.77-2.12 3.56-1.33 7.99-1.63 11.95-1.72.03-3.42.07-5.12.11l.03 7.38c10.55.03 21.09.02 31.64.04 3.17.44 5.11-2.41 7.41-4.03 5.63-4.72 13.5-4.98 20.45-4.04 9.91 1.42 18.1 10.41 18.5 20.44.51 4.63-.84 9.14-2.2 13.5 5.68-.41 11.33-1.29 17.05-1.07.01-8.14-.02-16.28.04-24.42-.16-2.04.18-4.38-1.05-6.14-1.91-1.19-4.12-1.69-6.23-2.38 8.04-1.43 15.92 1.33 23.96.85 4.16-.08 8.32-.01 12.49-.02.33.51.99 1.52 1.32 2.02 17.26-.02 34.52-.05 51.78.03.2-6.66.11-13.31.09-19.96-2.97-2.78-5.84-5.83-9.57-7.59-3.09-1.46-6.62-1.16-9.86-2.03-.28-.64-.84-1.91-1.13-2.54m298.48 19.37c-6.52 9.76-7.52 21.97-7.31 33.39-.12 11.09 2.08 22.8 9.04 31.73 4.94 6.58 13.12 10.26 21.29 10.31-.04-.65-.12-1.95-.16-2.61 6-.77 12.29-1.89 17.12-5.84 9.05-6.96 12.75-18.63 13.63-29.61.74-11.56.22-23.72-5.01-34.28-4.54-9.09-14-15.46-24.16-16.05-9.66-.1-19.02 5-24.44 12.96m-403.26 12.69c-5.38 2.74-7.29 9.11-7.72 14.72-.39 7.09-.58 14.78 3.09 21.12 3.33 6.49 14.15 6.35 17.39-.17 4-7.23 3.49-15.99 2.48-23.93-.41-4.87-2.79-10.22-7.64-12.04-2.45-.67-5.26-.82-7.6.3z" opacity=".88"/></g></svg>