<svg xmlns="http://www.w3.org/2000/svg" viewBox="0 0 1027.58 134.29"><title>1</title><path d="M267.39,18.33h-7.75a31.1,31.1,0,0,0-7.64.87,21.16,21.16,0,0,0-5.55,2.25,18.18,18.18,0,0,0-2.32,1.65c-.26-.2-.53-.41-.8-.59l-.08-.05-.07-.05a25.66,25.66,0,0,0-6.29-3,23.48,23.48,0,0,0-7-1.07,56.89,56.89,0,0,0-7.75.51v-.51H178.36v1c-.46-.13-.92-.24-1.39-.34a32,32,0,0,0-6.5-.62H140.74a30.21,30.21,0,0,0-7.7.9,20.79,20.79,0,0,0-5.58,2.32,17.82,17.82,0,0,0-1.58,1.09,16.82,16.82,0,0,0-2-1.36A21.71,21.71,0,0,0,117.52,19a32,32,0,0,0-6.5-.62H21.84a30.21,30.21,0,0,0-7.7.9,20.79,20.79,0,0,0-5.58,2.32,17.38,17.38,0,0,0-7.49,9.29A20.67,20.67,0,0,0,0,37.56V92.4H0c0,.14,0,.28,0,.42a20.59,20.59,0,0,0,.28,3.29H0v38.18H51.56a30.68,30.68,0,0,0,7.66-.88,20.53,20.53,0,0,0,5.56-2.28,17.2,17.2,0,0,0,7.54-9.22,20.38,20.38,0,0,0,1.08-6.71v-3.71h59.45v-.95c.47.13.94.24,1.41.34a31.84,31.84,0,0,0,6.48.61h111v-.92l.46.12a31.8,31.8,0,0,0,7.43.8H311.2V0H267.39V18.33Z"/><path d="M603.84,18.33H526.76a30.73,30.73,0,0,0-7.65,1,20.78,20.78,0,0,0-5.52,2.33c-.52.31-1,.67-1.52,1A18.37,18.37,0,0,0,510,21.28,21.92,21.92,0,0,0,503.67,19a31.44,31.44,0,0,0-6.51-.62H467.43a30.13,30.13,0,0,0-7.69.9,20.4,20.4,0,0,0-5.59,2.32,16.22,16.22,0,0,0-1.57,1.08,19.05,19.05,0,0,0-2.05-1.35A21.47,21.47,0,0,0,444.22,19a31.44,31.44,0,0,0-6.51-.62H430V0H386.15V22.94H370.51V18.33H326.7v4.61h-5.92V61.13h5.92V92.4a19.89,19.89,0,0,0,1.56,7.95,17.27,17.27,0,0,0,3.67,5.38,18,18,0,0,0,3.83,2.86,21.63,21.63,0,0,0,6.29,2.29,31.78,31.78,0,0,0,6.48.61h30.08a29.52,29.52,0,0,0,7.54-.89v.89h73.39v-.95c.47.13.94.24,1.41.34a31.84,31.84,0,0,0,6.48.61h29.73a30.79,30.79,0,0,0,7.66-.88l.23-.07v.95h43.81v-32H560v13a19.89,19.89,0,0,0,1.56,7.95,17.27,17.27,0,0,0,3.67,5.38,18.2,18.2,0,0,0,3.83,2.86,21.63,21.63,0,0,0,6.29,2.29,31.84,31.84,0,0,0,6.48.61h30.08a29.39,29.39,0,0,0,7.58-.9,20.09,20.09,0,0,0,5.51-2.33,17.12,17.12,0,0,0,3.7-3,17.34,17.34,0,0,0,3.65-6.2,20.69,20.69,0,0,0,1-6.63V22.94H603.84V18.33Z"/><path d="M899.12,29.59a17.32,17.32,0,0,0-3.64-5.4,18.49,18.49,0,0,0-3.82-2.91A21.92,21.92,0,0,0,885.34,19a31.44,31.44,0,0,0-6.51-.62H849.1a30.13,30.13,0,0,0-7.69.9,20.85,20.85,0,0,0-5.59,2.32,17.66,17.66,0,0,0-2,1.39H811.63V18.33H704.47v1c-.46-.12-.92-.24-1.38-.33a31.44,31.44,0,0,0-6.51-.62H666.85a30.13,30.13,0,0,0-7.69.9,20.4,20.4,0,0,0-5.59,2.32,17.62,17.62,0,0,0-3.75,3,17.41,17.41,0,0,0-3.74,6.26A20.67,20.67,0,0,0,645,37.56V61.13h.33a21.37,21.37,0,0,0-.33,3.7V92.4a20,20,0,0,0,1.56,7.95,17,17,0,0,0,3.68,5.37,17.62,17.62,0,0,0,3.82,2.87,21.87,21.87,0,0,0,6.3,2.29,32.4,32.4,0,0,0,6.47.61h51.56v-.95c.47.13,1,.24,1.42.34a32.5,32.5,0,0,0,6.48.61H756a31.27,31.27,0,0,0,7.66-.88,21.33,21.33,0,0,0,5.56-2.28,17.88,17.88,0,0,0,3.6-2.83c.07.07.13.15.21.22a17.62,17.62,0,0,0,3.82,2.87,21.92,21.92,0,0,0,6.29,2.29,32.57,32.57,0,0,0,6.48.61h30.08a29.39,29.39,0,0,0,7.58-.9,20,20,0,0,0,5.51-2.33,15.83,15.83,0,0,0,1.46-1,17.68,17.68,0,0,0,2.06,1.34,21.81,21.81,0,0,0,6.29,2.29,32.5,32.5,0,0,0,6.48.61h29.72a31.27,31.27,0,0,0,7.66-.88,21.19,21.19,0,0,0,5.56-2.28,17.46,17.46,0,0,0,3.76-3,17.08,17.08,0,0,0,3.77-6.22,20.18,20.18,0,0,0,1.09-6.71V37.56A20.39,20.39,0,0,0,899.12,29.59Z"/><path d="M63.61,115q0,9.09-11.83,9.09H10.22V105.87H39.8v-4.62H22.05q-12.12,0-11.83-9.09V37.33q0-9.24,11.83-9.24H63.61ZM39.8,46.42H34V83.07H39.8Z" style="fill:#fff"/><path d="M99.25,101.25V73.83H93.48v27.42H69.67V28.09h41.56q11.82,0,11.83,9.24v20.2q0,4.62-5.92,7.07,5.91,2.59,5.92,7.07v29.58Zm0-54.83H93.48v9.09h5.77Z" style="fill:#fff"/><path d="M141,101.25q-11.83,0-11.83-9.09V64.6q0-8.94,11.83-9.09H158.7V46.42h-5.77v4.47H129.12V37.33q0-9.24,11.83-9.24h29.73q11.82,0,11.83,9.24v63.92ZM158.7,73.83h-5.77v9.24h5.77Z" style="fill:#fff"/><path d="M218.15,101.25V46.42h-5.77v54.83H188.57V28.09h23.81v4.62q5.91-4.62,17.75-4.62a14,14,0,0,1,7.79,2.46c2.69,1.82,4,4.09,4,6.78v63.92Z" style="fill:#fff"/><path d="M259.85,101.25q-12.12,0-11.83-9.09V37.33q-.15-9.24,11.83-9.24H277.6V9.77h23.81v91.48ZM277.6,46.42h-5.77V83.07h5.77Z" style="fill:#fff"/><path d="M390.3,92.16q0,9.24-11.84,9.09H348.74q-11.83,0-11.84-9.09V50.89H331V32.71h5.92V28.09h23.81v4.62H390.3V50.89H360.72V83.07h5.91V55.51H390.3V92.16Z" style="fill:#fff"/><path d="M425.94,101.25V46.42h-5.77v54.83H396.36V9.77h23.81V28.09h17.75q11.82,0,11.83,9.24v63.92Z" style="fill:#fff"/><path d="M509.2,92.16q0,9.09-11.83,9.09H467.64q-11.83,0-11.83-9.09V37.33q0-9.24,11.83-9.24h29.73q11.83,0,11.83,9.24v36.5H479.62v9.24h5.77V78.45H509.2ZM485.39,46.42h-5.77v9.09h5.77Z" style="fill:#fff"/><path d="M539.07,69.22v32H515.26V37.33q0-9.09,11.83-9.24h32.76V46.42H539.07v4.47h20.78V69.22Z" style="fill:#fff"/><path d="M623.63,92.16q0,9.24-11.83,9.09H582.07q-11.84,0-11.83-9.09V50.89h-5.92V32.71h5.92V28.09h23.81v4.62h29.58V50.89H594.05V83.07H600V55.51h23.67V92.16Z" style="fill:#fff"/><path d="M667.06,101.25q-11.84,0-11.83-9.09V64.6q0-8.94,11.83-9.09h17.75V46.42H679v4.47H655.23V37.33q0-9.24,11.83-9.24h29.73q11.84,0,11.83,9.24v63.92Zm17.75-27.42H679v9.24h5.77Z" style="fill:#fff"/><path d="M768.07,92.16q0,9.09-11.83,9.09H726.51q-11.84,0-11.83-9.09V28.09h23.81v55h5.77v-55h23.81V92.16Z" style="fill:#fff"/><path d="M831.42,92.16q0,9.24-11.83,9.09H789.86q-11.83,0-11.83-9.09V50.89h-5.92V32.71H778V28.09h23.81v4.62h29.58V50.89H801.84V83.07h5.91V55.51h23.67Z" style="fill:#fff"/><path d="M890.87,92.16q0,9.09-11.83,9.09H849.31q-11.84,0-11.83-9.09V37.33q0-9.24,11.83-9.24H879q11.84,0,11.83,9.24ZM867.06,46.42h-5.77V83.07h5.77Z" style="fill:#fff"/><polygon points="915.9 105.25 915.9 74.57 925.96 74.57 925.96 54.77 915.9 54.77 915.9 24.09 1023.58 24.09 1023.58 54.77 1013.26 54.77 1013.26 74.57 1023.58 74.57 1023.58 105.25 915.9 105.25" style="fill:#fff"/><path d="M1019.58,28.09V50.77h-10.32v27.8h10.32v22.68H919.9V78.57H930V50.77H919.9V28.09h99.68M980.94,78.57h5.64V50.77h-5.64v27.8m-28.31,0h5.64V50.77h-5.64v27.8m74.95-58.48H911.9V58.77H922v11.8H911.9v38.68h115.68V70.57h-10.32V58.77h10.32V20.09Z"/></svg>