<?xml version="1.0" encoding="UTF-8"?>
<svg viewBox="0 0 460.22 328.49" xmlns="http://www.w3.org/2000/svg">
<title>Artboard 2</title>
<path d="M120.5,123.23l-6.18,0-5.25,0a4,4,0,0,1-4-4l0-21.63c0-29.33-.07-59.66.06-89.49a4,4,0,0,1,4-4h.16c1,0,2.18.06,3.45.06,1.76,0,3.53,0,5.31-.07S121.71,4,123.54,4c6.65,0,14.4.49,21.56,4.14,9.19,4.38,16.27,13.35,19.94,25.28a74.77,74.77,0,0,1,3.29,19.25,80.82,80.82,0,0,1,.06,20.9c-.6,13.88-4.06,25.46-10.26,34.42a35.45,35.45,0,0,1-24.94,15l-.32,0C129.29,123.17,125.48,123.23,120.5,123.23ZM131,84.55c.05,2.15,0,4.32,0,6.41,0,2.31-.06,4.55,0,6.74a12.09,12.09,0,0,0,5.66-3c3.06-3.42,4.22-8.35,5.13-13.13A140.17,140.17,0,0,0,143,57.88c-.21-1.8-.38-3.64-.54-5.41-.58-6.56-1.14-12.75-4.12-18l-.06-.1c-1.42-2.69-4.25-4.18-7.17-4.84-.21,11-.17,22.06-.13,32.84C131,69.63,131,77.14,131,84.55Z" fill="#fefefe"/>
<path d="M123.54,8c6.83,0,13.58.55,19.79,3.73,9.16,4.34,15,13.45,17.89,22.87A71.7,71.7,0,0,1,164.34,53a77.12,77.12,0,0,1,.06,20.25c-.47,11.33-3,23-9.56,32.49A31.46,31.46,0,0,1,132.72,119c-4.08.15-8.15.19-12.23.19-3.81,0-7.62,0-11.42,0,0-37-.12-74.07,0-111.1,1.2.05,2.4.06,3.61.06,3.58,0,7.21-.15,10.82-.15m3.73,94.27c4.43-.25,9.07-1.54,12.27-4.76,3.8-4.18,5.16-9.87,6.18-15.27A145.6,145.6,0,0,0,147,57.55c-1-8.45-.84-17.43-5.17-25.06-2.75-5.21-9-7.39-14.54-7.39h-.08c-.49,19.82-.09,39.66-.22,59.48.14,5.9-.32,11.82.3,17.69M123.54,0c-1.89,0-3.78,0-5.6.08s-3.52.07-5.22.07c-1.22,0-2.29,0-3.29,0h-.32a8,8,0,0,0-8,8c-.13,29.89-.09,60.26-.06,89.64q0,10.75,0,21.51a8,8,0,0,0,8,8l5.23,0,6.2,0c5,0,8.9-.06,12.52-.2a4.74,4.74,0,0,0,.65,0,39.53,39.53,0,0,0,27.78-16.75c6.6-9.54,10.28-21.76,10.94-36.31a85,85,0,0,0,0-21.56,78.79,78.79,0,0,0-3.42-20,1,1,0,0,1,0-.14c-4-13-11.81-22.82-22-27.7C139,.54,130.65,0,123.54,0ZM135,84.51c.05-7.4,0-14.9,0-22.16,0-8.43-.06-17.06,0-25.66,2.43,4.47,2.93,10.14,3.47,16.14.16,1.75.32,3.56.53,5.38A135.24,135.24,0,0,1,137.81,81c-.63,3.3-1.38,6.66-2.83,9.22,0-1.86,0-3.78,0-5.72Z"/>
<path d="m191.4 123.22h-5.83-4.57a4 4 0 0 1 -4 -4c-0.08-35-0.13-72.68 0-111.1a4 4 0 0 1 4 -4h2.63q10.15 0 20.31 0c7 0 13.24 0 18.94 0.07a4 4 0 0 1 4 3.77c0.21 3.65 0.18 7.29 0.16 10.82v6.28a4 4 0 0 1 -3.84 4.06c-2.73 0.11-5.62 0.16-9.36 0.16h-5.17-5.13-1.2v15.32 4.4h0.38 4.85 4.9c3.48 0 6.17 0 8.72 0.16a4 4 0 0 1 3.83 4v5.45c0 3.77 0 7.66-0.05 11.53a4 4 0 0 1 -3.92 3.86c-1.92 0.06-4 0.09-6.6 0.09h-4.11-4.05-4v24h5.56c1.36 0 3.16 0 5 0.07a4 4 0 0 1 3 6.53c-0.54 0.66-1.11 1.3-1.69 1.93a15.15 15.15 0 0 0 -3 4.14 29.49 29.49 0 0 1 -7.85 11.42 4 4 0 0 1 -2.51 1c-2.8 0.01-5.74 0.04-9.4 0.04z" fill="#fefefe"/>
<path d="m203.9 8.07q9.47 0 18.93 0.07c0.32 5.64 0.06 11.29 0.15 16.93-3.06 0.12-6.13 0.16-9.2 0.16h-10.3-3.94l-1.24 1.3c-0.06 8.4 0 16.81 0 25.21l1.22 1.26h3.14 9.75c2.85 0 5.7 0 8.55 0.16 0 5.63 0.09 11.26 0 16.9-2.15 0.07-4.31 0.09-6.47 0.09h-8.16s-5.32 0-8 0.15q-0.08 15.9 0 31.8c1.69 0.06 3.38 0.07 5.07 0.07h4.46c1.63 0 3.25 0 4.88 0.07-1.88 2.3-4.23 4.33-5.32 7.16a25.56 25.56 0 0 1 -6.72 9.82c-3.09 0.07-6.18 0.09-9.27 0.09h-10.43q-0.12-55.53 0-111.07h22.91m0-8q-10.23 0-20.47 0h-2.44a8 8 0 0 0 -8 8c-0.15 38.47-0.1 76.14 0 111.12a8 8 0 0 0 8 8h4.58 5.86c3.69 0 6.7 0 9.45-0.09a8 8 0 0 0 5 -1.92 33.4 33.4 0 0 0 8.91 -12.84c0-0.06 0.05-0.12 0.08-0.19a13.66 13.66 0 0 1 2.24 -2.89c0.58-0.65 1.19-1.32 1.8-2.08a8 8 0 0 0 -5.92 -13.2c-1.91-0.06-3.75-0.07-5.15-0.07h-1.56v-16h4 4.13c2.63 0 4.77 0 6.74-0.1a8 8 0 0 0 7.73 -7.81c0.09-3.92 0.07-7.85 0.05-11.65v-5.42a8 8 0 0 0 -7.65 -8c-2.6-0.1-5.29-0.1-8.88-0.1h-4.93-1.21v-0.47-11.32h2.31 5.2c3.8 0 6.73 0 9.53-0.17a8 8 0 0 0 7.69 -8.1v-6.18c0-3.59 0.05-7.3-0.16-11.07a8 8 0 0 0 -7.95 -7.55c-5.72-0.05-11.89-0.07-18.99-0.07z"/>
<path d="m244 78.29a4.21 4.21 0 0 1 -1 -0.14 4 4 0 0 1 -3 -3.83c-0.17-22.86-0.16-45.14 0-66.22a4 4 0 0 1 4 -4q10.08-0.06 20.16 0 10.86 0 21.71 0a4 4 0 0 1 4 3.81c0.19 4 0.15 8 0.12 11.87v5.28a4 4 0 0 1 -3.85 4c-2.55 0.09-5.24 0.14-8.71 0.14h-4.95-4.9-2.28v10.36q0 4.72 0 9.43h4.84 5.79c2.6 0 5.21 0 7.81 0.06a4 4 0 0 1 3.9 3.5 86.6 86.6 0 0 1 0.36 12.39c0 1.49-0.06 3-0.06 4.47a4 4 0 0 1 -1.22 2.89l-0.59 0.57a4 4 0 0 1 -2.6 1.13c-1.76 0.09-3.68 0.13-6 0.13h-3.7-3.62-0.43a16.46 16.46 0 0 1 -6.92 -1.84 17.3 17.3 0 0 0 -2.71 -1h-0.9c-3.25 0-9.09 0.67-11.78 5.16a4 4 0 0 1 -3.47 1.84z" fill="#fefefe"/>
<path d="m264.14 8.08q10.86 0 21.72 0c0.27 5.65 0.08 11.31 0.1 17-2.85 0.11-5.71 0.14-8.56 0.14h-9.85-5l-1.33 1.22c0.06 8.41 0 16.83 0 25.24 0.31 0.32 0.91 1 1.22 1.3h1.85 11.57q3.85 0 7.72 0.06c0.68 5.42 0.27 10.94 0.28 16.4l-0.59 0.57c-1.94 0.09-3.89 0.12-5.84 0.12h-7.31-0.49c-3.26 0-5.94-2.25-9.07-2.85h-1.41c-5.83 0-12.06 1.84-15.21 7.11q-0.24-33.08 0-66.16 10.06-0.06 20.12-0.05m0-8c-7.24 0-13.84 0-20.17 0.05a8 8 0 0 0 -7.89 7.83c-0.17 21.13-0.18 43.43 0 66.29a8 8 0 0 0 14.87 4.05c1.73-2.9 6.41-3.22 8.34-3.22h0.29c0.47 0.16 1.11 0.44 1.7 0.7a20.32 20.32 0 0 0 8.49 2.18h0.49 3.59 3.72c2.42 0 4.4 0 6.23-0.13a8 8 0 0 0 5.17 -2.24l0.59-0.57a8 8 0 0 0 2.44 -5.77c0-1.43 0-2.87 0.06-4.39a89.43 89.43 0 0 0 -0.4 -13 8 8 0 0 0 -7.8 -7c-2.33 0-4.83-0.06-7.86-0.06h-5.82-0.84v-5.4-6.39h3.14 5c3.48 0 6.3 0 8.87-0.15a8 8 0 0 0 7.69 -8v-5.23c0-3.93 0.07-8-0.13-12.09a8 8 0 0 0 -8 -7.62h-21.75z"/>
<path d="m349.13 123.24c-3.45 0-6.27-0.07-8.88-0.22a4 4 0 0 1 -3.69 -3.2c-2.35-11.63-4.78-23.65-8.3-35.27v11.45 23.21a4 4 0 0 1 -4 4h-7.16-10.17a4 4 0 0 1 -4 -3.85c-0.07-2-0.05-3.94 0-5.84a62.53 62.53 0 0 0 -0.34 -9.37 51.59 51.59 0 0 1 0.08 -10.49 60.77 60.77 0 0 0 0.27 -6.92s0-10.74 0-10.74q0-28.2 0-56.41v-0.19a25 25 0 0 0 -0.18 -3.46c-0.29-2.87-0.61-6.11 0.89-9.52a4 4 0 0 1 3.64 -2.42h0.19c1.09 0.06 2.26 0.08 3.68 0.08h3.47 3.59c5.84 0 12.06 0.38 18 3.13 9.53 4.17 16.56 14.34 17.91 26v0.33c0 0.72 0.05 1.44 0.08 2.17 0.23 5.76 0.49 12.29-2.26 18.34a30.3 30.3 0 0 1 -5.77 9c7.12 10.76 9.95 23.28 12.7 35.42 0.33 1.48 0.67 3 1 4.42a0.69 0.69 0 0 1 0 0.13c0.42 2.1 0.91 4.15 1.43 6.33 0.72 3 1.46 6.09 2 9.27a4 4 0 0 1 -3.93 4.63h-4.36c-1.97-0.03-3.93-0.01-5.89-0.01zm-20.86-82.83v-0.09c0-1.26 0.06-2.5 0-3.66-0.01 0.41 0 2.91 0 3.75z" fill="#fefefe"/>
<path d="m307.29 8c1.28 0.06 2.57 0.08 3.87 0.08 2.34 0 4.7-0.06 7.06-0.06 5.6 0 11.15 0.35 16.31 2.78 9 3.89 14.49 13.31 15.59 22.76 0.2 6.3 0.85 12.94-1.87 18.84-1.49 4-4.37 7.15-7.19 10.23 9 11.89 11.63 26.88 14.92 41.05 1 5.17 2.54 10.24 3.37 15.45-3.41 0-6.82 0.08-10.22 0.08-2.89 0-5.77 0-8.65-0.21-2.48-12.26-5-24.56-8.66-36.53-1.45-3.76-2.43-8.5-6.32-10.51l-1.18 0.1c-0.14 15.69 0 31.39-0.1 47.09q-3.56 0-7.11 0h-10.17c-0.19-5.2 0.31-10.44-0.41-15.61-0.69-5.68 0.61-11.32 0.39-17q0-33.49 0-67c0.18-3.89-1.27-7.82 0.37-11.56m18.09 46.4a11.09 11.09 0 0 0 6.87 -10.79c-0.13-4.37 0.69-9.06-1.44-13.09-1.07-2.27-3-4.7-5.65-4.7a4.46 4.46 0 0 0 -0.88 0.09c-0.06 8.24 0 16.47 0 24.71a4.82 4.82 0 0 0 1.14 3.78m-18.13-54.38a8 8 0 0 0 -7.29 4.82c-1.91 4.36-1.5 8.49-1.2 11.51a25 25 0 0 1 0.17 2.89v0.36 55.8 11.2 0.31a58.43 58.43 0 0 1 -0.27 6.45 55.61 55.61 0 0 0 -0.07 11.21 0.59 0.59 0 0 0 0 0.14 60.63 60.63 0 0 1 0.3 8.77v6a8 8 0 0 0 8 7.71h10.17 7.21a8 8 0 0 0 7.9 -7.93v-0.68c0.13 0.68 0.27 1.37 0.41 2.05a8 8 0 0 0 7.38 6.39c2.69 0.15 5.58 0.22 9.11 0.22h5.91 4.35a8 8 0 0 0 7.86 -9.26c-0.53-3.33-1.29-6.5-2-9.58-0.51-2.13-1-4.15-1.39-6.16l-0.06-0.26c-0.34-1.46-0.67-2.93-1-4.41-2.62-11.58-5.32-23.49-11.68-34.21a30.74 30.74 0 0 0 4.55 -7.77c3.08-6.88 2.8-13.87 2.56-20 0-0.72-0.06-1.43-0.08-2.13 0-0.23 0-0.45-0.05-0.68-1.54-13.17-9.29-24.32-20.24-29.12-6.6-3.17-13.33-3.59-19.62-3.59h-3.65-3.41c-1.36 0-2.47 0-3.49-0.07z"/>
<path d="m271.49 123.23c-4.56 0-8.78 0-12.91-0.07a3.63 3.63 0 0 1 -1 -0.14 29.57 29.57 0 0 1 -6.16 -2.61c-0.88-0.45-1.72-0.88-2.53-1.25a4 4 0 0 1 -0.52 -7c4.08-2.59 8.37-4.83 12.51-7 3.73-1.95 7.59-4 11.17-6.18a4.06 4.06 0 0 1 1.58 -0.57 46 46 0 0 1 5.9 -0.33h3.26s2.07 0 3.1 0h1.2a4 4 0 0 1 4 3.94c0.08 5.28 0.06 10.63 0 15.8v1.29a4 4 0 0 1 -4 4c-5.66 0.09-10.8 0.12-15.6 0.12z" fill="#fefefe"/>
<path d="M279.55,102.05c2.12,0,4.24.09,6.36.09h1.2c.09,5.67.06,11.34,0,17q-7.83.07-15.66.08-6.44,0-12.86-.07c-2.86-.76-5.4-2.45-8.1-3.65,7.62-4.83,16-8.42,23.64-13.16a42,42,0,0,1,5.38-.3m0-8h0a48.56,48.56,0,0,0-6.42.37A7.9,7.9,0,0,0,270,95.55c-3.45,2.13-7.07,4-10.91,6-4.22,2.2-8.58,4.48-12.8,7.16a8,8,0,0,0,1,14.07c.71.32,1.49.72,2.32,1.15a33.39,33.39,0,0,0,7,2.92,8.06,8.06,0,0,0,2,.27c4.14,0,8.37.07,12.95.07,4.82,0,10,0,15.74-.08a8,8,0,0,0,7.92-8v-1.32c0-5.18,0-10.55,0-15.86a8,8,0,0,0-8-7.87h-1.2c-1,0-2,0-3,0s-2.2,0-3.35,0Z"/>
<path d="M298.11,324.49a34,34,0,0,1-20.22-6.34c-10.41-7.73-17-20.56-19.53-38.16a2.07,2.07,0,0,1,0-.35c-.12-2-.31-4.09-.49-6.1-.55-6.16-1.12-12.53,0-19,.54-12.42,3.67-23.93,9.05-33.28,5.74-9.85,14.53-16.43,24.15-18.05l.36,0c2-.15,3.82-.22,5.49-.22a46.78,46.78,0,0,1,5.85.34l.29.05c7.63,1.54,14.18,5.57,18.45,8.47a4,4,0,0,1,1.75,3.22l.05,2.2a176.76,176.76,0,0,1-.23,18.67,4,4,0,0,1-6.59,2.71c-.94-.8-1.88-1.64-2.83-2.49-5-4.5-10.23-9.15-16.27-9.15l-.54,0h-.18c-4.73,0-8.16,5-9.79,9.71-3.3,10-3.69,20.69-3.6,30.78.1,1.08.19,2.18.28,3.29.77,9.14,1.56,18.6,7.14,25.3a9.78,9.78,0,0,0,7.19,3.26c0-2,0-3.93,0-5.9,0-4.9.05-9.94,0-14.92-1.92,0-3.91-.05-5.88-.13a4,4,0,0,1-3.83-4c-.05-5.64-.05-11.18,0-16.47a4,4,0,0,1,3.91-4c3.85-.08,8-.13,12.73-.13s9.66.05,14.5.09a4,4,0,0,1,4,4q0,6.24,0,12.47c.06,14.2.12,28.89-.14,43.36a4,4,0,0,1-1.66,3.17A40.36,40.36,0,0,1,298.11,324.49Z" fill="#fefefe"/>
<path d="M296.93,206.91a43.51,43.51,0,0,1,5.35.31c6.18,1.25,11.81,4.34,17,7.86a193.72,193.72,0,0,1-.17,20.45c-6.27-5.38-12.84-12.6-21.7-12.6l-.71,0h0c-6.91,0-11.5,6.48-13.56,12.39-3.43,10.38-3.92,21.45-3.82,32.3,1,10.59,1.2,22.36,8.35,30.95,2.72,3.36,6.86,4.73,11,4.73a20.53,20.53,0,0,0,3.24-.27c0-9.51.18-19-.11-28.53-3.21-.07-6.42,0-9.62-.18q-.07-8.2,0-16.39,6.31-.13,12.64-.13c4.84,0,9.68.05,14.52.09,0,18.58.23,37.17-.1,55.75a36.52,36.52,0,0,1-21.13,6.83,30.15,30.15,0,0,1-17.87-5.57c-11.15-8.29-16-22.26-17.92-35.51-.47-8.14-2-16.33-.46-24.46.45-11,3-22.12,8.54-31.73,4.59-7.89,12.13-14.55,21.34-16.1,1.72-.13,3.46-.21,5.19-.21m0-8h0c-1.77,0-3.66.07-5.78.23-.25,0-.49.05-.74.09-10.78,1.82-20.6,9.09-26.92,20-5.68,9.86-9,21.9-9.6,34.87-1.19,6.93-.6,13.48,0,19.83.19,2.07.36,4,.47,6,0,.23,0,.46.07.69,2.73,18.69,9.81,32.41,21.07,40.78l.06.05a38.09,38.09,0,0,0,22.58,7.1,44.4,44.4,0,0,0,25.82-8.35,8,8,0,0,0,3.31-6.34c.26-14.51.2-29.22.14-43.44q0-6.24,0-12.47a8,8,0,0,0-7.93-8c-4.78,0-9.72-.09-14.59-.09s-8.94.05-12.82.13a8,8,0,0,0-4.07,1.22,65.11,65.11,0,0,1,2.75-13.26c1.23-3.47,3.67-7,6-7h.73c4.52,0,8.93,3.95,13.61,8.13.94.84,1.91,1.71,2.88,2.54a8,8,0,0,0,13.18-5.4,174.82,174.82,0,0,0,.25-19.1l-.05-2.2a8,8,0,0,0-3.5-6.44c-4.55-3.09-11.57-7.4-19.9-9.08l-.59-.1a51,51,0,0,0-6.35-.37Zm-3,94.72-.06-.07-.07-.09c-2.69-3.23-4.09-7.31-4.93-11.85a7.75,7.75,0,0,0,3,.71c.71,0,1.41.06,2.11.07,0,3.68,0,7.36,0,11v.26Z"/>
<path d="m408.26 323.22c-3.34 0-6.3 0-9.06-0.09a4 4 0 0 1 -3.91 -4v-23.59-87.37a4 4 0 0 1 4 -4h1.35c1.68 0 3.35-0.05 5.12-0.09s3.57-0.1 5.37-0.1a43.73 43.73 0 0 1 15.63 2.34 30.4 30.4 0 0 1 19.12 21.79c3.44 13.05 0.73 26.35-6.89 35a56.72 56.72 0 0 1 6.31 12.4c3.58 9.87 5.82 20.19 8 30.17 0.89 4.11 1.81 8.36 2.81 12.48a4 4 0 0 1 -3.77 4.94c-2.62 0.07-5.47 0.11-8.73 0.11-2.94 0-5.88 0-8.81-0.06h-1.33a4 4 0 0 1 -3.85 -3.07c-0.9-3.78-1.74-7.61-2.56-11.32-1.71-7.77-3.48-15.8-5.79-23.49v11 23a4 4 0 0 1 -4 4c-3-0.07-6.01-0.05-9.01-0.05zm13-84.79v1.87c0.01-0.63 0.01-1.3 0-1.87z" fill="#fefefe"/>
<path d="M411.15,208c4.86,0,9.67.36,14.27,2.1,8.33,2.9,14.61,10.49,16.6,19,3.06,11.54,1.15,25.33-8.2,33.56a56.08,56.08,0,0,1,7.73,14.2c5,13.69,7.26,28.14,10.67,42.25-2.87.08-5.74.11-8.61.11-3.37,0-6.74,0-10.1-.07-2.82-11.85-5-23.87-8.57-35.54-1.35-3.9-2.5-8.15-5.51-11.13l-2.1-.5c-.16,15.73,0,31.46-.1,47.19q-4.49,0-9,.05c-3,0-6,0-9-.09q0-55.47,0-110.95h1.35c3.47,0,7-.19,10.49-.19m6.24,46.07c4.86-.16,7.31-5.34,7.73-9.56.11-4.66.66-9.62-1.47-13.94-1-2.29-2.95-4.7-5.61-4.7a4.59,4.59,0,0,0-.73.06c0,9.38-.18,18.77.08,28.14M411.15,200c-1.86,0-3.7.05-5.48.1s-3.38.09-5,.09h-1.35a8,8,0,0,0-8,8c-.05,29.07,0,58.62,0,87.19v23.78a8,8,0,0,0,7.81,8c2.8.06,5.79.09,9.16.09,3.1,0,6.18,0,9.05-.05a8,8,0,0,0,7.92-7.93v-.34c.17.7.33,1.4.5,2.1a8,8,0,0,0,7.7,6.15h1.32c2.9,0,5.89.06,8.86.06,3.3,0,6.19,0,8.84-.11a8,8,0,0,0,7.55-9.88c-1-4.08-1.9-8.3-2.79-12.39-2.19-10.1-4.45-20.54-8.13-30.69a58.7,58.7,0,0,0-5.16-10.76c7-9.56,9.33-23,5.86-36.23a34.45,34.45,0,0,0-21.63-24.58c-6.11-2.29-12.29-2.58-17-2.58Z"/>
<path d="M59,323.26c-3.36,0-6.65-.12-9.7-.24a4,4,0,0,1-3.81-3.61c-.61-6.16-1.7-12.44-2.75-18.5l-.25-1.45a33.87,33.87,0,0,0-4.4-.29,32.4,32.4,0,0,0-5.06.39c-.42,2.71-.92,5.39-1.41,8-.73,3.91-1.48,7.95-1.93,11.89A4,4,0,0,1,26,323c-2.4.16-5,.24-8.19.24-1.78,0-3.56,0-5.34-.05-1.5,0-3,0-4.49,0a4,4,0,0,1-3.92-4.72c3.75-20.61,7.69-41.54,11.49-61.78,2.94-15.65,6-31.83,8.92-47.75a3.6,3.6,0,0,1,.25-.83c.18-.42.53-1.28.7-1.72a4,4,0,0,1,3.72-2.54h.08c1.4,0,2.81,0,4.21,0l6,0c2.09,0,4.84,0,7.6.14a4,4,0,0,1,3.76,3.28c4.75,26.2,9.71,52.81,14.5,78.55q3,16.21,6,32.42a4,4,0,0,1-.75,3.16,4,4,0,0,1-2.85,1.56C65,323.16,62.19,323.26,59,323.26ZM38,274.38c-.1-.81-.2-1.61-.31-2.42l-.33,2.42Z" fill="#fefefe"/>
<path d="M29.15,207.81c1.43,0,2.87,0,4.3,0l6,0c2.47,0,5,0,7.42.14,6.72,37,13.68,74,20.54,111-2.77.23-5.56.31-8.35.31-3.18,0-6.36-.11-9.53-.24-.76-7.73-2.22-15.37-3.52-23a37.32,37.32,0,0,0-7.86-.83,35.93,35.93,0,0,0-8.62,1c-1,7.64-2.89,15.14-3.75,22.81-2.63.18-5.27.23-7.91.23-3.28,0-6.56-.08-9.83-.09,6.66-36.53,13.67-73,20.41-109.52.19-.45.56-1.36.74-1.82m8.32,70.57c1.65,0,3.3,0,5-.11-.87-9.94-3-19.76-4.75-29.58-1.81,9.82-3.79,19.66-4.79,29.6q2.29.09,4.59.09m-8.32-78.57a8,8,0,0,0-7.45,5.08c-.16.41-.49,1.23-.66,1.63a8,8,0,0,0-.5,1.66c-2.93,15.91-6,32.09-8.91,47.73-3.81,20.25-7.74,41.18-11.5,61.8A8,8,0,0,0,8,327.15c1.49,0,3,0,4.46,0,1.76,0,3.58.05,5.4.05,3.27,0,6-.08,8.45-.25a8,8,0,0,0,7.41-7.09c.43-3.8,1.13-7.59,1.88-11.61.32-1.66.63-3.36.93-5.08.53,0,1.07,0,1.61,0l1,0c1,5.68,1.9,11.11,2.44,16.61A8,8,0,0,0,49.15,327c3.1.13,6.44.25,9.87.25s6.23-.11,9-.34a8,8,0,0,0,7.21-9.43L69.18,285c-4.78-25.7-9.73-52.27-14.48-78.41A8,8,0,0,0,47.2,200c-2.85-.13-5.66-.15-7.79-.15h-6c-1.62,0-2.93,0-4.14,0Z"/>
<path d="M93.82,324.36c-2.19,0-4.43,0-6.68-.13A4,4,0,0,1,83.37,321c-3.69-19.4-7.26-39.14-10.72-58.23-2.8-15.48-5.7-31.49-8.64-47.21a35,35,0,0,1-1-7.3A4,4,0,0,1,67,204.13c1.66,0,3.42-.06,5.7-.06l6.17,0c2.44,0,4.29,0,6-.07H85a4,4,0,0,1,3.47,2l.93,1.57a4.12,4.12,0,0,1,.5,1.48c1.13,8.64,2.38,17.44,3.58,25.94.14.94.27,1.89.4,2.84l.24-1.81c.86-6.62,1.75-13.47,2.85-20.21.07-.59.12-1.19.17-1.79a23,23,0,0,1,1.62-7.6,4,4,0,0,1,3.65-2.37h10.1c2.63,0,5.27,0,7.9,0a4,4,0,0,1,4,4.11,68.27,68.27,0,0,1-1.75,12A57.4,57.4,0,0,0,121,231.4a4,4,0,0,1-.89,2.48c-.25,2.12-.68,4.16-1.1,6.15-.35,1.68-.68,3.26-.9,4.84a.77.77,0,0,1,0,.15c-1.73,9.76-3.56,19.67-5.33,29.25l-2.82,15.3a1.29,1.29,0,0,1,0,.19,34,34,0,0,0-.93,7.56,3.94,3.94,0,0,1-.83,2.42c-.24,2-.64,3.84-1,5.68a32.55,32.55,0,0,0-1.07,8.77,4,4,0,0,1-1,3,22,22,0,0,1-1.07,4.43,4,4,0,0,1-3.59,2.64C98.19,324.32,96,324.36,93.82,324.36Z" fill="#fefefe"/>
<path d="M85,208l.93,1.58c2.46,18.68,5.31,37.33,7.71,56,3.24-16.26,4.62-32.85,7.29-49.22.34-2.81.31-5.69,1.48-8.32h10.12c2.62,0,5.23,0,7.85,0-.22,7.86-3.29,15.38-3.35,23.26l-.68-1.56c.13,4.94-1.5,9.66-2.17,14.51C111.5,259.18,108.7,274,106,288.85a37.67,37.67,0,0,0-1,8.46c-.2-.49-.39-1-.58-1.47.06,6.32-2.77,12.28-2.34,18.62-.2-.95-.39-1.9-.6-2.83a30.14,30.14,0,0,1-1.27,8.6c-2.11.09-4.23.13-6.34.13s-4.35,0-6.52-.13c-6.69-35.14-12.8-70.38-19.38-105.53a31.09,31.09,0,0,1-.88-6.57c1.87,0,3.74-.06,5.6-.06l6.17,0c2,0,4.09,0,6.14-.07m0-8h-.21c-1.7,0-3.53.07-5.93.07H72.64c-2.31,0-4.09,0-5.79.06A8,8,0,0,0,59,208.35a39.36,39.36,0,0,0,1.06,8C63,232.05,65.92,248,68.71,263.45c3.46,19.1,7,38.86,10.73,58.28A8,8,0,0,0,87,328.22c2.3.09,4.6.14,6.84.14s4.49-.05,6.68-.14a8,8,0,0,0,7.18-5.27,24.77,24.77,0,0,0,1.11-4.21,8,8,0,0,0,1.22-4.82,29.76,29.76,0,0,1,1-7.67c.34-1.6.7-3.3,1-5.1a8,8,0,0,0,1-3.81,30,30,0,0,1,.83-6.66c0-.13.06-.26.08-.39q1.4-7.65,2.81-15.28c1.77-9.59,3.61-19.51,5.34-29.3,0-.1,0-.2,0-.3.2-1.43.52-2.95.86-4.56s.75-3.57,1-5.53a8,8,0,0,0,1-3.89,54.64,54.64,0,0,1,1.51-10.38,71,71,0,0,0,1.84-12.72,8,8,0,0,0-7.93-8.22q-4,0-7.92,0H102.36a8,8,0,0,0-7.31,4.75,19.7,19.7,0,0,0-1.23,3.77v0a7.94,7.94,0,0,0-1-2.94l-.52-.88c-.16-.26-.31-.52-.41-.7A8,8,0,0,0,85,200Z"/>
<path d="m153.52 323.23c-7.24 0-14.72 0-22.24-0.11a4 4 0 0 1 -4 -4c-0.06-20.32 0-41 0-60.95q0-22.8 0-45.63c0-1.73 0.11-3.44 0.21-4.73a4 4 0 0 1 4 -3.67c6 0 14-0.08 21.92-0.08 7.39 0 14 0 20.3 0.11a4 4 0 0 1 3.93 3.6 97 97 0 0 1 0.27 11.13c0 2.07-0.07 4 0 6a4 4 0 0 1 -3.77 4.08c-2.7 0.16-5.56 0.22-9.28 0.22h-4.85-4.79-1.88v8.82q0 5.51 0 11h0.16 4.94s3.34 0 5 0c3.4 0 6.16 0.08 8.68 0.24a4 4 0 0 1 3.75 4v4.92 11.9a4 4 0 0 1 -3.8 3.94c-2.26 0.12-4.68 0.17-7.82 0.17h-3.85-3.79-3.25c-0.05 8 0 16.1 0 24h4.57 4.69 4.73c3.06 0 5.54 0 7.81 0.09a4 4 0 0 1 3.89 4v7.25 9.72a4 4 0 0 1 -4 4c-7.05-0.06-14.29-0.02-21.53-0.02z" fill="#fefefe"/>
<path d="m153.34 208.07q10.14 0 20.27 0.11c0.56 5.59 0.1 11.23 0.23 16.84-3 0.17-6 0.21-9.05 0.21h-9.64-4.59l-1.3 1.22v25.22l1.22 1.32h2.94c3.31 0 6.63-0.07 10-0.07 2.81 0 5.62 0.05 8.43 0.23v16.77c-2.54 0.13-5.08 0.16-7.62 0.16s-5.1 0-7.64 0-4.82 0-7.22 0.14c-0.1 10.59-0.06 21.18 0 31.78 2.85 0.09 5.71 0.12 8.56 0.12h9.42c2.57 0 5.13 0 7.7 0.09v16.95q-10.71 0.11-21.44 0.11-11.1 0-22.19-0.11c-0.1-35.52 0-71 0-106.57 0-1.47 0.08-2.94 0.2-4.4q10.93-0.08 21.87-0.08m0-8c-8 0-15.91 0-21.93 0.08a8 8 0 0 0 -7.92 7.34c-0.12 1.37-0.24 3.19-0.23 5.11v45.62 60.92a8 8 0 0 0 7.92 8c7.53 0.07 15 0.11 22.27 0.11s14.5 0 21.52-0.11a8 8 0 0 0 7.88 -7.98v-9.78-7.21a8 8 0 0 0 -7.78 -8c-2.3-0.06-4.82-0.09-7.92-0.09h-4.75-4.67-0.58v-16h3 3.88c3.21 0 5.69-0.05 8-0.17a8 8 0 0 0 7.59 -7.89c0.05-4 0-8.05 0-12v-4.91a8 8 0 0 0 -7.49 -8c-2.61-0.17-5.45-0.25-8.94-0.25h-5.06-1.07v-7-4.83h2.64 4.88c3.8 0 6.73-0.07 9.5-0.22a8 8 0 0 0 7.55 -8.18c-0.05-1.9 0-3.82 0-5.86a98.88 98.88 0 0 0 -0.28 -11.59 8 8 0 0 0 -7.86 -7.2c-6.29-0.08-13-0.11-20.36-0.11z"/>
<path d="M194.4,237.4a4.13,4.13,0,0,1-1.64-.35,4,4,0,0,1-2.36-3.53c-.23-7.84-.14-15.78-.06-23.46l0-1.89a4,4,0,0,1,3.8-4c1.76-.08,3.58-.13,5.57-.13,1.25,0,2.5,0,3.75,0a4,4,0,0,1,3.89,4.39c-.61,6.2-3.09,11.69-5.28,16.53l-.06.13a14.68,14.68,0,0,0-.9,3.07c-.58,2.58-1.29,5.81-4.16,8.21A4,4,0,0,1,194.4,237.4Z" fill="#fefefe"/>
<path d="m199.73 208.08h3.66c-0.53 5.4-2.73 10.38-4.94 15.27-1.61 3.24-1.11 7.53-4 10-0.25-8.39-0.13-16.8 0-25.19 1.79-0.09 3.58-0.13 5.37-0.13m0-8c-2.06 0-3.94 0-5.77 0.14a8 8 0 0 0 -7.6 7.9v1.88c-0.08 7.72-0.17 15.71 0.06 23.64a8 8 0 0 0 13.15 5.88c3.9-3.27 4.85-7.56 5.49-10.4a14.2 14.2 0 0 1 0.57 -2.16c0-0.09 0.09-0.18 0.13-0.27 2.2-4.86 4.94-10.92 5.61-17.78a8 8 0 0 0 -7.77 -8.78h-3.85z"/>
<path d="m204 323.74a53.74 53.74 0 0 1 -10.43 -0.85 4 4 0 0 1 -3.23 -3.92q0-29.43 0-58.85a4 4 0 0 1 0.41 -1.77 7.46 7.46 0 0 1 7.2 -4.22c0.53 0 1.08 0 1.62 0.07 0.37 0 0.74 0.05 1.11 0.05h0.27a59.34 59.34 0 0 0 9.5 -14.67c0.42-1.4 0.71-2.9 1-4.47a50 50 0 0 1 1.44 -6 4 4 0 0 1 3.59 -2.75h0.21a4 4 0 0 1 3.65 2.36c2.15 4.78 3.95 9.72 5.65 14.56v-2.6c-0.06-2.67 0-5.32 0-7.89a102.31 102.31 0 0 0 -0.5 -14.75 4 4 0 0 1 0 -1.14c0.22-1.39 0.48-2.75 0.78-4.05l0.06-0.74a4 4 0 0 1 2.5 -3.4 7.86 7.86 0 0 0 2.81 -2.91 4 4 0 0 1 3.15 -1.69c2-0.06 4-0.06 6-0.06 1.73 0 3.47 0 5.2-0.05h0.1a4 4 0 0 1 4 3.87c0.33 10 0.28 20.18 0.23 30 0 6.11-0.06 12.44 0 18.64v26.1 36.55a4 4 0 0 1 -3.95 4h-4.31-4.54-5.49-0.08a4 4 0 0 1 -3.73 -2.55c-3.86-9.92-7.47-20.1-11-29.95-0.68-1.91-1.37-3.83-2.05-5.77v5.57c0 9.57 0.09 19.46-0.22 29.22a4 4 0 0 1 -3.95 3.87l-2.63 0.05c-1.48 0.12-2.95 0.14-4.37 0.14z" fill="#fefefe"/>
<path d="m246.05 208c0.53 16.16 0.07 32.37 0.23 48.56v62.6h-4.27-4.52-5.58c-6.84-17.55-12.72-35.49-19.35-53.13l-1.26-0.64c-0.41 18 0.25 36.12-0.33 54.16-2.33 0-4.66 0.11-7 0.11a49.66 49.66 0 0 1 -9.66 -0.78q0-29.43 0-58.85a3.54 3.54 0 0 1 3.61 -2c0.89 0 1.83 0.12 2.73 0.12a3.73 3.73 0 0 0 3.25 -1.34 63.89 63.89 0 0 0 10.28 -16c1.07-3.47 1.37-7.12 2.5-10.57 4.78 10.63 7.74 22 12.45 32.64 0.32-7.48 1-14.94 0.81-22.44-0.18-7.68 0.46-15.4-0.53-23 0.22-1.37 0.48-2.72 0.79-4.06 0-0.26 0.07-0.79 0.09-1.05 2-0.82 3.37-2.58 4.59-4.31 3.73-0.11 7.46 0 11.19-0.11m0-8h-0.19c-1.68 0-3.35 0-5.12 0.05-2 0-4 0-6.12 0.06a8 8 0 0 0 -6.3 3.39 13.86 13.86 0 0 1 -1.23 1.58 8 8 0 0 0 -4.8 6.73v0.43c-0.29 1.3-0.55 2.65-0.77 4a8.05 8.05 0 0 0 0 2.3c0.24 1.88 0.37 3.8 0.44 5.75a8 8 0 0 0 -5.24 -2h-0.42a8 8 0 0 0 -7.18 5.5 52.24 52.24 0 0 0 -1.56 6.43c-0.27 1.38-0.53 2.7-0.87 3.87a54.6 54.6 0 0 1 -7.54 12h-1.19a11.38 11.38 0 0 0 -10.78 6.45 7.86 7.86 0 0 0 -0.83 3.53v58.87a8 8 0 0 0 6.46 7.84 58.07 58.07 0 0 0 11.2 0.93c1.52 0 3 0 4.49-0.07h2.6a8 8 0 0 0 7.9 -7.74c0.12-3.91 0.19-7.84 0.22-11.75 1.71 4.68 3.46 9.37 5.27 14a8 8 0 0 0 7.45 5.1h0.04 5.43 4.57 4.37a8 8 0 0 0 7.9 -8v-36.56q0-13 0-26.06v-0.09c-0.06-6.18 0-12.49 0-18.59 0.05-9.87 0.1-20.07-0.23-30.15a8 8 0 0 0 -8 -7.74z"/>
<path d="m357.41 323.23c-7.55 0-14.47 0-21.16-0.12a4 4 0 0 1 -3.95 -4q0-18.72 0-37.46c0-24.11-0.07-49 0.13-73.56a4 4 0 0 1 4 -4h12 12c7 0 12.77 0 18.05 0.1a4 4 0 0 1 3.9 3.38 65.68 65.68 0 0 1 0.47 11.57c0 2-0.08 3.87 0 5.74a4 4 0 0 1 -3.75 4.12c-2.66 0.18-5.46 0.26-9.08 0.26h-5-4.88-1.91v14.94 4.8h1.59 4.31 4.37c3.44 0 6.08 0.07 8.57 0.22a4 4 0 0 1 3.76 4v8.34s0 5.6 0 8.39a4 4 0 0 1 -3.76 4c-2.39 0.15-4.94 0.21-8.27 0.21h-3.95-3.89-2.67c0 7.91-0.05 16 0 24h4.26 4.58 4.63c3.35 0 5.94 0 8.39 0.14a4 4 0 0 1 3.84 4v6.11 10.84a4 4 0 0 1 -4 4c-8.38-0.05-15.77-0.02-22.58-0.02z" fill="#fefefe"/>
<path d="m360.43 208.07c6 0 12 0 18 0.1 0.87 5.56 0.22 11.22 0.4 16.82-2.93 0.2-5.87 0.25-8.8 0.25-3.28 0-6.57-0.07-9.85-0.07-1.53 0-3.07 0-4.6 0.06l-1.3 1.23v25.27l1.28 1.22c1.43 0 2.87 0.05 4.31 0.05 2.89 0 5.79-0.05 8.68-0.05s5.56 0 8.33 0.21c-0.05 5.58 0 11.16 0 16.74-2.68 0.16-5.36 0.2-8 0.2s-5.23 0-7.84 0c-2.22 0-4.43 0-6.65 0.13 0 10.59-0.08 21.18 0 31.77 2.74 0.11 5.49 0.14 8.24 0.14h9.19c2.75 0 5.5 0 8.24 0.14v16.93q-11.28 0.09-22.56 0.1-10.56 0-21.11-0.12c0-37-0.19-74 0.11-111h24m0-8h-12-12a8 8 0 0 0 -8 7.93c-0.2 24.55-0.16 49.49-0.13 73.62v37.44a8 8 0 0 0 7.9 8c6.7 0.08 13.64 0.12 21.21 0.12 6.82 0 14.22 0 22.63-0.1a8 8 0 0 0 7.93 -7.94v-10.84-6.14a8 8 0 0 0 -7.68 -8c-2.51-0.1-5.15-0.15-8.56-0.15h-4.64-4.55-0.29v-16h2.54 4c3.42 0 6-0.07 8.52-0.22a8 8 0 0 0 7.52 -7.91v-8.45s0-5.54 0-8.29a8 8 0 0 0 -7.52 -8.06c-2.57-0.15-5.29-0.22-8.81-0.22h-4.4-1.87v-11.8h2.76 5c3.71 0 6.59-0.08 9.34-0.27a8 8 0 0 0 7.46 -8.24c-0.06-1.77 0-3.59 0-5.53a67.67 67.67 0 0 0 -0.51 -12.27 8 8 0 0 0 -7.8 -6.76c-5.3-0.07-11-0.1-18.1-0.1z"/>
<path d="M201,259.26c-4.18,0-8.21-2.62-11.05-7.19a4.07,4.07,0,0,1-.59-1.85c-.48-7.39,1.16-13.06,4.88-16.85,1.87-2.22,2.58-5.16,3.39-8.56a33,33,0,0,1,3.38-9.53,28.46,28.46,0,0,0,2.42-7.36,52.11,52.11,0,0,1,3.45-10c.61-1.45,1.19-2.83,1.71-4.22l.06-.16c.55-1.32,1.09-2.65,1.63-4A118.67,118.67,0,0,1,215.89,177l.06-.1a3.74,3.74,0,0,0,.52-1.81l0,0c-5.94-3.7-11.35-6.85-17.28-8l-1,0a54.52,54.52,0,0,0-6.19.49,59.94,59.94,0,0,1-7.1.54,26.21,26.21,0,0,1-4.06-.29,3.9,3.9,0,0,1-1.4-.49c-8.9-5.15-9.94-10.87-9.25-14.77a4.25,4.25,0,0,1,.2-.72l.27-.72c1.51-4,3.21-8.47,6.81-11.93l2.6-2.69c3.76-3.91,7.66-8,12.5-11.08,3.8-2.56,7.38-6.33,11.22-11.81a37,37,0,0,0,2-3.53c1.67-3.19,3.55-6.81,7.27-9.21a4,4,0,0,1,.74-.38,58.7,58.7,0,0,0,13.67-8c6-4.73,10.56-10.91,15.37-17.45,1.32-1.8,2.69-3.66,4.08-5.47a4,4,0,0,1,1.73-1.29,28.24,28.24,0,0,1,9.92-2.22A15.64,15.64,0,0,1,264,67c5.48,1.57,8.82,5.78,11.76,9.49.38.48.75,1,1.12,1.4,4.71,5.68,6.34,11.79,4.55,17.2a4.17,4.17,0,0,1-.29.65c-2.8,5.16-7.91,9.4-14.39,12-1.49.7-3,1.55-4.5,2.45a62.89,62.89,0,0,1-5.72,3.06,35.32,35.32,0,0,0-4,2.14c5.06.86,7.13,5.46,8.37,8.23.14.29.27.58.39.86a2.82,2.82,0,0,1,.19.48c.21.65.44,1.31.68,2,1.31,3.74,3,8.39.84,13.26-1.51,3.8-3.29,7.47-5,11-1.28,2.65-2.61,5.39-3.79,8.11a21.46,21.46,0,0,1,8.22,2.9,15,15,0,0,0,3.61,1.62,8.81,8.81,0,0,1,6.9-3.64,8.32,8.32,0,0,1,3.38.74c5,1,6.11,5.79,6.56,8.55l.17,0c1.56.32,3,.63,4.53.85a4,4,0,0,1,3.4,3.69c.38,5.48.16,11.69-4.29,16.24a3.79,3.79,0,0,1-1.43.94,24.56,24.56,0,0,1-5.61,1.26l-.4,0a3.31,3.31,0,0,1-.55,0l-.48,0a14,14,0,0,1-4.9-1.76,6.58,6.58,0,0,0-2.23-.9h-.26c-1,0-2,.06-3.05.1-1.26.05-2.57.11-3.9.11a27.12,27.12,0,0,1-6.87-.76c-.94-.21-2-.46-3-.72a58.84,58.84,0,0,0-9.19-1.76c-1,2-1.92,4.11-2.86,6.3-1.18,2.75-2.4,5.59-3.9,8.34a32,32,0,0,1-2,5.75,17.28,17.28,0,0,0-1.71,5.43l-.09,1.12a4,4,0,0,1-3.54,3.66,3.4,3.4,0,0,1-.45,0,4,4,0,0,1-3.12-1.5,25.45,25.45,0,0,0-1,2.57,24.57,24.57,0,0,1-2.17,5,4.18,4.18,0,0,1-.77.91,28.6,28.6,0,0,1-2.73,2c-.6.41-1.19.81-1.68,1.21a92.47,92.47,0,0,0-2.79,9.66c-.38,1.52-.76,3-1.17,4.54a3.56,3.56,0,0,1-.23.62A50.26,50.26,0,0,1,204,258.14a4.05,4.05,0,0,1-2.63,1.12Zm14-114.45,1.94,1a39.9,39.9,0,0,0,6.5,3,11.63,11.63,0,0,1,1.09-3.94,22.92,22.92,0,0,1,5.14-6.56c1.67-1.65,3.12-3.07,3.68-4.76l.08-.21c.59-1.49,1.22-3,1.91-4.45a32.68,32.68,0,0,1-7,6.08,37.92,37.92,0,0,0-4.17,3.25,35.4,35.4,0,0,1-6.59,4.63c-1,.59-2,1.17-2.88,1.78Z" fill="#fc0101"/>
<path d="M258.57,70.11a11.42,11.42,0,0,1,4.14.74c4.94,1.34,8,5.85,11,9.61s5.43,8.64,3.85,13.41c-2.62,4.82-7.42,8.22-12.46,10.18-3.53,1.65-6.72,3.94-10.28,5.54-5.14,2.28-9.46,6-14.4,8.6-3.47,1.87-5.85,5.1-8.23,8.14-3,3.74-7.45,5.77-10.88,9-3.84,3.63-9.2,5.19-12.73,9.21a13.13,13.13,0,0,0,4.49,3.82c4.07,2.1,8.14,4.65,12.8,5,1.84-1.85,1-4.61,2.15-6.75,2.11-4.63,7.4-6.93,9-11.83a78.27,78.27,0,0,1,6.71-13.19c1.16-2,3.45-2.49,5.65-2.49a17.79,17.79,0,0,1,2.24.15c3.4.47,4.66,4.13,5.93,6.85,1.26,4,3.48,8.31,1.64,12.48-2.66,6.69-6.2,13-9,19.62a14.9,14.9,0,0,0-.34,4.27c3.46.85,7.2,1,10.26,3a20,20,0,0,0,7.65,2.78c1.09-2.11,2.81-4.14,5.06-4.14a4.47,4.47,0,0,1,2.14.59c4,.5,3.55,5.15,4.36,8.09,2.52.47,5,1.07,7.55,1.45.31,4.53.22,9.72-3.16,13.18a23.09,23.09,0,0,1-5.13,1.08c-2.72-.33-4.83-2.69-7.61-2.69h-.31c-2.29,0-4.6.21-6.9.21a23.86,23.86,0,0,1-5.88-.63c-5-1.15-9.92-2.69-15.05-2.69h-.48c-3.17,5.56-5.07,11.74-8.2,17.32-.76,4.3-3.65,8-3.91,12.33,0,.26-.07.79-.09,1.05a2.48,2.48,0,0,0-2.65-1.77,9.66,9.66,0,0,0-2.93.59c-2,2.72-2.33,6.32-4.09,9.18-1.63,1.43-3.63,2.39-5.17,3.93-2,5-3,10.3-4.42,15.47a47.15,47.15,0,0,1-9.72,14.36H201c-3.32,0-6-2.64-7.65-5.3-.31-4.81.25-10.3,3.83-13.88,4.64-5.33,3.78-13,7.33-18.85a33,33,0,0,0,2.84-8.49c1-4.79,3.31-9.12,5-13.67,2.27-5.42,4.27-11,7.1-16.14,1.29-2.2,1.85-5.88-.86-7.25-5.88-3.66-12-7.32-18.94-8.53-.47,0-.94,0-1.41,0-4.44,0-8.85,1-13.29,1a23.77,23.77,0,0,1-3.46-.24c-3.73-2.16-8.17-5.77-7.31-10.61,1.51-4,3-8.17,6.11-11.19,4.61-4.66,8.95-9.71,14.5-13.29,5-3.35,8.91-8,12.33-12.87,2.64-3.91,4-9,8.16-11.68a62.09,62.09,0,0,0,14.67-8.54c8.26-6.47,13.89-15.45,20.19-23.66a24.11,24.11,0,0,1,8.48-2m0-8h0a32,32,0,0,0-11.35,2.48,8,8,0,0,0-3.48,2.6c-1.41,1.84-2.79,3.72-4.13,5.54C235,79,230.62,85,225,89.36a54.8,54.8,0,0,1-12.66,7.42,8.36,8.36,0,0,0-1.49.76c-4.6,3-6.85,7.27-8.65,10.72a35.7,35.7,0,0,1-1.76,3.15c-3.52,5-6.75,8.42-10.15,10.73-5.2,3.37-9.24,7.56-13.15,11.62-.85.89-1.7,1.78-2.57,2.65-4.19,4.08-6.13,9.2-7.69,13.33l-.27.71a7.88,7.88,0,0,0-.4,1.44c-.75,4.22-.29,12.29,11.18,18.93a8.07,8.07,0,0,0,2.81,1,31.55,31.55,0,0,0,4.66.33,64,64,0,0,0,7.57-.57,53,53,0,0,1,5.72-.46h.51c4.26.84,8.4,3,12.8,5.63-1.93,3.77-3.47,7.58-5,11.29-.53,1.32-1.06,2.63-1.61,3.94a3,3,0,0,0-.12.32c-.49,1.3-1.05,2.63-1.65,4a56.22,56.22,0,0,0-3.68,10.8,25.53,25.53,0,0,1-2,6.22,36.77,36.77,0,0,0-3.76,10.52c-.68,2.85-1.27,5.31-2.48,6.81-4.46,4.63-6.44,11.29-5.89,19.78a8,8,0,0,0,1.18,3.71c3.59,5.77,8.86,9.08,14.45,9.08h.54a8,8,0,0,0,5.25-2.23,54.42,54.42,0,0,0,11.44-16.77,8.84,8.84,0,0,0,.45-1.25c.42-1.55.81-3.11,1.19-4.61.72-2.86,1.4-5.59,2.27-8.15l.57-.39a30.46,30.46,0,0,0,3.12-2.34,7.87,7.87,0,0,0,1.53-1.82,22.93,22.93,0,0,0,2-4.24,8.08,8.08,0,0,0,.85.05c.3,0,.6,0,.91-.05a8,8,0,0,0,7.08-7.34c0-.1,0-.27,0-.43s0-.46.06-.62a.57.57,0,0,1,0-.13,15.54,15.54,0,0,1,1.38-4.1,37,37,0,0,0,2.12-5.9c1.46-2.75,2.64-5.5,3.79-8.18.53-1.21,1-2.39,1.55-3.54,1.89.33,3.85.81,5.87,1.31l3.06.74a31.52,31.52,0,0,0,7.76.85c1.42,0,2.77-.06,4.08-.11.93,0,1.81-.08,2.66-.1l.85.44a17.79,17.79,0,0,0,6.27,2.18,7.73,7.73,0,0,0,1,.06,8.29,8.29,0,0,0,1.11-.08l.38-.05a28.83,28.83,0,0,0,6.51-1.48,8.14,8.14,0,0,0,2.85-1.88c6.3-6.45,5.68-15.47,5.42-19.32a8,8,0,0,0-6.8-7.36c-.64-.1-1.29-.21-1.95-.34-1-3.35-3.18-7.67-8.69-9a12,12,0,0,0-12.44,2l-.55-.32a20,20,0,0,0-4.69-2.23c.57-1.2,1.16-2.4,1.76-3.64,1.74-3.6,3.55-7.32,5.11-11.23,2.7-6.29.61-12.2-.77-16.12-.24-.66-.45-1.28-.63-1.85a8.85,8.85,0,0,0-.38-1c-.12-.26-.24-.53-.37-.8a23.59,23.59,0,0,0-3.82-6.33c1.24-.66,2.4-1.34,3.55-2,1.43-.83,2.78-1.62,4.09-2.24,7.29-2.91,13.08-7.76,16.31-13.71a7.59,7.59,0,0,0,.56-1.31c2.21-6.65.29-14.3-5.26-21-.35-.43-.71-.88-1.06-1.33-3-3.75-7-8.86-13.65-10.81a19.48,19.48,0,0,0-6.63-1.13Z"/>
</svg>
