<!-- Generated by IcoMoon.io -->
<svg version="1.1" xmlns="http://www.w3.org/2000/svg" width="32" height="32" viewBox="0 0 32 32">
<path d="M18.498 10.073h-13.869c-0.384 0-0.695-0.311-0.695-0.695s0.311-0.695 0.695-0.695h13.869c0.384 0 0.695 0.311 0.695 0.695s-0.311 0.695-0.695 0.695zM15.188 13.188h-10.559c-0.384 0-0.695-0.311-0.695-0.695s0.311-0.695 0.695-0.695h10.559c0.384 0 0.695 0.311 0.695 0.695s-0.311 0.695-0.695 0.695zM8.124 22.532h-3.495c-0.384 0-0.695-0.311-0.695-0.695s0.311-0.695 0.695-0.695h3.495c0.384 0 0.695 0.311 0.695 0.695s-0.311 0.695-0.695 0.695zM6.609 25.646h-1.98c-0.384 0-0.695-0.311-0.695-0.695s0.311-0.695 0.695-0.695h1.98c0.384 0 0.695 0.311 0.695 0.695s-0.311 0.695-0.695 0.695zM30.891 3.508l-1.585-1.182c-0.399-0.298-0.89-0.422-1.383-0.35s-0.928 0.331-1.225 0.73c-0 0-0 0-0 0.001l-3.93 5.326v-5.289c0-0.384-0.311-0.695-0.695-0.695h-2.88v-1.068c0-0.384-0.311-0.695-0.695-0.695s-0.695 0.311-0.695 0.695v1.068h-2.078v-1.068c0-0.384-0.311-0.695-0.695-0.695s-0.695 0.311-0.695 0.695v1.068h-2.078v-1.068c0-0.384-0.311-0.695-0.695-0.695s-0.695 0.311-0.695 0.695v1.068h-2.077v-1.068c0-0.384-0.311-0.695-0.695-0.695s-0.695 0.311-0.695 0.695v1.068h-2.077v-1.068c0-0.384-0.311-0.695-0.695-0.695s-0.695 0.311-0.695 0.695v1.068h-2.88c-0.384 0-0.695 0.311-0.695 0.695v28.847c0 0.384 0.311 0.695 0.695 0.695h21.019c0.384 0 0.695-0.311 0.695-0.695v-13.873l8.503-11.6c0-0 0-0 0-0 0.614-0.824 0.444-1.994-0.38-2.608zM21.378 30.896h-19.629v-27.457h2.185v1.068c0 0.384 0.311 0.695 0.695 0.695s0.695-0.311 0.695-0.695v-1.068h2.077v1.068c0 0.384 0.311 0.695 0.695 0.695s0.695-0.311 0.695-0.695v-1.068h2.078v1.068c0 0.384 0.311 0.695 0.695 0.695s0.695-0.311 0.695-0.695v-1.068h2.078v1.068c0 0.384 0.311 0.695 0.695 0.695s0.695-0.311 0.695-0.695v-1.068h2.078v1.068c0 0.384 0.311 0.695 0.695 0.695s0.695-0.311 0.695-0.695v-1.068h2.185v6.501l-3.624 4.973h-13.125c-0.384 0-0.695 0.311-0.695 0.695s0.311 0.695 0.695 0.695h12.112s-3.951 5.422-3.952 5.423h0c-0.045 0.062-0.081 0.133-0.103 0.21l-1.589 5.436h-6.469c-0.384 0-0.695 0.311-0.695 0.695s0.311 0.695 0.695 0.695c0 0 6.997-0.001 7-0.001 0-0-0-0-0-0 0.127-0.002 0.254-0.038 0.366-0.111l5.194-3.357c0.071-0.046 0.131-0.104 0.179-0.168 0.002-0.002 4.010-5.501 4.010-5.501v11.271zM13.74 23.286l1.855 1.384-2.786 1.8 0.931-3.184zM16.665 23.733l-2.345-1.748 10.96-15.038 2.345 1.748-10.96 15.038zM28.449 7.576l-2.345-1.748 0.748-1.003 2.345 1.748-0.748 1.003zM30.157 5.286c-0 0-0 0-0 0.001l-0.128 0.172-2.345-1.748 0.128-0.172 0.001-0.001c0.076-0.101 0.186-0.167 0.311-0.186s0.25 0.014 0.351 0.089l1.585 1.182c0.209 0.156 0.253 0.454 0.097 0.663z"></path>
</svg>
