<!-- Generated by IcoMoon.io -->
<svg version="1.1" xmlns="http://www.w3.org/2000/svg" width="28" height="32" viewBox="0 0 28 32">
<path d="M12.6 11.666c-0.346-0.342-0.561-0.816-0.561-1.341 0-0.021 0-0.041 0.001-0.062l-0 0.003c0-0.56 0.18-1.040 0.56-1.4s0.84-0.56 1.4-0.56c0.56 0 1.040 0.18 1.4 0.56s0.56 0.84 0.56 1.4c0 0.56-0.18 1.040-0.56 1.4-0.357 0.364-0.851 0.592-1.399 0.6l-0.002 0c-0.56 0-1.040-0.22-1.4-0.6zM16 16.266c-0.040-0.5-0.22-0.96-0.62-1.38-0.4-0.38-0.84-0.6-1.38-0.62h-2c-0.54 0.040-0.96 0.26-1.38 0.62-0.4 0.4-0.6 0.88-0.62 1.38h2v6c0.040 0.54 0.22 1 0.62 1.38 0.4 0.4 0.84 0.62 1.38 0.62h2c0.54 0 0.96-0.22 1.38-0.62 0.4-0.38 0.6-0.84 0.62-1.38h-2v-6zM14 4.886c-6.28 0-11.4 5.080-11.4 11.36s5.12 11.4 11.4 11.4 11.4-5.1 11.4-11.4c0-6.3-5.12-11.38-11.4-11.38v0.020zM14 2.246c7.72 0 14 6.28 14 14s-6.28 14-14 14-14-6.24-14-14 6.28-14 14-14z"></path>
</svg>
