<!-- Generated by IcoMoon.io -->
<svg version="1.1" xmlns="http://www.w3.org/2000/svg" width="41" height="32" viewBox="0 0 41 32">
<path d="M3.639 0.691c5.686 2.809 11.322 6.393 17.529 7.637 6.442-2.365 11.955-5.051 17.147-8.214l-0.425 0.241c-3.196 4.912-8.933 7.974-11.574 13.105 4.393 7.028 9.259 13.123 14.737 18.606l-0.001-0.001c-7.52-3.953-13.963-9.572-20.49-14.938-5.997 5.663-12.722 10.663-19.992 14.819l-0.515 0.271c4.278-4.355 8.282-9.020 11.958-13.943l0.255-0.356c1.093-1.699 3.297-3.6 2.473-5.837-3.701-3.785-7.654-7.335-11.103-11.389z"></path>
</svg>
