<!-- Generated by IcoMoon.io -->
<svg version="1.1" xmlns="http://www.w3.org/2000/svg" width="32" height="32" viewBox="0 0 32 32">
<path d="M15.268 3.57c0.35-0.265 0.872-0.262 1.215 0.014 0.215 0.166 0.5 0.264 0.649 0.499 0.043 0.167 0.026 0.362-0.134 0.462-0.983 0.693-1.983 1.36-2.971 2.045-0.344 0.242-0.707 0.457-1.032 0.726-0.175 0.134-0.18 0.433-0.018 0.579 0.163 0.154 0.355 0.271 0.534 0.406 0.335 0.3 0.86 0.378 1.239 0.11 1.267-0.89 2.529-1.789 3.797-2.678 0.329-0.258 0.83-0.244 1.163 0 1.373 0.905 2.738 1.822 4.108 2.731 0.222 0.14 0.33 0.481 0.147 0.693-1.039 0.803-2.065 1.623-3.105 2.424-0.146 0.116-0.328 0.185-0.515 0.182-0.486 0.043-0.831-0.361-1.205-0.601-0.215-0.124-0.349-0.364-0.291-0.613 0.038-0.090 0.090-0.176 0.172-0.233 0.326-0.271 0.677-0.509 1.007-0.774 0.208-0.191 0.483-0.327 0.623-0.583 0.082-0.257-0.163-0.454-0.348-0.586-0.347-0.224-0.687-0.554-1.134-0.514-0.342-0.009-0.594 0.249-0.858 0.425-1.034 0.763-2.075 1.515-3.11 2.273-0.326 0.213-0.618 0.557-1.042 0.539-0.327 0.026-0.594-0.188-0.831-0.383-1.203-0.906-2.402-1.821-3.606-2.725-0.081-0.063-0.132-0.154-0.183-0.241-0.060-0.214 0.070-0.425 0.249-0.534 1.825-1.217 3.656-2.426 5.482-3.642zM5.59 15.868c0.592-0.042 1.189 0.036 1.779-0.056 0.068 0.103 0.135 0.208 0.199 0.315-0.277 0.212-0.687 0.415-0.68 0.819-0.012 0.329 0.308 0.51 0.52 0.705 0.647 0.562 1.289 1.129 1.933 1.693 0.129 0.127 0.299 0.238 0.35 0.419 0.087 0.311-0.043 0.627-0.309 0.803-0.437 0.299-0.822 0.806-1.406 0.764-0.381 0.006-0.657-0.286-0.907-0.533-1.015-0.922-2.025-1.85-3.037-2.775-0.28-0.266-0.583-0.509-0.846-0.793-0.080-0.197-0.082-0.438 0.051-0.613 0.169-0.225 0.423-0.359 0.643-0.525l0.016 0.004c0.534 0.103 1.087 0.061 1.627 0.038 0.022-0.088 0.044-0.177 0.067-0.266zM10.671 21.12c0.155-0.142 0.395-0.151 0.581-0.076 0.265 0.194 0.502 0.424 0.75 0.64 1.922 1.682 3.843 3.364 5.764 5.048 0.119 0.107 0.152 0.278 0.12 0.431-0.337 0.391-0.751 0.709-1.123 1.069-0.333 0.352-0.913 0.452-1.323 0.177-0.296-0.215-0.551-0.478-0.821-0.725-1.426-1.298-2.846-2.605-4.269-3.907-0.294-0.269-0.598-0.528-0.876-0.815-0.185-0.183-0.172-0.466-0.112-0.699 0.076-0.125 0.168-0.242 0.285-0.331 0.341-0.272 0.68-0.545 1.025-0.811zM17.132 4.083c0.071 0.454-0.003 0.927 0.011 1.388 0.019 0.166-0.047 0.333-0.188 0.427-1.148 0.801-2.296 1.602-3.444 2.403-0.178-0.135-0.37-0.252-0.534-0.406-0.162-0.146-0.158-0.445 0.018-0.579 0.325-0.269 0.688-0.484 1.032-0.726 0.988-0.684 1.989-1.352 2.971-2.045 0.16-0.1 0.177-0.295 0.134-0.462zM9.537 7.747c0.051 0.088 0.102 0.178 0.183 0.241 1.205 0.905 2.403 1.819 3.606 2.725 0.237 0.194 0.504 0.408 0.831 0.383 0.424 0.018 0.716-0.326 1.042-0.539 1.036-0.759 2.076-1.511 3.11-2.273 0.264-0.177 0.516-0.434 0.858-0.425 0.446-0.040 0.786 0.29 1.134 0.515 0.185 0.132 0.43 0.329 0.348 0.586-0.14 0.256-0.415 0.392-0.623 0.583-0.283-0.191-0.579-0.434-0.945-0.386-0.34 0.016-0.579 0.279-0.843 0.457-1.072 0.795-2.141 1.593-3.213 2.386-0.183 0.129-0.352 0.295-0.576 0.344-0.277 0.065-0.587 0.022-0.813-0.159-1.2-0.912-2.388-1.84-3.586-2.754-0.144-0.121-0.336-0.224-0.373-0.425-0.053-0.418-0.086-0.839-0.14-1.258zM23.965 9.156l0.058-0.018c-0.048 0.392-0.094 0.785-0.173 1.172-0.022 0.112-0.12 0.182-0.2 0.252-0.947 0.765-1.908 1.513-2.857 2.276-0.367 0.307-0.937 0.244-1.281-0.068-0.247-0.217-0.603-0.352-0.732-0.675-0.018-0.514 0.036-1.032 0.068-1.546-0.057 0.249 0.076 0.489 0.291 0.613 0.374 0.24 0.719 0.644 1.205 0.601 0.188 0.003 0.369-0.066 0.515-0.182 1.040-0.802 2.066-1.621 3.105-2.424zM6.516 11.732c0.366-0.27 0.912-0.252 1.239 0.071 0.233 0.237 0.611 0.378 0.69 0.73 0.039 0.282-0.201 0.473-0.407 0.615-0.185-0.157-0.395-0.314-0.651-0.307-0.415-0.045-0.746 0.242-1.058 0.47-1.376 0.956-2.749 1.915-4.123 2.873-0.333 0.23-0.821 0.3-1.147 0.024-0.216-0.203-0.451-0.389-0.651-0.607-0.16-0.4-0.288-0.816-0.383-1.236 0.352 0.277 0.628 0.735 1.114 0.773 0.425 0.040 0.77-0.245 1.095-0.473 1.429-0.976 2.851-1.959 4.282-2.931zM11.986 12.453c0.058 0.39 0.063 0.786 0.096 1.179 0.007 0.16 0.038 0.33-0.024 0.484-0.080 0.158-0.232 0.258-0.368 0.361-1.43 1.054-2.848 2.126-4.283 3.173-0.212-0.195-0.532-0.376-0.52-0.705-0.007-0.404 0.403-0.607 0.68-0.819 1.369-0.993 2.734-1.992 4.097-2.992 0.225-0.144 0.409-0.403 0.321-0.682zM21.303 13.93c0.026-0.44 0.083-0.878 0.124-1.317 0.012 0.141 0.088 0.256 0.209 0.328 2.062 1.494 4.133 2.976 6.196 4.469 0.166 0.14 0.401 0.224 0.61 0.13 0.15-0.093 0.272-0.223 0.402-0.341 0.746-0.699 1.513-1.375 2.257-2.076 0.27-0.245 0.559-0.472 0.793-0.755-0.152 0.442-0.252 0.904-0.435 1.332-1.051 1.011-2.14 1.981-3.205 2.978-0.161 0.17-0.442 0.166-0.622 0.030-2.070-1.511-4.134-3.029-6.204-4.54-0.076-0.052-0.142-0.141-0.124-0.239zM16.618 14.9c0.201-0.159 0.445-0.286 0.709-0.259 0.396 0.002 0.674 0.312 0.976 0.522 0.233 0.169 0.524 0.359 0.521 0.684-0.006 0.302-0.282 0.475-0.486 0.652-0.169-0.141-0.339-0.283-0.517-0.411-0.236-0.18-0.557-0.209-0.838-0.139-0.241 0.068-0.425 0.249-0.615 0.403-1.34 1.067-2.685 2.13-4.024 3.199-0.289 0.222-0.708 0.255-1.035 0.099-0.27-0.162-0.476-0.407-0.724-0.598-0.178-0.126-0.297-0.327-0.297-0.547-0.010-0.308-0.115-0.614-0.084-0.92 0.172 0.223 0.406 0.383 0.615 0.569 0.148 0.127 0.297 0.266 0.487 0.327 0.328 0.108 0.7 0.031 0.969-0.181 1.449-1.13 2.892-2.268 4.342-3.399zM22.452 16.181c0.096 0.135-0.003 0.315-0.007 0.468-0.073 0.296 0.001 0.668-0.261 0.885-1.356 1.161-2.714 2.321-4.072 3.48-0.341-0.227-0.449-0.756-0.127-1.047 1.482-1.27 2.991-2.509 4.467-3.786zM3.185 17.229c0.264 0.284 0.567 0.527 0.846 0.793 1.013 0.925 2.023 1.853 3.038 2.775 0.25 0.247 0.526 0.539 0.907 0.533 0.584 0.042 0.969-0.465 1.406-0.764 0.266-0.176 0.396-0.492 0.309-0.803 0.081 0.068 0.041 0.197 0.064 0.288 0.021 0.392 0.115 0.776 0.141 1.168-0.039 0.361-0.369 0.569-0.627 0.776-0.316 0.238-0.634 0.569-1.068 0.521-0.311 0.014-0.541-0.211-0.753-0.403-1.196-1.11-2.398-2.213-3.595-3.321-0.158-0.149-0.355-0.288-0.395-0.517-0.093-0.348-0.185-0.697-0.272-1.047zM26.49 19.361c0.15 0.004 0.011 0.217 0.014 0.304-0.107 0.304-0.072 0.679-0.317 0.92-2.016 1.859-4.027 3.722-6.045 5.577-0.231 0.233-0.586 0.299-0.898 0.224-0.358-0.098-0.594-0.408-0.88-0.623-1.3-1.128-2.606-2.248-3.907-3.373-0.207-0.186-0.485-0.358-0.524-0.657-0.035-0.418-0.035-0.838-0.067-1.255 0.003-0.092-0.037-0.208 0.050-0.273 0.021 0.215-0.079 0.475 0.1 0.644 0.244 0.272 0.553 0.474 0.821 0.721 1.359 1.167 2.729 2.323 4.091 3.488 0.281 0.23 0.679 0.273 1.019 0.17 0.253-0.088 0.427-0.302 0.621-0.473 1.98-1.792 3.934-3.614 5.923-5.394zM9.418 23.288c-0.040-0.339-0.165-0.688-0.057-1.026-0.060 0.233-0.074 0.516 0.112 0.699 0.277 0.287 0.581 0.546 0.876 0.815 1.423 1.302 2.843 2.608 4.269 3.907 0.269 0.247 0.525 0.51 0.821 0.725 0.411 0.275 0.99 0.174 1.323-0.177 0.372-0.359 0.786-0.678 1.123-1.069-0.017 0.35-0.023 0.703-0.063 1.052-0.008 0.11-0.101 0.18-0.172 0.252-0.333 0.305-0.662 0.614-0.997 0.917-0.353 0.333-0.977 0.355-1.322-0.004-1.887-1.711-3.743-3.457-5.623-5.176-0.262-0.23-0.222-0.605-0.291-0.915zM7.088 9.057c0.281-0.094 0.609-0.052 0.847 0.13 1.167 0.918 2.338 1.832 3.506 2.748 0.192 0.16 0.432 0.285 0.545 0.519 0.088 0.278-0.096 0.538-0.321 0.682-1.364 1-2.728 1.999-4.097 2.992-0.064-0.107-0.13-0.212-0.199-0.315-0.59 0.092-1.187 0.014-1.779 0.056-0.023 0.088-0.045 0.177-0.067 0.266-0.54 0.023-1.093 0.065-1.627-0.038 1.367-1.001 2.772-1.95 4.142-2.948 0.206-0.141 0.446-0.333 0.407-0.615-0.079-0.352-0.457-0.493-0.69-0.73-0.328-0.322-0.874-0.341-1.239-0.071-1.431 0.971-2.853 1.955-4.282 2.931-0.325 0.228-0.671 0.514-1.095 0.473-0.487-0.038-0.762-0.495-1.114-0.773-0.216-0.291-0.024-0.683 0.26-0.845 2.062-1.37 4.125-2.738 6.189-4.106 0.194-0.135 0.386-0.283 0.615-0.355zM24.897 9.793c0.344-0.184 0.778-0.113 1.087 0.112 1.869 1.252 3.747 2.491 5.617 3.74 0.233 0.147 0.411 0.45 0.291 0.724-0.233 0.283-0.523 0.51-0.793 0.755-0.744 0.701-1.511 1.377-2.257 2.076-0.13 0.118-0.252 0.248-0.402 0.341-0.209 0.094-0.445 0.010-0.61-0.13-2.062-1.493-4.133-2.975-6.196-4.469-0.121-0.071-0.197-0.187-0.209-0.328 0.037-0.088 0.106-0.156 0.178-0.215 1.105-0.86 2.181-1.756 3.293-2.605zM16.243 12.408c0.23-0.167 0.439-0.377 0.717-0.462 0.293-0.080 0.624-0.028 0.867 0.159 1.483 1.091 2.961 2.188 4.446 3.277 0.245 0.167 0.317 0.49 0.22 0.763-0.010 0.009-0.031 0.028-0.041 0.037-1.476 1.277-2.985 2.516-4.467 3.786-0.322 0.291-0.214 0.819 0.127 1.047 0.296 0.216 0.556 0.482 0.873 0.668 0.35 0.194 0.804 0.134 1.101-0.13 1.443-1.257 2.879-2.522 4.32-3.781 0.397-0.281 0.961-0.175 1.302 0.148 0.307 0.27 0.761 0.428 0.909 0.838 0.079 0.188 0.005 0.388-0.068 0.564-0.015 0.010-0.044 0.029-0.059 0.040-1.989 1.78-3.943 3.602-5.923 5.394-0.194 0.172-0.368 0.386-0.621 0.473-0.341 0.103-0.738 0.060-1.019-0.17-1.362-1.165-2.732-2.321-4.091-3.488-0.268-0.247-0.577-0.448-0.821-0.721-0.179-0.169-0.079-0.429-0.1-0.644 0.102-0.261 0.367-0.405 0.572-0.579 1.281-1.047 2.57-2.082 3.851-3.128 0.204-0.177 0.48-0.35 0.486-0.652 0.003-0.325-0.288-0.515-0.521-0.684-0.302-0.21-0.58-0.52-0.976-0.522-0.264-0.027-0.509 0.1-0.709 0.259-1.449 1.131-2.892 2.268-4.342 3.399-0.269 0.212-0.642 0.289-0.969 0.181-0.19-0.061-0.339-0.2-0.487-0.327-0.209-0.185-0.443-0.346-0.615-0.569-0.124-0.267-0.025-0.599 0.207-0.774 1.944-1.467 3.888-2.934 5.831-4.403z"></path>
</svg>
