<!-- Generated by IcoMoon.io -->
<svg version="1.1" xmlns="http://www.w3.org/2000/svg" width="35" height="32" viewBox="0 0 35 32">
<path d="M34.527 32.060c-0.161 0.161-0.338 0.241-0.563 0.241s-0.402-0.080-0.563-0.241-0.225-0.338-0.225-0.563 0.080-0.402 0.225-0.563c0.161-0.161 0.338-0.225 0.563-0.225s0.402 0.080 0.563 0.225c0.161 0.161 0.241 0.338 0.241 0.563 0 0.209-0.080 0.402-0.241 0.563zM33.481 31.014c-0.129 0.129-0.193 0.29-0.193 0.483s0.064 0.354 0.193 0.483 0.29 0.209 0.483 0.209 0.354-0.064 0.483-0.209c0.129-0.129 0.193-0.29 0.193-0.483s-0.064-0.354-0.193-0.483-0.29-0.193-0.483-0.193c-0.177-0.016-0.338 0.048-0.483 0.193zM33.964 31.046c0.113 0 0.193 0.016 0.241 0.032 0.097 0.032 0.129 0.113 0.129 0.225 0 0.080-0.032 0.129-0.080 0.177-0.032 0.016-0.080 0.032-0.129 0.048 0.064 0.016 0.113 0.032 0.145 0.080s0.048 0.097 0.048 0.129v0.193h-0.145v-0.113c0-0.097-0.032-0.161-0.080-0.193-0.032-0.016-0.097-0.032-0.177-0.032h-0.113v0.338h-0.161v-0.869h0.322v-0.016zM34.125 31.191c-0.032-0.016-0.097-0.032-0.193-0.032h-0.129v0.306h0.145c0.064 0 0.113 0 0.145-0.016 0.064-0.016 0.097-0.064 0.097-0.129s-0.032-0.097-0.064-0.129v0zM28.716 0.286h-22.551c-3.396 0-6.165 2.688-6.165 5.972v20.040c0 3.332 2.672 5.956 6.101 5.956h22.567c3.429 0 6.101-2.624 6.101-5.956v-20.040c0-3.348-2.656-5.972-6.052-5.972zM34.076 26.298c0 2.962-2.382 5.264-5.425 5.264h-22.551c-3.042 0.016-5.408-2.302-5.408-5.264v-20.040c0-2.962 2.398-5.296 5.473-5.296h22.567c3.010 0 5.36 2.318 5.36 5.296v20.040h-0.016zM29.859 19.312h-4.362l-0.692-4.346-2.543 4.314h-0.483c-0.29-0.499-0.402-1.223-0.402-1.674 0-0.74 0.048-1.465 0.048-2.415 0-1.256-0.37-1.915-1.352-2.157v-0.032c2.076-0.29 3.026-1.674 3.026-3.606 0-2.752-1.835-3.348-4.233-3.348h-6.455l-2.736 12.942h3.429l0.998-4.716h2.286c1.223 0 1.722 0.596 1.722 1.738 0 0.869-0.097 1.561-0.097 2.221 0 0.241 0.048 0.821 0.225 1.046l2.479 2.624-2.141 4.588 4.571-2.72 3.412 2.624-0.628-4.33 3.928-2.753zM17.416 11.859h-2.736l0.66-3.123h2.543c0.901 0 1.851 0.241 1.851 1.336 0 1.4-1.078 1.787-2.318 1.787zM23.211 23.014l-3.187 1.899 1.465-3.123-1.771-1.867h2.913l1.835-3.107 0.499 3.139h2.897l-2.608 1.819 0.467 3.187-2.511-1.948z"></path>
</svg>
