<?xml version="1.0" encoding="UTF-8"?>
<svg id="Layer_2" xmlns="http://www.w3.org/2000/svg" viewBox="0 0 396.53 277.78">
    <g id="Layer_1-2">
        <path
            d="M43.45,269.38c-17.09-4.63-30.41-18.25-35.34-35.05C0,203.34,0,138.74,0,138.74c0,0,0-64.59,8.11-95.29C13.03,26.36,26.36,13.03,43.45,8.4,74.15,0,198.12,0,198.12,0c0,0,124.26,0,154.96,8.4,17.38,4.63,30.41,17.96,35.05,35.05,8.4,30.7,8.4,95.29,8.4,95.29,0,0,0,64.59-8.4,95.59-4.64,16.8-17.67,30.41-35.05,35.05-30.7,8.4-154.96,8.4-154.96,8.4,0,0-123.97,0-154.67-8.4h0ZM158.73,198.41l102.83-59.67-102.83-59.38v119.05Z"
            style="fill:#f03;" />
        <polygon points="158.73 198.41 261.56 138.74 158.73 79.36 158.73 198.41" style="fill:#fff;" />
    </g>
</svg>