<svg xmlns="http://www.w3.org/2000/svg" width="920pt" height="500pt" viewBox="0 0 920 500"><path fill="#fff" stroke="#fff" stroke-width=".1" d="M445 299.3c2.5-2.4 6.3-1.3 9-3l-1.3 2.1a62 62 0 0 1-7.6.9z"/><g fill="#123053" stroke="#123053" stroke-width=".1"><path d="M111.7 110.4c1.9-3.7 6.3-5 10.2-4.9H208c14.1.5 29.7 4.2 38.8 15.9a37.3 37.3 0 0 1-8.7 51.7 45 45 0 0 1 14.8 63.7c-6.9 10-18 16.6-29.8 19.2-8.8 2.1-18 1.6-27 1.7H122c-3 0-6-.5-8.4-2.4-4.8-4-3.7-13.3 2.6-15.3 3.1-1.4 6.3.3 9.2 1.4 2.5 1 6.3-.2 6-3.4l-.1-113c.1-3.5-4-4.2-6.5-3-2.5 1.3-5.5 2.5-8.4 1.4-5.1-1.6-7.4-8.4-4.7-13m4.7 1.1c-2.6 2.5-1.4 7.8 2.6 8 3.3-1.2 6.5-3 10.1-2.2 4.3.2 7 4.6 6.7 8.7v111c.2 3.6-1.4 7.6-5 8.7-4.1 1.6-8-.6-11.8-1.9-3.6 0-5 4.7-3.1 7.3 1.3 2 4 2 6.1 2.1h86c9.5 0 19.2-2 27.6-6.8a39 39 0 0 0 17.5-19.5 41.6 41.6 0 0 0-3-36 41 41 0 0 0-22-17.5 32.2 32.2 0 0 0 16-13.3c7.5-11.7 7-29-3.4-38.8-8.8-8.7-21.8-11-33.7-11.2h-84c-2.3 0-4.8-.1-6.6 1.4zM260 105.9c1.6-.4 3.3-.4 5-.4h62c3 0 6.4.7 8.6 2.9 4.5 4.4 2.8 13.6-3.7 15.1-4.2 1.6-7.7-2.7-12-1.9-2.3.5-2.6 3.3-2.5 5.3v79c0 8.4 1.3 17.4 6.8 24 4.7 5.8 12.6 7.7 19.8 7.6 6.4 0 13.1-2.2 17-7.5 5-6.5 6.3-15 6.5-23v-81c.1-1.7-.4-4.2-2.4-4.3-4.3-1-7.8 3.4-12 1.9-6.2-1.5-8.2-10-4.3-14.6 2.2-2.7 5.9-3.4 9.2-3.5h37c3.8 0 8 1.2 10 4.6 3 5 .3 13-5.9 13.6-4.1 1-7.4-3.4-11.5-1.9-2.2.7-2 3.3-2.1 5.1v76c-.5 15-3 31-13.1 42.6-10.4 12-27.1 16-42.4 16-13 .5-27-1.6-37.7-9.6a46 46 0 0 1-16.3-25.7 94 94 0 0 1-2.8-25.1v-74.2c-.2-1.8-.1-4.5-2.3-5.1-4.2-1.4-7.8 3.3-12 1.8-6.6-1.2-8.6-10.4-4.3-15 1.4-1.5 3.4-2.3 5.4-2.7m1.2 4.3c-5.6-.2-6 9.4-.3 9.3 4-1.9 8.7-3.5 12.9-1.3 3.2 1.6 3.8 5.6 3.8 8.8v60c0 11.3-.6 22.7 1.7 33.8 2 10.7 7 21.4 16.1 27.8 10.5 7.7 24 9 36.6 8.5 12.8-.5 26.7-3.6 35.8-13.2 9.8-10.3 12.5-25.2 13-39v-77c.2-3 .3-6.3 2.6-8.6 2.6-2.6 6.8-2.5 10-1.5 2.1.6 4.3 2.6 6.4 1 2.2-1 2.2-4 1.6-6-1-2.4-4-2.6-6.3-2.7H360c-2.3 0-4.7 0-6.8.9-3.2 2-2.3 8.3 1.9 8.5 4-1.6 8.7-3.6 12.9-1.4 3.4 1.6 4 5.6 4 8.9.1 21 0 42 0 63-.1 12.6 1.3 26-4.3 37.7a23.9 23.9 0 0 1-17.8 13.7c-9.8 1.4-21 0-28-7.4-7.4-7.6-9-18.8-9-29-.2-25.7 0-51.3-.1-77 0-3.4.3-7.6 3.7-9.6 3.9-2.4 8.7-1 12.6 1 4.5.8 6.1-6 2.8-8.3-2.4-1.3-5.3-1-8-1-20.9.1-41.8-.3-62.7.1zM411.2 109.3c2.1-3.1 6.3-3.7 9.8-3.8h63c3.5 0 7.4 1 9.5 4 4 4.8 1 13.5-5.4 14.2-4.2 1-7.8-3.7-12-1.7-1.6.7-1.5 2.5-1.6 4 0 37.9.2 75.7 0 113.6 7.4.5 15 0 22.6.2 5.7-.1 11.7.7 17.2-1.6 3.6-1.5 5.3-5.5 5.7-9.2 1-4.8-1.8-10.2 1.4-14.6 3.9-6.1 14.8-5.2 17 2 1.8 7.3-2.2 14.3-3 21.5-1.4 5.6.3 11.4-.1 17-.3 4.2-4.1 8-8.3 7.8-4.8.3-7.2-5.6-12-5h-95c-3.3 0-7-1-9-4-3.4-4.8-1.1-12.8 5-14 4.2-1.4 7.7 3.2 12 1.9 1.8-.6 2.3-3 2.2-4.6V134c0-4 .3-7.9-.7-11.7-4.9-2.7-9.2 3-14.1 1.2-5.8-1.6-7.7-9.6-4.2-14.2m7 1c-5.4-.2-5.8 9.3-.2 9.1 3.8-1.7 8-3.2 12.2-1.6 3.6 1.4 4.6 5.7 4.5 9.2v109c0 3-.4 6.7-3.1 8.6-3 2.1-7.2 2-10.5.5-1.5-.6-3.2-1.8-4.9-.8-2.3.8-2.4 3.6-2 5.7.5 2.5 3.6 3.2 5.9 3.2h95c3.7-.2 6.9 1.9 9.6 4.1 2 2 5.8.5 6-2.3.5-5.3-1-10.7 0-16 .5-6.8 3.9-13.1 3.8-20-.2-4.6-7.3-5.8-9.5-2-1.3 2.5-.3 5.4-.4 8 .3 6.1-1.4 13.2-7 16.5-6.6 3.8-14.4 2.7-21.6 2.8-7.3-.2-14.7.4-22-.3-2.7 0-4.1-2.5-3.9-5V127c0-2.5 0-5.2 1.8-7.1 2.5-3.1 7-3.2 10.5-2.1 2 .5 4.3 2.6 6.4 1 2.2-1.1 2.2-4 1.5-6.1-1.2-2.8-4.8-2.5-7.3-2.6-21.6.1-43.2-.3-64.8.2z"/><path d="M540.5 109.5c2-3 6-4 9.5-4h63c3.5 0 7.6.7 9.8 3.8 3.6 4.7 1.5 13-4.7 14.3-4.5 1.6-8.4-3.8-12.9-1.5-1.6 1.4-1.4 3.9-1.5 5.9v93c0 6.2-.3 12.5.2 18.7 10.8.3 21.5 0 32.2.1 4.7-.1 10.3-1.7 12.2-6.5 2.3-5.2.4-10.9 1.2-16.2 1.3-5.8 8.4-8.3 13.5-6a9.5 9.5 0 0 1 5.3 9.9c-.6 6.8-3.6 13-4 19.9-.5 4.7.6 9.4.3 14-.3 4.7-4.9 8.7-9.5 7.7-4-.2-6-5.1-10.1-5h-95c-4 .1-8.7-1-10.3-5-2.3-4.8-.2-11.6 5.3-12.9 4.4-1.5 8.2 3.3 12.6 1.8 1.6-.9 2-2.9 2-4.5V126c0-1.8-.5-4.2-2.6-4.3-4-1-7.1 3-11.1 2-6.5-.7-9.2-9.4-5.4-14.2m3.5 2.6c-1.7 2.7-.5 7 3 7.4 4-1.7 8.6-3.5 13-1.5 3 1.4 4 4.9 4 8v108c0 3.4.2 7.2-2.2 9.9-2.5 2.4-6.5 2.8-9.7 1.8-2.4-.7-5-2.9-7.4-1-3 2.8-1.1 8.7 3.3 8.4 32 .3 64 0 96 .2 2.7 0 5.4.4 7.5 2.1 1.9 1.2 3.9 3.8 6.4 2.5 2.9-1.5 2.5-5.2 2.2-7.9-.9-6-.4-12.2 1.2-18.1 1-4.6 3-9 2.3-13.8-1.3-4.9-9.7-4.2-10 1 .4 6.3 1.1 13.3-2.8 18.8-3.7 5.3-10.8 6.4-16.8 6.4-10-.1-20 .3-30-.2-2.9.2-4.9-2.3-4.6-5-.2-37 0-74-.1-111.1 0-3.3.1-7.4 3.2-9.4 3.8-2.6 8.8-1.4 12.6.5 2 1 3.7-.8 5-2-.4-2 .2-4.3-1.4-5.7-1.6-1.3-3.8-1.2-5.7-1.3h-62c-2.4.1-5.4-.1-7 2zM637.3 109.4c2.1-3 6.2-3.8 9.7-3.9h69c3.4 0 7.3 1 9.4 4 1.9 2.6 2 6 1 9a8.1 8.1 0 0 1-10.3 4.8c-2.2-.7-4.2-2-6.6-1.8.7 2 1.5 3.8 2.7 5.5 8.6 12.8 17.3 25.6 25.8 38.5l19.3-32.2c2.2-3.6 3.8-7.5 4-11.7-4-.8-7.3 3.3-11.5 2-7.2-1.1-8.8-11.9-3.3-16 2.7-1.9 6.2-2.1 9.5-2h43c4 0 8.4 1.7 9.8 5.7 2.1 4.7-.6 11.4-6 12.3-3 1-5.9-1.1-8.8-2-2.8-.5-5.4 1.1-7.6 2.8-5.1 4.2-8.7 10-12.3 15.6-8.9 14.6-17.6 29.3-26.6 43.9v54c0 1.6.9 3.5 2.5 3.7 3.9 1 7-2.8 11-2 5.7.4 8.7 7.3 6.6 12.3-1.3 4-5.8 5.8-9.6 5.8h-64c-3.4 0-7.3-.6-9.5-3.3-4-4.7-1.9-13.6 4.5-14.7 4.3-1.5 7.8 3.2 12 1.9 2-.5 2.2-2.9 2.2-4.5V193c.2-1.5-.5-2.8-1.3-4l-42.5-61.5c-1.6-2-3.1-4.4-5.5-5.7-3.9-1.3-7 2.9-11 2-6.5-.7-9.5-9.4-5.6-14.4m4.1 2.2c-2.9 2.6-.7 9 3.6 7.6 3.6-1.7 8.1-3.1 11.9-1 4.3 3 6.7 7.9 9.8 12l39.2 56.9c1 1.4 1.9 3 1.7 4.8v43c0 2.8.2 5.9-1.5 8.2-2 3-6 3.3-9.1 3-2.8-.6-5.7-3.4-8.5-1.4-2.2 1.8-2.2 5.9.3 7.5 2.2 1.3 4.8 1 7.2 1 21-.1 42 .2 63-.1 5.7.3 6.4-8.4 1-9.5-3.4 1.5-7.1 3.4-11 2.3-3.7-.6-6-4.3-5.8-7.9-.1-17.7 0-35.3 0-53a7 7 0 0 1 1.2-4.6l23-38c4.3-7.1 8.6-14.4 14.7-20.3 3.8-3.6 9.2-6.1 14.4-4.4 2.1.6 4.2 2.5 6.5 1.3 2.7-1.7 2.7-6.5 0-8.1-2.6-1.1-5.4-.8-8-.8-14.3.1-28.6-.3-42.9.1-4.4-.3-6.2 6-2.7 8.5 2.5 2 5.1-.8 7.6-1.3 2.5-.3 5.5-.7 7.4 1.2 1.4 1.7 1.2 4.2 1 6.4-1.2 6.6-5.3 12.1-8.6 17.8l-18.6 31-27.7-41.3c-2.2-3.5-5.5-7-5-11.5.2-2.7 3-4.1 5.5-3.8 2.9-.3 5.2 2 8 2.2 4.3-.3 4.8-7.2 1-8.7-2-.6-4-.6-6-.6h-67c-2 .1-4.1 0-5.6 1.5zM145.6 119.1c2.7 0 5.3.1 8 .3-.3 41.5 0 83.1-.2 124.7h-7.8v-125zM171.2 118.9c10.8.4 22.4-1.7 32.5 3.5 6 2.8 10.1 9 11.1 15.5 1.3 7.8-.2 16.5-5.4 22.6-5 5.9-12.8 8.8-20.4 8.7h-17.8v-50.3m4.5 4.6v41.2c4.8-.1 9.6 0 14.3 0 5.9-.1 11.8-2.4 15.8-6.9 4.7-5.2 5.7-13 4.5-19.7-1-5.5-4.8-10.3-10-12.4-7.8-3.4-16.4-2-24.6-2.2zM287.2 119.2h7.9c.2 31-.2 61.9.1 92.8 0 11 2.5 22 8.2 31.3a32.3 32.3 0 0 1-13.1-16.6c-2.8-7.2-3.2-15-3-22.7v-84.8zM444.3 119.2h8v125c-2.7 0-5.4 0-8-.2V119.2z"/><path d="M573.6 119.2h8c-.2 41.7 0 83.4-.2 125h-7.7v-125zM669.8 119.3h6.8c14 20 28 40 42.6 59.5 2.4 3.5 6.2 6.6 5.9 11.3v46.8c0 2.4.2 4.7-.3 7-2.5.4-5 .2-7.6.2V192a12 12 0 0 0-2.4-7.8c-15-21.6-29.8-43.3-45-64.8zM219.4 125c6.3 5.1 12.8 12.3 12.1 21-1.8 7.7-7.6 13.9-13.6 18.8a35.8 35.8 0 0 0 1.5-39.7zM171.2 178c10.7.3 22-1.6 32.1 2.7 9.7 4 16 14 16.7 24.3.7 8.8-.5 18-5.3 25.6A29.3 29.3 0 0 1 196 243c-8.2 2-16.6 1.1-24.9 1.4V178m4.5 4.5v57.3c10 .1 21 .6 29.4-5.6 8.1-5.5 10.7-16 10.7-25.3.3-9.3-4.4-19.4-13.1-23.6-8.4-4.3-18-2.4-27-2.8zM220.8 182.3c8.4 6.4 16.4 15.6 16.3 26.7a41.9 41.9 0 0 1-15.2 27 49.8 49.8 0 0 0 6-40c-1.3-5-4.3-9.3-7.1-13.7zM453.4 274.7c1.1-3.5 2.5-7 5.3-9.5 2.5 2.7 4 6 5 9.5 3-.3 6 .4 8.1 2.5 1.7 1.8 4.2 1.7 6.4 2.2 9.5 2 17.8 8.6 27.8 8.4 41 2.8 82 2.5 123 3.3 44.7.5 89.4.5 134 .6 2.5 0 5-.5 7.3-1.4l.5.9c-2 2.8-5.6 3.2-8.8 3.2-54 0-108-.1-162-.9-22.3 0-44.7-.8-67-1.4-10.8-.6-21.6-.6-32.3-2-9.6-2.3-18.4-8.9-28.7-8.2-5.5 0-9.7 5.6-8.7 11 1.1 4 6.6 5.9 9.9 3.3 1.1-1.3 2-3.6.8-5-2-1.2-3.5 1-5.1 1.8-3-2.6 1.3-5.9 4.1-5.6 8.1.4 15.5 4.2 23.2 6.3 5.2 1 10.6.8 15.8 1 26.4 1 52.7 1 79 1.5 57.6.5 115.3.7 172.9.5 2.7 0 5.2-1.3 7.6-2.4-2 9.7 2.6 18.8 5 27.9 1 2.5-.2 7-3.7 5.3l2.3-2.5-2.2-1.4c-2.1 1.6-2.3 4-1.3 6.4-1 2.3-.9 4.8 1.3 6.3l2-1.2c-.5-1-2.3-2-1.1-3.3 3.7.5 3.2 4.8 2.3 7.4-2.6 8.6-6.3 17.3-4.6 26.4a19.2 19.2 0 0 0-8.5-2.5c-55.3-.1-110.6.3-166 .6-31.3.4-62.7.6-94 1.8-10.5 0-19.6 6.7-30 7-2.6.3-6.6-2.5-4.6-5.1 1.9-.5 2.9 1.7 4.6 2 2.2-1 1.6-3.4.8-5-1.4-1.9-3.8-1.6-5.8-1.8l1-1.8-4.6.4-1.3 2h2.7c-5.4 4.6-1.5 14 5 14.7 8.5 1.2 16.3-3.2 23.9-6.1 5.4-2.5 11.4-2.5 17.2-3 21.4-1.3 42.8-1.5 64.1-2 59-1 118-1.2 177-1.4 5.8.3 12-.7 17.4 2v.6l-1.3 1.5a14.2 14.2 0 0 0-7-1.2c-71.8 0-143.5.4-215.1 2-15.9.5-31.7.7-47.5 2.5-8 2.3-15.2 6.9-23.5 8.2-2.7 0-4.4 2.3-6.6 3.5-1.6.9-3.6.7-5.5.8a24.4 24.4 0 0 1-5.3 9.6 22 22 0 0 1-5.2-9.6c-3.8.7-6.9-1.5-9.7-3.7-8-1-15.5-4.5-22.9-7.6-3.7-1.6-7.9-1.5-11.8-2-22.3-1.5-44.7-1.7-67-2.4-62-.8-124-1.4-186-1.3-3.4.2-7.2-.6-10.3 1.3l-.9-1.8.3-1.2c3.5-.6 7-1.1 10.6-1.1 22.7-.2 45.5.2 68.3 0 22 .6 44 0 66 .6 31.8.3 63.6.9 95.3 1.8 10.3.6 20.7.5 31 2 8.7 2.3 16.6 7.6 25.7 8.3 3.7.1 8-.9 9.9-4.3 1.4-2.7 2.5-6.5.1-9-2.3-2.6-7.2-3.4-9.3-.2-.6 1.2-1.3 3.7.4 4.3 1.6 1 2.7-1 3.8-1.8l2 .5c-.3 2.6-2.1 4.9-5 4.8-10 0-18.9-6.5-29-7-8.2-.4-16.5-.4-24.8-.8-79-1.4-158-1.6-237.1-1.6a20 20 0 0 0-9.8 2.5c1.6-7.9-1-15.7-3.5-23-1-3.5-3-8 .1-11l2.4 1.4-2.6 1.2c.8 1 1.6 2.4 3.1 1.4 1.9-1.4.8-3.7.7-5.6 0-1.7 1.2-4-.3-5.2-1-1.2-2.4-.3-3.5-.1l2.4 2.8c-3 1.5-4.8-2-3.8-4.5 2.1-9.4 7.2-18.7 5.1-28.7 2.5 1.1 5 2.4 7.7 2.4 80.6.3 161.1 0 241.7-1.5 8.4-.5 17-.3 25.3-1.1 8.2-1.6 15.7-5.7 24-6.6 2.3-.2 5.1.2 6.3 2.4 1 1.3-.5 2.5-1.2 3.6l-2.1-3.1c-1.7.4-3.6 1.2-2.8 3.3.9 5.6 10 4 11-.8.8-4.3-1.8-9.4-6.3-10.5-5.6-1.7-11.2.4-16.4 2.3-6 2-11.8 5.6-18.4 5.8-18.6 1.6-37.3 1.9-56 2.3-23 .8-46 .7-69.1 1-44.7.6-89.4.6-134 .6-3.5 0-8-.4-9-4.3 2.3.8 4.6 1.6 7 1.5 59.7.1 119.4-.1 179-1 27.7-.7 55.4-.8 83-3 6.5-.1 12-3.7 18-5.8 4-1.7 8.4-2.8 12.8-3.4 2.7-2.2 5.8-4.4 9.6-3.7m1.7 3.4c-2.5-.8-5-.2-6.8 1.8 2.6 1.1 5.5 2.3 7 5 2.6 4 1.3 9.1-.7 13.2.5 2 2 3.7 3.6 5 1.6-1.2 3.4-2.8 3.3-5-1-3.8-2.7-7.9-1-11.7 1.1-3.3 4.2-5 7.2-6.4-.6-2.5-4.3-2.3-6.4-2.2-.6-2.8-1.4-5.5-3.2-7.7a33.5 33.5 0 0 0-3 8m-21 21.4c2.6 0 5-.5 7.5-1.2a12 12 0 0 1-3-4.4 28.4 28.4 0 0 0-4.4 5.6m43.7-5.6c-.6 1.7-1.7 3-2.9 4.5 2.4.6 4.9 1.1 7.4 1.1-1.2-2-2.7-4-4.5-5.6m-32.8 5.4a62 62 0 0 0 7.6-.9l1.4-2.2c-2.8 1.8-6.6.7-9 3m18-2.6l1 2 5 .8c-1-2.3-4-1.9-6-2.8m-285.6 19.8c-3.5 2.5-3.9 8-1.2 11.3 2.8 3.7 7.9 4.8 10.7 8.4 2.5 3.8-1.6 9.6-6 8-4.7-1-6-6-6.2-10.2l-1.5.7c0 3.6 1.6 7 .8 10.6 4.6-1.2 9.1 2.6 13.8.7 5.8-1.1 8.8-8.5 5.8-13.5-2.7-5.1-9.3-6-12.6-10.5-2-3.1 2.3-6.9 5.4-5.3 3.7 1.2 3.7 5.6 3.9 8.8l1.6-.5c.2-3.1 0-6.2.2-9.3-2.4 1.2-4.7-.9-7.1-1-2.7-.1-5.5 0-7.6 1.8m22.3 5.4c-5.4 7.8-1.9 20 7.1 23.4 7 3 14.8.1 20.5-4.4-.2-2.3 1.5-6-1.3-7 1 6.6-6.5 11.5-12.4 9.5-6.4-1.8-9.4-9.2-8.4-15.4.5-6.5 6.8-13 13.7-11 4.7.6 7.6 5.1 7 9.7l1.2-.7c.6-3.2-.1-6.5.1-9.8-1.5.3-3.1 1-4.6.2-7.6-3.4-18-1.6-23 5.5m81.7-6.1a15.8 15.8 0 0 0-5 27.1c6 4.4 14.8 4.8 21.2.7 6.9-4 9.1-13.6 5.4-20.5-4-7.5-14-10-21.6-7.3m65 2.1l1.7 4c-2.4 6.8-4.4 13.6-7 20.3-.5 2.2-3.1 1.8-4.8 1.5-.8 2.8 3.1 1.5 4.7 1.9 2-.4 5.3 1 5.8-1.7h-3.6c.4-3.3 1.8-6.3 2.8-9.4l7.3-.1c1.5 3 3 6.1 3.7 9.4h-3.7l.6 1.4c5 .6 10.1.5 15.1 0l.4-1.6-3.5.6c-5.4-9.5-8.2-20.2-13.5-29.7a33.5 33.5 0 0 1-6 3.4m38.6-2.3c-4 .3-8.2-.3-12.3.3l-.8 1.3 4.7.2c-.2 8.8.5 17.8-.4 26.6l-4.2-.3.8 1.5c5 .5 10.2.6 15.2 0l.6-1.5c-1.4-.3-3.5 1-4.3-.6-.5-4.3-.2-8.7-.1-13 1.7.7 3.8 1.2 4.6 3.2 1.4 4 0 9.4 4 12.1 3.2 2.3 8.8-.1 7.6-4.6l-3 2.5c-.9-4.3.1-9.7-4-12.7 5-1.6 6.8-8.6 3.5-12.5-3-3.2-7.8-2.7-11.9-2.5m23.4.9c-3.6 2.7-3.8 8.6-.7 11.8 2.7 3.1 7 4.4 9.8 7.3 2.5 2.6.9 7.7-2.6 8.6-4 1.2-8-2.3-8.5-6.1-.4-1.6 0-4.3-2.4-3.9.5 3.8 1.6 7.4 1.2 11.3l2.7-.7c4.3 1.7 9.6 2.7 13.8 0 4.7-2.8 5.4-10.1 1.7-14-3.3-4-9.3-5-11.9-9.6-.6-3.4 3.7-6.1 6.6-4.3 3.1 1.5 2.9 5.4 3.3 8.3h1.5c.2-3.1 0-6.3.3-9.5-2.5 1.3-4.7-1-7.2-1-2.6-.1-5.5 0-7.6 1.8m76.6.8c1.3.4 4.3-1 4.5 1.1.3 8.4.1 16.9 0 25.3h-4l-.3 1.6c5.4.4 10.8.3 16.2 0l-.2-1.6c-1.4-.1-3.4 1-4-.7-.2-3.4 0-6.7-.2-10.1 4.4.7 9.3 1 13.2-1.6 4.9-3.3 4.4-11.8-.8-14.5-6.3-3.7-13.7-.4-20.4-1.2-1.4.2-4-.6-4 1.7m52-1.4l-.8 1.5 4-.4c1.1 4.3.3 8.7.6 13-.3 4.8.7 9.6-.6 14.2l-3.8-.6.4 1.6c7.7 1 15.6-.5 23.4.8.4-2.7 1.8-5.5 1.5-8.3l-1.3-.8c-.5 1.6-.5 3.5-1.5 5-3 2.7-7.2 1.6-10.7 1.8l.1-14.3c1.5.4 4 .5 4 2.7.3 1.7-.5 4.2 1.9 4.6v-14.8l-1.7-.3c-.1 1.5 0 3.1-.3 4.7-.5 1.8-2.6 1.5-4 1.8v-10.7c3 .1 6-.3 9 .4 2.3 1 1.7 4 2 6l1.5-.2-.5-8.7c-7.6 1.8-15.5 0-23.3 1m85-.8c0 2.9-.2 5.7-.3 8.6h1.4c.3-1.9-.3-4.6 1.8-5.8 2-.7 4.3-.4 6.5-.6 0 8.3.2 16.7 0 25 0 2.4-2.5 1.5-4 1.4l-.4 1.6c5.3.2 10.7.6 16-.1l.4-1.6-3.5.6a6.5 6.5 0 0 1-1.1-4v-22.7c2 0 4.4-.4 6.5.4 2.3 1 1.5 4 1.8 5.9h1.5l-.3-8.9c-4 1.2-8.1.7-12.2.8-4.7-.1-9.5.3-14.1-.6m63.3.3c-2.6.7-5 2-7 3.9-6.4 5.7-6.6 17-.2 22.7a18.8 18.8 0 0 0 25.6-1.3c4.6-5 5-13 1.4-18.6-4-6.5-12.7-8.7-19.8-6.7m-454 2l4.2-.4c1 7.3.1 14.7.5 22-.3 1.6.7 3.9-1 4.9l-3.6-.1.5 1.4c5 .7 10.3.4 15.4 0l.6-1.4c-1.5-.3-3.7 1-4.5-.9-.4-3.8 0-7.6-.1-11.4h12.7c-.2 4.2.7 8.6-.6 12.7l-3.8-.6.5 1.6c5.1.6 10.3.4 15.4.1l.6-1.5h-3c-2 .2-1.6-2.4-1.7-3.7.3-7.7-.6-15.4.5-23l4.3.3-.9-1.6c-5-.2-10-.4-15 .1l-.8 1.3c1.4-.1 2.9 0 4.3.3.5 4 .1 8 .2 12l-12.8-.1c.2-4.1-.5-8.4.7-12.4l4 .4-.6-1.6c-3.8-.3-7.5 0-11.3-.2-1.6.4-4.6-.9-4.6 1.8m76.6-1.4l-.4 1.3c1.5.1 4.8-1 4.4 1.7.3 7.7.2 15.4.1 23.1.3 2.6-3 1.5-4.5 1.7l.4 1.4c8 1.3 16.4-1 24.2 1.3 0-2.9.5-5.8 1-8.6-3.9-1.5-.8 5-4.2 5.4-3 .6-6.2.2-9.3.3-.5-8.1-.2-16.3-.2-24.4-.3-2.9 3.2-1.7 4.9-2l-1.4-1.5c-5 0-10-.4-15 .3m121.3 0l-.6 1.3a13 13 0 0 1 4 .1c.9 1.4.5 3.2.6 4.7 0 6.7.2 13.4 0 20.1.1 2.6-3.1 1.4-4.6 1.7l.6 1.3c3.9.8 7.9.2 11.8.4 1.5-.2 4.3.4 4-2-1.5.1-3 .8-4.3-.3-.3-4 0-7.9-.1-11.8 4.3 0 8.6-.1 12.8 0 0 3.9.3 7.7-.2 11.5-.6 1.7-2.8.6-4 .6v1.5c5.1.8 10.5.7 15.6 0l.6-1.2-4.1-.1c-1-1.8-.6-3.8-.7-5.7.2-6.4-.1-12.7.2-19-.3-2.8 3-1.7 4.6-1.8l-.7-1.3c-5-.6-10.2-.5-15.3-.1l-.6 1.4h4.2c.7 4 .4 8 .4 12.1l-12.8.1c.2-4-.6-8.3.4-12.2l4.3-.1-1.3-1.5c-4.9 0-10-.4-14.8.3m38.2-.1l-.7 1.3h4.5c.5 7.3 0 14.6.3 22-.2 1.5.2 3.3-.7 4.6l-4.2.1 1.4 1.5c5 .2 10.1.4 15.1-.2l.3-1.6-3.6.6c-1.3-2.5-.8-5.4-.9-8 .1-6.4-.2-12.7.3-19l4.3.2-.5-1.6c-5.2-.2-10.4-.4-15.6 0m98.6 1.5l4.3-.2c1 8.3.3 16.6.5 25 .1 2.6-3.1 1.6-4.7 1.8.6 2.3 3.2 1.4 4.9 1.5 7.5-.4 15.9 2 22.6-2.5 8.5-5 8.6-18.6.7-24-6.5-4.8-14.9-2.8-22.3-3.3-2 .3-5.1-1-6 1.7m36-1.4l-.5 1.4c1.5.2 3.6-.9 4.5.8.3 6 0 12 0 18 0 2.7.5 5.6-.7 8.1l-3.7-.6.4 1.6c5.4.6 10.8.4 16.2.1l-.4-1.7c-1.5.3-4.3 1-4.1-1.4-.2-8-.3-16.2 0-24.2 1.2-1.4 3.2-.6 4.8-.8l-.8-1.2c-5.1-.7-10.5-.4-15.6-.1m52.2 0l-.6 1.4h4.3c.7 2.6.4 5.2.5 7.8-.2 6 .2 12-.2 18-1.2 1.8-4.3-.6-4.7 2.1 5.4.4 11 .6 16.4 0l.6-1.5c-1 0-2.9.3-3.8.5-1.4-2.9-.8-6-1-9.1.2-5.7-.1-11.3.2-17 1-1.8 3-.6 4.6-.7l-.5-1.5c-5.2-.3-10.6-.5-15.8 0m54.6 0c.7 2 2.8 1.2 4.4 1.2 1 4.6.3 9.3.5 14-.2 4.3.5 8.7-.6 13l-3.9-.4.4 1.6c3.4.4 6.8.6 10.1-.1l.5-1.4a32 32 0 0 1-4 0c-.8-1.4-.6-3.1-.7-4.7l.1-18.5c7 7.5 13.7 15.4 20.7 23 1 1 2 1.8 3 2.4-.3-9.2-.2-18.5 0-27.7.3-2 2.9-.6 4.3-1l-.7-1.5c-3.2-.2-6.6-.5-9.8.2l-.7 1.3c1.5.2 3.8-1 4.6.9.5 5 .1 10 .2 15-3.5-3.6-6.7-7.5-10-11.3-1.7-1.9-3.7-3.7-4.3-6.2-4.7 0-9.4-.3-14 .3m-187.6 15.3l4.3 8c1.7-2.6 3-5.3 4.5-8l-4.4-8-4.4 8M455 362.8c1.3 3.7 2.6 8.1.5 11.8-1.5 2.9-4.5 4.4-7.3 5.6a6.5 6.5 0 0 0 6.8 1.6c.7 2.8 1.6 5.6 3 8.1 1.8-2.2 2.5-5 3.1-7.7 2.6.2 5.2 0 6.9-2.2-2.8-1-5.6-2.5-7-5.2-2.5-4-1-8.9.6-12.9-.6-2.1-1.8-4-3.6-5.1-1.6 1.6-4 3.5-3 6m-21-2.4c1.3 2 2.8 4 4.5 5.8.8-1.6 1.7-3 2.3-4.7a19 19 0 0 0-6.8-1.1m41 1.2c1.1 1.4 2.1 2.8 2.8 4.5 1.8-1.7 3.5-3.6 4.2-6-2.4.4-4.7 1-7 1.5z"/><path d="M133.7 283.4c1.5-2.8 4.9 0 6.7 1 4-.4 7.7 1.9 10 5-.7 0-2-.4-2.6-.6-2-.8-4.2-1.3-6.4-1.5l-4.7-2.2c-.4 3.1-1.4 6.3-.7 9.5l.6 3.7a12 12 0 0 1-4.2-5.3c-.2-3.2.6-6.4 1.3-9.6zM772.2 284.6c3-.1 5.5-2.6 8.6-2.6.8 3.3 1.5 6.6 1.9 10-.4 2.6-2.3 4.7-4.4 6.3l.5-3c.8-3.5-.2-7-.8-10.4l-4.5 2.4c-2.1.2-4.2.6-6.2 1.5l-3.2.6c2.4-2 4.7-4.7 8-4.8z"/><path d="M138.4 292.8c3.8 0 4 4.3 3.7 7.2-1.1 8.1-6 15-7.4 23-.6 2.6.6 5 2 7-1.4 2-2.6 4.4-2 7 1.5 8.6 7.3 16.1 7.5 25 0 2-.6 5.3-3.2 4.9l-.3-.7c1.7-11.3-7.1-20.6-7.5-31.7-4.5 1.2-9-1.3-12.1-4.4 3.2-3 7.7-5.8 12.2-4.3 0-11.5 9.9-21.3 7.1-33M124 330.4c3 1.5 6.6 1.7 9.5-.4-3-1.7-6.8-2.2-9.5.4zM772.7 297c-.1-2.4 1.4-4.1 3.9-4.3-3.4 11.8 7.4 21.6 7 33.3 4.4-2 9.2 1 12.4 4-3 3.4-7.8 6-12.4 4.4-.1 9.9-7 18-7.9 27.7-.1 1.7.5 3.3.8 5-1.8-.1-3.7-1-3.6-3-1.3-10.1 6.2-18.5 7.3-28.1.3-2.2-1-4.1-2-6 1-1.9 2.3-3.8 2-6-1-9.4-8-17.3-7.5-27m12.8 31.6c-1 .4-3.3.3-3.2 2 2 .9 4.2 1.4 6.3.7.8-.4 2.6-.4 2-1.7-1.6-.6-3.4-1.4-5-1zM282.4 318.5c2.8-3 8.9-3 10.7 1l1.4-1.9-.8 2.1c2-1.7 2.8.6 3.7 1.7a19.3 19.3 0 0 1-.7 19.4l-1.6-2.5c-.7 4.8-6.6 7.9-10.9 5.5-4.2-2.3-5.2-7.5-5.5-11.9-.1-4.6.4-9.9 3.7-13.4m11.9 1.9c2.2 4.3 2.4 9.3 2.1 14l2-.6c-.4-4.1-.8-8.3-2-12.3l-2.1-1.1m3 16.7v-1.2c-1.9-2.5-1.9 3.7 0 1.2zM688.5 316.6c3.2-1 6.6.9 8.2 3.7 2.5 4.1 2.8 9.1 2.3 13.8-.4 3.6-1.7 7.8-5.3 9.7a7.6 7.6 0 0 1-9.4-2.2c-2.9-3.8-3-9-2.8-13.5.2-4.6 2-10.1 7-11.6zM177.2 326.6c-2.2-3.2-1.3-8.5 2.6-10-1.5 2.5-3.7 5.4-1.9 8.3 3 4.5 9.3 5.4 12 10.1 1.8 3.4.6 8-3 9.6 1.4-2.5 3.3-5.5 1.9-8.4-2.6-4.6-8.4-5.6-11.6-9.6zM201.6 339.4c-5.5-7.6-2.2-20.8 7.8-22.4-2.2 2-5.1 3.3-6.6 6a14.6 14.6 0 0 0 2.2 17.9c1.8 1.5 4 2.4 5.8 3.8-3.6-.7-7.2-2.2-9.2-5.3zM237.6 317.5l1.2-.7c0 9 .2 17.8 0 26.7l-1.3.5c0-8.8-.2-17.6 0-26.5zM257.5 317c2.2 0 1.3 2.5 1.6 4-.2 7.7.3 15.5-.3 23.2l-1.2-.8c-.3-8.8 0-17.6-.1-26.4zM313.6 316.8c2.5 0 1.5 2.7 1.8 4.2-.3 7.5.4 15-.3 22.5l-1.4.8c-.3-9.2-.2-18.4 0-27.5zM378.2 317.2h1.6v26.5h-1.6v-26.5zM390 316.8c5.8 2.3 5.2 11.3-.8 13.1 1.2-2 3.2-3.6 3.4-6 .4-2.8-1.5-4.9-2.6-7.1zM408.7 327.3c-2.9-3.1-2.1-9 2-10.6-1.4 2.4-3.7 5.4-1.8 8.2 3 4.5 9.3 5.4 12 10.1 1.7 3.5.4 8-3.3 9.7 1.6-2.5 3.5-5.5 2.2-8.5-2.4-4.3-7.8-5.4-11-9zM434.8 317.2l1.4-.1v27.2l-1.3-1c-.3-8.8 0-17.4-.1-26.1zM454.9 317.1h1.4c0 8.7.2 17.4 0 26l-1.4 1.1v-27zM473 316.8l1.6.7c.2 8.6.2 17.3 0 26l-1.7.7v-27.4zM491.2 317.1l1.5.1c-.1 8.9 0 17.7 0 26.5l-1.5.1v-26.7zM497.1 316.7c3-.2 6.5.5 7.8 3.5 3.2 4.9-1.1 13.2-7.4 10.8-1-4.7-.1-9.5-.4-14.3z"/><path d="M504.5 316.7c5.7 2.8 5.8 12.4-.1 15 1.2-2.4 3.2-4.7 3-7.6.1-2.8-1.8-5-3-7.4zM542.4 317l1.8.3c.3 9 .3 18-.1 27l-1.6-.8c-.2-8.8 0-17.6-.1-26.4zM572.4 316.9l1.4.5c.1 8.7.2 17.4 0 26.1l-1.4.6v-27.2zM607.8 317l1.4.1v26.8h-1.4V317zM632.9 317.4l1.5-.7c0 9 .3 18.2-.1 27.2h-1.4c-.4-8.8-.4-17.7 0-26.5zM660.1 316.7l1.3.9c.4 7.4 0 15 .2 22.4-.2 1.5.6 3.8-1.4 4.3-.4-9.2-.3-18.4 0-27.6zM714.8 316.8c2.8.5 4.2 3.3 6 5.2 5.7 6.6 12 12.8 17.2 19.8-2.2.2-3.2-2-4.5-3.3-6.1-7.4-13-14-18.7-21.7zM348 317.8c2.3.4 2.6 2.9 3.5 4.6 2.9 7.4 6.7 14.4 9 22-2.2-.9-2.6-3.4-3.5-5.3-3-7.2-6.3-14-9-21.3zM383.7 317.1c1.7.2 3.5.1 5 1 3.4 2.2 3.4 8.4-.5 10.1-1.4.8-3 .3-4.6.2V317zM578.1 317.3c2.8 0 5.7 0 8.2 1.4 8.4 4.7 8.4 19 0 23.6a13.8 13.8 0 0 1-8.2 1.3v-26.3z"/><path d="M588 317.7c9.8 3.8 10.2 19.7 1.6 25.1H588c5.3-4.1 7.3-11.6 5-17.8-1-3-3.2-5-5.2-7.3zM278 342c-8-5-7.6-18.7.5-23.2-1.8 3-4.2 6-4.4 9.6-.8 4.9 1.1 9.6 3.9 13.5zM680.4 341.8c-7.6-5-7.4-18.6.8-22.9-1.8 2.9-4.2 5.6-4.4 9.1-1 5 .9 9.8 3.6 13.8zM697.4 318.3c2.8 2.4 4.6 6 4.7 9.7.2 4.3.2 9.2-3 12.5.8-4 2-8.1 1.5-12.3-.3-3.6-2-6.6-3.2-10zM346.5 332.6c.9-2.7 1.8-5.3 2.9-7.8l3.4 7.8h-6.3zM388.3 330c5.8 2.4 3.3 9.6 5.5 14.3-4.6-3.5-1.4-10.4-5.5-14.3zM778.3 361.7c2.2 1.7 4.6 4.2 4.2 7.2-.6 3.2-.5 6.7-2.3 9.5-2-.8-3.8-1.7-5.7-2.7-4.2.3-7.6-2.3-10.5-5.1l3.1.3a13 13 0 0 0 6.4 1.8l4.6 2.2c.4-3.4 1.5-6.8.7-10.2l-.5-3zM132.4 369c-.5-3.3 2.3-5.6 4.2-7.7l-.7 4.1c-.6 3.2.4 6.4.9 9.6l4.5-2.3c1.6-.2 3.2-.3 4.7-1 1.4-.7 3-1.2 4.6-1.3-2 2.2-4.4 4.8-7.7 5-2.9.1-5.3 1.9-8 2.9-2.2-2.6-2-6.2-2.5-9.3z"/></g><g fill="#f7ad29" stroke="#f7ad29" stroke-width=".1"><path d="M116.4 111.5c1.8-1.5 4.3-1.3 6.6-1.4h84c11.9.2 24.9 2.5 33.7 11.2 10.3 9.9 11 27 3.5 38.8-3.7 6-9.5 10.9-16.2 13.3a41 41 0 0 1 22 17.6 41.6 41.6 0 0 1 3.1 36 39 39 0 0 1-17.5 19.4c-8.4 4.8-18 6.7-27.6 6.8h-86c-2.1 0-4.8 0-6.1-2-1.9-2.7-.5-7.4 3.1-7.4 3.8 1.3 7.7 3.4 11.7 1.8 3.7-1 5.3-5 5-8.6V126c.4-4-2.3-8.5-6.6-8.7-3.6-.8-6.8 1-10.1 2.2-4-.2-5.2-5.5-2.6-8m29.2 7.6v125h7.8c.2-41.6-.1-83.2.1-124.7-2.6-.2-5.3-.2-7.9-.3m25.6-.2v50.2c6 .2 11.9.1 17.8.1 7.6 0 15.4-2.8 20.4-8.7a27.7 27.7 0 0 0 5.4-22.6c-1-6.5-5-12.7-11.1-15.5-10-5.2-21.7-3.1-32.5-3.5m48.2 6.2c7.4 12 7.2 28.3-1.5 39.7 6-5 11.8-11.1 13.6-18.9.7-8.6-5.8-15.8-12-20.8m-48.3 53v66.3c8.3-.3 16.7.6 24.9-1.4a29.3 29.3 0 0 0 18.6-12.4c4.8-7.5 6-16.8 5.3-25.6-.8-10.3-7-20.3-16.7-24.3-10.1-4.3-21.4-2.4-32-2.7m49.5 4.3c2.8 4.4 5.8 8.6 7.1 13.7a49.8 49.8 0 0 1-6 40c8-6.7 14.2-16.4 15.2-27 0-11.1-8-20.3-16.3-26.7zM261.2 110.2c21-.4 41.8 0 62.8-.1 2.6 0 5.4-.3 7.9 1 3.3 2.2 1.7 9.1-2.8 8.2-3.9-1.9-8.7-3.3-12.6-1-3.4 2-3.7 6.3-3.7 9.7v77c.2 10.2 1.7 21.4 9 29 7.2 7.5 18.3 8.8 28 7.4a23.9 23.9 0 0 0 17.9-13.7c5.6-11.7 4.2-25 4.3-37.6V127c0-3.3-.6-7.3-4-8.9-4.2-2.2-8.9-.2-13 1.4-4.1-.2-5-6.4-1.8-8.5 2.1-1 4.5-.9 6.8-1h35.1c2.3.2 5.2.4 6.3 2.7.6 2 .6 5-1.6 6.2-2.1 1.5-4.3-.5-6.3-1.1-3.3-1-7.5-1-10.1 1.5-2.3 2.3-2.4 5.7-2.5 8.7v77c-.6 13.7-3.3 28.6-13 38.9-9.2 9.6-23 12.7-35.9 13.2-12.6.4-26.1-.8-36.6-8.5a43.7 43.7 0 0 1-16.1-27.8c-2.3-11.1-1.6-22.5-1.7-33.8v-60c0-3.2-.6-7.2-3.8-8.8-4.2-2.2-9-.6-12.9 1.3-5.6 0-5.3-9.5.3-9.3m26 9V204c0 7.7.3 15.5 3 22.7 2.5 6.8 7 12.8 13.2 16.6a59.6 59.6 0 0 1-8.2-31.3c-.3-30.9.1-61.8-.1-92.8h-7.9zM418.2 110.3c21.6-.5 43.2 0 64.8-.2 2.5 0 6-.2 7.3 2.6.7 2 .7 5-1.5 6.2-2.1 1.5-4.4-.6-6.4-1.1-3.5-1.1-8-1-10.5 2-1.8 2-1.8 4.7-1.8 7.2v112c-.3 2.5 1.2 5 3.9 5 7.3.7 14.7.2 22 .3 7.2-.1 15 1 21.6-2.8 5.6-3.3 7.3-10.4 7-16.4 0-2.7-1-5.6.4-8.1 2.2-3.8 9.3-2.6 9.5 2 0 6.9-3.3 13.2-3.9 20-.9 5.3.6 10.7.1 16-.2 2.8-4 4.3-6 2.3-2.8-2.3-6-4.3-9.7-4h-95c-2.2 0-5.3-.8-5.9-3.3-.3-2-.2-5 2.1-5.7 1.7-1 3.4.2 5 .8 3.2 1.5 7.4 1.6 10.4-.5 2.6-2 3.1-5.5 3.1-8.6V127c.1-3.5-.9-7.8-4.5-9.2-4.1-1.6-8.4 0-12.2 1.6-5.6.1-5.2-9.3.2-9.1m26.1 8.9V244c2.6.1 5.3.2 8 .1V119.2h-8zM544 112c1.6-2 4.6-1.8 7-2h62c2 .2 4.1.1 5.7 1.4 1.6 1.4 1 3.8 1.3 5.6-1.2 1.3-3 3.2-5 2.1-3.7-1.9-8.7-3-12.5-.5-3 2-3.2 6-3.2 9.4v111c-.2 2.8 1.8 5.3 4.6 5.1 10 .5 20 0 30.1.3 6 0 13-1.2 16.8-6.5 3.9-5.5 3.2-12.6 2.9-18.9.2-5.1 8.6-5.8 10-1 .7 4.8-1.4 9.3-2.4 13.9-1.6 5.9-2 12-1.2 18.1.3 2.7.7 6.4-2.2 7.9-2.5 1.3-4.5-1.3-6.4-2.5-2-1.7-4.8-2.2-7.5-2.2-32 0-64 .2-96-.1-4.4.3-6.3-5.6-3.3-8.4 2.4-1.9 5 .3 7.4 1 3.2 1 7.2.6 9.7-1.8 2.4-2.7 2.2-6.5 2.3-9.9l-.1-108c0-3.1-1-6.6-4-8-4.4-2-9-.2-13 1.5-3.5-.5-4.7-4.7-3-7.4m29.6 7.1v125h7.8c.3-41.6 0-83.3.1-125h-7.9zM641.4 111.6c1.5-1.5 3.6-1.4 5.6-1.5h67c2 0 4 0 6 .6 3.8 1.5 3.3 8.4-1 8.7-2.8-.3-5.1-2.5-8-2.2-2.5-.3-5.3 1.1-5.5 3.8-.5 4.5 2.8 8 5 11.5l27.7 41.3 18.6-31c3.3-5.7 7.4-11.2 8.6-17.9.2-2 .4-4.6-1-6.3-2-1.9-5-1.5-7.4-1.2-2.5.5-5.1 3.3-7.6 1.3-3.5-2.4-1.6-8.8 2.8-8.5 14.2-.4 28.5 0 42.8-.1 2.6 0 5.4-.3 8 .8 2.7 1.6 2.7 6.4 0 8-2.3 1.3-4.4-.6-6.5-1.2-5.2-1.8-10.6.8-14.4 4.4-6 5.9-10.4 13.2-14.7 20.3l-23 38a7 7 0 0 0-1.3 4.6v53c-.1 3.6 2.2 7.3 5.9 7.9 3.9 1.1 7.6-.8 11-2.3 5.4 1.1 4.7 9.8-1 9.5-21 .3-42 0-63 .2-2.4-.2-5 .2-7.2-1-2.5-1.7-2.5-5.8-.3-7.7 2.8-2 5.7 1 8.5 1.4 3.2.4 7 0 9-2.9 1.8-2.3 1.6-5.4 1.7-8.1v-43c0-1.9-.7-3.5-1.8-5l-39.2-56.8c-3-4.1-5.6-9-9.9-12-3.7-2.1-8.2-.7-11.8 1-4.3 1.4-6.5-5-3.6-7.6m28.4 7.7c15.2 21.5 30 43.2 45 64.8a12 12 0 0 1 2.4 7.8v52.2c2.5 0 5 .2 7.6-.2.5-2.3.3-4.6.3-7v-46.8c.3-4.7-3.5-7.8-6-11.3a2682.6 2682.6 0 0 1-42.5-59.6h-6.8zM455.1 278c.7-2.7 1.6-5.4 3-8 1.8 2.3 2.6 5 3.2 7.8 2.1-.1 5.8-.3 6.4 2.2-3 1.3-6 3.1-7.2 6.4-1.7 3.8 0 7.9 1 11.6 0 2.3-1.7 3.9-3.3 5.2-1.6-1.4-3-3-3.6-5.1 2-4 3.3-9.2.7-13.3-1.5-2.7-4.4-3.8-7-5 1.8-1.9 4.3-2.5 6.8-1.7z"/><path d="M430.5 284.7c5.2-1.9 10.8-4 16.4-2.3 4.5 1 7 6.2 6.4 10.6-1.2 4.8-10.2 6.3-11.1.7-.8-2 1.1-3 2.8-3.3l2.1 3c.7-1 2.2-2.2 1.2-3.5-1.2-2.2-4-2.6-6.3-2.4-8.3 1-15.8 5-24 6.6-8.4.8-16.9.6-25.3 1-80.6 1.5-161.1 1.9-241.7 1.6-2.8 0-5.2-1.3-7.7-2.4 2 10-3 19.3-5 28.7-1 2.5.7 6 3.7 4.5l-2.4-2.8c1.1-.2 2.6-1 3.5.1 1.5 1.3.3 3.5.3 5.2.1 1.9 1.2 4.2-.7 5.6-1.5 1-2.3-.4-3-1.4.6-.3 1.8-1 2.5-1.2l-2.4-1.4c-3 3-1.2 7.5-.1 11a43.8 43.8 0 0 1 3.5 23 20 20 0 0 1 9.8-2.5c79 0 158 .1 237.1 1.6 8.3.4 16.6.4 24.9.9 10 .4 18.9 6.8 29 6.9 2.8 0 4.6-2.2 4.9-4.8l-2-.5c-1 .7-2.2 2.9-3.8 1.8-1.7-.6-1-3-.4-4.3 2-3.2 7-2.4 9.3.2 2.4 2.5 1.3 6.3-.1 9-2 3.4-6.2 4.4-9.9 4.3-9.1-.7-17-6-25.8-8.2-10.2-1.6-20.6-1.5-30.9-2-31.8-1-63.5-1.6-95.3-1.9-22-.7-44 0-66-.5-22.8.1-45.6-.3-68.3-.1-3.6 0-7.1.5-10.6 1.1l-.3 1.3-1 2.5 3.6.5-1.4.8c-1.5.7-3.1.8-4.7 1l-4.5 2.3c-.5-3.2-1.5-6.4-1-9.6 1 .8 2 1.3 3.2 1.5 2.6.4 3.2-3 3.2-4.9-.2-8.9-6-16.4-7.5-25-.6-2.6.6-5 2-7-1.4-2-2.6-4.4-2-7 1.4-8 6.3-14.9 7.4-23 .4-2.9.2-7.2-3.7-7.2-.8.6-1.7 1.1-2.4 1.8-.7-3.2.3-6.4.7-9.5l4.8 2.2c2.1.2 4.2.7 6.3 1.5l-3.9 1.3c1.1 4 5.6 4.4 9 4.3 44.7 0 89.4 0 134-.6 23.1-.3 46.2-.3 69.2-1 18.7-.4 37.4-.7 56-2.3 6.6-.2 12.3-3.7 18.4-5.8zM463.3 292.9c-1-5.4 3.2-11 8.7-11 10.3-.7 19 5.9 28.7 8.2 10.7 1.4 21.5 1.4 32.3 2 22.3.6 44.7 1.3 67 1.4 54 .8 108 1 162 1 3.2 0 6.8-.5 8.8-3.3a41 41 0 0 1-.5-1l-3-1.4c2-.9 4-1.3 6.2-1.5l4.5-2.4c.6 3.4 1.6 7 .8 10.4-.6-1-1.3-1.9-2.2-2.6-2.5.2-4 2-4 4.3-.4 9.7 6.6 17.6 7.6 27 .3 2.2-1 4.1-2 6 1 1.9 2.3 3.8 2 6-1.1 9.6-8.6 18-7.3 28 0 2.2 1.8 3 3.6 3l2.3-2.3c.8 3.4-.3 6.8-.6 10.2l-4.7-2.2a13 13 0 0 1-6.4-1.8c2.3 2 4.1-1.1 3.3-3v-.4c-5.4-2.8-11.6-1.8-17.4-2-59 0-118 .2-177 1.3-21.4.5-42.7.7-64 2-5.9.5-12 .5-17.3 3-7.6 2.9-15.4 7.3-23.8 6.1-6.6-.7-10.5-10-5.1-14.7h-2.7l1.3-2c1.5-.2 3-.3 4.6-.3l-1 1.7c2 .2 4.4 0 5.8 1.8.8 1.6 1.4 4-.8 5-1.7-.3-2.7-2.5-4.6-2-2 2.6 2 5.4 4.6 5.1 10.4-.3 19.5-7 30-7 31.3-1.2 62.7-1.4 94-1.8 55.4-.3 110.7-.7 166-.6 3 0 5.8 1.2 8.5 2.5-1.7-9.2 2-17.9 4.6-26.4.9-2.6 1.4-6.9-2.3-7.4-1.2 1.2.6 2.2 1.1 3.3l-2 1.2c-2.2-1.5-2.3-4-1.3-6.3-1-2.4-.8-4.8 1.3-6.4l2.2 1.4-2.3 2.5c3.5 1.6 4.7-2.8 3.7-5.3-2.4-9.1-7-18.2-5-27.9-2.4 1.1-4.9 2.3-7.6 2.4-57.6.2-115.3 0-173-.5-26.2-.6-52.5-.4-78.9-1.4-5.2-.3-10.6 0-15.8-1.1-7.7-2-15.1-6-23.2-6.3-2.8-.3-7 3-4.1 5.6 1.6-.9 3-3 5-1.9 1.3 1.5.4 3.8-.7 5-3.3 2.7-8.8.7-9.9-3.2z"/><path d="M434.2 299.5c1.2-2 2.7-4 4.4-5.6a12 12 0 0 0 3 4.4 25 25 0 0 1-7.4 1.2zM477.9 294c1.8 1.5 3.3 3.4 4.5 5.5-2.5 0-5-.5-7.4-1.1 1.2-1.4 2.3-2.8 2.9-4.5zM463.2 296.6c1.9.9 5 .5 5.8 2.8l-4.8-.7-1-2zM177.5 316.4c2-1.7 5-2 7.6-1.8 2.4.1 4.7 2.2 7.1 1-.1 3 0 6.2-.2 9.3l-1.6.5c-.2-3.2-.2-7.6-3.9-8.8-3-1.6-7.4 2.2-5.4 5.3 3.3 4.5 9.9 5.4 12.6 10.5 3 5 0 12.4-5.8 13.5-4.7 1.9-9.2-1.9-13.8-.7.8-3.6-.7-7-.8-10.6l1.5-.7c.2 4.1 1.5 9.3 6.2 10.3 4.4 1.5 8.5-4.3 6-8-2.8-3.7-7.9-4.8-10.7-8.5-2.7-3.3-2.3-8.8 1.2-11.3m-.3 10.2c3.2 4 9 5 11.6 9.6 1.4 3-.5 5.9-2 8.4 3.7-1.6 4.9-6.2 3.1-9.6-2.7-4.7-9-5.6-12-10.1-1.8-2.9.4-5.8 1.9-8.3-3.9 1.5-4.8 6.8-2.6 10zM199.8 321.8c4.9-7.1 15.3-9 23-5.5 1.4.8 3 .1 4.5-.2-.2 3.3.5 6.6-.1 9.8l-1.3.7c.7-4.6-2.2-9.1-6.9-9.7-6.9-2-13.2 4.5-13.7 11-1 6.2 2 13.6 8.4 15.4 6 2 13.4-3 12.4-9.5 2.8 1 1 4.7 1.3 7-5.7 4.5-13.4 7.3-20.5 4.4-9-3.4-12.5-15.6-7.1-23.4m1.8 17.6c2 3.1 5.6 4.6 9.2 5.3-1.9-1.4-4-2.3-5.8-3.8a14.6 14.6 0 0 1-2.2-18c1.5-2.6 4.4-4 6.6-6-10 1.7-13.3 14.9-7.8 22.5zM281.4 315.7c7.7-2.8 17.7-.2 21.6 7.3a15.7 15.7 0 0 1-5.4 20.5c-6.4 4.1-15.2 3.7-21.3-.7a15.8 15.8 0 0 1 5.1-27.1m1 2.8c-3.3 3.5-3.8 8.8-3.7 13.4.3 4.4 1.3 9.7 5.6 11.9 4.2 2.4 10.1-.7 10.8-5.5.5.8 1 1.7 1.6 2.4 3.5-5.6 4.1-13.4.7-19.3-.9-1.1-1.7-3.4-3.7-1.7l.8-2-1.4 1.8c-1.8-4-7.9-4-10.7-1m-4.4 23.4c-2.8-4-4.7-8.6-4-13.5.3-3.7 2.7-6.6 4.5-9.6-8.1 4.5-8.4 18.2-.5 23.1zM346.5 317.8c2-1 4-2 5.9-3.4 5.3 9.5 8.1 20.2 13.5 29.7l3.5-.6-.4 1.6c-5 .5-10.2.6-15.1 0l-.6-1.5 3.7.1c-.8-3.3-2.2-6.4-3.7-9.4H346c-1 3.2-2.4 6.2-2.8 9.4h3.6c-.5 2.7-3.9 1.4-5.8 1.8-1.6-.4-5.5.9-4.7-2 1.7.4 4.3.8 4.9-1.4 2.6-6.7 4.6-13.5 6.9-20.2l-1.6-4m1.6 0c2.6 7.1 6 14 8.9 21.2 1 1.8 1.3 4.4 3.6 5.2-2.4-7.5-6.2-14.5-9.1-22-.9-1.6-1.2-4.1-3.4-4.5m-1.6 14.8h6.3l-3.4-7.8c-1.1 2.6-2 5.1-2.9 7.8zM385 315.5c4-.2 8.9-.7 12 2.5 3.2 4 1.4 10.9-3.6 12.5 4.1 3 3.1 8.4 4 12.7l3-2.4c1.2 4.4-4.4 6.8-7.7 4.5-4-2.7-2.5-8.2-4-12.1-.7-2-2.8-2.5-4.5-3.2-.1 4.3-.4 8.7 0 13 1 1.6 3 .3 4.4.6l-.6 1.5c-5 .6-10.2.5-15.2 0l-.8-1.5 4.2.3c1-8.8.2-17.8.4-26.6l-4.7-.2.8-1.3c4-.6 8.2 0 12.3-.3m-6.8 1.7v26.6l1.6-.1v-26.5h-1.6m11.8-.4c1 2.2 3 4.3 2.6 7-.2 2.4-2.2 4.1-3.4 6.1 6-1.8 6.6-10.8.8-13.1m-6.3.3v11.3c1.4.1 3 .6 4.5-.2 4-1.6 3.9-7.9.6-10.1-1.6-.9-3.4-.8-5.1-1m4.6 12.9c4 4 .9 10.8 5.5 14.3-2.2-4.7.3-11.9-5.5-14.3zM408.4 316.4c2.1-1.8 5-2 7.6-1.8 2.5 0 4.7 2.3 7.2 1l-.3 9.6h-1.5c-.4-3-.2-6.9-3.3-8.4-2.9-1.8-7.2.9-6.6 4.3 2.6 4.6 8.6 5.5 11.9 9.5 3.7 4 3 11.3-1.7 14.1-4.2 2.7-9.5 1.7-13.8 0l-2.7.7c.4-3.8-.7-7.5-1.2-11.3 2.5-.4 2 2.3 2.4 3.9.5 3.9 4.6 7.3 8.5 6.1 3.5-1 5.1-6 2.6-8.6-2.9-3-7-4.2-9.8-7.3-3-3.2-3-9.1.7-11.8m.3 10.9c3.3 3.4 8.7 4.6 11 8.9 1.4 3-.5 6-2 8.5 3.6-1.7 4.9-6.2 3.2-9.7-2.7-4.7-9-5.6-12-10.1-1.9-2.8.4-5.8 1.8-8.2-4.1 1.7-4.9 7.5-2 10.6zM485 317.2c0-2.3 2.6-1.5 4-1.7 6.7.8 14-2.5 20.4 1.2 5.2 2.7 5.7 11.2.8 14.5-3.9 2.7-8.8 2.3-13.2 1.6.2 3.4 0 6.7.2 10.1.6 1.8 2.6.6 4 .7l.2 1.6c-5.4.3-10.8.4-16.2 0l.3-1.5 4-.1c.1-8.4.3-16.9 0-25.3-.2-2-3.2-.8-4.5-1m6.2-.2v26.7h1.5v-26.6h-1.5m6-.5c.2 4.8-.6 9.6.3 14.3 6.3 2.4 10.6-6 7.4-10.8-1.3-3-4.8-3.7-7.8-3.5m7.4 0c1.1 2.4 3 4.6 2.8 7.4.3 2.9-1.7 5.2-3 7.6 6-2.6 6-12.2.2-15zM537 315.8c7.7-1 15.6.8 23.3-1 0 3 .2 5.8.4 8.7l-1.6.1c-.2-2 .4-4.9-1.9-5.9-3-.7-6-.3-9-.4V328c1.4-.3 3.5 0 4-1.8.3-1.6.2-3.2.3-4.7l1.6.3c.2 5 0 9.9.1 14.8-2.4-.4-1.6-3-2-4.6.2-2.2-2.4-2.3-3.9-2.7l-.1 14.3c3.5-.2 7.8.9 10.7-1.9 1-1.4 1-3.3 1.5-5l1.3 1c.3 2.7-1 5.5-1.6 8.2-7.7-1.3-15.6.3-23.3-.8l-.4-1.6 3.8.6c1.3-4.6.3-9.4.6-14.1-.3-4.4.6-8.8-.5-13l-4.1.3.8-1.5m5.4 1.3c.2 8.8 0 17.6 0 26.4l1.7.8c.4-9 .4-18 0-27l-1.7-.2zM621.9 315c4.6.9 9.4.5 14.1.6 4.1-.1 8.3.4 12.3-.8 0 3 0 5.9.2 8.8H647c-.3-1.9.5-4.9-1.8-5.8-2.1-.8-4.4-.3-6.6-.4V340c-.1 1.5.4 2.9 1.2 4.1l3.5-.6-.5 1.6c-5.2.7-10.6.3-15.9.1l.4-1.6c1.5 0 4 1 4-1.5.2-8.2 0-16.6 0-24.9-2.2.2-4.4-.1-6.5.6-2.1 1.2-1.5 4-1.8 5.9l-1.4-.1.3-8.6m11 2.4c-.4 8.8-.4 17.7 0 26.5h1.4c.4-9 .2-18.1.1-27.2l-1.5.7zM685.2 315.3c7.1-2 15.8.2 19.8 6.7a15.6 15.6 0 0 1-1.4 18.6A18.8 18.8 0 0 1 678 342c-6.4-5.7-6.1-17 .2-22.7 2-1.9 4.4-3.2 7-3.9m3.3 1.3c-5 1.4-6.8 7-7 11.5-.2 4.6-.1 9.7 2.8 13.5a7.6 7.6 0 0 0 9.4 2.2c3.6-1.9 4.9-6 5.3-9.7.5-4.7.2-9.7-2.3-13.8-1.6-2.8-5-4.8-8.3-3.8m-8 25.3c-2.7-4-4.5-8.9-3.6-13.8.2-3.5 2.6-6.2 4.4-9-8.2 4.2-8.4 17.8-.8 22.8m17-23.5c1.1 3.3 3 6.3 3.2 9.9.6 4.2-.7 8.2-1.6 12.3 3.3-3.3 3.3-8.2 3.1-12.5-.1-3.8-2-7.3-4.7-9.7zM231.3 317.3c0-2.7 3-1.4 4.6-1.8 3.8.1 7.5-.1 11.3.2l.6 1.6-4-.4c-1.2 4-.5 8.3-.7 12.4h12.8c0-4 .3-8-.2-12-1.4-.2-2.8-.3-4.3-.2l.8-1.3c5-.5 10-.3 15 0l.9 1.5-4.3-.3c-1 7.6-.2 15.3-.5 23 .1 1.3-.4 4 1.7 3.8l3-.1-.6 1.5c-5.1.3-10.3.5-15.4 0l-.4-1.7 3.7.6c1.3-4.1.4-8.5.6-12.8h-12.7c0 3.9-.3 7.7.1 11.5.8 1.8 3 .6 4.5 1l-.6 1.4c-5 .3-10.3.6-15.4-.1l-.5-1.4h3.7c1.6-1 .6-3.2.9-4.7-.4-7.4.6-14.8-.6-22.1l-4 .4m6.3.2c-.3 8.9-.1 17.7-.1 26.5l1.2-.5c.3-8.9.1-17.8.1-26.7l-1.2.7m19.9-.5c.1 8.8-.2 17.6.1 26.4l1.2.8c.6-7.7.1-15.5.3-23.2-.3-1.5.6-4-1.6-4zM308 315.9c4.9-.7 10-.3 14.9-.3l1.4 1.4c-1.7.4-5.2-.8-4.9 2 0 8.2-.3 16.4.2 24.5 3.1 0 6.3.3 9.3-.3 3.4-.5.3-7 4.2-5.4-.5 2.8-1 5.7-1 8.6-7.8-2.4-16.2 0-24.2-1.3l-.4-1.4c1.5-.2 4.8 1 4.5-1.7 0-7.7.2-15.4 0-23 .3-2.8-3-1.7-4.5-1.8l.4-1.3m5.8.9c-.2 9.1-.3 18.3 0 27.5l1.4-.8c.6-7.4 0-15 .3-22.5-.3-1.5.7-4.3-1.8-4.2zM429.2 315.9c4.9-.7 10-.3 14.8-.3l1.3 1.5-4.3.1c-1 4-.2 8.2-.4 12.2h12.8c0-4.1.3-8.3-.4-12.3h-4.2l.6-1.3c5-.4 10.3-.5 15.3 0l.7 1.4c-1.7 0-5-1-4.6 1.8-.3 6.3 0 12.6-.2 19 .1 1.9-.2 4 .7 5.7h4l-.5 1.4a60 60 0 0 1-15.5 0l-.2-1.6c1.3 0 3.5 1.1 4.1-.6.5-3.8.1-7.6.2-11.4-4.2-.2-8.5-.2-12.8-.1 0 4-.3 7.9.1 11.8 1.2 1.1 2.8.4 4.3.3.3 2.4-2.5 1.8-4 2-4-.2-8 .4-11.8-.4l-.6-1.3c1.5-.3 4.7 1 4.5-1.7.3-6.7 0-13.4.1-20-.1-1.6.3-3.4-.6-4.8a13 13 0 0 0-4-.1l.6-1.3m5.6 1.3c0 8.7-.2 17.4.1 26l1.2 1.1c.2-9 0-18.1.1-27.2h-1.4m20 0l.1 27.1 1.3-1c.3-8.7.1-17.4 0-26H455zM467.4 315.8c5.2-.5 10.4-.3 15.6 0l.5 1.5-4.4-.2c-.4 6.3 0 12.6-.2 19 0 2.6-.4 5.5.9 8l3.6-.6-.3 1.6c-5 .6-10 .4-15 .2l-1.5-1.5h4.2c1-1.4.5-3.2.7-4.8-.2-7.3.2-14.6-.3-21.8h-4.5l.7-1.4m5.5 1v27.4l1.7-.7c.2-8.7.2-17.4 0-26l-1.7-.7zM566 317.2c.9-2.6 4-1.4 6-1.7 7.4.5 15.8-1.5 22.3 3.2 8 5.5 7.8 19.1-.6 24.1-6.9 4.4-15.2 2-22.7 2.5-1.7-.1-4.3.8-5-1.5 1.7-.2 5 .8 4.8-1.9-.2-8.3.5-16.6-.5-24.9l-4.3.2m6.4-.3V344l1.3-.6c.3-8.7.2-17.4 0-26l-1.3-.6m5.7.4v26.3c2.8.2 5.7.1 8.2-1.3 8.4-4.7 8.4-19 0-23.6-2.5-1.4-5.4-1.4-8.2-1.4m9.8.4c2 2.2 4.3 4.4 5.2 7.3 2.3 6.2.3 13.7-5 17.8h1.5c8.6-5.4 8.2-21.3-1.7-25.1z"/><path d="M602 315.8c5.2-.4 10.6-.6 15.7 0l.8 1.3c-1.6.2-3.6-.6-4.8.8-.3 8-.2 16.1 0 24.2-.2 2.3 2.6 1.7 4.1 1.4l.4 1.7c-5.4.3-10.8.5-16.2 0l-.4-1.7 3.7.6c1.3-2.5.7-5.4.8-8-.1-6 .2-12.1-.1-18.1-1-1.7-3-.6-4.5-.8l.6-1.4m5.7 1.2V344h1.4V317h-1.4zM654.3 315.8c5.2-.5 10.6-.3 15.8 0l.5 1.5c-1.6.1-3.7-1-4.6.7-.3 5.7 0 11.3-.1 17 0 3-.5 6.3.9 9 1 0 2.8-.3 3.8-.4l-.6 1.5c-5.5.6-11 .4-16.4 0 .4-2.7 3.5-.3 4.7-2 .4-6 0-12.1.2-18.1-.1-2.6.2-5.2-.5-7.7a39 39 0 0 0-4.3-.1l.6-1.4m5.8 1c-.1 9-.3 18.3 0 27.5 2-.6 1.3-2.8 1.5-4.3-.2-7.5.2-15-.2-22.4l-1.3-.9zM709 315.9c4.6-.6 9.3-.3 14-.3.6 2.5 2.6 4.3 4.2 6.2 3.4 3.8 6.6 7.7 10 11.4 0-5 .4-10.1 0-15.1-1-1.8-3.3-.7-4.7-1l.7-1.2c3.2-.7 6.6-.4 9.8-.2l.7 1.6c-1.4.3-4-1.2-4.4.9-.1 9.2-.2 18.5.2 27.7-1.2-.6-2.2-1.5-3-2.4-7-7.6-13.7-15.5-20.8-23V339c0 1.6-.2 3.3.6 4.7h4l-.5 1.4c-3.3.6-6.7.4-10 0l-.5-1.6 4 .5c1-4.3.3-8.7.5-13-.2-4.7.4-9.4-.5-14-1.6 0-3.7.9-4.4-1.1m5.9.9c5.6 7.7 12.6 14.3 18.7 21.7 1.3 1.2 2.3 3.5 4.5 3.3-5.2-7-11.5-13.2-17.1-19.8-2-1.9-3.3-4.7-6.1-5.2zM294.3 320.4l2.2 1c1.1 4.1 1.5 8.3 1.8 12.4l-1.9.6c.3-4.7 0-9.7-2.1-14zM521.4 331.2l4.4-8 4.4 8c-1.4 2.7-2.8 5.4-4.5 8l-4.4-8zM124 330.4c2.6-2.6 6.4-2.1 9.4-.4-2.9 2.1-6.4 2-9.5.4zM785.5 328.6c1.8-.4 3.5.4 5 1 .7 1.3-1.1 1.3-1.9 1.7-2.1.7-4.4.2-6.3-.8 0-1.6 2.1-1.5 3.2-2zM297.4 337c-2 2.6-2-3.6 0-1.1v1.2zM455.1 362.8c-1-2.5 1.4-4.4 3-6 1.8 1.2 3 3 3.6 5.1-1.7 4-3 9-.6 13 1.4 2.6 4.2 4 7 5-1.7 2.3-4.4 2.5-6.9 2.3-.6 2.8-1.3 5.5-3.1 7.8a35.7 35.7 0 0 1-3-8.2c-2.5.9-5 .2-6.8-1.6 2.8-1.2 5.8-2.7 7.3-5.6 2.1-3.7.8-8-.5-11.8zM434.1 360.4c2.3 0 4.7.3 6.8 1.1-.6 1.6-1.5 3.1-2.3 4.7a34.2 34.2 0 0 1-4.5-5.8zM475 361.6l7-1.5c-.6 2.4-2.3 4.3-4 6-.8-1.7-1.8-3.1-3-4.5z"/></g></svg>