<svg xmlns="http://www.w3.org/2000/svg" width="628pt" height="121pt" viewBox="0 0 628 121"><path fill="#c4191d" d="M587.5 0h7.8c2 .3 3.8.7 5.7 1.2-.4 1.8 0 3.5.5 5.3-4.3 2-9 0-13.6.5-1-.8-1.2-2.3-1.7-3.5a20 20 0 0 1-11 4.5l.3 2.4c0 1.1-.2 2.2-.3 3.2A34.6 34.6 0 0 0 564 29.7c-2 .2-4.1 0-6.1-.4 1.6 0 3.6 1 5-.4 1.7-4.3 2.7-8.9 5-13 3.7-7.8 10.6-14.7 19.6-15.9Z"/><path fill="#655c50" d="M113 10c3-6.6 11.4-8.6 18-7.2l-6.9.2.5 1.8.4 1.5c2.7.5 5.9.3 8 2.3-3-.4-6.4-1.9-9.5-.3l-1.4-4.5-2.8 2.2-3.3 1-3 3Z" opacity=".7"/><path fill="#b29974" d="m269.3 2.2 1.3.9-.1.5c-1.8 5-.7 10-.1 15l2 1.6v3l2.5 1.2.1 4.5c-1.4-1-3.2-3.5-4.5-.9-.1 2.1 1.4 3.8 2.3 5.6l-3.1-1 .2 3.8L275 35v3.6l-5.8-1.8V2.2Z"/><path fill="#6a6358" d="M321.5 2.6c6.6 1.4 13.6 0 20.1 1.7 2.6-1.4 5.6-.8 8.4-.9 4.1.2 8.2 0 12.3-.8v13.2c-2.6.3-2.9-2-3-4l2 2.4a27 27 0 0 1 0-10.1c-3.3.3-6.5.5-9.8.4H344l-1 .4-1.2.5c-4-.8-8.1-1-12.2-1.1l-7.6-.5c-.5 3-1 6-1.7 9.1h2.3l-3.3 2.1c.9-4 .6-8.6 2.3-12.4Z" opacity=".5"/><path fill="#8c110a" d="m601 1.2 4.2 1.8-2.6 2c2.3 1 4.6 1.4 7 1.2l2.2 2c-1.6.5-3.2-.2-4.6-.8L607 11c-.5-1.1-1-2.2-1.3-3.4-1.6 0-3.2 0-4.7.2-1.4 1-2.5 2.5-3.6 3.8-2-.9-4-1.5-6.2-2-.2-.2-.6-.3-.8-.3-1-.7-1.8-1.5-2.6-2.3 4.5-.4 9.4 1.5 13.6-.5-.5-1.8-1-3.5-.5-5.3Z"/><path fill="#45423c" d="M16.8 3.3C22.2 3 27.6 3.3 33 3c3.5-.2 7.1.1 10.4 1.5-8.3-.3-16.7 0-25 0-.6-.3-1-.8-1.6-1.2Z" opacity=".4"/><g fill="#d9cfb1"><path d="M66.1 3.7c2.9 0 6-.4 8.7.5l5.3.3c-.5 0-1.4.3-1.9.4l.8 3.3-2.4.5L74 4.2h-1.3c-1.5 0-3-.2-4.6-.4l.7 2c-.3-.4-1-1-1.5-1.3l-1.2-.8ZM228.1 9.7l.8 1.6.8 1.2c1.7.6 3.5 1 5.3 1.4l.1 7.3-4.6 2 1.3 6 2.9 1.2-1.2 2.8-2.8-1.9-1.1 3.4h4.4l1.5 2.8-6.3-.9h-.7V19.1l5.4 1v-3.3l-5.4.9-.1-2.7-.3-5.4Z"/></g><path fill="#766f63" d="M124.1 3c2.3-.1 4.6-.3 7-.2 1.8.2 3.6.6 5.4 1 .3 3.4.3 6.8-.1 10.3-1-1.5-2.1-3-2.5-4.9l1.7 1 .3-5.3c-3.6-.8-7.2-1.8-11-1.5l-.3 1.4L124 3Z" opacity=".6"/><g fill="#c2b392"><path d="M147.2 3.5c1.6 0 3.3 0 4.8.7 3.2.1 6.5.4 9.6-.7v2.3l-2 .8-.4 3.6c-1-1.8-2-3.6-3.5-4.9-1.8-1.2-4-.3-5.9.2l-.8.2-1.8-2.2ZM322 3.8l7.5.5.2 3.1.1 1.9-3.6-1-2.4 1.5 3.1.1c-2.1.3-4.3.8-5.4 3h-1.3l1.8-9.1ZM484.6 3.7l5.4.1 9-.2c-.8 1.6-2 2.9-2.6 4.5-.3 2.2-.4 4.5-.6 6.7l-3 1.2-.5.3-.5 3.6-3 .2v2l.1 4.6 3 .7.4.1-3.3 1-1.3-1.2c-.1-2.9-.1-5.8 0-8.7h3.1c.1-.9-.5-1.4-1.8-1.7l-.3-.1c2-1 3.6-2.6 3.7-5l2.6 1c0-2.8.4-5.6 2-8-3.7.2-7.3.6-11 .7l-1.4-1.8ZM25 45.3l3.8-1c.2 3.7.4 7.4.1 11l-2.2-.8c0-2.6-1-5.1-4-5.1 1.7-.2 3.3-.5 5-.9v-.8l.2-1.6-3-.8Z"/></g><path fill="#403931" d="M171 3.3c8.5.4 17-.7 25.4.5 3 .7 6.6 1 8.6 3.5-2.5-.8-5-1.6-7.6-2.2l-2.6-.4-6.7-.7c1 2.4 2.4 4.4 4.6 5.7-3-.3-6-.2-9 .2-.2 7 .4 14.2 0 21.3l-1.2.2.4-4.8c.3-2.4.3-4.9.2-7.3v-.8h-3.4l3.9-1c-.2-3.4-.6-6.8-2.8-9.5l3.2 1c1.6-.5 3.2-1 4.8-1.7l-.8-.8-2.4-2.1h-1.4c-3.5-.1-7-.3-10.6 0l-1.2 1.1-.2.2-1.1-2.4Z" opacity=".6"/><path fill="#564b40" d="M223.2 3.3c11.2.3 22.5 1 33.7-.4-.3 4-.4 8-.4 12-2.3 0-3.2-1.7-3.3-3.9l2.4 2.6a137.7 137.7 0 0 1 .7-9.9c-4.8 1-9.8 1.3-14.8 1.3l-8.7-.3H227l-1.3.8-.9.5-1.6-2.7Z" opacity=".5"/><g fill="#b69d76"><path d="M299.2 3.7c5.3-.2 10.6.2 15.8-.2a8 8 0 0 1-3.1 3.2c-.2-.9-.6-1.4-1.3-1.6-2.6-1.1-5.2-.4-7.5.9-1-.2-2-.7-2.8-1.4l-1-.9ZM434.6 7.7l4.6-1.5c-.2 5 3.2 9.4 3.5 14.4-3.4-3-2.1-8.4-4.8-11.7-1.7-2-1.5 2-2 2.8-.5-1.3-1-2.7-1.3-4ZM101 46.7l1.8-.2-1 1.3a94 94 0 0 0-1.7 11.7c-6.6 0-13.2-.2-19.8-.4l-6.8-1c3.3-.6 6.7-.7 10-.3-1.3-.8-2.6-1.6-3.8-2.6l-.8-.9 6.3.3 1.8 3 3.8.2-1.5-3.3-2.9-.1a11 11 0 0 1 7.8 0c1.4-.5 2.8-1.2 4-2.2.7-2 1.8-3.7 2.7-5.5m-5.7 8.2c-1 1-3 1.5-3 3 2.3.5 4.7.7 7 1 .8-2.7-1.9-3.6-4-4Z"/></g><path fill="#3b3730" d="M424.4 3.2c5.8-.4 11.7.1 17.5 0l-.1 1.9-1.2-1.3c-5.4 1-10.7.4-16 .8h-.7l.5-1.4Z" opacity=".3"/><g fill="#908d7c"><path d="M509 3.4c4.9.1 9.7-.1 14.6.3-3.7 1.2-7.6 1-11.3.8.8 2.5 1.5 5 1.8 7.5-.1 3.8-.2 7.6-.5 11.5l-.1 1c-2-4.8 0-10.3-.8-15.4-.1-2.5-2.6-3.7-3.7-5.7ZM303.1 6c2.3-1.3 5-2 7.5-1-1.7.8-3.6 1-5.4 1.3-.9 1.3 0 2.9.1 4.3a44 44 0 0 0 .2 7.6v.9l.2 1.2v8.5l.1 2.7.2 2.5.2 2 2.1.3 1.8-.3v-4.4l-.2-1.7c1-6.1.7-12.3.6-18.4a6 6 0 0 1 1-4.2c.2 12-.3 23.8 0 35.7a106 106 0 0 1-1.7-5.5l-3.8-.2-.6 3.4a204.3 204.3 0 0 0-6 0l.6-.9 1.4-2.2.2-.3c.5 2 1.8 2.8 3.8 2.6-1.3-6.9-.5-14-1-20.9-.3-4.3.6-9-1.3-13ZM22 46.4h.1c1.6 1.3 3.7 1.1 5.6 1.4v.7c-1.7.4-3.3.7-5 .9-.4 2.1-.8 4.3-1 6.5L20.2 57c1.6-3.2 1.3-7 1.2-10.4l.5-.2ZM255.2 52c.8-2 1.2-4.5 3.6-5a206 206 0 0 0-1.4 11.6c-.3 1.6-2.1 1.9-3.4 1.5-2.8-.5-5.7-.3-8.6-.7l-1.2-.2c2.6-.2 5.3-.5 7.8-1.4 1.2 1 2.6 1.3 4 1.5l.2-.8c.6-2.4.8-5 1-7.5l-2 1ZM546.4 52.7c1.8 0 3.6 0 5.4.5 2 .4 2.9 2.3 4 3.7 0-2 1-3.1 2.6-3.6l1.1 6.5a18 18 0 0 1-2.5-1.3c-1.3.2-2.7.2-4-.2l-1.3 1.8c-.5-1.3-.2-2.4.9-3.2l-1.7-3c-.5 1.8-.6 3.7-.5 5.6h-2.7c.2-2.3-.2-4.6-1.3-6.8Z" opacity=".6"/></g><path fill="#efe0c3" d="m523.6 3.7 2-.4-.3 1.8a5.3 5.3 0 0 0-4.2 4.4l-1.7 1 1 4.6c-.7 1.1-2.2 1.3-3.2 2-1.1-1.7-2.2-3.4-3.1-5.1-.3-2.6-1-5-1.8-7.5 3.8.2 7.6.4 11.3-.8Z"/><path fill="#45090b" d="M575.2 8c4-.5 7.9-1.8 11-4.5.5 1.2.6 2.7 1.7 3.5l2.6 2.3c-5-1-10.4-1.4-15 1.1l-.3-2.4Z"/><g fill="#c61b1c"><path d="M605.2 3c1.6.9 3 2 4.5 3.2-2.5.2-4.8-.3-7-1.2l2.5-2ZM586 67.1l4.2 1.5 3.6 3.9-1.4 1c.6 3 1.5 6 1.7 9.2a653 653 0 0 1-7-6.9c-.6-2-1.5-4-2.7-5.8l1.5-2.9Z"/></g><g fill="#dcd0c6"><path d="M18.3 4.6c8.4-.2 16.8-.4 25.1-.1L45 5c-1 .3-3.6 1-2.5 2.6 1.5 1.3 2.8-1 3-2.4l1.3.6.6 2.6 2.6.7-.9 2-3.5-.4c2.3.8 4.6 1.5 7 2.1 0 .4.3 1.1.4 1.5l.5 3.3c-4.8.6-7-4.7-11-6.7A15.8 15.8 0 0 0 37 5.1l-6.2 1.6-2.8.9A28 28 0 0 1 29 15h-.7l-2.8-4c.8-1.7 1.5-3.6 2.1-5.5l-2.4-.8.7 2.6-4.5.1-3.2-3ZM177.3 50.3l5.6-1.4v4.5l-5.6-3Z"/></g><path fill="#55493d" d="m68.1 3.8 4.6.4-2 4.7-1.9-3.2-.7-1.9Z" opacity=".9"/><path fill="#bda87e" d="M80.1 4.5c4.7-.3 9.4 0 14-.2 1.9-.6 3.8-1 5.6-1.2l-1.2 11.2c-1.2-1.7-2.4-3.4-4-4.6l-5.3-.3-4.2-3L83 8l-4 .3-.8-3.3 2-.4m7 .7 1 1.4c3.4-.3 6.3 1.4 9 3a13 13 0 0 0 1.6-3.9c-3.8-1-7.7-1-11.6-.5Z"/><g fill="#f7f2db"><path d="m119.3 6 2.8-2.2 1.4 4.5-2 .2a103 103 0 0 1-2.2-2.5ZM184.2 4.3h1.4l2.4 2.2c-2.2.7-4.3 0-6.3-.6l2.5-1.6ZM155.8 19.5c1.5-.5 2-.1 1.7 1.2-1.5.6-2 .2-1.7-1.2ZM394.6 32l1.3-.8 2.5 1.4v11.8l-7 .3 1.1-7.5 3.2.2c-.4-1.8-.8-3.6-1-5.4ZM278 96.6a96 96 0 0 1 2.4 4.3l.1 1 .1 1.7c2.7-.1 5.4-1 8 .3-4.3-.2-8.4.8-12.6.7l3.4 1-3-.1-.2 2.2-1.3-.7-.4-.1v-1.4l.4-.6.8-3.3h2c0-.8-.2-1.5-.3-2.3l.6-2.7Z"/></g><path fill="#d2cbb9" d="M125 3.5c3.7-.4 7.3.6 11 1.4l-.4 5.3-1.7-1-.8-.6c-2.2-2-5.4-1.8-8.1-2.3l-.4-1.5.4-1.3Z"/><path fill="#90816c" d="M173.6 4.3c3.5-.2 7 0 10.6 0L181.7 6c2 .6 4.1 1.3 6.3.6l.8.8L184 9c-1-.4-2.1-.8-3.2-1l-3.6-1 .3-2-4 .4h-1l1.1-1.2Z" opacity=".9"/><g fill="#b3a07c"><path d="m188.2 4 6.6.7L194 9c.6 0 1.7-.3 2.2-.4 3.3 1.3 5.8 4 8.4 6.3 2.8 3.2 4.4 7.2 4.5 11.5 2.1-.9 4.3-1.6 6.5-2.2l-.6-2.1c-1-5.8-5.3-9.9-8.8-14.1 5 3 8.4 8.4 10 14 0 2.5-.8 4.8-2 7l.2-3-5.3 3.1a136.3 136.3 0 0 1 2.7 4.4c-1.3-.7-2.3-.4-3 .9v-.1c-.4-4.7.3-9.7-1.9-14-2.3-5.9-8-9.9-14.2-10.6a11.1 11.1 0 0 1-4.5-5.7m3 2.4c.6.5.6.5 0 0ZM305.3 10.6l5.2.8c.1 6.2.5 12.4-.6 18.5l-4 1.6-.1-2.7 3.9-1.8.6-5.2-4.6-1.5-.1-1.3 4.8 1c-.1-2.2.7-4.8-.6-6.8-1.4-.6-2.9-1-4.4-1v6a44 44 0 0 1 0-7.6ZM269.3 54c.5-2.7-1.4-6 .5-8.4l5.2 1.2h-5.6c.3 1.9.9 4 2.8 4.8 1.2-.5 2.3-1.2 3.4-1.8-1 2.1-3.2 6.1 1 6.1l.6.2.6 1 1.3 2.1c-3.4-.2-6.8-.4-10.3-.3l7-1a11 11 0 0 1-5.4-5.6l-1.1 1.8ZM190.8 55.4h2.6l-.2 3.9a51 51 0 0 1-3.7.3l1.3-4.2ZM67 65c2.2 5.3 5.5 10 8 15.2-4.8-2.6-7.4-8-12.3-10.7 0-1.4 1-2.4 1.7-3.4l1.1.2c0 1.2-.2 2.3-.4 3.5l4.4 2.5c-.7-2.5-1.5-5-2.6-7.3ZM123.4 83.7c1.1 1 2.3 1.8 3.5 2.6l-2.6 1c-1.1 1.5 1.5 1.1 2.4 1.5l2.3 3.9-2-.2-3-3V95c-.6 1.8 2.3 3.3 3 1.3l.9-1.4 1.8.4c3.4.4 6.8.2 10.3 0l-.6.5c-2 .4-4.2.6-6.3.8l1.7 2.1c-1.6 0-3.1.1-4.6.7l-.4 2.3-4.2.3 3.7-2.2-5.2-.7-.6 3.3c.2-6.3-.3-12.5-.1-18.7ZM298.6 109.5h.1l2.2 4.6-7.6-3.7 5.3-.9Z"/></g><path fill="#9c8261" d="M241.5 5c5 0 10-.3 14.8-1.3l-.5 4.5a28.2 28.2 0 0 0-9.9-2.6l-1.1 2.8h-.6L242.3 6l-.8-1Z"/><path fill="#e2cfa6" d="M270.4 18.7c-.6-5-1.7-10.2 0-15 1.9 1.7 3.6 3.5 5.3 5.3l-.2 1-1 3.6-2 .8v5.8l-2.1-1.5m2.8-8.4c-1.4 0-2 2.8-.3 2.8 1.5 0 2-2.7.3-2.8Z"/><path fill="#ded5be" d="M351.5 4.5c3.3.1 6.6 0 9.8-.4a27 27 0 0 0 0 10.1l-2-2.4-1.1-2.3-1.7.2-.2-1.5-1.3 1-6 .2 2.5-4.9Z"/><path fill="#f0e2c0" d="m387.6 5.1-.2-1.6 4.7.3.8.6 1.2.6-1.6 1.7a19 19 0 0 1-.2 10h2.3l-.5-3.2 4.2-.3c0 4.7-.4 9.4.4 14l1.3.9a56 56 0 0 1-2.7 3.5l-.9-.5c-.2-1.2-.1-2.3.2-3.5-1-1.3-1.8-2.7-2.4-4.2l-2.7.2-.2-4.8c0-3.7 1.3-8-1-11.3a5.4 5.4 0 0 0-2.7-2.4Z"/><g fill="#b09975"><path d="M393 4.4c2.3-.5 4.6-.8 7-.7 4 1.6 8-.4 12 .5 2.5-.5 5.1-.7 7.7-1-.5 3.7-1 7.4-1 11A5.6 5.6 0 0 1 416 11l-2.5-1.3-.9-.5h2.3L414 5l-11.1-.2-8.8.2-1.2-.6ZM28.8 44.2l1 .8a23 23 0 0 0 1 12l3 1.4-1.8 1c-4.5 0-9-.9-13.6-.9l1.9-1.5 1.3-1.1 1.1-6.5c0 3.2.2 7 3.3 8.9l4-.3-1.1-2.6c.3-3.7 0-7.4 0-11.2ZM242.3 84.7l2.6-.7v2.6l-2.6 1.2v-3Z"/></g><path fill="#cebc97" d="M424.5 4.6c5.4-.4 10.8.2 16-.8v1.4l-1.3 1-4.6 1.5-1-3a21 21 0 0 0 0 6.5l-1.4 2.3a10 10 0 0 0 3.1 4c-.3 3.4 2.8 6.1 2 9.7l-.3 1c-1.5-4-2.3-8.1-4.5-11.7-1.4-2.3-1.3-5-2.2-7.5a8.7 8.7 0 0 0-5.8-4.4Z"/><path fill="#bda272" d="M464.9 3.6c4.6.1 9.3 0 14-.1-.8 1.9-2.6 2.8-4 4.1l-1.3 1.2c-1-1.4-2-2.8-3.1-4h-3.1v1h-.9l-.9-.3-.7-1.9Z"/><path fill="#857461" d="m25.3 4.8 2.4.8a49.4 49.4 0 0 1-3.2 7.7A10 10 0 0 0 21.7 9c0 2 0 3.8.3 5.8a128.4 128.4 0 0 0 6.4.4h.7c0-2.5-.4-5-1.1-7.4l2.8-.9c2.9.2 6 .2 8.5 1.8-2.9-.9-6.5-2.4-9.2-.5a88 88 0 0 1-.5 1.5c.3 6.6-.5 13.2-.2 19.7l.8 1.5c3.7 1.3 8 1 11.6-.3-.1 2.2-.2 4.4-.1 6.6-.5-1.8-.2-4-1.5-5.5-2.8.1-5.5.5-8.3.6l-1.7-.3c-.9-.6-1.5-1.5-2.3-2.3.6-2.3 1-4.7 1.3-7.1l.1-5.3-6.8-.8c-1.1 3.3-.7 6.8-.1 10.2-.2 4.6 0 9.2-.2 13.9l-.5-1.3c-.5-10.5 0-21.1-.2-31.7l4.5-.1-.7-2.6Z"/><path fill="#b2a895" d="M30.8 6.8 37 5.2c2.2 1.5 4.3 3.2 5.5 5.6l-3.2-2.2C36.8 7 33.7 7 30.8 6.8Z" opacity=".9"/><path fill="#b7ab92" d="M42.5 7.6C41.5 6 44 5.3 45 5l.5.2c-.2 1.3-1.5 3.7-3 2.4Z"/><path fill="#8e7d68" d="M72.7 4.2H74c-.8 2.5-1 5-.8 7.6l3-.1-4.3 5.8 4.6 2.5-2 .7-3.4-.6c-.8-3.6-.1-7.4-.4-11.1v-.1a210 210 0 0 1 2-4.7Z"/><path fill="#a79b87" d="m74 4.2 2.6 4.5 2.4-.5-.2 1.2c-.5 3.3.2 6.6-.3 9.8l-.8.3c.3-2.6.4-5.3.4-8l-1.9.2-3 .1c-.2-2.6 0-5.2.8-7.6Z"/><path fill="#8e7253" d="M87.2 5.2c3.9-.6 7.8-.4 11.6.5a13 13 0 0 1-1.5 4c-2.8-1.7-5.7-3.4-9-3.1l-1-1.4Z"/><g fill="#ebe3c9"><path d="M149.8 5.5c1.9-.5 4-1.4 5.9-.2 1.5 1.3 2.5 3.1 3.5 4.9l.2 2.7-3.7-.8c0 2.2.1 5-3 4.7a30 30 0 0 0-1.5-8.3l-1.4-3ZM151.6 19.2l1.3.7 2 3.5 4.4-1.5v2.5l-.5.1-2.5.6-1.5.8-3.3.5.1-7.2ZM201.3 97c.4 0 1.1-.4 1.5-.6l2.3 2.4.3-.6c2.5-2.9 6.5-2.6 10-2.3l-3.2 1.6 4 1.3c-2.9-.2-5.8 0-8.5.6l-6.2 1-.2-3.3Z"/></g><path fill="#f6ebca" d="m173.6 5.5 4-.3-.4 1.9 3.6 1c2.2 2.6 2.6 6 2.8 9.3a27.8 27.8 0 0 0-4.9-3l.4 3.4c-1.7-.4-2.5-1.5-2.4-3.1.8-1.1 2.5-2 2.1-3.6-.5-2-2.3-3-3.7-4.3l-1.5-1.3Z"/><path fill="#ece2c7" d="M194.8 4.7c.7 0 2 .3 2.6.4l-1.2 3.5-2.2.4.8-4.3Z"/><g fill="#e0ceab"><path d="m197.4 5 7.6 2.3.7.2.5.5c3.5 4.3 7.9 8.3 8.8 14l-5.2-2.1 2-2-2.2-3.9-5 1c-2.6-2.4-5-5.1-8.4-6.4l1.2-3.5ZM270.4 52.3a11 11 0 0 0 5.5 5.6 167.3 167.3 0 0 0-9.7 1.4l1.8-2.4.8-2.2.4-.7 1.2-1.7Z"/></g><path fill="#b4a181" d="m225.7 5.5 1.3-.7 5.8-.1-.8 2.6c.7 1 1.9 1.6 3.1 2l-.1 4.6c-1.8-.4-3.6-.8-5.3-1.4l-.8-1.2h4c-1-1.5-2.4-5-4.5-3.2l-.3 1.6h-.5c0-1.6-.9-3-1.9-4.2Z"/><path fill="#846647" d="M232.8 4.7c3 0 5.8 0 8.7.3l.8 1-5.5 1.9-4.8-.6.8-2.6Z"/><path fill="#ede3c4" d="M310.6 5c.7.3 1.1.8 1.3 1.7l-.4.6a6 6 0 0 0-1 4.1l-5.2-.8c0-1.4-1-3 0-4.3 1.7-.3 3.6-.5 5.3-1.2Z"/><path fill="#c9bba6" d="M329.5 4.3c4 .1 8.1.4 12.2 1L343 5l-.4 2.3 3.3.2-1.8 1.2-3.6-1.1.4 3.5-.3-.7c-.6-1.5-1.2-3.2-2.8-4l.6 4.5-.9-1-.2-.6-.8-3.2-4.3 2.6-.1-2.8-2.4 1.6-.2-3.1Z"/><path fill="#efe2c9" d="m343 5 1-.4c2.4-.2 5-.1 7.5 0l-2.4 4.8-3.7.1c-1 4.1-.8 8.4-1 12.6H342c.8-2.2 1-4.6-1.1-6.2l-1 4c-.5 2.2-1 4.5-2.5 6.3-.4-5.5.3-10.9.1-16.3l1 1 3.5 3.4-1.1-3.3-.4-3.5 3.6 1.1 1.8-1.2-3.3-.2.4-2.3Z"/><path fill="#fffded" d="m394 5 8.9-.2 2 3.8h-5.6l-.1-3-5.2 1.3 1 3.3 3.4.2-.1 2.8-4.2.3.5 3.2h-2.3c1-3.3 1-6.7.2-10L394 5Z"/><path fill="#f3e5c4" d="m402.9 4.8 11 .2 1 4.2h-2.2c-2.6-.4-5.1-.6-7.7-.6l-2.1-3.8Z"/><path fill="#40362c" d="m433.6 4.7 1 3 1.2 4c2.1 5.3 5.5 10 9.1 14.4l.8.9-.5 1-.6 1.4c-4.1-3.3-5.5-8.6-9.3-12a10 10 0 0 1-3.1-3.9l1.4-2.3a21 21 0 0 1 0-6.5Z"/><path fill="#f0e6c8" d="M467.4 4.8h3c1.2 3.1.4 9-4.1 7.8.7-2.2 1-4.5 1-6.8v-1Z"/><path fill="#d7c4a5" d="M470.5 4.8c1.1 1.2 2.1 2.6 3.1 4-1 2.2-1.8 4.6-2.7 7-2.8-.9-4.7 1.5-6.6 3.1l2-6.3c4.5 1.2 5.3-4.7 4.2-7.8Z"/><path fill="#f2e9cf" d="M486 5.5c3.7-.1 7.3-.5 11-.7a14.5 14.5 0 0 0-2 8l-2.6-1c-.1 2.4-1.6 4-3.7 5l-1-1.4c0-2.8.2-5.7-.3-8.4L486 5.5Z"/><path fill="#a19d90" d="M46.8 5.8c3 1.2 5 3.9 5.8 7l-7-2.1 3.5.4 1-2-2.7-.7-.6-2.6Z" opacity=".9"/><path fill="#877458" d="m83 7.9 2-1.5 4.3 3H78.8l.2-1.2 4-.3Z" opacity=".9"/><g fill="#e6d2a7"><path d="m116 7 3.3-1 2.2 2.5.4.4-2.6 3-.3-3.6c-3.5.4-2.2 4.8-1 6.8l-.3 2.6c-1.6-1.3-2-3.3-2.4-5.2l-2.8-.2.4-2.3 3-3ZM324.4 84.2h.8c.8.8 1.9 1.5 1.6 2.8.1 3.1-.3 6.3-.2 9.4l.1 5.7a29 29 0 0 1-4.1.3l-3.7.2 1.6-1.1c-.2-1.7.5-2.5 2.1-2.4 1.6 1 3.1-.6 3.1-2.2-1-.2-2-.2-3 0l-2.1-.4.1-7.4 2.9-.5.8-4.4Z"/></g><g fill="#fffff5"><path d="M191.2 6.4c.6.5.6.5 0 0ZM154.3 81.4l4.3.6-.4 2.2 1.6-2.4 3.9-.4-.5 3.4c-1.2 1.1-4.3 1.4-3.5 3.6l4.8-1 .4 1.4.4 2.7-.2 1.3-2.7-3.2.2 4.8.3 1.5.4 1 3.5.2c.5 1.4.9 2.8 1.2 4.3-1.4.3-2.9.5-4.3 1-2.5-5.8-4.4-11.7-6.8-17.5-.5-1.4-1.7-2.4-2.6-3.5Z"/></g><g fill="#d0ba93"><path d="m236.8 7.9 5.5-1.9 1.9 2.3c-2.5 0-5 0-7.3-.4ZM398.6 48.3v5.3c2.8.2 5.7.5 8.5.9l-1 5c-6 0-12-.4-18.1 0 1.1-1.8 2.5-3.6 2.7-5.9l.3-.3 3.4-4.8c1 2.3.5 4.7 0 7l2.5.3 2.2 2.2 3-2.6-5.4-.7c.6-2.2 1.2-4.3 2-6.4Z"/></g><path fill="#c3ac8b" d="m244.8 8.4 1.1-2.8c3.4.3 6.8 1.1 9.9 2.6l-.2 5.4-2.4-2.6-1.2-1.2c-2.3-.8-4.8-1.2-7.2-1.4Z"/><path fill="#6a6355" d="m329.7 7.4 2.4-1.6v2.8l.1.6h5.1l.2.7c.2 5.4-.5 10.8-.1 16.3l-.4 2 2 2.3c-1.6 2.2-1.6 5-1.6 7.5 0 1.8-.3 3.9 1.3 5.2l-1.9.2c-.2-11-.4-22.2-.1-33.3-2 .2-3.9.2-5.7-.5l-4 .3-3.2-.1 2.4-1.4 3.6.9V7.4Z" opacity=".6"/><path fill="#e6d5b7" d="m332.2 8.6 4.3-2.6.8 3.2h-5l-.1-.6Z"/><path fill="#ebd17c" d="M394 7c1.8-.6 3.5-1 5.2-1.4v3l-.8 1.8-3.5-.2-.9-3.3Z"/><path fill="#645e54" d="M466.5 5.8h.8c0 2.3-.3 4.6-1 6.8a203.4 203.4 0 0 1-3.3 10.3l-.3.8a85 85 0 0 1-3.4 9.4l-.7 2c-1 3-2.3 6-3.3 9.2l1.7 1c-1.4 0-2.3-.6-2.7-1.8a458 458 0 0 0 11.6-32.7c.6-1.6.7-3.3.6-5Z" opacity=".6"/><path fill="#60574f" d="M175.1 6.8c1.4 1.3 3.2 2.4 3.7 4.3l-2.6-.8c0 1.5.3 3 .5 4.4 0 1.6.8 2.7 2.4 3.1l.6 1.8-4-.4c.6 3.7.8 7.4.6 11l-.2 4.2h-.9c.2-9.2.3-18.4 0-27.6Z" opacity=".6"/><path fill="#5e5041" d="m232 7.3 4.8.6c2.5.3 5 .4 7.4.4l.6.1c2.4.2 4.8.6 7.2 1.4-5.3-.2-10.6-.4-16-.2l-.9-.3c-1.2-.4-2.4-1-3.1-2Z" opacity=".7"/><g fill="#a99377"><path d="M337.8 6.3c1.6.8 2.2 2.5 2.8 4l.3.7 1 3.3-3.5-3.5-.6-4.5ZM151.2 8.5a30 30 0 0 1 1.6 8.3c3 .3 3-2.5 2.9-4.7l3.7.8-.3 3.4c-1.3-.7-2.3-.5-3 .6.8 1 1.8 1.3 3.1.7l.1 4.3-4.5 1.5-2-3.5 1.9-.4-.1-2H152l-.8-2.7V8.5m4.5 11c-.3 1.4.2 1.8 1.7 1.2.3-1.3-.2-1.7-1.7-1.2ZM151.3 37.4h.7l.6 1.4.1 5.5V46l2.7-.5c.7.5 1.5 1 2.4 1.3 1.3-1.5 1-3.5.8-5.4l-.5-3 .8-.6.4-.3c0 3.9 0 7.7-.2 11.5v.2c-2-1.3-3.7 1.3-2.3 3v3.3c-2.3-1-4-3.2-5.4-5.4-.8-3 3.3-1 5-1.5-1.7-.5-3.3-.8-5-1V37.3ZM70.7 52l3 .9-.2 2.3V58c2.3.5 4.5.8 6.8 1.1h.8a51 51 0 0 1-11 0L69 58a9 9 0 0 0 1.8-6ZM317.7 82l1.9-.2.3 2.5-.2 1.1-8.2-.2L313 84h3.6l1-2ZM375.1 99.3c2.3 0 5.2-1.8 7 .2h-3.7c-1.1.2-3.6 1.5-1.5 2.5h2.3c-.8.4-2.7 1-2 2.3 1.6.8 3.7-.6 4.1-2.3l.2.5 1.3 4.3-1.3 2-.2 4a59.7 59.7 0 0 1-3.7-4.2c-1.3-3-2.8-6-2.5-9.3ZM80.2 104.1c1.4-.3 2.7-.2 4 .4l.2.5c-1 1.1-3.1 1.4-4.2.4v-1.3Z"/></g><path fill="#58130d" d="M607.2 7.4c1.4.6 3 1.3 4.6.9l1.4 1.5c-2 .4-4 .9-6.1 1.2V7.4Z"/><path fill="#7b5e41" d="M228.4 8c2-1.7 3.5 1.8 4.4 3.2l-3.9.1-.8-1.6.3-1.6Z"/><path fill="#565148" d="M390.2 7.5c2.4 3.3 1 7.6 1.1 11.3v6.7c.2 6.4-.2 12.8 0 19.2l7-.3c.2-4 .1-7.9 0-11.8h1c-.2 4.2-.2 8.5-.2 12.8l-8.9-.5c-.7-7 .2-13.9 0-20.8-.3-5.5.7-11 0-16.6Z" opacity=".5"/><path fill="#726c60" d="M399.3 8.6h5.7c2.6 0 5.1.2 7.7.6l1 .5c-5 .3-9.8-.2-14.7.2.2 5.7.1 11.3 0 17 6.4.3 13.6 1.6 19-2.2 2.3 1.8.1 5-.1 7.4 0-2 0-4.2.2-6.4-1.7.9-3.4 1.7-5.3 2-2.4 0-4.9.4-7.2 1-1.7-1.3-3.7-.7-5.6-.6l-1.3-.9c-.8-4.6-.3-9.3-.4-14l.1-2.8.9-1.8Z" opacity=".5"/><path fill="#6d6559" d="m473.6 8.8 1.3-1.2c-2.8 6.5-4.2 13.7-8 19.7l.6-2c.9-3.3 2.2-6.4 3.4-9.6.9-2.3 1.6-4.7 2.7-7Z" opacity=".5"/><g fill="#b81b1f"><path d="M575.5 10.4c4.6-2.5 10-2.2 15-1.1l.8.2a27 27 0 0 0-16 4.1l.2-3.2ZM603 37.8c4.2-.8 8.5-1.3 12.8-2.1l1.4 5.4-.3.6-2.2 1.7-5.2-.5-.1 3.6 3.3-.1.9 1.9-.7 1-5.8 2.6 3.3.5-2.6 5.1h-5.2l-.2 3.8c-2-.2-4.1-.5-6.1-.9l1 2c-1.6-.1-3.1-.4-4.6-.6 1.3-2 2.4-4.3 4.2-5.9 3-1.6 6.8-1.8 9.6-4-3.5.1-7 .6-10.5 0l.8-3c2.2-3.6 4.8-7 6.2-11Z"/></g><path fill="#be141a" d="M597.5 11.6c1.1-1.3 2.2-2.8 3.6-3.8 1.5-.2 3.1-.2 4.7-.2L607 11l6.1-1.2 1.5 1.9-3.1 2.6c.5 3.6-1.6 6.4-3.7 9 1.6.2 3.1-.5 4.6-1.1-.5 2.3-1.3 4.5-2.1 6.7a17.1 17.1 0 0 0-5-6.1l-.7-2.8.1-2 4.8-1.3v-3.5c-2.4.6-5 1.3-6.7 3.2a16 16 0 0 0-5.4-4.8Z"/><path fill="#f0e9ce" d="M118 15.1c-1.2-2-2.5-6.4 1-6.8l.3 3.7-.6 2-.7 1.1Z"/><path fill="#8d8373" d="m235.1 9.3 1 .3c.3 5.8 0 11.6.1 17.4l6.9.7c3.8-.8 7.9.3 11.4-1.8l.4 2.5-5 3-.2-3.6c-3-.5-6.5.2-7 3.8 4.2.1 8.3 0 12.4-.1l-1.9 2.4c-3.4-1-7-1.2-10.4-1.5l-.3-3.8-7.2-.8A493.7 493.7 0 0 0 235 14l.1-4.6Z" opacity=".7"/><path fill="#635d52" d="m345.4 9.5 3.7-.1 6-.2 3.1 1.3c-4-.1-7.9-.6-11.8-.3-2.4 12.5.8 25.3-1 37.9v-.2c-1-.4-2-.8-3.1-1-1.6 0-3.2.3-4.7.6 0 3-.2 6.1-1.1 9.1l-1.4.8c1-3.2 1.8-6.5 1.7-10 1.3-2.1 4.7-.8 6.8-1.7 2.1.8 1.7-2.5.4-2.6l-3-.3 4-1-.2-.5c-.3-2.9 0-5.7.3-8.6 0-2-.3-4-.7-6l-.1-.6V25l.1-3c.2-4.1 0-8.4 1-12.5Z" opacity=".5"/><path fill="#f0eada" d="M435.8 11.7c.6-.9.4-4.7 2-2.8 2.8 3.3 1.5 8.7 5 11.7l1 1.6 1.1 3.9c-3.6-4.4-7-9.1-9-14.4Z"/><path fill="#d2c09a" d="M21.7 9a10 10 0 0 1 2.8 4.3l-.7 1.6-1.8-.3c-.2-1.8-.3-3.8-.3-5.7Z"/><path fill="#ab9d89" d="m176.2 10.3 2.6.8c.3 1.5-1.4 2.5-2.1 3.6a43 43 0 0 1-.5-4.4Z"/><path fill="#bda37d" d="M273.2 10.3c1.7 0 1.2 2.8-.3 2.8-1.6 0-1-2.7.3-2.8Z"/><g fill="#f0dfb8"><path d="m275.5 10 .2-.8c1.5 1.9 3 3.8 4.8 5.5v.5l1.3 1.4h.4c1 1.3 2 2.5 3.2 3.5l.4 3.1-4.5 1.9a101.4 101.4 0 0 1-5-6.5l-1.8-.5.4 6.3-2.4-1.1v-8.9l2-.8 1-3.7ZM391.3 25.5c1.3.9 2.5 2 3.6 3.2-1.2 2-4.3 5.4-1.9 7.4 1.3-1 1-2.8 1.6-4.1l1 5.4c-1 0-2-.2-3-.1l-1.3 7.4c-.2-6.4.2-12.8 0-19.2Z"/></g><g fill="#d0c5ab"><path d="m519.4 10.6 1.7-1.1c.5 4.6.5 9.2.2 13.8-2.6 0-5.2 0-7.7.2.3-3.9.4-7.7.5-11.5.9 1.7 2 3.4 3.1 5 1-.6 2.5-.8 3.1-2-.2-1.4-.6-3-1-4.4ZM94.1 27.3l4.7-2.4-.4 3.2-2.5 2.5c-2.6-1.2-5.3-3.7-8.3-2l-.4-1.3H94Z"/></g><path fill="#948573" d="M42.6 11c3.8 1.9 6 7.2 11 6.6l-.6-3.3.3-1.3c.8 4 .5 8.3-1.3 12l.4-5.1H51l-5.4-.4.1 1-.5 3.7A28 28 0 0 0 42.6 11Z"/><path fill="#c5af8a" d="m76.2 11.7 1.9-.1c0 2.6-.1 5.3-.4 7.9l-1.2.5-4.6-2.5 4.3-5.8Z"/><path fill="#e2c474" d="m25.6 11.2 2.8 4-4.6-.3a103.8 103.8 0 0 0 1.8-3.7Z"/><path fill="#6e675d" d="M113.7 25.7a17.6 17.6 0 0 1-1.9-14.3 264.3 264.3 0 0 1-.1 8.2l3.2-.2-2.5 1.8 3.5 2.2-1.7.8-.4 1-.1.5Z" opacity=".7"/><path fill="#ad9a7f" d="m111.8 11.4.8.9c1 1.1 2 2.5 2.8 3.8l-3.6.2v-4.9Z"/><path fill="#cec9bc" d="m112.5 12.3 2.8.2c.5 1.9.8 4 2.5 5.2l-.1 2.3 2.3 2.8c-1.3.3-2.7.6-4 .6-1.3-.7-2.5-1.5-3.6-2.3l2.5-1.7-3.2.3.1-3.4 3.6-.2a30 30 0 0 0-2.9-3.8Z"/><path fill="#41111a" d="M597.5 11.6c2 1.2 4 2.7 5.4 4.8l1.8 3.6.8 2.8.7 3.5c-.4 3-1 5.8-1.7 8.7l-1 1.4c.7-5 2-10.2.5-15.2-1-3.9-3.9-6.8-6.5-9.6Z" opacity=".5"/><path fill="#9b0b11" d="m614.7 11.7 1.9 3.6-2.5 3-1.6 1.2v2.7c-1.5.6-3 1.3-4.6 1.2 2.1-2.7 4.3-5.5 3.7-9.1l3.1-2.6Z"/><path fill="#fdf8e9" d="M305.4 12.2c1.5 0 3 .4 4.4 1 1.3 2 .4 4.6.6 6.8l-4.8-1-.1-.8-.1-6Z"/><path fill="#9c1810" d="M602.9 16.4c1.8-2 4.3-2.6 6.8-3.2l-.1 3.5-4.8 1.4-.1 2-1.8-3.7Z"/><path fill="#a09686" d="m118 15.1.7-1.2c.3 2.6 1.2 5 2.4 7.3L120 25l-.1.4c-1 1.1-1.7 2.3-2.5 3.6l-.5.9-3.1-4.5.4-1.1 1.7-.8c1.4 0 2.8-.3 4.1-.6l-2.3-2.8v-2.3l.3-2.6Z" opacity=".9"/><path fill="#f6e8c2" d="m204.6 15 5-1 2.2 4-2 1.9L215 22l.6 2.1c-2.2.6-4.4 1.3-6.5 2.2 0-4.3-1.7-8.3-4.5-11.5Z"/><path fill="#645751" d="M151.3 14.8a288.3 288.3 0 0 1 1.6 5.1l-1.3-.7v7.2l3.2-.5c-.8 2.2-1.1 4.6-1.2 7l-1.7 2.7-.7-.6c-1-3 .6-6 .1-9-.4-3.7-1.4-7.6 0-11.2m.9 16.5c.5.5.5.5 0 0Z"/><g fill="#c6bba2"><path d="M178.7 14.5c1.7.8 3.3 1.8 4.9 3l-4 1h3.5v.8c-1.2 1.2-2.7 2-3.5 3.6 0 2 1.8 3 3.3 3.7l-.4 4.8-4.7.4 2.8-3.8-.9-2c-1.7 1-3 2.3-3.4 4.2.2-3.6 0-7.3-.5-11l4 .4-.7-1.8-.4-3.3ZM293.3 33.1l4.5 4.6c-.5 1.3.5 2.4 1 3.6l-3 1.3-.2-.8-.2-2.5c-1-.9-2.2-1.7-3.3-2.5l1.2-3.6ZM95.2 84.5l1.7 1 .6 2.5c.3 2 1.5 3.7 2.5 5.5l-4.6 1c1.5-2.6 1-5.7 1-8.6l-1.3-1.4Z"/></g><g fill="#f4edd8"><path d="M464.3 19c1.9-1.7 3.8-4 6.6-3.3-1.2 3.2-2.5 6.3-3.4 9.6a120 120 0 0 1-3.9-1L463 23l1.3-4ZM213.7 35.6c1.4-2.3 2.6-4.6 3.5-7.1V32a61 61 0 0 0-.7 4l-2.8-.5Z"/></g><path fill="#faf3d5" d="m492.9 16 3-1.2c-.2 4.2-.1 8.5-.2 12.7l-3.9-.1-2.9-.7v-4.6a22 22 0 0 0 6.6 3.1c.2-2-1.5-2.9-3-3.6 0-1.9.2-3.7.4-5.6Z"/><path fill="#e7d9bd" d="M156.1 16.9c.7-1 1.7-1.3 3-.6l.1 1.3c-1.3.6-2.3.3-3-.7Z"/><path fill="#70695a" d="m227.6 16 .8-.9.1 2.7V35.4l-1-1.4c-.3-6-.2-12 0-18Z" opacity=".6"/><path fill="#dfd5b9" d="m492.3 16.3.6-.3-.5 5.6c1.6.7 3.3 1.5 3.1 3.6a22 22 0 0 1-6.6-3l-.1-2 3-.3.5-3.6Z"/><g fill="#be1a1e"><path d="m614 18.3 2.6-3 .5 1.4c1.2 5.2 1.8 10.6.8 15.8l-8.8 1.6.6-2-3.5-5.8-.7-3.5c2.2 1.5 3.6 3.8 4.9 6.1.8-2.2 1.6-4.4 2-6.7l.1-2.7 1.6-1.2ZM619.4 90.2c1.4-4.7 2.2-9.6 3.6-14.3.5 6 .1 12 0 18a261 261 0 0 1-3.6-3.7Z"/></g><path fill="#e5d6b6" d="m22.5 16.4 6.8.8c-1.1.5-1.6 1.6-2 2.6l-1.9 2.6 3.8.1c-.3 2.4-.8 4.8-1.3 7.1-1.9-.8-3.8-1.8-5.5-3-.6-3.4-1-6.9 0-10.2m.8 4.7c-.5 1.7 0 2.3 1.7 1.7.4-1.6-.1-2.2-1.7-1.7m.8 3.2c-.3 2.1 2.6 1.7 4 2.5l-.2-2.6a96 96 0 0 0-3.8.1Z"/><g fill="#4b0509"><path d="M152.1 17.6h2.5v1.9l-1.7.4-.8-2.3ZM275.9 30c.8 4.2.3 8.6.6 13a15 15 0 0 1 3.6 2.5c-2.6.3-5.2.1-7.6-.6l.9-.1 1.8-.2.4-.6c.8-4.7.2-9.4.3-14ZM495.7 35.7c5.6.8 11.4 1.4 16.9-.5l.7-.2.2 4.7-.1 3h-1v-3.3c-5.6.3-11.5.3-16.7-2v-1.7ZM49.3 41.5l.2-2.4c3.3.7 6.5 1.2 9.7 2.2-2.7.2-5.4.2-7.9 1l-.5.2-2.3.9c-1.7.1-3.4.2-5.1.1l-3-1.2v-2.7l1.4 1.9 3.2.2c1.3.8 2.7 1 4.1.5l.2-.8ZM249 38.4c6.8.5 13.1 3.4 19.9 4l.2 1.3c-1.5 0-3 .2-4.4.3-2.3-.3-4.4-1.4-6.6-2.2-3.3 0-7.7.4-9-3.4ZM524.4 56.3c3.8-.3 6.4 2.9 10 3l1.6.1c3.6 2.7 7.9 4.5 11.6 7 3.4 2.5 7.6 3.9 10.7 6.9l3 .6 1.6 3.1c-1.8-.8-3.5-1.8-5-3-8.9-4.3-17.3-9.4-25.8-14.1l-4-1.4V58l-3.7-1.7ZM178.8 101.8l1.4-3.1c-1.3 1.4-.2 3.2 1.2 3.8 3.6 1.6 7.5 2.6 11.4 2l-.6 1.8c-4.6.6-8.9-1.5-13.4-2l-1.2 1.7-2-1.5c.8-1.2 2.6-1.4 3.2-2.7ZM276 104.6c4.2.1 8.3-.9 12.5-.8l.8.3.9.8 1 3.5.6 1.9 1.7 5.3c3-.3 6.4.8 9.1-.7l.6-.3-.5 2.2a85 85 0 0 0-10-.2c-.5-3.8-2-7.4-3.3-11-3-1.7-6.8.8-10 0l-3.4-1Z" opacity=".4"/></g><path fill="#e5e1cc" d="m228.5 17.8 5.4-.9v3.3l-5.3-1v-1.4Z"/><path fill="#a09989" d="M340 20c.2-1.4.6-2.8.9-4 2.1 1.5 2 3.9 1.1 6.1h-2.5l.4-2.2Z"/><path fill="#782227" d="M617.1 16.7a31.5 31.5 0 0 1 0 24.4l-1.3-5.4c-4.3.8-8.6 1.3-12.8 2.1 0-.3.4-1 .5-1.4l1-1.4 4.6-.9 8.8-1.6c1-5.2.4-10.6-.8-15.8Z"/><path fill="#f4eed6" d="M27.4 19.8c.3-1 .8-2.1 1.9-2.6l-.1 5.3-3.8-.1 2-2.6Z"/><path fill="#6a5f4e" d="m274.5 18 1.8.6.6.8-1.4.5c0 3.3.3 6.7.4 10 0 4.7.5 9.4-.3 14l-.4-1.5-.2-3.9V35a409.4 409.4 0 0 0-.1-10.5l-.4-6.3Z" opacity=".6"/><path fill="#fff7cc" d="M437.3 27.2c.8-3.6-2.3-6.3-2-9.8 3.8 3.4 5.2 8.8 9.3 12l-1.1 2.1-2 .4.3-3-4.1 1.3-.4-3Z"/><g fill="#ceba9f"><path d="m71.1 20.1 3.3.6 2-.7 1.3-.5.8-.3c0 2.7.5 5.4 0 8l-2.6 6.4a258 258 0 0 1-4.8-2.8l-.6-.4c.6-3.2.7-6.4.1-9.6l.5-.7ZM48.5 43.4l2.3-.9 3.7 5.6-2.6 2.6 4.4-1.3-2.8 5.7A45 45 0 0 0 49 51l-1-1.5 4-2.3-3.4-3.8Z"/></g><path fill="#634c32" d="m391.3 18.8.2 4.8 2.7-.2c.7 1.5 1.4 2.9 2.4 4.2a8.7 8.7 0 0 0-.2 3.5l1 .5c2.1 1.6 4.9-.4 7.4.3 3 .4 6.1.4 9.2.8l.5.8c-5-1-10.1-1.2-15.2-1h-1l-2.4-1.3-1.3.8c-.5 1.3-.4 3.1-1.6 4.1-2.4-2 .7-5.4 1.9-7.4-1-1.2-2.3-2.3-3.6-3.2v-6.7Z"/><path fill="#fffdec" d="m45.8 19.5 5.3.3-.8 4.7c-1 0-1.8.2-2.7.3l-1.8-4.2v-1Z"/><path fill="#efe2c0" d="M51 19.8h1.4l-.4 5.3c-.5 1.3-1.2 2.6-2 3.9l.5-3.2-3.4 1.4 1.4 4.3a54.3 54.3 0 0 1-3.6 2.4c0 2.6-1.4 4.7-3 6.5 2.5.3 5 .5 7.4 1l-.2.8c-1.4.4-2.8.3-4.1-.5l-3.2-.2a288.2 288.2 0 0 1-3.2-4L37 36l2.6-.7 1.4 4c3-2 2.9-6.2.8-8.7 1.8-1.7 3-3.9 3.5-6.3l.5-3.6 1.8 4.2 2.7-.3.8-4.7Z"/><path fill="#e7dcc1" d="M179.6 23c.8-1.6 2.3-2.5 3.5-3.7.1 2.4 0 4.9-.2 7.3-1.5-.8-3.3-1.7-3.3-3.7Z"/><path fill="#c9c2af" d="M337.4 26.2c1.4-1.8 2-4 2.5-6.3 0 .6-.3 1.7-.4 2.3l2.5-.1h2.4V25l-4.4-.8-.7 4.3-2.3-.2.4-2.1Z"/><path fill="#c5a183" d="M23.2 21.1c1.6-.5 2.1 0 1.7 1.7-1.6.6-2.2 0-1.7-1.7Z"/><path fill="#5a4e43" d="M121 21.2a23 23 0 0 0 3.7 4.1l-4.1 4-.7-4v-.4l1.2-3.7Z" opacity=".9"/><path fill="#f9f3d9" d="m230.5 23.3 4.6-2.1.2 6.7 7.2.7.3 3.8c-2.3.1-4.7-.4-6.9.4l-1.8.8-.6-.4 1.2-2.8-2.8-1.2 2.8-1.1-.6-4.2-3.6-.6Z"/><path fill="#fbeed2" d="m305.7 20.3 4.6 1.5-.6 5.2a77 77 0 0 0-4 1.8v-8.5Z"/><path fill="#51443a" d="M216.3 22c.3 2.2.8 4.3.9 6.5-.9 2.5-2.1 4.8-3.5 7l-1.7-.2-.2-1.8-1.4-2.3c2 1.4 3-.8 3.9-2.3 1-2.1 1.8-4.4 2-6.9Z" opacity=".9"/><g fill="#dcca9e"><path d="m285.8 23.2 2.3.1c2.3 2.3 4.7 4.4 6.7 6.9l-1 .2-.9.2c-2.1-.2-4.3.2-6.3.9-1.7-2.2-3.4-4.3-5.3-6.4l4.5-1.9ZM235.7 53.6c3 .6 6.2.7 9.3.7l-.4 2.4-.8-1.4c-1.8-.7-1.8 2.4-2.7 3.4h-.8l-2.4-.4 1-3-2.8-.7-.4-1Z"/></g><path fill="#d6cbb9" d="m462.7 23.7.3-.8.6 1.5 3.8.9-.4 2-.6 2.3-3.5-.4.5 1.6L461 29a85 85 0 0 0 1.8-5.3Z"/><path fill="#877e6c" d="M513.6 23.5c2.5-.2 5.1-.3 7.7-.2l.7 1.8-8.7.7.2-1.3v-1Z"/><path fill="#ede7cf" d="M24 24.3a96 96 0 0 1 3.8-.1l.1 2.6c-1.3-.8-4.2-.4-4-2.5Z"/><path fill="#e0c273" d="m230.5 23.3 3.6.6.6 4.2-2.8 1c-.6-1.9-1-3.9-1.4-5.9Z"/><path fill="#a8a089" d="m340 24.3 4.3.7v1c-1.1.8-1.6 1.7-1.5 3 1.2 1.8 2-1.4 1.6-2.3.4 2 .7 4 .7 6l-5.3-1.9-.9-.3-1.9-2.2 2.3.2.7-4.3Z"/><path fill="#b3ab99" d="m156.3 25.1 2.5-.6.6 4-2.8.4-2-.3.3 4.1 3 .1-.1.8-2.6 1-3.3 1 1.7-2.6c0-2.5.4-4.9 1.2-7.1l1.5-.8Z"/><path fill="#f3e9c8" d="m254.4 25.3 1.3-.2c-.6 4-.3 8.1-1.2 12-.5-1-2.9-2-1.3-3.2l2-2.4c-4.2.2-8.3.2-12.5.1.5-3.6 4-4.3 7-3.8l.2 3.6 5-3-.4-2.5v-.6Z"/><path fill="#cfc1a4" d="m47 27.2 3.5-1.4L50 29l-1.6 2.5-1.4-4.3Z" opacity=".9"/><path fill="#f4e9c9" d="M117.5 28.9c.7-1.3 1.5-2.5 2.4-3.6l.7 4 4.1-4c2.6 3 6.4 4.8 8.5 8.1-2.2 0-4.4 0-6.5.2l-.5 2c3.2.3 6.5.4 9.8.4l.7 1.5h-5.2v1.3l-1.9-.3-4.2-1c-1.4-1.6-3.7-2.5-4.3-4.7-1.5-.9-4-1.7-3.6-3.9Z"/><path fill="#fafcea" d="M176.3 30.2a6.7 6.7 0 0 1 3.4-4.2l.9 2-2.8 3.8 4.7-.4 1.2-.2-.3 2.7c-2.4.3-4.8.4-7.3.5 0-1.4 0-2.8.2-4.2Z"/><g fill="#fffbe0"><path d="m209.2 29.1 5.2-3.1-.1 3c-.9 1.4-2 3.6-4 2.2-.2-.5-.8-1.6-1.2-2ZM516.5 26.3c1.8-.8 4-.7 5.4.8-2 1.5-4 1.3-5.4-.8ZM449.7 103.8l3.2-1.1c-.5 4-.4 8-.2 12.1l-2.7-2-.6-.5.1-.6c.7-2.6.5-5.3.2-8ZM466.2 107.6c1.2 1.3 2.4 2.7 3.7 3.9 1.5 1 3.4 1.3 5 1.8l2.9-.8 2.3 2.7 2-.3-.8.6-2.3.3c-2.5 1.3-5.4.5-8 .6-1.2-1-2.8-1-4.2-1.2l-1.2-2.1c.9-1 1-2.1.8-3.3l-.2-2.2Z"/></g><path fill="#d9cdb3" d="M342.8 29c-.1-1.3.4-2.3 1.5-3l.1.7c.4 1-.4 4.1-1.6 2.2Z"/><path fill="#aba08e" d="M412.8 27.7c1.9-.3 3.6-1.1 5.3-2l-.2 6.4-.1 5.2c-1.4-1-2.4-2.4-3.3-3.8l-.5-.8 3.4.7-1.3-4.3-3.4 1.9v-3.3Z" opacity=".8"/><path fill="#9c0e15" d="m474.5 26.2 5.4 1.4 2.3 1.8-2.4.4-5.1-.7-.2-3Z"/><g fill="#79080e"><path d="M480 27.6c2.3 0 4.6-.4 6.9-.7l.8.4 1.3 1.1 3.3-.9 4.2 1.8c-3 0-6 0-8.6 1.6l-1.9-2.7-3 1.5 3.4 2.1.6 2.2c-2.4-1.4-4.8-2.9-7.3-4.2l2.5-.4-2.3-1.8ZM410.7 94.2l.6-.4 2.5 1.8c3.3-.8 6.3 2.2 9.5.6l1-.4 5-.4c1 2 3.1 3 5.4 2.2l-2.6-3a146.5 146.5 0 0 0 3 2.3c1.8 1.8 4.3 1.7 6.5 1.1h.3a81 81 0 0 1 6.8-.6c1.4.7 3 1.2 4.6.7 3.7-.5 7.5-.5 11.2.2-3.5.6-7 .9-10.4 1l-5.9.2c-6.3.2-12.5 0-18.8-.2l-5-.5c-2.7.5-4.7-2-7.3-1.3-3.8.9-7.8.5-11.6-.2-.9-.3-.9-1.4-1.2-2.1l2.8 1.4 3.6-2.4m13.8 3c.2 1.3.9 1.5 2.1.6-.2-1.3-1-1.6-2.2-.7Z" opacity=".7"/><path d="M443.2 94.2c1.5-.9 3.8 1 1.7 2.1-1.7 1.5-4.2-1.3-1.7-2ZM436.8 108.1l2.7.2-.1 3.8c-1.1-1.1-2-2.5-2.6-4ZM482 115l3.5-2.5.9 2.7-5.1.3.7-.6Z" opacity=".7"/></g><path fill="#f3eacb" d="M22.2 40.5c.3-4.7 0-9.3.2-14 1.7 1.3 3.6 2.3 5.5 3.1.8.8 1.4 1.6 2.3 2.3.3 3.9-2.3 7-3 10.7l-4.6-.8-.4-1.3Z"/><g fill="#b29a6f"><path d="M75.9 33.6c.8-2.1 1.8-4.2 2.5-6.3 3.1 0 6.3 0 9.2 1.3-2.3 1.5-5 .2-7.6-.2l-1 3.8c5.3 0 10.6-.6 15.9 0 .5.9 1 1.8 1.3 2.7-5-4-11.9-2-17.7-2.3l.4 5.7-3.5 1.5c-1.6 1-3.5.7-5.3.8l1.3-3.6c-1-2-.9-4.1-.3-6.2l4.8 2.8ZM165 88.8v-1c1.6 5 3.4 10 4.9 14.9l-7.1.1 1-.5 4.2-1-1.2-4.2-1.5-5.6-.4-2.7Z"/></g><path fill="#dbcba3" d="M270.5 28c1.3-2.6 3 0 4.5.9v6l-5.1 1.5-.2-3.7 3 1c-.8-1.9-2.3-3.6-2.2-5.7Z"/><g fill="#60070b"><path d="M491.8 27.4h4c5.6.4 11.3 1.3 17 1.1h.7l-1 1.3c-5.3 1.2-10.7 0-16-.5l-4.2-1.8-.5-.1ZM79 38.3c6 .7 11.9-.8 17.9-.8h.5c4.5-.2 9-.1 13.6-.1.3 2.6-2.5 2.1-4.1 2.2-10.5-.6-21 1.8-31.5.2l3.5-1.5ZM451 43.3l2 .7 1.3-.5c.4 1.2 1.3 1.8 2.7 1.7l3 .5 1.3-3.2-.3 2.4-.7 2.5c-4.8-1.4-10.1-2.4-14.9-.4l.8 2-1 1.4-.3.5-.2-2.7c-3.6.1-7.3.6-10.9-.1-4.9-1-10 .1-14.8-1.3-5.3 2.2-10.7-1-16 .5-4 .4-8 .2-12-.3l-1-.2 9.1-1.4c7-.4 14 .3 20.9.1 5.7-.3 11.3 1 17 .9l2.3 1.3-1-3 .2-.5h2.3-.8V47l4-1.2 6.8-1 .2-1.4ZM140.5 101.4l1.2.4h.8c6.7-.2 13.4 0 20-.1l1.2.6-1 .5a9.8 9.8 0 0 1-8.2-.1 44 44 0 0 1-18.1.1l4-1.4ZM313 103l.8-1.8.3 1.3c-.2 3-4 2-6.1 2.1-1.8 1.2-3.8 1.3-5.8 1.1l.5-2 8.3-.5 2-.1Z" opacity=".5"/></g><path fill="#a07f69" d="m514.3 28.4 1.7-1.9.5-.2c1.4 2.1 3.3 2.3 5.4.8l-.4 1.9c-2.4.7-5 .5-7.3-.3l.1-.3Z"/><path fill="#d51416" d="m606.2 26.3 3.5 5.8-.6 2-4.6.9c.7-2.9 1.3-5.8 1.7-8.7Z"/><path fill="#f0e7d5" d="M87.6 28.6c3-1.7 5.8.8 8.3 2l2.5-2.5a19 19 0 0 1-.6 3.8c0 1.9-.1 3.7-.4 5.6H97l-.8-2.6c-.3-1-.7-1.8-1.2-2.7-5.3-.6-10.6 0-15.9 0l1-3.8c2.5.4 5.3 1.7 7.6.2Z"/><path fill="#ffffe5" d="M400 28c1.9 0 4-.6 5.6.7l-.8 3.2c-2.5-.7-5.3 1.3-7.5-.3a56 56 0 0 0 2.7-3.5Z"/><path fill="#eee0c3" d="M405.6 28.7c2.3-.6 4.8-1 7.2-1V31l3.3-2 1.3 4.4-3.4-.7c-3.1-.4-6.2-.4-9.2-.8l.8-3.2Z"/><g fill="#f5eecf"><path d="m154.7 28.6 1.9.3c3 .5 3 3.6 2 5.8l-3.4-.2 2.6-1 .2-.7-3-.1-.3-4ZM23.6 45.7l.3-.2 1-.2 3 .8-.2 1.6c-1.9-.2-4 0-5.6-1.3l1.5-.7ZM245 54.3c2.7-.3 5.3 0 8 0l-1 1.5 4.2 2.7-.1.8a8.5 8.5 0 0 1-4.1-1.5c-2.5.9-5.2 1.2-7.8 1.4l.4-2.5.4-2.4Z"/></g><path fill="#c6b79e" d="m437.7 30.2 4.1-1.3-.3 3 2-.4 1-2.1.7-1.4-.5 4.9a61.4 61.4 0 0 0-4.9 1.1l-1.6-3-.5-.8Z"/><path fill="#6a5c4b" d="M445.2 28c1 1.2 1.4 2.7 1.7 4.2l1.8 4.3-7 2.1.9 4.3a88.2 88.2 0 0 1-4.4-11.8l1.6 2.9 2.1-.5-1 3.1c2.2 0 4.2-.9 6.1-2.1l-2.3-1.6.5-5Z"/><path fill="#e3dece" d="m460.9 29 2.5 1.8 1.3 1-5.4 1.3 1.6-4.1Z"/><path fill="#746d64" d="m462.9 29.2 3.4.4c-1.5 3.7-1.9 8.2-4.5 11.3a175 175 0 0 1 2.1-6.4c-1.8.1-3.5.4-5.3.6l.7-2 5.4-1.3-1.3-1-.5-1.6Z" opacity=".8"/><path fill="#5b4339" d="m513.5 28.5.8-.1-.1.3c2.3.8 4.9 1 7.3.3l-.3 1-.3.9c-2.5.2-5.1.2-7.7.2V35l-.6.2v-5.4l.9-1.3Z" opacity=".4"/><path fill="#6d0509" d="M521.5 29c5.7-1.3 11.7-.4 17.5.2 6.2-1 12.6-.9 18.9 0 2 .5 4 .7 6.1.5 7.9.6 15.8 1.1 23.7.9l-.1 1.9c-1.2-.5-2.3-1-3.6-1.2-7.5.2-15.1.1-22.7.3-5.7-1.5-11.6-.6-17.4-1-7.6 0-15.1-.6-22.7-.7l.3-1Z" opacity=".6"/><path fill="#a69d8c" d="M286.6 31.5c2-.7 4.2-1.1 6.3-1l-1.5 1.2-.8-.3-1.4 3.6-2.6-3.5Z" opacity=".9"/><g fill="#faf2d0"><path d="m305.8 31.5 4-1.6.4 1.7L306 34l-.2-2.5ZM351.4 81.5H362l-1.4 2.6c0 4.7 0 9.3-.3 14l-5.9.4c0-4.7-.3-9.4.2-14.1l-3.2-3Z"/></g><path fill="#26100e" d="M521.2 30c7.6 0 15.1.6 22.7.6 5.8.4 11.7-.5 17.4 1h-13.2l-.6 2.8c-3-3.2-8-1.1-11.9-1.4-3.7-3.2-8.8-2.3-13.4-2.2l-.7 4.7-1.8 1.1c1.4.3 3 .5 4.5.6l-2.2.8.2 4.3-.7.5-1-3.4c-1.7 0-3.4 0-5 .2 0-.8.3-2.2.4-3l4.6-1.2.2-2 .3-2.5.2-1Z" opacity=".2"/><path fill="#c9b489" d="M41.8 30.5c2 2.5 2.2 6.7-.8 8.6l-1.4-4-2.6.8-2 .4.8-3.2-4-.9c2.9 0 5.6-.5 8.4-.6 1.3 1.5 1 3.7 1.4 5.5 0-2.2 0-4.4.2-6.6Z"/><path fill="#b7a692" d="M152.2 31.3c.5.5.5.5 0 0Z"/><path fill="#6d6b64" d="m290.6 31.4.8.3 1.9 1.4-1.2 3.7 3.3 2.5.2 2.5c-2.3-2-4.2-4.5-6.4-6.8l1.4-3.6Z" opacity=".8"/><g fill="#faf7ea"><path d="m293 30.6.8-.2 1.3-.1c1.7 2.7 4 5 6.3 7.3l-1.4 2.2-2.2-2.1-4.5-4.6-2-1.4 1.6-1.1ZM85 54.3a60.9 60.9 0 0 0 4.3.2l1.5 3.3-3.8-.2-1.8-3-.1-.3ZM400.3 83h1.8c5 1.3 7.4 6.7 8.6 11.2l-3.6 2.4-2.8-1.4c-.3-1.8-.8-3.5-1.3-5.1l-2.6-3 3.3-1.3-3.4-2.9Z"/></g><path fill="#d5c18e" d="M337.4 38c0-2.5 0-5.3 1.5-7.5l.9.3c-1.7 3.6-.1 7 2 10l1.7-4c.5 1.5 1 3 1.3 4.5l.1.6-3.9.9-2.4.4c-1.5-1.3-1.2-3.4-1.2-5.2Z"/><path fill="#ebdcbb" d="m339.8 30.8 5.3 2c-.2 2.8-.6 5.6-.3 8.5l-1.3-4.4-1.7 4c-2.1-3-3.7-6.5-2-10Z"/><path fill="#e6d4af" d="M488 30.9c2.5-.3 5.2-.4 7.8-.6l-.1 5.4v1.6a10 10 0 0 0-7.2-3l-1.1-.2.5-3.3Z"/><path fill="#786558" d="M513.3 35v-3.9c0 .5.4 1.4.5 1.8l.6 2 1.5 1.7-.5 3h-1.9l-.2-4.6Z" opacity=".5"/><path fill="#c8c7b6" d="M513.2 31.1c2.6 0 5.2 0 7.8-.2l-.3 2.5c-2.3-.1-4.6-.2-7-.5 0-.4-.3-1.3-.5-1.8Z" opacity=".9"/><g fill="#ead8b9"><path d="m30.2 32 1.7.2 3.9 1-.8 3.1-5.6.1v1l.1 5-1.2.8-1.5.3.3-.9c.8-3.6 3.4-6.9 3-10.7ZM156.8 52.1c-1.4-1.6.3-4.2 2.3-2.9l-.4 2.3-1.9.6ZM127.2 104.5l2.5-.3c.2 2.7-.4 5.6.8 8.1 4.5-.3 9.6 1.2 13.2-2.3l-.1 5.6a162.2 162.2 0 0 1-16.1 0l-.6-3-.2 2.9-4.3.2.4-1.4c1-2 1-5 3.4-5.9 2-.4 1-2.5 1-3.9Z"/></g><path fill="#4e1714" d="m133 31.6 1.8 1.9c5.5 0 11 .6 16.4 1.5l.7.6c2 1.4 4.7.3 6.9 0l1.7-.7 2.4-.4c-1 1.4-2.1 2.4-3.6 3l-.4.3c-2.3-.2-4.6-.2-7-.3l-.6-.1c-5-1-10.2-1.3-15.3-1.4-3.3 0-6.6-.1-9.8-.4l.5-2 6.5-.2-.2-1.8Z" opacity=".4"/><path fill="#8a8273" d="m229.6 34.7 1.1-3.4 2.8 2 .6.3 1.8-.8-.4 4.7-1.5-2.8h-4.4Z" opacity=".9"/><path fill="#c0b197" d="m306 34 4.2-2.4-.1 3.6-.8-.1-1 1.2-2.1-.4-.2-2Z"/><path fill="#f3ebcf" d="m44.9 34 .8-.6c.9 2.1 2.2 4.1 3.8 5.7l-.2 2.4c-2.4-.6-5-.8-7.4-1 1.6-2 3-4 3-6.6Z"/><g fill="#940a10"><path d="M183.4 33.9c8.5-1.4 17 1.8 25.4.4.7 1.2 1.8 1.5 3.2 1l1.7.3 2.8.4c3.6 1.1 7.7-.6 11 1.2-5.3.6-10.7.4-16-.8-4.1-1.1-8.4-.7-12.6-1-10.6-2-21.3.1-31.9.7l-.9-1.3c3 0 6.1-.1 9.1-.4h1c2.4-.1 4.8-.2 7.2-.5ZM112.4 36.7c1-1 3.8 0 2.8 1.5-1 1.2-4 0-2.8-1.5ZM125.4 37.5l4.2 1-1.1.9h-.4l-2.2-.2c-3.4 0-7.2-.2-10.3-1.4 2.8-.4 5.7-.2 8.5.8l1.3-1.1ZM311 103.2a27 27 0 0 1 6.7-8.9c-.2 2-1.8 3.4-3.5 4.3l.1 4.5-.2-.6-.3-1.3-.8 1.9h-2ZM432.1 94.6c2.2.1 4.4.3 6.4 1.4l-3.3 1a103 103 0 0 1-3-2.4ZM185.2 99.5c1.6-.2 3.6-.5 4.8 1h2.8l-.1.8c-2.6-.4-6.4 1.4-7.5-1.8ZM228.8 99.6c3.4-.6 6.8.7 10.1 1.3h.2l6.6.7c6.7 1 13.5.3 20.2 0 3.8-.9 7.5-2.3 11.5-2.3 0 .8.2 1.5.4 2.3h-2.1c-3.3-.5-6.3.2-8.8 2.3-9.9 2.6-20-3.5-29.9-.7-1.4-.7-4.4-1.7-4.6 1l-3.5-1.7-13.6-.1-.1-.7 2.9-.5a75 75 0 0 0 2-.5c2.3 1.6 5.4.8 8 1.4l.7-2.5Z" opacity=".9"/></g><path fill="#d8cdb9" d="M208.8 34.4c.8-1.3 1.7-1.6 3-1l.2 2c-1.4.4-2.5 0-3.2-1Z"/><path fill="#4e0e0f" d="m235.9 32.8.7 3.4c4.2.7 8.2 2 12.3 2.6L248 40c-4 1-7.8-1.9-12-1.4-2.2-.2-6 .8-6.9-2l6.3.8c0-1.6.2-3.1.4-4.7Z" opacity=".4"/><path fill="#f5f0da" d="m442 33.5 2.7-.6 2.3 1.6c-1.9 1.2-4 2-6.2 2.1l1.1-3.1Z"/><path fill="#b6af94" d="m513.8 33 6.9.4-.2 2-4.6 1.2-1.5-1.8-.6-1.9Z" opacity=".8"/><g fill="#5d070b"><path d="M521.5 35.5c4.8-.5 9.3-2.2 14.1-2.5 3.9.3 9-1.8 11.9 1.4-7.9.2-15.9.1-23.3 2.8l-4.5-.6 1.8-1ZM495.5 40.2c.4-.3 1.2-.9 1.7-1.1-.3 1-.6 3.3-.8 4.4 5.3-1.2 10.7-1 16-.9h1c2.3.3 4.6.8 6.9 1l1.2-.8.7-.5-.5 1.9-1.2.2h-1.8c-5.6-.1-11.2 1.4-16.7.2l-5.7 1v2l2.9.3.4 1.6-3.4-.9c-2.7.3-5.3.6-8 .7l-.4 1.5c-5.2.2-10.3-2.2-15.4-.2l-.1-.7c2.6-.7 5-1.7 7.7-2.3 2.8.5 5.7 1.2 8.6.5v.5c2.5-.4 6.8 1.1 7.3-2.5-2.5.1-5 .4-7.4.2-6.5-1.3-13.3-.2-19.8-2 6-1.9 12.5-.6 18.6-.3 2.4 1.7 5.2 1.3 7.6-.2l1-.4-.4-3.2Z" opacity=".5"/></g><path fill="#875644" d="M488.5 34.3a10 10 0 0 1 7.1 3h.1l-2.7 2.5-5.6 1.2.3-2.2c1.3.3 2.5 0 3.6-.6V36l-2.8-1.7Z" opacity=".7"/><path fill="#943c33" d="m151.9 35.6 3.3-1 3.4.1 1.9.2-1.7.7c-2.3.3-4.9 1.4-7 0Z" opacity=".8"/><path fill="#e6decc" d="M308.3 36.3c.3-.3.7-1 1-1.2l.8.1v.8l-1.8.3Z"/><path fill="#faefcb" d="m458.6 35 5.3-.5a175 175 0 0 0-2.1 6.4l-.5 1.6-1.3 3.2-3-.5-1.7-1 3.3-9.1Z"/><path fill="#51493a" d="m29.4 36.4 5.6-.1 2-.4 1.6 1.6h-9.3v-1Z" opacity=".5"/><g fill="#eedec2"><path d="M487.7 38.8c-.5-2.6 2.3-3.1 3.6-1.3v.7c-1.1.7-2.3.9-3.6.6ZM540.1 51.2l2.6-4.3c0 4.3-.2 8.5-1.4 12.6l-5.3-.1h-1.6c.1-1.9-.1-4 1.3-5.4l3.6-1.5.9-1.3Z"/></g><g fill="#f5f0d5"><path d="m152 37.5 6.9.3-.8.5c-1.2.8-2.2 1.7-3.3 2.6l-2.2-2.1-.6-1.3ZM390.6 48.1c2.7.2 5.3.4 8 .2l-2 6.4 5.4.7-3 2.6-2-2.3-2.7-.1c.6-2.4 1.1-4.8.1-7.1l-3.4 4.8c-.3-1.7-.4-3.5-.4-5.2ZM419.8 49.2l1.9.4c-2.3 3-.9 6.8-2.1 10.1-4.5-.4-9-.4-13.4-.3.2-1.7.5-3.3 1-5 1.9-1.5 5.2.5 7.8 0l2.4-1a33 33 0 0 0 2.4-4.2Z"/></g><path fill="#847d6f" d="M175.5 37.2c2.7-.5 5.4-.6 8-.6.2 2.8.2 5.6.1 8.4-.2 2.3 1 4.7.2 7l1 2.2-1.9-.8v-4.5l-5.6 1.4-1-.6-.7-3c-.6-3.1-.2-6.3-.1-9.5m.6.6v3l.1 2.8 1.1.5-1 3.3c2.3 0 4.6-.2 6.9-.6v-9.3l-2.4.3h-4.7Z" opacity=".6"/><path fill="#fefede" d="m208.8 37.1 2 1.7c-2.4 6.2-4.2 12.6-7.7 18.3l-2.6-2.9-.3-.6c-1.4 1.2-3 2.6-4.7 1l3.8-3a65 65 0 0 1 3.6 2l1.4-3.3.6-4.1 2.5-3.9c0-1.8.7-3.5 1.4-5.2Z"/><path fill="#87724e" d="m269.2 36.7 5.8 1.8.2 3.9c-1.6-1.5-3.4-3-5.7-3l-.1-.8-.2-2Z"/><path fill="#fbf4dd" d="m441.7 38.6 7-2.1-.5 3-1.9-.3a8 8 0 0 1 4.3 4.8l-7.8.3-.3-1.4-.8-4.3Z"/><path fill="#ae9785" d="M448.7 36.5c.8 2.3 1.8 4.5 2.3 6.8l-.3 1.5-6.8 1-1.1-1.5 7.8-.3a8 8 0 0 0-4.3-4.8l2 .3c0-.8.3-2.3.4-3Z" opacity=".8"/><path fill="#c7bea4" d="M176 37.8h4.8l-.2 5-4.5-2v-3Z"/><path fill="#ece4c5" d="m180.8 37.8 2.4-.3v9.3c-2-1-3.9-1.9-5.9-2.7l-1-.5-.2-2.8 4.5 2c0-1.6 0-3.3.2-5Z"/><path fill="#ede6d1" d="m212.6 39.8 4-1.3c-1.5 3.4-2.5 7.2-4.8 10.2-1 1.9-2.3 3.6-3.8 5.1 3.5-3.8 2.5-9.5 4.6-14Z"/><path fill="#bab2ab" d="m306 37.3 3.8.2 1.6 5.5-.8.3-2.4.3.3 1.4-.6-.3-.6-2-3.5-.8-1-1.3 2.6.1.6-3.4Z"/><path fill="#f0e7ca" d="M128.1 39.4h10.4c1.7 3.7 1.3 8 0 11.8-1.1-2.4-2.5-5.1-5.6-4.7-.6-1.7-1.4-3.4-2.8-4.6l-2-2.5Z"/><g fill="#811616"><path d="m152.6 38.8 2.2 2 3.3-2.5.5 3.1-4-.3-1.9 3.2v-5.5ZM601.2 65.2h1.3a107 107 0 0 0-2.7 7.1l-5.7 10.4c-.2-3.2-1.1-6.1-1.7-9.2l1.4-1 2 1.6-.2 3.3 3.1-5.3-.7-2.2 1.4-1.6c.9-.8 1.4-2 1.8-3.1ZM578 78.3c1-1 2.1-2.2 3-3.4 1.5 1.4 2.9 2.8 4.1 4.4l-5.1 3c-1.2.6-2 1.5-2.4 2.7l-1.8-3.1.3-.5c.6-1 1.2-2 2-3Z"/></g><path fill="#3b332b" d="m210.8 38.8 1.8 1c-2 4.5-1 10.2-4.6 14-3.4 2.2-6.8 5.7-11.2 4.8l1-1.4 3.1.6-.4-3.5c.7.7 2 2 2.6 2.8 3.5-5.7 5.3-12.1 7.7-18.3Z" opacity=".9"/><path fill="#998f7c" d="M227.4 39.3c2.6 0 5.2 0 7.8.4l-6.6.1v3.4c1.8.3 3.6.8 5.3 1.5l-4.6 2-.2 1-.2 2.4-.2 2.9-1.2 2.4c.2-5.4.3-10.8-.1-16.1Z" opacity=".7"/><path fill="#90563e" d="M269.4 38.6v.7l.4 2.8c1.8.7 3.8 1.3 5.8 1.9l-.4.6-1.8.2c-2.8-1.6-5.8-.2-8.7-.8l4.4-.4-.2-1.1.5-3.9Z" opacity=".7"/><path fill="#dee3b8" d="m513.4 42.7.1-3 2-.1 5-.3 1 3.5-1.2.9c-2.3-.3-4.6-.8-7-1Z"/><path fill="#170102" d="M555 41.5c1.6-2.3 4.7-2.5 7.3-2.9l-.2 3.2-7.2-.3Z" opacity=".1"/><path fill="#180102" d="M564.3 39.2c1-1.4 3.7 0 2.4 1.6-1 1.4-3.6-.1-2.4-1.6Z" opacity=".1"/><path fill="#e50012" d="M2.4 39.8c3.8-.5 7.6-.2 11.4-.3l-.5 3.3h1v-3.2l1.4 1.4 1.5 3c1.2-.5 2.4-2 3.8-1.2l2.6 2.9-1.5.7H22c-4.2-.4-8.6 0-12.3 2l-3.3-3-4.8.2v-5.3l.8-.5Z"/><path fill="#f1e8ca" d="M228.6 39.8c2.2 0 4.4-.2 6.6-.1l1 .2c-.9 4.5-.5 9.1-.5 13.8l.4.9 2.7.7-.9 3 2.4.4-12.6.1 6.8-.7a21.1 21.1 0 0 1-2.4-5.7l-3.4.6.2-2.9 3.8-.5 1.8-2-5.4.2.2-1c1.5-.8 3-1.4 4.6-2-1.7-.8-3.5-1.3-5.2-1.6v-3.4Z"/><path fill="#f1e79f" d="M269.5 39.3c2.3 0 4.1 1.6 5.7 3l.4 1.7c-2-.6-4-1.2-5.8-1.9l-.3-2.8Z"/><path fill="#92000c" d="m0 41.3 1.5-1v5.3L0 45.1v-3.8Z" opacity=".6"/><path fill="#a11718" d="m15.7 41 6.9.8 4.5.8-.3.9-1.8.3-1.1 1.7-.3.2-2.6-3c-1.4-.8-2.6.8-3.8 1.2l-1.5-3Z" opacity=".7"/><path fill="#c9b078" d="m154.5 41 4.1.4c.2 1.9.5 3.9-.8 5.4l-2.5-1.3-2.6.5v-1.7l1.8-3.2Z"/><path fill="#61100c" d="M301.4 40.5h1.5l.9 1.4c-1.5.7-2.3.2-2.4-1.4Z" opacity=".6"/><path fill="#5b060b" d="m317.2 42.4 1.8-1.3c3.2 1 6.7 3.1 10 2 2.6-1.1 5.3-.3 7.8.3l.4 1.9c-2.4-.3-4.9-1.3-7.3-.4-3.4 1.2-6.8-.1-10-1.2-3 1.3-6.4.8-9.5 1l.2-1.4.8-.3c1.8-.8 3.9-.5 5.8-.6Z" opacity=".5"/><g fill="#f4ebc6"><path d="M488.5 41.5c2.4.2 5 .5 7-1.3l.4 3.2-1 .4c-2.5 0-5 0-7.6.2l1.2-2.5ZM94.3 103.4l3.8.7 1.3.3c3.2.8 4.6 4.4 6.4 6.8.4 1 1 1.6 2 2l1.3.7 1 1.6-8.8-.2 1.8-4.2-3.2 1.2-1.8-2.4c-1.5-2-2.9-4.1-3.8-6.5Z"/></g><path fill="#330306" d="M522.2 42.3c8.7 1.1 17.6-2.5 26.1-.2-8.7 1.8-17.7 1.6-26.5 2.8v-.8l.4-1.9Z" opacity=".3"/><path fill="#5f0006" d="m28.3 43.1 1.2-.7c2.9 0 5.7.1 8.6.4-2.6 1-5.3 1.6-8 2l-.3.2-1-.8c-1.3.4-2.6.8-3.9 1l-1 .3 1.1-1.7 1.8-.3 1.5-.4Z" opacity=".4"/><path fill="#eadfba" d="M70.7 47.2c.3-1.8-1.3-5.2 1.7-5l.2-.8 4.2.7a3 3 0 0 1-2.7 1.6 610 610 0 0 1 2 3.4l-4.3.1h-1.1Z"/><path fill="#dbc9a3" d="m76.8 42.1.4-.7c2.3 1.8.9 5 1 7.5-2-.7-4.2-1.3-6.4-1.7l4.4-.1a610 610 0 0 0-2-3.4 3 3 0 0 0 2.6-1.6Z"/><path fill="#5c564c" d="m77.2 41.4 2.4.8c0 3.8-.4 7.5-.5 11.2 1.9.5 4.8-1 6 1l.1.2-6.3-.3-.7-1V49c-.1-2.5 1.3-5.7-1-7.5Z" opacity=".5"/><path fill="#736d62" d="M130.1 41.9c1.4 1.2 2.2 2.9 2.8 4.6-.4 2.1-1.2 4-2.5 5.7-2.5 1.4-5.6 2-7.6 4.2l-.1-1.1-4.2-1.5c4 0 8.5.4 11.6-2.7 2.7-2.5 1.2-6.4 0-9.3Z" opacity=".6"/><path fill="#3f0407" d="M281.3 43.4c4.6.5 9.6-2.7 13.6.8-.3 2.3-2.6.7-4 .7-2-.7-3.5 1-5 1.7-1.5-1-4.7-1-4.6-3.2ZM461.3 42.5c1.8-.3 3.6-.2 5.5-.2.5 1.6 2.4 3.1 1.5 5l-3.6.2-.1-3.2-3.6.6.3-2.4Z" opacity=".4"/><path fill="#7f1a20" d="m614.7 43.4 2.2-1.7c-.9 2.3-2 4.5-3.3 6.6l-1-2-3.2.3v-3.7l5.3.5Z" opacity=".9"/><path fill="#f5e8bf" d="M43.4 43.5c1.7.1 3.4 0 5-.1l3.6 3.8-4.2 2.3c-1.5-2-2.8-4-4.4-6Z"/><path fill="#6e6251" d="m50.8 42.5.5-.2c2.3 3 4.2 6 6.4 9C57 53.3 56 55 56.1 57c.7 1.9 2 3.5 2.9 5.2l.3 1.9c-3.5-4.4-7.6-8.2-10.5-13a45 45 0 0 1 4.6 4l2.8-5.6-4.4 1.3 2.6-2.6-3.7-5.6Z" opacity=".8"/><path fill="#5e3223" d="m336.8 43.4 1.8-.2 2.4-.4 3 .3c1.3.1 1.7 3.4-.4 2.6-2-.7-4.4-1.9-6.4-.4l-.4-1.9Z" opacity=".9"/><g fill="#a21e22"><path d="M487.3 44c2.5-.3 5-.3 7.6-.2-2.4 1.5-5.2 1.9-7.6.2ZM618.7 95.1l1 1.6-3 2.3c0 4-.5 8.1-1.4 12.1a168 168 0 0 0-6.5 4l-2.6.3-2.8-2-.4-2.8c1.8-.6 3.6-1.3 5.3-2.1l-3.7-.6a21 21 0 0 0 10.4-9l3.7-3.8Z"/></g><path fill="#d2c5a7" d="m177.3 44 5.9 2.8c-2.3.4-4.6.7-6.9.6l1-3.3Z"/><path fill="#f0e0c7" d="M298 43.8c3.2.9 6.7 0 9.9 1l.6.2 2.2.9-4.3 2 2 5.7c.9 1.5 1 3.2 1 5-3-4-6.3-7.8-9.6-11.4-.9-1-1.7-2-1.9-3.4Z"/><path fill="#57080b" d="M348.1 45.1c.8-3 4-.6 5.8-.4 12.1.3 24.2 0 36.3.2 3 0 6 .3 9 .5l-9.2 1.4 1 .2 1 .1c-11.3.6-22.6.1-34-.1-3.4 1-6.6-.9-9.9-1.9Z" opacity=".5"/><path fill="#6d5f50" d="m520.5 44.4 1.3-.3v.8c.2 2.5.4 5 .4 7.4 6 .8 12.3 2 18-1l-.9 1.3-3.6 1.4c-3.7.6-7.4.2-11.1-.5l-1.1 2.5a62 62 0 0 0-6.6-3.7l-3.6-1.5a7.1 7.1 0 0 0 2.3 3.9l-2.4-.2-1.1 2.4c.2-2.5.4-5.1 1.2-7.5l1.2-.3h1.7c1.2 1.4 2.6 3.1 4.8 3v-.6c0-2.3-.1-4.7-.5-7Z" opacity=".5"/><path fill="#f3e8d1" d="M108.6 44.7c1.9.4 2.3 2.3 3.2 3.8 1 1.8 2.7 3.1 4.4 4.4l2.3.9 4.2 1.5.1 1c2-2.1 5.1-2.6 7.6-4l1.5 5.2.7.6.5.3c-3.7 1.4-7.7 2.5-11.5 1.2-2.6-.8-6-1.2-6.4-4.4a10.5 10.5 0 0 1-5.2 2.4 7.7 7.7 0 0 1-1.2-5.7c.9-2.4-.1-4.8-.2-7.2Z"/><path fill="#d0c9b0" d="M518.7 44.4h1.8c.4 2.4.5 4.8.5 7.1-1-1.6-2.8-2.9-4.8-2.5l-1.7.1-1.6-3.5h5.7l.1-1.2Z"/><path fill="#690108" d="M9.7 48.4c3.7-2 8-2.4 12.3-2l-.5.2c-3 1-6.2 1.2-9.4 1.3l.6 3.6h-2.2a83 83 0 0 0-.8-3.1Z" opacity=".5"/><path fill="#d6c5aa" d="M132.9 46.5c3.1-.4 4.5 2.3 5.7 4.7-1.3 2.8-2.8 6-6 6.9l-.7-.6c-.6-1.7-1-3.5-1.5-5.3 1.3-1.7 2.1-3.6 2.5-5.7Z"/><path fill="#655c51" d="M201 50.1a53 53 0 0 1 3.9-4l-.6 4.2-3.3-.2Z" opacity=".7"/><path fill="#d5c8a7" d="M310.7 45.9c.3 1.7.6 3.4.7 5.1-1.7 2.7-.2 5.9.3 8.7h-2.3v-1.2c0-1.7-.1-3.4-1-5l-2-5.7 4.3-1.9Z"/><g fill="#d1c192"><path d="M488.5 46.3c2.4.2 4.9 0 7.4-.1-.5 3.5-4.8 2-7.3 2.4v-.5l-.1-1.8ZM513.3 50.8l3.6 1.5.6 2.3c2.3.7 4.6 1.2 7 1.7L528 58v.5c-3 .7-6.1.4-9.1.3-3-.2-6.2.4-9.1-.5L512 57l1.1-2.4 2.4.2c-1.1-1-2-2.4-2.3-3.9Z"/></g><path fill="#480b0a" d="M507.9 46.9c1.6-.5 3.3-1 5-1.3l1.6 3.5-1.2.3c-1.9-.7-3.7-1.6-5.4-2.5Z" opacity=".4"/><path fill="#baa67b" d="M70.7 47.2h1c2.3.4 4.4 1 6.6 1.7v1.4c-2.8-1.5-2.8 3 0 1.7l-.1 1.3-4.7 2 .2-2.4-3-.9v-4.8Z"/><path fill="#49423a" d="m175.6 46.8.6 2.9v1.8l-2.4 7.5 5.5-.3a44 44 0 0 1 10.2 1 51 51 0 0 0 7.3-1c-.3 1.8-2.5 1.3-3.7 1.6-7.2.3-14.3-1-21.5-.8 3.5-3.3 3-8.4 4-12.7Z" opacity=".4"/><path fill="#ccc090" d="M269.4 46.7h5.6c2.4 2.3.9 6.3 1.6 9.2-4.2 0-2-4-1-6l-3.4 1.7c-2-.9-2.5-3-2.8-4.9Z"/><path fill="#e6dec6" d="M337.6 47.5c1.5-.3 3-.6 4.7-.7 0 1.5.2 3 .3 4.4.7.3 2 1 2.8 1.2v1.4l-5.9.7-.2 2c2.3-.1 4.6-.3 6.9-.2L349 59c-5.2-.3-10.5.4-15.7-.5l1.8-1 1.4-.8c1-3 1-6 1-9.1Z"/><path fill="#bdb598" d="m342.3 46.8 3.1 1.1v4.5l-2.8-1.2-.3-4.4Z" opacity=".9"/><path fill="#453d37" d="m159.1 49 .8-1c0 2.5-.2 5 0 7.6h-3l-.1-3.5 2-.6.3-2.3V49Z" opacity=".7"/><path fill="#beb59f" d="m229.1 47.8 5.4-.2-1.8 2-3.8.5.2-2.3Z"/><path fill="#6f675f" d="M345.4 47.9v.2c.4 2.5.2 5.1.7 7.7v.5c-2.2 0-4.5 0-6.8.3l.2-2 6-.9-.1-1.3V48Z"/><path fill="#eee8bc" d="m447.3 49.2 3.5-1.5c3 .3 6.3-.7 9 1l-1.8 2.4a208.3 208.3 0 0 1-10.7-2Z"/><path fill="#c5b89c" d="M150.5 57.3c.2-2.8.1-5.5-.2-8.3l.9 5 .3-3.9c1.4 2.2 3 4.3 5.4 5.4l1.3.2 1.6-.1h.3c.6 1.4 2 2 3.2 2.8-5 .7-10 .6-14.9 0 .5-.4 1.5-.9 2-1.1Z"/><path fill="#a18952" d="m445.2 50.4 1-1.4 1 .2 4.2.8-2.2 1.8c-1.3 1-1.4 2.8-1.9 4.2-.7-1.9-1.6-3.6-2-5.6Z" opacity=".9"/><path fill="#c3ab7b" d="M488.3 49.3c2.6 0 5.2-.4 7.9-.7 0 2.1 0 4.2.3 6.3l-3.8.6-2.1-4-2 .3-.4-2.5m5.2.8c-1.2 1 .3 3.3 1.6 2.4 1.2-1-.3-3.3-1.6-2.4Z" opacity=".9"/><path fill="#c89f82" d="M516.2 49c2-.4 3.8.9 4.8 2.5v.6c-2.1.1-3.6-1.6-4.8-3Z" opacity=".9"/><path fill="#931819" d="M588.3 61.9c3-4.3 5.6-8.7 8.5-13l-.8 3c3.5.6 7 .1 10.5 0-2.8 2.2-6.5 2.4-9.6 4-1.8 1.6-3 3.9-4.2 6-1.5-.3-3-.2-4.4 0Z"/><path fill="#591316" d="m607 52 6-2.7c-4 8-8.3 15.7-13.2 23a107 107 0 0 1 2.7-7l1.5-1.5-1.6-2.5c0-1.3 0-2.6.2-3.9l5.2.1 2.6-5.1a307 307 0 0 1-3.3-.5m-3.6 7.3c-1 1.2 1.3 2.3 2.1 1.3.9-1.2-1.3-2.4-2.1-1.3Z" opacity=".8"/><path fill="#efdbbe" d="M22.7 49.4c3 0 4 2.5 4 5l2.2 1 1 2.6-4 .3c-3-1.9-3.2-5.7-3.2-9Z"/><path fill="#d7c8a4" d="M78.3 52c-2.8 1.3-2.8-3.2 0-1.7V52Z"/><path fill="#e9dcbc" d="m176.2 49.7 1.1.6c1.8 1 3.7 2.2 5.6 3l2 1c3.5.7 7.1-.1 10.6.2 1.7 1.7 3.3.3 4.7-.9l.3.6.4 3.6-3-.6-1 1.4-.1.1-3.6.5.2-3.7-2.7-.1c-2.7-.2-5.5-.4-8.3 0 1.2 1.3 2.4 2.5 3.7 3.6-2.2-.3-4.5-.4-6.8-.3l-3-3.5c2.1.8 4.4 1.4 6.7 1.3-2-2.1-4.3-3.5-6.7-5v-1.8Z"/><path fill="#8c7f6c" d="M199.3 51.7 201 50l3.3.2-1.4 3.3a65 65 0 0 0-3.6-2Z" opacity=".9"/><path fill="#e6debe" d="m451.4 50 6.7 1.1-1.7 5.2c-.8 3.9-4.7 3.7-7.8 3.3l-1.3-3.6 2.6.9c2-1.5 2.7-5.2-.7-5.1l2.2-1.8Z"/><path fill="#7a6f5a" d="m487.8 50.8.4-1.5.4 2.5-1.7 7c3.7-.2 7.5-.3 11.2-.1l-1.2-2.9 4.3 3.6c-5.7.5-11.5.2-17.3.4a15 15 0 0 0 4-9Z" opacity=".6"/><path fill="#e7d29a" d="M493.4 50.1c1.3-1 2.8 1.4 1.6 2.4-1.3.9-2.8-1.4-1.6-2.4Z"/><g fill="#eed7a7"><path d="m488.6 51.8 2-.4 2.1 4.1 3.8-.6.4 1c.3.6 1 2 1.2 2.8-3.7-.2-7.5-.1-11.2 0l1.7-6.9ZM57.6 51.4l1.6 2-1.4 3.7c1.4 1.6 4.1 3.1 1.3 5-1-1.7-2.2-3.3-2.9-5.2-.2-2 .9-3.7 1.4-5.5Z"/></g><path fill="#7b6b5a" d="M176.3 51.5c2.4 1.5 4.8 2.9 6.7 5-2.3.1-4.6-.5-6.7-1.3l3 3.5-5.5.3 2.5-7.5Z" opacity=".9"/><path fill="#cbb68e" d="m228.7 53 3.4-.6c.5 2 1.3 4 2.4 5.7l-6.8.7-1.4.1-.3-.8 1.5-2.7 1.2-2.4Z"/><path fill="#f6f5eb" d="m255.2 52 2-1c-.2 2.5-.4 5-1 7.5l-4.2-2.7 1-1.5c.6-.9 1.4-1.7 2.2-2.4Z"/><path fill="#f8f4de" d="M449.2 51.8c3.4 0 2.6 3.6.8 5-.7-.1-2-.6-2.7-.8.5-1.4.6-3.2 2-4.2Z"/><path fill="#c1a371" d="M59.2 53.5c2.5 3.4 5 6.7 7.2 10.4l-4.6-1.1-.1 2.6c-.5 0-1.3-.3-1.8-.4l-.5-1L59 62c2.8-1.9 0-3.4-1.3-5l1.4-3.6Z"/><path fill="#eedaa2" d="M516.9 52.3a62 62 0 0 1 6.6 3.7l1.1-2.5c3.7.7 7.4 1 11.1.5-1.4 1.5-1.2 3.5-1.3 5.4-3.6-.2-6.3-3.4-10-3-2.3-.6-4.6-1-6.9-1.8l-.6-2.3Z"/><path fill="#e9d5b9" d="m73.5 55.2 4.7-1.9.7 1 .8 1 3.8 2.5c-3.3-.4-6.7-.3-10 .2v-2.8Z"/><path fill="#ede2c5" d="M95.2 54.9c2.1.4 4.8 1.3 4 4-2.3-.3-4.7-.5-7-1 0-1.5 2-2 3-3Z"/><path fill="#726a60" d="M110 57.6c2-.3 3.7-1.2 5.2-2.4.5 3.2 3.8 3.6 6.3 4.4-4 .4-7.7-1-11.5-2Z" opacity=".8"/><path fill="#f5ecd0" d="M182.4 55.4c2.8-.4 5.6-.2 8.3 0l-1.2 4.2-3.4-.6a68.3 68.3 0 0 1-3.7-3.6Z"/><path fill="#6c5e50" d="M241 58.7c1-1 1-4.1 2.8-3.4l.8 1.4-.4 2.5-3.1-.5Z" opacity=".9"/><path fill="#504c48" d="M346 55.8c1.7 1.3 4.8 1.6 4.9 4-3.3.9-6.6-.3-10 0-2.6-.2-5.2.7-7.8.2-1.3.1-1-2.4.2-1.6 5.2.9 10.5.2 15.7.5l-2.8-2.6-.1-.5Z" opacity=".4"/><g fill="#d8cdb7"><path d="M68 57.3a47 47 0 0 1 2.2 1.7l2 .3-5.8.1 1.7-2ZM471.8 82.2c3.6-1 7.4-2.4 11.2-1.2 1.8.3 2.4 2 2.7 3.7-3-2.2-7.4-3.8-10.6-1l-1.7 2.1c-1.6 1.6-2.3 3.6-1.3 5.7l2.8-.3 1.1 1v3.4c-1.5.4-3 .8-4.5 1.6h-.1l-2.9-4c-.2-2.6-.8-5.2.3-7.6 1.8 1.5 4-.5 1.3-1.6.3-.9.8-1.5 1.7-1.8Z"/></g><path fill="#3c3730" d="m225.6 56.9.4 1.2.3.8 1.4-.1c4.2-.2 8.4-.1 12.6-.1h.8l3.1.5 1.3.2c-5.1 1.2-10.3.2-15.5.6a16 16 0 0 1-6.5-.6l2-2.5Z" opacity=".3"/><path fill="#4c463f" d="M264.8 60.3c.2-2 1.3-3.3 3.2-3.4l-1.8 2.4 2.6-.4c3.5-.1 6.9.1 10.3.3l-1.3-2.1c1.8.1 3 1 3.3 2.8-5.4-.1-10.9-.2-16.3.4Z" opacity=".4"/><path fill="#363028" d="m17.1 59.5 1.3-1c4.6 0 9 .9 13.6.8l1.9-.9 1.5.7c-1.4 1.3-3.1 1.5-5 1.2-4.3-.6-8.9.2-13.3-.8Z" opacity=".3"/><path fill="#454038" d="m147.1 58.2 1.3.1c5 .7 10 .8 15 .1h.7c0 1.3-.8 1.8-2 1.6-3.7 0-7.4-.4-11 0-1.6 0-4 .4-4-1.8Z" opacity=".4"/><path fill="#443e37" d="m509 59.9.9-1.6c3 .9 6 .3 9 .5 3 .1 6.2.4 9.2-.3l4 1.4c-4 .2-8.1.2-12.1-.2-3.7-.3-7.4.8-11 .2Z" opacity=".3"/><path fill="#ab1b1c" d="M603.5 59.2c.8-1 3 0 2.1 1.3-.8 1-3-.1-2.1-1.3Z"/><path fill="#ee3b17" d="m596.3 60.4 6 .9 1.7 2.5-1.5 1.4h-1.3l-1.9-1-2-1.7-1-2Z"/><path fill="#050200" d="M588.3 61.9c1.5-.2 3-.3 4.4 0l4.5.6 2.1 1.7-1.1 2-2.3.2-3.3-3.2c-1.8.8-3.6 1.4-5.5.6l1.2-1.9Z"/><path fill="#816d55" d="m61.8 62.8 4.6 1.1.5 1c1.1 2.4 1.9 5 2.6 7.4l-4.4-2.5.4-3.5-1.1-.2-2.7-.7v-2.7Z" opacity=".9"/><path fill="#551211" d="M578 78.3c2.7-4.8 6-9.4 8.9-14.1l.3 1.6 2.3 2 .7.8L586 67l-1.5 2.9c1.2 1.8 2 3.8 2.7 5.8a653 653 0 0 0 7 6.9l-2.1 3.5v-1.9l-2.6.6.6-2.6c-2.5-3.2-4.5-6.8-7.6-9.4l-1.3 2-3 3.4Z" opacity=".9"/><path fill="#b72c22" d="m586.9 64.2.2-.4c1.9.8 3.7.3 5.5-.6l-1 3.5-2 1.2-2.4-2.1-.3-1.6Z"/><path fill="#d61016" d="m592.6 63.2 3.3 3.2 2.3-.3 1.2 2.2L598 70l.8 2.2-3.2 5.3.2-3.3-2-1.6-3.6-4-.7-.6c.6-.3 1.6-1 2.2-1.2l.9-3.5Z"/><path fill="#9c521a" d="m599.3 64.2 1.9 1a7.5 7.5 0 0 1-1.8 3.1l-1.3-2.2 1.2-1.9Z"/><path fill="#675f52" d="m60 65 1.7.4 2.7.7c-.8 1-1.8 2-1.7 3.4-1.1-1.4-2-3-2.8-4.5Z" opacity=".5"/><path fill="#2d0f0f" d="M622.7 66.5h1.7c.2 6.8-.4 13.7-.6 20.5.2 9.9.2 19.7 0 29.5-13.8-.4-27.5.3-41.2-.4.5 0 1.5-.3 2-.5 7.3-.4 14.4 0 21.6-.2.7 0 2-.3 2.6-.4l1.2-.6a19.2 19.2 0 0 0 8.7 1h4.3v-8.2c.2-3.7.1-7.5 0-11.2v-2c.1-6 .5-12.1 0-18l-1-1.9c.1-2.5.4-5 .7-7.6Z" opacity=".6"/><g fill="#cf1a19"><path d="M582.4 72.9c3.1 2.6 5.1 6.2 7.6 9.4l-.6 2.6 2.6-.6v1.9c-3.3 5.2-6.2 10.6-9.8 15.5-1.4-3-3.3-5.8-5.4-8.4l-2 .9v-5.4c2.9-.6 4 1.6 5 4 .4-.2 1.4-.3 1.8-.4l-1.3-4.4c2.5-1 6-1 7.1-3.9l-4.7 2.3-1.7-1.5-1-2.6 5.1-3c-1.2-1.6-2.6-3-4-4.4l1.3-2Z"/><path d="m574.4 84.7 1.4-2.8 1.9 3 .8 1.7c-1.9 1.3-4.1 1.6-6.3 2.1l2.2-4Z"/></g><path fill="#4e1114" d="m622 74.1 1 1.8c-1.4 4.7-2.2 9.6-3.6 14.3A261 261 0 0 0 623 94V96c-1.5-1.4-3-2.7-4.7-4l.3 3.1L615 99c3.3-8 6-16.3 7-24.9Z" opacity=".7"/><path fill="#2e0508" d="m568.8 79.5 7.3 2-.3.4-1.4 2.8c-2-1.6-4-3.3-5.6-5.2Z" opacity=".3"/><path fill="#585651" d="M152 80.3c4.5.5 9.2.5 13.8 0L164 84l.4 3.3-1.3-2.5c0-.9.4-2.6.5-3.4l-4 .4-1.5 2.4.4-2.2-4.3-.6c1 1.1 2.1 2.1 2.6 3.5 2.4 5.8 4.3 11.7 6.8 17.4l-1.1-.6c-2.8-5.6-4.2-11.8-7-17.4-1.3-1.3-2.8-2.3-3.7-4Z" opacity=".5"/><path fill="#f1e4bf" d="M284.4 80.4c2-1 3.4.8 4 2.5l-1.8 4.7h-5.3l3-7.2Z"/><path fill="#4c453c" d="M309.4 80.1c9.7 1.6 19.6 1.3 29.3.5 1.2 2.1.4 5 .8 7.3-.9-.3-2.8.2-2-1.3l1-5c-6.3.7-12.6.3-19 .2l-1.8.1c-2.6 0-5.3-.2-8-.6l.9 4.7c.5 1.4-1.8 1.3-2.5 2l1.3-7.9Z" opacity=".5"/><path fill="#716c60" d="M471.8 82.2c3.2-3.2 8.1-2 12.1-1.7 3.3.3 2 4.5 2 6.7a22 22 0 0 1-3.3-3.9c-2.5-.6-5-.3-7.5.4 3.1-2.8 7.6-1.2 10.6 1-.3-1.6-.9-3.4-2.7-3.7-3.8-1.2-7.6.1-11.2 1.2Z" opacity=".6"/><path fill="#422c21" d="M119.8 80.8c7.9-.3 15.8.2 23.7-.3l-.7.8c-6.9 1-13.8.1-20.7.4l1.3 2c-.2 6.2.3 12.5.1 18.7l2.1-.4 4.2-.3c2.1-.2 4.6-.3 6.2 1.4-2.2.2-4.3.5-6.3 1.1l-2.5.3-3.5.1c-.3 3.2-.5 6.5-.9 9.7l-.4 1.4 4.3-.3.2-2.8.6 3H130.4c-3.2 1.7-6.9.7-10.3 1 3.3-3.8 1.5-9 3.4-13.3-3.5.2-7 .5-10.5 0l-1-1.7h10.5V84.2l-2.8-3.3Z" opacity=".5"/><path fill="#ddca8e" d="m180 81.4 9 .1c-3.3 1.5-3 5.6-5.2 8-1.2-.2-2.3-.5-3.5-.9 0-2 1-3.9 1.6-5.8l-2-1.4Z"/><path fill="#dbc192" d="M199 81.6c7.3-.4 14.6.2 22-.3l-.6 6.6-2-2.4c-3.3-1.7-7-.8-10.5-1l1.3-2.5c-3-.3-5.8-.1-8.7.4l-.4-.3c-.3 0-.8-.4-1.1-.5m12.9.4 1 2.1c2.6-.3 5.8.1 7.8-2-3-.3-5.9-.3-8.8 0Z"/><path fill="#655e51" d="M237 80.6c3.7.7 7.4.5 11.1.8l-1 1.5c-2.8-1.5-6-1.4-9-.3l-.7.2c0-.6-.3-1.6-.4-2.2Z" opacity=".6"/><g fill="#ede0c3"><path d="M309.7 81.3c2.7.4 5.4.7 8 .6l-1 2H313l-1.6 1.3-1 .8-.8-4.7ZM385.7 81.7c1.2 0 2.3-.3 3.3-1a29 29 0 0 1 12.3 1.3l.8 1h-1.8l3.4 2.8-3.3 1.4-1.2-1.5c-4.1-2-9.2-2.3-13.1.4l-2 2c-.9 0-1.7-.2-2.5-.3-1.2.7-2.4 1.4-3.8.6a20 20 0 0 1 8-6.7Z"/></g><path fill="#3b352f" d="m423.4 81.2 2.6.4-1 .4-1 .3.4 4.2v3l-.1 6.3-1 .4c.2-5 .4-10 .1-15Z" opacity=".3"/><g fill="#e1c99b"><path d="M77.2 81.3c7.6.8 15.5-1.1 22.8 1.3l-.1.2c-.9 1.7-1.7 3.4-2.4 5.2l-.6-2.5-1.8-1-1.3-.6c-2.5-1.5-5.4-1.1-8.2-.7C86.8 88.5 86 94 84 99c-1.5-1.3-3.7 1.5-1.5 2.2l.8.6-3.1-.3V99l4.1-3.1c-1.1-3.6-1.5-7.5-3.6-10.7l-1.1-1.6-2.4-2.3ZM201.5 100.3l6.2-.9-.5 3.7-2.2-2-3 .7c0-.4-.4-1.1-.5-1.5Z"/></g><g fill="#f7eacb"><path d="M122 81.7c7-.3 13.9.5 20.8-.4 0 2.3-.2 4.5-.3 6.7l-2.3-2.6c-3-.3-6 .4-9.2.1 2.8-.2 5.5 0 8.2-.8h-8.4l-1.2 2.1.6 4.2c-.3 1.4-.5 2.8-.5 4.3l-1.8-.4-.8-2.4 2 .2-2.4-3.9c-1-.4-3.5 0-2.4-1.5l2.6-1a101 101 0 0 1-3.5-2.6l-1.3-2ZM124 99.1l5.3.7-3.7 2.2-2.1.4.6-3.3Z"/></g><path fill="#f3dfb6" d="M200.5 82.4c2.9-.5 5.8-.7 8.7-.4-.5.9-1 1.7-1.3 2.5-.7 2-.6 4-.5 6a334 334 0 0 1-2.5-1.6c-.2-2-.5-4.2-1-6.3l.2 3.5-1.7.9-1.3-3.2-.6-1.4Z"/><path fill="#fbefc6" d="M211.9 82c2.9-.2 5.8-.2 8.8.1-2 2.1-5.2 1.7-7.8 2l-1-2Z"/><path fill="#ebe0c4" d="M238.1 82.6c3-1 6.2-1.2 9 .3l-1.4.7-.8.4-2.6.7v3.1l2.7-1.2.2 3.8c-1.8-.3-3.5-.7-5.3-.9-.2-2 .6-4.3-1-6l-.8-1Z"/><path fill="#f1efd3" d="M319.6 81.8c6.3 0 12.6.5 18.9-.2a123 123 0 0 1-1 5l-1.1-1.1c-3.6-1.3-7.5-.8-11.2-1.2l-.8-.1-.8 4.4-2.9.5c0-1.6 0-3.3-.8-4.8l-.3-2.5Z"/><path fill="#b39e81" d="m424 82.3 1-.3c1.2 1 2.3 2.1 3.3 3.3.6 1.8.8 3.7 1.1 5.5a57 57 0 0 1-5-4.3c0-1.4-.2-2.8-.4-4.2Z" opacity=".9"/><path fill="#caaa81" d="M446.9 81.4h8.5c-2.7 1.6-2.3 4.6-2 7.2l-4-.4c.5-2.7-.7-5-2.5-6.8Z"/><path fill="#a5906e" d="M85.6 83.2c2.8-.4 5.7-.8 8.2.7-2.1-.4-4.8-1.4-6.6.2-1.7 4-.4 8.4-.8 12.5l6.9.2 1.9-1.8c-1 1.7-1.5 3.5-2 5.4l3.3.7c-1-2.5.9-4.5 3.5-4.5-1.4 1.4-2 3-.8 4.9l.4 1h-5.8l-2.2-2c-2 0-4.4-.5-5.8 1.4l-2.5-.2-.8-.6L84 99c2-5 2.8-10.4 1.6-15.7m.9 14.2c-.8 1.8 3.2 2.9 3.4 1-.4-1.4-2.3-1.6-3.4-1Z"/><path fill="#eee5ca" d="m99.9 82.8 1.4 1.1c1.4 3 1.4 6.3 1 9.6l-1.6 3h-.7c-2.6 0-4.6 2-3.5 4.6l-3.3-.7c.5-1.9 1-3.7 2-5.4l.2-.4 4.6-1.1c-1-1.8-2.2-3.5-2.5-5.5.7-1.8 1.5-3.5 2.4-5.2Z"/><path fill="#201110" d="m200 82.2.5.2.6 1.4c.4 4.3.1 8.5.2 12.8l-.4 5.7c-1.8-.2-4.8.5-5.1-2l4.3-.4c.2-5.9.2-11.8 0-17.8Z" opacity=".2"/><path fill="#c3b598" d="M203.9 82.6c.5 2.1.8 4.2 1 6.3l2.5 1.6v1.8c-2.3-.4-3.3 3.5-.4 2.8l-1.6 3c0 .3-.2.6-.3.8l-2.3-2.5-1.5.7v-.5c0-4.3.2-8.5-.2-12.8l1.3 3.2 1.7-.9-.2-3.5m-2 5.1c-.2 2.2-.3 4.5 0 6.7 1.7-1 3.6-2.3 3.5-4.5-.9-1-2.3-1.6-3.5-2.2Z" opacity=".9"/><path fill="#cfbd99" d="m288.4 83 1.2 4c.6 3.2 2 6.4 2.2 9.8.1 1.7-1.8 2.2-2.8 3.2l-3.8-9.7-2.7.8-.7-2.2-.5-1.3h5.3l1.8-4.6Z"/><path fill="#580e0e" d="M577.6 85c.4-1.2 1.2-2.1 2.4-2.7l1 2.6-2.5 1.7-.9-1.6Z"/><path fill="#2b241f" d="M79.1 107c.2-7.8-.2-15.6.5-23.4l1 1.6a131.5 131.5 0 0 0-.4 16.2v5l-.4 5.9c-.8-1.7-.7-3.6-.7-5.3Z" opacity=".4"/><path fill="#7f7769" d="M101.3 84c3 2.1 3.1 6.6 1 9.5.4-3.3.4-6.6-1-9.6Z" opacity=".7"/><path fill="#918064" d="M238.9 83.6c1.6 1.6.8 4 1 6v2.6c1.5 1.5 5.9 2 5 4.7-2 .4-3.6-1.1-5.3-1.8l-.8-.4a96 96 0 0 1 0-11.1Z" opacity=".9"/><path fill="#e3d1a6" d="m245 84 .7-.4v18l-6.6-.7 3.7-1.8c-1-1.4-2-2.7-3.2-4 1.7.7 3.3 2.2 5.3 1.8.9-2.6-3.5-3.2-5-4.7v-2.7l5.3 1-.2-3.9V84Z"/><path fill="#6b6558" d="M325.2 84.3c3.7.4 7.6 0 11.2 1.2-3 .2-5.8.1-8.7 0 0 4 0 7.9-.2 11.8l-1-.9c0-3.1.4-6.3.3-9.5.3-1.2-.8-1.9-1.6-2.6Z" opacity=".6"/><path fill="#dcc18b" d="M470.1 84c2.6 1.1.5 3-1.4 1.6l1.4-1.6Z"/><path fill="#981912" d="m582.7 86.4 4.7-2.3c-1 3-4.6 3-7 3.9l1.2 4.4-1.9.3c-.8-2.3-2-4.5-4.9-3.9v5.4c-1.2 2-3.1 4.1-2.9 6.8 0 3.4.9 6.8 1.7 10.1-3.2-1.1-1.7 5 .3 1.9v2.3h-2.4c-.3-2.4 0-5.5-2.6-6.7.2-4.3 3.9-8 2.2-12.5l-2.4-.8 4.2-1.8-3.7-1.5c1.6-2.6 3.1-5.1 5.2-7.3l-2.1 4c2-.5 4.4-.8 6.2-2.1l2.5-1.7c.4.3 1.3 1 1.7 1.5Z"/><path fill="#c7c1af" d="m163.2 84.8 1.3 2.5c-1.6.4-3.2.8-4.8 1-.8-2.1 2.3-2.4 3.5-3.5Z"/><path fill="#5d544a" d="M207.4 90.5c0-2-.2-4 .5-6 3.4.2 7.3-.7 10.4 1h-9.9V95c4.1.4 8.3.1 12.4-.8a87 87 0 0 1-.7 6.4l-2 .5c-2-3.2-6.6-.9-9.7-1.4v3.6l-2.4.8-1.8-1.3a5 5 0 0 1-3.3-.6l.4-5.7v.5l.2 3.2.6 1.5 3-.6 2.1 2 .5-3.8c2.8-.5 5.6-.8 8.5-.6 1 .5 2.2 1 3.3 1.7 0-1.7.2-3.3.3-5l-4.5.4c-3.4-.3-7.4-.6-9.9 2.3L207 95l.4-2.8v-1.8Z" opacity=".5"/><path fill="#e0d6b1" d="M428.3 85.3c4.5 4.1 8.6 8.7 13.3 12.7-2.2.6-4.7.7-6.4-1l3.3-1c-2-1.1-4.2-1.3-6.4-1.4l-1.4-1.7-.1-.2-1.1-1.3a64 64 0 0 0-2.4 2.3l-2.6-4.1v-3a57 57 0 0 0 5 4.2c-.4-1.8-.6-3.7-1.2-5.5Z"/><path fill="#a4947b" d="M80.7 85.2c2.1 3.2 2.5 7.1 3.6 10.7l-4.2 3c0-4.5.1-9 .6-13.7Z"/><path fill="#d4ba73" d="M472 91.5c-.9-2.1-.2-4.1 1.4-5.7.2 1.9.9 3.7 1.5 5.4l-2.8.3Z" opacity=".9"/><path fill="#625949" d="M289.6 87c1.9 1.9 2.1 4.7 3 7.2 1 2.8 3.1 5.2 3 8.3l-2-4.4-.6.3-3.6 1.6-.1 4.1-.8-.3c-2.5-1.1-5.2-.3-7.9-.2l-.1-1.7 7.6-.2a41 41 0 0 0-3.9-10.5l-1.3 3.2-.4-3.3 2.7-.8 3.8 9.7c1-1 3-1.5 2.8-3.2-.3-3.4-1.6-6.6-2.3-9.9Z" opacity=".7"/><path fill="#cfc5a4" d="m381.6 87.8 2.4.4-1.4 2.6-.1 2.6-1 1.3c-1.5 2-4.3 1.6-6.4 2.1 1.9-2.2 2.8-5 2.7-8v-.4c1.4.8 2.6.1 3.8-.6Z"/><path fill="#f6d998" d="m179.7 88.5.7.1c1 .4 2.2.7 3.4 1a85 85 0 0 1-2.6 7.4l-.5-.5-2.6-2.2c.4-2 1-3.9 1.6-5.8Z"/><path fill="#f1e8c2" d="M202 87.7c1.2.6 2.5 1.1 3.4 2.2.1 2.2-1.8 3.5-3.5 4.5-.3-2.2-.2-4.5 0-6.7Z"/><path fill="#685f4c" d="M377.8 88v.8c.1 3-.8 5.8-2.8 8l.2-1.3c0-2.8 1.3-5.3 2.6-7.6Z" opacity=".7"/><path fill="#f7eed1" d="m449.4 88.2 4 .4-.5 3.4c.3 2 .4 4 .4 6.1-1.7.5-3.2 0-4.6-.7 1-3 .6-6.1.7-9.2Z"/><path fill="#c3a27b" d="m278 96.6 3-8.5.8.8.7 2.2.4 3.3c-.7 2.2-1.6 4.3-2.5 6.5a96 96 0 0 0-2.4-4.3Z"/><path fill="#d6c9aa" d="m124 89.6 3 3 .9 2.3-.8 1.4A3 3 0 0 0 124 95v-5.4Z"/><path fill="#e4dab3" d="M162.4 89.6c1 1 1.8 2 2.7 3.2l.2-1.3 1.5 5.6-3.5-.2-.4-1c2.5 1.2 1.8-2.6-.3-1.5l-.2-4.8Z"/><path fill="#ffffef" d="m424.3 95.8.2-6.2 2.6 4.1a64 64 0 0 1 2.4-2.3l1 1.3-2.3 1.2 1 1.5-5 .4Z"/><path fill="#f8f3da" d="M207 95c-2.9.8-2-3 .4-2.7L207 95Z"/><g fill="#e3e1c9"><path d="M476 92.2c3.5 2.7 7 5.5 10 8.9l-.6 1.5-2.3-1.9c-3-2.5-7.4-1.3-10.9-2.7l-.7-.8c1.4-.8 3-1.2 4.6-1.6v-3.4ZM476.3 100.9c1.6.3 3.2.5 4.9.5l-2.8 1.2-.5.3-1.6-2Z"/></g><path fill="#d70913" d="m569.2 92 3.7 1.5-4.2 1.8c.5 3 .9 6 1 9l-4.8 1.6-2-1.6a373 373 0 0 0 2 4l-.6 2.4-1 3.4 5.5-1.2-1-4 1-.3c2.7 1.2 2.4 4.3 2.7 6.7-5.4-.2-10.9-.4-16.3-.4l2-3.3c.7 1.4 3.4 1.4 3-.5l-1-2.4-.5-1c3.8-5 7.1-10.4 10.5-15.7Z"/><path fill="#290809" d="m428.2 93.9 2.4-1.2.1.2 1.4 1.7 2.6 3c-2.3.8-4.3-.1-5.4-2.2l-1.1-1.5Z" opacity=".2"/><path fill="#db1316" d="m574.8 94.2 2-.9c2.1 2.6 4 5.4 5.4 8.4a21 21 0 0 0-3.4 6.4c8.6.3 17.3 1 25.8-.2l3.7.6c-1.7.8-3.5 1.5-5.3 2.1l.4 2.9 2.8 2c-7.2.1-14.4-.3-21.5.1l-1.4-.2c-.6-1.4.3-4.7-2.2-4.3-.5 1.3-.8 2.6-1.2 4l-6 .2V113l-.3-1.9c-.8-3.3-1.6-6.7-1.7-10.1-.2-2.7 1.7-4.7 2.9-6.8Z"/><path fill="#260204" d="M594.2 93c1.7-.4 2.2.2 1.7 1.7-1.6.5-2.2 0-1.7-1.6Z" opacity=".2"/><path fill="#d71416" d="m618.7 95.1-.3-3.1 4.7 4v11.2c-1-.5-3.3 0-2.8 1.5a5 5 0 0 0 2.7 1.1v1.1l-3.1-.6.8 3.6-2 1.5h-1c-.6-1.5-1.4-3-2.4-4.3 1-4 1.4-8 1.5-12.1l2.9-2.3-1-1.6Z"/><path fill="#4e4c44" d="M140 95.4c.8-.7 1.8-1.2 2.9-1.4-.2 2.6-.4 5.2-.4 7.8h-.8l-1.2-.4a240 240 0 0 0-1.6-1.6l-8.7-.4c1.5-.6 3-.7 4.6-.7l6.5 1.1.7-4.5-2.6.5.6-.4Z" opacity=".5"/><path fill="#b09878" d="M162.6 94.4c2.1-1 2.8 2.7.3 1.5l-.3-1.5Z"/><path fill="#8d0a11" d="M375 96.8c2.2-.5 5 0 6.5-2 2.4 1 5 .4 7.5.2 4.4-.6 8.9.4 13.3.5l.3 2c-4.5.3-9.1-.5-13.7-.3-6.3 0-12.5 1.4-18.9 1.6a35 35 0 0 1-9.4 1.8 58 58 0 0 0-7.2 1.2 9.5 9.5 0 0 1-4.3-1.8c2.9-.5 5.8-.6 8.7-.5l-3.4-1 6-.4c4.8-.9 10.7.7 14.8-2.6l-.1 1.3Z" opacity=".8"/><path fill="#ece8d2" d="M124 95a3 3 0 0 1 3 1.3c-.7 2-3.6.5-3-1.3Z"/><path fill="#f3eab5" d="M175.7 99.9a43 43 0 0 1 2.4-5.6l2.6 2.2-.5 2.2-1.4 3.1c-1.5 1.6-5.6 1.2-3.1-1.9Z"/><path fill="#47433b" d="m238.8 94.7.8.4 3.2 4-3.7 1.8h-.2c.4-2 .7-4.2 0-6.2Z" opacity=".5"/><path fill="#fcebbe" d="M133.1 96.6c2.1-.2 4.3-.4 6.3-.8l2.6-.5-.7 4.5c-2.2-.4-4.3-.8-6.5-1l-1.7-2.2Z"/><path fill="#f0f4de" d="m215.3 95.9 4.4-.3-.2 4.9a28.5 28.5 0 0 0-7.3-3l3.1-1.6Z"/><path fill="#330504" d="m568.7 95.3 2.4.8c1.7 4.5-2 8.2-2.2 12.5l-1 .3c-1.3.5-2.5 1.1-3.6 1.8l.7-2.5a373 373 0 0 1-2-4c.4.5 1.4 1.3 2 1.7l4.8-1.7c-.2-3-.6-6-1-9Z"/><path fill="#d8c18b" d="M86.5 97.4c1-.6 3-.4 3.4 1-.3 1.9-4.2.8-3.4-1Z"/><path fill="#1e1611" d="M322.7 96.9c1-.2 2-.2 3 0 0 1.6-1.5 3.3-3.1 2.2v-2.2Z" opacity=".9"/><path fill="#5d3931" d="m326.6 96.4.9 1c.3 1.8.3 3.7.4 5.5-1.8.3-4.2 1.7-5.3-.5a29 29 0 0 0 4.1-.3l-.1-5.7Z" opacity=".6"/><path fill="#320000" d="M424.4 97.1c1.2-.9 2-.6 2.2.7-1.2.9-2 .7-2.2-.7Z" opacity=".3"/><path fill="#5c0409" d="M471.4 97.2h.1l.7.8c1 1 2 1.8 3.1 2.6-7.2-.1-14.5-.3-21.7-.6l.5-.8c3.5 0 7-.3 10.4-.9 2.3-.1 4.8.3 6.9-1.1Z" opacity=".5"/><path fill="#e0ded5" d="m293 98.4.6-.3 2 4.4.7 1.3c.2 1.3.6 2.6 1.4 3.7l-1.3-1.5c-1.7-1.6-4-1.4-6.2-1.1 1.6-1.8 3.3-3.9 2.8-6.5Z"/><path fill="#58070b" d="M346.6 98.7c2.5 0 5 .2 7.6-.2h.2l3.4 1c-3 0-5.8 0-8.7.5 1.2 1 2.8 1.4 4.3 1.8l1.4.3h-4.9l-1.7-2c-5.6 1.8-11.5 2.6-17.2 3.7l-2.2-.8c3-2.1 6.8-1.3 10.3-2.1 2.5-.6 4.9-1.8 7.5-2.2Z" opacity=".5"/><path fill="#be8472" d="M472.2 98c3.5 1.4 7.8.2 10.9 2.7-.5.2-1.4.6-2 .7-1.6 0-3.2-.2-4.8-.5l-1-.3c-1.1-.8-2.2-1.6-3-2.6Z" opacity=".9"/><path fill="#210103" d="M603 98.1c3 .4 6 2 7 4.8-2.7-.5-6.6-1.4-7-4.8Z" opacity=".2"/><path fill="#82785d" d="M82.5 101.1c-2.2-.7 0-3.5 1.5-2.2l-1.5 2.2Z" opacity=".7"/><path fill="#b2a48e" d="m289.4 100 3.6-1.6c.5 2.6-1.2 4.7-2.8 6.5a70 70 0 0 1-.9-.8l.1-4.1Z"/><path fill="#d7ccb8" d="M403 106.7c.8-2.6 1.8-5.3 1.4-8.2 2.2.3 4.4.3 6.5.3-1.6 1.4-3.8 1.7-5.9 1.8l.1 1c1.6 0 3.2 0 4.9.2l-1 4.4c-.4 1.5-1.4 2.6-2.4 3.7l1.4-4.4-5 1.2Z"/><path fill="#757166" d="M411 98.8c-.5 2.5 0 5.5-2 7.4l1-4.4-4.9-.3-.1-.9c2.1 0 4.3-.4 6-1.8Z" opacity=".8"/><path fill="#4f463d" d="m424.4 98.8 5 .5a43 43 0 0 1 .9 11.7c-.6 2.5 2.1 3.5 3.5 5.1-2 1.2-4.3.2-6.5.3-2.5 0-4.9.3-7.3.2.9-1.4 2-2.6 3.3-3.7 0-2.3-.4-4.8.5-7 .5 3.3.6 6.6-.6 9.8 2.6-.2 5.3-.3 8-.3l-2-2.5c0-3.8 0-7.6-.6-11.4l-4.3-.1.1-2.6Z" opacity=".4"/><path fill="#554c44" d="m448.2 99.5 5.9-.3-.5.8c-.4 5.3-.2 10.7 0 16-1.7-.6-3.3-1.4-3.6-3.3l2.7 2.1c-.2-4-.3-8.1.2-12.1l-.7-1.6-2.8-.3-1.2-1.3Z" opacity=".5"/><path fill="#7a080e" d="M488.4 99.4c2.2-.3 4.4 0 6.5 1a22 22 0 0 1 8.3 1.3l.5-1.4-.1 1.4 6.6-.3c.2 2.6 3.1 2.8 4.7 4.2l-2.7-1.3-2.6.2.2-2c-3 .2-6 0-8.9-.8-4.1-.5-8.4-.2-12.5-.2v-2.1Z" opacity=".7"/><path fill="#310002" d="M85.8 101.9c1.4-1.9 3.8-1.4 5.8-1.4l2.2 2h5.8l-.4-1c4 .1 8-.2 11.9.4l.5 1.4c-4 .4-8.3-.6-12.2 1l-1.3-.2-3.8-.7c-2.3.2-6.9-1.3-7 2.2l-1.7-1.7.2-2Z" opacity=".3"/><path fill="#665149" d="M353.4 101.8a58 58 0 0 1 7.2-1.3c.4 4 .1 7.8.1 11.7-.5-3.3-.4-6.8-.3-10.1h-5.6l-1.4-.3Z" opacity=".5"/><path fill="#4e4b3d" d="M376.9 102c-2-1 .4-2.3 1.5-2.5l4 1.2-1 1.3h-4.5Z"/><path fill="#2b0104" d="M51.3 101.4c3.3-1.9 7.1.2 10.6-.3 5.3-.6 10.6-.5 15.9.3l.3 1.5c-6 1-12 .2-18.1 0-3 0-7 1.5-9.4-1l.7-.5Z" opacity=".2"/><path fill="#8c6d51" d="m80.2 101.4 3.1.3 2.5.2-.2 2-.1 1-1.3-.4a5.7 5.7 0 0 0-4-.4v-2.7Z" opacity=".7"/><path fill="#dfcda7" d="M424.3 101.4h4.3c.6 3.9.7 7.7.6 11.5l2 2.5c-2.7 0-5.4.1-8 .3 1.3-3.2 1-6.5.6-9.8.8-1.4.5-3 .5-4.5Z"/><path fill="#f5e7b1" d="M440.6 103.4c-1.1-.7-1.4-2-1.5-3.2l2 .6 1.8 2.5 5.2.5h1.6a23 23 0 0 1-.2 8c-3.4-2.4-5.8-5.8-8.9-8.4Z"/><path fill="#696754" d="M441.1 100.8c3-1.8 4.6 1.4 7 2.5l1.3-2.5 2.8.3.7 1.6-3.2 1-1.6.1-5.2-.5c-.4-.7-1.3-2-1.8-2.5Z" opacity=".8"/><path fill="#5a5448" d="m481.2 101.4 1.9-.7 2.3 1.9-6 1.8c-1 0-1.3-.6-1-1.8l2.8-1.2Z" opacity=".7"/><path fill="#443c33" d="M486 101.1c.7 1.5 1.4 3 1.9 4.5-2.5-.2-4.9-.6-7.3-1l.1 1.6-1.3-1.8 6-1.8.6-1.5Z" opacity=".8"/><path fill="#a59f8f" d="M354.8 102c1.8.2 3.7.1 5.6 0-.1 3.4-.2 6.9.4 10.2 0 1.5 1.1 2.4 2.3 3.1-3.9 1-7.9.8-11.8 1.3l.4-2h1.4c2.4.4 5 .5 7.5.4a19 19 0 0 0-5.3-6.2c-.4 1.6-.7 3.3-1.6 4.7.2-3.8-1-8 1-11.4m.4 1.1-.1 4.2 2.2.1c0 1.5.8 2.4 2.1 2.7l.4-7.8-4.6.8Z" opacity=".8"/><path fill="#cfb48c" d="M379.2 102h2.1c-.4 1.7-2.5 3-4.2 2.3-.6-1.2 1.3-1.9 2.1-2.2Z"/><path fill="#88705a" d="m381.5 102.5.8-.2c.5 3 2 5.7 3.9 8.1l-1.1 3.4c1.7.7 3.4 1.4 5.1 1.9 5.2.3 10.5-.7 14.8-3.8-6 6.5-17 6.2-23.7 1l.2-4c.4-.8.9-1.4 1.3-2l-1.3-4.4Z"/><path fill="#fcf9e7" d="m355 103.2 4.7-.8-.4 7.8c-1.3-.3-2-1.3-2.1-2.7H355v-4.3Z"/><path fill="#ebdbad" d="M167 104.5h3.1c.2 1.6 1.5 2.3 2.9 2.7.3-1.5 1.5-2 2.6-2.7l2 1.5-1.8 2.9c-1.3 2.5-1.2 7.5-5.2 6.7l.9-2.6c-1.6-.5-2.9 1.1-2.3 2.5-2.3-.8-1.8-4.6-3.5-6.4-.6-1.5-1.2-3-1.3-4.6 2.8-.5 3.5 2.2 3.7 4.3.3-1.5 0-3-1.1-4.3Z"/><path fill="#190203" d="M195 104h8l-2 1.8-.6.3.3 2.2c-.1-3.6-3.9-2.2-6.2-2.1l.6-2.1Z" opacity=".2"/><path fill="#b5a98d" d="M123.7 104.6h3.5c0 1.3 1 3.4-1 3.8-2.4.9-2.4 3.8-3.4 5.9l1-9.7Z" opacity=".9"/><path fill="#e8deb9" d="M239.1 104.5h6.5c0 2.4-.2 4.8 1 7l2.3.8c.9 1.1 1.6 2.2 2.4 3.4-4.4-.2-8.9-.1-13.3 0 2-3.5 1.3-7.4 1.1-11.2Z"/><path fill="#b8ae96" d="M290.2 104.9c2.2-.3 4.5-.5 6.2 1.1-1.7 1-3.4 1.7-5.2 2.4l-1-3.5Z" opacity=".9"/><path fill="#ece0c5" d="m403 106.7 5-1.2-1.4 4.4-.3 1.2-1.3.8c-4.3 3-9.6 4.1-14.8 3.8 1.7-2.2 4.6-1.7 7-2.6 2.2-1 4.1-2.7 5.1-5l.7-1.4Z"/><path fill="#433d31" d="M465.5 104.8c2 1.8 3.4 4.2 4.4 6.7-1.3-1.2-2.5-2.6-3.7-3.9l.2 2.2h-1.3l.4-5Z" opacity=".4"/><path fill="#faf4ce" d="M480.6 104.6c2.4.4 4.8.8 7.3 1-.1 2.3-.7 4.4-1.7 6.4l-1.4-4-1.8.7-1.1 2.2-.3-1a127 127 0 0 1-.9-3.8l-.1-1.5Z"/><path fill="#bea574" d="M80.1 106.5c2.3.2 4.4-.5 6.4-1.4 0 2-.2 3.8-.3 5.7l-4.9-2.9c.2 1.4 1 5.9-1.5 4.4 0-2 .2-3.9.3-5.8Z"/><path fill="#6c675f" d="m201 105.8 3-.1v1l-2 .1c-.4 2.8-.8 5.6-1.4 8.4 6.7-.1 13.4.5 20.1 0l.7-4.9-1.2.8a14 14 0 0 1 2.2-3c0 2.5-.3 5.1-.8 7.7-7.6 1.2-15.3 0-23 .5l2-3.3c0-1.5.2-3.2.1-4.8l-.3-2.1.6-.3Z" opacity=".6"/><path fill="#5e4b36" d="M291.2 108.4c1.8-.7 3.5-1.5 5.2-2.4l1.3 1.5 1 2-5.4.9-1.5-.1-.6-1.9Z"/><path fill="#524941" d="M320.2 106.2h1.1a3872.9 3872.9 0 0 0-.7 6.9l-1 2.4h9.3l-1-1.3-1-1.5.5-7.1c.4 2.4.4 4.8.7 7.2 1 1.5 3 2 3.9 3.7-5 .1-9.9-.3-14.8.1 2.8-2.8 3.3-6.7 3-10.4Z" opacity=".5"/><path fill="#f7efd4" d="M321.3 106.2v-.6h6.1l-.5 7c-.3-.3-1-1-1.4-1.2l-1-2.1H321l.2-3.1Z"/><path fill="#eee7d1" d="m202 106.8 2-.1 3.7-.3-.1 5.5-4-1.3-1.3 2.8c5.5-.5 11.1.6 16.4-1.2l1.5-1.1 1.2-.8-.7 4.8c-6.7.6-13.4 0-20.1.1.6-2.8 1-5.6 1.4-8.4Z"/><path fill="#35322f" d="M274.5 106.9h.4l1.3.8c1.8.9 2.3 2.3 1.4 4.1l-1-2.7-2.9.8-.4.6c-.9 1.4-1.7 3-3 4 1-2.6 2.3-5.5 4.2-7.6Z" opacity=".4"/><path fill="#830a10" d="M495.4 110.8c0-4 5-3.8 8-3.1l.3 1.6c-2.9 0-5.9 0-8.3 1.5Z" opacity=".8"/><path fill="#9f1418" d="M620.3 108.8c-.5-1.5 1.8-2 2.8-1.6l-.1 2.6a5 5 0 0 1-2.7-1Z"/><path fill="#ecd8b1" d="m81.3 108 5 2.8c0 1.6-.3 3.8 1.9 4.1l-.7.6c-3 .1-5.8.2-8.8 0l-.6-.4 1.7-2.9c2.6 1.6 1.7-3 1.5-4.3Z"/><path fill="#9c8971" d="M395 112.6c3 0 5.1-2.6 7.3-4.5-1 2.3-2.9 4-5.2 5-2.3.9-5.2.5-6.9 2.6-1.7-.5-3.4-1.2-5.1-1.9l1-3.4c2.7 1.7 5.7 2.8 8.8 2.2Z"/><path fill="#d1c899" d="m483 108.7 1.8-.7 1.4 4-.7.5-3.5 2.4-1.9.3-2.3-2.7 1.6-.3c1.1 0 2-.4 2.5-1.3l1-2.2Z"/><path fill="#711921" d="M553.3 116.3a56 56 0 0 1 5.4-8.5l.5 1c-.8.9-1.4 1.8-2 2.9l-2 3.2c5.4 0 10.9.2 16.3.4h2.5l6-.3 3.3.4 1.4.2-2.1.5c-9.8.5-19.6-.2-29.3.2Z" opacity=".7"/><path fill="#eee6d3" d="M256.5 111.5c.9-1 1.6-2.4 3.2-2.5a49 49 0 0 0-1.3 6.6 71 71 0 0 1-7.1 0l-2.4-3.3c2.6-.1 5.4.6 7.6-.8Z"/><path fill="#c7bb9e" d="M321 109.3h3.5l1 2 1.4 1.4 1 1.5-7.3-1.1.5-3.8Z"/><path fill="#efe8d1" d="M355.3 108.8a19 19 0 0 1 5.3 6.2c-2.5 0-5 0-7.5-.4l.6-1.1c.9-1.4 1.2-3.1 1.6-4.7Z"/><path fill="#8d0608" d="M557.2 111.7c.6-1 1.2-2 2-3l1 2.4c.4 1.9-2.3 1.9-3 .6Z"/><path fill="#575248" d="m98 109.9 2 2.4 3-1.2-1.7 4.2 8.8.2-1-1.6 3.2.7.4 2c-3.5-.4-7.1-.2-10.6-.6-2-1.5-3.9-3.5-4-6.1Z" opacity=".5"/><path fill="#5d5a53" d="m273.7 110 2.9-1 1 2.8-.7-.6c.1 1.8.4 3.6.9 5.4a43 43 0 0 0-9.4 0v-2.3l2 .3 6 .7c-.3-1.8-.5-3.6-1-5.4l-2 .6.3-.6Z" opacity=".5"/><path fill="#fbe7ac" d="M291.8 110.3h1.5l7.6 3.8 1.7.8c-2.7 1.4-6 .4-9 .7l-1.8-5.3Z"/><path fill="#8c4c3f" d="M479.4 112.2c-.2-1.5.6-2.2 2.2-2.3l.3 1c-.6 1-1.4 1.3-2.5 1.3Z" opacity=".7"/><path fill="#470306" d="M488.9 110.1c1.7-.1 3.3.2 5 .6-.7 2.4-6.5 2.6-5-.6Z" opacity=".4"/><path fill="#d23620" d="M564.3 110.7c1.1-.7 2.3-1.3 3.6-1.8l1 4-5.6 1.2 1-3.4Z"/><path fill="#a51215" d="m619.9 110.3 3 .6v4.6h-4.2l2-1.6-.8-3.6Z"/><path fill="#29241f" d="M105.8 111.2c1.8-.5 2.5.2 2 2-1-.4-1.6-1-2-2Z" opacity=".3"/><path fill="#b2ab9d" d="m202.3 113.4 1.3-2.8c1.3.5 2.7 1 4 1.3 3.7.2 7.4-.3 11 .3-5.2 1.8-10.8.7-16.3 1.2Z" opacity=".8"/><path fill="#f7f5f0" d="m273.3 110.5 2-.6c.6 1.8.8 3.6 1 5.4l-6-.7c1.3-1.2 2.1-2.7 3-4.1Z"/><path fill="#320804" d="M574 113c-2.1 3-3.6-3-.4-1.9l.3 1.9Z"/><path fill="#b2080d" d="M581.1 111.1c2.5-.4 1.5 2.9 2.2 4.3l-3.4-.4 1.2-3.9Z"/><path fill="#6a1215" d="M610 114.4a168 168 0 0 1 5.3-3.3c1 1.4 1.8 2.8 2.5 4.4-2.7.1-5.3-.2-7.8-1.1Z"/><path fill="#fef9d9" d="M169.2 115.5c-.6-1.4.7-3 2.3-2.5l-.8 2.6h-1.5Z"/><path fill="#e9dbbb" d="M320.6 113.1c2.5.4 5 .7 7.4 1.2l.9 1.3-9.4-.1 1.1-2.4Z"/><path fill="#28241f" d="m77.2 114.4 1 .7.5.4c3 .2 5.9.1 8.8 0l.7-.6.9-.8c1 .7 2.4 3.7-.2 3-4-.3-8-.5-12-.1l.3-2.6Z" opacity=".3"/></svg>