<?xml version="1.0" encoding="utf-8"?>
<!-- Generator: Adobe Illustrator 22.1.0, SVG Export Plug-In . SVG Version: 6.00 Build 0)  -->
<svg version="1.1" id="svg2" xmlns:svg="http://www.w3.org/2000/svg"
	 xmlns="http://www.w3.org/2000/svg" xmlns:xlink="http://www.w3.org/1999/xlink" x="0px" y="0px" viewBox="0 0 650 121.1"
	 style="enable-background:new 0 0 650 121.1;" xml:space="preserve">
<style type="text/css">
	.st0{fill:#FFFFFF;}
</style>
<g id="layer1">
	<g id="g2392" transform="matrix(1.2437154,0,0,-1.2437154,-44.773754,165.88376)">
		<g id="g2394" transform="scale(0.12,0.12)">
			<path id="path2398" d="M2800.1,882.7h123.8l35.1,61.3h86.8l0,0c8,0,15.4,0.8,22.4,2.3l0,0l-36.1-63.6h228.2l0,0
				c-4.9-8.5-9.9-17.5-15-27.5l0,0l-4.4-8.7l0,0c-16.1-30.8-31.5-69.1-46.1-114.7c-20.5,20.9-43.5,41-68.9,60.4
				c-18.2,13.7-37.2,26.8-57.3,39.1c-15.6,9.5-34.2,14.2-55.8,14.2c-4.7,0-12.3,0.2-22.6,0.6l0,0l-36.3,2.1h-3.2l0,0
				c-9.5,0-18.4-1.7-26.6-4.9c-12.9,14.2-30.6,22.2-53.5,24.1h-0.6l-14.1,1.1h-0.2l0,0c-10.6,0.6-17.8,1.3-21.3,2.1
				C2822.1,873.1,2810.6,877.2,2800.1,882.7L2800.1,882.7"/>
			<path id="path2400" d="M2234.5,971.5c-2.1,5.1-3.2,10.6-3.2,16.7c0,1.1,0,1.9,0,3h-28.5l-11.2-19.6H2234.5L2234.5,971.5"/>
			<path id="path2402" d="M3583.3,882.8h125.9l0,0c17.8,0,34.2,3.8,49.4,11.6c15.9,8,28.3,19.4,37.4,34
				c5.9-12.7,11.4-25.6,16.5-38.9c-7.6,2.7-15.9,4.2-24.3,4.2c-6.8,0-13.3-1.1-19.9-3c-36.6-10.8-73.7-19-111.8-24.7
				c-16.3-2.5-33.8-4.6-52.6-6.3c-3.8,6.6-8.7,12.5-14.6,18C3587.5,879.6,3585.4,881.3,3583.3,882.8L3583.3,882.8"/>
			<path id="path2404" d="M3857,1076.7c-3,6.8-7.2,13.1-13.1,18.8c-11.2,10.6-24.5,16.1-39.9,16.1h-641.3l-13.1-23l0,0
				c-2.8,3.8-5.9,7.2-9.9,10.6c-9.9,8.2-21.6,12.5-34.6,12.5h-171.2h-225.4l0,0c-27.5,0-48.8-9.7-64-29.2c-2.1,7-6.1,12.9-12,18.2
				c-8.2,7.4-17.8,11-28.7,11h-137.3l-4.7-8.2l0,0h-0.2c-8,5.5-16.9,8.2-26.6,8.2h-279.3l-18.8-32.7l0,0c-2.7,5.9-6.8,11.6-12,16.7
				c-11.2,10.6-24.5,16.1-39.9,16.1h-715.8l-40.3-71l-5.3,71h-149.6L1105,991.3l0,0c-6.3,5.5-13.7,9.9-22.6,13.3
				c-12.5,4.9-27.1,10.8-43.3,18.2l0,0l-28.5,13.1l0,0c-11.4,5.3-22.4,7.8-33,7.8c-16.1,0-30.2-5.1-42.5-14.8l0,0l-28.5-22.8l0,0
				c-17.3-13.9-26-32.1-26-54.9c0-5.1,0.4-10.1,1.5-15.2c0.6-3.8,1.3-7.6,1.9-11.4c-8.4,3-17.7,4.4-28.1,4.4c-1.9,0-3.8,0-5.5,0l0,0
				l-30.4-2.3l-32.8-3.4l0,0c-20.9-2.3-37.6-11.8-50.1-28.9c-9.7-13.1-14.4-27.7-14.4-44.2c0-14.2-0.8-30.6-2.1-49.9l0,0l-0.4-3.6
				l0,0c-2.3-33-5.5-58.9-9.1-78.2c-19.4,16.5-41.2,33.6-65.7,50.9c-60.9,43.1-130.8,79.2-209.6,108.6c-14.8,5.5-28.5,8.2-41,8.2
				c-36.3,0-61.5-17.7-75.6-52.8c-9.3-23.5-15.2-41.4-17.7-54.1c-1.1-5.5-1.5-11-1.5-16.5c0-16.5,4.4-31.3,13.7-44.2
				c10.6-15,24.5-24.5,41.8-28.9l0,0l-3.6-10.4v-0.2c-3-8.7-4.4-17.3-4.4-26.2c0-30.6,13.5-52.2,40.8-64.9l0,0l6.1-3l0,0
				c29.6-13.7,49.9-23.7,60.8-29.6c8.7-4.6,21.6-12,39.1-22.4h0.2l19.6-11.4l0.2-0.2l0,0c13.1-7.6,26.6-11.4,40.1-11.4
				c22,0,39.7,8.2,53.2,24.3c7-9.1,13.9-18.8,20.3-28.9c17.1-26.8,42-41,74.4-42.3h0.6l5.9-0.2h0.6l0,0c13.3,0,26.8,1.5,40.6,4.6
				c6.3,1.3,14.2,3.6,23.5,7.2l0,0l6.5,2.3l0,0c32.5,11.2,49.7,33.4,50.9,66.3c13.9,2.1,25.6,7.4,35.1,16.5l0,0l7.8-15l80.1-3.8
				l36.5-2.3l0,0c1.7,0,3.4,0,5.1,0c26.2,0,45.4,9.7,57.9,29.6c19-27.7,38.4-50.7,58.3-68.9c30-27.3,57.7-46.5,83-57.3
				c23.9-10.1,55.2-16.9,93.6-20.1c9.9-0.8,23.2-1.3,40.1-1.3c17.5,0,32.8,6.1,45.4,18.2c13.7,13.1,20.5,28.9,20.5,47.5
				c0,13.3-3,24.7-8.9,34.4c7.4,1.3,15.2,2.7,23.4,4.4c27,5.3,66.1,15.6,117.1,31.1c12.5,3.8,24.1,7.2,34.9,10.4
				c0.8-0.8,1.9-1.9,3-2.7c9.1-7.6,19.2-12.5,30.6-14.8c0.2-1.1,0.4-1.9,0.4-3c0-0.4,0-0.8,0-1.3c0-3-0.8-9.3-2.8-19l0,0l-0.6-3.6
				v-0.2c-5.1-26.6-18-60.2-38.7-100.6c-6.3-12.5-9.5-25.4-9.5-38.7c0-15,4.2-28.7,12.3-40.8c11-16.1,26-26,45.4-29.8l0,0l56-10.8
				l0,0c6.8-1.3,13.3-1.9,20.1-1.9c17.8,0,34.4,4.2,49.9,12.7c26.6,14.6,52,29.2,75.9,43.5c107.3,65.1,183.6,121.5,228.4,169.4
				c1.3,1.5,2.5,3,3.8,4.2c5.7-4.2,11.8-8.4,18-12.3c15.6-9.9,34.4-15,56.4-15h1.1l58.9,1.9l0,0c32.8,1.1,57.7,14.8,74.4,41.4l0,0
				l3.2,4.6l0,0c1.5,2.3,2.9,4.6,4.4,6.8c3.2-4.6,6.3-8.9,9.9-13.3c19.6-24.7,45.6-37.6,77.6-38.7h0.2l23.2-0.6h0.6l0,0
				c8,0,14.6,0.4,19.9,0.8c26.4,3,46.7,11.8,60.8,26.8l0,0l11.6,12.3l0,0c1.5,1.5,2.7,2.8,4,4c13.7-24.3,34.6-37.6,63-39.9h0.4
				l15.2-1.1h0.2l0,0c10.3-0.6,17.5-1.3,22-1.9c3.2-0.4,6.3-0.8,9.5-1.3c2.5-6.1,6.1-11.8,10.6-17.3c13.1-15.6,29.8-23.9,50.5-24.7
				h0.2l10.8-0.4l0,0c13.9-0.4,23.9-0.8,30-1.7c17.1-1.7,31.9-4.2,44.2-7.6c7.8-1.9,15.4-3,22.8-3c18.2,0,33.8,5.5,47.1,16.7
				c16.5,13.7,24.9,31.9,24.9,54.1c0,0.4,0,0.8,0,1.3c4.4,7.8,8.5,15.2,12.3,22.6c4.7,0.6,9.3,1.1,14,1.3c2.3,0.2,5.3,0.4,8.4,0.4
				l0,0l9.1-0.2l0,0c7.2-9.5,13.7-17.3,19.9-23.5c33.8-35.1,73.7-61.3,119.4-78.6c13.7-5.3,27.7-7.8,42.3-7.8
				c5.3,0,10.6,0.4,15.8,1.3c9.3,1.3,18.4,2.1,27.1,2.5c6.1,0.4,15.6,0.6,28.7,0.6h0.6l0,0c10.4,0,19.9,1.9,28.7,5.7
				c3.8,1.7,7.6,3.8,11,5.9c12.3-10.4,28.3-15.4,48-15.4h0.6l9.9,0.2l0,0c7.8,0,15.6-1.1,23.5-2.7c2.7-0.8,8.4-3.2,17.3-7.2l0,0
				l0.6-0.2l15.2-6.8l0.8-0.4l0,0c8.7-3.4,17.5-5.1,26.8-5.1c15.4,0,29.4,4.4,41.8,13.5c2.1,1.7,4.2,3.6,6.3,5.3
				c0.4-0.6,1.1-1.5,1.7-2.3c15-21.3,35.9-31.9,62.8-31.9c8.9,0,17.8,1.5,26.6,4c14.6,4.4,24.9,6.5,31.1,6.5c1.5,0,2.8,0,3.8-0.2
				c4-0.6,8-1.1,12.1-1.1c19.2,0,35.3,5.9,48,18c7.6-5.1,16.1-8.4,25.6-10.4l0,0l28.1-5.5l0.8-0.2l0,0c14.2-2.3,26.4-4,36.6-5.1
				c2.7-0.2,5.3-0.4,7.8-0.4c23.4,0,43.7,8.7,61.1,26c7.6,7.6,15.9,14.6,24.5,20.7c10.1,7,28.5,16.1,55.6,26.8l0,0l1.5,0.6l0,0
				c22.2,8.9,44.6,16.1,67.4,21.3c11.8-11.8,26.4-18.2,43.7-19.2h0.6l11-0.4h0.4l0,0c7.4-0.2,12.3-0.4,14.4-0.8
				c9.3-1.7,17.8-4.9,25.8-9.5c12.3-6.8,25.4-10.4,39.7-10.4c11.2,0,23.2,2.5,36.1,7.2c15.4,5.9,42.1,9.7,79.9,11.6l0,0l24.5,0.6
				l0,0c15.6,0,39.3-1.1,71-3c34.9-2.3,61.3-3.4,79.4-3.4h0.2l12,0.2h0.4l0,0c49.4,1.1,87.7,7,114.7,17.7
				c35.1,14.4,52.6,40.4,52.6,78c0,7.8-0.9,15-2.3,22c3.6,3,6.5,5.5,8.9,7.6l0,0l0.4,0.2l1.3,1.3l0,0c0.4-0.4,0.6-0.8,1.1-1.3
				c13.3-15.8,26.2-33.4,38.9-52.6c14.4-21.8,34.5-32.8,60.6-32.8c25.4,0,45.6,10.4,60.6,31.1l0,0l29,40.1l0,0
				c10.8,15.2,16.3,32.3,16.3,50.9c0,21.6-7,41.4-20.9,60c-44,58.7-108.6,113.7-194,165.4c-18.8,11.4-47.1,25.6-84.9,42.5
				c-16.9,7.6-29.4,13.5-37.6,17.3c-17.8,8.9-37.2,13.1-58.3,13.1c-13.3,0-27-1.7-40.8-5.5c-16.5-4.2-35.9-12.7-58.5-24.7
				c-23-12.7-35.3-31.3-37.2-56.2c-13.3,12.7-25.8,25.6-37.4,38.7c-24.9,27.9-45.4,54.3-61.9,79c-10.1,15.4-19.2,34.4-27.5,57.3
				c-14.6,40.2-44.2,60.2-88.7,60.2c-3.2,0-6.3,0-9.5-0.4l0,0l-7.6-0.6l0,0c-9.5-0.4-17.1-1.5-23.3-2.5
				C3863.8,1078.4,3860.4,1077.5,3857,1076.7L3857,1076.7"/>
			<path id="path2406" d="M1188.6,914.3c-0.4,0-0.6,0-1.1,0c-3.4,0-6.8-0.2-9.9-0.6c-5.1-0.6-10.3-1.3-15.8-2.3l0,0l23.9,42
				L1188.6,914.3L1188.6,914.3"/>
			<path id="path2408" d="M1293,882.9h143.5l0,0c-3-2.3-5.9-4.6-9.1-7.2l0,0L1397,852l0,0c-15.2-11.6-28.7-22.4-40.6-32.1
				c-1.1,1.5-2.1,3-3.2,4.6C1335.9,849.1,1315.8,868.5,1293,882.9L1293,882.9"/>
			<path id="path2410" d="M1838.4,882.6h42.9l0,0c-0.4-0.6-0.8-1.1-1.3-1.7c-0.8-0.8-1.5-1.9-2.1-2.7c-3,0.2-6.1,0.2-9.3,0.4h-3l0,0
				c-2.1,0-4.2,0-6.3-0.2c-3.4,0.6-7,1.1-10.8,1.3l0,0l-11.6,0.6L1838.4,882.6L1838.4,882.6"/>
			<path id="path2412" d="M2074.8,882.7h30.6l0,0c-6.1-0.8-14.8-1.5-26.4-2.1h-0.2l-2.1-0.2l0,0
				C2076,881.2,2075.4,882.1,2074.8,882.7L2074.8,882.7"/>
			<path id="path2414" d="M2221.9,882.6h119.8l0,0c-5.5-9.5-9.1-19.9-10.3-30.8c-9.5,0-19.4-0.6-30-1.5c-13.3-1.1-26-3-38-5.5
				c-4.9-1.1-9.5-2.3-13.9-3.8c-5.3,10.1-11.8,20.7-19.5,31.7C2227.4,876.2,2224.6,879.6,2221.9,882.6L2221.9,882.6"/>
			<path id="path2416" d="M2709,882.6h14.4l0,0c-3.4-2.1-6.8-4.6-9.7-7.4c-0.4-0.2-0.8-0.6-1.3-1.1
				C2711.3,877.1,2710.3,879.8,2709,882.6L2709,882.6"/>
			<path id="path2418" d="M2202.3,707.2c-0.4,0-1.1-0.2-1.7-0.2c-8.2-0.8-16.9-1.5-25.6-2.1c1.1-0.4,2.3-0.8,3.4-1.1l0,0l25.1-9.3
				l0,0C2203.2,698.8,2202.7,702.8,2202.3,707.2L2202.3,707.2"/>
			<path id="path2420" d="M1804.1,610.7c1.9-5.3,3.6-10.8,5.1-16.5c6.1,5.9,12.3,12,18.2,18C1819.7,612,1811.9,611.4,1804.1,610.7
				L1804.1,610.7"/>
			<path id="path2422" class="st0" d="M1904.3,1082.2L1807,911.7h182.9l0,0c25.3,0,50.3,11.1,63.2,33.6l0,0l56.1,98.3l0,0
				c10.3,18-4.7,38.6-24.5,38.6H1904.3L1904.3,1082.2"/>
			<path id="path2424" class="st0" d="M1326,911.7h-108l-10.2,138.6l-79.2-138.6h-35.4l97.3,170.5h105.7l10.3-139.2l79.4,139.2h37.5
				L1326,911.7"/>
			<path id="path2426" class="st0" d="M1599.6,1012.9l-16.5-28.9h-96l-25.4-44.6h106.6l-15.8-27.7h-189.6l97.3,170.5h189.6l-17-29.8
				h-106.7l-22.5-39.5H1599.6"/>
			<path id="path2428" d="M2015.3,1052.4h-43.1l-64.5-113h45.8l0,0c9.9,0,18,6.6,22.7,14.9l0,0l49.2,86.2l0,0
				C2029.2,1047.3,2021.6,1052.4,2015.3,1052.4L2015.3,1052.4"/>
			<path id="path2430" class="st0" d="M1824.1,1012.9l-16.5-28.9h-96l-25.4-44.6h106.6l-15.8-27.7h-189.6l97.3,170.5h189.6l-17-29.8
				h-106.7l-22.5-39.5H1824.1"/>
			<path id="path2432" class="st0" d="M2375.5,976h-104.2l0,0c-10.2,0-13.3,11.9-8.8,19.7l0,0l39.4,69.1l0,0
				c6.3,11,18.2,17.5,30.9,17.5h102.1l0,0c8.6,0,19.1-6.9,13.9-16.2l0,0l-39.4-69.2l0,0C2402.3,984.7,2389.8,976,2375.5,976
				L2375.5,976"/>
			<path id="path2434" d="M2388.2,1065.2h-26.8l0,0c-5.7,0-11.5-2.4-14.4-7.5l0,0l-32.1-56.3l0,0c-2.1-3.6,0.3-8.3,4.6-8.3h30.2l0,0
				c5.3,0,9.7,3.4,12.2,7.9l0,0l32.1,56.1l0,0C2396.2,1061.1,2392.4,1065.2,2388.2,1065.2L2388.2,1065.2"/>
			<path id="path2436" class="st0" d="M2569.3,976l-2.5,45.6l11.8,0.2l0,0c9.1,0.2,16.2,6.7,20.5,14.3l0,0l16.4,28.8l0,0
				c4.8,8.5-2.9,17.3-11.9,17.3h-120.4L2422.7,976h50.7l25.3,44.2l16.5,0.3l2.4-44.6H2569.3L2569.3,976"/>
			<path id="path2438" class="st0" d="M2247.2,1020.2l10,17.5h-61.3l15.6,27.5h67.7l9.8,17.1h-116.6L2111.8,976h49l25.1,44.2H2247.2
				"/>
			<path id="path2440" d="M2539.2,1038.8h-30l15.1,26.4h30.4l0,0c3.1,0,7.9-1.8,5.8-5.6l0,0l-7.9-13.9l0,0
				C2549.8,1041,2544.5,1038.8,2539.2,1038.8L2539.2,1038.8"/>
			<path id="path2442" class="st0" d="M2661.9,1056.4l-36.8-64.4l0,0c-6.5-11.4,2.9-24.4,15.4-24.4h86.8l0,0c4.3,0,10.8-2.6,7.9-7.7
				l0,0l-5.1-8.9l0,0c-3.5-6.1-10.4-8.8-17.3-8.8h-620.4l-17.4-30.4H2743l0,0c25.6,0,50.3,12.3,63.1,34.8l0,0l30.8,54l0,0
				c8.1,14.2-6.1,27.6-20.5,27.6h-80l0,0c-4.6,0-12.1,2.5-8.8,8.2l0,0l7,12.2l0,0c3.2,5.6,10,6.2,15.9,6.2H2868l15.7,27.5h-175.3
				l0,0C2689.5,1082.3,2671.4,1073,2661.9,1056.4L2661.9,1056.4"/>
			<path id="path2446" class="st0" d="M2824.7,911.7h82.3l35,61.3h103.8l0,0c19.1,0,38.4,7.6,48.2,24.7l0,0l31.9,55.9l0,0
				c8.3,14.6-6,28.7-20.9,28.7h-182.9L2824.7,911.7L2824.7,911.7"/>
			<path id="path2444" d="M2958.3,1001.7h48.6l0,0c7,0,12.9,4.5,16.2,10.4l0,0l18.9,32.9l0,0c2.5,4.4-0.9,9.7-5.9,9.7h-47.5
				L2958.3,1001.7L2958.3,1001.7"/>
			<path id="path2448" class="st0" d="M3623.8,1082.2l-97.3-170.5h182.9l0,0c25.3,0,50.3,11.1,63.1,33.6l0,0l56.1,98.3l0,0
				c10.3,18-4.7,38.6-24.5,38.6H3623.8L3623.8,1082.2"/>
			<path id="path2450" class="st0" d="M3319,1012.9l-16.5-28.9h-96l-25.4-44.6h106.6l-15.8-27.7h-189.6l97.3,170.5h189.6l-17-29.8
				h-106.6l-22.5-39.5H3319"/>
			<path id="path2452" d="M3734.7,1052.4h-43.1l-64.5-113h45.8l0,0c9.9,0,18,6.6,22.7,14.9l0,0l49.2,86.2l0,0
				C3748.7,1047.3,3741,1052.4,3734.7,1052.4L3734.7,1052.4"/>
			<path id="path2454" class="st0" d="M3543.6,1012.9l-16.5-28.9h-96l-25.4-44.6h106.6l-15.8-27.7h-189.6l97.3,170.5h189.6l-17-29.8
				h-106.7l-22.5-39.5H3543.6"/>
			<path id="path2456" class="st0" d="M609.3,718.6c-48,34-137.8,79.7-195.2,101c-21.8,8-31.3,4.9-37-9.3
				c-3.6-9.1-12.5-33-14.4-42.7c-1.1-5.5-1.3-16.3,11.4-17.8c79.7-8.9,138.6-51.6,171.4-75.4c33.4-24.3,66.8-49.2,94.2-80.5
				c15-17.1,28.7-35.5,41-54.7c5.3-8.2,14.6-13.1,24.3-13.5c10.8-0.4,21.3,0.6,31.9,3c7.8,1.7,15.2,5.1,22.8,7.6
				c7.6,2.5,11.6,11,7.6,18.2c-12.9,22.4-27.5,43.7-43.9,63.8C691.1,657.7,650.7,689.2,609.3,718.6L609.3,718.6"/>
			<path id="path2458" class="st0" d="M436.5,700.5c-5.7,0.6-11.8-1.7-13.7-7.4c-3.8-11.2-7.6-22.2-11.4-33.4
				c-1.7-5.3-2.1-12.3,3.6-15c20.5-9.5,50.1-23.2,70.1-34c20.5-11,40.4-23.2,60.6-34.9c4.6-2.7,11.4-5.3,15.2,0l0,0l15.2,21.3l0,0
				c6.1,8.7,7.2,20.5,0,28.7c-6.5,7.6-13.5,14.8-21.1,21.3c-20.1,17.8-43.3,31.7-68.5,41C470.5,694.4,453.6,698.4,436.5,700.5
				L436.5,700.5"/>
			<path id="path2460" class="st0" d="M748.8,633.9c-0.6-1.5-0.6-3.6,1.1-4.2c10.6-4.2,21.1-8.2,31.7-12c11.6-4.2,23.2-8,34.9-12
				c3.4-1.3,7.4,0,8.9,3.4c7,15,12.3,30.8,16.3,46.9c5.5,22.4,5.1,45.8,7.6,68.7c12.7-22.8,24.9-45.6,37.2-68.7
				c8.9-16.7,17.5-33.4,26.2-50.3c15-0.6,29.8-1.3,44.8-2.1c12.5-0.6,24.9-1.5,37.2-2.3c3-0.2,6.3,0.4,7.6,3.4
				c3.2,7.4,6.1,15,8.7,22.8c7,21.1,10.1,43.3,13.1,65.5c4,30.4,5.1,61.1,3.4,91.7c7-27.5,15.6-54.5,26.2-80.7
				c11-27.5,22.8-54.5,38.2-79.7c17.5-28.5,37.4-56,62.1-78.6c19.9-18,40.8-35.3,65.5-45.8c23.5-9.9,49-13.3,74.4-15.4
				c11.6-1.1,23.2-1.3,34.9-1.1c2.8,0,5.3,3.8,2.1,5.5c-16.3,8.2-31.9,17.7-46.9,28.3c-22.4,15.8-42.3,34.6-61.1,54.7
				c-31.7,34-56.6,73.5-78.6,114.5c-23.7,44.4-40.8,91.7-54.7,139.9c-10.6,36.6-18.6,73.7-23.9,111.3c-0.4,3.6-1.9,7.4-5.5,8.7
				c-15.9,6.1-31.5,12.7-46.9,19.6c-9.5,4.2-19,8.7-28.5,13.1c-3.4,1.5-7.6,3.6-10.8,1.1l0,0l-28.5-22.8l0,0c-3-2.3-2.7-6.6-2.1-9.9
				c3.8-20.5,6.6-41.2,8.7-62.1c3-31.3,6.1-62.8,3.4-94c-1.9-21.8-5.5-43.1-11-64.2c-18.4,19.9-34.4,41.8-48,65.5
				c-12.3,21.3-19.9,45-29.6,67.6c-2.1,4.6-7.2,7-12,6.5c-9.7-0.6-19.6-1.3-29.4-2.1c-10.6-0.8-21.1-2.3-31.7-3.4
				c-5.5-0.6-8.7-5.7-8.7-11c-0.2-18.2-1.1-36.3-2.3-54.5c-3-38.2-5.5-76.7-16.3-113.5C761.5,665.6,755.6,649.5,748.8,633.9
				L748.8,633.9"/>
			<path id="path2462" class="st0" d="M1656.4,899.3h-96.6l0,0c-31.7-23.9-63-48.2-93.8-72.9c-37.2-29.6-76.7-56.6-110.1-90.6
				c-9.7-9.7-19-19.9-28.1-30.2c0.6,12.9-0.6,26-4,38.7c-4.2,16.1-12.3,30.6-21.8,44.2c-12.5,17.7-27.9,33.4-46.7,44.2
				c-5.7,3.4-12.5,4.4-19,3l0,0l-58.9-13.7l0,0c-2.3-0.4-1.5-3.2,0-4c6.8-4.4,12.9-9.5,19-14.6c13.9-11.8,27.5-24.5,36.3-40.8
				c7.2-13.1,11.8-27.7,13.9-42.5c1.5-11,1.5-22,0-33l0,0l-2.7-7.8l-9.5-15.6l0,0c-8.7,5.1-15.6,12.7-19.9,21.8
				c-4.4,9.1-5.5,19.4-4.4,29.4c0.8,8.7,3.6,16.7,7.8,24.3c2.5,4.6,5.9,9.1,9.5,13.1c2.1,2.3,3.2,5.5,1.7,8.4
				c-4,7-9.1,14.2-15.6,21.1c-5.1,5.5-11.8,11.6-19.9,18.4c-2.8,2.3-6.6,1.3-9.5-0.4c-9.9-5.9-18.6-13.7-25.1-23.2
				c-5.5-7.8-9.3-16.9-12.1-26c-4.2-14.2-5.5-28.9-3.4-43.5c2.3-16.7,9.9-31.9,19-45.8c6.1-9.3,12.7-18.4,21.6-25.1
				c12-9.1,26.6-13.9,41.6-15.6c13.7-1.5,27.9,0,40.8,5.3c1.5,0.6,2.8,1.3,4.2,1.9c-6.6-19.2,0.6-42,22.4-47.1
				c33.4-7.8,69.5-0.6,103.7,6.3c71.8,14.4,140.3,41.6,211.7,57.3c79.2,17.3,159.7,29.4,240.9,31.5c25.6,0.6,51.1,0.2,76.7-1.3
				c10.1-0.6,25.4-7.8,17.3-19.4c-31.7-45.8-69.9-86.8-111.3-124.2c-22.2-20.1-45.2-39.3-69.1-57.3c-16.5-12.5-33.4-24.3-50.7-35.5
				c12.1,15.6,21.6,33.2,28.1,51.8c8.7,24.3,15.2,49.9,10.8,75.6c-3.4,19.6-9.5,39.5-23.7,54.1c-7.6,7.8-16.9,14.2-27,18.4
				c-8.5,3.6-17.7,6.3-27,4.2l0,0l-60.4-13.9l0,0c-8.5-1.9-16.9-18.4-2.3-17.3c31.7,2.3,44-31.3,46.5-58.3
				c1.3-13.9-1.7-27.7-4.2-41.2c-7.8-41.6-25.1-80.3-44.4-117.7c-3.4-6.8-4.9-17.7,4.4-19.4l0,0l56-10.8l0,0
				c9.7-1.9,19.6-0.4,28.1,4.2c24.7,13.5,49.4,27.7,73.5,42.3c76.5,46.3,154,93.4,215.1,158.7c16.9,18.2,33.8,37.6,40.3,61.7
				c9.7-12.7,18.6-25.8,30.2-36.6c9.3-8.7,19.4-16.5,30.2-23.2c8.9-5.7,19.9-5.5,30-5.1l0,0l50.9,1.7l0,0c9.5,0.4,19,4.6,24.1,12.9
				c3.4,5.5,7.6,10.6,10.3,16.5c3,6.3,5.3,12.9,6.8,19.7c1.3,5.5-1.5,11.2-6.8,13.1l0,0l-44.8,16.3l0,0c-6.1,2.3-13.3-1.3-14.6-7.8
				c-1.3-6.5-1.3-13.3-3.6-19.6c-2.8-7.2-6.8-13.5-12-19c-12.3,11.6-23.3,24.7-32.8,38.7c-12,17.8-20.3,37.8-28.3,57.7
				c-8.9,21.8-15.6,44.4-21.1,67.4c22.2,0,44.6,0.6,66.8,1.5c27.9,1.1,55.8,2.7,83.5,5.3c6.3,0.6,12.3,5.3,11.2,12
				c-3.2,20.9-15.6,38.9-27.5,56c-3.4,4.9-10.1,5.3-14.8,1.7c-4.9-3.8-9.9-7-15.4-9.5c-8-3.8-17.1-5.1-25.8-7
				c-18.2-3.8-36.8-3.8-55.1-5.1c-11.2-0.8-22.4-1.5-33.6-1.9c-1.1,5.7-1.9,11.6-2.5,17.3c-1.1,9.5-9.7,15.4-19,15.6
				c-29.2,0.8-53.9,0-78.2-2.7c-5.9-0.6-8-8.5-4.4-12c6.5-6.6,10.6-13.1,13.3-19.4c-25.8,0.2-51.3,1.1-77.1,2.1
				c-3.2,0.2-6.8-2.5-5.3-5.9l0,0l14.8-32.5l0,0c1.9-4.4,6.1-7.8,11.2-8.2c24.3-2.7,48.6-4.4,73.1-5.7c9.1-22.2,17.5-44.4,25.6-67
				c-54.5,16.1-111.8,16.1-168.2,11.8c-83.3-6.3-164.8-24.1-247.4-35.7c-43.5-6.1-87.1-12.7-130.8-17.1c-26.8-2.7-56.8-5.7-80.9,0
				c-8.7,2.1-5.9,12.3-1.1,17.1c32.8,33,67.4,64,103.7,93c38.5,30.8,78.6,60,120.9,85.4c25.4,15.2,51.1,29.2,77.8,42l0,0
				L1656.4,899.3L1656.4,899.3"/>
			<path id="path2464" class="st0" d="M1158.9,826.6c4-1.5,8.4-1.9,12.7-0.8l0,0l59.4,13.7l0,0c1.7,0.4,3,3.2,0.8,3.8
				c-7.4,2.5-14.8,4.4-22.4,5.7c-8,1.3-18.8,3.2-24.3,2.5c-8.7-1.1-17.3-2.5-26-4.2c-9.5-1.9-19-4.2-28.5-7
				c-4.2-1.3-3.6-7.6,0.9-7.8C1140.9,831.9,1150,829.7,1158.9,826.6L1158.9,826.6"/>
			<path id="path2466" class="st0" d="M1775.9,899.4h-93.2l0,0c-10.6-22.8-22.8-45-36.1-66.3c-12.9-20.3-25.6-40.8-42.1-58.3
				c-9.7-10.6-20.3-20.3-31.5-29.2c-5.3-4.2-0.6-11.6,5.5-10.8c18,2.5,35.9,4.2,54.1,5.3c13.7,0.8,27.3,1.1,41,1.1
				c3,0,5.9,0.8,7.6,3.4c5.7,9.1,11.4,18,17.1,27c13.3,21.1,26.2,42.3,39.1,63.6C1750.3,856.6,1763.2,877.9,1775.9,899.4
				L1775.9,899.4"/>
			<path id="path2468" class="st0" d="M1860.4,772.9c3.6-0.6,9.1,1.1,7.2,5.5l0,0l-14.8,32.7l0,0c-1.3,3-3.6,6.1-7.4,6.3
				c-5.3,0.2-10.8,0.6-16.3,0.8c-6.3,0.4-12.9,0.6-19.2,1.1c-3,0.2-5.9-2.1-4.7-5.1l0,0l13.1-28.9l0,0c1.7-4,5.3-7.2,9.7-7.8
				c4.9-0.8,9.9-1.7,14.8-2.3C1848.8,774.4,1854.5,773.6,1860.4,772.9L1860.4,772.9"/>
			<path id="path2470" class="st0" d="M1806.4,781.2c2.8-0.4,5.3,2.3,4,5.1l0,0l-13.1,29.2l0,0c-1.3,2.7-3.4,5.3-6.5,5.5
				c-7,0.4-14.2,1.1-21.1,1.7c-2.8,0.2-7.2-0.6-5.9-4.2c2.1-6.1,8.9-17.3,13.7-25.8c4-6.8,14.8-8.9,23.3-10.4
				C1802.6,781.8,1804.5,781.6,1806.4,781.2L1806.4,781.2"/>
			<path id="path2472" class="st0" d="M2629.9,899.5h-83.3l0,0c-0.2-2.5,0.4-5.3,1.7-7.4c7.6-12.3,14.4-25.4,19.9-38.7
				c7.6-18.4,13.3-37.6,16.7-57.3c4.6-27.5,4.4-55.4,0-82.8c-3.4-20.9-9.3-41.2-17.5-60.6c-1.3-2.7-5.5-3.8-6.8-0.6
				c-6.6,14.4-12.9,28.9-18.8,43.7c-10.6,26-19.9,52.6-28.7,79.2c-8.9,26.2-16.9,52.8-24.3,79.4c-1.7,6.1-6.8,10.8-13.1,11.2
				c-8.9,0.6-17.8,1.9-26.6,2.1c-9.9,0.2-19.9,0-29.8-1.1c-16.5-1.7-30-16.5-25.3-33.2c4.2-15.2,7.2-30.6,8.9-46.3
				c3-26.4,3.8-53.5-2.1-79.4c-4-17.7-10.8-34.4-18.8-50.7c-3.8-7.6-8-15.2-12.7-22.4c-1.3-1.9-4-2.5-5.5-0.4
				c-4,5.7-7.6,12-10.6,18.4c-7.6,16.3-10.4,34-12,51.8c-1.7,17.7-1.7,35.7,2.1,53c1.5,6.3,3.2,12.7,5.5,18.8
				c2.1,5.7-1,12.9-7.6,13.1c-11.4,0.4-22.8,0-34.2-1.1c-10.4-0.8-20.7-2.3-30.9-4.4c-5.1-1.1-11.8-2.7-12.3-8.9
				c-1.3-17.5-1.3-35.3,0-52.8c1.7-24.9,4.4-50.1,12.3-73.9c7.6-23.4,18.6-45.8,34-65.1c7.6-9.5,19-15,31.1-15.4
				c11.8-0.4,27.3-0.8,35.3,0c7.8,0.8,16.9,1.9,22,7.6c11.4,12.7,24.5,23.7,34.2,37.6c13.9,20.3,23.7,43.1,28.7,67.2
				c10.1-18.4,21.3-36.3,30.9-55.1c7-13.7,13.7-27.7,19.9-41.8c2.7-6.3,8.2-11.6,15.4-12.3c13.5-1.1,27.3-1.5,40.8-3.2
				c14.2-1.9,28.1-4.4,42-7.8c6.1-1.5,13.9-1.5,17.5,4.4c13.7,22.4,24.5,46.7,32.1,71.8c10.8,35.7,13.3,73.1,12,110.3
				c-1.1,34.4-4.4,69.1-16.5,101.4C2648.7,866.1,2640.2,883.2,2629.9,899.5L2629.9,899.5"/>
			<path id="path2474" class="st0" d="M2685.7,611.8c-6.8-11.8-13.9-23.4-22-34.2c-10.4-13.9-21.8-27-34.2-39.1
				c-4.4-4.4-3.6-13.3,3.6-13.5c15.2-0.6,30.4-0.6,45.4-2.3c18-1.9,35.7-4.6,53.2-9.3c11.6-3,19,0.6,15.9,12.3
				c-1.1,4-2.1,8.7,0,12.3c12.3,20.3,23.4,40.6,33,61.7c17.1,4.6,34.4,7.4,52.2,8.7c13.1,0.8,26.2,0,39.3,0c4.9,0,5.5,5.9,3.4,9.3
				c-7,10.4-15.2,24.3-22.6,37.6c-8.9,2.3-17.8,4-26.8,4.6c-8,0.6-16.3,0-24.3-0.4c7,25.6,11.6,51.8,13.9,78.2
				c7.2-15.4,14.8-30.6,22.6-45.8c12.7-24.5,25.4-48.8,40.6-71.8c12.5-18.8,24.7-37.6,40.3-53.9c27.3-28.1,60.2-49.9,96.8-63.6
				c8.7-3.4,18.2-4.4,27.5-3.2c10.6,1.5,21.1,2.5,31.9,3.2c11,0.6,22,0.8,33,0.6c10.6-0.2-0.2,7.4-3.6,9.1
				c-23.9,11.4-46.7,25.8-67.4,42.3c-32.3,25.8-57.7,58.3-81.3,91.9c-31.7,44.8-56.4,94.2-73.5,146.4c-2.5,7.4-9.5,12.3-17.1,12.9
				c-14.6,1.3-29.6,1.1-44.2,4.2c-19,4-37.4,10.8-54.5,20.3c-6.5,3.6-14.8-0.4-15.2-8c-1.3-23.2-4.4-46.5-9.3-69.3
				c-7.6-35.1-20.3-68.9-35.7-101c-3-0.8-5.9-1.5-8.9-2.3c-8.9-2.5-14.4-11.2-13.5-20.3l0,0L2685.7,611.8L2685.7,611.8"/>
			<path id="path2476" class="st0" d="M3429.3,899.4h-82.6l0,0c-21.3-23.9-35.5-53.2-50.3-81.6c-20.9-40.1-35.7-83-48.6-126.3
				c-9.7-32.1-17.5-64.9-23.4-98c-15.9,25.8-33.8,50.1-53.7,72.9c-24.7,28.3-52.6,53.5-82.4,76.3c-16.7,12.7-34,24.5-52,35.5
				c-7,4.2-15.2,4.9-23.2,5.1c-9.5,0.2-19.2,0.4-28.7,0.8c-11,0.4-22,1.3-33,1.9c-5.7,0.4-9.3-5.9-5.9-10.6
				c13.7-18.8,25.1-39.1,33.8-60.6c10.4-26,16.5-53.5,19-81.3c1.1-12,1.3-24.1,0.9-36.3c13.5-15.4,27.3-28.7,41-39.7
				c4.9-3.8,9.9-7.6,15-11.2c10.3,14.4,18.2,30.4,23.7,47.3c4.6,14.6,5.3,30,7.8,45l0,0l-10.4,12.3l0,0
				c34.4-25.4,63.4-57.5,84.9-94.4c9.7-16.5,16.3-34.6,24.3-52c2.1-4.6,7.4-5.5,12-5.3c15.9,0.8,31.5-0.6,46.9-4.2
				c15.2-3.6,28.7-11.4,43.3-17.3c4.2-1.7,9.9,0,10.4,5.1c5.9,64.4,17.3,128,33.8,190.6c6.5,25.1,13.5,50.1,21.8,74.4
				c19.9-3.2,39.7-5.5,59.6-7.2c-15.2-34.6-27.7-70.6-35.3-108c-8.9-43.7-17.7-89.6-2.7-132.9c4-11.6,9.7-22.6,16.7-32.5
				c4.6-6.6,13.5-6.1,20.5-4c20.5,6.1,41.8,11.6,63.2,8c4-0.6,7.8,1.3,9.9,4.6c8.7,14.2,17.5,28.5,30.4,39.3c3.6,3.2,3,9.3-1.9,10.6
				c-9.9,2.7-19.6,6.1-29.8,8c-12.3,2.3-24.7,3.6-37.2,3.8c0,22.4,2.1,44.6,6.6,66.6c7.2,35.3,23.9,67.4,37.8,100.1
				c4.9,11.2,9.7,22.4,15,33.6c46.3,1.3,92.3,6.1,137.8,14.4c38.9,7,77.3,16.5,114.9,28.5c6.1,1.9,12,4.6,15.8,9.9
				c3.6,5.1,7,10.4,9.9,15.8c3.4,6.3,5.7,12.9,8.7,19.4c2.1,4.4-3.6,6.3-7.2,5.3c-39.3-11.6-79.7-20.5-120.2-26.6
				c-44-6.6-88.3-9.9-132.9-11.8c5.3,10.1,10.6,19.9,16.1,29.8c3.2,5.7-1.9,11.8-8,11.8c-13.5-0.2-27.1-0.2-40.6-0.6
				c-12.5-0.4-24.7-1.1-37.2-1.9c-1.9-0.2-3.2-1.9-4-3.4c-7.4-12.3-14.8-24.7-21.6-37.4c-22.2,0.2-44.6,0.8-66.8,1.9
				c9.3,22.4,19.7,44.2,31.7,65.1C3411.1,872.2,3420,885.9,3429.3,899.4L3429.3,899.4"/>
			<path id="path2478" class="st0" d="M3885.6,571.8c-2.1-5.1-4.2-10.1-6.6-15c-2.1-4.4-5.3-12.9,2.1-13.3c11.4-0.6,23-0.2,34.2-2.3
				c15.8-3,31.1-8.5,45.2-16.5c7.4-4.2,15.8-1.7,23.2,1.1c31.7,11.8,65.7,13.7,99.3,15.4c63,3.2,125.7-6.8,188.7-5.5
				c31.3,0.6,63.2,1.5,92.6,13.3c20.7,8.4,15.6,34.9,0,46.3c-40.6,30-84.7,54.9-126.8,82.8c-72.3,48-140.7,101.6-198.6,166.5
				c-24.3,27.3-47.3,55.8-67.4,86.2c-12.7,19.2-23,39.7-34.2,70.6c-4.9,13.7-19.9,20.3-34,18.8c-8-0.8-16.3-0.8-24.3-2.3
				c-10.4-2.1-20.3-5.3-29.8-9.9c-9.7-4.9-15.2-16.5-9.9-26.4c13.1-24.9,24.5-50.9,34.2-77.3c20.7-56.8,35.9-115.8,37.4-176.4
				c0.9-29.2-0.2-58.5-5.5-87.3c-1.5-8.2-3.4-16.5-5.3-24.5c-22-0.8-43.5-2.7-65.3-5.3c-36.8-4.4-73.7-9.1-109.2-19.9
				c-31.3-9.5-61.7-22-90.4-37.4c-3.2,14.6-5.9,29.4-9.1,43.7c27.5,7.6,55.1,14.6,83,20.3c29.6,6.1,59.6,10.1,89.4,15.4
				c6.8,1.3,5.9,9.3,2.1,13.3c-6.6,7.2-16.7,15.6-25.4,23c-4.6,3.8-10.8,4.6-16.5,3.4c-32.5-7.4-72.7-16.7-97.2-23.2
				c-15.6-4.2-31.1-8.7-46.5-13.5c-3.6,10.6-7.4,21.1-11.6,31.5c28.5,2.5,56.6,6.1,84.5,11.8c28.1,5.7,56,12,82.8,22.2
				c19.4,7.4,38.2,16.3,56.2,26.4c3.8,2.1,5.7,7,3.4,11c-4,7-8.4,13.7-12,20.9c-2.8,5.5-5.5,11-7.8,16.7c-1.9,4.6-9.3,0.8-13.3-1.3
				c-21.8-11.4-44.2-21.6-67.2-29.8c-33-11.8-67.2-19.9-101.6-25.4c-35.3-5.7-71.2-8.2-106.9-7.6c-3.8,0-7.6-2.5-7.8-6.6
				c-0.2-6.1-0.8-12.5-1.1-18.8c-0.2-5.9-0.2-11.8,0-17.8c0.2-4.4,4.9-6.5,8.9-6.5c6.1,0.2,12.5,0.2,18.6,0.4
				c6.3-15.4,11.4-31.3,15.2-47.5c-6.1-2.3-12.3-4.6-18.4-7c-4.9-1.9-8-8.2-3.4-12l0,0l28.1-23.2l0,0c1.1-12.9,1.1-25.8,0.6-38.7
				c-0.6-16.7-2.5-33.2-5.5-49.7c-0.6-3.6,1.9-7,5.5-7.6c9.3-1.7,18.4-4,27.7-5.5c10.6-1.9,21.1-3.4,31.9-4.4
				c7.2-0.6,13.7,2.5,18.8,7.6c10.1,10.1,21.1,19.4,33,27.7c21.3,15,45.4,24.5,69.5,34.2C3788.9,555.3,3836.6,567.1,3885.6,571.8
				L3885.6,571.8"/>
			<path id="path2480" d="M3987.6,609.5c9.1,5.7,18.6,11,28.3,15.4c13.5,6.3,27.7,11.6,42,15.6c3.6,0.8,7.6,0.6,11-1.1l0,0
				l50.3-28.7l0,0c2.5-1.3,0-3.6-1.9-4c-13.3-2.7-26.6-5.1-39.5-9.3c-16.3-5.5-31.9-12.3-46.9-20.5c17.5,1.7,34.9,3,52.4,3.8
				c35.9,1.7,72.1-1.5,108-1.1c16.5,0.2,33.2,0.6,49.6,1.1c10.8,0.2,16.7,13.3,8.9,21.1c-13.1,13.1-27,25.4-41.8,36.3
				c-16.1,12-33.8,21.3-50.7,31.9c-49.6,31.1-107.8,67.4-143.5,101.6c-15.9,15.2-29.2,32.7-44.2,48.6c-9.7,10.4-19.6,20.7-29.8,30.8
				l0,0l29.8-35.3l0,0c9.1-30.2,15.2-61.3,18.8-92.8c2.5-23,4-46.3,3.2-69.5C3991.2,638.8,3989.7,624.3,3987.6,609.5L3987.6,609.5"
				/>
			<path id="path2482" class="st0" d="M4136.5,611.3c5.7,2.7,10.8,7.2,3.2,11.4l0,0l-40.8,22l0,0c-5.1,2.8-11,2.3-16.5,1.3
				c-2.5-0.4-4.9-0.8-7.4-1.5c-2.8-0.6-0.2-3,1.3-3.8l0,0l51.6-29.2l0,0C4130.6,610.1,4133.7,610.1,4136.5,611.3L4136.5,611.3"/>
			<path id="path2484" class="st0" d="M4223.1,727c31.7-13.9,62.5-28.9,93-45.4c26.6-14.4,52.6-29.8,78.2-46.1c4,3.2,8,6.3,11.8,9.7
				c3.4,3,6.5,6.1,9.9,9.1c11.8,10.4,6.6,27.5-3,37.8c-17.8,19.4-39.3,34.9-62.8,46.7c-13.3,6.8-27,12.5-41.4,16.9
				c-17.5,5.5-36.3,6.1-53.7,0c-11.8-4.2-22.2-11.4-32.1-18.8C4219.7,734.4,4218.8,728.9,4223.1,727L4223.1,727"/>
			<path id="path2486" class="st0" d="M4192.7,831.3c42.3-10.8,83-26.2,121.7-46.1c36.1-18.6,69.9-41,101.4-66.3
				c29.8-24.1,57.3-50.7,81.8-79.9c15.6-18.6,30-38.2,43.3-58.5c4.4-6.8,13.9-5.5,18.4,0.6l0,0l28.9,40.1l0,0
				c8.3,11.6,4.4,26-3.8,37c-43.9,58.5-121.9,116.4-176.4,149.4c-37.4,22.6-78.4,38.2-117.5,57.3c-17.3,8.4-37.4,8.2-55.8,3.4
				c-15.8-4.2-30.4-11.6-44.8-19.4C4182.1,844.6,4184.4,833.4,4192.7,831.3L4192.7,831.3"/>
		</g>
	</g>
</g>
</svg>
