<svg xmlns="http://www.w3.org/2000/svg" width="640pt" height="278pt" viewBox="0 0 640 278"><g fill="#fffefe" stroke="#fffefe" stroke-width=".09"><path d="M516.33 30.76c3.08-.79 6.42-1.96 9.54-.63 1.38.96 2.39 2.34 3.55 3.54 1.36 3.08 3.2 5.99 4.29 9.17.01 5.2.3 10.4 1.08 15.56-3.47 2.83-8.1 1.92-12.24 1.98-.55-5.64-.64-11.46-2.23-16.93l-2.68-.04c-1.92-3.93-.87-8.45-1.31-12.65z"/><path d="M501.75 31.66c3.54-.08 7.14-.93 10.61.21.57 3.8 1.12 7.61 1.22 11.46l-4.14.3c.07 3.09-.4 6.32.78 9.27.17 3.8.37 7.6.36 11.41 5.83 4.02 13.91-1.71 19.84 2.44 2.91 3.06 4.69 7.07 5.58 11.16 1.87 8.56 1.8 17.37 1.38 26.07-.69 3.34-2.59 6.3-4.07 9.34-1.76 3.44-6.31 2.86-9.5 3.87-.53-.98-1.26-1.91-1.29-3.06-.22-3.37-1.49-6.61-1.38-9.99.51-1.45 2.33-1.47 3.48-2.16.48-4.38.24-8.78.37-13.17a25.67 25.67 0 0 1-1.55-8.71c-5.5-.08-10.95 1.38-16.43.59-5.3-4.05-8.3-10.33-9.95-16.64-.39-7.46-2.48-15.37.7-22.51.8-2.16 1.24-4.42 1.86-6.64a33.5 33.5 0 0 0 2.13-3.24zM478.5 34.64a29.04 29.04 0 0 1 10.2-1.03c1.18 4.65.57 9.57 1.11 14.31.48 4.26-3.02 7.51-3.34 11.61-1.71-.33-3.4-.68-5.09-1.02 1.07-3.14 3.36-6.23 2.84-9.66l-3.5.56c-.39-4.98-1.99-9.78-2.22-14.77zM460.56 35.36c2.88.01 5.83-.32 8.67.28 1.54.14.91 2.12 1.09 3.11-.02 3.97-2.42 7.33-2.94 11.18-.78 5.12-3.18 9.86-3.42 15.08-.95 3.43-1.14 7.06-2.59 10.32-2.63-.09-5.26-.14-7.88-.17-.3-6.72-1.55-13.43-.83-20.15 1.96-4.58 1.37-10.55 5.45-14.1a70.28 70.28 0 0 1 2.45-5.55zM436.75 37.5c3.57-1.42 7.52-1.65 11.05.06-.08 2.3.14 4.59.97 6.75 1.84 8.12.12 16.57 1.79 24.73.24 6.03 2.12 11.91 1.63 17.98-.22 11.47 1.68 22.81 2.11 34.24l-2.54.67c-3.01 1.5-7.38 2.64-10.14.22-1.2-4.26-.32-8.77-1.27-13.08-.56-2.64-1.23-5.33-.86-8.05.49-4.39-1.34-8.75-.38-13.11-1.72-7.29-1.28-14.88-2.01-22.3-.77-4.87-.23-9.88-1.44-14.7a24.62 24.62 0 0 1 1.09-13.41zM415.88 38.47c3.89-.57 7.78-1.37 11.74-1.28.45 8.31-.94 16.54-1.06 24.84.03 6.31-1.18 12.57-.4 18.85-.96 4.31-.68 8.75-1.33 13.11-.48 2.67 1.04 5.33.09 7.96-.51 7.46.27 15.01-1.44 22.37-4.01.84-8.46 1.89-12.35.08.63-5.8-.42-11.61.94-17.35.52-10 .52-20.03 1.17-30.04.22-6.2-.14-12.45.89-18.59.78-6.63.8-13.34 1.75-19.95zM385.33 41.42c3.94-2.57 8.73-1.41 13.14-2 3.76 17.53 8.81 34.81 11.43 52.57-.06 10.67-1.22 21.3-1.43 31.97.01 2.3-2.32 1.67-3.82 1.7-2.41-7.4-4.57-14.91-4.48-22.77-1.62-3.04-1.49-6.54-2.29-9.81-.68-3.07-1.61-6.1-1.84-9.26l-1.77-.04 1.61.49c-.56 3.57-1.5 7.12-1.45 10.76.07 4.67.48 9.45-.78 14.01-1.01 3.45-.14 7.06-.69 10.56-.36 2.62-.9 5.21-1.41 7.8-3.42.34-6.86.49-10.3.33.02-9.12.3-18.24.6-27.35.25-4.15 1.07-8.27.73-12.43-.37-4.67 1.09-9.26.66-13.92-.32-2.4.85-4.61 1.1-6.94-.24-1.65-.98-3.26-.67-4.95 1.06-6.87.2-13.91 1.66-20.72zM355.66 42.98a55.28 55.28 0 0 1 12.81-1.54c2.93 4.26 2.42 9.77 3.38 14.64 3.21 13.22 6.37 26.49 8.31 39.96-.37 6.32-.26 12.68-1.18 18.95-.49 4.29.46 8.73-.81 12.93-2.79.37-3.77-2.78-4.48-4.85-1.25-5.6-3.82-10.83-4.45-16.57-1.74-5.09-1.54-10.6-3.47-15.63-.33-8.19-4.23-15.68-4.59-23.86-1.65-1.95-1.45-4.56-1.75-6.93-.51-1.42-1.62-2.6-1.8-4.13-.61-4.34-2.12-8.54-1.97-12.97zM327.58 43.54c3.67-.34 7.5-.6 10.92 1.06l.08 3.83c.73-1.22.9-2.62 1.03-4 1.51-.06 3.02-.11 4.54-.13 1.24 2.87 2.87 5.65 3.29 8.8.81 6.13 3.62 11.83 4.08 18.03.08 2.77 1.27 5.29 2.06 7.9 2.06 8.95 5.39 17.66 6.07 26.89 2.74 6.77 2.7 14.34 5.09 21.29-3.9 2.19-8.48 2.32-12.83 2.02-1.64-3.54-2.17-7.51-4.21-10.87-3.04.04-6.07.23-9.1.17-2.26-4.07-.92-8.78.08-13.01 1.82-.87 3.84-.93 5.82-1.12-.94-8.01-4.62-15.42-5.39-23.48-1.45-5.98 1.17-12.08-.49-18.02-.36-2.01-.32-4.06-.53-6.09-1.52 5.98-.79 12.09-1.45 18.16.33 6.35-.31 12.7 0 19.05.36 6.01-.73 12.02-.15 18.03.43 5.44-.96 10.77-1.39 16.15-.18 1.26-.36 2.62-1.21 3.63-3.96.75-8.03 1.12-12.04.54l-1.07-3.24c1.08-6.65.73-13.38 1.18-20.08.58-9.35.1-18.73.79-28.07 1.62-7.97-1.21-16 .23-23.97.81-3.68-.35-7.74 1.81-11.07.94-.79 1.87-1.59 2.79-2.4zM296.2 49.85c2.42-4.5 8.21-2.23 12.26-2.11.06 9.81 1.46 19.55 2.37 29.3 1.16 4.63.39 9.36.33 14.04.86 4.27 1.62 8.57 1.32 12.95-.46 4.72 1.23 9.27 1.29 13.96.1 5.09 2.02 10.19.5 15.24-3.41.55-6.8 1.36-10.27 1.32-.82-.93-2.74-1.17-2.68-2.66-1.35-13.65-.98-27.4-2.52-41.04-.86-6.46.05-13.11-1.95-19.4-.72-7.17-.49-14.41-.65-21.6zM273.71 50.72c2.81-1.05 5.82-1.4 8.68-2.29 2.76 2.95 1.36 7.17 2.81 10.65 1.22 7.82.47 15.9 2.23 23.68 2.66.37 5.34.58 8.03.7 1.44 3.89 1.42 8.09 1.3 12.18-2.9 1.43-7.22-.59-9.31 2.14.48 5.8.68 11.62 1.7 17.35a81.1 81.1 0 0 0 1.61 13.46l-.2 1.68c-4.37.71-8.76 1.27-13.14 1.94.03-4.05-.44-8.05-.99-12.05.53-12.46-2.27-24.75-2.26-37.19-1.62-6.51-1.16-13.31-1.54-19.96.02-4.12-.71-8.42 1.08-12.29zM229.64 52.22c3.79-1.11 8.56-2.38 11.85.6-2.65 6.87-2.66 14.39-5.31 21.26-1.81 5.12-2.23 10.6-4.12 15.67-3.94-2.5-4.74-7.43-6.56-11.38-.97-2.66-3.21-5.34-1.97-8.32.78-4.13 2.96-7.89 3.29-12.11.65-2.03 1.9-3.8 2.82-5.72zM198.49 55.51c3.94-.44 7.73-1.72 11.7-1.92 2.3 5.69 6.51 10.41 8.33 16.31 2.22 6.05 6.87 11.01 8.28 17.38 1.99 1.7 2.54 4.25 2.94 6.71 3.01 4.5 1.45 10.04 2.41 15.02.68 9.42 2.31 18.74 3.32 28.13-3.21 2.23-7.34 2.09-11.08 2.29-2.28-.01-2.37-2.69-2.95-4.29-2.38-10.73-.95-21.87-2.64-32.69-.72-3.9-.18-8.21-2.76-11.55-3.13-3.56-3.99-8.42-7.02-12.06-1.34-2.93-2.13-6.15-4.11-8.76-3.23-4.3-4.53-9.61-6.42-14.57zM179.78 56.73a20.5 20.5 0 0 1 11.74-.26c1.69 11.13 1.97 22.41 3.01 33.62 1.2 17.39 4.9 34.64 4.05 52.14-3.6.19-7.22.7-10.82.26a117.9 117.9 0 0 1-6.7-16.39c-3.43-6.18-6.28-12.93-6.21-20.12-.15-15.03-2.89-29.85-3.59-44.83 2.59 1.66 2.87 4.83 3.89 7.48 1.9 8.87 3.76 17.81 6.94 26.33l1.26.98a188.33 188.33 0 0 1-2.01-18.96c-1.38-6.65-2.87-13.45-1.56-20.25zM156.33 57.71c3.92-.38 7.87-.32 11.8-.1.69 8.08.47 16.22 1.56 24.27 1.54 10.31 2.08 20.72 3.13 31.09.83 8.66 2.16 17.26 2.89 25.93-4.36.7-8.78.53-13.18.65-.54-6.5-.86-13-.98-19.52.14-4.07-1.35-7.99-.77-12.06-1.33-7.6-1.38-15.39-2.81-23a208.67 208.67 0 0 1-1.64-27.26zM130.05 60.79c2.46-.14 4.92-.13 7.39-.18 2.93 3.41 4.63 7.62 6.47 11.67 2.09 4.95 1.44 10.43 2.59 15.59 1.68 7.63.53 15.5 1.98 23.17 0 7.57 2.99 14.9 1.81 22.49a45.72 45.72 0 0 1-3.06 7.99l-1.64 3.1c-3.71.03-7.42.03-11.13-.06l-.14-2.65c-.12-2.38-.47-4.73-.76-7.09 1.33-.27 2.67-.53 4.01-.78-1.86-9.59-.66-19.53-3.29-29 .22-9.15-2.25-18.13-2.13-27.27l-.94-2.33c-1.22-.07-2.44-.12-3.66-.17-.32-4.42-1.48-8.87-.92-13.3 1.17-.31 2.31-.7 3.42-1.18zM112.54 64.2c3.06-2.84 7.87-2.54 11.67-1.64.02 4.26.66 8.5.46 12.76-1.04.31-2.09.64-3.12.98a85.93 85.93 0 0 1-1.64 5.75c1.28 4.15.8 8.57 1.57 12.82 1.33 7.27 1.34 14.68 2.26 21.99.84 3.91.13 8.02 1.39 11.86.63 2.3.82 4.69 1.09 7.06 1.47.04 2.95.1 4.43.17.06 2.08.08 4.17.06 6.26v3.02c-2.79.11-5.59.37-8.23 1.34l-.8.25c-3.93-3.67-7.41-8.21-8.09-13.71-.85-10.07-2.46-20.06-3.87-30.06-.06-4.02-.53-8-1.2-11.95-.2-5.06-.36-10.12-1.07-15.14 1.04-4.12 4.22-7.51 5.09-11.76zM88.91 65.83c3.51-2.25 7.61.63 11.3-1.33.75 3.88.07 7.9 1.14 11.74l-.79 1.28c-3.58.45-7.42 1.48-10.91.08-.87-1.68-1.84-3.3-2.78-4.94-1.04 6.82 1.12 13.52.97 20.33.01 3.75 1.73 7.28 1.42 11.06-.68 7.1 2.53 13.87 1.92 20.99.98 8.79.5 17.71 2.11 26.45-3.73.7-8.91 3.55-12.04.22-.92-4.14-.32-8.45-.63-12.66a905.33 905.33 0 0 1-3.36-28.94c.98-5.81-1.72-11.32-1.48-17.12.21-3.97-.81-7.82-1.32-11.73-3.43-2.89-8.64 1.12-11.69-1.97-1.14-3.83-1.88-8.28.45-11.83 3.72-.18 7.51.02 11.17-.84 3.7-.74 7.65-1.36 11.31-.12.54 1.7-.06 4.49 2.43 4.68.19-1.78-.35-3.8.78-5.35zM453.32 78.54c2.92-.46 5.87-.93 8.85-.73 3.89 8.64 6.51 17.79 10.75 26.28 2.78 4.88 4.07 10.42 5.59 15.78a39.27 39.27 0 0 1-11.85 1.59c-3.4-2.01-3.53-6.17-5.13-9.39-1.7-3.41-3.35-6.85-5.09-10.24-1.73-4.79-2.2-9.92-2.54-14.97a32.3 32.3 0 0 1-.58-8.32z"/><path d="M500.95 90.97c.22-3.21 3.93-2.57 6.13-3.29 1.79-.66 3.61-.1 5.37.38 1.33 5.11.74 10.54 2.41 15.55a11.3 11.3 0 0 1 4.01-1.11c.25 1.97 1.63 3.55 1.91 5.49-.26 3.19-.75 6.37-1.07 9.56-3.13 1.44-6.64.67-9.95.83-4.22-4.04-6.9-9.73-8.07-15.42-.1-4.01-.23-8-.74-11.99zM584.04 135.95c3.67-3.56 6.36-8.03 9.59-12-.07 5.76-.52 11.49-.9 17.23 3.61 3.77 9.43 4.45 13.43 7.88a184.45 184.45 0 0 0-15.53 7.94c-.75 6.85-3.32 13.65-1.78 20.59.32 2.42.75 4.85.62 7.3-1.32 3.19-3.46 6.68-7.12 7.39-4.6.85-9.28 1.16-13.94 1.57-2.84-20.74-4.64-41.62-7.2-62.39 5.05-.65 10.12-1.84 15.23-1.58 3.59.39 5.6 3.46 7.6 6.07m2.38.61c-.83 1.37-2.09 2.72-1.92 4.43 1.28 7.73 1.8 15.57 2.85 23.33.37-3.25.83-6.49 1.1-9.74 4.59-1.52 9.05-3.49 13.79-4.51l.6-1.88c-4.46-1.11-8.9-2.28-13.25-3.71.98-5.73 2.37-11.4 2.98-17.19-2.51 2.78-3.91 6.3-6.15 9.27m-14.23 2.85c.72 14.85 3.19 29.57 4.57 44.38 1.63-.12 3.76-.74 3.53-2.83-.18-6.66-1.7-13.2-2-19.85-1.11-7.16-1.24-14.47-2.95-21.53l-3.15-.17zM545.23 134.45l7.31-.12c1.32 15.88 2.61 31.76 3.28 47.67.72 5.04.95 10.13.91 15.22-3.49-.19-7.73 1.27-10.79-.12-2.04-10.87-5.19-21.51-7.3-32.37-.17 2.74-.15 5.5.22 8.23.88 5.64.37 11.39 1.1 17.05.38 2.76.54 5.55.64 8.34a340 340 0 0 0-7.14.11c-1.14-5.76-1.03-11.63-1.65-17.44-.72-9-1.9-17.97-2.31-26.99.71-5.12-2.79-10.18-.15-15.08l-1.3-3.52c3.37.12 6.75-.07 10.13-.08 2.16 10.72 6.18 20.99 8.41 31.71.48-10.92-1.53-21.71-1.36-32.61zM474.23 139.31c3.06-.63 6.15-1.12 9.21-1.79 2.32 11.1 3.75 22.4 5.77 33.57 1.2 6.44 1.46 13.15 3.36 19.4a47.2 47.2 0 0 1 8.86-1.19c.52 3.02 1.04 6.04 1.24 9.1-6 1.52-12.19 1.91-18.22 3.25-3.85-20.7-6.36-41.64-10.22-62.34zM446.54 142.62c8.27-.7 16.67-.61 24.78-2.6.18 2.7.36 5.4.52 8.11-2.94 3.84-7.93 3.42-12.23 3.68.47 4.85 1.07 9.68 1.17 14.56 2.59-.14 5.17-.41 7.74-.77.83 3.6 1.13 7.29 1.23 10.98-2.54.12-5.08.25-7.62.46.23 4.29.14 8.6.7 12.86.16 1.17.35 2.33.56 3.49 3.76-.21 7.53-.4 11.25-1.06.58 3.91.77 7.86.83 11.82-8-.02-15.91 1.26-23.89 1.49-1.43-21.03-3.36-42.02-5.04-63.02zM292.23 142.41c2.44-.26 4.88-.55 7.32-.86l.51 2.58c1.21 9 3.92 17.83 3.58 27 .47 7.79 1.24 15.56 2.01 23.33-3.18.09-6.36.21-9.54.32-3.74-8.72-7.48-17.43-11.4-26.07 1.23 8.97 1.33 18.07 2.94 26.99-2.97.6-5.98.89-9 .97-1.54-14.39-3.02-28.81-3.52-43.28-4.9 5.74-7.19 13.15-10.45 19.85 3.51 5.7 7.08 11.49 11.34 16.68a206.25 206.25 0 0 1-17.24-3.3l-1.72 1.37c-1.8 6.58-5.46 12.44-8.53 18.48-.09-7.34-.49-14.65-.92-21.97-5.81-1.54-11.8-2.18-17.59-3.74 5.46-3.5 11.11-6.74 16.39-10.52l.69-1.14c-.55-7.98-.67-15.98-1.29-23.96 2.79 6.6 7.91 11.81 11.74 17.8 5.94-3.11 11.38-7.08 17.13-10.53-.17-2.9-.15-5.8-.27-8.69 2.89-.15 5.78-.26 8.68-.28 1.23 3.41 2.81 6.68 4.36 9.95 2.34 4.97 4.04 10.26 6.98 14.94-.71-8.64-1.66-17.27-2.2-25.92zM500.65 147.67c6.28-5.2 16.2-6.04 22.97-1.31a470.5 470.5 0 0 1 1.17 30.27c-2.03.11-4.29.5-5.65-1.4-3.94 3.89-9.97 4.12-15.03 2.75-4.83-1.53-7.25-7.5-5.08-12 3.45-5.12 9.44-7.38 14.76-10-.07-1.5-.15-2.99-.24-4.49l-3.07.1c-.06 1.23-.1 2.46-.13 3.69-3.96.41-7.87 1.26-11.86 1.31-.15-3.09-.56-6.73 2.16-8.92m9.88 17.75l.07 5c1.65.25 3.32.27 4.99.09-.03-2.55-.16-5.09-.36-7.63a9.64 9.64 0 0 0-4.7 2.54zM398.37 149.43c3.75-5.55 12.85-6.17 17.13-.92 1.4 1.09 1.04 2.92 1.06 4.46-.18 3.63.77 7.16 1.22 10.74a42.8 42.8 0 0 1-6.22 1.15c-1.01-3.84-.65-8.28-3.39-11.45l-2.83 1.32c-.67 9.26 6.76 16.13 12.01 22.83 3.58 3.49 2.79 8.82 3.38 13.32.79 5.11 1.44 10.24 1.89 15.39-4.81 3.91-12.76 3.86-16.83-1.08-3.78-3.91-3.28-9.73-4.49-14.66 2.98-.63 5.96-1.28 8.93-1.99.37 3.69.43 7.64 2.21 10.99 1.29.42 2.65.21 3.99.18 2-4.05-.73-8.16-2.81-11.53-6.05-8.5-14.4-15.9-17.1-26.33-.52-4.13-1.02-8.99 1.85-12.42zM353.25 150.51c2.73-.25 5.44-.74 8.16-1.13-.28 4.55.15 9.08.71 13.59.73 16.52 1.46 33.04 2.34 49.56a27.47 27.47 0 0 1-7.78 1.32c-2.16-8.69-4.62-17.32-6.93-25.96-.86 9.2 1.36 18.32.87 27.53-2.57.07-5.19 1.05-7.72.62-5.92-20.19-11.89-40.39-17.74-60.61 3.06-.82 6.2-1.18 9.36-1.34 2.71 9.96 5.45 19.91 7.88 29.94.04-10.53-1.76-20.97-2.02-31.49 2.09-.17 4.18-.32 6.27-.46 2.7 10.02 5.59 20.01 7.72 30.17.33-10.6-1.19-21.14-1.12-31.74zM152.27 153.29c6.14.12 12.29-.02 18.43.17 3.99.06 7.61 2 10.77 4.28-.48 6.71 1.8 13.21 1.08 19.92l-3.15-.41c-1.09 5.36 3.53 9.41 3.12 14.63-.1 6.14 2.43 11.97 2.19 18.12-.28 5.2 1.12 10.25 1.77 15.37-4.55-.56-9.62.88-13.85-.75-2.6-8.63-.73-17.86-1.29-26.74-1.32-1.34-2.88-2.38-4.85-2.32-.39 1.44-.8 2.9-.74 4.42.06 8.24-.02 16.49-.05 24.73-4.75 0-9.52.22-14.26-.24.31-17.15.29-34.31.38-51.47.46-6.56.37-13.14.45-19.71m13.76 12.87c-.23 1.94-.18 3.9.04 5.85.53 4.21-.9 8.47.3 12.62l4.09-.35c1.32-5.04.71-10.28.81-15.41l-1-2.57-4.24-.14m13.66 23.83c-.99 1.3 1.31 2.72 2.2 1.48 1.03-1.39-1.3-2.94-2.2-1.48zM372.41 154.52c3.56-.77 7.13-1.5 10.69-2.24 4.49 14.81 12.24 28.68 14.45 44.14-2.6.66-5.23 1.24-7.91 1.49-.6-2.2-1.26-4.37-2.06-6.5l-4.11.45c.06 2.55.38 5.09.93 7.58a69.17 69.17 0 0 1-8.05 1.52 1895.43 1895.43 0 0 1-3.94-46.44m10.16 29.3l2.99-.65c-1.64-4.01-2.47-8.27-3.93-12.34-.36 4.36.32 8.69.94 12.99z"/><path d="M209.32 163.97c-.07-9.38 11.81-13.19 19.22-9.65 2.9 1.38 6.1 4.53 4.98 8.04-1.25 3.74-3.17 7.22-4.52 10.93l-3.58.22c-.62-3.81-1.09-7.63-1.62-11.45a302 302 0 0 0-4.33.44c.47 2.46.89 4.94 1.05 7.45.69 9.27 2.32 18.43 3.19 27.67l3.88-.07c.02-3.96-.73-7.86-1.07-11.79l2.05-.32a76.48 76.48 0 0 0 5.24 5.26c1.91 2.26 3.41 4.83 4.91 7.39l-1.74 2.34c-2.15 2.54-4.64 5.05-7.97 5.88-6.52 1.77-15.36-1.76-16.09-9.17-1.21-11.06-2.58-22.1-3.6-33.17zM185.16 158.06c4.48-.46 8.98-.25 13.47-.62 1.01 4.2.89 8.55 1.57 12.81l-.93.99c-4.49.33-8.95.96-13.45 1.16-.02-4.79-.54-9.56-.66-14.34zM425.41 161.66a24.33 24.33 0 0 1 6.16-2.75c.22 2.67.53 5.34.84 8l5.1-.37c.1 1.94.14 3.88.13 5.83l-4.24.12c.1 3.22.24 6.45.83 9.63 1.24 7.18.98 14.83 4.55 21.41-2.07.41-4.15.77-6.24 1.05-5.07-9.55-3.38-20.86-6.05-31.07l-4.13.22-.19-5.3 4.25-.23c-.31-2.19-.66-4.36-1.01-6.54zM105.56 164.74c4.65-.17 9.25-.86 13.86-1.35.32 5.62 1.86 11.11 2.24 16.74 1.21 7.29 2.66 14.55 3.21 21.92.3 4.54 1.79 9.02.95 13.59l1.93-1.89c-.69-3.59-1.66-7.14-2-10.78.68-6.99 1.93-13.95 1.87-21 .08-4.05-.29-8.11.12-12.15 4.63-5.61 14.06-5.15 18.97-.04.01 5.68-.17 11.35-.14 17.03-4.7.86-9.49.93-14.21 1.61.49 4.49-.72 9.99 2.84 13.5 2.96 1.9 6.81.52 9.16-1.79.02-2.35.05-4.7.05-7.05l1.36.03c0 4.77-.19 9.55-.33 14.32a20.12 20.12 0 0 1-10.3 1.11c-3.02-.4-5.16-2.83-7.43-4.6-.13 3.95-.16 7.95.77 11.82-4.24.24-8.47.73-12.72.88a709.99 709.99 0 0 0-3.49-32.85c-.85 11.25-2.72 22.42-2.97 33.71-2.43.11-4.86.2-7.28.27-2.73-10.45-6.31-20.67-8.5-31.25-.38 10.86 1.88 21.58 2.32 32.42-2.7.24-5.41.39-8.12.52l-.03 3.9c-3.29.18-6.58.36-9.87.44-.32-2.56-.77-5.1-1.32-7.62l-4.88.53c-.03 2.69-.04 5.37 0 8.06-3.02.58-6.08.94-9.15 1.12.26-7.3-.1-14.62.62-21.9.26-10.44.07-20.89.35-31.33 4.11-.17 8.19-.68 12.25-1.34 3.63 15.48 7.82 30.83 11.72 46.24.54-7.2-.98-14.32-1.09-21.5-.36-9.8-1.33-19.56-1.74-29.34 4.28-.17 8.58-.35 12.79-1.24a538.55 538.55 0 0 1 5.84 22.68c1.75-7.67 1.83-15.6 2.35-23.42m28.29 7.8c-.77 1.1-1.55 2.19-2.34 3.28-.02 2.68.05 5.35.18 8.03 3.97-.05 7.93-.24 11.87-.6a62.01 62.01 0 0 0-1.24-8.58c-.71-.73-1.41-1.48-2.1-2.22a28.87 28.87 0 0 0-6.37.09m-62.14 19.35c-.37 5.19-.22 10.4-.21 15.6l3.13-.21a103.61 103.61 0 0 0-2.92-15.39zM368.5 174.95c.93 4.66 1.52 9.38 2.95 13.94 1.27 7.28 2.31 14.62 4.21 21.78-1.69.38-3.37.75-5.05 1.09-.43-12.29-1.61-24.54-2.11-36.81zM188.24 178.36c4.46.01 8.91-.34 13.32-.97 1.36 2.72.64 5.86 1.21 8.76 1.01 5.52.46 11.17 1.35 16.7.56 3.88.55 7.8.67 11.7-4.73-.22-9.37.87-14.08.96-.41-12.41-2.04-24.73-2.47-37.15zM504.18 186.89c6.8-.4 13.54-1.7 20.38-1.4-6.5 2.47-13.48 3.35-20.17 5.2l-.21-3.8zM477.3 192.18l2.23.48c.5 3.18 1.15 6.39.82 9.63l-.37 1.92c-1.48-3.87-1.91-8-2.68-12.03z"/></g><path fill="#080808" stroke="#080808" stroke-width=".09" d="M464.05 19.65c27.73.05 55.47-.86 83.19-.02.54 1.19-.06 3.85 1.82 3.94 14.68.29 29.4-.55 44.06.23 7.03 1.35 14.15 1.61 21.28 1.87l2-2.71c1.74.47 3 1.66 3.79 3.26 2.9.64 5.92.64 8.84 1.19-.65 2.17-3.36 1.05-5 1.44-1.19.33-2.38.64-3.57.9.42 4.42-.32 8.94 1.24 13.19.11 13.64-.47 27.32.11 40.97.12 2.7.16 5.5-.95 8.03-.62 5.28-.06 10.65-.97 15.9.83 6 .43 12.07.49 18.11-.21 7.68.15 15.35.21 23.02.34 8.64-.59 17.28-.21 25.92 1.36 5.08 2.21 10.51.87 15.7-.82 2.78-.76 5.7-1 8.57-1.43 3.1-2.19 6.92-5.76 8.28l4.03.35-.13 4.41-3.1 1.91-.08 2.89c-1.17 2.21-1.66 5.22-4.48 5.88a29.05 29.05 0 0 1-.37-7.73c-21.71 3.47-43.45 6.8-65.4 8.39-5.48.58-10.48-2.6-15.97-1.9a1121.24 1121.24 0 0 1-44.83 3.91c-4.31 1.21-8.8.35-13.12 1.39-8.59 1.72-17.36 2.18-26.08 2.68-6.66 1.2-13.48.61-20.12 1.87-7.28.55-14.44 1.83-21.73 2.24-4.74 1.17-9.73 1.58-14.39-.15-.64-1.89-2.95-1.28-4.43-1.34-4.05.57-8.13.64-12.2.7-4.7.91-9.56.14-14.22 1.36-13.48 1.45-26.98 2.65-40.44 4.32-2.22.34-4.46.23-6.65-.14-1.79-2.69-5.27-1.58-7.95-1.51-4.27.68-8.6.71-12.89 1.18-12.87 2.22-25.96 2.65-38.99 3.08-4.39.81-8.89 1.15-13.15 2.5-9.4 2.68-19.25 2.58-28.87 3.75-7.38.28-14.74.96-22.07 1.79-8.03.11-15.98 1.41-23.97 2.07-20.22 3.37-40.35 7.53-60.78 9.51-2.94.33-5.77-.73-8.58-1.39-.02-1.03 1.33-2.25.45-3.17-14.08.17-28.02 2.34-42 3.79-2.66.49-6.16-.66-7.97 1.94l2.11 2.2c-1.99.27-3.99.32-5.99.41l.66-1.23-1.32.17.19-1.12c-1.89 1.24-2.96-.94-4.15-1.9 0-1.23-.02-2.47-.04-3.7l-1.76.47c-.62 3.82-.4 7.69-.53 11.54-2.57-3.01-2.6-7.12-2.87-10.85-1.98-.66-3.65-1.92-5.27-3.2a20.14 20.14 0 0 1 4.62-3.82c-.04-3.8-5-3.13-7.16-5.32-2.18-13.11-2.56-26.45-3.52-39.68a650.1 650.1 0 0 1-1.2-42.11c-.53-1.98 1.5-2.37 2.94-2.32-.08-3.48-.59-6.92-1.03-10.37-.05-13.76-2.13-27.4-2.57-41.15-.48-8.67-.31-17.37-.48-26.06-.5-9.01-.08-18.05.5-27.05-.32-3.42-.73-6.88.33-10.24.99.39 1.99.77 2.99 1.14.33.65.65 1.32.97 1.98.27-1.74-.22-4.03 1.4-5.2 1.98-.75 4.15-.31 6.22-.42 37.67-1.49 75.32-3.25 112.92-5.88 8.02.04 15.99-.77 23.98-1.46 11.07-.27 22.04-1.82 33.14-1.59 6.33.35 12.61-.88 18.95-.58 26.44-1.08 52.79-3.47 79.12-6.01 8.66-.31 17.28-1.23 25.91-1.88 5.03.07 9.98-1.43 15.02-.59 4.77-1.78 9.97-1.38 14.96-1.89 6.32-.09 12.73 1 18.97-.56 5.44-2.07 11.36-1.05 17.02-1.69 8.92-1.08 17.94-.22 26.85-1.34 16.05-.61 32.15.21 48.16-1.07m52.28 11.11c.44 4.2-.61 8.72 1.31 12.65l2.68.04c1.59 5.47 1.68 11.29 2.23 16.93 4.14-.06 8.77.85 12.24-1.98a105.33 105.33 0 0 1-1.08-15.56c-1.09-3.18-2.93-6.09-4.29-9.17-1.16-1.2-2.17-2.58-3.55-3.54-3.12-1.33-6.46-.16-9.54.63m-14.58.9a33.5 33.5 0 0 1-2.13 3.24c-.62 2.22-1.06 4.48-1.86 6.64-3.18 7.14-1.09 15.05-.7 22.51 1.65 6.31 4.65 12.59 9.95 16.64 5.48.79 10.93-.67 16.43-.59-.03 2.98.57 5.9 1.55 8.71-.13 4.39.11 8.79-.37 13.17-1.15.69-2.97.71-3.48 2.16-.11 3.38 1.16 6.62 1.38 9.99.03 1.15.76 2.08 1.29 3.06 3.19-1.01 7.74-.43 9.5-3.87 1.48-3.04 3.38-6 4.07-9.34.42-8.7.49-17.51-1.38-26.07-.89-4.09-2.67-8.1-5.58-11.16-5.93-4.15-14.01 1.58-19.84-2.44.01-3.81-.19-7.61-.36-11.41-1.18-2.95-.71-6.18-.78-9.27l4.14-.3c-.1-3.85-.65-7.66-1.22-11.46-3.47-1.14-7.07-.29-10.61-.21m-23.25 2.98c.23 4.99 1.83 9.79 2.22 14.77l3.5-.56c.52 3.43-1.77 6.52-2.84 9.66 1.69.34 3.38.69 5.09 1.02.32-4.1 3.82-7.35 3.34-11.61-.54-4.74.07-9.66-1.11-14.31-3.44-.35-6.88.17-10.2 1.03m-17.94.72a70.28 70.28 0 0 0-2.45 5.55c-4.08 3.55-3.49 9.52-5.45 14.1-.72 6.72.53 13.43.83 20.15 2.62.03 5.25.08 7.88.17 1.45-3.26 1.64-6.89 2.59-10.32.24-5.22 2.64-9.96 3.42-15.08.52-3.85 2.92-7.21 2.94-11.18-.18-.99.45-2.97-1.09-3.11-2.84-.6-5.79-.27-8.67-.28m-23.81 2.14a24.62 24.62 0 0 0-1.09 13.41c1.21 4.82.67 9.83 1.44 14.7.73 7.42.29 15.01 2.01 22.3-.96 4.36.87 8.72.38 13.11-.37 2.72.3 5.41.86 8.05.95 4.31.07 8.82 1.27 13.08 2.76 2.42 7.13 1.28 10.14-.22l2.54-.67c-.43-11.43-2.33-22.77-2.11-34.24.49-6.07-1.39-11.95-1.63-17.98-1.67-8.16.05-16.61-1.79-24.73a17.01 17.01 0 0 1-.97-6.75c-3.53-1.71-7.48-1.48-11.05-.06m-20.87.97c-.95 6.61-.97 13.32-1.75 19.95-1.03 6.14-.67 12.39-.89 18.59-.65 10.01-.65 20.04-1.17 30.04-1.36 5.74-.31 11.55-.94 17.35 3.89 1.81 8.34.76 12.35-.08 1.71-7.36.93-14.91 1.44-22.37.95-2.63-.57-5.29-.09-7.96.65-4.36.37-8.8 1.33-13.11-.78-6.28.43-12.54.4-18.85.12-8.3 1.51-16.53 1.06-24.84-3.96-.09-7.85.71-11.74 1.28m-30.55 2.95c-1.46 6.81-.6 13.85-1.66 20.72-.31 1.69.43 3.3.67 4.95-.25 2.33-1.42 4.54-1.1 6.94.43 4.66-1.03 9.25-.66 13.92.34 4.16-.48 8.28-.73 12.43a890.5 890.5 0 0 0-.6 27.35c3.44.16 6.88.01 10.3-.33.51-2.59 1.05-5.18 1.41-7.8.55-3.5-.32-7.11.69-10.56 1.26-4.56.85-9.34.78-14.01-.05-3.64.89-7.19 1.45-10.76l-1.61-.49 1.77.04c.23 3.16 1.16 6.19 1.84 9.26.8 3.27.67 6.77 2.29 9.81-.09 7.86 2.07 15.37 4.48 22.77 1.5-.03 3.83.6 3.82-1.7.21-10.67 1.37-21.3 1.43-31.97-2.62-17.76-7.67-35.04-11.43-52.57-4.41.59-9.2-.57-13.14 2m-29.67 1.56c-.15 4.43 1.36 8.63 1.97 12.97.18 1.53 1.29 2.71 1.8 4.13.3 2.37.1 4.98 1.75 6.93.36 8.18 4.26 15.67 4.59 23.86 1.93 5.03 1.73 10.54 3.47 15.63.63 5.74 3.2 10.97 4.45 16.57.71 2.07 1.69 5.22 4.48 4.85 1.27-4.2.32-8.64.81-12.93.92-6.27.81-12.63 1.18-18.95-1.94-13.47-5.1-26.74-8.31-39.96-.96-4.87-.45-10.38-3.38-14.64-4.32.01-8.61.53-12.81 1.54m-28.08.56c-.92.81-1.85 1.61-2.79 2.4-2.16 3.33-1 7.39-1.81 11.07-1.44 7.97 1.39 16-.23 23.97-.69 9.34-.21 18.72-.79 28.07-.45 6.7-.1 13.43-1.18 20.08l1.07 3.24c4.01.58 8.08.21 12.04-.54.85-1.01 1.03-2.37 1.21-3.63.43-5.38 1.82-10.71 1.39-16.15-.58-6.01.51-12.02.15-18.03-.31-6.35.33-12.7 0-19.05.66-6.07-.07-12.18 1.45-18.16.21 2.03.17 4.08.53 6.09 1.66 5.94-.96 12.04.49 18.02.77 8.06 4.45 15.47 5.39 23.48-1.98.19-4 .25-5.82 1.12-1 4.23-2.34 8.94-.08 13.01 3.03.06 6.06-.13 9.1-.17 2.04 3.36 2.57 7.33 4.21 10.87 4.35.3 8.93.17 12.83-2.02-2.39-6.95-2.35-14.52-5.09-21.29-.68-9.23-4.01-17.94-6.07-26.89-.79-2.61-1.98-5.13-2.06-7.9-.46-6.2-3.27-11.9-4.08-18.03-.42-3.15-2.05-5.93-3.29-8.8-1.52.02-3.03.07-4.54.13-.13 1.38-.3 2.78-1.03 4l-.08-3.83c-3.42-1.66-7.25-1.4-10.92-1.06m-31.38 6.31c.16 7.19-.07 14.43.65 21.6 2 6.29 1.09 12.94 1.95 19.4 1.54 13.64 1.17 27.39 2.52 41.04-.06 1.49 1.86 1.73 2.68 2.66 3.47.04 6.86-.77 10.27-1.32 1.52-5.05-.4-10.15-.5-15.24-.06-4.69-1.75-9.24-1.29-13.96.3-4.38-.46-8.68-1.32-12.95.06-4.68.83-9.41-.33-14.04-.91-9.75-2.31-19.49-2.37-29.3-4.05-.12-9.84-2.39-12.26 2.11m-22.49.87c-1.79 3.87-1.06 8.17-1.08 12.29.38 6.65-.08 13.45 1.54 19.96-.01 12.44 2.79 24.73 2.26 37.19.55 4 1.02 8 .99 12.05l-2.99.47c-.08 3.68-.11 7.36-.02 11.04.12 2.89.1 5.79.27 8.69a79.11 79.11 0 0 0-1.23-4.88 86.14 86.14 0 0 1-5.58-.24c-3.64-1.73-8.32-.4-11.64-2.8-4.61.56-9.09-.75-13.65-1.1-.61 1.18-1.21 2.36-1.84 3.53-.28.99-.57 1.99-.84 2.99-.54 2.19-1.74 4.12-2.77 6.1l-.98 3.25-1.7.56a84.87 84.87 0 0 0-.96-15.44c-7.48.57-15.1-.46-22.49.82-2.2.2-4.42.24-6.63.24.07 1.55.17 3.09.29 4.63 1.17 2.84.58 5.99.61 8.97l-.76-2.95-1.87.46a6.64 6.64 0 0 0-1.86-5.19c-.51-1.41-.36-3.38-2.01-4.01-4.5-2.07-9.55-.34-13.87 1.4-.95.65-2.09.78-3.19.94l-1.06-2.65c-.15-2.51-.05-5.03-.25-7.53-1.06-1.71-3.11-.66-4.69-.61-.73-8.67-2.06-17.27-2.89-25.93-1.05-10.37-1.59-20.78-3.13-31.09-1.09-8.05-.87-16.19-1.56-24.27a77.47 77.47 0 0 0-11.8.1c-.04 9.12.49 18.22 1.64 27.26 1.43 7.61 1.48 15.4 2.81 23-.58 4.07.91 7.99.77 12.06.12 6.52.44 13.02.98 19.52-4.63-.03-9.29-.12-13.79 1.19-.23 1.43-.5 2.87-1.14 4.2l-.37-3.42a45.72 45.72 0 0 0 3.06-7.99c1.18-7.59-1.81-14.92-1.81-22.49-1.45-7.67-.3-15.54-1.98-23.17-1.15-5.16-.5-10.64-2.59-15.59-1.84-4.05-3.54-8.26-6.47-11.67-2.47.05-4.93.04-7.39.18-1.11.48-2.25.87-3.42 1.18-.56 4.43.6 8.88.92 13.3 1.22.05 2.44.1 3.66.17l.94 2.33c-.12 9.14 2.35 18.12 2.13 27.27 2.63 9.47 1.43 19.41 3.29 29-1.34.25-2.68.51-4.01.78.29 2.36.64 4.71.76 7.09l.03 2.81c-2.06.38-3.15-.71-3.64-2.51.02-2.09 0-4.18-.06-6.26-1.48-.07-2.96-.13-4.43-.17-.27-2.37-.46-4.76-1.09-7.06-1.26-3.84-.55-7.95-1.39-11.86-.92-7.31-.93-14.72-2.26-21.99-.77-4.25-.29-8.67-1.57-12.82a85.93 85.93 0 0 0 1.64-5.75c1.03-.34 2.08-.67 3.12-.98.2-4.26-.44-8.5-.46-12.76-3.8-.9-8.61-1.2-11.67 1.64-.87 4.25-4.05 7.64-5.09 11.76.71 5.02.87 10.08 1.07 15.14a78.43 78.43 0 0 1 1.2 11.95c1.41 10 3.02 19.99 3.87 30.06.68 5.5 4.16 10.04 8.09 13.71l.8-.25c-.45 3.11-1.1 6.22-.93 9.39.23 8.05-.47 16.12.11 24.17-.38-5.63-1.92-11.12-2.24-16.74-.37-3.7-.89-7.44-2.05-10.99-4.46 1.59-9.27.77-13.82 1.87-7.9 2.06-16.28.97-24.13 3.24l-.15 3.63c-9.25 1.25-18.46 2.62-27.76 3.56.08 25.77.17 51.55.18 77.32a9.98 9.98 0 0 0 .77 3.68c6.8-1.2 13.75-1.54 20.49-2.95 5.54-.69 11.19-.91 16.6-2.35l-.18-2.9c7.22-2.02 14.86-1.73 22.23-3.05 5.82-1.13 11.83-.79 17.6-2.29 2.2-.51.77-2.65.58-4.07-.15-1.51-.25-3.02-.35-4.52a61.9 61.9 0 0 1 15.13-1.04c.3-2.11.61-4.23.89-6.35l.28.07c.21 6.07-1.92 11.86-1.38 17.94-.71 2.57 2.1 2.15 3.64 2.19 11.02-.06 22.04.14 33.05.05 2.39.12 4.32-1.47 6.51-2.14.08-2.64.03-5.28-.08-7.91 3.3.15 6.6.09 9.9.02 1.4-1.33 2.81-2.64 4.28-3.9l3.53.09c1.4.88 2.87 1.66 4.42 2.29.74-13.08-2.59-25.91-2.15-38.98 4.76 1.9 1.78 8.28 3.92 12.03.2 6.07 1.21 12.08 2.08 18.08.11 2.57.21 5.17 1.21 7.58 2.77-.54 5.53-1.12 8.34-1.33 5.51-.5 10.89-2.09 16.46-1.99 1.4-2.96-.11-6.16.1-9.26.15-3.67-.95-7.21-1.17-10.85l-1.41.27 1.74-2.34c-1.5-2.56-3-5.13-4.91-7.39l1.43.03c.11 1.97 1.32 3.55 2.33 5.14 3.48 5.77 7.45 11.23 11.27 16.76l2.27-.04c6.08-4.97 12.77-9.1 19.11-13.7 1.62-2.05 4.9-1.56 6.14-3.74-.19 5.12.28 10.24.22 15.37 6.85.23 13.75.1 20.53-.98 4.87-.14 9.75-.1 14.54-1.17-1.35-4.72-1.32-9.71-2.83-14.4-.74-3.63-1-7.35-2.03-10.92-.56-3.97-1.49-7.87-2.35-11.78l-.8-.14c.34-9.17-2.37-18-3.58-27-.33-3.76-1.49-7.39-2.28-11.07a231.6 231.6 0 0 1-.37-3.7l-6.09.36-.46-1.96-.1.83a81.1 81.1 0 0 1-1.61-13.46c-1.02-5.73-1.22-11.55-1.7-17.35 2.09-2.73 6.41-.71 9.31-2.14.12-4.09.14-8.29-1.3-12.18a86.1 86.1 0 0 1-8.03-.7c-1.76-7.78-1.01-15.86-2.23-23.68-1.45-3.48-.05-7.7-2.81-10.65-2.86.89-5.87 1.24-8.68 2.29m-44.07 1.5c-.92 1.92-2.17 3.69-2.82 5.72-.33 4.22-2.51 7.98-3.29 12.11-1.24 2.98 1 5.66 1.97 8.32 1.82 3.95 2.62 8.88 6.56 11.38 1.89-5.07 2.31-10.55 4.12-15.67 2.65-6.87 2.66-14.39 5.31-21.26-3.29-2.98-8.06-1.71-11.85-.6m-31.15 3.29c1.89 4.96 3.19 10.27 6.42 14.57 1.98 2.61 2.77 5.83 4.11 8.76 3.03 3.64 3.89 8.5 7.02 12.06 2.58 3.34 2.04 7.65 2.76 11.55 1.69 10.82.26 21.96 2.64 32.69.58 1.6.67 4.28 2.95 4.29 3.74-.2 7.87-.06 11.08-2.29-1.01-9.39-2.64-18.71-3.32-28.13-.96-4.98.6-10.52-2.41-15.02-.4-2.46-.95-5.01-2.94-6.71-1.41-6.37-6.06-11.33-8.28-17.38-1.82-5.9-6.03-10.62-8.33-16.31-3.97.2-7.76 1.48-11.7 1.92m-18.71 1.22c-1.31 6.8.18 13.6 1.56 20.25.37 6.35 1 12.68 2.01 18.96l-1.26-.98c-3.18-8.52-5.04-17.46-6.94-26.33-1.02-2.65-1.3-5.82-3.89-7.48.7 14.98 3.44 29.8 3.59 44.83-.07 7.19 2.78 13.94 6.21 20.12 1.88 5.61 4 11.12 6.7 16.39 3.6.44 7.22-.07 10.82-.26.85-17.5-2.85-34.75-4.05-52.14-1.04-11.21-1.32-22.49-3.01-33.62a20.5 20.5 0 0 0-11.74.26m-90.87 9.1c-1.13 1.55-.59 3.57-.78 5.35-2.49-.19-1.89-2.98-2.43-4.68-3.66-1.24-7.61-.62-11.31.12-3.66.86-7.45.66-11.17.84-2.33 3.55-1.59 8-.45 11.83 3.05 3.09 8.26-.92 11.69 1.97.51 3.91 1.53 7.76 1.32 11.73-.24 5.8 2.46 11.31 1.48 17.12.94 9.66 2.11 19.32 3.36 28.94.31 4.21-.29 8.52.63 12.66 3.13 3.33 8.31.48 12.04-.22-1.61-8.74-1.13-17.66-2.11-26.45.61-7.12-2.6-13.89-1.92-20.99.31-3.78-1.41-7.31-1.42-11.06.15-6.81-2.01-13.51-.97-20.33.94 1.64 1.91 3.26 2.78 4.94 3.49 1.4 7.33.37 10.91-.08l.79-1.28c-1.07-3.84-.39-7.86-1.14-11.74-3.69 1.96-7.79-.92-11.3 1.33m364.41 12.71c-.2 2.79.06 5.57.58 8.32.34 5.05.81 10.18 2.54 14.97 1.74 3.39 3.39 6.83 5.09 10.24 1.6 3.22 1.73 7.38 5.13 9.39 4 0 8.01-.38 11.85-1.59-1.52-5.36-2.81-10.9-5.59-15.78-4.24-8.49-6.86-17.64-10.75-26.28-2.98-.2-5.93.27-8.85.73m47.63 12.43c.51 3.99.64 7.98.74 11.99 1.17 5.69 3.85 11.38 8.07 15.42 3.31-.16 6.82.61 9.95-.83.32-3.19.81-6.37 1.07-9.56-.28-1.94-1.66-3.52-1.91-5.49a11.3 11.3 0 0 0-4.01 1.11c-1.67-5.01-1.08-10.44-2.41-15.55-1.76-.48-3.58-1.04-5.37-.38-2.2.72-5.91.08-6.13 3.29m89.53 31.29c-4.72 3.03-10.41.3-15.5 1.99-5.56-.16-10.91 1.66-16.46 1.37.4 4.71-.62 9.8.89 14.28a348.89 348.89 0 0 0 2.81 39.03c-.37 5.76 2.51 11.36.71 17.09-.29-5.8-.93-11.54-1.39-17.33-3.44-.03-1.48-4.53-2.26-6.72-1.49-3.09-.67-6.63-1.14-9.93-.93-6.64-1.65-13.32-2.52-19.98.21-5.53-1.38-10.89-1.36-16.4-5.74.05-11.27 2.03-17.01 2.28-4.52 1.42-9.19.25-13.8.45.01 2.46.05 4.92.14 7.38a14.5 14.5 0 0 1-4.57.67c-7.74-.12-15.48.07-23.22 0l-1.2-2.18c-.13-2.28-.28-4.56-.44-6.84l2-.64-2.83-.1.18-2.22c-3.9.18-7.87-.35-11.72.37-3.17 1.09-6.56.66-9.83.93-2.07.81-4.32.68-6.49.7l.02 1.88c-1.54.09-3.09.21-4.42 1.07-2.57.53-5.74-.77-7.9 1.04l-2.19.3c-5.05 1.42-10.48.36-15.57 1.87.11 1.31.22 2.61.35 3.92l-1.93.46 1.78.46a7.3 7.3 0 0 0 1.23 3.93l-1.84.5c.93.53 1.86 1.06 2.79 1.61l2.74-.07c1.11 3.79 1.01 7.75 1.18 11.66l.61.81c.65 4.65-.63 9.61 1 14.06.54 6.68.33 13.39.21 20.09-1.93-6.08-.65-12.88-2.81-18.98-1.02-7.49-1.6-15.09-3.41-22.45l-3.76-.25-.07 1.12c-1.52.05-3.07.1-4.47.71l-3.42.43c-1.7-3.77-2.09-8.06-2.2-12.16-2.8-.08-5.64.01-8.39-.63a529.3 529.3 0 0 0-26.43-.43c-.02 1.91-.02 3.83.05 5.74 1.06 2.51 1.37 5.25 2.4 7.78 1.24 3.23.04 6.76.78 10.08.57 2.38.74 4.83.64 7.27-.82-7.51-3.5-14.6-4.84-22-7.75-.4-15.17 2.92-22.92 2.23-.6-3.7-1.76-7.33-1.51-11.13l-2.12-1.59a140.03 140.03 0 0 1-16.85 3.16c-3.14 1.56-6.71 1.48-10.04 2.42-4.9.49-9.47 2.68-14.46 2.52.41 5.23 1.97 10.25 3.13 15.34l-1.64.12 1.45.05c.91 4.16 1.34 8.41 2.29 12.57 2.51 8.8 3.03 18 5.01 26.92 2.17 6.87 2.22 14.2 4.32 21.09.13 1.2.25 2.41.36 3.63 8.71.66 17.21-1.2 25.82-1.97 5.81.32 11.46-1.36 17.27-1.1-.08-1.96-.14-3.92-.2-5.87 4.05-.23 7.48-2.71 11.5-3.06 3.55-.48 6.91-1.84 10.47-2.34a26.6 26.6 0 0 1 1.13 7.31c10.27-.09 20.29-2.88 30.59-2.38a145 145 0 0 1 1.47-2.75c4.28.08 8.58.06 12.87.11l.04 2.52.92-2-.29 3.66c5.55-.1 11.16.21 16.63-.9 4.18-.65 8.44-.33 12.65-.44.29-3.42.12-6.84-.02-10.25a89.72 89.72 0 0 0-.83-11.82c-3.72.66-7.49.85-11.25 1.06-.21-1.16-.4-2.32-.56-3.49l.73 2.83c3.75.11 7.56.2 11.18-.92-.47-5.34-.25-10.69 0-16.03.9 5.44.9 11.18 2.56 16.4.77 4.03 1.2 8.16 2.68 12.03l.37-1.92c-.11 1.85-.19 3.71-.24 5.57 4.99.03 9.98-.21 14.97-.52 2-1.46 4.64-.76 6.95-1.13 3.58-1.17 7.41-.38 11.06-1.23 5.21-1.23 10.74.36 15.87-1.21 4-.51 8.13.15 12.06-.97 7.18-.42 14.38-.46 21.58-.33l-.31 3.14c6.54 1.19 13.23-.46 19.74-1.21 3.51.1 7-.35 10.42-1.11-.41-3.78-.93-7.54-1.17-11.33-.79-2.31-1.17-4.73-1.81-7.07.13-2.45-.3-4.88-.62-7.3l.88 3.25 2.21-.59c5.68-9.16 11.32-18.36 17.26-27.35 2.23-5.1-2-9.53-4.11-13.8-3.14-6.36-6.99-12.35-10.02-18.74a26.4 26.4 0 0 0-4.59 1.9z"/><g fill="#eb038b" stroke="#eb038b" stroke-width=".09"><path d="M590.48 122.26a26.4 26.4 0 0 1 4.59-1.9c3.03 6.39 6.88 12.38 10.02 18.74 2.11 4.27 6.34 8.7 4.11 13.8-5.94 8.99-11.58 18.19-17.26 27.35l-2.21.59-.88-3.25c-1.54-6.94 1.03-13.74 1.78-20.59a184.45 184.45 0 0 1 15.53-7.94c-4-3.43-9.82-4.11-13.43-7.88.38-5.74.83-11.47.9-17.23-3.23 3.97-5.92 8.44-9.59 12-2-2.61-4.01-5.68-7.6-6.07-5.11-.26-10.18.93-15.23 1.58 2.56 20.77 4.36 41.65 7.2 62.39 4.66-.41 9.34-.72 13.94-1.57 3.66-.71 5.8-4.2 7.12-7.39.64 2.34 1.02 4.76 1.81 7.07.24 3.79.76 7.55 1.17 11.33a42.5 42.5 0 0 1-10.42 1.11c-6.51.75-13.2 2.4-19.74 1.21l.31-3.14c-7.2-.13-14.4-.09-21.58.33-3.93 1.12-8.06.46-12.06.97-5.13 1.57-10.66-.02-15.87 1.21-3.65.85-7.48.06-11.06 1.23-2.31.37-4.95-.33-6.95 1.13-4.99.31-9.98.55-14.97.52.05-1.86.13-3.72.24-5.57.33-3.24-.32-6.45-.82-9.63l-2.23-.48c-1.66-5.22-1.66-10.96-2.56-16.4-.25 5.34-.47 10.69 0 16.03-3.62 1.12-7.43 1.03-11.18.92l-.73-2.83c-.56-4.26-.47-8.57-.7-12.86 2.54-.21 5.08-.34 7.62-.46-.1-3.69-.4-7.38-1.23-10.98-2.57.36-5.15.63-7.74.77-.1-4.88-.7-9.71-1.17-14.56 4.3-.26 9.29.16 12.23-3.68-.16-2.71-.34-5.41-.52-8.11-8.11 1.99-16.51 1.9-24.78 2.6 1.68 21 3.61 41.99 5.04 63.02 7.98-.23 15.89-1.51 23.89-1.49.14 3.41.31 6.83.02 10.25-4.21.11-8.47-.21-12.65.44-5.47 1.11-11.08.8-16.63.9l.29-3.66-.92 2-.04-2.52c-4.29-.05-8.59-.03-12.87-.11a145 145 0 0 0-1.47 2.75c-10.3-.5-20.32 2.29-30.59 2.38a26.6 26.6 0 0 0-1.13-7.31c-3.56.5-6.92 1.86-10.47 2.34-4.02.35-7.45 2.83-11.5 3.06.06 1.95.12 3.91.2 5.87-5.81-.26-11.46 1.42-17.27 1.1-8.61.77-17.11 2.63-25.82 1.97-.11-1.22-.23-2.43-.36-3.63-2.1-6.89-2.15-14.22-4.32-21.09-1.98-8.92-2.5-18.12-5.01-26.92-.95-4.16-1.38-8.41-2.29-12.57l-1.45-.05 1.64-.12c-1.16-5.09-2.72-10.11-3.13-15.34 4.99.16 9.56-2.03 14.46-2.52 3.33-.94 6.9-.86 10.04-2.42 5.68-.65 11.29-1.82 16.85-3.16l2.12 1.59c-.25 3.8.91 7.43 1.51 11.13 7.75.69 15.17-2.63 22.92-2.23 1.34 7.4 4.02 14.49 4.84 22 .1-2.44-.07-4.89-.64-7.27-.74-3.32.46-6.85-.78-10.08-1.03-2.53-1.34-5.27-2.4-7.78-.07-1.91-.07-3.83-.05-5.74 8.81-.01 17.63 0 26.43.43 2.75.64 5.59.55 8.39.63.11 4.1.5 8.39 2.2 12.16l3.42-.43c1.4-.61 2.95-.66 4.47-.71l.07-1.12 3.76.25c1.81 7.36 2.39 14.96 3.41 22.45 2.16 6.1.88 12.9 2.81 18.98.12-6.7.33-13.41-.21-20.09-1.63-4.45-.35-9.41-1-14.06l-.61-.81c-.17-3.91-.07-7.87-1.18-11.66l-2.74.07c-.93-.55-1.86-1.08-2.79-1.61l1.84-.5a7.3 7.3 0 0 1-1.23-3.93l-1.78-.46 1.93-.46c-.13-1.31-.24-2.61-.35-3.92 5.09-1.51 10.52-.45 15.57-1.87l2.19-.3c2.16-1.81 5.33-.51 7.9-1.04 1.33-.86 2.88-.98 4.42-1.07l-.02-1.88c2.17-.02 4.42.11 6.49-.7 3.27-.27 6.66.16 9.83-.93 3.85-.72 7.82-.19 11.72-.37l-.18 2.22 2.83.1-2 .64c.16 2.28.31 4.56.44 6.84l1.2 2.18c7.74.07 15.48-.12 23.22 0a14.5 14.5 0 0 0 4.57-.67c-.09-2.46-.13-4.92-.14-7.38 4.61-.2 9.28.97 13.8-.45 5.74-.25 11.27-2.23 17.01-2.28-.02 5.51 1.57 10.87 1.36 16.4.87 6.66 1.59 13.34 2.52 19.98.47 3.3-.35 6.84 1.14 9.93.78 2.19-1.18 6.69 2.26 6.72.46 5.79 1.1 11.53 1.39 17.33 1.8-5.73-1.08-11.33-.71-17.09a348.89 348.89 0 0 1-2.81-39.03c-1.51-4.48-.49-9.57-.89-14.28 5.55.29 10.9-1.53 16.46-1.37 5.09-1.69 10.78 1.04 15.5-1.99m-45.25 12.19c-.17 10.9 1.84 21.69 1.36 32.61-2.23-10.72-6.25-20.99-8.41-31.71-3.38.01-6.76.2-10.13.08l1.3 3.52c-2.64 4.9.86 9.96.15 15.08.41 9.02 1.59 17.99 2.31 26.99.62 5.81.51 11.68 1.65 17.44a340 340 0 0 1 7.14-.11 82.9 82.9 0 0 0-.64-8.34c-.73-5.66-.22-11.41-1.1-17.05a41.94 41.94 0 0 1-.22-8.23c2.11 10.86 5.26 21.5 7.3 32.37 3.06 1.39 7.3-.07 10.79.12.04-5.09-.19-10.18-.91-15.22-.67-15.91-1.96-31.79-3.28-47.67l-7.31.12m-71 4.86c3.86 20.7 6.37 41.64 10.22 62.34 6.03-1.34 12.22-1.73 18.22-3.25-.2-3.06-.72-6.08-1.24-9.1a47.2 47.2 0 0 0-8.86 1.19c-1.9-6.25-2.16-12.96-3.36-19.4-2.02-11.17-3.45-22.47-5.77-33.57-3.06.67-6.15 1.16-9.21 1.79m26.42 8.36c-2.72 2.19-2.31 5.83-2.16 8.92 3.99-.05 7.9-.9 11.86-1.31.03-1.23.07-2.46.13-3.69l3.07-.1c.09 1.5.17 2.99.24 4.49-5.32 2.62-11.31 4.88-14.76 10-2.17 4.5.25 10.47 5.08 12 5.06 1.37 11.09 1.14 15.03-2.75 1.36 1.9 3.62 1.51 5.65 1.4a470.5 470.5 0 0 0-1.17-30.27c-6.77-4.73-16.69-3.89-22.97 1.31m-102.28 1.76c-2.87 3.43-2.37 8.29-1.85 12.42 2.7 10.43 11.05 17.83 17.1 26.33 2.08 3.37 4.81 7.48 2.81 11.53-1.34.03-2.7.24-3.99-.18-1.78-3.35-1.84-7.3-2.21-10.99-2.97.71-5.95 1.36-8.93 1.99 1.21 4.93.71 10.75 4.49 14.66 4.07 4.94 12.02 4.99 16.83 1.08-.45-5.15-1.1-10.28-1.89-15.39-.59-4.5.2-9.83-3.38-13.32-5.25-6.7-12.68-13.57-12.01-22.83l2.83-1.32c2.74 3.17 2.38 7.61 3.39 11.45a42.8 42.8 0 0 0 6.22-1.15c-.45-3.58-1.4-7.11-1.22-10.74-.02-1.54.34-3.37-1.06-4.46-4.28-5.25-13.38-4.63-17.13.92m-45.12 1.08c-.07 10.6 1.45 21.14 1.12 31.74-2.13-10.16-5.02-20.15-7.72-30.17-2.09.14-4.18.29-6.27.46.26 10.52 2.06 20.96 2.02 31.49-2.43-10.03-5.17-19.98-7.88-29.94-3.16.16-6.3.52-9.36 1.34 5.85 20.22 11.82 40.42 17.74 60.61 2.53.43 5.15-.55 7.72-.62.49-9.21-1.73-18.33-.87-27.53 2.31 8.64 4.77 17.27 6.93 25.96 2.64-.07 5.26-.5 7.78-1.32-.88-16.52-1.61-33.04-2.34-49.56-.56-4.51-.99-9.04-.71-13.59-2.72.39-5.43.88-8.16 1.13m19.16 4.01c1.13 15.49 2.43 30.99 3.94 46.44 2.71-.35 5.39-.85 8.05-1.52a39.47 39.47 0 0 1-.93-7.58l4.11-.45c.8 2.13 1.46 4.3 2.06 6.5 2.68-.25 5.31-.83 7.91-1.49-2.21-15.46-9.96-29.33-14.45-44.14-3.56.74-7.13 1.47-10.69 2.24m53 7.14c.35 2.18.7 4.35 1.01 6.54l-4.25.23.19 5.3 4.13-.22c2.67 10.21.98 21.52 6.05 31.07 2.09-.28 4.17-.64 6.24-1.05-3.57-6.58-3.31-14.23-4.55-21.41a63.44 63.44 0 0 1-.83-9.63l4.24-.12c.01-1.95-.03-3.89-.13-5.83l-5.1.37a238.2 238.2 0 0 1-.84-8c-2.19.6-4.23 1.58-6.16 2.75m-56.91 13.29c.5 12.27 1.68 24.52 2.11 36.81 1.68-.34 3.36-.71 5.05-1.09-1.9-7.16-2.94-14.5-4.21-21.78-1.43-4.56-2.02-9.28-2.95-13.94m135.68 11.94l.21 3.8c6.69-1.85 13.67-2.73 20.17-5.2-6.84-.3-13.58 1-20.38 1.4zM290.76 128.59l.1-.83.46 1.96 6.09-.36c.11 1.23.24 2.47.37 3.7.79 3.68 1.95 7.31 2.28 11.07l-.51-2.58c-2.44.31-4.88.6-7.32.86.54 8.65 1.49 17.28 2.2 25.92-2.94-4.68-4.64-9.97-6.98-14.94-1.55-3.27-3.13-6.54-4.36-9.95-2.9.02-5.79.13-8.68.28-.09-3.68-.06-7.36.02-11.04l2.99-.47c4.38-.67 8.77-1.23 13.14-1.94l.2-1.68z"/><path d="M586.42 136.56c2.24-2.97 3.64-6.49 6.15-9.27-.61 5.79-2 11.46-2.98 17.19 4.35 1.43 8.79 2.6 13.25 3.71l-.6 1.88c-4.74 1.02-9.2 2.99-13.79 4.51-.27 3.25-.73 6.49-1.1 9.74-1.05-7.76-1.57-15.6-2.85-23.33-.17-1.71 1.09-3.06 1.92-4.43zM162.53 139.55c4.4-.12 8.82.05 13.18-.65 1.58-.05 3.63-1.1 4.69.61.2 2.5.1 5.02.25 7.53l1.06 2.65c1.1-.16 2.24-.29 3.19-.94 4.32-1.74 9.37-3.47 13.87-1.4 1.65.63 1.5 2.6 2.01 4.01a6.64 6.64 0 0 1 1.86 5.19l1.87-.46.76 2.95c-.03-2.98.56-6.13-.61-8.97-.12-1.54-.22-3.08-.29-4.63 2.21 0 4.43-.04 6.63-.24 7.39-1.28 15.01-.25 22.49-.82.8 5.11 1.1 10.27.96 15.44l1.7-.56.98-3.25c1.03-1.98 2.23-3.91 2.77-6.1.27-1 .56-2 .84-2.99.63-1.17 1.23-2.35 1.84-3.53 4.56.35 9.04 1.66 13.65 1.1 3.32 2.4 8 1.07 11.64 2.8 1.85.15 3.71.21 5.58.24.46 1.61.87 3.23 1.23 4.88-5.75 3.45-11.19 7.42-17.13 10.53-3.83-5.99-8.95-11.2-11.74-17.8.62 7.98.74 15.98 1.29 23.96l-.69 1.14c-5.28 3.78-10.93 7.02-16.39 10.52 5.79 1.56 11.78 2.2 17.59 3.74.43 7.32.83 14.63.92 21.97 3.07-6.04 6.73-11.9 8.53-18.48l1.72-1.37a206.25 206.25 0 0 0 17.24 3.3c-4.26-5.19-7.83-10.98-11.34-16.68 3.26-6.7 5.55-14.11 10.45-19.85.5 14.47 1.98 28.89 3.52 43.28 3.02-.08 6.03-.37 9-.97-1.61-8.92-1.71-18.02-2.94-26.99 3.92 8.64 7.66 17.35 11.4 26.07 3.18-.11 6.36-.23 9.54-.32a608.08 608.08 0 0 1-2.01-23.33l.8.14c.86 3.91 1.79 7.81 2.35 11.78 1.03 3.57 1.29 7.29 2.03 10.92 1.51 4.69 1.48 9.68 2.83 14.4-4.79 1.07-9.67 1.03-14.54 1.17-6.78 1.08-13.68 1.21-20.53.98.06-5.13-.41-10.25-.22-15.37-1.24 2.18-4.52 1.69-6.14 3.74-6.34 4.6-13.03 8.73-19.11 13.7l-2.27.04c-3.82-5.53-7.79-10.99-11.27-16.76-1.01-1.59-2.22-3.17-2.33-5.14l-1.43-.03c-1.86-1.64-3.55-3.45-5.24-5.26l-2.05.32c.34 3.93 1.09 7.83 1.07 11.79l-3.88.07c-.87-9.24-2.5-18.4-3.19-27.67a60.16 60.16 0 0 0-1.05-7.45 302 302 0 0 1 4.33-.44c.53 3.82 1 7.64 1.62 11.45l3.58-.22c1.35-3.71 3.27-7.19 4.52-10.93 1.12-3.51-2.08-6.66-4.98-8.04-7.41-3.54-19.29.27-19.22 9.65 1.02 11.07 2.39 22.11 3.6 33.17.73 7.41 9.57 10.94 16.09 9.17 3.33-.83 5.82-3.34 7.97-5.88l1.41-.27c.22 3.64 1.32 7.18 1.17 10.85-.21 3.1 1.3 6.3-.1 9.26-5.57-.1-10.95 1.49-16.46 1.99-2.81.21-5.57.79-8.34 1.33-1-2.41-1.1-5.01-1.21-7.58-.87-6-1.88-12.01-2.08-18.08-2.14-3.75.84-10.13-3.92-12.03-.44 13.07 2.89 25.9 2.15 38.98a28.44 28.44 0 0 1-4.42-2.29l-3.53-.09a113.04 113.04 0 0 0-4.28 3.9c-3.3.07-6.6.13-9.9-.02.11 2.63.16 5.27.08 7.91-2.19.67-4.12 2.26-6.51 2.14-11.01.09-22.03-.11-33.05-.05-1.54-.04-4.35.38-3.64-2.19-.54-6.08 1.59-11.87 1.38-17.94l-.28-.07c-.28 2.12-.59 4.24-.89 6.35a61.9 61.9 0 0 0-15.13 1.04c.1 1.5.2 3.01.35 4.52.19 1.42 1.62 3.56-.58 4.07-5.77 1.5-11.78 1.16-17.6 2.29-7.37 1.32-15.01 1.03-22.23 3.05l.18 2.9c-5.41 1.44-11.06 1.66-16.6 2.35-6.74 1.41-13.69 1.75-20.49 2.95a9.98 9.98 0 0 1-.77-3.68c-.01-25.77-.1-51.55-.18-77.32 9.3-.94 18.51-2.31 27.76-3.56l.15-3.63c7.85-2.27 16.23-1.18 24.13-3.24 4.55-1.1 9.36-.28 13.82-1.87a51.96 51.96 0 0 1 2.05 10.99c-4.61.49-9.21 1.18-13.86 1.35-.52 7.82-.6 15.75-2.35 23.42a538.55 538.55 0 0 0-5.84-22.68c-4.21.89-8.51 1.07-12.79 1.24.41 9.78 1.38 19.54 1.74 29.34.11 7.18 1.63 14.3 1.09 21.5-3.9-15.41-8.09-30.76-11.72-46.24-4.06.66-8.14 1.17-12.25 1.34-.28 10.44-.09 20.89-.35 31.33-.72 7.28-.36 14.6-.62 21.9 3.07-.18 6.13-.54 9.15-1.12-.04-2.69-.03-5.37 0-8.06l4.88-.53c.55 2.52 1 5.06 1.32 7.62 3.29-.08 6.58-.26 9.87-.44l.03-3.9c2.71-.13 5.42-.28 8.12-.52-.44-10.84-2.7-21.56-2.32-32.42 2.19 10.58 5.77 20.8 8.5 31.25 2.42-.07 4.85-.16 7.28-.27.25-11.29 2.12-22.46 2.97-33.71a709.99 709.99 0 0 1 3.49 32.85c4.25-.15 8.48-.64 12.72-.88-.93-3.87-.9-7.87-.77-11.82 2.27 1.77 4.41 4.2 7.43 4.6 3.47.61 7.01.08 10.3-1.11.14-4.77.33-9.55.33-14.32l-1.36-.03c0 2.35-.03 4.7-.05 7.05-2.35 2.31-6.2 3.69-9.16 1.79-3.56-3.51-2.35-9.01-2.84-13.5 4.72-.68 9.51-.75 14.21-1.61-.03-5.68.15-11.35.14-17.03-4.91-5.11-14.34-5.57-18.97.04-.41 4.04-.04 8.1-.12 12.15.06 7.05-1.19 14.01-1.87 21 .34 3.64 1.31 7.19 2 10.78l-1.93 1.89c.84-4.57-.65-9.05-.95-13.59-.55-7.37-2-14.63-3.21-21.92-.58-8.05.12-16.12-.11-24.17-.17-3.17.48-6.28.93-9.39 2.64-.97 5.44-1.23 8.23-1.34v-3.02c.49 1.8 1.58 2.89 3.64 2.51l-.03-2.81.14 2.65c3.71.09 7.42.09 11.13.06l1.64-3.1.37 3.42c.64-1.33.91-2.77 1.14-4.2 4.5-1.31 9.16-1.22 13.79-1.19m-10.26 13.74c-.08 6.57.01 13.15-.45 19.71-.09 17.16-.07 34.32-.38 51.47 4.74.46 9.51.24 14.26.24.03-8.24.11-16.49.05-24.73-.06-1.52.35-2.98.74-4.42 1.97-.06 3.53.98 4.85 2.32.56 8.88-1.31 18.11 1.29 26.74 4.23 1.63 9.3.19 13.85.75-.65-5.12-2.05-10.17-1.77-15.37.24-6.15-2.29-11.98-2.19-18.12.41-5.22-4.21-9.27-3.12-14.63l3.15.41c.72-6.71-1.56-13.21-1.08-19.92-3.16-2.28-6.78-4.22-10.77-4.28-6.14-.19-12.29-.05-18.43-.17m32.89 4.77c.12 4.78.64 9.55.66 14.34 4.5-.2 8.96-.83 13.45-1.16l.93-.99c-.68-4.26-.56-8.61-1.57-12.81-4.49.37-8.99.16-13.47.62m3.08 20.3c.43 12.42 2.06 24.74 2.47 37.15 4.71-.09 9.35-1.18 14.08-.96-.12-3.9-.11-7.82-.67-11.7-.89-5.53-.34-11.18-1.35-16.7-.57-2.9.15-6.04-1.21-8.76-4.41.63-8.86.98-13.32.97zM572.19 139.41l3.15.17c1.71 7.06 1.84 14.37 2.95 21.53.3 6.65 1.82 13.19 2 19.85.23 2.09-1.9 2.71-3.53 2.83-1.38-14.81-3.85-29.53-4.57-44.38zM510.53 165.42a9.64 9.64 0 0 1 4.7-2.54c.2 2.54.33 5.08.36 7.63-1.67.18-3.34.16-4.99-.09l-.07-5z"/><path d="M166.03 166.16l4.24.14 1 2.57c-.1 5.13.51 10.37-.81 15.41l-4.09.35c-1.2-4.15.23-8.41-.3-12.62a25.44 25.44 0 0 1-.04-5.85zM382.57 183.82c-.62-4.3-1.3-8.63-.94-12.99 1.46 4.07 2.29 8.33 3.93 12.34l-2.99.65zM133.85 172.54c2.11-.26 4.25-.3 6.37-.09.69.74 1.39 1.49 2.1 2.22a62.01 62.01 0 0 1 1.24 8.58c-3.94.36-7.9.55-11.87.6-.13-2.68-.2-5.35-.18-8.03.79-1.09 1.57-2.18 2.34-3.28zM179.69 189.99c.9-1.46 3.23.09 2.2 1.48-.89 1.24-3.19-.18-2.2-1.48zM71.71 191.89c1.29 5.06 2.41 10.2 2.92 15.39l-3.13.21c-.01-5.2-.16-10.41.21-15.6z"/></g></svg>