<svg xmlns="http://www.w3.org/2000/svg" width="632.19" height="228" viewBox="0 0 474.14 171"><path fill="#2f1a1f" stroke="#2f1a1f" stroke-width=".09" d="M206 .78c18.45-.65 36.96-1.2 55.41-.12-3.54.06-7.06.24-10.59.18C236.88-.08 222.93.83 209 1c-6.35.34-12.68.98-19.02 1.38-15.53 1.36-30.83 4.4-46.3 6.18a506.23 506.23 0 0 1 62.31-7.8zM73.65 125.93l4.2.23-1.69 2.7 3.85.03 1.8-2.88 3.38 1.56c.58-.68 1.16-1.36 1.76-2.01 1.22 1.2 2.43 2.46 3.83 3.47 1.45.4 2.91.77 4.34 1.23l1.03 1.52c1.4 2.33 3.57 4 5.7 5.62-2.63.84-6.38.95-6.55 4.46a73.56 73.56 0 0 1 5.1 4.58c3.18 3.07 7.8 3.69 11.87 4.9-.77.67-1.54 1.33-2.33 1.98-4.82-1.42-9.5-3.27-14.28-4.78-12.54-4.61-24.79-10.15-36.2-17.1l-1.9-1.21 2.57-2.25c3.5 1.8 7.11.3 10.36-1.22l-.33 2.58 3.16-.22z"/><path fill="#dadad4" stroke="#dadad4" stroke-width=".09" d="M209 1c13.93-.17 27.88-1.08 41.82-.16 4.32.37 8.65.73 13 .96l-.03.53-1.67-.03c-1.64.04-3.33-.12-4.91.36-1.96 1.43-3.35 4.07-6.1 3.97-4.8.43-9.7-.1-14.42 1.15-6.22.46-12.48-.14-18.66.83-3.16.5-6.37.68-9.57.78-5.09-.17-10.16.48-15.25.48-.52-2.7-1.69-5.2-3.23-7.48 6.35-.4 12.68-1.04 19.03-1.38z"/><path fill="#b0b0a9" stroke="#b0b0a9" stroke-width=".09" d="M250.82.84c3.53.06 7.05-.12 10.6-.18 1.1.05 2.2.12 3.3.19 1.32.23 2.63.49 3.96.7.73 1.5 1.37 3.1 2.45 4.4 1.12-.07 2.2-.31 3.26-.72l-1.94-2.25c1.32-.42 2.65-.85 4-1.22 1.44.02 2.9.1 4.36.17-.85 2-1.72 4-2.62 5.98-3.9.17-7.8.32-11.7.19a251.06 251.06 0 0 0-4.38-5.8l1.67.03.03-.53c-4.34-.23-8.67-.6-12.99-.96z"/><path fill="#897d7a" stroke="#897d7a" stroke-width=".09" d="M264.73.85c10.82-.55 21.52 1.53 32.32 1.7 8.16.89 16.33 1.7 24.45 2.86-1.77.54-3.51 1.16-5.26 1.76l-.1 1.96c3.69.76 7.68 1.12 10.68 3.64-2 .56-4.02 1-6.03 1.44-5.23-.52-10.56-.96-15.5-2.9-3.8-1.7-8.1-.71-11.95-2.17-4.87-1.61-10.1-1.16-15.14-1.23.9-1.98 1.77-3.97 2.62-5.98-1.46-.07-2.92-.15-4.37-.17-2.6-.08-5.17-.1-7.76-.21-1.33-.21-2.64-.47-3.96-.7z"/><path fill="#c3c1c0" stroke="#c3c1c0" stroke-width=".09" d="M268.69 1.55c2.59.12 5.17.13 7.76.2-1.34.38-2.67.8-4 1.23l1.94 2.25c-1.06.4-2.14.65-3.26.72-1.08-1.3-1.72-2.9-2.45-4.4z"/><path fill="#bcbbb6" stroke="#bcbbb6" stroke-width=".09" d="M143.68 8.57c15.48-1.77 30.78-4.82 46.3-6.18a20.27 20.27 0 0 1 3.24 7.48c-1.62-.07-3.23-.2-4.85-.34L185 5.8l-2.45 1.13a576.2 576.2 0 0 1 2.59 5.65c-13.56 2.68-27.31 4.52-40.72 7.92-2.4-2.18-5.07-4.31-6.1-7.52l3.69-.8c-2.17-.64-4.32-1.33-6.46-2.07 2.7-.5 5.43-.98 8.13-1.54z"/><path fill="#bfc3bc" stroke="#bfc3bc" stroke-width=".09" d="M251.12 6.63c2.74.1 4.13-2.54 6.09-3.97 1.58-.48 3.27-.32 4.9-.36 1.48 1.9 2.94 3.84 4.37 5.8-9.93-.28-19.86-.12-29.79-.32 4.73-1.25 9.62-.72 14.43-1.15z"/><path fill="#cbb29a" stroke="#cbb29a" stroke-width=".09" d="M182.54 6.93L185 5.8l3.37 3.73c1.62.14 3.23.27 4.85.34 5.1 0 10.16-.65 15.25-.48-5.54 1.19-11.23 1.37-16.78 2.5-2.19.2-4.38.37-6.55.69a576.2 576.2 0 0 0-2.59-5.65z"/><path fill="#87716f" stroke="#87716f" stroke-width=".09" d="M321.5 5.4c2.84.46 5.7.8 8.56 1.12L328.28 9c2.25 1.38 4.7 2.45 7.4 2.43 4.05 0 6.9 4.77 11.15 2.86l.69 2.7a23.7 23.7 0 0 1 7.73 1.37c1.99.84 3.7-2.04 5.63-.56 3.69 2.19 8.03 1.33 12.08 1.92 4.52.58 9.05-.5 13.59-.18a126.19 126.19 0 0 1 18.01 6.98c3.3 1.9 7.12 2.09 10.82 2.52-10.62-.24-21.26.14-31.89-.07-2.69.15-4.9 1.9-7.49 2.38-2.43-.2-4.7-1.12-6.9-2.1-4.88-3.74-11.19-3.98-16.69-6.3l-.97-.92c-2.68-.47-5.4-.6-8.05-1.26-7.7-2.61-15.62-5.24-23.8-5.66l1.2-.9c2-.44 4.03-.88 6.02-1.44-3-2.52-6.99-2.88-10.67-3.64l.1-1.96c1.74-.6 3.48-1.22 5.25-1.76z"/><path fill="#796663" stroke="#796663" stroke-width=".09" d="M330.06 6.52c19.12 2.9 38.16 6.83 56.49 13.02-4.54-.32-9.07.76-13.6.18-4.04-.6-8.38.27-12.07-1.92-1.92-1.48-3.64 1.4-5.63.56a23.7 23.7 0 0 0-7.73-1.37l-.7-2.7c-4.23 1.9-7.1-2.86-11.14-2.86-2.7.02-5.15-1.05-7.4-2.43zm-214.34 87.6c.18-2.4.62-5.22 2.96-6.48-.39 2.3-.09 5.69-2.96 6.48zm9.1 63.4a300.5 300.5 0 0 1 19.25 4.07c.97.58 1.94 1.17 2.9 1.77-8.64-1.77-17.52-2.36-26.02-4.8z"/><path fill="#a57337" stroke="#a57337" stroke-width=".09" d="M218.03 8.6c6.18-.96 12.44-.36 18.66-.82 9.93.2 19.86.04 29.8.32 3.9.13 7.8-.02 11.7-.2 5.05.08 10.27-.37 15.14 1.24 3.85 1.46 8.16.48 11.95 2.17 4.94 1.94 10.27 2.38 15.5 2.9l-1.19.9c-1.42.4-2.86.76-4.3 1.08-3.6-1.42-7.43-2.37-11.34-2.26-5.18.19-9.95-2.15-15.02-2.8-4.68-2.06-9.93-.84-14.87-1.1-12.68-.36-25.36.08-38.03-.08-3.5-.03-7.04-.21-10.48.55-8.5 2.2-17.54-.1-25.94 2.82-1.64.26-3.27.5-4.89.85l-1.51-1.15-1.52-1.12c5.55-1.14 11.24-1.32 16.78-2.51 3.2-.1 6.4-.28 9.57-.78z"/><path fill="#c38024" stroke="#c38024" stroke-width=".09" d="M225.56 10.5c3.44-.76 6.98-.58 10.48-.55 12.67.16 25.35-.28 38.03.08 4.94.26 10.19-.96 14.87 1.1.72.85 1.45 1.7 2.2 2.53-5.15-.56-10.5-.54-15.36 1.43l-1.15 2.37c-3.21.79-6.65 1.75-9.9.57-3.46-1.14-7.1-.61-10.64-.25-5.06.76-10.42-1.6-15.14 1.17a21.93 21.93 0 0 0-7.64-.86c-2.08-.5-4.1-1.17-6.14-1.8-3.17 1.9-6.88 1.67-10.38 1.03-.7-1.1-1.33-2.21-2.13-3.21-4.32-.63-8.72-.16-13.04-.8 8.4-2.91 17.43-.6 25.94-2.81z"/><path fill="#aca9a4" stroke="#aca9a4" stroke-width=".09" d="M117.77 14.05c5.9-1.44 11.8-2.85 17.78-3.94 2.14.74 4.29 1.43 6.46 2.08l-3.68.79c1.02 3.2 3.69 5.34 6.09 7.52-5.4 1.75-10.85 3.29-16.18 5.19l-2.75.97c-2.03-4.52-3.47-9.56-7.72-12.61z"/><path fill="#974e24" stroke="#974e24" stroke-width=".09" d="M144.41 20.5c13.41-3.4 27.16-5.24 40.72-7.92 2.17-.32 4.36-.5 6.55-.68l1.52 1.12c-4.36 1.09-8.9 1.24-13.15 2.8-4.11.39-8.33.02-12.18 1.8-5.73.37-11.1 2.38-16.65 3.62-5.64.4-10.51 3.3-15.72 5.18-2.03.65-3.36 2.4-4.76 3.9-3.78.04-7.48.79-11.2 1.39 2.83-2.11 5.74-4.1 8.7-6.02 5.33-1.9 10.79-3.44 16.18-5.2z"/><path fill="#b88227" stroke="#b88227" stroke-width=".09" d="M288.94 11.14c5.07.64 9.84 2.98 15.02 2.79 3.9-.11 7.73.84 11.34 2.26 2.7 1.22 5.68 1.23 8.54 1.74 2.9.83 5.24 2.89 8.13 3.74 3 1.07 6.21 1.08 9.26 1.92 2.16.8 3.95 2.3 5.83 3.6l-3.29.08a25.97 25.97 0 0 1 5.56 3.72c-3.2-.31-6.45-.28-9.67-.3-1.57-1.81-3.82-2.68-6.03-3.43l1.2-3.05c-2.15-.02-4.33-.17-6.3-1.06-3.42-1.47-7.16-1.64-10.72-2.48-7.39-2.7-15.23-3.83-22.94-5.22-1.26-.58-2.5-1.18-3.74-1.8-.75-.82-1.48-1.67-2.2-2.51z"/><path fill="#bf661e" stroke="#bf661e" stroke-width=".09" d="M193.2 13.02l1.53 1.15c-2.8 1.47-5.83 2.82-7.93 5.24-.4 1.7-.18 3.47-.17 5.2-5.15 1.37-10.64-.23-15.65 1.88 1.03 1.52 2.07 3.05 3.17 4.53-5.68-.05-11.38-.06-17.05.34-5.77.38-11.48-.87-17.25-.66a11.85 11.85 0 0 0 5.97-5.33c1.9-.61 3.82-1.2 5.74-1.77l-.34-2.36c5.55-1.24 10.92-3.25 16.65-3.61 3.85-1.8 8.07-1.42 12.18-1.81 4.25-1.56 8.79-1.71 13.16-2.8z"/><path fill="#db8115" stroke="#db8115" stroke-width=".09" d="M194.72 14.17c1.62-.35 3.25-.6 4.9-.85 4.31.63 8.71.16 13.03.79.8 1 1.44 2.12 2.13 3.2 3.5.65 7.21.88 10.38-1.02 2.04.63 4.06 1.3 6.14 1.8l-1.94.96a73.73 73.73 0 0 0 1.9 5.14l-2.7 2.45c2.13.52 4.07 1.54 5.85 2.8 1.65 1.25 3.54-.32 5.21-.75 2.68 1.7 5.9 1.26 8.9 1.18l3.85 1.45c-1.72.43-3.43 1.4-5.24 1.08-7.34-1.42-15.04-1.88-22.33.07-2.64.68-5.07-1.2-7.7-1.24-6.02-.35-12.05.18-18.07.02-5.92.05-12.12-.9-17.7 1.6-2.54 1.24-4.92-.97-7.19-1.83-1.1-1.48-2.14-3.01-3.17-4.53 5.01-2.11 10.5-.51 15.65-1.88 0-1.73-.22-3.5.17-5.2 2.1-2.42 5.14-3.77 7.93-5.24z"/><path fill="#d79e20" stroke="#d79e20" stroke-width=".09" d="M275.77 15.09c4.87-1.97 10.21-2 15.36-1.43 1.24.6 2.48 1.2 3.74 1.79l2.63 1.4-1.4 2.02 1.61 2c5.53.17 11.12.76 16.22 3.03 3.82-1.8 6.73 2.63 10.6 2.34-.36.72-.7 1.44-1.04 2.16l1.55 2.54c-19.01.22-38.03-.11-57.03.32-5.21-.23-10.43-.4-15.63.06l-3.85-1.45c10.5-.61 21.03-.08 31.53-.4 6.29-.28 12.86-3.63 18.9-.36a422.3 422.3 0 0 0 3.39-2.51c-2.52-3.01-6.48-3.06-10.08-3.22-.77-2.47-.96-5.05.49-7.32-6.06-.72-12.41-1.13-18.13 1.4z"/><path fill="#918d8a" stroke="#918d8a" stroke-width=".09" d="M106.33 17.02c3.17-1 6.4-1.84 9.63-2.58l1.72 1.92c-1.37.78-2.84 1.45-4.04 2.49-.49 2.8.01 5.65.14 8.46 1.83.6 3.65 1.22 5.48 1.85-3.27 1.38-6.87 1.22-10.34 1.2-4.69-3.11-10.38-3.54-15.83-3.06 2-2.33 3.71-4.98 6.12-6.91 2.28-1.31 4.74-2.26 7.12-3.37z"/><path fill="#9e9c96" stroke="#9e9c96" stroke-width=".09" d="M115.97 14.44l1.8-.4c4.25 3.06 5.69 8.1 7.72 12.62-2.1.77-4.15 1.67-6.22 2.5-1.83-.63-3.65-1.24-5.48-1.85-.14-2.81-.64-5.66-.15-8.46 1.2-1.04 2.67-1.71 4.04-2.5z"/><path fill="#e29c19" stroke="#e29c19" stroke-width=".09" d="M274.63 17.46c5.72-2.53 12.07-2.12 18.13-1.4-1.45 2.27-1.26 4.85-.5 7.32 3.6.16 7.56.2 10.08 3.22a422.3 422.3 0 0 1-3.38 2.5c-6.05-3.26-12.62.09-18.9.37-10.5.32-21.04-.21-31.54.4-3 .08-6.22.53-8.9-1.18-1.67.43-3.56 2-5.2.75a17.24 17.24 0 0 0-5.87-2.8l2.71-2.45c-.68-1.7-1.35-3.4-1.9-5.14l1.94-.96c2.58-.16 5.16.12 7.64.86 4.72-2.76 10.08-.41 15.15-1.17 3.54-.36 7.18-.9 10.64.25 3.24 1.18 6.68.22 9.9-.57z"/><path fill="#c69127" stroke="#c69127" stroke-width=".09" d="M294.88 15.45c7.7 1.39 15.55 2.53 22.94 5.22 3.56.84 7.3 1 10.7 2.48 1.98.89 4.16 1.04 6.3 1.06l-1.19 3.05c2.21.75 4.46 1.62 6.03 3.44-4.88.13-9.75.12-14.63.24l-1.55-2.54c.34-.72.68-1.44 1.04-2.16-3.87.29-6.78-4.14-10.6-2.34-5.1-2.27-10.69-2.86-16.2-3.02l-1.62-2.01 1.4-2.01c-.88-.48-1.75-.95-2.63-1.41z"/><path fill="#a7742d" stroke="#a7742d" stroke-width=".09" d="M315.3 16.19c1.44-.32 2.88-.68 4.3-1.08 8.18.42 16.09 3.05 23.8 5.66 2.64.67 5.37.79 8.05 1.26l.97.93.89 2.6c2.8 1.27 5.64 2.44 8.52 3.56-1 .48-1.98.97-2.98 1.43l-2.38.57c-2.37.23-4.8.57-7.13-.13a25.97 25.97 0 0 0-5.56-3.72l3.29-.07c-1.88-1.3-3.67-2.8-5.83-3.61-3.05-.84-6.27-.85-9.26-1.92-2.9-.85-5.24-2.91-8.13-3.74-2.86-.51-5.85-.52-8.55-1.74z"/><path fill="#837a7b" stroke="#837a7b" stroke-width=".09" d="M63.84 32.05a273.18 273.18 0 0 1 42.5-15.03c-2.38 1.1-4.84 2.06-7.12 3.37-2.41 1.93-4.12 4.58-6.12 6.9 5.45-.47 11.14-.04 15.83 3.08-2.48 1-5.05 2.38-7.8 1.8a67.51 67.51 0 0 0-18.88-.7c-6.13.98-12.34-1.22-18.4.58z"/><path fill="#ad541f" stroke="#ad541f" stroke-width=".09" d="M135.5 26.42c5.2-1.87 10.08-4.78 15.72-5.18l.34 2.36c-1.92.58-3.83 1.16-5.74 1.77a11.85 11.85 0 0 1-5.97 5.33c-1.95.27-3.9.57-5.87.76a95.8 95.8 0 0 0-3.24-1.14c1.4-1.5 2.72-3.25 4.75-3.9z"/><path fill="#8c602c" stroke="#8c602c" stroke-width=".09" d="M352.42 22.96c5.5 2.3 11.8 2.55 16.69 6.29-3.31 1.1-6.81 1.13-10.26 1.3 1-.46 1.98-.95 2.98-1.43a167.96 167.96 0 0 1-8.52-3.56z"/><path fill="#763f06" stroke="#763f06" stroke-width=".09" d="M125.48 26.66l2.75-.97a157.95 157.95 0 0 0-8.68 6.02c-3.82.5-7.71-.01-11.5.8-2.25.69-4.4 2.52-6.87 1.68a46.71 46.71 0 0 0-12.07-1.17c-4.03.03-8 1.29-12.04.7-10.23-1.18-20.52.47-30.78-.02l-2.47-.08c6.53-2.03 13.4-.4 20.03-1.57 6.06-1.8 12.27.4 18.4-.57a67.51 67.51 0 0 1 18.88.69c2.76.58 5.33-.8 7.8-1.8 3.47 0 7.07.17 10.34-1.21 2.07-.83 4.12-1.73 6.22-2.5z"/><path fill="#7d420e" stroke="#7d420e" stroke-width=".09" d="M369.1 29.25c2.2.98 4.47 1.9 6.9 2.1 2.6-.47 4.8-2.23 7.5-2.38l-.64 1.12c-2.12 1.56-4.26 3.1-6.33 4.7-2.05-.67-4.07-1.41-6.14-2.02-4.48-1.52-9.28-1.08-13.92-1.65l2.38-.57c3.45-.17 6.95-.2 10.26-1.3z"/><path fill="#380900" stroke="#380900" stroke-width=".09" d="M383.5 28.97c10.63.2 21.27-.17 31.89.07 16.07 1.4 32.26.07 48.36.73l.82.29c-8.36-.03-16.72-.15-25.08.07-18.88-.08-37.76-.4-56.63-.04zm-106.52 90.82c5.78.15 12.23.78 17.08-3.04 1 .67 1.98 1.34 3 1.97l1.74.65c-3.42 2.49-7.83 1.9-11.78 2.53-7.63.43-15.3.18-22.94.25-7.04.15-14.07-1.66-21.08-.46-13.17 1.05-26.4.27-39.58.3-6.62-.05-13.32.44-19.8-1.23-3.55.25-6.96 1.64-10.56 1.6-7.23.07-14.57 1.28-21.7-.53l.63-1.81c9.86-.46 19.9.93 29.58-1.54 1.48-.04 2.96-.06 4.45-.05l2.98 1.32c6 .46 12.04.28 18-.43 10.66 1.08 21.4.39 32.1.57 2.9.25 5.4-1.36 7.94-2.5l1.22.07c1.57.82 3.05 1.97 4.86 2.2 7.95.93 15.92-.78 23.87.13z"/><path fill="#0c0105" stroke="#0c0105" stroke-width=".09" d="M463.75 29.77c2.8-.08 5.29 1.3 7.36 3.08-1.85-.24-2.93 1.35-4.21 2.3.82 1.64 2.9 3.12 2.25 5.15-1.58 5.88-3.72 11.62-5.02 17.58a56.5 56.5 0 0 0-1.68 5.46c-.92 2.98-1.3 6.69-4.3 8.38-5.64 3.67-11.9 6.4-17.15 10.68 8.03 2.89 15.46 9.04 16.93 17.87 1.12 7.77-.48 15.7-3.22 22.99-2.71 6.74-7.02 13.12-13.5 16.73-8.91 5.77-19.9 6.09-30.16 6.02-20.5.05-41 .37-61.5.2-1.14-1.72-2.33-3.5-2.83-5.53.14-1.61.8-3.11 1.33-4.62 1.48-2.95 2.95-5.9 4.28-8.92 1.87-4.61 4.33-8.95 6.16-13.57-.42-1.11-1.57-1.83-2.3-2.75a48.25 48.25 0 0 1-4.47 3.18c-5.34.1-10.67-.01-16 .02-10.55-.14-21.12.12-31.67-.1-2.76.09-4.15-2.58-5.62-4.44.9-7.3 2.75-14.41 4.2-21.61-3.68-.56-3.6 3.27-4.22 5.77a468.3 468.3 0 0 1-3.12 15.7 14 14 0 0 1-2.24 3.5c-7.3 1.19-14.72.22-22.08.5-5.5.2-11 .05-16.5.08-.94-1.42-1.78-2.9-2.63-4.36l-2.7.33c-1.17 2.4-3.05 4.84-6.05 4.66-10.03.19-20.07.1-30.1-.02l-1.87-1.91c-1.6.76-3.15 1.97-5.02 1.96-4.74.1-9.5.23-14.25-.21-.99-.98-1.96-2-3.05-2.87-3.55 1.09-6.95 2.86-10.74 2.93-9.3.37-18.63 0-27.94.05-1.29-1.3-2.67-2.6-3.48-4.26-.47-3.35 1.58-6.3 2.92-9.2 1.06-2.24 3.75-4.42 2.6-7.12-2.16-6.27-.34-13.24 3.7-18.33-3.77.07-7.53.07-11.28.1-1.38-1.5-2.7-3.03-4.06-4.54-.75 2.92.67 5.55 2.02 8.02l.2.4c1.81 9.65-2.2 19.28-6.68 27.63-8.6 8.25-21.55 8.39-32.6 6.55a35.44 35.44 0 0 1-6.58-3.23c-1.74 4.5-6.79 4.33-10.83 4.14-4.68-.34-10.5 1.44-13.78-2.97a73.87 73.87 0 0 1-3.45 2.87c-6.3-.31-13.04 1.36-18.99-1.38a16.23 16.23 0 0 1-.15-9.92c-5.37 3.2-11.64 3.5-17.7 3.66a21.26 21.26 0 0 1-2.77 7.6c-5.74.22-11.5.5-17.24.1-3.3-.24-4.86-4.17-4.1-7.04 2.63-12.21 4.72-24.53 7.88-36.62 4.86-2.1 10.2-1.2 15.33-1.36 5.1-.08 10.2.03 15.3.03.72-4.9 2.5-9.68 2.35-14.68l-2.09-.37-.8-.12c-3-3.43-2.43-8.15-2.38-12.37-.15-2.9 2.52-5.94 5.53-5.62 9.66.2 19.37-.43 29 .32 2.8 1.24 5.71.3 8.48-.53 3.67.06 7.35.08 11.03-.04 2.93.66 5.7 1.88 8.57 2.72 1.54-.4 2.23-2.2 3.34-3.21 3.28-.43 6.52.2 9.72.88 4.67 1 9.26-1.41 13.95-.71 5.96 1.35 11.97-.66 18-.02 3.18-.52 6.6 3.52 9.07.1 4.66.04 9.34-.27 14.01.02 2.85.48 5.96 3.04 5.44 6.22.24 2.5-1.99 4.08-3.4 5.79a71.1 71.1 0 0 0-3.76 4.19c-2.36 3-5.3 5.53-7.5 8.64-1.3 3.2-1.69 6.68-2.57 10a53.78 53.78 0 0 1 15.88-2.3c1.71-8.1 3.43-16.2 4.86-24.34.57-2.92 1.05-6.58 4.3-7.71 4.8.06 9.61-.12 14.4.37l1.56.69c5.47-2.52 11.53-1.51 17.31-1.06l3 2.64c-.07 2.1-.17 4.2-.29 6.3 1.96-2.95 3.43-6.47 6.38-8.6 5.11-1.12 10.46-.32 15.66-.26 1.13.75 2.23 1.55 3.34 2.35l-.16 5.27 1.67-2c.81-2.5 1.86-5.42 4.7-6.2 5-.66 10.05-.2 15.03.42 5.6-.95 11.26-.84 16.85.03 5.36-1.1 10.81-.75 16.22-.36 5.67-.37 11.4-.8 17 .4 5.6-1.06 11.3-.83 16.97-.8 4.65.14 9.74-.93 13.8 1.97 6.37-2.76 13.5-2.36 20.26-1.8 4.38.5 7.74 3.59 10.03 7.16.32-2.4.67-4.81 1.71-7.01a7.6 7.6 0 0 1 5.2-1.53c20.47-.04 40.94.04 61.41-.1 5.65.19 11.31-.15 16.94.4a88.9 88.9 0 0 1 2.27-2.48c-1.38-.6-2.7-1.22-4.1-1.71l-.83-.3m-76.34 9.39l.1 2.06c-1.83 6.65-2.94 13.5-3.89 20.33.81-.73 1.6-1.48 2.42-2.2l1.23 1.96c3.26.23 6.52.57 9.8.46 6.31-.58 12.64.24 18.94.76a665.78 665.78 0 0 1-29.6 17.94l-.02.2-.93.58c-1.36 4.68-2.17 9.53-3.15 14.3-1.69 1.98-2 4.6-2.3 7.08 5.31-.9 10.65.17 15.98.18 7.43.3 14.86-.57 22.28.08a16 16 0 0 1 1.2 4.88 99.22 99.22 0 0 0-1.36 4.12c-.6.97-1.15 1.95-1.72 2.92-1.49.72-3.06 1.26-4.46 2.13-7.42-.98-15.02-.4-22.49.06-8.12-.48-16.26.37-24.36-.48-1.86.17-2.1 2.14-2.79 3.49a365.3 365.3 0 0 0-9.12 19.63c2.01-1.06 4.01-2.12 6.14-2.94-.3 1.05-.64 2.1-.99 3.15 10.6.45 21.2.03 31.8.15 11.61-.2 23.28.7 34.83-.94 5.72-.18 11.38-2.01 15.8-5.73 5.26-3.53 7.32-9.77 9.81-15.28 1.75-3.53 1.95-7.52 2.44-11.36.32-2.72.65-5.61-.65-8.14-.5-1.3-1.12-2.56-1.69-3.82l-.49.37c-2.76-3.73-6.84-6.05-10.96-7.95l-.29.16c-3.25-1.66-6.82-2.58-10.33-3.5l.05-1.57c2.8-1.4 5.5-2.98 8.08-4.75l1.3.14a20.98 20.98 0 0 1 7.29-5.46c3.8-1.72 6.98-4.47 10.47-6.72 1.8-7 3.97-13.88 6.26-20.73a43.87 43.87 0 0 1-1.8-3.21c.97-.75 1.97-1.5 2.88-2.32-13.66-.23-27.37-.25-41.02-.01-11.55-.15-23.12-.05-34.68-.02M76.8 46.43A30.1 30.1 0 0 0 73.6 64c1.79 2.39 4.4 4.33 7.53 4.2 6.5.3 14.28 1.02 19.1-4.31 4.13-5.45 5.08-12.7 4.22-19.32-3.1-3.58-8-4.03-12.41-4.22-5.46.33-12.1.8-15.21 6.07m34.17-1.83c-.28 1.39-.53 2.78-.78 4.17-1.33 6.46-2.82 12.88-3.9 19.38 3.3.05 6.6.04 9.9-.1.94-6.7 2.94-13.2 3.74-19.92 2.52-.2 5.05-.2 7.57-.13.73 1.44 1.43 3.03.85 4.67-1.01 5.16-2.23 10.28-3.05 15.47 3.3.06 6.6.06 9.9-.07 1.12-7.8 4.19-15.46 3.43-23.4-.58-4.48-6.2-4.56-9.67-4.27-5.58 2.03-11.46.64-17.06-.4a59.44 59.44 0 0 1-.93 4.6m30.22-3.58c2.59 5.18 5.42 10.29 7.46 15.73-.11 3.83-1.67 7.52-1.54 11.4 3.09-.05 6.19-.05 9.28-.02.8-3.67 1.64-7.33 2.33-11.01 4.78-5.28 9.23-10.87 14.3-15.87l-3.1-.74c-2.37-.13-4.74-.14-7.1-.12l-1.87.95c-1.56 2.49-3.26 4.89-4.9 7.34-1.37-1.27-1.52-3.24-2.25-4.87l-.46-2.65c-3.94-1.47-8.1-.07-12.15-.14m47.67.18c-.96 9.08-3.97 17.83-4.77 26.93 3.08-.08 6.17-.1 9.25-.04.25-1.12.5-2.24.79-3.35.34-2.31.86-4.6 1.44-6.85 2.8-.1 5.63-.11 8.46-.06-.33 3.43-1.17 6.79-1.64 10.2 3.28.06 6.57.03 9.85-.03.23-1.74.5-3.5.93-5.2 1.09-6.13 2.57-12.2 3.68-18.32l.89-3.4c-2.61-.5-5.26-.74-7.91-.71l-2.15.79a93.56 93.56 0 0 1-2.15 9.94c-2.8-.05-5.58-.03-8.36.03.28-3.42 1.18-6.74 1.76-10.12-3.36-.36-6.77-.8-10.07.19m30.63 20.07c-1.32 2.16-2.97 4.23-3.42 6.8 3.34-.06 6.68-.03 10.03-.11a44.18 44.18 0 0 1 1.83-3.72c3.1-.58 6.3-.18 9.46-.17l.3 3.98c3.38-.06 6.76-.08 10.14.02a50.52 50.52 0 0 0-.62-6.5c-1.43-6.7-3.04-13.4-3.96-20.18l-1.94-1.06c-2.88.09-5.76.1-8.64-.03-4.8 6.72-8.73 14-13.18 20.97m35.46-14.63c-.84 6.08-3.2 12.02-2.35 18.26a45.13 45.13 0 0 0 3.13 3.2c2.8.2 5.64.24 8.44-.18 2-.66 4.03-1.18 6.05-1.78l2.6 1.86c5.37.2 10.89.8 16.15-.4 4.43-1.16 6.22-5.76 7.25-9.75.92-5.9 2.42-11.67 3.42-17.55-3.07 0-6.14.05-9.21-.13-2.1 4.84-1.81 10.34-3.58 15.3-.17 1.15-.33 2.3-.47 3.46-1.16 2.88-4.22 2.63-6.76 2.23-.64-7.1 2.57-13.84 3.2-20.85-3 .03-6.01.02-9.01-.08l-1.06 1.26c-.3 4.47-1.73 8.74-2.5 13.13-.5 2.16-.6 4.47-1.63 6.48l-4.68-.24-1.3-2.01.2-3.28c1.08-5.06 2.32-10.11 2.92-15.26-3.06.05-6.12.07-9.17-.07-.9 2.04-1.15 4.25-1.64 6.4m48.9 4.84c-.9 5.2-2.4 10.3-3.26 15.53 2.54 2.16 6.6.33 9.76.92l.56-2.46c.83-2.98.9-6.2 2.23-9.01a90.57 90.57 0 0 1 2.83 6.26 32.28 32.28 0 0 1 1.65 4.36c3.67 1.84 8.1.38 12.09.8a103.05 103.05 0 0 0-8.27-14.28c4.29-4.31 8.96-8.42 12.54-13.31-3.4 0-6.8-.02-10.2-.04-3.2 3.53-6.4 7.03-9.44 10.69l.9-5.12c.38-1.47.1-3.3 1.45-4.34l-1.41-1.23c-2.9.05-5.8.04-8.7-.04-1.5 3.59-1.7 7.54-2.72 11.27m31.6-2.12c2.36.22 4.58-.6 6.7-1.51l2.17-.85a47 47 0 0 0 1.39-6.73c-2.72 0-5.43 0-8.15-.02-.8 3.02-1.07 6.16-2.11 9.1m17.62-7.71c-4.85 2.04-6.37 7.75-5.66 12.56 4.05 5.06 11 2.09 16.4 3.83l-.21 2.43c-3.86.22-7.93-.75-11.64.54l-2.95-.64-2.36.79c-1.13 2-2.05 4.1-2.78 6.3 8.15-.02 16.3.2 24.45-.34 4.87-2.37 6.88-7.95 6.16-13.1a12.36 12.36 0 0 0-4.27-2.66c-4.24-.63-9.12.86-12.9-1.55.66-3.73 4.48-2.73 7.24-2.71l1.28 2c3.24.07 6.48.07 9.73-.04.06-3-.03-7.4-3.7-8.17-6.1-1.45-12.88-1.48-18.8.76m-304.4-.58c.4 2.32.64 4.66.77 7l6.53-.08a154.45 154.45 0 0 1-3.08 15.5c-.22 1.57-.42 3.14-.63 4.72 3.3.05 6.6.08 9.92-.11.2-2.11.48-4.22 1.03-6.27.89-4.56 2.14-9.05 2.66-13.68 2.45-.16 4.9-.2 7.36-.18l1.09-2.16c.54-1.6 1.12-3.2 1.64-4.82-9.1.05-18.2-.06-27.3.08m280.97 13.3l-.06 1.74 1.4 2.86.32-.1c1.5 3.18 3.72 6.03 4.79 9.42 2.05.17 2.35-2.33 3.25-3.6l-.02-.91c1.26-2.35 2.9-4.65 3.23-7.36-1.13-1.51-3.28.06-4.58.59-2.74.49-5.82.49-6.96-2.55l-1.37-.08m49.07 11.52l-2.47 3.97c1.78 1.07 3.56 2.17 5.62 2.62l-1.58-2.98 1.8-1.93c1.3-.06 2.6-.13 3.92-.23l-1.66 1.6c.46 2.67 2.7.06 4.06.04l-.88 3.38-3.64-.11a6.87 6.87 0 0 0-1.13-2.9c-.75 2.26-1.74 4.72.35 6.55 3.66-2.51 7.6-4.52 11.4-6.8l.33.04c.67-.63 1.36-1.25 2.05-1.87-5.28.93-10.55-.82-15.77-.06l-2.4-1.32m-310.78.94c-1.45 1.02.27 3.52 1.7 2.39 1.43-1.03-.25-3.52-1.7-2.4m30.3 8.83c1.74-.71 2.94-2.15 3.85-3.74-2.27 0-4.41 1.1-3.85 3.74m1.95 8.1c-1.87 5.47-3.02 11.26-2.53 17.07 1.86 4.02 6.19 5.87 10.4 6.12 7.3.43 15.36.64 21.56-3.87l.02-.91 1.76.22a8.76 8.76 0 0 1 1.2-3.3c2.53-4.01 3.55-8.78 4.02-13.43.03-2.78.6-5.94-1.25-8.31-1.56-2.51-4.57-3.14-7.17-4.03a84.75 84.75 0 0 0-14.16-.07c-6.11.62-11.88 4.55-13.85 10.5m244.7-10.55c-.91 6.85-2.46 13.6-3.93 20.36-.52 3.08-1.15 6.15-1.77 9.2a39.1 39.1 0 0 0-.76 4.15c2.18-.01 4.37-.07 6.54-.32 1.48.24 2.97.36 4.48.37 1.47-.8 1.25-2.8 1.87-4.14l.44-3.37 1.04-2.1c1.8-.02 3.62-.08 5.44.02 1.94 2.48 1.94 5.86 2.59 8.82 1.69.2 3.39.38 5.09.63l3.25-.05c1.6-.24 3.22-.33 4.84-.4-.88-3.68-3.21-6.92-3.58-10.73 4.88-1.98 6.76-7.26 7.85-11.98.02-1.96.44-4.05-.5-5.87-.76-2.5-3.43-3.41-5.51-4.51-9.12-.38-18.25-.22-27.37-.08m-325.04.9c-.2 1.85-.41 3.72-.87 5.54-1.67 7.98-3.13 16-5.12 23.92l-.56 3.73c4.04.02 8.08.04 12.12-.04a54.91 54.91 0 0 0 1.47-7.92c4.42-.13 8.85-.1 13.26-.42 4.67-1.01 9.36-3.31 11.26-7.98 1.4-4.05 1.96-8.47.95-12.67-2.07-3.53-6.53-4.43-10.31-4.34-7.4.08-14.81-.18-22.2.18m41.72-.23l-.72 2.7c-1.96 10.26-4.25 20.45-6.48 30.65 4.04.05 8.08 0 12.1.05.82-3.03 1.56-6.1 2.25-9.15 2.18 0 4.37.02 6.56.06.7 3 .88 6.25 2.38 8.97 4.36.2 8.75 0 13.12-.04-1.44-3.51-3.07-6.95-4.35-10.52 4.63-1.73 6.88-6.3 7.89-10.84.5-3.15.65-6.47-.95-9.34-2.64-2.14-5.96-2.46-9.2-2.93a156.1 156.1 0 0 0-12.23.03c-3.42.66-6.91.27-10.37.36m103.5.74c-5.83 2.03-8.75 8.39-8.44 14.26.46.97.9 1.94 1.34 2.93 1.07.6 2.13 1.2 3.19 1.82 3.58.98 7.34.59 11 .86 1.79.3 3.59.54 5.39.77 0 1.67-.61 3.06-2.18 3.8-6.34-.02-12.72-.3-19.05.13-1.16 1.16-1.63 2.89-2.5 4.3l-1.52 3.59c8.97.02 17.93.04 26.9-.2 4.1-.9 8.29-3.1 9.79-7.27.97-3.97 2.5-10.74-2.9-12.05-5.36-.92-10.9-.81-16.28-1.64l-.53-2.56c1.7-1.24 3.76-1.71 5.8-2.04 1.06.32 2.1.64 3.18.95l1.36 2.02c3.93-.06 7.87 0 11.8-.17-.04-2.11.15-4.3-.57-6.31-.5-2.31-2.95-3.35-4.9-4.25a75.06 75.06 0 0 0-16.94-.1c-1.3.43-2.61.82-3.93 1.16m30.89 21c-.32 1.65-.64 3.3-1.11 4.9a44.49 44.49 0 0 0-.68 6.53c3.76-.08 7.52-.08 11.28-.05.63-2.4 1.17-4.8 1.78-7.2.34-2.44.9-4.85 1.77-7.16.9 2.39 1.83 4.78 2.78 7.15 1.12 2.36 2.12 4.77 3.12 7.18 5.06-.11 10.2.45 15.17-.8l1.7.7c3.47.09 6.94.22 10.39-.03 1.84-.8 2.1-3.05 2.82-4.7 3.86-.17 7.73-.12 11.6-.13.35 1.66.72 3.3 1.08 4.97 4.32-.06 8.64-.1 12.96-.06-.58-2.71-1.12-5.43-1.72-8.13a95 95 0 0 0-.98-5.03c-.3-1.67-.56-3.34-1-4.98-.33-1.68-.65-3.36-1.08-5.01-.76-3.52-1.2-7.11-2.14-10.6-4.28.19-8.55.08-12.83.07-7.01 10.33-13.43 21.08-19.83 31.8l-2.06.8c-3.3-5.38-6.14-11.03-9.63-16.28 5.04-5.64 11.14-10.32 15.75-16.31-4.35 0-8.7-.02-13.05 0-3.94 4.17-7.6 8.64-11.74 12.59.09-1.4.29-2.8.76-4.13.62-2.81 1.26-5.61 1.67-8.45-4.02-.02-8.05.02-12.07.02-1.71 7.42-3.02 14.93-4.71 22.35m41.3-13.93c-2.86 2.85-5.82 5.62-8.63 8.53-1.5.77-1.42 2.94.39 3.14-1.91 1.56 1.54 4.7 2.36 2.05l.23-1.73c1.95-2.55 3.5-5.36 5.19-8.08 2.24-3.93 5.54-7.41 6.83-11.8-2.23 2.55-4.22 5.28-6.36 7.89m36.13-8.54c.02 2.7.07 5.4.13 8.12 2.79.03 5.58.02 8.37-.03a31.64 31.64 0 0 1-.93 6.28c-.34 1.67-.66 3.34-1.05 5-.28 1.67-.56 3.36-1.02 4.99-.66 3.12-1.4 6.23-1.62 9.4 3.66-.08 7.32.08 10.98-.03 1.76-1.06 1.27-3.44 1.92-5.12 1.14-6.91 2.8-13.73 4.4-20.55 2.9.04 5.82.04 8.72-.03 1.26-2.62 2.43-5.3 3.47-8.01-11.13-.02-22.25.07-33.37-.02m35.8 10.66c-.67 3.35-1.3 6.7-2.01 10.04l-.4.62c-.2 1.43-.41 2.85-.63 4.27a94.7 94.7 0 0 0-1.8 7.62l3.78.22c8.08.88 16.17-.64 24.28-.12-.21-2.48.69-5.4-.28-7.61-3.25-.98-6.84-.18-10.23-.41l-3.42.64.27-5.01c3.05-.25 6.13-.04 9.17-.53 1.85-.1 3.7-.13 5.55-.15l.85-2.57.52-4.7c-4.58.07-9.15.06-13.72.1l.6-4.95c4.83-.1 9.67-.05 14.5-.12 1.02-2.63 2.27-5.2 2.72-8-9.14-.05-18.28.1-27.42-.08-1.14 3.49-1.67 7.14-2.33 10.74m-35.85 3.9c.02 2.02.19 4.04.53 6.03.85-2 2.75-5.45-.53-6.02M380.2 109l.14 1.97c9.53.44 19.15.08 28.7.15 1.7.3 2.89-.85 4.03-1.91-10.95-.36-21.91-.04-32.87-.21z"/><path fill="#8c4203" stroke="#8c4203" stroke-width=".09" d="M119.55 31.7c3.7-.6 7.4-1.34 11.19-1.38 1.08.36 2.17.74 3.24 1.14.76.6 1.5 1.22 2.26 1.85-5.96-.88-11.8.75-17.72.75-3.38-1.06-6.9-1.8-10.46-1.54 3.78-.82 7.67-.3 11.49-.81z"/><path fill="#9a5200" stroke="#9a5200" stroke-width=".09" d="M133.97 31.46c1.97-.2 3.92-.5 5.87-.76 5.77-.21 11.48 1.04 17.25.66 5.67-.4 11.37-.4 17.05-.34 2.28.86 4.66 3.07 7.19 1.83 5.59-2.5 11.79-1.55 17.7-1.6 6.03.16 12.06-.37 18.08-.02 2.63.04 5.06 1.92 7.7 1.24 7.29-1.95 14.99-1.5 22.33-.07 1.8.32 3.52-.65 5.24-1.08 5.2-.46 10.42-.3 15.63-.06 1.13.64 2.25 1.32 3.37 2-7.9.33-16.17-1.33-23.67 2-3.93-3.07-9.05-1.96-13.65-2.18-3.89-.23-7.53 1.26-11.19 2.29-6.3-3.74-13.86-1.68-20.74-1.83a95.12 95.12 0 0 0-15.83-.4c-2.3.55-4.35 1.75-6.3 3.03-1.48-.86-2.93-1.73-4.45-2.5-6.97-1.28-14.05-.18-21.06-.2-6.07-.72-12.18-.25-18.26-.16-.75-.63-1.5-1.24-2.26-1.85z"/><path fill="#985700" stroke="#985700" stroke-width=".09" d="M268 31.26c19-.43 38.02-.1 57.03-.32 4.88-.12 9.75-.11 14.63-.24 3.22 0 6.46-.02 9.67.29 2.33.7 4.76.36 7.13.13 4.64.57 9.44.13 13.92 1.65-6.79-.41-13.67-.4-20.29 1.38-2.56-1-5.28-1.48-8.02-1.3-23.57.26-47.14.23-70.7.4a129.6 129.6 0 0 0-3.37-2z"/><path fill="#ed9e28" stroke="#ed9e28" stroke-width=".09" d="M376.53 34.8c2.07-1.61 4.2-3.15 6.33-4.71 18.87-.36 37.75-.04 56.63.04 2.72 2.22 6.33 1.72 9.59 1.79 3.32-.03 6.65.07 9.98.19-3.26.13-6.64.18-9.6 1.75-20.46.13-40.93.05-61.4.09a7.6 7.6 0 0 0-5.2 1.53l-3.98 2.62zM46.29 33.7c10.26.49 20.55-1.16 30.78.03l.93 2.54c-9.63-.75-19.34-.12-29-.32-3.01-.32-5.68 2.73-5.53 5.62-.05 4.22-.63 8.94 2.38 12.37l-2.71-.4c-.6-1.37-1.21-2.74-1.76-4.13.14-3.83.3-7.65.7-11.45 1.44-1.4 2.84-2.82 4.2-4.26z"/><path fill="#d77c2c" stroke="#d77c2c" stroke-width=".09" d="M439.49 30.13c8.36-.22 16.72-.1 25.08-.07 1.4.49 2.73 1.1 4.1 1.7a88.9 88.9 0 0 0-2.27 2.49c-5.62-.55-11.28-.21-16.93-.4 2.95-1.56 6.33-1.61 9.59-1.74-3.33-.12-6.66-.22-9.98-.2-3.26-.06-6.87.44-9.6-1.78z"/><path fill="#e1a534" stroke="#e1a534" stroke-width=".09" d="M101.17 34.19c2.47.84 4.62-1 6.88-1.67 3.56-.25 7.08.48 10.46 1.54-3.05.17-6.07.69-9.1 1.15-1.1 1-1.8 2.82-3.34 3.2-2.88-.83-5.64-2.05-8.57-2.71-3.58-1.33-7.49-1.5-11.03.04-2.77.83-5.68 1.77-8.48.53l-.93-2.54c4.04.58 8.01-.68 12.04-.71 4.06-.22 8.1.34 12.07 1.17z"/><path fill="#efbf43" stroke="#efbf43" stroke-width=".09" d="M136.24 33.3c6.08-.08 12.19-.55 18.26.17 7 .02 14.09-1.08 21.06.2-4.71 1.16-9.56.68-14.34.97l-1.06.83c-2.47 3.4-5.9-.63-9.07-.11-6.03-.64-12.04 1.37-18 .02-4.7-.7-9.28 1.7-13.95.7-3.2-.66-6.44-1.3-9.72-.87 3.03-.46 6.05-.98 9.1-1.15 5.93 0 11.76-1.63 17.72-.75z"/><path fill="#e7b04b" stroke="#e7b04b" stroke-width=".09" d="M271.38 33.26c23.56-.18 47.13-.15 70.7-.41 2.74-.18 5.46.3 8.02 1.3 6.61-1.77 13.5-1.8 20.28-1.38 2.07.6 4.1 1.35 6.14 2.03l2.35 3.3 3.98-2.62c-1.04 2.2-1.39 4.62-1.7 7-2.3-3.56-5.65-6.65-10.03-7.15-6.77-.56-13.9-.96-20.27 1.8-4.05-2.9-9.14-1.83-13.8-1.96-5.66-.04-11.36-.27-16.96.79-5.61-1.2-11.33-.77-17-.4-5.41-.4-10.86-.73-16.22.36a52.34 52.34 0 0 0-16.85-.03c-4.98-.61-10.03-1.08-15.03-.41-2.85.77-3.9 3.69-4.7 6.2l-1.67 1.99.16-5.27c-1.11-.8-2.21-1.6-3.34-2.35l2.27-.78c7.5-3.34 15.77-1.68 23.67-2.01zm58.27 21.1l1.37.09c1.14 3.04 4.22 3.04 6.96 2.55 1.3-.53 3.44-2.1 4.57-.6-.33 2.72-1.97 5.02-3.23 7.37-.25-2.15.55-4.17 1.3-6.13a20.9 20.9 0 0 0-9.63 1.32l-1.4-2.86zm-283-.3l2.08.37c.15 5-1.63 9.78-2.35 14.68l-2.3-1.23c2.03-4.28 3.97-9.03 2.56-13.82zM380.2 109c10.96.17 21.92-.15 32.87.2-1.14 1.07-2.32 2.22-4.02 1.92-9.56-.07-19.18.29-28.71-.15zm-44.48 5.02c5.32-.03 10.65.08 15.98-.02l1.16 1.4c-16.65-.34-33.33.76-49.96-.27 10.91-1.17 22.01.9 32.81-1.11z"/><path fill="#bc7d23" stroke="#bc7d23" stroke-width=".09" d="M37.05 41.5c.26-3.68 3.27-6.94 6.77-7.88l2.46.08a168.48 168.48 0 0 1-4.2 4.26l-2.74.15a26.3 26.3 0 0 0-1.3 12.1c.4 3.03 1.85 5.72 3.13 8.44l-1.94-.94c-.99-1.35-1.78-2.83-2.62-4.28.22-2.22.1-4.46-.15-6.68.17-1.75.32-3.5.58-5.24zm208.27 86.59c5.92-.51 11.85-1.08 17.75-.05 9.1-.11 18.25.38 27.3-.8a75.13 75.13 0 0 1 15.72.4c4.66.62 9.3-.85 13.94-.05 7.52.93 16.54-2.15 22.58 3.96-2.38 4.72-3.75 9.84-5.98 14.6-3.16 2.2-5.98 4.97-9.53 6.53-4.58 1.57-9.3 2.83-14.14 3.19-4.27.36-8.32 1.9-12.56 2.39l-1.76 1.92c-3.13.04-6.26-.05-9.37.33l-1.3.99c-3.86.79-7.82.62-11.74.64-6.36-1.35-12.8.06-19.2-.26-5.81-.23-11.63.44-17.44-.02l.43-4.4c4.39 1.13 8.73-.18 13.02-1.08 3.2-.84 5.8 2.1 8.99 1.98 4.07 0 8-1.13 11.97-1.95l2.12 1.86.5-2.94c3.88-.03 7.8 1.13 11.6-.07 2.37-.12 4.67.44 6.97.88 6.48.44 12.6-3.55 19.1-2.41 5.26-3.3 12.18-2.8 16.89-7.06 1.89-1.55 2.4-4.05 3.16-6.24.86-2.6 1.37-5.3 1.86-8-1.72-.14-3.43-.3-5.14-.35-14.83.24-29.65-.44-44.47-.07l-.43-1.33c1.32-.17 2.64-.36 3.95-.56-6.67-1.28-13.46-.18-20.2-.71-6.6.26-13.25-.9-19.82.26-2.33.34-4.68-.05-6.98-.4z"/><path fill="#ecae1d" stroke="#ecae1d" stroke-width=".09" d="M175.55 33.68c1.52.76 2.97 1.63 4.44 2.49 1.96-1.28 4.01-2.48 6.31-3.02-3.79 3.93-5.1 9.24-6 14.46l-4.1-.12c1.41-1.71 3.64-3.3 3.4-5.8.52-3.17-2.59-5.73-5.44-6.21-4.67-.3-9.35.02-14-.01l1.06-.83c4.78-.3 9.63.19 14.34-.96zM286.58 132c14.82-.37 29.64.3 44.47.07 1.96 2.43 3.06 7.35-.66 8.7-3.49.8-6.6 2.49-9.68 4.26-5.36.73-11.23-.97-16.06 2.18l-.23-1.86c-4.2 1.4-8.47 2.67-12.89 3.27-5.64 1.88-11.7 1.3-17.54 2.17-.57-1.51-.3-4.11-2.3-4.5-4.69-.52-9.83.63-13.9-2.4-2.07-2.45-1.66-5.73-1.6-8.7 5.62.3 11.24-.33 16.85.14 4.77.38 9.3-1.4 13.54-3.33z"/><path fill="#dda836" stroke="#dda836" stroke-width=".09" d="M186.3 33.15a95.12 95.12 0 0 1 15.83.39c6.89.15 14.45-1.91 20.75 1.83l-2.2.6c-5.77-.45-11.83-1.46-17.3 1.06l-1.57-.7c-4.45-1.9-9.76-1.42-14.4-.36-3.24 1.13-3.72 4.79-4.3 7.7-1.43 8.16-3.15 16.26-4.86 24.35a53.78 53.78 0 0 0-15.88 2.3c.88-3.32 1.27-6.8 2.56-10 2.21-3.11 5.15-5.63 7.51-8.64.55 1.93.72 3.95.06 5.87a50.27 50.27 0 0 0-5.9 7.43c2.17-.02 4.35-.06 6.52-.12l-.13 1.2c-2.62.3-6.74-1.84-8.18 1.23 3.6.07 7.2-.1 10.78-.14.95-1.36 2.11-2.7 2.24-4.42.85-5.04 1.33-10.14 2.46-15.12.9-5.22 2.23-10.53 6.02-14.46z"/><path fill="#d59229" stroke="#d59229" stroke-width=".09" d="M222.88 35.37c3.66-1.03 7.3-2.52 11.19-2.3 4.6.23 9.72-.88 13.64 2.2l-2.28.78c-5.2-.06-10.55-.86-15.66.27-2.95 2.12-4.42 5.64-6.38 8.6.12-2.11.22-4.21.3-6.31-1.02-.88-2.02-1.75-3-2.64z"/><path fill="#dd651e" stroke="#dd651e" stroke-width=".09" d="M466.9 35.16c1.28-.96 2.36-2.55 4.2-2.31l.5.49c1.5 3.36 2.45 7.03 1.68 10.72l-.24 1.26c-2.35.69-2.19 3.49-2 5.43l-.3 1.05c-.95-1.36-1.88-2.72-2.8-4.1a33.35 33.35 0 0 1-3.82 10.18c1.3-5.96 3.44-11.7 5.02-17.58.65-2.03-1.43-3.51-2.25-5.14z"/><path fill="#4e250d" stroke="#4e250d" stroke-width=".09" d="M471.6 33.34c3.23 2.63 2.76 7.15 1.68 10.72.78-3.7-.18-7.36-1.67-10.72z" opacity=".67"/><path fill="#bd850b" stroke="#bd850b" stroke-width=".09" d="M86.47 35.74c3.54-1.53 7.45-1.37 11.03-.04-3.68.12-7.36.1-11.03.04z"/><path fill="#7c5211" stroke="#7c5211" stroke-width=".09" d="M187.41 35.97c4.63-1.06 9.94-1.53 14.4.37-4.78-.5-9.6-.31-14.4-.37z"/><path fill="#e47d07" stroke="#e47d07" stroke-width=".09" d="M39.34 38.1l2.74-.14c-.4 3.8-.56 7.62-.7 11.45l-.36 2.95-2.99-2.15a26.3 26.3 0 0 1 1.31-12.1z"/><path fill="#d6d5cc" stroke="#d6d5cc" stroke-width=".09" d="M387.4 39.15c11.57-.03 23.14-.13 34.69.02l-.13.06c-1.35.53-2.5 1.44-3.61 2.32 2.18.96 4.4 1.82 6.58 2.83a13.99 13.99 0 0 0 2.58 6c2.84 4.16 2.94 9.4 4.88 13.92.99.56 2 1.06 3.06 1.5-.3 1.53-.68 3.02-1.04 4.52l3.4 1.74c-2.55 1.5-5.04 3.06-7.59 4.54-2.28 1.37-4.69 2.62-6.63 4.48a40.55 40.55 0 0 0-.3 4.12l-.16 1.87-1.09-.06c-.78-.42-1.55-.85-2.3-1.3l-.98 2.5-2.3-2.85-.08 3.18-.66.6-2.64-2.46c-2.97 1.94-5.6 4.54-8.96 5.8-1.04-.34-2.03-.78-3.02-1.2-4.59 2.83-9.2-1.38-12.87-3.85l.66-3.82c3.95-2.1 7.67-4.6 11.71-6.54 5-2.58 8.95-6.9 14.34-8.73 2.65-.85 4.4-3.08 5.65-5.45l2.13.24c0-2.38-.55-5.95-3.53-6.14-10.27-.37-20.57.44-30.83-.24 1.1-4.87 2.2-9.76 2.58-14.75l-3.44-.8zm-208.68 79.02c5.75-.81 11.54.1 17.32-.1 8.89.07 17.79-.11 26.68.08-12.23.29-24.48-.22-36.7.28-1.5-.01-2.97 0-4.45.05z"/><path fill="#a5928b" stroke="#a5928b" stroke-width=".09" d="M422.09 39.17c13.65-.24 27.36-.22 41.02 0-.91.84-1.91 1.58-2.88 2.33-1.13.85-2.23 1.85-2.53 3.29-1.73 6.09-3.33 12.22-5.2 18.27-2.03 1.24-4.05 2.47-6.06 3.73-1.82-1.91-3.6-3.95-4.45-6.5-2.4-6.3-7.7-10.64-12-15.58a27.18 27.18 0 0 1-8.03-5.48zm-184.8 42.5c2.14-2.6 4.13-5.33 6.36-7.87-1.3 4.38-4.6 7.86-6.83 11.79l-1.2-1.11c.55-.94 1.09-1.88 1.67-2.8zm36.08 6.04c3.28.57 1.38 4.03.53 6.02a38.04 38.04 0 0 1-.53-6.02zM362.29 120c.68-1.35.93-3.32 2.79-3.5 8.1.86 16.24 0 24.36.49-3.48.32-6.94.75-10.4 1.16 7 .74 14.06.65 21.09 1.02-6 2.05-12.43 1.34-18.63 2.04-.21 2.7.04 5.42.8 8.03 3.36.6 6.73 1.13 10.07 1.8-2.71.8-5.52 1.03-8.32 1.04 2.74.13 5.48.35 8.22.6l-4.18 1.9c11.49.67 23.06-.31 34.52.88-2.84.47-5.7.69-8.57.64-18.16-.15-36.32.1-54.47-.02 2.25-5.71 5.4-11.07 6.92-17.06-1.41.3-2.82.6-4.2.98z"/><path fill="#b7aa9f" stroke="#b7aa9f" stroke-width=".09" d="M418.35 41.55c1.12-.88 2.26-1.8 3.6-2.32A27.18 27.18 0 0 0 430 44.7c4.29 4.94 9.59 9.29 11.99 15.59.86 2.54 2.63 4.58 4.45 6.49-2.85 1.8-5.7 3.6-8.63 5.27l-3.4-1.74c.36-1.5.75-3 1.04-4.51.28-8.23-4.31-16.25-10.52-21.43-2.17-1.01-4.4-1.87-6.58-2.83z"/><path fill="#f1f6f0" stroke="#f1f6f0" stroke-width=".09" d="M76.81 46.43c3.11-5.26 9.75-5.74 15.21-6.07 4.43.19 9.32.64 12.42 4.22.86 6.63-.1 13.87-4.22 19.32-4.82 5.33-12.6 4.62-19.1 4.32-3.13.12-5.74-1.82-7.53-4.21a30.1 30.1 0 0 1 3.23-17.58m9.84 1.77a15.16 15.16 0 0 0-3.25 10.46c-.21 1.7 1.3 2.57 2.46 3.4l3.43.07c5.08-2.5 5.79-8.78 5.28-13.8a7.29 7.29 0 0 0-7.92-.13zm24.33-3.6c.38-1.52.67-3.05.93-4.6 5.6 1.04 11.48 2.43 17.06.4 3.47-.3 9.09-.21 9.67 4.27.76 7.94-2.31 15.6-3.43 23.4a172 172 0 0 1-9.9.07c.82-5.2 2.04-10.31 3.05-15.47.58-1.64-.12-3.23-.85-4.67a73.55 73.55 0 0 0-7.57.13c-.8 6.72-2.8 13.22-3.73 19.92-3.3.14-6.61.15-9.91.1 1.08-6.5 2.57-12.92 3.9-19.38.25-1.4.5-2.78.78-4.17zM219.5 61.27c4.45-6.96 8.38-14.25 13.18-20.97 2.88.13 5.76.12 8.64.03l1.93 1.06c.92 6.79 2.53 13.48 3.96 20.18.33 2.15.57 4.32.62 6.5-3.38-.1-6.76-.08-10.13-.02l-.3-3.98c-3.15-.01-6.36-.41-9.46.17a44.18 44.18 0 0 0-1.83 3.72c-3.36.08-6.7.05-10.04.1.45-2.56 2.1-4.63 3.42-6.8m12.23-4.83l-.2 1.56h5.04c-.12-3.07-.18-6.15-.3-9.22-1.8 2.38-3 5.12-4.54 7.66z"/><path fill="#f1f5f0" stroke="#f1f5f0" stroke-width=".09" d="M141.2 41.02c4.06.07 8.22-1.33 12.16.14l.46 2.65c.73 1.63.88 3.6 2.26 4.87 1.63-2.45 3.33-4.85 4.89-7.34l1.87-.95c2.36-.02 4.73-.01 7.1.12l3.1.74c-5.07 5-9.52 10.59-14.3 15.87-.7 3.68-1.53 7.34-2.33 11-3.1-.02-6.2-.02-9.28.04-.13-3.9 1.43-7.58 1.54-11.41-2.04-5.44-4.87-10.55-7.46-15.73z"/><path fill="#f3f6f2" stroke="#f3f6f2" stroke-width=".09" d="M188.88 41.2c3.3-1 6.7-.55 10.07-.2-.58 3.39-1.48 6.7-1.76 10.13 2.78-.06 5.57-.08 8.36-.03.93-3.26 1.58-6.6 2.15-9.94l2.15-.8c2.65-.02 5.3.22 7.9.72l-.88 3.4c-1.11 6.13-2.6 12.19-3.68 18.33-.43 1.7-.7 3.45-.93 5.19-3.28.06-6.57.09-9.85.04.47-3.42 1.3-6.78 1.64-10.21-2.83-.05-5.65-.04-8.46.06a66.67 66.67 0 0 0-1.44 6.85c-.28 1.1-.54 2.23-.8 3.35-3.07-.05-6.16-.04-9.24.04.8-9.1 3.8-17.85 4.77-26.93zm66.09 5.44c.49-2.15.75-4.36 1.64-6.4 3.05.14 6.1.12 9.17.07-.6 5.15-1.84 10.2-2.92 15.26l-.2 3.28 1.3 2 4.68.25c1.04-2.01 1.13-4.32 1.64-6.48.76-4.4 2.2-8.66 2.49-13.13a744 744 0 0 1 1.06-1.26c3 .1 6 .1 9.02.08-.64 7-3.85 13.75-3.21 20.85 2.54.4 5.6.65 6.76-2.23.14-1.15.3-2.31.47-3.46 1.77-4.96 1.49-10.46 3.58-15.3 3.07.18 6.14.13 9.2.13-1 5.88-2.5 11.66-3.41 17.55-1.03 3.99-2.82 8.59-7.25 9.75-5.26 1.2-10.78.6-16.14.4l-2.61-1.86c-2.02.6-4.05 1.12-6.05 1.78-2.8.42-5.63.39-8.44.19a45.13 45.13 0 0 1-3.13-3.21c-.85-6.24 1.5-12.18 2.35-18.26z"/><path fill="#f1f6f2" stroke="#f1f6f2" stroke-width=".09" d="M303.88 51.48c1.02-3.73 1.23-7.68 2.73-11.27 2.89.08 5.79.09 8.69.04l1.4 1.23c-1.33 1.05-1.06 2.87-1.44 4.34l-.9 5.12c3.04-3.66 6.25-7.16 9.44-10.7 3.4.03 6.8.05 10.2.05-3.58 4.89-8.25 9-12.54 13.3 3.1 4.54 5.92 9.32 8.27 14.3-4-.43-8.42 1.03-12.1-.81-.43-1.5-1-2.95-1.64-4.36a90.57 90.57 0 0 0-2.83-6.26c-1.32 2.82-1.4 6.03-2.23 9l-.56 2.47c-3.16-.6-7.22 1.24-9.76-.92.87-5.23 2.36-10.32 3.27-15.53z"/><path fill="#f7f7f2" stroke="#f7f7f2" stroke-width=".09" d="M335.48 49.36c1.04-2.95 1.3-6.1 2.1-9.11 2.73.02 5.44.02 8.16.02a47 47 0 0 1-1.4 6.73l-2.15.85c-2.13.92-4.35 1.73-6.71 1.5z"/><path fill="#f2f7f3" stroke="#f2f7f3" stroke-width=".09" d="M353.1 41.64c5.9-2.24 12.7-2.21 18.79-.76 3.67.78 3.76 5.17 3.7 8.17-3.25.1-6.5.1-9.73.05l-1.28-2.01c-2.76-.02-6.58-1.02-7.24 2.7 3.78 2.42 8.66.93 12.9 1.56 1.58.6 3.05 1.47 4.27 2.67.72 5.14-1.3 10.72-6.16 13.09-8.15.54-16.3.32-24.46.34.73-2.2 1.65-4.3 2.78-6.3l2.36-.8 2.95.65c3.71-1.3 7.78-.32 11.64-.54l.21-2.43c-5.4-1.74-12.35 1.23-16.4-3.83-.7-4.81.81-10.52 5.66-12.56z"/><path fill="#f1f7f2" stroke="#f1f7f2" stroke-width=".09" d="M48.69 41.06c9.09-.14 18.19-.03 27.29-.08-.53 1.62-1.1 3.22-1.65 4.82l-1.09 2.16c-2.45-.01-4.9.02-7.36.18-.52 4.63-1.77 9.12-2.66 13.68a37.97 37.97 0 0 0-1.03 6.27c-3.3.19-6.6.16-9.92.1l.63-4.71a154.45 154.45 0 0 0 3.08-15.5c-2.18.02-4.36.06-6.53.09a61.07 61.07 0 0 0-.77-7.01z"/><path fill="#b2a8a6" stroke="#b2a8a6" stroke-width=".09" d="M387.5 41.2l3.44.8c-.38 4.99-1.48 9.88-2.58 14.75 10.26.68 20.56-.13 30.83.24 2.98.19 3.52 3.76 3.53 6.14l-2.13-.24-4.3-.57a56.85 56.85 0 0 1 4.95-2.76 5.96 5.96 0 0 0-5.22-2.1c-8.68-.05-17.36-.1-26.03-.01-1.63-.2-2.83.9-3.96 1.9-.82.7-1.6 1.46-2.42 2.19.95-6.83 2.06-13.68 3.9-20.33z"/><path fill="#1f060b" stroke="#1f060b" stroke-width=".09" d="M457.7 44.79c.3-1.44 1.4-2.44 2.53-3.3.54 1.1 1.15 2.17 1.8 3.22a310.92 310.92 0 0 0-6.26 20.73c-3.5 2.25-6.66 5-10.47 6.72a20.98 20.98 0 0 0-7.3 5.46l-1.29-.14c-2.17-.24-4.34-.55-6.49-.88 2.55-1.48 5.04-3.04 7.58-4.54 2.93-1.67 5.78-3.47 8.63-5.27 2.01-1.26 4.03-2.5 6.06-3.73 1.87-6.05 3.47-12.18 5.2-18.27z"/><path fill="#cac0b6" stroke="#cac0b6" stroke-width=".09" d="M424.93 44.38c6.2 5.18 10.8 13.2 10.52 21.43a31.03 31.03 0 0 1-3.06-1.51c-1.94-4.52-2.04-9.76-4.88-13.92a13.99 13.99 0 0 1-2.58-6z"/><path fill="#62320e" stroke="#62320e" stroke-width=".09" d="M471.05 50.75c-.2-1.94-.35-4.74 2-5.43-.15 1.97-.61 3.95-2 5.43z" opacity=".73"/><path fill="#856c62" stroke="#856c62" stroke-width=".09" d="M32.7 48.32c1.1-.73 2.24-1.36 3.4-2 .15 2.37.23 4.75.51 7.1.85 1.46 1.64 2.94 2.63 4.29l-1.7 2.1c-1.9-3.4-2.15-7.3-2.61-11.07z" opacity=".94"/><path fill="#0c0408" stroke="#0c0408" stroke-width=".09" d="M86.66 48.2a7.29 7.29 0 0 1 7.92.14c.5 5-.2 11.3-5.28 13.79l-3.43-.07c-1.17-.83-2.68-1.7-2.47-3.4-.22-3.76.87-7.53 3.25-10.46z"/><path fill="#e8a309" stroke="#e8a309" stroke-width=".09" d="M172.44 51.68a71.1 71.1 0 0 1 3.76-4.2l4.1.13c-1.14 4.98-1.62 10.08-2.47 15.12-.13 1.73-1.29 3.06-2.24 4.42-3.59.04-7.19.2-10.78.14 1.44-3.07 5.56-.92 8.18-1.22l.13-1.21a87.2 87.2 0 0 1 1.36-8.8l-1.98 1.49a9.72 9.72 0 0 0-.06-5.87z"/><path fill="#ec8d14" stroke="#ec8d14" stroke-width=".09" d="M467.94 47.7c.93 1.38 1.86 2.74 2.8 4.1-1.77 5.79-2.37 11.9-4.57 17.57l.32-5.38c-1.17.32-3.2.3-1.95 2.62-.7-1.1-1.42-2.17-2.1-3.27a56.5 56.5 0 0 1 1.68-5.46 33.35 33.35 0 0 0 3.81-10.17z"/><path fill="#998e8a" stroke="#998e8a" stroke-width=".09" d="M32.7 48.32l2.22.42c.46 3.78.71 7.67 2.62 11.07-.85 1.04-1.69 2.08-2.5 3.15-.35-3.71-.83-7.55-3.29-10.54.15-1.27.32-2.54.55-3.8z"/><path fill="#22171f" stroke="#22171f" stroke-width=".09" d="M231.74 56.43c1.54-2.54 2.74-5.28 4.53-7.66.13 3.07.19 6.15.3 9.22h-5.04z"/><path fill="#ada4a2" stroke="#ada4a2" stroke-width=".09" d="M25.48 54.22c2.21-1.94 4.54-3.74 6.82-5.6-.22 1.26-.4 2.53-.54 3.8 2.45 2.99 2.93 6.83 3.28 10.54l-.47.69-1.21 1.69c-5.58.18-11.12-.51-16.65-1.22l.64-.86c4.98.3 9.89-.65 14.67-1.98l-3.45-5.02 1.12-1.82z"/><path fill="#eaac0a" stroke="#eaac0a" stroke-width=".09" d="M41.38 49.4c.54 1.4 1.15 2.77 1.75 4.14l2.71.4.8.12c1.41 4.79-.53 9.54-2.57 13.82l-1.75-.04-.58-4.26-1.07 2.76c-5.32.16-10.75 1.18-16-.18-2.6-1.67-5.73-1.46-8.66-1.08l.7-.96c5.52.7 11.06 1.4 16.64 1.22l1.21-1.7-.6 1.63 6.51.07c.3-2.18 1.68-4.55.7-6.7-1.28-2.71-2.74-5.4-3.14-8.43l3 2.15z"/><path fill="#b4b5b7" stroke="#b4b5b7" stroke-width=".09" d="M25.48 54.22l4.2.22-1.12 1.82 3.45 5.02c-4.77 1.33-9.68 2.29-14.66 1.98 2.31-3.34 5.21-6.23 8.13-9.04z"/><path fill="#280000" stroke="#280000" stroke-width=".09" d="M172.5 57.55l1.98-1.48a87.2 87.2 0 0 0-1.36 8.79c-2.17.06-4.35.1-6.52.12a50.27 50.27 0 0 1 5.9-7.43z"/><path fill="#f7b012" stroke="#f7b012" stroke-width=".09" d="M331.3 58.86a20.9 20.9 0 0 1 9.31-1.22c-.74 1.96-1.54 3.98-1.29 6.13l.02.9c-.9 1.28-1.2 3.78-3.25 3.6-1.07-3.38-3.28-6.23-4.79-9.41z"/><path fill="#392023" stroke="#392023" stroke-width=".09" d="M386.04 59.35c1.13-1 2.33-2.1 3.96-1.9 8.67-.1 17.35-.04 26.03 0 2-.12 3.94.5 5.22 2.1a56.85 56.85 0 0 0-4.95 2.77l-.3.2c-6.3-.52-12.63-1.34-18.95-.76-3.27.1-6.53-.23-9.79-.46z"/><path fill="#36171b" stroke="#36171b" stroke-width=".09" d="M37.55 59.8l1.69-2.1 1.93.95c.98 2.14-.4 4.5-.7 6.69l-6.52-.07.61-1.62.48-.7c.81-1.06 1.65-2.1 2.5-3.14z"/><path fill="#eaebe8" stroke="#eaebe8" stroke-width=".09" d="M416 62.52l.3-.2 4.3.57c-1.26 2.37-3 4.6-5.65 5.45-5.4 1.84-9.35 6.15-14.34 8.73-4.04 1.94-7.76 4.44-11.71 6.54-.9-.28-1.76-.58-2.62-.91l.1-2.03.02-.21c10-5.73 19.9-11.7 29.6-17.94z"/><path fill="#f0b83a" stroke="#f0b83a" stroke-width=".09" d="M41.74 63.58l.58 4.26C33.88 67.42 25.2 69 17 66.37c2.55-.26 5.11-.41 7.67-.21 5.25 1.36 10.68.34 16 .18z"/><path fill="#f3b31a" stroke="#f3b31a" stroke-width=".09" d="M462.44 63.34c.68 1.1 1.4 2.18 2.1 3.27-1.26-2.32.78-2.3 1.95-2.62l-.32 5.38c-.54 1.48-1.27 2.89-1.99 4.3-4.1 4.05-9.8 5.8-14.07 9.6a35.2 35.2 0 0 1 5.74 4.74 34.01 34.01 0 0 1 4.8 7c.75 5.3-.1 10.59-1.16 15.76-.2-3.54-.43-7.12-1.56-10.5-1.47-8.83-8.9-14.98-16.93-17.87 5.25-4.27 11.5-7.01 17.15-10.68 3-1.7 3.38-5.4 4.3-8.38z"/><path fill="#69555a" stroke="#69555a" stroke-width=".09" d="M7.47 73.53c1.18-4.01 4.4-7.5 8.54-8.45 2.93-.38 6.06-.6 8.66 1.08-2.56-.2-5.12-.05-7.67.2l-.88.09c-4.93.23-7.16 5-8.42 9.09zm158.28 84.12c4.36.29 8.94.09 12.89 2.28a32.22 32.22 0 0 0 6.8 2.12l.18 2.84 3.65-2.06c-.09 3.09 2.43 4.82 4.92 6.03a716.86 716.86 0 0 1-23.16-2.22l-.72-2.84-4.44-.31z"/><path fill="#c4902c" stroke="#c4902c" stroke-width=".09" d="M378.72 65.89l2.4 1.32c5.22-.76 10.49.99 15.77.06a123 123 0 0 0-2.05 1.87l-.32-.03a44.56 44.56 0 0 0-6.11-.13c-1.37.02-3.6 2.63-4.07-.04l1.66-1.6c-1.3.1-2.6.17-3.92.23l-1.8 1.93 1.58 2.98c-2.06-.45-3.84-1.55-5.62-2.62zm-362.6.56l.89-.08c8.2 2.63 16.88 1.05 25.32 1.47l1.75.04 2.3 1.23c-5.1 0-10.2-.11-15.3-.03-5.12.16-10.46-.74-15.32 1.36l-1.24-.91zm308.98 80.03c4-.1 6.5-3.64 9.24-6.05-.75 2.19-1.27 4.69-3.16 6.24-4.71 4.26-11.63 3.76-16.88 7.06-6.5-1.14-12.63 2.85-19.11 2.4-2.3-.43-4.6-1-6.96-.87l-3.48-1.06c2.58-2.24 5.95-2.85 9.27-2.54 6.5.93 12.65-1.6 19-2.42 4.03-.91 7.9-2.5 12.08-2.76z"/><path fill="#423a3c" stroke="#423a3c" stroke-width=".09" d="M67.94 66.83c1.45-1.13 3.13 1.36 1.7 2.39-1.44 1.13-3.16-1.37-1.7-2.4z"/><path fill="#cb7f0f" stroke="#cb7f0f" stroke-width=".09" d="M7.7 75.54c1.26-4.08 3.49-8.86 8.41-9.1l-1.6 3.09a65.82 65.82 0 0 0-5.64 20.74c-2.2-1.65-3.14-4.22-3.56-6.84.64-3.32 1.25-6.65 2.17-9.9z"/><path fill="#e1b464" stroke="#e1b464" stroke-width=".09" d="M388.4 68.98c2.03-.14 4.07-.01 6.11.13-3.8 2.27-7.75 4.28-11.4 6.79-2.1-1.83-1.1-4.3-.36-6.54.6.86.97 1.83 1.13 2.89l3.64.1z"/><path fill="#c78a24" stroke="#c78a24" stroke-width=".09" d="M8.87 90.27a65.82 65.82 0 0 1 5.65-20.74l1.24.9c-3.16 12.1-5.25 24.42-7.9 36.63-.74 2.87.82 6.8 4.12 7.04 5.74.4 11.5.12 17.23-.1-1.49 1.1-3.4.87-5.16.88-4.84-.16-9.72-.4-14.5.52l-1.07.17c-1.73-2.5-3.6-5.34-2.89-8.53 1.2-5.57 2.8-11.07 3.27-16.77z"/><path fill="#daa734" stroke="#daa734" stroke-width=".09" d="M140.53 70.63c1.35 1.5 2.68 3.05 4.06 4.55 3.75-.04 7.5-.04 11.27-.11-4.03 5.09-5.85 12.06-3.7 18.33 1.16 2.7-1.53 4.88-2.6 7.13l-.67 1-1.07-1.57c.78-1.74 1.9-3.41 2.1-5.34-.11-3.01-1.4-5.97-.73-8.98.65-3.35 1.59-6.64 2.32-9.97-2.7.1-5.37.25-8.05.38l-.91 2.6c-1.35-2.47-2.77-5.1-2.02-8.02z"/><path fill="#b2a298" stroke="#b2a298" stroke-width=".09" d="M98.23 75.65c-.56-2.64 1.58-3.74 3.85-3.74-.9 1.59-2.1 3.03-3.85 3.74zm342.93 17.38a34.14 34.14 0 0 1 6.22 4.17c1.53 4.08 1.64 8.46 1.22 12.75-1.84 7.07-3.92 14.7-9.76 19.58-4.45 3.94-10.47 5.33-16.23 5.93-11.46-1.2-23.03-.21-34.52-.88l4.18-1.9c-2.74-.25-5.48-.47-8.22-.6 2.8-.01 5.6-.24 8.32-1.04-3.34-.67-6.71-1.2-10.06-1.8a22.23 22.23 0 0 1-.81-8.03c6.2-.7 12.63 0 18.63-2.04-7.03-.37-14.08-.28-21.1-1.02 3.47-.41 6.93-.84 10.4-1.16 7.48-.45 15.08-1.04 22.5-.06-.54.39-1.07.79-1.58 1.2 2.2 1.23 5.03 3.26 7.37 1.03 2.33-1.24.02-3.46-1.33-4.36.57-.97 1.12-1.95 1.7-2.92l1.53 3.5 2.95-2a27.88 27.88 0 0 1-3.1 8.32l2.02-.5a40.02 40.02 0 0 0 2.99-9.11l2.27 1.22-.22-3.18c2.57-1.36 5.64-2.15 7.63-4.36.83-3.03-.34-6.92 3.24-8.52l-2.4-1.9c2.06-.75 4.1-1.52 6.16-2.32z"/><path fill="#f1f7f1" stroke="#f1f7f1" stroke-width=".09" d="M100.19 83.75c1.97-5.96 7.74-9.9 13.85-10.51 4.7-.35 9.44-.37 14.15.07 2.6.89 5.61 1.52 7.17 4.03 1.85 2.37 1.28 5.53 1.25 8.3-.47 4.66-1.49 9.43-4 13.44a8.76 8.76 0 0 0-1.22 3.3l-1.76-.22-.02.9c-6.2 4.52-14.26 4.3-21.56 3.88-4.2-.25-8.54-2.1-10.4-6.12-.49-5.81.66-11.6 2.53-17.07m10.6 4.7c-.8 3.63-1.98 8.34 1.84 10.7 1.9-.02 3.77-.06 5.66-.11 3.61-2.28 5.2-6.42 5.67-10.5.26-1.34.46-2.7.6-4.06-.77-1.06-1.49-2.16-2.4-3.1-2.02-.57-4.15-.22-6.2-.23-2.62 1.7-4.1 4.45-5.17 7.3z"/><path fill="#f3f7f3" stroke="#f3f7f3" stroke-width=".09" d="M344.9 73.19c9.12-.14 18.25-.3 27.37.08 2.08 1.1 4.75 2.02 5.5 4.5.94 1.83.52 3.92.5 5.88-1.09 4.72-2.97 10-7.85 11.98.37 3.8 2.7 7.05 3.58 10.74-1.62.06-3.24.15-4.84.39l-3.25.05c-1.7-.25-3.4-.43-5.09-.63-.65-2.96-.65-6.34-2.59-8.82-1.82-.1-3.63-.04-5.44-.02l-1.04 2.1-.44 3.37c-.62 1.35-.4 3.34-1.87 4.14-1.5-.01-3-.13-4.48-.37-2.17.25-4.36.3-6.54.32.18-1.4.43-2.77.76-4.14.62-3.06 1.25-6.13 1.77-9.21 1.47-6.76 3.02-13.51 3.94-20.36m9.2 16.15c2.98.04 5.98.02 8.97-.25l1.45-1.05a8.75 8.75 0 0 0 .94-5.46l-2.26-1.3c-2.5-.06-5.03-.08-7.54-.06a62.56 62.56 0 0 0-1.57 8.12z"/><path fill="#f0f6f0" stroke="#f0f6f0" stroke-width=".09" d="M19.86 74.09c7.39-.36 14.8-.1 22.2-.18 3.77-.1 8.23.8 10.3 4.34 1.02 4.2.46 8.62-.94 12.67-1.9 4.67-6.6 6.97-11.27 7.98-4.4.32-8.83.29-13.25.42a54.91 54.91 0 0 1-1.47 7.92c-4.04.08-8.08.06-12.12.04l.56-3.73c1.99-7.91 3.45-15.94 5.12-23.92.46-1.82.67-3.7.87-5.54M30.65 82c-.67 3.04-1.3 6.09-2.06 9.1 3.52-.02 7.25.52 10.43-1.34l1.37-2.2c.09-1.4.18-2.8.25-4.2-2.97-1.97-6.63-1.25-10-1.36z"/><path fill="#f1f6f1" stroke="#f1f6f1" stroke-width=".09" d="M61.58 73.86c3.46-.1 6.95.3 10.37-.36 4.07-.17 8.16-.18 12.24-.03 3.23.47 6.55.79 9.19 2.93 1.6 2.87 1.46 6.19.95 9.34-1.01 4.55-3.26 9.1-7.9 10.84 1.28 3.57 2.91 7 4.35 10.52-4.37.05-8.76.25-13.12.04-1.5-2.72-1.67-5.97-2.38-8.97-2.19-.04-4.38-.06-6.56-.06-.69 3.06-1.43 6.12-2.24 9.15-4.03-.05-8.07 0-12.1-.05 2.22-10.2 4.51-20.4 6.47-30.64l.73-2.71m10.19 8.2c-.3 2.7-.92 5.36-1.5 8 3.73-.28 8.25 1.03 11.18-1.97.55-1.91.29-3.9.02-5.83a62.8 62.8 0 0 0-9.7-.2z"/><path fill="#f2f7f1" stroke="#f2f7f1" stroke-width=".09" d="M165.09 74.6c1.32-.34 2.63-.73 3.93-1.16a75.06 75.06 0 0 1 16.95.1c1.94.9 4.39 1.94 4.89 4.25.71 2.02.52 4.2.56 6.3-3.93.19-7.87.12-11.8.18l-1.36-2.02c-1.07-.31-2.12-.63-3.17-.95-2.05.33-4.1.8-5.8 2.04l.52 2.56c5.4.83 10.92.72 16.3 1.64 5.4 1.3 3.85 8.08 2.88 12.05-1.5 4.18-5.69 6.38-9.79 7.28-8.97.23-17.93.2-26.9.19l1.53-3.6c.86-1.4 1.33-3.13 2.5-4.3 6.32-.42 12.7-.14 19.04-.12 1.57-.74 2.2-2.13 2.18-3.8-1.8-.23-3.6-.46-5.38-.77-3.67-.27-7.43.12-11-.86-1.06-.62-2.12-1.22-3.2-1.82a97.2 97.2 0 0 0-1.34-2.93c-.3-5.87 2.61-12.23 8.45-14.26z"/><path fill="#f2f7f2" stroke="#f2f7f2" stroke-width=".09" d="M195.97 95.6c1.7-7.41 3-14.92 4.71-22.34 4.02 0 8.05-.04 12.07-.02-.4 2.84-1.05 5.64-1.67 8.45a15.29 15.29 0 0 0-.76 4.13c4.16-3.95 7.8-8.42 11.75-12.58 4.35-.03 8.7-.01 13.05-.01-4.61 5.99-10.71 10.67-15.75 16.3 3.49 5.26 6.33 10.9 9.63 16.29l2.06-.8c6.4-10.72 12.82-21.47 19.83-31.8 4.28 0 8.55.12 12.83-.06.95 3.48 1.38 7.07 2.14 10.59.43 1.65.75 3.33 1.09 5 .43 1.65.69 3.32.99 4.99a95 95 0 0 1 .98 5.03c.6 2.7 1.14 5.42 1.72 8.13-4.32-.03-8.64 0-12.96.06-.36-1.66-.73-3.31-1.08-4.97-3.87 0-7.74-.04-11.6.14-.72 1.64-.98 3.89-2.82 4.69-3.45.25-6.92.12-10.38.04l-1.71-.7c-4.97 1.24-10.11.68-15.17.79-1-2.41-2-4.82-3.12-7.18-.95-2.37-1.87-4.76-2.78-7.15a33.27 33.27 0 0 0-1.77 7.17c-.61 2.39-1.15 4.8-1.78 7.19a385.6 385.6 0 0 0-11.28.05c.06-2.2.3-4.37.68-6.52.47-1.61.79-3.26 1.1-4.9m58.16-11.96l.2 1.04c-1 2.24-2.1 4.44-3.11 6.69a4.1 4.1 0 0 0-1.87 3.65c2.35 0 4.7-.02 7.07-.05-.15-3.61-.2-7.24-.58-10.83z"/><path fill="#f1f8f3" stroke="#f1f8f3" stroke-width=".09" d="M273.42 73.14c11.12.09 22.24 0 33.37.02a105.17 105.17 0 0 1-3.47 8c-2.9.08-5.81.08-8.71.04-1.6 6.82-3.27 13.64-4.41 20.55-.65 1.68-.16 4.06-1.92 5.12-3.66.1-7.32-.05-10.98.04.21-3.18.95-6.3 1.61-9.41.46-1.63.74-3.32 1.02-5 .4-1.65.71-3.32 1.05-5 .55-2.04.8-4.15.93-6.27-2.79.05-5.58.06-8.37.03-.06-2.71-.1-5.42-.13-8.12z"/><path fill="#f3f8f4" stroke="#f3f8f4" stroke-width=".09" d="M309.21 83.8c.66-3.6 1.2-7.25 2.33-10.74 9.14.19 18.28.03 27.42.08-.45 2.8-1.7 5.37-2.7 8-4.84.07-9.68.03-14.51.12-.2 1.65-.41 3.3-.6 4.96 4.57-.05 9.14-.04 13.72-.1l-.52 4.69-.85 2.57c-1.85.02-3.7.06-5.55.15-3.04.49-6.12.28-9.17.53l-.27 5 3.42-.63c3.39.23 6.98-.57 10.23.4.97 2.22.07 5.14.28 7.62-8.11-.52-16.2 1-24.28.12l-3.79-.22a94.7 94.7 0 0 1 1.8-7.62c.22-1.42.43-2.84.63-4.27l.4-.62c.71-3.34 1.34-6.7 2.01-10.04z"/><path fill="#19070a" stroke="#19070a" stroke-width=".09" d="M450.12 83.27c4.27-3.8 9.97-5.55 14.07-9.6a25.48 25.48 0 0 0-1.2 3.3c-.7 4.58-4.8 7.33-7.13 11.04a35.2 35.2 0 0 0-5.74-4.74z"/><path fill="#eea107" stroke="#eea107" stroke-width=".09" d="M143.46 76.05c2.68-.13 5.36-.27 8.05-.38-.73 3.33-1.67 6.62-2.32 9.97-.66 3 .62 5.97.74 8.98-.2 1.93-1.33 3.6-2.11 5.34-1.21-1.78-2.76-3.31-3.91-5.12.4-5.2 2.05-11.15-1.17-15.78l-.2-.41z"/><path fill="#341815" stroke="#341815" stroke-width=".09" d="M423.6 81.08c1.94-1.86 4.35-3.11 6.63-4.48 2.15.33 4.32.64 6.49.88a66.77 66.77 0 0 1-8.08 4.75l-.05 1.57-1.7-.3a45.46 45.46 0 0 0-3.6 1.7c.03-1.38.13-2.75.3-4.12z"/><path fill="#4a2225" stroke="#4a2225" stroke-width=".09" d="M455.86 88c2.33-3.7 6.43-6.45 7.13-11.03l2.12 2c.46 5.28.37 10.59-.04 15.87l-1 1.17c1.04-5.1 1.59-10.33.42-15.45-1.44 2.9-3.06 5.83-3.54 9.09.17 2.74.83 5.43 1.2 8.15-.49-.94-.99-1.86-1.5-2.78a34.01 34.01 0 0 0-4.8-7.01z"/><path fill="#f3b518" stroke="#f3b518" stroke-width=".09" d="M142.74 79.06c3.22 4.63 1.58 10.58 1.17 15.78 1.15 1.8 2.7 3.34 3.9 5.12l1.07 1.57.68-1c-1.34 2.9-3.39 5.84-2.92 9.19.82 1.67 2.2 2.96 3.49 4.26 4.39 2.03 9.32 1.28 13.99 1.4 6.36-.1 12.9.9 19.07-1.17 2.8-1.06 5.78-.76 8.67-.34 4.73.44 9.5.3 14.24.2 1.87.02 3.41-1.2 5.02-1.95l1.87 1.9c10.03.14 20.07.22 30.1.03 3 .18 4.88-2.26 6.05-4.66l2.7-.33c.85 1.46 1.7 2.94 2.62 4.36l.72.77a3.34 3.34 0 0 0 2.87 1.45c10.26.63 20.76-1.18 30.88 1-4.14 1.46-8.57 1.02-12.87 1.1-9.27-.02-18.55.4-27.8-.28l-1.22-.07c-2.54 1.14-5.04 2.75-7.94 2.5-10.7-.18-21.44.5-32.1-.57-5.96.7-12 .89-18 .43l-2.98-1.32c12.22-.5 24.47 0 36.7-.28-8.9-.2-17.8-.01-26.68-.07-5.78.19-11.57-.72-17.32.09l2.85.3c-9.68 2.48-19.72 1.09-29.58 1.55-3.36.09-7.26.15-9.63-2.67-2.78-2.27-3.05-5.95-3.78-9.2l-.82-.57-1.7-.9c4.49-8.35 8.5-17.98 6.68-27.62m48.96 36.38c5.1.3 10.23.3 15.34.16l1.59-.7c-3.86-.25-7.72 0-11.57-.1-1.8.05-3.74-.33-5.36.64z"/><path fill="#0d0109" stroke="#0d0109" stroke-width=".09" d="M110.78 88.46c1.06-2.86 2.55-5.6 5.17-7.31 2.05 0 4.18-.34 6.2.24.91.93 1.63 2.03 2.4 3.09a42.68 42.68 0 0 1-.6 4.06c-.47 4.08-2.06 8.22-5.67 10.5-1.89.05-3.77.09-5.66.1-3.82-2.35-2.64-7.06-1.84-10.68m4.94 5.66c2.87-.8 2.57-4.17 2.96-6.48-2.34 1.26-2.78 4.08-2.96 6.48z"/><path fill="#9b8e8a" stroke="#9b8e8a" stroke-width=".09" d="M385.45 81.24l.93-.57-.1 2.03c.86.33 1.73.63 2.62.9l-.66 3.83c-.75 3.63-1.76 7.24-1.79 10.98-1.84.97-3.52 2.19-5.2 3.4l1.05-6.26c.98-4.78 1.8-9.63 3.15-14.31z"/><path fill="#7c616d" stroke="#7c616d" stroke-width=".09" d="M460.94 89.65c.48-3.26 2.1-6.18 3.54-9.1 1.17 5.13.62 10.37-.42 15.46l-.57.65-1.28 1.47-.05-.33c-.38-2.72-1.04-5.41-1.21-8.15z"/><path fill="#0c030b" stroke="#0c030b" stroke-width=".09" d="M30.64 82c3.36.12 7.02-.6 10 1.38l-.26 4.2-1.37 2.19c-3.17 1.86-6.9 1.32-10.42 1.35.77-3.02 1.39-6.07 2.06-9.11z"/><path fill="#0d050b" stroke="#0d050b" stroke-width=".09" d="M71.77 82.06a62.8 62.8 0 0 1 9.7.2c.27 1.93.53 3.92-.02 5.83-2.93 3-7.45 1.69-11.17 1.98.57-2.65 1.19-5.3 1.49-8.01z"/><path fill="#f3b52c" stroke="#f3b52c" stroke-width=".09" d="M228.65 90.2c2.8-2.9 5.77-5.67 8.64-8.52-.58.92-1.12 1.86-1.67 2.8l1.2 1.1c-1.68 2.73-3.24 5.54-5.2 8.09l-.22 1.73a2.77 2.77 0 0 0-2.36-2.05c-1.81-.2-1.9-2.37-.4-3.14z"/><path fill="#11040d" stroke="#11040d" stroke-width=".09" d="M354.08 89.34c.32-2.74.9-5.44 1.57-8.12 2.51-.02 5.03 0 7.54.06l2.26 1.3c.22 1.9.02 3.78-.94 5.46l-1.45 1.05c-2.99.27-5.99.29-8.98.25z"/><path fill="#cb6d14" stroke="#cb6d14" stroke-width=".09" d="M1.76 101.7c.76-6.17 2.36-12.2 3.54-18.27.42 2.62 1.36 5.19 3.56 6.84-.47 5.7-2.07 11.2-3.26 16.77-.71 3.19 1.16 6.03 2.89 8.53l-.42 3.7a9.03 9.03 0 0 1-6.5-7.54c-.33-3.34-.01-6.7.2-10.03z"/><path fill="#908d8c" stroke="#908d8c" stroke-width=".09" d="M254.13 83.65l1.7.5c.38 3.59.43 7.22.58 10.83-2.36.03-4.72.05-7.07.05a4.1 4.1 0 0 1 1.88-3.65l-1.13 2.74h5.7a80.7 80.7 0 0 0-1.45-9.43z"/><path fill="#a69189" stroke="#a69189" stroke-width=".09" d="M423.3 85.2a45.46 45.46 0 0 1 3.6-1.7l1.69.3c3.5.92 7.08 1.84 10.33 3.5l-4.5 2.46c-3-1.16-6.13-2.03-9.3-2.58l-1.98-.11z"/><path fill="#0e0607" stroke="#0e0607" stroke-width=".09" d="M251.22 91.38c1-2.25 2.1-4.45 3.12-6.7a80.7 80.7 0 0 1 1.45 9.44h-5.7z"/><path fill="#d0cbc1" stroke="#d0cbc1" stroke-width=".09" d="M416.45 85.36l2.31 2.85.98-2.5c.75.45 1.52.88 2.3 1.3l1.1.06 1.98.1 1.43 1.68-2.77 5.29c-2.56-.01-5.11.26-7.6.82l3.66.95 1.13 2.66-2.45.6c-10.65-1.14-21.37-.7-32.06-.76.03-3.74 1.04-7.35 1.78-10.98 3.67 2.47 8.28 6.68 12.87 3.86.99.4 1.98.85 3.02 1.19 3.36-1.26 5.99-3.86 8.96-5.8l2.64 2.47.65-.61z"/><path fill="#c2b9ac" stroke="#c2b9ac" stroke-width=".09" d="M425.12 87.18c3.17.55 6.3 1.42 9.3 2.58 2.28 1 4.5 2.15 6.74 3.27-2.05.8-4.1 1.57-6.15 2.33l2.39 1.89c-3.58 1.6-2.41 5.49-3.24 8.52-2 2.2-5.06 3-7.63 4.36l.22 3.18-2.27-1.22a40.02 40.02 0 0 1-3 9.1l-2 .5a27.88 27.88 0 0 0 3.09-8.3c.35-1.92.65-3.85.9-5.78.29-2.71-.44-5.53-2.83-7.1l-2.12-1.33 2.45-.61-1.13-2.66-3.66-.95c2.49-.56 5.04-.83 7.6-.82l2.77-5.3z"/><path fill="#8d7069" stroke="#8d7069" stroke-width=".09" d="M438.92 87.3l.29-.16c4.12 1.9 8.2 4.22 10.96 7.95l-2.8 2.1a34.14 34.14 0 0 0-6.22-4.16c-2.23-1.12-4.46-2.26-6.74-3.27z"/><path fill="#f3c544" stroke="#f3c544" stroke-width=".09" d="M298.42 93.64c.6-2.5.54-6.33 4.2-5.77-1.44 7.2-3.3 14.32-4.19 21.6l-3.14-.13a468.3 468.3 0 0 0 3.12-15.7z"/><path fill="#907945" stroke="#907945" stroke-width=".09" d="M229.03 93.35c1.22.2 2.01.89 2.36 2.05-.81 2.65-4.26-.5-2.35-2.05z"/><path fill="#422020" stroke="#422020" stroke-width=".09" d="M450.17 95.09l.49-.37c.57 1.26 1.19 2.52 1.69 3.82-.01 2.1-.13 4.22-.24 6.33-.56-1.04-1.11-2.08-1.65-3.13a39.7 39.7 0 0 1-1.86 8.2c.42-4.28.3-8.66-1.22-12.74.92-.71 1.85-1.41 2.79-2.11z"/><path fill="#270f12" stroke="#270f12" stroke-width=".09" d="M380 102.62c.3-2.48.61-5.1 2.3-7.07l-1.05 6.26c1.68-1.21 3.36-2.43 5.2-3.4 10.7.06 21.41-.38 32.06.77l2.12 1.34c-.8.78-1.58 1.57-2.37 2.36-7.42-.65-14.85.22-22.28-.08-5.33-.01-10.67-1.08-15.98-.18z"/><path fill="#f5a918" stroke="#f5a918" stroke-width=".09" d="M460.65 95.02c.51.92 1.01 1.84 1.5 2.78l.06.33c.53 5.73 1.18 11.62-.13 17.3-1.3 5.18-2.82 10.33-5.23 15.1l-2.15-7.27c2.74-7.28 4.34-15.22 3.22-23 1.13 3.39 1.36 6.97 1.56 10.5 1.07-5.16 1.91-10.45 1.17-15.74z"/><path fill="#5b2110" stroke="#5b2110" stroke-width=".09" d="M462.22 98.13l1.28-1.47c-.27 6 1.13 12.13-.37 18.05-2.1 6.93-3.87 14.14-8.18 20.09.63-1.42 1.26-2.85 1.9-4.26 2.41-4.78 3.93-9.93 5.23-15.11 1.32-5.68.67-11.57.14-17.3zm-324.46 9.45l.82.58c.73 3.24 1 6.92 3.78 9.19 2.37 2.82 6.27 2.76 9.63 2.67l-.62 1.8c7.12 1.82 14.46.6 21.69.54 3.6.04 7-1.35 10.56-1.6 6.48 1.67 13.18 1.18 19.8 1.24 13.19-.04 26.4.74 39.58-.31 7-1.2 14.04.6 21.08.46 7.64-.07 15.3.18 22.95-.25 3.95-.62 8.36-.04 11.78-2.53 10.9.1 21.8-.11 32.72.04-9.05 2.43-18.6.08-27.81 1.57 7.94 1.99 16.2.4 24.28.85 6.55.52 13.68-.85 19.52 2.98-.68 1.5-1.33 3.04-1.98 4.56-1.9 5.03-5.8 9.62-5.26 15.28-.17 2.7 1.33 5.04 3.1 6.95l2.08 1.48 1.02.65-4.07-.1a15.06 15.06 0 0 0-5.55-1.7l-.24-5.77c2.23-4.77 3.6-9.9 5.98-14.61l1.21-2.91c-2.49-1.47-4.82-3.4-7.66-4.1-2.68-.4-5.39-.25-8.08-.25-17.67.36-35.37-1-53 .62-8.95.74-17.83-.85-26.76-.71-13.38 1.22-26.8.6-40.22.67-8.67-.47-17.36-.92-26.03-.31-8.64.87-17.34.72-26 .87-6.37.47-10.92-6.22-17.29-5.28-10.69 3.14-21.39 6.94-32.67 7.1a10.93 10.93 0 0 0-8.57 3.47l-1.37 1.06-1.03-1.52c-1.43-.46-2.89-.82-4.34-1.23.87-4.31 5.78-4.15 9.14-5.21l1.02-1.9c8.27 1.98 16.71.45 24.86-1.27 4.85-.58 9.24-2.88 14.02-3.75-.86-2.7-1.75-5.38-2.45-8.12z"/><path fill="#1d0a0c" stroke="#1d0a0c" stroke-width=".09" d="M452.35 98.54c1.3 2.53.97 5.42.65 8.14-.5 3.84-.7 7.83-2.44 11.36-2.5 5.5-4.55 11.75-9.82 15.28-4.41 3.72-10.07 5.55-15.8 5.73-11.55 1.65-23.22.75-34.83.94-10.6-.12-21.2.3-31.8-.15.35-1.05.68-2.1 1-3.15l.26-.61c18.15.12 36.3-.13 54.47.02 2.86.05 5.72-.17 8.56-.64 5.76-.6 11.78-2 16.23-5.93 5.84-4.88 7.92-12.51 9.76-19.58a39.7 39.7 0 0 0 1.86-8.21c.54 1.05 1.1 2.09 1.65 3.13.11-2.11.23-4.22.24-6.33z"/><path fill="#644b4e" stroke="#644b4e" stroke-width=".09" d="M420.63 100.52c2.4 1.56 3.12 4.38 2.84 7.09l-3.16-2.34-.86 2.49a16 16 0 0 0-1.19-4.88c.8-.8 1.57-1.58 2.37-2.36z"/><path fill="#773a00" stroke="#773a00" stroke-width=".09" d="M.04 101.84a99.6 99.6 0 0 1 1.72-.14c-.2 3.33-.53 6.69-.2 10.03a9.03 9.03 0 0 0 6.5 7.55c5.77.45 11.6.52 17.36.06l2.76-.81-1.27.94a57.94 57.94 0 0 1-19.04.36c-3.46-.31-5.4-3.48-7.09-6.11.93-1.27.7-2.28-.74-3.02z"/><path fill="#f4aa09" stroke="#f4aa09" stroke-width=".09" d="M31.98 106.4c6.07-.15 12.34-.45 17.7-3.66-.95 3.3-.95 6.67.16 9.92l-.52 2.65c5.5 1.47 11.2 1.5 16.85 1.72-4.75.47-9.53.29-14.27.79l4.1 1.59c-2.35-.11-4.81.19-7.11-.48-3.14-2.01-5.04-5.4-7.67-7.96-.44-1.3-.81-2.6-1.2-3.9l2.32-.26c-3.45-.3-6.91-.25-10.36-.41z"/><path fill="#988581" stroke="#988581" stroke-width=".09" d="M420.31 105.27l3.16 2.34c-.26 1.93-.56 3.86-.9 5.78l-2.95 2-1.52-3.51a244.73 244.73 0 0 1 2.22-6.61z"/><path fill="#b77838" stroke="#b77838" stroke-width=".09" d="M29.21 114a21.26 21.26 0 0 0 2.76-7.6c3.46.16 6.92.1 10.37.4l-2.33.27c-2.4.2-4.8.32-7.2.45-.15 1.49-.28 2.98-.46 4.47a30.71 30.71 0 0 1-2.22 5.05l-1.95 1.49-2.76.8 2.81-3.5c-6.22-.3-12.46-.1-18.69-.43 4.8-.91 9.67-.68 14.51-.52 1.75-.01 3.67.23 5.16-.88z"/><path fill="#ef982d" stroke="#ef982d" stroke-width=".09" d="M32.8 107.52c2.4-.13 4.82-.24 7.22-.45.38 1.3.75 2.6 1.2 3.9-2.96.29-5.91.6-8.86 1.02.18-1.5.3-2.98.45-4.47z"/><path fill="#efc12e" stroke="#efc12e" stroke-width=".09" d="M103.45 113.23c11.06 1.84 24 1.7 32.61-6.55l1.7.9-.37 1.2c-7.66 10.92-22.28 12.1-34.44 10.99l.76-.23c4.63-.5 9.51.66 13.93-1.16a105.9 105.9 0 0 0 5.6-2.4c-5.97-.48-12.07.7-17.94-.67z"/><path fill="#f2c216" stroke="#f2c216" stroke-width=".09" d="M96.89 110a35.44 35.44 0 0 0 6.57 3.23l1.85 2.08c5.87 1.37 11.97.19 17.94.67a105.9 105.9 0 0 1-5.6 2.4c-4.42 1.82-9.3.66-13.93 1.16l.37-.12c1.27-.43 2.53-.91 3.8-1.38a73.94 73.94 0 0 1-13.01-2.48c.75.93 1.5 1.86 2.29 2.79a93.94 93.94 0 0 0-4.06-.53c-.9-.75-4.07.05-1.82 1l2-.23c-5.32 2.53-11.34 1.09-17.02 1.49l.33-1.96-6.5-.52-1.27-3.56a73.87 73.87 0 0 0 3.45-2.87c3.27 4.4 9.1 2.63 13.78 2.97 4.04.19 9.09.37 10.83-4.14m-22.13 5.05c6.29 1.56 12.99.39 19.43.27-6.36-1.13-13-.56-19.43-.27z"/><path fill="#330805" stroke="#330805" stroke-width=".09" d="M102.94 119.77c12.16 1.1 26.78-.07 34.44-11 .7 2.75 1.6 5.44 2.45 8.13-4.78.87-9.17 3.17-14.02 3.75-8.15 1.72-16.59 3.25-24.86 1.27l-1.02 1.9c-3.36 1.06-8.27.9-9.14 5.2-1.4-1-2.6-2.25-3.83-3.46 2.71-3.26 8.28-1.81 10.2-6.13-1.29-.3-2.58-.57-3.87-.84l-.19-.77c1.35.15 2.71.32 4.06.53a24.2 24.2 0 0 0 6.92 1.07l-.37.12z"/><path fill="#f4b510" stroke="#f4b510" stroke-width=".09" d="M293.06 112.84a14 14 0 0 0 2.24-3.5l3.14.14c1.47 1.86 2.86 4.53 5.62 4.45 10.55.2 21.12-.05 31.67.09-10.8 2.02-21.9-.06-32.81 1.1 16.63 1.04 33.3-.06 49.96.28l-1.16-1.4a48.25 48.25 0 0 0 4.46-3.18c.74.92 1.9 1.64 2.31 2.75-1.83 4.62-4.29 8.96-6.16 13.57l-4.05-3.97c.51-1.08 1.04-2.15 1.56-3.23-6.04-1.08-12.22-.46-18.32-.53-10.9-.15-21.8.07-32.72-.04l-1.74-.65c15.98.04 31.96-.31 47.93 0a8.5 8.5 0 0 0 3.87-.87c-5.9-.85-11.85-.07-17.77-.27-9-.31-18.02-.02-27.03.09-4.8.22-9.04-2.38-13.63-3.32.9-.47 1.76-.98 2.62-1.51z"/><path fill="#5a464a" stroke="#5a464a" stroke-width=".09" d="M.04 110.7c1.43.74 1.67 1.75.74 3.02l-.73-.4zm141.59 42.03l2.32-1.82c2.85 1.88 6.18 2.56 9.52 2.93 4.15 1.12 7.93 3.47 12.28 3.8l.13 5.85 4.44.3.72 2.85c-8.03-1.07-16.14-1.57-24.07-3.28-.96-.6-1.93-1.2-2.9-1.77.57-.82 1.14-1.64 1.72-2.44a19.4 19.4 0 0 1-5.03-.65c1.7-.96 3.43-1.86 5.19-2.72-1.51-.92-3-1.88-4.32-3.05z"/><path fill="#d79a28" stroke="#d79a28" stroke-width=".09" d="M178.06 113.93c3.8-.07 7.2-1.84 10.74-2.93 1.1.87 2.06 1.89 3.05 2.87-2.88-.42-5.86-.72-8.66.34-6.16 2.07-12.71 1.07-19.07 1.17-4.67-.12-9.6.63-14-1.4 9.32-.05 18.64.32 27.95-.05zm153 18.15c1.7.05 3.42.2 5.14.35-.5 2.7-1 5.4-1.86 8-2.74 2.4-5.24 5.95-9.24 6.05-4.18.26-8.06 1.85-12.09 2.76-6.35.82-12.5 3.35-19 2.42l-2.48-3.03c4.42-.6 8.68-1.87 12.9-3.27l.22 1.86c4.83-3.15 10.7-1.45 16.06-2.18 3.07-1.77 6.2-3.45 9.68-4.26 3.72-1.35 2.62-6.27.66-8.7z"/><path fill="#200913" stroke="#200913" stroke-width=".09" d="M32.35 111.99c2.95-.41 5.9-.73 8.86-1.02.01 5.22 4.91 9.58 10.08 9.15l-3.74 2.8c-.76-.61-1.5-1.23-2.25-1.85l-3.3-2.72c-2.78.76-5.58 1.43-8.35 2.23l.07 1.88-.98-1.3.31-4.7-2.91.58c.88-1.61 1.62-3.3 2.21-5.05z"/><path fill="#e3b034" stroke="#e3b034" stroke-width=".09" d="M41.22 110.97c2.63 2.57 4.53 5.95 7.67 7.96 2.3.67 4.76.37 7.12.48l-4.11-1.6c4.74-.5 9.52-.31 14.27-.78-5.65-.21-11.34-.25-16.84-1.72l.5-2.65c5.96 2.74 12.69 1.07 19 1.38l1.28 3.56 6.49.52-.33 1.96c-3.07.09-6.1-1.1-9.15-.55-5.23.96-10.56.44-15.83.59-5.17.43-10.07-3.93-10.08-9.15z"/><path fill="#7c4f07" stroke="#7c4f07" stroke-width=".09" d="M270.98 113.34c7.36-.28 14.77.69 22.08-.5-.86.53-1.73 1.04-2.62 1.5-3.81.04-7.63.1-11.44-.01-7.94-.4-15.9.52-23.81-.14l-.72-.77c5.5-.03 11 .13 16.5-.08z"/><path fill="#e9b741" stroke="#e9b741" stroke-width=".09" d="M74.75 115.05c6.43-.3 13.07-.86 19.43.27-6.44.12-13.14 1.29-19.43-.27z"/><path fill="#e2aa41" stroke="#e2aa41" stroke-width=".09" d="M191.7 115.44c1.62-.97 3.56-.6 5.36-.64 3.85.1 7.7-.15 11.57.1l-1.6.7c-5.1.15-10.24.14-15.34-.16z"/><path fill="#eab728" stroke="#eab728" stroke-width=".09" d="M255.19 114.19c7.92.66 15.87-.26 23.8.14 3.81.12 7.63.05 11.44.02 4.6.94 8.83 3.54 13.63 3.32 9.01-.11 18.02-.4 27.03-.1 5.93.2 11.88-.57 17.78.28a8.5 8.5 0 0 1-3.87.88c-15.97-.32-31.95.03-47.93-.01-1.02-.63-2.01-1.3-3-1.97-4.85 3.82-11.3 3.19-17.08 3.04-7.95-.91-15.92.8-23.87-.12-1.81-.24-3.3-1.4-4.86-2.21 9.26.68 18.54.26 27.8.28 4.3-.08 8.73.36 12.87-1.1-10.12-2.18-20.62-.37-30.88-1a3.34 3.34 0 0 1-2.87-1.45z"/><path fill="#ee990f" stroke="#ee990f" stroke-width=".09" d="M8.48 115.57l1.06-.17c6.24.34 12.48.13 18.7.44l-2.81 3.5c-5.77.46-11.6.39-17.36-.06z"/><path fill="#f4cc36" stroke="#f4cc36" stroke-width=".09" d="M94.88 115.56a73.94 73.94 0 0 0 13 2.48c-1.26.47-2.52.95-3.8 1.38-2.34 0-4.67-.4-6.91-1.07-.78-.93-1.54-1.86-2.3-2.8z"/><path fill="#d0c4c1" stroke="#d0c4c1" stroke-width=".09" d="M411.93 116.93c1.4-.87 2.97-1.41 4.46-2.13 1.35.9 3.66 3.12 1.33 4.36-2.35 2.23-5.18.2-7.38-1.02a31.4 31.4 0 0 1 1.58-1.21z"/><path fill="#e9c154" stroke="#e9c154" stroke-width=".09" d="M91.28 118.83c-2.25-.96.93-1.76 1.82-1.01l.2.77z"/><path fill="#5c484d" stroke="#5c484d" stroke-width=".09" d="M33.66 120.58c2.77-.8 5.57-1.47 8.35-2.23l3.3 2.72c-3.62.2-7.16 1.13-10.04 3.4a33.56 33.56 0 0 1-1.55-2.01z"/><path fill="#150605" stroke="#150605" stroke-width=".09" d="M93.3 118.59c1.29.27 2.58.55 3.86.84-1.91 4.32-7.48 2.87-10.2 6.13-.6.65-1.17 1.33-1.75 2l-3.38-1.55-1.8 2.88-3.85-.03 1.69-2.7-4.2-.23-.33 3.19-3.16.22.33-2.58c-3.25 1.52-6.87 3.03-10.36 1.22l-2.58 2.25c-.96-.63-1.91-1.25-2.85-1.9a150.83 150.83 0 0 1-7.16-5.41l3.74-2.8c5.27-.15 10.6.37 15.82-.6 3.06-.54 6.08.65 9.15.56 5.68-.4 11.7 1.04 17.03-1.5z"/><path fill="#8c7a71" stroke="#8c7a71" stroke-width=".09" d="M362.29 120a73.2 73.2 0 0 1 4.2-.98c-1.51 5.99-4.67 11.35-6.92 17.06l-.26.6c-2.13.83-4.13 1.89-6.14 2.95a365.3 365.3 0 0 1 9.12-19.63z"/><path fill="#904116" stroke="#904116" stroke-width=".09" d="M106.1 127.25c11.29-.16 21.99-3.96 32.68-7.1 6.37-.94 10.92 5.75 17.28 5.28 8.67-.15 17.37 0 26-.87 8.67-.61 17.36-.16 26.03.3 13.41-.05 26.84.56 40.22-.66l.34 2.28c-5.72.22-11.83-1.3-17.16 1.39-12.85.18-25.72.34-38.57 0-7.94-1.44-15.93.27-23.91.18-7.68-.04-15.66.49-22.95-2.38-3.14-1-6.4-3.01-9.77-1.82-5.76 1.84-11.1 4.83-16.95 6.43-4.1.59-6.33 4.15-8.65 7.14-4.89-1.28-8.24-5.55-13.16-6.7a10.93 10.93 0 0 1 8.57-3.47z"/><path fill="#320a00" stroke="#320a00" stroke-width=".09" d="M331.52 119.4c6.1.08 12.28-.54 18.32.54-.52 1.08-1.05 2.15-1.56 3.23l-.76 1.64c-5.84-3.83-12.97-2.46-19.52-2.98-8.09-.44-16.34 1.14-24.29-.85 9.21-1.5 18.76.86 27.81-1.57z"/><path fill="#847272" stroke="#847272" stroke-width=".09" d="M35.27 124.47c2.88-2.27 6.42-3.2 10.03-3.4l2.26 1.85c2.32 1.87 4.71 3.68 7.15 5.4-4.16 2.24-7.4-2.03-10.97-3.44-2.27-1.25-4.66.08-6.5 1.42-.68-.6-1.33-1.2-1.97-1.83z"/><path fill="#b3561b" stroke="#b3561b" stroke-width=".09" d="M136.28 123.85c3.37-1.2 6.63.83 9.77 1.82 7.3 2.87 15.27 2.34 22.95 2.38 7.98.09 15.97-1.62 23.92-.18 2.09.36 4.15.8 6.23 1.25l-3.47 1.08c-7.42-.57-14.87-.35-22.3-.05-7.05.56-14.21 1.4-21.26.26-4.03-.7-7.13-4.11-11.33-4.18-4.3.18-8.2 2.3-11.96 4.17l-1.27 3.1-1.23-2.4-1.85-.24-1.05 4.67c1.63 1.28 3.43 2.56 5.61 1.98 4.45.55 8.35 3.2 12.35 5.12 2.2.15 4.25.93 6.17 1.97l-2.53 1.57-2.19 1.33c-3.44-1.26-6.5-3.3-9.83-4.76-4.35-1.54-9.56-1.66-12.87-5.32-2-1.88-.9-4.77-.8-7.14 5.84-1.6 11.18-4.6 16.94-6.43z"/><path fill="#905410" stroke="#905410" stroke-width=".09" d="M275.06 124.9c17.64-1.6 35.34-.25 53.01-.61 2.7 0 5.4-.15 8.08.25 2.84.7 5.17 2.63 7.66 4.1l-1.2 2.9c-6.04-6.1-15.06-3.02-22.58-3.95-4.64-.8-9.28.67-13.93.06a75.13 75.13 0 0 0-15.72-.41c-9.06 1.18-18.21.69-27.31.8-5.9-1.03-11.83-.46-17.75.05-4.61-.12-9.21-.18-13.82-.22 5.33-2.7 11.44-1.17 17.16-1.4l-.34-2.27c8.93-.14 17.8 1.45 26.75.7z"/><path fill="#eea121" stroke="#eea121" stroke-width=".09" d="M347.52 124.8l.76-1.63c1.34 1.33 2.7 2.65 4.05 3.97-1.33 3.02-2.8 5.97-4.28 8.92.31-2.04.52-4.1.73-6.15l-3.23-.54c.65-1.52 1.3-3.05 1.98-4.56z"/><path fill="#f4ad09" stroke="#f4ad09" stroke-width=".09" d="M441.2 139.99c6.48-3.61 10.8-10 13.5-16.73l2.15 7.28c-.65 1.4-1.28 2.84-1.9 4.26l-.52.9c-1.35.56-2.86 1.77-2.46 3.42-.46.4-.89.83-1.3 1.27-1.6-2.18-3.48.73-2.59 2.45l-.77.7c-1.73-.87-3.64.53-3.22 2.45l-.85.54c-3.42-1.52-6.4 1.7-9.68 2.32-13.59 3.36-27.7 2.27-41.58 2.75l2.25-2.45c-8.19-.67-16.48.44-24.59-1.2 18.47-.5 36.97-.17 55.44-.8-9-.65-18.03-.16-27.04-.35-16.06-.3-32.1-.1-48.17-.18l-.32-.41c20.5.17 41-.15 61.5-.2 10.25.07 21.24-.25 30.15-6.02z"/><path fill="#988c8d" stroke="#988c8d" stroke-width=".09" d="M37.24 126.3c1.84-1.34 4.23-2.67 6.5-1.42 3.57 1.4 6.8 5.68 10.97 3.45.95.65 1.9 1.27 2.86 1.9l1.9 1.2c-2.61.44-5.35 1.23-8 .57-3.7-1.27-6.68-4.01-10.37-5.3l-2.17.9z"/><path fill="#d46d19" stroke="#d46d19" stroke-width=".09" d="M128.82 130.4c3.77-1.87 7.66-4 11.96-4.17 4.2.07 7.3 3.48 11.33 4.18 7.05 1.15 14.21.3 21.27-.26 7.43-.3 14.88-.52 22.3.05 8.35 2.93 17.33-.18 25.85 1.93a50 50 0 0 1-9.01 1.42c-5.5-.05-10.98-.44-16.47-.2-8.6.43-17.34-.45-25.83 1.4-4.52.97-9.31.66-13.61 2.59a76.13 76.13 0 0 0 17.1 6.22c5.5 2.4 11.6 2.3 17.33 3.9 2.99.6 5.59 2.63 8.74 2.47 3.22.17 7.63-.91 8.84 3.18-1.14.09-2.27.2-3.4.33l-2.27-1.3c-1.87.52-3.75 1.62-5.74 1.3-7.6-2.06-15.83-.7-23.22-3.71-5.38-.92-11.61.4-15.97-3.75l-1.87.85c-2.71-1.27-5.68-1.62-8.58-2.23a15.16 15.16 0 0 0-6.17-1.97c-4-1.91-7.9-4.57-12.35-5.12-2.18.58-3.98-.7-5.61-1.98l1.05-4.67 1.85.25 1.23 2.4z"/><path fill="#aea5a5" stroke="#aea5a5" stroke-width=".09" d="M38.92 127.6l2.17-.9c3.7 1.29 6.67 4.03 10.37 5.3 2.65.66 5.4-.13 8.01-.56 11.41 6.95 23.66 12.49 36.2 17.1l-1.52 1.55c-2.82-.38-5.6-1.1-8.44-1.32-16.23-5.41-32.52-11.53-46.78-21.17z"/><path fill="#c06915" stroke="#c06915" stroke-width=".09" d="M192.93 127.87c12.85.34 25.72.18 38.57 0 4.6.04 9.2.1 13.82.22l-2.21 1.19c2.3.34 4.64.73 6.97.39 6.57-1.16 13.22 0 19.83-.26 6.73.53 13.52-.57 20.2.7-1.32.2-2.64.4-3.96.57-9 .88-18.07.37-27.1.48-8.55.12-17.28-.66-25.58 1.89-3.95-.63-7.95-.9-11.95-.92-8.52-2.11-17.5 1-25.85-1.93l3.47-1.08c-2.08-.44-4.14-.9-6.22-1.25z"/><path fill="#f59f09" stroke="#f59f09" stroke-width=".09" d="M345.55 129.37l3.24.54c-.21 2.05-.42 4.1-.73 6.15-.53 1.5-1.2 3-1.33 4.62.5 2.04 1.69 3.8 2.83 5.53l.32.4.83 1.03c6.3.5 12.63.02 18.94.3 8.1 1.65 16.4.54 24.59 1.2l-2.26 2.46c-16.2-.2-32.4.69-48.6 0-1.77-1.91-3.27-4.24-3.1-6.95-.54-5.66 3.36-10.25 5.26-15.28z"/><path fill="#9f4f24" stroke="#9f4f24" stroke-width=".09" d="M110.7 137.42c2.31-3 4.53-6.55 8.63-7.14-.09 2.37-1.2 5.26.81 7.14 3.31 3.66 8.52 3.78 12.87 5.32 3.33 1.47 6.4 3.5 9.83 4.76l2.2-1.33c6 3.78 13.43 3.89 19.82 6.84-3.8.29-7.59.7-11.4.83-3.34-.37-6.67-1.05-9.52-2.93-5.22-1.61-11.27-1.35-15.79-4.82-1.73-3.13-5.6-3.61-8.27-5.66a87.3 87.3 0 0 1-9.19-3.01z"/><path fill="#e0971f" stroke="#e0971f" stroke-width=".09" d="M233.47 133.05c8.3-2.55 17.03-1.77 25.57-1.9 9.04-.1 18.1.4 27.11-.47l.44 1.33c-4.25 1.94-8.77 3.7-13.54 3.33-5.61-.47-11.23.17-16.85-.14-5.6-.1-11.21.32-16.81.5-1.44-.17-2.88-.37-4.31-.58l3.85-.9c-1.83-.38-3.64-.8-5.46-1.17z"/><path fill="#753d2b" stroke="#753d2b" stroke-width=".09" d="M96.17 131.78l1.37-1.06c4.92 1.15 8.27 5.42 13.16 6.7a87.3 87.3 0 0 0 9.19 3c2.66 2.06 6.54 2.54 8.27 5.67-2.96-.25-6.1-.14-8.8-1.53-2.87-1.44-5.6-3.21-8.61-4.33-2.94-1.03-6.41-.68-8.9-2.83-2.11-1.62-4.3-3.3-5.68-5.62z"/><path fill="#f19410" stroke="#f19410" stroke-width=".09" d="M221.53 132.13c4 .02 8 .29 11.95.92 1.82.38 3.63.79 5.46 1.18l-3.86.89 4.3.59c-1.3.4-2.59.87-3.88 1.33a141 141 0 0 1 2.42 3.9 16.78 16.78 0 0 1-5.28-3.86l-3.56 4.6c3.77 1.78 8.12 1.72 11.74 3.9l-2.47 2.92c-4.22-1.8-8.83-2.28-13.37-2.16-2.93-.31-5.8-1.06-8.68-1.67-2.69-1.02-5.02-2.8-7.53-4.16l1.42-3.56 4.45.36 1.45-1.52a198.7 198.7 0 0 0-14-.66c3.51-.1 7.27.37 10.42-1.58a50 50 0 0 0 9.01-1.42z"/><path fill="#e68313" stroke="#e68313" stroke-width=".09" d="M196.04 133.36c5.5-.25 10.98.14 16.47.19-3.15 1.95-6.9 1.48-10.43 1.58 4.67.09 9.35.24 14.01.66l-1.45 1.52-4.45-.36-1.42 3.56c2.51 1.37 4.84 3.14 7.53 4.16 2.88.6 5.75 1.36 8.68 1.67 4.55-.12 9.16.37 13.38 2.16 1.7 1.85 1.18 4.44 1.2 6.7-1.35.16-2.7.29-4.03.42-5.25-1.5-10.74 1.29-15.85-.92-3.51-1.5-7.3-1.77-11.06-1.6-1.21-4.08-5.62-3-8.84-3.17-3.15.16-5.75-1.87-8.74-2.46-5.72-1.6-11.82-1.51-17.33-3.91a76.13 76.13 0 0 1-17.1-6.22c4.3-1.93 9.08-1.62 13.6-2.6 8.5-1.84 17.23-.96 25.83-1.38z"/><path fill="#f3a416" stroke="#f3a416" stroke-width=".09" d="M239.38 135.7c5.6-.18 11.21-.6 16.81-.5-.06 2.97-.47 6.25 1.6 8.7-4.9 3.56-11.37 2-16.97 1.68-3.61-2.18-7.96-2.12-11.73-3.9l3.56-4.6a16.78 16.78 0 0 0 5.28 3.86c-.78-1.32-1.6-2.61-2.42-3.9 1.29-.46 2.57-.92 3.88-1.33z"/><path fill="#4d3913" stroke="#4d3913" stroke-width=".09" d="M451.98 139.12c-.4-1.65 1.1-2.86 2.46-3.42-.1 1.55-.95 2.93-2.46 3.42z" opacity=".6"/><path fill="#493237" stroke="#493237" stroke-width=".09" d="M101.86 137.4c2.48 2.15 5.95 1.8 8.89 2.83 3.02 1.12 5.74 2.89 8.6 4.33 2.7 1.39 5.85 1.28 8.8 1.53 4.52 3.47 10.57 3.2 15.8 4.82l-2.32 1.82a29.76 29.76 0 0 0 4.32 3.05 98.32 98.32 0 0 0-5.2 2.72c1.64.47 3.33.62 5.03.65-.58.8-1.15 1.62-1.72 2.44a300.5 300.5 0 0 0-19.25-4.07c-5.07-.95-9.95-2.64-14.86-4.2.8-.65 1.56-1.31 2.33-1.98-4.08-1.21-8.69-1.83-11.88-4.9a73.56 73.56 0 0 0-5.09-4.58c.17-3.51 3.92-3.62 6.54-4.46z"/><path fill="#cb913b" stroke="#cb913b" stroke-width=".09" d="M448.08 142.84c-.89-1.72 1-4.63 2.58-2.45a9.4 9.4 0 0 1-2.58 2.45z"/><path fill="#da921f" stroke="#da921f" stroke-width=".09" d="M240.82 145.58c5.6.32 12.07 1.88 16.97-1.68 4.07 3.03 9.21 1.88 13.9 2.4 2 .39 1.73 2.99 2.3 4.5 5.83-.86 11.9-.3 17.54-2.17l2.48 3.03c-3.32-.31-6.69.3-9.27 2.54l3.48 1.06c-3.8 1.2-7.73.04-11.6.07l-.5 2.94-2.12-1.86c-3.96.82-7.9 1.95-11.97 1.95-3.18.13-5.78-2.82-9-1.98-4.29.9-8.63 2.2-13.02 1.08a52.39 52.39 0 0 1-3.09-.52l-1.4-1.32c1.34-.13 2.68-.26 4.03-.41-.02-2.27.5-4.86-1.2-6.71z"/><path fill="#a68331" stroke="#a68331" stroke-width=".09" d="M444.1 145.99c-.42-1.92 1.49-3.32 3.22-2.44a4.29 4.29 0 0 1-3.22 2.44z" opacity=".95"/><path fill="#be6821" stroke="#be6821" stroke-width=".09" d="M147.56 144.6c2.9.6 5.87.96 8.58 2.23l1.88-.85c4.36 4.16 10.59 2.83 15.97 3.75 7.39 3 15.62 1.65 23.22 3.7 1.99.33 3.87-.77 5.74-1.28l2.27 1.29c1.13-.12 2.26-.24 3.4-.33 3.76-.18 7.55.1 11.06 1.59 5.1 2.2 10.6-.58 15.85.92l1.4 1.32c1.02.2 2.05.37 3.09.52l-.43 4.4c-10.35-.06-20.7-.63-31.06-.46-1.25-1.07-2.85-1.35-4.44-1.34-4.4.07-8.37-2.32-12.78-2-9.1.29-18-1.87-26.45-5.05-6.4-2.95-13.82-3.06-19.82-6.84z"/><path fill="#e3ad31" stroke="#e3ad31" stroke-width=".09" d="M433.56 148.85c3.27-.62 6.26-3.84 9.68-2.32l-.5.32-.4.26c-.98.53-1.97 1.04-2.96 1.55l-2.3.96-1.68.65c-3.51.65-7.04 1.19-10.6 1.52-3.1-.26-6.19.09-9.25.5-23.36.48-46.74 1.18-70.09.79l-2.08-1.48c16.2.69 32.4-.2 48.6 0 13.88-.48 28 .6 41.59-2.75z"/><path fill="#9f7031" stroke="#9f7031" stroke-width=".09" d="M327.1 152.68c3.55-1.56 6.37-4.33 9.53-6.52.07 1.92.17 3.85.24 5.78-1.15 1.5-2.98 2.1-4.7 2.7-4.4.93-8.76 2.08-13.2 2.8-6.78.96-13.43 3.03-20.34 2.74l1.77-1.92c4.24-.5 8.29-2.03 12.56-2.4 4.84-.35 9.56-1.61 14.14-3.18z"/><path fill="#dc9c3b" stroke="#dc9c3b" stroke-width=".09" d="M349.88 146.62c16.06.09 32.1-.11 48.17.18 9 .19 18.04-.3 27.04.36-18.47.62-36.97.29-55.44.79-6.31-.3-12.64.19-18.94-.31z"/><path fill="#3e2900" stroke="#3e2900" stroke-width=".09" d="M442.33 147.1l.41-.25z" opacity=".65"/><path fill="#a39797" stroke="#a39797" stroke-width=".09" d="M85.72 148.77c2.84.23 5.62.94 8.44 1.32l1.52-1.55c4.77 1.5 9.45 3.36 14.27 4.78 4.91 1.56 9.8 3.25 14.86 4.2l-3.87 1.04a594.9 594.9 0 0 1-4.5-1.07 118 118 0 0 0-11.72-2.81c-6.36-1.92-12.77-3.67-19-5.91z"/><path fill="#5b410d" stroke="#5b410d" stroke-width=".09" d="M424.8 151.79c3.55-.33 7.08-.87 10.6-1.52a29.97 29.97 0 0 1-9.27 2.16z" opacity=".71"/><path fill="#84726f" stroke="#84726f" stroke-width=".09" d="M336.87 151.94c1.94.24 3.83.74 5.55 1.7a13.3 13.3 0 0 0 1.8 5.6c2.16.47 4.31 1 6.44 1.57a182.3 182.3 0 0 1-24.95 4.63c5.16-1.43 10.48-2.02 15.73-3.03-3.15-1.26-5.21-3.94-5.01-7.4a76.9 76.9 0 0 0-4.25-.36c1.7-.6 3.54-1.21 4.69-2.71z"/><path fill="#a47e4f" stroke="#a47e4f" stroke-width=".09" d="M415.56 152.3c3.06-.42 6.15-.77 9.25-.51l1.32.64-3.1.28c-2.5.04-5-.22-7.47-.41z"/><path fill="#a17005" stroke="#a17005" stroke-width=".09" d="M345.46 153.08c23.35.39 46.73-.31 70.1-.78 2.47.19 4.97.45 7.47.4-13.6 1.2-27.26.88-40.9 1-11.88-.23-23.77.2-35.65.03z" opacity=".92"/><path fill="#975934" stroke="#975934" stroke-width=".09" d="M153.47 153.84c3.8-.13 7.59-.54 11.39-.83 8.45 3.18 17.36 5.34 26.45 5.05 4.4-.32 8.39 2.07 12.78 2 1.59-.01 3.19.27 4.44 1.34-4.14.67-8.36.72-12.54.44-2.73-.21-5.21-1.6-7.94-1.8-3.13-.24-6.27-.01-9.41-.11-3.95-2.2-8.53-2-12.9-2.28-4.35-.34-8.13-2.7-12.28-3.81z"/><path fill="#614234" stroke="#614234" stroke-width=".09" d="M342.42 153.64l4.07.09c11.88.18 23.77-.26 35.65-.03-4.83.15-9.65.6-14.48.78-7.27-.66-14.57-.26-21.83.26 1.46 1.09 2.92 2.2 4.33 3.37 1.87.3 3.75.6 5.63.87-1.7.64-3.39 1.3-5.13 1.83a140.5 140.5 0 0 0-6.44-1.57 13.3 13.3 0 0 1-1.8-5.6z"/><path fill="#262020" stroke="#262020" stroke-width=".09" d="M104.72 154.68a118 118 0 0 1 11.71 2.8 38.2 38.2 0 0 1-11.7-2.8z" opacity=".43"/><path fill="#a0948f" stroke="#a0948f" stroke-width=".09" d="M318.98 157.44c4.44-.72 8.79-1.87 13.2-2.8 1.4.08 2.83.22 4.25.37-.2 3.46 1.86 6.14 5 7.4-5.25 1-10.57 1.6-15.72 3.03-3.5.47-7.02.96-10.54 1.29-4.6-.31-9.2-.1-13.77.5-1.35-2.7-3.52-5.05-6.44-6-2.32-.42-4.68.02-7 .27l1.3-1c3.11-.37 6.24-.28 9.37-.32 6.91.29 13.56-1.78 20.34-2.74z"/><path fill="#2f130f" stroke="#2f130f" stroke-width=".09" d="M345.83 154.74c7.26-.52 14.56-.92 21.82-.26l-.9 1.89c-3.75.48-7.26 1.9-10.96 2.6-1.88-.25-3.76-.56-5.63-.86a106.96 106.96 0 0 0-4.33-3.37z"/><path fill="#776061" stroke="#776061" stroke-width=".09" d="M178.63 159.93c3.14.1 6.28-.13 9.41.12 2.73.2 5.21 1.58 7.94 1.79 4.18.28 8.4.23 12.54-.44l-.1 2.1.01 1.6c1.81.6 3.65 1.1 5.5 1.62a368.7 368.7 0 0 0-.62 3.24c-6.4.08-12.73-.91-19.12-1.1-2.49-1.21-5-2.94-4.92-6.03l-3.65 2.06-.18-2.84a32.22 32.22 0 0 1-6.8-2.12z"/><path fill="#a86e35" stroke="#a86e35" stroke-width=".09" d="M208.53 161.4c10.36-.17 20.7.4 31.06.46 5.8.46 11.63-.21 17.44.02 6.4.32 12.84-1.1 19.2.26-3.55 2.46-8.04 1.45-12.08 1.77-18.58.26-37.16.06-55.73-.4z"/><path fill="#958683" stroke="#958683" stroke-width=".09" d="M276.23 162.14c3.92-.02 7.88.15 11.74-.64 2.32-.25 4.68-.7 7-.27 2.92.95 5.09 3.3 6.44 6 4.56-.6 9.17-.81 13.77-.5-15.52 1.86-31.1 3.29-46.73 3.65-1.6-.41-3.17-.84-4.73-1.3 3.21-.57 6.6-.4 9.7-1.6-2.58-.01-5.15.17-7.72.33l-.47-2.18-3.5 1.99-1.28-2a82.24 82.24 0 0 1 3.7-1.71c4.04-.32 8.53.69 12.08-1.77z"/><path fill="#847372" stroke="#847372" stroke-width=".09" d="M208.41 163.5c18.57.47 37.15.67 55.73.4a82.24 82.24 0 0 0-3.69 1.72l1.27 2 3.51-2 .47 2.19c2.57-.16 5.14-.34 7.71-.33-3.09 1.2-6.48 1.03-9.7 1.6 1.56.46 3.14.89 4.73 1.3-11.1.83-22.25.5-33.37.54-7.28.1-14.49-.95-21.76-.96l.61-3.24c-1.83-.51-3.67-1.02-5.48-1.62z"/></svg>