<?xml version="1.0" encoding="UTF-8" standalone="no"?>
<!-- Created with Inkscape (http://www.inkscape.org/) -->
<svg xmlns:svg="http://www.w3.org/2000/svg" xmlns="http://www.w3.org/2000/svg" version="1.0" width="280" height="270"
    id="svg2" xml:space="preserve">
    <defs id="defs5" />
    <g transform="matrix(1.25,0,0,-1.25,-392.48632,949.075)" id="g11">
        <g transform="translate(1.2695279,-1.8550432)" id="g4051">
            <path
                d="M 447.24,748.94 L 423.72,748.94 L 423.72,748.16 C 422.34,748.7 420.96,748.94 419.46,748.94 L 403.44,748.94 C 400.74,748.94 398.34,748.1 396.12,746.48 L 395.46,745.94 L 394.8,746.48 C 392.64,748.1 390.18,748.94 387.48,748.94 L 339.48,748.94 C 336.78,748.94 334.32,748.1 332.1,746.48 C 329.22,744.38 327.78,741.62 327.78,738.32 L 327.78,707.36 C 327.78,706.46 327.84,705.68 328.02,704.96 L 327.78,704.96 L 327.78,684.02 L 355.44,684.02 L 356.76,684.08 L 356.76,670.82 L 359.94,670.82 L 359.94,652.88 C 359.94,650.78 360.6,648.86 361.92,647.18 L 355.5,647.18 C 352.8,647.18 350.34,646.4 348.18,644.78 C 345.24,642.68 343.8,639.98 343.8,636.68 L 343.8,623.6 L 344.1,623.6 C 343.92,622.76 343.8,621.98 343.8,621.26 L 343.8,605.72 C 343.8,602.3 345.24,599.6 348.18,597.62 C 350.52,596 352.92,595.22 355.5,595.22 L 383.22,595.22 L 383.22,596 C 384.66,595.46 386.1,595.22 387.48,595.22 L 403.5,595.22 C 406.08,595.22 408.48,596 410.82,597.62 C 411.48,598.1 412.08,598.58 412.56,599.12 C 413.04,598.58 413.64,598.1 414.36,597.62 L 414.48,597.5 C 416.76,596 419.1,595.22 421.56,595.22 L 437.58,595.22 C 440.16,595.22 442.56,596 444.9,597.62 L 445.62,598.16 L 446.28,597.62 C 448.56,596 451.02,595.22 453.6,595.22 L 469.56,595.22 C 472.14,595.22 474.6,596 476.88,597.62 C 479.82,599.66 481.32,602.36 481.32,605.72 L 481.32,636.68 C 481.32,638.78 480.66,640.64 479.4,642.38 L 479.46,642.38 L 479.46,660.5 L 490.02,660.5 L 490.02,652.88 C 490.02,649.64 491.52,646.94 494.52,644.78 L 494.58,644.72 L 494.64,644.72 C 496.92,643.16 499.26,642.38 501.72,642.38 L 517.74,642.38 C 520.32,642.38 522.78,643.22 525.12,644.84 C 528.06,646.88 529.5,649.58 529.5,652.88 L 529.5,691.82 L 513.54,691.82 L 513.54,694.4 L 467.64,694.4 C 464.94,694.4 462.54,693.62 460.32,692 L 459.66,691.46 L 459,692 C 456.84,693.62 454.38,694.4 451.68,694.4 L 435.66,694.4 C 432.96,694.4 430.5,693.62 428.28,692 L 427.68,691.46 L 427.02,692 C 424.8,693.62 422.4,694.4 419.7,694.4 L 415.44,694.4 L 415.44,696.92 L 463.2,696.92 L 463.2,697.7 C 464.58,697.16 466.02,696.92 467.46,696.92 L 495.18,696.92 L 495.18,759.26 L 471.66,759.26 L 471.66,748.94 L 467.46,748.94 C 464.76,748.94 462.3,748.1 460.14,746.48 L 459.48,746 L 458.82,746.48 C 456.6,748.1 454.14,748.94 451.44,748.94 L 447.24,748.64 L 447.24,748.94 z M 365.82,696.92 L 377.34,696.92 L 377.34,694.28 L 365.82,694.28 L 365.82,696.92 z"
                id="gta_black" style="fill:#000000;fill-opacity:1;fill-rule:evenodd;stroke:none" />
            <path
                d="M 477,753.925 L 477,743.55 L 467.45,743.55 C 465.88999,743.55 464.51,743.05 463.25,742.15 C 461.80999,741.13 461.1,739.825 461.1,738.325 L 461.1,707.35 C 461.1,705.85 461.82,704.66 463.2,703.7 C 464.58,702.74 466.01,702.25 467.45,702.25 L 489.85,702.25 L 489.85,753.925 L 477,753.925 z M 339.475,743.55 C 337.91499,743.55 336.535,743.05 335.275,742.15 C 333.83499,741.13 333.125,739.825 333.125,738.325 L 333.125,707.35 C 333.12501,705.85 333.845,704.66 335.225,703.7 C 336.60501,702.74 338.035,702.25 339.475,702.25 L 349.025,702.25 L 349.025,699.625 L 333.125,699.625 L 333.125,689.35 L 355.45,689.35 C 356.83001,689.35 358.195,689.84 359.575,690.8 C 361.07499,691.82 361.85,693.085 361.85,694.525 L 361.85,743.55 L 339.475,743.55 z M 365.1,743.55 L 365.1,702.25 L 377.95,702.25 L 377.95,717.75 L 381,717.75 L 381,694.525 C 381,693.08501 381.775,691.82 383.275,690.8 C 384.65499,689.84 386.035,689.35 387.475,689.35 L 397.325,689.35 L 397.325,647.775 L 410.1,647.775 L 410.1,678.75 L 413.225,678.75 L 413.225,647.775 L 426.05,647.775 L 426.05,683.85 C 426.04999,685.35 425.35,686.655 423.85,687.675 C 422.59001,688.57499 421.2,689.05 419.7,689.05 L 410.1,689.05 L 410.1,699.625 L 393.85,699.625 L 393.85,720.325 C 393.85001,721.10501 393.485,721.755 392.825,722.175 C 392.16501,722.59499 391.43,722.83 390.65,722.95 C 391.42999,722.95 392.165,723.195 392.825,723.675 C 393.48501,724.03499 393.85,724.635 393.85,725.475 L 393.85,738.325 C 393.85001,739.82501 393.115,741.13 391.675,742.15 C 390.41499,743.05 388.975,743.55 387.475,743.55 L 365.1,743.55 z M 403.45,743.55 C 401.95001,743.55 400.56,743.05 399.3,742.15 C 397.8,741.13 397.075,739.825 397.075,738.325 L 397.075,730.65 L 409.925,730.65 L 409.925,733.15 L 413.05,733.15 L 413.05,728.05 L 403.45,728.05 C 402.07001,728.05 400.67,727.585 399.35,726.625 C 397.84999,725.48501 397.075,724.27 397.075,722.95 L 397.075,707.35 C 397.07499,705.85 397.795,704.66 399.175,703.7 C 400.61499,702.74 402.07,702.25 403.45,702.25 L 425.875,702.25 L 425.875,738.325 C 425.87502,739.82501 425.15,741.13 423.65,742.15 C 422.38999,743.05 421.01,743.55 419.45,743.55 L 403.45,743.55 z M 429.125,743.55 L 429.125,702.25 L 441.9,702.25 L 441.9,733.15 L 445.025,733.15 L 445.025,702.25 L 457.85,702.25 L 457.85,738.325 C 457.84999,739.82501 457.15,741.13 455.65,742.15 C 454.39001,743.05 453.01,743.55 451.45,743.55 C 447.25001,743.55 444.06,742.64 441.9,740.9 L 441.9,743.55 L 429.125,743.55 z M 345.9,733.15 L 349.025,733.15 L 349.025,712.525 L 345.9,712.525 L 345.9,733.15 z M 377.95,733.15 L 381,733.15 L 381,728.05 L 377.95,728.05 L 377.95,733.15 z M 473.875,733.15 L 477,733.15 L 477,712.525 L 473.875,712.525 L 473.875,733.15 z M 409.925,717.75 L 413.05,717.75 L 413.05,712.525 L 409.925,712.525 L 409.925,717.75 z M 365.275,689.05 L 365.275,686.475 L 362.1,686.475 L 362.1,676.15 L 365.275,676.15 L 365.275,652.875 C 365.275,651.495 366.04999,650.24 367.55,649.1 C 368.93,648.2 370.27001,647.77499 371.65,647.775 L 387.65,647.775 C 389.09,647.775 390.53499,648.26501 391.975,649.225 C 393.355,650.245 394.02501,651.43499 394.025,652.875 L 394.025,673.575 L 381.3,673.575 L 381.3,658.05 L 378.125,658.05 L 378.125,676.15 L 394.025,676.15 L 394.025,686.475 L 378.125,686.475 L 378.125,689.05 L 365.275,689.05 z M 435.075,689.05 C 433.74855,688.94582 432.55249,688.4625 431.45,687.675 C 430.01,686.655 429.3,685.35 429.3,683.85 L 429.3,652.875 C 429.3,651.435 430.02,650.24501 431.4,649.225 C 432.84,648.265 434.26999,647.77499 435.65,647.775 L 451.675,647.775 C 453.055,647.775 454.51001,648.26501 455.95,649.225 C 457.33,650.245 458.05001,651.43499 458.05,652.875 L 458.05,660.625 L 445.2,660.625 L 445.2,658.05 L 442.15,658.05 L 442.15,663.25 L 458.05,663.25 L 458.05,683.85 C 458.05,685.35 457.32498,686.65499 455.825,687.675 C 454.565,688.575 453.17502,689.05 451.675,689.05 L 435.65,689.05 C 435.455,689.05 435.2645,689.06488 435.075,689.05 z M 467.075,689.05 C 465.77726,688.94582 464.55251,688.4625 463.45,687.675 C 462.01,686.655 461.27502,685.35 461.275,683.85 L 461.275,647.775 L 474.125,647.775 L 474.125,665.85 L 490.025,665.85 L 490.025,676.15 L 474.125,676.15 L 474.125,678.75 L 490.025,678.75 L 490.025,689.05 L 467.65,689.05 C 467.4625,689.05 467.26039,689.06488 467.075,689.05 z M 495.425,689.05 L 495.425,686.475 L 492.175,686.475 L 492.175,676.15 L 495.425,676.15 L 495.425,652.875 C 495.425,651.495 496.15001,650.24 497.65,649.1 C 499.03,648.2 500.40498,647.77499 501.725,647.775 L 517.75,647.775 C 519.19,647.775 520.60999,648.26501 522.05,649.225 C 523.43,650.245 524.14999,651.43499 524.15,652.875 L 524.15,673.575 L 511.375,673.575 L 511.375,658.05 L 508.2,658.05 L 508.2,676.15 L 524.15,676.15 L 524.15,686.475 L 508.2,686.475 L 508.2,689.05 L 495.425,689.05 z M 442.15,678.75 L 445.2,678.75 L 445.2,673.575 L 442.15,673.575 L 442.15,678.75 z M 355.5,641.85 C 353.94,641.85 352.56,641.35 351.3,640.45 C 349.86,639.43 349.15001,638.17499 349.15,636.675 L 349.15,628.95 L 361.925,628.95 L 361.925,631.525 L 365.05,631.525 L 365.05,626.35 L 355.5,626.35 C 354.12,626.35 352.72999,625.88501 351.35,624.925 C 349.85,623.785 349.15001,622.56999 349.15,621.25 L 349.15,605.725 C 349.15,604.225 349.79499,603.02 351.175,602 C 352.615,601.04 354.06,600.54999 355.5,600.55 L 377.875,600.55 L 377.875,636.675 C 377.875,638.175 377.14999,639.43 375.65,640.45 C 374.39,641.35 373.02501,641.85 371.525,641.85 L 355.5,641.85 z M 381.125,641.85 L 381.125,605.725 C 381.125,604.225 381.84501,602.96 383.225,602 C 384.605,601.04 386.03499,600.54999 387.475,600.55 L 403.5,600.55 C 405,600.55 406.36999,601.04 407.75,602 C 409.13,603.02 409.84999,604.22501 409.85,605.725 L 409.85,641.85 L 397.075,641.85 L 397.075,610.825 L 393.9,610.825 L 393.9,641.85 L 381.125,641.85 z M 415.2,641.85 L 415.2,639.25 L 412.025,639.25 L 412.025,628.95 L 415.2,628.95 L 415.2,605.725 C 415.2,604.285 415.97502,603.03001 417.475,601.95 C 418.855,601.05 420.16999,600.54999 421.55,600.55 L 437.575,600.55 C 439.015,600.55 440.47001,601.04 441.85,602 C 443.29,603.02 444,604.22501 444,605.725 L 444,626.35 L 431.225,626.35 L 431.225,610.825 L 428.05,610.825 L 428.05,628.95 L 444,628.95 L 444,639.25 L 428.05,639.25 L 428.05,641.85 L 415.2,641.85 z M 453.6,641.85 C 452.04,641.85 450.66,641.35 449.4,640.45 C 447.96,639.43 447.25001,638.17499 447.25,636.675 L 447.25,605.725 C 447.25,604.225 447.89502,602.96 449.275,602 C 450.715,601.04 452.16,600.54999 453.6,600.55 L 469.55,600.55 C 470.99,600.55 472.43502,601.04 473.875,602 C 475.255,603.02 475.97502,604.22501 475.975,605.725 L 475.975,636.675 C 475.975,638.115 475.26498,639.37 473.825,640.45 C 472.565,641.35 471.10999,641.85 469.55,641.85 L 453.6,641.85 z M 460.025,631.525 L 463.15,631.525 L 463.15,610.825 L 460.025,610.825 L 460.025,631.525 z M 361.925,616.05 L 365.05,616.05 L 365.05,610.825 L 361.925,610.825 L 361.925,616.05 z"
                id="gta_white" style="fill:#ffffff;fill-opacity:1;fill-rule:evenodd;stroke:none" />
            <path
                d="M 567.25,274.75 C 564.40747,274.67309 560.70312,275.84375 556.0625,278.1875 C 553.06251,279.76251 550.41875,281.55625 548.09375,283.65625 C 543.36877,287.93126 541.425,292.125 542.25,296.25 C 541.86027,297.71058 541.80511,299.15054 542.09375,300.59375 L 542.1875,300.6875 C 542.56251,302.71251 543.75625,304.43125 545.78125,305.78125 C 545.98427,305.9193 546.19444,306.03214 546.40625,306.15625 C 545.68642,306.526 544.99109,306.94553 544.34375,307.4375 C 542.01877,309.23751 540.83125,311.18125 540.90625,313.28125 L 540.90625,313.65625 C 540.91668,314.23001 541.01201,314.75691 541.15625,315.25 C 541.15911,315.25977 541.15334,315.27151 541.15625,315.28125 C 540.86545,316.04037 540.72222,316.81924 540.75,317.625 L 540.75,317.9375 C 540.73834,318.57892 540.8083,319.17706 540.96875,319.71875 C 540.33526,319.83375 539.71561,319.9429 539.0625,320.0625 L 539.625,315.59375 L 539.625,315.4375 L 539.9375,309.0625 L 539.9375,309 C 539.9375,308.86959 539.93976,308.75263 539.9375,308.625 C 540.10963,305.21492 540.11938,302.86879 539.9375,301.65625 L 539.9375,301.5625 C 539.48751,298.63749 537.975,296.7625 535.5,295.9375 C 533.325,295.26249 531.4625,295.4875 529.8125,296.6875 L 529.8125,296.78125 C 529.12413,297.22667 528.33202,297.98616 527.46875,299 C 526.94676,297.98854 526.18928,297.07506 525.21875,296.3125 L 525.15625,296.3125 C 523.381,294.90455 520.724,294.28404 517.25,294.375 L 518.40625,288.90625 L 518.46875,288.53125 L 518.5625,287.625 C 518.56251,284.7 517.1125,282.8875 514.1875,282.0625 L 514.0625,282 C 513.70625,281.94375 513.32265,281.90625 512.96875,281.90625 C 511.90704,281.90625 510.89375,282.18125 509.9375,282.6875 L 510,282.6875 C 508.575,283.43751 507.66875,284.5625 507.21875,286.0625 L 506.5625,288.53125 C 505.48863,292.35696 504.51238,295.23495 503.625,297.3125 C 500.88486,298.23988 498.21355,299.36204 495.53125,300.53125 L 495.59375,300.53125 C 494.15795,301.14659 493.15695,302.12537 492.59375,303.375 C 492.41094,303.16038 492.21676,302.96911 492,302.78125 L 491.9375,302.6875 C 490.73751,301.71249 489.375,301.3625 487.875,301.4375 L 487.8125,301.4375 C 482.48751,301.88751 477.45,305.1125 472.875,311.1875 C 471,313.58751 469.71875,316.4375 468.96875,319.8125 C 468.49814,321.82939 468.3972,323.59577 468.625,325.125 C 467.99735,328.93053 468.68675,331.8527 470.71875,333.84375 C 467.85804,334.4707 464.99629,335.1018 462.09375,335.75 C 463.30754,334.38546 464.47497,332.82399 465.59375,331.0625 C 466.26874,330.01251 466.5625,328.94375 466.5625,327.96875 C 466.5625,327.2075 466.45467,326.51441 466.21875,325.875 C 466.51248,325.21309 466.65625,324.46199 466.65625,323.625 C 466.65626,321.525 465.7375,319.875 463.9375,318.75 C 463.16269,318.25413 462.39416,317.95013 461.59375,317.84375 C 461.68419,317.32554 461.75644,316.80218 461.78125,316.28125 L 461.78125,316.1875 C 461.78126,313.78983 460.98599,311.85415 459.4375,310.4375 L 459.3125,310.28125 C 457.60246,308.51128 455.33616,307.73929 452.5625,308.03125 C 448.91325,308.28104 445.72102,310.83288 442.8125,315.53125 L 442.5,315 L 442.0625,314.78125 L 439.5625,313.4375 L 438.75,313.1875 L 438.53125,313.1875 C 436.65626,312.88749 434.69375,313.65625 432.59375,315.53125 L 432.375,315.75 C 431.0093,316.96937 429.67726,318.58279 428.375,320.5 C 427.78999,319.79281 427.03714,319.2484 426.09375,318.875 C 427.68176,316.05648 429.13297,313.49524 430.9375,310.28125 L 430.9375,310.1875 C 431.68749,308.76249 431.85625,307.34375 431.40625,305.84375 L 431.40625,305.9375 C 431.36353,305.78797 431.30208,305.64294 431.25,305.5 C 431.86049,304.23315 431.94823,302.95618 431.5625,301.5625 L 431.5625,301.5 C 431.10702,299.95395 430.18844,298.80312 428.78125,298.0625 C 427.35626,297.31251 425.9375,297.14375 424.4375,297.59375 C 422.89424,297.97539 421.78311,298.81212 420.96875,300.21875 L 404.59375,329.0625 L 404.1875,326.84375 C 403.96251,325.34374 403.13125,324.1625 401.78125,323.1875 L 401.6875,323.09375 C 400.33749,322.26874 398.9375,321.9625 397.4375,322.1875 C 395.86251,322.48749 394.5875,323.3375 393.6875,324.6875 C 392.86251,325.96251 392.4625,327.3 392.6875,328.875 L 392.6875,328.9375 L 392.90625,330 L 392.90625,330.03125 C 392.50055,331.0289 392.39527,332.1039 392.5625,333.21875 L 395.1875,347.3125 L 395.1875,347.03125 L 395.25,347.1875 L 395.25,347.40625 C 395.625,350.78126 397.35625,352.79375 400.28125,353.46875 C 402.23497,354.0594 404.08109,353.71672 405.78125,352.4375 C 405.66478,353.17394 405.70407,353.91921 405.90625,354.6875 C 405.96117,354.90718 406.01998,355.10891 406.09375,355.3125 C 405.75835,356.04394 405.59375,356.849 405.59375,357.6875 L 405.6875,358.5625 L 405.6875,358.8125 L 405.75,359.03125 C 406.125,360.53126 406.9625,361.65625 408.3125,362.40625 L 408.21875,362.3125 C 409.64374,363.13749 411.0125,363.375 412.4375,363 L 448.1875,354.4375 C 475.51507,348.0923 501.02313,342.69454 524.8125,338.21875 C 524.14471,342.86428 523.50041,347.19984 522.875,350.78125 C 521.40175,351.87304 520.65625,353.36738 520.65625,355.28125 L 520.65625,355.5 C 520.68206,356.32607 520.72281,357.05068 520.78125,357.71875 C 520.58925,358.30085 520.5,358.94759 520.5,359.625 L 520.5,359.84375 C 520.575,362.16874 520.7875,363.96875 521.3125,365.09375 C 522.21249,367.41874 523.9375,368.70625 526.5625,368.78125 C 528.58749,368.85626 530.10625,368.24375 531.15625,366.96875 L 531.21875,366.90625 C 531.89377,366.08126 532.49375,364.64375 533.09375,362.46875 C 533.91877,359.31874 535.1125,351.2375 536.6875,338.1875 L 536.96875,335.96875 C 579.2407,328.17794 609.88946,323.91787 628.8125,323.25 C 641.93751,322.875 650.0375,324.225 653.1875,327.375 L 653.25,327.4375 C 653.20523,328.13072 653.30647,328.81016 653.53125,329.46875 C 653.4752,329.7279 653.4168,330.017 653.3125,330.3125 C 652.78749,331.81251 652.875,333.225 653.625,334.5 L 653.5625,334.4375 C 654.23751,335.86251 655.28125,336.81875 656.78125,337.34375 L 657,337.4375 L 657.4375,337.4375 L 660.3125,337.28125 L 660.75,337.28125 L 660.96875,337.125 C 662.39377,336.45 663.3625,335.40625 663.8125,333.90625 C 664.79383,331.23026 665.11313,328.75857 664.75,326.46875 C 664.86745,325.70724 664.9375,324.95294 664.9375,324.21875 C 664.93749,320.99374 663.8125,318.06875 661.5625,315.59375 C 660.14464,314.0071 658.37116,312.67254 656.25,311.5625 C 659.69626,309.84059 662.36349,308.00053 664.1875,306 L 664.4375,305.625 L 664.65625,305.40625 L 664.34375,305.84375 C 665.61877,304.64374 666.375,303.00625 666.75,300.90625 C 666.95169,299.57509 666.91972,298.44231 666.6875,297.5 C 666.76532,297.19411 666.8476,296.89092 666.90625,296.5625 C 667.28123,294.08751 666.9,292.28125 665.625,291.15625 L 665.6875,291.15625 C 664.71249,290.03126 663.75,289.4875 662.625,289.5625 C 661.75125,289.49528 660.80671,289.88021 659.8125,290.65625 C 659.75706,288.4699 659.40844,286.78453 658.71875,285.75 C 657.96877,284.475 656.8625,283.65625 655.4375,283.28125 L 655.34375,283.1875 C 652.79377,282.51249 650.1,283.9625 647.25,287.5625 L 647.25,287.625 L 646.53125,288.5625 C 646.41459,288.31568 646.2806,288.0685 646.125,287.84375 L 646.1875,288 C 645.51249,286.65 644.55,285.6125 643.125,284.9375 L 643.1875,284.9375 C 641.91249,284.18751 640.65625,283.8625 639.53125,283.9375 L 639.4375,283.9375 C 637.07011,284.07841 634.85989,284.82405 632.8125,286.15625 C 632.90487,285.73246 632.95541,285.29158 632.9375,284.84375 C 632.96563,283.97187 632.80137,283.19983 632.4375,282.5 C 632.58709,280.88171 631.9611,279.60669 630.53125,278.6875 L 630.4375,278.625 C 627.96249,276.9 625.73125,276.9125 623.78125,278.5625 C 622.6492,279.38009 622.10108,280.68364 622.125,282.40625 C 621.9772,282.83423 621.87335,283.30542 621.8125,283.8125 L 621.75,284.84375 L 621.75,285.0625 C 621.75,285.72577 621.81308,286.31822 621.90625,286.875 L 621.59375,286.875 L 621.3125,286.875 L 621,287.03125 C 619.5,287.63126 618.29375,288.6 617.46875,289.875 L 617.46875,289.8125 C 617.28116,290.08347 617.0222,290.41759 616.71875,290.78125 C 616.23633,289.72291 615.39464,288.82255 614.1875,288.0625 C 613.68359,287.74755 613.1813,287.50824 612.6875,287.3125 C 612.79026,287.01478 612.88301,286.6998 612.9375,286.375 L 612.96875,286.34375 L 612.9375,286.3125 C 612.99219,285.96488 613.0625,285.59788 613.0625,285.21875 L 613.0625,284.9375 L 612.90625,284.03125 L 612.8125,283.9375 C 612.51837,282.4669 611.79234,281.39779 610.5625,280.71875 L 610.5,280.65625 C 609.3905,279.94627 608.08039,279.76926 606.6875,280.0625 L 606.6875,279.96875 L 589.375,283.5 C 589.47776,283.20201 589.5737,282.89094 589.65625,282.59375 L 589.71875,282.3125 L 589.875,281.1875 L 589.875,280.9375 C 589.95,278.46249 588.75625,276.7625 586.28125,275.9375 L 586.34375,276 C 584.91877,275.4 583.5125,275.4125 581.9375,275.9375 L 581.78125,276 C 580.20623,276.675 579.08125,277.88125 578.40625,279.53125 L 577.9375,280.65625 L 577.875,280.71875 C 577.39604,282.01878 576.56639,283.8998 575.40625,286.3125 L 574.0625,286.65625 C 574.0625,286.10125 574.0165,285.58975 573.9375,285.09375 C 573.94663,285.03836 573.9597,284.99405 573.96875,284.9375 L 573.96875,284.6875 L 574.125,282.375 L 574.125,282.3125 C 574.125,279.51107 573.24792,277.49717 571.4375,276.21875 L 571.34375,276.15625 C 570.28725,275.27653 568.90939,274.7949 567.25,274.75 z M 503.5625,326.3125 C 503.63514,326.49296 503.70096,326.6743 503.78125,326.84375 C 503.57251,326.88618 503.36526,326.9262 503.15625,326.96875 C 503.29747,326.74894 503.41644,326.54614 503.5625,326.3125 z M 488.71875,329.15625 C 488.81023,329.4156 488.92061,329.66952 489.03125,329.90625 C 488.49393,330.01948 487.94529,330.13602 487.40625,330.25 L 488.71875,329.15625 z M 413.25,341.4375 C 413.31799,341.6526 413.37711,341.8744 413.46875,342.0625 L 413.46875,342.15625 C 413.48448,342.18947 413.51503,342.2172 413.53125,342.25 C 413.38225,344.17338 413.52948,345.67316 414,346.71875 C 414.03514,346.81414 414.0852,346.90797 414.125,347 L 409.875,348 C 409.64075,348.06164 409.43678,348.16432 409.21875,348.25 C 409.97376,347.0704 411.39744,344.63028 413.25,341.4375 z M 425.3125,343.875 C 425.42278,343.99307 425.53748,344.10684 425.65625,344.21875 L 425.15625,344.34375 C 425.14888,344.20053 425.11402,344.05385 425.09375,343.90625 L 425.3125,343.875 z"
                transform="matrix(0.8,0,0,-0.8,0,842)" id="VCS_shadow"
                style="fill:#000000;fill-opacity:1;fill-rule:evenodd;stroke:none" />
            <path
                d="M 453.325,620.7 C 451.3334,620.67598 448.725,619.85 445.5,618.2 C 443.22,617 441.19,615.62 439.45,614 C 436.15001,611 434.71,608.07 435.25,605.25 C 435.49001,603.99001 436.255,602.89 437.575,602.05 C 438.83502,601.20999 440.39,600.735 442.25,600.675 L 446.15,600.625 C 448.36999,600.68501 450.11,600.67 451.25,600.55 C 449.74999,599.16999 448.57,598.35 447.55,598.05 C 446.59001,597.69001 444.355,597.255 440.875,596.775 C 439.13502,596.53499 437.645,595.945 436.325,594.925 C 434.88498,593.84501 434.15,592.635 434.15,591.375 L 434.15,591.2 C 434.32999,588.8 436.67,587.61 441.05,587.55 C 444.28999,587.55001 447.845,588.85 451.625,591.55 C 453.60498,592.92999 455.53,594.63 457.45,596.55 C 457.51001,595.59001 457.69,594.8 458.05,594.2 C 458.71001,593.06 459.775,592.33 461.275,592.15 C 463.01502,591.90999 465.23,593 468.05,595.4 L 468.05,595.275 C 468.82999,593.29499 470.395,592.275 472.675,592.275 C 474.35502,592.27499 476.045,592.94 477.725,594.2 C 479.22498,595.4 480.43,596.89 481.45,598.75 L 481.325,597.925 C 481.32498,596.66501 481.75,595.695 482.65,594.975 C 484.51001,593.35499 486.83,593.605 489.65,595.825 L 492.65,598.225 C 492.82999,597.50501 493.205,596.905 493.625,596.425 C 495.06498,594.80501 497.63,595.105 501.35,597.325 C 501.64999,597.02501 501.965,596.73 502.325,596.55 C 503.82498,595.71001 505.67,595.695 507.95,596.475 C 510.28999,597.25499 512.46,598.215 514.5,599.475 L 514.45,598.825 C 514.45001,598.04501 514.75,597.39 515.35,596.85 C 516.01001,596.19001 517.085,595.81 518.525,595.75 C 519.78498,595.68999 520.975,595.945 522.175,596.425 C 525.83502,597.92501 528.6,599.67 530.4,601.65 L 530.575,601.825 C 531.35502,602.60501 531.835,603.62 532.075,605 C 532.31502,606.38 532.135,607.465 531.475,608.125 C 530.63502,609.14501 529.69,609.135 528.55,608.175 L 526.2,605.95 L 526.45,609.025 C 526.45001,610.64501 526.205,611.895 525.725,612.675 C 525.30498,613.33499 524.755,613.82 523.975,614 C 522.41502,614.3 520.75,613.33 518.95,611.05 L 518.225,610.1 L 517.975,609.85 L 516.125,607.95 L 516.25,608.95 C 516.25001,609.72999 516.06,610.41 515.7,610.95 C 515.28,611.73001 514.69,612.38 513.85,612.8 C 513.07001,613.22 512.335,613.46 511.675,613.4 C 507.17502,613.04 503.4,609.685 500.4,603.325 L 500.35,603.25 L 499.625,602.85 L 500.35,604.45 L 501.35,607.1 C 501.52999,607.58 501.6,608.055 501.6,608.475 C 501.6,609.73499 501.055,610.635 499.975,611.175 L 497.35,611.05 C 496.45001,610.68999 495.715,610.105 495.175,609.325 C 494.63502,608.54501 493.435,607.21 491.575,605.35 L 491.825,605.725 C 492.12498,606.38501 492.3,606.91 492.3,607.45 C 492.3,608.64999 491.69,609.63 490.55,610.35 C 489.52999,611.01001 488.52,611.24 487.5,611 C 488.52,611.66 489,612.625 489,613.825 L 488.875,614.55 C 488.69502,615.33001 488.335,615.865 487.675,616.225 C 487.07502,616.64501 486.43,616.755 485.65,616.575 L 469.075,613.225 C 469.61502,614.30501 470.05,615.33 470.35,616.35 L 470.45,617.25 C 470.44999,618.57001 469.81,619.455 468.55,619.875 C 467.77001,620.17499 466.925,620.175 466.025,619.875 C 465.12498,619.45499 464.47,618.81 464.05,617.85 L 463.675,616.95 C 463.25502,615.81001 462.54,614.055 461.4,611.775 L 456.9,610.575 C 457.2,611.65499 457.51,612.92 457.75,614.3 L 457.85,616.15 C 457.84999,617.88999 457.33,619.095 456.25,619.875 C 455.5075,620.4375 454.51996,620.71442 453.325,620.7 z M 501.625,618.625 C 501.0175,618.6475 500.46499,618.445 499.925,618.025 C 499.265,617.485 499.02,616.65001 499.2,615.45 C 499.44,614.07 500.02999,613.22501 501.05,612.925 C 501.65,612.745 502.26,612.86501 502.8,613.225 C 503.4,613.645 503.80999,614.12 504.05,614.6 C 504.71,616.1 504.59502,617.18 503.575,617.9 C 502.885,618.35 502.2325,618.6025 501.625,618.625 z M 410.375,615.05 C 409.7675,615.0725 409.19,614.915 408.65,614.6 C 407.86999,614.18 407.39,613.59 407.15,612.75 L 406.625,610.75 C 405.60501,607.26999 404.755,604.69 403.975,602.95 C 401.63499,602.16999 399.305,601.27 397.025,600.25 C 396.18501,599.88999 395.65,599.305 395.35,598.525 C 395.17001,598.10501 395.1,597.735 395.1,597.375 C 395.1,596.95499 395.22,596.545 395.4,596.125 C 395.76,595.34501 396.37,594.75 397.15,594.45 L 399.6,594.5 L 399.725,594.55 L 398.525,592.275 C 398.16501,592.99499 397.685,593.55 397.025,593.85 C 395.88501,594.51001 394.675,594.51 393.475,593.85 C 392.57499,593.37001 390.595,591.855 387.475,589.275 L 383.1,585.675 C 383.46,586.69499 383.935,587.605 384.475,588.325 C 386.69499,591.26501 388.87,592.825 390.85,593.125 C 391.69001,593.18501 392.41,593.55 392.95,594.15 C 393.49001,594.75001 393.775,595.47 393.775,596.25 L 393.725,596.55 C 393.66501,597.45001 393.31,598.16 392.65,598.7 C 391.99001,599.24 391.19,599.485 390.35,599.425 C 386.44999,599.00501 382.87,596.59 379.45,592.15 C 378.07001,590.40999 377.09,588.31 376.55,585.85 C 375.88999,582.90999 376.325,580.705 377.825,579.325 C 380.22501,577.10501 383.77,577.875 388.45,581.775 L 392.05,584.775 C 392.11001,582.43499 393.01,580.94 394.75,580.4 L 394.8,580.35 C 396.36,579.81001 397.86,580.275 399.3,581.775 C 400.32,582.79499 401.58,584.77 403.2,587.65 L 403.625,588.45 C 403.74501,585.27001 404.69,583.33 406.55,582.55 C 409.00999,581.58999 411.48,583.155 414,587.175 C 414.42,586.51499 415.02,585.975 415.8,585.675 C 417.24,585.13499 418.615,585.45 419.875,586.65 C 420.83502,587.49001 422.155,589.17 423.775,591.75 L 423.85,591.8 L 422.95,582.975 C 403.09001,579.25499 381.6,574.765 358.5,569.425 L 328.25,562.225 C 327.46999,562.04501 326.82,561.57 326.4,560.85 C 325.98,560.13001 325.92,559.405 326.1,558.625 C 326.28,557.84501 326.755,557.245 327.475,556.825 C 328.19499,556.40501 328.97,556.27 329.75,556.45 L 358.375,563.3 C 381.11499,568.52 402.36,573.03 422.1,576.75 C 421.2,570.33001 420.43,564.93 419.65,560.55 C 418.51001,559.95001 417.95,559.035 417.95,557.775 L 417.95,557.65 C 418.00999,555.90999 418.15,554.73 418.45,553.95 C 418.99001,552.63001 420,551.96 421.5,551.9 C 422.58,551.84 423.41,552.19 423.95,552.85 C 424.42999,553.44999 424.85,554.47 425.15,555.85 C 425.86999,558.60999 426.85,565.045 428.05,575.125 L 428.4,577.95 C 462.84,584.31001 487.74,587.71 503.1,588.25 C 514.2,588.66999 521.1,587.43 523.8,584.55 C 524.64,583.65001 524.765,582.37 524.225,580.75 C 523.92498,579.96999 523.99,579.195 524.35,578.475 C 524.71001,577.69499 525.245,577.215 526.025,576.975 L 528.3,577.1 C 529.08,577.4 529.56,577.995 529.8,578.775 C 530.28,580.09499 530.525,581.365 530.525,582.625 C 530.52498,584.84501 529.735,586.81 528.175,588.55 C 525.83502,591.12999 522.185,592.875 517.325,593.775 C 512.46498,594.67499 505.865,594.865 497.525,594.325 C 483.84498,593.42501 461.11,590.005 429.25,584.125 L 429.55,586.275 L 430.375,593.175 C 430.61502,596.89499 430.68,599.36 430.5,600.5 C 430.2,602.24 429.365,603.37 427.925,603.85 C 426.72498,604.26999 425.635,604.11 424.675,603.45 C 423.77502,602.79001 422.63,601.465 421.25,599.425 L 421.25,599.6 C 421.24999,601.34 420.595,602.78 419.275,603.8 C 417.71502,604.94 415.325,605.37 412.025,604.95 L 413.35,611.175 L 413.4,611.9 C 413.4,613.52 412.62,614.53 411,614.95 C 410.79,614.995 410.5775,615.0425 410.375,615.05 z M 451.45,613.65 L 451.325,613.35 C 450.90498,612.21001 450.725,611.35 450.725,610.75 C 450.72498,610.26999 450.77,609.795 450.95,609.375 C 451.24999,608.71499 451.795,608.245 452.575,607.825 L 452.45,607.05 L 442.675,607.275 C 443.15502,608.95499 445.5,610.81 449.7,612.85 L 451.45,613.65 z M 486.65,610.575 L 486.425,610.275 C 485.70498,609.25499 484.08,608 481.5,606.5 L 481.075,607.225 C 480.41502,608.00501 479.53,608.475 478.45,608.775 L 486.35,610.4 L 486.65,610.575 z M 471.55,607.35 C 470.53001,606.57001 469.62,605.545 468.9,604.225 C 467.58,602.72501 466.09,601.335 464.35,600.075 C 464.77001,601.81499 465.425,603.925 466.325,606.325 L 471.55,607.35 z M 341.025,602.7 C 340.87569,602.70751 340.72758,602.69118 340.575,602.675 C 340.37156,602.65344 340.16,602.61 339.95,602.55 C 339.10999,602.37001 338.47,601.88 338.05,601.1 L 322.975,574.575 L 321.9,580.275 C 321.72,581.11499 321.295,581.785 320.575,582.325 C 319.79499,582.80501 319.015,582.98 318.175,582.8 C 317.27499,582.62 316.63,582.195 316.15,581.475 C 315.67001,580.75499 315.48,579.975 315.6,579.075 L 317.825,567.675 C 318.06501,565.69499 319.02,564.495 320.7,564.075 C 322.68,563.59499 324.43,564.67 326.05,567.25 L 335.05,582.925 C 332.17001,575.72501 331.2,571.035 332.1,568.875 C 332.46,568.09499 333.05,567.5 333.95,567.2 C 334.84999,566.84 335.825,566.85 336.725,567.15 C 337.56501,567.45001 338.155,567.92 338.575,568.7 C 338.99499,569.42 339.125,570.195 338.825,570.975 L 338.825,571.1 C 338.82501,571.88 339.25,573.61 340.15,576.25 L 340.075,575.95 L 340.075,575.9 C 339.83499,573.2 340.805,571.28 343.025,570.2 C 345.66501,568.94 349.44,570.015 354.3,573.375 C 356.34,571.63499 359.105,571.57 362.525,573.25 C 365.94501,574.62999 368.88,577.405 371.4,581.425 C 371.7,581.90501 371.875,582.44 371.875,583.1 C 371.87499,584.24 371.395,585.14 370.375,585.8 C 369.35499,586.46 368.28,586.45 367.2,585.85 C 367.68,586.86999 367.915,587.97 367.975,589.05 C 367.97499,590.55001 367.495,591.8 366.475,592.7 C 365.39499,593.84 363.965,594.33 362.225,594.15 C 359.76501,593.91001 357.49,592.1 355.45,588.8 C 354.97001,588.08 354.48,587.17 354,586.15 L 354,586.35 C 354,587.19001 353.69,587.965 353.15,588.625 L 352.975,588.925 L 351,590 L 350.65,590 C 349.51001,590.12 348.31,589.64 347.05,588.5 L 346.85,588.325 C 345.22999,586.94501 343.74,584.89 342.3,582.25 L 342.35,582.75 C 342.34999,583.17001 342.24,583.63 342,584.05 C 341.64,584.82999 340.985,585.375 340.025,585.675 C 338.52501,586.15499 337.195,585.87 336.175,584.85 L 343.55,597.975 C 343.96999,598.75499 344.09,599.535 343.85,600.375 C 343.60999,601.27499 343.13,601.88 342.35,602.3 C 341.91124,602.53625 341.47294,602.67746 341.025,602.7 z M 475.55,602.3 L 475.8,602 C 475.92,601.7 475.865,601.225 475.625,600.625 C 475.32498,599.78501 474.89,599.12 474.35,598.7 C 473.98999,598.28 473.635,598.105 473.275,598.225 C 472.73502,598.40501 472.63,599.055 473.05,600.075 L 474.35,602 L 474.725,602.25 L 475.55,602.3 z M 414.025,598.825 C 414.29594,598.84 414.55,598.84 414.775,598.825 L 414.55,597.55 L 413.65,592.225 L 413.45,592.35 C 412.36999,593.01001 411.29,592.935 410.15,592.275 C 410.26999,593.89499 410.53,595.935 410.95,598.275 C 412.21001,598.59 413.21219,598.78 414.025,598.825 z M 353.05,583.7 C 352.57001,582.32 352.27,580.995 352.15,579.675 C 349.93001,577.99499 348.125,576.85 346.625,576.25 C 347.10501,577.98999 348.115,579.91 349.675,581.95 C 350.33499,581.88999 350.885,582.075 351.425,582.375 C 352.08501,582.79499 352.63,583.22 353.05,583.7 z"
                id="VCS_pink" style="fill:#e65a9e;fill-opacity:1;fill-rule:evenodd;stroke:none" />
            <path
                d="M 446.04,616.58 C 444.3,615.68 442.62,614.54 441,613.16 C 437.7,610.34 436.32,607.76 436.74,605.42 C 436.92,604.52 437.52,603.8 438.54,603.14 C 439.56,602.6 440.76,602.3 442.14,602.24 L 450.9,602.06 C 453.6,601.82 454.08,600.86 452.28,599.24 C 450.6,597.74 449.16,596.78 447.96,596.36 C 446.88,595.94 444.54,595.46 440.94,595.04 C 439.68,594.86 438.6,594.44 437.64,593.78 C 436.62,593.18 436.02,592.52 435.78,591.8 C 435.12,590 436.86,589.1 440.88,589.1 C 443.82,589.1 447,590.3 450.54,592.76 C 454.74,595.76 458.04,599.24 460.5,603.2 L 459.06,598.76 C 458.46,595.64 459.24,593.96 461.34,593.66 C 463.2,593.42 465.9,595.22 469.5,599.12 C 469.08,597.74 469.08,596.6 469.5,595.76 C 470.1,594.62 471.18,594.02 472.8,594.02 C 474.48,594.08 476.1,594.92 477.6,596.6 C 478.8,597.86 479.7,599.36 480.36,600.98 C 480.42,601.16 482.34,602.36 486.18,604.7 C 486.48,605.12 485.52,603.26 483.18,599.06 C 482.4,597.74 482.64,596.72 483.78,595.94 C 485.04,595.16 486.6,595.46 488.52,596.96 C 491.46,599.18 493.68,601.04 495.18,602.48 C 495.42,602.78 495.24,602.24 494.58,600.98 C 493.92,599.36 493.98,598.16 494.7,597.38 C 495.72,596.24 498.06,596.96 501.72,599.42 L 502.68,598.04 C 503.7,597.32 505.26,597.26 507.24,597.92 C 511.74,599.42 515.58,601.76 518.88,604.88 L 521.46,607.64 C 522,608.3 522.24,608.54 522.3,608.36 C 522.48,607.58 522.24,606.14 521.58,604.1 C 521.04,602.36 520.56,601.22 520.2,600.62 L 518.22,600.56 C 517.08,600.62 516.36,600.2 516.06,599.3 C 515.7,598.22 516.18,597.56 517.5,597.38 C 518.76,597.14 520.02,597.32 521.4,597.86 C 524.7,599.18 527.34,600.86 529.2,602.9 C 529.86,603.56 530.28,604.46 530.34,605.72 C 530.4,606.98 530.16,607.28 529.5,606.74 L 528.66,606.08 C 524.94,602.36 523.2,600.86 523.38,601.64 C 524.04,603.62 524.46,605.78 524.58,608.06 C 524.7,610.64 524.34,612.02 523.5,612.2 C 522.78,612.38 522,612.02 521.22,611.12 L 519.24,608.78 C 515.58,604.82 511.92,602.12 508.26,600.62 C 506.52,599.96 505.44,599.66 505.02,599.72 C 504.78,599.78 504.54,600.08 504.36,600.62 L 511.5,604.94 C 513.84,606.56 514.8,608.12 514.26,609.62 C 514.08,610.28 513.42,610.82 512.4,611.3 L 510.24,611.42 C 509.1,611.12 507.9,610.46 506.58,609.32 C 505.02,608.06 503.58,606.08 502.2,603.5 C 501.96,602.66 501.72,602.18 501.48,602 C 498.78,600.14 497.4,599.54 497.22,600.32 C 497.04,600.92 497.34,602.06 498.12,603.8 L 499.62,607.4 C 499.98,608.78 499.68,609.56 498.72,609.62 C 497.82,609.68 497.04,609.2 496.38,608.24 C 495.66,607.22 494.04,605.42 491.46,602.84 C 488.64,600.08 487.08,598.94 486.78,599.42 C 486.72,599.6 487.86,601.94 490.2,606.38 C 490.74,607.4 490.5,608.18 489.48,608.78 C 488.52,609.44 487.86,609.56 487.56,609.14 C 486.9,608.24 485.46,607.04 483.36,605.66 C 481.26,604.34 480.24,603.8 480.24,604.1 C 480.3,604.7 480.12,605.3 479.7,605.84 C 479.1,606.62 478.14,607.1 476.76,607.16 C 473.82,607.34 471.6,606.02 470.1,603.14 C 466.08,598.82 463.56,596.96 462.48,597.62 C 462.18,597.8 462.24,598.82 462.66,600.8 C 463.14,602.78 463.92,605.06 464.94,607.58 L 485.7,611.9 C 486.72,612.2 487.2,612.8 487.14,613.7 C 487.08,614.6 486.66,614.96 485.76,614.78 L 465.9,610.76 C 467.34,613.64 468.24,615.62 468.6,616.7 C 468.9,617.6 468.54,618.08 467.52,618.26 C 466.5,618.44 465.84,618.02 465.42,617.06 L 462.48,610.22 L 455.28,608.36 C 454.14,608 453.72,607.4 453.96,606.62 C 454.26,605.84 454.92,605.54 456,605.84 L 460.62,606.98 C 459.66,605.72 458.34,604.34 456.6,602.78 C 456.66,603.02 456.66,603.32 456.48,603.68 C 456.18,604.4 455.22,604.88 453.72,605.12 L 442.26,605.48 C 441.72,605.48 441.36,605.66 441.06,606.08 C 440.76,606.44 440.7,606.92 440.82,607.46 C 441.48,609.68 444.18,611.96 448.8,614.18 C 450.66,615.08 451.8,615.5 452.34,615.5 C 453.12,615.44 453.3,614.72 453,613.34 L 452.28,611.12 C 452.1,610.1 452.46,609.38 453.36,609.08 C 454.38,608.78 455.22,610.58 455.94,614.48 C 456.9,619.7 453.6,620.36 446.04,616.58 z M 501.3,613.94 C 501.72,613.88 502.14,614.06 502.56,614.6 C 502.98,615.02 503.16,615.44 503.16,615.86 C 503.16,616.4 502.74,616.82 501.96,617.12 C 501.12,617.42 500.64,617.18 500.46,616.34 L 500.46,616.1 C 500.4,615.74 500.4,615.32 500.58,614.84 C 500.76,614.3 501,614 501.3,613.94 z M 408.6,612.14 L 408,610.16 C 406.86,606.26 405.9,603.32 405.06,601.46 C 402.84,600.74 400.38,599.78 397.56,598.58 C 396.66,598.16 396.36,597.56 396.78,596.66 C 397.2,595.76 397.86,595.46 398.76,595.88 C 399.9,596.42 401.34,596.96 403.2,597.62 L 398.88,589.76 C 397.98,588.02 397.2,586.76 396.6,585.98 L 396.9,588.86 L 396.96,589.04 L 397.02,590.24 C 397.02,591.2 396.72,591.86 396.06,592.28 C 395.4,592.58 394.56,592.52 393.66,591.98 C 392.94,591.56 391.2,590.18 388.44,587.84 L 385.26,585.2 C 383.16,583.46 381.72,582.62 380.88,582.62 L 380.76,583.22 C 380.76,585.32 381.48,587.3 382.98,589.22 C 385.56,592.52 388.08,594.32 390.54,594.62 C 391.44,594.74 391.92,595.22 391.92,596.12 L 391.92,596.24 C 391.86,597.26 391.32,597.68 390.3,597.62 C 389.4,597.56 388.38,597.2 387.18,596.66 C 384.78,595.52 382.62,593.6 380.64,591.02 C 379.5,589.52 378.66,587.72 378.12,585.62 C 377.46,583.16 377.7,581.42 378.78,580.4 C 380.52,578.78 383.28,579.62 387.18,582.92 L 393.84,588.38 C 393.66,587 393.54,585.92 393.54,585.2 C 393.54,583.28 394.08,582.14 395.16,581.78 C 396.06,581.48 396.96,581.84 397.86,582.8 C 398.82,583.76 400.08,585.62 401.58,588.32 L 405.72,595.88 C 405.3,593 405.12,590.72 405.12,589.1 C 405.12,586.16 405.78,584.48 407.04,584 C 408.66,583.34 410.64,584.96 412.98,588.74 C 413.52,589.58 413.34,590.24 412.44,590.72 C 411.6,591.26 410.88,591.14 410.34,590.24 C 409.44,588.8 408.72,587.84 408.24,587.3 C 408.18,587.72 408.12,588.2 408.12,588.86 C 408.12,591.2 408.48,594.74 409.26,599.48 C 413.04,600.5 415.32,600.62 416.22,599.96 C 416.4,599.78 416.46,599.48 416.4,599.06 L 415.98,597.08 C 415.32,593.3 414.96,590.9 414.96,589.88 C 414.9,588.38 415.38,587.48 416.28,587.12 C 417.06,586.82 417.84,587 418.68,587.78 C 419.46,588.5 420.66,590.06 422.22,592.52 C 423.6,594.68 424.8,596.42 425.76,597.74 L 425.52,593.36 L 424.26,581.36 L 423.3,581.24 C 403.26,577.46 381.54,572.9 358.08,567.5 L 328.5,560.48 C 327.66,560.24 327.36,559.7 327.54,558.86 C 327.78,558.02 328.32,557.72 329.16,557.96 L 358.68,564.98 C 382.08,570.38 403.8,574.94 423.78,578.66 L 423.9,578.66 C 422.88,570.86 421.86,564.32 420.96,559.1 C 419.94,559.04 419.46,558.56 419.46,557.6 L 419.46,557.54 C 419.52,556.16 419.58,555.2 419.76,554.66 C 420,553.88 420.54,553.46 421.32,553.4 C 421.86,553.4 422.22,553.52 422.4,553.76 C 422.76,554.06 423.12,554.84 423.42,556.1 C 424.08,558.62 424.98,564.98 426.24,575.12 L 426.72,579.26 C 462,585.8 487.38,589.28 502.8,589.82 C 514.5,590.24 521.82,588.8 524.82,585.56 C 526.14,584.18 526.38,582.32 525.6,580.04 C 525.3,579.26 525.6,578.66 526.44,578.36 C 527.28,578.06 527.82,578.36 528.06,579.2 C 529.2,582.38 528.78,585.08 526.8,587.3 C 522.72,591.68 513.24,593.48 498.36,592.58 C 484.5,591.74 460.74,588.2 427.08,581.9 L 428.52,593.18 C 428.76,596.54 428.82,598.7 428.7,599.72 C 428.58,601.1 428.1,601.88 427.2,602.12 C 426.3,602.42 425.4,602 424.38,600.86 C 423.6,600.02 422.04,597.8 419.7,594.14 L 418.14,591.86 L 419.34,598.52 L 419.46,599.48 C 419.46,600.74 418.98,601.64 418.08,602.3 C 416.58,603.44 413.82,603.62 409.8,602.78 L 411.54,611.42 L 411.54,611.72 C 411.54,612.5 411.18,612.98 410.4,613.16 C 409.5,613.4 408.9,613.04 408.6,612.14 z M 352.14,585.8 C 352.26,586.46 352.08,587 351.66,587.42 L 350.34,588.2 C 349.62,588.26 348.84,587.9 348,587.12 L 347.82,586.94 C 346.8,586.04 345.66,584.6 344.46,582.68 C 342.84,580.16 341.88,577.82 341.58,575.6 C 341.4,573.62 342.06,572.3 343.56,571.58 C 345.78,570.5 349.38,571.82 354.42,575.48 L 354.9,574.82 C 356.4,573.2 358.62,573.14 361.68,574.64 C 362.58,575 363.54,575.54 364.56,576.32 C 366.6,577.82 368.34,579.8 369.84,582.2 C 370.02,582.38 370.08,582.68 370.08,582.98 C 370.08,583.52 369.84,583.94 369.36,584.24 C 368.52,584.78 367.8,584.6 367.26,583.7 C 366,581.72 364.56,580.04 362.82,578.78 L 360.6,577.4 L 360.48,577.4 C 358.74,576.5 357.6,576.32 357.06,576.86 L 356.82,577.4 L 361.38,581.3 C 364.56,584.18 366.12,586.7 366.12,588.86 C 366.12,589.88 365.82,590.72 365.22,591.32 L 365.16,591.38 C 364.38,592.16 363.42,592.46 362.22,592.34 C 360.3,592.16 358.44,590.6 356.7,587.78 C 354.6,584.48 353.58,581.48 353.58,578.66 C 349.02,575.12 346.14,573.62 344.94,574.22 C 344.7,574.34 344.58,574.64 344.58,575.18 L 344.58,575.24 C 344.88,577.82 346.32,580.64 348.84,583.7 C 349.38,583.4 349.86,583.4 350.4,583.7 C 351.36,584.24 351.96,584.96 352.14,585.8 z M 363,589.28 L 363.06,588.92 C 363.06,587.54 361.8,585.74 359.34,583.52 L 357.18,581.54 C 357.6,583.16 358.32,584.72 359.28,586.22 C 360.54,588.2 361.56,589.22 362.46,589.4 L 363,589.28 z M 337.02,582.8 C 334.32,575.48 333.3,570.92 334.02,569.12 C 334.38,568.22 335.04,567.92 335.94,568.28 C 336.9,568.64 337.2,569.3 336.84,570.2 C 336.48,571.46 337.5,575.36 339.84,581.78 C 340.2,582.74 339.9,583.4 338.94,583.7 C 337.98,584 337.32,583.7 337.02,582.8 z M 341.4,600.68 C 340.5,601.16 339.84,600.98 339.36,600.08 C 329.46,582.56 323.64,572.48 321.96,569.78 L 320.1,579.8 C 319.92,580.82 319.32,581.18 318.3,581 C 317.34,580.82 316.92,580.22 317.1,579.26 L 319.26,567.92 C 319.38,566.6 319.92,565.82 320.94,565.58 C 322.08,565.28 323.28,566.12 324.48,568.04 C 325.98,570.44 331.8,580.64 342,598.64 C 342.48,599.54 342.3,600.2 341.4,600.68 z M 511.5,608.54 C 511.56,608.12 510.96,607.4 509.64,606.38 C 508.68,605.72 507.42,605 505.92,604.1 L 505.02,603.62 C 505.44,604.52 506.04,605.48 506.94,606.44 C 508.08,607.76 509.1,608.6 510,608.96 C 510.66,609.26 511.14,609.2 511.44,608.84 L 511.5,608.54 z M 475.08,597.92 C 474.3,597.08 473.52,596.72 472.74,596.84 C 471.18,597.26 470.88,598.58 471.84,600.74 C 472.74,602.84 473.88,604.04 475.26,604.34 C 476.34,604.58 477,604.28 477.3,603.5 C 477.48,602.84 477.36,601.94 476.88,600.8 C 476.46,599.66 475.86,598.7 475.08,597.92"
                id="VCS_white" style="fill:#ffffff;fill-opacity:1;fill-rule:evenodd;stroke:none" />
            <path
                d="M 664.5625,284.625 L 664.5625,285.0625 L 665.3125,285.0625 L 665.3125,287.46875 L 665.78125,287.46875 L 665.78125,285.0625 L 666.53125,285.0625 L 666.53125,284.625 L 664.5625,284.625 z M 666.90625,284.625 L 666.90625,287.46875 L 667.4375,287.46875 L 667.4375,285.4375 L 667.34375,285 L 667.4375,285.21875 L 667.4375,285.4375 L 667.875,287.46875 L 668.3125,287.46875 L 668.84375,285 L 668.84375,287.46875 L 669.3125,287.46875 L 669.3125,284.625 L 668.625,284.625 L 668.09375,286.8125 L 667.65625,284.625 L 666.90625,284.625 z"
                transform="matrix(0.8,0,0,-0.8,0,842)" id="TM"
                style="fill:#000000;fill-opacity:1;fill-rule:evenodd;stroke:none" />
        </g>
    </g>
</svg>