<svg viewBox="0 0 1898 543" xmlns="http://www.w3.org/2000/svg"><g stroke="#000" stroke-width=".1"><path d="M1747 1.7l49-.3c20.8-.9 42-.7 62.4 4.2 8.8 2 17.6 4.7 25 10a30.4 30.4 0 0 1 13.4 19.6c1.8 6.9-.3 13.8-2.1 20.4-6.6 23-14.2 45.8-23 68.1a89.2 89.2 0 0 1-31.5 37.5c-6.9 5-15 7.8-22.7 11 5.4 4.3 11.6 7.9 15.7 13.7 6.4 7.8 8.8 19 5.4 28.7-10 32.2-21.1 64-32 96a99.1 99.1 0 0 1-60.9 64.2c-8.5 3.1-17.5 5.2-26.5 6.7-16.2 2.8-32.8 1.5-49.2 1.8-24.7.2-49.4-.6-74 .6-9 0-18-1.7-26.6-4.4A43.5 43.5 0 0 1 1543 356a57.4 57.4 0 0 1-3.5-27.7c2.3-16.9 9-32.6 14.1-48.7l18.2-52.9c1.5-4.6 6.5-7 11.2-6.8h100c4.4 0 9.4 1.8 10.7 6.3 2 5.2-.9 10.3-2.4 15.2-7.1 20.5-14.7 41-21.5 61.6a24 24 0 0 0 16.8-.5c3.6-1.2 4.5-5.2 5.5-8.4 8.8-25 18.1-49.7 26.8-74.7-16 0-32-.4-48-.3-4.3-.1-9.3-.1-12.7-3.3-3.2-3.3-3.2-8.4-1.7-12.4l22.6-64.3c1.4-4.8 6.4-6.8 11-6.7l48-.3c7.6-.9 13-7.6 15.7-14.4 4.6-11.5 8.4-23.4 12.8-35.1.5-1.8 1.3-3.5 1.3-5.3-1.4-3.1-5.2-2.7-8-2.6-4.6.2-9.1 3-10.6 7.6l-12.4 33.6c-1 3-2.6 6-5.5 7.5-4 1.7-8.3 1.3-12.4 1.4h-97c-4.6 0-9.8-2-11-6.8-1.3-3-.5-6.4.6-9.4a39714 39714 0 0 0 21.4-57.5c2.3-7 6.7-13 11.8-18.3a99.9 99.9 0 0 1 50-25.3c17-4.3 34.7-5.6 52.2-5.8m-37.8 12.8c-17.8 3-35.8 8.3-50.5 19.2a46.1 46.1 0 0 0-16 20l-22.7 61h106.7l10.8-29.2c1.8-4.6 3-9.8 6.5-13.5a24.6 24.6 0 0 1 23.8-6.6c7.1 1.5 12.2 10 9.3 16.9-4.5 12.7-8.9 25.5-13.6 38.1a33.2 33.2 0 0 1-18.9 20.3c-5.6 2.2-11.7 1.3-17.6 1.4-12.9.2-25.7 0-38.6.3l-23.3 66.4c18.7.4 37.3.3 56 .9 2.7 0 5.9 1.2 7 4 2 4.3.4 9-1.2 13l-25.2 70c-1.4 3.7-2.1 8-5.1 10.8-5.8 6-14.8 7-22.6 6.6-5.2-.3-11.4-2.2-13.2-7.6-1.8-4.7.4-9.4 2-13.8l22-62.8H1581c-9.3 27.1-18.7 54.2-27.7 81.4a72.7 72.7 0 0 0-3.8 32 32 32 0 0 0 11 20.1c8.4 7 19.7 9.6 30.4 10.3 7.7.7 15.3-.7 23-.4h83c20.9 0 42.2-4.4 60.3-15a89 89 0 0 0 38-44.8c10.7-31.7 21.5-63.4 31.9-95.2 1.7-5.6 4.1-11.4 2.6-17.3-2.1-8.9-9.7-15.1-17-19.8-6.6-4.2-14-6.8-21-9.8l27-10.6A76.8 76.8 0 0 0 1865 114c8-21.5 15.4-43.3 21.6-65.4 1.4-5 1.6-10.7-.7-15.6-2.8-5.9-8.4-10-14.1-12.7-10.6-4.9-22.2-6.8-33.7-8.1-20.6-2.4-41.3-.4-62-.7-22.3.5-44.7-.7-66.8 3zM89.8 133.8c1.2-5.5 6.9-8.4 12.2-8h129c16-.4 32.3 1.2 47.5 6.7 9.4 3.6 18 10 23.2 18.8 2.7 4.5 3.4 9.8 4.7 14.8 4.1-11.2 6.7-22.8 10.7-34 1.7-5 7.2-6.6 11.9-6.4h78c4.2 0 9.2 1 11.3 5 3 5.2.2 11-1.3 16.2-22.4 72.5-44.8 145-66.6 217.5-1.8 6.3-4 12.6-3.9 19.2 3.8.2 7.6-1 10.2-3.9 5.8-6 7.2-14.7 9.6-22.5 21.8-74.3 44.2-148.4 66.3-222.6.8-2.6 2-5.2 4.3-6.8 2.9-2 6.6-2 10-2.1H524c4.2 0 9.2.9 11.5 4.9 2.3 3.6 1.3 8 0 11.9-28.2 87.7-55.9 175.6-84.8 263.2a61.3 61.3 0 0 1-22 30 92.4 92.4 0 0 1-58.7 17.7h-85c-9.6 0-19.4-1.5-28.4-5-10-4-18.3-13-20.3-23.8-2-6.6-1-13.5-.7-20.3a70.6 70.6 0 0 1-30.2 37.1 88.7 88.7 0 0 1-30.4 10.4c-13.5 2.4-27.3 1.3-41 1.5-38 0-76-.4-114-.6-4.6-.1-9.3.4-13.7-1-3.4-1.3-5.2-4.8-6.3-8v-3c3.4-9.9 6-19.9 9-29.8l80.8-277m9.6 2.4C69.5 238.3 39.7 340.5 10 442.6c41.6.3 83.3.6 125 .6 12.2 0 24.4.8 36.5-.9 12.1-1.6 24-5.5 34-12.9a64.6 64.6 0 0 0 22.8-34.2 5018 5018 0 0 0 24.8-85c3-7.8 1-16.8-4.6-22.7-5-6-12.2-9.3-18.8-13a65.7 65.7 0 0 0 44.9-33c7.5-14.2 11.6-30 16.3-45.4 2.8-10 7.2-20.4 5.2-31-1.3-8.7-7.4-16-15-20.3a91.5 91.5 0 0 0-42.1-9H101l-1.6.5m226.7-.5c-24.9 82.6-49.7 165.2-74.3 248-3.1 11.1-7.6 22.4-6.6 34.3.5 7.3 4 14.4 10.3 18.4 8.9 6 20 6.8 30.5 6.9h89a75 75 0 0 0 58-25.4c7.6-9.2 9.9-21.3 14-32.3 27-83.2 53.7-166.5 80.1-249.9-27.7-.1-55.4 0-83.1 0-1.8-.4-2 1.8-2.4 3-22 73.9-44.3 147.7-66 221.7-2.6 8.7-4.5 18.3-10.9 25.2a21.7 21.7 0 0 1-22.4 7c-3.7-1.1-5.5-5-5.7-8.7-.4-7 2-13.8 3.8-20.5 22.7-76 46.4-151.8 69.6-227.7h-83.9M271 263c-5.4 5.6-12 9.9-18.5 14 4 4.6 8.5 9.3 10.2 15.4 1.6 4.7 2 9.7 1.6 14.7 5-16 9.6-32.2 14.6-48.2.8-2.7 1.6-5.4 2-8-3.3 4-6.1 8.4-10 12.1zM540.5 133.6c1.2-5.2 6.4-8 11.5-7.8h136c11.1 0 22.2 1.3 32.9 4.3 11 2.8 22 9.1 27.6 19.4 4 8 4.8 17.5 2 26.1-8 28.3-19.4 55.5-28.4 83.5a58 58 0 0 1-29.5 30.1c2.5 2.9 5.4 5.5 7.5 8.7 3.6 4.9 5.2 11 5.5 17-.5 6.7-2.8 13-4.3 19.4-10.5 37-22.3 73.5-33.8 110.1-1 3.3-2.8 6.7-6.1 8-4.6 1.5-9.6.9-14.4 1h-72c-4.2 0-9-1.1-11.2-5.1-2.3-3.8-1-8.3.3-12.2 8.6-25.8 17-51.7 25.5-77.5 3.2-10.2 6.8-20.3 9.7-30.5-2-2.1-5.5-1.4-8.2-1.4-12.9 39.9-26 79.6-39 119.4-1.4 4.8-6.4 7.4-11 7.2-27.4.1-54.8 0-82 0-4.2.1-8.8-.5-11.4-4-2.8-3.2-2.3-7.8-1-11.6l93.8-304.1m9.6 2.2l-94.7 307.5c28.6.1 57.1 0 85.6 0 1.9.5 2-1.8 2.5-2.9l40.6-123.6c7.1-.5 14.9-.9 21.3 2.8 4 2.1 5.1 7.2 3.5 11.2-11.9 37.6-24.5 75-36.6 112.5 28.3.2 56.6 0 85 .1 4.7-13.8 8.8-27.8 13.3-41.6 7.8-25.4 15.9-50.7 23-76.2 1.7-6 3.3-12.7.3-18.6-5.1-10.7-16.6-15.9-27-20a85.2 85.2 0 0 0 22.6-7.5A46.2 46.2 0 0 0 713 255c8.8-27.2 19.6-53.7 27.9-81.1 1.7-6.2 2-13-1-18.8-2.9-6.2-8.8-10.4-15-13a95.7 95.7 0 0 0-36-6.3H550.1z"/><path d="M767.8 133.8c1-5.1 6-8.4 11.2-8.1h75c3.6 0 7.7.2 10.4 3 3 2.9 3.1 7.4 3 11.3-1.4 33-2.5 66-4 99 12-35.4 23-71.3 34.8-106.8 1.5-4.4 6.4-6.4 10.8-6.4 21.6-.3 43.3.3 65 .1 3.8 0 7.9-.3 11.2 1.8 4 2.6 5.4 8 3.7 12.4-28.9 91.7-58 183.4-86.8 275.1 2.5.1 5 .1 7.4-.3 0-8 2-15.9 3.8-23.6 3-12.9 6.8-25.5 11-38 6.3-17.7 11.5-35.8 17.3-53.7l37.9-120.2c2.1-8 6.1-15.4 10.4-22.6 3.8-6 8-12 13.8-16.1a57.8 57.8 0 0 1 23-11.8c14.4-4 29.5-3.2 44.3-3h78c11-.2 22.3.3 32.6 4.6 12 6.2 22.2 18.4 22.3 32.5-.9 7-3 14-5.3 20.6l-70.5 221.5c-1.3 3.6-3.6 6.7-5.3 10 3.3.2 6.6.3 10-.1 1.8-10 6.3-19.3 9.1-29l78-252.2c1-5 6-8.2 11-8 27.4 0 54.8-.2 82.1.2 4.4 0 8.7 2.8 9.8 7.2 1.3 3.7-.5 7.5-1.5 11l-74.7 226.4c-1.2 4.1-3.3 8.2-3 12.6 3.6.2 7.6.4 10.6-2 5.4-3.8 6.5-10.7 8.5-16.5l74.9-231.1c1-4.7 5.7-7.7 10.4-7.6 27-.3 54-.3 81-.5 3-.1 5.8 1.6 8.8 1.8 6.5-2.4 13.4-1.4 20.2-1.6 53-.1 106 .4 159 .2 3.8 0 8.2.2 10.9 3.3 2.8 3 3 7.7 1.6 11.4l-15.3 44.7c-1.2 4.2-5.1 7-9.4 7.2-13.2.5-26.4-.3-39.6.4l-43.4 131c-10 30.4-20.5 60.7-30.2 91.2 10.7.2 21.4.3 32.1 0l-.1-8.7c-2.5-1.8-5.4-3.7-6-7-1.5-4.7-.4-11 4.2-13.5 4-2.1 8.8-1.6 13.2-1.6 6.7.1 13.5-.6 20 1.3 4-.8 8.1-2.2 12.2-.7 4.3 1 7 5.3 7.2 9.5.4 7 0 14 .2 20.9 8.1.2 16.3 0 24.5 0 3.3 0 7 .5 9.6 3 2.2 2 2.7 5.2 3.6 8 1.9-2.5 3.4-5.2 5.4-7.7 2.4-3 6.6-3.3 10.3-3.4 9 0 18 0 27 .2 5.7 0 11.5-.5 17.2.6 3.3.6 6.5-.8 9.7-.7h32.1c3.7 0 7.9.3 10.5 3.2 3.5 3.8 2.8 9.3 3.7 14 2.8-4.2 3.9-9.4 7-13.4 2.4-3.3 6.9-3.8 10.8-3.9l34 .2c4.2 0 8.9 2 10.3 6.2 2.1 4.9-.5 9.8-2.5 14.1l-42.1 93c-1.7 3.3-2.8 7-5.3 9.7-2.7 2.7-6.8 3-10.4 3h-33c-3.6 0-7.7-.3-10.4-3-3.3-3-3-7.8-3.7-11.8-2.7 3.6-3.6 8.3-6.7 11.6-2.6 2.7-6.6 3-10.2 3h-32c-3.8 0-8-.5-10.6-3.6-2.7-3.1-2.7-7.7-1.2-11.3 4-9.5 8.8-18.7 12.7-28.3-8.8 12.6-16.7 25.9-25.3 38.6-2.2 3.6-6.6 4.7-10.6 4.7h-52c-4.2 0-9.1-1-11.2-5-2.8-4.5-.7-9.6 0-14.3-4.2 4.9-7.2 10.6-11.2 15.6-2.3 2.9-6.1 3.7-9.6 3.8-16.7 0-33.3-.2-50-.1-3.5 0-7.2 0-10.2-2-3.4-2-4.8-6.5-4-10.3 2.8-12.4 6.6-24.6 9.1-37-5.2 9.4-7.7 20.6-15.3 28.5a64.6 64.6 0 0 1-34.4 17.8 151 151 0 0 1-41.2 3 89 89 0 0 1-25.7-4.6c-8-3-15.6-9.7-16.8-18.6a48.7 48.7 0 0 1-24.9 18.5c-9.9 3.1-20.2 4.8-30.6 4.8h-65c-3.2.1-6.2-1.2-9.1-2.1-3.3.5-6.4 2.3-9.9 2h-73c-4.3-.3-8.7-1-13 0-13 .5-26 0-39 0-3.7.1-7.6.2-11.1-1.2-2.3-1-3.7-3.1-5.2-5-2 2.5-4.4 5.4-7.8 5.8-6.3 1-12.6.3-18.9.5-11-.3-22 .6-33-.7-13 1.1-26 .3-39 .6-5.6-.3-11.5.9-16.7-1.6-3.2-1.5-4.2-5.1-5.3-8.2-2.7 4.2-5.5 9.4-11.1 9.6-11 .6-22 0-32.9.3-5.6-.2-11.3.5-16.9-.5-3-.4-5.1-2.8-7.2-4.9-1.9 1.8-3.6 4-6.2 4.6-3.8 1-7.8.8-11.7.8-11.7-.3-23.4 0-35-.1-4.4 0-9.5-1.7-11.1-6.2-2.4-5.5 1.1-11 3.3-15.8 9.3-20.9 19-41.6 28-62.5-5.7-.6-11.8 1-17-2.1-3.2-2-7.8-1.4-10.6-4.3-2.7-2.7-3-6.8-3-10.4 1.5-30.3 2.6-60.7 4-91-10 30-19.3 60.4-29 90.6-1.6 4.4-2.2 9.8-6.6 12.4-3.4 1.7-7.3 1.5-11 1.5h-61c-4.6 0-9.5.5-13.6-1.8-4.4-2.6-5.5-8.5-3.7-13l95-304.9m9 4.7l-92 295c-1 3.3-2.3 6.6-2.8 10h75c16.6-51.3 32.7-102.8 49.3-154.2l3.8-.1c-1.9 51.5-4.6 103-6.3 154.5l1.7-1.2c4-8.4 7.6-17 11.6-25.5 24.7 0 49.4-.2 74.1-.1 29.7-93.6 59.2-187.3 88.8-281-24.2.1-48.5-.5-72.7 0-16.2 50.9-32.7 101.7-49.2 152.4h-6.4c1.8-51 4-101.8 5.9-152.7H779c-1.8-.4-2 1.8-2.4 2.9m226.5 16.6c-6.6 9-12 19-15 29.8l-29.7 94.4c-9.3 29-18.1 58.3-28 87.2-5 16.5-10.7 33.1-11 50.4l94.5.2-5.3 26.2h12.2c3.7-8.8 7.9-17.4 11.5-26.2 21.5-.5 43-.1 64.6-.2-1.1 2.5-2.3 4.9-3.1 7.5 2.7-2.3 4.8-5 7.4-7.3 2.7-.7 5.7.3 8.3-.6 3.5-4.9 7-9.9 9.5-15.4l69.1-217c2.1-7 5.1-13.8 5.8-21 .3-8.4-5.4-15.5-11.6-20.4-8.7-7-20.7-6.8-31.3-6.7-21.3 0-42.7-.2-64-.1-15.4.3-30.8-.8-46.1.4A53.9 53.9 0 0 0 1003 155m226.3-18.8L1150.1 393c-2.4 8-6.4 15.6-7.6 24 57.5.3 115-.3 172.5 0a69 69 0 0 1 15.9 1.2c3.8-4.7 7.1-9.8 10-15.2 4.3-7.7 6.3-16.5 9.3-24.7 27-81 54.2-161.7 81-242.6-28 0-56 .2-84 .4l-76.4 235.7c-1.3 4.6-3 9.3-6 13-3.7 5-9.6 8.2-15.8 8.6-4.6.3-10-.3-13.2-4.1-2.9-3.6-2.7-8.8-1.4-13 26.3-80 52.8-160.1 79-240.3-27.7-.2-55.5-.2-83.3 0l-.7.4m214 0c-5.3 15.4-11 30.8-15.8 46.5h45c-26.3 79.2-53.2 158.2-79.6 237.4 11.8-2.5 24-3.6 36-3.4 10.6.2 21.4 1 31.3 4.8 6 2.2 11.1 6.1 14.7 11.2 1.4-3.6 2.6-7.4 3.8-11.1l79.4-239c15.5-.2 31 0 46.5 0 5.3-15.6 10.7-31.2 15.8-46.8-58.5 0-117-.2-175.5-.1-.4 0-1.3.3-1.7.5m-20.3 55.6c-9.1 26.4-17.7 53-26.6 79.5L1354 398a97.8 97.8 0 0 1-11.7 21.5c4.5 2.3 9 5 12 9.2 2 2.6 2.8 6 3.8 9.2 6.5-7.6 15.2-13 24.7-16.4 1.2-7.1 3.9-13.9 6.2-20.7 23.3-69.3 46.7-138.6 69.9-208-12-.7-24 .8-35.9-1m104 202.3v2.5c2.2 0 4.4 0 6.7.2v17.3h2.6V397l6.8-.2v-2.4h-16m18.3 0V414l2.7.3v-15.6c2 4.6 3.3 9.4 5 14.1.1 1.7 2.6 2.1 3.4.8 2-4.9 3.3-10 5.3-15 .2 5.3 0 10.4 0 15.6h2.7c-.1-6.7.3-13.4-.2-20.1-1.3 0-2.5.2-3.8.3-1.8 5.4-3.4 10.8-5.5 16-2-5.3-3.8-10.7-5.6-16l-4-.2m-3.3 29.1c-1.6 3 3.3.2 0 0m-719.7 2c-3.2 7.2-6.6 14.1-9.5 21.3l26.8.2c-12.4 28.2-25.4 56.2-37.9 84.4 15.4 0 30.7.2 46 .1l38.2-84.5c9.1-.3 18.3 0 27.4-.3 3.1-7 6.5-14.1 9.6-21.3l-100.6.2m114.8-.2c-7.4 10.7-14.5 21.5-21.7 32.2-16.5 24.7-33.3 49-49.5 74h47.1c4-6.3 7.7-12.7 11.4-19.1H941l-6 19 47-.1c7-35.2 14.4-70.4 21.5-105.7-22.1-.3-44.3 0-66.4-.3m100.9 0c-16 35.3-31.8 70.7-47.5 106.1h45.4c7-14.7 13.2-29.8 20.4-44.4l-1.3 44.4 46.8.3c-.4-19.5-1.5-39-1.9-58.5 2-2.7 4.7-4.8 7-7.2 13.3-13.6 27-26.8 40.3-40.6H1106l-1.5.3c-12.7 12.8-24.8 26-37.7 38.7 5.3-13.2 11.6-26 17.2-39h-46m119.8.2c-15.9 35.2-31.8 70.5-47.5 105.8 26.5 0 53 .2 79.5 0 3-7.1 6.5-14 9.5-21.1l-33.5-.2c3.3-7.8 6.9-15.4 10.4-23 9.5-.2 19 0 28.6-.2l9-19.9c-9.3-.1-18.8.1-28.2-.1 2.6-6.8 5.9-13.2 8.6-19.9 10.2-.6 20.4-.2 30.6-.2 3.4-7.1 6.6-14.3 9.9-21.4l-76.9.2m93.3-.3c-16 35.4-32 70.7-47.8 106.1 21.5.2 43.1 0 64.7 0 9 .2 18-.4 26.6-2.9 9.7-2.7 19.7-8.1 24.2-17.7 9.4-20.6 19-41.2 27.7-62.2 1.7-3.9 2.6-8.5.6-12.4-2.3-4.6-7.2-6.8-11.8-8.3-10.8-3.3-22.2-2.3-33.3-2.4-17-.3-34 0-50.9-.2m166.3.2c-13.4.8-27 2.8-39 9a31.9 31.9 0 0 0-15.6 15.4c-8.1 18.2-16.5 36.2-24.7 54.3a20 20 0 0 0-1.7 13.4c1.2 4.3 5 7.4 8.9 9.2a67.4 67.4 0 0 0 24.7 4.6c17 .4 34.7.1 50.7-6.5a40.5 40.5 0 0 0 21.6-18.4l25.5-56.5c1.9-4.1 2.2-9.3-.5-13.2-3-4.6-8.4-7-13.5-8.4a119 119 0 0 0-36.4-2.9m69.9-.1c-9 35.3-18.1 70.6-27 106 19 0 37.8.2 56.7 0 12.7-18 24.8-36.5 37.8-54.4l-10.7 54.3h56c1.5.3 2-1.4 2.8-2.4l66.8-103.5h-44.6c-15.3 23.4-29.8 47.4-45.2 70.9 7-23.8 15-47.2 22.1-70.8l-47.8-.1c-14.7 23.2-29.2 46.6-44.2 69.7 7.2-23.3 15-46.4 22.2-69.7h-45m192 0l-48.2 106 38-.1c2.7-3.9 4-8.7 6.3-13 5.3-11.1 10-22.6 15.6-33.6 1.3 15.4 1.6 30.8 2.5 46.2l.7.5h38.9c3-4.3 4.5-9.6 7-14.3 13.7-30.6 27.9-61 41.2-91.6-12.6 0-25.3-.3-37.9 0-1.5.8-1.7 2.9-2.6 4.3-6.4 13.9-12.3 28-19.2 41.6-1.4-15.3-2.8-30.6-4-46-12.8-.2-25.6 0-38.3 0m-671 28a312 312 0 0 0-5.1 24.8c4-8 7.9-16.3 11-24.8h-6m105.3 20.1c-1.4 1.6-3.7 3-3.3 5.6.4 8.4.4 16.8 1.1 25.3 4.5-9 8.3-18.4 12.6-27.6 3.4-7.9 7.4-15.5 10.3-23.6-7.1 6.5-13.7 13.6-20.7 20.3m88-17.1v.5c4.6 0 9.4-.5 14.1.4 3.3.5 5.5 3.1 7.7 5.3l2.7-6c-8.2.4-16.4-.4-24.6-.3m-309 1c-2.5 5-4.5 10.1-7 15.2-5 11.5-10.7 22.8-15.2 34.6 5.4-7.6 10.4-15.5 15.7-23.2 5.8-9 12.3-17.7 17.8-27-3.8 0-7.7-.9-11.3.4m290 40a95 95 0 0 0-1.2 2.7c8.2.7 16.6-.8 24.6 1.9l2.3-5.6c-8.5 1.4-17.2 0-25.7 1zM170 177.7h21c4 0 8.6.8 11.1 4.2 1.9 2.5 1.3 6 .3 8.7l-12.6 39a22 22 0 0 1-22.8 16.2l-16.6-.7c6.4-22.5 13-45 19.6-67.4m7.2 10.2c-4.5 16-9.3 31.8-14 47.8 2.9 0 5.7.3 8.4-.2 4-1.2 7.6-4.2 8.7-8.3l12.6-39.4c-5.3-.2-10.5-.4-15.7 0z"/><path d="M1087.4 180.5c4.5-1.1 10.2-1.2 13.6 2.5 3.1 3.7 2.5 9 1.2 13.4-19.8 61.1-39.5 122.2-59.5 183.3-1.2 4-3.2 8-6.7 10.3a21 21 0 0 1-16.3 2.2c-3.3-.8-6-3.7-6-7.2.2-3.4 1.7-6.6 2.6-9.8 16.2-50.8 32.3-101.6 48.7-152.3 3-9.2 5.9-18.5 9.2-27.7 2.3-6.2 6.3-12.8 13.2-14.7m.2 11.2c-4 4.6-5.4 10.8-7.4 16.5-19 58.2-37.5 116.5-56 174.9 2.4-.3 5.2 0 6.9-2 1.6-2 2.2-4.6 3-7 18.5-56.6 36.8-113.3 55.1-170 1.4-4.7 3.5-9.3 4.1-14.3-2 .1-4.3.1-5.7 1.9zM602.4 258.2c8-24.6 16.3-49.1 24.5-73.7 5 .1 10-.3 15 .3 6.1 1.4 8.8 8.5 7 14.1-4 14.9-8.3 29.7-13.9 44.1a25.5 25.5 0 0 1-18.1 15c-4.8.6-9.7.1-14.5.2m31.6-63.6c-5.8 17.6-12 35-17.3 52.8 4.2-1.2 7.7-4.3 9.2-8.5 4.8-12 8.4-24.6 12-37 .8-2.4 1.3-4.8 1.5-7.3H634zM135.8 294.5c6.6-.2 13.2-.3 19.8.1 4.6.6 9.8 2.4 12 6.8 1.8 4.1-.6 8.4-1.8 12.3C159 335 152.5 356.5 146 378a20.4 20.4 0 0 1-20 14.3l-18.2-.1c9.2-32.6 18.8-65 28-97.7m7.5 9.9c-7.6 25.9-15 51.8-22.3 77.8 2.6 0 5.3.3 7.9-.1 3.6-1 6.7-3.8 7.8-7.5l17.1-55.8c1.4-4.5 3.1-9 4.1-13.7-4.8-1.1-9.7-.7-14.6-.7zM1794.7 418.8c2.2-3.4 6.5-4.4 10.3-4.4h19c3.1 0 6 2 9.2.9 4.7-1.5 10.6-1.5 14.3 2.3 3.7 3.8 2.9 9.5 3 14.4-.2 5.4.7 11.1-1.2 16.4-1.5 4-6 6-10.2 5.8-7.4-.3-14.8.5-22.1-.7-4.4.6-9.3 1.7-13.2-1.3-5-3.5-4-10.4-4.2-15.7-2-1.5-4-2.8-5.3-4.9-2-4-1.8-9 .4-12.8m8.4 5.5l-.3 2.5 6.9.3v17.3h2.6V427l6.9-.3-.3-2.5H1803m18.3 0v18.6c0 1.4.9 2 2.6 1.5 0-5.2-.2-10.4.2-15.6 2 4.9 3.2 10 5.2 14.9l2.7 1c2.2-5.3 3.6-10.7 5.7-15.9.2 5.2 0 10.4.1 15.6h2.1l.4-.8c.2-6.4 0-12.8.1-19.3l-4 .1c-1.8 5.3-3.3 10.8-5.5 16-2.2-5.2-3.7-10.6-5.6-16l-4-.1zM1410.5 446.5c2.3-5 9-6.9 13.8-4.5.3 3.2-1.1 6.1-2.4 9-8.9 19.6-18 39.2-27.1 58.7-1.8 4.4-7.2 6.5-11.7 5.5-2-.3-2.5-2.5-2-4.2 1-3.4 2.9-6.4 4.3-9.6 8.5-18.3 16.7-36.6 25.1-55zM1289.1 443c3.6.1 7.7-.2 10.8 2.1 1.7 1.5.4 3.8-.2 5.6-7.3 17-15 33.7-22.5 50.6a19.8 19.8 0 0 1-8.8 10.1c-3.3 1.7-7 1.1-10.5 1.3 10.2-23.4 20.8-46.5 31.2-69.7zM932.9 492.9c9.2-14.4 18.7-28.6 28-42.8-4 14.2-8.5 28.3-12.4 42.6-5.2.4-10.4.1-15.6.2z"/></g><g fill="#fff" stroke="#fff" stroke-width=".1"><path d="M1709.2 14.5c22-3.7 44.5-2.5 66.8-3 20.7.3 41.4-1.7 62 .7 11.5 1.3 23.1 3.2 33.7 8.1a28.5 28.5 0 0 1 14.1 12.7c2.3 4.9 2.1 10.5.7 15.6a794.8 794.8 0 0 1-21.6 65.4 76.8 76.8 0 0 1-46 46.8l-27.2 10.6c7.1 3 14.5 5.6 21 9.8 7.4 4.7 15 11 17.1 19.8 1.5 6-.9 11.7-2.6 17.3-10.4 31.8-21.2 63.5-31.9 95.2a89 89 0 0 1-38 44.7 119.3 119.3 0 0 1-60.3 15h-83c-7.7-.2-15.3 1.2-23 .5-10.7-.7-22-3.3-30.4-10.3a32 32 0 0 1-11-20.2 72.7 72.7 0 0 1 3.8-32c9-27.1 18.4-54.2 27.7-81.3h103.7l-22 62.8c-1.6 4.4-3.8 9.1-2 13.8 1.8 5.4 8 7.3 13.2 7.6 7.8.4 16.8-.6 22.6-6.6 3-2.8 3.7-7 5.1-10.9l25.2-69.8c1.6-4.1 3.2-8.9 1.3-13.1-1.2-2.8-4.4-4-7.2-4-18.6-.6-37.3-.5-55.9-.8l23.3-66.5c12.9-.2 25.7 0 38.6-.3 5.9-.1 12 .8 17.6-1.4a33.2 33.2 0 0 0 19-20.3l13.5-38.1c2.9-7-2.2-15.3-9.3-17-8.3-2-18 .1-23.8 6.7-3.5 3.7-4.7 8.9-6.5 13.5l-10.8 29.2H1620l22.7-61c3-8.3 9.3-14.7 16-20 14.7-10.9 32.7-16.3 50.5-19.2zM99.4 136.3l1.6-.5h138c14.4.4 29.4 1.9 42.2 9a28.8 28.8 0 0 1 15 20.3c2 10.6-2.5 21-5.3 31-4.7 15.4-8.8 31.2-16.3 45.5-9.1 17-26.1 29.1-45 32.8 6.7 3.8 13.9 7 18.9 13 5.7 6 7.5 15 4.6 22.7a5018 5018 0 0 1-24.8 85.1c-4 13.3-11.5 26-22.9 34.3a72.8 72.8 0 0 1-33.9 12.8c-12 1.7-24.3.8-36.5 1-41.7 0-83.3-.4-125-.7l89.4-306.3m70.6 41.4c-6.5 22.5-13.2 44.9-19.6 67.4l16.6.7a22 22 0 0 0 22.8-16.1c4.3-13 8.3-26.1 12.6-39.1 1-2.8 1.6-6.2-.3-8.7-2.5-3.4-7.1-4.1-11-4.3H170m-34.2 117c-9.2 32.5-18.8 65-28 97.6H126c8.8.4 17.6-5.7 20-14.3 6.5-21.4 13-42.9 19.8-64.2 1.2-4 3.6-8.2 1.7-12.3-2.1-4.4-7.3-6.2-12-6.8-6.5-.4-13.1-.3-19.7 0zM326.1 135.8h84c-23.3 75.9-47 151.7-69.7 227.7-1.8 6.7-4.2 13.5-3.8 20.5.2 3.6 2 7.6 5.7 8.8 8 2.6 17-.9 22.4-7.1 6.4-7 8.3-16.5 10.9-25.2 21.7-74 44-147.8 66-221.7.5-1.2.6-3.4 2.4-3 27.7 0 55.4-.1 83.1 0-26.4 83.4-53 166.7-80.2 249.9-4 11-6.3 23-14 32.3a75 75 0 0 1-58 25.4H286a55.4 55.4 0 0 1-30.5-6.9c-6.2-4-9.8-11.1-10.3-18.4-1-11.9 3.5-23.2 6.6-34.4 24.6-82.7 49.4-165.3 74.3-248zM550.1 135.8H689c12.2.1 24.7 1.4 36 6.2 6.2 2.6 12.1 6.8 15 13 3 5.8 2.7 12.7 1 18.8-8.3 27.4-19.1 54-28 81.1-4 11-13.2 19.5-23.5 24.6-7.1 3.7-14.8 5.9-22.6 7.4 10.4 4.3 21.9 9.4 27 20 3 6 1.4 12.7-.4 18.7-7 25.5-15 50.8-23 76.1-4.4 14-8.5 28-13.3 41.7h-84.9c12-37.6 24.7-75 36.6-112.6 1.6-4 .4-9-3.5-11.2-6.4-3.7-14.2-3.3-21.3-2.8l-40.6 123.6c-.5 1.1-.6 3.4-2.5 3h-85.6c31.5-102.6 63.2-205 94.8-307.6m52.2 122.4c4.8 0 9.7.4 14.5-.2a25.5 25.5 0 0 0 18.1-15c5.6-14.4 9.9-29.2 14-44 1.7-5.7-1-12.8-7-14.3-5-.5-10 0-15-.2-8.3 24.6-16.5 49.1-24.6 73.7zM776.6 138.5c.5-1.1.6-3.3 2.4-2.9h78.5c-1.8 51-4 101.8-5.9 152.6h6.4c16.5-50.6 33-101.4 49.2-152.2 24.2-.6 48.5 0 72.7 0-29.6 93.6-59 187.3-88.8 280.9-24.7-.1-49.4 0-74 .1-4 8.4-7.7 17-11.7 25.5l-1.7 1.2c1.7-51.5 4.4-103 6.3-154.5h-3.8c-16.6 51.5-32.7 103-49.4 154.4-25-.2-50 0-74.9 0 .5-3.6 1.8-6.8 2.8-10.2l92-295zM1003.1 155.1a53.9 53.9 0 0 1 37.8-18.8c15.3-1.2 30.7-.1 46.1-.4h64c10.6 0 22.6-.3 31.3 6.8 6.2 4.9 11.9 12 11.6 20.3-.7 7.3-3.7 14.1-5.8 21L1119 401.2c-2.4 5.5-6 10.5-9.5 15.4-2.6 1-5.6 0-8.3.6-2.6 2.3-4.7 5-7.4 7.3.8-2.6 2-5 3-7.5-21.4 0-43-.3-64.5.2-3.6 8.8-7.8 17.4-11.5 26.2h-12.2c1.6-8.7 3.5-17.4 5.3-26.2-31.5 0-63-.3-94.5-.2.3-17.3 6-34 11-50.4 9.9-28.9 18.7-58.1 28-87.2l29.7-94.4c3-10.8 8.4-20.8 15-29.8m84.3 25.4c-6.9 2-10.9 8.5-13.2 14.7-3.3 9.2-6.2 18.5-9.2 27.7-16.4 50.7-32.5 101.5-48.7 152.3-.9 3.2-2.4 6.4-2.5 9.8-.1 3.5 2.6 6.4 5.9 7.2a21 21 0 0 0 16.3-2.2c3.5-2.4 5.5-6.3 6.8-10.3 19.9-61 39.6-122.2 59.4-183.3 1.3-4.3 2-9.7-1.2-13.4-3.4-3.7-9.1-3.6-13.6-2.5zM1229.4 136.3l.7-.5c27.8-.1 55.6-.1 83.4.1l-79.1 240.3c-1.3 4.2-1.5 9.4 1.4 13 3.2 3.8 8.6 4.4 13.2 4 6.2-.3 12-3.5 15.8-8.4 3-3.8 4.7-8.5 6-13.1 25.4-78.6 51-157.1 76.3-235.7 28-.3 56.1-.4 84.1-.4-26.8 80.9-54 161.7-81 242.6-3 8.2-5 17-9.3 24.7a90.5 90.5 0 0 1-10 15.2 69 69 0 0 0-15.9-1.1c-57.5-.4-115 .2-172.5 0 1.2-8.5 5.2-16 7.6-24l79.3-256.7z"/><path d="M1443.3 136.3l1.7-.5c58.5-.1 117 0 175.5.1-5.1 15.6-10.5 31.2-15.8 46.7h-46.5c-26.4 79.8-53 159.4-79.4 239-1.2 3.8-2.4 7.6-3.8 11.2-3.6-5.1-8.8-9-14.7-11.2a92.2 92.2 0 0 0-31.3-4.8c-12-.2-24.2.9-36 3.4 26.4-79.2 53.3-158.2 79.7-237.4h-45c4.8-15.7 10.4-31 15.6-46.5zM1527 394.2h16v2.5c-2.2 0-4.4 0-6.7.2v17.3h-2.6V397l-6.7-.2v-2.5zM1545.4 394.2l4 .1c1.8 5.4 3.5 10.8 5.6 16 2-5.2 3.7-10.5 5.5-15.9l3.8-.3c.5 6.7.1 13.4.2 20.1h-2.6c-.1-5.2.1-10.3-.1-15.5-2 4.9-3.3 10-5.3 15-.8 1.2-3.3.8-3.4-.9-1.7-4.7-3-9.5-5-14.1v15.6l-2.8-.3v-19.8zM1803.1 424.3h15.8l.3 2.5-6.9.3v17.3h-2.6V427l-6.9-.3.3-2.5zM1821.4 424.3l4 .2c1.9 5.3 3.4 10.7 5.6 16 2.2-5.3 3.7-10.8 5.6-16l3.9-.2v19.3l-.5.8h-2c-.2-5.2 0-10.4-.2-15.6-2.1 5.2-3.5 10.6-5.7 15.8l-2.7-.9c-2-4.9-3.3-10-5.2-15-.4 5.3-.1 10.5-.2 15.7-1.7.5-2.6 0-2.6-1.5v-18.6zM822.4 425.4c33.5 0 67-.2 100.6-.1-3.1 7-6.5 14.1-9.6 21.3-9.1.2-18.3-.1-27.4.2l-38.2 84.5-46-.1c12.5-28.2 25.5-56.2 37.9-84.4l-26.8-.2c3-7.2 6.3-14.1 9.5-21.2zM937.2 425.2c22.1.4 44.3 0 66.4.3-7.1 35.3-14.4 70.5-21.6 105.7-15.6.1-31.3 0-46.9 0l6-19h-16.6c-3.7 6.5-7.5 13-11.4 19.2h-47c16-25 33-49.3 49.4-74 7.2-10.7 14.3-21.5 21.7-32.2m-4.3 67.7c5.2 0 10.4.2 15.6-.2 4-14.3 8.5-28.4 12.5-42.6-9.4 14.2-18.9 28.4-28.1 42.8zM1038 425.2h46c-5.6 13.1-11.9 25.9-17.2 39 12.9-12.5 25-25.8 37.8-38.6l1.4-.3h41.3c-13.2 13.8-27 27-40.4 40.6-2.3 2.4-5 4.5-6.9 7.2.4 19.5 1.5 39 2 58.4-15.7 0-31.3 0-46.9-.2l1.3-44.4c-7.2 14.6-13.4 29.7-20.4 44.5h-45.4c15.7-35.5 31.5-70.9 47.5-106.2zM1157.8 425.5c25.7 0 51.3-.1 76.9-.3-3.3 7.2-6.5 14.4-10 21.5-10.1 0-20.3-.4-30.5.2-2.7 6.7-6 13.1-8.6 19.9 9.4.2 18.9 0 28.3.1l-9.1 20c-9.6 0-19.1-.1-28.6 0l-10.4 23c11.2 0 22.4.2 33.5.3-3 7-6.4 14-9.5 21-26.5.3-53 .2-79.5.1 15.7-35.3 31.6-70.6 47.5-105.8zM1251.1 425.2c17 .1 34 0 50.9.2 11.1.1 22.5-1 33.3 2.4 4.6 1.5 9.5 3.8 11.8 8.3 2 3.9 1 8.5-.6 12.4-8.8 21-18.3 41.6-27.8 62.2-4.4 9.6-14.4 15-24.1 17.7-8.7 2.5-17.7 3-26.6 3h-64.7c15.7-35.5 31.8-70.8 47.8-106.2m38 17.8c-10.4 23.2-21 46.3-31.2 69.6 3.5 0 7.3.5 10.5-1.2 4.1-2 7-6 8.8-10.1 7.6-16.9 15.2-33.7 22.5-50.6.6-1.8 2-4 .2-5.6-3-2.3-7.2-2-10.8-2.1z"/><path d="M1417.4 425.4a119 119 0 0 1 36.4 2.9c5 1.5 10.4 3.8 13.5 8.4 2.7 3.9 2.4 9 .5 13.2l-25.5 56.5a40.5 40.5 0 0 1-21.6 18.4c-16 6.6-33.6 7-50.7 6.5-8.3-.4-17-1.1-24.7-4.6-4-1.8-7.7-4.9-9-9.2a20 20 0 0 1 1.8-13.4c8.2-18 16.6-36.1 24.7-54.3 2.8-7 9-12 15.6-15.4 12-6.2 25.6-8.2 39-9m-6.9 21l-25 55c-1.5 3.2-3.5 6.2-4.4 9.6-.5 1.7 0 4 2 4.2 4.5 1 9.9-1 11.7-5.5 9-19.5 18.2-39 27.1-58.7 1.3-2.9 2.7-5.8 2.4-9-4.8-2.4-11.5-.5-13.8 4.5zM1487.3 425.3h44.9c-7.1 23.3-15 46.4-22.2 69.7 15-23.1 29.5-46.5 44.3-69.7 15.9 0 31.8.2 47.7 0-7.2 23.7-15.2 47.1-22.1 70.9 15.4-23.4 29.9-47.5 45.2-71 14.9 0 29.8.3 44.6.1-22.2 34.6-44.6 69-66.8 103.5-.8 1-1.4 2.7-2.9 2.4h-56l10.8-54.3c-13 17.9-25.1 36.4-37.8 54.5l-56.6-.2c8.8-35.3 18-70.6 26.9-106zM1679.2 425.2l38.2.1 4.1 46c6.9-13.6 12.8-27.7 19.2-41.6.9-1.4 1.1-3.5 2.6-4.4 12.6-.2 25.3.2 38 .1-13.4 30.7-27.6 61-41.3 91.6-2.5 4.7-4 10-7 14.3h-39l-.6-.5c-1-15.4-1.2-30.8-2.5-46.2-5.7 11-10.4 22.5-15.6 33.7-2.3 4.2-3.6 9-6.3 12.9h-38c16-35.4 32-70.7 48.2-106z"/></g></svg>