<svg viewBox="0 0 2253 625" version="1" xmlns="http://www.w3.org/2000/svg"><g fill="#c71f25"><path d="M1896 54c24-3 49-1 73-2 19 0 38-1 57 2 10 2 20 5 29 10 5 4 10 9 10 16 1 7-2 14-4 21-6 21-13 41-21 61-8 16-21 30-37 37l-33 14c10 3 20 8 28 15 5 4 10 10 10 17 0 6-2 11-4 17l-31 93c-8 20-23 36-42 46-16 9-35 13-53 14h-93c-11 1-23 0-34-3-9-3-17-9-21-17-5-11-4-24-1-35l10-33 10-30c3-9 7-17 9-26h105l-2 4-22 63c-1 4-2 9 1 13 3 3 7 3 11 4 8 0 16-1 22-6 3-3 4-7 6-10l26-74c2-4 2-12-4-14l-41-1h-18l24-67h38c6 0 11 1 17-1 9-3 16-11 20-21l14-39c1-3 0-7-2-10-3-5-9-6-14-6-8 0-17 4-21 12l-14 38h-107l23-60c3-11 11-18 20-24 17-11 36-16 56-18zM619 180c0-1 0-4 2-4h84l-1 5-80 249c-4 9-6 20-12 28a71 71 0 0 1-44 25c-9 2-19 1-28 2l-82-1c-12 0-26-3-33-14-5-11-3-22 0-33l76-251 2-9h85l-1 4-68 220c-2 8-6 18-4 27 1 5 8 7 13 6 6-1 13-5 16-11 4-5 6-11 8-17l67-226zM955 177l80-1v5l-5 123v25h5l8-24 42-129 73 1-2 4-87 277h-73c-2 0-2 1-2 2l-9 20-3 5c-2-1-1-3-1-5l4-93 1-18 1-39-3 1-7 21-42 133h-76l28-91 60-193 8-24zM1407 176l84 1-1 4-77 235c-2 4-3 9 0 13 2 4 7 5 11 5 7 0 13-3 17-8 5-4 6-11 8-17l76-233h84l-1 5-39 116-46 137c-3 8-7 16-12 23-1 1-2 3-4 2-9-2-18-1-27-1h-160c1-8 5-15 7-23l77-248 3-11zM189 477l88-300 140-1c15 1 31 3 45 11 4 4 9 8 11 14 3 9 1 18-1 26-6 18-10 37-19 54-9 18-26 31-46 35 9 3 17 9 22 17 4 6 3 15 1 22l-21 70c-3 10-5 20-10 29-8 12-20 21-33 26-19 6-39 4-58 4H187l2-7m158-258l-19 67c8 0 15 2 23 0 5-1 9-4 12-8 3-2 4-6 5-10l11-34c1-3 2-7 1-10-2-4-7-5-11-5h-22m-61 214h16c7 1 14-3 19-9l4-11 19-62c2-4 2-9-2-12-8-6-19-3-28-4l-28 98zM724 189l4-13h142c14 1 29 3 41 11 4 4 8 9 9 15 1 9-3 17-5 25l-20 57c-3 9-5 18-12 24a67 67 0 0 1-37 20c8 4 17 8 23 15 4 5 5 12 4 18l-15 50-23 73-80 1h-6l37-112c2-4 1-9-3-12-6-4-14-4-21-3l-36 109c-2 6-3 12-6 17l-82 1-5-1 91-295m56 110c6 0 12 1 17-1s10-5 13-9l5-13 11-36c1-4 1-10-3-13-6-3-12-1-18-2l-25 74zM1210 178c13-2 27-1 41-1h81c10 0 21 0 29 7 5 5 10 10 10 17 1 7-2 14-4 21l-70 219c-2 6-6 12-10 17h-8l-8 8 3-8h-64l-12 27-12-1 2-11 3-14-26-1h-69a505 505 0 0 1 18-70l42-134 12-37c5-11 11-22 21-29 6-5 13-8 21-10m51 46c-6 4-9 11-11 17l-58 181c-2 4 0 9 4 11l12 1v-1c5-1 10-6 12-11l60-187c1-3 1-8-2-11-5-4-12-4-17 0z"/><path d="M1621 176l178 1-2 4-15 43h-46l-81 243-2 7-11-9c-9-5-20-6-30-7-12 0-24 0-36 2l-6 2 13-38 62-185 5-15h-45l14-43 2-5z"/></g><path d="M2055 64c8 3 15 8 20 15 4 6 4 13 3 20l-25 74c-8 17-21 32-38 40l-23 9c9 5 18 9 23 18 6 6 8 16 5 24l-33 98c-6 19-18 35-34 47-17 12-37 18-57 19l-32 1h-92c-9-1-18-3-26-8-9-6-15-16-16-26 4 8 12 14 21 17 11 3 23 4 34 3h93c18-1 37-5 53-14 19-10 34-26 42-46l31-93c2-6 4-11 4-17 0-7-5-13-10-17-8-7-18-12-28-15l33-14c16-7 29-21 37-37 8-20 15-40 21-61 2-7 5-14 4-21 0-7-5-12-10-16zM1918 118c4-8 13-12 21-12 5 0 11 1 14 6 2 3 3 7 2 10-9-4-22 0-25 10l-13 35c-1 3-3 4-6 4h-104c-2 0-5-1-6-3-2-4 1-8 2-12h101l14-38zM587 181l11 1c3 1 3 6 2 9l-68 221c-2 7-5 15-4 22-5 1-12-1-13-6-2-9 2-19 4-27l68-220z"/><path d="M704 181h11c3 1 4 5 2 8l-82 257c-3 8-5 17-11 24a78 78 0 0 1-59 29h-99c-11 0-22-2-30-9-6-5-10-13-11-20 7 11 21 14 33 14l82 1c9-1 19 0 28-2 17-3 33-11 44-25 6-8 8-19 12-28l80-249zM1035 181c4 0 8-1 11 1 3 3 2 7 2 10l-4 97c0 5 1 11-1 16l-8 24h-5v-25l5-123zM1156 181l12 1c3 1 3 5 2 8l-86 271h-83c-2 0-5 1-6 3l-9 21c-2 2-1 7 2 8h9c0 6-11 9-13 2l1-15 9-20c0-1 0-2 2-2h73l87-277zM1490 181h11c3 2 4 6 2 9l-78 237-1 7c-4 0-9-1-11-5-3-4-2-9 0-13l77-235z"/><path d="M1608 181h11l-14 43h5l-42 125-32 97c-3 8-8 15-12 22-9-5-19-7-29-7h-64c-2 0-5 0-7 2l-4 9c-1 0-5 1-4-1s2-5 1-8c-2-2-5-2-7-2h-53l-22 1c-3 0-4 2-5 4 0-3-3-5-6-5l1-3h155c9 0 18-1 27 1 2 1 3-1 4-2 5-7 9-15 12-23l46-137 39-116zM1797 181h11c3 1 4 4 3 7l-16 47c0 3-3 4-6 4h-41l-74 222c-5 1-11-2-14 2l-5 21-3-2c-1-7-7-13-13-16-12-5-25-5-37-5l-25 2h-1v-3c12-2 24-2 36-2 10 1 21 2 30 7l11 9 2-7 81-243h46l15-43zM1361 184c6 1 11 5 15 9 6 6 10 14 8 23-1 9-5 17-7 26l-65 204-6 15h-23c-3 0-5 3-7 5l-7 6h-4c1-2 2-5 1-8-1-2-4-3-6-3h-43c-2 0-5 0-6 3l-16 35c-2 0-4-1-5-3-2-3 0-8 0-11l-4-1 12 1 12-27h64l-3 8 8-8h8c4-5 8-11 10-17l70-219c2-7 5-14 4-21 0-7-5-12-10-17zM462 187c8 3 16 9 21 17 5 9 5 20 3 30l-9 28c-3 11-7 22-12 32-8 15-21 26-36 32 6 5 12 10 15 18 2 7 1 15-2 23l-22 76c-3 10-7 20-13 29-8 10-19 18-31 22s-25 5-37 5H197c-2 0-5-1-6-3-2-4 1-8 1-12h116c19 0 39 2 58-4 13-5 25-14 33-26 5-9 7-19 10-29l21-70c2-7 3-16-1-22-5-8-13-14-22-17 20-4 37-17 46-35 9-17 13-36 19-54 2-8 4-17 1-26-2-6-7-10-11-14zM911 187c7 2 13 7 17 13 6 7 6 17 4 26-7 23-16 45-24 67-3 8-4 17-9 24-8 10-19 18-31 22 8 5 16 11 18 21 2 7-1 13-3 20-9 34-20 68-31 102l-4 14c-1 2-4 3-7 3h-85c-2-1-4-4-3-6l2-8 80-1 23-73 15-50c1-6 0-13-4-18-6-7-15-11-23-15 14-3 28-9 37-20 7-6 9-15 12-24l20-57c2-8 6-16 5-25-1-6-5-11-9-15zM347 219h22c4 0 9 1 11 5 1 3 0 7-1 10h-20l-15 52h7c-8 2-15 0-23 0l19-67zM1261 224c5-4 12-4 17 0 3 3 3 8 2 11-4 0-8 1-10 4-5 6-7 14-10 21l-39 124-16 48 3 1v1l-12-1c-4-2-6-7-4-11l58-181c2-6 5-13 11-17zM1610 224h40l-5 15h-31c-2 0-5-1-6-4-1-4 2-7 2-11zM780 299l25-74c6 1 12-1 18 2 4 3 4 9 3 13h-10l-19 58c-5 2-11 1-17 1zM1848 250h12l41 1c6 2 6 10 4 14h-37l-18-1c-3 0-5-3-4-6l2-8zM1861 275h11c3 1 4 5 3 8l-23 67-1 5c-4-1-8-1-11-4-3-4-2-9-1-13l22-63zM984 331l3-1-1 39-1 10-38 117c0 3-4 3-6 3h-72c-2 0-5 0-6-3-2-4 1-8 1-11h71l42-133 7-21z"/><path d="M286 433l28-98c9 1 20-2 28 4 4 3 4 8 2 12l-19-1-23 83h-16zM762 358c7-1 15-1 21 3 4 3 5 8 3 12l-12-1-41 123c0 3-3 4-6 4h-84c-3 0-6 0-7-3-1-4 1-8 2-11l82-1c3-5 4-11 6-17l36-109zM1100 458h65l26 1-3 14h-3c1-4 3-10-2-11-21-2-43-1-64-1-3 0-6 0-8 2l-8 11c1-3 3-7 2-10-1-2-3-3-5-3v-3zM1000 466h101l-10 22h-27l-27 60-11 24-47 1 4-9 34-76h-27l10-22z"/><path d="M1109 474l6-8h66l-21 106-48 1 6-19-16-1-11 19-48 1 66-99m29 18l-27 42h15l12-42zM1215 466h47l-17 38 16-17 21-21h43l-48 48 1 15 1 19 1 25h-48l1-26 1-18-20 43h-46l47-106zM1335 467l22-1h55l-9 22h-31l-9 19 29 1c-3 6-7 13-9 20h-29l-10 23h33l-9 21h-81l48-105zM1428 466h45l30 1c7 1 14 2 19 7 4 3 5 10 3 15l-29 64c-4 7-11 12-18 15-10 4-21 5-31 5l-67-1 48-106m8 87c3 1 6 1 9-1 4-2 7-5 9-9l21-46c1-3 3-6 3-10-3-3-7-2-11-3l-31 69zM1589 467c12-1 25-1 37 1l13 4c4 3 7 6 8 11s-2 9-4 13l-21 47c-2 4-4 9-7 12-7 7-16 11-25 14-10 3-21 4-32 4s-21-1-32-4c-4-1-9-3-11-8-3-5-2-10 0-15l26-58c4-6 10-10 16-13 10-5 21-7 32-8m-2 23l-28 61c-1 2 0 4 1 5 4 1 10-1 12-5l27-58c1-3 3-7 2-10l-4-1c-4 1-9 3-10 8zM1637 573l28-107h45l-22 69 44-69h48l-9 29-13 41 44-70h46l-69 107h-58l8-41 3-14c-2 5-6 9-9 13l-28 41-58 1zM1856 466h39l4 46 21-46h39l-25 57-23 50h-40l-2-47-22 46-39 1 48-107z"/><g fill="#fff"><path d="M995 464c1-2 4-3 6-3h99c2 0 4 1 5 3 1 3-1 7-2 10l8-11c2-2 5-2 8-2 21 0 43-1 64 1 5 1 3 7 2 11l-14 70-4 19 10-22 18-41 16-35c1-3 4-3 6-3h43c2 0 5 1 6 3 1 3 0 6-1 8l-5 9 9-9 7-6c2-2 4-5 7-5h41c3 0 6 2 6 5 1-2 2-4 5-4l22-1h53c2 0 5 0 7 2 1 3 0 6-1 8l-9 19c-1 2-3 3-5 3h-27l-4 9 21 1c4 0 6 5 4 8l-9 19c-1 2-4 3-6 3h-24l-6 13h26c4 0 6 5 4 8-2 7-6 13-9 20-1 3-3 4-6 4h-77l-5-2-6 2h-44c-2 0-5-1-6-3-2-7 1-14 0-21l-9 20c-1 2-4 4-6 4h-44c-2 0-4-1-5-3l-6 3-45-1c-3 1-6-3-5-6l3-12h-6l-9 16c-1 2-4 3-6 3h-46c-2 0-5-2-6-4-1-3 1-5 3-7l49-74h-23l-37 81c-1 3-3 4-6 4l-45-1c-3 1-6-4-5-7l35-77h-21c-3-1-4-6-2-8l9-21m5 2l-10 22h27l-34 76-4 9 47-1 11-24 27-60h27l10-22h-101m109 8l-66 99 48-1 11-19 16 1-6 19 48-1 21-106h-66l-6 8m106-8l-47 106h46l20-43-1 18-1 26h48l-1-25-1-19-1-15 48-48h-43l-21 21-16 17 17-38h-47m120 1l-48 105h81l9-21h-33l10-23h29c2-7 6-14 9-20l-29-1 9-19h31l9-22h-55l-22 1m-52 49l1 50 43-94-44 44zM1424 463c2-2 5-2 7-2h64c10 0 20 2 29 7 5 4 8 10 7 16s-4 11-6 16l-25 56c-4 8-12 13-21 17-10 3-21 5-31 5l-67-1c-4 1-7-4-5-8l44-97 4-9m4 3l-48 106 67 1c10 0 21-1 31-5 7-3 14-8 18-15l29-64c2-5 1-12-3-15-5-5-12-6-19-7l-30-1h-45zM1577 463l25-2c12 0 25 0 37 5 6 3 12 9 13 16 1 8-3 14-6 20l-21 48-12 14a86 86 0 0 1-47 14c-14-1-28 0-41-4-7-2-14-6-16-13-2-6-1-12 1-17l25-55c2-6 7-10 12-14 9-7 19-10 30-12m12 4c-11 1-22 3-32 8-6 3-12 7-16 13l-26 58c-2 5-3 10 0 15 2 5 7 7 11 8 11 3 21 4 32 4s22-1 32-4c9-3 18-7 25-14 3-3 5-8 7-12l21-47c2-4 5-8 4-13s-4-8-8-11l-13-4c-12-2-25-2-37-1zM1660 463c3-4 9-1 14-2h36c4 0 6 5 5 8l-10 29 22-34c1-2 3-3 5-3h46c2 0 4 0 6 2v8l-9 28-1 2 24-38c1-2 4-2 6-2h43c2 0 4 1 5 3 1-2 3-3 5-3h37c3 0 6 2 6 5l3 26 13-28c0-2 3-3 5-3h36c2 0 5 0 6 2v7l-47 105c-1 2-5 3-7 3l-38-1c-3 1-6-2-5-5l-1-25-13 28c-2 2-4 3-7 3h-36c-2 0-5-2-6-4s1-4 1-5l38-83 2-5-28 44-32 50c-2 2-4 3-7 3l-55-1c-3 1-6-3-6-6 2-10 5-19 6-29l-23 33c-1 2-4 3-6 3l-55-1c-4 1-7-3-5-7l22-86 5-21m-23 110l58-1 28-41c3-4 7-8 9-13l-3 14-8 41h58l69-107h-46l-44 70 13-41 9-29h-48l-44 69 22-69h-45l-28 107m219-107l-48 107 39-1 22-46 2 47h40l23-50 25-57h-39l-21 46-4-46h-39z"/><path d="M1587 490c1-5 6-7 10-8l4 1c1 3-1 7-2 10l-27 58c-2 4-8 6-12 5-1-1-2-3-1-5l28-61m9-3c-4 2-4 6-6 9l-25 55c2-1 3-4 4-7l27-57zM1436 553l31-69c4 1 8 0 11 3 0 4-2 7-3 10l-21 46c-2 4-5 7-9 9-3 2-6 2-9 1m32-59l-24 53c5-3 6-8 9-13l17-39 2-6c-3 0-3 3-4 5zM1138 492l-12 42h-15l27-42z"/></g></svg>