<svg id="Layer_1" xmlns="http://www.w3.org/2000/svg" viewBox="0 0 1440 354"><style>.st0,.st1,.st2{stroke:#fff;stroke-width:9.375000e-02}.st1,.st2{fill:#fff;stroke:#000}.st2{fill:#c1d72e;stroke:#c1d72e}</style><g id="_x23_ffffffff"><path class="st0" d="M902 48c133.3-14.5 266.7-28.5 400-42.9 6.3-1.1 12.3 1.5 18.4 2.6 4.7.8 8.3 4.2 12.1 6.8 2.9 2.1 4.8 5.2 6.9 8.1 3.4 4.1 3.5 9.7 5 14.5 2 7.3-.4 14.7-2 21.8-10.4 46.5-20.4 93.1-31.1 139.5-1.4 8-6.3 14.6-11.2 20.8-3 3.6-7.1 6.1-10.8 8.8-6.3 4.7-14.4 5.3-21.8 7.3-8.5 1.5-17.1 1.9-25.6 3l-521.5 55.8c-29.4 3-58.8 6.6-88.2 9.3-4.7 4.4-11.2 5-17.1 6.3-26.4 2.9-52.7 5.6-79.1 8.4-3.6.4-7.2.2-10.6-.7-3.8 2.5-8.6 2.6-13 3.8-17.8 2-35.6 3.9-53.4 5.7-5.3.9-10.3-1.3-15.4-2.3-1.7 1.2-3.3 2.7-5.4 3.1-4.3 1-8.6 2.2-13 2.6-16.4 1.6-32.8 3.5-49.3 5.1-4.1-.6-8.1-1.7-12-2.8-4.9-2.7-9.1-6.6-11.5-11.6-.9-3.6-1.9-7.3-2.5-11 1.4-8.2 4-16.2 6.9-24-10.4 1.2-20.7 2.2-31.1 3.3-3.9 12.6-8.1 25.2-12 37.8-1.9 6.7-7.2 11.9-13.2 15.1-6.7 1.9-13.5 3.2-20.4 3.7-14 1.1-28 3.8-42.1 3.1-3.7-.6-7.3-1.6-10.9-2.5-5.1-2.3-9.4-6.3-12.3-11.2-3.6-1.1-6.7-4-10.6-3.6-5 .5-10.4.6-14.6 3.8-3.7 1.1-7.5 2-11.3 2.6-3.4-.7-6.8-1.5-10.2-2.4-5.1-2.5-9.2-6.7-11.7-11.7-1.9-5.5-2-11.7-5.2-16.7-1.6-4.1-5.4-6.9-6.4-11.3-2.7-6.1-6.6-11.6-8.8-17.8-3.8-3-9.5-1.9-13.5-4.5-5.2-3.4-11.3-5.8-15.8-10.2-2.3-2.9-4.8-5.8-5.9-9.4-.7-1.7-2.2-3.1-2.6-5-.9-4.3-2.7-8.6-1.9-13.1-.5-4.1 1.4-7.9 1.7-12 .3-4.1 1.5-8 2.5-12 2.7-4.5 4.2-9.7 8.2-13.3 5.8-4.5 12.1-8.8 19.5-9.8.8-3.2 1.3-6.4 2.3-9.5 2.6-4.5 6.4-8.2 9.9-11.9 2.8-3.3 6.7-5.4 10.2-7.9 1.4-.9 2.6-2.1 4.3-2.4 4.1-.8 8-2.6 12.2-1.9 1.9-.1 3.9-.5 5.7-1.2 1.4-4.4 1.5-9.3 4.2-13.2 2.4-3.9 4.9-7.8 7.6-11.4 4.3-6 7.4-13 13-18 2.9-2.1 5.6-4.7 9.3-5.3 4.2-.6 8.4-3 12.6-1.6 2.7.7 5.4 1.2 8.1 2 4.6 2.5 8.5 5.9 11.7 10 5.2 6.8 12.8 11.3 17.7 18.3 1.8 2.6 4.2 5.2 4.4 8.6 2.5-.8 5.1-1.4 7.6-2-.6-3.5-1.8-6.9-2.2-10.4.8-3.9 1.7-7.8 2.8-11.7 4.9-11.7 10.1-23.3 15-35 2.6-6.2 7.4-11.2 13.4-14.3 10.1-3.2 20.7-3.6 31.1-4.8 3.1-.6 6.1.8 9.2 1.4 2.6-1.6 5.7-2 8.6-2.7 4.6-1.1 9.4-2 14.2-1.5 2.6-.2 5.1-1.2 7.7-1.4 12.7-1.3 25.4-2.8 38.1-4 4.1.7 7.9-1.1 12-1.4 12-1.2 24-2.8 36.1-3.7 3.4.7 6.6-.9 10-1.2 12-1.3 24-2.6 36-3.8 2.5-.3 4.9.4 7.3.9 11.6-3.7 23.8-4.2 35.8-5.6 2-.3 4 .8 6 .2 7.8-2.2 15.9-2.3 23.8-3.4 2.7-.6 5.5.7 8.2-.2 8.8-2.3 18-2.3 27-3.6 4.2-.8 8.4.5 12.5 1.4 5.2-2.4 10.9-3.1 16.4-4.4 11.7-1.3 23.4-2.6 35.1-3.7 4.1.7 7.8-1.1 11.8-1.3 11.8-1.2 23.5-2.5 35.2-3.8 2.3-.3 4.6.3 6.9.6 4.7-.7 9.1-2.5 13.9-2.8 12.4-1.3 24.8-2.8 37.2-3.9 4.5.7 8.7-1.4 13.1-1.5 13-1.2 26-3.3 39.1-3.7 5.1-1.4 10.5-1.5 15.8-2.2 9-.9 18-2 27.1-2.8 4.8.4 9.4 1.9 14 3 6.3 2.8 11.7 7.9 14.5 14.3 1 4.1 2.1 8.3 2.9 12.5-.6 3.8-1.7 7.3-2.6 11M725 91.8c-2.9 6.1-6 12.2-8.9 18.3 11.6-3.2 24-5.3 35.9-3.2 8.4 1.5 15.8 7 19.9 14.5 1.7-5 2.5-10.2 4.3-15.1.3-.3.8-.9 1-1.1 8.1-1.5 16.4-1.8 24.6-2.9 22.9-2.3 45.8-5.1 68.8-7.1-2 9.4-4.9 18.5-7.2 27.8-.5 1.6-.7 4.2-2.9 4.4-8.5 1.1-17.1 1.7-25.6 2.9-1.6.2-2.2 1.9-2.6 3.2-9.3 34.3-18.5 68.7-27.8 103-.2 1.9-2 2.7-3.7 2.8-11.3 1.1-22.5 2.5-33.7 3.5.9-6.1 2.9-11.9 4.4-17.8 2.7-4.2 3.4-9.2 4.8-14 6.5-24 12.9-48.1 19.4-72.1.4-1.4.6-2.9.7-4.4-9.5.2-19 2.2-28.5 2.4.2-1 .6-2.9.7-3.9-5.2 3.4-10.3 6.8-15.4 10.2-3.7 2.4-7.2 5.2-11.3 6.8-1.4-3.4-2.4-7.2-5.6-9.4-4.5-3.2-10.3-1.8-15.3-1.2-6.4 1-11.6 7-11.6 13.5.3 3.9 4.1 6 7.5 7 11 3.5 23.1 4.5 32.7 11.4 6.6 4.4 9.3 12.9 8.5 20.5-1.5 15-7.8 29.8-18.8 40.4-10.4 10.6-24.7 16.8-39.3 18.8-10.6 1.3-21.8 3.1-32-1-5.9-2.3-10.7-6.8-13.8-12.3-6.8 13.6-13.7 27.2-20.9 40.7 209.9-22.5 419.8-44.9 629.7-67.4 5.3-.6 10.5-2.1 14.9-5.2 5.9-4.2 9.4-11 10.9-18 10-45.3 20.1-90.6 30.1-135.8 1.2-4.2 1.4-8.6.9-12.9-.8-4.3-4.7-7.4-8.7-8.6-5.2-1.6-10.7-.1-16 .3-190 20.3-380.1 40.7-570.1 61m108.7-55.1c-5.8 12.9-11.3 25.9-16.8 38.9 12.4-1.4 24.8-2.7 37.2-4 4.4-.4 8.9-2.1 12.1-5.3 4.2-4 5.6-9.9 8-15 1.8-4.7 4.6-9.1 5.3-14.2.1-4.5-5.3-5.3-8.6-4.6-12.4 1.4-24.9 2.3-37.2 4.2m-47.9 4.9c-5.5 13.1-11.2 26-16.8 39.1 13.8-1.7 27.7-2.7 41.5-4.7.8-2.2 1.7-4.4 2.6-6.6-7.6.9-15.2 1.7-22.8 2.4 1.5-3.3 2.9-6.7 4.4-10.1 7-.6 14-1.5 20.9-2.2.9-2.3 1.9-4.5 2.9-6.8-7 .7-14 1.5-20.9 2.2 1.2-2.9 2.5-5.8 3.7-8.7 7.6-.8 15.3-1.7 22.9-2.4 1-2.3 1.9-4.5 2.9-6.8-13.8 1.6-27.6 3-41.3 4.6m-48 5.1c-5.5 13.1-11.2 26.1-16.8 39.2 13.8-1.5 27.5-3 41.3-4.4.9-2.3 1.9-4.5 2.8-6.7-7.6.7-15.2 1.6-22.8 2.4 1.1-2.5 2.1-5 3.1-7.4.5-1.1.8-2.8 2.3-2.7 6.6-.8 13.2-1.4 19.8-2.2 1-2.3 1.9-4.5 2.9-6.8-7 .8-14 1.5-20.9 2.3 1.2-2.9 2.5-5.8 3.7-8.7 7.6-.8 15.2-1.7 22.8-2.4l3-6.9c-13.6 1.4-27.4 2.8-41.2 4.3m-55.9 6.1c-5.8 12.9-11.3 26-16.9 39 6.1-.9 12.4-1 18.4-2.3 2.1-4.4 3.9-9 5.9-13.5 8.3-1.4 17-1.2 25.2-3.4 7.7-2.3 10.2-10.5 12.9-17.2.6-1.9 1.2-4.8-.8-6-2.9-1.6-6.4-.9-9.5-.6-11.7 1.5-23.5 2.4-35.2 4M639 57.3c-5.2.5-10 3.5-12.7 8-2.2 4.2-4 8.7-5.7 13.1-1 2.1-.5 5.4 2.4 5.5 7.5.3 14.9-1.5 22.4-1.8-.8 1.8-1 4.1-2.7 5.3-2.2.6-4.5.7-6.7 1-43.6 4.6-87.1 9.4-130.7 13.9-1 2.3-2 4.5-3 6.8 48.3-5.1 96.5-10.3 144.8-15.5 4.2-.4 8.6-1.9 11.6-5.1 2.9-3.1 4.1-7.3 5.9-11 1.1-2.8 3-5.5 2.4-8.7-1-2.2-3.8-2.5-5.9-2.5-6.4.2-12.8 1.6-19.2 1.7 1-1.9 1.5-5.1 4.3-5.2 8.6-1.2 17.3-1.6 25.9-3 1.2-2.1 2-4.4 3-6.6-12.2 1.5-24.2 2.8-36.1 4.1m-52 5.5c-3.6 8.3-7.2 16.6-10.7 25 4-.5 8-.8 12-1.4 1.4-3.6 3-7.1 4.5-10.6.8-.1 2.4-.3 3.2-.3.2 3.4.5 6.7.8 10.1 4.3-.4 8.6-.8 12.8-1.4-.5-3.3-1.1-6.6-1.6-9.8 2.2-.6 4.7-1.3 5.7-3.6 1.2-3 3.5-6.1 2.9-9.5-1.5-1.5-3.8-1-5.8-1-7.9.8-15.9 1.7-23.8 2.5m290.4 4c2-3.9-1.8-2.2-3.5-2.4-1.5.1-3.8 0-2.1 2.1-.3 1.2-.7 2.5-.3 3.7 1.2-1.9 1.3-4.8 4-5.3-.5 1.7-1 3.3-1.5 4.9.4-.4 1-1.1 1.4-1.5l3.5.4-.4-2.1c.3.5.9 1.4 1.2 1.8l1.5-5c-2.1 0-2.7 2.3-3.8 3.4m-308.8-2c-5.4.9-11.2.3-16.2 2.7-4.8 2.4-6 8.1-8.2 12.5-1.1 2.9-3.1 5.8-2.7 9.1 1.3 2.6 4.7 1.8 7.1 1.6 6.3-.9 12.8-1 19-2.4 6.8-2.1 8.3-9.9 11-15.5.9-2.5 3.4-6.1.7-8.3-3.4-1.3-7.2.2-10.7.3M520 70c-3.5 8.3-7.1 16.7-10.8 24.9 4-.4 7.9-.8 11.9-1.3 1.6-3.4 2.8-6.9 4.5-10.3 4.3-1.3 9-1.1 13.4-1.8.7-1.5 1.3-3 2-4.5-4.4.5-8.8 1-13.3 1.4.7-1.8 1.5-3.6 2.3-5.4 4.8-.5 9.7-1 14.5-1.6.6-1.5 1.3-2.9 1.9-4.4-8.9 1.1-17.6 2.1-26.4 3m-57 6.1c-5.7 13-11.3 26.1-16.9 39.1 12.6-1.3 25.2-2.7 37.8-4 4.6-.5 9.2-2.5 12.3-6 2.6-2.7 3.9-6.3 5.3-9.6 1.9-4.6 4-9.2 5.9-13.8.9-2.4 2-5.2.6-7.6-1.6-2.2-4.6-2.2-7.1-2-12.6 1.2-25.2 2.6-37.9 3.9m-47.9 5.2c-5.6 13-11.3 26-16.8 39.1 13.8-1.5 27.6-2.8 41.4-4.5.9-2.2 1.8-4.5 2.7-6.7-7.6.8-15.2 1.7-22.8 2.4 1.4-3.3 2.9-6.7 4.3-10 7-.8 13.9-1.6 20.9-2.2 1.1-2.3 2.1-4.6 3.1-6.9-7 .8-14 1.5-21 2.3 1.2-2.9 2.5-5.7 3.6-8.6 7.7-1 15.4-1.7 23.1-2.5.9-2.3 1.9-4.5 2.9-6.8-13.9 1.4-27.7 2.9-41.4 4.4m-48 5.1c-5.6 13.1-11.3 26.1-16.8 39.2 13.6-1.5 27.2-2.8 40.8-4.4 1.8-1.6 2.2-4.6 3.4-6.7-7.6.7-15.2 1.6-22.8 2.4 1.4-3.3 2.6-6.7 4.3-9.9 6.9-1.2 13.9-1.6 20.8-2.4 1-2.3 2-4.5 3-6.8-7 .8-13.9 1.5-20.9 2.3 1.2-2.9 2.5-5.8 3.6-8.7 7.6-1 15.3-1.6 23-2.5 1-2.3 1.9-4.5 2.9-6.8-13.7 1.4-27.5 2.9-41.3 4.3m-15.9 1.7c-4.6 10.4-8.8 20.9-13.6 31.2l-5.4-29.1c-7.8.8-15.6 1.6-23.3 2.5l-.6.4c-5.7 12.8-11.2 25.8-16.7 38.7 2.8-.3 5.5-.5 8.3-.9 4.6-10.4 8.8-21 13.8-31.2 1.8 9.7 3.6 19.5 5.5 29.2 7.9-.8 15.7-1.7 23.5-2.5 5.6-13 11.3-26.1 16.9-39.2-2.9.3-5.6.6-8.4.9m246.7 27.6c-11.9 1.2-21.7 10.7-25.4 21.8-16 47.5-31.9 95-47.9 142.5-1 3.2-1.7 6.7-.7 10 .7 2.6 3.7 3.1 6 3.3 5.4.3 10.7-.8 16.1-1.2 23.5-2.5 47-4.8 70.4-7.6 10.2-19.7 19.9-39.5 30-59.2 7.2-14.8 15.1-29.2 22-44.1-1.5-23.1 11.3-45.8 30.5-58.3 3.6-6 6.6-12.4 9.9-18.6-37 3.6-74 7.5-110.9 11.4m-163.5 17.5c-19.8 59.2-39.9 118.2-59.7 177.4 18.2-1.8 36.4-3.8 54.5-5.6 7-20.7 13.9-41.5 20.9-62.2 5.7-.7 12.9-.9 16.8 4.2 4 5.7 1.7 13.1-.5 19-4.1 12.1-8.1 24.2-12.1 36.3 19.6-1.7 39.1-4.1 58.7-6.1-2-8.3 1.7-16.3 4.3-23.9 3.9-11.7 8.5-23.2 11.9-35.1.6-2.2 1.1-4.9-.6-6.7-3.3-3.4-8.3-4-12.7-4.9 5.1-3.2 10.2-6.3 15.2-9.5 5.1-3.6 8.5-9.1 10.3-15 6.9-20.9 13.9-41.7 20.9-62.6 1.6-4.6 2.7-10.3-.4-14.6-2-2.8-5.7-3.6-9-3.1-39.4 4.1-79 8.2-118.5 12.4m-223.3 1c-4.6 7.9-11 14.9-14.4 23.5 4 3.1 6.7 7.4 9.7 11.4.1 1.8 0 3.8 2.6 3.3-.3.3-1 .8-1.3 1.1.5.3 1.5.8 2 1.1-.3 1.9-.2 4.1-1.3 5.8-.5.9-2.3 2.4.4 2.1-.2.6-.5 1.8-.6 2.4.4.1 1.1.4 1.4.5-.4.4-1.2 1.1-1.6 1.5-1.6 4.6-1.6 9.5-2.7 14.2l1.3.2c-.4 0-1.1.2-1.4.2.1 3.2.2 6.4-.8 9.4-.5 2.4-2.1 4.7-1.4 7.2-.5 1.8-.9 3.7-1.2 5.6-1-1.3-2.3-2.9-4.2-2.4.7-.5 2-1.4 2.7-1.8-.9-.1-2.7-.2-3.6-.3-2.6-2.9-3.2-7.4-6.8-9.3-.5.8-1 1.6-1.6 2.4 0-1.2-.1-2.5-.3-3.7.5-.2 1.4-.7 1.9-1-.7-1-1.3-2-2-3 .4-.4 1.1-1.3 1.5-1.8-.6-1.7 0-3.2 1.4-4.4-.8 0-2.2-.1-3-.1.5-.1 1.6-.3 2.1-.3-1-2.9-1.5-5.9-2.9-8.7-3.5-5-8.9-9.2-15.1-9.8-4 1.4-8.6 1-12.1 3.6-2.6 2.4-4.8 5.2-7.3 7.7 0 2.9-.6 5.8-1.5 8.5.4.2 1.1.5 1.5.6-.4.4-1.1 1.1-1.5 1.4 2.1 2.2 2.2 5.3 2.3 8.2.6-.1 1.8-.2 2.4-.3-.5.3-1.6.8-2.1 1.1 2.1 1.9 4.6 3.4 5.8 6.1 1.3 2.5 4.6 2.1 6.9 1.4 2.6 3.1 5 6.6 4.7 10.9.3.1 1 .2 1.3.3l-1.6.4c.8 2.8 1.4 5.8.9 8.7-.6-.3-1.6-1-2.2-1.3-2.8-.1-5.6-1.2-7.6-3.1.3-.9.5-1.8.9-2.6-.4-.3-1.2-1-1.6-1.3.4-2 .6-4.1.9-6.2-.7.5-1.3 1-2 1.5-.4-.3-1.1-1-1.4-1.3l1.5-1.8c-1.3-1.8-2.5-3.7-3.7-5.5-.3-.2-.9-.6-1.3-.8.2-.6.7-1.8.9-2.4-2.8 1.9-5-.2-6.9-2v3.5c-.3-.6-.8-1.7-1-2.3-1.8.2-3.6.2-5.4-.1.1.4.3 1.3.3 1.7-.6-1-1.3-1.9-1.9-2.9-.6.6-1.7 1.8-2.2 2.4-3-1.3-6.2-.4-8.4 1.9-.9.3-1.9.7-2.8 1-1 1.6-2.1 3.1-3.3 4.5-.6 1.4-1.3 2.7-1.6 4.1 0 2 1.2 4.2-.6 5.8-.4 1.8-.8 3.6-1.2 5.5.5.9 1 1.9 1.5 2.8 1.2 1 2.3 2.1 3.4 3.3-.3.2-1 .6-1.3.8.6 3 3.1 4.8 5.4 6.5 1.3 0 2.7.1 4 .1v1.7c4.3-.5 8.7.7 12.9-.6 0 .5-.1 1.4-.1 1.9.7 0 2.1.1 2.8.1l.9 3.3c.4-.2 1.1-.4 1.5-.6.6 1.5 1.2 3 1.9 4.5l-1.6.4c.5 0 1.5.1 2 .1 1.3 2.3 2.6 4.7 4.8 6.3-.1.6-.2 1.7-.3 2.3.6.9 1.2 1.7 1.7 2.6.6 3.7 2.8 7 5.2 9.8 0 .3-.1 1-.1 1.3 3.9 4.6 6.1 10.3 8.6 15.7 1.6 3 3.8 6 3.4 9.6 11.5.2 23-1.2 34.5-1.7l.1.8c3.5.7 7.8.9 9.8 4.4 2.7 1.1 5.6 1.9 8 3.7h1.2c2.2 1.5 4.3 3 6.3 4.8-.7 1.3-1.1 2.7-1.6 4 18 .6 35.8-2.7 53.7-4.2 5.7-17.9 11.4-35.7 17.1-53.5 20.6-2.1 41.3-4.2 61.9-6.4 9.1-1.7 14.5-10.2 17.5-18.2 10.2-29.5 20.5-59.1 30.8-88.6 1.5-4.4 2.2-9.8-.8-13.7-2.2-2.8-6-3.5-9.3-3-37 4-74.1 7.5-111.1 11.7-3.3 8.2-5.8 16.8-8.7 25.2-2.9-4.6-8.4-6.4-13.4-7.6-2.7.3-5.6.8-7.9 2.5-2 .7-3.9 1.5-5.8 2.3-3 2.4-2.3 6.6-4 9.7-2.9 5-1.9 12.1 2.4 15.9-.5.3-1.3 1.1-1.8 1.4l2.8-.4c-.1 2-.2 4-.4 5.9-1 1.2-1.9 2.4-2.6 3.7-.5-.6-1.5-1.9-2-2.5-2.7 1.2.3 2.9 1.2 4.2-.9 2.9-2 5.9-4.8 7.5-2.7.1-3.8-2.7-5.1-4.6-.7.1-2.2.3-2.9.3.5-.2 1.5-.6 2-.7-3.1-6.9-3.6-14.8-7.4-21.4-1.3-5.6-3.8-10.7-6.7-15.6-1.8-2.6 0-5.6.8-8.1-.1-.3-.4-1-.5-1.3 3.8-3.3 4.5-8.6 7.4-12.6-2.4-2.9-5.8-4.8-7.8-8.1-.3.2-1 .5-1.3.7-.1-2.4-2-3.9-3.7-5.4-2.9-2.5-5-5.8-8.1-8.1-.2-.6-.7-1.7-.9-2.3-2 .9-4.1 2.7-5.4 5.2M662.2 222c6-3.9 11.9-7.9 17.9-11.8 1.1-.8 2.3-1.1 3.6-1.4 1.2 3.5 2.4 7.6 5.9 9.6 3.1 2 6.9 1.7 10.4 1.4 4.8-.5 10-.7 14-3.8 3.3-2.6 5.1-6.8 5.5-10.9 0-3.3-2.5-5.9-5.5-6.7-11.6-3.5-24.1-5.2-34.5-12.1-5.7 11.9-11.7 23.7-17.3 35.7m-408.9-31.7c.5.5.5.5 0 0m-59.1 13.9c.6.5.6.5 0 0m-53 48c.6.5.6.5 0 0m3 0c.6.5.6.5 0 0z"/><path class="st0" d="M849.2 41.3c3.9-.5 7.8-1 11.8-1-1.9 6.5-5.3 12.5-7.7 18.9-1.1 2.1-1.5 5-3.8 6.2-3.6 1-7.5 1-11.2 1.5 3.6-8.6 7.2-17.1 10.9-25.6zM1266.9 53.1c8.5-.8 17-2 25.5-2.5-2.3 9.7-5.2 19.4-7.7 29-.6 1.6-.7 3.9-2.8 4.2-8.8 1.2-17.7 1.7-26.4 3-2.1.3-2.5 2.6-3 4.3-9.2 34.4-18.4 68.7-27.7 103.1-.2 1.8-1.6 3.2-3.4 3.1l-34.1 3.6c1-7.4 3.7-14.4 5.4-21.6 7.6-28.7 15.5-57.3 23.1-86 .9-1.8-1.6-2.3-2.8-2-27.2 2.9-54.3 5.7-81.5 8.7-3 .3-3.1 3.8-3.8 6.1-1 4.7-2.9 9.1-3.4 13.9 1 1.5 3.1.4 4.6.5 15-1.5 29.9-3.4 45-4.6-1.9 9.5-5 18.8-7.3 28.2-.6 2-.9 5-3.5 5-15.4 1.8-30.8 3.1-46.1 5-2.6.2-2.9 3.1-3.5 5.1-1.3 5.6-3.4 11.1-4.2 16.8 1.2 1.4 3.2.4 4.7.5 18.3-1.9 36.6-4.1 54.9-5.7-2.4 10.4-5.4 20.6-8.2 30.9-.3 1.8-2 2.6-3.6 2.5-29.7 3.1-59.4 6.3-89.1 9.4-1.8.2-3.6.3-5.3.3 6.3-25.2 13.5-50.2 20.1-75.3 5.9-21.8 11.7-43.7 17.7-65.5.2-1.8 1.9-2.6 3.6-2.7 54.2-5.8 108.5-11.6 162.8-17.3zM697.4 57.5c3.9-.4 7.7-1 11.6-1-.8 3.4-2.2 6.6-3.8 9.7-.6 1.5-2.3 1.8-3.7 2-3.1.4-6.1.7-9.2 1 1.6-3.9 3.4-7.8 5.1-11.7zM596.9 66c2.6-.3 5.2-.6 7.8-.8-.8 1.7-1.3 3.5-2.4 5.1-2.5.9-5.2.8-7.8 1.1.9-1.8 1.7-3.6 2.4-5.4zM559.6 70.9c2.4-2 6.1-1.3 9.1-1.7-1.9 4.6-3.8 9.2-5.8 13.7-1.4 3.8-6.5 2.2-9.6 3.1 1.7-5.2 4.1-10.2 6.3-15.1zM998.9 81.5c30-3.3 60.1-6.3 90.1-9.6 1.7-.2 3.4-.3 5.1-.2a1802 1802 0 0 1-8.4 31.2c-.3 1.8-2.3 1.9-3.8 2.1-18.1 1.9-36.3 3.8-54.4 5.8-2.9 0-3.4 3.1-4 5.3-1.2 5.1-3 10.1-3.8 15.4 4.7.3 9.4-.7 14.1-1.1 11.9-1.2 23.7-2.7 35.6-3.6-2 9.6-5 18.9-7.3 28.4-.6 1.7-.7 4.7-3.1 4.8-15.2 1.7-30.4 3.2-45.6 4.9-1.9 0-3.5 1.3-3.8 3.1-1.6 6.5-3.8 12.8-4.9 19.4 8.3.1 16.5-1.6 24.7-2.2 11.7-1.1 23.3-2.7 35-3.5-2.4 10.4-5.4 20.6-8.1 30.9-.3 2.5-3.1 2.4-4.9 2.7-43.8 4.5-87.6 9.4-131.4 13.8-2.4-18-4-36-6.3-54-.1-.4-.5-1-.6-1.4-3.5 0-6.9.6-10.4 1 2.7-10.3 5.5-20.5 8.3-30.8 6.9-.9 13.9-1.4 20.9-2.4 5.1-.8 9.9-4.2 11.2-9.4.8-3.4 2.7-7.1 1.4-10.7-1.1-2.8-4.8-3.1-7.4-3-8.7.9-17.5 1.8-26.2 2.8-2.2-.1-3.4 2-3.8 3.9-9.5 35.4-19 70.7-28.6 106-.3 1.7-1.7 2.9-3.4 2.8-11.5 1.1-22.9 2.7-34.4 3.4 12.2-47.1 25.3-94.1 37.8-141.1.4-1.8 1-4.5 3.4-4.3 21.3-2.3 42.6-4.5 63.9-6.8 10.2-1 21.8 0 29.7 7.3 6.2 5.7 8.1 14.6 7.1 22.6-1.4 11.9-5.5 23.9-13.5 33.1-3.9 4.8-8.9 8.6-14 12.1-2 1.2-2.7 3.7-2.2 5.8 2.1 18.3 3.7 36.7 6 55 12.4-45.6 24.6-91.2 36.9-136.8.2-1.6 1.6-2.7 3.1-2.7zM478.4 81.1c3.9-.6 7.9-1.1 11.9-1-2.8 8-6.5 15.7-9.9 23.5-3.2 3.4-8.7 1.9-12.9 3 3.6-8.6 7.3-17 10.9-25.5zM215.2 134.7c3.1 3 5.7 6.3 8.6 9.4-1.5-.2-3-.6-4.5-.9 0 .3 0 .9-.1 1.2l2 1.2c.7-.3 1.3-.6 2-1 .5 1.5 2.1 1.9 3.3 2.7 1.5 1.3 2.8 2.9 4.2 4.4-.7 2.5-1.4 5.1-2.2 7.6-.5.3-1.4.9-1.9 1.2 0 1.1.1 2.2.1 3.3-1.7 1.8-3.2 3.7-4 6.1.6-.3 1.6-.9 2.2-1.2-.5 4.1 2 7.5 3.4 11.1 3.9 10.5 8.3 20.8 12.4 31.3l-1.4.3c.4 0 1.2 0 1.6.1 2.7 6.9 5.6 13.8 8.4 20.6 6.4-11.5 12.8-22.9 18.8-34.6-6.3-3.3-9.1-12-5.5-18.2 1.2-2.3 3.2-4 5.4-5.4-.6 3.5-4.3 6.2-3.7 9.9V182l1.4.4c1.2-3.4 3.7-6 6.6-8-.7-.3-2.1-1-2.8-1.3l4-.8c.1.4.2 1.2.3 1.6l-.2-1.7c4.9-.1 9.5 2 12.3 6-2.5 6.7-4.7 13.6-6.9 20.4v.1l-4.2.9c.1 3.4.4 6.8.1 10.3-1.2 4.4-2.5 8.9-4.1 13.2-.5-.1-1.6-.2-2.2-.3.8-1 1.5-2 2.3-3 1.5-6.2.1-12.8.1-19.2-6.6 11.6-12.9 23.4-19.4 35.1-1.1 2.2-1 4.8-1.3 7.3-.4 7.9-.3 15.7-.1 23.6 3.4-3.7 6.5-7.8 9.7-11.7-1.1 2.9-2 5.9-2.9 8.9-2.4 4.1-8.6 7.7-5.9 13-.1 1.6-.2 3.2-.4 4.8-.6 2.5-1.5 4.9-2.3 7.3-1.3-10.9-1.7-22-1.9-33-4.4 7.3-7.9 15.1-11.8 22.7-.5.9-1 1.9-1.9 2.5-6.8-7.1-12.4-15.3-19.6-22l1.2 2.7c1.5 12.3 4.4 24.3 5.1 36.7 5.4 4.1 11.4 7.2 16.9 11.2 2.6-3 5.3-6 8-9-.7 2.1-1.3 4.2-2.1 6.2-.6.9-1.4 1.7-2.3 2.2-.1 2.8-3.2 3.5-5.2 2.1-4.9-3.1-9.9-6.1-14.9-9.1-1.9-1.1-4.1-.6-6.1-.4-.3-.6-.8-1.9-1.1-2.6 1.4.2 4.5.5 3.5-2-1.1-6.7-1.4-13.5-2.8-20.1-.2-1.6-1.7-2.4-2.8-3.3-8-5.9-15.6-12.4-23.8-18.1 5.1 11.4 9.9 23 13.9 34.8-.3.3-1 .8-1.3 1 3.3.8 2.6 5.4 3.5 8 3.1.2 6.8-.9 9.6.5.1.5.4 1.4.6 1.9-5-.4-10-.1-15-.1l1.6-3.2c-1.7-5.2-3.2-10.4-5-15.6l1.2-.4c-2.4 0-2.3-3.3-4.6-3.7-5.7-2-11.4-4-17.2-6 4.2 8.9 8.6 17.7 11.6 27.1 2.2.5 5.6-1.3 6.9 1.1-2.3 2.2-6.8 1.9-9.1-.2-2.1-4.4-3.7-9-5.4-13.5-3.8-6.7-6.9-13.7-10.7-20.4-1.9-2.9-4.3-5.6-5.4-8.9-1-2.9-3.9-4.2-6-6.2.2-.4.7-1.1 1-1.5-.6 0-1.7.1-2.3.1 0-.6.1-1.9.1-2.5-1.3-1.8-2-4.7-4.7-4.6-3.7 1.3-7.7 2.6-11.7 1.4-2.5-1-4.8-2.3-6.9-4.1-1.2-1.7-1.8-3.8-2.7-5.7l1.1-.4c-.3 0-1 0-1.4-.1 0-.8-.1-2.4-.1-3.2l1.5.1c-.4-.2-1.1-.7-1.4-1 .3-1.1.5-2.3.8-3.4.9 1.1 1.8 2.1 2.7 3.2-.8-1.6-1.6-3.3-2.3-5 1.2.1 2.3.5 3.3 1.2v-2.4l-2 .2c2.8-3.3 6.9-5.8 11.3-5.6 4.1-.3 7.7 2.2 10.4 5 3.2 3.7 3.4 8.9 2.3 13.5 8.7 3.9 17.6 7.4 26.5 11-2.3-12-5.1-23.9-7.7-35.9-4 .3-8.5.1-11.5-2.9-5.2-3.6-6.3-10.8-4-16.4 2.2-3.3 5.5-5.9 9.2-7.5.4.3 1.2.8 1.6 1 2-1.8 4.8-.9 7-.2 5 2.5 8.6 8 7.9 13.7-.2 3.3-2.2 6.1-3.9 8.8 2.6 3.6 5.9 6.6 8.9 9.9-.4.1-1.1.4-1.5.6 2.7-.6 4 2.3 5.7 3.9 4.4 4.7 8.5 9.7 13.2 14.1 2.5-15 4.2-30.2 6.7-45.2.2-1.6.4-3.2.5-4.8.5.2 1.4.5 1.9.7-.3-.4-1-1.2-1.4-1.6.6-4.1 1.6-8.1 1.7-12.2l3.3.3c-1.6 11.7-3.7 23.4-5 35.2 1.7-.4 3.4-.9 5.1-1.4-.3.3-.9.8-1.1 1.1-1.3.1-2.6.2-3.9.2 4.4 7.9 8.8 15.7 13.3 23.5 2.6-7.6 4.4-15.5 6.8-23.1.4-1.5 1.2-3.2.5-4.7-3.7-8.9-7.3-17.9-10.9-26.9-1.2-2.9-1.8-6.2-3.9-8.6-.4.5-1.2 1.5-1.6 1.9l-1.8-5.7c-1 .6-2.1 1.2-3.1 1.7-.5-1.3-1.7-1.7-2.9-2-1.9-3.8-5.5-6.1-7.8-9.6 2.9-4.5 5.3-9.3 8.5-13.7h1.8c-.4-.2-1.1-.5-1.4-.7.6-2.1 2.2-4.4 3.5-6.8M177 211.8c1.5 7.7 3.1 15.5 4.8 23.2 1.1 4.9 1.6 10.1 3.5 14.7 8.8 6.9 17.5 14.1 26.7 20.6-.8-4.5-1.3-9.2-3.6-13.2.9-2.6-.8-4.9-2.5-6.7 1.3-3.3.2-7.5-2.4-9.9-9-9.5-17.4-19.5-26.5-28.7m59.7 1c-2.8 9.8-5.4 19.6-8.5 29.2-3.8-6.4-7.3-12.9-11-19.4-1.4-2.4-2.5-4.9-4.5-6.9-.9 6.8-1.9 13.5-3 20.3-.4 1.2.5 2.1.8 3.2-.4.2-1.1.4-1.5.6.2 5 1.5 10.5 5.1 14.2l18 21.3c2.3-3.6 3.9-7.5 5.9-11.3l-1.2-2-1.7.4c0-.4 0-1.2.1-1.6 1.2.6 2.4 1.1 3.6 1.7 1.9-4.3 4.1-8.5 6.2-12.6 2.1-3.6 1.6-8 1.7-12.1-1.4-5.5-4.1-10.5-5.9-15.8-1.3-3-1.9-6.5-4.1-9.2m-98.4 8.4c.6.6.6.6 0 0m5.7 20.1c-1.4 3 3.4 0 0 0m11 .5c2.3 3.7 4.3 7.7 7.5 10.8 2.5 5.3 5.7 10.3 8.8 15.3 6.4 3 13.2 5 19.8 7.4-2.8-8-6.8-15.4-10.4-23.1-8.5-3.4-16.8-7.7-25.7-10.4zM636.6 149.8c4.4-.4 8.8-1.1 13.2-1.2 4.4.3 7 5.5 5.1 9.4-8.8 24.6-17.7 49.1-26.5 73.6-1.3 4.1-5 7.4-9.3 7.9-10.1 1.1-20.2 2.2-30.3 3.2-4.9.7-8.4-4.9-6.5-9.2 8.9-24.8 17.9-49.6 26.7-74.4 1.2-3.9 4.8-7 8.9-7.4 6.3-.6 12.5-1.2 18.7-1.9zM470.8 167.8c12-1.3 24.1-2.6 36.2-3.7 5-.5 8.7 5.4 6.8 9.8-3.6 9.7-7.4 19.3-11 29-1.6 4.5-6 7.8-10.7 8.2-12.9 1.3-25.8 2.8-38.7 3.9 5.7-15.9 11.6-31.6 17.4-47.2z"/><path class="st0" d="M218.1 172.3c.6.5.6.5 0 0zM328.8 183.4c12.1-1.2 24.2-2.6 36.4-3.7 5.1-.3 8.7 5.7 6.5 10.2-3.6 9.7-7.4 19.4-11.1 29.1-1.8 4.7-6.6 7.7-11.5 7.8-12.6 1.1-25.2 3-37.9 3.6 3.2-1.2 6.7-1.6 9.5-3.6 5.5-4.3 10-10.4 10.3-17.6.6-4.5-2.1-8.4-4.7-11.7-.9.8-1.8 1.7-2.8 2.5.2-1.1.4-2.2.7-3.3 1-4.7 3.1-8.9 4.6-13.3z"/><path class="st0" d="M321.6 202.7c3.2 4.8 3.4 11.7-.4 16.3-1.8 2.5-4.7 3.9-7.5 5.1 2.5-7.2 5.3-14.2 7.9-21.4zM218.3 245.6c.9.3 1.8.6 2.6.9-1.8.7-3.6 1.4-5.4 2.2 0-.5.1-1.5.2-2 .9-.4 1.7-.8 2.6-1.1zM259.4 245.5c1.8-1.6 3.7.6 2.7 2.4-1.6.2-3.2-.6-2.7-2.4zM168.3 248.2c.5.6.5.6 0 0zM218.3 250c2.8-1.7.3 3.4 0 0zM218.1 254c3.4.3-1.7 2.9 0 0zM171.3 263.2c.4.6.4.6 0 0zM219.5 284.5c-.7-1.6.6-3.6 2.2-2 2.3 1.1-1.1 2.5-2.2 2zM236.2 296.3c.5.5.5.5 0 0zM194 300.3c1.2-.3 2.4-.3 3.5.1.3 2.6-6.5 2-3.5-.1z"/></g><g id="_x23_000000ff"><path class="st1" d="M725 91.8c190.1-20.3 380.1-40.7 570.2-61 5.3-.4 10.7-1.9 16-.3 4.1 1.2 7.9 4.3 8.7 8.6.5 4.3.3 8.7-.9 12.9-10 45.3-20.1 90.6-30.1 135.8-1.5 7-5 13.8-10.9 18-4.3 3.1-9.6 4.6-14.9 5.2-209.9 22.5-419.8 44.9-629.7 67.4 7.2-13.5 14.1-27 20.9-40.7 3.1 5.5 7.9 10 13.8 12.3 10.2 4.1 21.4 2.3 32 1 14.6-2 28.9-8.2 39.3-18.8 11-10.5 17.3-25.4 18.8-40.4.8-7.7-1.9-16.1-8.5-20.5-9.6-6.9-21.7-7.9-32.7-11.4-3.3-1-7.2-3.1-7.5-7a14 14 0 0 1 11.6-13.5c5-.7 10.9-2 15.3 1.2 3.2 2.1 4.2 6 5.6 9.4 4.1-1.6 7.6-4.4 11.3-6.8 5.2-3.4 10.3-6.8 15.4-10.2-.2 1-.5 2.9-.7 3.9 9.6-.2 19-2.3 28.5-2.4-.1 1.5-.3 2.9-.7 4.4-6.5 24-13 48.1-19.4 72.1-1.4 4.7-2.1 9.7-4.8 14-1.6 5.9-3.5 11.7-4.4 17.8 11.3-1 22.5-2.3 33.7-3.5 1.7-.1 3.5-1 3.7-2.8 9.3-34.3 18.5-68.7 27.8-103 .4-1.3 1-3 2.6-3.2 8.5-1.2 17.1-1.8 25.6-2.9 2.1-.3 2.3-2.8 2.9-4.4 2.3-9.3 5.3-18.4 7.2-27.8-23 1.9-45.9 4.8-68.8 7.1-8.2 1.1-16.5 1.4-24.6 2.9-.3.3-.8.9-1 1.1-1.8 4.9-2.7 10.2-4.3 15.1-4-7.5-11.4-13-19.9-14.5-12-2.1-24.3 0-35.9 3.2 2.8-6.1 5.8-12.2 8.8-18.3m541.9-38.7c-54.3 5.8-108.7 11.5-163 17.3-1.7 0-3.4.8-3.6 2.7l-17.7 65.5c-6.6 25.1-13.8 50.1-20.1 75.3 1.8-.1 3.6-.1 5.3-.3 29.7-3.2 59.4-6.3 89.1-9.4 1.6 0 3.3-.8 3.6-2.5 2.8-10.3 5.7-20.5 8.2-30.9-18.3 1.5-36.6 3.8-54.9 5.7-1.5-.1-3.5.9-4.7-.5.8-5.7 2.9-11.2 4.2-16.8.6-2 .9-4.9 3.5-5.1 15.3-1.8 30.8-3.2 46.1-5 2.7-.1 2.9-3.1 3.5-5 2.3-9.4 5.4-18.7 7.3-28.2-15 1.1-30 3.1-45 4.6-1.5-.1-3.6 1-4.6-.5.5-4.8 2.4-9.2 3.4-13.9.7-2.2.8-5.7 3.8-6.1 27.1-3 54.3-5.8 81.5-8.7 1.2-.4 3.8.2 2.8 2-7.6 28.7-15.5 57.3-23.1 86-1.7 7.2-4.4 14.3-5.4 21.6 11.4-1.1 22.7-2.4 34.1-3.6 1.8.1 3.2-1.4 3.4-3.1 9.3-34.3 18.5-68.7 27.7-103.1.5-1.7.9-4 3-4.3 8.8-1.2 17.6-1.8 26.4-3 2-.3 2.2-2.6 2.8-4.2 2.5-9.7 5.4-19.3 7.7-29-8.3.5-16.8 1.7-25.3 2.5m-268 28.4c-1.6 0-2.9 1.1-3 2.7-12.4 45.6-24.5 91.3-36.9 136.8-2.3-18.3-3.9-36.7-6-55-.4-2.2.2-4.6 2.2-5.8 5.1-3.5 10.1-7.3 14-12.1 8-9.2 12.1-21.2 13.5-33.1.9-8.1-1-17-7.1-22.6-7.9-7.3-19.4-8.3-29.7-7.3-21.3 2.3-42.6 4.5-63.9 6.8-2.5-.1-3 2.5-3.4 4.3-12.5 47.1-25.6 94-37.8 141.1 11.5-.8 22.9-2.3 34.4-3.4 1.7 0 3.2-1.1 3.4-2.8 9.6-35.3 19.1-70.7 28.6-106 .4-1.9 1.5-4 3.8-3.9 8.7-.9 17.5-1.9 26.2-2.8 2.6-.1 6.2.2 7.4 3 1.3 3.6-.6 7.2-1.4 10.7-1.3 5.1-6.2 8.6-11.2 9.4-6.9 1-13.9 1.4-20.9 2.4-2.7 10.3-5.5 20.5-8.3 30.8 3.4-.4 6.9-1 10.4-1 .1.3.5 1 .6 1.4 2.2 18 3.9 36 6.3 54 43.8-4.4 87.6-9.2 131.4-13.8 1.9-.3 4.6-.2 4.9-2.7 2.7-10.3 5.8-20.5 8.1-30.9-11.7.8-23.3 2.4-35 3.5-8.3.6-16.5 2.3-24.7 2.2 1.1-6.6 3.3-12.9 4.9-19.4.3-1.9 2-3.1 3.8-3.1 15.2-1.6 30.4-3.1 45.6-4.9 2.4-.2 2.5-3.1 3.1-4.8 2.3-9.5 5.3-18.8 7.3-28.4-11.9.9-23.7 2.4-35.6 3.6-4.7.4-9.4 1.3-14.1 1.1.8-5.2 2.6-10.2 3.8-15.4.6-2.2 1.1-5.3 4-5.3 18.1-2 36.3-3.9 54.4-5.8 1.5-.2 3.4-.3 3.8-2.1a1802 1802 0 0 0 8.4-31.2c-1.7 0-3.4 0-5.1.2-30.1 3.3-60.1 6.3-90.2 9.6zM833.7 36.7c12.3-1.9 24.8-2.7 37.2-4.2 3.4-.6 8.7.1 8.6 4.6-.7 5-3.5 9.5-5.3 14.2-2.4 5.1-3.8 11-8 15-3.2 3.2-7.6 4.9-12.1 5.3-12.4 1.3-24.8 2.6-37.2 4 5.6-13 11.1-26.1 16.8-38.9m15.5 4.6c-3.7 8.5-7.3 17-11 25.5 3.7-.5 7.6-.5 11.2-1.5 2.3-1.1 2.7-4 3.8-6.2 2.4-6.3 5.8-12.3 7.7-18.9-3.9.1-7.8.6-11.7 1.1zM785.8 41.6c13.8-1.6 27.5-3 41.3-4.5-1 2.3-1.9 4.5-2.9 6.8-7.6.7-15.3 1.6-22.9 2.4-1.2 2.9-2.5 5.8-3.7 8.7 7-.7 14-1.5 20.9-2.2-1 2.3-2 4.5-2.9 6.8-7 .7-13.9 1.5-20.9 2.2-1.5 3.3-2.9 6.7-4.4 10.1 7.6-.7 15.2-1.6 22.8-2.4-.9 2.2-1.8 4.4-2.6 6.6-13.8 2-27.7 3-41.5 4.7 5.5-13.2 11.2-26.1 16.8-39.2zM737.8 46.7c13.8-1.5 27.6-2.9 41.3-4.5l-3 6.9-22.8 2.4c-1.3 2.9-2.5 5.8-3.7 8.7 7-.8 14-1.5 20.9-2.3-1 2.3-2 4.5-2.9 6.8-6.6.8-13.2 1.3-19.8 2.2-1.6-.1-1.8 1.7-2.3 2.7-1 2.5-2.1 5-3.1 7.4 7.6-.8 15.2-1.7 22.8-2.4-1 2.2-1.9 4.5-2.8 6.7-13.8 1.4-27.6 2.9-41.3 4.4 5.5-12.9 11.2-25.9 16.7-39zM681.9 52.8c11.7-1.5 23.5-2.5 35.2-3.9 3.1-.3 6.6-1 9.5.6 2 1.3 1.4 4.1.8 6-2.7 6.6-5.2 14.9-12.9 17.2-8.2 2.2-16.8 2-25.2 3.4-1.9 4.5-3.7 9.1-5.9 13.5-6 1.3-12.3 1.3-18.4 2.3 5.6-13.1 11.1-26.2 16.9-39.1m15.5 4.7l-5.1 11.7c3-.4 6.1-.6 9.2-1 1.4-.2 3.1-.5 3.7-2 1.6-3.1 3-6.3 3.8-9.7-3.9 0-7.8.6-11.6 1zM639 57.3c12-1.3 24-2.5 35.9-3.8-1 2.2-1.8 4.5-3 6.6-8.5 1.4-17.3 1.8-25.9 3-2.8 0-3.3 3.2-4.3 5.2 6.4-.2 12.8-1.5 19.2-1.7 2.1 0 4.9.3 5.9 2.5.6 3.1-1.4 5.9-2.4 8.7-1.8 3.8-3 7.9-5.9 11-3 3.2-7.3 4.7-11.6 5.1-48.3 5.1-96.5 10.3-144.8 15.5 1-2.3 1.9-4.6 3-6.8 43.6-4.5 87.1-9.3 130.7-13.9 2.2-.3 4.5-.3 6.7-1 1.6-1.2 1.9-3.5 2.7-5.3-7.5.2-14.9 2.1-22.4 1.8-2.8-.1-3.4-3.4-2.4-5.5 1.8-4.4 3.5-8.9 5.7-13.1 2.8-4.8 7.7-7.9 12.9-8.3z"/><path class="st1" d="M587 62.8c8-.8 15.9-1.8 23.9-2.5 1.9 0 4.2-.5 5.8 1 .6 3.4-1.7 6.5-2.9 9.5-1 2.3-3.5 3-5.7 3.6.6 3.3 1.1 6.6 1.6 9.8-4.3.5-8.6 1-12.8 1.4-.3-3.4-.6-6.7-.8-10.1-.8.1-2.4.3-3.2.3-1.5 3.5-3.1 7.1-4.5 10.6-4 .6-8 .9-12 1.4 3.4-8.3 7-16.6 10.6-25m9.9 3.2c-.8 1.8-1.5 3.6-2.3 5.3 2.6-.3 5.3-.2 7.8-1.1 1.1-1.5 1.6-3.4 2.4-5.1l-7.9.9zM877.4 66.8c1.1-1.1 1.7-3.4 3.7-3.2l-1.5 5c-.3-.5-.9-1.4-1.2-1.8l.4 2.1-3.5-.4c-.4.4-1 1.1-1.4 1.5l1.5-4.9c-2.7.5-2.8 3.4-4 5.3-.4-1.3 0-2.5.3-3.7-1.6-2.2.6-2.1 2.1-2.1 1.8 0 5.6-1.7 3.6 2.2zM568.6 64.8c3.5-.1 7.3-1.6 10.7-.1 2.7 2.2.2 5.8-.7 8.3-2.8 5.6-4.2 13.4-11 15.5-6.2 1.4-12.7 1.4-19 2.4-2.4.1-5.7 1-7.1-1.6-.4-3.3 1.6-6.2 2.7-9.1 2.1-4.5 3.3-10.1 8.2-12.5 5-2.6 10.8-2 16.2-2.9m-9 6.1c-2.3 5-4.6 9.9-6.3 15.1 3.1-.8 8.2.7 9.6-3.1 2-4.6 4-9.1 5.8-13.7-2.9.4-6.7-.4-9.1 1.7zM520 70c8.8-1 17.6-2 26.4-2.8-.6 1.5-1.3 2.9-1.9 4.4-4.8.5-9.7 1-14.5 1.6-.8 1.8-1.5 3.6-2.3 5.4 4.4-.4 8.8-.9 13.3-1.4-.7 1.5-1.3 3-2 4.5-4.4.7-9.1.5-13.4 1.8-1.6 3.4-2.9 6.9-4.5 10.3-4 .4-7.9.9-11.9 1.3 3.6-8.4 7.2-16.7 10.8-25.1zM463 76.1c12.7-1.3 25.3-2.7 38-4 2.4-.2 5.4-.2 7.1 2 1.4 2.4.3 5.3-.6 7.6-1.9 4.6-4 9.2-5.9 13.8-1.4 3.4-2.8 6.9-5.3 9.6-3.1 3.5-7.7 5.5-12.3 6-12.6 1.4-25.2 2.7-37.8 4 5.6-12.9 11.1-26 16.8-39m15.4 5c-3.6 8.5-7.3 17-10.9 25.5 4.2-1.1 9.8.4 12.9-3 3.4-7.8 7.1-15.5 9.9-23.5-4-.1-8 .4-11.9 1zM415.1 81.3c13.8-1.5 27.5-3 41.3-4.4-1 2.3-1.9 4.5-2.9 6.8-7.7.8-15.4 1.5-23.1 2.5-1.1 2.9-2.4 5.8-3.6 8.6 7-.9 14-1.5 21-2.3-1.1 2.3-2.1 4.6-3.1 6.9-7 .6-13.9 1.4-20.9 2.2-1.4 3.3-2.8 6.7-4.3 10l22.8-2.4c-.9 2.2-1.8 4.4-2.7 6.7-13.8 1.7-27.6 3-41.4 4.5 5.6-13.1 11.3-26.1 16.9-39.1zM367.1 86.4c13.8-1.4 27.5-2.9 41.3-4.4-1 2.3-1.9 4.5-2.9 6.8-7.7.9-15.3 1.6-23 2.5l-3.6 8.7c7-.7 13.9-1.5 20.9-2.3-1 2.3-1.9 4.6-3 6.8-6.9.8-14 1.2-20.8 2.4-1.7 3.2-2.9 6.6-4.3 9.9 7.6-.8 15.2-1.7 22.8-2.4-1.2 2.1-1.6 5.1-3.4 6.7-13.6 1.6-27.2 2.9-40.8 4.4 5.6-13.1 11.3-26.1 16.8-39.1zM351.2 88.1l8.2-.9c-5.5 13.1-11.2 26.1-16.9 39.2-7.9.7-15.7 1.7-23.5 2.5-1.9-9.7-3.7-19.4-5.5-29.2-5 10.2-9.2 20.8-13.8 31.2-2.8.4-5.5.7-8.3.9 5.6-12.9 11-25.9 16.7-38.7l.6-.4c7.8-1 15.6-1.7 23.3-2.5l5.4 29.1c5-10.3 9.2-20.8 13.8-31.2zM597.9 115.7c37-3.9 73.9-7.7 110.9-11.5-3.3 6.2-6.3 12.6-9.9 18.6-19.1 12.5-31.9 35.2-30.5 58.3-6.8 14.9-14.8 29.3-22 44.1-10.1 19.7-19.8 39.6-30 59.2-23.4 2.8-46.9 5-70.4 7.6-5.4.4-10.7 1.5-16.1 1.2-2.3-.2-5.2-.7-6-3.3-1.1-3.3-.4-6.8.7-10 16-47.5 31.9-95 47.9-142.5 3.7-11 13.5-20.5 25.4-21.7m38.7 34.1c-6.2.7-12.4 1.3-18.5 2-4.1.4-7.7 3.5-8.9 7.4-8.9 24.8-17.9 49.6-26.7 74.4-1.9 4.3 1.6 9.8 6.5 9.2 10.1-1 20.2-2 30.3-3.2 4.3-.5 8-3.8 9.3-7.9 8.8-24.5 17.7-49.1 26.5-73.6 1.9-3.9-.7-9.1-5.1-9.4-4.6 0-9 .7-13.4 1.1zM434.4 133.2c39.5-4.2 79.1-8.3 118.7-12.4 3.3-.5 7 .3 9 3.1 3.1 4.3 2 9.9.4 14.6-7 20.8-14 41.7-20.9 62.6-1.9 5.9-5.2 11.4-10.3 15-5 3.2-10.2 6.4-15.2 9.5 4.4.9 9.4 1.4 12.7 4.9 1.7 1.8 1.3 4.5.6 6.7-3.4 11.9-8 23.4-11.9 35.1-2.6 7.7-6.4 15.6-4.3 23.9-19.6 2-39.1 4.4-58.7 6.1 4-12.1 8-24.2 12.1-36.3 2.2-5.9 4.5-13.3.5-19-3.9-5.2-11.1-5-16.8-4.2-7 20.7-14 41.4-20.9 62.2-18.2 1.8-36.4 3.8-54.5 5.6 19.6-59.2 39.6-118.2 59.5-177.4m36.4 34.6c-5.8 15.7-11.7 31.4-17.5 47.1 12.9-1.1 25.8-2.6 38.7-3.9 4.8-.3 9.1-3.7 10.7-8.2 3.6-9.7 7.5-19.3 11-29 1.9-4.5-1.8-10.4-6.8-9.8-12 1.1-24.1 2.5-36.1 3.8zM296 148.1c37-4.2 74.1-7.7 111.1-11.7 3.3-.5 7.2.1 9.3 3 3 3.9 2.3 9.3.8 13.7-10.3 29.5-20.5 59-30.8 88.6-3 8-8.4 16.5-17.5 18.2-20.6 2.2-41.2 4.4-61.9 6.4-5.7 17.8-11.4 35.7-17.1 53.5-17.9 1.5-35.7 4.8-53.7 4.2.5-1.4.9-2.8 1.6-4 .8-1.1 1.6-2.2 2.5-3.3-.3.9-1 2.8-1.4 3.8 2.4-1.7 4.7-3.6 5.6-6.4.8-.3 1.6-.5 2.4-.8 1.2-1.5 2.5-3 3.8-4.4-.1-.4-.4-1.3-.5-1.7 2.2-2 4.7-3.6 7-5.6l3.3.9c1.5-.8 2.9-1.8 4.5-2.3 8.4-2.3 17-4.1 25.6-5.4.4-.3 1.3-1 1.8-1.3.5-8 1.7-15.9 3-23.8.5-1.5-.7-2.5-1.4-3.6.5.2 1.5.7 2.1 1 .3-.6.9-1.8 1.3-2.4-.1-.7-.1-1.4-.1-2.1 2.1-4.2 1.7-9 3-13.4 1.2-4.7 2.8-9.2 4.3-13.8 2.3-1.8 2-4.7 2-7.3.8 1 1.6 2 2.3 3.1.4-.8 1.3-2.3 1.7-3.1-.1.6-.2 1.8-.2 2.4l.7-.1c12.7-.6 25.3-2.4 37.9-3.6 4.9-.1 9.7-3.1 11.5-7.8 3.7-9.7 7.5-19.3 11.1-29.1 2.1-4.5-1.4-10.5-6.5-10.2-12.1 1.1-24.3 2.5-36.4 3.7-1.4 4.4-3.5 8.6-4.5 13.2-2.9-1.3-4.8-4.4-8.3-4.5-.7-2.2-2.1-1.5-3 0-2.8.3-5.6.6-8.5.6 1.5-.9 3.1-1.7 4.7-2.4-1.9.3-3.7.3-5.6 0 .3.4.9 1.4 1.2 1.8-1.6.4-3 1-4.3 1.9-.2-1.1-.4-2.2-.7-3.3-.5 1-1 1.9-1.4 2.9.3 0 .9-.1 1.2-.1.3.7.6 1.3.9 2-.3 0-.9.1-1.2.1l-1.6.8c-1.4-.8-1.5-2.3-1.7-3.7l-2.1 3c2.1.3 3 1.3 2 3.3-1.8-.8-3.5-1.7-5.3-2.5.6-.8 1.2-1.6 1.8-2.3a45 45 0 0 1-2.6-1c.9.1 2.8.4 3.7.5.3-1.2.7-2.5 1-3.7-1.5-2.5-1.2-5.4-1.3-8.2-2-2.8-3.7-5.9-6-8.6 3.1-8.3 5.6-16.9 8.9-25.1z"/><path class="st1" d="M285.7 178.2c1.9 3.7 3 8.1 1.5 12.1-1.4 3.9-4.5 6.9-8.4 8.3 2.2-6.9 4.4-13.7 6.9-20.4zM662.2 222c5.6-12 11.5-23.8 17.3-35.7 10.3 6.8 22.8 8.5 34.5 12.1 3 .8 5.6 3.4 5.5 6.7-.4 4.1-2.2 8.3-5.5 10.9-3.9 3.2-9.2 3.4-14 3.8-3.5.3-7.3.7-10.4-1.4-3.5-2-4.7-6-5.9-9.6-1.3.3-2.6.6-3.6 1.4-6 3.9-11.9 7.9-17.9 11.8zM288.7 200.4c1.3-1.1 2.5-4.2 4.5-2.4.2.7.6 2.1.8 2.9-.7-.2-2.2-.5-2.9-.7.8.6 1.5 1.2 2.3 1.8-.5.7-1 1.5-1.5 2.2.1 1.6-.1 3.2-.7 4.7.3 1.5.7 3.1.2 4.6 1.3.2 2 1.3 2.8 2.3-.4-.5-1.3-1.3-1.8-1.8-.6 3.7-3.5 6.2-7.1 6.8l.4 3.1c-.5-.4-1.4-1.3-1.9-1.8-.6.1-1.9.4-2.5.5.6-1.2 1.3-2.3 2-3.4-.6.1-2 .2-2.6.2.3-.5.9-1.5 1.1-2-1.7-3-2.4-7.3-.4-10.1.2-1.5 0-3-.7-4.3 1.7-.2 2.9-1.4 4.1-2.4 1.2-.1 2.6-.2 3.9-.2z"/><path class="st1" d="M301.1 201.1c5.4-5.9 15.9-4.7 20.5 1.6-2.6 7.1-5.4 14.2-7.9 21.4h-6.2c0 .5-.1 1.6-.2 2.1-.3-.7-.8-2.1-1-2.8l-2.9.3c.3 4.5-1.3 8.7-2.6 12.9-.4 0-1.3-.1-1.8-.2 2.5.9-.1 3.3-.3 4.9a14 14 0 0 0-1.6-1c-.2.7-.7 2.2-.9 2.9-.6-.5-1.7-1.6-2.3-2.1 1.2-6 4.1-11.5 6.2-17.2-4.7 3.9-10.6 6.7-14.5 11.5-3.5 1.2-6.6 3.5-9 6.1-2 8.1-3.8 16.3-5.1 24.6 5.2-3.3 10.3-6.7 15.5-10.1 2.1-1.4 3.1-3.9 5.6-4.8l-1.2-3.6 1.2-4.6c.1.4.4 1.3.5 1.8.9.3 1.8.7 2.7 1 1-.7 2-1.2 3.1-1.6-1.3 3.2-4.9 4.7-5.9 8.1.6.3 1.8.8 2.4 1-.6.1-1.9.2-2.5.3-.8 2.8 1.3 6.7-2.1 8.3.7.2 1.3.4 2 .7-.1.6-.3 1.7-.5 2.3l2.1-.8c-1.4 1.4-2 3.3-1.8 5.3-1.5-1.1-2.1-2.6-2-4.7 0 1.3 0 2.6-.1 3.9l2.4 3-1.6-.6c-.2 3.5-2.2 7.2-5.9 8l1.6 2.4c-1.1.1-2.1.2-3.2.1 1.2-7.2 2.4-14.5 4.1-21.6-6 3.2-11.4 7.4-17.2 11-.7 5.9-1.2 11.8-2.1 17.7-.7-.2-2-.6-2.6-.9 1.2 1.9 1.8 4 .4 6l3-.4c-1.2.8-2.5 1.6-3.7 2.5-.3-.5-.9-1.6-1.2-2.1 0 .5.1 1.6.1 2.1-4.7.4-9.1 2.4-13.9 2.1-1.9 2.5-4.4 4.6-5.6 7.5l-3 1.5c.8-2 1.4-4.1 2.1-6.2 1.4-1.8 2.9-3.5 4.5-5.1-.1-2.3-.3-4.5-.4-6.7.8-2.4 1.7-4.8 2.3-7.3.6 4.4 1.3 8.8 1.8 13.3 4.3-.8 8.5-1.6 12.8-2.3.7-15.6 3.4-30.9 6.3-46.2-5.3 5.4-9.6 11.8-14.6 17.5.9-3 1.8-6 2.9-8.9 3.4-4.6 7-9 10.5-13.4.7-1 1.7-2 1.6-3.4.1-4.9-.1-9.9-.4-14.9l-1-.2c1.6-4.3 2.9-8.8 4.1-13.2.7 8.6.5 17.3 1.1 25.9.2.1.6.2.8.3 7.8-5.5 15.4-11.4 23.1-17-3.7-5.4-3.4-13.4 1.5-18z"/><path class="st1" d="M278 246.3c3.4.1-1.5 2.9 0 0z"/></g><g id="_x23_c1d72eff"><path class="st2" d="M211.1 134.2c1.2-2.5 3.3-4.4 5.9-5.6.2.6.7 1.7.9 2.3 3 2.3 5.2 5.6 8.1 8.1 1.6 1.5 3.6 3 3.7 5.4.3-.2 1-.5 1.3-.7 2 3.3 5.4 5.2 7.8 8.1-2.9 3.9-3.7 9.3-7.4 12.6.1.3.4 1 .5 1.3-.9 2.6-2.6 5.6-.8 8.1 2.9 4.9 5.4 10 6.7 15.6 3.8 6.6 4.3 14.5 7.4 21.4-.5.2-1.5.5-2 .7.7-.1 2.2-.3 2.9-.3 1.3 1.9 2.4 4.7 5.1 4.6 2.7-1.6 3.9-4.6 4.8-7.5-1-1.2-4-3-1.2-4.2.5.6 1.5 1.9 2 2.5.7-1.3 1.6-2.5 2.6-3.7.2-2 .3-4 .4-5.9l-2.8.4c.4-.3 1.3-1.1 1.8-1.4-4.3-3.9-5.4-10.9-2.4-15.9 1.7-3.1.9-7.4 4-9.7 1.9-.8 3.8-1.6 5.8-2.3 2.2-1.8 5.1-2.2 7.9-2.5 5 1.2 10.5 3 13.4 7.6 2.3 2.6 4 5.7 6 8.6.2 2.8-.2 5.7 1.3 8.2-.3 1.2-.6 2.5-1 3.7-.9-.1-2.8-.4-3.7-.5.7.2 2 .7 2.6 1-.6.8-1.2 1.6-1.8 2.3 1.8.8 3.5 1.7 5.3 2.5 1-2 .2-3.1-2-3.3l2.1-3c.2 1.4.3 2.9 1.7 3.7l1.6-.8c.3 0 .9-.1 1.2-.1-.3-.7-.6-1.4-.9-2-.3 0-.9.1-1.2.1.5-1 .9-1.9 1.4-2.9.2 1.1.4 2.2.7 3.3 1.3-.9 2.8-1.6 4.3-1.9-.3-.4-.9-1.4-1.2-1.8 1.8.4 3.7.3 5.6 0-1.6.7-3.2 1.5-4.7 2.4 2.8 0 5.6-.3 8.5-.6.8-1.5 2.3-2.2 3 0 3.5.1 5.4 3.2 8.3 4.5-.2 1.1-.5 2.2-.7 3.3.9-.8 1.8-1.7 2.8-2.5 2.6 3.3 5.3 7.2 4.7 11.7-.3 7.2-4.9 13.3-10.3 17.6-2.8 2-6.3 2.5-9.5 3.6l-.7.1c0-.6.2-1.8.2-2.4-.4.8-1.3 2.3-1.7 3.1-.8-1-1.6-2.1-2.3-3.1 0 2.6.3 5.5-2 7.3-1.5 4.6-3.1 9.1-4.3 13.8-1.3 4.4-.9 9.2-3 13.4 0 .7.1 1.4.1 2.1-.3.6-1 1.8-1.3 2.4-.5-.2-1.6-.7-2.1-1 .8 1.1 1.9 2.1 1.4 3.6-1.3 7.9-2.5 15.8-3 23.8-.4.3-1.3 1-1.8 1.3-8.6 1.3-17.2 3.1-25.6 5.4-1.6.5-3 1.5-4.5 2.3l-3.3-.9c-2.2 2-4.8 3.6-7 5.6.1.4.4 1.3.5 1.7l-3.8 4.4c-.8.3-1.6.5-2.4.8-.9 2.9-3.2 4.8-5.6 6.4.3-.9 1-2.8 1.4-3.8-.9 1.1-1.7 2.1-2.5 3.3-2-1.7-4.1-3.3-6.3-4.8h-1.2c-2.4-1.8-5.3-2.6-8-3.7-2-3.5-6.3-3.7-9.8-4.4l-.1-.8c-11.5.5-23 1.9-34.5 1.7.4-3.5-1.9-6.6-3.4-9.6-2.5-5.4-4.7-11.1-8.6-15.7 0-.3.1-1 .1-1.3-2.4-2.8-4.6-6.1-5.2-9.8-.6-.9-1.2-1.7-1.7-2.6.1-.6.2-1.7.3-2.3-2.2-1.6-3.5-4-4.8-6.3-.5 0-1.5 0-2-.1l1.6-.4c-.6-1.5-1.3-3-1.9-4.5-.4.2-1.1.4-1.5.6l-.9-3.3c-.7 0-2.1-.1-2.8-.1 0-.5.1-1.4.1-1.9-4.2 1.3-8.6.1-12.9.6v-1.7c-1.4 0-2.7-.1-4-.1-2.3-1.7-4.8-3.5-5.4-6.5.3-.2 1-.6 1.3-.8-1-1.2-2.1-2.3-3.4-3.3-.5-.9-1-1.9-1.5-2.8.4-1.8.7-3.7 1.2-5.5 1.7-1.6.5-3.8.6-5.8.3-1.4 1-2.8 1.6-4.1 1.2-1.4 2.3-2.9 3.3-4.5.9-.3 1.8-.7 2.8-1 2.2-2.3 5.4-3.2 8.4-1.9.6-.6 1.7-1.8 2.2-2.4.6 1 1.2 1.9 1.9 2.9-.1-.4-.3-1.2-.3-1.7 1.8.3 3.6.4 5.4.1.3.6.8 1.7 1 2.3v-3.5c1.9 1.8 4.1 3.9 6.9 2-.2.6-.7 1.8-.9 2.4.3.2.9.6 1.3.8 1.2 1.9 2.4 3.8 3.7 5.5l-1.5 1.8c.4.3 1.1 1 1.4 1.3.7-.5 1.3-1 2-1.5-.2 2.1-.5 4.2-.9 6.2.4.3 1.2 1 1.6 1.3-.3.9-.6 1.7-.9 2.6 2 2 4.8 3.1 7.6 3.1.5.3 1.6 1 2.2 1.3.4-3-.2-5.9-.9-8.7l1.6-.4c-.3-.1-1-.2-1.3-.3.3-4.2-2.2-7.8-4.7-10.9-2.3.7-5.6 1.1-6.9-1.4-1.2-2.6-3.7-4.2-5.8-6.1.5-.3 1.5-.8 2.1-1.1-.6.1-1.8.2-2.4.3-.1-2.9-.3-5.9-2.3-8.2.4-.3 1.1-1.1 1.5-1.4-.4-.1-1.2-.4-1.5-.6 1-2.7 1.5-5.6 1.5-8.5 2.5-2.5 4.7-5.3 7.3-7.7 3.5-2.6 8.1-2.2 12.1-3.6 6.2.7 11.6 4.8 15.1 9.8 1.4 2.7 1.9 5.8 2.9 8.7-.5.1-1.6.3-2.1.3.7 0 2.2.1 3 .1-1.4 1.2-2 2.6-1.4 4.4-.4.4-1.1 1.3-1.5 1.8.7 1 1.3 2 2 3-.5.2-1.4.7-1.9 1 .2 1.2.3 2.4.3 3.7.5-.8 1-1.6 1.6-2.4 3.6 2 4.1 6.4 6.8 9.3.9.1 2.7.2 3.6.3-.7.4-2 1.3-2.7 1.8 1.9-.5 3.1 1.1 4.2 2.4.3-1.9.7-3.7 1.2-5.6-.7-2.5.8-4.8 1.4-7.2 1-3 .9-6.3.8-9.4.4-.1 1.1-.2 1.4-.2l-1.3-.2c1-4.7 1.1-9.7 2.7-14.2.4-.4 1.2-1.1 1.6-1.5-.4-.1-1.1-.4-1.4-.5.2-.6.5-1.8.6-2.4-2.7.3-.9-1.2-.4-2.1 1.1-1.7.9-3.8 1.3-5.8-.5-.3-1.5-.8-2-1.1.3-.3 1-.8 1.3-1.1-2.5.5-2.5-1.5-2.6-3.3-3-4-5.7-8.3-9.7-11.4 2.7-8.2 9-15.1 13.6-23.1m4.1.5c-1.4 2.4-2.9 4.6-3.9 7.1.4.2 1.1.5 1.4.7h-1.8c-3.1 4.4-5.6 9.2-8.5 13.7 2.3 3.4 5.9 5.8 7.8 9.6 1.2.3 2.4.8 2.9 2 1-.6 2-1.1 3.1-1.7.5 1.9 1.1 3.8 1.8 5.7.4-.5 1.2-1.4 1.6-1.9 2.1 2.4 2.7 5.7 3.9 8.6 3.6 9 7.2 18 10.9 26.9.7 1.5-.1 3.2-.5 4.7-2.4 7.7-4.2 15.5-6.8 23.1-4.5-7.8-8.9-15.7-13.3-23.5 1.3-.1 2.6-.2 3.9-.2.3-.3.9-.8 1.1-1.1-1.7.5-3.4.9-5.1 1.4 1.3-11.8 3.4-23.5 5-35.2l-3.3-.3c-.2 4.1-1.2 8.1-1.7 12.2.3.4 1 1.2 1.4 1.6-.5-.2-1.4-.5-1.9-.7-.1 1.6-.2 3.2-.5 4.8-2.5 15-4.2 30.2-6.7 45.2-4.7-4.4-8.8-9.4-13.2-14.1-1.7-1.6-3-4.5-5.7-3.9.4-.1 1.1-.4 1.5-.6-3-3.3-6.3-6.3-8.9-9.9 1.7-2.7 3.8-5.5 3.9-8.8.7-5.7-3-11.2-7.9-13.7-2.2-.8-5-1.6-7 .2a14 14 0 0 0-1.6-1c-3.7 1.6-6.9 4.1-9.2 7.5-2.4 5.5-1.2 12.8 4 16.4 3 3 7.5 3.3 11.5 2.9 2.6 11.9 5.5 23.8 7.7 35.9-8.9-3.6-17.8-7.1-26.5-11 1.1-4.6.9-9.8-2.3-13.5-2.7-2.8-6.3-5.3-10.4-5-4.4-.2-8.5 2.3-11.3 5.6l2-.2v2.4c-1-.8-2.1-1.2-3.3-1.2.7 1.7 1.5 3.3 2.3 5-.9-1.1-1.8-2.1-2.7-3.2-.3 1.1-.5 2.3-.8 3.4.4.2 1.1.7 1.4 1l-1.5-.1c0 .8.1 2.4.1 3.2.3 0 1 0 1.4.1l-1.1.4c.8 1.9 1.4 4 2.7 5.7 2.1 1.7 4.4 3 6.9 4.1 3.9 1.2 8-.1 11.7-1.4 2.7-.1 3.4 2.9 4.7 4.6 0 .6-.1 1.9-.1 2.5.6 0 1.7-.1 2.3-.1-.2.4-.7 1.1-1 1.5 2.1 2 5 3.3 6 6.2 1.2 3.4 3.5 6 5.4 8.9 3.8 6.7 6.9 13.7 10.7 20.4 1.7 4.5 3.4 9.1 5.4 13.5 2.4 2.1 6.9 2.4 9.1.2-1.3-2.4-4.7-.6-6.9-1.1-2.9-9.4-7.4-18.2-11.6-27.1 5.7 2 11.5 4 17.2 6 2.3.4 2.2 3.6 4.6 3.7l-1.2.4c1.8 5.1 3.3 10.4 5 15.6l-1.6 3.2c5 0 10-.3 15 .1-.1-.5-.4-1.5-.6-1.9-2.8-1.4-6.5-.2-9.6-.5-.9-2.6-.2-7.2-3.5-8 .3-.3 1-.8 1.3-1-4-11.9-8.8-23.4-13.9-34.8 8.2 5.7 15.8 12.1 23.8 18.1 1.1.9 2.6 1.7 2.8 3.3 1.4 6.6 1.7 13.4 2.8 20.1 1 2.5-2.1 2.2-3.5 2 .3.6.8 1.9 1.1 2.6 2-.2 4.2-.6 6.1.4 5 2.9 9.9 6 14.9 9.1 2 1.5 5.1.7 5.2-2.1.9-.6 1.7-1.3 2.3-2.2l3-1.5c1.3-2.9 3.8-5 5.6-7.5 4.8.3 9.2-1.8 13.9-2.1 0-.5-.1-1.6-.1-2.1.3.5.9 1.6 1.2 2.1 1.2-.9 2.4-1.7 3.7-2.5l-3 .4c1.4-2 .8-4.1-.4-6 .7.2 2 .6 2.6.9.9-5.9 1.4-11.8 2.1-17.7 5.8-3.6 11.2-7.9 17.2-11-1.7 7.1-2.9 14.4-4.1 21.6 1.1.1 2.1 0 3.2-.1l-1.6-2.4c3.7-.7 5.7-4.5 5.9-8l1.6.6-2.4-3c0-1.3 0-2.6.1-3.9-.2 2.1.5 3.6 2 4.7-.2-2 .4-3.9 1.8-5.3l-2.1.8c.1-.6.3-1.7.5-2.3-.7-.3-1.3-.5-2-.7 3.4-1.6 1.4-5.5 2.1-8.3.6-.1 1.9-.2 2.5-.3-.6-.3-1.8-.8-2.4-1 1-3.4 4.6-4.9 5.9-8.1-1.1.4-2.1.9-3.1 1.6-.9-.3-1.8-.7-2.7-1-.1-.4-.4-1.3-.5-1.8l-1.2 4.6 1.2 3.6c-2.4.9-3.5 3.5-5.6 4.8-5.2 3.4-10.3 6.8-15.5 10.1 1.3-8.3 3.1-16.5 5.1-24.6 2.4-2.7 5.6-5 9-6.1 3.9-4.8 9.8-7.6 14.5-11.5-2.1 5.7-5 11.2-6.2 17.2.6.5 1.7 1.6 2.3 2.1.2-.7.7-2.1.9-2.9.4.3 1.2.8 1.6 1 .3-1.6 2.8-3.9.3-4.9.4.1 1.3.2 1.8.2 1.3-4.2 2.9-8.4 2.6-12.9l2.9-.3c.3.7.8 2.1 1 2.8 0-.5.1-1.6.2-2.1h6.2c2.8-1.2 5.6-2.6 7.5-5.1 3.8-4.6 3.6-11.5.4-16.3-4.6-6.3-15.1-7.5-20.5-1.6-4.9 4.6-5.3 12.6-1.5 18-7.7 5.6-15.3 11.5-23.1 17-.2-.1-.6-.2-.8-.3-.6-8.6-.4-17.3-1.1-25.9.3-3.4 0-6.8-.1-10.3l4.2-.9v-.1c3.8-1.4 7-4.4 8.4-8.3 1.6-4 .4-8.4-1.5-12.1-2.8-4-7.5-6.1-12.3-6l.2 1.7c-.1-.4-.2-1.2-.3-1.6l-4 .8c.7.3 2.1 1 2.8 1.3-2.9 2-5.4 4.6-6.6 8l-1.4-.4v1.8c-.6-3.7 3.1-6.4 3.7-9.9-2.1 1.4-4.2 3.1-5.4 5.4-3.6 6.3-.8 14.9 5.5 18.2-6 11.7-12.5 23.1-18.8 34.6-2.8-6.9-5.7-13.7-8.4-20.6-.4 0-1.2 0-1.6-.1l1.4-.3c-4.1-10.4-8.5-20.8-12.4-31.3-1.4-3.6-3.9-7-3.4-11.1-.5.3-1.6.9-2.2 1.2.8-2.4 2.3-4.3 4-6.1 0-1.1-.1-2.2-.1-3.3.5-.3 1.4-.9 1.9-1.2.8-2.5 1.5-5 2.2-7.6-1.4-1.5-2.6-3.1-4.2-4.4-1.2-.8-2.7-1.2-3.3-2.7-.6.4-1.3.7-2 1l-2-1.2c0-.3.1-.9.1-1.2 1.5.3 3 .7 4.5.9-2.4-3.3-5-6.7-8.1-9.7m2.9 37.6c.6.5.6.5 0 0m70.6 28.1c-1.3 0-2.7.1-4 .1-1.2 1.1-2.4 2.3-4.1 2.4.7 1.3.9 2.8.7 4.3-2.1 2.9-1.3 7.2.4 10.1-.3.5-.9 1.5-1.1 2 .7-.1 2-.2 2.6-.2-.7 1.1-1.4 2.3-2 3.4.6-.1 1.9-.4 2.5-.5.5.4 1.4 1.3 1.9 1.8l-.4-3.1c3.6-.6 6.5-3.1 7.1-6.8.5.4 1.4 1.3 1.8 1.8-.7-1-1.4-2.1-2.8-2.3.5-1.5.1-3.1-.2-4.6.5-1.5.7-3.1.7-4.7.5-.8 1-1.5 1.5-2.2-.8-.6-1.5-1.2-2.3-1.8.7.2 2.2.5 2.9.7-.2-.7-.6-2.1-.8-2.9-1.9-1.6-3.1 1.5-4.4 2.5M278 246.3c-1.5 2.9 3.4.1 0 0m-84 54c-3 2.1 3.8 2.7 3.5.1-1.1-.4-2.3-.4-3.5-.1zM253.3 190.3c.5.5.5.5 0 0z"/><path class="st2" d="M251.5 235.6c6.5-11.7 12.8-23.5 19.4-35.1 0 6.3 1.4 13-.1 19.2-.8 1-1.6 2-2.3 3 .5.1 1.6.2 2.2.3l1 .2c.2 4.9.5 9.9.4 14.9.1 1.3-.9 2.3-1.6 3.4-3.6 4.4-7.1 8.9-10.5 13.4-3.2 3.9-6.2 8-9.7 11.7-.2-7.9-.3-15.7.1-23.6.1-2.5 0-5.1 1.1-7.4m7.9 9.9c-.5 1.8 1.1 2.6 2.7 2.4 1-1.8-.9-4-2.7-2.4zM194.2 204.2c.6.5.6.5 0 0zM177 211.8c9.2 9.2 17.6 19.2 26.4 28.7 2.6 2.4 3.8 6.6 2.4 9.9 1.8 1.8 3.4 4.1 2.5 6.7 2.3 4 2.7 8.7 3.6 13.2-9.2-6.5-17.8-13.7-26.7-20.6-1.9-4.6-2.3-9.8-3.5-14.7-1.7-7.8-3.2-15.5-4.7-23.2zM236.7 212.8c2.2 2.7 2.8 6.2 4.2 9.3 1.8 5.3 4.5 10.4 5.9 15.8-.1 4 .4 8.4-1.7 12.1-2.2 4.2-4.3 8.3-6.2 12.6-1.2-.6-2.4-1.1-3.6-1.7 0 .4 0 1.2-.1 1.6l1.7-.4 1.2 2c-2 3.7-3.6 7.7-5.9 11.3-6-7.1-12.1-14.2-18-21.3-3.7-3.7-4.9-9.2-5.1-14.2.4-.2 1.1-.4 1.5-.6-.3-1-1.3-2-.8-3.2 1-6.8 2.1-13.5 3-20.3 2 2 3.1 4.5 4.5 6.9 3.7 6.4 7.3 13 11 19.4 3-9.7 5.6-19.5 8.4-29.3m-18.4 32.8c-.9.4-1.7.7-2.6 1.1-.1.5-.1 1.5-.2 2 1.8-.7 3.6-1.4 5.4-2.2-.8-.4-1.7-.7-2.6-.9m0 4.4c.3 3.4 2.8-1.7 0 0m-.2 4c-1.7 2.9 3.4.3 0 0zM138.3 221.2c.6.6.6.6 0 0zM144 241.3c3.4 0-1.4 3 0 0zM155 241.8c8.9 2.7 17.2 7 25.8 10.4 3.6 7.6 7.6 15.1 10.4 23.1-6.6-2.4-13.5-4.4-19.8-7.4-3-5-6.3-9.9-8.8-15.3-3.3-3.1-5.3-7.1-7.6-10.8m13.3 6.4c.5.6.5.6 0 0m3 15c.4.6.4.6 0 0zM256.9 263.7c5-5.7 9.3-12.1 14.6-17.5-2.9 15.2-5.6 30.6-6.3 46.2-4.3.7-8.5 1.5-12.8 2.3-.5-4.4-1.2-8.8-1.8-13.3.1-1.6.2-3.2.4-4.8-2.7-5.2 3.6-8.8 5.9-12.9zM141.2 252.2c.6.5.6.5 0 0zM144.2 252.2c.6.5.6.5 0 0z"/><path class="st2" d="M246.4 255.8c.3 11 .6 22 1.9 33 .1 2.2.3 4.5.4 6.7-1.6 1.7-3.1 3.3-4.5 5.1-2.7 3-5.3 6-8 9-5.4-4-11.5-7.1-16.9-11.2-.8-12.4-3.7-24.4-5.1-36.7L213 259c7.3 6.7 12.9 14.9 19.6 22 .9-.6 1.4-1.6 1.9-2.5 4-7.6 7.5-15.3 11.9-22.7m-26.9 28.7c1.1.5 4.5-1 2.2-2-1.6-1.5-2.9.4-2.2 2m16.7 11.8c.5.5.5.5 0 0z"/></g></svg>