<svg xmlns="http://www.w3.org/2000/svg" xml:space="preserve" style="enable-background:new 0 0 512 285.7" viewBox="0 0 512 285.7"><style>.st1{fill:#010000}.st9{fill:#dfdfdf}.st15{fill:#e0e0e0}.st16{fill:#d2d2d2}.st18{fill:#e6e6e6}.st24{fill:#cbcbcb}.st25{fill:#c5c5c5}.st30{fill:#d5d5d5}.st40{fill:#eaeaea}</style><g id="Layer_1"><path d="M483.5 133.7h13.3c4.5.5 9.3 2.4 11.8 6.4 4.3 6.8 3 15 3.2 22.6.1 7.6.7 16-4.9 22-2.8-1-2.8 3 0 2.7 3.3 2 4.6 5.8 5.1 9.5v13.8c-2 .8-1.9 4 0 4.8v10c-.4 4.8-2.4 9.4-5.6 13.1-7 4.3-15.5 3.2-23.4 3.1-2.2 0-4.2-.8-6-2.1-5.4-.7-8-6.2-9-11-1.2-7.8 0-15.7-.2-23.6h17.1c.5 5.5-.5 11.1.4 16.6.6 2.3 3.4 1.8 5.1 2.2 1.5-.6 3.3-1.4 3.1-3.3.3-6.3 0-12.6.1-19-.2-1.7.4-4.2-1.7-5-5.1-.8-10.4-.1-15.6-.3v-18.4c5.1-.4 10.3 0 15.4-.6 2.5-2 1.6-5.6 1.9-8.5-.3-5.5.7-11.3-1-16.7-2.4.3-6.2-1.1-7 2-.7 4.8-.2 9.7-.3 14.5-5.8-.7-11.6-.4-17.4-.4-.3-7.8-.7-15.8 1-23.5 1-2.7 2.1-5.6 4.6-7.2 3.2-1.6 6.6-2.8 10-3.7zm-397.2 2.5c5-1.7 10.5-1.3 15.8-1.3 3.8 0 8.2-.1 11.4 2.4 2.9 2.6 4.1 6.5 4.7 10.2v23.9c-5-.4-9.9-.5-14.8.4l-2.1-.1v-14.5c.7-2.5-1.4-7.3-4.1-4.4-1.7 5.1-1 10.6-.6 15.8 0 1.6 1.2 2.8 2.1 3.9l4 2.8 2.3 1.6c5.9 4 12.4 9 13.1 16.6.3 11 .5 22 0 33.1-.1 4.2-1.8 8.5-4.8 11.4-4 2.7-8.9 2.2-13.3 2.4-5.8-.1-12.5.7-17.2-3.5-3.2-4.7-3.2-10.7-3.2-16.2 0-5.3-.3-10.6.4-16-.8-2.5-.7-5.1-.5-7.8h14.9v-.7l2 1.5v3.8c.4 6.9-.9 13.9.8 20.5l1.5 1.3c1.6-.4 2.7-2 2.5-3.6.2-6.2 0-12.3 0-18.4-.1-1.5 0-3.4-1.3-4.5-5.2-5-11.8-8.2-17-13.2-3.4-5-3.3-11.1-3.3-16.9.1-6.6-.3-13.3.3-20 .3-4.2 2.3-8.8 6.4-10.5zm188.8-.7h33.6c.3 5.6.2 11.3 0 17h-.5c-2.6-.2-5.2-.2-7.8 0v5.8c0 27.4.2 54.9-.1 82.3h-.5c-5.4-.8-10.8-.3-16.2-.5v-87.8H275c0-3.6 0-7.1-.2-10.7l.2-6.1h.1zm-274.6 0h23.6c3.5.3 7.5.4 10.4 2.7 2.5 1.8 3.2 5 4.3 7.7.3 11 .9 22-.4 33-.3 4-2.6 7.4-6 9.5 1.6 1.5 3.2 3 4.5 4.7l1.5 3.4c1.1 8.7.6 17.5.7 26.2 0 5.9.2 11.7-.2 17.6-4.5-.3-9-.1-13.4.2l-3-.1c0-10-.1-19.8 0-29.7 0-2.7-.3-5.3-1-8-.3-2.2-2-3.8-3.8-5-1.2 14 .2 28.3-.5 42.4h-.4c-5.4-.4-10.9-.2-16.3.5-.2-5.9.4-11.6-.5-17.4v-2.4l1.5-2.3c-.5-1.8-1-3.8-1-5.8v-77.2m16.9 44c1.5-.3 3-.3 4.3-1.2l-.2-.5c2.1-7 .2-14.6 1-21.9v.2c.4-3-2.8-3.7-5-4-.4 9.2-.2 18.3-.1 27.4zm29.7-43.8c8.8-.6 17.5 0 26.3-.3l-.1.6c-.5 5.4.4 10.8.1 16.1h-9.2c-.8 7.2 0 14.4-.6 21.6l.6.1c2.9 1 6-.2 9 .2v5.7c.2 3.7.2 7.5.2 11.3H64c-.4 10.5-.2 21.1 0 31.7l2 .1c2.5.2 4.9.2 7.3.2v5c-.2 4 .5 8-.3 11.9-7.7.8-15.5-.3-23.2.5l-2.8.2v-105l.1.1zm78.7-.1c5.6 0 11.3-.6 17 0l-.1 5.6c.1 32.8-.2 65.7.1 98.5h-.9c-5.4.7-10.8-.3-16.1.8v-86.8c1-6-.6-12 0-18.1zm25.3-.1c8.3 0 16.6-.2 25 .1 3.2.3 7 .2 9.4 2.7 3.6 3.7 4.2 9.2 4.5 14.2 0 21.7.2 43.5 0 65.2-.3 5.8.4 12.2-2.7 17.4-1.7 2.8-5 4.3-8.2 4.5-8.9.8-17.7.2-26.5.9h-1.4c-.2-9.6 0-19.2 0-28.8-.1-1.8.3-3.4.8-5-1.6-5.5-.6-11.3-.9-17 .3-9.1-.5-18.4.4-27.5-1-8.9-.1-17.8-.4-26.7m17 17.1v66c0 1.7-.3 3.5.8 5 1-.8 3.3-.7 3.6-2.3.8-5.5.2-11 .3-16.6 0-15.4-.2-30.8 0-46.2 0-1.6.2-3.4-.5-5-1-1.3-2.8-.8-4.2-.9zm29.9-17.1c5 0 10-.4 15 0 3.7.7 7.4-.5 11.2 0-.1 5.5.3 11 0 16.6h-9.1c-.5 7.3-.5 14.7.1 22 2.8.4 5.9-.4 8.5.8 1 5.3.5 10.7.6 16h-9.4c-.3 10.5-.1 20.9-.1 31.3l.5.2c2.9.9 6 .2 9 .5V240c-8.5.3-17 0-25.5.2h-.9c-.4-9.2.7-18.3 0-27.5l.1-77.2zm33.5 0H248c2.3 17.2 5 34.2 7.5 51.3.8-13 0-26 .4-39.1.4-4-.5-8.1.2-12.1 4.7-.4 9.5 0 14.3-.1l-.1 104.8c-5.8-.3-11.5 0-17.2-.3-2.2-15.3-4.3-30.6-7-45.8l-.5-2.3c.3 6.2.2 12.4 0 18.6-.4 9.9.3 19.8 0 29.7h-14c-.3-8.2.1-16.4-.2-24.6-.2-3 1.1-6 .4-9-.6-5-.5-10-.4-15v-56l.1-.1zm91 0h26.3c0 5.7.2 11.4 0 17h-1l-2.7-.2c-1.9-.3-3.9-.4-5.8-.2.1 7-.1 14.1.2 21.2 2.5 1.4 6.3.3 9.3.6-.1 5.8.3 11.5-.3 17.2-3 0-6 0-9.1-.2-.3 4.6-.3 9.2-.4 13.8l-.1 1.2c1 5.5.2 11.1.5 16.7 3.1.3 6.3.3 9.4.2 0 6 .2 11.9-.2 17.8h-.9c-8.4-1.5-16.9.1-25.4-.6.7-5.4.3-10.9.4-16.3-.1-18.7.3-37.5-.3-56.2-.1-3.6 2-7.3.3-10.7-1.2-7-.2-14.2-.2-21.3zm29.8 0c5.3 0 10.6-.3 15.9.1l3 57.3.3 8.4h.8c.4-13.9 1.4-27.7 2.2-41.5.8-1.7.8-3.5.2-5.1 0-6.3 1.6-12.5 1-18.8v-.5c5.3.2 10.6 0 16 0l-11.3 105.1h-1c-6-.5-11.9-.3-17.8-.4l-5-56.4c.3-6-1.4-12-1.7-18l-2.2-23.8c-.3-2.1-.4-4.3-.4-6.4zm44.1 0h16.9c0 35 .1 70-.1 105.1l-2-.1c-4.9-.4-9.8-.3-14.8-.4 0-9.2-.5-18.3.5-27.4 0-2.7-.6-5.3-.6-8v-63.2l.1-6zm25.3 0h16.8c.2 29 0 58 .1 87.2 3.4-.2 6.8-.1 10.2.2 0 5.8.3 11.7-.1 17.5h-2c-8.3-.9-16.7.2-25-.3V135.5z" style="fill:#e01414"/><path d="M73.3 136c.7 2 .4 4.3 1 6.4l1.5-.5v16.3h-9.3c.2 5.2-.6 10.4.2 15.6h-3.1c.7-7.3-.2-14.5.6-21.7h9.2c.3-5.3-.6-10.7-.1-16.1zm150.9-.5c1.1 4.6.1 9.4.5 14.1-.2 2.8.6 6-.4 8.5-3 .3-6 0-8.8.1-.2 5.3 0 10.5 0 15.7 3 0 6-.2 9 0 .4 7.5 0 15 .2 22.5h-9.1c-.5 8.6 0 17.3-.3 26l-.5-.2c0-10.4-.2-20.8.1-31.2h9.4c-.1-5.4.3-10.8-.6-16.1-2.6-1.2-5.7-.4-8.5-.9-.6-7.3-.6-14.5-.1-21.8h9.2c.2-5.6-.3-11.2-.1-16.7zm126.8 6 1.7.5 2.2 23.7c.3 6 2 12 1.7 18l5 56.4c5.9.1 11.8 0 17.7.3l-.4 5c-6.2-.5-12.5-.3-18.7-.5-1.6-18.7-3.5-37.4-5-56.1.5-5.2-1.3-10.1-1.5-15.2-.7-10.7-2.1-21.3-2.6-32l-.1-.1zm68.4.5 2.3-.3v98.4c8.3.5 16.7-.6 25 .2l-.5 5.2c-8.8-1.8-17.9.5-26.8-.8.2-34.3.1-68.5 0-102.7zm45.8 32.3c-.3-10-1.7-20.8 3.6-29.7-1.6 7.7-1.2 15.7-.9 23.5l.1.4h14.2v5.8h-17zM38.8 145.9c3.6 4.9 3 11.2 3 16.8-.1 7.6.6 15.4-.8 22.9-.4 3-2 5.4-4.1 7.5-1.4-1.7-2.9-3.2-4.5-4.6 3.4-2.2 5.7-5.7 6-9.7 1.3-10.9.7-22 .4-32.9zm79.4 1.6c.6 1.6 1.5 3.3 1.5 5.2.6 8.1.4 16.3.4 24.5-3.4 0-6.8-.7-10.2-.2-1.6 0-3.4 1-4.9 0l-2.3-1.7.7-3.5c5-.9 9.9-.8 14.8-.4v-24 .1zm-100.8 32c0-9.1-.3-18.2.2-27.4 2.1.3 5.3 1 4.8 4l-1.8 3.6-.3 13c0 1.8-.2 3.8 1.2 5.1l.2.5c-1.3.9-2.8.9-4.3 1.2zm150.7-26.9c1.4.1 3.2-.4 4.2 1 .7 1.5.4 3.3.5 5l-3.6.1c-.5 21.6 0 43.2-.3 64.8-1.1-1.4-.7-3.2-.8-4.8v-66.1zm132.3-.1c2.6-.2 5.2-.2 7.8 0l-.1 6c-2.6-.2-5.1-.3-7.7-.2v-5.8zm39.8.5c1.5-.8 3.3-.6 5-.7l2.5.2v6c-2.6-.1-5-.2-7.6-.1-.1-1.8-.8-3.8.1-5.4zM73.3 179.7l2.3.3c0 5.5.3 11 .2 16.5h-9.2c-.5 8.7.4 17.6-.4 26.3l-2.2-.1c-.2-10.6-.4-21.2 0-31.8h9.3c0-3.7 0-7.5-.2-11.2h.2zm400.3 4 2.6-.6v13.2c5.3.2 10.6-.5 15.7.3 2.1.8 1.5 3.3 1.7 5 0 6.4.2 12.7 0 19 .1 2-1.7 2.7-3.2 3.3 0-6 .2-12.1 0-18.2 0-1.3 0-3.3-1.7-3.7-5-.9-10.2 0-15.3-.2 0-6-.4-12.1.2-18.1zm-134.2 7.2c3 .1 6 .3 9.1.2-1.3 1.5-.9 3.6-1 5.4-2.4.6-5-.1-7.4-.5-.7 2.9.1 6-1 8.7 0-4.6 0-9.2.3-13.8zm-301 5.6c2 3 3.3 6.6 3.4 10.4.3 12.7 0 25.4.1 38-5.4 0-10.9.4-16.3.5v-5c4.4-.2 8.8-.4 13.3-.1.4-5.9.2-11.7.2-17.6 0-8.7.4-17.5-.7-26.2zm207.3 14c-.1 11.5.2 23 0 34.6-4.6-.2-9.2 0-13.8-.2l-.3-4.8h14c.3-9.8-.4-19.7 0-29.6h.1zm240.1 48c2-.4 4.7-1.3 5.5 1.4 6.6.2 13.2.1 19.8.1l-.1 3.5c-3.8 0-7.5 0-11.3.2-4.8-.9-10.5-1.1-14-5.2h.1zM464 265l.8-1.9c6.3 4.5 14.4 5.2 21.8 6.8-4 1-8.2.8-12.3.8-3.7-1.2-8-2.2-10.3-5.7z"/><path d="M374.3 143c1.1-2.2.5-4.8 1.4-7 .6 6.2-1 12.4-1 18.7-1.4 1.4-1.4 3.5-.2 5-.8 13.9-1.8 27.7-2.2 41.6h-.8l-.2-8.4c1.2-16.6 1.6-33.3 3-50v.1zm-231.5 96.7c-.3-32.8 0-65.7-.1-98.5l1.4 1.3c.2 34.1.2 68.3 0 102.5-5.5 0-11-.2-16.5.3l-.4-4.5c5.2-.7 10.5-.4 15.7 0l-2-.9 1-.1.9-.1zm131 20.5h.5c4.8.7 9.6.1 14.4.5l-.8 1.5c-2.8.2-5.7.2-8.5.1h-5.6v-2.1z" class="st1"/><path d="M274.7 158.3c.2-5.5-.2-11.1.3-16.7 0 3.6.2 7.1 0 10.7h8.6v87.8c5.4.2 10.8-.3 16.2.5v4.8c-5.5-.8-11-.1-16.6-.5v-86.5h-8.5v-.1zm119.9-16.2 1.8-.6v63.2c0 2.7.5 5.3.5 8-1 9-.5 18.3-.5 27.4 5 .1 10 0 14.8.4v5c-5.5-.3-11-.6-16.6-.5 0-9.5-.6-19 .6-28.3-.3-2-.8-4-.7-6v-68.6h.1zm91 11.9c.8-3.1 4.6-1.7 7-2 1.7 5.4.7 11.2 1 16.7-.3 2.9.6 6.4-1.9 8.5l-1.1-1c-.6-6 .6-12.3-1-18.2l-3.5.4-.5-4.4zM190 152.5c1.1 4.3.8 8.8.9 13.2v59c-.2 5.3.2 11.2-3 15.8-2 2.9-5.7 4-9 4.1-8.8.7-17.6 0-26.4.8v-5c8.9-.6 17.7 0 26.6-.8 3.2-.2 6.5-1.7 8.2-4.5 3.1-5.2 2.4-11.6 2.8-17.4v-65.2h-.1zm-71.9 41c1.3 2.2 1.8 4.7 1.8 7.2.4 11.3.6 22.7-.3 34-1 4.3-3.6 9.3-8.5 9.8-6.7 1-13.5 1-20.2.1-4.1-.4-7.1-3.8-8-7.7 4.6 4.2 11.3 3.4 17 3.5 4.5-.2 9.5.3 13.3-2.4 3.1-3 4.8-7.2 5-11.4.4-11 .2-22-.1-33.1zm128 4.2v-3.5c2.8 15.2 4.8 30.5 7 45.8 5.7.3 11.4 0 17.2.3l-.2 4.8c-5.6-.3-11.3.1-17-.3-2.2-15.7-4.6-31.4-7-47v-.1zm221.5 7.4h.2c.1 7.9-1 15.8.3 23.6.9 4.8 3.5 10.3 9 11 1.7 1.4 3.8 2.1 6 2.1 7.8 0 16.3 1.2 23.3-3-1.3 2-2.6 4.2-4.8 5.5-5 3-11 2.2-16.6 2.4-3.6-.2-7.9.6-10.7-2.2-6.2-.7-8.7-7.5-9.3-12.8-.5-7-.3-14-.2-21l2-.3.8-5.3zM73.3 227.9h2.4c0 5.8.2 11.5 0 17.1-8.7 0-17.3-.2-26 .4l.1-5c7.8-.8 15.6.3 23.3-.5.8-4 0-8 .2-12zm151 12.1v-12.7c.8 5.8.1 11.6.4 17.4-8.6.7-17.3.1-26 .3v-4.8c8.6-.1 17 .1 25.6-.2zm97.7 0h.3c8.5.7 17-.9 25.4.5l-.4 5c-3.4-.2-6.8-1-10.3-1-5 .8-10.3.5-15.4.5l.4-5zm-204.7 11.2c2.4 1.6.7 5.5 1.2 8l-1.8 1.7 1.8 2.3v6.8c-1.5 1.3-1.6 2.5-.1 3.8l.1 7.4-1.5 1.3v3.2H84.3v-3.8c5 0 10 .3 15-.2-1.2-.7-2.5-1.2-3.8-1.7l2-.8c1.4 1.1 2.3 3.3 4.5 2.2.6-1.6 1.3-1.4 1.7.6l13.7-.1v-8.6c-4.7 0-9.3-.3-14 0V271h14v-8.7c-4.7 0-9.3-.3-14 .2V260h14l-.1-8.8zm99.5.1c.2 11.4.4 23-.2 34.4h-19c-.3-4 0-8-.7-12-1.8 4-3.3 8-5 12h-13.6c-1.7-4.1-3-8.3-5.1-12.3-.3 4.1-.5 8.2-1.3 12.3h-18.7v-3.8h19.1v-14.4c2.2 4.7 4.1 9.5 5.8 14.4h14c1.5-3.5 3-7 4.3-10.5l1.3-1.7c0 3.4.1 6.9-.1 10.3l.7 1.4c3.8 1.3 8 .2 12 .5h6.4v-11.4c0-6.4-.2-12.8 0-19.2h.1zM21.7 276l1-2.2c2 2.8 3.9 5.6 6.1 8.2 6.3-.2 12.5 0 18.7-.1h.3c-.2 1.2-.2 2.5-.3 3.8H28.7c-2.4-3.2-4.8-6.4-7-9.7zm395.2 5.8c2-2.7 5.2-4.1 8.4-5.2v.3c-3.2.9-6 2.5-8.3 5h8.3v3.8h-18.9c0-1.2-.2-2.3-.3-3.5l1.7-.2c3 0 6 0 9.1-.2zm-94.1-4 1 .9c5.8 4.8 13.7 2.9 20.5 3.2 8.6-.4 18.3 1.9 25.8-3.4 0 1.4.3 3.2-1 4.1-3 2.2-7 2.5-10.4 3.1h-25.4c-4.5-.5-10.9-2-10.5-7.9zM507 281c1.8-.7 3.5-1.8 5-3.2v3.7c-3 3-7.4 3.5-11.4 4.2h-26.2c-3.9-.6-8.3-1.8-10-5.9l2.5.4c6 2.4 12.7 1.7 19 1.7 7 0 14.2.5 21-.8l.1-.1zM0 282h6l13.1-.1 2.2-.2-2.3.6.1 3.4H0V282zm254.8-.1h33v3.8h-33v-3.8zm66.7-140.2c1 5-1 10.3 1.2 15 1.8 3.5-.4 7.2-.3 10.8-1-8.5-1.5-17.3-.9-25.9v.1zM17.2 240.1c.7-14.2-.7-28.3.5-42.4 1.8 1.2 3.5 2.8 3.8 5-1.3 2.5-1.1 5.3-1.2 8 0 11.4.4 22.8.1 34.3-5.4-.2-11 .3-16.4.4l-.7-4.7c4.5-.5 9 .1 13.5-.6h.4z"/><path d="m96.5 201.5 1.4 1.2c-.5 6.4.4 13-.7 19.3-1.7-6.6-.4-13.6-.7-20.5z"/><path d="M97.2 152.8c2.7-3 4.8 2 4.1 4.4-4.7 3.5-2.9 10.3-2.6 15.3-1-1.1-2-2.3-2.1-3.9-.4-5.2-1-10.6.6-15.8zm.8 49.9.5.5c.2 6.7-.2 13.4.2 20.1l-1.5-1.3c1.1-6.4.2-12.9.7-19.3h.1z" class="st1"/><path d="M374.5 159.7c-1.2-1.5-1.2-3.6.2-5 .6 1.6.6 3.4-.2 5z" style="fill:#5b0808"/><path d="M321.4 168.5c1 1.6.6 3.5.7 5.2-.1 22 .2 44.2-.1 66.3l-.4 5c-.8-5.8-.6-11.5-.6-17.3v-49c0-3.4-.1-6.8.4-10.2z" style="opacity:.5;enable-background:new"/><path d="M82.9 183.7c5.1 4.8 11.8 8 17 13 1.3 1.1 1.2 3 1.4 4.5-2.4-1.6-4.7-3.3-7-5.1-4.5-3.1-10.5-6.4-11.3-12.5l-.1.1zm239 80.2c-.8-3.3-1.9-7.6.9-10.2-1.1 2.3-2.2 5.3-.6 7.7 2 3.5 6.3 4.5 9.8 5.6 5.2 1.4 10.5 2.5 15.9 3.3v2.8l-1 .8c-2.2 1.4-1.8-1.6-2.3-3h-12.1c-3.9-1.7-9-2.6-10.6-7zm22.8-4.4c.7-3 4.3-1.4 5.4.5h19.4v3.4c-4 0-7.9 0-11.8.2l-1.6-.2c-2.8-.4-5.6-1-8.4-1.8l-3-2.1z"/><path d="M506.8 187.4c-2.7.2-2.7-3.6.1-2.7v2.7h-.1z" style="opacity:.8;fill:#340404;enable-background:new"/><path d="M512 215.6c-1.9-.9-2-4 0-4.8v4.8z" style="opacity:.6;fill:#860b0b;enable-background:new"/><path d="M21.9 251.2c2.7-.4 4.1 2.3 5.4 4.3 1 1 .7 2.3.5 3.6-1.2-1.4-2.4-2.9-3.5-4.4l-2.4-3.5z" style="opacity:.8;fill:#353535;enable-background:new"/><path d="M153.3 251.4c4.2-.4 8.4 0 12.7-.1 4.8.2 9.7-.7 14.6 0 1.5 3.5 3.2 7 4.9 10.4l-.6 1-3-7.1-1.9-4.2h-26.7zm308 5.3c1-4.3 6-5.8 10-6.1-3.3 1-7.4 2.3-8 6.2-.6 2.2.5 4.4 1.5 6.3l-.7 1.9c-1.6-2.5-3.7-5.1-2.8-8.2v-.1zm-413.8-5.3 2.2.1v30l-2 .4h-.2v-30.5zm357.3.7 1.3-.9c.3 10.3.3 20.7 0 31-2-1.3-1.3-3.6-1.4-5.5.2-8.2-.2-16.4 0-24.6h.1z" style="fill:#282828"/><path d="M322.8 253.7c2.9-2.3 6.6-3.3 10.2-3.3h15.6c-.7.8-1.4 1.5-2.3 2.1l-2.5 1.6c-3.5-.5-7-.6-10.6-.3l2.4 4.8-7.4 2.3 4.4 3.9-.6 2.2c-3.6-1.1-7.8-2-9.8-5.6-1.6-2.4-.5-5.4.6-7.7zM157 262.3c3-1.1 6.5-1.6 9.2-3.6 1.2 1.4 5.2 2.1 4.1 4.4-4.4.4-9-.4-13.3-.8z" style="fill:#d9d9d9"/><path d="M348.6 250.4h7.5l-2.6 2.5c3.3.3 6.5.3 9.7.6-1.3 1.5-2.7 3-4.1 4.4l.8 2.1h-9.8c-1.1-2-4.7-3.5-5.4-.5l3 2-3.3 1.1-1.6.9-1.6-.8 1.6-3.2-4 2-1.1-1.2-2.3 1.4.2-3.1-2.4-4.8c3.5-.3 7-.2 10.6.3l2.6-1.6c.8-.6 1.6-1.3 2.2-2.1z" class="st9"/><path d="M356.1 250.4c4.5-.2 9.6.3 12.8 3.9-2.5 1.4-4.6 3.4-6.3 5.7H360l-.8-2.1c1.4-1.4 2.8-2.9 4.1-4.4-3.2-.3-6.4-.3-9.7-.6l2.6-2.5h-.1z" style="fill:#cacac9"/><path d="M471.2 250.6c8.6-.5 17.2 0 25.8-.2 4.2 0 9.2-.3 12.5 3 1.9 1.6 1.5 4.3 1.6 6.6h-19.8c-.8-2.8-3.6-2-5.5-1.5 3.4 4 9 4.3 14 5.2 4.1.9 8.7 1.4 12.2 4.2v8.8c-2.2 0-4.5 0-6.6.4-.3 1.6.9 2.7 1.6 4-7 1.3-14 .7-21 .8-6.4 0-13 .7-19.1-1.7-2.5-2.5-2.6-6-2.4-9.2 7.1.1 14.3-.2 21.5 0 .5 2 1 4.3 3.5 3.6v-4.4l-3-.3c-7.3-1.6-15.4-2.3-21.7-6.8-1-2-2-4-1.4-6.3.5-3.8 4.6-5.3 7.8-6.2m-3.1 4.2c-.3 1.4.2 2.5 1.2 3.4 0 2 .2 4.2.5 6.2 1.7-1.4 3.6-3.2 5.7-1.3.3 1.2.8 2.2 1.6 3 .4-1.3.5-2.7.5-4.1l5.5.3c.2-2.3-2.3-2.5-3.8-3.3l.4-2.4c-2.7-.6-5.3.2-8 .5-1.3-.6-2.4-1.5-3.6-2.3m-3 3.1c-1 1.4 1.5 2.8 2.5 1.7.8-1.4-1.6-2.7-2.5-1.7m26.2 10v2.5c1.7-1 3.4-2.6 5.6-2.2 3.8.5 7.8.1 11.5 1.3-.4-2-2.4-2.3-4-2.4-4.4-.4-9-1-13.1.8zm-385.6-16.6 11.6-.1v8.8h-14c-.1-2.7 2.8-3.1 4.8-4l-7.1-.8c2.4-1.6 5.3-1.7 8-1.8l-3.3-2v-.1z" style="fill:#e2e2e2"/><path d="M0 251.3h13l-2.1 2.2 3.5.6c-4 3.3-9.6 1.9-14.4 2.7v-5.5z" style="fill:#d8d8d8"/><path d="M13 251.3h9l2.4 3.4c-2.2 1.6-4.3 3.3-6.2 5.2-1.8 1.7-4.4 2.6-5.6 5 3.4-1.2 6.3-3.2 9.2-5.2-.2 1.4-.4 2.9-.6 4.3 2.3 0 4-4 6-2.5-1.6 2.1-4 3.5-6.1 5l3 .5c2.8-2.4 5.8-4.6 8.3-7.3 5.2-.1 10.1-1.8 15.2-2.4v3.3l-2.6.7c-.9 2.4-2.3 4.6-4.4 6.1l1.5 2.4-1 1c-1 .9-2 1.6-3 2.3-.5 2.3-.2 4.8.4 7h4c1.6-1.1 3.4-2.1 5.1-3v4.8l-18.7.1c-2.2-2.6-4.2-5.4-6.1-8.2l-2.8-3.1c4.4-.6 9 .1 13.2-1.6 1.2-1.1.5-3 .8-4.5l-2.4 4c-4.3-.3-8.5 0-12.8.3l.6-3.2-2 2-2.3-1.3-3.7 1.3-.1-2.4-2.7.1c-.6-1.2-1.6-1.6-2.8-1.4 2 4.8 7.5 6 12.2 6v3.3l-6.9-.4 2 2c-3.9 1-7.9.5-11.8.4.1-1.8-.6-3.4-1.4-5v-1l4.6 2c1.3-.8 2.6-1.8 3.7-3-2.8 0-5.6 0-8.3-.5v-11c4.8-.7 10.3.7 14.4-2.6l-3.5-.6 2.2-2.2v-.1z" style="fill:#e5e5e5"/><path d="M28.6 251.2c6.3.1 12.6 0 19 .2v4.5c-4.7 1.5-9.2-2.1-13.7-.3l-3.3 1.5 4.3 1.2-4 .9 1.4.5c-2.5 2.7-5.5 5-8.4 7.3l-3-.5c2.3-1.5 4.6-2.9 6.2-5-2-1.5-3.7 2.5-6 2.5l.6-4.3c-3 2-5.8 4-9.2 5.2 1.2-2.4 3.8-3.3 5.6-5 2-1.9 4-3.7 6.2-5.2l3.5 4.4.5.6c.1-2.8.3-5.6.3-8.5z" style="fill:#dadada"/><path d="M84.1 251.3h16.3c-.7 2.6-2 4.9-4 6.7-1.6.3-3 .8-4.6 1.4l2 2.4c-3-.3-6.4-1.6-9.2.3 3.3.8 6.4 1.9 9.3 3.6l-1.6 3.2 3-.7c-1 1.6-2.2 3-3.9 4v-3l-4.9-.2c2.2 2 5 4 8.2 3.4 2.6 1.5 3.5 4 2.8 6.9l-2.1.7c1.3.5 2.6 1 3.9 1.7-5 .4-10.1.2-15.1.2v-30.6m1.8 25.4 3-1.9c1.7 1.7 3 3.7 2.4 6.2 2-.8 3.8-2 4.5-4.1-2-3.3-6.4-2.8-9-5.2-2.1 1-2.1 3.3-.9 5zm99.5-15c1.8-3.4 3.4-7 5.1-10.5l19.3.1-.7 2.4 1.6 3-4.6.6-2.5 2.8-4.3.2-1-1.1-2.3 1.7-.5-4.5-2.2 3.5c-2 1.4-4.3 2.3-6.7 2.8l3.3 1.5 3 1-2.7 1-.2 1.8 3.3.5-4.5 7.8h2.4c.8-2.4 2.3-4.6 5.1-4.9l-4.3 10.5h-14c-1.3-3.7-2.7-7.3-4.2-11l1.4-1.8 2 1.8c1.4-.7 3-1.5 4.1-2.7l-3 .2c1.2-1.9 2.1-3.9 2.7-6-2 .8-2.6 2.8-3.4 4.5-3.1-.5-4.2-3.8-5.8-6 2.6-.6 5.3-.5 8-.8 0-.2 0-.8.2-1-3.3-.6-6.6.6-9.8-.1 3.2-3 8-.7 11.5-3.4l3.1 7.2.6-1v-.1z" class="st15"/><path d="M103.3 262.5c4.7-.5 9.3-.2 14-.2v8.7h-14v2.4l-1.3.8-5.1-2c.7-1.5 1.6-2.8 2.7-4.1l-2.6-1.4c1.6-.4 3.3-.6 5-.7l.7-.7-2.8-1c1.1-.7 2.3-1.3 3.4-1.8m.8 2.5 5 1.5c1.5-1 3.1-1.8 4.8-2.5-3.3.2-6.7-.6-9.8 1z" class="st15"/><path d="M100.4 251.3h5.3l3.4 2.1c-2.8.1-5.7.2-8.1 1.8l7 .8c-2 .9-4.8 1.3-4.7 4v2.5l-3.4 1.7 2.8 1.1-.7.7c-1.7 0-3.4.3-5 .7l2.6 1.4c-1 1.3-2 2.6-2.7 4.1l-2.2.2c-3.2.7-6-1.3-8.2-3.4l4.9.2v3c1.7-1 2.9-2.4 4-4l-3.1.7 1.5-3.2c-2.8-1.7-6-2.8-9.2-3.6 2.8-1.9 6.2-.6 9.3-.3l-2.1-2.4c1.5-.6 3-1 4.6-1.4 2-1.8 3.3-4 4-6.7zm390.9 16.6c4.1-1.8 8.7-1.2 13-.8 1.6.1 3.7.5 4 2.4-3.6-1.2-7.6-.8-11.4-1.3-2.2-.4-4 1.2-5.7 2.2v-2.5h.1z" class="st16"/><path d="M153.3 251.4h9c-2 .9-3.8 2-5.7 2.9-1.3.8-3.8 1.2-2.6 3.3 1.9 1 4 1.3 6 2-2 .4-4.1.6-6.2.4-.3 7.3-.3 14.7 0 22h-.7c.1-10.3-.3-20.5.2-30.6z" style="opacity:.9;fill:#c5c5c5;enable-background:new"/><path d="M162.3 251.3h8.2l3.9 2.6c-3.6 2.4-7.8 1-11.7 1.4-2.1.3-4.2-.3-6-1l5.6-3z" class="st9"/><path d="M170.5 251.3c3.2.1 6.4.3 9.5.1l1.8 4.2c-3.5 2.7-8.3.4-11.5 3.4 3.2.8 6.5-.5 9.8 0l-.3 1.2c-2.6.2-5.3.1-7.9.6 1.6 2.3 2.7 5.6 5.8 6.1.8-1.7 1.5-3.7 3.4-4.5-.6 2.1-1.5 4.1-2.7 6l3-.2c-1.2 1.2-2.7 2-4.2 2.8l-1.8-1.9-1.5 1.9-1.6-3.5v9.2c-2.4-.7-4.7-1.7-7.2-1.8-1.6.3-3 1.4-4.5 2.1 4 .7 8.2.8 11.7 3v2h-18.5c-.3-7.3-.3-14.7 0-22 2.1.2 4.2 0 6.2-.5-2-.6-4.1-1-6-1.9-1.2-2 1.3-2.5 2.6-3.3 2 .7 4 1.3 6 1 4-.3 8.3 1 11.8-1.4l-3.9-2.6m-13.5 11c4.4.4 9 1.2 13.3.8 1.1-2.3-2.9-3-4.1-4.4-2.7 2-6.1 2.5-9.2 3.6z" class="st18"/><path d="M209.9 251.3h6.9c-.3 6.4 0 12.8-.1 19.2-1.8 0-3.5.4-5.2.7l2.2 1.9-3 1.3-.5 1.8-2.3 1.4 2.4 4.3c-4-.3-8.2.8-12-.5l-.7-1.4 2.5.2 2-1c1.7 0 3.3-.5 4.8-1.3l-1.9-2.2.2-1.7 1.7 1.7.7-2.6c1.9-2 3.7-4.2 5.3-6.5l-1-1.4c-3.5.6-7.1.9-10.7 1l-.5.2c-1.5 1.6-3 3.3-4.3 5.1-2.8.3-4.3 2.5-5 5h-2.5c1.4-2.7 3-5.3 4.5-8-1.1 0-2.2-.3-3.3-.4l.2-1.8 2.6-1-3-1c2.3-.8 4.3-2 6.2-3.3l2.4-1.7 1 1.1 4.2-.2 2.6-2.8 4.5-.6-1.6-3 .7-2.4v-.1zM5.8 277.7c4.4-.3 8.9-1.1 13.3-.3v4.5h-13c-.8-.8-1.6-1.7-2.4-2.5l2.1-1.7z" style="fill:#e7e7e7"/><path d="M254.8 251.3h25.6l-2.6 3.6c.5 1.6.6 3.3.2 5-1.2 0-2.5.1-3.7.3h-.5v2l5.6.1-2.6 4.4 2.4.7c2-1.5 4.2-2.5 6.5-3.2l-1.9-1.9 4-.1v8.9c-4.8-.2-9.6-.1-14.3 0l.6 2c4.5.3 9.1 0 13.7 0v8.8h-10l1.5-1.5c3.1-.4 8-.3 8-4.5l-5.2 2 2-4-7.1 1.3 2.1 1.4c-1.9 1.7-4 3.3-6.2 4.6.5-1.3 1-2.6 1.7-3.8-2 .5-5.9 3.3-5.8-.3-1 1.8-3.3 2.8-4.2.3l-3.9 2.2-.7 2.4h-5.2v-30.7zm151.3-.1 19.2.1v18.1c-3.7-.6-7.4-.4-11 .7-2.2 2.3-.2 5.1 1.2 7.2l-2 .9-1.4 3c-1.1-1-1.8-3.7-3.7-2.5l-.6 3.3-1.7.2c.3-10.3.3-20.7 0-31z" style="fill:#e1e1e1"/><path d="M280.4 251.3h7.4l.1 8.7H278c.4-1.7.4-3.5-.2-5.1l2.6-3.6z" style="fill:#c0bfc0"/><path d="M34 255.6c4.4-1.8 8.9 1.8 13.5.3v1.4c-5 .6-10 2.3-15.2 2.5l-1.4-.6 4-.9-4.3-1.2 3.4-1.5z" style="fill:#b9b8b8"/><path d="M362.6 260c1.8-2.3 3.8-4.3 6.3-5.7.4 1.9.5 3.8.6 5.7h-6.9z" class="st16"/><path d="M468 254.8c1.3.8 2.4 1.7 3.7 2.4 2.7-.4 5.3-1.2 8-.6l-.4 2.4c1.5.8 4 1 3.8 3.3-1.9 0-3.7-.2-5.5-.3 0 1.4 0 2.8-.5 4.2-.8-.9-1.3-1.9-1.6-3-2.1-2-4-.3-5.7 1.2-.3-2-.4-4.1-.5-6.2-1-.9-1.5-2-1.3-3.4z" style="fill:#d6d6d6"/><path d="m193.4 259.9 2.2-3.5.5 4.5c-1.9 1.3-4 2.5-6.2 3.3l-3.2-1.5c2.4-.5 4.7-1.4 6.7-2.8z" class="st24"/><path d="M465 257.9c1-1 3.4.3 2.6 1.7-1 1-3.4-.3-2.5-1.7h-.1z" class="st25"/><path d="m328.2 260.9 7.4-2.3-.2 3 2.3-1.3 1 1.2 4-2-1.5 3.2 1.6.8 1.6-.9 3.3-1 4.4 1 1 2c-2.7 1.2-5.5 2.4-8.2 3.6l3 .6v1.5c-5.4-.8-10.7-2-15.9-3.3l.6-2.2-4.4-3.9z" style="fill:#ececec"/><path d="m44.9 261.3 2.6-.7v16.5c-1.7.9-3.5 1.9-5.1 3H40l2.2-3.4-.8-2.8 1.4-1.4-1.7-1.6 1-1.1-1.6-2.4c2.1-1.5 3.5-3.7 4.4-6.1z" style="fill:#bebcbd"/><path d="M279.4 262.3h4.4l1.9 1.9c-2.3.7-4.6 1.7-6.5 3.2l-2.4-.7 2.6-4.4z" style="fill:#c3c3c3"/><path d="m352 262.6 4.1.8c-1.9 4-5.2 6.7-8.3 9.7v-4.4l-2.9-.6c2.7-1.2 5.5-2.4 8.2-3.5l-1-2.1-.1.1z" style="fill:#cacaca"/><path d="M5.8 263.9c1.3-.2 2.3.2 2.9 1.4h2.7v2.3l3.8-1.3 2.4 1.3 2-2-.7 3.2c4.3-.3 8.5-.6 12.8-.3l2.4-4c-.3 1.4.4 3.4-.8 4.5-4.2 1.7-8.8 1-13.1 1.6l-1-1.2v8c-4.5-.8-9 0-13.4.3l-2 1.7 2.2 2.5H0v-11.7c.8 1.6 1.5 3.2 1.4 5 4 0 7.9.6 11.7-.4-.6-.7-1.2-1.3-1.8-2l6.8.4v-3.3c-4.7 0-10.3-1.2-12.3-6z" class="st30"/><path d="M0 267.7c2.8.4 5.5.5 8.3.6l-3.7 3c-1.5-.8-3-1.4-4.6-2.1v-1.5z" class="st30"/><path d="M104.1 265c3-1.6 6.5-.8 9.8-1-1.7.7-3.3 1.5-4.8 2.5l-5-1.5z" style="fill:#d1d1d1"/><path d="m356.1 263.4 1.6.2 5.4 1.1h-3l-1.3 2.7c-2 .6-4.2 1-5.2 2.9-2.3 4-7.1 4.5-11 6-.2-1.7 1-3.2 1.7-4.7-5.8-.4-11.7-.2-17.6-.1-3.2-1-4.9 2-2.8 4.5v2.7l-1-.9c-.4-2.3-.4-4.6-.5-6.9h22.2c.5 1.4 0 4.4 2.3 3l1-.8c3-3 6.3-5.8 8.2-9.7z" class="st24"/><path d="M201.2 266.2c3.6-.1 7.2-.4 10.7-1l1 1.3c-1.6 2.3-3.4 4.5-5.3 6.5l-3.6-1.3-2 .7 1.9-2.4-3.5-.5.8-3.2v-.1z" class="st25"/><path d="M360.1 264.7h3c2.4.7 5 1.3 7 3.1.6 3.5.3 7.1 0 10.7-7.5 5.3-17.2 3-25.8 3.4-2-3.2-6.3-3.2-9.4-1.5l2-4.3c1.8 1.4 3.8 1.2 5.7.3 3.9-1.6 8.7-2.1 11-6.1 1-2 3.3-2.3 5.2-2.9l1.3-2.6v-.1z" style="fill:#e9e9e9"/><path d="m200.7 266.3.5-.1-.8 3.2 3.5.5-2 2.4 2-.7 3.7 1.4-.7 2.6-1.7-1.7-.2 1.7 2 2.3c-1.5.9-3.2 1.3-5 1.3l-1.9 1-2.5-.2c.2-3.4.2-6.9 0-10.3l3.1-3.4z" style="fill:#d5d5d4"/><path d="M414.4 270.1c3.5-1.1 7.3-1.3 10.9-.7v2.2c-2.5.6-5 1.6-7.2 2.8l7.2.5v1.7c-3.2 1.1-6.3 2.5-8.4 5.2-3 .2-6 .1-9 .2 0-.8.4-2.5.5-3.3 2-1.2 2.6 1.5 3.7 2.5l1.5-3 1.9-.9c-1.4-2.1-3.4-4.9-1.1-7.2z" style="fill:#d3d3d2"/><path d="m19.2 269.5 1 1 2.5 3.3-1 2.2-.4 5.7-2.2.2v-12.5l.1.1z" style="fill:#303030"/><path d="m486.6 270 3 .2v4.4c-2.6.7-3.1-1.6-3.6-3.5-7.2-.3-14.4 0-21.5 0-.2 3.2 0 6.6 2.4 9l-2.5-.3c-2-2.5-2.2-5.8-2-8.9 4 0 7.9 0 11.9-.2 4 0 8.2.2 12.3-.8v.1z" style="fill:#272727"/><path d="m38 273.1 3-2.2 1.8 1.6-1.3 1.4.7 2.8-2.2 3.4h-1.6c-.6-2.3-1-4.7-.4-7z" style="fill:#cfcfcf"/><path d="M211.5 271.2c1.7-.3 3.4-.6 5.2-.7V282h-6.4l-2.4-4.4 2.3-1.4.5-1.8 3-1.3-2.2-1.9z" style="fill:#d4d4d4"/><path d="M86 276.7c-1.2-1.8-1.2-4.1.9-5.1 2.6 2.4 7 2 9 5.2-.7 2-2.6 3.3-4.5 4 .6-2.4-.7-4.4-2.3-6l-3 1.8-.1.1z" style="fill:#dedede"/><path d="m94.7 272.4 2.2-.2 5 2 1.4-.8c4.7-.4 9.3-.1 14-.1v8.6h-13.7c-.4-2-1-2.1-1.7-.5-2.2 1.1-3.1-1-4.4-2.1.7-2.8-.2-5.4-2.8-6.9z" class="st40"/><path d="M273.5 271.1c4.8-.1 9.5-.2 14.3 0v2c-4.6 0-9.2.3-13.7 0l-.6-2z"/><path d="M323.9 276c-2-2.5-.4-5.5 2.8-4.5l4.3 4.1-4.5-.5.1 1.6-2.8-.7h.1z" class="st40"/><path d="M326.7 271.5c5.9 0 11.8-.3 17.6 0-.7 1.6-1.9 3-1.7 4.9-1.9.9-4 1.1-5.7-.3l-2 4.3c3.1-1.7 7.4-1.7 9.4 1.5-6.8-.3-14.7 1.6-20.4-3.2V276l2.7.7-.1-1.6 4.5.5-4.3-4.1z" style="fill:#d7d7d7"/><path d="M418 274.4c2.4-1.2 4.8-2.2 7.3-2.8v3.3l-7.3-.5z" class="st18"/><path d="m277 275.2 7.2-1.3-2.1 4 5.3-2c0 4.2-5 4.1-8 4.5l-1.6 1.5h-5.2l.3-.7c2.2-1.3 4.3-2.9 6.2-4.6l-2.1-1.4z" style="fill:#c4c4c4"/><path d="M160.6 277c1.4-.7 2.9-1.8 4.6-2 2.4 0 4.8 1 7.1 1.7v3.3c-3.5-2.2-7.8-2.3-11.7-3z" style="fill:#d0d0d0"/><path d="m260.8 279.7 3.8-2.3c1 2.5 3.1 1.5 4.2-.3 0 3.6 3.9.8 5.8.3-.7 1.2-1.2 2.5-1.7 3.8l-.3.7H260l.8-2.3v.1z" style="fill:#c4c4c3"/><path d="M505.4 277.1c2.1-.5 4.4-.4 6.6-.4v1.1c-1.5 1.4-3.2 2.5-5 3.3-.7-1.3-2-2.4-1.6-4z" style="fill:#c8c8c8"/><path d="M417 281.9c2.2-2.5 5.1-4.1 8.3-5v5H417z" style="fill:#cecece"/></g><g id="Layer_2"><path d="M83.3 4.2C85.4.6 89.8-.3 93.7-.5c4.7-.1 9.4-.1 14.1 0 2.5.3 5.1.7 7 2.4 2.7 2.4 3.7 5.9 4.7 9.2-.1 2.4.2 4.9.2 7.3.1 6.7.1 13.5 0 20.2-2.2.1-4.7.4-6.8-.4-1.2-.5-2.3.4-3.4.5-1.1.1-2.2.1-3.4.2v.9c-1.2-.1-2.4-.1-3.5-.1-.9-4.4 0-8.9-.2-13.4.2-2.6.9-5.7-1-7.8-.8-1.2-2.4-.5-3 .5-1.4 2.3.1 5.4-1.6 7.6 1.8 3.4.1 7.3 1.4 10.7.6 1.5 1.9 2.6 3.2 3.5 1.6 1.2 3.2 2.3 4.7 3.6l2.5 1.8c3 2.4 6.2 4.8 8.3 8.1 0 .1.1.2.1.2 1.3 1.9 1.7 4.2 2.6 6.3-.2 3.4.3 6.7.3 10v21.9c-.2 4.8.3 10.1-2.7 14.2-1.1 3.2-4.3 5.1-7.5 5.5-5.9.7-11.9.8-17.9.2-1.9-.2-3.7-.9-5.5-1.6l.5 2.1c-.6-1.5-1.8-2.5-2.8-3.8-2-2.9-3.1-6.4-3.1-9.9.3-.6.4-1.6-.4-1.9.1-6.4 0-12.8 0-19.2 0-.9.3-1.8.5-2.7.2-.6.2-1.3 0-1.9-.5-1.4-.7-2.9-.6-4.4l.2-3.4c4.9-.2 9.8.2 14.8-.2.8.1 1.5.2 2.2.4l.3.4c-.2 2.2-.1 4.4-.1 6.6v15.5c.1 1.7 0 3.5 1.1 4.9.8.9 2.1.7 2.8-.2.9-1.4.5-3.1.6-4.7 0-5.9-.1-11.9.1-17.8.4-2.1-.3-4.4-2-5.7-2.1-1.7-4.4-3-6-5.1-3.4-1.5-5.8-4.3-8.7-6.5-.6-.5-1.1-1-1.7-1.5-2.2-3-3-6.7-3.1-10.3.3-.8.3-1.7-.3-2.4-.1-8.3 0-16.6 0-24.9.5-.3.6-.8.3-1.4.1-3 .8-6 2.4-8.6v-.2zM199.9.1c5.1-.2 10.3-.1 15.5-.1 1 0 1.8.4 2.7.8 2.7-1.2 5.7-.5 8.5-.7 0 2.2-.1 4.6.1 6.8.6 3.6 0 7.2.2 10.7-.3.4-.7.6-1.2.6-2.8.1-5.6 0-8.4 0-.4 3.4.1 6.8 0 10.2v12.8l.6.1c2.9.1 5.8 0 8.6 0v.4c-.1 2.7 0 5.4.2 8.1v9.9c-3.1.2-6.3.1-9.4.1-.4 11.4-.1 22.7-.2 34.1l.6-.1h.3c2.9-.1 5.7 0 8.6 0v.2c.1 6.2.3 12.3.1 18.5-8.6.1-17.2-.1-25.8.1l-.4.6-.7.1c-.2-6.3 0-12.5-.1-18.8-.1-1.3.4-2.4.6-3.6-.2-1.3-.7-2.7-.6-4 .2-29 0-57.9.2-86.8m26.1 8c-.4.4-.3 1.4.3 1.6.9 0 .6-2.2-.3-1.6zM258.5.6c.6-.9 2-.7 3-.6 3.9.4 7.9 0 11.8.2.1 37.4.1 74.9 0 112.3l-.3.7-.4-.2c-1.6-.9-3.5-.4-5.3-.5-3.8-.1-7.7.2-11.6-.1-2.2-15.4-4.3-30.9-6.5-46.3-.3-2.1-.3-4.2-.9-6.2-.1 3.1-.1 6.3-.1 9.4 0 1.9.6 3.7.4 5.5-.2.5-.3 1.1-.4 1.6 0 12 .1 24-.1 35.9v.3c-4.8-.5-9.7 0-14.5-.3 0-8.7-.1-17.4 0-26 0-1.4-.1-2.9.1-4.3 1.3-1.9 1.3-4.2 0-6.1-.3-.6-.2-1.3-.2-2.1.1-14.1 0-28.3 0-42.5.3-2.7-.4-5.5.3-8.1.4-.9.4-2 0-3-.7-3.4 0-6.9-.3-10.4-.1-1.8.1-3.6.2-5.4 0-1.5-.2-3-.1-4.5 5.6 0 11.2-.1 16.9 0 .4 3.8 1.3 7.5 1.4 11.3-.1.9.2 1.7.4 2.6v.4c0 .9.2 1.8.4 2.6v1c0 .7.1 1.4.4 2.1l.1 1c-.1.4 0 .9.3 1.3 1.2 7.7 2.2 15.4 3.3 23.2.1.5.2 1 .4 1.5.4 3 .1 6 1.1 8.9.1-9.7 0-19.4 0-29.1 0-3 .2-6-.1-8.9l-.1-1.4v-.3c.2-1.9.2-3.8.9-5.6.4-1.1-.4-2.1-.7-3.1 0-2.1.1-4.5.2-6.8zm208.4 1.7c2.7-2 6-2.6 9.3-2.8h20.4c2.3.1 4.6.6 6.7 1.6l.2.1c3.7 1.9 5.7 6 6.4 10-.4.6-.2 1.1.4 1.4 0 1.7.1 3.4.2 5.2-.1 8.4-.1 16.9 0 25.3-.2 2.4-.7 4.8-1.5 7.2-.7 1.8-1.5 3.6-2.5 5.4l-.1.2c-1.7 3.4-3.4 6.8-5.3 10.1l-.1.2c-2.9 5.6-5.8 11.2-8.8 16.8l-.1.2c-1.3 2.5-2.5 5-3.9 7.4l-.1.2-1.3 2.8c7.9.2 15.8-.1 23.7.2v18.7c-.3.6-.9.9-1.5.8h-7.1l-.3-.8c-13.4-.1-26.8 0-40.1-.1-.2-5.4 0-10.8-.1-16.2-.2-2.5 1.4-4.6 2.5-6.7 6.7-12.5 13.2-25.2 19.9-37.8 1.7-3.4 3.8-6.7 4.7-10.5.8-3.7.5-7.5.5-11.2 0-3.3.1-6.5-.3-9.8-.1-1-.5-2.2-1.6-2.4-1-.2-2.2-.1-3 .6-1.1 1.3-1.2 3.2-1.2 4.9-.1 5.2 0 10.4 0 15.7-2.1 1-4.5 1.3-6.8.9-1.1-.2-2.1-.8-3.1-.8-3.8 0-7.6.1-11.3 0-.2-5.7 0-11.4-.1-17.1.1-4.8-.1-9.7 1.5-14.3.5-2.2 1.9-4.1 3.8-5.4zM.4.1C6.5-.1 12.5 0 18.6 0c4.6.3 9.5-.4 13.9 1.4l.9.4 1.1.5.2.1c.8.6 1.5 1.3 2.1 2.1l.1.2c.7 1 1.3 2.1 1.5 3.3 1.6 5.7 1.4 11.6 1.4 17.5 0 6.7.2 13.5-.6 20.1-.4 2.9-1 6-2.8 8.4-1 1.3-2.5 2.1-3.9 3 1.3 1 2.8 1.9 3.8 3.3.8 1.2 1.4 2.5 2.1 3.8l.3.9c1.3 6 1.1 12.2 1.1 18.3 0 9.7.1 19.5-.1 29.2-3.4.3-6.8-.1-10.2.2-2.1.9-4.6 1.2-6.7 0-.1-9.8 0-19.6 0-29.4-.1-1.4.5-2.8.2-4.3-.7-3.4-.4-7.2-2.5-10.1-.6-.9-1.7-1.1-2.6-1.3l-.1 2.7v42.2c-3 .2-6 0-8.9.1-1.2 0-2.3.7-3.5.8-1.5.1-3 .1-4.5 0l-.4-.1c-.1-5.7 0-11.3 0-17 0-1.3-.5-2.7-.4-4 0-1.3 1.5-1.9 1.7-3.1C1.5 88 .3 87 .5 85.6.4 57.1.3 28.6.4.1m17.3 18.4c-.1 2.2-.1 4.4-.1 6.6 0 7.3-.1 14.6.1 21.9 1.6.2 3.9.2 4.5-1.8.6-2.5.4-5.1.5-7.6 0-4.5.1-8.9-.2-13.4-.1-1.8.3-4-1.3-5.4-1-.5-2.3-.2-3.5-.3zM47.6 1.3C47.5.5 48.2 0 49 0c3 0 6-.2 8.9.1 1.3.4 2.7-.2 4-.1 4.2 0 8.3-.1 12.4.1 0 2.4.2 4.7.1 7.1v.4c-.1 3.4-.1 6.9-.1 10.4-3.1.4-6.4.1-9.5.2-.1 3.3.3 6.6-.3 9.9-.3 1.6.3 3.1.3 4.7v8.5c1.5.2 3.1.2 4.7.1s3.2 0 4.8 0v7.2c-.2 3.8 0 7.6-.1 11.4-3.1 0-6.4-.2-9.5.1V94c1.6 0 3.2 0 4.8.1 1.6-.1 3.2-.4 4.8-.2.1 2.5.1 4.9 0 7.3-.3 3.8 0 7.6-.2 11.5-6.6.1-13.2 0-19.9 0-1.2 0-2.2.9-3.5.9-1 0-2.1-.1-3.1-.2-.4-2.7-.1-5.4-.2-8 0-3.4-.1-6.9.1-10.3 0-.7.1-1.4 0-2.1.1-22.8.1-45.6.1-68.5.1-7.9.1-15.6 0-23.2zM127 .1c2.5-.2 4.9-.1 7.4-.1 3.3.2 6.6-.2 9.8.3v7.3c.2 3.1.1 6.3.1 9.4v77.4c0 6 .1 12-.1 18-4.7.2-9.4 0-14.1.1l-.2.9c-.9-.1-1.9-.1-2.9 0-.2-2.1-.1-4.3-.1-6.4V18c0-.8 0-1.7.5-2.2.4-.4.5-.8.4-1.3-.3-1.4-1-2.7-.9-4.1L127 .1zm25.8-.1c7.9 0 15.8-.1 23.7 0 3 .1 6.3.1 9.1 1.5l.2.1c1.3.7 2.4 1.8 3.1 3.1 1.3 2 2.3 4.2 2.3 6.5-.1.5 0 .9.4 1.3.2.9.2 1.8.2 2.8 0 .5 0 1 .1 1.6.5 10.2.3 20.4.4 30.5-.1 15.8.1 31.6-.2 47.4.2 4.4-.9 8.8-3 12.6-1.2 1.8-2.9 3.2-5 3.9-2.2.9-4.8.8-7.2.9-6.8.4-13.7.2-20.6.2-.6 0-1.1.2-1.6.4l-1.8.2c-.4-2.8-.2-5.6-.3-8.4 0-8.5.2-17 0-25.6.2-1.1 1.1-2 1.1-3.1.2-.7-.3-1.4-.9-1.7-.2-1.9-.2-3.9-.2-5.9.2-12.5-.2-25.1 0-37.6l.2-1.3c.4-1.1-.4-2.1-.4-3.1v-20c.2-2.1 0-4.2.4-6.3M170 18.6c-.1 25.2 0 50.3 0 75.5h1.8c1-.3 2.2-.7 2.6-1.8.5-2 .4-4 .3-6 .3-.9.2-1.9 0-2.8.3-5.4.1-10.8.1-16.2V30c0-1.3-.1-2.6-.1-3.9.4-2 .2-4-.3-6-.7-1.9-2.8-1.7-4.4-1.5zM277.8.1c4.3-.3 8.6 0 12.8-.1 3.3.1 6.6-.3 9.8.4 3-.8 6.2-.4 9.3-.4l2.5.2c.2 4.1 0 8.2 0 12.3 0 1.8.2 3.8-.4 5.6-.4.7-1.3.4-1.9.3-2.1-.4-4.2-.4-6.3-.1v7.2c0 29 .1 58 0 87l-.3.9c-.5 0-1.1 0-1.6.1 0-.3-.1-.8-.2-1-5-.1-10.1.1-15.1-.1-.1-31.3 0-62.7 0-94.1-2.9-.1-5.7 0-8.5 0-.2-3.5-.1-7-.1-10.5l-1.3-.4 1.1-.2c.2-2.4.1-4.7.2-7.1zm48.1-.1c8.9 0 17.9-.2 26.8 0v7.2h3.6c-.2-2.5-.5-4.9-.4-7.3 5.5 0 11.1-.2 16.6.1 0 5.3.6 10.6.7 15.9 0 1.3 0 2.6.2 3.9.1 2.5.4 5 0 7.4-.1 1 .6 1.9.9 2.8-.1 4.7-.2 9.5.3 14.2 0 5.2.6 10.4.7 15.6.5 4.2.1 8.5.9 12.7.7-15.1 1.7-30.2 2.3-45.3.4-6.6.8-13.3 1-20 0-2.4.1-4.8.4-7.2 5.4-.1 10.9-.2 16.3.1-.2 2.8-1 5.6-.4 8.4l-.1.9-.2.3-.4.6c-.3 3.9-.7 7.7-1.1 11.5-.3.4-.4.8-.3 1.3.1.9 0 1.9 0 2.8-1.4 12.8-2.5 25.5-4 38.3-.2 1.3-.3 2.5-.4 3.8-.1 1.8-.2 3.6-.6 5.4-.3 1-.4 2-.4 3 .1 1.5 0 3-.3 4.4-.9 9.5-1.9 18.9-2.8 28.4-.1 1.3-.2 2.6-.5 3.9h-.4c-1 0-2.1 0-3.1-.3-.4-.1-.9-.4-1.3-.4-4.8-.1-9.6.1-14.4-.1-.6-8.5-1.5-17-2.1-25.5-.9-9.9-1.7-19.8-2.6-29.7-.1-2.7-.6-5.3-.6-8.1 0-1.3.4-2.6.4-3.9-.4-1.2-1.1-2.3-1.1-3.6-1.1-11.4-1.9-22.7-3-34.1-1.3 0-2.6 0-3.9.1 0 1.9 0 3.8.3 5.8.1 1.6.4 3.3-.2 4.9l-.1.4c-1 0-2.1.2-3-.2-2-.9-4.2-.4-6.4-.5.1 7.7 0 15.4.1 23.2 3.1-.1 6.1 0 9.2-.1.2 4 0 8.1.1 12.1 0 2.2.1 4.6-.2 6.8l-.1.5h-3l-.2-.9h-6c0 4.7.2 9.4 0 14.2-.4 1-1.1 2.1-.2 3.1.2 5.5 0 11.2.2 16.8h9.4c0 6.4.2 12.8-.1 19.1v.4c-1.1 0-2.2 0-3.2-.4-1.5-.8-3.2-.2-4.8-.4-.7-.2-1.4-.6-2.1-.8-1.2.4-2.4.9-3.7.8-4.2 0-8.4.1-12.6-.1-.1-27.2 0-54.4 0-81.6-.2-1.9 1.5-3.4 1.3-5.3-.3-1.3-1.3-2.2-1.3-3.6 0-4.8.1-9.6 0-14.4l-2.2-.1h-.4c.8-.1 1.7-.1 2.5-.1 0-2.2-.4-4.7 0-7.1zm74.4.1c5.8-.2 11.5-.1 17.4-.1v111.4c0 .7-.2 1.3-.4 1.9-1.5 0-3 0-4.5-.2-.4-.3-.9-.7-1.4-.7-3.6-.1-7.2.1-10.8 0-.1-8.5 0-17.1 0-25.6-.1-1.9 1.5-3.6.8-5.5-.4-1.1-.8-2.2-.8-3.4V13.5c0-2 .1-4-.1-6v-.4c-.3-2.3-.2-4.6-.2-7zm25.9 0c5.6-.1 11.3-.1 16.9 0 .1 31.1 0 62.3.1 93.4h.4c3.1.1 6.3 0 9.5.1 1.3 2.2.2 4.8 1 7.2v11.6c-1.1 1.5-3.1 1.1-4.6.4-2.1-1-4.5-.1-6.7-.3-5.5-.1-11.1.1-16.6-.1-.2-34.9 0-69.8-.1-104.6 0-2.6-.2-5.2.1-7.7z" style="fill:#fe0000"/><path d="M375.4 7.4c1.3 0 2.6 0 3.9-.1-.2 6.7-.6 13.3-1 20-.7 15.1-1.7 30.2-2.3 45.3-.7-4.2-.3-8.5-.9-12.7 0-5.2-.6-10.4-.6-15.6-.5-4.7-.4-9.4-.3-14.2.4-7.6.8-15.2 1.2-22.7zm45.1 0c1.8 0 3.6 0 5.4-.2l.1.6c.2 34.9 0 69.8.1 104.6 5.5.2 11.1 0 16.6.1 2.2.1 4.5-.8 6.7.3-.6-.1-1.2-.2-1.8-.2-.2 2.3-.1 4.6-.1 6.8-1.2 0-2.5.3-3.6-.2-.9-.2-1.7-.7-2.6-.4l-.2.1c-.9.4-1.9.6-2.9.6h-17.8c-.1-17 0-34 0-51 0-20.4-.1-40.7.1-61.1zm-346.1.2c1.3-.1 2.5-.1 3.7 0l.6.9c.4 5.7 0 11.4.1 17.1-3.1.2-6.2 0-9.3.1-.2 3.6.4 7.2-.4 10.7.3 1.7.6 3.3.4 5-1.6.1-3.2.1-4.8 0v-8.5c0-1.6-.5-3.1-.3-4.7.6-3.3.2-6.6.3-9.9 3.2-.1 6.4.2 9.5-.2.2-3.6.1-7.1.2-10.5zm69.9 0 2.4-.1c.1 15.4 0 30.9 0 46.3v65.6c-5.6.1-11.2 0-16.8 0 .1-1.9 0-3.8 0-5.8l.2-.9c4.7 0 9.4.1 14.1-.1.2-6 0-12 .1-18V17c0-3.1.1-6.3 0-9.4zm113.4.2.8-.2c.3 1 1.1 2 .7 3.1-.7 1.8-.7 3.8-.8 5.6l-.2-.1-.5-.5c-.2-2.7-.1-5.3 0-7.9zm18.9-.4 1.3.4c0 3.5-.1 7 0 10.5 2.9 0 5.7-.1 8.5 0v94.1c5.1.2 10.1 0 15.1.1l.2 1v6c-5.6 0-11.3.1-16.9 0-.1-31.2 0-62.4-.1-93.7-2.7-.1-5.4-.1-8.1 0v-.3c-.1-6 0-12 0-18.1zm47 .1 2.2.1V22c0 1.3 1 2.3 1.3 3.6.2 1.9-1.5 3.4-1.3 5.3.1 27.2 0 54.4.1 81.5 4.2.2 8.4 0 12.6.1 1.3.1 2.5-.4 3.7-.8.7.2 1.4.5 2.1.7 1.6.3 3.3-.2 4.8.4 1 .4 2.1.4 3.2.5-1 0-2.1 0-3.1.1v6h-8.1c-.7.1-1.3-.5-1.8-.9l-.7.2c-2.2.8-4.6.4-6.8.5-2.7 0-5.5.1-8.2-.1-.3-1.7-.1-3.4-.2-5.1V37c-.1-1.4 1-2.6.9-4 .1-1.2-1-2-.9-3.1V11.7c0-1.4-.2-2.8.2-4.2zm28.9.1c1.3-.1 2.6-.1 3.9-.1 1.1 11.4 1.9 22.7 3 34.1 0 1.3.8 2.4 1.1 3.6 0 1.3-.5 2.7-.4 4 0 2.7.5 5.4.6 8.1.9 9.8 1.6 19.8 2.6 29.7.5 8.5 1.4 17 2.1 25.5 4.8.2 9.6 0 14.4.1.5 0 .9.2 1.4.4-.2 1-.4 2.1-.4 3.1l-.2 3.4c-6.3.1-12.7.1-19 0-.5-6.4-1.1-12.7-1.6-19.1 0-1.4-.1-2.8-.3-4.3-1.1-11.6-1.9-23.2-3-34.8-.3-2-.4-4.1-.2-6.1v-.5l.4-.9c.1-1.4-.6-2.5-1.2-3.7l-2.5-30.3c-.1-.4-.3-.9-.6-1.4.7-1.6.3-3.3.2-4.9-.3-2-.3-4-.3-5.9zm43.5-.1h4.4c.2 2 .1 4 .1 6v64.4c0 1.2.4 2.3.8 3.4.7 1.9-.9 3.6-.8 5.5 0 8.5-.1 17.1 0 25.6 3.6.1 7.2 0 10.8 0 .5 0 .9.4 1.3.7-.3 2.1-.2 4.1-.1 6.2-5.7.1-11.4.1-17.1 0 .1-8.9 0-17.9 0-26.8l.4.6c.1 8.5.1 17.1 0 25.7h.2c-.2-9 0-18-.1-27.1.2-1 .9-2 .6-3.1-.2-.9-.5-1.7-.7-2.6V13c.1-1.8 0-3.7.2-5.5zm60.1 5.9c1.4-2.7 4-4.4 6.7-5.7-1.6 4.6-1.3 9.5-1.5 14.3 0 5.7-.1 11.4.1 17.1 3.8.2 7.5 0 11.3 0 1.1 0 2.1.5 3.1.8 2.3.4 4.7 0 6.8-.9.1-5.2 0-10.5 0-15.7.1-1.7.2-3.5 1.3-4.9.8-.7 2-.8 3-.6 1.1.3 1.5 1.4 1.6 2.4.4 3.2.3 6.5.3 9.8 0 3.8.2 7.5-.5 11.2-.9 3.8-2.9 7.1-4.7 10.5l-19.9 37.8c-1 2.1-2.7 4.2-2.5 6.7 0 5.4-.1 10.8.1 16.2 13.4.1 26.8 0 40.1.1l.3.7v6.2h-47.9c0-2.4-.1-4.7 0-7.2.1-3.8 0-7.7 0-11.5 2.7-4.8 5-9.8 7.7-14.6l.2-.3.2-.4.2-.4.2-.4.2-.4.2-.3.2-.4c2.3-4.7 4.6-9.4 7.2-13.9l.2-.3.2-.4.2-.4.2-.4.2-.4.2-.4.2-.3 3.1-6.3c2.1-4.3 4.8-8.4 5.6-13.1.3-1.2.3-2.5.4-3.8.1-1.2.1-2.4.1-3.6-1.9-.1-3.9 0-5.9 0v6.3c-7 .1-13.9.1-20.9 0V25.9c.1-4.2.1-8.7 2.2-12.5zM38.3 8.1c.7 1.3 2.2 2 3.2 3 1.7 2.1 2.7 4.6 3 7.2.9 5.6.7 11.3.7 17 0 6.8.3 13.6-1.1 20.3-.7 3.4-2.5 7-5.9 8.4-.6-1.3-1.3-2.7-2.1-3.8-1-1.4-2.5-2.2-3.8-3.3 1.4-.8 2.9-1.6 3.9-3 1.8-2.4 2.4-5.5 2.8-8.3.8-6.7.5-13.4.6-20.2.1-5.7.3-11.6-1.3-17.3zm187.7 0c.9-.6 1.2 1.5.3 1.6-.6-.2-.7-1.1-.3-1.6zM119.6 18.4c0-2.4-.3-4.9-.2-7.3.9 1.3 1.7 2.6 2.1 4l.4 1.1c.6 2.6.9 5.3.9 8 0 7.3.1 14.5 0 21.8-2.6 0-5.3.4-7.6-.8-2.1 1.1-4.5.9-6.8 1l-2.5-1.8c.1-1.6 0-3.1 0-4.7v-.9c1.1-.1 2.2 0 3.4-.2 1.2-.1 2.2-1 3.4-.5 2.2.8 4.6.5 6.8.4.2-6.6.3-13.4.1-20.1zm72.3-1.4.2.1c.9 2.9.9 5.9 1.1 8.9.2 16.1 0 32.2.1 48.4 0 9.4.1 18.8-.1 28.2.2 4.5-1 8.9-3.4 12.8-2.2 3-6.1 3.8-9.6 3.9-8.4.1-16.9.2-25.3.1 0-2.1 0-4.2-.1-6.3.5-.2 1-.4 1.6-.4 6.8 0 13.7.1 20.6-.3 2.4-.1 4.9.1 7.2-.9 2-.7 3.8-2.1 5-3.9 2.1-3.9 3.1-8.2 3-12.6.4-15.8.1-31.6.2-47.4-.2-10.3 0-20.5-.5-30.6zm33.8 1.1c.5 0 .9-.1 1.2-.6v8c-3 .2-6 0-9 .1-.3 2.7-.1 5.4-.1 8.1 0 2.6-.1 5.1.2 7.6l-.6-.1v-13c0-3.4-.4-6.8 0-10.1 2.7 0 5.5.1 8.3 0zM98.3 19c.5-1.1 2.1-1.7 3-.5 1.8 2.1 1.2 5.3 1 7.8-1.6 2.3-.2 5.4-1.8 7.8 1.2 2.1 1 4.5.8 6.7-1.3-.9-2.6-1.9-3.1-3.4-1.3-3.4.4-7.4-1.4-10.7 1.6-2.4.1-5.4 1.5-7.7zm160.1-1.1c.4 3 .1 6 .2 8.9 0 9.7.1 19.4 0 29.1-1-2.8-.7-5.9-1.1-8.8.1-8.7.1-17.4.1-26.1 0-.9.1-1.7.5-2.4l.1-.3.2-.4zm84.7.2c2.1.1 4.4-.4 6.4.5.9.4 2 .2 3 .3-1.1.2-2.1.1-3.2.2v6.5h-6c-.2 5.2-.1 10.5 0 15.8-.3-7.8-.1-15.5-.2-23.3zm-325.4.4c1.2.1 2.5-.2 3.5.4 1.6 1.3 1.2 3.5 1.3 5.4.3 4.4.1 8.9.1 13.4 0 2.6 0 5.1-.5 7.6-.5 2-2.8 2-4.5 1.8-.1-7.3 0-14.6 0-21.9.1-2.3 0-4.5.1-6.7z"/><path d="M170 18.6c1.6-.1 3.7-.4 4.3 1.5.4 1.9.7 4 .3 6v.3c-.9-.4-1.8-.4-2.8-.3-.1 22.7 0 45.3 0 68H170c0-25.2-.1-50.3 0-75.5zm133.8-.2c2.1-.3 4.2-.3 6.2.1V25.6h-6.2v-7.2zm-229.4 30 4.4.1v17.3c0 .5-.1 1.3-.8 1.2-2.8.1-5.6-.1-8.4.1V94c-1.6-.1-3.2-.1-4.8-.1V60c3.1-.4 6.4-.1 9.5-.1 0-3.8-.1-7.6.1-11.5zm9.4 3.6c.5.5 1.1 1 1.7 1.5 2.9 2.2 5.4 4.9 8.7 6.5 1.7 2.1 4 3.4 6 5.1 1.7 1.3 2.4 3.6 2 5.7-2.1-1.1-3.7-2.7-4.8-4.8-.7-.2-1.5-.3-2.2-.4-3.1-2.8-6.7-5.4-8.5-9.3-.8-1.5-1.8-2.9-2.9-4.3zm133.6 7.7c3.1 0 6.3.1 9.4-.1 0 2.4.1 4.8 0 7.2-3 .1-6 0-9 .1v26.8l-.6.1c0-11.3-.2-22.7.2-34.1zm125.7 0h6l.2.9c.1 2.1 0 4.3-.1 6.4-2 0-3.9-.1-5.8 0-.3 2.3.1 4.6-.2 6.9.1-4.7-.1-9.5-.1-14.2zm-94.8.3c.6 2 .7 4.1.9 6.1 2.2 15.4 4.3 30.9 6.5 46.3 3.8.3 7.7 0 11.6.1 1.8.1 3.7-.4 5.3.5-.7 2.1-.2 4.3-.4 6.4-5.7 0-11.5.1-17.2 0l-4.4-31.8c-.4-3.1-1-6.3-1.1-9.4.1-.9.1-1.8-.4-2.6l-.4-.8c.3-1.8-.4-3.7-.4-5.5 0-3-.1-6.2 0-9.3zM119.7 70.7c0-3.3-.4-6.6-.3-10 3.1 4.1 3.4 9.5 3.4 14.5v27.3c0 3.1-.2 6.4-1.5 9.3-1.3 2.1-2 4.9-4.5 6.1l-.2.1c-2.4 1.3-5.2 1.4-7.9 1.7H97.9c-1.7-.2-3.4-.3-5.1-.7l-1.1-.4-.3-.1-.2-.1c-2-1-3.5-2.7-4.3-4.8l-.1-.2-.1-.3-.5-2.1c1.8.7 3.6 1.4 5.5 1.6 6 .5 11.9.4 17.9-.2 3.2-.4 6.4-2.2 7.5-5.5 3-4.1 2.5-9.4 2.7-14.2-.1-7.3-.1-14.7-.1-22zm-81.1-5.8c1.2.1 1.9 1.1 2.7 1.9 2.2 2.6 3.1 6 3.5 9.3.3 2.4-.2 4.7-.1 7.2.1-1.1-.2-2.2.4-3.1.2 13.1 0 26.2.1 39.3-5.6.2-11.2 0-16.8 0-.1-2 0-4 0-6-1.6-.1-3.1-.1-4.6 0-.1 2 0 3.9 0 5.9-5.6.1-11.3 0-16.9 0-.4-2 0-4-.2-6-2-.3-4 .1-6-.2 1.5.1 3 .1 4.5 0 1.2 0 2.2-.8 3.5-.8 3 0 6 .1 8.9-.1v-42l.1-2.7c1 .2 2.1.4 2.6 1.3 2.1 3 1.8 6.7 2.5 10.1.3 1.4-.3 2.8-.2 4.3 0 9.8-.1 19.6 0 29.4 2.1 1.2 4.6.9 6.7 0 3.4-.3 6.8.1 10.3-.2.1-9.7 0-19.5 0-29.2.1-6.2.4-12.3-1-18.4z"/><path d="M97.6 73.1h3.7c.3 6.7 0 13.5.2 20.2-.7.9-2 1.1-2.8.2-1.1-1.3-1-3.2-1.1-4.9V73.1zM234 76c1.2 1.9 1.2 4.2 0 6.1-.3-2.1-.3-4.1 0-6.1zm-7.3 18c.4 8.5.2 17 .3 25.4-8.8.1-17.5.1-26.3 0 0-2.1 0-4.2-.1-6.3l.4-.6c8.6-.2 17.2.1 25.8-.1.2-6.1 0-12.3-.1-18.4zM47.4 96.7c0-.6 0-1.3.2-1.8-.2 3.4 0 6.9-.1 10.3 0 2.7-.1 5.4.1 8.1 1.1 0 2.1.2 3.2.1 1.3 0 2.3-.9 3.6-.9 6.6 0 13.2.1 19.8 0 .2-3.8-.1-7.6.2-11.5l.5-.1.3-.1c1.2-.3 2.4-.3 3.6 0-.1 6.2-.1 12.4 0 18.6-8.7.2-17.5.1-26.2 0v-5.9c-1.7-.1-3.5-.1-5.2 0V96.7zm186.3 15.7c4.8.3 9.7-.2 14.5.3-.4 2.2-.2 4.5-.2 6.7-4.7.2-9.4 0-14.2 0l-.1-7z"/></g></svg>