<svg viewBox="0 0 256 256" version="1" xmlns="http://www.w3.org/2000/svg">
    <path fill="#f5d575"
        d="M0 0h256v151l-1-33V78 48c1-6-2-11-4-16-3 4-8 3-12 3h-24c0 3 2 5 5 7h-2l-84-25-36 25v-4l-3-3H67c-3 0-5-2-7-3l1 8-2-8 2-2-4-5c1-3-3-5-5-7-11-4-23-1-34 2-3 1-4 4-3 7 3 7 4 15 8 22l-3 2-2-5-1 5-2-3c-4 0-7 1-11-1l-3 6-1-22V0z" />
    <g fill="#fff">
        <path
            d="M18 20c11-3 23-6 34-2 2 2 6 4 5 7v2c1 7-2 14 1 20l2 3c2-1 5-2 8-1 3 2 5 6 7 9v1l16 5c0 2 2 4 5 5l8 3-10 7 3 3c3 3 7 7 12 9 4 1 9 0 14 3-6 1-11 3-16 2-6-2-11-6-17-9l-4-3-11-11-11 1-4 9-4 8-7 10a259 259 0 0 1 2 5v1a22 22 0 0 1 0 7l-2 12-2 1c-1 8-3 15-6 22-2 5-3 11-3 16-1 7 0 13-2 19-3 9-6 17-7 25 0 6 5 10 7 15l1 3v11c0 2-2 3-4 3-3 1-6-1-8-3v-1-8l-2 2h-3c0-7 1-14-2-21l2-6c3-4 3-9 3-14 0-7-4-14-5-21l-1-19-6-27c0-3-2-6-3-8v-4l8-18c3-1 6-3 8-6 3-4 3-10 3-15 1-5 2-10 1-15l-4 5 1-5 2-2-4-6c-4-7-5-15-8-22-1-3 0-6 3-7m7 10l5 7c-1-4 1-9 2-12l-7 5m11 17l1 4c2-1 1-4-1-4m30 17s-2 1-2 3c2 1 6-4 2-3m-38 59v5c2-1 3-6 0-5z" />
        <path
            d="M81 56l19-13h10l10 2-24 16-15-5m19-10v1h-3l3 1v-2c2 0 4-2 6 0l-3 2 5-2c-2-3-6-1-8 0zM180 63c1-1 1-2 2-1l14 5v1l-2 1c5 2 11 2 14 7l3 4-16 14h-3l-36-12 12-10 5-1v2l4-1-6-2 4-4c3 1 7 1 10-1l-5-2m21 13l-4 4h2l4-3 1 4h-3 4l1-4-5-1z" />
    </g>
    <path
        d="M98 42l36-25 84 25 31 10-1 34a248 248 0 0 0-1 21l-3 2-1 1-1 5 3-3c1-2 0-4 2-4h1l-1 40 9 3v105H131l-35-35-29-29-5-19-11-59v-2l5 3-1-3 13 10-3-8-3-4c-4-1-7-3-11-3v-1l3-2 8 1-2-4 2 1a85 85 0 0 0-4-12l-2 1 4-8 18 7 8-6 4 3-6 5 34 13 14-11-23-9-12-3-3-3a285 285 0 0 0 13-10l-10-3-6-2-16-5v-1l23-16m23-14v-1l-10 8 16 5 14 5 3-2-12-3v-2l10 3c4 2 7-1 10-3l13-10-16-5-15-4-13 9m30 16a261 261 0 0 0 32 10l6-5 1-1 12-9h-3c-9-4-19-6-29-9l-19 14m-51-1L81 56l15 5 15 5c5-3 11-6 15-11l-4 2 2-3 3 1 5-3 6-4-2-1-10-3-19-6-7 5m98 6c-3 2-7 4-9 7l10 3 8 3-6 2 21 6 13-11 8-8-20-6-15-4-10 8m-51-3l5 2 3 1 3 1a352 352 0 0 0 13 4c3 0 7 3 10 2l-17-6-3-1-3-1-3-1-3-1h-5m-5 4v3h-3v1c-3-1-5 2-7 3l11 4-2 1c-1-2-4-3-6-3l-4-2-14 11 3 1c4-3 9-8 15-4-1 3-5 5-7 7l2 1 9-5c3-1 9-1 10 3 0 3-3 5-5 7 1 0 3 1 4-1 3-2 5-5 9-5 3 1 5-2 7-4l-3 1 1-1-5-2-3 1 5-4-2 2 8 3c2-2 5-3 4-5l6-3-10-3-1-1-22-6m45 7l-2 1 8 3 8 2-3-2a271 271 0 0 1-6-2l-3-1-2-1m58 2c0 2 1 2 2 2 0-1 0-2-2-2m-65 4l-5 3-4 4 6 2-4 1v-2l-5 1-12 10 36 12h3l16-14-3-4c-3-5-9-5-14-7l2-1 10 4 6 7 6-6-22-6-14-5c-1-1-1 0-2 1m59-1v3h2l-6 7v5l1 2 3-5 1 1 3-5v-1l2-3-2 1-2-4 4 1v-4l-3 2v-1l-3 1m8 7l-1-4c-1 1-1 6 1 4m-21 7v34l12-10-7-31c-2 2-6 4-5 7m19-6v9c-2-1-3 2-3 3l-2-2c2 3-2 4-1 6h-2l2 1c1-2 1-4 3-4l-1 3h1v-2l-1-2 3 1-1-2v-1l2-1 2 8c0-4-3-8 0-12l-2 2c-1-2 2-6 0-7M99 81l33 13 12-10h-3l1-3-4 1-13-5 1-1c-2-2-4 1-6 0l-6-2 2-2-4-1-13 10m141-1c1-2 3-4 2-6-2 1-4 4-2 6m-31 8l-3 2v1l-9 8v8l2-2-2 5v6c2-1 3-2 3-4l4 3-1 1 4-2v-8c-3-1-3 1-3 3l-3-6 2 1 1-4c3-3 3-7 6-10l1 2 1 2-2 3c3 4 4 8 4 13l-3 8c0 2 3 3 4 4v-2c2 0 2-1 1-2l1-1c2-1 5-2 6-4v-3l-1-33-13 11m29-8c1 1 1 1 0 0m-1 2c1 1 1 1 0 0m-98 13l3 2 3 1 22 8 8 3h3l12-11-38-13-13 10m104-4c-1 2-5 4-3 7 1-3 2-6 5-7a469 469 0 0 0-2 0M62 89l3 16c3 1 3 5 7 4l-2-17-8-3m177 4l1-1c1-1 0-2-1-3v4M73 93l1 16h2l3 4-4-19-2-1m7 3c1 4 1 9 4 13 0-3-3-6 0-8 1 2 2 2 4 1l-7-1 1-2 3-1-5-2m58 0l-14 11 39 16 14-12c-3-3-6-3-10-5l-29-10m103 6l1 1c1-2 1-4 4-5v3l1-4c-3 1-5 3-6 5m-149-1c0 2 2 3 4 3 0-2-2-4-4-3m75 23l3 38c3-2 6-4 6-8v2h1c-1-4 0-7 2-10l-1 9 2-4 1-2c2 0 3-2 4-3s2-2 4-1l-1-2 2 1c3-1 0-4-2-2l1-1 3 1 3-3-1-15c0-2 1-4-1-5v1l-4 2c-10 7-13 20-13 31-1-6 0-12 3-18 2-4 1-9 2-13 2-6 6-12 12-14v-6l-26 22m-77-22l1 7 1-2c2 2 5 5 5 8 0 2-1 0-2-1h-3v3l-2-1 1 6 9-2-3-12c-1-3-4-4-7-6m153 2c-1 3 4 0 0 0m-143 0c0 5 2 9 3 14v-1l2 9 1 5 3 12 3 1-2-12v-4c0-2 0-5-3-6v-3l-3-1a451 451 0 0 1-1-3c1-2 0-4-1-6l2-4-4-1m128 10l-1 1v7l4 4 3-6 3 2-3 7-7-5c1 1 2 5 5 4l-1 1 1 1-1 2-1 1 3 3v-2l-1-1h3l-1 1 3 2 2-3v5l6-5-5-24c3 2 2-4 0-1l-1-4-11 10m-143-9c1 1 1 1 0 0m3 4c-1 0-3 4-1 5 1-1 3-4 1-5m101 10l-3 3 7-4-1-3 2-6c-4 2-6 6-5 10m-115-6v8l6 1v-2c0-3-2-7-6-7m171 0v1l-3 4c0 2 2 3 4 2v-5-2h-1m-174 1v3l-2-1 1 5 3-1-2-6m-18 3l4 6 3 2-3-5-1 1c0-2-2-3-3-4m144 0l1 19 14-12-6-6-9-1m20 7l3 2 1-3c1-1 4-2 1-3l2-2-7 6m-133-4c-1 1 0 3 1 3 2 0 1-4-1-3m27-1a48 48 0 0 0 2 12v3l1 10 9 4-1-9v-1l-1-5-1-5c-2-1-3-4-4-6l-3-2-2-1m25 2l2 7c-3 2 0 6-1 8l-4-8v16l1 8 13 5h-1a479 479 0 0 1 13 4 102 102 0 0 1-2-14l-2-23-7-2 2 4-4-5c0 4 2 7 3 11h-2a473 473 0 0 0 1 16l-3-11-1-5-2-4-6-7m-72 1c-1 2 1 4 3 4 0-2-1-4-3-4m11 2l1 7c2 0 3-2 4-4l-3 3 2-7-4 1m20-1l-3 2-1 2 2-1v3h3l-3-3 7 1c-3 2 0 3 1 5l-2 2 1 4-2-6-2 3v-2l-5-5c0 2 1 5 3 7l1-1c2 2 3 5 6 6h1l4 2a167 167 0 0 0-2-6c0-5-2-12-9-13m150 0c1 1 1 1 0 0m-118 3v6l1-4c0-1 0-4-1-2m29-1l3 24 1 13h3l-1-12-2-22c0-2-2-2-4-3m56 3l4 3 1-3-3-2-2 2m9-2c0 2 0 2 2 2 0-2 0-2-2-2m-97 1l2 7c0-2 2-6-2-7m94 5l4 3v4l-4-1 6 6-2-5c2-1-1-4 1-5l-4-2 1-4-2 4m-158-4l1 4h1l5 10-3-1 2 10h1v3h-2l-2-4c-1-2-1-5-3-6l-1 3h2l-1 9 1 5 9 3h1l3 2 5 1v1h2l2 1 5 2c1 2 2-1 1-2l-3-14-2-10-3-9-2 7h-1l-2 5h-1l-1-5-2-2-1-1-3-7-8-5m185 1c1 1 1 1 0 0m-174 3c-2 3 3 1 0 0m143 1c-1 2 1 2 2 1s-2-2-2-1m13 1l2 2-2 2 4 3-4 4 4-4 2 3 2-2 3-3-4 1v2l-2-2 2-1c-3 0-4-4-7-5m-29 9c3-2 6-4 7-8-3 3-6 5-7 8m43-3l-3 3-2 4h1c0 5-6 7-10 8v1c3 0 3 4 6 6l3-5-2-2 2-2 4 3v1l2-1 2 2-3 6c-2 2-4 2-7 3l-2 10 13-14v-20l1-1-1-4-4 2m-34 1l1 2c2 1 3 5 6 6 2 2 3 4 6 5l1 1 3-3-3 2-9-9-1-2-4-2m-79 9c1-3 1-6-1-8-1 3-1 6 1 8m-30-6l1 5-2-3v6l-2-1 1-1-7-5 1 9 1 5v1l2 13 9 4 12 5h1l6 3 7 2-3-24-1-11-7-2-10-4-4-1v-1h-5m108 0l1 3c1 1 3 4 5 2l-6-5m17 0v3c2 0 2-3 0-3m-160 1l1 5c2-1 1-5-1-5m167 0c1 1 1 1 0 0m-44 1c1 1 1 1 0 0m5 3c-2-1-3 2-2 3-2 5-2 12-7 14l4-7 1-3 1-5c-2 2-7 6-3 9-2 2-4 4-6 3l-1-2c2 0 3-1 3-2l1-3-4 5c-2 1-4 2-4 4l3 19c3 2 7 1 9 0l-2-3c-1-4 0-7 1-10l11-24-2 1v-3l-3 4m-8 1c1 0 2 0 2-2-2 0-2 1-2 2m37 0c0 4 3-1 0 0m-12 1c-1 1-1 3 1 2 1 0 1-3-1-2m3 0c0 1 2 3 3 2 0-1-2-3-3-2m19 0c1 1 2 2 3 1-1-2-1-2-3-1m-30 7v18l7-6-2-3 3 2v-2h2l1-2 3-2-2-2-1-1 1-1h2l-7-1v4l4 3-3 1-1-2-2 1-1-4v-2l1-2h-2l3-4c-3-1-5 3-6 5m-72-4l1 13h1l2 21c0 2 2 2 3 2l15 6v1h4v1l9 3 2 1 1 1-1-16-2-17 1-3h-2l-3-1a194 194 0 0 1-11-4v-1l-14-5-6-2m79 3l8-1 2 5 2-2-3-3-3-2-6 3m16 4l-1 1 2 1v-5l-1 3m-30 13l1-6 1-1c0 4-1 10 2 12v-13l-1 1-2 1 3-9c-4 4-4 10-4 15m34-17v4-1l1 10-1 2 5-2c3-5-1-10-5-13m-4 7c1 1 1 1 0 0m-161 1l1 5 2 10 1 4 2 8 5 2 3 1 1 1 5 2 4 2 3 1v1l6 2-1-3-3-17-1-8-2-1a405 405 0 0 0-3-1l-2-1h-2l-2-2-7-2-10-4m109 2v5c2-2 3-5 2-7l-2 2m44 0c-2 0 1 3 1 0h2c1-3-4-3-3 0m-5 4c4 2 9 2 14 2l-3-3 1 2h-6c0-2 3-3 4-4-3 2-7 0-10 3m12-3c0 1 1 3 3 3 0-1-1-3-3-3m-21 12l-1 3c3 1 6 4 8 2l-5-2c2-2 4 0 6 0l3-10-2-2-9 9m-30-1c2 7 2 15 3 23l14-13 2-4-8 2c-2 0-4-1-5-3l-2-8-4 3m-77-1l1 4 2 11a210 210 0 0 0 2 13 1068 1068 0 0 0 21 9v1l4 2c2 2 5 2 8 3 0-5 0-11-2-16v-4l-1-9-8-3a319 319 0 0 0-27-11m101 8l-1 1c-5 3-5 9-5 14l3 2 5-5c3-3 1-7 1-10 1-1-2-6-3-2m17 3c-3 0-6-1-8 1 1-2-2-3-3-4v9l1 11v3l11-11 11-13c-4 2-8 4-12 4m-79 5l3 22 1 8 13 6 12 5v1l7 3v-8l-1-9c-1-5 0-10-2-15l-4-1-8-4-4-1-14-6-3-1m46 8c-2 2-5 4-5 7l3 28c6-5 11-12 16-18 3-2 6-4 6-8v-13l-7 5c-2 1-3 0-3-1v-9l-10 9zM66 64c4-1 0 4-2 3 0-2 2-3 2-3z" />
    <path
        d="M187 134l6-13c-1 6-5 11-7 17-3 1-3 5-5 7l-1-3 7-8zM238 148h2v2l3 3-1 3-2-4-1 3-1-1v-6zM208 159l3 2v2c-2 0-3-2-3-4zM177 165l3 3c-2 2-3-2-3-3zM37 238v-11l21 29H32l-1-2-6-16c2 2 5 4 8 3 2 0 4-1 4-3zM23 231l2-2v8l-2-6z" />
    <path fill="#68aad6" d="M121 28l13-9 15 4v2l12 4-2 3-7-2-13-2c-5 0-9 3-14 3l-4-3z" />
    <path fill="#96c9e4" d="M149 25v-2l16 5-13 10-15-6c-2-1 1-2 2-4l13 2 7 2 2-3-12-4z" />
    <path fill="#f4d16a" d="M25 30l7-5c-1 3-3 8-2 12l-5-7z" />
    <path fill="#f5d268"
        d="M57 27v-2l4 5-2 2 2 8-1-8c2 1 4 3 7 3h28l3 3v4L75 58c-2-3-4-7-7-9-3-1-6 0-8 1l-2-3c-3-6 0-13-1-20z" />
    <path fill="#78b2db" d="M111 35l10-8v1l4 3c5 0 9-3 14-3-1 2-4 3-2 4l15 6c-3 2-6 5-10 3l-9-3-3-1-1 3h-2l-16-5z" />
    <path fill="#81bade" d="M151 44l19-14c10 3 20 5 29 9-5 2-11 3-17 2v2l3-1-2 3 7 3-1 1-9-2-11 2-18-5z" />
    <path fill="#e6bf4c" d="M0 31l1 22v92H0V31z" />
    <path fill="#f5d267"
        d="M239 35c4 0 9 1 12-3 2 5 5 10 4 16v30c-2 3-2 7-1 10l-2-8-4 6 1-34-31-10h2c-3-2-5-4-5-7h24z" />
    <g fill="#aeb7bc">
        <path
            d="M129 40l1-3 3 1h-1c-2-1-3 2-1 2h1l12 3-3 2-14-5h2zM117 68l14-11 4 2c2 0 5 1 6 3l-6 3c-6-4-11 1-15 4l-3-1zM206 144l6 5c-2 2-4-1-5-2l-1-3zM189 152c-1-1 0-4 2-3l-2 3z" />
    </g>
    <g fill="#8498b3">
        <path d="M100 43l7-5 19 6-2 1h-4l-10-2h-10zM241 140l4-2 1 4-5-2zM208 151c2-1 2 2 1 2-2 1-2-1-1-2z" />
    </g>
    <path fill="#070208" d="M131 40c-2 0-1-3 1-2l-1 2z" />
    <g fill="#f68a61">
        <path
            d="M132 38h1l9 3-10-3v2h-1l1-2zM96 135l2-3 2 6 1 2c-3-1-4-4-6-6l1-1v2zM134 142l2 2c4-2 7 3 10 3l1 5c-5-1-9-3-13-6v-4zM80 151l3-4 1 3c-2 1-4 2-3 5l-2-5 1 1z" />
    </g>
    <path fill="#92c8e4" d="M182 41c6 1 12 0 17-2h3l-12 9-7-3 2-3-3 1v-2z" />
    <path fill="#95c8e5"
        d="M198 49l10-8 15 4-2 4 4 1c-1 1-3 4-1 5 3 3 8 2 11 4l-13 11-21-6 6-2-8-3-10-3c2-3 6-5 9-7z" />
    <g fill="#1f3456">
        <path
            d="M100 46c2-1 6-3 8 0l-5 2 3-2c-2-2-4 0-6 0v2l-3-1h3v-1zM212 189c4 0 8-2 12-4l-11 13-11 11v-3l4-7-2-8-3 4v-2l3-3c2-2 5-1 8-1z" />
    </g>
    <g fill="#adb5ba">
        <path
            d="M120 45h4l-20 14 7-3-3 4 9-4-5-1 7-3c6-2 11-5 17-5l2 1-6 4c-3-1-6 0-8 2l-2 3 4-2c-4 5-10 8-15 11l-15-5 24-16zM164 56l1 1 2 1-4 4-4 1-5 4 3-1 5 2-1 1 3-1c-2 2-4 5-7 4-4 0-6 3-9 5-1 2-3 1-4 1 2-2 5-4 5-7-1-4-7-4-10-3l10-6c5-1 11-3 15-6zM217 124l7-6-2 2c3 1 0 2-1 3l-1 3-3-2zM214 133c0-1 3 0 2 1s-3 1-2-1zM223 144c2 0 2 3 0 3v-3zM237 147l1 1c-1 5-6 8-11 7 4-1 10-3 10-8zM207 157l6-3 3 2 3 3-2 2-2-5-8 1zM203 163l1-2 1 4 2-1 1 2 2 1h-2v2l-3-2-2-4zM215 167c-1-3 4-3 3 0h-3zM210 171c3-3 7-1 10-3-1 1-4 2-4 4h6l-1-2 3 3c-5 0-10 0-14-2zM222 168c2 0 3 2 3 3-2 0-3-2-3-3z" />
    </g>
    <g fill="#fefeff">
        <path
            d="M124 45l2-1 10 3c-6 0-11 3-17 5l-7 3 5 1-9 4 3-4-7 3 20-14zM147 46h5l3 1 3 1a358 358 0 0 1 6 2l17 6c-3 1-7-2-10-2a176 176 0 0 1-16-5l-3-1-5-2zM187 57l2 1 3 1a116 116 0 0 1 6 2l3 2-8-2-8-3 2-1z" />
    </g>
    <path fill="#f5ce5a"
        d="M17 51l1-5 2 5 3-2 4 6-2 2-1 5 4-5c1 5 0 10-1 15 0 5 0 11-3 15-2 3-5 5-8 6l-8 18-2 1-3-4-2 4V53l3-6c4 2 7 1 11 1l2 3z" />
    <path fill="#6fafd9" d="M223 45l20 6-8 8c-3-2-8-1-11-4-2-1 0-4 1-5l-4-1 2-4z" />
    <path fill="#f0de87" d="M36 47c2 0 3 3 1 4l-1-4z" />
    <path fill="#a0d0e9" d="M169 49l11-2 9 2-6 5-14-5z" />
    <g fill="#fefefe">
        <path
            d="M142 50l22 6c-4 3-10 5-15 6l-10 6-9 5-2-1c2-2 6-4 7-7l6-3 2-1-11-4c2-1 4-4 7-3v-1h3v-3m2 1v3l-2-1c0 3 3 3 5 4l4-3-7-3zM124 54c2-2 5-3 8-2l-5 3-3-1zM99 81l13-10 4 1-2 2 6 2c2 1 4-2 6 0l-1 1-4 1 18 6-1-2 4-1-1 3h3l-12 10-33-13zM139 95l13-10 38 13a479 479 0 0 1-15 11l-8-3-22-8-3-1-3-2zM207 141l4 2 1 2 9 9 3-2-3 3-1-1c-3-1-4-3-6-5-3-1-4-5-6-6l-1-2zM207 158l7 1h-2l-1 1v1l-3-2c0 2 1 4 3 4h1v-2l2 2-3 2-4-3v-4zM223 161l1-3v5l-2-1 1-1z" />
    </g>
    <path fill="#3b565f" d="M144 51l7 3-4 3c-2-1-5-1-5-4l2 1v-3z" />
    <path fill="#fffffd" d="M165 57l10 3-6 3c1 2-2 3-4 5l-8-3 2-2 4-1 4 1 4-2c0-2-3-2-4-3l-2-1z" />
    <path fill="#4f6069" d="M163 62l4-4c1 1 4 1 4 3l-4 2-4-1z" />
    <path fill="#818362" d="M245 59c2 0 2 1 2 2-1 0-2 0-2-2z" />
    <g fill="#5b5843">
        <path
            d="M239 62l3-1v1l3-2v4l-4-1 2 4v3l-3 5-1-1-3 5a706 706 0 0 0-1-7l6-7h-2v-3zM181 145c2-2 2-6 5-7l-2 6a544 544 0 0 0 1 2c-1 1-2 3-4 3l-1-7 1 3z" />
    </g>
    <path fill="#66808d" d="M175 66l5-3 5 2c-3 2-7 2-10 1z" />
    <path fill="#babec0" d="M91 64l6 2c-2 0-4 2-1 3-3-1-5-3-5-5z" />
    <g fill="#edf4d4">
        <path
            d="M247 69c-2 2-2-3-1-4l1 4zM243 67l2-1-2 3v-2zM245 70c2 1-1 5 0 7l2-2c-3 4 0 8 0 12l-2-8-2 1v1l1 2-3-1 1 2v2h-1l1-3c-2 0-2 2-3 4l-2-1h2c-1-2 3-3 1-6l2 2c0-1 1-4 3-3v-9zM136 195l14 6 1 3-1 2c-5 0-9-2-14-3v-8z" />
    </g>
    <path fill="#b0b5b9" d="M96 69c-3-1-1-3 1-3l10 3-3 3-8-3z" />
    <path fill="#85bfe0" d="M196 67l22 6-6 6-6-7-10-4v-1z" />
    <path fill="#405882" d="M226 76c-1-3 3-5 5-7l7 31-12 10V76z" />
    <path fill="#5ebbe4" d="M60 83l4-9 11-1 11 11-8 6-18-7z" />
    <path fill="#707152" d="M240 80c-2-2 0-5 2-6 1 2-1 4-2 6z" />
    <g fill="#556771">
        <path
            d="M201 76l5 1-1 4h-4 3l-1-4-4 3h-2l4-4zM201 180l9-9 2 2-3 10c-2 0-4-2-6 0l5 2c-2 2-5-1-8-2l1-3zM201 186c1 1 4 2 3 4l-3 3v-7z" />
    </g>
    <path fill="#a76e66" d="M121 78l4-1 13 5 1 2-18-6z" />
    <path fill="#3f5984"
        d="M209 88l13-11 1 33-6-3 6 6c-1 2-4 3-6 4l-1 1-1 2v2c-1-1-4-2-4-4l3-8c0-5-1-9-4-13l2-3-1-2a203 203 0 0 0-2-4z" />
    <path fill="#f5cb4e" d="M254 88c-1-3-1-7 1-10v40l-2-9-1 5-2-1-1-6v18l-1-22V86l4-6 2 8z" />
    <path fill="#838667" d="M238 80c1 1 1 1 0 0z" />
    <g fill="#5dbbe4">
        <path
            d="M97 82l12 3 23 9-14 11-34-13 6-5c6 3 11 7 17 9 5 1 10-1 16-2-5-3-10-2-14-3-5-2-9-6-12-9zM138 96l29 10c4 2 7 2 10 5l-14 12-39-16 14-11z" />
    </g>
    <path fill="#a7a888" d="M237 82c1 1 1 1 0 0z" />
    <path fill="#48413b"
        d="M206 90l3-2 1 2c-3 3-3 7-6 10l-1 4-2-1 3 6-1 1 3 1-2 4-4-3c0 2-1 3-3 4v-6l2-5c3-5 6-9 7-14v-1z" />
    <g fill="#f1ee90">
        <path
            d="M243 91l2-3v3c-3 1-4 4-5 7-2-3 2-5 3-7zM241 102c1-2 3-4 6-5a179 179 0 0 0-1 4v-3c-3 1-3 3-4 5l-1-1zM136 203c5 1 9 3 14 3l1-2v7l-15-4v-4z" />
    </g>
    <path fill="#f57621" d="M62 89l8 3 2 17c-4 1-4-3-7-4l-3-16z" />
    <g fill="#f1f4d8">
        <path d="M239 93v-4c1 1 2 2 1 3l-1 1zM239 133l2-6 1 7-3-1zM121 189l8 3 1 9-4-2h-2l-3-10z" />
    </g>
    <path fill="#7e1e20" d="M58 90a1230 1230 0 0 0 0 5v4l-3-2c1-2 2-4 1-6l2-1z" />
    <path fill="#3b5b83" d="M197 99l9-8c-1 5-4 9-7 14l-2 2v-8z" />
    <path fill="#0a0200" d="M49 101l7-10c1 2 0 4-1 6l3 2 1 1-2 2-4-1 1 3-3 2-1-3-1-2z" />
    <path fill="#fa7a25" d="M73 93l2 1 4 19-3-4h-2l-1-16z" />
    <g fill="#f36f1f">
        <path d="M58 95l2 1 2 6a213 213 0 0 0-3-2l-1-1v-4zM82 190c0-4-1-8 1-12l3 1v12l-4-1z" />
    </g>
    <g fill="#f15625">
        <path
            d="M80 96l5 2-3 1-1 2 7 1c-2 1-3 1-4-1-3 2 0 5 0 8-3-4-3-9-4-13zM71 114l2 6-3 1-1-5 2 1v-3zM53 117c1 1 3 2 3 4l1-1 3 5-3-2-4-6zM88 128l-1-6 2 2-1 4zM151 207l1 17v7l-2-1-13-6-1-8 1 4v2l12 3-3-3h1l5 1v-4l-1-8v-4z" />
    </g>
    <g fill="#ae2122">
        <path
            d="M59 100l1 1 2 4-8-1-1-3 4 1 2-2zM133 194l3 1v21l-3-22zM150 201l4 1a218 218 0 0 1 1 22h-3l-1-17v-3l-1-3z" />
    </g>
    <path fill="#e46726" d="M92 101c2-1 4 1 4 3-2 0-4-1-4-3z" />
    <g fill="#3f5982">
        <path
            d="M167 124l26-22v6c-6 2-10 8-12 14-1 4 0 9-2 13-3 6-4 12-3 18v1c0 4-3 6-6 8l-3-38zM171 179l4-3 2 8c1 2 3 3 5 3l8-2-2 4-14 13c-1-8-1-16-3-23z" />
    </g>
    <path fill="#f47322" d="M90 102c3 2 6 3 7 6l3 12-9 2-1-6 2 1v-3h3c1 1 2 3 2 1 0-3-3-6-5-8l-1 2-1-7z" />
    <path fill="#6e6e51" d="M243 104c4 0-1 3 0 0z" />
    <path fill="#f5c840" d="M247 107l1-4 1 22v-18l1 6 2 1 1-5 2 9 1 33-9-3 1-40h-1c-2 0-1 2-2 4l-1-3 3-2z" />
    <g fill="#8e1c21">
        <path
            d="M100 104l4 1-2 4c1 2 2 4 1 6l2-1a451 451 0 0 0-2 3v1c-1-5-3-9-3-14zM115 186l6 3a243 243 0 0 0 5 16l2 9v1l-2-1-1 3-1-3-3-12-2-7c-1 6 0 13 1 20-3 0-6-1-8-3h2a250 250 0 0 0 2-17l-1-5v-4z" />
    </g>
    <g fill="#3f5983">
        <path
            d="M228 114l11-10a85 85 0 0 1 1 5l5 24-6 5v-5l3 1-1-7-2 6-5-4 3-7-3-2-3 6-4-4v-6h1v-2zM179 202l10-9v9c0 1 1 2 3 1l7-5v13l-2 1-4-7c-2 2-4 5-4 9-1 3 1 7-1 10l-9-22z" />
    </g>
    <path fill="#771e1a" d="M85 105c1 1 1 1 0 0z" />
    <path fill="#343f52" d="M204 109c0-2 0-4 3-3v8l-4 2 1-1 2-4c0-1 0-2-2-2z" />
    <path fill="#b13520" d="M51 107c4 0 7 2 11 3l3 4-11-4 1 2 1 3-5-3v-5z" />
    <path fill="#757b98" d="M217 107l6 3v3l-6-6z" />
    <path fill="#69674d" d="M240 108c2-3 3 3 0 1v-1z" />
    <path fill="#f5c73c"
        d="M3 108l3 4 2-1v4c1 2 3 5 3 8l6 27c-2 5-1 9-1 14H8l-1-4-1 10c-1-3-1-7-3-10l-2 9v-24-33l2-4z" />
    <path fill="#370c0c" d="M88 109c2 1 0 4-1 5-2-1 0-5 1-5z" />
    <path fill="#d4d1d0" d="M203 110l1-1a331 331 0 0 0-1 1z" />
    <g fill="#54666f">
        <path
            d="M243 110l1-1 1 3-3 3 1-5zM232 130l4 2-1 1h-3l1 1-2-2 1-2zM200 158c1-2 3-6 6-5l-3 4h2l-1 2v2l-1 2 2 4 2 3-7 6v-18z" />
    </g>
    <path fill="#feffff" d="M189 119c-1-4 1-8 5-10l-2 6 1 3-7 4 3-3z" />
    <path fill="#f67e24" d="M54 110l11 4 3 8-13-10-1-2z" />
    <path fill="#b43d20" d="M74 113c4 0 6 4 6 7l-5-5-1 5v-7z" />
    <path fill="#8a8b65" d="M245 113h1v2l-1-1v-1z" />
    <path fill="#f5c536"
        d="M49 126l2-12 11 59c-1 3 0 7-4 9v-5l2 2-1-4-2 3H39c0-4 2-9-1-13 0-5 1-11 3-16 3-7 5-14 6-22l2-1z" />
    <path fill="#6f789a" d="M227 115l1-1v2h-1v-1z" />
    <path fill="#585741" d="M242 118l3-4 1 1v5c-2 1-4 0-4-2z" />
    <g fill="#fe7f24">
        <path d="M75 115l5 5v2l-6-1v-1l1-5zM156 125c2 1 4 1 4 3l2 22-3-1-3-24zM102 139c-1-2 1-2 2-3l1 2-3 1z" />
    </g>
    <path fill="#d23d22" d="M103 117l1-1v2l3 1v3c3 1 3 4 3 6 0-3-2-4-5-6v4l-2-9z" />
    <g fill="#ee2532">
        <path d="M197 117l9 1 6 6-14 12-1-19zM193 174c0-5 0-11 4-15l-3 9 2-1h-1l-1 1-1 6z" />
    </g>
    <g fill="#f7f1e8">
        <path
            d="M215 120l1-2c1 1 1 2-1 2zM227 134c3 1 4 5 7 5l-2 1 2 2v-2l4-1-3 3-2 2-2-3-4 4 4-4-4-3 2-2-2-2zM94 178l21 8v4l-5-1c-5-1-10-5-15-7l-1-4z" />
    </g>
    <path fill="#491517" d="M84 120c2-1 3 3 1 3-1 0-2-2-1-3z" />
    <path fill="#681717" d="M111 119l2 1 3 2c1 2 2 5 4 6l1 5-2-1-1-3c-1-1-1-5-3-4l-2 2-1-6v5l-1-7z" />
    <g fill="#ef2533">
        <path
            d="M193 119c2 1 1 3 1 5l1 15-3 3-3-1-1 1-4 2 2-6c2-6 6-11 7-17v-2zM212 128l2-2a642 642 0 0 0 2 5l-4-3zM218 132l2-4-1 4 4 2c-2 1 1 4-1 5v-4l-4-3zM211 161v-1l1 1v2h-1v-2z" />
    </g>
    <g fill="#fffefd">
        <path
            d="M189 122l4-2v1l-6 13-7 8 1 7-1 2-2 4 1-9c-2 3-3 6-2 10h-1v-3c0-11 3-24 13-31zM227 124l7 5 5 4-2 3-3-2 1-1 1-1-4-2-1-1 1-1c-3 1-4-3-5-4zM230 133l1-1 2 2v2l-3-3zM239 155l1-3 2 4-2 1v-1l-1-1z" />
    </g>
    <path fill="#c63f25" d="M112 121l1 6 2-2c2-1 2 3 3 4l-3 1-2-2a288 288 0 0 1-1-7z" />
    <path fill="#91311d"
        d="M136 121l6 7a263 263 0 0 1-1 1l-2-2c0 4 2 8 0 11l-3 1c0-3-1-5-3-7l1 10v10l-1-8v-16l4 8c1-2-2-6 1-8l-2-7m2 12c-1 2 0 2 1 3 1-2 0-2-1-3z" />
    <path fill="#2d0b0c" d="M64 122c2 0 3 2 3 4-2 0-4-2-3-4z" />
    <path fill="#f67e23" d="M146 121l4 5-2-4 7 2 2 23c-3 1-6-1-8-3a512 512 0 0 0-2-12h2c-1-4-3-7-3-11z" />
    <path fill="#f4d66e" d="M28 123c3-1 2 4 0 5v-5z" />
    <path fill="#f16830" d="M75 124l4-1-2 7 3-3c-1 2-2 4-4 4l-1-7z" />
    <path fill="#9b321d"
        d="M95 123c7 1 9 8 9 13-1 1-3 1-2 3v1h-1l-1-2-1-4 2-2c-1-2-4-3-1-5l-7-1 3 3h-3v-3l-2 1 1-2 3-2z" />
    <path fill="#fa7f29" d="M105 122c3 2 5 3 5 6v4l-4-1-1-5v-4z" />
    <path fill="#6f6e6a" d="M245 123c1 1 1 1 0 0z" />
    <path fill="#7b2416" d="M127 126c1-2 1 1 1 2l-1 4v-6z" />
    <path fill="#545355" d="M221 126c2 0 2 0 2 2-2 0-2 0-2-2z" />
    <path fill="#330910" d="M124 127c4 1 2 5 2 7l-2-7z" />
    <path fill="#84221e" d="M91 128l5 5-1 1-1 1c-2-2-3-5-3-7z" />
    <path fill="#f8812f" d="M113 128l2 2 3-1 1 3 2 1 1 5-5-4-1 2v-3l-3 1v-3-3z" />
    <path fill="#f67f21" d="M139 127l2 2 3 3 1 5v1l-1 3-3-3-2 4-3-3 3-1c2-3 0-7 0-11z" />
    <path fill="#a13123" d="M60 128l8 5 3 7-8-8h-2l-1-4z" />
    <path fill="#8b9072" d="M245 129c1 1 1 1 0 0z" />
    <g fill="#f79a9a">
        <path d="M62 132h1l8 8 1 1 2 2 1 5-5-1v2l-3-7-5-10zM111 147c2 2 1 5 2 8l-1-2-1-6z" />
    </g>
    <path fill="#f88c55" d="M106 131l4 1 2 12-3-1-3-12z" />
    <path fill="#3e180c" d="M71 132c3 1-2 3 0 0z" />
    <path fill="#f78a66" d="M113 134l3-1v3l1-2 5 4v1l1 9-9-4-1-10z" />
    <path fill="#f5853f" d="M133 132c2 2 3 4 3 7l3 3 2-4 3 3 1-3 1 9c-3 0-6-5-10-3l-2-2-1-10z" />
    <path fill="#f76b2c" d="M138 133c1 1 2 1 1 3-1-1-2-1-1-3z" />
    <g fill="#ee2432">
        <path
            d="M198 143c1-3 4-5 7-8-1 4-4 6-7 8zM191 149l3-4v3l2-1-11 24c-1 3-2 6-1 10l2 3c-2 1-6 2-9 0l-3-19c0-2 2-3 4-4l-1 4c0 1 1 5 3 3l2-2c5-2 5-9 7-14l2-3zM216 167c0 3-3 0-1 0h1z" />
    </g>
    <path fill="#590e0d" d="M79 143l2-7 3 9-2-2v2l-4-1 1 6 2 5 4 12-2 1-3-7 1 7h-2v-1c-1-6-1-13-3-19l2-5h1z" />
    <path fill="#3a0001" d="M145 137l3 11v-8a512 512 0 0 1 2 17h-4 1v-1-4l-1-5-1-9v-1z" />
    <g fill="#f79079">
        <path d="M102 139l3-1 1 4-4-2v-1zM134 146c4 3 8 5 13 6v5l-13-5v-6z" />
    </g>
    <path fill="#525353" d="M218 138l4 1 2 5-6-6z" />
    <path fill="#3e5a83" d="M241 140l5 2-1 1-4 6 3 3-1 1-3-3v-2l-2-5 3-3z" />
    <path fill="#993527" d="M64 141l3 1 3 7v4l-3-2h-1l-2-10z" />
    <path fill="#b0afaf" d="M184 144l4-2c2-2 5 1 2 2l-2-1 1 2c-2-1-3 0-4 1l-1-2z" />
    <path fill="#e74927" d="M82 143l2 2 2 10-2-5-1-3-3 4-1-1-1-6 4 1v-2z" />
    <path fill="#4f1610" d="M128 150c-2-2-2-5-1-8 2 2 2 5 1 8z" />
    <path fill="#a32c21" d="M60 144c2 1 2 4 3 6l-2 5-1 1 1-9h-2l1-3z" />
    <path fill="#d63f20" d="M98 144h5v8l-3-4v6l-2-3v1h-1v-6l2 3-1-5z" />
    <path fill="#f58750" d="M149 144c2 2 5 4 8 3v5l-8-2v-6z" />
    <path fill="#48494d" d="M236 147l2-4 2 5h-2l-1-1h-1z" />
    <path fill="#203459" d="M241 149l4-6v20l-13 14 2-10c3-1 5-1 7-3l3-6-2-2 1-3 1-1-3-3z" />
    <path fill="#e6b320" d="M0 145h1v24 86h14c5 0 11 1 16-1l1 2H0V145z" />
    <path fill="#8c3326" d="M63 145c2 0 3 4 1 5l-1-5z" />
    <g fill="#f24d22">
        <path d="M89 145l7 5-1 1 2 1h1v4l-4-4-5-4 1 6-1-9zM163 225h1c0 3 3 4 5 6v8l-7-3v-1l1-10z" />
    </g>
    <path fill="#f8a5a9" d="M103 146v-1l4 1 2 10v1l-3 1-2-3-1 2-3-3v-6l3 4v-6z" />
    <path fill="#a49c91" d="M185 146z" />
    <path fill="#797979" d="M230 145c1 1 1 1 0 0z" />
    <path fill="#5e1817" d="M107 146l10 4-3-1a6330 6330 0 0 1 0 8l-1-2c-1-3 0-6-2-8l1 6-3 3-2-10z" />
    <path fill="#c4c2c3" d="M186 146c1 1 1 1 0 0z" />
    <g fill="#f8b1b6">
        <path
            d="M70 147l5 1h1c2 6 2 13 3 19l-5-1 1-3-5-3-1-3v-2l2 2 5-1c-1-2-3-4-6-4v-1-2-2zM81 173h2l-1 3c-2 0-1-2-1-3z" />
    </g>
    <path fill="#616060" d="M183 150c0-1 0-2 2-2 0 2-1 2-2 2z" />
    <path fill="#f8b4c2" d="M89 148l5 4 4 4v-4-1l2 3 3 3 1-2 2 3 3-1 2 7-14 1c-3 0-4-4-6-5v-1l-1-5-1-6z" />
    <path fill="#ff977b" d="M159 149l3 1 1 12h-3l-1-13z" />
    <path fill="#4f5c64" d="M238 148v6l1 1 1 1-4-3-2 2 2 2-3 5c-3-2-3-6-6-6v-1c5 1 10-2 11-7z" />
    <path fill="#f8572c" d="M61 155l2-5 2 4v3l2-2 1 2h1a56 56 0 0 0 2 7h-1l-4-6-3 1-2-4z" />
    <path fill="#f8b0bb" d="M81 155c-1-3 1-4 3-5l2 5v11l-1 1-4-12z" />
    <path fill="#f6a1a5" d="M114 149l3 1 7 2-1 10c-3 0-5-2-7-5v8l-1-12-1-4z" />
    <path fill="#f79072" d="M149 150l8 2 2 9-9-4-1-7z" />
    <path fill="#c02137" d="M220 150c3-1 0 4 0 0z" />
    <path fill="#f5c22b"
        d="M16 164c0-5-1-9 1-14l1 19c1 7 5 14 5 21 0 5 0 10-3 14l-2 6-1-2c-4 0-7 0-11 2v4l-4-10c0 4 1 8-1 13v-19-29l2-9c2 3 2 7 3 10l1-10 1 4h8z" />
    <path fill="#c64c32" d="M67 151l3 2v-2 1l1 3-3-1v3l-1-2-2 2a395 395 0 0 1 2-3v-3z" />
    <path fill="#333132" d="M211 151c1-1 3 1 3 2-1 1-3-1-3-2z" />
    <path fill="#424441" d="M230 151c2-1 2-1 3 1-1 1-2 0-3-1z" />
    <path fill="#f59685" d="M70 152c3 0 5 2 6 4l-5 1-2-2v2h-1v-3l3 1-1-3z" />
    <path fill="#831a1d" d="M124 152l1 11-4 22-6-3-2-12 3-5v4l3 12 3-12 1-7 1-10z" />
    <path fill="#eaeaea"
        d="M185 160c-4-3 1-7 3-9l-1 5a97 97 0 0 0-5 10l-2 2-3-3 1-4 4-5-1 3c0 1-1 2-3 2l1 2c2 1 4-1 6-3z" />
    <path fill="#711718" d="M112 153l1 2 1 2 1-4 1 12-3 5-2-6-2-7v-1l3-3z" />
    <path fill="#621212" d="M128 154l6 2v23c-1-4-1-9-3-13l-1 1h-1l-1-13z" />
    <path fill="#ec7331" d="M61 155l2 4 3-1 4 6-9-3-1-5 1-1z" />
    <path fill="#761716" d="M86 155l3 14-1 2-5-2v-1l2-1 1-1v-11z" />
    <g fill="#f7b6bf">
        <path d="M116 165v-8c2 3 4 5 7 5l-1 7h-6v-4zM81 168l-1-7 3 7v1l-2-1z" />
    </g>
    <path fill="#f7a3a6" d="M134 156l14 5v1l1 15 1 20v-1l-1-10-1-7v-10l-2 5c-3-4-9-4-12-8a177 177 0 0 1 0-10z" />
    <path fill="#e8e7e7" d="M227 157c4 3 8 8 5 13h-1l-4-9v-4z" />
    <path fill="#e99686" d="M70 160l5 3-1 3-3-2-1-4z" />
    <g fill="#fad0d9">
        <path
            d="M91 160c2 1 3 5 6 5l14-1a3656 3656 0 0 1 4 18h-1v-6c-4 3-8 0-12 1l-9-4-2-13zM85 174l1 5-3-1 2-4zM88 175l2 1 1 8-3-9z" />
    </g>
    <path fill="#7e7e7e" d="M227 160v1l4 9h1l-5 2 1-2-1-10z" />
    <path fill="#821b21" d="M134 162a177 177 0 0 0 1 14 225 225 0 0 0 0 14c-1 0-3 0-3-2l-2-21 1-1c2 4 2 9 3 13v-17z" />
    <path fill="#6c1415" d="M148 162l3 1 1 10-3 4-1-15z" />
    <path fill="#fde4ee" d="M121 185l4-22 3 24-7-2z" />
    <path fill="#f8a1a4" d="M152 173l-1-10 8 3 1 7c-2 0-5 1-6-1l-2-4v5z" />
    <path fill="#878a83" d="M223 164c1 1 1 1 0 0z" />
    <path fill="#f4801d" d="M62 165l10 4h-5l12 7v-3 8c0-2 0-4-2-5l-14-6-1-5z" />
    <path fill="#3d547a" d="M171 167l2-2c1 2 0 5-2 7v-5z" />
    <g fill="#af1626">
        <path d="M211 165l-1 2-2-1 3-1zM162 206l4 1-1 7v3l-1 8h-3v-1a191 191 0 0 0 1-18z" />
    </g>
    <g fill="#f5c127">
        <path
            d="M38 165c3 4 1 9 1 13h18l2-3 1 4-2-2v5c4-2 3-6 4-9l5 19 29 29-4 4-2-5H43c-3 0-5 2-7 4-2-5-7-9-7-15 1-8 4-16 7-25 2-6 1-12 2-19zM165 214l1-7c2 5 1 10 2 15-1-2-1-4-3-5v-1c2 1 3-3 0-2z" />
    </g>
    <path fill="#f8b7c3" d="M134 166c3 4 9 4 12 8l2-5v10l-12-4-1 1-1-10z" />
    <path fill="#71090c" d="M159 166l3 1-1 1 1 7 1 12 2 15-2-1-2-10-1-9v-9l-1-7z" />
    <path fill="#4e5d65" d="M196 167l1-1v13c-3-2-2-8-2-12h1z" />
    <path fill="#eb9195" d="M161 168l1-1h1v1h-2z" />
    <path fill="#a14033" d="M163 167h1l-1 3-1 5-1-7h2v-1z" />
    <path fill="#f9bfb0" d="M72 169l7 2v5l-12-7h5z" />
    <path fill="#f9ccdd" d="M116 169h6l-3 12-3-12z" />
    <g fill="#f9b1bb">
        <path d="M152 168l2 4c1 2 4 1 6 1v9l-5-1-3-6v-2-5zM162 175l1-5 2 17h-2l-1-12z" />
    </g>
    <path fill="#783e3f" d="M88 171l1-2c1 1 0 4-1 2z" />
    <path fill="#f15421" d="M63 170l14 6c2 1 2 3 2 5l-1 4c-4-4-8-4-13-5l-2-10z" />
    <path fill="#57011a"
        d="M79 171l2 2c0 1-1 3 1 3l1-3 2 1-2 4c-2 4-1 8-1 12v8l-5-2c2 1 2 0 3-1l-1-6 1-4c-2 1-2 3-1 4a164 164 0 0 0-3 6l-3-1h1a123 123 0 0 0 4-9l1-4v-10z" />
    <path fill="#81171b" d="M152 173v2l2 22h-4l-1-20 3-4z" />
    <path fill="#fad2dc" d="M136 175l12 4 1 7-2 3-11-6-1 2v-9l1-1z" />
    <path fill="#6e171a" d="M85 174l3 1 3 9 3 17-3-9-3-6c-1 5 0 10 1 15l-3-1v-9-12l-1-5z" />
    <g fill="#faecf4">
        <path d="M102 177c4-1 8 2 12-1v6l-12-5zM136 183l11 6 2-3 1 10-15-6v-5l1-2z" />
    </g>
    <path fill="#facbda" d="M152 175l3 6 5 1 1 9c-1 1-3 2-4 1l-3-3v8l-2-22z" />
    <path fill="#f3691d" d="M65 180c5 1 9 1 13 5l-3 6c1-1-1-3-2-1l2 1-5-1 5-2-9-4-1-4z" />
    <path fill="#fab53a" d="M95 182c5 2 10 6 15 7h-8a205 205 0 0 0 6 5h-6l-5-1-2-11z" />
    <path fill="#f15027" d="M66 184l9 4-5 2 5 1-1 3h-1l-5-2-2-8z" />
    <path fill="#2f3134" d="M195 186c1-4 4 1 3 2-2 0-2-1-3-2z" />
    <path fill="#cb4e20" d="M79 189c-1-1-1-3 1-4l-1 4z" />
    <path fill="#e69f19" d="M88 186l3 6-2-1v11-1c-1-5-2-10-1-15z" />
    <path fill="#566771" d="M194 187l1-1c1 1 1 2 3 2 0 3 2 7-1 10l-5 5c0-6 3-11 3-17l-1 1z" />
    <path fill="#ffe6f1" d="M163 187h2l1 16-1-1-2-15z" />
    <path fill="#949498" d="M194 187l1-1c0 6-3 11-3 17l-3-2c0-5 0-11 5-14z" />
    <path fill="#fed10d" d="M73 190c1-2 3 0 2 1l-2-1z" />
    <g fill="#fee900">
        <path d="M79 189l1 6-3-2 2-4zM98 202l17 5-1 5h-2l-13-6-1-4z" />
    </g>
    <path fill="#fbe9a9" d="M102 189h8l5 1 1 5-12-5-2-1z" />
    <path fill="#f9ecf3" d="M154 189l3 3c1 1 3 0 4-1l2 10-9-3v-9z" />
    <path fill="#edee0a" d="M82 190l4 1v9l-4-2v-8z" />
    <path fill="#ff951c" d="M104 190l12 5-1 9v-6l-13-4h6l-4-4z" />
    <path fill="#f6e90e" d="M89 191l2 1 3 9 1 3-6-2v-11z" />
    <path fill="#405984" d="M201 195l3-4 2 8-4 7-1-11z" />
    <path fill="#d95323" d="M76 195l1-2 3 2c-1 1-1 2-3 1l-1-1z" />
    <path fill="#e7e614" d="M97 193l5 1 13 4v9l-17-5-1-9z" />
    <path fill="#fec50f" d="M119 195l2 7-2-2c0 5 0 12 5 14l1 3 1 1h-2l-4-2v-1c-1-7-2-14-1-20z" />
    <path fill="#f5f031" d="M126 199l4 2-1 3-3 1-2-6h2z" />
    <path fill="#e9f014" d="M119 200l2 2 3 12c-5-2-5-9-5-14z" />
    <path fill="#cc8b24" d="M130 201v14h-2v-1l1-10 1-3z" />
    <path fill="#1f3354"
        d="M174 209c0-3 3-5 5-7l9 22c2-3 0-7 1-10 0-4 2-7 4-9l4 7 2-1c0 4-3 6-6 8-5 6-10 13-16 18l-3-28z" />
    <path fill="#edf3ce" d="M154 202l8 4-5 4-2-1-1-7z" />
    <path fill="#f5be1c"
        d="M2 204l4 10v-4c4-2 7-2 11-2l1 2c3 7 2 14 2 21h3l2 6v1l6 16c-5 2-11 1-16 1H1v-38c2-5 1-9 1-13z" />
    <path fill="#e8e317" d="M126 205l3-1-1 10-2-9z" />
    <path fill="#5d0f10" d="M130 205c2 5 2 11 2 16-3-1-6-1-8-3h2l-1-1 1-3 2 1h2v-10z" />
    <path fill="#e7e514" d="M136 207l15 4 1 8c-5 0-9-1-14-3h-2v-9z" />
    <path fill="#f1ef91" d="M157 210l5-4v9c-2-1-5-3-7-1v-5l2 1z" />
    <path fill="#e9e613" d="M155 214c2-2 5 0 7 1l-1 9-1 2-4-1-1-11z" />
    <g>
        <path fill="#f7f284" d="M165 214c3-1 2 3 0 2v-2z" />
    </g>
    <g>
        <path fill="#f9ec00" d="M136 216h2c5 2 9 3 14 3v4l-5-1-10-2-1-4z" />
    </g>
    <g>
        <path fill="#f35c23" d="M155 215v-1l1 11 4 1 1-2v1c-1 3-1 6-3 8-3-2-2-6-3-9v-9z" />
    </g>
    <g>
        <path fill="#f7ed06" d="M165 217c2 1 2 3 3 5l1 9c-2-2-5-3-5-6l1-8z" />
    </g>
    <g>
        <path fill="#f5be1b" d="M36 224c2-2 4-4 7-4h47l2 5 4-4 35 35H58l-21-29-1-3z" />
    </g>
    <g>
        <path fill="#faa318" d="M137 220l10 2h-1l3 3-12-3v-2z" />
    </g>
    <g>
        <path fill="#671617" d="M152 224h3c1 3 0 7 3 9 2-2 2-5 3-8h2l-1 10-12-5 2 1v-7z" />
    </g>
</svg>