<?xml version="1.0" encoding="UTF-8" ?>
<!DOCTYPE svg PUBLIC "-//W3C//DTD SVG 1.1//EN" "http://www.w3.org/Graphics/SVG/1.1/DTD/svg11.dtd">
<svg width="1280pt" height="371pt" viewBox="0 0 1280 371" version="1.1" xmlns="http://www.w3.org/2000/svg">
<g id="#ffffffff">
<path fill="#ffffff" opacity="1.00" d=" M 286.66 0.00 L 311.61 0.00 C 322.27 1.72 332.09 8.06 337.90 17.16 C 341.86 23.35 343.55 30.72 343.92 37.99 C 344.31 41.80 342.15 45.19 340.66 48.53 C 336.59 56.86 329.66 64.66 320.19 66.54 C 309.71 68.53 299.18 65.26 289.40 61.70 C 294.35 58.51 300.13 54.93 301.49 48.76 C 302.09 45.59 301.28 40.41 297.05 40.65 C 290.81 41.02 285.35 44.69 280.88 48.81 C 271.02 58.04 264.60 70.09 257.38 81.32 C 255.23 84.84 252.76 88.21 251.20 92.05 C 245.09 106.67 238.90 121.26 232.78 135.88 C 242.50 137.24 253.04 139.33 262.34 135.07 C 263.24 143.27 264.19 152.33 259.67 159.70 C 257.38 163.54 253.27 165.86 249.01 166.84 C 239.80 169.41 230.11 167.89 220.98 165.75 C 205.00 205.37 189.03 245.03 170.58 283.59 C 161.82 301.96 151.98 320.05 138.68 335.57 C 123.14 354.13 101.43 368.62 76.89 371.00 L 59.44 371.00 C 42.93 369.44 26.22 363.58 14.32 351.65 C 6.13 343.58 1.49 332.52 0.00 321.23 L 0.00 304.31 C 1.72 292.79 7.28 281.73 16.00 273.94 C 23.30 267.42 33.26 264.35 42.97 264.88 C 53.28 265.07 62.98 269.58 71.06 275.75 C 65.59 277.19 59.77 279.78 57.30 285.24 C 55.66 288.95 54.32 294.13 57.54 297.38 C 61.72 300.76 67.63 300.34 72.60 299.36 C 83.85 296.72 93.31 289.35 101.23 281.22 C 113.87 268.00 124.15 252.62 132.29 236.27 C 136.11 228.62 139.95 220.99 143.41 213.17 C 151.88 193.31 160.57 173.53 168.08 153.28 C 159.40 152.83 149.70 153.83 143.10 160.08 C 136.91 166.41 136.31 175.89 136.20 184.24 C 125.96 175.64 118.99 162.54 120.00 148.93 C 120.72 137.07 129.63 126.29 141.15 123.36 C 153.91 119.92 167.03 123.63 179.83 124.87 C 186.94 107.43 194.66 90.22 203.49 73.57 C 216.09 49.28 232.11 25.51 255.81 10.84 C 265.14 5.01 275.83 1.64 286.66 0.00 Z" />
<path fill="#ffffff" opacity="1.00" d=" M 840.72 56.05 C 891.58 56.04 942.43 56.04 993.29 56.05 C 993.30 72.92 993.29 89.79 993.30 106.66 C 962.82 106.67 932.34 106.67 901.86 106.67 C 901.86 116.25 901.86 125.82 901.86 135.40 C 928.13 135.40 954.39 135.40 980.65 135.40 C 980.65 151.27 980.65 167.13 980.65 182.99 C 954.38 183.01 928.12 183.00 901.86 183.00 C 901.86 206.53 901.87 230.06 901.86 253.59 C 881.47 253.60 861.09 253.59 840.71 253.60 C 840.76 240.39 840.61 227.19 840.79 213.99 C 833.86 228.32 824.29 241.93 810.99 251.00 C 800.68 257.90 786.88 261.11 775.15 255.99 C 765.76 251.89 760.16 242.23 758.24 232.51 C 755.66 219.58 757.10 206.15 760.23 193.45 C 763.39 181.29 769.04 170.01 774.83 158.94 C 776.85 154.85 779.43 150.83 779.84 146.18 C 774.71 144.71 771.02 149.62 767.82 152.82 C 755.84 166.67 747.25 183.06 739.36 199.48 C 731.67 216.05 725.18 233.27 721.44 251.17 C 721.02 254.18 717.57 254.83 715.08 254.86 C 705.66 254.74 696.61 249.09 692.20 240.80 C 688.93 234.79 687.97 227.79 688.34 221.04 C 689.06 208.17 690.54 195.31 693.24 182.70 C 689.86 184.34 686.27 185.46 682.60 186.22 C 679.07 204.60 671.47 222.71 658.27 236.26 C 648.50 246.29 635.22 253.29 621.08 253.94 C 609.55 254.65 597.62 250.90 589.16 242.91 C 582.37 236.66 577.87 228.20 575.62 219.32 C 568.31 230.76 558.92 241.41 546.74 247.78 C 536.67 253.08 523.69 253.49 514.02 247.07 C 504.82 241.02 500.04 230.25 498.16 219.73 C 495.00 201.61 498.24 183.05 503.41 165.62 C 506.94 154.94 511.74 143.82 521.00 136.88 C 527.52 131.89 536.27 131.49 544.04 133.03 C 550.49 134.34 556.98 136.68 561.96 141.12 C 566.40 144.99 568.09 151.60 566.11 157.14 C 563.59 164.55 557.93 170.22 553.55 176.53 C 547.52 184.40 543.56 194.08 543.23 204.04 C 543.18 207.60 543.98 212.62 548.13 213.52 C 553.76 214.14 558.51 210.05 562.14 206.23 C 567.30 200.23 572.02 193.48 574.51 185.92 C 576.79 171.34 581.98 156.98 591.34 145.42 C 602.35 131.58 618.70 121.73 636.41 119.86 C 638.29 111.89 643.69 104.19 651.87 101.90 C 657.77 99.84 664.44 101.87 668.92 106.03 C 675.54 111.99 679.22 120.46 681.63 128.87 C 685.45 142.62 685.83 157.11 684.55 171.25 C 688.89 169.35 693.05 166.84 696.24 163.27 C 699.79 159.63 701.00 154.55 702.99 150.02 C 706.08 142.82 709.64 135.70 714.66 129.63 C 722.40 121.24 733.32 116.33 744.41 114.21 C 749.39 113.47 754.91 112.82 759.56 115.24 C 762.34 116.71 762.45 120.34 761.03 122.81 C 753.26 139.46 746.18 156.42 739.82 173.65 C 750.54 155.77 762.70 138.37 778.56 124.65 C 786.50 118.02 795.60 111.85 806.11 110.58 C 811.60 109.95 818.07 110.72 821.67 115.41 C 826.31 121.56 826.35 129.78 825.82 137.13 C 824.15 156.08 815.59 173.41 807.32 190.23 C 803.58 198.07 799.21 206.46 800.66 215.45 C 800.90 218.14 802.96 221.20 806.03 220.52 C 812.22 219.24 816.54 214.04 820.52 209.51 C 829.23 198.48 836.26 185.94 840.60 172.56 C 840.87 133.73 840.63 94.89 840.72 56.05 M 619.39 165.13 C 615.44 176.63 613.36 189.08 615.38 201.18 C 616.42 206.98 619.34 213.52 625.49 215.28 C 630.92 217.06 636.52 214.09 640.06 210.06 C 646.80 202.50 650.25 192.63 652.48 182.90 C 652.73 180.62 654.24 177.71 652.09 175.91 C 642.85 165.73 637.37 152.46 635.54 138.92 C 627.73 145.87 622.85 155.42 619.39 165.13 Z" />
<path fill="#ffffff" opacity="1.00" d=" M 1005.14 56.06 C 1025.52 56.04 1045.89 56.05 1066.27 56.05 C 1066.29 121.90 1066.27 187.75 1066.28 253.59 C 1045.90 253.60 1025.51 253.60 1005.13 253.59 C 1005.13 187.75 1005.12 121.90 1005.14 56.06 Z" />
<path fill="#ffffff" opacity="1.00" d=" M 1075.19 56.06 C 1099.15 56.03 1123.12 56.05 1147.08 56.05 C 1157.11 73.83 1167.99 91.21 1176.11 109.99 C 1184.63 91.53 1194.73 73.87 1204.51 56.05 C 1227.27 56.05 1250.04 56.03 1272.81 56.06 C 1251.92 86.97 1230.98 117.86 1210.07 148.76 C 1233.39 183.41 1256.68 218.09 1279.99 252.76 L 1280.00 251.27 L 1280.00 253.60 C 1255.49 253.60 1230.98 253.59 1206.48 253.60 C 1195.17 234.04 1182.55 215.14 1173.56 194.35 C 1163.75 214.93 1151.16 233.97 1139.64 253.60 C 1115.96 253.59 1092.27 253.60 1068.59 253.59 C 1092.45 218.65 1116.29 183.70 1140.15 148.76 C 1118.50 117.85 1096.83 86.97 1075.19 56.06 Z" />
<path fill="#ffffff" opacity="1.00" d=" M 547.15 67.15 C 556.24 65.64 566.07 66.21 574.39 70.47 C 580.62 73.58 585.49 79.91 585.55 87.06 C 585.73 95.74 580.24 103.48 573.54 108.52 C 565.97 114.07 556.47 118.06 546.94 116.72 C 537.36 114.57 529.10 107.11 525.90 97.84 C 523.13 89.65 525.81 79.98 532.23 74.23 C 536.37 70.47 541.71 68.24 547.15 67.15 Z" />
<path fill="#ffffff" opacity="1.00" d=" M 293.81 106.81 C 304.80 103.05 319.10 108.49 323.04 119.85 C 325.96 129.28 320.86 138.44 316.87 146.70 C 308.91 162.05 302.34 178.53 301.18 195.95 C 301.10 201.03 300.80 207.36 305.08 210.95 C 309.64 213.78 314.15 209.25 316.90 205.95 C 327.90 191.79 333.32 174.33 338.64 157.45 C 342.56 145.37 344.88 132.74 344.89 120.02 C 344.84 116.59 345.21 112.38 348.54 110.50 C 353.38 108.02 358.99 110.25 363.55 112.35 C 373.58 117.55 382.44 125.89 386.68 136.52 C 389.81 146.48 388.54 157.41 384.91 167.06 C 380.84 178.65 373.38 189.35 373.16 202.02 C 373.13 206.18 373.91 211.83 378.48 213.37 C 383.51 214.40 388.14 210.95 391.46 207.55 C 393.03 194.73 396.32 181.14 405.32 171.33 C 410.59 165.46 419.45 162.57 426.90 165.85 C 431.64 168.05 436.35 171.74 437.75 176.99 C 436.32 181.69 434.14 186.21 433.62 191.17 C 432.83 196.89 433.22 203.29 436.81 208.06 C 440.06 212.51 447.00 213.76 451.47 210.47 C 454.95 207.82 456.12 203.16 455.97 198.98 C 455.70 191.20 451.69 184.09 446.75 178.29 C 441.01 171.51 433.39 166.81 426.21 161.75 C 420.94 158.06 415.76 153.40 414.01 146.98 C 411.60 137.48 415.42 127.07 422.74 120.74 C 432.04 112.52 444.90 109.74 457.03 109.79 C 469.37 109.89 482.38 112.10 492.49 119.64 C 499.54 124.74 504.39 133.20 503.92 142.04 C 503.42 149.87 500.33 158.21 493.51 162.65 C 490.04 164.93 483.99 166.68 481.24 162.57 C 477.33 153.48 473.94 144.01 468.19 135.86 C 466.16 133.19 463.70 130.10 460.04 129.99 C 456.83 129.41 453.47 131.65 452.97 134.90 C 452.17 138.24 453.91 141.46 455.80 144.08 C 462.00 152.58 471.70 157.53 478.37 165.61 C 496.50 185.64 495.08 219.92 475.42 238.43 C 464.35 249.16 448.08 253.30 433.01 251.17 C 419.18 249.75 405.96 242.16 398.40 230.39 C 391.57 238.46 383.24 245.72 373.18 249.37 C 363.13 253.07 351.24 251.70 342.59 245.27 C 334.14 239.18 329.26 229.26 327.43 219.20 C 321.63 229.62 314.27 239.82 303.67 245.78 C 295.16 250.58 283.69 251.40 275.52 245.47 C 268.44 240.34 265.10 231.69 263.29 223.45 C 260.27 208.16 261.64 192.39 264.22 177.15 C 267.24 159.44 270.79 141.59 278.04 125.06 C 281.46 117.77 285.82 109.76 293.81 106.81 Z" />
<path fill="#ffffff" opacity="1.00" d=" M 360.78 297.69 C 362.95 295.75 366.09 296.16 368.78 295.92 C 368.81 297.14 368.85 298.36 368.89 299.58 C 367.63 299.64 366.40 299.84 365.21 300.18 C 364.83 301.37 364.70 302.61 364.52 303.84 C 366.03 303.88 367.53 303.91 369.05 303.94 C 369.05 305.17 369.05 306.39 369.05 307.62 C 367.60 307.62 366.16 307.62 364.72 307.63 C 364.71 312.34 364.72 317.06 364.72 321.78 C 362.98 321.78 361.25 321.78 359.52 321.79 C 359.52 317.07 359.52 312.35 359.52 307.63 C 358.89 307.63 357.63 307.62 357.00 307.62 C 357.00 306.69 357.00 304.84 357.00 303.91 C 357.61 303.92 358.82 303.92 359.43 303.93 C 359.71 301.85 359.17 299.32 360.78 297.69 Z" />
<path fill="#ffffff" opacity="1.00" d=" M 431.57 300.53 C 437.12 295.57 445.05 296.22 451.96 296.01 C 457.87 296.22 464.57 295.62 469.48 299.60 C 473.05 302.77 473.14 307.93 473.50 312.33 C 469.45 312.36 465.41 312.33 461.37 312.36 C 460.86 310.10 460.39 307.02 457.59 306.59 C 453.15 305.75 448.50 305.83 444.05 306.57 C 440.94 307.03 438.89 309.99 438.78 313.01 C 438.43 319.35 438.52 325.72 438.81 332.06 C 438.87 334.87 440.52 337.83 443.48 338.35 C 448.27 339.21 453.42 339.41 458.12 338.01 C 461.93 336.55 461.52 331.82 461.54 328.51 C 457.65 328.47 453.77 328.49 449.88 328.48 C 449.88 325.67 449.88 322.87 449.88 320.07 C 457.73 320.04 465.58 320.04 473.44 320.06 C 473.51 326.38 474.12 332.81 472.88 339.05 C 471.95 343.72 467.88 347.37 463.21 348.09 C 456.20 349.23 449.02 349.13 441.95 348.69 C 436.47 348.40 430.62 345.80 428.30 340.54 C 425.36 333.75 426.38 326.18 426.24 319.00 C 426.45 312.63 426.42 305.15 431.57 300.53 Z" />
<path fill="#ffffff" opacity="1.00" d=" M 622.78 296.49 C 626.26 296.49 629.74 296.49 633.23 296.49 C 633.23 313.83 633.23 331.17 633.23 348.51 C 629.84 348.51 626.45 348.51 623.06 348.50 C 623.20 346.27 623.35 344.03 623.51 341.81 C 622.12 344.68 620.33 347.83 616.90 348.46 C 611.90 349.37 606.09 349.33 601.83 346.20 C 598.42 343.57 598.10 338.94 597.91 334.98 C 597.84 330.02 597.51 324.96 598.59 320.08 C 599.39 316.02 602.84 312.78 606.92 312.15 C 612.69 310.87 620.30 311.46 622.87 317.74 C 622.67 310.66 622.83 303.57 622.78 296.49 M 611.21 320.24 C 608.91 321.06 608.60 323.83 608.43 325.92 C 608.23 329.90 608.00 334.03 609.07 337.92 C 609.83 340.97 613.44 341.35 616.06 341.18 C 618.53 341.18 621.64 340.26 622.24 337.50 C 623.00 332.89 623.02 328.08 622.22 323.47 C 621.08 318.72 614.85 319.38 611.21 320.24 Z" />
<path fill="#ffffff" opacity="1.00" d=" M 657.84 296.49 C 671.65 296.49 685.45 296.49 699.26 296.49 C 699.25 299.93 699.25 303.37 699.26 306.81 C 694.26 306.81 689.25 306.80 684.26 306.81 C 684.25 320.71 684.26 334.61 684.25 348.51 C 680.22 348.51 676.20 348.51 672.17 348.51 C 672.18 334.61 672.18 320.71 672.18 306.82 C 667.40 306.80 662.62 306.80 657.84 306.81 C 657.84 303.37 657.84 299.93 657.84 296.49 Z" />
<path fill="#ffffff" opacity="1.00" d=" M 792.31 299.32 C 796.72 295.58 802.95 296.09 808.36 296.04 C 808.38 298.58 808.38 301.13 808.42 303.68 C 806.09 303.72 803.45 303.05 801.41 304.52 C 799.49 306.54 800.30 309.59 800.06 312.11 C 802.98 312.11 805.91 312.11 808.85 312.11 C 808.84 314.65 808.84 317.18 808.85 319.72 C 805.93 319.71 803.01 319.71 800.10 319.72 C 800.10 329.31 800.10 338.91 800.10 348.50 C 796.61 348.51 793.11 348.51 789.63 348.51 C 789.62 338.91 789.63 329.32 789.63 319.72 C 787.91 319.71 786.22 319.71 784.53 319.72 C 784.53 317.18 784.53 314.65 784.54 312.12 C 786.22 312.11 787.90 312.11 789.61 312.11 C 789.81 307.83 788.95 302.65 792.31 299.32 Z" />
<path fill="#ffffff" opacity="1.00" d=" M 880.11 296.49 C 886.18 296.49 892.26 296.49 898.34 296.49 C 903.98 313.83 909.66 331.17 915.31 348.51 C 911.16 348.51 907.02 348.51 902.88 348.51 C 901.86 345.36 900.87 342.20 899.88 339.04 C 892.89 338.92 885.89 338.97 878.90 339.00 C 877.93 342.17 876.94 345.34 875.97 348.51 C 871.77 348.51 867.58 348.51 863.38 348.51 C 868.94 331.17 874.54 313.83 880.11 296.49 M 881.60 330.19 C 886.84 330.19 892.09 330.19 897.34 330.19 C 894.66 321.93 892.08 313.64 889.41 305.38 C 886.83 313.66 884.20 321.92 881.60 330.19 Z" />
<path fill="#ffffff" opacity="1.00" d=" M 704.21 296.49 C 707.69 296.49 711.18 296.49 714.68 296.49 C 714.67 304.02 714.69 311.56 714.67 319.09 C 715.93 316.41 717.32 313.27 720.46 312.41 C 724.58 311.28 729.14 311.35 733.15 312.88 C 736.89 314.35 738.64 318.46 738.64 322.27 C 738.73 331.01 738.65 339.76 738.68 348.51 C 735.19 348.51 731.70 348.51 728.22 348.51 C 728.21 341.02 728.24 333.54 728.22 326.05 C 728.24 323.91 727.98 321.09 725.60 320.28 C 721.67 318.93 715.43 319.90 714.94 324.93 C 714.34 332.76 714.84 340.65 714.68 348.51 C 711.18 348.51 707.69 348.51 704.21 348.51 C 704.21 331.17 704.21 313.83 704.21 296.49 Z" />
<path fill="#ffffff" opacity="1.00" d=" M 1056.06 296.49 C 1060.11 296.49 1064.16 296.49 1068.21 296.49 C 1068.21 313.83 1068.21 331.17 1068.21 348.51 C 1064.16 348.51 1060.11 348.51 1056.06 348.51 C 1056.06 331.17 1056.06 313.83 1056.06 296.49 Z" />
<path fill="#ffffff" opacity="1.00" d=" M 1073.06 296.49 C 1077.17 296.49 1081.29 296.49 1085.41 296.49 C 1089.82 310.55 1094.44 324.55 1098.32 338.77 C 1102.18 324.53 1106.84 310.54 1111.29 296.49 C 1115.48 296.49 1119.68 296.49 1123.88 296.49 C 1118.45 313.83 1113.05 331.18 1107.62 348.51 C 1101.40 348.50 1095.20 348.52 1088.99 348.50 C 1083.69 331.16 1078.37 313.83 1073.06 296.49 Z" />
<path fill="#ffffff" opacity="1.00" d=" M 375.12 304.12 C 378.55 303.50 382.20 303.36 385.57 304.33 C 388.99 305.69 388.92 309.96 388.91 313.02 C 388.79 315.93 388.79 319.97 385.56 321.25 C 381.83 322.29 377.61 322.39 373.95 321.02 C 370.65 319.33 371.11 315.08 371.01 311.97 C 370.89 308.94 371.59 304.86 375.12 304.12 M 377.25 308.09 C 375.86 311.13 374.85 318.57 380.04 318.20 C 384.57 318.63 383.62 312.97 383.49 310.07 C 383.49 306.91 379.26 307.07 377.25 308.09 Z" />
<path fill="#ffffff" opacity="1.00" d=" M 392.36 303.91 C 394.11 303.91 395.86 303.91 397.62 303.92 C 397.50 304.61 397.26 306.00 397.14 306.69 C 398.70 304.05 401.96 302.82 404.81 304.20 C 407.39 305.54 406.79 308.86 407.09 311.26 C 405.53 311.26 403.97 311.27 402.42 311.29 C 403.03 308.26 399.54 305.90 397.77 309.06 C 397.26 313.27 397.66 317.54 397.55 321.78 C 395.82 321.78 394.08 321.78 392.36 321.79 C 392.36 315.83 392.36 309.87 392.36 303.91 Z" />
<path fill="#ffffff" opacity="1.00" d=" M 817.04 304.28 C 820.51 304.28 823.98 304.28 827.46 304.28 C 827.46 306.89 827.46 309.50 827.46 312.11 C 832.17 312.11 836.88 312.11 841.59 312.12 C 841.58 314.65 841.58 317.18 841.59 319.72 C 836.88 319.72 832.17 319.71 827.46 319.72 C 827.59 326.14 827.19 332.58 827.66 338.99 C 827.90 342.01 832.57 342.04 834.04 339.96 C 834.81 338.10 834.59 336.04 834.72 334.08 C 837.53 334.10 840.35 334.09 843.17 334.10 C 843.12 338.61 843.65 344.47 839.20 347.21 C 834.84 349.41 829.67 349.12 824.95 348.66 C 820.97 348.38 817.19 345.24 817.13 341.08 C 816.89 333.96 817.11 326.84 817.03 319.72 C 815.45 319.71 813.88 319.71 812.31 319.72 C 812.31 317.18 812.31 314.65 812.31 312.11 C 813.88 312.11 815.45 312.11 817.03 312.11 C 817.03 309.50 817.03 306.89 817.04 304.28 Z" />
<path fill="#ffffff" opacity="1.00" d=" M 962.56 304.28 C 966.05 304.28 969.54 304.28 973.03 304.29 C 973.02 306.90 973.02 309.51 973.03 312.12 C 977.73 312.11 982.43 312.11 987.13 312.11 C 987.12 314.65 987.12 317.18 987.13 319.72 C 982.43 319.71 977.73 319.72 973.03 319.72 C 973.14 326.10 972.80 332.49 973.20 338.86 C 973.29 341.91 977.80 342.03 979.43 340.17 C 980.45 338.32 980.10 336.09 980.28 334.06 C 983.09 334.10 985.91 334.09 988.73 334.11 C 988.72 338.71 989.17 344.76 984.46 347.38 C 979.93 349.41 974.68 349.19 969.86 348.55 C 966.06 348.09 962.68 344.90 962.66 340.95 C 962.42 333.88 962.64 326.79 962.56 319.72 C 960.99 319.72 959.42 319.71 957.87 319.72 C 957.86 317.18 957.87 314.65 957.87 312.11 C 959.43 312.11 960.99 312.11 962.57 312.11 C 962.56 309.50 962.56 306.89 962.56 304.28 Z" />
<path fill="#ffffff" opacity="1.00" d=" M 480.30 312.12 C 483.80 312.11 487.30 312.10 490.80 312.13 C 490.59 314.08 490.39 316.03 490.15 317.99 C 491.68 315.67 493.26 312.96 496.14 312.21 C 500.10 311.18 505.33 311.33 507.95 314.98 C 510.29 318.57 509.59 323.06 509.80 327.12 C 506.59 327.12 503.39 327.12 500.20 327.13 C 500.08 325.02 500.33 322.77 499.37 320.81 C 496.71 318.16 491.25 320.08 490.98 323.94 C 490.48 332.11 490.90 340.32 490.76 348.51 C 487.27 348.51 483.78 348.51 480.30 348.51 C 480.30 336.38 480.30 324.25 480.30 312.12 Z" />
<path fill="#ffffff" opacity="1.00" d=" M 519.93 312.95 C 526.22 311.13 532.99 311.45 539.42 312.30 C 543.92 312.77 547.99 316.31 548.12 321.01 C 548.82 330.15 548.26 339.35 548.44 348.51 C 544.96 348.51 541.48 348.51 538.00 348.50 C 538.10 346.60 538.24 344.72 538.38 342.83 C 537.06 345.22 535.47 347.83 532.56 348.37 C 527.73 349.27 522.41 349.44 517.85 347.38 C 512.84 344.62 512.97 337.78 514.02 332.92 C 515.07 328.55 519.77 326.61 523.87 326.46 C 528.79 326.21 535.39 325.56 538.01 330.83 C 537.71 327.40 538.44 323.80 537.37 320.48 C 535.49 317.36 531.12 318.14 528.08 318.43 C 525.98 318.69 525.81 321.09 525.28 322.68 C 521.80 322.67 518.34 322.68 514.87 322.67 C 514.88 318.90 515.74 314.18 519.93 312.95 M 527.08 333.12 C 523.69 333.51 523.50 337.88 524.70 340.30 C 526.16 342.20 528.88 341.88 531.01 342.06 C 533.27 341.94 536.43 342.14 537.57 339.69 C 538.13 337.67 538.39 334.75 536.24 333.57 C 533.32 332.53 530.09 332.70 527.08 333.12 Z" />
<path fill="#ffffff" opacity="1.00" d=" M 556.67 312.11 C 560.16 312.11 563.65 312.11 567.15 312.11 C 567.00 314.42 566.86 316.73 566.78 319.05 C 568.05 316.46 569.51 313.63 572.44 312.64 C 576.97 311.11 582.23 311.33 586.57 313.41 C 589.77 314.95 591.12 318.61 591.03 321.98 C 591.15 330.82 591.04 339.66 591.08 348.50 C 587.58 348.52 584.09 348.51 580.60 348.51 C 580.57 341.04 580.64 333.57 580.57 326.10 C 580.42 324.15 580.58 321.59 578.67 320.44 C 574.55 318.71 567.74 319.96 567.39 325.36 C 567.04 333.06 567.35 340.79 567.24 348.51 C 563.71 348.51 560.19 348.51 556.67 348.51 C 556.67 336.38 556.67 324.25 556.67 312.11 Z" />
<path fill="#ffffff" opacity="1.00" d=" M 747.78 316.83 C 751.14 312.03 757.64 311.75 762.95 311.65 C 767.84 311.82 773.71 311.82 777.17 315.87 C 780.68 320.49 780.03 326.68 780.18 332.14 C 772.03 332.15 763.88 332.13 755.73 332.15 C 755.89 335.08 755.33 339.04 758.32 340.78 C 761.11 341.99 764.37 341.82 767.31 341.22 C 769.50 340.83 769.64 338.38 770.19 336.69 C 773.56 336.70 776.93 336.68 780.30 336.70 C 780.51 341.51 778.32 346.99 773.12 348.01 C 766.13 349.41 758.49 349.63 751.74 347.13 C 746.26 344.80 745.53 338.20 745.42 333.00 C 745.43 327.60 744.89 321.65 747.78 316.83 M 758.48 319.67 C 755.79 320.60 756.11 323.92 755.81 326.20 C 760.57 326.20 765.32 326.20 770.08 326.19 C 769.76 323.94 770.33 320.50 767.54 319.65 C 764.59 318.96 761.41 318.94 758.48 319.67 Z" />
<path fill="#ffffff" opacity="1.00" d=" M 918.84 312.11 C 922.31 312.11 925.79 312.11 929.28 312.11 C 929.42 320.69 928.98 329.29 929.52 337.85 C 931.95 343.29 942.77 341.27 942.44 334.86 C 942.59 327.28 942.45 319.69 942.50 312.11 C 945.97 312.11 949.45 312.11 952.93 312.11 C 952.93 324.24 952.93 336.38 952.93 348.51 C 949.46 348.51 946.00 348.50 942.54 348.52 C 942.71 346.14 942.90 343.77 943.13 341.41 C 941.79 344.33 939.84 347.34 936.53 348.20 C 931.74 349.53 925.93 349.39 921.97 346.06 C 919.34 343.84 918.80 340.21 918.84 336.97 C 918.81 328.68 918.83 320.40 918.84 312.11 Z" />
<path fill="#ffffff" opacity="1.00" d=" M 1003.11 312.15 C 1009.40 311.54 1016.00 311.09 1022.15 312.92 C 1027.88 314.94 1029.00 321.73 1029.00 327.04 C 1028.89 332.83 1029.42 339.18 1026.31 344.34 C 1023.11 348.79 1017.00 348.75 1012.09 348.98 C 1007.03 348.87 1001.38 349.05 997.15 345.83 C 993.42 342.72 993.25 337.47 993.11 333.01 C 993.09 328.14 992.72 323.05 994.48 318.41 C 995.86 314.87 999.40 312.58 1003.11 312.15 M 1005.60 320.74 C 1002.98 323.83 1003.95 328.30 1003.73 332.04 C 1003.81 335.25 1003.72 340.30 1007.87 340.93 C 1011.01 341.26 1015.62 341.94 1017.39 338.56 C 1018.71 334.87 1018.33 330.86 1018.35 327.02 C 1018.23 324.41 1018.05 320.73 1014.99 319.90 C 1011.93 319.32 1008.30 318.93 1005.60 320.74 Z" />
</g>
</svg>
