<?xml version="1.0" encoding="utf-8"?>
<!-- Generator: Adobe Illustrator 28.1.0, SVG Export Plug-In . SVG Version: 6.00 Build 0)  -->
<svg version="1.1" id="Layer_1" xmlns="http://www.w3.org/2000/svg" xmlns:xlink="http://www.w3.org/1999/xlink" x="0px" y="0px"
	 viewBox="0 0 1297 388" style="enable-background:new 0 0 1297 388;" xml:space="preserve">
<style type="text/css">
	.st0{fill:#231F20;}
	.st1{fill:#FFFFFF;stroke:#000000;stroke-width:14;stroke-linecap:round;stroke-linejoin:round;stroke-miterlimit:10;}
	.st2{fill:#FFFFFF;}
	.st3{fill:#FFFFFF;stroke:#000000;stroke-width:17;stroke-linecap:round;stroke-linejoin:round;stroke-miterlimit:10;}
</style>
<g id="_x23_ffffffff_00000106847717758580819740000006938207704798868155_">
	<path class="st0" d="M434.2,306.2c2.2-2,5.4-1.6,8.1-1.8c0,1.2,0,2.5,0.1,3.7c-1.3,0-2.5,0.2-3.7,0.6c-0.5,1.2-0.4,2.4-0.6,3.6
		c1.5,0,3,0,4.4,0c0,1.2,0,2.5,0,3.7c-1.4,0-2.9,0-4.3,0c0,4.7,0,9.4,0,14.1c-1.7,0-3.5,0-5.2,0c0-4.7,0-9.4,0-14.2
		c-0.6,0-1.9,0-2.5,0c0-0.9,0-2.8,0-3.7c0.6,0,1.8,0,2.5,0C433.2,310.4,432.7,307.9,434.2,306.2z"/>
	<path class="st0" d="M503.5,304.7c8,0,16,0,23.9,0c6.1,11.1,12,22.2,18.2,33.2c6.2-11,12.1-22.1,18.1-33.2c7.9,0,15.9,0,23.8,0
		c0,16.7,0,33.3,0,50c-4.9,0-9.8,0-14.7,0c0.2-12.9,0.6-25.8,0.6-38.6c-7.3,12.9-14.7,25.7-22,38.6c-4,0-8,0-12,0
		c-7.3-12.9-14.5-25.8-21.8-38.7c0.1,12.9,0.3,25.8,0.4,38.7c-4.8,0-9.7,0-14.5,0C503.5,338.1,503.5,321.4,503.5,304.7z"/>
	<path class="st0" d="M730.5,304.7c15,0.1,30.1-0.2,45.1,0.2c5,0,10.7,1.7,13.1,6.5c2.2,4.7,2,10,1.9,15c-0.3,4.5-0.9,9.5-4.4,12.7
		c-3.4,3-8.3,3.1-12.6,3.2c-9.3,0.1-18.6,0-27.9,0c-0.2,4.1-0.1,8.2-0.1,12.3c-5,0-10,0-15,0C730.5,338.1,730.5,321.4,730.5,304.7"
		/>
	<path class="st0" d="M1044.9,308.9c3.7-3.3,8.9-3.6,13.6-4c9.6-0.5,19.4-0.6,29,0.4c4.2,0.5,9.4,1.7,11.1,6.2
		c1.4,4.4,1.4,9.2,0.3,13.6c-0.9,2.8-3.9,3.9-6.4,4.7c3.1,0.9,7,2.2,7.7,5.9c0.7,4.9,1.1,10.5-1.8,14.7c-2.7,3.6-7.7,4.1-11.8,4.4
		c-10.3,0.4-20.5,0.4-30.8,0c-4-0.3-8.6-0.6-11.5-3.8c-3.2-3.8-3.2-9-3-13.7c4.5,0,9,0,13.5,0c0.3,2.2-0.1,5.4,2.4,6.5
		c3.3,1.3,7,1,10.5,1.1c5.3,0,10.6,0.2,15.9-0.6c3.2-0.6,3.6-4.8,2.5-7.3c-0.9-2.1-3.4-2.5-5.4-2.6c-5.2-0.2-10.3,0-15.5-0.1
		c0-3.1,0-6.3,0-9.4c5.8-0.2,11.6,0.5,17.4-0.5c4.3-1.1,3.7-8.6-0.7-9.1c-5.7-0.8-11.5-0.6-17.3-0.5c-2.5,0.1-5.3-0.1-7.5,1.4
		c-1.8,1.2-1.4,3.5-1.7,5.3c-4.6-0.1-9.1,0-13.7-0.1C1042,317.2,1041.4,312,1044.9,308.9z"/>
	<path class="st0" d="M448.6,312.6c3.4-0.6,7.1-0.8,10.5,0.2c3.4,1.4,3.3,5.6,3.3,8.7c-0.1,2.9-0.1,7-3.4,8.3
		c-3.7,1-7.9,1.1-11.5-0.2c-3.3-1.7-2.9-5.9-3-9C444.4,317.5,445.1,313.4,448.6,312.6"/>
	<path class="st0" d="M465.9,312.4c1.7,0,3.5,0,5.2,0c-0.1,0.7-0.3,2.1-0.4,2.8c1.5-2.8,4.8-3.9,7.7-2.5c2.6,1.4,2,4.6,2.2,7.1
		c-1.6,0-3.1,0-4.7,0c-0.1-2-0.7-4.7-3.4-3.5c-0.3,0.3-0.9,1-1.2,1.3c-0.5,4.2-0.1,8.5-0.2,12.7c-1.7,0-3.5,0-5.2,0
		C465.9,324.3,465.9,318.4,465.9,312.4z"/>
	<path class="st0" d="M604.4,321.3c5.9-3,12.7-2.2,19.1-2.5c5.3,0.2,11-0.1,16,2c3.6,1.6,5.5,5.7,5.5,9.5c0.1,8.1,0,16.3,0,24.4
		c-4.3,0-8.5,0-12.8,0c0-2.1,0-4.2,0-6.3c-1,2.7-2.7,5.5-5.8,6.1c-5.9,1.4-12.1,1-18.1,0.6c-3.9-0.3-8.8-1.5-9.9-5.8
		c-1.1-5-1.3-12,3.8-14.9c5.4-2.4,11.4-1.6,17.2-1.9c4.4,0.1,10-0.4,12.5,4.1c-0.5-2.9,1-7.6-2.5-9c-4.5-1.1-9.3-0.7-14-0.5
		c-1.8-0.2-3.1,1.1-3.7,2.7c-4.2,0-8.4,0-12.6,0C599.5,326.4,601,322.8,604.4,321.3"/>
	<path class="st0" d="M653.7,319.8c5.6,0,11.2,0,16.8,0c2.4,3.3,4.7,6.6,7.2,9.8c2.5-3.3,5-6.5,7.4-9.8c5.5-0.1,11,0,16.5,0
		c-4.7,5.3-9.3,10.7-14,16c5.1,6.4,10.3,12.6,15.4,19c-5.4,0-10.9,0-16.3,0c-3-4.2-6-8.5-9.1-12.7c-3,4.2-6,8.5-9,12.7
		c-5.3,0-10.6,0-15.9,0c5.1-6.1,10.2-12.2,15.3-18.3C663.3,330.9,658.5,325.3,653.7,319.8z"/>
	<path class="st0" d="M803.3,322.4c5.2-3.9,12.1-3.2,18.2-3.5c5.9,0.1,12.1-0.3,17.8,1.7c4.1,1.4,6.3,5.9,6.3,10
		c0.1,8.1,0,16.2,0,24.2c-4.3,0-8.5,0-12.8,0c0-2.1,0-4.2,0.1-6.3c-1,2.2-2.1,4.6-4.5,5.6c-4.8,1.9-10,1.4-15,1.4
		c-4.1-0.3-8.7-0.2-12.2-2.7c-2.9-2.5-2.8-6.8-2.7-10.3c0.1-3.5,1.8-7.2,5.2-8.4c5.3-1.8,11.1-1.3,16.7-1.4c4.3,0,9.7-0.2,12.1,4.1
		c-0.4-3.1,1-8.3-3.2-9.2c-4.6-0.7-9.3-0.6-13.9-0.2c-1.7-0.1-2.4,1.4-3,2.6c-4.2,0-8.4,0-12.6,0
		C800.3,327.1,800.9,324.1,803.3,322.4"/>
	<path class="st0" d="M851.5,319.8c4.7,0,9.4,0,14.1,0c3.5,8.7,6.8,17.4,10.3,26c3.7-8.7,7.5-17.3,11.2-26c4.8,0,9.5,0,14.3,0
		c-7.2,15.1-14.1,30.3-21.5,45.3c-3.2,6.9-11.9,5.4-18.2,5.3c0-2.9,0-5.7,0-8.6c2.4-0.2,5,0.2,7.2-1c2-1.4,2.6-3.9,3.7-6
		c-1.9,0-3.7,0-5.6,0C861.9,343.1,856.7,331.4,851.5,319.8z"/>
	<path class="st0" d="M908.9,319.8c4.1,0,8.3,0,12.5,0c0,2.7,0,5.3,0,8c1-3.6,3.4-7,7.2-7.8c6.1-1.4,12.6-1.5,18.6,0.2
		c4.8,1.4,8.3,6,8.7,11c0.6,7.9,0.2,15.8,0.3,23.7c-4.3,0-8.5,0-12.8,0c-0.1-6.8,0.2-13.6-0.2-20.4c0-2.8-2.5-4.9-5.2-5.2
		c-4.1-0.4-8.5-0.8-12.4,0.7c-3,1.2-3.9,4.6-3.9,7.5c-0.1,5.8,0,11.5,0,17.3c-4.2,0-8.5,0-12.7,0
		C908.9,343.1,908.9,331.4,908.9,319.8z"/>
	<path class="st0" d="M972.3,321.3c6.3-2.8,13.5-2.1,20.2-2.2c5.6,0.4,12.1-0.4,16.4,3.9c4.4,4.4,3.5,11.1,3.6,16.8
		c-11.3,0-22.7,0-34,0c0,2.6,0.2,6.3,3.2,7.2c5.1,1,10.5,1.1,15.7,0.1c1.7-0.3,2.2-2,2.8-3.4c4.1,0,8.3-0.1,12.4-0.1
		c-0.2,3.6-1.2,7.6-4.7,9.2c-6.4,3.1-13.7,2.4-20.5,2.5c-6-0.5-13,0.3-17.7-4.2c-4.2-4-4.2-10.4-4-15.8
		C965.9,330.2,967,323.8,972.3,321.3"/>
</g>
<g id="_x23_ffffffff">
	<path class="st1" d="M434.2,306.2c2.2-2,5.4-1.6,8.1-1.8c0,1.2,0,2.5,0.1,3.7c-1.3,0-2.5,0.2-3.7,0.6c-0.5,1.2-0.4,2.4-0.6,3.6
		c1.5,0,3,0,4.4,0c0,1.2,0,2.5,0,3.7c-1.4,0-2.9,0-4.3,0c0,4.7,0,9.4,0,14.1c-1.7,0-3.5,0-5.2,0c0-4.7,0-9.4,0-14.2
		c-0.6,0-1.9,0-2.5,0c0-0.9,0-2.8,0-3.7c0.6,0,1.8,0,2.5,0C433.2,310.4,432.7,307.9,434.2,306.2z"/>
	<path class="st1" d="M503.5,304.7c8,0,16,0,23.9,0c6.1,11.1,12,22.2,18.2,33.2c6.2-11,12.1-22.1,18.1-33.2c7.9,0,15.9,0,23.8,0
		c0,16.7,0,33.3,0,50c-4.9,0-9.8,0-14.7,0c0.2-12.9,0.6-25.8,0.6-38.6c-7.3,12.9-14.7,25.7-22,38.6c-4,0-8,0-12,0
		c-7.3-12.9-14.5-25.8-21.8-38.7c0.1,12.9,0.3,25.8,0.4,38.7c-4.8,0-9.7,0-14.5,0C503.5,338.1,503.5,321.4,503.5,304.7z"/>
	<path class="st1" d="M730.5,304.7c15,0.1,30.1-0.2,45.1,0.2c5,0,10.7,1.7,13.1,6.5c2.2,4.7,2,10,1.9,15c-0.3,4.5-0.9,9.5-4.4,12.7
		c-3.4,3-8.3,3.1-12.6,3.2c-9.3,0.1-18.6,0-27.9,0c-0.2,4.1-0.1,8.2-0.1,12.3c-5,0-10,0-15,0C730.5,338.1,730.5,321.4,730.5,304.7
		 M745.5,316.9c0,4.5,0,9,0,13.4c7.7,0,15.4,0,23,0c2.4,0,5.6-0.2,6.6-2.8c0.7-2.5,0.6-5.2-0.1-7.7c-0.9-2.6-4.1-2.9-6.4-3
		C760.9,316.8,753.2,316.9,745.5,316.9z"/>
	<path class="st1" d="M1044.9,308.9c3.7-3.3,8.9-3.6,13.6-4c9.6-0.5,19.4-0.6,29,0.4c4.2,0.5,9.4,1.7,11.1,6.2
		c1.4,4.4,1.4,9.2,0.3,13.6c-0.9,2.8-3.9,3.9-6.4,4.7c3.1,0.9,7,2.2,7.7,5.9c0.7,4.9,1.1,10.5-1.8,14.7c-2.7,3.6-7.7,4.1-11.8,4.4
		c-10.3,0.4-20.5,0.4-30.8,0c-4-0.3-8.6-0.6-11.5-3.8c-3.2-3.8-3.2-9-3-13.7c4.5,0,9,0,13.5,0c0.3,2.2-0.1,5.4,2.4,6.5
		c3.3,1.3,7,1,10.5,1.1c5.3,0,10.6,0.2,15.9-0.6c3.2-0.6,3.6-4.8,2.5-7.3c-0.9-2.1-3.4-2.5-5.4-2.6c-5.2-0.2-10.3,0-15.5-0.1
		c0-3.1,0-6.3,0-9.4c5.8-0.2,11.6,0.5,17.4-0.5c4.3-1.1,3.7-8.6-0.7-9.1c-5.7-0.8-11.5-0.6-17.3-0.5c-2.5,0.1-5.3-0.1-7.5,1.4
		c-1.8,1.2-1.4,3.5-1.7,5.3c-4.6-0.1-9.1,0-13.7-0.1C1042,317.2,1041.4,312,1044.9,308.9z"/>
	<path class="st1" d="M448.6,312.6c3.4-0.6,7.1-0.8,10.5,0.2c3.4,1.4,3.3,5.6,3.3,8.7c-0.1,2.9-0.1,7-3.4,8.3
		c-3.7,1-7.9,1.1-11.5-0.2c-3.3-1.7-2.9-5.9-3-9C444.4,317.5,445.1,313.4,448.6,312.6 M450.7,316.6c-1.5,2.2-0.8,5.2-0.7,7.7
		c0.2,2.7,3.6,2.6,5.5,2.1c1.9-0.8,1.4-3.3,1.6-5c-0.2-1.8,0.4-4.4-1.6-5.2C453.9,315.9,452.1,315.7,450.7,316.6z"/>
	<path class="st1" d="M465.9,312.4c1.7,0,3.5,0,5.2,0c-0.1,0.7-0.3,2.1-0.4,2.8c1.5-2.8,4.8-3.9,7.7-2.5c2.6,1.4,2,4.6,2.2,7.1
		c-1.6,0-3.1,0-4.7,0c-0.1-2-0.7-4.7-3.4-3.5c-0.3,0.3-0.9,1-1.2,1.3c-0.5,4.2-0.1,8.5-0.2,12.7c-1.7,0-3.5,0-5.2,0
		C465.9,324.3,465.9,318.4,465.9,312.4z"/>
	<path class="st1" d="M604.4,321.3c5.9-3,12.7-2.2,19.1-2.5c5.3,0.2,11-0.1,16,2c3.6,1.6,5.5,5.7,5.5,9.5c0.1,8.1,0,16.3,0,24.4
		c-4.3,0-8.5,0-12.8,0c0-2.1,0-4.2,0-6.3c-1,2.7-2.7,5.5-5.8,6.1c-5.9,1.4-12.1,1-18.1,0.6c-3.9-0.3-8.8-1.5-9.9-5.8
		c-1.1-5-1.3-12,3.8-14.9c5.4-2.4,11.4-1.6,17.2-1.9c4.4,0.1,10-0.4,12.5,4.1c-0.5-2.9,1-7.6-2.5-9c-4.5-1.1-9.3-0.7-14-0.5
		c-1.8-0.2-3.1,1.1-3.7,2.7c-4.2,0-8.4,0-12.6,0C599.5,326.4,601,322.8,604.4,321.3 M613.9,340.1c-1.7,0.2-3.6,1.4-3.4,3.4
		c-0.2,2.6,2.6,3.9,4.8,3.9c4.7,0.1,9.5,0.4,14.1-0.4c2.4-0.5,3.2-3.4,2.3-5.5c-1.6-1.6-4-1.6-6.2-1.8
		C621.7,339.7,617.8,339.5,613.9,340.1z"/>
	<path class="st1" d="M653.7,319.8c5.6,0,11.2,0,16.8,0c2.4,3.3,4.7,6.6,7.2,9.8c2.5-3.3,5-6.5,7.4-9.8c5.5-0.1,11,0,16.5,0
		c-4.7,5.3-9.3,10.7-14,16c5.1,6.4,10.3,12.6,15.4,19c-5.4,0-10.9,0-16.3,0c-3-4.2-6-8.5-9.1-12.7c-3,4.2-6,8.5-9,12.7
		c-5.3,0-10.6,0-15.9,0c5.1-6.1,10.2-12.2,15.3-18.3C663.3,330.9,658.5,325.3,653.7,319.8z"/>
	<path class="st1" d="M803.3,322.4c5.2-3.9,12.1-3.2,18.2-3.5c5.9,0.1,12.1-0.3,17.8,1.7c4.1,1.4,6.3,5.9,6.3,10
		c0.1,8.1,0,16.2,0,24.2c-4.3,0-8.5,0-12.8,0c0-2.1,0-4.2,0.1-6.3c-1,2.2-2.1,4.6-4.5,5.6c-4.8,1.9-10,1.4-15,1.4
		c-4.1-0.3-8.7-0.2-12.2-2.7c-2.9-2.5-2.8-6.8-2.7-10.3c0.1-3.5,1.8-7.2,5.2-8.4c5.3-1.8,11.1-1.3,16.7-1.4c4.3,0,9.7-0.2,12.1,4.1
		c-0.4-3.1,1-8.3-3.2-9.2c-4.6-0.7-9.3-0.6-13.9-0.2c-1.7-0.1-2.4,1.4-3,2.6c-4.2,0-8.4,0-12.6,0
		C800.3,327.1,800.9,324.1,803.3,322.4 M814.1,340.2c-2.8,0.2-3.9,3.8-2.1,5.7c2,1.8,4.9,1.4,7.5,1.5c3.7-0.1,7.4,0.3,11-0.6
		c3.2-0.9,3.1-6.4-0.5-6.7C824.8,339.5,819.3,339.4,814.1,340.2z"/>
	<path class="st1" d="M851.5,319.8c4.7,0,9.4,0,14.1,0c3.5,8.7,6.8,17.4,10.3,26c3.7-8.7,7.5-17.3,11.2-26c4.8,0,9.5,0,14.3,0
		c-7.2,15.1-14.1,30.3-21.5,45.3c-3.2,6.9-11.9,5.4-18.2,5.3c0-2.9,0-5.7,0-8.6c2.4-0.2,5,0.2,7.2-1c2-1.4,2.6-3.9,3.7-6
		c-1.9,0-3.7,0-5.6,0C861.9,343.1,856.7,331.4,851.5,319.8z"/>
	<path class="st1" d="M908.9,319.8c4.1,0,8.3,0,12.5,0c0,2.7,0,5.3,0,8c1-3.6,3.4-7,7.2-7.8c6.1-1.4,12.6-1.5,18.6,0.2
		c4.8,1.4,8.3,6,8.7,11c0.6,7.9,0.2,15.8,0.3,23.7c-4.3,0-8.5,0-12.8,0c-0.1-6.8,0.2-13.6-0.2-20.4c0-2.8-2.5-4.9-5.2-5.2
		c-4.1-0.4-8.5-0.8-12.4,0.7c-3,1.2-3.9,4.6-3.9,7.5c-0.1,5.8,0,11.5,0,17.3c-4.2,0-8.5,0-12.7,0
		C908.9,343.1,908.9,331.4,908.9,319.8z"/>
	<path class="st1" d="M972.3,321.3c6.3-2.8,13.5-2.1,20.2-2.2c5.6,0.4,12.1-0.4,16.4,3.9c4.4,4.4,3.5,11.1,3.6,16.8
		c-11.3,0-22.7,0-34,0c0,2.6,0.2,6.3,3.2,7.2c5.1,1,10.5,1.1,15.7,0.1c1.7-0.3,2.2-2,2.8-3.4c4.1,0,8.3-0.1,12.4-0.1
		c-0.2,3.6-1.2,7.6-4.7,9.2c-6.4,3.1-13.7,2.4-20.5,2.5c-6-0.5-13,0.3-17.7-4.2c-4.2-4-4.2-10.4-4-15.8
		C965.9,330.2,967,323.8,972.3,321.3 M983,327.2c-2.9,0.2-4.5,3-4.6,5.6c7.3,0.1,14.6,0.1,21.9,0c-0.2-2.1-0.6-4.7-3-5.2
		C992.7,326.4,987.8,326.7,983,327.2z"/>
</g>
<g id="_x23_ffffffff_00000134930341746057136830000000162264853641291446_">
	<path class="st2" d="M434.2,306.2c2.2-2,5.4-1.6,8.1-1.8c0,1.2,0,2.5,0.1,3.7c-1.3,0-2.5,0.2-3.7,0.6c-0.5,1.2-0.4,2.4-0.6,3.6
		c1.5,0,3,0,4.4,0c0,1.2,0,2.5,0,3.7c-1.4,0-2.9,0-4.3,0c0,4.7,0,9.4,0,14.1c-1.7,0-3.5,0-5.2,0c0-4.7,0-9.4,0-14.2
		c-0.6,0-1.9,0-2.5,0c0-0.9,0-2.8,0-3.7c0.6,0,1.8,0,2.5,0C433.2,310.4,432.7,307.9,434.2,306.2z"/>
	<path class="st2" d="M503.5,304.7c8,0,16,0,23.9,0c6.1,11.1,12,22.2,18.2,33.2c6.2-11,12.1-22.1,18.1-33.2c7.9,0,15.9,0,23.8,0
		c0,16.7,0,33.3,0,50c-4.9,0-9.8,0-14.7,0c0.2-12.9,0.6-25.8,0.6-38.6c-7.3,12.9-14.7,25.7-22,38.6c-4,0-8,0-12,0
		c-7.3-12.9-14.5-25.8-21.8-38.7c0.1,12.9,0.3,25.8,0.4,38.7c-4.8,0-9.7,0-14.5,0C503.5,338.1,503.5,321.4,503.5,304.7z"/>
	<path class="st2" d="M730.5,304.7c15,0.1,30.1-0.2,45.1,0.2c5,0,10.7,1.7,13.1,6.5c2.2,4.7,2,10,1.9,15c-0.3,4.5-0.9,9.5-4.4,12.7
		c-3.4,3-8.3,3.1-12.6,3.2c-9.3,0.1-18.6,0-27.9,0c-0.2,4.1-0.1,8.2-0.1,12.3c-5,0-10,0-15,0C730.5,338.1,730.5,321.4,730.5,304.7
		 M745.5,316.9c0,4.5,0,9,0,13.4c7.7,0,15.4,0,23,0c2.4,0,5.6-0.2,6.6-2.8c0.7-2.5,0.6-5.2-0.1-7.7c-0.9-2.6-4.1-2.9-6.4-3
		C760.9,316.8,753.2,316.9,745.5,316.9z"/>
	<path class="st2" d="M1044.9,308.9c3.7-3.3,8.9-3.6,13.6-4c9.6-0.5,19.4-0.6,29,0.4c4.2,0.5,9.4,1.7,11.1,6.2
		c1.4,4.4,1.4,9.2,0.3,13.6c-0.9,2.8-3.9,3.9-6.4,4.7c3.1,0.9,7,2.2,7.7,5.9c0.7,4.9,1.1,10.5-1.8,14.7c-2.7,3.6-7.7,4.1-11.8,4.4
		c-10.3,0.4-20.5,0.4-30.8,0c-4-0.3-8.6-0.6-11.5-3.8c-3.2-3.8-3.2-9-3-13.7c4.5,0,9,0,13.5,0c0.3,2.2-0.1,5.4,2.4,6.5
		c3.3,1.3,7,1,10.5,1.1c5.3,0,10.6,0.2,15.9-0.6c3.2-0.6,3.6-4.8,2.5-7.3c-0.9-2.1-3.4-2.5-5.4-2.6c-5.2-0.2-10.3,0-15.5-0.1
		c0-3.1,0-6.3,0-9.4c5.8-0.2,11.6,0.5,17.4-0.5c4.3-1.1,3.7-8.6-0.7-9.1c-5.7-0.8-11.5-0.6-17.3-0.5c-2.5,0.1-5.3-0.1-7.5,1.4
		c-1.8,1.2-1.4,3.5-1.7,5.3c-4.6-0.1-9.1,0-13.7-0.1C1042,317.2,1041.4,312,1044.9,308.9z"/>
	<path class="st2" d="M448.6,312.6c3.4-0.6,7.1-0.8,10.5,0.2c3.4,1.4,3.3,5.6,3.3,8.7c-0.1,2.9-0.1,7-3.4,8.3
		c-3.7,1-7.9,1.1-11.5-0.2c-3.3-1.7-2.9-5.9-3-9C444.4,317.5,445.1,313.4,448.6,312.6 M450.7,316.6c-1.5,2.2-0.8,5.2-0.7,7.7
		c0.2,2.7,3.6,2.6,5.5,2.1c1.9-0.8,1.4-3.3,1.6-5c-0.2-1.8,0.4-4.4-1.6-5.2C453.9,315.9,452.1,315.7,450.7,316.6z"/>
	<path class="st2" d="M465.9,312.4c1.7,0,3.5,0,5.2,0c-0.1,0.7-0.3,2.1-0.4,2.8c1.5-2.8,4.8-3.9,7.7-2.5c2.6,1.4,2,4.6,2.2,7.1
		c-1.6,0-3.1,0-4.7,0c-0.1-2-0.7-4.7-3.4-3.5c-0.3,0.3-0.9,1-1.2,1.3c-0.5,4.2-0.1,8.5-0.2,12.7c-1.7,0-3.5,0-5.2,0
		C465.9,324.3,465.9,318.4,465.9,312.4z"/>
	<path class="st2" d="M604.4,321.3c5.9-3,12.7-2.2,19.1-2.5c5.3,0.2,11-0.1,16,2c3.6,1.6,5.5,5.7,5.5,9.5c0.1,8.1,0,16.3,0,24.4
		c-4.3,0-8.5,0-12.8,0c0-2.1,0-4.2,0-6.3c-1,2.7-2.7,5.5-5.8,6.1c-5.9,1.4-12.1,1-18.1,0.6c-3.9-0.3-8.8-1.5-9.9-5.8
		c-1.1-5-1.3-12,3.8-14.9c5.4-2.4,11.4-1.6,17.2-1.9c4.4,0.1,10-0.4,12.5,4.1c-0.5-2.9,1-7.6-2.5-9c-4.5-1.1-9.3-0.7-14-0.5
		c-1.8-0.2-3.1,1.1-3.7,2.7c-4.2,0-8.4,0-12.6,0C599.5,326.4,601,322.8,604.4,321.3 M613.9,340.1c-1.7,0.2-3.6,1.4-3.4,3.4
		c-0.2,2.6,2.6,3.9,4.8,3.9c4.7,0.1,9.5,0.4,14.1-0.4c2.4-0.5,3.2-3.4,2.3-5.5c-1.6-1.6-4-1.6-6.2-1.8
		C621.7,339.7,617.8,339.5,613.9,340.1z"/>
	<path class="st2" d="M653.7,319.8c5.6,0,11.2,0,16.8,0c2.4,3.3,4.7,6.6,7.2,9.8c2.5-3.3,5-6.5,7.4-9.8c5.5-0.1,11,0,16.5,0
		c-4.7,5.3-9.3,10.7-14,16c5.1,6.4,10.3,12.6,15.4,19c-5.4,0-10.9,0-16.3,0c-3-4.2-6-8.5-9.1-12.7c-3,4.2-6,8.5-9,12.7
		c-5.3,0-10.6,0-15.9,0c5.1-6.1,10.2-12.2,15.3-18.3C663.3,330.9,658.5,325.3,653.7,319.8z"/>
	<path class="st2" d="M803.3,322.4c5.2-3.9,12.1-3.2,18.2-3.5c5.9,0.1,12.1-0.3,17.8,1.7c4.1,1.4,6.3,5.9,6.3,10
		c0.1,8.1,0,16.2,0,24.2c-4.3,0-8.5,0-12.8,0c0-2.1,0-4.2,0.1-6.3c-1,2.2-2.1,4.6-4.5,5.6c-4.8,1.9-10,1.4-15,1.4
		c-4.1-0.3-8.7-0.2-12.2-2.7c-2.9-2.5-2.8-6.8-2.7-10.3c0.1-3.5,1.8-7.2,5.2-8.4c5.3-1.8,11.1-1.3,16.7-1.4c4.3,0,9.7-0.2,12.1,4.1
		c-0.4-3.1,1-8.3-3.2-9.2c-4.6-0.7-9.3-0.6-13.9-0.2c-1.7-0.1-2.4,1.4-3,2.6c-4.2,0-8.4,0-12.6,0
		C800.3,327.1,800.9,324.1,803.3,322.4 M814.1,340.2c-2.8,0.2-3.9,3.8-2.1,5.7c2,1.8,4.9,1.4,7.5,1.5c3.7-0.1,7.4,0.3,11-0.6
		c3.2-0.9,3.1-6.4-0.5-6.7C824.8,339.5,819.3,339.4,814.1,340.2z"/>
	<path class="st2" d="M851.5,319.8c4.7,0,9.4,0,14.1,0c3.5,8.7,6.8,17.4,10.3,26c3.7-8.7,7.5-17.3,11.2-26c4.8,0,9.5,0,14.3,0
		c-7.2,15.1-14.1,30.3-21.5,45.3c-3.2,6.9-11.9,5.4-18.2,5.3c0-2.9,0-5.7,0-8.6c2.4-0.2,5,0.2,7.2-1c2-1.4,2.6-3.9,3.7-6
		c-1.9,0-3.7,0-5.6,0C861.9,343.1,856.7,331.4,851.5,319.8z"/>
	<path class="st2" d="M908.9,319.8c4.1,0,8.3,0,12.5,0c0,2.7,0,5.3,0,8c1-3.6,3.4-7,7.2-7.8c6.1-1.4,12.6-1.5,18.6,0.2
		c4.8,1.4,8.3,6,8.7,11c0.6,7.9,0.2,15.8,0.3,23.7c-4.3,0-8.5,0-12.8,0c-0.1-6.8,0.2-13.6-0.2-20.4c0-2.8-2.5-4.9-5.2-5.2
		c-4.1-0.4-8.5-0.8-12.4,0.7c-3,1.2-3.9,4.6-3.9,7.5c-0.1,5.8,0,11.5,0,17.3c-4.2,0-8.5,0-12.7,0
		C908.9,343.1,908.9,331.4,908.9,319.8z"/>
	<path class="st2" d="M972.3,321.3c6.3-2.8,13.5-2.1,20.2-2.2c5.6,0.4,12.1-0.4,16.4,3.9c4.4,4.4,3.5,11.1,3.6,16.8
		c-11.3,0-22.7,0-34,0c0,2.6,0.2,6.3,3.2,7.2c5.1,1,10.5,1.1,15.7,0.1c1.7-0.3,2.2-2,2.8-3.4c4.1,0,8.3-0.1,12.4-0.1
		c-0.2,3.6-1.2,7.6-4.7,9.2c-6.4,3.1-13.7,2.4-20.5,2.5c-6-0.5-13,0.3-17.7-4.2c-4.2-4-4.2-10.4-4-15.8
		C965.9,330.2,967,323.8,972.3,321.3 M983,327.2c-2.9,0.2-4.5,3-4.6,5.6c7.3,0.1,14.6,0.1,21.9,0c-0.2-2.1-0.6-4.7-3-5.2
		C992.7,326.4,987.8,326.7,983,327.2z"/>
</g>
<g id="_x23_ffffffff_00000031890016282911676500000016697745904030890416_">
	<path class="st3" d="M295,8.5h25.2c8.5,1.5,16.4,5.7,22.2,12c7.2,7.6,10.3,18.4,9.9,28.7c-3.3,10.1-9.4,20.4-19.6,24.6
		c-11.5,4.2-23.9,0.3-34.8-3.6c4.9-3.2,10.7-6.7,12.1-12.8c0.5-2.9,0.2-7.5-3.5-8.1c-5.4-0.3-10.3,2.6-14.4,5.8
		c-8.1,6.7-14.1,15.5-19.6,24.3c-3.9,6.5-8.2,12.7-11.9,19.3c-6.5,15.2-12.9,30.5-19.3,45.8c9.7,1.4,20.3,3.5,29.6-0.8
		c0.8,7.5,1.7,15.6-1.6,22.6c-1.8,4-5.3,7.2-9.5,8.5c-9.8,3.4-20.4,1.9-30.3-0.4c-16,39.6-31.9,79.3-50.4,117.8
		c-8.8,18.4-18.6,36.5-31.9,52c-11.9,13.9-26.8,25.8-44.4,31.6c-5.5,1.9-11.3,3-17.1,3.8h-18c-16.4-1.6-33.1-7.5-44.9-19.3
		c-8.2-8-12.8-19-14.3-30.3v-17.2c1.6-10.5,6.4-20.6,13.9-28.2c7.2-7.5,17.7-11.5,28.1-11.1c10.6,0,20.8,4.5,29.1,10.9
		c-5.5,1.4-11.2,4-13.7,9.4c-1.7,3.7-3,8.9,0.2,12.2c4.2,3.4,10.1,3,15,2c11.3-2.6,20.7-10,28.7-18.1c12.6-13.2,22.9-28.6,31-44.9
		c3.8-7.6,7.7-15.3,11.1-23.1c8.5-19.9,17.2-39.6,24.7-59.9c-8.7-0.5-18.4,0.5-25,6.8c-6.2,6.3-6.8,15.8-6.9,24.2
		c-10.2-8.6-17.2-21.7-16.2-35.3c0.7-11.9,9.6-22.7,21.2-25.6c12.8-3.4,25.9,0.3,38.7,1.5c6.3-15.4,13-30.6,20.6-45.4
		c8.3-16.1,17.2-32.2,29.2-45.9c7.7-9,16.8-16.9,26.8-23.1C274.1,13.4,284.5,10.2,295,8.5z"/>
	<path class="st3" d="M849.2,64.6c50.9,0,101.7,0,152.6,0c0,16.9,0,33.7,0,50.6c-30.5,0-61,0-91.4,0c0,9.6,0,19.2,0,28.7
		c26.3,0,52.5,0,78.8,0c0,15.9,0,31.7,0,47.6c-26.3,0-52.5,0-78.8,0c0,23.5,0,47.1,0,70.6c-20.4,0-40.8,0-61.1,0
		c0.1-13.2-0.1-26.4,0.1-39.6c-6.9,14.1-16.2,27.5-29.2,36.6c-9.6,6.6-22,10-33.4,6.5c-8.4-2.5-14.9-9.6-17.9-17.7
		c-4.5-11.9-3.9-25.1-1.9-37.5c2.4-14.8,8.8-28.6,15.8-41.8c2.2-4.5,5.1-8.9,5.7-14c-2-0.7-4.1-0.4-5.8,0.9
		c-4.9,3.4-8.5,8.2-12,12.8c-10.1,14-18.1,29.3-25.2,45.1c-6.5,14.9-12.1,30.2-15.4,46.1c-0.4,3.1-3.9,3.7-6.4,3.8
		c-9.2-0.1-18-5.5-22.5-13.5c-3.5-6.1-4.6-13.4-4.2-20.3c0.7-12.9,2.2-25.7,4.9-38.3c-3.3,1.7-6.9,2.8-10.6,3.5
		c-3.6,18.2-10.9,36.1-23.9,49.6c-9.6,10.1-22.7,17.2-36.7,18.1c-10.4,0.8-21.2-1.9-29.6-8.2c-8.5-6.4-14.3-16.1-16.8-26.4
		c-7.3,11.5-16.7,22.1-28.9,28.5c-10.1,5.3-23.1,5.7-32.7-0.7c-9.2-6-13.9-16.7-15.8-27.2c-3.2-18,0-36.4,5.1-53.7
		c3.5-10.9,8.3-22.2,17.7-29.3c7.1-5.4,16.7-5.4,25.1-3.4c6.4,1.6,12.9,4.1,17.3,9.1c4,4.5,4.5,11.2,2,16.6
		c-4.3,9.3-12.3,16.2-16.9,25.3c-3.2,6.7-5.6,14.1-5.2,21.6c0.2,2.8,1.2,6.2,4.2,7.3c3.8,1,7.6-1.1,10.5-3.2
		c6.5-5.2,10.9-12.3,14.8-19.6c2.2-3.8,2.3-8.3,3.3-12.5c3.3-15.1,10.8-29.4,22.1-40c10.4-9.9,24-16.6,38.3-18.2
		c1.8-8,7.3-15.7,15.5-17.9c5.9-2,12.5,0,17,4.2c7.3,6.6,11,16.1,13.4,25.5c3.1,13,3.4,26.5,2.2,39.7c4.4-1.9,8.5-4.4,11.7-8
		c3.5-3.7,4.7-8.7,6.7-13.3c3.1-7.2,6.6-14.3,11.7-20.4c7.8-8.4,18.7-13.3,29.8-15.4c5-0.7,10.5-1.4,15.1,1c2.8,1.5,2.9,5.1,1.5,7.6
		c-7.7,16.5-14.8,33.3-21,50.5c10.7-17.8,22.8-35.1,38.6-48.7c8-6.6,17-12.8,27.6-14.1c5.5-0.6,12,0.2,15.5,4.9
		c4.6,6.1,4.7,14.3,4.1,21.6c-1.7,19.5-10.7,37.2-19.1,54.4c-3.6,7.6-7.7,16-5.9,24.6c0.3,2.9,3.1,5.3,6,4.2
		c6.2-1.8,10.6-7.2,14.6-11.9c8.2-10.8,15-22.9,19.2-35.8C849.4,142.3,849.1,103.4,849.2,64.6 M628.1,172.9
		c-4.1,11.7-6.3,24.4-4.3,36.7c1,5.8,4,12.4,10.2,14.2c5.4,1.8,11-1.2,14.6-5.3c7.1-8,10.6-18.5,12.7-28.8c0.1-1.5,1.1-3.5-0.3-4.7
		c-9.5-10.3-15.2-23.7-17-37.5C636.4,154.2,631.6,163.5,628.1,172.9z"/>
	<path class="st3" d="M1013.6,64.6c20.4,0,40.8,0,61.1,0c0,65.8,0,131.7,0,197.5c-20.4,0-40.8,0-61.2,0
		C1013.6,196.2,1013.6,130.4,1013.6,64.6z"/>
	<path class="st3" d="M1083.7,64.6c24,0,47.9,0,71.9,0c10.1,17.8,20.9,35.2,29,53.9c8.5-18.5,18.6-36.1,28.4-53.9
		c22.8,0,45.5,0,68.3,0c-20.9,30.9-41.8,61.8-62.7,92.7c23.3,34.7,46.6,69.4,69.9,104l0-1.5v2.4c-24.5,0-49,0-73.5,0
		c-11.3-19.5-23.9-38.5-32.9-59.3c-9.8,20.6-22.4,39.6-33.9,59.2c-23.7,0-47.4,0-71,0c23.8-34.9,47.7-69.9,71.6-104.8
		C1127,126.3,1105.3,95.5,1083.7,64.6z"/>
	<path class="st3" d="M555.6,75.7c8.6-1.5,17.9-1,26,2.6c6.2,2.8,11.5,8.4,12.4,15.3c1.1,8.6-3.9,16.8-10.2,22.1
		c-7.1,5.8-16,9.9-25.2,9.8c-11.6-0.8-22-10.3-24.7-21.4c-1.5-7.2,0.8-15.1,6-20.4C544,79.4,549.7,76.8,555.6,75.7z"/>
	<path class="st3" d="M297.8,117.7c11.4-8.1,30.5-1.9,34.1,11.9c2.3,9.9-3.4,19-7.5,27.6c-7.7,15.1-13.8,31.3-14.7,48.3
		c-0.1,4,0,8.3,2,11.8c1.3,2.6,4.7,3.8,7.3,2.5c4.2-2,6.9-5.9,9.5-9.6c9.5-14.5,14.6-31.2,19.6-47.7c3.5-11.4,5.2-23.2,5.3-35.1
		c-0.2-3.6,1.2-8.1,5.1-9.2c5.1-1.3,10.3,0.9,14.8,3.2c9.4,5.3,17.8,13.3,21.8,23.5c2.7,8.6,2.1,18-0.5,26.6
		c-3.8,13.1-12.7,24.7-13.1,38.8c0,4.2,0.7,9.9,5.3,11.4c5.2,1.1,9.9-2.7,13.3-6.2c0.3-8.4,2.6-16.6,6-24.3
		c3.4-7.4,8.7-14.9,16.8-17.6c8.6-2.9,18.6,1.9,22.6,9.8c1.4,2.3-0.5,4.6-1.2,6.8c-2.8,7.7-4.3,16.9-0.3,24.5
		c2.7,5.3,10,7.5,15.1,4.4c4.2-2.7,5.5-8.2,5.1-12.9c-0.8-9.3-6.5-17.4-13.1-23.7c-6.9-6.7-15.7-10.9-22.7-17.4
		c-4.6-4.2-7.4-10.5-6.8-16.8c0.3-9.7,6.5-18.4,14.6-23.2c11.9-7.1,26.5-8,40-6.3c11.4,1.4,23.2,5.7,30.5,14.9
		c8.8,10.7,6.6,28.4-4.4,36.8c-3.5,2.5-9.9,4.7-12.9,0.3c-3.8-8.9-7.1-18.1-12.6-26.1c-1.7-2.3-3.4-4.7-6-5.9
		c-2.5-0.9-5.9-1-7.9,1.1c-2.5,2.5-2.4,6.6-0.7,9.5c3.1,5.7,8.1,9.9,13,13.9c7.2,5.7,13.9,12.3,18.2,20.5
		c6.5,12.6,7.5,27.9,3.4,41.4c-3.7,12.3-12.3,23.1-23.7,29c-11.5,6.1-25.3,7-37.9,4.2c-11.6-2.6-22.1-9.7-28.6-19.7
		c-7,8.3-15.5,15.7-25.9,19.2c-9.9,3.4-21.5,1.9-29.9-4.3c-8.4-6.1-13.3-16-15.1-26.1c-5.8,10.4-13.1,20.6-23.7,26.6
		c-8.3,4.7-19.4,5.6-27.6,0.1c-7.5-5-11-13.9-12.8-22.4c-3-15-1.7-30.5,0.8-45.5c2.8-17,6.2-34.1,12.7-50.1
		C288.3,129.5,291.7,122.3,297.8,117.7z"/>
</g>
<g id="_x23_ffffffff_00000162317058232680752340000009120886141635986308_">
	<path class="st2" d="M295,8.5h25.2c8.5,1.5,16.4,5.7,22.2,12c7.2,7.6,10.3,18.4,9.9,28.7c-3.3,10.1-9.4,20.4-19.6,24.6
		c-11.5,4.2-23.9,0.3-34.8-3.6c4.9-3.2,10.7-6.7,12.1-12.8c0.5-2.9,0.2-7.5-3.5-8.1c-5.4-0.3-10.3,2.6-14.4,5.8
		c-8.1,6.7-14.1,15.5-19.6,24.3c-3.9,6.5-8.2,12.7-11.9,19.3c-6.5,15.2-12.9,30.5-19.3,45.8c9.7,1.4,20.3,3.5,29.6-0.8
		c0.8,7.5,1.7,15.6-1.6,22.6c-1.8,4-5.3,7.2-9.5,8.5c-9.8,3.4-20.4,1.9-30.3-0.4c-16,39.6-31.9,79.3-50.4,117.8
		c-8.8,18.4-18.6,36.5-31.9,52c-11.9,13.9-26.8,25.8-44.4,31.6c-5.5,1.9-11.3,3-17.1,3.8h-18c-16.4-1.6-33.1-7.5-44.9-19.3
		c-8.2-8-12.8-19-14.3-30.3v-17.2c1.6-10.5,6.4-20.6,13.9-28.2c7.2-7.5,17.7-11.5,28.1-11.1c10.6,0,20.8,4.5,29.1,10.9
		c-5.5,1.4-11.2,4-13.7,9.4c-1.7,3.7-3,8.9,0.2,12.2c4.2,3.4,10.1,3,15,2c11.3-2.6,20.7-10,28.7-18.1c12.6-13.2,22.9-28.6,31-44.9
		c3.8-7.6,7.7-15.3,11.1-23.1c8.5-19.9,17.2-39.6,24.7-59.9c-8.7-0.5-18.4,0.5-25,6.8c-6.2,6.3-6.8,15.8-6.9,24.2
		c-10.2-8.6-17.2-21.7-16.2-35.3c0.7-11.9,9.6-22.7,21.2-25.6c12.8-3.4,25.9,0.3,38.7,1.5c6.3-15.4,13-30.6,20.6-45.4
		c8.3-16.1,17.2-32.2,29.2-45.9c7.7-9,16.8-16.9,26.8-23.1C274.1,13.4,284.5,10.2,295,8.5z"/>
	<path class="st2" d="M849.2,64.6c50.9,0,101.7,0,152.6,0c0,16.9,0,33.7,0,50.6c-30.5,0-61,0-91.4,0c0,9.6,0,19.2,0,28.7
		c26.3,0,52.5,0,78.8,0c0,15.9,0,31.7,0,47.6c-26.3,0-52.5,0-78.8,0c0,23.5,0,47.1,0,70.6c-20.4,0-40.8,0-61.1,0
		c0.1-13.2-0.1-26.4,0.1-39.6c-6.9,14.1-16.2,27.5-29.2,36.6c-9.6,6.6-22,10-33.4,6.5c-8.4-2.5-14.9-9.6-17.9-17.7
		c-4.5-11.9-3.9-25.1-1.9-37.5c2.4-14.8,8.8-28.6,15.8-41.8c2.2-4.5,5.1-8.9,5.7-14c-2-0.7-4.1-0.4-5.8,0.9
		c-4.9,3.4-8.5,8.2-12,12.8c-10.1,14-18.1,29.3-25.2,45.1c-6.5,14.9-12.1,30.2-15.4,46.1c-0.4,3.1-3.9,3.7-6.4,3.8
		c-9.2-0.1-18-5.5-22.5-13.5c-3.5-6.1-4.6-13.4-4.2-20.3c0.7-12.9,2.2-25.7,4.9-38.3c-3.3,1.7-6.9,2.8-10.6,3.5
		c-3.6,18.2-10.9,36.1-23.9,49.6c-9.6,10.1-22.7,17.2-36.7,18.1c-10.4,0.8-21.2-1.9-29.6-8.2c-8.5-6.4-14.3-16.1-16.8-26.4
		c-7.3,11.5-16.7,22.1-28.9,28.5c-10.1,5.3-23.1,5.7-32.7-0.7c-9.2-6-13.9-16.7-15.8-27.2c-3.2-18,0-36.4,5.1-53.7
		c3.5-10.9,8.3-22.2,17.7-29.3c7.1-5.4,16.7-5.4,25.1-3.4c6.4,1.6,12.9,4.1,17.3,9.1c4,4.5,4.5,11.2,2,16.6
		c-4.3,9.3-12.3,16.2-16.9,25.3c-3.2,6.7-5.6,14.1-5.2,21.6c0.2,2.8,1.2,6.2,4.2,7.3c3.8,1,7.6-1.1,10.5-3.2
		c6.5-5.2,10.9-12.3,14.8-19.6c2.2-3.8,2.3-8.3,3.3-12.5c3.3-15.1,10.8-29.4,22.1-40c10.4-9.9,24-16.6,38.3-18.2
		c1.8-8,7.3-15.7,15.5-17.9c5.9-2,12.5,0,17,4.2c7.3,6.6,11,16.1,13.4,25.5c3.1,13,3.4,26.5,2.2,39.7c4.4-1.9,8.5-4.4,11.7-8
		c3.5-3.7,4.7-8.7,6.7-13.3c3.1-7.2,6.6-14.3,11.7-20.4c7.8-8.4,18.7-13.3,29.8-15.4c5-0.7,10.5-1.4,15.1,1c2.8,1.5,2.9,5.1,1.5,7.6
		c-7.7,16.5-14.8,33.3-21,50.5c10.7-17.8,22.8-35.1,38.6-48.7c8-6.6,17-12.8,27.6-14.1c5.5-0.6,12,0.2,15.5,4.9
		c4.6,6.1,4.7,14.3,4.1,21.6c-1.7,19.5-10.7,37.2-19.1,54.4c-3.6,7.6-7.7,16-5.9,24.6c0.3,2.9,3.1,5.3,6,4.2
		c6.2-1.8,10.6-7.2,14.6-11.9c8.2-10.8,15-22.9,19.2-35.8C849.4,142.3,849.1,103.4,849.2,64.6 M628.1,172.9
		c-4.1,11.7-6.3,24.4-4.3,36.7c1,5.8,4,12.4,10.2,14.2c5.4,1.8,11-1.2,14.6-5.3c7.1-8,10.6-18.5,12.7-28.8c0.1-1.5,1.1-3.5-0.3-4.7
		c-9.5-10.3-15.2-23.7-17-37.5C636.4,154.2,631.6,163.5,628.1,172.9z"/>
	<path class="st2" d="M1013.6,64.6c20.4,0,40.8,0,61.1,0c0,65.8,0,131.7,0,197.5c-20.4,0-40.8,0-61.2,0
		C1013.6,196.2,1013.6,130.4,1013.6,64.6z"/>
	<path class="st2" d="M1083.7,64.6c24,0,47.9,0,71.9,0c10.1,17.8,20.9,35.2,29,53.9c8.5-18.5,18.6-36.1,28.4-53.9
		c22.8,0,45.5,0,68.3,0c-20.9,30.9-41.8,61.8-62.7,92.7c23.3,34.7,46.6,69.4,69.9,104l0-1.5v2.4c-24.5,0-49,0-73.5,0
		c-11.3-19.5-23.9-38.5-32.9-59.3c-9.8,20.6-22.4,39.6-33.9,59.2c-23.7,0-47.4,0-71,0c23.8-34.9,47.7-69.9,71.6-104.8
		C1127,126.3,1105.3,95.5,1083.7,64.6z"/>
	<path class="st2" d="M555.6,75.7c8.6-1.5,17.9-1,26,2.6c6.2,2.8,11.5,8.4,12.4,15.3c1.1,8.6-3.9,16.8-10.2,22.1
		c-7.1,5.8-16,9.9-25.2,9.8c-11.6-0.8-22-10.3-24.7-21.4c-1.5-7.2,0.8-15.1,6-20.4C544,79.4,549.7,76.8,555.6,75.7z"/>
	<path class="st2" d="M297.8,117.7c11.4-8.1,30.5-1.9,34.1,11.9c2.3,9.9-3.4,19-7.5,27.6c-7.7,15.1-13.8,31.3-14.7,48.3
		c-0.1,4,0,8.3,2,11.8c1.3,2.6,4.7,3.8,7.3,2.5c4.2-2,6.9-5.9,9.5-9.6c9.5-14.5,14.6-31.2,19.6-47.7c3.5-11.4,5.2-23.2,5.3-35.1
		c-0.2-3.6,1.2-8.1,5.1-9.2c5.1-1.3,10.3,0.9,14.8,3.2c9.4,5.3,17.8,13.3,21.8,23.5c2.7,8.6,2.1,18-0.5,26.6
		c-3.8,13.1-12.7,24.7-13.1,38.8c0,4.2,0.7,9.9,5.3,11.4c5.2,1.1,9.9-2.7,13.3-6.2c0.3-8.4,2.6-16.6,6-24.3
		c3.4-7.4,8.7-14.9,16.8-17.6c8.6-2.9,18.6,1.9,22.6,9.8c1.4,2.3-0.5,4.6-1.2,6.8c-2.8,7.7-4.3,16.9-0.3,24.5
		c2.7,5.3,10,7.5,15.1,4.4c4.2-2.7,5.5-8.2,5.1-12.9c-0.8-9.3-6.5-17.4-13.1-23.7c-6.9-6.7-15.7-10.9-22.7-17.4
		c-4.6-4.2-7.4-10.5-6.8-16.8c0.3-9.7,6.5-18.4,14.6-23.2c11.9-7.1,26.5-8,40-6.3c11.4,1.4,23.2,5.7,30.5,14.9
		c8.8,10.7,6.6,28.4-4.4,36.8c-3.5,2.5-9.9,4.7-12.9,0.3c-3.8-8.9-7.1-18.1-12.6-26.1c-1.7-2.3-3.4-4.7-6-5.9
		c-2.5-0.9-5.9-1-7.9,1.1c-2.5,2.5-2.4,6.6-0.7,9.5c3.1,5.7,8.1,9.9,13,13.9c7.2,5.7,13.9,12.3,18.2,20.5
		c6.5,12.6,7.5,27.9,3.4,41.4c-3.7,12.3-12.3,23.1-23.7,29c-11.5,6.1-25.3,7-37.9,4.2c-11.6-2.6-22.1-9.7-28.6-19.7
		c-7,8.3-15.5,15.7-25.9,19.2c-9.9,3.4-21.5,1.9-29.9-4.3c-8.4-6.1-13.3-16-15.1-26.1c-5.8,10.4-13.1,20.6-23.7,26.6
		c-8.3,4.7-19.4,5.6-27.6,0.1c-7.5-5-11-13.9-12.8-22.4c-3-15-1.7-30.5,0.8-45.5c2.8-17,6.2-34.1,12.7-50.1
		C288.3,129.5,291.7,122.3,297.8,117.7z"/>
</g>
</svg>
