<?xml version="1.0" encoding="UTF-8" ?>
<!DOCTYPE svg PUBLIC "-//W3C//DTD SVG 1.1//EN" "http://www.w3.org/Graphics/SVG/1.1/DTD/svg11.dtd">
<svg width="1280pt" height="371pt" viewBox="0 0 1280 371" version="1.1" xmlns="http://www.w3.org/2000/svg">
<g id="#ffffffff">
<path fill="#ffffff" opacity="1.00" d=" M 286.47 0.00 L 311.71 0.00 C 320.17 1.46 328.15 5.67 333.94 12.04 C 341.14 19.64 344.21 30.47 343.83 40.76 C 340.54 50.82 334.42 61.12 324.22 65.33 C 312.75 69.56 300.37 65.65 289.40 61.70 C 294.33 58.53 300.07 54.97 301.47 48.85 C 301.92 45.95 301.65 41.30 297.98 40.73 C 292.63 40.46 287.67 43.33 283.56 46.50 C 275.43 53.15 269.46 61.97 263.98 70.81 C 260.06 77.26 255.75 83.47 252.10 90.07 C 245.58 105.30 239.22 120.61 232.78 135.87 C 242.50 137.23 253.05 139.35 262.34 135.05 C 263.16 142.57 264.03 150.61 260.76 157.70 C 258.98 161.70 255.48 164.87 251.28 166.16 C 241.47 169.59 230.85 168.11 220.97 165.75 C 205.01 205.36 189.03 245.02 170.59 283.57 C 161.83 301.94 151.99 320.03 138.69 335.56 C 126.80 349.49 111.89 361.37 94.34 367.18 C 88.81 369.07 83.05 370.17 77.28 371.00 L 59.27 371.00 C 42.83 369.38 26.20 363.55 14.34 351.67 C 6.17 343.64 1.57 332.64 0.00 321.41 L 0.00 304.17 C 1.62 293.65 6.43 283.57 13.88 275.93 C 21.12 268.42 31.61 264.46 41.99 264.86 C 52.64 264.82 62.74 269.36 71.06 275.77 C 65.60 277.17 59.81 279.76 57.33 285.19 C 55.67 288.90 54.31 294.10 57.53 297.37 C 61.69 300.75 67.60 300.34 72.55 299.37 C 83.82 296.74 93.29 289.37 101.22 281.23 C 113.85 268.03 124.12 252.67 132.25 236.34 C 136.08 228.69 139.93 221.03 143.40 213.20 C 151.87 193.33 160.56 173.55 168.08 153.29 C 159.40 152.82 149.70 153.83 143.10 160.08 C 136.91 166.41 136.31 175.88 136.20 184.24 C 125.96 175.64 118.99 162.54 120.00 148.95 C 120.71 137.08 129.63 126.29 141.16 123.36 C 153.91 119.92 167.03 123.63 179.83 124.87 C 186.11 109.46 192.87 94.25 200.44 79.43 C 208.77 63.33 217.64 47.28 229.63 33.57 C 237.35 24.57 246.39 16.69 256.47 10.43 C 265.59 4.86 275.97 1.68 286.47 0.00 Z" />
<path fill="#ffffff" opacity="1.00" d=" M 840.72 56.05 C 891.58 56.04 942.43 56.04 993.29 56.05 C 993.31 72.92 993.29 89.79 993.30 106.66 C 962.82 106.68 932.34 106.66 901.86 106.67 C 901.86 116.25 901.86 125.82 901.86 135.40 C 928.13 135.41 954.39 135.40 980.65 135.40 C 980.65 151.26 980.65 167.13 980.65 182.99 C 954.39 183.01 928.13 182.99 901.86 183.00 C 901.86 206.53 901.87 230.06 901.85 253.59 C 881.47 253.60 861.09 253.60 840.71 253.59 C 840.77 240.40 840.61 227.21 840.80 214.02 C 833.93 228.13 824.56 241.54 811.55 250.62 C 801.97 257.19 789.52 260.58 778.15 257.13 C 769.72 254.63 763.29 247.57 760.29 239.46 C 755.80 227.52 756.43 214.38 758.41 201.98 C 760.77 187.14 767.22 173.40 774.17 160.21 C 776.36 155.70 779.31 151.35 779.86 146.24 C 777.86 145.55 775.75 145.85 774.08 147.13 C 769.23 150.50 765.61 155.29 762.04 159.93 C 751.95 173.91 743.91 189.27 736.85 204.98 C 730.31 219.83 724.76 235.19 721.46 251.11 C 721.07 254.18 717.55 254.85 715.02 254.86 C 705.85 254.72 697.01 249.33 692.51 241.36 C 689.00 235.23 687.95 227.99 688.34 221.02 C 689.07 208.15 690.54 195.29 693.25 182.68 C 689.90 184.33 686.33 185.49 682.66 186.14 C 679.08 204.31 671.71 222.23 658.76 235.76 C 649.14 245.82 636.08 252.96 622.03 253.89 C 611.62 254.69 600.82 252.00 592.44 245.65 C 583.89 239.26 578.14 229.58 575.65 219.28 C 568.33 230.74 558.94 241.39 546.75 247.78 C 536.68 253.08 523.68 253.49 514.02 247.06 C 504.86 241.04 500.08 230.34 498.18 219.87 C 495.01 201.90 498.17 183.50 503.23 166.19 C 506.76 155.31 511.58 143.97 520.98 136.89 C 528.08 131.45 537.71 131.48 546.05 133.46 C 552.40 135.06 558.91 137.61 563.39 142.59 C 567.34 147.08 567.90 153.83 565.36 159.15 C 561.07 168.44 553.09 175.40 548.46 184.49 C 545.27 191.19 542.82 198.57 543.31 206.08 C 543.54 208.89 544.51 212.32 547.48 213.35 C 551.25 214.36 555.03 212.30 557.97 210.10 C 564.43 204.93 568.87 197.76 572.73 190.55 C 574.92 186.74 575.01 182.25 576.07 178.08 C 579.34 162.99 586.83 148.67 598.13 138.04 C 608.53 128.10 622.10 121.41 636.45 119.82 C 638.28 111.85 643.73 104.17 651.90 101.89 C 657.80 99.85 664.45 101.89 668.92 106.04 C 676.23 112.64 679.96 122.18 682.33 131.52 C 685.48 144.49 685.76 158.00 684.55 171.24 C 688.92 169.36 693.08 166.81 696.27 163.24 C 699.81 159.59 701.01 154.51 703.01 149.98 C 706.09 142.79 709.66 135.68 714.67 129.62 C 722.43 121.22 733.38 116.30 744.48 114.19 C 749.44 113.47 754.95 112.82 759.57 115.24 C 762.35 116.72 762.44 120.36 761.02 122.84 C 753.35 139.38 746.18 156.18 740.01 173.35 C 750.67 155.56 762.80 138.28 778.57 124.64 C 786.52 118.01 795.62 111.84 806.14 110.58 C 811.63 109.95 818.11 110.73 821.69 115.44 C 826.30 121.58 826.35 129.76 825.82 137.09 C 824.12 156.56 815.15 174.26 806.69 191.53 C 803.05 199.15 799.02 207.49 800.82 216.17 C 801.11 219.03 803.92 221.45 806.82 220.37 C 813.04 218.53 817.38 213.21 821.40 208.42 C 829.65 197.64 836.39 185.54 840.59 172.63 C 840.88 133.78 840.63 94.91 840.72 56.05 M 619.64 164.43 C 615.52 176.11 613.33 188.80 615.37 201.13 C 616.41 206.96 619.34 213.54 625.54 215.29 C 630.98 217.05 636.57 214.06 640.10 210.02 C 647.18 202.00 650.67 191.51 652.82 181.20 C 652.91 179.66 653.89 177.73 652.56 176.47 C 643.09 166.18 637.37 152.73 635.55 138.93 C 627.90 145.68 623.10 154.98 619.64 164.43 Z" />
<path fill="#ffffff" opacity="1.00" d=" M 1005.14 56.06 C 1025.52 56.04 1045.89 56.05 1066.27 56.05 C 1066.29 121.90 1066.27 187.74 1066.28 253.59 C 1045.90 253.60 1025.52 253.60 1005.13 253.59 C 1005.13 187.75 1005.12 121.90 1005.14 56.06 Z" />
<path fill="#ffffff" opacity="1.00" d=" M 1075.19 56.06 C 1099.15 56.02 1123.11 56.06 1147.06 56.04 C 1157.12 73.82 1167.98 91.20 1176.10 109.99 C 1184.62 91.53 1194.74 73.88 1204.49 56.06 C 1227.26 56.03 1250.03 56.04 1272.80 56.06 C 1251.92 86.96 1231.01 117.85 1210.08 148.73 C 1233.36 183.41 1256.68 218.08 1279.99 252.75 L 1280.00 251.20 L 1280.00 253.60 C 1255.50 253.61 1231.01 253.57 1206.51 253.61 C 1195.16 234.07 1182.57 215.15 1173.56 194.35 C 1163.74 214.92 1151.16 233.98 1139.64 253.60 C 1115.96 253.59 1092.28 253.60 1068.60 253.59 C 1092.44 218.65 1116.28 183.70 1140.15 148.77 C 1118.52 117.85 1096.83 86.98 1075.19 56.06 Z" />
<path fill="#ffffff" opacity="1.00" d=" M 547.07 67.17 C 555.71 65.69 564.96 66.18 573.03 69.79 C 579.26 72.54 584.57 78.17 585.40 85.13 C 586.51 93.72 581.55 101.88 575.16 107.21 C 568.10 113.00 559.19 117.07 549.95 117.01 C 538.31 116.24 528.00 106.75 525.26 95.57 C 523.79 88.34 526.07 80.43 531.26 75.17 C 535.48 70.86 541.23 68.35 547.07 67.17 Z" />
<path fill="#ffffff" opacity="1.00" d=" M 289.30 109.22 C 300.70 101.11 319.76 107.32 323.37 121.07 C 325.64 130.98 319.93 140.11 315.86 148.70 C 308.16 163.75 302.04 179.99 301.13 197.02 C 301.06 201.02 301.18 205.28 303.18 208.86 C 304.48 211.42 307.86 212.68 310.47 211.37 C 314.63 209.36 317.40 205.46 320.00 201.81 C 329.47 187.29 334.62 170.57 339.65 154.14 C 343.14 142.78 344.90 130.91 344.92 119.02 C 344.70 115.37 346.08 110.92 350.01 109.84 C 355.13 108.49 360.35 110.72 364.85 113.02 C 374.30 118.30 382.66 126.35 386.69 136.54 C 389.40 145.16 388.78 154.58 386.23 163.16 C 382.46 176.30 373.50 187.88 373.16 201.94 C 373.12 206.12 373.89 211.83 378.50 213.37 C 383.74 214.43 388.40 210.70 391.83 207.18 C 392.14 198.80 394.45 190.56 397.78 182.90 C 401.16 175.46 406.45 168.02 414.53 165.33 C 423.18 162.39 433.14 167.25 437.18 175.18 C 438.55 177.48 436.65 179.78 436.02 181.99 C 433.17 189.73 431.71 198.93 435.76 206.51 C 438.46 211.81 445.78 214.04 450.87 210.89 C 455.09 208.17 456.32 202.65 455.92 197.95 C 455.10 188.63 449.45 180.51 442.84 174.23 C 435.97 167.56 427.15 163.37 420.17 156.84 C 415.57 152.59 412.78 146.35 413.34 140.05 C 413.60 130.36 419.79 121.65 427.99 116.86 C 439.91 109.73 454.47 108.82 467.96 110.51 C 479.33 111.95 491.15 116.24 498.48 125.46 C 507.25 136.14 505.06 153.89 494.13 162.23 C 490.60 164.77 484.20 166.88 481.24 162.57 C 477.43 153.69 474.09 144.49 468.61 136.45 C 466.94 134.19 465.17 131.79 462.56 130.56 C 460.01 129.61 456.71 129.58 454.69 131.64 C 452.21 134.14 452.34 138.24 453.99 141.15 C 457.04 146.82 462.07 151.08 467.02 155.06 C 474.23 160.72 480.95 167.33 485.25 175.53 C 491.79 188.17 492.76 203.39 488.62 216.94 C 484.89 229.20 476.34 240.05 464.90 245.96 C 453.37 252.09 439.60 252.97 427.00 250.12 C 415.41 247.53 404.86 240.38 398.40 230.38 C 391.42 238.64 382.85 246.07 372.48 249.61 C 362.58 253.02 351.02 251.55 342.57 245.26 C 334.14 239.17 329.24 229.25 327.44 219.19 C 321.64 229.59 314.30 239.79 303.72 245.75 C 295.41 250.45 284.31 251.38 276.14 245.89 C 268.67 240.88 265.17 231.96 263.31 223.51 C 260.31 208.48 261.59 192.98 264.08 177.98 C 266.92 160.98 270.33 143.91 276.82 127.87 C 279.80 121.02 283.19 113.84 289.30 109.22 Z" />
<path fill="#ffffff" opacity="1.00" d=" M 425.72 297.75 C 427.88 295.74 431.07 296.16 433.79 295.93 C 433.81 297.16 433.84 298.39 433.88 299.62 C 432.58 299.59 431.35 299.81 430.18 300.26 C 429.72 301.42 429.75 302.68 429.62 303.91 C 431.10 303.91 432.57 303.91 434.05 303.92 C 434.04 305.15 434.04 306.38 434.05 307.62 C 432.60 307.62 431.16 307.62 429.72 307.63 C 429.71 312.34 429.72 317.06 429.72 321.78 C 427.98 321.78 426.25 321.78 424.53 321.79 C 424.52 317.07 424.52 312.35 424.52 307.63 C 423.89 307.63 422.63 307.62 422.00 307.62 C 422.00 306.69 422.00 304.84 422.00 303.92 C 422.61 303.92 423.83 303.91 424.45 303.91 C 424.70 301.86 424.18 299.39 425.72 297.75 Z" />
<path fill="#ffffff" opacity="1.00" d=" M 495.00 296.23 C 502.98 296.24 510.96 296.23 518.94 296.23 C 525.01 307.29 530.96 318.40 537.11 329.41 C 543.30 318.44 549.17 307.28 555.23 296.24 C 563.17 296.24 571.10 296.22 579.03 296.25 C 579.03 312.92 579.04 329.59 579.03 346.26 C 574.13 346.27 569.22 346.26 564.32 346.26 C 564.55 333.39 564.96 320.51 564.95 307.64 C 557.65 320.54 550.25 333.38 542.90 346.26 C 538.90 346.26 534.90 346.26 530.91 346.26 C 523.63 333.36 516.41 320.42 509.11 307.53 C 509.22 320.44 509.44 333.35 509.52 346.26 C 504.68 346.26 499.84 346.26 495.00 346.26 C 495.00 329.58 494.99 312.91 495.00 296.23 Z" />
<path fill="#ffffff" opacity="1.00" d=" M 721.98 296.24 C 737.00 296.31 752.03 296.04 767.05 296.40 C 772.03 296.40 777.78 298.10 780.11 302.92 C 782.28 307.59 782.14 312.91 781.99 317.94 C 781.70 322.41 781.11 327.49 777.57 330.67 C 774.13 333.67 769.29 333.79 764.97 333.90 C 755.66 333.98 746.35 333.92 737.04 333.93 C 736.87 338.04 736.93 342.15 736.94 346.26 C 731.95 346.26 726.96 346.27 721.97 346.25 C 721.98 329.58 721.97 312.91 721.98 296.24 M 736.95 308.38 C 736.93 312.86 736.93 317.34 736.94 321.83 C 744.62 321.85 752.30 321.85 759.98 321.84 C 762.34 321.81 765.56 321.60 766.58 319.02 C 767.30 316.55 767.21 313.81 766.52 311.35 C 765.62 308.70 762.45 308.45 760.09 308.40 C 752.37 308.32 744.66 308.37 736.95 308.38 Z" />
<path fill="#ffffff" opacity="1.00" d=" M 1036.37 300.35 C 1040.02 297.04 1045.25 296.74 1049.93 296.36 C 1059.58 295.89 1069.30 295.75 1078.93 296.71 C 1083.13 297.24 1088.37 298.39 1090.02 302.87 C 1091.41 307.22 1091.43 312.07 1090.29 316.48 C 1089.41 319.31 1086.43 320.38 1083.88 321.18 C 1087.00 322.09 1090.85 323.39 1091.57 327.05 C 1092.27 331.90 1092.71 337.52 1089.75 341.76 C 1087.02 345.39 1082.10 345.85 1077.94 346.17 C 1067.67 346.62 1057.39 346.59 1047.13 346.19 C 1043.11 345.91 1038.49 345.61 1035.63 342.37 C 1032.43 338.62 1032.42 333.35 1032.65 328.69 C 1037.16 328.68 1041.68 328.69 1046.20 328.69 C 1046.52 330.91 1046.12 334.05 1048.59 335.22 C 1051.90 336.49 1055.56 336.19 1059.05 336.34 C 1064.34 336.29 1069.68 336.52 1074.94 335.74 C 1078.13 335.11 1078.49 330.95 1077.39 328.48 C 1076.51 326.37 1074.02 326.01 1072.03 325.93 C 1066.87 325.73 1061.69 325.91 1056.53 325.84 C 1056.53 322.70 1056.53 319.57 1056.54 316.44 C 1062.32 316.23 1068.18 316.93 1073.92 315.92 C 1078.22 314.87 1077.64 307.36 1073.23 306.81 C 1067.52 306.03 1061.71 306.17 1055.96 306.27 C 1053.43 306.40 1050.66 306.14 1048.49 307.70 C 1046.73 308.87 1047.08 311.21 1046.81 313.02 C 1042.24 312.89 1037.67 312.99 1033.11 312.91 C 1033.54 308.68 1032.91 303.53 1036.37 300.35 Z" />
<path fill="#ffffff" opacity="1.00" d=" M 440.11 304.12 C 443.54 303.50 447.20 303.36 450.58 304.33 C 453.98 305.69 453.92 309.92 453.91 312.98 C 453.79 315.91 453.80 320.00 450.52 321.27 C 446.81 322.28 442.63 322.38 439.00 321.05 C 435.67 319.39 436.10 315.12 436.00 312.01 C 435.88 308.97 436.57 304.88 440.11 304.12 M 442.22 308.12 C 440.76 310.37 441.40 313.32 441.50 315.86 C 441.67 318.56 445.07 318.44 447.01 317.91 C 448.91 317.11 448.42 314.61 448.63 312.96 C 448.45 311.21 449.05 308.51 446.98 307.72 C 445.42 307.43 443.63 307.23 442.22 308.12 Z" />
<path fill="#ffffff" opacity="1.00" d=" M 457.36 303.91 C 459.10 303.91 460.85 303.91 462.60 303.92 C 462.49 304.62 462.28 306.03 462.17 306.73 C 463.63 303.98 467.00 302.83 469.84 304.21 C 472.40 305.58 471.80 308.86 472.07 311.26 C 470.51 311.26 468.95 311.27 467.40 311.28 C 467.34 309.26 466.67 306.54 464.00 307.77 C 463.69 308.11 463.07 308.78 462.77 309.11 C 462.26 313.31 462.66 317.56 462.55 321.78 C 460.82 321.78 459.09 321.78 457.37 321.80 C 457.35 315.83 457.36 309.87 457.36 303.91 Z" />
<path fill="#ffffff" opacity="1.00" d=" M 595.90 312.80 C 601.77 309.83 608.62 310.64 614.99 310.33 C 620.33 310.53 625.94 310.18 630.95 312.37 C 634.57 313.98 636.43 318.07 636.49 321.88 C 636.57 330.01 636.50 338.14 636.52 346.26 C 632.26 346.26 628.01 346.26 623.77 346.26 C 623.75 344.14 623.75 342.03 623.81 339.92 C 622.85 342.66 621.08 345.38 618.05 346.03 C 612.13 347.41 605.94 347.05 599.93 346.67 C 596.05 346.35 591.15 345.19 590.04 340.85 C 588.95 335.85 588.73 328.83 593.85 325.95 C 599.20 323.52 605.29 324.31 611.00 324.10 C 615.38 324.17 621.04 323.71 623.50 328.21 C 623.00 325.28 624.51 320.65 621.01 319.19 C 616.46 318.07 611.68 318.52 607.04 318.65 C 605.19 318.45 603.92 319.72 603.36 321.36 C 599.17 321.37 594.98 321.37 590.79 321.35 C 591.05 317.88 592.52 314.28 595.90 312.80 M 605.42 331.62 C 603.69 331.83 601.83 333.01 602.04 334.99 C 601.79 337.60 604.65 338.87 606.84 338.88 C 611.54 338.96 616.31 339.30 620.97 338.53 C 623.40 338.08 624.15 335.12 623.25 333.08 C 621.66 331.45 619.20 331.46 617.10 331.29 C 613.21 331.22 609.28 331.00 605.42 331.62 Z" />
<path fill="#ffffff" opacity="1.00" d=" M 645.24 311.27 C 650.85 311.27 656.46 311.27 662.07 311.27 C 664.46 314.56 666.79 317.89 669.28 321.10 C 671.75 317.84 674.28 314.62 676.70 311.32 C 682.19 311.21 687.69 311.29 693.18 311.28 C 688.50 316.60 683.86 321.96 679.16 327.26 C 684.26 333.63 689.47 339.91 694.60 346.26 C 689.16 346.27 683.73 346.26 678.30 346.26 C 675.26 342.05 672.26 337.81 669.21 333.61 C 666.19 337.83 663.21 342.07 660.19 346.27 C 654.88 346.25 649.58 346.27 644.28 346.26 C 649.37 340.14 654.47 334.02 659.57 327.92 C 654.80 322.36 650.01 316.82 645.24 311.27 Z" />
<path fill="#ffffff" opacity="1.00" d=" M 794.84 313.89 C 800.03 309.99 806.92 310.67 813.04 310.35 C 818.98 310.45 825.16 310.05 830.86 312.04 C 834.94 313.47 837.13 317.89 837.13 322.02 C 837.21 330.10 837.13 338.18 837.16 346.26 C 832.90 346.26 828.64 346.26 824.39 346.26 C 824.39 344.16 824.40 342.06 824.48 339.96 C 823.50 342.14 822.41 344.61 820.02 345.53 C 815.25 347.38 810.01 346.90 805.01 346.95 C 800.88 346.68 796.30 346.78 792.82 344.21 C 789.90 341.71 789.99 337.45 790.14 333.94 C 790.23 330.49 791.91 326.74 795.38 325.52 C 800.71 323.67 806.48 324.25 812.04 324.10 C 816.30 324.14 821.71 323.87 824.15 328.17 C 823.75 325.07 825.17 319.87 820.97 318.97 C 816.38 318.23 811.66 318.41 807.05 318.72 C 805.37 318.63 804.62 320.08 804.00 321.34 C 799.81 321.38 795.62 321.37 791.44 321.35 C 791.84 318.62 792.38 315.57 794.84 313.89 M 805.60 331.72 C 802.83 331.94 801.69 335.51 803.53 337.45 C 805.56 339.25 808.47 338.89 810.99 338.99 C 814.64 338.88 818.37 339.31 821.96 338.43 C 825.13 337.52 825.02 332.00 821.48 331.75 C 816.25 330.97 810.82 330.94 805.60 331.72 Z" />
<path fill="#ffffff" opacity="1.00" d=" M 842.98 311.27 C 847.69 311.27 852.41 311.27 857.12 311.27 C 860.58 319.92 863.91 328.62 867.42 337.26 C 871.15 328.60 874.92 319.95 878.62 311.29 C 883.39 311.26 888.17 311.27 892.95 311.27 C 885.75 326.36 878.84 341.59 871.46 356.58 C 868.21 363.52 859.52 361.94 853.30 361.87 C 853.28 359.01 853.29 356.15 853.28 353.29 C 855.68 353.11 858.29 353.49 860.51 352.33 C 862.47 350.89 863.16 348.38 864.21 346.29 C 862.35 346.26 860.49 346.26 858.65 346.26 C 853.41 334.61 848.19 322.94 842.98 311.27 Z" />
<path fill="#ffffff" opacity="1.00" d=" M 900.38 311.27 C 904.52 311.27 908.67 311.27 912.83 311.27 C 912.84 313.92 912.81 316.56 912.78 319.22 C 913.79 315.65 916.20 312.23 920.01 311.38 C 926.08 309.97 932.60 309.92 938.64 311.57 C 943.49 312.97 946.93 317.55 947.30 322.54 C 947.93 330.42 947.45 338.36 947.59 346.26 C 943.33 346.26 939.08 346.26 934.83 346.26 C 934.73 339.47 935.02 332.66 934.68 325.87 C 934.64 323.06 932.20 320.96 929.51 320.71 C 925.40 320.28 921.02 319.92 917.08 321.41 C 914.08 322.58 913.18 326.06 913.14 328.96 C 913.00 334.72 913.13 340.49 913.09 346.26 C 908.85 346.26 904.61 346.26 900.38 346.27 C 900.37 334.60 900.38 322.94 900.38 311.27 Z" />
<path fill="#ffffff" opacity="1.00" d=" M 963.81 312.79 C 970.14 310.01 977.30 310.74 984.04 310.62 C 989.59 311.01 996.13 310.26 1000.47 314.48 C 1004.88 318.85 1003.97 325.58 1004.10 331.23 C 992.76 331.25 981.43 331.20 970.10 331.25 C 970.13 333.89 970.26 337.54 973.33 338.46 C 978.46 339.44 983.87 339.59 989.02 338.58 C 990.71 338.30 991.18 336.55 991.79 335.20 C 995.92 335.17 1000.06 335.15 1004.19 335.15 C 1004.04 338.70 1003.02 342.78 999.48 344.39 C 993.12 347.45 985.80 346.75 978.95 346.89 C 972.98 346.43 965.97 347.22 961.26 342.74 C 957.01 338.73 957.09 332.36 957.21 326.96 C 957.37 321.70 958.49 315.25 963.81 312.79 M 974.55 318.73 C 971.68 318.98 970.09 321.69 969.95 324.33 C 977.25 324.43 984.55 324.38 991.86 324.36 C 991.63 322.30 991.23 319.66 988.83 319.11 C 984.19 317.94 979.26 318.17 974.55 318.73 Z" />
</g>
</svg>
