<svg xmlns="http://www.w3.org/2000/svg" width="4165.176" height="512.905" viewBox="0 0 3123.882 384.679"><defs><filter id="a" width="1.013" height="1.12" x="-.007" y="-.06" color-interpolation-filters="sRGB"><feGaussianBlur stdDeviation="8.566"/></filter></defs><path stroke="#000" stroke-width="11.25" d="M105.32 62.33c18.19-6.72 37.93-8.28 57.15-6.87 15.6 2.01 31.54 5.02 45.43 12.73 9.14 4.72 11.26 15.64 16.17 23.8 13.14 23.6 24.88 49.25 46.04 66.92 9.45 8.47 22.65 10.51 34.88 10.91 10.25-1.1 13.24-13.12 12.95-21.78.46-29.57-.39-59.15.28-88.72 26.41-.64 52.83-.24 79.25-.29.88 5.49-.24 12.14 3.94 16.58 7.81 9.19 17.47 16.54 26.45 24.52 18.22 15.26 36.44 30.65 56.39 43.63 2.8 1.5 6.37 4.64 9.45 1.96 6.68-5.97 8.87-15.13 9.08-23.73.7-20.74-.02-41.49.23-62.23 22.64-1.51 45.34-.26 68-1.11 3.71-.21 7.42.08 11.07.77-.17 43.53-.01 87.05-.13 130.58.02 13.74-.11 28.24 6.23 40.84 5.23 8.54 13.02 15.11 20.93 21.08 9.75 7.42 20.17 14.51 32.18 17.65 13.21 1.52 26.53-2.74 37.71-9.56 20.15-15.74 37.48-34.81 52.84-55.18 4.46-6.57 10.47-13.32 9.96-21.83.66-24.99-.02-50 .19-75 .25-16.35-1.07-32.85 1.33-49.09 16.25.09 32.5.03 48.75.18.7 3.93 2.01 7.75 4.05 11.18 1.63-3.56 2.5-7.39 3.53-11.16 35.83-.24 71.67-.08 107.5-.09 1.21 14.93.48 29.92 1.05 44.87 1.05 6.95 2.13 14.49 6.94 20 6.01 8.27 13.39 15.81 22.92 19.97 17.1 8.56 37.92 11.37 56.01 4.28 2.11-.99 5.05-1.82 5.43-4.52 2.13-28.03-1.59-56.31 1.74-84.25 26.8-.75 53.74-1.83 80.49.62 12.29 35.33 26.97 69.84 44.15 103.08 2.89 5.56 3.32 12.36 8.27 16.76 4.25 3.81 7.93 10.67 14.72 8.97 8.29-1.97 15.95-8.14 18.61-16.4 1.53-4.55 2.18-9.34 2.87-14.07 2.38-33.09-1.46-66.44 1.84-99.46 24.03.31 48.07-.17 72.11.4.74 7.34.87 15.16 4.68 21.74 8.3 15.24 18.79 29.76 33.02 39.98 8.57 5.54 18.54 11.19 29.15 9.26 7.94-2.22 9.48-12.5 10.88-19.26 1.85-16.52.66-33.2 1.05-49.78.71-.71 1.44-1.41 2.19-2.12 18.23-.76 36.48 1.2 54.72.16 18.32-.47 36.67-.2 55.01-.38 7.77.09 15.89-.27 23.31 2.54-.89 4.16-1.79 8.33-2.56 12.52l4.67.02c.43-4.17-.01-8.51 1.07-12.61 1.11-2.89 5.47-1.26 7.5-2.19 17.55-.58 35.12-.16 52.7.09 1.02 15.27-1.44 30.89 2.03 45.94 2.92 11.38 10.96 21.24 21.36 26.69 23.16 12.16 48.04 20.55 72.56 29.5 12.5 4.17 25.47 6.61 38.27 9.74 22.02 5.3 44.05 10.6 66.09 15.89 9.67 2.36 19.65 4.34 29.66 3.56 8.86-3.29 11.56-14.02 11.27-22.52.16-35.37.34-70.76-.46-106.12.37-3.3 5.62-2.33 7.52-2.78 23.55-.47 47.13-.22 70.69.18.73 19.45-.55 39 1.64 58.38.94 6.05 2.07 12.89 6.44 17.5 14.97 9.65 31.79 15.95 47.27 24.75 8.3 3.9 16.44 9.31 25.88 9.86 4.22-.2 5.57-5.34 4.95-8.8.89-33.98-.95-68.03.83-101.99 26.32.07 52.65-.29 78.99.2.84 31.93-.11 63.87.4 95.81.27 6.83 1.82 14.92 8.54 18.37 5.34 1.17 11.04.52 16.48-.3 22.21-5.72 45.1-10.08 65.86-20.21 11.44-5.97 13.69-20.04 13.72-31.74-.9-20.71-1.25-41.48.21-62.17 17.37-.42 34.74 1.22 52.11.08 8.9-.09 17.89-.61 26.83.17 3.18 3.38 1.41 8.63 2.21 12.74.25 13.34-.58 26.69.14 40.03.72 3.99 2.91 9.02 7.81 9.07 5.86 2.25 11.83-.68 17.42-2.53 22.12-9.61 43.49-20.9 64.64-32.46 4.28-2.88 9.55-4.97 12.64-9.3 1.6-5.48 1.34-11.36 2.18-17 19-1.25 38.07-.74 57.13-.89 6.65.18 13.55-.12 20.15 1.33.06 26.83-1.14 53.73 1.19 80.49.79 11.28 6.22 22.97 16.66 28.26 17.21 8.91 36.34 13.25 54.98 18.13 22.72 6.06 46.94 9 70.21 4.22 5.79-1.59 12.71-4.12 14.73-10.39 2.55-9.06 1.87-18.62 2.16-27.93-.18-25 .11-50.01-.3-75.01-.08-6.35-.36-12.75.49-19.07 26.45-.25 52.93.53 79.4.36.75 26.91.1 53.83.24 80.75-.03 5.63.42 11.73 3.39 16.67 4.74 4.74 11.81 3.35 17.84 2.47 51.57-13.64 103.23-27.01 154.93-40.21 51.06-14.04 102.45-26.91 153.02-42.73 15.8-4.11 30.71-11.57 46.89-14.17 5.9-.7 9.64 4.61 14.33 7.24-1.28-3.5-2.98-6.81-4.58-10.16 15.67-5.79 32.9-4.81 49.27-3.11 22.46 3.5 46.17 11.81 60.09 30.9 7.05 8.26 12.2 18.18 14.1 28.95 3.3 17.89 2.75 36.57-2.1 54.14-2.83 9.78-4.52 21.11-12.97 27.85.49 13.68-7.67 25.23-13.08 37.15-8.58 18.13-19.06 35.26-30 52.04-4.35 6.54-7.56 14.35-6.57 22.36 2.89 9.93 13.41 14.16 22.48 16.74 10.92 4 22.98 2.21 33.97 5.96 2.27 20.45 1.18 41.29.46 61.86-22.44-.13-44.84.1-67.24.6-20.06-.8-40.12-.6-60.16-.58-.86-1.96-1.69-3.92-2.47-5.89-1.57 1.93-3.13 3.87-4.68 5.79-21.91-.06-43.83.65-65.7-.25-15.71-2.06-31.14-5.78-46.81-7.95-37.19-5.47-74.73-8.96-112.33-8.95-16.18-1.38-32.52-2.87-48.7-1.37-7.3 2.31-3.88 12.89-6 18.28-55.62.82-111.25.05-166.86.4-1.88-16.11.28-32.41-1.4-48.57-11.38-5.42-23.32 1.28-34.41 4.11-11.22 3.58-24.36 6.19-31.65 16.37-4.82 8.29-2.23 18.62-3.38 27.71-28.53.7-57.07.11-85.59.36-11.43-.05-22.87.47-34.22-.63-1.65-1.86-2.91-3.9-4.46-5.75.73 6.76-5.23 6.93-9.71 6.99-10.95-.33-21.88-.71-32.75-1.65-1.41-3.46-.78-9.02-4.94-10.86-11.99-6.86-25.79-9.64-39.08-12.84-18.87-3.54-38.93-6.62-57.43.27-1.59.65-2.65 2.16-2.87 3.84-1.27 6.53-.87 13.21-1.5 19.81-22.34 1.52-44.73.35-67.07 1.05-3.94-.04-7.87.48-11.69-.61-3.21-5.21-1.73-11.9-2.31-17.63-.85-15.3 1.5-30.67-.18-45.92-1.14-4.52-1.1-11.65-6.62-13.34-11.6-2.33-23.05 1.89-34.32 4.01-15.12 3.74-30.47 7.15-44.84 13.23-8.15 3.07-13.8 10.72-16.22 18.85-3 13.45-1.54 27.38-1.84 41.04-9.97.13-19.92-.05-29.83.69-.11-3.81-.18-7.61-.21-11.4-.87.29-1.71.58-2.53.87 1.57-2.93 2.97-5.95 4.21-9.05-2.06-.5-4.12-.96-6.15-1.4-1.28 7.07-.24 14.25 1.28 21.21-15.19-1.06-30.4-.86-45.58-.84-1.59-31.31-1.12-62.66-1.07-94-.16-8.31-.18-18.17-6.84-24.21-6.7-6.48-16.94-6.57-25.37-3.98-16.88 5.68-31.87 16.17-44.15 28.94-7.25 8.09-8.54 19.32-9.28 29.67-1.09 21.07.01 42.19-.65 63.28-25.82.55-51.65.48-77.46.05-.73-28.57-.13-57.16-.26-85.74.41-14.98-3.97-29.88-11.17-42.92-8.66-11.72-18.29-23.53-31.33-30.57-8.51-4.44-18.7-5.62-27.94-2.97-19.84 5.13-38.77 13.08-58.01 19.99-41.22 15.12-81.39 32.9-121.55 50.58-8.69 3.85-17.08 8.31-25.62 12.46-12.15 6.11-22.69 17.58-24.24 31.54-2.26 15.84-.62 31.94-2.04 47.87-25.81.06-51.61.05-77.41.02-1.06-14.44-.27-28.95-1.34-43.37-.64-4.35-1.88-9.96-6.8-11.24-5.35-.66-10.88-.95-15.93 1.18-37.99 12.58-76.68 23.24-113.81 38.27-.44 4.94-.89 9.87-1.27 14.82-24.55-.48-49.1.93-73.65.34-9.93-22.75-18.4-46.59-33.25-66.73-2.21-3.09-6.73-3.78-9.72-1.35-15.95 8.81-29.95 20.65-44.19 31.9-10.65 8.53-9.94 22.99-9.33 35.23-2.91-.1-5.45-.06-8.25-.14-.25-1.25-.74-3.74-.98-4.99-.51 1.42-1.51 4.25-2.02 5.67-20.78 1.12-41.61.14-62.4.41-2.16-15.77 2.71-33.43-6.17-47.66-3.14-5.37-10.83-5.41-15.64-2.32-19.59 10.09-37.57 22.98-56.17 34.74-6.68 3.82-12.23 9.24-17.25 15-14.08.34-28.15.32-42.21.16-1.2-2.91-2.51-5.78-3.89-8.61-1.92 2.69-3.57 5.55-5.11 8.46-24.79.22-49.6.66-74.38.04-3.77.48-6.98-1.23-10.07-2.97-7.79 4.34-17.27 3.49-25.83 3.07-3.13-5.89-1.07-13.17-3.71-19.28-2.87-6.39-8.25-11.09-13.52-15.49-10.43-8.65-20.73-17.54-32.14-24.89-4.04-2.58-8.71-4.39-13.59-4.16-3.79 1.09-7.64 3.61-8.31 7.77-2.53 18.64 1.16 37.71-2.04 56.3-31.56-.47-63.14.61-94.65-1.22-24.2 1.59-48.46 1.23-72.69.85-.86-8.42.89-17.32-1.74-25.48-1.51-4.29-6.44-5.85-10.51-6.59-20.81-2.4-41.13 3.97-60.91 9.6-9.9 3.24-20.44 5.63-28.91 12.02-2.09 3.11-2.65 7.03-4.01 10.5-26.44-.02-52.92.92-79.34-.45-.23-30.45.3-60.91-.17-91.36-.94-8.92-1.23-18.66-6.64-26.24-5.58-4.34-12.93.24-17.53 3.85-10.08 8.55-19.85 17.52-28.69 27.36-10.59 11.73-22.46 22.24-32.8 34.2-13.69 14.95-26.23 31.67-44.15 41.88-21.57 12.8-47.42 15.8-72.07 15.12-2.75-.69-7.89 1.08-9.63-2.38-3.08-5.44-4.42-13.49-11.84-14.57 2.05 5.97 5.7 11.16 9.43 16.17-15.1.22-29.89-3.94-43.78-9.58-2.98-1.55-6.71-2.33-8.83-5.14-2.02-3.48-.7-7.91-1.36-11.66.05-28.49-.19-56.98.33-85.46 5.62 7.04 13.79 15.31 23.79 12.54 12.46-4.62 22.95-13.52 32.02-23.02 3.83-4.24 8.66-9.86 6.94-16.06-2.42-5.33-8.33-7.72-12.14-11.92-2.63-2.86-1.17-7.48-2.49-10.82-1.81 1.39-3.64 2.76-5.48 4.1-17.07-13.38-33.47-29.16-41.74-49.66-6.17-17.69-10.09-36.98-6-55.59 2.5-12.55 5.85-25.25 12.89-36.1 10.96-17.15 27.97-30.22 47.24-36.71m2914.74 1.18c1.55 2.95 3.34 5.77 7.29 5.84.29-1.67.61-3.34.96-5.01-2.74-.51-5.51-.82-8.25-.83m-1987.05 3.01c1.16 8.26 3.5 16.29 4.92 24.5.44 3.99 1.76 7.81 3.71 11.29 1.45-.3 2.92-.6 4.39-.91-3.07-11.82-6.47-23.56-9.21-35.47-1.29.2-2.56.39-3.81.59m-461.33.09c-1.93 4.67-3.85 9.45-3.63 14.64 4.64-2.94 6.22-8.44 8.42-13.17-1.6-.5-3.2-.99-4.79-1.47m857.07 6.07c1.87-.12 3.76-.26 5.66-.44-.94-1.96-1.93-3.9-2.94-5.81-1.1 2-2.01 4.09-2.72 6.25m531.41-4.14c.21 2.7.81 5.42 1.23 8.12 2.35-2.47 3.67-5.64 2.39-8.99-.9.22-2.72.65-3.62.87m-481.58.6c.56 1.86 1.14 3.71 1.77 5.55 1.51-1.67 2.9-3.45 4.28-5.25l-6.05-.3m833.03 3.85c.96 1 1.98 2 3 3 1.17-.76 2.37-1.52 3.59-2.28-.85-1.73-1.7-3.44-2.52-5.16-1.39 1.46-2.74 2.96-4.07 4.44m18.11-3.84c.86 2.14 1.75 4.26 2.72 6.36 1.19-2 2.27-4.06 3.26-6.18l-5.98-.18m-350.95 3.95c.58 2.58 1.48 5.19 2.22 7.76.98-.36 1.99-.71 3.02-1.07-.41-2.25-.82-4.5-1.18-6.75-1.38.01-2.73.03-4.06.06m11.22 4.68c2.05.53 4.14 1.02 6.25 1.48-.64-2.41-1.34-4.81-2.02-7.21a44.56 44.56 0 0 0-4.23 5.73m606.67-1.02c-.77 2.05-1.44 4.12-2.07 6.2 2.09.37 4.16.72 6.31 1.04-1.55-2.52-2.49-4.96-4.24-7.24m-274.86 2.55c.25 1.7.54 3.39.87 5.09 2.47-1.08 5.25-2.26 7.45-4.01-2.76-.6-5.53-.96-8.32-1.08m639.58 3.67c-3.45 9.65 2.51 19.02 3.26 28.57.6 4.24 2.49 8.11 4.56 11.83 2.74-.82 2.37-4.41 2.3-6.71-1.68-11.6-4.85-23.2-10.12-33.69M399.77 85.31c-3.11 13.3-1.4 27.17-1.81 40.69.56 18.45-1.53 37.19 1.87 55.45 12.32-2.62 23.18-9.29 34.76-13.95 9.73-4.55 19.82-8.82 28.13-15.79 1.48-1.35 2.67-3.46 2.09-5.51-3.55-9.56-11.64-16.39-19.02-22.99-15.18-12.83-30.12-25.96-46.02-37.9m487.02 5.96c1.75.11 5.26.34 7.01.45-1.12-2.3-2.38-4.53-3.82-6.64-1.13 2.03-2.23 4.07-3.19 6.19m-783.52-3.45c.55 2.37 1.14 4.73 1.72 7.09 1.57.41 3.14.81 4.71 1.23.39-1.86.81-3.72 1.24-5.57-2.48-1.1-5.05-2.02-7.67-2.75m2150.16 22.11c11.4-.56 22.51-3.35 33.55-6.07 5.25-1.06 8.24-5.67 11.45-9.5 2.83.47 5.68.9 8.56 1.23-1.73-4.12-5.87-4.38-9.62-3.37-1.13-1.63-2.27-3.25-3.38-4.86-13.9 6.75-28.11 13.32-40.56 22.57m-1187.5-20.91c-.32 2.26-.63 4.53-.95 6.79 1.29.97 2.57 1.93 3.89 2.89 1.13-3.11 1.72-6.37 1.87-9.67-1.62-.01-3.22-.01-4.81-.01m1099.37 1c.13 3.47-.04 7.74 5.74 6.75-.37-2.24-.72-4.48-1.07-6.72l-4.67-.03m12.57 9.53c3.19-2.53 6.1-5.54 5.85-10.08-4.44 1.43-4.9 6.16-5.85 10.08M73.75 91.03c.35 1.72.72 3.44 1.13 5.15 1.26-.22 2.52-.45 3.77-.68-.24-1.48-.49-2.96-.72-4.44l-4.18-.03m22.15 1.03c.42 1.33.86 2.67 1.29 4 .89-.73 1.77-1.46 2.66-2.19-.36-.98-.72-1.97-1.07-2.95-.96.37-1.93.76-2.88 1.14m1149.09-.09c.9 21.24-2.54 43.39 3.91 64.01 2.53-1.35 5.47-2.42 7.05-5.02 4.38-6.99 2.61-15.68 1.49-23.35-2.35-12.03-4.69-24.2-9.21-35.64h-3.24m-1030.45.93c-3.05 20.37.3 43.81 16.15 58.42 4.1 4.28 10.11 5.91 15.87 5.22-2.32-9.92-5.61-19.61-10.54-28.55-6.23-11.53-10.71-23.97-17.94-34.96-.88-.03-2.65-.1-3.54-.13m552.01 1.71c3.26 5.78 6.77 12.59 14.01 13.91-2.78-6.22-8.78-9.94-14.01-13.91m17.16 1.83c.54 1.42 1.09 2.84 1.64 4.27 1.79-1.2 3.54-2.47 5.23-3.82-2.29-.26-4.58-.43-6.87-.45m264.73 11.33c1.6.87 3.2 1.76 4.82 2.64.71-4.68 1.3-9.39 1.56-14.13-3.16 3.18-5.02 7.29-6.38 11.49m1534.61-1.19c-1.04 6.78-3.9 12.96-6.26 19.29.64 5.18 3.21 10.46 7.91 13.1.16-5.92-.65-11.93.79-17.75 2.06-7.27 4.05-14.59 5.43-22.03-3.31 1.52-6.99 3.54-7.87 7.39m-408.32-5.4c.68 1.69 1.46 3.37 2.22 5.05 1.52-1.04 3.05-2.06 4.63-3.09-2.24-.82-4.54-1.47-6.85-1.96m744.73.42c-11.43.85-22.89 1.54-34.13 3.72-77.51 15-153.65 36.11-230.34 54.64-8.68 2.22-17.39 4.13-25.71 7.42-6.44 1.69-11.76 7.23-13.13 13.72-1.48 8.93-1.61 18.11-.5 27.09-.2 7.79 7.02 12.14 13.2 14.97 21.37 7.5 43.65 11.81 65.57 17.37 13.95 3.79 28.55 4.29 42.91 2.83 13.56-1.72 26.5-6.34 39.38-10.75 22.01-7.6 43.76-16.26 64-27.88 29.67-17.04 51.55-43.98 73.24-69.78 6.64-8.38 14.6-16.16 18.81-26.16 2.98-8.61-8.36-7.3-13.3-7.19m-351.45 5.3c-.45 2.02-.87 4.04-1.24 6.07h4.36c.24-1.82.48-3.64.73-5.46-1.31-.21-2.6-.42-3.85-.61m423.89 3.25c.21 2.82.95 5.65 1.43 8.46 1.77-1.68 3.45-3.46 5.07-5.33-.91-1.43-1.75-2.88-2.56-4.34-1.35.39-2.67.8-3.94 1.21m-708.44 1.34c-17.01 2.5-33.8 6.66-50.15 11.91-12.23 4.63-25.2 8.18-35.86 16.06-6.59 6.86-4.22 17.03-4.58 25.54.45 25-.35 50.01.3 75-.91 7.68 4.69 14.76 11.94 16.75 13.87 4.25 28.33 8.8 43.05 6.6 13.71-1.87 28.12-3.79 40.29-10.9 9.93-7.18 8.65-20.7 8.68-31.45-.68-34.86.73-69.78-.64-104.61-1.08-5.73-8.67-5.75-13.03-4.9m723.03 8.03c-2.96 3.4-3.06 8.17-1.91 12.31 8.91-4.64 16.06-12.09 22.27-19.88-7.52-1.4-15.49 1.82-20.36 7.57m-1969.2-7.33c-2.64 1.55-3.05 5.08-2.55 7.89 1.9.79 4.48 1.62 6.09-.23 3.44-2.31.5-9.1-3.54-7.66m936.43-1.11c-.17 7.34-.1 15.35 4.74 21.38 4.03 5.23.04 12.13.75 18.02.74.18 2.23.52 2.97.7 3.15-5.92 5.64-12.17 6.99-18.75-2.79-2.11-5.82-4.4-6.47-8.07-.89-5.56-3.7-10.87-8.98-13.28m1061.11 1.55a67.82 67.82 0 0 0-3.46 8.65c4.51.23 9.05.01 13.6-.14-.01-1.42.02-2.85.08-4.27-3.46-1.42-6.81-2.84-10.22-4.24m-56.6 20.12c3.16-5.26 4.31-11.6 1.53-17.29-2.76 5.42-4.13 11.57-1.53 17.29M807.28 117.7c1.11 2.14 2.39 4.2 3.72 6.23 1.32-2.03 2.59-4.09 3.72-6.23-2.48-.17-4.97-.17-7.44 0m1781.75 7.05c4.26 1.04 8.48 1.74 12.88 2.21-1.68-3.4-3.58-7.63-7.85-8.11-2.18 1.49-3.58 3.77-5.03 5.9m-1325.94-4.9c1.18 8.88 2.94 17.68 4.63 26.48.9 4.29 2.62 9.24 7.22 10.75 10.31 3.32 22.1 2.79 31.51-2.93-2.82-9.36-11.08-15.44-18.37-21.22-7.93-4.94-15.28-12.13-24.99-13.08m728.66.14c.72 1.66 1.46 3.32 2.23 4.98l3.15.04c-.21-1.55-.37-3.1-.53-4.65-1.63-.13-3.26-.25-4.85-.37m-1478.93.41c-.06 5.57-.93 11.57 2.02 16.59 2.64 5.19 2.68 11.14 3.66 16.77 2.83-2.64 6.24-5.77 5.75-10.04-2.6-8.21-3.92-17.86-11.43-23.32m-165.96 1.45c.3 1.83.91 5.5 1.21 7.34 1.59-2.12 3-4.37 4.03-6.83l-5.24-.51m-202.97 5.62c.03 1.59.05 3.19.08 4.79 7.05 2.83 14.53 4.27 21.93 5.88 11.09 2.37 22.52 4.38 33.88 2.9-1.51-2.34-2.86-4.93-5.16-6.6-15.31-8.61-33.65-11.36-50.73-6.97m1684.29-3.56c-3.37 5.22-4.29 11.23-2.31 17.1 2.44-2.8 6.64-4.99 7.14-8.98 1.81-4.43-2.24-6.13-4.83-8.12m-1007.03 16.1c-3.8 14.13-1.7 28.89-.07 43.19 4.32 1.22 8.78 2.1 13.29 1.11 14.76-2.41 29.07-6.94 43.63-10.3 17.85-4.85 36.61-7.69 52.92-16.92-3.09-12.73-14.82-21.33-25.55-27.45-17.46-5.93-36.34-3.12-54.4-3.66-11-.48-25.51 2.34-29.82 14.03m2179.65 21.9c-2.1 4.88 4.28 8.32 7.27 10.99 9.6 6.15 20.19 12.26 31.92 12.73 8.81-13.81 13.76-29.77 15.64-45.97.29-5.13-2.63-9.68-4.51-14.24-21.21 3.52-41.52 16.39-50.32 36.49m-1190.69-35.27c-3.14 3-6.56 5.92-8.69 9.73-.15 3.97.18 7.94.53 11.9 4.59-6.34 8.68-14.51 17.73-14.81-2.73-2.88-6.14-4.93-9.57-6.82m-1702.86 1.43c-1.4 1.39-2.79 2.78-4.18 4.18 2.48 1.32 4.97 2.47 7.63 3.45-.98-2.67-2.13-5.15-3.45-7.63m1671.29.25c-1.71 2.27-2.11 4.94-.1 7.18 1.55-.93 3.15-1.85 4.76-2.75-1.55-1.5-3.11-2.98-4.66-4.43M2947.5 130c1.38 3.38 2.84 6.69 4.39 10.02 4.71-.1 9.63.84 14.33-.02 3.24-1.48 1.8-5.64 1.42-8.34-3.79 2.36-7.46 4.9-11.33 7.07a299.86 299.86 0 0 1-3.61-9.88c-1.78.34-3.51.72-5.2 1.15m-31.86 12.66c-12.36 14.21-23.72 29.23-35.71 43.75 3.17-.81 6.35-1.73 9.37-3.07 12.87-5.98 26.3-10.69 38.86-17.35.92-12.14 1.88-24.33 1.14-36.51-5.31 3.53-9.47 8.49-13.66 13.18m173.81-4.24c2.15-.78 4.33-1.61 6.49-2.45-.05-1.57-.07-3.15-.06-4.72-3.72.54-8.36 1.22-6.43 7.17m-1126.96-3.95c.46 2.05.98 4.11 1.53 6.16 3.85-1.1 7.6-2.55 11.12-4.5-1.72-1.3-3.28-2.83-5.25-3.68-2.53.55-5 1.23-7.4 2.02m-605.81 3.22c-13.06 3.17-25.83 8.27-36.67 16.33-2.74 2.07-6.5 4.23-7.02 7.99-.45 7.82 4.26 14.48 8.2 20.78 11.79 17.4 24.02 34.51 36.78 51.22 5.8 7.41 12.04 16.03 21.93 17.84 1.41-5.87 3.44-11.7 3.12-17.82-.08-26.68.29-53.36-.19-80.03.14-6.27-2.43-13.7-8.81-16.03-5.3-3.22-11.72-1.15-17.34-.28m117.17-.89c-7.51 1.98-10.57 10.57-11.42 17.5-.06 38.88-1.02 77.8-.22 116.69.23 8.66 1.84 20.56 11.96 22.96 13.54.2 26.03-6.16 38.86-9.73 53.5-16.23 106.42-34.27 159.04-53.13 8.79-3.13 18.28-5.94 24.94-12.9-5.62-6.96-13.13-12.09-20.87-16.4-35.59-18.66-73.28-32.87-111.44-45.27-24.01-6.47-47.9-13.45-72.1-19.14-6.08-1.66-12.61-1.75-18.75-.58m-1348.88 9.16c-1.24 8.25-.61 17.5 4.68 24.36 4.95 6.64 11.05 12.62 18.32 16.69 5.64 3.15 13.37 4.39 18.35-.69 7.93-8.66 12.78-20.29 12.05-32.18-11.72-10.08-26.98-16.02-42.36-16.97-5.54-1.36-11.02 3.22-11.04 8.79m215.61-9.05c-.58 2.3-.98 4.65-1.15 7.01h6.14c-.18-2.36-.57-4.71-1.15-7.01h-3.84m1777.73 3.22c-.46 1.35-.88 2.7-1.27 4.05 5.53 2.39 9.89 6.48 12.92 11.69 1.86-1.86 3.48-3.93 4.92-6.14-5.13-2.72-10.89-5.12-14-10.29-.88.22-1.77.46-2.57.69m482.66 6.68c1.97 2.22 5.06 1.69 7.73 1.7-.98-2.96-2.12-5.85-3.54-8.61-1.67 2.11-3.94 4.08-4.19 6.91M1235.01 142c-.02 1.67-.03 3.35-.01 5.03.93-.43 1.88-.85 2.85-1.26.06-1.25.13-2.5.21-3.74-.76-.01-2.29-.03-3.05-.03m609.81.18c-3.7 9.69-5.42 22.36 2.88 30.12 6.38 5.25 14.94 6.43 22.22 10.12 7.08-6.03 17.03-4.56 25.02-1.17 4.82-.52 9.24-3.25 14.03-4.25-2.11-3.16-4.9-5.88-8.25-7.69-18.29-9.7-36.4-20.04-55.9-27.13m1258.69 1.54v7.56c6.34.77 6.34-8.33 0-7.56m-108.73 4.82c-.81 2.38-1.51 4.79-2.09 7.21 2.8-1.09 5.53-2.43 8.05-4.12-2-1.06-3.98-2.09-5.96-3.09m-1037.65 4.33c-.5 4.22-.34 8.5 3.12 11.5 2.53-3.4 1.89-7.56 1.58-11.51-1.18 0-3.53.01-4.7.01M202.54 155.6c-3.38 1.29-5.86 4.1-8.41 6.52-9.21 9.04-17.6 19.33-22.72 31.26-1.29 6.5 4.65 11.43 8.84 15.35 11.02 9.33 20.73 20 30.11 30.93 4.16 4.42 9.11 11.02 16.16 7.7 12.19-3.93 24.57-8.3 35.16-15.71 4.73-4.34 3.04-11.09.94-16.29-3.85-8.66-9.39-16.44-14.75-24.21-8.34-11.76-17.63-23.04-28.99-32-4.3-4.14-10.74-4.83-16.34-3.55m263.52 5.51c-16.64 5.41-32.5 12.94-48.01 20.97-4.56 2.22-8.11 5.9-11.69 9.4 7.69 5.58 17.58 8.07 26.76 4.69 21.01-6.95 36.59-23.84 51.31-39.56-6.49-.66-12.39 2.55-18.37 4.5m610.65-4.3c-.25 2.74-.94 5.42-.95 8.2.84-.02 2.52-.04 3.36-.06.22-2.47.28-4.95.57-7.41-.74-.18-2.23-.55-2.98-.73m-102.67 12.38c2.06 6.6 7.62 11.08 13.3 14.55 5.77 1.4 10.12-3.65 12.13-8.32 1.93-5.84-1-11.88-3.29-17.19-8.37 1.32-15.3 6.36-22.14 10.96m2129.25-10.23c-.15 1.78-.27 3.55-.33 5.33 2.2.14 4.4.24 6.66.29-1.08-2.73-3.05-5.34-6.33-5.62m-1004.83 3.54c-21.57 3.62-42.33 10.81-63.39 16.48-8.46 2.21-17.17 4.54-24.32 9.79-3.89 3.56-4.28 10.35-.9 14.37 4.26 4.35 10.91 3.75 16.45 4.64 25.41 1.58 48.49-11.22 69.3-24.21 5.8-4.16 12.75-8.63 15.28-15.7.91-6.28-8.42-6.59-12.42-5.37m-1994.28.36c-.62 1.79-.76 3.7-1.04 5.57 2.52-1.03 5.02-2.09 7.5-3.22-2.07-1-4.21-1.86-6.46-2.35m1158.77 4.01c-6.12 1.6-13.3 3.59-16.26 9.81-2.52 6.92-2.03 14.53-1.11 21.71.83 4.28 5.34 6.13 8.39 8.64 22.79 15.05 45.6 30.64 71.06 40.93 10.34 4.08 20.31 9.44 31.34 11.5-.31-12.46-7.07-23.21-13.26-33.54-10.19-16.72-21.7-32.67-34.87-47.17-4.43-4.66-9.06-9.52-15.23-11.78-9.48-4.32-20.34-2.78-30.06-.1m683.74-3.7c1.61 5.21 3.68 11.45 9.83 12.55-2.18-4.87-4.7-10.26-9.83-12.55m-1013.68 4.64c-20.82 4.16-41.39 9.46-62.13 13.97-7.79 2.28-16.49 2.95-23.19 7.88-2.54 1.67-2.62 6.03.09 7.57 6.06 4.11 13.54 6.46 20.9 6.35 16.75-1.83 32.34-8.93 47.05-16.8 9.67-5.02 20-9.19 28.01-16.84-3.35-1.54-6.99-3.14-10.73-2.13m-588.71 4.87c1.54.56 3.09 1.11 4.65 1.65l-.64-7.08a52.77 52.77 0 0 0-4.01 5.43m137.82.41c-11.18 5.26-21.94 14.19-24.96 26.68 6.03 4.41 12.43 8.6 19.77 10.44 5.77 1.81 12.11 4 18.12 1.84 4.08-2.65 7.47-7.09 7.87-12.07.54-9.45.63-20.9-7.11-27.79-4.25-2.95-9.5-1.1-13.69.9m966.23.56c1.32 1.23 2.05 4.02 4.13 3.9 1.19-1.18 2.15-2.57 3.17-3.9-1.24-.96-2.44-1.92-3.65-2.87-1.23.95-2.47 1.91-3.65 2.87m-1166.69.91c-3.52.46-8.61.35-9.32 4.76-.59 7.94 3.69 15.1 7.8 21.53 4.97 7.66 13.59 13.23 22.91 13.07 5.07.93 11.1-1.77 13.31-6.55 3.38-9.55 1.9-22.64-7.7-28.03-8.44-3.71-17.87-4.69-27-4.78m2685.73-.11c-3.41-.12-7.28 1.22-8.35 4.67-.39 3.67 2.31 6.75 3.91 9.87 11.63 17.79 22.51 36.35 37.11 51.96 1.86 2.89 6.52 5.55 9.57 2.68 6.16-5.79 9.87-13.56 14.3-20.65 3.58-7.18 9.17-14.15 8.72-22.62-5.81-11.42-18.66-16.04-29.96-20.05-11.5-3.07-23.28-6.68-35.3-5.86m-1326.39.41c.03 1.28.09 2.57.16 3.86 23.73 9.16 45.23 23.3 69.19 31.89 11.69 4.78 23.93.67 34.71-4.39-.01-.84-.03-2.51-.05-3.35-9.88-4.8-20.4-8.06-30.94-11.03-24.15-6.53-48.51-12.24-73.07-16.98m-711.8 11.33c-8.64 5.05-18.29 9.36-24.15 17.84-6.82 8.07-5.05 19.7-3.29 29.31 1.64 5.21 8.39 3.32 12.24 1.69 14.44-7.58 28.3-16.24 42.03-25.02 9.44-6.01 17.58-13.75 25.23-21.86-5.2-3.92-9.75-9.61-16.37-11-12.59-1.37-24.97 2.73-35.69 9.04m188.34-1.2c3.49-1.24 6.92-3 5.92-7.98-3.43 1.25-7.06 2.98-5.92 7.98m814.75.07c4.45 5.99 10.78 10.61 18.39 11.28-3.28-5.54-7.44-10.6-12.01-15.06-2.71-.5-4.4 2.45-6.38 3.78m946.76 11.04c-13.81 7.94-28.17 17.57-35.16 32.45 22.09-17.79 47.29-31.19 70.45-47.49-12.82 2.13-23.89 9.32-35.29 15.04m-486.66-11.53c2.92 8.71 7.25 16.94 12.83 24.24 7.22 7.69 18.58 3.38 27.76 4 12.63-1.28 27.24-2.7 36.44-12.41-10.58-5.88-23.09-6.65-34.44-10.34-13.98-2.77-28.22-8.74-42.59-5.49m531.63 2.46c-30.32 16.14-59.35 34.68-87.05 54.96-8.01 6.07-17.21 11.48-21.96 20.72 10.69 4.06 21.93 6.34 32.98 9.3 32.64 7.75 65.06 16.51 98 23.02 9.7 1.76 19.99 6.45 29.69 1.63 8.91-6.23 15.34-15.8 18.96-25.98 3.14-21.06-11.47-37.89-21.56-54.74-6.57-10.96-12.83-23.05-24.18-29.79-7.45-5.04-17.51-3.43-24.88.88m-2139.16-3.15c-.89 3.26-1.34 6.63-1.31 10.02 2.18-.9 4.52-1.63 6.39-3.15 1.04-3.61-2.58-5.34-5.08-6.87m1096.45 1.67c-.03 1.37-.02 2.74.04 4.12 1.22-.24 2.44-.49 3.71-.74-.42-1.34-.83-2.67-1.22-3.99-.63.15-1.9.45-2.53.61m-1785.93.93l-.48 4.45c1.32.79 2.64 1.59 3.96 2.39.02-1.88.07-5.65.1-7.53-1.2.22-2.39.45-3.58.69m970.73 1.91c1.68 1.14 3.4 2.24 5.16 3.3.94 7.73 1.86 15.7 5.5 22.72 3.18-.69 6.49-1.47 9.68-2.27-1.68-8.8-4.54-17.51-9.79-24.87-3.24-2.24-7.37 1.03-10.55 1.12m904.5-2.77c-.93 1.43-1.83 2.87-2.75 4.3 1.36.81 2.73 1.61 4.13 2.42-.51-2.25-.97-4.49-1.38-6.72m7.41 1.81c1.64 1.96 3.44 3.79 5.4 5.46.13-1.84.38-5.52.51-7.37-2 .61-3.98 1.25-5.91 1.91m403.28-1.34c-4.42 6.04-6.32 13.5-6.14 20.94.37 7.68-1.18 18.05 6.62 22.72 4.38-2.91 9.07-6.2 10.31-11.72 2.55-11.47-1.01-24.86-10.79-31.94m-1178.93 2.71c.67 2.28 1.5 4.51 2.47 6.7 1.5-1.55 2.76-3.3 3.98-5.09-2.16-.56-4.31-1.11-6.45-1.61m14.84.35a84.46 84.46 0 0 0-1.4 3.06c1.15 1.27 2.31 2.54 3.5 3.79l.8-7.08c-.72.06-2.18.17-2.9.23M1191 190c-.02 1.33-.02 2.66 0 4h4c-.01-1.34-.01-2.67 0-4h-4m906.12 1.14c-12.89 4.99-24.18 13.14-35.15 21.38 1.45 2.56 2.88 5.54 5.99 6.45 9.2 3.93 18.95 7.41 29.02 7.93 7.63 1.51 11.87-6.18 13.66-12.23 1.27-7.03 1.5-14.99-1.76-21.54-2.29-4.43-7.86-3.25-11.76-1.99m213.65 3.6c1.61 2.31 3.51 4.42 5.66 6.26 1.06-2.23 2.12-4.48 3.12-6.75-2.94-.54-5.94-.33-8.78.49m-1969.94.92c2.18 4.22 6.19 7.01 10.76 8.08-.76-2.54-1.08-5.42-2.89-7.49-2.4-1.39-5.27-.71-7.87-.59m705.32 12.21c2-.32 4.02-.66 6.04-.99.35-3.81.37-7.66.42-11.47-2.4 4.03-4.89 8.02-6.46 12.46m98.45-1c7.33 1.82 10.45-4.71 11.95-10.24-5.5 1.16-10.76 4.34-11.95 10.24m763.39-8.66c0 3.68 1.18 7.03 4.41 8.93 1.01-3.91-1.24-6.98-4.41-8.93m-1507.16.83c-5.59 11.44-2.63 24.79.24 36.61 9.06-3.96 15.61-12.38 19.32-21.34 1.48-3.45-1.75-6.56-4.06-8.66-4.12-4.1-10.05-5.38-15.5-6.61m-306.16 5.09c.96 1.8 1.96 3.58 2.98 5.36.55-2.02 1-4.06 1.42-6.1-1.47.23-2.94.48-4.4.74m891.58.54c-7.28 1.12-13.99 4.6-20.3 8.26-14.6 8.61-29.38 16.98-43.18 26.85-4.62 3.89-11.56 8.08-11.19 15.01 2.11 8.27 8.41 14.53 14.42 20.21 10.05 9.07 21.19 17.41 34.08 21.96 10.79 3.88 22.42.33 32.87-3 4.79-1.42 6.27-6.94 6.49-11.35.84-16.57 1.96-33.2 1.04-49.8-.76-6.87-.7-14.2-3.68-20.57-2.25-3.74-5.87-7.66-10.55-7.57m1497.17 3.96c-18.38 2.39-35.95 9.06-52.35 17.48-5.14 3.23-13.36 6.83-10.53 14.45 3.06 19.21 11.82 36.84 19.19 54.65 4.41 9.97 10.1 21.39 21.45 24.53 13.8 1.7 27.49-1.31 40.8-4.7 8.41-2.02 17.78-1.66 25.13-6.91 4.44-3.58 7.45-9.22 7.11-15.05 1.39-24.52 1.42-49.21-.86-73.67-.48-5.8-6.06-9.44-11.38-10.26-12.71-2.27-25.79-1.42-38.56-.52m-2142.74 1.23c.41 1.82.8 3.64 1.25 5.45 1.73-.78 3.45-1.55 5.18-2.34-.43-1.39-.86-2.78-1.28-4.17-1.72.37-3.44.72-5.15 1.06m816.76 20.83c1.91-6.56 2.73-13.49 1.98-20.31-7.96 3.51-7.52 14.79-1.98 20.31m88.45-20.15c-.28 8.61-.18 17.27.76 25.84.65 4.17 4.87 6.45 8.67 7.16 12.03 1.62 24.16 2.35 36.31 2.5.97-.94 1.95-1.87 2.95-2.81-4.09-5.26-9.89-8.79-15.18-12.67-10.73-7.35-21.48-14.92-33.51-20.02m-80.8 22.49c-1.62 19.15 5.52 37.24 12.1 54.8.72.06 2.16.17 2.88.23-1.73-25.74-2.38-52.01-9.92-76.88-4.25 6.4-4.33 14.48-5.06 21.85m685.58-20.85c.41 2.35.88 4.71 1.38 7.05 1.97-.86 3.92-1.74 5.91-2.62-.99-3.55-3.79-4.95-7.29-4.43m-1398.26 2.45c-14.93.28-26.81 10.12-38 18.8-7.37 6.52-15.81 14.06-16.15 24.68-.8 25.28.04 50.59-.35 75.89.3 8.99-.58 18.31 2.09 27.03 2.69 4.75 8.34 8.12 13.95 6.82 12.78-.75 24.71-5.81 36.98-9 17.18-5.56 35.72-11.84 47.03-26.88 5.56-6.56 4.91-15.94 5.15-23.96-.28-21.67.31-43.35-.31-65 .33-11.35-8.76-21.93-19.79-23.98-9.98-2.6-20.22-4.81-30.6-4.4m614.9 9.35c.89-1.64 1.81-3.27 2.76-4.89-1.36-1.22-2.72-2.45-4.04-3.68-1.66 3.06-2.72 6.89 1.28 8.57m827.86-8.99c-.53 1.97-1 3.96-1.44 5.95 2.02.45 4.02.9 6.08 1.34.59-3.63-1.02-6.37-4.64-7.29m-766.63 3.5c1.24 1.73 2.54 3.44 3.9 5.1.13-1.7.4-5.12.53-6.82-1.49.57-2.97 1.14-4.43 1.72m-49.46-.9c-6.19 7.34-6.98 18.18-1.62 26.17 5.68-4.34 11.44-8.99 15.23-15.14 2.29-8.58-7.98-9.47-13.61-11.03m38.92.41c-.02 1.33-.02 2.66 0 4h5c-.01-1.34-.01-2.67 0-4h-5m1645.37 35.67c11.39 3.74 24.34 5.4 35.65.41 16.65-7.81 29.13-21.94 40.14-36.29-26.27 9.66-51.54 21.97-75.79 35.88m-1561.96-34.5c.97 1.88 1.98 3.74 3.02 5.6 1.94-1.64 3.78-3.39 5.46-5.31-2.12-.07-6.36-.22-8.48-.29M1235 219v3h3v-3h-3m733.87-.25c.19 1.96.39 3.92.63 5.89 1.25-1.56 2.46-3.16 3.65-4.8-1.45-.37-2.88-.73-4.28-1.09m401.2-.36c-2.08 3.09-3.72 6.54-3.22 10.37 2.94-2.68 4.49-6.45 3.22-10.37m-2247.54.77c-.19 2.06-.57 6.18-.75 8.23 2.29.74 4.62 1.35 6.97 1.91-1.02-3.94-3.15-7.47-6.22-10.14m178.4 11.8c-2.45 3.68.55 7.61 2.09 10.93 2.39 4.76 6.81 8.16 11.76 9.97 3.19-9.2 3.75-18.94 3.3-28.62-1.4-1.19-2.79-2.39-4.17-3.6-4.68 3.32-10.59 5.75-12.98 11.32M2352 222a138.9 138.9 0 0 0 0 5h3a138.9 138.9 0 0 1 0-5h-3m-910.61 8.01c2.93-.57 6.09-1.09 9.09-1.76a366.33 366.33 0 0 0-4.69-6.13 59.678 59.678 0 0 0-4.4 7.89m736.75-.94c2.06-.28 4.18-.57 6.28-.9-.75-2.1-1.55-4.18-2.32-6.25-1.35 2.31-3.06 4.67-3.96 7.15m-750.31-.43c1.87.42 5.6 1.24 7.47 1.66-.42-1.87-1.24-5.6-1.66-7.47a17.728 17.728 0 0 0-5.81 5.81m550.88-.21c1.75.87 3.54 1.74 5.32 2.61-.15-1.7-.46-5.11-.62-6.81-1.63 1.34-3.2 2.75-4.7 4.2m56.74-2.81c-7.86.96-15.23 4.59-21.4 9.43-3.23 3.07-4.29 7.62-5.38 11.77-2.83 10.5-1.76 21.52-.91 32.21.78 6.5 1.88 16.12 9.84 17.37 20.09 3.62 40.34 6.92 60.73 8.32 9.46.47 21.88.35 27.51-8.83 7.4-9.43 5.85-22.22 5.45-33.43-.56-11.34-6.22-24.41-17.88-27.92-18.56-6.28-38.26-11.03-57.96-8.92m-1342.4 34.04c14.25-2.22 28.51-5.28 41.91-10.74 5.81-3.02 7.3-9.86 8.42-15.72-1.78-1.11-3.55-2.23-5.32-3.33-15.48 9.02-32.72 16.41-45.01 29.79m538.99-28.46c1.65 4.64 3.52 9.19 5.62 13.66.74-1.89 1.71-3.75 1.95-5.8-.34-3.46-2.6-6.3-4.38-9.14-1.08.42-2.14.85-3.19 1.28m1386.35-.19c9.82 8.85 22.67 12.87 34.62 17.95 10.98 3.88 22 9.37 33.97 8.96 5.91.83 10.61-3.13 14.84-6.63-17.01-7.63-35.46-11.16-53.42-15.74-9.91-1.88-19.79-6.08-30.01-4.54m-755.5 2.82l.52 6.69c.72.17 2.16.51 2.87.68 1.15-3.32 2.12-6.71 2.75-10.18-2.09.89-4.13 1.83-6.14 2.81m-1072.75 1.06c-.28 1.58-.54 3.17-.8 4.75 2.38.01 4.79.01 7.21.01.21-1.3.43-2.59.65-3.89-2.37-.29-4.72-.58-7.06-.87m1514.93-.37c.29 2.51-.12 5.63 2.16 7.38 3.45 1.12 5.27-2.4 6.84-4.76-2.8-.95-6.41-1.88-9-2.62m76.91 2.57c-5.55 1.63-6.02 8.35-6.65 13.04-.34 8.45 2.36 17.06 8.34 23.18 11.94 12.44 25.2 23.53 38.33 34.69 5.55 4.36 11.05 9.34 17.95 11.44-1.57-11.96-7.12-22.9-11.45-34.03-7.18-14.75-11.75-30.95-21.74-44.19-5.85-7.37-16.74-6.76-24.78-4.13m-2276.4-1.78c1.56 3.72 3.32 7.36 5.26 10.9 1.47-.49 2.95-.98 4.43-1.45-1.73-4.43-4.54-8.78-9.69-9.45m957.48.6c.65 2.09 1.29 4.18 1.96 6.28 1.93-.57 3.87-1.17 5.83-1.71.03-1.13.08-2.25.15-3.37-2.57-.38-5.48-.85-7.94-1.2m678.51 1.92c3.72 9.82 11 18.34 19.63 24.25.85-4.62 2.18-9.7-.22-14.08-3.24-7.06-11.44-12.97-19.41-10.17m595.34-.41c.89 2.1 1.93 4.14 3.11 6.12 1.55-1.86 2.76-3.97 3.97-6.08l-7.08-.04m-1577.55-.43c-.08 1.85-.22 5.54-.3 7.39 2.34-.58 4.67-1.2 7.01-1.83-1.55-2.53-3.58-4.91-6.71-5.56m326.76 8.12c-5.89 5.83-12.16 12.27-12.98 20.98-2.71 15.79-.26 31.9-.09 47.79-2.85-.16-5.82-.35-8.6-.47-.23 1.49-.43 2.98-.6 4.47 2.53.05 7.61.16 10.14.21.01 1.66.03 4.99.03 6.65-2.09.38-6.29 1.14-8.39 1.51 2.25 2.58 5.09 4.52 7.99 6.29.8 3.5 1.57 6.98 2.43 10.49l3-.04c10.09-14.81 18.83-30.52 26-46.94 9.04-18.3 6.36-43.32-9.17-57.28-3.97.7-6.98 3.68-9.76 6.34m867.14-6.46c-.89 1.75-1.74 3.5-2.58 5.26.81 1.03 1.65 2.06 2.52 3.09 1.37-1.02 2.76-2.03 4.19-3.03-1.38-1.79-2.75-3.56-4.13-5.32m-1721.44 13.1c-3.06 1.22-6.9 3.38-6.62 7.2 1.22 12.03 6.1 23.45 6.33 35.63 1.3 12.7-2 25.09-3.42 37.61 6.51-2.27 10.96-7.7 15.99-12.08 13.3-12.11 24.95-25.88 35.89-40.12 4.97-7.13 10.46-14.1 13.71-22.24.38-7.78-6.38-15.03-13.71-16.71-16.7-.89-32.83 4.79-48.17 10.71m914.89-10.94c-.25 2.74-.96 5.37-.94 8.17 1.42 0 2.86 0 4.31.01-.19-2.51-.35-5-.5-7.49-.72-.17-2.15-.52-2.87-.69m1470.01 1.54c-2.98 14.38-3.47 29.57.26 43.84 2.25 4.09 8.09 4.4 11.98 2.68 14.67-3.93 27.92-11.89 40.37-20.4-1.19-3.58-3.67-6.41-7.14-7.73-14.91-6.65-29.29-15.17-45.47-18.39m-2028.41 3.89c-2.59 1.21-3.72 4.06-4.56 6.6-2.76 9.03-.63 18.49 1.09 27.48.65 3.2 4.29 4.63 7.23 3.9 7.15-1.56 14.48-3.38 20.63-7.56 1.86-2.42 1.72-6.03.29-8.64-4.83-8.85-12.77-15.48-21.08-20.94-1.08-.49-2.43-1.66-3.6-.84m449.06 8.38c1.43.89 2.87 1.78 4.34 2.67.3-4.08.3-8.23-.72-12.21-1.53 3.04-2.69 6.27-3.62 9.54m219.01-3.07c-5.88-.74-10.79 3.74-11.2 9.45-.96 20.67.24 41.35 1.02 62.01-.58 3.9 1.06 8.33 4.78 10.02 5.86 2.61 12.3 1.09 18.35.36 25.87-3.64 51.92-5.89 77.69-10.23 11.38-1.83 24.68-2.13 33.25-10.88 5.93-4.26 1.18-12.16-1.83-16.69-12.55-15.72-31.78-23.35-49.58-31.42-22.96-8.97-47.74-14.39-72.48-12.62m-207 5.01c1.67.86 3.35 1.72 5.05 2.57.04-2.66-.08-5.31-.36-7.94-1.7 1.67-3.25 3.48-4.69 5.37m1302.63-4.83c.01 1.35.04 2.69.1 4.05.61.32 1.84.97 2.45 1.29.97-1.33 1.93-2.67 2.92-4.02-1.85-.45-3.67-.89-5.47-1.32m-488.02 2.13c-6.24 1.11-13.33 1.58-18.39 5.7-3.08 5.16-3.32 11.58-3.63 17.42-1.48 6 4.35 9 7.76 12.63 11.11-6.52 21.7-14.01 31.35-22.57 3.03-2.47 4.48-6.1 5.85-9.66-7.2-2.97-15.14-5.19-22.94-3.52m54.75-.6c-1.15 1.16-2.28 2.31-3.38 3.47 1.35 6.67 5.81 12.49 12.74 14.11-.52-4.41-.79-8.85-1.86-13.17-.66-3.26-5.5-2.93-7.5-4.41m-1097.48 2.09c-.03 1.81-.04 3.63-.03 5.45 2.66-1.48 5.2-3.18 7.53-5.14-1.88-.08-5.62-.24-7.5-.31m1.58 11.5c-4.45 3.49-3.4 9.84-3.45 14.72 5.61.58 11.55.23 16.59-2.53 10.5-5.71 21.35-10.86 31.12-17.81-.05-1.54-.1-3.08-.13-4.62-15.1-1.3-32.11-.01-44.13 10.24m63.65-8.31c-8.27 5.1-14.97 12.34-21.73 19.22-11.59 12.52-23.25 25.13-32.43 39.59 2.47 2.8 5.31 5.82 9.29 6.09 15.88 1.5 31.84-.15 47.71-1.07 14.41-1.39 29.76-2.04 42.59-9.51 3.32-1.96 7.42-4.56 7.7-8.84-.72-5.66-5.09-9.94-8.48-14.17-10.89-10.84-22.47-21.08-34.97-30.02-2.75-1.99-6.59-3.46-9.68-1.29m543.24.5c.39 1.98.82 3.95 1.27 5.93 1.29-.01 2.61-.01 3.94-.02.27-1.8.57-3.6.85-5.41-1.52-.12-4.54-.38-6.06-.5m830.65 10.77c7.19 4.4 15.54 6.16 23.56 8.4 3.98.93 9.26 1.43 11.77-2.51 3.42-4.98-.59-11.08-3.35-15.32-10.77 2.73-21.53 5.66-31.98 9.43m-2128.29-7.26c.21 2.13.46 4.26.73 6.39.8.03 2.4.08 3.2.1-.02-1.81-.04-5.44-.05-7.25-1.3.24-2.59.49-3.88.76m182.23-.28c1.25 2.53 2.53 5.12 4.09 7.49.2-1.97.6-5.9.79-7.86-1.63.11-3.25.24-4.88.37m2434.54.53c-7.67 1.47-15.44 5.77-18.96 12.99 9.97 5.85 21.03 9.52 32.27 12.11 2.29.56 4.74.54 6.81-.85 7.27-2.88 11.58-9.74 15.48-16.14-10.5-6.49-23.35-9.48-35.6-8.11m-2407.44 1.75c1.52 1.4 3.06 2.79 4.65 4.11.19-1.96.35-3.91.45-5.87-1.7.57-3.4 1.16-5.1 1.76m346.94 10.83c-9.67 3.59-20.11 7.37-25.65 16.81 2.76 6.15 7.75 13.54 15.13 13.58 10.91-4.31 19.98-12.54 28.45-20.47 6.78-6.88 14.53-13.23 19.18-21.86-13.49-.57-24.94 7.55-37.11 11.94m1506.34-13.05c-1.02 2.45-2.41 4.86-2.54 7.56.89 4.22 5.28 7.76 9.69 6.98 7.78-1.31 15.68-3.1 22.81-6.66-9.62-3.83-19.68-6.71-29.96-7.88m168.54 7.05c2.17.71 4.39 1.4 6.62 2.04l-.32-6.36c-2.22 1.29-4.34 2.71-6.3 4.32m-1654.5 24.37c-5.73 6.79-13.77 14.98-11.27 24.79 5.67 11.95 16.19 20.48 25.75 29.24 5.64 4.8 10.92 10.5 18.01 13.17 1.71-27.58.3-55.23.82-82.83 2.86.18 5.64.31 8.54.48.16-1.63.31-3.26.48-4.88-2.98.75-5.95 1.53-8.9 2.36-1.12-3.29-2.17-6.57-3.33-9.82-12.5 6.04-20.8 17.63-30.1 27.49m1643.12-27.17c.33 1.99.73 3.98 1.16 5.96 1.46-1.12 2.94-2.25 4.42-3.41-1.87-.88-3.73-1.73-5.58-2.55m-394.15 2.46c.36 1.73.71 3.48 1.14 5.21 1.81-1.36 3.51-2.88 5.07-4.54l-6.21-.67m622.07 4.06c.38 1.42.81 2.84 1.27 4.26 1.36-.83 2.75-1.65 4.17-2.46a127.2 127.2 0 0 1-1.27-4.26c-1.42.82-2.81 1.65-4.17 2.46m-458.08 2.7c1.11 2.14 2.22 4.31 3.34 6.48 1.79-.8 3.58-1.62 5.39-2.44-.78-2.51-1.61-5-2.47-7.47a67.595 67.595 0 0 0-6.26 3.43m531.27 10.14c-10.82 5.45-22.02 10.31-32.22 16.84-5.21 3.14-6.05 9.18-5.04 14.59 7.35-1.58 14.72-3.56 21.32-7.31 20.47-10.65 41.72-19.99 61.17-32.51-1.7-1.87-3.22-4.88-6.16-4.59-13.94.79-26.65 7.2-39.07 12.98m149.9-11.09c-8.18 2.59-12.88 10.57-18.54 16.44 11.58 12.68 29.11 16.81 44.56 22.83 27.79 11.52 56.44 20.81 85.08 29.95 9.79 2.99 20.02 6.66 30.37 4.26 6.57-3.92 10.95-10.68 15.04-16.98 3.51-6.55 7.3-14.74 3.28-22-2.44-3.96-7.45-5.07-11.5-6.53-38.39-7.72-76.49-16.82-114.69-25.41-10.97-2.49-22.41-4.48-33.6-2.56m-1662.87.07c-.43 2.01-.83 4.03-1.19 6.06 1.55.27 3.12.55 4.7.82.03-1.59.08-4.77.1-6.36-1.22-.18-2.42-.36-3.61-.52m290.8-.19c-.37 2.5-.72 4.99-1.06 7.5 2.02.77 4.06 1.51 6.14 2.21.4-2.49.82-4.98 1.25-7.47-2.12-.76-4.23-1.5-6.33-2.24m776.32 9.46c3.56 8.34 9.34 15.57 16.19 21.47 13.98 12.13 27.54 25.06 43.69 34.34 6.97 4.16 14.89 8.62 23.34 7.36 7.6-3.4 6.82-13.6 6.86-20.35-.43-12.87 2.3-28.25-7.93-38.27-9.84-6.31-21.62-8.61-32.83-11.28-16.67-3.84-33.94.09-49.32 6.73m-1565.66-4.78c3.22.34 6.31.57 9.57.88-.04-.94-.13-2.84-.17-3.78-3.2.86-6.33 1.7-9.4 2.9m-511.24-.87c-6.71.14-12.98 3.33-17.45 8.22-8.68 8.99-16.8 19.06-21.19 30.9-1.13 2.99 1.73 5.66 4.41 6.36 13.21 4.06 27.49 1.51 40.33-2.75 12.76-5.45 17.64-22.2 11.74-34.33-3.96-5.56-11.08-8.54-17.84-8.4m689.43 27.31c-1.02 2.8 1.54 4.98 2.89 7.12 12.34-9.68 22.2-22.09 31.59-34.55-14.33 4.06-30.27 11.83-34.48 27.43m1557.87-27.35c-.92 2.37-1.78 4.76-2.63 7.15-3.07-2.07-6.29-3.91-9.68-5.35-.06 1.47-.08 2.94-.07 4.42 2.99 1.92 6.06 3.74 8.73 6.15 2.49 4.11 3.37 9.72 7.51 12.72 8.23 4.42 17.83 6.16 27.09 4.56-2.16-3.3-4.54-6.49-7.5-9.11-7.51-7.19-14.6-14.97-23.45-20.54m-1867.24 3.78c.95 2.06 2.19 4.28 3.26 6.36a63.7 63.7 0 0 0 2.9-6.42l-6.16.06m39.32-.15c1.46 2.29 2.94 4.57 4.52 6.79a49.11 49.11 0 0 0 3.55-6.73c-2.02-.01-6.06-.05-8.07-.06m70.39 1.79c-11.42 2.28-22.82 4.82-33.95 8.23-5.3 1.79-4.81 11.17 1.06 11.75 8.89.48 16.62-4.38 24.78-7.06 9.09-3.55 18.99-5.89 26.91-11.86-5.92-2.63-12.57-1.96-18.8-1.06m2096.84-.53c-21.94 4.21-42.05 14.67-61.81 24.65-7.08 4.17-15.58 6.9-20.57 13.78 6.33 3.19 13.66 1.85 20.54 2.35 15.42-.3 31.36.76 46.34-3.81 12.15-4.73 22.5-13.25 31.52-22.53-3.1-6.34-7.93-14.73-16.02-14.44m17.37 7.4c2.18.45 4.38.88 6.63 1.29-1.43-2.71-1.98-5.4-3.7-7.84a52.402 52.402 0 0 0-2.93 6.55m-594.5.07c1.26 2.07 2.57 4.11 3.95 6.13 1.18-2.7 1.89-5.56 2.23-8.48-2.1.75-4.15 1.51-6.18 2.35m15.4-2.46c.29 2.27.66 4.55 1.04 6.82 1.71-.93 3.41-1.88 5.15-2.81a71.76 71.76 0 0 0-6.19-4.01m-1381.77.61c-.43 2.99-.8 5.99-1.12 9 1.97-1.01 4.03-1.94 5.75-3.37.32-2.91-2.77-4.11-4.63-5.63M626.21 301.2c-9.38 6.57-20.57 11.05-28.11 19.93 4.19 2.4 8.99 3.71 13.87 2.81 6.31-.54 13.67-.66 18.36-5.59 7.13-7.43 13.79-15.57 18.44-24.82-8.4-3.58-15.64 4.11-22.56 7.67m1919.87-9.49v5.58c1.62-.36 3.29-.73 4.96-1.12v-3.34c-1.67-.4-3.34-.77-4.96-1.12m38.93.86c.62 1.98 1.28 3.94 2 5.9 1.7-.77 3.42-1.57 5.14-2.39-.22-1.24-.41-2.48-.57-3.71l-6.57.2m-1472.1 4.32c-7.32 11.98-14.11 24.55-18.28 38.01 8.56-.92 16.13-5.52 23.4-9.81 4.82-3.18 10.73-6.44 12.88-12.17-.22-6.08-2.41-12.08-5.75-17.12-2.95-4.17-9.92-3.29-12.25 1.09m-951.86 3.12c1.82-.29 3.65-.59 5.48-.91-.71-2.05-1.45-4.08-2.23-6.09-1.33 2.21-2.44 4.55-3.25 7m978.99-6.21c-.45 2.05-.88 4.1-1.27 6.17 1.4 0 2.81 0 4.24.01.68-1.73 1.36-3.45 2.05-5.18-1.68-.34-3.36-.68-5.02-1m315.43.6c1.02 1.73 2.11 3.44 3.22 5.12 1.58-1.33 3.17-2.66 4.76-4.01-2.63-.58-5.3-.95-7.98-1.11m1548.12-1.14c-.74 2.28-1.39 4.57-1.96 6.88 1.87-.28 3.78-.56 5.73-.85-1.12-2.11-2.36-4.13-3.77-6.03m-249.96 3.32c-5.43 2.96-9.11 11.06-4.63 16.42 1.05 2.05 3.62 5.36 6.16 3.18 5.78-4.52 10.72-10.39 13.68-17.17-4.62-2.43-9.97-5.02-15.21-2.43m-558.75-1.39c-5.1 13.76-2.42 28.98-1.16 43.18 1.89 8.16 10.45 10.45 17.35 12.5 16.22 4.47 33.38 2.36 49.6-1-7.97-9.85-18.18-17.56-27.38-26.17-12.05-10.41-22.98-23.05-38.41-28.51M73.28 310.34c-.84 3.81 1.68 6.72 3.65 9.53 8.5-5.1 13.66-13.6 17.28-22.56-8.16 1.56-16.8 5.48-20.93 13.03m906.77-5.29c-3.02 2.27-8.05 4.35-7.93 8.85 1.47 5.46 7.41 7.84 12.01 10.02 5 2.07 12.37 1.63 15.11-3.68 2.77-6.01.65-12.56-.05-18.76-6.53-.26-13.54-.24-19.14 3.57m1029.28 1.29c-2.91 5.18-1.87 11.53-.6 17 1.15 4.13 6.78 4.19 10.08 3.28 14.7-2.44 29.32-6.08 43.25-11.44-.07-1.35-.12-2.69-.14-4.04-14.62-3.05-29.24-6.21-44.09-7.8-3.05-.13-6.42.66-8.5 3M656.89 305c-7.76 3.74-13.75 10.33-19.45 16.63 4.89 1.5 9.95 3.01 15.13 1.91 7.25-.92 12.7-6.33 18.04-10.87-3.03-4.37-7.36-10.6-13.72-7.67m1316.41-1.46c-.25 2.81-.09 5.64.4 8.42 2.18-1.66 4.25-3.48 6.11-5.5-2.17-1.01-4.33-2-6.51-2.92m759.44 6.26c-9.29 4.02-16.93 11.09-24.88 17.21l.64 2.77c13.02 1.82 27.26 2.32 38.34-5.96-2.04-6.13-5.33-17.56-14.1-14.02m34.4 9.36c-7.45 9.63-2.73 24.71 7.86 29.78 11.76 6.04 25.44 5.92 38.09 8.96 22.57 5.44 46.01 5.02 68.92 2.22 8.4-1.1 17.54-1.57 24.7-6.68-9.62-6.01-20.36-9.94-30.71-14.43-26.46-10.23-52.72-21.16-80.1-28.71-10.07-2.66-22.98-.76-28.76 8.86m-393.01-3.46c2.54 3.25 5.09 7.26 9.82 7.32 11.44 2.17 23.21.67 34.82.9.35-.95.73-1.9 1.15-2.84-9.97-3.85-20.24-7.05-30.9-8.16-5.2-1.33-10.28.62-14.89 2.78m-1344.14-2.79c-1.4 1.8-1.11 6.2 2.02 5.18 1.38-1.81 1.09-6.21-2.02-5.18m204.59 6.97c1.48.05 2.97.11 4.48.17-.93-2.52-1.76-5.05-2.64-7.54-.5 2.48-1.73 4.78-1.84 7.37m1767.14-5.16c.43 1.99.93 3.98 1.48 5.97 1.52-1.46 3.01-2.95 4.49-4.49-2.01-.52-4.01-1.01-5.97-1.48M922.31 325.57c2.37 1.42 4.8 3.06 7.65 3.26 15.67.7 31.64 6.01 47 .1-6.27-6.65-14.27-13.31-23.99-12.83-11.21-1.27-21.46 3.79-30.66 9.47m1546.15 2.21c-3.73 7.75-4.12 16.77-.75 24.69 14.51-1.85 27.79-8.5 41.52-13.2 8.78-2.98 16.9-7.44 24.81-12.26l-.48-6.88c-21.93-.26-43.83 2.37-65.1 7.65m-2306.9-7.57l-.43 6.12c1.83-.62 3.64-1.26 5.46-1.89-1.6-1.51-3.29-2.9-5.03-4.23m657.24 2.04c-.77 2.66-1.27 5.39-1.55 8.15 1.82-.87 3.63-1.79 5.45-2.71a105.32 105.32 0 0 0-3.9-5.44m2236.92 4.13c3.81 5.79 11.14 4.9 17.22 4.99.01-.9.04-2.71.05-3.62-5.72-.97-11.48-1.85-17.27-1.37m-1778.86 13.55c-8.98 1.8-18.29 2.69-26.81 6.2-7.62 2.42-5.76 11.77-3.56 17.54 5.77-.18 11.51-.89 17.18-2 30.39-6.3 60.01-15.73 89.46-25.42 5.88-2.17 12.71-3.55 16.66-8.9-31.12 2.93-62 8.03-92.93 12.58m1713.69-4.25c.47 1.14.97 2.29 1.52 3.43 2.28-.93 4.49-2.18 6.96-2.64 2.28.33 4.08 2 6.05 3.14.82-1.03 1.61-2.06 2.52-3.09-2.75-1.95-5.63-3.82-8.62-5.26-3.07.92-5.72 2.9-8.43 4.42m-1055.86.35c2.15 1.22 4.32 2.39 6.57 3.47-.61-2.27-1.24-4.52-1.96-6.75-1.56 1.08-3.09 2.18-4.61 3.28M909.33 340.3c-1.99 12.32-2.64 26.03 3.43 37.37 17.77-8.62 33.05-21.48 48.78-33.25-1.85-1.81-3.63-3.91-6.18-4.68-11.78-3.69-24.2-4.32-36.4-5.41-4.47-1.35-9.02 1.51-9.63 5.97m-398.46-.83c-2.9 5.25-3.1 11.33-.2 16.63.85-.03 2.54-.1 3.39-.13.64-4.71 1.24-9.41 1.95-14.09-1.7-.83-3.41-1.65-5.14-2.41m2483.36 1.24c-.01 2.92-.02 8.76-.03 11.68 1.38-.91 2.78-1.83 4.24-2.72-1.36-3.06-2.7-6.01-4.21-8.96M775.64 344.8c-.43 1.62-1.31 4.84-1.75 6.46-2.32 2.06-5.43 2.87-8.19 4.15 1.05 3.14 2.21 6.25 3.48 9.31 6.34-3.47 11.03-9.11 15.89-14.32 3.29 1.24 6.6 2.49 9.93 3.65-.52-4.19-2.25-8.8-6.33-10.71-4.34-.82-8.77.67-13.03 1.46m1809.65 2.81a43.08 43.08 0 0 0 5.27 4.72c.38-1.81.83-3.61 1.3-5.41-1.65.17-4.93.52-6.57.69m-1531.04 3.91c-.02 2.32 0 4.64.04 6.98.86.17 2.57.52 3.43.69.23-2.8.17-5.61-.09-8.41-.84.19-2.53.56-3.38.74m381.74-.44c-.52 5.89-1.14 11.97.65 17.72 3.31-2.39 7.31-5.25 7.31-9.81-.02-4.39-4.47-6.52-7.96-7.91m-274.61 2.33c-.17 1.53-.33 3.06-.47 4.6 1.5.27 3.02.54 4.54.8l.56-5.98c-1.56.19-3.1.38-4.63.58M2118 354v6h4v-6c-1.36-.01-2.69-.01-4 0m74.95-.22c-1.29 2.32-1.56 5.74 1.37 6.91 4.5 1.16 9.26-.61 13.54-2.12-4.33-3.1-9.44-5.37-14.91-4.79m560.38 5.61c-2.99 6.16 5.23 7.85 9.18 8.15 17.18 1.54 34.46 2.67 51.71 1.24-.53-1.17-1.02-2.34-1.48-3.5-15.03-2.09-29.5-6.87-44.38-9.57-5.13-.85-12.17-1.76-15.03 3.68m-504.15.23c9.5 4.81 20.07 8.4 30.82 8.26-6.99-9.45-20.44-8.3-30.82-8.26m339.35 10.48c.31 3.03-.95 5.96-1.17 8.96 1.42-.15 2.88-.3 4.36-.45.02-5.09.09-10.17.2-15.25-.94-1.04-1.84-2.08-2.71-3.11-4.33 2.12-1.53 6.36-.68 9.85m303.08-4.49c-4.2.84-9.19 1.28-12.08 4.87 13.83 4.9 28.13 8.73 42.63 11.1 8.46 2.28 10.79-7.84 14.43-12.99-2.72-3.22-6.17-6.34-10.6-6.5-11.56-.09-23.03 1.65-34.38 3.52M758.86 363c.18 1.55.38 3.11.59 4.68 1.05-.03 2.11-.06 3.18-.08-.24-1.51-.48-3.01-.7-4.51-.77-.02-2.3-.07-3.07-.09m1554.99-.11c-3.47 4.68-7.03 9.53-7.28 15.62 3.46-1.97 6.77-4.12 10.21-6.23 4.31 6.61 9.6 12.49 14.86 18.37 2.68-3.18 4.45-6.99 5.18-11.12-3.09-1.58-6.67-2.51-9.15-5.02-1.03-2.81-1.35-5.82-1.86-8.72-3.98-.98-8.07-1.94-11.96-2.9m-2195.82 2.95c0 1.59.01 4.77.02 6.36l3.69-.69c.03-1.68.03-3.36.01-5.03-1.24-.22-2.48-.43-3.72-.64m391.09 5.18c1.94 1.28 3.92 2.5 5.96 3.63.2-2.4.31-4.79.3-7.19-2.12 1.14-4.2 2.33-6.26 3.56m1820.5-2.42c2.81 1.03 5.32 1.89 8.3 2.8-.39-1.13-.75-2.26-1.08-3.37-1.81.14-5.42.43-7.22.57m-2174.72.32c-.8 2.06-1.58 4.15-2.32 6.25 2.09.33 4.18.62 6.28.9-1.24-2.5-2.48-4.84-3.96-7.15m900.71 1.56c-1.29 2.09-2.36 4.31-3.36 6.55 2.21.39 4.41.8 6.66 1.11-.65-2.72-1.5-5.47-3.3-7.66m1926.29.06c-.33 2.67-.56 5.36-.69 8.06 1.49.16 3.03.31 4.61.47.06-3.37-1.34-6.4-3.92-8.53m-420.53 9.28c2.83-.29 5.65-.78 8.43-1.5-1.57-2.54-3.25-5.01-5.07-7.35-1.24 2.86-2.78 5.78-3.36 8.85m266.91-4.71c19.06.54 37.79 4.35 56.74 6.16-.02-.84-.06-2.54-.09-3.39-9.98-1.7-19.97-3.3-29.96-4.81-8.84-.68-18.7-2.8-26.69 2.04m-1629.94-3c-.98 4.95-.74 9.99-.3 14.99 2.12-1.75 5.24-3.09 4.42-6.72.24-3.26-2.3-5.87-4.12-8.27m-16.89 4.74c-.73 3-1.56 5.97-2.07 9.03l6.47-.19c-1.27-3.09-2.4-6.17-4.4-8.84m-1076.48 2.94c.22 1.73.67 5.2.9 6.93 1.18-1.94 2.23-3.95 3.19-6.01-1.37-.31-2.73-.62-4.09-.92m2945.01 3.88c.71 1.69 1.39 3.48 2.48 5.03 2.39 3.24 7.24 1.32 10.48 2.48-2.22-5.16-7.3-7.91-12.96-7.51m-14.52 1.79c-.24 1.16-.44 2.32-.6 3.49 1.34.02 2.73.04 4.16.07-.06-1.39-.08-2.78-.07-4.16-1.2.19-2.36.39-3.49.6z" filter="url(#a)" transform="translate(-22.954 -34.16)"/><path fill="#fcfcfc" stroke="#fcfcfc" stroke-width=".094" d="M82.366 28.17c18.19-6.72 37.93-8.28 57.15-6.87 15.6 2.01 31.54 5.02 45.43 12.73 9.14 4.72 11.26 15.64 16.17 23.8 13.14 23.6 24.88 49.25 46.04 66.92 9.45 8.47 22.65 10.51 34.88 10.91 10.25-1.1 13.24-13.12 12.95-21.78.46-29.57-.39-59.15.28-88.72 26.41-.64 52.83-.24 79.25-.29.88 5.49-.24 12.14 3.94 16.58 7.81 9.19 17.47 16.54 26.45 24.52 18.22 15.26 36.44 30.65 56.39 43.63 2.8 1.5 6.37 4.64 9.45 1.96 6.68-5.97 8.87-15.13 9.08-23.73.7-20.74-.02-41.49.23-62.23 22.64-1.51 45.34-.26 68-1.11 3.71-.21 7.42.08 11.07.77-.17 43.53-.01 87.05-.13 130.58.02 13.74-.11 28.24 6.23 40.84 5.23 8.54 13.02 15.11 20.93 21.08 9.75 7.42 20.17 14.51 32.18 17.65 13.21 1.52 26.53-2.74 37.71-9.56 20.15-15.74 37.48-34.81 52.84-55.18 4.46-6.57 10.47-13.32 9.96-21.83.66-24.99-.02-50 .19-75 .25-16.35-1.07-32.85 1.33-49.09 16.25.09 32.5.03 48.75.18.7 3.93 2.01 7.75 4.05 11.18 1.63-3.56 2.5-7.39 3.53-11.16 35.83-.24 71.67-.08 107.5-.09 1.21 14.93.48 29.92 1.05 44.87 1.05 6.95 2.13 14.49 6.94 20 6.01 8.27 13.39 15.81 22.92 19.97 17.1 8.56 37.92 11.37 56.01 4.28 2.11-.99 5.05-1.82 5.43-4.52 2.13-28.03-1.59-56.31 1.74-84.25 26.8-.75 53.74-1.83 80.49.62 12.29 35.33 26.97 69.84 44.15 103.08 2.89 5.56 3.32 12.36 8.27 16.76 4.25 3.81 7.93 10.67 14.72 8.97 8.29-1.97 15.95-8.14 18.61-16.4 1.53-4.55 2.18-9.34 2.87-14.07 2.38-33.09-1.46-66.44 1.84-99.46 24.03.31 48.07-.17 72.11.4.74 7.34.87 15.16 4.68 21.74 8.3 15.24 18.79 29.76 33.02 39.98 8.57 5.54 18.54 11.19 29.15 9.26 7.94-2.22 9.48-12.5 10.88-19.26 1.85-16.52.66-33.2 1.05-49.78.71-.71 1.44-1.41 2.19-2.12 18.23-.76 36.48 1.2 54.72.16 18.32-.47 36.67-.2 55.01-.38 7.77.09 15.89-.27 23.31 2.54-.89 4.16-1.79 8.33-2.56 12.52l4.67.02c.43-4.17-.01-8.51 1.07-12.61 1.11-2.89 5.47-1.26 7.5-2.19 17.55-.58 35.12-.16 52.7.09 1.02 15.27-1.44 30.89 2.03 45.94 2.92 11.38 10.96 21.24 21.36 26.69 23.16 12.16 48.04 20.55 72.56 29.5 12.5 4.17 25.47 6.61 38.27 9.74 22.02 5.3 44.05 10.6 66.09 15.89 9.67 2.36 19.65 4.34 29.66 3.56 8.86-3.29 11.56-14.02 11.27-22.52.16-35.37.34-70.76-.46-106.12.37-3.3 5.62-2.33 7.52-2.78 23.55-.47 47.13-.22 70.69.18.73 19.45-.55 39 1.64 58.38.94 6.05 2.07 12.89 6.44 17.5 14.97 9.65 31.79 15.95 47.27 24.75 8.3 3.9 16.44 9.31 25.88 9.86 4.22-.2 5.57-5.34 4.95-8.8.89-33.98-.95-68.03.83-101.99 26.32.07 52.65-.29 78.99.2.84 31.93-.11 63.87.4 95.81.27 6.83 1.82 14.92 8.54 18.37 5.34 1.17 11.04.52 16.48-.3 22.21-5.72 45.1-10.08 65.86-20.21 11.44-5.97 13.69-20.04 13.72-31.74-.9-20.71-1.25-41.48.21-62.17 17.37-.42 34.74 1.22 52.11.08 8.9-.09 17.89-.61 26.83.17 3.18 3.38 1.41 8.63 2.21 12.74.25 13.34-.58 26.69.14 40.03.72 3.99 2.91 9.02 7.81 9.07 5.86 2.25 11.83-.68 17.42-2.53 22.12-9.61 43.49-20.9 64.64-32.46 4.28-2.88 9.55-4.97 12.64-9.3 1.6-5.48 1.34-11.36 2.18-17 19-1.25 38.07-.74 57.13-.89 6.65.18 13.55-.12 20.15 1.33.06 26.83-1.14 53.73 1.19 80.49.79 11.28 6.22 22.97 16.66 28.26 17.21 8.91 36.34 13.25 54.98 18.13 22.72 6.06 46.94 9 70.21 4.22 5.79-1.59 12.71-4.12 14.73-10.39 2.55-9.06 1.87-18.62 2.16-27.93-.18-25 .11-50.01-.3-75.01-.08-6.35-.36-12.75.49-19.07 26.45-.25 52.93.53 79.4.36.75 26.91.1 53.83.24 80.75-.03 5.63.42 11.73 3.39 16.67 4.74 4.74 11.81 3.35 17.84 2.47 51.57-13.64 103.23-27.01 154.93-40.21 51.06-14.04 102.45-26.91 153.02-42.73 15.8-4.11 30.71-11.57 46.89-14.17 5.9-.7 9.64 4.61 14.33 7.24-1.28-3.5-2.98-6.81-4.58-10.16 15.67-5.79 32.9-4.81 49.27-3.11 22.46 3.5 46.17 11.81 60.09 30.9 7.05 8.26 12.2 18.18 14.1 28.95 3.3 17.89 2.75 36.57-2.1 54.14-2.83 9.78-4.52 21.11-12.97 27.85.49 13.68-7.67 25.23-13.08 37.15-8.58 18.13-19.06 35.26-30 52.04-4.35 6.54-7.56 14.35-6.57 22.36 2.89 9.93 13.41 14.16 22.48 16.74 10.92 4 22.98 2.21 33.97 5.96 2.27 20.45 1.18 41.29.46 61.86-22.44-.13-44.84.1-67.24.6-20.06-.8-40.12-.6-60.16-.58-.86-1.96-1.69-3.92-2.47-5.89-1.57 1.93-3.13 3.87-4.68 5.79-21.91-.06-43.83.65-65.7-.25-15.71-2.06-31.14-5.78-46.81-7.95-37.19-5.47-74.73-8.96-112.33-8.95-16.18-1.38-32.52-2.87-48.7-1.37-7.3 2.31-3.88 12.89-6 18.28-55.62.82-111.25.05-166.86.4-1.88-16.11.28-32.41-1.4-48.57-11.38-5.42-23.32 1.28-34.41 4.11-11.22 3.58-24.36 6.19-31.65 16.37-4.82 8.29-2.23 18.62-3.38 27.71-28.53.7-57.07.11-85.59.36-11.43-.05-22.87.47-34.22-.63-1.65-1.86-2.91-3.9-4.46-5.75.73 6.76-5.23 6.93-9.71 6.99-10.95-.33-21.88-.71-32.75-1.65-1.41-3.46-.78-9.02-4.94-10.86-11.99-6.86-25.79-9.64-39.08-12.84-18.87-3.54-38.93-6.62-57.43.27-1.59.65-2.65 2.16-2.87 3.84-1.27 6.53-.87 13.21-1.5 19.81-22.34 1.52-44.73.35-67.07 1.05-3.94-.04-7.87.48-11.69-.61-3.21-5.21-1.73-11.9-2.31-17.63-.85-15.3 1.5-30.67-.18-45.92-1.14-4.52-1.1-11.65-6.62-13.34-11.6-2.33-23.05 1.89-34.32 4.01-15.12 3.74-30.47 7.15-44.84 13.23-8.15 3.07-13.8 10.72-16.22 18.85-3 13.45-1.54 27.38-1.84 41.04-9.97.13-19.92-.05-29.83.69-.11-3.81-.18-7.61-.21-11.4-.87.29-1.71.58-2.53.87 1.57-2.93 2.97-5.95 4.21-9.05-2.06-.5-4.12-.96-6.15-1.4-1.28 7.07-.24 14.25 1.28 21.21-15.19-1.06-30.4-.86-45.58-.84-1.59-31.31-1.12-62.66-1.07-94-.16-8.31-.18-18.17-6.84-24.21-6.7-6.48-16.94-6.57-25.37-3.98-16.88 5.68-31.87 16.17-44.15 28.94-7.25 8.09-8.54 19.32-9.28 29.67-1.09 21.07.01 42.19-.65 63.28-25.82.55-51.65.48-77.46.05-.73-28.57-.13-57.16-.26-85.74.41-14.98-3.97-29.88-11.17-42.92-8.66-11.72-18.29-23.53-31.33-30.57-8.51-4.44-18.7-5.62-27.94-2.97-19.84 5.13-38.77 13.08-58.01 19.99-41.22 15.12-81.39 32.9-121.55 50.58-8.69 3.85-17.08 8.31-25.62 12.46-12.15 6.11-22.69 17.58-24.24 31.54-2.26 15.84-.62 31.94-2.04 47.87-25.81.06-51.61.05-77.41.02-1.06-14.44-.27-28.95-1.34-43.37-.64-4.35-1.88-9.96-6.8-11.24-5.35-.66-10.88-.95-15.93 1.18-37.99 12.58-76.68 23.24-113.81 38.27-.44 4.94-.89 9.87-1.27 14.82-24.55-.48-49.1.93-73.65.34-9.93-22.75-18.4-46.59-33.25-66.73-2.21-3.09-6.73-3.78-9.72-1.35-15.95 8.81-29.95 20.65-44.19 31.9-10.65 8.53-9.94 22.99-9.33 35.23-2.91-.1-5.45-.06-8.25-.14-.25-1.25-.74-3.74-.98-4.99-.51 1.42-1.51 4.25-2.02 5.67-20.78 1.12-41.61.14-62.4.41-2.16-15.77 2.71-33.43-6.17-47.66-3.14-5.37-10.83-5.41-15.64-2.32-19.59 10.09-37.57 22.98-56.17 34.74-6.68 3.82-12.23 9.24-17.25 15-14.08.34-28.15.32-42.21.16-1.2-2.91-2.51-5.78-3.89-8.61-1.92 2.69-3.57 5.55-5.11 8.46-24.79.22-49.6.66-74.38.04-3.77.48-6.98-1.23-10.07-2.97-7.79 4.34-17.27 3.49-25.83 3.07-3.13-5.89-1.07-13.17-3.71-19.28-2.87-6.39-8.25-11.09-13.52-15.49-10.43-8.65-20.73-17.54-32.14-24.89-4.04-2.58-8.71-4.39-13.59-4.16-3.79 1.09-7.64 3.61-8.31 7.77-2.53 18.64 1.16 37.71-2.04 56.3-31.56-.47-63.14.61-94.65-1.22-24.2 1.59-48.46 1.23-72.69.85-.86-8.42.89-17.32-1.74-25.48-1.51-4.29-6.44-5.85-10.51-6.59-20.81-2.4-41.13 3.97-60.91 9.6-9.9 3.24-20.44 5.63-28.91 12.02-2.09 3.11-2.65 7.03-4.01 10.5-26.44-.02-52.92.92-79.34-.45-.23-30.45.3-60.91-.17-91.36-.94-8.92-1.23-18.66-6.64-26.24-5.58-4.34-12.93.24-17.53 3.85-10.08 8.55-19.85 17.52-28.69 27.36-10.59 11.73-22.46 22.24-32.8 34.2-13.69 14.95-26.23 31.67-44.15 41.88-21.57 12.8-47.42 15.8-72.07 15.12-2.75-.69-7.89 1.08-9.63-2.38-3.08-5.44-4.42-13.49-11.84-14.57 2.05 5.97 5.7 11.16 9.43 16.17-15.1.22-29.89-3.94-43.78-9.58-2.98-1.55-6.71-2.33-8.83-5.14-2.02-3.48-.7-7.91-1.36-11.66.05-28.49-.19-56.98.33-85.46 5.62 7.04 13.79 15.31 23.79 12.54 12.46-4.62 22.95-13.52 32.02-23.02 3.83-4.24 8.66-9.86 6.94-16.06-2.42-5.33-8.33-7.72-12.14-11.92-2.63-2.86-1.17-7.48-2.49-10.82-1.81 1.39-3.64 2.76-5.48 4.1-17.07-13.38-33.47-29.16-41.74-49.66-6.17-17.69-10.09-36.98-6-55.59 2.5-12.55 5.85-25.25 12.89-36.1 10.96-17.15 27.97-30.22 47.24-36.71m2914.74 1.18c1.55 2.95 3.34 5.77 7.29 5.84.29-1.67.61-3.34.96-5.01-2.74-.51-5.51-.82-8.25-.83m-1987.05 3.01c1.16 8.26 3.5 16.29 4.92 24.5.44 3.99 1.76 7.81 3.71 11.29 1.45-.3 2.92-.6 4.39-.91-3.07-11.82-6.47-23.56-9.21-35.47-1.29.2-2.56.39-3.81.59m-461.33.09c-1.93 4.67-3.85 9.45-3.63 14.64 4.64-2.94 6.22-8.44 8.42-13.17-1.6-.5-3.2-.99-4.79-1.47m857.07 6.07c1.87-.12 3.76-.26 5.66-.44-.94-1.96-1.93-3.9-2.94-5.81-1.1 2-2.01 4.09-2.72 6.25m531.41-4.14c.21 2.7.81 5.42 1.23 8.12 2.35-2.47 3.67-5.64 2.39-8.99-.9.22-2.72.65-3.62.87m-481.58.6c.56 1.86 1.14 3.71 1.77 5.55 1.51-1.67 2.9-3.45 4.28-5.25l-6.05-.3m833.03 3.85c.96 1 1.98 2 3 3 1.17-.76 2.37-1.52 3.59-2.28-.85-1.73-1.7-3.44-2.52-5.16-1.39 1.46-2.74 2.96-4.07 4.44m18.11-3.84c.86 2.14 1.75 4.26 2.72 6.36 1.19-2 2.27-4.06 3.26-6.18l-5.98-.18m-350.95 3.95c.58 2.58 1.48 5.19 2.22 7.76.98-.36 1.99-.71 3.02-1.07-.41-2.25-.82-4.5-1.18-6.75-1.38.01-2.73.03-4.06.06m11.22 4.68c2.05.53 4.14 1.02 6.25 1.48-.64-2.41-1.34-4.81-2.02-7.21a44.56 44.56 0 0 0-4.23 5.73m606.67-1.02c-.77 2.05-1.44 4.12-2.07 6.2 2.09.37 4.16.72 6.31 1.04-1.55-2.52-2.49-4.96-4.24-7.24m-274.86 2.55c.25 1.7.54 3.39.87 5.09 2.47-1.08 5.25-2.26 7.45-4.01-2.76-.6-5.53-.96-8.32-1.08m639.58 3.67c-3.45 9.65 2.51 19.02 3.26 28.57.6 4.24 2.49 8.11 4.56 11.83 2.74-.82 2.37-4.41 2.3-6.71-1.68-11.6-4.85-23.2-10.12-33.69m-2561.61 2.33c-3.11 13.3-1.4 27.17-1.81 40.69.56 18.45-1.53 37.19 1.87 55.45 12.32-2.62 23.18-9.29 34.76-13.95 9.73-4.55 19.82-8.82 28.13-15.79 1.48-1.35 2.67-3.46 2.09-5.51-3.55-9.56-11.64-16.39-19.02-22.99-15.18-12.83-30.12-25.96-46.02-37.9m487.02 5.96c1.75.11 5.26.34 7.01.45-1.12-2.3-2.38-4.53-3.82-6.64-1.13 2.03-2.23 4.07-3.19 6.19m-783.52-3.45c.55 2.37 1.14 4.73 1.72 7.09 1.57.41 3.14.81 4.71 1.23.39-1.86.81-3.72 1.24-5.57-2.48-1.1-5.05-2.02-7.67-2.75m2150.16 22.11c11.4-.56 22.51-3.35 33.55-6.07 5.25-1.06 8.24-5.67 11.45-9.5 2.83.47 5.68.9 8.56 1.23-1.73-4.12-5.87-4.38-9.62-3.37-1.13-1.63-2.27-3.25-3.38-4.86-13.9 6.75-28.11 13.32-40.56 22.57m-1187.5-20.91c-.32 2.26-.63 4.53-.95 6.79 1.29.97 2.57 1.93 3.89 2.89 1.13-3.11 1.72-6.37 1.87-9.67-1.62-.01-3.22-.01-4.81-.01m1099.37 1c.13 3.47-.04 7.74 5.74 6.75-.37-2.24-.72-4.48-1.07-6.72l-4.67-.03m12.57 9.53c3.19-2.53 6.1-5.54 5.85-10.08-4.44 1.43-4.9 6.16-5.85 10.08M50.796 56.87c.35 1.72.72 3.44 1.13 5.15 1.26-.22 2.52-.45 3.77-.68-.24-1.48-.49-2.96-.72-4.44l-4.18-.03m22.15 1.03c.42 1.33.86 2.67 1.29 4 .89-.73 1.77-1.46 2.66-2.19-.36-.98-.72-1.97-1.07-2.95-.96.37-1.93.76-2.88 1.14m1149.09-.09c.9 21.24-2.54 43.39 3.91 64.01 2.53-1.35 5.47-2.42 7.05-5.02 4.38-6.99 2.61-15.68 1.49-23.35-2.35-12.03-4.69-24.2-9.21-35.64h-3.24m-1030.45.93c-3.05 20.37.3 43.81 16.15 58.42 4.1 4.28 10.11 5.91 15.87 5.22-2.32-9.92-5.61-19.61-10.54-28.55-6.23-11.53-10.71-23.97-17.94-34.96-.88-.03-2.65-.1-3.54-.13m552.01 1.71c3.26 5.78 6.77 12.59 14.01 13.91-2.78-6.22-8.78-9.94-14.01-13.91m17.16 1.83c.54 1.42 1.09 2.84 1.64 4.27 1.79-1.2 3.54-2.47 5.23-3.82-2.29-.26-4.58-.43-6.87-.45m264.73 11.33c1.6.87 3.2 1.76 4.82 2.64.71-4.68 1.3-9.39 1.56-14.13-3.16 3.18-5.02 7.29-6.38 11.49m1534.61-1.19c-1.04 6.78-3.9 12.96-6.26 19.29.64 5.18 3.21 10.46 7.91 13.1.16-5.92-.65-11.93.79-17.75 2.06-7.27 4.05-14.59 5.43-22.03-3.31 1.52-6.99 3.54-7.87 7.39m-408.32-5.4c.68 1.69 1.46 3.37 2.22 5.05 1.52-1.04 3.05-2.06 4.63-3.09-2.24-.82-4.54-1.47-6.85-1.96m744.73.42c-11.43.85-22.89 1.54-34.13 3.72-77.51 15-153.65 36.11-230.34 54.64-8.68 2.22-17.39 4.13-25.71 7.42-6.44 1.69-11.76 7.23-13.13 13.72-1.48 8.93-1.61 18.11-.5 27.09-.2 7.79 7.02 12.14 13.2 14.97 21.37 7.5 43.65 11.81 65.57 17.37 13.95 3.79 28.55 4.29 42.91 2.83 13.56-1.72 26.5-6.34 39.38-10.75 22.01-7.6 43.76-16.26 64-27.88 29.67-17.04 51.55-43.98 73.24-69.78 6.64-8.38 14.6-16.16 18.81-26.16 2.98-8.61-8.36-7.3-13.3-7.19m-351.45 5.3c-.45 2.02-.87 4.04-1.24 6.07h4.36c.24-1.82.48-3.64.73-5.46-1.31-.21-2.6-.42-3.85-.61m423.89 3.25c.21 2.82.95 5.65 1.43 8.46 1.77-1.68 3.45-3.46 5.07-5.33-.91-1.43-1.75-2.88-2.56-4.34-1.35.39-2.67.8-3.94 1.21m-708.44 1.34c-17.01 2.5-33.8 6.66-50.15 11.91-12.23 4.63-25.2 8.18-35.86 16.06-6.59 6.86-4.22 17.03-4.58 25.54.45 25-.35 50.01.3 75-.91 7.68 4.69 14.76 11.94 16.75 13.87 4.25 28.33 8.8 43.05 6.6 13.71-1.87 28.12-3.79 40.29-10.9 9.93-7.18 8.65-20.7 8.68-31.45-.68-34.86.73-69.78-.64-104.61-1.08-5.73-8.67-5.75-13.03-4.9m723.03 8.03c-2.96 3.4-3.06 8.17-1.91 12.31 8.91-4.64 16.06-12.09 22.27-19.88-7.52-1.4-15.49 1.82-20.36 7.57m-1969.2-7.33c-2.64 1.55-3.05 5.08-2.55 7.89 1.9.79 4.48 1.62 6.09-.23 3.44-2.31.5-9.1-3.54-7.66m936.43-1.11c-.17 7.34-.1 15.35 4.74 21.38 4.03 5.23.04 12.13.75 18.02.74.18 2.23.52 2.97.7 3.15-5.92 5.64-12.17 6.99-18.75-2.79-2.11-5.82-4.4-6.47-8.07-.89-5.56-3.7-10.87-8.98-13.28m1061.11 1.55a67.82 67.82 0 0 0-3.46 8.65c4.51.23 9.05.01 13.6-.14-.01-1.42.02-2.85.08-4.27-3.46-1.42-6.81-2.84-10.22-4.24m-56.6 20.12c3.16-5.26 4.31-11.6 1.53-17.29-2.76 5.42-4.13 11.57-1.53 17.29M784.326 83.54c1.11 2.14 2.39 4.2 3.72 6.23 1.32-2.03 2.59-4.09 3.72-6.23-2.48-.17-4.97-.17-7.44 0m1781.75 7.05c4.26 1.04 8.48 1.74 12.88 2.21-1.68-3.4-3.58-7.63-7.85-8.11-2.18 1.49-3.58 3.77-5.03 5.9m-1325.94-4.9c1.18 8.88 2.94 17.68 4.63 26.48.9 4.29 2.62 9.24 7.22 10.75 10.31 3.32 22.1 2.79 31.51-2.93-2.82-9.36-11.08-15.44-18.37-21.22-7.93-4.94-15.28-12.13-24.99-13.08m728.66.14c.72 1.66 1.46 3.32 2.23 4.98l3.15.04c-.21-1.55-.37-3.1-.53-4.65-1.63-.13-3.26-.25-4.85-.37m-1478.93.41c-.06 5.57-.93 11.57 2.02 16.59 2.64 5.19 2.68 11.14 3.66 16.77 2.83-2.64 6.24-5.77 5.75-10.04-2.6-8.21-3.92-17.86-11.43-23.32m-165.96 1.45c.3 1.83.91 5.5 1.21 7.34 1.59-2.12 3-4.37 4.03-6.83l-5.24-.51m-202.97 5.62c.03 1.59.05 3.19.08 4.79 7.05 2.83 14.53 4.27 21.93 5.88 11.09 2.37 22.52 4.38 33.88 2.9-1.51-2.34-2.86-4.93-5.16-6.6-15.31-8.61-33.65-11.36-50.73-6.97m1684.29-3.56c-3.37 5.22-4.29 11.23-2.31 17.1 2.44-2.8 6.64-4.99 7.14-8.98 1.81-4.43-2.24-6.13-4.83-8.12m-1007.03 16.1c-3.8 14.13-1.7 28.89-.07 43.19 4.32 1.22 8.78 2.1 13.29 1.11 14.76-2.41 29.07-6.94 43.63-10.3 17.85-4.85 36.61-7.69 52.92-16.92-3.09-12.73-14.82-21.33-25.55-27.45-17.46-5.93-36.34-3.12-54.4-3.66-11-.48-25.51 2.34-29.82 14.03m2179.65 21.9c-2.1 4.88 4.28 8.32 7.27 10.99 9.6 6.15 20.19 12.26 31.92 12.73 8.81-13.81 13.76-29.77 15.64-45.97.29-5.13-2.63-9.68-4.51-14.24-21.21 3.52-41.52 16.39-50.32 36.49m-1190.69-35.27c-3.14 3-6.56 5.92-8.69 9.73-.15 3.97.18 7.94.53 11.9 4.59-6.34 8.68-14.51 17.73-14.81-2.73-2.88-6.14-4.93-9.57-6.82M84.296 93.91c-1.4 1.39-2.79 2.78-4.18 4.18 2.48 1.32 4.97 2.47 7.63 3.45-.98-2.67-2.13-5.15-3.45-7.63m1671.29.25c-1.71 2.27-2.11 4.94-.1 7.18 1.55-.93 3.15-1.85 4.76-2.75-1.55-1.5-3.11-2.98-4.66-4.43m1168.96 1.68c1.38 3.38 2.84 6.69 4.39 10.02 4.71-.1 9.63.84 14.33-.02 3.24-1.48 1.8-5.64 1.42-8.34-3.79 2.36-7.46 4.9-11.33 7.07a299.86 299.86 0 0 1-3.61-9.88c-1.78.34-3.51.72-5.2 1.15m-31.86 12.66c-12.36 14.21-23.72 29.23-35.71 43.75 3.17-.81 6.35-1.73 9.37-3.07 12.87-5.98 26.3-10.69 38.86-17.35.92-12.14 1.88-24.33 1.14-36.51-5.31 3.53-9.47 8.49-13.66 13.18m173.81-4.24c2.15-.78 4.33-1.61 6.49-2.45-.05-1.57-.07-3.15-.06-4.72-3.72.54-8.36 1.22-6.43 7.17m-1126.96-3.95c.46 2.05.98 4.11 1.53 6.16 3.85-1.1 7.6-2.55 11.12-4.5-1.72-1.3-3.28-2.83-5.25-3.68-2.53.55-5 1.23-7.4 2.02m-605.81 3.22c-13.06 3.17-25.83 8.27-36.67 16.33-2.74 2.07-6.5 4.23-7.02 7.99-.45 7.82 4.26 14.48 8.2 20.78 11.79 17.4 24.02 34.51 36.78 51.22 5.8 7.41 12.04 16.03 21.93 17.84 1.41-5.87 3.44-11.7 3.12-17.82-.08-26.68.29-53.36-.19-80.03.14-6.27-2.43-13.7-8.81-16.03-5.3-3.22-11.72-1.15-17.34-.28m117.17-.89c-7.51 1.98-10.57 10.57-11.42 17.5-.06 38.88-1.02 77.8-.22 116.69.23 8.66 1.84 20.56 11.96 22.96 13.54.2 26.03-6.16 38.86-9.73 53.5-16.23 106.42-34.27 159.04-53.13 8.79-3.13 18.28-5.94 24.94-12.9-5.62-6.96-13.13-12.09-20.87-16.4-35.59-18.66-73.28-32.87-111.44-45.27-24.01-6.47-47.9-13.45-72.1-19.14-6.08-1.66-12.61-1.75-18.75-.58m-1348.88 9.16c-1.24 8.25-.61 17.5 4.68 24.36 4.95 6.64 11.05 12.62 18.32 16.69 5.64 3.15 13.37 4.39 18.35-.69 7.93-8.66 12.78-20.29 12.05-32.18-11.72-10.08-26.98-16.02-42.36-16.97-5.54-1.36-11.02 3.22-11.04 8.79m215.61-9.05c-.58 2.3-.98 4.65-1.15 7.01h6.14c-.18-2.36-.57-4.71-1.15-7.01h-3.84m1777.73 3.22c-.46 1.35-.88 2.7-1.27 4.05 5.53 2.39 9.89 6.48 12.92 11.69 1.86-1.86 3.48-3.93 4.92-6.14-5.13-2.72-10.89-5.12-14-10.29-.88.22-1.77.46-2.57.69m482.66 6.68c1.97 2.22 5.06 1.69 7.73 1.7-.98-2.96-2.12-5.85-3.54-8.61-1.67 2.11-3.94 4.08-4.19 6.91m-1365.96-4.81c-.02 1.67-.03 3.35-.01 5.03.93-.43 1.88-.85 2.85-1.26.06-1.25.13-2.5.21-3.74-.76-.01-2.29-.03-3.05-.03m609.81.18c-3.7 9.69-5.42 22.36 2.88 30.12 6.38 5.25 14.94 6.43 22.22 10.12 7.08-6.03 17.03-4.56 25.02-1.17 4.82-.52 9.24-3.25 14.03-4.25-2.11-3.16-4.9-5.88-8.25-7.69-18.29-9.7-36.4-20.04-55.9-27.13m1258.69 1.54v7.56c6.34.77 6.34-8.33 0-7.56m-108.73 4.82c-.81 2.38-1.51 4.79-2.09 7.21 2.8-1.09 5.53-2.43 8.05-4.12-2-1.06-3.98-2.09-5.96-3.09m-1037.65 4.33c-.5 4.22-.34 8.5 3.12 11.5 2.53-3.4 1.89-7.56 1.58-11.51-1.18 0-3.53.01-4.7.01m-1754.59 2.73c-3.38 1.29-5.86 4.1-8.41 6.52-9.21 9.04-17.6 19.33-22.72 31.26-1.29 6.5 4.65 11.43 8.84 15.35 11.02 9.33 20.73 20 30.11 30.93 4.16 4.42 9.11 11.02 16.16 7.7 12.19-3.93 24.57-8.3 35.16-15.71 4.73-4.34 3.04-11.09.94-16.29-3.85-8.66-9.39-16.44-14.75-24.21-8.34-11.76-17.63-23.04-28.99-32-4.3-4.14-10.74-4.83-16.34-3.55m263.52 5.51c-16.64 5.41-32.5 12.94-48.01 20.97-4.56 2.22-8.11 5.9-11.69 9.4 7.69 5.58 17.58 8.07 26.76 4.69 21.01-6.95 36.59-23.84 51.31-39.56-6.49-.66-12.39 2.55-18.37 4.5m610.65-4.3c-.25 2.74-.94 5.42-.95 8.2.84-.02 2.52-.04 3.36-.06.22-2.47.28-4.95.57-7.41-.74-.18-2.23-.55-2.98-.73m-102.67 12.38c2.06 6.6 7.62 11.08 13.3 14.55 5.77 1.4 10.12-3.65 12.13-8.32 1.93-5.84-1-11.88-3.29-17.19-8.37 1.32-15.3 6.36-22.14 10.96m2129.25-10.23c-.15 1.78-.27 3.55-.33 5.33 2.2.14 4.4.24 6.66.29-1.08-2.73-3.05-5.34-6.33-5.62m-1004.83 3.54c-21.57 3.62-42.33 10.81-63.39 16.48-8.46 2.21-17.17 4.54-24.32 9.79-3.89 3.56-4.28 10.35-.9 14.37 4.26 4.35 10.91 3.75 16.45 4.64 25.41 1.58 48.49-11.22 69.3-24.21 5.8-4.16 12.75-8.63 15.28-15.7.91-6.28-8.42-6.59-12.42-5.37m-1994.28.36c-.62 1.79-.76 3.7-1.04 5.57 2.52-1.03 5.02-2.09 7.5-3.22-2.07-1-4.21-1.86-6.46-2.35m1158.77 4.01c-6.12 1.6-13.3 3.59-16.26 9.81-2.52 6.92-2.03 14.53-1.11 21.71.83 4.28 5.34 6.13 8.39 8.64 22.79 15.05 45.6 30.64 71.06 40.93 10.34 4.08 20.31 9.44 31.34 11.5-.31-12.46-7.07-23.21-13.26-33.54-10.19-16.72-21.7-32.67-34.87-47.17-4.43-4.66-9.06-9.52-15.23-11.78-9.48-4.32-20.34-2.78-30.06-.1m683.74-3.7c1.61 5.21 3.68 11.45 9.83 12.55-2.18-4.87-4.7-10.26-9.83-12.55m-1013.68 4.64c-20.82 4.16-41.39 9.46-62.13 13.97-7.79 2.28-16.49 2.95-23.19 7.88-2.54 1.67-2.62 6.03.09 7.57 6.06 4.11 13.54 6.46 20.9 6.35 16.75-1.83 32.34-8.93 47.05-16.8 9.67-5.02 20-9.19 28.01-16.84-3.35-1.54-6.99-3.14-10.73-2.13m-588.71 4.87c1.54.56 3.09 1.11 4.65 1.65l-.64-7.08a52.77 52.77 0 0 0-4.01 5.43m137.82.41c-11.18 5.26-21.94 14.19-24.96 26.68 6.03 4.41 12.43 8.6 19.77 10.44 5.77 1.81 12.11 4 18.12 1.84 4.08-2.65 7.47-7.09 7.87-12.07.54-9.45.63-20.9-7.11-27.79-4.25-2.95-9.5-1.1-13.69.9m966.23.56c1.32 1.23 2.05 4.02 4.13 3.9 1.19-1.18 2.15-2.57 3.17-3.9-1.24-.96-2.44-1.92-3.65-2.87-1.23.95-2.47 1.91-3.65 2.87m-1166.69.91c-3.52.46-8.61.35-9.32 4.76-.59 7.94 3.69 15.1 7.8 21.53 4.97 7.66 13.59 13.23 22.91 13.07 5.07.93 11.1-1.77 13.31-6.55 3.38-9.55 1.9-22.64-7.7-28.03-8.44-3.71-17.87-4.69-27-4.78m2685.73-.11c-3.41-.12-7.28 1.22-8.35 4.67-.39 3.67 2.31 6.75 3.91 9.87 11.63 17.79 22.51 36.35 37.11 51.96 1.86 2.89 6.52 5.55 9.57 2.68 6.16-5.79 9.87-13.56 14.3-20.65 3.58-7.18 9.17-14.15 8.72-22.62-5.81-11.42-18.66-16.04-29.96-20.05-11.5-3.07-23.28-6.68-35.3-5.86m-1326.39.41c.03 1.28.09 2.57.16 3.86 23.73 9.16 45.23 23.3 69.19 31.89 11.69 4.78 23.93.67 34.71-4.39-.01-.84-.03-2.51-.05-3.35-9.88-4.8-20.4-8.06-30.94-11.03-24.15-6.53-48.51-12.24-73.07-16.98m-711.8 11.33c-8.64 5.05-18.29 9.36-24.15 17.84-6.82 8.07-5.05 19.7-3.29 29.31 1.64 5.21 8.39 3.32 12.24 1.69 14.44-7.58 28.3-16.24 42.03-25.02 9.44-6.01 17.58-13.75 25.23-21.86-5.2-3.92-9.75-9.61-16.37-11-12.59-1.37-24.97 2.73-35.69 9.04m188.34-1.2c3.49-1.24 6.92-3 5.92-7.98-3.43 1.25-7.06 2.98-5.92 7.98m814.75.07c4.45 5.99 10.78 10.61 18.39 11.28-3.28-5.54-7.44-10.6-12.01-15.06-2.71-.5-4.4 2.45-6.38 3.78m946.76 11.04c-13.81 7.94-28.17 17.57-35.16 32.45 22.09-17.79 47.29-31.19 70.45-47.49-12.82 2.13-23.89 9.32-35.29 15.04m-486.66-11.53c2.92 8.71 7.25 16.94 12.83 24.24 7.22 7.69 18.58 3.38 27.76 4 12.63-1.28 27.24-2.7 36.44-12.41-10.58-5.88-23.09-6.65-34.44-10.34-13.98-2.77-28.22-8.74-42.59-5.49m531.63 2.46c-30.32 16.14-59.35 34.68-87.05 54.96-8.01 6.07-17.21 11.48-21.96 20.72 10.69 4.06 21.93 6.34 32.98 9.3 32.64 7.75 65.06 16.51 98 23.02 9.7 1.76 19.99 6.45 29.69 1.63 8.91-6.23 15.34-15.8 18.96-25.98 3.14-21.06-11.47-37.89-21.56-54.74-6.57-10.96-12.83-23.05-24.18-29.79-7.45-5.04-17.51-3.43-24.88.88m-2139.16-3.15c-.89 3.26-1.34 6.63-1.31 10.02 2.18-.9 4.52-1.63 6.39-3.15 1.04-3.61-2.58-5.34-5.08-6.87m1096.45 1.67c-.03 1.37-.02 2.74.04 4.12 1.22-.24 2.44-.49 3.71-.74-.42-1.34-.83-2.67-1.22-3.99-.63.15-1.9.45-2.53.61m-1785.93.93l-.48 4.45c1.32.79 2.64 1.59 3.96 2.39.02-1.88.07-5.65.1-7.53-1.2.22-2.39.45-3.58.69m970.73 1.91c1.68 1.14 3.4 2.24 5.16 3.3.94 7.73 1.86 15.7 5.5 22.72 3.18-.69 6.49-1.47 9.68-2.27-1.68-8.8-4.54-17.51-9.79-24.87-3.24-2.24-7.37 1.03-10.55 1.12m904.5-2.77c-.93 1.43-1.83 2.87-2.75 4.3 1.36.81 2.73 1.61 4.13 2.42-.51-2.25-.97-4.49-1.38-6.72m7.41 1.81c1.64 1.96 3.44 3.79 5.4 5.46.13-1.84.38-5.52.51-7.37-2 .61-3.98 1.25-5.91 1.91m403.28-1.34c-4.42 6.04-6.32 13.5-6.14 20.94.37 7.68-1.18 18.05 6.62 22.72 4.38-2.91 9.07-6.2 10.31-11.72 2.55-11.47-1.01-24.86-10.79-31.94m-1178.93 2.71c.67 2.28 1.5 4.51 2.47 6.7 1.5-1.55 2.76-3.3 3.98-5.09-2.16-.56-4.31-1.11-6.45-1.61m14.84.35a84.46 84.46 0 0 0-1.4 3.06c1.15 1.27 2.31 2.54 3.5 3.79l.8-7.08c-.72.06-2.18.17-2.9.23m-26.21.85c-.02 1.33-.02 2.66 0 4h4c-.01-1.34-.01-2.67 0-4h-4m906.12 1.14c-12.89 4.99-24.18 13.14-35.15 21.38 1.45 2.56 2.88 5.54 5.99 6.45 9.2 3.93 18.95 7.41 29.02 7.93 7.63 1.51 11.87-6.18 13.66-12.23 1.27-7.03 1.5-14.99-1.76-21.54-2.29-4.43-7.86-3.25-11.76-1.99m213.65 3.6c1.61 2.31 3.51 4.42 5.66 6.26 1.06-2.23 2.12-4.48 3.12-6.75-2.94-.54-5.94-.33-8.78.49m-1969.94.92c2.18 4.22 6.19 7.01 10.76 8.08-.76-2.54-1.08-5.42-2.89-7.49-2.4-1.39-5.27-.71-7.87-.59m705.32 12.21c2-.32 4.02-.66 6.04-.99.35-3.81.37-7.66.42-11.47-2.4 4.03-4.89 8.02-6.46 12.46m98.45-1c7.33 1.82 10.45-4.71 11.95-10.24-5.5 1.16-10.76 4.34-11.95 10.24m763.39-8.66c0 3.68 1.18 7.03 4.41 8.93 1.01-3.91-1.24-6.98-4.41-8.93m-1507.16.83c-5.59 11.44-2.63 24.79.24 36.61 9.06-3.96 15.61-12.38 19.32-21.34 1.48-3.45-1.75-6.56-4.06-8.66-4.12-4.1-10.05-5.38-15.5-6.61m-306.16 5.09c.96 1.8 1.96 3.58 2.98 5.36.55-2.02 1-4.06 1.42-6.1-1.47.23-2.94.48-4.4.74m891.58.54c-7.28 1.12-13.99 4.6-20.3 8.26-14.6 8.61-29.38 16.98-43.18 26.85-4.62 3.89-11.56 8.08-11.19 15.01 2.11 8.27 8.41 14.53 14.42 20.21 10.05 9.07 21.19 17.41 34.08 21.96 10.79 3.88 22.42.33 32.87-3 4.79-1.42 6.27-6.94 6.49-11.35.84-16.57 1.96-33.2 1.04-49.8-.76-6.87-.7-14.2-3.68-20.57-2.25-3.74-5.87-7.66-10.55-7.57m1497.17 3.96c-18.38 2.39-35.95 9.06-52.35 17.48-5.14 3.23-13.36 6.83-10.53 14.45 3.06 19.21 11.82 36.84 19.19 54.65 4.41 9.97 10.1 21.39 21.45 24.53 13.8 1.7 27.49-1.31 40.8-4.7 8.41-2.02 17.78-1.66 25.13-6.91 4.44-3.58 7.45-9.22 7.11-15.05 1.39-24.52 1.42-49.21-.86-73.67-.48-5.8-6.06-9.44-11.38-10.26-12.71-2.27-25.79-1.42-38.56-.52m-2142.74 1.23c.41 1.82.8 3.64 1.25 5.45 1.73-.78 3.45-1.55 5.18-2.34-.43-1.39-.86-2.78-1.28-4.17-1.72.37-3.44.72-5.15 1.06m816.76 20.83c1.91-6.56 2.73-13.49 1.98-20.31-7.96 3.51-7.52 14.79-1.98 20.31m88.45-20.15c-.28 8.61-.18 17.27.76 25.84.65 4.17 4.87 6.45 8.67 7.16 12.03 1.62 24.16 2.35 36.31 2.5.97-.94 1.95-1.87 2.95-2.81-4.09-5.26-9.89-8.79-15.18-12.67-10.73-7.35-21.48-14.92-33.51-20.02m-80.8 22.49c-1.62 19.15 5.52 37.24 12.1 54.8.72.06 2.16.17 2.88.23-1.73-25.74-2.38-52.01-9.92-76.88-4.25 6.4-4.33 14.48-5.06 21.85m685.58-20.85c.41 2.35.88 4.71 1.38 7.05 1.97-.86 3.92-1.74 5.91-2.62-.99-3.55-3.79-4.95-7.29-4.43m-1398.26 2.45c-14.93.28-26.81 10.12-38 18.8-7.37 6.52-15.81 14.06-16.15 24.68-.8 25.28.04 50.59-.35 75.89.3 8.99-.58 18.31 2.09 27.03 2.69 4.75 8.34 8.12 13.95 6.82 12.78-.75 24.71-5.81 36.98-9 17.18-5.56 35.72-11.84 47.03-26.88 5.56-6.56 4.91-15.94 5.15-23.96-.28-21.67.31-43.35-.31-65 .33-11.35-8.76-21.93-19.79-23.98-9.98-2.6-20.22-4.81-30.6-4.4m614.9 9.35c.89-1.64 1.81-3.27 2.76-4.89-1.36-1.22-2.72-2.45-4.04-3.68-1.66 3.06-2.72 6.89 1.28 8.57m827.86-8.99c-.53 1.97-1 3.96-1.44 5.95 2.02.45 4.02.9 6.08 1.34.59-3.63-1.02-6.37-4.64-7.29m-766.63 3.5c1.24 1.73 2.54 3.44 3.9 5.1.13-1.7.4-5.12.53-6.82-1.49.57-2.97 1.14-4.43 1.72m-49.46-.9c-6.19 7.34-6.98 18.18-1.62 26.17 5.68-4.34 11.44-8.99 15.23-15.14 2.29-8.58-7.98-9.47-13.61-11.03m38.92.41c-.02 1.33-.02 2.66 0 4h5c-.01-1.34-.01-2.67 0-4h-5m1645.37 35.67c11.39 3.74 24.34 5.4 35.65.41 16.65-7.81 29.13-21.94 40.14-36.29-26.27 9.66-51.54 21.97-75.79 35.88m-1561.96-34.5c.97 1.88 1.98 3.74 3.02 5.6 1.94-1.64 3.78-3.39 5.46-5.31-2.12-.07-6.36-.22-8.48-.29m33.59-.17v3h3v-3h-3m733.87-.25c.19 1.96.39 3.92.63 5.89 1.25-1.56 2.46-3.16 3.65-4.8-1.45-.37-2.88-.73-4.28-1.09m401.2-.36c-2.08 3.09-3.72 6.54-3.22 10.37 2.94-2.68 4.49-6.45 3.22-10.37M99.576 185c-.19 2.06-.57 6.18-.75 8.23 2.29.74 4.62 1.35 6.97 1.91-1.02-3.94-3.15-7.47-6.22-10.14m178.4 11.8c-2.45 3.68.55 7.61 2.09 10.93 2.39 4.76 6.81 8.16 11.76 9.97 3.19-9.2 3.75-18.94 3.3-28.62-1.4-1.19-2.79-2.39-4.17-3.6-4.68 3.32-10.59 5.75-12.98 11.32m2051.07-8.96a138.9 138.9 0 0 0 0 5h3a138.9 138.9 0 0 1 0-5h-3m-910.61 8.01c2.93-.57 6.09-1.09 9.09-1.76a366.33 366.33 0 0 0-4.69-6.13 59.678 59.678 0 0 0-4.4 7.89m736.75-.94c2.06-.28 4.18-.57 6.28-.9-.75-2.1-1.55-4.18-2.32-6.25-1.35 2.31-3.06 4.67-3.96 7.15m-750.31-.43c1.87.42 5.6 1.24 7.47 1.66-.42-1.87-1.24-5.6-1.66-7.47a17.728 17.728 0 0 0-5.81 5.81m550.88-.21c1.75.87 3.54 1.74 5.32 2.61-.15-1.7-.46-5.11-.62-6.81-1.63 1.34-3.2 2.75-4.7 4.2m56.74-2.81c-7.86.96-15.23 4.59-21.4 9.43-3.23 3.07-4.29 7.62-5.38 11.77-2.83 10.5-1.76 21.52-.91 32.21.78 6.5 1.88 16.12 9.84 17.37 20.09 3.62 40.34 6.92 60.73 8.32 9.46.47 21.88.35 27.51-8.83 7.4-9.43 5.85-22.22 5.45-33.43-.56-11.34-6.22-24.41-17.88-27.92-18.56-6.28-38.26-11.03-57.96-8.92m-1342.4 34.04c14.25-2.22 28.51-5.28 41.91-10.74 5.81-3.02 7.3-9.86 8.42-15.72-1.78-1.11-3.55-2.23-5.32-3.33-15.48 9.02-32.72 16.41-45.01 29.79m538.99-28.46c1.65 4.64 3.52 9.19 5.62 13.66.74-1.89 1.71-3.75 1.95-5.8-.34-3.46-2.6-6.3-4.38-9.14-1.08.42-2.14.85-3.19 1.28m1386.35-.19c9.82 8.85 22.67 12.87 34.62 17.95 10.98 3.88 22 9.37 33.97 8.96 5.91.83 10.61-3.13 14.84-6.63-17.01-7.63-35.46-11.16-53.42-15.74-9.91-1.88-19.79-6.08-30.01-4.54m-755.5 2.82l.52 6.69c.72.17 2.16.51 2.87.68 1.15-3.32 2.12-6.71 2.75-10.18-2.09.89-4.13 1.83-6.14 2.81m-1072.75 1.06c-.28 1.58-.54 3.17-.8 4.75 2.38.01 4.79.01 7.21.01.21-1.3.43-2.59.65-3.89-2.37-.29-4.72-.58-7.06-.87m1514.93-.37c.29 2.51-.12 5.63 2.16 7.38 3.45 1.12 5.27-2.4 6.84-4.76-2.8-.95-6.41-1.88-9-2.62m76.91 2.57c-5.55 1.63-6.02 8.35-6.65 13.04-.34 8.45 2.36 17.06 8.34 23.18 11.94 12.44 25.2 23.53 38.33 34.69 5.55 4.36 11.05 9.34 17.95 11.44-1.57-11.96-7.12-22.9-11.45-34.03-7.18-14.75-11.75-30.95-21.74-44.19-5.85-7.37-16.74-6.76-24.78-4.13m-2276.4-1.78c1.56 3.72 3.32 7.36 5.26 10.9 1.47-.49 2.95-.98 4.43-1.45-1.73-4.43-4.54-8.78-9.69-9.45m957.48.6c.65 2.09 1.29 4.18 1.96 6.28 1.93-.57 3.87-1.17 5.83-1.71.03-1.13.08-2.25.15-3.37-2.57-.38-5.48-.85-7.94-1.2m678.51 1.92c3.72 9.82 11 18.34 19.63 24.25.85-4.62 2.18-9.7-.22-14.08-3.24-7.06-11.44-12.97-19.41-10.17m595.34-.41c.89 2.1 1.93 4.14 3.11 6.12 1.55-1.86 2.76-3.97 3.97-6.08l-7.08-.04m-1577.55-.43c-.08 1.85-.22 5.54-.3 7.39 2.34-.58 4.67-1.2 7.01-1.83-1.55-2.53-3.58-4.91-6.71-5.56m326.76 8.12c-5.89 5.83-12.16 12.27-12.98 20.98-2.71 15.79-.26 31.9-.09 47.79-2.85-.16-5.82-.35-8.6-.47-.23 1.49-.43 2.98-.6 4.47 2.53.05 7.61.16 10.14.21.01 1.66.03 4.99.03 6.65-2.09.38-6.29 1.14-8.39 1.51 2.25 2.58 5.09 4.52 7.99 6.29.8 3.5 1.57 6.98 2.43 10.49l3-.04c10.09-14.81 18.83-30.52 26-46.94 9.04-18.3 6.36-43.32-9.17-57.28-3.97.7-6.98 3.68-9.76 6.34m867.14-6.46c-.89 1.75-1.74 3.5-2.58 5.26.81 1.03 1.65 2.06 2.52 3.09 1.37-1.02 2.76-2.03 4.19-3.03-1.38-1.79-2.75-3.56-4.13-5.32m-1721.44 13.1c-3.06 1.22-6.9 3.38-6.62 7.2 1.22 12.03 6.1 23.45 6.33 35.63 1.3 12.7-2 25.09-3.42 37.61 6.51-2.27 10.96-7.7 15.99-12.08 13.3-12.11 24.95-25.88 35.89-40.12 4.97-7.13 10.46-14.1 13.71-22.24.38-7.78-6.38-15.03-13.71-16.71-16.7-.89-32.83 4.79-48.17 10.71m914.89-10.94c-.25 2.74-.96 5.37-.94 8.17 1.42 0 2.86 0 4.31.01-.19-2.51-.35-5-.5-7.49-.72-.17-2.15-.52-2.87-.69m1470.01 1.54c-2.98 14.38-3.47 29.57.26 43.84 2.25 4.09 8.09 4.4 11.98 2.68 14.67-3.93 27.92-11.89 40.37-20.4-1.19-3.58-3.67-6.41-7.14-7.73-14.91-6.65-29.29-15.17-45.47-18.39m-2028.41 3.89c-2.59 1.21-3.72 4.06-4.56 6.6-2.76 9.03-.63 18.49 1.09 27.48.65 3.2 4.29 4.63 7.23 3.9 7.15-1.56 14.48-3.38 20.63-7.56 1.86-2.42 1.72-6.03.29-8.64-4.83-8.85-12.77-15.48-21.08-20.94-1.08-.49-2.43-1.66-3.6-.84m449.06 8.38c1.43.89 2.87 1.78 4.34 2.67.3-4.08.3-8.23-.72-12.21-1.53 3.04-2.69 6.27-3.62 9.54m219.01-3.07c-5.88-.74-10.79 3.74-11.2 9.45-.96 20.67.24 41.35 1.02 62.01-.58 3.9 1.06 8.33 4.78 10.02 5.86 2.61 12.3 1.09 18.35.36 25.87-3.64 51.92-5.89 77.69-10.23 11.38-1.83 24.68-2.13 33.25-10.88 5.93-4.26 1.18-12.16-1.83-16.69-12.55-15.72-31.78-23.35-49.58-31.42-22.96-8.97-47.74-14.39-72.48-12.62m-207 5.01c1.67.86 3.35 1.72 5.05 2.57.04-2.66-.08-5.31-.36-7.94-1.7 1.67-3.25 3.48-4.69 5.37m1302.63-4.83c.01 1.35.04 2.69.1 4.05.61.32 1.84.97 2.45 1.29.97-1.33 1.93-2.67 2.92-4.02-1.85-.45-3.67-.89-5.47-1.32m-488.02 2.13c-6.24 1.11-13.33 1.58-18.39 5.7-3.08 5.16-3.32 11.58-3.63 17.42-1.48 6 4.35 9 7.76 12.63 11.11-6.52 21.7-14.01 31.35-22.57 3.03-2.47 4.48-6.1 5.85-9.66-7.2-2.97-15.14-5.19-22.94-3.52m54.75-.6c-1.15 1.16-2.28 2.31-3.38 3.47 1.35 6.67 5.81 12.49 12.74 14.11-.52-4.41-.79-8.85-1.86-13.17-.66-3.26-5.5-2.93-7.5-4.41m-1097.48 2.09c-.03 1.81-.04 3.63-.03 5.45 2.66-1.48 5.2-3.18 7.53-5.14-1.88-.08-5.62-.24-7.5-.31m1.58 11.5c-4.45 3.49-3.4 9.84-3.45 14.72 5.61.58 11.55.23 16.59-2.53 10.5-5.71 21.35-10.86 31.12-17.81-.05-1.54-.1-3.08-.13-4.62-15.1-1.3-32.11-.01-44.13 10.24m63.65-8.31c-8.27 5.1-14.97 12.34-21.73 19.22-11.59 12.52-23.25 25.13-32.43 39.59 2.47 2.8 5.31 5.82 9.29 6.09 15.88 1.5 31.84-.15 47.71-1.07 14.41-1.39 29.76-2.04 42.59-9.51 3.32-1.96 7.42-4.56 7.7-8.84-.72-5.66-5.09-9.94-8.48-14.17-10.89-10.84-22.47-21.08-34.97-30.02-2.75-1.99-6.59-3.46-9.68-1.29m543.24.5c.39 1.98.82 3.95 1.27 5.93 1.29-.01 2.61-.01 3.94-.02.27-1.8.57-3.6.85-5.41-1.52-.12-4.54-.38-6.06-.5m830.65 10.77c7.19 4.4 15.54 6.16 23.56 8.4 3.98.93 9.26 1.43 11.77-2.51 3.42-4.98-.59-11.08-3.35-15.32-10.77 2.73-21.53 5.66-31.98 9.43m-2128.29-7.26c.21 2.13.46 4.26.73 6.39.8.03 2.4.08 3.2.1-.02-1.81-.04-5.44-.05-7.25-1.3.24-2.59.49-3.88.76m182.23-.28c1.25 2.53 2.53 5.12 4.09 7.49.2-1.97.6-5.9.79-7.86-1.63.11-3.25.24-4.88.37m2434.54.53c-7.67 1.47-15.44 5.77-18.96 12.99 9.97 5.85 21.03 9.52 32.27 12.11 2.29.56 4.74.54 6.81-.85 7.27-2.88 11.58-9.74 15.48-16.14-10.5-6.49-23.35-9.48-35.6-8.11m-2407.44 1.75c1.52 1.4 3.06 2.79 4.65 4.11.19-1.96.35-3.91.45-5.87-1.7.57-3.4 1.16-5.1 1.76m346.94 10.83c-9.67 3.59-20.11 7.37-25.65 16.81 2.76 6.15 7.75 13.54 15.13 13.58 10.91-4.31 19.98-12.54 28.45-20.47 6.78-6.88 14.53-13.23 19.18-21.86-13.49-.57-24.94 7.55-37.11 11.94m1506.34-13.05c-1.02 2.45-2.41 4.86-2.54 7.56.89 4.22 5.28 7.76 9.69 6.98 7.78-1.31 15.68-3.1 22.81-6.66-9.62-3.83-19.68-6.71-29.96-7.88m168.54 7.05c2.17.71 4.39 1.4 6.62 2.04l-.32-6.36c-2.22 1.29-4.34 2.71-6.3 4.32m-1654.5 24.37c-5.73 6.79-13.77 14.98-11.27 24.79 5.67 11.95 16.19 20.48 25.75 29.24 5.64 4.8 10.92 10.5 18.01 13.17 1.71-27.58.3-55.23.82-82.83 2.86.18 5.64.31 8.54.48.16-1.63.31-3.26.48-4.88-2.98.75-5.95 1.53-8.9 2.36-1.12-3.29-2.17-6.57-3.33-9.82-12.5 6.04-20.8 17.63-30.1 27.49m1643.12-27.17c.33 1.99.73 3.98 1.16 5.96 1.46-1.12 2.94-2.25 4.42-3.41-1.87-.88-3.73-1.73-5.58-2.55m-394.15 2.46c.36 1.73.71 3.48 1.14 5.21 1.81-1.36 3.51-2.88 5.07-4.54l-6.21-.67m622.07 4.06c.38 1.42.81 2.84 1.27 4.26 1.36-.83 2.75-1.65 4.17-2.46a127.2 127.2 0 0 1-1.27-4.26c-1.42.82-2.81 1.65-4.17 2.46m-458.08 2.7c1.11 2.14 2.22 4.31 3.34 6.48 1.79-.8 3.58-1.62 5.39-2.44-.78-2.51-1.61-5-2.47-7.47a67.595 67.595 0 0 0-6.26 3.43m531.27 10.14c-10.82 5.45-22.02 10.31-32.22 16.84-5.21 3.14-6.05 9.18-5.04 14.59 7.35-1.58 14.72-3.56 21.32-7.31 20.47-10.65 41.72-19.99 61.17-32.51-1.7-1.87-3.22-4.88-6.16-4.59-13.94.79-26.65 7.2-39.07 12.98m149.9-11.09c-8.18 2.59-12.88 10.57-18.54 16.44 11.58 12.68 29.11 16.81 44.56 22.83 27.79 11.52 56.44 20.81 85.08 29.95 9.79 2.99 20.02 6.66 30.37 4.26 6.57-3.92 10.95-10.68 15.04-16.98 3.51-6.55 7.3-14.74 3.28-22-2.44-3.96-7.45-5.07-11.5-6.53-38.39-7.72-76.49-16.82-114.69-25.41-10.97-2.49-22.41-4.48-33.6-2.56m-1662.87.07c-.43 2.01-.83 4.03-1.19 6.06 1.55.27 3.12.55 4.7.82.03-1.59.08-4.77.1-6.36-1.22-.18-2.42-.36-3.61-.52m290.8-.19c-.37 2.5-.72 4.99-1.06 7.5 2.02.77 4.06 1.51 6.14 2.21.4-2.49.82-4.98 1.25-7.47-2.12-.76-4.23-1.5-6.33-2.24m776.32 9.46c3.56 8.34 9.34 15.57 16.19 21.47 13.98 12.13 27.54 25.06 43.69 34.34 6.97 4.16 14.89 8.62 23.34 7.36 7.6-3.4 6.82-13.6 6.86-20.35-.43-12.87 2.3-28.25-7.93-38.27-9.84-6.31-21.62-8.61-32.83-11.28-16.67-3.84-33.94.09-49.32 6.73m-1565.66-4.78c3.22.34 6.31.57 9.57.88-.04-.94-.13-2.84-.17-3.78-3.2.86-6.33 1.7-9.4 2.9m-511.24-.87c-6.71.14-12.98 3.33-17.45 8.22-8.68 8.99-16.8 19.06-21.19 30.9-1.13 2.99 1.73 5.66 4.41 6.36 13.21 4.06 27.49 1.51 40.33-2.75 12.76-5.45 17.64-22.2 11.74-34.33-3.96-5.56-11.08-8.54-17.84-8.4m689.43 27.31c-1.02 2.8 1.54 4.98 2.89 7.12 12.34-9.68 22.2-22.09 31.59-34.55-14.33 4.06-30.27 11.83-34.48 27.43m1557.87-27.35c-.92 2.37-1.78 4.76-2.63 7.15-3.07-2.07-6.29-3.91-9.68-5.35-.06 1.47-.08 2.94-.07 4.42 2.99 1.92 6.06 3.74 8.73 6.15 2.49 4.11 3.37 9.72 7.51 12.72 8.23 4.42 17.83 6.16 27.09 4.56-2.16-3.3-4.54-6.49-7.5-9.11-7.51-7.19-14.6-14.97-23.45-20.54m-1867.24 3.78c.95 2.06 2.19 4.28 3.26 6.36a63.7 63.7 0 0 0 2.9-6.42l-6.16.06m39.32-.15c1.46 2.29 2.94 4.57 4.52 6.79a49.11 49.11 0 0 0 3.55-6.73c-2.02-.01-6.06-.05-8.07-.06m70.39 1.79c-11.42 2.28-22.82 4.82-33.95 8.23-5.3 1.79-4.81 11.17 1.06 11.75 8.89.48 16.62-4.38 24.78-7.06 9.09-3.55 18.99-5.89 26.91-11.86-5.92-2.63-12.57-1.96-18.8-1.06m2096.84-.53c-21.94 4.21-42.05 14.67-61.81 24.65-7.08 4.17-15.58 6.9-20.57 13.78 6.33 3.19 13.66 1.85 20.54 2.35 15.42-.3 31.36.76 46.34-3.81 12.15-4.73 22.5-13.25 31.52-22.53-3.1-6.34-7.93-14.73-16.02-14.44m17.37 7.4c2.18.45 4.38.88 6.63 1.29-1.43-2.71-1.98-5.4-3.7-7.84a52.402 52.402 0 0 0-2.93 6.55m-594.5.07c1.26 2.07 2.57 4.11 3.95 6.13 1.18-2.7 1.89-5.56 2.23-8.48-2.1.75-4.15 1.51-6.18 2.35m15.4-2.46c.29 2.27.66 4.55 1.04 6.82 1.71-.93 3.41-1.88 5.15-2.81a71.76 71.76 0 0 0-6.19-4.01m-1381.77.61c-.43 2.99-.8 5.99-1.12 9 1.97-1.01 4.03-1.94 5.75-3.37.32-2.91-2.77-4.11-4.63-5.63m-147.12 12.19c-9.38 6.57-20.57 11.05-28.11 19.93 4.19 2.4 8.99 3.71 13.87 2.81 6.31-.54 13.67-.66 18.36-5.59 7.13-7.43 13.79-15.57 18.44-24.82-8.4-3.58-15.64 4.11-22.56 7.67m1919.87-9.49v5.58c1.62-.36 3.29-.73 4.96-1.12v-3.34c-1.67-.4-3.34-.77-4.96-1.12m38.93.86c.62 1.98 1.28 3.94 2 5.9 1.7-.77 3.42-1.57 5.14-2.39-.22-1.24-.41-2.48-.57-3.71l-6.57.2m-1472.1 4.32c-7.32 11.98-14.11 24.55-18.28 38.01 8.56-.92 16.13-5.52 23.4-9.81 4.82-3.18 10.73-6.44 12.88-12.17-.22-6.08-2.41-12.08-5.75-17.12-2.95-4.17-9.92-3.29-12.25 1.09m-951.86 3.12c1.82-.29 3.65-.59 5.48-.91-.71-2.05-1.45-4.08-2.23-6.09-1.33 2.21-2.44 4.55-3.25 7m978.99-6.21c-.45 2.05-.88 4.1-1.27 6.17 1.4 0 2.81 0 4.24.01.68-1.73 1.36-3.45 2.05-5.18-1.68-.34-3.36-.68-5.02-1m315.43.6c1.02 1.73 2.11 3.44 3.22 5.12 1.58-1.33 3.17-2.66 4.76-4.01-2.63-.58-5.3-.95-7.98-1.11m1548.12-1.14c-.74 2.28-1.39 4.57-1.96 6.88 1.87-.28 3.78-.56 5.73-.85-1.12-2.11-2.36-4.13-3.77-6.03m-249.96 3.32c-5.43 2.96-9.11 11.06-4.63 16.42 1.05 2.05 3.62 5.36 6.16 3.18 5.78-4.52 10.72-10.39 13.68-17.17-4.62-2.43-9.97-5.02-15.21-2.43m-558.75-1.39c-5.1 13.76-2.42 28.98-1.16 43.18 1.89 8.16 10.45 10.45 17.35 12.5 16.22 4.47 33.38 2.36 49.6-1-7.97-9.85-18.18-17.56-27.38-26.17-12.05-10.41-22.98-23.05-38.41-28.51m-2121.6 15.15c-.84 3.81 1.68 6.72 3.65 9.53 8.5-5.1 13.66-13.6 17.28-22.56-8.16 1.56-16.8 5.48-20.93 13.03m906.77-5.29c-3.02 2.27-8.05 4.35-7.93 8.85 1.47 5.46 7.41 7.84 12.01 10.02 5 2.07 12.37 1.63 15.11-3.68 2.77-6.01.65-12.56-.05-18.76-6.53-.26-13.54-.24-19.14 3.57m1029.28 1.29c-2.91 5.18-1.87 11.53-.6 17 1.15 4.13 6.78 4.19 10.08 3.28 14.7-2.44 29.32-6.08 43.25-11.44-.07-1.35-.12-2.69-.14-4.04-14.62-3.05-29.24-6.21-44.09-7.8-3.05-.13-6.42.66-8.5 3m-1352.44-1.34c-7.76 3.74-13.75 10.33-19.45 16.63 4.89 1.5 9.95 3.01 15.13 1.91 7.25-.92 12.7-6.33 18.04-10.87-3.03-4.37-7.36-10.6-13.72-7.67m1316.41-1.46c-.25 2.81-.09 5.64.4 8.42 2.18-1.66 4.25-3.48 6.11-5.5-2.17-1.01-4.33-2-6.51-2.92m759.44 6.26c-9.29 4.02-16.93 11.09-24.88 17.21l.64 2.77c13.02 1.82 27.26 2.32 38.34-5.96-2.04-6.13-5.33-17.56-14.1-14.02m34.4 9.36c-7.45 9.63-2.73 24.71 7.86 29.78 11.76 6.04 25.44 5.92 38.09 8.96 22.57 5.44 46.01 5.02 68.92 2.22 8.4-1.1 17.54-1.57 24.7-6.68-9.62-6.01-20.36-9.94-30.71-14.43-26.46-10.23-52.72-21.16-80.1-28.71-10.07-2.66-22.98-.76-28.76 8.86m-393.01-3.46c2.54 3.25 5.09 7.26 9.82 7.32 11.44 2.17 23.21.67 34.82.9.35-.95.73-1.9 1.15-2.84-9.97-3.85-20.24-7.05-30.9-8.16-5.2-1.33-10.28.62-14.89 2.78m-1344.14-2.79c-1.4 1.8-1.11 6.2 2.02 5.18 1.38-1.81 1.09-6.21-2.02-5.18m204.59 6.97c1.48.05 2.97.11 4.48.17-.93-2.52-1.76-5.05-2.64-7.54-.5 2.48-1.73 4.78-1.84 7.37m1767.14-5.16c.43 1.99.93 3.98 1.48 5.97 1.52-1.46 3.01-2.95 4.49-4.49-2.01-.52-4.01-1.01-5.97-1.48m-2079.41 10.85c2.37 1.42 4.8 3.06 7.65 3.26 15.67.7 31.64 6.01 47 .1-6.27-6.65-14.27-13.31-23.99-12.83-11.21-1.27-21.46 3.79-30.66 9.47m1546.15 2.21c-3.73 7.75-4.12 16.77-.75 24.69 14.51-1.85 27.79-8.5 41.52-13.2 8.78-2.98 16.9-7.44 24.81-12.26l-.48-6.88c-21.93-.26-43.83 2.37-65.1 7.65m-2306.9-7.57l-.43 6.12c1.83-.62 3.64-1.26 5.46-1.89-1.6-1.51-3.29-2.9-5.03-4.23m657.24 2.04c-.77 2.66-1.27 5.39-1.55 8.15 1.82-.87 3.63-1.79 5.45-2.71a105.32 105.32 0 0 0-3.9-5.44m2236.92 4.13c3.81 5.79 11.14 4.9 17.22 4.99.01-.9.04-2.71.05-3.62-5.72-.97-11.48-1.85-17.27-1.37m-1778.86 13.55c-8.98 1.8-18.29 2.69-26.81 6.2-7.62 2.42-5.76 11.77-3.56 17.54 5.77-.18 11.51-.89 17.18-2 30.39-6.3 60.01-15.73 89.46-25.42 5.88-2.17 12.71-3.55 16.66-8.9-31.12 2.93-62 8.03-92.93 12.58m1713.69-4.25c.47 1.14.97 2.29 1.52 3.43 2.28-.93 4.49-2.18 6.96-2.64 2.28.33 4.08 2 6.05 3.14.82-1.03 1.61-2.06 2.52-3.09-2.75-1.95-5.63-3.82-8.62-5.26-3.07.92-5.72 2.9-8.43 4.42m-1055.86.35c2.15 1.22 4.32 2.39 6.57 3.47-.61-2.27-1.24-4.52-1.96-6.75-1.56 1.08-3.09 2.18-4.61 3.28m-1025.36 4.27c-1.99 12.32-2.64 26.03 3.43 37.37 17.77-8.62 33.05-21.48 48.78-33.25-1.85-1.81-3.63-3.91-6.18-4.68-11.78-3.69-24.2-4.32-36.4-5.41-4.47-1.35-9.02 1.51-9.63 5.97m-398.46-.83c-2.9 5.25-3.1 11.33-.2 16.63.85-.03 2.54-.1 3.39-.13.64-4.71 1.24-9.41 1.95-14.09-1.7-.83-3.41-1.65-5.14-2.41m2483.36 1.24c-.01 2.92-.02 8.76-.03 11.68 1.38-.91 2.78-1.83 4.24-2.72-1.36-3.06-2.7-6.01-4.21-8.96m-2218.59 4.09c-.43 1.62-1.31 4.84-1.75 6.46-2.32 2.06-5.43 2.87-8.19 4.15 1.05 3.14 2.21 6.25 3.48 9.31 6.34-3.47 11.03-9.11 15.89-14.32 3.29 1.24 6.6 2.49 9.93 3.65-.52-4.19-2.25-8.8-6.33-10.71-4.34-.82-8.77.67-13.03 1.46m1809.65 2.81a43.08 43.08 0 0 0 5.27 4.72c.38-1.81.83-3.61 1.3-5.41-1.65.17-4.93.52-6.57.69m-1531.04 3.91c-.02 2.32 0 4.64.04 6.98.86.17 2.57.52 3.43.69.23-2.8.17-5.61-.09-8.41-.84.19-2.53.56-3.38.74m381.74-.44c-.52 5.89-1.14 11.97.65 17.72 3.31-2.39 7.31-5.25 7.31-9.81-.02-4.39-4.47-6.52-7.96-7.91m-274.61 2.33c-.17 1.53-.33 3.06-.47 4.6 1.5.27 3.02.54 4.54.8l.56-5.98c-1.56.19-3.1.38-4.63.58m956.62.59v6h4v-6c-1.36-.01-2.69-.01-4 0m74.95-.22c-1.29 2.32-1.56 5.74 1.37 6.91 4.5 1.16 9.26-.61 13.54-2.12-4.33-3.1-9.44-5.37-14.91-4.79m560.38 5.61c-2.99 6.16 5.23 7.85 9.18 8.15 17.18 1.54 34.46 2.67 51.71 1.24-.53-1.17-1.02-2.34-1.48-3.5-15.03-2.09-29.5-6.87-44.38-9.57-5.13-.85-12.17-1.76-15.03 3.68m-504.15.23c9.5 4.81 20.07 8.4 30.82 8.26-6.99-9.45-20.44-8.3-30.82-8.26m339.35 10.48c.31 3.03-.95 5.96-1.17 8.96 1.42-.15 2.88-.3 4.36-.45.02-5.09.09-10.17.2-15.25-.94-1.04-1.84-2.08-2.71-3.11-4.33 2.12-1.53 6.36-.68 9.85m303.08-4.49c-4.2.84-9.19 1.28-12.08 4.87 13.83 4.9 28.13 8.73 42.63 11.1 8.46 2.28 10.79-7.84 14.43-12.99-2.72-3.22-6.17-6.34-10.6-6.5-11.56-.09-23.03 1.65-34.38 3.52m-2132.75-2.61c.18 1.55.38 3.11.59 4.68 1.05-.03 2.11-.06 3.18-.08-.24-1.51-.48-3.01-.7-4.51-.77-.02-2.3-.07-3.07-.09m1554.99-.11c-3.47 4.68-7.03 9.53-7.28 15.62 3.46-1.97 6.77-4.12 10.21-6.23 4.31 6.61 9.6 12.49 14.86 18.37 2.68-3.18 4.45-6.99 5.18-11.12-3.09-1.58-6.67-2.51-9.15-5.02-1.03-2.81-1.35-5.82-1.86-8.72-3.98-.98-8.07-1.94-11.96-2.9m-2195.82 2.95c0 1.59.01 4.77.02 6.36l3.69-.69c.03-1.68.03-3.36.01-5.03-1.24-.22-2.48-.43-3.72-.64m391.09 5.18c1.94 1.28 3.92 2.5 5.96 3.63.2-2.4.31-4.79.3-7.19-2.12 1.14-4.2 2.33-6.26 3.56m1820.5-2.42c2.81 1.03 5.32 1.89 8.3 2.8-.39-1.13-.75-2.26-1.08-3.37-1.81.14-5.42.43-7.22.57m-2174.72.32c-.8 2.06-1.58 4.15-2.32 6.25 2.09.33 4.18.62 6.28.9-1.24-2.5-2.48-4.84-3.96-7.15m900.71 1.56c-1.29 2.09-2.36 4.31-3.36 6.55 2.21.39 4.41.8 6.66 1.11-.65-2.72-1.5-5.47-3.3-7.66m1926.29.06c-.33 2.67-.56 5.36-.69 8.06 1.49.16 3.03.31 4.61.47.06-3.37-1.34-6.4-3.92-8.53m-420.53 9.28c2.83-.29 5.65-.78 8.43-1.5-1.57-2.54-3.25-5.01-5.07-7.35-1.24 2.86-2.78 5.78-3.36 8.85m266.91-4.71c19.06.54 37.79 4.35 56.74 6.16-.02-.84-.06-2.54-.09-3.39-9.98-1.7-19.97-3.3-29.96-4.81-8.84-.68-18.7-2.8-26.69 2.04m-1629.94-3c-.98 4.95-.74 9.99-.3 14.99 2.12-1.75 5.24-3.09 4.42-6.72.24-3.26-2.3-5.87-4.12-8.27m-16.89 4.74c-.73 3-1.56 5.97-2.07 9.03l6.47-.19c-1.27-3.09-2.4-6.17-4.4-8.84m-1076.48 2.94c.22 1.73.67 5.2.9 6.93 1.18-1.94 2.23-3.95 3.19-6.01-1.37-.31-2.73-.62-4.09-.92m2945.01 3.88c.71 1.69 1.39 3.48 2.48 5.03 2.39 3.24 7.24 1.32 10.48 2.48-2.22-5.16-7.3-7.91-12.96-7.51m-14.52 1.79c-.24 1.16-.44 2.32-.6 3.49 1.34.02 2.73.04 4.16.07-.06-1.39-.08-2.78-.07-4.16-1.2.19-2.36.39-3.49.6z"/></svg>