<svg width="745pt" height="740pt" viewBox="0 0 745 740" xmlns="http://www.w3.org/2000/svg"><path d="M570 3.9c4.6-1 9.3-.6 14-.7 15 .1 30.2 0 45.3.2-.3 9.5 0 19-.2 28.5-.6 6-.2 12-.3 18v156.8h-96.5l-7-1.8-1.3 2c-51.6.3-103.1-.2-154.7.3 0 3 0 6 .3 9 .5-2.6.5-5.4.5-8.1 51.2 0 102.5-.2 153.7.1-2.8 1-5.9.5-8.8.5H373c-3.7.2-1.8 5-2.4 7.3h18l10.8 3v.1c3.5 1.7 6.2 4.3 9.5 6 3-.5 5-3.2 7.7-4.4 5.5-3.2 12-4.8 18.3-4.8h54c6.4 0 12.7 2 18.2 5.2 2.4 1.2 4.3 3.5 7 4 3.3-1.7 6.1-4.2 9.4-6l.3-.1c8-3.4 16.9-3.3 25.5-3 46.5.5 93 0 139.5.2 0 2.6-.2 5.2.2 7.7l.1 1c17.2.2 34.3 0 51.5 0h.2c0 43.4-.4 86.8 0 130.2l-1 1.7c0 4.2-2.7 7.8-4.6 11.3-4 4.1-7.5 9-12.9 11.2-3 1.4-5.7 3.2-9 3.8-4 .6-8.1 1.3-12.3 1.3h-49c-5.5.1-10.8-1.3-16-2.5l-.5-.1a57 57 0 0 1-17.5-14.3 33 33 0 0 1-4.6-10.6c-.8-10 0-20-.5-30v-.8c-10.5-.4-20.9-.1-31.3-.2h-2l-1.5.3-.3 1.4c-.3 18.5 0 37-.1 55.3-.4 4.2 3.5 6.8 4.2 10.7.5 1.8 1 3.6 1.7 5.4.3 34.8.2 69.6.1 104.4a50 50 0 0 0-2 10c-.8 2.4-2.3 4.5-3.2 6.8l-.3 2.3h8.8c2.1 3 5.8 2.4 8.6.8 3.1-.3 6.4 0 9.3-1.4 2.6-1.3 5.4-2 8.2-2.8a951 951 0 0 1-.8-4c-1.6-6-2.5-12.6.7-18.2 1.7-2.3 3.7-4.3 6-6 2.2-1 4.6-1.6 6.8-2.7H666c2.1 0 4.3.1 6.4.9 1.9.7 3.7 1.6 5.7 2.1 1.5-.2 2.5-1.5 3.6-2.5 5-5 9.8-10.3 15.5-14.5h.7c4.5-.8 9-.8 13.5 0h.4c5.3 3.6 9.4 8.6 13.9 13 2.5 2.2 2.7 5.6 3.9 8.6.5 13.6 0 27.4.2 41.2v90.2c-1.5 3.8-2.8 7.9-6 10.6-7.1 6.6-13.3 14.3-21.1 20h-.4c-4.8 1-9.9 1-14.7 0a30.6 30.6 0 0 1-10.8-12.7l-1.5 1.2-2.7 2c-1.4.8-2.8 1.8-3.5 3.4-9.7 2.6-17.6 10.9-28.1 10-6.4 0-11.6-4.7-14.5-10-.8-2.5-1.4-5-2-7.7v-51l-1.6 4.3c-2.6 5.2-2 11-2.2 16.7-.2 3.6-.2 7.3-.6 10.9a21 21 0 0 1-6.2 12c-7.4 5-14.6 10.7-22.2 15.6l-5.7 1c-4.6-.6-9.6-1.3-13.1-4.6l-.8-.9-3.8-4.7c-2.7.9-5.3 2-7.8 3.3l-.3.2c-3.1 1-6 2.5-9 4-6 2.3-13.3 3.2-19.3 0-2.4-1-5-3.8-7.4-1.2 1.8 8.9 1.5 18 1 27-3.4 7.2-2.4 15.1-2.6 22.7-.8 2.8-1.3 5.7-2.4 8.3-2.3 4.2-6.1 7.2-9.4 10.5-2.8 2.8-5.4 6-9 8-9 3.8-20 3.4-28.2-2h-1.6c-6 .4-12.5-1-16.4-5.8-1.4-2-3.5-1.3-5.4-.8-6.1 1-12.4-.5-18.4.7-3 1.9-5 4.9-7.7 7.1-4.5 3.9-8 9.7-14.4 10.5-4 1.4-8.3 0-12.1-1.6-4-3.5-9-7.3-9-13.3l-.2-1.7c-1.3-.4-2.2.6-2.6 1.7a20.4 20.4 0 0 1-13 3.8c-5.4 0-9.9-3-14.3-5.4l-1.2-.8-.6.6c-3.4 2.8-6.3 7-11 7.8-7.7 1.7-16 4.4-24 1.8-3-1.5-5.6-3.9-8.1-6l-2-2.6-3 1.5c-4.3 1.7-8.2 4.6-12.1 7.2a19 19 0 0 1-20.8-3c-.8-1.3-1.4-1.3-2 0-5.8 1.2-11.3 3.6-17 4.9-3.6-1.4-7.6-1.7-10.7-4.1a27 27 0 0 1-5.8-7c-2.6-7.8-5-15.6-7.1-23.5-1.3-5.6-2.7-11.2-5-16.5v-.3c-1.3-4.2-2-8.4-3.2-12.6-2.2-4.5-3.1-9.6-2.7-14.6l.4-3.3.5-1.6 1.3-2.1c-2 1.4-4.2 2.3-6.6 2.7a18.5 18.5 0 0 1-17.7-5c-2.2-2.3-3.5-5.2-5.7-7.3-1.8-.3-3 1.4-4.3 2.2l-13 10.8c-4 3.5-9.8 3.5-15 3-5-1.3-9.6-5-11.8-9.9L149 635c-.5-1.3-1.2-1.4-2-.1-7.3 4-13.2 11.4-22 12-3.8-.2-8.2-1-11-3.9-1.8-1.8-3.8-3.5-5.3-5.6-1-2.7-1.5-5.5-2.1-8.3-.2-3-.4-5.9-.4-8.8l-3.1 1.4c-10.1 6.3-20 13-30.2 19.3-3 1.8-5.7 4.8-9.4 5-4.4.5-9 .2-13-1.6-7-4.5-13.5-9.8-20.3-14.6-6.6-5-13.7-9.5-20-15-4.8-4-5.1-10.9-5.7-16.7v-65c0-4 1.2-8 1.7-12v-.6c6.5-7.6 14.8-13.4 22.2-20 7.2-6.2 14.4-12.4 22-18.2h.3c4.8-1 9.8-1 14.7 0l.4.1c5.7 3.7 10.3 9 16.1 12.3 2.3-.6 4.1-2.4 6.2-3.6a17 17 0 0 1 21.3 2.7c3.3 2.8 4.2 7.2 5.6 11.2-.2 6.7.4 13.4-.1 20.1 5.8-2.1 10.2-6.8 15.5-10 2-1.4 4.6-1.3 7-1.4-1.2-2.7-.8-5.7-1-8.6v-97c0-4.5-.1-9 1-13.4l.5-1c4.5-9.7 13-17.1 22.7-21.6 1-.6 2.3-.8 3.5-.9 1 0 2-.2 2.9-.8 4-1 8 0 12-.2 5-.2 10.2 0 15.2 0h1c-1.4-4.6-4.8-8.4-5.6-13.2-.8-4-.4-8-.5-11.9 0-17.6.1-35.3-.1-53h-9.7c-1-14.2.4-28.5-.5-42.8-17-.4-33.9-.3-50.8 0-14.7-.8-29.4.3-44-.5.4-13 0-26 .2-39 .2-9.3-.2-18.6.1-27.9l.4-.6c1.2-1.1.7-2.9 0-4.2l-.5-1.9v-99c0-2.4-.2-4.8.2-7 .5-1.3.9-2.5.9-3.9 0-1.3.4-2.6 1-3.8a40.8 40.8 0 0 1 17.1-18.3l1.6-.7a54 54 0 0 1 19-3.8h137c9.6.3 19.5-.9 28.9 2 5.4.9 9.8 4.2 14.1 7.4 4.3-1.4 7.4-4.9 11.5-6.7 1.1-.5 2.4-.8 3.6-1 5.3-.9 10.5-1.7 15.9-1.6h47c5 0 9.8 1.3 14.7 2.3l.9-1.9c.5-1.4 2.3-.6 3.4-.9 23.8.2 47.7-.2 71.5.2 6.8.7 13.6-.8 20.3.4 1.9.8 4 .9 6 1.2 4.4 1.7 8.5 4 12.3 6.7 1.4 1.1 3.2.7 4.4-.4 3.4-2.5 7.1-4.4 11-6 5.2-.7 10.3-1.7 15.5-1.7 3.7 0 7.5.5 11.2-.4V5c25.3-.1 50.6.2 76 0l-.2-1-58.6-.1h-.4m.2 17.9v33.6c-11.2.2-22.3 0-33.4.2-9 .8-18.8 7.5-18.5 17.3v100.2c-.2 4 1.7 8 4.8 10.7 4.4 3.7 10 6.4 15.9 6.3h72.9V21.8h-41.7M101.3 73v100c0 4.1 1.8 8.1 4.9 10.8 4.3 3.7 10 6.4 15.8 6.3h31.2l.1 8.4c-17.3.2-34.6 0-51.8 0-.4 11.1 0 22.3-.2 33.4l.7.2h71c7.4.3 14.7-3.1 19.3-8.8 2.3-2.9 3-6.7 2.8-10.3V101c-.2-15.3.4-30.5-.3-45.6-25 .2-49.8 0-74.7.1-9 .8-19 7.6-18.8 17.5m104.2-17.5.1 134.7h41.8c.1-16.9-.2-33.7.1-50.5h10v70.4c0 3.9-.6 8.2 1.7 11.7a24 24 0 0 0 20.8 10.4l30.3-.1c.3 45.2.1 90.4.1 135.6 14 0 28 .2 42-.2-.2-33.5 0-67-.1-100.6 3.3-.2 6.7-.1 10-.1v101H404c.4-39 0-77.9.2-116.8.5-9.8-9.2-16.9-18.1-17.8-11.3-.3-22.6.2-33.8-.2v-33.2l-1.2-1.1c-17.3-.2-34.6 0-51.8 0V131c.1-5-5.1-7.2-9.1-8.4 4-.6 8.8-3 9-7.6V72.1c-.3-9.6-10.3-16-19.2-16.6h-74.5M310 71c-.3 8.8 0 17.6-.1 26.4h41.8v-8l10.1-.1v16.6H330a23 23 0 0 0-14.2 5.9c-3.4 2.7-6.1 6.7-6 11.2v50c-.2 4 1.6 8 4.7 10.6 4.5 4 10.4 6.7 16.6 6.6h72.3V72.9c.3-10.1-10.2-17-19.4-17.4H329c-8.6.5-18 6.4-19.2 15.5m104.3-15.6c-.2 45 0 89.8-.1 134.7h41.7V89.3h10L466 190c14 0 27.9.2 41.8 0V71.8c-.4-9.4-10.1-15.6-18.8-16.4a52.4 52.4 0 0 0-33 8.2l-.1-8.3h-41.6M211.8 207.3l.9.6c-.3 2.5-.2 5-.1 7.5 9.1.1 18.3.2 27.4 0V207c-9.4.1-18.8-.3-28.2.3m-5.6 25.8v8.4h-10.1c-.4 11.1-.1 22.4-.2 33.6h10.3V351c0 3.8 2 7.5 4.7 10 4.4 4 10.1 6.8 16 6.7H279c6 .1 11.8-2.6 16.3-6.5 2.8-2.6 4.7-6.3 4.6-10.2l-.1-67.6c-13.8.2-27.6 0-41.4 0v50.8H248v-59l51.7-.1v-33.5c-17.1-.2-34.4-.1-51.6 0l-.1-8.5h-41.9m210.5 9.7c-2.4 3.6-2 8.1-2 12.3V346c0 3.6-.4 7.6 1.4 11 2.4 4.6 7.2 7.5 12 9.4 4.4 1.8 9.2 1.3 14 1.3h45c5.8.2 11.4-2.2 15.8-5.8 3.3-2.6 5.5-6.6 5.5-10.9v-25.3l-41.6.1c-.6 2.8-.1 5.6-.2 8.4h-10c-.1-5.6 0-11.2-.2-16.8 17.3-.4 34.6 0 52-.1V250c-.1-9.5-9.7-16-18.4-16.8-18-.2-36 0-54 0-7.6-.4-15.1 3.4-19.3 9.6M519 251c0 38.8-.2 77.8.1 116.7h41.7v-59h52c-.1-11.3-.2-22.5 0-33.7-17.4-.1-34.7.2-52-.1v-8.2h52c-.1-11.2-.2-22.4 0-33.6-24.6-.2-49.2 0-73.8 0-9.6 0-20.5 7.4-20 17.9m111-18-.1 8.5h-10.1V275h10.2v74c0 3.4.6 7.1 2.9 9.9a24 24 0 0 0 19.3 8.7H703c5.7 0 11.2-2.5 15.5-6 3.1-2.7 5.2-6.6 5.1-10.7v-67.5h-41.4v50.7h-10.4v-59c17.3-.2 34.6.2 51.9-.3-.2-11.1.1-22.3-.2-33.5-17.1.2-34.3 0-51.4.2-.4-2.8-.3-5.7-.3-8.5H630m-476.3 169c-.2 8.9 0 17.8 0 26.8 13.9-.2 27.8.1 41.7-.1v-8.1h10v16.7h-31.5c-5.6 0-10.9 2.7-15 6.4-3 2.5-5.4 6.2-5.3 10.2v52c.8 9 10.5 14.4 18.7 15.5 24.9.3 49.8 0 74.7.2.5-11.2 0-22.5.2-33.7v-85c-.8-9.7-11.1-15.9-20.1-16l-53-.1c-9 .1-18.9 5.8-20.4 15.1m104-15.1v117a14 14 0 0 0 4 10.4 24.8 24.8 0 0 0 17.3 7.3h51c6.3.2 12.3-2.5 17-6.6a14 14 0 0 0 4.5-11V387h-41.8l-.1 100.8c-3 1.1-6.7.1-10 .4v-101c-13.9-.5-27.9 0-41.8-.2m110.8.3v8.1h-10.3v33.5c3.5 0 7 0 10.4.2v75c-.2 3.6 1.1 7.1 3.6 9.7a24 24 0 0 0 17.7 7.8h52c4.4 0 8.8-1.6 12.5-4 4.3-2.6 8-7.2 7.8-12.5l.1-67.5a1055 1055 0 0 0-41.7 0c.2 16.8 0 33.7 0 50.5l-10.1.1v-59.2h51.7l.1-33.4c-17.3-.4-34.6 0-51.8-.2v-8.1c-6.5-.7-13-.2-19.6-.3-7.5.2-15-.5-22.4.3m119 .5c-7.2 2.2-14.7 8.1-14.5 16.3v100c-.3 10 10 16.8 19 17.4h57c10 .3 17-10 17.5-19.3.3-32.4 0-64.7.1-97 .7-10.5-10.1-17.9-19.7-18.2h-51a31 31 0 0 0-8.4.8m210.2 100.1c-3.7 4-7.8 7.6-11.4 11.6-2 2-2 5-2 7.5v29c-4-10.6-7-21.7-11-32.5-1.2-3.4-5.2-4.3-8.4-4.1h-37c-4.4 0-7.9 4.7-6.3 8.9 2.5 7.7 5.4 15.2 8 22.8.9 2.8 3.6 4 6.2 4.4.4 35.9 0 71.8.2 107.7.1 2.5.8 5.4 3 6.8 2.6 1.6 5.8.9 8.3-.4 5.4-2.8 10.9-5.3 16.3-8 2.5-1.2 4-3.8 4-6.5.5-11.7-.3-23.4.5-35.1 7 14.1 13.4 28.6 20.1 42.8 1 2.1 2.3 4.4 4.7 5 2.7 1.2 5.7 0 7.6-2.1l16-16c2-2 2.2-5 2.2-7.6V499c.2-4.3-3.4-7-6-9.8-2.3-2.1-4.4-5-7.8-5.1-3-.3-5.3 1.7-7.2 3.7m-648.7 9.4-31 26.1c-2.2 1.8-2.4 5-2.4 7.6v70c0 2.8.8 5.7 3.2 7.2l32.3 23.7c2.3 1.6 4.7 3.8 7.7 3.7 2.7-.2 4.9-2 7.1-3.4l33-21.2a7.3 7.3 0 0 0 3.5-5.9c.3-6.3-.1-12.7.2-19 .8-1.6 2.3-2.8 3.5-4 4 2.6 7.8 5.4 11.6 8.2V626c0 2.5 0 5.4 1.9 7.3 2.3 2.6 6.6 2.7 9.2.5 4.7-3.3 9.4-6.5 14-9.9 2.3-1.5 2.7-4.4 2.8-6.9 0-7.3-.2-14.6 0-22h14.4c.3 13 0 26.1.2 39.1-.1 3.2 2.1 6.6 5.5 6.8 3.6.7 6.3-2.2 8.8-4.2 3.4-3 7-5.7 10.3-8.7 2-1.7 2.3-4.5 2.4-7v-28.5c3.7-2 7.6-3.8 11.2-6 3.9-2.3 3.8-8.9 0-11.1-3.6-2.7-7.4-5.2-11-7.8V535c0-3-1.2-6.6-4.5-7.5-3.3-1.2-6.5.8-9.4 2-4 1.8-8 3.3-11.8 5.3-2.9 1.5-3.3 5.2-3.3 8.2.1 7 0 13.9.2 20.9-4.2.5-8.4.3-12.6.1v-30c0-2.5-.2-5.3-1.7-7.4-2.2-2.4-6-2.7-8.8-1-5 3.2-9.7 7-15 10-2.7 1.4-3 4.8-3 7.5v23.3a251 251 0 0 0-10.6 5c-4.3-2.3-9.3-1.4-14-1.6-3.5.1-7.2-.4-10.6.8-3.1 2-5.5 5-8.2 7.7-3.2 2.8-2.1 7.6-2.5 11.4-3 1.6-5.7 3.6-8.7 5.1-3.6-2.2-7.6-4.5-10.1-7.8-.3-14 0-28-.2-42 .2-1.5-.4-3.4.8-4.6 2.4-2.3 4.5-5.3 7.5-7 3 2 6 4.1 8.8 6.5.8 4.9-.3 9.9.7 14.7 1.4 3 4.2 5 6.5 7.3 2.3 2.5 6.5 2.4 9.2.3 4.9-3.4 10-6.6 14.8-10.1 2.5-1.9 2.7-5.3 2.7-8.2-.1-12.5.1-25.1-.1-37.6 0-4.4-4.4-8-8.6-6.5-5 2.2-8.3 6.8-13 9.2-5.2-3.5-9.6-7.7-14.5-11.5-3-2.2-5.5-5.6-9.5-5.7-3.7.1-6.1 3.3-8.9 5.4M284 529a6.4 6.4 0 0 0-4.7 5.2c-.8 7.2.4 14.7-.7 22-1.3-2.8-2.7-5.4-3.7-8.2-1.1-4.4-.7-9.1-2.6-13.3-2.7-4-8.2-2.9-12.3-3-6.8.4-14-1.3-20.4 1.8-2.7 1.2-5.9 2-7.8 4.4-1.6 2.8-1.3 6.9 1.4 9l10.6 8.3c.3 26.2 0 52.5.2 78.8-.2 2.9 1.2 6 4.1 7.1 4.3 1.7 8-1.7 11.7-3.4 3.3-2 8-3.4 8.5-7.8.6-8-.1-16 .3-24 5 9.4 9 19.3 13.9 28.7 1.7 3.3 6.2 4 9.3 2 3-2.5 5.1-6 7.8-9 2.7-4 7.3-7.3 6.8-12.6v-78c0-3 .4-6-.4-9-.9-3.3-5-5-8-3.9-4.8 1.4-9.4 3.2-14 4.9m199.2-3.9c-11.1 7.6-22.4 15-33.5 22.5-2.6 1.5-3.2 4.6-3.1 7.4v56c0 2.5.2 5.4 2.2 7.2a3967 3967 0 0 0 21.5 21.6c2.6 2.7 7 2.8 9.9.5l29.6-20.5c2.3-1.4 3.2-4.2 3.3-6.8.3-20.6-.3-41.3.3-62 7 28.7 14.3 57.3 21.5 86 .6 3.5 4.6 5.8 8 4.8 4.5-1.4 8.7-3.8 13.1-5.5 3.4-1.8 8.2-2.5 9.5-6.7 1.5-6.8 2.9-13.6 4.1-20.4 3.5 9.8 6 20 9.3 29.9 1.7 3.4 6.4 4.3 9.5 2.3 4.8-3.2 9.3-6.7 14-10 2.5-1.8 5.6-3.5 6-6.9 1.2-8.1.9-16.4 2.2-24.5l17-63c1.8-4.6-2.8-9.7-7.6-8.5l-20.9 5.4a6 6 0 0 0-5 5c-1.2 7-1.8 14-2.6 21-2.2-6.2-3.8-12.5-5.7-18.8-1-3.2-1.4-7.4-4.8-9-3.2-1.8-6.5-4-10.2-4.6-3.8-.1-6.7 2.7-9.8 4.5-2.7 1.8-6.4 3-7.5 6.4-2 8.4-1.6 17.2-3.8 25.5-3.1-11-6.5-22-10-32.9-1.1-3.8-6-5.3-9.4-3.6-5.5 2.5-11 4.8-16.3 7.6-3.6 2-3.5 6.5-2.2 9.9-6.7-6.2-13-12.9-19.5-19.2a7 7 0 0 0-9.1-.6m-132.4.6c-5.8 2.5-11.5 5.2-17.1 8-2.1.9-3.7 2.9-4 5.2-1 9.6-2 19.2-3.3 28.7-2 2-5.4 2.2-7.2 4.6-1.9 2.6-3.2 5.5-4.8 8.3-1.4 2.4-2.5 5.6-1 8.3.9 2.2 3.4 2.9 5.4 3.7L308.2 624c-.7 2.6-2 5.3-1 8 .9 3.1 4.7 4.8 7.8 4 6-1.5 12-2.4 18-4 2.6-.7 4-3.4 4.4-5.9 2.3-10 4.8-20.1 7-30.2.5-1.1.3-2.8 1.5-3.4 1.6 0 3.1.4 4.7.7 1.6 7.3 3.5 14.6 5.3 22 .9 4 5.2 5.4 8.1 7.7 3.5 2 6.6 5.6 11 5.6 4 0 5.8-4 7.6-7 1.8-3.4 5-6.9 4-11-1.4-3.9-5.4-6-7.1-9.5-.6-2.4-2-5-1-7.6 1.3-2.5 1.8-5.4 2.2-8.2.5-3.6 2.1-7.6 0-11-1.7-2.9-5.5-3-8.5-3.7-4.2-13.7-8-27.6-12.1-41.4-1-3.9-6-5-9.3-3.4m-136.4 1.8c-4 1.8-6.1 5.9-9 8.8a11.3 11.3 0 0 0-3.5 8.7v78c-.1 4.8 3.6 8.4 6.2 12 2.3 3.1 7.6 3.2 10 .2 2.5-3 4.4-6.3 6.7-9.4 2-3 4.8-6 4.6-9.8v-74c0-2.8-.3-6-2.7-7.8-3.4-3-7-8.5-12.3-6.7M369 536c-1.3 4.5 2.3 8 3.7 12 2 3.8 3 9.2 7.7 10.3 5 .6 10 .2 15 .2.5 24.8 0 49.7.3 74.5-.4 5.6 7 8.5 11 4.9 4.8-4.6 9.4-9.3 14-14 2-1.8 2.3-4.5 2.3-7l.1-58.6c5.6-.1 11.3.5 16.8-.3 4.8-1 5-6.7 6.4-10.5.8-4 3.3-8 2.1-12.2-1.3-3.4-5.3-4.4-8.6-4.2h-63c-3.2 0-7 1.4-7.8 5M64.3 566l.1 5.8c1-1.2 2-2.3 2.8-3.5l-2.9-2.3m184.8 78.4c-4.1 1.3-8.2 2.8-12.1 4.5-3.4 1.5-4.6 5.9-3.4 9.2l16.8 55.8c.9 3.7 5 6.1 8.7 4.8a187 187 0 0 0 13.7-5.1c3.7-1.8 3.9-6.3 4.8-9.7 3 4 3 9.4 5.8 13.5 3.5 3.6 8.7 1.5 12-1 4-2.9 9-4.3 11.7-8.5 1.3-5.6.6-11.5 2-17 4-12.4 8.2-24.7 12-37 1.8-4.6-2.4-9.7-7.2-8.7-5.6 1-11.3 2.1-16.8 3.7-4.2 1.4-4.1 6.3-4.6 10-1.4-3.2-2-6.8-3.9-9.6-2.2-2.4-5.6-3.5-8.6-4.5-3.4-1.2-6.7 1-9.6 2.5-2.2 1.3-5 2.2-6 4.7-1 3-1.3 6-1.8 9-2.7-4.3-3.3-9.5-5.8-14-1.5-2.6-5-3.5-7.7-2.6m97 3.8c-2.5 1-5.9 1.9-6.5 5-1.4 6-1.6 12.3-2.8 18.3-5.1 1.3-7.5 6.2-9.8 10.4-1.4 3.1 0 6.7 2.9 8.5-2.1 6.8-5.4 13.3-7.5 20-1 3.4 1 7.4 4.5 8.1 4 .7 8-1 12-1.5 3.3-.6 7.3-1 8.6-4.5 2.3-7.1 3.9-14.5 6.3-21.5 4 4.3 3 11.2 6.4 15.8 2.8 2.3 6.2 3.7 9.3 5.7 3 2 7.7 2 10-1.2 2.3-3.5 6.5-7.1 5.1-11.9-.6-3.6-5.6-4.7-5.8-8.5.8-4.6 3.4-9.3 2-13.9-1.1-3.1-4.6-3.8-7.4-4.4L365 648a6.6 6.6 0 0 0-8-4c-3.7 1.1-7.2 2.9-10.8 4.2m177.2-3.9c-.3 1-.1 2 .3 3 .5 1.1 3.4.8 2.3-.7-.8-.7-1.4-2.3-2.6-2.3m-135 4.9a7 7 0 0 0-.2 9.6c3.4 4 7.4 7.3 10.9 11.2.6 1.5.3 3.3.4 5v42c-.1 3 1.1 6.7 4.4 7.7 3.7 1.6 7-1.2 9.3-3.7 3.6-4 8.1-7.3 11-11.9 1.7-5.6 0-11.6 1.2-17.3 1.2 3.7 2.2 7.5 3.8 11 1 2.7 4 3.8 6.7 3.8 4.5 0 8.9.2 13.3-.1 4-.2 7.3-4.7 5.8-8.6-.7-3.2-4.1-4-6.5-5.5-1.7-2.5-2.2-5.6-3-8.4 3.2-3.7 8.7-6.6 8.7-12.1 0-4 .8-8.8-2.3-12l-10.4-10.5c-2-2-4.9-2.2-7.5-2.2h-38c-2.6 0-5.7 0-7.7 2m92.2-.7c-4.3 2-8.3 4.4-12.5 6.4-2.9 1.2-5.1 3.8-5.2 7 0 5.7-.8 11.6 1 17.1 0 2-1.5 3.8-1.4 6 0 7.1-.2 14.4 0 21.6 0 3.8 3.6 7.3 7.6 6.6 2.3-.1 3.7-2.4 5.8-3.1 3.3 2.6 5.6 7.2 10.3 7.2 3.7 0 7.8.7 11.1-1.1 4-3.3 7.5-7.4 11.3-11a9.9 9.9 0 0 0 3.5-7.2l-.2-17.3c.9-1.9 2.8-3.4 2.8-5.7.2-5.7-.2-11.4 0-17.2.1-3.1-1.1-7-4.6-7.9-2.6-1.1-5.2.9-7.8.6-2.3-1.1-4.5-2.7-7.2-2.5-4.8.1-9.8-.5-14.5.5Z"/><path d="M143.2 89.3h9.9c.3 22.4.3 45 0 67.4h-9.9V89.3ZM247.4 89.3h10.1v16.5c-3.3.2-6.7.2-10.1 0V89.4ZM560.1 89.3h10c.2 20.2 0 40.5.1 60.7 0 2.3 0 4.5-.3 6.7h-9.8V89.3ZM351.6 139.7c3.4 0 6.8 0 10.2.2-.2 5.5 0 11.2-.1 16.7-3.4 0-6.8.2-10.2-.1v-16.8ZM456.6 266.8c3.3 0 6.7-.2 10 .2v16.5h-10v-16.7ZM514.9 420.7h10v67h-10c-.2-22.3 0-44.7 0-67ZM195.3 471.2h10c.2 5.6.1 11.3 0 17-3.3 0-6.6 0-10-.2v-16.8ZM712.4 498.1c.2 42.3 0 84.6 0 126.9a1949 1949 0 0 0-.1-37.8c0-6 .2-12 0-18V555c0-6.2.2-12.5 0-18.7l.1-38.2ZM642.4 529.2c.4 8 0 15.8.2 23.7V586c0 6.7-.2 13.4 0 20.1v34c-.1 1.4.3 2.8.7 4.3v.3l-.8-.2c-.2-38.4 0-76.9 0-115.3ZM476.7 564c1.7-1.2 3.8-3.8 6-3 .7 4.6.2 9.3.4 14-.2 8.6.2 17.2-.3 25.8l-4.4 2.2-1.8-2.1c0-12.3-.2-24.6 0-36.9Z"/><path fill="#3b3b3b" opacity=".8" d="M553.1 4.2c5.8-.2 11.5 0 17.3-.4 19.5.3 39 0 58.6.1l.2 1.1c-25.4.2-50.7-.1-76 0v-.8Z"/><g fill="#fff"><path d="M570.2 21.8h41.7V190h-73c-5.8.1-11.4-2.6-15.8-6.3-3-2.6-5-6.6-4.8-10.7V72.9c-.3-9.8 9.6-16.5 18.5-17.3 11.1-.3 22.3 0 33.4-.2V21.8m-10 67.5c-.2 22.4-.2 45 0 67.4h9.7c.4-2.2.3-4.4.3-6.7-.1-20.2.1-40.5-.1-60.7h-10ZM472.5 38.4c4.5-.5 9 .1 13.5-.1 4.3 0 8.7 0 12.8 1.7-2-.3-4.1-.4-6-1.2-6.7-1.2-13.6.3-20.3-.4ZM101.3 73c-.2-9.9 9.8-16.7 18.8-17.5 24.9-.2 49.8.1 74.7-.1.7 15.1 0 30.3.3 45.5v112c.1 3.7-.5 7.5-2.8 10.4-4.6 5.7-12 9-19.2 8.9L102 232l-.7-.2c.2-11.1-.2-22.3.2-33.4 17.2 0 34.5.2 51.8 0V190H122c-5.9 0-11.5-2.6-15.8-6.3-3.1-2.7-5-6.7-4.9-10.7V73m41.9 16.3v67.4h9.9c.3-22.5.3-45 0-67.5h-9.9ZM205.5 55.5H280c8.9.5 18.9 7 19.2 16.6V115c-.2 4.6-5 7-9 7.6 4 1.2 9.2 3.4 9 8.4v67.6h51.9l1.2 1.2V233c11.2.4 22.5-.1 33.8.2 9 .9 18.6 8 18 17.8 0 39 .3 77.8 0 116.7h-41.8v-101c-3.3 0-6.7 0-10 .3v100.5c-13.9.4-28 .2-41.9.2 0-45.2.2-90.4 0-135.6H280a24 24 0 0 1-20.8-10.3c-2.3-3.5-1.7-7.8-1.7-11.8v-70.3h-10c-.3 16.8 0 33.6-.1 50.4h-41.8V55.6m41.8 33.8v16.6l10.2-.1c-.2-5.5-.1-11 0-16.5h-10.2Z"/><path d="M309.9 71c1.2-9.1 10.6-15 19.2-15.5H384c9.2.4 19.7 7.3 19.5 17.4v117.3H331c-6.2.1-12.1-2.6-16.6-6.6-3-2.6-4.9-6.6-4.7-10.7v-50c-.1-4.4 2.6-8.4 6-11.1 4-3.3 9-5.8 14.2-5.9h31.8l-.1-16.6h-10.2v8.2h-41.7c0-8.9-.2-17.7 0-26.5m41.8 68.7-.1 16.8c3.4.3 6.8.1 10.2.1V140c-3.3-.3-6.7-.2-10.1-.2ZM414.2 55.4h41.6v8.3c9.5-7 21.7-8.5 33.1-8.2 8.7.8 18.4 7 18.8 16.4V190c-14 .3-27.9 0-41.8.1V89.3h-10c-.2 33.6 0 67.2 0 100.8H414V55.4ZM84.6 177c.8 1.3 1.3 3 0 4.3a3.7 3.7 0 0 1 0-4.3ZM206.2 233.2c14-.1 28-.1 41.9 0v8.4c17.3-.1 34.6-.2 51.8 0V275H248v59l10.2.1v-50.7h41.5c.2 22.4 0 45 0 67.5.2 3.9-1.7 7.6-4.5 10.2-4.5 4-10.3 6.6-16.3 6.5h-52c-6 0-11.7-2.7-16-6.6a13.6 13.6 0 0 1-4.7-10.1V275h-10.4c0-11.2-.3-22.5.2-33.7h10.2v-8.3ZM416.7 242.8c4.2-6.3 11.7-10 19.2-9.7l54.1.1c8.7.8 18.3 7.3 18.4 16.8v67.3c-17.4.1-34.7-.3-52 .1.2 5.6 0 11.2.1 16.8h10c.2-2.8-.3-5.6.3-8.4 13.8-.2 27.7 0 41.6 0V351c0 4.3-2.2 8.3-5.5 10.9-4.4 3.6-10 6-15.8 5.8h-45c-4.8 0-9.6.5-14-1.3a21.9 21.9 0 0 1-12-9.4c-1.8-3.4-1.4-7.4-1.4-11v-91c0-4-.4-8.6 2-12.2m39.9 24v16.7h10V267c-3.3-.4-6.7-.2-10-.2ZM518.9 251c-.5-10.4 10.4-17.9 20-17.9h73.7v33.6h-51.9v8.3c17.3.3 34.6 0 52 .1-.2 11.2-.1 22.4 0 33.6h-52v59H519c-.3-38.8 0-77.8-.1-116.6ZM630 233.1h41.8c0 2.8-.1 5.7.3 8.5 17.1-.3 34.3 0 51.4-.2.3 11.2 0 22.4.2 33.5-17.3.5-34.6 0-51.9.2v59.1h10.3l.1-50.8h41.4V351c.1 4.1-2 8-5 10.6a24.7 24.7 0 0 1-15.6 6.1h-51a24 24 0 0 1-19.2-8.7c-2.3-2.8-3-6.5-2.9-10v-73.9h-10.2v-33.6h10c.2-2.7.2-5.6.3-8.4ZM599.5 385.8c.2 2.6.1 5.1.1 7.7l-2.4.2-.2-1.2 2.4.4v-7ZM153.7 402c1.5-9.3 11.5-15 20.3-15.1h53c9.1.2 19.4 6.4 20.2 16.2v85c-.1 11.1.3 22.4-.2 33.6-25-.2-49.8.1-74.7-.2-8.2-1-17.9-6.4-18.7-15.5v-52c-.1-4 2.3-7.7 5.3-10.2 4.1-3.7 9.4-6.4 15-6.4h31.5v-16.7h-10v8c-13.9.3-27.8 0-41.7.2 0-9-.2-18 0-26.9m41.6 69.2V488c3.4.2 6.7.2 10 .1.1-5.6.2-11.3 0-17l-10 .1ZM257.8 386.9c14 .1 28-.3 41.9.2-.2 33.7-.1 67.4 0 101 3.2-.3 7 .7 9.9-.4.2-33.6 0-67.2.1-100.8h41.7l.1 117.1a14 14 0 0 1-4.6 11c-4.6 4-10.6 6.8-16.8 6.6H279c-6.5.1-12.8-2.8-17.4-7.3a14 14 0 0 1-3.9-10.3V386.9ZM368.6 387.2c7.4-.8 15-.1 22.4-.3 6.5.1 13.1-.4 19.6.3v8.1c17.2.1 34.5-.2 51.8.2-.2 11.1 0 22.3 0 33.4h-51.8V488h10.2v-50.6c13.8-.3 27.7-.3 41.6 0-.2 22.5 0 45 0 67.5 0 5.3-3.6 9.9-8 12.5-3.6 2.4-8 4-12.4 4h-52a24 24 0 0 1-17.7-7.8 13.5 13.5 0 0 1-3.7-9.7l.1-75c-3.4-.2-7-.1-10.4-.2v-33.5h10.3v-8ZM487.6 387.7a31 31 0 0 1 8.4-.8h51c9.6.4 20.4 7.7 19.7 18.2 0 32.3.1 64.6-.1 97-.5 9.2-7.5 19.6-17.6 19.3h-57c-9-.6-19.2-7.5-18.9-17.4V404c-.2-8.2 7.3-14.1 14.5-16.3m27.3 33c0 22.3-.2 44.7 0 67h10v-67h-10ZM593.2 392.8c1-.5 2-.7 3.1-.4.7 1.6-2.2 1.7-3 1l-.1-.6ZM137 394.5h.5c-1.2 4.4-1.1 9-1.1 13.4.1 32.4 0 64.7 0 97.1.2 2.9-.2 5.9 1 8.6-2.4.1-5 0-7 1.5-5.3 3-9.7 7.8-15.5 10 7.5-3.2 12.8-10.8 21-12.2l.4-.7c-.2-32.4 0-64.8 0-97.2 0-6.9-.5-13.8.6-20.5ZM578.2 522.5c0-.8.2-1.5.3-2.3l.5 2c2.7.2 5.4 0 8 .3h-8.8ZM64.3 566.1l2.9 2.3-2.8 3.5V566ZM623 597.3l1.5-4.3v51c-.6-14 0-28-.2-42-.3-1.5.6-3.9-1.4-4.7ZM620 624.9c.5-3.6.5-7.3.7-10.9 0 3.6.5 7.4-.6 10.9ZM103.1 621.6l3-1.4.5 8.8c-.5-2.5 0-5.2-1.1-7.5H103ZM523.4 644.4c1.2 0 1.8 1.6 2.6 2.3 1 1.5-1.8 1.8-2.3.7-.5-1-.6-2-.3-3ZM218 647.8c2.5-.4 4.7-1.3 6.7-2.7l-1.3 2a63 63 0 0 0-5.3.7ZM675.3 646.3l1.5-1.2 2.6 4.5c-.9-1.6-2.5-2.5-4-3.3ZM357 719l.6-.5 1.2.8-1.5.6-.3-.8ZM386.1 720.9c.4-1 1.3-2 2.6-1.7l.2 1.8-.8.6-2-.7ZM309 721.6l3-1.5a109.5 109.5 0 0 1 .1.5l-3.1 1Z"/></g><path fill="#0d0d0d" opacity=".7" d="M110 40c2-.6 4-1.5 6-2h167c6.5 1.7 13.7 2.4 19 7 1 .5 1.6 2 2.8 1.8 3.5-2 6.3-5.8 10.7-5.5-4 1.8-7.3 5.3-11.5 6.7-4.3-3.2-8.7-6.5-14.1-7.3-9.4-3-19.3-1.8-29-2H124a54 54 0 0 0-18.9 3.7c.8-2.2 3.3-1.9 5-2.5Z"/><path fill="#0f0f0f" opacity=".7" d="M319 39.7c2.7-.6 5.3-1.5 8-1.7 16 .2 32 0 48 .1 6.8.2 13.9-1 20.4 1.8l2.2-.8-1 2c-4.8-1-9.6-2.4-14.6-2.4h-47c-5.4-.1-10.6.7-15.9 1.5v-.5Z"/><path fill="#101010" opacity=".7" d="M526.5 40.3c2.5-1.7 5.7-1.9 8.6-2.3 6 .2 12 0 18 .2-3.6.9-7.4.4-11 .4-5.3 0-10.4 1-15.6 1.7Z"/><path fill="#111" opacity=".2" d="M96.3 46.3c2-1.7 4.3-3.5 7.1-3.1a40.8 40.8 0 0 0-17.2 18.3c0-6.5 6-11 10.1-15.2Z"/><path fill="#232323" opacity=".5" d="M84.4 69c-1.2-.9-1-4 .9-3.8 0 1.3-.4 2.6-.9 3.8Z"/><path fill="#565553" opacity=".8" d="m525.3 204.9 7 1.9c-1.8.6-3.6 0-5.4-.5l-3.1 2c-51.2-.4-102.5-.1-153.7-.2 0 2.7 0 5.5-.5 8.1-.4-3-.4-6-.3-9 51.6-.5 103.1 0 154.7-.3l1.3-2Z"/><path fill="#706f6d" d="M211.8 207.3c9.4-.6 18.8-.2 28.2-.3v1c-9.1 0-18.2.2-27.3-.1l-1-.6Z"/><path fill="#1c1c1c" opacity=".1" d="M82.9 214c.3-1.4-.6-3.7 1.3-4.4-.2 13 .2 26-.2 39.1l-.9.6c-.4-11.7 0-23.5-.2-35.3Z"/><path fill="#202020" opacity=".3" d="M423 216.4c5.4-2 11.3-.7 17-1 17-.2 34 .3 51-.1 8.6-1 16.3 3.9 23 8.5 3-1.9 5.6-5.8 9.5-4.7-3.3 1.8-6.1 4.3-9.4 6-2.7-.5-4.6-2.8-7-4A35.3 35.3 0 0 0 489 216h-54c-6.4-.1-12.9 1.5-18.4 4.7-2.7 1.2-4.8 3.9-7.7 4.4-3.3-1.7-6-4.3-9.4-6 3.9-1.2 6.4 3 9.4 4.6 4.6-2.7 8.8-6 14-7.3Z"/><path fill="#191919" opacity=".2" d="M523.8 219c1-3 4.6-3 7.2-3.6 5.7-.4 11.4 0 17 0l1.3.7c-8.6-.3-17.5-.5-25.5 2.9Z"/><path fill="#272727" opacity=".4" d="M388.5 216c3.7-.4 8.7-.5 10.9 3-3.6-1.1-7.2-2.1-10.9-3Z"/><path fill="#141413" opacity=".8" d="M689 224c16.6.3 33.3-.2 50 .2l1.6.7c-17.2 0-34.3.2-51.5 0l-.1-1Z"/><path fill="#171717" opacity=".2" d="M179.3 292h9.7c.2 17.7 0 35.4.1 53 0 4-.3 8 .5 12 .8 4.7 4.2 8.5 5.7 13.1h-1c-2.6-4.5-5.9-8.8-6.2-14-.2-21.1.1-42.2-.1-63.3-2.9-.2-5.7-.3-8.6-.1l-.1-.6Z"/><path fill="#242424" opacity=".2" d="m578.1 326.1 1.5-.2c.3 1.5-.3 2-1.8 1.7l.3-1.5Z"/><path fill="#161616" opacity=".1" d="M581.6 325.9c10.4 0 20.8-.2 31.2.2l.1.9c-10.2 0-20.4.4-30.6-.2l-.7-.9Z"/><path fill="#292929" opacity=".7" d="m739.9 356.8 1-1.7-.2 1.7h-.8Z"/><path fill="#0e0e0e" opacity=".3" d="M618 367.6a57 57 0 0 0 17.5 14.1c-3 1-5-1.7-7.5-2.9-2.8-1.4-4.4-4.1-6.7-6.1-1.4-1.5-3.7-2.7-3.3-5.1Z"/><path fill="#383737" opacity=".6" d="M164.1 371.1c.4-1.7 1.4-2 2.9-.8-.9.6-1.8.9-2.9.8Z"/><path fill="#262626" opacity=".4" d="M141.2 385.2c4.8-5.3 10-10.6 17-13.1l2.4-.1a45.4 45.4 0 0 0-22.7 21.7c-.2-3.2 1.6-6 3.3-8.5Z"/><path fill="#090909" opacity=".7" d="M636 381.9c5.2 1.2 10.5 2.6 16 2.5h49c4.2 0 8.2-.7 12.3-1.3a11 11 0 0 1-5.3 1.8h-65.5c-2-1.6-5-.7-6.6-3Z"/><path fill="#a4a5a6" d="M596.2 390.2h.6v.4h-.5v-.4Z"/><path fill="#242323" opacity=".3" d="M582 393.6c2.5-.4 2.9 3.8 1.6 5.4-.7-1.8-1.2-3.6-1.7-5.4Z"/><path fill="#0e0e0e" opacity=".6" d="M697.9 473c4.4.7 9.5-1 13.5 1.1-4.5-.7-9-.7-13.5 0V473Z"/><path fill="#111" opacity=".3" d="M692.4 476.3a7 7 0 0 1 4.8-2c-5.7 4.1-10.5 9.4-15.5 14.4-1 1-2.1 2.3-3.6 2.5-2-.5-3.8-1.4-5.7-2.1 2.2-.9 4.2.4 6.3.6 4.8-4.2 9-9 13.7-13.4Z"/><path fill="#0e0e0e" opacity=".3" d="M711.8 474.2c1.3.1 2.9-.2 3.8 1 3.6 3.8 7.3 7.5 11.1 11 3 2.2 2.7 6.3 2.9 9.6-1.2-3-1.4-6.4-4-8.6-4.4-4.4-8.5-9.4-13.8-13Z"/><path fill="#0f0f0f" opacity=".6" d="M50.7 482.1a15.2 15.2 0 0 1 14.7 0c-4.9-1-9.9-1-14.7 0Z"/><path fill="#111" opacity=".3" d="M42.8 486.8c2.2-2 4.2-5.2 7.6-4.6-7.6 5.8-14.8 12-22 18.2-7.4 6.6-15.7 12.4-22.2 20-1.1-3 2.7-4 4.2-6 2.7-3.7 6.8-5.8 10-9 3.7-2.3 6-6 9.8-8.2 3.7-4 8.3-7 12.6-10.4Z"/><path fill="#1e1e1e" opacity=".3" d="M65.8 482.3c2.4-.2 4.1 1.7 6 3 3.4 2.3 6 5.6 9.6 7.7 4.2-.9 7.2-4.6 11.5-5.3 5.9-1 12.6-.1 17 4.3 3.7 3.2 6 8 5 12.9-1.3-4-2.2-8.4-5.5-11.2A17 17 0 0 0 88 491c-2 1.2-3.8 3-6.2 3.6-5.9-3.3-10.4-8.6-16-12.3Z"/><g fill="#d9801d"><path d="M697.8 487.8c1.9-2 4.3-4 7.2-3.7 3.4.1 5.5 3 7.8 5.1 2.6 2.7 6.2 5.5 6 9.7v123c0 2.7-.2 5.7-2.2 7.6l-16 16c-1.9 2.1-5 3.4-7.6 2.3-2.4-.7-3.7-3-4.7-5-6.7-14.3-13.1-28.8-20.1-43-.8 11.8 0 23.5-.4 35.2-.1 2.7-1.6 5.3-4.1 6.4-5.4 2.8-10.9 5.4-16.3 8-2.5 1.4-5.7 2.1-8.2.5-2.3-1.4-3-4.3-3-6.8-.3-36 0-71.8-.3-107.7-2.6-.5-5.3-1.6-6.1-4.4-2.7-7.6-5.6-15.1-8.1-22.8-1.6-4.2 1.9-9 6.3-8.8 12.3-.2 24.7 0 37-.1 3.2-.2 7.2.6 8.5 4 3.8 10.9 6.8 22 11 32.7l-.1-29c0-2.7 0-5.6 2-7.6 3.6-4 7.7-7.6 11.4-11.6M691 504c-.5 11-.3 22-.1 33-.3 6-.3 12-.1 18-.2 5 0 9.9 0 14.9l-.2 6c-1.1-3.1-2-6.3-3.4-9.2-.9-5-3.2-9.6-4.4-14.5l-.4.1c-1.3-6.5-3.8-12.7-5.8-19l-8.9-27.3c-5.9-.6-11.8-.2-17.7-.3-7.4 0-14.8-.3-22.2.2 2.4 7.6 5 15 7.9 22.4 1.7 1.5 4.6.5 6.7 1l.1 115.2.9.2-.1-.3c6-2.8 11.9-6 17.8-8.8h.6V586c0-4.5-.3-9 .3-13.4 3.8 4.1 4.6 10 7.7 14.7 3 7.4 6.6 14.6 10.1 21.8 4.3 10 9.1 19.7 13.6 29.6.5 1.2 1.4 2 2.3 2.9 5.6-5.5 11-11.2 16.7-16.6 0-42.3.2-84.6 0-126.9l-7.6-7.7c-5 4.1-9.5 8.8-13.8 13.6ZM284 529c4.6-1.7 9.2-3.5 14-4.9 3-1 7.1.6 8 4 .8 2.9.4 6 .4 9V615c.5 5.3-4 8.7-6.8 12.6-2.7 3-4.7 6.5-7.8 9-3 2-7.6 1.3-9.3-2-5-9.4-8.9-19.4-14-28.7-.3 8 .4 16-.2 24-.5 4.4-5.2 5.9-8.5 7.8-3.6 1.7-7.5 5.1-11.7 3.4-3-1-4.3-4.2-4.1-7.1-.2-26.3 0-52.6-.2-78.8l-10.6-8.3c-2.7-2.1-3-6.2-1.4-9 1.9-2.5 5.1-3.2 7.8-4.4 6.4-3 13.6-1.4 20.4-1.8 4.1.1 9.6-1 12.3 3 1.9 4.2 1.4 9 2.6 13.3 1 2.8 2.4 5.4 3.7 8.1 1-7.2-.1-14.7.7-22a6.4 6.4 0 0 1 4.7-5.1m2.2 6.2-.8.1c-.2 15.9.3 31.8-.3 47.7l-.8-.1c-2.3-4.3-4.1-8.9-6.4-13.2-2.5-5.4-4.9-10.8-7.6-16-2.6-4.8-2.2-10.4-3.4-15.6H248c-4-.3-7.3 2-10.9 3.4 4 3.9 8.6 7.1 13.1 10.4.3 27.7 0 55.4 0 83.1 4.2-1.3 8.2-3.4 11.7-6 .8-7.4 0-14.9.2-22.3.1-7.3.3-14.6-.2-21.8.4-2.6.4-5.2.5-7.7 4 8.4 8 16.8 11.8 25.4h.3c4.3 9.7 8.8 19.3 13.4 28.9 3.4-3.2 5.9-7.1 9-10.5 1.3-1.9 3.3-3.6 3.3-6 .1-4.1 0-8.2-.1-12.3a805 805 0 0 0 0-33.7c0-6.1.3-12.2-.2-18.3.6-6.8.3-13.7 0-20.5-4.6 1.5-9.3 2.9-13.7 5Z"/><path d="M483.2 525.1a7 7 0 0 1 9.1.6c6.6 6.3 12.8 13 19.5 19.2-1.3-3.4-1.4-8 2.2-9.9 5.3-2.8 10.8-5.1 16.3-7.6 3.4-1.7 8.3-.2 9.5 3.6 3.4 11 6.8 21.8 9.9 32.9 2.2-8.3 1.9-17.1 3.8-25.5 1.1-3.4 4.8-4.6 7.5-6.4 3.1-1.8 6-4.6 9.8-4.5 3.7.7 7 2.8 10.2 4.5 3.4 1.8 3.8 5.9 4.8 9 2 6.4 3.5 12.7 5.7 19 .8-7 1.4-14.1 2.5-21a6 6 0 0 1 5.1-5.1l21-5.4c4.7-1.2 9.3 4 7.4 8.5l-17 63c-1.3 8.1-1 16.4-2 24.5-.5 3.4-3.6 5.1-6.1 7-4.7 3.2-9.2 6.7-14 9.9-3.1 2-7.8 1-9.5-2.3-3.3-10-5.8-20-9.3-29.9-1.2 6.8-2.6 13.6-4.1 20.4-1.3 4.2-6 5-9.5 6.7-4.4 1.8-8.6 4-13.1 5.5-3.4 1-7.4-1.3-8-4.8-7.2-28.7-14.5-57.3-21.5-86-.6 20.7 0 41.4-.3 62-.1 2.6-1 5.4-3.3 6.8l-29.6 20.5a7.4 7.4 0 0 1-10-.5 3967 3967 0 0 1-21.4-21.6c-2-1.8-2.2-4.7-2.3-7.3V555c0-2.8.6-5.9 3.2-7.4 11-7.6 22.4-14.9 33.5-22.5m-27.8 26.2c-4.1 2.1-2.4 7.7-2 11.3-1 4.5-.4 9-.5 13.5 0 2.8-.4 5.8.3 8.6-.7 7.4-.1 14.9-.4 22.3.2 2.8-.7 6.4 2 8.3 7 6.8 13.5 14 20.8 20.5 9.7-6.7 19.3-13.5 29.1-20 .9-.8 2.2-1.4 2-2.8v-61c0-1.1-.2-2.2-.6-3.2-5.7-6.6-12.4-12.4-18.4-18.7-11 6.8-21.5 14.2-32.3 21.2m65.9-12.9c-1.9.7-4.6 2-3.5 4.5 1.9 8 3.5 16 6.2 23.9 2.5 13 6.3 25.8 9.4 38.8h.2c2.2 10.1 4.8 20.2 7.5 30.2 6.3-2.4 12.4-5.4 18.6-8 .8-6.4 2.6-12.5 3.7-18.8 1.7-7.7 3.5-15.4 4.5-23.2l.7-1.4.9.9.6 3.7.4-.3c1.3 6.1 3.3 12.1 5.3 18 2.7 9.9 5.7 19.6 8.6 29.5 6.5-3.6 12-8.6 18.2-12.6-.1-6 1-12 .7-18 .1-4.4 1.8-8.5 2.8-12.6 1.8-7.9 4.3-15.5 6.1-23.4 2.3-7.6 4.2-15.3 6.3-23 1-3.9 2.4-7.7 2.7-11.7-7 1.4-14 3.3-21 5.2-.8 8.2-2.2 16.4-2.6 24.6-1.5 8.6-2.3 17.5-3 26.3l-1.8-3c-1.2-6.2-3.5-12.1-5-18.3-3.3-10.3-6-20.8-9.4-31-1.8-2.7-5.4-3.9-8.4-4.6a62.6 62.6 0 0 0-10.4 6.5c-1.4 9.4-2.5 18.9-3.6 28.3-.9 6.1-1.8 12.2-2.3 18.4l-2.2 14.6c-2.8-10.8-3.8-21.9-6.5-32.7-3.9-12-7.3-24.2-11.3-36.2-4.2 1.5-8.2 3.8-12.4 5.4ZM388.3 649.3c2-2 5-2 7.7-2h38c2.6 0 5.6.2 7.5 2.3L452 660c3.1 3.2 2.2 8 2.3 12 0 5.5-5.5 8.4-8.8 12 1 2.9 1.4 6 3.1 8.5 2.4 1.5 5.8 2.3 6.5 5.5 1.5 4-1.7 8.4-5.8 8.6-4.4.3-8.8.1-13.3 0-2.6.1-5.7-1-6.8-3.6-1.5-3.6-2.5-7.4-3.7-11-1.3 5.6.5 11.6-1.1 17.2-3 4.6-7.5 7.8-11.1 11.9-2.3 2.5-5.6 5.3-9.3 3.7-3.3-1-4.5-4.7-4.4-7.8v-42c-.1-1.6.2-3.4-.4-5-3.5-3.8-7.5-7.2-11-11a7 7 0 0 1 .2-9.7m4.4 4.7c3.6 4.5 8 8.2 12 12.4.9 1 1 2.3 1.4 3.5-.6 4.6-.4 9.4-.1 14-.3 4-.4 8-.1 12 0 7.7-.7 15.5.2 23 4.2-3.8 8.3-7.7 12-12 .6-3.6.2-7.3.2-11 .2-3.8-.2-7.6.5-11.3 3.6 1.3 7.4.5 11 .7 1.8 4.9 2.8 10.1 5.3 14.7 4.2.9 8.8.5 13.1 0-1.6-1.2-3.4-2.1-5-3.3-2.3-4-2.7-8.8-5.1-12.8 1.9-4.6 6.5-7.3 9.6-11 .1-3 .2-6-.2-9l-.5.8c-2.7-3.5-6-6.5-9.1-9.6-1.8-2-4.6-1.2-7-1.4-12.7.3-25.4-.4-38.2.3Z"/></g><path fill="#111" opacity=".5" d="M618 489.9c2.4-1.2 5.1-1.4 7.8-1.7-2.2 1.1-4.6 1.7-6.8 2.7a27.6 27.6 0 0 0-6 6c-3.2 5.6-2.3 12.2-.7 18.1h-1c-.3-3.6-1.8-7.1-1.3-10.8.4-2.8 1-5.6 1.8-8.2 2-2.2 4-4.2 6.2-6.1Z"/><path fill="#db332a" d="M691 504a124 124 0 0 1 13.8-13.6c2.6 2.5 5.1 5 7.6 7.7v38.2c-7.1 1.3-14.4.4-21.5.6-.2-11-.4-22 0-32.9Z"/><path fill="#da801b" d="M49.1 497.2c2.8-2.1 5.2-5.3 9-5.4 3.9.1 6.5 3.5 9.4 5.7 4.9 3.8 9.3 8 14.4 11.5 4.8-2.4 8.2-7 13-9.2 4.3-1.4 8.8 2 8.7 6.4.2 12.6 0 25.2 0 37.7 0 2.9 0 6.3-2.6 8.2-4.9 3.5-9.9 6.7-14.8 10.1-2.7 2.1-6.9 2.2-9.2-.3-2.3-2.3-5-4.3-6.5-7.3-1-4.9.1-9.8-.7-14.7-2.7-2.4-5.8-4.4-8.8-6.5-3 1.7-5 4.7-7.5 7-1.1 1.2-.6 3.1-.8 4.6.2 14 0 28 .2 42 2.5 3.3 6.5 5.6 10 7.8 3.1-1.5 5.9-3.5 8.8-5.1.4-3.9-.7-8.6 2.5-11.4 2.7-2.7 5.1-5.7 8.2-7.7 3.4-1.2 7-.7 10.6-.8 4.7.2 9.7-.6 14 1.6l10.6-5v-23.3c0-2.7.3-6.1 3-7.5 5.3-3 10-6.8 15-10 2.7-1.7 6.6-1.4 8.8 1 1.5 2.1 1.6 4.9 1.7 7.4v30c4.2.2 8.4.4 12.6-.1-.3-7-.1-14-.2-21 0-3 .4-6.6 3.3-8.1 3.8-2 7.9-3.5 11.8-5.3 3-1.2 6.1-3.2 9.4-2 3.3.9 4.5 4.5 4.4 7.5v32.6c3.7 2.6 7.5 5 11.2 7.8 3.8 2.2 3.8 8.8 0 11-3.7 2.3-7.6 4-11.3 6-.1 9.6 0 19.1 0 28.6 0 2.5-.4 5.3-2.4 7-3.3 3-6.9 5.7-10.3 8.7-2.5 2-5.2 4.9-8.8 4.1-3.4-.1-5.6-3.5-5.6-6.7-.2-13 .2-26-.1-39h-14.3c-.3 7.3 0 14.6-.2 22 0 2.4-.4 5.3-2.7 6.8l-14 10c-2.6 2.1-6.9 2-9.2-.6-1.9-1.9-1.8-4.8-2-7.3l.1-35.8-11.5-8.3c-1.3 1.3-2.8 2.5-3.6 4-.3 6.4.1 12.8-.2 19.1a7.3 7.3 0 0 1-3.5 6l-33 21c-2.2 1.5-4.4 3.3-7.1 3.5-3 0-5.4-2-7.7-3.7-10.7-8-21.5-15.8-32.3-23.7-2.4-1.5-3.2-4.5-3.2-7.2v-70c0-2.7.2-5.8 2.5-7.6l31-26.1m6 1c-4.7 5-10.6 8.6-15.5 13.5-4.9 4-9.9 8-14.6 12.4-1.8 1.6-4.8 2.9-4.3 5.8V596c.1 2.5-.2 5.2.5 7.6 11.6 8.9 23.6 17.1 35.1 26 1.7 1.3 4 .3 5.4-.8L96 607c2.4-1.3 1.2-4.3 1.6-6.5.6-5.4-.2-11 .4-16.4 1.5-2.7 4.6-4.2 6-7-.6-2.7-4-2-6-2-4.5.2-9.1-.6-13.6.3-2.6 2-4.9 4.5-7 7-1.2 3.2.4 7-1.2 10-3.9 3.5-9 5.4-13.2 8.7-5-3.6-10.5-6.8-15-11-.1-17-.3-34 0-51 3.5-4.5 8-8.3 12-12.3 5 3.4 10 6.9 14.7 10.7 1 4.8 0 9.8.5 14.6l1.1.9c2 1.4 3.8 3 5.7 4.6 4.7-3.9 10.3-6.6 15-10.4.6-3.4.3-6.8.1-10.1.4-10.3.4-20.7 0-31l-1.7 1c-5.5.5-8.5 6.2-13.5 8-1.3.4-2.1-1-3.1-1.7-6-5.4-12.6-10.2-18.6-15.5-1.4-1.4-3.8-1-5 .5m83.2 32.7v.7c-5 2.6-9.5 6.4-14.4 9.4 0 1.5 0 3 .5 4.4-1 6.7-.8 13.5 0 20.1l-.9 5c-4 2.5-9.1 3.3-12.6 6.4 3.9 3.9 8.8 6.7 13.2 10 0 14-.3 28 0 42.1 4-2 7.1-4.8 10.7-7.2 2-1.4 5.2-2.8 4.5-5.9-.3-9 .3-18.2-.3-27.2 9 .1 18-.3 27 .2l1.2 2c-1 1.4-.5 3.3-.7 5 .1 12.8-.2 25.6.2 38.4 3.8-2 6.5-5.2 10-7.6 1.4-1.5 4-2.5 4.1-4.8.2-11.2-.3-22.5.2-33.7 4.6-2.3 9.6-4.1 13.6-7.4-1.7-2.4-4.8-3.7-7.1-5.6-1.8-1-3.4-3-5.7-3-.3-1.3-.7-2.8-.7-4.2-.1-11.5 0-23-.2-34.4-4.3 1-8.3 3.3-12.4 4.9-1.4.9-4 1.3-3.7 3.4l-.1 28.1c-8 .5-15.9.3-23.8.2-2-.3-1.1-3-1.4-4.2v-34.6a65 65 0 0 1-1.2-.5Z"/><path fill="#c37322" d="M55.3 498.3c1-1.5 3.5-2 4.9-.5 6 5.3 12.6 10 18.6 15.5 1 .6 1.8 2 3.1 1.7 5-1.8 8-7.5 13.5-8-4.5 3.5-8.6 7.5-13.6 10.3-8.4-5.6-15.4-13.2-23.9-18.7-12 9.5-23.4 19.7-35.2 29.4-.7 4-.3 8-.3 12 0 21-.2 41.8 0 62.7L57 628.1c1.6 1.6 3.5-.3 5-1 11.3-7.5 22.8-14.5 33.9-22 .8-7.3-.5-14.7.4-22 1.8-2.3 4-4.3 5.8-6.7H85.4c-2.2 2.2-4.7 4.2-6.5 6.8-1 3.2.4 6.8-.7 9.8-5 3.6-10.5 6.7-15.8 9.8-4.8-3.7-9.7-7-14.5-10.6-1.4-1-1.7-2.6-1.8-4.2.4-6.3.1-12.7.1-19.1v-14l.1-15c0-2 1.6-3.4 2.8-4.9 4-3.1 7.2-7 10.9-10.4 5.6 3.5 10.4 8.2 16.2 11.4.3 5.6.2 11.3.1 16.9l-1.1-.9c-.5-4.9.4-9.8-.5-14.6C70 533.6 65 530 60 526.7c-4 4-8.5 7.8-12 12.3-.3 17-.1 34 0 51 4.5 4.2 10 7.4 15 11 4.2-3.3 9.3-5.2 13.2-8.7 1.6-3 0-6.8 1.2-10 2.1-2.5 4.4-5 7-7 4.5-1 9.1 0 13.6-.4 2 0 5.4-.6 6 2-1.4 3-4.5 4.4-6 7.1-.6 5.5.2 11-.4 16.4-.4 2.2.8 5.3-1.6 6.5l-34.2 22c-1.5 1-3.7 2-5.4.7-11.5-8.9-23.5-17.1-35-26-.8-2.4-.5-5-.6-7.6v-66c-.5-3 2.5-4.3 4.3-5.9 4.7-4.3 9.7-8.3 14.6-12.4 4.9-4.9 10.8-8.5 15.6-13.4Z"/><path fill="#db3229" d="M22.7 528C34.5 518.3 46 508 58 498.6c8.5 5.5 15.5 13.1 24 18.7 4.9-2.8 9-6.8 13.5-10.2L97 506c.5 10.3.5 20.7.1 31-7-.2-14 .6-20.9-1-5.8-3.2-10.6-7.9-16.2-11.4-3.7 3.4-7 7.3-10.9 10.4-8.3 3.4-17.5 1.3-26.2 2 0-3 0-6-.2-9Z"/><path fill="#161515" opacity=".6" d="M581.7 513.4a50 50 0 0 1 2-10c.5 3.4-.3 7.1-2 10Z"/><path fill="#d83127" d="M627.8 506c7.4-.6 14.8-.2 22.2-.3 6 .1 11.8-.3 17.7.3l8.9 27.3c2 6.3 4.5 12.5 5.8 19-10 1.4-20.3 0-30.4.7-2.3 0-4.6.6-6.7-.4l-2.7.3c-.1-7.9.2-15.8-.2-23.7-2.1-.4-5 .6-6.7-.9-2.9-7.3-5.5-14.8-7.9-22.4Z"/><path fill="#202020" opacity=".6" d="M603.3 521.2c3-1.4 6.4-2.2 9.8-2-2.8.6-5.6 1.4-8.2 2.7-2.9 1.5-6.2 1.1-9.3 1.4 1.9-2.3 5.3-.7 7.7-2Z"/><path fill="#0f0f0f" opacity=".5" d="M5.3 520.9h.9c-.5 4-1.7 8-1.7 12.2V598c.5 5.8.9 12.7 5.8 16.8 6.2 5.4 13.3 9.9 19.9 15 6.8 4.7 13.2 10 20.3 14.5 4 1.8 8.6 2 13 1.6-4 2.7-9-.1-13.5-.3-4.3-3.6-9.6-6-13.7-10-8-5.9-16.3-11.5-24.2-17.6-2.5-2.2-5.3-4.4-6.5-7.5l-1.5-8.6c-.2-24.6.2-49.2-.1-73.8 0-2.5 1-4.8 1.3-7.2Z"/><g fill="#d9801c"><path d="M350.8 525.7c3.3-1.7 8.2-.5 9.3 3.4 4.2 13.8 7.9 27.7 12.1 41.4 3 .8 6.8.8 8.6 3.7 2 3.4.4 7.4 0 11-.6 2.8-1 5.6-2.3 8.2-1 2.5.4 5.2 1 7.6 1.8 3.5 5.7 5.6 7 9.5 1 4.1-2 7.6-3.9 11-1.8 3-3.6 7-7.7 7-4.3 0-7.4-3.6-10.9-5.6-2.9-2.3-7.2-3.8-8-7.8-1.9-7.3-3.8-14.6-5.4-21.9-1.6-.3-3.2-.6-4.7-.7-1.2.6-1 2.3-1.5 3.4-2.2 10.1-4.7 20.1-7 30.2-.4 2.5-1.8 5.2-4.5 5.9-5.9 1.6-12 2.5-18 4-3 .8-6.8-.9-7.7-4-1-2.7.3-5.4 1-8l10.6-31.5c-2-.8-4.5-1.5-5.4-3.7-1.5-2.7-.4-5.9 1-8.3 1.6-2.8 3-5.7 4.8-8.3 1.8-2.4 5.1-2.7 7.2-4.6 1.3-9.5 2.3-19.1 3.4-28.7a6.4 6.4 0 0 1 3.9-5.3l17-8m-14.3 13.8c-.7 5.1-1.9 10.4-1.5 15.6h-.6c-.6 5.7-1.2 11.5-2 17.2-2.5 1.8-5.6 2.3-8.1 4-2.1 3-3.6 6.4-5.2 9.6h7.7l.7 1c-2.5 6.5-4.4 13.3-6.8 20-2.4 7.7-5.5 15.3-7.5 23.2 6-1.3 12-2.4 17.9-4.1 3-13.3 6.5-26.6 9.3-40 5 .5 10.9-.6 15.4 2 1.8 8.7 4 17.4 6.5 25.9 3.8 3.3 8.2 6 12.6 8.5 1.7-3.4 4.5-6.5 5.4-10.3-1.5-2.4-3.9-4.1-5.6-6.4-2.2-4.4-2.1-9.7-4.4-14l.2-2.4h2.8c1.2-3.7 2-7.5 2.2-11.3-2.6-1-5.3-1.6-8-2.4-3-7.2-4.2-15.3-7.1-22.7-1.6-7.3-4.3-14.3-6-21.5-6.2 2.2-11.9 5.6-18 8.1ZM470.6 560.4c3.8-3 8.1-5.3 12-8.1 2.6 3 7.2 5.2 6.8 9.7 0 14-.2 28 0 42-3.9 2.1-7.3 5-11.4 6.8-3-1.8-5.3-4.6-7.5-7.2-.7-5.5-.1-11.1-.3-16.7.2-6 0-12 0-17.9 0-2.9-.2-5.8.4-8.6m6 3.6c-.2 12.3 0 24.6 0 36.9.4.5 1.3 1.6 1.8 2 1.5-.6 3-1.4 4.4-2.1.5-8.6.1-17.2.3-25.8-.2-4.7.3-9.4-.4-14-2.2-.8-4.3 1.8-6 3ZM346.2 648.3c3.6-1.3 7-3 10.8-4.2 3.1-1 7 .8 8 4l8.4 24.6c2.8.6 6.3 1.3 7.3 4.4 1.6 4.6-1 9.3-1.9 13.9.2 3.8 5.2 4.9 5.8 8.5 1.4 4.8-2.8 8.4-5.2 12-2.2 3.1-6.9 3-9.9 1-3-1.9-6.5-3.3-9.3-5.6-3.4-4.6-2.4-11.5-6.4-15.8-2.4 7-4 14.4-6.3 21.5-1.3 3.5-5.3 4-8.5 4.5-4 .5-8 2.2-12.1 1.5-3.5-.7-5.6-4.7-4.5-8 2.1-6.8 5.4-13.3 7.5-20.1-2.8-1.8-4.3-5.4-2.9-8.5 2.3-4.2 4.7-9.1 9.8-10.4 1.2-6 1.4-12.3 2.8-18.3.6-3.1 4-4 6.6-5m-.7 7.3c-.3 2.3-.7 4.7-.6 7.1-1.6 4.4-1 9.2-2.5 13.6-2 .7-4 1.2-5.7 2.4-1.7 1.7-2.8 3.9-3.8 6 2 0 4 0 5.9.2l-.4 2.1c-3.3 8.5-7 16.8-9.9 25.4 4.6 0 9-1.5 13.4-2.5 1.8-7.7 4.8-15.2 5.9-23l1.4-1.8c3.4-.5 6.9.3 10.3.4l1.6 3.3c.7 4.6 2.4 9 3.5 13.5 3 2 6.2 3.7 9.4 5.6 1.7-2 3.3-4.1 4.8-6.3-1.7-1.8-3.6-3.5-5-5.4-1-2.4-1.4-5-2.6-7.2l.1-1.9 2.4-.4c.5-2.5 1-4.9 1.2-7.3-2.1-.5-4.6-.4-6.4-1.7-1.7-3.9-2.4-8.2-4.4-12-1.1-5.3-3.6-10.3-5.3-15.5l-13.3 5.3Z"/></g><g fill="#d8801d"><path d="M214.4 527.5c5.4-1.8 8.9 3.6 12.3 6.7 2.4 1.9 2.8 5 2.7 7.8v74c.2 3.9-2.6 6.8-4.6 9.8-2.3 3-4.2 6.4-6.7 9.4-2.4 3-7.7 3-10-.2-2.6-3.6-6.3-7.2-6.2-12v-78c-.1-3.3 1.1-6.4 3.4-8.7 3-3 5.1-7 9-8.8M209 542c-.7 6.6-.1 13.3-.2 20-.3 8.2 0 16.4 0 24.7-.1 6-.2 12.1 0 18.2-.3 5.6 0 11.3-.2 17-.4 3.6 2.3 6.5 4.6 8.8 3.4-2.7 5.1-7.3 8-10.7 3.2-3.7 1.8-8.8 2-13.2 0-7.8.4-15.5-.3-23.2.7-3.5.3-7.1.3-10.7-.2-4.8.5-9.6-.4-14.4.8-6.1.5-12.4.2-18.6-1.7-2.4-4-5.3-6.8-6.1-2.4 2.6-5 5.3-7.2 8.2ZM249 644.5c2.8-.9 6.3 0 7.8 2.6 2.5 4.5 3.1 9.7 5.8 14 .5-3 .7-6 1.7-9 1-2.5 4-3.4 6-4.7 3-1.4 6.3-3.7 9.7-2.5 3 1 6.4 2 8.6 4.5 2 2.9 2.5 6.4 3.9 9.5.5-3.6.4-8.5 4.6-10 5.5-1.5 11.2-2.5 16.8-3.6 4.8-1 9 4 7.2 8.6-3.8 12.4-8 24.7-12 37-1.4 5.6-.7 11.5-2 17.1-2.6 4.2-7.8 5.6-11.6 8.5-3.4 2.5-8.6 4.6-12 1-3-4-3-9.5-6-13.5-.8 3.4-1 8-4.7 9.7a187 187 0 0 1-13.7 5c-3.7 1.4-7.8-1-8.8-4.7l-16.7-55.8c-1.2-3.3 0-7.7 3.4-9.2 4-1.7 8-3.2 12-4.5m-6.3 9.1c-1 .6-2.7.8-3 2.2 1 4.3 2.3 8.6 3.6 12.8l.5.3c.8 4.8 2.3 9.5 4 14 1 4.4 2.4 8.5 3.6 12.7l5.2 17.1c4.6-1 9-3 13.4-4.7 1.5-4.6 2.6-9.3 3.3-14l.4-.2c.8-3.5 1.9-7 2.4-10.7l.4-1.8.7 1.6h.5c.6 3.4 1.7 6.8 3.4 10 2 6.8 4.5 13.6 7 20.3 4.6-2.4 9.2-4.9 13.3-8 .4-4.2.4-8.4.6-12.6 2.5-7.5 5-15 7-22.8 2.5-5.8 4.1-12 6-18-5.3.3-10.6 1.8-15.7 3.3-.3 5.3-1.4 10.5-1.9 15.8-.9 5-1.4 10-2 15a25 25 0 0 1-1.6-4c-1.2-4-3-7.8-4-11.8l-.4.2c-1.4-5.9-4-11.3-5.8-17L278 651c-2.6 1.3-5.5 2.3-7.8 4.2-1 5.3-2 10.6-2.5 16-.6 3-1.5 6.2-1.4 9.3-1.2 3.4-.2 7.8-2.7 10.5-.5-3-1-6-1.7-8.9-1-4.2-1.7-8.5-3.6-12.4a202 202 0 0 0-7.1-19.2l-8.5 3.1ZM480.5 648.6c4.7-1 9.7-.4 14.5-.5 2.7-.2 5 1.4 7.2 2.5 2.6.3 5.2-1.7 7.8-.6 3.5.9 4.7 4.8 4.5 8-.1 5.7.3 11.4 0 17.1.1 2.3-1.8 3.8-2.7 5.8l.2 17.2c0 2.8-1.4 5.4-3.5 7.3-3.8 3.5-7.2 7.6-11.3 10.9-3.3 1.8-7.4 1.2-11.1 1.1-4.7 0-7-4.6-10.3-7.2-2.1.7-3.5 3-5.9 3.1-3.9.7-7.4-2.8-7.5-6.6-.2-7.2 0-14.5 0-21.7-.1-2 1.5-3.9 1.5-5.9-1.9-5.5-1.1-11.4-1-17 0-3.3 2.2-5.9 5.1-7 4.2-2.1 8.2-4.6 12.5-6.5m-.5 7.3c-3.6 2-7.3 3.9-10.8 6l.2.8c-.4 4-.6 8.1-.1 12.2 2.4 2.5 4.7 6.5 8.7 6.3 5.2 0 10.5-.2 15.7.2l1.6 2h.5l2.8 3c.1 1.8.3 3.6.3 5.5.4 3.5-3.1 5.5-5.3 7.5-2.6 1-5.6.6-8.4.3-5.8-4.6-10-11.1-16.3-15-.4 7.3-.4 14.6 0 22 2.6-1.4 4.4-3.7 6.4-5.7 4 2.9 6.6 7.3 10.7 10 3.1.3 7.2 1.2 9.4-1.6 3.2-3.6 7.2-6.5 10-10.5.3-5.2-.3-10.4 0-15.7-1.2-3-3.8-5.3-6.4-7.2-4.5-.5-9.1 0-13.7-.3l-5.5-5.5-.6.2-.8-2.1c2-2 3.8-4.1 6-5.9 3.3-1 7-.3 10.4-.3 4.4 4.2 8.5 8.8 13 12.9.9-6.3.2-12.6.2-19-2 .8-3.9 1.6-6 1.9-3-1-5.5-4-9-3.6-4.4.4-9.2-1-13 1.6m7.1 12.2.9 2 6-.4c-1.6-2.4-4.5-1.7-6.9-1.6m-5.1 19.3c2.4 2.7 4.6 6.9 8.8 6.4l1.8-2.7c.1-1.6-1.3-2.5-2-3.7H482Z"/></g><g fill="#b92118"><path d="M22.4 540c0-4-.4-8 .3-12l.2 9c-.1 6 0 12 .1 18l.1 15c0 6 0 11.9.2 17.9 7.6.4 15.2 0 22.8.1.1 1.6.4 3.3 1.8 4.2 4.8 3.5 9.8 7 14.5 10.6 5.3-3.1 10.7-6.2 15.8-9.8 1-3-.2-6.6.7-9.8 1.8-2.6 4.3-4.6 6.5-6.8H102c-1.8 2.4-4 4.4-5.8 6.7-1 7.3.4 14.7-.4 22-11.1 7.5-22.6 14.5-33.9 22-1.5.7-3.4 2.6-5 1-11.6-8.5-23-17-34.7-25.4V540ZM495.8 683.5c3.2-.2 6.4-.2 9.7-.3-.4 5.3.2 10.5-.2 15.7-2.7 4-6.7 7-9.9 10.5-2.2 2.8-6.3 2-9.4 1.6-4-2.8-6.8-7.1-10.7-10-2 2-3.8 4.3-6.4 5.6-.4-7.3-.4-14.6 0-22 6.4 4 10.5 10.5 16.3 15.1 2.8.3 5.8.6 8.4-.3 2.2-2 5.7-4 5.3-7.5 0-1.9-.1-3.7-.3-5.5l-2.8-3Z"/></g><g fill="#d22e24"><path d="M286.2 535.2c4.4-2.1 9-3.5 13.7-5 .3 6.8.6 13.7 0 20.5l-1.2 2.1c-4.1.2-8.4.7-12.4-.5v-17ZM76.2 536c6.9 1.6 14 .8 20.9 1 .2 3.4.5 6.8 0 10-4.8 4-10.4 6.6-15.1 10.5-1.9-1.6-3.7-3.2-5.7-4.6 0-5.6.2-11.3 0-17Z"/></g><g fill="#cf2c22"><path d="M455.4 551.3c10.8-7 21.3-14.4 32.3-21.2 6 6.3 12.7 12 18.4 18.7-.4 6.7-.5 13.5-.4 20.2-5.2 0-10.4-.2-15.6 0-.3 6.1-.2 12.2-.2 18.3 0 5.6 0 11.2-.4 16.7-.3-14 0-28-.1-42 .4-4.5-4.2-6.8-6.7-9.8-4 2.9-8.3 5.1-12.1 8.2-.6 2.8-.4 5.7-.4 8.6a10.7 10.7 0 0 0-10-3 6.3 6.3 0 0 1-5.4 1.7l-1.5-5c-.4-3.7-2-9.3 2-11.4ZM600.1 540.1c7-1.9 14-3.9 21.1-5.2-.3 4-1.7 7.9-2.7 11.8-2.1 7.6-4 15.3-6.3 23-4.5-1-9.2 1.6-13.5-.4-.6-1.5-.8-3-1-4.6.3-8.2 1.7-16.4 2.4-24.6Z"/></g><g fill="#cb2a20"><path d="m138.4 531 1.2.5v34.6c.3 1.3-.6 4 1.4 4.2 8 0 15.8.3 23.8-.2v-28c-.2-2.2 2.4-2.6 3.8-3.5 4.1-1.6 8-3.9 12.4-4.9.2 11.5.1 23 .2 34.4 0 1.4.4 2.9.7 4.3-4 .4-8 .9-12 .5-6-.6-12 .3-18 .1-4.7.2-9.3-.8-14-.3-4.2.4-8.4.3-12.5.1-.2-2.4-.4-4.8-1-7.2-.8-6.6-.8-13.4 0-20 .9 3 1 6.1.8 9.2 4.5.3 9 .3 13.5 0-.2-7.7.3-15.4-.3-23.1v-.7ZM298.7 552.8l1.2-2.1c.5 6 .3 12.2.1 18.3-4.6.1-9.1.2-13.7 0v-16.7c4 1.2 8.3.7 12.4.5ZM642.6 553l2.7-.4c2 1 4.5.4 6.7.4 10.1-.7 20.3.7 30.4-.7h.4c1.2 4.8 3.5 9.4 4.4 14.4l-.6 4.1-1.6-1.8h-20.6l.1 2-2.6-2h-19.3v-16Z"/></g><g fill="#d22e23"><path d="M336.4 539.4c6-2.5 11.7-5.9 17.9-8.1 1.7 7.2 4.4 14.2 6 21.5l-.8 2.1c-8.2.6-16.4 0-24.6 0-.4-5.1.8-10.4 1.5-15.5ZM124 541.1c5-3 9.3-6.8 14.4-9.4.6 7.7.1 15.4.3 23.2-4.5.2-9 .1-13.5 0 .1-3.2 0-6.3-.8-9.4-.3-1.4-.3-2.9-.4-4.4ZM22.9 537c8.7-.7 18 1.4 26.2-2-1.2 1.5-2.8 3-2.8 5-.2 5 0 10-.1 15H23c0-6-.2-12-.1-18ZM690.9 537c7.1-.3 14.4.6 21.5-.7V555h-21.6c-.2-6-.2-12 0-18Z"/></g><path fill="#d8801e" d="M369.1 536c.8-3.5 4.6-5 7.9-4.9h63c3.2-.2 7.2.8 8.5 4.2 1.2 4.2-1.3 8.2-2.1 12.2-1.3 3.8-1.6 9.4-6.4 10.5-5.6.8-11.2.2-16.8.3-.2 19.6 0 39 0 58.6-.1 2.5-.4 5.2-2.3 7-4.7 4.7-9.3 9.4-14.1 14-4 3.6-11.4.7-11-5-.4-24.7.2-49.6-.3-74.4-5 0-10 .4-15-.2-4.7-1.1-5.8-6.5-7.7-10.3-1.4-4-5-7.5-3.7-12m6.5 1.8c1.5 5 3.9 9.7 6.4 14.2 6.6.6 13.2 0 19.9.3 0 2.8 0 5.6.6 8.3-.9 14.4-.2 29-.6 43.4.3 9.7-.2 19.5.3 29.2a141 141 0 0 0 14.4-14.4c.4-22.2-.1-44.5.2-66.8 7-.1 14 .5 21-.3 2.6-4 3.3-9.3 4.6-14-22.3-.1-44.5-.3-66.8.1Z"/><g fill="#ce2c22"><path d="M521.3 538.4c4.3-1.6 8.2-3.9 12.5-5.4 3.9 12 7.3 24.2 11.2 36.2-5.6 1.6-11.4.8-17 .7-2 .2-2.9-1.9-4-3.1-2.7-7.8-4.4-16-6.2-24-1.1-2.5 1.6-3.7 3.5-4.4ZM237.1 541.5c3.6-1.3 7-3.7 11-3.5h18.8c1.2 5.3.8 10.9 3.4 15.6 2.7 5.3 5.1 10.7 7.6 16.1-4.7 0-9.3.3-14 .3-4.2 0-8.6-.6-12.7.8 0-6.1.3-12.3-.3-18.3l-.7-.6c-4.5-3.3-9-6.5-13-10.4ZM447 664.7l.5-.9c.4 3 .3 6 .2 9-3.1 3.8-7.7 6.5-9.6 11.1-2.3 2-5.5 1.4-8.2 1.4-3.7-.2-7.5.6-11-.7-4.3-1.1-8.7-.5-13-.6-.2-4.7-.4-9.5.2-14.1 2.7 4 8.3 1.5 12.1.9l.1 5.2c4.5.2 9 .7 13.6 0 2.6-1.8 4.6-4.2 7-6.3 1.9 2.3 5.1 1 7.7 1.2 0-2.1 0-4.2.4-6.2Z"/></g><g fill="#cf2d23"><path d="M209 542c2.1-2.8 4.7-5.5 7.1-8.1 2.8.8 5.1 3.7 6.8 6 .3 6.3.6 12.6-.2 18.7l-1.2 4.3c-4.3.4-8.6.2-12.8-.9 0-6.6-.5-13.3.2-20ZM243.8 668.9l4.5 3c3.5.5 7-.1 10-2.2 1.9 4 2.7 8.2 3.6 12.4-4.5 1.5-9.4.8-14 .9a75.8 75.8 0 0 1-4.1-14.1ZM289.4 670.3l.3-.2c1.1 4 2.9 7.9 4 11.9l-1.3 1.5c-4.8-.9-9.8-.5-14.7-.6h-.5l-.7-1.6c0 .5-.3 1.4-.4 1.8a30 30 0 0 1-8.7.6l-1-3.2c-.2-3.1.7-6.3 1.3-9.4 3.4.7 6.8 1 10.3 1 3.8-.1 8 .4 11.4-1.8Z"/></g><g fill="#cd2b21"><path d="M559.6 540.6c3.3-2.4 6.7-4.8 10.4-6.5 3 .7 6.6 1.9 8.4 4.5 3.4 10.3 6 20.8 9.3 31.1-3.9-.8-7.8.5-11.7.3-6.7-.3-13.5.6-20-1.1 1.1-9.4 2.2-18.9 3.6-28.3ZM342.4 676.4c1.5-4.5 1-9.3 2.5-13.7l.5 5.4c2.8.2 5.6-.6 8.4-.6 3.2.5 6.5 1 9.8.5l.5-2.3c2 3.8 2.7 8.1 4.4 12 1.8 1.3 4.3 1.2 6.4 1.7l-1.2 7.3-2.4.4v1.9a7 7 0 0 1-10.2-.3l-1.6-3.2c-3.4-.1-6.9-.9-10.3-.4l-1.4 1.8c-3.2.2-6.3.2-9.4.1l.4-2.1c-2-.2-4-.2-6-.2 1.1-2.1 2.2-4.3 4-6 1.6-1.2 3.7-1.7 5.6-2.4m11-8.2c-1.2 3-2.1 6.3-3 9.5 2.4.3 4.9.4 7.4.3-1.4-3.3-2.7-6.7-4.4-9.8Z"/></g><g fill="#c2251c"><path d="M285.4 535.3h.8c.2 5.6.1 11.3 0 17 .1 5.6.2 11 .1 16.6 4.6.3 9.1.2 13.7 0a805 805 0 0 1 0 33.8c-3.2-.8-6.7-1-10-.8-5.2.2-10.4-.5-15.5.6h-.3c-3.8-8.5-7.9-16.9-11.8-25.3-.1 2.5-.1 5.1-.4 7.7-2 4.5-7 3-10.8 2 .1-5.4 0-10.8 0-16.1 4.1-1.4 8.5-.8 12.8-.8 4.6 0 9.2-.3 13.9-.3 2.3 4.3 4.1 8.9 6.4 13.2h.8c.6-15.8 0-31.7.3-47.6ZM124.4 565.6c.6 2.4.8 4.8 1 7.2 4.1.2 8.3.3 12.4-.1 4.8-.5 9.4.5 14.2.3 6 .2 12-.8 18-.1 4 .4 8 0 12-.5 2.2-.1 3.8 1.9 5.6 3 2.3 1.8 5.4 3 7.1 5.5-4 3.3-9 5-13.6 7.4-3.6 2.3-8 2-12 1.2l-1.8 1.4c-.3-.4-1-1.4-1.2-2-9-.4-18 0-27-.1l-.2-1.2c-2.2 1.1-4.6.5-6.9.6-2.6-.2-5.5.3-7.8-1.3-4.4-3.2-9.3-6-13.2-10 3.5-3 8.6-3.8 12.6-6.2l.8-5Z"/></g><path fill="#d12e23" d="M375.6 537.8c22.3-.4 44.5-.2 66.8 0-1.3 4.6-2 10-4.5 14-7 .7-14 0-21.1.2h-.9c-.4 6.3-.2 12.5-.1 18.7-4.1-1.3-8.4-.8-12.6-.7.2-3.2 0-6.3-.8-9.4-.5-2.7-.5-5.5-.5-8.3-6.7-.3-13.3.4-19.9-.3a70.8 70.8 0 0 1-6.4-14.2Z"/><g fill="#b71f16"><path d="M506 548.8c.5 1 .7 2 .7 3.2v61c.2 1.4-1.1 2-2 2.7-9.8 6.6-19.4 13.4-29.1 20.1-7.3-6.5-13.9-13.7-20.8-20.5-2.7-2-1.8-5.5-2-8.3.3-7.4-.3-15 .4-22.3l1.1 2.8c5.3.9 10.7.9 15.9-.6.2 5.6-.4 11.2.3 16.7 2.2 2.6 4.6 5.4 7.5 7.2 4-1.8 7.5-4.7 11.4-6.8.5-5.5.4-11.1.5-16.7 5.1 1.3 10.5.8 15.8.6v-19c0-6.6 0-13.4.4-20.1ZM337.8 588l2.5-2c-2.8 13.3-6.3 26.6-9.3 39.9-5.9 1.7-12 2.8-18 4 2.1-7.8 5.2-15.4 7.6-23.2 2.4-6.6 4.3-13.4 6.8-19.9 3.2 1.6 7 1.2 10.4 1.3ZM169 589.5c4.1.9 8.5 1.1 12-1.2-.3 11.2 0 22.5 0 33.7-.2 2.3-2.8 3.3-4.3 4.8-3.4 2.4-6.1 5.6-9.9 7.6-.4-12.8 0-25.6-.2-38.4.2-1.7-.4-3.6.7-5l1.8-1.5Z"/></g><g fill="#b41e14"><path d="m250.2 552 .7.5c.6 6 .3 12.2.3 18.3v16l.1 21c3.5-.8 7.2-1.1 10.8-1.1-.1 7.4.6 14.9-.2 22.3a37.4 37.4 0 0 1-11.7 6c0-27.7.3-55.4 0-83ZM680.2 606.4c8.3 1 16.6.4 24.9.6 2.4 0 4.8-.3 7.2-.8V625l-16.6 16.6c-1-.8-1.8-1.7-2.3-2.9-4.5-9.9-9.3-19.7-13.6-29.6l.4-2.7Z"/></g><path fill="#b82016" d="M416 552h.8c-.3 22.3.2 44.6-.2 66.8-4.5 5-9.3 10-14.5 14.4-.4-9.7 0-19.5-.2-29.2.4-14.4-.3-29 .6-43.4.7 3 .9 6.2.7 9.4-.2 6 0 12 0 17.9 4.1.3 8.3.3 12.4-.2.2-5.7.3-11.3.2-17 0-6.2-.3-12.4.1-18.6Z"/><g fill="#c4271c"><path d="M360.3 552.8c3 7.4 4 15.5 7.1 22.8 2.7.7 5.4 1.3 8 2.3-.1 3.8-1 7.6-2.2 11.2l-2.8.1-.2 2.3c-3.6-2.1-8-1.4-12-1.6l-2.5-2c-4.5-2.6-10.4-1.5-15.4-2l-2.5 2.2c-3.5 0-7.2.3-10.4-1.3l-.7-1H319c1.6-3.2 3-6.6 5.2-9.6 2.5-1.7 5.6-2.2 8.1-4 .8-5.7 1.4-11.5 2-17.2h.6c8.2 0 16.4.5 24.6 0l.8-2.2m-13.8 7c-1.3 5-3 9.9-3.6 15 3 .3 6.2.6 9.3.5-.7-3.8-2.4-7.3-3.5-11a11 11 0 0 0-2.2-4.4ZM453.3 562.6l1.4 5.1c2.1.3 4-.2 5.6-1.7 3.7-.6 7.2.3 9.9 3 0 6 .2 12 0 18a35.7 35.7 0 0 1-15.9.5l-1-2.8c-.8-2.8-.4-5.8-.4-8.6.1-4.5-.5-9 .4-13.5Z"/></g><g fill="#ca2a20"><path d="M23 555h23.2v13.9c-7.5 2-15.4.9-23 1-.1-5-.3-9.9-.2-14.9ZM690.8 555h21.5c.1 4.8.1 9.5 0 14.3-6.3 1-13 1.2-19.3-.2l-2.2.8c0-5-.2-10 0-15Z"/></g><path fill="#c5271d" d="m221.5 562.9 1.2-4.3c.9 4.8.2 9.6.4 14.4 0 3.6.4 7.2-.3 10.7l-1.5 3.1a23.3 23.3 0 0 0-12.7 0c0-8.3-.2-16.5.1-24.8 4.2 1 8.5 1.3 12.8.9Z"/><path fill="#d28021" d="M346.5 559.9a11 11 0 0 1 2.2 4.4c1 3.7 2.8 7.2 3.5 11-3.1 0-6.3-.2-9.3-.5.6-5.1 2.3-10 3.6-15Z"/><path fill="#bc2319" d="M594.5 591c.8-8.8 1.6-17.6 3.1-26.3.3 1.5.5 3.1 1 4.6 4.4 2 9-.6 13.6.3-1.8 7.9-4.3 15.5-6.1 23.4-1 4.1-2.7 8.2-2.8 12.6-2.1-.2-4.3-.2-6.4.1-7 1-14.2-.6-21.1 1-2-5.9-4-11.9-5.3-18l2.5-1.6c6.5 1.6 13.2.6 19.8 1l1.7 2.9Z"/><path fill="#bd2319" d="M524 566.8c1.1 1.2 2 3.3 4 3.1 5.6 0 11.4.9 17-.7 2.7 10.8 3.7 22 6.5 32.7l2.2-14.6c4.7.8 10.2 1.8 14.2-1.5-1 7.8-2.8 15.5-4.5 23.2l-.6-2.8c-4.7-.1-9.3-1.2-14-.6-5 .7-10.1.4-15.2 0h-.3c-3-13-6.8-25.8-9.3-38.8Z"/><g fill="#c3261c"><path d="M687.2 566.7c1.5 3 2.3 6 3.4 9.1l.2-6 2.2-.7c6.4 1.4 13 1.3 19.4.2l-.1 18c-2 .3-4.2.7-6.3.7h-29c-2.5 0-5-.2-7.3-.7-3.1-4.6-4-10.5-7.7-14.7-.6 4.4-.3 8.9-.4 13.4v49.6h-.5c.1-10.1 0-20.2-.2-30.3l-.1-18a31 31 0 0 1-18.3-1.3l.1-17H662l2.6 2v-2H685l1.6 1.8.6-4.1ZM23.1 570c7.7-.2 15.6.8 23.1-1.1 0 6.4.3 12.8-.1 19.1-7.6-.1-15.2.3-22.8-.1-.2-6-.3-12-.2-18ZM490.1 569c5.2-.2 10.4 0 15.6 0v19c-5.3 0-10.7.6-15.8-.7 0-6 0-12.2.2-18.3ZM556 568.9c6.5 1.7 13.3.8 20 1.1 4 .2 7.8-1 11.7-.3 1.6 6.2 4 12.1 5.1 18.3-6.6-.3-13.3.7-19.8-1l-2.5 1.7-.4.3c-.3-1.2-.4-2.5-.6-3.7a74 74 0 0 1-.9-1l-.7 1.5c-4 3.3-9.5 2.3-14.2 1.5.5-6.2 1.4-12.3 2.3-18.4ZM403.2 570c4.2-.1 8.5-.6 12.6.7 0 5.7 0 11.3-.2 17-4.1.5-8.3.5-12.4.2 0-6-.2-12 0-18ZM406 684c4.2.1 8.6-.5 12.8.6-.7 3.7-.3 7.5-.5 11.3h-12.4c-.3-4-.2-8 0-12Z"/></g><g fill="#bc2219"><path d="m221.3 586.8 1.5-3.1c.7 7.7.2 15.4.2 23.2-4.1-3.1-9.6-1.6-14.3-2-.2-6-.1-12 0-18.1 4-1.2 8.5-1.1 12.6 0ZM642.5 586a31 31 0 0 0 18.3 1.3l.1 18c-6.1-.1-12.3-.9-18.3.9-.2-6.8 0-13.5 0-20.2ZM669.7 587.3c2.4.5 4.8.8 7.3.8 9.6-.1 19.3-.2 29 0 2.1 0 4.2-.5 6.3-.9v19c-2.4.5-4.8.9-7.2.8-8.3-.2-16.6.5-24.9-.6l-.4 2.7c-3.5-7.2-7-14.4-10-21.8Z"/></g><path fill="#bb2219" d="M251.2 586.9c3.7 1 8.8 2.5 10.8-2 .4 7.2.2 14.5 0 21.8-3.5 0-7.2.3-10.7 1V587Z"/><g fill="#b82017"><path d="M124.2 587c2.3 1.5 5.2 1 7.8 1.2 2.3 0 4.7.5 6.9-.6l.2 1.2c.6 9 0 18.1.3 27.2.7 3-2.5 4.5-4.5 6-3.6 2.3-6.8 5.2-10.6 7.1-.4-14 0-28.1 0-42.2ZM355.7 588l2.4 2c4 0 8.5-.6 12.1 1.5 2.3 4.4 2.2 9.7 4.4 14.1 1.7 2.3 4 4 5.6 6.4-.9 3.8-3.7 6.9-5.4 10.3a84.3 84.3 0 0 1-12.6-8.5c-2.5-8.5-4.7-17.2-6.5-25.8ZM281.1 692.8c1.6.7 3.2 1.2 4.9 1.8 4.6-.9 9.2-.8 13.8 0l2.2-2c-.2 4.2-.2 8.4-.6 12.6-4.1 3.1-8.7 5.6-13.2 8-2.6-6.8-5.1-13.5-7-20.4ZM251.4 695.6c3.3-1.7 7-.3 10.5-1 3.8-.8 7.7.9 11.4-.7-.7 4.8-1.8 9.5-3.3 14.1-4.4 1.8-8.8 3.7-13.4 4.8l-5.2-17.2Z"/></g><path fill="#b61f15" d="M274.5 602.5c5-1.1 10.3-.4 15.4-.6 3.4-.1 6.9 0 10.2.8 0 4 .2 8.2 0 12.3.1 2.4-2 4.1-3.3 6-3 3.4-5.5 7.3-8.9 10.5-4.6-9.6-9.1-19.2-13.4-29Z"/><path fill="#b51e15" d="M208.7 605c4.8.3 10.2-1.3 14.3 1.9 0 4.4 1.3 9.5-2 13.2-2.8 3.4-4.5 8-7.9 10.7-2.3-2.3-5-5.2-4.6-8.8.2-5.7 0-11.4.2-17Z"/><g fill="#b41e15"><path d="M533.6 605.6c5.1.4 10.2.7 15.3 0 4.6-.6 9.2.5 13.9.6l.6 2.8c-1 6.3-3 12.4-3.7 18.8-6.2 2.6-12.3 5.6-18.6 8-2.7-10-5.3-20-7.5-30.2ZM597 605.7c2-.3 4.2-.3 6.3 0 .3 6-.8 11.9-.7 17.9-6.2 4-11.7 9-18.2 12.6-2.9-9.9-6-19.6-8.6-29.5 7-1.6 14 0 21.1-1Z"/></g><path fill="#b31d14" d="M642.6 606.1c6-1.7 12.2-1 18.3-.8.1 10 .3 20.2.2 30.3-6 2.9-11.8 6-17.8 8.8-.4-1.5-.8-2.9-.7-4.4v-33.9Z"/><path fill="#101010" opacity=".3" d="M723.8 637.8c3.2-2.7 4.5-6.8 6-10.6 0 2.2-.5 4.4-1 6.5-4.2 6.1-10.2 10.6-15.2 16-3.4 3-6 8-11 8 8-5.6 14.1-13.3 21.2-19.9Z"/><path fill="#3d3d3d" opacity=".8" d="M147 634.8c.8-1.3 1.5-1.2 2 0h-2Z"/><path fill="#161616" opacity=".4" d="M190.4 637.7c1.3-.8 2.5-2.5 4.3-2.2 2.2 2.1 3.5 5 5.7 7.3a18.5 18.5 0 0 0 17.7 5 63 63 0 0 1 5.3-.6l-.5 1.6c-1.5.6-1.5 2.4-.4 3.3-.4 5 .5 10 2.7 14.6 1.2 4.1 2 8.4 3.2 12.6-2.3-1.2-2-4.3-2.6-6.4-.2-3.7-2.8-6.7-3.2-10.4-1.3-4.5-.8-9.4-1.3-14-4.2.4-8.9 2.5-12.8-.2-3.8.5-6.4-2.4-9.2-4.5-2-1.9-3-4.5-4.6-6.6l-4.3.5Z"/><path fill="#1b1b1b" opacity=".3" d="M560.5 646.6c2.5-1.3 5.1-2.4 7.8-3.3l3.8 4.7c-2-.3-3.3-1.6-4.6-3-2.3.6-4.5 2.1-7 1.6Z"/><path fill="#131313" opacity=".2" d="M551.3 650.9c2.8-1.6 5.8-3 8.9-4.1a10.1 10.1 0 0 1-9 4Z"/><path fill="#141414" opacity=".3" d="M669 651.7c.8-1.6 2.2-2.6 3.6-3.5 1 2-1.6 4.8-3.5 3.5Z"/><path fill="#3f3f3f" opacity=".6" d="M222.5 652.1c-1-.9-1-2.7.4-3.3l-.4 3.3Z"/><path fill="#0e0e0e" opacity=".5" d="M572.9 648.9c3.5 3.3 8.5 4 13 4.6-3 .7-6-.4-9-.7a4 4 0 0 1-4-4Z"/><g fill="#dd342a"><path d="m345.5 655.5 13.3-5.3c1.7 5.2 4.2 10.2 5.3 15.5l-.5 2.3c-3.3.5-6.6 0-9.8-.5-2.8 0-5.6.8-8.4.6-.3-1.8-.3-3.6-.5-5.4-.1-2.4.3-4.8.6-7.2ZM480 655.9c3.8-2.6 8.6-1.2 13-1.6 3.5-.5 6 2.7 9 3.6 2.1-.3 4-1.1 6-1.8 0 6.3.7 12.6-.1 18.9-4.6-4.1-8.7-8.7-13-12.9-3.5 0-7.2-.6-10.5.3-2.2 1.8-4 4-6 5.9l.8 2.1a21.2 21.2 0 0 1-8.8 1.5c0-3 0-6.3-1-9.2l-.2-.8c3.5-2.1 7.2-4 10.8-6Z"/></g><path fill="#dc3429" d="M242.7 653.6a216 216 0 0 1 8.5-3.1 202 202 0 0 1 7.1 19.2c-3 2-6.5 2.7-10 2.2l-4.5-3-.5-.3c-1.3-4.3-2.6-8.5-3.7-12.8.4-1.4 2-1.6 3.1-2.2Z"/><path fill="#db3329" d="M270.2 655.2c2.3-2 5.2-3 7.8-4.2l5.6 2.3c1.8 5.7 4.4 11.1 5.8 17-3.4 2.2-7.6 1.7-11.4 1.7-3.5 0-7-.2-10.3-.9a175 175 0 0 1 2.5-16Z"/><path fill="#dd3429" d="M299.3 655c5.1-1.4 10.4-3 15.7-3.1-1.9 6-3.5 12.1-6 17.9-2.8 3.1-8.2 3.3-11.6 1.1.5-5.3 1.6-10.5 1.9-15.8Z"/><path fill="#de342a" d="M392.7 654c12.8-.6 25.5 0 38.3-.3 2.3.2 5.1-.6 6.9 1.4 3.1 3.1 6.4 6.1 9 9.6-.3 2-.3 4.1-.3 6.2-2.6-.2-5.9 1-7.8-1.2-2.4-2.6-4.6-5.7-7.8-7.5-4.2-.6-8.4-.1-12.6 0l-.2 8.6c-3.8.6-9.4 3.2-12-1-.6-1.1-.6-2.5-1.6-3.4-3.8-4.2-8.4-7.9-11.9-12.4Z"/><path fill="#121212" opacity=".6" d="M687.6 657.8c4.8 1 9.9 1 14.8 0a15 15 0 0 1-14.8 0Z"/><path fill="#d7801e" d="M418.4 662.1c4.2 0 8.4-.5 12.6 0 3.2 1.9 5.4 5 7.9 7.6-2.4 2-4.4 4.5-7 6.3-4.5.7-9 .2-13.6 0v-13.8m6.5 7.8 5.4-.1c-.8-2-6.2-3-5.4 0Z"/><path fill="#cf2d22" d="M469.4 662.7c1 3 1 6.1 1 9.2 3 .1 6-.4 8.8-1.5l.6-.2 5.5 5.5c4.6.3 9.2-.2 13.7.3 2.6 2 5.2 4.2 6.5 7.2-3.3.1-6.5.1-9.7.3h-.5c-.5-.7-1-1.5-1.6-2.1-5.2-.4-10.5-.1-15.7-.2-4 .2-6.3-3.8-8.7-6.3-.5-4-.3-8.2.1-12.2Z"/><path fill="#cf7f22" d="M353.4 668c1.7 3.2 3 6.6 4.4 9.9-2.5 0-5 0-7.5-.3 1-3.2 1.9-6.4 3-9.5Z"/><path fill="#432606" d="M424.8 670c-.8-3.1 4.6-2.2 5.4-.1-1.8 0-3.6.2-5.4 0Z"/><path fill="#77440a" d="M487.1 668c2.4 0 5.3-.6 6.8 1.7l-6 .3-.8-2Z"/><path fill="#c6281e" d="M297.4 670.9c3.4 2.2 8.8 2 11.6-1.1-2 7.7-4.5 15.3-7 22.8l-2.2 2c-4.6-.8-9.3-.9-13.8 0-1.7-.6-3.3-1-4.9-1.8-1.7-3-2.8-6.5-3.4-10 5 .2 9.9-.2 14.7.7l1.4-1.5a25 25 0 0 0 1.7 4c.5-5 1-10.1 2-15.1Z"/><path fill="#2f2f2f" opacity=".7" d="M522.9 699.3c.2-7.6-.8-15.5 2.6-22.6a92.7 92.7 0 0 0-1.4 22l-1.2.6Z"/><g><path fill="#181818" opacity=".5" d="M228.5 679.6c2.2 5.3 3.6 11 4.9 16.5h-1l-1-3.5c-.4-2-.9-4.1-1.7-6.2-.8-2.2-1.2-4.5-1.2-6.8Z"/></g><g><path fill="#c4261d" d="m266.3 680.5 1 3.3c3 0 6 0 8.8-.7-.6 3.6-1.6 7.1-2.4 10.7l-.4.1c-3.7 1.6-7.6 0-11.4.8-3.5.6-7.2-.8-10.5.9-1.2-4.2-2.7-8.3-3.6-12.6 4.7-.1 9.6.6 14.1-.9.7 3 1.2 6 1.7 8.9 2.5-2.7 1.5-7.1 2.7-10.5Z"/></g><g><path fill="#c0241b" d="M438 683.9c2.5 4 3 8.8 5.1 12.8 1.7 1.1 3.5 2.1 5.1 3.3-4.3.5-8.9.9-13.1 0-2.5-4.6-3.5-9.8-5.2-14.7 2.8 0 5.9.6 8.2-1.4Z"/></g><g><path fill="#ba2118" d="M338.4 687c3 .1 6.2.1 9.4-.1-1 7.8-4.1 15.3-6 23-4.3 1-8.7 2.5-13.3 2.5 2.9-8.6 6.6-17 9.9-25.4Z"/></g><g><path fill="#010001" d="M482 687.4h8.6c.7 1.2 2.1 2.1 2 3.7l-1.9 2.7c-4.1.5-6.3-3.7-8.7-6.4Z"/></g><g><path fill="#bb2218" d="M361 688.8a7 7 0 0 0 10.3.2c1.1 2.3 1.6 4.8 2.4 7.2 1.5 2 3.4 3.6 5.1 5.4a70.2 70.2 0 0 1-4.8 6.3l-9.4-5.6c-1-4.5-2.8-9-3.5-13.5Z"/></g><g><path fill="#b51f16" d="M405.9 696h12.4c0 3.6.4 7.3-.2 10.9-3.7 4.3-7.8 8.2-12 12-.9-7.5-.2-15.3-.2-23Z"/></g><g><path fill="#151515" opacity=".4" d="m522.9 699.3 1.2-.5-.8 2.7c-.7 2.3-1.2 4.7-1.6 7.1-3 4.6-7.2 8.3-11 12.2-3.5 3.7-7.7 7.9-13.3 7.5-2.7 1-5.6.5-8.4.6-2.5 0-5.1.5-7.5-.5-3.3-.7-6.7-1.6-8.8-4.3h1.2a30.6 30.6 0 0 0 28.3 2c3.5-2 6-5.2 9-8 3.2-3.3 7-6.3 9.3-10.5 1.1-2.6 1.6-5.5 2.4-8.3Z"/></g><g><path fill="#151515" opacity=".4" d="M450.5 717.5c2-.5 4-1.3 5.4.8 3.9 4.8 10.4 6.2 16.4 5.8-3.3 1.7-7 0-10.4-.3-3.5-.3-5.8-3.2-8.1-5.5l-3.3-.8Z"/></g><g><path fill="#303030" opacity=".8" d="M274 725.7c.6-1.2 1.3-1.2 2 0l-1 .5-1-.5Z"/></g></svg>