<?xml version="1.0" encoding="utf-8"?>
<!-- Generator: Adobe Illustrator 22.1.0, SVG Export Plug-In . SVG Version: 6.00 Build 0)  -->
<svg version="1.1" id="svg2" xmlns:svg="http://www.w3.org/2000/svg"
	 xmlns="http://www.w3.org/2000/svg" xmlns:xlink="http://www.w3.org/1999/xlink" x="0px" y="0px" viewBox="0 0 295 80"
	 style="enable-background:new 0 0 295 80;" xml:space="preserve">
<style type="text/css">
	.st0{fill:#FFFFFF;}
	.st1{fill:#B02A30;}
</style>
<g id="g11" transform="matrix(1.25,0,0,-1.25,-382.95,843.7)">
	<path id="whiteplate" class="st0" d="M518.9,614.2c3.1,0.8,5.8,1.9,8.4,3.5c8.2,5.1,12.5,13.5,12.9,25.1c0.4,4.1-0.2,8.5-2.1,13.1
		c-3.7,9.1-11.2,14.6-22.6,16.6H334.3c-1-0.1-2.4-0.2-4-0.7c-3.2-0.8-6.1-1.9-8.8-3.5c-8.6-5-13-13.3-13.1-24.8l0.2-4.1
		c0.4-3.4,1.3-6.6,2.6-9.5c4.2-9.4,12.2-14.8,24-16.3h180L518.9,614.2"/>
	<path id="GTA" d="M445.3,663.4c-10.7,0-17.3-1.5-19.9-4.6c-1.6-1.6-2.3-4.2-2.4-7.6v-0.8h14.5c-0.1,0.4-0.1,0.8,0,1.3
		c0.1,0.9,0.5,1.4,1.1,1.6l3.7,0.3h10.1c2.5,0,4.2-0.5,5-1.5c0.7-1,1.1-1.8,1.1-2.4V645c-1.4,1-2.4,1.7-2.8,1.9
		c-2.2,1-5.4,1.5-9.4,1.5h-2.7c-8.2,0-13.7-0.7-16.5-2.1c-3.5-1.9-5.4-5.2-5.5-10v-1.6c0.1-2,0.3-3.6,0.7-4.9
		c0.6-1.7,1.7-3.2,3.3-4.5c1.2-1,3.3-1.7,6.2-1.8l8.6,0h9.5c2.1,0.2,3.9,0.7,5.3,1.5c1.2,0.7,2.5,1.7,3.8,3v-4.5h14v26.9
		c0,1.6-0.3,3.2-0.9,4.8c-0.8,2.2-1.9,3.8-3.3,4.9c-2.8,2.2-8.8,3.4-17.8,3.4H445.3z M337.5,662.1c-5.8,0-9.9-0.9-12.3-2.6
		c-2.7-2-4.1-6.3-4.1-12.8v-6.4c0-7.3,1.1-11.8,3.5-13.5c1.9-1.4,3.8-2.3,5.7-2.8c1.6-0.4,3.8-0.6,6.4-0.6h17
		c6.1,0,10.2,0.6,12.2,1.8c1.7,1,2.9,2.3,3.6,3.7c0.5,1.1,0.8,2.8,0.8,4.9v12.2h-26.1v-8h14.9c0.2-1.5-0.2-2.8-1-3.8
		c-0.8-1-2.2-1.5-4.1-1.5h-15c-0.7,0-1.5,0.2-2.4,0.5c-1,0.3-1.7,0.7-2.1,1.2c-1,1.1-1.5,2.7-1.5,4.8v9.2c0,1.7,0.7,3.1,2.1,4
		c0.8,0.5,2.5,0.8,5,0.8h12.3c2.5,0,4.2-0.4,5.2-1c0.8-0.7,1.1-1.6,1-3H370v2.5c0,2.1-0.3,3.7-0.8,4.9c-0.7,1.4-1.9,2.8-3.7,3.9
		c-0.8,0.6-2.5,1.1-5.1,1.4l-4.3,0.3H337.5z M372.5,662.1V653h16.8v-29.6h12V653h17.1v9.1H372.5z M441,640h12.6c1.7,0,3-0.3,3.8-0.8
		c0.8-0.6,1.3-1.2,1.3-2v-1.5c0-1-0.4-1.9-1.2-2.5c-0.7-0.5-1.9-0.8-3.6-0.8h-14.2c-1.5,0-2.5,0.2-3.1,0.8c-0.7,0.5-1,1.3-1,2.3v1.1
		c0.1,1.3,0.5,2.2,1.5,2.8C437.9,639.7,439.2,640,441,640z"/>
	<path id="_x32_" class="st1" d="M511.1,662.5h-17.7c-5.9,0-9.9-0.8-11.8-2.5c-1.9-1.7-2.8-3.9-2.8-6.6v-5.9h11.6v2.9
		c0,1,0.4,1.7,1,2.4c0.8,0.6,2,0.9,3.7,0.9h14.4c1.4,0,2.5-0.2,3.1-0.6c0.7-0.5,1-1.3,1-2.3v-1c0-1-0.2-1.9-0.7-2.4
		c-0.4-0.7-1.3-1-2.7-1l-18.1-1.5c-6-0.5-9.7-1.5-11-3c-1.6-1.9-2.3-4-2.3-6.2v-12.4h47.2v9h-34.4c-0.5-0.1-0.8,0.1-1,0.2
		c-0.2,0.1-0.2,0.4-0.2,0.8v0.4c0.1,1.1,0.5,1.7,1.6,2l0.5,0.2l2,0.3l18.7,1.3c4.7,0.2,8,1.1,9.7,3c1.7,2,2.5,4.6,2.5,7.9v2
		c0,4.6-1.2,7.9-3.5,9.8C519.7,661.8,516.1,662.5,511.1,662.5"/>
</g>
</svg>
