<svg xmlns="http://www.w3.org/2000/svg" viewBox="0 0 240.95 77.6"><title>logo</title><path d="M195.36,77.91,195,76.7v1.21H179.64v-31l-4.22,12v19H145.8l-.55-5.51-.4,5.51H129l2.37-17.61-3.74,3.45h-5.11V77.91H107.16V30.38h20.43l6.87,6.87.93-6.87h31.37l.91,3.62.79-3.62h25l.65,2.15V30.38h35.49v13.7H221.2v1.71h7.23v14H221.2v4.32h8.38v13.8ZM160,66.34V59.11l-2.07-6.33ZM84.35,77.91l-2.13-5.16-1.85,5.16H57.81l-.58-5.85-.51,5.85H10V30.38H27.65l.85,5.79.95-5.79H46.37v7.54l1-7.54H81l.7,2.58.57-2.58H98.73L90.34,53.54l10,24.37ZM71.11,60.68l2.68-7.06L67.56,37.46Z" transform="translate(0 -0.32)"/><path d="M240.94,25.57c-21-1.16-48.86-2.7-79.31-6.27-22.17-2.5-47-2.31-70.75-3.37C59.08,15.35,30.17,10.82,0,10.05V.32c30.94.58,60.52,5.3,93.1,6,23.71,1.06,48.57.77,70.74,3.38,29.4,3.37,56.38,4.91,77.1,6.07v9.83" transform="translate(0 -0.32)" style="fill:#f4e314"/><path d="M208.85,33.38h17.73v7.7H218.2v7.71h7.23v8H218.2V67.11h8.38v7.8H208.85V33.38Zm-70.84,0h13.88l6.36,41.53h-9.73l-.77-7.8h-5.11l-.58,7.8h-9.64L138,33.38Zm9.06,26.21-1.64-17.83h-.86l-1.35,17.83ZM50,33.38H63.9l6,39L77,53.61,69.2,33.37h9.54L82,45.52l2.7-12.15h9.73L87.13,53.61l8.77,21.3H86.35L82,64.41l-3.76,10.5H60.53l-.78-7.8h-5.1L54,74.91H44.33L50,33.37Zm9.06,26.21L57.34,41.76h-.77L55.22,59.59Zm51.08-26.21V74.91h9.35V60.75h6.94l6.07-5.59V39.54l-6.17-6.17H110.16Zm9.35,7.7h3.66V53.13h-3.66ZM13,33.38h12l3.27,22.35L32,33.38H43.37V74.91H34v-26l-4.14,26H26.41l-4.05-26v26H13V33.38Zm141.68,0L163,58.63V74.91h9.45V58.43l8.77-25.06H170.88l-3,13.79-3.47-13.79h-9.73Zm27.95,0h8.57l5.88,19.46V33.38h9.35V74.91h-8.87L192,56.79V74.91h-9.34V33.38" transform="translate(0 -0.32)" style="fill:#df2933"/><path d="M0,5l.19.48.1-3.47H1.45l-.2,6.27L.1,8.22,0,8.12V5ZM3.18,7.16h.87L4.14,3.3H3.28Zm-1.35.19L2,2.92l.87-.87,1.64.1,1,.87L5.3,7.55l-1,.77H2.7ZM6.55,8.51,6.84,3.4H6V2.25l3.18.09-.1,1.25L8.19,3.5l-.29,5Zm7.71-5.88.87.87L15,5l-1.35-.1.09-1.15-.87-.1-.28,3.86h.86l.1-1.45,1.35.1L14.84,8l-1.06.77-1.64-.1-.86-1,.38-4.44,1-.86,1.64.19Zm3.47,2.7L17.83,4h-.77L17,5.23l.77.1ZM15.32,8.9l.49-6.17,2.5.09.77.87L19,5.33l-.77.58.77.67-.2,2.51L17.54,9l.19-2.5-.86-.1L16.67,9ZM20.62,8l.87.09.19-3.85-.77-.1Zm-1.34.29.29-4.53L20.62,3l1.55.09.86,1-.29,4.43-1,.77-1.64-.1-.86-.86Zm4.14-1,1.35.1-.1.87h.87l.1-1.26-1.16-.19-.87-1L23.71,4l1.06-.77,1.44.09.87,1L27,5.43l-1.26-.1.1-.87H25l-.09,1.26L26,5.91l1,1-.2,1.93-1,.77-1.64-.19-.87-.87.1-1.16Zm4.14.39,1.26.1-.1.77.87.09.09-1.25-1.15-.19L27.66,6.2l.19-1.83,1-.78,1.44.1.87,1L31,5.81l-1.15-.09L30,4.85l-.86-.1L29,6l1.06.2,1,1.06-.19,1.92-1,.68-1.64-.1-.77-1,.09-1.06ZM45,8.7l.77.1L45.68,6h-.09L45,8.7Zm-1.83,2.22,1.54-6.17,2.12.19.29,6.27-1.25-.1L45.78,10l-1.06-.1L44.53,11l-1.35-.1Zm6.26.58.48-6.27,1.74.2L52,8.7l.86-3.18,1.64.1L54,11.88l-1.25-.09.48-4.63L52,11.69l-.58-.1-.29-4.72-.48,4.72-1.16-.09ZM56,9.67l.77.09V7.06L56.57,7Zm-1.74,2.21,1.25.1.29-1.16,1.06.1v1.16l1.35.19-.38-6.36-2-.1-1.54,6.07Zm4.34.29L59.18,6l1.25.1.77,3.57.29-3.47,1.16.09-.58,6.17-1.16-.1L60,8.51l-.29,3.76-1.15-.1Zm9.06-5.59.19,3.47.77-3.37,1.25.19-1.63,6.07-.87-.09-.19-3.67-.78,3.57-.86-.1-.68-6.26,1.35.1.19,3.27.78-3.18Zm2,6.46,1.35.1L71.42,7l-1.26-.1L69.68,13Zm2.7.19.39-5.11h-1L71.9,7l3.18.19L75,8.32l-.87-.1-.38,5Zm2.7.2.48-6.27,1.25.1-.19,2.6h1l.1-2.51,1.35.1-.48,6.17-1.25-.1.19-2.41-1-.09-.09,2.5-1.35-.09Zm6.17.28.29-6.16,1.25.09.87,3.47.19-3.47,1.16.1-.39,6.17H83.56l-1-3.86-.2,3.76-1.15-.1Zm5.3-.86h.86L87.61,9h-.87l-.19,3.86ZM85.2,13l.19-4.43,1.06-.87,1.54.1.87,1-.19,4.43-1,.87L86.07,14l-.87-1Zm4.72,1.06.19-5h-.86V7.84L92.43,8l-.1,1.15h-.87l-.19,5-1.35-.1Zm2.7.1.19-6.27,1.35.1-.09,2.5.86.1L95,8l1.35.09-.2,6.17H94.84l.09-2.5h-.87L94,14.29l-1.35-.09Zm4.14.09.39-6.17H98.4l-.29,6.27-1.35-.1Zm2,.1.29-6.27,1.25.1.87,3.57.19-3.47h1.16l-.39,6.26L101,14.49l-1-3.76-.19,3.66Zm4.14-5.21,1-.77h1.63l1,.87-.1,1.45h-1.35l.1-1.16h-.87l-.19,3.86H105l.09-.87h-.48V11.4h1.83l-.1,2.41-1,.87-1.64-.1-.86-.87.09-4.53Zm6.75,5.59.09-5-.86-.09V8.51l3.18.1V9.76h-1l-.19,5Zm3.95-1h.87l.09-3.85h-.86Zm-1.35.29.19-4.53,1-.87,1.64.1.86.87-.19,4.53-1,.77h-1.55l-1-.87Zm6.07.87.19-6.17h1.35l-.19,5.11h1.45v1.15l-2.8-.09ZM123,14h.87l.09-3.85-.87-.1L123,14Zm-1.35.2.19-4.44,1-.86,1.54.09,1,.87-.19,4.53-1,.77H122.5l-.87-1Zm4.05-1,1.35.1v.77l.86.1V12.85l-1.15-.1-1-1,.1-1.93,1-.77,1.45.09.87.87v1.16l-1.16-.1v-.77l-.87-.1V11.5l1.16.19,1,1-.09,1.84-1,.86-1.63-.09-.87-.87V13.23Zm4,2.12.19-6.17,2.79.1-.09,1.16-1.45-.1V11.5l1.25.09-.09,1.16-1.16-.1-.1,1.55,1.45.09v1.16l-2.79-.1Zm20.81.1h.77l.29-3.76-.86-.1-.2,3.86Zm-1.44,1.06.48-6.17,2.5.19.87.87-.29,4.53-1,.77-2.6-.19Zm5.49-.87.87.1.29-3.86-.87-.09Zm-1.35.19.39-4.43,1-.77,1.64.1.87,1-.39,4.43-1,.77-1.64-.09-.87-1Zm6,1.45.67-6.26,1.16.19.77,3.56.38-3.47,1.06.1-.57,6.17-1.16-.1-.77-3.85-.39,3.76Zm5.39-.67.87.09.48-3.85-.86-.1Zm-1.35.09.77,1.06,1.64.19,1.06-.77.49-4.53-.78-.86-1.63-.29-1,.77-.58,4.43ZM168,18.15l.57-5-.86-.1.09-1.16,3.09.39-.1,1.16-.87-.1-.67,5L168,18.15Zm7.8-5.4.87,1-.19,1.45-1.26-.1.1-1.15-.87-.1-.38,3.86.87.09.19-1.54,1.25.19-.19,1.74-1.06.77-1.54-.19-.87-1,.48-4.43,1-.77,1.64.19Zm3.47,2.89.1-1.35-.77-.09-.2,1.35.87.09Zm-2.5,3.47.57-6.17,2.51.2.77,1-.09,1.64-.78.48.68.67-.29,2.61-1.25-.2.29-2.5-.87-.1L178,19.21l-1.25-.1Zm5.2-.67.87.09.48-3.85-.87-.1Zm-1.25.19.48-4.53,1-.77,1.64.19.77,1-.48,4.43-1,.77-1.64-.1-.77-1Zm4.14-.77,1.26.09-.1.87h.87l.19-1.25-1.16-.19-.86-1.06.19-1.83,1-.78,1.45.2.86,1L188.42,16l-1.16-.2v-.77l-.77-.09-.19,1.25,1.16.19.86,1-.19,1.92-1,.78-1.64-.2-.77-1,.09-1.06Zm4.05.29,1.35.19-.1.77.87.1.1-1.26L190,17.76l-.87-1.06.2-1.83,1-.77,1.54.1.77,1-.09,1.16-1.16-.1.1-.87-.87-.09-.1,1.25,1.06.19,1,1.06-.2,1.93-1.06.77-1.54-.19-.87-1,.1-1.15Zm11.37,1.15H201L201,16.61h-.2l-.48,2.69Zm-1.83,2.12L200,15.35l2,.2.38,6.26-1.25-.1-.09-1.15-1.06-.1-.2,1.16-1.35-.2Zm6.36.58.39-6.17,1.73.1.29,3.28L208,16l1.74.09-.39,6.17h-1.25l.38-4.72-1.15,4.63h-.58l-.39-4.82L206,22.1,204.8,22Zm6.56-1.92.77.09-.1-2.7h-.19l-.48,2.61Zm-1.74,2.31h1.25l.2-1.06h1.15v1.15l1.35.1-.48-6.26-2.12-.1-1.35,6.17Zm4.34.29.48-6.27,1.16.1.86,3.57.2-3.47,1.15.09-.38,6.17-1.16-.1L215.4,19l-.28,3.67Zm9-5.69.19,3.37.78-3.37,1.25.1-1.54,6.17-.87-.1-.29-3.66-.77,3.56h-.77l-.77-6.26,1.35.09.19,3.28.67-3.28.58.1ZM225,23.26l1.35.09.39-6.17-1.26-.09L225,23.26Zm2.7.19.39-5h-1l.1-1.26,3.18.29-.1,1.16-1-.1-.29,5-1.35-.09Zm2.7.19.38-6.26,1.35.09L232,20.08h.87l.19-2.51,1.35.1-.48,6.16-1.25-.09.19-2.41-1-.1-.2,2.51-1.25-.1Zm6.07.29.48-6.17,1.26.1.77,3.56.29-3.47h1.15L240,24.22l-1.16-.1L238,20.27,237.67,24l-1.16-.1Zm4.05-.67.29-4.44.09-.09v4.91l-.38-.38" transform="translate(0 -0.32)" style="fill:#231f20"/></svg>