<svg xmlns="http://www.w3.org/2000/svg" viewBox="0 0 1174.6 459.4">
  <path fill="#fff" stroke="#fff" stroke-miterlimit="10.4" stroke-width=".1" d="M60.5 142.4c18.3-1.3 36.7-.5 55.1-.2 11.4.7 23.3 1.4 33.6 6.7l2.9-1.7 2.8 2.7v.3c-1.8 2.3-.6 5 .2 7.4 2.4 7.3-.5 14.9-1.6 22.2h-34.7a18 18 0 0 0 .2-9.3c-1.3-2.8-4.8-2.6-7.4-3-13.7-.7-27.3-.5-41-.4-5.1.4-10.7-.1-15.4 2.4-4.3 2.9-4.2 8.9-3 13.4l2-2 .9.6 1.4 1-1.6 2.6a36.5 36.5 0 0 0 5.9 1.2c17.6.4 35.2.5 52.8 1.6 6 .2 12.1 0 18 1.6 3.7.7 7.9 3.1 11.4.5a22.7 22.7 0 0 1 5.3 5l-.1 1c-.8 5 1.5 9.7 1.1 14.7a54.7 54.7 0 0 1-12.9 33.8 41 41 0 0 1-27 12.3 394 394 0 0 1-36.8 1c-15.7-.8-31.4-.2-47-2.2-8.1-1.4-18-5.3-20-14.2l-1.4-7c1-5.2 1.5-10.5 2.5-15.7a399 399 0 0 1 34.2.1 27.1 27.1 0 0 0 .6 9.6l2.5-2.1a7 7 0 0 0 3.5 2.4L45 230c3 2.3 7 2 10.6 2h45c3 0 6.2 0 9-1.3 1.8-.9 2.7-2.8 3.8-4.4l-2.3-1.7 2.7-2.1v-3.8a9.6 9.6 0 0 0-1.1-4c-2.3-1-4.7-.8-7-1l-61-3c-7.5-.8-15.7-.7-22.2-5a15 15 0 0 1-6-8.3l-1.3-5.5c2-13 5-26.5 13.3-37.1 7.5-9.7 20.4-12 32-12.5zM177.6 143c18.3-.2 36.6 0 54.9 0 10.3 0 20.7-.4 31 .2 6.4.3 12.8-.3 19 .6 4.4.4 8.9 2.4 13 .1 4.1 1.3 7.3 4.5 9.9 7.8l-2.7.7c1 2.8 2 5.6 2.7 8.5 1.3 10-.8 19.9-3.4 29.4a58.2 58.2 0 0 1-18 30.9 42.6 42.6 0 0 1-25.5 7.7c-16.7.1-33.4-.1-50.2.1 2-9.3 3.5-18.7 5.8-28 13.9-1.3 27.8.3 41.7-.9 3.5-.2 7-1 9.7-3.5l-2.4-2.9a29.7 29.7 0 0 0 3.7-9.7 12.2 12.2 0 0 1 2.2-3.4c.5-2.5 1.1-6.3-1.8-7.6-5-1.6-10.4-1-15.7-1.1-15.5.1-31-.3-46.5.2-6.4 28-12.3 56.2-18.6 84.3-11.3 0-22.5-.2-33.8 0a232 232 0 0 0 3.8-16.9c2.3-9.5 4.7-18.9 6-28.6 2.1-7 3.4-14.3 5-21.5 1.8-6.4 3-12.9 4.3-19.4 2.2-9 3.9-18 6-27zM325.7 142.8c11 .3 22.2 0 33.4.1l-15.2 69.6c-.9 4.4-2.4 8.8-1.4 13.3a4.5 4.5 0 0 0 4 1.8c23.5.2 47-.3 70.6.2-2.3 9.5-3.7 19.2-6.5 28.5-36.6.2-73.3-.1-110 .1 2.6-11 4.5-22 7.5-32.9l14-64.8c1-5.4 1.7-10.8 3.6-15.9zM449.2 142.9h33.6L458 256.3c-11.5.3-23-.3-34.3.2 2.8-5.3 2.9-11.4 4.3-17.2l14-64.3c1.8-10.8 4.8-21.4 7.2-32.1zM496.2 142.9h54.3c14 25.3 28.3 50.5 42.1 76 1.4 3.4 5.4 2.6 8.2 1.7l-2.5-4.5v-1.6l2.8 2.1c3-14.2 6.4-28.3 9.2-42.6 2.7-10.4 4.3-21 7-31.4 11.2.6 22.4 0 33.5.3l-24.6 113.4H572L528.9 178a59.2 59.2 0 0 0-6.8 0q-8.8 39-17 78.1c-11.5.5-23-.3-34.4.4 1.6-2.8 2-6 2.6-9.2 7.7-34.8 14.8-69.8 22.9-104.5zM664.4 142.8c44.4.2 88.9 0 133.4.1l-6.3 29c-16.6.2-33.1-.3-49.7.3-1.7 3-1.8 6.5-2.6 9.7-5.4 24.8-10.9 49.6-16.2 74.5-11.5.3-23-.4-34.4.3 2.2-4 1.6-8.9 2.8-13.2a4 4 0 0 0-1.2-4.3 3.7 3.7 0 0 0 2.8-3.2 214.5 214.5 0 0 0 4.7-22l-1.6-2.1 6.2-29.1a20.5 20.5 0 0 1 2-6l1.8.7c-.5-1.6 1.2-5.4-1.5-5.5-15.4-.2-30.8 0-46.2 0 .7-6.8 2.4-13.3 3.6-19.9a45.8 45.8 0 0 1 2.4-9.3zM811.3 142.9H845l-6 26.7c-1 4.6-2.4 9.1-1.6 13.8l2.5-1.4c4.1.7 8.3.4 12.5.4l73.4.1-1 .6-3.6 2.2c-1.7 8-3.4 16-5.3 23.8h-68.4c-5.7 0-11.5-.2-17.2.3-1 6.4-4.4 13-2.4 19.4a12.5 12.5 0 0 0 0 1.5c22.6.8 45 .2 67.6.4 7.3.3 14.6-.7 21.8.6-1.9 8.3-3.5 16.7-5.4 25-41.7.2-83.5-.1-125.3.2 5.8-30.2 13.3-60.2 19.2-90.4.5-4.2 2.2-8.1 3-12.3a94.6 94.6 0 0 1 2.5-11z"/>
  <path fill="#fff" stroke="#fff" stroke-miterlimit="10.4" stroke-width=".1" d="M859.8 142.5c6 .8 11.9.3 17.8.4h57l.5 2c-1.8 8-3.4 16-5.3 24h-74.6c.8-8.9 4-17.4 4.6-26.4zM949.3 142.7c33 .5 66.2 0 99.3.3 9.8 0 20.4.2 28.7 6.2l2.5-2.6a20 20 0 0 1 1.5 1.7c-.2 2.2-.4 4.6.7 6.7l1.4 3.7c1 7.4-.3 14.8-1.8 22-2 7.6-4.4 15.5-9.8 21.3-3 3.3-7 5-10.7 7.3-.7 2.1 0 4.3.2 6.5l2.1-1.9a11.1 11.1 0 0 1 6.8 5c-.7 5.2.5 10.6-.6 15.8-1.3 7.3-3 14.5-4.4 21.7-11.2 0-22.5-.3-33.7.1.3-5.5 1.8-10.9 2.4-16.4a22.1 22.1 0 0 0 0-8.4c-1.2-3-4.7-3.1-7.4-3.3-10.6-.6-21.3-.3-32-.4-5 .1-10-.3-15 .3.7-7 2.8-13.6 4.1-20.5.6-2.6 1-5.4 2-8 1.5-.6 3.3-.5 4.9-.5h42c3.4-.4 8-.4 10-3.6l-1.4-3.2c2-4 3-8.4 4-12.7l2 .9c-.1-3 0-7.4-3.6-8.1-5.6-1.2-11.3-.6-17-.7-16 0-32-.2-48 0-2.2-.4-2.4 2.2-2.8 3.7-5.2 25.8-10.7 51.5-16 77.3a10.3 10.3 0 0 1-1 3.3c-11.3.5-22.7-.3-34 .3 1.8-3.7 2.3-7.8 3-11.8 3-19.8 8.6-39 12.2-58.7 2-8 2.8-16.2 5-24.2 1.6-6.3 1.7-13 4.4-19zM669.6 285.7c1.4 1.2 2.9 2.5 4.9 2.3 15 0 30-.1 44.9 0l.8 1.8c-3.3 14.2-6.3 28.6-9.6 42.8a29.6 29.6 0 0 0-.6 10.6v.3a5.4 5.4 0 0 0 4.4 2c36.9.1 73.7-.2 110.6.1l-7.8 33.8H712.5a62.9 62.9 0 0 0-12.4.7c-1.5 7.8-4.1 15.5-4 23.6 0 3.2 4 3.9 6.4 3.7h111.1a27.7 27.7 0 0 1 5.7.8l-7.6 35.9H638.5c2.1-11.7 5.1-23.2 7-34.9 1.7-4.7 1.6-9.8 3.3-14.5 1.7-4.5 1-9.5 3.2-13.8 2.3-11.7 5.6-23.1 7.3-35a53.5 53.5 0 0 1 2-7.6c1.1-3.7.8-7.7 2.1-11.3 2.2-6.5 3-13.3 4.2-20 1.5-4.5 3.3-9 3-14l1.5-4h-3.3l.8-3.3z"/>
  <path fill="#fff" stroke="#fff" stroke-miterlimit="10.4" stroke-width=".1" d="M737 285.5c1.4 1 2.6 2.5 4.4 2.5h102.7l-8 36.5c-26.2.2-52.3 0-78.5 0-9.7.4-19.5-.6-29 .8 2.8-13.3 5.5-26.6 8.5-39.8zM853.6 329.9c1.7-14.2 5-28.2 7.8-42.2 16 .7 31.9 0 47.8.3l-21.7 103.7a25 25 0 0 0-.1 10.2 32.9 32.9 0 0 0 2.7-4.1l1.3 2.1 1.7 1.1c-1 .9-2.2 1.7-3.3 2.5 32.9.7 65.8 0 98.7.4l.5 2c-2.8 12.7-5.2 25.5-8 38.3-50.3-.2-100.6 0-150.9-.1 1.9-14.6 5.8-28.8 8.6-43.2 5-23.7 9.8-47.4 14.9-71zM1026.2 309c1.3-7.2 3.5-14.3 4.2-21.6a35.5 35.5 0 0 0 4.1.6c14.6.2 29.2-.4 43.8.3l-19.3 92.3c-1.2 7-3.9 14-2.6 21.3a35 35 0 0 0 3.1-3.8l1 1.7.6 1.2-2.2 2.2c5.5 1 11 .5 16.6.6 27.7 0 55.4-.3 83.1.1-3 13.4-5.4 27-8.5 40.3-50.5-.3-101 0-151.6-.1 1.7-13.2 5.2-26 7.7-39 1.5-8.6 3.6-17 5.5-25.5 4.3-23.6 10-47 14.5-70.6zM483.2 311a109.2 109.2 0 0 1 62.3-22.4c8.7-.2 17.4 0 26 0 27.9 0 55.8-.3 83.6 0-2.6 11.9-5.1 23.7-7.8 35.4H539.5c-6.3 0-12.9 1.9-17.8 6-2 1.6-2.5 4.2-3 6.6-4 18.4-8.3 36.8-12.4 55.2a21.4 21.4 0 0 0 .3 10.8 7 7 0 0 0 6.8 5.4 129.6 129.6 0 0 0 16.1.4h83c5 0 10.1-.2 15.1.2l.6 2.4c-2.5 10.8-5 21.7-7.2 32.6-28.8.5-57.6 0-86.4.2-13-.2-26.2.8-39-1.8s-25.4-8.3-34.8-17.6a35.8 35.8 0 0 1-9.6-15.7 37 37 0 0 1-.6-3.6l-.3-5c2.4-4.2 2.7-9.1 3.8-13.7 3.3-15.1 6.7-30.2 9.8-45.3 1-4.9 3.3-9.3 5-14a68 68 0 0 1 14.3-16.1z"/>
  <path stroke="#000" stroke-miterlimit="10.4" stroke-width=".1" d="M49.1 138.6c18-2.2 36.3-1.8 54.4-1.4 13 .4 26.4.3 39 3.7 6 1.6 12.5 4.6 15.4 10.5 1.2 2.7 3.9 4.2 5.3 6.7 2.3 3.5 3 7.8 3.8 11.8 1.8-10.5 4.6-21 6.6-31.5 28-.4 56 0 83.9-.1 10 .2 20.2-.3 30.2 1.3 7.7 1.3 15.8 5 19.7 12.2 1 2.2 3 3.6 4.5 5.5 1.8 2.3 2.5 5 3.8 7.5l5.8-26.4c14.3-.4 28.6 0 43-.1 2 2.8 4.2 5.5 6.4 8.2L354.3 223c22.8 0 45.6-.2 68.4.1a32 32 0 0 0 3 3.7l15.7-72.2c1.4-5.4 2-11.1 4-16.3h42.4a19.3 19.3 0 0 1 3.3 3.7l1-3.7h61.4c2.2 3.3 4.9 6.2 6.9 9.6 12 21.8 24.1 43.5 36.3 65.2 5.7-24.9 10.8-50 16.5-74.8h42.6c1.4 1 2.2 2.7 3.3 4.1l1-4c47.6-.4 95.2 0 142.7-.2l3.3 4.2 1.2-4.2 43.2.1c1.5 2 3 4 4.7 6l1.2-5.9c28.1-.4 56.3 0 84.4-.2l3.2 4c.6-1.3.1-4.4 2.4-4h102.1c7.8.2 15.7.2 23.2 2.4a22 22 0 0 1 13.7 10.1c1.7 3.3 5 5.2 6.4 8.6 3.8 7.3 2.6 15.6 1.7 23.4-1.4 9.4-3.9 19-9 27a31.4 31.4 0 0 1-11.7 9.6c1.4 3.4 5.2 5 6.5 8.6a31 31 0 0 1 .8 16.6c-1.4 7.8-3.2 15.4-4.7 23.1-13.7.3-27.4.2-41 0-3.4-1.3-5.4-5-8.5-7 1-7.1 2.5-14.1 3.6-21.2-15.8-.2-31.7 0-47.5-.1l-5.7-6.5-7.2 34.8c-13.2.3-26.4 0-39.6.1-3 .6-4.6-2.3-6.6-3.9l-.7 3.8c-43.5.3-87.1 0-130.7.1-5.1.9-7-5-11-7.1 5.5-26 11.3-51.7 16.8-77.6h-45.8l-18.4 84.6c-13.9.3-27.8.1-41.7 0-3-2-5-5-8-7l16.9-77.6h-40c-2-1-3.2-2.7-4.7-4l-19.3 88.6c-20 .3-40 .2-59.9 0-3.2-1.7-5.9-4.7-8.4-7.5-12.4-22-24.4-44.4-36.8-66.5-5.3 24.7-10.8 49.4-16 74-13.3.3-26.5 0-39.7.2-3 .5-4.6-2.5-6.5-4l-.8 3.8c-14.1.2-28.2.3-42.3 0l-3.9-3.9-.8 4c-38.5.3-77 0-115.6 0-4.9.6-7-4.8-10.6-7 2.6-13 5.7-25.9 8.2-38.8a36.4 36.4 0 0 1-22.5 16.5 89.7 89.7 0 0 1-20.1 1.9h-50.7l-5.8-6.4c-2.6 11.2-5 22.6-7.5 33.9-13.7 0-27.5.1-41.2-.1-3.3-1.4-5.4-4.8-8.1-7-.4-2.4 1-5 1.2-7.4a42.7 42.7 0 0 1-29.9 14.8c-25 2-50 .7-75.1 0-10.4-.6-21.9-1.2-30-8.4-3.2-4.5-9-6.6-11.2-12C-2.3 237 1.2 225 3 214c6.6-.3 13.2 0 19.9-.1-2-3.3-6-4.4-8-7.6-5.3-7.4-4.5-17.2-3-25.6 2.4-11 5.3-22.8 13.6-31A38 38 0 0 1 49 138.6zm5.4 1.2c-6 .7-12.2 1.4-17.7 4a35.6 35.6 0 0 0-11.2 8.5 61.5 61.5 0 0 0-12.1 31 23.9 23.9 0 0 0-.1 13.8 14.7 14.7 0 0 0 7.1 11.9c6.9 4.3 15.3 3.8 23 5.1a10 10 0 0 0-1 1.6h-38c-.8 4.6-1.7 9.2-2.3 13.8-.8 3.8-.3 7.7 0 11.6h.4c0 5.6 3.7 10.5 8.4 13.2 8.2 5 18.2 5.1 27.5 5.6 24.4.5 48.7 1.8 73 0 7.5-.7 14.9-2.8 21.2-7a45.2 45.2 0 0 0 17.8-28.2c2.2-9.7 3-20.3-1.3-29.5l-1 .9v-1a22.7 22.7 0 0 0-5.2-5 44.3 44.3 0 0 0-19.5-4.8l-54-1.8c-4.3-.2-8.8.1-13-1l-1.4-1c-1.3-3.6 0-8 3.7-9.6 5-2 10.5-1.6 15.7-1.8 13 0 26-.7 39 1 2.4 0 3 2.8 3.4 4.8 0 2.4-1.6 5.8.6 7.7l.3-1c12.3.7 24.5.2 36.8.3l1.5-.5c2.3-8.7 3.9-18 2-27l-.8.5a9.8 9.8 0 0 0-2.5-5.7l.1-.3-2.9-2.8a35.4 35.4 0 0 0-15-5.7c-12.7-2.3-25.7-2.1-38.5-2.6-14.7 0-29.4-.3-44 1zm120 .5l.7.6c-8.3 37-16.2 74-24.4 111a49 49 0 0 0-1 5.6l-.3 2h39.7c6.2-28.2 12.3-56.4 18.6-84.5 8.6-.4 17.2 0 25.7-.2 10 .2 20.2-.5 30.2.7 4.2.6 2.8 5.5 3.1 8.5a29.7 29.7 0 0 1-3.7 9.7c-2.4 2.7-6.2 3.4-9.7 3.5-14 .2-28-.1-42 .2l.4 1.1c-2.6 10.4-4.6 20.9-7 31.3l-.3 2c14.7.6 29.4 0 44.1.3 11.5-.2 23.7.4 34-5.3S299.3 210 303 199c4.6-14.3 8-29.8 4.2-44.7l-1 .7a5.3 5.3 0 0 0-.8-3.4 21.7 21.7 0 0 0-9.8-7.8c-4.3-2.3-9.2-2.8-14-3.2-7.6-.6-15.3-.4-23-.6h-79a45.4 45.4 0 0 0-5.1.3zm148.5-.1c0 .3-.3.9-.4 1.1-8.1 38.8-17 77.4-25 116.2l-.3 2h116.1c2.1-6.8 3.1-14 4.8-21 .7-4.1 2.4-8.2 2-12.5l1-1.2h-70.7c-2.1 0-4.3.2-6.2-1l.9-.8c5.2-26.2 11.4-52.3 16.8-78.4l.2-3.3.5-1.3c-13.1.2-26.4 0-39.7.2zm123.2.2c-8 38.4-16.6 76.8-24.8 115.2-1 1-.8 2.5-.8 3.9h39.8c3.4-12.7 5.6-25.6 8.6-38.4l15.4-70.3c.7-3.2 1.6-6.3 1.7-9.6l.8-1.2c-13.5.3-27.1-.3-40.6.4zm46.9-.3l.4.5c-8.7 38.3-16.7 76.7-25.2 115.1a6.9 6.9 0 0 0-.6 3.8h39.8c6-26.3 11.5-52.6 17.3-78.8a3.7 3.7 0 0 1 2.6 2.1l41.2 74.9c.6 1 1.4 2 2.9 1.8H629c7.4-36 15.6-71.9 23.2-107.8.7-3.5 1.9-6.9 1.8-10.4l.8-1.2c-13.3.2-26.6-.2-39.9.1l-.7 1c-.5 4-1.6 8-2.4 12-4.6 20.5-8.8 41-13.6 61.4v1.7l-1.1 2.8a9.4 9.4 0 0 1-3-3.9c-13.8-24.8-27.8-49.5-41.3-74.4l-.6-.6q-29.5-.2-59 0zm168.2.2c-1.8 10.8-4.5 21.5-6.5 32.2l-.6 2.3c15.4.2 30.9 0 46.3 0a3.6 3.6 0 0 1 3.8 2 20.5 20.5 0 0 0-2 6c-2 9.7-4.4 19.3-6.3 29-2.2 9-4.1 18.2-6 27.3h.1c-1.5 5.8-2.6 11.6-3.9 17.3l-.5-.7v3.8h39.8a116.3 116.3 0 0 0 2.7-11.8c5.4-24.2 10.5-48.4 15.8-72.6 16.8-.7 33.6 0 50.3-.4 2.1-11.2 5.3-22.2 6.8-33.4l.8-1.3q-51.2.1-102.4 0c-12.7.2-25.5-.2-38.1.3zm147 0c-3 15.9-6.8 31.6-10 47.5l-14.8 67.8a9.3 9.3 0 0 0-.8 3.8h131.8c1.9-6.8 3-13.9 4.7-20.8.6-3.2 1.8-6.4 1-9.7l1.5-1.2h-87.2c-1.8 0-3.8.2-5-1.3 2.2-4.3 1.8-9.6 3.8-14 3.4-.7 6.8-.2 10.3-.3h75c2.2-9.7 5-19.2 6.2-29l1-.7h-73.4c-4.1-.1-8.4.3-12.5-.4 1.8-9.6 4-19 6.2-28.5.9-4.1 2.2-8.2 2.2-12.4l1.1-1c-13.6 0-27.4-.3-41 .2zm49.6-.2l-.4 2.3c-2 9-4 18.1-5.7 27.2l-.6 2.2c27.1.2 54.2.1 81.3 0 2.4-10.3 4.9-20.6 6.7-31l.7-.7H858zm88 0l.4.7c-8.2 38.2-16 76.6-24 114.9a8.4 8.4 0 0 0-.7 3.7h39.8c6.5-28 11.7-56.5 18-84.6h56.2c2.2.2 4.6 0 6.6 1 1.3 1.1 2 2.7 3 4-1 4.3-2 8.7-4 12.6-3 3.3-7.5 3.9-11.6 4h-45.7c-2 10-4.3 20-6.4 30-.6 1.4-1.7 3.6 0 4.6 16 .2 32-.2 48 .2a7 7 0 0 1 6.8 4.8 7.7 7.7 0 0 0-1 4c-.8 5.7-2 11.3-2.9 17l-.4.2-.2 2.1c12.2.2 24.5 0 36.7.1 1.4 0 3.8.4 3.8-1.7 2-11 5.5-21.7 4.6-33-.2-2.1-.3-5-2.7-6a11.1 11.1 0 0 0-6.8-4.9l.5-2a30.3 30.3 0 0 0 13.8-11c6.1-10.7 8.5-23 9-35.2.2-3.3.4-6.8-1.5-9.6.2-1.8-.7-3.4-1.3-5l-2.6-2.9a20 20 0 0 0-1.5-1.6c-8.6-6.6-20-6.1-30.2-6.5l-103.6.1zm-95 33.7l-1.5 6.7h7.7c3.7.7 7.7 0 11.5.2 19.3.3 38.6-.4 58 .4v-1.7l-6 .3h-64.3c-1.9-1.9-3.6-4-5.4-5.9zm-787.3 7.6c17 .6 34 1 51 1.7l.2-4.4q-19.6-.9-39.3-.2c-4 .2-8.5.3-11.9 2.9zm863.6.3c2.5 2 4 4.7 6 7l-7 31.8h-85.8l-1.1 5.4h82.3c2.1-.1 2.9 2.5 4.2 3.8l10.3-49.5-7.5-.1a16.9 16.9 0 0 0-1.4 1.6zm-712 1.4l-2.6 12.3h40c2.7-.1 5.6-.2 7.9-1.7 2.8-2.8 3.8-6.7 4.7-10.4-16.7-.4-33.4-.2-50-.2zm771.6 0l-2.4 11.6c16.4-.2 33 .4 49.4-.4 5.7 0 7.9-6.3 8.7-11-18.6-.4-37.2-.1-55.7-.3zm-839.1 8.1c2.3 2.6 3.6 6 6.1 8.4 2.2 2 3.4 4.7 5 7.2l3.4-15.5-14.6-.1z"/>
  <path stroke="#000" stroke-miterlimit="10.4" stroke-width=".1" d="M45 214.1c11.6 0 23 1.2 34.6 1.5 9.6.7 19.2.6 28.8 1.5 2.5 0 2.3 3 2.7 4.6-.7 2-1.1 4.3-3 5.6-2.7 2-6.3 2-9.6 2h-33c-6 0-12 .3-18-.6a7 7 0 0 1-3.6-2.4 30.4 30.4 0 0 1 1.2-12.2zm7.5 8.1l-1 5.1c16 .3 32 0 48 .2a12.9 12.9 0 0 0 8.7-2.4c-18.6-1.3-37.2-1.9-55.7-2.9zM497.5 293.6a115.4 115.4 0 0 1 52-11.4h111c3-.3 3.9 3.5 5.8 5.1 1-1.6 1-3.5 1.6-5.3 19.2-.4 38.4 0 57.7-.2 4.1-.5 4.8 5.5 8 6.7 1.6-1.6 0-7.3 4-6.7h112c3.2-.3 3.8 3.8 6.2 5l1.1-4.8q29.7-.4 59.4 0c3 3.5 5.8 7.2 8.6 11-.6 6-2.4 11.8-3.5 17.8l-18 86.7h93.2a18.2 18.2 0 0 0 4.3 5.3c8.4-40.3 16.7-80.6 25.3-120.9 18.8-.3 37.6 0 56.4-.1 1.3.1 3.1-.4 4 1l7.8 10.2-21.8 104.4c31 0 62-.2 93 .1 3.4 3.4 6 7.5 9 11.2q-5.1 25.3-10.4 50.5h-161.5c-2.9-.5-4.4-3.7-6.6-5.4a164 164 0 0 0-1 5.4H832.2l-5.5-5.5-1.3 5.6H642a79.9 79.9 0 0 0-6-5.9l-1.2 5.6h-93.2c-13-.1-26.3.8-39.2-1.8-14-2.7-28-8.9-37.7-19.5-2.3-2.5-5.1-4.3-7.6-6.6a38.7 38.7 0 0 1-12.4-22.3c-1.2-6.7.6-13.4 2-20l9.3-42.2c1.8-8 2.9-16.2 7-23.4 7.4-13.7 20.8-22.8 34.5-29.6zm38.1-8.3a108.7 108.7 0 0 0-58.3 24.1 64 64 0 0 0-9.9 11 47.4 47.4 0 0 0-6.5 15.3c-4.3 19.4-8.4 38.8-12.8 58.1a30.4 30.4 0 0 0-.8 4 26 26 0 0 0 0 11.9 37.1 37.1 0 0 0 10.5 18.7c14 13.5 33.8 19.1 52.8 19.2h113.8c2.9-12.2 5.5-24.6 8.3-36.9a21.4 21.4 0 0 0 .4-4.6l1.2-1.3c-34.5-.2-69.1 0-103.7-.1-5.3 0-10.8.4-16-1a21.6 21.6 0 0 1-4.6-3.6 26.2 26.2 0 0 1 0-4.9l13-57.4c1-4.4 5.6-6.5 9.4-8 4.8-2.2 10.1-1.9 15.2-1.8h57c15.5-.2 31 .4 46.6-.3 2-10 4.4-19.9 6.5-29.9.7-3.8 2.2-7.6 1.8-11.6l1.3-1.2a63.3 63.3 0 0 0-9.2-.3h-90c-8.7 0-17.4-.3-26 .6zm133.6-1l.4 1.4-.8 3.3-34 156.3 1.6-.5c-1.6.3-2 1.7-2 3.1 43.6.3 87.4 0 131 .1 16.7-.1 33.3.3 50-.2 2.7-14.4 6.3-28.7 8.9-43.2l.8-.7c-41.5-.4-83 .1-124.6-.2l-.7-.7c.9-6.5 2.6-12.8 4-19.3 13.5-.7 27.1 0 40.7-.3 25.3 0 50.6-.1 76 .1 2.7-8.7 4.2-17.7 6.4-26.5.9-4.6 2.6-9 2.7-13.8l1-1.2c-37.7-.2-75.4 0-113-.1-1.7-.2-4 .4-4.5-1.7 1.7-3.9 1.8-8.1 3-12 3-14.3 6.8-28.5 9.2-42.9l.8-1h-57zm67.6 0l.3 1.2c-3 13.3-5.7 26.5-8.6 39.8h-.6v3.1h111.7c2-7 3.2-14.4 4.9-21.6 1.4-7.2 3.5-14.2 4.3-21.4l.9-1q-56.5-.2-112.9-.1zm121.3.1l.7.7c-9 41-17.3 82.3-26 123.5-2.6 11.7-4.6 23.5-7.5 35a34.9 34.9 0 0 0-.8 4.1c6 .6 12 .2 18 .3 47.4-.1 94.8.2 142.1-.2 3.3-15.6 6.8-31.3 9.7-47l.6-.8-103.4-.1-1.4-2.1c2.2-4.8 2.4-10.1 3.7-15.1l13.1-63c2.3-11.4 5.3-22.7 6.9-34.3l1-1.1c-19 0-37.8-.2-56.7.1zm169.2 0l.7.8c-7.1 32.4-13.6 65-20.5 97.5-4.2 20.9-9 41.7-12.9 62.6l-.3 2.5c26 .6 52.2 0 78.3.2 27 0 54.1.2 81.2-.1 2-8.5 3.5-17 5.4-25.5 1.2-7 3.5-14 4-21.2l.8-1.2c-34.5 0-69 .1-103.5-.1l-1-1.8c3.3-13 5.6-26 8.5-39.1l14.1-67.5a15.8 15.8 0 0 0 .3-5.5l1.1-1.8c-18.7.3-37.5-.2-56.2.3zm-301 54.9h8.9q-3.6-3.7-7.1-7.6l-1.9 7.6zm-190.8 5.3a6.8 6.8 0 0 0-2.3 4.2l-12 53.4H636a53.1 53.1 0 0 0 4.5 5.7l15-68.7H550.6a25.2 25.2 0 0 0-15 5.4zm297.3-4.8l8.4 10.9c-3.3 14.6-6.8 29.2-10 43.9l-4.6.2H713.9l-1.3 6.5h114q2 2.8 4.2 5.4c4.5-22.3 9.3-44.6 13.9-67-4 .1-8 0-11.9.2z"/>
  <path fill="#333" stroke="#333" stroke-miterlimit="10.4" stroke-width=".1" d="M359 143a32.9 32.9 0 0 0 3.2-1.7l-.1 3.3c-5.5 26.1-11.6 52.2-16.8 78.4l-1 .9-1.8 1.9c-1-4.5.5-9 1.4-13.3l15.2-69.6zM482.8 142.9a33 33 0 0 0 3.3-1.7c0 3.3-1 6.4-1.7 9.6l-15.3 70.3c-3 12.8-5.3 25.7-8.7 38.4h-39.8c0-1.4-.2-2.8.8-4v1.7l2.3-.6c11.4-.6 22.8 0 34.3-.3l24.8-113.4zM650.8 143a36.9 36.9 0 0 0 3.3-1.7c0 3.5-1.2 7-1.8 10.4-7.7 36-15.8 71.7-23.2 107.7h-57.6c-1.4.3-2.3-.7-2.8-1.8l-41.3-74.8a3.7 3.7 0 0 0-2.5-2.2c-5.9 26.3-11.4 52.6-17.3 78.8h-39.9a6.9 6.9 0 0 1 .7-3.7l-.3 1.5 2.5-.6c11.5-.7 23 0 34.4-.4q8.3-39.1 17-78.1a59.2 59.2 0 0 1 6.8 0l43.2 78.2h54l24.8-113.4zM797.8 143a33.7 33.7 0 0 0 3.3-1.7c-1.4 11.3-4.7 22.3-6.8 33.4-16.7.4-33.5-.3-50.2.4l-15.9 72.6a116.3 116.3 0 0 1-2.7 11.8h-39.8v-3.8l.6.7.4.7 1.9-.4c11.4-.8 22.9 0 34.4-.4L739 182c.9-3.3 1-6.8 2.7-9.8 16.5-.6 33.1 0 49.7-.2 2-9.7 4.1-19.3 6.3-29zM845 143a33.9 33.9 0 0 0 3.3-1.8c0 4.2-1.4 8.2-2.2 12.3-2.1 9.5-4.4 19-6.2 28.5l-2.5 1.4c-.8-4.7.7-9.3 1.7-13.8L845 143zM157.3 156l.8-.5c1.9 9 .4 18.2-2 27l-1.5.5c-12.3-.1-24.5.3-36.8-.3l1-2.8 34.6-.1c1.2-7.3 4-14.9 1.7-22.2l2.3-1.7zM1083.4 158.7l1.8-2.6c2 2.8 1.7 6.4 1.6 9.6-.6 12.1-3 24.5-9 35.1-3.1 5.3-8.5 8.5-13.8 11.1l-.6 2-2 1.9c-.4-2.2-1-4.4-.3-6.5 3.6-2.3 7.8-4 10.7-7.3a48.2 48.2 0 0 0 9.8-21.3 63.8 63.8 0 0 0 1.8-22zM205 172.1c15.5-.5 31 0 46.5-.2 5.2.1 10.6-.5 15.7 1 3 1.4 2.3 5.2 1.8 7.7a12.2 12.2 0 0 0-2.2 3.4c-.4-3 1-7.9-3.2-8.5-10-1.2-20-.4-30.1-.7-8.6.2-17.1-.2-25.7.2-6.3 28.1-12.4 56.3-18.6 84.5h-39.8l.3-2 3-1c11.2-.2 22.4 0 33.7 0 6.3-28.2 12.2-56.3 18.6-84.4zM654.8 172.6a33.3 33.3 0 0 1 3.5-.7c15.4 0 30.8-.2 46.2.1 2.7 0 1 3.9 1.5 5.5l-1.7-.8a3.6 3.6 0 0 0-3.8-1.9c-15.4 0-30.8.2-46.3 0zM975.7 175.6c.3-1.5.6-4 2.8-3.6 16-.2 32 0 48-.1 5.7.1 11.4-.5 17 .7 3.6.8 3.5 5.2 3.6 8l-2-.7c-1-1.3-1.7-2.9-3-4-2-1-4.4-.8-6.6-1h-56.2c-6.3 28.1-11.5 56.5-18 84.6h-39.8a8.4 8.4 0 0 1 .7-3.8l-.2 1.6 2.6-.7c11.2-.6 22.6.1 33.9-.3a10.3 10.3 0 0 0 1-3.3c5.4-25.8 11-51.6 16.2-77.4zM921.3 185.3l3.5-2.2c-1.3 9.8-4 19.4-6.1 29-25 .2-50 0-75.1 0-3.4.2-7-.3-10.3.3-2 4.5-1.6 9.7-3.8 14l-1.6 2.4c-2-6.4 1.4-13 2.5-19.4 5.7-.5 11.4-.3 17.1-.3H916c1.9-7.9 3.5-15.8 5.3-23.8zM148.2 196.1l1-.9a45.4 45.4 0 0 1 1.3 29.5c-2.5 11-8.1 22-17.8 28.2a45.8 45.8 0 0 1-21.2 7c-24.3 1.9-48.6.6-73 0-9.3-.4-19.2-.6-27.5-5.5-4.7-2.8-8.4-7.7-8.3-13.3l2.8.4c2.1 9 12 12.8 20.1 14.2 15.6 2 31.3 1.4 46.9 2.1 12.3.3 24.6 0 36.8-.9 10.1-.8 20.2-4.7 27.1-12.3a54.7 54.7 0 0 0 12.9-33.8c.4-5-2-9.8-1.1-14.7z"/>
  <path fill="#333" stroke="#333" stroke-miterlimit="10.4" stroke-width=".1" d="M13.4 197l3 .5a15 15 0 0 0 6 8.3c6.6 4.3 14.7 4.1 22.2 5l61 3c2.3.1 4.8 0 7 .9a9.6 9.6 0 0 1 1.1 4l-2.5 3c-.5-1.6-.3-4.6-2.8-4.6-9.6-.9-19.2-.7-28.8-1.5-11.5-.3-23-1.4-34.5-1.5a30.4 30.4 0 0 0-1.2 12.2l-2.4 2.2a27.1 27.1 0 0 1-.6-9.6 24 24 0 0 1 1.6-3.3 10 10 0 0 1 1-1.5c-7.6-1.4-16.1-.8-23-5.2a14.7 14.7 0 0 1-7.1-11.8zM720.7 288.1a47.2 47.2 0 0 0 4.5-2.8c-2.3 14.4-6.2 28.5-9.1 42.8-1.2 4-1.3 8.2-3 12a31 31 0 0 1-3.1 3 29.6 29.6 0 0 1 .6-10.5c3.3-14.3 6.2-28.6 9.6-42.9zM844.1 288a27.6 27.6 0 0 0 4.7-2.6c-.9 7.2-3 14.2-4.4 21.4-1.6 7.2-3 14.5-4.8 21.7H727.9v-3.1l.6-.1c9.6-1.4 19.4-.4 29-.7h78.6l8-36.5zM909.2 288a26.6 26.6 0 0 0 4.6-2.6c-1.6 11.6-4.6 22.9-6.9 34.3l-13.1 63c-1.3 5-1.6 10.3-3.7 15a32.9 32.9 0 0 1-2.7 4.3 25 25 0 0 1 0-10.3L909.3 288zM655.2 288.6a70 70 0 0 0 4.3-2.5c.3 4-1.2 7.8-1.9 11.6-2 10-4.6 19.9-6.5 29.9-15.5.7-31 0-46.6.3h-57c-5 0-10.3-.4-15.1 1.7-3.9 1.6-8.5 3.7-9.5 8.1-4.3 19.2-8.5 38.3-12.9 57.4a26.2 26.2 0 0 0 0 5 17.8 17.8 0 0 0-3.4 2.4 21.4 21.4 0 0 1-.3-10.7l12.3-55.2c.6-2.4 1-5 3.1-6.7 5-4 11.4-6 17.8-6h107.8l7.9-35.3zM1078.3 288.3l4.1-2.3a15.8 15.8 0 0 1-.3 5.5L1068 359c-3 13-5.2 26.2-8.5 39.1a35 35 0 0 1-3 3.8c-1.4-7.2 1.3-14.3 2.5-21.3l19.3-92.3zM825 345.7a38.2 38.2 0 0 0 4.5-2.5c0 4.7-1.7 9.2-2.6 13.8-2.3 8.8-3.7 17.8-6.4 26.5-25.3-.2-50.7 0-76 0-13.6.1-27.2-.5-40.8.2-1.3 6.5-3 12.8-4 19.3l-1-1c-.5 1-1 2.1-1.3 3.1l-1.4-1.4c-.1-8 2.5-15.8 4-23.6a62.9 62.9 0 0 1 12.5-.6h104.7l7.8-33.8z"/>
  <path fill="#d8d8d8" stroke="#d8d8d8" stroke-miterlimit="10.4" stroke-width=".1" d="M54.5 139.8c14.6-1.3 29.3-1 44-1 12.8.5 25.8.3 38.5 2.6 5.3 1 10.7 2.4 15 5.7q-1.3 1-2.8 1.8c-10.3-5.3-22.2-6-33.6-6.7-18.4-.3-36.8-1.1-55.1.1-11.6.6-24.5 2.8-32 12.5l-3-2.5a35.6 35.6 0 0 1 11.3-8.5c5.5-2.6 11.7-3.3 17.7-4zM1029.6 196.4c4.1 0 8.6-.7 11.6-3.9.4 1 1 2.1 1.3 3.2-2 3.3-6.6 3.2-10 3.6q-21 .2-42 0c-1.6 0-3.3-.1-4.8.6-1.2 2.5-1.5 5.3-2 8-1.4 6.8-3.4 13.5-4 20.5l-2.5.5.3-2.3c2.1-10 4.4-20 6.4-30 15.2-.2 30.4 0 45.7-.2zM4.5 215.7h38a24 24 0 0 0-1.6 3.2 399 399 0 0 0-34.3-.1c-1 5.2-1.4 10.5-2.4 15.7a17 17 0 0 1-2-5l2.3-13.8zM669.2 284.4c19-.2 38-.1 57 0l-1 1a47.2 47.2 0 0 1-4.5 2.8l-.5 1.6-.8-1.7c-15-.2-30 0-45 0-2 .1-3.4-1.2-4.8-2.4zM736.8 284.3h112.8l-.8 1.1a27.6 27.6 0 0 1-4.7 2.6H741.4c-1.8 0-3-1.5-4.3-2.5zM858.1 284.4c18.9-.3 37.7-.1 56.6 0l-1 1a26.6 26.6 0 0 1-4.5 2.7c-16-.4-31.9.3-47.7-.4l-2.7-2.6zM1027.3 284.5c18.7-.5 37.5 0 56.2-.3l-1 1.8-4.2 2.3c-14.6-.7-29.2 0-43.7-.3a35.5 35.5 0 0 1-4.2-.6 33.5 33.5 0 0 1-2.4-2.2zM698.7 402l1.1 1 .8.7c41.5.3 83-.2 124.5.2l-.8.7c-1.6 1.2-3.4 2.3-5 3.6a27.7 27.7 0 0 0-5.7-.8h-111c-2.6.2-6.6-.5-6.6-3.7l1.4 1.4 1.3-3.1z"/>
  <path fill="#d7d7d7" stroke="#d7d7d7" stroke-miterlimit="10.4" stroke-width=".1" d="M174.5 140.3a45.4 45.4 0 0 1 5-.2h79c7.7.2 15.4 0 23 .6 4.8.4 9.8.8 14 3.2-4 2.3-8.6.3-13-.1-6.2-1-12.6-.3-19-.6-10.3-.6-20.6-.3-31-.3h-54.9l-2.5-2zM323 140.2c13.3-.3 26.5 0 39.8-.2l-.6 1.3a32.9 32.9 0 0 1-3.2 1.6c-11.1-.1-22.3.2-33.4 0l-3-1.6.4-1.1zM446.3 140.4c13.5-.7 27 0 40.6-.4l-.8 1.2a33 33 0 0 1-3.3 1.7h-33.6l-3-2.5zM493.1 140.1h59.2l.6.6-.1 2-2.3.2h-54.3c-.8-.9-1.7-1.6-2.6-2.4zM615 140.2c13.3-.3 26.6 0 39.9-.2l-.8 1.3a36.9 36.9 0 0 1-3.3 1.6c-11.1-.2-22.3.3-33.4-.3l-3-1.4c0-.3.4-.8.6-1zM661.4 140.3c12.7-.5 25.4 0 38-.2H802l-.8 1.2a33.7 33.7 0 0 1-3.3 1.6c-44.5 0-89 .2-133.4 0l-3-2.6zM808.4 140.3c13.6-.5 27.4-.2 41 0l-1.1.9a33.9 33.9 0 0 1-3.3 1.8l-33.7-.1-3-2.6zM858 140c27.3 0 54.6 0 82 .2l-.7.5-3.6 2.4-.5 1.8-.5-2c-19-.2-38 0-57 0-6-.2-12 .3-17.8-.4l-2.3-.1c0-.6.3-1.7.4-2.3zM946 140.1h103.6c10.3.4 21.6 0 30.2 6.5l-2.4 2.6c-8.4-6-19-6.1-28.8-6.3-33-.2-66.2.2-99.3-.2a27 27 0 0 1-2.9-1.9zM342.5 225.8l1.9-1.9c1.9 1 4 1 6.1 1l70.8-.1-1 1.2c-1 .7-2 1.3-3.1 1.8-23.5-.5-47.1 0-70.7-.2a4.5 4.5 0 0 1-4-1.8zM535.6 285.3c8.6-1 17.3-.6 26-.7h90a63.3 63.3 0 0 1 9.2.3l-1.3 1.2a70 70 0 0 1-4.3 2.5c-27.9-.3-55.8 0-83.6-.1-8.7 0-17.4-.2-26 0a109.2 109.2 0 0 0-62.4 22.5l-1.9-1.7-4 .2a108.7 108.7 0 0 1 58.3-24.2zM710 343.2a31 31 0 0 0 3.1-3c.5 2 2.9 1.5 4.4 1.7h113.1l-1 1.3a38.2 38.2 0 0 1-4.6 2.5c-36.8-.4-73.7 0-110.6-.2a5.4 5.4 0 0 1-4.4-2zM891.4 400H995l-.7.8a46.9 46.9 0 0 1-4.7 3.1l-.5 2-.5-2c-32.9-.5-65.8.3-98.7-.4l3.3-2.4zM1060.4 399.9c34.5.2 69 0 103.5 0l-.8 1.3c-1.4 1-3 1.9-4.5 2.8-27.7-.4-55.4 0-83.1-.2-5.6-.1-11.1.4-16.6-.6l2.2-2.2z"/>
  <path fill="#ececec" stroke="#ececec" stroke-miterlimit="10.4" stroke-width=".1" d="M446.3 140.4l3 2.5c-2.5 10.7-5.4 21.3-7.2 32.2-4.7 21.4-9.5 42.8-14 64.2-1.5 5.8-1.6 12-4.4 17.3l-2.4.6.1-1.6c8.2-38.4 17-76.8 24.9-115.2zM808.4 140.3l3 2.6a94.6 94.6 0 0 0-2.6 10.8c-.7 4.2-2.4 8.2-3 12.4-5.8 30.2-13.4 60.1-19.2 90.4l-3.4.7.3-1.5 14.7-68c3.4-15.7 7.2-31.5 10.1-47.4zM150.7 251.8c8.2-37 16.1-74 24.4-111l2.5 2.2c-2 9-3.7 18-6 27-1.2 6.5-2.4 13-4.2 19.4-1.6 7.2-2.9 14.5-5 21.5-1.3 9.7-3.7 19.1-6 28.6a232 232 0 0 1-3.8 17l-2.9 1a49 49 0 0 1 1-5.7zM322.6 141.3l3 1.5c-1.8 5.1-2.4 10.5-3.4 15.9l-14 64.8c-3 10.9-5 22-7.5 33-1 .2-2 .6-3 1 7.9-38.8 16.8-77.4 25-116.2zM611.8 153.2c.8-4 2-8 2.5-12l3 1.4c-2.8 10.4-4.3 21-7 31.5-2.9 14.2-6.2 28.4-9.2 42.6l-2.8-2.2c4.7-20.3 9-40.9 13.5-61.3z"/>
  <path fill="#ebebeb" stroke="#ebebeb" stroke-miterlimit="10.4" stroke-width=".1" d="M468.4 255.7c8.4-38.4 16.5-76.8 25.2-115.2l2.6 2.4c-8 34.7-15.2 69.7-23 104.5-.7 3.1-1 6.4-2.6 9.2l-2.5.6zM211.7 198.5a17.7 17.7 0 0 0 5.8 1.3c12.8.1 25.5-.6 38.3.3-13.9 1.2-27.9-.4-41.7 1-2.3 9.2-3.9 18.6-5.8 28a34.8 34.8 0 0 0-3.5.7c2.4-10.4 4.3-21 7-31.3zM668.8 289h3.3l-1.6 4c.4 5-1.4 9.5-2.9 14-1.1 6.7-2 13.5-4.1 20-1.3 3.6-1 7.6-2.3 11.3a53.5 53.5 0 0 0-1.9 7.7c-1.7 11.8-5 23.2-7.3 34.9-2.1 4.3-1.5 9.3-3.2 13.8-1.7 4.7-1.6 9.8-3.4 14.5-1.8 11.7-4.8 23.2-6.9 35l-2 .6-1.7.5 34-156.3z"/>
  <path fill="#a1a1a1" stroke="#a1a1a1" stroke-miterlimit="10.4" stroke-width=".1" d="M553 140.7c13.4 25 27.4 49.7 41.2 74.5l-1.6 3.7c-13.8-25.4-28-50.6-42-76l2.2-.1.1-2z"/>
  <path fill="#e9e9e9" stroke="#e9e9e9" stroke-miterlimit="10.4" stroke-width=".1" d="M661.4 140.3l3 2.5a45.8 45.8 0 0 0-2.4 9.3c-1.2 6.6-3 13.1-3.7 19.8a33.3 33.3 0 0 0-3.5.6c2-10.7 4.7-21.4 6.6-32.2zM857.5 142.4l2.3.1c-.6 9-3.8 17.5-4.6 26.4a34.4 34.4 0 0 0-3.4.8l5.7-27.3zM858.8 285l2.7 2.7c-2.8 14-6.2 28-7.9 42.2l-15 71c-2.7 14.4-6.6 28.6-8.5 43.2-1.3.2-2.7.5-4 .9l-.8-1.4c3-11.6 5-23.4 7.5-35 8.7-41.2 17-82.4 26-123.5z"/>
  <path fill="#323232" stroke="#323232" stroke-miterlimit="10.4" stroke-width=".1" d="M935.6 143c1.2-.7 2.5-1.4 3.6-2.3-1.8 10.5-4.3 20.8-6.6 31.2-27.1 0-54.2.1-81.3 0 0-.6.4-1.7.5-2.2a34.4 34.4 0 0 1 3.4-.8h74.6l5.4-24 .4-1.8zM55.2 169.5c4.7-2.5 10.3-2 15.5-2.4 13.6-.1 27.2-.3 40.9.5 2.6.3 6 .1 7.4 3l.1 3.3-2.2 2c-.3-2-1-4.7-3.4-4.8-13-1.7-26-1-39-1-5.2.2-10.7-.1-15.6 1.8-3.8 1.6-5 6-3.8 9.6l-1-.5-2 2c-1.1-4.6-1.2-10.6 3-13.5zM1069.6 234.7c1-5.2 0-10.6.7-15.9 2.3 1 2.4 3.8 2.7 6 .9 11.2-2.6 22-4.7 33 0 2-2.4 1.6-3.8 1.7h-36.7l.2-2.2.4-.1 3.1-.7c11.2-.4 22.5 0 33.7-.1l4.4-21.7zM417.2 227.8l3-1.8c.5 4.3-1.2 8.4-2 12.5-1.6 7-2.7 14.1-4.7 21H297.4l.3-2c1-.4 2-.8 3-1 36.6-.3 73.3 0 110-.2 2.8-9.3 4.1-19 6.5-28.5zM917.4 231.3l2.9-2.3c.7 3.3-.5 6.5-1.1 9.7-1.6 6.9-2.8 14-4.7 20.8H782.7a9.3 9.3 0 0 1 .8-3.8l-.3 1.5 3.4-.7c41.8-.3 83.6 0 125.4-.1 1.8-8.4 3.5-16.8 5.4-25.1z"/>
  <path fill="#e8e8e8" stroke="#e8e8e8" stroke-miterlimit="10.4" stroke-width=".1" d="M922.4 255.7c8-38.3 15.7-76.6 24-114.9a27 27 0 0 0 2.9 2c-2.7 6-2.8 12.7-4.5 19-2.2 8-3 16.2-5 24.2-3.6 19.7-9.3 39-12.2 58.7-.7 4-1.2 8.2-3 11.9l-2.6.7zM690.2 239.1c1.8-9.1 3.7-18.2 5.9-27.2l1.6 2A214.5 214.5 0 0 1 693 236a3.7 3.7 0 0 1-2.8 3.1zM1028 285.1a33.5 33.5 0 0 0 2.5 2.3c-.8 7.4-3 14.4-4.3 21.6-4.4 23.6-10.2 47-14.5 70.6-1.8 8.5-4 17-5.5 25.5-2.5 13-6 25.9-7.6 39a34.1 34.1 0 0 0-4 1.2c3.9-21 8.7-41.7 12.9-62.6 6.9-32.5 13.4-65 20.5-97.6z"/>
  <path fill="#b3b3b3" stroke="#b3b3b3" stroke-miterlimit="10.4" stroke-width=".1" d="M1081.3 148.3l2.6 2.9-2 3.8c-1-2.1-.8-4.5-.6-6.8z"/>
  <path fill="#8a8a8a" stroke="#8a8a8a" stroke-miterlimit="10.4" stroke-width=".1" d="M155 157.6c-.7-2.4-2-5.1-.2-7.4a9.8 9.8 0 0 1 2.5 5.7l-2.2 1.7z"/>
  <path fill="#8c8c8c" stroke="#8c8c8c" stroke-miterlimit="10.4" stroke-width=".1" d="M302.7 152.3l2.7-.6a5.3 5.3 0 0 1 .8 3.4 16 16 0 0 0-.8 5.8c-.7-2.9-1.7-5.7-2.7-8.6z"/>
  <path fill="#696969" stroke="#696969" stroke-miterlimit="10.4" stroke-width=".1" d="M1084 151.2c.5 1.6 1.4 3.1 1.2 4.9l-1.8 2.6-1.4-3.7 2-3.8z"/>
  <path fill="#f4f4f4" stroke="#f4f4f4" stroke-miterlimit="10.4" stroke-width=".1" d="M25.6 152.3l2.8 2.5A77.3 77.3 0 0 0 15.2 192a36.8 36.8 0 0 1-1.7-8.8c1.7-11 4.7-22.3 12-30.9z"/>
  <path fill="#343434" stroke="#343434" stroke-miterlimit="10.4" stroke-width=".1" d="M306.2 155.1l1-.7c3.7 14.9.4 30.4-4.2 44.7-3.8 10.9-10 21.9-20.4 27.7s-22.6 5.1-34 5.3c-14.7-.2-29.5.3-44.1-.3l.3-2a34.8 34.8 0 0 1 3.5-.8c16.7-.3 33.5 0 50.2-.1 9-.3 18.3-2 25.6-7.7a58.2 58.2 0 0 0 18-30.9 76 76 0 0 0 3.3-29.5 16 16 0 0 1 .8-5.7zM977.4 231c-1.6-1-.5-3.1 0-4.4l-.2 2.2 2.4-.5c5-.6 10-.2 15-.3 10.6 0 21.3-.3 32 .3 2.6.3 6.1.4 7.3 3.4a6.7 6.7 0 0 1-1.6 4.4 7 7 0 0 0-6.9-4.8c-16-.4-32 0-48-.2zM989.5 404a46.9 46.9 0 0 0 4.7-3.2c-2.8 15.7-6.3 31.4-9.6 47-47.4.4-94.7.1-142 .2-6 0-12 .3-18-.3a34.9 34.9 0 0 1 .7-4l.7 1.3c1.4-.3 2.7-.7 4.1-.9H981c2.9-12.7 5.3-25.5 8.1-38.2zM1158.6 404l4.5-2.8c-.4 7.2-2.7 14.2-4 21.3-1.8 8.4-3.4 17-5.4 25.4-27 .4-54.1 0-81.2.2-26-.2-52.2.3-78.3-.3l.4-2.4a34.1 34.1 0 0 1 4-1.2c50.4 0 101-.2 151.5 0 3-13.3 5.6-26.8 8.5-40.2zM819.3 408.3c1.6-1.4 3.4-2.5 5-3.7-2.6 14.4-6.1 28.7-9 43.2-16.6.5-33.2 0-49.8.2-43.7 0-87.4.2-131.1 0 0-1.5.5-3 2-3.2l2.1-.6c57.7-.2 115.5 0 173.2-.1l7.6-35.9zM629 408.4l4.1-2.3a21.4 21.4 0 0 1-.4 4.6c-2.8 12.3-5.4 24.6-8.3 36.9H510.6c-19-.1-38.8-5.8-52.8-19.2-5-5.2-9.1-11.6-10.4-18.8l3.8-1a35.8 35.8 0 0 0 9.6 15.7c9.4 9.4 22 15 34.9 17.6s25.9 1.7 38.9 1.9c28.8-.1 57.6.2 86.4-.2 2.2-11 4.7-21.8 7.2-32.7l.7-2.5z"/>
  <path fill="#8f8f8f" stroke="#8f8f8f" stroke-miterlimit="10.4" stroke-width=".1" d="M119 170.5a18 18 0 0 1-.2 9.4 72 72 0 0 1-1 2.8l-.3 1c-2.2-2-.5-5.3-.6-7.8l2.2-2-.1-3.4z"/>
  <path fill="#4e4e4e" stroke="#4e4e4e" stroke-miterlimit="10.4" stroke-width=".1" d="M856.3 179.7h64.2l6-.3v1.7c-19.3-.8-38.6-.1-57.9-.4-3.8-.2-7.8.5-11.5-.3z"/>
  <path fill="#d9d9d9" stroke="#d9d9d9" stroke-miterlimit="10.4" stroke-width=".1" d="M56.5 182.4c4.2 1.2 8.7 1 13 1l54 2c6.7.4 13.7 1.3 19.5 4.7-3.5 2.5-7.7 0-11.4-.6-5.9-1.6-12-1.4-18-1.6-17.6-1-35.2-1.2-52.8-1.6a36.5 36.5 0 0 1-5.9-1.2l1.6-2.7zM514.6 403.6c5.2 1.5 10.7 1 16 1h103.7l-1.2 1.4c-1.4.9-2.8 1.6-4.2 2.3a45 45 0 0 0-.8 2.6l-.5-2.3c-5-.5-10-.2-15.1-.2h-83a129.6 129.6 0 0 1-16.1-.4l1.2-4.4z"/>
  <path fill="#737373" stroke="#737373" stroke-miterlimit="10.4" stroke-width=".1" d="M13.4 197c-1-4.4-1.6-9.4 0-13.8a36.8 36.8 0 0 0 1.8 8.8l1.2 5.5z"/>
  <path fill="#d6d6d6" stroke="#d6d6d6" stroke-miterlimit="10.4" stroke-width=".1" d="M253.4 197.2c3.5 0 7.2-.8 9.7-3.5l2.4 2.9a14.3 14.3 0 0 1-9.7 3.5c-12.8-.9-25.5-.2-38.3-.3a17.7 17.7 0 0 1-5.8-1.3l-.4-1.1c14-.3 28 0 42-.2zM828 228.8l1.5-2.3c1.3 1.5 3.2 1.3 5 1.3h87.2l-1.4 1.2-3 2.3c-7.1-1.3-14.5-.4-21.8-.6-22.5-.3-45 .4-67.5-.4a12.5 12.5 0 0 1 0-1.5z"/>
  <path fill="#e0e0e0" stroke="#e0e0e0" stroke-miterlimit="10.4" stroke-width=".1" d="M592.6 219l1.6-3.8a9.4 9.4 0 0 0 3 3.9l1.1-2.9 2.5 4.4c-2.8 1-6.8 1.8-8.2-1.7z"/>
  <path fill="#dadada" stroke="#dadada" stroke-miterlimit="10.4" stroke-width=".1" d="M111.2 221.7l2.5-3v3.8l-2.7 2.2 2.3 1.6c-1.1 1.6-2 3.6-3.8 4.5-2.8 1.4-6 1.2-9 1.3h-45c-3.6 0-7.5.2-10.5-2l2.4-1.4c6 .8 12.1.6 18.2.6h33c3.2 0 6.8-.1 9.6-2 1.8-1.3 2.2-3.6 3-5.6z"/>
  <path fill="#7b7b7b" stroke="#7b7b7b" stroke-miterlimit="10.4" stroke-width=".1" d="M2.3 241c-.4-3.8-.9-7.7 0-11.5a17 17 0 0 0 1.9 5l1.4 7-3-.4z"/>
  <path fill="#a6a6a6" stroke="#a6a6a6" stroke-miterlimit="10.4" stroke-width=".1" d="M1034 231.7a22.1 22.1 0 0 1 0 8.4l-2.7-.1a7.7 7.7 0 0 1 1-3.9 6.7 6.7 0 0 0 1.6-4.4z"/>
  <path fill="#eee" stroke="#eee" stroke-miterlimit="10.4" stroke-width=".1" d="M690.2 239.2a4 4 0 0 1 1.2 4.2c-1.2 4.4-.6 9.2-2.8 13.3l-1.9.4-.4-.7c1.3-5.7 2.4-11.5 4-17.2zM506.6 402.5a17.8 17.8 0 0 1 3.4-2.4 21.6 21.6 0 0 0 4.6 3.5l-1.2 4.3a7 7 0 0 1-6.8-5.4z"/>
  <path fill="#dedede" stroke="#dedede" stroke-miterlimit="10.4" stroke-width=".1" d="M1031.3 240l2.6.1c-.6 5.5-2 10.9-2.4 16.4l-3 .7c.8-5.8 2-11.4 2.8-17.2z"/>
  <path fill="#e2e2e2" stroke="#e2e2e2" stroke-miterlimit="10.4" stroke-width=".1" d="M477.3 309.4l4-.1 1.9 1.6a68 68 0 0 0-14.2 16.3 34.7 34.7 0 0 1 1.4-6.3l-3-.5a64 64 0 0 1 10-11z"/>
  <path fill="#ededed" stroke="#ededed" stroke-miterlimit="10.4" stroke-width=".1" d="M467.4 320.4l3 .6a34.7 34.7 0 0 0-1.4 6.2c-1.8 4.6-4 9-5 14-3.1 15-6.6 30.1-9.9 45.2-1 4.6-1.4 9.5-3.8 13.7a40.1 40.1 0 0 1-2.2-6.3c4.4-19.3 8.5-38.7 12.8-58a47.4 47.4 0 0 1 6.6-15.4z"/>
  <path fill="#b4b4b4" stroke="#b4b4b4" stroke-miterlimit="10.4" stroke-width=".1" d="M447.3 397.7a30.4 30.4 0 0 1 .8-4 40.1 40.1 0 0 0 2.2 6.4l.3 5-3.4-1.3v-6z"/>
  <path fill="#686868" stroke="#686868" stroke-miterlimit="10.4" stroke-width=".1" d="M447.4 409.7a26 26 0 0 1-.1-12l-.1 6 3.4 1.3.6 3.6-3.8 1z"/>
  <path fill="#fff" stroke="#fff" stroke-miterlimit="10.4" stroke-width=".1" d="M26.3 11.2c-1.8-8.5 9.3-13.8 16-9.7C45.8 3.8 47.8 8 49 12.2c-1.2 2.3-3.4 3.4-5.7 4.3a17.6 17.6 0 0 0 1.5 4.2c1.7-.8 2.2-2.2 1.5-4a14.8 14.8 0 0 1 2.8 1.6c2 .6 5.4-1.2 5.9 1.8 1-.9 1-2.4 1.5-3.6 1.8-1 4 0 6 0a76.7 76.7 0 0 0 13.9 1c0 1.3.5 3.1-1.2 3.8-2 0-4.1.1-5.9 1.4l-1.4 2-.3 3.5c1.7 1 3.7.6 5.6 1.2 3 2.4 2.8 6.6 2.3 10A45 45 0 0 1 60.9 38 7.3 7.3 0 0 0 55 36c-.6 6.1 3.6 12.8-.5 18.4a15 15 0 0 0 6.4 7.3c3.3 5.9 8.2 10.6 11.3 16.5.3 4.1.3 8.2.5 12.3 1 4.1.2 8.7 3.2 12.2l-.6 2.3c2.8 3.8 8.1 5.1 10.2 9.5-1 1.9-2.9 3.5-5.2 3-3.3.4-5.8-2.2-8.3-4a10.5 10.5 0 0 1-4-2l.2-4.8c-4.8-4.3-6.8-10.5-9-16.2-4.6-3.6-4.4-10.3-9-14-3.7-2.7-7.3-6-11.7-7.1-4.3 2.8-9.5 5.4-11.5 10.4-2.7 1.7-5.3 3.9-5.9 7.2l-3.4 4.6a10.7 10.7 0 0 1 .7 4.6 10.7 10.7 0 0 1-4.1 1l-3.2 4a15 15 0 0 1-6.9 1L2.1 101a4.8 4.8 0 0 1 1.8-3c2.7-2.2 5-4.7 7.6-7l-1.9-3.3 1.7-4c-.7-1.6-1.4-3.9.3-5 1.2-1.5 3.7-2.7 3.2-5 1.4-4.2 4.5-7.4 6.7-11.2l-3.7 2c-1.7-.3-1.7-3-.4-3.9l-1.3-1.5 2.6.7a45.5 45.5 0 0 0 6.3-6 53 53 0 0 1-2.8-15.6 11.6 11.6 0 0 1-4.8-11.5 10.3 10.3 0 0 0 2.5-3.2c3-.6 8.7-.2 8.4-4.6-2.9-1-4.1-4.2-4.3-7zm10.1 6c-3 2.3-.3 6.4 2.8 6 2.2-1.3 3-4 1-6zM95.6 49.4h65.7v12.9h-24.6v41.3h-17V62.4h-24v-13zM346.3 51c6.1-2.4 12.7-1.4 19.1-2 8-.7 16 .6 24 .3a19 19 0 0 1 11.7 4.4c3.8 4 3.5 10 4 15.2-5.5.1-11-.2-16.4 0a5.5 5.5 0 0 0-5.2-6.3c-7.4-.5-14.8-.2-22.1-.1-3.6-.2-7.9 1.7-8.2 5.7-1 6.2-1.4 12.7.6 18.7 3 4.5 9 3.6 13.6 3.7 6.1-.3 12.4.7 18.4-.7 3-1 2.7-4.1 3.5-6.5 5.3-.2 10.7 0 16.1 0-.2 4 .5 8.2-1 12-1.3 4.4-5.6 7-9.8 7.8-12 2-24.2.9-36.2 1.1-5.7-.4-11.8-1-16.6-4.3-4.5-3.4-5.3-9.5-5.6-14.8-.8-7.3-.3-14.7.4-22a14.3 14.3 0 0 1 9.7-12.1zM414.4 49.3h14v54.3h-14V49.3zM675.3 49.4h16.2v19c0 4-2.5 8.3-6.6 9.5a54.1 54.1 0 0 1-12 1v-8.4l5.4-1.4a32 32 0 0 0 1.7-4.7h-4.8v-15zM266.3 71.8c2.9-6 10.1-7 16-7.2 7.1-.3 15 1.7 19 8 3.5 10 1.4 20.7 2 31H289V84.2c-.3-2.6-.2-6.2-3-7.3a23.8 23.8 0 0 0-11.6-.8c-3 .4-5.9 2.9-6 6-.1 7.2 0 14.3 0 21.4h-14.7c-.3-8 .5-16.2-.5-24.3-1.2-3.6-5.8-3.2-8.9-3.5-4.3-.1-10.7.6-11.3 6-.9 7.2-.2 14.6-.4 21.8h-14V65.3h14v6c3.8-7 12.8-6.9 19.7-6.6a18.9 18.9 0 0 1 14 7zM439.5 71.6c2.8-4.9 8.8-6.4 14-6.5 8.8-.4 17.7-1.2 26.3.6a11 11 0 0 1 8.8 10.7c.3 9 0 18.1.1 27.2h-14.2c.1-2.5.3-5 .6-7.4-1.4 6.1-8 8.5-13.7 8.2-7-.4-14.9 1.2-21-3-3.7-2.9-3.4-8-3.2-12a9.3 9.3 0 0 1 5.8-8.5c6.9-2.5 14.3-1.3 21.5-1.6a13.6 13.6 0 0 1 6.5 1.2c1.1.8 2.3 1.5 3.4 2.1 0-2.4 0-4.8-1.1-7-2-2-5.2-1.7-7.8-1.9-3.9.2-8-.6-11.6.8l-1.4 2.1c-4.7.3-9.3 0-14 0l1-5zm11.8 17.9l.1 3.5c1.2.9 2.3 2.4 4 2.3 5.7.1 11.6.7 17.2-1a11.9 11.9 0 0 0 2-3c-.7-1.8-2-3.5-4-3.8a84.7 84.7 0 0 0-16.1.3c-1.3 0-2.2 1-3.2 1.7zM512.4 71.7c2.1-4.2 6.6-6.3 11.1-6.7 6.4-.6 13.4-1 19.3 2a13.4 13.4 0 0 1 7.6 11.3c.3 8.4 0 16.9.1 25.3h-14c-.2-7 0-14.2-.1-21.3a5.9 5.9 0 0 0-6-6c-4.5-.3-9.6-1.2-13.8 1.1-2.9 1.4-4.3 4.7-4.2 7.8v18.4h-14V65.3h14v6.4zM572.2 65.5a101.9 101.9 0 0 1 26.2-.2c3.8.5 7.9 1.7 10.3 4.8a14.8 14.8 0 0 1 2.5 10.6h-14c-1.3-5.3-7.6-5-11.8-5-4 .3-9.6-.4-11.5 4.1-1.2 4.4-1.6 11.7 4 13.2 4 .9 8.3.2 12.5.4 3.2.2 6.5-1.8 7-5.2h14.1c.5 5.3-1.1 11.5-6.5 13.7-8.4 3.5-17.7 2.3-26.5 2.5-5.3-.7-11.3-.8-15.4-4.7-3.5-3.1-4-8-4.6-12.3A30.6 30.6 0 0 1 561 72c2-4.3 6.8-5.8 11.1-6.5zM698.3 68.3c3.3-3 7.9-3.2 12-3.4 8.4-.3 16.9-.7 25.2.5 3.5.5 7.3 1.7 9 4.9 1.3 1.8 1 4.2 1.3 6.3l-14.5-.1-1.2-2c-5-1.6-10.5-1-15.7-1-1.7-.3-2.9 1.1-4.2 1.8l.5 2.5c3.2 2 7.1 1.2 10.7 1.4 6.5.3 13.3-.7 19.6 1.4 3.2 1.2 6 4 6.4 7.6.5 4.4.2 9.7-3.4 12.8-4.9 3.3-11 3.5-16.6 3.3-8.7-.2-17.7.8-26.2-1.7-4.7-1.6-7-6.7-6.8-11.4H709l1.4 2.8c5.4 2.2 11.3 1.1 16.9 1.4 2.4.3 5.6-1.1 5.3-4-.3-1.5-2-1.8-3.3-2.1-8.3-.6-16.7.3-25-1.1-4.2-.6-8.4-3.6-9-8-.6-4-.3-8.9 3-12zM166 66c10-1.7 20.3-1.6 30.4-.7 5.1.5 11 2.7 12.6 8a44.6 44.6 0 0 1-.4 22.9c-2.7 6.7-10.8 7.5-17.1 8-8.6.1-17.4.6-25.8-1.3-3.8-1-7.5-3.3-8.8-7.3-2.3-7-1.6-14.4-.4-21.6.9-4.4 5.2-7.2 9.5-8zm8 10a5.2 5.2 0 0 0-3.7 4.3c-.7 3.4-.9 7.3.7 10.5 2.4 3.4 7 2.3 10.5 2.6 4.1 0 9 1 12.5-1.7 2.2-2.2 1.5-5.6 1.9-8.4.4-3.4-1.7-7.3-5.3-7.7-5.6-.3-11.2-.8-16.6.4zM615.2 65.3h15.3c3.9 9.3 7.2 18.7 11.2 27.9 3.8-9.4 8.2-18.5 12-27.8h15.5c-8 16.4-15.2 33.2-23.2 49.6-4 6.8-13.3 6.4-20.2 5.7v-9.9a28.4 28.4 0 0 0 7.6-.6c2.2-1.5 3-4.3 4.2-6.6h-5.3c-5.8-12.7-11.6-25.4-17.1-38.3z"/>
  <path fill="#020202" stroke="#020202" stroke-miterlimit="10.4" stroke-width=".1" d="M36.4 17.3h3.8c2 1.9 1.2 4.6-1 5.9-3 .4-5.9-3.7-2.8-6z"/>
</svg>
