<svg xmlns="http://www.w3.org/2000/svg" width="763.5" height="114.2" viewBox="0 0 572.7 85.7"><g stroke="#000" stroke-width="3.7"><path fill="#8da5b3" d="M373.2 1.3c2.6.2 5.2-.6 7.7-1.2 1.8-.3 2.7 1.5 3.7 2.6l3.8 1-1.8 2.3.9.9.2 1.7c1.2-1.5.4-3.4 1-5 2.7-1.4 5.6-.4 8.3-.1 5.7.1 11.7 1 16.7-2l2 2-1.2 3c2.6.1 4.8 1.3 6.6 3.2-2 0-3.8-.2-5.7-.3l-.6 2.5-.6.3c-2.8-.2-5.3-1.7-8-1.8-4-.2-8-.1-12-.2l.3 5h-4v-4c-5.5-.2-11-.4-16.5-.4a14 14 0 0 1-4-6.7l3.8.6-.6-3.4z"/><path fill="#889fad" d="M413.7 1.4c5.1-1 10.3-.4 15.5-.3.6 4 .3 8.1-.1 12.2-4.7-.3-9.7.4-14.1-.6l-.2-.8.6-2.5 5.7.3c-1.8-1.9-4-3.1-6.6-3.3l1.1-2.8-1.9-2.2z"/><path fill="#8fa5b3" d="M339.4 2.3l3.8-.9-.6 3.8 1.5-.1-.6 4.4 2.5-.7-2-.2c.3-2.4.2-4.8 0-7.2 4.9.9 10.3 3.8 15 1.1 3.5 1.4 7.3 1.1 11 1.6a14 14 0 0 0 4 6.7h-12.2l1.5 3.6-1.6 3.3-4.4-1.5.6-5.4c-2.2-.2-4.6-.7-6.7.2-3.5 1.6-7.5 1.2-11.3.8l-1-1.2a4.2 4.2 0 0 0 2.2-2.4L339 10a35 35 0 0 1 .5-7.7z"/><g fill="#a1b4c1"><path d="M274.9 8.6c10.9-3 22.3-2.6 33.5-2.6l-.6 2.8c-11-1.5-22-1.3-32.9-.2zM390.5 15.2h4l1.4-.3c1.8.8 3.6 1.7 5.3 2.7l-2.3 3.2 1.5 2 4.1-4.2 4.5-.7c2-.4 3.7-1.7 5.8-1.3 0-.6-.4-1.7-.5-2.3 3.2.4 6.3 1 9.5 1l1.4 4 1.8.3-1.7 2.6.8 1.6 2.5-1.6.7 3.4h-20.4l.3-2.4 2.7-2.2c-2.2 1.5-4.1 3.2-6.4 4.5-7.4.3-14.9.1-22.3 0l1.1-3.1c.6-1.3 1-2.6 1.3-4l1.5-.2 1.2-2.6 2.2-.4m24.3 3.9c1.3 0 2.3-.4 3.1-1.3-.2-1.9-4.9 0-3 1.3m-1.7 1.1c.6.5.6.5 0 0z"/></g><path fill="#879bab" d="M308.5 6.1a45 45 0 0 1 21.8 6.4c-2.6.2-5.2.7-7.8 1A55 55 0 0 0 309 8.8l-.4-2.8z"/><path fill="#d6dde2" d="M10.2 14.8c11.3-3.6 23.2-.8 34.7-.2-2.5 2.3-5.1 4.5-7.8 6.7-3.9-2-7.3-5.7-12-5.6-4.3 0-9.5.3-12.4 4-1.5 1.7.1 4.2 2.1 4.6-2 1-4.1-.6-6 .8l-.6 1.6-3.5 2.8C2.9 27.7.5 25.7 1 22.8c.5-4.6 5.3-6.8 9.2-8M6.5 18C6 19.4 6.6 20 8 19.5 8.4 18 8 17.6 6.5 18z"/><path fill="#d7dde3" d="M50.8 13.4H67c1.2 0 2.7-.2 3.7.8 10.6 8.2 21 16.7 31.7 24.8l.1-17c1.6 1.4 3.2 3 5.4 3.7-1.7-2-3.7-3.7-5.5-5.5v-3.4l-6.6-3.4h20.3c-2 1.3-4 2.4-6.1 3.4v3.5a111.6 111.6 0 0 0 0 .2c-.2 7.3 0 14.5-.2 21.8-1.8-1.3-2.4-3.6-3.6-5.4l2.4 5.4 1.5.4-2.1 2.2-5.2 1.4-3.5-1.1-.8-2-2-.1-.5 2.5-31.8-24.5-1-.9-3 .3-1.7-2.3-1.4.5c-.2-3.4-4.4-3.4-6.4-5.3z"/><g fill="#d7dee3"><path d="M122 13.4H147c-2.1 1.2-4.3 2.3-6.5 3.3-.5 3.3 1.2 7.6-1.4 10.1l1.4-.5V42l-4.8-1.3-2-3.1-.7 3.5h-4.6V16.8c-2.2-1-4.4-2-6.5-3.3m10.4 10.8c.5.5.5.5 0 0zM371.3 39.3c-.2-1.3-.5-3.6 1.4-3.5 1.3 1 .5 5.5-1.4 3.5z"/></g><path fill="#d2dade" d="M153.8 13.4c14.1.4 28.4-1 42.4 1.2 5 1 10.5 2.1 14.2 5.9-2.3 0-4.5-.5-6.7-1-2.1-.5-4 1.1-5.8 1.9-5.8-5-14-5-21.2-5l-.1-1.4-.1 1.7-4.3-.2-.2 5.6-2.6-2.7-4 1.9-1.5-1.1-2.7.2-1-1.7-.4-2c-2-1-4-2-6-3.3z"/><path fill="#b9c8d2" d="M214 13.4h49c0 2.6-.4 5.2 0 7.8-1.8-1-3.6-2-5.5-2.8v-.2l-1-4c-13.6.2-27.2-.4-40.7.1-.7-.3-1.3-.5-1.9-.9z"/><g fill="#a2b6c2"><path d="M322.5 13.4c2.6-.2 5.2-.7 7.8-1 1.8 1.3 3.3 2.9 4.8 4.4l10.7.7-.4-1.4c4.1.5 9.1-.1 12.3 3l.5 2.2-1.4-1 1.8 2-.7-3.7 2.4 2c-1.2-1.3-2-3-3-4.4l4.4 1.5 1.6-3.3.8 2c2 1.6 4.6 2.2 7.1 1.9v2.3l-1.9-1.4.2 4c-2 1-4.1 2.1-5.8.2l-.2 1.2c-5.6-.2-11.2 0-16.7 1-3.3.3-6.6.2-9.9.2 3.7-.4 7.5-1 10.5-3.2l-3.7-.2-1.5 1.7-.6-2-.7 2-4-1c1-2-2.2-3.2-3.2-1.2-1.9-.5-3.8-.8-5.8-1.2 0-.5-.3-1.6-.5-2.2a52.4 52.4 0 0 0-4.9-5m7.4.6c-1.5 2.8 3.5.2 0 0m20.4 3.8c0 3.3 3-1.5 0 0m-12 4.4c.6.5.6.5 0 0zM470.9 21.4c2.7-.5 5.3-1.4 7.8-2.4-1.3 2.3-3 4.3-4.6 6.5l-1.5-2.4-1 1.7c-1.8 0-.7-2.4-.7-3.4z"/></g><path fill="#c5cfd7" d="M215.8 14.3c13.5-.5 27.1 0 40.7 0l1 4c-1.8-.8-3.5-1.9-5.5-1.8h-19.4v3.6l-2.9-.6-2.6 2-.8-5.1-3.4 1-2.3-.8c-1.7-.6-3.3-1.4-4.8-2.3z"/><path fill="#768a98" d="M275.4 15.9c1-1.4 2-2.8 3.9-2.6v6h-1c-1.9-.2-3-1.5-3-3.4z"/><path fill="#bfcdd5" d="M279.3 13.3l5.3.2c.4 1.6.8 3.3 1.6 4.8l1.4 4.2a232 232 0 0 1-4-1.7h-.4c-2.4.5-4.8.6-6.7-1.2l1.9-.3h.8v-6z"/><path fill="#abbec6" d="M284.6 13.5c5.6.2 11.3-.6 17 .3l.9 1.8 1.2-1.5 2 2.5v-2.4c4.4-.8 1.7 3.3 1.8 5.3l2.4-.3-.3 4-1-1c-3.5-5-9.9-6-15.5-5.7-2.3.4-5.7-.9-6.9 1.8-.8-1.5-1.2-3.2-1.6-4.8z"/><g fill="#000001"><path d="M330 14.1c3.4.2-1.6 2.8 0 0zM414.8 19c-1.8-1.3 3-3 3.1-1.2-.8 1-1.8 1.3-3 1.3zM295.4 69.6l1-.9.3 1.5c4.4 1 9 2.1 13.5 1.9-3.7.4-7.8 1.3-11.1-1l-4.2 1.6-.9-1.2 2.7.3-1.3-2.2z"/></g><path fill="#a9bcc6" d="M308.7 14.7c4.8 1.4 10.6 2.7 13.4 7.3 1.2 1.6.1 3.4-.5 5-2.9-1-5.4-2.8-8.3-3.7 0-2.2.3-4.6-.7-6.7-.2 2.3-.2 4.5-.2 6.8l-2 .4.2-4.4-2.2-1.1.3-3.6z"/><path fill="#95aab9" d="M423.5 14.5c5 .8 10 .6 14.8.4 0 .5.3 1.4.4 1.9 4.4-.4 8.9-.2 13.3 0-.5 1-1 2.2-1.3 3.5.3 2 2.6 2.8 4 4.1l.3.7-2.6.9v-1.7h-.7l.2 1.5c-7.6-.3-15 0-22.6-.2l-.7-3.4-2.5 1.6-.8-1.6c.5-.9 1-1.8 1.7-2.6l-1.8-.2-1.4-4z"/><path fill="#e1e6ea" d="M220.6 16.6l2.3.8 3.4-1 .8 5.2 2.6-2 2.9.5v9.7c5 .3 10.3 0 15.5.5l2.6-1.2c1 1.6 2.1 3 3.3 4.3l.6 3.1c-3-1.3-5.9-4-9.5-3.6l-12.6.1v16.3H251c4.5.3 8-3 12-4.6v7.7h-49c2.2-1 4.3-2.2 6.5-3.3V16.6m20.7 14.6c.6.6.6.6 0 0m11.1 2c.6.5.6.5 0 0z"/><path fill="#9bafbc" d="M559.2 20.4c2.3-1.3 4.6-2.6 5.9-5 1.7 1 2 3 2.7 4.8h3.8c0 2 .2 3.8-.2 5.7-14.6 0-29.3 0-43.9-.3h-1.7l-.1-4.2c-2-.5-4-.9-5.9-1.5 13.1-.6 26.3.4 39.4.5z"/><g fill="#869cab"><path d="M401.2 17.6l7.8.3-4.5.7-4.1 4.2-1.5-2 2.3-3.2zM21 59c5.6-.2 11.2 0 16.8 0v2.8c.1-1 .4-1.9.6-2.8H48c.5.3 1.4 1 2 1.2-2.3 3-5.4 5.3-9.2 5.5-1.8.2-3.7 0-5.5 0l.4-5.8-.3 2.6c-4.8.2-9.7.1-14.6.4l.3-4z"/></g><path fill="#9db0be" d="M452 16.7l12.9.5c3.8.3 7.7.5 11.5 1-2.4 1-5 1.5-7.5 1.3a46 46 0 0 0 0 5.6c-3-1.3-6.3-1.2-9.2.4-1.3.2-2.6.2-3.8-.1l-1.2-1c-1.4-1.3-3.7-2-4-4.1.3-1.3.8-2.4 1.3-3.6m12.4 5.4c.3 1.3 1 1.5 2.2.6-.3-1.3-1-1.5-2.2-.6z"/><g fill="#586471"><path d="M464.9 17.2c5.5-.1 11.1-.5 16.5.8l-2.1 2 .5 5.4c15.3.3 30.6 0 46 .1h1.7c-6 .9-12.3.3-18.4.5-16.5-.2-33 .4-49.4-.5 2.9-1.6 6.2-1.7 9.2-.4a46 46 0 0 1 0-5.6c2.6.2 5.1-.3 7.5-1.3-3.8-.5-7.7-.7-11.5-1m6 4.2c0 1-1 3.4.7 3.4l1-1.7 1.5 2.4c1.5-2.2 3.3-4.2 4.6-6.5-2.5 1-5.1 1.9-7.8 2.4m5.6 3.6c1.5 1.4 3.4-1.2 2.4-2.6-1.2-.4-2.9 1.4-2.4 2.6zM331.4 37.6c2.4.7 5.3.2 7.2 2.1h-3l.3 2c-.8-1.1-1.9-1.9-3.3-1.5l-1.2-2.6zM282.6 46.1l1.1 1.1-1 2.3c-2 .2-4.2.2-5.7-1.4 2 .4 3.8.5 5.7.3l-.1-2.3zM286.4 49.6h1.2c1.7-.6 3 .9 4.5 1.5-2.6 0-5.2.4-7.7.6l.6-2zM387.3 53.6l3.4 2.5-1.1 2c1.4.3 3.3 0 4 1.7l-3.7-.5.2 3.2 1.6-.2c-.2 2.2-.2 4.4 0 6.6-.5-2.3-1-4.7-2.7-6.4l.6-4.9h-1.3c-.2-1.4-.5-2.7-1-4z"/></g><path fill="#afb9bf" d="M6.5 18c1.4-.4 1.9 0 1.5 1.5-1.4.4-1.9 0-1.5-1.5z"/><path fill="#ced7dd" d="M57.2 18.7l1.4-.5 1.7 2.3 3-.3 1 .9c.6 6.8 0 13.6.3 20.4-2.6-.3-5.1.4-7.6 1.2.3-5.5-.3-11.2.3-16.7a18 18 0 0 0 4.7-3c-1.5.7-2.8 2.8-4.7 2-.6-2-.2-4.3 0-6.3z"/><path fill="#688191" d="M350.3 17.9c3-1.5 0 3.3 0 0z"/><path fill="#afc0cf" d="M371.2 18.3l1.7-.1a302 302 0 0 0-.2 6.3l5.2.7v.4h-31.1c5.5-1 11.1-1.2 16.7-1l.2-1.2c1.7 2 3.8.9 5.8-.1l-.2-4.1 1.9 1.4v-2.3z"/><path fill="#849dae" d="M372.9 18.2c4.2-.3 8.5.2 12.7.2-.4 1.4-.7 2.7-1.3 4h-2.5l-2.7-.4-.3 3.4-.9-.2-5.2-.7v-.3l.2-6z"/><path fill="#a4b6c4" d="M481.4 18l.9-.8.3 6.7.1-6.3c4.5.6 9 .2 13.4 1.8 5.3.5 10.6.3 16 .4 2.5.2 5.2-1 7.7 0 2 .7 4 1.1 5.9 1.6v4.1c-15.3 0-30.6.2-46 0 0-1.9-.2-3.7-.4-5.5l2.1-2z"/><path fill="#e4e9ec" d="M160.2 18.7l1 1.7 2.7-.2 1.5 1 4-1.8L172 22v8l-1.8-2 2.3 4.8c8.1 0 17.4 1 24.3-4.2 2.4-1.7 2.6-5 1.1-7.3 1.8-.8 3.7-2.4 5.8-1.8 2.2.4 4.4.9 6.7.9h.6c2.8 3.3 1.3 8.3-2.5 10-11 6.2-24.2 5.4-36.4 5.4v13.2c1.8 1 4 1.6 5.4 3.2-7.6.2-15.2.1-22.8 0 1.5-1.6 3.5-2.3 5.4-3.2 0-10.2-.2-20.3.1-30.4m6 5.1c0 1.5 2.7 3 3.1 1 .6-1.9-2.6-3-3.1-1z"/><path fill="#d9dee4" d="M275.6 19l1 .6c1.8 1.8 4.2 1.7 6.6 1.2h.5l3.9 1.7v5.2c-4.2.1-8.2 1.1-12 2.6V19z"/><path fill="#7b8b93" d="M283.2 20.8h.5z"/><path fill="#556a7b" d="M413.2 20.2c.6.5.6.5 0 0z"/><g fill="#bdccd3"><path d="M328 20.7l5.7 1.2c1 .6 2 1 3.2 1.3l4 .9.7-2 .6 2c.3-.4 1-1.3 1.5-1.7l3.7.2c-3 2.3-6.8 2.8-10.5 3.2-2.7.2-5.5.1-8.3.2 0-1.8-.2-3.6-.7-5.3zM295.6 59h23.5v8.7l-4.6 1.1.8 2.7-2 .2-3.1.4c-4.6.2-9-.8-13.5-1.9l-.3-1.5a151 151 0 0 0 2.5-4l-1.6.3c-1.2-1.8-1.4-4-1.7-6m21.7 5.2c-1.6 3 3.3.2 0 0z"/></g><path fill="#8094a1" d="M333.7 21.9c1-2 4.2-.9 3.2 1.3a7.6 7.6 0 0 1-3.2-1.3z"/><path fill="#667884" d="M338.4 22.3c.5.5.5.5 0 0z"/><path fill="#9db3bf" d="M379.1 22l2.7.3 1.1 3.4-4-.3.2-3.4z"/><path fill="#6a808e" d="M464.4 22.1c1.2-.9 2-.7 2.2.6-1.2 1-2 .7-2.2-.6z"/><path fill="#9aafbc" d="M476.5 25c-.5-1.2 1.2-3 2.4-2.6 1 1.4-.9 4-2.4 2.6z"/><path fill="#b0bcc1" d="M166.2 23.8c.5-2 3.7-.9 3.1 1-.4 2-3.2.5-3.1-1z"/><path fill="#a6afb4" d="M132.4 24.2c.5.5.5.5 0 0z"/><path fill="#dae0e5" d="M309 23.2l.9 1.8c.5 2.1 3.4 7.8-1.1 6.6L311 33l-3 .3c1.7 2.1 4.6 3.5 5.3 6.4 2.2-.4 3.5 2 4.8 3.3-1 1-2.3 1.8-3.7 2.3-.2-1.9 1.2-4.6-1.2-5.5l.7 3.7-3 .7c5-1 4 5.4 4.4 8.5-6.2-6-12.7-11.8-18.7-18l.2-3.4 1.5 2.2 3.2-1-3.8-1.3c2.9-.3 5.6-1.1 8.2-2.3l1.8 2.9-1.6-3c1.5-1.5 3-3.2 2.7-5.5z"/><path fill="#adbcc7" d="M310.4 24l3.4.1-.7 1.9 2-2 2.7 2.2c1.3.2 2.5.7 3.5 1.5-2.9 2-5.8 4.3-9.5 4.5 0-2.8.1-5.8-1.4-8.3m4.9 5.2c.5.5.5.5 0 0z"/><path fill="#c3d2de" d="M372.7 24.5v-.3.3z"/><path fill="#c6d2d8" d="M15 25c8.5 3.6 17.5 5.5 26 8.7 2.8 1 4.9 3.3 5.8 6l-3.1 1.7c-.9-1.5-2-2.9-3.4-3.8l-2 5.3.3-5.4-3.4 3.6c-3.6-2.7-8.1-3.5-12.3-5-6.1-2-12.6-3.3-18.2-6.6l3.5-2.8.3 2.3.6-3.7c1.6.3 3.2.6 4.8 1.2L15 25z"/><g fill="#96acb9"><path d="M250.3 28.5l4.3-2c.2 3.3 0 6.7 0 10l-.6-3a33.6 33.6 0 0 1-3.3-4.4zM320.1 77.4l33.9-.2c3.7-.2 7.5-.3 11.2.2-6.1.6-12.1 2.3-18.3 2.2-.8.6-1.7 1-2.7 1l-31.7 5c-3.7.5-6.3-2.8-9-4.5l1.4-2.6c3.3 1.2 6.7 2 10.2 2.5l-1.8 2c1.8-.3 3.7-.5 5.6-1v-2.3l2.2 3.8c-.2-2-.5-4-1-6z"/></g><path fill="#e6eaed" d="M275.5 30.3c4-1.5 8-2.5 12-2.6v3.7c3.2 0 6.3 0 9.4-.2a61 61 0 0 0-.2 3.4c-3-.2-6-.2-9.1-.1-.3 5 .2 10.1 0 15l-1.2.1-1.4.2-.6 2c2.5-.3 5.1-.7 7.7-.7l2 1.4c-8.4-.3-16.8 0-25.2 0 2.2-1.3 4.4-2.3 6.6-3.4V30.3m7 15.8l.2 2.3c-1.9.2-3.8.1-5.7-.3 1.5 1.6 3.6 1.6 5.7 1.4l1-2.3-1.1-1z"/><path fill="#394b57" d="M315.3 29c.5.6.5.6 0 0z"/><path fill="#48515a" d="M241.2 31.2c.6.6.6.6 0 0z"/><path fill="#d2dbe0" d="M324 32.4c10.3.3 20.7 0 31 .2l.7 1 1.1-1c4.6-.3 9.2-.2 13.8 0-1.2 2-3 3.6-5.4 3.4-8-1.2-16.2-.2-24.3-.6l1.6 1.2V43l-2.4-.5 2.6 1-.2 5.3c4.5.2 9 .1 13.5.1 3.2.2 5.7-2.2 8.6-3.1v9.5c-3.2-1.2-6-3.7-9.5-3.4l-12.6.1v12.6l-4.2 3.8-2.6-1.4a14.3 14.3 0 0 0-4.3 4.3h-6.7a39 39 0 0 1 5.8-3.2V36.5c-1.3-2.2-4.5-2.7-6.6-4.1m13.2 1.3c-.3 2 .2 3.9 1.8 5.3 1-1.6 1.4-3.5 1.6-5.4h-3.4m-2.6 1.4c.5.6.5.6 0 0m-3.1 2.6l1.2 2.6c1.4-.4 2.5.4 3.3 1.5l-.3-2h3c-1.9-1.9-4.8-1.4-7.2-2.1m7 7.4c.2 3.3 3-1.6 0 0m1.8 3.2c.5.5.5.5 0 0m-7.7 4c-1.4 1.3.8 3.9 2 2.2 1.4-1.3-.6-3.7-2-2.2z"/><path fill="#a5b3bd" d="M370.6 32.7l2.4-.5-.3 3.6c-2 0-1.6 2.2-1.4 3.5-2-1-4.1-2-6-3.3 2.4.2 4-1.4 5.3-3.3z"/><path fill="#585f66" d="M430.4 32c8.4.4 16.8-.1 25.3 0-.6.6-1.1 1-1.8 1.3-1.8-.1-3.7-.2-5.4.4l-4.4-1c-1.3-.5-2.3-.1-3 1h-.2a9.2 9.2 0 0 0-8.9-.1l-1.6-1.7z"/><path fill="#bdccd2" d="M462.5 32.6l3-.2-.1 2.6.6-2.6h3.4v4.3l-7 3.3c.1-2.5.2-5 .1-7.4z"/><path fill="#aebec9" d="M524 32.4h48.6V40c-4.2-1.3-7.8-5-12.5-4.5h-17.8c0 .6-.3 1.6-.4 2l-1.1 3.1-2-2.4-3.5.2c-.5-.8-.8-1.7-1.2-2.5l-4-.3a19 19 0 0 1-6.2-3.2z"/><path fill="#888e96" d="M252.3 33.2c.6.5.6.5 0 0z"/><path fill="#dae1e6" d="M379 32.5h9.6c2.7 2.3 5.7 4.1 8.7 5.9l.7 2.2-1.8-.4 1.7 1.6-3 .7 2.7-.3v10.4l-6.1 1 .4-2.7-3.9-.3-1.8-2.4c0 6.6.4 13.3-.5 19.8 0-10.8-.3-21.6 0-32.5-2.3-.8-4.5-1.8-6.6-3m15.3 11.8c-1.3.3-2.8 2-2.1 3.4 1.7.9 4-2.6 2-3.4z"/><path fill="#bbcad1" d="M388.6 32.5c4-.1 8-.2 11.9 0a6 6 0 0 1-2.8 3.4l-.4 2.5c-3-1.8-6-3.6-8.7-5.9z"/><path fill="#9fadb8" d="M432 33.6a9.2 9.2 0 0 1 8.9.2l-2.9.4-2 1-4-1.6z"/><path fill="#9eb1bd" d="M441 33.8c.8-1.2 1.8-1.6 3.1-1.1-.7 1.2-1.7 1.6-3 1z"/><path fill="#708594" d="M444.1 32.7l4.4 1c-1.8.7-3.7 1.1-5.5 1.5l1.2 2-1.3-.2-1-.3c.6-3-4.1-.9-1.7.7l-2 .3c-.8-.7-1.5-1.6-2.2-2.5l2-1 2.9-.4h.1c1.4.5 2.4.1 3.1-1.1z"/><path fill="#94a5b0" d="M448.5 33.7c1.7-.6 3.6-.5 5.4-.4-1.7 1-3.5 1.7-5 3l-2 1.7-4-1 1.3.3-1.2-2.1c1.8-.4 3.7-.8 5.5-1.5z"/><path fill="#c3ced7" d="M469.8 32.4h9.6l.2 3.2c-3.3 0-6.6-.4-9.8.5v-3.7z"/><path fill="#c8d3da" d="M479.5 32.5h10c.8 1.2 1.1 2.8 2.2 3.8 1.5 1.4 3.3 0 4.8-.3v13l-1.9-2c.4-1.3.3-2.9-.7-4l-1.9 1-.6-1.8.5-1.1a5.4 5.4 0 0 0-4.8.5l-2.6-.7v-5.3c-1.5.2-2.6-.3-3-1.6v2l-1.6-.8c0-.7-.3-2-.4-2.7z"/><path fill="#bccad2" d="M489.6 32.5h29V40c-3.2-1.3-6.2-3.5-9.6-4.4-4.1 0-8.4-.5-12.5.4-1.5.2-3.3 1.7-4.8.3-1-1-1.4-2.6-2.1-3.8z"/><path fill="#6b7f8b" d="M337.1 33.7l3.4-.1c-.2 1.9-.5 3.8-1.6 5.4a5.5 5.5 0 0 1-1.8-5.3z"/><path fill="#556069" d="M334.5 35c.5.6.5.6 0 0z"/><path fill="#495d6b" d="M440.2 37.4c-2.4-1.6 2.3-3.6 1.7-.7l-1.7.7z"/><path fill="#c4cfd6" d="M530 35.6l4.1.3c.4.8.7 1.7 1.2 2.5 1.2 0 2.4 0 3.5-.2l2 2.4 1.1-3c.2 2.8.2 5.7.1 8.6-2.8-.3-5.7-.3-8.6-.8-1.3-1.2-2.2-2.7-3.3-4v-5.8z"/><g fill="#c9d4d9"><path d="M440.2 37.4l1.7-.7 1 .3 4 1 2-1.7c.2 2.7.2 5.4.2 8.2-2.4.4-4.9.3-7.3.5h-.5l-1.4-.2 1-.3c-1.3 0-2.6-.2-3.8-.3V38l1.1-.2 2-.3zM557.2 48.9c2.4-.8 4.6-2.3 6.9-3.4v10c-2.3-1.2-4.5-2.6-7-3.4-2.5-.3-5.2-.2-7.8-.2l-1.2-3h9.1z"/></g><path fill="#b0bfca" d="M35.2 41.1l3.4-3.6-.3 5.4 2-5.3c1.5 1 2.5 2.3 3.4 3.8l3.1-1.6c-.4 1.5 0 3.8-1.6 4.8a38 38 0 0 0-10 5.3v-4c.2-1.6.4-3.2 0-4.8z"/><path fill="#c4d0d8" d="M133.8 37.6l2 3.1 4.8 1.3V49c2.2 1 4.4 2.1 6.5 3.3h-25.2a129 129 0 0 1 6.6-3.2v-8l4.6-.1.7-3.5z"/><path fill="#b6c4cb" d="M57 42.7c2.5-.8 5-1.5 7.6-1.2 0 2.5.2 5-.3 7.5 0 .5-.3 1.4-.4 1.9l-1.3-1v-2l-2.5.7.4-3.7-3.4 3.7v-5.9z"/><path fill="#dce1e6" d="M484.5 41l2.6.6c1.4.5 2.8.7 4.3.6l.6 1.7c.4 1.3 1.7 2.2 2.6 3.1l2 2v19.1a99 99 0 0 1 6.6 3.3h-25.3l6.6-3.3V41m5.8 12.5c-.9 1.2-.6 2 .7 2.2.8-1.2.6-2-.7-2.2m2.1 1.6c-.6 1.3-.2 1.8 1.2 1.4.7-1.4.3-1.9-1.2-1.4z"/><path fill="#75838b" d="M487 41.6c1.5-1 3.3-1 4.9-.5l-.5 1c-1.5.2-3 0-4.3-.5z"/><path fill="#d4dbe1" d="M530.1 41.3c1 1.4 2 3 3.3 4.1 2.9.5 5.8.5 8.6.8v2.7h6.1l1.2 3H542v16.4h21.2c3.2-1.3 6.2-3.2 9.4-4.5v7.7c-16.3-.2-32.5 0-48.8 0 2-1.4 4.1-2.4 6.3-3.5V41.3z"/><path fill="#c0cdd4" d="M96.7 43l1.9.1.8 2 3.5 1.2 5.2-1.4.8-.2.9.3c.3 3.8.1 7.6 0 11.4-4.4-3.8-9.2-7.1-13.7-10.8l.6-2.5z"/><path fill="#9eadb5" d="M492 44l1.9-1c1 1.1 1 2.7.7 4-.9-1-2.2-1.8-2.6-3z"/><path fill="#9db0bc" d="M0 51.3C2 48.4 4.8 46 7.5 44c3 1.9 5.7 4 8.9 5.5 6.4 1.7 13.8 1 18.9-3.6v4a38 38 0 0 1 10-5.3c-2.3 4.4-7.5 6-12 7.1-11 2.7-22.1.2-33.1-.4z"/><path fill="#dce3e6" d="M315.3 45.5l3.5-2.4c2 1.9 4 4 6.3 5.7 1.7 1.2 4 1.8 5.4 3.5-5 .2-10 .1-14.9 0 .1-2.3 0-4.5-.3-6.8z"/><path fill="#bcc4cc" d="M394.4 44.3c1.9.8-.4 4.3-2.1 3.4-.7-1.4.8-3 2-3.4z"/><path fill="#9fb1bd" d="M57.1 48.6l3.4-3.7-.4 3.7 2.5-.7v2l1.3 1 .4-1.9 6.8 3.5H50.8c1.8-1 3.7-2.1 5.7-3l.6-.9z"/><path fill="#8a949d" d="M338.4 45c3-1.6.2 3.3 0 0z"/><path fill="#d1dadf" d="M437 44.3l2.9.5 1.4.2h.5l6.8.5.7 4h-1c-1-3-1.4 1.7-2 2.6l-1.5-.6a3.8 3.8 0 0 1-3.4 3c-1.9.5-.2 2.2.3 3.2.8-1.4 1.4-2.8 2.8-3.6l.5-2 2.6.5.2-3 1.2 1.8c.2 5.5 0 11.1 0 16.7 2.1 1 4.3 2 6.3 3.3-8.1-.2-16.3 0-24.4 0 2-1.3 4.1-2.4 6.3-3.4l-.2-6.7 3-.7-3 .2V44.3m7.3 13.8c-1.7 2.9 3.3.4 0 0m-5 9.1c.6.5.6.5 0 0z"/><path fill="#a4abb1" d="M340.2 48.2c.5.5.5.5 0 0z"/><path fill="#c0ccd4" d="M386.2 48.2l1.8 2.4 3.9.3-.4 2.7 6-1v15.8c6.2-.2 12.4.1 18.6-.2 3.2-1.2 6-3 9.1-4.5 0 2.6 0 5.2-.2 7.8h-46l6.7-3.5c.9-6.5.5-13.2.5-19.8m1.1 5.4c.5 1.3.8 2.6 1 4h1.3l-.6 4.9c1.6 1.7 2.2 4.1 2.7 6.4-.2-2.2-.2-4.4 0-6.6l-1.6.2-.2-3.2 3.7.5c-.7-1.8-2.6-1.4-4-1.7l1-2c-1-.9-2.2-1.7-3.3-2.5z"/><path fill="#b0bec5" d="M332.5 52.2c1.4-1.5 3.4 1 2 2.2-1.2 1.7-3.4-.9-2-2.2z"/><path fill="#b1bac1" d="M490.3 53.4c1.3.2 1.5 1 .7 2.2-1.3-.2-1.6-1-.7-2.2z"/><path fill="#97a7b0" d="M492.4 55c1.5-.5 1.9 0 1.2 1.4-1.4.4-1.8 0-1.2-1.4z"/><path fill="#a2afb6" d="M444.3 58.1c3.3.4-1.7 2.9 0 0z"/><path fill="#67707c" d="M.4 59.2c3.3 0-1.6 3 0 0z"/><path fill="#8c9fb0" d="M2.7 59.3c6-.8 12-.3 18.1-.4l-.7 3.9c-6.2.3-12.3 1.3-18.5.6L.3 64.9v-3c1-.6 1.7-1.6 2.4-2.6z"/><path fill="#99adbb" d="M47.9 59l67.1-.1-1 2 3.7.3-1.4 2.6 3 3.1.7.6.2 2c-6 0-12-.9-18-.4-2.9.4-5.4-1.6-8.2-1.3-8.7.5-17.4.1-26 .7-1.4-.2-3.5.8-4.4-.6l-1.7-2.4a14 14 0 0 1-8.1-3.8v3.2l-1.8.5c-3.8.5-7.5.1-11.3.3 3.8-.2 6.9-2.5 9.1-5.5L48 59z"/><path fill="#8ea5b4" d="M115 58.9c1.8 0 3.6-.2 5.3.3l3.2 1.4c1.1 2.4 2.6 4.8 4.7 6.6l1-5.1 1.5 1.5 1.7-3c2.5 1 2.8 3.7 3.3 6 2.5.6 4.9 1.6 6.8 3.3-2.7.1-5.4 0-8-.3l-2-1.3c-1.4 2-4 1.4-6 1.4l.4-1.5c-1.4 2.4-4.5 1-6.7 1.3l-.2-2c2.2-1-.8-3.1-.6-.6l-3-3 1.3-2.7-3.7-.3 1-2z"/><path fill="#a4b7c4" d="M120.3 59.2c7.6-.6 15.3 0 23-.4-.7 2.4-1 4.8-1 7.3l1.2-3.4c.1 2.8 1.6 4.7 4.4 4.9L146 70h-3.5c-2-1.8-4.3-2.8-6.8-3.5-.5-2.2-.8-4.9-3.3-5.9l-1.7 3-1.5-1.5-1 5a18.4 18.4 0 0 1-4.7-6.5l-3.2-1.4z"/><path fill="#859aaf" d="M143.2 58.8l1.8.3c3 3 4.3 7.2 6 11h-5l2-2.5c-3-.2-4.4-2-4.5-4.9l-1.3 3.4c.1-2.5.4-5 1-7.3z"/><path fill="#b2c2cc" d="M145 59c13.2-.3 26.4 0 39.5 0l2.8 4.8 3.2-2.6c1.3 1.4 2.6 2.8 4.2 3.8l1 1.3 4.8-2.7-.2 2.9 2-.5c.6 1.5 2.1 2 3.5 2.6a32 32 0 0 1 4.6 2.7c-7.1 0-14.2-.6-21.4-.5-1.5 0-3.6.1-4.3-1.5l-2 1.2h-12l-.2-1.7-.1 1.9-3.8-1c-.3 0-1 .4-1.2.6-4.8-.2-9.6-.2-14.4-.2-1.7-3.8-3-8-6-11z"/><path fill="#c3d0d7" d="M184.5 59c10 .2 20.1-.8 30.1.6h.7l-.5.4-1 .6c.6 3.1 1.9 6.7-1 9.1l-1.8-2.3-.2 4.1-.4-.2c-1.5-1-3-2-4.6-2.7l-.3-3.4-3.3.8-2 .5.3-2.9-4.8 2.7-1-1.3c-1.6-1-3-2.4-4.2-3.8l-3.2 2.6-2.8-4.9m18.8 1.4c-1.5.5-1.3 3.2.5 2.5 1.6-.3 1.1-3.1-.5-2.5m8 2c-1.4 0-1.9 2.7-.2 2.8 1.4 0 2-2.8.3-2.9z"/><path fill="#ccd6dc" d="M214.6 59.6c3.7-1.1 7.6-.6 11.5-.7 5.1.2 10.3-.3 15.5.3a59 59 0 0 0-2.1 2l1.3 1.8-5.2 4.5a11 11 0 0 0-4.3-6.4c-1.3 2.8-2.7 6.5-6.5 5.6 1.2-1.1 2.6-2.1 4-3l-.9-1.5-4.7 3.3-1.4-1.7c-2.7-.4-5-2.1-7-3.8l.5-.3z"/><path fill="#b9c8d0" d="M241.6 59.2l.7-.5 1.5 6 2-1.4.6 2.2 5.6-.8 3 2.2c2-2 4-4 6.5-5.2l1.8 4.7 3.4-1.6c-1 1.8-2.2 3.5-3.5 5.1 2.5.9 5 1.6 7.5 2.2l-1.3-2.4c2.6 0 5.1.6 7.6 1.4 2.2-1.4 4.5-.5 5.4 2l.3-5c1.6 1 3.2 2 5 2.7 1.3.6 2.7 1 4.1 1.5l-.2 4c-2-.3-4.2-1.7-6.3-1-1.2 1.9.2 5-2.3 6.3-4.5 2.3-10.3 2-15 .1-2.8-1-1.6-4.6-2.9-6.7-3.4-1.8-7.4-1.2-11.1-1.6l1-2.8 2.4.8a8 8 0 0 0-2.7-1.2l-1.2 3.1c-9-.3-18-1.1-27.1-1.3l.4-2-.7 1.7c-5 .3-10.2-.5-15.3-.2l.2-4 1.9 2.2c2.8-2.4 1.5-6 1-9l.9-.7c2 1.7 4.3 3.4 7 3.8l1.4 1.7c1.6-1 3.2-2.2 4.7-3.3l1 1.4c-1.5 1-2.9 2-4.1 3.1 3.8 1 5.2-2.8 6.5-5.6a11 11 0 0 1 4.3 6.4l5.2-4.5-1.3-1.8a59 59 0 0 1 2.1-2m27.1 15.5c-1.2 1-2.4 2.6-2 4.3 2 3.4 6.7 3.5 10.2 3.7 3.2.3 6.9-2 6-5.7.2-2.2-2.3-2.7-4-2.8-1 1.7-1.7 3.5-2.7 5.2a191 191 0 0 1-.3-5.3c-2.3 0-5-1-7.2.6z"/><path fill="#cdd6dc" d="M242.3 58.7c17.8.4 35.6.1 53.3.2.3 2.1.5 4.3 1.7 6.1-.8 1-1.3 2.3-2.3 3-1.4-.4-2.7-1.1-4-1.8l-3.4 4.6c-1.7-.7-3.3-1.7-4.9-2.7a47 47 0 0 1-.3 5c-.9-2.5-3.2-3.4-5.4-2a26 26 0 0 0-7.6-1.4l1.3 2.4c-2.5-.6-5-1.3-7.5-2.2 1.3-1.6 2.5-3.3 3.5-5.1l-3.4 1.6-1.8-4.7a24.8 24.8 0 0 0-6.5 5.2l-3-2.2-5.6.8-.7-2.2-1.9 1.5-1.5-6z"/><path fill="#a2b1bb" d="M203.3 60.3c1.6-.6 2 2.2.5 2.5-1.8.7-2-2-.5-2.5z"/><path fill="#7a93a5" d="M53.8 65v-3.3c2.3 2 5 3.6 8 3.8l1.8 2.4-11.2 1c0-1-.3-2.7-.4-3.5l1.8-.5z"/><path fill="#97a8b1" d="M211.4 62.2c1.6.1 1.1 2.8-.3 2.9-1.7 0-1.2-2.8.3-2.9z"/><path fill="#84959f" d="M317.3 64.2c3.3.2-1.6 3 0 0z"/><path fill="#9fafbe" d="M365 67.9c2.6-1.6 5.3-2.9 8-4.2l.1 7.8h-1.4l-.2-2.8v2.8l-6.8-.1 1.2-3.7z"/><g fill="#708a9b"><path d="M202.2 66l3.3-.8.3 3.4c-1.4-.6-2.9-1.1-3.6-2.6zM297.3 65l1.6-.3a151 151 0 0 1-2.5 4l-1 1 1.3 2.1-2.7-.3 1 1.2.2.4-1.5 1.8-.4 2.2-1.7-.5v-.4l.2-3.9-4.2-1.5 3.4-4.6c1.3.7 2.6 1.4 4 1.9 1-.8 1.5-2 2.3-3z"/></g><path fill="#3d4b55" d="M319.1 64.9c.6 4.1 0 8.4 1 12.5.5 2 .8 4 1 6.1l-2.2-3.8v-5.5l-2.3-2.8h2.4v-3.7l.1-2.8z"/><path fill="#bcc7cf" d="M338.3 68.4l4.2-3.8v3.7c7.5-.3 15 .6 22.5-.4l1-.2-1.3 3.7h-33.3c1-1.8 2.6-3.2 4.3-4.4l2.6 1.4z"/><path fill="#546a78" d="M119.4 67c-.2-2.6 2.8-.5.6.5z"/><path fill="#94a1a9" d="M439.4 67.2c.5.5.5.5 0 0z"/><path fill="#a6b9c4" d="M314.5 68.8l4.6-1.1v3.6l-2.5.1 2.2 2.8v7.9c-1.8.4-3.7.6-5.5.9l1.8-2c-3.5-.5-6.9-1.3-10.2-2.5l-1.5 2.6a75 75 0 0 0-6.7-2.9c0-1.2-.2-2.4-.4-3.6l-1-1.5-.4-.4 4.2-1.5c3.3 2.2 7.4 1.3 11 .9l3.2-.4c.2 2 3.7 1.9 2-.2l-.8-2.7m-16 6.3c.2 1.4 1 1.6 2.2.7-.3-1.4-1-1.6-2.2-.7z"/><path fill="#5f7683" d="M313.3 71.7l2-.2c1.7 2-1.8 2.1-2 .2z"/><path fill="#4e616d" d="M293.7 75l1.5-1.9 1.1 1.5.4 3.6c-1-.2-2-.7-2.6-1.4l-.4-1.9z"/><path fill="#a5b9c3" d="M293.3 77l.4-2 .4 1.8z"/><path fill="#8295a4" d="M298.5 75.1c1.2-.9 2-.7 2.2.7-1.3.9-2 .7-2.2-.7z"/></g><path fill="#8da5b3" stroke="#8da5b3" stroke-width=".1" d="M373.2 1.3c2.6.2 5.2-.6 7.7-1.2 1.8-.3 2.7 1.5 3.7 2.6l3.8 1-1.8 2.3.9.9.2 1.7c1.2-1.5.4-3.4 1-5 2.7-1.4 5.6-.4 8.3-.1 5.7.1 11.7 1 16.7-2l2 2-1.2 3c2.6.1 4.8 1.3 6.6 3.2-2 0-3.8-.2-5.7-.3l-.6 2.5-.6.3c-2.8-.2-5.3-1.7-8-1.8-4-.2-8-.1-12-.2l.3 5h-4v-4c-5.5-.2-11-.4-16.5-.4a14 14 0 0 1-4-6.7l3.8.6-.6-3.4z"/><path fill="#889fad" stroke="#889fad" stroke-width=".1" d="M413.7 1.4c5.1-1 10.3-.4 15.5-.3.6 4 .3 8.1-.1 12.2-4.7-.3-9.7.4-14.1-.6l-.2-.8.6-2.5 5.7.3c-1.8-1.9-4-3.1-6.6-3.3l1.1-2.8-1.9-2.2z"/><path fill="#8fa5b3" stroke="#8fa5b3" stroke-width=".1" d="M339.4 2.3l3.8-.9-.6 3.8 1.5-.1-.6 4.4 2.5-.7-2-.2c.3-2.4.2-4.8 0-7.2 4.9.9 10.3 3.8 15 1.1 3.5 1.4 7.3 1.1 11 1.6a14 14 0 0 0 4 6.7h-12.2l1.5 3.6-1.6 3.3-4.4-1.5.6-5.4c-2.2-.2-4.6-.7-6.7.2-3.5 1.6-7.5 1.2-11.3.8l-1-1.2a4.2 4.2 0 0 0 2.2-2.4L339 10a35 35 0 0 1 .5-7.7z"/><g fill="#a1b4c1" stroke="#a1b4c1" stroke-width=".1"><path d="M274.9 8.6c10.9-3 22.3-2.6 33.5-2.6l-.6 2.8c-11-1.5-22-1.3-32.9-.2zM390.5 15.2h4l1.4-.3c1.8.8 3.6 1.7 5.3 2.7l-2.3 3.2 1.5 2 4.1-4.2 4.5-.7c2-.4 3.7-1.7 5.8-1.3 0-.6-.4-1.7-.5-2.3 3.2.4 6.3 1 9.5 1l1.4 4 1.8.3-1.7 2.6.8 1.6 2.5-1.6.7 3.4h-20.4l.3-2.4 2.7-2.2c-2.2 1.5-4.1 3.2-6.4 4.5-7.4.3-14.9.1-22.3 0l1.1-3.1c.6-1.3 1-2.6 1.3-4l1.5-.2 1.2-2.6 2.2-.4m24.3 3.9c1.3 0 2.3-.4 3.1-1.3-.2-1.9-4.9 0-3 1.3m-1.7 1.1c.6.5.6.5 0 0z"/></g><path fill="#879bab" stroke="#879bab" stroke-width=".1" d="M308.5 6.1a45 45 0 0 1 21.8 6.4c-2.6.2-5.2.7-7.8 1A55 55 0 0 0 309 8.8l-.4-2.8z"/><path fill="#d6dde2" stroke="#d6dde2" stroke-width=".1" d="M10.2 14.8c11.3-3.6 23.2-.8 34.7-.2-2.5 2.3-5.1 4.5-7.8 6.7-3.9-2-7.3-5.7-12-5.6-4.3 0-9.5.3-12.4 4-1.5 1.7.1 4.2 2.1 4.6-2 1-4.1-.6-6 .8l-.6 1.6-3.5 2.8C2.9 27.7.5 25.7 1 22.8c.5-4.6 5.3-6.8 9.2-8M6.5 18C6 19.4 6.6 20 8 19.5 8.4 18 8 17.6 6.5 18z"/><path fill="#d7dde3" stroke="#d7dde3" stroke-width=".1" d="M50.8 13.4H67c1.2 0 2.7-.2 3.7.8 10.6 8.2 21 16.7 31.7 24.8l.1-17c1.6 1.4 3.2 3 5.4 3.7-1.7-2-3.7-3.7-5.5-5.5v-3.4l-6.6-3.4h20.3c-2 1.3-4 2.4-6.1 3.4v3.5a111.6 111.6 0 0 0 0 .2c-.2 7.3 0 14.5-.2 21.8-1.8-1.3-2.4-3.6-3.6-5.4l2.4 5.4 1.5.4-2.1 2.2-5.2 1.4-3.5-1.1-.8-2-2-.1-.5 2.5-31.8-24.5-1-.9-3 .3-1.7-2.3-1.4.5c-.2-3.4-4.4-3.4-6.4-5.3z"/><g fill="#d7dee3" stroke="#d7dee3" stroke-width=".1"><path d="M122 13.4H147c-2.1 1.2-4.3 2.3-6.5 3.3-.5 3.3 1.2 7.6-1.4 10.1l1.4-.5V42l-4.8-1.3-2-3.1-.7 3.5h-4.6V16.8c-2.2-1-4.4-2-6.5-3.3m10.4 10.8c.5.5.5.5 0 0zM371.3 39.3c-.2-1.3-.5-3.6 1.4-3.5 1.3 1 .5 5.5-1.4 3.5z"/></g><path fill="#d2dade" stroke="#d2dade" stroke-width=".1" d="M153.8 13.4c14.1.4 28.4-1 42.4 1.2 5 1 10.5 2.1 14.2 5.9-2.3 0-4.5-.5-6.7-1-2.1-.5-4 1.1-5.8 1.9-5.8-5-14-5-21.2-5l-.1-1.4-.1 1.7-4.3-.2-.2 5.6-2.6-2.7-4 1.9-1.5-1.1-2.7.2-1-1.7-.4-2c-2-1-4-2-6-3.3z"/><path fill="#b9c8d2" stroke="#b9c8d2" stroke-width=".1" d="M214 13.4h49c0 2.6-.4 5.2 0 7.8-1.8-1-3.6-2-5.5-2.8v-.2l-1-4c-13.6.2-27.2-.4-40.7.1-.7-.3-1.3-.5-1.9-.9z"/><g fill="#a2b6c2" stroke="#a2b6c2" stroke-width=".1"><path d="M322.5 13.4c2.6-.2 5.2-.7 7.8-1 1.8 1.3 3.3 2.9 4.8 4.4l10.7.7-.4-1.4c4.1.5 9.1-.1 12.3 3l.5 2.2-1.4-1 1.8 2-.7-3.7 2.4 2c-1.2-1.3-2-3-3-4.4l4.4 1.5 1.6-3.3.8 2c2 1.6 4.6 2.2 7.1 1.9v2.3l-1.9-1.4.2 4c-2 1-4.1 2.1-5.8.2l-.2 1.2c-5.6-.2-11.2 0-16.7 1-3.3.3-6.6.2-9.9.2 3.7-.4 7.5-1 10.5-3.2l-3.7-.2-1.5 1.7-.6-2-.7 2-4-1c1-2-2.2-3.2-3.2-1.2-1.9-.5-3.8-.8-5.8-1.2 0-.5-.3-1.6-.5-2.2a52.4 52.4 0 0 0-4.9-5m7.4.6c-1.5 2.8 3.5.2 0 0m20.4 3.8c0 3.3 3-1.5 0 0m-12 4.4c.6.5.6.5 0 0zM470.9 21.4c2.7-.5 5.3-1.4 7.8-2.4-1.3 2.3-3 4.3-4.6 6.5l-1.5-2.4-1 1.7c-1.8 0-.7-2.4-.7-3.4z"/></g><path fill="#c5cfd7" stroke="#c5cfd7" stroke-width=".1" d="M215.8 14.3c13.5-.5 27.1 0 40.7 0l1 4c-1.8-.8-3.5-1.9-5.5-1.8h-19.4v3.6l-2.9-.6-2.6 2-.8-5.1-3.4 1-2.3-.8c-1.7-.6-3.3-1.4-4.8-2.3z"/><path fill="#768a98" stroke="#768a98" stroke-width=".1" d="M275.4 15.9c1-1.4 2-2.8 3.9-2.6v6h-1c-1.9-.2-3-1.5-3-3.4z"/><path fill="#bfcdd5" stroke="#bfcdd5" stroke-width=".1" d="M279.3 13.3l5.3.2c.4 1.6.8 3.3 1.6 4.8l1.4 4.2a232 232 0 0 1-4-1.7h-.4c-2.4.5-4.8.6-6.7-1.2l1.9-.3h.8v-6z"/><path fill="#abbec6" stroke="#abbec6" stroke-width=".1" d="M284.6 13.5c5.6.2 11.3-.6 17 .3l.9 1.8 1.2-1.5 2 2.5v-2.4c4.4-.8 1.7 3.3 1.8 5.3l2.4-.3-.3 4-1-1c-3.5-5-9.9-6-15.5-5.7-2.3.4-5.7-.9-6.9 1.8-.8-1.5-1.2-3.2-1.6-4.8z"/><g fill="#000001" stroke="#000001" stroke-width=".1"><path d="M330 14.1c3.4.2-1.6 2.8 0 0zM414.8 19c-1.8-1.3 3-3 3.1-1.2-.8 1-1.8 1.3-3 1.3zM295.4 69.6l1-.9.3 1.5c4.4 1 9 2.1 13.5 1.9-3.7.4-7.8 1.3-11.1-1l-4.2 1.6-.9-1.2 2.7.3-1.3-2.2z"/></g><path fill="#a9bcc6" stroke="#a9bcc6" stroke-width=".1" d="M308.7 14.7c4.8 1.4 10.6 2.7 13.4 7.3 1.2 1.6.1 3.4-.5 5-2.9-1-5.4-2.8-8.3-3.7 0-2.2.3-4.6-.7-6.7-.2 2.3-.2 4.5-.2 6.8l-2 .4.2-4.4-2.2-1.1.3-3.6z"/><path fill="#95aab9" stroke="#95aab9" stroke-width=".1" d="M423.5 14.5c5 .8 10 .6 14.8.4 0 .5.3 1.4.4 1.9 4.4-.4 8.9-.2 13.3 0-.5 1-1 2.2-1.3 3.5.3 2 2.6 2.8 4 4.1l.3.7-2.6.9v-1.7h-.7l.2 1.5c-7.6-.3-15 0-22.6-.2l-.7-3.4-2.5 1.6-.8-1.6c.5-.9 1-1.8 1.7-2.6l-1.8-.2-1.4-4z"/><path fill="#e1e6ea" stroke="#e1e6ea" stroke-width=".1" d="M220.6 16.6l2.3.8 3.4-1 .8 5.2 2.6-2 2.9.5v9.7c5 .3 10.3 0 15.5.5l2.6-1.2c1 1.6 2.1 3 3.3 4.3l.6 3.1c-3-1.3-5.9-4-9.5-3.6l-12.6.1v16.3H251c4.5.3 8-3 12-4.6v7.7h-49c2.2-1 4.3-2.2 6.5-3.3V16.6m20.7 14.6c.6.6.6.6 0 0m11.1 2c.6.5.6.5 0 0z"/><path fill="#9bafbc" stroke="#9bafbc" stroke-width=".1" d="M559.2 20.4c2.3-1.3 4.6-2.6 5.9-5 1.7 1 2 3 2.7 4.8h3.8c0 2 .2 3.8-.2 5.7-14.6 0-29.3 0-43.9-.3h-1.7l-.1-4.2c-2-.5-4-.9-5.9-1.5 13.1-.6 26.3.4 39.4.5z"/><g fill="#869cab" stroke="#869cab" stroke-width=".1"><path d="M401.2 17.6l7.8.3-4.5.7-4.1 4.2-1.5-2 2.3-3.2zM21 59c5.6-.2 11.2 0 16.8 0v2.8c.1-1 .4-1.9.6-2.8H48c.5.3 1.4 1 2 1.2-2.3 3-5.4 5.3-9.2 5.5-1.8.2-3.7 0-5.5 0l.4-5.8-.3 2.6c-4.8.2-9.7.1-14.6.4l.3-4z"/></g><path fill="#9db0be" stroke="#9db0be" stroke-width=".1" d="M452 16.7l12.9.5c3.8.3 7.7.5 11.5 1-2.4 1-5 1.5-7.5 1.3a46 46 0 0 0 0 5.6c-3-1.3-6.3-1.2-9.2.4-1.3.2-2.6.2-3.8-.1l-1.2-1c-1.4-1.3-3.7-2-4-4.1.3-1.3.8-2.4 1.3-3.6m12.4 5.4c.3 1.3 1 1.5 2.2.6-.3-1.3-1-1.5-2.2-.6z"/><g fill="#586471" stroke="#586471" stroke-width=".1"><path d="M464.9 17.2c5.5-.1 11.1-.5 16.5.8l-2.1 2 .5 5.4c15.3.3 30.6 0 46 .1h1.7c-6 .9-12.3.3-18.4.5-16.5-.2-33 .4-49.4-.5 2.9-1.6 6.2-1.7 9.2-.4a46 46 0 0 1 0-5.6c2.6.2 5.1-.3 7.5-1.3-3.8-.5-7.7-.7-11.5-1m6 4.2c0 1-1 3.4.7 3.4l1-1.7 1.5 2.4c1.5-2.2 3.3-4.2 4.6-6.5-2.5 1-5.1 1.9-7.8 2.4m5.6 3.6c1.5 1.4 3.4-1.2 2.4-2.6-1.2-.4-2.9 1.4-2.4 2.6zM331.4 37.6c2.4.7 5.3.2 7.2 2.1h-3l.3 2c-.8-1.1-1.9-1.9-3.3-1.5l-1.2-2.6zM282.6 46.1l1.1 1.1-1 2.3c-2 .2-4.2.2-5.7-1.4 2 .4 3.8.5 5.7.3l-.1-2.3zM286.4 49.6h1.2c1.7-.6 3 .9 4.5 1.5-2.6 0-5.2.4-7.7.6l.6-2zM387.3 53.6l3.4 2.5-1.1 2c1.4.3 3.3 0 4 1.7l-3.7-.5.2 3.2 1.6-.2c-.2 2.2-.2 4.4 0 6.6-.5-2.3-1-4.7-2.7-6.4l.6-4.9h-1.3c-.2-1.4-.5-2.7-1-4z"/></g><path fill="#afb9bf" stroke="#afb9bf" stroke-width=".1" d="M6.5 18c1.4-.4 1.9 0 1.5 1.5-1.4.4-1.9 0-1.5-1.5z"/><path fill="#ced7dd" stroke="#ced7dd" stroke-width=".1" d="M57.2 18.7l1.4-.5 1.7 2.3 3-.3 1 .9c.6 6.8 0 13.6.3 20.4-2.6-.3-5.1.4-7.6 1.2.3-5.5-.3-11.2.3-16.7a18 18 0 0 0 4.7-3c-1.5.7-2.8 2.8-4.7 2-.6-2-.2-4.3 0-6.3z"/><path fill="#688191" stroke="#688191" stroke-width=".1" d="M350.3 17.9c3-1.5 0 3.3 0 0z"/><path fill="#afc0cf" stroke="#afc0cf" stroke-width=".1" d="M371.2 18.3l1.7-.1a302 302 0 0 0-.2 6.3l5.2.7v.4h-31.1c5.5-1 11.1-1.2 16.7-1l.2-1.2c1.7 2 3.8.9 5.8-.1l-.2-4.1 1.9 1.4v-2.3z"/><path fill="#849dae" stroke="#849dae" stroke-width=".1" d="M372.9 18.2c4.2-.3 8.5.2 12.7.2-.4 1.4-.7 2.7-1.3 4h-2.5l-2.7-.4-.3 3.4-.9-.2-5.2-.7v-.3l.2-6z"/><path fill="#a4b6c4" stroke="#a4b6c4" stroke-width=".1" d="M481.4 18l.9-.8.3 6.7.1-6.3c4.5.6 9 .2 13.4 1.8 5.3.5 10.6.3 16 .4 2.5.2 5.2-1 7.7 0 2 .7 4 1.1 5.9 1.6v4.1c-15.3 0-30.6.2-46 0 0-1.9-.2-3.7-.4-5.5l2.1-2z"/><path fill="#e4e9ec" stroke="#e4e9ec" stroke-width=".1" d="M160.2 18.7l1 1.7 2.7-.2 1.5 1 4-1.8L172 22v8l-1.8-2 2.3 4.8c8.1 0 17.4 1 24.3-4.2 2.4-1.7 2.6-5 1.1-7.3 1.8-.8 3.7-2.4 5.8-1.8 2.2.4 4.4.9 6.7.9h.6c2.8 3.3 1.3 8.3-2.5 10-11 6.2-24.2 5.4-36.4 5.4v13.2c1.8 1 4 1.6 5.4 3.2-7.6.2-15.2.1-22.8 0 1.5-1.6 3.5-2.3 5.4-3.2 0-10.2-.2-20.3.1-30.4m6 5.1c0 1.5 2.7 3 3.1 1 .6-1.9-2.6-3-3.1-1z"/><path fill="#d9dee4" stroke="#d9dee4" stroke-width=".1" d="M275.6 19l1 .6c1.8 1.8 4.2 1.7 6.6 1.2h.5l3.9 1.7v5.2c-4.2.1-8.2 1.1-12 2.6V19z"/><path fill="#7b8b93" stroke="#7b8b93" stroke-width=".1" d="M283.2 20.8h.5z"/><path fill="#556a7b" stroke="#556a7b" stroke-width=".1" d="M413.2 20.2c.6.5.6.5 0 0z"/><g fill="#bdccd3" stroke="#bdccd3" stroke-width=".1"><path d="M328 20.7l5.7 1.2c1 .6 2 1 3.2 1.3l4 .9.7-2 .6 2c.3-.4 1-1.3 1.5-1.7l3.7.2c-3 2.3-6.8 2.8-10.5 3.2-2.7.2-5.5.1-8.3.2 0-1.8-.2-3.6-.7-5.3zM295.6 59h23.5v8.7l-4.6 1.1.8 2.7-2 .2-3.1.4c-4.6.2-9-.8-13.5-1.9l-.3-1.5a151 151 0 0 0 2.5-4l-1.6.3c-1.2-1.8-1.4-4-1.7-6m21.7 5.2c-1.6 3 3.3.2 0 0z"/></g><path fill="#8094a1" stroke="#8094a1" stroke-width=".1" d="M333.7 21.9c1-2 4.2-.9 3.2 1.3a7.6 7.6 0 0 1-3.2-1.3z"/><path fill="#667884" stroke="#667884" stroke-width=".1" d="M338.4 22.3c.5.5.5.5 0 0z"/><path fill="#9db3bf" stroke="#9db3bf" stroke-width=".1" d="M379.1 22l2.7.3 1.1 3.4-4-.3.2-3.4z"/><path fill="#6a808e" stroke="#6a808e" stroke-width=".1" d="M464.4 22.1c1.2-.9 2-.7 2.2.6-1.2 1-2 .7-2.2-.6z"/><path fill="#9aafbc" stroke="#9aafbc" stroke-width=".1" d="M476.5 25c-.5-1.2 1.2-3 2.4-2.6 1 1.4-.9 4-2.4 2.6z"/><path fill="#b0bcc1" stroke="#b0bcc1" stroke-width=".1" d="M166.2 23.8c.5-2 3.7-.9 3.1 1-.4 2-3.2.5-3.1-1z"/><path fill="#a6afb4" stroke="#a6afb4" stroke-width=".1" d="M132.4 24.2c.5.5.5.5 0 0z"/><path fill="#dae0e5" stroke="#dae0e5" stroke-width=".1" d="M309 23.2l.9 1.8c.5 2.1 3.4 7.8-1.1 6.6L311 33l-3 .3c1.7 2.1 4.6 3.5 5.3 6.4 2.2-.4 3.5 2 4.8 3.3-1 1-2.3 1.8-3.7 2.3-.2-1.9 1.2-4.6-1.2-5.5l.7 3.7-3 .7c5-1 4 5.4 4.4 8.5-6.2-6-12.7-11.8-18.7-18l.2-3.4 1.5 2.2 3.2-1-3.8-1.3c2.9-.3 5.6-1.1 8.2-2.3l1.8 2.9-1.6-3c1.5-1.5 3-3.2 2.7-5.5z"/><path fill="#adbcc7" stroke="#adbcc7" stroke-width=".1" d="M310.4 24l3.4.1-.7 1.9 2-2 2.7 2.2c1.3.2 2.5.7 3.5 1.5-2.9 2-5.8 4.3-9.5 4.5 0-2.8.1-5.8-1.4-8.3m4.9 5.2c.5.5.5.5 0 0z"/><path fill="#c3d2de" stroke="#c3d2de" stroke-width=".1" d="M372.7 24.5v-.3.3z"/><path fill="#c6d2d8" stroke="#c6d2d8" stroke-width=".1" d="M15 25c8.5 3.6 17.5 5.5 26 8.7 2.8 1 4.9 3.3 5.8 6l-3.1 1.7c-.9-1.5-2-2.9-3.4-3.8l-2 5.3.3-5.4-3.4 3.6c-3.6-2.7-8.1-3.5-12.3-5-6.1-2-12.6-3.3-18.2-6.6l3.5-2.8.3 2.3.6-3.7c1.6.3 3.2.6 4.8 1.2L15 25z"/><g fill="#96acb9" stroke="#96acb9" stroke-width=".1"><path d="M250.3 28.5l4.3-2c.2 3.3 0 6.7 0 10l-.6-3a33.6 33.6 0 0 1-3.3-4.4zM320.1 77.4l33.9-.2c3.7-.2 7.5-.3 11.2.2-6.1.6-12.1 2.3-18.3 2.2-.8.6-1.7 1-2.7 1l-31.7 5c-3.7.5-6.3-2.8-9-4.5l1.4-2.6c3.3 1.2 6.7 2 10.2 2.5l-1.8 2c1.8-.3 3.7-.5 5.6-1v-2.3l2.2 3.8c-.2-2-.5-4-1-6z"/></g><path fill="#e6eaed" stroke="#e6eaed" stroke-width=".1" d="M275.5 30.3c4-1.5 8-2.5 12-2.6v3.7c3.2 0 6.3 0 9.4-.2a61 61 0 0 0-.2 3.4c-3-.2-6-.2-9.1-.1-.3 5 .2 10.1 0 15l-1.2.1-1.4.2-.6 2c2.5-.3 5.1-.7 7.7-.7l2 1.4c-8.4-.3-16.8 0-25.2 0 2.2-1.3 4.4-2.3 6.6-3.4V30.3m7 15.8l.2 2.3c-1.9.2-3.8.1-5.7-.3 1.5 1.6 3.6 1.6 5.7 1.4l1-2.3-1.1-1z"/><path fill="#394b57" stroke="#394b57" stroke-width=".1" d="M315.3 29c.5.6.5.6 0 0z"/><path fill="#48515a" stroke="#48515a" stroke-width=".1" d="M241.2 31.2c.6.6.6.6 0 0z"/><path fill="#d2dbe0" stroke="#d2dbe0" stroke-width=".1" d="M324 32.4c10.3.3 20.7 0 31 .2l.7 1 1.1-1c4.6-.3 9.2-.2 13.8 0-1.2 2-3 3.6-5.4 3.4-8-1.2-16.2-.2-24.3-.6l1.6 1.2V43l-2.4-.5 2.6 1-.2 5.3c4.5.2 9 .1 13.5.1 3.2.2 5.7-2.2 8.6-3.1v9.5c-3.2-1.2-6-3.7-9.5-3.4l-12.6.1v12.6l-4.2 3.8-2.6-1.4a14.3 14.3 0 0 0-4.3 4.3h-6.7a39 39 0 0 1 5.8-3.2V36.5c-1.3-2.2-4.5-2.7-6.6-4.1m13.2 1.3c-.3 2 .2 3.9 1.8 5.3 1-1.6 1.4-3.5 1.6-5.4h-3.4m-2.6 1.4c.5.6.5.6 0 0m-3.1 2.6l1.2 2.6c1.4-.4 2.5.4 3.3 1.5l-.3-2h3c-1.9-1.9-4.8-1.4-7.2-2.1m7 7.4c.2 3.3 3-1.6 0 0m1.8 3.2c.5.5.5.5 0 0m-7.7 4c-1.4 1.3.8 3.9 2 2.2 1.4-1.3-.6-3.7-2-2.2z"/><path fill="#a5b3bd" stroke="#a5b3bd" stroke-width=".1" d="M370.6 32.7l2.4-.5-.3 3.6c-2 0-1.6 2.2-1.4 3.5-2-1-4.1-2-6-3.3 2.4.2 4-1.4 5.3-3.3z"/><path fill="#585f66" stroke="#585f66" stroke-width=".1" d="M430.4 32c8.4.4 16.8-.1 25.3 0-.6.6-1.1 1-1.8 1.3-1.8-.1-3.7-.2-5.4.4l-4.4-1c-1.3-.5-2.3-.1-3 1h-.2a9.2 9.2 0 0 0-8.9-.1l-1.6-1.7z"/><path fill="#bdccd2" stroke="#bdccd2" stroke-width=".1" d="M462.5 32.6l3-.2-.1 2.6.6-2.6h3.4v4.3l-7 3.3c.1-2.5.2-5 .1-7.4z"/><path fill="#aebec9" stroke="#aebec9" stroke-width=".1" d="M524 32.4h48.6V40c-4.2-1.3-7.8-5-12.5-4.5h-17.8c0 .6-.3 1.6-.4 2l-1.1 3.1-2-2.4-3.5.2c-.5-.8-.8-1.7-1.2-2.5l-4-.3a19 19 0 0 1-6.2-3.2z"/><path fill="#888e96" stroke="#888e96" stroke-width=".1" d="M252.3 33.2c.6.5.6.5 0 0z"/><path fill="#dae1e6" stroke="#dae1e6" stroke-width=".1" d="M379 32.5h9.6c2.7 2.3 5.7 4.1 8.7 5.9l.7 2.2-1.8-.4 1.7 1.6-3 .7 2.7-.3v10.4l-6.1 1 .4-2.7-3.9-.3-1.8-2.4c0 6.6.4 13.3-.5 19.8 0-10.8-.3-21.6 0-32.5-2.3-.8-4.5-1.8-6.6-3m15.3 11.8c-1.3.3-2.8 2-2.1 3.4 1.7.9 4-2.6 2-3.4z"/><path fill="#bbcad1" stroke="#bbcad1" stroke-width=".1" d="M388.6 32.5c4-.1 8-.2 11.9 0a6 6 0 0 1-2.8 3.4l-.4 2.5c-3-1.8-6-3.6-8.7-5.9z"/><path fill="#9fadb8" stroke="#9fadb8" stroke-width=".1" d="M432 33.6a9.2 9.2 0 0 1 8.9.2l-2.9.4-2 1-4-1.6z"/><path fill="#9eb1bd" stroke="#9eb1bd" stroke-width=".1" d="M441 33.8c.8-1.2 1.8-1.6 3.1-1.1-.7 1.2-1.7 1.6-3 1z"/><path fill="#708594" stroke="#708594" stroke-width=".1" d="M444.1 32.7l4.4 1c-1.8.7-3.7 1.1-5.5 1.5l1.2 2-1.3-.2-1-.3c.6-3-4.1-.9-1.7.7l-2 .3c-.8-.7-1.5-1.6-2.2-2.5l2-1 2.9-.4h.1c1.4.5 2.4.1 3.1-1.1z"/><path fill="#94a5b0" stroke="#94a5b0" stroke-width=".1" d="M448.5 33.7c1.7-.6 3.6-.5 5.4-.4-1.7 1-3.5 1.7-5 3l-2 1.7-4-1 1.3.3-1.2-2.1c1.8-.4 3.7-.8 5.5-1.5z"/><path fill="#c3ced7" stroke="#c3ced7" stroke-width=".1" d="M469.8 32.4h9.6l.2 3.2c-3.3 0-6.6-.4-9.8.5v-3.7z"/><path fill="#c8d3da" stroke="#c8d3da" stroke-width=".1" d="M479.5 32.5h10c.8 1.2 1.1 2.8 2.2 3.8 1.5 1.4 3.3 0 4.8-.3v13l-1.9-2c.4-1.3.3-2.9-.7-4l-1.9 1-.6-1.8.5-1.1a5.4 5.4 0 0 0-4.8.5l-2.6-.7v-5.3c-1.5.2-2.6-.3-3-1.6v2l-1.6-.8c0-.7-.3-2-.4-2.7z"/><path fill="#bccad2" stroke="#bccad2" stroke-width=".1" d="M489.6 32.5h29V40c-3.2-1.3-6.2-3.5-9.6-4.4-4.1 0-8.4-.5-12.5.4-1.5.2-3.3 1.7-4.8.3-1-1-1.4-2.6-2.1-3.8z"/><path fill="#6b7f8b" stroke="#6b7f8b" stroke-width=".1" d="M337.1 33.7l3.4-.1c-.2 1.9-.5 3.8-1.6 5.4a5.5 5.5 0 0 1-1.8-5.3z"/><path fill="#556069" stroke="#556069" stroke-width=".1" d="M334.5 35c.5.6.5.6 0 0z"/><path fill="#495d6b" stroke="#495d6b" stroke-width=".1" d="M440.2 37.4c-2.4-1.6 2.3-3.6 1.7-.7l-1.7.7z"/><path fill="#c4cfd6" stroke="#c4cfd6" stroke-width=".1" d="M530 35.6l4.1.3c.4.8.7 1.7 1.2 2.5 1.2 0 2.4 0 3.5-.2l2 2.4 1.1-3c.2 2.8.2 5.7.1 8.6-2.8-.3-5.7-.3-8.6-.8-1.3-1.2-2.2-2.7-3.3-4v-5.8z"/><g fill="#c9d4d9" stroke="#c9d4d9" stroke-width=".1"><path d="M440.2 37.4l1.7-.7 1 .3 4 1 2-1.7c.2 2.7.2 5.4.2 8.2-2.4.4-4.9.3-7.3.5h-.5l-1.4-.2 1-.3c-1.3 0-2.6-.2-3.8-.3V38l1.1-.2 2-.3zM557.2 48.9c2.4-.8 4.6-2.3 6.9-3.4v10c-2.3-1.2-4.5-2.6-7-3.4-2.5-.3-5.2-.2-7.8-.2l-1.2-3h9.1z"/></g><path fill="#b0bfca" stroke="#b0bfca" stroke-width=".1" d="M35.2 41.1l3.4-3.6-.3 5.4 2-5.3c1.5 1 2.5 2.3 3.4 3.8l3.1-1.6c-.4 1.5 0 3.8-1.6 4.8a38 38 0 0 0-10 5.3v-4c.2-1.6.4-3.2 0-4.8z"/><path fill="#c4d0d8" stroke="#c4d0d8" stroke-width=".1" d="M133.8 37.6l2 3.1 4.8 1.3V49c2.2 1 4.4 2.1 6.5 3.3h-25.2a129 129 0 0 1 6.6-3.2v-8l4.6-.1.7-3.5z"/><path fill="#b6c4cb" stroke="#b6c4cb" stroke-width=".1" d="M57 42.7c2.5-.8 5-1.5 7.6-1.2 0 2.5.2 5-.3 7.5 0 .5-.3 1.4-.4 1.9l-1.3-1v-2l-2.5.7.4-3.7-3.4 3.7v-5.9z"/><path fill="#dce1e6" stroke="#dce1e6" stroke-width=".1" d="M484.5 41l2.6.6c1.4.5 2.8.7 4.3.6l.6 1.7c.4 1.3 1.7 2.2 2.6 3.1l2 2v19.1a99 99 0 0 1 6.6 3.3h-25.3l6.6-3.3V41m5.8 12.5c-.9 1.2-.6 2 .7 2.2.8-1.2.6-2-.7-2.2m2.1 1.6c-.6 1.3-.2 1.8 1.2 1.4.7-1.4.3-1.9-1.2-1.4z"/><path fill="#75838b" stroke="#75838b" stroke-width=".1" d="M487 41.6c1.5-1 3.3-1 4.9-.5l-.5 1c-1.5.2-3 0-4.3-.5z"/><path fill="#d4dbe1" stroke="#d4dbe1" stroke-width=".1" d="M530.1 41.3c1 1.4 2 3 3.3 4.1 2.9.5 5.8.5 8.6.8v2.7h6.1l1.2 3H542v16.4h21.2c3.2-1.3 6.2-3.2 9.4-4.5v7.7c-16.3-.2-32.5 0-48.8 0 2-1.4 4.1-2.4 6.3-3.5V41.3z"/><path fill="#c0cdd4" stroke="#c0cdd4" stroke-width=".1" d="M96.7 43l1.9.1.8 2 3.5 1.2 5.2-1.4.8-.2.9.3c.3 3.8.1 7.6 0 11.4-4.4-3.8-9.2-7.1-13.7-10.8l.6-2.5z"/><path fill="#9eadb5" stroke="#9eadb5" stroke-width=".1" d="M492 44l1.9-1c1 1.1 1 2.7.7 4-.9-1-2.2-1.8-2.6-3z"/><path fill="#9db0bc" stroke="#9db0bc" stroke-width=".1" d="M0 51.3C2 48.4 4.8 46 7.5 44c3 1.9 5.7 4 8.9 5.5 6.4 1.7 13.8 1 18.9-3.6v4a38 38 0 0 1 10-5.3c-2.3 4.4-7.5 6-12 7.1-11 2.7-22.1.2-33.1-.4z"/><path fill="#dce3e6" stroke="#dce3e6" stroke-width=".1" d="M315.3 45.5l3.5-2.4c2 1.9 4 4 6.3 5.7 1.7 1.2 4 1.8 5.4 3.5-5 .2-10 .1-14.9 0 .1-2.3 0-4.5-.3-6.8z"/><path fill="#bcc4cc" stroke="#bcc4cc" stroke-width=".1" d="M394.4 44.3c1.9.8-.4 4.3-2.1 3.4-.7-1.4.8-3 2-3.4z"/><path fill="#9fb1bd" stroke="#9fb1bd" stroke-width=".1" d="M57.1 48.6l3.4-3.7-.4 3.7 2.5-.7v2l1.3 1 .4-1.9 6.8 3.5H50.8c1.8-1 3.7-2.1 5.7-3l.6-.9z"/><path fill="#8a949d" stroke="#8a949d" stroke-width=".1" d="M338.4 45c3-1.6.2 3.3 0 0z"/><path fill="#d1dadf" stroke="#d1dadf" stroke-width=".1" d="M437 44.3l2.9.5 1.4.2h.5l6.8.5.7 4h-1c-1-3-1.4 1.7-2 2.6l-1.5-.6a3.8 3.8 0 0 1-3.4 3c-1.9.5-.2 2.2.3 3.2.8-1.4 1.4-2.8 2.8-3.6l.5-2 2.6.5.2-3 1.2 1.8c.2 5.5 0 11.1 0 16.7 2.1 1 4.3 2 6.3 3.3-8.1-.2-16.3 0-24.4 0 2-1.3 4.1-2.4 6.3-3.4l-.2-6.7 3-.7-3 .2V44.3m7.3 13.8c-1.7 2.9 3.3.4 0 0m-5 9.1c.6.5.6.5 0 0z"/><path fill="#a4abb1" stroke="#a4abb1" stroke-width=".1" d="M340.2 48.2c.5.5.5.5 0 0z"/><path fill="#c0ccd4" stroke="#c0ccd4" stroke-width=".1" d="M386.2 48.2l1.8 2.4 3.9.3-.4 2.7 6-1v15.8c6.2-.2 12.4.1 18.6-.2 3.2-1.2 6-3 9.1-4.5 0 2.6 0 5.2-.2 7.8h-46l6.7-3.5c.9-6.5.5-13.2.5-19.8m1.1 5.4c.5 1.3.8 2.6 1 4h1.3l-.6 4.9c1.6 1.7 2.2 4.1 2.7 6.4-.2-2.2-.2-4.4 0-6.6l-1.6.2-.2-3.2 3.7.5c-.7-1.8-2.6-1.4-4-1.7l1-2c-1-.9-2.2-1.7-3.3-2.5z"/><path fill="#b0bec5" stroke="#b0bec5" stroke-width=".1" d="M332.5 52.2c1.4-1.5 3.4 1 2 2.2-1.2 1.7-3.4-.9-2-2.2z"/><path fill="#b1bac1" stroke="#b1bac1" stroke-width=".1" d="M490.3 53.4c1.3.2 1.5 1 .7 2.2-1.3-.2-1.6-1-.7-2.2z"/><path fill="#97a7b0" stroke="#97a7b0" stroke-width=".1" d="M492.4 55c1.5-.5 1.9 0 1.2 1.4-1.4.4-1.8 0-1.2-1.4z"/><path fill="#a2afb6" stroke="#a2afb6" stroke-width=".1" d="M444.3 58.1c3.3.4-1.7 2.9 0 0z"/><path fill="#67707c" stroke="#67707c" stroke-width=".1" d="M.4 59.2c3.3 0-1.6 3 0 0z"/><path fill="#8c9fb0" stroke="#8c9fb0" stroke-width=".1" d="M2.7 59.3c6-.8 12-.3 18.1-.4l-.7 3.9c-6.2.3-12.3 1.3-18.5.6L.3 64.9v-3c1-.6 1.7-1.6 2.4-2.6z"/><path fill="#99adbb" stroke="#99adbb" stroke-width=".1" d="M47.9 59l67.1-.1-1 2 3.7.3-1.4 2.6 3 3.1.7.6.2 2c-6 0-12-.9-18-.4-2.9.4-5.4-1.6-8.2-1.3-8.7.5-17.4.1-26 .7-1.4-.2-3.5.8-4.4-.6l-1.7-2.4a14 14 0 0 1-8.1-3.8v3.2l-1.8.5c-3.8.5-7.5.1-11.3.3 3.8-.2 6.9-2.5 9.1-5.5L48 59z"/><path fill="#8ea5b4" stroke="#8ea5b4" stroke-width=".1" d="M115 58.9c1.8 0 3.6-.2 5.3.3l3.2 1.4c1.1 2.4 2.6 4.8 4.7 6.6l1-5.1 1.5 1.5 1.7-3c2.5 1 2.8 3.7 3.3 6 2.5.6 4.9 1.6 6.8 3.3-2.7.1-5.4 0-8-.3l-2-1.3c-1.4 2-4 1.4-6 1.4l.4-1.5c-1.4 2.4-4.5 1-6.7 1.3l-.2-2c2.2-1-.8-3.1-.6-.6l-3-3 1.3-2.7-3.7-.3 1-2z"/><path fill="#a4b7c4" stroke="#a4b7c4" stroke-width=".1" d="M120.3 59.2c7.6-.6 15.3 0 23-.4-.7 2.4-1 4.8-1 7.3l1.2-3.4c.1 2.8 1.6 4.7 4.4 4.9L146 70h-3.5c-2-1.8-4.3-2.8-6.8-3.5-.5-2.2-.8-4.9-3.3-5.9l-1.7 3-1.5-1.5-1 5a18.4 18.4 0 0 1-4.7-6.5l-3.2-1.4z"/><path fill="#859aaf" stroke="#859aaf" stroke-width=".1" d="M143.2 58.8l1.8.3c3 3 4.3 7.2 6 11h-5l2-2.5c-3-.2-4.4-2-4.5-4.9l-1.3 3.4c.1-2.5.4-5 1-7.3z"/><path fill="#b2c2cc" stroke="#b2c2cc" stroke-width=".1" d="M145 59c13.2-.3 26.4 0 39.5 0l2.8 4.8 3.2-2.6c1.3 1.4 2.6 2.8 4.2 3.8l1 1.3 4.8-2.7-.2 2.9 2-.5c.6 1.5 2.1 2 3.5 2.6a32 32 0 0 1 4.6 2.7c-7.1 0-14.2-.6-21.4-.5-1.5 0-3.6.1-4.3-1.5l-2 1.2h-12l-.2-1.7-.1 1.9-3.8-1c-.3 0-1 .4-1.2.6-4.8-.2-9.6-.2-14.4-.2-1.7-3.8-3-8-6-11z"/><path fill="#c3d0d7" stroke="#c3d0d7" stroke-width=".1" d="M184.5 59c10 .2 20.1-.8 30.1.6h.7l-.5.4-1 .6c.6 3.1 1.9 6.7-1 9.1l-1.8-2.3-.2 4.1-.4-.2c-1.5-1-3-2-4.6-2.7l-.3-3.4-3.3.8-2 .5.3-2.9-4.8 2.7-1-1.3c-1.6-1-3-2.4-4.2-3.8l-3.2 2.6-2.8-4.9m18.8 1.4c-1.5.5-1.3 3.2.5 2.5 1.6-.3 1.1-3.1-.5-2.5m8 2c-1.4 0-1.9 2.7-.2 2.8 1.4 0 2-2.8.3-2.9z"/><path fill="#ccd6dc" stroke="#ccd6dc" stroke-width=".1" d="M214.6 59.6c3.7-1.1 7.6-.6 11.5-.7 5.1.2 10.3-.3 15.5.3a59 59 0 0 0-2.1 2l1.3 1.8-5.2 4.5a11 11 0 0 0-4.3-6.4c-1.3 2.8-2.7 6.5-6.5 5.6 1.2-1.1 2.6-2.1 4-3l-.9-1.5-4.7 3.3-1.4-1.7c-2.7-.4-5-2.1-7-3.8l.5-.3z"/><path fill="#b9c8d0" stroke="#b9c8d0" stroke-width=".1" d="M241.6 59.2l.7-.5 1.5 6 2-1.4.6 2.2 5.6-.8 3 2.2c2-2 4-4 6.5-5.2l1.8 4.7 3.4-1.6c-1 1.8-2.2 3.5-3.5 5.1 2.5.9 5 1.6 7.5 2.2l-1.3-2.4c2.6 0 5.1.6 7.6 1.4 2.2-1.4 4.5-.5 5.4 2l.3-5c1.6 1 3.2 2 5 2.7 1.3.6 2.7 1 4.1 1.5l-.2 4c-2-.3-4.2-1.7-6.3-1-1.2 1.9.2 5-2.3 6.3-4.5 2.3-10.3 2-15 .1-2.8-1-1.6-4.6-2.9-6.7-3.4-1.8-7.4-1.2-11.1-1.6l1-2.8 2.4.8a8 8 0 0 0-2.7-1.2l-1.2 3.1c-9-.3-18-1.1-27.1-1.3l.4-2-.7 1.7c-5 .3-10.2-.5-15.3-.2l.2-4 1.9 2.2c2.8-2.4 1.5-6 1-9l.9-.7c2 1.7 4.3 3.4 7 3.8l1.4 1.7c1.6-1 3.2-2.2 4.7-3.3l1 1.4c-1.5 1-2.9 2-4.1 3.1 3.8 1 5.2-2.8 6.5-5.6a11 11 0 0 1 4.3 6.4l5.2-4.5-1.3-1.8a59 59 0 0 1 2.1-2m27.1 15.5c-1.2 1-2.4 2.6-2 4.3 2 3.4 6.7 3.5 10.2 3.7 3.2.3 6.9-2 6-5.7.2-2.2-2.3-2.7-4-2.8-1 1.7-1.7 3.5-2.7 5.2a191 191 0 0 1-.3-5.3c-2.3 0-5-1-7.2.6z"/><path fill="#cdd6dc" stroke="#cdd6dc" stroke-width=".1" d="M242.3 58.7c17.8.4 35.6.1 53.3.2.3 2.1.5 4.3 1.7 6.1-.8 1-1.3 2.3-2.3 3-1.4-.4-2.7-1.1-4-1.8l-3.4 4.6c-1.7-.7-3.3-1.7-4.9-2.7a47 47 0 0 1-.3 5c-.9-2.5-3.2-3.4-5.4-2a26 26 0 0 0-7.6-1.4l1.3 2.4c-2.5-.6-5-1.3-7.5-2.2 1.3-1.6 2.5-3.3 3.5-5.1l-3.4 1.6-1.8-4.7a24.8 24.8 0 0 0-6.5 5.2l-3-2.2-5.6.8-.7-2.2-1.9 1.5-1.5-6z"/><path fill="#a2b1bb" stroke="#a2b1bb" stroke-width=".1" d="M203.3 60.3c1.6-.6 2 2.2.5 2.5-1.8.7-2-2-.5-2.5z"/><path fill="#7a93a5" stroke="#7a93a5" stroke-width=".1" d="M53.8 65v-3.3c2.3 2 5 3.6 8 3.8l1.8 2.4-11.2 1c0-1-.3-2.7-.4-3.5l1.8-.5z"/><path fill="#97a8b1" stroke="#97a8b1" stroke-width=".1" d="M211.4 62.2c1.6.1 1.1 2.8-.3 2.9-1.7 0-1.2-2.8.3-2.9z"/><path fill="#84959f" stroke="#84959f" stroke-width=".1" d="M317.3 64.2c3.3.2-1.6 3 0 0z"/><path fill="#9fafbe" stroke="#9fafbe" stroke-width=".1" d="M365 67.9c2.6-1.6 5.3-2.9 8-4.2l.1 7.8h-1.4l-.2-2.8v2.8l-6.8-.1 1.2-3.7z"/><g fill="#708a9b" stroke="#708a9b" stroke-width=".1"><path d="M202.2 66l3.3-.8.3 3.4c-1.4-.6-2.9-1.1-3.6-2.6zM297.3 65l1.6-.3a151 151 0 0 1-2.5 4l-1 1 1.3 2.1-2.7-.3 1 1.2.2.4-1.5 1.8-.4 2.2-1.7-.5v-.4l.2-3.9-4.2-1.5 3.4-4.6c1.3.7 2.6 1.4 4 1.9 1-.8 1.5-2 2.3-3z"/></g><path fill="#3d4b55" stroke="#3d4b55" stroke-width=".1" d="M319.1 64.9c.6 4.1 0 8.4 1 12.5.5 2 .8 4 1 6.1l-2.2-3.8v-5.5l-2.3-2.8h2.4v-3.7l.1-2.8z"/><path fill="#bcc7cf" stroke="#bcc7cf" stroke-width=".1" d="M338.3 68.4l4.2-3.8v3.7c7.5-.3 15 .6 22.5-.4l1-.2-1.3 3.7h-33.3c1-1.8 2.6-3.2 4.3-4.4l2.6 1.4z"/><path fill="#546a78" stroke="#546a78" stroke-width=".1" d="M119.4 67c-.2-2.6 2.8-.5.6.5z"/><path fill="#94a1a9" stroke="#94a1a9" stroke-width=".1" d="M439.4 67.2c.5.5.5.5 0 0z"/><path fill="#a6b9c4" stroke="#a6b9c4" stroke-width=".1" d="M314.5 68.8l4.6-1.1v3.6l-2.5.1 2.2 2.8v7.9c-1.8.4-3.7.6-5.5.9l1.8-2c-3.5-.5-6.9-1.3-10.2-2.5l-1.5 2.6a75 75 0 0 0-6.7-2.9c0-1.2-.2-2.4-.4-3.6l-1-1.5-.4-.4 4.2-1.5c3.3 2.2 7.4 1.3 11 .9l3.2-.4c.2 2 3.7 1.9 2-.2l-.8-2.7m-16 6.3c.2 1.4 1 1.6 2.2.7-.3-1.4-1-1.6-2.2-.7z"/><path fill="#5f7683" stroke="#5f7683" stroke-width=".1" d="M313.3 71.7l2-.2c1.7 2-1.8 2.1-2 .2z"/><path fill="#4e616d" stroke="#4e616d" stroke-width=".1" d="M293.7 75l1.5-1.9 1.1 1.5.4 3.6c-1-.2-2-.7-2.6-1.4l-.4-1.9z"/><path fill="#a5b9c3" stroke="#a5b9c3" stroke-width=".1" d="M293.3 77l.4-2 .4 1.8z"/><path fill="#8295a4" stroke="#8295a4" stroke-width=".1" d="M298.5 75.1c1.2-.9 2-.7 2.2.7-1.3.9-2 .7-2.2-.7z"/></svg>