<svg xmlns="http://www.w3.org/2000/svg" viewBox="0 0 342.8 111.4">
  <path fill="#020102" d="M293.7 2c3.9.8 7.2-2 11-2h14.1c4.6-.2 9 2.5 13.4.8-.8 3.1-2.8 6.3-1.3 9.5 2.8 8.9 7.5 17 12 25.3 0 3-3.3 4.8-5.6 6.3-4.3 3-10.4 1.9-14.3 5.6a28 28 0 0 0 1.7 7.2c-5.2.2-10.5-.4-15.7-.4l-4.1-4.2a43.6 43.6 0 0 0-5.9 6.4l-2.7.4-.5 3.7-2 1.7c-1.2-2.3-2-4.8-3-7.2-.5-1.6-2.5-1.6-3.8-1.1-1.8 2.3-2.5 5.1-3.6 7.8l-4.2-2.4a41.1 41.1 0 0 1-6.2 7c1.2-2.7 3.1-5.6 1.3-8.6a27 27 0 0 0-4.2 3.7 33.2 33.2 0 0 0-1.6 5.2c-2.8-1.4-3.5-5.3-6.8-5.9l1.9 4.1c-5 1-9.7-.9-14.6-1.5l.6 2.1 3.7.5a27.3 27.3 0 0 1-3.3 4.3c-2.6.3-5.4 0-8 1-2.3.6-5.1 2-7.1 0a24.7 24.7 0 0 0-9.8-6.4l-1.3 3.6a29.8 29.8 0 0 0-3.4-.7c-1.2 1-1.2 2.5-1.6 3.8a28.3 28.3 0 0 0-3.6-.8 28.7 28.7 0 0 0-3.5 4.3l-3.4-3.1-3.3 2.8-3.6-3.8a9.2 9.2 0 0 0 1.4 6.8c1.8 3.4.2 7.2 0 10.7-.8 4.5-.7 9.2-3 13.2-4.5-5.2-1.8-12.3-1.5-18.4.5-3.2-2-5.7-3.7-8-3.3 1.9-5.6 5-8.2 7.7-4 .8-4.2-5-5.5-7.6-3 2.1-5.7 4.8-9.5 5v-6c-4.2.4-8.4 1.2-12.6 1.7-3.5.2-6.5 2.8-10.1 2.8-3 0-5.8.2-8.7 0-4.3 0-8.4-2.4-12.8-1.7q0 3 .2 5.9A50.6 50.6 0 0 0 99.8 78c-2 0-2.5 2.3-3.6 3.5-4.1.5-8.4 1.7-11.1 5-3.6 3.7-2.6 9.2-2.7 13.8-2.3-.7-5.9 0-7-2.6-.7-4.4 1-8.7.2-13a3.7 3.7 0 0 0-6.3.1 26.5 26.5 0 0 0-2.5 17.6 28 28 0 0 1 0 9c-2.8-1-6-1.6-8.1-4-1-3.4.3-7.2-1.7-10.2a17.4 17.4 0 0 0-6.4-6.5c-3.4-.7-3.8 3.6-4.6 6-2.5.2-4.9.6-7.3 1.1-.6-2-1-4.3-3-5.3-4.3-2.5-5.3-8-9.6-10.5 1.2-3 3.2-6.3 1.6-9.5-.6-2.4-3.2-3.2-5.1-4.3l-.1 2.8A35.3 35.3 0 0 0 12 67.6c-2-.4-4.2-.3-6-1.4-2.7-2.2-3.2-6-2.7-9.3.3-3.2 3.7-4.6 6-6.5-1-2.3 0-4.6 1-6.8L4 44c1-1.4 1.8-2.9 2.7-4.3l-3.2-2c1.6-4 3.7-10-1-12.7l6.4-1.4 1.2-4.7c7.7-1 14.8-5 22.7-5.1 7.4-.1 15 .7 22.4-1 3-1 6 .7 8.6 2.1a48.3 48.3 0 0 1 9.3-3.5c5.5-1.2 11 3.5 16.3 1 2.2-1 3.7-2.8 5.3-4.4l.8 2.6c8 .4 16.2.3 24.3.2 6.7-.8 14-3.5 20.1.7 7.6-4.4 16.8-3.3 25.2-3.5a25 25 0 0 1 10 1.3c2.3 1 4.3-1 6.4-1.6 9.3-2.3 19 .1 28.4-2.2 11.3-2 23 .8 34.2-1.7a49 49 0 0 1 14.7-.2c4.5.4 8.9-1.2 13.4-1.6 3.3-.4 6.4 1.1 9.4 2 3.5-2.6 8-2.5 12-1.9zm6.4 1.8c-2.2 7.4 2.6 15.8 9.4 19 4.2 2 7 6 6.5 10.8-4.2-1.6-5.2-6.3-7-9.8l-3.6.3a108.1 108.1 0 0 0 4.8 13.7c3.1-.2 6.2 0 9.3-.6 2-.7 1.7-3.1 1.5-4.9a19.5 19.5 0 0 0-9-14.2c-3.9-2.4-8.8-5.8-7.4-11 2.5 2.3 4 5.3 5.3 8.5l3.3-.2a51.5 51.5 0 0 0-3.8-11.6h-9.3zm10.7 0c4.6 6.6 7 14.3 10 21.6 1.4 3.6 2 7.5 3 11.3 4.3-.4 8.7-.8 13-1.5-2-5-2.5-12-7.8-14.8l-2 .8c-1-2.7-2.3-5.4-3.6-8l-1.1 3a33.6 33.6 0 0 1-3.4-10 12 12 0 0 1 5.7 6.2c1.2 1.8 1.7 4.8 4.3 4.8 0-5.1-3-9.6-5.1-14.1-4.4.1-8.7.4-13 .7zm-23.5 1c-3.4 1-3.4 5.4-2.3 8.2 2.5 7 5 14.2 8.1 21 1.8 4.4 7.6 7.7 12 4.7 3.2-2.7 1-7.3.2-10.6-2.6-6.7-4.6-13.7-8.4-19.8-1.9-3.4-6-4.4-9.6-3.5zM244 7.3c5.5 7.4 7.6 16.5 10.9 25 1.5 3.7 1.4 7.8 2.3 11.7 4.2 2.4 9-1 13.5-1 1.9-.5 5.4.3 5.3-2.6-1.1-2.7-4.1-4.3-4.9-7.3a19.5 19.5 0 0 0-5.8-8.6c2.3-6.2-.4-14.1-6.3-17.3-4.9-1.3-10-.6-15 0zm20.6-.9c1.8 3.3 4 6.4 5.3 9.9 2.9 8.6 6.9 17 7.8 26.1 4.4-.5 10.6.6 13.3-3.8 1.3-4.6-1.5-9.1-3-13.4-2.7-5.9-3.8-12.8-8.5-17.6-4.3-3-10-1.3-15-1.2zm-61.4 3.2c1.6 4 4.9 7 6.5 10.9l9.6 22.3c1 2 1.8 4.3 3.5 6a37.6 37.6 0 0 0 8-.5c-1.5-10.6-4.7-20.8-6.7-31.3a14.8 14.8 0 0 1 .4-5.6c1.5 1 3.3 1.6 3.8 3.4 2.4 6.4 4.3 13 6.6 19.5 1.6 4 1.4 8.2 1.7 12.4 6.4.4 12.8-.8 19.2-1.6a85 85 0 0 0-6-17.5l-4 .9c1 4.3 3.2 8.6 1.9 13.1-5-1.4-5-7.3-6.2-11.3l4.5 5.4a69.4 69.4 0 0 0-6.9-19.5l.2 7.4c-1.9-3.5-4-7.2-3.6-11.2 5-.4 5.8 6 7.7 9.4.5 2.2 3 1.7 4.7 2a52.6 52.6 0 0 0-4.7-15c-4-.2-7.8-.8-11.7-1-2.7 0-5.4 1-8 1-6.9-.5-13.7.2-20.5.8zm-14 .4a7.2 7.2 0 0 0-3.8 7.4c.7 4.7 2.6 9 3.8 13.6 1.6 5 2.7 10.2 5.3 14.7 2.9 5 10 7.6 15 4.5 2-1.3 4.4-3.5 3.7-6.2-1-7-3.6-13.5-5.8-20.2-1.5-4.2-2.7-8.9-6.4-11.7-3.2-2.8-7.8-3-11.8-2zM126 12.6a15 15 0 0 0-.8 7.3c1 8.4 1.8 16.7 3 25 1.7 5.3-1.8 10-1.1 15.2 7 .4 13.9-1.5 20.9-2 2.5-.4 5.4 0 7.4-1.8-.4-4.2-5-6.2-6.3-10a697.1 697.1 0 0 0-13.5-33.6zm18.8-.2c.5 4.2 4.6 6.6 5.5 10.7 2 7.5 4.3 15 6.5 22.5 1.4 3.7-1.2 7.7.8 11.3 8.1-1 16.4-1 24.2-3.4-2.1-6.2-3.7-12.7-6-19l-5.8.2c.6 3.9 1.9 7.6 2.1 11.5-.2 1.8-.9 4.2-3.1 3.6-2.3-3-3-7-4-10.5-1.7-6.2-4-12.3-5.4-18.6-.8-2.8 1.8-6.4-.7-8.6-4.7-.7-9.5-.2-14.1.3zM91 14.7A134.3 134.3 0 0 0 95 33.2c.6 2.7 3.9 1.2 5.8 1.5 0-4.5-2.1-9.6.5-13.7 1.7 7 3 14 5 21 .8 4 2.5 8 2.4 12.1-.8 2.8-2 5.7-1 8.7 5.6-.3 11.2-1 16.8-1.2.1-2.5 0-5-2.2-6.6-3.7-3.3-4-8.4-5.1-13-1.5-7.3-4.3-14.3-5.1-21.8 3.3 3.8 4.6 8.7 5.9 13.4h5.5c-.6-5.4-2.2-10.6-3.1-15.9-.4-1.4-.3-3.9-2.5-3.7-9-.5-18 1-27 .7zM69.3 16a8 8 0 0 0-4.8 8.8C66.3 34 69.3 43 71 52.4c.8 3.4 1.2 7.5 4.1 9.8 4.1 3.3 9.8 3.4 14.8 2.4 3.7-1 8-3.8 7.8-8.2-.2-6.7-3-13-4.3-19.5-1.6-5.4-2-11.2-4.7-16.3-4-6.2-12.8-6.8-19.3-4.6zM27.1 18l-.6.6c.8 6.9 1.7 13.9 3.7 20.5 2.2 1.5 5.1.4 7.6.5-.5-4.8-1.1-9.7-.6-14.6 1.8 2.1 2 5 2.4 7.6 1.6 8.8 3.8 17.5 5.6 26.3 1 3.3-2.3 6-1.7 9.2 1.8 3.5 6.5 1.3 9.6 1.5 3.6-.9 8.4.5 11.2-2.3.9-3.7-2.4-5.6-4.8-7.7-2.1-4.1-2.4-8.9-3.6-13.3-1.5-7.4-3.8-14.7-4.8-22.1 4 3.3 4.4 8.9 5.8 13.6h7.4c-.9-7.3-3-14.4-4.7-21.5a64.5 64.5 0 0 0-9.8.2c-7.5.7-15.2.3-22.7 1.5z"/>
  <path fill="#020102" d="M290 8.1c3.3 2.5 4 6.8 5.5 10.4 2 5.8 4.8 11.2 6 17.1-3.3-2.5-4-6.8-5.5-10.5-2-5.6-5-11-6-17zM274 9.1c3 2.5 3.8 6.4 5.2 9.8 2.1 6 5.2 11.7 6.4 18-3.3-2-3.9-5.9-5.3-9-2-6.3-5.2-12.2-6.3-18.8zM255 10c3.5 3.3 4.3 8 4.8 12.6-3-3.5-4.3-8-4.7-12.5zM215.6 12c1.4 1.2 3.3 1.9 3.7 3.7a78 78 0 0 1 2.4 13.8 114.5 114.5 0 0 1-5.8-12.2c-.8-1.7-.4-3.5-.3-5.2zM193.7 14.1c3.3 1.6 3.5 5.6 4.7 8.6 2.2 8 5.8 15.6 6.5 23.9-3.5-2.6-3.9-7.3-5.2-11.1-2-7.2-5.3-14-6-21.4zM76.6 27.5a12.5 12.5 0 0 1 0-7c3.2 4.4 3.3 10.1 4.8 15.2 1.6 7.6 4 15.1 4.4 23-1-.9-2.2-1.5-2.4-2.8C81 46.5 79 37 76.6 27.5zM326.2 27.6l3.7-3a45.5 45.5 0 0 1 .8 8.1 40 40 0 0 1-4.5-5.1zM261 27c3.5 3.3 4.3 8.3 5.5 12.7-3.8-3-4.6-8.2-5.5-12.7zM1.1 31.4c1.9-.7 2.8 2.5.8 2.9-1.9.6-2.8-2.5-.8-3zM133.2 33.2a27.7 27.7 0 0 1 3.6 8.8h-2.5c-.4-3-.8-5.9-1-8.8zM135.1 46.5a21 21 0 0 1 4 .6c1.2 2 .9 4.2.9 6.3-1.5-.5-3.4-.5-4.4-1.8a19.6 19.6 0 0 1-.5-5zM288 55.7c1.9.1 1.6 3.3-.2 3.3s-1.6-3.3.2-3.3zM317 57.5q2.4-.8 1.7 1.6c-1.7.5-2.2 0-1.7-1.6zM270 66.5q2.4-.8 1.7 1.7-2.5.7-1.7-1.7zM9.1 71.4c3.5-1.3 8.4-1.1 10.6 2.3 1.5 2.5-1 5.3-3.3 6.1a17.9 17.9 0 0 1-8 0c-3.7-1.5-2.7-7.3.7-8.4zM211.4 82l2.7-.7-3 5.1.3-4.4zM90 84l6.1-.2a62 62 0 0 1 1.6 9.4c-3.9-.9-7.6-2.8-9.3-6.6L90 84zM126 99.4c1.6-.5 2.2 0 1.6 1.6-1.6.5-2.2 0-1.6-1.6zM135 103.8l3.6-.2c1.8 2.2 5.1 4.2 4.2 7.5-3-2-7.9-2.9-7.8-7.3z"/>
  <path d="M326.2 27.6c-.8-2.3-2.3-5.4.9-6.5l1.9-.7 1 4.3-3.8 2.9z"/>
  <path fill="#eeb903" d="M300.1 3.7l9.3.1a51.5 51.5 0 0 1 3.9 11.6l-3.3.1a23 23 0 0 0-5.4-8.5c-1.4 5.3 3.6 8.8 7.5 11 5.1 3 8 8.6 9 14.3.1 1.7.5 4.1-1.6 5-3 .4-6.2.2-9.2.5a108.1 108.1 0 0 1-4.8-13.7l3.5-.3c1.9 3.5 2.9 8.2 7 9.8.6-4.8-2.3-8.9-6.4-10.9-7-3.2-11.7-11.5-9.5-19zM310.8 3.8c4.3-.2 8.6-.6 13-.7 2.2 4.5 5 9 5.2 14.1-2.6 0-3.2-3-4.4-4.8a12 12 0 0 0-5.6-6.2 33.6 33.6 0 0 0 3.3 10l1.1-3c1.4 2.7 2.6 5.3 3.7 8-3.2 1-1.7 4.2-.8 6.4a40 40 0 0 0 4.4 5.2 45.5 45.5 0 0 0-.8-8.1l-.9-4.3c5.3 2.8 5.8 9.8 7.8 14.9-4.3.6-8.7 1-13 1.4-.9-3.8-1.5-7.7-3-11.3-3-7.3-5.4-15-10-21.6z"/>
  <path fill="#eeb903" d="M287.3 4.8c3.6-1 7.7.1 9.6 3.5 3.9 6 5.9 13 8.4 19.8 1 3.3 3 7.9-.2 10.5-4.3 3-10.1-.3-12-4.6-3-6.9-5.5-14-8.1-21-1.1-2.8-1-7.1 2.3-8.2zM290 8c1 6 4 11.4 6 17 1.5 3.7 2.2 8 5.5 10.5-1.2-6-4.1-11.4-6-17.1-1.5-3.6-2.2-7.8-5.5-10.4zM244.1 7.2c5-.7 10.1-1.4 15 0 6 3.1 8.7 11 6.4 17.2a19.5 19.5 0 0 1 5.8 8.6c.7 3 3.7 4.6 4.8 7.4.1 2.8-3.4 2-5.3 2.5-4.5 0-9.3 3.4-13.5 1-.9-3.8-.8-8-2.4-11.7-3.2-8.5-5.3-17.6-10.8-25zm11 2.9c.4 4.5 1.6 9 4.7 12.5-.4-4.5-1.3-9.3-4.7-12.5zM261 27c1 4.5 1.7 9.6 5.5 12.7-1.3-4.4-2-9.4-5.5-12.7zM264.7 6.3c4.9-.2 10.6-1.9 15 1.2 4.7 4.8 5.8 11.7 8.5 17.6 1.5 4.3 4.3 8.8 3 13.3-2.8 4.5-9 3.4-13.4 4-1-9.2-4.9-17.6-7.8-26.2-1.3-3.5-3.5-6.6-5.3-9.8zm9.4 2.8c1 6.6 4.1 12.5 6.2 18.8 1.4 3.2 2 7 5.3 9-1.2-6.3-4.3-12-6.4-18-1.4-3.4-2.1-7.3-5.1-9.8zM203.3 9.5c6.8-.6 13.6-1.3 20.4-.7 2.7 0 5.4-1 8-1 4 .1 7.9.8 11.8 1 2 4.8 4 9.7 4.7 15-1.7-.4-4.2.1-4.7-2-2-3.4-2.7-9.8-7.7-9.4-.4 4 1.7 7.7 3.6 11.2l-.2-7.4c3.5 6 5.4 12.8 6.9 19.5l-4.5-5.4c1.3 4 1.3 9.9 6.2 11.3 1.3-4.5-.9-8.8-1.9-13.1l4-1a85 85 0 0 1 6 17.6c-6.4.8-12.8 2-19.2 1.6-.3-4.2-.1-8.5-1.7-12.5-2.3-6.4-4.2-13-6.6-19.4-.5-1.8-2.3-2.5-3.8-3.4a14.8 14.8 0 0 0-.4 5.6c2 10.5 5.2 20.7 6.6 31.3a37.6 37.6 0 0 1-8 .4c-1.6-1.6-2.4-3.9-3.4-6l-9.6-22.3c-1.6-4-4.9-7-6.5-10.9zm12.3 2.6c-.1 1.7-.5 3.5.3 5.2a114.5 114.5 0 0 0 5.8 12.1 78 78 0 0 0-2.4-13.7c-.4-1.8-2.3-2.5-3.7-3.6zM189.3 10c4-1 8.6-.8 11.8 2 3.7 2.8 4.9 7.5 6.4 11.6 2.1 6.7 4.7 13.3 5.8 20.3.7 2.7-1.7 4.8-3.7 6.1-5.1 3.1-12.2.5-15-4.4-2.7-4.6-3.8-9.8-5.3-14.8-1.3-4.5-3.2-8.9-3.8-13.5a7.2 7.2 0 0 1 3.8-7.4zm4.4 4.1c.7 7.4 4 14.2 6 21.4 1.4 3.8 1.7 8.5 5.2 11-.7-8.2-4.3-15.9-6.5-23.8-1.2-3-1.4-7-4.7-8.6zM125.9 12.6l9.6.1c4.8 11 9.2 22.3 13.5 33.5 1.3 3.9 5.9 5.8 6.3 10.1-2 1.8-5 1.4-7.5 1.8-7 .4-13.8 2.3-20.8 2-.8-5.2 2.7-10 1.1-15.2-1.3-8.3-2-16.6-3-25a15 15 0 0 1 .8-7.3zm7.3 20.6l1.1 8.8h2.5a27.7 27.7 0 0 0-3.6-8.8zm1.9 13.3a19.6 19.6 0 0 0 .5 5c1 1.4 2.9 1.4 4.3 2 0-2.2.3-4.5-.9-6.4a21 21 0 0 0-3.9-.6zM144.7 12.4c4.6-.5 9.4-1 14-.3 2.5 2.2 0 5.8.8 8.6 1.4 6.3 3.7 12.4 5.3 18.6 1.1 3.6 1.7 7.4 4 10.5 2.3.6 3-1.8 3.1-3.6-.2-3.9-1.4-7.6-2-11.5l5.8-.1c2.2 6.2 3.8 12.7 6 19-7.9 2.2-16.1 2.2-24.2 3.3-2-3.6.5-7.6-.9-11.3-2.2-7.5-4.5-15-6.5-22.5-.9-4.1-5-6.5-5.4-10.7zM90.9 14.7c9 .4 18-1.2 27-.7 2-.2 2 2.3 2.4 3.8 1 5.2 2.5 10.4 3.1 15.8h-5.5c-1.3-4.7-2.6-9.6-6-13.4 1 7.5 3.7 14.6 5.2 21.9 1 4.5 1.4 9.6 5.2 12.9 2 1.6 2.2 4.2 2.2 6.6-5.7.2-11.3 1-17 1.2-1-3 .3-5.8 1.1-8.7 0-4.1-1.6-8.1-2.4-12.2-2-6.9-3.2-14-5-20.9-2.6 4.1-.5 9.2-.5 13.7-2-.3-5.2 1.2-5.8-1.5a134.3 134.3 0 0 1-4-18.5zM69.3 15.9c6.5-2.2 15.2-1.6 19.3 4.6 2.6 5 3.1 10.8 4.7 16.3 1.4 6.5 4.1 12.8 4.3 19.5.1 4.4-4 7.2-7.8 8.2-5 1-10.7 1-14.8-2.4-3-2.3-3.3-6.4-4-9.8-1.7-9.3-4.8-18.3-6.5-27.5a8 8 0 0 1 4.8-9zm7.3 11.6C79 37 81 46.5 83.4 56c.2 1.4 1.5 2 2.4 2.7-.4-7.8-2.8-15.2-4.4-22.9-1.5-5-1.6-10.8-4.8-15.3a12.5 12.5 0 0 0 0 7.1zM27.1 18c7.5-1.2 15.1-.8 22.7-1.5a64.5 64.5 0 0 1 9.8-.3c1.8 7.1 3.8 14.2 4.7 21.5h-7.4c-1.4-4.7-1.8-10.2-5.8-13.6 1 7.5 3.3 14.7 4.8 22.1 1.2 4.5 1.5 9.3 3.6 13.4 2.4 2 5.7 4 4.8 7.7-2.8 2.8-7.6 1.4-11.2 2.3-3.1-.2-7.8 2-9.6-1.5-.6-3.2 2.7-6 1.7-9.3-1.8-8.7-4-17.4-5.6-26.2-.5-2.6-.6-5.5-2.5-7.6-.4 4.9.2 9.8.7 14.6-2.5-.1-5.4 1-7.6-.5-2-6.6-2.9-13.7-3.7-20.6z"/>
</svg>
