<svg xmlns="http://www.w3.org/2000/svg" width="541.3333" height="141.3333" viewBox="0 0 406 106"><defs><filter id="a" width="1.015" height="1.06" x="-.0075" y="-.03" color-interpolation-filters="sRGB"><feGaussianBlur stdDeviation="1.25"/></filter></defs><g fill="#fafafa" stroke="#000" stroke-width="7.5" filter="url(#a)" transform="translate(3 3)"><path d="M126.46 0h7.3c2.03.96 4.27 1.67 5.87 3.32 6.08 5.63 12 11.43 18.01 17.13 0-4.84.15-9.69-.05-14.52.12-3.3-4.03-3.15-6.19-4.4 4.9-.14 9.82-.28 14.71.15-1.85.72-3.74 1.32-5.62 1.93-1.12 7.63-.68 15.42-.23 23.09 8.14-.07 16.29.05 24.44-.05-.02-7.79-.04-15.58.02-23.38-3.08.16-6.55-.47-9.22 1.46-1.89 1.31-2.14 4.04-4.08 5.27-.24-2.86-.09-5.73-.08-8.59 6.21-.24 12.6.85 18.65-.94 5.47-.55 10.98.26 16.44-.47h.03c.08 2.63.24 5.26.09 7.88-1.69-.68-2.12-2.79-3.4-3.97-2.6-2.65-6.57-2.08-9.93-2.1-.04 4.67.03 9.35-.01 14.02 9.75-.05 19.5-.04 29.25-.02.04-4.08.04-8.16-.13-12.24-2.06-.73-4.16-1.31-6.22-2.02 17.28-.29 34.56.07 51.84-.12 5.14-.04 10.36-.02 15.37 1.31-.05 4.58-.06 9.15.01 13.72-1.11.46-2.22.92-3.32 1.39 5.32 4.73 9.13 11.48 15.92 14.29-4.42 0-8.86.32-13.26-.13-4.42-3.79-7.95-8.53-12.18-12.55-.92-1.11-2.45-1.24-3.7-1.73-.09 3.82-.32 7.66 0 11.48.97 2.28 4.01 1.74 6 2.4-.3.17-.89.5-1.18.66-2.77-.04-5.54-.07-8.3-.08-.05-9.81-.03-19.61 0-29.41-6.15-.05-12.3-.02-18.45-.03-.04 2.51.04 5.03.25 7.53-.3.07-.88.22-1.18.29-.86-1.8-1.23-4.08-3.03-5.24-4.22-2.95-9.69-1.81-14.51-2.07.03 4.22-.02 8.43.05 12.65 2-.38 4.28-.23 5.97-1.57 1.72-1.34 2.07-3.61 2.66-5.58.3-.13.91-.4 1.22-.53 0 3.95.02 7.89 0 11.84-3.5-.28-6.22-3.06-9.86-2.82-.06 4.15-.1 8.31.2 12.45 5 1.19 10.52 1.01 15.21-1.22 2.82-1.33 4.01-4.38 5.66-6.81.27 3.57-.81 7.02-1.35 10.51-8.19-.01-16.37.01-24.55-.02 1.23-5.03.9-10.23.85-15.35-9.71-.02-19.42.1-29.13-.06-.07 3.19-.44 6.44.23 9.58 1.55 1.07 3.49 1.1 5.28 1.43-.02.15-.06.44-.08.58-2.98-.03-5.96-.05-8.94-.08l-.12 3.93c-3.73 0-7.47.24-11.17-.26 2.5-.64 5.33-1.03 6.78-3.44-7.36-1.23-14.86-.41-22.28-.62-1.96-.24-4.39.61-5.97-.89-7.46-6.77-14.61-13.88-21.87-20.86.26 7.36-.55 14.8.41 22.09 1.85 1.49 4.35 1.54 6.53 2.26-4.95.4-9.92.27-14.88.2.02-.2.05-.6.07-.8 2.04-.26 5.3-.2 5.38-2.99.33-7.71.04-15.44.05-23.15-6.13.15-12.27.09-18.41.05-.02 2.53-.03 5.07-.22 7.6-1.65-2.62-2.69-6.23-6-7.23-3.97-1.37-8.26-.74-12.39-.84.04 4.16.04 8.32.01 12.48 2.15-.3 4.65-.04 6.31-1.74 1.52-1.88 2.11-4.32 3.27-6.42.21 5.87.52 11.81-.2 17.66-.9-1.92-1.48-4-2.68-5.76-1.61-1.95-4.36-1.93-6.65-2.26.03 4.33-.47 8.74.75 12.96 5.02.22 10.44.6 14.98-1.97 2.46-1.61 3.85-4.31 5.75-6.47-.52 3.46-.99 6.95-2.05 10.29-8.02.26-16.05.03-24.07.1.16-2.07.32-4.13.46-6.2-2.07-2.14-1.69-5.25-1.79-7.98.12-2.6-.51-5.68 1.67-7.64.05-2.27.03-4.55-.01-6.83-2.15-.69-4.35-1.2-6.53-1.82 9-.54 18.05-.23 27.06-.16 6.29 1.87 12.95.82 19.43 1.03-1.62-.93-3.28-1.79-4.97-2.58m140.13 3.31c.14 4.4.09 8.8.06 13.2 3.83-.07 8.55.58 11.37-2.61 1.17-2.25.92-5.02.36-7.42-2.45-4.01-7.76-3.43-11.79-3.17zM183.33 36.18c1.35.09 2.7.17 4.06.27-.37 1.12-.71 2.25-1.04 3.38 1.71.04 3.43.06 5.15.05-.08-.93-.25-2.79-.33-3.72 1.52.1 3.04.19 4.56.27-.29.31-.88.93-1.18 1.24.08 2.26.12 4.53.17 6.79 15.05.22 30.1-.04 45.15.13.02-2.75-.07-5.5-.24-8.25 1.24-.03 2.49-.08 3.74-.12-.53 1.84.1 3.32 1.65 4.34.44-.64 1.32-1.9 1.75-2.54.02 1.65.01 3.3-.03 4.95-.3-.47-.89-1.41-1.18-1.88l-2.34-.04c.09.85.27 2.56.36 3.42 2.69.71 5.01-.59 6.96-2.32-.36 1.37-.71 2.73-1.07 4.1-40.89-.2-81.79.02-122.68-.1-.44-.36-1.32-1.08-1.75-1.44 3.23-.28 6.48-.19 9.73-.16.39-2.76.45-5.54.36-8.32l3.16.12c-.12 2.71-.11 5.42-.05 8.13 15.15.08 30.3.07 45.45.01-.03-2.78-.06-5.55-.36-8.31m3.34 8.19c1.56.09 3.12.12 4.69.09v-3.87l-4.71.03c0 1.25.01 2.5.02 3.75zM0 49.45c5.05-1.05 10.22-.5 15.33-.62.07 1.46.13 2.92.2 4.38 2.22.01 4.43.03 6.65.05C29 63.42 35.64 73.71 42.61 83.78c6.42-10.14 13.03-20.16 19.26-30.42 2.13-.07 4.26-.1 6.4-.11 0 1.68.01 3.36.02 5.05 17.06.06 34.12-.06 51.18.25.32-.45.96-1.37 1.29-1.82 2.11.17 4.23.36 6.35.56 3.57 6.02 7.51 11.81 11.01 17.88-1.55.08-3.09.17-4.63.27 3.43 4.68 6.31 9.73 9.58 14.51 1.44 2.26 4.38 2.66 6.84 2.64 11.79-.09 23.59.04 35.38-.12.13-12.25.02-24.51.05-36.77-5.43.29-11.11-.48-16.27 1.57-3.39 1.45-3 6.35-6.52 7.66-.25-4.07.09-8.14.23-12.21 7.07-.01 14.14 0 21.21 0 2.61.46 4.52-2.01 7.14-1.58 8.43-.01 16.85-.42 25.28-.41.16 3.88.86 7.83-.14 11.66-2.02-2.47-2.82-6.06-5.75-7.68-4.61-1.46-9.53-1.06-14.3-1.1-.11 7.84-.06 15.69-.04 23.53 14.32-.03 28.63-.33 42.96-.32.06-7.71-.03-15.42.09-23.13 8.27.25 16.74-.71 24.8 1.61 1.28.21 2.68 1.03 2.2 2.63-.05 5.07.38 10.2-.55 15.23-2.73.56-5.45 1.16-8.15 1.82 5.34 4.83 10.98 9.31 16.45 13.99 4.21 3.99 10.28 5.41 15.95 5.16 2.5-1.3 5.35-1.39 8.02-2.14 2.2-1.08 2.03-3.93 2.17-6-.56-9.01-.13-18.05-.36-27.07-.12-1.09.01-2.66-1.29-3.07-2.66-.86-5.56-.75-8.14-1.89 7.52-1.12 15.21.35 22.7-1.22 17.17-.38 34.36.1 51.54-.14.08.45.24 1.33.32 1.78-2.6.12-5.17.56-7.65 1.35 2.56 5.32 7.31 9.12 11.53 13.09.07.75.13 1.5.18 2.26-.37.29-1.13.88-1.5 1.17 6.42 6.97 13.46 13.36 20.08 20.14 3.06 3.45 7.67 4.38 11.9 5.58-3.73 1-7.63.43-11.44.56-6.92-.12-13.86.24-20.78-.12 2.16-2.13 5.86-1.23 8.62-2.19-.35-1.51-.76-3.06-1.87-4.21-4.23-4.78-9.08-8.98-13.21-13.85-3.86 2.9-7.32 6.29-11.03 9.38-2.28 2.05-4.83 3.92-6.53 6.51-.38 3.85 5.34 2.61 7.81 3.54-.11.22-.35.66-.47.88-5.5.36-11.03.04-16.53.25-2.74-.09-5.63.55-8.2-.63 3.98-1.15 8.13-2.24 11.24-5.18 6.98-5.82 13.88-11.74 20.74-17.7-1.64-1.61-3.28-3.23-4.91-4.85 1.92-.1 3.84-.17 5.78-.25-4.48-4.74-8.96-9.57-14.26-13.41-7.92-4.26-17.1-2.83-25.72-3.03-.38.27-1.15.81-1.54 1.08-2.68.41-7.12-.02-7.75 3.45-.19 10.24-.15 20.49-.04 30.73.11 4.28 5.31 3.63 8.24 3.95.09.94.19 1.89.28 2.84-15.62-.05-31.24-.05-46.86-.07-8.33-5.89-15.29-13.45-23.27-19.78-1.59-.49-3.31-.2-4.95-.32.08 4.85-.24 9.72.13 14.57 1.17 3.11 5.06 2.41 7.66 2.81l-.03 1.37c-3.74-.08-7.48-.06-11.21.06-.1-5.31-.13-10.61-.08-15.92-14.37-.08-28.73.03-43.09.07-.06 3.24-.03 6.49.19 9.72 2.78 1.57 6.06 1.65 8.95 2.93-5.03.68-10.11.22-15.16.37.01 1.94.03 3.89.05 5.83-4.89-.52-10.27 1.22-14.84-.83 3.06-.68 6.23-.84 9.21-1.88-11.13-1.33-22.44-.05-33.63-.67-8.43-.56-16.92.37-25.31-.56 2.38-.84 4.89-1.26 7.3-2-1-3.99-3.49-7.32-5.65-10.73-7.72.1-15.44-.02-23.15.08-1.76 3.44-4.21 6.6-4.96 10.46 2.38.79 4.85 1.32 7.18 2.25-6.38.37-12.95.76-19.26-.34 2.84-.7 5.94-1.52 7.52-4.25 6.39-9.6 12.13-19.62 18.32-29.36-14.82-.16-29.65.01-44.47-.13 0 11.39-.03 22.79-.12 34.18-4.81-.08-9.66.47-14.42-.4 2.49-.77 5.11-.99 7.58-1.82 1.64-1.22 1.14-3.52 1.34-5.29-.01-8.89.14-17.79-.1-26.68-7.63 11.59-15.11 23.3-22.82 34.85-8.31-10.7-14.92-22.63-23.01-33.51-.03 6.81-.13 13.62-.04 20.42-.35.34-1.04 1.02-1.38 1.36.05 5.76-.06 11.51-.05 17.27-4.31-.05-8.63-.2-12.93.22h-.61L.01 98.74c3.43-1.25 9.29-.16 10.31-4.82.51-12.89 0-25.83.17-38.74-2.27-.37-4.55-.66-6.79-1.14 1.81-.68 3.72-.98 5.59-1.46-2.48-2.33-6.2-1.75-9.29-2.52v-.61m243.4 7.2l-.49.15c-.32 5.18-.1 10.38-.13 15.57.15.21.45.65.59.87 5.63-.12 11.8-.07 16.75-3.11 4-2.33 4.2-8.78.28-11.26-5.02-3.11-11.35-3.1-17-2.22M105.93 77.79c6.62.75 13.29.19 19.93.39-2.99-5.59-6.46-10.96-9.92-16.25-3.72 5.01-6.52 10.67-10.01 15.86z" opacity=".98"/><path d="M376.58 54.16c1.04-.63 2.18-1.04 3.42-.88 6.67.12 13.33.18 20 .16v.91c-3.56.67-7.37 1.03-10.38 3.27-5.45 3.91-10.14 8.79-15.51 12.8-1.74.41-3.38-.39-4.95-1.01 3.48-1.76 6.2-4.59 9.22-6.99 2.21-1.95 4.88-3.71 5.73-6.71-2.49-.62-5.03-1.01-7.53-1.55z" opacity=".98"/></g><g fill="#fafafa" stroke="#fafafa" stroke-width=".0938"><path d="M129.46 3h7.3c2.03.96 4.27 1.67 5.87 3.32 6.08 5.63 12 11.43 18.01 17.13 0-4.84.15-9.69-.05-14.52.12-3.3-4.03-3.15-6.19-4.4 4.9-.14 9.82-.28 14.71.15-1.85.72-3.74 1.32-5.62 1.93-1.12 7.63-.68 15.42-.23 23.09 8.14-.07 16.29.05 24.44-.05-.02-7.79-.04-15.58.02-23.38-3.08.16-6.55-.47-9.22 1.46-1.89 1.31-2.14 4.04-4.08 5.27-.24-2.86-.09-5.73-.08-8.59 6.21-.24 12.6.85 18.65-.94 5.47-.55 10.98.26 16.44-.47h.03c.08 2.63.24 5.26.09 7.88-1.69-.68-2.12-2.79-3.4-3.97-2.6-2.65-6.57-2.08-9.93-2.1-.04 4.67.03 9.35-.01 14.02 9.75-.05 19.5-.04 29.25-.02.04-4.08.04-8.16-.13-12.24-2.06-.73-4.16-1.31-6.22-2.02 17.28-.29 34.56.07 51.84-.12 5.14-.04 10.36-.02 15.37 1.31-.05 4.58-.06 9.15.01 13.72-1.11.46-2.22.92-3.32 1.39 5.32 4.73 9.13 11.48 15.92 14.29-4.42 0-8.86.32-13.26-.13-4.42-3.79-7.95-8.53-12.18-12.55-.92-1.11-2.45-1.24-3.7-1.73-.09 3.82-.32 7.66 0 11.48.97 2.28 4.01 1.74 6 2.4-.3.17-.89.5-1.18.66-2.77-.04-5.54-.07-8.3-.08-.05-9.81-.03-19.61 0-29.41-6.15-.05-12.3-.02-18.45-.03-.04 2.51.04 5.03.25 7.53-.3.07-.88.22-1.18.29-.86-1.8-1.23-4.08-3.03-5.24-4.22-2.95-9.69-1.81-14.51-2.07.03 4.22-.02 8.43.05 12.65 2-.38 4.28-.23 5.97-1.57 1.72-1.34 2.07-3.61 2.66-5.58.3-.13.91-.4 1.22-.53 0 3.95.02 7.89 0 11.84-3.5-.28-6.22-3.06-9.86-2.82-.06 4.15-.1 8.31.2 12.45 5 1.19 10.52 1.01 15.21-1.22 2.82-1.33 4.01-4.38 5.66-6.81.27 3.57-.81 7.02-1.35 10.51-8.19-.01-16.37.01-24.55-.02 1.23-5.03.9-10.23.85-15.35-9.71-.02-19.42.1-29.13-.06-.07 3.19-.44 6.44.23 9.58 1.55 1.07 3.49 1.1 5.28 1.43-.02.15-.06.44-.08.58-2.98-.03-5.96-.05-8.94-.08l-.12 3.93c-3.73 0-7.47.24-11.17-.26 2.5-.64 5.33-1.03 6.78-3.44-7.36-1.23-14.86-.41-22.28-.62-1.96-.24-4.39.61-5.97-.89-7.46-6.77-14.61-13.88-21.87-20.86.26 7.36-.55 14.8.41 22.09 1.85 1.49 4.35 1.54 6.53 2.26-4.95.4-9.92.27-14.88.2.02-.2.05-.6.07-.8 2.04-.26 5.3-.2 5.38-2.99.33-7.71.04-15.44.05-23.15-6.13.15-12.27.09-18.41.05-.02 2.53-.03 5.07-.22 7.6-1.65-2.62-2.69-6.23-6-7.23-3.97-1.37-8.26-.74-12.39-.84.04 4.16.04 8.32.01 12.48 2.15-.3 4.65-.04 6.31-1.74 1.52-1.88 2.11-4.32 3.27-6.42.21 5.87.52 11.81-.2 17.66-.9-1.92-1.48-4-2.68-5.76-1.61-1.95-4.36-1.93-6.65-2.26.03 4.33-.47 8.74.75 12.96 5.02.22 10.44.6 14.98-1.97 2.46-1.61 3.85-4.31 5.75-6.47-.52 3.46-.99 6.95-2.05 10.29-8.02.26-16.05.03-24.07.1.16-2.07.32-4.13.46-6.2-2.07-2.14-1.69-5.25-1.79-7.98.12-2.6-.51-5.68 1.67-7.64.05-2.27.03-4.55-.01-6.83-2.15-.69-4.35-1.2-6.53-1.82 9-.54 18.05-.23 27.06-.16 6.29 1.87 12.95.82 19.43 1.03-1.62-.93-3.28-1.79-4.97-2.58m140.13 3.31c.14 4.4.09 8.8.06 13.2 3.83-.07 8.55.58 11.37-2.61 1.17-2.25.92-5.02.36-7.42-2.45-4.01-7.76-3.43-11.79-3.17zM186.33 39.18c1.35.09 2.7.17 4.06.27-.37 1.12-.71 2.25-1.04 3.38 1.71.04 3.43.06 5.15.05-.08-.93-.25-2.79-.33-3.72 1.52.1 3.04.19 4.56.27-.29.31-.88.93-1.18 1.24.08 2.26.12 4.53.17 6.79 15.05.22 30.1-.04 45.15.13.02-2.75-.07-5.5-.24-8.25 1.24-.03 2.49-.08 3.74-.12-.53 1.84.1 3.32 1.65 4.34.44-.64 1.32-1.9 1.75-2.54.02 1.65.01 3.3-.03 4.95-.3-.47-.89-1.41-1.18-1.88l-2.34-.04c.09.85.27 2.56.36 3.42 2.69.71 5.01-.59 6.96-2.32-.36 1.37-.71 2.73-1.07 4.1-40.89-.2-81.79.02-122.68-.1-.44-.36-1.32-1.08-1.75-1.44 3.23-.28 6.48-.19 9.73-.16.39-2.76.45-5.54.36-8.32l3.16.12c-.12 2.71-.11 5.42-.05 8.13 15.15.08 30.3.07 45.45.01-.03-2.78-.06-5.55-.36-8.31m3.34 8.19c1.56.09 3.12.12 4.69.09v-3.87l-4.71.03c0 1.25.01 2.5.02 3.75zM3 52.45c5.05-1.05 10.22-.5 15.33-.62.07 1.46.13 2.92.2 4.38 2.22.01 4.43.03 6.65.05C32 66.42 38.64 76.71 45.61 86.78c6.42-10.14 13.03-20.16 19.26-30.42 2.13-.07 4.26-.1 6.4-.11 0 1.68.01 3.36.02 5.05 17.06.06 34.12-.06 51.18.25.32-.45.96-1.37 1.29-1.82 2.11.17 4.23.36 6.35.56 3.57 6.02 7.51 11.81 11.01 17.88-1.55.08-3.09.17-4.63.27 3.43 4.68 6.31 9.73 9.58 14.51 1.44 2.26 4.38 2.66 6.84 2.64 11.79-.09 23.59.04 35.38-.12.13-12.25.02-24.51.05-36.77-5.43.29-11.11-.48-16.27 1.57-3.39 1.45-3 6.35-6.52 7.66-.25-4.07.09-8.14.23-12.21 7.07-.01 14.14 0 21.21 0 2.61.46 4.52-2.01 7.14-1.58 8.43-.01 16.85-.42 25.28-.41.16 3.88.86 7.83-.14 11.66-2.02-2.47-2.82-6.06-5.75-7.68-4.61-1.46-9.53-1.06-14.3-1.1-.11 7.84-.06 15.69-.04 23.53 14.32-.03 28.63-.33 42.96-.32.06-7.71-.03-15.42.09-23.13 8.27.25 16.74-.71 24.8 1.61 1.28.21 2.68 1.03 2.2 2.63-.05 5.07.38 10.2-.55 15.23-2.73.56-5.45 1.16-8.15 1.82 5.34 4.83 10.98 9.31 16.45 13.99 4.21 3.99 10.28 5.41 15.95 5.16 2.5-1.3 5.35-1.39 8.02-2.14 2.2-1.08 2.03-3.93 2.17-6-.56-9.01-.13-18.05-.36-27.07-.12-1.09.01-2.66-1.29-3.07-2.66-.86-5.56-.75-8.14-1.89 7.52-1.12 15.21.35 22.7-1.22 17.17-.38 34.36.1 51.54-.14.08.45.24 1.33.32 1.78-2.6.12-5.17.56-7.65 1.35 2.56 5.32 7.31 9.12 11.53 13.09.07.75.13 1.5.18 2.26-.37.29-1.13.88-1.5 1.17 6.42 6.97 13.46 13.36 20.08 20.14 3.06 3.45 7.67 4.38 11.9 5.58-3.73 1-7.63.43-11.44.56-6.92-.12-13.86.24-20.78-.12 2.16-2.13 5.86-1.23 8.62-2.19-.35-1.51-.76-3.06-1.87-4.21-4.23-4.78-9.08-8.98-13.21-13.85-3.86 2.9-7.32 6.29-11.03 9.38-2.28 2.05-4.83 3.92-6.53 6.51-.38 3.85 5.34 2.61 7.81 3.54-.11.22-.35.66-.47.88-5.5.36-11.03.04-16.53.25-2.74-.09-5.63.55-8.2-.63 3.98-1.15 8.13-2.24 11.24-5.18 6.98-5.82 13.88-11.74 20.74-17.7-1.64-1.61-3.28-3.23-4.91-4.85 1.92-.1 3.84-.17 5.78-.25-4.48-4.74-8.96-9.57-14.26-13.41-7.92-4.26-17.1-2.83-25.72-3.03-.38.27-1.15.81-1.54 1.08-2.68.41-7.12-.02-7.75 3.45-.19 10.24-.15 20.49-.04 30.73.11 4.28 5.31 3.63 8.24 3.95.09.94.19 1.89.28 2.84-15.62-.05-31.24-.05-46.86-.07-8.33-5.89-15.29-13.45-23.27-19.78-1.59-.49-3.31-.2-4.95-.32.08 4.85-.24 9.72.13 14.57 1.17 3.11 5.06 2.41 7.66 2.81l-.03 1.37c-3.74-.08-7.48-.06-11.21.06-.1-5.31-.13-10.61-.08-15.92-14.37-.08-28.73.03-43.09.07-.06 3.24-.03 6.49.19 9.72 2.78 1.57 6.06 1.65 8.95 2.93-5.03.68-10.11.22-15.16.37.01 1.94.03 3.89.05 5.83-4.89-.52-10.27 1.22-14.84-.83 3.06-.68 6.23-.84 9.21-1.88-11.13-1.33-22.44-.05-33.63-.67-8.43-.56-16.92.37-25.31-.56 2.38-.84 4.89-1.26 7.3-2-1-3.99-3.49-7.32-5.65-10.73-7.72.1-15.44-.02-23.15.08-1.76 3.44-4.21 6.6-4.96 10.46 2.38.79 4.85 1.32 7.18 2.25-6.38.37-12.95.76-19.26-.34 2.84-.7 5.94-1.52 7.52-4.25 6.39-9.6 12.13-19.62 18.32-29.36-14.82-.16-29.65.01-44.47-.13 0 11.39-.03 22.79-.12 34.18-4.81-.08-9.66.47-14.42-.4 2.49-.77 5.11-.99 7.58-1.82 1.64-1.22 1.14-3.52 1.34-5.29-.01-8.89.14-17.79-.1-26.68-7.63 11.59-15.11 23.3-22.82 34.85-8.31-10.7-14.92-22.63-23.01-33.51-.03 6.81-.13 13.62-.04 20.42-.35.34-1.04 1.02-1.38 1.36.05 5.76-.06 11.51-.05 17.27-4.31-.05-8.63-.2-12.93.22h-.61l-1.88-1.26c3.43-1.25 9.29-.16 10.31-4.82.51-12.89 0-25.83.17-38.74-2.27-.37-4.55-.66-6.79-1.14 1.81-.68 3.72-.98 5.59-1.46-2.48-2.33-6.2-1.75-9.29-2.52v-.61m243.4 7.2l-.49.15c-.32 5.18-.1 10.38-.13 15.57.15.21.45.65.59.87 5.63-.12 11.8-.07 16.75-3.11 4-2.33 4.2-8.78.28-11.26-5.02-3.11-11.35-3.1-17-2.22M108.93 80.79c6.62.75 13.29.19 19.93.39-2.99-5.59-6.46-10.96-9.92-16.25-3.72 5.01-6.52 10.67-10.01 15.86z" opacity=".98"/><path d="M379.58 57.16c1.04-.63 2.18-1.04 3.42-.88 6.67.12 13.33.18 20 .16v.91c-3.56.67-7.37 1.03-10.38 3.27-5.45 3.91-10.14 8.79-15.51 12.8-1.74.41-3.38-.39-4.95-1.01 3.48-1.76 6.2-4.59 9.22-6.99 2.21-1.95 4.88-3.71 5.73-6.71-2.49-.62-5.03-1.01-7.53-1.55z" opacity=".98"/></g></svg>