<?xml version="1.0" encoding="utf-8"?>
<!-- Generator: Adobe Illustrator 22.1.0, SVG Export Plug-In . SVG Version: 6.00 Build 0)  -->
<svg version="1.1" id="Layer_1" xmlns="http://www.w3.org/2000/svg" xmlns:xlink="http://www.w3.org/1999/xlink" x="0px" y="0px"
	 viewBox="0 0 288 287" style="enable-background:new 0 0 288 287;" xml:space="preserve">
<style type="text/css">
	.st0{fill:none;stroke:#867767;stroke-width:1.7193;stroke-linecap:round;stroke-linejoin:round;}
	.st1{fill:#FFFFFF;}
	.st2{fill:#867767;}
</style>
<path class="st0" d="M277.3,224.1h-0.8l0.1-18.3l-1-0.7l0-12.9l-0.7-0.5l0-1.1l-4.5-4.9l-0.2-9.4l-0.8-1.3l0-2.1h0l0,2.1l-1,1.3
	l0,9.4l-4.7,4.9l0,1.1l-0.7,0.5l0,24.9l-4.7-0.3l0-13l-7,0l9.4-34.2h6.6v-25.8c0,0-7,0-8.2,0c-0.1,0-0.3,0-0.6,0
	c0.3-0.2,0.7-0.4,1-0.7c3.8-2.6,4.6-6,4.6-8.3V88.5h-19.8v-5.1h-25.2c0,0,0,0.8,0,1.8h-29.6c-2.9,0-5.6,0.9-8,2.6
	c-0.7,0.5-1.4,1.1-1.9,1.8c-0.6-0.6-1.2-1.2-2-1.8c-2.3-1.7-5-2.6-7.9-2.6h-19.9c-2.9,0-5.6,0.9-8,2.6c-0.7,0.5-1.3,1.1-1.9,1.7
	c-0.5-0.5-1.1-1.1-1.8-1.6l-0.9-0.6c0,0-1.2-0.7-1.2-0.7c-1.4-0.7-3-1.1-4.5-1.3l-1.3-0.1h-7.2v-7.1h59V76c2.3,1.5,4.8,2.2,7.3,2.2
	h32.6V4.8h-25.3c0,0,0,9.1,0,12.9c-3.5,0-7.3,0-7.3,0c-2.9,0-5.6,0.9-8,2.6c-0.8,0.5-1.4,1.1-2,1.8c-0.6-0.6-1.2-1.2-1.9-1.7
	c-2.3-1.7-5-2.6-7.9-2.6c-2.7,0-5,0.3-7.2,0.8c0-0.2,0-0.8,0-0.8h-25.2v2.1c-2.1-1.4-4.6-2.1-7.2-2.1h-19.8c-2.9,0-5.6,0.9-8,2.6
	c-0.7,0.5-1.4,1.1-1.9,1.7c-0.6-0.6-1.2-1.2-2-1.8c-2.3-1.7-5-2.5-7.9-2.5H30c-2.9,0-5.6,0.8-7.9,2.5c-2.9,2.1-4.6,5.1-4.6,8.4v38.6
	c0,1.4,0.3,3.2,1.4,5c-0.6,0-1.4,0-1.4,0v22.1h32.7c0.5,0,1-0.1,1.4-0.1v16.4c0,0,5.6,0,6.1,0v24.3c0,2.3,0.8,5.6,4.7,8.4
	c0,0,0.7,0.5,1.2,0.7h0.1l0,0.1l-35.1,0c-2.9,0-5.6,0.9-8,2.6c-2.9,2.1-4.6,5.1-4.6,8.5l0.1,53.8h-0.6v0l-1.3,0l-0.2,0
	c0,0-2.6-2-1.5-6.2l0.5,0l-1.2-3.8c0,0,1.8-1.3,0.7-3.8c0,0-2.4-2.7-4.1-3.4c0,0,2.9-0.7,2.4-2.1l-0.5-0.6l-0.5-0.7L9,188.5
	l-0.4-1.1l-0.4,0.6l-0.8-1l-0.2,0.6l-0.7,0l-0.9-1.6l0.1-1.1c0.4-0.3,0.1-0.7,0.1-0.7C5.6,184,5.1,184,5.1,184c-1,0-0.9,0.3-0.9,0.3
	l0.1,2.4l0.5,0.2l0.6,0.4c0,0,0.2,3,0.8,3.1c0,0-0.5,2.1,0.1,2.4c0,0-1.3,4.9,0.2,6.6c0,0-0.3,2.9,0.5,3.4l0.8,3.7
	c0,0,0.1,1.1-0.2,2c-0.2,0.5-0.5,1.2-1.4,1.1v0.9h0l0,3.9l-3.4,0l0,1.4l1.8,0v1.9l-2.1,0.4l0,0.4l0,0l-0.8-0.2l0,8.8H1v49.6h57.6
	c1.6,0.5,3.2,0.8,5,0.8c5.1,0,9.6-1.9,12.8-5.3c3.7,3.4,8.9,5.3,14.8,5.3c3,0,5.8-0.5,8.4-1.5v0.7H121v-19.7c0,0,0,0,0-0.1
	c0.1,0,0.2,0,0.3,0c0.5,0,0.9,0.1,1.7,0.3l0.3,0.1v3.8c0,10.9,4.9,15.1,15.8,15.1c0.6,0,1.2,0,1.7,0v9.6h10.5c5,0,13.3,0,17.2-10.8
	l8.8-24.2c0,0.4,0,0.7,0,1.1c0,14.9,10.4,25.6,24.8,25.6c4.3,0,8.4-1,11.8-2.8v2h21.5v-1.3c2.3,1.1,5.2,1.6,8.8,1.6
	c0.6,0,1.2,0,1.7-0.1v8.8h10.5c5,0,13.3,0,17.2-10.8l12.8-35.4h0.1v-0.4l0-15.4L277.3,224.1z M223.6,143.3L223.6,143.3
	c0.4,0.2,0.6,0.4,0.9,0.6c-3.8,0-6.3,0-6.3,0v0H202c0-4.6,0-15.9,0-20.5h16.9c0,6,0,11.5,0,11.5
	C218.9,137.1,219.7,140.5,223.6,143.3z"/>
<path d="M270.4,143.9h-1v-0.3h2.3v0.3h-1v2.6h-0.4V143.9L270.4,143.9z"/>
<path d="M272.1,143.6h0.5l0.9,2.4l0.9-2.4h0.5v2.9h-0.4v-2.4h0l-0.9,2.4h-0.3l-0.9-2.4v2.4h-0.4V143.6L272.1,143.6z"/>
<path d="M248,214.9l12.4-45.3h6.6v-25.9c0,0-7.1,0-8.2,0c-0.1,0-0.3,0-0.6,0c0.3-0.2,0.7-0.4,1-0.7c3.8-2.6,4.6-6,4.6-8.3V88.5
	h-19.8v-5.1h-25.2c0,0,0,0.8,0,1.8h-29.6c-2.9,0-5.6,0.9-8,2.6c-0.7,0.5-1.4,1.1-1.9,1.8c-0.6-0.6-1.2-1.2-2-1.8
	c-2.3-1.7-5-2.6-7.9-2.6h-19.9c-2.9,0-5.6,0.9-8,2.6c-0.7,0.5-1.3,1.1-1.9,1.7c-0.5-0.5-1.1-1.1-1.9-1.6l-0.9-0.6
	c0,0-1.2-0.7-1.2-0.7c-1.4-0.7-3-1.1-4.5-1.3l-1.3-0.1h-7.2v-7.1h59V76c2.3,1.5,4.8,2.2,7.3,2.2h32.6V4.8h-25.3c0,0,0,9.1,0,12.9
	c-3.5,0-7.3,0-7.3,0c-2.9,0-5.6,0.9-8,2.6c-0.8,0.5-1.4,1.1-2,1.8c-0.6-0.6-1.2-1.2-2-1.7c-2.3-1.7-5-2.6-7.9-2.6
	c-2.7,0-5,0.3-7.2,0.8c0-0.2,0-0.8,0-0.8h-25.2v2.1c-2.1-1.4-4.6-2.1-7.2-2.1h-19.8c-2.9,0-5.6,0.9-8,2.6c-0.7,0.5-1.4,1.1-1.9,1.7
	c-0.6-0.6-1.2-1.2-2-1.8c-2.3-1.7-5-2.5-7.9-2.5H30c-2.9,0-5.6,0.8-7.9,2.5c-2.9,2.1-4.6,5.1-4.6,8.4v38.6c0,1.4,0.3,3.2,1.4,5
	c-0.6,0-1.4,0-1.4,0v22.1h32.7c0.5,0,1-0.1,1.4-0.1v16.4c0,0,5.6,0,6.1,0v24.3c0,2.3,0.8,5.6,4.7,8.4c0,0,0.7,0.5,1.2,0.7h0.1l0,0.1
	l-35.1,0c-2.9,0-5.6,0.9-8,2.6c-2.9,2.1-4.6,5.1-4.6,8.5l0.1,60.3L248,214.9z M218.3,143.9H202c0-4.6,0-15.9,0-20.5h16.9
	c0,6,0,11.5,0,11.5c0,2.3,0.8,5.6,4.7,8.4l0.1,0.1c0.3,0.2,0.6,0.4,0.8,0.5C220.8,143.8,218.3,143.8,218.3,143.9z"/>
<path class="st1" d="M259.3,106V93.2h-19.8v-5.1h-15.9v5.1h-4V106h4v28.9c0,1.8,1,3.3,2.8,4.6c0.1,0,0.1,0.1,0.1,0.1
	c0.1,0,0.1,0.1,0.2,0.1c0.3,0.2,0.5,0.3,0.5,0.3c0,0,0,0,0,0c1.4,0.8,2.7,1.2,4.3,1.2h19.9c1.8,0,3.4-0.6,5.1-1.7
	c0,0,0.1-0.1,0.1-0.1c0,0,0,0,0,0c0,0,0,0,0.1,0c1.5-1.1,2.6-2.5,2.5-4.5v-25.7h-15.8v19.3h-3.9V106L259.3,106L259.3,106z"/>
<path class="st1" d="M22.3,89.7l28,0v0c1.8,0,3.5-0.6,5.1-1.7c0.1-0.1,0.2-0.2,0.3-0.2l0,0c0,0,0.7-0.4,1.4-1.4
	c0.1-0.1,0.1-0.2,0.2-0.3c0,0,0-0.1,0.1-0.1c0.1-0.1,0.2-0.3,0.2-0.4c0,0,0,0,0-0.1c0.2-0.3,0.3-0.6,0.4-0.9c0-0.1,0-0.2,0-0.3
	c0,0,0-0.1,0-0.1c0.1-0.3,0.1-0.6,0.1-0.9V83v-4.6V58.9V22.8v-0.5c-0.3,0.3-0.6,0.6-0.8,0.8l0.8-0.8h-28c-1.6,0-3.2,0.4-4.6,1.3
	c0,0-0.2,0.1-0.4,0.3C25.1,24,25,24,25,24c0,0-0.1,0-0.1,0.1c-0.2,0.2-0.4,0.3-0.5,0.4l0,0c-1.4,1.2-2.1,2.7-2.1,4.3v38.6
	c0,1.8,0.9,3.3,2.6,4.5c0,0,0,0,0.1,0.1c0.1,0.1,0.1,0.1,0.2,0.1c0.2,0.2,0.7,0.4,0.9,0.6c1.4,0.7,2.7,1.1,4.1,1.1h11.9v3.3H22.2
	L22.3,89.7l0.9-0.9L22.3,89.7z M42.1,60.9h-3.9V35.2h3.9V60.9z M56.5,24l0.4-0.4C56.7,23.7,56.6,23.9,56.5,24z"/>
<path class="st1" d="M184.9,91.1c0,0-0.6,0.4-0.9,0.6l0,0c-1.8,1.3-2.6,2.9-2.6,4.7v44.9h16v-22.5h19.9v-12.9h-19.9v-3.1h19.9V89.9
	h-28C187.8,89.9,186.3,90.3,184.9,91.1z"/>
<path class="st1" d="M137.9,195.9c0.4-0.7,0.6-1.5,0.6-2.3v-25.7h-15.8v19.3h-3.9v-22.4h19.8V152h-19.8v-5.1h-15.9v5.1h-3.9l0.3,0.2
	l-0.3-0.2v12.8l0,0h3.9l-0.1,28.8c0,1.5,0.7,2.8,1.9,4h0c0.2,0.2,0.5,0.4,0.7,0.6c0,0,0.1,0.1,0.1,0.1c0,0,0,0,0.1,0.1
	c0.3,0.2,0.5,0.4,0.5,0.4c0,0,0,0,0,0c1.5,0.9,3.1,1.4,4.7,1.4h19.8c1.8,0,3.6-0.7,5.3-1.9c0,0,0.1-0.1,0.2-0.2
	c0.7-0.6,1.3-1.2,1.7-1.9C137.9,196.1,137.9,196,137.9,195.9C137.9,196,137.9,196,137.9,195.9z M100.6,163L100.6,163
	C100.6,163.1,100.6,163.1,100.6,163l-1.4,1.4L100.6,163z"/>
<path class="st1" d="M143.5,138.9C143.6,138.9,143.6,138.9,143.5,138.9C143.6,138.9,143.6,138.9,143.5,138.9
	c0.3,0.2,0.5,0.4,0.7,0.5c0,0,0,0,0,0c0,0,0,0,0,0c0.3,0.2,0.5,0.3,0.5,0.3l0,0c1.6,1,3.1,1.5,4.8,1.5h0l0,0h19.9
	c1.8,0,3.4-0.6,5-1.6l0,0c0,0,0.2-0.2,0.3-0.2c1.7-1.2,2.6-2.7,2.6-4.6v-9.6h-15.9v3.2h-3.9V122h19.8V96.4c0-1.3-0.5-2.6-1.4-3.6
	c-0.3-0.3-0.6-0.6-1-0.9l0,0c-0.1-0.1-0.2-0.1-0.2-0.2c-1.6-1.2-3.4-1.7-5.2-1.7h-19.9c-1.4,0-2.8,0.3-4.1,1l0,0
	c0,0-0.3,0.2-0.7,0.4c-0.1,0-0.1,0.1-0.1,0.1c-0.1,0.1-0.2,0.1-0.2,0.2c0,0-0.1,0.1-0.1,0.1c-0.1,0.1-0.3,0.2-0.5,0.4h0
	c-1.4,1.2-2.1,2.7-2.1,4.3v38.5C141.6,136.4,142.3,137.7,143.5,138.9z M161.4,109.1h-3.9v-6.4h3.9V109.1z"/>
<path class="st1" d="M183.2,71.4L183.2,71.4c0.8,0.6,1.1,0.8,1.2,0.8c1.5,0.9,3.1,1.4,4.7,1.4h0H217V9.5h-16v12.9H189h0
	c-1.6,0-3.2,0.4-4.6,1.3v0c0,0-0.2,0.2-0.5,0.4c0,0-0.1,0-0.1,0.1c0,0,0,0,0,0c0,0,0,0-0.1,0c-0.3,0.2-0.6,0.4-0.7,0.5v0
	c-1.3,1.2-2,2.6-2,4.2v38.4C181.1,68.8,181.8,70.2,183.2,71.4z M200.8,61h-3.9V35.2h3.9V61z M184.3,25.2l0.2,0.4
	c0,0-0.1,0.1-0.1,0.1L184.3,25.2L184.3,25.2z"/>
<path class="st1" d="M103.8,71.3L103.8,71.3c0.1,0.1,0.1,0.1,0.2,0.2c0.2,0.2,0.3,0.3,0.3,0.3c0,0,0.1,0.1,0.1,0.1
	c0,0,0.1,0.1,0.1,0.1c0.2,0.1,0.3,0.2,0.3,0.2c0,0,0,0,0,0c1.6,1,3.2,1.5,4.9,1.5h27.8V28.9c0-0.2,0-0.4,0-0.7c0-0.1,0-0.1,0-0.2
	c0-0.1-0.1-0.3-0.1-0.4c0-0.1,0-0.2-0.1-0.3c0-0.1-0.1-0.2-0.1-0.4c0-0.1-0.1-0.2-0.1-0.3c-0.1-0.1-0.1-0.2-0.2-0.3
	c0-0.1-0.1-0.2-0.2-0.3c-0.1-0.1-0.1-0.2-0.2-0.3c-0.1-0.1-0.1-0.2-0.2-0.3c-0.1-0.1-0.2-0.2-0.2-0.3c-0.1-0.1-0.2-0.2-0.2-0.3
	c0,0,0-0.1-0.1-0.1l0,0c-0.5-0.5-0.9-0.8-0.9-0.8c0,0,0,0-0.1,0c-0.1-0.1-0.3-0.2-0.4-0.3c-1.6-1.1-3.3-1.5-4.8-1.5h-19.9
	c-1.6,0-3.1,0.4-4.5,1.3l0,0c-0.2,0.1-0.5,0.3-0.7,0.5c-0.1,0-0.1,0.1-0.2,0.1c0,0,0,0,0,0c-0.2,0.1-0.4,0.3-0.4,0.4
	c-1.4,1.2-2.1,2.6-2.1,4.2v9.5h15.9v-3.1h3.9v6.4h-11.9c-1.6,0-3.1,0.5-4.6,1.4l-0.2,0.2c-0.1,0.1-0.2,0.2-0.3,0.2c0,0,0,0,0,0
	c-1.8,1.3-2.8,2.8-2.8,4.5v19.3C101.9,69.2,103.1,70.6,103.8,71.3z M121.6,60.9h-3.9v-6.5h3.9V60.9z"/>
<path class="st1" d="M98.1,109.2H82.3v19.3h-4v-22.6h19.8V93.2h-20v-9.7l0,0H62.2l0,0v9.7h-5.9v12.7h6.1v28.9c0,1.6,0.8,2.9,2.2,4.1
	h0c0.2,0.2,0.4,0.3,0.6,0.5c0,0,0,0,0,0c0,0,0,0,0,0c0.3,0.2,0.5,0.3,0.5,0.3c1.5,0.9,3,1.4,4.6,1.4h19.9c1.8,0,3.6-0.6,5.3-1.8
	c0,0,0,0,0.1,0c1.7-1.2,2.5-2.7,2.5-4.5L98.1,109.2L98.1,109.2z M64,85.1L64,85.1L64,85.1l-1.5-1.4L64,85.1z"/>
<path class="st1" d="M96.2,148.8H80.3v38.4h-3.8v-38.5H60.5v44.8c0,1.6,0.7,3,2.1,4.2l0,0c0.2,0.1,0.3,0.3,0.5,0.4c0,0,0,0,0,0
	c0,0,0.1,0.1,0.1,0.1c0.4,0.3,0.6,0.4,0.6,0.4c0,0,0,0,0,0c1.5,0.9,3,1.3,4.5,1.3h19.8c1.8,0,3.4-0.6,5.1-1.7l0,0
	c2.1-1.4,2.8-2.9,2.8-4.7h0L96.2,148.8L96.2,148.8z"/>
<path class="st1" d="M53.9,150.5C53.9,150.4,53.9,150.4,53.9,150.5C53.8,150.4,53.8,150.4,53.9,150.5c-0.1-0.1-0.1-0.1-0.2-0.1
	l-0.1,0.1l0-0.1c-1.6-1.1-3.3-1.6-5-1.6H28.8c-1.5,0-3,0.4-4.4,1.2c0,0,0,0,0,0s-0.1,0-0.2,0.1c-0.2,0.1-0.4,0.3-0.6,0.4
	c0,0-0.1,0.1-0.1,0.1c-0.1,0-0.1,0.1-0.2,0.1c-0.1,0.1-0.2,0.1-0.3,0.2c-1.5,1.2-2.2,2.7-2.2,4.3v9.5h15.9v-3.1h3.9v6.4H28.8
	c-1.5,0-2.9,0.4-4.3,1.3c0,0,0,0,0,0s-0.8,0.5-1.1,0.8c-1.7,1.3-2.5,2.7-2.5,4.3v19.3c0,1.8,0.8,3.2,2.4,4.4l0,0
	c0.4,0.3,0.7,0.5,0.9,0.6c0.2,0.1,0.3,0.2,0.3,0.2c1.4,0.8,2.8,1.2,4.3,1.2h27.8v-44.7C56.6,153.4,55.7,151.8,53.9,150.5z
	 M36.8,187.2v-6.4h3.9v6.5L36.8,187.2L36.8,187.2z"/>
<path class="st1" d="M178.1,154.9c-0.1-1.6-0.8-3-2.5-4.2c-0.1-0.1-0.2-0.1-0.2-0.2c-1.6-1.2-3.4-1.7-5.2-1.7h-19.9
	c-1.5,0-3,0.4-4.4,1.2h0c0,0-0.1,0.1-0.1,0.1c-0.1,0-0.1,0.1-0.2,0.1c-0.4,0.3-0.5,0.3-1,0.7l0,0c-1.5,1.2-2.2,2.7-2.2,4.3v38.3
	c0,1.2,0.4,2.2,1.1,3.2v0c0,0,0.1,0.1,0.1,0.1c0.1,0.1,0.1,0.1,0.2,0.2c0.1,0.1,0.1,0.2,0.2,0.2c0.1,0.1,0.2,0.2,0.3,0.3
	c0.1,0.1,0.3,0.2,0.4,0.3c0,0,0,0,0,0c0,0,0,0,0,0c0.1,0.1,0.2,0.1,0.3,0.2c1.7,1.2,3.5,1.8,5.3,1.8h19.9c1.8,0,3.5-0.6,5.2-1.7
	c0,0,0,0,0,0l0,0c0,0,0.3-0.2,0.3-0.2c1.7-1.2,2.4-2.6,2.4-4.4v-38.3v-0.1L178.1,154.9L178.1,154.9L178.1,154.9z M162.1,187.2h-3.9
	v-25.6h3.9V187.2z"/>
<path class="st1" d="M157.3,35.2h3.9v38.4h15.9V28.9c0-1.8-0.7-3.3-2.5-4.6c0,0,0,0,0,0c-2.7-2.1-5.4-1.8-5.4-1.8
	c-5.3,0-9.3,1.1-11.8,3.2v-3.2h-15.9v51.2h15.9L157.3,35.2L157.3,35.2z"/>
<path class="st1" d="M78.1,54.4H82v28.8c0,1.5,0.7,2.8,2,4l0,0c0.5,0.5,1.2,0.9,1.4,1c0.1,0,0.1,0,0.2,0.1c0.2,0.1,1.9,1.1,3.9,1.2
	c0.2,0,0.4,0,0.6,0h10.4h1.8v51.6h15.9v-38.4h3.8v38.4h15.9V96.5c0-1.4-0.5-2.6-1.5-3.7c-0.3-0.3-0.6-0.6-0.9-0.8
	c-0.1,0-0.1-0.1-0.2-0.2c0,0,0,0,0,0c-0.2-0.2-0.6-0.4-0.8-0.6c-0.2-0.1-0.5-0.3-0.8-0.4c-0.9-0.4-1.9-0.7-2.9-0.8
	c-0.3,0-0.6,0-0.8,0h-11.9V76.9H97.9V51.2c0,0,0.1-2.7-2.1-3.8c0,0,0,0,0,0c0.1,0,0.3-0.1,0.4-0.2c0,0,0,0,0,0
	c0.1-0.1,0.2-0.1,0.3-0.2c0,0,0.1,0,0.1-0.1c0.1-0.1,0.2-0.1,0.3-0.2c0,0,0,0,0,0c0.1-0.1,0.2-0.2,0.3-0.3c0,0,0-0.1,0.1-0.1
	c0.1-0.1,0.1-0.2,0.2-0.3c0,0,0-0.1,0-0.1c0.1-0.1,0.1-0.2,0.2-0.3c0,0,0-0.1,0-0.1c0-0.1,0.1-0.2,0.1-0.3c0,0,0-0.1,0-0.1
	c0-0.1,0-0.3,0-0.4v-16c0-1.5-0.5-2.7-1.6-3.8c-0.1-0.1-0.5-0.5-0.9-0.8l0,0c0,0,0,0,0,0l0,0.1h0l0.1-0.1c-0.1-0.1-0.1-0.1-0.2-0.2
	c-1.6-1.2-3.4-1.7-5.2-1.7H62.2v57.1h15.9L78.1,54.4L78.1,54.4z M82,41.6h-3.9v-6.4H82V41.6z"/>
<path class="st1" d="M238.1,148.9v15.3c0,0,2.4,0,2.6,0c-1,3.4-3.5,12.1-4.3,14.8c-0.8-2.7-3.3-11.4-4.3-14.8c0.2,0,2.6,0,2.6,0
	v-15.3h-23.1v15.3c0,0,3.5,0,4.8,0c0.8,2.7,10.4,36,10.4,36H246c0,0,9.6-33.3,10.4-36c1.3,0,4.8,0,4.8,0v-15.3L238.1,148.9
	L238.1,148.9z M259.1,162.2h-4.3l-10.4,36h-16.1l-10.4-36h-4.3v-11.3l0,0l19.1,0v11.3h-3.3l5.6,19.4v0.2h2.6v-0.2l5.6-19.3h-3.3
	v-11.3l19.1,0L259.1,162.2L259.1,162.2z"/>
<path class="st1" d="M204.9,184.4v-20.2h4.8l0,0v-15.3l0,0h-25.3l0,0v15.3l1-1l-1,1h4.8v0v20.1h-4.8v15.9h25.3l0-15.9H204.9z
	 M186.5,198.3l0-11.9h0.1h4.7l0.1-24.2l-1.7,1.7l1.7-1.7h-4.8l0,0l0.1-11.3v0l21.2,0l0,11.3l0,0h-4.8l0,0v24.2h4.8l0,11.9
	L186.5,198.3L186.5,198.3z"/>
<path d="M277.3,224.1h-0.8l0.1-18.3l-1-0.7l0-12.9l-0.7-0.5l0-1.1l-4.5-4.9l-0.2-9.4l-0.8-1.3l0-2.1h0l0,2.1l-1,1.3l0,9.4l-4.7,4.9
	l0,1.1l-0.7,0.5l0,24.9l-4.7-0.3l0-13l-14.8,0.1l0,2.8l-3.9,0.7l0,1.2l-13.5,0.1l-0.1-2.5l-2.3,0l0-6.9l-1.9-1.9l-4.1,0l-1.3,1.2
	l-2.2,0l0,9.7h-0.5l0-1.5l-1.7-4.4l-1.8,5.2l0,2.7l-6.2,0l-0.1-5.2l-3.2-2.3l-8.7-0.1l-13,0l0-4.1l-0.3,0.7l-0.8,0l-0.6-1.8
	l-0.8,2.3l0,2.5l-0.9-0.1l-2.8,0.4v-7.6h-7.5v8.6l-0.6,0.1l-4,0l0,3l-1.1,0v-9.5h-2.9v3.2h-0.6l-0.1-4.9h-0.2v-4.7v-6.2l0-0.8l0-0.8
	l0.1-0.1l0.1-0.2c0.1,0,0.2-0.1,0.3-0.1c0.1-0.1,0.1-0.1,0.1-0.1l0.1,0l0.1,0v-0.1v-0.1h-0.1h-0.1l-0.1,0l-0.1,0H156h-0.1l-0.1,0.1
	l-0.1,0.1l-0.1,0l-0.1,0l0,0l0,0l-0.4,0l-0.4-0.1l-0.1-2.2l-0.1-2.3c0-0.6-0.1-0.9-0.1-1.1c-0.1-0.2-0.1-0.2-0.1-0.2l-0.2-0.1
	l-0.2-0.1l0-0.1l0-0.2c0-0.5-0.1-0.9-0.2-1.2c-0.1-0.3-0.2-0.5-0.2-0.5c0-0.7-0.1-1.1-0.2-1.4c-0.1-0.2-0.2-0.3-0.2-0.3l0-0.3l0-0.3
	c0-0.5-0.1-0.8-0.3-1.1c-0.1-0.2-0.3-0.4-0.3-0.4c0-0.7-0.2-1.2-0.4-1.5c-0.2-0.3-0.4-0.4-0.4-0.4c0.1-0.4-0.1-0.8-0.2-1.1
	c-0.1-0.3-0.3-0.5-0.3-0.5c0-0.5-0.1-1-0.2-1.3c-0.1-0.3-0.2-0.5-0.2-0.5l0-0.2l0-0.2l-0.1-0.8l-0.1-0.8l-0.1-0.2l0-0.2l-0.1-1.4
	l0-1.4l-0.1,0h0h0l-0.1,0l0,1.4l-0.1,1.4l0,0.2l-0.1,0.2l-0.1,0.8l-0.1,0.8l0,0.2l0,0.2c0,0-0.1,0.2-0.2,0.5
	c-0.1,0.3-0.2,0.7-0.2,1.3c0,0-0.1,0.2-0.3,0.5c-0.1,0.3-0.3,0.7-0.2,1.1c0,0-0.2,0.1-0.4,0.4c-0.2,0.3-0.4,0.8-0.4,1.5
	c0,0-0.2,0.1-0.3,0.4c-0.2,0.2-0.3,0.6-0.3,1.1l0,0.3l0,0.3c0,0-0.1,0.1-0.2,0.3c-0.1,0.2-0.2,0.7-0.2,1.4c0,0-0.1,0.2-0.2,0.5
	c-0.1,0.3-0.2,0.7-0.2,1.2l0,0.2l0,0.1l-0.2,0.1l-0.2,0.1c0,0-0.1,0-0.1,0.2c-0.1,0.2-0.1,0.5-0.1,1.1l-0.1,2.3l-0.1,2.2l-0.4,0.1
	l-0.4,0l0,0l0,0l-0.1,0l-0.1,0l-0.1-0.1l-0.1-0.1h-0.1h-0.1l-0.1,0l-0.1,0h-0.1H144v0.1v0.1l0.1,0l0.1,0c0,0,0,0.1,0.1,0.1
	c0.1,0.1,0.1,0.1,0.3,0.1l0.1,0.2l0.1,0.1l0,0.8l0,0.8v6.2v4.7h-0.4l-0.1,4.9h-0.6v4.5l-6.1,0l0-11.4l-5.6,0l-1.6,1.7l0,2.9l-6.5,0
	l-0.9,4.1l-0.9,0v0l-5,0l0,3.7h-1l0-8.5l-2.8,0v0.5h-1.4v-1h-4.4v8.9h-0.2l0-5.3l-1.3-1.3l-7.4,0l0,6.1l-7.1,0l0-2l0.3-15.7
	l-13.8,1.4l0,16.4l-2.3,0l0-8.9l-5-0.1l-0.1,6.9l-4.9,0l0,2.3h-0.1v-0.2h0v-13h-3.2V206h-2.4l-4.2-0.5l-0.2-12.3l-4.3-0.1v7.5h-0.3
	v1.5l-0.3,0l0,3.9h-0.4v-5.2h-0.5v-0.2h-2v0.2H47v5.2h-1.2l-0.1-12.8l-1.4-1.4l-7.3,0l0,3.2l-3.7,0l-2.9,3.3l0,5H16.9v5.7h-1.3v0
	l-1.3,0l-0.2,0c0,0-2.5-2-1.5-6.1l0.5,0l-1.2-3.8c0,0,1.8-1.3,0.7-3.8c0,0-2.4-2.7-4.1-3.4c0,0,2.9-0.7,2.4-2.1l-0.5-0.6l-0.5-0.7
	l-0.9-0.1l-0.5-1.1l-0.4,0.6l-0.9-1l-0.2,0.6l-0.7,0l-0.9-1.6l0.1-1.1c0.4-0.3,0.1-0.7,0.1-0.7C5.7,184,5.1,184,5.1,184
	c-1,0-0.9,0.3-0.9,0.3l0.1,2.4l0.5,0.2l0.6,0.4c0,0,0.2,3,0.8,3.1c0,0-0.5,2.1,0.1,2.4c0,0-1.3,4.9,0.2,6.6c0,0-0.3,2.9,0.6,3.4
	l0.8,3.7c0,0,0.1,1.1-0.2,2c-0.2,0.5-0.6,1.2-1.4,1.1v0.9h0l0,3.9l-3.4,0l0,1.4l1.8,0v1.9l-2.1,0.4l0,0.4l-0.1,0l-0.8-0.2l0,8.8H1.1
	v49.5h57.6c1.6,0.5,3.2,0.8,5,0.8c5.1,0,9.6-1.9,12.8-5.3c3.7,3.4,8.9,5.3,14.8,5.3c3,0,5.8-0.5,8.4-1.5v0.7h21.4v-19.7
	c0,0,0,0,0-0.1c0.1,0,0.2,0,0.3,0c0.5,0,0.9,0.1,1.7,0.3l0.3,0.1v3.8c0,10.9,4.9,15.1,15.8,15.1c0.6,0,1.2,0,1.7-0.1v9.6h10.5
	c5,0,13.3,0,17.2-10.8l8.8-24.2c0,0.4,0,0.7,0,1.1c0,14.9,10.4,25.6,24.8,25.6c4.3,0,8.4-1,11.8-2.8v2h21.5v-1.3
	c2.3,1.1,5.2,1.6,8.8,1.6c0.6,0,1.2,0,1.7,0v8.8h10.5c5,0,13.3,0,17.2-10.8l12.8-35.4h0.2v-0.4l0-15.4L277.3,224.1z"/>
<path class="st2" d="M49,225.1c-1.6,1.3-3.3,2-5.4,2c-3.4,0-6.3-2.3-6.3-5.8c0-2.7,2-4.4,4.3-5.5c-0.9-1-1.7-2.2-1.7-3.6
	c0-2.9,2.7-4.8,5.4-4.8c2.8,0,5.3,1.9,5.3,4.9c0,2.2-1.3,3.7-3.2,4.7l2,2.4c0.4-0.6,0.6-1.2,0.7-1.9h3.9c-0.2,1.7-0.9,3.4-2.1,4.6
	l4,4.6h-5.5L49,225.1z M43.8,218.8c-0.9,0.4-2.2,1.4-2.2,2.5c0,1.3,1.3,2.2,2.5,2.2c0.9,0,1.8-0.7,2.5-1.4L43.8,218.8z M46.9,212.1
	c0-0.9-0.7-1.5-1.6-1.5c-0.8,0-1.5,0.6-1.5,1.4c0,1,0.8,1.6,1.3,2.4C46.1,213.8,46.9,213.2,46.9,212.1z"/>
<path class="st2" d="M63.4,207h14.9v4.1h-10v3.4h9.2v4h-9.2v3.7h10.3v4.4H63.4V207z"/>
<path class="st2" d="M84.2,219.4c0,2.5,0.7,4.1,2.7,4.1c2,0,2.7-2.2,2.7-4.1c0-1.8-0.7-3.8-2.7-3.8
	C85.8,215.6,84.2,216.4,84.2,219.4z M79.9,212.4h4.3v1.7h0c0.9-1.3,2.2-2.1,3.8-2.1c4.3,0,6.1,3.9,6.1,7.9c0,3.7-1.9,7.2-5.8,7.2
	c-1.7,0-3-0.7-3.9-2h-0.1v6.3h-4.5V212.4z"/>
<path class="st2" d="M94.7,212.4h4.5v14.3h-4.5V212.4L94.7,212.4z M99.1,210.6h-4.5V207h4.5V210.6z"/>
<path class="st2" d="M103.8,222c0,0.7,0.3,1.2,0.7,1.6c0.4,0.3,1,0.5,1.7,0.5c0.9,0,2.1-0.4,2.1-1.5c0-1.1-1.4-1.3-2.2-1.5
	c-2.8-0.8-6.3-0.8-6.3-4.7c0-3.4,3.5-4.4,6.2-4.4c3,0,6.1,0.9,6.3,4.6h-4.1c0-0.6-0.2-1-0.6-1.2c-0.4-0.2-0.9-0.4-1.4-0.4
	c-0.7,0-1.9,0.1-1.9,1.1c0,1.4,3,1.6,5,2.1c2.8,0.6,3.5,2.7,3.5,3.8c0,3.8-3.5,5.1-6.5,5.1c-3.2,0-6.5-1.1-6.7-5.1H103.8L103.8,222z
	"/>
<path class="st2" d="M120.1,223.5c2.1,0,2.7-2.2,2.7-4c0-1.8-0.7-4-2.7-4c-2.1,0-2.7,2.2-2.7,4C117.4,221.4,118,223.5,120.1,223.5z
	 M120.1,212c4.2,0,7.2,3.3,7.2,7.6c0,4.3-3,7.5-7.2,7.5c-4.2,0-7.2-3.3-7.2-7.5C112.9,215.3,115.9,212,120.1,212z"/>
<path class="st2" d="M132.1,219.4c0,2,0.7,4.1,2.7,4.1c2.2,0,2.7-2.2,2.7-4c0-2.1-0.7-4-2.7-4C132.8,215.6,132.1,217.6,132.1,219.4z
	 M141.8,226.7h-4.3V225h-0.1c-0.9,1.4-2.2,2.1-3.8,2.1c-4.3,0-6.1-3.8-6.1-7.9c0-3.7,1.9-7.2,5.8-7.2c1.7,0,3,0.7,3.9,1.9h0.1V207
	h4.5V226.7z"/>
<path class="st2" d="M152.3,218.1c-0.1-1.6-1.2-2.9-2.6-2.9c-1.6,0-2.6,1.2-2.9,2.9H152.3z M146.7,220.7c0.1,1.9,1.2,3.3,3,3.3
	c1.1,0,2.1-0.5,2.6-1.6h4.2c-0.8,3.3-3.7,4.7-6.8,4.7c-4.4,0-7.5-2.8-7.5-7.6c0-4.4,3.3-7.5,7.4-7.5c4.9,0,7.3,3.8,7.1,8.7H146.7
	L146.7,220.7z"/>
<path class="st2" d="M161.1,222c0,0.7,0.3,1.2,0.7,1.6c0.4,0.3,1,0.5,1.7,0.5c0.9,0,2.1-0.4,2.1-1.5c0-1.1-1.4-1.3-2.2-1.5
	c-2.8-0.8-6.3-0.8-6.3-4.7c0-3.4,3.6-4.4,6.2-4.4c3,0,6.1,0.9,6.3,4.6h-4.1c0-0.6-0.2-1-0.6-1.2c-0.4-0.2-0.9-0.4-1.4-0.4
	c-0.7,0-1.9,0.1-1.9,1.1c0,1.4,3,1.6,5,2.1c2.8,0.6,3.5,2.7,3.5,3.8c0,3.8-3.5,5.1-6.5,5.1c-3.2,0-6.5-1.1-6.7-5.1H161.1L161.1,222z
	"/>
<path class="st2" d="M178.7,207h13.8v4.1h-8.9v4h7.7v4h-7.7v7.6h-4.9V207z"/>
<path class="st2" d="M192.8,212.4h4.3v2.5h0c0.7-1.8,2.2-2.8,4.1-2.8c0.3,0,0.7,0,1.1,0.1v4.3c-0.6-0.2-1.1-0.3-1.7-0.3
	c-2.2,0-3.4,1.6-3.4,3.4v7.1h-4.5L192.8,212.4L192.8,212.4z"/>
<path class="st2" d="M209.2,223.5c2.1,0,2.7-2.2,2.7-4c0-1.8-0.7-4-2.7-4c-2.1,0-2.7,2.2-2.7,4C206.5,221.4,207.1,223.5,209.2,223.5
	z M209.2,212c4.2,0,7.2,3.3,7.2,7.6c0,4.3-3,7.5-7.2,7.5c-4.2,0-7.2-3.3-7.2-7.5C202,215.3,204.9,212,209.2,212z"/>
<path class="st2" d="M216.7,212.4h4.3v2h0.1c0.8-1.4,2.3-2.4,3.9-2.4c1.7,0,3.2,0.6,4,2.3c1.1-1.5,2.4-2.3,4.3-2.3
	c4.3,0,4.8,3.4,4.8,6.2v8.5h-4.5v-8.4c0-1.5-0.7-2.4-1.9-2.4c-1.9,0-2.1,1.6-2.1,3.9v7h-4.5v-8.1c0-1.7-0.5-2.7-1.7-2.7
	c-1.6,0-2.3,1-2.3,3.9v7h-4.5V212.4L216.7,212.4z"/>
<path class="st2" d="M7.2,232.1h9.7v30h17.3v8.7H7.2V232.1z"/>
<path class="st2" d="M36.3,242.6h8.8v28.1h-8.8V242.6z M45.1,239.1h-8.8v-7h8.8V239.1z"/>
<path class="st2" d="M56,256.4c0,4.9,1.4,8.1,5.4,8.1c4,0,5.3-4.3,5.3-8.1c0-3.6-1.3-7.5-5.3-7.5C59,248.9,56,250.6,56,256.4z
	 M47.4,232.1h8.8v13.7h0.1c1.8-2.6,4.4-3.9,7.7-3.9c7.6,0,11.4,6.9,11.4,14.3c0,11.8-7.4,15.5-12,15.5c-3.1,0-5.7-1.4-7.4-4.1h-0.1
	v3.3h-8.4L47.4,232.1L47.4,232.1z"/>
<path class="st2" d="M96.1,253.8c-0.2-3.2-2.3-5.8-5.3-5.8c-3.1,0-5.2,2.3-5.7,5.8H96.1z M85.1,259c0.2,3.8,2.3,6.4,6,6.4
	c2.1,0,4.2-1,5-3.1h8.3c-1.6,6.5-7.4,9.3-13.4,9.3c-8.8,0-14.8-5.5-14.8-15c0-8.6,6.6-14.8,14.5-14.8c9.7,0,14.5,7.6,14.1,17.1
	L85.1,259L85.1,259z"/>
<path class="st2" d="M105.7,242.6h8.6v4.9h0.1c1.3-3.6,4.3-5.5,8.1-5.5c0.7,0,1.4,0.1,2.1,0.2v8.4c-1.1-0.3-2.2-0.5-3.4-0.5
	c-4.4,0-6.7,3.2-6.7,6.7v13.9h-8.8L105.7,242.6L105.7,242.6z"/>
<path class="st2" d="M143.8,248.6h-5.4v12.8c0,2.2,1.3,2.7,3.2,2.7c0.7,0,1.5-0.1,2.3-0.1v6.8c-1.6,0.1-3.2,0.3-4.8,0.3
	c-7.5,0-9.5-2.3-9.5-9.9v-12.5H125v-6h4.5v-8.5h8.8v8.5h5.4L143.8,248.6L143.8,248.6z"/>
<path class="st2" d="M162.4,273.3c-2.1,6.2-5.3,6.9-11.3,6.9H147v-7.5h3.1c2,0,3.5-1.2,3.5-3.1c0-1.5-1.7-5.9-2.2-7.4l-7-19.6h9.4
	l5.1,18.3h0.1l5.1-18.3h9L162.4,273.3z"/>
<path class="st2" d="M209.2,245.9c-0.5-3.9-3.4-6-7.5-6c-6.2,0-8.6,5.8-8.6,11.5c0,5.8,2.4,11.5,8.6,11.5c4.5,0,7.1-2.7,7.5-7.2h9.7
	c-0.5,10-7.5,15.8-16.9,15.8c-11.2,0-18.5-8.9-18.5-20.2s7.3-20.2,18.5-20.2c8,0,16.7,5.3,16.9,14.6L209.2,245.9L209.2,245.9z"/>
<path class="st2" d="M220,242.6h8.8v28.1H220V242.6z M228.9,239.1H220v-7h8.8V239.1z"/>
<path class="st2" d="M248.7,248.6h-5.5v12.8c0,2.2,1.3,2.7,3.2,2.7c0.7,0,1.5-0.1,2.3-0.1v6.8c-1.6,0.1-3.2,0.3-4.8,0.3
	c-7.5,0-9.4-2.3-9.4-9.9v-12.5H230v-6h4.5v-8.5h8.8v8.5h5.4L248.7,248.6L248.7,248.6z"/>
<path class="st2" d="M267.4,273.3c-2.1,6.2-5.3,6.9-11.3,6.9H252v-7.5h3.1c2,0,3.5-1.2,3.5-3.1c0-1.5-1.7-5.9-2.2-7.4l-7-19.6h9.3
	l5.1,18.3h0.1l5.1-18.3h9L267.4,273.3z"/>
</svg>
