<svg width="288" height="287" viewBox="0 0 288 287" fill="none" xmlns="http://www.w3.org/2000/svg">
<path d="M277.28 224.06H276.49L276.57 205.72L275.6 205.04L275.56 192.17L274.88 191.71L274.84 190.57L270.36 185.65L270.15 176.2L269.36 174.85L269.35 172.73H269.31L269.3 174.85L268.32 176.2L268.29 185.65L263.63 190.57L263.59 191.71L262.91 192.17L262.87 217.07L258.15 216.82L258.12 203.87L251.07 203.9L260.48 169.7H267.11V143.85C267.11 143.85 260.06 143.84 258.91 143.84C258.84 143.84 258.62 143.84 258.27 143.84C258.61 143.63 258.95 143.42 259.28 143.18C263.07 140.55 263.87 137.19 263.87 134.84V88.53H244.11V83.4H218.9C218.9 83.4 218.9 84.23 218.9 85.22H189.27C186.34 85.22 183.65 86.11 181.27 87.84C180.54 88.37 179.88 88.96 179.32 89.59C178.75 88.95 178.08 88.36 177.33 87.82C175.02 86.11 172.34 85.22 169.4 85.22H149.51C146.57 85.22 143.88 86.11 141.53 87.86C140.83 88.36 140.2 88.93 139.65 89.53C139.13 88.98 138.52 88.44 137.8 87.92L136.87 87.29C136.84 87.27 135.66 86.63 135.66 86.63C134.22 85.94 132.7 85.52 131.12 85.38L129.87 85.32H122.67V78.21H181.68V76.01C184.02 77.47 186.47 78.21 188.97 78.21H221.58V4.79999H196.27C196.27 4.79999 196.27 13.86 196.27 17.65C192.81 17.65 188.97 17.65 188.97 17.65C186.03 17.65 183.35 18.53 180.98 20.27C180.23 20.8 179.57 21.39 179 22.03C178.43 21.41 177.79 20.83 177.05 20.3C174.75 18.6 172.07 17.71 169.14 17.71C166.47 17.71 164.1 18.02 161.93 18.53C161.93 18.3 161.93 17.71 161.93 17.71H136.73V19.81C134.59 18.43 132.17 17.71 129.54 17.71H109.69C106.76 17.71 104.08 18.6 101.72 20.34C101 20.86 100.35 21.44 99.79 22.06C99.22 21.43 98.57 20.84 97.82 20.31C95.53 18.61 92.84 17.76 89.91 17.76H30.05C27.13 17.77 24.46 18.55 22.11 20.27C19.18 22.36 17.52 25.37 17.49 28.71V67.31C17.5 68.73 17.8 70.5 18.86 72.26C18.29 72.26 17.49 72.26 17.49 72.26V94.33H50.16C50.64 94.32 51.12 94.28 51.59 94.22V110.58C51.59 110.58 57.17 110.58 57.71 110.58V134.88C57.71 137.17 58.53 140.49 62.44 143.3C62.44 143.3 63.17 143.77 63.6 144.03H63.73L63.75 144.14L28.66 144.12C25.73 144.12 23.05 145 20.69 146.75C17.75 148.85 16.11 151.88 16.11 155.24L16.21 209.02H15.58V208.99L14.29 209L14.12 208.99C14.12 208.99 11.57 206.95 12.58 202.84L13.1 202.88L11.92 199.12C11.92 199.12 13.72 197.81 12.58 195.36C12.58 195.36 10.16 192.68 8.50999 191.91C8.50999 191.91 11.42 191.21 10.87 189.86L10.38 189.29L9.91 188.6L8.98999 188.54L8.53999 187.45L8.09999 188.08L7.25 187.1L7.08 187.74L6.42 187.7L5.53999 186.08L5.62999 185.01C5.99999 184.75 5.69 184.35 5.69 184.35C5.59 184.04 5.06 184.04 5.06 184.04C4.1 184 4.14999 184.38 4.14999 184.38L4.28999 186.75L4.81999 186.91L5.37999 187.35C5.37999 187.35 5.55999 190.38 6.20999 190.42C6.20999 190.42 5.67 192.49 6.3 192.79C6.3 192.79 5.03999 197.68 6.48999 199.36C6.48999 199.36 6.15999 202.23 7.03999 202.81L7.83 206.53C7.83 206.53 7.88999 207.66 7.59999 208.57C7.43999 209.05 7.05 209.75 6.22 209.68V210.6H6.25L6.26999 214.54L2.91 214.55L2.92 215.97L4.73999 215.96V217.82L2.67 218.23L2.62999 218.67L2.58 218.68L1.75 218.52L1.78999 227.34H1V276.89H58.58C60.14 277.41 61.81 277.67 63.54 277.67C68.67 277.67 73.11 275.79 76.35 272.36C80.07 275.79 85.22 277.67 91.18 277.67C94.2 277.67 97.03 277.16 99.58 276.19V276.89H121.03V257.22C121.03 257.2 121.03 257.18 121.03 257.16C121.11 257.14 121.23 257.13 121.38 257.13C121.84 257.13 122.29 257.21 123.09 257.43L123.37 257.5V261.32C123.37 272.26 128.23 276.4 139.14 276.4C139.74 276.4 140.32 276.38 140.88 276.35V285.92H151.35C156.34 285.92 164.67 285.92 168.56 275.11L177.34 250.9C177.32 251.27 177.31 251.64 177.31 252.01C177.31 266.87 187.74 277.65 202.12 277.65C206.46 277.65 210.49 276.67 213.95 274.86V276.88H235.41V275.55C237.72 276.63 240.62 277.14 244.17 277.14C244.77 277.14 245.35 277.12 245.91 277.09V285.93H256.38C261.36 285.93 269.7 285.93 273.59 275.12L286.42 239.76H286.57V239.34L286.6 223.92L277.28 224.06ZM223.64 143.26L223.73 143.32C224.01 143.5 224.28 143.67 224.56 143.84C220.8 143.84 218.31 143.84 218.31 143.84V143.85H201.97C201.97 139.23 201.97 127.97 201.97 123.38H218.9C218.9 129.36 218.9 134.83 218.9 134.83C218.9 137.14 219.73 140.46 223.64 143.26Z" stroke="#867767" stroke-width="1.7193" stroke-linecap="round" stroke-linejoin="round"/>
<path d="M270.42 143.92H269.45V143.59H271.78V143.92H270.81V146.51H270.42V143.92V143.92Z" fill="black"/>
<path d="M272.12 143.59H272.65L273.57 146.04L274.49 143.59H275.02V146.51H274.65V144.08H274.64L273.73 146.51H273.4L272.49 144.08V146.51H272.12V143.59V143.59Z" fill="black"/>
<path d="M248.02 214.94L260.47 169.69H267.1V143.84C267.1 143.84 260.05 143.83 258.9 143.83C258.83 143.83 258.61 143.83 258.26 143.83C258.6 143.62 258.94 143.41 259.27 143.17C263.06 140.54 263.86 137.18 263.86 134.83V88.52H244.1V83.39H218.89C218.89 83.39 218.89 84.22 218.89 85.21H189.26C186.33 85.21 183.64 86.1 181.26 87.83C180.53 88.36 179.87 88.95 179.31 89.58C178.74 88.94 178.07 88.35 177.32 87.81C175.01 86.1 172.33 85.21 169.39 85.21H149.5C146.56 85.21 143.87 86.1 141.52 87.85C140.82 88.35 140.19 88.92 139.64 89.52C139.12 88.97 138.51 88.43 137.79 87.91L136.86 87.28C136.83 87.26 135.65 86.62 135.65 86.62C134.21 85.93 132.69 85.51 131.11 85.37L129.86 85.31H122.66V78.2H181.67V76C184.01 77.46 186.46 78.2 188.96 78.2H221.57V4.79999H196.26C196.26 4.79999 196.26 13.86 196.26 17.65C192.8 17.65 188.96 17.65 188.96 17.65C186.02 17.65 183.34 18.53 180.97 20.27C180.22 20.8 179.56 21.39 178.99 22.03C178.42 21.41 177.78 20.83 177.04 20.3C174.74 18.6 172.06 17.71 169.13 17.71C166.46 17.71 164.09 18.02 161.92 18.53C161.92 18.3 161.92 17.71 161.92 17.71H136.72V19.81C134.58 18.43 132.16 17.71 129.53 17.71H109.68C106.75 17.71 104.07 18.6 101.71 20.34C100.99 20.86 100.34 21.44 99.78 22.06C99.21 21.43 98.56 20.84 97.81 20.31C95.52 18.61 92.83 17.76 89.9 17.76H30.04C27.12 17.77 24.45 18.55 22.1 20.27C19.17 22.36 17.51 25.37 17.48 28.71V67.31C17.49 68.73 17.79 70.5 18.85 72.26C18.28 72.26 17.48 72.26 17.48 72.26V94.33H50.15C50.63 94.32 51.11 94.28 51.58 94.22V110.58C51.58 110.58 57.16 110.58 57.7 110.58V134.88C57.7 137.17 58.52 140.49 62.43 143.3C62.43 143.3 63.16 143.77 63.59 144.03H63.72L63.74 144.14L28.65 144.12C25.72 144.12 23.04 145 20.68 146.75C17.74 148.85 16.1 151.88 16.1 155.24L16.21 215.58L248.02 214.94ZM218.31 143.85H201.97C201.97 139.23 201.97 127.97 201.97 123.38H218.9C218.9 129.36 218.9 134.83 218.9 134.83C218.91 137.13 219.73 140.45 223.64 143.25L223.73 143.31C224.01 143.49 224.28 143.66 224.56 143.83C220.8 143.84 218.31 143.84 218.31 143.85Z" fill="black"/>
<path d="M259.26 105.98V93.18H239.51V88.06H223.6V93.18H219.65V105.98H223.6V134.85C223.6 136.66 224.56 138.18 226.39 139.48C226.44 139.51 226.47 139.53 226.52 139.56C226.59 139.6 226.66 139.64 226.73 139.69C227.01 139.87 227.24 140.01 227.24 140.01C227.24 140 227.24 140 227.24 140C228.6 140.77 229.98 141.19 231.5 141.19H251.36C253.12 141.19 254.8 140.62 256.47 139.5C256.52 139.47 256.56 139.44 256.61 139.4C256.62 139.39 256.64 139.38 256.65 139.37C256.67 139.35 256.69 139.34 256.7 139.33C258.25 138.23 259.28 136.84 259.25 134.83V109.11H243.45V128.38H239.5V105.96H259.26V105.98Z" fill="white"/>
<path d="M22.26 89.68L50.26 89.69V89.68C52.08 89.67 53.71 89.06 55.34 87.97C55.44 87.89 55.53 87.81 55.64 87.73L55.65 87.74C55.65 87.74 56.33 87.3 57.04 86.37C57.11 86.28 57.18 86.19 57.24 86.1C57.27 86.07 57.28 86.04 57.3 86.01C57.39 85.88 57.47 85.75 57.54 85.62C57.55 85.59 57.57 85.58 57.58 85.55C57.75 85.25 57.87 84.93 57.96 84.61C57.98 84.53 58 84.44 58.01 84.36C58.02 84.32 58.03 84.3 58.04 84.27C58.1 83.97 58.14 83.67 58.14 83.35V82.97V78.38V58.92V22.79V22.32C57.84 22.63 57.58 22.88 57.34 23.11L58.14 22.32H30.15C28.53 22.32 26.98 22.73 25.5 23.66C25.5 23.66 25.34 23.77 25.14 23.91C25.08 23.96 25.01 24 24.95 24.04C24.92 24.06 24.9 24.08 24.87 24.1C24.65 24.26 24.45 24.41 24.38 24.48L24.39 24.49C22.95 25.71 22.25 27.15 22.24 28.75V67.31C22.24 69.12 23.12 70.63 24.86 71.84C24.88 71.86 24.91 71.88 24.92 71.89C25 71.94 25.06 71.98 25.14 72.03C25.38 72.19 25.81 72.47 26.08 72.59C27.43 73.3 28.78 73.67 30.19 73.67H42.13V76.92H22.24V89.68L23.17 88.74L22.26 89.68ZM42.13 60.92H38.25V35.19H42.13V60.92ZM56.46 24L56.86 23.6C56.73 23.73 56.6 23.86 56.46 24Z" fill="white"/>
<path d="M184.86 91.09C184.85 91.08 184.23 91.47 183.95 91.69L183.96 91.7C182.21 93.01 181.37 94.58 181.37 96.36V141.24H197.37V118.75H217.29V105.89H197.37V102.75H217.29V89.89H189.33C187.77 89.89 186.28 90.25 184.86 91.09Z" fill="white"/>
<path d="M137.92 195.94C138.33 195.21 138.54 194.45 138.54 193.63V167.95H122.74V187.22H118.79V164.8H138.55V152H118.79V146.87H102.88V152H98.93L99.2 152.24L98.93 152V164.81L98.95 164.8H102.88L102.79 193.65C102.79 195.16 103.46 196.46 104.72 197.61H104.71C104.95 197.83 105.17 198.02 105.38 198.18C105.41 198.21 105.44 198.23 105.47 198.26C105.5 198.28 105.52 198.29 105.55 198.31C105.86 198.54 106.08 198.67 106.08 198.67C106.08 198.66 106.08 198.66 106.08 198.66C107.62 199.61 109.15 200.08 110.77 200.08H130.6C132.43 200.08 134.17 199.38 135.9 198.16C135.92 198.15 136.04 198.04 136.12 197.97C136.83 197.41 137.41 196.79 137.83 196.1C137.85 196.06 137.88 196.02 137.91 195.99C137.89 195.99 137.9 195.96 137.92 195.94ZM100.61 163.04V163.08C100.61 163.08 100.62 163.08 100.64 163.08L99.25 164.46L100.61 163.04Z" fill="white"/>
<path d="M143.54 138.85C143.55 138.86 143.58 138.89 143.6 138.9C143.61 138.91 143.62 138.91 143.63 138.93C143.8 139.08 144.02 139.25 144.23 139.4C144.24 139.4 144.24 139.41 144.25 139.42C144.27 139.43 144.28 139.44 144.29 139.45C144.54 139.63 144.74 139.76 144.74 139.76L144.75 139.75C146.32 140.74 147.89 141.24 149.55 141.23H149.56L149.55 141.24H169.45C171.2 141.24 172.84 140.69 174.49 139.6L174.5 139.61C174.52 139.6 174.74 139.44 174.76 139.42C176.5 138.2 177.37 136.68 177.37 134.87V125.25H161.45V128.49H157.58V122H177.37V96.36C177.37 95.01 176.91 93.8 175.92 92.72C175.63 92.39 175.29 92.08 174.91 91.78L174.9 91.79C174.83 91.73 174.74 91.65 174.66 91.6C173.02 90.39 171.28 89.89 169.45 89.89H149.55C148.12 89.89 146.75 90.2 145.45 90.91L145.44 90.9C145.44 90.9 145.16 91.05 144.72 91.35C144.67 91.38 144.62 91.41 144.57 91.44C144.49 91.5 144.41 91.54 144.34 91.6C144.3 91.63 144.26 91.67 144.22 91.7C144.07 91.81 143.92 91.93 143.75 92.06H143.76C142.32 93.29 141.64 94.75 141.64 96.36V134.86C141.65 136.4 142.28 137.74 143.54 138.85ZM161.45 109.13H157.58V102.75H161.45V109.13Z" fill="white"/>
<path d="M183.16 71.36L183.15 71.37C183.93 71.98 184.26 72.15 184.33 72.18C185.86 73.11 187.41 73.59 189.02 73.59H189.03H216.98V9.47998H200.97V22.33H189.03H189.02C187.41 22.33 185.87 22.72 184.4 23.63V23.62C184.4 23.62 184.16 23.78 183.88 23.98C183.85 24 183.83 24.01 183.81 24.03C183.81 24.03 183.8 24.04 183.79 24.04C183.76 24.06 183.75 24.07 183.72 24.09C183.42 24.3 183.12 24.53 183.04 24.63V24.64C181.71 25.84 181.07 27.24 181.07 28.8V67.23C181.06 68.85 181.77 70.22 183.16 71.36ZM200.78 61.04H196.9V35.19H200.78V61.04ZM184.34 25.2L184.53 25.61C184.49 25.64 184.46 25.67 184.43 25.69L184.27 25.27L184.34 25.2Z" fill="white"/>
<path d="M103.79 71.25H103.78C103.85 71.31 103.92 71.36 104 71.42C104.21 71.59 104.35 71.68 104.35 71.68C104.39 71.71 104.43 71.74 104.47 71.77C104.51 71.8 104.55 71.82 104.59 71.85C104.75 71.97 104.87 72.06 104.87 72.06C104.88 72.06 104.88 72.05 104.89 72.05C106.49 73.07 108.09 73.6 109.78 73.6H137.55V28.86C137.55 28.63 137.53 28.42 137.51 28.21C137.5 28.14 137.48 28.07 137.48 27.99C137.46 27.85 137.43 27.71 137.4 27.57C137.37 27.48 137.35 27.4 137.32 27.32C137.28 27.2 137.25 27.08 137.2 26.96C137.17 26.87 137.12 26.78 137.09 26.69C137.04 26.58 136.99 26.47 136.93 26.36C136.88 26.27 136.82 26.18 136.77 26.09C136.71 25.99 136.64 25.89 136.57 25.79C136.51 25.71 136.44 25.62 136.37 25.53C136.29 25.43 136.21 25.33 136.13 25.24C136.05 25.16 135.98 25.08 135.9 24.99C135.87 24.96 135.85 24.93 135.82 24.91L135.84 24.9C135.34 24.43 134.91 24.14 134.91 24.14C134.89 24.12 134.87 24.11 134.85 24.09C134.72 23.99 134.59 23.91 134.46 23.83C132.83 22.75 131.18 22.38 129.64 22.38H109.78C108.21 22.38 106.71 22.76 105.28 23.63L105.26 23.64C105.03 23.78 104.81 23.93 104.58 24.09C104.53 24.13 104.48 24.18 104.42 24.22C104.4 24.23 104.39 24.25 104.37 24.26C104.17 24.41 103.99 24.55 103.94 24.62C102.56 25.83 101.88 27.26 101.88 28.85V38.34H117.78V35.21H121.64V41.57H109.78C108.15 41.57 106.68 42.05 105.22 43.01L105.01 43.16C104.9 43.24 104.78 43.31 104.67 43.4C104.65 43.41 104.65 43.42 104.64 43.42C102.83 44.73 101.88 46.24 101.88 47.94V67.23C101.86 69.2 103.06 70.59 103.79 71.25ZM121.62 60.87H117.76V54.41H121.62V60.87Z" fill="white"/>
<path d="M98.12 109.17H82.31V128.49H78.35V105.94H98.11V93.2H78.14V83.47L78.15 83.45H62.22L62.23 83.46V93.19H56.33V105.93H62.45V134.86C62.45 136.45 63.2 137.81 64.62 139H64.6C64.81 139.18 65.02 139.34 65.22 139.48C65.23 139.49 65.24 139.5 65.24 139.51C65.26 139.52 65.27 139.53 65.28 139.54C65.55 139.73 65.75 139.85 65.75 139.85C67.22 140.75 68.71 141.24 70.35 141.24H90.22C92.05 141.24 93.79 140.64 95.52 139.42C95.54 139.41 95.56 139.4 95.58 139.38C97.28 138.17 98.13 136.67 98.13 134.87V109.17H98.12ZM63.96 85.14H63.92V85.15L62.51 83.74L63.96 85.14Z" fill="white"/>
<path d="M96.15 148.8H80.27V187.21H76.42V148.73H60.53V193.53C60.53 195.17 61.25 196.57 62.64 197.71L62.6 197.76C62.77 197.89 62.93 198.02 63.09 198.13C63.1 198.14 63.12 198.15 63.13 198.17C63.17 198.2 63.21 198.22 63.25 198.25C63.61 198.5 63.88 198.67 63.88 198.67C63.88 198.66 63.88 198.66 63.88 198.66C65.37 199.55 66.86 200 68.42 200H88.25C90.01 200 91.67 199.44 93.34 198.3L93.35 198.31C95.46 196.91 96.2 195.43 96.15 193.6H96.14V148.8H96.15Z" fill="white"/>
<path d="M53.91 150.47C53.88 150.45 53.86 150.43 53.85 150.43C53.83 150.41 53.83 150.41 53.82 150.39C53.81 150.38 53.79 150.37 53.75 150.35L53.69 150.41L53.73 150.36C52.15 149.22 50.39 148.76 48.68 148.76H28.83C27.3 148.76 25.83 149.12 24.43 149.95C24.43 149.94 24.42 149.94 24.42 149.94C24.42 149.94 24.36 149.98 24.26 150.04C24.05 150.18 23.83 150.32 23.62 150.48C23.58 150.51 23.55 150.53 23.52 150.55C23.46 150.59 23.42 150.64 23.36 150.68C23.28 150.74 23.2 150.81 23.11 150.88C21.63 152.12 20.91 153.59 20.91 155.23V164.72H36.84V161.59H40.7V167.95H28.84C27.32 167.95 25.93 168.37 24.57 169.21C24.57 169.2 24.56 169.2 24.56 169.2C24.56 169.2 23.74 169.7 23.45 169.99C21.8 171.25 20.93 172.7 20.93 174.32V193.6C20.93 195.36 21.75 196.83 23.37 198.02L23.36 198.03C23.72 198.29 24.04 198.49 24.26 198.62C24.42 198.72 24.52 198.77 24.52 198.77C25.92 199.56 27.34 199.97 28.83 199.97H56.6V155.23C56.6 153.41 55.74 151.79 53.91 150.47ZM36.84 187.21V180.77H40.7V187.23H36.84V187.21Z" fill="white"/>
<path d="M178.07 154.91C178.01 153.27 177.25 151.89 175.6 150.68C175.52 150.62 175.45 150.56 175.37 150.5C173.74 149.28 171.99 148.79 170.16 148.79H150.26C148.73 148.79 147.27 149.14 145.88 149.95H145.87C145.83 149.98 145.79 150 145.75 150.03C145.68 150.07 145.62 150.11 145.55 150.15C145.16 150.4 145.04 150.47 144.52 150.89L144.54 150.9C143.05 152.14 142.33 153.6 142.33 155.23V193.57C142.33 194.76 142.71 195.81 143.45 196.74V196.75C143.48 196.78 143.5 196.8 143.53 196.83C143.59 196.91 143.65 196.98 143.72 197.04C143.79 197.12 143.86 197.19 143.94 197.26C144.03 197.35 144.13 197.44 144.23 197.53C144.37 197.65 144.51 197.77 144.63 197.87C144.63 197.87 144.63 197.87 144.64 197.87C144.65 197.88 144.67 197.89 144.68 197.9C144.77 197.97 144.85 198.04 144.95 198.11C146.69 199.33 148.42 199.92 150.26 199.92H170.16C171.96 199.92 173.66 199.34 175.35 198.19C175.36 198.18 175.36 198.18 175.37 198.18L175.38 198.19C175.42 198.17 175.69 197.99 175.73 197.96C177.47 196.76 178.09 195.38 178.09 193.57V155.23V155.12V155H178.08L178.07 154.91ZM162.14 187.23H158.28V161.6H162.14V187.23Z" fill="white"/>
<path d="M157.34 35.22H161.2V73.6H177.1V28.86C177.1 27.05 176.4 25.55 174.58 24.24C174.59 24.24 174.59 24.24 174.59 24.23C171.89 22.15 169.2 22.39 169.2 22.39C163.9 22.39 159.95 23.5 157.35 25.62V22.4H141.46V73.61H157.35V35.22H157.34Z" fill="white"/>
<path d="M78.14 54.44H81.99V83.25C81.99 84.77 82.68 86.09 83.98 87.25L83.97 87.26C84.49 87.77 85.13 88.14 85.39 88.29C85.44 88.32 85.49 88.34 85.54 88.37C85.74 88.49 87.42 89.49 89.4 89.59C89.59 89.6 89.79 89.61 89.99 89.61H100.4H102.19V141.24H118.1V102.82H121.95V141.24H137.84V96.46C137.84 95.08 137.37 93.88 136.38 92.8C136.11 92.5 135.8 92.22 135.47 91.96C135.41 91.91 135.35 91.86 135.29 91.81C135.29 91.81 135.29 91.82 135.28 91.82C135.07 91.66 134.68 91.4 134.48 91.27C134.24 91.12 133.94 90.96 133.69 90.84C132.75 90.39 131.77 90.14 130.78 90.04C130.5 90.02 130.22 90 129.94 90H118.09V76.88H97.88V51.2C97.88 51.2 98.01 48.53 95.81 47.45C95.82 47.45 95.84 47.44 95.85 47.43C95.97 47.38 96.1 47.32 96.22 47.25C96.23 47.24 96.25 47.23 96.26 47.23C96.37 47.17 96.47 47.11 96.57 47.04C96.6 47.02 96.63 47 96.66 46.98C96.76 46.91 96.86 46.84 96.95 46.76C96.96 46.75 96.97 46.75 96.98 46.74C97.08 46.66 97.17 46.56 97.26 46.47C97.28 46.45 97.3 46.42 97.32 46.4C97.39 46.32 97.45 46.23 97.51 46.15C97.53 46.12 97.55 46.1 97.56 46.08C97.62 45.97 97.68 45.86 97.73 45.74C97.74 45.71 97.75 45.69 97.75 45.67C97.79 45.57 97.82 45.47 97.84 45.36C97.85 45.32 97.85 45.29 97.86 45.25C97.89 45.11 97.9 44.98 97.9 44.83V28.87C97.93 27.4 97.39 26.13 96.34 25.08C96.24 24.98 95.84 24.56 95.42 24.28L95.41 24.29C95.4 24.29 95.4 24.29 95.4 24.28L95.36 24.34H95.35L95.4 24.27C95.33 24.22 95.27 24.16 95.2 24.11C93.56 22.9 91.83 22.39 90 22.39H62.24V79.48H78.15V54.44H78.14ZM81.98 41.6H78.12V35.23H81.98V41.6Z" fill="white"/>
<path d="M238.05 148.91V164.23C238.05 164.23 240.5 164.23 240.7 164.23C239.71 167.64 237.2 176.32 236.42 179.01C235.63 176.31 233.12 167.63 232.14 164.23C232.34 164.23 234.78 164.23 234.78 164.23V148.91H211.67V164.23C211.67 164.23 215.18 164.23 216.44 164.23C217.21 166.9 226.84 200.2 226.84 200.2H245.97C245.97 200.2 255.61 166.89 256.38 164.22C257.65 164.22 261.16 164.22 261.16 164.22V148.9H238.05V148.91ZM259.15 162.23H254.88L244.47 198.2H228.34L217.94 162.23H213.66V150.89L213.69 150.92L232.77 150.91V162.22H229.47L235.11 181.58V181.74H237.72V181.55L243.36 162.22H240.06V150.91L259.17 150.92V162.23H259.15Z" fill="white"/>
<path d="M204.86 184.38V164.18H209.7L209.69 164.17V148.92L209.7 148.91H184.45L184.44 148.9V164.22L185.46 163.2L184.44 164.21H189.28V164.22V184.36H184.44V200.25H209.71L209.68 184.38H204.86ZM186.46 198.25L186.44 186.36H186.58H191.27L191.32 162.19L189.62 163.88L191.29 162.21H186.45L186.44 162.22L186.49 150.94V150.93L207.7 150.9L207.71 162.22L207.7 162.2H202.9L202.87 162.18V186.34H207.68L207.7 198.23H186.46V198.25Z" fill="white"/>
<path d="M277.28 224.06H276.49L276.57 205.72L275.6 205.04L275.56 192.17L274.88 191.71L274.84 190.57L270.36 185.65L270.15 176.2L269.36 174.85L269.35 172.73H269.31L269.3 174.85L268.32 176.2L268.29 185.65L263.63 190.57L263.59 191.71L262.91 192.17L262.87 217.07L258.15 216.82L258.12 203.87L243.33 203.93L243.34 206.73L239.4 207.39L239.41 208.6L225.95 208.66L225.87 206.18L223.58 206.19L223.55 199.33L221.64 197.43L217.49 197.45L216.19 198.6L214.03 198.65L214.07 208.39H213.56L213.55 206.86L211.88 202.43L210.12 207.66L210.16 210.4L204 210.41L203.95 205.2L200.77 202.86L192.12 202.76L179.14 202.78L179.16 198.68L178.86 199.38L178.09 199.39L177.45 197.61L176.63 199.9L176.65 202.38L175.7 202.32L172.88 202.68V195.09H165.36V203.64L164.71 203.72L160.73 203.73L160.74 206.73L159.69 206.74V197.24H156.77V200.43H156.19L156.12 195.49H155.95V190.75V184.51L155.93 183.76L155.91 183L155.97 182.85L156.02 182.69C156.13 182.69 156.21 182.62 156.27 182.55C156.33 182.48 156.36 182.41 156.36 182.41L156.44 182.37L156.52 182.32V182.23V182.13H156.42H156.33L156.21 182.15L156.09 182.17H156.01H155.93L155.87 182.24L155.81 182.31L155.69 182.34L155.57 182.36L155.56 182.38L155.55 182.4L155.18 182.36L154.81 182.31L154.72 180.07L154.64 177.82C154.64 177.22 154.58 176.9 154.51 176.74C154.45 176.56 154.38 176.54 154.38 176.54L154.19 176.46L154 176.38L153.99 176.24L153.97 176.09C153.97 175.62 153.88 175.21 153.78 174.91C153.69 174.61 153.6 174.44 153.6 174.44C153.59 173.73 153.47 173.31 153.36 173.07C153.24 172.83 153.13 172.77 153.13 172.77L153.11 172.5L153.09 172.24C153.09 171.77 152.94 171.42 152.79 171.19C152.64 170.96 152.48 170.84 152.48 170.84C152.52 170.14 152.32 169.66 152.11 169.36C151.9 169.07 151.67 168.94 151.67 168.94C151.73 168.51 151.6 168.12 151.46 167.82C151.32 167.53 151.16 167.35 151.16 167.35C151.14 166.83 151.04 166.4 150.95 166.1C150.86 165.8 150.78 165.63 150.78 165.63L150.75 165.48L150.73 165.32L150.64 164.49L150.55 163.66L150.5 163.43L150.46 163.21L150.41 161.85L150.37 160.49L150.28 160.48H150.25H150.22L150.13 160.49L150.09 161.85L150.04 163.21L150 163.43L149.95 163.66L149.86 164.49L149.77 165.32L149.75 165.48L149.72 165.63C149.72 165.63 149.64 165.8 149.55 166.1C149.45 166.4 149.36 166.83 149.34 167.35C149.34 167.35 149.19 167.53 149.04 167.82C148.91 168.11 148.78 168.5 148.84 168.94C148.84 168.94 148.61 169.06 148.4 169.36C148.19 169.66 147.98 170.13 148.02 170.84C148.02 170.84 147.86 170.96 147.71 171.19C147.55 171.42 147.41 171.77 147.41 172.24L147.39 172.5L147.38 172.77C147.38 172.77 147.27 172.83 147.15 173.07C147.03 173.31 146.92 173.73 146.91 174.44C146.91 174.44 146.82 174.62 146.72 174.91C146.63 175.2 146.53 175.62 146.53 176.09L146.51 176.24L146.5 176.38L146.3 176.46L146.11 176.54C146.11 176.54 146.04 176.56 145.98 176.74C145.91 176.9 145.84 177.22 145.84 177.82L145.76 180.07L145.68 182.31L145.31 182.36L144.95 182.4L144.93 182.38L144.91 182.36L144.79 182.34L144.66 182.31L144.6 182.24L144.54 182.17H144.47H144.39L144.28 182.15L144.16 182.13H144.07H143.97V182.23V182.32L144.05 182.37L144.13 182.41C144.13 182.41 144.16 182.48 144.21 182.55C144.27 182.62 144.35 182.69 144.47 182.69L144.52 182.85L144.57 183L144.56 183.76L144.55 184.51V190.75V195.49H144.2L144.14 200.43H143.54V204.89L137.46 204.9L137.42 193.5L131.83 193.52L130.19 195.18L130.21 198.1L123.73 198.13L122.86 202.23L121.97 202.24V202.28L117.02 202.3L117.03 205.96H116.01L115.99 197.48L113.16 197.5V198.04H111.78V197.05H107.37V205.96H107.13L107.11 200.71L105.84 199.44L98.47 199.48L98.49 205.57L91.43 205.61L91.42 203.59L91.71 187.9L77.91 189.34L77.88 205.75L75.57 205.76L75.53 196.85L70.57 196.73L70.51 203.68L65.58 203.7L65.59 205.96H65.44V205.78H65.4V192.78H62.22V205.96H59.82L55.58 205.42L55.42 193.17L51.13 193.03V200.51H50.87V202.05L50.54 202.06L50.56 205.95H50.16V200.77H49.63V200.56H47.58V200.77H47.05V205.95H45.83L45.77 193.19L44.37 191.81L37.04 191.84L37.05 195L33.38 195.02L30.49 198.32L30.51 203.33H16.9V209H15.65V208.97L14.36 208.98L14.19 208.97C14.19 208.97 11.64 206.93 12.65 202.82L13.17 202.86L11.99 199.1C11.99 199.1 13.79 197.79 12.65 195.34C12.65 195.34 10.23 192.66 8.58 191.89C8.58 191.89 11.49 191.19 10.94 189.84L10.45 189.27L9.98 188.58L9.06 188.52L8.61 187.43L8.17 188.06L7.31999 187.08L7.14999 187.72L6.48999 187.68L5.61 186.06L5.7 184.99C6.07 184.73 5.75999 184.33 5.75999 184.33C5.65999 184.02 5.12999 184.02 5.12999 184.02C4.16999 183.98 4.22 184.36 4.22 184.36L4.36 186.73L4.89 186.89L5.45 187.33C5.45 187.33 5.63 190.36 6.28 190.4C6.28 190.4 5.74 192.47 6.37 192.77C6.37 192.77 5.11 197.66 6.56 199.34C6.56 199.34 6.23 202.21 7.11 202.79L7.89999 206.51C7.89999 206.51 7.96 207.64 7.67 208.55C7.51 209.03 7.11999 209.73 6.28999 209.66V210.58H6.31999L6.34 214.52L2.98 214.53L2.98999 215.95L4.81 215.94V217.8L2.73999 218.21L2.7 218.65L2.64999 218.66L1.81999 218.5L1.86 227.32H1.06999V276.87H58.65C60.21 277.39 61.88 277.65 63.61 277.65C68.74 277.65 73.18 275.77 76.42 272.34C80.14 275.77 85.29 277.65 91.25 277.65C94.27 277.65 97.1 277.14 99.65 276.17V276.87H121.1V257.2C121.1 257.18 121.1 257.16 121.1 257.14C121.18 257.12 121.3 257.11 121.45 257.11C121.91 257.11 122.36 257.19 123.16 257.41L123.44 257.48V261.3C123.44 272.24 128.3 276.38 139.21 276.38C139.81 276.38 140.39 276.36 140.95 276.33V285.9H151.42C156.41 285.9 164.74 285.9 168.63 275.09L177.41 250.88C177.39 251.25 177.38 251.62 177.38 251.99C177.38 266.85 187.81 277.63 202.19 277.63C206.53 277.63 210.56 276.65 214.02 274.84V276.86H235.48V275.53C237.79 276.61 240.69 277.12 244.24 277.12C244.84 277.12 245.42 277.1 245.98 277.07V285.91H256.45C261.43 285.91 269.77 285.91 273.66 275.1L286.49 239.74H286.64V239.32L286.67 223.9L277.28 224.06Z" fill="black"/>
<path d="M48.95 225.13C47.31 226.48 45.65 227.11 43.54 227.11C40.18 227.11 37.25 224.86 37.25 221.34C37.25 218.64 39.26 216.9 41.54 215.84C40.61 214.81 39.87 213.65 39.87 212.22C39.87 209.29 42.54 207.43 45.26 207.43C48.09 207.43 50.6 209.31 50.6 212.32C50.6 214.52 49.25 216.05 47.38 217L49.34 219.35C49.71 218.8 49.94 218.16 50.02 217.5H53.88C53.72 219.2 52.95 220.86 51.79 222.1L55.76 226.7H50.28L48.95 225.13ZM43.77 218.81C42.84 219.23 41.57 220.16 41.57 221.3C41.57 222.62 42.84 223.47 44.05 223.47C44.9 223.47 45.85 222.78 46.56 222.12L43.77 218.81ZM46.91 212.07C46.91 211.17 46.25 210.61 45.33 210.61C44.51 210.61 43.85 211.22 43.85 212.01C43.85 213.03 44.6 213.65 45.18 214.39C46.09 213.84 46.91 213.21 46.91 212.07Z" fill="#867767"/>
<path d="M63.44 207.04H78.38V211.14H68.33V214.58H77.52V218.54H68.33V222.28H78.64V226.68H63.44V207.04Z" fill="#867767"/>
<path d="M84.24 219.39C84.24 221.9 84.92 223.52 86.94 223.52C88.94 223.52 89.62 221.34 89.62 219.39C89.62 217.58 88.94 215.57 86.96 215.57C85.77 215.57 84.24 216.44 84.24 219.39ZM79.93 212.4H84.19V214.06H84.24C85.11 212.71 86.42 212 88 212C92.28 212 94.09 215.85 94.09 219.87C94.09 223.58 92.2 227.1 88.34 227.1C86.66 227.1 85.37 226.44 84.45 225.15H84.39V231.48H79.93V212.4Z" fill="#867767"/>
<path d="M94.66 212.4H99.13V226.69H94.66V212.4V212.4ZM99.13 210.61H94.66V207.03H99.13V210.61Z" fill="#867767"/>
<path d="M103.78 221.98C103.78 222.69 104.07 223.22 104.51 223.57C104.93 223.89 105.53 224.06 106.16 224.06C107.03 224.06 108.27 223.67 108.27 222.55C108.27 221.45 106.88 221.23 106.09 221.04C103.28 220.29 99.76 220.22 99.76 216.36C99.76 212.92 103.3 211.98 105.98 211.98C108.98 211.98 112.1 212.89 112.26 216.61H108.14C108.14 216.01 107.93 215.62 107.56 215.37C107.19 215.13 106.69 215.01 106.14 215.01C105.4 215.01 104.22 215.1 104.22 216.09C104.22 217.44 107.22 217.69 109.26 218.16C112.02 218.73 112.73 220.83 112.73 222.01C112.73 225.84 109.26 227.1 106.19 227.1C102.96 227.1 99.65 225.98 99.52 221.98H103.78V221.98Z" fill="#867767"/>
<path d="M120.11 223.52C122.18 223.52 122.84 221.37 122.84 219.56C122.84 217.74 122.18 215.57 120.11 215.57C118.03 215.57 117.4 217.74 117.4 219.56C117.4 221.38 118.03 223.52 120.11 223.52ZM120.11 211.98C124.33 211.98 127.3 215.26 127.3 219.55C127.3 223.84 124.33 227.09 120.11 227.09C115.88 227.09 112.94 223.84 112.94 219.55C112.94 215.27 115.88 211.98 120.11 211.98Z" fill="#867767"/>
<path d="M132.14 219.39C132.14 221.35 132.82 223.52 134.87 223.52C137.05 223.52 137.52 221.34 137.52 219.53C137.52 217.47 136.81 215.57 134.87 215.57C132.82 215.57 132.14 217.58 132.14 219.39ZM141.83 226.68H137.57V225.03H137.52C136.66 226.38 135.34 227.09 133.77 227.09C129.48 227.09 127.67 223.24 127.67 219.22C127.67 215.51 129.56 211.99 133.42 211.99C135.11 211.99 136.39 212.65 137.31 213.94H137.36V207.03H141.83V226.68Z" fill="#867767"/>
<path d="M152.25 218.07C152.17 216.47 151.09 215.15 149.6 215.15C148.03 215.15 146.98 216.33 146.71 218.07H152.25ZM146.71 220.69C146.79 222.64 147.87 223.94 149.76 223.94C150.83 223.94 151.89 223.41 152.31 222.37H156.48C155.67 225.68 152.76 227.1 149.71 227.1C145.27 227.1 142.25 224.3 142.25 219.51C142.25 215.14 145.58 211.99 149.6 211.99C154.49 211.99 156.93 215.84 156.72 220.69H146.71V220.69Z" fill="#867767"/>
<path d="M161.1 221.98C161.1 222.69 161.39 223.22 161.83 223.57C162.25 223.89 162.86 224.06 163.49 224.06C164.35 224.06 165.59 223.67 165.59 222.55C165.59 221.45 164.2 221.23 163.41 221.04C160.6 220.29 157.08 220.22 157.08 216.36C157.08 212.92 160.63 211.98 163.31 211.98C166.31 211.98 169.43 212.89 169.59 216.61H165.46C165.46 216.01 165.25 215.62 164.88 215.37C164.51 215.13 164.01 215.01 163.47 215.01C162.73 215.01 161.55 215.1 161.55 216.09C161.55 217.44 164.55 217.69 166.59 218.16C169.35 218.73 170.05 220.83 170.05 222.01C170.05 225.84 166.59 227.1 163.51 227.1C160.28 227.1 156.97 225.98 156.84 221.98H161.1V221.98Z" fill="#867767"/>
<path d="M178.72 207.04H192.53V211.14H183.6V215.15H191.32V219.11H183.6V226.68H178.72V207.04Z" fill="#867767"/>
<path d="M192.77 212.4H197.1V214.91H197.15C197.81 213.08 199.33 212.13 201.25 212.13C201.59 212.13 201.96 212.15 202.3 212.24V216.51C201.72 216.34 201.19 216.23 200.59 216.23C198.38 216.23 197.23 217.83 197.23 219.61V226.68H192.76V212.4H192.77Z" fill="#867767"/>
<path d="M209.18 223.52C211.26 223.52 211.91 221.37 211.91 219.56C211.91 217.74 211.25 215.57 209.18 215.57C207.1 215.57 206.48 217.74 206.48 219.56C206.48 221.38 207.1 223.52 209.18 223.52ZM209.18 211.98C213.41 211.98 216.38 215.26 216.38 219.55C216.38 223.84 213.41 227.09 209.18 227.09C204.95 227.09 202.01 223.84 202.01 219.55C202.01 215.27 204.95 211.98 209.18 211.98Z" fill="#867767"/>
<path d="M216.74 212.4H221.07V214.36H221.13C221.94 212.93 223.39 211.99 225.04 211.99C226.75 211.99 228.27 212.57 229.01 214.3C230.08 212.79 231.42 211.99 233.26 211.99C237.59 211.99 238.07 215.42 238.07 218.15V226.68H233.61V218.29C233.61 216.75 232.9 215.84 231.74 215.84C229.83 215.84 229.64 217.39 229.64 219.7V226.69H225.18V218.58C225.18 216.89 224.7 215.85 223.49 215.85C221.89 215.85 221.21 216.82 221.21 219.74V226.7H216.74V212.4V212.4Z" fill="#867767"/>
<path d="M7.19 232.07H16.85V262.1H34.14V270.77H7.19V232.07Z" fill="#867767"/>
<path d="M36.27 242.63H45.1V270.77H36.27V242.63ZM45.1 239.11H36.27V232.07H45.1V239.11Z" fill="#867767"/>
<path d="M55.96 256.4C55.96 261.33 57.31 264.53 61.31 264.53C65.26 264.53 66.61 260.25 66.61 256.4C66.61 252.82 65.26 248.87 61.36 248.87C58.96 248.87 55.96 250.6 55.96 256.4ZM47.44 232.07H56.27V245.73H56.38C58.2 243.13 60.74 241.83 64.07 241.83C71.71 241.83 75.45 248.77 75.45 256.09C75.45 267.86 68.08 271.6 63.4 271.6C60.28 271.6 57.69 270.19 55.97 267.54H55.87V270.79H47.45V232.07H47.44Z" fill="#867767"/>
<path d="M96.05 253.8C95.9 250.65 93.76 248.05 90.8 248.05C87.69 248.05 85.6 250.38 85.08 253.8H96.05ZM85.09 258.95C85.25 262.8 87.37 265.35 91.12 265.35C93.25 265.35 95.32 264.32 96.16 262.26H104.42C102.81 268.77 97.04 271.59 91.02 271.59C82.24 271.59 76.27 266.06 76.27 256.63C76.27 248.01 82.86 241.83 90.81 241.83C100.47 241.83 105.3 249.42 104.89 258.96H85.09V258.95Z" fill="#867767"/>
<path d="M105.71 242.63H114.28V247.57H114.38C115.68 243.99 118.69 242.09 122.48 242.09C123.16 242.09 123.88 242.14 124.56 242.3V250.71C123.42 250.38 122.38 250.17 121.18 250.17C116.82 250.17 114.53 253.32 114.53 256.84V270.77H105.7V242.63H105.71Z" fill="#867767"/>
<path d="M143.78 248.6H138.33V261.4C138.33 263.62 139.58 264.11 141.5 264.11C142.22 264.11 143 264.01 143.78 264.01V270.78C142.17 270.84 140.56 271.05 138.95 271.05C131.42 271.05 129.49 268.78 129.49 261.13V248.6H125.03V242.63H129.49V234.12H138.32V242.63H143.77V248.6H143.78Z" fill="#867767"/>
<path d="M162.42 273.27C160.29 279.44 157.12 280.21 151.15 280.21H146.99V272.73H150.05C152.08 272.73 153.59 271.54 153.59 269.59C153.59 268.07 151.88 263.74 151.35 262.22L144.39 242.64H153.74L158.83 260.96H158.93L164.02 242.64H173.06L162.42 273.27Z" fill="#867767"/>
<path d="M209.16 245.88C208.65 241.98 205.73 239.92 201.68 239.92C195.44 239.92 193.06 245.67 193.06 251.42C193.06 257.17 195.45 262.91 201.68 262.91C206.2 262.91 208.8 260.2 209.16 255.75H218.82C218.3 265.72 211.29 271.58 201.89 271.58C190.67 271.58 183.4 262.63 183.4 251.41C183.4 240.19 190.67 231.24 201.89 231.24C209.89 231.24 218.57 236.56 218.82 245.87H209.16V245.88Z" fill="#867767"/>
<path d="M220.01 242.63H228.84V270.77H220.01V242.63ZM228.85 239.11H220.02V232.07H228.85V239.11Z" fill="#867767"/>
<path d="M248.74 248.6H243.29V261.4C243.29 263.62 244.54 264.11 246.46 264.11C247.19 264.11 247.97 264.01 248.75 264.01V270.78C247.14 270.84 245.53 271.05 243.92 271.05C236.39 271.05 234.47 268.78 234.47 261.13V248.6H230V242.63H234.47V234.12H243.3V242.63H248.75V248.6H248.74Z" fill="#867767"/>
<path d="M267.39 273.27C265.26 279.44 262.09 280.21 256.12 280.21H251.96V272.73H255.02C257.05 272.73 258.55 271.54 258.55 269.59C258.55 268.07 256.84 263.74 256.32 262.22L249.36 242.64H258.71L263.8 260.96H263.9L268.99 242.64H278.03L267.39 273.27Z" fill="#867767"/>
<path d="M28.4 0.690002H34.92V1.41H32.08V9.64H31.23V1.41H28.4V0.690002Z" fill="black"/>
<path d="M36.24 9.64V0.690002H37.08V4.53H42.38V0.690002H43.23V9.64H42.38V5.25H37.08V9.64H36.24Z" fill="black"/>
<path d="M45.36 9.64V0.690002H51.32V1.41H46.21V4.64H50.82V5.36H46.21V8.92H51.44V9.64H45.36Z" fill="black"/>
<path d="M64.19 6.55C64.18 7.47 63.65 8.51 62.97 9.05C62.44 9.47 61.42 9.89999 60.3 9.92999C58.28 9.98999 56.88 8.69999 56.4 6.77999C56.3 6.35999 56.22 5.77999 56.22 5.18999C56.22 4.57999 56.28 3.95999 56.43 3.44999C56.94 1.75999 58.02 0.429993 60.37 0.429993C61.01 0.429993 61.92 0.509992 62.8 1.13999C64.11 2.01999 64.17 3.18999 64.18 3.64999H62.4C62.35 3.13999 61.93 1.85999 60.11 1.99999C59.27 2.05999 58.61 2.66999 58.31 3.43999C58.18 3.75999 58.06 4.35999 58.02 5.00999C58 5.65999 58.06 6.35 58.31 6.91C58.6 7.57 59.01 7.96999 59.47 8.17999C59.71 8.27999 59.95 8.32999 60.21 8.32999C60.46 8.33999 60.73 8.3 61 8.23C62.29 7.87 62.33 6.95 62.4 6.55H64.19V6.55Z" fill="black"/>
<path d="M72.66 8.8C71.91 9.58 70.8 9.92999 69.64 9.92999C68.48 9.92999 67.38 9.58 66.62 8.8C65.78 7.92 65.28 6.54999 65.28 5.17999C65.28 3.80999 65.78 2.43999 66.62 1.55999C67.38 0.77999 68.49 0.429993 69.64 0.429993C70.8 0.429993 71.9 0.77999 72.66 1.55999C73.51 2.43999 74.01 3.80999 74.01 5.17999C74.01 6.54999 73.51 7.91 72.66 8.8ZM71.31 7.68999C71.91 7.13999 72.21 6.15999 72.22 5.17999C72.21 4.19999 71.91 3.21999 71.31 2.66999C70.84 2.22999 70.25 2.05999 69.65 2.05999C69.05 2.05999 68.45 2.22999 67.98 2.66999C67.38 3.21999 67.08 4.19999 67.07 5.17999C67.08 6.15999 67.38 7.13999 67.98 7.68999C68.45 8.11999 69.05 8.3 69.65 8.3C70.24 8.3 70.84 8.11999 71.31 7.68999Z" fill="black"/>
<path d="M78.88 9.63998L77.26 2.29999V9.63998H75.39V0.579987H78.12L79.81 7.53999L81.5 0.579987H84.22V9.63998H82.36V2.29999L80.74 9.63998H78.88Z" fill="black"/>
<path d="M86.01 0.579987H90.04C90.69 0.579987 92.08 0.579988 92.7 2.04999C93.06 2.87999 92.97 4.14999 92.69 4.79999C92.1 6.01999 91.16 6.48999 90.1 6.40999H87.87V9.63998H86.01V0.579987ZM87.88 4.84998H89.97C90.55 4.84998 90.86 4.37998 90.99 4.08998C91.1 3.80998 91.22 3.22998 91.06 2.81998C90.85 2.21998 90.34 2.11999 89.88 2.11999H87.87V4.84998H87.88Z" fill="black"/>
<path d="M96.35 0.579987V8.08998H100.69V9.63998H94.48V0.579987H96.35Z" fill="black"/>
<path d="M108.77 0.580009V2.13H104.07V4.19001H108.41V5.74001H104.07V8.08001H108.98V9.63H102.2V0.570007H108.77V0.580009Z" fill="black"/>
<path d="M117.08 0.579987V2.12998H114.43V9.63998H112.56V2.12998H109.81V0.579987H117.08Z" fill="black"/>
<path d="M124.92 0.580009V2.13H120.22V4.19001H124.56V5.74001H120.22V8.08001H125.13V9.63H118.35V0.570007H124.92V0.580009Z" fill="black"/>
<path d="M130.39 9.64V0.690002H136.34V1.41H131.23V4.64H135.84V5.36H131.23V8.92H136.46V9.64H130.39Z" fill="black"/>
<path d="M138.12 9.64V0.690002H141.18C142.18 0.690002 143.11 0.750001 143.94 1.36C145.12 2.22 145.43 3.96 145.43 5.15C145.43 6.33 145.17 7.65 144.35 8.54C143.53 9.46 142.36 9.63 141.18 9.63H138.12V9.64ZM138.97 8.92H141C141.76 8.92 142.42 8.87 143.11 8.51C144.3 7.9 144.6 6.37 144.6 5.15C144.6 3.84 144.31 2.41 143.06 1.74C142.52 1.45 141.76 1.41 141.01 1.41H138.98V8.92H138.97Z" fill="black"/>
<path d="M147.53 9.64V0.690002H148.37V9.64H147.53Z" fill="black"/>
<path d="M150.01 0.690002H156.52V1.41H153.69V9.64H152.85V1.41H150.01V0.690002V0.690002Z" fill="black"/>
<path d="M158.16 9.64V0.690002H159.01V9.64H158.16Z" fill="black"/>
<path d="M165.24 0.449982C168.04 0.449982 169.45 2.54998 169.45 5.17999C169.45 7.74998 168.03 9.87998 165.27 9.87998C162.51 9.87998 161.11 7.74998 161.11 5.17999C161.1 2.56999 162.56 0.449982 165.24 0.449982ZM168.6 5.17999C168.6 2.68999 167.32 1.16998 165.26 1.16998C162.96 1.16998 161.95 3.09999 161.95 5.17999C161.95 7.28998 162.95 9.15999 165.28 9.15999C167.61 9.15999 168.6 7.26998 168.6 5.17999Z" fill="black"/>
<path d="M172.1 1.83H172.08V9.64H171.23V0.690002H172.19L177.36 8.51H177.39V0.690002H178.23V9.64H177.25L172.1 1.83Z" fill="black"/>
</svg>
