<?xml version="1.0" encoding="UTF-8" standalone="no"?>
<svg
   xmlns:dc="http://purl.org/dc/elements/1.1/"
   xmlns:cc="http://creativecommons.org/ns#"
   xmlns:rdf="http://www.w3.org/1999/02/22-rdf-syntax-ns#"
   xmlns:svg="http://www.w3.org/2000/svg"
   xmlns="http://www.w3.org/2000/svg"
   xmlns:sodipodi="http://sodipodi.sourceforge.net/DTD/sodipodi-0.dtd"
   xmlns:inkscape="http://www.inkscape.org/namespaces/inkscape"
   width="1458.9393"
   height="487.02863"
   viewBox="0 0 1094.2045 365.27147"
   version="1.1"
   id="svg16510"
   sodipodi:docname="logo.svg"
   inkscape:version="0.92.3 (2405546, 2018-03-11)">
  <metadata
     id="metadata16516">
    <rdf:RDF>
      <cc:Work
         rdf:about="">
        <dc:format>image/svg+xml</dc:format>
        <dc:type
           rdf:resource="http://purl.org/dc/dcmitype/StillImage" />
        <dc:title></dc:title>
      </cc:Work>
    </rdf:RDF>
  </metadata>
  <defs
     id="defs16514" />
  <sodipodi:namedview
     pagecolor="#ffffff"
     bordercolor="#666666"
     borderopacity="1"
     objecttolerance="10"
     gridtolerance="10"
     guidetolerance="10"
     inkscape:pageopacity="0"
     inkscape:pageshadow="2"
     inkscape:window-width="1920"
     inkscape:window-height="1017"
     id="namedview16512"
     showgrid="false"
     fit-margin-top="0"
     fit-margin-left="0"
     fit-margin-right="0"
     fit-margin-bottom="0"
     inkscape:zoom="0.1475"
     inkscape:cx="729.47833"
     inkscape:cy="243.5297"
     inkscape:window-x="-8"
     inkscape:window-y="-8"
     inkscape:window-maximized="1"
     inkscape:current-layer="svg16510" />
  <g
     id="g16484"
     style="fill:#7b8187;stroke:#7b8187;stroke-width:0.09"
     transform="translate(-52.891255,-417.37581)">
    <path
       d="m 808.13,434.07 c 1.4,-10.93 13.43,-17.94 23.82,-16.45 37.8,4.35 75.52,9.53 112.94,16.51 27.14,5.14 54.21,11.04 80.61,19.27 25.73,8.23 51.23,18.44 73.53,33.93 -5.17,-0.24 -10.65,1.14 -15.59,-0.74 -38.28,-21.96 -81.58,-32.87 -124.47,-41.7 -40.31,-8.16 -81.06,-13.93 -121.89,-18.77 -4.52,-0.46 -9.39,-1.67 -13.71,0.37 -3.84,1.59 -7.44,4.9 -7.29,9.37 0.14,1.14 0.03,2.39 0.65,3.43 1.77,1.3 4.09,1.39 6.2,1.74 23.06,2.6 46.1,5.49 69.07,8.9 11.88,1.94 23.92,3.19 35.53,6.55 30.08,8.01 59.98,17.8 87.46,32.61 -7.95,6.45 -13.89,14.94 -21.08,22.17 -24.95,-16.76 -53.88,-26.28 -82.9,-33.18 -38.79,-9.07 -78.5,-13.48 -118.18,-16.38 -74.17,-5.01 -148.6,-4.07 -222.84,-1.25 -18.49,0.74 -36.92,2.44 -55.33,4.15 -59.15,5.83 -118.04,15.37 -175.53,30.58 -4.32,1.02 -8.55,2.97 -13.08,2.57 -3.3,-0.24 -6.52,-1.03 -9.78,-1.57 13.22,-4.35 26.88,-7.19 40.37,-10.55 a 1438.29,1438.29 0 0 1 142.12,-25.84 c 22.31,-2.86 44.69,-5.31 67.16,-6.58 46.69,-1.58 93.43,-1.44 140.12,0.33 46.3,1.76 92.56,5.21 138.52,11.16 41.43,5.52 82.75,12.85 122.8,25 7.29,2.16 14.77,5.62 22.55,3.81 2.5,-0.37 6.52,-2.21 3.84,-5.02 l 1.5,-1.67 a 15.5,15.5 0 0 0 -6.35,-3.64 C 919.77,459.4 847.48,445.95 774.94,437.89 A 1457.9,1457.9 0 0 0 623,429.52 c -41.66,0.02 -83.34,1.04 -124.89,4.13 -83.02,6.22 -165.62,20.57 -245.19,45.28 a 543.68,543.68 0 0 0 -45.34,16.61 c -3.11,1.26 -6.14,3.09 -9.59,3.13 -5.47,0.13 -10.95,-0.07 -16.42,-0.08 38.93,-18.85 80.44,-31.64 122.32,-42.05 90.48,-22.86 183.83,-32.99 277.03,-34.48 75.88,-1.7 151.96,1.81 227.21,12.01 z m 306.82,65.49 c 13.89,12.4 25.54,28.16 30.02,46.48 4.32,17.07 1.67,35.4 -5.7,51.25 -8.35,18.09 -21.57,33.48 -36.15,46.86 -2.46,2.06 -4.57,4.63 -7.51,6.01 a 55.66,55.66 0 0 1 4.87,-11 c 13.28,-11.89 24.69,-26.22 32.09,-42.52 2.28,-5.89 5.34,-11.93 4.84,-18.42 1.19,-7.98 2.56,-16.11 1.09,-24.16 -2.5,-17.98 -13.07,-33.65 -25.83,-46.08 0.73,-2.81 1.53,-5.61 2.28,-8.42 z M 87.37,562.42 c 12.34,-12.76 26.3,-23.87 40.99,-33.8 0.08,3.13 0.09,6.28 0.05,9.42 -21.66,15.37 -42.33,33.33 -55.99,56.43 -8.63,14.63 -13.58,31.97 -10.76,48.99 -0.17,12.54 5.9,24.22 12.59,34.48 l 1.88,-0.79 c -1.02,2.91 -2.05,5.82 -2.84,8.81 -9.56,-11.44 -16.89,-25.06 -19.34,-39.88 -2.54,-14.66 -0.18,-29.9 5.66,-43.5 6.42,-15.1 16.45,-28.39 27.76,-40.16 z m 70.85,128.47 c 1.55,-5.4 2.27,-11.1 4.6,-16.24 l 2.84,0.75 c -1.09,3.76 -2.33,7.49 -3.02,11.36 -0.83,3.81 2.42,7.94 6.38,7.82 13.39,0.24 26.79,-0.11 40.19,0.15 13.6,6.91 28.17,11.74 42.65,16.47 39.93,12.5 81.23,20.14 122.68,25.48 51.2,6.46 102.85,9.06 154.44,8.55 37.75,-0.25 75.45,-2.75 113.1,-5.36 76.02,-5.96 152.09,-16.29 225.55,-37.29 7.84,-2.52 16,-4.23 23.46,-7.79 9.89,-0.14 19.82,-0.4 29.7,0.2 a 70.24,70.24 0 0 1 -4.93,1.88 c -56.89,17.03 -115.14,29.23 -173.8,38.29 -33.2,5.02 -66.54,9.21 -100.03,11.75 -21.3,1.72 -42.69,1.65 -64.05,1.84 -72,0.16 -144.11,-3.12 -215.56,-12.29 -43.33,-5.74 -86.57,-13.46 -128.32,-26.61 -6.6,-1.95 -13.09,-5.27 -20.16,-4.66 -2.81,0.25 -6.03,0.71 -7.91,3.07 0.37,0.75 0.8,1.49 1.26,2.21 a 5.44,5.44 0 0 0 -1.28,2.31 c 2.28,2.15 5.42,2.92 8.28,4.02 38.28,13.79 77.78,23.98 117.67,31.85 90.13,17.56 182.22,23.94 273.95,22.49 71.04,-0.69 142.1,-6.3 212.16,-18.22 40.78,-6.99 81.26,-15.98 120.87,-27.96 a 494.66,494.66 0 0 0 23.08,-7.65 c -0.27,-2.01 -1.26,-2.88 -2.97,-2.62 l 2.02,-0.8 a 60.79,60.79 0 0 0 3.35,7.3 c -19.36,7.2 -39.33,12.64 -59.3,17.86 -80.19,20.4 -162.63,31.16 -245.22,34.97 -84.57,3.68 -169.54,1.76 -253.56,-8.99 -0.33,11.32 -12.76,18.82 -23.25,17.4 -45.23,-4.88 -90.39,-10.77 -135.06,-19.44 -42.15,-8.26 -84.47,-18.62 -122.98,-38.19 -15.47,-8.09 -30.68,-17.37 -43.02,-29.84 2.43,-0.11 4.86,-0.29 7.3,-0.3 10.4,10 22.74,17.75 35.36,24.63 31.98,16.98 67.07,27.06 102.28,34.85 51.44,11.24 103.7,18.21 156.01,23.91 5.36,0.86 11.22,-1.21 14.35,-5.75 0.86,-1.17 0.58,-2.69 0.74,-4.02 -0.05,-1.34 0.32,-2.8 -0.31,-4.01 -1.56,-1.39 -3.83,-1.36 -5.76,-1.75 -10.31,-1.2 -20.65,-2.2 -30.95,-3.47 A 565.56,565.56 0 0 1 245.71,734.31 C 214.82,723.88 184.27,710.8 158.22,690.89 Z"
       id="path16482"
       inkscape:connector-curvature="0"
       style="opacity:0.98000004" />
  </g>
  <path
     d="m 770.47874,9.1141899 c 4.32,-2.04 9.19,-0.83 13.71,-0.37 40.83,4.8400001 81.58,10.6100001 121.89,18.7700001 42.89,8.83 86.19,19.74 124.46996,41.7 4.94,1.88 10.42,0.5 15.59,0.74 4.31,0.28 9.16,-0.87 13.03,1.62 3.4,2.27 4.01,6.93 2.89,10.61 -0.75,2.81 -1.55,5.61 -2.28,8.42 12.76,12.43 23.33,28.1 25.83,46.08 1.47,8.05 0.1,16.18 -1.09,24.16 -3.63,16.64 -13.04,31.41 -24.01,44.19 -4.41,5.52 -10.62,9.77 -12.92,16.75 a 55.66,55.66 0 0 0 -4.87,11 c -7.47,13.05 -13.03,27.12 -20.25,40.31 -2.13,3.76 -6.72,4.52 -10.66,4.46 -1.76,6.5 -3.27,13.06 -5.08,19.54 -1.92,6.6 -9.53996,8.58 -15.63996,8.15 -24,-0.02 -48,0 -72,-0.01 -2.61,0.08 -5.08,-0.83 -7.56,-1.42 a 60.79,60.79 0 0 1 -3.35,-7.3 l -2.02,0.8 c -19.3,7.02 -39.16,12.36 -59.03,17.48 -88.26,22.09 -179.17,32.65 -270.05,34.95 -93.82,2.72 -188.08,-2.32 -280.57,-18.76 -41.37,-7.45 -82.4,-17.21 -122.25,-30.65 -6.66,-2.31 -13.36,-4.52 -19.86,-7.24 a 23.2,23.2 0 0 1 -1.26,-2.21 c 1.88,-2.36 5.1,-2.82 7.91,-3.07 7.07,-0.61 13.56,2.71 20.16,4.66 41.75,13.15 84.99,20.87 128.32,26.61 71.45,9.17 143.56,12.45 215.56,12.29 21.36,-0.19 42.75,-0.12 64.05,-1.84 33.49,-2.54 66.83,-6.73 100.03,-11.75 58.66,-9.06 116.91,-21.26 173.8,-38.29 1.66,-0.54 3.3,-1.21 4.93,-1.88 -9.88,-0.6 -19.81,-0.34 -29.7,-0.2 -3.64,0.01 -7.33,-0.39 -10.9,0.47 -60.86,18.65 -123.88,29.31 -187.06,36.31 -39.25,4.35 -78.69,6.77 -118.12,8.81 -49.65,2.28 -99.46,1.7 -149.03,-2.08 -44.1,-3.44 -88.08,-9.29 -131.23,-19.13 -25.7,-5.97 -51.2,-13.24 -75.57,-23.42 -3.14,-1.43 -6.64,-1 -9.97,-1.02 -13.4,-0.26 -26.8,0.09 -40.19,-0.15 -3.96,0.12 -7.21,-4.01 -6.38,-7.82 0.69,-3.87 1.93,-7.6 3.02,-11.36 l -2.84,-0.75 c -2.33,5.14 -3.05,10.84 -4.6,16.24 26.05,19.91 56.6,32.99 87.49,43.42 a 565.56,565.56 0 0 0 115.34,24.74 c 10.3,1.27 20.64,2.27 30.95,3.47 1.93,0.39 4.2,0.36 5.76,1.75 0.63,1.21 0.26,2.67 0.31,4.01 -3.48,4.02 -8.59,7.11 -14.09,6.27 -46.02,-4.9 -91.97,-10.98 -137.4,-19.89 -32.93,-6.56 -65.8,-14.46 -96.939995,-27.26 -20.17,-8.29 -39.68,-18.69 -56.5,-32.69 l -3.81,-0.05 c -2.44,0.01 -4.87,0.19 -7.3,0.3 -5.01,0.79 -10.49,-3.73 -8.74,-9 0.79,-2.99 1.82,-5.9 2.84,-8.81 -6.97,-10.12 -12.98,-21.32 -14.4700001,-33.69 -2.82,-17.02 2.1300001,-34.36 10.7600001,-48.99 13.66,-23.1 34.33,-41.06 55.99,-56.43 0.04,-3.14 0.03,-6.29 -0.05,-9.42 a 1892,1892 0 0 1 -0.03,-22.6 c -0.25,-3.74 2.92,-7.34 6.71,-7.37 15.51,-0.11 31.019995,0.02 46.529995,-0.06 5.47,0.01 10.95,0.21 16.42,0.08 3.45,-0.04 6.48,-1.87 9.59,-3.13 14.84,-6.24 30,-11.71 45.34,-16.61 79.57,-24.71 162.17,-39.06 245.19,-45.28 41.55,-3.09 83.23,-4.11 124.89,-4.13 a 1457.9,1457.9 0 0 1 151.94,8.37 c 72.54,8.06 144.83,21.51 213.96,45.29 a 15.5,15.5 0 0 1 6.35,3.64 l -1.5,1.67 c -5.5,2.79 -12.03,2.19 -17.72,0.38 -29.55,-9.65 -59.99,-16.29 -90.6,-21.58 -44.87,-7.68 -90.23,-12.2 -135.64,-15.13 a 1943.77,1943.77 0 0 0 -155.7,-3.23 610.1,610.1 0 0 0 -60.14,3.25 1410.35,1410.35 0 0 0 -154.93,24.81 c -25.39,5.61 -50.73,11.6 -75.66,19.01 4.3,0.16 8.61,0.19 12.91,0.18 3.26,0.54 6.48,1.33 9.78,1.57 4.53,0.4 8.76,-1.55 13.08,-2.57 57.49,-15.21 116.38,-24.75 175.53,-30.58 18.41,-1.71 36.84,-3.41 55.33,-4.15 74.24,-2.82 148.67,-3.76 222.84,1.25 39.68,2.9 79.39,7.31 118.18,16.38 29.02,6.9 57.95,16.42 82.9,33.18 7.19,-7.23 13.13,-15.72 21.08,-22.17 1.37,-0.56 2.76,-1.03 4.17,-1.52 -28.18,-15.29 -58.66,-25.85 -89.58,-34.08 -14.93,-4.41 -30.5,-5.85 -45.82,-8.33 a 2015.13,2015.13 0 0 0 -59.95,-7.58 c -2.63,-0.31 -5.2,-0.97 -7.73,-1.72 -0.15,-4.47 3.45,-7.78 7.29,-9.3700001 m -231.32,41.6900001 a 861.95,861.95 0 0 0 -57.01,3.48 c -50.44,4.66 -100.67,12.25 -149.96,24.03 -3.12,0.73 -6.31,1.32 -9.25,2.67 12.38,0.57 24.79,0 37.18,0.28 1.94,0.02 3.59,1.15 5.28,1.97 2.06,-1.17 4.27,-2.23 6.72,-2.03 19.64,0.01 39.28,0.03 58.92,-0.01 2.37,-0.23 4.45,0.99 6.36,2.25 2.07,-1.14 4.23,-2.41 6.69,-2.27 47.68,0.01 95.36,-0.06 143.04,-0.08 1.97,-0.1 3.66,1.01 5.35,1.87 2.08,-0.96 4.21,-2.07 6.58,-1.89 78.34,0.01 156.68,-0.13 235.03,-0.07 3.71,0.08 7.43,-0.01 11.11,-0.65 8.98,-1.44 18.11,-1.52 27.19,-1.13 -17.86,-7 -36.53,-11.7 -55.29,-15.52 -40.22,-7.94 -81.17,-11.33 -122.07,-13.24 -51.93,-2.17 -103.94,-1.63 -155.87,0.34 m 420.37,28.26 c -13.89,15.49 -27.82,30.95 -41.65,46.49 1.26,-8.24 0.27,-17.19 -4.55,-24.19 -5.31,-7.81 -14.07,-12.44 -22.93,-15.02 -16.33,-4.74 -33.65,-3.98 -50.28,-1.49 -80.36,0.07 -160.73,0.06 -241.09,0.13 -3.08,-0.53 -4.67,2.35 -6.23,4.41 -1.75,-2.03 -3.44,-4.99 -6.59,-4.4 -47.37,0.05 -94.73,0.05 -142.09,0.11 -3.04,-0.33 -4.8,2.57 -6.83,4.29 -1.74,-1.82 -3.29,-4.76 -6.26,-4.29 -19.97,0 -39.94,-0.05 -59.9,0.05 -2.63,-0.09 -4.11,2.45 -5.86,3.98 -1.57,-1.42 -2.79,-3.9 -5.15,-3.95 -12.18,-0.29 -24.39,0.28 -36.54,-0.27 -11.52,-3.38 -23.72,-2.55 -35.39,-0.45 -6.85,1.51 -13.79,-0.16 -20.59,-1.1 -8.12,-1.23 -16.36,-0.78 -24.54,-0.8 -1.92,-0.22 -2.89,1.6 -3.74,2.97 -13.05,-3.64 -26.84,-3.73 -40.19,-1.94 -3.34,0.41 -6.58,1.5 -9.96,1.54 -35.34,0 -70.67,-0.03 -105.999995,0.01 -2.07,-0.41 -4.07,1.27 -3.8,3.41 -0.07,16.03 -0.01,32.08 -0.03,48.12 -0.24,1.74 0.74,3.77 2.69,3.91 3.68,0.27 7.38,0.02 11.07,0.08 -1.64,6.01 -3.03,12.08 -4.78,18.05 -13.46,2.46 -26.26,9.52 -34.77,20.35 a 57.5,57.5 0 0 0 -10.31,20.51 c -6.51,23.73 -12.9,47.49 -19.45,71.21 0.66,1.31 1.56,2.87 3.3,2.69 23.35,0.15 46.71,-0.01 70.06,0.07 1.74,0.08 4.119995,-0.08 4.699995,-2.11 1.76,-5.78 3.01,-11.71 4.59,-17.55 3.71,0.02 7.42,0.01 11.13,0.02 -1.34,5.29 -2.84,10.55 -4.04,15.89 -0.66,2.12 1.4,4.05 3.49,3.71 23.05,0.02 46.1,0.08 69.15,-0.03 2.84,0.02 3.82,-3.14 5.33,-4.99 1.32,2.1 2.45,5.39 5.54,5.03 35.71,0.04 71.43,-0.01 107.15,0.02 3.53,0.14 6.31,-2.39 9.34,-3.81 1.24,1.5 2.24,3.89 4.58,3.73 31.02,0.11 62.04,0 93.07,0.05 3.57,0.33 6.05,-2.69 8.83,-4.41 2.56,1.59 4.74,4.53 8.02,4.4 16.37,0 32.75,0.01 49.12,-0.01 3.02,0.14 5.1,-2.44 7.4,-3.98 2.71,1.59 5.09,4.47 8.56,4.01 22.67,-0.06 45.34,0.04 68.02,-0.05 3.35,0.07 4.27,-3.86 5.62,-6.19 -0.01,2.36 0.02,6.24 3.3,6.17 73.02,0.11 146.05,0.02 219.08,0.05 2.7,0.5 4.09,-1.94 5,-4.03 1.11,1.83 2.3,4.34 4.88,4.04 39.51,0 79.03,0.11 118.54,0.17 -1.58,5.91 -3.06,11.85 -4.63,17.76 -0.57,2.37 -1.22,5.03 -0.06,7.34 1.2,2.2 3.93,2.58 6.21,2.56 h 74.06 c 3.97,0.11 8.93996,-1.33 9.97996,-5.69 2.01,-7.3 3.74,-14.66 5.7,-21.97 2.65,-0.04 5.38,0.13 7.98,-0.61 2.09,-0.76 3,-3.02 4,-4.83 11.93,-24.65 23.98,-49.25 35.85,-73.93 1.57,-2.59 1.05,-7.25 -2.64,-7.37 -7.62,-0.23 -15.26,-0.01 -22.89,-0.09 9.02,-35.09 18.11,-70.16 27.14,-105.25 0.45,-2.09 0.94,-4.71 -0.73,-6.4 -1.41,-1.42 -3.56,-1.21 -5.37,-1.3 -27.67,0.06 -55.33996,-0.04 -82.99996,0.05 -3.92,-0.17 -7.22,2.27 -9.62,5.12 m -38.54,29.22 c 0.32,2.14 0.7,4.29 1.09,6.43 l 2.62,-2.37 a 55.12,55.12 0 0 0 -3.71,-4.06 m -508.79,169.07 c -31.05,0.07 -62.1,-0.01 -93.16,0.04 -2.58,0.29 -4.79,-1.12 -6.84,-2.47 -2.24,1.09 -4.48,2.55 -7.08,2.43 -33.4,0.15 -66.81,-0.2 -100.2,0.18 2.19,1.49 4.76,2.21 7.24,3.08 21.96,7.86 44.59,13.7 67.41,18.44 41.94,8.59 84.6,13.37 127.33,15.76 46.99,2.48 94.13,1.98 141.06,-1.44 67.83,-3.98 135.64,-11.74 201.91,-27.05 10.92,-2.78 22.06,-4.94 32.67,-8.75 -22.45,-0.45 -44.92,-0.07 -67.38,-0.2 -48.03,0.01 -96.07,-0.01 -144.1,0.01 -1.85,0.09 -3.55,-0.7 -5.3,-1.14 -1.89,0.38 -3.7,1.23 -5.66,1.14 -22.67,-0.03 -45.34,0.01 -68,-0.01 -2.81,0.24 -5.1,-1.51 -7.27,-3 -2.35,1.45 -4.76,3.24 -7.68,3.02 -16.37,0.04 -32.73,0.01 -49.1,0.01 -3.12,0.28 -5.66,-1.72 -8.05,-3.41 -2.4,1.5 -4.79,3.52 -7.8,3.36 z"
     id="path16486"
     inkscape:connector-curvature="0"
     style="fill:#acb4b9;stroke:#acb4b9;stroke-width:0.09" />
  <g
     id="g16492"
     style="fill:#47484a;stroke:#47484a;stroke-width:0.09"
     transform="translate(-52.891255,-417.37581)">
    <path
       d="m 816.73,439.29 c -0.62,-1.04 -0.51,-2.29 -0.65,-3.43 2.53,0.75 5.1,1.41 7.73,1.72 20.02,2.23 40,4.75 59.95,7.58 15.32,2.48 30.89,3.92 45.82,8.33 30.92,8.23 61.4,18.79 89.58,34.08 -1.41,0.49 -2.8,0.96 -4.17,1.52 -27.48,-14.81 -57.38,-24.6 -87.46,-32.61 -11.61,-3.36 -23.65,-4.61 -35.53,-6.55 -22.97,-3.41 -46.01,-6.3 -69.07,-8.9 -2.11,-0.35 -4.43,-0.44 -6.2,-1.74 z m -282.78,12.89 a 610.1,610.1 0 0 1 60.14,-3.25 c 51.91,-0.96 103.87,0.03 155.7,3.23 45.41,2.93 90.77,7.45 135.64,15.13 30.61,5.29 61.05,11.93 90.6,21.58 5.69,1.81 12.22,2.41 17.72,-0.38 2.68,2.81 -1.34,4.65 -3.84,5.02 -7.78,1.81 -15.26,-1.65 -22.55,-3.81 -40.05,-12.15 -81.37,-19.48 -122.8,-25 -45.96,-5.95 -92.22,-9.4 -138.52,-11.16 a 1954.24,1954.24 0 0 0 -140.12,-0.33 c -22.47,1.27 -44.85,3.72 -67.16,6.58 a 1438.29,1438.29 0 0 0 -142.12,25.84 c -13.49,3.36 -27.15,6.2 -40.37,10.55 -4.3,0.01 -8.61,-0.02 -12.91,-0.18 24.93,-7.41 50.27,-13.4 75.66,-19.01 a 1410.35,1410.35 0 0 1 154.93,-24.81 z m 603.46,126.04 c 0.5,6.49 -2.56,12.53 -4.84,18.42 -7.4,16.3 -18.81,30.63 -32.09,42.52 2.3,-6.98 8.51,-11.23 12.92,-16.75 10.97,-12.78 20.38,-27.55 24.01,-44.19 z M 74.25,677.94 C 67.56,667.68 61.49,656 61.66,643.46 c 1.49,12.37 7.5,23.57 14.47,33.69 z m 15.08,16.72 3.81,0.05 c 16.82,14 36.33,24.4 56.5,32.69 31.14,12.8 64.01,20.7 96.94,27.26 45.43,8.91 91.38,14.99 137.4,19.89 5.5,0.84 10.61,-2.25 14.09,-6.27 -0.16,1.33 0.12,2.85 -0.74,4.02 -3.13,4.54 -8.99,6.61 -14.35,5.75 -52.31,-5.7 -104.57,-12.67 -156.01,-23.91 -35.21,-7.79 -70.3,-17.87 -102.28,-34.85 -12.62,-6.88 -24.96,-14.63 -35.36,-24.63 z m 119.88,0.07 c 3.33,0.02 6.83,-0.41 9.97,1.02 24.37,10.18 49.87,17.45 75.57,23.42 43.15,9.84 87.13,15.69 131.23,19.13 49.57,3.78 99.38,4.36 149.03,2.08 39.43,-2.04 78.87,-4.46 118.12,-8.81 63.18,-7 126.2,-17.66 187.06,-36.31 3.57,-0.86 7.26,-0.46 10.9,-0.47 -7.46,3.56 -15.62,5.27 -23.46,7.79 -73.46,21 -149.53,31.33 -225.55,37.29 -37.65,2.61 -75.35,5.11 -113.1,5.36 -51.59,0.51 -103.24,-2.09 -154.44,-8.55 -41.45,-5.34 -82.75,-12.98 -122.68,-25.48 -14.48,-4.73 -29.05,-9.56 -42.65,-16.47 z"
       id="path16488"
       inkscape:connector-curvature="0" />
    <path
       d="m 206.01,712.78 c 0.24,-0.88 0.66,-1.64 1.28,-2.31 6.5,2.72 13.2,4.93 19.86,7.24 39.85,13.44 80.88,23.2 122.25,30.65 92.49,16.44 186.75,21.48 280.57,18.76 90.88,-2.3 181.79,-12.86 270.05,-34.95 19.87,-5.12 39.73,-10.46 59.03,-17.48 1.71,-0.26 2.7,0.61 2.97,2.62 a 494.66,494.66 0 0 1 -23.08,7.65 c -39.61,11.98 -80.09,20.97 -120.87,27.96 -70.06,11.92 -141.12,17.53 -212.16,18.22 -91.73,1.45 -183.82,-4.93 -273.95,-22.49 -39.89,-7.87 -79.39,-18.06 -117.67,-31.85 -2.86,-1.1 -6,-1.87 -8.28,-4.02 z"
       id="path16490"
       inkscape:connector-curvature="0" />
  </g>
  <g
     id="g16496"
     style="fill:#de8a3d;stroke:#de8a3d;stroke-width:0.09"
     transform="translate(-52.891255,-417.37581)">
    <path
       d="m 592.05,468.18 c 51.93,-1.97 103.94,-2.51 155.87,-0.34 40.9,1.91 81.85,5.3 122.07,13.24 18.76,3.82 37.43,8.52 55.29,15.52 -9.08,-0.39 -18.21,-0.31 -27.19,1.13 -3.68,0.64 -7.4,0.73 -11.11,0.65 -78.35,-0.06 -156.69,0.08 -235.03,0.07 -2.37,-0.18 -4.5,0.93 -6.58,1.89 -1.69,-0.86 -3.38,-1.97 -5.35,-1.87 -47.68,0.02 -95.36,0.09 -143.04,0.08 -2.46,-0.14 -4.62,1.13 -6.69,2.27 -1.91,-1.26 -3.99,-2.48 -6.36,-2.25 -19.64,0.04 -39.28,0.02 -58.92,0.01 -2.45,-0.2 -4.66,0.86 -6.72,2.03 -1.69,-0.82 -3.34,-1.95 -5.28,-1.97 -12.39,-0.28 -24.8,0.29 -37.18,-0.28 2.94,-1.35 6.13,-1.94 9.25,-2.67 49.29,-11.78 99.52,-19.37 149.96,-24.03 a 861.95,861.95 0 0 1 57.01,-3.48 z m 381.83,57.48 a 55.12,55.12 0 0 1 3.71,4.06 l -2.62,2.37 c -0.39,-2.14 -0.77,-4.29 -1.09,-6.43 z M 465.09,694.73 c 3.01,0.16 5.4,-1.86 7.8,-3.36 2.39,1.69 4.93,3.69 8.05,3.41 16.37,0 32.73,0.03 49.1,-0.01 2.92,0.22 5.33,-1.57 7.68,-3.02 2.17,1.49 4.46,3.24 7.27,3 22.66,0.02 45.33,-0.02 68,0.01 1.96,0.09 3.77,-0.76 5.66,-1.14 1.75,0.44 3.45,1.23 5.3,1.14 48.03,-0.02 96.07,0 144.1,-0.01 22.46,0.13 44.93,-0.25 67.38,0.2 -10.61,3.81 -21.75,5.97 -32.67,8.75 -66.27,15.31 -134.08,23.07 -201.91,27.05 a 1125.34,1125.34 0 0 1 -141.06,1.44 c -42.73,-2.39 -85.39,-7.17 -127.33,-15.76 -22.82,-4.74 -45.45,-10.58 -67.41,-18.44 -2.48,-0.87 -5.05,-1.59 -7.24,-3.08 33.39,-0.38 66.8,-0.03 100.2,-0.18 2.6,0.12 4.84,-1.34 7.08,-2.43 2.05,1.35 4.26,2.76 6.84,2.47 31.06,-0.05 62.11,0.03 93.16,-0.04 z"
       id="path16494"
       inkscape:connector-curvature="0" />
  </g>
  <g
     id="g16502"
     style="stroke:#000000;stroke-width:0.09"
     transform="translate(-52.891255,-417.37581)">
    <path
       d="m 1012.42,496.44 c 2.4,-2.85 5.7,-5.29 9.62,-5.12 27.66,-0.09 55.33,0.01 83,-0.05 1.81,0.09 3.96,-0.12 5.37,1.3 1.67,1.69 1.18,4.31 0.73,6.4 -9.03,35.09 -18.12,70.16 -27.14,105.25 7.63,0.08 15.27,-0.14 22.89,0.09 3.69,0.12 4.21,4.78 2.64,7.37 -11.87,24.68 -23.92,49.28 -35.85,73.93 -1,1.81 -1.91,4.07 -4,4.83 -2.6,0.74 -5.33,0.57 -7.98,0.61 -1.96,7.31 -3.69,14.67 -5.7,21.97 -1.04,4.36 -6.01,5.8 -9.98,5.69 h -74.06 c -2.28,0.02 -5.01,-0.36 -6.21,-2.56 -1.16,-2.31 -0.51,-4.97 0.06,-7.34 1.57,-5.91 3.05,-11.85 4.63,-17.76 -39.51,-0.06 -79.03,-0.17 -118.54,-0.17 -2.58,0.3 -3.77,-2.21 -4.88,-4.04 -0.91,2.09 -2.3,4.53 -5,4.03 -73.03,-0.03 -146.06,0.06 -219.08,-0.05 -3.28,0.07 -3.31,-3.81 -3.3,-6.17 -1.35,2.33 -2.27,6.26 -5.62,6.19 -22.68,0.09 -45.35,-0.01 -68.02,0.05 -3.47,0.46 -5.85,-2.42 -8.56,-4.01 -2.3,1.54 -4.38,4.12 -7.4,3.98 -16.37,0.02 -32.75,0.01 -49.12,0.01 -3.28,0.13 -5.46,-2.81 -8.02,-4.4 -2.78,1.72 -5.26,4.74 -8.83,4.41 -31.03,-0.05 -62.05,0.06 -93.07,-0.05 -2.34,0.16 -3.34,-2.23 -4.58,-3.73 -3.03,1.42 -5.81,3.95 -9.34,3.81 -35.72,-0.03 -71.44,0.02 -107.15,-0.02 -3.09,0.36 -4.22,-2.93 -5.54,-5.03 -1.51,1.85 -2.49,5.01 -5.33,4.99 -23.05,0.11 -46.1,0.05 -69.15,0.03 -2.09,0.34 -4.15,-1.59 -3.49,-3.71 1.2,-5.34 2.7,-10.6 4.04,-15.89 -3.71,-0.01 -7.42,0 -11.13,-0.02 -1.58,5.84 -2.83,11.77 -4.59,17.55 -0.58,2.03 -2.96,2.19 -4.7,2.11 -23.35,-0.08 -46.71,0.08 -70.06,-0.07 -1.74,0.18 -2.64,-1.38 -3.3,-2.69 6.55,-23.72 12.94,-47.48 19.45,-71.21 a 57.5,57.5 0 0 1 10.31,-20.51 c 8.51,-10.83 21.31,-17.89 34.77,-20.35 1.75,-5.97 3.14,-12.04 4.78,-18.05 -3.69,-0.06 -7.39,0.19 -11.07,-0.08 -1.95,-0.14 -2.93,-2.17 -2.69,-3.91 0.02,-16.04 -0.04,-32.09 0.03,-48.12 -0.27,-2.14 1.73,-3.82 3.8,-3.41 35.33,-0.04 70.66,-0.01 106,-0.01 3.38,-0.04 6.62,-1.13 9.96,-1.54 13.35,-1.79 27.14,-1.7 40.19,1.94 0.85,-1.37 1.82,-3.19 3.74,-2.97 8.18,0.02 16.42,-0.43 24.54,0.8 6.8,0.94 13.74,2.61 20.59,1.1 11.67,-2.1 23.87,-2.93 35.39,0.45 12.15,0.55 24.36,-0.02 36.54,0.27 2.36,0.05 3.58,2.53 5.15,3.95 1.75,-1.53 3.23,-4.07 5.86,-3.98 19.96,-0.1 39.93,-0.05 59.9,-0.05 2.97,-0.47 4.52,2.47 6.26,4.29 2.03,-1.72 3.79,-4.62 6.83,-4.29 47.36,-0.06 94.72,-0.06 142.09,-0.11 3.15,-0.59 4.84,2.37 6.59,4.4 1.56,-2.06 3.15,-4.94 6.23,-4.41 80.36,-0.07 160.73,-0.06 241.09,-0.13 16.63,-2.49 33.95,-3.25 50.28,1.49 8.86,2.58 17.62,7.21 22.93,15.02 4.82,7 5.81,15.95 4.55,24.19 13.83,-15.54 27.76,-31 41.65,-46.49 m -90.13,129.83 c -4.2,15.36 -7.96,30.85 -11.99,46.26 h 86.55 c -2.55,9.74 -4.91,19.53 -7.6,29.23 16.76,0.24 33.53,0.05 50.3,0.1 2.5,-9.78 5.02,-19.55 7.53,-29.33 h 13.11 l 20.21,-44.66 H 972.27 l 52.66,-64.71 c -4.83,18.97 -9.74,37.91 -14.59,56.87 16.75,-0.02 33.5,0.05 50.25,-0.03 9.82,-38.38 19.71,-76.73 29.54,-115.1 h -59.15 c -36.21,40.47 -72.67,80.74 -108.69,121.37 M 310.72,518.31 c -5.59,21.69 -11.21,43.37 -16.8,65.06 8.53,0.01 17.07,-0.02 25.61,0.01 4.17,-16.01 8.28,-32.04 12.44,-48.05 4.37,0.06 8.76,-0.14 13.13,0.12 2.62,0.19 5.58,1.1 6.82,3.63 1.49,3.1 0.77,6.68 0.07,9.9 -2.93,11.47 -5.94,22.92 -8.87,34.39 l 25.63,-0.01 c 3.79,-14.77 7.67,-29.51 11.43,-44.29 1.19,-4.94 1.11,-10.79 -2.49,-14.75 -4.2,-4.55 -10.71,-5.74 -16.63,-5.98 -11.78,-0.7 -23.48,4.88 -35.14,1.25 -4.9,-1.69 -10.11,-1.3 -15.2,-1.28 m -55.67,0.85 c -9.07,1.27 -18.23,4.51 -24.85,11.08 -7.69,7.52 -11.28,18.21 -12.69,28.66 -0.9,6.68 -0.06,14.52 5.42,19.14 6.08,5.03 14.43,5.49 21.98,5.76 12.05,0.09 24.73,0.28 35.88,-4.98 8.33,-3.87 13.81,-12 16.42,-20.58 2.51,-8.24 4.53,-17.22 2.08,-25.71 -1.85,-6.48 -7.86,-10.79 -14.17,-12.32 -9.81,-2.39 -20.1,-2.3 -30.07,-1.05 M 894,521.2 c -7.48,1.88 -15.03,6.01 -18.47,13.24 -2.45,5.22 -4.12,11.79 -1.11,17.13 3.05,4.9 9.19,6.41 14.58,6.87 7.31,0.4 14.65,-0.03 21.98,0.22 2.34,0.09 5.11,0.78 6.3,3.04 1.07,2 0.09,4.57 -1.74,5.74 -2.78,1.93 -6.33,1.7 -9.54,1.74 -11.68,-0.04 -23.36,0 -35.03,-0.02 -3,4.69 -5.76,9.54 -8.74,14.24 h 51.83 c 6.59,-0.03 13.34,-0.91 19.31,-3.86 a 22.8,22.8 0 0 0 11.8,-13.37 c 1.51,-4.74 2.16,-10.38 -0.67,-14.77 -2.7,-4.09 -7.91,-5.39 -12.53,-5.49 -7.69,-0.13 -15.37,0.02 -23.05,-0.06 -2.63,-0.12 -5.67,-0.11 -7.69,-2.06 -2.05,-2.41 -0.44,-6.19 2.1,-7.55 4.88,-2.73 11.14,-2.88 16.27,-0.73 1.9,0.65 2.84,2.5 3.06,4.4 8.36,-0.03 16.72,0.02 25.09,-0.03 1.1,-5 1.11,-10.97 -2.87,-14.75 -5.3,-4.96 -12.98,-5.79 -19.89,-6.35 -10.36,-0.45 -20.89,-0.12 -30.99,2.42 m -737.86,-0.33 c 0,4.82 -0.01,9.64 0.01,14.47 h 20.29 c -4.1,16.02 -8.36,32.01 -12.37,48.06 8.51,-0.04 17.02,-0.07 25.52,0.01 4.28,-16 8.3,-32.06 12.5,-48.08 6.46,0.01 12.92,-0.01 19.38,0.01 2.19,-4.82 4.34,-9.65 6.51,-14.47 h -71.84 m 223.89,0 c 6.8,12.91 13.8,25.72 20.49,38.69 -2.19,7.9 -4.14,15.87 -6.22,23.81 h 25.63 c 2.22,-7.93 3.85,-16.06 6.38,-23.88 12.6,-12.96 25.41,-25.72 38.07,-38.62 l -33.58,-0.01 c -4.6,6.73 -9.38,13.35 -13.85,20.17 -2.03,-6.78 -4.32,-13.47 -6.54,-20.19 -10.13,0.06 -20.26,0.01 -30.38,0.03 m 104.76,62.49 25.61,0.01 c 2.19,-8.38 4.34,-16.78 6.52,-25.17 8.16,0.01 16.32,-0.02 24.49,0.01 l -6.5,25.15 c 15.92,-0.03 31.83,0.09 47.75,-0.05 1.7,-3.08 3.54,-6.09 5.33,-9.11 h 19.26 l -1.58,-13.96 -9.39,-0.01 12.04,-20.28 4.92,43.41 h 27.81 l -12.83,-62.49 c -9.62,0.01 -19.24,-0.03 -28.86,0.02 -11.74,16.36 -23.55,32.66 -35.32,49 4.2,-16.34 8.45,-32.68 12.66,-49.02 h -25.64 c -2.21,8.53 -4.4,17.07 -6.62,25.6 -8.17,-0.05 -16.35,0.09 -24.51,-0.08 2.3,-8.48 4.41,-17.02 6.64,-25.52 h -25.63 l -16.15,62.49 m 160.59,-21.78 c -1.33,5.39 -1.85,11.76 1.72,16.44 3.51,4.52 9.52,6.01 14.98,6.37 10.48,0.47 21.47,-1.07 30.47,-6.78 7.62,6.29 18.05,6.8 27.49,6.87 10.69,-0.21 22.43,-0.51 31.37,-7.15 6.15,-4.47 8.23,-12.11 9.8,-19.15 l 9.64,-37.31 h -25.88 l -9.58,39.11 c -1.34,6.24 -8.07,10.52 -14.29,9.55 -2.11,-0.32 -4.14,-1.65 -4.89,-3.69 -1.01,-2.55 -0.13,-5.27 0.45,-7.8 3.09,-12.36 6.02,-24.76 9.15,-37.11 -8.32,-0.15 -16.63,-0.03 -24.94,-0.06 -3.23,13.11 -6.41,26.24 -9.66,39.35 -1.5,6.53 -9.05,10.87 -15.45,8.99 -3.43,-0.98 -4.81,-5 -3.87,-8.21 3.17,-13.4 6.55,-26.75 9.8,-40.13 h -25.8 c -3.5,13.57 -7.03,27.14 -10.51,40.71 m 120.22,21.79 h 25.62 c 2.25,-8.61 4.42,-17.23 6.71,-25.82 4.59,8.55 9.03,17.2 13.52,25.8 10.88,0.03 21.76,0.01 32.65,0.01 -7.36,-11.33 -14.79,-22.61 -22.16,-33.94 11.21,-9.51 22.4,-19.04 33.6,-28.55 -9.92,-0.02 -19.83,0.02 -29.75,-0.02 -8.19,7.77 -16.26,15.67 -24.45,23.45 2,-7.82 4.04,-15.62 6.05,-23.43 h -25.63 l -16.16,62.5 m 91.58,-47 12.34,-0.83 4.92,-14.94 h -15.58 c -0.56,5.26 -1.13,10.51 -1.68,15.77 M 214.2,596.43 c -1.16,4.47 -2.29,8.96 -3.47,13.44 -4.52,-7.55 -13.42,-10.66 -21.63,-12.12 -10.6,-1.81 -21.43,-1.48 -32.13,-0.81 -9.19,0.79 -18.75,2.24 -26.65,7.35 -6.09,3.9 -10.17,10.36 -11.96,17.29 -4.4,16.98 -8.74,33.97 -13.1,50.95 l 31.45,0.01 c 3.98,-15.37 7.89,-30.77 11.87,-46.14 2.14,-7.71 11.08,-10.89 18.36,-10.64 4.96,0.01 11.38,2.46 11.83,8.16 0.04,5.44 -2.88,11.88 -8.7,13.06 -5.93,1.09 -12.02,0.38 -18.01,0.59 -1.36,5.65 -3.01,11.23 -4.36,16.89 8.11,0 16.22,0.02 24.33,0 11.1,-0.06 22.17,-4.23 30.31,-11.82 -2.62,9.95 -5.12,19.93 -7.7,29.89 10.47,0.02 20.94,-0.03 31.42,0.03 4.94,-18.93 9.74,-37.89 14.64,-56.83 6.09,0.06 12.19,-0.1 18.29,0.06 3.87,0.08 8.19,2.18 9.16,6.23 1.35,5.64 -2.62,11.21 -7.47,13.73 -4.85,2.7 -10.58,1.59 -15.87,1.82 l 13.65,34.96 h 33.16 c -4.51,-7.56 -9.07,-15.09 -13.56,-22.66 4.75,-2 9.18,-4.72 13.09,-8.07 -1.19,6.68 -1.66,14.06 1.81,20.18 3.01,5.36 8.87,8.33 14.66,9.67 9.29,2.12 18.9,1.77 28.36,1.71 11.92,-0.4 24.38,-1.44 34.99,-7.39 9.28,-5.11 15.29,-14.54 18.51,-24.4 3,-9.38 5.61,-19.75 2.42,-29.42 -2.68,-8.08 -10.93,-12.5 -18.83,-14 -11.82,-2.24 -24.05,-2.2 -35.94,-0.57 -13.11,1.83 -26.35,7.35 -34.63,18.07 -0.75,-4.53 -2.6,-8.98 -5.96,-12.18 -5.39,-5.29 -13.23,-7.03 -20.56,-7.03 -20.59,-0.02 -41.19,0.01 -61.78,-0.01 m 296.97,0 c -6.54,25.36 -13.04,50.73 -19.56,76.1 l 31.02,0.01 8.12,-31.59 c 5.48,10.53 10.92,21.08 16.42,31.59 18.69,-0.03 37.38,0.01 56.07,-0.01 2.17,-3.72 4.4,-7.4 6.52,-11.15 7.79,-0.11 15.59,-0.02 23.39,-0.05 l -1.92,-16.99 -11.35,-0.01 c 4.85,-8.22 9.69,-16.45 14.56,-24.67 l 5.97,52.87 60.5,0.01 c 5.03,-19.5 10.03,-39 15.04,-58.5 h 13.18 c -5,19.5 -10.03,38.99 -15.02,58.5 25.45,-0.02 50.9,0 76.36,-0.01 l 4.63,-18.03 h -44.9 l 9.96,-38.76 44.9,-0.01 c 1.65,-6.43 3.31,-12.86 4.95,-19.3 H 664.07 a 5495.9,5495.9 0 0 0 3.6,17.61 h 17.26 l -12.7,49.42 C 667.6,641.13 663.1,618.77 658.52,596.44 H 623.6 c -15.16,21.17 -30.34,42.33 -45.51,63.5 l -18.3,-26.9 45.73,-36.61 c -12.35,0.02 -24.7,-0.02 -37.04,0.02 -11.5,10.46 -23.04,20.88 -34.55,31.32 2.73,-10.45 5.53,-20.89 8.24,-31.35 -10.34,0.03 -20.67,0.01 -31,0.01 m 305.89,0 c -6.53,25.36 -13.03,50.73 -19.55,76.1 10.48,0.01 20.96,-0.01 31.45,0.01 4.9,-18.93 9.72,-37.88 14.61,-56.81 6.13,0.07 12.27,-0.12 18.41,0.08 3.83,0.09 8.09,2.2 9.04,6.21 1.34,5.54 -2.48,11.02 -7.2,13.59 -4.89,2.88 -10.75,1.73 -16.14,1.96 4.54,11.65 9.1,23.31 13.66,34.96 11.05,0.01 22.11,-0.02 33.17,0.02 l -13.59,-22.66 c 9.69,-4.08 18.58,-11.27 22.58,-21.22 3.13,-7.59 2.73,-17.03 -2.58,-23.56 -4.98,-6.17 -13.21,-8.53 -20.86,-8.65 -21,-0.06 -42,0 -63,-0.03 M 418,605.1 c -6.27,3.95 -10.56,10.59 -12.14,17.79 -1.22,4.87 -0.97,10.68 2.73,14.48 4.29,4.29 10.63,5.49 16.45,5.9 8.86,0.37 17.73,-0.11 26.58,0.25 3.39,0.1 7.68,2.44 6.92,6.41 -0.9,4.22 -5.75,5.68 -9.54,5.82 -15.58,0.12 -31.17,0.01 -46.75,0.06 -3.75,5.5 -7.2,11.2 -10.94,16.72 h 62.72 c 9.5,-0.06 19.44,-1.68 27.41,-7.18 6.12,-4.16 10.18,-10.96 11.43,-18.21 0.86,-4.54 0.51,-9.76 -2.64,-13.39 -3.24,-3.76 -8.41,-4.97 -13.16,-5.22 -10.02,-0.2 -20.05,0.07 -30.07,-0.13 -3.06,-0.21 -7.23,-0.56 -8.48,-3.9 -0.87,-3.5 1.81,-6.78 4.91,-8.04 a 24.54,24.54 0 0 1 17.71,-0.44 5.79,5.79 0 0 1 4.12,5.48 c 10.03,-0.07 20.05,-0.02 30.08,-0.03 1.28,-5.09 1.83,-10.98 -1.37,-15.5 -3.61,-5.09 -9.95,-7.08 -15.8,-8.21 -10.29,-1.82 -20.83,-1.5 -31.21,-0.75 -9.99,0.92 -20.36,2.58 -28.96,8.09 m 489.99,-3.73 -0.03,1.62 2.93,0.02 -0.02,7.29 1.84,0.45 c 0.22,-2.57 0.23,-5.14 0.2,-7.7 l 3.02,-0.16 -0.13,-1.51 c -2.61,-0.02 -5.22,-0.02 -7.81,-0.01 m 9,0 c 0.01,2.9 -0.13,5.82 0.07,8.72 l 1.6,0.84 c 0.25,-2.57 0.22,-5.15 0.24,-7.71 0.64,2.38 1.31,4.77 1.96,7.17 l 1.98,0.22 c 0.79,-2.43 1.32,-4.93 1.87,-7.41 0.16,2.34 0.24,4.69 0.26,7.05 l 1.76,0.49 c 0.17,-3.13 0.15,-6.26 0.12,-9.39 l -3,0.03 c -0.63,2.26 -1.26,4.53 -1.93,6.78 -0.69,-2.27 -1.31,-4.53 -1.96,-6.8 l -2.97,0.01 m -152.83,25.89 c -1.39,5.35 -2.75,10.71 -4.12,16.07 9.25,0 18.5,0.01 27.76,-0.01 1.34,-5.36 2.73,-10.7 4.1,-16.05 z"
       id="path16498"
       inkscape:connector-curvature="0" />
    <path
       d="m 258.49,535.68 c 4,-0.95 8.43,-1.03 12.28,0.54 4.01,1.9 3.86,7.07 3.27,10.8 -1.11,6.11 -2.53,12.52 -6.43,17.52 -3.91,4.93 -10.8,5.51 -16.61,4.93 -3.11,-0.18 -5.97,-2.44 -6.5,-5.57 -0.94,-5.38 0.71,-10.79 2.45,-15.83 1.95,-5.42 5.68,-10.85 11.54,-12.39 z m 81.96,79.91 A 29.38,29.38 0 0 1 355,615.33 c 3.17,0.65 5.84,3.31 6.06,6.62 0.62,6.64 -1.66,13.14 -3.82,19.32 -2.33,6.54 -6.99,12.98 -14.14,14.54 -5.4,1.08 -11.37,1.71 -16.57,-0.44 -5.54,-2.95 -4.72,-10.26 -3.5,-15.41 2.39,-9.76 6.94,-21.07 17.42,-24.37 z"
       id="path16500"
       inkscape:connector-curvature="0" />
  </g>
  <g
     id="g16508"
     style="fill:#ffffff;stroke:#ffffff;stroke-width:0.09"
     transform="translate(-52.891255,-417.37581)">
    <path
       d="m 922.29,626.27 c 36.02,-40.63 72.48,-80.9 108.69,-121.37 h 59.15 c -9.83,38.37 -19.72,76.72 -29.54,115.1 -16.75,0.08 -33.5,0.01 -50.25,0.03 4.85,-18.96 9.76,-37.9 14.59,-56.87 l -52.66,64.71 h 108.13 l -20.21,44.66 h -13.11 c -2.51,9.78 -5.03,19.55 -7.53,29.33 -16.77,-0.05 -33.54,0.14 -50.3,-0.1 2.69,-9.7 5.05,-19.49 7.6,-29.23 H 910.3 c 4.03,-15.41 7.79,-30.9 11.99,-46.26 z M 310.72,518.31 c 5.09,-0.02 10.3,-0.41 15.2,1.28 11.66,3.63 23.36,-1.95 35.14,-1.25 5.92,0.24 12.43,1.43 16.63,5.98 3.6,3.96 3.68,9.81 2.49,14.75 -3.76,14.78 -7.64,29.52 -11.43,44.29 l -25.63,0.01 c 2.93,-11.47 5.94,-22.92 8.87,-34.39 0.7,-3.22 1.42,-6.8 -0.07,-9.9 -1.24,-2.53 -4.2,-3.44 -6.82,-3.63 -4.37,-0.26 -8.76,-0.06 -13.13,-0.12 -4.16,16.01 -8.27,32.04 -12.44,48.05 -8.54,-0.03 -17.08,0 -25.61,-0.01 5.59,-21.69 11.21,-43.37 16.8,-65.06 z m -55.67,0.85 c 9.97,-1.25 20.26,-1.34 30.07,1.05 6.31,1.53 12.32,5.84 14.17,12.32 2.45,8.49 0.43,17.47 -2.08,25.71 -2.61,8.58 -8.09,16.71 -16.42,20.58 -11.15,5.26 -23.83,5.07 -35.88,4.98 -7.55,-0.27 -15.9,-0.73 -21.98,-5.76 -5.48,-4.62 -6.32,-12.46 -5.42,-19.14 1.41,-10.45 5,-21.14 12.69,-28.66 6.62,-6.57 15.78,-9.81 24.85,-11.08 m 3.44,16.52 c -5.86,1.54 -9.59,6.97 -11.54,12.39 -1.74,5.04 -3.39,10.45 -2.45,15.83 0.53,3.13 3.39,5.39 6.5,5.57 5.81,0.58 12.7,0 16.61,-4.93 3.9,-5 5.32,-11.41 6.43,-17.52 0.59,-3.73 0.74,-8.9 -3.27,-10.8 -3.85,-1.57 -8.28,-1.49 -12.28,-0.54 z M 894,521.2 c 10.1,-2.54 20.63,-2.87 30.99,-2.42 6.91,0.56 14.59,1.39 19.89,6.35 3.98,3.78 3.97,9.75 2.87,14.75 -8.37,0.05 -16.73,0 -25.09,0.03 -0.22,-1.9 -1.16,-3.75 -3.06,-4.4 -5.13,-2.15 -11.39,-2 -16.27,0.73 -2.54,1.36 -4.15,5.14 -2.1,7.55 2.02,1.95 5.06,1.94 7.69,2.06 7.68,0.08 15.36,-0.07 23.05,0.06 4.62,0.1 9.83,1.4 12.53,5.49 2.83,4.39 2.18,10.03 0.67,14.77 a 22.8,22.8 0 0 1 -11.8,13.37 c -5.97,2.95 -12.72,3.83 -19.31,3.86 h -51.83 c 2.98,-4.7 5.74,-9.55 8.74,-14.24 11.67,0.02 23.35,-0.02 35.03,0.02 3.21,-0.04 6.76,0.19 9.54,-1.74 1.83,-1.17 2.81,-3.74 1.74,-5.74 -1.19,-2.26 -3.96,-2.95 -6.3,-3.04 -7.33,-0.25 -14.67,0.18 -21.98,-0.22 -5.39,-0.46 -11.53,-1.97 -14.58,-6.87 -3.01,-5.34 -1.34,-11.91 1.11,-17.13 3.44,-7.23 10.99,-11.36 18.47,-13.24 z m -737.86,-0.33 h 71.84 c -2.17,4.82 -4.32,9.65 -6.51,14.47 -6.46,-0.02 -12.92,0 -19.38,-0.01 -4.2,16.02 -8.22,32.08 -12.5,48.08 -8.5,-0.08 -17.01,-0.05 -25.52,-0.01 4.01,-16.05 8.27,-32.04 12.37,-48.06 h -20.29 c -0.02,-4.83 -0.01,-9.65 -0.01,-14.47 z m 223.89,0 c 10.12,-0.02 20.25,0.03 30.38,-0.03 2.22,6.72 4.51,13.41 6.54,20.19 4.47,-6.82 9.25,-13.44 13.85,-20.17 l 33.58,0.01 c -12.66,12.9 -25.47,25.66 -38.07,38.62 -2.53,7.82 -4.16,15.95 -6.38,23.88 H 394.3 c 2.08,-7.94 4.03,-15.91 6.22,-23.81 -6.69,-12.97 -13.69,-25.78 -20.49,-38.69 z m 104.76,62.49 16.15,-62.49 h 25.63 c -2.23,8.5 -4.34,17.04 -6.64,25.52 8.16,0.17 16.34,0.03 24.51,0.08 2.22,-8.53 4.41,-17.07 6.62,-25.6 h 25.64 c -4.21,16.34 -8.46,32.68 -12.66,49.02 11.77,-16.34 23.58,-32.64 35.32,-49 9.62,-0.05 19.24,-0.01 28.86,-0.02 l 12.83,62.49 h -27.81 l -4.92,-43.41 -12.04,20.28 9.39,0.01 1.58,13.96 h -19.26 c -1.79,3.02 -3.63,6.03 -5.33,9.11 -15.92,0.14 -31.83,0.02 -47.75,0.05 l 6.5,-25.15 c -8.17,-0.03 -16.33,0 -24.49,-0.01 -2.18,8.39 -4.33,16.79 -6.52,25.17 z m 160.59,-21.78 c 3.48,-13.57 7.01,-27.14 10.51,-40.71 h 25.8 c -3.25,13.38 -6.63,26.73 -9.8,40.13 -0.94,3.21 0.44,7.23 3.87,8.21 6.4,1.88 13.95,-2.46 15.45,-8.99 3.25,-13.11 6.43,-26.24 9.66,-39.35 8.31,0.03 16.62,-0.09 24.94,0.06 -3.13,12.35 -6.06,24.75 -9.15,37.11 -0.58,2.53 -1.46,5.25 -0.45,7.8 0.75,2.04 2.78,3.37 4.89,3.69 6.22,0.97 12.95,-3.31 14.29,-9.55 l 9.58,-39.11 h 25.88 l -9.64,37.31 c -1.57,7.04 -3.65,14.68 -9.8,19.15 -8.94,6.64 -20.68,6.94 -31.37,7.15 -9.44,-0.07 -19.87,-0.58 -27.49,-6.87 -9,5.71 -19.99,7.25 -30.47,6.78 -5.46,-0.36 -11.47,-1.85 -14.98,-6.37 -3.57,-4.68 -3.05,-11.05 -1.72,-16.44 z m 120.22,21.79 16.16,-62.5 h 25.63 c -2.01,7.81 -4.05,15.61 -6.05,23.43 8.19,-7.78 16.26,-15.68 24.45,-23.45 9.92,0.04 19.83,0 29.75,0.02 -11.2,9.51 -22.39,19.04 -33.6,28.55 7.37,11.33 14.8,22.61 22.16,33.94 -10.89,0 -21.77,0.02 -32.65,-0.01 -4.49,-8.6 -8.93,-17.25 -13.52,-25.8 -2.29,8.59 -4.46,17.21 -6.71,25.82 z m 91.58,-47 c 0.55,-5.26 1.12,-10.51 1.68,-15.77 h 15.58 l -4.92,14.94 z M 214.2,596.43 c 20.59,0.02 41.19,-0.01 61.78,0.01 7.33,0 15.17,1.74 20.56,7.03 3.36,3.2 5.21,7.65 5.96,12.18 8.28,-10.72 21.52,-16.24 34.63,-18.07 11.89,-1.63 24.12,-1.67 35.94,0.57 7.9,1.5 16.15,5.92 18.83,14 3.19,9.67 0.58,20.04 -2.42,29.42 -3.22,9.86 -9.23,19.29 -18.51,24.4 -10.61,5.95 -23.07,6.99 -34.99,7.39 -9.46,0.06 -19.07,0.41 -28.36,-1.71 -5.79,-1.34 -11.65,-4.31 -14.66,-9.67 -3.47,-6.12 -3,-13.5 -1.81,-20.18 a 49.87,49.87 0 0 1 -13.09,8.07 c 4.49,7.57 9.05,15.1 13.56,22.66 h -33.16 l -13.65,-34.96 c 5.29,-0.23 11.02,0.88 15.87,-1.82 4.85,-2.52 8.82,-8.09 7.47,-13.73 -0.97,-4.05 -5.29,-6.15 -9.16,-6.23 -6.1,-0.16 -12.2,0 -18.29,-0.06 -4.9,18.94 -9.7,37.9 -14.64,56.83 -10.48,-0.06 -20.95,-0.01 -31.42,-0.03 2.58,-9.96 5.08,-19.94 7.7,-29.89 -8.14,7.59 -19.21,11.76 -30.31,11.82 -8.11,0.02 -16.22,0 -24.33,0 1.35,-5.66 3,-11.24 4.36,-16.89 5.99,-0.21 12.08,0.5 18.01,-0.59 5.82,-1.18 8.74,-7.62 8.7,-13.06 -0.45,-5.7 -6.87,-8.15 -11.83,-8.16 -7.28,-0.25 -16.22,2.93 -18.36,10.64 -3.98,15.37 -7.89,30.77 -11.87,46.14 l -31.45,-0.01 c 4.36,-16.98 8.7,-33.97 13.1,-50.95 1.79,-6.93 5.87,-13.39 11.96,-17.29 7.9,-5.11 17.46,-6.56 26.65,-7.35 10.7,-0.67 21.53,-1 32.13,0.81 8.21,1.46 17.11,4.57 21.63,12.12 1.18,-4.48 2.31,-8.97 3.47,-13.44 m 126.25,19.16 c -10.48,3.3 -15.03,14.61 -17.42,24.37 -1.22,5.15 -2.04,12.46 3.5,15.41 5.2,2.15 11.17,1.52 16.57,0.44 7.15,-1.56 11.81,-8 14.14,-14.54 2.16,-6.18 4.44,-12.68 3.82,-19.32 -0.22,-3.31 -2.89,-5.97 -6.06,-6.62 a 29.38,29.38 0 0 0 -14.55,0.26 z m 170.72,-19.16 c 10.33,0 20.66,0.02 31,-0.01 -2.71,10.46 -5.51,20.9 -8.24,31.35 11.51,-10.44 23.05,-20.86 34.55,-31.32 12.34,-0.04 24.69,0 37.04,-0.02 l -45.73,36.61 18.3,26.9 c 15.17,-21.17 30.35,-42.33 45.51,-63.5 h 34.92 c 4.58,22.33 9.08,44.69 13.71,67.02 l 12.7,-49.42 h -17.26 a 5495.9,5495.9 0 0 1 -3.6,-17.61 h 145.94 c -1.64,6.44 -3.3,12.87 -4.95,19.3 l -44.9,0.01 -9.96,38.76 h 44.9 l -4.63,18.03 c -25.46,0.01 -50.91,-0.01 -76.36,0.01 4.99,-19.51 10.02,-39 15.02,-58.5 h -13.18 c -5.01,19.5 -10.01,39 -15.04,58.5 l -60.5,-0.01 -5.97,-52.87 c -4.87,8.22 -9.71,16.45 -14.56,24.67 l 11.35,0.01 1.92,16.99 c -7.8,0.03 -15.6,-0.06 -23.39,0.05 -2.12,3.75 -4.35,7.43 -6.52,11.15 -18.69,0.02 -37.38,-0.02 -56.07,0.01 -5.5,-10.51 -10.94,-21.06 -16.42,-31.59 l -8.12,31.59 -31.02,-0.01 c 6.52,-25.37 13.02,-50.74 19.56,-76.1 z m 305.89,0 c 21,0.03 42,-0.03 63,0.03 7.65,0.12 15.88,2.48 20.86,8.65 5.31,6.53 5.71,15.97 2.58,23.56 -4,9.95 -12.89,17.14 -22.58,21.22 l 13.59,22.66 c -11.06,-0.04 -22.12,-0.01 -33.17,-0.02 -4.56,-11.65 -9.12,-23.31 -13.66,-34.96 5.39,-0.23 11.25,0.92 16.14,-1.96 4.72,-2.57 8.54,-8.05 7.2,-13.59 -0.95,-4.01 -5.21,-6.12 -9.04,-6.21 -6.14,-0.2 -12.28,-0.01 -18.41,-0.08 -4.89,18.93 -9.71,37.88 -14.61,56.81 -10.49,-0.02 -20.97,0 -31.45,-0.01 6.52,-25.37 13.02,-50.74 19.55,-76.1 z M 418,605.1 c 8.6,-5.51 18.97,-7.17 28.96,-8.09 10.38,-0.75 20.92,-1.07 31.21,0.75 5.85,1.13 12.19,3.12 15.8,8.21 3.2,4.52 2.65,10.41 1.37,15.5 -10.03,0.01 -20.05,-0.04 -30.08,0.03 0,-2.59 -1.73,-4.7 -4.12,-5.48 a 24.54,24.54 0 0 0 -17.71,0.44 c -3.1,1.26 -5.78,4.54 -4.91,8.04 1.25,3.34 5.42,3.69 8.48,3.9 10.02,0.2 20.05,-0.07 30.07,0.13 4.75,0.25 9.92,1.46 13.16,5.22 3.15,3.63 3.5,8.85 2.64,13.39 -1.25,7.25 -5.31,14.05 -11.43,18.21 -7.97,5.5 -17.91,7.12 -27.41,7.18 h -62.72 c 3.74,-5.52 7.19,-11.22 10.94,-16.72 15.58,-0.05 31.17,0.06 46.75,-0.06 3.79,-0.14 8.64,-1.6 9.54,-5.82 0.76,-3.97 -3.53,-6.31 -6.92,-6.41 -8.85,-0.36 -17.72,0.12 -26.58,-0.25 -5.82,-0.41 -12.16,-1.61 -16.45,-5.9 -3.7,-3.8 -3.95,-9.61 -2.73,-14.48 1.58,-7.2 5.87,-13.84 12.14,-17.79 z m 489.99,-3.73 c 2.59,-0.01 5.2,-0.01 7.81,0.01 l 0.13,1.51 -3.02,0.16 c 0.03,2.56 0.02,5.13 -0.2,7.7 l -1.84,-0.45 0.02,-7.29 -2.93,-0.02 z m 9,0 2.97,-0.01 c 0.65,2.27 1.27,4.53 1.96,6.8 0.67,-2.25 1.3,-4.52 1.93,-6.78 l 3,-0.03 c 0.03,3.13 0.05,6.26 -0.12,9.39 l -1.76,-0.49 c -0.02,-2.36 -0.1,-4.71 -0.26,-7.05 -0.55,2.48 -1.08,4.98 -1.87,7.41 l -1.98,-0.22 c -0.65,-2.4 -1.32,-4.79 -1.96,-7.17 -0.02,2.56 0.01,5.14 -0.24,7.71 l -1.6,-0.84 c -0.2,-2.9 -0.06,-5.82 -0.07,-8.72 z"
       id="path16504"
       inkscape:connector-curvature="0" />
    <path
       d="m 764.16,627.26 27.74,0.01 c -1.37,5.35 -2.76,10.69 -4.1,16.05 -9.26,0.02 -18.51,0.01 -27.76,0.01 1.37,-5.36 2.73,-10.72 4.12,-16.07 z"
       id="path16506"
       inkscape:connector-curvature="0" />
  </g>
</svg>
