<svg viewBox="0 0 640 238" version="1" xmlns="http://www.w3.org/2000/svg"><path fill="#360000" d="M425 5l3-2-2 3c3 1 7 1 8 4h-14V6l2 2 5-1-2-2z"/><path fill="#300" d="M533 13l1-3c2 0 4 0 4 3l-3 2-3 2c-2 0-2-1-2-3l3-1z"/><g fill="#f6f6f6"><path d="M92 12l3 3 2-2-1 3 3 2 3 6 1 7 2-1c-2-1-2-3-2-5l2 1 2 4-3 1h-1l1 4 4 11 3 6c-3-1-3-4-4-6l-4-9-4-6-3-3-3-1c-3-2-6-1-10-1h9l4 1-1-2c-3-2-6-2-9-2-5 1-10 5-15 7l-2 1-3 3-3 3-1-2c2-3 6-5 7-8l4-2 3-2h3c0-2 3-2 4-3h5l-1-6 2 1 1-2c1 1 3 2 3 4l-5-2 1 4 4-1-1 2h2l-1 2 3-1-1 2h3c-1 2 0 5 2 6 0-1 0-2-2-3v-3l-1-4h-3l1-2-2 1a1327 1327 0 0 1-1-6M81 22l4-1c0-2-4-1-4 1m8-1v1c1 1 2 0 3-1 0-2-3-1-3 0zM528 46h5l1 2c2 1 4 2 6 1l2-2h2v1l-2 2h-1c-2 0-5 0-7 2l2 2h-2l-4 1-6 2c2-2 5-1 6-3l-3-1-1-1h3l4-2h-5l-2-2 1-1 1-1zM623 75c2-1 3-2 5-1l2 4-1 5h-6l-1-3 2-2v4h4v-3-4l-4 1-1-1zM419 139l5 1h1l1 2c-3 0-6 1-8 3l-1-1-1 6-2 10 3-3 3 2h2c3 1 7 0 9-2l-9 2 4-2 2-1c1-2 3-3 5-2v-6 6c2 0 3-2 4-4l-2-1 2-3 3-1-1 1 3 1-1 1 1 3-5 5v-1l-5 1 2 2-14 5 2 4h-1l-2-2-2 6c0-3 0-6-3-8l-1-1c-2 3-3 5-3 8v2c-1 1-3 2-3 4l-1-3-1 2c-1-1-3-3-1-5l2 1 4-9 1-2-3 2 4-11 1-4-2-1 4-4 1-2v3l6-2-3-2m-8 19c2-1 3-4 2-5-2 0-2 3-2 5zM114 175l1-2 3 3c-3 1 0 3 1 4l-4 1v-3-1l-1-2z"/></g><path fill="#210000" d="M427 13c3 0 6-1 7 1l1 4-3 2h-6c0-2-1-6 1-7m0 1v4c2 1 4 0 6-1v-3h-6z"/><g fill="#5e0000"><path d="M252 14c3-1 5 0 7 1l1 4c-2 2-5 3-8 2l-1-4 1-3zM181 32l3-3-2 3 3 5c3-1 6-1 8 1l1 3-3-3 3 6c-1 2-1 4 2 4v1l-5 1c-3 1-5 5-7 8v-4l-6-7c-3 0-6 0-9 2l1-1 7-1 3-2-1-5 5-2-3-6zM215 62c2 0 3 2 2 3-2 2-4-2-2-3zM265 66c2 0 4 0 4 2 0 3-3 3-4 2l-1-2 1-2zM355 72c1-2 4-3 6-4h5c3 2 2 5 2 7l2 1 2-1v5l-2-1v-1h-2l1 5-2-5v-1l-1-2c-2 1-2 3-2 4l-3 6c-6 0-8-8-6-13zM36 70c3-3 8 2 5 5-2 2-8-2-5-5zM289 72l3-1 4 7-3-6c6-2 13 7 9 13l-4 4c-4 1-7 1-11-1h1l1-12 1-1 3 6-4-9zM127 73a246 246 0 0 0 4 7v2l-1-1h-1l-1-1c-1-2-3-5-1-7zM23 88l5-1 2 3c-2 1-2 3-4 3s-4-3-3-5zM43 89c1 0 3 1 3 3h-3v-3zM32 93h3v2l-4 1 1-3zM288 108c3-1 6 0 9 1v1h1c-2 4-2 8-1 13-2 2-6 2-9 2l1 3-1 2 1 5c0 3-5 0-6 2-1 3-1 5-4 7-2-1-1-4-2-5-2-2-4 2-6 3 2-4-2-4-4-5l-1-4-2 4-3-2 2-3c-2-3 0-6 1-8 1-3-2-3-4-4l3-2c0 2 1 4 3 3v-4l3-1c0 3 1 5 3 7l4-3 2 2 2-4 2-1c1-4 2-8 6-9zM235 130l5-4c-2 3-1 7-2 11l6-3-5 11-1 1v-9l-1-1v-1l-3 1c-1-1-2-1-2-3l3-3zM113 130l2 4v4l-6 3-2-1-2 4a146 146 0 0 1-3-2c1-5 6-9 11-12zM214 134c1-2 1-3 3-3 0 2-1 3-3 3zM53 134h3l1 4-5-2 1-2zM211 142c1-2 1-4 3-5v3l3-1-2 7 3-1v4l-3 2v-3l-4 11-3 10c-4 0-7-2-10-5l1-8 4-10-1-3v-1-1c1 1 2 2 1 3l8-2m2-1c-1 4 4 1 0 0z"/><path d="M262 146l5-7 3 10 1 5h-6c-2 1-5 0-6-2l1-2 1-1 1-3zM130 152c-1-5 3-9 7-12v4c1 2 2 4 0 5l1 9v5c-4-2-6-7-8-11zM141 140l5 1 1 4c1 2 3 2 5 3l-4 10 6 7 1 2-1 6-5-7-7-4-1-22zM316 150c2-2 2-6 5-7-1 3-1 8-5 8l2 2c0 6-2 11-8 13-5 2-9-1-11-5l-2-2 1-2-1-4c2-3 6-7 10-7 4-2 7 2 9 4zM427 145c3 0 5 1 6 3v6c-2-1-4 0-5 2l-2 1c-1-2-4-3-4-6s3-5 5-6zM506 162c1-3 5-3 6-6-2 2-3 5-6 6zM115 161c2-3 5-1 6 1l-3 3c-1-1-3-2-3-4zM53 164c1-1 3-2 4 0 0 3-3 1-4 0zM156 169c4 5 9 10 12 16 1 4 5 7 8 10-2 1-4 3-7 3-3-2-2-6-3-8l-10-14v-1-1-5zM210 178c3-2 5 1 3 3s-5-2-3-3zM146 179c3-2 5 4 2 4-3 1-4-4-2-4zM302 180c0-2 1-3 3-2v3l-3-1zM193 187h3l-2 4c1 1 1 3-1 3-1 1-1-1-2-2l3-2c-1-1-2-2-1-3zM289 190c1-3 4-3 6-2 1 2 1 5-2 6l-4-4zM129 189c2 0 5 2 4 4 0 2-4 1-5 1v-3l1-2zM381 191c3-3 11-1 12 4 2 4-1 9-5 10l-1 3v-3c-4 1-8-2-9-6 0-3 0-6 3-8zM197 194c2-1 4-1 4 1s-3 4-4 2v-3zM403 197v-3l1 3c4-2 9 0 10 4 2 4-2 9-6 9-3 0-7-2-7-5-1-3 0-7 2-8zM326 200c-1-2 1-4 3-3l1 4-4-1zM295 198c1-2 3-1 5 0 1 2 1 5-2 6s-6-4-3-6zM197 202c1-1 2-3 4-3 2 1 4 4 1 5l-3 1-2-3zM277 208c0-1-1-3 1-3s2 2 2 3h-3zM321 209c1 1-1 3-2 4 3 3 4 7 5 11l-3 2c1 1 3 1 3 3l-3-1-1 3 1 2c-3-3-6-1-9 0h-4c-5-2-8-7-7-12l5-8 6-4 6 4 3-4zM290 221l4-1v3h-3l-1-2z"/></g><path fill="#9b8f8f" d="M259 13l2 1 1 9-1 5-3 1 2-4v-6l-1-4v-2z"/><path fill="#690000" d="M427 14h6v3c-2 1-4 2-6 1v-4z"/><g fill="#350000"><path d="M333 16c2 1 5 2 5 4l-5-4zM176 62l4 9c-2 3-2 5-1 8l-4-5-1 1v-4l3 3v-7l-2-2 1-3zM204 68l1-1v1c0 4 1 8-1 11l2 6 6-1-4-5 2-2 1 2 3 6a254 254 0 0 1-4 1l-4 1-1 3 2 2 2 3h-4l-1-13v-2-12zM138 77c2 2 5 6 3 9l-2-3-1-6zM113 79c4 1 0 7 4 7l1 5-2 3 1-6c-2-2-3-5-3-7l-1-2zM76 88v-1l1 1c-1 3 1 5 3 7h-2l-1 12 4 7-1-1-2 6 2 2 3-4 2 1 1-6c-2-1-4-1-5-3l5 1-7-5 2-1h8c0-2-2-3-4-3l5-2v1c-1 1 0 2 1 3-3 2-3 5-3 8v6l-5 7 6-2-2 5 2 1-5 8c-2-3-1-7-1-11l-3 1c-1-1 0-3 1-4l-8 1v-1c1-1 3-2 3-4l-2-5 1-4v-4l-2 1-4-1 4-3-2-3 4 2c1-3 0-6-1-9h1l-1-1 2-3zM47 96l5 2v2c0-3-2-3-4-2l-1-2zM162 115l2-2v7l4 1-7 5v-4l-1 1 1-4 1-1v-3zM580 179h8c4-1 8 0 11 1-6 1-12 0-19-1z"/></g><g fill="#2f0000"><path d="M443 16l3 1 2-1-3 4c-2 0-3-2-2-4zM341 20c5-2 10 4 9 8-1 3-4 4-6 4-6 0-9-9-3-12zM357 38c-3-4-2-11 3-12 3-1 6 1 9 2v3l-2-2 2 6c-2 1-5 1-4 4l-8-1zM546 54h5c1 6 5 11 9 16 2 2 3 6 6 8 2 2 6 1 8 3 3 4 5 10 2 14-4 5-14 4-16-1-2-4 1-8 2-11-3-5-5-11-9-16-3-3-5-8-7-12v-1zM595 97c4-1 6 3 10 5l-2 1-7 7-1 2c-3-2-6-4-6-7-1-4 2-8 6-8zM427 134c2-2 2-6 3-8 0 3-1 6 1 9 3 2 6 2 9 1h1c1 3 0 6-1 9l-3 1-1-4c-3-1-7-3-11-2h-1c0-2 1-5 3-6zM369 130l9 1 4 5v8l-1-6c-1 5-5 8-10 8h-1c-2-3-4-6-4-9s2-5 3-7m5 6c1 4 6 2 6 0h-6m-3 4c-1 2 3 2 4 0h-4zM521 171l4-5c0 4 3 7 5 10l-1 1h-1v4l-4 1v4l-3-2v-13z"/></g><g fill="#310000"><path d="M464 16h2l2 1-1 2-4 1h-2l3-4zM439 43c2-2 6 1 4 3 0 2-2 2-4 2 0-2-2-4 0-5z"/></g><path fill="#3a0000" d="M142 17c3 0 5 1 6 3-2 1-5-2-6-3z"/><g fill="#b0a0a0"><path d="M249 23l6 3 2 2h-1l-5-2-2-3zM206 28l1-1a305 305 0 0 0-1 1zM193 36a185 185 0 0 1 2 3l-1 5-3-6 3 3-1-3v-2zM534 38l1 2h16l3 1h-2l-1 3 1-4h-17l-7 2h-5l6-1c2-1 5 0 5-3zM127 42l-2 2h3l-4 1c-4 4-4 10-4 15h-1c-1-3 0-7 1-10l3-5 4-3zM362 44v-1l1 2 9 6 1-2v4l-5-3 1 3 2 9-2-2c0-3-1-5-3-8l2-1-3-2c-1-1-1-4-4-4l1-1zM276 57c2 1 3 4 4 6l-4-6zM451 61l2 3-2-1c0 6 2 11 1 17l-1 10-1-4-3 2V76l1-6v15h3V61zM121 73l3 2 1 1-2 1-1 1 1 2v3l-2 1a245 245 0 0 1 0-11zM621 82c0-2 0-5 2-7l1 1 3 1-2 4 3-2v3h-4v-4l-2 2-1 2zM200 84h3v7l-3 1v-3-5zM162 87l3-3 1 4-1 4-1 1v-5l-2 2v-3zM446 111l1-2v3l3-3 2 3 1 5-3-3v9l-3-6-2 1 2-2-3-1h3l-1-4zM507 118l2 1c-1 3 1 7-2 9l1 6h-2v-3h1v-7-6zM154 147l1 1 1 19v2a176 176 0 0 1 0 6l-2-2 1-6-1-2 1 1-1-18v-1zM162 149l2 4 2-2-1 2-2 1-1-5zM539 172l3-4-1 5-1 2-1-3zM367 181c-2-4-4-7-3-11v4l2 3 3 3a247 247 0 0 1-2 1zM400 182l3-6-1 7-2-1zM486 183c-1-2 3-4 3-2 1 2-2 2-3 2zM534 188l2 1v1c-1 2-4 0-2-2z"/></g><g fill="#f1f1f1"><path d="M257 28l3-3-2 4 3-1 2 6 1-2 19 21c-1 3 1 5 2 7l2-3-1 2 3 1h-3l2 5v1 3c2 2 1 5 0 7 0 3-1 5-3 7h-1l-1 1 1 1-2-1v2l-1-1-3 4 1 3c-2-1-3 0-4 1l-2 1v-2c-1 1-4 2-3 3l2 1 1 1-3 4-4 6-4-2c3 0 2-3 4-4l1-3-3 4-3 2c-3 2-5 6-8 6l1-3v-2l-4 1 1-2 3-1c2-1 3-3 3-5l2-4v6l4-3-2-1 1-3-1-4h-1l-3 1 1-3v-7l-1-33 2 1v-6l1-1-1-5-2-1h3l-1-3-3-4h1m5 7l2 5v-1c0 2 1 3 2 3l1-3-5-4m0 7l1 2v2c-1 7-2 14 0 21l-1 2 1 9-3-1 3 2v16l3-3v2l2-1v-1l1-1c2 0 2-4 4-5 5-3 9-8 12-12 1-5 2-11-2-15l-1 1-2-6c-3-2-4-6-8-7l4 8-1-1c-1-1-1-2-3-2 2 3-2 5-2 9-1-4 2-6 2-9h-2l1-1h-1l-1-3 2 3 1-4-6-4-4-1m11 48c3-1 6-4 7-7-3 1-5 4-7 7m-12 10c0 3 3-1 0 0m-6 3l-1 3 6-5-5 2zM165 83l3 1-2 1 4-1-1 2c-2 0-3 1-3 2l-1-4v-1zM358 156c1-2 3-3 6-2v1l-6 1z"/></g><g fill="#3e0000"><path d="M382 31c1-3 4-4 6-6v2l-10 9-1 6 7 5-5-2v2l-3-2v-6l-3-3 4 1v-2l-2-1c3 1 5-1 7-3zM166 92l3-3 1 3h2l1 3a364 364 0 0 0-2-1l-5-2zM51 102c2 1 5 3 6 6h-1l-3-1-2-3v-2zM146 111c2 1 2 5 2 7h3c0 2 0 5 2 6l2-6 1-1 1 1c0 6-5 11-9 15l-6 2c0-7 2-14 1-21v-1l1-1 2-1zM80 113l1 1 2 3-3 4-2-2 2-6zM464 163v1l3-1v2l-4 3h-2l-1-1-1-3 1 1 4 1v-3zM372 203v-2c0 3 3 2 3 0 1 2 0 3-1 4-1 2-2 3-5 3v-4c0 1 3 2 3 0h-2l2-1z"/></g><g fill="#e9e9e9"><path d="M483 26v8h2-3v3h3l-1 5h3v-6l2-3c-2 3-2 6-2 9-2 0-3 1-2 3v46c0-1 1-4-1-4l-2 1-2 2-2-9-1-1-1-1h2l1-3v-5l-1-22v1l-1-10 4 1v-5h1l-1-3 2 1-1-4 1-4m-2 11v7l1 11h1v-9l1-9h-3m0 19v13l2 4-2 2v11l3-1-1-15-1-14h-1zM334 38h3l16 3h11-8c-4 1-8 0-12-1s-7 0-10-2zM63 39h1v1c-3 4-2 9-2 14h-2c0-5 0-11 3-15zM579 43c1 1 2 3 1 5h1a308 308 0 0 0-1 4v-3l-1-6zM324 45l6-1 7 1 8 2 4 2h-2l-24-4h1zM552 46h1l1 2-6 1c2 0 3-1 4-3zM439 58a144 144 0 0 0 0 0zM268 62l2-1-1 2h2l-1 2-2-3zM121 62l-1 7v-3l1-4zM105 69h1l-2 5-2 6-1-1c2 0 2-2 2-4l2-6zM590 68c2 1 2 5 5 4v-1l1 1-2 2-3-2-1-2v1h-4l3-1 1-2zM307 97h4v3l5-1 8-1 2 1-14 3a722 722 0 0 1-3-1l1 2-2 1 1 2v1l1 3h-1l-2 1v-4l-2-1c-3 1-6 1-8 4v-2l4-2h3l1-4h3l-2-4 1-1zM624 101c2-2 5-2 6 0 2 3 0 7-2 9 1-2 2-4 1-6l-1-2-2-2-2 1zM486 100h2c1 1 2 2 1 3l-1-2h-2v-1zM265 116c0-3-2-7 0-9v9zM481 117h3l-1 5h2c-2 1-1 3-1 5-1-3-1-7-3-10zM233 147l2-2-1 2v4c-2-1-1-3-1-4zM544 156l2-2-2 7v-5zM221 159c1-1 3 1 3 2-1 1-4 0-3-2zM418 171l3 2v2c2 2 2 6 5 6v-3 3c2-1 2 1 3 1-1 0-3-2-4 0v3c-2-2-2-7-6-7l-1-7zM229 172c2 1 2 2 0 2v-2z"/></g><g fill="#dfdfdf"><path d="M477 27l3 1v1l-3-1 1 11 1 1-1-1-1-12zM160 46l3 4c-2 2 0 4 2 4h2c1 0 2 1 2 3l-1 2-3-1 1-3h-2v2l-4-6-2-2-3-1 1-1 4 3 2-1-2-3zM576 51c2-1 3 1 3 2l-1 2-2-4zM199 55l1 1c-1 4-1 7 1 10-2 1-2 4 0 5h-4l2-3-1-5 1-8zM292 71l1 1 3 6-4-7zM123 80l-1-2 4 2v2l3 1-1-3 1 1v4-2h-3l-1-1-2-2zM381 78l2 2 1 1 1 1a236 236 0 0 0-1 0l-3-4zM313 81h1l-1 6v-5h-2l1 6c-2-2-4-3-3-6l4-1zM277 98c3-3 3-9 7-11-2 4-6 8-3 12l-4-1zM71 88l3 3 1 1h-1l-1-1-1 2c1-2 0-4-1-5zM468 90l3 5 3 7-6-12zM542 110l3-1 1 1-2 2 2 2v2c-5-3-10-2-16-2h-7l-2-1 7-2 1 2h14l-1-2v-1zM109 141l6-3 6 1h1-1c-3 0-5 0-7 2l-5 2v1l-2 10 2-1 2-6c0 2-2 5 0 7 3 1 5-2 8-1v-1l2 2h-1l-8 4 2 1-2 2c-1-2-2-3-4-2l1 3 2-1 2 3v1l2-1 1 2c2 4 5 7 5 11h-1v-2l-4-5c0 2-2 1-4 2l-5-10-1-5-2 4-1 2-2-1 3 2c-4 4-4 9-6 14v-5l-2 1a450 450 0 0 0 4-13h2l2-5-2 1 1-5 3 1-1-9 2-4 2 1m1 22l1 4v1l3 1-1-4-1 1c0-2-1-3-2-3zM312 171c3 0 7-2 9 1-4-1-8-1-11 1l-13-1v1l-3 1c-1-2-3-2-5-2h1l8-1c3 1 6 2 9 0h5zM538 174l1-2 1 3-1 4-1-5zM550 173c1 0 2 0 2 2-2 0-3 0-2-2zM483 180c0-2 3-2 3 0s-1 2-3 1v-1zM535 185l2-7 2 2c0 2 0 3-2 3l-1 5-1-3z"/></g><g fill="#590000"><path d="M199 33c2-3 4-4 7-5l-2 3-9 8-1-1 5-5zM591 72l3 2 2 3h-2l-3-5zM291 157l1-3a1200 1200 0 0 1 3 1v6-1l-1 3v3l-1 4-2 1 2-11-2-1v-2zM536 169l3-4c2 3-1 5-3 5v-1zM581 180l19 1c6 3 13 2 19 3l5 1-6 4c3 1 6 2 9 1l1 2 1-2-3-4h5l5 5-5 4 2 2-3 1c-4 0-9-2-13 0l-2 1c-4 4-10 4-15 3 3-3 7-6 12-6l1-1 8-2v-2c-3-1-6 1-9 2-4-4-9 2-14-1v-4l-1-1-1-1 2-3c-3 0-4 3-7 4-3 0-6 2-9 4l-1-2 6-3 1-2c-6-2-13 1-19 1l2-2-7 4c-3 2-7 1-10 2-7 0-13 5-20 6v-2c3 0 6 0 7-3l-5-1-2-1h-4l1 3c-1-2-2-3-4-3-1 2-3 2-5 2l3 3h-2l-1-3c-6 0-12 1-18 4v-1c5-2 10-4 15-4h2l13-1 1-3 1 3 9-2 13-4h2l2-1h2c6 1 11-1 17-1z"/></g><path fill="#720000" d="M367 29l2 2 1 3h5l2 1v2l-4-1-8 4v-1c-1-3 2-3 4-4l-2-6z"/><path fill="#cbcbcb" d="M104 31l3-1 3 9-1 3-3-4-2-7z"/><g fill="#f1f1f1"><path d="M66 34l3-3-1 4v33l-1-21-1 5-1 3-2 1a250 250 0 0 0 0 9l2 1 2 1c-1 2 1 4 3 5 1 4 0 8 2 12 2 1 4 4 7 3l-1 3-1-2-1-1v1l-5-2h-1l-5-7c3 0 2-4 0-5l-1-3c0 2-1 5-3 7-3-1-5-5-6-8-1-5 1-11 2-16 1-4 0-8 2-12h-5 4v-2l1 2v-3l3-1-2 3-1 5c-1 7-3 13-3 20l1 6 3 5c2-2 2-5 1-7V55l2-1 1-12h3l-2-5-1 1c0-2 1-3 3-3l-1-1zM201 81l1-1h2v2l-4 2 1-3zM486 171h1c2 3-4 2-1 0z"/></g><path fill="#090000" d="M235 31c2-1 2 0 2 2-2 0-2 0-2-2z"/><g fill="#828282"><path d="M311 35c1-2 1-4 3-4l-1 4 18 2h-2l-8 1h-1l1-2h-4l2 2h-3l-2 1-2-1-2 1-5-4-1-1c3 0 5 3 7 1zM335 65h21-5c-3 0-7 1-9 4l-6-3-1-1z"/></g><g fill="#fdfcfc"><path d="M147 35c2-2 4-3 7-3v1h-3l4 2c-2 0-4 0-5-2l1 3-4-1 1 2-3-1 1 3 6-2 11-1 3 5h-3v-3l-6-1 5 2-2 3c-2-2-5-2-8-2h-1l-5 2-2 2-2 6-2 1 1-1 1-5-4 5-3 2 2 2-1 1-2 5c-2 3-3 7-2 11l3-3v9a214 214 0 0 0 2 5c-2 1-2-1-3-3l-2-4c-1-2 0-6-3-6v7l-2-3-1-3-1 6-1-1 1-6-1-3v-7c-2-2 0-5 1-7 2-2 3-6 7-6l-2 2-4 5-2 7h2l4-9 3 1c-2 1-3 2-3 4-1 2-3 5-3 8 0 2-2 5 1 5l1-5v-4l2 2 3-8 1-5-2 2v-4l3-2 3-3-3 1-2 2v-3l3-1v-1l1 1 2-2 1-1 5-2h1v-1m6 3h3-3m-12 2c1 1 1 1 0 0zM331 37h2l4 1h-3l-2 1-2 1a216 216 0 0 1-2-1h2l-1-2h2zM510 62l1-1 2 7-2 1h-1v-7z"/></g><path fill="#e8e8e8" d="M204 33c1-1 2-2 3-1l-1 9v2h-2v-2l-2-2 2-1v-5z"/><g fill="#430000"><path d="M333 32c2-1 3 2 2 3-2 1-3-2-2-3zM345 35c1-1 4 0 3 2-2 1-4-1-3-2zM396 55c1 1 2 1 2 3h-3l1-3zM516 72c-1-3-1-8 2-10l-1 4c2-1 3-3 5-3l6 2v-2c2 3 2 7 0 10l-1-4c-3 2-6 3-8 6l-3-3zM455 68l4 6 1 2 2 4-5-3-1-2c-2-2-2-5-1-7zM516 75l2 2c-2 0-2 0-2-2zM248 79c2-1 3 2 1 2-1 1-3-2-1-2zM237 82h7v1c-2 1-5 1-7-1zM307 114h1l1 2c1 2 0 4-1 6l-1-2-8 4-1 1-1-2 4-8h4c1 2 3 1 2-1zM395 118c1-1 0-3 2-4 0 1 0 3-2 4zM380 117l2 4h-2v-4zM385 127c-1-1-2-3 0-4v3h2l-1 2h12c0 5 0 9-2 13-3 3-7 2-11 4l-3-1v-8l3-9zM331 125c3 1 6 2 9 1 2 5-1 8-2 12v2l-2-1c-3-1-6-1-9 1-2-3-5-7-4-11h2c2-1 3-4 6-4zM467 135l8-5c3 0 5 2 7 3v-3c2 3 2 8 0 11l-1-4c-3 4-7 5-11 7l-3-3-1-5 1-3v2zM196 136c-2 0-3-1-1-2l1 1 2-1c0 2 1 4-1 5l-1-3zM314 143c-2 2-6-2-3-4-1 3 3 3 2 0 1 1 2 3 1 4zM304 141c1-2 4 0 3 2-1 1-4 0-3-2zM324 165l2 3c-2 1-4 2-6 1v-3h1c1 1 3 1 3-1zM557 170l1 6-2 2c-3-3 0-5 1-8zM469 185l7 4h4v2l8-1c1 3-1 6-2 9l-1-5c-2 5-8 5-11 7h-1c-2-2-4-5-4-8 0-2 2-4 3-5l-3-3zM442 192h1v1c-1 1-2 4-4 4-1-1-1-5 2-4l1-1zM398 211c0-2 1-4 3-3v3h-3z"/></g><g fill="#370000"><path d="M28 33c2 0 2 0 2 2-2 1-2 0-2-2zM564 187l7-4-2 2c6 0 13-3 19-1l-1 2c-2-3-6-1-10-1l-13 2z"/></g><path fill="#8b8b8b" d="M159 33c1-1 3 1 3 2-1 1-3-1-3-2z"/><path fill="#310000" d="M434 36l4-4 4 4c-1 1-2 4-4 3-2 0-3-2-4-3z"/><path fill="#3d0000" d="M231 35c3-1 0 3 0 0z"/><g fill="#fff"><path d="M305 35l5 4 2-1 2 1 2-1 4 3-7-1 1 2 6 1-3 2h-4l-1 21c5 0 10-3 15-2v-1c6 0 13-2 19-1l-9 1h-9v1a218 218 0 0 0-10 2h-5l-2 2v-7c-1-6 1-13-1-19-1 7-3 15-1 22h-3l1-4v-3h-2c1-5 3-11 1-16l-1-3v-3m5 5c1 1 1 1 0 0zM508 38l1 6 2 1a119 119 0 0 1 1-1l8 1h1c-1 3 0 5 3 5v-5h3l1 1-1 1-1 1a198 198 0 0 1-2 4l-3-2c-2-2-6-1-9-1v2h7v2h-7l-3-1c1-1 0-2-1-3v5l-1 1v-5l-2-2 4-4-1-5v-1m2 11c-1 3 4 0 0 0zM165 44l3-1 1 6 3 6h-3l1-4h-2l-1 3h-2l-2-4-3-4-1-1h4c1 1 2 5 4 4l1-2-3-3zM445 44l4 5-1-5 4 6 1 5-2-2 1 2 1 1 1-3 2 6h-2l-1-1-2 1 5 6-2 1-1-2-2-3v24h-3V58l-1-4 3-1c-2 0-4 0-5-2l-1-3c2 1 2 4 5 5l-3-7-1-2z"/><path d="M174 55c-1-1-2-3-1-4 2 3 1 6 1 9l-1 2c0-3-4 0-1 1l1 1h-4a13 13 0 0 1-5-9h2l-1 3 3 1 2 3-1-4 5-1-1-1 1-1zM575 56l1-1 4 3 1-1 1-1 6 6-1-3 6 3 8 8 4 5 4 9 1-1 1 10h1l1-3v4l-3 2 3-1-2 7-2 1a409 409 0 0 1-2 7l-6 11h-1a148 148 0 0 0 6-13l-2 1h-2l1-6 2-1 2-6c2-4 3-10-1-14v-1l-2-4-1-2c-1-2-3-1-3 1l-3-7-3 1-1-1 1-3-6 2c-2-3-3-5-6-6l3 3-1 7a233 233 0 0 1-1 0l1 18 2 21c-1 1-2 3-1 6a322 322 0 0 1 2 3v-2h2l6-6 1-2 5 3v-1 2l-4 3v1l-9 10 2-5-7 5c-3 3-5 7-10 8 1 2 0 3-1 4l1-3-3 1 4-6 5-3v-1l2-2v-5l1 4c3 0 2-5 1-6l-2-1 1-1c3 0 1-3 1-4l-1-4c1-4 0-9-2-13l-2-2h3V83c-1-3 0-6-2-8v2c-2-4-2-7-2-11l1 8 2 1V64l-2-1-1-2-1-4-1-1m13 7c0 2 0 2 2 2 0-2 0-2-2-2zM424 82h4l1-1v1l1 8v2l-1-1-2-2 1-3h-2l1 2h-3v-6zM155 89l2 1-1 2 2 1 1 1h-3l-4 2-1 1-1-4h2l-1-2 4 1v-3z"/><path d="M424 88c5-1 3 5 4 7 1 3 2 8-1 10l-1 4-2-21zM332 96l12-2 8 1-3 3 2 2-13 2-18 2-7 1-4 1 3-2-2-2h9l14-2 13-2v-2c-2 2-4 3-6 1a64 64 0 0 0-6 1l-7 1c-2-2 3-3 5-3zM196 101v-1l1 9 2 1 1-1 2-1v16l-2-1v-1l-1-2-3 2 1-9 1-2h-2c2-3 1-7 0-10zM533 110c0-2 2-2 3-3l3 3 2-2 1 3 1 2h-14l-1-2-7 2h-1l-3 2v-4c5 0 10-2 14-1l-1 2 4-1-1-1zM264 137l2-4 1 4 4 4 1 3 3 9c1 7 7 13 5 20-2-2-4-4-4-7s-3-5-2-8l-4-2c0-2 1-2 2-3l-2-4-3-10-5 7-1 3-1 1-2-4 2-1 3-7 1-1zM65 138l3-4c2 3 4 1 6 1l4 3 1 2v2c-2 1-5 0-8-1v1c1 4-4 5-5 9l-4 7 2 7 3 7 2 2 10-1 2-6 1 2-1 4 8-2c1 4-3 6-6 7h-6c-4 1-8 0-12-1l-2-4-3 1c-1-1-2-3-1-4 1-2-1-3-1-5l-2-9 2-9h2l3-6 2-3z"/><path d="M86 138l3 1c2 1 6 2 6 5-3 0-7 2-9 5l-6 3c0-2 2-3 3-4l1-2v-2l2-6zM174 139l2 2c0 10 2 20-1 30-3-2 0-7-1-10v-22zM188 139h3l1 1 1 26v7l-2-1-1-5v-8c-1-4 0-8 1-12l1-3-2 1-2-6zM137 140h4v1l1 27v9h-2l-2-14v-5c0-6 2-12-1-18zM155 148l2-3v14c1 3 2 6 0 9l-1-1-1-19zM485 147c2 1 3 1 3 3 1-1 2-2 3-1l4 4 1-2c3 1 5 4 4 7l-3-1c-1-2-2-5-4-6l1 5-1-1-1-3-4-2c-2 2 0 4 0 5-2 1-3-1-4-2 2-2 2-4 1-6zM257 150c3 2 2 6 2 9-1 2-3 4-3 7h2l-1 2-2 6-2-1 3-8v-10l1-5zM453 151l2 5v24c1 3 1 6-1 9-3-2-1-6-2-9v-10c-1-3 0-6 1-8v-10l-1 1 1-2zM517 151l4 2v6 10l-3 3v-7c2-4 1-9-1-14zM470 161c-2-1-2-2 0-3v3zM493 159c2-2 3 0 3 2l1-1 3-1c1 2 1 6-2 5l-1 4c-1-3-4-6-4-9zM468 162l6-2-1 2-1 7-2-1-1 2v7l1 6 3 2 2 1c1 0 5 3 1 3l-7-4-2-2a4020 4020 0 0 1-1-3v-3-6c1-2 1-5 4-5v-1h-3v-2l1-1zM405 168l2-4c1 2 0 4-1 5l-1-1zM487 174l2-1h3v1l1 3c1-1 2-4 4-2 2 1 4 1 5 3l6 5c-3 3-7 0-10-1l-8 8h-2l-8 1v-2h4l1-2 3 1c0-4 3-6 6-7-2-2-4-3-7-3v-4m13 6l5 3-3-4-2 1zM518 183v1h3v5h-2l-1-3v-3z"/></g><path fill="#dfdfdf" d="M319 38h2l7 1c2 2 4 3 7 2l10 2v3l-16-4 1 2-6 1h-7l3-2h7c-2-2-5-1-7-2l-4-3h3m2 1c0 2 3 2 3 0h-3z"/><g fill="#400000"><path d="M365 40l8-4c1 4 0 8-1 12-3 0-5-3-7-5l6 1-2-2h2l-6-2zM461 66c4 1 8 2 9 7v-5c2 3 1 6-1 9l-4-5-4-6z"/></g><g fill="#fbfbfb"><path d="M428 38l1-1 1 5v1c-2 5-3 11 0 16l3-1-2 2 7-2c-2 2-4 3-7 2l1 2-2-1v1l-1 2h-1c-2 0-5 2-6 0-1 3-3 4-5 6l-5 4c-2 1-3 2-3 4l2-6-3 2-3 3 2 2-2 1c-1-4-4 0-4 2l3-2 2 2-5 2-2-1v2l1 1 4 4 7 8v1l-10-10-1 2c-1-2-1-2-3-2l-2 1 1-3c-2 1-5 1-7-1l2-2 1-1-8-8-1-1c-1 0-2-1-1-3-2 0-5 0-6 2l-1 4 2-1-1 9v7 10l-1 2 1 3c-2 2-2 4-2 6v5l1 6-4-7c0-5-1-10 1-14l-2 1-1-20v-1l-1-5h2v15l2-3V80v-5c0-2 1-5-3-5l1 6-2-1c0-2 1-5-2-7h3c-3-2 0-6-2-9l-3-6 5 7 2 2-2-9-1-3 5 3v-5c1-3 0-7 2-9l1 9c1 1 2 3 1 5l-2-1v-2 1c1 2 0 4-1 5l2 1 1-4 1 1v4l1 1 2 3-2 1 1 1 1-1 3 1-1 4 4-2h1v1l1 3 2 2-3 2h1l2 2 1 1v-2l5 5 3-4h2v-1l5-5 2-3 7-8 3 1 3-6 1-3 4 1 1-14m-3 17v2l1 1 1-4-2 1m-9 5l3 1-4 4c3 0 5-2 7-4l-6-1m14 0v1h1v-1h-1m-54 5l-1 3 2-1c0 2 3 2 4 3-1-2-2-4-4-3l-1-2m-7 1l1 4c1-1 2-2 1-3l-2-1m2 27v0zM477 174c-1-1-2-4 0-4l1 3 2 2v-4l4 2v2l-4 1 2 3-5-5z"/></g><path fill="#9c9999" d="M305 38l1 3c2 5 0 11-1 16h2v1c-2-2-2 2 0 1v1l-2 1v8l5-1v2l-5 1c1 2 4 2 5 2l-3 3-2-3v13c0 2 2 1 4 2v1l-4 1 2 2h-1l-1 2c-2-11 0-22-1-32l1-24z"/><g fill="#858585"><path d="M508 43v-4l1 5-4 4 2 2v5c-1 5 1 10-2 13l-1-9v19h-1c1-10 0-20 3-29l-4-1 6-5zM345 43l11 1v2l-7-1 1 5-3-1h2l-4-2v-1-3zM193 54v10h-1l1-10z"/></g><path fill="#390000" d="M518 42c0-2 1-3 2-3 2-1 3 1 3 3h6l-10 1-1-1z"/><path fill="#908787" d="M310 40c1 1 1 1 0 0z"/><path fill="#7c7a7a" d="M163 41h6l1 7-1 1-1-6-3 1h-1l-1-3z"/><g fill="#fcfbfb"><path d="M197 48l-2-7 1 3h1l4 1 1 4 2-6h2l-1 10c-1 2 1 3 2 4l1 1-1 2 6 9 1 3-4-3-1 1 7 8h4l1 2 1 1 2 3a416 416 0 0 1 1 2l-1 1-1-2c-1-2-3-5-6-5l-2 1-4-2-1-2-5-9v-1l-1 1-2 1c1 3-1 6-1 10v-2-6-5c-2-3-2-6-1-10l-1-1-3-5v-2l-1-2 2 2m2-2c-1 1 0 2 1 2 1-1 0-2-1-2m3 11c-2 1 0 4 2 3 1-1 0-4-2-3m0 11l5-4c-3 0-6 0-5 4zM480 152l2-3 1 3h-2l-7 6v-3c2-1 4-4 6-3zM598 168v-1l2 2c3 1 2 5 3 7s-1 3-1 3l-2 2-19-1-1-1c7 1 13 2 19 1 2-3 2-6 0-9l-1-3z"/></g><path fill="#898989" d="M206 43v-2l1 16c-1-1-3-2-2-4l1-10z"/><path fill="#c5c5c5" d="M158 41l2 3 2-3c0 2 1 3 2 3h1l3 3-1 2c-2 1-3-3-4-4h-4c-1-1-2-2-1-4z"/><path fill="#685959" d="M363 42h6l2 2-6-1-2-1z"/><g fill="#fdfdfd"><path d="M234 43v3l1 7v4h2l-1 3-1 15-1 1v4h-2l-4 4-1-3 1-2-1-15 3-8c0 2 0 5 3 6v-3h-2v-4h2v-5l1-7m-4 25l1-6-1 6zM311 69h4l2 2c-1 2-2 4-5 4l1 6-4 1c-1 3 1 4 3 6l1 2h-3l1 6h-4l-1-4h1l-2-2 4-1v-1c-2-1-4 0-4-2V73l2 3 1 4h2v-7c-1 0-4 0-5-2l5-1 1-1zM520 79h10l-1 2h8v4c-4-1-7-2-11-1h-8l1-3 8-1c-2-1-4-1-6 1l-2-2h1zM232 83h2l1 9-1 10c0 3-1 6 1 8v3l2 7c1-1 1 1 2 2l-4-2 1-1-2-2-2-4-2-1 1 4h-1v3h-1l-2 1v-5c1-4 0-7-2-10l3 1-3-5 1-1 2-3v-2l-1-3c0 2 0 4-2 5l-2-4 1-4 7-3 1-3m-2 20c-1 1 0 3 1 4 2-1 1-4-1-4z"/><path d="M218 94c3 4 7 7 7 12-3-4-6-7-7-12zM156 139c5 0 6 7 10 9l5-6c0 3-3 6-5 9l-2 2-2-4-4-7-1-2-1-1zM310 173c3-2 7-2 11-1l-5 1h-6z"/></g><g fill="#510000"><path d="M234 43l3 2-3 1v-3zM250 74c-2-1 0-4 2-3 1 2-1 3-2 3zM440 103l5-3 1 11 1 4h-3l3 1-2 2 2-1c-2 4-8-1-8 4l-2-2c-1-4-1-8 1-12l-3-1 1-3 3 4 1-4z"/></g><path fill="#bababa" d="M132 44c1 1 1 1 0 0z"/><path fill="#751515" d="M521 45h3v5c-3 0-4-2-3-5z"/><path fill="#530000" d="M401 49c1-2 4-2 4 0h-4z"/><g fill="#510000"><path d="M526 48l2 2a390 390 0 0 0-2-2zM169 57l4-1 1 1-5 1 1 4-2-3 1-2zM253 61c2-1 3 2 2 3-2 1-3-2-2-3zM355 85c2-1 4 2 2 3s-3-2-2-3zM622 102l2-1 2-1v1l2 1 1 2c-1 1-2 3-4 3l1-3h-4v-2zM24 105c2 0 3 0 2 2-2 1-2 0-2-2zM186 127c2 1 3 2 2 4l-2-4zM219 129c3-1 1 6-1 2l1-2zM146 141v-2l7 1 1 7v1h-2c-2-1-4-1-5-3l-1-4zM185 145l2 2 1-1 2-1 2-1-1 3-4 2-4 1 2-5zM130 163c2-1 3 2 2 3-2 1-4-2-2-3zM233 173l1 8c-3-2-1-5-1-8zM180 182l3 3c0 2-2 3-3 2v-5zM493 206h3v3l-2-1-1-2zM315 207c2-1 3 2 2 3-2 1-3-2-2-3zM197 210c1-1 4 1 3 2-1 2-4 0-3-2zM300 212c2-1 2 0 2 2-2 0-2-1-2-2zM337 227c1-1 4 1 3 2s-4 0-3-2z"/></g><path fill="#640c0c" d="M542 50l2-2c2-1 4 0 5 2l1 4h-4l-2-1-2-3z"/><path fill="#260606" d="M225 51c-4-1 2-4 2-1l-2 1z"/><path fill="#0a0000" d="M401 49h5l-2 3c-2 1-3-1-3-3z"/><path fill="#818181" d="M135 52l3-2v1l3-1-1 1-3 3-2-2z"/><path fill="#faf9f9" d="M534 52c2-2 5-2 7-2h1c0 3-4 4-6 4l-2-2z"/><path fill="#7f7f7f" d="M145 50v2c-6 7-10 15-10 25v-9l-3 3c-1-4 0-8 2-11v6c3-6 6-11 11-16z"/><path fill="#8c8686" d="M519 51l2-1 3 2-1 2-5 2 4-3h-3v-2z"/><path fill="#7e7777" d="M536 54c2 0 6-1 6-4l2 3h-2c0 2 3 1 4 1v1l-8-1h-2z"/><path fill="#979797" d="M65 55l1-3 1 14h-3l1-3-2 2v-5a8450 8450 0 0 0 2-5z"/><path fill="#290707" d="M158 52c3 0-1 3 0 0z"/><g fill="#760000"><path d="M406 53h4-4zM524 52h2l1 1c-1 2-3 2-4 1l1-2zM580 52h1l1 1v3l-1 1h-1l-2-2 1-2v1l1-2zM483 97l4 3h-1l-2 2h-1a302 302 0 0 1 0-5zM503 98h1v3h-1v-3zM277 115c1-1 2-3 3-1v4l-2 4-2-2-4 3c-2-2-3-4-3-7 3-2 6-2 8-1zM467 133c2-6 11-8 15-2v2c-2-1-4-3-7-3l-8 5v-2zM372 201h3c0 2-3 3-3 0z"/></g><g fill="#bebebe"><path d="M509 52l3 1 1 2-1 4-3-1-2 3 3 1v1l-1 1c-1 2 0 3 1 5l-4 2-2 6v1-19l1 9c3-3 1-8 2-13l1-1 1-2m-2 15v2h1v-2h-1zM273 90c2-3 4-6 7-7-1 3-4 6-7 7z"/></g><path fill="#969494" d="M193 53l1 1h-1v-1z"/><path fill="#aca4a4" d="M228 54l2-2 1 3v4h2v3c-3-1-3-4-3-6l-3 8v-7l1-1v-2z"/><g fill="#410000"><path d="M407 57l-1-4h4l1 3-4 1zM185 75h3l-1 4 4-2-2 4c-2-2-4-3-4-6zM94 124v4h5v11l3 3 1 1 1 7-4 2-3-15c-3 2-7-1-8-5l-2 3-2 3-5-4c-2-2-4-4-7-4l-5 3 1-1c-3 1-5 4-6 7l2-1-2 3c1-3-3-4-3-7l5-2 2-2 5-2 3 1 2-1c1 2 3 2 4 1l-1-3 3-1c0 4-1 8 1 11l5-8 5-4zM539 165c2 0 3 1 3 3l1-1-2 6 1-5-3 4-1 2-2 2v-6c2 0 5-2 3-5zM458 194l3-3 3 2-1 1h-5z"/></g><g fill="#fafafa"><path d="M565 53l1 2 1 1h-5l-2-2 2 1 4 1-1-3zM159 85l1-1 3-1-1 2c0 2-1 3-3 5l-1-2-1-2 2-1zM365 148a1878 1878 0 0 1 6-2l7 1 1-2c2 1 5 0 6 3 3-1 5 1 5 3l3 3v6c2 1-1 3-2 4v7l-6 8c-1-2-4-2-5 0 1 2 3-1 5-1 0 4-4 6-6 9l-3 2h-6l-1-2h5c0-2-2-3-4-3l-4-1c-3 0-3-4-5-5l1-7 1-4v-4l1-4c1-3 2-7 5-9l-1 4 2-1-2 2-2 4-1 4-1 7c-1 4 1 7 3 11 3 4 8 1 11-2l11-11c1-6 1-12-2-17l-2-1-5-1c-3-2-7 0-9 2l2-2v-2l-7 2v2l-3 1 2-3-2-2 2 1m9 36l2 3v-2h5l-4-1 3-3-6 3z"/></g><path fill="#5b0000" d="M221 54h4l2 2 1-1v1l-1 1h-1l-3 2-1-3-1-2z"/><g fill="#2f0000"><path d="M534 54h4l-1 6-3-6zM460 76h2l4 12h2c0 4-5 2-7 3l4 4c-3 0-7-1-9 2l-3 6-2-1V90c3 0 4-2 4-5l2-8 5 3-2-4m-4 13c-1 2 2 3 3 2 1-2-2-3-3-2zM601 197l11-4 1 2-1 1c-5 0-9 3-12 6 5 1 11 1 15-3v2l3-1v2l-3 2-16-1 2-6z"/></g><path fill="#c3c3c3" d="M63 56l2-1v3l-2 2v-4z"/><g fill="#270000"><path d="M155 57c3 0 2 4 0 3-2 0-1-2 0-3zM79 81l2-2v7l-2 1-1-5 1-1zM64 110c2-1 2-3 3-5h2l4 1h-1l-5 4 2 2 3-1 2 2 2 5c0 2-2 3-3 4l-2-1c1-2 2-4 1-7l-12 3-2-3-2-2 2-2h-4l-1-2v-1l3 1c1 1 3 0 3-1h1l1 2-3 3 4 1 2-3m3-4c-1 3 3 0 0 0z"/></g><path fill="#846363" d="M164 57l5 7 3 2c-2 1-4 2-3 5l-2-1-1-4 1-1v-1l-3-3v-4z"/><g fill="#450000"><path d="M202 57c2-1 3 2 2 3-2 1-4-2-2-3zM440 122h1l4 2c0 4 0 7-2 10l-1-5-7 7h5c-3 1-6 1-9-1-2-3-1-6-1-9l1 2 9-6z"/></g><path fill="#837d7d" d="M226 57h1v7l1 15-1 2 1 3h-2-2l2-4c3-1 1-3 1-4l-1-19z"/><path fill="#790b0b" d="M509 58l3 1-1 2-1 1-3-1 2-3z"/><path fill="#260000" d="M437 61c1-3 4-3 6 0-2 2-4 2-6 0z"/><path fill="#f7f7f7" d="M454 59h2a324 324 0 0 0 5 10h-2l2 1 3 4-1 1-4-1a71 71 0 0 1-5-8l2-1h1l-3-6z"/><path fill="#8a0000" d="M518 62c3-3 9-3 10 2v1l-6-2c-2 0-3 2-5 3l1-4z"/><path fill="#989898" d="M172 63c-3-1 1-4 1-1l-1 1z"/><g fill="#390000"><path d="M173 62l1-2 2 2-1 3-2-1-1-1 1-1zM56 113l2 1 2 3 12-3c1 3 0 5-1 7l-1 1-5 6-2-2c-3 0-6 0-8-2l4-2-1-1-2-6v-2m9 8h3c1 0 3-2 1-3-2 0-3 1-4 3zM577 126l2 2v1l-5 1c0-2 2-3 3-4z"/></g><path fill="#d3d3d3" d="M291 61v9l-2 2 4 9-3-6-1 1h-1c1-2 2-5 0-7l2-2-2-1v-1l3 1v-5z"/><path fill="#7b0000" d="M242 63c0-2 4-1 4 0h-4z"/><path fill="#080000" d="M241 63h6l-1 4h-2c-2-1-3-2-3-4z"/><path fill="#d8d8d8" d="M588 63c2 0 2 0 2 2-2 0-2 0-2-2z"/><path fill="#b0a6a6" d="M166 64h1v1l-1 1v-2z"/><path fill="#a59292" d="M169 64h4l2 1-1 6h-1v-5h-1l-3-2z"/><path fill="#c0b0b0" d="M202 68c-1-4 2-4 5-4l-5 4z"/><path fill="#642020" d="M305 65l1-1h3l1 4-5 1v-4z"/><g fill="#900"><path d="M422 64c1 2 4 0 6 0v18h-4l-1-6-1-2c2-2 2-5 1-8l-2 2-3 2h-1c2-2 4-3 5-6zM510 69h1c0 4-1 9 1 13l2-2 5 1-1 3-1 1-4 4 1-4-2 1v5h-2l-1 1h-1l-2 3v-3l-1-1v1l-1 2-2-3 1-1 1-2 2 2v-6l-2 1v-8l2 4c1-4 0-9 4-12z"/></g><path fill="#650101" d="M460 64h6l4 4v5c-1-5-5-6-9-7l-1-2z"/><path fill="#e1e1e1" d="M192 64c4 3 2 7 3 11 2 4 1 8 2 12l1-10v1l1 7-4 7h-1c0-9 0-19-2-28z"/><path fill="#300000" d="M318 66l7-2 2 3c-4 1-8 0-10 4l11-1c-1 2-3 5-6 5-2 0-4-3-5-4l-2-2 2 1 1-4z"/><g fill="#410000"><path d="M428 64h1v8l2 2 3-1v4l-5-1v5l-1 1V64zM169 106h5l-2 2 3 3v3l-2-1 1 5 2-3c0 4 0 8-4 11l-2-1-9 1 7-5-4-1v-7l1-2h4v-5z"/></g><g fill="#380000"><path d="M155 66h4l-4 3v-3zM102 113l5-2a376 376 0 0 0 3 2l7 2v2l-3-1-2 1v1l-1 2-4 1-7 6-1 1h-5v-4l2-5 6-6m-5 11l-2 2c0 2 3 2 4 1 2-1-1-3-2-3z"/></g><path fill="#f7f5f5" d="M172 66h1v5l-4 2 1 6 2-5v6c-2 0-2 3-3 4v-5l-2 1c-1 0-2 1-2 3l-4-1 1-2 5-2-3-2 2-6v-1l1 1 2 1c-1-3 1-4 3-5m-5 7v0z"/><path fill="#eaeaea" d="M327 67l5-1 1 2 6 1-9 1h-1-1l-1-3z"/><path fill="#9d0101" d="M317 71c2-4 6-3 10-4l1 3-11 1z"/><path fill="#540202" d="M421 68l2-2c1 3 1 6-1 8l1 2-2 5V68z"/><path fill="#999595" d="M202 69l2-1v12h-2l-1-1c0-4 2-7 1-10z"/><path fill="#2f0000" d="M418 70l3-2v13l2-5 1 6-3-1c-3-3-6-7-3-11z"/><path fill="#300000" d="M156 70l4-1-1 3c2 1 1 4 4 5l-5 1v-6l-2-2z"/><path fill="#a6a5a5" d="M210 69l4 3-1-3 3 5 2-3 1 2c-2 2 0 4 1 5h-4l-7-8 1-1z"/><path fill="#af9898" d="M459 69h2l1-1a68 68 0 0 0 3 4l2 5-5-1h-2l-1-2 4 1 1-1-3-4-2-1z"/><path fill="#620303" d="M511 69h2l1 1v9h5v2l-5-1-2 2c-2-4-1-9-1-13z"/><g fill="#300000"><path d="M513 69c2 0 2 2 3 3l3 3 1 4h-1l2 2c2-2 4-2 6-1l-8 1v-2h-5v-9l-1-1m3 6c0 2 0 2 2 2l-2-2zM446 76h1v24h-2l-5 3-1 4-3-4-1 3 3 1c-2 4-2 8-1 12-2 0-2-2-2-3-5-1-8-8-4-12 2-3 6-3 9-3 0-3 2-6 1-9h4c2-5 0-11 1-16zM461 140c-1-3 2-4 5-4l1 5c-2 1-5 2-6-1zM453 150l2-2 2 4c-3 5-1 10-1 16h-1v-12l-2-5v-1z"/></g><path d="M519 75c2-3 5-4 8-6l1 4c-2 2-6 3-9 2zM309 116l1-1c1 4 0 8-3 10-3 1-6 1-8-1l8-4 1 2c1-2 2-4 1-6zM470 144c4-2 8-3 11-7l1 4c-2 3-8 6-12 3z"/><path fill="#989191" d="M594 70l3-1 3 7 1 2 2-3 1 2-1 3-3-2c2 4 4 8 8 11l-2-7c4 4 3 10 1 14 1-3-1-6-3-9l-7-7v-1l-1-2-2-3 2-2-1-1-1-1z"/><path fill="#691414" d="M506 71l4-2c-4 3-3 8-4 12l-2-4 2-6z"/><path fill="#6f4f4f" d="M169 73l4-2h1a633 633 0 0 0-2 3l-2 5-1-6z"/><path fill="#070000" d="M252 71c4 2 0 6-2 3 1 0 3-1 2-3z"/><g fill="#700000"><path d="M429 72c2-1 5-2 5 1l-3 1-2-2zM100 127l11 2 2 1c-5 3-10 7-11 12l-3-3v-11l1-1zM68 133l5-3c3 0 5 2 7 4l-6 1c-2 0-4 2-6-1v-1z"/></g><g fill="#2a0000"><path d="M140 72h4l-1 2 5 13h3l2-3c2 1 2 2 1 3l-6 1-6-1h-1l6 1-7-16zM465 72l4 5h1l1 1v4h-1l-3-5-2-5zM239 85c-2 0-1-2-2-3 2 2 5 2 7 1l1-1c0 4-4 3-6 3zM133 103c2-1 2 0 3 1-2 1-2 1-3-1zM29 110h6l2 2-2 3 1 1c3 3 8 3 11 1l1 3 2-3-6-1 4-2c2 0 3-1 4-3l2 1-2 4v7l-1-2-5 4v-3h-5l-1 3-2-2-1 4c1 1 3 2 1 4-1-4-4 0-5 2h4v2h-1l-3-1-3-6-7 1c0 2-1 3-3 4 1-2-3-3-3-1l-1-3c0-2-2-3-4-3v2l-3-1-2-2 4-1h3l2 1h3l-1 3 3-1 2 1c2-3 5-4 9-5-1-4-5-3-7-1v-2c-2 2-4 3-4 5l-3-4h5l-1-3 4 2 5-4 3 3c2-1 0-2-1-3l1-2-5-4m3 13l4 2v-4l-4 2zM393 160v-6c3 1 1 4 0 6z"/></g><path fill="#b9b9b9" d="M391 72l5 3 4 1-3 4-5-5v2l-1-1-2-2h-1l3-2z"/><g fill="#faf6f6"><path d="M108 74l2 1c1-1 2-2 3-1l-5 3-2 2 2 1a39 39 0 0 0-8 7l-5 4-4-1c4-1 6-4 9-6l3-4 4-4 1-2zM136 85h2l1 1 2 1h1l6 1 6-1c-1 1-3 2-3 4l-3-1h-6v-1h-4l-1-2-1-2zM162 90l2-2v6l-2-2-2 3-1-1-1-1 3-2 1-1zM289 133c2 3 2 8 3 11l1-7 3 2v14c1 5 2 9 1 14l-3-3v-1l1-3v-5c0-2-1-2-2-2l-1 1-1 3v-11c-2-4-1-9-2-13zM265 154h5v2c-3 0-6 2-8 1l-1-2 4-1zM360 165c-1-1-3-2-1-3l2 3-2 5 1-3v-2z"/></g><path fill="#c4c4c4" d="M167 73v2-2z"/><g fill="#3e0000"><path d="M196 74l3-1 2 4v2l1 1-1 1-1 3 4-2a121 121 0 0 0 1 16l-2 7-1-1v-8l1-1v-4-7h-3l-1 1-1-7v-1l-2-3zM215 81l2-1 4 6 3 3h-1l-2-1-4-5-1 2-3-4h2zM129 81h1l1 1c2 2 3 4 3 7l-1 1-3-3v1h-2l1-3v-1-3zM105 104c1-1 2-3 4-1l-4 4c-4 0-8 2-12 4l1 2-2-4 6-2c2-2 4-2 7-3zM41 122h5v7l-5-1 3 4-2 4 4 4c-3 2-4-1-5-2l-1 4c-2-2-3-4-3-7v-2l1-2c2-2 0-3-1-4l1-4 2 2 1-3z"/></g><path fill="#c3c2c2" d="M600 76c0-2 2-3 3-1a494 494 0 0 1-3 1z"/><path fill="#836b6b" d="M132 75l2 4c1 2 1 4 3 3l1 3h-2l1 2-2 1 1-1-2 2c0-3-1-5-3-7v-2l3 2-2-7m2 9c1 1 1 1 0 0z"/><path fill="#691d1d" d="M364 79c0-1 0-3 2-4l1 2-3 2z"/><path fill="#3f0d0d" d="M222 77l5-1c0 1 2 3-1 4l-4 1-1-1 1-3z"/><path fill="#874e4e" d="M288 76h1l-1 12-1-2-1-4-1 1c2-2 3-4 3-7z"/><path fill="#910101" d="M462 76l5 1 3 5h1l1 2-2 3-1 1-1-3-2 3-4-12z"/><path fill="#290000" d="M367 77v1l2 5v1h-1c-2-2-4 2-6 3l-1-1v-1l3-6 3-2z"/><path fill="#540606" d="M500 77l3 1h1v7l2-1v6l-2-2h-1v-9l-3-1v-1z"/><path fill="#805050" d="M234 78c2 1 1 3 2 5h-2-2l-1 3-7 3-3-3-4-6c3 0 5 3 6 5l1 2 1-1c2 1 3 0 3-2l4-4h2v-2z"/><path fill="#b09c9c" d="M211 79l4 2h-2l3 4 1-2 4 5 2 1a521 521 0 0 1-5 0l-3-2-1-2-3-6z"/><path fill="#350000" d="M587 82c-2-3 3-3 5-1-1 2-4 4-5 1z"/><g fill="#4f0000"><path d="M160 80h2l-1 2 4 1c0-2 1-3 2-3h2l-1 4a1706 1706 0 0 0-6 1l1-2-3 1v-4zM467 97l2 2-2 6-1-3-4 4h-4v3l1 3-1 1-1 4-2-2-2 2-1-5v-6l2-2c2-2 2-5 5-6s5 0 8 1v-2zM374 162l5 1c0 2-1 7 3 5 2 0 0 3 1 4-2 0-4-1-5-3v-1-3h-1l-3-3z"/></g><g fill="#5d0000"><path d="M254 82l4-2v7l-4-2v-3zM257 142l6-4-3 7-2 1-1 4-1 5-2-6c0-3 1-5 3-7z"/></g><path fill="#570000" d="M45 82l3-2 1 3 3 1 2-2-1 2-1 2-2 7-2-1 1-2c1-2 3-5 0-7-1 3-4 1-4-1z"/><g fill="#330101"><path d="M123 80l2 2-1 4v1l-2-1-1-2 2-1v-3zM248 137c1-2 2-3 4-3 0 2-2 3-4 3zM425 140c4-1 8 1 11 2l1 4-2 3 2 1c-1 2-2 4-4 4v-6c-1-2-3-3-6-3l-1-3-1-2zM488 164l4-2 1 4c-1 2-5 1-5-2zM522 205l8-2-8 7 2-3-2-2zM332 220l4-2-2 4-2-2z"/></g><path fill="#240000" d="M175 85c0-3 2-5 5-4l1 2c1 1 3 2 1 4l-6-3v3l-3-1v-4l2 3z"/><path fill="#440606" d="M83 92c1-3 0-7 2-10l1 6 3 1h-3c0 2 2 3 4 2v4l-1 1h-4l-2-3v-1z"/><path fill="#702c2c" d="M285 83l1-1 1 4c-2 0-3-1-3-3h1z"/><path fill="#fcfcfc" d="M471 82l7 10a31 31 0 0 0 4 3l1 2v1l-1 1v2h-2l1 4-1 2-1-3c-1-3-5-6-4-10 1 2 2 3 4 3l-4-6-2-3 1 6-2-2-2-5 2-3-1-2z"/><path fill="#ada0a0" d="M478 92V81l2 9v4l-2-2z"/><path fill="#a6a6a6" d="M537 84l1-3c2 1 4 1 4 3v1l-2 1-13-1h-10l1-1h8c4-1 7 0 11 1v-1z"/><path fill="#4c1818" d="M362 87c2-1 4-5 6-3l-2 2-4 2v-1z"/><path fill="#e6dbdb" d="M134 84c1 1 1 1 0 0z"/><path fill="#583a3a" d="M226 84h2c0 2-1 3-3 2l1-2z"/><g fill="#260000"><path d="M100 87l2-2v2c-3 1-5 4-6 6l-1-2 5-4zM81 96l2-3 2 3-2 3-4 2h6c2 0 4 1 4 3h-8l-2 1 7 5-5-1c1 2 3 2 5 3l-1 6-2-1-2-3-4-7 1-12h2l1 1z"/></g><path fill="#7a6767" d="M138 85l1 1-1-1z"/><path fill="#531212" d="M199 85l1-1v5l-4 5 3-2 1 4 1 7 1 1 1 1-1 2-2 2-1 1-2-1-1-9v1l-1-2h3v-5l-3 4v-6l4-7z"/><path fill="#d0c6c6" d="M221 86z"/><path fill="#340b0b" d="M122 86l2 1v-1l1 1v4c-2-1-3-3-3-5z"/><path fill="#897777" d="M157 86l1 2 1 2 2 1-3 2-2-1a334 334 0 0 1 0-5l1-1z"/><path fill="#3b0000" d="M335 92c0-2-1-5 1-6 3 0 3 7-1 6z"/><g fill="#970101"><path d="M447 88l3-2 1 4v12l-2-1-2-1V88zM480 90l2-2v7l-2-1v-4zM311 139h2c1 3-3 3-2 0zM497 157l3 1v1l-3 1v-3z"/></g><path fill="#4a1b1b" d="M79 87l1 3 3 2v1l-2 3-1-1c-2-2-4-4-3-7l1 2 1-3z"/><path fill="#503939" d="M166 88c0-1 1-2 3-2v3l-3 3h-1l1-4z"/><path fill="#320000" d="M482 88l2-1 1 6v-2c0 2 2 3 3 5 2 1 0 3 0 4h-1l-4-3-1-2v-7z"/><path fill="#641c1c" d="M484 87c2 0 1 3 1 4v2l-1-6z"/><g fill="#410000"><path d="M180 88c1 1 3 2 3 4-3 2-3-2-3-4zM112 118v-1l4 2h1c-1 1-4 2-4 4 0 3 3 4 6 3v4c2-1 3-3 3-5l3-3-1 9 7-11 1 3c-1 3 0 7-3 9a81 81 0 0 0-7 7h-1c-1-3 0-6-2-8l-1 3 1-3c-2-1-4-2-6-1l2 4-2-4-2-1-11-2 7-6 4-1 1-2z"/></g><path fill="#310000" d="M183 87c1 1 3 3 3 5l-1 4c-2-3-2-6-2-9z"/><path fill="#390000" d="M209 95l6-8 3 2c-2 3-6 4-7 7l-2 2 2-1-1 1-3 5-1-1v-2l-1-2v-3a3565 3565 0 0 0 4 0z"/><path fill="#350000" d="M302 88c3 0-1 3 0 0z"/><path fill="#b5a3a3" d="M503 88h1l-1 2v-2z"/><g fill="#3b0000"><path d="M56 92l5-3-1 3-1 3-2 1-1-4zM194 92h1v7l1 2c1 3 2 7 0 10h2l-1 2h-3v-3l-6-3-1 2-3-1 2 11c-2 0-6-3-3-4l-2-9-4 1-1 8-2 3-1-5 2 1v-3l-3-3 2-2h-5v5h-4l1-1-1-3c-1-4 4-2 6-3l-2-3 6-2 3 5 3-2 1-1 4-1 6 1 1-2 1-4-4 2 4-5z"/></g><path fill="#fbfbfb" d="M133 91l4-2 4 2 3 1v1l3 1h3v3l-6-1-2 2-1-3v-3c-3 1-5 3-8 3h-3c0 3 4 3 6 4l1 2-8-5v-3h8l-4-2z"/><path fill="#774b4b" d="M196 94l4-5v3l3-1v4l-1 1h-2l-1-4-3 2z"/><path fill="#430000" d="M211 96c1-3 5-4 7-7 2 1 2 3 0 5l-4 4-3-2z"/><path fill="#aeadad" d="M223 89h1l-1 4-1 1c0 2 1 4 3 4v-1c2-1 2-3 2-5l1 3v2l-2 3c-4-1-3-5-7-6l2-1v-3l2-1z"/><path fill="#9a7d7d" d="M90 91l1-1 4 1 1 2-3 2-1 2h-1l1-3-2 1v-4z"/><path fill="#664141" d="M125 90h1c0 1 3 3 1 3l-2-2v-1z"/><path fill="#cbc0c0" d="M142 90h6l2 1v3h-2l-4-1v-2 1l-3-1 1-1z"/><path fill="#d6d6d6" d="M503 95l-1-4 2 3 2 1 2-3-1 9v2l-2 4 1 2-1 2v2c-1 2 2 3 3 2v-1-3c1-6 2-11 1-16l1-4h2a71 71 0 0 0-1 9l-1 10v1h7v4l3-2c0 2 1 2 2 3l-8 1-2 1-1 1-1-2-8-1 2-1v-2l-7-2c2-2 5-1 7-1l-2-3 2-1c0-1-2-2-1-4v-1h1c1-1 2-3 1-4l-1 1h-1v-3m6 20c2 0 6 1 7-2-2 1-6-1-7 2z"/><path fill="#c6b0b0" d="M505 91l1 1h-1v-1z"/><path fill="#785a5a" d="M513 91c2-1 2 0 2 2-2 0-2 0-2-2z"/><path fill="#b7b7b7" d="M270 95c-1-1 2-2 3-3v2l2-1-2 4-1-1-2-1z"/><path fill="#621515" d="M504 94l1-2h1v3l-2-1z"/><path fill="#3e1616" d="M162 92a214 214 0 0 1 3 4v1h-4l1-5z"/><g fill="#2a0000"><path d="M97 99c0-2-1-4 1-6l1 7-5 3-1 1-1-5-2 1v-1l1-2h3l1-2 2 4zM73 123l8-1c-1 1-2 3-1 4l1 3c-1 1-3 1-4-1l-2 1-3-1 3-2v-1l-2-1v-1z"/></g><path fill="#645353" d="M152 96l4-2 3 3v1a244 244 0 0 0-7-2z"/><path fill="#441010" d="M89 96l1-1 2-1-1 3-1 2-5 2h-6l4-2 6-3z"/><path fill="#673232" d="M195 98l3-4v5h-3v-1z"/><path fill="#6d0000" d="M456 97c2-3 6-2 9-2l2 2v2c-3-1-5-2-8-1s-3 4-5 6l-2 2v6l-2-3v-5l-1-3 2 1 2 1 3-6z"/><path fill="#5e3030" d="M85 96h4l-6 3 2-3z"/><path fill="#260000" d="M159 97h6-1l-2 2 1 3h-4l1-4-3 5 5 6 3-2 1 3-1 1a111 111 0 0 1-3 4v3l-1 1c0-2 1-6-3-7l-1-3h-4l1-3c-3 0-6 2-7 4l-1 1-2 1v-6l3 1 7-3-2-2-3 2-3-4 3-2-3-1 5 1c2 0 4 2 6 1l-1-2 3 1v-1m-3 7c-2 0-2 3-1 3 2 1 3-2 1-3m4 6c0 2 0 2 2 2 0-2 0-2-2-2z"/><path fill="#9d7979" d="M200 96h2v8l-1-1-1-7z"/><path fill="#c7c7c7" d="M580 96c2 4 3 9 2 13 0-2 0-4-2-6v-7z"/><path fill="#9e9e9e" d="M311 97l14 1h-1l-8 1-5 1v-3z"/><path fill="#9c9090" d="M504 98l1-1c1 1 0 3-1 4v-3z"/><path fill="#310202" d="M139 102l7-5 3 1-3 2-6 3-1-1z"/><path fill="#450000" d="M205 98l1 2v2l1 1 3-5h2c-1 5-5 9-10 11v-2l1-2 2-7z"/><path fill="#010000" d="M469 99c2 4-2 9-6 10h-5v-3h4l4-4 1 3 2-6z"/><path fill="#929292" d="M482 99l1-1v4h1c2 3 3 6 3 10l-5-5-1 3 4 2c-2 1-1 3-1 5l-3-1c-1-3-2-6-1-9l1-2-1-4h2v-2m0 4c0 2 1 3 2 3 1-2-1-4-2-3z"/><g fill="#360000"><path d="M57 103c4-1 7-3 11-2v2c-3 0-6-1-7 1l4 2c-1 3-3 0-5 1h-2c0-1-2-3-1-4zM61 109l1-1 1 1 1 1-2 3-4-1 3-3z"/></g><path fill="#d2d2d2" d="M261 100c3-1 0 3 0 0z"/><path fill="#610707" d="M445 100h2l2 1 1 3h-2l-1 5-1 2-1-11z"/><path fill="#280000" d="M121 103l9-1 1 2-1 2 1 2v6l4 2c2-2 5-3 8-3v1c-2 2-4 3-7 3l-3 1c-2-2-4-4-7-4l-4-2 4-5-3-1h-2v-3m1 0c-1 4 4 1 5 0h-5m4 8h3l-2-4c-2 1-1 2-1 4z"/><path fill="#380000" d="M122 103h5c-1 1-6 4-5 0z"/><path fill="#b6b6b6" d="M230 103c2 0 3 3 1 4-1-1-2-3-1-4z"/><path fill="#920000" d="M596 110l7-7-1 6h2l-3 3v1l-5-3z"/><g fill="#290000"><path d="M115 108c0-2 1-5 4-4 2 1 1 4-2 3l-2 1zM152 112l4 5-1 1-3 2v-8z"/></g><path fill="#370000" d="M156 104c2 1 1 4-1 3-1 0-1-3 1-3z"/><path fill="#8c0202" d="M448 104h2v5l-3 3v-3l1-5z"/><path fill="#980a0a" d="M622 104h4l-1 3c2 0 3-2 4-3 1 2 0 4-1 6-1 0-4 0-5-2l-1-4z"/><path fill="#825757" d="M309 106l4-1v5h-2c1-1-1-4-2-3v-1z"/><g fill="#250000"><path d="M47 106l2 1v3h-4v3h-1l-4-2 2-5c1 1 2 3 5 3v-3zM187 109l1-2c-1 4 1 8-2 12l-2-11 3 1z"/></g><path fill="#3e0000" d="M67 106c3 0-1 3 0 0z"/><path fill="#3d0000" d="M49 107l4 1 1 2h4l-2 2h-2l-2-1c-2-1-4 1-4 3l-4 2-3-1-5 1-1-1 2-3 7 1h1v-3h4v-3z"/><path fill="#522e2e" d="M309 107c1-1 3 2 2 3h-1l-1-3z"/><g fill="#969696"><path d="M551 109l8-2-1 2-12 3v1h2v2l-2-1-2-2 2-2c1-2 3-1 5-1zM619 173c2 0 2 2 3 4 1-1 2-3 4-3-1 3 1 8-3 9l1-5-3 1v-2l-3 6-5-1-1-5c-1-1-3-1-3-3l7 1v2h-2v5h4c-1-3 0-6 1-9z"/></g><path fill="#340000" d="M153 109h4l1 3-1 6-1-1-4-5v8l3-2-2 6c-2-1-2-4-2-6h-3c0-2 0-6-2-7l1-1 6-1z"/><path fill="#949494" d="M506 109l2 2v3l-3-1v-2l1-2z"/><path fill="#390000" d="M160 110c2 0 2 0 2 2-2 0-2 0-2-2z"/><path fill="#8d0000" d="M410 117l7-7-2 7h-5z"/><path fill="#790000" d="M297 123c-1-5-1-9 1-13l3 3 4-1v3h-4l-4 8z"/><path fill="#630000" d="M585 117c-1-3 0-5 1-6l1 1 2 1v5l-4-1z"/><path fill="#765959" d="M305 113h1l1 1c1 2-1 3-2 1v-2z"/><path fill="#211" d="M457 117l1-4 1 6h-4c-1 3-2 7-6 6l1-2v-9l3 3 2-2 2 2m-5 3c1 1 1 1 0 0z"/><path fill="#9c6666" d="M520 113h1l2 1v1l-1 1c-1-1-2-1-2-3z"/><path fill="#370000" d="M126 114c3 0 5 2 7 4l3-1-2 4-2 2-1-3-1-2-2 1h-2l-1 3-3 3v-6c0-2 2-3 4-5z"/><path fill="#482d2d" d="M257 116l1-1c1 2 3 3 1 5-3 2-5-3-2-4z"/><path fill="#0c0000" d="M415 120c-2 0-5-1-5-3h5l1-1v3a300 300 0 0 0-1 1v4l5-2 1-1-3 6c-4 0-4-5-3-7z"/><path fill="#260000" d="M83 124l5-7 4 5v-4l3 1h1l-2 5-5 4-2-1 2-5-6 2z"/><path fill="#050505" d="M447 117l3 6c-2-2-4-2-5 1l-3-4-1 2h-1l-1-1c0-5 6 0 8-4z"/><path fill="#2e0000" d="M65 121c1-2 2-3 4-3 2 1 0 3-1 3h-3z"/><path fill="#250000" d="M128 119l2-1 1 2-7 11 1-9 1-3h2z"/><g fill="#6f0000"><path d="M113 123c0-2 3-3 4-4 3 2 3 5 2 7-3 1-6 0-6-3zM415 120l4-1 1 3-5 2v-4z"/></g><path fill="#1b0000" d="M393 120l5 1-2 6-2-1v-3l-1-3z"/><path fill="#886b6b" d="M452 120c1 1 1 1 0 0z"/><path fill="#340000" d="M46 125l5-4 1 2-1 13c-1 3-3 1-5 0l3-3-2-4h-1v-4z"/><path fill="#6c0000" d="M393 120l1 3-1 2 1 1 2 1 1 1h-11l1-2 5-2 1-4z"/><path fill="#680000" d="M439 121l1 1-9 6-1-2c1-4 6-4 9-5z"/><path fill="#2c0000" d="M16 122c3-2 0 3 0 0z"/><path fill="#7d0000" d="M329 123c4-1 9-1 11 3-3 1-6 0-9-1-3 0-4 3-6 4h-2c1-3 3-5 6-6z"/><g fill="#270000"><path d="M97 124c1 0 4 2 2 3-1 1-4 1-4-1l2-2zM41 128l5 1h1l2 4-3 3v4l-4-4 2-4-3-4z"/></g><path fill="#aaa" d="M583 128l7-5-2 5c-2 4 1 8 1 12l-3-9-1-1c-2 3-2 6-2 9v-4l-1 1c2-2 2-5 1-8z"/><path fill="#3a0000" d="M5 127l1 2 3-2 3 1 4 1 1 3c0 1 2 2 3 1 2-1 3-2 3-4l7-1 3 6 3 1-7 3-3 1c-2-3-6-3-9-3l-2-3-2 5h-2c0-2-1-4-3-4l-2 4-2-5 5 1c0-3-2-5-5-4l1-3z"/><path fill="#1d0000" d="M435 136l7-7 1 5-2 2h-6z"/><path fill="#090909" d="M573 136c5-1 7-5 10-8 1 3 1 6-1 8h-9z"/><path fill="#f5f5f5" d="M244 134l2-1-3 5-1 5-1 3-4 12-2 4-1 5v2c-2-2-2-4 0-5l-2-1v2h-3l1 5-2-3-2-1 5-3-5-11-4-2c3-2 2-4-1-5v-4l-3 9h2-1l-3 1c1 4-1 9-1 13l1 8c-3 0-7 0-7-4l-2 9c-1-2 0-5 1-8l3-10 4-11v3l3-2v-4l-3 1 2-7 2 1 2-3 1 2c2 5 6 10 7 15 1 2 1 4 3 4v-2h1c-2 2-2 8 2 6-1-2 0-3 1-5v-5c-1-2 0-5 2-6l1-1 5-11m-27 8c-1 1 0 4 1 2 1-1 0-4-1-2m-3 12l-3 10h-1l1 4c-1 3 3 1 2-1 1-3 0-7 3-9l-1-5-1 1z"/><path fill="#500e0e" d="M74 135l6-1 5 4 2-3c-2 2 1 3 2 4l-3-1-2 6v-2l-5-2-1-2-4-3z"/><path fill="#652e2e" d="M234 136l3-1v1c-1 2-2 2-3 0z"/><path fill="#360000" d="M374 136h6c0 2-5 4-6 0z"/><path fill="#cfcfcf" d="M122 139l1-1v2c3 1 5 4 6 7l-3 4c1-2 3-5 1-7l-2 3-3-1 2-3c1-2-2-3-3-4h1z"/><path fill="#603737" d="M242 143l1-5c2 1 1 5-1 5z"/><path fill="#090000" d="M327 140c3-2 6-2 9-1a244 244 0 0 1 5 5l-2 3c-1-5-6-6-10-6l-2-1z"/><path fill="#772424" d="M153 139h3l1 1 1 2-1 3-2 3-1-1-1-7v-1z"/><path fill="#680000" d="M338 140v-2l3 3 3 6h4c2 2 1 6 3 8 3 3 4 8 8 11l-3 4c-2-4-2-12-8-13v-1l-1-1c0-3-2-6-5-8l-1 2-2 3v5l-3 3-2-1c1-3 1-6 3-8 2-1 1-3 2-4l2-3-3-4z"/><path fill="#370000" d="M341 141l3-2v3l2 4 2 1h-4l-3-6z"/><path fill="#420000" d="M79 140l5 2v4h-4l-1-3-8-1v-1c3 1 6 2 8 1v-2z"/><path fill="#300" d="M371 140h4c-1 2-5 2-4 0z"/><path fill="#5e3333" d="M109 143l5-2-5 3v-1z"/><path fill="#a27474" d="M137 140c3 6 1 12 1 18l-1-9c2-1 1-3 0-5v-4z"/><path fill="#936868" d="M141 141v-1l1 22v6l-1-27z"/><path fill="#020303" d="M385 145c4-2 8-1 11-4v3l-5 3-6-2z"/><path fill="#070000" d="M322 143c2-1 2-1 2 1-1 1-1 1-2-1z"/><path fill="#8e8e8e" d="M417 144l1 1-2 5 1-6z"/><g fill="#f9f9f9"><path d="M125 147l2-3c2 2 0 5-1 7-2 0-4 0-5 3l-2-2v1c-1-3 0-4 2-4l1-2 1 3 2-3zM569 156c2-3 2-8 6-8l-4 8-3 9-3 8 1 1-1-1-2 5-1 3-2 1v-3l-3 1-2 1 1-2 3-2-1-1-1-6-2-4-3-2 1-2-1-1-3-2 2-2-2-2-2 7v1l-1 3c0 4 0 8-2 11l-1 6v2h-3l1-4c0-5 3-9 3-14h-1l-1 1 1-5 2 1 2-6c0-3 1-5 3-7l2 4 3 7 4 10 2-2-2 3 1 4 1 2 2-3v-1l1-3v-4-2c0-2 0-6 3-6l2-4zM475 160c2-2 3-4 6-4-1 2-3 5-6 4zM403 176l1-1 1 3c-1 3 0 8-4 9l1-4 1-7z"/></g><path fill="#ccc" d="M589 148c1-2 4-2 6-2 4-1 8 3 11 4 2 1 4 1 5 3-5 0-9-5-14-6l1 2c-4-1-6 3-7 6v7l6 4 1 1v1l1 3-2-2-2 2 2-3-5-2c-5-4-4-14 1-18h-4z"/><path fill="#a27f7f" d="M257 150l1-4 2 4-1 2c1 2 4 3 6 2l-4 1 1 2-2-2-1 4c0-3 1-7-2-9z"/><path fill="#858282" d="M187 149l4-2c-1 4-2 8-1 12v1c-2-4-1-8-2-12l-1 1z"/><path fill="#2c0000" d="M342 147c3 2 5 5 5 8l-6-6 1-2z"/><path fill="#908c8c" d="M451 151l2-1v1l-1 2 1-1v10c-1 2-2 5-1 8l-1-6c1-4 2-9 0-13z"/><path fill="#540000" d="M216 151l3-1c0 3-2 8 2 7-4 3-2 7-2 11l-3-1-1-3c0-4 2-9 1-13z"/><path fill="#817e7e" d="M517 161c2-3-2-6 0-10 2 5 3 10 1 14v6h-1v-5-5z"/><path fill="#725b5b" d="M296 153h1l1 4-1 2 2 2c-2 3-1 5-1 7h-4v-2-3 1l3 3c1-5 0-9-1-14z"/><path fill="#570d0d" d="M214 154l1-1 1 5c-3 2-2 6-3 9l-2 1-1-4h1l3-10z"/><path fill="#130101" d="M471 155c1 0 2 0 2 2-2 0-3 0-2-2z"/><path fill="#0e0000" d="M339 157l1-1c0 1 0 3-2 3l-2 1 3-3z"/><path fill="#1e0c0c" d="M348 157c6 1 6 9 8 13l3-4 1 1-1 3 2-5 2 2-1 4h-1c-1 0-2 0-3 2l-3-2-2-4c0-4-3-7-5-10z"/><path fill="#320000" d="M484 158c2-1 5 1 4 3s-2 1-4 1v-4z"/><path fill="#410000" d="M285 175c3-6 2-12 6-16v3l-2 5v3l1 2h-1l-1 2-3 1z"/><path fill="#f2f2f2" d="M291 159l2 1-2 11 2-1 1-1h1l9 1 8 1h-5c-3 2-6 1-9 0l-8 1-1-2c3-2 2-5 2-8v-3z"/><path fill="#130000" d="M330 159c3-1 0 3 0 0z"/><path fill="#580000" d="M334 159l2 1 2-1v2l9-2c-1 3-4 3-6 3s-6 0-7-3z"/><path fill="#462c2c" d="M365 163l1-4 2 2-1 1v1h-2z"/><path d="M367 163z"/><path fill="#600000" d="M460 165c0-2 2-3 4-2v3l-4-1z"/><path fill="#200" d="M547 163l-1 3c2 2 4 6 2 9-1 2-3 2-4 2 2-3 2-7 2-11l1-3z"/><path fill="#760000" d="M321 166c1-1 2-2 3-1 0 2-2 2-3 1z"/><path fill="#030000" d="M377 165h1v4h1c-4 2-6-3-2-4z"/><path fill="#b7a6a6" d="M190 167l1 5 2 1c1 2 0 5-2 3l-1-9z"/><path fill="#e5e5e5" d="M421 167h1a241 241 0 0 1-1 0z"/><path fill="#a10000" d="M518 172l3-3v15h-3v-12z"/><path fill="gray" d="M361 171h1l-1 7v-7z"/><path fill="#3c0000" d="M464 172l2-1v6c-2 0-3-2-3-3l1-2z"/><path fill="#5c1717" d="M561 170l2 5v1l-3 1-1-4 2-3z"/><path fill="#500000" d="M178 176c-2-1-3-5 0-5 4 0 2 4 0 5z"/><path fill="#420808" d="M565 173l1 1-1 5-2-1 2-5z"/><path fill="#110505" d="M566 174l1 1c-1 2 0 6-3 6h-2l1-3 2 1 1-5z"/><path fill="#230000" d="M448 181c-1-2 3-4 3-2 1 2-1 4-3 2z"/><path fill="#3f1010" d="M546 183c3-1 7-1 10-4l-1 2 2-1 3-1v1c-1 0-2 0-2 2l-13 4 1-3z"/><path fill="#780000" d="M475 181c1-1 3-1 3 1l6 3c-1 2-5 1-6 4 1-2 0-3-2-4l2-2-3-2z"/><path fill="#2d0202" d="M483 181c0 3-4-1-1-1h1v1z"/><path fill="#240404" d="M558 182c0-2 1-2 2-2v2h-2z"/><path fill="#b39e9e" d="M538 185l3-4-1 4h-2z"/><path fill="#300000" d="M139 182c2 0 2 0 2 2-2 1-2 0-2-2z"/><path fill="#4a0000" d="M591 187c3-1 4-4 7-4l-2 3 1 1c-2 3-7 2-10 4a298 298 0 0 0-5 3l-4 2v-2l2-2 1-2v-1l1 2c3-2 6-4 9-4z"/><path fill="#410000" d="M543 194c4 0 7-3 11-4 6-2 11 1 17 0-2 2-5 3-8 2-5-1-10 0-14 2l-10 8c1-2 3-3 3-5l-4 2 5-5z"/><path fill="#3e0000" d="M583 192l4-1-1 5c4 0 8-2 11-4l5 5c-3 0-6-2-8 0-5 0-8 4-13 5l5-5v-4l-4 1 1-2z"/><path fill="#4b0000" d="M598 192c5 3 10-3 14 1l-11 4c-2 0-5 2-5 5h-1c1-1 2-3 1-4l-2-1c2-2 5 0 8 0l-5-5h1z"/><path fill="#300000" d="M464 193c2 2 1 6-2 7-3 0-5-3-5-6h6l1-1z"/><path fill="#090000" d="M474 201c3-2 9-2 11-7l1 5-1 1c-4 2-7 3-11 2v-1z"/><path fill="#490000" d="M501 197l2 2 4 1c-4 1-7 3-11 3-3-1-6 0-9 1l-2-2 1-1c1 3 6 2 8 1 3-1 6-2 9-1l-2-4z"/><path fill="#400000" d="M617 198c4-2 9 0 13 0l-2 2c-4-4-7 1-10 2a153 153 0 0 0 1-4h-2z"/><path fill="#430000" d="M505 205l7-6 1 3c3 1 7-3 10 0-6 1-11 3-16 6l-2-2-7 2c2-2 5-2 7-3z"/><path fill="#520000" d="M369 204h3c0 2-3 1-3 0z"/><path fill="#560000" d="M309 208c1 1 1 1 0 0z"/><path fill="#300" d="M325 210c1-3 4 0 5 0 0 3-3 1-5 0z"/><path fill="#050000" d="M486 217c3 0-1 3 0 0z"/><path fill="#590000" d="M265 224l6-3-3 5c-2 1-4-1-3-2z"/></svg>