<svg xmlns="http://www.w3.org/2000/svg" viewBox="0 0 1702.21 510"><title>1</title><path d="M77.63,526.4H23.88v-119h-19v-47.6H96.65v47.6h-19Zm-33.75-20H57.63v-119h19v-7.6H24.87v7.6h19Z" transform="translate(-4.87 -16.4)" style="fill:#fff"/><path d="M187.59,526.4H86V359.77h101.6Zm-33.74-20h13.74V379.77H153.85v59.51H119.74V379.77H106V506.4h13.75V446.89h34.11Z" transform="translate(-4.87 -16.4)" style="fill:#fff"/><path d="M266.69,526.4h-83V359.77h82.17v47.6H237.45V415h23.93V462.6H237.45v16.2h29.24Zm-63-20h43v-7.6H217.45V442.6h23.93V435H217.45V387.37h28.43v-7.6H203.71Z" transform="translate(-4.87 -16.4)" style="fill:#fff"/><path d="M368,526.4H314.26V359.77H399.7v47.6H368V415h25.77V462.6H368Zm-33.74-20H348V442.6h25.77V435H348V387.37h31.7v-7.6H334.26Z" transform="translate(-4.87 -16.4)" style="fill:#fff"/><polygon points="432.02 510 429.15 483.01 427.51 483.01 424.65 510 371.22 510 394.69 343.38 460.88 343.38 485.75 510 432.02 510" style="fill:#fff"/><path d="M558.91,526.4H474.7V359.77h53.74v119h30.47Zm-64.21-20h44.21v-7.6H508.44v-119H494.7Z" transform="translate(-4.87 -16.4)" style="fill:#fff"/><path d="M632.48,526.4H548.26V359.77H602v119h30.47Zm-64.22-20h44.22v-7.6H582v-119H568.26Z" transform="translate(-4.87 -16.4)" style="fill:#fff"/><polygon points="702.03 510 673.74 483.01 673.74 370.36 702.03 343.38 746.14 343.38 775.34 370.25 775.34 482.93 747.75 510 702.03 510" style="fill:#fff"/><path d="M829.86,526.4H776.12V359.77h85.44v47.6h-31.7V415h25.77V462.6H829.86Zm-33.74-20h13.74V442.6h25.77V435H809.86V387.37h31.7v-7.6H796.12Z" transform="translate(-4.87 -16.4)" style="fill:#fff"/><path d="M1033.22,526.4H907.9V359.77H966l4.63,27.7,4.31-27.7h58.24Zm-30.89-20h10.89V379.77H992.11l-5.23,33.58h15.45Zm-74.43,0h10.88v-93h15.94l-5.61-33.58H927.9Zm36.58-55.66,6.08,40.1,6.08-40.1Z" transform="translate(-4.87 -16.4)" style="fill:#fff"/><polygon points="1073.71 510 1070.84 483.01 1069.2 483.01 1066.33 510 1012.91 510 1036.38 343.38 1102.57 343.38 1127.43 510 1073.71 510" style="fill:#fff"/><path d="M1224.47,526.4h-55.71l-5.93-18.77-5.39,18.77h-55.92L1132.69,440,1102,359.77h56.77l3.57,13.35,3.56-13.35h56.54l-29.21,80.16Zm-41.06-20H1196l-24-66.5,21.91-60.13h-12.6l-11,41.31H1154.5l-11-41.31h-12.36l22.94,60-24,66.59h12.38l12.27-42.74h15.26Z" transform="translate(-4.87 -16.4)" style="fill:#fff"/><polygon points="1259.66 510 1259.66 343.38 1329.46 343.38 1358.2 370.31 1358.2 433.87 1329.38 460.1 1313.41 460.1 1313.41 510 1259.66 510" style="fill:#fff"/><polygon points="1396.63 510 1393.77 483.01 1392.12 483.01 1389.26 510 1335.83 510 1359.29 343.38 1425.49 343.38 1450.36 510 1396.63 510" style="fill:#fff"/><path d="M1510,526.4h-53.75V456.71l-33-96.94H1479l4.29,18.84,4.3-18.84h55.72l-33.24,97Zm-33.75-20H1490v-53l25.24-73.62H1503.5l-12.07,53h-16.36l-12.06-53h-11.8l25.07,73.63Z" transform="translate(-4.87 -16.4)" style="fill:#fff"/><path d="M1628.18,526.4h-45.41l-4.89-16v16h-51.7V359.77h45.61l4.69,15.28V359.77h51.7Zm-30.62-20h10.62V379.77h-11.7v70.55h-16.11Zm-51.38,0h11.7V435H1574l-17-55.26h-10.83Z" transform="translate(-4.87 -16.4)" style="fill:#fff"/><path d="M1707.08,526.4h-83V359.77h82.17v47.6h-28.42V415h23.93V462.6h-23.93v16.2h29.24Zm-63-20h43v-7.6h-29.24V442.6h23.93V435h-23.93V387.37h28.42v-7.6h-42.17Z" transform="translate(-4.87 -16.4)" style="fill:#fff"/><path d="M86.65,369.77v27.6h-19v119H33.88v-119h-19v-27.6H86.65" transform="translate(-4.87 -16.4)" style="fill:#110b09;stroke:#000;stroke-miterlimit:10"/><path d="M177.59,369.77V516.4H143.85V456.89H129.74V516.4H96V369.77h33.75v59.51h14.11V369.77h33.74" transform="translate(-4.87 -16.4)" style="fill:#110b09;stroke:#000;stroke-miterlimit:10"/><path d="M255.88,369.77v27.6H227.45V425h23.93V452.6H227.45v36.2h29.24v27.6h-63V369.77h62.17" transform="translate(-4.87 -16.4)" style="fill:#110b09;stroke:#000;stroke-miterlimit:10"/><path d="M389.7,369.77v27.6H358V425h25.77V452.6H358v63.8H324.26V369.77H389.7" transform="translate(-4.87 -16.4)" style="fill:#110b09;stroke:#000;stroke-miterlimit:10"/><path d="M457.13,369.77,479,516.4H445.88l-2.87-27H423.38l-2.86,27H387.6l20.65-146.63Zm-16.57,92-6.34-60.95H431l-5.11,60.95h14.72" transform="translate(-4.87 -16.4)" style="fill:#110b09;stroke:#000;stroke-miterlimit:10"/><path d="M518.44,369.77v119h30.47v27.6H484.7V369.77h33.74" transform="translate(-4.87 -16.4)" style="fill:#110b09;stroke:#000;stroke-miterlimit:10"/><path d="M592,369.77v119h30.47v27.6H558.26V369.77H592" transform="translate(-4.87 -16.4)" style="fill:#110b09;stroke:#000;stroke-miterlimit:10"/><path d="M770.21,391V495.13L748.53,516.4H710.9l-22.3-21.27V391l22.3-21.27h36.2L770.21,391Zm-33.75,6.33h-14.1V488.8h14.1V397.37" transform="translate(-4.87 -16.4)" style="fill:#110b09;stroke:#000;stroke-miterlimit:10"/><path d="M851.56,369.77v27.6h-31.7V425h25.77V452.6H819.86v63.8H786.12V369.77h65.44" transform="translate(-4.87 -16.4)" style="fill:#110b09;stroke:#000;stroke-miterlimit:10"/><path d="M1023.22,369.77V516.4H992.33v-93H990.9l-14.11,93H964.32l-14.11-93h-1.43v93H917.89V369.77h39.68l11.86,71h3.06l11-71h39.68" transform="translate(-4.87 -16.4)" style="fill:#110b09;stroke:#000;stroke-miterlimit:10"/><path d="M1098.82,369.77,1120.7,516.4h-33.13l-2.87-27h-19.62l-2.88,27h-32.92l20.66-146.63Zm-16.57,92-6.34-60.95h-3.27l-5.12,60.95h14.73" transform="translate(-4.87 -16.4)" style="fill:#110b09;stroke:#000;stroke-miterlimit:10"/><path d="M1208.19,369.77l-25.56,70.14,27.6,76.49h-34.14l-13.5-42.74h-.41l-12.27,42.74h-34.15l27.6-76.49-26.8-70.14h34.57l11,41.31h.41l11-41.31h34.57" transform="translate(-4.87 -16.4)" style="fill:#110b09;stroke:#000;stroke-miterlimit:10"/><path d="M1353.07,391v54.8l-22.7,20.66h-22.09v49.9h-33.75V369.77h55.84Zm-32.32,6.33h-12.47V438.9h12.47V397.37" transform="translate(-4.87 -16.4)" style="fill:#110b09;stroke:#000;stroke-miterlimit:10"/><path d="M1421.73,369.77l21.89,146.63h-33.13l-2.86-27H1388l-2.86,27h-32.92l20.64-146.63Zm-16.55,92-6.35-60.95h-3.27l-5.12,60.95h14.74" transform="translate(-4.87 -16.4)" style="fill:#110b09;stroke:#000;stroke-miterlimit:10"/><path d="M1529.27,369.77,1500,455.05V516.4h-33.74V455.05l-29-85.28H1471l12.07,53h.4l12.07-53h33.75" transform="translate(-4.87 -16.4)" style="fill:#110b09;stroke:#000;stroke-miterlimit:10"/><path d="M1618.18,369.77V516.4h-28L1568.29,445h-.41V516.4h-31.7V369.77h28.22l21.67,70.56h.41V369.77h31.7" transform="translate(-4.87 -16.4)" style="fill:#110b09;stroke:#000;stroke-miterlimit:10"/><path d="M1696.26,369.77v27.6h-28.42V425h23.93V452.6h-23.93v36.2h29.24v27.6h-63V369.77h62.17" transform="translate(-4.87 -16.4)" style="fill:#110b09;stroke:#000;stroke-miterlimit:10"/><path d="M1609.69,112.52h-69.48V58.11l43.71-41.71h69.81l43.34,41.72V135.7l-87.38,81.38v17.56h87.38v60.12H1540.21V194.61L1627.58,111V76.51h-17.89v36" transform="translate(-4.87 -16.4)" style="fill:#110b09"/><path d="M1605,71.77v36h-60V60.14l40.87-39h66l40.49,39v73.5L1605,215v24.37h87.37V290H1545V196.64L1632.33,113V71.77H1605" transform="translate(-4.87 -16.4)" style="fill:#110b09"/><path d="M1602.87,105.69H1547V61l39.62-37.81H1651L1690.24,61v71.71l-87.37,81.38v27.36h87.37v46.47H1547V197.53l87.38-83.63V69.69h-31.54v36" transform="translate(-4.87 -16.4)" style="fill:#fff"/><path d="M352.52,18.78l38.32,256.75,45.43-125.87-50-130.88h64.48l20.61,77.08,21.37-77.08h64.48l-47.7,130.88,51.52,142.72H497.32l-25.18-79.75-23.66,79.75H331.54L326.2,242H289.57l-5.35,50.37H222.79l38.54-273.6ZM321.62,190.5,309.79,76.78h-6.11L294.14,190.5h27.48" transform="translate(-4.87 -16.4)" style="fill:#e22739"/><path d="M213.76,18.78h-74L119.13,151.19h-5.72L91.28,18.78h-74v273.6H74.87V118.76h2.67l26.33,173.62h23.28l26.32-173.62h2.68V292.38h57.61V18.78" transform="translate(-4.87 -16.4)" style="fill:#e22739"/><path d="M807.93,58.47,765.58,18.78H661.41v273.6h63V199.27h41.21l42.35-38.54V58.47ZM747.64,70.3v77.46H724.37V70.3h23.27" transform="translate(-4.87 -16.4)" style="fill:#e22739"/><path d="M937.2,18.78H846l-38.55,273.6h61.44L874.23,242h36.63l5.35,50.37H978L937.2,18.78ZM906.29,190.5H878.82l9.54-113.72h6.1L906.29,190.5" transform="translate(-4.87 -16.4)" style="fill:#e22739"/><path d="M1127.79,18.78h-63l-22.51,98.83h-.77L1019,18.78h-63l54.18,159.12V292.38h63V177.9l54.57-159.12" transform="translate(-4.87 -16.4)" style="fill:#e22739"/><path d="M1295.58,18.78h-59.13V150.43h-.77L1195.23,18.78h-52.66v273.6h59.15V159.2h.76l40.83,133.18h52.27V18.78" transform="translate(-4.87 -16.4)" style="fill:#e22739"/><path d="M1431.18,18.78h-116v273.6h117.52V240.86h-54.57V173.32h44.66V121.81h-44.66V70.3h53V18.78" transform="translate(-4.87 -16.4)" style="fill:#e22739"/><path d="M391.8,265.83l41.93-116.14L382.82,16.4H452.6l18.82,70.38L490.93,16.4h69.71L512.07,149.67l52.38,145.09H495.58l-23.37-74-21.95,74H329.39l-5.34-50.37H291.71l-5.34,50.37H220L259.26,16.4h95.32L391.8,265.83Zm-3.32,10.06-38-254.72H263.4L225.53,290h56.55l5.34-50.37h40.92L333.68,290h113l25.37-85.51,27,85.51h58.58L507,149.66,553.83,21.17H494.56l-23.22,83.77-22.4-83.77H389.75l49.07,128.47-45.74,126.7-4.6-.45ZM307.64,79.17h-1.76l-9.14,108.94H319Zm4.3-4.77,12.32,118.48H291.55L301.49,74.4h10.45" transform="translate(-4.87 -16.4)" style="fill:#110b09"/><path d="M141.78,21.17l-20.61,132.4h-9.78L89.26,21.17H19.64V290H72.48V116.37h7.11L105.92,290h19.17l26.33-173.62h7.11V290h52.85V21.17Zm12,111.61-24.56,162H101.82l-24.57-162v162H14.87V16.4H93.3l22.13,132.41h1.66L137.69,16.4h78.46V294.76H153.76v-162" transform="translate(-4.87 -16.4)" style="fill:#110b09"/><path d="M764.64,21.17H663.79V290H722V196.88h42.67l40.9-37.21V59.5L764.64,21.17Zm1.88-4.77,43.8,41V161.78L766.5,201.65H726.75v93.11H659V16.4ZM750,150.14H722V67.91h28Zm-4.77-4.77V72.68H726.75v72.69h18.51" transform="translate(-4.87 -16.4)" style="fill:#110b09"/><path d="M848.08,21.17,810.21,290h56.54l5.34-50.37H913L918.35,290h56.91L935.14,21.17Zm-4.16-4.77h95.33l41.54,278.36H914.07l-5.35-50.37H876.38L871,294.76H804.72Zm32.3,176.48L886.16,74.4h10.45l12.32,118.48Zm5.19-4.77h22.23L892.31,79.17h-1.76l-9.14,108.94" transform="translate(-4.87 -16.4)" style="fill:#110b09"/><path d="M1066.73,21.17,1044.21,120h-4.56l-22.52-98.82H959.41l53.24,156.34V290h58.19V177.5l53.61-156.33Zm-24.79,87.38,21-92.15h68.21l-55.52,161.9V294.76h-67.73V178.3L952.74,16.4H1021l21,92.15" transform="translate(-4.87 -16.4)" style="fill:#110b09"/><path d="M1238.83,21.17V152.81h-4.9L1193.47,21.17H1145V290h54.38V156.82h4.91L1245.08,290h48.12V21.17ZM1204.1,172.63V294.76h-63.91V16.4H1197L1234.05,137V16.4H1298V294.76h-56.43L1204.1,172.63" transform="translate(-4.87 -16.4)" style="fill:#110b09"/><path d="M1317.56,21.17V290h112.77V243.25h-54.56V170.94h44.63V124.19h-44.63V67.91h53V21.17Zm-4.76-4.77h120.77V72.68h-53v46.74h44.64v56.29h-44.64v62.77h54.56v56.28H1312.8V16.4" transform="translate(-4.87 -16.4)" style="fill:#110b09"/></svg>