<?xml version="1.0" encoding="UTF-8"?><svg xmlns="http://www.w3.org/2000/svg" xmlns:xlink="http://www.w3.org/1999/xlink" viewBox="0 0 213 62.38"><defs><linearGradient id="linear-gradient" x1="111.55" y1="51.9" x2="99.6" y2="11.15" gradientTransform="translate(0 61.76) scale(1 -1)" gradientUnits="userSpaceOnUse"><stop offset="0" stop-color="#ef7829"/><stop offset=".1" stop-color="#f07529"/><stop offset=".4" stop-color="#f0672b"/><stop offset=".7" stop-color="#f15e2c"/><stop offset="1" stop-color="#f15a2c"/></linearGradient></defs><g id="BackgroundColor"><path d="M10.5.5h192c5.52,0,10,4.29,10,9.59v42.2c0,5.3-4.48,9.59-10,9.59H10.5c-5.52,0-10-4.29-10-9.59V10.09C.5,4.79,4.98.5,10.5.5Z" style="fill:#f6f8fa; stroke:#d0d7de;"/></g><g id="Boosty"><g id="Join_Boosty"><path d="M73.91,51.16c0,.33-.03.69-.1,1.08-.07.39-.21.76-.45,1.1s-.57.63-1.01.85c-.44.23-1.03.34-1.78.34-.42,0-.83-.06-1.22-.18-.39-.12-.74-.3-1.05-.55-.31-.25-.56-.57-.74-.95-.19-.39-.28-.86-.28-1.41v-.87h1.99v.45c0,.24.02.47.06.67s.1.38.2.53c.09.14.22.26.39.34.16.08.38.13.64.13.29,0,.51-.05.67-.15s.27-.24.34-.4c.07-.16.11-.34.13-.53s.02-.38.02-.55v-6.75h2.2v6.85Z" style="fill:#1f6feb; stroke-width:0px;"/><path d="M75.41,50.7c0-.58.09-1.1.27-1.58.18-.47.43-.87.76-1.21.33-.33.72-.59,1.18-.77.46-.18.97-.27,1.54-.27s1.09.09,1.55.27c.46.18.86.44,1.18.77.33.33.58.73.76,1.21s.27,1,.27,1.58-.09,1.1-.27,1.57-.43.87-.76,1.2c-.33.33-.72.59-1.18.76-.46.18-.98.27-1.55.27s-1.08-.09-1.54-.27-.85-.43-1.18-.76c-.33-.33-.58-.73-.76-1.2-.18-.47-.27-.99-.27-1.57ZM77.4,50.7c0,.29.03.57.08.85s.15.52.29.74c.14.22.31.39.54.53s.5.2.84.2.62-.07.85-.2c.23-.13.41-.31.55-.53.14-.22.23-.47.29-.74s.08-.56.08-.85-.03-.57-.08-.85-.15-.53-.29-.74-.32-.39-.55-.53c-.23-.13-.51-.2-.85-.2s-.62.07-.84.2c-.22.14-.4.31-.54.53s-.23.46-.29.74-.08.57-.08.85Z" style="fill:#1f6feb; stroke-width:0px;"/><path d="M86.23,45.95h-1.99v-1.64h1.99v1.64ZM84.24,47.07h1.99v7.24h-1.99v-7.24Z" style="fill:#1f6feb; stroke-width:0px;"/><path d="M87.8,47.07h1.89v1.01h.04c.25-.42.58-.73.98-.92.4-.19.81-.29,1.23-.29.53,0,.97.07,1.31.22s.61.35.81.6c.2.26.33.57.41.94.08.37.12.78.12,1.23v4.45h-1.99v-4.09c0-.6-.09-1.04-.28-1.34-.19-.29-.52-.44-.99-.44-.54,0-.93.16-1.18.48-.24.32-.36.85-.36,1.59v3.8h-1.99v-7.24Z" style="fill:#1f6feb; stroke-width:0px;"/><path d="M100.2,44.31h4.71c.48,0,.91.04,1.3.13.39.08.73.22,1.01.41s.5.45.65.76c.15.32.23.71.23,1.18,0,.5-.11.92-.34,1.26-.23.34-.57.61-1.02.83.62.18,1.08.49,1.38.93.3.44.46.98.46,1.6,0,.5-.1.94-.29,1.31s-.46.67-.79.9-.71.41-1.13.52c-.43.11-.86.17-1.31.17h-4.85v-10ZM102.4,48.36h2.23c.39,0,.71-.09.97-.28s.38-.49.38-.91c0-.23-.04-.42-.13-.57-.08-.15-.2-.27-.34-.35s-.3-.14-.48-.17-.37-.05-.57-.05h-2.06v2.34ZM102.4,52.61h2.35c.21,0,.42-.02.62-.06.2-.04.37-.11.52-.21.15-.1.27-.23.36-.4.09-.17.13-.38.13-.64,0-.51-.15-.88-.43-1.1-.29-.22-.67-.33-1.15-.33h-2.4v2.75Z" style="fill:#1f6feb; stroke-width:0px;"/><path d="M109.62,50.7c0-.58.09-1.1.27-1.58s.43-.87.76-1.21c.33-.33.72-.59,1.18-.77.46-.18.97-.27,1.54-.27s1.09.09,1.55.27c.46.18.86.44,1.18.77.33.33.58.73.76,1.21.18.47.27,1,.27,1.58s-.09,1.1-.27,1.57c-.18.47-.43.87-.76,1.2-.33.33-.72.59-1.18.76s-.98.27-1.55.27-1.08-.09-1.54-.27c-.46-.18-.85-.43-1.18-.76-.33-.33-.58-.73-.76-1.2s-.27-.99-.27-1.57ZM111.61,50.7c0,.29.03.57.08.85.06.28.15.52.29.74.14.22.32.39.54.53.22.13.5.2.84.2s.62-.07.85-.2.41-.31.55-.53c.14-.22.23-.47.29-.74.06-.28.08-.56.08-.85s-.03-.57-.08-.85c-.06-.28-.15-.53-.29-.74-.13-.21-.32-.39-.55-.53-.23-.13-.51-.2-.85-.2s-.62.07-.84.2c-.22.14-.4.31-.54.53-.13.21-.23.46-.29.74-.06.28-.08.57-.08.85Z" style="fill:#1f6feb; stroke-width:0px;"/><path d="M118.18,50.7c0-.58.09-1.1.27-1.58.18-.47.43-.87.76-1.21.33-.33.72-.59,1.18-.77.46-.18.97-.27,1.54-.27s1.08.09,1.55.27c.46.18.86.44,1.18.77.33.33.58.73.76,1.21.18.47.27,1,.27,1.58s-.09,1.1-.27,1.57c-.18.47-.43.87-.76,1.2-.33.33-.72.59-1.18.76-.46.18-.98.27-1.55.27s-1.08-.09-1.54-.27c-.46-.18-.85-.43-1.18-.76-.33-.33-.58-.73-.76-1.2-.18-.47-.27-.99-.27-1.57ZM120.17,50.7c0,.29.03.57.08.85.06.28.15.52.29.74.13.22.31.39.54.53.22.13.5.2.84.2s.62-.07.85-.2c.23-.13.41-.31.55-.53.13-.22.23-.47.29-.74.06-.28.08-.56.08-.85s-.03-.57-.08-.85c-.06-.28-.15-.53-.29-.74-.14-.21-.32-.39-.55-.53-.23-.13-.51-.2-.85-.2s-.62.07-.84.2c-.22.14-.4.31-.54.53-.14.21-.23.46-.29.74-.06.28-.08.57-.08.85Z" style="fill:#1f6feb; stroke-width:0px;"/><path d="M128.5,51.96c0,.21.04.4.13.55.09.15.2.28.34.38.14.1.3.17.48.22.18.05.37.07.57.07.14,0,.29-.02.44-.05.15-.03.29-.08.42-.15s.23-.16.31-.28c.08-.12.13-.26.13-.44,0-.3-.2-.52-.6-.67s-.95-.3-1.66-.45c-.29-.07-.57-.14-.85-.23-.28-.09-.52-.21-.74-.35-.21-.15-.39-.33-.52-.55-.13-.22-.2-.49-.2-.8,0-.47.09-.85.27-1.15.18-.3.42-.53.72-.71s.64-.29,1.01-.36c.37-.07.76-.11,1.15-.11s.77.04,1.14.11c.37.08.7.2.99.38.29.18.53.41.72.71s.31.67.34,1.11h-1.89c-.03-.38-.17-.64-.43-.78-.26-.14-.57-.2-.92-.2-.11,0-.23,0-.36.02-.13.01-.25.04-.36.09s-.2.11-.27.2c-.07.09-.11.21-.11.36,0,.18.07.32.2.43.13.11.3.2.51.27s.45.13.72.19c.27.06.55.12.83.18.29.07.57.14.85.24s.52.22.74.37.39.35.52.57c.13.23.2.51.2.85,0,.48-.1.88-.29,1.2s-.44.58-.75.78c-.31.2-.66.33-1.06.41-.4.08-.8.12-1.21.12s-.83-.04-1.23-.13-.76-.22-1.07-.42c-.31-.2-.57-.46-.77-.78-.2-.32-.31-.73-.33-1.21h1.89Z" style="fill:#1f6feb; stroke-width:0px;"/><path d="M136.99,47.07h1.46v1.33h-1.46v3.59c0,.34.06.56.17.67s.34.17.67.17c.11,0,.22,0,.32-.01.1,0,.2-.02.29-.04v1.54c-.17.03-.35.05-.56.06-.21,0-.41.01-.6.01-.31,0-.6-.02-.88-.06s-.52-.12-.73-.25-.38-.29-.5-.52c-.12-.22-.18-.52-.18-.88v-4.27h-1.2v-1.33h1.2v-2.17h1.99v2.17Z" style="fill:#1f6feb; stroke-width:0px;"/><path d="M142.97,55.21c-.21.59-.51,1.01-.9,1.26-.38.25-.92.38-1.6.38-.21,0-.41,0-.61-.02-.2-.01-.4-.03-.61-.05v-1.64c.19.02.38.04.57.06.2.02.39.02.59.01.26-.03.46-.13.58-.31.13-.18.19-.37.19-.59,0-.16-.03-.31-.08-.45l-2.54-6.79h2.11l1.64,4.96h.03l1.58-4.96h2.06l-3.03,8.14Z" style="fill:#1f6feb; stroke-width:0px;"/></g></g><g id="BoostyLogo"><path d="M92.88,26.24l6.04-20.91h9.28l-1.87,6.48-.06.11-4.93,17.11h4.59l-4.5,11.28c-8.48-.09-10.85-6.17-8.78-13.35M101.47,40.33l11.19-16.09h-4.74l4.13-10.31c7.07.74,10.41,6.31,8.44,13.06-2.09,7.24-10.57,13.35-18.83,13.35h-.19Z" style="fill:url(#linear-gradient); stroke-width:0px;"/></g></svg>