<?xml version="1.0" encoding="utf-8"?>
<!-- Generator: Adobe Illustrator 26.1.0, SVG Export Plug-In . SVG Version: 6.00 Build 0)  -->
<svg version="1.1" id="Layer_1" xmlns="http://www.w3.org/2000/svg" xmlns:xlink="http://www.w3.org/1999/xlink" x="0px" y="0px"
	 viewBox="0 0 1050 200" enable-background="new 0 0 1050 200" xml:space="preserve">
<g id="button">
	<path id="blue" fill="#F15F2C" d="M1018,200H32c-17.7,0-32-14.3-32-32V32C0,14.3,14.3,0,32,0h986c17.7,0,32,14.3,32,32v136
		C1050,185.7,1035.7,200,1018,200z"/>
</g>
<g id="sign">
	<g id="b_1_">
		<path fill="#FFFFFF" d="M91.4,112.1l19.8-68.5h30.4l-6.1,21.2c-0.1,0.1-0.1,0.2-0.2,0.4l-16.1,56.1h15.1
			c-6.3,15.7-11.2,28-14.7,37C91.7,157.9,84,138,90.7,114.4 M119.6,158.3l36.7-52.7h-15.5l13.5-33.8c23.2,2.4,34.1,20.7,27.7,42.8
			c-6.9,23.7-34.7,43.8-61.8,43.8C119.9,158.3,119.8,158.3,119.6,158.3z"/>
	</g>
</g>
<text transform="matrix(1 0 0 1 294.5652 118.8338)" fill="#FFFFFF" font-family="'ArialMT'" font-size="72px">Support me on Boosty</text>
<text transform="matrix(1 0 0 1 294.5652 118.8338)" fill="none" stroke="#FFFFFF" stroke-miterlimit="10" font-family="'ArialMT'" font-size="72px">Support me on Boosty</text>
</svg>
