<?xml version="1.0" encoding="UTF-8"?><svg xmlns="http://www.w3.org/2000/svg" viewBox="0 0 213 62.38"><g id="BackgroundColor"><path d="M10.5.5h192c5.52,0,10,4.29,10,9.59v42.2c0,5.3-4.48,9.59-10,9.59H10.5c-5.52,0-10-4.29-10-9.59V10.09C.5,4.79,4.98.5,10.5.5Z" style="fill:#f6f8fa; stroke:#d0d7de;"/></g><g id="Github"><path d="M40.34,51.16c0,.33-.03.69-.1,1.08-.07.39-.21.76-.45,1.1s-.57.63-1.01.85c-.44.23-1.03.34-1.78.34-.42,0-.83-.06-1.22-.18-.39-.12-.74-.3-1.05-.55-.31-.25-.56-.57-.74-.95-.19-.39-.28-.86-.28-1.41v-.87h1.99v.45c0,.24.02.47.06.67s.1.38.2.53c.09.14.22.26.39.34.16.08.38.13.64.13.29,0,.51-.05.67-.15s.27-.24.34-.4c.07-.16.11-.34.13-.53s.02-.38.02-.55v-6.75h2.2v6.85Z" style="fill:#1f6feb; stroke:#231f20; stroke-miterlimit:10; stroke-width:.05px;"/><path d="M41.84,50.7c0-.58.09-1.1.27-1.58.18-.47.43-.87.76-1.21.33-.33.72-.59,1.18-.77.46-.18.97-.27,1.54-.27s1.09.09,1.55.27c.46.18.86.44,1.18.77.33.33.58.73.76,1.21s.27,1,.27,1.58-.09,1.1-.27,1.57-.43.87-.76,1.2c-.33.33-.72.59-1.18.76-.46.18-.98.27-1.55.27s-1.08-.09-1.54-.27-.85-.43-1.18-.76c-.33-.33-.58-.73-.76-1.2-.18-.47-.27-.99-.27-1.57ZM43.83,50.7c0,.29.03.57.08.85s.15.52.29.74c.14.22.31.39.54.53s.5.2.84.2.62-.07.85-.2c.23-.13.41-.31.55-.53.14-.22.23-.47.29-.74s.08-.56.08-.85-.03-.57-.08-.85-.15-.53-.29-.74-.32-.39-.55-.53c-.23-.13-.51-.2-.85-.2s-.62.07-.84.2c-.22.14-.4.31-.54.53s-.23.46-.29.74-.08.57-.08.85Z" style="fill:#1f6feb; stroke:#231f20; stroke-miterlimit:10; stroke-width:.05px;"/><path d="M52.66,45.95h-1.99v-1.64h1.99v1.64ZM50.67,47.07h1.99v7.24h-1.99v-7.24Z" style="fill:#1f6feb; stroke:#231f20; stroke-miterlimit:10; stroke-width:.05px;"/><path d="M54.23,47.07h1.89v1.01h.04c.25-.42.58-.73.98-.92.4-.19.81-.29,1.23-.29.53,0,.97.07,1.31.22s.61.35.81.6c.2.26.33.57.41.94.08.37.12.78.12,1.23v4.45h-1.99v-4.09c0-.6-.09-1.04-.28-1.34-.19-.29-.52-.44-.99-.44-.54,0-.93.16-1.18.48-.24.32-.36.85-.36,1.59v3.8h-1.99v-7.24Z" style="fill:#1f6feb; stroke:#231f20; stroke-miterlimit:10; stroke-width:.05px;"/><path d="M73.86,53.18c-.39.5-.83.86-1.3,1.06-.48.2-.96.3-1.44.3-.77,0-1.45-.13-2.07-.4-.61-.27-1.13-.63-1.55-1.1s-.74-1.02-.97-1.65c-.22-.63-.34-1.31-.34-2.04s.11-1.44.34-2.08.55-1.2.97-1.67c.42-.48.94-.85,1.55-1.12.61-.27,1.3-.41,2.07-.41.51,0,1.01.08,1.49.23.48.15.92.38,1.3.68.39.3.71.67.96,1.11.25.44.41.94.46,1.51h-2.1c-.13-.56-.38-.98-.76-1.26-.37-.28-.83-.42-1.36-.42-.49,0-.92.1-1.26.29-.35.19-.63.45-.84.77s-.37.69-.47,1.1-.15.84-.15,1.27.05.83.15,1.23c.1.4.25.75.47,1.07s.5.57.84.76c.35.19.77.29,1.26.29.73,0,1.29-.18,1.69-.55s.63-.9.69-1.6h-2.21v-1.64h4.2v5.41h-1.4l-.22-1.13Z" style="fill:#1f6feb; stroke:#231f20; stroke-miterlimit:10; stroke-width:.05px;"/><path d="M79.09,45.95h-1.99v-1.64h1.99v1.64ZM77.1,47.07h1.99v7.24h-1.99v-7.24Z" style="fill:#1f6feb; stroke:#231f20; stroke-miterlimit:10; stroke-width:.05px;"/><path d="M83.18,47.07h1.46v1.33h-1.46v3.59c0,.34.06.56.17.67.11.11.34.17.67.17.11,0,.22,0,.32-.01.1,0,.2-.02.29-.04v1.54c-.17.03-.35.05-.56.06-.21,0-.41.01-.6.01-.31,0-.6-.02-.88-.06-.28-.04-.52-.12-.73-.25-.21-.12-.38-.29-.5-.52-.12-.22-.18-.52-.18-.88v-4.27h-1.2v-1.33h1.2v-2.17h1.99v2.17Z" style="fill:#1f6feb; stroke:#231f20; stroke-miterlimit:10; stroke-width:.05px;"/><path d="M85.79,44.31h2.2v3.84h4.05v-3.84h2.2v10h-2.2v-4.31h-4.05v4.31h-2.2v-10Z" style="fill:#1f6feb; stroke:#231f20; stroke-miterlimit:10; stroke-width:.05px;"/><path d="M102.75,54.31h-1.89v-1.01h-.04c-.25.42-.58.72-.98.91-.4.19-.81.28-1.23.28-.53,0-.97-.07-1.31-.21-.34-.14-.61-.34-.81-.59-.2-.26-.33-.57-.41-.94-.08-.37-.12-.78-.12-1.23v-4.46h1.99v4.09c0,.6.09,1.04.28,1.34.19.29.52.44.99.44.54,0,.93-.16,1.18-.48.24-.32.36-.85.36-1.59v-3.8h1.99v7.24Z" style="fill:#1f6feb; stroke:#231f20; stroke-miterlimit:10; stroke-width:.05px;"/><path d="M104.26,44.31h1.99v3.64h.03c.24-.37.57-.65.99-.82.42-.17.85-.26,1.29-.26.36,0,.72.08,1.08.22.35.15.67.38.96.69.29.31.52.7.69,1.18.18.48.27,1.05.27,1.72s-.09,1.24-.27,1.72c-.18.48-.41.88-.69,1.18-.28.31-.6.54-.96.69-.36.15-.71.22-1.08.22-.53,0-1.01-.08-1.43-.25s-.74-.45-.95-.85h-.03v.92h-1.89v-10ZM109.57,50.7c0-.31-.03-.6-.1-.88s-.17-.53-.31-.74c-.14-.21-.32-.38-.53-.51s-.46-.19-.76-.19-.54.06-.76.19-.39.3-.53.51c-.14.21-.24.46-.31.74s-.1.57-.1.88.03.59.1.87.17.53.31.74.32.38.53.51.47.19.76.19.55-.06.76-.19.39-.3.53-.51c.14-.21.24-.46.31-.74s.1-.57.1-.87Z" style="fill:#1f6feb; stroke:#231f20; stroke-miterlimit:10; stroke-width:.05px;"/><path d="M118.42,51c0,.34.06.62.18.85.12.23.28.42.48.57.2.15.44.25.71.32.27.07.55.11.84.11.2,0,.41-.02.63-.05.22-.03.43-.1.63-.19s.36-.22.49-.38c.13-.16.2-.37.2-.62,0-.27-.09-.49-.26-.66-.17-.17-.4-.31-.68-.42s-.6-.21-.95-.29c-.35-.08-.71-.18-1.08-.28-.37-.09-.74-.21-1.09-.34-.35-.13-.67-.31-.95-.53-.28-.21-.51-.48-.68-.8s-.26-.71-.26-1.17c0-.51.11-.96.33-1.34s.51-.69.86-.95.76-.44,1.21-.56c.45-.12.9-.18,1.34-.18.52,0,1.02.06,1.5.17.48.12.91.31,1.28.57.37.26.67.6.89,1,.22.41.33.9.33,1.48h-2.13c-.02-.3-.08-.55-.19-.74-.11-.2-.25-.35-.43-.46-.18-.11-.38-.19-.61-.24-.23-.05-.48-.07-.75-.07-.18,0-.35.02-.53.06s-.34.1-.48.2c-.14.09-.26.21-.36.35-.09.14-.14.32-.14.53,0,.2.04.36.11.48.07.12.22.23.44.34.22.1.52.21.91.31s.89.23,1.52.39c.19.04.45.1.78.2.33.1.66.25.99.47.33.21.61.5.85.86s.36.82.36,1.38c0,.46-.09.88-.27,1.27-.18.39-.44.73-.79,1.02-.35.29-.78.51-1.3.67-.52.16-1.12.24-1.8.24-.55,0-1.09-.07-1.6-.2-.52-.14-.98-.35-1.37-.64-.4-.29-.71-.66-.95-1.11s-.35-.98-.34-1.6h2.13Z" style="fill:#1f6feb; stroke:#231f20; stroke-miterlimit:10; stroke-width:.05px;"/><path d="M125.79,47.07h1.89v.92h.03c.24-.39.55-.68.92-.85.37-.18.78-.27,1.23-.27.57,0,1.06.11,1.47.32.41.21.75.5,1.02.85.27.36.47.77.6,1.24s.2.96.2,1.48c0,.49-.07.95-.2,1.4s-.33.85-.59,1.19c-.27.34-.6.62-1,.83-.4.21-.86.31-1.39.31-.45,0-.86-.09-1.24-.27-.38-.18-.69-.45-.93-.81h-.03v3.43h-1.99v-9.78ZM129.45,53.01c.33,0,.6-.07.82-.2s.4-.3.53-.51c.14-.21.23-.46.29-.74.06-.28.08-.57.08-.85s-.03-.57-.09-.85-.16-.53-.3-.75c-.14-.22-.32-.4-.54-.53-.22-.13-.49-.2-.8-.2s-.6.07-.82.2c-.22.14-.4.31-.53.53-.14.21-.23.46-.29.74-.06.28-.08.57-.08.87s.03.57.09.85c.06.28.16.53.29.74s.32.38.54.51c.22.13.5.2.81.2Z" style="fill:#1f6feb; stroke:#231f20; stroke-miterlimit:10; stroke-width:.05px;"/><path d="M134.12,50.7c0-.58.09-1.1.27-1.58s.43-.87.76-1.21c.33-.33.72-.59,1.18-.77.46-.18.97-.27,1.54-.27s1.09.09,1.55.27c.46.18.86.44,1.18.77.33.33.58.73.76,1.21.18.47.27,1,.27,1.58s-.09,1.1-.27,1.57c-.18.47-.43.87-.76,1.2-.33.33-.72.59-1.18.76s-.98.27-1.55.27-1.08-.09-1.54-.27c-.46-.18-.85-.43-1.18-.76-.33-.33-.58-.73-.76-1.2s-.27-.99-.27-1.57ZM136.11,50.7c0,.29.03.57.08.85.06.28.15.52.29.74.14.22.32.39.54.53.22.13.5.2.84.2s.62-.07.85-.2.41-.31.55-.53c.14-.22.23-.47.29-.74.06-.28.08-.56.08-.85s-.03-.57-.08-.85c-.06-.28-.15-.53-.29-.74-.13-.21-.32-.39-.55-.53-.23-.13-.51-.2-.85-.2s-.62.07-.84.2c-.22.14-.4.31-.54.53-.13.21-.23.46-.29.74-.06.28-.08.57-.08.85Z" style="fill:#1f6feb; stroke:#231f20; stroke-miterlimit:10; stroke-width:.05px;"/><path d="M142.9,47.07h1.89v1.01h.04c.25-.42.58-.73.98-.92.4-.19.81-.29,1.23-.29.53,0,.97.07,1.31.22s.61.35.8.6c.2.26.33.57.41.94.08.37.12.78.12,1.23v4.45h-1.99v-4.09c0-.6-.09-1.04-.28-1.34s-.52-.44-1-.44c-.54,0-.93.16-1.18.48-.24.32-.36.85-.36,1.59v3.8h-1.99v-7.24Z" style="fill:#1f6feb; stroke:#231f20; stroke-miterlimit:10; stroke-width:.05px;"/><path d="M152.74,51.96c0,.21.04.4.13.55s.2.28.34.38c.14.1.3.17.48.22.18.05.37.07.57.07.14,0,.29-.02.44-.05.15-.03.29-.08.42-.15s.23-.16.32-.28c.08-.12.13-.26.13-.44,0-.3-.2-.52-.6-.67-.4-.15-.95-.3-1.66-.45-.29-.07-.57-.14-.85-.23s-.52-.21-.74-.35c-.21-.15-.39-.33-.52-.55-.13-.22-.2-.49-.2-.8,0-.47.09-.85.27-1.15.18-.3.42-.53.72-.71s.63-.29,1.01-.36c.37-.07.76-.11,1.15-.11s.77.04,1.14.11c.37.08.7.2.99.38.29.18.53.41.72.71s.31.67.34,1.11h-1.89c-.03-.38-.17-.64-.43-.78s-.57-.2-.92-.2c-.11,0-.23,0-.36.02-.13.01-.25.04-.36.09s-.2.11-.27.2c-.08.09-.11.21-.11.36,0,.18.07.32.2.43.13.11.3.2.51.27.21.07.45.13.72.19.27.06.55.12.83.18.29.07.57.14.85.24s.52.22.74.37.39.35.52.57.2.51.2.85c0,.48-.1.88-.29,1.2s-.44.58-.75.78c-.31.2-.66.33-1.06.41-.4.08-.8.12-1.21.12s-.83-.04-1.23-.13c-.4-.08-.76-.22-1.07-.42-.31-.2-.57-.46-.77-.78-.2-.32-.31-.73-.33-1.21h1.89Z" style="fill:#1f6feb; stroke:#231f20; stroke-miterlimit:10; stroke-width:.05px;"/><path d="M158.5,50.7c0-.58.09-1.1.27-1.58.18-.47.43-.87.76-1.21.33-.33.72-.59,1.18-.77.46-.18.97-.27,1.54-.27s1.08.09,1.55.27c.46.18.86.44,1.18.77.33.33.58.73.76,1.21.18.47.27,1,.27,1.58s-.09,1.1-.27,1.57c-.18.47-.43.87-.76,1.2-.33.33-.72.59-1.18.76-.46.18-.98.27-1.55.27s-1.08-.09-1.54-.27c-.46-.18-.85-.43-1.18-.76-.33-.33-.58-.73-.76-1.2-.18-.47-.27-.99-.27-1.57ZM160.49,50.7c0,.29.03.57.08.85.06.28.15.52.29.74.13.22.31.39.54.53.22.13.5.2.84.2s.62-.07.85-.2c.23-.13.41-.31.55-.53.13-.22.23-.47.29-.74.06-.28.08-.56.08-.85s-.03-.57-.08-.85c-.06-.28-.15-.53-.29-.74-.14-.21-.32-.39-.55-.53-.23-.13-.51-.2-.85-.2s-.62.07-.84.2c-.22.14-.4.31-.54.53-.14.21-.23.46-.29.74-.06.28-.08.57-.08.85Z" style="fill:#1f6feb; stroke:#231f20; stroke-miterlimit:10; stroke-width:.05px;"/><path d="M167.27,47.07h1.89v1.34h.03c.09-.22.22-.43.38-.62.16-.19.34-.35.55-.49s.42-.24.66-.32c.23-.07.48-.11.73-.11.13,0,.28.02.43.07v1.85c-.09-.02-.21-.04-.34-.05-.13-.01-.26-.02-.38-.02-.36,0-.67.06-.92.18-.25.12-.46.29-.61.5-.15.21-.26.46-.33.74-.07.28-.1.58-.1.91v3.26h-1.99v-7.24Z" style="fill:#1f6feb; stroke:#231f20; stroke-miterlimit:10; stroke-width:.05px;"/><path d="M174.26,51.96c0,.21.04.4.13.55s.2.28.34.38c.14.1.3.17.48.22.18.05.37.07.57.07.14,0,.29-.02.44-.05.15-.03.29-.08.42-.15s.23-.16.32-.28c.08-.12.13-.26.13-.44,0-.3-.2-.52-.6-.67-.4-.15-.95-.3-1.66-.45-.29-.07-.57-.14-.85-.23s-.52-.21-.74-.35c-.21-.15-.39-.33-.52-.55-.13-.22-.2-.49-.2-.8,0-.47.09-.85.27-1.15.18-.3.42-.53.72-.71s.63-.29,1.01-.36c.37-.07.76-.11,1.15-.11s.77.04,1.14.11c.37.08.7.2.99.38.29.18.53.41.72.71s.31.67.34,1.11h-1.89c-.03-.38-.17-.64-.43-.78s-.57-.2-.92-.2c-.11,0-.23,0-.36.02-.13.01-.25.04-.36.09s-.2.11-.27.2c-.08.09-.11.21-.11.36,0,.18.07.32.2.43.13.11.3.2.51.27.21.07.45.13.72.19.27.06.55.12.83.18.29.07.57.14.85.24s.52.22.74.37.39.35.52.57.2.51.2.85c0,.48-.1.88-.29,1.2s-.44.58-.75.78c-.31.2-.66.33-1.06.41-.4.08-.8.12-1.21.12s-.83-.04-1.23-.13c-.4-.08-.76-.22-1.07-.42-.31-.2-.57-.46-.77-.78-.2-.32-.31-.73-.33-1.21h1.89Z" style="fill:#1f6feb; stroke:#231f20; stroke-miterlimit:10; stroke-width:.05px;"/></g><g id="GithubLogo"><path d="M106.51,5.64c-9.85,0-17.81,8.02-17.81,17.94,0,7.93,5.1,14.64,12.18,17.02.88.18,1.21-.39,1.21-.86,0-.42-.03-1.84-.03-3.33-4.96,1.07-5.99-2.14-5.99-2.14-.8-2.08-1.97-2.62-1.97-2.62-1.62-1.1.12-1.1.12-1.1,1.8.12,2.74,1.84,2.74,1.84,1.59,2.73,4.16,1.96,5.19,1.49.15-1.16.62-1.96,1.12-2.4-3.95-.42-8.11-1.96-8.11-8.85,0-1.96.71-3.56,1.83-4.81-.18-.44-.8-2.29.18-4.75,0,0,1.5-.47,4.89,1.84,1.45-.39,2.95-.59,4.45-.59s3.04.21,4.45.59c3.39-2.32,4.89-1.84,4.89-1.84.97,2.47.35,4.31.18,4.75,1.15,1.25,1.83,2.85,1.83,4.81,0,6.89-4.16,8.41-8.14,8.85.65.56,1.21,1.63,1.21,3.33,0,2.4-.03,4.34-.03,4.93,0,.47.32,1.04,1.21.86,7.08-2.38,12.18-9.09,12.18-17.02.03-9.92-7.96-17.94-17.78-17.94Z" style="fill:#24292f; fill-rule:evenodd; stroke-width:0px;"/></g></svg>