<?xml version="1.0" encoding="UTF-8"?><svg xmlns="http://www.w3.org/2000/svg" viewBox="0 0 213 62.38"><g id="BackgroundColor"><path d="M10.5.5h192c5.52,0,10,4.29,10,9.59v42.2c0,5.3-4.48,9.59-10,9.59H10.5c-5.52,0-10-4.29-10-9.59V10.09C.5,4.79,4.98.5,10.5.5Z" style="fill:#f6f8fa; stroke:#d0d7de;"/></g><g id="Kofi"><g id="Join_Ko-fi"><path d="M80.79,51.16c0,.33-.03.69-.1,1.08-.07.39-.21.76-.45,1.1s-.57.63-1.01.85c-.44.23-1.03.34-1.78.34-.42,0-.83-.06-1.22-.18-.39-.12-.74-.3-1.05-.55-.31-.25-.56-.57-.74-.95-.19-.39-.28-.86-.28-1.41v-.87h1.99v.45c0,.24.02.47.06.67s.1.38.2.53c.09.14.22.26.39.34.16.08.38.13.64.13.29,0,.51-.05.67-.15s.27-.24.34-.4c.07-.16.11-.34.13-.53s.02-.38.02-.55v-6.75h2.2v6.85Z" style="fill:#1f6feb; stroke-width:0px;"/><path d="M82.29,50.7c0-.58.09-1.1.27-1.58.18-.47.43-.87.76-1.21.33-.33.72-.59,1.18-.77.46-.18.97-.27,1.54-.27s1.09.09,1.55.27c.46.18.86.44,1.18.77.33.33.58.73.76,1.21s.27,1,.27,1.58-.09,1.1-.27,1.57-.43.87-.76,1.2c-.33.33-.72.59-1.18.76-.46.18-.98.27-1.55.27s-1.08-.09-1.54-.27-.85-.43-1.18-.76c-.33-.33-.58-.73-.76-1.2-.18-.47-.27-.99-.27-1.57ZM84.28,50.7c0,.29.03.57.08.85s.15.52.29.74c.14.22.31.39.54.53s.5.2.84.2.62-.07.85-.2c.23-.13.41-.31.55-.53.14-.22.23-.47.29-.74s.08-.56.08-.85-.03-.57-.08-.85-.15-.53-.29-.74-.32-.39-.55-.53c-.23-.13-.51-.2-.85-.2s-.62.07-.84.2c-.22.14-.4.31-.54.53s-.23.46-.29.74-.08.57-.08.85Z" style="fill:#1f6feb; stroke-width:0px;"/><path d="M93.11,45.95h-1.99v-1.64h1.99v1.64ZM91.12,47.07h1.99v7.24h-1.99v-7.24Z" style="fill:#1f6feb; stroke-width:0px;"/><path d="M94.68,47.07h1.89v1.01h.04c.25-.42.58-.73.98-.92.4-.19.81-.29,1.23-.29.53,0,.97.07,1.31.22s.61.35.81.6c.2.26.33.57.41.94.08.37.12.78.12,1.23v4.45h-1.99v-4.09c0-.6-.09-1.04-.28-1.34-.19-.29-.52-.44-.99-.44-.54,0-.93.16-1.18.48-.24.32-.36.85-.36,1.59v3.8h-1.99v-7.24Z" style="fill:#1f6feb; stroke-width:0px;"/><path d="M107.08,44.31h2.2v4.15l3.91-4.15h2.75l-3.91,3.95,4.29,6.05h-2.76l-3.01-4.5-1.26,1.27v3.22h-2.2v-10Z" style="fill:#1f6feb; stroke-width:0px;"/><path d="M116.75,50.7c0-.58.09-1.1.27-1.58s.43-.87.76-1.21c.33-.33.72-.59,1.18-.77.46-.18.97-.27,1.54-.27s1.09.09,1.55.27c.46.18.86.44,1.18.77.33.33.58.73.76,1.21.18.47.27,1,.27,1.58s-.09,1.1-.27,1.57c-.18.47-.43.87-.76,1.2-.33.33-.72.59-1.18.76s-.98.27-1.55.27-1.08-.09-1.54-.27c-.46-.18-.85-.43-1.18-.76-.33-.33-.58-.73-.76-1.2s-.27-.99-.27-1.57ZM118.74,50.7c0,.29.03.57.08.85.06.28.15.52.29.74.14.22.32.39.54.53.22.13.5.2.84.2s.62-.07.85-.2.41-.31.55-.53c.14-.22.23-.47.29-.74.06-.28.08-.56.08-.85s-.03-.57-.08-.85c-.06-.28-.15-.53-.29-.74-.13-.21-.32-.39-.55-.53-.23-.13-.51-.2-.85-.2s-.62.07-.84.2c-.22.14-.4.31-.54.53-.13.21-.23.46-.29.74-.06.28-.08.57-.08.85Z" style="fill:#1f6feb; stroke-width:0px;"/><path d="M125.52,49.64h4.22v1.71h-4.22v-1.71Z" style="fill:#1f6feb; stroke-width:0px;"/><path d="M131.67,48.4h-1.19v-1.33h1.19v-.56c0-.64.2-1.17.6-1.58.4-.41,1.01-.62,1.82-.62.18,0,.35,0,.53.02s.35.03.52.04v1.48c-.23-.03-.48-.04-.73-.04-.27,0-.46.06-.58.19-.12.13-.18.34-.18.64v.43h1.37v1.33h-1.37v5.91h-1.99v-5.91ZM138.22,45.95h-1.99v-1.64h1.99v1.64ZM136.23,47.07h1.99v7.24h-1.99v-7.24Z" style="fill:#1f6feb; stroke-width:0px;"/></g></g><g id="KofiLogo"><path id="_ffffffff" d="M95.56,15.02l18.23-.03c2.24-.1,4.47,1.47,5.06,3.67.8,2.27-.31,5.06-2.51,6.11-1.22.73-2.65.66-4.02.84-.45.91-.17,2.13-.91,2.93-.49.63-1.33.87-2.13.8-3.63-.03-7.23.03-10.86.1-1.12.07-2.65-.28-2.79-1.64-.14-4.26-.03-8.52-.07-12.78M112.15,17.01c-.14,2.06,0,4.12-.07,6.18l.63.66c1.08.07,2.31.21,3.21-.56,2.24-1.5,2.06-5.55-.59-6.53-.98-.17-2.41-.7-3.18.24M99.54,18.45c-1.5,1.12-1.05,3.42.14,4.61,1.36,1.4,2.69,2.79,4.26,3.91,1.47-1.43,3-2.79,4.33-4.33,1.05-1.22,1.12-3.46-.38-4.33-1.29-.87-2.93-.31-4.02.63-1.22-.91-3-1.5-4.33-.49h0Z" style="fill:#fff; stroke-width:0px;"/><g id="_00bcf2ff"><path d="M103.8,4.3c9.55-1.49,18.5,5.04,19.99,14.59,1.49,9.55-5.04,18.5-14.59,19.99-5.65.88-11.37-1.05-15.32-5.17-6.69-6.95-6.48-18,.46-24.69.46-.45.95-.87,1.46-1.26,2.33-1.8,5.09-2.99,8-3.46M94.13,15.58v11.88c-.05,1.53.96,2.89,2.44,3.28,1.43.28,2.86.14,4.3.14,3.11-.14,6.25.03,9.36-.1,1.92-.21,3.07-1.99,3.28-3.77,2.27-.17,4.58-1.05,5.87-2.97,1.47-2.13,1.43-5.06.21-7.26-1.23-2.04-3.45-3.27-5.83-3.21h-18.16c-1.08-.07-1.5,1.12-1.47,2.03Z" style="fill:#00bcf2; stroke-width:0px;"/><path d="M113.58,22.53c0-1.57-.03-3.14.03-4.72,1.19.14,2.51.87,2.44,2.24.08,1.29-.9,2.4-2.19,2.48-.1,0-.19,0-.29,0Z" style="fill:#00bcf2; stroke-width:0px;"/></g><g id="_050708ff"><path d="M94.13,15.58c-.03-.91.38-2.1,1.5-1.99h18.16c2.34-.1,4.68,1.15,5.83,3.21,1.28,2.27,1.2,5.07-.21,7.26-1.4,1.83-3.56,2.92-5.87,2.97-.21,1.78-1.36,3.56-3.28,3.77-3.14.1-6.25-.1-9.4.07-1.43,0-2.9.14-4.3-.14-1.48-.39-2.5-1.75-2.44-3.28v-11.88M95.56,15.02c.03,4.26-.07,8.52.03,12.78.14,1.36,1.68,1.71,2.79,1.64,3.63-.07,7.23-.14,10.86-.1.8.1,1.6-.2,2.13-.8.73-.8.45-2.03.91-2.93,1.36-.17,2.79-.1,4.02-.84,2.2-1.05,3.28-3.81,2.51-6.11-.56-2.2-2.79-3.77-5.06-3.67l-18.2.03h0Z" style="fill:#050708; stroke-width:0px;"/><path d="M112.15,17.01c.73-.94,2.17-.45,3.18-.24,2.65.98,2.83,5.03.59,6.53-.91.73-2.13.63-3.21.56-.24-.21-.45-.42-.63-.66.1-2.03-.07-4.12.07-6.18M113.58,22.53c1.36.03,2.58-1.05,2.44-2.48.1-1.36-1.26-2.1-2.44-2.24v4.72Z" style="fill:#050708; stroke-width:0px;"/></g><path id="_f15e5fff" d="M99.54,18.45c1.36-1.01,3.11-.42,4.3.52,1.08-.94,2.72-1.5,4.02-.63,1.5.87,1.43,3.11.38,4.33-1.33,1.54-2.86,2.9-4.33,4.33-1.54-1.16-2.97-2.47-4.26-3.91-1.15-1.22-1.61-3.53-.1-4.65Z" style="fill:#f15e5f; stroke-width:0px;"/></g></svg>