<?xml version="1.0" encoding="utf-8"?>
<!-- Generator: Adobe Illustrator 26.1.0, SVG Export Plug-In . SVG Version: 6.00 Build 0)  -->
<svg version="1.1" xmlns="http://www.w3.org/2000/svg" xmlns:xlink="http://www.w3.org/1999/xlink" x="0px" y="0px"
	 viewBox="0 0 1050 200" style="enable-background:new 0 0 1050 200;" xml:space="preserve">
<style type="text/css">
	.st0{fill:#FF5E5B;}
	.st1{fill:#FFFFFF;}
</style>
<g id="Layer_3">
	<g id="button">
		<path id="blue" class="st0" d="M1018,199.4H32c-17.7,0-32-14.3-32-32v-136c0-17.7,14.3-32,32-32h986c17.7,0,32,14.3,32,32v136
			C1050.1,185.1,1035.8,199.4,1018,199.4z"/>
	</g>
</g>
<g id="Layer_2_00000057128383564957358420000000689610402532354442_">
	<g id="Artboard">
		<g id="Group" transform="translate(24.000000, 7.000000)">
			<path id="Rectangle-2" class="st1" d="M171,55.3h7.6c14.6,0,26.4,11.8,26.4,26.4v1.6c0,14.6-11.8,26.4-26.4,26.4H171v8
				c0,6.7-5.5,12.2-12.2,12.2h-57.6c-6.7,0-12.2-5.5-12.2-12.2V61.4c0-3.4,2.7-6.1,6.1-6.1C95.1,55.3,171,55.3,171,55.3z M171,69.4
				v26.2h6.9c7.2,0,13.1-5.9,13.1-13.1s-5.9-13.1-13.1-13.1C177.9,69.4,171,69.4,171,69.4z"/>
			<path id="Path-2" class="st0" d="M128.4,80.2c1.9-5.5,6.4-8.3,13.4-8.3c10.6,0,14.5,13.2,9,21.8c-3.7,5.7-11.1,13-22.4,21.8
				c-11.2-8.8-18.7-16-22.4-21.8c-5.5-8.6-1.6-21.8,9-21.8C122,71.9,126.5,74.7,128.4,80.2z"/>
		</g>
		<path id="SupportmeonKo-f" class="st1" d="M311.7,119.5c-3.2,0-6-0.4-8.4-1.2c-2.5-0.8-4.8-2.1-6.9-4c-1.2-1.1-1.8-2.2-1.8-3.5
			c0-1,0.4-1.9,1.1-2.7c0.7-0.8,1.6-1.2,2.7-1.2c0.8,0,1.6,0.3,2.2,0.8c1.8,1.5,3.5,2.5,5.1,3.2c1.7,0.7,3.6,1,5.9,1
			c2.5,0,4.6-0.5,6.4-1.6s2.7-2.5,2.7-4.1c0-2-0.9-3.5-2.6-4.6c-1.8-1.1-4.5-2-8.4-2.5c-9.6-1.4-14.4-5.9-14.4-13.4
			c0-2.8,0.7-5.2,2.2-7.2s3.4-3.6,5.9-4.7s5.3-1.6,8.4-1.6c2.8,0,5.4,0.4,7.8,1.3c2.4,0.8,4.5,1.9,6.1,3.3c1.3,1,1.9,2.2,1.9,3.5
			c0,1-0.4,1.9-1.1,2.7c-0.7,0.8-1.6,1.2-2.6,1.2c-0.7,0-1.3-0.2-1.8-0.6c-1.1-0.9-2.7-1.8-4.8-2.5c-2-0.8-3.9-1.2-5.5-1.2
			c-2.8,0-4.9,0.5-6.4,1.5s-2.3,2.4-2.3,4.1c0,1.9,0.8,3.3,2.3,4.3c1.6,1,4,1.8,7.4,2.4c3.8,0.7,6.8,1.5,9.1,2.5
			c2.3,1,4,2.4,5.1,4.2c1.1,1.8,1.7,4.1,1.7,7.1c0,2.8-0.8,5.2-2.3,7.3c-1.6,2.1-3.6,3.7-6.2,4.8
			C317.5,118.9,314.7,119.5,311.7,119.5z M361.7,83.6c1.1,0,2.1,0.4,2.8,1.2c0.7,0.8,1.1,1.7,1.1,2.9v16.7c0,4.7-1.3,8.5-3.9,11.1
			c-2.6,2.7-6.3,4-11.2,4s-8.5-1.3-11.1-4s-3.9-6.4-3.9-11.1V87.6c0-1.1,0.4-2.1,1.1-2.9s1.7-1.2,2.8-1.2s2.1,0.4,2.8,1.2
			c0.7,0.8,1.1,1.7,1.1,2.9v16.7c0,2.7,0.6,4.7,1.8,6c1.2,1.3,3,1.9,5.3,1.9c2.4,0,4.2-0.6,5.4-1.9c1.2-1.3,1.8-3.3,1.8-6V87.6
			c0-1.1,0.4-2.1,1.1-2.9C359.6,84,360.6,83.6,361.7,83.6z M392.5,82.9c3,0,5.8,0.8,8.2,2.3c2.5,1.6,4.4,3.7,5.8,6.5
			s2.1,5.9,2.1,9.4s-0.7,6.7-2.1,9.5s-3.3,5-5.8,6.5s-5.1,2.3-8.1,2.3c-2.1,0-4.1-0.4-6-1.3s-3.4-1.9-4.6-3.1v13
			c0,1.1-0.4,2.1-1.1,2.9c-0.7,0.8-1.7,1.2-2.8,1.2c-1.1,0-2.1-0.4-2.8-1.1c-0.7-0.7-1.1-1.7-1.1-2.9V87.6c0-1.1,0.4-2.1,1.1-2.9
			s1.7-1.2,2.8-1.2c1.1,0,2.1,0.4,2.8,1.2c0.7,0.8,1.1,1.7,1.1,2.9v0.3c1.1-1.3,2.5-2.5,4.4-3.5C388.5,83.4,390.5,82.9,392.5,82.9z
			 M391.5,112.2c2.8,0,5.1-1.1,6.9-3.2s2.7-4.7,2.7-7.9c0-3.2-0.9-5.8-2.7-7.9c-1.8-2.1-4.1-3.1-7-3.1s-5.2,1-7,3.1
			s-2.7,4.7-2.7,7.9c0,3.2,0.9,5.8,2.7,7.9C386.3,111.2,388.7,112.2,391.5,112.2z M433.6,82.9c3,0,5.8,0.8,8.2,2.3s4.4,3.7,5.8,6.5
			s2.1,5.9,2.1,9.4s-0.7,6.7-2.1,9.5s-3.3,5-5.8,6.5c-2.4,1.6-5.1,2.3-8.1,2.3c-2.1,0-4.1-0.4-6-1.3s-3.4-1.9-4.6-3.1v13
			c0,1.1-0.4,2.1-1.1,2.9s-1.7,1.2-2.8,1.2s-2.1-0.4-2.8-1.1s-1.1-1.7-1.1-2.9V87.6c0-1.1,0.4-2.1,1.1-2.9s1.7-1.2,2.8-1.2
			s2.1,0.4,2.8,1.2c0.7,0.8,1.1,1.7,1.1,2.9v0.3c1.1-1.3,2.5-2.5,4.4-3.5C429.5,83.4,431.5,82.9,433.6,82.9z M432.6,112.2
			c2.8,0,5.1-1.1,6.9-3.2s2.7-4.7,2.7-7.9c0-3.2-0.9-5.8-2.7-7.9c-1.8-2.1-4.1-3.1-7-3.1s-5.2,1-7,3.1s-2.7,4.7-2.7,7.9
			c0,3.2,0.9,5.8,2.7,7.9C427.4,111.2,429.7,112.2,432.6,112.2z M490.3,101.2c0,3.5-0.8,6.7-2.4,9.5s-3.7,5-6.5,6.5
			c-2.7,1.5-5.8,2.3-9.1,2.3c-3.3,0-6.4-0.8-9.1-2.3s-4.9-3.7-6.5-6.5s-2.4-5.9-2.4-9.5c0-3.5,0.8-6.7,2.4-9.5s3.7-5,6.5-6.5
			c2.7-1.6,5.8-2.3,9.1-2.3c3.3,0,6.3,0.8,9.1,2.3c2.7,1.6,4.9,3.7,6.5,6.5C489.5,94.6,490.3,97.7,490.3,101.2z M482.4,101.2
			c0-2.2-0.5-4.1-1.4-5.8c-0.9-1.7-2.1-3-3.6-3.9s-3.2-1.4-5-1.4s-3.5,0.5-5,1.4s-2.7,2.2-3.6,3.9c-0.9,1.7-1.4,3.6-1.4,5.8
			s0.5,4.1,1.4,5.7c0.9,1.7,2.1,3,3.6,3.9s3.2,1.4,5,1.4s3.5-0.5,5-1.4s2.7-2.2,3.6-3.9C481.9,105.3,482.4,103.4,482.4,101.2z
			 M515.2,82.9c1.3,0,2.4,0.4,3.3,1.1c0.9,0.7,1.4,1.6,1.4,2.6c0,1.4-0.4,2.4-1.1,3.1c-0.7,0.7-1.5,1-2.5,1c-0.7,0-1.4-0.2-2.2-0.5
			c-0.1,0-0.4-0.1-0.9-0.3c-0.5-0.1-1-0.2-1.5-0.2c-1.1,0-2.2,0.4-3.3,1.1c-1.1,0.7-1.9,1.8-2.6,3.2c-0.7,1.4-1,3.1-1,5.1v15.6
			c0,1.1-0.4,2.1-1.1,2.9s-1.7,1.2-2.8,1.2s-2.1-0.4-2.8-1.2c-0.7-0.8-1.1-1.7-1.1-2.9V87.6c0-1.1,0.4-2.1,1.1-2.9s1.7-1.2,2.8-1.2
			s2.1,0.4,2.8,1.2c0.7,0.8,1.1,1.7,1.1,2.9v0.9c1-1.8,2.5-3.2,4.4-4.1C511,83.4,513,82.9,515.2,82.9z M542.5,111.4
			c0.6,0,1.2,0.3,1.7,0.9s0.8,1.4,0.8,2.3c0,1.2-0.6,2.2-1.9,3c-1.3,0.8-2.8,1.2-4.4,1.2c-2.7,0-5-0.6-6.9-1.7
			c-1.9-1.2-2.8-3.6-2.8-7.4V91.5h-3c-1.1,0-1.9-0.4-2.6-1.1c-0.7-0.7-1.1-1.6-1.1-2.6s0.4-1.9,1.1-2.5c0.7-0.7,1.6-1,2.6-1h3V80
			c0-1.1,0.4-2.1,1.2-2.9s1.7-1.2,2.9-1.2c1.1,0,2,0.4,2.8,1.2c0.7,0.8,1.1,1.7,1.1,2.9v4.2h4.7c1.1,0,1.9,0.4,2.6,1.1
			c0.7,0.7,1.1,1.6,1.1,2.6s-0.4,1.9-1.1,2.5c-0.7,0.7-1.6,1-2.6,1H537v17.9c0,0.9,0.2,1.6,0.7,2s1.1,0.6,2,0.6
			c0.4,0,0.8-0.1,1.5-0.3C541.5,111.5,542,111.4,542.5,111.4z M611.6,82.9c4.4,0,7.4,1.3,9,4c1.7,2.7,2.5,6.3,2.5,11v16.9
			c0,1.1-0.4,2.1-1.1,2.9c-0.7,0.8-1.7,1.2-2.8,1.2s-2.1-0.4-2.8-1.2c-0.7-0.8-1.1-1.7-1.1-2.9V97.9c0-2.4-0.5-4.3-1.4-5.7
			c-0.9-1.4-2.6-2.1-5-2.1c-2.5,0-4.4,0.7-5.8,2.2c-1.4,1.5-2.1,3.3-2.1,5.6v16.9c0,1.1-0.4,2.1-1.1,2.9c-0.7,0.8-1.7,1.2-2.8,1.2
			s-2.1-0.4-2.8-1.2c-0.7-0.8-1.1-1.7-1.1-2.9V97.9c0-2.4-0.5-4.3-1.4-5.7c-0.9-1.4-2.6-2.1-5-2.1c-2.5,0-4.4,0.7-5.8,2.2
			c-1.4,1.5-2.1,3.3-2.1,5.6v16.9c0,1.1-0.4,2.1-1.1,2.9c-0.7,0.8-1.7,1.2-2.8,1.2s-2.1-0.4-2.8-1.2c-0.7-0.8-1.1-1.7-1.1-2.9V87.6
			c0-1.1,0.4-2.1,1.1-2.9c0.7-0.8,1.7-1.2,2.8-1.2s2.1,0.4,2.8,1.2c0.7,0.8,1.1,1.7,1.1,2.9v1.1c1.2-1.6,2.7-2.9,4.5-4.1
			s3.9-1.7,6.1-1.7c5.5,0,9.1,2.4,10.6,7.3c1-1.8,2.5-3.5,4.6-5C606.7,83.7,609,82.9,611.6,82.9z M663.3,100.4
			c0,1.1-0.5,1.9-1.3,2.6s-1.7,1-2.8,1h-21.8c0.5,2.6,1.7,4.6,3.6,6.1s4,2.2,6.4,2.2c1.8,0,3.2-0.2,4.2-0.5s1.8-0.7,2.4-1.1
			c0.6-0.4,1-0.6,1.2-0.8c0.8-0.4,1.5-0.6,2.2-0.6c0.9,0,1.7,0.3,2.4,1s1,1.4,1,2.3c0,1.2-0.6,2.3-1.8,3.2c-1.2,1-2.9,1.9-4.9,2.6
			c-2.1,0.7-4.2,1.1-6.3,1.1c-3.7,0-6.9-0.8-9.7-2.3c-2.7-1.5-4.9-3.7-6.4-6.4c-1.5-2.7-2.2-5.7-2.2-9.1c0-3.8,0.8-7.1,2.4-10
			c1.6-2.9,3.7-5,6.3-6.6c2.6-1.5,5.4-2.3,8.3-2.3c2.9,0,5.6,0.8,8.2,2.4c2.6,1.6,4.6,3.7,6.2,6.4
			C662.5,94.4,663.3,97.3,663.3,100.4z M646.6,90.2c-5.1,0-8.1,2.4-9,7.2h17.3v-0.5c-0.2-1.8-1.1-3.4-2.7-4.7
			C650.6,90.8,648.7,90.2,646.6,90.2z M722.2,101.2c0,3.5-0.8,6.7-2.4,9.5c-1.6,2.8-3.7,5-6.5,6.5s-5.8,2.3-9.1,2.3
			s-6.4-0.8-9.1-2.3s-4.9-3.7-6.5-6.5s-2.4-5.9-2.4-9.5c0-3.5,0.8-6.7,2.4-9.5s3.7-5,6.5-6.5s5.8-2.3,9.1-2.3s6.3,0.8,9.1,2.3
			s4.9,3.7,6.5,6.5C721.5,94.6,722.2,97.7,722.2,101.2z M714.3,101.2c0-2.2-0.5-4.1-1.4-5.8c-0.9-1.7-2.1-3-3.6-3.9s-3.2-1.4-5-1.4
			s-3.5,0.5-5,1.4s-2.7,2.2-3.6,3.9c-0.9,1.7-1.4,3.6-1.4,5.8s0.5,4.1,1.4,5.7c0.9,1.7,2.1,3,3.6,3.9s3.2,1.4,5,1.4s3.5-0.5,5-1.4
			s2.7-2.2,3.6-3.9C713.9,105.3,714.3,103.4,714.3,101.2z M747.7,82.9c4.5,0,7.6,1.3,9.3,4s2.6,6.3,2.6,11v16.9
			c0,1.1-0.4,2.1-1.1,2.9c-0.7,0.8-1.7,1.2-2.8,1.2s-2.1-0.4-2.8-1.2c-0.7-0.8-1.1-1.7-1.1-2.9V97.9c0-2.4-0.5-4.3-1.5-5.7
			c-1-1.4-2.7-2.1-5.2-2.1s-4.5,0.7-6,2.2s-2.2,3.3-2.2,5.6v16.9c0,1.1-0.4,2.1-1.1,2.9c-0.7,0.8-1.7,1.2-2.8,1.2s-2.1-0.4-2.8-1.2
			c-0.7-0.8-1.1-1.7-1.1-2.9V87.6c0-1.1,0.4-2.1,1.1-2.9c0.7-0.8,1.7-1.2,2.8-1.2s2.1,0.4,2.8,1.2c0.7,0.8,1.1,1.7,1.1,2.9v1.1
			c1.2-1.6,2.7-2.9,4.6-4.1S745.4,82.9,747.7,82.9z M822.6,112c0.3,0.4,0.5,0.8,0.7,1.3s0.3,1,0.3,1.4c0,1.2-0.5,2.2-1.4,3
			s-1.9,1.2-3.1,1.2c-0.6,0-1.1-0.1-1.6-0.4s-1-0.6-1.3-1.1l-14.3-18.9l-6.3,6v10.3c0,1.2-0.4,2.2-1.2,2.9c-0.8,0.7-1.8,1.1-3,1.1
			s-2.2-0.4-2.9-1.2c-0.8-0.8-1.2-1.7-1.2-2.9v-38c0-1.1,0.4-2.1,1.2-2.9s1.8-1.2,3-1.2s2.2,0.4,2.9,1.1s1.1,1.7,1.1,2.9v17.9
			l21.1-20.8c1-1,2.1-1.5,3.2-1.5c1,0,1.9,0.4,2.6,1.3c0.7,0.8,1.1,1.7,1.1,2.6s-0.4,1.8-1.2,2.6l-14.4,13.7L822.6,112z
			 M863.6,101.2c0,3.5-0.8,6.7-2.4,9.5c-1.6,2.8-3.7,5-6.5,6.5s-5.8,2.3-9.1,2.3s-6.4-0.8-9.1-2.3c-2.7-1.5-4.9-3.7-6.5-6.5
			s-2.4-5.9-2.4-9.5c0-3.5,0.8-6.7,2.4-9.5s3.7-5,6.5-6.5c2.7-1.6,5.8-2.3,9.1-2.3s6.3,0.8,9.1,2.3s4.9,3.7,6.5,6.5
			C862.9,94.6,863.6,97.7,863.6,101.2z M855.7,101.2c0-2.2-0.5-4.1-1.4-5.8c-0.9-1.7-2.1-3-3.6-3.9s-3.2-1.4-5-1.4s-3.5,0.5-5,1.4
			s-2.7,2.2-3.6,3.9c-0.9,1.7-1.4,3.6-1.4,5.8s0.5,4.1,1.4,5.7c0.9,1.7,2.1,3,3.6,3.9s3.2,1.4,5,1.4s3.5-0.5,5-1.4s2.7-2.2,3.6-3.9
			C855.3,105.3,855.7,103.4,855.7,101.2z M873.3,102.6c-1.1,0-2.1-0.4-2.9-1.1c-0.8-0.7-1.2-1.7-1.2-2.8c0-1.1,0.4-2,1.2-2.8
			c0.8-0.7,1.7-1.1,2.9-1.1h11.5c1.1,0,2.1,0.4,2.9,1.2c0.8,0.8,1.2,1.7,1.2,2.9c0,1.1-0.4,2-1.2,2.7s-1.7,1.1-2.9,1.1L873.3,102.6
			L873.3,102.6z M913.3,77c-1.5,0-2.5,0.4-3.2,1.3c-0.6,0.9-0.9,1.8-0.9,2.8v3.1h6c1.1,0,1.9,0.3,2.6,1c0.7,0.7,1.1,1.5,1.1,2.6
			s-0.4,1.9-1.1,2.6c-0.7,0.7-1.6,1-2.6,1h-6v23.3c0,1.1-0.4,2.1-1.1,2.9c-0.7,0.8-1.7,1.2-2.8,1.2s-2.1-0.4-2.8-1.2
			c-0.7-0.8-1.1-1.7-1.1-2.9V91.5h-3.6c-1.1,0-1.9-0.3-2.6-1c-0.7-0.7-1.1-1.5-1.1-2.6s0.4-1.9,1.1-2.6c0.7-0.7,1.6-1,2.6-1h3.6v-3
			c0-3.3,1.1-6,3.4-8c2.3-2.1,5.5-3.1,9.8-3.1c1.6,0,3,0.3,4.3,1c1.2,0.7,1.8,1.7,1.8,3c0,1.1-0.3,1.9-0.9,2.6c-0.6,0.7-1.4,1-2.2,1
			c-0.2,0-0.5,0-0.7-0.1s-0.5-0.1-0.8-0.1C914.9,77.2,914,77,913.3,77z M931.3,114.8c0,1.1-0.4,2.1-1.1,2.9
			c-0.7,0.8-1.7,1.2-2.8,1.2s-2.1-0.4-2.8-1.2c-0.7-0.8-1.1-1.7-1.1-2.9V87.6c0-1.1,0.4-2.1,1.1-2.9c0.7-0.8,1.7-1.2,2.8-1.2
			s2.1,0.4,2.8,1.2c0.7,0.8,1.1,1.7,1.1,2.9V114.8z M927.3,79.3c-1.5,0-2.5-0.2-3.2-0.7c-0.6-0.5-0.9-1.3-0.9-2.6v-1.3
			c0-1.2,0.3-2.1,1-2.6s1.7-0.7,3.2-0.7s2.6,0.2,3.2,0.7c0.6,0.5,0.9,1.3,0.9,2.6V76c0,1.3-0.3,2.1-1,2.6
			C929.9,79.1,928.8,79.3,927.3,79.3z"/>
	</g>
</g>
</svg>
