<?xml version="1.0" encoding="utf-8"?>
<!-- Generator: Adobe Illustrator 26.1.0, SVG Export Plug-In . SVG Version: 6.00 Build 0)  -->
<svg version="1.1" id="Layer_1" xmlns="http://www.w3.org/2000/svg" xmlns:xlink="http://www.w3.org/1999/xlink" x="0px" y="0px"
	 viewBox="0 0 1050 200" enable-background="new 0 0 1050 200" xml:space="preserve">
<g id="button">
	<path id="blue" fill="#36AEF5" d="M1018,200H32c-17.7,0-32-14.3-32-32V32C0,14.3,14.3,0,32,0h986c17.7,0,32,14.3,32,32v136
		C1050,185.7,1035.7,200,1018,200z"/>
</g>
<text transform="matrix(1 0 0 1 258.5652 118.8338)" fill="#FFFFFF" font-family="'ArialMT'" font-size="72px">Donate to our Collective</text>
<text transform="matrix(1 0 0 1 258.5652 118.8338)" fill="none" stroke="#FFFFFF" stroke-miterlimit="10" font-family="'ArialMT'" font-size="72px">Donate to our Collective</text>
<circle fill="#FFFFFF" cx="139.6" cy="101.5" r="93"/>
<path fill-rule="evenodd" clip-rule="evenodd" fill="#B8D3F4" d="M186.7,101.3c0,9.3-2.7,18.1-7.3,25.5l18.8,18.9
	c9.2-12.3,15-27.8,15-44.4s-5.8-32-15-44.4l-18.8,18.9C184.2,83.4,186.7,92.2,186.7,101.3z"/>
<path fill-rule="evenodd" clip-rule="evenodd" fill="#3385FF" d="M139.8,148.4c-26-1.7-45.7-24.2-44-50.2c1.5-23.6,20.4-42.5,44-44
	c9.1-0.1,17.9,2.6,25.4,7.7L184,43.1c-12.7-9.7-28.2-15-44.2-15.1C99.1,27.8,66.1,60.7,66,101.4s32.8,73.7,73.4,73.8
	c16.3,0,32.1-5.3,45-15.2l-18.8-18.9C157.9,145.9,148.9,148.4,139.8,148.4L139.8,148.4z"/>
</svg>
