<?xml version="1.0" encoding="utf-8"?>
<!-- Generator: Adobe Illustrator 26.1.0, SVG Export Plug-In . SVG Version: 6.00 Build 0)  -->
<svg version="1.1" id="Layer_2_00000158006888468632320850000005353615060266163348_"
	 xmlns="http://www.w3.org/2000/svg" xmlns:xlink="http://www.w3.org/1999/xlink" x="0px" y="0px" viewBox="0 0 1050 200"
	 style="enable-background:new 0 0 1050 200;" xml:space="preserve">
<style type="text/css">
	.st0{fill:#FF424D;}
	.st1{fill:#FFFFFF;}
	.st2{font-family:'ArialMT';}
	.st3{font-size:72px;}
	.st4{fill:none;stroke:#FFFFFF;stroke-miterlimit:10;}
</style>
<g id="Artboard">
	<g id="button">
		<path id="blue" class="st0" d="M1017,200.4H31c-17.7,0-32-14.3-32-32v-136c0-17.7,14.3-32,32-32h986c17.7,0,32,14.3,32,32v136
			C1049,186.1,1034.7,200.4,1017,200.4z"/>
	</g>
</g>
<path class="st1" d="M206.6,87.2c0,25.4-20.6,46-46,46c-25.5,0-46.2-20.6-46.2-46s20.7-46.1,46.2-46.1
	C186,41.1,206.6,61.8,206.6,87.2z M78.5,164H101V41.1H78.5V164z"/>
<text transform="matrix(1 0 0 1 294.5652 118.8338)" class="st1 st2 st3">Support me on Patreon</text>
<text transform="matrix(1 0 0 1 294.5652 118.8338)" class="st4 st2 st3">Support me on Patreon</text>
</svg>
