<?xml version="1.0" encoding="UTF-8"?><svg xmlns="http://www.w3.org/2000/svg" viewBox="0 0 213 62.38"><g id="BackgroundColor"><path d="M10.5.5h192c5.52,0,10,4.29,10,9.59v42.2c0,5.3-4.48,9.59-10,9.59H10.5c-5.52,0-10-4.29-10-9.59V10.09C.5,4.79,4.98.5,10.5.5Z" style="fill:#f6f8fa; stroke:#d0d7de;"/></g><g id="Patreon"><g id="Join_Patreon"><path d="M71.06,51.16c0,.33-.03.69-.1,1.08-.07.39-.21.76-.45,1.1s-.57.63-1.01.85c-.44.23-1.03.34-1.78.34-.42,0-.83-.06-1.22-.18-.39-.12-.74-.3-1.05-.55-.31-.25-.56-.57-.74-.95-.19-.39-.28-.86-.28-1.41v-.87h1.99v.45c0,.24.02.47.06.67s.1.38.2.53c.09.14.22.26.39.34.16.08.38.13.64.13.29,0,.51-.05.67-.15s.27-.24.34-.4c.07-.16.11-.34.13-.53s.02-.38.02-.55v-6.75h2.2v6.85Z" style="fill:#1f6feb; stroke-width:0px;"/><path d="M72.55,50.7c0-.58.09-1.1.27-1.58.18-.47.43-.87.76-1.21.33-.33.72-.59,1.18-.77.46-.18.97-.27,1.54-.27s1.09.09,1.55.27c.46.18.86.44,1.18.77.33.33.58.73.76,1.21.18.47.27,1,.27,1.58s-.09,1.1-.27,1.57c-.18.47-.43.87-.76,1.2-.33.33-.72.59-1.18.76-.46.18-.98.27-1.55.27s-1.08-.09-1.54-.27-.85-.43-1.18-.76c-.33-.33-.58-.73-.76-1.2-.18-.47-.27-.99-.27-1.57ZM74.54,50.7c0,.29.03.57.08.85s.15.52.29.74c.14.22.31.39.54.53s.5.2.84.2.62-.07.85-.2c.23-.13.41-.31.55-.53.14-.22.23-.47.29-.74s.08-.56.08-.85-.03-.57-.08-.85-.15-.53-.29-.74-.32-.39-.55-.53c-.23-.13-.51-.2-.85-.2s-.62.07-.84.2c-.22.14-.4.31-.54.53s-.23.46-.29.74-.08.57-.08.85Z" style="fill:#1f6feb; stroke-width:0px;"/><path d="M83.37,45.95h-1.99v-1.64h1.99v1.64ZM81.39,47.07h1.99v7.24h-1.99v-7.24Z" style="fill:#1f6feb; stroke-width:0px;"/><path d="M84.94,47.07h1.89v1.01h.04c.25-.42.58-.73.98-.92.4-.19.81-.29,1.23-.29.53,0,.97.07,1.31.22s.61.35.81.6c.2.26.33.57.41.94.08.37.12.78.12,1.23v4.45h-1.99v-4.09c0-.6-.09-1.04-.28-1.34-.19-.29-.52-.44-.99-.44-.54,0-.93.16-1.18.48-.24.32-.36.85-.36,1.59v3.8h-1.99v-7.24Z" style="fill:#1f6feb; stroke-width:0px;"/><path d="M97.34,44.31h4.51c.63,0,1.16.09,1.6.27.44.18.8.42,1.07.72s.48.64.6,1.02c.13.38.19.78.19,1.19s-.06.8-.19,1.18c-.13.39-.33.73-.6,1.03s-.63.54-1.07.72c-.44.18-.97.27-1.6.27h-2.31v3.59h-2.2v-10ZM99.54,49.02h1.71c.25,0,.5-.02.73-.06.23-.04.44-.11.62-.22.18-.11.32-.26.43-.46s.16-.45.16-.77-.05-.57-.16-.77c-.11-.2-.25-.35-.43-.46-.18-.11-.38-.18-.62-.22s-.48-.06-.73-.06h-1.71v3Z" style="fill:#1f6feb; stroke-width:0px;"/><path d="M106.39,49.3c.03-.47.14-.85.35-1.16.21-.31.47-.56.78-.74.32-.19.67-.32,1.07-.4.4-.08.8-.12,1.2-.12.36,0,.73.03,1.11.08.37.05.71.15,1.02.3.31.15.56.36.76.62.2.27.29.62.29,1.06v3.77c0,.33.02.64.06.94.04.3.1.52.2.67h-2.02c-.04-.11-.07-.23-.09-.34-.02-.12-.04-.24-.05-.36-.32.33-.69.56-1.12.69s-.87.2-1.32.2c-.35,0-.67-.04-.97-.13-.3-.08-.56-.21-.78-.39-.22-.18-.4-.4-.53-.67-.13-.27-.19-.59-.19-.97,0-.41.07-.75.22-1.02.14-.27.33-.48.56-.64.23-.16.49-.28.78-.36.29-.08.59-.14.89-.19.3-.05.59-.08.88-.11.29-.03.55-.07.77-.13.22-.06.4-.14.53-.25s.19-.26.18-.47c0-.21-.04-.38-.11-.51s-.16-.22-.28-.29c-.12-.07-.25-.12-.41-.14s-.32-.04-.5-.04c-.39,0-.7.08-.92.25-.22.17-.35.45-.39.84h-1.99ZM110.98,50.77c-.08.08-.19.13-.32.17s-.26.08-.41.11-.3.05-.46.07c-.16.02-.32.04-.48.07-.15.03-.3.07-.44.11s-.27.11-.38.19c-.11.08-.19.18-.26.3-.06.12-.1.28-.1.46s.03.33.1.45c.07.12.15.22.27.29.11.07.24.12.39.15s.3.04.46.04c.39,0,.7-.07.91-.2s.37-.29.48-.47c.1-.18.17-.37.19-.55.02-.19.03-.34.04-.45v-.74Z" style="fill:#1f6feb; stroke-width:0px;"/><path d="M117.03,47.07h1.46v1.33h-1.46v3.59c0,.34.06.56.17.67.11.11.34.17.67.17.11,0,.22,0,.32-.01.1,0,.2-.02.29-.04v1.54c-.17.03-.35.05-.56.06-.21,0-.41.01-.6.01-.31,0-.6-.02-.88-.06-.28-.04-.52-.12-.73-.25-.21-.12-.38-.29-.5-.52-.12-.22-.18-.52-.18-.88v-4.27h-1.21v-1.33h1.21v-2.17h1.99v2.17Z" style="fill:#1f6feb; stroke-width:0px;"/><path d="M119.44,47.07h1.89v1.34h.03c.09-.22.22-.43.38-.62.16-.19.34-.35.55-.49.21-.14.42-.24.66-.32.23-.07.48-.11.73-.11.13,0,.28.02.43.07v1.85c-.09-.02-.21-.04-.34-.05-.13-.01-.26-.02-.38-.02-.36,0-.67.06-.92.18-.25.12-.46.29-.61.5-.15.21-.26.46-.33.74-.07.28-.1.58-.1.91v3.26h-1.99v-7.24Z" style="fill:#1f6feb; stroke-width:0px;"/><path d="M126.27,51.18c.03.64.19,1.11.49,1.4.3.29.73.43,1.29.43.4,0,.75-.1,1.04-.3.29-.2.47-.41.53-.64h1.75c-.28.87-.71,1.49-1.29,1.86-.58.37-1.28.56-2.1.56-.57,0-1.08-.09-1.54-.27-.46-.18-.85-.44-1.16-.78-.32-.34-.56-.74-.74-1.21s-.26-.98-.26-1.54.09-1.05.27-1.51c.18-.47.43-.87.76-1.21s.72-.61,1.17-.8c.45-.2.95-.29,1.5-.29.62,0,1.15.12,1.61.36s.83.56,1.13.96c.29.4.51.86.64,1.37.13.51.18,1.05.14,1.61h-5.22ZM129.5,49.92c-.09-.5-.26-.89-.5-1.15s-.6-.39-1.09-.39c-.32,0-.58.05-.79.16s-.38.24-.5.4-.21.33-.27.5c-.05.18-.08.34-.09.48h3.24Z" style="fill:#1f6feb; stroke-width:0px;"/><path d="M132.44,50.7c0-.58.09-1.1.27-1.58.18-.47.43-.87.76-1.21.33-.33.72-.59,1.18-.77.46-.18.97-.27,1.54-.27s1.08.09,1.55.27c.46.18.86.44,1.18.77.33.33.58.73.76,1.21.18.47.27,1,.27,1.58s-.09,1.1-.27,1.57c-.18.47-.43.87-.76,1.2-.33.33-.72.59-1.18.76-.46.18-.98.27-1.55.27s-1.08-.09-1.54-.27c-.46-.18-.85-.43-1.18-.76-.33-.33-.58-.73-.76-1.2-.18-.47-.27-.99-.27-1.57ZM134.43,50.7c0,.29.03.57.08.85.06.28.15.52.29.74.13.22.31.39.54.53.22.13.5.2.84.2s.62-.07.85-.2c.23-.13.41-.31.55-.53.13-.22.23-.47.29-.74.06-.28.08-.56.08-.85s-.03-.57-.08-.85c-.06-.28-.15-.53-.29-.74-.14-.21-.32-.39-.55-.53-.23-.13-.51-.2-.85-.2s-.62.07-.84.2c-.22.14-.4.31-.54.53-.14.21-.23.46-.29.74-.06.28-.08.57-.08.85Z" style="fill:#1f6feb; stroke-width:0px;"/><path d="M141.22,47.07h1.89v1.01h.04c.25-.42.58-.73.98-.92.4-.19.81-.29,1.23-.29.53,0,.97.07,1.31.22s.61.35.81.6.33.57.41.94c.08.37.12.78.12,1.23v4.45h-1.99v-4.09c0-.6-.09-1.04-.28-1.34-.19-.29-.52-.44-.99-.44-.54,0-.93.16-1.18.48s-.36.85-.36,1.59v3.8h-1.99v-7.24Z" style="fill:#1f6feb; stroke-width:0px;"/></g></g><g id="PatreonLogo"><path d="M122.48,14.73c0-4.47-3.49-8.13-7.57-9.45-5.07-1.64-11.76-1.4-16.6.88-5.87,2.77-7.71,8.84-7.78,14.89-.06,4.98.44,18.08,7.83,18.17,5.49.07,6.31-7.01,8.85-10.41,1.81-2.42,4.13-3.11,7-3.82,4.93-1.22,8.28-5.1,8.28-10.25Z" style="fill:#f15f2c; stroke-width:0px;"/></g></svg>