<?xml version="1.0" encoding="UTF-8"?><svg xmlns="http://www.w3.org/2000/svg" viewBox="0 0 213 62.38"><g id="BackgroundColor"><path d="M10.5.5h192c5.52,0,10,4.29,10,9.59v42.2c0,5.3-4.48,9.59-10,9.59H10.5c-5.52,0-10-4.29-10-9.59V10.09C.5,4.79,4.98.5,10.5.5Z" style="fill:#f6f8fa; stroke:#d0d7de;"/></g><g id="Paypal"><g id="Donate_with_PayPal"><path d="M42.53,44.31h4.31c.64,0,1.24.1,1.8.31.56.21,1.04.51,1.44.92s.72.92.95,1.54.34,1.34.34,2.17c0,.73-.09,1.4-.28,2.02-.19.62-.47,1.15-.85,1.6-.38.45-.85.8-1.42,1.06s-1.23.38-2,.38h-4.31v-10ZM44.73,52.47h1.96c.32,0,.63-.05.92-.15s.56-.27.8-.51.42-.55.56-.93c.14-.38.21-.85.21-1.4,0-.5-.05-.96-.15-1.37s-.26-.75-.48-1.04-.52-.51-.89-.67c-.37-.15-.82-.23-1.37-.23h-1.57v6.3Z" style="fill:#1f6feb; stroke-width:0px;"/><path d="M52.47,50.7c0-.58.09-1.1.27-1.58.18-.47.43-.87.76-1.21.33-.33.72-.59,1.18-.77.46-.18.97-.27,1.54-.27s1.09.09,1.55.27c.46.18.86.44,1.18.77.33.33.58.73.76,1.21s.27,1,.27,1.58-.09,1.1-.27,1.57-.43.87-.76,1.2c-.33.33-.72.59-1.18.76-.46.18-.98.27-1.55.27s-1.08-.09-1.54-.27-.85-.43-1.18-.76c-.33-.33-.58-.73-.76-1.2-.18-.47-.27-.99-.27-1.57ZM54.46,50.7c0,.29.03.57.08.85s.15.52.29.74c.14.22.31.39.54.53s.5.2.84.2.62-.07.85-.2c.23-.13.41-.31.55-.53.14-.22.23-.47.29-.74s.08-.56.08-.85-.03-.57-.08-.85-.15-.53-.29-.74-.32-.39-.55-.53c-.23-.13-.51-.2-.85-.2s-.62.07-.84.2c-.22.14-.4.31-.54.53s-.23.46-.29.74-.08.57-.08.85Z" style="fill:#1f6feb; stroke-width:0px;"/><path d="M61.25,47.07h1.89v1.01h.04c.25-.42.58-.73.98-.92.4-.19.81-.29,1.23-.29.53,0,.97.07,1.31.22s.61.35.81.6c.2.26.33.57.41.94.08.37.12.78.12,1.23v4.45h-1.99v-4.09c0-.6-.09-1.04-.28-1.34-.19-.29-.52-.44-.99-.44-.54,0-.93.16-1.18.48-.24.32-.36.85-.36,1.59v3.8h-1.99v-7.24Z" style="fill:#1f6feb; stroke-width:0px;"/><path d="M69.46,49.3c.03-.47.14-.85.35-1.16.21-.31.47-.56.78-.74.32-.19.67-.32,1.07-.4.4-.08.8-.12,1.2-.12.36,0,.73.03,1.11.08.37.05.71.15,1.02.3.31.15.56.36.76.62.2.27.29.62.29,1.06v3.77c0,.33.02.64.06.94.04.3.1.52.2.67h-2.02c-.04-.11-.07-.23-.09-.34-.02-.12-.04-.24-.05-.36-.32.33-.69.56-1.12.69-.43.13-.87.2-1.32.2-.35,0-.67-.04-.97-.13s-.56-.21-.78-.39c-.22-.18-.4-.4-.53-.67-.13-.27-.19-.59-.19-.97,0-.41.07-.75.22-1.02.14-.27.33-.48.56-.64.23-.16.49-.28.78-.36.29-.08.59-.14.89-.19.3-.05.59-.08.88-.11.29-.03.55-.07.77-.13.22-.06.4-.14.53-.25.13-.11.19-.26.18-.47,0-.21-.03-.38-.1-.51-.07-.13-.16-.22-.28-.29-.12-.07-.25-.12-.41-.14-.15-.02-.32-.04-.5-.04-.39,0-.7.08-.92.25s-.35.45-.39.84h-1.99ZM74.06,50.77c-.08.08-.19.13-.31.17s-.26.08-.41.11c-.14.03-.3.05-.46.07-.16.02-.32.04-.48.07-.15.03-.3.07-.44.11-.15.05-.27.11-.38.19-.11.08-.19.18-.26.3-.06.12-.1.28-.1.46s.03.33.1.45c.07.12.15.22.27.29.11.07.24.12.39.15s.3.04.46.04c.39,0,.7-.07.91-.2s.37-.29.48-.47c.1-.18.17-.37.19-.55.02-.19.03-.34.03-.45v-.74Z" style="fill:#1f6feb; stroke-width:0px;"/><path d="M80.11,47.07h1.46v1.33h-1.46v3.59c0,.34.06.56.17.67.11.11.34.17.67.17.11,0,.22,0,.32-.01.1,0,.2-.02.29-.04v1.54c-.17.03-.35.05-.56.06-.21,0-.41.01-.6.01-.31,0-.6-.02-.88-.06-.28-.04-.52-.12-.73-.25-.21-.12-.38-.29-.5-.52-.12-.22-.18-.52-.18-.88v-4.27h-1.2v-1.33h1.2v-2.17h1.99v2.17Z" style="fill:#1f6feb; stroke-width:0px;"/><path d="M84.15,51.18c.03.64.19,1.11.49,1.4.3.29.73.43,1.29.43.4,0,.75-.1,1.04-.3.29-.2.47-.41.53-.64h1.75c-.28.87-.71,1.49-1.29,1.86-.58.37-1.28.56-2.1.56-.57,0-1.08-.09-1.54-.27-.46-.18-.85-.44-1.16-.78-.32-.34-.56-.74-.74-1.21-.17-.47-.26-.98-.26-1.54s.09-1.05.27-1.51.43-.87.76-1.21c.33-.34.72-.61,1.17-.8.45-.2.95-.29,1.51-.29.62,0,1.15.12,1.61.36.46.24.83.56,1.13.96.29.4.51.86.64,1.37.13.51.18,1.05.14,1.61h-5.22ZM87.39,49.92c-.09-.5-.26-.89-.5-1.15s-.6-.39-1.09-.39c-.32,0-.58.05-.79.16s-.38.24-.5.4-.21.33-.27.5c-.05.18-.08.34-.09.48h3.24Z" style="fill:#1f6feb; stroke-width:0px;"/><path d="M102.72,54.31h-2.04l-1.29-4.86h-.03l-1.23,4.86h-2.06l-2.3-7.24h2.1l1.33,4.92h.03l1.2-4.92h1.93l1.23,4.9h.03l1.33-4.9h2.05l-2.28,7.24Z" style="fill:#1f6feb; stroke-width:0px;"/><path d="M107.88,45.95h-1.99v-1.64h1.99v1.64ZM105.89,47.07h1.99v7.24h-1.99v-7.24Z" style="fill:#1f6feb; stroke-width:0px;"/><path d="M111.97,47.07h1.46v1.33h-1.46v3.59c0,.34.06.56.17.67s.34.17.67.17c.11,0,.22,0,.32-.01.1,0,.2-.02.29-.04v1.54c-.17.03-.35.05-.56.06-.21,0-.41.01-.6.01-.31,0-.6-.02-.88-.06s-.52-.12-.73-.25-.38-.29-.5-.52c-.12-.22-.18-.52-.18-.88v-4.27h-1.2v-1.33h1.2v-2.17h1.99v2.17Z" style="fill:#1f6feb; stroke-width:0px;"/><path d="M114.38,44.31h1.99v3.77h.04c.25-.42.57-.73.97-.92.39-.19.78-.29,1.15-.29.53,0,.97.07,1.31.22s.61.35.8.6c.2.26.33.57.41.94.08.37.12.78.12,1.23v4.45h-1.99v-4.09c0-.6-.09-1.04-.28-1.34s-.52-.44-1-.44c-.54,0-.93.16-1.18.48-.24.32-.36.85-.36,1.59v3.8h-1.99v-10Z" style="fill:#1f6feb; stroke-width:0px;"/><path d="M126.78,44.31h4.51c.63,0,1.16.09,1.6.27.44.18.8.42,1.07.72s.48.64.6,1.02c.13.38.19.78.19,1.19s-.06.8-.19,1.18c-.13.39-.33.73-.6,1.03s-.63.54-1.07.72c-.44.18-.97.27-1.6.27h-2.31v3.59h-2.2v-10ZM128.98,49.02h1.71c.25,0,.5-.02.73-.06.23-.04.44-.11.62-.22.18-.11.32-.26.43-.46s.16-.45.16-.77-.05-.57-.16-.77c-.11-.2-.25-.35-.43-.46-.18-.11-.38-.18-.62-.22s-.48-.06-.73-.06h-1.71v3Z" style="fill:#1f6feb; stroke-width:0px;"/><path d="M135.82,49.3c.03-.47.14-.85.35-1.16.21-.31.47-.56.78-.74s.67-.32,1.07-.4c.4-.08.8-.12,1.2-.12.36,0,.73.03,1.11.08.37.05.71.15,1.02.3s.56.36.76.62c.2.27.29.62.29,1.06v3.77c0,.33.02.64.06.94s.1.52.2.67h-2.02c-.04-.11-.07-.23-.09-.34-.02-.12-.04-.24-.05-.36-.32.33-.69.56-1.12.69-.43.13-.87.2-1.32.2-.35,0-.67-.04-.97-.13s-.56-.21-.79-.39c-.22-.18-.4-.4-.53-.67-.13-.27-.19-.59-.19-.97,0-.41.07-.75.22-1.02.14-.27.33-.48.56-.64s.49-.28.78-.36.59-.14.89-.19c.3-.05.59-.08.88-.11.29-.03.55-.07.77-.13.22-.06.4-.14.53-.25.13-.11.19-.26.18-.47,0-.21-.04-.38-.11-.51-.07-.13-.16-.22-.28-.29-.12-.07-.25-.12-.41-.14-.15-.02-.32-.04-.5-.04-.39,0-.7.08-.92.25-.22.17-.36.45-.39.84h-1.99ZM140.42,50.77c-.08.08-.19.13-.32.17s-.26.08-.41.11c-.14.03-.3.05-.46.07-.16.02-.32.04-.48.07-.15.03-.3.07-.44.11-.15.05-.27.11-.38.19-.11.08-.19.18-.26.3s-.1.28-.1.46.03.33.1.45c.07.12.15.22.27.29.11.07.24.12.39.15s.3.04.46.04c.39,0,.7-.07.91-.2s.37-.29.48-.47c.1-.18.17-.37.19-.55.02-.19.04-.34.04-.45v-.74Z" style="fill:#1f6feb; stroke-width:0px;"/><path d="M147.51,55.21c-.21.59-.51,1.01-.9,1.26-.38.25-.92.38-1.6.38-.21,0-.41,0-.61-.02-.2-.01-.4-.03-.61-.05v-1.64c.19.02.38.04.57.06.2.02.39.02.59.01.26-.03.46-.13.58-.31.13-.18.19-.37.19-.59,0-.16-.03-.31-.08-.45l-2.54-6.79h2.11l1.64,4.96h.03l1.58-4.96h2.06l-3.03,8.14Z" style="fill:#1f6feb; stroke-width:0px;"/><path d="M151.42,44.31h4.51c.63,0,1.16.09,1.6.27.44.18.8.42,1.07.72s.48.64.6,1.02c.13.38.19.78.19,1.19s-.06.8-.19,1.18c-.13.39-.33.73-.6,1.03s-.63.54-1.07.72c-.44.18-.97.27-1.6.27h-2.31v3.59h-2.2v-10ZM153.62,49.02h1.71c.25,0,.5-.02.73-.06.23-.04.44-.11.62-.22.18-.11.32-.26.43-.46s.16-.45.16-.77-.05-.57-.16-.77c-.11-.2-.25-.35-.43-.46-.18-.11-.38-.18-.62-.22s-.48-.06-.73-.06h-1.71v3Z" style="fill:#1f6feb; stroke-width:0px;"/><path d="M160.46,49.3c.03-.47.14-.85.35-1.16.21-.31.47-.56.78-.74s.67-.32,1.07-.4c.4-.08.8-.12,1.2-.12.36,0,.73.03,1.11.08.37.05.71.15,1.02.3s.56.36.76.62c.2.27.29.62.29,1.06v3.77c0,.33.02.64.06.94s.1.52.2.67h-2.02c-.04-.11-.07-.23-.09-.34-.02-.12-.04-.24-.05-.36-.32.33-.69.56-1.12.69-.43.13-.87.2-1.32.2-.35,0-.67-.04-.97-.13s-.56-.21-.79-.39c-.22-.18-.4-.4-.53-.67-.13-.27-.19-.59-.19-.97,0-.41.07-.75.22-1.02.14-.27.33-.48.56-.64s.49-.28.78-.36.59-.14.89-.19c.3-.05.59-.08.88-.11.29-.03.55-.07.77-.13.22-.06.4-.14.53-.25.13-.11.19-.26.18-.47,0-.21-.04-.38-.11-.51-.07-.13-.16-.22-.28-.29-.12-.07-.25-.12-.41-.14-.15-.02-.32-.04-.5-.04-.39,0-.7.08-.92.25-.22.17-.36.45-.39.84h-1.99ZM165.06,50.77c-.08.08-.19.13-.32.17s-.26.08-.41.11c-.14.03-.3.05-.46.07-.16.02-.32.04-.48.07-.15.03-.3.07-.44.11-.15.05-.27.11-.38.19-.11.08-.19.18-.26.3s-.1.28-.1.46.03.33.1.45c.07.12.15.22.27.29.11.07.24.12.39.15s.3.04.46.04c.39,0,.7-.07.91-.2s.37-.29.48-.47c.1-.18.17-.37.19-.55.02-.19.04-.34.04-.45v-.74Z" style="fill:#1f6feb; stroke-width:0px;"/><path d="M168.64,44.31h1.99v10h-1.99v-10Z" style="fill:#1f6feb; stroke-width:0px;"/></g></g><g id="PayPalLogo"><path d="M100.11,39.19l.6-3.85h-7.8l4.49-28.46c0-.08.03-.16.08-.22.07-.08.17-.12.28-.12h10.88c3.62,0,6.1.78,7.4,2.32.56.64.96,1.4,1.16,2.23.19,1.01.19,2.05,0,3.06v.88l.61.34c.47.24.89.56,1.24.95.54.63.89,1.41,1,2.24.14,1.09.09,2.2-.14,3.27-.23,1.3-.69,2.55-1.35,3.69-.53.91-1.25,1.7-2.11,2.32-.87.6-1.83,1.03-2.85,1.29-1.17.28-2.36.42-3.56.41h-.85c-.61,0-1.2.22-1.66.61-.42.39-.69.91-.78,1.47l-.07.35-1.09,6.8v.24c0,.06-.03.11-.07.15-.04.01-.08.01-.12,0l-5.3.03Z" style="fill:#253b80; stroke-width:0px;"/><path d="M118.41,14.28h0c0,.21-.07.42-.12.64-1.43,7.36-6.34,9.9-12.61,9.9h-3.19c-.77,0-1.43.55-1.54,1.31h0l-1.62,10.37-.46,2.93c-.08.44.22.86.66.94.05,0,.09.01.14.01h5.66c.67,0,1.25-.49,1.35-1.16l.06-.29,1.07-6.76.07-.37c.1-.67.67-1.16,1.35-1.16h.85c5.49,0,9.78-2.23,11.03-8.66.52-2.69.26-4.94-1.16-6.52-.43-.48-.95-.88-1.52-1.18Z" style="fill:#179bd7; stroke-width:0px;"/><path d="M116.9,13.68l-.67-.17-.72-.14c-.93-.14-1.87-.21-2.81-.2h-8.54c-.2,0-.4.04-.58.13-.4.2-.69.58-.77,1.02l-1.81,11.48v.34c.11-.76.77-1.31,1.53-1.31h3.19c6.26,0,11.18-2.54,12.61-9.9,0-.22.08-.43.12-.64-.37-.2-.76-.37-1.16-.5l-.39-.1Z" style="fill:#222d65; stroke-width:0px;"/><path d="M102.82,14.31c.08-.44.36-.82.77-1.02.18-.08.38-.13.58-.13h8.54c.94,0,1.88.06,2.81.21l.72.13.67.17.32.1c.4.13.79.3,1.16.5.43-2.73,0-4.58-1.47-6.25-1.6-1.86-4.53-2.64-8.28-2.64h-10.88c-.76,0-1.42.55-1.53,1.31l-4.55,28.73c-.08.51.26.98.76,1.07.05,0,.11.01.16.01h6.73l1.68-10.7,1.81-11.48Z" style="fill:#253b80; stroke-width:0px;"/></g></svg>