<svg xmlns="http://www.w3.org/2000/svg" width="568pt" height="284pt" viewBox="0 0 568 284"><path fill="#12262a" d="M139 100.5c.8-3 4-2 6.3-1.9 1.8.3 3.9.6 4.8 2.4-3.6-.8-7.4-.9-11-.5Z" opacity=".2"/><path fill="#234952" d="M288.2 101.3c3.9-2.5 8.9-2.2 13-.5.8 1.6-1 3.6-1 5.4-2 10.8-.7 21.8-1.7 32.7l-.8 1.5c0-3.4 0-6.7.3-10 .2-3 .4-5.9.2-8.8a194.1 194.1 0 0 1 .5-17.3l2.1-3.3a75 75 0 0 0-11 0l3.8 3.4c.2 4.4.2 8.8 0 13.1v4.7h-3.2l-.8-.7 2.3-.2c.2-4.8.6-9.5.6-14.4-1.3-2-3-3.7-4.3-5.6Z" opacity=".4"/><path fill="#3c90a9" d="M138.7 100.6h.3c3.7-.5 7.5-.4 11.1.4h.5v7.3c-1-2.3-1.4-5.4-4-6.6-2-.4-4-.3-6-.3l-1.7 3.3c-.6 2-.6 4.3-.9 6.4-1.4-.2-2.7-.5-4.1-.6.4-2.4 1-4.8 1.8-7l.1-.5 3-2.4Z"/><g fill="#4b9eb4"><path d="M231.2 100.7c6.8-.4 13.6.1 20.4 0-.2 2.7 0 5.5-1.3 8l-1.5-1.1-.3-1.9-.1-.9 2 1.4.5-4.8-14.3-.1 4.2 3-.6 3-3-.4.3-3.2-2.6-2.9-2.8.9 1.2 1c-1.5.3-2-.7-2.2-2ZM186 101l.9.2c5.2 1.4 5.1 7.6 4 11.9-1 2.3 1.3 3.6 2.6 5.2-.5 2.1-1.4 4.1-2.3 6.2l-.8-4c-.4-5.6.7-11.3-.9-16.8-1.4-.5-3-1.2-3.5-2.7Z"/><path d="M234.7 104.5c1.5 3.1.2 7.5 3 9.8l-.2-4.6 2.6-1.8c.2 2.9-.8 7 2.3 8.6 3 .4 6 0 9 0 .2 3 .2 5.9 0 8.9l-3 1.2-3-4.2h1.7a8.5 8.5 0 0 0 2.9 3.1v-8c-3.5.9-7.4 1.2-10.5-1-3.6-2.2-4 3.6-4.7 5.9v-17.9ZM270.5 112.8l1.6.9c2.7 2.8 5.7 5.5 7.3 9.1-1.3-.2-2.6-.7-3.7-1.3a3.9 3.9 0 0 0-3.1-2.6c.1 2.8-1 5.3-1.8 8-.3 3.4-.1 6.8 0 10.3h-.3v-12.9c.1-3.8.2-7.6 0-11.5Z"/></g><path fill="#63adc3" d="m266.6 100.5 2.5-.1c1.8 2 3.8 3.9 5.8 5.7l1.4 2.8a13 13 0 0 1-4.7 2.2l-.3-3-2 .1c0 1.3-.2 2.5-.3 3.8a116 116 0 0 1-2.4-2v-9.5Z"/><path fill="#55adbc" d="m309.5 99.5 5.6.3c8 1.3 16.2.9 24.3.8.2 2.5.2 5 0 7.5-1.5-1.1-2.8-2.5-4.3-3.6-2 1.2-4.3 1-6.5 1-1.2 3.5-.7 7.4-1.2 11.1-.5-4.2-.8-8.5-.5-12.7l6.5-.3c-1.6-2.2-4.5-1.8-7-2.2l-1.5 2.1-2.7-.6 1.3 8.6 2.8 2.3-3.7-.5c.6 1.8 1.3 3.5 2.3 5h2l.6.7c-.2 6.1-.2 12.3 0 18.4-.5-.4-1.4-1.4-2-1.8-.3-4-.5-8.1-.6-12.2-2.5 1.6-1.8 4.5-2 7l-.3 1.5c-1.8-1.6-.7-3.9-.8-5.9-.1-5.8-.4-11.7-.3-17.5h-1l.1-2.2c-3-.1-6 0-8.9.1.2 2.1-2 .9-3.1 1.1-.2-2.2-.3-4.4 0-6.6l.2 5.8.6-.2.5-.2c3-2.8 7-2.3 10.8-2.7-2.4-2.9-6.2-2.6-9.6-2.7l-1.7 2.6v-4m24.8 3.5c.2 3.3 3-1.6 0 0Z" opacity=".9"/><path fill="#489cb2" d="M368.8 100.8h.8c4.6 0 9.2 0 13.8.3.5 1.1 1 2.2 1.7 3.3-2.1 0-4.2 0-6.3.2a43 43 0 0 0-1.2 10.2c-2-3.5-1.8-7.7-2-11.7l-4.5-.6h-2.3v-1.8Z"/><path fill="#1c373d" d="M369.6 100.8c6.3-.5 12.8-1 19.2-.5 1.3 1.9.8 4.5-.4 6.3v-5.5h-5l-13.8-.3Z" opacity=".3"/><g fill="#468fa3"><path d="M397 101.3c3.9-.6 8.2-1.3 12-.3-2-1-2.6 2.3-.3.8-.6.8-1.1 1.7-1.8 2.5l-1.6-3c-1.3.8-2.6 1.7-3.7 2.7l-.5.4c-1.2-1.2-3.6-1.4-4-3.2ZM205.8 101c5.5 0 10.9 2.7 14.5 6.7 2.9 5.9 3.8 12.7 3.2 19.2-2.9 5-5.5 10.8-10.9 13.6-8.4 1-17.2 1.8-25.5-.1.6-1.5 1.4-3 2.3-4.3.8-5.2-.2-10.5 1-15.6l.8 4c.5 5.2-.5 10.4-1.8 15.4 4.2.5 8.5 1.2 12.7.2 3.3-.8 7 0 10.3-.7 4.8-3 7.8-8.2 9.6-13.5 1.7-5.4-.5-10.8-2-16 0-.4-.4-1.3-.5-1.7a26.6 26.6 0 0 0-6-4.3l-7.7-2.8Z" opacity=".8"/></g><g fill="#295b61"><path d="M423.5 100.7c3.4.1 7-.7 10.4.5l.3.7c-1.7 1.4-3.2 3-4.3 5l-.4-1 1.2-4.3-5.9-.4 2 2.5c-.3.6-.6 2-.8 2.7l-1.2 3c0-3-.4-5.9-1.3-8.7ZM68 105l2.2-2.2c2.2.7 4.8.7 6.3 2.7 2.5 2.9 2.5 7 2.8 10.7-.7 2-1.4 4.5-3.6 5.5-2.2 1.1-4.8.3-7.1 0l-2 1.4c1.7-2.9 1.4-6.4 1.5-9.6 0-2.8-.2-5.7 0-8.5m.6 15.4c2.5 1.2 5.1.6 7.6-.3 1.8-3.7 1.8-8.4-.3-12-1.5-1.6-3.8-3-6.1-2.4-2 4.7-1.1 9.8-1.2 14.7ZM240.8 104.3c2.4.1 5.3-.8 7.6.5l.1.9-6-.3c-1.7 3.6-.6 7.4 0 11-3.2-1.6-2.2-5.6-2.4-8.5l.1-.5.6-3Z" opacity=".5"/></g><g fill="#214c5f"><path d="M492.5 101c2.2-.6 5.2-1.2 6.8 1l1.5-1.5 2 4.6c1.6-1.2 2-3.4 3.3-5l1.5 7.8-2.2-.3-.3-3-2.5 3.2-2.2-3.3.2 3.2h-6.1l.5-5.2-1-.7-1.5-.7m4.2.5.1 6.1c2.7-.2 2.4-3.3 3.1-5.1l-3.2-1ZM102.5 138.1c1-5-1-10.4 1-15.1.3 5 0 10 0 15l.2-1.2 1.8 2 1.5 1.7-7.2-.1 2.7-2.3Z"/></g><path fill="#2d7097" d="M59.8 101.4c6.3 0 12.9-1.7 18.9 1 2.6 1.5 5.4 4.4 4.5 7.7l-.3 1-3-1c-2 1.8 2.3 1.7 3.2 2.5l-3 .5-.8 3c-.3-3.6-.3-7.7-2.8-10.6-1.5-2-4.1-2-6.3-2.7l-2-.9-5 .5c-1.3.3-2.4-.5-3.4-1Z"/><path fill="#3d91b3" d="M99.6 101.4c6.6-.5 13.3.4 19.8-.7 0 2.6-.3 5.2-1.2 7.6l-.5-1.6-.5-2.2c-3-1-6-1.2-9-1.2v3.5l-4-.2-1-2.6c-.9-1.2-2.4-1.8-3.6-2.6Z"/><g fill="#3a95b2"><path d="M140.6 101.4c2 0 4 0 6 .3 2.6 1.2 3 4.3 4 6.6l-1.8.3-1.5-3.1h-.5c-2-2.2-5.4-.7-8-.8l1.8-3.3ZM467.4 103.1l.8.4c.3 8.1-.6 16.3-.4 24.4a142.7 142.7 0 0 0 .6 10.2l-.8.1c-.3-11.7 0-23.4-.2-35Z" opacity=".8"/></g><path fill="#5bbfdf" d="M162.9 101.5c3.6-.3 7.2-.4 10.7-.8a20 20 0 0 0-.2 2.4l-1-.6-2.1-1.2c-1 0-3 .4-4 .5-.2 2.8-.3 5.6-.2 8.5l4.6-1 .2 4.5-3.8 2.8-1.4-3c-.1-3.6 0-7.2-.2-10.8-1-.2-1.9-.6-2.6-1.3Z"/><path fill="#91e1ee" d="M186.9 101.2c6-1 12.1-.3 18.1-.4l.8.3 7.7 2.8-3.6 2.9c-3.6-3.2-8.8-3.4-13.4-2.7l-1.8-.2v7.5l-3.1.5c.2 1.7.9 3.4 2.2 4.6l-.3 1.8c-1.3-1.6-3.7-3-2.7-5.2 1.2-4.3 1.3-10.5-4-11.9Z"/><g fill="#81d8e3"><path d="m232.1 101.7 2.8-.9 2.6 2.9-.2 3.2 2.9.5-.1.5-2.6 1.8.2 4.6c-2.8-2.3-1.5-6.7-3-9.8l-.2-.7-1.2-1-1.2-1.1ZM216.6 111.6l3.5-1.7c1.4 5.2 3.6 10.6 1.9 16a24.3 24.3 0 0 1-9.6 13.5c-3.4.7-7 0-10.3.7-4.2 1-8.5.3-12.7-.2 1.3-5 2.3-10.2 1.8-15.5 1-2 1.8-4 2.3-6.2l.3-1.7.5.6c.3 4.4-.2 8.9 1 13.2.4 2 1 4 1.3 6 3.3 2 7.4 2.9 11 1.2 2.3-2.8 5.5-4.6 7.9-7.2 1.1-5.2 1.3-10.5 0-15.7l1.1-3Z"/></g><path fill="#94e3e8" d="m236.7 101.3 14.2.1a393 393 0 0 0-.6 4.8l-2-1.4c-2.2-1.3-5-.4-7.6-.5l-4-3Z"/><g fill="#286789"><path d="M265.2 118c0-5.8 1.5-11.6 1.4-17.5v9.5c0 4.5-.3 9.2 0 13.8.2 4.3.1 8.6.1 13l-.6 1.2c1.7-6.6-1.2-13.3-.9-20ZM444.6 102.9l1 .5c.5 4.5.2 9 .3 13.5 0 1.4.2 2.8.4 4.2l1.8 1c2.6 2.7.8 7.1 1.1 10.6l-3.7.3c.4 2.2 2.3 3 4.2 3.5 1.1 1.9 3.1 2.8 5 3.8-2.1.1-4.3.1-6.4 0L447 138h-1.2l-1.3-.2c0-1.7.3-3.3.8-4.9l-.6-3.9c1.8-2.8-.3-6 0-9 0-5.7-.2-11.4 0-17.1Z"/></g><path fill="#4fa8c1" d="M289.9 101a75 75 0 0 1 10.9 0l-2.1 3.3-4-.9c.2 2.2.4 4.4.4 6.6l3.3-2c-.2 4.5-.3 9-.2 13.6l-4.6-4c.2-4.4.2-8.8 0-13.2l-3.7-3.3Z"/><g fill="#88dceb"><path d="M311.1 100.9c3.4.1 7.2-.2 9.6 2.7-3.7.4-7.8 0-10.8 2.8l-.5.1v-3l1.7-2.6ZM383.4 101.1h5v6.4l-1.8.1v-2.9l-1.5-.3-1.7-3.3Z"/></g><path fill="#98e3e5" d="M326.5 101.4c2.4.4 5.3 0 6.9 2.2l-6.5.3c-.3 4.2 0 8.5.5 12.7v2.4l-.4-.7h-2.1c-1-1.5-1.7-3.2-2.3-5l3.7.5-2.8-2.3-1.3-8.6 2.7.6 1.6-2.1Z"/><path fill="#6dbed5" d="M408.7 101.8c-2.3 1.5-1.7-1.8.3-.8l-.3.8Z" opacity=".8"/><path fill="#254b56" d="m409 101 .3-.7c.3 2.2 0 4.5 0 6.7.2 4 2.6 7.8 2.7 11.8l-.4.8-2.2-6.9-1-3.2c-.4-1.7-.9-3.5-1.5-5.2.7-.8 1.3-1.7 1.8-2.5l.3-.8Z" opacity=".4"/><path fill="#8ddded" d="m424.8 101.2 5.9.4-1.2 4.4-.3 1.1c-1.2 2.7-2 5.6-3 8.4l-.7-.1-.1 2.9-2.3-.5c1-1.9 1.6-4 1.7-6.2l1.6-2.6c0-.7-.3-2-.4-2.6l.7-2.7-1.9-2.5Z"/><path fill="#4384a7" d="M442 101.4c3.7-.3 7.5-.2 11.2 0-.8.6-1.8 1.2-2.5 2-.6 5.8.1 11.7-.6 17.5-.8 5.1 0 10.4-.4 15.6-2-.5-3.8-1.3-4.2-3.5l3.7-.3c-.3-3.5 1.5-8-1.1-10.6v-4l-2.2-1.2c-.1-4.5.2-9-.2-13.5l-1.1-.5c-1-.4-1.8-.9-2.6-1.5Z"/><g fill="#59b6d0"><path d="M463.8 101.5c4-.3 8-.3 12-.2l-3.3 1.9-3.1.8-1.3-.5-.7-.4-3.6-1.5ZM286.3 120.7c1.3.6 2.7 1.1 4.1 1.5h3.3l.5 4.8-2.4 1.5-2.7-3.7-3 2.2.2-6.3Z"/></g><path fill="#1a373e" d="m475.8 101.3.4-.3c-3.4 5.8-2.3 12.7-2.7 19-.3-3.8 0-7.6-1-11.3v-5.5l3.3-1.9Z" opacity=".3"/><path fill="#000808" d="m492 101.4.5-.3 1.4.7-.1.8c-1.3.8-2 .4-1.9-1.2Z" opacity=".3"/><path fill="#296185" d="m63.1 102.4 5-.5c-.8.6-1.5 1.3-2 2.3l2 .8c-.2 2.8 0 5.7 0 8.5l-2.5 1-1.3 2.6v-.5c-.4-4.8.5-9.7-1.2-14.2Z"/><path fill="#4c92ba" d="m68.2 102 2 .8L68 105l-2-.8c.6-1 1.3-1.7 2.2-2.3Z" opacity=".9"/><path fill="#519aad" d="m166.3 101.8 4-.5c.5.3 1.6 1 2.2 1.2l-.7 4.4c-.3 4.7.2 9.5-.3 14.2l-1-4.4c-1.2 1.4-3.3 2.4-3.4 4.5-.6 5.4.4 10.8-.6 16.2l-1 .8c.4-8.2-.6-16.4.2-24.6l1.4 3 3.8-2.8-.2-4.5-4.6 1c0-2.9 0-5.7.3-8.5Z"/><path fill="#458eac" d="m371.1 102.5 4.5.6c.2 4 0 8.2 2 11.7l2 1.4h-3.3c.5 1 1 2.2 1.8 3.2-2.9 2.5-.2 5.7.5 8.5.6 2.8.1 5.6 0 8.4l3.2 1.8-4.3-.5-1.2-9.3-2.8-.1c-.4 4-.4 8.1-2 11.9 5.8 0 11.7.2 17.6-.4-1.5 1.7-4.1 1.4-6.2 1.7-4.3.2-8.7.7-13 0l-1.7-1.4c1-1 1.6-2.6 3.1-2.8.4-6.1 0-12.2 1.3-18.2-.5-5.4 1.4-11.6-1.5-16.5Z"/><path fill="#8ad7e3" d="M401.6 104c1.1-1 2.4-1.9 3.7-2.8l1.6 3.1 1.6 5.2c-2.4-1-4-3.4-6.5-4l-.4-1.5Z"/><path fill="#31667a" d="M108.3 103.3c3 0 6 .3 8.9 1.2l-6.4-.1-2.6 3.7v-4.8Z" opacity=".6"/><path fill="#83dff8" d="M334.2 103c3-1.6.2 3.3 0 0Z"/><path fill="#2e7197" d="m468.1 103.5 1.3.5 3.1-.8v5.5c.3 6.7-.8 13.5-.4 20.2l-4.3-1c-.2-8.1.7-16.3.3-24.4m1.2 2.6c.3 3.4 3-1.6 0 0Z"/><path fill="#327499" d="m103.2 104 1 2.6 4 .2v6.3l-1.5 3c-.2 4-1.6 7.7-2.5 11.6-.3 3-.2 6-.5 9l-.3 1.2c0-5 .4-10 0-15 0-6.3.5-12.6-.2-19Z"/><path fill="#28525d" d="M135.6 118.3c-3.7-4-4.7-11.4 0-14.9-.7 2.3-1.3 4.7-1.7 7-.2 1.1.2 2.2.5 3.2 2.6 6.8 10.1 9.9 12.8 16.5 1 4.5-2 8.7-6.5 9.3a19 19 0 0 1-3.9-1.8c3.6 1.2 8.1.5 9.4-3.6.3-7-6.6-10.9-10.6-15.7Z" opacity=".5"/><path fill="#4eafbb" d="m194.7 103.9 1.8.2a166 166 0 0 0-1.2 26.2c-1.2-4.3-.7-8.8-1-13.2l-.5-.6a7.6 7.6 0 0 1-2.3-4.6l3.2-.5V104Z"/><path fill="#56aabc" d="M213.5 103.9c2.2 1.1 4.2 2.6 6 4.3l.6 1.7-3.5 1.7-1 3a27.2 27.2 0 0 0-5.7-7.8l3.6-3Z"/><path fill="#84dae8" d="m294.6 103.4 4 .9-.2 3.6-3.3 2.1c0-2.2-.2-4.4-.5-6.6Z"/><path fill="#1d424c" d="m378.8 104.6 6.3-.2 1.5.3v2.3l-6-1.8c-1.3 3.2-2 7.3.3 10.2 2.7.8 5.6-.2 8.4.4.3 3.1.4 6.3-.1 9.3l-1.1.8v-8.6c-3.1.1-6.3-.3-9.4-1.1h1l-2-1.4a43 43 0 0 1 1-10.2Z" opacity=".4"/><path fill="#203f47" d="m401.1 104.4.5-.4c0 .4.3 1.1.4 1.5 1 3.4 2.5 6.7 3.5 10l.3 1c1.2 4.7 3.5 9 4.5 13.8-.9-.7-1.5-1.6-1.9-2.7-2.4-6-3.8-12.4-6-18.5-.5-1.5-1.5-3-1.3-4.7Z" opacity=".4"/><path fill="#15333c" d="m108.2 108.1 2.6-3.7 6.4.1.5 2.2c-2.3-.8-4.7-1.1-7.1-1 0 3.2-1.2 7 1 9.8 2.5.6 5.2.7 7.8 1 1.3 3 .5 6.2-.7 9l-3.8-.2a5.2 5.2 0 0 0-4.2-1.6c-.8 4.6-1 9.3.2 13.9l-2.3-.3c-.3-4.4-.5-8.9.2-13.2 1-2.6 4.2-1.3 6.3-1.7l3 2.4c.3-2.4.5-4.9.6-7.4-2.4 0-4.8.1-7.1.3a21.4 21.4 0 0 1-3.4-4.5v-5Z" opacity=".3"/><path fill="#448bae" d="M402 105.5c2.6.6 4.1 3 6.4 4l1 3.2-3.9 2.8c-1-3.3-2.4-6.6-3.5-10Z"/><path fill="#6eb5da" d="M469.3 106.1c3-1.6.3 3.4 0 0Z"/><path fill="#4388a3" d="m424.8 109.4 1.2-3 .4 2.6-1.6 2.6c-.1 2.2-.7 4.3-1.8 6.2l2.4.5c-.9 2-1.6 4-2 6.1l-.7.1c-1 3.6-2.6 7-3.9 10.4-.7 2.2-1.5 4.3-2.6 6.3l-2.4-1-.5-2.3-2.5-5.8-.5-1.8c-1-4.8-3.3-9-4.5-13.8l2.5.2.6 5 2.8-2.1.3-.8c1 5 3 9.7 4.8 14.4 2.2-8 5.6-15.8 8-23.8Z"/><g fill="#7ac1ca"><path d="m269.4 108.2 2-.1c0 1 0 2 .2 3a13 13 0 0 0 4.7-2.2l.7-.5.1 2.2c-.7.7-2.4 1.8-1.5 3 1.3 1.2 3.1-.4 2.8-2a32 32 0 0 1 7.2 8c-1.7.6-3.4 2.5-5.3 1.4-2.2-2.3-3.9-5.1-6.4-7.1l-1.8-.2-1.6-.9-1.4-.8c0-1.3.1-2.5.3-3.8ZM445.7 138h1.2l1.4 2.4c-2.1 0-4.3.1-6.4-.3l3.8-2.2Z"/></g><path fill="#2d667b" d="M277 108.4c5 3.5 8.2 9 12.6 13.1l.8.7a30 30 0 0 1-4-1.5c-.3-.2-.6-.8-.8-1a32 32 0 0 0-7.2-8l-1.3-1.1-.1-2.2Z" opacity=".7"/><path fill="#70c3da" d="m79.8 110.1 3.1 1 .3-1c1.3.5.4 2.4.3 3.5l-1.5 3.2-4 6.2 2.6 3.3 5.8 8-1.7 4c-2-2.5-3.9-4.8-5.7-7.3l-.5-4.4c-.8 0-1.5.2-2.3.3-1.2-3.5-5-3-8-3H66l.6-.8 2.1-1.4c2.3.3 4.9 1.1 7.1 0 2.2-1 3-3.5 3.6-5.5l.9-3 2.9-.6c-1-.8-5.2-.7-3.3-2.5Z"/><path fill="#4ca4c8" d="M133.9 110.5c1.4.1 2.7.4 4.1.6v.2l-3.6 2.3c-.3-1-.7-2-.5-3.1Z" opacity=".9"/><path fill="#87c7d9" d="m266.6 110 2.4 2 1.5.8c.2 3.9.1 7.7 0 11.5l-3.9-.5c-.3-4.6 0-9.3 0-13.8Z"/><path fill="#9eeaf7" d="M275.6 113.6c-.9-1.3.8-2.3 1.5-3l1.3 1c.4 1.6-1.5 3.2-2.8 2Z"/><path fill="#93e2f0" d="m134.4 113.6 3.5-2.3c2.7 4.7 8.1 6.6 11 11l.5.2c1 2 2 4 2.4 6.3l-4.6 1.3c-2.7-6.6-10.2-9.7-12.8-16.5Z"/><path fill="#3e8ca9" d="M108.2 113.2c.9 1.6 2.1 3 3.4 4.5l7.1-.3c0 2.5-.3 5-.5 7.4l-3-2.4c-2.2.3-5.4-.9-6.4 1.7-.7 4.3-.5 8.8-.2 13.2l2.3.3c2 .2 4.1 0 6.2-.1l1.6-1.3-.8 2c-3 .3-6.1.3-9.1 0l-.3 1.8h10.8c.3-1.8.6-3.8.1-5.7l-.1-1h1.4a401 401 0 0 0-.4 7c-4.4.6-9 .3-13.3.2l-1.5-1.6a17 17 0 0 0 1.7-10.9l-3-.3c.9-3.9 2.3-7.6 2.5-11.6l1.5-3Z"/><path fill="#9aebeb" d="m272.1 113.7 1.8.2c2.6 2 4.2 4.8 6.4 7.1 1.9 1.1 3.6-.8 5.3-1.3l.7 1-.1 6.3 3-2.2 2.6 3.7c1 1.4 2 2.7 3.2 4 .5-3 .5-6 .3-8.9 1 2.2 2 4.4 2.7 6.8-.3 3.3-.3 6.6-.3 10v.5c-6.5-1.7-8.3-9.8-14.2-12.7l.1-.7h-1.2v-1.2l-1.1.4.4-1.3-1.3.1.2-1.3-1 .3-.3-1.7c-1.5-3.6-4.5-6.3-7.2-9.1Z"/><path fill="#8fdaf5" d="m405.5 115.5 4-2.8 2.1 6.9-2.7 2.1-.6-5-2.5-.2-.3-1Z"/><path fill="#6fbbd4" d="m65.6 114.5 2.5-1c-.1 3.2.2 6.7-1.6 9.6l-.6.8h2.4c0 2.8-.4 5.6-.4 8.4l-2.9 2.5-.4-1.6 2.3-2c-3.4-3.9-1.9-9.3-2.6-14l1.3-2.7Z"/><path fill="#133038" d="m82 116.8 1.5-3.2c1.5 3.8-3.3 7.3-1 11 1.3 2.9 3 5.7 4.7 8.3 1.7 2.9 5 4 7.1 6.4-3.4-.2-6-2.5-8-5l-5.7-8c-.2-3.2 0-6.5 1.4-9.5Z" opacity=".3"/><path fill="#83dbe3" d="M234.8 122.4c.6-2.3 1.1-8 4.7-5.9 3.1 2.2 7 1.9 10.5 1v8c-1.3-.7-2.1-2-2.9-3.2l-1.7.1-3.7.2-1 3.4c-.1 2.3-.2 4.7.5 7l-.6 3.8c-2 .9-4.1 1.8-6.4 1.6.7-5.3 0-10.7.6-16m7.7-3.3c-.5 1.4 0 1.9 1.4 1.5.4-1.4 0-1.9-1.4-1.5Z"/><path fill="#4ba6bf" d="M376.3 116.1h2.4c3 1 6.3 1.3 9.5 1.2l-.1 8.6-3.3-.4c-.9-2.2-3.2-2.2-5.2-2.2a79 79 0 0 0-.2 13.3c2.9.2 5.7.2 8.5-.2-1.1 2.3-4 1.8-6 1.7l-3.3-1.8c.1-2.8.6-5.6 0-8.4-.7-2.8-3.4-6-.6-8.5l-1.7-3.3Z"/><path fill="#3c7e95" d="M64.3 116.6v.5c.8 4.8-.8 10.2 2.6 14.1l-2.3 2 .4 1.7 2.9-2.6c.1 2 .4 4 .8 5.8 1.1 1 2.5 1.6 4 1.8-3.8.7-8 .7-12 .1l2.8-1.6c.4-7.3.2-14.6.8-21.8Z"/><path fill="#397083" d="M78 123c1.4-2 2.8-4 4-6.2-1.4 3-1.6 6.3-1.4 9.5L78 123Z" opacity=".7"/><g fill="#59b0ca"><path d="M167.1 121.2c0-2 2.2-3.1 3.5-4.5l.9 4.4c.1 5.7-1 11.8 1 17.3l3.7 1.6c-4.1 1.2-8.4.3-12.6.5.5-.9 1-1.7 2-2.3l1-.8c.9-5.4 0-10.8.5-16.2ZM467.6 138.2h.8l.2 2c-1.2.6-2.3.6-3.4-.1.3-1 1.1-1.7 2.4-1.9Z"/></g><path fill="#71bfe0" d="M445.9 116.9c.5.3 1.6 1 2.2 1.2v4l-1.8-1-.4-4.2Z"/><path fill="#74cbd7" d="m293.6 117.5 4.6 4c.2 3 0 6-.2 8.8-.6-2.3-1.7-4.5-2.7-6.7.2 3 .2 6-.3 8.9a50.8 50.8 0 0 1-3.2-4l2.4-1.5-.5-4.8v-4.7Z"/><path fill="#5fb6be" d="M242.5 119c1.3-.3 1.8.2 1.4 1.6-1.4.4-1.9-.1-1.4-1.5Z"/><path fill="#16333a" d="M68.3 124c3-.2 6.7-.6 7.9 2.9a68 68 0 0 0 2.8 4c1.8 2.6 3.8 5 5.8 7.3l1.4 1.6c-2.8-.5-4.3-3-6-5-2.5-3.3-5.4-6.4-8.2-9.5-1 .8-2.7 1.2-3.2 2.7-.3 3.4 0 6.7-.1 10.1-.4-1.9-.7-3.8-.8-5.8 0-2.8.3-5.6.4-8.3Z" opacity=".3"/><path fill="#b1efef" d="M266.6 123.8c1 0 2.9.4 3.8.5 0 4.3.2 8.5.1 12.8l-3.8-.4v-13Z"/><path fill="#6ecee1" d="M323 130.4c.1-2.5-.6-5.4 2-7 0 4 .2 8.1.6 12.2l1.9 1.8c1.2 1.1 3 1.5 3.7 3.1-4.1 0-8.3.1-12.3 0 .7-1 1.6-1.7 2.6-2.4l1-6.2c.2-.4.4-1.1.4-1.5Z"/><path fill="#3e8195" d="m76.2 126.9 2.3-.3.5 4.4a68 68 0 0 1-2.8-4.1Z" opacity=".8"/><path fill="#8dcbeb" d="m104.2 127.7 3 .3a17 17 0 0 1-1.7 10.9l-1.8-2.1c.3-3 .2-6.1.5-9.1Z"/><path fill="#8adde7" d="m373.5 128.2 2.8.1 1.2 9.3 4.3.5c2.1 0 5 .6 6.1-1.7l1.3-3.7c1.5 2.2.5 4.6.2 7h-.3c-5.9.6-11.8.5-17.7.4 1.7-3.8 1.7-8 2-12Z"/><path fill="#28606e" d="m467.8 128 4.3 1c0 2.8.2 5.6.8 8.4 3.4.5 6.8.8 10.2.1 1.2-1.4 2.1-3 3.3-4.6-.3 2.5-.8 4.9-1.2 7.3-3.6.2-7.1.2-10.7.2-2-2.3-4.2-4.5-6.4-6.6l-.3-5.9Z"/><path fill="#5badc4" d="m147.2 130.1 4.6-1.3c0 2.5-.5 5-1.6 7.4l-1.1.8c-2.5 1.8-5.3 3.7-8.4 2.4a7.7 7.7 0 0 0 6.5-9.3Z"/><path fill="#4187a0" d="m132.7 132.8 1.3-2 .6 4.5 2.2 2.3a19 19 0 0 0 3.9 1.8c3.1 1.3 6-.6 8.4-2.4-3.4 5.8-11.4 5.2-16.5 2.3l.1-6.5Z"/><path fill="#6fd7dc" d="M250.8 133.4h1.9c-.2 2.5-.3 5-1.4 7.3-6.5 0-13 .3-19.5-.2.1-1.6 1-2.3 2.4-2 2.3 0 4.4-.8 6.4-1.7 2.5.5 5 1 7.5.7l2.3-1.4c0-.7.3-2 .4-2.7Z"/><path fill="#225374" d="M86.4 134.2c2 2.6 4.5 4.9 8 5.1l1.6.4c-3 1.5-6.8 1-9.8.1l-1.5-1.6 1.7-4Z"/><path fill="#388299" d="M468 133.8c2.3 2.1 4.4 4.3 6.5 6.6-2 0-4 0-6-.3l-.1-2-.3-4.3Z"/><path fill="#8ed9ea" d="M119.4 134.3c.5 2 .2 3.9-.1 5.8l-10.8-.1.3-1.8c3 .3 6 .3 9 0l.9-2 .7-1.9Z"/><path fill="#95ebe7" d="m266.7 136.7 3.8.4h.4c.4 1.6 2 1.6 3.4 1.9l.6 1.5c-4 0-8 .5-11.9-.5l3-2 .7-1.3Z"/><path fill="#87b6b5" d="M120 163.8c4-.8 8.2 0 12.3 0l-1 .3c-3.3 0-6.6-.2-9.9.2l2 2c.2 2.3.7 4.5 1.3 6.6l2.3-5.6c.2 2.6-1.7 8.9 3 7.9 2.6-.8 2.2-4 2.4-6.1l2 3.5 1.7-5 .2-.7c1 3.6-1 6.5-3.2 9l1.4 2.2-2.4 1-1 .3-1-2-.3-.8-2.7-.3-2.3 3.6-1.7-3-.3-.6c0-4.4.8-9.3-2.8-12.5Z"/><path fill="#8db9bd" d="M150.4 164c4.8-1.3 9.9.3 14.8-.4v3.8l-1 1.1c-1.2-2.8-4-2.3-6.5-2.2v-1.5l6 1 1.1-1.5c-4.1-.1-8.3-.5-12.4 0l2 2 .3 4.3 2 2.3c2.4 1 5 .4 7.7.4l-.2 3.8v.8l-1.9-2.6h-4.7c0 2.6 0 5.2.2 7.8l-.9-5.6-1.7 2.2-1.5-4c-.3-2.8-.1-5.6 0-8.5l-3.3-3.2Z"/><path fill="#506162" d="M175 164.6c2.7-2.4 7.2-1.4 10.4-.7-3.2.4-6.5.3-9.7 0 2.5.9 4 2.9 4.3 5.5-1-2.2-3-3.7-5-4.8Z" opacity=".4"/><path fill="#bfe2e4" d="M274.5 163c2.6 1 2.9 4.3 3.5 6.6-.6 1.5-1.4 3-2.2 4.3l-.8-2-1-.9-.7 1.9-3 1c1.3-3.6 2.9-7.2 4.2-10.9Z"/><path fill="#d0f5f7" d="M294 163.4c6.2.6 12.3.1 18.4.4l1.3.6-1.3 1.3c-2.2 0-4.5-.3-6.8-.5l-.4 4-2 .7c-.7-1.7-1.3-3.4-2.2-5-2.3-.7-4.7.2-7 .6v-2.1Z"/><path fill="#c4e5e8" d="M324.2 163.8c3-.1 6.2 0 9.3 0h-.2l-2 .7c-.5 3-.8 5.9-1.8 8.6-1.8-1.5-1.8-4-2.2-6l.3 6.1 2.4.3c-.8 2-1.5 4.2-2.1 6.3 0-2.6-.4-5-1-7.5-.3-2.2-.2-4.4-.3-6.6-1.1-.2-1.8-1-2.4-2Z"/><path fill="#d0f6f9" d="M348 166c5.2-3.5 13.4-4 17.9.9l1 4.7-3.5-.3c-1-2.6-3-4.5-5.3-5.7-1.6-1.4-3.9-1-5.3.3l-1.2 1c-1.5.9-2.8 2.2-2.9 4.1l-2.3.8-.3-2c.4-1.4 1.3-2.5 2-3.7Z"/><path fill="#a8d2d5" d="M380.3 172.7c.3-3.2-1.6-7.6 1.3-10l-.2.8c-.2 2-1.3 5 1 6.3 1.5 0 3-.4 4.6-.6l3.6 3.7-3 3c-1.4-1.6-3-3-4.5-4.5l-.8-.8-.9 7.4-1-5.3Z"/><g fill="#b6e4e3"><path d="M414.5 166.5c2.6-3.5 7-3.5 11-2.8 0 1.8.7 4-.7 5.6a69 69 0 0 0-1.7-3.5c-1.4-.3-2.8-.2-4.2-.2l-1.5 2.5 2.4 3-4.9.8h-.4v-5.4ZM394.4 163.7h7.7c-4 2.6-2.2 7.5-2.7 11.4a28 28 0 0 0-2.3 4.4l-.5.1c1.8-4.4-.4-9.3-.1-13.9l-2-.6-.1-1.4Z"/></g><path fill="#caf0f5" d="M121.4 164.3c3.3-.4 6.6-.2 10-.2 2 .1 4.5 1 4.7 3.5-.5 1.7-1.1 3.3-1.8 5l-2-3.5-1.1-2.2-3.5-1.5-.7 1.9-2.3 5.6c-.6-2.1-1-4.3-1.3-6.6l-2-2Z"/><path fill="#ccf8f8" d="M152.4 164.3c4.2-.5 8.3-.1 12.4 0l-1 1.5-6-1-.1 1.5c.2 2.1-1.1 6 2 6.3 1.7.2 3.3.2 5 0l-.5 4.5.2-3.8c-2.6 0-5.3.6-7.7-.4l-2-2.3-.3-4.3-2-2Z"/><path fill="#d5fbff" d="M175.7 163.9c3.2.3 6.5.4 9.8 0l-2.1 1.5.1 6.5-3.3-2.3-.2-.2a6.3 6.3 0 0 0-4.3-5.5Z"/><path fill="#c8ebed" d="m191.9 163.8 7-.1v1.3c-1.7.8-2.2 2.6-3 3.9a62.5 62.5 0 0 1-5.6 7.6c.7-3.2 2.2-6 3.2-9.1.9-1.6-.4-2.8-1.6-3.6Z"/><path fill="#d4f1f1" d="M208.8 164.9c4.4-2.4 9.9-.6 14.8-1.2l-.4 5-1.3-2.2c-1.5-1.1-3.4-1.5-5.1-2.1l-2.6 8.9-2-6.3-.6-1.6-2.8-.5Z"/><path fill="#c3e6ea" d="M238.4 163.8c2.8-.2 5.6 0 8.4 0 0 1.3-1 1.7-2.3 2-.2 3.5 0 7.1-.3 10.7l-.8-3.7c-2.3 3.3-3.2 7-3.1 11v-18l-2.4-.6.5-1.4Z"/><path fill="#a5ccd4" d="M293.2 168c.2-1.4.4-2.8.9-4.1v1.6c2.2-.4 4.6-1.3 6.9-.6.9 1.6 1.5 3.3 2.2 5l2-.8a49 49 0 0 1-1 5.6l-2.3-.8v3.8c-.1 2-.2 4-.5 6 .2-5.7 0-11.5.1-17.3h-6l-1.4 2.2-.9-.7Z"/><g fill="#83abb1"><path d="M313.7 164.4h.1l-.7 4.4-2.8-2.6c-1.5 0-2.9.2-4.1 1-1 5.5-.6 11.3-.6 17l-.7-6.5-1.4 2-1.7-2V174l2.5.8a49 49 0 0 0 1.3-9.5c2.3.2 4.6.5 6.8.5l1.3-1.3ZM278 169.6l.3-.5c1 3.2 2.3 6.3 3.5 9.4l-2.3.7c-3.5-2.4-7.7-1.5-11.3 0l2.1-5.2 3-1.1-1.3 3.7 4.6-.1-.8-2.6c.8-1.4 1.6-2.8 2.2-4.3Z"/></g><path fill="#508b95" d="m331.3 164.5 2-.7c-.2 1.4-1.2 2.5-2 3.6.1 5.7-1 11.3 0 17l3.3 1.6c-3.3-.2-6.6-.2-10 0h-.6l2.7-1.8c.2-4-.1-8 .2-12 .6 2.5 1 5 1 7.6l2-6.3-2.3-.3-.3-6.1c.4 2 .4 4.5 2.2 6 1-2.7 1.3-5.7 1.8-8.6Z"/><path fill="#cff3fa" d="M382.4 169.8c-2.3-1.4-1.2-4.2-1-6.3 2 1.8 3.7 3.8 5.6 5.7-1.6.2-3 .6-4.6.6Z"/><path fill="#91bcbc" d="M183.5 172c0-2.2-.2-4.4-.1-6.6 1.8 4.9 3 10 5.3 14.6l-2.8-.8-2.8-2.8a26.7 26.7 0 0 1-2.9-6.8l3.3 2.3Z"/><path fill="#8cb3c0" d="m214.2 173.3 2.6-9c1.7.7 3.6 1.1 5.1 2.2l-5.6-.3v7l7.4-.5-.9 1.6c-2.2.3-4.5.4-6.7.6l-1.1 4.4-2-.2-.8 4.8c.2-5.6-.1-11.3 0-16.9l2 6.3Z"/><path fill="#68838a" d="M352.9 166c1.3-1.5 3.6-1.8 5.2-.4-1.7.7-3.5.7-5.3.3Z" opacity=".7"/><g fill="#7daaa6"><path d="M348.7 171c.1-1.9 1.4-3.2 3-4.2a14.2 14.2 0 0 0-2.2 11.1l-3 3.5-1.9-4.4.5-1.5 3 .2.6-4.7ZM351.1 181.4c2.1 2.3 5.1 3.4 8.2 3a6 6 0 0 1-8.2-3Z"/></g><path fill="#95babf" d="M365.9 166.9c1.1 1 1.8 2.5 2.5 3.9v7h-.1l-4.4-2.8-.5-3.7c1.2 0 2.3.2 3.5.3l-1-4.7Z"/><path fill="#548d93" d="M190.3 176.5c2-2.4 3.9-5 5.5-7.6-2.1 6.2-5.5 11.9-8 18-2-3.3-3.5-6.9-4.7-10.5l2.8 2.8 2.8.8c.4-1.3.9-2.4 1.6-3.5Z"/><path fill="#93bfc0" d="M346 169v.7l.4 2.1 2.3-.8-.5 4.7-3-.2-.6 1.5c-.3-2.8.2-5.5 1.3-8Z"/><path fill="#559093" d="m382.4 170.6.8.8c-.3 4.1-.8 8.4 0 12.5.9.9 2 1.5 3.1 2.2a46 46 0 0 0-9.3 0l3.2-2.1c0-3.8-.2-7.5.1-11.3l1.1 5.3c.2-2.5.6-5 1-7.4Z"/><path fill="#91bec7" d="M419.8 171.1c2.1 1.4 3.9 3.3 5.6 5.2l-3.5 2.4c-2.4-2.1-5.5-3.8-7-6.8l4.9-.8Z"/><path fill="#538d86" d="m243.4 172.8.8 3.7c.3 2.3.1 4.5.2 6.8 3.2 1.1 6.9.9 8.6-2.4-.6 1.7.3 4.5-1.7 5.3-4.6.1-9.1-.2-13.6-.1l2.6-2.3c0-4 .8-7.7 3-11Z"/><path fill="#65b1b8" d="m390.6 172.9 3.7 3.7-1.9 3.7-4.8-4.5 3-2.9Z"/><path fill="#5d8a8d" d="M216 174.9c2.3-.2 4.6-.3 6.8-.6 0 1.2-.3 2.4-.6 3.5-.8-2.7-3.6-2.6-6-2.5 0 2.6-.1 5.2.1 7.7 2.7 2 6.6 1 8-2-.1 1.8-.6 3.6-1 5.4-4.6-.8-9.4-.7-14-.3l3-2.2.6-4.8 2 .2 1.2-4.4Z"/><path fill="#568c8f" d="m363.9 175 4.4 2.7c-1.5 4-4.8 8.4-9.5 8.2h-4.5c-3.4.4-5.9-2.2-7.8-4.5l3-3.5 1.6 3.5a6 6 0 0 0 8.2 3c3.8-1.5 4.8-5.7 4.6-9.4Z"/><path fill="#528991" d="m153.7 175.7 1.5 4 1.7-2.2.8 5.6c2.7 1.8 6.7 1 7.9-2.2-.3 1.8.5 4.2-1.4 5.4-4.3-.5-8.7-.5-13-.7 4.3-1.4 1.8-6.5 2.5-9.9Z"/><path fill="#47888d" d="M397 179.5a28 28 0 0 1 2.4-4.4c0 3.7-.1 7.5-.3 11.2-2.7-1.3-4.6-3.8-6.8-5.8l.1-.2 2-3.7 2.2 3h.5Z"/><path fill="#518b8e" d="m123.1 177 1.7 2.9 2.3-3.6 2.7.3.4.8h-3.4c0 3.2-.7 7.2 3 8.7h-9l2-2.1c0-2.4 0-4.7.3-7Z"/><path fill="#4f8691" d="m421.9 178.7 3.5-2.4c2.1 3.8 0 9.3-4.6 9.8h-4.6l-2.6-.8c0-1.9.2-3.8.3-5.6 1.5 1.7 2.3 5 5 4.8 2.3.3 3.6-1.7 4-3.5l-1-2.3Z"/><path fill="#539295" d="M134.5 178c1.8 2 3.3 4.5 5.6 6.1l2.4 1-1.8 1.2-3.8-.6c-2.3-1.7-4.1-4-5.8-6.2l1-.4 2.4-1Z"/><path fill="#518886" d="M268.2 179.2c3.6-1.5 7.8-2.4 11.3 0l2.3-.7c.6 1.6 1 3.3 2 4.7.7 1.3 3.1 1.3 3 3.1l-7-.2c-.2-2.7-1.3-5.1-2.4-7.6l-6.3.1-2 5.8 2.1 1.7H263c3-1.2 4.3-4 5.2-7Z"/><path fill="#588080" d="m301.8 177.7 1.7 2 1.4-2 .8 6.5 3.3 1.4c-3.2 1-6.6.5-10 .5l2.4-2.3c.3-2 .4-4 .4-6Z"/><path fill="#122324" d="m140 184.1 3 .3v3.1c-2.1-.5-4.3-.8-6.1-1.8l3.8.6 1.8-1.2-2.4-1Z" opacity=".3"/><path fill="#07100d" d="M150.6 185.6h.6c4.3.3 8.7.2 13 .7l1 .2c-4 .6-8.1.3-12.2.2-1 0-1.7-.4-2.4-1Z" opacity=".3"/><path fill="#040e0b" d="M209.2 186.2c4.7-.5 9.5-.5 14.1.2-4.6 1-9.5.7-14-.3Z" opacity=".3"/><path fill="#010803" d="M324.7 186c3.3-.2 6.6-.2 10 0-3.1 1.5-6.9 1.1-10 0Z" opacity=".2"/><path fill="#112724" d="M354.3 186h4.5c0 1.8-4.5 1.8-4.5 0Z" opacity=".6"/><path fill="#010908" d="M377 186c3.1-.2 6.2-.2 9.3.1-3 1.1-6.3 1-9.3 0Z" opacity=".2"/><path fill="#06282c" d="M416.2 186h4.6c-.2 1.9-4.5 2-4.6 0Z" opacity=".5"/></svg>