<svg xmlns="http://www.w3.org/2000/svg" viewBox="0 0 1368 1368"><title>Artboard 2</title><path d="M674.07,974.69a13.5,13.5,0,0,1-10.59-5.13,13.5,13.5,0,0,1-6.83,1.86h-.35a216.17,216.17,0,0,1-24.16-1.75,13.48,13.48,0,0,1-9.2-5.65,13.48,13.48,0,0,1-11.65,1.18c-10.3-3.73-24.71-10.43-31-25.45a13.93,13.93,0,0,1-1-3.74c-1.54-13.93-1.68-27.82-1.81-41.25,0-5.94-.11-12.08-.3-18-.65-11.71-.68-23.44-.71-34.79,0-10.63-.05-21.62-.6-32.25-.45-9.15-.38-18.23-.32-27,.05-7.93.11-15.45-.18-23a30.24,30.24,0,0,0-2.7-5.13c-2.45-4.08-5.47-9.12-6.41-15.78-2.42-12.25,1.07-22.75,4.15-32a83.1,83.1,0,0,0,3.19-11.23c-1.15-4.62-2.54-9.29-4.76-11.58a4.91,4.91,0,0,0-1.81-.28,20.2,20.2,0,0,0-6.94,1.57c-9.35,4.2-17.71,10.38-25.91,17.44l.53.28,3.71,2a13.51,13.51,0,0,1,3.9,20.61c-2.66,3.14-8.89,10.5-19.14,10.5a21.64,21.64,0,0,1-2.54-.15l-.38-.06c-8.94-1.38-15.33-6.21-20.47-10.09-1.37-1-2.7-2-3.95-2.87-1.3.76-2.76,1.78-4.13,2.72a69.48,69.48,0,0,1-7.68,4.84,13.5,13.5,0,0,1-15.59-2.23c-15.66-15-24.4-33.05-24.63-50.76-.39-7.63,2-14,4-19.07.48-1.26.94-2.45,1.31-3.55a.42.42,0,0,1,0-.1,27.07,27.07,0,0,0-1.63-5.17A43.39,43.39,0,0,1,444.12,636a13.49,13.49,0,0,1,8.58-13.29c1.56-.61,3.18-1.26,4.8-2a24.44,24.44,0,0,1-1.16-2.47C428.9,552,415.47,488.64,416.41,429.87v-1.25c.06-23.8.12-48.41,9.95-71.94,11.53-27.75,33.34-48.21,48.74-61.19l.34-.28c32-25.21,72.18-44.92,119.47-58.59l.3-.08c30-7.94,56.73-11.8,81.6-11.8a223.79,223.79,0,0,1,24,1.27c50.74,4.59,96.69,17.74,136.59,39.08,37.49,20.19,67.56,47.46,87,78.85,23.52,37.42,33.33,84.34,27.61,132.13-3.47,27.95-11.59,57.35-24.16,87.46a115.42,115.42,0,0,1-9,16.63c-3.46,5.59-6.73,10.87-8.26,16.21-.09.31-.19.61-.29.91-4.2,11.52-4.09,24.38-4,38,.1,12.28.2,25-2.77,37.92,0,.06,0,.11,0,.16-6.06,25-23,42.59-36.23,52.93a18.45,18.45,0,0,1-11.84,4.1,29.43,29.43,0,0,1-7.14-1c-.36-.09-.71-.18-1-.24a12,12,0,0,1-1.68-.36c-11.44-3.22-18.29-11.39-17.88-21.32a12.33,12.33,0,0,1,.15-1.49,37.87,37.87,0,0,1,4.6-12.38c.48-.92,1-1.85,1.33-2.63a16.17,16.17,0,0,0-2.85-7.55,7.2,7.2,0,0,0-3.86-.8,29.14,29.14,0,0,0-8.23,1.46c-9,3.48-17.58,8.47-25.67,13.74.7,11.33.76,24.25-3.14,36.88-3.12,12-8.73,22.35-14.16,32.36-1,1.77-1.92,3.53-2.86,5.3-.12.23-.24.45-.38.67-1.37,2.26-1.81,6.24-2.28,10.46-.13,1.2-.27,2.4-.42,3.58-3,32-6.2,64.58-9.31,96q-2.53,25.61-5,51.22a13.16,13.16,0,0,1-.24,1.51c-.11.5-.2,1.46-.3,2.38-.42,4-1.12,10.77-6.2,16.47l-.33.36c-7.35,7.65-16.38,11.16-24.34,14.26-1.06.41-2.11.81-3.14,1.23a13.5,13.5,0,0,1-12.68-1.41c-.2-.13-.38-.27-.56-.41a13.4,13.4,0,0,1-6.78,3.3,220.4,220.4,0,0,1-26.15,2.64Zm93.85-381.36c34.66,0,67.64-13.85,88.2-37.06l.13-.15c17.84-19.56,25.82-46.94,21.28-72.3-3.84,1-8.15,4-12.67,7.14l-1.23.87c-42.45,30.08-89.89,63.69-142.27,89.78a106.33,106.33,0,0,0,45.88,11.72ZM474.79,485.7c-1.17,15.5,0,28.4,3.66,39.46,10,30,38.57,55,72.88,63.72l.41.11a110.75,110.75,0,0,0,30.6,4.27,105.59,105.59,0,0,0,49-11.64c-47.83-23.6-91.68-54.34-134.27-84.19q-6.94-4.89-13.91-9.74c-2.15-1.33-5.61-3.42-8.1-4A19.69,19.69,0,0,0,474.79,485.7Z" style="fill:#fff"/><path d="M676.81,238.24a209.31,209.31,0,0,1,22.65,1.2c45.65,4.12,91,15.86,131.55,37.55,32.67,17.6,62.25,42.32,81.9,74.1,22.9,36.41,30.73,81,25.66,123.38-3.59,28.91-12,57-23.22,83.86-5,12-14.22,21.73-17.82,34.33-9.09,25-1.36,52-7.22,77.53-4.47,18.47-16.8,34.07-31.56,45.58a5,5,0,0,1-3.39,1.13c-2.09,0-4.35-.83-6.19-1.1-3.62-1-8.23-3.4-8-7.77.83-5.39,4.79-9.67,6.12-14.9a29.24,29.24,0,0,0-6.42-19c-3.83-3.73-8.75-5.06-13.82-5.06a42.86,42.86,0,0,0-12.66,2.2c-12.63,4.82-24.15,12.06-35.27,19.63,1,13.33,2,27.1-2.1,40-3.19,12.52-9.94,23.71-16,35-3.55,5.85-3.71,13-4.58,19.54-4.56,49.17-9.59,98.3-14.37,147.46-.89,4.17-.3,9.24-3.37,12.68-6.11,6.36-14.79,9.11-22.77,12.31,1.08-66.29,3.8-132.54,5.19-198.83,5.61-4,12.06-8.18,13.83-15.36-9.66-2.86-19.83-2.83-29.8-3.13-2.29,72.67-3.83,145.37-6.5,218a208.61,208.61,0,0,1-24.57,2.46,440.08,440.08,0,0,1-.17-57.19c.94-52.31,5.54-104.58,3.86-156.91-.23-3.71-4-5.84-7.43-5.84-3,0-5.76,1.6-5.82,5.15-1.84,57.42-3.95,114.85-5.85,172.28-.71,13.07-.28,26.23-2,39.24A199,199,0,0,1,634,956.3c.1-19.77.08-39.54-.92-59.29-.21-46.68-.11-93.35,0-140-.51-4.29.72-9-1.07-13-.55-1.88-2-2.37-3.67-2.37s-3.88.54-5.59.54a4.41,4.41,0,0,1-1.84-.33c-3,25.93-1.36,52.12-2.77,78.16-.16,44.18-2.26,88.33-2.29,132.52-9.29-3.37-19.13-8.37-23.17-18-2.15-19.39-1.43-38.93-2-58.39-1.26-22.37-.15-44.79-1.32-67.16-.83-17,.19-34-.54-51-1.27-7.84-8.27-13.47-9.23-21.46-3.09-14.66,6.35-27.65,7.74-41.75-1.81-7.49-3.86-16-9.87-21.28A16.27,16.27,0,0,0,567,670.17a33.84,33.84,0,0,0-12.17,2.62c-16.72,7.43-30.26,20.06-43.5,32.37,6.64,4.33,13.69,7.92,20.66,11.67-2.26,2.67-5.11,5.72-8.84,5.72a6.29,6.29,0,0,1-.86,0c-10-1.54-16.24-11-25.45-14.21-7.24.94-12.83,6.92-19.08,10.18-11.29-10.84-20.38-25.38-20.48-41.47-.41-6.36,2.63-12,4.59-17.85,3-8.4-3.88-15.67-4.31-23.88,7.7-3,15.27-6.57,21.41-12.22-3.4-3.27-8.33-5.24-10.16-9.89-24-57.92-40-120.11-38.94-183.16.06-22.85-.06-46.65,8.91-68.12,9.36-22.52,26.59-40.57,45-56.07,33.77-26.62,73.75-44.34,114.86-56.22,25.45-6.72,51.78-11.35,78.15-11.35M582.34,606.76c27.61,0,55.29-9.07,76.09-27.47-60.49-26.24-114-65.35-167.82-102.89-5.05-3.12-10.71-6.4-16.75-6.4a16.07,16.07,0,0,0-4.24.57c-6.06,1.23-7.75,8.69-8.28,13.92-1.15,15-.46,30.45,4.28,44.88C477.78,566,511.28,592.63,548,602a124.45,124.45,0,0,0,34.33,4.8m185.58.07c36.47,0,73.83-14,98.3-41.61,21.34-23.39,30.83-57.17,23.7-88.16-1-4-5.11-6.39-8.93-7-.36,0-.73,0-1.09,0-9.18,0-16.84,5.77-24,10.79-51.41,36.43-103.47,72.83-161.28,98.54,19.7,17.75,46.17,26.64,72.42,27.5h.93m-116.68,87.7c2.35-8.59,3.83-17.48,7.69-25.58,3.49-8.42,9.09-15.75,12.77-24.06,1.32-16.11-.42-32.3-1.21-48.41-6.45,7.77-13.42,15.65-16.11,25.62-2.2,6.45-3.3,13.4-7,19.25-4.38,6.7-10.22,12.23-15.53,18.16,6.45,11.68,13.9,22.8,19.39,35m49.68-.91c4.56-7.42,7.71-15.67,13.16-22.56,2-3.58,6.72-6.72,4.34-11.46-3.93-5.63-9.67-9.81-13.24-15.73-5.31-6.76-5.38-15.79-8.77-23.4-3.88-7.13-9.26-13.31-14.9-19.08-.46,15.34-2.55,30.76-.85,46.1,3.3,6.75,8,12.77,11.3,19.53,4.35,8.34,6.43,17.59,9,26.6m-24.1-482.38v0c-26.06,0-53.88,4-85.06,12.25l-.6.16c-49,14.16-90.72,34.66-124.07,61-.24.18-.47.36-.69.55-16.48,13.89-39.84,35.88-52.51,66.36-10.85,26-10.92,53.11-11,77.07v1.15c-.92,58,11.65,120.09,37.37,184.82a27,27,0,0,0-9.64,22.12c.39,7.49,2.72,13.61,4.26,17.67-2.12,5.57-5,13.64-4.57,23.52.35,21.27,10.55,42.58,28.77,60.08a27,27,0,0,0,31.19,4.46c1.89-1,3.63-2,5.2-3.06,5.49,3.91,12.93,8.32,22.73,9.83l.76.11a32.93,32.93,0,0,0,4.21.26c15.72,0,25.3-10.43,28.94-14.68a55.31,55.31,0,0,0,.83,6.18c1.38,9.17,5.42,15.92,8.14,20.45L562,763c.17,6.35.13,12.82.08,19.61-.07,8.95-.13,18.22.33,27.7v.09c.54,10.3.56,20.64.58,31.58,0,11.47.06,23.33.72,35.34.18,5.76.24,11.51.29,17.6.14,13.76.28,28,1.89,42.6a26.82,26.82,0,0,0,2,7.47c9.32,22.21,31.55,30.27,38.85,32.92a26.88,26.88,0,0,0,9.21,1.62,26.28,26.28,0,0,0,3.86-.28A27,27,0,0,0,630.27,983,227.48,227.48,0,0,0,656,984.91h.69a26.57,26.57,0,0,0,4-.3,26.83,26.83,0,0,0,13.4,3.57c.47,0,1,0,1.43,0a235,235,0,0,0,27.75-2.81,26.85,26.85,0,0,0,5.1-1.41,27,27,0,0,0,17.64-.85c1-.4,2-.79,3-1.18,8.34-3.24,19.77-7.69,29.18-17.48.23-.24.45-.49.67-.73,8-9,9-19.16,9.56-24.07,0-.41.1-1,.13-1.23a25.69,25.69,0,0,0,.41-2.75c1.66-17.08,3.39-34.46,5-51.26,3.11-31.39,6.32-63.84,9.29-95.83.16-1.24.29-2.42.42-3.56.2-1.8.49-4.44.78-5.59l.39-.71q1.38-2.6,2.79-5.19c5.51-10.16,11.74-21.65,15.29-35.12,3.53-11.59,4.23-22.94,4-33.31,2.69-1.61,5.41-3.15,8.16-4.55-.26,1.09-.48,2.22-.67,3.4a27.2,27.2,0,0,0-.29,3c-.67,16.25,10.21,29.94,27.71,34.87a27.33,27.33,0,0,0,2.85.64l.38.09a42.39,42.39,0,0,0,10.28,1.38,31.79,31.79,0,0,0,20.27-7c21.26-16.66,35.4-37.51,40.92-60.31,0-.1.05-.2.07-.3,3.33-14.49,3.22-28.61,3.12-41.06-.11-12.91-.2-24,3.16-33.28.22-.6.42-1.21.59-1.82,1-3.53,3.67-7.83,6.76-12.81a127.41,127.41,0,0,0,10-18.58c13-31.22,21.47-61.81,25.08-90.89l0-.12c6.08-50.83-4.42-100.84-29.55-140.86-20.67-33.4-52.48-62.3-92-83.6l-.08,0c-41.47-22.18-89.11-35.84-141.62-40.61a238.35,238.35,0,0,0-25.3-1.33Zm78.81,367.47c39.37-22.11,75.62-47.42,108.89-71A74.17,74.17,0,0,1,846.27,547l-.26.3c-18,20.36-47.23,32.51-78.09,32.51h-.41a100.23,100.23,0,0,1-11.88-1.12ZM491.25,520.89a67.06,67.06,0,0,1-2.78-13l.89.62c34.5,24.19,69.83,48.95,107.6,70.21a100.52,100.52,0,0,1-14.62,1.07A96.87,96.87,0,0,1,555.48,576l-.82-.22c-29.95-7.61-54.83-29.15-63.41-54.9ZM555.4,703.31c.82-.54,1.64-1.08,2.47-1.59-.09.26-.17.52-.26.78-.33,1-.68,2-1,3.11-.36-.79-.76-1.55-1.19-2.3Z"/><path d="M849.92,1152.61a117.62,117.62,0,0,1-12.79-.76c-18.46-2.09-32.43-13.36-35.65-28.73-.08-.39-.15-.78-.2-1.17a192.73,192.73,0,0,1-.88-24.27c0-2.53,0-5.06,0-7.58a13.5,13.5,0,0,1,13.5-13.61h.72a103.12,103.12,0,0,1-9.73-11,13.38,13.38,0,0,1-1.91-3.5c-3.46-9.52-3-19-2.53-27.27.13-2.36.24-4.6.26-6.68a13.76,13.76,0,0,1,.28-2.64c4.15-20,24.13-29.38,41.21-29.78,2.76-.27,5.53-.4,8.24-.4,21,0,36.64,8,43.95,22.39a15,15,0,0,1,.81,2c2.74,8.58,2.51,17,2.32,24.44-.09,3.28-.17,6.37,0,9.18a13.5,13.5,0,0,1-13.47,14.33h-.78c1.94,1.8,3.86,3.65,5.75,5.57,8.49,8.52,8.54,19.55,8.57,26.86,0,1.54,0,3,.09,4.2a10.3,10.3,0,0,1,0,1.24c0,1.23,0,2.57,0,4,0,8.28.09,19.61-8.34,29-.22.24-.44.47-.68.69C879.35,1148.05,866.3,1152.61,849.92,1152.61Z" style="fill:#fff"/><path d="M850.46,1008.67c12.41,0,26,3.39,31.9,15,3.09,9.7,1.09,20.32,1.71,30.35q-7.23,0-14.45,0H855.17c-.19-9.75.18-19.57-1.36-29.21l-9.41.16c-.83,8.47-3.63,18.14.6,26,10.74,11.28,23.52,20.49,34.45,31.6,5.86,5.86,4.31,14.92,4.78,22.41-.24,8.21,1.1,17.66-4.91,24.34-7.92,7.63-18.71,9.78-29.4,9.78a105.1,105.1,0,0,1-11.33-.68c-10.35-1.17-21.6-7.11-23.9-18.08-1.2-10.08-.69-20.25-.77-30.36h29c.18,10.39-.25,20.86.77,31.24,3.28,0,6.58.1,9.88.1h.69c-.26-10.1,4.52-22.68-4-30.52-11.13-11.53-24.82-20.64-34.51-33.5-3.36-9.23-1.54-19.64-1.46-29.22,2.66-12.81,16.86-18.92,28.78-19a71.64,71.64,0,0,1,7.45-.39m0-27h0c-3,0-6,.14-9.05.42a63.89,63.89,0,0,0-29.9,8.43c-12.52,7.32-20.94,18.72-23.72,32.09a27.39,27.39,0,0,0-.56,5.26c0,1.79-.12,3.88-.24,6.09-.48,9.14-1.07,20.5,3.33,32.6a26.59,26.59,0,0,0,3,5.93,27,27,0,0,0-6.44,17.71c0,2.39,0,4.82,0,7.39a203.71,203.71,0,0,0,1,26c.09.79.22,1.57.38,2.35a47.65,47.65,0,0,0,20.13,29.47,60.22,60.22,0,0,0,27.17,9.9h.11a131.79,131.79,0,0,0,14.25.84c20,0,36.19-5.83,48.13-17.33.46-.45.91-.91,1.34-1.39,11.93-13.26,11.85-28.8,11.81-38.08,0-1.31,0-2.54,0-3.53,0-.83,0-1.66,0-2.48s-.06-2.09-.07-3.43c0-6.65-.08-17.88-6.39-28.47a27,27,0,0,0,6.3-19.06c-.14-2.21-.06-5,0-8,.22-8.08.48-18.14-2.94-28.9a27.2,27.2,0,0,0-1.64-4c-5.66-11.18-15.16-19.71-27.47-24.69a76,76,0,0,0-28.52-5.11Z"/><path d="M301.93,1149.51q-6.51,0-13,0H273A13.5,13.5,0,0,1,259.5,1136q0-24.93,0-49.85v-44.68l-6.52,0A13.5,13.5,0,0,1,239.5,1028q0-8.52,0-17A13.5,13.5,0,0,1,253,997.51q17.27,0,34.52,0t34.52,0A13.5,13.5,0,0,1,335.5,1011v17a13.5,13.5,0,0,1-13.48,13.5l-6.52,0q0,21.85,0,43.7,0,25.43,0,50.83a13.5,13.5,0,0,1-13.5,13.49Z" style="fill:#fff"/><path d="M287.5,1011q17.25,0,34.5,0v17q-10,0-20,.07-.06,54,0,108-6.57,0-13.13,0H273q0-54,0-108-10,0-20-.07c0-5.67,0-11.31,0-17q17.25,0,34.5,0m0-27q-17.26,0-34.54,0a27,27,0,0,0-27,27q0,8.5,0,17a27,27,0,0,0,20,26v32.12q0,24.93,0,49.85a27,27,0,0,0,27,27h15.86q6.51,0,13,0H302a27,27,0,0,0,27-27q0-25.41,0-50.84c0-10.24,0-20.67,0-31.13A27,27,0,0,0,349,1028v-17a27,27,0,0,0-27-27q-17.28,0-34.54,0Z"/><path d="M358.94,1149.51q-6.51,0-13,0H330a13.5,13.5,0,0,1-13.5-13.5q0-62.51,0-125A13.5,13.5,0,0,1,330,997.49h29a13.39,13.39,0,0,1,6,1.41,13.43,13.43,0,0,1,6-1.42h29A13.51,13.51,0,0,1,413.5,1011q0,62.51,0,125a13.5,13.5,0,0,1-13.5,13.49h-.06q-6.51,0-13,0H371a13.52,13.52,0,0,1-6-1.4,13.51,13.51,0,0,1-6,1.41Z" style="fill:#fff"/><path d="M371,1011h29q0,62.51,0,125-6.57,0-13.14,0H371c0-20.34,0-40.67,0-61H359q0,30.49,0,61-6.57,0-13.14,0H330q0-62.51,0-125h29q0,23.49,0,47h12q0-23.52,0-47m0-27a26.91,26.91,0,0,0-6,.68,27,27,0,0,0-6-.67H330a27,27,0,0,0-27,27c0,37.39,0,78.29,0,125a27,27,0,0,0,27,27h15.86q6.51,0,13,0H359a26.91,26.91,0,0,0,6-.68,27.14,27.14,0,0,0,6,.67h15.85q6.51,0,13,0H400a27,27,0,0,0,27-27c0-37.39,0-78.29,0-125a27,27,0,0,0-27-27H371Z"/><path d="M442.83,1149.51l-30.83,0A13.5,13.5,0,0,1,398.51,1136q0-62.51,0-125A13.49,13.49,0,0,1,412,997.51l28,0,28,0A13.5,13.5,0,0,1,481.5,1011v16a13.5,13.5,0,0,1-13.48,13.5H455.5c0,1.34,0,2.67,0,4l12.55,0A13.5,13.5,0,0,1,481.5,1058v17a13.5,13.5,0,0,1-13.48,13.5H455.5c0,5.47,0,11.18,0,17l12.56,0A13.5,13.5,0,0,1,481.5,1119v17a13.5,13.5,0,0,1-13.48,13.5Z" style="fill:#fff"/><path d="M440,1011q14,0,28,0v16q-13,0-26,0,0,15.46,0,31,13,0,26,0v17q-13,0-26,0,0,22,0,44,13,0,26,0v17l-25.28,0L412,1136q0-62.49,0-125,14,0,28,0m0-27q-14,0-28,0a27,27,0,0,0-27,27c0,41.47,0,83.53,0,125a27,27,0,0,0,27,27l30.74,0,25.32,0a27,27,0,0,0,27-27v-17a27,27,0,0,0-11.37-22A27,27,0,0,0,495,1075v-17a26.86,26.86,0,0,0-4.9-15.52A26.86,26.86,0,0,0,495,1027v-16a27,27,0,0,0-27-27q-14,0-28,0Z"/><path d="M548.94,1149.51q-6.53,0-13,0H520a13.5,13.5,0,0,1-13.5-13.5q0-62.49,0-125A13.5,13.5,0,0,1,520,997.52h.52c1.81.07,3.74.1,5.89.1,3.46,0,6.92-.08,10.58-.17s7.48-.19,11.3-.19c10.4,0,22.72.61,35.19,5.08l.48.19c14.06,5.66,21.93,20.7,20.57,39.27-.11,2.39,0,5.16,0,8.09.32,12.08.74,28.63-12.62,40.32a13.69,13.69,0,0,1-1.13.88c-9,6.3-19.09,8.19-28.31,9v3q0,16.48,0,33a13.49,13.49,0,0,1-13.5,13.5Z" style="fill:#fff"/><path d="M548.29,1010.77c10.41,0,20.74.74,30.64,4.29,10.18,4.1,12.89,16,12.14,25.91-.67,12.88,3.13,29.34-8,39.09-9.83,6.91-22.59,6.59-34,7.31q0,24.32,0,48.64-6.57,0-13.13,0H520q0-62.49,0-125c2.13.08,4.27.11,6.41.11,7.26,0,14.58-.36,21.87-.36m.77,60.73a122.37,122.37,0,0,0,12.1-2.9q-.25-20.56-.07-41.11a109.67,109.67,0,0,0-12-2.17q-.12,23.09,0,46.18m-.77-87.73c-4,0-7.86.1-11.62.19-3.58.09-7,.17-10.25.17-2,0-3.74,0-5.38-.09l-1,0a27,27,0,0,0-27,27c0,37.38,0,78.27,0,125a27,27,0,0,0,27,27h15.86q6.51,0,13,0H549a27,27,0,0,0,27-27q0-12.13,0-24.25a61.1,61.1,0,0,0,22.59-9.61,27.34,27.34,0,0,0,2.25-1.77c18.13-15.87,17.57-37.75,17.23-50.83-.07-2.61-.13-5.08-.05-7a61.75,61.75,0,0,0-3.79-26.61A45.33,45.33,0,0,0,589,990c-.32-.12-.64-.25-1-.36-14.5-5.21-28.86-5.88-39.76-5.88Z"/><path d="M633.27,1152.64c-9.62,0-23.66-1.18-34.64-11.29-11.86-10.5-12-26.53-12.14-35.17v-.1c-.07-17.52,0-35.31,0-52.52,0-14,0-28.37,0-42.54A13.5,13.5,0,0,1,600,997.49h29a13.44,13.44,0,0,1,6,1.4,13.48,13.48,0,0,1,6-1.41h30a13.49,13.49,0,0,1,13.5,13.51q0,27.18,0,54.34,0,20.28,0,40.56c.23,13-2.82,23.79-9.06,32-.18.24-.36.47-.56.69-7.27,8.4-18.12,12.9-33.17,13.77C639.24,1152.51,636.33,1152.64,633.27,1152.64Z" style="fill:#fff"/><path d="M671,1011c0,31.68.06,63.35.06,95,.16,8.27-1.19,17-6.32,23.75-5.84,6.74-15.26,8.64-23.75,9.13-2.51.13-5.1.24-7.71.24-9.2,0-18.65-1.35-25.59-7.81-7.14-6.23-7.59-16.57-7.69-25.3-.12-31.68.08-63.36,0-95h29q.06,50-.12,100c-.12,3.52-.51,8.75,3.44,10.59a70.56,70.56,0,0,0,8.8-.91c-.24-36.58-.08-73.15-.11-109.72h30m-71-27a27,27,0,0,0-27,27c0,14.15,0,28.57,0,42.51,0,17.22-.07,35,0,52.58v.21c.12,10,.35,30.58,16.6,45,16.12,14.76,36.84,14.76,43.68,14.76,3.36,0,6.49-.14,9.11-.28h.16c18.61-1.08,33-7.27,42.6-18.41.38-.44.75-.9,1.11-1.37,8.09-10.68,12.06-24.24,11.8-40.3q0-20.27,0-40.52c0-17.78,0-36.17,0-54.24a27,27,0,0,0-27-27H641a26.75,26.75,0,0,0-6,.68,27,27,0,0,0-6-.67H600Z"/><path d="M748.22,1149.49l-21,0a13.5,13.5,0,0,1-11-5.81,13.77,13.77,0,0,1-1.59,1.91,13.48,13.48,0,0,1-9.55,4H682a13.5,13.5,0,0,1-13.5-13.5q0-62.51,0-125A13.5,13.5,0,0,1,682,997.5h16.78q12.12,0,24.24,0a13.48,13.48,0,0,1,8.45,3,13.41,13.41,0,0,1,8.52-3h22A13.5,13.5,0,0,1,775.49,1011q0,62.52,0,125a13.5,13.5,0,0,1-13.5,13.49Z" style="fill:#fff"/><path d="M698.73,1011q12.12,0,24.24,0c6.06,30.11,14.13,60.08,15.18,90.94l3,0c-1.27-30.33-1.24-60.68-1.09-91h22q0,62.51,0,125-17.38,0-34.76-.08c-4.92-22.91-10.61-45.64-15.68-68.52-2.25-10.4-2.89-21.2-6.54-31.26-1.15,10.93-.13,21.88-.07,32.84.22,22.33,0,44.66,0,67H682q0-62.51,0-125h16.72m0-27H682a27,27,0,0,0-27,27c0,37.38,0,78.28,0,125a27,27,0,0,0,27,27h23a26.87,26.87,0,0,0,11.18-2.43,26.81,26.81,0,0,0,11,2.37l20.9,0,13.88,0H762a27,27,0,0,0,27-27c0-41.49,0-83.56,0-125a27,27,0,0,0-27-27H740a26.76,26.76,0,0,0-8.53,1.39,27.08,27.08,0,0,0-8.37-1.36c-7.15,0-14.88,0-24.34,0Z"/><path d="M802.94,1149.51q-6.53,0-13,0H774a13.5,13.5,0,0,1-13.5-13.5q0-62.51,0-125A13.5,13.5,0,0,1,774,997.49h29a13.49,13.49,0,0,1,13.5,13.5v31.25q0,46.89,0,93.77a13.5,13.5,0,0,1-13.5,13.49Z" style="fill:#fff"/><path d="M774,1011h29q0,62.51,0,125-6.57,0-13.14,0H774q0-62.51,0-125m0-27a27,27,0,0,0-27,27c0,37.39,0,78.29,0,125a27,27,0,0,0,27,27h15.85q6.51,0,13,0H803a27,27,0,0,0,27-27q0-46.87,0-93.77V1011a27,27,0,0,0-27-27H774Z"/><path d="M964.94,1149.51q-6.53,0-13,0H936a13.52,13.52,0,0,1-6-1.4,13.51,13.51,0,0,1-6,1.41h-.06q-6.51,0-13,0H895a13.5,13.5,0,0,1-13.5-13.5q0-62.51,0-125A13.5,13.5,0,0,1,895,997.49h29a13.46,13.46,0,0,1,6,1.41,13.52,13.52,0,0,1,6-1.42h29A13.51,13.51,0,0,1,978.5,1011v31.25q0,46.89,0,93.77a13.5,13.5,0,0,1-13.5,13.49Z" style="fill:#fff"/><path d="M936,1011h29q0,62.51,0,125-6.57,0-13.14,0H936q0-30.51,0-61H924q0,30.49,0,61-6.59,0-13.15,0H895q0-62.51,0-125h29q0,23.49,0,47h12q0-23.52,0-47m0-27a26.91,26.91,0,0,0-6,.68,27,27,0,0,0-6-.67H895a27,27,0,0,0-27,27c0,37.39,0,78.29,0,125a27,27,0,0,0,27,27h15.85q6.52,0,13,0H924a26.91,26.91,0,0,0,6-.68,27.14,27.14,0,0,0,6,.67h15.85q6.51,0,13,0H965a27,27,0,0,0,27-27q0-46.87,0-93.77V1011a27,27,0,0,0-27-27H936Z"/><path d="M1007.83,1149.51l-30.83,0A13.5,13.5,0,0,1,963.51,1136q0-62.51,0-125A13.49,13.49,0,0,1,977,997.51l28,0,28,0A13.5,13.5,0,0,1,1046.5,1011c0,5.3,0,10.6,0,15.93a13.5,13.5,0,0,1-13.5,13.52h-13.5v4l12.55,0A13.51,13.51,0,0,1,1045.5,1058c0,5.63,0,11.26,0,16.92a13.5,13.5,0,0,1-13.48,13.52h-12.53v17l13.55,0A13.5,13.5,0,0,1,1046.5,1119q0,8.43,0,16.93a13.5,13.5,0,0,1-13.48,13.52Z" style="fill:#fff"/><path d="M1005,1011q14,0,28,0,0,8,0,16-13.51,0-27,0,0,15.46,0,31,13,0,26,0,0,8.46,0,17-13,0-26,0,0,22,0,44,13.47,0,27,0c0,5.63,0,11.3,0,17l-25.28,0L977,1136q0-62.49,0-125,14,0,28,0m0-27q-14,0-28,0a27,27,0,0,0-27,27c0,41.47,0,83.53,0,125a27,27,0,0,0,27,27l30.74,0,25.32,0a27,27,0,0,0,27-27q0-8.46,0-16.87a27,27,0,0,0-11.89-22.43,25.5,25.5,0,0,0,3-2.6,27,27,0,0,0,7.88-19.11c0-5.64,0-11.25,0-16.86a26.88,26.88,0,0,0-4.42-14.86,27,27,0,0,0,5.42-16.28c0-5.31,0-10.59,0-15.87a27,27,0,0,0-27-27q-14,0-28,0Z"/><path d="M1073,1149.51q-8.24,0-16.45,0H1043a13.5,13.5,0,0,1-13.5-13.49q0-62.51,0-125a13.5,13.5,0,0,1,13.5-13.49h.51c1.89.07,3.9.11,6.15.11,3.48,0,7-.09,10.64-.17s7.51-.18,11.34-.18c10,0,21.8.52,33.9,4.42a32,32,0,0,1,21.9,31.24c0,1,.09,1.94.14,2.92.47,9.12,1.1,21.34-6.73,31.64a24.9,24.9,0,0,1,5.53,11.77c.07.34.12.68.16,1a219.34,219.34,0,0,1,1,25.64c0,9.71,0,18.89,1.59,27.62a13.49,13.49,0,0,1-13.28,15.92h-29a13.46,13.46,0,0,1-6.93-1.92,13.48,13.48,0,0,1-7,1.94Z" style="fill:#fff"/><path d="M1071.65,1010.79c10.07,0,20.08.66,29.76,3.77a18.64,18.64,0,0,1,12.53,18.44c.33,9.34,2,20.31-5.1,27.85-5.52,4.38-12.82,5.17-19.33,7.41,8.46,2.9,21.45,2.46,23.63,13.61,2.09,17.94-.52,36.24,2.74,54.12h-29c-2.85-15.87-1.5-32-2-48-.17-3.84-2.78-7-4.38-10.28l-7.55.38c0,19.31,0,38.64,0,58q-8.26,0-16.52,0H1043q0-62.49,0-125,3.32.12,6.66.12c7.29,0,14.65-.35,22-.35m1.39,51.69c4-1,10.23.2,11.58-4.78,1.3-9,.62-18.29-.1-27.31-.78-5.2-8-4.07-11.47-5.08q-.1,18.57,0,37.17m-1.39-78.69c-4,0-7.88.09-11.65.18-3.61.09-7,.17-10.33.17-2.08,0-3.92,0-5.63-.1l-1,0a27,27,0,0,0-27,27c0,41.47,0,83.53,0,125a27,27,0,0,0,27,27h13.47q8.22,0,16.44,0h.08a26.82,26.82,0,0,0,7-.92,26.62,26.62,0,0,0,6.89.9h29a27,27,0,0,0,26.56-31.84c-1.37-7.53-1.37-16.12-1.37-25.2a229.89,229.89,0,0,0-1.11-27.2c-.08-.69-.19-1.38-.32-2.06a39.58,39.58,0,0,0-3-9.3c5.51-11.89,4.88-24.09,4.46-32.21,0-.81-.08-1.6-.12-2.39a45.56,45.56,0,0,0-31.23-43.92c-14-4.5-27.7-5.08-38.07-5.08Z"/><path d="M486.13,511.8a64.29,64.29,0,0,1,7.46,18c1.48,5.9,2.41,12,4.81,17.59,4.63,10.85,17,17.57,26.86,23.11,21.11,11.87,45.39,18.71,69.7,16.3,6.52-.65,8.41-9.7,1.6-11.79a136.88,136.88,0,0,1-26.92-11,41.43,41.43,0,0,1-10.7-8.08c-2.9-3.22-4.9-7.12-7.42-10.62-5.2-7.25-12.34-11.82-19.61-16.77l-26.32-17.94c-4.87-3.31-9.45,2.16-8.82,6.78,1.06,7.67,10.84,12.15,16,16.86,6.25,5.72,11.2,12.63,17.37,18.41s13.74,9.73,21.14,13.76l25.46,13.84c6.32,3.44,11.36-4.26,7.27-9.42-9.39-11.86-24.23-15.53-37.8-20.41-15.11-5.43-26.56-15.84-37.82-26.91-5-5-12.36,1.28-9.43,7.27a145.76,145.76,0,0,0,12.18,19.71c4,5.68,8,11,13.78,15,11.85,8.09,26.91,8.59,39.2,15.68,6.7,3.87,12.75-6.5,6-10.36-11.44-6.61-25.08-7.55-36.5-14-5.86-3.32-9.41-8.4-13.2-13.8a137.94,137.94,0,0,1-11.15-18.26l-9.42,7.27c11,10.78,22.41,21.42,36.75,27.51,13.38,5.68,29.34,7.77,38.88,19.81l7.27-9.42-22.07-12c-7-3.8-14.7-7.25-20.76-12.5s-10.49-11.7-16.11-17.17Q520,524.4,515.81,521c-2.17-1.74-7.08-4.11-7.47-6.92l-8.81,6.78,26.32,17.93c3.81,2.6,7.89,5,11.34,8.12,3.66,3.28,5.95,7.47,8.7,11.48C556.55,574,576,581.22,593.37,586.54L595,574.76c-22.33,2.21-44.22-3.74-63.65-14.67-9.22-5.18-20.25-10.75-23.29-21.53-3.25-11.49-5.23-22.44-11.53-32.82-4-6.59-14.38-.57-10.36,6.06Z"/><path d="M556.5,710.5c7.72,0,7.73-12,0-12s-7.73,12,0,12Z"/><path d="M759.32,582.79a173.71,173.71,0,0,0,68.48-27.25,175.67,175.67,0,0,0,28.14-23.48c8.1-8.37,19.93-19.55,19-32.19-.48-6.45-10-8.5-11.79-1.59a108.83,108.83,0,0,1-30.82,52.07,110.28,110.28,0,0,1-24.59,17.58,99,99,0,0,1-13.82,6c-4.64,1.6-10.71,4.29-15.58,2.66l2.65,10c13.48-11.14,31.15-15.34,45.41-25.25a59.57,59.57,0,0,0,17.23-18.32c4.27-7,7.67-15.22,15.63-18.75,6.14-2.73,1.68-13.56-4.63-11-17.17,7.07-34.69,14.36-48.37,27.32-5.9,5.59-10.91,12.65-18.09,16.72-6.95,3.94-15.58,3.5-21,10.13-3.36,4.11-.37,12.37,5.84,10,15.86-6,33.11-10.84,47.9-19.23,12.82-7.27,23.83-20.38,22.16-36-.56-5.25-8.34-9-11.18-3L816.32,552c-3.3,6.93,7,13,10.36,6l15.54-32.63-11.18-3c1.46,13.63-9.62,22.64-20.77,28-13,6.2-27,10.58-40.48,15.65l5.84,10c2.37-2.89,5.61-3.5,9.07-4.49A40.68,40.68,0,0,0,795.51,567c6.58-4.18,11.59-10.17,17-15.65,12.55-12.66,29.05-19.71,45.28-26.39l-4.62-11c-8,3.55-12.83,10.88-17.08,18.18-4.57,7.84-9.25,14.56-16.93,19.67-15,10-32.65,14.75-46.68,26.35-3.72,3.07-1.25,8.72,2.64,10,10.67,3.58,24.54-3.13,34.12-7.62a122,122,0,0,0,65.45-79.08l-11.78-1.6c.46,6.18-4.39,11.17-8.13,15.59q-5,6-10.65,11.44a161.3,161.3,0,0,1-26.33,20.84,165,165,0,0,1-61.69,23.48c-7.6,1.26-4.37,12.82,3.19,11.57Z"/><path d="M598.66,249.59c32.74-8.65,66.93-13.82,100.8-10.15,45.65,4.12,91,15.86,131.55,37.55,32.67,17.6,62.25,42.32,81.9,74.1,22.9,36.41,30.73,81,25.66,123.38-3.59,28.91-12,57-23.22,83.86-5,12-14.22,21.73-17.82,34.33-9.09,25-1.36,52-7.22,77.53-4.47,18.47-16.8,34.07-31.56,45.58-2.71,2.3-6.67.45-9.58,0-3.62-1-8.23-3.4-8-7.77.83-5.39,4.79-9.67,6.12-14.9a29.24,29.24,0,0,0-6.42-19c-7.08-6.9-17.86-5.58-26.48-2.86-12.63,4.82-24.15,12.06-35.27,19.63,1,13.33,2,27.1-2.1,40-3.19,12.52-9.94,23.71-16,35-3.55,5.85-3.71,13-4.58,19.54-4.56,49.17-9.59,98.3-14.37,147.46-.89,4.17-.3,9.24-3.37,12.68-6.11,6.36-14.79,9.11-22.77,12.31,1.08-66.29,3.8-132.54,5.19-198.83,5.61-4,12.06-8.18,13.83-15.36-9.66-2.86-19.83-2.83-29.8-3.13-2.29,72.67-3.83,145.37-6.5,218a208.61,208.61,0,0,1-24.57,2.46,440.08,440.08,0,0,1-.17-57.19c.94-52.31,5.54-104.58,3.86-156.91-.43-6.93-13.12-8.34-13.25-.69-1.84,57.42-3.95,114.85-5.85,172.28-.71,13.07-.28,26.23-2,39.24A199,199,0,0,1,634,956.3c.1-19.77.08-39.54-.92-59.29-.21-46.68-.11-93.35,0-140-.51-4.29.72-9-1.07-13-1.37-4.66-8-.75-11.1-2.16-3,25.93-1.36,52.12-2.77,78.16-.16,44.18-2.26,88.33-2.29,132.52-9.29-3.37-19.13-8.37-23.17-18-2.15-19.39-1.43-38.93-2-58.39-1.26-22.37-.15-44.79-1.32-67.16-.83-17,.19-34-.54-51-1.27-7.84-8.27-13.47-9.23-21.46-3.09-14.66,6.35-27.65,7.74-41.75-1.81-7.49-3.86-16-9.87-21.28-6.41-5.13-15.52-3.55-22.59-.73-16.72,7.43-30.26,20.06-43.5,32.37,6.64,4.33,13.69,7.92,20.66,11.67-2.43,2.87-5.55,6.19-9.7,5.67-10-1.54-16.24-11-25.45-14.21-7.24.94-12.83,6.92-19.08,10.18-11.29-10.84-20.38-25.38-20.48-41.47-.41-6.36,2.63-12,4.59-17.85,3-8.4-3.88-15.67-4.31-23.88,7.7-3,15.27-6.57,21.41-12.22-3.4-3.27-8.33-5.24-10.16-9.89-24-57.92-40-120.11-38.94-183.16.06-22.85-.06-46.65,8.91-68.12,9.36-22.52,26.59-40.57,45-56.07C517.57,279.19,557.55,261.47,598.66,249.59Zm-129,221c-6.06,1.23-7.75,8.69-8.28,13.92-1.15,15-.46,30.45,4.28,44.88C477.78,566,511.28,592.63,548,602c37.43,10.77,80.86,3.48,110.42-22.67-60.49-26.24-114-65.35-167.82-102.89C484.39,472.56,477.25,468.48,469.62,470.57Zm386.23,10.22c-51.41,36.43-103.47,72.83-161.28,98.54,19.7,17.75,46.17,26.64,72.42,27.5,36.76.24,74.55-13.75,99.23-41.61,21.34-23.39,30.83-57.17,23.7-88.16-1-4-5.11-6.39-8.93-7C871.32,469.55,863.34,475.57,855.85,480.79ZM654.38,622.1c-2.2,6.45-3.3,13.4-7,19.25-4.38,6.7-10.22,12.23-15.53,18.16,6.45,11.68,13.9,22.8,19.39,35,2.35-8.59,3.83-17.48,7.69-25.58,3.49-8.42,9.09-15.75,12.77-24.06,1.32-16.11-.42-32.3-1.21-48.41C664,604.25,657.07,612.13,654.38,622.1Zm27.13-20.71c-.46,15.34-2.55,30.76-.85,46.1,3.3,6.75,8,12.77,11.3,19.53,4.35,8.34,6.43,17.59,9,26.6,4.56-7.42,7.71-15.67,13.16-22.56,2-3.58,6.72-6.72,4.34-11.46-3.93-5.63-9.67-9.81-13.24-15.73-5.31-6.76-5.38-15.79-8.77-23.4C692.53,613.34,687.15,607.16,681.51,601.39Z" style="fill:#fff"/><path d="M814.23,1028.1c2.66-12.81,16.86-18.92,28.78-19,13.92-1.44,32.27.61,39.35,14.6,3.09,9.7,1.09,20.32,1.71,30.35q-14.46,0-28.9,0c-.19-9.75.18-19.57-1.36-29.21l-9.41.16c-.83,8.47-3.63,18.14.6,26,10.74,11.28,23.52,20.49,34.45,31.6,5.86,5.86,4.31,14.92,4.78,22.41-.24,8.21,1.1,17.66-4.91,24.34-10.77,10.37-26.83,10.61-40.73,9.1-10.35-1.17-21.6-7.11-23.9-18.08-1.2-10.08-.69-20.25-.77-30.36h29c.18,10.39-.25,20.86.77,31.24,3.51,0,7,.11,10.57.1-.26-10.1,4.52-22.68-4-30.52-11.13-11.53-24.82-20.64-34.51-33.5C812.33,1048.09,814.15,1037.68,814.23,1028.1Z" style="fill:#fff"/><path d="M253,1011q34.5,0,69,0v17q-10,0-20,.07-.06,54,0,108c-9.66,0-19.32,0-29,0q0-54,0-108-10,0-20-.07C253,1022.29,253,1016.65,253,1011Z" style="fill:#fff"/><path d="M330,1011h29q0,23.49,0,47,6,0,12,0,0-23.52,0-47h29q0,62.51,0,125c-9.67,0-19.33,0-29,0,0-20.34,0-40.67,0-61H359q0,30.49,0,61c-9.67,0-19.33,0-29,0Q330,1073.49,330,1011Z" style="fill:#fff"/><path d="M412,1011q28,0,56,0v16q-13,0-26,0,0,15.46,0,31,13,0,26,0v17q-13,0-26,0,0,22,0,44,13,0,26,0v17q-28,0-56,0Q412,1073.5,412,1011Z" style="fill:#fff"/><path d="M520,1011c19.6.75,40-2.74,58.92,4,10.18,4.1,12.89,16,12.14,25.91-.67,12.88,3.13,29.34-8,39.09-9.83,6.91-22.59,6.59-34,7.31q0,24.32,0,48.64c-9.66,0-19.32,0-29,0Q520,1073.51,520,1011Zm29,14.3q-.12,23.09,0,46.18a122.37,122.37,0,0,0,12.1-2.9q-.25-20.56-.07-41.11A109.67,109.67,0,0,0,549.05,1025.32Z" style="fill:#fff"/><path d="M600,1011h29q.06,50-.12,100c-.12,3.52-.51,8.75,3.44,10.59a70.56,70.56,0,0,0,8.8-.91c-.24-36.58-.08-73.15-.11-109.72h30c0,31.68.06,63.35.06,95,.16,8.27-1.19,17-6.32,23.75-5.84,6.74-15.26,8.64-23.75,9.13-11.34.59-24.39.73-33.3-7.57-7.14-6.23-7.59-16.57-7.69-25.3C599.87,1074.35,600.07,1042.67,600,1011Z" style="fill:#fff"/><path d="M682,1011q20.47,0,41,0c6.06,30.11,14.13,60.08,15.18,90.94l3,0c-1.27-30.33-1.24-60.68-1.09-91h22q0,62.51,0,125-17.38,0-34.76-.08c-4.92-22.91-10.61-45.64-15.68-68.52-2.25-10.4-2.89-21.2-6.54-31.26-1.15,10.93-.13,21.88-.07,32.84.22,22.33,0,44.66,0,67q-11.5,0-23,0Q682,1073.49,682,1011Z" style="fill:#fff"/><path d="M774,1011h29q0,62.51,0,125c-9.67,0-19.33,0-29,0Q774,1073.49,774,1011Z" style="fill:#fff"/><path d="M895,1011h29q0,23.49,0,47,6,0,12,0,0-23.52,0-47h29q0,62.51,0,125c-9.67,0-19.33,0-29,0q0-30.51,0-61H924q0,30.49,0,61c-9.68,0-19.34,0-29,0Q895,1073.49,895,1011Z" style="fill:#fff"/><path d="M977,1011q28,0,56,0,0,8,0,16-13.51,0-27,0,0,15.46,0,31,13,0,26,0,0,8.46,0,17-13,0-26,0,0,22,0,44,13.47,0,27,0c0,5.63,0,11.3,0,17q-28,0-56,0Q977,1073.5,977,1011Z" style="fill:#fff"/><path d="M1043,1011c19.42.74,39.54-2.53,58.4,3.54a18.64,18.64,0,0,1,12.53,18.44c.33,9.34,2,20.31-5.1,27.85-5.52,4.38-12.82,5.17-19.33,7.41,8.46,2.9,21.45,2.46,23.63,13.61,2.09,17.94-.52,36.24,2.74,54.12-9.67,0-19.32,0-29,0-2.85-15.87-1.5-32-2-48-.17-3.84-2.78-7-4.38-10.28l-7.55.38c0,19.31,0,38.64,0,58q-15,0-30,0Q1043,1073.51,1043,1011Zm30,14.29q-.1,18.57,0,37.17c4-1,10.23.2,11.58-4.78,1.3-9,.62-18.29-.1-27.31C1083.74,1025.19,1076.49,1026.32,1073.05,1025.31Z" style="fill:#fff"/></svg>