<svg xmlns="http://www.w3.org/2000/svg" viewBox="0 0 295.54 148.12"><path d="M182.97 24.93c1.2-.41.71.9.8 1.6h-1.2c-.18-.84.27-1.06.4-1.6zM178.16 32.98a2.62 2.62 0 0 1-2.01-.4c-.1-1.95 2.53-2.01 2.01.4zM190.74 39.42c1.31-.07 2.55 2.46.4 2.42.29-1.24-.41-1.47-.4-2.42zM187.42 74.45c.62 0 .88 2.98-.4 2.41-.3-1.23.41-1.47.4-2.41zM193.06 75.25c.71-1.07.29 2.36.4 3.22-.71 1.08-.3-2.36-.4-3.22zM153.6 87.73c2.55 1.33 6.67.32 8.86 2.42 5.16-.73 11.64-2.8 18.12-1.61-1.3 2.26-2.27.37-4.84.4-2.45.45-5.42 3.46-7.64 1.6-1.67.7-1.73 1.44-4.03.81-.73 1.28 2.87 1.69 3.22 3.22-1.24 1.37-4.32.83-5.23-.4-.05-.72.49-.85.4-1.6-1.97-2.6-7.76-1.37-8.86-4.84zM156.02 106.65c.8.67 1.87 1.08 2.01 2.42-1.7.05-.4 3.09-.8 4.43-1.07-1.62-1.07-4.3-1.21-6.85z" fill="#fff" fill-rule="evenodd"/><path d="M110.93 47.07c.9.22-.5.63.4 1.2a9.01 9.01 0 0 0 1.6-2c1.04-.02.5.3.41.8.78-.7 2.04-.91 2.82-1.61a14.41 14.41 0 0 0-1.2-2.82c.53-.52 1.2-.25 1.6.4.82-.77-2.41-1.7-.4-2.82.72.3.06.74 0 1.21 1.5-.37 3.36-.58 4.03.8 10.04-6.9 26.82-7.07 41.06-5.23.6-.34 4.47.98 7.25 3.22.03-.83.4-3.44 2.01-2.41.16 2.13-1.63-.18-1.2 2.01.47 1.09 2.1 0 2.81 0a12.15 12.15 0 0 0 8.05 6.04c.56.65.34 2.08 1.21 2.42.2-.84 3.42-1.47 4.03.4-2.05 3.99 5.33 7.4 5.23 13.28.1 1.04.7-.55 1.61 0 2.7 10.62-1.16 13.93-.8 24.56-.55 1.04-.39-1.99-.8-2.41-1.52 1.3-1.93 3.72-4.44 4.02.99-1.56 2.94-2.16 2.42-5.23-1.73 1.09-2.16 3.48-4.43 4.03.46-.89 1.35-1.34 1.61-2.42-.36.18-.72.35-.8.8.12-3.51 4.3-7.63 3.62-12.07-.37-1.36-.9-.05-1.61-.8.04-1.03.08-2.08 1.2-2.02-.49-.85-1.55-1.13-2.4-1.61-.3-1.24 1.1-.77.8-2.01-.8 1.7-1.62-2.45-3.63-.8-.3 1.5.5 1.92.4 3.21-2.19.12-.79 6.7-1.6 4.03.14-.69-.32-.76-.8-.8 0-.8 1.09-.52.8-1.62-3.62 1.36-8.02 1.92-9.67 5.24-3.54 1.56-7.97 2.22-8.05 7.24-.83-.1-.8-1.07-1.2-1.6-.84.1-.12 1.76-.81 2-1.09.28-.78-.83-1.21-1.2-1.44 1.15-1.98 1.18-2.42 2.82-3.49-1.41-3.7-7.82-2.81-11.28a5.94 5.94 0 0 0-2.82 7.25c-3.61.07-4.51-5.55-2.82-7.25a20.2 20.2 0 0 0-5.24-3.62c-.34 1.03 2.08 2.74 2.82 4.03-.7 1.88-1.17 4.23 0 5.63-1.1.77-1.5 2.25-2.41 3.22-.08.88.33 1.28 1.2 1.21-1.65 1.29-5.08.4-7.64.4-3.47-5.52-12.21-5.77-16.51-10.46-.97-.16.22 1.83-1.2 1.2.1-1.18-.92-1.23-.81-2.41-.45 1.75-1.56 2.45-1.62 3.62-1.37-.77-1.58-2.71-2-4.43-1.59.4.56 2.02-1.22 2.02.12-1.37.65-2.32.4-4.03-.85-.76-2.96-.26-3.62-1.2-.92-.13-.44 1.16-1.2 1.2-.36 1.3 1.04.83 1.2 1.61-1.25 4.7.41 9.36 1.61 12.88 10.53 6.21 28.6 5.23 37.85-.4a11.73 11.73 0 0 0 0 4.03c3.03 1.53 3.74 5.38 5.23 8.45-2.45-2.52-3.09-6.84-6.44-8.45 0 4.53-.1 8.18 2.42 10.87-2.15 1.2-2.33 4.36-1.21 6.84-.73.75-2.03.92-3.22 1.2-.4-.53-.38-1.49-1.21-1.6.09 2.6.9 7.94 1.2 11.67h-1.2c2.05 5.1.04 12.86.4 18.93-.84.5-2.06 1.84-3.22.8-.26 2.62.56 4.18 0 6.04-1.13-11.14-2.04-24.03-1.2-34.22a3.29 3.29 0 0 1-1.21-2.42c-1.56-.38-1.66 1.57-2.82.4.55 1.2.58 2.92-.4 3.63a2.84 2.84 0 0 0 1.2.8c-.46 3.96 3.85 23.74-.8 25.37 1.37 2.14-.83 7.06 0 11.27-1.62-7.08-1.72-14.53-2.42-21.33-.47-4.6-1.94-8.65-2.01-12.89-1.94-1.17-1.76-4.66-1.2-7.25.33-1.52-1.34-1.88-.41-2.82a7.72 7.72 0 0 0 4.43 0c1.91-1.9 1.43-3.7 1.6-7.24 1.17-1.45 7.83-6.67 4.03-4.43-.71-.3-.05-.73 0-1.2-5.27-.45-7.08 2.57-11.27 3.21-.3 1.24 1.1.78.8 2.02-.95.65-1.77 1.44-2.81 2.01.44 1.58 3.87.16 3.62 2.42-.85-.13-2.4-1.15-2.01.8-.83-.11-.8-1.07-1.21-1.61-.54.12-.33 1-.4 1.61a1.11 1.11 0 0 1-.8-1.2c-3.8.57-8.62 7.83-11.28 3.21-1.14.07-1.68.74-2.82.8 1.13 3.78 10.07 2.6 13.29.81-.57 3.54-6.28 2.19-6.44 4.03-2.01-.4-3.34-1.5-4.84-2.42-1.9.25-2.21 2.08-4.42 2.02-.17.97.73.87.4 2.01a1.11 1.11 0 0 1-.8-1.2c-.92.42-.16 2.52-.4 3.62-1.49-1.67-.6-3.94-1.22-5.64-.8-2.25-2.92-3.35-3.22-5.64-.32-2.48 1.91-4.12-.4-6.44a4.26 4.26 0 0 1 4.43-2.01c-1.22-3.93-5.85-5.62-4.43-13.69-.89.05-.17 1.7-.4 2.42-1.42-.87-.26-4.3-1.21-5.64-1.02 3.64.12 5 0 8.05-2.94-7.27-2.02-21.56 0-26.97.59-1.58 2.5-2.66-1.2-2.42-1.2-.82 2.66.02 2.81-.8-1.29-.28-.27-1.83-.8-2.02 1.61-1.12 3.08-.69 3.62 1.21.87-.47-.06-2.74 1.2-2.82a1.97 1.97 0 0 0-2-.8c.73-.88.9-2.32 2-2.82zm53.14-6.44c-1.34-.13 1.06-1.76-.4-2.02.39 1.47-1.81.34-1.61 1.61.5.09 1.97 1.17 2 .4zm-11.27 2.41c.12-.54.57-.77.4-1.6-.47-.07-1.14.06-1.2-.41.3-.09.79-.01.8-.4-1.89-.7-2.16 2.25-.8 2.41-.35-1.4.62-1.4.8-.4-.23 0-.46.33 0 .4zm-14.9 3.63c-1.09-.12-.72-1.7-1.6-2.02-1.07 1.45-.17 4.07 1.2 2.02 0 .22.32.45.4 0zm24.16.8c-1.38-.67 1.06-2.65-.8-2.82-.6 1.29-.25 3.65.8 2.82zm-39.46 5.24c-.37-.48-1.18-2.53-2.01-1.21 1.16.05.7 1.71 2.01 1.6 1.11.18.38-1.5 1.2-1.6a2.04 2.04 0 0 0 1.22 1.2c.4-.52.4-1.48.8-2h-1.6c-.4 1.12-1.69.42-1.62 2zm-.8 2a1.9 1.9 0 0 1 .4-1.2c-.95.01-1.19-.7-2.42-.4.14 1.07 1.06 1.36 2.02 1.6zm24.56 47.92a3.47 3.47 0 0 1 .8-4.03c1.89 1.71-1.09 2.8 0 4.43 3.24-2.25 1.38-9.8 1.2-14.5-3.34 2.78-8.87 12.72-2 14.1z" fill="#fff" fill-rule="evenodd"/><path d="M155.21 101.82c.28.44-.4 3.33-2.01 3.22-.51-1.04-.88-1.21-.4-2.41.85-.19.76.57.8 1.2.9-.31 1-1.4 1.61-2zM178.97 95.38c-.35.57-3.37 1.2-2.02 3.22 3.3-3.13 6.99.48 8.06 3.22 1.76.29 2.74-.2 3.22-1.2-.37-.92-2.45-3.02 0-3.23.18 3.23 2.08 6.7.8 10.07-.87.07-.18-1.43-.4-2.01-1.23.65.7 4.46-1.61 4.02a1.97 1.97 0 0 0 0-2.41.4.4 0 0 0 0 .8c-.69 1.53-.66-.87-1.2-.8-.58 1.49-1.9.76-3.23 2.01-2.52-4-8.33 1.62-10.87-1.61 2.77-.7 8.8-.6 10.06-4.03-.62-3.82-6-4.31-9.66-2.81.03-1.78-.03-3.47-1.2-4.03 3.08-.41 5.14-4.02 8.05-1.21zM152 111.48c2.56.74 2.83 3.26 2.81 6.85-.03 5.8-.87 14.04-.4 19.32-1.02.88-1.88.88-1.61 3.63-2.12-2.56-2.01-7.02-2.02-10.87 0-5.97-.17-12.26 1.21-18.93zM158.84 121.55c1.34-.08 1.86 2.75 2 4.03.46 3.9-.55 9.13-.8 13.28-1.13-.4.11-1.7 0-2.41-.14-.57-.7-.04-.8.4-.57-4.37.92-11.23-.4-15.3z" fill="#fff" fill-rule="evenodd"/><path d="M7.58 1.64v1.43H.04V1.64zM2.43 3.4H4.7v6.72H2.43z" fill="#fff"/><path d="M9.56 10.12H7.27V1.64h2.29zm2.28-8.48h2.31v8.48h-2.3v-3.7H9.95v-1.4h1.88zM17.08 1.64v8.48h-2.3V1.64zm-.19 0h3.53v1.43h-3.53zm0 3.36h3.35v1.42H16.9zm3.53 5.12h-3.53V8.66h3.53zM0 96.4c4.86-1.55 7.3-2.3 12.2-3.71l.23-81.97H0z" fill="#fff"/><path d="M21.19 1.62v9.1H14.7l-.02 6.07c1.73-.1 2.6-.13 4.33-.22a4.39 4.39 0 0 1 4.45 2.45c.9 1.73 1.35 4.47 1.33 8.24a16.08 16.08 0 0 1-1.48 7.45 5.46 5.46 0 0 1-4.4 3.05l-4.3.5-.05 15.07 4.3-.69c6.36-1 11.06-3.82 14.08-8.37 3.02-4.56 4.38-11.46 4.63-20.32.3-10.87-5.03-21.44-16.38-22.33zM64.6 1.4L64.06 61a11.82 11.82 0 0 1-1.46 6.37 7.37 7.37 0 0 1-4.12 3c-.04 5.19-.07 7.78-.1 12.97C71.18 80.8 77.3 69.3 77.06 56.97l.47-55.6c-5.18 0-7.77.01-12.95.03zM51.07 62.84l.5-61.4-12.8.05-.44 60.35c-.6 11.12 4.13 24.75 17.85 21.92l.11-13.04c-3.53.04-5.26-2.58-5.22-7.88zM93.76 33.4q3.51 9.74 7.07 19.46l3.83-2.64a6.53 6.53 0 0 1 1.23-.67l1.1-1.3a4.92 4.92 0 0 0 .31-.6l.06-.12q0-1.4.02-2.78Q100.58 26 93.96 7.2l-.2 26.2zM116 37.42l1.12.47a3.22 3.22 0 0 1 1.1.74 5.38 5.38 0 0 1 2.19.47l.43-.24.16-37.57-11.91.01-.26 44.15a4.27 4.27 0 0 1 1.06-.69l.8-.36.35.1.42-.74 1.21-.02-.79-1.64 1.08-1.05a3.3 3.3 0 0 1 .03-.44 3.46 3.46 0 0 1 1.95-2.6zM101.38 54.35a2.64 2.64 0 0 1 .07-.25 2.75 2.75 0 0 1 .27-.62l-.76-.27.42 1.14zM102.34 56.96l.26.68.11-.4-.07-.04a3.61 3.61 0 0 1-.3-.24zM80.13 78.16c4.7-.66 7.06-.96 11.78-1.5l.58-75.33-11.71.03-.65 76.8zM124.25 37.2A48.33 48.33 0 0 1 137.2 34l.05-32.72h-12.88l-.13 35.91zM161.52 34.94l3.04-.32c.1.69.17.82 1.94 1.6l.57.25a3.58 3.58 0 0 1 1.09-.97l-2.08-1.99q-1.94-1.86-3.91-3.67l-3.78-3.42c-1.2-1.07-2.27-1.94-3.05-2.62a6.08 6.08 0 0 1-1.87-4.75 8.43 8.43 0 0 1 1.1-4.78q1.1-1.59 4.2-2.04c0-4.9 0-7.34-.02-12.23-11-.04-18.73 8.3-17.86 18.7a24.4 24.4 0 0 0 6.46 14.8 118.14 118.14 0 0 1 14.23 1z" fill="#fff"/><path d="M167.3 20.98c5.08.06 7.62.1 12.7.2C180.38 9.83 173.89.15 161.86 0l.03 12.25q5.39 1.12 5.41 8.73zM208.08 1.34l.24 30.2c-4.15-.21-6.22-.31-10.36-.49l.08 12.46c4.16.25 6.23.39 10.38.68l.26 33.08c5.1.64 7.65 1 12.74 1.77l-.67-77.67-12.67-.03zM183 1.3l.12 21.07a2.87 2.87 0 0 1 1.6.87 3.56 3.56 0 0 1 .8 2.84l-.01.2.36 2.79h-2.71l.08 15.87h.11a4.45 4.45 0 0 1 4.46 2.95l.33 1-.48.95c-.3.58.5 1.73 1.78 3.4a17.59 17.59 0 0 1 3.44 6.24 3.38 3.38 0 0 1 .68.32l.89.53.26 1.01a28.98 28.98 0 0 1 .68 12.25 3.74 3.74 0 0 1 .62 2.25h.05l-.52-74.52L183 1.3zm6.89 43.07V39.3a.98.98 0 0 0-.4.11v-2.53a4 4 0 0 1 2.92 1.36 4.18 4.18 0 0 1 1.12 2.76 3.39 3.39 0 0 1-3.64 3.36zM255.12 1.48l-16.4-.06.12 13.56c6.55.23 9.83.35 16.38.62l-.1-14.12zM254.4 34.73a980.9 980.9 0 0 0-15.4-1.3l.1 13.45c6.17.67 9.26 1.04 15.4 1.83l-.1-13.98zM239.3 68.18l.1 13.96c6.55 1.25 9.82 1.94 16.33 3.42l-.1-14.55c-6.52-1.22-9.8-1.8-16.34-2.83zM224.2 1.38l.67 78.2c5.05.81 7.58 1.25 12.62 2.2l-.7-80.36-12.6-.04zM294.9 92.73q-.17-2.2-.17-4.94V67.04c-.01-10.74-7.16-20.06-7.1-20.4 0 0 4.44-2.34 5.55-5.63 1.12-3.3 1.6-8.16 1.67-14.28.16-12.09-4.72-25.56-19-25.16l-4-.01.08 14.78 4.32.22a4.94 4.94 0 0 1 4.48 2.96c.92 1.88 1.38 4.78 1.4 8.68 0 3.29-.47 5.76-1.42 7.4a4.1 4.1 0 0 1-4.37 2.13l-4.31-.48.07 14.68 4.3.67c3.78.6 5.68 4.8 5.7 12.6l.07 20.5a21.26 21.26 0 0 0 .9 6.91c5 1.45 7.5 2.2 12.47 3.79a16.27 16.27 0 0 1-.64-3.67zM257.12 1.5l.6 84.51c4.94 1.15 7.41 1.75 12.33 3.03l-.47-87.5-12.46-.05z" fill="#fff"/></svg>