<svg width="1840pt" height="458pt" viewBox="0 0 1840 458" xmlns="http://www.w3.org/2000/svg"><g fill="#010809"><path d="M49.4 193.5c7.6-2.7 15.6-3.3 23.6-4 21-1.2 42-.6 63 .1 9.8.5 19.6 1.2 29 4 6.1 1.9 12.2 5.2 15.3 11 1.6 3.3 4.9 5.3 6.5 8.6 1.8 3 2.5 6.3 3.3 9.6 2.1-9.6 4.3-19.3 6.3-29 .4-1.4.6-3.8 2.7-3.4 35.6 0 71.3-.3 107 .1 11 .3 23.3.8 32.3 8.2 3.9 2.9 5.5 7.7 9 11 2.4 2.5 3.8 5.8 5.3 9 1.8-8.9 3.7-17.8 5.7-26.6 0-2 2.2-1.7 3.5-1.8H402c1.4 0 2.9-.1 4.2.3 2.6 2.9 4.8 6.1 7.2 9.1L395.3 283H465c1.6 0 3.2-.2 4.7.3 1.1 1 2 2.3 3.1 3.5l16.5-75.9c1.6-6.7 2.6-13.5 4.5-20.2 1.7-.5 3.5-.3 5.2-.4l42.3.1 2.8 3.4c.8-1.3.9-4 3-3.4h65.5c2.6 3.4 5.4 6.7 7.6 10.4 13.3 23.6 26.2 47.3 39.5 70.8l16.4-74.6c.7-2.1.4-5 2.2-6.5 15-.4 29.8 0 44.8-.2 2.3-.3 3.3 2.3 4.7 3.8.6-1.6.8-4.1 3.1-3.7H879c2.2 0 4.3-.3 6.4.2 1.2 1 2 2.3 3 3.5.8-1.2.6-4 2.6-3.7 13.7-.2 27.3 0 41-.1 1.7 0 3.5-.1 5.2.3 1.8 1.9 3.3 4 5 6 .4-2 .5-4.1 1.5-6 1-.2 2.2-.3 3.3-.3h87c2.5-.4 3.7 2.2 5.2 3.7l1.1-3.6c35-.2 69.8 0 104.7 0 12.7.2 25.9-1 37.9 4 6 2.1 10 7.2 13.2 12.5a26.4 26.4 0 0 1 8 21 90 90 0 0 1-9.1 38c-3 6.1-8.5 10.5-14.4 13.4 1.6 3.8 5.9 5.7 7.2 9.8 2.6 6.8 1.2 14.4 0 21.5-1.6 7.2-2.9 14.5-4.6 21.6-1.3.6-2.8.3-4.2.4-13.9-.1-27.8.2-41.7-.1-3.3-2.2-5.8-5.6-8.8-8.2l4-22.6c-17-.3-34.1 0-51.1-.2-2.7-1.4-4.2-4.5-6.5-6.5l-7.8 37.5c-14.7.2-29.4 0-44.1.1-3 .6-4.5-2.2-6.3-3.8-.4 1.2-.8 2.5-1 3.8H879c-3.4-.1-6.8.4-10.2-.3-3-2.4-5.4-5.4-8.4-7.8 6-28.2 12.3-56.3 18.3-84.5h-49.5c-6.7 31-13.2 61.8-20.2 92.6h-42c-1.4 0-2.9.1-4.2-.3-3-2.3-5.4-5.2-8.4-7.6 5.7-28.3 12.3-56.4 18.2-84.7H731c-3 .5-4.7-2.5-6.7-4.1l-21 96.6c-22 .1-44 .2-66 0a40.9 40.9 0 0 1-9.3-8.5c-13.3-23.9-26.2-47.9-39.6-71.7-6 26.8-11.6 53.6-17.6 80.3h-46.3l-4.1-4-1 4h-46l-4.3-3.8c-.7 1.2-.3 3.9-2.2 3.8H338.3c-2.9-2.5-5.6-5.3-8.6-7.8 2.6-13.7 5.8-27.2 8.7-40.8a41.8 41.8 0 0 1-23.4 16.4c-11.8 2.9-24 2-36 2.2-13.9 0-27.8.2-41.7-.1-2.6-1.5-4.2-4.4-6.5-6.4-2.8 12.1-5.3 24.4-8.1 36.5h-46.3c-2.8-2.7-5.5-5.4-8.4-8l1.1-6.6c-3.4 3.4-6.9 6.6-11.1 8.9a57 57 0 0 1-26 6.5c-24.2 1.5-48.6.4-72.8-.3-8.8-.4-17.8-.5-26.2-3.3a27 27 0 0 1-12.2-7.6c-3-3.7-7.8-5.6-10-9.9-5-9-3.7-19.7-2-29.4.9-3.2.8-6.8 2.3-9.8 7-.5 14 .1 21-.3-2.8-2.9-6.6-4.6-8.8-8a30 30 0 0 1-4.2-18.9c.7-9.1 3-18.1 6.1-26.8a42.2 42.2 0 0 1 24.2-25.6m6.8 0A39.4 39.4 0 0 0 28 217.3a81.4 81.4 0 0 0-6.7 33.8c-.4 7.2 3.6 15.3 10.5 18.3 7 3.6 14.9 2.9 22.3 4.2l-1.7 1.3c-3.8 0-7.6.5-11.4.3-9.6-.4-19.1 0-28.7-.3-1.6 8.7-3.4 17.4-2.7 26.2.3 6.7 3.8 13.4 9.8 16.7 10.7 6.4 23.6 5.5 35.6 6.5 19.6.6 39.3.5 59 .4 7.4 0 14.8-.4 22-1.6 10.5-2 20.3-7.5 26.7-16.1a65 65 0 0 0 11.5-38c-.7-5.3-.2-11.2-3.8-15.7a20.6 20.6 0 0 0-12-8.8c-12.8-4-26.3-2.5-39.4-3.6-14.7-.4-29.4-1-44.1-1.3-2.9 0-5.9-.8-7.9-3 .7-2.8.9-6.2 3.5-8 3.2-2 7-2.5 10.5-2.8 10.3-.1 20.6-.2 31-.1 7.4.3 15-.8 22.2 2l1.1 3.7v5.2h-.7l-.3 3.6 2.3-.4h42c2.3-11.3 5.3-23.5.3-34.6h-.3c-3.6-6-10.4-8.9-17-10.4a178 178 0 0 0-36.5-3.5c-12.7-.1-25.4-1-38-.1a166 166 0 0 0-31 2.5m142.8-1.2c-.8 1.8-1 3.7-1.5 5.6-8.8 40.6-17.8 81.1-26.5 121.7v-.7c-.3 1.5-.5 3-.6 4.6 14.7-.2 29.4-.2 44.2 0 6.8-31 13.7-62 20.3-93h55.3c3.8 0 8.3 1 9.6 5-1 5.8-2 11.8-5.8 16.3-2.5 2.5-6.4 2.7-9.8 2.8h-45.3c-2.5 12.2-5.7 24.3-7.6 36.6l-1 2.1H289c12-.2 24.9-1.9 34-10.3 13-11.7 17.7-29.3 21.1-45.7.5-6.5 1.7-13 .6-19.4.2-4.5-.7-9-2.7-13l-.3.2c-7-10.7-21-12.4-32.8-12.6-36.7-.5-73.4-.2-110-.2m161.3-.1-28 128.7.1 2.6c42.4-.2 84.9-.2 127.3 0 1.9-6.5 3-13.2 4.6-19.8 1-6 3-11.8 3.6-17.8l1-.7c-26.6-.4-53.2 0-79.9-.2-1.6 0-3.8.1-4.7-1.7 1.7-2.5 2-5.6 2.5-8.4 6-27.3 12-54.7 17.8-82l.9-.6c-15-.2-30.1 0-45.2-.1m135 0-28 128.8.1 2.5c14.7-.2 29.4 0 44-.1 9.2-43.5 19.1-87 28.4-130.4l.9-.7c-15.1-.3-30.3 0-45.4-.1m51.3 0c-9.1 42.8-18.5 85.6-27.8 128.4h-.2l-.1 2.9c14.7-.2 29.5-.2 44.2 0 5.6-26.3 11.4-52.4 17.1-78.6.6-2.8.8-5.7 2.2-8.3 6 9.4 11 19.5 16.5 29.2 10.6 19.2 21.1 38.5 31.8 57.7 21.7-.3 43.4 0 65-.2 3.3-17 7.3-34 11-51l15.5-71.6c.6-2.4.9-4.8 1-7.3l1.5-.9c-15-.7-30.1 0-45.2-.3l-11 50.8c-2.9 11.8-4.9 23.9-8.2 35.6-2.2-3.7-4.7-7.2-6.5-11.1l-.5-.1-1-2.4a77.7 77.7 0 0 1-3.5-6.6h-.5l-.9-2.4a70 70 0 0 1-3.6-6.5l-.5-.1-1-2.4-3.4-6.2-1.6-2.8-3.4-6.2-1.7-2.8-1-1.9a70.3 70.3 0 0 0-3.9-7l-1-2a136.1 136.1 0 0 0-5-9l-2.5-4.6-.5-.1-1-2.4-1-1.8a116 116 0 0 1-4-8h-65.3m183.8 0-7.4 35.4v-.8l-.6 3.8h54.3c-.5 2-1 4-1.3 6.2-3.5 15.3-6.7 30.8-10.1 46.2-2.6 12.8-6 25.4-8 38.3l-1 2c14.8.1 29.7 0 44.5.2 6.2-27 11.8-54 17.8-81 .9-4 1.9-7.8 2.4-11.8 18.3-.2 36.7-.1 55-.1 1.8-9 4-17.7 5.7-26.6.8-3.6 1.9-7 2-10.7l1.3-1c-51.6-.2-103 0-154.6-.1m160.7 0c-9.3 43-18.8 85.8-28 128.8l.4 2.5c48-.2 96-.2 144 0 2.4-11.6 5.1-23 7.3-34.7l1-.6c-29.5-.3-59.1 0-88.7-.2-3.9 0-7.9.4-11.7-.4.2-4 1.2-7.8 2-11.7.4-1.4.1-3.3 1.5-4.3 31-.2 62 .2 93-.1 1.6-5 2.2-10.3 3.5-15.4 1-5.5 3.1-10.8 3.2-16.5.2-.3.6-1 .9-1.2-31-.1-62 .3-93-.2 0-1.4 0-2.9.2-4.2l9-41 1-.7c-15.3-.2-30.5 0-45.6 0m54 0c-2.3 10.9-4.8 21.8-7 32.9l.3 2.4h89c2-11.7 5.1-23.1 7.3-34.8l.8-.6h-90.5m96.6 0-16.8 81.2c-3.2 15.9-7 31.6-9.7 47.6l-.5.1v2.3h44l1.7-6.6c5.8-28.7 12-57.3 17.8-86 3-.5 6-.2 9-.2h53c2.8 0 6 .3 8 2.4 1.3 2.4.4 5.3.2 8-1 4-2.2 8.8-6 11-4.4 2.2-9.5 1.4-14.1 2h-45.6c-2.3 12.1-5.5 24-7.3 36.2-.4.7-.8 1.4-1 2.2h50.8c2.7.1 5.6-.2 8 1.4 2.1.9 1.2 3.6 1.7 5.5-.8 7.3-2.6 14.4-3.6 21.6l.2 2.6c14.7-.3 29.3 0 43.9-.2 1.2-9.8 4.5-19.4 5.3-29.3.3-5.8.7-12.2-3.2-17l.1.7a15 15 0 0 0-4.8-3.9l-2.6-1.8c1.9-2 4.7-2.7 6.9-4.2 10.1-6 13.6-18.3 16.4-29 2-11.3 4.7-24-1-34.8l.2 1c-3.3-6.2-10-9.6-16.5-11-10.9-2.3-22-1.7-33-1.8h-101.5m-105.2 44.2h6.8a35.4 35.4 0 0 0-5.4-6l-1.4 6m-857.7 1 53.9 1.9.3-4.1c-14.3-.7-28.6-.8-42.9-.3-3.8.3-8 .1-11.3 2.6m942.5-.7 6.9 9-7.9 35h-93.7l-1 5.2h88.7c2.6-.6 3.8 2.1 5.3 3.7 3.5-17.7 7.4-35.3 11-53l-9.3.1M243 240l-2.8 12.8H283c3-.1 6.4 0 9-1.8 3-2.8 4-7 5-10.8-18-.5-36 0-54-.2m843.3 0-2.5 12h47.2c3.5-.3 7.3 0 10.5-1.7 3.3-2.2 4-6.5 5-10-20-.6-40.1-.2-60.2-.3m-916.4 9c2.9 5.8 8.5 9.8 10.8 16 1.5-5.3 2.5-10.7 3.7-16h-14.5ZM1270 208.8a91.4 91.4 0 0 1 54-17.7h89.1c2.5-.4 3.6 2.3 5.1 3.7l1-3.7c16-.5 31.9-.2 47.9-.2l4.3 5.4 1.4-5.4h91.2c2-.2 2.5 2.8 4.5 2.9l.8-2.8c12.3-.4 24.5 0 36.8-.1 3.5 0 7.1-.4 10.6.2 2.6 2.8 4.8 6 7.3 9-5.7 27.6-11.7 55-17.2 82.7h71.2c2.8-.7 3.9 2.3 5.5 4 6.6-31.9 13.2-63.8 20-95.7 15.8-.5 31.7-.3 47.5 0 2.8 2.6 4.7 6 7.2 9-5.6 27.5-11.5 55-17.2 82.6h49c8.3.2 16.7-.4 25 .3 2.5 2.8 4.6 6 7 9l-8.5 40.5h-129.2l-4.2-3.8a115 115 0 0 0-.8 3.8c-42.5.2-85 0-127.4 0-2.7.3-4.3-2.4-6.3-3.7a124 124 0 0 0-1 3.8H1401c-3.2.5-4.7-2.8-6.7-4.6l-1 4.3H1302c-16-.2-33-5-44.3-17.1-5.7-4.9-11.7-10-14.3-17.3-2.7-6.3-2-13.4-.4-19.9l10-45a42.9 42.9 0 0 1 16.9-24.2m.6 2A41.2 41.2 0 0 0 1255 233l-7.1 32.5c-1.1 6.4-3.4 12.7-3.7 19.2l-.5-1c-1.1 7.8 1.9 15.7 6.9 21.7a52.7 52.7 0 0 0 29.4 16c6.2 1.6 12.7 1 19 1.2h86.4c1.7-8.6 3.8-17.2 5.6-25.7.6-2.8.6-6 2.7-8.2l-.9-1c2.6-1.8 3.5 1.3 4.8 3 3.7-18 7.7-35.7 11.5-53.6h-83c-5.4.3-12.8 2.5-13.5 8.7l-9 40.6h89.3c-1.4.8-3.2.6-4.8.7-3 0-6 1.2-9 1-6-.5-12 .4-18-.7-4.6-.7-9.2.8-13.9.6-12.3 0-24.6-.2-37 0-3.4.2-6.9-1.6-10.2 0-2.1-.4-3.9-1.8-5.6-3 .2-8.9 3.4-17.3 5-26 2-8.3 3.5-16.8 5.8-25 3.2-4.2 8.8-5.8 13.9-6.4h87.3c2.4-11.3 5-22.6 7.3-33.9l.9-.6H1326a89.2 89.2 0 0 0-55.4 17.5m122.3 110h-.3v2.8h143.9c2.3-11.5 5.5-23 7-34.6l1-1.1c-33-.3-66.1.3-99.1-.3 0-5 1.5-9.8 2.5-14.6.7-1.7 2.6-1.1 4-1.3h89.3c2-10.8 5-21.4 7.2-32.1l-.6.3 1.5-1.1c-22.8-.3-45.5 0-68.3-.1-8.3-.3-16.8.4-25-.4l-.6-1.5c1.6-3 1.9-6.5 2.6-9.8 1.5-5.9 2.6-11.9 4-17.8 1-5 2.8-10 2.8-15.2l1.5-1c-15.2-.2-30.4 0-45.6-.1-9.4 42.6-18.6 85.2-27.8 127.8m81.3-127.9c-2.4 11.2-4.8 22.3-7 33.5l.1 2.4c29.6-.3 59.3 0 88.9-.2 2.5-11.9 4.5-24 8-35.6h-90m96.3.2c-8.6 42.8-18 85.4-26.5 128.1l-.4.2v2.2l127.5-.1c2.1-12.6 5.6-25 7.4-37.6l.9-1c-26.1-.2-52.3-.1-78.4-.1-1.7-.2-3.9.4-5-1.3 1.8-3.5 1.8-7.7 2.8-11.5l10.4-49.5c1.8-9.5 4.4-19 5.5-28.6l1.3-1c-15.1 0-30.3-.3-45.5.2m134.5-.2c-9 42.8-18 85.5-26.8 128.2l.1 2.5h127c2.2-12.6 5.9-25 7.4-37.7l1.4-1c-27.6-.4-55.3.2-82.9-.3l-.8-1.6c.4-1 .8-2 1-3 5-23.4 10-47 14.8-70.4.8-5.3 2.6-10.4 2.7-15.7l1.3-1H1705m-237.6 38.8-1 5h5.7a137 137 0 0 0-4.7-5m83.8 6c2 2.9 4.2 5.7 6.4 8.4-3 11.7-5.5 23.5-8.3 35.2h-92.9l-1 4.6c30.1.1 60.3-.3 90.4.2l2.8 3.4c3.6-17.3 7.4-34.5 10.8-51.8h-8.2Z"/><path d="M56.9 273.6c18.6 1.1 37.4 1.6 56 2.8 5.3.3 10.6-.2 15.7 1.2l-.1 4.2c-.2 5-4.8 8-9.5 8H70c-4.9-.4-11 .8-14.5-3.4-.2-4.3.6-8.6 1.4-12.8m8.4 9.3-1 4.7c15.5.6 31.1.1 46.7.3 4.7-.2 9.9.8 14-2.1l-59.7-3ZM1495 346.3c23.5.3 47 0 70.5.2l8.2 8.5c-1 4.1-2 8.2-3.3 12.2a10 10 0 0 0 10.3-.8c-2.2 2.3-2.7 5.6-3.3 8.6l-4.7-5.3-2.6-1.6a186 186 0 0 0-2.1 8h-22.3c-6.8 27.3-12.9 54.7-19.9 81.9h-24.7a71 71 0 0 1-7.9-8.4c8.4-.4 16.8-.1 25.2-.2 6.8-27 13-54.2 19.7-81.2h19c1.1-.3 3.2.4 3.5-1.3 1.9-6.7 3.2-13.5 4.8-20.3h-28.6l-.4 2-38.8-.1-2.5-2.2Z"/><path d="M1575.8 346.5h42.5l7.8 7.8c-1.5 7.3-3.4 14.6-5.1 21.8h-8.5l-13 52.3 7.2 7.5-5.4 22.1h-41.5c-3.1-2.3-5.5-5.4-8-8.4 14-.3 27.9 0 41.9 0l5.3-21.3h-8.4c4.5-20 9.7-40 14-60l8.7-.2c1.8-7.1 3.5-14.3 4.9-21.5-14.2-.2-28.3 0-42.4-.1ZM1072.8 346l7.6 7.9-8.6 36-26 .1c-2.4-2.7-4.8-5.4-7.5-8h25.8l8.7-36ZM1164.4 346.3c2.7 2.5 5.2 5 7.7 7.7l-20.5 85.5c-.6 2.8-3.5 4-5.5 5.6-5.4 3.8-10.3 8.5-16 11.8-19.1.3-38.2 0-57.2 0l-7.6-8 54.7.1c3.8.3 6.3-2.8 9.2-4.8 4.5-3.8 9.7-6.9 14-11 2.3-5.5 3-11.6 4.6-17.4 5.8-23.1 11-46.4 16.6-69.5ZM1258.2 346.6c2.6 2.4 5.2 5 7.6 7.6l-24.7 103h-24.2c-2.6-2.6-5-5.2-7.4-8 7.5-.3 15 .2 22.6-.2 1.7.3 1.6-1.7 2.1-2.9 8.1-33.1 15.9-66.3 24-99.5ZM1298.4 346.5l7.6 7.6c-2.2 16.8-4.6 33.6-6.7 50.3a1945 1945 0 0 1-14.2 42.2c.6-8.6 2-17 3.2-25.6 3.4-24.8 6.8-49.6 10-74.5Z"/><path d="M1323.8 404.7c7.3-19.4 14.2-39 21.7-58.2l7.6 7.6c-12.7 34.4-25.7 68.6-38.4 103-13.9.3-27.8 0-41.7.1-1.5-.1-3.4.4-4.5-.8-2.4-2.4-4.5-5-7-7.3 15.2.1 30.3.2 45.4 0l16.8-44.4ZM1398.1 346.4c2.5 2.7 5.2 5.3 7.8 7.9l-5.2 21.5h-8.5c-4.3 17.7-8.8 35.3-12.9 53 2.4 2.2 4.8 4.6 7 7l-5.2 21.5c-14.1.1-28.3-.2-42.5 0-2.7-2.6-5.1-5.4-7.8-8.1l42.4.1c2-7 3.6-14.3 5.3-21.5-2.8 0-5.5-.2-8.3-.3 4.6-19.8 9.8-39.5 14.2-59.4l8.6-.3c1.8-7 3.4-14.3 5.1-21.4ZM1476 382.6c3.2-12 5.8-24 8.7-36.2 2.6 2.7 5.3 5.3 7.6 8.4l1.4-3.6.2 3.4-1.2.8c-1 4-2 8-3.3 11.9 2.3 1.2 5 .8 7.6.8h15a301 301 0 0 0-2 8h-12.7l-5.6-6.5-2.5-1.4-5.4 22.3H1458l-7-7.8c8.3-.4 16.6 0 25 0ZM1707.5 346.7l8 8c-7.3 29-13.8 58-21.2 86.9-4.3 4.3-9.7 7.4-14.3 11.3-2.8 1.9-5.3 5-9 4.8-5.6 0-11.1-.3-16.7.3h-37.5c-2.9-2.8-5.5-5.7-8.3-8.5 17.5.1 35 0 52.5.2 2.2-.1 4.6.2 6.5-1.2 4.8-3.4 9.4-7.3 14.3-10.8 2.3-1.8 5.3-3.3 5.7-6.5a6776 6776 0 0 0 20-84.5ZM1751.7 346.7c3 3.5 7.5 6.3 8.4 11.1l7.1 29.7c-.9 4.2-2 8.4-3.2 12.6-.2-5.5-2-10.7-3.2-16l-9.1-37.4ZM1801.3 346.8c2 2.2 4.3 4.3 6.4 6.5 1.2 1 1.3 2.4.8 3.8L1784.3 458h-23.8a94.2 94.2 0 0 1-8-8.3h24c8.6-34.3 16.9-68.5 24.8-102.9ZM1208.9 348l1.8.7c2.4 2.3 5.5 4.6 6 8.1l7.3 29.8c-.8 3.6-1.7 7.2-2.7 10.7-1.9-5-2.8-10.2-4.1-15.4-2.8-11.2-5.7-22.5-8.3-33.8ZM1021 367.7c6.8-.2 13.7-.2 20.5-.1l-1.6 7.7-11.3.1-.5 2.5a7681 7681 0 0 1-11.3 47l-.6 2.5h-9.4c4.6-20 9.7-39.8 14.2-59.7ZM1106.5 385c1.6-5.6 2.3-11.7 4.5-17.1 7.4-.6 15 0 22.4-.2a408 408 0 0 1-1.8 8.4c-4.5-.7-9-.5-13.4-.4-4 17.3-8.3 34.5-12.4 51.7h-9.3c3-14.2 6.8-28.2 10-42.3ZM1350.4 368h8.2l-1.6 6.7c-2.2-2.2-4.3-4.6-6.6-6.8ZM1433 368c7 0 13.8 0 20.7.2l-2 7.8c-3.5 0-7.2-.2-10.8.1-1.8 4.8-2.4 10-3.8 15-2.8 12-6 23.9-8.4 36 2.2 0 4.4.2 6.6.6l4.5-1.3v1.2c-6.9 1.1-13.9-.2-20.9.1 4.6-20 9.6-39.7 14.2-59.7Z"/><path d="M1654 368.4a343 343 0 0 1 22.7 0l-1.9 7.9h-13.3L1649 428c-3.2.2-6.4.3-9.6.2 3.1-13.8 6.6-27.6 9.9-41.4 1.6-6.1 2.6-12.5 4.6-18.5ZM1082.8 376v.4c.4 2.9.9 5.8.2 8.7-1.8 8-4.1 15.9-6.3 23.8l-.5-4.8c1.7-9.5 4.4-18.7 6.6-28ZM1739.2 392.2c2 8.1 4 16.3 5.5 24.5l-1.5-3.3c-3 15-6.9 29.8-10.5 44.6h-23.5a98.4 98.4 0 0 1-7.7-8.3c8 0 15.9.1 23.8-.1l13.9-57.4ZM1195.7 392.8c2.6 6 3.2 12.8 4.9 19.1-4 15-7.3 30-11 45-8 .3-16.2.2-24.3 0-2.3-2.5-4.6-5-6.8-7.7 7.8-.1 15.6-.5 23.5-.3 4.7-18.7 9-37.5 13.7-56.1ZM1052.3 431.4c1.6-5.9 2.8-11.8 4.3-17.7l7.5 7.5c-1.1 6-2.7 11.8-4.1 17.7-.4 3.2-3.7 4.4-5.8 6.3-5.4 3.7-10.3 8.4-16 11.6-18.3.2-36.6 0-55 0l-6.9-7.7c17-.3 33.8-.2 50.7 0 2-.1 4.1 0 5.7-1.4 5-3.7 9.8-7.6 14.8-11.2 1.8-1.5 4.2-2.7 4.8-5.1ZM1464.4 431.6c1.5-5.7 2.7-11.5 4.2-17.2 2.7 2.4 5.1 5 7.7 7.5l-4.8 19.7-19.2 14.6c-1.8 1.5-4.2 1.1-6.3 1.3-17-.2-33.9 0-50.8-.3-2.4-2.7-4.8-5.4-7.4-8 11 .3 22.1 0 33.2.2 7.3-.2 14.7.5 22-.3 5.3-3.1 9.8-7.5 15-11 2.3-2 5.5-3.3 6.4-6.5Z"/></g><g fill="#fff"><path d="M56.2 193.6A166 166 0 0 1 87 191c12.7-.9 25.4 0 38.1.1 12.2.3 24.6.7 36.5 3.5 6.6 1.5 13.4 4.5 17 10.5l-2.2.7c.3 4.4 2 8.6 1.8 13.1-.3 5.8-1.8 11.5-3 17.2-13 .1-26-.2-39.1.2l.5 3.3c-.6 0-1.7.3-2.3.4l.3-3.5.8-.1v-5.2l2.4.6c-.2-2.7.9-6.9-2.5-8.1-6.6-1.7-13.5-1.2-20.3-1.6-12.6 0-25.3-.4-38 .4-3.9.5-8.6.8-11.2 4.3-2.4 3.7-2.1 8.5-1.1 12.6l2.3-3c2 2.3 5 3 7.9 3 14.7.3 29.4 1 44.1 1.3 13.1 1.1 26.6-.4 39.3 3.5 5 1.5 9.5 4.5 12.1 9v.7c-2.4 4 .5 8.6.4 13 .1 12.9-3.6 26.1-11.3 36.6a43.3 43.3 0 0 1-30.3 16.6c-24 2.2-48.1 1-72.2.4-12.3-.6-25.7 0-36.4-7.2-4.7-3-7-8.3-8-13.5l-3 1.1c-.7-8.8 1-17.5 2.7-26.2 9.6.2 19.1 0 28.7.3 3.8.2 7.6-.2 11.4-.3h1.2a24.3 24.3 0 0 0-.7 14.3l2.6-2.7c3.5 4.3 9.6 3 14.5 3.4h49c4.7 0 9.3-3 9.5-8l3.3-1.5c-.2-1.8-.3-3.5-.7-5.2-1-1.7-3.4-1.4-5-1.7l-59-2.8c-8.1-.3-16.2-.8-24.2-2a23.1 23.1 0 0 1-14.3-7.2c-3.2-3.7-3.8-8.7-5.4-13.1l-1.9 2.7c-.6-11.6 2.5-23 6.7-33.8a39.4 39.4 0 0 1 28.2-23.6ZM198.8 192.4c36.7 0 73.4-.3 110.1.2 11.8.2 25.8 1.9 32.8 12.6l-2.3 1.4c3 9.2 3 19 1.2 28.5-2 10.3-4.8 20.6-9.6 30a44 44 0 0 1-17 19c-7.8 4.5-17 5.6-26 5.7h-45c-4 0-8.2-.5-11.8 1.5 2-12.3 5.1-24.4 7.6-36.6H284c3.4-.1 7.3-.3 9.8-2.8a33.1 33.1 0 0 0 5.8-16.2l3-.2c-.8-2.3-.5-5.8-3.2-6.9-3-1-6.3-1-9.5-1.1h-53c-1.6 0-3.3-.1-5 .4-1.3 2.4-1.5 5.4-2.2 8-6.1 28-12.2 56-18.5 84l-31.3-.1c-3 0-6 .3-9 .9l-.1-1c8.7-40.6 17.7-81.1 26.5-121.7.5-1.9.8-3.8 1.4-5.6ZM360.2 192.3h45.2l-.9.7-4.5 3-16 73.9c-1.2 5.5-3 11-2.2 16.7.9-1 1.7-2 2.4-3.2 1 1.8 3 1.6 4.7 1.7 26.7.2 53.3-.2 80 .2l-1.1.7-4.3 2.5-6.7 31.3H339c-2.3 0-4.5.6-6.7 1.2l28-128.7ZM495.2 192.3c15.2.2 30.3-.2 45.4.1l-1 .7c-1.3 1-2.8 1.8-4.2 2.6-6 26.1-11.5 52.3-17.3 78.4-3.5 15.1-6.4 30.5-10.2 45.6-11.3.4-22.6 0-34 .1-2.2 0-4.5.6-6.7 1.3l28-128.8ZM546.5 192.3h65.2a116 116 0 0 0 4 8l1.2 1.8.9 2.4h.5l2.4 4.7 1 2c1.5 2.3 2.8 4.6 4 7l1.1 2a366.8 366.8 0 0 0 4 7l1 2 1.6 2.7 3.4 6.2 1.6 2.8c1.1 2 2.2 4.2 3.5 6.2l.9 2.4h.5a70 70 0 0 0 3.6 6.6l.9 2.4h.5c1.1 2.3 2.3 4.5 3.6 6.6l.9 2.4h.5c1.8 4 4.3 7.5 6.5 11.2 3.3-11.7 5.3-23.8 8.1-35.6l11.1-50.8c15 .2 30.2-.4 45.2.3l-1.4 1-4 2.3c-8.9 41.3-18 82.6-26.8 123.9h-59.5c-15.5-28.6-31.3-57-47-85.5h-7.3c-6.5 28.4-12.3 57-18.8 85.6l-30.4-.1c-3.5 0-6.9.3-10.3.9l27.8-128.3ZM730.3 192.3h154.6l-1.4 1c-1.3 1-2.6 1.8-4 2.5-2.4 10.4-4.3 21-6.9 31.3-1.4.6-3 .3-4.6.4h-47.9c-2-.3-2.7 1.9-3 3.5l-19.3 88.8H764a13 13 0 0 0-6.8 1.6c2-12.9 5.4-25.5 8-38.3 3.4-15.4 6.6-30.9 10.1-46.3l.6-1.9 2.5-.7c.4-2.2.8-4.4.5-6.7H731c-2.8-.1-5.6.2-8.3.7v-.5l7.5-35.4ZM891 192.3c15.1.1 30.3-.1 45.5.1l-.9.6-4.3 2.8c-2.1 8.3-3.8 16.7-5.7 25-1.3 6.3-3.4 12.5-3 19 1.2-.6 2.4-1.3 3.7-1.5h.2c31 .5 62 0 92.9.2l-1 1.2c-1.5 1.3-4 2-4.2 4.3-1.9 8-3.6 16.1-5.4 24.1-31.2.3-62.3-.3-93.5.3-1.8 7-4 14.2-3.5 21.5l2.3-2.4 1.2.2c3.8.8 7.8.3 11.7.4 29.6.1 59.2-.1 88.7.2l-1 .6-4.3 2.8c-2.1 9.3-4 18.7-6 28.1H870c-2.4 0-4.7.6-7 1.3 9.2-43 18.7-85.8 28-128.8Z"/><path d="M945 192.3h90.4l-.9.6c-2 1.5-4.8 2.7-5 5.5-1.8 8.6-3.8 17.2-5.5 25.8h-71c-5 0-10.1-.6-15 1 2.2-11 4.7-21.9 7-32.9ZM1041.5 192.3H1143c11 .1 22.2-.5 33 1.8 6.7 1.4 13.3 4.8 16.6 11l.3.6-2.6-.3c.6 4.9 2.4 9.7 2 14.6a82.3 82.3 0 0 1-9.6 35.7c-3.3 6-9.4 9.7-15.4 12.5l.1 6.7 3.8-1.4c.4 0 1.1.3 1.5.4a15 15 0 0 1 4.8 4l.5 2.8-2-.2c2.4 7 1.1 14.4-.4 21.4-1.2 6-2.5 11.9-3.6 17.9H1138c-2.3 0-4.6.5-6.9 1.2 1-7.2 2.8-14.3 3.6-21.6l2.9.1c0-3.5.8-9.2-4-9.7-14.5-1.8-29-.7-43.6-1-5 .3-10.3-1-14.8 1.5 1.8-12.1 5-24 7.3-36.2h45.6c4.6-.6 9.7.2 14-2 4-2.2 5-7 6-11 .3-.7.6-2 .7-2.8l2.7.1c.1-3.3 1.1-7.7-2.3-9.7-3.2-1.3-6.8-1.1-10.2-1.2H1077c-2-.4-2.6 1.9-3 3.4l-18.4 89h-25.8c-5 0-10.1-.6-14.9 1.2 2.8-16 6.5-31.7 9.7-47.6 5.6-27 11.3-54.1 16.8-81.2ZM1270.6 210.7c15.8-12 35.7-18 55.5-17.6l88.4.1-.9.6c-1.8 1.4-4.5 2.3-4.9 4.8-2 8.6-3.8 17.2-5.7 25.9h-84c-5.6 0-11.4 1.1-15.6 4.8-1.8 1.4-2.2 3.8-2.7 6l-9.5 42.6c-.8 3-.7 6.2.2 9.1l2.9-1.9c1.7 1.2 3.5 2.6 5.6 3h1c9.6.9 19.4.2 29.1.4h63.1c-2 1.8-5.2 3-5.6 5.9l-5.5 25.4h-82c-12 0-24.2-1.9-34.7-8a35.3 35.3 0 0 1-18.2-21.4h-2.5l-.5-5.6c.3-6.5 2.6-12.8 3.7-19.2l7.1-32.5a41.2 41.2 0 0 1 15.7-22.4ZM1392.9 320.6c9.2-42.6 18.4-85.2 27.8-127.8h45.6l-1.5 1.1c-1.6 1.3-4 2.2-4.3 4.5l-5.8 26c-1.1 5.3-2.8 10.5-2 16 1-1.2 2-2.4 2.7-3.7l.5 1.5c8.3.8 16.8.1 25.1.4 22.8 0 45.5-.2 68.3 0l-1.5 1.2c-1.6 1.2-4 2-4.3 4.3-2 8.1-3.8 16.2-5.6 24.4h-88c-1.7.3-4.7-.3-5.3 2-1.5 6-3.3 12.4-2.8 18.8l2.2-2 1.4.2c33 .6 66 0 99 .3l-.9 1c-1.3 1-2.7 1.8-4 2.6l-6 28.4H1412c-6.4 0-12.8-.4-19.1.8Z"/><path d="M1474.2 192.8h90c-2.2 2-5.5 3.1-5.8 6.4l-5.5 25.6h-79c-2.3 0-4.6.6-6.8 1.4l7.1-33.4ZM1570.5 193c15.2-.5 30.4-.2 45.5-.1l-1.3 1-4 2.7-15.4 73.3c-1 5.5-3 11-1.7 16.7l2.4-3.2c1.1 1.7 3.3 1.1 5 1.3h78.4l-1 1.1c-1.2 1-2.6 1.7-4 2.5l-6.5 31.5H1550c-2 0-4 .6-6 1.3 8.5-42.7 17.9-85.3 26.5-128ZM1705 192.8h45.2l-1.3 1c-1.5 1.3-4 2.2-4.3 4.5l-14.7 70.5c-1.1 5.8-3 11.6-2.3 17.6 1-1.2 2-2.3 2.8-3.5l.8 1.6c27.6.5 55.3-.1 82.9.3l-1.4 1c-1.3 1-2.7 1.8-4 2.7l-6.5 31.3H1693c-5 0-10-.6-14.8 1.2l26.8-128.2Z"/></g><g fill="#a4283e"><path d="m400 196 4.5-3c-5.9 27.3-11.7 54.7-17.8 82-.5 2.8-.8 6-2.5 8.4-.7 1.1-1.5 2.2-2.4 3.2-.9-5.7 1-11.2 2.2-16.7l16-73.8ZM535.4 195.7l4.3-2.6c-9.3 43.5-19.2 86.9-28.4 130.4h-44v-2.4c2.1-.7 4.4-1.3 6.7-1.3 11.3-.1 22.6.3 34-.1 3.7-15.1 6.6-30.4 10.1-45.6 5.8-26.1 11.3-52.3 17.3-78.4ZM931.3 195.8l4.4-2.8-9.1 41c-.3 1.4-.3 2.9-.1 4.3h-.2c-1.3.2-2.5.9-3.7 1.4-.4-6.4 1.7-12.6 3-18.8 2-8.4 3.6-16.8 5.7-25.2ZM1029.5 198.4c.2-2.8 3-4 5-5.5-2 11.7-5.2 23-7.3 34.7-29.6.2-59.3 0-89 .1l-.2-2.4c4.9-1.7 10-1 15-1.1h71c1.7-8.6 3.7-17.2 5.5-25.8ZM1564.1 192.8c-3.4 11.7-5.4 23.7-8 35.6-29.5.3-59.2 0-88.8.2l-.2-2.4c2.2-.8 4.5-1.4 6.9-1.4h78.9l5.5-25.6c.3-3.3 3.6-4.5 5.7-6.4ZM718.8 195.9l4-2.4c-.2 2.5-.5 5-1.1 7.3L706 272.4c-3.6 17-7.6 34-10.9 51-21.6.2-43.3 0-65 .2-10.7-19.2-21.2-38.5-31.8-57.7-5.6-9.7-10.5-19.8-16.5-29.2-1.4 2.6-1.6 5.5-2.2 8.3-5.7 26.2-11.5 52.4-17 78.6-14.8-.2-29.6-.2-44.3 0v-2.9h.3c3.4-.6 6.8-1 10.3-1 10.1.2 20.3 0 30.4.2 6.5-28.5 12.3-57.1 18.8-85.6h7.3c15.7 28.4 31.5 56.9 47 85.4 19.9.2 39.7.1 59.5 0 8.8-41.2 18-82.5 26.8-123.8ZM879.6 195.8l4-2.4c-.1 3.6-1.2 7.1-2 10.7-1.8 8.9-4 17.7-5.6 26.6h-55.1c-.5 4-1.5 8-2.4 12-6 26.9-11.6 54-17.8 80.9-14.8-.2-29.7 0-44.6-.1l1-2.1a13 13 0 0 1 6.9-1.6h33.8l19.3-88.8c.3-1.6 1-3.8 3-3.5H868c1.5 0 3.2.2 4.6-.4 2.6-10.3 4.5-20.9 7-31.3ZM1408.7 198.6c.4-2.5 3.1-3.4 4.9-4.8-2.3 11.3-5 22.5-7.3 33.9H1319c-5 .6-10.7 2.3-14 6.4-2.2 8.2-3.7 16.7-5.7 25-1.6 8.7-4.8 17.1-5 26l-2.9 2c-1-3-1-6.2-.2-9.2l9.5-42.7c.5-2 .9-4.5 2.7-6 4.2-3.6 10-4.7 15.5-4.7h84.1c1.9-8.7 3.7-17.3 5.7-25.9ZM1460.5 198.4c.3-2.3 2.7-3.2 4.3-4.5 0 5.2-1.8 10.2-2.8 15.2-1.4 6-2.5 12-4 17.8-.7 3.3-1 6.8-2.6 9.8-.7 1.3-1.7 2.5-2.6 3.6-.9-5.4.8-10.6 2-15.8l5.7-26.1ZM1610.6 196.6l4.1-2.8c-1 9.7-3.7 19-5.5 28.6l-10.4 49.5c-1 3.8-1 8-2.8 11.5l-2.4 3.2c-1.2-5.7.7-11.2 1.8-16.7l15.2-73.3ZM1744.6 198.3c.3-2.3 2.8-3.2 4.3-4.5-.1 5.3-2 10.4-2.8 15.7l-14.7 70.5-1 2.9c-.8 1.2-1.8 2.3-2.8 3.5-.8-6 1.2-11.8 2.3-17.6l14.7-70.5ZM1192.5 205l-.3-.9c5.8 10.8 3 23.5 1 34.8-2.7 10.7-6.2 23-16.3 29-2.2 1.6-5 2.2-6.9 4.2l2.6 1.8c-.4 0-1.1-.3-1.5-.4l-3.8 1.4-.1-6.7c6-2.8 12.1-6.5 15.4-12.5a82.3 82.3 0 0 0 9.5-35.7c.5-5-1.3-9.7-1.9-14.6l2.6.3-.3-.6ZM176.4 205.9l2.2-.7.3-.1c5 11 2 23.3-.4 34.6h-41.9l-.5-3.3c13-.4 26.1 0 39.2-.2 1.1-5.7 2.6-11.3 2.9-17.2.2-4.5-1.5-8.7-1.8-13.1ZM339.4 206.6l2.3-1.4.3-.1c2 4 2.9 8.4 2.7 13 1.1 6.3 0 12.8-.6 19.3-3.4 16.4-8.2 34-21 45.7-9.2 8.4-22.2 10-34.1 10.4H230l1-2.2c3.7-2 8-1.4 11.9-1.5h45c9 0 18.2-1.2 26-5.8a44 44 0 0 0 17-19c4.9-9.3 7.7-19.6 9.6-30a56.6 56.6 0 0 0-1.2-28.4ZM77 222.6c12.7-.8 25.4-.3 38-.4 6.8.4 13.7-.1 20.3 1.6 3.4 1.2 2.3 5.4 2.5 8.1l-2.5-.6-1.1-3.6c-7.1-2.9-14.8-1.8-22.3-2.1H81c-3.6.4-7.3 1-10.5 2.8-2.6 1.9-2.8 5.3-3.5 8.1l-2.3 3c-1-4.1-1.4-9 1.1-12.6 2.6-3.6 7.3-3.8 11.2-4.3Z"/><path d="M232 227.9c1.7-.5 3.4-.4 5-.5l53 .1c3.2.1 6.4 0 9.5 1.1 2.7 1.2 2.4 4.6 3.2 7h-3c-1.3-4-5.8-5-9.6-5h-55.3l-20.3 93c-14.8-.2-29.5-.2-44.2 0l.5-4.6v.7l.2 1c3-.6 6-1 9-1 10.5.2 21 0 31.3.1 6.3-27.9 12.4-55.9 18.5-83.8.7-2.7.8-5.7 2.3-8.1ZM723 227l-.1.7v.5c2.6-.5 5.4-.8 8.2-.8 15.9.2 31.9 0 47.8.1a20 20 0 0 1-.5 6.7l-2.5.7-.6 2c.2-2.2.8-4.2 1.3-6.3l-54.3.1.7-3.8ZM1074.1 231c.4-1.6 1-3.9 3-3.5h61.9c3.4 0 7-.1 10.2 1.2 3.4 2 2.4 6.4 2.3 9.7h-2.7l-.6 2.7c.2-2.7 1.1-5.6-.2-8-2-2-5.2-2.4-8-2.5h-53c-3 .1-6-.2-9 .3-5.8 28.7-12 57.3-17.8 86-.5 2.3-1 4.5-1.7 6.7-14.7-.2-29.4-.1-44 0v-2.4l.5-.1c4.8-1.8 10-1.2 15-1.3h25.7L1074 231ZM1014.2 244c.1-2.4 2.7-3 4.3-4.3 0 5.7-2.3 11-3.2 16.6-1.3 5-2 10.4-3.6 15.3-31 .3-62-.1-93 .1-1.3 1-1 2.9-1.5 4.3-.7 3.9-1.7 7.7-2 11.7l-1-.2-2.4 2.4c-.6-7.3 1.7-14.5 3.5-21.5 31.2-.5 62.3 0 93.5-.3l5.4-24ZM1543.5 244c.2-2.3 2.7-3 4.3-4.2l.6-.3c-2.2 10.8-5.2 21.3-7.2 32.1H1452c-1.4.2-3.3-.4-4 1.3-1 4.8-2.4 9.6-2.5 14.6l-1.4-.2-2.2 2c-.5-6.4 1.3-12.7 2.8-18.9.6-2.2 3.6-1.6 5.4-1.9h88c1.7-8.2 3.6-16.3 5.5-24.4ZM21.3 251l1.9-2.8c1.6 4.5 2.3 9.5 5.4 13.2 3.6 4.3 9 6.3 14.3 7.1 8 1.3 16 1.8 24.1 2l59 3c1.7.2 4 0 5 1.6.5 1.7.6 3.4.8 5.2l-3.3 1.5v-4.2c-5-1.4-10.3-1-15.5-1.2-18.7-1.2-37.5-1.7-56.1-2.8-.8 4.2-1.6 8.5-1.4 12.8l-2.6 2.7c-1.1-4.7-1-9.7.7-14.2h-1.2l1.7-1.4c-7.4-1.3-15.4-.6-22.3-4.3-6.9-3-10.9-11-10.5-18.2Z"/><path d="M170.4 253.2c3.6 4.5 3 10.4 3.8 15.8a65 65 0 0 1-11.5 37.9A43.1 43.1 0 0 1 136 323c-7.3 1.2-14.6 1.6-22 1.6-19.7 0-39.4.2-59-.4-12-1-24.9 0-35.6-6.5-6-3.3-9.5-10-9.8-16.7l3-1.1c1 5.2 3.3 10.6 8 13.5 10.7 7.2 24.1 6.6 36.4 7.2 24 .6 48.2 1.8 72.3-.4 11.7-1.3 23.2-7 30.3-16.6a61.5 61.5 0 0 0 11.2-36.7c.1-4.3-2.8-8.9-.4-13v-.7ZM1177.4 277.8v-.7c3.8 4.8 3.4 11.2 3.1 17-.8 9.9-4 19.4-5.3 29.3-14.6.2-29.3 0-43.9.2l-.2-2.6c2.3-.7 4.6-1.3 7-1.2h33.8l3.6-18c1.5-7 2.8-14.3.3-21.3l2.2.2-.6-2.9ZM1243.6 283.8l.5 1 .5 5.6h2.5a35.3 35.3 0 0 0 18.2 21.5c10.5 6 22.7 8 34.7 7.9h82l5.5-25.4c.4-3 3.6-4 5.6-5.9h-63c-9.8-.2-19.6.5-29.2-.4 30.6-.2 61.2.2 91.8-.2l1 .9c-2.2 2.3-2.2 5.4-2.8 8.2-1.8 8.5-3.9 17-5.6 25.6H1299c-6.4 0-12.9.5-19-1-11.2-2.4-22-7.4-29.5-16.1-5-6-8-14-7-21.8ZM463.6 288.5l4.2-2.5c-.7 6-2.7 11.8-3.6 17.8-1.5 6.6-2.7 13.3-4.6 19.8-42.4-.2-84.9-.2-127.3 0V321c2.2-.6 4.4-1.1 6.7-1.2h117.8l6.8-31.3ZM1674.5 288.3l4-2.5c-1.8 12.6-5.3 25-7.4 37.6-42.5.2-85 0-127.6 0v-2.1l.5-.2c2-.7 4-1.3 6-1.3H1668l6.5-31.5ZM1808.7 288.5l4-2.7c-1.5 12.7-5.2 25-7.3 37.7h-127l-.2-2.5c4.7-1.8 9.8-1.2 14.8-1.2h109.2l6.5-31.3ZM1010.4 291.7l4.3-2.8c-2.2 11.6-4.9 23.1-7.2 34.6H863.4l-.3-2.4c2.2-.7 4.5-1.3 6.9-1.3h134.4c2-9.4 3.9-18.8 6-28.1ZM1075.2 290.3c4.5-2.4 9.9-1.2 14.8-1.5 14.5.3 29.1-.8 43.6 1 4.8.5 4 6.2 4 9.7l-3-.1c-.4-1.9.5-4.6-1.7-5.5-2.3-1.6-5.3-1.3-7.9-1.4h-50.9l1-2.2ZM1539.5 291.4l4-2.5c-1.5 11.7-4.7 23-7 34.6h-144v-2.8h.4c6.3-1.3 12.7-.8 19.1-.9h121.4l6.1-28.4ZM998.3 360.2c7-4.6 13.5-10 20.7-14.3 18-.3 35.9 0 53.8 0v.2c-3 12-5.6 24-8.7 36-8.6-.2-17.2 0-25.8-.1l1.4-6.5h-11l-.6 2.4c0-.7.4-1.9.5-2.5h11.3l1.6-7.8c-6.8 0-13.7-.1-20.5 0-4.5 20-9.6 39.8-14.2 59.8h9.4l.5-2.4c0 .6-.3 1.7-.4 2.3h11a415 415 0 0 0 3.3-13.9h26v.3c-1.5 5.9-2.7 11.8-4.3 17.7-.6 2.4-3 3.6-4.8 5l-14.8 11.3c-1.6 1.4-3.7 1.3-5.7 1.3a1748 1748 0 0 0-50.7.1h-.7c6.5-27.7 13.3-55.4 19.9-83.1.5-2.1.6-4.7 2.8-5.8ZM1082.8 376.4c2-10.2 5-20.3 7.1-30.5 24.9.3 49.7.3 74.6.1v.3c-5.8 23.1-11 46.4-16.7 69.5-1.7 5.8-2.3 11.9-4.6 17.4-4.3 4.1-9.5 7.2-14 11-2.9 2-5.4 5.1-9.2 4.8h-54.7c3.5-15 6.9-30 11-45 0 1.7.3 3.3.4 5 2.2-8 4.5-15.9 6.3-24 .7-2.8.2-5.7-.2-8.6m23.7 8.7c-3.2 14.1-7 28.1-10 42.3h9.3l13.3-.1c4.3-17 8.1-34.2 12.5-51.2a408 408 0 0 0 1.8-8.4c-7.5.1-15-.4-22.5.2-2.2 5.4-2.8 11.5-4.4 17.2ZM1182.5 346.1h24.6c1.6 0 2.5 1.7 3.6 2.6l-1.8-.6c2.6 11.3 5.5 22.6 8.3 33.8 1.3 5.2 2.2 10.4 4.1 15.4 1-3.5 1.9-7 2.7-10.7 3.4-13.4 6.5-27 9.8-40.5h24.5l-.1.5c-8.1 33.2-15.9 66.4-24 99.5-.5 1.2-.4 3.2-2.1 3-7.5.3-15-.2-22.6.1h-.4l-8.5-37.3c-1.7-6.3-2.3-13-4.9-19.1-4.7 18.6-9 37.4-13.7 56-7.9 0-15.7.3-23.5.4h-.6c7.9-34.4 16.5-68.7 24.5-103ZM1271.6 346.1h26.8v.4l-10.1 74.5c-1.1 8.5-2.6 17-3.2 25.6 4.9-14 9.6-28 14.2-42.2 6.8-19.3 13-38.8 19.7-58.2h26.6l-.1.3c-7.5 19.3-14.4 38.8-21.8 58.2L1307 449c-15 .2-30.2.1-45.3 0 3.1-34.3 6.6-68.6 10-103ZM1355.4 346.2c14.3 0 28.5 0 42.7.2-1.7 7.2-3.3 14.3-5.1 21.4l-8.6.3c-4.4 19.9-9.6 39.6-14.2 59.4l8.3.3c-1.7 7.2-3.3 14.4-5.3 21.5l-42.4-.1c1.6-7.2 3.5-14.4 5-21.6h8.6a19363.8 19363.8 0 0 0 14.2-59.7h-8.2c1.3-7.3 3.4-14.4 5-21.7ZM1414.1 358.1c5.8-3.7 11-8.4 17-11.6 17.8-.4 35.7 0 53.6 0-3 12-5.5 24.2-8.7 36.1-8.4 0-16.7-.3-25 .1l-.6-.5a349 349 0 0 1 3.3-14c-7-.2-13.8-.2-20.6-.2-4.6 20-9.6 39.8-14.2 59.7 7-.3 14 1 21-.1v-1.2c.7-4.2 1.8-8.4 2.9-12.5 8.4 0 16.8-.2 25.2 0l.6.5c-1.5 5.7-2.7 11.5-4.2 17.2-.9 3.2-4.1 4.6-6.4 6.5-5.2 3.5-9.7 7.9-15 11-7.3.8-14.7 0-22 .3-11-.2-22.1 0-33.2-.2 6.6-28.5 13.6-56.8 20.4-85.3.5-3 3.8-4 6-5.8ZM1493.7 351.2l1.4-5 2.5 2.3h38.8l.4-2h28.6c-1.6 6.9-3 13.7-4.8 20.4-.3 1.7-2.4 1-3.5 1.3h-19c-6.6 27-12.9 54.2-19.7 81.2-8.4.1-16.8-.2-25.2.2l-.4-.7c5.5-24.3 11.6-48.5 17.3-72.8a301 301 0 0 1 1.9-8h-15c-2.6 0-5.3.4-7.6-.9 1.4-3.8 2.4-7.8 3.3-11.8l1.2-.8-.2-3.4ZM1573.7 355l2.1-8.5c14.1.2 28.2-.1 42.4.1-1.4 7.3-3 14.4-5 21.5l-8.5.2c-4.4 20-9.6 40-14.1 60h8.4l-5.3 21.3c-14 0-28-.3-42 0h-.6c1.7-7.3 3.4-14.6 5.3-21.8h8.4c4-17.6 8.5-35.2 12.6-52.8.6-3 1.1-6.3 3.3-8.6a10 10 0 0 1-10.3.8c1.4-4 2.3-8 3.3-12.2ZM1633.2 346.6h74.3a6776 6776 0 0 1-20 84.6c-.4 3.2-3.4 4.7-5.7 6.5-4.9 3.5-9.5 7.4-14.3 10.8-1.9 1.4-4.3 1-6.5 1.2-17.5-.2-35 0-52.5-.2l24.7-103m20.8 21.9c-2 6-3 12.4-4.6 18.6-3.3 13.8-6.8 27.5-9.9 41.3 3.2 0 6.4 0 9.6-.2 4.3-.1 8.7.2 13-.1 1.8-4.5 2.3-9.4 3.7-14l9-37.8 1.9-7.7a343 343 0 0 0-22.7-.1ZM1701.2 449.3c8.1-34.3 16.3-68.4 24.6-102.6h25.9l9 37.4c1.3 5.3 3 10.5 3.3 16 1.3-4.2 2.3-8.4 3.2-12.6l9.9-40.8 24.2.1c-8 34.4-16.2 68.6-24.7 102.8-8 .2-16 .1-24 .1-3-10.9-5-22-7.8-33a501 501 0 0 0-5.6-24.5l-13.9 57.4c-8 .2-15.9 0-23.8 0l-.3-.3Z"/></g></svg>