<svg xmlns="http://www.w3.org/2000/svg" width="1280" height="720" viewBox="0 0 960 540"><g fill="#f0eda2" stroke="#f0eda2" stroke-width=".1"><path d="M889.4 40.5c3.6-1.3 7.7-.3 10.8 1.8-3 2.5-6.9 2.6-10.5 3.4-13 2.6-25.1 7.6-37.7 11.5-2.2-.8-4.8-.4-5.8 2-18.9 6.8-38 13-57 19 .5-1.9 2.3-3.4 2.1-5.5v-.5c19.2-6.4 38.4-13 57.7-19.3 13.4-4.2 26.4-9.9 40.4-12.4zM171.3 281.4c7.8-2 16.4-5 24.4-2.1 1 .8 1.9 1.5 2.4 2.6-5.2.6-10.3 1-15.4 1.8-6.6 1.6-13.5 3-19.4 6.6-3.9 1.8-8.2 2.4-12.2 3.7a660.5 660.5 0 0 0-35.2 11.8l-.8.2c-3 .2-5.6 1.6-8.3 2.9-7.5 1.6-14.1 6.2-21.9 6.3-1.7-.6-3.4-1.4-5-2.2 3.4-3.1 9.4-3.5 13.8-5.4 25.8-8.8 51.8-17.3 77.6-26.3z"/></g><path fill="#e7dd66" stroke="#e7dd66" stroke-width=".1" d="M900.2 42.3c1.6 0 3 2.2 3 3.8l-.2 1c-3.5-3.8-8.8-.6-13.3-1.4 3.6-.8 7.5-.9 10.5-3.4z"/><path fill="#ecd230" stroke="#ecd230" stroke-width=".1" d="M889.7 45.7c4.5.8 9.8-2.4 13.3 1.3.2 2.3-2.6 2-4 3.2v7c-.7 5-2 10-3 15-.9-1-.6-3.2-2.1-3.2-5.8 0-10.2 5-16 5-2.1.1-4 1.4-4.4 3.7-3.3 1-6.8.8-10.2.8-.3 6-7.6 7.5-9 12.9-2.5 4.1 1.1 7.6 1 11.8l-3.1 2c-.7-2.1-1.2-4.2-1.5-6.4 2-7 3-14.4 4.6-21.6l.7-3.2h4.8c-.6-1.7-.4-3.8-1.7-5-2.6-2.6-6.6-2.4-10-1.7a905 905 0 0 1-28.2 9.5c-1.8.4-3.1 1.7-4.2 3.1-1.7 5.8-2.5 12-3.8 17.8-2.8 2.1-1.8 6.6-4.9 8.4-2 2.3-7 .4-6.6 4.8-4.8.1-9.6.5-14.3 1.2-5.2 3-8 8.8-12.7 12.3-2.4 3.7-5.3 7.1-6.7 11.3l-1-.4a158 158 0 0 1 5.4-27.1c2.9-6 3.3-12.8 4-19.2 0-3-.4-6.1.8-9 4.3 2 8.4.2 12.2-1.8 19.1-6 38.3-12.2 57.1-19 2.1 0 4-.9 5.8-2 12.6-3.9 24.8-9 37.7-11.5z"/><path fill="#d9a429" stroke="#d9a429" stroke-width=".1" d="M903.2 46.1l.8-.1v11.2c-1.6.4-3.3.4-5 0v-7c1.4-1.1 4.2-.9 4-3.2l.2-.9z"/><path fill="#f8f081" stroke="#f8f081" stroke-width=".1" d="M846.2 59.1c1-2.3 3.6-2.7 5.8-1.9-1.8 1.1-3.7 2-5.8 2z"/><path fill="#cc8620" stroke="#cc8620" stroke-width=".1" d="M899 57.2c1.7.4 3.4.4 5 0 .2 6.4-2.8 12.4-3.2 18.7-1.8 6.3-2 13.1-4.8 19-1.6 2-3.8 2.2-6 1.1l2.3-5.8c1.9-5.9 2.6-12 3.6-18 1-5 2.4-10 3.1-15z"/><path fill="#f2efa2" stroke="#f2efa2" stroke-width=".1" d="M717.2 69.4c8.7-2.4 17-6.7 26-7.5h6.7c1.5 0 3 .1 4.2 1.3a9.4 9.4 0 0 1-4.3 4.1c-7.3-1.6-14 1.7-20.8 3.7-31.3 10.2-62.4 21.1-93.7 31.4-3.3.5-7.1 4-10.3 1.4l-2-2.6c31.1-11.2 62.8-21 94.2-31.8z"/><path fill="#e3df6d" stroke="#e3df6d" stroke-width=".1" d="M754.1 63.2c2.6.9 5.6 2.8 6 5.7-2.8-2.6-6.8-1.4-10.3-1.6 1.9-1 3.4-2.3 4.3-4.1z"/><path fill="#edd330" stroke="#edd330" stroke-width=".1" d="M729 71c6.8-2 13.5-5.3 20.8-3.7 3.5.2 7.5-1 10.3 1.6 1.6 1.1 1.9 3.5 2.3 5.4-1.6 3-7.7 2-4.4 7.7 0 2.4-.6 4.8-1 7.1-4 13.8-6.7 28-11.3 41.6a51 51 0 0 0-2.9 6c-.5.5-1.4 1.4-2 1.8-.6-1.9 1-3.5 1.2-5.3-3-3.2-.5-8.3-3.1-12-5.3 2.4-10.4 7-16.6 5.1-3.3 6.2-11.9 2.2-16.3 6.7-1.5 2-3.8-.3-5.6-.6-1 1.6-2 3.3-3.5 4.5-4 3.8-1.8 11.4-6.9 14l-1.6-7c2.9-11.8 6.6-23.3 10-35l1.5-2h4.1c.2-1.6 0-3.3-1.8-3.8-4.8-2.7-10.2 1.3-14.9 2.3-20.7 7.6-41.8 14-62.6 21.2-4.7 1.8-9.8 3.1-13.3 6.8-2.8 3.3-5.8 6.3-8.4 9.8l-1.1-1.1c2.2-7.3 7.2-13.2 10-20.1 1.4-2.3 2.1-5.2 4-7 2.3-1 2.8-3.6 3.5-5.7 1.7-2 2.2-5.8 5.6-5.5 3.2 2.7 7-1 10.3-1.4C666.6 92.1 697.7 81.2 729 71z"/><path fill="#6b4010" stroke="#6b4010" stroke-width=".1" d="M849.2 67.3c3.3-.7 7.3-.9 9.9 1.7-1.2 1.6-3 3-3 5l-.8 3.2c-.6-2.7 1.1-8.7-5.1-4.9-9.5 3.8-19.8 5.8-29 10.6-1.3-1.3-3-2.1-4.5-3 1-1.4 2.4-2.7 4.2-3 9.5-3 18.9-6.3 28.3-9.6z"/><path fill="#d49b22" stroke="#d49b22" stroke-width=".1" d="M859 69c1.4 1.2 1.2 3.3 1.8 5H856c.1-2 2-3.4 3-5z"/><path fill="#eccd2a" stroke="#eccd2a" stroke-width=".1" d="M878 74c5.7 0 10.1-5 15.9-5 1.5 0 1.2 2.3 2 3.2-1 6-1.7 12.1-3.6 18 .4-2.7-1.8-2.5-3-1-7.7 5.6-12.4 14-19.7 19.8-2.4-3 .8-6.3 2.2-8.9-2.8-3.1-7.7-3.2-11.4-1.8-1.5 1.9-3 3.8-5.1 4.9.1-4.2-3.5-7.7-1-11.8 1.4-5.4 8.7-6.8 9-12.9 3.4 0 7 .3 10.3-.8.3-2.3 2.2-3.6 4.4-3.7z"/><path fill="#f4f0b3" stroke="#f4f0b3" stroke-width=".1" d="M774 78.9a55 55 0 0 1 17.3-6.2c.2 2-1.6 3.6-2.2 5.5-3.8 2-8 3.9-12.2 1.9l-2.9-1.2z"/><path fill="#d6a729" stroke="#d6a729" stroke-width=".1" d="M762.4 74.3l.6-.4V86c0 1.5-.9 2.8-1.3 4.2l-2.7-3.4-2 2.3c.4-2.3 1-4.7 1-7-3.3-5.8 2.8-4.8 4.4-7.8z"/><path fill="#b6a74c" stroke="#b6a74c" stroke-width=".1" d="M774 78.9L777 80c-1.2 2.8-.8 5.9-.9 8.9h-.9c0-3.4 0-6.8-1-10.1z"/><path fill="#cd8620" stroke="#cd8620" stroke-width=".1" d="M812.9 97.8c1.4-6 2-12.1 3.8-17.9 1.6.9 3.2 1.7 4.6 3-2.2 9.9-4.3 19.8-5.4 30l-.9.2c-1.7 0-3.4 0-5-.2.7-5 2.6-10 2.9-15.2z"/><g fill="#ce8720" stroke="#ce8720" stroke-width=".1"><path d="M757 89.1l2-2.3c1 1 1.8 2.3 2.7 3.4.7 1.3-.3 2.6-.5 3.8-3.8 12.3-6.2 25-10.2 37.1-1.7 1.1-3.5.3-5.3-.4 4.6-13.6 7.2-27.8 11.3-41.6zM260.2 289c2.2-8 2.6-16.3 5.3-24 1.2 1.7 3.2 3 3.8 5-1.8 9.7-4.7 19.3-5.3 29.1h-5.8c.7-3.4 1.6-6.7 2-10.2z"/></g><path fill="#edd334" stroke="#edd334" stroke-width=".1" d="M889.2 89.2c1.3-1.5 3.5-1.7 3.1 1a227.2 227.2 0 0 1-3.5 8.6c-4.6 5.9-11.7 8.1-18 11.5l-1.2-1.3c7.3-5.9 12-14.2 19.6-19.8z"/><path fill="#d6ce59" stroke="#d6ce59" stroke-width=".1" d="M775.1 89h1c-.7 6.4-1.1 13.3-4 19.2 0-6.5 2.4-12.7 3-19.1z"/><path fill="#9f601d" stroke="#9f601d" stroke-width=".1" d="M890 96c2.2 1 4.4.8 6-1 0 2.4-1.9 4.4-3.4 6.2-1.3-.7-2.6-1.6-3.8-2.4L890 96z"/><path fill="#e6c029" stroke="#e6c029" stroke-width=".1" d="M860.4 98.3c3.7-1.4 8.6-1.3 11.4 1.8-1.4 2.6-4.5 5.8-2.2 9l1.2 1.2-.3.7c-2 2.5 1.2 4 3.4 2.9 1.2 5.1 2.2 10.7 5.1 15a52 52 0 0 1 5 16.1c.6 4-1.7-1-3.9 0l-.3 6.2c-5.5-7.6-7.9-17-11.5-25.5-1.3-3-1.9-6.4-4.6-8.5-4.7-1.5-9.6-1-14.3 0l-.9 2.5c-7.4-1.5-11.9 5.3-18.3 7.4l-1.2-.8-2.9-1.5c-1.3-2.5-3.8-3.8-6-5.5 2-1.4 4.9-2 6.2-4.1 7.2-2.4 14.5-4.6 21.6-7.4 1.5-.7 2.9-1.7 4.3-2.6l3-2c2.2-1.2 3.6-3 5.1-4.9z"/><path fill="#e8c72d" stroke="#e8c72d" stroke-width=".1" d="M808 106c3-1.7 2-6.2 4.9-8.3-.3 5.2-2.2 10.1-3 15.2l5.1.2c-.9 1.5-1.7 3.1-2.2 4.9 4.8.8 9-1.7 13.5-2.8-1.3 2.2-4.1 2.7-6.2 4 2.2 1.8 4.7 3 6 5.6-6.6 2-13.8 3.2-19.5 7.3l-1 1c-1.6-3.1 1.4-8.5-2-10.9-2.5 1.3-6.9-2.7-8.8.6-2.8 4.5-9 4.2-13.6 3.5-3.5 4.4-9.1 7.1-11.4 12.6-3.2 4.3-1.1 10.5-3.9 15-2.1 3.4-3 7.4-3.6 11.4.2 2-1.6 4-1.4.8.8-10.5 4.2-20.6 5.2-31l.6.2c.3 0 .8.3 1 .4 1.4-4.2 4.3-7.6 6.7-11.3 4.8-3.5 7.5-9.4 12.7-12.3 4.7-.7 9.5-1 14.3-1.2-.5-4.4 4.6-2.5 6.6-4.8z"/><path fill="#eadf5a" stroke="#eadf5a" stroke-width=".1" d="M848.2 101.7l2.5-2.9c.3 2.2.8 4.3 1.5 6.4-1.4 1-2.8 2-4.3 2.6.1-2 .4-4 .3-6z"/><path fill="#744410" stroke="#744410" stroke-width=".1" d="M870.8 110.3c6.3-3.4 13.4-5.6 18-11.5 1.3.8 2.5 1.7 3.8 2.4A29.7 29.7 0 0 1 882 111c-2.3 2-7 1-6.3 5.2l-1.8-2.3c-1-1.2-2.3-2-3.4-3l.3-.6z"/><path fill="#d2cd5e" stroke="#d2cd5e" stroke-width=".1" d="M619.4 109.3c.4-2.4 1.2-7.5 3.5-8l2.1 2.5c-3.4-.3-3.9 3.4-5.6 5.5z"/><path fill="#693f10" stroke="#693f10" stroke-width=".1" d="M687.3 105.4c4.7-1 10.1-5 15-2.3a26.2 26.2 0 0 1-3.9 5.9c-1-1-2-1.2-3.3-.8-14.5 5.6-29.3 10-44 15-16.1 6.5-34.2 9.2-47.4 21.5l-2.6 1.4 2-2.9c2.5-3.5 5.5-6.5 8.3-9.8 3.5-3.7 8.6-5 13.3-6.8 20.8-7.1 42-13.6 62.6-21.2z"/><path fill="#f3ed88" stroke="#f3ed88" stroke-width=".1" d="M815.9 112.8c11-3 22-6.4 32.3-11l-.3 6c-7 2.8-14.4 5-21.6 7.4-4.4 1.1-8.7 3.6-13.5 2.8.5-1.8 1.4-3.4 2.2-5l.9-.2z"/><path fill="#c99623" stroke="#c99623" stroke-width=".1" d="M702.2 103c1.8.6 2 2.3 1.8 3.9h-4c.8-1.2 1.6-2.5 2.2-3.8z"/><path fill="#d2cc57" stroke="#d2cc57" stroke-width=".1" d="M616 115c.6-1.9 1.1-5.7 3.4-5.7-.8 2.1-1.2 4.7-3.4 5.7z"/><path fill="#c08719" stroke="#c08719" stroke-width=".1" d="M873.9 113.9c-2.2 1-5.4-.4-3.4-3 1.1 1 2.4 1.8 3.4 3z"/><path fill="#ccb458" stroke="#ccb458" stroke-width=".1" d="M873.9 113.9l1.8 2.3c1 4.3 3.4 8.3 3.3 12.8-3-4.4-3.9-10-5.1-15.1z"/><path fill="#e2b024" stroke="#e2b024" stroke-width=".1" d="M849.4 117.2c4.7-1 9.6-1.5 14.3 0 2.7 2 3.3 5.6 4.6 8.5 3.6 8.5 6 17.9 11.5 25.5 0-1.6.3-4.7.4-6.3 2-1 4.4 4.2 3.9.1l.8.2c.8 4.4 2.6 8.6 3.3 13l-1.2 2c-3.7-2-7.4.2-11 1.3.2-7-3.4-13.3-6.1-19.4-1.9-3.4-2.8-7.5-6.4-9.6-2.8.1-5.5-.1-8.2-.1-4.5 3.8-10.2 5-15.8 6.1-1.2 2.6-5.2 3.2-6.6.5-1.5-3.8-2-8-2.7-12 6.4-2 11-8.8 18.3-7.3l.9-2.5z"/><path fill="#ebce2b" stroke="#ebce2b" stroke-width=".1" d="M722.3 126.3c6.2 1.9 11.3-2.7 16.6-5.1 2.6 3.7 0 8.8 3 12-.2 1.8-1.7 3.4-1 5.3-.9 1-1.8 1.8-2.8 2.6-.9-1.8-2.5-1.9-4.2-1.5-5.8-.7-11.2 2.4-16.3 4.9-4.9 0-9.3 2-12.7 5.4-3.6 0-8-1.6-10.7 1.2-1.8 1.7-4 2-6.4 1.9l1.5-1.7.7-.4c5.1-2.6 2.9-10.2 6.9-14 1.5-1.2 2.5-2.9 3.5-4.5 1.8.3 4 2.6 5.6.6 4.4-4.5 13-.5 16.3-6.7z"/><g fill="#e8bf27" stroke="#e8bf27" stroke-width=".1"><path d="M794.8 122.8c2-3.3 6.3.7 8.9-.6 3.3 2.4.3 7.8 2 11 0 4.8-1.6 9.6-2.6 14.3-2.3-3.1-1.1-7.8-4.3-10.4-3.1 1.6-7.1.3-9.6 3-3.2 2.3-7.2 2.3-11 2.2-8.8 4.7-9.9 15.8-16 23 .7-4 1.6-8 3.7-11.3 2.8-4.6.7-10.8 4-15.1 2.2-5.5 7.8-8.2 11.3-12.6 4.7.7 10.8 1 13.6-3.5zM303.2 290.1c3.3-2.5 7.3-3 10.8-4.9 3 .6 7.2 1.8 5.5 6.4.2 1.6-1.1 3.1-.8 4.8l.3 2.6c.3 1.6 1.5 6-1.6 4.6-4.9-2.3-10.2-1-15.4-1.2-5.5.8-9.6 5-14.6 7.2-2.4 4.4-.5 10.7-4.5 14.2-.5-.2-1.4-.6-2-.7-.6-3-1.2-6-1.6-9 3.7-2.6-.5-6.6-3-8.3-2.5-1.3.3-3 1.5-4 5.5-1.5 10.8-4 16.6-5.3 3.8-.6 6.2-3.8 8.8-6.4z"/></g><g fill="#6b400f" stroke="#6b400f" stroke-width=".1"><path d="M806.6 132c5.7-4 13-5.2 19.5-7.2l3 1.5c0 2.5-2.6 3.4-3.3 5.5-5.1-2.4-9.8 3.1-14.8 3.4l-4.4-3.1zM137.6 307.5c6-1.8 13-5.8 19-1.7a82.2 82.2 0 0 0-3.7 4c-2.7-1.5-5.8-.1-8.6.6-7.9 3-15.8 5.8-24 8l-1 2.8c.4-2.9-2-3.5-4.2-4.1l1.8-3c7.1-1.4 13.6-5 20.7-6.6z"/></g><path fill="#c98121" stroke="#c98121" stroke-width=".1" d="M829 126.3l1.2.8c.7 4 1.2 8 2.7 11.9 1.2 5.4 2.4 11 4 16.3v.9c-1.6.2-3.2.2-4.8-.1-3.4-7.6-3.6-16.4-6.3-24.3.7-2.2 3.3-3 3.2-5.5z"/><path fill="#b36f20" stroke="#b36f20" stroke-width=".1" d="M744.1 133.9l1.6-3.2c1.8.7 3.6 1.5 5.3.4-.2 1.8-1.1 3.3-2 4.8l-4.9-2z"/><path fill="#ce821f" stroke="#ce821f" stroke-width=".1" d="M805.7 133.2l1-1.1c1.3 1.2 2.8 2.2 4.3 3.1-2.8 13.8-4.9 28-8.2 41.5-1 2.7-.6 5.7-.8 8.5-3 0-6.7-2-4-6.2-.2-8.5 3.5-16.5 4-25l1.1-6.5c1-4.7 2.5-9.5 2.6-14.3z"/><path fill="#e09f1f" stroke="#e09f1f" stroke-width=".1" d="M855.3 132.4c2.8 0 5.4.2 8.2.1 3.6 2.1 4.5 6.2 6.4 9.6 2.8 6.1 6.3 12.4 6 19.4l-3.1.8c-2.6-5.2-2.9-12.7-9.1-15-5.7-2.8-8.4 3.5-13.4 4-4.6.7-8.8 3-13.4 4-1.6-5.4-2.8-10.9-4-16.3 1.4 2.7 5.4 2 6.6-.5 5.6-1 11.3-2.3 15.8-6.1z"/><path fill="#935a14" stroke="#935a14" stroke-width=".1" d="M744.1 133.9l4.9 2-1 2.3-5.2-1.4 1.3-3z"/><path fill="#693d0f" stroke="#693d0f" stroke-width=".1" d="M740.9 138.5l1.9-1.7c1.7.5 3.4 1 5.1 1.3-2 3-4.2 5.8-7.1 7.8-1.8-.3-5.5 0-4.8-2.8l2-2 2.9-2.6z"/><path fill="#e3b223" stroke="#e3b223" stroke-width=".1" d="M789.1 140.1c2.6-2.7 6.6-1.4 9.7-3 3.2 2.6 2 7.3 4.4 10.4-.4 2.2-.9 4.3-1.2 6.5-3.5 3-2.6-4.8-6-3.8-6.5 1.3-13 3.5-19.3 5.5-3.4 1.5-8 2.6-9.3 6.7-1.6 4-4.2 7.7-7.2 10.8l-.2-2.1c.4-1.4-1.1-5.2.9-5-.3 3.2 1.6 1.2 1.4-.8 6-7.2 7.1-18.3 16-23 3.7.1 7.7 0 10.9-2.2z"/><path fill="#ebe7a0" stroke="#ebe7a0" stroke-width=".1" d="M562 149.3c11.6-3.1 22.6-7.9 34-11.4-.3 1.5-2 2-3.1 3-3.4 2.2-6.7 4.6-10 7.2l-1 .7a16 16 0 0 0-6.1 1.8c-4.3 1.6-9.5 3.5-13.5.2l-.4-.6.1-.9z"/><path fill="#e8c52a" stroke="#e8c52a" stroke-width=".1" d="M717.6 144.5c5.1-2.5 10.5-5.6 16.3-4.9 1.7-.4 3.3-.3 4.2 1.5-.8.6-1.5 1.3-2 2-.8 2.7 2.9 2.5 4.6 2.8l1.3 1c-2.8-.5-5.3 1.8-3.3 4.4l.3.8c-2.3-.3-4.4-2-6.7-1.7-5.1 3.3-11.3 4.3-17 5.9-4 2.5-8.2 5.5-13.2 4-6.6 3.2-14 4.4-20.6 8-5.2.6-10.3 2.2-15.2 4-1.2 1.4-2.2 3.1-3.6 4.5-4.5 1.3-9.6-.3-13.9 2-3.2 2-7 2-10.2 3.8-4.5 2.2-9 4.7-14.3 4.7-2 3.5-4 7-5.5 10.6-2.3 2.5-4.4 5.1-6.8 7.5l-1.1-2.3c.5-3.5 2-7.2 4-10.1 2.3-2 2.8-5.2 3.1-8 .5-3.6 1.8-7.2 4-10 2.1-1.9 1.8-6 5.1-6.4l1 1.4c1.4 2.5 5.8 1 8.1.3 15.8-5.8 32-10.6 47.8-16.2l3.8-1.1c2.3 0 4.7-.2 6.4-1.9 2.8-2.8 7.1-1.2 10.7-1.2 3.4-3.4 7.8-5.3 12.7-5.4z"/><path fill="#704a1b" stroke="#704a1b" stroke-width=".1" d="M583 148c3.2-2.5 6.5-4.9 9.9-7.2a54.4 54.4 0 0 1-8.9 14.3c.2-2.4 2-5.8-1-7z"/><path fill="#a49861" stroke="#a49861" stroke-width=".1" d="M599 148c.6-2 1-5 2.9-6l1.1 1.2-2 3c-.4.9-1.1 1.5-2 1.9z"/><path fill="#e6dc4e" stroke="#e6dc4e" stroke-width=".1" d="M688.4 143.8l1.6 7-.7.5-2.6-4c.1-1.4.7-2.5 1.7-3.5z"/><path fill="#f6eb6b" stroke="#f6eb6b" stroke-width=".1" d="M686.1 146.8l.6.5 2.6 4-1.5 1.7-3.8 1.1a8.2 8.2 0 0 0 2-6.2l.1-1z"/><path fill="#f0e664" stroke="#f0e664" stroke-width=".1" d="M738.7 151.3c-2-2.6.5-4.9 3.3-4.5 1.3 0 2.6.6 3 2l-6.3 2.5z"/><path fill="#d98f1c" stroke="#d98f1c" stroke-width=".1" d="M850.3 151.4c5-.6 7.7-7 13.4-4.1 6.2 2.3 6.5 9.8 9 15l.3.7c-3 .3-6 1.5-9 2.3-2.1-1-4.8-.5-5.8 1.8-5.6 2.3-11.3 4.2-17 6-2-5.5-3-11.3-4.3-17v-.8c4.6-1 8.8-3.3 13.4-4z"/><path fill="#945813" stroke="#945813" stroke-width=".1" d="M582 148.8l1-.8c3 1.3 1.2 4.7 1 7-.9 3.7-3.7 6.5-5 10-7 12-12.6 25.1-20 37-1.5 1.2-2.4 3-4 4.1-.8-.7-1.5-1.6-2.2-2.4a1179.2 1179.2 0 0 1 29.1-54.9z"/><path fill="#f1ed93" stroke="#f1ed93" stroke-width=".1" d="M634 165.5c17.3-6 34.6-12 52-17.6.3 2.3-.5 4.5-2 6.2-15.8 5.6-32 10.4-47.8 16.2l-8.2-.3-.9-1.4a5 5 0 0 0-1.9-2c-.5-1.6 0-2 1.8-1.1 2.2.7 5 1.4 7 0z"/><path fill="#e2cb4a" stroke="#e2cb4a" stroke-width=".1" d="M575.8 150.6c1.9-1 4-1.6 6.1-1.8a44 44 0 0 1-2.4 4.4c0-2.2-2-2.3-3.7-2.6z"/><path fill="#e7d543" stroke="#e7d543" stroke-width=".1" d="M738.7 151.3l6.3-2.5c1.4.4 2.3 1.7 2 3.2h-8l-.3-.7z"/><path fill="#d2c565" stroke="#d2c565" stroke-width=".1" d="M561.2 156.8c-.4-1.9-1.3-5.7.7-6.6l.4.6-1 6z"/><path fill="#e5b927" stroke="#e5b927" stroke-width=".1" d="M732.3 150.4c2.3-.3 4.4 1.4 6.7 1.7h8v2.8c-2.4-.1-4.8 0-4 3-4.9 5.6-12.8 7.4-19.8 6.3-2.8 3.3-6.9 4.2-10.3 6.6-5.9-1.4-10.5 4-16.2 4.6-4 .1-7.6 2-11.2 3.6-2-1.1-4.2-2-6.5-1-20.1 6.4-40.1 13.3-60.2 20 1.5-3.8 3.6-7.2 5.5-10.7 5.3 0 9.8-2.5 14.3-4.8 3.2-1.8 7-1.8 10.2-3.7 4.3-2.3 9.4-.7 14-2 1.3-1.4 2.3-3 3.5-4.6 5-1.7 10-3.3 15.2-3.9 6.5-3.6 14-4.8 20.6-8 5 1.5 9.2-1.5 13.1-4 5.8-1.7 12-2.6 17.1-5.9z"/><path fill="#e0a622" stroke="#e0a622" stroke-width=".1" d="M776.7 155.7c6.4-2 12.8-4.2 19.4-5.5 3.3-1 2.4 6.8 6 3.8-.6 8.5-4.3 16.5-4.1 25-2.7 4.1 1 6.2 4 6.2-.2 1.7.6 4.4-2 4-2-2-4.6-.5-6.8.1l-2-.5c-1-7.8 2.9-15 2.8-22.7-.5-1.7-2.4-5.8-4.1-3.4-.1 4.2-5.7 1.9-8.3 3.7-4.5-.2-6.9 4.7-11.5 3.8-3.5.3-4.4 4.2-7 5.8a11.7 11.7 0 0 0-4.4 6.7l-1-.4c1.7-2.4-.8-10.4 2.3-11.2l.2 2c3-3 5.6-6.7 7.2-10.8 1.2-4 5.9-5.1 9.3-6.6z"/><path fill="#e8ce33" stroke="#e8ce33" stroke-width=".1" d="M562.3 150.8c4 3.3 9.2 1.4 13.5-.2 1.7.3 3.7.4 3.7 2.6-9.2 16.7-18.3 33.4-26.7 50.5l-2.5 4.6c-2 .2-4 .4-6 1-7.8 10-13.6 21.4-19.5 32.6-2.5 3.5-4.8 9.7-10 9.5C517 244 522 238 525 231c8-16.6 17-32.5 25-49 4-8 8.5-15.9 10.5-24.7l.7-.6 1-5.9z"/><path fill="#c29350" stroke="#c29350" stroke-width=".1" d="M747 152l1 1v9h-1v-7-3z"/><path fill="#3c200f" stroke="#3c200f" stroke-width=".1" d="M748 153c3.2 0 .3 6.6 1 9h-1v-9z"/><path fill="#d28817" stroke="#d28817" stroke-width=".1" d="M743 157.8c-.8-3 1.6-3 4-2.9v7c-1.8.8-3.9 1.4-5 3.2.4-2.4.9-4.8 1-7.3z"/><path fill="#ac651b" stroke="#ac651b" stroke-width=".1" d="M832.1 156c1.6.4 3.2.4 4.8.2 1.2 5.7 2.4 11.4 4.3 16.9l-2.1 3.3-2.9-1.3c-1.6-6.3-3.6-12.6-4.1-19z"/><path fill="#e2ad22" stroke="#e2ad22" stroke-width=".1" d="M723.2 164.2c7 1 15-.7 19.7-6.3 0 2.4-.5 4.8-.8 7.2-.5 2.7-1.2 5.3-1.9 8-6-2.5-10.8 5.3-16.8 5.6-7.7 2.7-16 4-23.2 7.6-5.5 1-10.7 3.5-15.2 6.7-2.4 3.8-2.8 8.8-6.2 11.9-1 0-2 0-2.8-.4 2-3.4 2.2-7.5 3.3-11.3 1.5-3.3 2.2-6.8 2.7-10.4 1.2-1.2 2.5-2.4 3.5-3.8 3.6-1.6 7.2-3.5 11.2-3.6 5.7-.6 10.3-6 16.2-4.6 3.5-2.4 7.6-3.3 10.3-6.6z"/><path fill="#ae915d" stroke="#ae915d" stroke-width=".1" d="M888.2 158.3c.8.3 4.1 4.2 1.1 3.6l-2.3-1.6 1.2-2z"/><path fill="#512c0c" stroke="#512c0c" stroke-width=".1" d="M876 161.5c3.6-1.1 7.3-3.2 11-1.2l2.3 1.6c-2 1.9-5.5 2.2-8.2 3.2-3 .2-5.7-.5-8-2.1l-.3-.7 3.1-.8z"/><path fill="#a45f15" stroke="#a45f15" stroke-width=".1" d="M742 165.1c1.1-1.8 3.2-2.4 5-3.1h1c-2.2 8.2-2.7 17.2-6 25a50 50 0 0 1-5.8 7.2l-.1-3.1c.8-2.6 1.5-5.3 2-8 .7-3.3 1.6-6.7 2.1-10 .7-2.7 1.4-5.3 1.9-8z"/><path fill="#db9a20" stroke="#db9a20" stroke-width=".1" d="M789.9 162.7c1.7-2.4 3.6 1.7 4 3.4.2 7.7-3.8 15-2.8 22.7l2 .5-3.5 1.5-2.3.5c.2-4.4 1.8-8.9.6-13.2-8.2 0-16 3.5-23.5 6.4-4.6 4.4-3.2 11.5-6.2 16.7l-4.1 3.2c-1.4-.3-2.2-1-2.4-2.5 2.3-6.5 5-13 5.4-19.9l.6.3c.3 0 .8.3 1 .4.8-2.5 2-5.1 4.3-6.7 2.7-1.6 3.6-5.5 7-5.8 4.7.9 7.1-4 11.6-3.8 2.6-1.8 8.2.5 8.3-3.7z"/><path fill="#351d0a" stroke="#351d0a" stroke-width=".1" d="M864 165.3c3-.8 6-2 9-2.3 2.4 1.6 5.2 2.3 8 2l-.3.8c-9.4 2.5-18.7 5.3-27.7 9-5.1 1-9.7 4.5-15 4.1l1.1-2.5 2-3.3c5.8-1.8 11.5-3.7 17.1-6 2.1.1 4-.8 5.8-1.8z"/><path fill="#908e65" stroke="#908e65" stroke-width=".1" d="M627 165.5c2-1.1 5-1.2 7 0-2 1.4-4.8.7-7 0z"/><path fill="#b77b36" stroke="#b77b36" stroke-width=".1" d="M858.2 167.1c1-2.3 3.7-2.7 5.8-1.8-1.8 1-3.7 1.9-5.8 1.8z"/><path fill="#d0c34d" stroke="#d0c34d" stroke-width=".1" d="M622 175c.4-2.9.9-6.6 3.2-8.4a5 5 0 0 1 2 2c-3.4.5-3.1 4.5-5.3 6.4z"/><path fill="#f4e363" stroke="#f4e363" stroke-width=".1" d="M628 170c2.8 0 5.5.2 8.3.3-2.4.7-6.8 2.2-8.3-.3z"/><path fill="#efeba1" stroke="#efeba1" stroke-width=".1" d="M462 183.1c11.4-3.6 22.6-7.8 34-11.2l-.2.9-2 2a70.5 70.5 0 0 0-5 5c-13.9 5-28.1 9-41.8 14.4l-3.8-1.5c-1.3-.6-2.9-.7-4.3-.9 6.7-4.5 15.7-5.4 23.2-8.7z"/><path fill="#dea323" stroke="#dea323" stroke-width=".1" d="M723.4 178.7c6-.3 10.9-8 16.8-5.7-.5 3.4-1.4 6.8-2.2 10.1-.8-.7-1.4-2.7-2.9-2-3.6 2.6-8.2.8-12 3-4.9 2.6-11 2.8-14.4 7.5-3.3-1-6.3 1-9.6.8-6.4 3.2-15 5-18 12.6-2.6 5.7-8.1 11.5-6 18.1l-.7 1c-.9-1.8-2-3.5-3-5.2 1-5 2.6-9.7 3.8-14.6l.8.2c.9.3 1.8.5 2.8.4 3.4-3.1 3.8-8.1 6.2-11.9 4.5-3.2 9.7-5.8 15.2-6.7 7.2-3.7 15.5-4.9 23.2-7.6z"/><path fill="#87653b" stroke="#87653b" stroke-width=".1" d="M493.8 174.8l2-2c-1 2 .2 6.6-1.9 7.1v-5z"/><path fill="#d39a23" stroke="#d39a23" stroke-width=".1" d="M488.8 179.8l5-5 .1 5.1-.2.8c-.6 1.8-.7 3.6-.9 5.4a40 40 0 0 1-3.8 1l-.2-7.3z"/><path fill="#795332" stroke="#795332" stroke-width=".1" d="M836.2 175l2.9 1.4a19 19 0 0 1-1.1 2.5c-1.4-.2-2.4-2.6-1.8-3.8z"/><path fill="#52300d" stroke="#52300d" stroke-width=".1" d="M679 178c2.3-1 4.5-.1 6.5 1-1 1.4-2.3 2.6-3.5 3.8l-1 .3c-19.2 5.7-38.2 12-57.2 18.7-4.6 1.2-8.1 5.8-13 6l1.2-2.4c2.4-2.4 4.5-5 6.8-7.5 20-6.6 40-13.5 60.2-20z"/><path fill="#a97f3c" stroke="#a97f3c" stroke-width=".1" d="M802 185.2c.2-2.8-.2-5.8.8-8.5.1 4.9.2 9.7 1 14.5l-3.9-2c2.7.4 2-2.3 2-4z"/><path fill="#d78c1d" stroke="#d78c1d" stroke-width=".1" d="M764.4 184.5c7.6-3 15.3-6.4 23.5-6.4 1.2 4.3-.4 8.8-.6 13.2-9.6 3.5-19.5 6.4-29 10 3-5.3 1.5-12.4 6.1-16.8z"/><path fill="#ecd02d" stroke="#ecd02d" stroke-width=".1" d="M447 194.2c13.7-5.4 27.9-9.4 41.8-14.3l.2 7.3c.6 11.6 3.4 23 4 34.7-4 5-11.7 4.6-17 7-4.6 5.4-12.7 2.7-17.7 6.9-.2-2.2-1.6-3.7-3.3-5-3.2-12-5.1-24.4-8-36.6z"/><path fill="#a98647" stroke="#a98647" stroke-width=".1" d="M492.8 186c.2-1.7.3-3.6.9-5.3.2 3.2.6 6.4 0 9.6-.5-1.4-.7-2.8-.9-4.2z"/><path fill="#de9c1e" stroke="#de9c1e" stroke-width=".1" d="M723 184.1c3.9-2.2 8.5-.4 12.1-3 1.5-.7 2.1 1.3 3 2-.5 2.7-1.2 5.4-2 8-5-2-10.9 1.1-13.9 5.1-1.8 2.2-3.2-2.3-5.3-2.2-5.9-.2-6 9.8-13 7-3.4-.7-5.7 1.9-8.2 3.8-3.5.8-8.2-2.4-10.3 1.6-5 .7-5.8 6.5-8 10.1a10 10 0 0 0-1.4 5.6l-.8 1c-2.2-6.6 3.3-12.4 5.8-18.1 3.2-7.5 11.7-9.4 18.1-12.6 3.3.1 6.3-1.7 9.6-.8 3.5-4.7 9.5-5 14.4-7.5z"/><path fill="#caa94a" stroke="#caa94a" stroke-width=".1" d="M681 183l1-.2c-.5 3.6-1.2 7.1-2.7 10.4.3-3.4.9-6.8 1.8-10.1z"/><path fill="#c4b252" stroke="#c4b252" stroke-width=".1" d="M615 193c.4-2.7.8-6.3 3-8-.3 2.8-.8 6-3 8z"/><path fill="#e5bb27" stroke="#e5bb27" stroke-width=".1" d="M489 187.2a40 40 0 0 0 3.8-1.1 177.6 177.6 0 0 1 5.2 29c.4 2.7 0 4.5-3 3 .5 7 .7 14 1.6 21a7 7 0 0 1-.9 4.6c-8.1 4.3-17.3 6-25.8 9.2-2.6 2.7-6.4 1.9-9.8 2.1-1.1-8.2-4.2-16-5-24.2 1.6 1.3 3 2.8 3.2 5 5-4.2 13-1.5 17.6-6.9 5.4-2.4 13.1-2 17-7-.4-11.7-3.3-23.1-3.9-34.7z"/><path fill="#844b15" stroke="#844b15" stroke-width=".1" d="M736.2 194.2a50 50 0 0 0 5.9-7.1c-.9 9-3.8 17.8-5.2 26.8-2 1-4 1.8-6 3 .4-2 .9-4 1.1-6 .9-4.4 2.1-8.7 3-13 .3-1.3.8-2.5 1.2-3.7z"/><path fill="#4e2e0d" stroke="#4e2e0d" stroke-width=".1" d="M793.2 189.3c2.2-.6 4.7-2 6.7 0l3.9 2 .3.6c-3.4-.5-5.9 2.2-9.1 2.3-2.5.2-4-1.6-5.4-3.3l3.6-1.6z"/><path fill="#db931c" stroke="#db931c" stroke-width=".1" d="M722.2 196.2c3-4 9-7.2 13.9-5.1v3.1L735 198c-3.7 4.7-10.6 2.5-14.9 6.1-12.2 4.3-24.8 8-37 12-3.5.5-5 3.8-7.1 6 0-1.9.4-3.8 1.4-5.5 2.2-3.6 3-9.4 8-10.1 2.1-4 6.8-.8 10.3-1.6 2.5-2 4.8-4.5 8.3-3.9 7 3 7-7.1 13-6.9 2-.1 3.4 4.4 5.2 2.2z"/><path fill="#371f0b" stroke="#371f0b" stroke-width=".1" d="M787.3 191.3l2.3-.5c1.4 1.8 3 3.6 5.4 3.4l-.2.7c-13.2 3-25.8 8.1-38.5 12.6a9.3 9.3 0 0 1-6.5 1.3l4.3-4.4c1.4-1 2.8-2 4.1-3.2 9.6-3.5 19.5-6.4 29.1-10z"/><path fill="#947134" stroke="#947134" stroke-width=".1" d="M438.9 191.8c1.4.2 3 .3 4.3 1l-1.4 3.2c-1.2-1.2-2-2.8-3-4.2z"/><path fill="#806a4c" stroke="#806a4c" stroke-width=".1" d="M428 195c.2-1.7 2.9-1.1 4.1-1.8-.8 2-1.3 4.6-3 5.9l-1.1-2c1.4-1.1 3-2.5 0-2.1z"/><path fill="#d29324" stroke="#d29324" stroke-width=".1" d="M443.2 192.7l3.8 1.5c2.9 12.2 4.8 24.5 8 36.6.9 8.2 4 16 5.1 24.2 1 6 2.5 12 4 18 .3 2.4.7 4.8.7 7.2-.4-3-3-4.5-5.7-5.3-6.4-26.1-10.5-52.8-17.3-78.9l1.4-3.3z"/><path fill="#bc9944" stroke="#bc9944" stroke-width=".1" d="M678.2 193l1 .2c-1 3.8-1.3 7.9-3.2 11.3 0-4 1.3-7.7 2.2-11.4z"/><path fill="#eeeb9e" stroke="#eeeb9e" stroke-width=".1" d="M377 212.2c17-5.8 34-12 51-17.2 3-.4 1.4 1 0 2a38.8 38.8 0 0 0-6.1 5.9c-4 1.2-8 2.2-11.8 3.6-7.7 2.5-15.3 5-22.9 7.7l-6.5.7c-1.3-.6-2.4-1.3-3.6-2v-.7z"/><path fill="#cb9027" stroke="#cb9027" stroke-width=".1" d="M421.9 202.9c1.8-2.2 3.9-4.1 6-5.8l1.2 2c-6.6 16.1-7.7 34-11.4 50.9l-1-.3c-.9-3.5 5-12.9-2-12 1.9-11.7 4.3-23.3 7.2-34.8z"/><path fill="#db8a1a" stroke="#db8a1a" stroke-width=".1" d="M720.1 204c4.3-3.6 11.2-1.4 14.9-6.1-.9 4.3-2.1 8.6-3 13-4.1-1-7.6 3.6-12 1.8-3.6-.6-6.7 2-9.4 3.9-2.6 2.1-6-.4-8.8 1.2-1.8 1.3-6.7.8-3 3-5.2 3-12 0-16.7 4.3-1.6 3.2-5.6 1.4-8.3.8l.6-1.7.8-1.1.8-1c2.1-2.3 3.6-5.6 7-6 12.4-4 24.9-7.8 37.1-12z"/><path fill="#844b12" stroke="#844b12" stroke-width=".1" d="M555 206.1c1.6-1 2.5-3 4-4.1-1.1 4.4-4.4 7.8-6 12-2 3.6-3.1 7.8-6.2 10.8-3.7 4.3-6 10.3-11.8 12.4 4.8-9.8 10-19.4 15.3-29l2.5-4.5c.7.8 1.4 1.7 2.2 2.4z"/><path fill="#b29457" stroke="#b29457" stroke-width=".1" d="M748 210c.6-2.8 2-5.6 3.8-8 .1 1.3 1 2.1 2.3 2.4l-4.3 4.4-1.9 1.3z"/><path fill="#f0d730" stroke="#f0d730" stroke-width=".1" d="M410 206.5c4-1.4 8-2.4 11.9-3.6-2.9 11.5-5.3 23-7.2 34.8-2.4 11.3-4.4 22.8-6.6 34.2l-.9 3.6c-2-.6-3.6-2-3.6-4.1-.5-6.6-2-13.8.8-20 1.8-3.7 1.4-7.9 2-11.8 2.7-3.5-1.4-5.4-1.1-8.4 1.9-2.3 1-5.3 1.3-8 5.1-3.7 4-11 3.4-16.7z"/><path fill="#b0995d" stroke="#b0995d" stroke-width=".1" d="M608 210c.9-2 1.4-5.8 2.9-6.9l1 2.3-1.2 2.4c-.8.9-1.6 1.8-2.8 2.3z"/><path fill="#eacc2c" stroke="#eacc2c" stroke-width=".1" d="M387.2 214.2c7.6-2.7 15.2-5.2 22.9-7.7.5 5.6 1.6 13-3.6 16.7-.2 2.7.7 5.7-1.3 8-.2 3 3.9 4.9 1.2 8.4-.6 4-.2 8.1-2 11.8-2.8 6.2-1.3 13.4-.8 20 0 2.2 1.6 3.5 3.6 4-.3 3.4-1 6.7-2 10l-2.9-.7c-4-6.8-4.4-15-6.6-22.4-3.7-5.8-12 2.4-16.8-2.2-1.3-2.6-4.5-1.4-6.8-1.9-2.6-.3-.6 6.8-3.4 5 1.8-12.4 4.1-25 7.5-37 .8-1.2.8-2.7 1-4 1.4-2.2 3.1-4.1 5-6l5-2z"/><path fill="#e2b529" stroke="#e2b529" stroke-width=".1" d="M544.3 209.2c2-.5 4-.7 6-1-5.2 9.6-10.5 19.2-15.3 29-1.8 3.2-3.3 6.6-5 9.8-2.1-.8-4.6-1.1-6.2.8-5 6.5-8.3 14.3-12.6 21.1l-4.3-3.1.9-1.6c2.7-4 4-9.6 7-12.8 5.2.2 7.5-6 10-9.5 6-11.2 11.8-22.6 19.5-32.7z"/><path fill="#d88519" stroke="#d88519" stroke-width=".1" d="M720 212.7c4.4 1.8 7.9-2.8 12-1.9l-1 6.2-2 5-3 6.1c-3.9 5.3-8 10.7-13.7 14.2-3.7 1-7.6 2-10.2 5-9.9 3.5-19.8 7-29.9 10-3.2-.2-6.3.3-9.1 1.7-17.5 5.4-34.7 11.5-52 17.3-6.5 3.3-14 4.2-20.7 7l-1.3 2c-11.8 4.8-24 8.4-36 12.4l-2.9-1c5.4-13.2 12.5-25.6 18.7-38.5 2 .3 3.9.8 5.9 1a24 24 0 0 0 11.5.1c24.3-7.6 48.3-16.6 72.4-24.7 4.4-1.7 9.2-3 12.6-6.4l2.5-2.3c2.7.6 6.7 2.4 8.3-.8 4.7-4.3 11.5-1.2 16.8-4.3-3.8-2.2 1.1-1.7 3-3 2.6-1.6 6.1 1 8.7-1.2 2.7-2 5.8-4.5 9.4-4z"/><path fill="#e0bd3f" stroke="#e0bd3f" stroke-width=".1" d="M377 213l3.7 2 1.4 1.2a40.4 40.4 0 0 0-5 6V213z"/><path fill="#f7ec74" stroke="#f7ec74" stroke-width=".1" d="M380.7 215c1.6-.3 4.9-.6 6.5-.8l-5 2-1.5-1.3z"/><path fill="#653911" stroke="#653911" stroke-width=".1" d="M731 217c1.8-1.3 3.9-2.2 6-3-1 2.5-1 6.6-3 8h-5l2-5z"/><path fill="#e0a822" stroke="#e0a822" stroke-width=".1" d="M498 215h1c-.5 7.9 3 15.3 3 23 .7 2.8-.8 3-3 2-.1 7.3 1.4 14.6 1 21.8-3.7 2.4-9 .7-12.5 3.8-4.1 3.6-10.6 1.5-14.8 5-2.6 1.6-5.5 4.2-8.7 2.4-1.4-6-2.9-12-3.9-18 3.3-.2 7.2.6 9.8-2 8.5-3.3 17.7-5 25.8-9.3 1-1.4 1-3 .9-4.6-1-7-1-14-1.6-21 3 1.5 3.4-.3 3-3z"/><path fill="#e0b733" stroke="#e0b733" stroke-width=".1" d="M671.3 218.9c1.1 1.7 2.2 3.4 3 5.3 0 .4-.3 1.3-.5 1.7l-2.5 2.3-3.2-4.4 3.2-5z"/><path fill="#512d0d" stroke="#512d0d" stroke-width=".1" d="M729 222h5a9.9 9.9 0 0 1-3 7.2c-1.7-.2-3.4-.6-5-1l3-6.2z"/><path fill="#ecdb44" stroke="#ecdb44" stroke-width=".1" d="M659.8 228.7c3.4-.7 5.8-2.8 8.3-5 1 1.6 2.1 3 3.2 4.5-3.4 3.4-8.2 4.7-12.6 6.4-24.2 8.2-48 17-72.4 24.7-3.9-.2-7.7-.4-11.5 0l-6-1.1c-1.2-2-2-4.2-2.8-6.3 3 .4 5.9 1.3 8.7 2.3 3 1 6.5 1.1 9.6.2 25.4-7.8 50.2-17.6 75.5-25.7z"/><path fill="#6a3d11" stroke="#6a3d11" stroke-width=".1" d="M535 237.2c5.8-2 8.1-8.1 11.8-12.4.4 2.5-1.7 4.2-2.7 6.3l-12.7 24.2-1.4 1.6c-2.2.4-4.2 1.3-6.3 2 1.7-4.2 4-8 6.3-11.9 1.7-3.2 3.2-6.6 5-9.8z"/><path fill="#f0eda1" stroke="#f0eda1" stroke-width=".1" d="M305.1 236.2c11.3-3 22.1-8.8 33.9-10.2h8c1.5-.3 2.6.6 3 2-3 1-6 2-9.2 2.8-29.4 7.7-57.8 19.2-86.9 28.2-9.1 3-18.2 6.8-27.6 9.2-2-1.1-4-2-6.4-2.4 6.7-4.5 15.7-5.4 23.2-8.7 20.6-7 41.4-13.6 62-20.9z"/><path fill="#f5ef7a" stroke="#f5ef7a" stroke-width=".1" d="M340.8 230.8c3.1-.8 6.2-1.8 9.3-2.9h1l-.2.9c-1.9 1-3.6 2-5.7 2.4l-4.4-.4z"/><path fill="#361e0a" stroke="#361e0a" stroke-width=".1" d="M726 228.1c1.6.5 3.3.9 5 1.1a44.5 44.5 0 0 1-24 21.7c-17.6 6.5-35.4 12.5-53.1 18 1.8-2.2 4-4.2 5.4-6.8 4.2-1.8 8.6-3.2 13-4.8 10-3 20-6.5 29.8-10 3.6-1.2 7.3-2.5 10.2-5 5.6-3.5 9.8-8.9 13.7-14.2z"/><path fill="#f0d634" stroke="#f0d634" stroke-width=".1" d="M345.2 231.2c2-.4 3.8-1.5 5.7-2.4 1.4.3 2.4 1.7 2.1 3.2v3c-1.2-.6-2.4-1-3.8-1-.8 2.6-1.3 5.2-1.2 8-1.6 11.3-4 22.7-6.9 33.8l-2.1 5.3-1.8 2.8a30 30 0 0 1-12.2 8.5c-1-.8-1-1.6-.1-2.4a27 27 0 0 0 6.9-3.1 60.5 60.5 0 0 0 7.7-18.3c2.6-5.9-3.4-11.1-1-17 .8-4.9 6.6-8.7 5.6-13.7-2.2-2.3 1.7-4 1.1-6.7z"/><path fill="#ecd231" stroke="#ecd231" stroke-width=".1" d="M254 259c29-9 57.4-20.5 86.8-28.2l4.4.4c.6 2.7-3.3 4.4-1 6.7-5 1.3-11.9-3-15.5 1.8-1.7 2.6-5.1-.4-7 2-4 2.3-11-.5-13 5.5.1 2.8-3.3 2.9-4.9 4.4 2.5.5 5.2.8 7.1 2.6.2 1.4.3 3-1.6 3-.6-1-1.3-2.2-2-3.1-2.3-1-5-2.4-7.4-1.4-8.5 2.3-16.6 5.6-25 8.2-3.2 1-6.6 2-9.4 4-2.8 7.8-3 16.1-5.3 24-1.5.2-3 .3-4.2 1-2 .9-2.2 4.3-4.7 4 .7-4.5-4.8-2-6.2.2-4.7 2.9-11.8.4-15.4 5.6-1.4.9 1.9 2.6.3 3.3-4 2.3-5.8 6.8-7.1 11-3.9 7.1-9.2 13.8-11.1 21.8l-1-.5c2.8-18.4 7.4-36.6 10.6-55l.7-1.2c.5-1 .8-1.9 1-3 2.8-1.4 5.8-3 3.3-7l-.1-1c9.4-2.3 18.5-6 27.6-9.1z"/><path fill="#e1af26" stroke="#e1af26" stroke-width=".1" d="M349.2 234c1.4 0 2.6.4 3.8 1v7c-1.7-.5-3.4-1-5 0 0-2.8.4-5.4 1.2-8z"/><path fill="#edd22d" stroke="#edd22d" stroke-width=".1" d="M328.7 239.7c3.6-4.8 10.5-.5 15.4-1.8 1 5-4.8 8.8-5.6 13.7-2.4 5.9 3.6 11.1 1 17a60.5 60.5 0 0 1-7.7 18.3 27 27 0 0 1-7 3c3.4-5.1 5-11.2 7.6-16.8-.4-2.4-.4-6.4-5.4-3.1-9-1-18.2 2.2-24.6 8.4-1.3 1.6.4 3.6 1 5 .1 2.3 0 4.5-.2 6.7l-3 1a6.8 6.8 0 0 1-1.8-5.2c3.3-6.8 3-14.7 5.7-21.8a71 71 0 0 0 2.3-4c2 .3 2.9-1 3-2.9 1.8 0 1.7-1.6 1.5-3-1.9-1.8-4.6-2.1-7-2.6 1.5-1.5 4.9-1.6 4.8-4.4 2-6 9-3.2 13-5.5 1.9-2.4 5.3.6 7-2z"/><path fill="#da971d" stroke="#da971d" stroke-width=".1" d="M408.1 271.9c2.2-11.4 4.2-22.9 6.6-34.2 7-.9 1.1 8.5 2 12-2.3 7.2-3.1 14.8-4.7 22.2-1.3-.2-2.6-.5-3.9 0z"/><path fill="#da961e" stroke="#da961e" stroke-width=".1" d="M502 238h1c0 6.2 1.6 12.3 2.4 18.4-.3 2.9.9 5.5 2.4 7.8l-.9 1.6c-1.1 1.2-3.2 2-2.8 4 2.4 1.7 5.1 1.3 7-.9 4.4-6.8 7.7-14.6 12.7-21.1 1.6-2 4-1.6 6.2-.8-2.2 3.9-4.6 7.7-6.3 11.9-2.4 4.7-4.8 9.5-7.7 14-1.9-1.3-3.3.3-5 1.2-6.7 4.6-16.7 1.6-22.4 8.2-2 0-4-.6-5.6.7a25.5 25.5 0 0 1-14.6 4.5l-2.4-3.6a40 40 0 0 1-1.2-3.7c0-2.4-.4-4.8-.8-7.2 3.2 1.8 6-.8 8.7-2.3 4.2-3.6 10.7-1.5 14.8-5.1 3.5-3 8.8-1.4 12.4-3.8.5-7.2-1-14.5-1-21.7 2.3.8 3.8.7 3.2-2z"/><path fill="#d19124" stroke="#d19124" stroke-width=".1" d="M348 242c1.6-1 3.3-.5 5 0v2c-2.3 11-3.5 22.4-7 33.2-1.9.9-3-1.4-4.9-1.4 3-11.1 5.3-22.5 6.9-33.9z"/><path fill="#b57631" stroke="#b57631" stroke-width=".1" d="M702 247.2c2.7-3 6.6-4 10.3-5a27.2 27.2 0 0 1-10.2 5z"/><path fill="#b48038" stroke="#b48038" stroke-width=".1" d="M412 272c1.6-7.5 2.4-15.1 4.8-22.3-1 15.4-5.4 30.3-8 45.5l-1-.2c.7-7.8 2.5-15.4 4.2-23z"/><path fill="#6b3f10" stroke="#6b3f10" stroke-width=".1" d="M299.9 252.7c2.5-1 5 .3 7.3 1.4-.6 1.8-2 3.2-3.2 4.6-9-1.3-17.3 4-25.7 6.6-3 1.4-7.3 1.5-9 4.8-.6-2.2-2.6-3.4-3.8-5.2 2.8-2 6.2-3 9.4-4 8.4-2.6 16.5-5.9 25-8.2z"/><path fill="#d7a32e" stroke="#d7a32e" stroke-width=".1" d="M564 255c.6-1 .8-2.6 2-3.1.8 2.1 1.6 4.3 2.9 6.3-6.2 12.9-13.3 25.3-18.7 38.6l3 .9c-4.5 1.4-8 4.3-11.2 7.7l-1.1-2.2c7-16.4 16.2-31.8 23-48.3z"/><path fill="#cd981c" stroke="#cd981c" stroke-width=".1" d="M307.2 254c.8 1 1.5 2.1 2.1 3.2 0 2-.8 3.2-2.9 2.9l-2.4-1.4c1.3-1.4 2.6-2.8 3.2-4.6z"/><path fill="#aca448" stroke="#aca448" stroke-width=".1" d="M574.7 254.2c3.2-.1 6.5-.5 9.6.2-3 1-6.5.8-9.6-.2z"/><path fill="#57310d" stroke="#57310d" stroke-width=".1" d="M523.8 258.9c2-.7 4-1.6 6.2-2-3.9 10.2-9.9 19.5-15 29.1-1.9 1.8-3.5 0-5-1.1l6-12c2.9-4.5 5.3-9.3 7.8-14z"/><path fill="#c98e31" stroke="#c98e31" stroke-width=".1" d="M663 259c3-1.4 6-2 9.2-1.7-4.3 1.6-8.7 3-13 4.8-11.7 3.1-23 7.6-34.4 11.8l-2.5 1.2c-2.3 0-4.5.8-6.6 1.6-9 2.7-17.6 6.2-26.6 8.5l1.3-1.8c6.7-2.9 14.2-3.8 20.8-7 17.2-6 34.4-12 51.9-17.4z"/><g fill="#e5ba26" stroke="#e5ba26" stroke-width=".1"><path d="M368.7 263.3c2.8 1.7.8-5.4 3.4-5.1 2.3.5 5.5-.7 6.8 2 4.8 4.5 13-3.7 16.8 2.1 2.2 7.4 2.6 15.6 6.6 22.4l3 .7c-.4 2.9-1 5.7-1.5 8.6l-.9 4.2c-9.4-3-4.3-18.3-13.9-21.1-7.5 4.1-14.7 9.5-23.8 8.6l-.3-1.6c.2-7.2 2.7-14 3.2-21.1l.6.3zM142.6 366.8c.7-5 2-10 3-15 1.3 3.9 8.3.7 9.6 5 2.4 3.8 5 7 10.2 5.7 3.5 6.2 11.8 3 16.8 6.9l-.1 1.6c-.2 2.2-1.1 4.1-2 6-2.9 4.7-8.7 1-12.8 3.3-3.4 1.4-7.5 4-11 1.5-2.5-2.6-.8-7.7-5.3-8.8-3.3-1.3-8.3-1.3-8.4-6.2z"/></g><path fill="#d2b951" stroke="#d2b951" stroke-width=".1" d="M304 258.7l2.4 1.4a71 71 0 0 1-2.3 4v-5.4z"/><path fill="#ebc037" stroke="#ebc037" stroke-width=".1" d="M574.8 259.2c3.8-.3 7.6-.1 11.5.1a24 24 0 0 1-11.5 0z"/><path fill="#4f2b0a" stroke="#4f2b0a" stroke-width=".1" d="M624.8 274c11.3-4.3 22.7-8.8 34.5-11.9-1.3 2.6-3.6 4.6-5.4 6.8h-.9c-9-.3-17.6 3-26 5.9l-2.2-.9z"/><path fill="#c69f34" stroke="#c69f34" stroke-width=".1" d="M220 265.8c2.2.3 4.3 1.3 6.3 2.4l.1.9-3.4 1.1-1-.2-.7-1.3-1.4-3z"/><path fill="#f4d63d" stroke="#f4d63d" stroke-width=".1" d="M504 269.8c-.3-2 1.8-2.8 3-4l4.1 3.1c-1.9 2.2-4.6 2.6-7 .9z"/><path fill="#e2ba25" stroke="#e2ba25" stroke-width=".1" d="M226.4 269c2.5 4-.5 5.7-3.2 7.2l-.2-6 3.4-1.1z"/><path fill="#42250c" stroke="#42250c" stroke-width=".1" d="M627 274.8c8.4-3 17-6.2 26-5.8l-.1.8c-17.9 5.6-35.5 11.7-53.2 17.8-13.6 4.8-27.6 8.6-41 14-6.3.5-11.6 5.1-17.9 5.3l1.2-1.5c3.1-3.4 6.7-6.3 11.1-7.7 12-4 24.3-7.6 36-12.5 9-2.3 17.7-5.8 26.6-8.5 2.3.3 5.1.8 6.6-1.6l2.5-1.2 2.2.9z"/><path fill="#e0c347" stroke="#e0c347" stroke-width=".1" d="M222 270l1 .3c0 2 0 3.9.2 5.9-.3 1-.6 2-1.1 2.9v-9z"/><path fill="#eaca2a" stroke="#eaca2a" stroke-width=".1" d="M302.4 278.4A31.4 31.4 0 0 1 327 270c5-3.3 5 .7 5.4 3.1-2.5 5.6-4.2 11.7-7.5 16.8-1 .9-.9 1.7.1 2.5-2 1-3.9 2.1-5.6 3.5l-.7.5c-.3-1.7 1-3.2.8-4.8 1.7-4.6-2.4-5.8-5.5-6.4-3.5 2-7.5 2.4-10.8 5 .2-2.3.3-4.5.2-6.7-.6-1.5-2.3-3.5-1-5z"/><path fill="#d68817" stroke="#d68817" stroke-width=".1" d="M408.1 271.9c1.3-.5 2.6-.2 3.9 0-1.7 7.7-3.5 15.3-4.1 23.1-1.5-.1-2.8-.5-4.1-1 .4-2.9 1-5.7 1.5-8.6.8-3.3 1.6-6.6 2-10l.8-3.5z"/><path fill="#d68a1d" stroke="#d68a1d" stroke-width=".1" d="M511 274.1c1.7-.9 3.1-2.5 5-1.2l-6 12c-13.5 4.2-26.6 9.3-40 13.5-2.3-4.5-3.1-9.6-4-14.5l2.4 3.6c5.2.2 10.2-1.8 14.6-4.5 1.6-1.3 3.7-.7 5.6-.7 5.7-6.6 15.7-3.6 22.5-8.2z"/><path fill="#b4691b" stroke="#b4691b" stroke-width=".1" d="M459 275c2.8.7 5.4 2.1 5.8 5.2a40 40 0 0 0 1.1 3.7c1 5 1.8 10 4 14.5l-3.2 3.7c-1-1-1.8-2.2-2.6-3.3-1.7-7.9-4.3-15.8-5-23.9z"/><path fill="#562e09" stroke="#562e09" stroke-width=".1" d="M615.7 276.7c2.1-.8 4.3-1.6 6.6-1.6-1.4 2.4-4.3 1.8-6.6 1.6z"/><path fill="#bf7717" stroke="#bf7717" stroke-width=".1" d="M341.1 275.8c1.9 0 3 2.3 5 1.4-.3 1.8-1.3 3.4-2.2 5l-5-1 2.3-5.4z"/><g fill="#e0a722" stroke="#e0a722" stroke-width=".1"><path d="M365.2 285.7c9.1 1 16.3-4.4 23.8-8.6 9.6 2.8 4.5 18 14 21.1-.5 3.6-1.4 7-2.2 10.5-3 2-2.6 7.7-6.6 7.3-1.2-7.2-2.9-14.4-3.5-21.7-1.4-1.5-3-4.2-5.4-3-5.9 5.5-11.7 11.1-18.3 15.7-1.6 2.4-4.7 1.6-7.1 2.3 1-8.4 3.2-16.8 4.2-25.3h.8l.3 1.7zM217.6 344.6c2.6-3.7 7.2-4.7 10.6-7.5 3.6-.3 8 .4 9.4 4.3 2.7 11 3 22.6 4.3 34-1.2.5-2.6.5-4 .7-1.5-8 .7-20.5-8.9-24-2.4 1.4-4.4 3.9-7.8 3.2-5 3.5-10 7.6-12.6 13.3-1.3 1-5.2 5.3-4.7 1.5 1.2-2.6-.3-8.7 2-10l.3 2c1.2-2.4 2.3-4.9 3.9-7 2.7-3.4 3.9-7.9 7.5-10.5z"/></g><path fill="#955c15" stroke="#955c15" stroke-width=".1" d="M339 281.1c1.6.5 3.2.8 4.9 1 .4 1.7-1.1 2.7-2 3.8l-4.7-2 1.8-2.8z"/><path fill="#f0e773" stroke="#f0e773" stroke-width=".1" d="M182.7 283.6c5.1-.8 10.2-1.1 15.4-1.7 2 .6 2.7 3.4 2.9 5.3-2-4.3-6.2-2.2-9.8-2.9a485 485 0 0 0-8.5-.7z"/><path fill="#edd52f" stroke="#edd52f" stroke-width=".1" d="M163.3 290.3c6-3.6 12.8-5 19.4-6.7l8.5.7a21 21 0 0 1-4.7 3.3c-1 1.9-1.5 4.2-3.2 5.6-3.5 2.4-9.7-.4-11.2 4.9-2.3 4.7-8.2 5.7-10.6 10.3-1.6 4-4 7.4-5.6 11.3 5.6-1 5.5 4.8 7.3 8.2 5.5 1.4 11.6-.2 16.7 2.2 3.7 4 5.5 10.2 4.4 15.6l2.9 1.5c-.2 1.6-.5 3.2-1.2 4.7-1.8 1.8-1.5 6-5 5.1-2 .4 0-2.6-.2-3.8-1.3-1.3-3.2-2.1-4-3.9-2-2.7.5-6.8-2-9.3-2.9.9-5.5 3.4-8.7 2.8-2.6-.5-6 .5-7.7-2-.1-2.2.2-4.4.2-6.6a8.1 8.1 0 0 0-5-3.2 17 17 0 0 1-4.5 8l-.4-2.2c1.9-8.2 3.1-16.6 4.3-24.9 1.6-.5 3.3-.8 5-1.2 0-1.5-.3-3-.5-4.5 1-2.7-4-2.7-5.5-4-4.3-.1-8 2.3-12.1 2.8 3.2-4.1 7.3-7.5 11.2-11 4-1.3 8.3-1.9 12.2-3.8z"/><path fill="#f1dc31" stroke="#f1dc31" stroke-width=".1" d="M191.2 284.3c3.6.7 7.9-1.4 9.8 3v3.6c-2.6.4-7.3-1-4.1 5-.1 4.9-1.2 9.5-1.8 14.2-2.7 12.4-5.1 24.8-8 37l-2.8-1.4c1.1-5.4-.7-11.6-4.4-15.6-5.1-2.4-11.3-.8-16.7-2.2-1.8-3.4-1.7-9.2-7.3-8.2 1.6-3.9 4-7.4 5.6-11.3 2.4-4.6 8.3-5.6 10.6-10.3 1.5-5.3 7.7-2.5 11.2-4.9 1.7-1.4 2.2-3.7 3.2-5.6a21 21 0 0 0 4.7-3.3z"/><path fill="#6d4112" stroke="#6d4112" stroke-width=".1" d="M337.2 284c1.6.5 3.1 1.2 4.7 1.9-2.5 4.4-7.2 8-12 10.1-2.2 1.3-5.7 1.7-5.2 5.2l-1-2c-1-1.5-3-2-4.3-3.3 1.7-1.4 3.6-2.5 5.6-3.5a30 30 0 0 0 12.2-8.5z"/><path fill="#341d0a" stroke="#341d0a" stroke-width=".1" d="M470 298.4c13.4-4.2 26.5-9.3 40-13.5 1.5 1.1 3.1 2.9 5 1.1.5 2.2-1.7 3-3.3 3.6A959 959 0 0 1 466 305l.7-2.9 3.2-3.7z"/><path fill="#f1eb84" stroke="#f1eb84" stroke-width=".1" d="M298.4 286c-.1 1.9.4 3.7 1.8 5.1-5.5 4-12.3 5.3-18.5 7.5-6.8 2.3-13.4 6-20.8 5.4.2-2 2-3.3 3.2-4.9 9.7-3 19.3-6.7 29-10 2-.6 3.6-2 5.3-3.2z"/><path fill="#b99f4b" stroke="#b99f4b" stroke-width=".1" d="M201 287.2l1-.2v12c-.5 1.4 1.1 5-1 5v-13-3.8z"/><path fill="#eac92c" stroke="#eac92c" stroke-width=".1" d="M256 290c1.2-.8 2.7-.9 4.2-1-.4 3.4-1.3 6.7-2 10l5.9.1c-1.3 1.6-3 2.8-3.2 5 7.4.5 14-3.3 20.8-5.5 6.2-2.2 13-3.5 18.5-7.5l3-1c-2.6 2.6-5 5.8-8.8 6.4-5.8 1.2-11 3.8-16.6 5.3-1.2 1-4 2.7-1.6 4 2.6 1.7 6.8 5.7 3 8.4-.2-.3-.7-1-1-1.2-2.3-3-6.6-2.2-9.5-.5-4.5 2.1-9.9 2.5-13.9 5.6-2.6 11-4.9 23-7.7 34.2a9 9 0 0 1-2.9-1.6c-2.7-9.1-.9-19-3.8-28-2.6-5.3-9.7-3.8-13.4-.7a73.7 73.7 0 0 0-17.8 25.2l-.2-2.1c-.3-3.4.8-6.8 1-10.1l.7.3 1 .5c2-8 7.3-14.7 11.2-21.9 1.3-4.1 3.2-8.6 7.1-10.9 1.6-.7-1.7-2.4-.3-3.3 3.6-5.1 10.7-2.7 15.4-5.6 1.4-2.2 7-4.7 6.2-.1 2.5.2 2.6-3.2 4.7-4z"/><path fill="#dca928" stroke="#dca928" stroke-width=".1" d="M196.9 296c-3.2-6.1 1.5-4.7 4-5l.1 13c.2 2.2-.4 4.3-1.3 6.2l-1-3.2a9.5 9.5 0 0 0-3.6 3.1c.6-4.7 1.7-9.4 1.8-14.1z"/><path fill="#d99720" stroke="#d99720" stroke-width=".1" d="M385.3 291.3c2.4-1.2 4 1.5 5.4 3 .6 7.3 2.3 14.5 3.5 21.7 4 .4 3.6-5.3 6.6-7.3 0 3.5 0 7 .3 10.4 1.4-.2 2.7-.5 4-1v2c-.2 1.1-.5 2.1-1 3.1-6.8-3-13.5 2.4-20 4.2-2.5-2 2.9-2.1 1.9-4.4-2.3-5.4-1.1-11.4-3.2-16.9-3.2-1-5.8 1.2-6.7 4-3.7 3.3-7.9 6.1-11.8 9.2-3.2 5.2-4.3 11.2-6 16.9l-5.3 5.2-1.2-2.4c3.6-9.5 6-19.5 7.3-29.6l.8-.1c2.4-.7 5.5 0 7-2.3 6.7-4.6 12.5-10.2 18.4-15.8z"/><path fill="#e9cf39" stroke="#e9cf39" stroke-width=".1" d="M115.9 305.8c11.6-4.4 23.3-8.2 35.2-11.8-3.9 3.5-8 6.9-11.2 11 4.1-.5 7.8-3 12.1-2.8 1.5 1.3 6.5 1.3 5.5 4l-1-.4c-5.9-4-13 0-18.9 1.7-7 1.6-13.6 5.2-20.7 6.6-.2-3.5 5-2.3 6.7-3.7 4-2 8.6-2.4 12.8-4.2-6.9-.4-13.7 0-20.5-.4z"/><path fill="#c17115" stroke="#c17115" stroke-width=".1" d="M403.8 294c1.3.5 2.6.9 4 1l1 .2c.5 1.3.2 2.2-.7 2.8-2.5 2.3-1.7 6.6-2.4 9.8-.5 3.4-.8 6.9-.7 10.3-1.2.5-2.5.8-3.9 1l-.3-10.4c.8-3.4 1.7-7 2.1-10.5l.9-4.2z"/><path fill="#ba8919" stroke="#ba8919" stroke-width=".1" d="M318.7 296.4l.7-.5c1.3 1.3 3.3 1.8 4.4 3.3h-.9l-3.9-.3-.3-2.5z"/><path fill="#996132" stroke="#996132" stroke-width=".1" d="M405.7 307.8c.7-3.2-.1-7.5 2.4-9.8-1 2.8.8 9.8-2.4 9.8z"/><path fill="#e4b423" stroke="#e4b423" stroke-width=".1" d="M319 299l3.9.1 1.1 5.6c-1.5 1-2.9 2.1-3.6 3.9-9.1 2.5-18.8 3.2-27.2 7.7-2.9 3.8-5.7 7.7-8.4 11.7-1-.2-1.9-.5-2.8-1l-1-4 1.9.8c4-3.5 2.1-9.8 4.5-14.3 5-2.2 9-6.3 14.6-7 5.2 0 10.5-1.2 15.4 1 3 1.5 1.9-3 1.6-4.6z"/><path fill="#caaa4e" stroke="#caaa4e" stroke-width=".1" d="M322.9 299.1h.9l1 2a11 11 0 0 1 1.3 5.8l-2-2.2c-.4-1.9-.9-3.7-1.2-5.6z"/><path fill="#7f5633" stroke="#7f5633" stroke-width=".1" d="M464.1 298.8l2.6 3.3-.7 3c-1.9-1-1.7-4.4-1.9-6.3z"/><path fill="#897347" stroke="#897347" stroke-width=".1" d="M540.8 306.9c-3 3.6-1.8-3.9.1-3.7l1.1 2.2-1.2 1.5z"/><path fill="#e1a922" stroke="#e1a922" stroke-width=".1" d="M320.4 308.6c.7-1.8 2-3 3.6-3.9l2 2.3c1.4 1.6 2 3.8 2 5.9a9 9 0 0 0-3.8-1c-1.6 1.9-.6 5.2-3.2 6.1-3 1.2-5.9 3-9.2 2.7-7.7 4.4-18 4.7-24.6 11.5-1.3 2-2.9-.6-4.2-1.3l-1-3.8 2.8 1c2.7-4 5.5-8 8.4-11.8 8.4-4.5 18-5.2 27.2-7.7z"/><path fill="#eddd4e" stroke="#eddd4e" stroke-width=".1" d="M106.8 308.9c2.7-1.3 5.3-2.7 8.3-3-1.8 3-5.2 3.4-8.3 3z"/><path fill="#eccf2e" stroke="#eccf2e" stroke-width=".1" d="M115.1 306l.8-.2c6.8.4 13.6 0 20.5.4-4.2 1.8-8.8 2.1-12.8 4.2-1.6 1.4-6.9.2-6.7 3.7l-1.8 3c-2.5 9.4-3.7 19.2-6.1 28.7-1.4 2.7-2.8 5.3-4.4 7.8-3.8.9-8 1-11 3.9-6.9 1.8-15 2.5-19 9.2-.3 1.6-1.5 6.8-1.7 2.4 1.5-13.7 5.2-27.2 7.5-40.8l.7-2.1 1.2-6 3.6-1.4c-.2-1.3-.6-2.4-1-3.6 7.8-.1 14.4-4.7 21.9-6.3 3 .4 6.5 0 8.3-3z"/><path fill="#cd9a27" stroke="#cd9a27" stroke-width=".1" d="M156.6 305.8l.9.4c.2 1.5.5 3 .4 4.5-1.6.4-3.3.7-4.9 1.2v-2c1-1.4 2.3-2.8 3.6-4.1z"/><path fill="#d88a1b" stroke="#d88a1b" stroke-width=".1" d="M376.1 310.2c.9-3 3.5-5 6.7-4.1 2 5.5.9 11.5 3.2 16.9 1 2.3-4.4 2.4-2 4.4-8.6 2.8-17.4 5.2-25.8 8.8 1.8-5.7 3-11.7 6.1-16.9 3.9-3 8.1-5.9 11.8-9.1z"/><path fill="#cf8b22" stroke="#cf8b22" stroke-width=".1" d="M195 310.1c1-1.3 2.3-2.4 3.7-3l1 3.1c-2.2 17-7.2 33.7-10 50.7-.9 3.7-1.7 7.5-2.8 11.1-1.5-1.2-3.1-2.8-4.8-1l.1-1.6c1.6-5.8 3-11.6 3.8-17.5.7-1.5 1-3.1 1.2-4.7 2.8-12.3 5.2-24.7 7.9-37.1z"/><path fill="#98642d" stroke="#98642d" stroke-width=".1" d="M405 318.1c-.1-3.4.2-7 .7-10.3.4 4 .4 8.2 0 12.4h-.5l-.2-2z"/><path fill="#6c400f" stroke="#6c400f" stroke-width=".1" d="M268.7 312.5c2.9-1.7 7.2-2.4 9.6.5-2.1 1.5-3.9 3.3-3.4 6-1.3-.6-1-2.7-3-2-4.4 1-8.4 3.3-13 4.2-1.4-1-2.8-1.9-4-3 4-3.2 9.3-3.6 13.8-5.7z"/><path fill="#de9e20" stroke="#de9e20" stroke-width=".1" d="M324.2 312a9 9 0 0 1 3.8.9c-.1 5.5 2.8 10.4 4.7 15.4.6 3 1.2 6.3 3.2 8.9.9 1 1 2.4 1.2 3.7.5 2.4 1.3 5.2-2.3 4.3-2.6-.4-5.2.3-7.6 1.2a17.9 17.9 0 0 1-5.6-12c-3.2-5.4-11.3-2-14.8 1.3-6.7-.9-15.5 4.6-13.6 12.3.1 3.1-.2 7.1 2.9 9l-4 1.3-2.8-.5c-1.4-7.6-3.5-15-5.4-22.6l-.9-4.3c1.3.7 2.9 3.3 4.2 1.3 6.5-6.8 16.9-7 24.6-11.5 3.3.3 6.2-1.5 9.2-2.7 2.6-1 1.6-4.2 3.2-6z"/><path fill="#d5af32" stroke="#d5af32" stroke-width=".1" d="M79.9 313c1.6.8 3.3 1.6 5 2.2.4 1.2.8 2.3 1 3.6l-3.6 1.3-1-2.3-1-2-.4-2.8z"/><path fill="#ce8a23" stroke="#ce8a23" stroke-width=".1" d="M278.3 313l1 1.2c.4 3 1 6 1.7 8.9l1 4 1 3.8.9 4.3c-1.6-1.5-3.8-3.1-4.8 0-2.4-5-2.9-10.8-4.2-16.1-.5-2.8 1.3-4.6 3.4-6.1z"/><path fill="#bc9449" stroke="#bc9449" stroke-width=".1" d="M328 312.9c2.4.7.2 5.2 2.6 6.3.6 3 3.2 5.8 2 9-1.8-5-4.7-9.8-4.7-15.3z"/><path fill="#cb811e" stroke="#cb811e" stroke-width=".1" d="M115.1 317c2.3.7 4.6 1.3 4.2 4.2-3.5 16.9-6.8 33.9-10.1 50.9l-5.2 2v-3.3c1.6-8.3 4-16.5 5-25 2.4-9.5 3.6-19.3 6.1-28.7z"/><path fill="#e2c94d" stroke="#e2c94d" stroke-width=".1" d="M81.2 317.8l1 2.3-1 6v-8.3z"/><path fill="#cd831e" stroke="#cd831e" stroke-width=".1" d="M247 352.3c3-11.3 5.2-23.1 7.8-34.2 1.3 1.2 2.7 2.2 4.2 3-2 14-6.4 27.6-8.3 41.5l-.7.4c-2.3 3.3 0 8.8-1.8 12.9-1.7-.7-3.6-1-5.4-1l2.7-1.2a57 57 0 0 1 1.6-21.4z"/><path fill="#e4b726" stroke="#e4b726" stroke-width=".1" d="M227 322c3.8-3.1 10.8-4.6 13.3.7 3 9 1.2 18.9 4 28a9 9 0 0 0 2.8 1.6 57 57 0 0 0-1.6 21.4l-2.8 1.3-.8.3c-1.3-11.3-1.6-22.8-4.3-34-1.3-3.8-5.8-4.5-9.4-4.2-3.4 2.8-8 3.8-10.6 7.5-3.6 2.6-4.8 7.1-7.5 10.4-1.6 2.2-2.7 4.8-4 7.1l-.1-2c-.2-5.2 1.8-10 2-15h1l.2 2c4.4-9.2 10-18.3 17.8-25z"/><path fill="#a67c4c" stroke="#a67c4c" stroke-width=".1" d="M405.2 320.2h.6c-.2 1.4 2.1 4 .4 4.6l-2-1.6 1-3z"/><path fill="#39200b" stroke="#39200b" stroke-width=".1" d="M384 327.4c6.6-1.8 13.3-7.2 20.2-4.2l2 1.6c-18 7.4-37 12.6-55.4 19.1l2.2-2.5 5.2-5.2c8.4-3.6 17.2-6 25.8-8.8z"/><path fill="#af8b45" stroke="#af8b45" stroke-width=".1" d="M332.7 328.3l1-.2c.6 3 2.4 5.9 2.2 9-2-2.5-2.6-5.7-3.2-8.8z"/><path fill="#ebcb2a" stroke="#ebcb2a" stroke-width=".1" d="M153.6 331c2 .5 3.8 1.4 5 3.2 0 2.2-.3 4.4-.2 6.6 1.8 2.5 5.1 1.5 7.7 2 3.2.6 5.8-2 8.7-2.8 2.5 2.5 0 6.6 2 9.3.8 1.8 2.7 2.6 4 4 .3 1-1.8 4 .2 3.7 3.5.9 3.2-3.3 5-5.1-.9 5.9-2.2 11.7-3.8 17.5-5-4-13.3-.7-16.8-6.9-5.2 1.4-7.8-1.9-10.2-5.6-1.3-4.4-8.3-1.2-9.6-5 .8-5.1 2-10.1 3.1-15l.4 2.2c2-2.3 4-5 4.5-8.1z"/><path fill="#d9901d" stroke="#d9901d" stroke-width=".1" d="M306.8 335.7c3.5-3.3 11.6-6.7 14.8-1.4.2 4.8 2.3 8.8 5.6 12-10.3 3.7-20.8 6.9-31.1 10.7-3.1-1.9-2.8-5.9-3-9-1.8-7.7 7-13.2 13.7-12.3z"/><path fill="#c1761f" stroke="#c1761f" stroke-width=".1" d="M279.1 335.1c1-3 3.1-1.4 4.8.1 2 7.5 4 15 5.4 22.6l2.8.5c-2.9 1.1-3.9 4.2-5.2 6.7h-.8c-2.1-10-5.4-19.9-7-29.9z"/><path fill="#8f7e50" stroke="#8f7e50" stroke-width=".1" d="M350.8 344c-3.4 1 0-4 1-5l1.2 2.4-2.2 2.5z"/><path fill="#b5954a" stroke="#b5954a" stroke-width=".1" d="M337 340.9c1.6 1.5 2.2 3.7 3.3 5.5-1.9 1-3.7-.6-5.5-1.2 3.6.9 2.8-1.9 2.3-4.3z"/><path fill="#3c220b" stroke="#3c220b" stroke-width=".1" d="M327.2 346.4c2.4-1 5-1.6 7.6-1.2 1.8.6 3.6 2.1 5.5 1.2l.9-.2c-4 4-10.3 4.3-15.5 6.4-13.3 3-25.5 9.8-38.8 12.4 1.4-2.5 2.3-5.6 5.3-6.7l3.9-1.3c10.3-3.8 20.8-7 31-10.6z"/><path fill="#e7be28" stroke="#e7be28" stroke-width=".1" d="M104.6 353.6c1.6-2.5 3-5.1 4.4-7.8-1 8.5-3.4 16.7-5 25-2.6 4.6-8.2 4-12.7 4.6-1 1-1.7 2.3-2.6 3.4-2.9.8-7.7-3-8.2 1.8-3.3 2.5-7.6 3.4-10.5 6.3V384c.1-5 1.7-10 2-15h1c.1 4.4 1.3-.7 1.7-2.3 3.8-6.7 12-7.4 18.8-9.2 3-2.9 7.3-3 11-3.9z"/><path fill="#da9822" stroke="#da9822" stroke-width=".1" d="M221.2 355.3c3.4.7 5.4-1.8 7.8-3.3 9.6 3.6 7.4 16.1 9 24.1v.9l-1.8.4-1.8-.4c.8-2.9-.6-5.4-1.3-8-.3-3.5-5.5-5.5-7.9-2.7-1.2 1.6-3.1.8-4.8 1.1l-10.2 5.9c-3.6 3.4-3.5 9.3-4.1 13.8-3.4 2.2-6.1 6.7-10.3 7.3 4-7.6 6.1-15.9 7.3-24.3h.8c-.5 3.8 3.4-.5 4.7-1.5 2.6-5.7 7.6-9.8 12.6-13.3z"/><path fill="#b18742" stroke="#b18742" stroke-width=".1" d="M248.2 375.9c1.8-4.1-.5-9.6 1.8-12.9-.1 5 0 10.1 1 15.1l-.8-.4-2-1.8z"/><path fill="#d88c1d" stroke="#d88c1d" stroke-width=".1" d="M225.2 366.3c2.4-2.8 7.6-.8 7.9 2.7.7 2.6 2.2 5.1 1.3 8 .5 0 1.4.3 1.8.4-10.1 2.9-20 7-30.1 9.7.6-4.5.5-10.4 4.1-13.9 3.4-1.9 6.8-3.7 10.2-5.8 1.7-.3 3.6.5 4.8-1.1z"/><path fill="#dea724" stroke="#dea724" stroke-width=".1" d="M138.2 388.9c1.3-7.4 2.9-14.7 4.4-22 .1 4.8 5 4.8 8.4 6.1 4.5 1.1 2.8 6.2 5.3 8.8 3.5 2.4 7.6 0 11-1.5 4-2.3 10 1.4 12.8-3.3l-.1 2-1 2-3.1 6c-.7.9-1.3 2-1.8 3-8.4 11-22.3 15.8-35.1 20-8.3 2.7-16.7 5.6-25 8.5l-.8-1.4c2.7-2.6 6.5-4 8.4-7.5.6-1.4 2.8-2.6 1.4-4.1 4.7-1.8 10-2.5 14.1-5.5 1.9-1.4 4.8-3 3.8-5.9-.8-1.8-1.9-3.5-2.7-5.2z"/><path fill="#b06715" stroke="#b06715" stroke-width=".1" d="M182 371c1.8-1.8 3.4-.2 4.9 1 .4 1.3.1 2.3-.8 3-1.6 2.2-2.8 4.8-6.1 4v-2c1-1.9 1.9-3.8 2-6z"/><path fill="#e1ad23" stroke="#e1ad23" stroke-width=".1" d="M91.3 375.4c4.5-.6 10 0 12.6-4.6v3.3c-1 5.4-2.2 10.8-3.7 16-5.1 4.9-13.5 2.1-18.4 7.5-5.8-.9-9.5 4.3-14.7 5.3l-.2-2.9c-.1-5.4 2.3-10.5 2.2-16h.9v3c3-3 7.2-3.9 10.5-6.4.5-4.7 5.3-1 8.2-1.8.9-1 1.6-2.3 2.6-3.4z"/><path fill="#b36c1a" stroke="#b36c1a" stroke-width=".1" d="M104 374c1.7-.5 3.5-1.2 5.2-2-1 6.8-2.8 13.3-4 20-2 .7-3.5 2-5.3 3l.3-4.8c1.5-5.3 2.7-10.7 3.8-16.1z"/><path fill="#8d551e" stroke="#8d551e" stroke-width=".1" d="M180 379c3.3.8 4.5-1.8 6.1-4-.3 3.3-1.6 6.4-3.3 9.2-1.3-1-2.6-2-3.8-3.2l1-2z"/><path fill="#512f0d" stroke="#512f0d" stroke-width=".1" d="M241.9 375.3l.8-.3c2 0 3.8.2 5.5.9l2 1.8a18.4 18.4 0 0 1-7.4 2.6c-1.8-.8-3.6-1.7-4.8-3.3v-.9c1.3-.2 2.7-.2 3.9-.8z"/><path fill="#381f0c" stroke="#381f0c" stroke-width=".1" d="M236.2 377.4l1.8-.4c1.2 1.6 3 2.5 4.8 3.3l.3.7c-16.7 4.4-32.8 10.4-49 16.1.6-.8.4-3 1.7-2.7 4.2-.6 6.9-5 10.3-7.3 10.2-2.8 20-6.8 30.1-9.8z"/><path fill="#7d4512" stroke="#7d4512" stroke-width=".1" d="M179 381c1.2 1.2 2.5 2.2 3.8 3.2l-.7 1.9c-2 1-4.1.9-6.2.8l3.2-5.9z"/><path fill="#613910" stroke="#613910" stroke-width=".1" d="M175.9 387c2 0 4.2 0 6.2-1-.6 1.7-1.4 4.2-3 4.8-1.7-.4-3.3-.8-5-.9l1.8-3z"/><path fill="#e4c437" stroke="#e4c437" stroke-width=".1" d="M138.2 388.9c.8 1.7 1.9 3.4 2.7 5.2 1 2.8-2 4.4-3.8 5.9l-2-5.1c1.3-1.9 2.6-3.8 3.1-6z"/><path fill="#dea021" stroke="#dea021" stroke-width=".1" d="M81.8 397.6c5-5.4 13.3-2.6 18.4-7.4l-.3 4.9-2 7.8c-6-2-10.7 2.6-14.2 6.8-6.7-1-13.3 2.5-16.1 8.6-.2 5.6-2 11.2-5.5 15.7-2.3.9-4 2.8-6.2 4-.4-3.7 3.8-5 4.7-8.3 1.4-3.9 3.6-7.6 3.4-11.8-.3-6 1.5-11.9 2-17.8h1v2.8c5.3-1 9-6.2 14.8-5.3z"/><path fill="#4b290c" stroke="#4b290c" stroke-width=".1" d="M174 390c1.8 0 3.4.4 5 .8-7.7 13.9-23.8 19.3-38 24-5.8 1.4-11 4.7-17 5.2-4.4-.3-8.5 2-13 1.3-2.1.6-4.3 2.3-6.3.4 3-1.2 6.2-2.1 9.3-3.2 8.3-3 16.7-5.8 25-8.5 12.8-4.2 26.7-9 35-20z"/><path fill="#a06016" stroke="#a06016" stroke-width=".1" d="M100 395c1.7-1 3.3-2.3 5.2-3 .4 4.9-3.7 10-1.2 14.4l-1.8 1c-3.3.3-5-1-4.3-4.4l2-8z"/><path fill="#ecdd4f" stroke="#ecdd4f" stroke-width=".1" d="M104 406.4c10.2-4.4 21.3-6.2 31-11.5l2.1 5c-4.1 3.1-9.4 3.8-14.1 5.6-6.4 2-12.7 4.3-19.1 6.4-1.7.5-3.3-.1-4.1-1.6-1.7-1.4 1.7-2 2.4-3l1.8-.9z"/><path fill="#da921d" stroke="#da921d" stroke-width=".1" d="M83.7 409.7c3.5-4.2 8.2-8.9 14.2-6.8-.7 3.5 1 4.8 4.3 4.4-.7 1-4 1.6-2.4 3a3.3 3.3 0 0 0 4 1.6c6.5-2 12.8-4.4 19.2-6.4 1.4 1.5-.8 2.7-1.4 4-1.9 3.5-5.7 5-8.4 7.6l.8 1.4c-3 1-6.2 2-9.3 3.2-14.3 4.5-28.5 9.4-42.7 14.3l.1-2a27.7 27.7 0 0 0 5.5-15.8c2.8-6 9.4-9.5 16-8.5z"/><path fill="#c5a646" stroke="#c5a646" stroke-width=".1" d="M63.2 418.2l.8-.3c.2 4.2-2 8-3.4 11.8-.9 3.2-5.1 4.6-4.7 8.4 2.1-1.3 3.9-3.2 6.2-4L62 436a50.7 50.7 0 0 0-12.2 8.8c-.8.9-1.7 1.3-2.9 1.2a82.4 82.4 0 0 0 16.3-27.8z"/><path fill="#3b210c" stroke="#3b210c" stroke-width=".1" d="M111 421.3c4.5.8 8.6-1.6 13-1.3l-.2.8c-18.3 6-36.5 12.2-54.8 18.3-6.4 1.5-12.5 5.4-19.2 5.7 3.4-3.7 7.8-6.4 12.2-8.8 14.2-4.9 28.4-9.8 42.7-14.3 2 2 4.2.2 6.4-.4z"/></svg>