<svg xmlns="http://www.w3.org/2000/svg" width="1352" height="722" version="1">
  <rect width="100%" height="100%" fill="none"/>
  <g class="currentLayer">
    <path d="M980 459h7l-3 3v-3l-4 2v-2zm-670 91c2-2 3-4 6-4-1 2-4 3-5 6l-1-2zm681 64h1l-2 6-2-1 3-2v-3z"/>
    <path fill="#fefefe" d="M119 50c-2-9 10-14 16-9 4 2 6 6 6 10l-5 4c0 2 1 5 3 4v-5l2 3 7 1 1-3c7 0 13 2 20 1 0 2 0 4-2 4-4 0-8 3-7 7l6 1c3 3 3 7 2 10l-14-1c-2-2-4-2-6-2-1 6 3 12-1 18l6 8c4 5 9 10 12 16l1 17c0 3 3 6 2 10l10 8c1 2-2 4-4 4-5 1-8-4-13-5v-6c-4-3-6-8-8-13l-5-8c-1-4-3-7-6-10-4-2-7-5-11-6-4 3-9 6-11 10-5 3-6 8-9 12v5c-2 1-5 1-6 3-1 3-5 3-8 3-1 0-3-1-2-3l9-8-2-4c2-2 2-5 1-8 2-1 4-3 5-6l5-10-4 1v-5h3l6-5c-2-6-3-11-3-17-4-1-5-5-5-8-1-2 1-4 3-6 3-1 7 0 8-4-2-2-4-4-4-7l2-1m9 8c-1 3 2 4 4 4 2-1 3-4 1-6-2 0-5 0-5 2zm640 30h16v19c0 4-2 8-7 9-3 1-7 2-11 1v-8l5-1 1-5h-4V88zm-228 17c8-2 17-2 25-2 5 1 11 1 14 5 2 3 2 7 2 11v23h-14l1-7c-2 6-8 8-14 8-7 0-15 1-21-3-4-3-3-8-3-12s3-8 6-9c7-2 15-1 22-1l9 3c0-3 0-6-2-8l-16-1c-2 0-3 2-4 3h-14c0-5 4-9 9-10m6 22c-2 1-2 3-2 5l4 2h13c2 0 6-1 6-4 0-2-3-4-5-4l-16 1zm119-23h24c3 0 8 1 11 3 3 3 4 8 4 12h-14l-4-4h-17c-3 2-3 7-3 10s2 6 5 7h14c3 0 4-3 5-5h14c1 5-1 11-6 14-9 3-19 2-28 2-5-1-11-1-15-5-3-3-3-8-4-12 0-5 0-11 3-16 2-4 7-5 11-6zm127 2c5-3 11-2 16-3 8 0 16 0 24 2 4 1 7 6 6 10h-13l-4-2-14-1-4 2v3l5 1h18c5 0 11 1 13 6 2 4 2 9 0 13s-7 5-11 6h-12c-8 0-16 1-23-2-4-2-6-7-6-11h15c1 2 3 4 5 4h15c3 0 5-4 2-6-10-1-19 1-28-1-4-1-7-4-8-8-1-5 0-10 4-13zm-532-2h30c5 1 10 3 12 8 1 8 1 15-1 23-2 7-11 7-17 8-8 0-16 1-24-1-4-1-9-3-11-8-2-7-1-15 0-22 2-5 7-7 11-8m7 11c-4 0-5 6-5 10 0 3 2 7 6 7h17c4-2 3-7 3-10 1-3-1-7-5-8l-16 1zm441-11h15l11 27 3-4 9-23h16l-23 49c-4 7-13 7-20 6l-1-10c4 0 8 1 10-2l2-5h-5l-2-3-15-35z"/>
    <path fill="#020202" d="M128 58c0-2 3-2 5-2 2 2 1 5-1 6-2 0-5-1-4-4z"/>
    <g fill="#fff">
      <path d="M188 88h66v13h-25v41h-17v-41h-24V88zm246 4c6-4 13-4 19-4h23c6 0 12 0 17 4 4 4 4 10 5 16h-17c1-4-2-7-5-7h-24c-4 0-6 4-6 7-1 6-2 12 0 18 3 4 9 3 13 3h19c3-1 3-4 4-7h16l-1 12c-1 5-6 7-10 8-10 2-21 1-31 1-6 0-13 0-18-3-5-1-8-6-9-10v-24c0-5 1-11 5-14zm73-4h14v54h-14V88zm-175 16c6-1 13-1 19 1l8 5c3-6 10-7 16-7s13 1 17 7c3 3 4 8 4 12v20h-14l-1-23c0-4-5-4-8-4-4-1-10 0-12 4v23h-15v-23c0-4-6-4-9-5-4 0-11 1-11 6l-1 22h-14v-38h14v6c2-2 4-5 7-6zm284 0c7-1 15-1 21 3 4 2 6 7 6 11v24h-14v-22c0-3-3-5-6-5-5 0-10-1-14 1-3 2-4 5-4 8v18h-14v-38h14v6c2-4 7-6 11-6zm-512 73c11-9 25-10 38-11h78c8 1 16 2 22 7 4 2 5 6 7 10v9l-4 16h-38v-5c0-2 0-5-2-6-3-2-7-2-10-2h-49c-5 0-11 1-15 5-3 4-5 11 1 14l3 1c6 2 13 1 20 1l56 2c7 0 14 1 20 5 4 2 6 7 8 11v10l-3 18c-3 9-6 17-12 24-8 7-18 12-28 13H93c-6 0-13-3-18-6l-5-7c-2-11 1-21 5-31a7392 7392 0 0 1 39 0l-1 5v2c-1 3 1 6 4 7l8 1h55c5 0 11-1 14-6l2-8c1-5-5-8-9-8l-58-2c-13 0-27 0-39-6l-5-8c-1-7 0-15 2-22 3-12 7-25 17-33zm165-9h93c11 0 22-1 32 2 5 1 10 3 13 7 3 2 4 6 6 9 1 7 1 14-1 20-2 13-6 26-12 37-5 9-12 16-21 20l-21 3h-62l8-33h50c9 0 15-9 16-17v-7c-1-5-5-9-10-9h-59l-12 44-5 19-8 31-2 5h-40l4-16 5-16 26-99zm163 0h39l-1 7-1 4-18 65-5 17-1 6h87l-1 5-3 11c-3 1-5 2-8 1H401l2-9 9-32 5-20 15-54v-1zm143 0h40l-1 5-2 8-17 62-5 20-6 21-14 1h-14c-4 1-8 0-11-2l5-23 25-92zm53 0h60l51 94 1 1 13-48c4-16 9-31 12-47h40l-1 7-2 6-17 63-5 20-6 21h-69l-39-68-3-6-4-7-11 40-5 19-7 25h-32l-8 1 32-121zm186 0h149l-1 7-1 4-6 21h-55v2l-12 43a683 683 0 0 1-10 38c-3 3-8 2-12 2-9 0-19 1-28-1l18-70 2-7 2-7h-49l-5-1v-3l4-12 4-16zm159 0h38l-1 7-1 6-10 38h6l91 1-2 6c2 1 5-1 6 2l-1-1h-5l-5 18v2h-98v3l-3 12-2 5h105l-2 7-3 10c-6 2-13 1-20 1l-31 1h-80c-4 0-9 1-13-1 1-9 5-19 7-28l24-89z"/>
      <path d="M1024 168h92l-2 7-1 5-6 19h-91l8-31zm102 0h89c14 0 28-1 41 2 5 1 10 2 13 6 2 3 4 6 4 10l-2 24-2 12c-3 9-8 16-16 21l-10 4c3 2 7 3 10 6l3 4 1 4-1 12-7 26h-40l4-18 2-8c0-2-1-4-3-5-3-3-6-3-10-3h-48l8-34h47c5 0 10 1 14-2 5-2 7-7 9-12v-9l-1-4c-3-3-8-4-12-4h-62l-1 6-10 38-5 18-7 24c-13-1-26 1-39-1 1-8 4-15 6-23l25-94zM341 310c14-8 29-12 45-15h177l-1 3-3 10-6 23H406c-10 1-21 2-30 8-3 3-6 6-7 11l-15 48v9c1 4 5 7 9 9s8 3 13 3h152l-1 5-1 4-2 7-5 18c0 2-3 1-4 1l-146 1c-20 0-41-1-60-10-8-5-16-12-17-22-2-6-1-11 0-17l19-60c5-15 16-28 30-36zm241-15h47a124 124 0 0 0 13 0c1 2 0 5-1 7l-15 55h131l-1 7-8 26H616l-2 10-5 17h161l-2 7-2 7-6 21H538l39-139 2-8 3-8v-2zm239 1c4-2 9-1 14-1h44v2l-3 13a7791 7791 0 0 0-29 107h150l-1 7-2 6-4 14c-3 2-7 1-11 1l-33 3c-11-1-21 2-32 2l-21 1c-5 0-11-1-16 1h-98l-1-1 43-155zm229-1h59l-1 4-4 15a4025 4025 0 0 0-24 85l-5 18h152l-2 7-1 5-2 8-4 15h-18c0-4 1-10-3-13v-4l-3 3-4-6h-11c-2-2-4-4-7-4l-4-1v1c0 2-2 4-4 3l-5-3-2 3-2-1c-6 5-15 3-22 4l-31 3-21 1-4 2h2l-1 3c-2-1-4-2-7-1-3-2-7 0-11 0l-30 2-22 1 37-131 3-14 2-5z"/>
    </g>
    <path fill="#6c874b" d="M612 181l2-8c0 3 3 2 5 2l-2 6h-5z"/>
    <path fill="#6f854e" d="M469 179l1-4h5l-1 7h-1c-1-1-4-1-4-3z"/>
    <path fill="#6a874b" d="M802 181l2-6h5l-1 5-1 1h-5z"/>
    <path fill="#6e8646" d="M962 175h5l-1 7h-1c-1-1-4-1-4-3l1-4z"/>
    <path fill="#6b884c" d="M1010 175h5c0 3 0 6-2 9v-3h-4l1-6z"/>
    <path fill="#6a8448" d="M1114 175h5a66 66 0 0 1-1 8l-5-3 1-5z"/>
    <path fill="#e4f6e1" d="M1269 176c4 2 5 6 7 10l-1 18c-2 6-3 13-6 18l2-12 2-24c0-4-2-7-4-10z"/>
    <path fill="#8cb04d" d="M451 244l18-65c0 2 3 2 4 3l-16 62h-6z"/>
    <path fill="#8caf4d" d="M955 200l6-21c0 2 3 2 4 3l-6 24h-55l-10 38-6 1 12-43h42c5 0 9 1 14-1l-1-1z"/>
    <path fill="#1a260b" d="M807 181l1-1 2 4-4 12-2 5-25 94h-70v-1h57l6-1 5-1 2-4a770 770 0 0 0 11-44l12-41 5-22z"/>
    <path fill="#8baf4f" d="M1107 199l6-19 5 3-7 23h-91l2-4h85v-3z"/>
    <path fill="#8caf4e" d="M595 243l17-62h5v1l-17 62-5-1z"/>
    <path fill="#8ab04e" d="M802 181h5l-5 22-12 41h-5l17-63z"/>
    <path fill="#8cb14f" d="M999 219l10-38h4v3l-8 35h-6z"/>
    <path fill="#212c0e" d="M473 182h2l-4 15-7 28-7 27c-2 5-4 10-4 15h-2v-3l6-20 16-62z"/>
    <path fill="#212c10" d="M617 182h2l-25 92-5 21h-7l1-1 4-2 2-5 6-24 5-19 17-62z"/>
    <path fill="#23221e" d="M965 182h1c2 0 0 2 0 3l-7 29h-55c-4 9-5 19-8 29l-7 26-8 31 1 2c-1 4-2 8-6 8l3-13 3-7 7-28 5-18 10-38h55l6-24zm194 90h45l11 1-2 8c-4-3-9-2-13-2h-42l1-7z"/>
    <path fill="#23231d" d="M1118 182v6l-4 16-3 9h-90l1-6h-5v-8h5v3l-2 4h91l7-23v-1z"/>
    <path fill="#95b46d" d="M249 183c3 2 3 6 3 9h-3v-9z"/>
    <path fill="#8bae4d" d="M413 186c6 7 5 17 4 26l-10 32-7-1c6-11 10-24 12-37 2-6 2-13 1-20z"/>
    <path fill="#729549" d="M1276 186c2 2 3 4 3 7l1 13-3 9-2-11 1-18z"/>
    <path fill="#89ae49" d="M249 192h3l1 4-1 9-3 10h-39l1-6h31l3-1 4-16z"/>
    <path fill="#85ad47" d="M131 200c4-4 10-5 15-5h49c3 0 7 0 10 2 2 1 2 4 2 6-5-2-11-1-16-1h-39c-5 0-11 0-15 3-3 2-4 6-5 9-6-3-4-10-1-14z"/>
    <path fill="#23221d" d="M806 199l5 1-1 6h33l15 1-2 7h-46l1-7h-5c0-3 2-6 0-8zm355 8h51c7 0 14-1 20 1v9c-2-3-5-3-8-3h-63l-7 26-19 72c-7 2-13 0-20 1-2 12-6 23-9 35l-19 68h-2v-2l5-17c7-25 15-50 21-76a36 36 0 0 0 3-10l-5-1-5 4 4-15h16l-1 6a187 187 0 0 0 12 0l3-14 8-28 5-19 10-37z"/>
    <path fill="#779847" d="M1022 199h85v3h-85v-3z"/>
    <path fill="#87ad49" d="M301 200h59c5 0 9 4 10 9l-2-1-8-1h-56l-10 37h-5l12-44zm129 299c3-1 5-5 8-5 0 3-3 4-3 7l-9 1 2-5 2 2zm122 51l1-7v4l3 1 2 1 3-2c0 2-1 4-3 4l-6-1zm278-1c2 2 1 5 2 8-3 2-6 1-9-1v-2l7 2v-7zm-496 32h2l3 5-2 2-3-1 2-1-2-5zm453 1l3-1c1 3 2 6-1 8l-2-7zm-269 0l1 2 3 1c0 2-2 3-3 4l-1-7zm-90 12l4 7-5 1 2-4h-3l1-3 1-1zm210 7c3 2 3 7 0 9l-6-3 1-3c2 1 3 3 5 3 2-1 1-4 0-6zm59 28h3v3h-3v-3zm47 0l3 1-1 2 3 3-4-1v-2l-4 1 3-4z"/>
    <path fill="#87aa49" d="M811 200h49l-2 7-15-1h-33l1-6z"/>
    <path fill="#789847" d="M900 200h55l1 1c-5 2-9 1-14 1h-42v-2z"/>
    <path fill="#7fa644" d="M1157 200h62c4 0 9 1 12 4h-7c-6-1-11 1-16 1h-43l-9 1 1-6z"/>
    <path fill="#232320" d="M940 299h3v2l-1 4h99v-6l7 1-3 14c-3-2-6-1-9-1h-94l1-7h-5l2-7z"/>
    <path fill="#8baf4d" d="M1208 205c5 0 10-2 16-1h7l1 4c-6-2-13-1-20-1h-51l-10 37h-5l10-38 9-1h43z"/>
    <path fill="#23231c" d="M249 215l3-10-2 14c-1 1-1 3-3 3l-16 1c-6-4-13-5-20-5v-3h38zm856 244l27-1 12 1h37l1 7h-3l-2-1-1 3-2-3-7 1-2 1v5l-1-6-12 1-12-1h-125l-2-3 5-3c1 1 2 3 4 3l4-4 4 2 1-1 2-2 3 4c23-1 46-4 69-3z"/>
    <path fill="#8cae4e" d="M648 244l11-40 4 7-10 33h-5z"/>
    <path fill="#89ae48" d="M1269 222c3-5 4-12 6-18l2 11c-2 11-6 21-13 29l-11-1c8-5 13-12 16-21z"/>
    <path fill="#23221c" d="M1277 215l3-9c0 8-3 16-5 24-3 11-9 22-19 27l-3-4c3-4 8-5 11-9 7-8 11-18 13-29z"/>
    <path fill="#222b0f" d="M304 207h56l8 1-5 1h-56l-2 5-7 25-11 40-7 26-1-2 10-40 5-19 10-37z"/>
    <path fill="#242222" d="M368 208l2 1v7l-9-2h-56l2-5h11a5205 5205 0 0 0 50-1z"/>
    <path fill="#212515" d="M653 244l10-33 3 6-2 2-2-1-14 54c-2 8-5 15-6 23h-8l1-3 4 2 3-6 7-25 4-19z"/>
    <path fill="#23221f" d="M407 244l10-32c1 4-3 8 0 11l-5 20-2-1c-4 13-11 25-22 32-8 5-17 6-26 6h-62l1-7h54c12 0 24-1 34-7 9-5 14-14 18-22z"/>
    <path fill="#222122" d="M666 217l39 68a147 147 0 0 1 2 4l2 5v1h-4l-2-4-28-51c-3-7-8-13-11-21l2-2z"/>
    <path fill="#8daf4d" d="M1094 227h5l-1 7-3 10-6 1 5-18z"/>
    <path fill="#242220" d="M85 232l5 8c2 7 8 9 14 11 8 2 16 1 23 2l30 1c13 0 26 0 39 2l-2 8c-2-3-8-1-11-2-12-2-25 0-37-2h-33l1-5H96c-5-3-7-9-10-13-2-3-1-7-1-10zm1013 2v5l-5 19c0 1 0 3-2 3h-96l-1 6h-2l1-5 2-8h98l2-10 3-10zm155 71l7-26-1 10-7 23-39 1 1-7h-5l1-7h4l-1 6h40z"/>
    <path fill="#91a766" d="M239 234c2 2 3 5 3 8v2h-3v-10z"/>
    <path fill="#51612d" d="M90 240c12 6 26 6 39 6l58 2c4 0 10 3 9 8-13-2-26-2-39-2l-30-1c-7-1-15 0-23-2-6-2-12-4-14-11zm330 260l2-1 1 3 1-3 4 6-6-2-1 2-1-5z"/>
    <path fill="#536433" d="M242 242c2 6 1 12 0 18l-1 2h-5l3-18h3v-2z"/>
    <path fill="#54662d" d="M400 243l7 1c-4 8-9 17-18 22-1-3-4-2-7-2-7 2-14 4-21 4h-54l-6-1v-1h57l21-3c9-4 16-11 21-20z"/>
    <path fill="#556431" d="M595 243l5 1-5 19h-5l5-20zm53 1h5l-4 19h-6l5-19z"/>
    <path fill="#54662c" d="M1243 247l10-4 11 1c-3 4-8 5-11 9-3-3-7-4-10-6z"/>
    <path fill="#556430" d="M289 244h5l-5 19h-5l5-19z"/>
    <path fill="#576432" d="M451 244h6l-6 20-5-3 5-17z"/>
    <path fill="#536431" d="M785 244h5l-5 19-5 1 5-20z"/>
    <path fill="#546433" d="M888 245l6-1-5 18h-5l4-17z"/>
    <path fill="#55632f" d="M1089 245l6-1-2 10h-98l-2 8h-5l3-12h96l2-3v-2z"/>
    <path fill="#566431" d="M1141 262l5-18h5l-5 19-5-1z"/>
    <path fill="#4b5929" d="M991 247h98l-2 3h-96v-3z"/>
    <path fill="#242221" d="M241 262l1-2c0 2-1 5 1 7l-5 16h-1c-5 16-21 29-38 30H95c-8-1-17-4-20-12-2-3-5-6-5-10v-5l5 7c2 9 12 12 20 12h103c12 1 23-6 31-14 7-8 10-19 12-29z"/>
    <path fill="#6d7f47" d="M445 267l1-6 5 3v3h-6z"/>
    <path fill="#6c8644" d="M1257 261c5 4 4 12 3 18l-7 26h-40l1-6h35l7-26 1-12zm-477 3l5-1-6 25h-6v-1l1-2 6-21z"/>
    <path fill="#6b7852" d="M113 262h5l-1 7c-3-1-5-4-4-7z"/>
    <path fill="#69873f" d="M224 286c6-7 9-15 12-24h5c-2 10-5 21-12 29-8 8-19 15-31 14H95c-8 0-18-3-20-12 5 3 12 6 18 6h103c10-1 20-6 28-13z"/>
    <path fill="#6b8744" d="M284 263h5l-10 40-1 2h-40l2-6h34l2-5 8-31z"/>
    <path fill="#6c8547" d="M643 263h6l-7 25h-6l7-25z"/>
    <path fill="#6c8545" d="M878 283l6-21h5l-7 28h-6l1-3 1-4z"/>
    <path fill="#6a7e48" d="M986 267l2-5h5l-1 5h-6z"/>
    <path fill="#6b8745" d="M1134 286l7-24 5 1-8 28-3-2-2 1 1-4z"/>
    <path fill="#6a8646" d="M584 284l6-21h5l-6 24-6 1 1-4z"/>
    <path fill="#6b8841" d="M382 264c3 0 6-1 7 2-10 6-22 7-34 7h-55l1-6 6 1h54c7 0 14-2 21-4z"/>
    <path fill="#20261b" d="M1155 265h4l-2 7h-3l1-7z"/>
    <path fill="#688440" d="M1159 265h43c4 0 7 0 10 3 2 1 3 3 3 5l-11-1h-47l2-7z"/>
    <path fill="#202519" d="M298 266h3v1l-1 6h-4l2-7z"/>
    <path fill="#6c8448" d="M528 283l3-11c-1 3 3 2 5 2l-2 7-2 6-5-1 1-3z"/>
    <path fill="#6b834b" d="M1089 274h5c0 5-2 10-3 14h-6l1-4 3-10z"/>
    <path fill="#364019" d="M534 281h2l-4 14h-7l1-3 5-1 1-4 2-6z"/>
    <path fill="#ddded6" d="M520 284c3 1 5 0 8-1l-1 3-1 3H416l-16-1v-4h120zm361 181c4-1 0 4-1 1l1-1zm-169 2l2-1v4a3275 3275 0 0 0 0 2l-2-5zm101 4c2 0 2 3 0 3s-1-3 0-3zm-289 8c2-1 2 0 3 1-2 1-2 1-3-1zm140 2c4 0 0 5-1 1l1-1zm-13 8c1-2 2-4 5-5l-1 4c1 0 2 0 3-2l2 3h-9zm448-4l2 2-1 3-1-3v-2zm-810 7l5 3-4 3h-1l2-4-2-2zm133 7l5-7c0 3-2 4-3 7l-1 3-1-3zm194 27c2 1 2 3 3 5-2-1-2-3-3-5zm-421 10c2 0 4 4 2 5v-2l-2-3zm993 13c1-1 4 0 3 2-1 1-3-1-3-2zm-630 21l4-6v3l-2 1 4 2 3-3-1 4c-2 2-5 0-8-1zm427-4l4 5-4-5zm232 21c1 0 3 2 2 3-1 0-3-2-2-3zm-125 13c4-1 0 5-1 1l1-1zm-528 2l2 2-1 1-3 1 2-4zm-190 3c1-1 3 0 2 1l-3 1c-2-1 1-2 1-2zm783 5h5l-2 5 5-1c0 2-2 3-3 2l-6 2 1-2 4-2-3-4c-2 0-5 2-7 1l6-1zm-209 1h5l-4 3-1-3zm16 3l9-3 2 4-2-1c-3 1-7 0-10 2l1-2zm-7-1c2 0 2 0 2 2-2 0-2 0-2-2zm118 5c2-1 4 1 2 2-1 2-3 0-2-2zm51 1c2 0 3 2 3 4-2 0-2-2-3-4zm-32 1l6 3c-2 1-5-2-6-3zm37 1c1 0 3 2 2 3-1 0-3-2-2-3zm-157 2l1 4-3 1-1-2 3-3zm-9 1c2-1 2 2 1 3s-2-2-1-3zm-247 2h4l-2 6c-3 1-5-1-5-4l-1-1h2c1 2 1 5 3 4s0-3-1-5zm243 0c2-1 4 1 3 2-2 1-4 0-3-2zm-263 15c1-3-1-8 3-8 0 2-1 3-2 3v4l-1 1zm11 1c1-2 4 1 5 2l-1 2-2-4h-2zm-63 1c2 0 2 0 2 2-2 0-2 0-2-2zm5 1l3 2 2-2-2 3c1 0 2 1 2 3-3-1-3-4-5-6zm-211 3l6-1-2 3h-1c1-3-2-2-3-2zm-104 2l4 1c-1 0-1 2-3 1 0 0-3-2-1-2zm-32 1c2 1 1 3 1 5h-1v-5zm239 0c3 0 3 4 5 5l3-2-4 3-4-6zm-247 1c2-1 3 2 2 3-1 0-3-2-2-3zm-66 6c2 0 2 0 2 2-2 0-2 0-2-2zm78 12c2 0 2 0 2 2-2 0-2 0-2-2z"/>
    <path fill="#d0d3c5" d="M544 283h1c3 2 7 3 11 2h14l14-1-1 4-1 3h-17l-22-1 1-7z"/>
    <path fill="#e2e3dc" d="M866 285c4 0 9 1 12-2l-1 4h-40l1-3c9 2 19 1 28 1z"/>
    <path fill="#e1e2de" d="M1066 285c7 0 14 1 20-1l-1 4v1c-14 1-28-1-42 2l-16 1h-87l1-7h1c4 2 9 1 13 1h80l31-1z"/>
    <path fill="#546334" d="M527 286l5 1-1 4-5 1-1 3H398v-4h1c0 2 2 2 3 2h123v-2l1-2 1-3z"/>
    <path fill="#e3e3dd" d="M705 285h69l-1 2h-67l-1-2z"/>
    <path fill="#e1e2db" d="M1094 285h1c13 2 26 0 39 1l-1 4-21-1h-18v-4z"/>
    <path fill="#64723d" d="M583 288l6-1-2 5-4 2-1 1v2l-20 1 1-3h-21v-5h1l22 1h17l1-3z"/>
    <path fill="#525e2d" d="M636 288h6l-3 6-4-2 1-4z"/>
    <path fill="#cccfbf" d="M706 287h67v2h-66l-1-2z"/>
    <path fill="#c5cab6" d="M837 287h40l-1 3-16-1c-8 0-15 2-23 1v-3z"/>
    <path fill="#a7b08e" d="M399 288h1l16 1h110l-1 2H399v-3z"/>
    <path fill="#a7b290" d="M596 289l8-1h32l-1 4h-39v-3z"/>
    <path fill="#4d5a2b" d="M773 288h6l-2 4-5 1 1-4v-1z"/>
    <path fill="#8d996d" d="M836 292l1-4v2c8 1 15-1 23-1l16 1-1 3a1033 1033 0 0 0-39-1z"/>
    <path fill="#4c5d27" d="M1085 288h6l-2 5c-1 2-3 2-5 2h-34l-2 5-7-1v6h-5c-2-2-6-3-9-3h-77l-7-1v-2h95c5 0 8-5 13-5h30l3-2 1-3v-1z"/>
    <path fill="#8d996b" d="M707 289h66l-1 4-6 1h-57l-2-5z"/>
    <path fill="#4c5427" d="M876 290h6l-3 7v-2h-44l1-3 4 1h35l1-3z"/>
    <path fill="#b4bb9e" d="M1043 291c14-3 28-1 42-2l-1 3h-22c-5-1-10 0-15 1-3 0-6 2-9 4s-7 1-11 1h-89v-3h91c5-1 10-1 14-4z"/>
    <path fill="#b8bfa5" d="M1093 289h19l21 1-1 5c-7-2-13-4-20-3h-19v-3z"/>
    <path fill="#54612f" d="M1133 290l2-1 3 2-3 14h-7l4-5v-5l1-5z"/>
    <path fill="#737f4f" d="M595 294l1-4v2h39l-1 3h-5l-34-1z"/>
    <path fill="#83905f" d="M399 291h126v2H402c-1 0-3 0-3-2z"/>
    <path fill="#c3c6b4" d="M1027 292l16-1c-4 3-9 3-14 4h-90l1-3h87z"/>
    <path fill="#8c9967" d="M1047 293c5-1 10-2 15-1h22l-3 2h-30c-5 0-8 5-13 5h-98l-2-1h89c4 0 8 1 11-1s6-4 9-4z"/>
    <path fill="#95a175" d="M1093 292h19c7-1 13 1 20 3v3l-6-1c-10-6-22-2-33-4v-1z"/>
    <path fill="#6f7a4e" d="M1092 293h1c11 2 23-2 33 4l6 1-8 1c-5-2-10-4-15-4a453 453 0 0 1-17-2z"/>
    <path fill="#fffffe" d="M661 295h141l-2 7-8 28a46779 46779 0 0 1-139 0v-3l8-32z"/>
    <path fill="#4d592d" d="M1109 295c5 0 10 2 15 4h-16l1-4z"/>
    <path fill="#282e0e" d="M562 298l20-1-3 8c-3 0-7 0-10 2l-10 1 3-10z"/>
    <path fill="#3e4a1a" d="M1132 298v2l-4 5h-5l1-6 8-1z"/>
    <path fill="#24221f" d="M236 299h4l-2 6h40l1-2 1 2c0 3-1 8-5 8h-37l2-7h-5l1-7z"/>
    <path fill="#5a6636" d="M943 301l7 1h77c3 0 7 1 9 3h-94l1-4z"/>
    <path fill="#455123" d="M641 302h10l-8 30-7 25h-10l15-55z"/>
    <path fill="#414b22" d="M800 302h10l-2 8-7 25c-1 2-3 1-5 1H660l2-6h130l8-28z"/>
    <path fill="#485624" d="M882 302h5l-1 9h-1l-1-1c-3 4-3 9-5 13l-6 21-4 21c-4 10-6 21-9 31l-8 4 24-90c4 0 5-4 6-8z"/>
    <path fill="#232220" d="M569 307c3-2 7-2 10-2l-2 8c-2 0-6-2-8 1l-8 31H413c-11 1-24 2-32 12-5 4-5 11-7 16l-8 27-4 10 3-12 13-43c1-4 4-7 7-10 9-5 18-7 28-7h148l8-31zm664 125l1-3 1 3-8 31c0 1 0 3-2 3h-19c-3 0-7-1-10 1l-1-1 5-2 1-5h15c3 0 7 1 10-1l7-26zm-693 20h8l-1 7h186l6 2-15 3-1 2h-9l-2 1-4-1H547l1-6h-9l1-8z"/>
    <path fill="#3f4b20" d="M559 308l10-1-6 8c-2 4-1 9-3 13-1 2-2 6-4 6l-12 2H411c-11 1-22 2-31 9-5 5-8 12-11 18-2 11-6 21-9 31-1 3-4 3-6 4l15-48c1-5 4-8 7-11 9-6 20-7 30-8h147l6-23zM235 675a38 38 0 0 0 7 0v3l-8-1 1-2z"/>
    <path fill="#4d582d" d="M563 315l6-8-8 31H413c-10 0-19 2-28 7h-5c9-7 20-8 31-9h133l12-2c2 0 3-4 4-6 2-4 1-9 3-13z"/>
    <path fill="#252120" d="M808 310h1c0 5-2 9-3 14l-6 20H660l2-7h-10l1-7h9l-2 6h136c2 0 4 1 5-1l7-25z"/>
    <path fill="#5b6c33" d="M884 310l1 1-21 82-2 4-8 5c-1 5 1 9 4 12l1 3h-12l5-17 8-4c3-10 5-21 9-31l4-21 6-21c2-4 2-9 5-13z"/>
    <path fill="#384219" d="M1104 314l5-4 5 1-1 3c-5 3-8 7-12 11 0-4 1-7 3-11z"/>
    <path fill="#475623" d="M1101 325c4-4 7-8 12-11l-2 7-2 1-11 34-7 25-4 15c-2 2-5 2-7 3 6-25 13-50 21-74zM956 574c1-2 1-6 4-7l2 6a1203 1203 0 0 1-6 1zm-561 44h2l3 5 3 2-4 1h-1l-3-8z"/>
    <path fill="#596832" d="M1109 322l2-1c-6 26-14 51-21 76-3 2-8 4-9 8l4 9v3h-10l5-18c2-1 5-1 7-3l4-15 7-25 11-34z"/>
    <path fill="#54632d" d="M380 345h5c-3 3-6 6-7 10l-13 43c-6 0-9 5-11 9v-9c2-1 5-1 6-4 3-10 7-20 9-31 3-6 6-13 11-18z"/>
    <path fill="#424c22" d="M756 364h5l-6 22c-1 4-5 7-7 11H639l-15 1-10 2 2-10h132l8-26z"/>
    <path fill="#576531" d="M761 364h5l-2 7-7 26h-9c2-4 6-7 7-11l6-22z"/>
    <path fill="#242121" d="M764 371c1 4-1 8-2 11l-6 22H624l-3 12h149v1H619l5-19 15-1h118l7-26z"/>
    <path fill="#617935" d="M354 407c2-4 5-9 11-9l-3 12 1 6c-4-2-8-5-9-9z"/>
    <path fill="#6a8541" d="M854 402l8-5-4 17c-3-3-5-7-4-12z"/>
    <path fill="#6a863e" d="M1081 405c1-4 6-6 9-8l-5 17-4-9z"/>
    <path fill="#5d7132" d="M614 400l10-2-5 19h-10l5-17z"/>
    <path fill="#232222" d="M292 423c1 10 9 17 17 22 10 10 24 13 38 15 16 2 33 3 49 2l26-1h105l7-29h1l1 2c-3 11-7 22-9 34h-13l-14 1-37-1-30 1h-67c-12-1-24-2-36-5-7-3-14-5-20-10l-10-9c-6-6-10-14-8-22z"/>
    <path fill="#637341" d="M526 428l1-4v2h9l-1 6h-1c-2-2-5-4-8-4z"/>
    <path fill="#586831" d="M768 424h10l-2 7-1 4-9-4 2-7z"/>
    <path fill="#5b6b35" d="M996 424h10l-4 13-3-4c-1-2-3-2-5-3l2-6z"/>
    <path fill="#688144" d="M1225 424h10a151 151 0 0 0-2 8c-3 2-4-2-6-4l-3 1 1-5z"/>
    <path fill="#afc084" d="M1168 427l4 1 3 2-2 2-5-4v-1z"/>
    <path fill="#515e2a" d="M526 428c3 0 6 2 8 4l-7 29h-12l8-7c3-4 5-8 5-13 0-2-2-4-4-6l2-7z"/>
    <path fill="#f4fed3" d="M1159 428l5 3c2 1 4-1 4-3l5 4 2-2-3-2c3 0 5 2 7 4h11l4 6-2 2c-1-2-1-5-3-7l-14 1c-6-1-13 1-19 1l1-4 2-3z"/>
    <path fill="#54642c" d="M1224 429l3-1c2 2 3 6 6 4l-7 26c-3 2-7 1-10 1 7-5 12-14 9-22h-3l2-8z"/>
    <path fill="#465423" d="M994 430c2 1 4 1 5 3l3 4-2 9h-10v-2l4-14z"/>
    <path fill="#f4ffd7" d="M1133 434c7-1 16 1 22-4v5l-9 1-15 1h-9l-43 3h-2l4-2 21-1 31-3z"/>
    <path fill="#9dce30" d="M1155 430l2 1-1 4c6 0 13-2 19-1l14-1c2 2 2 5 3 7a81 81 0 0 1 5-5v4c4 3 3 9 3 13v3h-3l1 4h3l-1 5-5 2 1 1c2 1 5 1 6 4l-3 8 2 8-3-1 1 3 4-1v2l-3 1c-1 2 2 3 3 5l2 21-19 1-1-14-3-38-1-7 2-7v-1c-2-1-6-2-6 1h-9l-4-2c1-2 2-5 1-7-5 0-8 4-13 4l-3-2c1 3 1 5-1 7l-2 1-2 6-12-1-27 1c-23-1-46 2-69 3a130 130 0 0 1-4-6h-3c-1 2 1 3 2 4l-1 1-4-2-4 4c-2 0-3-2-4-3l-5 3-3-3-2 2c-3 0-4 3-7 3-1-4-2-8-5-10l-8 4h-8v2h-2l-2 3c-5 2-11 1-16 2h-11c-5-1-9 2-14 2h-19l-12 1a113 113 0 0 1-3-4c-2 0-4 0-5 2s-4 4-6 2l1-3-3 1-3-2c-3-2-6 0-8 2-3 3-7 4-11 4v3l-2-2c-2-1-4 1-6 2-1 2-4 1-5 1l-1-3h-8c-5 2-11 5-17 5l1-4h-2c-1-2 0-4 2-5l-4-5c-4 3-7 5-11 6h-1l-1-5h-3c0 2-3 3-4 6v2l5 1-1 1-8 4c-4 2-9 1-13 2h-13l-17-1 2-5c0-2-2-3-3-4-3 1-5 3-6 6l-1 3c-3 1-7 4-9 1 0-2-4-2-3 0l-4 2-4-3c-1-2-3 0-2 2-5 1-10 3-15 2l-15 1c6-7 17-4 24-9 2-2 2-5 5-7l9-2c3-2 6-2 9-2a1400 1400 0 0 1 3 6v-7h10v6c2-1 3-3 3-5l4 4 2-3c4-1 8-2 12-1h1c1 1 3 1 4-1 8-2 17 1 24-3 7-2 14-1 21-2l62-4h5c8 0 17 1 25-1 12-2 23 0 35-2 10-1 20-1 29-4l6-1h5c5 2 11 1 16 0 8-1 16 1 24-1l36-3c3-1 5 0 7 1l1-3 43-3h9l15-1 9-1v-5m-1 11c-1 2 2 3 3 2 1-2-2-3-3-2m35 1v6h5v-3h-3l1-4-3 1m-188 12v3h4v-3h-4m-111 1c-2 3 3 0 0 0m-22 5c-1 0 0 3 1 2 2-1 0-3-1-2m-54 1c-1 1 0 4 2 3 1-1-1-4-2-3m153 1c0 3 3-1 0 0m-166 4c-1 1 0 4 1 3s0-3-1-3m34 1c0 2 0 4 2 4 2-1 0-5-2-4m-47 7c0 2 0 2 2 2 0-2 0-2-2-2m10 1c0 3 3-1 0 0m396 8c1 1 1 2 3 1-1-2-1-2-3-1m0 30c-1 0-2 3 0 3 1 0 2-3 0-3z"/>
    <path fill="#404c21" d="M766 431l9 4-5 19-2 5H547l1-7h212l6-21z"/>
    <path fill="#21260e" d="M776 431c2 4-1 8-2 12-1 6-4 13-4 19l-9 1 5 2-2 3-4-4c0 2-1 4-3 5v-6h-10v7l-3 3-1-6h2l-1-3c-3 0-6 0-9 2-4-2-8-1-11 0h-1l1-2 15-3-6-2h35l2-5 5-19 1-4z"/>
    <path fill="#414a21" d="M519 453l5-18c2 2 4 4 4 6 0 5-2 9-5 13l-8 7h-93l-26 1c-16 1-33 0-49-2-14-2-28-5-38-15 19 9 40 10 60 10l146-1c1 0 4 1 4-1z"/>
    <path fill="#455023" d="M1222 437h3c3 8-2 17-9 22h-18l-1-4h3v-3h18l4-15z"/>
    <path fill="#aac95f" d="M1060 442c4 0 8-2 11 0l-36 3c-8 2-16 0-24 1-5 1-11 2-16 0h5l8-1 22-1 30-2z"/>
    <path fill="#cdf076" d="M1154 441c1-1 4 0 3 2-1 1-4 0-3-2z"/>
    <path fill="#e5fea8" d="M1189 442l3-1-1 4h3v3h-5v-6z"/>
    <path fill="#fbfeec" d="M1152 447c5 0 8-4 13-4 1 2 0 5-1 7l4 2h-20c2-2 2-4 1-7l3 2z"/>
    <path fill="#f5ffdc" d="M979 445c4 0 8 1 11-1v2l-6 1-19 1-18 2-42 2h-28c5-2 11-1 16-1l21-1c11 0 21-3 32-2l33-3z"/>
    <path fill="#a5c858" d="M965 448l19-1c-9 3-19 3-29 4-12 2-23 0-35 2-8 2-17 1-25 1h-5c5-2 10-1 15-2l42-2 18-2z"/>
    <path fill="#def8a1" d="M1177 452c0-3 4-2 6-1v1h-6z"/>
    <path fill="#222221" d="M779 452h8l-2 7h13v1l-14 1-7-1 2-8z"/>
    <path fill="#3e491e" d="M787 452h100c-14 2-29 0-43 3l-34 2-12 2h-13l2-7z"/>
    <path fill="#3a510b" d="M887 452h18c-5 1-10 0-15 2l-62 4c-7 1-14 0-21 2h-9v-1l12-2 34-2c14-3 29-1 43-3z"/>
    <path fill="#404c20" d="M1146 453l2-1a544 544 0 0 0 29 0h6l-2 7h-37l2-6z"/>
    <path fill="#0d2a01" d="M1001 454h4v3h-4v-3z"/>
    <path fill="#497401" d="M890 455c3 0-2 3 0 0z"/>
    <path fill="#1d3400" d="M988 459l8-4c3 2 4 6 5 10h-2c-1-2-1-2-2 0-2 2-5 1-7 1l7-3c0-3-4-3-5-4l-2 4-2-4z"/>
    <path fill="#47670a" d="M1029 456h3l1 2-2 2c-1-1-3-2-2-4z"/>
    <path fill="#426902" d="M868 460c1-1 3 1 1 2-1 1-2-2-1-2z"/>
    <path fill="#a0c455" d="M980 461l4-2v3l3-3h1l2 4 2-4c1 1 5 1 5 4l-7 3-18 1-15 1c-4 0-8 1-11-1l-3 2c-8 1-16 0-24 2l-7-2c-5 3-11 3-16 3l-11 1v-8l3 2 2 2c2 2 5 0 6-2l3 2c2-1 2-2 2-4l2 3c-2 0 0 3 1 1l12-1h19c5 0 9-3 14-2h11c5-1 11 0 16-2 2 1 4-1 2-3h2m12 1c-1 3 3 0 0 0z"/>
    <path fill="#a2c454" d="M784 461l14-1h9c-7 4-16 1-24 3l-2-2h3z"/>
    <path fill="#5f8227" d="M779 464l2-3 2 2c-1 2-3 2-4 1z"/>
    <path fill="#476f06" d="M814 461c1-1 3 2 2 3-2 1-3-2-2-3z"/>
    <path fill="#9cb956" d="M761 463l9-1h7l1 2c-4-1-8 0-12 1l-5-2z"/>
    <path fill="#326300" d="M967 462c3-1 0 3 0 0z"/>
    <path fill="#244b01" d="M976 464l2-3c2 2 0 4-2 3z"/>
    <path fill="#395402" d="M992 462c3 0-1 3 0 0z"/>
    <path fill="#4a6125" d="M808 464h3l1 5c-2-2-5 0-8 1 1-3 4-4 4-6z"/>
    <path fill="#8f997c" d="M997 465c1-2 1-2 2 0h-2z"/>
    <path fill="#9ec743" d="M724 466c3-1 7-2 11 0l-9 2c-3 2-3 5-5 7-7 5-18 2-24 9l15-1c5 1 10-1 15-2l2-2 4 3 4-2h3c2 3 6 0 9-1 2 0 2-3 1-3 1-3 3-5 6-6 1 1 3 2 3 4l-2 5 17 1-4 1-12 1-2-2c-3 2-6 2-9 2l-60 5-1-14h5l6 4-2 4 9-3 12-3c4-1 7-5 8-9m28 8l1 3h4v-5l-5 2m-64 0c1 1 1 1 0 0z"/>
    <path fill="#849562" d="M1167 466l7-1 2 3 1-3 2 1v5l-2-3-1 4a581 581 0 0 0-2 0h-3l1-5h-2v5c-2-1 0-5-3-6z"/>
    <path fill="#436b03" d="M801 466c1 0 2 2 1 3s-2-2-1-3z"/>
    <path fill="#8ca263" d="M822 466c1-1 3 1 3 2-1 1-4 0-3-2z"/>
    <path fill="#456f07" d="M888 467l3-1-1 3-2-2z"/>
    <path fill="#9ccd2f" d="M1152 467l12-1 1 6v3l2 11 2 2v1h-24l-15 1a80 80 0 0 0-15 1c-2 5-8 3-12 1v-3l-1-19c17 0 34-2 50-3zm-78 8c3-1 6-2 8 0l1 5c-2 0-5 1-6 4l5-1 2 6 3 27 1 13c2 5 1 10 1 15l-2 4c-2-1-3 2-1 3l3 2 1 14v16c-1 2-4 5-6 3l-5-5c-4-3-2-7-4-11l-3-9c1-3-2-6-2-10-2-7-6-14-5-22l3-6-2-4c-2-10-3-20-3-31-1-4-3-9-1-13h4c0 3 3 2 3 0h2l2 2 1-2m8 66c-1 1 0 4 2 3 1-1 0-4-2-3zm-751-20c9 0 19-1 26 6 8 7 7 19 8 28 1 4 0 8 2 12l3 5-3-3-1 3-3 3 4 7 2 8-1 5c-1 3 1 6 1 9 0 9 1 18-3 26-5 9-17 11-27 11l-1-16h-3l6-7 1-7-1-8v-13l5 1v-4l-4 1c-3-2-2-7-4-10 2-5 1-10 1-15l-2-16c0-3-2-4-5-5l-1-21m29 15c-2 1-2 4 0 4 1 0 2-3 0-4m-15 43l7 4v2h-5v2c4 1 5 5 8 6l3-2 1 3 5-2c0-3-3-2-4-3l-2-2v-1l2-4c2-2 1-6-1-7l-12-1c-2 0-2 3-2 5m15 6c-1 1 1 3 2 3 1-1 0-4-2-3m-13 21c-2 0-2 3-2 4 3-3 6-6 11-7 3 0 4-2 6-4l3 2-1-5-17 10zm-139-76c4 2 8 1 12 1l1-2 5 1c10 0 21-2 31 1 8 2 13 9 14 16l3 21 2 7v14l1 8v1l1 8c2 2 3-1 5-2l-1 4h-5v16l-3 10 3 2 2-3v4c-2 1-5 2-7-1 1 4-4 4-6 6-3 3-9 1-11 6l-2-2-2 2c-2-2-5-2-8-2v-6l1-13c3-1 5-2 6-4l1-1v-1l1-21 1-7 3-1 1-11-7-3c-2-8-1-17-3-25-3-6-10-6-15-4l3 1-4 1 3 44v13l1 4 1 16 3 3h-2v16h-13c0-2-1-3-3-4l-1-1v-1l-1-8c-3 1-5 3-6 6h-3v-24c-2-6 0-14-1-20-1-9-2-17-1-25v-1l-4-19v-5c-2-1-4-4-2-6v-7l5-1 1-1m-3 9c0 2 2 3 4 3 1-2-2-3-4-3m50 22c2 0 5 1 4-2-2 0-4-1-4 2m-45 4v3c2 0 4 0 5-2l-5-1m48 6c0 2 3 7 5 3l-5-3m-6 2v2l6 3c-1-2-3-5-6-5m-33 16c3-1 7-3 7-6-3 1-7 3-7 6m-6 18c-1 2 2 3 3 2 1-2-2-3-3-2m1 9c2 0 6-1 5-4-2 0-6 1-5 4m48 0c0 4 4 4 6 7l4 2c0-3-2-4-4-5-2-2-3-4-6-4m-11 12l-3 1v3l5-1c3-2 4-5 2-7l-4 4z"/>
    <path fill="#204402" d="M835 467c2-1 4 3 2 4-2 0-2-2-2-4z"/>
    <path fill="#3e630e" d="M904 469c-1 2-3-1-1-1l1 1z"/>
    <path fill="#3f5415" d="M1101 476l1-6 1 19-2-2-2-2v2c-2-2-1-5-2-7s0-3 1-5l3 1z"/>
    <path fill="#a2bc65" d="M1066 473l19-2 2 41c1 6 2 12 1 17l-1-13-3-27-2-6 1-1v-2l-1-5c-2-2-5-1-8 0-1-2-2-2-3 0h-9c-2 4 0 9 1 13 0 11 1 21 3 31h-3l-3-46h6z"/>
    <path fill="#8a9575" d="M845 473c1-1 4 0 3 2-1 1-4 0-3-2z"/>
    <path fill="#020402" d="M1071 475c1-2 2-2 3 0l-1 2-2-2zm-727 26l3-2-2 6-3-1 2-3zm244 41l3 1c1 2-1 3-1 4-2-1-2-3-2-5zm-272 12c2-1 4 1 2 2-1 2-3 0-2-2zm-5 1c2 1 5 2 6 5l-5 1 1-3-2-3zm706 26l4 4-1 1c-3 0-2-3-3-5zm-21 41l3-1-1 4-2-3zm-597 43c2-1 3 3 1 3-2 1-2-2-1-3z"/>
    <path fill="#a0c358" d="M585 475c3 1 5 0 8-1v4l-3-2c0 1-1 3-2 2l-3-2-1 2 2 2-5 2 4 2-3 4 3 2-5 1 8 2 6-8h2v7c-1 2-3 1-5 2l-18 1 1-4c2-1 5-2 6-4l-4-4-4 1 2-3c-3 0-6-1-8 2l2 2-1 2-1-2c-1 1-2 3-4 3l2-3-2-4 3 1c2-1 2-3 3-5 4 2 6-2 10-2l4 2c0-1 1-2 3-2m-10 2v3c2 0 5 1 4-2 0-2-3-1-4-1z"/>
    <path fill="#213701" d="M688 474c1 1 1 1 0 0z"/>
    <path fill="#4b7807" d="M788 474c2 0 2 0 2 2-2 0-2 0-2-2z"/>
    <path fill="#526329" d="M800 478l8-4-2 2 2 2c-3 2-6 0-8 0z"/>
    <path fill="#9ccd32" d="M1022 476c6-2 13-1 20-2l10 33 3 13h-13a24 24 0 0 0-8 0l-12-44z"/>
    <path fill="#699319" d="M1066 475h3c0 2-3 3-3 0z"/>
    <path fill="#1f4700" d="M798 475c3-1 0 3 0 0z"/>
    <path fill="#4f534b" d="M564 476c2 0 1 3 0 3-2 0-1-3 0-3z"/>
    <path fill="#4f7706" d="M749 479l1-3c1 0 1 3-1 3z"/>
    <path fill="#91b24d" d="M1004 477l13-1 11 42-2 1c-2-12-6-23-9-34 0-3-2-7-5-7-2 0-5 0-6 2-3 5 1 11 1 16 0 7-1 15 2 22h-3l-2-25v-16z"/>
    <path fill="#9dcc36" d="M555 477l5 3c1 5-2 11 2 15l5-8 1-2 6 3-3 1v5h-6c-3 2-7 2-11 2l-2-2c-2 3-6 3-9 3-9 0-18 2-27 1-3-1-8 1-11-2 2-2 4-3 5-6l4-4-1-6h3l-1 2c2-3 5-3 8-2v6c4-1 4-5 6-7h7l-2 2 1 3-4 2 7 6 1-4h-1c-1-3-3-5-1-7 3 1 5-3 8-1 0 3-4 2-5 5l5-2 6 2c1-3 4-5 4-8m-28 8c0 3 3-1 0 0m-5 5c-1 0-2 4 0 4s2-3 0-4z"/>
    <path fill="#193503" d="M575 477c1 0 4-1 4 1 1 3-2 2-4 2v-3z"/>
    <path fill="#356406" d="M727 481c-1-2 1-4 2-2l-2 2z"/>
    <path fill="#366105" d="M737 480c-1-2 3-2 3 0h-3z"/>
    <path fill="#98b955" d="M964 480l27-2a99 99 0 0 1-1 13l-1-9c-1-3-5-2-7-2-5 1-11 0-16 2-2 4 0 9-2 13l-1-4c2-3 0-7 1-11z"/>
    <path fill="#9cce2f" d="M1006 480c1-2 4-2 6-2 3 0 5 4 5 7 3 11 7 22 9 34-6-2-12-3-17-1-3-7-2-15-2-22 0-5-4-11-1-16z"/>
    <path fill="#85965c" d="M1168 482c-2-3 2-3 3-4v2c-1 1-1 3-3 2z"/>
    <path fill="#91a264" d="M591 481l4-1c1 2 0 3-1 4l-2-1-1-2z"/>
    <path fill="#9bcb30" d="M947 481l11-1 1 10 1 19a863 863 0 0 0 3 28h-9l-1 3c-3-1-2-4-2-6l-2-4v-4c-3 1-6 4-9 4 1 3 3 5 2 8l-4 1-2 2-2-25c-1-6-2-12 0-18l-2-7 7 1v5h3l-2-10c-3-1-6-2-7-5h4c3 0 5 4 9 3 1 1 3 4 4 1l-3-5m5 40c2 1 4-1 4-3-2-1-4 1-4 3m-9 4l3 1 1-3c-2 0-3 0-4 2z"/>
    <path fill="#9dcd30" d="M966 482c5-2 11-1 16-2 2 0 6-1 7 2l1 9 1-6 1 6v8h-3c-3-2-6-3-9-2v3h-7l-10 1c0-2 2-4 0-5l1-1c2-4 0-9 2-13z"/>
    <path fill="#5f8913" d="M1077 484c1-3 4-4 6-4v2l-1 1-5 1z"/>
    <path fill="#96a66e" d="M498 487c3-1 3-5 6-6l-2 9c1 0 3 0 3 2h-4l-3-5z"/>
    <path fill="#65675e" d="M507 481c3-1 0 3 0 0z"/>
    <path fill="#719027" d="M937 482l10-1 3 5c-1 3-3 0-4-1-4 1-6-3-9-3z"/>
    <path fill="#8e9c6f" d="M613 482c3-1 4 0 4 3l4-1 1 5-9-4v-3z"/>
    <path fill="#707663" d="M650 482c3-1 2 3 0 3s-1-2 0-3z"/>
    <path fill="#6d8b32" d="M932 482h1c1 3 4 4 7 5-2 0-4 2-5 3l-2-3-1-5z"/>
    <path fill="#949985" d="M623 483c2 0 2 0 2 2-2 0-2 0-2-2z"/>
    <path fill="#a3c363" d="M664 488c2-4 8-6 13-5v5h-13z"/>
    <path fill="#9ccc2e" d="M879 484c6 0 12-1 18 1 5 2 8 6 10 10l-4-2 1 3 2 5 2 2-1 4 2 10c0 3-3 3-5 4h-16l-3-9v4c-1-3 0-6-2-9l-3-3c-1-6-2-13-1-20z"/>
    <path fill="#508103" d="M1194 483c2-1 2-1 3 1-2 1-2 0-3-1z"/>
    <path fill="#8fa55d" d="M444 487c0-2 3-2 4-3v5l-4-2z"/>
    <path fill="#a3c269" d="M449 486c2-2 5-3 6 0-3 1-4 5-5 8 4 1 2-6 6-6 1 4-3 6-2 10-3 0-3-3-5-4l-6 3v-3l3-2 1-2h2v-4z"/>
    <path fill="#7c905b" d="M633 487c0-2 3-2 4-3 2 1 0 4-1 4l-3-1z"/>
    <path fill="#a3c259" d="M640 484c3 0 7 2 7 5l-9 1 2-6z"/>
    <path fill="#3f6808" d="M527 485c3-1 0 3 0 0z"/>
    <path fill="#9bcb2e" d="M860 487l13-2 1 20-2 2c-2 1-1 4-2 6l-2 2c5 4 3 11 4 17l2 36 2 4v10l3 6-4 6-5 1c0-4-1-8-4-11l-1-3v-1l-2-2-7-5c0-5 7-6 6-10-6 0-6 7-10 10l-1 1-3-12c-1-6 1-11-1-16v-16c-1-7 0-14-2-20 1-2 1-4-1-6-1-2 2-6 3-8 2-5 7-8 13-9z"/>
    <path fill="#8f9386" d="M426 486c2 0 2 0 2 2-2 0-2 0-2-2z"/>
    <path fill="#9dcd32" d="M406 489c1-1 3-3 5-2l3 4 4-1v5l3 2h-4l3 3 1 5-39 3-58 4-15 1-4-4 2 3c-2 2-6 2-9 2l-31 3-8 3-9-1-12-1-35 2-3-1c-2 4-7 2-10 3l1 3-4-1 2 2c-2 2-4 3-6 2l-1 1 3 35c1 3-2 4-3 5-1 2 3 2 4 2 0 3 0 6-2 8 2 2 3 6 3 9l-20 1-1-19c0-3-1-7 2-9l4-8c0-1 2-2 1-3-2-4-6-5-9-6v-12l4-2 2-3v3h3l-1-4 1-5h2l-4-7 2-3-1-2v-2l1-3v-2h3l1-3h6c3 2 7 2 11 3l-2-5c2 1 3 2 6 1l-2 4h6c1 0 3 3 4 1s3-2 6-2c0 2 1 4 3 5v-4h1v3l5-1-1-3v-1l32-2c4 0 8 0 11-2l10 1 3 3-1-3 8-1c1 3-2 5-3 7l2 6 3-4c-1-1-3-2-2-4 0-2 2-4 4-5l2 2h1c3 0 5 5 8 3l2-2-3 1-1-5h9l5 1c2-3 7-2 10-1l3-2 1 2h3l4 4 3-1 5 1-1-2v-3c4-1 8 3 6 7l-2 3 3 1 6-4 3 1 2-3 3 2 5 1 4 1v-3l3-1c2-3 3-6 6-8l4 2c3-2 5-5 8-5 5 0 11-1 17 1m-15 2c-1 1 0 4 2 3 1-1-1-3-2-3m-74 7c0 2-1 6 2 5 0-2 1-5-2-5m39 4c0 2 1 4 3 4-1-2-1-4-3-4m-83 1c0 2 0 2 2 2 0-2 0-2-2-2m20 0c1 1 0 5 3 4 0-2-1-4-3-4m43 0c0 2 0 2 2 2 0-2 0-2-2-2m-71 4v3l2-1h4l1-4-7 2m77 0c-1 1 0 4 2 3 1-1 0-4-2-3m-113 1c-1 1 0 4 2 3 1-1-1-3-2-3m40 3c-1 1 1 4 2 3s0-4-2-3m-91 14c-2 3 3 0 0 0m-13 12c-1 1 0 4 2 3 1-1 0-4-2-3m12 6c-1 1 1 4 2 3s0-4-2-3m-2 28l2 2-1 4 8-1c1-2 0-3-2-3l-3-4-4 2m-2 3c1 1 1 1 0 0m3 4c-1 2 1 4 3 3 1-1-1-4-3-3zm1022-45c0-3 4-4 6-4l1 10 1-2 3 33c2 0 4 0 5 2-2 0-3 0-4 2-2 5 2 10 0 15-2 0-3-2-4-1-2 1-3 3-5 3s-2-2-3-3c-2 3-5 5-8 6l-1-1-2-3c-1-1 0-3 1-4l-2-6 5 3c0-3-2-5-1-8l5-5-5 2c-1-3 0-5 2-8l-3 1c2-4 3-8 0-12h4l-1-5 4-1-6-3c3-3 8-3 11-7l-3-1v-3m-9 52c-1 3 3 1 0 0m0 4c-1 1 0 4 2 3 1-1 0-4-2-3z"/>
    <path fill="#3e4438" d="M600 487c2 0 1 3 0 3-2 0-1-3 0-3z"/>
    <path fill="#50543f" d="M603 491c0-2 3-6 5-3l-2 4-3-1z"/>
    <path fill="#8e977d" d="M629 487c2-1 4 1 3 2s-3-1-3-2z"/>
    <path fill="#2a4900" d="M933 487l2 3c1-1 3-3 5-3l2 10h-3v-5l-7-1 1-4z"/>
    <path fill="#656a61" d="M421 488c2 0 2 0 2 2-2 0-2 0-2-2z"/>
    <path fill="#6f7760" d="M425 488c2 0 1 3 0 3-2 0-1-3 0-3z"/>
    <path fill="#515448" d="M377 489c3-1 0 3 0 0z"/>
    <path fill="#76a60e" d="M522 490c2 1 2 4 0 4s-1-4 0-4z"/>
    <path fill="#9bcb2f" d="M799 491l9-1 4 18 7 28 2 3c-1 3-1 5 2 6v1h-2l2 8v2l6 28-3 1c-2 5-1 12-3 18l-2-2-3-1c4-3 3-9 5-13l1-5-5 1 3-5-7 5v10l3 4c-2 1-4 0-6-1l-4 3-2-1h-1v-5l3-5-2-8-3 2-5-25c2 0 4-1 4-3h-5l-3-16-4 1 3-3-1-6v-2l-2-8-5-28h10c4 3-3 5-1 8l8 1v-3l-4-2 4-4-3-1m3 16v3l4 4c2-1 3-2 3-4l-3-1 1-4c-2 0-4 0-5 2m5 65c0 1-1 3 1 4 2 0 2-5-1-4z"/>
    <path fill="#364e0d" d="M1121 491l9-1v2l-2-1 1 4-4 1h-2c-2-1 1-5-2-5z"/>
    <path fill="#96a181" d="M302 491c1 0 2 3 0 3v-3z"/>
    <path fill="#a4c163" d="M351 491h4c0 2 1 4-1 6l-5-1 2-5z"/>
    <path fill="#366503" d="M391 491c1 0 3 2 2 3-2 1-3-2-2-3z"/>
    <path fill="#767873" d="M610 491c3-1 0 3 0 0z"/>
    <path fill="#6a940f" d="M790 492l9-1 3 1-4 4 4 2v3l-8-1c-2-3 5-5 1-8h-5z"/>
    <path fill="#9ccb30" d="M1128 491l2 1c2 1 3 3 5 3l13-1 2 19v10c-3 1-7 1-9 4l5 5c2 2 1 5 1 8l3 1c0 2-2 3-3 4l-6 6-9 2-2-4-3 5-2-1v-11l4-3 2-1a305 305 0 0 0-2-10l-5 2v-4c2-5 0-11 0-17-1-4 0-9 1-13l4-1-1-4m-1 16l4-1 1-4c-3 0-6 2-5 5m16 6c-1 1 0 4 2 3 1-1 0-4-2-3z"/>
    <path fill="#a1c552" d="M325 493l17-1 4 5 7 1-2 3-6 4 2-6-3 2c2-4-2-8-6-7v3c-1-1-3-1-4 1l-3-3h-6v-2z"/>
    <path fill="#96a676" d="M360 495c1-2 4-3 6-3l-2 2-4 1z"/>
    <path fill="#93a078" d="M440 492c2 0 2 0 2 2-2 0-2 0-2-2z"/>
    <path fill="#a3c157" d="M766 493l14-1 5 27 1 6 2-2 4 5v2h-4c0-2 1-4-1-4v23l-2 1c-1-9 2-17 0-25-3-9-4-18-6-28-2-4-7-3-11-2l-1 11-1 16-2 17v9l-1 2-1 9c1 7-1 14-1 21v6l-2 1c-1-6 1-12 1-19l6-75z"/>
    <path fill="#315103" d="M327 495h4l3 3-3 1-4-4z"/>
    <path fill="#76884d" d="M360 495l4-1v2l-2 2h-1c0 2 1 3 3 4l-5-1 1-2c-2-1-3-2-3-4h3z"/>
    <path fill="#9ccd2e" d="M768 495c4-1 9-2 11 2 2 10 3 19 6 28 2 8-1 16 0 25 2 3 2 7 1 11v1l1 6h3l3 2v6l-8 2h-1l-4-3-6-2c-1 4-2 7-5 9s-5-1-8-2c0-7 2-14 1-21l1-9c2 1 3-2 1-2v-9l2-17 1-16 1-11m-1 48l-1 1 7 2c-2-2-4-4-6-3zm-323-26l9-1c2 1 2 3 3 5l1 2c1 2 0 3-1 5l3-1 5 4-4 3v6l-3-1 1 6 2 26-4 2-2-2-4 2-1 4h-6l-1 5-3 3-4-3-1-3c-2-7-2-14-2-21l2-2-3-1-1-16c-2 0-4 0-5-2h5l1-17 2-2 11-1zm571 1l10 2c1 1 3 3 3 5 2 9 3 19 3 29h-4l-1 2-7 2c-2 0-6 2-7-1-2-4-2-9-2-14 0-7-2-14 0-20l5 2-2-3 2-4m1 7c1 2 1 2 3 1-1-1-1-2-3-1m4 1c0 2 0 2 2 2 0-2 0-2-2-2m3 2c0 3 3-2 0 0m3 1c0 3 3-1 0 0zm-633-8l17-1 2 2 2 25 2 23 1 24 3 16c3 2 5 6 9 5v1c0 2-2 1-3 2v5l-3 10-5 2c-8 1-16-2-19-9l4-1-3-2-3-5c-4-8-1-17-3-25l-1-16-3-38-1-16 4-2m3 56c1 4 4 8 9 7l-1-5-8-2m13 4v5c3 0 3-5 0-5m1 7l-1 1 3 9c3-3 0-8-2-10z"/>
    <path fill="#93ae5d" d="M368 497c0-2 1-2 2-2l-1 3 2 1-3 1c-2 0-4 0-6-2l2-2 4 1z"/>
    <path fill="#214503" d="M334 498c1-2 3-2 4-1l1 2-5-1z"/>
    <path fill="#a3b980" d="M448 496c2 0 2 0 2 2-2 0-2 0-2-2z"/>
    <path fill="#a2bb63" d="M478 496c2 1 5 0 7 2-2 1-3 4-6 4-9-1-19 1-28 1 0-3 4-4 7-3 2-2 4-3 6 0l5-2 2 3 4-2 2 2 1-5z"/>
    <path fill="#a2bd6c" d="M495 498l10-2c3 3 8 1 11 2l-4 1-25 2c2-2 5-2 8-3z"/>
    <path fill="#7d963d" d="M904 496c2 1 5 1 5 4l-3 1-2-5z"/>
    <path fill="#a6b581" d="M999 499l1-3c1 1 1 2-1 3z"/>
    <path fill="#a0c354" d="M1121 496h4c-1 4-2 9-1 13 0 6 2 12 0 17l-1-8-2-22z"/>
    <path fill="#a3bc6c" d="M440 497l5 2v5c-3 0-7 1-9-2l3-3 1-2m1 4c0 2 2 3 3 2l-3-2z"/>
    <path fill="#9cba61" d="M962 508c-1-4-2-8 1-12 2 1 0 3 0 5l10-1-2 1-7 2v6l-2-1z"/>
    <path fill="#5e8c09" d="M317 498c3 0 2 3 2 5-3 1-2-3-2-5z"/>
    <path fill="#284706" d="M361 498h1c2 2 4 2 6 2v3l-4-1c-2-1-3-2-3-4z"/>
    <path fill="#9ccc2f" d="M679 499l21-1 1 21h-26c0-4-2-9 3-11l3-2-2-7zm-357 26l4 3c-1 5 1 9 1 14l-4 4-1 5-2 2 3 1c1 3 0 6-1 9l2 4 1 20v16l1 14c1 3 5 5 5 8v15c-9 1-18 0-24-7-3-3-4-7-5-10a138 138 0 0 0-4-2c0-1 2-2 1-3-1-2-1-4-3-4l4-4-1-3c-3 0-7-4-5-8l3-1 1-4v6c3-2 8 0 11-2 3-3-3-3-5-3l1-3 1-2-1-1h-7v-6l-4-1v-3l3 2c-1-6 1-12-1-18v-19c0-2 0-5-2-7 1 0 3 0 4-2 2-4 5-7 9-9l4 3 3 8 6-8 2-4m-12 25l1 2c1-3 4-4 5-6-3 0-4 2-6 4m8-4l2 1c2-1-1-2-2-1m-2 8c-1 2 1 4 2 2 2-1 0-3-2-2m-5 1l2 3-1 3 5-1c-1-3-4-4-6-5m4 10h4v-3c-2 0-4 1-4 3z"/>
    <path fill="#88ae39" d="M673 499h6l2 7-3 2c-5 2-3 7-3 11h14v1h-15c-1-7-2-14-1-21z"/>
    <path fill="#4b5933" d="M989 499h1v5a15342 15342 0 0 0 7-2c0 1 0 3-2 4h-6l-1-2 1-5z"/>
    <path fill="#243913" d="M216 502c1-2 3-3 4-1l1 3-5 1v-3z"/>
    <path fill="#919b7c" d="M983 500c3 1-1 3 0 0z"/>
    <path fill="#2a3d0e" d="M441 501l3 2c-1 1-3 0-3-2z"/>
    <path fill="#737f6c" d="M447 501c1 0 3 2 2 3-1 0-3-2-2-3z"/>
    <path fill="#9bca30" d="M641 502c9-1 17-2 26-1l2 27v6c-2 1-5 2-7 5l-2 6c4 0 7-1 9-4h1l1 11-7 1-3 3 5 1-2-3h7v4l1 9 1 14-4 6h3l1 6c-4 2-9-1-13 0l-2-2c-2 2-5 3-5 6 0 2 2 3 4 5l3-2-1 7c-1 3-3 4-6 5l1 2-3 2-1-3c-2-9 0-19-2-27l-1 5-1-1-1-32v-4l-1-2-1-18-1-17c2 1 4-1 5-3l-2-1-2 3c-3-4-2-10-2-14m15 8c-1 2 1 4 3 3 0-2-1-4-3-3m3 14c-2 1-1 4 1 3 2 0 1-4-1-3m-15 3c-1 1 0 4 2 3 1-1 0-4-2-3m5 17l6 1-1-3c-2 0-7-1-5 2m9 7c-1 1 0 4 2 3 1-1 0-4-2-3m-4 1c-2 1 0 3 1 3 2 0 1-3-1-3m6 27c2 0 4-2 4-4-2 0-4 2-4 4z"/>
    <path fill="#3a4d17" d="M964 503l7-2c-1 1-1 4-3 4-3-1-3 3 0 2 0 3-2 2-4 2v-6z"/>
    <path fill="#395903" d="M356 502c2 0 2 2 3 4-2 0-3-2-3-4z"/>
    <path fill="#4c7402" d="M1127 507c-1-3 2-5 5-5l-1 4-4 1z"/>
    <path fill="#315900" d="M273 503c2 0 2 0 2 2-2 0-2 0-2-2z"/>
    <path fill="#4f7808" d="M293 503c2 0 3 2 3 4-3 1-2-3-3-4z"/>
    <path fill="#305702" d="M336 503c2 0 2 0 2 2-2 0-2 0-2-2z"/>
    <path fill="#929b88" d="M433 503c1 1 1 1 0 0z"/>
    <path fill="#9fc749" d="M164 505l9-1-1 3h-3c0 4-1 8 1 12-3 1-6 3-4 6v1l-4 1 2-5-2-2c1-3 2-7 0-10h3l-1-5z"/>
    <path fill="#6d9712" d="M265 507l7-2-1 4h-4l-2 1v-3z"/>
    <path fill="#a1c15a" d="M573 506l26-1c1 8 2 16 1 24l-1-4-1-16-3-3-13 2-6 1c-2 6-1 13 0 20-1 3 3 4 5 5h-7c0-9-2-18-1-28z"/>
    <path fill="#729b1a" d="M802 507c1-2 3-2 5-2l-1 4 3 1c0 2-1 3-3 4l-4-4 3 1c1-2-1-3-3-4z"/>
    <path fill="#3c5410" d="M844 505v-1c2 2 2 4 1 6-2 3-1 7-1 10v-15z"/>
    <path fill="#86935f" d="M968 507c-3 1-3-3 0-2v2z"/>
    <path fill="#7e827c" d="M160 506c2 0 2 0 2 2-2 0-2 0-2-2z"/>
    <path fill="#9bcc2e" d="M582 508l13-2 3 3 1 16 1 4 1 3 3 40-1 4c-2 3 0 7 0 11 1 3-2 6-2 8v1l-15-1-6-2-1-18c1-6-2-12-2-18 1-5-2-11 0-16l5 1h2c1-2 4-2 7-3 1-2-1-4-2-5-2-3-5 1-8 0-2-1-6-2-5-5-1-7-2-14 0-20l6-1m11 31c-1 2 2 3 3 2 1-2-2-3-3-2m-5 3c0 2 0 4 2 5 0-1 2-2 1-4l-3-1m3 45l6-2c1-2-2-3-3-3-3 0-2 3-3 5z"/>
    <path fill="#132f01" d="M342 507c2-1 3 2 2 3-2 1-3-2-2-3z"/>
    <path fill="#436704" d="M802 507c2 1 4 2 3 4l-3-1v-3z"/>
    <path fill="#94b455" d="M907 507h1c2 5 4 10 3 15l-26 1a63 63 0 0 1 0-11l3 9h16c2-1 5-1 5-4l-2-10z"/>
    <path fill="#4d7c08" d="M229 508c1 0 3 2 2 3-2 1-3-2-2-3z"/>
    <path fill="#9ec550" d="M512 511c9-1 18-2 27 1 3 1 5 3 7 6-4-1-7-4-10-4-8-3-16 0-24-1v-2z"/>
    <path fill="#294e03" d="M656 510c2-1 3 1 3 3-2 1-4-1-3-3z"/>
    <path fill="#97be45" d="M844 520c0-3-1-7 1-10 2 6 1 13 2 20v16c2 5 0 10 1 16l3 12-1 2-1 2h3a75 75 0 0 0 1 17c-2-1-3-4-4-6l-3-25-1-17-1-18v-9z"/>
    <path fill="#3a6008" d="M269 511c2-1 3 2 2 3s-3-2-2-3z"/>
    <path fill="#789437" d="M505 514c1-3 4-3 7-3v2l-3 3-9-1 3-3 2 2z"/>
    <path fill="#9ccd2d" d="M494 513l9-1-3 3 9 1 3-3c8 1 16-2 24 1 3 0 6 3 10 4h3v1l3 10 1 12v2l-1 7v4c-1 2 0 4 1 6h-3c-3 0-5 3-8 4s-5 0-7 2c4 0 9 1 13 3l5 3 4-2c0 2-3 2-4 3 3 5 5 11 5 18l1 2-1 6c-1 3 2 5 1 8l-3 6-5 7-7-1c-3-2-5 1-7 3l-8-9 2-4c1 0 3-2 1-4 0-3 0-7-2-10v-4c3 2 7 2 10 2l1-1-4-1-3-4c2-3 6-3 9-5-3 0-6 0-9 2l-6-8c-3-1-7-1-9-3l-3-7-1-1c2-6 10-5 11-11 2-5 1-10 1-15s-3-9-7-11c-4-1-8 0-12 1l-1 3c-1 6 0 13 1 19l1 2c2 4 1 8 1 12l-3 2 1 3 1 5-4 1-4 3c-2-2-4-3-7-3l-8 1-1-8-1 2-3-46v-12h1c-3 4 2 7 5 7s5 2 6 4l5-3c-2-2-4-5-4-8m39 81l1 5c1 0 3-1 2-3l-3-2z"/>
    <path fill="#a1b37c" d="M545 512h2c2 2-3 3-2 0z"/>
    <path fill="#89b427" d="M482 513h12c0 3 2 6 4 8l-5 3c-1-2-3-4-6-4s-8-3-5-7z"/>
    <path fill="#4c7507" d="M1143 513c2-1 3 2 2 3-2 1-3-2-2-3z"/>
    <path fill="#1f4804" d="M1194 513c2 0 1 3 0 3-2 0-1-3 0-3z"/>
    <path fill="#87a54b" d="M429 516l26-1c2 2 1 4 1 6-1-2-1-4-3-5l-9 1-11 1-2 2-1 17h-5c7-5 3-14 4-21z"/>
    <path fill="#899b6c" d="M457 516c2 1 2 1 1 3-1-1-2-1-1-3z"/>
    <path fill="#486e10" d="M1009 518c5-2 11-1 17 1l2-1h1v2h-4l-10-2c-3 0-6 2-8 4l-1-4h3z"/>
    <path fill="#97b851" d="M388 519c9 0 17-2 26-1 0 2-2 3-4 2l-17 1-4 2 1 16 3 38 1 16c2 8-1 17 3 25h-2l-2-21-1-13-1-12v-4l-2-25c0-8-2-16-1-24z"/>
    <path fill="#394d1a" d="M785 519c2-1 4 0 5 1l2 8-4-5-2 2-1-6z"/>
    <path fill="#5e880d" d="M952 521c0-2 2-4 4-3 0 2-2 4-4 3z"/>
    <path fill="#9dbd57" d="M1007 522c2-2 5-4 8-4l-2 4-3 1c-2 6 0 13 0 20 0 5 0 10 2 14 1 3 5 1 7 1l-4 2-6 1-1-16c0-8-2-15-1-23z"/>
    <path fill="#6c872e" d="M461 522c0-1 0-5 2-3 1 3 2 7 0 10l1 2-5-4-3 1c1-2 2-3 1-5v-1l2-1v3l2-2z"/>
    <path fill="#395309" d="M1036 520h20c-1 5 3 10-1 15v2l-5 1 3-3c1-4 2-9 1-13l-17-1-1-1z"/>
    <path fill="#394716" d="M417 521l4 1c0 1 2 2 3 0l3 3c-1 2-2 5-4 6l-6 1-1-7h-1v-2l2-2m6 5c0 2 1 2 2 2 0-2 0-2-2-2z"/>
    <path fill="#7f8d5c" d="M421 522c0-3 4-2 3 0s-3 1-3 0z"/>
    <path fill="#92b34c" d="M1025 520h4c4 10 3 21 4 31l1 9 3-4v4l-3 1v7c-2-4-3-9-3-14 0-10-1-20-3-29 0-2-2-4-3-5z"/>
    <path fill="#9ec64d" d="M412 522l2-1 1 2v2l1 20 4 54 1 4 3-1-4 8-3-16-1-24-2-23-2-25z"/>
    <path fill="#9bca32" d="M1035 521h2l17 1c1 4 0 9-1 13l-3 3c-1 1-3 0-5-1 4 4 11 2 15 0l7 23c2 4 3 8 6 10l-2 2c0 4 3 8 3 13h-1l-8-5c1-4 2-9 0-13 0-2 2-5 0-7l-6-1c1 2 3 3 3 6l-6 3 2-6h-7c2 5 1 10 1 15l-2-2-11-36-4-18m6 14c0 1 2 3 3 2 0-1-2-3-3-2m9 16c3 0 9 1 9-3-3 1-7 0-9 3zm-233 70c4-2 9-2 13-2l-3 1c0 2-2 5 1 6 2 3 1 7 1 10l-3 2v-7c-1 2-3 4-6 4-1-2 0-5-3-6v9h-3l1-3-3-1c1 2 2 3 1 5-4-2-8 2-11 0-2 2-6 1-5-2l3 1c0-3-3-1-5-2l1 4h-6l-1-4-2 5h-8l-3-4 2 4-12 1-2-3-2-3v-2l2-5h-2l2-3c3 1 4 3 6 5 0-3 0-6-2-8h9c4 1 8 2 12 1l3-2v-1h14l3 2 2-1 1-2 2 2v4l5-3-2-2m-16 5c-1 1 1 3 2 3 1-1-1-3-2-3m-11 3c-1 1 1 3 2 3 1-1-1-3-2-3m8 1c-1 2 2 2 2 1 2-1-1-2-2-1m-12 4l3 1 1-2c-1-1-4-1-4 1z"/>
    <path fill="#8fa079" d="M167 524c1-3 4-2 3 1l-3-1z"/>
    <path fill="#3f4435" d="M216 522c1-1 4 0 3 2-1 1-4 0-3-2z"/>
    <path fill="#718a3b" d="M316 523l10-1v6l-4-3-2 4-4-6z"/>
    <path fill="#5a8507" d="M1010 523l3-1 2 3-5-2z"/>
    <path fill="#32470b" d="M307 526l9-3 4 6-6 8-3-8-4-3z"/>
    <path fill="#4b720a" d="M943 525c1-2 2-2 4-2l-1 3-3-1z"/>
    <path fill="#5c8b0e" d="M659 524c2-1 3 3 1 3-2 1-3-2-1-3z"/>
    <path fill="#2c5700" d="M178 525c3 0-2 3 0 0z"/>
    <path fill="#444939" d="M205 525c2 0 2 0 2 2-2 0-2 0-2-2z"/>
    <path fill="#578305" d="M1016 525c2-1 2 0 3 1-2 1-2 1-3-1z"/>
    <path fill="#97a46f" d="M423 526c2 0 2 0 2 2-1 0-2 0-2-2z"/>
    <path fill="#769823" d="M940 530c3 0 6-3 9-4v4c-2 1-5 2-6 4l1 6a1558 1558 0 0 1-2-2c1-3-1-5-2-8z"/>
    <path fill="#a1c05b" d="M966 527c7 0 13-2 20-1l1 20-19 1-1-4 2 1c5 1 10 1 14-1 2-1 2-5 2-7 0-3 1-6-2-8-5-1-9 0-14 1v11c-1 0-2-1-2-3 0-3-2-6-1-10z"/>
    <path fill="#5a8808" d="M1020 526c2 0 2 0 2 2-2 0-2 0-2-2z"/>
    <path fill="#6a9118" d="M644 527c2-1 3 2 2 3-2 1-3-2-2-3z"/>
    <path fill="#9cbb5a" d="M1194 531c2-4 8-3 12-4a123 123 0 0 1-1 12l-1-10c-2 0-6 1-6 4l-4-2z"/>
    <path fill="#a2c554" d="M508 529c4-1 8-2 12-1 4 2 7 6 7 11s1 10-1 15c-1 6-9 5-11 11v-7c3-1 8 0 10-3v-16c0-3-1-7-4-9h-13l1 23-1-2c-1-6-2-13-1-19l1-3z"/>
    <path fill="#9aca2f" d="M969 529c5-1 9-2 14-1 3 2 2 5 2 8 0 2 0 6-2 7-4 2-9 2-14 1v-15z"/>
    <path fill="#366300" d="M1023 528c3-2 0 3 0 0z"/>
    <path fill="#80a72c" d="M1124 530l5-2 1 7-2-2-1 3h-3v-6z"/>
    <path fill="#477200" d="M1026 529c3-1 0 3 0 0zm-119 90c3 0-1 3 0 0z"/>
    <path fill="#2e4708" d="M460 534l4-3c0 5-2 9-4 13l-2 1-1-6 3 1v-6z"/>
    <path fill="#97ac5b" d="M619 544c4-3 3-9 4-13l3 2c0 4-2 7-4 10 0 4-2 9 0 13l-6-3c3-1 3-6 3-9z"/>
    <path fill="#6e795d" d="M618 533h2v2l-2-2z"/>
    <path fill="#89a253" d="M666 542c0-3 1-7 4-8l-1 7-3 1z"/>
    <path fill="#274f00" d="M1041 535c1-1 3 1 3 2-1 1-3-1-3-2z"/>
    <path fill="#29370a" d="M290 536l4 1c2 2 2 5 2 7l-4-3-2 1c-2-2-1-4 0-6z"/>
    <path fill="#446c04" d="M360 536c2 1 1 4 0 4-2 0-2-3 0-4z"/>
    <path fill="#8d967b" d="M614 536c3-1 0 3 0 0z"/>
    <path fill="#99c82e" d="M946 536h2c1 2 2 5 4 6l4-4h9v9c-2 0-2 1-2 2l1 21c0 4 6 8 2 12v-5l-3-1c-2 0-6 0-7 3l-2 1 1-6v-5l-1-1-4-1h-9c-3 2-1 6-3 9l-1-4-1-31 2-2 1 3 4-2a1558 1558 0 0 0 3 0v-4m10 38l3-2 3 1-2-6c-3 1-3 5-4 7z"/>
    <path fill="#253907" d="M1124 537c2 0 5-2 6 0l-1 2-4 3v5l-1-10z"/>
    <path fill="#2e5309" d="M165 537c2-1 3 2 2 3-2 1-3-2-2-3z"/>
    <path fill="#8faf4d" d="M575 537h2l5 5-5-1c-2 5 1 11 0 16 0 6 3 12 2 18l1 18 6 2h-8c1-8-1-15-1-23l-1-11c0-8-2-16-1-24z"/>
    <path fill="#95ac5c" d="M614 549c-1-4-1-11 4-12-1 4-2 7-1 11l-3 1z"/>
    <path fill="#636b52" d="M1194 537c2-1 3 2 2 3-1 0-3-2-2-3z"/>
    <path fill="#484a40" d="M422 538c4-1 0 4-1 1l1-1z"/>
    <path fill="#91b14e" d="M882 539c11 0 21-2 31-1l2 22c0 3-1 6 1 8 2 0 3-2 4-3v4h-5c0 8 2 17-2 25-5 7-14 9-22 9l4-2 2-1c3 0 7 0 9-3 4-2 6-6 7-10 2-9 1-19 0-28-2-6 1-13-2-19l-15 1c-1 0-3 0-4 2l3 1-4 2-1-2c1-4-4-5-6-2l1 15c0 2 3 3 4 4h-6l-1-22z"/>
    <path fill="#699410" d="M205 539c2 0 5 1 4 3-2 0-4-1-4-3z"/>
    <path fill="#6a940e" d="M593 539c1-1 4 0 3 2-1 1-4 0-3-2z"/>
    <path fill="#314410" d="M821 539l4 4-2 2c-3-1-3-3-2-6z"/>
    <path fill="#99c92f" d="M896 541l15-1c3 6 0 13 2 19 1 9 2 19 0 28-1 4-3 8-7 10-2 3-6 3-9 3v-1l3-3v-4l1-1 2 1c1 0 2 0 2-2 0-4 2-9 0-13l-2 4-2-1c1-1 3-3 1-5-3 2-2 5-2 8-1-3-4-4-7-5l-2-1-1 2v-3l-1-11v-4c-1-1-4-2-4-4l-1-15c2-3 7-2 6 2l-2 2c0 2 2 1 3 0l4-2 2-1-1-2z"/>
    <path fill="#737e5f" d="M609 540c1-1 2 3 0 4v-4z"/>
    <path fill="#475a1e" d="M290 542l2-1 4 3v6l-5-2c-2-1-2-4-1-6z"/>
    <path fill="#396009" d="M892 543c1-2 3-2 4-2l1 2-2 1-3-1z"/>
    <path fill="#6c9a0d" d="M1082 541c2-1 3 2 2 3-2 1-3-2-2-3z"/>
    <path fill="#537b09" d="M649 544c-2-3 3-2 5-2l1 3-6-1z"/>
    <path fill="#2a5305" d="M177 543c2-1 3 2 2 3s-3-2-2-3z"/>
    <path fill="#97a86f" d="M199 543c2 0 2 0 2 2-2 0-2 0-2-2z"/>
    <path fill="#355d03" d="M888 546l2-2 1 2c-1 1-3 2-3 0z"/>
    <path fill="#96b54f" d="M1089 544l1 7 3 37h-12l-2-7 5 5c2 2 5-1 6-3v-16l-1-14-3-2 1-3 2-4zm-605 27l1-2 1 8 8-1c3 0 5 1 7 3l-2 1-4-3-8 1v7l2 1c-3 5-1 11-2 16 0 5 2 9 1 14l2 10c2 2 6 2 9 2v1h-11l-1-9c-2 0-6 2-7-1l1-1 6-2-1-6-1-15-1-24z"/>
    <path fill="#81a82a" d="M1141 551l6-6 2 3-2 1 2 1-1 3-5-1c-2 4 3 8 1 11l-5-1-1-2v-4l4-4-1-1z"/>
    <path fill="#57800a" d="M318 546c1-1 4 0 2 1l-2-1z"/>
    <path fill="#9bc048" d="M676 547c3-1 7-1 10 2v-3h9v8h-3l-11-1c-2 0-3-3-5-4v-2m4 1c0 2 1 4 3 3 1-2-1-3-3-3z"/>
    <path fill="#94a965" d="M510 547c2-1 3 2 2 3-1 0-3-2-2-3z"/>
    <path fill="#9bc14a" d="M232 549c5-2 12-2 15 4 2 8 1 17 3 25l1 2 4 2c-2 3 0 6-1 9l-3-1 2 3-1 7-1 21h-1c-1-9 1-19-1-29 0-11-2-22-3-32 0-3 0-7-3-8-2-3-5-2-8-2l-3-1m18 32c-1 2 0 4 1 4 2 0 1-4-1-4z"/>
    <path fill="#36590b" d="M680 548c2 0 4 1 3 3-2 1-3-1-3-3z"/>
    <path fill="#618a0e" d="M763 550l1-2c2 0 1 3-1 2z"/>
    <path fill="#5d880a" d="M1050 551c2-3 6-2 9-3 0 4-6 3-9 3z"/>
    <path fill="#325d04" d="M1086 551c-2-1-1-4 1-3l-1 3z"/>
    <path fill="#97ba5e" d="M1147 549l2-1h3l2 36c-9 0-18 2-27 1v-14l1-2 1 4c0 4-1 9 3 10 6 2 12 0 18-1 2 0 3-2 3-4l-2-15c0-4 1-9-2-13l-2-1z"/>
    <path fill="#789738" d="M676 549c2 1 3 4 5 4l11 1 3 2-13-1v2h-5c-1 1-3 4 0 6l-5 4-1-9 2 2 1-4 2 2v-9z"/>
    <path fill="#84a34a" d="M202 550h2l4 19h-3c-1-6 1-14-3-19z"/>
    <path fill="#7d8368" d="M826 550c1 1 2 1 1 3-1-1-2-1-1-3z"/>
    <path fill="#617f1e" d="M1127 554l3-5 2 4 9-2 1 1-4 4v-2h-5l1 9h3l1-3 1 2-2 9h-7l2-4-6-4-1-10 2 1z"/>
    <path fill="#99c92e" d="M1149 550c3 4 2 9 2 13l2 15c0 2-1 4-3 4-6 1-12 3-18 1-4-1-3-6-3-10 3 0 6 0 8-2l2-9 5 1c2-3-3-7-1-11l5 1 1-3z"/>
    <path fill="#598403" d="M658 551c2-1 3 2 2 3-2 1-3-2-2-3z"/>
    <path fill="#465133" d="M672 551c2 0 2 0 2 2-2 0-2 0-2-2z"/>
    <path fill="#30352e" d="M288 552c2 0 3 3 2 4-1 0-3-2-2-4z"/>
    <path fill="#75854f" d="M512 552c2-1 3 2 2 2-1 1-3-1-2-2z"/>
    <path fill="#537b0a" d="M654 552c2 0 3 3 1 3-1 0-3-2-1-3z"/>
    <path fill="#a0b67c" d="M554 553h2c1 3-3 3-2 0z"/>
    <path fill="#95c031" d="M1027 554h4c0 5 1 10 3 14l1 10 1 14h-12l4-3c-2-2-4-5-7-4l-4-4c1 2 0 5 3 5l2 1v6h-2v-4l-7-1-2-4v-13l2-1 3 2 3 2 2-2-1-2v-4l1-2-3-2c2-4 7-3 11-4l-3-2 1-2m-6 14c2 1 5 1 4-2-2-1-3 0-4 2z"/>
    <path fill="#263b01" d="M1133 554h5v6l-1 3h-3l-1-9z"/>
    <path fill="#3b3e36" d="M283 555c2 0 3 5 1 5-1-1-2-3-1-5z"/>
    <path fill="#9dcc34" d="M682 555l13 1 1 4-4-1c-2-2-5-2-8-2 4 1 8 1 10 5l-5 2c-4 0-9 2-12-1-3-2-1-5 0-6h5v-2z"/>
    <path fill="#5c634d" d="M370 556c2-1 3 3 1 4l-1-4z"/>
    <path fill="#273c04" d="M1026 556l3 2c-4 1-9 0-11 4l3 2-1 2c-2 1-5 1-7 3l-1-2-3-1v-3l4 2 4-4-2-1 4-2 7-2z"/>
    <path fill="#96a476" d="M556 558c2 0 2 0 2 2-2 0-2 0-2-2z"/>
    <path fill="#567f08" d="M255 561c0-3 2-2 4-2 1 3-2 2-4 2z"/>
    <path fill="#91be2a" d="M1059 559l6 1c2 2 0 5 0 7 2 4 1 9 0 13l8 5c-1 1-2 3-4 3l-12 1-3-3-2-9c0-5 1-10-1-15h7l-2 6 6-3c0-3-2-4-3-6z"/>
    <path fill="#9dc44d" d="M786 561l7-1 1 4 1 8 2-2v2l-1 7h-9l-2-1 8-2v-6l-3-2-4-6v-1z"/>
    <path fill="#5a5b56" d="M1040 560c2 1 1 1 0 2v-2zm-348 20v2-2z"/>
    <path fill="#375904" d="M315 565c0-2 2-3 4-3v3h-4z"/>
    <path fill="#616d41" d="M550 561l5 2-5 1v-3z"/>
    <path fill="#a5bd65" d="M694 562h2v4l-19 1v-4c3 3 8 1 12 1l5-2z"/>
    <path fill="#444842" d="M880 562c2 0 2 0 2 2-2 0-2 0-2-2z"/>
    <path fill="#414638" d="M564 563c2 0 2 0 2 2-2 0-2 0-2-2z"/>
    <path fill="#8bb72a" d="M852 573c4-3 4-10 10-10 1 4-6 5-6 10l7 5-3 6v1c2 4-3 10-7 8l-1-15h-3l1-2 4 1c0-2 1-4-2-4z"/>
    <path fill="#84a835" d="M1126 563l6 4-2 4h7c-2 2-5 2-8 2l-1-4-1 2c-2-2-1-6-1-8z"/>
    <path fill="#3c5213" d="M510 565l2-1 3 4v-3l1 1v3h-3l-1 3h-1v-2h-3l-1-3 3-2z"/>
    <path fill="#2b3d14" d="M794 564c4-1 4 5 4 8h-1v-2l-2 2-1-8z"/>
    <path fill="#263112" d="M884 564c2 0 3 2 3 4l2-3 1 11h-4v-2l-2 1-2-2c2-1 2-3 1-5 2-1 1-3 1-4z"/>
    <path fill="#a2c35b" d="M516 566l3 7c2 2 6 2 9 3l6 8-2 1h-2c-1-3-1-7-4-8h-10v-11z"/>
    <path fill="#85a835" d="M941 567h9l-2 2c2 1 4 1 6-1l1 1v5l-5-1-2 2-1 3v2l-6-4c1 2 1 5 3 6l2 2v5l-3 7h-2l-2-2a579 579 0 0 1-2-14l1 8-7-1 3-2c0-4 2-6 4-9s0-7 3-9m0 6c3-1 4-3 5-5-3-1-6 2-5 5m-1 14c1 0 3 0 4-2-1-1-2-3-3-2-2 0-1 3-1 4z"/>
    <path fill="#8ead49" d="M1013 569c2-2 5-2 7-3v4c-2 0-3 0-4 2l-3-2v-1z"/>
    <path fill="#699314" d="M1021 568c1-2 2-3 4-2 1 3-2 3-4 2z"/>
    <path fill="#7b8c51" d="M1036 566c2 1 4 2 4 4s-2 2-4 3v-7z"/>
    <path fill="#546038" d="M880 568l2-1 1 1c1 2 1 4-1 5l-1-1v-3l-1-1z"/>
    <path fill="#4d7008" d="M948 569l2-2 4 1c-2 2-4 2-6 1z"/>
    <path fill="#3f6505" d="M941 573c-1-3 2-6 5-5-1 2-2 4-5 5z"/>
    <path fill="#809653" d="M513 569h2c-1 1-1 4-3 3l1-3z"/>
    <path fill="#7b8955" d="M966 570c1-2 4-1 4 1v2l-4-3z"/>
    <path fill="#92b34f" d="M206 571l2-1c-1 8 0 16 1 25 1 6-1 14 1 20v15l-1-1v-11l-2-2v-17l-1-14v-14z"/>
    <path fill="#96be4d" d="M508 570h3v10h2l3 5-4-5c-1 4 2 8 0 11v2c-1-4-1-10-5-14l-2-3 4-1-1-5z"/>
    <path fill="#224104" d="M1016 572c1-2 2-2 4-2l1 2-2 2-3-2z"/>
    <path fill="#6d9914" d="M258 571l5 3c-2 4-5-1-5-3z"/>
    <path fill="#82994b" d="M373 574c-1-3 2-2 4-2 1 2 3 3 6 4l-1 4 3 1 3-2-2 5-1 2-2-3-1 2-4 1-3 5-2-2c-1-2 1-3 2-4l-4-6 4-2 1 6h2l-1-4c0-3-3-4-4-5z"/>
    <path fill="#899f5b" d="M464 574v-3c2 2 5 3 4 5l-3 1-1-3z"/>
    <path fill="#6a9807" d="M807 572c3-1 3 4 1 4-2-1-1-3-1-4z"/>
    <path fill="#91bc33" d="M991 574l2-2 2 2h4l1 13-8-7-8 5 1 4c-2 0-3-2-4-3l-6 3-1-5c-2 2-1 5-2 7l-2-2h-4c3-4 4-10 3-15l7 2 15-2z"/>
    <path fill="#91bf2d" d="M774 573l6 2 4 3c-2 3-3 6-2 9l3-1v5l3-2c1 2-1 4-2 6-2 2-1 5-2 7l-6-3c-1-1-2 1-3 2l-5 1-2-1c-1 3-2 5-1 7-2 1-5 2-7 1l1-3 1-2-2-2-2-2c0-4-1-9 1-13l2-1v-6c3 1 5 4 8 2s4-5 5-9m-9 16c0 1 0 3 2 3s6 0 5-3h-7z"/>
    <path fill="#4b6f0a" d="M852 573c3 0 2 2 2 4l-4-1 1-2 1-1z"/>
    <path fill="#5d7725" d="M948 575l2-2c0 2 1 3 3 4l2-3-1 6 2-1-3 4v-4l-5 1 4 3-1 2-5-1-2-2h3v-4c3 1 4-3 1-3z"/>
    <path fill="#1e3901" d="M950 573l5 1-2 3c-2-1-3-2-3-4z"/>
    <path fill="#093400" d="M173 574c1 1 1 1 0 0z"/>
    <path fill="#4d5144" d="M279 574c2 0 3 3 1 4l-1-4z"/>
    <path fill="#484d3a" d="M285 574c1-1 4 0 3 2-1 1-4 0-3-2z"/>
    <path fill="#8ea859" d="M451 574h6v5l-3-3c-2 0-4 0-3-2z"/>
    <path fill="#515b32" d="M884 575l2-1v2l-4 3-2-3 4-1z"/>
    <path fill="#8fa565" d="M460 578c-1-2 1-4 3-2 0 1-1 2-3 2z"/>
    <path fill="#4f7805" d="M660 579c0-2 2-4 4-4 0 2-2 4-4 4z"/>
    <path fill="#254104" d="M947 578l1-3c3 0 2 4-1 3z"/>
    <path fill="#85a14b" d="M1050 575l2 2 2 9 3 3 12-1c2 0 3-2 4-3h1l1 4-21 2-4-16z"/>
    <path fill="#90b830" d="M900 583c0-3-1-6 2-8 2 2 0 4-1 5l2 1 2-4c2 4 0 9 0 13-2 0-2 0-2 2l-2-1 1-3c-2 1-5 1-7 3l5 1v4l-3 3c-1-2 0-5-3-5l1 7-4 2-5 1 1-4c1-3-1-6-1-9l2-2-3-1c-1-1-1-3-3-3l-2 3 1 16h-3v-9l-5 2-3-2 5-1 4-6-3-6c3 1 7 3 10 1l3 5c2-3 4-6 4-10 3 1 6 2 7 5z"/>
    <path fill="#35520c" d="M941 576l6 4v2h-3c-2-1-2-4-3-6z"/>
    <path fill="#3a5801" d="M956 579c1-3 5-3 7-3l1 4h-6l-5 7-1 4-3-3-3-1v-3l5 1 1-2-4-3 5-1v4l3-4z"/>
    <path fill="#6a862a" d="M963 576l3 1v5l-1 4-6-2-4 5v8l-15 2-1-5 2 2h2l3-7v-2l3 1 3 3 1-4 5-7h6l-1-4z"/>
    <path fill="#081f01" d="M396 577l8 2 1 5c-5 1-8-3-9-7z"/>
    <path fill="#94b34e" d="M603 587c0-4-2-8 0-11 2 6 2 13 2 19h-4c0-2 3-5 2-8z"/>
    <path fill="#617e25" d="M891 577l2 1c0 4-2 7-4 10l-3-5 4-4 1-2z"/>
    <path fill="#2c4e04" d="M176 578c2-1 4 2 3 3-2 1-4-1-3-3z"/>
    <path fill="#638323" d="M784 578h1l2 1-1 2-1 5-3 1c-1-3 0-6 2-9z"/>
    <path fill="#82ac23" d="M815 583l7-5-3 5 5-1-1 5c-2 4-1 10-5 13l-1 1-4 4h-3l-2-6 4-3c2 1 4 2 6 1l-3-4v-10z"/>
    <path fill="#9ebf53" d="M345 579c4 1 9 3 13 0l2 3-2 4-6-3-7-4z"/>
    <path fill="#8ca561" d="M434 579l1 3c-1 2 0 4 1 5l-2 1h-1c0-3-1-6 1-9z"/>
    <path fill="#a1c159" d="M488 581l7-2c0 4-4 6-7 6v-4z"/>
    <path fill="#656959" d="M929 579c3 0 3 5 0 5v-5z"/>
    <path fill="#96c52e" d="M498 585l9-6c4 4 4 10 5 14v16c-1 5 2 10 1 15l-13 4h-1c-3 0-7 0-9-2l-2-10c1-5-1-9-1-14 1-5-1-11 2-16l9-1m-6 6v5c4 1 4-6 0-5m5 7c1 3 4 5 6 7 1-3-1-5-3-7h-3z"/>
    <path fill="#2c3e03" d="M674 584c0-2-1-5 2-4v2l1 2 2-3v1c-1 3 3 3 2 0 1 1 3 1 3 3l-1 2-5 2-4-4-2 2h-3l4-6 1 3z"/>
    <path fill="#81a633" d="M803 582l3-2 2 8-3 5h-1v-4l3-1v-3l-4 2v-5z"/>
    <path fill="#6d8f21" d="M984 585l8-5 8 7v4c-2-3-8-5-10-1l-4-1v6l-6 1-3-4c-2-1-4 0-6 1l1-2c1-2 0-5 2-7l1 5 6-3c1 1 2 3 4 3l-1-4z"/>
    <path fill="#3a5a09" d="M250 581c2 0 3 4 1 4-1 0-2-2-1-4z"/>
    <path fill="#305601" d="M409 581c3 0 3 5 0 5v-5z"/>
    <path fill="#5c6c3d" d="M451 584c-1-3 5-5 4-1l-4 1z"/>
    <path fill="#6c9022" d="M860 585l5-4 1 3c-4 3-7 10-6 15l3 1-1 2c-2 0-3-2-3-3h-3l-3-4v-2c4 2 9-4 7-8z"/>
    <path fill="#223d06" d="M436 587c-1-1-2-3-1-5l4 3-3 2z"/>
    <path fill="#9acb2e" d="M439 585l3-3 3 2c1 2 2 2 4 2l1 5 2 1 2-5 1-1h3l1 5v21l-3 13c-1 3-4 5-6 6-6 3-12 3-18 4l-1-20-2 1v-2c3-1 5-2 5-5l-2 1 2-3v-19a514 514 0 0 1 5-3z"/>
    <path fill="#87a34d" d="M457 583h2l1 2h3c-1 1-3 1-2 3v27c-1 4-2 8-5 10l3-13v-21l-1-5h-3l2-3z"/>
    <path fill="#2f4602" d="M534 584c3-2 6-2 9-2-3 2-7 2-9 5l3 4 4 1-1 1c-3 0-7 0-10-2-1-3 1-4 3-5l-1-1 2-1z"/>
    <path fill="#577e04" d="M591 587c1-2 0-5 3-5 1 0 4 1 3 3l-6 2z"/>
    <path fill="#9bad72" d="M679 582h2c1 3-3 3-2 0z"/>
    <path fill="#7fb017" d="M219 589c0-3 4-5 7-6 0 3-4 5-7 6z"/>
    <path fill="#727d5c" d="M333 583c3 0-1 3 0 0z"/>
    <path fill="#345804" d="M352 583l6 3v1c-2 1-4-1-6-2v-2z"/>
    <path fill="#98a289" d="M629 584v-1 1z"/>
    <path fill="#537314" d="M940 587c0-1-1-4 1-4 1-1 2 1 3 2-1 2-3 2-4 2z"/>
    <path fill="#5d8020" d="M445 584l9 3-2 5-2-1-1-5c-2 0-3 0-4-2z"/>
    <path fill="#687845" d="M630 586l2-2 1 3h-3v-1z"/>
    <path fill="#8aac3d" d="M826 585l3-1c2 4 2 9 1 14l2-2 2 10c-9 0-18 2-27 1l-1-9 2 1 2 6h3l4-4c1 1 3 3 4 0l2 2 3 1v-8l2-6-2-5z"/>
    <path fill="#93c031" d="M866 584c3 3 4 7 4 11l1 9-7-1c1-2 4-4 4-7-3-1-4 2-5 4l-3-1c-1-5 2-12 6-15z"/>
    <path fill="#536f18" d="M955 589l4-5 6 2 1 4c0 3 1 6-1 7l-5-4-2 1 1 3h-4v-8z"/>
    <path fill="#6a8526" d="M1011 584l2 4 7 1v4h-8c-2-3-1-6-1-9z"/>
    <path fill="#7ba324" d="M1021 585c3-1 5 2 7 4l-4 3h4l-6 1v-6l-2-1 1-1z"/>
    <path fill="#84857d" d="M1217 584c3 0-1 3 0 0z"/>
    <path fill="#7da720" d="M347 585h5c2 1 4 3 6 2l2 2c1 1 4 0 4 3l-5 2-1-3-3 2c-3-1-4-5-8-6v-2z"/>
    <path fill="#5f8a0b" d="M360 585c2-1 3 2 2 3-1 0-3-2-2-3z"/>
    <path fill="#8db72b" d="M672 587l2-2 4 4 5-2-1 8h3l-4 1v-4h-2c-3 0-5 4-5 7l1 18c-3 0-7 1-10-1l-7-4-3 2h-1l-1-2c3-1 5-2 6-5l1-7-3 2c-2-2-4-3-4-5 0-3 3-4 5-6l2 2c4-1 9 2 13 0l-1-6z"/>
    <path fill="#6d784f" d="M683 587a506 506 0 0 1 1 1l-1-1z"/>
    <path fill="#6a9212" d="M826 585l2 5-2 6v8l-3-1c2-6 1-13 3-18z"/>
    <path fill="#a6ba79" d="M1184 585c2-1 3 4 1 4-2-1-1-3-1-4z"/>
    <path fill="#325900" d="M1189 585c3 1-1 3 0 0z"/>
    <path fill="#869165" d="M636 587h3v1l-3-1z"/>
    <path fill="#99b952" d="M648 586c2 8 0 18 2 27l1 3 3-2h1v4h-6l-1-13-1-14 1-5z"/>
    <path fill="#828675" d="M1213 586c1 0 2 2 1 3-1 0-2-2-1-3z"/>
    <path fill="#3d4a1e" d="M283 591c-1-3 2-5 5-3l-1 1-1 5-1-2-2-1z"/>
    <path fill="#5a7529" d="M342 588l4-1v4l-5-1v6l-4 2c-3-1 1-4 3-4l1-5 1-1z"/>
    <path fill="#44571b" d="M626 591l4-4h6l3 1-3 3-5 2h3c0 2-1 2-2 3 0-1-3-1-2 1h2l-1 1h-4v-1l2-1v-3l-4 1h-1l2 5h-3c0-3-2-7 1-9l2 1m2-1c0 2 0 2 2 2 0-2 0-2-2-2z"/>
    <path fill="#5a7515" d="M298 589h7c-2 0-5-1-6 2-2 1 0 3 0 5l6-4-1 3c2 0 8 0 5 3-3 2-8 0-11 2v-6l-1 4-3 1-2-1-1-2h3l1-1-3-4 1-2 3 2 2-2z"/>
    <path fill="#757d62" d="M384 588c3 0-1 3 0 0z"/>
    <path fill="#6b970e" d="M410 588c2 2 5 7 2 10l-3-9 1-1z"/>
    <path fill="#233703" d="M433 588h1v12l-1 2-1-1-4-7-1 1v-1l-1-1v-3h5c-1 2 0 3 1 3 1-1 2-1 1-3v-2z"/>
    <path fill="#585f4c" d="M882 588c3 0-2 3 0 0z"/>
    <path fill="#2c4903" d="M895 591c2-2 5-2 7-3l-1 3-1 1-5-1z"/>
    <path fill="#223502" d="M990 590c2-4 8-2 10 1v2l-7-2-1 4h-6v-6l4 1z"/>
    <path fill="#2f3f0e" d="M276 589l3 1c0 3-3 4-2 7l-1-8z"/>
    <path fill="#789832" d="M286 594l1-5 5 2 3 4-1 1h-3l1 2c-1 1-3 2-5 1l-2-4 1-1z"/>
    <path fill="#8a9f5c" d="M690 593c-4 1-2-6 1-4l-1 4z"/>
    <path fill="#547b07" d="M765 589h7c1 3-3 3-5 3s-2-2-2-3z"/>
    <path fill="#34421e" d="M1173 593c-1-2 2-3 4-4v4h-4z"/>
    <path fill="#9dcd33" d="M1177 589h2l-1 4 9-3 2 3c-3 0-1 3-1 5s-3 2-4 2c-3 1-5 3-7 6h-8l-11 1-1 3-6 1c-2 2-4 2-6 2-4 2-9 2-14 2l-5-1-2-1c-2 3-7 2-9 5-2 2-6 0-6-3 0-2-3-5-1-7s8 0 6 3l2-1v-4l4-4-3-3c11-1 21-1 31-3l1 2c7-4 17-1 24-5h4v-4m-58 21c0 2 0 2 2 2 0-2 0-2-2-2z"/>
    <path fill="#96a087" d="M1181 589c1 1 1 1 0 0z"/>
    <path fill="#2e5004" d="M1189 589c2-1 3 2 2 3-2 1-3-2-2-3z"/>
    <path fill="#8ca15e" d="M431 590h2c1 2 0 2-1 3-1 0-2-1-1-3z"/>
    <path fill="#9cb16f" d="M628 590c2 0 2 0 2 2-2 0-2 0-2-2z"/>
    <path fill="#3c6500" d="M903 592c0-2 0-2 2-2 0 2-1 2-2 2z"/>
    <path fill="#506028" d="M368 595l1-5 3 1c0 2 1 3 3 4l1-3 4 3c-3 2-7 4-11 3l3-2-1-1h-3z"/>
    <path fill="#7e8e5a" d="M382 591l5 3 3-2-2 4-5-1c-1-1-3-3-1-4z"/>
    <path fill="#193800" d="M492 591c4-1 4 6 0 5v-5z"/>
    <path fill="#4c5e23" d="M512 591l3 1c-1 1-2 2-1 4 2 0 2-3 2-4l2-1-1 2 4 4c-2-1-3 3-1 3l-1 1-2-6-4 3-1-2v-5z"/>
    <path fill="#788d44" d="M993 591l7 2c-2 2-5 2-8 2l1-4z"/>
    <path fill="#8aa057" d="M515 592h1c0 1 0 4-2 4-1-2 0-3 1-4z"/>
    <path fill="#93bd30" d="M679 592h2v4l4-1 1-1c7 2 15 0 22 0 2 6 1 13 2 20l-14 1-1-3c-3-2-6-2-9 0l-3-3-3 3c-1-3 1-8-3-10l-1-3c3-1 2-4 3-7m10 7l-4 4 6 2 1-5-3-1z"/>
    <path fill="#8daa4c" d="M971 593c2-1 4-2 6-1l3 4h-9v-3z"/>
    <path fill="#7d8969" d="M426 593l1 1h-2l1-1z"/>
    <path fill="#3d4133" d="M610 593c2 0 2 0 2 2-2 0-2 0-2-2z"/>
    <path fill="#829b44" d="M958 594l2-1 5 4h-6l-1-3z"/>
    <path fill="#739c16" d="M533 594l3 2c1 2-1 3-2 3l-1-5z"/>
    <path fill="#535350" d="M565 594c3-1 0 3 0 0z"/>
    <path fill="#92bc2d" d="M624 594h1l2 3v1h4v11l-1 8c-5 2-11 2-16 1l-1-7-1 2c-2-2 0-5-1-8l3-1c3 0 6-1 6-5h6l-2-5z"/>
    <path fill="#638913" d="M894 594c3 0 2 3 3 5v1l-2 1-1-7z"/>
    <path fill="#889566" d="M1194 598c0-2 2-3 3-4 1 1 3 1 3 3l-6 1z"/>
    <path fill="#a2bc61" d="M1206 594c2-1 3 0 5 1v7l-5 2c3-3 0-7 0-10z"/>
    <path fill="#a2c15e" d="M325 603v-9l2 16v8l5 4 1 6 1 14c-8 0-16 0-23-3-6-3-9-10-10-17l1 1c1 3 2 7 5 10 6 7 15 8 24 7v-15c0-3-4-5-5-8l-1-14z"/>
    <path fill="#98bb45" d="M530 595c2 3 2 7 2 10-2 0-3 2-1 4l-2 4-3-2-3-2c-1 5 2 10 0 15v3h-3l-1-4v-15c3 0 8 0 10-4 2-3 1-6 1-9z"/>
    <path fill="#93a369" d="M630 597c-1-2 2-2 2-1v1h-2z"/>
    <path fill="#5a7323" d="M870 595l3 2 5-2v4l-1-2-4 2-1 3 6-2v4h-7l-1-9z"/>
    <path fill="#213307" d="M337 598l4-2v7l1 8c-2 2-4 5-8 5l-1-7-2 1-2-1 1-5c2 1 3 2 4 1l3-3 3-3c-1-1-2 1-3 1v-2m-2 7c-1 1 0 4 2 3 1-1 0-4-2-3m2 5c-1 1 1 3 2 3 1-1-1-3-2-3z"/>
    <path fill="#648e10" d="M347 606l17-10a1261 1261 0 0 1-2 3c-2 2-3 4-6 4-5 1-8 4-11 7 0-1 0-4 2-4z"/>
    <path fill="#8aad48" d="M512 609v-13l1 2v11c1 6 2 12 1 18v1h-14l13-4c1-5-2-10-1-15z"/>
    <path fill="#4f5b4a" d="M560 596c2 0 2 0 2 2-2 0-2 0-2-2z"/>
    <path fill="#414736" d="M569 596c2 0 2 0 2 2-2 0-2 0-2-2z"/>
    <path fill="#97c332" d="M579 596l25 1v1l-1 3 3 3v1h-4l4 1v3l-3 4-1 2 1 4c-3 3-7 1-11 1 1-2 4-4 4-6-2-1-3 1-4 3l-3-2-1-1-2-6-3 4-3 1v-3l-9 5c0-2-2-4-1-6v-3l8-3 1-2v-2h3c-1-1-3-1-3-3m4 3l6 3 12 3c-2-2-5-2-8-3s-6-3-10-3z"/>
    <path fill="#3a5a01" d="M863 600c1-2 2-5 5-4 0 3-3 5-4 7h-2v-1l1-2z"/>
    <path fill="#899665" d="M520 600c-2 0-1-4 1-3 1 1 0 2-1 3z"/>
    <path fill="#8f9b76" d="M573 597c2 0 2 0 2 2-2 0-2 0-2-2z"/>
    <path fill="#1c2f03" d="M873 599l4-2 1 2v1l-6 2 1-3z"/>
    <path fill="#788d50" d="M337 600c1 0 2-2 3-1l-3 3v-2z"/>
    <path fill="#628c10" d="M497 598h3c2 2 4 4 3 7-2-2-5-4-6-7z"/>
    <path fill="#3a4811" d="M604 598l7 2c-1 3 3 2 2 0v-2l3 2-2 4-3 1-1-1c0-2-1-2-2-2l1 3v1l-3-2-3-3 1-3z"/>
    <path fill="#575e4a" d="M635 598c2 0 2 0 2 2-2 1-2 0-2-2z"/>
    <path fill="#9dcd31" d="M169 600l18-1c2 5 1 10 2 16l1 17c1 3-3 4-3 7l4 3c1 3-1 7-2 10 2 3 4 6 2 9l8 2 26-2 3-3v3c3 0 5-1 7-3l1 3 2-4 2 3 2-1-3-4c3 0 5 3 7 5l3-2-3-2 4 1c2 2 4 2 7 2l2-5v5c3-1 1-6 4-6v4c3 0 2-3 2-5 3 1 4 4 7 3 2-1 1-4 3-4l9 2-1 4 9-1c0-2 0-3 2-4l1 4h5l1 1 3-2h5l-2-4c3 0 5 1 6 4l4-1-4-5c3 0 5 2 6 5h13l1 3h2l-1-4 20-1c6-1 12 0 17-2l3 1 1-3 3 2 7-1 1-2 3 2 3-3v3l15-1-3-4c3-1 5 2 7 4l3-2 1 3c3-2 6-2 10-2l1-2c0 2 0 4 2 5l6 3v5l2 1 1-7c1-3 4-3 6-3h1l8 6c0-2 0-3 2-3l-2-2v-2h12c10-4 21-4 31-4l4-1 2-1 9-1c0-1 0-3 2-3 0 2 0 3 2 3v-4c2 0 2 2 2 3 3 1 2-3 2-4 2 0 1 2 1 4l9-1 2-4 4 4c1-1 2-2 4-1l8 1c0-3-3-4-4-6l7 2-1 3v1l13 1 1 6c-1 2-4 0-5 2l-2-2-1 4c-3 0-3-2-4-4-3 1-5 3-8 3-5 0-8 4-12 5 2-2 3-5 3-8-1 2-3 5-6 6v4h-3l1-4-6 4 3 3-10 2-3 4-3-2-3 2-5-1c-4 1-8-2-12-1l-5-1-53 4c-5 3-11 1-16 1l1 3c-3-1-3-4-2-6-3 1-2 4-2 7l-8-2v3l-4-1v-3l-9 3c-5-1-10 2-15-1l-6-2a269 269 0 0 1-3-7l-8 4-3-4c-2 2-3 4-6 4l-1 2h-3l-1 2-5-1c-2-1-3 1-3 2-4 3-8 1-12 2h-6l-2-5-3-5c-3 0-5 3-8 3v-5l-4 1c-2 1-2 3-3 5l-2-2-4 8c-1 3-4 3-6 3h-11l-2 3-3-1c-3 0-6-2-8 0l1-8c-4-1-7 6-12 2l3-4c-4 2-8 5-13 6v2h-4l-1 2c-5 3-11 0-16 3h6-24c-4 1-7-3-10-6l-3-2-1 2-3 3-1-3v-1c-3 0-5 4-8 3 0-3 4-3 4-5h-3l2-3-2-3c2-1 4-1 5-3h-5c-3-1-3-4-3-7l-4-1h3v-19c0-2 2-2 3-4l-3-1 1-2-2-3c1 0 3 0 3-2h-3v-7c0-5-2-11-1-16m10 0c1 1 1 1 0 0m2 1c-1 0-3 2-1 3s3-2 1-3m5 20c-2 1-1 3 1 3s1-3-1-3m-4 4c0 2 0 2 2 2 0-2 0-2-2-2m341 23c1 1 1 1 0 0m-199 7c0 2 0 2 2 2 0-2 0-2-2-2m20 0c-1 1 1 4 2 3s0-4-2-3m-166 2v3l4-1c1-3-2-3-4-2m102-1c0 3 3-1 0 0m-98 4c0 1 0 2 2 2 0-2 0-2-2-2m217 5c-1 1-1 4 1 3 2 0 1-4-1-3m-216 1c-1 1 0 4 2 3 1-1 0-4-2-3m56 1c0 2 0 2 2 2 0-2 0-2-2-2m42 2c0 2 0 2 2 2 0-2 0-2-2-2m44 0c1 1 1 1 0 0m-104 4l4 2c1-2 1-5-1-5-1 0-3 1-3 3m49 0c0 3 3-2 0 0m-53 1c0 2 0 2 2 2 0-2 0-2-2-2m-22 2c0 3 3-1 0 0m11 0z"/>
    <path fill="#314312" d="M207 599v9h-3l3-9z"/>
    <path fill="#779731" d="M573 603c0-3 2-4 4-4l2 2-1 2-8 3-1-2 2-1h2z"/>
    <path fill="#3f6606" d="M583 599c4 0 7 2 10 3s6 1 8 3l-12-3-6-3z"/>
    <path fill="#4a6d01" d="M689 599l3 1-1 5-6-2 4-4z"/>
    <path fill="#7aa02d" d="M775 601c1-1 2-3 3-2l6 3-3 5-3-2-8-3 5-1z"/>
    <path fill="#82857b" d="M1106 599c1 0 4-1 4 1-1 1-4 1-4-1z"/>
    <path fill="#072300" d="M179 600c1 1 1 1 0 0z"/>
    <path fill="#6b7954" d="M611 600h2c1 2-3 3-2 0z"/>
    <path fill="#99ad5f" d="M757 611l1-11 2 2c-2 1-2 3-2 4h3l-1 3c2 1 5 0 7-1h1c1-1 1-2 3-2l2 3 1-3 3 4-20 1z"/>
    <path fill="#4e7103" d="M817 601l1-1 3 1c-1 3-3 1-4 0z"/>
    <path fill="#143800" d="M181 601c2 1 1 4-1 3s0-3 1-3z"/>
    <path fill="#a1b089" d="M568 601l1 1-1-1z"/>
    <path fill="#9ecb37" d="M1071 602l15-1 1 4-1 2 3-1-1 6h-4c2 2 5 3 5 7h3l-4 2-2-5-4 4c-1 1-2 3-4 3 0-3 3-5 3-8l-4 2-1-4-4-2-1 3 4 1-2 4c-2-2-4-3-6-2l-1-9c0 6-5 11-11 9l4 4-5 2-2-1-2 3-7-1 1-4-2-1a1259 1259 0 0 0-2 0l-2 1c-5-2-10 1-13 4-1-1-3-3-5-3l2 3-31 3c-2 0-5 1-5-2-3 3-6 2-9 2v-6h-4c0-2 1-2 2-3l4 1 4-6 2-5 5 3 2-3h-2l5-1 18-1 1 4 3-4 3 2c1-3 4-2 6-3 9-1 18-1 26-3h19m-37 3c-3 1-2 4 1 5 3 0 3-6-1-5m36 0c-1 0-2 3 0 3s2-4 0-3m9 6h3l1-4c-1 1-4 2-4 4m-79 2c0 2 3 1 4 2 1-2 0-4-1-5-2-1-3 1-3 3m29-2c-1 2 7 3 4 0h-4m-12 0c0 2 2 3 3 4 2-1-1-4-3-4m-26 3v3l-3 2 2 1 2-6h-1m5 0c-1 1 0 3 2 3l-2-3m41 1c-1 2 1 3 3 3v-3h-3m-53 1c-1 1-1 3 1 3 2-1 1-3-1-3m18 2l-1 1c1 3 5-2 1-1m-6 4l2 3 1-4-3 1z"/>
    <path fill="#818e5f" d="M1096 601c2 0 4 0 5 2l-5 1v-3z"/>
    <path fill="#82915d" d="M384 604l2-2v2c-1 4-6 2-8 1v-2l6 1z"/>
    <path fill="#95a968" d="M608 602c1 0 2 0 2 2l-1 1-1-3z"/>
    <path fill="#89996a" d="M1103 605c2 0 5-1 7-3l2 3-6 2c-1 1-4 0-3-2z"/>
    <path fill="#474d41" d="M475 603l3 2c-1 2-4 0-3-2z"/>
    <path fill="#5a6b2e" d="M513 604l4-1-2 5-2 1v-5z"/>
    <path fill="#183002" d="M758 606c0-1 0-3 2-4l2 2-1 2h-3z"/>
    <path fill="#3b462c" d="M288 606c1-1 2-3 4-2l1 3c-2 1-3 0-5-1z"/>
    <path fill="#a6bf63" d="M1207 606l4-2c1 3-3 5-5 7l-11 1 12-6z"/>
    <path fill="#899a65" d="M335 605c2-1 3 2 2 3-2 1-3-2-2-3z"/>
    <path fill="#102703" d="M1034 605c4-1 4 5 1 5-3-1-4-4-1-5z"/>
    <path fill="#4e7909" d="M1070 605c2-1 2 3 0 3s-1-3 0-3z"/>
    <path fill="#96a768" d="M1093 606c1-3 6 0 4 3-2 1-5 0-4-3z"/>
    <path fill="#92a468" d="M481 606c2 1 1 5-1 5-1-2 0-4 1-5z"/>
    <path fill="#4e7607" d="M531 609c-2-2-1-4 1-4 2 2 0 4-1 4z"/>
    <path fill="#6b9807" d="M213 607c1-1 4 0 3 2-1 1-4 0-3-2z"/>
    <path fill="#516825" d="M556 613l3-6 2 3-1 4-4-1z"/>
    <path fill="#6d7858" d="M565 608l1-1c2 2-2 4-1 1z"/>
    <path fill="#1e4700" d="M1079 611c0-2 3-3 4-4l-1 4h-3z"/>
    <path fill="#3c402f" d="M473 608c2-1 3 2 2 3-2 1-3-2-2-3z"/>
    <path fill="#7b9d33" d="M586 608l2 6-4 1c0 3 2 4 5 3v-3l3 2c1-2 2-4 4-3 0 2-3 4-4 6l-1 2-11 1v-10l3-1 3-4z"/>
    <path fill="#445322" d="M979 608h6l-2 5-3-1-1-4z"/>
    <path fill="#334414" d="M207 616c-2-2-3-6 0-7v7z"/>
    <path fill="#84965d" d="M331 610l2-1 1 7c-1 0-3 0-3-2h2l-2-3v-1z"/>
    <path fill="#74835e" d="M425 609c1 1 2 1 1 3-2-1-2-1-1-3z"/>
    <path fill="#6a745c" d="M428 609c2 0 2 0 2 2-1 0-2 0-2-2z"/>
    <path fill="#81a72a" d="M523 609l3 2c-2 0-4 2-2 4 2 0 6 1 5-2l8 9c2-2 4-5 7-3l7 1c-4 4-10 5-15 6-2 0-4-2-5-3h-2l-6 1c2-5-1-10 0-15z"/>
    <path fill="#8ca755" d="M603 613l3-4 1 12-16 1 1-2c4 0 8 2 11-1l2-3-2-3z"/>
    <path fill="#8daa51" d="M630 617l1-8 1 11-20 1v-8l1-2 1 7c5 1 11 1 16-1z"/>
    <path fill="#5a7918" d="M680 612l3-3 3 3c3-2 6-2 9 0l1 3-9 1 1-2-7-1v3c-2-1-1-2-1-4z"/>
    <path fill="#8d9e65" d="M337 610c1 0 3 2 2 3-1 0-3-2-2-3z"/>
    <path fill="#717169" d="M465 610c3 0-1 3 0 0z"/>
    <path fill="#0b2500" d="M1000 613c0-2 1-4 3-3 1 1 2 3 1 5-1-1-4 0-4-2z"/>
    <path fill="#3a6203" d="M1029 611h4c3 3-5 2-4 0z"/>
    <path fill="#2a5500" d="M1119 610c2 0 2 0 2 2-2 0-2 0-2-2z"/>
    <path fill="#6e7d50" d="M483 611c2 1 0 4-2 3l2-3z"/>
    <path fill="#3c5d04" d="M524 615c-2-2 0-4 2-4l3 2c1 3-3 2-5 2z"/>
    <path fill="#20470b" d="M1017 611c2 0 5 3 3 4-1-1-3-2-3-4z"/>
    <path fill="#204204" d="M214 616c-1-3 3-4 5-4 1 3-3 4-5 4z"/>
    <path fill="#4f5645" d="M567 612c3 0-1 3 0 0z"/>
    <path fill="#9ec93f" d="M927 612l6 2-1 2 6-1 1 5 3-3c2 0 4 2 6 4l3-1v4h-6c0-2 0-4-2-4l-3 3-3-2-2 5c3 2 6-2 9-3 1 2 3 2 5 3l6 1c-2 2-5 2-7 2l-2-2c-3 1-6 2-9 1l1 2c-2 0-3-2-4-3h-3l2-3v-5c-4-1-9-3-12 2l4 2-2 1-5-6-10 11-3-1-4 3-9 3c-2-3-3-7-6-9l-3-4 2-1v-5l6 1c1-3 5-2 8-2 5 0 11-3 15 1l2-1 2 2 3 1-1-3 7-2m-31 4c1 1 1 1 0 0m9 0c0 2 0 2 2 2 0-2 0-2-2-2m-15 6h3l-4-5c-2 2 0 4 1 5m21-4c0 1 1 2 2 1l-2-1m-9 1c0 2 0 2 2 2 0-2 0-2-2-2m5 0c-1 3 3 0 0 0m1 5c0 1 0 2 2 2 0-2 0-2-2-2m-7 1c0 2 0 2 2 2 0-2 0-2-2-2z"/>
    <path fill="#929c7b" d="M1098 612c1-1 4 0 3 2-2 2-5 0-3-2z"/>
    <path fill="#959d86" d="M1168 612c2 0 2 0 2 2-2 0-2 0-2-2z"/>
    <path fill="#3c5f0d" d="M602 615l1-2 2 3-2 3-1-4z"/>
    <path fill="#89a152" d="M681 613l7 1-1 2h-6v-3z"/>
    <path fill="#8b9787" d="M977 613c3-1 1 3 0 0z"/>
    <path fill="#95a676" d="M1089 613c1-1 4 0 3 2-1 1-4 0-3-2z"/>
    <path fill="#9fc74b" d="M1131 615c5 0 10 0 14-2l1 3-24 1 3 3-3 6-3-2c-3 2-5 0-8 0 1-3 3-4 5-6l10-4 5 1z"/>
    <path fill="#254005" d="M584 615l4-1 1 1v3c-3 1-5 0-5-3z"/>
    <path fill="#60675c" d="M945 614c1 0 3 2 2 3-2 1-3-2-2-3z"/>
    <path fill="#5c880b" d="M996 614l2 3c-2 0-3-2-2-3z"/>
    <path fill="#777d6d" d="M874 615c1 0 4 0 2 1-1 2-5 1-2-1z"/>
    <path fill="#7a7d75" d="M878 615c3-1 0 4 0 0z"/>
    <path fill="#416b04" d="M1031 615v2-2z"/>
    <path fill="#0e2e03" d="M1037 615h3v3c-2 0-4-1-3-3z"/>
    <path fill="#829366" d="M656 616c2 0 2 0 2 2-2 0-2 0-2-2z"/>
    <path fill="#173e00" d="M896 616c1 1 1 1 0 0z"/>
    <path fill="#3c6601" d="M905 616c2 0 2 0 2 2-2 0-2 0-2-2z"/>
    <path fill="#406808" d="M984 616c2 0 3 2 1 3-2 0-2-2-1-3z"/>
    <path fill="#a2ba6f" d="M1063 616c2 0 2 1 3 2l3 3-7 2-2-3 3-1v-3z"/>
    <path fill="#414340" d="M1171 616c2 0 2 0 2 2-2 0-2-1-2-2z"/>
    <path fill="#9dca3b" d="M855 619l4-2 4 6-2-5h8c2 1 3 4 4 6v1c-2 0-3 3-1 3l-1 3h-3l-2 1c-3 0-5-2-6-4l-3 1c-2 2-5 1-8 0-2 1-5 2-7 1l1-2h3l-1-4 2 2 2-3 6 1c2-1 0-3 0-5m7 8c-1 3 4 2 3 0h-3z"/>
    <path fill="#a2c25b" d="M881 617l4 3-2 1c-3 1-6 2-7 5-2 1 0 3 0 5h-5l1-3 1-3v-1l2-4h7l-1-3z"/>
    <path fill="#406309" d="M890 622c-1-1-3-3-1-5l4 5h-3z"/>
    <path fill="#154000" d="M911 618l2 1c-1 1-2 0-2-1z"/>
    <path fill="#315904" d="M1002 618c4-1 0 4-1 1l1-1z"/>
    <path fill="#aaaea0" d="M845 619c1 1 1 1 0 0z"/>
    <path fill="#4f7d00" d="M902 619c2 0 2 0 2 2-2 0-2 0-2-2z"/>
    <path fill="#8ba362" d="M930 619c1 0 3 2 1 3-1 0-2-2-1-3z"/>
    <path fill="#818c70" d="M1109 619c2 0 2 3 0 3v-3z"/>
    <path fill="#80857f" d="M1132 619c1 1 1 1 0 0z"/>
    <path fill="#464945" d="M1071 620c2 0 2 0 2 2-2 0-2 0-2-2z"/>
    <path fill="#8d9980" d="M1084 620c2 0 2 0 2 2-2 0-2 0-2-2z"/>
    <path fill="#224109" d="M186 621c2 0 3 3 1 3s-3-2-1-3z"/>
    <path fill="#a3ad96" d="M851 621c3-1 0 4 0 0z"/>
    <path fill="#91a179" d="M926 621c3-1 0 3 0 0z"/>
    <path fill="#727e6a" d="M1033 621c1 1 1 1 0 0z"/>
    <path fill="#939788" d="M1074 621c4 1-1 3 0 0z"/>
    <path fill="#9ec25c" d="M777 623c0-2 3-1 4-1h11l-3 2c-4 1-8 0-12-1z"/>
    <path fill="#97b752" d="M241 626c4 0 6-3 9-3-1 2-3 3-6 4l-1 13h-1l-1-14z"/>
    <path fill="#809f43" d="M423 633l3-10 1 12h-9l5-2z"/>
    <path fill="#68802f" d="M523 624l6-1 1 4h-7v-3z"/>
    <path fill="#88a540" d="M755 624l13-1c2 2 2 5 2 8-2-2-3-4-6-5l-2 3c-2 2-7 3-6 6l6-1v2l-4 3v4h-2l-4-12v-1h5l3-3-1-2h-3l-1-1z"/>
    <path fill="#a0c355" d="M916 623l5 2-1 7h-10c2-2 6-3 9-2 0-3-4-2-5-3s1-3 2-4z"/>
    <path fill="#717f64" d="M929 623h1v2l-1-1v-1z"/>
    <path fill="#515251" d="M1069 623c3 0-1 3 0 0z"/>
    <path fill="#749d1b" d="M251 628l4-4c2 2 1 5-2 7l-2-3z"/>
    <path fill="#839c4d" d="M748 624h7l-1 4-6-2v-2z"/>
    <path fill="#698b29" d="M755 624l1 1h3l1 2-3 3h-5v1h-3l-3-5h2l6 2 1-4z"/>
    <path fill="#9ec545" d="M834 624h7v4l-3 2c-1 2-3 2-5 2l1 4h-2l-2-10 1-1 3 2v-3z"/>
    <path fill="#294e00" d="M908 624c2 0 2 0 2 2-2 0-2-1-2-2z"/>
    <path fill="#639307" d="M182 625c2 0 2 0 2 2-2 0-2 0-2-2z"/>
    <path fill="#87976f" d="M728 626h9c3-1 7-2 10 0h-1l-4 2c-3-3-7 0-10-1 0 2 2 2 3 2l-1 2-3 1c0-2-2-3-3-5v-1z"/>
    <path fill="#4f760b" d="M872 628c-2 0-1-3 1-3l-1 3z"/>
    <path fill="#a4bf64" d="M879 626c2-1 4-2 5 0l3 2-2 2-6-1v-3z"/>
    <path fill="#2a3f0f" d="M886 625c3 2 4 6 6 9-2-1-6-1-7-4l2-2-3-2 2-1z"/>
    <path fill="#3c6b01" d="M901 625c2 0 2 0 2 2-2 0-2 0-2-2z"/>
    <path fill="#527d03" d="M801 626c1 0 3 2 2 3-1 0-3-2-2-3z"/>
    <path fill="#395314" d="M828 626h2l2 10h-3c0-3 1-7-1-10z"/>
    <path fill="#9da886" d="M929 628c-2 3-3-3 0-1v1z"/>
    <path fill="#526826" d="M203 627h6v2c-3 1-2 3-2 5 0-1-2-3-2-1-1 2 1 3 3 3h2v4c-4 0 0 5-1 7-3 0-2-4-3-6-4 0-3-6-2-10l-2 1 1-5z"/>
    <path fill="#608a07" d="M862 627h3c1 2-4 3-3 0z"/>
    <path fill="#abaf9d" d="M968 627c3-2 0 3 0 0z"/>
    <path fill="#2c4e00" d="M248 629l3-1 2 3-5 1v-3z"/>
    <path fill="#8f9389" d="M704 628c3 0-1 3 0 0z"/>
    <path fill="#21310c" d="M838 630l3-2h2l-1 2c2 1 5 0 7-1l2 5-3 1c0-2-3-3-3 0h-1v-1c0-3-4-3-6-4z"/>
    <path fill="#94a07a" d="M923 628c2 0 2 4 0 3v-3z"/>
    <path fill="#9dbb5d" d="M676 630l10-1 1 10-4 5h-4l3-3-3-3 4-1c-1-2 0-4 1-6-2 2-5 3-7 3l2-3-2-1h-1z"/>
    <path fill="#5b800e" d="M762 629h2l-2 5-6 1c-1-3 4-4 6-6z"/>
    <path fill="#497300" d="M790 629c1 0 3 2 2 3-1 0-3-2-2-3z"/>
    <path fill="#617e22" d="M817 629c3 1 2 4 3 6 3 0 5-2 6-4v6c-2 3-6 1-9 1v-9z"/>
    <path fill="#5e7926" d="M849 629c3 1 6 2 8 0l1 1-4 2 1 2c1-1 3-2 4 0h-8l-2-5z"/>
    <path fill="#99a291" d="M932 629c1 1 1 1 0 0z"/>
    <path fill="#9dcb36" d="M641 632l26-2h10l-2 9h-3l-4-4 1 6v2l-7-1c0 1 0 2-2 2l-2-5-3 4-3-2-3 2-2-3-4 5-4-1 3 7h-9c-1-2 3-1 4-2h-4c-1 1-1 3-3 3h-21l-4 2-1-3-6 1v-2c3-1 7-1 8-5h-2v-2l-3 1 1 4c-3 1-1-3-2-5h-4c0 1 1 3-1 4l-1-4 2-3h-4a53 53 0 0 0-2 3l-2-1-1 2-2-3-8 1c-1-1-4-1-4-3l3-2 9-1-2-3 6 2h16l-2 2 2 1 1-3 15-1c1 2-1 4-3 6 4-1 4-7 7-7v4h2l-1-4c5 1 10-1 15-1m24 1v3c1 0 2-3 0-3m8 1l-1 1c1 3 5-2 1-1m-60 2c-1 2 2 3 3 2 1-2-2-3-3-2m52 2c1 1 1 1 0 0m-38 3c-1 2 0 2 1 3 1-2 1-2-1-3m4 0c0 1 2 3 3 2 1-2-2-3-3-2m10 0c0 2 0 2 2 2 0-2 0-2-2-2m-22 3v3c2 0 2-3 0-3z"/>
    <path fill="#4d7800" d="M798 630c1-1 4 0 2 1 0 1-3 1-2-1z"/>
    <path fill="#86976a" d="M902 631l7-1v2l-7 1v-2z"/>
    <path fill="#879f51" d="M854 632l4-2 3 1c0 1 0 4-2 3-1-2-3-1-4 0l-1-2z"/>
    <path fill="#7d847c" d="M877 631c1 1 1 1 0 0z"/>
    <path fill="#75884b" d="M205 633c0-2 2 0 2 1l1 2c-2 0-4-1-3-3z"/>
    <path fill="#7c8f53" d="M725 632h4v4c2 2 3 6 0 8 0-3-1-5-3-7l-4 1v-3h3v-3z"/>
    <path fill="#9abc4c" d="M734 638l5-6 7 8-5 1-1 2-2-4-3 3-1-4z"/>
    <path fill="#4c750b" d="M786 634c0-2 3-2 4-1l-1 2-3-1z"/>
    <path fill="#5b8a07" d="M665 633c2 0 1 3 0 3v-3z"/>
    <path fill="#8c9c72" d="M705 637l2-4c0 3 2 6 1 9l-3-5z"/>
    <path fill="#a5af8d" d="M845 635z"/>
    <path fill="#365203" d="M213 639c1-3 3-5 6-6l-2 5 3 3v1l-8-1 1-2z"/>
    <path fill="#6c9124" d="M219 633l1 8-3-3 2-5z"/>
    <path fill="#a2c34d" d="M574 634l2 3-3 2c0 2 3 2 4 3-2 2-5 0-7-3h-2c0 3-2 6-5 6v-5h-2l-13-1v-1l22-1h4v-3z"/>
    <path fill="#618913" d="M673 634c4-1 0 4-1 1l1-1z"/>
    <path fill="#808878" d="M703 634c1 0 2 0 2 2-2 0-2 0-2-2z"/>
    <path fill="#494b44" d="M712 634c2 0 2 3 0 3v-3z"/>
    <path fill="#939886" d="M844 635c-1 3-3-2 0-1v1z"/>
    <path fill="#a0a59e" d="M867 634c1 1 1 1 0 0z"/>
    <path fill="#87986d" d="M523 635l5 1-2 3-3-4z"/>
    <path fill="#a2af97" d="M533 635c2 0 2 0 2 2-2 0-2 0-2-2z"/>
    <path fill="#7b8e72" d="M679 635c1 1 1 1 0 0z"/>
    <path fill="#244904" d="M613 636c1-1 4 0 3 2-1 1-4 0-3-2z"/>
    <path fill="#5e6848" d="M747 637l2-1 1 4-2 1-1-4z"/>
    <path fill="#3b570d" d="M758 639l4-3 2 3-1 2-1-2-3 4h-1v-4z"/>
    <path fill="#34491c" d="M701 643c1-2 2-5 4-6l3 5-1 2-1-4-4 4-1-1z"/>
    <path fill="#8b9780" d="M709 637c2 0 2 0 2 2-2 0-2 0-2-2z"/>
    <path fill="#133b00" d="M665 638c1 1 1 1 0 0z"/>
    <path fill="#8fae3c" d="M210 639h3l-1 2 8 1 1 1c-2 1-5 2-6 5h9l-3 3-4-1-1 2c-2 2-4-4-4-6-2-2-2-4-2-6v-1z"/>
    <path fill="#7f915c" d="M759 643l3-4 1 2v2h-4z"/>
    <path fill="#a2ba6a" d="M702 644l4-4 1 4v1l3 1c-4-1-8 0-12 1l1-4h2l1 1z"/>
    <path fill="#4f7c08" d="M627 641c2 1 2 1 1 3-1-1-2-1-1-3z"/>
    <path fill="#649307" d="M631 641c1-1 4 0 3 2-1 1-3-1-3-2z"/>
    <path fill="#0c2f00" d="M641 641c2 0 2 0 2 2-2 0-2 0-2-2z"/>
    <path fill="#88946f" d="M672 641c3-1 2 3 2 5l-2-5z"/>
    <path fill="#899667" d="M750 641c2-1 3 1 5 2h-6l1-2z"/>
    <path fill="#97b655" d="M477 643l22-1v1l-4 1c-10 0-21 0-31 4h-12v2l-1 1-3-5 7-1-1 2c3-2 6-1 9 0l3-3 11-1z"/>
    <path fill="#a9b87d" d="M715 642l7 1-1 3h-5l-1-4z"/>
    <path fill="#748058" d="M725 642c1 0 3 1 3 3h-5l2-3z"/>
    <path fill="#132d00" d="M221 643c2 1 3 2 3 4h3c-1 1-2 2-3 1h-9c1-3 4-4 6-5z"/>
    <path fill="#a5b28b" d="M665 643c1 1 1 1 0 0z"/>
    <path fill="#717c5e" d="M581 644l3 2-4 3 1-5z"/>
    <path fill="#639003" d="M619 644c2 0 2 3 0 3v-3z"/>
    <path fill="#9a9f81" d="M394 645c2 0 2 0 2 2-2 0-2 0-2-2z"/>
    <path fill="#a2c358" d="M429 647l7-1c1 2 1 4-1 6l-5-3-1-2z"/>
    <path fill="#9fa994" d="M585 646c3-1 0 3 0 0z"/>
    <path fill="#545556" d="M667 646c2 0 2 0 2 2-2 0-2 0-2-2z"/>
    <path fill="#828c6e" d="M676 649c1-3 3-3 5-2-1 2-3 1-5 2z"/>
    <path fill="#85906e" d="M684 646h4v2h-4v-2z"/>
    <path fill="#969f8f" d="M643 647c2 0 2 0 2 2l-2-2z"/>
    <path fill="#797f70" d="M649 647l3 2c-1 1-3 0-3-2z"/>
    <path fill="#6f775e" d="M673 649c-3 1-2-3 1-2l-1 2z"/>
    <path fill="#073100" d="M523 648c1 1 1 1 0 0z"/>
    <path fill="#879670" d="M209 649c2 0 3 0 2 2-2 0-2 0-2-2z"/>
    <path fill="#7a8e57" d="M320 654c-2-2-1-6 2-5l-1 5h-1z"/>
    <path fill="#2f3e12" d="M217 650l4 1v2l-5-1 1-2z"/>
    <path fill="#656d58" d="M327 650c2 0 2 0 2 2-2 0-2 0-2-2z"/>
    <path fill="#aab0a6" d="M331 650c1 1 1 1 0 0z"/>
    <path fill="#94a085" d="M548 650c2 0 2 0 2 2-2 0-2 0-2-2z"/>
    <path fill="#909a7a" d="M560 651c1-1 3 2 2 3-2 1-3-2-2-3z"/>
    <path fill="#a1b482" d="M300 652c2 1 1 4 0 4h-1c-1-1 0-3 1-4z"/>
    <path fill="#959f83" d="M554 657l4-5-1 5h-3z"/>
    <path fill="#5d5d5d" d="M569 653c3 0-1 3 0 0z"/>
    <path fill="#5c6852" d="M600 653c2-1 2-1 3 1-2 1-2 0-3-1z"/>
    <path fill="#787a76" d="M542 654c3 0-1 3 0 0z"/>
    <path fill="#3e6507" d="M324 655c2 0 2 0 2 2-2 0-2 0-2-2z"/>
    <path fill="#608b0c" d="M344 655c2-1 3 2 2 3s-3-2-2-3z"/>
    <path fill="#325705" d="M178 657c2-1 5-1 4 2l-4 1v-3z"/>
    <path fill="#1e4300" d="M280 656c3-1 0 3 0 0z"/>
    <path fill="#557f0f" d="M182 660c2 0 2 0 2 2-2 0-2-1-2-2z"/>
    <path fill="#8d9389" d="M195 660c3-1 0 3 0 0z"/>
    <path fill="#57614d" d="M513 662c3 0-1 3 0 0z"/>
    <path fill="#878b80" d="M518 662c3-1 0 3 0 0z"/>
    <path fill="#a1c059" d="M358 665l6 2 2-2 1 3 6 2c-4 0-9 1-13-1l-1 2h-4c2-1 4-3 3-6z"/>
    <path fill="#5b8a06" d="M183 666c2-1 3 2 2 3-2 1-3-2-2-3z"/>
    <path fill="#174300" d="M239 667c2 0 2 0 2 2-2 0-2 0-2-2z"/>
    <path fill="#8da754" d="M314 667l2 5h6c4-1 8 1 12-2 1 2 4 0 3-2l5 1 2-1 2 4h-4l-2-2c-5 4-12 3-18 3l-11 1 3-4v-3z"/>
    <path fill="#7e8a66" d="M348 667c2 0 5 0 5 3-2-1-5 0-5-3z"/>
    <path fill="#234407" d="M334 670c0-1 1-3 3-2 1 2-2 4-3 2z"/>
    <path fill="#062f00" d="M281 669c2 0 2 0 2 2-2 0-2 0-2-2z"/>
    <path fill="#a0c456" d="M293 672l3-4 2 3 1 4-16 1 1 3c-2-1-3-3-5-2v3l-2 1-1-1 3-2-5-2c-2 1-1 3-1 5l-5-1v-3l3 1 2-3h11c2 0 5 0 6-3h3z"/>
    <path fill="#8fa84f" d="M298 671l3-2 4 3c-1 3-4 3-6 3l-1-4z"/>
    <path fill="#083700" d="M325 669c1 1 1 1 0 0z"/>
    <path fill="#61655e" d="M416 669l2 2c-2 0-2 0-2-2z"/>
    <path fill="#0d2802" d="M221 673c0-2 2-3 3-3 2 0 2 3 1 5l-4-2z"/>
    <path fill="#061c00" d="M187 672l3 2v3h-3l-1-3 1-2z"/>
    <path fill="#265200" d="M270 673c3-2 0 3 0 0z"/>
    <path fill="#a0c257" d="M175 678l7-4 1 3 3-3 1 3h3v-3c3 3 6 7 10 6h18c-5 2-9 1-14 2h-11v-4c-2 0-2 2-3 3l-9-3v4c-3 0-5-1-6-4z"/>
    <path fill="#508200" d="M217 674c2 0 2 0 2 2-2 0-2 0-2-2z"/>
    <path fill="#2c5900" d="M195 676c3-1 0 3 0 0z"/>
    <path fill="#3d6d00" d="M206 676v2-2z"/>
    <path fill="#97b35e" d="M234 677l8 1v1l-18 1h-6c5-3 11 0 16-3z"/>
    <path fill="#5a6052" d="M286 678c2 0 2 0 2 2-1 0-2 0-2-2z"/>
  </g>
</svg>
