<svg xmlns="http://www.w3.org/2000/svg" width="523pt" height="364" viewBox="0 0 523 273"><path fill="#241b14" d="M47 0h7v1h-7V0Z" opacity=".3"/><g fill="#ffe268"><path d="m44 2 3-1h7l11 3c6 4 12 9 16 15v3l-5-5 2 8-1 4c-4-7-7-16-15-20-2-2-5-2-8-3l2 3c-4-2-7-6-11-7h-1ZM33 43h6c5 3 10 5 14 9l-2 2h5l-2 2h-1l-9-5 2-2c-4-3-9-4-13-6ZM413 85l4-3 1 1c-1 2-3 3-5 3v-1ZM403 250c-2-6 1-13 6-16h1l-5 6c-2 3-3 6-2 10ZM116 243v-5 5l7-1v2l-7-1ZM354 239v4l-4 5v-2l3-3 1-4ZM258 243l7-1v2h-7v-1ZM454 246h1l8 1-8 1v5l-3 1-4-4 4 3h2v-7Z"/></g><g fill="#c5602a"><path d="M45 2c4 1 7 5 11 7l9 11-2 5c-1 2 1 6-1 8l-2-3-1 1c0-5 0-10-3-15-2-4-5-8-9-11l-2-3ZM50 56h4l-3 5c-5 6-8 13-9 21h-3l-2-1c-4-1-9 2-12-2l4-6c3-5 0-11-4-16 6 1 12 2 16 6l9-7Z"/></g><path fill="#170f12" d="m46 7 1-2c4 3 7 7 9 11-4-1-6-6-10-9Z" opacity=".4"/><g fill="#ffe226"><path d="M54 6c3 1 6 1 8 3 8 4 11 13 15 20l4 7h-4c-5-9-10-18-17-26l-4-1-2-3ZM81 19l7 9-3 3-4-9v-3ZM119 25l1 1 3-1c1 5 2 9 1 14l-2-5-3-2v-7ZM54 162l4 3-4 4-3 2-4 1c0-3 2-5 4-6 0 2 0 2 2 2 2-1 0-3-1-2l3-1-1-3ZM367 187l14 15 1 1-9 10-9-9 3 1c-2-6-2-12 0-18ZM323 197l1-1 18 5 4 2-4 1-5-3-14-4Z"/></g><g fill="#ffc948"><path d="m56 9 4 1c7 8 12 17 17 26h4l-4-7 1-4c4 4 5 10 6 15l-4 1-2-1-13-20-9-11ZM118 24l1 1v7l3 2 2 5-1 8-5-7V24ZM19 35c9-3 18-1 27 2h-2l11 9-2 1v-1c-7-4-14-8-21-9l-13-2Z"/></g><g fill="#df8527"><path d="m115 10 2 2-2-1 2 8c2 8-6 13-9 20l5 3 2-1 5 7-4-2a53 53 0 0 0-25-6h-7c-1-5-2-11-6-15l-2-8 5 5 4 9 4 6c4-3 8 1 12 0l1-1c4-3 8-5 11-9 3-5 1-12 2-17ZM65 20l13 20c-2-1-3 0-3 1l-3-4-3-5-3 1 5 6 1 1c-3 3-9 2-10 7-2-3-3-8-7-7h-2l2-2-8-1h9c2-1 3-4 3-6l1-1 2 3c2-2 0-6 1-8l2-5ZM25 79c3 4 8 1 12 2l2 1h-8c-5 0-8 5-13 5l7-8Z"/></g><path fill="#efe047" d="m115 11 2 1 6 13-3 1-1-1-1-1-1-5-2-8Z" opacity=".9"/><g fill="#f4a72a"><path d="m117 19 1 5v16l5 7v3l-3-2-5-7-2 1-5-3c3-7 11-12 9-20ZM44 37h3l8 1-2 2h2l5 8-5-2-11-9Z"/></g><path fill="#ffd662" d="M88 28c4 4 8 9 14 8l-1 1c-4 1-8-3-12 0l-4-6 3-3Z"/><path fill="#f6ab2e" d="m66 33 3-1 3 5-1 2-5-6Z"/><g fill="#fab332"><path d="M4 50c4-6 8-12 15-15l13 2v2h-9l-2 3-1-3-8 9h4l-6 3-6 1v-2ZM43 51h1l9 5h-3c-7 0-15 2-22 0l-1-2h2l2-1a1253 1253 0 0 1 12-2ZM35 89l1-1 1 6c-6-1-12-1-18 2l-2-1c5-5 11-7 18-5v-1Z"/></g><path fill="#ea9d29" d="M32 39v-2c7 1 14 5 21 9-1 2 0 4 1 5v3h-3l2-2c-4-4-9-6-14-9l-1-1-6-3Z"/><path fill="#f1b155" d="m71 39 1-2 3 4v2l-3-3-1-1Z"/><path fill="#fcba44" d="m12 48 8-9 1 3 2-3h9l6 3c-4 0-7-1-10 1h3v3h-4l2 2H12Z"/><path fill="#f7c062" d="M55 40c4-1 5 4 7 7l1 1-3 2-7-3 2-1 5 2-5-8Z"/><path fill="#c5602b" d="M62 47c1-5 7-4 10-7l3 3v-2c0-1 1-2 3-1l2 1-2 1-5 1-10 5-1-1Z"/><g fill="#c581b4"><path d="m80 41 4-1h7l-5 6-8 3h3l-2 1-13 5 2-2 6-4 4-7 2-1ZM514 115l3 12v5c-3 1-3 5-4 7l-2-7-1-7 3 5c1-5-1-10 1-15Z"/></g><g fill="#deadcd"><path d="M91 40h7a451 451 0 0 1-6 6l-3 1 7 1 8 2c-6-1-12-2-18-1h-8l8-3 5-6ZM154 58l10-3h7l-8 6-11 4 2 1-7 3a577 577 0 0 1 3-5l6-4-2-2Z"/></g><path fill="#ffd636" d="M28 43c3-2 6-1 10-1l1 1h-6c4 2 9 3 13 6l-2 2h-1l-14-3-2-2h4v-3h-3Z"/><path fill="#edc6dd" d="m93 44 5-4c6 1 13 3 18 6-5 2-9-3-14-2-3 0-6 1-6 4l-7-1 3-1 1-2Z"/><g fill="#99619b"><path d="m73 43 5-1-4 7-6 4c-1-4 3-6 5-10ZM273 127h2l2 6c4 6 0 14 4 19v32l-1-1v-9a225 225 0 0 1-5 5l-1-21 2 7v-11l-2-22v8l-1-4v-9Z"/></g><g fill="#83458d"><path d="m63 48 10-5c-2 4-6 6-5 10l-2 2 13-5c-5 4-11 5-16 9l2 2-6 2-7 10v-1l4-8 4-5-2-7a46 46 0 0 1 5-4ZM274 85l7-3c-3 4-7 8-11 10l-2-1v-3l5-5 1 2ZM389 115l8-3v5l7-3v2l-1 3-8 2 1-7-7 1Z"/></g><g fill="#f8e3f0"><path d="M96 48c0-3 3-4 6-4 5-1 9 4 14 2l4 2a75 75 0 0 1 19 16l5 7-10-1-5-5-1-1a64 64 0 0 0-32-16ZM237 45h1l3 5v1l-2-1 4 10 11 17-2 2-9-12-7-11-13 12h-1l12-11c3-3 3-8 3-12ZM304 62c4-1 5 3 6 6 4 7 10 13 14 21h-4l-13-19-3-8ZM349 70c1-5 6-4 9-3 8 2 15 7 23 8h4c7 4 13 11 17 18l1-1-1 1v3c-2 3-3 7-3 10l-2-4-4-11c-6-7-14-12-22-15s-15-6-22-6ZM88 114v-2l5 8 2 3 9 10c6 7 14 12 18 20l-3-1-10-11c-7-8-16-16-21-27ZM341 122c6 1 12 2 18 1l-15 1c-2 0-3 0-3-2ZM378 156l15 5 9 5c2 1 4 0 6-1l3 2h-2l-8 2-8-4-14-7-1-2ZM39 157l1 1 3 2 2-1h1l-4 2-2-2-1-2ZM51 166h1c1-1 3 1 1 2-2 0-2 0-2-2ZM72 225l22 1-22-1ZM150 238c5-3 10-6 15-7-7 3-15 5-18 13-2 2-2 5-1 8a26 26 0 0 1-1-7l4-7h1ZM442 240c4-5 10-8 16-9v1c-5 1-10 3-14 7-4 3-7 7-5 12v1c-2-5 0-9 3-12ZM465 236l4-5 3 3-3-2-5 6-1-1-1 1 1-1 2-1ZM478 238l6-7 1 1-8 8-2-2h3Z"/></g><g fill="#482e76"><path d="m219 59 18-14c0 4 0 9-3 12l-12 11-10 8-11-3c3-4 8-6 12-8l6-6ZM281 73l20-22v11l-8 7c-3 3-7 5-12 7v-3Z"/></g><path fill="#df8227" d="M54 51c-1-1-2-3-1-5v1l7 3a46 46 0 0 0-4 4h-2v-3Z"/><path fill="#d78f30" d="M16 48h13l14 3 3 3a1253 1253 0 0 0-17 0h-2l1 2-4-1c-4-3-9-5-14-4l6-3Z"/><path fill="#6a3082" d="M81 49h5c4 3 10 0 14 4l4-2-1 4 10 6v-6l2 1 5 10c3 0 6 0 8-2l1 1c-2 3-4 5-4 9l5-2 2 2-20 28-10-5h-8c-2 0-3 2-4 4-1 1-2 3-1 5l8 9h1l1 1 5 7c-3 0-4-3-6-4l-11-13-1 2v-3l-3 3c-2-2-2-4-3-7l-2 3-5 2-7-7-2 1-1-2-2 1-3-3c1 3 2 6 1 9l-4-1-3 2-3-12c-1-7-1-15 3-22v1l7-10 6-2-2-2c5-4 11-5 16-9l2-1m-3 6 8-2c-3-2-7-1-8 2m5 3 9-1c2 0 4 1 5-1-4-1-11-3-14 2Z"/><g fill="#893889"><path d="M86 49c6-1 12 0 18 1 9 3 17 8 24 14-2 2-5 2-8 2l-5-10-2-1v6l-10-6 1-4-4 2c-4-4-10-1-14-4ZM223 68l13-12 7 11h-8c0-3 3-3 5-4l-7-2-1 7-1-2c-3 3-6 5-10 4l2-2Z"/></g><path fill="#060a13" d="m3 51 1-1v2l6-1a18 18 0 0 1 15 6c4 5 7 11 4 16v-5c-2-7-8-12-15-13H5l-2-4Z" opacity=".4"/><g fill="#e6b9d6"><path d="m239 50 2 1v-1l21 30-3-1 4 14 5 6v-1l21-20 11-11c5-4 1-11 1-16l3 2 10 12 1 2 17 21-8 1c-4-8-10-14-14-21-1-3-2-7-6-6l3 8-4-4-6 6 3 2-3-1-15 13 4 3-4-2-15 14-15-22 2-2-11-17-4-10ZM338 61c16 1 33 5 47 14h-4c-8-1-15-6-23-8-3-1-8-2-9 3l-5-1c-7-2-15 0-22-1l16-1 1-3-1-3ZM212 76l10-8h1l-2 2-8 7 30 35-5-6-7-7-7-8-11-12-1-3ZM190 112l7-4c-6 7-16 9-25 11-2 1-3 0-4-1 8-1 15-2 22-6ZM411 232h1c5-1 10-2 15 0h-10c-2-1-5 0-6 2h-2v-1l2-1ZM161 246h9l-1 2c-2-2-5-2-7 0l-1 5v1h-2l-3-3 1 1h4v-6Z"/></g><g fill="#6e3485"><path d="m301 51 1-1 2 3-3-2c0 5 4 12-1 16l-11 11c-3-2-5 2-8 4l-7 3-1-2 8-10v3c5-2 9-4 12-7l8-7V51ZM153 71l3 1c3-1 7-2 10 0l-9 2-1 7h7l2 4 12-4h5l12 2 1-5c-5-2-10 1-15 0l-7-6h4l4 4c4-3 8-4 13-4l-2 4 4-2h3l2-1 1 4 5 7-3 5h4l-8 10 3 4c-2 2-3 4-6 5l2-7c-6 9-17 9-26 12 1-5-1-9-3-14 0-2-2-3-3-4l-2-6 2 20v3c-1 2-4 4-7 4v-3h-4l-7-4c-1 1-2 3-4 3l-2-2V78h-2l4-6 7 4 1-5m13 17c5 7 8 15 8 23l7-2h1c5 0 10-4 13-6 4-2 3-7 1-10-3-3-5-7-10-8-6-1-14-1-20 3Z"/></g><g fill="#f3daea"><path d="M164 55c16-4 34-7 50 1l-6 7c-4-2-9-5-13-3-7-1-14-1-20 1l-21 5-2-1 11-4 8-6h-7ZM462 73l5-2c17 4 31 15 40 29 0 3-1 6 1 8 1 4 3 8 3 13l-5-10-4-9c-3-5-7-9-11-12 2-1 0-3-1-4-5-5-12-7-18-9-2-1-3 0-5 1l-8-1-7-1c3-2 6-3 10-3ZM432 149c2-1 3 2 4 3 6 7 16 10 24 11h-6c-5 0-10-2-13-5-4-2-6-6-9-9ZM58 177l1-1 3 1c8 6 17 8 25 9-5 1-12 0-17-2-4-2-6-5-10-6l-2 1v-2ZM424 241l1 2v6l-3 4-6 1-1-1c3 1 6 1 7-1 3-3 2-7 2-11ZM290 243v3c-1 3-4 5-7 7l-2-1 4-1c3-2 5-5 5-8Z"/></g><path fill="#913f8d" d="M78 55c1-3 5-4 8-2l-8 2Z"/><path fill="#5a3178" d="m56 54 2-2 2 7-4 5c-2 0-4-2-5-3a60 60 0 0 1 5-7Z"/><g fill="#c37c2f"><path d="m24 55 4 1c7 2 15 0 22 0l-9 7c-4-4-10-5-16-6l-1-2ZM53 171l1 1-2 3c-4 3-3 9-5 14l2 2-1 1c-3-1-4-4-5-7 1-6 6-10 10-14Z"/></g><path fill="#8f3c8b" d="M83 58c3-5 10-3 14-2-1 2-3 1-5 1l-9 1Z"/><path fill="#dea1c8" d="m214 56 5 3-6 6-5-2 6-7Z"/><g fill="#c88eba"><path d="m139 64 15-6 2 2-6 4-1 2c-1 0-2 1-2 3l-2 2h-1l-5-7ZM434 73l6-2 4 1-2 5-8 3c1-2 3-5 0-7ZM174 155c4 6 7 11 9 17v2l1 7 1 8 1 6-6-4c-2-2-3-3-3-6h2c1-8 0-16-3-23l-1 6-1-6v-7Z"/></g><g fill="#823789"><path d="M175 61c6-2 13-2 20-1 4-2 9 1 13 3l5 2c-4 2-9 4-12 8l-2 1h-3l-4 2 2-4c-5 0-9 1-13 4l-4-4h-4l7 6c5 1 10-2 15 0l-1 5-12-2h-5l-12 4-2-4h-7l1-7 9-2c-3-2-7-1-10 0l-3-1-1 5-7-4-10-1-3 3-2-2-5 2c0-4 2-6 4-9l5 5 10 1h1l2-2 7-3 21-5m1 6ZM455 246h8v2-1l-8-1Z"/></g><g fill="#322958"><path d="M42 82c1-8 4-15 9-21 1 1 3 3 5 3l-4 8c-4 7-4 15-3 22l-1-13-5 2-1 1v-2ZM433 126l2-2c1 4-1 8 2 12v3c-1-1-4-2-5-5-1-2 0-5 1-8Z"/></g><path fill="#6e3384" d="m233 61 7 2c-2 1-5 1-5 4h8l9 12 15 22 15-14 4 2-4-3 15-13 3 1-3-2 6-6 4 4 13 19 4 1-6 1-39 30-5 1v2l-5-1 2 3c-3 0-5 1-7 3l-2-3-6 5 2-7 3-1-7-3 2 5-5 1v3l4-2c0 3-3 3-5 3l-3 10v-3l3-15-2-3-3-4-2-3-30-35 8-7c4 1 7-1 10-4l1 2 1-7Z"/><path fill="#683082" d="m315 64 2-2 2 2v1l2 4h20l-7 6 9-4 2-1 12 3c2-1 2 2 3 3l9 2 2-2c8 3 16 8 22 15l4 11v4c-4 0-8 0-11 2 4-2 7-2 11-2v6l-8 3 7-1-1 7 8-2-3 7-2-2c-3 1-6 2-7 4l-13 8-14 1 1-4c-3 3-5 5-9 4l1-5-5 2 3 2-5 4c-2 1-3-1-4-2l2-3-5 2-2-3-4 1-1-1c-4 2-4-3-4-5l-1 3-1 1c0 3-4 4-7 5l-1-5 2-3-3-5v7l-5-1c2 2 4 4 4 7-2 0-4 0-6 2v-3c0-10 2-19 3-28v-8c6-3 11-7 15-12l-8 1-4-1h4l8-1-17-21v-3m31 17h7c2 0 2 2 3 3h4l-4-8c-4-1-8 2-10 5m-2 13 4 7 1 6v1l-1 9h1l1 1c-2-1-4 0-5 2l-1-1c1-4 2-9 1-13 0-2 1-5-1-6-2 7-2 14-3 22 0 2 1 2 3 2 5 2 12 1 18 0 4-2 9-5 10-10v-7h-5a525 525 0 0 1 0-6c-2-2-3-5-6-5-5-2-11-3-17-2m24 6c0 2 1 4 3 4 0-2-1-4-3-4Z"/><g fill="#cf97c0"><path d="m317 62 21-1 1 3-1 3-16 1c7 1 15-1 22 1h-23l-2-4v-1l-2-2ZM344 100c2 1 1 4 1 6 1 4 0 9-1 13l1 1c6 1 12 3 18 1a17 17 0 0 0 9-7c-1 5-6 8-10 10-6 1-13 2-18 0l15-1c-6 1-12 0-18-1 1-8 1-15 3-22Z"/></g><path fill="#9d4993" d="M176 67c1-3 6-5 7-1l-7 1Z"/><path fill="#f3a018" d="M315 64v3l-1-2 1-1Z"/><g fill="#923d8c"><path d="M341 69h3l5 1c7 0 14 3 22 6l-2 2-9-2c-1-1-1-4-3-3l-12-3-2 1-9 4 7-6ZM474 80c6 2 12 6 17 10 4 3 8 7 11 12-5-1-8-5-13-5-1-2 1-4 1-7l-2 3-6-2-8-11Z"/></g><path fill="#e3b0d0" d="M440 71c9-2 18-2 27 0l-5 2c-4 0-7 1-10 3l7 1a63 63 0 0 0-49 26c1-5 5-8 8-12l8-6 8-5 8-3 2-5-4-1Z"/><path fill="#231f3b" d="m132 74 3-3 10 1-4 6-2 3-16 21-9 11-8-6-4-2c2-2-1-4-1-6l1-2 10 5 20-28Z"/><g fill="#9b5397"><path d="m201 73 11 3 1 3 11 12-5 4-17-18-1-4ZM417 82l6-3c3-1 2 3 2 5l1 1-8 6v-8l-1-1ZM87 106l11 13c2 1 3 4 6 4l3 3c-5-1-9-5-14-6l-5-8v2l-2-6 1-2Z"/></g><g fill="#ad70a8"><path d="M423 79c3-3 7-4 11-6 3 2 1 5 0 7l-8 5-1-1c0-2 1-6-2-5ZM93 120c5 1 9 5 14 6l11 11 5 6 6 7c-1 4 1 7 1 10-1 3-1 7-3 10l-3-10 2 1c0-4 0-9-3-12-5-9-13-15-19-22-3-2-6-4-9-4l-2-3Z"/></g><path fill="#7e3386" d="M346 81c2-3 6-6 10-5l4 8h-4c-1-1-1-3-3-3h-7Z"/><g fill="#1a1e37"><path d="m202 77 17 18 7 8 6 7 4 4-7 12a54 54 0 0 1-14 13l-1-9c6-5 12-12 14-21-3-6-9-11-13-16l-8-9-5-7ZM397 131l3-3v3c-1 6 0 12 1 18l3 13h-1l-10-5-3-15c-1 0-2 1-2 3l-1-3 7-8 3-3ZM76 142l13 15c4 4 7 10 7 16h-6l-1-3c-1-5-5-9-9-13l-12-14 7 4 1-5ZM161 192c6 0 13-2 19-1l6 4 1 1-7 1-21 3h-3l-13 2-5-1 4-6 19-3Z"/></g><path fill="#9d5699" d="M281 82c3-2 5-6 8-4l-21 20v-7l2 1c4-2 8-6 11-10Z"/><path fill="#9f4591" d="M441 80c5-2 11-3 18-3l8 1 6 2h-17l-3-2c-4 2-8 3-12 2Z"/><path fill="#faebf5" d="M467 78c2-1 3-2 5-1 6 2 13 4 18 9 1 1 3 3 1 4-5-4-11-8-17-10h-1l-6-2Z"/><g fill="#cc4a32"><path d="M141 78h1l-6 19v23l-2 3-4-1 1-8c0-4-2-8-1-12l2-8c2-4 6-8 7-13l2-3ZM182 153c7 2 13 6 17 13l-6 1-11-14ZM182 163v-5c2 5 5 10 10 12l-1 6c-1 1-2 0-3-1l-5-1v-2l-1-9ZM137 182l1-4v2c0 7-4 14-3 22l-4-4v-7l4-10 2 1Z"/></g><g fill="#1d2140"><path d="M142 78h1v72l-1 30-1-5-1 7-2-2v-2c1-6 0-13-2-18V97l6-19ZM281 165v-1l1 24-31 11-9 3-18 6 2 4-2-1 1 5c-1 1-1-1-2-1v-5l1-7 1 2 10-10 41-12 5 4v-22ZM507 167l4-3 1 2c-6 15-19 27-33 34-6 2-12 5-18 5l4-3 1-2 2-1-3-3 3-1a60 60 0 0 0 37-30l2 2ZM56 180l10 13-1 7-7-7c-3-4-2-9-2-13Z"/></g><path fill="#723586" d="M441 80c4 1 8 0 12-2l3 2h18l8 11 6 2 2-3c0 3-2 5-1 7 5 0 8 4 13 5l4 9 3 8-7-1 5 1c3 1 2 4 3 6l1 7c1 4-1 9 2 12l4-6v-11l1 6v11c-4 0-5 4-7 7l-1-9-5 3-1-3 3-6c-4 2-10 1-14 4l8 2 1 1-13 4c0-3 2-5 4-6l-1-3-10 3-2 5-1-1v-15c-2-4-4-8-7-10-5-4-10-7-16-7-8 0-16 4-21 11l-2 2-2-3h-6l-6 2 5-4-1-2-7 2-5-7 3-6-5-2c-2 1-3 3-2 6l-2-1-1-10 1-6 8-9c2 0 4-1 5-3v8c-3 4-7 7-9 12 8-11 19-19 32-23m29 4c2 3 6 2 8 5-1-4-5-5-8-5m8 11c0 3 5 2 7 4 0-3-4-5-7-4m10 10c4 0 8 2 11 4-1-4-7-5-10-6l-1 2Z"/><path fill="#d79ec5" d="m259 79 3 1 4 5h-3v8l-4-14Z"/><g fill="#232140"><path d="m43 83 5-2 1 13a107 107 0 0 0 5 18l-3 8a100 100 0 0 1-6-12l-3-13V84l1-1ZM116 248h1l1 2h7l-6 1 6 1v1h-8l-1-1v-4Z"/></g><g fill="#ef9d29"><path d="M18 87c5 0 8-5 13-5-1 2 2 3 2 1l-1-1h1c2 3 6 2 9 3v1l-8 1 1 2v1c-7-2-13 0-18 5l2 1-9 8v-4c1-5 4-10 8-13ZM131 259v-28l1 1 1 15v11h7v-26l1-1v28h-10Z"/></g><g fill="#e8a25c"><path d="M31 82h1l1 1c0 2-3 1-2-1ZM34 87l8-1v9l-3-1h-2a444 444 0 0 0-2-5l-1-2Z"/></g><path fill="#de9a5d" d="M33 82h9v3c-3-1-7 0-9-3Z"/><g fill="#ef8b28"><path d="m123 102 16-21c-1 5-5 9-7 13l-6 10c-1 4 1 7 2 10l-1 7 1 4-10-8-1-1c4-4 6-9 8-14h-2ZM297 201l4-6c5 2 11 3 15 8l-2 1 2 1-19-4ZM104 212l6-2c2 3 6 5 9 7v2h3c-4 1-8 2-13 1l6-2c-3-3-8-4-11-6Z"/></g><path fill="#5a3183" d="m207 84 8 9c4 5 10 10 13 16-2 9-8 16-14 21-6 4-12 8-19 10-7 3-15 4-22 5 2 4 5 6 8 8v9l-2-3c-1-4-4-6-7-9v1l-2 3c-2-1-2-4-3-6l-3-2 2 3c-1 4-5 5-8 6v-9h5l-6-3-1 6c-3 0-6 0-7-3l-2 2-2-1-2 3v-40l2 2c2 0 3-2 4-3l7 4h4v3c3 0 6-2 7-4l1 8 4-1c9-2 19-4 25-11 3-1 4-3 6-5l-3-4 8-10h-4l3-5Z"/><path fill="#9b4792" d="M470 84c3 0 7 1 8 5-2-3-6-2-8-5Z"/><g fill="#171a2e"><path d="M166 88c6-4 14-4 20-3l-1 8-5-1-6 1v1c-1 5 1 11 1 16l6-1-7 2c0-8-3-16-8-23ZM344 94c6-1 12 0 17 2l-2 2v2l-3-1h-2l-4-1-1 9-1-6-4-7ZM51 120l3-8c4 8 9 14 14 21l8 8v1l-1 5-7-4-7-8a219 219 0 0 1-10-15ZM435 124c5-7 13-11 21-11 6 0 11 3 16 7l-5-1-2 2c2 3 6 4 5 8l-3-3c-2-2-4-4-7-4l-3-1a18 18 0 0 0-17 9 41 41 0 0 0-3 6c-3-4-1-8-2-12ZM124 189l6 4-2 3-7 8a45 45 0 0 1-11 6l-6 2-11-1c0-3-2-5-5-6l3-1c6 1 11 0 17-1 7-3 12-8 16-14ZM270 231c7 0 14-1 21 1l1 1c-6-1-13-2-19-1l-1-1v28l-2 1v-29Z"/></g><path fill="#472d6b" d="M186 85c5 1 7 5 10 8 2 3 3 8-1 10-3 2-8 6-13 6l2-1 4-3 2-2c2-4 0-9-5-10l1-8Z"/><path fill="#b779ae" d="M263 85h3l2 3v11l-5-6v-8Z"/><g fill="#ffcf00"><path d="m403 92 10-7v1l-8 9-3 1v-3l1-1ZM123 143c3 1 4 3 5 5 4 5 6 10 8 16v8l-2-11-5-11-6-7ZM316 195h1l7 1-1 1 14 4 5 3-9 4-10-2c0-5-3-9-7-11ZM189 196l5 3 2-1 1 6v3l-8-9v-2ZM426 199l7 3c-3 3-8 4-10 8h-3l-4-1v-4c4-1 8-3 10-6ZM72 225l22 1c2 1 5 2 6 4v8l-3 3c-2-1-7 0-7-4l-1-5h-3l-4-1v14c-3-3-9-4-10 1v1-22ZM307 226h31v7h-10v5l-1 4-2-2h-5l-2 6v-13h-11v-7ZM108 233l16-1 1 5-9 1v5c-2-1-5 0-7 1h-1v-11ZM132 232h8v13c-2-2-4-2-6-2l-1 4-1-15ZM250 232l16-1v6h-8v3l-2 2-1-2c-3 0-4 2-5 4v-12ZM273 232c6-1 13 0 19 1 3 2 6 4 7 7h-6l-3 4v-1c0-5-5-5-9-5h-1v5c-1-2-3-3-5-3l-2 5v-13ZM417 232h10l6 5v1a192 192 0 0 1 0 4l-2-2h-4l-2 3-1-2c0-3-4-5-7-4l-5 5-2-2h-5l5-6h1c2 0 5 0 6-2ZM444 239c4-4 9-6 14-7l2 6-12 5 1-3-5-1ZM224 233h21v5h-6v7l-3-5h-3l-2 5v-7h-7v-5ZM340 233a102 102 0 0 1 21 1l1 1c2 4-1 9-4 11l-1-3h-3v-4l-6-3-1 6-4-2-3 3v-10ZM386 233h8v9l-6-2-2 5v-12Z"/></g><g fill="#efcfe3"><path d="m165 89 2 6 4 18c0 2-2 3-3 5l-1-9-2-20ZM176 162c3 7 4 15 3 23h-2l-2-17 1-6Z"/></g><g fill="#282343"><path d="m324 90 8-1c-4 5-9 9-15 12l-5 4-31 25-6-3-1-2 5-4 39-30 6-1ZM378 136l13-8 6 3-3 3c-6 6-14 11-23 11l2 2c-4 1-9-2-13-4 1-2 2-4 4-4 5-1 10-1 14-3Z"/></g><path fill="#914992" d="m224 91 7 8-5 4-7-8 5-4Z"/><g fill="#d55233"><path d="m174 93 6-1-1 1c5 2 9 6 11 10l-2 2a35 35 0 0 0-14-11v-1ZM101 107l5 1v-1l8 6 3 3 1 1-5 1-1 5v1c-1-2 0-6-3-7l-6-4v4l7 8c1 2 3 2 4 2l3 4-1 2-15-15-2-2-1-1-2-5c2-1 3-3 5-3ZM440 130l5-7h5l-3 4 6 5c2 2 6 2 8 2 4 0 7 1 10 3l1-3c1 4 0 8-2 12l-1-1c-3 0-2-2-3-4l-2-3c-3 1-5 1-7 3-3-7-10-11-17-11Z"/></g><path fill="#fe852b" d="m180 92 5 1c5 1 7 6 5 10-2-4-6-8-11-10l1-1Z"/><g fill="#cd8631"><path d="M19 96c6-3 12-3 18-2h2l-1 8c-4 1-10-2-14 2-5-1-10-1-15 1l1-5v4l9-8ZM36 163v-14l1 5v7l4 2-2 5-3-5ZM64 168c2 1 4 1 5 3v2c-3-2-9-2-10 2v1l-1 1-2 2-4 3v-5 2c3-5 9-10 15-9l-3-2Z"/></g><g fill="#e36a31"><path d="m126 104 6-10-2 8c-1 4 1 8 1 12l-1 8 4 1-3 3-3-1-1-4 1-7c-1-3-3-6-2-10ZM185 151h3c8 2 13 9 20 12l-9 3c-4-7-10-11-17-13v-1l3-1ZM392 191l10-12 6 6c-1 2 0 3 1 4-3 4-7 6-12 7l-5-5Z"/></g><path fill="#7b2b29" d="m174 94 3 1 7 13-2 1h-1l-6 1c0-5-2-11-1-16Z"/><g fill="#b6602c"><path d="m38 102 1-8 3 1 3 13-1 2-2 1c-5-5-12-6-18-7 4-4 10-1 14-2ZM59 175c1-4 7-4 10-2v-2l1 4H59Z"/></g><path fill="#9b352e" d="m177 95 11 10-4 3-7-13Z"/><g fill="#d3a0c5"><path d="m402 96 3-1-1 6-1 9c-1 2-4 3-6 4v-8c-4 0-7 0-11 2 3-2 7-2 11-2v-4l2 4c0-3 1-7 3-10ZM95 123c3 0 6 2 9 4 6 7 14 13 19 22 3 3 3 8 3 12l-2-1-5-8 3 1c-4-8-12-13-18-20l-9-10Z"/></g><path fill="#994390" d="M478 95c3-1 7 1 7 4-2-2-7-1-7-4Z"/><path fill="#572f80" d="m58 96 3 3 2-1 1 2 2-1 7 7 5-2 2-3c1 3 1 5 3 7l3-3v3l2 6c5 11 14 19 21 27l-3 2-4-2 3-2-7-1c-1 1-3 3-5 3l-5-4 9-1c-1-2-3-3-5-3-2 1-4 2-7 1l1 4-6-1c1 2 0 3-1 4l-1-2h-2v2l-8-8c-5-7-10-13-14-21l-2-6 3-2 4 1c1-3 0-6-1-9m4 5c-1 3 1 6 2 8l2-2 8 5c0-3-3-5-5-7s-4-4-7-4Z"/><path fill="#101321" d="M94 97h8l-1 2c0 2 3 4 1 6-2-2-6-1-6 2l-1 2-5-8c1-2 2-4 4-4Z"/><path fill="#a7559b" d="M167 95c1 1 3 2 3 4 2 5 4 9 3 14 9-3 20-3 26-12l-2 7-7 4c-7 4-14 5-22 6 1 1 2 2 4 1l-4 1-1-8v-3l1 9c1-2 3-3 3-5l-4-18Z"/><path fill="#3b2b63" d="M361 96c3 0 4 3 6 5l-2 1 2 5h5v7l-3 3c-3 0-6 2-10 1a154 154 0 0 1 6-3c1-3 2-6 1-9s-4-4-7-6v-2l2-2Z"/><g fill="#b53d30"><path d="m350 98 4 1h-2l2 2-1 5 3 2-3 3-4-3v-1l1-9ZM103 113l6 4c3 1 2 5 3 7v-1l2 3v1c-1 0-3 0-4-2l-7-8v-4ZM229 126l7-12 3 4 3 4-3 18-6-5c-2-3-4-6-4-9ZM296 137l5-6 1 11a77 77 0 0 1-5-3l-1-2ZM377 148l10-6 1 3c0-2 1-3 2-3l3 15-12-6-4-3Z"/></g><path fill="#763687" d="m231 99 7 7-1 4-4-2-1 2-6-7 5-4Z"/><g fill="#dd5931"><path d="M352 99h4c-1 3 1 5 3 6l4 4 2 6-4 2h-2l2-4c-1-4-5-2-7 0l-1-2 3-3-3-2 1-5-2-2ZM312 105l5-4v1c-3 4-7 9-7 15l-1 12-2-1-4 22c-2 5-2 11-3 16l-2 15-4 5 4-47 4 3-1-11-5 6 1 2h-1l-4 1c0-3 2-6 3-8 1-3-1-6 2-8l8-11c3-3 6-5 7-8ZM229 126c0 3 2 6 4 9l6 5-1 3-4-4h-6c-3 0-4-3-6-5l7-8ZM371 145c9 0 17-5 23-11l-7 8-10 6-4-1-2-2ZM128 148l3-1 1 1 4 4v8c2 5 3 12 2 18l-1 4-2-1 1-3v-14c-2-6-4-11-8-16ZM350 169l2 2h-1l1 3 3 10-3-1-1 5h-2l-1-1v-1a122 122 0 0 0 2-17ZM317 233h1a166 166 0 0 0 0 21v6h10v3h-11v-30ZM82 257l1 5-11 1v-3h10v-3Z"/></g><path fill="#f59f24" d="M359 105c-2-1-4-3-3-6l3 1c3 2 6 3 7 6s0 6-1 9l-2-6-4-4Z"/><path fill="#914a89" d="M368 100c2 0 3 2 3 4-2 0-3-2-3-4Z"/><path fill="#d9adcd" d="M507 100a62 62 0 0 1 7 14v1c-2 5 0 10-1 15l-3-5c-1-2 0-5-3-6l-5-1 7 1-3-8 5 10c0-5-2-9-3-13-2-2-1-5-1-8Z"/><path fill="#682e80" d="M62 101c3 0 5 2 7 4s5 4 5 7l-8-5-2 2c-1-2-3-5-2-8Z"/><path fill="#3b2a40" d="M89 106c-1-2 0-4 1-5l5 8 1-2v3l2 5h-1l-8-9Z"/><path fill="#a2579a" d="M404 101a30 30 0 0 1 0 13l-7 3v-3c2-1 5-2 6-4l1-9Z"/><g fill="#fbb512"><path d="M123 102h2c-2 5-4 10-8 14l-3-3 9-11ZM193 193l2-6 1 11-2 1-5-3v2l-2-2-1-1-1-6c4 0 6 2 8 4Z"/></g><g fill="#060a14"><path d="M9 105c5-2 10-2 15-1 6 1 13 2 18 7v7c0-2 0-4-3-5-7-6-17-6-26-5-2 0-3-1-4-3ZM109 262h17c-1 4-5 2-8 2s-8 2-9-2Z" opacity=".5"/></g><path fill="#18193a" d="M310 117c0-6 4-11 7-15v7c-5 1-5 6-5 10l-2-2Z"/><path fill="#9c4b94" d="m488 105 1-2c3 1 9 2 10 6-3-2-7-4-11-4Z"/><path fill="#e8812a" d="M96 107c0-3 4-4 6-2l4 2v1l-5-1c-2 0-3 2-5 3v-3Z"/><g fill="#f39424"><path d="m281 130 31-25c-1 3-4 5-7 8l-13 11c-2 3 0 7-3 8-2 3-6 5-7 10h11l-12 10v-22ZM307 128l2 1-4 31-3 30-2 2c-4-3-3-7-2-11l2-15c1-5 1-11 3-16l4-22ZM188 151l13-4 4 5c4 2 7 5 10 9l-7 2c-7-3-12-10-20-12Z"/></g><g fill="#5e2f80"><path d="M407 112c-1-3 0-5 2-6l5 2-3 6 5 7 7-2 1 2-5 4 6-2h6l2 3c-1 3-2 6-1 8 1 3 4 4 5 5l2 6c3 6 10 11 17 10 3 4 8 2 12 3-3 2-8 4-13 2l-6-3c-9-4-15-12-19-20l1 9c-5-2-9 1-13 1 1-2 3-5 2-7l-5 4h-6c0-3 2-5 4-7l-3-2-3 4c-3-3-5-7-5-11 2-3 6-8 2-12v-2l1-3 2 1ZM238 106l5 6 2 3-6 3-3-4-4-4 1-2 4 2 1-4Z"/></g><path fill="#cc722b" d="m44 110 1-2 4 9c-5 6-6 14-8 21l1 2h-2a49 49 0 0 1 2-22v-7l2-1Z"/><path fill="#070a13" d="m349 108 4 3 1 2 1 2c-2 0-5-1-6 2h-1l1-9Z" opacity=".4"/><path fill="#202343" d="M312 119c0-4 0-9 5-10-1 9-3 18-3 28l-3 20-2-1-2 5-2-1 4-31 1-12 2 2Z"/><g fill="#aa3a2e"><path d="M354 113c2-2 6-4 7 0l-2 4h2l-2 1-2 1-2-4-1-2ZM457 141c2-2 4-2 7-3l2 3c1 2 0 4 3 4l1 1c-3 5-7 8-12 9v-1c1-4 1-8-1-11v-2Z"/></g><path fill="#7b5371" d="m513 112 1 2-1-2Z" opacity=".8"/><g fill="#eb7a2e"><path d="m292 124 13-11-8 11c-3 2-1 5-2 8-1 2-3 5-3 8l4-1-3 3h-11c1-5 5-7 7-10 3-1 1-5 3-8ZM445 123c4-2 8-3 12-2h-4l-3 6 5 3c5-2 11 0 16 1v1l1 2-1 3c-3-2-6-3-10-3-2 0-6 0-8-2l-6-5 3-4h-5ZM352 174c3 3 7 6 8 11 0 5-6 7-10 4l-1-1h2l1-5 3 1-3-10ZM294 186l4-5c-1 4-2 8 2 11l-7 7 1-13ZM251 199l31-11v16l-30 10 2-4h-4l3-3 1-4-2-2 2-2h-3Z"/></g><path fill="#010102" d="M349 117c1-3 4-2 6-2l2 4h-2l-5-1-1-1Z" opacity=".1"/><g fill="#fec000"><path d="m99 116 2 2 15 15 2 4-11-11-3-3-5-7ZM469 232l3 2 1 1 2 3 2 2 8-8 5 5-9 8-1 4c-1-1-2-3-4-2-2 0-2 3-2 5l-1 2v-9l-9-7 5-6Z"/></g><path fill="#472e70" d="m239 118 6-3 3 4-6 3-3-4Z"/><path fill="#6b3882" d="M359 118c4 1 7-1 10-1-1 2-4 3-6 4l-7-1-1-1h2l2-1Z"/><path fill="#e1942c" d="M41 138c2-7 3-15 8-21a100 100 0 0 0 6 10c-6 1-12 6-13 13l-1-2Z"/><g fill="#070a14"><path d="m113 118 5-1a189 189 0 0 1 13 9l3-3 2-3v32l-4-4 3 2v-23l-5 2c-5-2-8-8-14-8-2 0-2 3-2 5l-2-3 1-5ZM438 134l2-4c7 0 14 4 17 11v2c-2-2-4-5-7-6-2-2-5-4-8-3-2-1-3 1-4 3v-3ZM413 249c-1-3 0-9 4-10 5-1 7 6 5 10 0-2 1-6-2-6-4-1-6 4-7 6ZM482 247l7-7c1 5-5 6-6 10-1 5 1 10-1 15h-11l-1-3h12v-15Z" opacity=".5"/><path d="m435 242 2 2v10c-4 2-5 5-8 8-5 3-10 3-16 2-4 0-7-3-11-5l-1 2a158 158 0 0 0 0-9l7 8c7 3 16 3 22-2 4-4 5-11 5-16ZM287 259c7-2 12-7 14-14 1 4-1 8-4 12-3 3-8 6-13 6l-10 1-4-3c6 1 12 0 17-2ZM70 265h14l1 1c-2 4-7 2-11 3-2 0-3-2-4-4Z" opacity=".5"/></g><g fill="#3b2b62"><path d="M404 116c4 4 0 9-2 12l-2 3v-3l-3 3-6-3c1-2 4-3 7-4l2 2 3-7 1-3ZM508 158l8-4-4 12-1-2-4 3-2-2 3-7Z"/></g><path fill="#944c93" d="M345 120c1-2 3-3 5-2l5 1 1 1 7 1c-6 2-12 0-18-1Z"/><g fill="#242a58"><path d="m242 122 6-3 2 3-3 15-4 19-9 39h1l-10 10-1-2 10-45 1-1 2-9a87 87 0 0 0 2-8l3-18ZM309 156l2 1-2 23-1 6-4 5-2-1 3-30 2 1 2-5ZM401 169l8-2c1 4 2 9 5 12l3 2c-3 1-5 4-7 6l-2-2-6-6a480 480 0 0 0-20 24l-1-1-1-5 3 3c2-2 2-5 0-8 6-8 11-16 18-23ZM454 196l14-1-3 1 3 3-2 1-1 2-4 3h-16c2-2 4-4 4-7l5-2Z"/></g><path fill="#2b1e31" d="m467 119 5 1c3 2 5 6 7 10-2 2-6 1-8 2v-1l-1-2c1-4-3-5-5-8l2-2Z"/><g fill="#593183"><path d="m254 120 7 3-3 1-2 7 6-5 2 3c2-2 4-3 7-3l-2-3 5 1v-2l5-1-5 4 1 2h-2v9a454 454 0 0 0-1 5v7l-5-9-1 6c-4-1-5-5-8-6-1 2-1 4-3 5-1 2-3 2-5 3l1-7-3 2v6l-2 2-3 9v-3l4-19v3l3-10c2 0 5 0 5-3l-4 2v-3l5-1-2-5ZM493 140c4-3 10-2 14-4l-3 6 1 3 5-3 1 9c2-3 3-7 7-7l-2 10-8 4-3 7-1 2c-4 2-6 5-10 5l4-5-8-2-3 1-2-3v5l1 1-2 2-3-3v4c-4-2-4-6-6-9l-8 3 3 3c-2 1-5 0-7-1l2-3c-2 0-5 3-8 2-2 0-2-2-2-4h5c10-1 17-9 20-17l2-5 10-3 1 3c-2 1-4 3-4 6l13-4-1-1-8-2Z"/></g><g fill="#f59f1f"><path d="M453 121h4l3 1h-3a4635 4635 0 0 0 0 5c3 0 7-2 10 0v-1l3 3 1 2c-5-1-11-3-16-1l-5-3 3-6ZM409 189c-1-1-2-2-1-4l2 2 6 6-3-2-12 9-4-4c5-1 9-3 12-7ZM433 202l7 2c-4 1-7 5-12 6l2 2h-3l-7-2h3c2-4 7-5 10-8Z"/></g><path fill="#ffc801" d="M457 122h3c3 0 5 2 7 4v1c-3-2-7 0-10 0-3 1 0-2 0-3v-2Z"/><path fill="#070609" d="M38 140c1-5 0-10 3-15l-1 15 2 3c6-2 11-7 17-6 4 2 6 6 9 10l11 11 10 12 1 3-1 2c-3-7-8-13-14-18l-11-13c-2-2-3-5-6-6-6 1-10 4-15 6-2 2-5-1-5-4Z" opacity=".2"/><path fill="#4c2f81" d="m321 125 3 5-2 3 1 5c3-1 7-2 7-5l1-1 1-3c0 2 0 7 4 5l1 1 4-1 2 3 5-2-2 3c1 1 2 3 4 2l5-4-3-2 5-2-1 5c4 1 6-1 9-4l-1 4 14-1c-4 2-9 2-14 3-2 0-3 2-4 4 4 2 9 5 13 4l4 1 4 3c-5-1-10 1-14-2l-7-4 4 5 15 8 14 7c-4 0-7 1-10 4l-1-6-4 1-2-1c-2 1-4 2-7 1 1 2 3 3 1 4l-7 4 1 3-14-14-4-3c0 6 1 11 3 16l-1 12c-3-8-2-17-5-26l1-1h-3c0 3-1 5-3 7l-3-2-1 5v-6h3v-4l-4 3-1 5c-1 2-3 2-5 3l1-11-4 5-3-2 2-4-5-1 2 6c-3 2-8 3-8 7l-2 15-1-5 2-23a368 368 0 0 1 3-17c2-2 4-2 6-2 0-3-2-5-4-7l5 1v-7Z"/><g fill="#b77330"><path d="m55 127 4 5c-6 1-12 4-17 8 1-7 7-12 13-13ZM38 172l3-4 3 3-1 6-1 3-3-3-1-5Z"/></g><path fill="#86498d" d="m275 127 6 3v22c-4-5 0-13-4-19l-2-6Z"/><path fill="#512f80" d="m400 131 2-3c0 4 2 8 5 11l3-4 3 2c-2 2-4 4-4 7h6l5-4c1 2-1 5-2 7 4 0 8-3 13-1l1 3c3 3 5 7 9 9 3 3 8 5 13 5-2 4-6 4-9 4s-6-3-9-5h-3l-3-2v6c-4-2-9-1-14-1-2-4 0-8 2-11-2 1-4 3-7 2s-5-4-6-7l-2 2-2-2c-1-6-2-12-1-18Z"/><path fill="#2b2852" d="M479 130v15c-2 5-6 10-11 13-4-1-9 1-12-3h2c5-1 9-4 12-9 2-4 3-8 2-12l-1-2c2-1 6 0 8-2Z"/><g fill="#202549"><path d="M195 140c7-2 13-6 19-10l1 9v1a81 81 0 0 1-34 12v1c-3-2-6-4-8-8 7-1 15-2 22-5ZM346 158l4 3 14 14 17 20 2-3c2 3 2 6 0 8l-3-3 1 5-14-15-3-3-12-13-2-2-1 5c-2-5-3-10-3-16ZM308 186c11 2 21 7 32 9 2 2 5 3 5 6h-3l-18-5-7-1-10-3-3-1 4-5Z"/></g><path fill="#3d2f7f" d="M92 133c2 0 4 1 5 3l-9 1 5 4c2 0 4-2 5-3l7 1-3 2 4 2 3-2 10 11 5 8 3 10c0 5 0 10-2 15 6-3 6-10 8-16 1-2-2-6 1-8l2 11v6l-1-3c-2 6-7 10-11 14-4 6-9 11-16 14-6 1-11 2-17 1-9-2-18-5-25-11l-10-13v-1l2-2v2l2-1c4 1 6 4 10 6 5 2 12 3 17 2l7-4c2-2 3-4 2-7v-2c0-6-3-12-7-16l-13-15v-3h2l1 2c1-1 2-2 1-4l6 1-1-4c3 1 5 0 7-1Z"/><g fill="#ee822b"><path d="m116 133 1-2 14 16-3 1c-1-2-2-4-5-5l-5-6-2-4ZM217 138l5-4c2 2 3 5 6 5h6l4 4c-4 4-7 8-12 11l-1-11-5-2-3-3ZM191 183l3-5 1 9-2 6c-2-2-4-4-8-4l-1-8 2 3v-3l5 2ZM159 200l21-3 3 1-11 6c-1 3 1 5 3 7l-15 2 5-2c2-3 0-7-1-11h-5Z"/></g><path fill="#b471a9" d="M274 140v-8l2 22v11l-2-7v-18Z"/><path fill="#9b619b" d="m511 132 2 7c1-2 1-6 4-7v6l-4 6c-3-3-1-8-2-12Z"/><path fill="#120f18" d="M42 140c5-4 11-7 17-8l2 3-12 3c-2 1-4 3-7 2Z" opacity=".6"/><g fill="#050a16"><path d="M518 133v20c-1 9-5 17-10 25-3 4-5 9-9 12-5 4-10 9-16 11l2 2-6-1 2 1c-8 5-15 9-23 11-21 8-45 1-61-14-1-2-4-5-6-3l-15 17c-1 1-3 2-4 1l-8-7-12-13h-4l-2 9c-2 4-7 5-10 7-5 2-10-1-15-2l-26-5-2-6 4-54c-5 2-8 6-12 9-4 2-3 7-4 11v1-13l12-10 3-3h2l-4 47-1 13 4 2 19 4 7 1 10 2 9-4 4-1 2-16 1 1 1 1 7 7 7 8 9 9 9-10 10-12 5 5a74 74 0 0 0 19 13 68 68 0 0 0 16 4c7 1 15 1 22-1 9-2 17-7 25-12a70 70 0 0 0 39-56v-11ZM39 177l3 3 1 5c1 3 2 6 5 7l10 1a71 71 0 0 0 12 10c11 9 25 17 39 17a36 36 0 0 0 28-9l2-3 2-1 2 1 7 4c3 3 7 1 10 1l15-2 22-3c0 1-1 3-3 3l-37 5c-6 1-9-4-14-6-4 0-5 4-8 6-4 3-9 6-15 7-13 3-27-2-38-9l-23-16c-3-4-9-1-12-4-3-2-3-5-4-7l-4-10ZM304 236l1-13v12h11v31h13v-31h9v3l-1 1-7-1v27c-2 5-7 3-11 3l-4-2v-27c-4-1-9 1-11-3ZM222 230l6 1h-6v9l6 1 1 20h11v-21l6 1v-10l2 4v8l-7 1v17l-2 3c-4 0-8 0-11-3v-17c-4-1-7-4-6-8v-6ZM367 230h13v28l-1 6h-9l-2-3h11v-30h-11v24l-1 1-1-1 1-7v-18ZM207 259l1-22v24h12c-1 3-4 3-7 3s-6-2-6-5ZM349 239l4 4-3 3-1-7ZM184 249l13 10 6 3-2 2c-6-3-10-9-16-10-1 3 1 8-3 10-3 1-6 0-8-3h10v-12ZM268 253c1 3 2 9-2 11h-13c-2 0-3-2-4-3h19v-8ZM130 261h12l-1 3c-4 0-9 0-11-3Z" opacity=".5"/></g><g fill="#020407"><path d="m437 136 1-2v3c1-2 2-4 4-3 3-1 6 1 8 3 3 1 5 4 7 6 2 3 2 7 1 11-1-7-5-15-12-18-2 0-4-1-5 1l-2 8-2-6v-3ZM106 230h14l1 1h-14l-1 30h21v-9h-2l-6-1 6-1v-9h-7c2-2 6-1 9-2v-6a1070 1070 0 0 1 3-1v29c2 3 7 3 11 3l1-3v-28c3 3 1 8 2 13-1 4 0 8 3 11 6 6 16 7 24 4 2-3-1-8 2-10v10h1c2 3 5 4 8 3 4-2 2-7 3-10 6 1 10 7 16 10l2-2c2-4 1-9 2-13v-18h-10v12l-2-1 1-12h12l2 7-1 22c0 3 3 5 6 5s6 0 7-3v-21l2-4c-1 4 2 7 6 8v17c3 3 7 3 11 3l2-3v-17l7-1v18h1c1 1 2 3 4 3h13c4-2 3-8 2-11v-1c-2-3-1-7-1-10 2-1 2-4 1-5v-3h2v27l4 3 10-1c-3 1-6 4-9 3h-23c-3 0-6-2-5-5l-1-14c0-3-3-1-3 1v16c-1 3-5 3-8 3s-7 0-8-4l-1-16c0-2-3-2-3 0l-1 16c0 2-1 3-3 3-4 1-8 1-12-1-3 1-5 3-7 1-5-2-8-5-12-8-3 2 0 7-4 8h-12c-9 2-19 2-27-4-2 6-9 5-14 4-2-1-5 1-7 1l-18-1c-4 1-7 5-12 6-4-2-4-7-7-10-1 2 0 6-2 8H72c-3-1-3-4-3-6l1 1c1 2 2 4 4 4 4-1 9 1 11-3v-8l3-1 5 10c2 3 5 0 8-1 2-1 3-3 3-5l1-2 1-1v-28m3 32c1 4 6 2 9 2s7 2 8-2h-17Z" opacity=".2"/></g><path fill="#080910" d="m49 138 12-3 7 8 12 14c4 4 8 8 9 13l-10-12-11-11c-3-4-5-8-9-10-6-1-11 4-17 6l-2-3h2c3 1 5-1 7-2Z" opacity=".4"/><g fill="#422f81"><path d="m270 140 3-4 1 4v18l1 21 5 4 1 1v3l-5-4-41 12h-1l9-39v3l3-9 2-2v-6l3-2-1 7c2-1 4-1 5-3 2-1 2-3 3-5 3 1 4 5 8 6l1-6 5 9v-7l-2-1ZM369 164c3 1 5 0 7-1l2 1 4-1 1 6c3-3 6-4 10-4l8 4c-7 7-12 15-18 23l-2 3-17-20-1-3 7-4c2-1 0-2-1-4Z"/></g><path fill="#8a5694" d="M430 137c4 8 10 16 19 20l6 3c5 2 10 0 13-2 5-3 9-8 11-13l1 1c-3 8-10 16-20 17-8-1-18-4-24-11-1-1-2-4-4-3l-1-3-1-9Z"/><g fill="#f7aa17"><path d="m215 139 2-1 3 3 5 2 1 11-11 7c-3-4-6-7-10-9l-4-5 4-2-1 2 11 7c3 1 5-1 6-3-1-2-2-5-5-7l-1-4v-1ZM351 171h1l12 13h-1l-3 12h-3l-7-7c4 3 10 1 10-4-1-5-5-8-8-11l-1-3ZM301 195l6-3 10 3h-1c4 2 7 6 7 11l-7-1-2-1 2-1c-4-5-10-6-15-8ZM121 204l7-8 5 7c1 3 4 4 6 5l-2 3-4-2-5-10-7 5ZM242 202l9-3h3l-2 2 2 2-1 4-3 3h4l-2 4-3 1-6-3 3-5-3-2c-1-1 1-2 2-3h-3ZM156 200h8c1 4 3 8 1 11l-5 2c-3 0-7 2-10-1l8 1-3-2 1-4 4 1-1-5-4 1 2-3-1-1ZM110 210l6-2c1 2 4 3 6 4l4 6-4 1h-3v-2c-3-2-7-4-9-7Z"/></g><g fill="#fec001"><path d="m205 145 10-5 1 4c3 2 4 5 5 7-1 2-3 4-6 3l-11-7 1-2ZM212 228c2 1 3 3 3 6l3-1v2h-6l-2-1 2-6ZM196 233h7l1 2-1 12-1 3-2-3h-11l2 3h-1l-6-4-2-1v6l-3-2-3 2v-6l2-10 6 2 11 8c0 2 3 1 1 0v-12ZM210 239h8v6l-1 1c-2-1-3-2-5-1l-2 5v-11Z"/></g><g fill="#3e2f81"><path d="m157 143 6 3h-5v9c3-1 7-2 8-6l-2-3 3 2c1 2 1 5 3 6l2-3 2 11 1 6 2 17c0 3 1 4 3 6-6-1-13 1-19 1l-19 3v-15l1-30 2-3 2 1 2-2c1 3 4 3 7 3l1-6ZM318 157l5 1-2 4 3 2 4-5-1 11c2-1 4-1 5-3l1-5 4-3v4h-3v6l1-5 3 2c2-2 3-4 3-7h3l-1 1-1 6v2l-2 27c-11-2-21-7-32-9l1-6 1 5 2-15c0-4 5-5 8-7l-2-6Z"/></g><path fill="#040917" d="m238 143-1 5-7 5c-9 10-23 14-36 17v5l-1-6v-2l6-1a73 73 0 0 0 27-12c5-3 8-7 12-11Z" opacity=".5"/><path fill="#ba89b7" d="m364 150-4-5 7 4c4 3 9 1 14 2l12 6 10 5 5 3c-2 1-4 2-6 1l-9-5-15-5 1 2-15-8Z"/><path fill="#030509" d="m230 153 7-5-2 9-1 1v-3l-10 7-17 7-11 3v5l4 29-2 6-42 7c-6 1-9-5-14-6l-8 6c-7 5-17 7-26 7-11-2-21-6-30-12l-16-12-5-4c-4-1-8 0-11-3-4-2-4-6-6-9-1-4-3-6-3-10 1-4-3-8-1-13l3 5-1 4 1 5 4 10c1 2 1 5 4 7 3 3 9 0 12 4l23 16c11 7 25 12 38 9 6-1 11-4 15-7 3-2 4-6 8-6 5 2 8 7 14 6l37-5c2 0 3-2 3-3v-4l-1-6-1-11-1-9v-8c13-3 27-7 36-17Z" opacity=".2"/><path fill="#423082" d="m401 149 2 2 2-2c1 3 3 6 6 7s5-1 7-2c-2 3-4 7-2 11 5 0 10-1 14 1v-6l3 2h3c3 2 6 5 9 5s7 0 9-4h1c0 2 0 4 2 4 3 1 6-2 8-2l-2 3c2 1 5 2 7 1l-3-3 8-3c2 3 2 7 6 9v-4l3 3 2-2-1-1v-5l2 3 3-1 8 2-4 5c4 0 6-3 10-5-8 13-21 23-36 28l-14 1c-6-1-12-1-18-4a63 63 0 0 1-18-11l-4-2c-3-3-4-8-5-12h2l-3-2-5-3h1l-3-13Z"/><path fill="#f2ce3f" d="M36 149c4 2 6 6 9 8-2-1-4-1-5 1l-1-1 1 2-1-1-2-4-1-5Z"/><path fill="#965d92" d="M172 150c3 3 6 5 7 9l2 3 1 1 1 9c-2-6-5-11-9-17v7l-2-11v-1Z"/><path fill="#714387" d="M130 160c0-3-2-6-1-10l5 11c-3 2 0 6-1 8-2 6-2 13-8 16 2-5 2-10 2-15 2-3 2-7 3-10Z"/><path fill="#8a2f29" d="M181 152a215 215 0 0 1 1 0v1l11 14v2l-1 1c-5-2-8-7-10-12v5l-1-1v-10Z"/><path fill="#fdc719" d="m37 154 2 4 1 1 2 2 4-2h-1l-2 1-3-2c1-2 3-2 5-1l3 2 6 3 1 3-3 1h-1c-2 1-4 3-4 6l4-1-8 6 1-6c1-1 3-2 3-4l-4-2-2 3-3 4 1-4 2-5-4-2v-7m7 7c1 2 4 3 6 4l-2-4h-4Z"/><path fill="#ffe468" d="M44 161h4l2 4c-2-1-5-2-6-4Z"/><path fill="#a566a1" d="M343 160c3 9 2 18 5 26v1l-2 16-4-2h3c0-3-3-4-5-6l2-27c1 9-3 18 0 26 1-9 2-18 0-28l1-6Z"/><path fill="#e1922b" d="m41 168 2-3 4 2c0 2-2 3-3 4l-3-3Z"/><path fill="#fcbe16" d="m58 165 3 1-7 3 4-4Z"/><path fill="#e0952b" d="m61 166 1 1-2 2c-2 0-4 1-5 3h-1l-1-1c-4 4-9 8-10 14l-1-5 1-3 8-6 3-2 7-3Z"/><path fill="#f8b620" d="m62 167 2 1 3 2c-6-1-12 4-15 9v-4l2-3h1l1 1 4-4 2-2Z"/><path fill="#d29dc3" d="M342 166c2 10 1 19 0 28-3-8 1-17 0-26v-2Z"/><path fill="#ffd63f" d="M55 172c1-2 3-3 5-3l-4 4-1-1Z"/><g fill="#df6231"><path d="m192 170 1-1 1 6v3l-3 5-5-2v3l-2-3-1-7 5 1c1 1 2 2 3 1l1-6ZM187 196l2 2 8 9a302 302 0 0 1 0 1l-22 3c-2-2-4-4-3-7l11-6-3-1 7-1ZM461 205c6 0 12-3 18-5-8 5-16 10-25 12-7 2-15 2-22 1 4-1 7-4 10-6h13l-7-2h13ZM272 231l1 1v26h6l-7 1v-28Z"/></g><path fill="#2b2b62" d="M90 173h6v2c-2 3-5 3-9 2l2-2 1-2Z"/><path fill="#714387" d="m279 175 1-1v9l-5-4 2-4h2Z"/><path fill="#995623" d="M47 189c2-5 1-11 5-14v7l4-3v1c0 4-1 9 2 13l-10-1 1-1-2-2Z"/><path fill="#76468f" d="M59 175h11l4 3c-4 2-8-1-12-1l-3-1v-1Z"/><path fill="#60377d" d="M96 175c1 3 0 5-2 7l-12-1-1-2 6-2c4 1 7 1 9-2Z"/><g fill="#222852"><path d="M124 189c4-4 9-8 11-14l1 3-1 3-4 10-1 2-6-4ZM140 182l1-7 1 5v15l-4 6 5 1-6 1-1-1h-1c-1-8 3-15 3-22l2 2Z"/></g><path fill="#995397" d="M62 177c4 0 8 3 12 1l7 1 1 2 12 1-7 4c-8-1-17-3-25-9Z"/><path fill="#78498b" d="m414 179 4 2 10 7v1l-7-4a75 75 0 0 1-7-6Z"/><path fill="#482e75" d="M410 187c2-2 4-5 7-6l4 4c-3 2-4 5-5 8l-6-6Z"/><g fill="#ffc800"><path d="M363 184h1l3 3c-2 6-2 12 0 18l-3-1-7-8h3l3-12ZM121 204l7-5 5 10 4 2-11 7-4-6c-2-1-5-2-6-4l5-4ZM143 202l13-2 1 1-2 3 4-1 1 5-4-1-1 4 3 2-8-1-7-4-6-5 6-1ZM224 208l18-6h3c-1 1-3 2-2 3l3 2-3 5 6 3-19 6-4-9-2-4ZM147 244c3-8 11-10 18-13l2 7c-6 1-11 4-13 9-2-2-5-2-7-3ZM370 233h8v15c-2-1-5-2-7-1v11h-1v-25Z"/></g><path fill="#603f7d" d="m421 185 7 4v-1l8 4c-2 2-4 1-6 0l-2 6-7-2-2-1-3-2c1-3 2-6 5-8Z"/><path fill="#060914" d="m282 188 1 16c0 3-4 5-6 6-12 3-23 8-35 12-5 1-10 3-15 0 0-2 0-4-2-6l-1-5 2 1 4 9 19-6 3-1 30-10v-16Z" opacity=".5"/><path fill="#fdcc06" d="m300 192 2-2a109 109 0 0 0 5 2l-6 3-4 6-4-2 7-7Z"/><path fill="#ffcf02" d="m401 200 12-9 3 2 3 2-4-1-5 5 4 5-5 1-8-5Z"/><path fill="#3e2e70" d="M430 192c2 1 4 2 6 0 6 3 12 3 18 4l-5 2c0 3-2 5-4 7a151 151 0 0 1-12-3l-7-3-5-3 7 2 2-6Z"/><g fill="#e7722f"><path d="M131 191v7l4 4h1l1 1a249 249 0 0 1 4 4l-2 1c-2-1-5-2-6-5l-5-7 2-3 1-2ZM70 203c7 4 15 7 23 8l11 1c3 2 8 3 11 6l-6 2c-14 0-28-8-39-17Z"/></g><path fill="#2c274e" d="M66 193c7 6 16 9 25 11l-3 1c3 1 5 3 5 6-8-1-16-4-23-8l-5-3 1-7Z"/><path fill="#ffdb19" d="m410 199 5-5a135 135 0 0 1 6 2l5 3c-2 3-6 5-10 6v4l-7-4 5-1-4-5Z"/><path fill="#fffbfe" d="m479 202 6 1c1-1 2 0 2 2h1l1-3 1 1v5l-2-2v2h-1v-3l-2 3c0-2 0-4-2-5l-1 5h-1v-5l-2-1Z"/><path fill="#ee822e" d="m440 204 5 1h3l7 2h-13c-3 2-6 5-10 6l-5-1h3l-2-2c5-1 8-5 12-6Z"/><path fill="#ef8b27" d="M212 220c2 1 3 5 5 3l1 3c2 1 2 3 1 5l-1 2-3 1c0-3-1-5-3-6l-2 6c-2-1 0-5 1-7l2-1-3-4 3 2-1-4Z"/><path fill="#201018" d="m70 223 18 1H71v35l-1 6v-42Z" opacity=".7"/><path fill="#45151a" d="M305 223h34l1 7h10l-10 1v27l-2 2v-25h-3l3-2v-9h-32v10l10-1h1v30l-1 1v-29h-11v-12Z" opacity=".8"/><path fill="#8a4c33" d="M71 224h17c5 0 12 2 14 7l-2 7v-8c-1-2-4-3-6-4l-22-1v7h-1v-8Z" opacity=".9"/><path fill="#9f5e43" d="M306 224h32v1h-31v8h9l-10 1v-10Z"/><path fill="#ffe343" d="M307 225h31v1h-31v-1Z"/><path fill="#44181f" d="m468 229 1 2-4 5-2 1 5-8Z" opacity=".9"/><path fill="#52241c" d="m476 237 8-8 7 9h-1l-1 2-7 7-1 1v-3l9-8-5-5-1-1-6 7h-3l-2-3 3 2Z" opacity=".8"/><path fill="#8f4a26" d="M120 230h6c0 3-1 6 1 9l-11-1 9-1-1-5v-1h-3l-1-1Z"/><path fill="#380f1f" d="M130 230h12v30l-1-1v-28h-10v28h-1v-29Z" opacity=".9"/><g fill="#602121"><path d="M153 235c4-3 8-5 13-5l2 6 2-1v2h-2l1 3-2 1c-4 0-8 1-10 5-2 1-1 3-1 5l-2-4c2-5 7-8 13-9l-2-7c-5 1-10 4-15 7 0-2 2-3 3-3Z"/><path d="m144 246 1-1 1 7 2 3c6 5 14 5 22 3v-3l-1-7 1-2h1v15c-8 3-18 2-24-4-3-3-4-7-3-11Z"/></g><path fill="#48181b" d="m175 231 2-1 2 2h-1l-1-1h-1c0 9-2 18-1 27v1h8v-14l1 1 6 4 3 3c3 3 7 4 9 7l1 2-6-3-13-10v12h-11v-10l2-20Z" opacity=".9"/><path fill="#4d171d" d="m248 231 17-1-15 1v28h17v-7h1v9h-20v-30Z" opacity=".9"/><path fill="#895c30" d="M265 230c3-1 2 2 3 4v5h-8l-1 3 7-1v1h-1l-7 1v-6h8v-6l-16 1v-1l15-1Z" opacity=".9"/><path fill="#0d0c15" d="M383 230h13v21h-1v-20h-11v30h2l14 1-4 2c-4 0-10 1-13-3v-31Z" opacity=".5"/><path fill="#64382a" d="M412 232c3-3 8-2 12-2 3 1 8 3 9 7l-6-5c-5-2-10-1-15 0Z" opacity=".8"/><path fill="#542123" d="M437 244c3-9 13-12 21-14l3 8h1l1-1 1 1 9 7-1 14-1 2h11v1h-12v-8l1-7-9-7-2 1c-4 0-7 1-10 3-2 2-2 4-2 6l-1-1 1-6 12-5-2-6v-1c-6 1-12 4-16 9-3 3-5 7-3 12l2 3c6 5 15 5 22 3v-11 14c-7 1-15 1-22-2l-4-5v-10Z"/><path fill="#945121" d="m82 231 4 1h-3l-1 25v-26Z"/><g fill="#602123"><path d="m102 231 1 3-1 5-5 6 1 2 1 1 6 11-1 2-11 6-5-10-4-8v13h-1l-1-5 1-25h6l1 5-1 1-4-5-1 9 2-1-2 2 3 6 2 4 5 11 9-6-2-4a181 181 0 0 1-6-11 164 164 0 0 0 5-5l2-7ZM222 231h2v7h6v21h9v-21h6v-7h1v10l-6-1v21h-11l-1-20-6-1v-9ZM265 242h1v9h-6l-1 1-1 1v-5h7v-6Z"/></g><path fill="#6a2722" d="M107 231h1v28h17v-7h2v9h-21l1-30Z"/><path fill="#b1735e" d="M108 231h12c-4 2-8 1-12 1v-1Z"/><path fill="#f9d946" d="M120 231h4v1l-16 1v-1c4 0 8 1 12-1Z"/><path fill="#f9c964" d="M131 231h10l-1 1h-8l-1-1Z"/><path fill="#bd6e30" d="M176 231h1l-1 14a131 131 0 0 0-1 13c-1-9 1-18 1-27Z"/><path fill="#773b29" d="M195 231h1v14h-1l-11-8-6-5h1l14 10 2 1v-12Z" opacity=".9"/><path fill="#b37864" d="M196 231h8v1h-8v-1Z"/><path fill="#68281c" d="M204 231h1v5c-1 5 0 11-2 17v-6a203 203 0 0 0 1-15v-1Z"/><path fill="#80621f" d="m218 233 1-2v4h-7 6v-2Z" opacity=".7"/><path fill="#7a3b40" d="M224 231h21v1h-21v-1Z" opacity=".9"/><g fill="#f1770b"><path d="M250 259v-28 1a442 442 0 0 1 1 20l7 1c3 2 6 1 9 1v5h-17ZM394 237l1 1v15h5v6h-14v-1l1-6h7v-15ZM473 245v9l1-2c2 0 4 0 6 2v-5l1-4v14h-9l1-14ZM340 247v1l1 5 7-1v6h-8v-11ZM273 251l3-2c2 0 4 2 5 3l2 1 6 2a48 48 0 0 1-10 3h-6v-7ZM161 253l6-1 3 3v3c-8 2-16 2-22-3 4-2 8-1 11-1h2v-1ZM212 252h6v6h-8v-2l2-4ZM319 252h9v8h-10v-6l1-2ZM371 252c2 0 5 0 7 2v4h-7v-6ZM455 253l5-1 3 3v3c-7 2-16 2-22-3 4-2 7-1 11-1l3-1ZM416 254l6-1 7 2c-5 4-12 5-19 3l-4-3 10-1ZM73 255c3-2 6-1 9 0v5h-9v-5ZM356 255c3-2 6-1 9 0l-7 5-2-5Z"/></g><path fill="#3b0917" d="M368 231h1v28l-1 2-1-1v-4l1-1v-24Z" opacity=".9"/><path fill="#9c5327" d="M369 231h10v1h-9v26h8l-9 1v-28Z"/><path fill="#3f0616" d="M384 231h1v28h-1v-28Z"/><path fill="#a05e2f" d="M385 231h10v7l-1-1v-5h-8v27h-1v-28Z"/><path fill="#712e20" d="M71 232h1a589 589 0 0 0 0 28v3l11-1h1v3H70l1-6v-27Z"/><path fill="#fdd415" d="m176 245 1-14 1 1 6 5-6-2-2 10Z"/><path fill="#f1d039" d="M196 232h8v3l-1-2h-7v-1Z"/><path fill="#f9c560" d="M224 232h21v1h-21v-1Z"/><path fill="#dbae4d" d="M340 231h13c3 1 6 1 7 3l-20-1v-2Z"/><g fill="#ffea49"><path d="M370 232h8v1h-8v-1ZM386 232h8v1h-8v-1Z"/></g><path fill="#783320" d="M378 232h1v29h-11l1-2 9-1v-26Z"/><path fill="#fce54b" d="M411 234c1-2 4-3 6-2-1 2-4 2-6 2Z"/><path fill="#56231c" d="M292 233c6 0 10 7 9 12-2 7-7 12-14 14l-2-2 4-2c3-1 6-3 8-6s3-6 2-9-4-5-7-7Z" opacity=".9"/><path fill="#6d2a21" d="M328 233h10l-3 2h-6v31h-13v-2l1-1h11a198 198 0 0 1 0-11v-19Z"/><path fill="#4a1a1d" d="M400 246c0-6 4-11 9-14v2c-5 3-8 10-6 16 0 2 2 4 3 5l4 3-2 2-7-8v7h-1v-7h-5v-1h5v-5Z" opacity=".9"/><path fill="#05080e" d="m84 242 1-9 4 5-3 3-2 1Z" opacity=".3"/><path fill="#030509" d="M103 234c3 0 2 4 1 6-1 3-2 7-5 8l-1-1c3-2 4-5 4-8l1-5Z" opacity=".2"/><g fill="#04060a"><path d="m380 235 2-1v26l1 1c3 4 9 3 13 3l4-2-14-1 14 1 1-1 1-2c4 2 7 5 11 5 6 1 11 1 16-2 3-3 4-6 8-8l4 5c3 5 10 5 15 5 3 0 6 0 7-2l1-16h-9l-2-2h3c3 0 6-1 9 1 2 2 5 3 5 6v11l1 3h11c2-5 0-10 1-15 1-4 7-5 6-10l1-2c2 2 2 4 1 6-2 3-8 5-7 10 0 4 2 10-2 12-4 1-9 1-13-1v-13c0-2-2-2-3-2-1 5 2 11-3 15-9 3-22 2-27-7-3 1-5 4-7 6-8 4-18 3-25-2-2 2-3 4-6 4-6 0-12 1-17-2-3 3-7 2-10 2l-6-3-6 3c-3 0-4-5-7-5-1 6-8 5-12 4-2 0-3-2-3-4h1c2 4 7 2 11 3l1-7 4 1 3 5c4 2 7-2 10-3l1 1 2 3h9l1-6v-23ZM169 240h1v3l-3 2 4 1h-6l-3-2 6-1-1-2 2-1Z" opacity=".2"/></g><path fill="#020305" d="m396 235 2-1v14l2-2v5h-4v-16Z" opacity=".1"/><path fill="#1d0b17" d="M203 253c2-6 1-12 2-17v13c-1 4 0 9-2 13v-9Z" opacity=".7"/><path fill="#7b3c21" d="m362 235 1 1v1c1 4-1 8-3 11l-1 1-1-3c3-2 6-7 4-11Z"/><g fill="#fcb201"><path d="M90 237c0 4 5 3 7 4l-2 2 3 6c-3-2-6-2-10-2l-1 2-3-6 2-2a59 59 0 0 0 4-4ZM347 242a444 444 0 0 1 0 6h-7v-5l3-3 4 2ZM280 238h1v14c-1-1-3-3-5-3l-3 2v-6l2-5c2 0 4 1 5 3v-5ZM327 242l1-4v8l-1 3-2-2h-6v5l-1 2v-8l2-6h5l2 2ZM439 251c-2-5 1-9 5-12l5 1-1 3-1 6c-3 0-6-1-8 2ZM290 244l3-4h6c1 3 0 6-2 9-2-2-4-2-7-3v-2ZM388 240l6 2v7c-2-2-4-2-6-2l-2 4v-6l2-5ZM427 240h4l2 2v-2 9l-2-2c-2 0-5 0-6 2v-6l2-3Z"/></g><path fill="#5c2824" d="M208 237h12v24h-12v-2h1l9-1v-20h-10v-1Z" opacity=".9"/><path fill="#0e0b15" d="M268 237c1 1 1 4-1 5 0 3-1 7 1 10h-9l1-1h6v-10l-7 1 1-3h8v-2Z" opacity=".5"/><path fill="#6a2721" d="m348 236 6 3-1 4-4-4 1 7v2l2 2-2 1h-1v10h-12l1-1 2-2h8v-6a156 156 0 0 1 0-16Z"/><path fill="#100b12" d="M363 237c2 4 1 8-1 12l3 4-5-5c2-3 4-7 3-11Z" opacity=".5"/><path fill="#511f19" d="m412 242 5-5c3-1 7 1 7 4 0 4 1 8-2 11-1 2-4 2-7 1l-3-5v-6m1 7c1 2 3 4 5 4s3-2 4-4c2-4 0-11-5-10-4 1-5 7-4 10Z" opacity=".9"/><path fill="#57251d" d="m116 238 11 1c-3 1-7 0-9 2h7v9h-7l-1-2h7l-1-4v-2l-7 1v-5Z" opacity=".9"/><path fill="#452023" d="m146 240 3-2-4 7c-1-2 1-3 1-5Z" opacity=".8"/><path fill="#3e0616" d="M208 238h1v21h-1v-21Z"/><path fill="#b26224" d="M209 238h1v20h8l-9 1v-21Z"/><path fill="#ffd958" d="M210 238h8v1h-8v-1Z"/><g fill="#f37a0b"><path d="M230 238h1a121 121 0 0 1 0 13c2-2 5-2 7 0l1-4v12h-9v-21ZM182 245l2 1-1-1v14h-8v-1l1-7 3-2 3 2v-6ZM108 247l1 3 5-1 2 3 1 1v1h8v5h-17v-12ZM202 250l1-3v15l-1-2c-2-3-6-4-9-7l7-1 2 3v-5Z"/></g><path fill="#150f19" d="M281 238c4 0 9 0 9 5 0 3-2 6-5 8 1-2 3-4 2-7-4-2-7 5-2 7l-4 1v-14Z" opacity=".6"/><path fill="#6e2923" d="m433 238 2 4c0 5-1 12-5 16-6 5-15 5-22 2l2-2c7 2 14 1 19-3 2-1 3-3 4-6v-11Z"/><path fill="#0a0a13" d="m97 245 5-6c0 3-1 6-4 8l-1-2Z" opacity=".5"/><path fill="#030408" d="M331 239h6c1 3-3 1-5 1v16c0 4 1 9-2 13-3 2-8 1-12 1-2 0-3-2-4-4h1l4 2c4 0 9 2 11-3v-25l1-1Z" opacity=".2"/><g fill="#fba801"><path d="M233 240h3l3 5v2l-1 4c-2-2-5-2-7 0a1273 1273 0 0 0 2-11ZM250 244c1-2 2-4 5-4l1 2 2-2v4h7v4h-7v5l-7-1-1-8ZM72 246c1-5 7-4 10-1v6l-2-2-7 1-1-4ZM109 244c2-1 5-2 7-1l7 1 1 4h-8v4l-2-3-5 1-1-3v-3h1ZM134 243c2 0 4 0 6 2v5l-7-1v-2l1-4ZM354 243h3a101 101 0 0 0 2 6h-4l-2 2-1-1-2-2 4-5Z"/></g><path fill="#fdba01" d="M405 240h5l2 2v6l-3-3h-4l-2 5c-1-4 0-7 2-10Z"/><path fill="#07080f" d="m460 241 2-1 9 7-1 7v-3c0-3-3-4-5-6-3-2-6-1-9-1l4-3Z" opacity=".4"/><path fill="#0a0a14" d="M157 246c2-4 6-5 10-5l1 2-6 1 3 2h-4v6h-4c2-1 3-4 1-5l-1 5-1-1c0-2-1-4 1-5Z" opacity=".5"/><path fill="#0a0b16" d="M450 244c3-2 6-3 10-3l-4 3h-3l2 2h-3l-4 4c0-2 0-4 2-6Z" opacity=".5"/><g fill="#f99602"><path d="M146 252c-1-3-1-6 1-8 2 1 5 1 7 3l2 4 3 3c-3 0-7-1-11 1l-2-3ZM327 249l1-3v6h-9v-5h6l2 2ZM347 248l1-2v6l-7 1-1-5h7ZM189 247h11l2 3v5l-2-3-7 1-3-3h1l-2-3ZM371 247c2-1 5 0 7 1v6c-2-2-5-2-7-2v-5ZM388 247c2 0 4 0 6 2v3h-7l-1 6v-7l2-4ZM474 252c0-2 0-5 2-5 2-1 3 1 4 2v5c-2-2-4-2-6-2ZM162 248h7l1 7-3-3-6 1 1-5ZM455 248l8-1v8l-3-3-5 1v-5Z"/></g><path fill="#f1ab47" d="M195 245h1c2 1-1 2-1 0Z"/><path fill="#f99e01" d="m210 250 2-5c2-1 3 0 5 1l1-1v7h-6l-2 4v-6Z"/><path fill="#010204" d="M285 251c-5-2-2-9 2-7 1 3-1 5-2 7Z" opacity=".1"/><g fill="#f68e02"><path d="M405 245h4a295 295 0 0 0 6 8l1 1-10 1c-1-1-3-3-3-5l2-5ZM290 246c3 1 5 1 7 3-2 3-5 5-8 6l-6-2c3-2 6-4 7-7ZM88 247c4 0 7 0 10 2l3 5c-4 0-8 1-12-1l-2-4 1-2ZM425 249c1-2 4-2 6-2l2 2c-1 3-2 5-4 6l-7-2 3-4ZM359 249l1-1 5 5 1 1-1 1c-3-1-6-2-9 0l-3-4 2-2h4ZM73 250l7-1 2 2v4c-3-1-6-2-9 0v-5ZM439 251c2-3 5-2 8-2l1 1 4 4c-4 0-7-1-11 1l-2-3v-1Z"/></g><path fill="#430a18" d="M161 246v6-6Z"/><path fill="#04060b" d="m448 250 4-4v7l-4-3Z" opacity=".3"/><path fill="#3b0f1a" d="M452 246h2v7h-2v-7Z" opacity=".9"/><path fill="#0f0c16" d="M463 246h1l-1 16c-1 2-4 2-7 2-5 0-12 0-15-5 7 3 15 3 22 2a145 145 0 0 0 0-15Z" opacity=".6"/><path fill="#fe9026" d="M72 247v-1l1 4a71 71 0 0 1 0 10h-1v-13Z"/><path fill="#030407" d="M158 247c2 1 1 4-1 5l1-5Z" opacity=".2"/><path fill="#ffd147" d="M162 248c2-2 5-2 7 0h-7Z"/><path fill="#712d26" d="m481 248 1-1v14h-11l1-2h9v-11Z"/><path fill="#06080e" d="m84 249 4 8-3 1v8l-1-1v-16Z" opacity=".3"/><path fill="#f38406" d="m133 249 7 1v8h-7v-9Z"/><path fill="#50181a" d="m350 251 2-1 1 1 3 4 2 5 1 2-2 1-3-5-4-7Z"/><path fill="#060a16" d="M349 251h1l4 7-4-1-1 7c-4-1-9 1-11-3h11v-10Z" opacity=".5"/><path fill="#936062" d="m258 253 1-1h8v1h-9Z"/><path fill="#e1a66f" d="M395 252h5v1h-5v-1Z"/><path fill="#ea6714" d="M89 253c4 2 8 1 12 1l2 4-9 6-5-11Z"/><path fill="#fbbb48" d="M117 253h8v1h-8v-1Z"/><path fill="#fab842" d="M258 253h9v1c-3 0-6 1-9-1Z"/><path fill="#702a24" d="M366 254v1l1 1-8 6-1-2 7-5 1-1Z"/><path fill="#642521" d="m279 258 6-1 2 2c-5 2-11 3-17 2v-1l2-1 7-1Z"/><path fill="#0b0b13" d="m359 262 8-6v4c-3 1-6 5-10 3l2-1Z" opacity=".5"/><path fill="#652422" d="M130 259h11l1 1v1h-12v-2Z"/><path fill="#672522" d="M384 259h17v2l-1 1-14-1h-2v-2Z"/><path fill="#080a15" d="m93 267 11-6c0 2-1 4-3 5-3 1-6 4-8 1Z" opacity=".5"/></svg>