<svg xmlns="http://www.w3.org/2000/svg" width="1796" height="551pt" viewBox="0 0 1347 551"><g fill="#e9c94d"><path d="M801 0h11c29 5 57 13 86 19l69 9c11 2 23 1 34 2h17c6 0 11-2 17-1h11c2 1-1 3-2 4-9 8-20 14-31 17-13 5-27 4-40 5l-3 2c-4 1-8-1-12-1l-62-8c-8-2-17-2-25-5-8-1-16-4-24-4-1 0-3-2-1-2l7 1c13-2 25 3 37 4 5 1 9 1 14-1l-20-4-17-5c2-2 4-1 6 0 21 3 43 5 64 4l14-1c-34-3-67-5-100-14-9-2-18-5-27-5l-9-2c-8-1-16 0-23 2l-20 7c-7 3-14 4-22 6l-19 4-30 5h-9l-14-1 7-4-3-1h-11c-8 3-16 5-23 10l4 1c7-1 13-6 21-5l-9 4c-8 2-15 6-23 10-9 6-18 13-25 22-4 7-10 13-15 19l-10 2c-3-1-3-6-6-7l4-8 6 7 5 1 8-10 9-11c4-8 11-13 15-21 1-3 3-5 2-8-4 2-6 7-9 11l3-9c1-3-1-6-2-9l-9 16c-4 5-5 12-9 17l-6 9-2-1c4-5 9-11 9-18s2-15-2-21c-4-5-9-8-15-10-11-3-23-1-34-2-6 0-11 3-17 2l-63 8-36 6 16-5a491 491 0 0 1 73-18l36-8c6 0 12-2 18-1h19c11 0 22 2 32 6 4 3 6 9 11 10 4 0 8-3 11-4l15-3c-5 1-9 4-13 7v3c11-1 20-6 31-7l-2 2c9 2 18-1 27-2l21-1c5-2 11-1 16-2l18-6c5-2 12-2 17-5l13-3m-20 8-6 3-22 5-23 4-21 6c-2 1-5 0-7 2l6-1c5-1 11 2 16 0l12-1 15-4-1 2 10-1c4 0 8-3 12-4 11-2 21-7 32-10V5c-2-1-4-2-6-1-6 2-11 4-17 4M565 18h25l11 4c4 1 7 4 9 7l3 1c0-6-5-10-9-13-9-4-18-2-27-2-4-1-8 3-12 3m60 3 4 8c3 1 6 0 7-3 1-1 0-4-1-4-3 1-7 1-10-1m389 15c-7 1-15 0-22 2l-28 1c-12 2-24-1-35 2l1 1 14 2 22 3 19 1 1 1h10c7 0 13-3 19-4 8-3 18-6 24-13l-3-2c-6 4-14 4-22 6Z"/><path d="m809 19 13 1c7 2 15 2 23 5 6 2 12 4 19 4-6 5-15 5-22 4l-2-1c5 0 10 2 15-1-2-2-5-1-8-2-6-1-12-2-18-5-4-1-7-3-11-2l5 4c-5-1-9-4-14-7ZM791 24c7-1 14 0 20 3l3 1 12 3 9 3-9 3c-10 2-21 3-30 0 6 0 12 2 18 1 2 1 3-1 3-2l-21-3-11-1 4 3-13-5 15-6ZM578 30l2-1c-1 5-6 8-11 10 2-4 5-7 9-9ZM533 38c4-2 5-8 10-8l2 1-1 4c-5 2-8 8-14 9-2-3 2-4 3-6ZM755 41l18-9 5 2 17 8-2 3-13 4c-4 0-9 0-13-2l-12-5v-1m16 3v1c6 0 12 3 18 0v-4l-18 3ZM826 44c3-2 5-7 9-7l35 10 20 5 38 5c13 2 26 2 40 3 0 7-7 10-12 11 3-2 7-3 8-7l-14-1c-6-1-11 0-17-2s-12-1-18-2a436 436 0 0 1-55-10c3 3 7 3 10 5l24 6c12 3 25 3 38 6l13 3-6 4 3 1c-9 3-19 3-29 5l-15-1c-7 0-13-3-19-4l-37-11c-7-3-15-5-22-9-6-3-13-5-18-10 8 4 16 5 24 7l5-1c1-3-3-4-5-6ZM475 41c2-3 5-2 7-1 3 2 5 3 6 6h-2l2 2c-5 1-11-2-13-7ZM672 41c8-2 15-2 23 0 5 2 9 7 13 11 5 9 3 19 0 28-3 6-8 10-14 13h8c5-4 8-11 11-16-1 6-5 11-10 16h30l2 5-1 16-3-3V98c-2-3-6-1-9-2v19c3 0 5 0 7-2l2 4-4 1c-2-3-6-1-9-1-3 1-6 0-8 3l8-1v1l-10 2-6 5-4-1h2c5-7 13-9 21-10l-1-5V96l-4 1c1 5-1 11 1 17l-2 1 1-18-5-1v21l-1-1-1-20-44 1-10-1v20h-2V96l-4 1-4-1v20h-2l-1-20c-2 1-4 2-6 1-2 0-2-2-3-3h25l12-1c-8-3-12-11-14-19l3 1c1 3 3 7 6 9 6 5 13 6 21 5l-9 3c6 3 13 0 19-2 6-3 10-10 12-16l-7 4c1-3 4-6 3-10 0-4 1-8-1-12-3-6-8-10-14-11h-13l2-3c-4-1-8 2-12 3l6-4ZM459 43l10-2c-6 5-14 7-21 10l-2 2c6 0 10-4 16-4-1 2-4 3-6 4-16 6-32 10-48 13-4 1-8 1-11 3l-8 1c-7 2-13-3-20-3l1-1 13-4 12-3 40-10 24-6ZM403 45c7-1 14-5 21-1-11 4-22 5-33 8-3 1-7 0-10 2l-17 3-14 1c-4 1-9 1-13-1v-2l33-5c11-1 22-2 33-5ZM743 48c1-2 4-4 7-4l12 7 1 2h-1c-2-2-4-4-7-4 1 3 4 5 6 6l-5 4c-7-1-16 0-20-6l7-5Z"/><path d="M656 55c2-5 6-9 10-10-4 4-10 9-8 15l5-5-4 11v8h-2c-3-6-3-13-1-19ZM789 53c2-3 3-6 6-8 5 4 11 6 17 9l24 10 27 9 13 4c11 2 23 6 35 6-7 5-15 8-23 9h-27l-24-5c-13-5-26-10-38-17l-13-7-13-7c10 2 19 9 29 11 6 5 14 8 21 11 1 1 4 0 2-2-10-7-22-11-32-18-1-2-4-2-4-5m44 13c5 6 13 6 20 10v3l14 5h-11v1c8 3 17 2 25 3l18-2 1-2c-4-2-9-1-13-3-11-2-21-4-31-8-5-1-9-4-14-4l-9-3ZM675 51l10-1v1c-2-2-4 0-6 1-7 3-10 10-15 15 0-7 5-13 11-16ZM459 56l12-3v3l-24 10c-8 2-15 7-23 8-7 2-15 4-23 4l-9 1c-6 2-12 0-18 1-2 1-5-1-5-4 5 1 10-1 15-1l21-4 24-6 30-9Z"/><path d="m763 54 10 7 37 18c15 6 30 13 46 16 4 1 7 3 11 3-2 2-3 4-5 4-6 1-12-1-18-2-7-1-14-4-20-6-4-1-7-1-10-4l-2 1-7-8c-9-5-19-10-27-16l-8-7c-2-2-6-3-7-6ZM976 66h14v4h-5v15h-4a384 384 0 0 1 0-15h-5v-4ZM993 66l5 1 1 4 3 9 1-7 2-6 5-1v19h-3V70l-4 15h-3l-4-15v15h-3V66ZM639 79l12-11v9h-2l-14 14c-3 2-6 3-8 6l-10-2c-6-1-12 4-18 4l1-3 6-6 2-1c0-1 1-2 3-2 4-1 6-4 9-6h8v2l2 1-1 3 10-8ZM762 77l16 8c8 5 17 8 26 12 13 6 26 11 40 13 0 2 2 4 0 5-4 2-8 4-12 4-5 1-9 0-14-1l-7-2c-8-1-15-5-22-7 1 5 4 10 4 16h-4c0-5 0-9-2-14-4-7-7-15-13-21-6-2-13 3-14 9l5-3c-1 12 1 24 1 36l-6 5c-2 0-2 0-1 1l-3 4-3-2-2 6v-6l-2 1c-3 1-4 6-5 9l-3-1 2 5-5-5c-1-3-3-5-6-4v-3l3-1c0-2-2-3-4-3l-1-3c5 2 7 6 10 10l3-15 8-24-2 2c-2-6 3-10 7-14 2-1 3-4 3-7l2 2 6-5c6 3 12 7 16 13 2 5 5 9 10 11l20 3v-2c-5-6-12-9-18-12-6-4-14-6-20-11l-13-9m-10 48c-3 3 0 7-3 10l8 1c-1-6 1-12 2-18v-7c-4 4-5 9-7 14m-5 13c4 1 7 2 10 1 0-2-2-4-4-4l-6 3Z"/><path d="M772 98c4 3 5 8 8 12s6 9 7 15l-8 2c0-5 0-11-4-15 0 5 2 11 1 16l-7 2c3-10 1-21 3-32ZM866 109l1 1-29 11c-4 2-7 4-11 3l14-5c3-2 7-2 9-4l16-6ZM870 114l2 3-17 7h-10l25-10ZM560 118c5-1 11-2 16-1h7c-3 4-8 4-12 5l-6 4v-3l-4-2-2 1 1-4ZM615 128c6-5 14-7 21-11l2 1c-3 3-7 4-10 6l-8 7-6 5c-2 3-7 3-10 6 6 0 11-3 16-4l15-5c9-2 16-7 23-12l3 3-13 8c-9 4-18 7-28 9l-9 5c-7 3-16 1-23 5h-4c3-3 6-7 11-9 5-1 10-5 15-8l5-6ZM584 122c-2-1 1-1 2-1l4 1c-2 3-6 4-9 6-3 1-5 3-8 3-1-2-1-3 1-4v3c2-5 9-5 12-7l-2-1ZM130 133c12-5 25-5 38-5h82c11 1 22 1 32 6 2 1 4 0 5-2l1 1-2 3c9 6 15 15 16 26v30h-84l-2-8c0-10-14-13-20-6-5 5-5 13-1 19l3-3 3 2-3 1c1 1 0 2 2 2 5 4 11 6 17 8l29 13 34 13c4 2 9 5 12 9 7 8 9 18 10 28v39c0 11-4 23-14 30-10 9-23 10-36 10h-94c-11 0-22-1-32-6l-12-10c-4-6-7-14-6-22v-40h85v17c0 3 0 7 2 9s4 5 7 5c6 2 13-1 14-7 3-8 2-16 0-24 0-6-7-9-12-11l-62-25c-8-4-17-8-24-14-4-4-7-10-9-15l-1-10v-30c0-4 0-9 2-13 3-9 11-16 20-20m10 0c-10 3-20 8-25 18-6 11-4 23-4 35-1 8 0 16 3 24l3 4c4 4 7 8 12 10 10 6 20 10 31 14l50 20c2 2 6 6 8 2h1l1 2-3 3c5 7 5 17 4 25 0 7-5 15-12 16-4 0-10 1-13-3-2-1-3-4-5-3l-2 2-1-3c3-2 2-5 1-8v-15l1-1h-79v36c1 9 3 20 11 25 10 7 23 10 35 10h102c11-1 23-4 30-12 9-10 10-23 9-35 0-15 2-31-3-46l-3 3-1-1v-2l3-2-1-2c-4-7-11-11-18-14l-64-27c-6-2-12-4-17-8-2-2-2-5-5-5l-2 2-1-2 3-1c0-5-1-10 1-14 3-7 12-11 19-8 2 0 6 2 7-1l3 2-3 2c2 4 5 9 5 15l1-1h77l-1-25c0-6-2-12-5-17-2 0-2 2-3 3l-2-2v-1h-1c1-2 3-4 1-6-10-7-24-10-36-9H152l-12 1ZM338 136c10-6 22-7 33-8h92c11 1 23 1 33 6 2 1 4 1 5-1l-2-2 5 3-1 4 7 8c4 8 5 16 6 25v132c-1 10-2 20-7 29-4 7-12 12-20 15-7 2-15 2-22 2h-87c-12 1-24 0-36-4-7-2-13-8-17-14-1-3-3-1-5-1l-1-2 4-1c-3-8-4-17-4-25V170l2-15c2-8 7-15 15-19m-5 8c-7 9-9 20-9 30v128c0 9 2 19 6 27l4 6c3 3 7 6 11 7 12 5 25 4 38 4h90c9-1 19-2 26-8 6-4 9-12 11-19 2-8 2-15 2-23V169c0-8-2-16-7-23l-2 3-2-3c2 0 2-3 1-5-8-6-18-8-28-9H363c-11 1-23 3-30 12Z"/><path d="m654 132 4-4c13 0 26 0 39 2l14 3 2-2 1 1-1 3c3 3 7 6 9 10 3 4 5 10 6 15 2 15 1 31 2 47h-85c-1-9 1-17-2-26 0-3-4-5-7-6-4-1-9-1-12 2-5 4-5 10-5 16v91c0 5 0 11 4 15 4 5 13 6 18 1 4-4 4-11 4-16v-23h85l-1 6 1 38c-1 11-2 22-9 30-7 9-18 12-28 13a134970 134970 0 0 0-109 1c-11 0-22-1-31-7-6-3-10-7-13-12-1-3-3-2-4-1l-1-2 3-2c-2-5-4-11-3-17V177c-1-10 1-21 6-30l4-6v6c-5 7-6 16-7 24v127c-1 7 0 14 1 20 2 5 3 10 6 13 4 4 8 9 14 11 8 3 16 4 24 4h89c13 0 26 0 37-6 7-3 12-10 14-17 2-6 3-13 3-19v-39h-77c-1 10 1 21-2 32-3 9-15 12-23 8-3-2-5-6-7-9-2-4-1-8-1-12v-88c0-6-1-12 2-17 4-6 12-9 18-7 4 0 7 3 11 1l1 2-3 2c4 8 3 18 4 27h77l-1-37c-1-9-3-18-9-24l-4-5c-7-4-15-5-23-6h-35ZM789 129l17-1h89c12 1 24 2 35 7l10 10c5 8 7 17 7 27v132c-1 12-3 26-12 35-10 9-25 10-38 10h-85c-12 0-24 1-35-3-7-2-12-7-17-12l-3 2-2-2 3-1c0-3-2-6-3-8-3-7-3-15-3-23V178c-1-11 1-23 7-33 7-10 18-15 30-16m-20 10c-10 7-14 20-14 32v128c0 10 1 21 6 31 2 2 3 5 6 5 6 8 17 10 26 11h110l15-2c7-2 14-5 18-11 5-9 7-21 7-31V166c-1-8-3-17-9-22v-1c-7-8-19-10-29-11H802c-11-1-23 1-33 7ZM968 128h107l5 22 13 49 4 15c2 2 6 2 7-1l21-85h108c-2 3-1 6-1 9v212h-74V239l-4-2c-3 2-3 5-4 7l-27 105h-46l-28-107v-2c-1-1-3-3-5-2-4 2-2 7-2 11v100h-74V128m4 4-1 172 1 41 66 1V245c-1-4 1-8 4-11h7l2-3 1 1 1 1-3 3c2 2 3 5 3 8l24 93 3 9h40l7-26 20-79c1-3 3-6 6-8 3-1 7 2 8 4l1 19v90l1-1 13 1h53V131l-101 1-21 82c-1 6-11 6-14 1l-5-19-16-63v-1H972Z"/><path d="m549 133 8-4h1c-6 4-9 10-9 17-3 1-2-2-2-4 0-3 0-6 2-9ZM731 146h5l1 8h-3l1-3-2 1-2-6ZM564 157c-1-3 1-6 2-8 3-1 5 0 8 2v7c-1-1-2-3-4-3-3 4-1 9-3 12l-2 1v-10l-1-1ZM738 161l1-1c0 2 0 4 2 4l8-2v3c-4 1-7 3-10 1l-1-2v-3ZM561 161l1 1 1 5 1 1 1 1c-2 2-3 6-6 4-2-4 2-7 2-12ZM743 171l5-2v6l-5 2v-6ZM404 179c3-6 12-9 19-7 3 0 6 2 8 5 2 4 4 9 4 14v96c-1 6-2 12-6 16-4 3-11 3-16 2-4-1-7-4-9-7-1-1-3 0-4 1l-1-4 1 1c2-2 2-5 2-7v-93c0-6 0-11 2-17m7-3c-5 3-5 10-6 15v97c0 4 1 7 3 10l6 4c4 2 9 1 13-2s4-8 4-13V186h-3l-1 4v-4l-1-2 3-1c1-5-4-8-8-8-3-1-7-1-10 1ZM839 175c6-6 16-5 22 0 3 5 5 10 5 15v95c0 6-1 12-5 16-4 5-11 5-17 4-5-1-7-5-10-9-2-8-1-16-1-24v-79c0-6 1-14 6-18m5 0c-6 3-8 10-8 16v96c0 4 1 9 4 12v-1c4 6 13 6 18 2 3-3 4-6 4-10V186l-3 2v30c-2-2-6 0-8 0-4-3-3-8-1-11l8-1c-1-4 1-8 1-12 0-3-2-8 2-10 1-8-10-11-17-9ZM635 189h6-4c-1 3 1 5 2 7l-6-5 2-2ZM630 198l4-2c3 3 5 6 5 9-2 2-5 2-8 0l-1 2-1-1 1-1v-7ZM527 206h4v23l-3-1 2-2 1-4-3-2-1-4v-10ZM740 210l8-2v10l-7-1-1-7ZM649 219l2-2 4 1h1c2 2 5 2 8 2l-4 2-21 9-6 4-1-4c4-2 10-2 14-5 3-2 7-3 9-6l-6-1ZM707 229h5c0 2 1 2 2 0h3c-1 3 0 6-2 8-5 1-8-3-8-8ZM728 229h4l2 8h3l-1-8h3l2 14c-3 1-5-1-7-3-4-2-5-7-6-11Z"/><path d="m850 258 3-1 6 1v12l-9-2v-10ZM530 276l1-2v19h-4l2-11 1-6ZM847 278l3-1h9v3l-12-2ZM745 304l3-1v2l-5 3v8l-2 1v-8l4-5ZM535 338c1-1 2-5 4-3l-2 4h-8c-1 2 3 2 4 3h-4l-6-1 2-2 10-1ZM535 342c0-2 3-3 5-3-1 2-3 3-5 3ZM1025 390l1-3 2 2-1 11-3 1c2-3 2-7 2-10h-11l-2-1h12ZM142 449l1-17v20c-1 2-3 1-5 1v17h-2l2 1a439 439 0 0 0-1 18h-4c-1 2-1 5-3 7l-6 3c-2 1-3 0-3-1l3-3-3-1-3-2-7 7c-3 3-2 8-2 12l-1 13-4 1v18l-2 7h-1v-27h5v-25c1-3 0-7 2-10l1-5c1 0 4-1 2-2h-2v-18l3 4 2 1c1-3 1-6-1-8l5-2v-3l3 3c2 1 1-1 2-2 2-1 5 0 8 1v3l6 1v-9c1-2 3-2 5-3ZM1305 444c2-1 3 0 4 1l6 1 4 8 1-1 1 1c3-1 6-2 7-4l-3-5 7 1-6 16-1 2-2 1 2 3 15 9c1 1 2 2 4 1l1 15c-3-3-7-3-11-3-4 3-9 0-13 3l-1-2-4-1-1 3-1 1-1 21c-1 4-3 7-6 8-5 2-11 1-16 0l1-2c5 1 9 2 13 1 2 0 3-2 3-3 2-4 2-8 2-12v-20c-1-3-3-5-6-5l-18-1 1-2v2c1-1 3-2 3-4l10-22 5-11m9 33 1 4 5 1-3-2v-2l-3-1m12 8 3-1 2 4c1-1 1-3 3-3l4 4 1-3-7-3-2-2-2 2-2-2v4ZM1155 448l7-2c2 2 2 4 5 6l-2 1 3 3-2 3 3 1c2 0 4-2 6 0-1 3-4 2-5 1l-2 2-3-2-2 2-6 1 2-4-6 1c1-4 0-9 2-13ZM237 449l-1 26-5 6-4-1-2 6-4 2-5-3v4h-5l2-3-8 2-3-3c-2 1-4 3-6 2l6-6-2-1 6-6c2-4 1-8 2-11 2-1 4 1 6 1h10v-3l1-1v-3h3l1-2 7-2 1-4m-3 6c-1 0-4 2-1 2 1 1 4-2 1-2m-16 24 1 4h5c0-3-1-5-3-6l-3 2ZM651 449c3-1 4 4 1 5l1 2h3l-5 4-4-2c0-3 2-6 4-9ZM708 452l1-1c4 1 6 4 8 8 2-1 4 1 5 3-2 1-5 1-5 4l-2-1-7 2c-2-5 2-10 0-15Z"/><path d="m1150 498 1-47v30h2l1-6a956 956 0 0 1 6 0c0-2-3-3-5-3l1-1c4-2 7 1 11 1l-7 6 5 1v-3c2-3 6-4 9-7l4-1 1 2h3v14l-6 2c2 1 5 0 7-1l-1 3-4 1 1 4 3-3v12l-1 1-2-2-6 1 2-3-2-2-3 3-2-2c-3 1-6-1-9-1l-5 2c-2 5 0 11-1 16-1 4 1 7 1 11l-2 1c-2-10-1-19-2-29m6-4c-1 2 2 2 3 1s-2-2-3-1ZM270 456c4-1 7-4 12-4l-3 5 2 1-3 2h7a91 91 0 0 1 0 17h23l2-1v6h-3l-1-3h-14l-3 3 2 1 1 2h4l-4 6 5 2-4 2-1 3c-4-1-7-4-9-6-4 1-3 5-5 8-3 0-8 0-8 4l4 2h-6l-5 2c1-2 3-2 5-3-2-1-4 0-5-2l-2-6-3 1-1 11v15l-5 1v21l-2 4h-1v-27h5v-33c3-2 3-6 3-9v-25h6l1-1 6 1m9 33-3-1-1 3h-3l-4-6c-2 0-3 2-5 3h-5l-2 6 4 1 2-3h3l2 2 2 2v3h4l4-3-3-1c0-1 1-2 3-1l-2-2c3-1 7-1 8-4l4-1v-4c-4 0-6 3-8 6ZM1047 452l1 9v3l-9-8h5v-2l3-2ZM349 454c2 1 4 0 5-1l-2 9c-3 0-3-5-3-8ZM905 457l4-4v24h10l-11 1v2c5 0 12 2 17-2 2-2 5-4 7-1l-3 2c-3-1-2 2 0 1h3c1-1 2-3 1-5 3-3 7-2 10-3-1-2-6 0-5-4l8 2 1-3h1v-2l6 2 1 1h4c0 3 0 7-3 10l-8 7-6 3c5 3 11 6 15 10l1 1c-3 2-6 1-9 2l-1-4c0 3 0 6-3 8l-4-3c-1 1 0 2 1 3h-12v5h-3c0-3-1-6-4-7l-7-2h2l-1-8 3 1-1-2c-2-4-7-6-7-11h-1l1 4-3 1 4 1-6 1 2 2h-5l-7 6 3 1-4 4c1 1 4 2 4 4l-5-1-2-6-2 2 2 3-6-1c-1-1-3 0-4-2l5-2c-3-1-5 1-6 3-3 2-1 5-2 8v11l-3 1a1402 1402 0 0 1 2-30l1-4v-15c3 1 6 0 8-1l2 2 1-5 4 3-4 4h4l2-2 9 2 2-4 1-12-4-2m-17 26c0 3 4-1 0 0m46 0c-3 1 2 3 3 2 0-2-2-2-3-2m-3 3v4h4c-1-2-2-4-4-4m-7 14c0 1 2 2 3 1s-2-2-3-1m19 0c0 2 0 2 2 2l-2-2ZM573 454l2 3v2l6 2c3 1 5 4 7 6l1 4-3 1 4 2 4 28-6 1h-2l-1-2-5 5 1 4c-2 0-5-2-7-1l-9 1-1-3-5 2 1-3-5 2-2-4-1 2-5 2-2-3-6 3-7 1 1-3-7 1 3 2-2 1-3-2-1-2c-4 1-3 5-4 7l-3-1 3-15 2 1 4-20c0-5 5-7 9-8l-1 3 3-1 1-3 4 2c4-3 8-7 13-6l-3 21-2 8c-1 3-4 4-4 6l3-1h16l-1-27c2 3 8 3 10 0a793 793 0 0 1-1-2v-3h1l2 4 4-6-5-4v-4h-3l2-3m-33 25c0 3 3-1 0 0m1 10c3-2 7 1 8-3-3 0-6 0-8 3m25-1c-1 1 0 2 1 3-1 1-3 2-1 3 4 2 6-3 10-2l-2-3 4-2c-2-1-4-1-4 2l-2-3-6 2m-42 3c-1 2 2 3 3 1 1-1-2-2-3-1m20 0c1 1 1 2 3 1-1-1-1-2-3-1m-21 6 2 3c2-1 1-3 2-4l-4 1m17-1c-2 1 1 4 3 3 0-1-1-3-3-3m-6 5c-1 0-1 3 1 2 1 0 1-3-1-2m13 0c0 3 3-1 0 0m21 8c1 0 4-1 3-3-2-1-3 1-3 3ZM1209 454h5l-5 2v-2ZM9 455c3-1 0 4 0 0ZM544 456a2971 2971 0 0 1 0 0ZM551 456c2 0 2 0 2 2-2 0-2 0-2-2ZM12 458c1-1 4 0 2 1 0 2-3 1-2-1ZM1130 458c2 0 2 0 2 2-2 0-2 0-2-2ZM208 459c2 0 2 0 1 2l-1-2ZM162 462c-2-2 2-2 3-2l-1 3-2-1ZM409 460l2 2c-2 0-2 0-2-2ZM383 465c2-3 6-4 9-4v4l-16 5 1 3-4 4c3 1 6 2 9 1l6-6h4v39l-8-2-5 4-2-1v-2l-6-1 2-1 2-5-8-2v-1l3-2c-2-1-2-6-6-6v7l-1 24c0 2-3 2-5 2l-1 9c-2-3-2-7-1-11h5v-8l-1-41 3 3v2l6-6a440 440 0 0 1 1-1l1-8c4-2 8 3 12 1m-12 28c0 1 2 3 3 2s-2-3-3-2m11 6c2 3 4 0 5-2 1 1 2 0 3-1-3-1-6 1-8 3ZM495 461l1 2c-2 1-3-1-1-2ZM655 467c2-2 3-5 6-6l-1 3-1 1-4 2ZM1205 461c3-1 5 2 7 4l1-3c2 0 3 1 4 3l5-2 1 2h7l-1-1 1-1-2-2h4l-1 25v8l-6-1 7 4-2 2c-3 1-7 1-9-1l-1-5c-2 3-6 2-9 4-3-2-6-2-8-1l-1 21c-1 3-3 6-6 7-4 1-8 2-12-1l-1-3c4 3 11 5 15 1l2-7v-22l2-1v-8l1 3 7 1 2-3-10-1 1-15c1-2 0-5 2-7m21 26c-1 1-1 3 1 3 2-1 1-3-1-3m-23 3c0 2 0 6 3 4l-3-4m6 3c1 2 1 2 3 1-1-1-1-2-3-1Z"/><path d="M561 462c4 1-1 3 0 0ZM788 462l9 5c3 3 7 0 10 2l4 4 3 1v6l1-3c6 0 12 1 18-2 4-3 10-3 14 0l1-3 5-4 4 1v5l6 1c-3 3-5 6-9 7l-4 3 14 9 3 12c-3 1-6 0-9-1s-5-3-8-2l3 2 1 4c-6 0-11-2-16-5-1 6 2 14-4 19-5 5-12 2-18 3 0-2 1-2 3-2 5 0 10 0 14-3 2-5 2-10 2-15 0-3-1-5-3-7-5-2-10-2-16-2v-1 7h-5l-3 3c-2-2-6-1-9-2l1 2h-4l3-3-7-2-4 4-1 18c0 2-3 2-5 3v17l5 3c1-2 4-2 6 0l2-1 2 5h-18v-2l1-25 5-1v-27l1-1c2-10 2-21 2-32m18 11-2 3h-6c3 3 7 1 10 1a7722 7722 0 0 0-2-4m40 13 1 2-3 4 5 2-4 3 5 3 1-5c2 2 5 3 7 2l-2-2-2-4-8-5m-58 2c1 2 1 2 3 1-1-1-1-2-3-1m20 2c-1 2 1 2 2 1 2-1-1-2-2-1m-16 6c1-1 2-3 4-3l3 2-1-4c-3 0-6 2-6 5m18 3c0 3 3-2 0 0ZM994 465l7-4 2 3 2 2c0 3-4 4-6 5l6 1 1-1 8-2-3 22-1 7h13v-3l2 2-2-23 12 3 7-7 1 2h2c0-3 3-3 4-3l5 27c-6-2-12-1-17-4v2l-2 1-4 4-2-3c0 2 1 3-1 4l-19 1-3-4 1-3c-2 0-3 1-5 3l-2-2 1 2-5 1-1 2-3-1v4l-5-1 3-4c-2-2-5-2-7-2 0 5-2 10-3 14-1 5 0 11-3 15l-1-6 5-32 3 1c1 3 5 0 2-1h-2l4-17c3 0 6-1 6-5m32 18c0 3 3-1 0 0m15 7c1 0 5-2 3-4-2 1-5 1-3 4m-37-1c-2 1-1 3 1 2 2 0 1-3-1-2m44 1 1 3h3l-1-3h-3m-51 2c0 2 3 3 4 1-1-1-3-2-4-1m50 0c1 1 1 1 0 0ZM1129 463c3-1 7 1 9 4v1l-5 3-3-1v-3l3-2-4-2ZM75 463v31H52l-7-1-3-4-4 1-1-4-5 3 1 4-3 1-5-5c-3 1-8 2-9 7-1 0-2 2-4 1l3-3-5-1-1 25c-1 3-5 1-6 2v25l-2 5H0v-32l7-1a189 189 0 0 1-1-24c2-3 1-8 3-12v-16c4 1 9 0 13 2l-1 3h4l-1-3 6-2 3 3a386 386 0 0 0 1 1l5 5 1-1c-1-4 3-6 6-7h27l2-3m-19 18c2 0 4 1 5 4h7c-3-1-4-4-6-6l-2 3-2-3-2 2m-37 7h6l2-3c-3 0-6 1-8 3m10-2c0 4 3-1 0 0ZM348 466c1-2 2-4 4-3a682 682 0 0 1-1 8h-7l-3-4c2-2 4-2 7-1ZM536 463c2 0 4-1 5 1-1 1-4 1-5-1ZM439 475c5-3 6-9 11-11l2 2 6-1c1 2 0 4-1 6l-3 1 2 4 3-2 1 3h11l-3-2h4l-2 1 2 2c5 0 10 1 14-2v6l-1 1 1 1v14h-7c2-2 6-1 6-4l-4-1 1-2-2 1-2-2-6 2h4c2 2 3 4 2 6h-17v7l-9 3c-1-4-4-6-6-8l-2-4c-1-1-2 0-3 1l-2-2c-2 1-4 1-6-1-1-5-1-10 1-14 1-3 4-1 7-1l1-2-3-2m29 6c1 3 3-1 0 0m-21 1c-1 2 2 3 3 2 1-2-2-3-3-2m28 1c0 3 3-1 0 0m-13 3c-1 2 2 3 3 2 1-2-2-3-3-2m-15 4 5 5 2 3 5-4c-2-2-4-1-7 0v-3l-5-1m11 8c0 3 3-2 0 0ZM172 466c4-2 8 0 11 2l1 2 3-2v9h10l-11 1v2h14c-1 2-3 4-5 4h-16l-6 3v3l4 2-2 3-4-1-5 1 3-4-2-2-2 3h-6l5 2-2 2-4 2v26l-5 1-2 15h2v8l-2 2h-1v-27h6l-1-5v-1l1-25c3-6 1-12 2-19 3-1 5 3 7 1l3-2c-2 0-5 0-6-2h6c2 0 1 2 2 4l3 1 1-3 6-3c-3-1-6-1-8-3ZM1154 465c2 0 2 0 2 2-2 0-2 0-2-2ZM529 466c2 0 3 0 2 2-2 0-2 0-2-2ZM334 471l3-5 4 5h-7ZM408 468c2-1 2 0 3 1-2 1-2 1-3-1ZM626 470l6-1 1 1 5-2-1 3c2 1 4 2 4 4a266 266 0 0 1 0 22 640 640 0 0 0-8 4c-3 0-6 0-8 2l-5-3c-1-2-2-5-5-5v25c-2 0-2-3-2-4v-28l2 2v-12l2-4 4 3 1-3 4 3v-5l3 1-3-3m1 15-2 1 3 2h-1c0 2-1 2-2 3l5-1c1-1 2-3 5-3l-3-1h-3l-2-1m-8 7c0 3 3-2 0 0m11 0 2 4c1 1 3 0 4-1l-6-3ZM650 470l1-2c2 2 5 4 3 7h4v-3c1 1 3 3 5 3l5-1v-3l2 6v3l3 18-2 2 2-1-5 5-5-3-1 2 3 1-5 1v-2l-2-2 2-5 5-2c-2-2-4-2-7-3l1 5h-3c-2 9 1 17 2 25l3 15h-3l-9-44 2-4c0-6-2-12-3-17l2-1ZM691 468l2 2c0 2-3 2-4 3l2 2c2 0 3-2 4-3l1 4h4l-1 6h-6c2 2 4 3 5 6l-2 8-7-3 2 2-6 4 1-4c-1 2-3 5-6 4l-3-4 4-22 1-4c3-1 6 0 8 1l1-2m-9 17 4 4c1-1 2-3 1-4h-5ZM724 471l4-3c2 1 1 3 2 4l3 3 1-5v34c-3-1-6-4-10-4l-1 4-2-4-6 3-2-2-4-1h-2c0 4 1 8-2 10-2-8 0-17 0-25l2-1v-10l9-1-2-2h10m-10 16c0 2 0 2 2 2 1-2 0-2-2-2m11 2c1 3 3-2 0 0ZM1122 469c3 3 6 5 10 5l-2 2h7l-3 19-3 1 3-1-1 4-2 3-2 2-1-2 3-2c-4-2-10-2-14 0l-1-4-3-1-6-2-4 25-2 2v-4l3-24 2-1c2-4 1-9 3-14h3l3 1-2-3c3-2 6-1 9 0l-4-4 5 1-1-3m6 16c1 3 3-2 0 0m3 0c1 1 1 1 0 0m-15 2c0 4 3-1 0 0m9 3c1 1 1 1 0 0m-7 2-1 6 6-2-5-4ZM620 470c1 1 1 1 0 0ZM1067 474l2-3v3c5 0 10 2 14-2l2 1c3-1 6-2 10-1l2 18v3l-4 7-4-5c-1-2 0-7-4-6l2 5c-3 4-7 0-11 1l3 3h-2l-3 5c0-2 0-6-3-5-1 4 1 7 1 11 1 7 3 13 3 20l3 17c1 2-1 3-2 4l-1-2-9-60 2 2c1-5-1-11-1-16m15 15c-2 0 0 3 1 2 2 0 1-3-1-2m-9 2c-1 3 3 2 4 1-1-2-3-1-4-1m-1 3c1 1 1 1 0 0ZM302 486l5 2 3-1v11h-4l-1-1h-3l-2-3 2-1h-5l6-3-2-2 1-2m1 6c1 1 1 1 0 0ZM219 489l2-1c5 3 12 6 16 12h-5c-3-4-7-6-11-8-1 0-3-1-2-3ZM204 494l8-4 2 3c0 2 0 5-2 7h-2c-1-2 0-4-2-5l-4-1ZM431 499c0-2 0-4 2-5v18c0 4 1 8-1 12-1 2-3 1-5 2 1 3 1 7-2 9v-12h5v-7l1-17ZM674 498l3-3c1 3 0 7-3 9l-1-3 1-3ZM1261 498h28l-4 2h-21c0 16 1 32 4 48l-2 2h-1l-1-14-3-37v-1ZM203 504h3c3 3 2 7 1 11l-2-2c0-3 0-6-2-9ZM444 506c2-1 2 0 3 1-2 1-2 0-3-1ZM303 507h1l24 1v3l-7 3c2-2 6-1 6-4h-21c-1 2-2 5-1 8l-3-1 1-10ZM480 507h25c0 2-1 4-3 3l-20 1-2 9c0 2 0 4-2 3-2-2 0-4 1-6l-1-3 1-7h1ZM704 511h3v29c-1 3 2 5 4 7l5-3 2 2 7-2 2 3h1l6 3h-30v-39ZM927 512l2-1 1 6v20l-1 13h-2v-38ZM627 514l1-2 1 1v1h-2Z"/><path d="M804 513c3-1 0 4 0 0ZM516 515c2-1 2 3 1 4s-1-2-1-3v-1ZM43 520c0-4 5-2 7-2-1 2-4 2-7 2ZM295 526c4-2 7-4 9-7h2c-2 1-2 4-4 6l-7 1Z"/><path d="m514 523 3-4c0 2 1 4-1 6h-4v17h2l3 6h5l-4-3 5 2c1-2 1-4 3-4 4-1 7 1 11 2l5-3 1 3c-2-1-4-1-5 1l4 4h-28v-2l-1 2h-4v-27h5m17 24c-2 3 3 0 0 0m5 1c1 3 3-2 0 0ZM391 525c0-2 4-3 6-3-1 3-4 4-6 3ZM565 523l3-1 1 9-3 1-1-7v-2ZM612 523c1-1 3-3 4 0-1 2-4 2-6 3-1 6 1 13 1 20 0 2-1 4-3 3v-18l-1-8h5ZM872 523l7-1v3h-5l1 17v7l-2 1h-1v-27ZM970 523h5l-2 3v21l-3 2v-26ZM1026 523l3-1c-1 2 0 5-3 5v-4ZM1059 522l2 1 1-2 1 2-3 3c-1-1-3 0-3-2l2-2ZM137 523h5c-2 2-4 2-6 2l1-2ZM236 525c2-2 4-2 6-2-2 2-4 2-6 2ZM733 523h5c0 3-6 4-5 0ZM286 524h7c-2 3-6 2-9 2l2-2ZM461 524h16v2h-17l1-2ZM206 528c3 0 0 3 0 5v-5ZM1027 531l2-1c1 6 3 12 2 18l-2 1-2-18ZM566 532l3 1 2 13c1 2-1 3-2 4h-1v-5c1-2 1-4-1-5v-3l-1-5ZM356 537l2-1v12l-2 2v-13ZM425 536c3 3 3 7 4 11l-3 3h-1v-14ZM658 536l3 1 2 8c1 2 1 4-1 4-2-3-2-7-3-10l-1-3ZM206 539c3 1 1 5 2 7 0 2-1 2-2 3v-10ZM278 550ZM476 544l12-1v3c2 2 4-2 7-1 2 1 3 0 4-2l1 5 3-4v6h-34l7-6ZM822 543c2 0-1 4-2 2-2 0 1-1 2-2ZM575 546l8-1h8c3 0 7 1 10-1l1 6h-29l2-4m15 2c2 1 5 3 6 0 1-4-6-3-6 0ZM670 550c0-2 0-6 3-6l9 2v4h-12ZM898 544c3-1 1 3 0 0ZM461 547h7l-3 2 4 1h-10c2-1 3-2 0-3h2ZM1287 549c2-2 5-2 7-2l-5 2h-2ZM829 550c-1-3 3-3 2 0h-2Z"/></g><g fill="#aa790c"><path d="M523 13c22-6 44-11 67-12 11-1 23 0 34 2l31 6a632 632 0 0 0 92 2c14-1 27-5 41-8-5 3-12 3-17 5l-18 6c-5 1-11 0-16 2l-21 1c-9 1-18 4-27 2l2-2c-11 1-20 6-31 7v-3c4-3 8-6 13-7l-15 3c-3 1-7 4-11 4-5-1-7-7-11-10-10-4-21-6-32-6h-19c-6-1-12 1-18 1l-36 8a491 491 0 0 0-73 19c-5 0-11 2-16 4l36-6 63-8c6 1 11-2 17-2 11 1 23-1 34 2 6 2 11 5 15 10 4 6 2 14 2 21s-5 13-9 18l-3 4v-5c-2 3-3 6-6 8v-6h-1l-1 7-4 8c3 1 3 6 6 7l10-2c5-6 11-12 15-19 7-9 16-16 25-22 8-4 15-8 23-10l9-4 5-1 14 1h9l30-5 19-4c8-2 15-3 22-6l20-7c7-2 15-3 23-2l9 2c9 0 18 3 27 5 33 9 66 11 100 14l-14 1c-21 1-43-1-64-4-2-1-4-2-6 0l17 5 20 4c-5 2-9 2-14 1-12-1-24-6-37-4l-7-1c-2 0 0 2 1 2 8 0 16 3 24 4 8 3 17 3 25 5l62 8c4 0 8 2 12 1l3-2c13-1 27 0 40-5 11-3 22-9 31-17 1-1 4-3 2-4h-11c-6-1-11 1-17 1h-17c-11-1-23 0-34-2 15 1 31 2 47 1l36-1-1 4-5 5a92 92 0 0 1-41 22c-7 2-14 1-21 2h-13c2 4-2 7-4 10-11 7-24 10-36 12h-16c-5 5-12 8-19 10-8 3-16 6-25 4-3 8-10 13-18 12-3 2-5 5-6 8l5-2c-2 2-6 2-9 4l-14 5-34 1c0-6-3-11-4-16 7 2 14 6 22 7l7 2c5 1 9 2 14 1 4 0 8-2 12-4 2-1 0-3 0-5-14-2-27-7-40-13-9-4-18-7-26-12l-16-8 13 9c6 5 14 7 20 11 6 3 13 6 18 12v2l-20-3c-5-2-8-6-10-11-4-6-10-10-16-13l-6 5-2-2c0 3-1 6-3 7-4 4-9 8-7 14l2-2-8 24-3 15c-3-4-5-8-10-10l1 3 1 4v3l-1-1-7-5c3 6 6 11 7 17l2 6 1 8v39l1 2-1 1-6-2-65 1h-10l-2 1v3l-2 2h2l-2 2-6 4h-5l-5 5c-3-3-2-8-3-12-1-3 0-5 2-7l-2-2 1-2c3 2 6 2 8 0 0-3-2-6-5-9l-4 2 2-4 1-3 6 5 2 3v11l-2 6 4-1c1-2 0-3-2-4l4-4h85c-1-16 0-32-2-47-1-5-3-11-6-15-2-4-6-7-9-10l1-3-1-1-11-4 6-5c4 1 8-1 12-2h-2v-1l9-1 4-1 3-3 1-16-2-5h-30c5-5 9-10 10-16-3 5-6 12-11 16h-8c6-3 11-7 14-13 3-9 5-19 0-28-4-4-8-9-13-11-8-2-15-2-23 0l-6 4c-4 1-8 5-10 10-2 6-2 13 1 19h2v-8l4-11c4-4 8-8 13-10h13c6 1 11 5 14 11 2 4 1 8 1 12 1 4-2 7-3 10-3 5-9 10-15 11-8 1-15 0-21-5-3-2-5-6-6-9l-3-1c2 8 6 16 14 19l-12 1h-25c1 1 1 3 3 3 2 1 4 0 6-1l1 20h2V96l4 1 4-1v20h2V96l10 1 44-1 1 20 1 1V96l5 1-1 18 2-1c-2-6 0-12-1-17l4-1v15l1 5c-8 1-16 3-21 10h-2c-11-2-22-2-33-1-3-1-5 1-7 3l-4 4h35c8 1 16 2 23 6l4 5-1 4-3-3c-7-7-18-7-27-8h-35l4-3c-2-2-4-2-6-1l13-8-3-3c-6-3-13-3-20-3l-2-1c-7 4-15 6-21 11l-5 6c-5 3-10 7-15 8-5 2-8 6-11 9h4c-9 6-17 14-21 24-1 2-2 3-4 3l-2 1c-3 0-4-3-4-6l3-18 4-7c0-3-3-4-4-6l-7 5c-2 5-1 10-2 15l-4-9c-4 8-5 17-5 26v123c0 8 1 17 5 25l-2 4c-3-3-4-8-6-13-1-6-2-13-1-20V171c1-8 2-17 7-24v-6l2-6-1-1c3-2 5-6 8-7l1-8 3-4c-10-2-18-7-25-13-12 7-27 9-40 4-8 3-17 6-26 7-8 0-18 1-25-5h-22c-7-1-15-3-20-8l-2-4c-8 0-15-3-22-6-4-2-9-5-11-10l-2-5-13-5c-5-2-9-6-13-10v-3c4 2 9 2 13 1l14-1 17-3c3-2 7-1 10-2 11-3 22-4 33-8-7-4-14 0-21 1-11 3-22 4-33 5a603 603 0 0 1-24 1c29-3 58-9 86-16l91-22m286 6c5 3 9 6 14 7 5 2 11 5 17 6l2 1c7 1 16 1 22-4-7 0-13-2-19-4-8-3-16-3-23-5l-13-1m-18 5-15 6 13 5 7 2c9 3 20 2 30 0l9-3-9-3-12-3-3-1c-6-3-13-4-20-3m-213 6c-4 2-7 5-9 9 5-2 10-5 11-10l-2 1m-45 8c-1 2-5 3-3 6 6-1 9-7 14-9l1-4-2-1c-5 0-6 6-10 8m222 3v1l12 5c4 2 9 2 13 2l13-4 2-3-17-8-5-2-18 9m71 3c2 2 6 3 5 6l-5 1c-8-2-16-3-24-7 5 5 12 7 18 10 7 4 15 6 22 9l37 11c6 1 12 4 19 4l15 1c10-2 20-2 29-5 5 0 10 0 14-3 5-1 12-4 12-11-14-1-27-1-40-3l-38-5-20-5-35-10c-4 0-6 5-9 7m-351-3c2 5 8 8 13 7l-2-2h2c-1-3-3-4-6-6-2-1-5-2-7 1m-16 2-24 6-40 10-12 3-13 4-1 1c7 0 13 5 20 3l8-1c3-2 7-2 11-3 16-3 32-7 48-13 2-1 5-2 6-4-6 0-10 4-16 4l2-2c7-3 15-5 21-10l-10 2m284 5-7 5c4 6 13 5 20 6l5-4 1-2h1l-1-2-12-7c-3 0-6 2-7 4m46 5c0 3 3 3 4 5 10 7 22 11 32 18 2 2-1 3-2 2-7-3-15-6-21-11-10-2-19-9-29-11l13 7 13 7c12 7 25 12 38 17l24 5h27c8-1 16-4 23-9-12 0-24-4-35-6l-13-4-27-9-24-10c-6-3-12-5-17-9-3 2-4 5-6 8m-114-2c-6 3-11 9-11 16 5-5 8-12 15-15 2-1 4-3 6-1v-1l-10 1m-216 5-30 9-24 6-21 4c-5 0-10 2-15 1 0 3 3 5 5 4 6-1 12 1 18-1l9-1c8 0 16-2 23-4 8-1 15-6 23-8l24-10v-3l-12 3m304-2c1 3 5 4 7 6l8 7c8 6 18 11 27 16l7 8 2-1c3 3 6 3 10 4 6 2 13 5 20 6 6 1 12 3 18 2 2 0 3-2 5-4-4 0-7-2-11-3-16-3-31-10-46-16l-37-18-10-7M637 72l-9 9h-8c-3 2-5 5-9 6-2 0-3 1-3 2l-2 1-6 6-1 3c6 0 12-5 18-4l10 2c2-3 5-4 8-6l14-14h2V62l-14 10m-77 46-1 4c0 3 3 4 6 4l6-4c4-1 9-1 12-5h-7c-5-1-11 0-16 1m24 4 2 1c-3 2-10 2-12 7v-3c-2 1-2 2-1 4 3 0 5-2 8-3 3-2 7-3 9-6l-4-1c-1 0-4 0-2 1m-35 11c-2 3-2 6-2 9 0 2-1 5 2 4 0-7 3-13 9-17h-1l-8 4m15 24-2 4v1l-1-1c0 5-4 8-2 12 3 2 4-2 6-4l-1-1h1l2-1c2-3 0-8 3-12 2 0 3 2 4 3v-7c-3-2-5-3-8-2-1 2-3 5-2 8m69 60 3-1c0-2 0-6-3-4-3 0-1 3 0 5Z"/><path d="M625 21c3 2 7 2 10 1 1 0 2 3 1 4-1 3-4 4-7 3l-4-8ZM722 96c3 1 7-1 9 2v13l-2 2c-2 2-4 2-7 2V96ZM752 125c2-5 3-10 7-14v7c-1 6-3 12-2 18l-8-1c3-3 0-7 3-10ZM775 112c4 4 4 10 4 15l-3 1c1-5-1-11-1-16ZM872 117l1 8-18-1 17-7ZM1075 128l3-3 2 7 20 79-3 3-4-15-13-49-5-22ZM1233 128l3-3v227l-73 1h-9l4-4h74V137c0-3-1-6 1-9ZM140 133l12-1h100c12-1 26 2 36 9 2 2 0 4-1 6-4-4-10-7-15-9-6-1-11-3-17-3H155c-9 1-19 2-27 8-8 4-11 12-12 20l-1 29c0 7 1 15 6 21l-4 1-3-4c-3-8-4-16-3-24 0-12-2-24 4-35 5-10 15-15 25-18ZM333 144c7-9 19-11 30-12h111c10 1 20 3 28 9 1 2 1 5-1 5l-2-1c-7-8-19-8-29-9l-103-1c-10 1-21 2-29 9-7 7-9 18-10 28v119c1 13 0 28 8 40l-2 4-4-6c-4-8-6-18-6-27V174c0-10 2-21 9-30ZM769 139c10-6 22-8 33-7h103c10 1 22 3 29 11v1l-1 3-1 1c-1-3-3-5-6-6-7-5-16-5-25-6l-92-1-18 1c-8 1-17 3-23 10s-8 17-8 26v131c0 10 1 20 7 28v4c-3 0-4-3-6-5-5-10-6-21-6-31V171c0-12 4-25 14-32Z"/><path d="m930 135 2-3c5 3 9 7 13 12 3 8 6 17 6 26v122c0 15 0 30-8 43-8 12-23 17-37 18H799c-8-1-16 0-24-4-3 0-5-2-8-3l-8-7-2-3 3-2c5 5 10 10 17 12 11 4 23 3 35 3h85c13 0 28-1 38-10 9-9 11-23 12-35V172c0-10-2-19-7-27l-10-10ZM972 132h100v1l-3 3-93-1v207l-4 3-1-41 1-172ZM1128 132l101-1v2l-4 3h-94l-20 78c-1 6-7 9-12 9l-7-3-2-4 1-2 2 1c3 5 13 5 14-1l21-82ZM288 133c6 4 11 8 14 14 2 5 4 10 4 16v33h-92l4-4h84v-30c-1-11-7-20-16-26l2-3ZM504 134c5 3 9 8 11 13l1 1c2 8 4 16 4 25v120c1 8 0 16-1 24-1 5-2 11-6 16-4 7-11 13-19 16-6 2-12 4-18 4H362l-18-3-8-4c-6-4-11-9-14-16 2 0 4-2 5 1 4 6 10 12 17 14 12 4 24 5 36 4h87c7 0 15 0 22-2 8-3 16-8 20-15 5-9 6-19 7-29V171c-1-9-2-17-6-25l-7-8 1-4ZM759 138c-1-1-1-1 1-1l-1 1ZM744 150c1-3 2-8 5-9v8c1 2 2 4 1 6-3 2-8 2-11 5l-1 1v-12l5 5-2-5 3 1ZM751 146l2-6 3 2-5 10v-6ZM739 166c3 2 6 0 10-1l-1 4-5 2v6l5-2v10l-5-2c0 3 2 6 5 7v18l-8 2 1-2 1-10c1-6-2-12-2-18 1-2-1-4-1-6l1-5-1-2v-1m4 15 3 2c0-1-2-3-3-2Z"/><path d="m216 175 3-2 3 3 3 9-3 4-1 1c0-6-3-11-5-15ZM865 174l3 7c2 6 2 13 2 20v85c0 5-1 10-3 14-3 5-7 9-13 9h-10c-6-1-11-6-13-11l3-2c3 4 5 8 10 9 6 1 13 1 17-4 4-4 5-10 5-16v-95c0-5-2-10-5-15 2 1 3 0 4-1ZM196 178c6-7 20-4 20 6-1 0-3 1-3 3 0-3-1-7-5-8-3-1-8-1-10 2-2 4-2 9 0 13l-3 3c-4-6-4-14 1-19ZM411 176c3-2 7-2 10-1 4 0 9 3 8 8l-3 1c-1-3-3-6-6-6s-7 1-9 4c-2 5-1 9-2 14a53952 53952 0 0 1-1 102c-2-3-3-6-3-10v-97c1-5 1-12 6-15Z"/><path d="m431 177 4-2 3 8 1 21v84c0 6-2 13-7 18-5 4-13 4-19 3s-10-5-13-10c1-1 3-2 4-1 2 3 5 6 9 7 5 1 12 1 16-2 4-4 5-10 6-16v-96c0-5-2-10-4-14ZM624 177c3-3 8-3 12-2 3 1 7 3 7 6l-2 8h-6l1-3 3 1c1-4 0-7-3-9h-7l-5 4v51l-1 7v28c3-2 4-7 8-7l-1 1-7 7c1 9-1 18 2 26-2 1-3 2-2 4-4-4-4-10-4-15v-91c0-6 0-12 5-16ZM648 175h1l3 6 1 19-4 4c-1-9 0-19-4-27l3-2ZM844 175c7-2 18 1 17 9-4 2-2 7-2 10 0 4-2 8-1 12l-8 1c-2 3-3 8 1 11 2 0 6-2 8 0v12l-1 1-7-2c0 2 2 5 0 7l-4 1c-2-5 1-10 3-14l-4-5v-9c0-3 4-3 6-4l-2-1c-2-3-3-7-2-11 2-3 5-4 6-7l3-1c0-3-2-5-4-7h-7l-5 5v51c0 9-1 18 1 26l-1 3v15c0 6-1 12 2 18l-3 2v1c-3-3-4-8-4-12v-96c0-6 2-13 8-16ZM187 197l2-2c3 0 3 3 5 5a18046 18046 0 0 0 81 36c7 2 14 6 18 13l1 2-3 2c-3-5-6-9-12-11l-83-36-3-2c-3-2-5-4-6-7ZM109 206c2 5 5 11 9 15 7 6 16 10 24 14l62 25c5 2 12 5 12 11l-2 1v4l-1-2c0-5-4-8-8-10l-68-27-17-9c-7-5-12-12-14-20l3-1v-1Z"/><path d="M661 218c4-1 9 0 14 1 7-1 15 1 22 1l4-3 5 1h33l2-1 7 1v24l-1-1c-2 4-5 7-9 7-6 0-10-4-13-9-4 6-13 5-17 0-3-2-4-5-5-8l-7 2v24h-30l-1-19v-9c-6 1-14-2-20 2l-14 7c-3-2-1-6-2-9l4-1c-1 1-2 2-1 3l1 4 6-4 21-9 4-2c-3 0-6 0-8-2 1-1 3-1 4 1l1-1m46 11c0 5 3 9 8 8 2-2 1-5 2-8h-10m21 0c1 4 2 9 6 11 2 2 4 4 7 3l-2-14h-11ZM1053 233l3 5 27 104-3 4-3-9-24-93c0-3-1-6-3-8l3-3ZM1164 235l1 1 1 15v91l-3 3-1 1v-90l-1-19 3-2ZM1044 238c2-1 4 1 5 2v2l-2 3-1 1v107h-81l3-4h74V249c0-4-2-9 2-11Z"/><path d="M1150 244c1-2 1-5 4-7l4 2v2l-3 5c-2 2-2 5-3 7l-26 100-39-1-6 1h-7l3-4h46l27-105ZM295 239l6 8c5 11 5 24 5 36 0 15 2 31-4 46-6 14-22 22-37 23l-13 2h-95l-11-2c-9 0-18-4-26-8-4-2-6-6-9-9l3-2 12 10c10 5 21 6 32 6h94c13 0 26-1 36-10 10-7 14-19 14-30v-39c-1-10-3-20-10-28 2-1 3-1 3-3ZM632 239c3 4 1 10 2 15l-2 6c-3 0-2-3-3-5l3-16ZM846 259l1-3 6 1-3 1v10l9 2v7h-9l-3 1 1-5c1-3-1-5-2-8v-6ZM730 261l4-3v51l7-3 4-2-4 5-4-1c-4 2-3 7-4 11l-4 12-5 7c-4 4-8 8-14 10-9 3-18 4-27 5H575c-13-1-25-6-34-15l-2-3c-2-2-3 2-4 3l-10 1-2 2 6 1c-3 1-6 2-9 0l1-2 4-6-3-4 3-1-1-5 2-3-1-6 1-15 3 1-2-8h4v11l-3 2 2 5 5 16 1 2c1-1 3-2 4 1 3 5 7 9 13 12 9 6 20 7 31 7h90c6 1 13 0 19-1 10-1 21-4 28-13 7-8 8-19 9-30l-1-38 1-6m-201 72 3 1c2 1 3-2 2-3-2-1-4 0-5 2Z"/><path d="M220 262c6 8 6 19 5 29 0 10-9 20-19 19-7 0-13-3-17-8l2-2c2-1 3 2 5 3 3 4 9 3 13 3 7-1 12-9 12-16 1-8 1-18-4-25l3-3ZM649 265h77v1l-3 3-18-1h-52v18c0 6-1 12-5 16-3 5-8 8-14 8-8 1-17-4-20-12l3-2c2 3 4 7 7 9 8 4 20 1 23-8 3-11 1-22 2-32Z"/><path d="M197 267v10c0 5-1 11 1 17l-3 3c-2-2-2-6-2-9v-17l4-4ZM111 275h79l-1 1-3 3-71-1v24c0 7 0 14 2 20 1 4 4 7 7 10l-2 4c-8-5-10-16-11-25v-36ZM743 316l6-1a397 397 0 0 0 0 7c-6 0-10 6-10 12h-3l2-6 3-5v-5a510 510 0 0 0 0-1l2-1ZM0 400c4-1 6-5 9-7h89l-7 7c1 7 2 14 1 21l-1-20-84-1-7 1v-1ZM1259 393h65l9 1c4 1 7 4 10 6l-77 1-7-8ZM108 418h41v1l-6 6h-41l6-7ZM253 418l75 1-3 6h-75l3-7ZM338 418h84l-2 7h-85l3-7ZM428 419l74-1v1c-1 2-2 4-1 6h-75l2-6ZM532 418h50l1 6-1 5v-4h-51l1-7ZM608 418h53l9 59-2-6c-1-4 0-9-2-12l1-1-3-21-2-12h-54v-7ZM684 418l53 1 2 6h-54l-1 3v-10ZM778 418h57l6 1c0 3 2 5 3 7l-8-1h-56l-1 24-1-4v-27ZM869 418l62 1h1l5 7-20-1h-45l-3-6v-1ZM986 418h48c4 0 6 5 8 7h-51l-5-6v-1ZM1050 418l33 1 6 6h-33c-2-3-3-5-6-6v-1ZM1106 419l33-1 6 7h-33v1c-1-3-4-5-6-7ZM1161 421c3-2 6-3 10-2h26c4 0 8 0 11 3l6 5c-4-2-8-2-12-2h-22l-12 3c0-4-4-5-7-7ZM569 443c2-2 4-4 7-4-2 1-5 2-5 4l4 3h7l-2 2c2-1-1-2-3-2-2 1-5-2-7-3l-4 2 4 4c2 4 6 5 9 8l3 2 2-3-1 3h4l-1-5c2 4 2 9 2 13-2-2-4-5-7-6l-4-4h-2l-2-3-6-6-5-7c2 2 5 3 7 2ZM285 452h1v21l3-5h25v1l-4 6h-25v-23ZM461 452h2v15l25 1v21c0 3 0 5-2 7v-12l-1-1 1-1v-7h-25v-23ZM52 456h30l-7 7H45l7-7ZM703 460c1-2 0-4 2-5v30c0 8-2 17 0 25 3-2 2-6 2-10h2l4 1 2 2 6-3 2 4 1-4c4 0 7 3 10 4v12h3l2 9v25h-5l-6-3h-1l-2-3-7 2-2-2-5 3c-2-2-5-4-4-7v-29h-3v39l-1-11 1-69c0-3 1-7-1-10m30 63c-1 4 5 3 5 0h-5ZM1277 474l6-15c4 2 8 1 11 3l-7 17-1 2-9-7ZM1325 464l1-2v1l7 6-8-5ZM816 467c4 0 8 1 11-1 0 3 1 5 3 7-5 2-10 1-14 1v-7ZM909 470c3 0 7 1 10-1 2 2 2 6 5 6l-5 2h-10v-7ZM193 470h11c0 4-3 7-7 7h-9l5-7ZM1109 470l3 1v6h-3v-7ZM367 473l3-1h2l-3 1-6 6v-2l4-4ZM218 479l3-2c2 1 3 3 3 6h-5l-1-4ZM1314 477l3 1v2l3 2-5-1-1-4ZM292 479h14l1 3h3v5l-3 1-5-2-1 2 2 2-6 3h5l-2 1a417 417 0 0 1 5 3l1 1-17 1c-3 0-7-2-8 2l5-1c-1 3 1 7-1 11-2-1-3-3-5-2 0-2-2-2-4-1 2 3 6 3 10 4v12l-2 2c3 0 7 1 9-2h-7l3-7h13l3 1-1 1c-2 3-5 5-9 7l7-1c2-2 2-5 4-6l11-4-12 3c-1-3 0-6 1-8h21c0 3-4 2-6 4l7-3v-3l-24-1 4-7h25v1l-3 6-1 14h-4l4 1-1 16h-3a118 118 0 0 0 0 3v-3h3l-1 12h-49a217 217 0 0 1-1 0h-27l2-4v-21l5-1v-15l1-11 3-1 2 6c1 2 3 1 5 2-2 1-4 1-5 3l5-2h6l-4-2c0-4 5-4 8-4 2-3 1-7 5-8 2 2 5 5 9 6l1-3 4-2-5-2 4-6h-4l-1-2-2-1 3-3m18 43c0 3 3-1 0 0m-45 8 1-1c0-2-3 1-1 1ZM56 481l2-2 2 3 2-3c2 2 3 5 6 6h-7c-1-3-3-4-5-4ZM540 479c3-1 0 3 0 0ZM929 480c-2 1-3-2 0-1v1ZM200 480l2 1-6 6c2 1 4-1 6-2l3 3 8-2-2 3h5v-4l5 3-2 1c-1 2 1 3 2 3 4 2 8 4 11 8h5c3 7 1 14 1 21 0 2 2 0 2-1l2-3 5-1-4 5v29h-38v-37l2 2c1-4 2-8-1-11h-3c-3-2-7-3-10-2h-6v13l-1 3c2 4 1 9 1 13l-2 1 3 2-3 3h2l1 2c-6 0-11-3-16-2l8 1v2l2 1v-2l5 1v10h-36l2-2v-8h-2l2-15 5-1v-26l4-2 2-2-5-2h6l2-3 2 2-3 4 5-1 4 1 2-3-4-2v-3l6-3h16c2 0 4-2 5-4m4 14 4 1c2 1 1 3 2 5h2c2-2 2-5 2-7l-2-3-8 4m32 31c2 0 4 0 6-2-2 0-4 0-6 2m-30 3v5c0-2 3-5 0-5m0 11v10c1-1 2-1 2-3-1-2 1-6-2-7ZM227 480l4 1-2 2-4 3 2-6ZM109 481h2c2 1-1 2-2 2v-2Z"/><path d="M468 481c3-1 1 3 0 0ZM693 482h6l-1 6c-1-3-3-4-5-6ZM911 481h1c0 5 5 7 7 11l1 2-3-1 1 8h-1c-1 0-2-1-2 1h-6v48h-36l2-1v-7l-1-17h5v-3l-7 1-3-7h5c1 1 0 5 3 5l3-1v-11c1-3-1-6 2-8 1-2 3-4 6-3l-5 2c1 2 3 1 4 2l6 1-2-3 2-2 2 6 5 1c0-2-3-3-4-4l4-4-3-1 7-6h5l-2-2 6-1a341 341 0 0 0-1-2l-1-4m-13 63c1 3 3-1 0 0ZM1326 485v-4l2 2 2-2 2 2 7 3-1 3-4-4c-2 0-2 2-3 3l-2-4-3 1ZM138 481v41l6-6h5l-6 5v29h-41l2-7v-18l4-1 1-13c0-4-1-9 2-12l7-7 3 2 3 1-3 3c0 1 1 2 3 1l6-3c2-2 2-5 3-7h4l1-8m-1 42-1 2c2 0 4 0 6-2h-5ZM447 482c1-1 4 0 3 2-1 1-4 0-3-2ZM850 485l4-3c5 3 9 7 10 12l-14-9ZM279 489c2-3 4-6 8-6v4l-4 1c-1 3-5 3-8 4l2 2c-2-1-3 0-3 1l3 1-4 3h-4v-3l-2-2-2-2h-3l-2 3-4-1 2-6h5c2-1 3-3 5-3l4 6h3l1-3 3 1ZM475 483c3-1 0 3 0 0ZM888 483c4-1 0 3 0 0ZM934 483c1 0 3 0 3 2-1 1-6-1-3-2ZM1026 483c3-1 0 3 0 0ZM1202 483l10 1-2 3-7-1-1-3ZM627 485l2 1h3l3 1c-3 0-4 2-5 3l-5 1c1-1 2-1 2-3h1l-3-2 2-1ZM682 485h5c1 1 0 3-1 4l-4-4ZM19 488c2-2 5-3 8-3l-2 3h-6ZM942 488l6-3-2 2c6 2 8 7 11 11-4-4-10-7-15-10ZM1128 485c3-2 1 3 0 0ZM1131 485c1 1 1 1 0 0ZM29 486c3-1 0 4 0 0Z"/><path d="m32 489 5-3 1 4 4-1 3 4v23l5-4 7-1-7 6 1 29v3l-1 1H1l2-5v-25c1-1 5 1 6-2l1-25 5 1-3 3c2 1 3-1 4-1 1-5 6-6 9-7l5 5 3-1-1-4m11 31c3 0 6 0 7-2-2 0-7-2-7 2ZM462 486c1-1 4 0 3 2-1 1-4 0-3-2ZM541 489c2-3 5-3 8-3-1 4-5 1-8 3ZM549 494l2-8-1 5h11l1 7h-13l-1 1-3 1c0-2 3-3 4-6ZM566 488l6-2 2 3c0-3 2-3 4-2l-4 2 2 3c-4-1-6 4-10 2-2-1 0-2 1-3-1-1-2-2-1-3ZM846 486l8 5 2 4 2 2c-2 1-5 0-7-2l-1 5-5-3 4-3-5-2 3-4-1-2ZM931 486c2 0 3 2 4 4h-4v-4ZM1041 490c-2-3 1-3 3-4 2 2-2 4-3 4ZM1231 486h1v36c0 8-6 13-10 19-4 4-7 8-13 9h-28c-4 0-9 1-13-2-5-3-8-8-12-12l1-1c-3-2-5-5-5-8l2-1c0-4-2-7-1-11 1-5-1-11 1-16l5-2c3 0 6 2 9 1l2 2 3-3 2 2-2 3 6-1 2 2 1-1 1 14c3 0 6-1 8-3l7 8c-4 4-11 2-15-1l1 3c4 3 8 2 12 1 3-1 5-4 6-7l1-21c2-1 5-1 8 1 3-2 7-1 9-4l1 5c2 2 6 2 9 1l2-2-7-4 6 1v-8ZM714 487c2 0 3 0 2 2-2 0-2 0-2-2ZM984 487h2c3 1-1 4-2 1v-1ZM1116 487c3-1 0 4 0 0Z"/><path d="M1226 487c2 0 3 2 1 3-2 0-2-2-1-3ZM642 488v34l-5-5c-3-2-3-6-4-9l-8-4v-1c2-2 5-2 8-2l2-2 3 2 1-2 2-2 1-9ZM788 488c2-1 2 0 3 1-2 1-2 1-3-1ZM1178 489l4-1v2l-3 3-1-4ZM725 489c3-2 1 3 0 0ZM1004 489c2-1 3 2 1 2-2 1-3-1-1-2ZM1082 489c2-1 3 2 1 2-1 1-3-2-1-2Z"/><path d="M1085 489c4-1 3 4 4 6l4 5 4-7 1 5-3 1 3-1 3 18v4l2-2 4-25 6 2 3 1 1 4c4-2 10-2 14 0l-3 2 1 2 2-2 2-3-8 51h-49c1-1 3-2 2-4l-3-17c0-7-2-13-3-20 0-4-2-7-1-11 3-1 3 3 3 5l3-5h2l-3-3c4-1 8 3 11-1l-2-5ZM447 490l5 1v3c3-1 5-2 7 0l-5 4-2-3-5-5ZM472 492l6-2 2 2 2-1-1 2 4 1c0 3-4 2-6 4h-1c1-2 0-4-2-6h-4ZM808 490c1-1 4 0 2 1-1 1-3 1-2-1ZM1048 490h3l1 3h-3l-1-3ZM1125 490c1 1 1 1 0 0ZM1203 490l3 4c-3 2-3-2-3-4ZM1316 490l4 1 1 2c4-3 9 0 13-3 4 0 8 0 11 3v25c0 4-1 8-3 11-5 7-11 13-17 18-2 2-6 3-9 3h-50l2-2c-3-16-4-32-4-48h21l4-2h-28v1c-1-4-5-6-8-7l1-1h26l7 5c1 1 2 1 2 3l2 16c3 0 5 0 8-2l9 6c0 1-1 3-3 3-4 1-8 0-13-1l-1 2c5 1 11 2 16 0 3-1 5-4 6-8l1-21 1-1 1-3m-29 59h2l5-2c-2 0-5 0-7 2ZM524 491c1-1 4 0 3 1-1 2-4 1-3-1ZM544 491c2-1 2 0 3 1-2 1-2 0-3-1ZM658 491c3 1 5 1 7 3l-5 2-2 5 2 2v2l5-1-3-1 1-2 5 3 5-5v2l1 3c3-2 4-6 3-9l3 4c3 1 5-2 6-4l-1 4 6-4-2-2 7 3-11 54h-3v-4l-9-2c-3 0-3 4-3 6h-9l-2-11c1 3 1 7 3 10 2 0 2-2 1-4l-2-8-3-1h3l-3-15c-1-8-4-16-2-25h3l-1-5ZM792 496c0-3 3-5 6-5l1 4-3-2c-2 0-3 2-4 3ZM1011 491h7l3 5 2-3v5h-13l1-7ZM1073 491c1 0 3-1 4 1-1 1-5 2-4-1ZM303 492c1 1 1 1 0 0ZM364 492c4 0 4 5 6 6l-3 2v1l8 2-2 5-2 1 6 1v2l2 1 5-4 8 2v-18l1 27 2-4h5v1l-3 4 1 26-1 3h-42l1-27c1-3 2-6 5-8v8h-5c-1 4-1 8 1 11l1-9c2 0 5 0 5-2l1-24v-7m27 33c2 1 5 0 6-3-2 0-6 1-6 3m-12 5v2-2m-23 7v13l2-2v-12l-2 1ZM619 492c3-2 0 3 0 0ZM997 492c1-1 3 0 4 1-1 2-4 1-4-1Z"/><path d="M1037 492c5 3 11 2 17 4l3 20 2 6-2 2c0 2 2 1 3 2l3-3v27h-34v-1l2-1c1-6-1-12-2-18l-2 1-1-4c3 0 2-3 3-5l-3 1h-19l-3 27h-33l-1-1 3-2v-21l2-3h-5l-4-7h5l3 5 2-2 1 6c3-4 2-10 3-15 1-4 3-9 3-14 2 0 5 0 7 2l-3 4 5 1v-4l3 1 1-2 5-1-1-2 2 2c2-2 3-3 5-3l-1 3 3 4 19-1c2-1 1-2 1-4l2 3 4-4 2-1v-2m-54 40 3-1c-2-1-2-1-3 1ZM1047 492c1 1 1 1 0 0ZM1118 492l5 4-6 2 1-6ZM371 493c1-1 4 1 3 2s-3-1-3-2ZM630 492l6 3c-1 1-3 2-4 1l-2-4ZM1209 493c2-1 2 0 3 1-2 1-2 1-3-1ZM433 494c2 2 4 2 6 1l2 2c1-1 2-2 3-1l2 4c2 2 5 4 6 8l9-3v-7h2v19h15v-3l1 3c-1 2-3 4-1 6 2 1 2-1 2-3l2-9 20-1c2 1 3-1 3-3h-25l2-7h25v1c-2 4-1 7-1 11-1 5 0 10-2 15v10l-6 1 4 2-2-2h4l-1 6-3 4-1-5c-1 2-2 3-4 2-3-1-5 3-7 1v-3l-12 1-7 6-4-1 3-2h-9c3 1 2 2 0 3h-33l3-3c-1-4-1-8-4-11v-1c3-2 3-6 2-9 2-1 4 0 5-2 2-4 1-8 1-12v-18m11 12c1 1 1 2 3 1-1-1-1-2-3-1m17 18-1 2h17v-2h-16m-25 4c-2 0-1 3 1 2 1 0 1-3-1-2ZM1072 494c1 1 1 1 0 0ZM1156 494c1-1 4 0 3 1s-4 1-3-1ZM382 499c2-2 5-4 8-3-1 1-2 2-3 1-1 2-3 5-5 2ZM523 497l4-1c-1 1 0 3-2 4l-2-3ZM540 496c2 0 3 2 3 3-2 1-5-2-3-3ZM816 503v-7 20c4 0 9 1 12-1l5 6c-4 3-9 3-14 3-2 0-3 0-3 2 6-1 13 2 18-3 6-5 3-13 4-19 5 3 10 5 16 5l-1-4-3-2c3-1 5 1 8 2s6 2 9 1v19c-1 6-5 10-9 15-4 4-8 9-14 10h-13c1-3-3-3-2 0h-32l-2-5-2 1c-2-2-5-2-6 0l-5-3v-17c2-1 5-1 5-3l1-18 4-4 7 2-3 3h4l-1-2c3 1 7 0 9 2l3-3h5m44 8c0 3 3-1 0 0m-56 2c0 4 3-1 0 0m18 30c-1 1-4 2-2 2 1 2 4-2 2-2ZM948 497l1 4c3-1 6 0 9-2 2 5 1 11 2 16l5 8v27h-36l1-13v-20l-1-6-2 1v-2h3v-5h12c-1-1-2-2-1-3l4 3c3-2 3-5 3-8Z"/><path d="M458 498c3-2 0 3 0 0ZM810 499c3-2 0 3 0 0ZM924 500c1-1 4 0 3 1s-3 0-3-1ZM943 500l2 2c-2 0-2 0-2-2ZM534 501c2-1 2 2 1 2-2 1-2-2-1-2ZM547 501c3-1 0 3 0 0ZM580 506l5-5 1 2h2l1 1c-2 1-4 1-5 3l10-4 3 11v1l5 1v34l-1-6c-3 2-7 1-10 1h-8l-8 1-2 4h-4c1-1 3-2 2-4l-2-13-3-1 1 5-2-12 1 7 3-1-1-9-3 1h-18l-4 27h-1l-4-4c1-2 3-2 5-1l-1-3-5 3c-4-1-7-3-11-2-2 0-2 2-3 4l-5-2 4 3h-5l-3-6h-2v-17h4c2-2 1-4 1-6l-3 4h-5c1-2 1-5 3-7h4c0 1 0 4 1 3s1-5-1-4v-3l3 1c1-2 0-6 4-7l1 2 3 2 2-1-3-2 7-1-1 3 7-1 6-3 2 3 5-2 1-2 2 4 5-2-1 3 5-2 1 3 9-1c2-1 5 1 7 1l-1-4m-31 3c1 2 1 2 3 1-1-1-1-2-3-1m-21 10c0 4 3-1 0 0Z"/><path d="M568 509c0-2 1-4 3-3 1 2-2 3-3 3ZM618 510l6-1 4 3-1 2h2v-1l4 3c1 5 6 7 9 11l1 23h-36v-27l1 8v18c2 1 3-1 3-3 0-7-2-14-1-20 2-1 5-1 6-3-1-3-3-1-4 0h-5l1-7h5c0 1 0 4 2 4v-10l3 5h3l-3-5ZM0 517l6-4 1 4-7 1v-1ZM249 523l5-8v8h-5ZM428 516l2-1v8h-5l3-7ZM778 516h4l2 5-5 2v23l-1-30ZM101 523l5-5v5h-5ZM150 523l5-5 1 5h-6ZM567 540c2 1 2 3 1 5l-1-5ZM590 548c0-3 7-4 6 0-1 3-4 1-6 0ZM531 547c3 0-2 3 0 0ZM536 548c3-2 1 3 0 0Z"/></g><g fill="#f5e1a1"><path d="M781 8c6 0 11-2 17-4 2-1 4 0 6 1v4c-11 3-21 8-32 10-4 1-8 4-12 4l-10 1 1-2-15 4-12 1c-5 2-11-1-16 0l-6 1c2-2 5-1 7-2l21-6 23-4 22-5 6-3ZM565 18c4 0 8-4 12-3 9 0 18-2 27 2 4 3 9 7 9 13l-3-1c-2-3-5-6-9-7l-11-4h-25ZM818 22c4-1 7 1 11 2 6 3 12 4 18 5 3 1 6 0 8 2-5 3-10 1-15 1-6-1-12-4-17-6l-5-4ZM1014 36c8-2 16-2 22-6l3 2c-6 7-16 10-24 13-6 1-12 4-19 4h-10l-1-1-19-1-22-3-14-2-1-1c11-3 23 0 35-2l28-1c7-2 15-1 22-2ZM671 32h11l3 1-7 4-5 1c-8-1-14 4-21 5l-4-1c7-5 15-7 23-10ZM617 47l9-16c1 3 3 6 2 9l-3 9c3-4 5-9 9-11 1 3-1 5-2 8-4 8-11 13-15 21l-9 11-8 10-5-1-6-7 1-7h1a902 902 0 0 1 0 6c3-2 4-5 6-8v5l3-4 2 1 6-9c4-5 5-12 9-17ZM785 32l11 1 21 3c0 1-1 3-3 2-6 1-12-1-18-1l-7-2-4-3ZM666 45c4-1 8-4 12-3l-2 3c-5 2-9 6-13 10l-5 5c-2-6 4-11 8-15ZM771 44l18-3v4c-6 3-12 0-18 0v-1ZM860 49h6l49 10c6 1 12 0 18 2s11 1 17 2l14 1c-1 4-5 5-8 7-4 3-9 3-14 3l-3-1 6-4-13-3c-13-3-26-3-38-6l-24-6c-3-2-7-2-10-5ZM755 49c3 0 5 2 7 4l-1 2c-2-1-5-3-6-6ZM637 72l14-10v6l-12 11-10 8 1-3-2-1v-2l9-9ZM833 66l9 3c5 0 9 3 14 4 10 4 20 6 31 8 4 2 9 1 13 3l-1 2-18 2c-8-1-17 0-25-3v-1h11l-14-5v-3c-7-4-15-4-20-10ZM701 78l7-4c-2 6-6 13-12 16-6 2-13 5-19 2l9-3c6-1 12-6 15-11ZM760 99c1-6 8-11 14-9 6 6 9 14 13 21 2 5 2 9 2 14h4l34-1c4 1 7-1 11-3l29-11c2 1 3 2 3 4l-25 10h10l18 1h7c17 0 36-2 52 7l-2 3c-11-5-23-6-35-7h-89l-17 1c-12 1-23 6-30 16-6 10-8 22-7 33v124c0 8 0 16 3 23 1 2 3 5 3 8l-3 1-2-5-14 5c0-6 4-12 10-12l1-2-1-5-6 1v-8l5-3V190c-3-1-5-4-5-7l5 2v-10a201 201 0 0 1 1-13l-8 2c-2 0-2-2-2-4 3-3 8-3 11-5 1-2 0-4-1-6v-8l2-1a344 344 0 0 1 0 12l5-10a118 118 0 0 0 4-5l6-5c0-12-2-24-1-36l-5 3m12-1c-2 11 0 22-3 32l7-2 3-1 8-2c-1-6-4-11-7-15s-4-9-8-12ZM731 111l3 3-3 3-2-4 2-2ZM718 117c3 0 7-2 9 1l-9 1-8 1c2-3 5-2 8-3ZM638 118c7 0 14 0 20 3-7 5-14 10-23 12l-15 5c-5 1-10 4-16 4 3-3 8-3 10-6l6-5 8-7c3-2 7-3 10-6ZM559 122l2-1 4 2v3c-3 0-6-1-6-4ZM964 124h114v1l-3 3H968v221l-3 4h-1V124ZM1122 124h92l23 1h-1l-3 3h-108l-21 85c-1 3-5 3-7 1l3-3 3-10 19-77ZM119 135c11-8 25-10 38-10h96c12 0 24 2 34 7-1 2-3 3-5 2-10-5-21-5-32-6h-82c-13 0-26 0-38 5a34 34 0 0 0-22 33v30l1 10v1l-3 1-2-13v-29c0-12 5-24 15-31ZM343 129c13-5 27-5 41-4l81-1c12 1 24 2 34 7l2 2c-1 2-3 2-5 1-10-5-22-5-33-6h-92c-11 1-23 2-33 8-8 4-13 11-15 19l-2 15v132c0 8 1 17 4 25l-4 1c-3-9-4-19-4-29V173c0-9 1-18 6-26 4-9 11-15 20-18ZM658 128c2-2 4-4 7-3 11-1 22-1 33 1l4 1 11 4-2 2-14-3c-13-2-26-2-39-2Z"/><path d="m1069 136 3-3 16 63 5 19-2-1-1 2-19-71-1-6-1-3ZM1229 133v213h-53l-13-1 3-3h59V136l4-3ZM531 168c1-12 5-26 15-34l1 1-2 6-4 6c-5 9-7 20-6 30v131c-1 6 1 12 3 17l-3 2-5-16-2-5 3-2V168ZM747 138l6-3c2 0 4 2 4 4-3 1-6 0-10-1ZM731 138c2 0 4 1 4 3l-3 1-1-4ZM716 143c6 6 8 15 9 24l1 37h-77l4-4h69v-23c0-9-1-19-5-27l-2-3 1-4ZM933 147l1-3c6 5 8 14 9 22v136c0 10-2 22-7 31-4 6-11 9-18 11l-15 2H793c-9-1-20-3-26-11v-4c7 9 21 11 32 11h93c10 0 21 0 31-4 7-3 12-10 14-17 4-14 2-28 3-42v-51l-1-51c1-10 0-21-6-30ZM503 149l2-3c5 7 7 15 7 23v127c0 8 0 15-2 23-2 7-5 15-11 19-7 6-17 7-26 8h-90c-13 0-26 1-38-4-4-1-8-4-11-7l2-4c7 9 20 11 31 11h85c11 0 22 1 32-1 6-2 13-4 17-9 5-7 6-15 7-23l1-37v-96c0-8-1-17-4-24l-2-3ZM290 150c1-1 1-3 3-3 3 5 5 11 5 17l1 25h-77l3-4h70c-1-9 1-18-2-27 0-3-2-6-3-8ZM564 157l1 1v10h-1l-1-1-1-5v-1l2-4ZM194 170c7-4 16-4 22 1-1 3-5 1-7 1-7-3-16 1-19 8-2 4-1 9-1 14l-3 1c-3-9 0-20 8-25Z"/><path d="M406 171c8-6 21-5 28 3l1 1-4 2c-2-3-5-5-8-5-7-2-16 1-19 7-2 6-2 11-2 17v93c0 2 0 5-2 7l-1-1-1-15v-89c0-7 2-15 8-20ZM615 177c6-11 23-13 32-4-4 2-7-1-11-1-6-2-14 1-18 7-3 5-2 11-2 17v88c0 4-1 8 1 12l-3 2-2-10v-90c0-7 0-15 3-21ZM834 175c7-10 23-10 31-1-1 1-2 2-4 1-6-5-16-6-22 0-5 4-6 12-6 18v79c0 8-1 16 1 24l-3 2c-2-6-2-13-2-19v-81c0-8 0-17 5-23Z"/><path d="M643 181c3 9 1 17 2 26l-4 4c2 1 3 2 2 4l-4 1 2-6v-11l-2-3c-1-2-3-4-2-7h4l2-8ZM213 187c0-2 2-3 3-3l2 8-4 4-1-9ZM428 186h3v101c0 5 0 10-4 13s-9 4-13 2l-6-4c0-2 0-4 3-4 1 3 3 5 6 5 2 0 6 0 8-2 2-3 2-7 2-11v-96l1-4ZM859 188l3-2v104c0 4-1 7-4 10-5 4-14 4-18-2l3-2 2 2c3 1 7 2 10-1 3-2 3-6 3-9l1-8a337 337 0 0 1 0-10v-12a475 475 0 0 1 0-51v-19ZM198 197l3-1 2 1 77 33c6 2 11 5 15 9 0 2-1 2-3 3-3-4-8-7-12-9l-34-13-29-13c-6-2-12-4-17-8-2 0-1-1-2-2ZM633 217c-1-2-3-5 0-5 3-2 3 2 3 4l-3 1ZM117 214l4-1 4 5c6 5 14 8 21 11l61 24 11 7c-2 4-6 0-8-2l-50-20c-11-4-21-8-31-14-5-2-8-6-12-10ZM643 223l6-4 6 1c-2 3-6 4-9 6-4 3-10 3-14 5-1-1 0-2 1-3l5-5h5ZM712 229h2c-1 2-2 2-2 0ZM732 229h4l1 8h-3l-2-8ZM1151 230c3-1 7-1 10 1l3 4-3 2c-1-2-5-5-8-4-3 2-5 5-6 8l-20 79-7 26h-40l3-4h34l16-59 12-48 6-5ZM1040 231c4-2 8-2 11 0l-2 3h-7c-3 3-5 7-4 11v101l-66-1 4-3h58V241c0-4 3-8 6-10Z"/><path d="m1155 246 3-5v108l-4 4 1-73v-34ZM1047 245l2-3 28 107-3 4-21-82-7-25 1-1ZM292 256l3-3c5 15 3 31 3 46 1 12 0 25-9 35-7 8-19 11-30 12H157c-12 0-25-3-35-10l2-4c9 8 21 10 33 10h87c13 0 28 1 39-7 9-7 12-18 12-29l-1-39-2-11ZM641 257h55a373 373 0 0 0 38 0v1l-4 3h-85v23c0 5 0 12-4 16-5 5-14 4-18-1-1-2 0-3 2-4 1 2 3 4 6 4 2 0 5 0 7-2 3-3 3-7 3-11v-29Z"/><path d="m723 269 3-3v38c0 6-1 13-3 19-2 7-7 14-14 17-11 6-24 6-37 6h-89c-8 0-16-1-24-4-6-2-10-7-14-11l2-4c2 4 6 8 11 10 8 4 18 5 27 5h95c11 0 23-1 32-8 7-5 9-14 10-23l1-42ZM104 267h93l-4 4h-85v40c-1 8 2 16 6 22l-3 2c-5-7-7-15-7-24v-44ZM214 272l2-1c2 8 3 16 0 24-1 6-8 9-14 7-3 0-5-3-7-5l3-3c1 3 3 5 6 5 4 0 7-1 9-4 2-6 1-13 1-19v-4ZM186 279l3-3v15c1 3 2 6-1 8-3-6-3-13-2-20ZM529 333c1-2 3-3 5-2 1 1 0 4-2 3l-3-1ZM537 339l2-4 2 3-1 1c-2 0-5 1-5 3h-2c-1-1-5-1-4-3h8ZM317 364h13l-1 1-1 2v26l2-1 4 2 16 1c3 0 7-1 7-5v-26h12l-1 5-1 22c1 3-1 6-2 8-3 2-6 4-9 4l-27-1c-3 1-6-3-8 0l-2-2c-2-3-2-7-2-11v-25ZM404 369c2-4 6-5 10-5h23c4 0 9 0 12 3h-3c2 3 3 5 3 8-3 1-8-2-9 2h-1a1472 1472 0 0 0-3-4l2-2h-22c-3 1-3 5-3 7l2-1 1 2h3l24 1 5 1 2 1v10l-1 7h-31c-4-1-8-2-12-1v1h6c2-2 5 1 7 0h21c3 0 6-1 9 1-6 3-13 4-20 3l-18-1c-2-1-5 2-7-1-1-3-2-7-1-10h12l-3 4 26 1 2-3v-2l-1-2 2-1-14-1-15-1c-2 0-5-2-7-1-3-5-3-11-1-16ZM512 364h21l3 4-1 1c2 0 3 2 2 4h3l-1 2 1-1c1 3 3 7 6 9h-3l2 1 7 12 3-2h1l-1-30h13v1l-2 1v37a570 570 0 0 0-19 2 4018 4018 0 0 1-21-30v-3l-4 1 1 30h-8l-3 2v-41ZM591 364h20v5l8 16 5 11-7 1v1l8-1 3 5h-8l-1 2h-2l-1-2-1-3v-3h-14l-15-1-3 7c-4 1-8-2-11 2l-2 1 2-4 19-37m7 9h-1l-6 13-1 4 2-1h18l-6-12-2-3 1-2c-2 0-5-1-5 1ZM625 364h14v6l12 25 2 1v-2h3l14-30h28l-1 3c5 5 8 11 13 15l2-2c3-6 8-11 12-16h16l-1 1-6 3c-6 7-11 15-18 21l1 1 1 14-9-1v1h-3v-14l-18-20c-1-1-3-4-5-3l2-1c-1-1-3-1-3 1l-6 11-2 5-4 7-2 3h3l-2 1c1 1 0 2-2 3v2c-1 1-2 3-1 5h-20l-16-32-4-8ZM773 367c2-3 6-3 10-3h25c3 0 7 1 9 4-4 1 0 5 0 7h-9l-2 2-1-3v-3h-21l-4 2c0 2 0 5 2 6h5l21 1 2-2-1 2 6 1 3 3v1l1 13-2-1-2 3-9 3-25-1c-3 0-6-2-8 0-3-2-3-7-3-11h12l-2 5 2-2c3 2 7 2 10 2l14-1c2 0 1-2 2-4l-2-2 1-2h-14l-5-1-11-1-1 3c-2-1-4-3-5-6-1-5-1-10 2-15ZM827 364h44l-2 3 1 5h-33v9l2-1 4-1h27l-2 3v4h-28l-4 2c3 2 1 5 0 8l7-1h29l-1 1c-2 1-1 4-1 6h-42l-1 3v-41ZM894 364h20l-1 3 10 20h-8 8l2 5 4 7h-8v1l9 1 1 1h-8l-1 2h-2a754 754 0 0 1-2-9l-30 1 3 2h-1l-4 5v1h-13l3-5 18-35m7 9 1 2h-2l1 2h-2l1 2-2 1 1 2-2-1 1 2h-2l-1 5h-1 1l18 1-6-12-2-4h-4ZM937 364h13v4l-1 27 5-1h25l-1 2v8h-41v-40ZM984 373c4-3 9-3 14-3 7 0 15-1 22 1 2 1 5 1 5 4h1v5h-11l-4-2 1-2-18 1-1 2-1 4 3-1h1a306 306 0 0 0 27 2l4 2-1 1-1 3h-12l-19-1h-10c-3-5-3-11 0-16ZM1004 392l11-1h11c0 3 0 7-2 10l3-1c-1 1-5 1-5 4h-8c-9 0-18 1-27-1-2 0-3-1-4-3l-1-2v-4h12l1 2h-2l1 2 2-2c6 2 13 2 20 0l-1-3c-3-2-7-1-11-1ZM380 394h13c-3 2-3 5-3 8h-8l-1 2-1 1v-11ZM463 394h13c-2 2-2 6-1 8-4 1-9-1-12 3v-11ZM0 401l7-1 84 1 1 20 2 31H64l-3-17c-1-4-6-2-9-2h-8v30h31l-2 3H46c-3 1-7 3-6 7l-1 1-5-5a386 386 0 0 1-1-1l-3-3-6 2 1 3h-4l1-3c-4-2-9-1-13-2v16c-2 4-1 9-3 12v-60H0v-32m9 54c0 4 3-1 0 0m3 3c-1 2 2 3 2 1 2-1-1-2-2-1ZM1266 401l77-1 4 4v5l-15 37-7-1 3 5c-1 2-4 3-7 4l-1-1-1 1-4-8-6-1c-1-1-2-2-4-1l-5 11-10 22c0 2-2 3-3 4v-2l7-17 14-33h-12c-2 0-4 0-5 3l-4 18h-24l-1-1 4-48ZM101 425h42v7l-1 17c-2 1-4 1-5 3v9l-6-1v-3c-3-1-6-2-8-1-1 1 0 3-2 2l-3-3v3l-5 2c2 2 2 5 1 8l-2-1-3-4v20l-1 5c-2 3-1 7-2 10v-45h-5v-28ZM150 425h57c4 0 9 0 12 3l13 11 5 10-1 4-7 2-1 2h-3v3l-1 1v3h-10c-2 0-4-2-6-1-1 3 0 7-2 11l-6 6h-14v-2l11-1c4 0 7-3 7-7s1-9-1-14c-2-3-7-3-10-3h-6v15l-3 2-1-2c-3-2-7-4-11-2 2 2 5 2 8 3l-6 3-1 3-3-1c-1-2 0-4-2-4h-6c1 2 4 2 6 2l-3 2c-2 2-4-2-7-1-1 7 1 13-2 19l-1 25v-64h-5v-28m58 34 1 2c1-2 1-2-1-2m-46 3 2 1 1-3c-1 0-5 0-3 2ZM249 425h76l2 41h-25l-3-12c-2-3-7-1-10-2h-4v8h-7l3-2-2-1 3-5c-5 0-8 3-12 4l-6-1-1 1h-6v25c0 3 0 7-3 9v-37h-5v-28ZM334 425h86v35h-3l3 1 1 10h-19l-3-17c0-2-3-2-4-2h-3v9c-3 0-7 1-9 4-4 2-8-3-12-1l-1 8-3 1-4 4-3-3v-22h-4l-2 1c-1 1-3 2-5 1 0 3 0 8 3 8v1c-2-1-3 1-4 3-3-1-5-1-7 1l3 4h-3l-4-5-3 5h-2l2-46m75 35c0 2 0 2 2 2l-2-2m-1 8c1 2 1 2 3 1-1-1-1-2-3-1ZM425 425h76l2 39v2h-25l-2-11c0-2-1-3-3-3h-12v23h25v1c-4 3-9 2-14 2l-2-2 2-1h-4l3 2h-11l-1-3-3 2-2-4 3-1c1-2 2-4 1-6l-6 1-2-2c-5 2-6 8-11 11l3 2-1 2c-3 0-6-2-7 1-2 4-2 9-1 14-2 1-2 3-2 5l-1 17v-63h-5v-28m70 36c-2 1-1 3 1 2l-1-2ZM530 425h52v4l4 25 1 5h-4l1-3-2 3-3-2c-3-3-7-4-9-8l-4-4 4-2c2 1 5 4 7 3 2 0 5 1 3 2l2-2h-7l-4-3c0-2 3-3 5-4-3 0-5 2-7 4-2 1-5 0-7-2l5 7 6 6-2 3h3v4l5 4-4 6-2-4h-1v3l-2 1 3 1c-2 3-8 3-10 0l1 27h-16l1-1h13l-1-7-5-40-2 14c-5-1-9 3-13 6l-4-2-1 3-3 1 1-3c-4 1-9 3-9 8l-4 20-2-1 11-72m21 31c0 2 0 2 2 2 0-2 0-2-2-2m10 6c-1 3 4 1 0 0m-25 1c1 2 4 2 5 1-1-2-3-1-5-1m-7 3c0 2 0 2 2 2 1-2 0-2-2-2ZM607 425h55l2 12 3 21-1 1c2 3 1 8 2 12v3l-5 1c-2 0-4-2-5-3v3h-4c2-3-1-5-3-7l-1 2-2 1c1 5 3 11 3 17l-2 4-8-38v21c0-2-2-3-4-4l1-3-5 2-1-1-6 1 3 3-3-1v5l-4-3-1 3-4-3-2 4v12l-2-2v5l-1-40h-5v-28m44 24c-2 3-4 6-4 9l4 2 5-4h-3l-1-2c3-1 2-6-1-5m4 18 4-2 1-1 1-3c-3 1-4 4-6 6m-35 3c1 1 1 1 0 0ZM685 425h54v28h-5v17l-1 5-3-3c-1-1 0-3-2-4l-4 3h-10l2 2-9 1v10l-2 1v-30c-2 1-1 3-2 5l-3 16h-4l-1-4c-1 1-2 3-4 3l-2-2c1-1 4-1 4-3l-2-2-1 2c-2-1-5-2-8-1l-1 4-4 22-3 3 10-70 1-3m23 27c2 5-2 10 0 15l7-2 2 1c0-3 3-3 5-4-1-2-3-4-5-3-2-4-4-7-8-8l-1 1ZM779 449l1-24h56l8 1c7 3 12 9 17 14 2 3 4 7 4 11v17l-2 7-6-1v-5l-4-1-5 4-1 3c-4-3-10-3-14 0-6 3-12 2-18 2l-1 3v-6l-3-1-4-4c-3-2-7 1-10-2l-9-5c0 11 0 22-2 32l-1 1-1-42h-5v-4m37 3v22c4 0 9 1 14-1 3-3 3-8 3-12 0-3-1-6-3-8-4-2-9-1-14-1ZM872 425h45l20 1c6 2 11 7 15 11 3 4 6 8 6 13l1 18h-4l-1-1-6-2v2h-1l-1 3-8-2c-1 4 4 2 5 4-3 1-7 0-10 3 1 2 0 4-1 5h-3v-1l3-2c-2-3-5-1-7 1-5 4-12 2-17 2v-2l11-1 5-2c2-5 3-11 2-16l-4-5c-4-2-9-1-13-1l-4 4 4 2-1 12-2 4-9-2-2 2h-4l4-4-4-3-1 5-2-2c-2 1-5 2-8 1v15l-1 4-2-6v-32h-4c-2-1-1-3-1-5v-23ZM991 425h52l4 27-3 2v2h-5l9 8v-3l1 8c-1 0-4 0-4 3h-2l-1-2-7 7-12-3 2 23-2-2v-2l-7-43-1 13-1 6-8 2-1 1-6-1c2-1 6-2 6-5l-2-2-2-3-7 4c0 4-3 5-6 5l-4 17v1l-3-1 10-62ZM1056 425h33l6 47c-4-1-7 0-10 1l-2-1c-4 4-9 2-14 2v-3l-2 3c0 5 2 11 1 16l-2-2-6-35h-5v-1l1-27ZM1112 425h33l1 13v15h-6l-2 14c-2-3-6-5-9-4l4 2-3 2v3l3 1 5-3-1 8h-7l2-2c-4 0-7-2-10-5l1 3-5-1 4 4c-3-1-6-2-9 0l2 3-3-1v-6l-3-1v7c-2 5-1 10-3 14l-2 1 8-66v-1m18 33c0 2 0 2 2 2 0-2 0-2-2-2ZM1168 428l12-3h22c4 0 8 0 12 2l14 15c4 6 4 13 4 19a422 422 0 0 1-2 2l-1 1 1 1h-7l-1-2-5 2c-1-2-2-3-4-3l-1 3c-2-2-4-5-7-4-2 2-1 5-2 7l-1 15v8l-2 1v-27c-1-3 0-7-2-10l-6-2c-3 0-7 1-9 4l-1 13h-3l-1-2-4 1c-3 3-7 4-9 7v3l-5-1 7-6c-4 0-7-3-11-1l-1 1c2 0 5 1 5 3l-3 2-3-2-1 6h-2v-30c0-5 3-8 6-12l11-11m-13 20c-2 4-1 9-2 13l6-1-2 4 6-1 2-2 3 2 2-2c1 1 4 2 5-1-2-2-4 0-6 0l-3-1 2-3-3-3 2-1c-3-2-3-4-5-6l-7 2m54 6v2l5-2h-5m-55 11c0 2 0 2 2 2 0-2 0-2-2-2Z"/><path d="M234 455c3 0 0 3-1 2-3 0 0-2 1-2ZM575 457h2l4 4-6-2v-2ZM376 470l16-5v7h-4l-6 6c-3 1-6 0-9-1l4-4-1-3ZM1323 465l2-1 8 5c4 2 9 5 11 9-2 1-3 0-4-1l-15-9-2-3ZM806 473l2 1v3c-3 0-7 2-10-1h6l2-3ZM285 475h25v1l-2 1h-23v-2Z"/></g><g fill="#020c11"><path d="M1003 59c16-3 29-11 41-22v2c4 0 8-1 11 1v3a85 85 0 0 1-38 25l-5 2-2-3v-1l-5 1-2 6v-3l-4 1-1-4-5-1v1l-2 3h-1v-4h-14v4h5v2c-4 2-5 6-8 9l-17 8c-6 1-13 4-19 4h-15l-10 7c-9 3-19 8-29 7-4 1-8 3-10 7v5l7 6h-7a31 31 0 0 0-3-11c0-2-1-3-3-4l-1-1-16 6-5 2c1-3 3-6 6-8 8 1 15-4 18-12 9 2 17-1 25-4 7-2 14-5 19-10h16c12-2 25-5 36-12 2-3 6-6 4-10h13c7-1 14 0 21-2ZM350 70l13 5 2 5c-6 0-10-5-14-7l-1-3ZM591 73v2-2ZM376 90c7 3 14 6 22 6l2 4c5 5 13 7 20 8h22c7 6 17 5 25 5 9-1 18-4 26-7 13 5 28 3 40-4 7 6 15 11 25 13l-3 4-12-7c-2 0-5 0-8 2-7 3-17 5-25 3l-5-1h-7l-18 5-9 1-11-1-11-3h-5c-5 1-11-1-16-1l-4-1-10-3-11-8-8-2c-5-1-9-3-13-6-3-2-5-3-6-7ZM708 122l10-2h2c-4 1-8 3-12 2ZM620 141c10-2 19-5 28-9 2-1 4-1 6 1l-4 3h35c9 1 20 1 27 8-7-1-14-4-21-4h-46l-12 3-12 4-8 5c-6 3-12 3-17 4-10 6-17 16-22 25-3 3-2 9-7 11-1 1-2 0-4-1v-13c2 0 3-1 4-3 4-10 12-18 21-24 7-4 16-2 23-5l9-5ZM1080 132c1 2 3 1 5 2l2 7 1 2v2c2 1 1 3 1 4 3 2 0 6 2 8l2 7 1 2v2c3 2 0 6 2 8l1 4 3 11 1 4 1 3 1 3-3 10-20-79ZM1236 134h6c2 3 1 5 2 8v217h-32c-3-1-7-1-10 1-1-1-2-2-4-1-2 2-5-1-7 0h-28v-6l73-1V134ZM128 143c8-6 18-7 27-8h100c6 0 11 2 17 3 5 2 11 5 15 9h1c-4 0-7-2-10-3-5-2-11-3-16-3h-95c-10 0-20 2-29 6-5 2-9 5-12 10-5 8-5 17-6 26 0 5 2 9 1 14 0 5 0 9 2 14 1 2 3 4 2 7l-4-5c-5-6-6-14-6-21l1-29c1-8 4-16 12-20ZM338 144c8-7 19-8 29-9l103 1c10 1 22 1 29 9-9-3-18-5-27-5H371c-10 2-22 4-29 12-8 8-9 19-9 30l1 46 1 24 3 23c1 1 1 4 3 4l9 1h48l1 15 1 4c3 5 7 9 13 10s14 1 19-3c5-5 7-12 7-18v-84l-1-21c4 2 4 6 5 10l1 27c0 16 0 32 4 48 1 3 2 7 6 6h52l3-2-1 37c-1 8-2 16-7 23-4 5-11 7-17 9-10 2-21 1-32 1h-85c-11 0-24-2-31-11-8-12-7-27-8-40V172c1-10 3-21 10-28ZM791 136l18-1 92 1c9 1 18 1 25 6-6 1-13-2-19-2H798c-10 1-20 4-27 11-5 7-7 16-7 24v52c2 11 0 21 1 32 0 5 0 10 2 15-1-5-2-11-1-16 2 2 1 5 1 8l4 13a7520 7520 0 0 1 50 2c3 0 6 0 8-2 0 6 0 13 2 19 2 5 7 10 13 11h10c6 0 10-4 13-9 2-4 3-9 3-14v-85c0-7 0-14-2-20 5 2 6 8 7 13l1 47 2 20c0 6 0 11 3 17 0 1 2 3 4 3h50l5-2c-1 14 1 28-3 42-2 7-7 14-14 17-10 4-21 4-31 4h-93c-11 0-25-2-32-11-6-8-7-18-7-28V172c0-9 2-19 8-26s15-9 23-10ZM976 135l93 1 1 3-84 1c-3 0-5 2-6 3v85l1 22c-1 5 0 11 1 16 0-3-1-7 1-10 1 7 0 15 3 22 1 2 3 3 5 3h41l2-5v66h-58V135ZM1131 136h94l-1 4h-82c-4-1-7 2-8 6l-5 20c-6 18-9 36-14 55-2 6-12 8-16 2 5 0 11-3 12-9l20-78ZM724 139l7 5 1 1c3-1 5 1 6 4v15l-2 1-3-3-2-6c-1-6-4-11-7-17m7 7 2 6 2-1-1 3h3l-1-8h-5Z"/><path d="m553 147 7-5c1 2 4 3 4 6l-4 7-5 7-2 6c-1 1-2 0-3-1-2 3-2 6-3 10v26l1 33 1 15c1 9 1 18 4 26 1 2 2 3 4 3h51c5-1 3 5 4 8l2 10c3 8 12 13 20 12 6 0 11-3 14-8 4-4 5-10 5-16v-18h52l18 1-1 42c-1 9-3 18-10 23-9 7-21 8-32 8h-95c-9 0-19-1-27-5-5-2-9-6-11-10-4-8-5-17-5-25V179c0-9 1-18 5-26l4 9c1-5 0-10 2-15ZM945 144c6 5 10 13 12 21l1 11v133c1 9 0 18-4 26-3 8-9 16-17 19-7 4-16 5-24 6H800c-12 0-25-4-33-14 3 1 5 3 8 3 8 4 16 3 24 4h107c14-1 29-6 37-18 8-13 8-28 8-43V170c0-9-3-18-6-26ZM302 147c4 3 6 8 8 13 2 1 1 3 2 5l1 8 1 27-2 5h-88c-2-3-2-6-1-9h83v-33c0-6-2-11-4-16ZM516 148l2 1c4 4 6 11 7 17l1 6 1 34v2l-7-1v-34c0-9-2-17-4-25ZM734 170l6-1-1 5c0 2 2 4 1 6 0 6 3 12 2 18l-1 10-7 1v-16l5-2-1-3-4 2v-20ZM198 181c2-3 7-3 10-2 4 1 5 5 5 8h-3c-4 2-6 6-7 10l-2-1-3-2c-2-4-2-9 0-13ZM411 182c2-3 6-4 9-4s5 3 6 6l1 2c-3 0-6 1-8 4l-2 5-1 1 1 103c-3 0-5-2-6-5l-2-8v-90c1-5 0-9 2-14Z"/><path d="m624 182 5-4h7c3 2 4 5 3 9l-3-1-1 3-2 2-1 3-2 4-6 3v8l5-3 1 1 2 2c-2 2-3 4-2 7 1 4 0 9 3 12l-4 1c-2 0-4 2-5 4v-39c1-1 4-1 4-4 0-2-2-3-4-4v-4ZM841 183l5-5h7c2 2 4 4 4 7l-3 1c-1 3-4 4-6 7-1 4 0 8 2 11l2 1c-2 1-6 1-6 4h-5v-26ZM743 181c1-1 3 1 3 2l-3-2ZM652 181c5 5 5 12 5 19h-4l-1-19ZM196 206l83 36c6 2 9 6 12 11v2c-8-8-19-11-29-16l-52-23c-5-2-11-4-14-10ZM653 211h6c-2 3-5 5-9 6l3-6ZM662 211h1l65-1 6 2c-9 2-18-1-26 1l-7 4-4 3c-7 0-15-2-22-1-5-1-10-2-14-1h-1l2-7ZM520 217l7-1 1 4 3 2-1 4-2 2 3 1v11l-3 1a1469 1469 0 0 0 2 35l-1 6-2 11 2 8-3-1c1-3-2-7-6-7v-76ZM841 217a32203 32203 0 0 1 5 1l4 5c-2 4-5 9-3 14l4-1c2-2 0-5 0-7l7 2-1 14h-6l-2 2-2 9-1 3-1 2-3-1c-2-8-1-17-1-26v-17ZM120 228l17 9 68 27c4 2 8 5 8 10l-4-2-11-5-4-1-5-2-5-2-22-9-5-2-5-2-5-2c-7-3-15-7-21-12-2-2-5-4-6-7ZM645 231c6-4 14-1 20-2v9c-4-1-8 0-11 1l-14 7v11c-1 2 0 6-2 8-3-4-1-9-4-11-1-5 1-11-2-15l-3 16-6 7v-22c2-3 5-3 8-2l14-7ZM696 233l7-2c1 3 2 6 5 8 4 5 13 6 17 0 3 5 7 9 13 9 4 0 7-3 9-7l1 1v15c-5 2-9-2-13-5h-14c-4-1-6-5-9-8l-6 1c-2 4-2 8-2 12h-8v-24ZM1165 236c6 3 8 9 8 15 1 8 1 16 6 22 1 2 3 1 4 1h41l1 2v66h-59v-91l-1-15ZM1056 238c4 1 6 7 7 11l7 19 7 13 4 1h40c4 0 8-1 12 1l-16 59h-34l-27-104ZM1046 246l1-1-1 1 7 25-1 87-78 1-2-6h74V246Z"/><path d="M1152 253c1-2 1-5 3-7v34l-2-1 1 3c-2 1-1 3-1 4-2 1-1 3-2 4l-1 4-5 19-4 15v1l-5 18c-1 4-1 9-4 12h-47c-2 0-3-3-3-4l-1-2 6-1 39 1 26-100ZM301 247l1 1 8 13c2 3 1 7 2 10l1 9v40c0 6-2 11-3 17l-5 9c-5 6-12 9-19 12h-2c-1 2-3 1-4 2-2 2-5-1-7 1l-11 1-1 1-5-1h-20c-1 2-4-1-6 0h-46c-2 2-4-1-6 0h-7l-18-1-10-2-3-1-4-1c-5-2-9-5-13-9-1-1-3-2-3-4 8 4 17 8 26 8l11 2h95l13-2c15-1 31-9 37-23 6-15 4-31 4-46 0-12 0-25-5-36Z"/><path d="M219 260c7 2 13 10 21 10l52-1 2-2 1 39c0 11-3 22-12 29-11 8-26 7-39 7h-87c-12 0-24-2-33-10-3-3-6-6-7-10-2-6-2-13-2-20v-24l71 1c-1 7-1 14 2 20l1 3c4 5 10 8 17 8 10 1 19-9 19-19 1-10 1-21-5-29l-1-2ZM623 269l7-7 1 7c2 4 2 10 0 14v16c-3 0-5-2-6-4-3-8-1-17-2-26ZM841 263l5 2c1 3 3 5 2 8l-1 5 12 2-1 8c-2-1-5-2-8-1l-2 2v9h-3l-2-2c-3-6-2-12-2-18v-15ZM734 266c2-1 4-1 7 1v39l-7 3v-43Z"/><path d="M197 277h7v22c-3 0-5-2-6-5-2-6-1-12-1-17ZM519 319c3 1 5-2 6-4l1 6-2 3 1 5-3 1 3 4-4 6-1 2c3 2 6 1 9 0h6c2 0 4-1 5-3l1-1c9 9 21 14 34 15h108c9-1 18-2 27-5 6-2 10-6 14-10l14-4h1l14-5a61 61 0 0 0 4 7l2 3-5 2c-7 3-15 4-22 8l-21 9-13 3h-24l-89-1c-6 0-12-1-17-3-7-2-13-7-19-11-3 3-7 5-11 6-6 0-13-2-18-4-4-1-7 2-10 4-9 6-21 7-31 8l-106 1-12-2-5-1c-6-1-11-5-16-7l-4-5 8 4 18 3h114c6 0 12-2 18-4 8-3 15-9 19-16 4-5 5-11 6-16v2Z"/><path d="m729 331 4-12 2-1h6v5l-3 5-9 3ZM328 367l1-2 1 3h3l1 26-4-2-2 1v-26ZM681 367c0-2 2-2 3-1l-2 1c2-1 4 2 5 3l-19 38h-19c0-1-1-4-4-4h20c-1-2 0-4 1-5v-2a415 415 0 0 1 4-4h-3l2-3 4-7 2-5 6-11ZM733 368l6-3-2 3h6l-22 26v14l-12 1-1-6 9 1-1-14-1-1c7-6 12-14 18-21ZM370 375v-7h4l-1 28c0 4-1 9-5 11-5 2-11 2-17 2h-11c-6 0-13 0-17-6 9 3 19 2 28 2 5 0 11 0 15-3 3-4 4-9 3-13v-12l1-2ZM536 368c2 0 3 3 4 5h-3c1-2 0-4-2-4l1-1ZM568 368h4v33l-2 4 2-1h13l3-6h22l5 1 1 3-24-1-4 7h-14l2-3h-4v3h-21l-3-3h20v-37ZM613 368h2c7 14 13 27 21 40h-14l-2-3-3-1h14l-18-36Z"/><path d="M641 368c1 0 2 0 2 2l12 24h-2c-3-9-8-17-12-26ZM872 368h4l-1 9h-31l-2 2h-3v-5h33v-6ZM916 368h1l14 27 5 9h42v-8l1-2v4a439 439 0 0 0 4 2v8l-42 1v-4h-5l3 4-14-1-2-3a474 474 0 0 1-1-1h12l-18-36Z"/><path d="M950 368h4v26l-5 1 1-27ZM451 370c4 2 3 7 4 11h-7l-5-1-2-3h10v-7ZM818 370c4 2 4 7 4 11h-7l-6-1 1-2c2-2 5 0 8-1v-7ZM598 373c0-2 3-1 5-1l-1 2 2 3-6 12-6-1 8-15h-2ZM522 373l4-1v3l2 3v31l-12-1v-3h-4l3-2h8l-1-30ZM415 377c0-1 0-3 2-4h19l2 1 1 3h-18l-2 2h-3l-1-2ZM784 373h12c3 0 7-1 9 1l1 3-1 1c-6 1-12-1-18 1l-5-1c0-2 0-4 2-5ZM540 374l1 1 9 11 4 7-7-8-2-1-2-1h3c-3-2-5-6-6-9ZM901 373h4l2 4-6 12-6-1 1-5h2l-1-2 2 1-1-2 2-1-1-2h2l-1-2h2l-1-2ZM994 377l18-1-1 2 4 2h11v-4c3 1 4 4 5 7-3 2-6 1-8 1l-6-1c-7-3-14-1-21-1h-1l-1-5ZM870 384l3-1 1 9h-31l-1 3-3-1v-5h31v-5ZM818 385c5 2 5 8 5 12 0 3 0 8-3 10-5 2-10 2-15 2h-10c-7-1-16 1-20-5 8 2 16 1 24 1 5 0 11 1 16-2 2-1 4-3 4-5l-1-13ZM452 386c3 1 4 4 4 7 0 4 0 8-2 12-2 3-6 4-9 4h-28c-3-1-8-2-9-5 9 2 19 1 28 1 5 0 11 0 14-4s2-10 2-15Z"/><path d="M776 388c6 0 12 1 17-1h14l-1 2 2 2-1 2-24-1-1 2-2 2 2-5h-3l-3-3ZM409 388l20 1c4 0 8 0 11 2v2l-25-1c0 1 0 3 2 3l21 1-26-1 3-4h-4l-2-3ZM1028 389c5 1 4 8 4 12 0 5-5 7-9 7-8 1-17 2-26 1-4 0-8-2-10-6 9 2 18 1 27 1h8c0-3 4-3 5-4l1-11Z"/><path d="m987 391 17 1c4 0 8-1 11 1l1 3-19-1-1 1-2 2-1-2h2l-1-2h-12v3-3h7l-2-3ZM98 393l3 52-7 7-2-31c1-7 0-14-1-21l7-7ZM1258 393h1l7 8-4 48-8-7 4-49ZM872 395c-1 2 1 5 4 4l-3 5h3l-1 4h-44v-3h41l-1-9 1-1ZM393 398h4v10h-13v-3h-4l1-1h12v-6ZM476 404l1-6h3v11l-12-1-1-3 9-1ZM890 398h27l2 4h-25l-3 6h-13l1-4h7v-1l4-5ZM157 418h56c4 0 8 0 11 3 5 2 8 6 11 10 3 3 6 6 7 10v24c0 4-3 7-6 10l1-26-5-10-13-11c-3-3-8-3-12-3h-56l6-7ZM422 418l1 43c1 4-1 7-2 10l-1-10-3-1h3v-35l2-7ZM1106 418v1c2 2 5 4 6 7l-8 66-3 24-3-18-3 1 3-1-1-5v-3l9-72ZM328 419h1l2 38c0 3-2 6-4 9l-2-41 3-6ZM502 419l1 5 2 33-2 7-2-39c-1-2 0-4 1-6ZM683 423l1-4v9l-10 70-1 3v-2l-2 1 2-2-3-18 2 14 1-1 10-70ZM841 419c6 2 10 7 15 12 2 2 4 5 5 9-5-5-10-11-17-14-1-2-3-4-3-7ZM932 419c4 0 7 3 10 6 4 4 8 7 10 12-4-4-9-9-15-11l-5-7ZM1050 419c3 1 4 3 6 6l-1 27-5-7v-26ZM143 425l6-6v26c-1 3-5 4-5 8v63l-6 6v-41a439 439 0 0 1-2-11h2v-17c2 0 4 1 5-1a456 456 0 0 0 0-27ZM869 419l3 6v23c0 2-1 4 1 5h4v68c-3 0-2-4-3-5v-63h-4l2-1-3-9v-24ZM986 419l5 6-10 62-5 32-2 2-3-5 4-24 9-58 2-15ZM1146 438c4-6 9-13 15-17 3 2 7 3 7 7l-11 11c-3 4-6 7-6 12l-1 47c1 10 0 19 2 29 0 3 2 6 5 8l-1 1c-6-6-12-14-12-23v-60h2v-15ZM583 424v1l11 71 3 18-3-11-10 4c1-2 3-2 5-3l-1-1 6-1-4-28-4-2 3-1-1-4c0-4 0-9-2-13l-4-25 1-5ZM1296 429h12l-14 33c-3-2-7-1-11-3l13-30ZM44 463v-30h8v23l-7 7h-1ZM1016 450a1554 1554 0 0 0 5 46l-3-5-2-14c0-5-2-9-1-14l1-13ZM286 452h3v16l-3 5v-21ZM354 453l2-1c-1 5 0 12-4 17v-7l2-9ZM392 461v-9h3v64l-2 4-1-27v-21a230 230 0 0 1 0-11ZM187 453h6v17l-5 7h-1v-24ZM783 453h1l1 42v27l-5 1-1 25v-25l5-2-2-5h-4 5v-63ZM830 453c2 2 3 5 3 8 0 4 0 9-3 12-2-2-3-4-3-7 4-3 3-8 3-13ZM1056 453h4l6 35 9 60c-2-1-4-3-5-6l-14-89ZM1192 453l6 2c2 3 1 7 2 10v49l-2 7-7-8c2-4 1-9 1-14v-46ZM922 454l4 5c1 5 0 11-2 16-3 0-3-4-5-6 4-4 3-10 3-15ZM75 463l7-7v30l-7 7v-30ZM310 475l4-6v19c1 4-2 7-4 9a159 159 0 0 1 0-15v-7ZM1301 482h3c3 0 5 2 6 5v20c0 4 0 8-2 12l-9-6 2-8v-23ZM225 486l4-3c5 3 12 6 13 12l1 21h5v27l-5 5v-27l4-5-5 1-2 3c0 1-2 3-2 1 0-7 2-14-1-21-4-6-11-9-16-12l4-2ZM1253 492c3 1 7 3 8 7a4578 4578 0 0 1 4 51l-9-7-3-51ZM45 493l7 1v16h6v33l-7 6v-3l-1-29 7-6-7 1-5 4v-23ZM615 508v-13c3 0 4 3 5 5l5 3v1l8 4c1 3 1 7 4 9l5 5 1 10v18l-1-23c-3-4-8-6-9-11l-4-3-1-1-4-3-6 1 3 5h-3l-3-5v-2ZM281 501c1-4 5-2 8-2v18l-3 7v-12c-4-1-8-1-10-4 2-1 4-1 4 1 2-1 3 1 5 2 2-4 0-8 1-11l-5 1ZM832 499c2 2 3 4 3 7 0 5 0 10-2 15l-5-6c6-3 4-11 4-16ZM187 502h6v41l-6 6v-9l-5-1v2l-2-1v-2l-8-1c5-1 10 2 16 2l-1-2h-2l3-3-3-2 2-1c0-4 1-9-1-13l1-3v-13ZM330 507l3-6v7l-2 33c0 3-3 6-4 9l1-12h-3v3-3h3l1-16-4-1h4l1-14ZM506 512c0-4-1-7 1-11v6l-2 33-2 10v-6l1-6h-4l2 2-4-2 6-1v-10c2-5 1-10 2-15ZM923 503c3 1 4 4 4 7v38c-2-2-4-4-4-7v-38ZM549 509c2-1 2 0 3 1-2 1-2 1-3-1ZM860 511c3-1 0 3 0 0ZM305 518l12-3-11 4h-2l1-1ZM1057 516l5 5-1 2-2-1-2-6ZM143 521l6-5v27l-6 6v-28ZM869 516l3 7v25c-2-2-3-5-3-8v-24ZM966 516l4 7v25c-2-2-5-5-4-8v-24ZM397 521l3-4v24c1 2-1 4-2 6l-1-26ZM528 519c3-1 0 4 0 0ZM310 522c3-1 0 3 0 0ZM1022 523h4v4l1 4 2 18-5-7-2-19ZM265 530c-2 0 1-3 1-1l-1 1ZM436 528c2-1 2 2 1 2-2 1-3-2-1-2ZM379 530v2-2ZM983 532c1-2 1-2 3-1l-3 1Z"/></g><g fill="#063c53"><path d="M1225 136v7l-82 1c-3-1-5 3-5 6-6 23-13 45-16 68-1 6-5 11-8 17h31l-12 48c-4-2-8-1-12-1h-40l-4-1-7-13-7-19c-1-4-3-10-7-11l-3-5-1-1c5-2 10 3 15 3h33c-4-5-8-9-8-15l7 3c4 6 14 4 16-2 5-19 8-37 14-55l5-20c1-4 4-7 8-6h82l1-4ZM798 140h109c6 0 13 3 19 2 3 1 5 3 6 6l-8-3-14-2H804l-13 2c-10 2-19 8-22 18-2 7-1 14-2 21 1 11 0 22 2 33 1 7 0 14 4 20h54l2-2v44c-2 2-5 2-8 2a7520 7520 0 0 0-50-2l-4-13c0-3 1-6-1-8-1 5 0 11 1 16-2-5-2-10-2-15-1-11 1-21-1-32v-52c0-8 2-17 7-24 7-7 17-10 27-11ZM980 143c1-1 3-3 6-3l84-1 1 6-80-1c-2 1-5 0-6 2-2 4-1 8-1 12 0 22-1 44 3 66 0 3 1 7 4 6h45l4 1c-3 2-6 6-6 10v35l-2 5h-41c-2 0-4-1-5-3-3-7-2-15-3-22-2 3-1 7-1 10-1-5-2-11-1-16l-1-22v-85ZM342 152c7-8 19-10 29-12h101c9 0 18 2 27 5l2 1 2 3 2 3-15-6c-8-2-16-1-24-2h-79l-21 1c-9 1-19 4-24 12-7 11-5 25-5 37l1 23c0 4 1 9 3 13h57v50h-48l-9-1c-2 0-2-3-3-4l-3-23-1-24-1-46c0-11 1-22 9-30ZM633 143l12-3h46c7 0 14 3 21 4l3 3 2 3c-4-1-8-4-12-4l-15-3h-50l-9 2c-5 2-10 3-14 7-6 5-14 4-21 7-9 6-15 15-20 24-3 4-2 9-6 11-3 2-7 2-8-1-3-4 0-9-1-14l2-1v13c2 1 3 2 4 1 5-2 4-8 7-11 5-9 12-19 22-25 5-1 11-1 17-4l8-5 12-4ZM138 147c9-4 19-6 29-6h95c5 0 11 1 16 3 3 1 6 3 10 3v1l2 2c1 2 3 5 3 8-2-3-4-6-8-8-8-4-18-6-28-6l-97 1c-8 0-17 1-24 6-8 5-12 15-12 24 0 12-1 24 2 35l4 6c9 9 22 14 35 13h56v-2c-7-5-16-7-22-13l-6-4v-6l3 2c3 6 9 8 14 10l52 23c10 5 21 8 29 16l1 1 2 11-2 2-52 1c-8 0-14-8-21-10h-1l-11-7-61-24c-7-3-15-6-21-11 1-3-1-5-2-7-2-5-2-9-2-14 1-5-1-9-1-14 1-9 1-18 6-26 3-5 7-8 12-10Z"/><path d="m553 168 2-6c0 4 2 9-1 13l-3-2-1 13c1 10 0 21 2 31 1 5 0 11 4 14l5 1h49l2-12v68c-1-3 1-9-4-8h-51c-2 0-3-1-4-3-3-8-3-17-4-26l-1-15-1-33v-26c1-4 1-7 3-10 1 1 2 2 3 1ZM733 162l3 3 2-1 1 2v1l1 2-6 1-1-8ZM865 174l1-1c4 3 8 7 10 13 4 9 2 19 3 28 0 5 2 10 4 16h41c5-1 11 3 16-2v51l-5 2h-50c-2 0-4-2-4-3-3-6-3-11-3-17l-2-20-1-47c-1-5-2-11-7-13l-3-7ZM434 174c4 1 7 5 10 8 3 7 3 15 3 22 1 9 1 17 4 25 6 2 11 1 16 1h36c2 1 4-1 6-2v44l-3 2h-52c-4 1-5-3-6-6-4-16-4-32-4-48l-1-27c-1-4-1-8-5-10l-3-8-1-1ZM649 175c9 4 11 16 12 25h-4c0-7 0-14-5-19l-3-6ZM222 176c4 1 6 6 8 9h-5l-3-9ZM624 186c2 1 4 2 4 4 0 3-3 3-4 4v-8ZM734 190l4-2 1 3-5 2v-3ZM624 201l6-3v7l-1 1-5 3v-8ZM520 207l7 1v8l-7 1v-10ZM734 209l7-1-1 2 1 7-2 1h-33l-5-1 7-4c8-2 17 1 26-1l1-1-1-2ZM841 209h5v9l-1-1h-4v-8ZM651 212l2-1-3 6c4-1 7-3 9-6h3l-2 7h1l-1 1c-1-2-3-2-4-1h-1a252 252 0 0 0-6-1l2-2v-3ZM624 233c1-2 3-4 5-4 1 3-1 7 2 9-3-1-6-1-8 2l1-7ZM1161 231c4-1 8 1 11 2l8 1h43l2-2v44l-1-2h-41c-1 0-3 1-4-1-5-6-5-14-6-22 0-6-2-12-8-15l-1-1-3-4ZM623 262l6-7c1 2 0 5 3 5l-1 1c-4 0-5 5-8 7v-6ZM845 261l1-2v6l-5-2 1-3 3 1ZM520 293c4 0 7 4 6 7l-1 15c-1 2-3 5-6 4v-2c1-8 2-16 1-24ZM737 308l4 1v8a154 154 0 0 0-8 2c1-4 0-9 4-11ZM729 331l9-3-2 6h2l-14 4 5-7ZM871 364h1v10h-33v5h4l-4 1-2 1v-9h33l-1-5 2-3ZM449 367l2 3v7h-11c1-4 6-1 9-2 0-3-1-5-3-8h3ZM817 375c0-2-4-6 0-7l1 2v7c-3 1-6-1-8 1l-2 2-21-1c6-2 12 0 18-1l1-1 2-2h9ZM416 371h22l-2 2h-19c-2 1-2 3-2 4l-2 1c0-2 0-6 3-7ZM870 379v10h-31v5l3 1h1l-7 1c1-3 3-6 0-8l4-2h28v-4l2-3ZM405 385c2-1 5 1 7 1l15 1 14 1-2 1 1 2c-3-2-7-2-11-2l-20-1-4-3ZM984 389h10l19 1 2 1-11 1-17-1-3-2ZM463 405v-11 11c3-4 8-2 12-3-1-2-1-6 1-8 2 1 0 3 1 4l-1 6a205 205 0 0 1-13 1ZM888 396l30-1-1 3h-26l-3-2ZM588 398v-3c4 2 8 3 13 1h14v3l-5-1h-22ZM870 402c0-2-1-5 1-6l1 9h-45l1-3h42ZM815 400l2-3 2 1c0 2-2 4-4 5-5 3-11 2-16 2-8 0-16 1-24-1l-2-2c2-2 5 0 8 0l25 1 9-3ZM319 400l2 2c2-3 5 1 8 0l27 1c3 0 6-2 9-4l1 3c-4 3-10 3-15 3-9 0-19 1-28-2-2 0-3-1-4-3ZM429 403c7 1 14 0 20-3l1 1c-3 4-9 4-14 4-9 0-19 1-28-1l-4-3c2 3 5 0 7 1l18 1ZM547 405l1-2c7 0 14-2 20 1v1h-21Z"/></g><g fill="#0a7690"><path d="m791 145 13-2h106l14 2 8 3 1-1c6 9 7 20 6 30l1 51c-5 5-11 1-16 2h-41c-2-6-4-11-4-16-1-9 1-19-3-28-2-6-6-10-10-13l-1 1c-8-9-24-9-31 1-5 6-5 15-5 23v37l-2 2h-54c-4-6-3-13-4-20-2-11-1-22-2-33 1-7 0-14 2-21 3-10 12-16 22-18ZM631 145l9-2h50l15 3c4 0 8 3 12 4 4 8 5 18 5 27v23h-61c-1-9-3-21-12-25h-1l-1-2c-9-9-26-7-32 4-3 6-3 14-3 21v22l-2 12h-49l-5-1c-4-3-3-9-4-14-2-10-1-21-2-31l1-13 3 2c3-4 1-9 1-13l5-7-3 18c0 3 1 6 4 6 1 5-2 10 1 14 1 3 5 3 8 1 4-2 3-7 6-11 5-9 11-18 20-24 7-3 15-2 21-7 4-4 9-5 14-7ZM1138 150c0-3 2-7 5-6l82-1v89l-2 2h-43l-8-1c-3-1-7-3-11-2-3-2-7-2-10-1l-6 5h-31c3-6 7-11 8-17 3-23 10-45 16-68ZM366 145l21-1h79c8 1 16 0 24 2l15 6c3 7 4 16 4 24v52c-2 1-4 3-6 2h-36c-5 0-10 1-16-1-3-8-3-16-4-25 0-7 0-15-3-22-3-3-6-7-10-8-7-8-20-9-28-3-6 5-8 13-8 20v39h-57c-2-4-3-9-3-13l-1-23c0-12-2-26 5-37 5-8 15-11 24-12ZM136 151c7-5 16-6 24-6l97-1c10 0 20 2 28 6 4 2 6 5 8 8 3 9 1 18 2 27h-65c-2-3-4-8-8-9l-3-3-3-2c-6-5-15-5-22-1-8 5-11 16-8 25l1 2c1 3 3 5 6 7v6l6 4c6 6 15 8 22 13v2h-56c-13 1-26-4-35-13l-4-6c-3-11-2-23-2-35 0-9 4-19 12-24ZM985 146c1-2 4-1 6-2l80 1 19 71 2 4c0 6 4 10 8 15h-33c-5 0-10-5-15-3l-1-1c-3-2-7-2-11 0l-4-1h-45c-3 1-4-3-4-6-4-22-3-44-3-66 0-4-1-8 1-12ZM357 364h13a118 118 0 0 0 0 11l-1 2v12c1 4 0 9-3 13l-1-3c1-2 3-5 2-8l1-22 1-5h-12ZM639 364l2 4c4 9 9 17 12 26v2l-2-1-12-25v-6ZM914 364l2 4 18 36h-12l1-2h8l-1-1-9-1v-1h8l-4-7-2-5h-8 8l-10-20 1-3ZM566 366l2-1v39c-6-3-13-1-20-1h18v-37ZM611 369v-5l2 4 18 36h-12l1-2h8l-3-5-8 1v-1l7-1-5-11-8-16ZM697 367l1-3 13 15 1 1-2 2c-5-4-8-10-13-15ZM780 373l4-2h21v3c-2-2-6-1-9-1h-12c-2 1-2 3-2 5l5 1h-5c-2-1-2-4-2-6ZM597 373h3l-8 15v1l-2 1 1-4 6-13ZM993 379l1-2 1 5-3 1 1-4ZM450 384v-1l2 3c0 5 1 11-2 15l-1-1c-3-2-6-1-9-1h-21c-2 1-5-2-7 0h-6v-1c4-1 8 0 12 1h31l1-7v-8Z"/><path d="m545 384 2 1 7 8 1 1-3 2-7-12ZM776 388l1-3 11 1 5 1c-5 2-11 1-17 1ZM393 394v10h-12l1-2h8c0-3 0-6 3-8ZM586 395l15 1c-5 2-9 1-13-1v3l-3 6h-13c3-4 7-1 11-2l3-7Z"/></g></svg>