<svg xmlns="http://www.w3.org/2000/svg" viewBox="0 0 1324 713"><path d="m1257 67 2 1c0 2-3 0-2-1ZM1262 94c1 0 3 1 2 3-1 0-3-2-2-3ZM1241 102c1-1 3 1 2 2s-3-1-2-2ZM1246 105c-1-2 1-2 2-1l1 2-3-1ZM1241 115c1 1 1 1 0 0ZM1236 129c1 0 2 0 1 2-1-1-2-1-1-2ZM1232 132c3-2 3 3 1 3l-1-3ZM1237 135c-2 0-1-1 0-2v2ZM1234 136c3 0 6 0 6 4-2-1-7 1-6-4ZM1240 140c2 1 3 4 2 7l1-1 2 4h-3l2 3-4 1c1-3 3-7 0-9v-5ZM1234 142l-1-2 3 1 2 1h-4l1 5h-3l1-2-2 1v-3l2 1-1-3 2 1Z"/><path d="M1236 145h2l1 2h-1l-2-2ZM1228 145l2 1h1l2 2 2-1-1 4-1-1v4l-1-6-3-1-1-2ZM1237 153c-2-1-2-4 0-4v4ZM1224 154l5 1-1 7-1-7h-3v-1ZM1240 157c1-2 2-2 3 0h-3ZM1216 159c0-1 1-2 3-2l4 4-2 1c-1-2-3-2-5-3Z"/><path d="M1226 162c-2-1-2-3-1-6l2 6 1-1v4l2 5 3-1 1 3h-4l-2-4-5 1 3 2 1 5 2-2c0 2 0 4 3 4v1l-5-3c-1-2-3-2-5-2l1-2v-3l-1 1-1-2v-5h1v5h3l-1-3 3 1-1-4Z"/><path d="M1231 159h2v4l-2-1v3l3-1v3h-3v-8ZM1217 160l2 8-3-3 1-5ZM1166 186l6-2 4 4 1 3 4-1-1 3 3-1-2 4 2 4-4-1 1 4h-9l1-2-2 1 1-2h-2l1-2-4 1v-3l2 1v-5l-2 1-1-6h2l-1-1ZM1215 186l1-2c2-1 3 4 0 3l-1-1ZM1211 186c2 1-1 4-3 4 0-2 1-4 3-4ZM600 188h3l-1 2 2-1v3l-3 1 2 1 2 2-3 2 1-3-2 1-1-8ZM1136 191c2 0 2 1 2 2-2 1-3 0-2-2ZM981 194l1 5v5l-1-3-1 1 1-2c-3 0-2-2-1-3l1-3ZM1117 196c1 1 2 1 1 2-2 0-2 0-1-2ZM967 200l1-3a878 878 0 0 0 6 2l-4 1 3 3-2 1c0-3-2-4-4-4ZM961 199l1 10c-2-3-2-6-1-10ZM1217 200c3 0 4 1 5 3l-5-3Z"/><path d="m973 204 1-3 2 1 4 1-2 1c0 2 3 0 4 0l-1 9h-1l-2-3 1 5h-4l1-2h-3l1 3-5-1a695 695 0 0 0-1 1v1l-2-4-1 10-1-6-1-2v-11l2 1v5l3-1c-2-1-1-4-2-7h4l-1 6 4-1-1 5h-2l1-3h-3v3h2l-1 2 4-1c1-1 0-3 2-4l-1-2h3l-1 3h4l-1-2-2-3v-1l-3 1 1-2-2 1ZM607 204c1 1 1 1 0 0ZM609 205ZM975 205c0 1 0 1 0 0ZM604 206c1 1 1 1 0 0ZM604 207l6-1v4h-3l1-2-4-1ZM1163 212c0-2 3-2 3-1 1 2-2 3-3 1ZM1199 211c0-2 2-2 3-2l1 4-4-2ZM1192 212c3-2 1 4 0 0ZM609 214c3-1 0 4 0 0ZM1194 215c0-2 3 0 2 1 0 2-3 0-2-1ZM980 216Z"/><path d="m971 219 1-2c2 1 0 5-1 2ZM976 220c-1 0 0-3 1-2 1 0 0 3-1 2ZM979 218c1-1 1 0 1 1-1 1-1 1-1-1ZM967 219c1 1 1 1 0 0ZM1201 220l6-1 4 5-10-4ZM903 220a3017 3017 0 0 1 1 1c1 3-1 8 3 8l-1 2 5 2-2 3h-2l1-2-6 1 4 1 1 2-4-2-1 2-1-6 1 2 1-2h1l1 2v-4l-2 1v-11ZM962 220c4 0-1 3 0 0ZM973 220c3-2 0 3 0 0Z"/><path d="M977 220h3l1 9c-2-1-2-3-2-5l-2 1v-5ZM895 222h3v3l-3-1 3 2-1 9-1 5c0-6-3-12-1-18ZM970 224l5-1-1 3 3-1 1 3h-4l1-1-5-3ZM23 227c1-2 1-4 3-4l2 4h-5ZM963 224l2 3c0 2 2 4-1 5l1 3-3 1 1-5 1 1-1-8ZM1208 226h2c0 2-1 2-2 0ZM967 226ZM1174 226c3-2 0 3 0 0ZM1182 226c3-2 1 4 0 0ZM19 229l5-2-1 2 5-1v5l-5-2-4-1v5h-2l1-3-2 1 1-3 2-1m6 1c1 1 1 1 0 0ZM966 228l4-2v4l-4 2 3-3-3-1ZM972 228c2 1 0 4-1 4-1-1 0-3 1-4ZM1191 228c3 0-2 3 0 0ZM1206 228l2 1 3 2-5-1v-2ZM977 232l-1-3c1 0 3 3 1 3Z"/><path d="M22 232c2 0 4 4 2 4s-2-2-2-4ZM973 232c4 1-2 3 0 0ZM364 234c3 0-2 3 0 0ZM369 239l1-5 4 2-4 2 6-1v4c-2-1-6 0-6-3l-1 1ZM31 236h4l-1 4 3-1v4l-4-1 1-2-1 1c0-2-1-4-3-4l1-1ZM277 239l1-3c2 0 1 4-1 3ZM602 237c0-2 3-2 4 0h-4ZM974 236c1 1 1 1 0 0ZM23 237c1 1 1 1 0 0ZM364 237c2 0 2 0 2 2-2 0-2 0-2-2ZM1201 238l1-1 3 2v1l-4-2ZM38 238c1 1 1 1 0 0ZM973 239c0-2 4-1 2 1h-1l-1-1ZM977 239ZM1070 238c3 1-2 3 0 0ZM22 238c2 2 1 4 2 7v-1l1 4-4-4 1-6ZM605 240c1-1 3 0 2 1 0 1-3 0-2-1ZM25 240c2 1 4 2 6 0-1 2-3 4-2 7h-3l2-4-3-3ZM367 240l5 1-6 2 1-3ZM602 240c4 0-1 3 0 0ZM363 240h1l1 7c-2-2-2-4-2-7ZM969 241c3-2 1 3 0 0ZM375 242c0 1 0 1 0 0ZM977 243c-1-2 2-1 2 0 2 2-2 2-2 0ZM32 243h3l-1 2h1l1 2-4-2v-2ZM366 243l2 1v2l-2-3ZM372 244a2650 2650 0 0 1 0 0ZM966 243l3 7-2-2-2-1 1-4ZM968 243h4v4a11815 11815 0 0 1-2-2l-2-2ZM974 244v-1c1 0 2 0 2 2l-2-1ZM964 244c1 1 1 1 0 0ZM603 245c3 1-2 3 0 0ZM374 246l2 1c-1 1-3 0-2-1ZM976 246c1-1 2 0 3 1v1c-1 0-3 0-3-2ZM371 248c1 0 1 0 0 0ZM609 249c-2 0-1-3 0-1v1ZM625 249l1-2 1 5-4 1-2-2-1 4 4-1-1 4a1192 1192 0 0 0-1 1v2l-3 1v-1h2c0-4-5-2-7-2l3-2 2-5 1-3 4 1-1-3 2 2ZM972 248h3-3ZM32 250h1c2 0 0 3-1 1v-1ZM596 249c3 0-2 3 0 0ZM601 249c1 1 1 1 0 0ZM963 252c-2 0-1-4 1-2 1 1 0 2-1 2ZM205 251h9l-4 1 1 3-3 1 1-3h-4v-2ZM217 251l6-1-1 4-5-2 1 2h-3v-3h2ZM367 251l6-1-1 2 3-1v2h-2v2l3-1-1 5-2-2v4l-6-1 3-2 2 2v-4l-2 2-2-3h2l2 1 1-4-5 1-1-2ZM799 251l4-1-1 3-3-2ZM810 251l4-1v3l-2-1 1 4h-3l1-3-2 1 1-3ZM1179 251h2l1 1h-1l-2-1ZM34 251c1 1 1 1 0 0ZM520 252l1-1c1 2 0 2-1 2v-1ZM599 252l6-1-3 1 2 2-1 4 4-2-3 3a1096 1096 0 0 1-1-2l-2-4-3 1 1-2ZM843 251l5 1-3 1 1 3-2-2-1-3ZM973 251c3-2 0 3 0 0ZM607 252c1 1 1 1 0 0ZM752 254c-2 0-4-2-1-2 1-1 3 2 1 2ZM836 252c3-1 0 4 0 0ZM32 253c1 1 1 1 0 0ZM193 253h3l-1 4-2-1v3l-1-4h2l-1-2ZM362 254l2-1-2 5-3 1 6-1-1 4h3c-1 1-3 2-4 1l-1-3-4-1c-2 2-4 2-5 0v4l-3 1 5 1-1-4 3 3-6 2 2 2-2 1 3 1h-4c1-3 0-5-1-7a13026 13026 0 0 0 3-2l-3-1 4-1-1-2 2 2a635 635 0 0 1 8-3v-2ZM597 253c0 1 0 1 0 0ZM604 253c1 1 1 1 0 0ZM721 253l4 1-1 4-1 1 2 2 3 2-1 3c0-3-3-4-4-6l-1-4-1 4-1-4h2l-1-3ZM725 253l5 3h-4l-1-3ZM746 254c-1-2 3-2 3 0h-3ZM831 253l4-1v3l-3-1 1 2-3-1 1-2ZM962 253c4 0-1 3 0 0ZM38 255h2c-1 2-2 2-2 0ZM204 254l2 5c-2 0-3-3-2-5ZM591 256l1-5a111 111 0 0 1 0 10c3 0 2 2 2 4l3-1v2l-4-1v-3l-3 2 1-8ZM741 253h1v3c2 1 4 4 7 4h1l-4 1-2-3-2 2-1-7ZM971 257v-3c1 2 3 2 5 1l2 4-3-2v4h6v1l-5-1 1 4c-3 0-5-1-7-3l6 2-1-3-6-1-1-4 3 1-2 2 6 1c-1-2-1-4-4-3ZM129 255l6 1h-5l1 2 4 1-4 1-2-5ZM230 259c-2 0-4-3-2-4l2 4ZM344 257c-1-1 1-3 2-2v2h-2ZM433 255c1 1 1 1 0 0ZM435 256c0-1 2-2 3-1l1 1h-4ZM608 258v-2 2ZM734 255c1 1 1 1 0 0ZM736 256c0-2 5-1 4 1h-1l-3-1ZM750 256c1-1 1-1 0 0ZM834 256h2c-1 2-2 2-2 0ZM978 255c1 1 1 1 0 0ZM50 257h2c-3 0-3 2-3 4l-2-1c-2 0 0 3 0 4l-4-1h3l-2-2 6-4ZM118 256c2-1 2-1 2 1-1 1-1 1-2-1ZM364 256c1 1 1 1 0 0Z"/><path d="M366 257h2c0 2-1 2-2 0ZM733 256l1 3 1-1 1 3-1 1v-3l-3 1 1-4ZM750 256c-1 0-1 0 0 0ZM816 256c1 1 1 1 0 0ZM30 257c3-2 1 3 0 0ZM201 257c1 1 1 1 0 0ZM432 260v-3 3ZM594 258l5 2c-1 1-5 0-5-1v-1ZM25 260v-2c2 1 2 1 0 2ZM37 258c3-1 0 3 0 0ZM58 258l2 1c2 2-3 1-2-1ZM109 258c1 1 1 1 0 0ZM200 257l1 5 1-3 4 4 2-2c0 3-4 2-7 2 0 2 3 2 3 2l-5 1 1-3-5 2 1-4 3 1 1-5ZM425 258c2-1 3 1 4 2h-1l-3-2ZM534 258c3-2 0 3 0 0ZM726 258c1 1 1 1 0 0ZM728 258c4 0-1 3 0 0ZM737 258l2 1 2 2h-3l2 2c-3 0-3-3-3-5ZM1212 258c3-1 0 4 0 0ZM27 259c1 1 1 1 0 0ZM29 259c2-1 3 1 2 3l-2-3ZM342 259c1 0 1 0 0 0ZM367 259c1 1 1 1 0 0ZM436 259l5 2-4-1a23883 23883 0 0 1-1-1ZM512 262l3-4 1 2-3 1 4 1c-1 3-3 1-5 0ZM611 260h2-2ZM804 261c-1-1 0-1 1-1 1 1 1 1-1 1ZM813 259h4v1l-3 1 4 2-4 1 1-3-1 1-1-3ZM137 260c3-1 0 4 0 0ZM204 260c1 1 1 1 0 0ZM449 260c1 1 1 1 0 0ZM525 260c1 1 1 1 0 0ZM619 261c-1-1-1-1 0 0ZM730 260c1 1 1 1 0 0ZM807 261c-1-1-1-1 1-1 1 1 0 1-1 1ZM26 262h3-3ZM38 260c3 3 0 5-2 6v-1c3-1 3-3 2-5ZM62 261c3 1-2 3 0 0ZM113 264l-1-3c2 0 2 2 1 3ZM115 263c2-1 4-2 7-1l-3 1 1 2h-3l1-1-3-1ZM210 261c1 1 1 1 0 0ZM339 263c0-1 0-2 1-1s0 2-1 1ZM346 261h1l1 3h-2v-3ZM359 264c-2-1-2-2-1-3l1 3 2-1v3l-3-1 1-1ZM367 260l1 3c2 0 4-1 5 1l2-2-1 3-7-1v-4ZM596 261c3 0-2 3 0 0ZM609 259l3 4h3l1 3h-2l-1-2c-2-1-2 2-4 3l-3-3 5 1-2-6ZM719 262l3-1v5h-2l1-3h-1l-1 3v-4ZM742 262c1-1 3-1 3 1l-3-1ZM812 261c1 1 1 1 0 0ZM969 261c1 1 1 1 0 0ZM24 262c4 0-1 3 0 0ZM56 262c1 0 1 0 0 0ZM747 262c1 1 1 1 0 0ZM807 264c-2 0-2-1 0-2v2ZM809 262l4 1-3 2 4 1h-4v-3l-2 1 1-2ZM838 262c4 0-2 3 0 0ZM966 262c1-1 2 0 1 1s-2 0-1-1ZM509 266c-1-1 1-4 2-2v2h-2ZM518 263c2-1 4-1 5 1-2 1-4 0-5-1ZM1063 264l5-1v3l-5-2ZM34 264c1 1 1 1 0 0ZM284 264c1 1 1 1 0 0ZM286 264c1 1 1 1 0 0Z"/><path d="M338 264c3-2 1 4 0 0ZM427 264c1 1 1 1 0 0ZM745 264l4 2c-1 1-4 0-4-2ZM803 264l3 2c-1 1-3 0-3-2ZM61 265l3 1-1 5-1-5-1 1v-2ZM281 267v-2 2ZM289 265c1 1 1 1 0 0ZM362 264l5 2-4 2-1-4ZM814 268v-4c2 2 3 3 5 3l-5 1ZM965 267c-1-1-1-1 1-2 1 2 0 2-1 2ZM197 266c1 1 1 1 0 0ZM219 266c1 1 1 1 0 0ZM287 266c0 1 0 1 0 0ZM348 266c1 1 1 1 0 0ZM972 266c1 1 1 1 0 0ZM290 267c0 1 0 1 0 0ZM339 267c3-1 0 3 0 0ZM722 267c1 1 1 1 0 0ZM745 267c3-1 0 4 0 0ZM976 267l1 1c-1 1-2 0-1-1ZM27 271c-2 0-2-5 0-3v3ZM31 268c1 1 1 1 0 0ZM34 271v-3 3ZM200 268c4 1-2 3 0 0ZM279 270c0-1 2-2 3-1 0 1-2 2-3 1ZM458 268c1 1 1 1 0 0ZM516 268c1 1 1 1 0 0ZM544 268c1 1 1 1 0 0ZM748 268c1 1 1 1 0 0ZM815 269h3-3ZM968 268c1 1 1 1 0 0ZM58 269c1 1 1 1 0 0ZM60 269c1 1 1 1 0 0ZM202 269c1 1 1 1 0 0ZM512 269c1 1 1 1 0 0ZM514 269c1 1 1 1 0 0ZM535 269c1 1 1 1 0 0ZM811 269c1 1 1 1 0 0ZM813 269c1 1 1 1 0 0ZM195 270c1 1 1 1 0 0ZM277 270c1 0 1 6-1 4l1-4ZM284 270c1 1 1 1 0 0ZM368 270c1 1 1 1 0 0ZM426 270c1 1 1 1 0 0ZM746 273c-2 0-2-2 0-3v3ZM1193 269l1 3v-1l2 5h-2l1-2-3-1 1-4Z"/><path d="M1203 270c3 0 4 1 6 3 0 3-3 3-5 3l-1 3c2 0 5-1 5 2l-5-1h-1l1-3h-4l1 2h-2l2 4-1 5c3-1 7-3 10 0h-4c-1 0-1 4-2 1-2 0-5-1-6-3l-2-3h-1c0-3 3-1 3 1h2c0-3-3-7-5-3l-2 2 2 2h-3v-1c-1-3-2 1-2 2 3 2 5 0 8 1l-4 1c1 2 3 2 5 2l-1 4h3l-1-2 3 2h-3l-1 3-1-2-1-2-4 1 3-2v-2c-3-2-5-3-8-3-1 2-3 2-4 2 0 2 2 3 4 3l-1-3h2l-1 5 3 1 3 1 3 1c-3 2-6 0-9 0 1 2-1 5 3 4v-2l5 1-3 1-5 1 1 1-5-1 3-2-2-2h3l-1-6-2 4-5-1 6-1c0-3-3-3-5-3l1-3-5-3h3l3 4 4-1v-2a591 591 0 0 0 2 1v-4l6-2-6-1a457 457 0 0 1-2-1l-5-1 1 3 1 1h-5l-2-2 5 1v-3h5c0 3 4 1 6 2v-4l3 2 4-1-2-3 1-1v-2l6 1v2h-4c0 5 7 1 7-2l-4-2ZM34 271c2 0 2 0 1 1s-1 0-1-1ZM50 271c3 1-2 3 0 0ZM197 272c1 1 1 1 0 0ZM422 272c1 1 1 1 0 0ZM448 272c3-1 0 3 0 0ZM514 273h2c0 2-4 1-2 0ZM750 272c1 1 1 1 0 0ZM363 273c1 1 1 1 0 0ZM366 276c-2 1-2-4 0-2v2ZM752 273c4 1-2 3 0 0ZM965 273c1 1 1 1 0 0ZM968 276v-4 4ZM57 274c1 1 1 1 0 0ZM142 274c1 1 1 1 0 0ZM144 274c1 1 1 1 0 0ZM745 275l1-1 1 3h-2v-2ZM31 276h3-3ZM515 275h4-4ZM754 275c1 1 1 1 0 0ZM52 276c1 1 1 1 0 0ZM430 276c1 1 1 1 0 0ZM731 276c1 1 1 1 0 0ZM964 278v-2 2ZM134 277c1 1 1 1 0 0ZM515 277c1 1 1 1 0 0ZM816 277c1 1 1 1 0 0ZM431 278c1 1 1 1 0 0ZM843 280v-2 2ZM904 279c1 1 1 1 0 0ZM971 279c1 1 1 1 0 0ZM973 279c1 1 1 1 0 0ZM1060 278c3 1 5 0 7 2l-8 2 3 5 3-1c0 3 2 4 3 6l4-5-2-1 3-1-2 5-1-1 1 3-2-1 1 2-5-2 1-1-2 1 1-4h-4l-3-4-2-1 4-1v-3ZM38 281c1 1 1 1 0 0ZM222 281c0-1 3 0 2 1 0 1-3 0-2-1ZM342 281c1 1 1 1 0 0ZM967 282c1 1 1 1 0 0Z"/><path d="M1202 283h3l4 1-6 1 1-1-2-1ZM535 283c1 1 1 1 0 0ZM1172 285l2-2v1l-4 2 4 2 1 5-2-5-2 1-2-5 3 1ZM422 287l2-4 2 3c-1 1-4 1-3 3l-2-3-1 2v-3l2 2ZM1049 284c1 1 1 1 0 0ZM1077 286c-1-1 0-2 1-2l1 3-2-1ZM610 287c1 1 1 1 0 0ZM1051 288h2v4l4-1-1 3 2-1-1 2 3-1v2l-4-1 1 2-3-1-1 2-2 1 1-2 2-4-3 1 1-2-5-1 5-1-1-2ZM1177 288c2-1 2 4 0 4v-4ZM974 289c2 1 0 4-1 4-1-1 0-3 1-4ZM362 290c1 1 1 1 0 0ZM513 290c1 1 1 1 0 0ZM814 290c1 1 1 1 0 0ZM1076 293l2-2-1 4 3-1v2l-3-1v4l2-1-1 4 2 1c-1 0-2 1-3-1l-4 2 1-3-2-3 5 1c-2-2-2-4-1-6m-1 8h2-2ZM1189 293c-1-3 4-3 3-1l-3 1ZM1206 292c-1-1 1-2 2-1l1 1h-3Z"/><path d="m1048 294 1 1h-1v-1ZM1062 294h3v3l-3-1v-2ZM1069 296l1-2 1 6-7-1 4-1-1-3 2 1ZM1061 297c1 1 1 1 0 0ZM1200 298c1-1 2 0 1 1s-2 0-1-1ZM1048 298c3 0-2 3 0 0ZM1055 300l4-3c0 2-1 3-3 3l3 3-2-1h-1c-2 0 0 2 1 3h3l-1 3 3-1v4h-2l1 4 4-1c-1 2 0 4 1 5l-4 1 1 3-3-1v4l4-4 1 5-5-1v2l3 1 5 2 2-5-4 1 1-3 3 2a499 499 0 0 1 4 1l-3-1v3l-2 2a515 515 0 0 0 6 2c-2-1-3-3-3-5l2 1 1-4 2 5-3 2h5l-1-2 2 1-1-3h6-4l1 4-3-1 1 2h-2l2 2c-2 2-2 5-2 8l3-1-1-4h2l-1 4h3l-5 2-1 3 6-2-4 2-2 2-5 1 4 1-3 3-2 3-2 2a679 679 0 0 0 2-5l-5 1 2 5 2-1c1 3-2 3-3 5v-2h-6l6 3-7 1h-6l-1-2h4l5 1c-2-2-2-4-1-6l-1-3 4-3-4-4c1 0 3 0 4 2 1-2 3-1 4-2l2-1-1-2 6 2-2-3 2-2-2-1-4 3v-6h-2l-2 8-2-1 1 2-5-1 1-1 5-2-2-6-1-1 2 1v1l5-1 3 4c2-1 2-3 3-5l3-2c-2-1-5-2-7-1 0 2 1 3 3 3l-2 1c-3-2-8-2-12-3l1-2 6 2 4 1c0-3-3-3-5-4-3 0-4-3-8-3l1-2h-2c-2 3-1 5 0 7l-4-2c2-1 2-3 1-5h2a616 616 0 0 1 3-2l-1-6 4-1v-3l-4 1 1-3-5 1v-1h5v-5l-3-2c-3-1-4-3-7-3l1 3h-3l1-2h-4l-2 3 2-5 2 1 2-3v3l5-1 1-2m10 52 1 3 6-3v-2l-7 2m0 5v2c1 1 2-1 1-2h-1Z"/><path d="M1063 300c1-1 2 0 1 1s-2 0-1-1ZM1195 299c2 0 3 1 3 3l2-1v4l-4-4-1-2ZM1179 300c0 1 0 1 0 0ZM1069 303l3-2-1 3-1 6c3-1 4 0 4 3l-3-1 1-1-6-2 1 4-5-1 3-1-1-6 3 1 4-2-6-1v-1l4 1m-3 5h2c2-2-2-2-2 0ZM1191 303l5-1-1 2 4 3-5-1 1-2-4-1ZM1202 303l6-1-1 2 3-1 1 3-3-1c0 2 0 4 2 5-1 4-3 0-3-2l-7-1c-1-2 2-2 3-1l4 1v-4h-5ZM1184 303c1 1 1 1 0 0ZM1075 306l2-1c1 0 0 3-1 2l-1-1ZM809 307c1 1 0 3-1 3-2-1 0-3 1-3ZM1046 307l4 1c0 2 1 4 4 4v1h-5l1-5a373 373 0 0 0-4-1ZM1169 307c3 0-1 3 0 0ZM1075 308l5 1-4 2-1-3ZM1192 310l3-2 3 1c-3 0-5 1-5 4l-1-3Z"/><path d="M1053 310c3-1 0 3 0 0ZM1170 310l3 2c-2 2-5 0-3-2ZM1204 310c3-1 0 4 0 0ZM1196 314c1-1 1-5 3-3l1 2 2-1-1 2 2-1-1 5-1-5-5 1ZM1068 313h2-2ZM1076 312h1v3l-2-1 1 4h-2l-1-4h1l2-1v-1ZM1168 314c3-2 0 3 0 0Z"/><path d="M1195 314c3 0-2 3 0 0ZM1072 316c0 2-3-1-1-1l1 1ZM1080 315c1 1 1 1 0 0ZM1067 316l1 1h-1v-1ZM1172 317h2c0 2-5 2-2 0ZM1200 317c-1 2-2-1 0-1v1Z"/><path d="M1195 318c1-2 4 0 4 2l5-2v3l-4-1-2 2v-3h-2l-1-1ZM1056 318c3-2 0 3 0 0ZM1080 318h2v2l-1-1-2 3c2 1 2 3 2 5l-2-5-1 6-1-8 3 1v-3ZM1207 319c-2-2 2-2 2 0h-2ZM1150 320c0-2 3-2 4 0h-4ZM1066 323c-2-2 1-4 2-3v2l-2 1ZM1072 321l1-1h1c2 1-2 3-2 1ZM1205 322c0-1 0-2 1-1l1 2-2-1ZM1199 323c1 0 1 0 0 0ZM1202 324c2-3 2 4 0 2v-2ZM616 324h1c0 1 0 3-2 4l1-4ZM1042 324c2-1 2-1 3 1-2 1-2 1-3-1ZM1195 325c3-1 0 3 0 0ZM1046 328c3-2 0 3 0 0ZM1049 329h3v2l-3 1v-3ZM1173 331c1-1 4-1 2 1-1 1-4 1-2-1ZM1189 332c3-2 7-2 10 0h-10ZM1054 335l-1-2 3 2h-2ZM1161 332c0-1 3-1 3 1 0 1-3 1-3-1ZM1050 333c4 1-1 3 0 0ZM1193 337v-4c1 2 4 0 5 2-1 2-3 1-5 2ZM1081 336c3-2 0 4 0 0ZM1047 337c1 1 1 1 0 0ZM1171 339c0-1 0-2 2-2 0 2-1 2-2 2Z"/><path d="M1193 337c3-1 0 4 0 0ZM1172 341c3-2 0 3 0 0ZM1174 343c-1-2 3-3 4-1-1 1-3 2-4 1ZM1134 350ZM1057 354c2-1 3-5 6-2-1 1-4 2-3 5l-2 6-2-3 3-2c-1-1-3 0-4 1l-3 2-4-3v-3l4 2-1 2 5-2-4-2 2-2 2 3 1-2ZM1136 352c1-2 5-1 4 1l-4-1ZM1191 352h2-2ZM1204 359c2 0 3 0 2 2-1 1-2 0-2-2ZM1044 363c1-3 4-1 6 0l-1 1-1 3 5-3c0 4-4 4-7 6l1-3h-5l1-4 2 3 3-1c0-2-2-2-4-2Z"/><path d="M1050 363c2-1 2 0 3 1-2 1-2 1-3-1ZM1059 367c4 0-1 3 0 0ZM1209 367l2 3c-2 0-3-2-2-3ZM1042 368h2l-1 2h3v1l-3 2 1-3-2 1v-3ZM1061 369c1-2 4 0 2 1-1 2-4 0-2-1ZM1057 372c1-2 1-2 2 0h-2ZM1170 373c1-2 4 0 2 1-1 1-4 0-2-1ZM1205 372c3-1 0 4 0 0ZM1056 375c0-2 4 0 2 2l-2-2ZM1201 375l2-1h1l-1 1h-2ZM1060 377c0-1 3-2 4-1 0 1-3 2-4 1ZM1048 375c4 0 8 0 9 4l-5-1-3 1-1 2-2-1-4 1c1-3 4-3 7-3l-1-3ZM1042 390c1-1 6 1 4 2l-4-2ZM1038 405c3 0 0 3 0 1v-1ZM1048 416l1 4 1-2 2 2a352 352 0 0 1 4 2l-3 3v1l-5 1c2 0 2 2 3 3l-10 3 1 4h-2l1 1h-1v4c-3-1-5-4-7-6l1-2-3-2 2-1h-2l1-4 6-1-3 3 1 5h1v-4l2 2v-3l5 1c-2-2-5 0-7-2l3-2 3-5c1-2 3-1 4 0 0 2-4 3-2 5 3-2 3-6 2-8l1-2ZM953 432l2-3 1 3v23c0 3-1 7 1 10l-2 7c-3-2-1-6-2-8h-2l2-1v-31ZM828 442c1-4 0-10 4-13l2 4v8l1 1h-1l-1 8-3-2-2-6ZM1171 455l4 2 2 5h-4l1-3-3-4Z"/><g fill="#cdcdcd"><path d="m1263 30 3-6c2 1 1 3 1 6h-4ZM1268 24c4 3 2 8 4 11l-2 2-2-1 1-3-1-9ZM1265 35h3l-4 5-2-1h3v-4ZM1297 37l1 1c1 2 3 5 3 8 0 5-3 9-4 13l-5-6c-1-2-3-2-4 0l-1 4-1-1 1 1-4 2 1 8-2 12-2 7-6 13-3 1-1 2 6 2c3 6-2 12-5 17l-5-2h-2l3 7-5 4c-2 1-2 3-2 5l-1 5c-3 9-9 18-13 27-8 14-13 28-19 43l-5 12-2 4c-2 4-6 8-4 13l1 6 1 19 1 33-1 17-1 5-3 17v31-1l2 9-2 3c-2 6 0 12-1 18v16l-3 1-3 3v9h-2v4h-2c-2-2-3-4-3-7l-1 3-3 2-5-5c2 0 4 1 5 3l3-2v-3l-3-3h4l-1 3 2-1-1 2 3-1v-2l-3 1 1-4-4 2-3-2c2-1 5-2 8 0 0-4-4-5-6-7l1-1 6 3-2-2h8l-1-2 3 1v-7l-8-2 1 2-2-1v-2l-8 2v-1l-3-1c-1-1 3 0 3-1v2h4l-1-1 3-1 1-1 1-1v3h6l1-5c-2 0-4-1-4-3l3 1-1-3 3 1 1-2-4 1-1-5-4 1v-3l4 1v-3l-5-1h-4l4-3-1-1 2 1 1-2h3l-3-3 5 1c-1-3-3-5-6-5l1 4-2-4-1 1 1-2c-3 0-6-1-8 1l6 1v2h3l-2 2v3l-2-3-2 3h3l-1 2-2-2-3 3-9 1 1 3-2-1-8-2c3 0 8 2 11-1l7-2-2-2 5 2v-4l-7 1 4-2v-1l-4-1h5l-1 3 5-1v-1l-7-4c-1 2-2 2-4 1 2 0 5-4 6 0v-4c2 0 4 2 6 1v-1l-5-2-6 4 8-6 1-2-6 3-1-2 6-1 4 2-4 1 4 3 1-1-1 3 2 1-1 1 6-1-4-2-1-2-3-2h8c-2-4-7-1-9-5l8 3-1-2 6 1v-1l-7-1-5-2 8 1 2 1c0-1 0-3-2-3h-6v-3l7 1 3-4-3 2h-10v-2h5l-1 1h4v-1l3-1h-7v-7l1 3 4-1-3-1 6-2v-3h-4v1l-5 1v-3l3-2 3 1-1-6h-1l-1 5c-3 0-4-4-8-2l5 2c0 1 0 3-2 3l1 2 2 1v2h-6l4 2-8 2 1-5-3 2c0 3 2 4 4 5h2v3l-4-2-3-4-5-1 5-1-1-3 4 2v-4h-4l1 2-6-1v-1l7-3-1-1 8 1-1 1h3v-2l-6-1c0-2-2-5 1-6h-5l1-4-3 1 1 7 1-3 2 4-2-1-4 4-4 1v-2l4 1-1-2-4-1h3l-1-2h2l1 3 2-3h-1c-1-1-3-3-3-1l-2 1 2-2-1-1 5-1-2-4-4 2 1 2c-3 0-7-1-6-4l4 2v-2l2 1 1-5 2 1c-1 2 1 3 2 4l1-4 1 3 5 4c-1-1 0-4-3-4v-2h2l-1-4c0 3-3 5-4 2l3-2-2-1c0 3-4 3-6 3l2-7v5h3l-1-3 4 1-1-3 3 1-1-3-5 1-5 2-1-5 2 1c0-2 0-4-2-4l1-2-3 1 1-2-2 1 1-3-2 1 1-2h-3c1 2 4 2 3 5-3 0-4-2-5-4v1l-1-5-1 4 3 5 2 6h2l-4 1 1 3 3-2 1-3-2 1-2-6 3-1 3 1c0 2 0 5-2 7l5 2-5 1-4 2 1 2c2 0 3-2 3-4l4 3-5 1 4 1v2l-2-1 1 2h-3l1-3h-5l4 2h-3l1 4-7 1-3 3c-2-1-4-1-4-3l-4 1 2 2-3 1-1-5 2 1c-1-3 0-5 3-5l-1 3 4-1v4l3-3-6-2 2-5 2 4 2 1-1-3-1 1-1-2 4-3-4 1-2 1c-1 0-2-1-2-3l4-2 1 1c1-2 5-5 0-5l1 3-3-1a146 146 0 0 1-6 8h1l2-1 1 1c0 3-5 4-7 5l3 1-4 4-7 2c2 1 5 0 7-1l-1 3 2-1v2l-7-1h-1l1-2-2 1-1-3 2 1-1-2 5 1v-2l-4 1-1-3h4l-3-3 5-1 2 2-1-3 6 1c-2-1-4-2-6-1l-3-2 4-3 5 1v-2h-2c0-3-3-1-5 0v-3l1 1 2-2-1-1 4 1 5-2-4-1 1-4 2 3 3-1-3-1-1-2-4 1v-2l5-1-4-3 2-1v1l7 2-1-2 4 1v-1h-4l3-3-2 1v1l-2-1 1 3c-2 0-3-1-4-3l-2 1v-3l4 1-1-5 2 1 1-3h-2l2-2-1-3 3 3-2-6 3 1-1-5 3 2 2-2-4-2c2-1 5-1 6-3l3 2 2-2 1 3-3 2 3 1-1-1 6-1h-5v-4l5 1v-2l-5 1-2-6 4 2v3l1-3 1 1-1-3h5l-4-1v-3c4 0 6 3 9 5l5-1v5h3l-1-2c2 0 3 1 4 3h4v-1l-5-1 1-2h-3c-2-3-1-6-2-9v4l-3 3h-4l-1-4c2 1 5 0 6-1-1-1-3 1-4 1l-1-3a467 467 0 0 0 1-1v-3l3 1-1-4-1 2-7-1c1 2 3 1 5 1v4l-1-1v8c-4-2-4-5-3-9h-2l1 4-3-3-4-2 3-1-4-1 1 3 5 2v4l-3-1 1 2h-3l-1-3-1 2-2 1h8c0 4-3 5-5 2l-2 2v1h-1l-1 2 3-1 1 3h-4v-2h-1l-2-1-1-3 4 1v-2l-3 1v-2l2-2 1 1v-3h-1l-3-1h2v-4l-5-1 8-1-4-2-1-3 4-1v-1c-2-1 0-2 1-2l2 2-1-3c-2 0-5 0-6-2l5-1-1-4h-3v2l3-1-1 3-5-1 1 2-2-1 1 3 3-1c0 2 2 3 0 4l-1 1-1-3h-2l1 4h-2l-2-4-5-5-1-1 1-2-1 1-2-8-4-1-1-1a2053 2053 0 0 0-5-2h-38c-5 2-11 3-16 2l-4 6c-2 0-4 1-4 3-1 8 1 16 1 24v19l1 46v18l-1 29-1 16v7l1 3h-1l-1 6 2-1-1 4 3-1-1 2 3-1c0 3-1 5-3 6h-1l1 2-2-1 1 2-1-1-1 2-2-2v-7c-1 1-1 4-3 4l-2-3-4-1v-2l-4 5-5 1 1-2 4-2 4-3c1 3 5 2 7 3v-2l2 1v-6c-2 0-4 1-4-1l4-3h-6l1-2 3-1-1 2 4-1c-3 0-3-2-3-4l-2-1-1-3 4 1-2-5 2 1v-2l-4-1c2-1 6-1 6-5l-2 1v-6l3 1-2-2 1-3-2 1 2-6-3 1-2-4-2 3-2 2a331 331 0 0 1 0 3l2-1v1l-4 2 3 1-4 1 2 2 7 1-6 1-2-2-9 2 2 2-1 3c-2 0-6 0-5 3a1783 1783 0 0 1 6-1c2-3 4-7 8-7l-5 5c0 2-1 5-4 5l6 6v1l3-2 2-2-1 5h2l-3 2-4-1-1-3c-2-4-7 0-9 2 1-2 3-5 6-5l-3-2c-1 2-2 1-3 2v-2l-7 2v1l6 2v-2h1l-4 5h-4l-2 2 1-2 7-2a83 83 0 0 1-6-3c-2 0-5 0-5 3l6-2-4 4c-1-2-3-2-5-2l2-1-3-1-3-1-2 6 5-4v4l-5 1 1 2-4-1 3-1v-2l-4-1h3l2-3h-4l6-3-2-2h9l1-2 1-1v-2l2 1h6l-5-2 4-1c-1-1 0-3-2-3l-2 2-3 1-2 1v2h-1l-1 4v-4l-3 1v-3h-2c0 2 0 4 3 4-1 3-3 0-5 0l-2-4 3 1 2-4-2-1 1 2h-3v-1h2l-1-3 1 1c0-2 1-3 3-3l-1-2c2-1 5 1 5-2l-3-1c-1-3 2-2 3-1l-1-5 2 1-3-3h-1c-2 3-2 6-1 9a4435 4435 0 0 0-2-1l-1-2-2 3-3-1 6-3-1-4c3 0 2-2 3-4l5 2c1 1 4 0 5 2-2 0-4 0-4 3 2-1 5-4 8-1l-1-2-4-2 3-1v2h6v-3c-3 1-6 1-8-1l2-1-1-4c2 1 3 2 2 5h4l-1-4 3 2 3-2-4-2c1-1 2-2 1-3l-1-2-1 1-1 1 2 1v4h-6l1-5-2 1-1-3-2 4-1-1 1 3-2-1-4-1a338 338 0 0 0 4-2l-1-3h2v-3c-3 0-9 2-9-3a279 279 0 0 1 5 0l-6-1 1-3-2 1 1-2-3 1 1-6c0 5 4 3 7 2l-1-2 4 1-2 4 3 1-1-5h4c-1 3-2 6 0 9h2l1-3v-3h2l1-2h-3l1 2-2-1 1 4-4 1c0-3 1-5 3-6l-2 1v-4c-4 1-8 0-10 3l-3 1v-2h3v-2l-5 1 5-5 3 2v-1c-2-1-5-1-5-3l7-1-10-1 4-2-1-1 3 1-1-3-2 1v-2l5-2-6 1-1-4 3 1-1-4 1 1 3-5 1-2h-1l-3 6-1-6 5-3 1-2-2 1-3 3-1-4 4-5-4 2-1-4 2 1v-4l-3 1 1-4 1-2 1-4 1 1-1-2 2 1-1-8 2 1-1-2 4 1-1-5 3 1-1-2 2 1-1-5a17013 17013 0 0 0 1-1v-2l3 1-1-1 5-2-1-1-2 2h-3l2-4 2 1-2-2 2-4 2 1-1-4 3 1-1-5 2 1v-4l-4-1h4c-1-2 0-4 1-6l-2-1h2l-1-4 2 1v-2l1 1-1-2h4l-1-3 2 1v-1l1-1h1v-6l1 1v-1h1l-1-4 2 1v-1h1l-1-2 6 1c-2-3 0 0 2 0l13-1v2l-2 3h1l2-3c2 2 4 2 7 1l-1 2 5-1-1 2h3l-1-3 4 1 2-3 2-1-1 2 7-1-1-1h1l2-3 1 3-2 2h3l-2 6-1-4-1 3-2-1-1 6 4 1v3l1-2c2-1 1-3 2-5l1 1-1-2 4 1-1 2h2l-2-5c-1 1-3 2-4 1l2-6c2 0 2 2 3 4h2l-2-2 1-1-4-2 1-1-2 1v-5l3 1v2l2-4h4l-2 4h2l-1-2 2 1-1-4-4-2 4-2 4 2-1 2 1-1 2 4-1-6h3l2 5 3 2v-2l-3-1v-3l5 1v-2l2 2-2 1 4 1-1-2h4l-1 2 2-1-1 2h4v-2l-2 1 1-4h2l-1 2h5l3-2v-4l-7 2v-3l4-2 4-1 1 6 4-1 4-1-1 3 2-1-1 3 2-1-1 3c3 1 8 3 8-1l2 1-1-2 2 1-1-3h2l3 6c-2 1-1 4-2 6l3-1-1 2 5-1v4l-2-1 1 3-2-1 1 2h-4l1-2h-3v3l5-1-1 2 2-1-1 2 2-1v3l-2-1 1 2-2-1v2l4-4a334 334 0 0 0-1-1l5-1-1-1 2 1v-3l-3-1 4-1-1-5 3 1-1 2 2-1v3l8 1c-2-2-4-3-4-6h4l-1 3h5l-1 3h3l-1-6-3 1v-5l-2 1-2 3-5-2c1 2 3 4 3 7h-2l-3-4v-8h3v-2l-3 1v-3l4 1-3-4 4 1-1-7c3 2 3 6 6 9 0-2-1-5-3-6l9-1 1 4 1-4c-4-1-10 0-13-5l4 1-1-2 5 1c1 1 2 3 4 3l-2-3-8-4v-1l3-2 2-8 1 1-2-4 6 3c-1-2 0-4-2-5v-2l4-1 1 3 3 2 1 1 3 4c0-3-2-8-5-9l-3-3 3 1v-5l4 2c-1-2-2-4-5-4v-3h3c1 2 2 3 4 3v-4l-2 2-3-7 3 1 1-5 1 4h2l-2-5 4 1 3 2-2 3 4-1-3 3 2 4 2 3 1 2v4l5-2-3-2-2-4c2 1 5 1 6 3 1 3-2 5-4 7l1 3c0-2 1-5 3-6l2-7v-3l-1-2h4l-3-1v-5c-2-1-2-4 0-5l-2-3 4 2c2 2-1 3-2 4l3 1v-2l2 2 1-3-5-4 5-1-1-2h3l3-1-1-8 2 1h1l1 1-1 2h2v-3c2-1 5 0 6-2l1 3 1-4-3 1-3-3c-1 1-2 3-4 3l1-4-4 3-4-2c1-2-1-7-3-4 1 2 3 3 3 6l-5-5-4-2-1-4h3l-1 2 2-1-1 3 2 1 1-1v-3c1 1 3 5 3 0h1l2 4a73443 73443 0 0 0 1 1l2-2-6-4c-1 0-3 0-3-2l1-2 1 3 2-2-1 3a447 447 0 0 0 4-2c-2-1-2-2-2-3l3-1-1 2c3-1 3 3 5 5l-1 4h3c-1-3-2-6-1-9l2-1-1-2 5 1-3-5 4 1 2-2-1-3-2 2h-4l4-3-2-2-2 3v-5l6 2-1 1h3l-1-2 1 1 3-3h-2v-4h4-3l1-4h1v-3l-1 3h-2l1-2-4 1 1-2h3v-5l3-1c-2-1-3-1-4 1l-2-3h2v-2l3-1 4-1-2-2 4-1-1 2h6l-1-3h-1l4-1 5-2v-3l-5 2v-1c2 0 3-2 3-4m-35 57c-1 1 1 3 2 3 1-2-1-3-2-3m-26 35c-1 1 0 1 1 2 1-2 0-2-1-2m-4 3 1 3c2 0 2-5-1-3m5 3v-2c-1 1-2 2 0 2m-3 1c-1 5 4 3 6 4 0-4-3-4-6-4m6 4v5c3 2 1 6 0 9l4-1-2-3h3l-2-4-1 1c1-3 0-6-2-7m-6 2-2-1 1 3-2-1v3l2-1-1 2h3l-1-5h4l-2-1-3-1 1 2m2 3 2 2h1l-1-2h-2m-8 0 1 2 3 1 1 6v-4l1 1 1-4-2 1-2-2h-1l-2-1m9 8v-4c-2 0-2 3 0 4m-13 1v1h3l1 7 1-7-5-1m16 3h3c-1-2-2-2-3 0m-24 2c2 1 4 1 5 3l2-1-4-4c-2 0-3 1-3 2m10 3 1 4-3-1 1 3h-3v-5h-1v5l1 2 1-1v3l-1 2c2 0 4 0 5 2l5 3v-1c-3 0-3-2-3-4l-2 2-1-5-3-2 5-1 2 4h4l-1-3-3 1-2-5v-4l-1 1-2-6c-1 3-1 5 1 6m5-3v8a2870 2870 0 0 1 3-3l-3 1v-3l2 1v-4h-2m-14 1-1 5 3 3-2-8m-51 26 1 1h-2l1 6 2-1v5l-2-1v3l4-1-1 2h2l-1 2 2-1-1 2h9l-1-4 4 1-2-4 2-4-3 1 1-3-4 1-1-3-4-4-6 2m49 0 1 1c3 1 2-4 0-3l-1 2m-4 0c-2 0-3 2-3 4 2 0 5-3 3-4m-75 5c-1 2 0 3 2 2 0-1 0-2-2-2m-19 5c-1 2-1 2 1 2 1-1 0-1-1-2m100 4 5 3c-1-2-2-3-5-3m-54 12c1 2 4 1 3-1 0-1-3-1-3 1m36-1 4 2-1-4c-1 0-3 0-3 2m-7 1c1 4 3-2 0 0m2 3c-1 1 2 3 2 1 1-1-2-3-2-1m7 5 10 4-4-5-6 1m7 6c1 2 2 2 2 0h-2m-34 0c0 3 3-2 0 0m8 0c1 4 3-2 0 0m9 2c-2 3 3 0 0 0m15 0v2a4374 4374 0 0 0 2-1l-2-1m-5 10 4 2v-1l-3-2-1 1m-131 0c-2 3 3 1 0 0m109 13 2 1h1l-1-1h-2m33 7c0 4 3-1 0 0m-149 6 5 2v-3l-5 1m130 5-1 4 3 1-1 2h2l-2-5v1l-1-3m10 1 4 2c0 3-7 7-7 2h4v-2l-6-1v2l-1 1 2 3-4 1-3-2v4c-2-1-6 1-6-2h-5v3l-5-1 2 2h5l-1-1-1-3 5 1 1 5 1-4 6 1-6 2v4a591 591 0 0 1-3-2l1 3-4 1-3-4h-3l5 3-1 3c2 0 5 0 5 3a1133 1133 0 0 0-1 2l2-4 1 6a5985 5985 0 0 1-1 2l-3 2 5 1-1-1 5-1 3-1-5-1v2c-4 1-2-2-3-4 3 0 6 2 9 0l-3-1-3-1-3-1 1-5h-2l1 3c-2 0-4-1-4-3 1 0 3 0 4-2 3 0 5 1 8 3v2l-3 2 4-1 1 2 1 2 1-3h3l-3-2 1 2h-3l1-4c-2 0-4 0-5-2l4-1c-3-1-5 1-8-1 0-1 1-5 2-2v1h3l-2-2 2-2c2-4 5 0 5 3h-2c0-2-3-4-3-1h1l2 3c1 2 4 3 6 3 1 3 1-1 2-1h4c-3-3-7-1-10 0l1-5-2-4h2l-1-2h4l-1 3h1l5 1c0-3-3-2-5-2l1-3c2 0 5 0 5-3-2-2-3-3-6-3m-143 8v3l-4 1 2 1 3 4h4l-1 4 2-1-1 1 5 2-1-2 2 1-1-3 1 1 2-5-3 1 2 1-4 5c-1-2-3-3-3-6l-3 1-3-5 8-2c-2-2-4-1-7-2m142 5 2 1-1 1 6-1-4-1h-3m-30 2-3-1 2 5 2-1 2 5-1-5-4-2 4-2v-1l-2 2m-123-1c1 1 1 1 0 0m28 2 2 1-1-3c-1 0-2 1-1 2m-26 2 1 2-5 1 5 1-1 2 3-1-2 4-1 2 2-1 1-2 3 1-1-2 4 1v-2l-3 1 1-2-2 1 1-3-4 1v-4h-2m126 0v4c2 0 2-5 0-4m-101 5c-1 2-1 4 1 6l-5-1 2 3-1 3 4-2c1 2 2 1 3 1l-2-1 1-4-2 1v-4l3 1v-2l-3 1 1-4-2 2m113 0 3-1c1-2-4-2-3 1m17-1h3l-1-1c-1-1-3 0-2 1m-158 2v1h1l-1-1m14 0v2l3 1v-3h-3m7 2-2-1 1 3-4 1 7 1-1-6-1 2m-8 1c1 1 1 1 0 0m139 1c-1 1 0 2 1 1s0-2-1-1m-152 0c-2 3 3 0 0 0m7 2-1 2-5 1v-3l-2 3-2-1-2 5 2-3h4l-1 2h3l-1-3c3 0 4 2 7 3l3 2v5h-5v1l5-1-1 3 4-1v3l-4 1 1 6-3-2v4h-2c1 2 1 4-1 5l4 2c-1-2-2-4 0-7h2l-1 2c4 0 5 3 8 3 2 1 5 1 5 4l-4-1-6-2-1 2c4 1 9 1 12 3l2-1c-2 0-3-1-3-3 2-1 5 0 7 1l-3 2c-1 2-1 4-3 5l-3-4-5 1v-1l-2-1 1 1 2 6-5 2-1 1 5 1-1-2 2 1 2-8h2v6l4-3 2 1-2 2 2 3-6-2 1 2-2 1c-1 1-3 0-4 2-1-2-3-2-4-2l4 4-4 3 1 3c-1 2-1 4 1 6l-5-1h-4l1 2h6l7-1-6-3h6v2c1-2 4-2 3-5l-2 1-2-5 5-1a679 679 0 0 1-2 5l2-2 2-3 3-3-4-1 5-1 2-2 4-2-6 2 1-3 5-2h-3l1-4h-2l1 4-3 1c0-3 0-6 2-8l-2-2h2l-1-2 3 1-1-4a3895 3895 0 0 1-1 3l-2-1 1 2h-5l3-2-2-5-1 4-2-1c0 2 1 4 3 5h-4l-2-2 2-2v-3l3 1v-3l-4 2-3-2-1 3 4-1-2 5-5-2-3-1v-2l5 1-1-5-4 4v-4l3 1-1-3 4-1c-1-1-2-3-1-5l-4 1-1-4h2v-4l-3 1 1-3h-3c-1-1-3-3-1-3h1l2 1-3-3c2 0 3-1 3-3l-4 3m8 0c-1 1 0 2 1 1s0-2-1-1m132-1 1 2 4 4v-4l-2 1c0-2-1-3-3-3m-16 1c0 1 0 1 0 0m-110 3-4-1v1l6 1-4 2-3-1 1 6-3 1 5 1-1-4 6 2-1 1 3 1c0-3-1-4-4-3l1-6 1-3-3 2m122 0 4 1-1 2 5 1-4-3 1-2-5 1m11 0h5v4l-4-1c-1-1-4-1-3 1l7 1c0 2 2 6 3 2-2-1-2-3-2-5l3 1-1-3-3 1 1-2-6 1m-18 0c1 1 1 1 0 0m-109 3 1 1c1 1 2-2 1-2l-2 1m-29 1v2l4-1-1 5h5v-1c-3 0-4-2-4-4l-4-1m123 0c-1 3 3 0 0 0m-94 1 1 3a630 630 0 0 0-1-3m117 2 1 3c0-3 2-4 5-4l-3-1-3 2m-139 0c0 3 3-1 0 0m117 0c-2 2 1 4 3 2l-3-2m34 0c0 4 3-1 0 0m-8 4 5-1 1 5 1-5-2 1 1-2-2 1-1-2c-2-2-2 2-3 3m-128-1h2-2m8-1v1l-2 1h-1l1 4h2l-1-4 2 1v-3h-1m92 2c0 3 3-2 0 0m27 0c-2 3 3 0 0 0m-123 2-1-1c-2 0 1 3 1 1m8-1c1 1 1 1 0 0m-13 1v1h1l-1-1m105 1c-3 2 2 2 2 0h-2m28 0v-1c-2 0-1 3 0 1m-5 1 1 1h2v3l2-2 4 1v-3l-5 2c0-2-3-4-4-2m-139 0c0 3 3-2 0 0m24 0v3l-3-1 1 8 1-6 2 5c0-2 0-4-2-5l2-3 1 1v-2h-2m127 1h2c0-2-4-2-2 0m-57 1h4c-1-2-4-2-4 0m-84 3 2-1v-2c-1-1-4 1-2 3m6-2c0 2 4 0 2-1h-1l-1 1m133 1 2 1-1-2c-1-1-1 0-1 1m-6 1c1 0 1 0 0 0m3 1v2c2 2 2-5 0-2m-160 0c1 2 1 2 3 1-1-2-1-2-3-1m153 1c0 3 3-1 0 0m-149 3c0 3 3-2 0 0m3 1v3l3-1v-2h-3m140 3h10c-3-2-7-2-10 0m-135 3h2l-3-2 1 2m-4-2c-1 3 4 1 0 0m143 4c2-1 4 0 5-2-1-2-4 0-5-2v4m-112-1c0 4 3-2 0 0m-34 1c1 1 1 1 0 0m146 0c0 4 3-1 0 0m-136 17-1 2-2-3-2 2 4 2-5 2 1-2-4-2v3l4 3 3-2c1-1 3-2 4-1l-3 2 2 3 2-6c-1-3 2-4 3-5-3-3-4 1-6 2m147 5c0 2 1 3 2 2 1-2 0-2-2-2m-160 4c2 0 4 0 4 2l-3 1-2-3-1 4h5l-1 3c3-2 7-2 7-6l-5 3 1-3 1-1c-2-1-5-3-6 0m6 0c1 2 1 2 3 1-1-1-1-2-3-1m9 4c-1 3 4 0 0 0m150 0c-1 1 0 3 2 3l-2-3m-167 1v3l2-1-1 3 3-2v-1h-3l1-2h-2m19 1c-2 1 1 3 2 1 2-1-1-3-2-1m-4 3h2c-1-2-1-2-2 0m148 0c0 4 3-1 0 0m-149 3 2 2c2-2-2-4-2-2m145 0h2l1-1h-1l-2 1m-141 2c1 1 4 0 4-1-1-1-4 0-4 1m-12-2 1 3c-3 0-6 0-7 3l4-1 2 1 1-2 3-1 5 1c-1-4-5-4-9-4Z"/><path d="m1288 41 3-2 2 4c-2-1-3-2-5-1-2 0-3 2-3 3l-2 1v-4c2-1 3-2 5-1ZM1259 41l3 1-1 2 2-1-1 2c2 1 4 0 5 2l-3 1h4l-6 6-1-4-1 4c-3-2-1-4-1-7l-4 2 2-2-1-4c0 2 2 3 5 3l-2-5Z"/><path d="M1264 42c4 0-2 3 0 0ZM1288 47c-2 0-1-3 1-2l-1 2ZM1268 50l1-4 2 5-3-1ZM1247 52v-2 2ZM1252 51l5 1-3 1 1 2 6 1-1 3-3-3c0 2-2 1-3 2l-2-7ZM1271 53l4-2-2 5-2-3ZM1263 60l2-6 1 6h-3ZM1268 55l1 2 2 2h-4l1-4ZM1272 57l5 1-1 3-4-4ZM1249 58l4 1-1 2h5l-1-2h3l-1 2 5-1-1 4-4-3-2 4 4 2 1 5 2 2 3 1-6 1 1 4 3-2v5-3l-6 1 1-2h-3l1 3-5-1 1-4h-3l1 3-3-1 1-1 3-5-3-2h-1c-3-1-2-5-2-8l3 1c-1-2-2-3-4-3l6-1-2-2m8 9c-1 1 2 3 2 1l-2-1ZM1268 62h6l1 3-4-3-1 3-2-3ZM1265 62c3-1 1 4 0 0ZM1276 66c-1-2 3-2 2 0h-2Z"/><path d="M1261 66h7c2 2 5 0 8 1l-4 1-1 3c-2-1-2-4-4-4l-1 3h-3l-2-4ZM1273 72l4-4v6l-4-2ZM1263 71a9226 9226 0 0 0 5 3l-2-2v2h-2l-1-3ZM1213 78l6-1v3l3-1v4c1-1 3-2 3-4l-1 4 3 2 1-3 1 2c2 1 2 3 1 4h3a9454 9454 0 0 0 2-1c1 1 2 3 4 2l2-4c0 4-2 7-3 10l-1-4-2 2 3 4 2 5 4-2a2509 2509 0 0 0 2 0c-3-2-2-6-2-9l2 1-1 4 3-1c0 2-2 4-1 6h4l-2 6-1-1c-1 2-3 1-5 2l-1-4-4 1 1-4-2-3h-2v-1l-3-3-3-3v-1l-2 1 1-1-2-2-1 1 1-1-4-3v-2l-3-3-6-2m28 24c-1 1 1 3 2 2s-1-3-2-2m5 3 3 1-1-2c-1-1-3-1-2 1ZM1267 83l-1-5 2 2c-1 2 1 4-1 7h-1l-2-3 3 1v-2ZM1245 84l3 1 1 6-3-4h-1v-3ZM1231 86h3-3Z"/><path d="M1243 88c1-1 3 0 3 2-2 1-4-1-3-2ZM1249 89h4c0 3-1 4-3 5l-1-5ZM1239 92h3c0 3 2 6-1 7l-2-7ZM1252 104h3l2 2v4c2 0 2-2 1-4h2l-1 1c3 2 1 6 2 8l-5 1 1-5c-3-1-5-4-5-7ZM1237 109l3-2 1 4h3c0 2-2 3-3 3l5 2 3 1c0 2 1 4-1 5l-2-5c-1 2-3 2-4 2l-6-3 4-1-3-6m4 6c1 1 1 1 0 0Z"/><path d="M1245 110c1-1 4 2 2 3-1 1-4-2-2-3Z"/><path d="M1249 111c2 0 4 0 7 2l-1 2-3 3v-5c-2 0-3 1-3 3l-2-2 2-1v-2ZM1256 116c1 1 1 1 0 0ZM1235 118l4 2-1 2 4 1-1 3 2-1-1 1 5 3-3 5h2l1-4 3 2-3 2 5 1v5c-4-1-4-4-7-5l-2 4c0-2 0-4-2-5l1-5h4-6l1-2-1-1c-1-2-4-3-6-4l3-1-2-3Z"/><path d="m1239 120 5-1 3 3-1 2h4l-5 3c0-3-2-5-3-6l-3-1Z"/><path d="M1248 130c-2-1-1-7 2-4l1 3v1c0 3-2 1-3 0ZM1225 143l1-3-1 3ZM1010 166h13l-2 3-4-1v14h-2v-14h-5v-2Z"/><path d="m1022 182 1-17c3 3 4 6 6 10l5-10 1 1v17l-2-1v-10l-4 8-5-9v12l-2-1ZM599 187c4-1 6 2 8 4l-1 2-1 9 3-4 3-1c0 2 0 5 3 6-2 2-1 5-1 7 2 7-1 15 0 22v8l-2 2-2 2 9-4c0 3-2 6-4 8v-2l-3-1h4v-3c-1 2-3 3-5 3l1 4 2-1h3l-2 9 6-9 8-1-1 10c-1 2-4 3-5 6 2 1 3-2 4-3l2-2 3 1c-2 2-2 5-2 7-2 2-5 2-7 3l-1-5c-4 1-7 5-11 6 4 2 6-3 9-4v18l-3-1 2 3v9c-1 2-4 2-6 2l3 1 1 4c1-1 0-6 2-4 1 5 2 11 0 17-1 3-2 6 0 9v-3h1l-1 9h-3c-2 3-6 5-5 10v4l-4 9-7 12v-12l1-22-1-32 1-9c0-3-2-5 0-8l6-10 1 3 4-4c-3-1-6 2-8 4l-4 4 1-12c0-3 2-5 3-8l-5 5-1 4c-3 0-6-2-8-5l1-12c3 0 5-4 8-4l1 3c3-7 1-15 2-23h1v8h3l-1-2 3 1-1 3 2-1-1-1 2-2 3 2-1-3-6 1v-3l6 1-1-3-2 1v-3l4 2-2-3h1l-4-3 4 1-1-2-3-1h5l-3-2h3v-2h-3v4l-2-4 1 3-3 1 1-4-1 1-2-4h3l-1 2s1-3 2-1l1 2v-5l4 2-2-2h1l-4-1 1 2c-2 0-4 1-4-1l-1-1 1-1h-3v8l2-1v5l-2-1v7c-2-3 0-6-1-9v-14c-1-1-1-3 1-4l-2-13m1 1 1 8 2-1-1 3 3-2-2-2-2-1 3-1v-3l-2 1 1-2h-3m7 16c1 1 1 1 0 0m-3 2c1 1 1 1 0 0m0 1 4 1-1 2h3v-4l-6 1m5 7c0 4 3-1 0 0m-7 23h4c-1-2-4-2-4 0m3 3c-1 1 2 2 2 1 1-1-1-2-2-1m-3 0c-1 3 4 0 0 0m1 5c-2 3 3 1 0 0m6 4v-1c-1-2-2 1 0 1m16 0-2-2 1 3-4-1-1 3-2 5-3 2c2 0 7-2 7 2h-2v1l3-1v-2l-2-3 3 2 1-4-4 1 1-4 2 2 4-1-1-5-1 2m-29 0c-2 3 3 0 0 0m5 0c1 1 1 1 0 0m-2 3-1 2 3-1 2 4a632 632 0 0 1 1 2l3-3-4 2 1-4-2-2a552 552 0 0 0-3 0m8 0c1 1 1 1 0 0m-10 1c0 1 0 1 0 0m7 0c1 1 1 1 0 0m-13 3-1 8 3-2v3l4 1v-2l-3 1c0-2 1-4-2-4a104 104 0 0 0 0-10l-1 5m17 2v-2 2m-14 0v1c0 1 4 2 5 1l-5-2m17 2h2-2m8 1c-1-1-1-1 0 0m-23 0c-2 3 3 0 0 0m13-2 2 6-5-1 3 3c2-1 2-4 4-3l1 2h2l-1-3h-3l-3-4m1 28c1 1 1 1 0 0m6 37-1 4c2-1 2-3 2-4h-1ZM971 189c1-4 4-1 7-1v8c2-1 2-4 3-6l1 1 1 6 2 6-3 24v6l-3 6 3-3v18l-1 14c2 6-1 13-3 18l4-5v60l-3-6 3 17c1 6 0 13-1 19-3 1-4-2-6-3l-1-5 1 6h-5c-1-4-1-9-3-13l-5-9v-7l-1-13 3-1-1 3c1-2 5-3 4-6l2-3-2-8v9l-4 1-1 3c-2-2-1-4 0-7l2-10-2 2-1-26c0-8-1-18 5-25v-4l-4 9-1-11 1-6 1-4 4-6-1 6h1c0-4 1-8 3-11l-5 5-3 3v-17l-3-22-2-9 4-4 6-1-2 5h-3l3-3h-5v1l-1 8h3l-1-5h3l-1 9 2 3 2-9h3l1-7 1 2-1 5h6l-1-8-5 1m10 5-1 3c-1 1-2 3 1 3l-1 2 1-1 1 3v-5l-1-5m-14 6c2 0 4 1 4 4l2-1-3-3a33 33 0 0 0 6-2v-1h-8l-1 3m-6-1c-1 4-1 7 1 10l-1-10m12 5 2-1-1 2 3-1v1l2 3 1 2h-4l1-3h-3l1 2c-2 1-1 3-2 4l-4 1 1-2h-2v-3h3l-1 3h2l1-5-4 1 1-6h-4c1 3 0 6 2 7l-3 1v-5l-2-1v11l1 2 1 6 1-10 2 4v-1l2 4-1-5 5 1-1-3h3l-1 2h4l-1-5 2 3h1l1-9c-1 0-4 2-4 0l2-1-4-1-2-1-1 3m2 1c0 1 0 1 0 0m-4 14c1 3 3-1 1-2l-1 2m5 1c1 1 2-2 1-2-1-1-2 2-1 2m3-2c0 2 0 2 1 1 0-1 0-2-1-1m-12 1c1 1 1 1 0 0m-5 1c-1 3 4 0 0 0m11 0c0 3 3-2 0 0m4 0v5l2-1c0 2 0 4 2 5l-1-9h-3m-7 4 5 3-1 1h4l-1-3a7977 7977 0 0 1-7-1m-7 0 1 8-1-1-1 5 3-1-1-3c3-1 1-3 1-5l-2-3m3 4 3 1-3 3 4-2v-4l-4 2m6 0c-1 1-2 3-1 4 1 0 3-3 1-4m5 4c2 0 0-3-1-3l1 3m-4 0c-2 3 4 1 0 0m1 4c1 1 1 1 0 0m-1 3 1 1h1c2-2-2-3-2-1m-4 2c1 3 3-2 0 0m8 2c0 2 4 2 2 0 0-1-3-2-2 0m-11 0-1 4 2 1 2 2-3-7m2 0 2 2a490 490 0 0 0 2-2h-4m6 1 2 1c0-2-1-2-2-2v1m-10 0c1 1 1 1 0 0m12 2c0 2 2 2 3 2v-1c-1-1-2-2-3-1m-4 2h3-3m-9 4c1 0 2-1 1-2-2-2-3 2-1 2m10-1c0 3 3-2 0 0m-11 2c-1 3 4 0 0 0m9 4c3-1 3 1 4 3l-6-1 2-2-3-1 1 4 6 1 1 3-6-2c2 2 4 3 7 3l-1-4 5 1v-1h-6v-4l3 2-2-4c-2 1-4 1-5-1v3m7-2c1 1 1 1 0 0m-9 6c1 1 1 1 0 0m-3 1c-1 1 0 2 1 1s0-2-1-1m-1 5c1 0 2 0 1-2-2 1-2 1-1 2m7-1c1 1 1 1 0 0m4 1c-1 1 0 2 1 1l-1-1m-8 1c1 1 1 1 0 0m-3 5c1 1 1 1 0 0m3 3v-4 4m-4 2v-2 2m7 1c1 1 1 1 0 0m2 0c1 1 1 1 0 0m-6 3c1 1 1 1 0 0m7 7c-1 1-2 3-1 4 1 0 3-3 1-4ZM1126 186c1 0 3-1 3 1 0 1-6 2-3-1ZM609 189l3-1 2 5v6l-2-7-3 1 2-2-2-2Z"/><path d="M615 191c3 0 4 2 4 5-2 3 1 7 0 10-3-1-5-4-6-7 2 0 3 1 3 2l1-1-2-1c3-1 1-4 2-7l-2 1v-2ZM1117 201l3 1 1 1h1v3h-5v-5ZM616 206l4 2-1 5-2 5 2 2c0 2 1 4-1 5l-3 2v-10l2 1v-2l-2 1c1-4-1-8 1-11ZM365 216c2 1 6 1 6 4v1l-1-2h-1l-3-2-3 6-1-1 1 4-2-1 1 2h-2l1 4-2-1v6l2-1v1l1 3 2-1c-1-2-3-6 0-8l-2-2 4-1v1l1 5-2-4 1 7h1l1-6 1 3 4 1v-3l-3 1 1-2-5-1 4-1v-2l-2 1v-2l-2 1 1-1-4-1 6-1c2 2 3 4 2 7l2-1-1 2 1-1c0 2 1 3 3 3l-1-8c2-1 1-4 2-6-2 1-5 3-5 0l6-1v38l-1 10-3 1-5 11 3-1 1-4 2 3-4 5-1-3-5 5-1 3-3 1v2c3-2 5-4 6-7l2 3h6c0-2-1-5 1-6l2 11c0 5-3 10-5 15l-13 28-1-42v-8l3 2v-10l-1 9-2-4c0-4-1-8-4-12l-3 15c1 3-1 4-2 7-2 2-2 4-2 7l-5 3-4-6 3 9 8-7c-2-3-1-6 2-8l1 17c0 2-2 4-4 6l3-3c2 5 0 11 0 16v20l3 8c-5 4-5 11-8 16 0 3-6 3-7 0l-5-10-1-15 1-45v-24c-2-4 1-8 3-13l4-5c1-3 5-2 7-5 1 3 3 5 6 7l5-4c4-4 3-11 0-15-2-4-2-8-1-12l6-11m-1 18c-2 3 3 0 0 0m5 5 1-1c0 3 4 2 6 3v-4l-6 1 4-2-4-2-1 5m-5-2c0 2 0 2 2 2 0-2 0-2-2-2m3 3-1 3 6-2-5-1m-4 0c0 3 0 5 2 7l-1-7h-1m12 2c0 1 0 1 0 0m-9 1 2 3v-2l-2-1m6 1h1c0-2-3-1-1 0m2 2c-1 1 1 2 2 1l-2-1m-3 2c1 0 1 0 0 0m-4 3 1 2 5-1-1 4a271 271 0 0 1-4-1l2 3 2-2v4l-2-2-3 2 6 1v-4l2 2 1-5-3 1v-2h2v-2l-3 1 1-2-6 1m-5 3v2l-4 2a635 635 0 0 0-6-1l1 2-4 1 3 1v1l-3 1c1 2 2 4 1 7h4l-3-1 2-1-2-2 6-2-3-3 1 4-5-1 3-1v-4c1 2 3 2 5 0l4 1 1 3c1 1 3 0 4-1h-3l1-4-6 1 3-1 2-5-2 1m2 2c1 1 1 1 0 0m2 1c1 2 2 2 2 0h-2m-24 2c1 0 1 0 0 0m25 0c1 1 1 1 0 0m-28 4c1 1 2 0 1-1s-1 0-1 1m7-2v3h2l-1-3h-1m13 3-1 1 3 1v-3l-2 1-1-3c-1 1-1 2 1 3m8-4v4l7 1 1-3-2 2c-1-2-3-1-5-1l-1-3m-29 4c1 4 3-2 0 0m24 0 1 4 4-2-5-2m-14 2c1 1 1 1 0 0m-9 1c0 3 3-1 0 0m29 3c1 1 1 1 0 0m-5 3c1 1 1 1 0 0m3 3v-2c-2-2-2 3 0 2m-24 5c1 1 1 1 0 0m20 9c1 1 1 1 0 0ZM902 218l5 1c0 3-2 6 0 8 2-1 1-3 1-5l3-3 1 9-4 2h4l-1 11-12-1v-8l-1 8c-1 0-4 1-4-1l-1-19h4l4-1-1 4 1 5 1-10m1 2v11l2-1v4l-1-2h-1l-1 2-1-2 1 6 1-2 4 2-1-2-4-1 6-1-1 2h2l2-3-5-2 1-2c-4 0-2-5-3-8l2-1h-3m-8 2c-2 6 1 12 1 18l1-5 1-9-3-2 3 1v-3h-3ZM275 219l3 2-1 10-2 2 2 2v-3l4 7c-2 0-4 2-5 1v-5h-1v-16m2 20c2 1 3-3 1-3l-1 3Z"/><path d="m279 220 3-1 7 1h-9v5l5 2-6 1v-8Z"/><path d="M288 219c2-2 3 3 1 1l-1-1ZM292 228l-1-9c3 2 2 6 3 9h-2ZM24 223l4-1 3 12 1-2 2 2 3 4-1-5 5 5-3 8h1l1 2-6 1 4 3c2 0 3 1 3 3v11l3-7 5-4h3l5-2-6 9 2-1c0-3 5-4 8-5 2 3 4 6 4 10l2 18-1 2-1 5h-1c2 2 3 5 2 8-3 1-7 1-11-1l-2-5-4-1-1-6v-16l-5-4c3 2-1 3-2 4v-4c-1 5-3 10-6 14-2 5-7 7-11 10-2-5-2-10-1-15v-23l3-1 2 6-1-5 5-4-6 2c-3 0-4-4-7-6l2-6-5 1c-2-3-1-6-1-9l3-2 6-5m-1 4h5l-2-4c-2 0-2 2-3 4m-4 2-2 1-1 3 2-1-1 3h2v-5l4 1 5 2v-5l-5 1 1-2-5 2m3 3c0 2 0 4 2 4s0-4-2-4m9 4-1 1c2 0 3 2 3 4l1-1-1 2 4 1v-4l-3 1 1-4h-4m-8 1c1 1 1 1 0 0m15 1c1 1 1 1 0 0m-16 0-1 6 4 4-1-4v1c-1-3 0-5-2-7m3 2 3 3-2 4h3c-1-3 1-5 2-7-2 2-4 1-6 0m7 3v2l4 2-1-2h-1l1-2h-3m0 7v1c1 2 3-1 1-1h-1m2 1c1 1 1 1 0 0m-2 2c1 1 1 1 0 0m6 2c0 2 1 2 2 0h-2m12 2-6 4 2 2h-3l4 1c0-1-2-4 0-4l2 1c0-2 0-4 3-4h-2m-20 0c1 3 3-2 0 0m-5 3c2-1 2-1 0-2v2m12-2c0 3 3-1 0 0m21 0c-1 2 4 3 2 1l-2-1m-31 1c1 1 1 1 0 0m2 0 2 3c1-2 0-4-2-3m-3 3h3-3m12-2c1 2 1 4-2 5v1c2-1 5-3 2-6m24 1c-2 3 3 1 0 0m-38 1c-1 3 4 0 0 0m32 0c1 0 1 0 0 0m-22 2c1 1 1 1 0 0m27 1v2l1-1 1 5 1-5-3-1m-34 6v-3c-2-2-2 3 0 3m4-3c1 1 1 1 0 0m3 3v-3 3m24-2c1 1 1 1 0 0m2 0c1 1 1 1 0 0m-26 2c0 1 0 2 1 1s1-1-1-1m16 0c-2 3 3 1 0 0m7 3c1 1 1 1 0 0m-26 2h3-3m21 0c1 1 1 1 0 0ZM25 230c1 1 1 1 0 0ZM278 230l3 1 1 3 2 5 2-1 1 2v-2h3l1 2v-10h3l-1 11-12-1v-4l-3-6ZM533 247l7 4c2 4-2 7-2 11h-2v1h4c-2-4 2-7 3-11l3 4c0 2-2 3-3 4l4-1 1 17h-2l-1-3v4l3-1-1 17c0 3 2 5 1 8l-2 12 2 6v17l-1 22c1 4 2 8 1 12h-4l-2-4 1-3c-3 1-1 4-1 6-2 0-5 1-7-1-2-4-3-8-6-11l-1-7 2 2c-1-4-2-7-1-11v-11c1-14-1-29 2-43l1-11c-2 3-1 7-3 9-1-7 2-14-1-20-2-1-4 1-6 1-2 5-2 9-1 14v40c1 6 0 13-1 19l1 18-2-4c0 3 0 5 2 7v7l-4 4c-3-5-2-11-4-15-1 5 3 10 0 15l-2-4v3h-8v-11l2-1 3 3c0-2-2-4-3-5-3-6-3-12-2-18 5 5 4 12 8 17l-2-8-4-10-1-8c2 2 3 5 3 8l2 2-2-11-2 1 1-3-2 2v-6l2 1c-1-2-3-4-3-7v-30l2-8c-1-3 1-4 2-6 1-3-1-8 2-10l11-13 3 1v4c2-1 4-2 7-1-1-2 1-4 3-6m-13 5v1c1 0 2 0 1-2l-1 1m14 6c0 3 3-2 0 0m-22 4c2 1 4 3 5 0l-4-1 3-1-1-2-3 4m13-2c1 1 1 1 0 0m-16 6h2v-2c-1-2-3 1-2 2m9-3c1 1 3 2 5 1-1-2-3-2-5-1m-2 5c1 1 1 1 0 0m28 0c1 1 1 1 0 0m-32 1c1 1 1 1 0 0m2 0c1 1 1 1 0 0m21 0c1 1 1 1 0 0m-21 4c-2 1 2 2 2 0h-2m1 2h4-4m0 2c1 1 1 1 0 0m20 6c1 1 1 1 0 0m-22 7c1 1 1 1 0 0ZM630 247h3c0 4-2 7-4 10l1-10ZM216 250l8-1v7l2 4c-4 5-5 12-7 18 0 2-2 3-3 4v-8l2 4v-8 5l-2-1v-5l-3-2h-4l-2 1v-3h-1v22l-1 4c4 0 3 4 3 7h3c-1 1-2 4-4 4l1-1-2-1 1-3-4-1 2 2-2 1 4 4h2l-3 6 3 6 1-7 6-7 2 1c4 0 7 4 10 7 2 2 6 3 5 6v28c-1 7 2 14-1 21l-3 1 1-6h-3l-1 4 2 3-9 2c-5 3-12 3-18 1l-2 1c-2-3-6-4-9-4-2-3-1-6 0-8-1-2 0-4 1-6l-2 1v-27c3 0 8-1 9 3l-2 9c0 4-3 7-4 11l7-17v-3l1 2c1-3 4-3 6-3l1 13-1 12h6l4-3v-11l1-15-3-4c-3-1-5-3-6-6l-2 3-8-7-9-8 1-33c0-1-1-4 1-4l2 2 3 1c-1-2-3-4-2-7l6-6-1-1c-1 3-5 5-8 8l-1-6c2-2 4-5 7-5v3l4-2-1-1h-2l-1-1 8-1-5 5 6-4h10m-11 1v2h4l-1 3 3-1-1-3a398 398 0 0 0-5-1m12 0h-2v3h3l-1-2 5 2 1-4-6 1m-24 2 1 2h-2l1 4v-3l2 1 1-4h-3m11 1c-1 2 0 5 2 5l-2-5m-3 3c1 1 1 1 0 0m-1 0-1 5-3-1-1 4 5-2-1 3 5-1s-3 0-3-2c3 0 7 1 7-2l-2 2-4-4-1 3-1-5m4 3c1 1 1 1 0 0m6 1c1 1 1 1 0 0m-13 5c1 1 1 1 0 0m22 0c1 1 1 1 0 0m-19 2c-2 3 4 1 0 0m2 1c1 1 1 1 0 0m-7 1c1 1 1 1 0 0m2 2c1 1 1 1 0 0ZM426 252c4 0 7-3 10-3l3 3c0-3 3-2 5-2l11 1 1 2 2-1c2 3 5 6 3 10l-1 11c-1 6 2 12 1 18v22l-4-2-7 1-2-6 3-4-3 2c1-4-2-6-4-9 1-5-1-10 1-15l-1-6v-5l1-4 2 2c2-2 2-4 1-6l-1 5c-2-3-6 2-8-2l-7 2-2-3 3 1v-2l-1 1-5-1c2 1 4 2 3 3-1 3-3 3-5 3v1l4-1 1-2h3l-1 4-2-2-1 2 4-1v-3l5-2c-1 2-3 3-2 5-1 8 1 16-1 23l1 5 7-1 5 5-4 1-2-2-1 1-3 1h4l6 1c-1 3-4 5-7 7h-4c-2 3-2 5-1 8l-8 10c-4 2-6 6-9 9-1-5 1-11 1-17l-1-12c1-3 3-5 3-8l-1-9-2 1v-23c1-5 0-11 2-16 1-2 4-1 5-1m7 3c1 1 1 1 0 0m2 1h4l-1-1c-1-1-3 0-3 1m-3 4v-3 3m-7-2 3 2h1c-1-1-2-3-4-2m11 1 1 4v-3a342 342 0 0 0-1-1m13 1c1 1 1 1 0 0m-22 4c1 1 1 1 0 0m31 4c1 1 1 1 0 0m-32 2c1 1 1 1 0 0m-4 2c1 1 1 1 0 0m26 0c0 3 3-1 0 0m-18 4c1 1 1 1 0 0m1 2c1 1 1 1 0 0m-9 9-2-2v3l1-2 2 3c-1-2 2-2 3-3l-2-3-2 4ZM731 250c3-2 6 0 9 0h13l1 3v10c3-3 1-7 2-11 2 2 5 6 4 10l-1 10v15l1 6-5 2-3-3-3 2-2-5c1-3 0-5-2-7l-2 1v-17h-8v20l-2 4c2 1 2 2 2 3-2-1-3-2-3-4l-5 1c-2-1-5-2-6-4l-3-1c0-3 1-5-1-7-1-2 0-4 1-6-1-5-1-11 1-16l2-4c4 0 7 0 10-2m21 4c2 0 0-3-1-2-3 0-1 2 1 2m-31-1 1 3h-2l1 4 1-4 1 4c1 2 4 3 4 6l1-3-3-2-2-2 1-1 1-4-4-1m4 0 1 3h4l-5-3m21 1h3c0-2-4-2-3 0m-5-1 1 7 2-2 2 3 4-1h-1c-3 0-5-3-7-4v-3h-1m-7 2c1 1 1 1 0 0m2 1 3 1h1c1-2-4-3-4-1m14 0c-1 0-1 0 0 0 1-1 1-1 0 0m-17 0-1 4 3-1v3l1-1-1-3-1 1-1-3m-7 2c1 1 1 1 0 0m2 0c-1 3 4 0 0 0m9 0a665 665 0 0 1 1 2l-1-2m-7 2c1 1 1 1 0 0m-11 2v4l1-3h1l-1 3h2v-5l-3 1m23 0 3 1c0-2-2-2-3-1m5 0c1 1 1 1 0 0m-2 2c0 2 3 3 4 2l-4-2m-23 3c1 1 1 1 0 0m23 0c0 4 3-1 0 0m3 1c1 1 1 1 0 0m-2 5v-3c-2 1-2 3 0 3m4-1c1 1 1 1 0 0m2 1c-2 3 4 1 0 0m-7 2v2h2l-1-3-1 1m9 0c1 1 1 1 0 0m-23 1c1 1 1 1 0 0ZM798 249h5l2 4c0-1 0-3 2-4v5l2-5 2 1 5-2 2 4c2 3 1 6 1 9l1 17c1 6 2 13 0 20l-6 5-3-1-5-13 1-3 5 6-5-7 1-1 2-1v2l3-1c0 3 2 5 5 7l-1 1h1l1 1 1-2h-2v-2l-1 1v-2c-2 0-3-2-3-3a308 308 0 0 0-1-1v-2l-3 1v-2h-2l1 1c-3 0-2 3-4 4 0-3-1-5-3-7-2-3 1-7-2-11v13h-1l-3-27c-1-1 0-3 2-3 0 5 3 10 3 16l1-1 2-12-2 6c-3-3-4-7-4-11m1 2 3 2 1-3-4 1m11 0-1 3 2-1-1 3h3l-1-4 2 1v-3l-4 1m6 5c1 1 1 1 0 0m-12 5c2 0 2 0 1-1-1 0-2 0-1 1m9-2 1 3 1-1-1 3 4-1-4-2 3-1v-1h-4m-6 2c1 0 2 0 1-1-2 0-2 0-1 1m5 0c1 1 1 1 0 0m-5 3v-2c-2 1-2 2 0 2m2-2-1 2 2-1v3h4l-4-1 3-2-4-1m-6 2c0 2 2 3 3 2l-3-2m11 4 5-1c-2 0-3-1-5-3v4m1 1h3-3m-4 0c1 1 1 1 0 0m2 0c1 1 1 1 0 0m3 8c1 1 1 1 0 0m-2 13c1 1 1 1 0 0ZM116 252l5-3 21 2c2-1 4 2 5 3l-5 4c-2 2-1 5-3 7l-4-1-1 3-3 2-4-4-2 4-3 1-4-1 3 2c-4 1-8 2-12-1l5-2h-5c-3-5-2-11 1-17l3 1 1 2 2-2m13 3 2 5 4-1-4-1-1-2h5l-6-1m-11 1c1 2 1 2 2 1 0-2 0-2-2-1m-9 2c1 1 1 1 0 0m28 2c0 4 3-1 0 0m-24 4c1-1 1-3-1-3l1 3m2-1 3 1-1 1h3l-1-2 3-1c-3-1-5 0-7 1Z"/><path d="M503 255c1-2 0-5 2-6l2 3v-3h10l-10 14c-2 2-2 5-3 7-2-4 0-10-1-15ZM830 251l9-1 2 2 1-2 6 1h2c-1 4-3 9-6 13-2 4-3 9-3 14 2-7 4-16 11-20-1 3-3 6-3 10-1 5 0 11-4 15l-4 3c-2 3-5 5-8 6 1-5 5-10 8-14-5 2-5 7-8 10l-3 3 3-1-2 3-2-2-2 3c0-5-2-12 1-16 0-7 2-13 1-19l1-8m13 0 1 3 2 2-1-3 3-1-5-1m-7 1c0 4 3-1 0 0m-5 1-1 2 3 1-1-2 3 1v-3l-4 1m3 3c0 2 1 2 2 0h-2m4 6c-2 3 4 0 0 0m5 18v-2 2ZM226 252l7 6v5l-4-1 4 6v8c0 2-3 3-4 6l-3 9-5-1-2 1-3-4c4-6 6-13 7-20 0-2 2-3 3-5l4-1c-3-1-4-4-5-7l1-2m4 7-2-4c-2 1 0 4 2 4m-8 22c-1 1 2 2 2 1 1-1-2-2-2-1ZM144 258l4-3c1 2 2 5 1 7-2 1-4 0-6-1l1-3 2 2 2 1v-2l-4-1ZM275 259l7-1v2l-6 1h4l-4 2v3c1-4 6-5 10-5l-1 1 6 2-1-2 4 1c-2 6-1 13-3 19-1 2-2 5-5 7l-6 9 1 1c-3 3-4 7-6 11v-51m9 5c1 1 1 1 0 0m2 0c1 1 1 1 0 0m-5 3v-2 2m8-2c1 1 1 1 0 0m-2 1c0 1 0 1 0 0m3 1c0 1 0 1 0 0m-11 3c1 1 3 0 3-1-1-1-3 0-3 1m-2 0-1 4c2 2 2-4 1-4m7 0c1 1 1 1 0 0Z"/><path d="m282 259 11-1 1 4-3-1 1-2-3 1h-7v-1ZM897 259l2-1c-1 4-3 7-6 10l1-9h3ZM898 267l4-9 1 2 9-2-1 1-3 1-7 2 1 1-2 1 1 1c2 0 4 3 6 5l-1 2a296 296 0 0 0 1-1l1-2-4-3-1-3h4c0 3 2 3 4 4l-3-6 2 1 1-2h1c-1 3 1 7-2 9l2-1-1 13 1 11-1 23v17l-6 1-6-8 2 9h1v-3c2 2 3 5 3 8l2-5h4l1 6c-1 7 1 13-1 19l-7 11-2-3-1 2h-8v-15l3-5-3 1c0-4 5-6 8-8l1 4 4-3-1-4-1 2h-1l1 2-4-2-3 2-2-2c-3-8-2-16-2-23v-22c0-7-1-15 1-22l4-7m6 12c1 1 1 1 0 0ZM289 262c1 1 1 1 0 0ZM1169 263l3-1-1 3h-2v-2ZM139 265l4-2 6 1c0 6-2 12-1 18v12l2-2c-1 3 0 8-3 11-3 2-5 7-10 8h-11l-2 12c1 7-1 14 1 21-2 2-5 0-7 1-2 0-1 2-2 3l3-3 1 2h-2c2 2 5 1 7-1l1 5 5-1c0-3 1-5 3-7h3l4-7h6v4c1-1 1-3 3-3l-2 15 1 7-6 3 5-1c-1 4-4 7-8 8-5 0-9 2-14-1l-1 3-3-1-1-3-4-5c0-5-1-9 2-13l-4-1-6 9-1 1-2 1 1-19c-2-10 1-21 0-31 0-8-2-16 0-24l1-7-1-5h8c2-1 3 0 4 1l3-3v8l2-2v18l1 4 5-1c2-2 1-5 1-8-2-2 0-5 0-8 0-5-1-10 2-14l6-3m3 9c1 1 1 1 0 0m2 0c1 1 1 1 0 0m-10 3c1 1 1 1 0 0ZM35 283c2-3 3-7 6-9l1 24c-1 9-7 14-11 21 2 6 1 12-2 17-1 3 0 7-2 10l-4 9v-61c3-5 8-8 12-11m3-2c1 1 1 1 0 0ZM229 289c0-4 1-8 5-11l-1 11h-4ZM802 282c2 1 2 4 3 6l1 1 3 10 2 9 1-4 2 4v-4l4-2 2 3-2-3 3-2 1 12 2 4c2-3 1-8 2-12v-9l5-1 15-10 3 1c0 5-2 11-4 16l3-4-4 20-1 4c1 2-1 5-1 7-3 12-4 24-5 36l-1-1v4l1-1-1 4h-5l-4-6 3-1 6 3-2-3c-2-3-6-3-8-7-1-1 1-2 1-4-5-3-1-10-6-13l-6-21-3-9-2-1 3 12 2 4c2 6 5 11 6 17s3 12 2 18l1 8 2-2 3 4h-9l-9-7-3-21c-2-12-4-23-4-35l-3-19 1-5m7 25c-1 0-3 2-1 3 1 0 2-2 1-3ZM292 282v7l1 1c0 1 1 3-1 5v-6l-5 9-2 8-5 9-3-6c1-8 8-13 10-20l2 2-1-1 3-1h-3l4-7ZM743 291l1-8 3 3-2 3 4 5-5 1v-4h-1Z"/><path d="M717 289c4-2 7 1 10 2l4-1 2 3 3 4 8-1 2 4-2-4 6-2c1 1 2 3 0 3h-3c1 0 2 3 3 2 2-1 3 1 4 2l2 2-1-4c-3 0-3-4-4-5 4 2 7 5 9 8-1 4 1 8-1 12l-4-3h-9v-4l-2 3-9 1-5-9-1 4 2 1c5 7 4 17 4 26l-3-2-2-8v-2l-5-13c1 8 6 16 7 25l-1 5c3 3 4 6 3 9l2 4h4l3 7-1-6c2 1 2 3 3 5h3l-3-2v-3l-4-1 3-3-1-1 1-8c2 1 4 2 6 1l-7-2 1-11c4-4 11-3 16 0v32c-3 0-3 3-3 5h-7l-2-4-2-3c2 4 2 8 1 12l-12 2-2-2h-3l1-2c-3 2-5 0-8-1s-5-5-6-8c0-5-1-10 1-15l-1-7 1-23v-9l-1-10 11 10-1-2c-4-4-9-7-10-13ZM48 294l5 1v5h-3l-2-2v-4ZM418 293l3 5c0 2-1 4-3 5v-10ZM757 295h4l-1 6-3-6ZM286 307c0-5 2-9 5-12l2 1v43c0 4 1 9-1 13 2 5 0 11 1 16l-7 1-6-4-1-3-5-3 1-20c1-4 3-8 3-13-1 3-1 7-3 9 0-4 0-9 4-10v-5l-1-1c-2-2-2-5-2-8l4 5c0 1-3 3-1 3s1-2 2-3c1-4 3-6 5-9ZM210 300l3-3 2 3-7 8 2-8ZM1156 300c1-1 2 1 1 2l-1-2ZM1075 301h2-2ZM372 309l5-10c1 6 2 12-1 17l2 2-1 3c-1-1-1-3-2-2l-2 5c-4 4-6 10-9 14 0-3-2-6-1-8 2-8 7-14 9-21ZM147 304h2c2 2-3 2-2 0ZM146 305v4l3-2-1 6-2-1h-4c0-3 2-6 4-7ZM1187 306c2-2 2 3 0 1v-1ZM41 306v9c-3-3-2-6 0-9ZM443 311l5-6 1 6h-6ZM1066 308c0-2 4-2 2 0h-2ZM32 320l6-9 2 5c2 12 0 23 2 35l-1 9c-3 2-3 6-6 8l-2 1 4-2 2 13 4 1v16c0 4-2 9-1 13v8l-1 19-5-7c2-3 4-7 2-10l-4 7 3-13c0-5-2-10-4-14-3-6 1-14-4-19-2-3-6-4-6-7v-14l4 4-3-4 2-8c0-3 4-5 4-8 0-8 3-16 2-24Z"/><path d="M275 320c2-1 2 3 2 4l-2 4v-8ZM1169 321l4 1-4 2h3c1-2 3-3 6-3l-1 2-5 2 6 1 2-1-1 4-3 1c2 0 1 2 1 3l6-1-3 2-1 2-1-2c-4-1-8 1-11-2 2-1 5 1 5-2l5-2v-2c-5 0-6 6-10 5 0-3 3-2 5-3l-4-4 1-3m4 10c-2 2 1 2 2 1 2-2-1-2-2-1ZM375 322l3-1v18c-1 8 1 16-1 23l-3-1 3 3-2 5c-3 2-6-1-10-1l1 2h-5l-1-2 3-1-1-2-3-3-1-7 3-5v10l1 1c-1-8 1-16 4-23h5c-1-1-4-1-4-3 2-5 4-9 8-13ZM425 336c2-6 7-10 11-16 2 9-1 18 0 26l2 5h7v-19l1-7h7c4 4 3 9 4 14 1 2 0 5-1 7l2-2 3 15c0 3-1 5-3 7v-4c-1 2-2 6-6 7-3 0-7 0-7-4h-1l-3 4 2 1-5-1 1 2-5-1 3-3-2-2-1 3c-4 0-9-1-13-4-2-3 1-6 2-9 1-2 4-5 1-7l2-10-2-1v1h1c0 4-1 9-5 11-2-3-2-7-1-11l7-7-1 5ZM963 325c-1-1 2-3 3-2s-1 3-3 2Z"/><path d="M1160 323h3l-1 7 2-1 1 2 1-1 1 7-2 1-1 2h2l4 1v-2l-2-1v-1h2v-2l5 1 1 1 3-1c-2 2-4 3-6 1v3l4-1 4-1-3 3 3 3 2-1v3l1 3h-2v-2l-1-3-3 1 3 2-1 1 2 1-3 1 1 3-4-4h4c0-3-3-5-6-5v2h4l-1 3h-2c-1-3-3-4-4-5l-2 5-3-5 6-1-6-3-2 2v3l-2-1 1 4-2-1v5l-1-5-1 1 1-2-5 1-14 17a545 545 0 0 0-22 38l-1 3-16 28c-3 5-6 11-11 16l-1 6 2-1v3l-9-1-4-2 4-2-1-5 3 1-1-2 2 1 2-3v-1l3 1-1-3 2 1-1-3 3 1-1-3 2 1-1-3 2 1v-2h-3l-4-3-5 1c-1-2-4-3-6-4 3 0 5 1 6 3l3-2c3 3 7 4 11 4l-1-3 2 1-1-3 2 1v-4l4-1-2-2 4-1v-3h2-3v-3h3v-4l3 1-1-4 2 1-1-2h2-3v-4l3 1 1-4h-3l4-3c0-2 0-4 3-4l-1-2 4 1v-1h-3l2-4h2l-1-2 2-1v-3l-2-2 5-4 3-1-3-1 5-4c4-1 0-4-2-2l-1 2-3-1 1 3-2-2-1 1v-1h2l-1-2-6-2c2 0 4-1 5 1l3-4-4 1 3-3c0 3 4 3 6 3-1 2-3 1-5 1l-2 2 4 1 4-3 2 2v-4l4-2-3-1v-1l5-1-5-3-2-1-2 3-2-1c2-1 3-1 3-4l-3 1 1-2-3-1 5 1-1-2h4v-1l1 1 2 1 1-2c-3-1-1-3 1-4l3-3 2 2h-2l1 3-4-1-1 5 6-1-4-2 6-1v-3l-1 1-2-4h4l-1 3 4-1-4-2 3-1-1-1 2 1-1-5-1 1v-2l4-1h4l-2-3 4-1v1l1 3v-8m1 9c0 2 3 2 3 1 0-2-3-2-3-1m10 7c1 0 2 0 2-2-2 0-2 1-2 2m1 2c0 3 3-2 0 0m2 2c1 1 3 0 4-1-1-2-5-1-4 1m-38 9 4 1c1-2-3-3-4-1ZM1178 323c3-2 1 3 0 0Z"/><path d="M1155 326v-2l2 2h-2ZM1164 324c1 1 1 1 0 0ZM131 326l5-1v5c-2 3 0 6 1 9l-6 4v-17ZM138 325c2-1 5-1 5 2l2-2 4 3c1 1 1 4-1 4l-6 2-5 5v-8l1-6ZM457 328c-2 0-3-3-1-3 2-1 3 3 1 3ZM1165 328c-1-1 1-3 3-3 0 2-2 4-3 3ZM200 329c-1-1-1-2 1-2 1 1 0 2-1 2ZM460 326c4 2 1 7 1 10 0 4 3 10-1 13l-3-14 3-9ZM1143 326c3 1 5 3 8 3v2l-4-1-3-2-1-2ZM1039 328c1 1 1 1 0 0ZM612 335l5-5c3 5 2 11 2 16v10c-1-3-1-5-3-7l2-3-1-3h-1c0 3-2 6-4 8l3 3c-1 4 0 8-3 10l-3-2c1 2 1 4-1 6l3 4-4 7v13c-3 1-5-3-7-5 0-5 2-11-1-16 1-3 1-7 4-9v17l1-3 1-7-1-5v-5l1-2c4-5 4-11 7-16v-6ZM1040 331l8 2-2 3c-2-1-4-2-7-1l1-4ZM1138 331l1 6a314 314 0 0 1-3-1l2-5ZM733 332c2 3 2 5 1 8-3-2-1-5-1-8ZM1143 333c3-1 0 4 0 0ZM1145 337c-1-2 3-3 3-1-1 2-2 2-3 1ZM1039 335l5 1c-1 1-2 4-4 4l-1-5ZM1183 337h4-4ZM1141 338c-2-2 3-2 3 0h-3ZM1051 341l1-2-1 2ZM1042 343l1-5c1 3 4 3 6 5-2 1-2 5-5 4l2-4h-4ZM1184 340c1 1 1 1 0 0ZM894 341c2 0 2 4 0 4-2-1 0-3 0-4ZM1040 341c0 1 0 1 0 0ZM1134 341l1 2 4-3c0 1 0 3-2 4h-1l1 1-1 1-5-1 3-1v-3ZM1187 340l4 6a12158 12158 0 0 1-2 2v1l-4 3-1-2 1 1 2-2-2-2-1-2h4l-1-5ZM1196 341c2-1 2 0 2 1-2 1-2 0-2-1ZM904 342c1 0 1 0 0 0ZM1050 342l3 3h-2v4l-4-1 2-2v-1l1-3Z"/><path d="M1042 344c2-1 2 2 1 2-2 1-2-2-1-2ZM1190 346h7v5c-2 1-4 3-7 3l-7 1 2 4 4-1 1 2-3 1-2-2-2 2c-2 1-4 1-5-1l-3 2 1 1h-3c0 1 1 3 3 3l2-3-1 4-6 2 3 3h2l1 2 3-2 3 2 2-1-3 3-2-3c-1 1-2 4-4 2l-3-1v5l7 1-7 1v-5l-7-2 1-1h3l-1-2 3 1c-1-4-4-3-7-1 2-3 6-3 9-5l-1-1h-3c-2 0-3 3-4 1 1-2 4-4 6-2 1-3 4-3 6-5 2 2 6 2 6-1-1-2-3-3-5-3l-1 3h-2l-2 2c-1-2 0-2 2-3l3-3 2-1-1 1 3 2 1-3 4 1 2-5 6 2-1-4-4 1-1-2m1 6h2-2m-21 21c-2 1 1 2 2 1 2-1-1-3-2-1ZM1040 347c3 0-2 3 0 0ZM1169 351l3-3h2c-2 1-3 2-3 4l4-2v3l3 1-5 2h-4v-1l2-1 4 1v-3c-2 1-4 0-6-1ZM418 350l5-1c3 4-2 7-4 10l-1-9ZM1065 352l7-2v2l-6 3-1-3ZM1197 353l2-2c0 2 0 2-2 2ZM961 362l1-11c3 3 6 7 5 11v8c-3 0-5-3-4-6l-2-2ZM111 355l4-3 1 10 3 6c-3 0-6-1-8-3l-2-5c2-1 3-3 2-5ZM1044 354c1 0 1 0 0 0ZM1076 355c1 1 1 1 0 0ZM825 355l4 6c-1 1-2 4-4 2v-8ZM1065 357h1c1 1 0 3-1 2v-2ZM353 357h5v9h-3v-4c1 4-3 7-6 8-1-5 3-9 4-13ZM1079 360c-2 0-2-3 0-3s2 3 0 3ZM1179 358h3-3ZM614 362l4-4 2 3c-2 4 1 8 0 12 0 2-3 3-4 4a456 456 0 0 1 0-12l-2-3Z"/><path d="M1166 358h3v2l3-1v3l-4-1a395 395 0 0 1-1 0l-1-3ZM1128 360c0-1 3-2 3 0h-3ZM529 359l2 2c1 2 2 5 1 8-5 0-4-7-3-10ZM275 369v-9l4 2v6l-4 1ZM1037 362h3c0 1-2 2-4 1l1-1ZM38 364l3-3c0 4 1 8-1 12l-2-7 1 1-1-3ZM1078 363l3-1c1 1-2 2-3 1ZM811 363l6 5c0 2-2 3-4 2-2-2-2-5-2-7ZM908 368c0-2 1-5 3-7l1 7h-4ZM1185 363c3-1 0 4 0 0ZM747 363c3 2 6 2 9 2 1 2-3 3-4 3l-5-5Z"/><path d="M1182 365c2-2 4 0 3 2-1 1-4-1-3-2ZM280 367c2 0 3 1 2 2-1 0-2 0-2-2ZM1115 369l6-1-1 4v-2l-5-1ZM1181 368c1 1 1 1 0 0ZM1079 369c3-2 0 3 0 0ZM965 376l-3-5c2 0 7-1 7 2l1 15-5-12ZM971 370c2 1 6 0 5 4 1-3 4-1 6-1v7c1 5 1 11-1 17 1 6-2 11-3 16l-1-10-2-11c1-7-2-15-4-22ZM1122 371c0 1 0 1 0 0ZM1069 374c1-2 4-1 5-2l1 2c-2 0-5 2-6 0ZM1115 372h2l2 4 2-3c-1 2 1 6-2 6l-1-2-1-2-2-1v2h-3l3-4ZM1123 374h2-2ZM1163 377c0-2 0-2 2-1-1 1-1 2-2 1ZM1035 377c1 1 1 1 0 0ZM1074 378c-1-1 1-2 2-1s-1 2-2 1ZM1116 377c1 1 1 1 0 0ZM1109 379l5-1-4 2 1 2h-2v-3ZM1190 379h8l4 1c-4 2-8 0-12-1ZM22 383c0-2 2-3 4-3l3 6-2 9-2 8-2-3-1-17ZM1114 381c1-1 1 0 2 1-1 1-2 1-2-1ZM1119 382h2c0 2-1 2-2 0ZM1184 382l4-1c2 2-3 2-4 1ZM1166 382l8 1c-1 2-5 2-8 2v-3ZM1176 382l4 1c2-1 3 0 4 2-3-1-6-1-8-3ZM1192 384h4c0 3-5 1-4 0ZM1197 385c0-2 1-2 2-2 1 2 0 2-2 2ZM1065 388c0-2 0-4 2-4l-1 4c2 0 7-1 4 2l-2-1-5 2-2 1-4 1c0-2-1-4-3-4v-1l5 4 5-2-4-2 1-1-5-1 4 1 3-2-2 3h4ZM1172 389c1-3 3-3 5-4l-2 3 4-1c1-2 3 0 4 0l-5 2-2-1-4 1ZM1188 385c1-1 4 0 2 1l-3 1c-2-1 1-2 1-2ZM1200 386l4-1v4l-1-3-3 1-2 3-1-2 3-2ZM1044 387l3-1-1 4 3-1-2 3 4-2v2l-2-1 1 3-3-1-4 4 5 1-1-2c3 0 5-2 6-5l3 2-4 1-4 3c0 3 4 1 5 1l1-4 1 5-2-1v3l-1-1-5-2 1 1-4 3v-1l2-1-3-2c-1 2-3 3-6 3l2 4 7-2c-1 3-4 3-6 4l1 3c3-2 6-2 7-5l3 1 3-3-3 4-2-2c-1 3-3 5-6 5l-1 2 6-1 2-3-2 6 6-6 5-4 1 2c-3 0-4 3-5 4l-4 3c-3 2-1 4 1 6 3-1 6 1 8 2h-4v4h4l-1-2 3 1v-3c0 2 3 0 4 0l-2 3c2 2 1 4-1 6h-1v3l-5 1v1l-1-1-1 2-2-1 1 2-3-1 1 3h-2l1 3-1-1-2 15v-6l-2 1 1-3h-4c1 3 0 3-2 3l-1-3-5-8-2-2-1-1v-1l-2-7v1-6 4l4-5v2c3 0 5 0 8-2v-2l4-3v-2l2-1 1-4-4 2h-3l1 4-3 1c1-1 2-3 1-4-3-1-3 3-2 5l-4-2-2 2 2-3 3 2c-2-3 0-6 3-7v-2a1202 1202 0 0 0-7-1h2l-1-3 1 2 2-3-3-1h3c-2-2-5-2-8-1v-2l2 1 1-4 1 4 3-2 5 1v-2h-2v-4h5l-2-2-5-1 5-2h2l-1-2m-2 3 4 2c2-1-3-3-4-2m-4 15v1c0 2 3-1 0-1m10 11-1 2c1 2 1 6-2 8-2-2 2-3 2-5-1-1-3-2-4 0l-3 5-3 2c2 2 5 0 7 2l-5-1v3l-2-2v4h-1l-1-5 3-3-6 1-1 4h2l-2 1 3 2-1 2c2 2 4 5 7 6v-4h1l-1-1h2l-1-4 10-3c-1-1-1-3-3-3l5-1v-1l3-3-1-2a352 352 0 0 0-5-2l-1 2-1-4ZM1205 386c1 1 1 1 0 0ZM1183 391c-1-1 0-3 1-3v2l-1 1ZM1073 389c3-2 0 3 0 0ZM1187 390l3-2-1 4 2-1v2l-4-3ZM1107 391l8-1v2l-2-1h-6ZM1075 391c3-1 0 4 0 0ZM1162 392h8l-4 3-4-3ZM1192 391l8 2-5 2-3-4ZM1201 392c0-2 3-1 3 0h-3Z"/><path d="M1070 393h4l1 1-6 4-3-2-1-1c-1-2-3 1-3 2l-2 2c2 1 3 0 4-1l-1 3-4-1-3 2c0-2 1-3 3-4v-1l5-5c1 3 5 4 6 1ZM1112 393c3-1 0 4 0 0ZM1181 394h2-2ZM1205 394c3-2 0 3 0 0ZM1078 395c1-1 1 0 2 1-2 1-2 1-2-1ZM1185 396l5-1-1 3-4-2ZM1099 397c3-1 6-1 8 1l3-1c0 2-2 3-4 4-1-4-4-3-7-4ZM1163 398c-1-1 0-2 2-1 0 1-1 2-2 1ZM1168 397h2c-1 2-2 2-2 0ZM1182 397h3l1 2-4-2ZM1176 397l7 3-3 2-3-3-1-2ZM1170 400h5l-4 3-1-3ZM1048 402h3c0 2-3 2-3 0ZM1207 402h3v1l-1 1c-2 0-2-1-2-2ZM1072 404c0-2 1-2 2-1 2 2-2 2-2 1ZM1175 403h5c-1 1-4 2-5 0ZM1100 404c3 0 4 2 6 4l-6-4ZM1178 406h4-4ZM1076 407c3-2 0 3 0 0ZM1166 408l8 2-3 5 6-1 1 4 4-1v-5h-3l2-1 1 3v3l-6 3 1-4h-9c-2 1-4 0-5-1l8-1 2-3-6-2 1 3h-2l1-2-1-2ZM1180 408h6l-2 3-4-3ZM1189 409c2 0 2 0 2 2-2 0-2 0-2-2ZM1105 410v2c-2-1-2-1 0-2Z"/><path d="M1176 411c0-1 1-2 2-1s0 2-2 1ZM1186 411c3-2 1 3 0 0ZM1034 412c3-1 0 4 0 0ZM1084 415h4l-2 1-2-1ZM1089 416c2 0 5-1 8 1l1-2-1 2 4 2h-6c-2-1-5-1-6-3ZM1081 421l4-3c-1 2-2 5-5 5l-3-2h4ZM1102 420l2-2v3l-2-1ZM950 421c4-1 8-1 12 1 2 3 2 7 2 10v35l-2 2c-1-1-2-3-1-5l-3 3 4 3v9c-4 2-9 1-13 1-3-1-4-5-4-8v-45c0-3 2-5 5-6m3 11v31l-2 1h2c1 2-1 6 2 8l2-7c-2-3-1-7-1-10v-23l-1-3-2 3ZM826 422l7-1 5 1 3 12h-2l2 1-1 13-5 7-2-3v4c-1 1-3 2-4 5v10l2 4c2-4 2-8 2-12 2 0 5-1 6 2l1-1c0 5 2 11-3 15-1 2-3 3-6 2l6-12-2 3v-1c0 4-4 6-4 10h-6c-4-3-4-9-4-13l1-24 2-3h-3v-12l5-7m2 20 2 6 3 2 1-8h1l-1-1v-8l-2-4c-4 3-3 9-4 13ZM885 422h8l1 4 6-3c4 3 5 8 5 13v8l-5 1-3-3-1-12h-3v50h-8v-33l2-7-2-1v-17ZM1170 424c2 0 3 0 4-2l-1 6 4-1 1 1 5 3h-4l2 4 2-1-1 2-6 1-2-3 2 1 4 1v-4h-6l6-1-4-3-3 2v-3c-3 1-6 1-8-1l7 1-2-3ZM761 424c4 0 9-1 14 1l-1 5-2 3 2-2c0 4 1 10-3 12l2 1-7 25c-1 3-5 6-5 10l3-5c1 2 4 1 6 1l4 1v6h-19v-12l4-12c1-5 1-9 4-13l2 9 2-9 2-7 2-1-2-1-1-6-6 1-1-7ZM755 424h3v8l-3-8ZM1094 428c1-2 3-5 6-5l-6 5ZM1178 425l2-2c2 2 6 2 5 5l3 1-3 1c-1-3-5-4-7-5Z"/><path d="m1189 428 4-2 1 2-3 2 3 1v2l-3 1c1 4 5-1 7-1l-1 4 2-1 1 3 3 1c-1-2-2-3-1-5v-1l1-3-3 3-3-8 3 1 1 3 4-1-1 18-4 6c-4 0-6-2-9-4l-2-1-1 1-2 3-2 2h-5l1 2-2-1c1 5 0 10-4 14-3 3-5 7-9 9-4 3-9 7-14 8h-3l-1-3-3 7-7-1c-2 6-7 9-10 13-2 1-2 2-2 4 2 2 2 4 2 6-4 3-7 6-9 10-3 2-6 2-9 1l3-3v2c2 0 4-1 4-3h1l-1-2 2-2 3-5 1 1-1-2 3 1-1-4h-1v-5l2 1-1-3 1 1 1-2 1-1v-1l2-1v-1h2-1l4-2-1-1a2173 2173 0 0 0 0-1v-1l1 1c0-3 2-3 4-4l3-2-1-1 3 1-1-2 3 1-1-1 4-1h4l-1-2 4 1-1-1 4-2-1-1 3 1-1-1 4-2h1l-1-6 3 3 2-3 2 1-1-2 3 1v-3l-4-4h-5l1-1c-2-1-3-3-2-5l3 4h3l-2-8a274 274 0 0 0-7-6h-1l1-3h-4l-1-4 6 1 6 3 4 1v-3c1 0 3 0 3 3l5-1v2l-5 1-1 2 5 3-1-4 6 2-1-2 2 1v-1c3-4-3-6-5-8 2 1 5 2 6 5h6a449 449 0 0 0 3 3h5l-1-1 2-1h1l-1-2h3v2l-1 1h3l-1-3-3-1-2-3v-2l-4 2-3-5-3 2-2-4 2 1 4 1c0-2 0-3-2-4v-1m-18 27 3 4-1 3h4l-2-5-4-2ZM1077 435c1-2 2-3 4-3l-4 3ZM1200 434c1 1 1 1 0 0Z"/><path d="m1168 435 2 1 4 1-6 1v-3ZM1087 442l2-2c1 2 0 3-2 2ZM897 443c1 0 2 0 1 2-1 0-2 0-1-2ZM1055 449c2 0 5 1 6 3-2-2-5-2-8 0l2-3ZM1140 453l3 1-1 1 3-1-1 2 2-1-1 1c2 1 3 1 3 3l1-1v4l-6-2-2-3-1 1-1-4 2 1-1-2ZM1064 462l3-1-2 2-2 1 1-2ZM1060 465c1-2 4-1 3 1-1 1-4 0-3-1ZM1080 467h11l-1 2 7-2 2 1-1 2h4l4 1c0 2 0 4-3 5v1l-2-1v1l-6 1-1 2h-7l1-2-2 1 1-2-4 1 1-2-1 1c-2-3-4-5-4-9l2 1-1-2ZM963 470c1-1 2 0 1 1s-2 0-1-1ZM1110 470c4-1 1 3-1 3s0-3 1-3Z"/><path d="m1112 472 6-1-1 2h7l3 2-1 1 2-1v1l7 1v4l-2-1 1 2h-3l-2 1c-1 2 0 5-3 5v1h-2l-3 3c-1 2-3 3-5 3l-1-3-2 1 1-2-2 1 1-2-8-2 2 5 2-1c-1 3 2 4 3 7l1 3 2 3 1-1-1 2h1v3l-2-1v3l-2 1 1-6-2 1 1-6-2 1 1-3-2 1 1-3-1 1-2-2 1-1-2 1 1-2h-2l1-2-2 1 1-2-2 1 1-2h-1l-2-4-3 2-2 1-4-1-4-1v3c-3 0-5-4-7-6l-1 3 2-1c0 3-2 5-5 7l-4-7h-5c-1 7-6 10-11 14 1 1 2 3 1 4l-7 9-6 4c-2 2-1 5-2 7l-7 6-5 9c-2 4-3 9-3 13h-5l1 1-1 1-5 12h-2l2-9 1 1-1-3 2 1-1-2 2-1-1-1 2-2v-1l2 1-1-2 2 1 2-9 1 1-1-3 2 1-1-3 1 1 1-6 2 1-1-3 2 1-1-3 2 1-1-3 2 1-1-1 3-2h1l-1-2 2 1-1-2 3 1-1-5 2 1-1-2h2l-1-3 2 1-1-2 1 1 2-2-1-1 2 1-1-1 2-2 1 1-1-2 2 1-1-3 2 1-1-2 2 1-1-4h4l-1-7 4 1-1-3 2 1-1-2 3 1-1-3 2 1-1-2 2 1-1-3 1 1 2-2-1-1 2 1-1-2h8l-1 2 2-1-1 2 3-1v1h1l-1 2h1v-4l4-2 2 2 2-3-1 4 4-1-1 2h12l-1-2 7 1-1-3h1l1-3 1-3 2 1-1-2 3 1-1-2 3 1-1-2ZM1053 484c2-2 5-3 8-3v2l-8 1ZM1014 570c0-3 1-4 4-4l-3 10-1 2a23 23 0 0 0-8 18 143 143 0 0 0-4 3 389 389 0 0 0-4 7l-1 1 1 3-2-1 1 2-2-1v5h-3v-6h2l-1-2h1v-3l2 1-1-3 3 1-1-4 2 1-1-3h2v-2l2 1v-2h2l-1-2h1v-7l2 1v-5l2 1-1-3 2 1v-4l3 1-1-3h1l1-5 1 1ZM998 617l4 1-2 4a68 68 0 0 1-21 28c-1 2 0 4-2 5-2 0-4 2-4 5l-2 1 1 3c-3 0-3 2-3 4l-2 2 1 3c-3 3-4 7-4 10-2 2-2 5-2 7l-11 12 3-8 3-2v-2l2-6 1-1c1-2 0-5 2-6 1-2 0-6 2-7l1-8 1 1 1 3 1-6 1 1-1-4 2 1-1-2h1c0-2 1-3 3-4l-1-1h2v-1l2-2h-1l3-2-1-2 2 1-1-3 3 1-1-3 2 1-1-2 2 1-1-2 1 1 2-3 1 1-1-2 2 1v-4l3 1-1-4 2 1-1-2 2 1-1-3 2 1-1-1 2-2 1 1-1-2 2 1-1-2h3v-5Z"/></g></svg>