<svg xmlns="http://www.w3.org/2000/svg" viewBox="0 0 1404.07 439.68"><title>Artboard 2</title><path d="M663.59,13.37A77,77,0,0,1,706.85,0c11-.08,22.25.32,32.65,4.14,18.56,5.67,34.72,19.54,42.33,37.5,6.08,18,6.83,37.18,7.58,56,0,14.91.28,29.83-.08,44.74-22.05-.13-44.1.05-66.14-.1-.37-20.54.08-41.08-.3-61.62A115.29,115.29,0,0,0,721.37,60c-.62-3-2.55-6-5.65-6.69-4.88-1-11.45-.92-13.89,4.32-3.29,7.87-2.54,16.65-3.09,25q-.22,80,0,160c.54,8.29-.1,17,3.38,24.78,4.25,6.83,17,5.5,18.74-2.81,1.17-4.86,1.31-9.88,1.8-14.83.55-18.82.26-37.65.5-56.48,20.56.16,41.13.08,61.69.06,1.51.1,3.17-.24,4.59.47q.64,26.92-1.22,53.82c-1,10.37-2,20.87-5.63,30.73-5.09,13.84-15.23,25.35-27.23,33.71a76.71,76.71,0,0,1-42.46,12.32c-15.4.3-31.17-2.55-44.76-10-14.89-8-25.8-22.54-30-38.84-3.64-13.65-4.55-27.83-5.5-41.88-.89-24.32-.26-48.67-.42-73,.15-24-.33-48,.29-71.95.71-12.85.62-26,4.92-38.32C642.32,35.87,651.07,22.35,663.59,13.37Z" style="fill:#ee1b24"/><path d="M972.22,6.11c22.14-.06,44.27-.08,66.41.1.91,11.76.12,23.59.34,35.39q0,137.9-.19,275.78c-8.65.83-17.31,0-26,.43-13.49-.73-27.05.75-40.53-.37-.18-84.93,0-169.87-.13-254.81C972.13,43.8,971.37,24.93,972.22,6.11Z" style="fill:#ee1b24"/><path d="M805.65,6.27c28.43.07,56.89-.67,85.3.76,9.3.75,18.64,1.7,27.72,3.94,14.2,4.46,24.57,17,29.31,30.75,6.54,18.88,6.55,39.15,6.38,58.89-.65,9-.56,18.06-2.76,26.84-1.42,7.1-3.91,14.55-9.81,19.19-6.46,5.48-14.91,7.2-22.95,9l3,.79c7.8,3.44,16.2,6.77,21.6,13.72,5.5,7.37,9.75,16.14,10.12,25.47,1.69,40.56.28,81.17.86,121.75-8.17.84-16.44.27-24.64.16-12.24.73-24.51.09-36.75.43-.78-15.41-.15-30.87-.35-46.29-.08-22.33.16-44.65-.21-67-.37-6.75-.61-13.67-2.63-20.17-3.11-6.43-11.21-6.64-17.37-7.29-.68,19.8-.12,39.63-.3,59.44,0,26.89-.05,53.79,0,80.69-4.42.88-8.94.46-13.4.52-17.58,0-35.17-.1-52.75.07-.94-5-.45-10.17-.53-15.25q-.09-117,0-234C805.56,47.84,804.4,27,805.65,6.27ZM872.26,59.9q-.19,34.55,0,69.11c6.34,0,14.85-.16,17.9-6.88,3.09-8.78,2.34-18.29,2.59-27.44-.25-9,.85-18.27-2.28-26.85C887.6,60.87,878.88,59.82,872.26,59.9Z" style="fill:#ee1b24"/><path d="M1060.68,6.89c28.61-.46,57.24-.4,85.87-.51,3.76,24,5.76,48.26,8.85,72.36.91,8.92,2.16,17.81,3,26.74-.3,4.42-4.13,7-7.23,9.47a59.41,59.41,0,0,1-9.34,6c-4-8.26-.85-17.9-4.83-26.16-2.86,8-1.91,16.88-5.77,24.59a58.15,58.15,0,0,0-9.78-2.64c-.16-2.36,0-5-1.8-6.84-3.61-4.27-7.37-8.41-11.13-12.55-.36,4.88,2.5,9,4.2,13.4a44.65,44.65,0,0,0,5.9,10.53,61.77,61.77,0,0,1,.53,7.93c-2.46.58-5.55,2-7.52-.34-9.25-7.68-11.63-19.9-15.6-30.62-1.18-2.87-2-6.13-4.16-8.39-4.47-1.16-9.08-1.73-13.5-3a182.78,182.78,0,0,0,4,24.27l5.68,2.19c-1.25.92-2.52,1.83-3.75,2.75,1.42,4.94,3.21,10.28,1.5,15.39-2.52,5-7.61,8.61-8.67,14.35.12,6.62,8.83,10,7.77,16.89-.32,4.43-.38,9.17,1.93,13.14,1.78,2.69,4.16,4.89,6.31,7.28-.39,2.81-1,5.64-.7,8.49,1.47,4.63,5.75,7.61,7.69,12,.67,4.74-1.46,9.31-1.8,14-.87,9.67,2.09,19.16,5.22,28.19l4.73.14c.16,3.25-.65,7,1.46,9.77,2,2.87,5.13,4.47,8.09,6.09-.5-1.94-1-3.88-1.49-5.81.82-.88,1.64-1.75,2.5-2.62-.45,21.51.58,43-.13,64.55-12.62-.08-25.23-.18-37.85-.07-6.57.11-13.14-.63-19.69.15-1.05-10.05-.25-20.2-.5-30.29,0-76.88-.13-153.75,0-230.62a230.33,230.33,0,0,1,18,24.06q6.32-.21,12.65-.65c0-7.63-.3-15.3.74-22.89,1.48-7.76-3.12-15.43-9.32-19.77-.89-2.56-1-6-3.76-7.26a49.42,49.42,0,0,1-12.08-9c-2,6,3.35,11.22,2.42,17.13-2.55,4.94-6.66,9-8.51,14.34C1060.49,37.68,1060.71,22.29,1060.68,6.89Z" style="fill:#ee1b24"/><path d="M1179.5,6.44q40.68,0,81.37-.08a45.79,45.79,0,0,1,5.43.54q-.22,122.35-.06,244.71c-.21,19.83.29,39.66-.25,59.48-3.86-7-2.57-16.39-9.09-21.81,4.18-5.66,3-13.49-.22-19.31-1.56-3.36-4.24-6.41-4.55-10.21,1.06-2.87,3-5.28,4.11-8.15-1.76-7-9.25-10.59-12-17,1.69-11.24,7.34-21.3,11-31.93-1.77-4.34-3.36-8.76-4.9-13.18-10.06,3.1-19.39,8.12-29.46,11.17-2.12.46-4.83,1.47-6.59-.3-2.51-2.32-4.33-5.25-6.33-8-.54-24.58.39-49.17-.7-73.75-.07-2.14,0-4.28,0-6.42-1.06,6.82-.94,13.74-1.95,20.57-2.09,15.42-3.49,30.91-5.34,46.35-2-3.14-3.9-6.46-6.88-8.73-3.6-1.77-7.91-1-11.57-2.62-3-1.93-4.54-5.37-7.41-7.43-2.65-1.18-5.57-1.43-8.31-2.27-3-.79-5.28-2.87-7.69-4.62.06-.49.19-1.47.26-2a128.41,128.41,0,0,1,14.38-2.11c2.67-.28,5.87-.22,7.7-2.59-4.94-.9-9.9-1.7-14.8-2.79-.16-1.59-.29-3.17-.38-4.74a46.41,46.41,0,0,1,.86-6.43c3.51-1.72,6.93-3.61,10.28-5.63-.16-.67-.31-1.33-.44-2q-4.18,1.25-8.39,2.43c-.16-2.48-.33-5-.36-7.43C1171.43,82.28,1175.11,44.31,1179.5,6.44Z" style="fill:#ee1b24"/><path d="M1288.69,8.52c-.08-1.51.6-2.22,2-2.13q44.52,0,89.06,0c6.58.14,13.19-.36,19.76.38,0,20.73.38,41.47-.22,62.19q-22,.36-44.12,0c-.2,19.72-.11,39.44.08,59.16,13.8.28,27.62-.41,41.42.27,0,19.61.22,39.22-.09,58.83q-20.66.11-41.32,0c-.45,15.49,0,31-.2,46.49.14,7.41-.31,14.83.32,22.23,16-.12,32.1-.08,48.15,0,.17,20.51.08,41,.05,61.53-7.19.85-14.42.16-21.62.35-5.73.13-11.44,0-17.15-.28-25.25.9-50.53-.23-75.77.41-.85-9.72-.15-19.51-.4-29.25Q1288.63,148.58,1288.69,8.52Z" style="fill:#ee1b24"/><path d="M1151.77,123.9c1.76-3.65,4.38-6.79,6.68-10.11.53,1.5,1.09,3,1.61,4.53a104.17,104.17,0,0,1,1.09,10.74l-7.77,1.59C1152.58,128.52,1150.32,126.22,1151.77,123.9Z" style="fill:#ee1b24"/><path d="M1155.55,141.09a26.78,26.78,0,0,1,6.64-5.29c.36,2.95.57,5.92.76,8.89Q1159.2,143,1155.55,141.09Z" style="fill:#ee1b24"/><path d="M1236,213.94a59.85,59.85,0,0,0,5.12-5.2c.36,1.44.76,2.89,1.17,4.33l5.18,1.16.32,2.17C1243.56,217.68,1239.47,216.44,1236,213.94Z" style="fill:#ee1b24"/><path d="M1169.53,221.38a7.47,7.47,0,0,1,7.3-3.19c-1.2,1.45-2.45,2.87-3.69,4.28.79.56,1.6,1.12,2.42,1.68l-3.42,1.14c-.22,3.76.62,7.44,1.11,11.13a22,22,0,0,1-3.51,4.14c-1.24-2.65-2.46-5.3-3.7-7.94,1.93-.51,3.87-1,5.84-1.44C1171.13,227.9,1170,224.71,1169.53,221.38Z" style="fill:#ee1b24"/><path d="M1208.86,235.72c3.53-.29,6.65-2,9.49-4.05a8.77,8.77,0,0,0-.09,6.82c-1,.37-2,.73-3,1.11a45.2,45.2,0,0,1,1,9.42C1214.33,244.28,1212.77,239.3,1208.86,235.72Z" style="fill:#ee1b24"/><path d="M1159.26,238l3.1.39q-.22,3-.56,6l-2.31-.57Q1159.39,240.93,1159.26,238Z" style="fill:#ee1b24"/><path d="M1112.1,243.64c3,1,5,3.31,6.48,6l-4.35,2A30.68,30.68,0,0,1,1112.1,243.64Z" style="fill:#ee1b24"/><path d="M1218.07,252.36a10.64,10.64,0,0,1,5.75-3.76c-.84,1.89-1.75,3.75-2.65,5.61l-1.82-.08Z" style="fill:#ee1b24"/><path d="M1139,249.91a45.8,45.8,0,0,1,4.24,2.17,37.56,37.56,0,0,1-1.37,7.71A25.09,25.09,0,0,1,1139,249.91Z" style="fill:#ee1b24"/><path d="M1163,256.53a45,45,0,0,1,7.89-3.6c1.14,3.85,1.77,7.93.8,11.9a25.18,25.18,0,0,1-1.55-6.39A23.74,23.74,0,0,1,1163,256.53Z" style="fill:#ee1b24"/><path d="M1175.8,274.21a31.6,31.6,0,0,1,3.45-6.78c.08,1.45.18,2.91.28,4.37l4.65,1.79A10.51,10.51,0,0,1,1175.8,274.21Z" style="fill:#ee1b24"/><path d="M1166.12,269.09q3.18,2,6.42,3.91.6,2.88,1.19,5.77a27.4,27.4,0,0,1-7.34-5.48Q1166.24,271.19,1166.12,269.09Z" style="fill:#ee1b24"/><path d="M1242,269.88a75.69,75.69,0,0,0,11.64,1.42c0,.43.06,1.29.07,1.72-1.67.55-3.59.63-5,1.71-.57,3.16-.47,6.45-1.5,9.52-.46.6-.39,2.63-1.53,1.77a39.07,39.07,0,0,0-5.15-5C1240.2,277.26,1239.61,273.14,1242,269.88Z" style="fill:#ee1b24"/><path d="M1229.24,282.59c2.37-.13,4.74-.2,7.13-.23-.26.62-.51,1.25-.74,1.88l-5.58,1.73C1229.76,284.83,1229.49,283.71,1229.24,282.59Z" style="fill:#ee1b24"/><path d="M1143,304.88l3.16.08c.12,1.42.26,2.84.41,4.27,2.6-.16,5.21-.27,7.83-.35.63,1.22,1.28,2.45,1.93,3.68-5,1.14-9.55-1.67-14.18-3.11.08-.35.23-1,.3-1.38C1142.61,307.27,1142.88,305.68,1143,304.88Z" style="fill:#ee1b24"/><path d="M.06,6c48.56-.11,97.13,0,145.7,0,.29,20.71,0,41.43,0,62.14-13.19.29-26.39.09-39.59.09-.09,1.11-.16,2.22-.2,3.33q0,122.94,0,245.89c-22,.07-44.1,0-66.16,0q0-87.9,0-175.79c.09-24.44-.18-48.89.14-73.33C26.64,68,13.35,68.43.07,68.1Q-.08,37.05.06,6Z" style="fill:#fff"/><path d="M158.74,6c25.72.11,51.45-.35,77.17.32,5.62.8,11.34.43,16.94,1.33a117.81,117.81,0,0,1,20.4,3.68,45.35,45.35,0,0,1,13.59,8.31c10.37,9.63,15.85,23.25,18.25,37a232.54,232.54,0,0,1,.51,66.23c-.43,3.52-1.59,6.88-2.21,10.36-1.8,4.27-3.62,8.75-7.16,11.91-6.22,5.76-14.64,8.45-22.9,9.58l-1.2.92c6.85,2.31,13.71,5.05,19.49,9.48,5.24,3.91,8.44,9.78,11.37,15.48,3,6,3.77,12.69,3.87,19.27.82,7.25.72,14.56.74,21.85,0,31.93,0,63.85,0,95.77-20.57.07-41.14,0-61.72,0,0-37.27,0-74.54,0-111.81-.61-7.32-.6-14.83-3.14-21.81a15.33,15.33,0,0,0-2.27-3.37c-4.61-2.78-10-3.58-15.28-3.3a51.77,51.77,0,0,0-.4,5.57q0,67.37,0,134.72-33,0-66,0c-.2-101.58,0-203.17-.09-304.75C158.61,10.42,158.64,8.18,158.74,6Zm66,53.27c0,19.14,0,38.28,0,57.42,0,4.13-.26,8.31.52,12.4,3.67.1,7.26-.7,10.88-1.21,2.34-1.09,5-2.1,6.27-4.56,2.76-5.44,3-11.65,3.42-17.61,0-9,.09-18.11-.06-27.16-.57-5.24-1.19-10.93-4.6-15.18A22.38,22.38,0,0,0,224.72,59.22Z" style="fill:#fff"/><path d="M329.69,6q32.93,0,65.85.06c.35,74.87.06,149.75.15,224.63.15,10.86-.47,21.8,1.36,32.56.6,2.76,1.64,5.69,4,7.41,1.89,1.28,4.22,1.09,6.39,1.21,2.84-1.56,5.71-3.81,6.22-7.22a114.32,114.32,0,0,0,1.48-18.93c.3-79,0-158,.16-237-.17-1.08.15-2.82,1.61-2.61,21.52,0,43.05,0,64.57.13.44,66.48.08,133,.2,199.46-.11,18.64.53,37.33-1.33,55.9-1.09,11.7-5.75,22.83-12,32.69a61.62,61.62,0,0,1-31.69,25.38c-26.11,8.68-56.59,5.35-79.15-10.79-14.5-10.6-23.5-27.52-26.22-45.09-.54-8.37-1.46-16.7-1.24-25.1-1.18-21.65-.63-43.35-.75-65q0-81,0-162A36.33,36.33,0,0,1,329.69,6Z" style="fill:#fff"/><path d="M504.32,6.39c36.9-.5,73.84,0,110.76-.14.93,20.53.27,41.1.48,61.65-14.84.53-29.71.34-44.56.2-.48,9.17-.11,18.36-.23,27.53.11,10.76-.25,21.54.23,32.29,13.82-.07,27.64,0,41.47,0,.09,19.51,0,39,0,58.54q-20.76.13-41.52,0c-.48,23.16-.07,46.33-.21,69.49,16.28,0,32.57,0,48.86,0,0,20.51,0,41,0,61.53q-57.76,0-115.52,0,0-85.87,0-171.75C504.2,99.23,503.91,52.81,504.32,6.39Z" style="fill:#fff"/><path d="M622,346.25c16.29-1.51,33.54,0,48,8.23,9.21,5.69,17.25,14.13,20.28,24.75,3.92,10.65,2.72,22.69-1.94,32.91-3.8,8.78-11.32,15.34-19.36,20.18-8.52,4-17.58,7.6-27.15,7.29s-19.37.72-28.91-.87a2.44,2.44,0,0,0,.06.26c-8.1-2.35-16.32-5.27-23.16-10.38-6-4.87-11.32-10.8-14-18.16-2.58-6.29-3.09-13.16-2.89-19.89a38.88,38.88,0,0,1,12.8-29.17C595.51,352.11,608.88,347.68,622,346.25Zm2.42,22.39a20.58,20.58,0,0,0-13.19,14.8,35.2,35.2,0,0,0,2.47,25.34c6.69,12,24.92,13.36,34.58,4.35,5.29-5.38,6.87-13.16,6.86-20.45-.06-7.45-2.38-15.3-8.08-20.38C640.79,367.32,632,366.17,624.45,368.64Z" style="fill:#fff"/><path d="M1022.45,352.09c11.56-5.72,24.78-6.83,37.49-6.21,12.45.89,25.48,3.22,35.66,10.94a34.77,34.77,0,0,1,14.5,25.51q-17.47,0-34.94,0c-1.23-4-2.78-8.15-6.34-10.64-7.52-5-18-5.84-25.8-1-3.88,1.83-5.85,5.9-7.64,9.56a45.07,45.07,0,0,0-1.27,22.93c1.06,5.77,4.75,11.28,10.32,13.52,7.55,3.11,16.88,3.37,23.76-1.52,4.06-2.4,5.7-7.16,7-11.42,12,.07,24,0,35.94,0-1.46,7.2-4.17,14.35-9.12,19.88-6.88,7.79-16.65,12.49-26.6,14.93l-.1.87c-.15-.19-.45-.58-.61-.77-5.54,1.34-11.28.85-16.92.95-7.72-.13-15.57.57-23.15-1.3-10.5-2.55-20.65-7.42-28.09-15.42-5.53-5.82-8.6-13.44-10.28-21.18-.31-7.6-1.13-15.54,1.65-22.81C1001.53,366.83,1011.22,357.36,1022.45,352.09Z" style="fill:#fff"/><path d="M16.24,348c11.7-.14,23.4,0,35.11-.05C63,362.32,74.91,376.43,86.54,390.8a36.38,36.38,0,0,0,5.56,5.74c.23-6-1.12-11.92-1.08-17.91,0-10.21,0-20.42,0-30.62,11.67-.14,23.33,0,35-.07a47.25,47.25,0,0,1,.41,8.74c0,26.89,0,53.79,0,80.68-.72,1.28-2.28.77-3.47.9-10.31-.12-20.63.11-30.94-.12-1.32.11-1.82-1.32-2.56-2.11C78.22,422.28,66.83,408.66,55.53,395a38.15,38.15,0,0,0-4.87-5.29c-.22,5.35,1.07,10.61,1,15.95q.11,16.29,0,32.58c-11.84-.06-23.7.3-35.53-.18C16.19,408,16.06,378,16.24,348Z" style="fill:#fff"/><path d="M146,347.84h92.7c-.06,7,.06,14-.09,21-12.58.41-25.18.06-37.76.18-5.79-.15-11.61.38-17.36-.45-1.07,4.36-.74,8.88-.36,13.31q23.47,0,46.94,0c.65,6.86.1,13.77.34,20.66-14.49.44-29,.09-43.51.18-1.27.23-3.43-.58-4,1.07-.31,3.63-.12,7.29-.14,10.94-.22,1.3.55,3.18,2.1,3,18.62.05,37.24,0,55.86,0q0,10.27,0,20.56c-6.35.17-12.73-.21-19.08.19l-.86.68c-1.13-1.29-3.92-1.36-5,0-2.1-1.47-5.86-1.38-8,0l-1.74-.79c-15.47,0-31-.22-46.42.11l-.84.7c-3.79-1.89-8.66-.38-12.88-.87C146.06,408.19,146,378,146,347.84Z" style="fill:#fff"/><path d="M245.69,348c12,0,24,0,36,0,4.6,18.49,8.41,37.16,13.29,55.57,5.42-18.3,8.82-37.17,14.09-55.53,10.18,0,20.35,0,30.52,0,2.51,9.61,4.93,19.25,7.19,28.93,2.83,9,3.78,18.55,7.19,27.4,4.18-18.72,8.11-37.51,12.85-56.1,12-.4,24-.24,36.05-.06-3.55,10.72-6.88,21.51-10.09,32.34-6.37,19.19-12.07,38.59-18.36,57.81-12.26-.18-24.55.32-36.79-.25-4.35-15.62-7.77-31.52-11.88-47.22-.56-1.78-1.28-3.49-1.93-5.23-.16,1.18-.33,2.37-.5,3.56-4,16.33-8.39,32.59-12.19,49-12.34.34-24.69,0-37,.15C264.56,408.16,255.31,378,245.69,348Z" style="fill:#fff"/><path d="M449.08,348c13.85-.18,27.69,0,41.54-.1,4.4,6.86,8.77,13.75,13.28,20.55,2.12,3.33,4,6.88,6.6,9.84q9.78-15.19,19.58-30.38c13.67.09,27.33-.09,41,.09-13.78,19.36-28.66,38-42.31,57.38-.24,10.92,0,21.85-.1,32.77-12.35.12-24.71.06-37.06.05-.34-10.47,0-21-.15-31.43.11-1.29-.89-2.21-1.49-3.2C476.35,385.06,462.43,366.74,449.08,348Z" style="fill:#fff"/><path d="M704.84,347.83h51c14.34.2,29.45.08,42.65,6.42,11.56,5.61,14.12,21.91,7.13,32-3.3,5.06-9.17,7.55-14.71,9.33,4.52,1.87,9.45,3.27,13.3,6.42,7.36,8.66,4.71,20.74,5.39,31.17a12.51,12.51,0,0,0,4.11,3.28c-.07.44-.2,1.33-.26,1.77-12.64-.12-25.29.2-37.92-.15-3.4-8,.3-17.41-3.59-25.34-2-4.6-7.51-5.29-11.85-6-6-.57-12-.15-18.05-.26-.26,10.59,0,21.19-.14,31.78-12.33,0-24.66-.06-37,0C704.78,408.13,704.94,378,704.84,347.83Zm37.22,21.23c-.28,6-.08,11.94-.13,17.9a192,192,0,0,0,19.93-.08c3.93-.51,8.39-.87,11.34-3.87,2.74-3,2-8.05-.89-10.7-4.16-3-9.48-3.4-14.43-3.48C752.6,368.89,747.32,368.69,742.06,369.06Z" style="fill:#fff"/><path d="M827.16,348c12.31-.15,24.62-.09,36.93,0,.52,9.66-.37,19.37.42,29,11-9.59,21.9-19.41,32.87-29.09,14.36.14,28.72-.15,43.08.16-7.71,7.44-16.56,13.65-24.74,20.59-5.24,4.61-11.21,8.4-16,13.51,15.09,18.74,30.68,37.08,45.61,55.95-14.78.26-29.56,0-44.33.12-9.63-11.62-18.12-24.15-27.73-35.78-3.11,2.25-5.9,4.88-8.9,7.24-.34,9.28,0,18.57-.18,27.85l-.52.6c-12.17.17-24.35,0-36.52,0Q827,393.11,827.16,348Z" style="fill:#fff"/><path d="M1124.7,348c12.31,0,24.62-.07,36.94,0q.15,45.08,0,90.16c-11.92.13-23.85.08-35.76,0-1.43.23-1.72-1.51-1.57-2.52q0-41.52,0-83A28.27,28.27,0,0,1,1124.7,348Z" style="fill:#fff"/><path d="M1174.77,347.93c35,0,70,0,105,0-.06,7.83,0,15.66,0,23.5-11.32,0-22.63-.07-33.94,0-.07,22.25.22,44.49,0,66.73-12.4,0-24.79,0-37.17,0-.46-22.26,0-44.54-.22-66.81q-16.8.07-33.61,0Q1174.82,359.67,1174.77,347.93Z" style="fill:#fff"/><path d="M1282.08,348c13.84-.18,27.69,0,41.54-.1,4.39,6.85,8.76,13.73,13.26,20.53,2.12,3.33,4,6.89,6.62,9.86q9.78-15.19,19.58-30.38c13.66.08,27.33-.09,41,.09-13.78,19.36-28.66,38-42.31,57.38-.24,10.91,0,21.84-.09,32.76-12.36.14-24.72.06-37.07.06-.47-10.87.23-21.81-.35-32.66C1310.43,386.22,1295.82,367.43,1282.08,348Z" style="fill:#fff"/><path d="M1069.25,38.74c.93-5.91-4.45-11.09-2.42-17.13a49.42,49.42,0,0,0,12.08,9c2.79,1.31,2.87,4.7,3.76,7.26,6.2,4.34,10.8,12,9.32,19.77-1,7.59-.71,15.26-.74,22.89q-6.33.45-12.65.65a230.33,230.33,0,0,0-18-24.06,29.8,29.8,0,0,1,.1-4C1062.59,47.74,1066.7,43.68,1069.25,38.74Z" style="fill:#b92026"/><path d="M1078.35,86.86c4.42,1.32,9,1.89,13.5,3,2.2,2.26,3,5.52,4.16,8.39,4,10.72,6.35,22.94,15.6,30.62,2,2.38,5.06.92,7.52.34-.56,41.35,0,82.74-.3,124.11-.86.87-1.68,1.74-2.5,2.62.51,1.93,1,3.87,1.49,5.81-3-1.62-6.14-3.22-8.09-6.09-2.11-2.8-1.3-6.52-1.46-9.77l-4.73-.14c-3.13-9-6.09-18.52-5.22-28.19.34-4.7,2.47-9.27,1.8-14-1.94-4.38-6.22-7.36-7.69-12-.33-2.85.31-5.68.7-8.49-2.15-2.39-4.53-4.59-6.31-7.28-2.31-4-2.25-8.71-1.93-13.14,1.06-6.87-7.65-10.27-7.77-16.89,1.06-5.74,6.15-9.36,8.67-14.35,1.71-5.11-.08-10.45-1.5-15.39,1.23-.92,2.5-1.83,3.75-2.75l-5.68-2.19A182.78,182.78,0,0,1,1078.35,86.86Zm33.75,156.78a30.68,30.68,0,0,0,2.13,8l4.35-2C1117.09,247,1115.05,244.63,1112.1,243.64Z" style="fill:#b92026"/><path d="M1131.21,119.43c3.86-7.71,2.91-16.59,5.77-24.59,4,8.26.87,17.9,4.83,26.16a59.41,59.41,0,0,0,9.34-6c3.1-2.52,6.93-5,7.23-9.47.73,4.25,1.36,8.53,1.68,12.84-.52-1.53-1.08-3-1.61-4.53-2.3,3.32-4.92,6.46-6.68,10.11-1.45,2.32.81,4.62,1.61,6.75l7.77-1.59.36-.07c.2,2.27.44,4.54.68,6.81a26.78,26.78,0,0,0-6.64,5.29q3.65,1.88,7.4,3.6c.31,1.38.66,2.77,1,4.16.59-3.19,1-6.41,1.42-9.61.09,1.57.22,3.15.38,4.74,4.9,1.09,9.86,1.89,14.8,2.79-1.83,2.37-5,2.31-7.7,2.59a128.41,128.41,0,0,0-14.38,2.11c-.07.49-.2,1.47-.26,2,2.41,1.75,4.73,3.83,7.69,4.62,2.74.84,5.66,1.09,8.31,2.27,2.87,2.06,4.42,5.5,7.41,7.43,3.66,1.61,8,.85,11.57,2.62,3,2.27,4.92,5.59,6.88,8.73q-5.85,54.22-11.9,108.45c-.7,9.94-2.66,19.74-3.22,29.68-13.81.52-27.65.16-41.47.23-.42-2.68-.87-5.35-1.32-8,4.63,1.44,9.14,4.25,14.18,3.11-.65-1.23-1.3-2.46-1.93-3.68-2.62.08-5.23.19-7.83.35-.15-1.43-.29-2.85-.41-4.27l-3.16-.08c-.14.8-.41,2.39-.55,3.19-1.91-10.4-2.6-21-4-31.44q-8.55-71.55-17-143.11c-.93-5.93-2.22-11.81-2.7-17.81-.06,1.87-.14,3.75-.19,5.62a44.65,44.65,0,0,1-5.9-10.53c-1.7-4.36-4.56-8.52-4.2-13.4,3.76,4.14,7.52,8.28,11.13,12.55,1.8,1.83,1.64,4.48,1.8,6.84A58.15,58.15,0,0,1,1131.21,119.43Zm38.32,101.95c.42,3.33,1.6,6.52,2.35,9.8-2,.45-3.91.93-5.84,1.44,1.24,2.64,2.46,5.29,3.7,7.94a22,22,0,0,0,3.51-4.14c-.49-3.69-1.33-7.37-1.11-11.13l3.42-1.14c-.82-.56-1.63-1.12-2.42-1.68,1.24-1.41,2.49-2.83,3.69-4.28A7.47,7.47,0,0,0,1169.53,221.38ZM1159.26,238q.12,2.91.23,5.82l2.31.57q.33-3,.56-6ZM1139,249.91a25.09,25.09,0,0,0,2.87,9.88,37.56,37.56,0,0,0,1.37-7.71A45.8,45.8,0,0,0,1139,249.91Zm24,6.62a23.74,23.74,0,0,0,7.14,1.91,25.18,25.18,0,0,0,1.55,6.39c1-4,.34-8.05-.8-11.9A45,45,0,0,0,1163,256.53Zm12.84,17.68a10.51,10.51,0,0,0,8.38-.62l-4.65-1.79c-.1-1.46-.2-2.92-.28-4.37A31.6,31.6,0,0,0,1175.8,274.21Zm-9.68-5.12q.12,2.1.27,4.2a27.4,27.4,0,0,0,7.34,5.48q-.59-2.89-1.19-5.77Q1169.3,271.06,1166.12,269.09Z" style="fill:#b92026"/><path d="M1166.24,132.81c.36-4.21.56-8.43,1.09-12.62,0,2.48.2,5,.36,7.43q4.2-1.19,8.39-2.43c.13.66.28,1.32.44,2C1173.17,129.2,1169.75,131.09,1166.24,132.81Z" style="fill:#b92026"/><path d="M1220.94,200.64c10.07-3,19.4-8.07,29.46-11.17,1.54,4.42,3.13,8.84,4.9,13.18-3.68,10.63-9.33,20.69-11,31.93,2.71,6.44,10.2,10,12,17-1.07,2.87-3,5.28-4.11,8.15.31,3.8,3,6.85,4.55,10.21,3.25,5.82,4.4,13.65.22,19.31,6.52,5.42,5.23,14.83,9.09,21.81a37.36,37.36,0,0,1,.28,6.44c-19.37-.22-38.74.12-58.1-.19-.44-41.66-.1-83.33-.15-125,2,2.74,3.82,5.67,6.33,8C1216.11,202.11,1218.82,201.1,1220.94,200.64Zm15.06,13.3c3.47,2.5,7.56,3.74,11.79,2.46l-.32-2.17-5.18-1.16c-.41-1.44-.81-2.89-1.17-4.33A59.85,59.85,0,0,1,1236,213.94Zm-27.14,21.78c3.91,3.58,5.47,8.56,7.42,13.3a45.2,45.2,0,0,0-1-9.42c1-.38,2-.74,3-1.11a8.77,8.77,0,0,1,.09-6.82C1215.51,233.68,1212.39,235.43,1208.86,235.72Zm9.21,16.64,1.28,1.77,1.82.08c.9-1.86,1.81-3.72,2.65-5.61A10.64,10.64,0,0,0,1218.07,252.36Zm24,17.52c-2.43,3.26-1.84,7.38-1.47,11.16a39.07,39.07,0,0,1,5.15,5c1.14.86,1.07-1.17,1.53-1.77,1-3.07.93-6.36,1.5-9.52,1.41-1.08,3.33-1.16,5-1.71,0-.43,0-1.29-.07-1.72A75.69,75.69,0,0,1,1242,269.88Zm-12.8,12.71c.25,1.12.52,2.24.81,3.38l5.58-1.73c.23-.63.48-1.26.74-1.88C1234,282.39,1231.61,282.46,1229.24,282.59Z" style="fill:#b92026"/></svg>