<svg xmlns="http://www.w3.org/2000/svg" width="1556pt" height="872" viewBox="0 0 1556 654"><g fill="#a8790c"><path d="M954 0h3c1 2-2 3-4 2l1-2ZM971 0h6l-1 2c-2 1-4-1-5-2ZM609 10c23-5 46-9 70-8 16 0 32 2 48 5l36 7c12 3 25 3 37 3h40c18 0 35-1 53-3 15-2 29-6 44-9-5 3-10 3-15 4l-12 5-14 4c-5 2-11 2-16 3l-35 3c-7 2-15 1-23 3h-18l-4-2c-7 0-13 4-19 5s-12 3-18 2c2-6 9-9 15-12-10 1-19 5-28 9h-6l-8-8c-3-4-8-6-12-7-8-3-17-5-25-6l-27-1c-7 1-13-2-20 0-5 2-11 1-17 2-14 3-27 7-41 8l-37 8-47 14-33 9 21-3 27-4c15-3 31-4 46-5 5-1 10 0 14-2l26-3c15-2 30-1 45-2l19 3 9 6c4 5 9 9 9 15l1 14c-1 5 0 10-2 15a70 70 0 0 1-15 23v-7l-2 2-1-2c0 2-1 5-3 7-1-1 0-5-2-3l-2-1-1 9-4 10c2 3 0 9 5 11 6 3 12-3 17-5v3l-7 8 1 2 7-3c5 0 9-5 14-5l9 1c2 1 4 4 6 4l8-4c4-3 10-5 12-10 1-5 6-8 9-12 3-2 5-5 9-5l-1-11v-7c-6 3-12 9-18 13l-9 5c-1 2-3 5-6 6l-8 1-11 7c-4 0-6 2-8 5l-3-1 5-8 10-14c8-8 16-15 25-21 4-3 7-8 12-10l15-7c5-2 10-7 16-6l13-5 5-1 16 1c3 1 6 2 9 1l14-1c4-2 10-1 14-3l25-4 36-9c4 0 7-1 10-3l14-4 9-3 14-4 20-4c8 0 15 3 23 4l13 3c5 1 9-1 13 1l7 4c38 9 76 14 114 16 10 1 20 0 30 3l-23 1h-39l-51-6c-3-1-6-2-10-1l9 4 25 7 15 3h-17l-11-1c-13-1-26-6-39-3l3 2 27 7c5 2 11 1 16 2l31 6 67 7c6 1 12 4 18 2 2-2 2-5 5-4h28c20-1 40-9 57-20 5-5 12-9 16-16h2c0 5-2 8-5 11-16 14-34 26-54 31-17 4-35 4-52 3l1 7-3 3c-21 17-48 22-74 20l-2 1-36-6-18-5c-9-2-17-4-26-8-20-8-41-13-61-23l-13-7-7-4c-5 2-6 9-9 13l8 5 12 8 34 19 18 8c1 0 4 2 2 2-7 0-13-3-19-5l-19-8c-6-2-11-6-18-8l-14-8-17-8c3 4 7 5 11 7l18 10c13 7 27 14 42 19 9 5 19 5 29 8l7 1c10 2 21 3 32 2 13 1 27-2 37-9l6-3c-2 4-6 6-10 8-11 5-23 9-36 11h-12l-6 10c-6 5-13 7-21 7l-2 2c-7-3-15-3-23-5l-30-11c-10-3-19-8-28-12l-17-10-26-13-5-3 12 10 17 10 13 8 26 13 12 8 5 4c-1 1-3 2-5 1l-21-4-11-4c1 3 1 6 3 7l16 5c4 3 9 3 14 5 7 3 15 2 23 3 7 0 13-2 18-6l7-6-5 8 26-11c2-1 4-1 5 1-8 2-15 6-23 9-4 2-9 2-13 3-4 3-10 4-14 6h-32l-21 1c0-14-7-26-13-38-6-6-12-13-20-15-10-2-18 5-26 8-2 4-5 6-8 9l1 5 5-3c-1 4-4 6-5 9 0 5-2 10-5 14 5-2 7-8 13-9-2 11-9 20-11 30-1 6-4 12-3 18-4-5-7-13-15-13l4 5-1 1 1 5c1 2 4 3 6 4l4 7 3 1-2-9c3 2 4 5 5 7 3-4 3-11 9-12-2 4-2 10 1 14v3c-6 1-13 4-16 10-1 2-1 5-3 7l-5-6 1 9v4l16-7c2 0 3-3 4-5v-2 36l-3-3-10-9 6 10 3 4 4 1v2l-3 1c-1 4 0 9 2 13l-2 2-3-2 5 5-1 2v5c-5-5-11-3-17-4l-3 15h20v-11l2-2v47c-1-3 0-7-2-11-1 5 0 11-3 15-4 4-10 5-15 3s-9-7-12-11c-2 2-5 5-8 5-11 2-21-6-22-17-3 2-6 4-9 4v31h-43v-37h-23l-23 11 2 4c2 9 2 17-1 25-4 6-7 12-13 16l1 9c0 8-1 15 1 22l-5 3-2-12V271c0-7-1-15 2-22 1-5 5-9 9-10 8-2 18 0 22 7 0 3-3 5-4 6-1-2-2-5-5-7-4-2-11-3-14 1l-4 4v6c5-3 9-3 14-3 4-1 7 2 10 4v1a70 70 0 0 0-1 13v-10l-3-1c-4-1-7 2-6 6l1-1c2 3 7 5 9 9v13l5-4h116v-19l-1-38c-1-12-4-24-12-33l-11-10 2-4-14-6 3-2v2l10-5 20-4h-10l12-2c4 0 7-3 8-7v-15c0-3 1-7-1-10-1-2-2-2-3-2h-39c8-7 13-16 15-26 1-3 0-5-1-8v8c-3 9-7 18-14 24-3 3-8 2-12 2l6-4c6-3 10-9 13-14v-6l1-3 2-7c1-10-1-20-8-27-4-4-9-8-15-10-10-2-21-2-31 0-8 4-17 10-21 19-3 8-4 17-1 25 2 12 10 22 20 27l-40 1h-9c-2 2 1 5 3 5 3 1 6-1 9-1v22l1 5c-4 1-7 0-11-1l1 2-15 6-12 8c-3 2-5 6-7 9l-13 8-14 6c-5 2-8 6-11 10h6c-11 7-20 16-27 27-1 4-3 9-7 10l-4 1c-3-1-6-5-5-9 1-6 1-13 3-18a104 104 0 0 1 7-16l-6-7c-5 2-10 6-10 12l-3 14c-3-4-3-9-6-13-4 11-5 23-5 35v166c0 12 0 25 6 36l-2 6c-3-2-5-6-6-10-2-8-4-17-4-25V252c0-17 0-36 9-52 2-2 1-6 2-9l4-11 7-6c1-4 0-8 2-11l3-5 14-7 9-9-11 8c-4 2-8 3-11 6l-1 2c-13-2-24-9-34-18-14 9-31 12-47 8l-8-2-14 5c-13 4-27 6-41 4-6 0-11-3-15-6-8 1-15 2-22 1-11-2-22-3-31-9-3-2-7-4-7-8l-10-1c-8-2-17-5-24-10l-11-9v-1l-1-1-2-6-6-3c-10-4-19-10-27-17l-3-2c1-3-1-7 2-9 6-3 12-3 18-4l54-9c47-10 94-21 140-33l75-18m363 18 5 4 16 7c5 2 10 5 17 5 5 2 11 1 17 2h2c5 0 11-2 15-6-7 1-13-1-20-3a189 189 0 0 0-52-9m-27 5-11 4-11 4c2 2 5 3 7 3 6 2 11 6 17 7 10 2 20 4 30 2h1c8 0 16-2 23-6l-20-8c-8 1-15-4-22-5-4-1-9-2-14-1m-294 8c-5 3-8 7-11 12l7-3c2-3 6-5 7-9h-3m-51 1-7 7c-3 4-8 6-10 11h5l12-9 6-9h-6m-27 5c-5 2-9 5-14 6l-8 4c-3 0-6 0-9 2h-11l1-2-7-2c-4-2-9-2-14-1-2 1 0 4-1 7l12 6c6 2 13 0 20-1 12-3 22-9 33-14 4-4 9-6 13-9l-15 4m342-1-11 7c-3 1-7 2-9 4l19 10h14c7 0 13-3 19-6 2 0 2-2 2-3-9-3-18-9-27-13-2-2-4 1-7 1m86 6c-4 1-5 6-9 8 0 4 4 5 6 8-6 2-13 0-19-1-8-1-15-4-22-7 7 6 16 9 23 14l15 6 37 13h4c5 3 11 4 16 5l13 3 16 4 28 5 15-3c10 0 20-3 30-4 10 0 20-5 28-11l5-7c-2-1-3-3-5-2-13 0-25-2-38-3l-26-3-28-4-18-3-45-12-17-4c-3-1-6-4-9-2m-516 8c-14 4-29 7-43 12l-41 10-16 3-9 3c-8 1-15 4-23 6l-3 1c4 1 9 0 13-1 4 0 8-1 11 1h2l4 1 2 2 29-5 23-4 7-2c7-1 14-4 20-6 4-2 9-1 12-3l19-7-2-4c-5 3-10 3-15 5l-9 3c9-6 19-9 29-14 1-1 4-2 4-4-5 0-9 2-14 3m393 0c-5 1-9 5-14 6l-7 4c4 6 13 5 16 11 3-2 6 2 9 2 4 0 8 1 11-1 5-2 9-5 12-9 1-3-2-6-5-6-5-5-11-7-18-8l-4 1m-458 1-26 5-29 4-21 3-21 3c-2 0-3 1-3 3 10 3 19 1 29 1l26-5c8-2 17-2 25-5l37-8c2-1 1-3-1-3-5-1-11 0-16 2m6 8-35 8c-4 2-9 1-13 4l11-1 5-1 13-3c10-2 19-4 28-9l-9 2m54 11-33 9-21 6-12 3c-17 4-34 6-51 8 2 3 6 6 9 7 9 0 17 1 25-1l1 2 2-3 2 1 5-1 7-1c8 0 14-4 21-5l12-4c5 0 9-4 14-5l11-2c2-1 4-4 7-4l6-2h1l2-1v2l3-3 1 2 5-6 1 2 11-8v-5c-11 1-19 7-29 9m360-1 1 4c6 2 12 6 18 6l13 1 3-1 1 5c1-1 2-3 1-4 0-4-5-3-7-6-7-1-14-5-20-8-4 0-7 1-10 3m65-4c1 3 3 3 5 5l9 7 7 5 14 9c5 3 10 7 16 9 8 4 15 11 22 16l27 9c4 2 8 1 12 2 7 1 13 4 19 4 3-1 7-1 8-4 0-2-2-2-4-2-6-4-12-4-19-7-10-3-21-7-31-12-13-4-26-10-38-16l-35-18-12-7m-38 56v11c1-4 3-8 0-11m-230 31c-4-1-8 1-12 2v8l6 2c5-1 8-6 13-6 3-2 8-2 10-5-2-1-4 0-6 1l-2-3-3 1-2-2-4 2m20 9c-4 2-8 4-13 4l1-2h-2c1 3-1 6 1 7 3 1 6-2 8-3 4-2 10-3 12-7l-7 1m-45 11c-3 4-3 10-4 15-1 2 0 3 1 5l1-2c1-5 2-10 6-14 2-5 7-7 12-10-1-1-1-2-3-1-5 1-9 4-13 7m248 21h2v9c1 5 3 9 6 13l1-15c0-3 0-6-2-9-2-1-7-1-7 2m-227 1c1 7-4 12-6 18l-3 12c-1 3 2 6 5 4l4-7h3c1-2 3-4 2-7s0-6 2-9l4 2 2 1-1-13-2 1-2-2h-8m235 35c-2 1-2 3-2 4 5 2 11 0 15-2 1-2 3-8-1-7s-8 2-12 5m-151 19v2l-1-1c-1 3-2 5-1 8 4 0 5-4 7-7l-5-2m148 4v4l7-3c-1-1 0-5-3-4-1 0-4 1-4 3m-146 13c-2 0-3 2-5 3l1 9v2l6-2c4-3 9-3 14-5 0-4-3-9-7-12-3 1-7 2-9 5m22 13c0 4 1 7 3 10l3-1 1-2 3 3v1l-1 1-5 1c-3-1-4 2-7 3l1 2h-6l-6 4c-1 2 0 4-2 4-3 1-7-1-8 2l-1 2-2 1v9l6-1 19-11 12-5 18-7c2-1 4-1 4-4-4 0-8 0-12 3l2-5-3 2 3-3h-9l3-2c3-1 6-1 8 2l-2 4c3-2 6-5 9-4h16l-3 3 8-2 21 1c0 5-1 10 1 15 0-2 2-4 3-4v-3l-3-1 1-8 3-2 3-1c3 1 5-1 8-1l30 1v-6h3c-4-1-8-2-12-1H741m-19 4-1 4c2 2 5 2 7 2 3-2 3-4 2-7l-8 1m13 4h3v-5c-3 0-4 3-3 5m146 10 3 9v-12l-3 3m-53 10 2 3v1c1 5 8 8 11 3v-4l2-3-4-1h-5l-6 1m29-1c2 6 2 12 7 15 2 2 5 5 9 5 2 0 2-3 2-4l-2-16h-16m-144 17v27l2-1 2-6c2-6-1-13-2-19l-2-1m6 22c-3 3-6 8-4 12l9-11c2-3 3-9-1-12-3 3-4 7-4 11Z"/><path d="M717 31c4 1 8 2 11 1 2-1 3 2 4 3-2 3-6 6-10 5l-5-9ZM786 63c7-1 14-3 21 0l12 8 7 13-1 13c-1 3-3 6-3 10-6 8-14 14-23 16l-17-1c-3 0-6-2-9-4l-9-12c-1-7-2-13-1-19 1-8 7-13 12-19l11-5m-13 13c-4 6-8 14-6 21l1-8 1 4 4-5 10-11 9-6 7-1h-2l-1-2h1c-9-3-18 2-24 8ZM743 133c4 1 7 1 11-1v28h3v-28c3 1 6 2 9 1h42l23-1 1 27c-1 1 1 2 2 2l1-29h11v24c0 2 2 3 3 2v-26l12 1c1 7 1 14-1 20l-2 3c-4 4-9 3-14 4-6 0-12 3-17 6l-6 4c-2 3-5 1-8 1-15-2-30-2-45-1l-4 5h2l-4 4c12 0 24-1 36 1 9 0 17 1 25 3 6 2 12 5 15 9 1 2 0 4-1 6l-4-3c-11-9-26-9-40-10h-43l6-5c-3-1-7 1-10 2 4-6 11-9 18-12l-1-2c0-2-2-3-3-3-5-3-11-3-17-4v-28ZM923 154c3 6 3 13 5 19l-5 1v-20ZM891 172c2-6 4-13 8-18l2 4-4 18-1 11c-3-1-6-2-8 0l-4 2 1-2 3-3c1-5 0-9 3-12ZM1036 168c6 0 12-4 19-6l1 7h-20v-1ZM1337 171h1l27 106c1 3 1 8 4 10v1l-5 5-9-35-22-81 4-6ZM1550 177l6-6v311h-113l5-5 33-1h69V177ZM334 184c16-6 33-5 50-5h111c16 0 32 2 46 10 3 2 6 3 6 7l-2 4c-3-4-8-8-13-9-10-5-22-5-33-6H363c-15 1-31 2-42 13-10 10-13 24-13 38v175c1 14 2 30 11 42-2 2-3 3-2 6-9-8-12-20-13-31l-1-18V243c-1-11 0-23 4-34 4-12 15-22 27-25ZM918 187c12-6 25-8 39-8h128c11 0 22 1 33 4 7 2 14 4 19 9 2 2 0 5-1 6l-6-5c-10-6-22-7-33-8H961c-6-1-13 0-19 1-11 1-23 5-31 13-8 10-10 23-11 35v156c1 14 0 29 2 43 2 7 4 14 9 20l-2 6c-3-2-5-6-7-10-5-11-6-23-7-35V233c0-11 2-23 8-33 4-5 9-9 15-13Z"/><path d="M1137 180c7 4 13 9 17 15 8 13 9 28 9 42v169c0 14 0 27-5 40-2 9-7 17-14 23-4 3-8 6-12 7-14 6-29 7-43 8H957l-23-2c-15-2-29-10-38-22l5-3 7 7c10 10 25 13 39 14l25 1h101l24-1c13 0 25-2 37-9 9-5 16-15 19-25 4-14 5-28 5-42V236c-1-13-2-28-10-39-3-5-9-9-13-13l2-4ZM1192 181h138l-1 1-3 5h-129v279l-5 6V181ZM1407 181h138v1l-5 5-33-1-96 1-27 103c-1 5-2 10-7 12-3 3-8 3-12 3l-6-2-6-9 5-2c2 9 16 10 19 2 4-11 6-23 9-34l21-79ZM22 198c10-10 25-14 39-16l36-1h96c16 0 33 1 48 7 6 3 12 6 16 12l-4 4-10-8c-12-8-26-9-40-9H79c-6-1-13 0-19 1-11 1-23 4-31 11-9 8-13 20-13 31v38a42 42 0 0 0 7 25l-5 1c-7-7-7-18-8-27v-35c0-12 3-25 12-34ZM549 182c11 7 18 20 20 33 4 23 2 46 2 70l4-1v2c0 5 0 10 2 15l10 1-1 13h-12l3-7-5-8-1 74v29c1 19 0 38-10 55-4 5-8 11-14 15-11 6-23 8-35 10l-20 1H363c-12-1-23-2-34-6-6-1-10-5-15-7-7-6-12-13-15-21l5-1c4 6 8 13 14 18 11 8 25 10 38 11l33 1h99c13 0 26-1 38-4 11-2 21-7 27-16 7-8 10-19 11-29l2-22V236c-1-12-2-25-8-36l-11-13 2-5Z"/><path d="M253 183c10 6 18 15 21 26 2 6 4 13 4 20v41H151l5-5h116v-31c0-6 0-12-2-18-2-8-6-17-12-23l-8-6 3-4ZM891 193l4 3c-3 3-4 7-6 10l2-13Z"/><path d="m156 236 6 8 4 11-4 5h-1l-4-13-5-8 4-3ZM746 236l3 5 4 9 1 23-5 5-1-1c-1-10 1-20-2-29-1-4-3-7-6-10l3 1 3-3ZM1045 237l2 2 4 14 1 41v101c0 10-5 20-13 26-7 4-16 5-24 2-8-2-14-9-17-17l5-1c3 5 7 11 14 13s16 1 22-4c4-4 6-10 7-16V265c0-9-1-19-7-26l2 1 4-3ZM454 238l2 3 2 7 2 13v134c0 10-4 20-13 26-7 4-16 5-24 2-7-2-13-8-16-14l4-3c3 5 6 9 11 11 9 3 19 3 25-4 6-5 7-13 7-21V263c0-8-1-16-6-23 3 1 4 0 6-2Z"/><path d="M417 246c5-10 23-11 29-1l1 4c-1 2-2 3-4 3-1-3-3-7-6-8-5-1-12-1-15 4-2 4-2 9-2 13v123c0 6-1 11 1 17l-5 3-2-13V261l3-15ZM1012 242c8-7 24-5 27 6 2 3-2 5-4 7l-3-9c-3-3-8-3-12-2s-7 5-8 10c5-1 11 0 16 1 2 1 2 4 2 5 2 6 1 13 6 17v24c-3 1-4 4-4 7l2 3c0 2 0 4 2 5h-10c1 2 2 4 1 6l-6-6c-2-2-6-1-9-1v2l1 4 10 5c-3 2-8 0-11-2v42c6 2 12 4 18 2 4-4 1-10 0-14h2c3 3 3 9 3 13 0 3-3 6-4 9l4 8h-8l3-2c-1-2-4-2-6-2l-12-3v11c0 5 0 11 2 15l-2 2-1 3c-3-2-4-6-4-10-2-10-1-21-1-31V263c0-7 1-15 6-21m0 42v15c7 0 14 2 20-1v-10l-2-1v-3h-18ZM125 246c7-9 25-8 29 4 0 3-3 4-4 5-1-3-2-6-5-7-5-4-13-3-16 2s-3 12 1 17l-3 4c-3-2-5-5-5-9-1-5-1-12 3-16ZM113 270l5-2 7 8 13 7 101 43c8 3 16 8 20 15 2 3 0 6-2 7-4-7-10-13-18-16a120854 120854 0 0 1-118-52l-6-6-2-4ZM7 283c3 8 6 15 12 21 10 9 22 14 34 19l83 34c5 2 11 4 15 8l3 6-4 4-2-3c-2-5-8-8-13-10l-87-35-13-5c-15-8-29-20-33-37l5 1v-3ZM1303 318l3 4 3 10 34 127 2 7-4 6c-7-21-11-42-17-63l-18-66c-2-7-3-15-7-21l4-4ZM1456 321v1l2 5 1 87v53l-5 4-1 1V337l-1-13 4-3Z"/><path d="M1438 332c1-3 2-6 5-7s5 2 4 5l-4 7c-2 2-2 6-3 9l-8 29-28 107h-71l4-6h63l38-144ZM1288 333c0-3 1-6 3-7 3-2 6 1 7 4l-4 6-1 9 1 27v110h-112l5-6h101V333ZM262 329c5 5 8 10 11 16l3 14c2 15 1 30 2 45 0 11 0 21-2 32-1 9-5 19-11 26-4 5-9 10-15 13-10 6-21 9-33 10-11 2-22 1-33 1H66c-12-1-23-4-34-7-9-5-17-10-22-18l5-2c5 6 12 11 19 14 12 6 26 7 40 8h98c17-1 35 0 52-2 12-2 24-6 32-15 10-9 15-23 16-37v-50c0-9-1-18-4-27l-9-18 3-3ZM865 352v71l15-5 3-1 2 3 1 9c0 3-4 6-2 10 0 2 2 4 5 4l3 8-5 2c-1-3-1-8-5-10-7 2-14 5-20 9l-1 3c-2 2-4 5-4 9l2-1-3 1c-4-2 1-5 1-8l-2 3-6 7c-10 8-22 14-35 16-15 3-30 0-45 2h-83c-21 0-43 1-63-6-9-3-16-8-22-14l-2 2-2-4c-3-1-4 3-7 2l-14 1-3 2v2l12 1-9 2c-3 0-4-2-6-3l-6-1 4-5-1-7 3-2v-9l2-30c0-4-1-8 1-11l2 5a1075 1075 0 0 1 0 32l1 1c2 0 4-2 6-4v-7l3-4 2 6 4 14-8 10 2-2v4h6v-5l-5 1 1-1 6-1-1 6 4-1-4-9 5-2c4 8 9 15 16 20 15 10 35 12 53 12h124c9-1 19-1 28-4 14-3 27-10 33-22 9-15 8-32 8-48v-42l1-6 5-5m10 69c-3 2-8 3-10 6l-1 12c6-1 12-2 18-5 2-4 2-9 0-13v-1c-2-1-5 1-7 1m-299 28a753 753 0 0 1 9-2c-1-2-3-3-5-3-2 1-5 2-4 5m-4 6 2 3 8-4-7-3-3 4Z"/><path d="m158 359 5 7c4 10 4 21 4 31 0 8-3 16-9 22-11 12-34 9-42-6l4-3c3 4 7 9 13 10 7 2 16 1 21-4 7-8 8-19 8-29 0-9-2-18-8-25l4-3ZM748 362h107l-5 6-12-1h-84l-1 30c0 9-4 18-12 23-6 5-15 5-22 4-9-2-16-8-19-17l4-1v-3c2 7 7 14 15 15 7 1 14 2 20-3s9-12 9-20v-33Z"/><path d="M128 368v10c0 9-1 17 1 25l-4 5-2-5c-2-10-1-20-1-30l6-5ZM580 395c0-7 3-13 6-18 0 6-1 13-6 18ZM10 378h108l-6 6-17-1H16v45c0 10 3 20 10 28l-2 5c-3-1-4-4-6-6-7-10-9-23-8-35v-42ZM575 401h5l5 7c0-3-1-6 1-8v19l-4-5c-2-2-1-5-3-8-1-2-3-2-5-3l1-2ZM1387 489h101c6 1 13 0 19 2l14 4 3 2c-11-3-23-5-34-5h-87l-25 2c-12 2-24 6-31 15l-6-3c7-10 19-14 30-15 5-2 10-1 16-2ZM1540 509c7 10 7 22 7 33 0 10 0 21-4 31-3 7-9 12-16 15-12 5-25 6-37 7l-77 4c-8 1-18 1-22 9v11l-6 6h155c4 0 6-4 9-7v1l1 34h-211l1-1 6-6h197v-9l-2 3h-193l-2 5v-39l1-14 1 2h14c6 0 13-2 19-1l34-1 27-1 18-1 21-1c14-1 28-2 41-6 6-3 11-6 14-12 4-10 5-20 5-30s-1-19-6-28l5-4Z"/><path d="M1399 522c9-3 19-2 28-2h50c7 1 16 1 21 7l-4 6c-3-4-7-5-11-6l-38-1c-13 0-26-1-39 1-4 1-9 2-12 6-3 6-2 13-2 20l-52-1h-1l2-1 4-5h40c0-6 0-12 4-16 2-4 6-7 10-8ZM1473 555c4-1 7-3 11-3l6 4c-5 2-11 3-16 3l-11-3 10-1ZM1406 559c14-2 29-2 43-2 4 1 8 1 11 3l-31 2-45 2c-11 2-22 4-31 10-5 3-9 8-12 14l-5-4c2-7 8-13 14-16 8-4 16-6 25-7 10-2 21-1 31-2ZM1214 569c6-3 13-3 19-3h41c9 0 19 1 25 7-13-4-27-3-40-3-11 0-23-1-35 2-4 1-9 3-12 7l-6-3 8-7ZM12 566h6l25 1 50-1-6 5 1 19H51c-2-1-4 0-6 1H30l1 15 5-4h54l-4 4-1 18v1H30v28H6l3-3v-15l2 3h14c1-5 2-10 1-16l7 2 48-1h1v-14l2-3H32c-2 0-3 2-5 3h-1l1-21h57v-14l3-3H7l5-5ZM102 566h23l-5 5 1 81v1H97c1-2 3-4 3-7v-18l2 1h13l1 1v-54l4-5H97a28 28 0 0 0 5-5ZM133 570c2-2 5-5 8-4l70 1c5 0 11 2 15 6l-4 4-7-4c-7-3-13-2-20-2h-62v-1ZM241 566h5l79 1c-1 1-3 2-3 4l1 19h-62v13l-3 4h-2v-21h1l2 2 58-1 1-1v-11l3-4h-84l4-5ZM330 567l89-1-2 6v20l-27-1h-6l-1 5 1 43v13l-2 1h-22l2-3 4-2h13v-6l-2 4h-14v-17h14c2 2 1 5 2 7v-49h34v-10c-1-3 2-4 3-6h-90l1-1 3-3ZM421 571l3-5h3l80 1 1 15c0 3 0 6-2 8h-31a162 162 0 0 1-30 0v13l-4 4v-20h61v-11l4-5h-85ZM552 566h30v6l42 81h-27v-1l3-4-7-13-2 4h-49l-7 14h-25l-1-1 8-7 11-23 3 2c4 0 9-1 13 1l12-25 10-19v9l-9 19-4 8h26l-1-2 4 6h-30c-3 0-4 2-6 4h51c3-1 5 0 8 1l-16-31-10-19 2-5h-31l-25 49-8 16 5-11 30-59ZM627 566h4l32 1c0 2 0 4 2 6l23 47 1 12 1-2c2-1 3-4 4-6 5 2 10 1 15 1l14-26 11-21v4c-3 7-4 15-3 22l-1 44v-53l-31 58h-18l-1-2 2 1 1-3-10-19c4-2 9-1 14-2l-16-31-10-21 2-5h-36v-5Z"/><path d="M717 566h37v87h-23c1-3 3-5 3-8v-20l2 4 12-1 1 2v-52c0-3 3-5 5-7h-37l-1 1 1-6ZM793 566l2 1h49c11 0 22-1 33 2l1 4-13-2h-71v79l-1-4v-80ZM900 567h61c6 0 13-1 19 1l1 3h-79l-2-4ZM1037 567h32c1 1 3 2 3 4h-31l-4-4ZM1088 566h26l4 5h-26l35 69 5 11-4-5-40-80Z"/><path d="M1174 566a266 266 0 0 0 27 1l4 4-7 12-35 70h-30v-1c1-1 3-4 2-6l-6-10-4-7c4-4 11-2 16-1-4-11-10-21-15-31l-9-20c-2-2 0-4 1-6l23 47c2 5 6 10 7 16v6l7-13 2-5 2 3c4-2 9-1 13 0l14-28 10-18c1-4 5-5 8-8h-25l-5-5ZM1070 577c-1-2 1-4 2-5l4 7 33 63 6 11h-27l-2-3c-3-3-5-8-7-12l-47 1-6 14h-27l8-7 12-25 1 2c5-1 10 0 15 1l13-26 8-17 1 11 3 5 12 24h-27c-4-1-7 2-9 4h42l-2-3 14-1c2 0 2-3 1-4l-11-22-10-18m-24 33-4 10h10l-2-3h19l-4-8-9-18-10 19m37 24-2 5 7 13c1-1 2-3 1-5l-6-13ZM991 577l4 5c2 6 2 11 2 17-1 5 0 9-2 14l-6 6 2 4h-1l-3-1-8-1 1-4c4-2 8-2 10-6 2-3 2-7 2-11 0-6 1-13-3-19l3-2-1-2ZM223 578l3 6c2 8 2 17 0 26l-5 7 7 4v3l-4 3c4 8 2 17 3 25l-24 1 3-5c0-5 1-11-2-16l-3 3c-1-2-3-3-5-3l-28-1c-4-1-8 0-12 1v21h-24l3-5v-19h15l1 4v-6h42c4-1 8 3 12 2l14 1 3-5-2-2-3-1-9-1c2-6 11-5 13-11 2-5 2-10 2-15-1-5-1-10-4-15l4-2ZM645 579l2 3 4 13-1 58h-23c1-2 4-4 3-7v-21l1 3c5 0 10-3 14 1v-50ZM883 581l4-3 1 2c3 7 3 15 1 22l-4 7 4 5 1 3-2-2-6-3h-11c2-5 7-5 10-7 3-1 4-4 5-7 0-6 0-13-3-17ZM1308 580c6 9 4 21 4 31 0 9 1 17-1 26-2 5-5 10-10 13l-15 4h-53l-16-4-8-8-1-3c4 0 3-4 2-7l-1-8c5 1 9 2 13 1 2-1 3 1 5 2l-1-11 1-17c1-7 8-12 15-12h33c5 0 10 2 13 6v1l-2 2 1 3c-2-3-4-6-8-7l-28-1c-5 0-11-1-16 3-3 2-4 6-4 10v19c0 3 1 5 4 5l35 1 9-2 4 4c-3 2-7 2-11 2h-27c-5 0-10-1-13-4l-3 2c3 3 7 5 12 6h30c5 0 10 0 15-3l4-7 2 1h14l2 3v-31c0-5 0-11-3-16l3-4m-78 69a2714 2714 0 0 0 54-2l-51 1c-1-1-2 0-3 1ZM813 586h46c4 0 7 1 9 4l-2 4-2-2c-4-2-9-1-14-1h-32a158 158 0 0 0 0 12l-4 4h-1v-21Z"/><path d="M151 587c2 1 3 2 5 1a5415 5415 0 0 1 41-1c5 0 9 4 10 9v1l-2-2-1 2c-1-3-4-5-7-5l-28-1c-4-1-9 0-13 1v19l-4 4h-1v-28ZM329 587c3 2 6 1 8 1h26v1l-3 3h-34l3-5ZM921 587c2 1 3 2 5 1a7228 7228 0 0 1 48 3l-2 3-1-1-8-2h-38a303 303 0 0 1 1 20l-4 4-1-1v-27ZM265 599l57-1c-1 2-3 3-3 5v17h-58v13l-4 4h63l3-4h-56l1-3c-2 0-2-1-3-2l14 1h48l-3 3v21h-87l3-5h79v-5l-2 3-77-1a3602 3602 0 0 1 3-20h11l2 3v-12h1a11886 11886 0 0 1 58 0v-9l3-4h-54l4-2-3-2ZM447 599h57l1 15v2h-1v-17l-1 21h-51l-7-1v14l-3 4h60c3 0 4-2 6-3v19h-87l4-5v-23l2 4h9l5 1v-13h58v-1l1-10 2-3h-56l4-3-3-1ZM823 599l35 1 1 2c-5-1-9 2-13 0h-11l-11-1-1-2Z"/><path d="m158 609 5-2 40-1v1h-8l-1 4h-37l1-2ZM925 606l42 1 4 2c-1 2-3 2-5 2h-34l-2-4-5-1ZM1402 615l125-1h14l8 4-32 1-105-1c-3-2-7-2-10-3ZM813 616h47c3 0 7 0 9 3 1 2 0 3-1 5l-2-3-15-1-34 1v8h44l4 4h-48l-3 4h41c5 0 10 1 14-3 2-1 3-3 3-6l2-2h14v-6h4c2 5 1 12 1 17-1 5-3 10-8 12-4 3-10 4-15 4h-76c2-2 4-4 3-7v-28l1 8 13-1 2 4v-13m-15 32h79l-1-1h-72c-2 0-4-1-6 1ZM906 625h76c3 0 7 2 9 5l2-4c4 7 3 14 3 21v6h-24l4-5v-1c0-6 0-11-3-16l-3 4c-1-2-4-4-6-3h-39l1 21h-25v-2c3 0 4-3 4-5v-19l1-2m15 2h44l-1-1h-37l-6 1ZM447 628l18 1h44l1 19 3-5-2 4-2 1-1-14v-1h-57l1-4-5-1Z"/></g><g fill="#efce39"><path d="M957 0h14c1 1 3 3 5 2 12 1 24 4 36 7 29 6 57 13 86 18 49 9 98 15 147 14l30-1 22-1c-4 7-11 11-16 16-17 11-37 19-57 20h-28c-3-1-3 2-5 4-6 2-12-1-18-2l-67-7-31-6c-5-1-11 0-16-2l-27-7-3-2c13-3 26 2 39 3l11 1h17l-15-3-25-7-9-4c4-1 7 0 10 1l51 6h39l23-1c-10-3-20-2-30-3-38-2-76-7-114-16l-7-4c-4-2-8 0-13-1l-13-3c-8-1-15-4-23-4l-20 4-14 4-9 3-14 4c-3 2-6 3-10 3l-36 9-25 4c-4 2-10 1-14 3l-14 1c-3 1-6 0-9-1l-16-1c2-4 7-3 9-6-4-2-8-1-12-2-5 0-8 3-12 4-7 1-14 4-20 7l-5 5c12 0 22-9 35-7l-13 5c-6-1-11 4-16 6l-15 7c-5 2-8 7-12 10-9 6-17 13-25 21l-10 14-5 8 3 1c2-3 4-5 8-5l11-7 8-1c3-1 5-4 6-6l9-5-15 14 4 1-1 6c5-4 10-7 14-12l16-15 1 11c-4 0-6 3-9 5-3 4-8 7-9 12-2 5-8 7-12 10l-8 4c-2 0-4-3-6-4l-9-1c-5 0-9 5-14 5l-7 3-1-2 7-8v-3c-5 2-11 8-17 5-5-2-3-8-5-11l4-10 8 9c2 2 5 2 7 0l10-9c4-5 9-9 12-15 3-4 7-9 9-14l8-11c4-4 6-9 9-13v-6c-8 3-8 13-15 17l8-15-5-10-8 15c-3 3-5 8-7 12s-2 9-5 12c-3 7-9 11-13 17h-2c4-5 8-11 10-17 2-5 1-10 2-15l-1-14c0-6-5-10-9-15l-9-6-19-3c-15 1-30 0-45 2l-26 3c-4 2-9 1-14 2-15 1-31 2-46 5l-27 4-21 3 33-9 47-14 37-8c14-1 27-5 41-8 6-1 12 0 17-2 7-2 13 1 20 0l27 1c8 1 17 3 25 6 4 1 9 3 12 7l8 8h6c9-4 18-8 28-9-6 3-13 6-15 12 6 1 12-1 18-2s12-5 19-5l4 2h18c8-2 16-1 23-3l35-3c5-1 11-1 16-3l14-4 12-5c5-1 10-1 15-4l16-3c2 1 5 0 4-2m-13 9-17 5-2 1-19 4-12 3c-10 3-21 3-31 6l-18 3-14 5-10 1c1 1 2 2 3 1h15c3-1 5 0 8 1 6-1 11-3 17-3 8 0 16-4 24-5l-1 2c3 1 6-1 9-1h8l9-3 28-10c6-2 12-4 19-4 4-2 3-9-2-9-5-2-9 2-14 3M647 21l-15 4h33c4 0 8 3 12 4l11 4 8 6c1-3 0-7-2-10-7-7-18-9-27-9l-20 1m70 10 5 9c4 1 8-2 10-5-1-1-2-4-4-3-3 1-7 0-11-1m557 13-2 1-11 3c-5 0-10 3-16 2l-10 1c-5-1-11 2-16 2l-39 1c-9 2-18 0-27 1l-13 1c-2 0-2 1 0 3l6 1 14 1 12 2c13 2 27 3 41 2l-2 3c9-1 17 0 26-2l10-3c9-2 18-6 27-10l8-7v-3c-2-3-5 1-8 1Z"/><path d="M972 28a189 189 0 0 1 52 9c7 2 13 4 20 3-4 4-10 6-15 6h-2l5-3-12-3-16-3c-8-2-15-7-23-7 4 5 10 6 15 9l14 5c-7 0-12-3-17-5l-16-7-5-4ZM945 33c5-1 10 0 14 1 7 1 14 6 22 5l20 8c-7 4-15 6-23 6 0-1 2-2 0-3-8 0-16-4-24-4-6 1-12-1-17-1 7 5 16 6 24 7l16 1c-10 2-20 0-30-2-6-1-11-5-17-7-2 0-5-1-7-3l11-4 11-4ZM651 41h3c-1 4-5 6-7 9l-7 3c3-5 6-9 11-12ZM600 42h6l-6 9-12 9h-5c2-5 7-7 10-11l7-7ZM573 47l15-4c-4 3-9 5-13 9-11 5-21 11-33 14-7 1-14 3-20 1l-12-6c1-3-1-6 1-7 5-1 10-1 14 1l7 2-1 2h11c3-2 6-2 9-2l8-4c5-1 9-4 14-6ZM915 46c3 0 5-3 7-1 9 4 18 10 27 13 0 1 0 3-2 3-6 3-12 6-19 6h-14l-19-10c2-2 6-3 9-4l11-7m9 14h-9v2l19 2 7-2c2-1 0-6-2-4-5 1-10 0-15 2ZM1001 52c3-2 6 1 9 2l17 4 45 12 18 3 28 4 26 3c13 1 25 3 38 3 2-1 3 1 5 2l-5 7c-8 6-18 11-28 11-10 1-20 4-30 4l-15 3-28-5-16-4-13-3c-5-1-11-2-16-5h-4l-37-13-15-6c-7-5-16-8-23-14 7 3 14 6 22 7 6 1 13 3 19 1-2-3-6-4-6-8 4-2 5-7 9-8m38 15c1 1 1 3 3 3 7 2 13 6 20 7l12 3c3 0 5 2 7 1 4 0 7 3 11 3s9 3 13 2l16 3 34 5h4l-5 3-8 3v1c9 2 19-1 27-5 3-2 7-4 9-7l-3-2c-7 2-14 0-21 0l-15-2-15-2-20-3-39-7-17-4c-4-2-9-2-13-2ZM779 57c10-2 21-2 31 0 6 2 11 6 15 10 7 7 9 17 8 27l-2 7v-2l-9 8c0-4 2-7 3-10l1-13-7-13-12-8c-7-3-14-1-21 0l3-5-9 1c-5 2-10 4-13 9l-6 8v8l5-7 9-9c-5 6-11 11-12 19-1 6 0 12 1 19l9 12c3 2 6 4 9 4l17 1-12 3c7 4 15 2 22-1 5-1 9-5 13-9 4-3 5-8 8-12v6c-3 5-7 11-13 14l-6 4c4 0 9 1 12-2 7-6 11-15 14-24v-8c1 3 2 5 1 8-2 10-7 19-15 26h39c1 0 2 0 3 2l1 24-6-1c2-6 2-13 1-20l-12-1v26c-1 1-3 0-3-2v-24h-11l-1 29c-1 0-3-1-2-2l-1-27-23 1h-42c-3 1-6 0-9-1v28h-3v-28c-4 2-7 2-11 1v28l-2-1-1-5v-22c-3 0-6 2-9 1-2 0-5-3-3-5h9l40-1c-10-5-18-15-20-27-3-8-2-17 1-25 4-9 13-15 21-19ZM485 60c5-1 9-3 14-3 0 2-3 3-4 4-10 5-20 8-29 14l9-3c5-2 10-2 15-5l2 4-19 7c-3 2-8 1-12 3-6 2-13 5-20 6l-7 2-23 4-29 5-2-2-4-1h-2c-3-2-7-1-11-1-4 1-9 2-13 1l3-1c8-2 15-5 23-6l9-3 16-3 41-10c14-5 29-8 43-12ZM878 60l4-1c7 1 13 3 18 8 3 0 6 3 5 6-3 4-7 7-12 9-3 2-7 1-11 1-3 0-6-4-9-2-3-6-12-5-16-11l7-4c5-1 9-5 14-6m16 8 4 6c1 1 5 1 5-1-2-3-5-5-9-5ZM420 61c5-2 11-3 16-2 2 0 3 2 1 3l-37 8c-8 3-17 3-25 5l-26 5c-10 0-19 2-29-1 0-2 1-3 3-3l21-3 21-3 29-4 26-5Z"/><path d="M940 75c3-4 4-11 9-13l7 4 13 7c20 10 41 15 61 23 9 4 17 6 26 8l18 5 36 6h-1l-6 3c-10 7-24 10-37 9-11 1-22 0-32-2l-7-1c-10-3-20-3-29-8-15-5-29-12-42-19l-18-10c-4-2-8-3-11-7l17 8 14 8c7 2 12 6 18 8l19 8c6 2 12 5 19 5 2 0-1-2-2-2l-18-8-34-19-12-8-8-5m61 17 14 8 14 5-1 3c6 4 13 6 20 7-5 1-11-1-16 1 3 3 7 3 11 4 14 1 29 3 43-1 2-1 6 1 7-2-1-4-7-3-10-4-5 0-9-2-14-3-11-2-23-4-33-9-4-2-9-1-13-3-4-3-9-3-13-5-3-1-6-2-9-1ZM426 69l9-2c-9 5-18 7-28 9l-13 3-5 1-11 1c4-3 9-2 13-4l35-8ZM790 69l6-1 1 2h2l-7 1-9 6-10 11-4 5-1-4 3-7c9-1 13-12 23-13h-6 2ZM480 80c10-2 18-8 29-9v5l-11 8-1-2-5 6-1-2-3 3v-2l-2 1h-1l-6 2c-3 0-5 3-7 4l-11 2c-5 1-9 5-14 5l-12 4c-7 1-13 5-21 5l-7 1-5 1-2-1-2 3-1-2c-8 2-16 1-25 1-3-1-7-4-9-7 17-2 34-4 51-8l12-3 21-6 33-9ZM774 78l4-4c0 2-2 4-4 4ZM840 79c3-2 6-3 10-3 6 3 13 7 20 8 2 3 7 2 7 6 1 1 0 3-1 4l-1-5-3 1-13-1c-6 0-12-4-18-6l-1-4Z"/><path d="m905 75 12 7 35 18c12 6 25 12 38 16 10 5 21 9 31 12 7 3 13 3 19 7 2 0 4 0 4 2-1 3-5 3-8 4-6 0-12-3-19-4-4-1-8 0-12-2l-27-9c-7-5-14-12-22-16-6-2-11-6-16-9l-14-9-7-5-9-7c-2-2-4-2-5-5ZM893 99l5 3 26 13 17 10c9 4 18 9 28 12l30 11c8 2 16 2 23 5l-7 6c-5 4-11 6-18 6-8-1-16 0-23-3-5-2-10-2-14-5l-16-5c-2-1-2-4-3-7l11 4 21 4c2 1 4 0 5-1l-5-4-12-8-26-13-13-8-17-10-12-10Z"/><path d="M886 125c8-3 16-10 26-8 8 2 14 9 20 15 6 12 13 24 13 38h-3c-1-8-4-15-7-23-4-8-8-16-15-22-4-1-8-1-11 1-4 2-7 7-9 11l8-5c-2 16 1 32 2 48-5 3-9 7-12 11l-4-4h-6c2-2 5-1 8 0l1-11 4-18-2-4c-4 5-6 12-8 18-3 3-2 7-3 12l-3 3-1 2v1c4 2 8 3 13 2l-2 4-4-3-2 13-1 3v-1l1-15-2 1c-6 1-6 8-9 12-1-2-2-5-5-7l2 9-3-1-4-7c-2-1-5-2-6-4l5-3c-1-1-3-3-5-3l-4-5c8 0 11 8 15 13-1-6 2-12 3-18 2-10 9-19 11-30-6 1-8 7-13 9 3-4 5-9 5-14 1-3 4-5 5-9l-5 3-1-5c3-3 6-5 8-9Z"/><path d="M916 140c1-1 0-4 2-4 5 3 6 9 10 14 5 6 8 13 11 20l-11 3c-2-6-2-13-5-19v20l-9 3c2-6 1-13 2-19v-18ZM635 150l11-8-9 9-14 7 1-2c3-3 7-4 11-6ZM1025 160c8-3 15-7 23-9l2 2h-6l-15 7-23 8-8 1c4-2 10-3 14-6 4-1 9-1 13-3ZM844 160c5-1 10 0 14-4l3 6-12-2-13 2-3 4 12-2c-6 2-12 3-17 6h-7l6-4c5-3 11-6 17-6ZM1052 156l3 6c-7 2-13 6-19 6v1h-13l25-9c1-1 4-2 4-4ZM637 162l4-2 2 2 3-1 2 3c2-1 4-2 6-1-2 3-7 3-10 5-5 0-8 5-13 6l-6-2c3-1 7 2 9-1-2-3-5-3-8-4a655 655 0 0 1-1-3c4-1 8-3 12-2ZM716 167l15-6c10 2 22 0 32 7l1 2c-7 3-14 6-18 12l-36 12c-6 1-11 6-17 8s-13 2-20 2l-8 4h-6c3-4 6-8 11-10l14-6 13-8c2-3 4-7 7-9l12-8m17-3c-6 3-12 5-17 9l-9 8c-2 2-3 6-6 7-4 3-9 4-14 6v2c7 0 13-4 19-5l26-8c11-3 19-10 29-15-2-2-3-3-5-3l-14-2c-3 0-6-1-9 1ZM657 171l7-1c-2 4-8 5-12 7-2 1-5 4-8 3-2-1 0-4-1-7h2l-1 2c5 0 9-2 13-4ZM612 182c4-3 8-6 13-7 2-1 2 0 3 1-5 3-10 5-12 10-4 4-5 9-6 14l-1 2c-1-2-2-3-1-5 1-5 1-11 4-15ZM319 186c14-9 31-11 47-11h129c14 0 29 1 42 7 4 1 7 2 10 5l11 13c6 11 7 24 8 36v172l-2 22c-1 10-4 21-11 29-6 9-16 14-27 16-12 3-25 4-38 4h-99l-33-1c-13-1-27-3-38-11-6-5-10-12-14-18-3-8-5-16-5-24l-1-13V235l1-13c1-14 8-28 20-36m15-2c-12 3-23 13-27 25-4 11-5 23-4 34v167l1 18c1 11 4 23 13 31 5 4 11 9 17 11 15 4 30 4 45 4h95c15 0 29 1 44-2 12-2 24-6 31-16 8-9 10-21 11-33l1-32V232l-4-22-5-11c-3 0-3 3-4 4l-2-3h-1l2-4c0-4-3-5-6-7-14-8-30-10-46-10H384c-17 0-34-1-50 5Z"/><path d="M766 175c23 0 48-2 69 8l11 10c8 9 11 21 12 33l1 38v19H743l-1-31-4 2v4-1l-1-5c1-1 4-3 4-6-4-7-14-9-22-7-4 1-8 5-9 10-3 7-2 15-2 22a248189 248189 0 0 1 2 134l5-3 1 2c-2 2-4 4-2 6 7 8 22 6 26-4 2-4 3-9 3-13v-35l7-1h110l-1 6v42c0 16 1 33-8 48-6 12-19 19-33 22-9 3-19 3-28 4H666c-18 0-38-2-53-12-7-5-12-12-16-20-4-9-6-19-6-29V273l1-41c1-15 4-31 15-41-1 3 0 7-2 9-9 16-9 35-9 52v165c0 8 2 17 4 25 1 4 3 8 6 10l2-6 2 4-2 1c1 2 0 5 2 6 6 7 14 11 22 13 11 3 22 4 33 4h105c20 0 41 1 60-7 9-5 17-13 20-23 3-8 4-17 4-26l1-56H748v33c0 8-3 15-9 20s-13 4-20 3c-8-1-13-8-15-15-2-9-1-18-1-27V261c0-7 1-15 6-20 7-9 22-9 31-3 3 3 5 6 6 10 3 9 1 19 2 29l1 1h106l-1-43c-1-14-3-29-13-40a462 462 0 0 0-3 4l-1-1c1-2 2-4 1-6-3-4-9-7-15-9-8-2-16-3-25-3-12-2-24-1-36-1l4-4ZM925 179c17-5 35-4 53-4h112c15 0 31 2 45 9 4 4 10 8 13 13 8 11 9 26 10 39v166c0 14-1 28-5 42-3 10-10 20-19 25-12 7-24 9-37 9l-24 1H972l-25-1c-14-1-29-4-39-14l-7-7-5 3-2-4 4-1c0-4-3-8-4-13-5-18-4-36-4-54V233c1-9 1-19 5-28 5-12 17-22 30-26m-7 8c-6 4-11 8-15 13-6 10-8 22-8 33v181c1 12 2 24 7 35 2 4 4 8 7 10l2-6 2 3-1 6c6 5 13 8 20 9 12 3 25 3 37 3h97c17 0 34 1 51-3 9-2 19-7 25-15 8-11 10-25 11-38V233c-1-12-3-26-11-36l-3 4-1-1h-1l-1-2c1-1 3-4 1-6-5-5-12-7-19-9-11-3-22-4-33-4H957c-14 0-27 2-39 8ZM18 196c13-14 33-18 52-19h133c15 0 31 2 44 9l4-4 2 1-3 4 8 6c6 6 10 15 12 23 2 6 2 12 2 18v31H156l-2-15c-4-12-22-13-29-4-4 4-4 11-3 16 0 4 2 7 5 9l3-4 1 1-1 5c6 5 12 7 18 9 31 14 62 26 94 39l17 11 9 18c3 9 4 18 4 27v50c-1 14-6 28-16 37-8 9-20 13-32 15-17 2-35 1-52 2H74c-14-1-28-2-40-8-7-3-14-8-19-14-7-9-10-21-10-32v-54h117c0 10-1 20 1 30l2 5 4-5 1 3c-1 2-3 6 0 8 4 3 10 3 15 2 6-2 9-8 10-13 2-9 2-18 0-27l-4 3-1-4 4-4-3-6c-4-4-10-6-15-8l-83-34c-12-5-24-10-34-19-6-6-9-13-12-21-1-7-3-13-2-20v-32c0-13 3-26 13-35m4 2c-9 9-12 22-12 34v35c1 9 1 20 8 27 7 9 16 15 26 20l44 19 49 19c6 3 13 5 17 10 6 7 8 16 8 25 0 10-1 21-8 29-5 5-14 6-21 4-6-1-10-6-13-10-1-3-3-6-2-9v-23H10v42c-1 12 1 25 8 35 2 2 3 5 6 6l2-5 2 1v7c12 9 29 11 44 12h127c15 0 30-1 44-8l14-12c7-9 10-21 10-32v-54c-1-7-2-14-5-21-2 1-3 3-3 5l-2-6c2-1 4-4 2-7-4-7-12-12-20-15l-101-43-13-7-7-8c-2-6-2-12-1-17 3-9 11-15 20-15 5 0 11 0 15 3l5 8 4 13h106v-37a43 43 0 0 0-26-35c-15-6-32-7-48-7H97l-36 1c-14 2-29 6-39 16ZM1187 177h146l22 81 9 35 5 2c3 0 4-3 5-5l14-57 15-56h147v299h-69l-33 1-1-147c1-3-1-6-4-5s-4 4-5 7l-38 144h-63l-7-22-32-124c-1-3-4-6-7-4-2 1-3 4-3 7v143h-101V177m5 4v291h91V334c-1-6 2-11 7-14 2-2 5 0 8 0 2-1 3-2 3-4l2 2-4 4c4 6 5 14 7 21l18 66c6 21 10 42 17 63h55l31-119 7-27c2-4 5-8 10-7 3 0 6 3 8 5l1 13v135l1-1 8 1h83V181h-138l-21 79c-3 11-5 23-9 34-3 8-17 7-19-2l-29-110 1-1h-138ZM860 203c0-3 5-3 7-2 2 3 2 6 2 9l-1 15c-3-4-5-8-6-13l2 1c1-4 2-7 1-11l-3 1h-2Z"/><path d="M633 204h8l2 2 2-1 1 13-2-1-4-2c-2 3-3 6-2 9s-1 5-2 7h-3l-4 7c-3 2-6-1-5-4l3-12c2-6 7-11 6-18m-4 26 1-2 3 1c3-4 1-9 0-13-3 4-3 9-4 14ZM872 221c3-6 10-9 16-10l-1 4-15 6ZM865 231l20-8c-1 2-2 5-4 5l-16 7v-4ZM868 239c4-3 8-4 12-5s2 5 1 7c-4 2-10 4-15 2 0-1 0-3 2-4ZM415 241c3-4 8-7 13-7 7-1 16 0 20 6 5 7 6 15 6 23v129c0 8-1 16-7 21-6 7-16 7-25 4-5-2-8-6-11-11l-4 3-1-3c1-1 3-2 3-4V262c0-7 1-15 6-21m2 5-3 15v130l2 13 5-3 1 3c-3 0-3 3-2 6 3 2 7 4 11 4 6 1 13-2 15-7 3-6 4-13 3-19V261c1-4-1-8-2-12l-1-4c-6-10-24-9-29 1ZM1003 249c2-7 7-14 15-15 7-1 16 0 21 5 6 7 7 17 7 26v133c-1 6-3 12-7 16-6 5-15 6-22 4s-11-8-14-13c-2-6-3-13-2-19V267c-1-6 0-12 2-18m9-7c-5 6-6 14-6 21v104c0 10-1 21 1 31 0 4 1 8 4 10l1-3 2-2 1 2c-2 2-3 5 0 7s8 2 12 2c6 0 11-4 13-10 2-9 1-19 1-29V254c-2 1-3 3-5 3l-1-2c2-2 6-4 4-7-3-11-19-13-27-6ZM872 245l10 9-4-2c0 3 2 5 3 7l-3-4-6-10ZM882 254l3 3v3l-4-1c2-1 2-3 1-5ZM717 258l5 2c-2 3-3 7-7 7 2-2 3-5 2-7v-2ZM865 262c0-2 3-3 4-3 3-1 2 3 3 4l-7 3v-1l6-3-1-2-5 2ZM728 266c-1-4 2-7 6-6-1 1-3 2-2 4 0 3 3 5 5 7h1v3c-2-4-7-6-9-9l-1 1ZM719 275c2-3 6-4 9-5 4 3 7 8 7 12-5 2-10 2-14 5l-6 2v-2c4-3 10-4 14-8 2-1 0-4-1-5-2-3-6 0-9 1ZM575 284h11l1 18-10-1c-2-5-2-10-2-15v-2ZM866 284c6 1 12-1 17 4v11h-20l3-15Z"/><path d="M1012 284h18v3l2 1v10c-6 3-13 1-20 1v-15ZM735 296c-1-2 0-5 3-5v5h-3ZM753 297h10l-3 3 3-2-2 5c4-3 8-3 12-3 0 3-2 3-4 4l-18 7-12 5-19 11-6 1v-9l2-1 1 2-1 3 12-6c4-3 10-2 14-5l14-7c2-1 3-4 3-7l-8 1v-1l2-1Z"/><path d="M738 304c3-1 4-4 7-3l5-1-3 4-11 5c-4 1-6 4-10 6l-9 1c1-3 5-1 8-2 2 0 1-2 2-4l6-4h6l-1-2ZM828 316l6-1-1 2c2 0 5 0 6-2l4 1-2 3v4c-3 5-10 2-11-3v-1l-2-3ZM857 315h16l2 16c0 1 0 4-2 4-4 0-7-3-9-5-5-3-5-9-7-15m6 0c0 4 1 7 3 11h3l-2-10-4-1ZM1021 316l6 6-1 1v2l-3 1-10-5-1-4 6 2 3-3ZM719 354c0-4 1-8 4-11 4 3 3 9 1 12-1-1 0-3-2-4l-3 3ZM1012 349l18 5c1 4 4 10 0 14-6 2-12 0-18-2v-5c5 1 11 4 17 2-6-3-12-3-17-5v-9ZM586 376v24c-2 2-1 5-1 8l-5-7v-6c5-5 6-12 6-18v-1ZM1012 377l12 3c2 0 5 0 6 2l-3 2-15-3v-4ZM573 404l1-1c2 1 4 1 5 3 2 3 1 6 3 8l4 5v1l-5 3 5 4c2 1 1 4 1 6l-2-6-3 4v7c-2 2-4 4-6 4l-1-1c0-3 3-5 4-8l1-10c-5 3-5 9-4 14h-2l1-28-2-5m3 3v6h2c1-2 1-5-2-6ZM875 421c2 0 5-2 7-1v1c-5 3-11 3-16 7v9c5-2 11-2 15-6l1 3c-6 3-12 4-18 5l1-12c2-3 7-4 10-6ZM576 449c-1-3 2-4 4-5 2 0 4 1 5 3l-3 3-6-1ZM862 452c6-4 13-7 20-9 4 2 4 7 5 10l-2 1-2-7-22 8 1-3ZM572 455l3-4 7 3-8 4-2-3ZM590 464c3 1 4-3 7-2l2 4c-2 3-6 6-10 4 2 0 5 0 6-3-1-2-3-1-5-2-2 1-5 0-7 2 0 3 4 2 6 3h-4l-12-1v-2l3-2 14-1ZM1522 503l8-3c4 2 8 6 10 9l-5 4c-3-5-9-7-13-10ZM1494 533l4-6c2 2 3 5 3 8l-6 1-1-3ZM1423 569c21-1 42-4 63-2l15 2c5-1 9 1 14 1l19-1 2 2c-3 6-8 9-14 12-13 4-27 5-41 6l-21 1-18 1-27 1-34 1c-6-1-13 1-19 1h-14l-1-2c1-5 4-9 8-12 10-6 21-8 32-9l36-2ZM215 573l7 4 1 1-4 2-7-4 3-3ZM882 575l5 3-4 3-2-2 1-4ZM989 575l2 2 1 2-3 2-2-3 2-3ZM1303 576l5 4-3 4-5-6 3-2ZM647 582l9 15h15l16 31c-5 1-10 0-14 2l-15-29-2 6-5-12-4-13ZM731 604c-1-7 0-15 3-22v15l2-3c4 0 10-2 13 2v34l-1-2-12 1-2-4v-24l-3 3ZM1056 581l5 9-1 7-3-5-1-11ZM566 582l7 14 16-1 16 31c-3-1-5-2-8-1h-9c-6-9-10-19-14-28l-3 4-5-11v-8ZM360 592l3-3 1 5h13l2 6v36c-1-2 0-5-2-7h-14v-24l-2 6-2-1v-17l1-1ZM870 592c4-3 10 0 15-2-1 2-1 5 1 8-1 3-2 6-5 7-3 2-8 2-10 7h11l-6 3 9 2 3-2 2 2 2 3h-4v6h-14l-2 2-1-5-2 3-1-2c1-2 2-3 1-5-2-3-6-3-9-3h-47v13l-2-4-13 1-1-8c0-8-1-15 1-23l13 1 2 3v8h51c4-2 6-6 6-10l-2-1-2 3v-5l2-4 2 2ZM100 593c5 1 11 2 15-2l1 8v31l-1-1h-13l-2-1v-35ZM972 594l2-3 2 1h14l2 8c0 4 0 8-2 11-2 4-6 4-10 6l-1 4 8 1-5 3h-76l-1 2v-31h15l1 1v17l1 1h42c4 0 8-1 11-4 2-4 2-9 2-13l-4-1-1-3ZM1288 593h18l2 7v31l-2-3h-14l-2-1 1-17-1-12-3 3v-2l-1-3 2-2v-1ZM136 593h13l2 6v16h44c3 0 7-1 9-3 3-4 3-9 3-13l-3-2 1-2 2 2v-1c5-2 10-1 16-1 0 5 0 10-2 15-2 6-11 5-13 11l9 1c-2-1-5 0-7 1 2 2 5 2 8 3l2-3 2 2-3 5-14-1c-4 1-8-3-12-2h-42v6l-1-4h-15l1-36ZM1171 594l14 1 1 2-14 28c-4-1-9-2-13 0l-2-3 14-28ZM1064 595h16l11 22c1 1 1 4-1 4l-14 1-10-20-2-7ZM241 600c0-1-1-4 1-4h11l3 3v8h59v9h-59v12l-2-3a2158 2158 0 0 1-13 2c-2-9-1-18 0-27ZM425 597h16v10h58l1-1-1 10h-58v14l-5-1h-9l-2-4v-28ZM630 596h13l2 4v29c-4-4-9-1-14-1l-1-3v-29ZM708 596h13l2 3-14 26c-5 0-10 1-15-1l14-28ZM1032 596c5 1 11-1 16 2l-13 26c-5-1-10-2-15-1l-1-2 13-25ZM528 622c5-9 8-18 14-26l14 1v3l-12 25c-4-2-9-1-13-1l-3-2ZM1110 597h16c5 10 11 20 15 31-5-1-12-3-16 1-5-11-11-21-15-32ZM1209 602c1-2 0-4 2-5h14l2 2-1 17 1 11c-2-1-3-3-5-2-4 1-8 0-13-1v-22ZM9 608l17 1h56v13H26c1 6 0 11-1 16H11l-2-3v-27ZM1148 634l4-10 3 3-7 13v-6Z"/><path d="m921 627 6-1h37l1 1h-44ZM817 633h9l-4 4h-8l3-4ZM1207 634l3-2c1 3 2 7-2 7l-1-5ZM1129 636l6 10c1 2-1 5-2 6l-1-1-5-11 2-4ZM1541 640l2-3v9h-197v-1l2-5h193ZM377 646l2-4v6h-13l-4 2 1-4h14ZM317 646l2-3v5h-79v-3l77 1ZM798 648c2-2 4-1 6-1h72l1 1h-79ZM972 647h4v1l-4 5v-6ZM1230 649c1-1 2-2 3-1l51-1a2714 2714 0 0 1-54 1Z"/></g><g fill="#f7eab3"><path d="M944 9c5-1 9-5 14-3 5 0 6 7 2 9-7 0-13 2-19 4l-28 10-9 3h-8c-3 0-6 2-9 1l1-2c-8 1-16 5-24 5-6 0-11 2-17 3-3-1-5-2-8-1h-15c-1 1-2 0-3-1l10-1 14-5 18-3c10-3 21-3 31-6l12-3 19-4 2-1 17-5ZM647 21l20-1c9 0 20 2 27 9 2 3 3 7 2 10l-8-6-11-4c-4-1-8-4-12-4h-33l15-4ZM981 30c8 0 15 5 23 7l16 3 12 3-5 3c-6-1-12 0-17-2l-14-5c-5-3-11-4-15-9ZM1274 44c3 0 6-4 8-1v3l-8 7c-9 4-18 8-27 10l-10 3c-9 2-17 1-26 2l2-3c-14 1-28 0-41-2l-12-2-14-1-6-1c-2-2-2-3 0-3l13-1c9-1 18 1 27-1l39-1c5 0 11-3 16-2l10-1c6 1 11-2 16-2l11-3 2-1ZM774 47c4-1 7-4 12-4 4 1 8 0 12 2-2 3-7 2-9 6l-5 1c-13-2-23 7-35 7l5-5c6-3 13-6 20-7ZM709 58l8-15 5 10-8 15c7-4 7-14 15-17v6c-3 4-5 9-9 13l-8 11c-2 5-6 10-9 14-3 6-8 10-12 15l-10 9c-2 2-5 2-7 0l-8-9 1-9 2 1 1 7 5-9 2-2v7l5-6h2c4-6 10-10 13-17 3-3 3-8 5-12s4-9 7-12ZM937 45c5 0 11 2 17 1 8 0 16 4 24 4 2 1 0 2 0 3h-1l-16-1c-8-1-17-2-24-7ZM780 59l9-1-3 5-11 5-9 9-5 7v-8l6-8c3-5 8-7 13-9ZM924 60c5-2 10-1 15-2 2-2 4 3 2 4l-7 2-19-2v-2h9ZM1039 67c4 0 9 0 13 2l17 4 39 7 20 3 15 2 15 2c7 0 14 2 21 0l3 2c-2 3-6 5-9 7-8 4-18 7-27 5v-1l8-3 5-3h-4l-34-5-16-3c-4 1-9-2-13-2s-7-3-11-3c-2 1-4-1-7-1l-12-3c-7-1-13-5-20-7-2 0-2-2-3-3ZM894 68c4 0 7 2 9 5 0 2-4 2-5 1l-4-6ZM778 74l10-5h6c-10 1-14 12-23 13l3-4c2 0 4-2 4-4ZM733 100c6-4 12-10 18-13v7l-16 15c-4 5-9 8-14 12l1-6-4-1 15-14ZM1001 92c3-1 6 0 9 1 4 2 9 2 13 5 4 2 9 1 13 3 10 5 22 7 33 9 5 1 9 3 14 3 3 1 9 0 10 4-1 3-5 1-7 2-14 4-29 2-43 1-4-1-8-1-11-4 5-2 11 0 16-1-7-1-14-3-20-7l1-3-14-5-14-8ZM822 107l9-8v2l-1 3c-3 4-4 9-8 12-4 4-8 8-13 9-7 3-15 5-22 1l12-3c9-2 17-8 23-16ZM909 126c3-2 7-2 11-1 7 6 11 14 15 22 3 8 6 15 7 23a335 335 0 0 0 24-1h32l8-1 23-8 15-7h6l2 3c0 2-3 3-4 4l-25 9h70c15 1 31 3 44 11l-2 4c-14-7-30-9-45-9H978c-18 0-36-1-53 4-13 4-25 14-30 26-4 9-4 19-5 28v155c0 18-1 36 4 54 1 5 4 9 4 13l-4 1-2-5-3-8-3-14-1-9V257a970 970 0 0 1 0-34l-20 8-1-9 5 6c2-2 2-5 3-7l15-6 1-4v-2l1-3c2-3 3-7 6-10l2-4c-5 1-9 0-13-2v-1l4-2h6l4 4c3-4 7-8 12-11-1-16-4-32-2-48l-8 5c2-4 5-9 9-11m7 14v18c-1 6 0 13-2 19l9-3 5-1 11-3c-3-7-6-14-11-20-4-5-5-11-10-14-2 0-1 3-2 4ZM866 154l-1-24c2 3 1 7 1 10v15c-1 4-4 7-8 7l-12 2h-1l-12 2 3-4 13-2 12 2-3-6 2-3 6 1ZM733 164c3-2 6-1 9-1l14 2c2 0 3 1 5 3-10 5-18 12-29 15l-26 8c-6 1-12 5-19 5v-2c5-2 10-3 14-6 3-1 4-5 6-7l9-8c5-4 11-6 17-9ZM626 167c3 1 6 1 8 4-2 3-6 0-9 1l1-5ZM324 177c15-7 32-8 48-8h125c18 1 37 3 52 13l-2 5c-3-3-6-4-10-5-13-6-28-7-42-7H366c-16 0-33 2-47 11-12 8-19 22-20 36l-1 13v177l1 13c0 8 2 16 5 24l-5 1c-8-21-6-44-6-66V242c-1-13 0-25 5-37 4-12 14-22 26-28ZM768 170c15-1 30-1 45 1 3 0 6 2 8-1h7a124 124 0 0 1-5 3l14 6-2 4c-21-10-46-8-69-8h-2l4-5ZM18 188c15-13 35-16 54-17h133c16 1 32 3 46 11l-4 4c-13-7-29-9-44-9H70c-19 1-39 5-52 19-10 9-13 22-13 35v32c-1 7 1 13 2 20v3l-5-1-2-13v-47c1-14 7-28 18-37ZM1182 171h155l-4 6h-146v299l-5 6V171ZM1399 171h157l-6 6h-147l-15 56-14 57c-1 2-2 5-5 5l-5-2 5-5v-1l27-105 3-11ZM594 200c4-8 10-15 17-20l-4 11c-11 10-14 26-15 41l-1 41v145c0 10 2 20 6 29l-5 2-1-2-4-14c0-2 1-5-1-6l-5-4 5-3v-44a48277 48277 0 0 1 0-61l1-13-1-18v-38c0-16 2-32 8-46Z"/><path d="m1329 182 29 110-5 2v-3l-24-92a113 113 0 0 1-3-12l3-5ZM1540 187l5-5v290h-83l-8-1 5-4 81-1V197a148 148 0 0 1 0-10ZM861 191l1-1c2 0 4 2 5 3l-5 3-1-5ZM887 194l2-1-1 15c-3-4-3-10-1-14ZM841 195c10 11 12 26 13 40l1 43H749l5-5h95v-28c0-12 0-25-5-37l-5-8 2-5ZM1139 201l3-4c8 10 10 24 11 36v185c-1 13-3 27-11 38-6 8-16 13-25 15-17 4-34 3-51 3h-97c-12 0-25 0-37-3-7-1-14-4-20-9l1-6c11 10 27 12 42 13h133c13-1 26-1 37-7 9-3 15-10 18-19 5-14 5-29 5-43V241c0-10-1-20-4-30l-5-10ZM548 203c1-1 1-4 4-4l5 11 4 22v159l-1 32c-1 12-3 24-11 33-7 10-19 14-31 16-15 3-29 2-44 2h-95c-15 0-30 0-45-4-6-2-12-7-17-11-1-3 0-4 2-6 4 6 11 10 18 12 11 3 23 4 34 4h127c14-1 29-2 40-9 10-7 14-18 16-29 2-15 1-29 2-44V238l-2-20-6-15ZM253 204l4-4c5 7 9 14 10 23v37H162l4-5h96v-25l-2-12a36 36 0 0 0-7-14ZM862 203l3-1c1 4 0 7-1 11l-2-1v-9ZM629 230c1-5 1-10 4-14 1 4 3 9 0 13l-3-1-1 2Z"/><path d="M413 235c11-10 30-9 39 2l2 1c-2 2-3 3-6 2-4-6-13-7-20-6-5 0-10 3-13 7-5 6-6 14-6 21v140c0 2-2 3-3 4l-2-11V260c0-9 3-18 9-25ZM715 230c9-3 19-2 28 3l3 3-3 3-3-1c-9-6-24-6-31 3-5 5-6 13-6 20v115c0 9-1 18 1 27v3l-4 1a57 57 0 0 1-2-19V262c0-7 1-15 4-21 3-5 8-9 13-11ZM1002 240c8-14 30-15 41-4l2 1-4 3-2-1c-5-5-14-6-21-5-8 1-13 8-15 15-2 6-3 12-2 18v119c-1 6 0 13 2 19l-5 1-1-3-1-21V272c0-11 0-23 6-32ZM117 241c9-12 27-14 39-5l-4 3c-4-3-10-3-15-3-9 0-17 6-20 15-1 5-1 11 1 17l-5 2c-3-9-2-21 4-29Z"/><path d="M443 252c2 0 3-1 4-3 1 4 3 8 2 12v127c1 6 0 13-3 19-2 5-9 8-15 7-4 0-8-2-11-4-1-3-1-6 2-6l3 3c4 2 10 3 15 0 4-4 4-10 4-15V263a65 65 0 0 0-1-11ZM154 250l2 15-5 5-1-15c1-1 4-2 4-5ZM738 254l4-2 1 31-5 4v-33ZM878 252l4 2c1 2 1 4-1 5-1-2-3-4-3-7ZM1036 257c2 0 3-2 5-3v121c0 10 1 20-1 29-2 6-7 10-13 10-4 0-9 0-12-2s-2-5 0-7c5 6 14 5 19 0 2-5 2-11 2-17V257ZM716 259l1 1c1 2 0 5-2 7-1-3 0-5 1-8ZM865 262l5-2 1 2-6 3v-3ZM734 260l3 1v10c-2-2-5-4-5-7-1-2 1-3 2-4ZM131 268l5 3 14 6 92 39c7 3 14 8 20 13l-3 3-17-11c-32-13-63-25-94-39-6-2-12-4-18-9l1-5ZM719 275c3-1 7-4 9-1 1 1 3 4 1 5-4 4-10 5-14 8l-1-9c2-1 3-3 5-3ZM722 292l8-1c1 3 1 5-2 7-2 0-5 0-7-2l1-4ZM18 294l5-1 8 8c11 8 24 12 36 17l63 26c10 4 21 7 28 15l-4 3c-4-5-11-7-17-10l-49-19-44-19c-10-5-19-11-26-20ZM751 299l8-1c0 3-1 6-3 7l-14 7c-4 3-10 2-14 5l-12 6 1-3-1-2 1-2 9-1c4-2 6-5 10-6l11-5 3-4 1-1ZM1288 315c5-2 10-1 13 1 0 2-1 3-3 4-3 0-6-2-8 0-5 3-8 8-7 14v138h-91l5-6h81V331c0-7 4-14 10-16ZM1435 317c6-6 16-3 21 4l-4 3c-2-2-5-5-8-5-5-1-8 3-10 7l-7 27-31 119h-55l4-6h47l16-60 12-45 8-33c1-4 3-8 7-11ZM834 315h5c-1 2-4 2-6 2l1-2ZM1012 315c3 0 7-1 9 1l-3 3-6-2v-2ZM863 315l4 1 2 10h-3c-2-4-3-7-3-11Z"/><path d="m1298 330 32 124 7 22-4 6h-1l-38-146 4-6ZM1447 330l1 147-5 5V337l4-7ZM259 354c0-2 1-4 3-5 3 7 4 14 5 21v54c0 11-3 23-10 32l-14 12c-14 7-29 8-44 8H72c-15-1-32-3-44-12v-7c14 12 32 14 49 14h102c17-1 35 1 52-4 10-3 20-9 25-18 6-12 6-25 6-38v-31c0-9-1-18-3-26ZM719 354l3-3c2 1 1 3 2 4l-9 11c-2-4 1-9 4-12ZM738 352h127l-5 5H750l-7 1v35c0 4-1 9-3 13-4 10-19 12-26 4-2-2 0-4 2-6 3 6 11 7 16 4s6-10 6-15v-41ZM1012 358c5 2 11 2 17 5-6 2-12-1-17-2v-3Z"/><path d="m855 362-1 56c0 9-1 18-4 26-3 10-11 18-20 23-19 8-40 7-60 7H665c-11 0-22-1-33-4-8-2-16-6-22-13-2-1-1-4-2-6l2-1c3 4 7 8 12 11 11 6 24 7 37 8h130c12-1 25-1 36-6 9-3 17-11 20-20 6-14 4-30 4-44v-21l1-10 5-6ZM0 368h128l-6 5H5v54c0 11 3 23 10 32l-5 2c-6-8-9-18-10-28v-65ZM151 379l4-3c2 9 2 18 0 27-1 5-4 11-10 13-5 1-11 1-15-2-3-2-1-6 0-8 1 2 3 4 7 5 4 0 10 0 12-5 4-9 3-18 2-27ZM118 378v23c-1 3 1 6 2 9l-4 3c-4-9-4-19-4-29l6-6ZM576 407c3 1 3 4 2 6h-2v-6ZM866 428c5-4 11-4 16-7 2 4 2 9 0 13l-1-3c-4 4-10 4-15 6v-9ZM576 437c-1-5-1-11 4-14l-1 10c-1 3-4 5-4 8l-1-4h2ZM861 455l22-8 2 7c-8 4-17 7-26 9l-2 1c0-4 2-7 4-9ZM585 455h1l5-1v5h-6v-4ZM855 459l2-3c0 3-5 6-1 8l-7 2 6-7ZM583 467c2-2 5-1 7-2 2 1 4 0 5 2-1 3-4 3-6 3-2-1-6 0-6-3ZM1378 494l25-2h87c11 0 23 2 34 5l6 3-8 3c4 3 10 5 13 10 5 9 6 18 6 28s-1 20-5 30l-2-2-19 1c-5 0-9-2-14-1l-15-2c-21-2-42 1-63 2l-36 2c-11 1-22 3-32 9-4 3-7 7-8 12l-1 14v40l-6 6v-48c0-5-1-11 1-16 3-6 7-11 12-14 9-6 20-8 31-10l45-2 31-2 14-1c5 0 11-1 16-3 6-5 5-13 5-20l6-1c0-3-1-6-3-8-5-6-14-6-21-7h-50c-9 0-19-1-28 2-4 1-8 4-10 8-4 4-4 10-4 16h-40l-4 5h-1v-13c-1-10 0-21 7-29 7-9 19-13 31-15ZM184 498l17-1c10 0 20-1 30 1l5 3-2 2 1 2 4 1h-3v1l1 5h-10l-3 3-1-3c0-1-1-2-3-2l3-3h-30c-4 1-4 6-4 9h3l5 1 27 1c6 0 13 1 16 7h-3c2 6 2 12 1 18l-41 1h39l1 1c-5 4-11 3-17 4-11 0-23 1-34-1h-7c-3-4-3-9-3-14h16c-2 1-3 3-3 6h33l4-2v-5l-3-1 2-2c-2-2-5-2-8-2-7 1-15-1-22-1-6 1-11-2-17-2-2-5-2-11-1-17 0-4 3-7 6-10h1ZM825 502c3-4 8-4 13-5h27c7 1 15 0 19 6l-3 1 2 8c-4 1-9-1-13 2l-1-2-2-3 2-2h-28c-3 0-5 2-5 4l2 1-1 1-2 2 4 1c5 2 10 1 15 2 7-1 14 0 21 1 4 0 7 2 11 4-2 1-3 3-2 5 1 6 0 12-1 17-4 3-8 4-12 4h-32c-5 0-9-3-14-1-2-2-2-4-3-7v-7c5 0 11-2 16 1-3 0-3 3-3 5l3-1c7 2 13 0 20 1 5-1 9 1 14-2l-1-5-1-1 1-3-31-2h-11l5 1h-6c-3-1-4-4-5-7-1-6-1-13 2-19ZM8 498h17c-3 2-4 5-4 8l3 2h-3v11l3 1-2 1 2 2h-3c1 5 0 10 2 14l2-2 6 3c9 0 19 1 28-2l1-2 1-6v-30h16l-2 4v23l-1 8h4l-4 1 3 2h-3v1l-1 4c-1 4-5 7-10 7-8 1-17 2-26 1l-15-1c-3 0-7-3-10-1-2-2-3-6-3-9-2-13-1-27-1-40ZM365 498h29v1l-1 3 5 7v1l10 13v1l8 11h3l1 1h-3l3 6-11 1 16-1 11-1 1 8h-23l-3 3-22-33-5-6v-4l-5 1v20h3l-4 1 1 1v17h-10l-1-1-1 3h-2v-53Z"/><path d="M423 498h17c-2 2-3 5-3 8v18h3v1h-3v16c-6-1-11 2-16 0-1-2 1-3 2-3l1-18 2-2-3 1v-21ZM504 498h25l1 1c-1 1-2 3-1 4l15 29 1 1 1 4c-8 1-16-2-23 0h23l6 11h-11l-1 2-1 1-4-8 1-4h-37l-2 1-3 5-11 1h11l-2 2h-11l-5 4a360 360 0 0 1 15-30v-1l1-1 1-2 1-2c2 0 2-2 2-4l1-2 2-3 2-4 2-3v-1l1-1m9 11-11 19 1 5 2-2h24l-3-6-3-6v1l-5-10 2-2c-3 0-5-1-7 1ZM581 498h18v6l12 24v1l2 4 1 1 1 4a1069 1069 0 0 1-10 0h10l2 2 2-2h3l2-4 17-36h13c1-1 3 0 4 1-5 2-6 8-9 12l4 1h-4l-7 15-1 1-10 21h-20l-3 3-27-54m28 49h10-10ZM694 498h20v6c6 6 10 13 16 18l1-3 17-21h21l-1 1-7 4-23 27-1 1v13l-11-1 11 1v4l-10-1-1 2c-1 1-1 2-3 2v-19l-17-19a404 404 0 0 0-1 0l-10-12-1-3ZM929 498h59v1l-3 2v7h-36c-2 0-5-1-7 1v11l3-2h41v1l-3 2-1 7-2-1h-37l-1 3-12-1 12 1v10l1 1 2-2h42l-1 3 2 1h-3v6l-54-1-2 3v-53ZM1043 514l9-16h25l-1 4c4 9 10 17 13 26h-10 10l3 4-14 2h15l5 10h-16l2-5h-40l-11 1 10 1-3 7-10-1-5 4h17-18l18-35 4 1-4-1c1-2 3-2 5-2h-4m18-7v2c2 1 6 1 7-1l-7-1m-2 3-3 7a419 419 0 0 1 3 1l-4 1h-1v2c-2 3-5 7-5 12h3l1-2h23l-1-2-2-4-7-14-3-1h-4ZM1141 498h18v31l-2-4c-1 3-2 7-1 10 0 2-2 4 1 5l2-2h37l-2 3v8l-17-1h-5l-24 1-3-1-3 4-1-54m15 10v16h2v-25c-3 2-2 6-2 9ZM1243 507c7-2 15-1 22-2 7 1 15 0 22 2l3 2-2 2 3 6h-12l-2 2-1-2h-2l1-3h-23l-2 2-2 1 1 6 2-2 4 1c11 1 23-1 34 2l5 3-3 2 2 6v7l3-1v1c-5 0-6 5-10 6-13 2-26 2-39 0l-5 2-4-2c-3-3-4-7-4-11h17l1 3-15 1c5 1 10-1 15 2l1-2 17 1c3 0 6 0 8-2 3-2-1-6-4-6h-16 11c7 0 15-2 22-1-2-1-5-2-7-1-5 1-10-1-15-1-9 0-18 2-26-1l-4 2-4-5v-13c2-3 4-6 8-7ZM118 537h17l-3 5 1 6-13 1-2 3v-15ZM285 540l1-3h16l-3 4v8l-11-1-3 3v-11Z"/><path d="M1083 545h15l1 2 5 1-14 1-4 2-2-3-1-3ZM1224 572c12-3 24-2 35-2 13 0 27-1 40 3l1 1 3 2-3 2 5 6c3 5 3 11 3 16l-2-7h-18c-3-4-8-6-13-6h-33c-7 0-14 5-15 12l-2-2h-14c-2 1-1 3-2 5v22l1 8-3 2c-2-10-1-19-1-29 0-9 0-19 6-26 3-4 8-6 12-7ZM6 571h81l-3 3v14H27l-1 21-17-1v42l-3 3v-82ZM96 571h24l-4 5a1429 1429 0 0 1-1 15c-4 4-10 3-15 2v53c0 3-2 5-3 7h-1v-82ZM132 571h63c7 0 13-1 20 2l-3 3 7 4c3 5 3 10 4 15-6 0-11-1-16 1-1-5-5-9-10-9h-46v12l-2-6h-13l-1 36v19l-3 5v-82ZM237 572v-1h84l-3 4v11h-62v13l-3-3h-11c-2 0-1 3-1 4a3602 3602 0 0 0 0 48l-4 5v-11a361 361 0 0 0 0-43v-27ZM326 592v-21h90c-1 2-4 3-3 6v10h-34v13l-2-6h-13l-1-5v-2h-34l-3 5ZM421 571h85l-4 5v10h-61v11h-16v51l-4 5v-82ZM550 571h31l-2 5 10 19-16 1-7-14v-1l-10 19v-3l-14-1c-6 8-9 17-14 26l-11 23-8 7 2-5 2-4 3-6 1-1 8-16 25-49ZM627 571h36l-2 5 10 21h-15a214 214 0 0 0-11-18v21l-2-4h-13v50c1 3-2 5-3 7l-1-82h1ZM717 571h37c-2 2-5 4-5 7v18c-3-4-9-2-13-2l-2 3v-19l-11 21-2-3h-13l-14 28c-1 2-2 5-4 6l1-9 25-49 1-1ZM794 571h71l13 2 4 2-1 4 2 2c3 4 3 11 3 17-2-3-2-6-1-8-5 2-11-1-15 2l-2-2c-2-3-5-4-9-4h-46v13l-2-3-13-1c-2 8-1 15-1 23v28c1 3-1 5-3 7v-82ZM902 571h79l8 4-2 3 2 3c4 6 3 13 3 19l-2-8h-14l-2-1c-2-2-4-4-7-4h-46a312 312 0 0 0-1 9h-15v50c0 2-1 5-4 5l1-80ZM1041 571h31v1c-1 1-3 3-2 5l10 18h-16l2 7 10 20 2 3h-42c2-2 5-5 9-4h27l-12-24 1-7-5-9-8 17c-5-3-11-1-16-2l-13 25-12 25-8 7h-1l1-1 12-24 30-57ZM1092 571h26c-1 2-3 4-1 6l9 20h-16c4 11 10 21 15 32l4 7-2 4-35-69ZM1179 571h25c-3 3-7 4-8 8l-10 18-1-2-14-1-14 28-2 5-3-3 27-53Z"/><path d="m868 596 2 1c0 4-2 8-6 10h-50l4-4h42c3 0 6-1 6-4l2-3ZM204 597l3 2c0 4 0 9-3 13-2 2-6 3-9 3h-43l4-4h38c4 0 8-1 9-4v-1a53 53 0 0 0 1-9ZM571 601l3-4c4 9 8 19 14 28h-42c2-2 3-4 6-4h30l-4-6-1-4-6-10ZM973 597l4 1c0 4 0 9-2 13-3 3-7 4-11 4h-42l4-4h40c2 0 4 0 5-2 3-3 3-8 2-12ZM1287 601l3-3 1 12-1 17-4 7c-5 3-10 3-15 3h-30c-5-1-9-3-12-6l3-2c3 3 8 4 13 4h27c4 0 8 0 11-2 3-3 5-7 5-11l-1-19ZM658 601l15 29 10 19-1 3-2-1-24-44 2-6ZM731 604l3-3v44c0 3-2 5-3 8h-1v-5l1-44ZM261 603h57l-3 4h-57l3-4ZM445 603h57a340 340 0 0 0-3 4h-58l4-4ZM361 611l2-6v41l-1 4-2 3h-1v-43l2 1ZM27 609c2-1 3-3 5-3h52l-2 3H27ZM882 612l6 3-3 2-9-2 6-3ZM1391 619l21-1 105 1 32-1c-3 3-5 7-9 7h-155l6-6ZM210 623c2-1 5-2 7-1l3 1-2 3c-3-1-6-1-8-3ZM982 625l5-3 3 1 1 1 2 2-2 4c-2-3-6-5-9-5ZM869 626l2-3 1 5c0 3-1 5-3 6-4 4-9 3-14 3h-33l4-4h39c2-1 4-4 4-7ZM973 631c3 5 3 10 3 16h-4c1-5 0-9-1-13l-1 1 3-4ZM201 635l3-3c3 5 2 11 2 16l-3 5c-1-6 1-13-2-18ZM257 637l4-4h62l-3 4h-63ZM445 633h63v1c-2 1-3 3-6 3h-60l3-4ZM591 639l2-4 7 13-3 4-6-13ZM1083 634l6 13c1 2 0 4-1 5l-7-13 2-5Z"/></g><g fill="#01090d"><path d="M1240 81c20-5 38-17 54-31l2 2c-14 16-32 28-53 35-8 2-17 4-26 4h-28l-1-7c17 1 35 1 52-3ZM773 76c6-6 15-11 24-8h-1l-6 1h-2l-10 5-4 4-3 4-3 7-1 8c-2-7 2-15 6-21ZM323 85c8 7 17 13 27 17l6 3 2 6c-3 0-7-2-10-4l-20-11c-3-3-7-7-5-11ZM1112 114c26 2 53-3 74-20l1 3c-3 6-8 9-13 12-13 7-28 10-42 12h-21c-7 7-15 10-24 13-9 4-18 7-28 7-3 0-7-1-10 1l-6 8-26 11 5-8 2-2c8 0 15-2 21-7l6-10h12c13-2 25-6 36-11 4-2 8-4 10-8h1l2-1ZM674 98l1 2-5 9-1-7c2-2 1 2 2 3 2-2 3-5 3-7ZM359 113l11 9c7 5 16 8 24 10l10 1c0 4 4 6 7 8 9 6 20 7 31 9 7 1 14 0 22-1 4 3 9 6 15 6 14 2 28 0 41-4l14-5 8 2c16 4 33 1 47-8 10 9 21 16 34 18l-3 5-7-2c-8-3-15-7-21-12-2-2-5-1-7 0-6 4-14 6-21 7-10 2-20-1-29-3-5 0-9 2-13 4l-24 5c-9 1-18 1-26-2-3-1-5-4-9-3h-23c-10-2-20-4-28-9-3-2-6-5-7-8l-11-2c-9-2-19-5-27-11-4-4-8-8-8-14ZM867 131c3 3 1 7 0 11v-11ZM730 159c4 1 7 2 11 1l2 1c6 1 12 1 17 4 1 0 3 1 3 3-10-7-22-5-32-7l-1-2ZM845 164h11l-20 4-10 5v-2l2-1c5-3 11-4 17-6ZM746 182c3-1 7-3 10-2l-6 5h43c14 1 29 1 40 10-8-2-17-4-26-4h-57c-14-1-26 7-40 3l36-12ZM1182 181v301h102c-1 2 1 8-3 8h-103l-2-3V185l6-4ZM1390 182h6l-27 105c-3-2-3-7-4-10l7-25 11-44 7-26ZM321 198c11-11 27-12 42-13h136c11 1 23 1 33 6l-10-1-18-1H378l-14 1-20 4c-7 2-14 6-18 12-10 11-13 27-12 42 0 16-1 31 1 47v36l2 24c0 12 1 24 4 36 1 3 4 7 8 7h73l2-3a43 43 0 0 0 3 14c3 6 9 12 16 14 8 3 17 2 24-2 9-6 13-16 13-26V261l-2-13c4 2 5 7 6 11 2 4 2 8 2 12 2 14 0 28 1 42l1 20 2 26c-1 6 1 13 2 19 0 3 2 7 4 9 1 2 4 2 7 2h70l3-2c-1 15 0 29-2 44-2 11-6 22-16 29-11 7-26 8-40 9H371c-11 0-23-1-34-4-7-2-14-6-18-12-9-12-10-28-11-42V236c0-14 3-28 13-38ZM942 186c6-1 13-2 19-1h136c11 1 23 2 33 8-7 1-13-3-20-3l-25-1H970c-11 0-21 1-31 4-7 2-15 4-20 10-11 9-14 24-15 37v36c0 6 2 11 1 17l1 29c2 11-1 22 1 33l1 14 3 18c2 5 1 13 7 16h79l1 3c3 8 9 15 17 17 8 3 17 2 24-2 8-6 13-16 13-26V294l-1-41 4 5c2 6 1 13 2 19l1 50 1 24 1 13 4 27c1 4 1 9 5 11l11 1h65l3-3c0 14 0 29-5 43-3 9-9 16-18 19-11 6-24 6-37 7H955c-15-1-31-3-42-13l-2-3c-5-6-7-13-9-20-2-14-1-29-2-43V234c1-12 3-25 11-35 8-8 20-12 31-13ZM60 188c6-1 13-2 19-1h124c14 0 28 1 40 9-6 0-11-3-17-3l-39-1h-69c-17 1-34-1-51 1-14 2-28 7-37 18-7 7-9 17-9 27v40c0 5 2 9 1 14-5-7-6-16-6-24v-38c0-11 4-23 13-31 8-7 20-10 31-11Z"/><path d="M1197 187h129l1 4h-112c-4 1-8 1-11 4-2 3-2 6-2 9v104c2 9 1 19 2 28 0 18 2 36 5 54 1 3 3 8 8 8h54l6 1 1-3v70h-81V187ZM1411 187l96-1 33 1v5h-108c-5 0-10 0-13 4-5 4-5 10-7 16l-18 72-6 21c-2 4-6 6-10 7-6 0-10-3-13-7 4 0 9 0 12-3 5-2 6-7 7-12l27-103ZM616 208c0-6 5-10 10-12l6 7-3 7c-9 2-11 12-13 20l-4-3c-3 2-3 7-3 10-2 11-1 22-1 33v18l1 35 1 19c0 3 2 6 1 9-1 11 0 22 2 32 1 5 1 12 6 15 2 3 6 2 9 2h70l2 7c3 9 10 15 19 17 7 1 16 1 22-4 8-5 12-14 12-23l1-30h84l12 1-1 10h-77c-4-1-8 3-7 7 0 5 3 13 9 13h55l20 1c0 14 2 30-4 44-3 9-11 17-20 20-11 5-24 5-36 6H659c-13-1-26-2-37-8a33 33 0 0 1-14-15c-6-11-6-24-6-36V244c0-12 1-24 5-35 3 4 3 9 6 13l3-14ZM274 209c2 0 3 1 3 3 5 8 7 16 8 25v36l-2 6H165l-3-3 1-6h115v-41c0-7-2-14-4-20ZM569 215c2 6 4 12 4 19l1 48 1 2-4 1c0-24 2-47-2-70ZM422 248c3-5 10-5 15-4 3 1 5 5 6 8v1c-4 0-10-2-14 2-3 4-5 9-5 14l1 138-3-3-1-3c-2-6-1-11-1-17V261c0-4 0-9 2-13ZM718 246c3-4 10-3 14-1 3 2 4 5 5 7l1 5c-3-2-6-5-10-4-5 0-9 0-14 3v-6l4-4ZM1012 254c1-5 4-9 8-10s9-1 12 2l3 9 1 2v20c-5-4-4-11-6-17 0-1 0-4-2-5-5-1-11-2-16-1ZM129 250c3-5 11-6 16-2 3 1 4 4 5 7-6-2-11 3-13 8l-1 8-5-3-1-1c-4-5-4-12-1-17ZM753 250l3 5 2 18h-4l-1-23ZM882 263l3-1v24l-2 2v-5l1-2-5-5 3 2 2-2c-2-4-3-9-2-13Z"/><path d="M741 288h23l-7 7-3 2h-3l4-8h-6l-1 6-1 2-3 1c-2-3-3-6-3-10ZM768 288h83c4-1 8 0 12 1h-28l-5 2-8 4-3 1-3 2-1 8 3 1v3c-1 0-3 2-3 4-2-5-1-10-1-15l-21-1-8 2 3-3h-16c-3-1-6 2-9 4l2-4 3-9ZM572 300l5 8-3 7h12v7h-9l-4 4v75l-2 2v-29l1-74ZM1032 308c0-3 1-6 4-7v15c-2-1-2-3-2-5l-2-3ZM881 306l3-3v12l-3-9ZM725 326l23-11h23v7h-23c-7 1-14 6-21 8l-2-4ZM1026 316h10v72c0 6 0 12-2 17v-9c-2-3-5-5-8-5l-14-3v-7l15 3h8l-4-8c1-3 4-6 4-9 0-4 0-10-3-13h2l-1-27-7-4 1-1c1-2 0-4-1-6ZM814 321c3 0 6-2 9-4 1 11 11 19 22 17 3 0 6-3 8-5 3 4 7 9 12 11s11 1 15-3c3-4 2-10 3-15 2 4 1 8 2 11v87l-2-3-3 1 4-2v-65l-1-8-3 1-5 4-9-1c-5-2-9-5-13-9-3 2-6 4-10 4-7 0-14-4-17-11-1-2-2-5-5-5l-7 3v-8ZM35 322l13 5 87 35c5 2 11 5 13 10l-16-6-50-21c-11-5-23-9-34-15-5-2-10-4-13-8Z"/><path d="M1012 324c3 2 8 4 11 2l3-1c0 2 0 6-3 7-3 4-8 0-11-2v-6ZM1458 327c4 1 6 5 7 8 2 10 1 21 2 31 1 11 1 23 6 34 1 3 4 3 7 3h42l18-1v64l-81 1v-53l-1-87ZM713 332l2 1c1 6 4 13 2 19v-6h-3c0 4-1 8 1 12l-2 1v-27ZM1309 332c5 3 5 10 8 16l7 20 13 32c2 4 7 7 12 7l59-1-16 60h-47l-2-7-34-127Z"/><path d="m1293 345 1-9 38 146h72l25 1 5-5v-98l-2-5 8-29c1-3 1-7 3-9v145h99v6l-3 3-20-1 1 3 1 2-14-4c-6-2-13-1-19-2h-101c-6 1-11 0-16 2-11 1-23 5-30 15l6 3c-7 8-8 19-7 29v13h1l-2 1-5-4-1-4c-1-2-4-3-3-6v-21c1-9 6-18 13-24v-2h-16c-5-4-4-11-6-16l-26-99-1-4-1-27ZM273 345c1 1 2 1 2 3 4 6 6 12 8 19l1 11 1 56c-1 10-3 19-7 28-4 8-10 16-18 21l-13 7 2 11c-1 3-3 6-2 10l3 6c2 8 1 17-5 22v-17c-1-3-4-5-6-7l4-5c1-4 1-8-1-11-1-3-5-5-8-6l-27-1c-8 1-16 0-23 4l1-2-92 1-2 2-1 23c0 7-1 15-8 19l1-46-16 1-18-5c-6-2-13-5-17-10 11 3 22 6 34 7h118c11 0 22 1 33-1 12-1 23-4 33-10 6-3 11-8 15-13 6-7 10-17 11-26 2-11 2-21 2-32-1-15 0-30-2-45l-3-14ZM713 371c6-4 9-10 13-16 0 10-8 17-12 25l-1-9Z"/><path d="m163 366 3 2c5 4 8 9 10 15 2 5 3 12 6 17 1 2 4 3 6 3h73l1-23v31c0 13 0 26-6 38-5 9-15 15-25 18-17 5-35 3-52 4H77c-17 0-35-2-49-14l-2-1c-7-8-10-18-10-28v-45h79l17 1c0 10 0 20 4 29 8 15 31 18 42 6 6-6 9-14 9-22 0-10 0-21-4-31Z"/><path d="m128 378 9 1v32c-4-1-6-3-7-5l-1-3c-2-8-1-16-1-25ZM884 439c-2-4 2-7 2-10l3 14c-3 0-5-2-5-4ZM583 457l8-10 1 2 4 9-4 1 1-6-6 1-1 1h-1l-2 2Z"/><path d="m887 453 5-2a58 58 0 0 0 4 9c9 12 23 20 38 22l23 2h132c14-1 29-2 43-8 4-1 8-4 12-7-1 4-4 6-7 9-9 8-20 11-31 13l-12 1h-16l-2 3 1 2-3-4h-25l-16 29-11 21-2-3 21-41 2-4-2-2H926c-1-3-4-5-7-5-11-4-21-12-26-23l-3-3h-7c-10 5-21 8-32 11l-19 13 5 2h33c4-1 7 1 10 3l4 10c-2-3-4-6-7-7l-17-2c-10 0-20 0-30 2-3 0-6 3-8 6 0-4 4-8 4-12-7 1-13 3-20 3l-14 2h-45l-4 5-1-6h-17l-5 1 1 3 8 10c1 2 4 2 6 3l-5 6-16-21c-7-2-13 0-20-1l-27-1c-3 0-6 2-8 4v-3h-17c-1-4-5-4-8-4-11-3-21-9-29-17-1-2-4-1-5-2-2 3-4 5-7 6l-10 1-6 2-6-3c-5-1-12-3-17 1-5 5-12 7-18 11 0 2-1 5 1 8l11 21 11 22c1 2 0 4-1 5-10-16-18-34-27-51l-26 1-1-1h-55l-3 3-1 42c1 3-1 4-3 6v-51h-17v1h-2l-13-1c-3 1-2 5 0 6l13 19v13l-26-36-2-2h-27c-9-2-19-2-28-5-6-1-11-4-16-7-4-2-8-6-10-10 5 2 9 6 15 7 11 4 22 5 34 6h129l20-1c12-2 24-4 35-10 6-4 10-10 14-15l6 1 1 4-4 5 6 1c2 1 3 3 6 3l9-2h4c4 2 8-1 10-4l2-2c6 6 13 11 22 14 20 7 42 6 63 6h83c15-2 30 1 45-2 13-2 25-8 35-16l7-2 3-1c9-2 18-5 26-9l2-1ZM19 493c3-7 12-6 18-5l1 1 1 31c0 3 2 6 5 7 5 2 11 1 17 1l-1 6-22-1c-3 0-7-1-7-5l-1-35H19ZM1135 488l16 1 3 4h-17v48h-2v-53Z"/><path d="m587 489 14 1c3 2 4 7 6 10l13 26c0 2 3 3 4 3l-1 4h-3l-20-40h-12l-1-4ZM1240 496h33l2 1c3 2 8 4 10 7-5-2-11-3-17-3-10 0-21-1-31 2-6 2-8 9-8 15-4-3-3-9-2-14 1-3 3-5 6-6l7-2ZM1061 507l7 1c-1 2-5 2-7 1v-2ZM196 510h24c2 0 3 1 3 2v1h-17c-3 0-8 1-10-3ZM838 512c1-2 4-2 6-2l23-1 2 3v2l-24-1-7-1ZM1063 510l3 1 7 14v1h-18l3-5h11c-1-4-2-9-6-11ZM945 511h37l1 3h-38v-3ZM384 513l5 6-1 19-4 9v-34ZM1250 516l2-2c7 3 15 1 22 3h2c-3 2-6 1-9 1-5 0-10 1-15-1l4-1h-6ZM509 523l4-8-1 4c3 2 7 2 11 1v-1l3 6-18 1 1-3ZM1233 525l2 2 4 5h-10v3l-2-3c-1-2 0-3 1-5l2 1 3-3ZM829 527h11l-6 1-5-1ZM129 530l6-3 11 1v13l-2 2c-2 0-4 2-4 4v-15l-12 1 1-3ZM1159 529c5-1 11 1 17-1 5 2 11-1 15 3v2h-32v-4ZM1483 527c4 1 8 2 11 6l1 3c0 7 1 15-5 20l-6-4c-4 0-7 2-11 3l-10 1 11 3-14 1c-3-2-7-2-11-3-14 0-29 0-43 2-10 1-21 0-31 2-9 1-17 3-25 7-6 3-12 9-14 16l5 4c-2 5-1 11-1 16v48l-1 1-5-5-1-5-3-3v-46l1-14c3-8 9-14 16-18 8-4 18-5 27-6l10-1 18-1 17-1 18-1 16-1 14-1c5-1 11-2 14-7s0-11 2-16ZM294 532c1-1 0-3 2-3l12-1c3 2 1 6 2 8 0 3-1 5-3 8-2-4-1-8-2-11l-11-1ZM196 530l27 2 3 1-1 2h-26c-2 0-3-3-3-5ZM836 531h20l14 1 1 1-6 2h-26l-3-4ZM945 531h39l2 3h-41v-3ZM1247 535l11-1h16l-6 3h-19l-2-2ZM974 561c2 0 5-2 6 0 4 1 6 4 9 6l5 11 1 4-4-5-2-2-8-4-1-3c-6-2-13-1-19-1h-61l2 4-1 80-2-5v-62l1-20 2-3h72ZM1204 568c5-6 13-8 20-8h46c6-1 12 0 18 3 6 2 10 7 15 10l-3 1-1-1c-6-6-16-7-25-7h-41c-6 0-13 0-19 3l-8 7 6 3c-6 7-6 17-6 26 0 10-1 19 1 29a43 43 0 0 0 2 8c-3-2-5-5-6-8-2-3-1-7-3-10l-2-9v-32l7-12-4-4 3 1ZM145 561h74c2-1 4 0 6 1l2 1 5 3c2 2 2 6 5 6v27c-3 4-7 7-8 12l8 9v22l-5 4-5 6c-1-8 1-17-3-25l4-3v-3l-7-4 5-7c2-9 2-18 0-26l-3-6-1-1 4-4c-4-4-10-6-15-6l-70-1c0-2 3-4 4-5ZM336 561h85l3 3v2l-3 5v1c-1 6 1 13-4 18v-18l2-6-89 1-3 3-2-3-79-1v-2l3-3h78l7 2 2-2ZM430 562l77-1c2 0 4 1 4 3v17l-3 1-1-15-80-1v-2l3-2ZM555 563l3-2h26l13 23 28 56c1 2 1 4-1 6v7l-42-81v-6h-29l2-3ZM795 561l75 1 4 1c4 1 8 3 10 6l4 11-1-2-5-3-4-2-1-4c-11-3-22-2-33-2h-49v-6ZM1037 561h28c2 2 4 3 4 6h-32l4 4-30 57-12 24-3-4v-1c2-3 1-7 1-10 3-3 5-7 6-11l27-54 7-11ZM1172 561h16c3 0 6 0 9 2l1 3h-24l5 5-27 53-4 10c-1-6-5-11-7-16 4-2 5-6 7-9l16-33c3-5 4-10 8-15ZM18 566c0-2 3-3 5-5h74l4 6-4 4h-1v10l-2 2-1 3c-2 2-4 5-8 5H45c2-1 4-2 6-1h37l-1-19 6-5-50 1-25-1ZM108 563l4-2h17l4 4v6h-1l-1 1v69c0 2-2 4-4 4 0 3-3 6-6 7l-1-81 5-5h-17v-3ZM631 563l2-2h28l4 2 17 32 8 15 2 2 3-4 15-29 7-13-1 6-25 49-1 9-1 2-1-12-23-47c-2-2-2-4-2-6l-32-1v-3ZM717 564l3-3h32c1 2 3 4 1 5h-36v-2ZM1089 564l3-3c7 1 14-1 20 3l1 2h-22l-2-2Z"/><path d="M322 571c0-2 2-3 3-4v18l-2 5-1-19ZM257 586h61l-1 1-58 1-2-2ZM441 586h61v1h-61v-1ZM261 590h9l3 4 51-1 3 3v12c-4 3-4 8-8 11v-16c0-2 2-3 3-5l-57 1 3 2-4 2h-3v-13ZM445 590h7l1 2 54 1c2 4 1 8 1 12 1 3 0 7-3 9l-1-15h-57l3 1-4 3h-1v-13ZM30 591h13l1 3 2 2h48l2 2a1043 1043 0 0 1-2 19l-3-1-1-14H36l-5 4-1-15ZM156 592c4-1 9-2 13-1l-3 2 2 7c2 2 4 2 6 2l30-1-1 5-40 1-5 2-1 2h-1v-19ZM383 596l1-5h6c2 4-2 7 1 10l-1 4c-1 2 0 3 1 4l-1 3v32l-3 2-3 6v-13l-1-43ZM864 592l2 2v5c0 3-3 4-6 4h-42l-1-9h44l3-2m-41 7 1 2 11 1h11c4 2 8-1 13 0l-1-2-35-1ZM1279 592c4 1 6 4 8 7v2l1 19c0 4-2 8-5 11l-4-4-9 2-35-1c-3 0-4-2-4-5h26c5 1 10-1 14-1 4-2 6-5 7-9 1-7-1-14 1-21ZM971 593l1 1 1 3c1 4 1 9-2 12l-4-2-42-1v-5l36 1c5 0 9-4 10-9Z"/><path d="m86 606 4-4 1 18-6 4 1-18ZM926 611l-1-5 5 1 2 4h-6ZM195 607h8c-1 3-5 4-9 4l1-4ZM1391 619v-11c3 2 6 1 9 1h134l7 5h-14l-125 1c3 1 7 1 10 3l-21 1ZM82 609v14h-1l-48 1-7-2h56v-13ZM553 617l4-8c6 5 13 0 20 2l1 4 1 2h-26ZM1065 609l4 8h-19l2 3h-10l4-10c6 2 12 2 18 0l1-1ZM257 616h58l-1 1a11886 11886 0 0 0-57-1ZM441 616h58v1h-58v-1ZM261 620h11c-1 1-1 4 1 3l56 1 3 1v16l-4 5-4 5v-19l3-3h-48l-14-1c1 1 1 2 3 2l-1 3h-6v-13ZM445 633v-14l7 1c0 2 2 3 3 4h57l1 14 3-1-3 6-3 5-1-19h-44l-18-1 5 1-1 4h-6ZM817 621l4 3 38-1c2 1 5-1 7-2l2 3 1 2c0 3-2 6-4 7l-4-4h-44v-8ZM30 625h13v15c-1 3-4 4-6 5l-1 3-6 4v-27ZM156 632c4-1 8-2 12-1-3 2-1 6-1 9 0 2-2 3-3 4l-2 1c-1 3-3 5-6 7v-20ZM971 634c1 4 2 8 1 13v6c-3-5-3-12-3-17l2-2Z"/></g><g fill="#042636"><path d="m364 190 14-1h126l18 1 10 1c5 1 10 5 13 9h1l-19-5-17-3H374l-10 1c-9 2-18 2-26 7-4 2-9 5-12 10l-7 13c-3 13-2 27-2 40l1 34 1 24c1 8 0 17 2 25 1 5 1 10 5 13l77 1 1 5v30l-2 3h-73c-4 0-7-4-8-7-3-12-4-24-4-36l-2-24v-36c-2-16-1-31-1-47-1-15 2-31 12-42 4-6 11-10 18-12l20-4ZM939 193c10-3 20-4 31-4h115l25 1c7 0 13 4 20 3l6 5 1 2-16-5-20-3H959c-11 1-23 3-33 9-11 7-17 20-18 33v57l4 44 3 16c1 2 4 4 7 4h72l2-8v35l1 21h-79c-6-3-5-11-7-16l-3-18-1-14c-2-11 1-22-1-33l-1-29c1-6-1-11-1-17v-36c1-13 4-28 15-37 5-6 13-8 20-10ZM710 194c14 4 26-4 40-3h57c9 0 18 2 26 4l4 3 1 1-27-6h-59c-6 0-13 0-19 2l-22 7c-4 1-7 5-11 8-10 5-22 2-31 10s-18 19-24 30c-3 5-3 12-7 15-3 2-7-1-7-4v-16c4-1 6-6 7-10 7-11 16-20 27-27l8-4c7 0 14 0 20-2s11-7 17-8ZM1204 195c3-3 7-3 11-4h112l1 5h-110c-4 0-8 0-10 3s-2 7-2 11v49l1 24c-1 8 1 16 1 24l2 31c1 4 2 9 6 11h42c7 0 13 1 20-1v48l-1 3-6-1h-54c-5 0-7-5-8-8-3-18-5-36-5-54-1-9 0-19-2-28V204c0-3 0-6 2-9ZM67 193c17-2 34 0 51-1h69l39 1c6 0 11 3 17 3a34 34 0 0 1 13 11l-12-5c-9-4-19-5-29-6H83c-8 0-16 0-24 2-11 3-23 9-30 19-3 6-5 12-5 19a1607 1607 0 0 0 2 53l5 12a35 35 0 0 1-9-9c1-5-1-9-1-14v-40c0-10 2-20 9-27 9-11 23-16 37-18ZM1419 196c3-4 8-4 13-4h108v5l-111-1c-4 0-9 3-10 7l-12 46-9 36c-2 8-2 17-6 24-3 6-9 10-16 10-6 0-11-4-14-9-2-2-3-5-3-7l6 2c3 4 7 7 13 7 4-1 8-3 10-7l6-21 18-72c2-6 2-12 7-16Z"/><path d="M616 230c2-8 4-18 13-20l-4 9-2 1c-3 5-3 11-3 17l-3 2-3-1c-4 3-2 9-2 14v30l1 16 1 15v11c0-4 1-9-2-13l1 20v9l1-5 4 13c2 3 6 2 9 2h66c2 0 3-2 5-3v53h-70c-3 0-7 1-9-2-5-3-5-10-6-15-2-10-3-21-2-32 1-3-1-6-1-9l-1-19-1-35v-18c0-11-1-22 1-33 0-3 0-8 3-10l4 3ZM1047 239l7 6c6 9 8 20 8 31 2 11-1 22 1 33 1 11 0 22 3 33 1 4 3 8 7 8h70c2 1 3-2 5-3v53l-3 3h-65l-11-1c-4-2-4-7-5-11l-4-27-1-13-1-24-1-50c-1-6 0-13-2-19l-4-5-4-14ZM456 241c9 5 12 17 13 27-1 10 1 21 1 31l2 24c0 8 0 16 3 23 1 3 5 4 8 4h70l3-3v40l-3 2h-70c-3 0-6 0-7-2-2-2-4-6-4-9-1-6-3-13-2-19l-2-26-1-20c-1-14 1-28-1-42 0-4 0-8-2-12-1-4-2-9-6-11l-2-7ZM749 241c11 6 13 20 14 32h-5l-2-18-3-5-4-9ZM162 244c4 2 8 6 9 11h-5l-4-11ZM121 280a120854 120854 0 0 0 118 51 35 35 0 0 1 20 23c2 8 3 17 3 26l-1 23h-73c-2 0-5-1-6-3-3-5-4-12-6-17-2-6-5-11-10-15l-3-2-5-7c-7-8-18-11-28-15 4-1 8 1 11 2l21 3h74l7-2c-8-7-17-11-26-15-12-3-22-11-34-15l-19-8c-11-6-23-10-34-17-4-3-6-7-9-12ZM764 288h4l-3 9c-2-3-5-3-8-2l7-7ZM749 289h6l-4 8h2l-2 1-3-3 1-6ZM830 291l5-2h25v6l-30-1c-3 0-5 2-8 1l8-4ZM1456 322c4-1 7 2 9 4 5 5 6 12 7 19 0 4 3 8 7 8h46l15-1v50l-18 1h-42c-3 0-6 0-7-3-5-11-5-23-6-34-1-10 0-21-2-31-1-3-3-7-7-8l-2-5ZM1306 322c3 0 5 2 7 4 6 7 8 16 12 24 2 4 5 10 11 10h70c5 0 9-1 14 1l-12 45-59 1c-5 0-10-3-12-7l-13-32-7-20c-3-6-3-13-8-16l-3-10ZM765 385c-1-4 3-8 7-7h77v21l-20-1h-55c-6 0-9-8-9-13ZM573 401h2a376 376 0 0 0-2 3c-2 3-1 7-1 11a234 234 0 0 1-2 39l-3 2 1 7-1-4-6-1c10-17 11-36 10-55l2-2ZM497 510c0-1 0-3 2-3l-2 3ZM942 509c2-2 5-1 7-1h29c-5 3-11 1-16 1h-20ZM494 516c0-2 0-4 2-4 0 2 0 4-2 4ZM489 525c0-1 0-3 2-3 0 1 0 2-2 3ZM411 552l3-3h23v1l-6 1h9v1h-29ZM151 587h46c-2 1-3 2-5 1h-36c-2 1-3 0-5-1ZM329 587h34v1h-26c-2 0-5 1-8-1ZM921 587a2981 2981 0 0 1 5 1c-2 1-3 0-5-1Z"/></g><g fill="#084f69"><path d="m364 193 10-1h136l17 3 19 5 2 3 6 15c-4-5-8-10-13-13-10-6-22-7-33-7H371c-11 0-22 2-32 7-7 4-13 11-15 19-4 13-4 27-2 40 0 11-1 23 2 34 1 3 1 7 5 7l74-1 1 4v57l-1-5-77-1c-4-3-4-8-5-13-2-8-1-17-2-25l-1-24-1-34c0-13-1-27 2-40l7-13c3-5 8-8 12-10 8-5 17-5 26-7ZM926 201c10-6 22-8 33-9h142l20 3 16 5h1l1 1 5 10-10-7c-11-5-23-6-35-6H982c-13 0-27-1-39 3l-12 4c-5 3-9 8-12 13-3 6-5 13-5 20v18c-1 9 2 17 1 26-1 6 1 12 1 18 1 2 2 5 5 5h70l3-1c1-5 0-9 2-13v56l-2 8h-72c-3 0-6-2-7-4l-3-16-4-44v-57c1-13 7-26 18-33ZM733 195c6-2 13-2 19-2h59l27 6 1 1 5 8-12-7c-9-3-19-4-29-5h-61c-5 0-9 1-14 3l-18 7c-4 3-7 7-12 8l-18 4c-5 1-9 5-13 8-7 7-14 16-19 25-3 5-2 12-7 16-3 3-10 3-12-1-4-6-1-13-2-20l4-1v16c0 3 4 6 7 4 4-3 4-10 7-15 6-11 15-22 24-30s21-5 31-10c4-3 7-7 11-8l22-7ZM59 198c8-2 16-2 24-2h132c10 1 20 2 29 6l12 5 4 11c-6-8-16-13-25-16l-21-2H83c-13-1-27 1-39 8-10 6-16 17-15 28 0 14-1 29 1 42 1 5 3 9 6 12l5 1h72l5-1-3-16 6 6c3 5 5 9 9 12 11 7 23 11 34 17l19 8c12 4 22 12 34 15 9 4 18 8 26 15l-7 2h-74l-21-3c-3-1-7-3-11-2l-63-26c-12-5-25-9-36-17l-5-12-2-15v-38c0-7 2-13 5-19 7-10 19-16 30-19ZM1208 199c2-3 6-3 10-3h110l1 3-33-1h-81c-3 0-6 3-6 6v40c0 12 0 24 2 36 1 6 1 12 4 18h131l4-1 3-6v3l6 9c0 2 1 5 3 7 3 5 8 9 14 9 7 0 13-4 16-10 4-7 4-16 6-24l9-36 12-46c1-4 6-7 10-7l111 1v2h-110c-3 0-8 1-9 4l-9 36c-3 11-6 22-7 34l-2 14c0 3 2 7 5 6h126c2 1 4-1 6-2v61l-15 1h-46c-4 0-7-4-7-8-1-7-2-14-7-19-2-2-5-5-9-4v-1c-5-7-15-10-21-4-4 3-6 7-7 11l-8 33c-5-2-9-1-14-1h-70c-6 0-9-6-11-10-4-8-6-17-12-24-2-2-4-4-7-4a55 55 0 0 0-5-6c-3-2-8-3-13-1-6 2-10 9-10 16v17c-7 2-13 1-20 1h-42c-4-2-5-7-6-11l-2-31c0-8-2-16-1-24l-1-24v-49c0-4 0-8 2-11Z"/><path d="M743 233c7 1 14 7 18 14 5 7 6 16 7 25l-2 1h-3c-1-12-3-26-14-32l-3-5-3-3ZM1043 236c5 0 9 4 12 7 7 8 10 19 11 29 1 6 0 13 4 18l4 1h68c2 1 4-1 6-2v58c-2 1-3 4-5 3h-70c-4 0-6-4-7-8-3-11-2-22-3-33-2-11 1-22-1-33 0-11-2-22-8-31l-7-6-2-2-2-1ZM156 236c9 2 17 10 20 19h-5c-1-5-5-9-9-11l-6-8ZM452 237c8 1 13 9 17 15 5 11 3 25 6 37 1 3 1 6 4 8s7 1 11 1h60l6-3v52l-3 3h-70c-3 0-7-1-8-4-3-7-3-15-3-23l-2-24c0-10-2-21-1-31-1-10-4-22-13-27l-2-3-2-1ZM620 237c1 3-3 4-5 6l-1 10 2 31c1 4 1 10 5 14h71c3 1 4-2 6-4v53c-2 1-3 3-5 3h-66c-3 0-7 1-9-2l-4-13-1 5v-9l-1-20c3 4 2 9 2 13v-11l-1-15-1-16v-30c0-5-2-11 2-14l3 1 3-2ZM184 496c7-4 15-3 23-4l27 1c3 1 7 3 8 6 2 3 2 7 1 11l-4 5c2 2 5 4 6 7v17l-5 7v-2l-3-1 4-1c1-5 1-11-1-17-3-6-10-7-16-7l-27-1-5-1h-3c0-3 0-8 4-9h30l-3 3h-24c2 4 7 3 10 3h17v-1l1 3 3-3h10l2-4-3-1v-1h3l-4-1-1-2 2-2-5-3c-10-2-20-1-30-1l-17 1v-2ZM830 494c10-2 20-2 30-2l17 2c3 1 5 4 7 7l2 14h-7c4 1 6 4 7 8-4-2-7-4-11-4-7-1-14-2-21-1-5-1-10 0-15-2l-4-1a267 267 0 0 1 3-3l-2-1c0-2 2-4 5-4h28l-2 2-23 1c-2 0-5 0-6 2l7 1 24 1v-2l1 2c4-3 9-1 13-2l-2-8 3-1c-4-6-12-5-19-6h-27c-5 1-10 1-13 5-3 6-3 13-2 19-2-7-2-14-1-21 2-3 5-6 8-6ZM8 498c3-2 6-6 11-5h11l1 35c0 4 4 5 7 5l22 1-1 2c-9 3-19 2-28 2l-6-3v-9h-3l2-3-2-2 2-1-3-1v-11h3l-3-2c0-3 1-6 4-8H8Z"/><path d="m67 494 16-1-1 46c-3 5-8 8-13 11-7 3-14 3-21 3-10 0-20 0-29-2l-7-4c3-2 7 1 10 1l15 1c9 1 18 0 26-1 5 0 9-3 10-7h4v-4h-3v-1h3l-3-2 4-1-1-18c-3 3-1 7-2 10v-23 12h3v-17H64l3-3ZM368 493h27l2 2 26 36v-12l3-1-2 2-1 18-3-2-1-1-7-11h-4v-1h3l-8-13h-5v-2h3l-7-9v-1h-29l3-5ZM425 493h17v51c1 3-1 5-2 7v-8l-3-1 3-3v-11h-3v-3h3v-19h-3c0-3 1-6 3-8h-17l2-4v-1ZM505 494l26-1c9 17 17 35 27 51 2 3 0 5 0 8h-19v-1l1-1h17l-5-10-4-2 2-1-2-4h-3l-1-1h3l-17-33-1-1h-25l1-4ZM583 493h17l20 40h3l1-4 18-36h17v5l-2-1-16 1-17 36-3 1-2 1-5-2-1-1h3l-1-4h-4v-1h3l-9-18-6-12h-18l2-5ZM694 493c7 1 13-1 20 1l16 21 5-6 8-11 4-5h22v5h-21l-17 21c-3-2-4-6-8-7v-3a114 114 0 0 0-10-11h-19l1 3-1-8ZM926 493h60l2 5h-59v53l2-3 54 1 3 1v-7l-2-1 1-3h-34l-8-1v-4h41l3 5v13h-61l-2-10v-49ZM1049 493h25l3 4v1h-25l-9 16h4c-2 0-4 0-5 2l4 1-4-1-18 35-3-5 1-3 11-21 16-29ZM1137 493h17l5 5h-18l1 54 3-4 3 1 14 1 35 1v1h-56l-4-5v-54ZM761 503l7-4-9 12-3-1 2 1-16 19h-4l23-27ZM1237 503c10-3 21-2 31-2 6 0 12 1 17 3l2 3c-7-2-15-1-22-2-7 1-15 0-22 2-4 1-6 4-8 7v13l-2-2c-3-1-3-4-4-7 0-6 2-13 8-15Z"/><path d="M513 509c2-2 4-1 7-1l-2 2-3 1-2-2ZM978 508h7l3 1v2h-43v-1c6 0 12 1 17-1 5 0 11 2 16-1ZM379 510l5-1v38l-2 4v-19h-3l-1-1 4-1h-3v-1l3-1a492 492 0 0 0 0-11l-3-2 3-1-3-4ZM1252 514h23l-1 3c-7-2-15 0-22-3ZM945 514h38l3 4h-41v-4ZM1252 517c5 2 10 1 15 1 3 0 6 1 9-1l1 2 2-2 5 2 5 5c-11-3-23-1-34-2l-4-1 1-4ZM492 520l1-2-1 2ZM505 531l4-8-1 3 18-1 3 6h-24ZM178 525c6 0 11 3 17 2 7 0 15 2 22 1 3 0 6 0 8 2l-2 2-27-2c0 2 1 5 3 5h26l1-2v5l-4 2h-33c0-3 1-5 3-6h-16l5-5h2l-5-4ZM1073 525l2 4c-1 2-3 1-5 1h-17l2-4h18v-1ZM1156 535c-1-3 0-7 1-10l2 4v4h33l4 4v1a719 719 0 0 0-39 2c-3-1-1-3-1-5ZM840 527l31 2-1 3-14-1h-20l3 4h26l6-2 1 5c-5 3-9 1-14 2-7-1-13 1-20-1l-3 1c0-2 0-5 3-5-5-3-11-1-16-1v7l-2-12 8-1h6l6-1ZM943 527h37a171 171 0 0 1 6 2v1h-44l1-3ZM1239 532l4-2c8 3 17 1 26 1 5 0 10 2 15 1 2-1 5 0 7 1-7-1-15 1-22 1h-11l-11 1 2 2h-15c0 4 1 8 4 11-4-3-9-7-9-13v-3h10ZM124 533h4l12-1v15l-5 5h-17v-15 15l2-3 13-1-1-6 3-5h-15l4-4ZM289 532h5l11 1v14l-3 5h-18v-14l5-6m-4 8v11l3-3 11 1v-8l3-4h-16l-1 3ZM723 532v19c2 0 2-1 3-2h11l3 3h-17v-20Z"/><path d="M1274 534c3 0 7 4 4 6-2 2-5 2-8 2l-17-1-1 2c-5-3-10-1-15-2l15-1-1-3h17l6-3ZM497 540l2-1h37l-1 4h-36l-2-3ZM1044 539h40l-2 5h16l3-1 4 9h-18l-1-1 4-2 14-1-5-1-1-2h-15l1 3-3-5h-34c6-2 13-1 19-1l-18-1-4-2ZM737 541l3-1v4h-3v-3ZM237 545l2 2c-3 4-9 5-14 5l-27 1c-6-1-13-1-19-5h7c11 2 23 1 34 1 6-1 12 0 17-4ZM883 545l2 2c-3 5-10 5-16 6l-29-1c-5 0-11 0-15-4 5-2 9 1 14 1h32c4 0 8-1 12-4m-35 6h15v-1l-15 1ZM369 549h10l1 1c-4 0-8 1-11-1ZM476 552l5-4c5 1 10 0 14 3l-1 1h-19 1ZM608 552l3-3h20l2 3h-25Z"/></g><g fill="#0b7993"><path d="M728 199c5-2 9-3 14-3h61c10 1 20 2 29 5l12 7c5 12 5 25 5 37v28h-83l2-1c-1-9-2-18-7-25-4-7-11-13-18-14-9-5-19-6-28-3-5 2-10 6-13 11-3 6-4 14-4 21v32c-2 2-3 5-6 4h-71c-4-4-4-10-5-14l-2-31 1-10c2-2 6-3 5-6 0-6 0-12 3-17l2-1c-2 5-2 12-3 18-1 4 2 8 5 9 1 7-2 14 2 20 2 4 9 4 12 1 5-4 4-11 7-16 5-9 12-18 19-25 4-3 8-7 13-8l18-4c5-1 8-5 12-8l18-7ZM339 205c10-5 21-7 32-7h137c11 0 23 1 33 7 5 3 9 8 13 13l2 20v57l-6 3h-60c-4 0-8 1-11-1s-3-5-4-8c-3-12-1-26-6-37-4-6-9-14-17-15a29 29 0 0 0-39-2c-6 7-9 16-9 25v48l-1-4-74 1c-4 0-4-4-5-7-3-11-2-23-2-34-2-13-2-27 2-40 2-8 8-15 15-19ZM943 201c12-4 26-3 39-3h117c12 0 24 1 35 6l10 7c3 10 4 20 4 30v48c-2 1-4 3-6 2h-68l-4-1c-4-5-3-12-4-18-1-10-4-21-11-29-3-3-7-7-12-7-11-11-33-10-41 4-6 9-6 21-6 32v19c-2 4-1 8-2 13l-3 1h-70c-3 0-4-3-5-5 0-6-2-12-1-18 1-9-2-17-1-26v-18c0-7 2-14 5-20 3-5 7-10 12-13l12-4ZM1209 204c0-3 3-6 6-6h81l33 1 24 92-3 6-4 1h-131c-3-6-3-12-4-18-2-12-2-24-2-36v-40ZM1421 203c1-3 6-4 9-4h110v92c-2 1-4 3-6 2h-126c-3 1-5-3-5-6l2-14c1-12 4-23 7-34l9-36ZM44 208c12-7 26-9 39-8h131l21 2c9 3 19 8 25 16l2 12v25h-86c-3-9-11-17-20-19-12-9-30-7-39 5-6 8-7 20-4 29l2 4 3 16-5 1a15722 15722 0 0 0-77-1c-3-3-5-7-6-12-2-13-1-28-1-42-1-11 5-22 15-28ZM62 498l2-1h14v17h-3v-12l2-4H62ZM641 498l16-1 2 1c-1 5-5 9-6 14l-4-1c3-4 4-10 9-12-1-1-3-2-4-1h-13ZM599 498l6 12 9 18h-3l-12-24v-6ZM1077 498l3 5-2 1c2-1 3 0 3 1l12 22-2 2 2-1 3 5-4 1h-14l14-2-3-4h-10 10c-3-9-9-17-13-26l1-4ZM394 499l7 9h-3v1l-5-7 1-3ZM501 503c0-2 0-4 2-4v1l-2 3ZM529 503c-1-1 0-3 1-4l17 33h-3l-15-29ZM714 504v-6l9 11v3c4 1 5 5 8 7l-1 3c-6-5-10-12-16-18ZM985 501l3-2v10l-3-1v-7ZM1156 508c0-3-1-7 2-9v25h-2v-16ZM437 506h3v18h-3v-18ZM236 507l3 1-2 4-1-5ZM398 510h5l8 13h-3l-10-13ZM502 528l11-19 2 2-2 4-4 8-4 8-2 2-1-5ZM942 520v-11h20c-5 2-11 1-17 1v1a368 368 0 0 0 0 7l-3 2ZM1290 509c3 3 4 7 4 10h-10l-5-2h12l-3-6 2-2ZM379 529v-19l3 4-3 1 3 2-3 1 3 2v8l-3 1ZM1059 510h4l-3 7h-4l3-7ZM642 527l7-15 3 1c-2 5-5 9-6 14h-4ZM75 525c1-3-1-7 2-10l1 18h-4l1-8ZM1248 517l2-1h6l-4 1-1 4-2 2-1-6ZM983 521l3-2v10l-4-1 1-7ZM1054 519h5l-1 2a236 236 0 0 0-5 9h17c2 0 4 1 5-1l1 2h-23l-1 2h-3c0-5 3-9 5-12v-2ZM21 523h3l-2 3h3v9l-2 2c-2-4-1-9-2-14ZM408 524h4l7 11h-3l-8-11ZM884 528c-1-2 0-4 2-5 3 8 2 16-1 24l-2-2c1-5 2-11 1-17ZM237 525h3c2 6 2 12 1 17l-4 1 3 1a337 337 0 0 0-1 3l-2-2-1-1h-39l41-1c1-6 1-12-1-18ZM1294 527c1 3 3 6 1 9l-2-1-2-6 3-2ZM437 528h3v11l-3 3 3 1v8h-9l6-1v-1l-1-8-11 1-16 1 11-1-3-6h3l3 2c-1 0-3 1-2 3 5 2 10-1 16 0v-13ZM641 528h4l-12 24-2-3 10-21ZM611 529h4l1 4h-3l-2-4ZM930 529l12 1h3v8a231 231 0 0 0 0 1l-2 2-1-1v-10l-12-1ZM737 531l1-1 3 2-1 8-3 1v-10ZM379 532h3v19h-15l1-3 1 1c3 2 7 1 11 1l-1-1v-17ZM545 533h3l2 4-2 1 4 2 5 10h-17l1-2h11l-6-11h-23c7-2 15 1 23 0l-1-4ZM614 534l5 2 2-1 3-1-2 4h-3l-2 2-2-2h-10 10l-1-4ZM1093 534h3l5 9-3 1-5-10ZM74 537h3v4h-4l1-4ZM1196 537l1 1v13l-35-1-14-1 24-1h5l17 1v-8l2-3v-1ZM1033 540l11-1 4 2 18 1c-6 0-13-1-19 1l-5 8h-17l5-4 10 1 3-7-10-1ZM494 545l3-5 2 3-1 2-4 1h3l-2 5c-4-3-9-2-14-3h11l2-2h-11l11-1ZM726 543a42 42 0 0 1 14 1v8l-3-3h-11l1-2 10 1v-4l-11-1ZM985 543h3v7l-3-1v-6ZM1286 548c4-1 5-6 10-6-1 4-4 7-7 8-7 2-13 3-20 3-9-1-19 1-27-3l5-2c13 2 26 2 39 0ZM609 547h10-10ZM848 551l15-1v1h-15Z"/></g></svg>