<svg xmlns="http://www.w3.org/2000/svg" viewBox="0 0 900.67 279.42"><title>logo</title><path d="M267.39,18.33h-7.75a31.1,31.1,0,0,0-7.64.87,21.16,21.16,0,0,0-5.55,2.25,18.18,18.18,0,0,0-2.32,1.65c-.26-.2-.53-.41-.8-.59l-.08-.05-.07-.05a25.66,25.66,0,0,0-6.29-3,23.48,23.48,0,0,0-7-1.07,56.89,56.89,0,0,0-7.75.51v-.51H178.36v1c-.46-.13-.92-.24-1.39-.34a32,32,0,0,0-6.5-.62H140.74a30.21,30.21,0,0,0-7.7.9,20.79,20.79,0,0,0-5.58,2.32,17.82,17.82,0,0,0-1.58,1.09,16.82,16.82,0,0,0-2-1.36A21.71,21.71,0,0,0,117.52,19a32,32,0,0,0-6.5-.62H21.84a30.21,30.21,0,0,0-7.7.9,20.79,20.79,0,0,0-5.58,2.32,17.38,17.38,0,0,0-7.49,9.29A20.67,20.67,0,0,0,0,37.56V92.4H0c0,.14,0,.28,0,.42a20.59,20.59,0,0,0,.28,3.29H0v38.18H51.56a30.68,30.68,0,0,0,7.66-.88,20.53,20.53,0,0,0,5.56-2.28,17.2,17.2,0,0,0,7.54-9.22,20.38,20.38,0,0,0,1.08-6.71v-3.71h59.45v-.95c.47.13.94.24,1.41.34a31.84,31.84,0,0,0,6.48.61h111v-.92l.46.12a31.8,31.8,0,0,0,7.43.8H311.2V0H267.39V18.33Z"/><path d="M603.84,18.33H526.76a30.73,30.73,0,0,0-7.65,1,20.78,20.78,0,0,0-5.52,2.33c-.52.31-1,.67-1.52,1A18.37,18.37,0,0,0,510,21.28,21.92,21.92,0,0,0,503.67,19a31.44,31.44,0,0,0-6.51-.62H467.43a30.13,30.13,0,0,0-7.69.9,20.4,20.4,0,0,0-5.59,2.32,16.22,16.22,0,0,0-1.57,1.08,19.05,19.05,0,0,0-2.05-1.35A21.47,21.47,0,0,0,444.22,19a31.44,31.44,0,0,0-6.51-.62H430V0H386.15V22.94H370.51V18.33H326.7v4.61h-5.92V61.13h5.92V92.4a19.89,19.89,0,0,0,1.56,7.95,17.27,17.27,0,0,0,3.67,5.38,18,18,0,0,0,3.83,2.86,21.63,21.63,0,0,0,6.29,2.29,31.78,31.78,0,0,0,6.48.61h30.08a29.52,29.52,0,0,0,7.54-.89v.89h73.39v-.95c.47.13.94.24,1.41.34a31.84,31.84,0,0,0,6.48.61h29.73a30.79,30.79,0,0,0,7.66-.88l.23-.07v.95h43.81v-32H560v13a19.89,19.89,0,0,0,1.56,7.95,17.27,17.27,0,0,0,3.67,5.38,18.2,18.2,0,0,0,3.83,2.86,21.63,21.63,0,0,0,6.29,2.29,31.84,31.84,0,0,0,6.48.61h30.08a29.39,29.39,0,0,0,7.58-.9,20.09,20.09,0,0,0,5.51-2.33,17.12,17.12,0,0,0,3.7-3,17.34,17.34,0,0,0,3.65-6.2,20.69,20.69,0,0,0,1-6.63V22.94H603.84V18.33Z"/><path d="M899.12,29.59a17.32,17.32,0,0,0-3.64-5.4,18.49,18.49,0,0,0-3.82-2.91A21.92,21.92,0,0,0,885.34,19a31.44,31.44,0,0,0-6.51-.62H849.1a30.13,30.13,0,0,0-7.69.9,20.85,20.85,0,0,0-5.59,2.32,17.66,17.66,0,0,0-2,1.39H811.63V18.33H704.47v1c-.46-.12-.92-.24-1.38-.33a31.44,31.44,0,0,0-6.51-.62H666.85a30.13,30.13,0,0,0-7.69.9,20.4,20.4,0,0,0-5.59,2.32,17.62,17.62,0,0,0-3.75,3,17.41,17.41,0,0,0-3.74,6.26A20.67,20.67,0,0,0,645,37.56V61.13h.33a21.37,21.37,0,0,0-.33,3.7V92.4a20,20,0,0,0,1.56,7.95,17,17,0,0,0,3.68,5.37,17.62,17.62,0,0,0,3.82,2.87,21.87,21.87,0,0,0,6.3,2.29,32.4,32.4,0,0,0,6.47.61h51.56v-.95c.47.13,1,.24,1.42.34a32.5,32.5,0,0,0,6.48.61H756a31.27,31.27,0,0,0,7.66-.88,21.33,21.33,0,0,0,5.56-2.28,17.88,17.88,0,0,0,3.6-2.83c.07.07.13.15.21.22a17.62,17.62,0,0,0,3.82,2.87,21.92,21.92,0,0,0,6.29,2.29,32.57,32.57,0,0,0,6.48.61h30.08a29.39,29.39,0,0,0,7.58-.9,20,20,0,0,0,5.51-2.33,15.83,15.83,0,0,0,1.46-1,17.68,17.68,0,0,0,2.06,1.34,21.81,21.81,0,0,0,6.29,2.29,32.5,32.5,0,0,0,6.48.61h29.72a31.27,31.27,0,0,0,7.66-.88,21.19,21.19,0,0,0,5.56-2.28,17.46,17.46,0,0,0,3.76-3,17.08,17.08,0,0,0,3.77-6.22,20.18,20.18,0,0,0,1.09-6.71V37.56A20.39,20.39,0,0,0,899.12,29.59Z"/><path d="M63.61,115q0,9.09-11.83,9.09H10.22V105.87H39.8v-4.62H22.05q-12.12,0-11.83-9.09V37.33q0-9.24,11.83-9.24H63.61ZM39.8,46.42H34V83.07H39.8Z" style="fill:#fff"/><path d="M99.25,101.25V73.83H93.48v27.42H69.67V28.09h41.56q11.82,0,11.83,9.24v20.2q0,4.62-5.92,7.07,5.91,2.59,5.92,7.07v29.58Zm0-54.83H93.48v9.09h5.77Z" style="fill:#fff"/><path d="M141,101.25q-11.83,0-11.83-9.09V64.6q0-8.94,11.83-9.09H158.7V46.42h-5.77v4.47H129.12V37.33q0-9.24,11.83-9.24h29.73q11.82,0,11.83,9.24v63.92ZM158.7,73.83h-5.77v9.24h5.77Z" style="fill:#fff"/><path d="M218.15,101.25V46.42h-5.77v54.83H188.57V28.09h23.81v4.62q5.91-4.62,17.75-4.62a14,14,0,0,1,7.79,2.46c2.69,1.82,4,4.09,4,6.78v63.92Z" style="fill:#fff"/><path d="M259.85,101.25q-12.12,0-11.83-9.09V37.33q-.15-9.24,11.83-9.24H277.6V9.77h23.81v91.48ZM277.6,46.42h-5.77V83.07h5.77Z" style="fill:#fff"/><path d="M390.3,92.16q0,9.24-11.84,9.09H348.74q-11.83,0-11.84-9.09V50.89H331V32.71h5.92V28.09h23.81v4.62H390.3V50.89H360.72V83.07h5.91V55.51H390.3V92.16Z" style="fill:#fff"/><path d="M425.94,101.25V46.42h-5.77v54.83H396.36V9.77h23.81V28.09h17.75q11.82,0,11.83,9.24v63.92Z" style="fill:#fff"/><path d="M509.2,92.16q0,9.09-11.83,9.09H467.64q-11.83,0-11.83-9.09V37.33q0-9.24,11.83-9.24h29.73q11.83,0,11.83,9.24v36.5H479.62v9.24h5.77V78.45H509.2ZM485.39,46.42h-5.77v9.09h5.77Z" style="fill:#fff"/><path d="M539.07,69.22v32H515.26V37.33q0-9.09,11.83-9.24h32.76V46.42H539.07v4.47h20.78V69.22Z" style="fill:#fff"/><path d="M623.63,92.16q0,9.24-11.83,9.09H582.07q-11.84,0-11.83-9.09V50.89h-5.92V32.71h5.92V28.09h23.81v4.62h29.58V50.89H594.05V83.07H600V55.51h23.67V92.16Z" style="fill:#fff"/><path d="M667.06,101.25q-11.84,0-11.83-9.09V64.6q0-8.94,11.83-9.09h17.75V46.42H679v4.47H655.23V37.33q0-9.24,11.83-9.24h29.73q11.84,0,11.83,9.24v63.92Zm17.75-27.42H679v9.24h5.77Z" style="fill:#fff"/><path d="M768.07,92.16q0,9.09-11.83,9.09H726.51q-11.84,0-11.83-9.09V28.09h23.81v55h5.77v-55h23.81V92.16Z" style="fill:#fff"/><path d="M831.42,92.16q0,9.24-11.83,9.09H789.86q-11.83,0-11.83-9.09V50.89h-5.92V32.71H778V28.09h23.81v4.62h29.58V50.89H801.84V83.07h5.91V55.51h23.67Z" style="fill:#fff"/><path d="M890.87,92.16q0,9.09-11.83,9.09H849.31q-11.84,0-11.83-9.09V37.33q0-9.24,11.83-9.24H879q11.84,0,11.83,9.24ZM867.06,46.42h-5.77V83.07h5.77Z" style="fill:#fff"/><path d="M611.33,159.41l1.55-5.88c1.4-6.95,2.3-11.74,2.6-14.68,1-7.31-1-12.24-6-14.67a11.61,11.61,0,0,0-10.55.3,32.23,32.23,0,0,0-6.5,5l-1.31,1.29a14.16,14.16,0,0,0-4.28-9.32q-5.58-5.58-18.17-6l4.84-12.69c.31-1,.62-2,.94-3a9.93,9.93,0,0,0-1.12-6.14,11.47,11.47,0,0,0-4.94-4.06,10.21,10.21,0,0,0-7.3-.09,8.56,8.56,0,0,0-5.19,4.72L552.3,101q-4.62,8.24-9.78,16.84c-4.09.71-8.2,1.56-12.32,2.41l-5.31,1.42a8.56,8.56,0,0,0-5.74,4.18,9.18,9.18,0,0,0-.94,7,10.43,10.43,0,0,0,2.17,3.47,13.25,13.25,0,0,0-6.22.08,8.81,8.81,0,0,0,2.15-4.59l.13-.88a9,9,0,0,0-2.46-6.65,10,10,0,0,0-6.68-3.13c-3-.31-6.57.32-10.73,1.47a53.28,53.28,0,0,0-21.63,13.2,14.43,14.43,0,0,0-2.23,2,27.45,27.45,0,0,0-3.59,4.66,39.53,39.53,0,0,0-4.71,8.83c-2.91,7.46-2.42,13.51,1.34,18a15.24,15.24,0,0,0,5.16,3.64,17.45,17.45,0,0,0,10.53.89c4.11-.85,9.22-3,15-6.47l8.77-5.21c.25,5.57,2.37,9.33,6.51,11.32,4.46,2,8.88,1.23,13.71-2.2,3-2.21,7-6.22,11.77-12.2,0,6.26,2.17,10.64,6.73,13,6.43,3.69,13.68,1.08,21.88-7.65a8.63,8.63,0,0,0,3.79,3.28c3.66,2.06,7.5,1.91,11.33-.18,2.94-1.48,6.59-4.5,10.62-9l-5.49,22c-24.18,0-53.33,1.11-87,3.5-26.73,2-55.61,4.49-86.36,7.77-4.69.46-9.38.93-14.09,1.54l-32.88,3.69L353,198.65a9.56,9.56,0,0,0-6.43,3.48,8.87,8.87,0,0,0,2.29,12.9,9.87,9.87,0,0,0,7.19,1.86l13-1.56c10.87-1.3,22.07-2.69,33.71-3.87,30.44-3.33,58.7-6,85.12-8,5.64-.47,11.1-.81,16.72-1.13,28.8-1.94,54.59-3,76.75-3.29-1.66,6.61-3.24,12.63-4.9,18.2-4.4,16-7.93,28.48-10.75,37.44a9.68,9.68,0,0,0-3.77,2.7,8.61,8.61,0,0,0-1.92,4.18l-.07.44a52.35,52.35,0,0,0-.33,6.22c0,3.88,1.16,6.9,3.73,8.79a11.44,11.44,0,0,0,4.9,2.25,9.93,9.93,0,0,0,4.84-.44,10.41,10.41,0,0,0,6.24-5.3l1.9-4L585,257.89q4.2-13.23,10.37-36l.41-1.58,5.64-20.92,8.68.45c17.55.79,30.65,2.53,39.63,5.12,4.86,1.5,7.81,3,9,4.39l-.14.88-.62,2a9,9,0,0,0,1.11,6.14,10.23,10.23,0,0,0,12.42,4,8.52,8.52,0,0,0,5.22-4.87,19.09,19.09,0,0,0,1.43-10.22,17.81,17.81,0,0,0-4.15-9.16c-3.76-4.47-9.88-8.11-18.56-10.65-11.4-3.42-27.79-5.52-49.28-6.47l5.11-21.6Zm-211.85-8.17a21.73,21.73,0,0,0-2.19,5.93A75.45,75.45,0,0,1,385,162.72a39.86,39.86,0,0,1,8.11-10.23,13.43,13.43,0,0,0,6.4-1.25Zm-65.43-12.12L367.56,97.6A9.6,9.6,0,0,1,374,94.12,9.65,9.65,0,0,1,385,102a8.57,8.57,0,0,1-1.71,6.9L361.8,135.68c6.31-.67,12.14,2.78,12.12,9a85.21,85.21,0,0,1,7.35-7.37c3-2.67,6.59-5.54,10.48-7a12.51,12.51,0,0,1,6.58-.32,11.77,11.77,0,0,1,7.34,5l0,.15,1.39,3.35,2.57-3.18c6.95-7.88,13.94-11.87,21-11.51a15.56,15.56,0,0,1,12,6,14.21,14.21,0,0,1,2.65,10.56l0,.15a21.54,21.54,0,0,1-2,5.81,9.11,9.11,0,0,1,6.83,2.11,11,11,0,0,1,3.06,3.9,9.18,9.18,0,0,1,.54,4.72l-.09.58a8.86,8.86,0,0,1-2,3.72,61.11,61.11,0,0,1-17.11,13.76,45.91,45.91,0,0,1-10,4.12c-9.84,2.94-17.48,1.9-22.6-3.07-7.51,3.31-13.72,5.33-18.89,5.87s-9.49-.43-12.81-2.59a14.4,14.4,0,0,1-6.72-11.05,35.26,35.26,0,0,0-1.88,6l-.05.29-.07,2.53a8.63,8.63,0,0,1-2.33,4.71,9.33,9.33,0,0,1-5,2.65,10,10,0,0,1-11.81-6.91,15.53,15.53,0,0,1,.29-8,84.76,84.76,0,0,1,5.93-15.65l2.13-4.44c-13.65,17.13-21.9,27.2-25,30.6-5.78,6.42-11.36,8.54-16.93,6.48a10.87,10.87,0,0,1-5.49-4.59,11.86,11.86,0,0,1-1.76-7.14l-1.63-29.37a7.85,7.85,0,0,1,2.46-6.64,9.64,9.64,0,0,1,6.67-3,10,10,0,0,1,7.08,2.59,9.07,9.07,0,0,1,3.31,6.34l.59,11.59,14.16-17.36Zm167.88,3.27-6.63,3.75-8.62,5.23a34.86,34.86,0,0,1,12-9.49,20.45,20.45,0,0,1,2.56-1.09,26,26,0,0,1,5.45-1.24l-4.74,2.84Zm64,5-6.63-1.33c.83-3.31,1.93-7.32,3.32-12.18a46.85,46.85,0,0,1,7.95.05c-1.66,4.52-3.14,8.91-4.64,13.46Zm-38.26-7.75-1,1.34-1.48-1.72,2.49.38Z" style="fill:#231f20;fill-rule:evenodd"/><path d="M604,152.29l1.53-5.73c1.4-6.95,2.3-11.74,2.6-14.68,1-7.31-1-12.24-6.15-14.69a11.61,11.61,0,0,0-10.55.3,32,32,0,0,0-6.51,5l-1.31,1.29a14.11,14.11,0,0,0-4.28-9.32q-5.58-5.58-18.17-6L566,95.62l.94-3a9.9,9.9,0,0,0-1.13-6,11.51,11.51,0,0,0-4.94-4.06,10.24,10.24,0,0,0-7.31-.09,8.56,8.56,0,0,0-5.19,4.72l-3.58,6.61c-2.95,5.66-6.21,11.28-9.8,17-4.09.71-8.2,1.56-12.31,2.41l-5.32,1.42a8.58,8.58,0,0,0-5.74,4.18,9.18,9.18,0,0,0-.93,7,10.24,10.24,0,0,0,2.16,3.47,13.12,13.12,0,0,0-6.22.08,8.81,8.81,0,0,0,2.15-4.59l.14-.88a9,9,0,0,0-2.47-6.65,10,10,0,0,0-6.68-3.13c-3-.31-6.41.34-10.57,1.49a53.44,53.44,0,0,0-21.77,13,13.07,13.07,0,0,0-2.07,2.07,27.45,27.45,0,0,0-3.59,4.66,44.28,44.28,0,0,0-4.89,8.95c-2.91,7.46-2.42,13.5,1.5,18a14.89,14.89,0,0,0,5,3.61,17.53,17.53,0,0,0,10.53.89c4.27-.83,9.38-3,15-6.47l8.77-5.21c.25,5.57,2.37,9.33,6.52,11.32,4.45,2,8.88,1.23,13.71-2.2,3-2.21,7-6.22,11.92-12.18,0,6.27,2.16,10.64,6.58,13,6.43,3.69,13.68,1.08,21.88-7.65a8.56,8.56,0,0,0,3.78,3.28c3.66,2.06,7.5,1.91,11.33-.18,2.94-1.48,6.59-4.5,10.65-9.09l-5.51,22.13c-24.19,0-53.34,1.11-87,3.5-26.7,1.81-55.59,4.34-86.36,7.77-4.69.46-9.38.93-14.09,1.54l-32.88,3.69-12.82,1.59a9.56,9.56,0,0,0-6.43,3.48,8.87,8.87,0,0,0,2.29,12.9,9.92,9.92,0,0,0,7.19,1.86l13-1.56c10.86-1.3,22.06-2.69,33.7-3.87,30.44-3.33,58.86-5.92,85.27-7.94,5.49-.49,11-.83,16.58-1.15,29-2.06,54.6-3.15,76.75-3.29-1.65,6.46-3.22,12.49-4.9,18.2-4.41,16-7.93,28.47-10.74,37.3a9.45,9.45,0,0,0-3.76,2.7,8.69,8.69,0,0,0-2,4.32l-.07.44a52.35,52.35,0,0,0-.33,6.22c0,3.88,1.16,6.9,3.73,8.79a11.44,11.44,0,0,0,4.9,2.25,10,10,0,0,0,4.84-.44,10.41,10.41,0,0,0,6.24-5.3l1.9-4,3.9-11.79c2.78-8.67,6.24-20.68,10.36-35.86l.4-1.58,5.64-20.92,8.69.45c17.54.79,30.64,2.53,39.63,5.12,4.86,1.5,7.8,3,9,4.39l-.13.88-.63,2a9,9,0,0,0,1.13,6,10.25,10.25,0,0,0,12.43,4,8.32,8.32,0,0,0,5.37-4.84,18.6,18.6,0,0,0,1.41-10.08,17,17,0,0,0-4.31-9.18c-3.76-4.47-9.88-8.11-18.55-10.65-11.41-3.42-27.79-5.52-49.13-6.45L604,152.29Zm-212-8a28.39,28.39,0,0,0-2,6,76.54,76.54,0,0,1-12.48,5.52,37.12,37.12,0,0,1,8.27-10.21,12.11,12.11,0,0,0,6.25-1.27Zm-65.44-12.12,33.51-41.52a9.63,9.63,0,0,1,6.43-3.48,9.65,9.65,0,0,1,11,7.84,8.57,8.57,0,0,1-1.71,6.9l-21.52,26.82c6.31-.67,12.14,2.78,12.12,9.05a85.21,85.21,0,0,1,7.35-7.37,39.1,39.1,0,0,1,10.51-7.17,12.86,12.86,0,0,1,6.73-.3,11,11,0,0,1,7.16,5.14l0,.15,1.38,3.35,2.57-3.18c7-8,13.94-11.87,21.05-11.51a16,16,0,0,1,12,5.89,14.28,14.28,0,0,1,2.63,10.71l0,.15a21.31,21.31,0,0,1-2,5.81,9.09,9.09,0,0,1,6.84,2.11,11.1,11.1,0,0,1,3,3.9,9.18,9.18,0,0,1,.54,4.72l-.09.58a8.75,8.75,0,0,1-2,3.72,61.21,61.21,0,0,1-17.1,13.76,45.11,45.11,0,0,1-10,4c-9.85,3-17.49,1.91-22.6-3.07-7.36,3.34-13.57,5.36-18.92,6-5.18.54-9.48-.43-12.79-2.74a14.35,14.35,0,0,1-6.71-11,34.91,34.91,0,0,0-1.89,6l0,.29-.08,2.53a8.66,8.66,0,0,1-2.35,4.86,9.37,9.37,0,0,1-5,2.65,9.24,9.24,0,0,1-7.31-1.13,9.13,9.13,0,0,1-4.51-5.78,16.4,16.4,0,0,1,.31-8.16,84,84,0,0,1,5.92-15.51l2.12-4.45c-13.62,17-21.9,27.21-25,30.61-5.62,6.44-11.2,8.56-16.93,6.47a10.85,10.85,0,0,1-5.49-4.58,11.85,11.85,0,0,1-1.75-7.14l-1.64-29.37a7.85,7.85,0,0,1,2.46-6.64,9.64,9.64,0,0,1,6.67-3,10,10,0,0,1,7.08,2.59,9,9,0,0,1,3.31,6.34l.74,11.61,14-17.38Zm167.9,3.12L488,139l-8.79,5.35a37.46,37.46,0,0,1,12.15-9.61,11.81,11.81,0,0,1,2.41-1.12,26.56,26.56,0,0,1,5.44-1.24l-4.74,2.84Zm64,5.18-6.63-1.33c.83-3.31,1.93-7.32,3.32-12.18a47,47,0,0,1,8,0c-1.66,4.51-3.14,8.91-4.65,13.46Zm-38.26-7.75-1,1.34-1.48-1.72,2.49.38Z" style="fill:#dd9fbe;fill-rule:evenodd"/><path d="M432,132.7l0-.14a8.75,8.75,0,0,0-1.51-6.66l-.13-.17a10,10,0,0,0-7.41-3.54c-5.22-.21-10.65,3-16.44,9.54a61.51,61.51,0,0,0-7.39,10.65,37.46,37.46,0,0,0-4,11.17l0,.3c-8.17,4.4-14.77,7-19.53,7.86-2.62.49-4.37.51-5.24-.07-.57-.39-.77-1.17-.54-2.62.87-3.6,3-7.3,6.23-11.43a57.53,57.53,0,0,1,8-8.31,4.65,4.65,0,0,0,4.35.67c2.89-1.19,4.58-2.87,5.37-4.83a4.88,4.88,0,0,0-.59-4.42,4.55,4.55,0,0,0-3.46-2.33,6.1,6.1,0,0,0-3.53.19l-3.8,1.95c-1.07.73-2.54,2-4.37,3.5l-6,6.08c-5.19,5.76-8.47,11.52-10.11,16.94l0,.15a10.17,10.17,0,0,0,.14,5.24,9.54,9.54,0,0,0,3.76,5.51,17,17,0,0,0,9.3,1.6c5.34-.51,12.41-3,21.06-7.47l1,1.79c3.57,4.74,9.45,5.8,18.3,3.15a39.59,39.59,0,0,0,8.47-3.31A58.14,58.14,0,0,0,439.46,151l.94-1.94a3.63,3.63,0,0,0-1.36-3.5,4.65,4.65,0,0,0-3-.92,4.29,4.29,0,0,0-2.76,1.36,46.54,46.54,0,0,1-13.65,11,36.84,36.84,0,0,1-6.45,2.58l-.31,0a19.47,19.47,0,0,1-5.91,1.17,3.73,3.73,0,0,1-3.18-1.09,5.41,5.41,0,0,1-.57-1.43L416.7,150c9.37-6,14.41-11.8,15.27-17.34Zm209.09,51.49c10.43,2.52,17.39,5.84,21,10.28,3.36,4,4.08,8.55,1.84,13.73a3.48,3.48,0,0,1-2.07,2.06,4.63,4.63,0,0,1-3.2.1,4.3,4.3,0,0,1-2.21-2.13,3.62,3.62,0,0,1,0-2.85c1-2.52.88-4.64-.6-6.36-2.57-2.94-8.07-5.44-16.66-7.52-11.67-2.71-28.15-4.23-49.71-4.75l-7,26.68q-6.09,22.35-10.3,35.58l-3.86,11.49-2.33,4.72a4.57,4.57,0,0,1-4.4,1.7c-2.49-.39-3.79-2.23-3.76-5.51q.07-2,.42-5.76l0-.14a3.56,3.56,0,0,1,1.52-2.61,4.92,4.92,0,0,1,3-.73c4.28-13.22,10.4-35.11,18.47-65.51-24-.15-53.47.94-88.21,3.31-30.62,2.4-63.86,5.29-99.81,9.26l-32.88,3.69-12.66,1.61-2.91-.75a3.64,3.64,0,0,1-1.68-2.5,3.9,3.9,0,0,1,.76-2.86,3.54,3.54,0,0,1,2.61-1.39L359,195.42l32.88-3.7c36.11-3.94,69.57-7.25,100.14-9.36,35.85-2.33,66.11-3.45,91.07-3.3,4.14-16.38,7.09-28.16,8.71-35.53l2.19-11c-2.27,2.33-6.08,6.37-11.25,12q-7,7.88-10.7,10.43c-2.69,2-5.11,2.19-7.17,1.13a4.86,4.86,0,0,1-2.44-2.77,13,13,0,0,1-.05-4.79c.41-2.62,2.29-8.6,5.32-17.83l1.73-5c.33-1.14.31-2-.11-2.4-2.08-2-8.21-2.47-18.72-1.42l-.36,1.29c-3.18,10.25-5.21,18.15-6.11,24a47.43,47.43,0,0,0-.53,5.44,49.69,49.69,0,0,0,6.79-6.86,4,4,0,0,1,2.61-1.38,3.88,3.88,0,0,1,3,.92,4.1,4.1,0,0,1,1.5,2.62,3.65,3.65,0,0,1-.9,2.7,47.32,47.32,0,0,1-8.82,8.63c-3.36,2.16-6.14,2.63-8.62,1.2a6.71,6.71,0,0,1-3.32-4.25c-.57-2.48-.52-5.91.21-10.57a152.18,152.18,0,0,1,4.19-17.71c-4.2,6.51-9,12.93-14.19,19.59-5.11,6.22-8.94,10.4-11.81,12.49-2.72,2.12-5.34,2.61-7.58,1.66a5.39,5.39,0,0,1-2.94-3.59,15.92,15.92,0,0,1,0-6.12c.32-2,.86-4.5,1.65-7.51l-19.27,11.34c-11.71,6.69-19.37,7.88-23.27,3.24-2.54-3.08-2.64-7.57-.11-13.6a43,43,0,0,1,4-7.29,37.89,37.89,0,0,1,4.68-5.54c6.33-5.89,12.65-9.68,19.5-11.75a32.79,32.79,0,0,1,5.91-1.17l2.57-.2a5.07,5.07,0,0,1,2.82,1.33,4.47,4.47,0,0,1,1,2.85l0,.29a3.16,3.16,0,0,1-1.48,2.31,3.74,3.74,0,0,1-2.69.92l-1.93.15a13.61,13.61,0,0,0-4.62,1.07A41.16,41.16,0,0,0,477.31,138a36,36,0,0,0-5.64,7.63,22.57,22.57,0,0,0-2.51,6.92,3.63,3.63,0,0,0,.06,1.65c2.35.22,6.42-1.38,12.54-4.91l9.12-5.45,12.77-7.42a21.52,21.52,0,0,1,4.43-1.85,5.66,5.66,0,0,1,4.82.75c1.57,1.14,2.23,3,1.82,5.66l-.58,2.74-.25.56L512,151.57a84.79,84.79,0,0,0,7.58-8.83c4.39-5.73,8.83-11.76,13.34-18.23-4.45.95-8.23,1.71-11.54,2.54l-3.13-.34a3.49,3.49,0,0,1-1.88-2.23,3.81,3.81,0,0,1,.3-2.94,3.68,3.68,0,0,1,2.36-1.88l6.09-1.29c4.62-1.07,9.22-2,13.62-2.66,4-6.24,7.66-12.39,11-18.74l2.75-5.39,1-2.09a3.43,3.43,0,0,1,2.2-1.9,3.55,3.55,0,0,1,3,0,3.78,3.78,0,0,1,2.13,1.68,3.91,3.91,0,0,1,.41,2.45l-.11.73L558.66,99c-1.93,5.22-3.66,10.18-5.36,15,11.09-.66,18.21.59,22,4.16A8.88,8.88,0,0,1,577.7,126l-2.23,7.12-3.7,11.51,4.77-5.08c7.67-8.36,12.59-13.42,14.8-15.31a14.21,14.21,0,0,1,4.38-2.6l3.75.43a5.75,5.75,0,0,1,2.35,2.31,7.31,7.31,0,0,1,.77,4.29c-.1,2.68-1.12,8.19-2.92,16.72-1.58,7.07-4.33,18.59-8.31,33.94l7.29.24c17.88.69,32.11,2.31,42.41,4.66ZM423.92,130.26l.13,1.21a9.93,9.93,0,0,1-2.64,4.67,46.9,46.9,0,0,1-9.29,7.51l-6.69,4.19a55.18,55.18,0,0,1,7.29-11.11c4-4.45,7.29-6.93,9.82-6.84l1.38.37ZM353,135.8l-2.23,4.14-4.63,9.28a84.16,84.16,0,0,0-5.55,14.22,11,11,0,0,0-.29,5.92,3,3,0,0,0,1.68,2.5,3.88,3.88,0,0,0,3.11.49,3.58,3.58,0,0,0,2.52-1.85,3,3,0,0,0,.43-2.77c-.11-1.36.92-4.93,3.39-10.52a180.83,180.83,0,0,1,8.8-17.74,3.82,3.82,0,0,0,.3-2.94,3.74,3.74,0,0,0-2-2.26,5.09,5.09,0,0,0-3-.31A3.93,3.93,0,0,0,353,135.8Zm17.29-42.55a3.45,3.45,0,0,1,1.52,2.48,2.59,2.59,0,0,1-.74,2.72l-26.72,33.62-30.7,37.78a35.71,35.71,0,0,1-4.1,3.84c-2.43,1.26-4.4,1.7-6.36.95a5.54,5.54,0,0,1-2.92-2.69,8.76,8.76,0,0,1-.68-3.84l-1.75-29.69.14-.87a3.48,3.48,0,0,1,1.3-2.19,3.06,3.06,0,0,1,2.38-1,4.49,4.49,0,0,1,3,1.06,3.35,3.35,0,0,1,1.35,2.6l1.49,26.21c3.46-3.79,13.87-16.5,31.44-38.4l25.67-32a3.94,3.94,0,0,1,2.6-1.38l3.07.77Z" style="fill:#fff;fill-rule:evenodd"/></svg>