<svg xmlns="http://www.w3.org/2000/svg" width="2560" height="612" viewBox="0 0 1920 459"><g fill="#6a0710"><path d="M1837 4c2-1 3 0 2 2-2 0-2 0-2-2ZM1310 63l13-1-11 1-2 9v-9ZM1095 76l3-1-2 2-1 6 4-2-1-3 2 3 2-2v4c3 0 5-2 8-1l-1 2 3 1 2 1h-3l-2 3c1 1 2 3 4 3-2 1-3 2-5 1v2l-2-3 5 1-2-4h-2l-1-1 3-1c0-2-1-4-3-5 0 2-1 3-2 3l-2-1-1-2-5 1v8c0-5-2-10-1-15ZM1340 79l3-3c0 2 1 3 3 2l-6 1ZM1330 78c2-1 2 0 2 2-2 0-2-1-2-2ZM1832 82c1-2 2-4 4-4 0 2-3 3-4 5l-18 18c-3 3-5 7-9 9 3-5 8-10 13-14l14-14ZM1246 80c2 1 1 5-1 6-1-2 1-4 1-6ZM1126 81c2 1 1 3 1 5l2-2c1 2-1 3-3 4v-7ZM1782 91l7-9v2l-7 7ZM985 84c1 1 2 1 1 3-1-1-2-1-1-3ZM1137 87l3 3-3 3 1 3h-3l-1-3 2-2 1-4ZM1101 89c1 1 1 1 0 0ZM1147 90c3-2 4 3 4 5l-4-5ZM1128 94c3 1 4 3 4 6 0-2 1-4 2-2v9l-3-1c1-4-3-8-3-12ZM965 95c1 1 3 2 3 4h-3v-4ZM1149 97c4 0-1 3 0 0ZM1118 103c1 1 1 1 0 0ZM953 108l3-1c1 1-2 3-3 1ZM1729 108c2 0 2 0 2 2-2 0-3 0-2-2ZM425 119c1-2 3 1 1 2-1 0-2 2-3 1l2-3ZM1132 119h3c-2 1-1 4-3 4v-4ZM1148 120c3 0-2 3 0 0ZM1127 121c1 1 1 1 0 0ZM1132 124h3v6c-2-1-3-4-3-6ZM1133 131a253 253 0 0 0 1 2l1 2-3-1 1-3ZM1129 134c2 2 4 2 6 2l-14 1c3-1 7 1 8-3ZM1182 148c1 1 1 1 0 0ZM1155 154c4 0-1 3 0 0ZM1087 162c3-2 1 4 0 0ZM1827 167l5-5c0 2-3 3-5 5ZM1151 163v1c2 3 1 6 1 10l-1-11ZM1037 177l1 7c1 3 2 7 1 10l-2-17ZM1755 177c2-1 0 4 0 2v-2ZM1289 184c1 1 1 1 0 0ZM1278 188l1-2v1l1 1 3 2 2 1c1 1 2 3 3 2l3-4 2 4-3-1-1 4-1 3 2 2-3 8c2 4-3 5-5 8s-6 5-10 6c-7 2-13-6-12-12 1-3-1-5-3-7 2 1 3 3 5 1l2-10 3 1c1-3 3-5 3-8l3 1-2 2c3 1 4-2 7-3Z" opacity=".9"/><path d="m1286 189 3-3-2 5-1-2ZM1853 187c2-1 2 0 2 1-2 1-2 0-2-1ZM1663 224l4-2c0 2-2 3-3 4l-13 13 1 3-1-2-21 22 5-6 13-16 13-13c1-1 2-2 1-3h1ZM1157 244c2 0 2 3 1 4-2-1-2-3-1-4ZM1657 247c0-2 2-4 3-3s-2 3-3 3ZM1230 249c3-3 2 4-1 4-2-1-1-3 1-4ZM1734 269c0 4 1 7 3 11 0-3 3-4 5-5 0 2-3 7-6 5-2 0-1-3-1-4l-1-7ZM1846 274c3-4 8-4 12-3 6 1 10 6 13 11 4 8 5 19 0 27-1 3-1 7-3 9l-5 5-6-2c-5 0-6-6-8-8-5-4-6-10-8-15-1-8-2-18 5-24m6 0v3l-4 4-2-1 1 4-3 4c0 2 2 1 3 0l1 2-1 2 2 3-4 2 3 1 1 1 1-3v4l-2 3c2 0 3 1 4 3l2-4c-1 4 3 4 6 4l3-2-2 3 3 2 1-5c0-1 2-2 1-3h-3v-5c3 3 7 0 7-3l-3-1c2-2 0-5 3-6l-4-4c-1 2 1 4 1 6-4-1 0-8-4-9l-1 3c0-2 1-4-1-5l-1 5-2-1c3-1 1-3 0-4l-3 1c-1-2-1-4-3-4ZM1141 277c3-3 7-1 10-3l-2 3 1 3h2l-2 2 1 2c-3 4-6 8-12 9-4-1-6-6-4-9 1-3 2-6 6-7ZM1126 288c2-1 3 0 5 1 1 4-2 9-7 8-4-2-1-7 2-9ZM976 289c1 0 2 0 2 2-2 0-3 0-2-2ZM1506 296c1 1 1 1 0 0ZM1062 322c1-4 4-7 6-10v5c0 3 0 9-4 10-2-1-2-3-2-5ZM1547 318c1 1 1 1 0 0ZM1096 324c-1-3 2-5 4-5 0 2-1 6-4 5ZM1088 329c3-3 3 4 0 3-2 0-1-3 0-3ZM1187 334c0-2 2-5 5-5-1 3-3 5-5 5ZM1074 339c3-1 2 4 0 3-2 0-1-3 0-3ZM1155 350c-3-3 2-5 4-5 1 2-1 6-4 5ZM1221 356c1-2 4-4 7-4l-3 3 2 1h3l-4 4c2 1 2 3 1 4l4-2-4 3 2 2-4 3 1 3h2c-2 1-1 2-2 4s-4 4-7 4c-2-1-2-2-2-4h-7c-2-2-2-5-3-8s1-5 2-7l2-1c-2-2 0-5 2-6l-2 3c4 1 8 2 11 0l1-2h-2ZM1195 363c0-3 5-6 8-4 0 3-2 5-4 7-2 0-5-1-4-3ZM1741 372c5-3 9-8 15-11l-1 2-17 12c-4 4-8 10-15 11 0-3 3-5 5-7l13-7ZM1173 388c-2-3 2-5 5-5 1 3-2 6-5 5ZM1200 387c0-2 1-4 3-4 1 2-1 4-3 4ZM1151 391c1 0 3 2 1 2-1 1-2-1-1-2ZM1092 410c1-2 5 0 3 2l-5 6-7 7c-4 4-6 11-10 15-3 4-6 9-10 11-3 1-4-3-3-5 1-8 8-15 15-18 5-2 8-6 11-10l6-8ZM1131 412l4-3v4l6 2-1 2 5-1c0 2-1 2-2 3 0 3 3 3 5 2l-1 4c-3-1-5 1-7 4l3 3c1 0 3-1 4 1-3-1-7-2-10-1l1 3c-6-1-11 3-17 1-5 0-10-3-10-8l-1-2c2-1 2-5 3-7 2-1 2-3 2-5 3 2 5 0 6-3 4 2 7-2 10 1ZM1609 431h2l-15 13c-2 3-6 8-11 8 1-5 7-8 11-10l13-11ZM1551 459l30-25v2l-23 18-6 5h-1ZM1588 459c0-2 2-4 4-3 1 1-2 2-3 3h-1ZM1667 459l3-4 3 4h-6ZM1106 459l3-3c2 0 3 2 4 3h-7Z" opacity=".9"/></g><g fill="#e0ba6b"><path d="m1694 40 28-1c10-1 19-2 29 2 11 3 18 14 23 24 1 3 3 4 3 7l2 3-1 3 3 1-1 4h2v1l-2-1 2 14-1-3-7 7-4-1 6-7 2 2v-1l2-5-6 2c2-3 4-6 4-10l-4 1-1-3h2c1-4-1-6-3-9 0 2 0 4-2 5v-5l-5 2 1 5c-3-1-3-3-2-5l-4-3 1-3h6l3-5-3 1-5-2v3l-8 1h8c-1 3-6 2-9 2l-1 1-2 1-5-1c-1 7 1 14 5 20l2 3-4-1-2 3a2668 2668 0 0 1-2-3c-2-5-2-11-5-15l-1 1c-1-2-4-2-6-1-2 5-1 10 0 15l-1 2-4-2c3-4 3-10 3-15-3 1-3 4-4 6V69c-2 0-4 2-5 3l-1 1v10l-3-7c0-3 3-5 5-8l-8-1v4l-4 2c0 3 2 6 6 6l-2 2h-4l2-2h-7l1-3-5-2c2 3 4 6 4 10 3 3 8-1 11-2l-1 15-4 1 4-4v-9l-4 4v-3h-8l1 12-7-4h2v-6l3-2-3-3c0-3 1-7-2-8l3-2c0-3 0-5-2-7-1-2 0-4 2-5l-6-3c-2 3 0 7-3 8l1-6-3-2c-2 1-4 0-6-2v3l-3-2-1 2c2 2 4 6 1 8 0-5-3-8-6-12-3 3-7 4-11 3 0-2 2-2 3-3l1-1-3-1 3-3-4-4-1-4 5 2 2 5 1-1 4-3v3l12-1v-4l-3-1-1-1 12-1m32 10c1 3 3-2 0 0m-18 13c-1 2-1 5 1 6 1-2 3-3 3-5s-3-1-4-1ZM1634 45c2-2 4-2 6-1l10-1-3 2v3l2 1 1 2 2 2-2 1 3 2-1 3-2-1c-1 4 1 7-3 10l4 3-5-1c-2 2-7 1-8-1l6 1 1-2c-3-3-7-5-5-10 2 2 3 6 7 5 2-4-2-9-4-12 2-1 0-3-1-2v-1h-2l-1-3-1-1-3 3-5 3v-6l4 1Z"/><path d="M1620 46c1-2 3 0 5 0l4-2v7h3l-1 4-2-1 1 3c-3 0-2-2-2-4l-6 3h3c-2 3-2 8-5 11-1-2-3-2-5-2l3-3h-4c0 4 0 7 2 10-1-1-2-1-2-3l-1-22c1-2 5 0 7-1ZM1566 49c3-2 6-1 9-1 5 0 9-2 14-1v6c1 2 2 5 1 8l-3-3 1-2-4-2 3-1-5-2-4 2 1 2-6 3c-1 2-4 3-6 3-2-2-3-4-2-7-2 3-5 4-8 5h-1 4v1c-1 0-3 0-3 2v3h-1l-1 1 1 5 5 2c-1 5-3 8-3 13l-4 2 2-3-5-1-1 5c-2 0-4-1-4-3l1-5-2-2 3 2 4-1-3 3h3c2-2 2-5 0-7h-4l2-3-1-1 1-2-3-1-1-2-2 1v-2c0-2-3-4-3-1l1 1-2 2v1l-1-4h-3l-1-13 3-3c3 2 7 1 10 0h9c3 0 6-2 9 0m-14 9c2 0 3-2 3-3-1-1-3 2-3 3m6-3c1 1 1 1 0 0m9 0 3 3 2-3h-5m-20 9c2 0 3 2 5 3 1-3-3-4-5-5v2m10 13c1 1 1 1 0 0ZM1454 54h24c2 2 0 5 0 7 3 3 1 8 1 11l-2-2 1-1c1-1 0-3-2-2l-3-2v3l-2-1-4-3 2 3h-4l2-2-4-1 5 9 1-4c2-2 3 1 3 2h2l1 1c-2 0-4 1-5 3l-6 3-6-3-3-3-1 2-4 2 8 8c-2 0-5 0-7-2l2-2c-2-1-4-3-7-2v2l-1-1-2-2 4-3-3-4c0-1-3-3-3-1l1 2v3l-6 7c-3 3-6 4-8 8-1 3-2 7 0 11 1-2 1-4 3-5 1 3-1 6-3 9l-1 7V91c-2-1-1-3-1-5l-1-3 1-3v-7l4-1c1 1 5 1 4-2l-8-2c-1-4 3-3 5-2l2-3-1-2c2-1 4 0 4 3l3-1 1-4-4-1-4 1 3-3c2 0 6-1 8 1 3-3 7-2 11-3m-10 4v1l10-2-10 1m15-2c0 2 3 1 3 0h-3m7 1c-2 1 1 4 2 3 2-2-1-4-2-3m-12 2v2c1 0 2-1 0-2m-2 9c-1 0-2 3 0 3 1 0 2-3 0-3m-17 2c1 1 1 1 0 0Z"/><path d="M1578 59c1-2 3-4 6-5l2 3c-2 1-3 3-5 3l-2 2-1-3ZM1427 58c1-1 3-3 4-2-1 3-3 5-6 4v-3l2 1ZM1657 56c2 0 2 0 2 2-2 0-2 0-2-2ZM1341 61l66-4c4 0 1 4 1 7 2 2 0 4 2 6s-1 3-2 4l2 2 1 9 1 13-2-2 1-10-6 5c-7 0-13-4-16-10-2-3-1-7-2-10 2 1 4-2 1-2-3-1-3-5-6-7l3 5c-3 0-5 0-7 2l4-1c0 3 3 4 5 5l-3 6c1 2 1 5-1 7v3c-1 3-3 4-6 5l1 5-2-2c-3 3-7 2-11 1l8 6 7-1c-1-5 2-8 3-12l8-1-3 3c3 1 5 3 6 6l-3 2 1 7-6 6c-6 4-15 4-21-1h-6l6 8-44 2v7c-3-2-4 3-4 5 0 4 3 6 4 10l-14-5c-6-1-12-4-17-9l-2-5c3 2 5 3 8 3l2-3c-4-5-9-6-15-7-2 1-4-1-6-2-2 2-3 5-6 4l3-6h-4l-4 4-1-18-1-11c2-1 2-3 1-5-3-6-1-13-2-19l47-3v9l2-9 11-1 18-1c0 2-2 5 1 4l-1-4m53-1c-2 3 3 0 0 0m-7 2c-1 3 3 0 0 0m10 3c2 0 5 1 6-1-2-1-4 0-6 1m-28-1c0 2 0 2 2 2 0-2 0-2-2-2m24 1c0 3 3-1 0 0m13 1c1 1 1 1 0 0m-139 2c1 1 1 1 0 0m105 0c1 1 1 1 0 0m26 0c1 1 1 1 0 0m-32 1c0 2 0 2 2 2 0-2 0-2-2-2m-11 2c-1 3 5 2 5-1l-5 1m-4 1c0 4 3-1 0 0m20 0c1 3 3-1 0 0m31 10c2 2 5 3 8 3v-8c-3 0-4-3-4-5-2 3-4 6-4 10m-67-8c2 4 8-2 10 2v-2h3c-2-2-5-1-7-1l-6 1m-16 3c1 2 3 1 5 1 2-2 6 0 7-2l-12 1m21 2 6-1c-2 1-3 0-3-2l-3 3m-25-1c1 1 1 1 0 0m15 0c0 1 0 2 2 2 0-2 0-3-2-2m-20 1c1 1 1 1 0 0m56 0v4c2 0 5 0 6-2l-6-2m32 0c-2 0-1 4 1 2 1 0 1-2-1-2m-100 1c0 2 0 2 2 2 1-2 0-2-2-2m5 0c0 3 3-1 0 0m12 1c1 1 1 1 0 0m-26 1c0 2 0 2 2 2 1-2 0-2-2-2m67 6c-2 0-1 3-2 4l-2-1a491 491 0 0 1 2 5c0 5 2 10 4 15h4c-4-6-6-12-7-19l2-4h5v4l3 1 1-2 2 1c2-1 6-4 7 0 1 0 2-1 2-3-2 0-4 1-5-2-5 1-11-2-16 1m-25-1c-2 3 4 1 0 0m-49 13 2 1 4-6-6 5m6 1c2 0 4-2 4-4-2 0-3 3-4 4m14-2c-1 4 3 1 0 0m8 1c1 1 1 1 0 0m2 11c-1 2 2 3 3 2 1-2-2-2-3-2m-5 1c1 1 1 1 0 0ZM1625 58c2 0 2 0 2 2-2 0-2 0-2-2ZM1634 58h4c-3 2-3 5-5 8l-1 1-1-6h2l1-3ZM1428 61c2 0 2 1 2 2-2 1-3 0-2-2ZM1219 68l24-1h7l1 6v13a495 495 0 0 0 0 1l-3 3h4l2 39-36 2h-3l-7 1h-4v2l1 16c-2-2-4-4-4-7-1 1-3 3-2 5s4 1 5 2a135 135 0 0 0 1 3l1 14 3 47 1 29 1 12 1 15v2l2 33c-1 3-4 4-6 6-5 2-9 1-14 1l-1-2-3 2h-24l-5-1-2-6-2-34-1-19-1-19-1-15-1-14 1-2v-3c-2-3-1-7-2-10v-15c0-4 1-7-1-10l2-2-2-1-1-12 2-2 1 4c4-2-1-5-3-4l1-6 4 1v-5c-1-5-5-8-7-13l-2 1c3-1 1-2-1-3 0 3-4 1-5 0l-2 6 2-2 5 4 3 4c-4 2-8 1-13 2-2 0-4 0-6-2-1 4-5 2-8 3l-16 1-1-6v6c-2 0-4 1-5-1-2-10-1-19-2-29a166 166 0 0 1-1-25l5-1 1 2c-3 3 1 5 4 7l-2-6c1 0 2-1 2-3 2 1 3 3 3 5l-3 1 1 1h2l2 4-5-1-2 2 4 2-1 3c2 2 2 6 6 7l-1-4-4-7v-2c2 1 3 0 5-1-2 0-3-2-4-3l2-3h3l-2-1-3-1 1-2c-3-1-5 1-8 1v-4l-2 2-2-3 1 3-4 2 1-6 2-2 41-2 37-2 11-1c9-1 18 0 27-2l3 1c0 2 1 5 3 3l-1-4m13 2c-2 0-1 3 1 2 1 0 1-3-1-2m14 0c0 3 2-2 0 0m-36 1c0 2 0 2 2 2 1-2 0-3-2-2m-3 3c1 1 1 1 0 0m-15 2c0 3 3-1 0 0m4 4c-1 0-2 3 0 3s3-4 0-3m50 0c0 2-2 4-1 6 2-1 3-5 1-6m-120 1v7c2-1 4-2 3-4l-2 2c0-2 1-4-1-5m11 6-1 4-2 2 1 3h3l-1-3 3-3-3-3m-36 2c1 1 1 1 0 0m77 2 6 1 3 1 2 3c-2 2-6 3-8 3v1h14c1 2 2 2 2 0-1-4-6-2-8-4l3-1c-1-2-2-2-4-2l1-2-2-1-3 1-3-3-3 3m-31-1 4 5c0-2-1-7-4-5m26 3 6-3c-3-1-6 0-6 3m41-3-1 1c1 4 5-2 1-1m17 3c1 0 6 0 4-2-2 0-4 0-4 2m6-2c0 3 3-2 0 0m-39 1c-1 2 0 2 2 2 0-2 0-2-2-2m-4 3c2 1 3-2 1-2-2-1-3 2-1 2m-66-1c0 4 4 8 3 12l3 1v-9c-1-2-2 0-2 2 0-3-1-5-4-6m55 0c-1 0-2 3 0 3s4-4 0-3m32 0c0 3 3-2 0 0m-45 2c0 4 3-2 0 0m-21 1c-1 3 4 0 0 0m22 3c-1 0-1 3 1 2 1 0 1-3-1-2m13 2c-2 1-1 3 1 3s1-4-1-3m-66 1c1 1 1 1 0 0m-5 5c-2 1-1 3 1 3s1-4-1-3m2 6 2 3-2 1h3v-7l-3 3m69 0c0 2 1 2 3 2 0 2 2 3 4 3l1 2c2 0 3 1 4 3l1 1-1 4 2-1v3l4-5h5c-1-3-3-4-5-6l-3 1c-2-3-5-4-8-4l-7-3m36 3c0 2 2 4 4 3l-1-4-3 1m-88 2v4c2 0 1-3 3-4h-3m16 1c-2 3 3 0 0 0m-31 1c-1 1 0 4 2 3 1-1 0-5-2-3m10 0c1 1 1 1 0 0m5 3c0 2 1 5 3 6v-6h-3m-11 7c-1-2 1-6-2-7-1 3 0 5 2 7m88-6c-2 2 2 3 3 2 1-2-2-3-3-2m-76 6-1 3 3 1-1-2a582 582 0 0 1-1-2m67 0c-1 1 0 4 2 3 1-1 0-4-2-3m-79 2c-1 3 3 0 0 0m80 4c-1 1 0 4 2 3l-2-3m-19 11c1 1 1 1 0 0m-27 6c-1 3 4 0 0 0m48 6c-1 4 3 0 0 0m1 62c1 3 3-2 0 0m-47 22c-1 1-1 3 1 4 1-1 1-4-1-4m48 22c2 1 3-1 4-2-2-1-4 0-4 2ZM1543 76c0-3-1-6 1-8l2 2-2 2v10l-1-6ZM1659 69c2-1 4 2 3 3-2 1-3-2-3-3ZM1672 71c1-2 3-1 5-1-1 1-4 3-5 1ZM991 73h22c12 1 24 3 35 9l15 11 5 6 7 11c8 13 13 27 16 42 2 4 1 9 3 14s1 11 2 17l1 7c-1 3 1 6 1 9l1 22c-1 16-1 32-6 48v1c-2 9-5 17-9 25l-1-4h-2v-2l-1-2v-3l-6 2-1-3v3c-3-1-7 0-10-2l-2-1 3 3h6l5 13v6c-2-2-3-5-3-7 0-4-3-7-3-11h-2l-1 4-3-4-1 6c-2-2-1-5-2-8l-1-1-3-1 2 1c0 3 1 7-1 10v-6l-1 3-4 1-3 6 2 1 1-4v6l-6-2c3-4 0-8-3-10l-4 1v-3l-7 3c-2-2-2-5-3-8l-5 1c1-2 2-5 5-5l-2-4 2-6-3-1c4-4 7-9 9-14l5 1 1 2 2 1-5-7-3 2c3-7 4-14 5-21v-11c1-9-1-17-1-26 1-3 0-7-1-10l-1-7-3-9 5-2-5-1c-2-7-6-12-9-18-5-7-12-11-20-12h-1l-5 1c-4-1-7 1-11 2l-1 1c-4-1-8-1-10-4-7-6-9-15-9-24l6-2v1h-1c-1 4 4 5 4 1v3l3-1c3 0 6-3 7 1l1-1 1-2h-4c-1-3-5-1-8-2v-3l-2-2-1-4c-3 2-1 6-1 8l-6 2-2 4v-4l-2 2a539 539 0 0 1-6-2l-9 1-11-1 1 6 3 1 3-1v-1l1-3h6c1 8 0 16-5 23s-17 9-24 3c-3-2-4-5-5-8l5-13c3 0 4 4 5 6l1 5c6 3 12-1 14-6h-3l-1 3-6-4-2 2 1-4c1-2-2-3-3-1-2 0-4-2-5-4 3-4 5-9 9-13 4 1 8 1 11-1l-1-3-5-1v5c-2 0-2-2-3-3l12-11c5-3 11-7 17-8l1 4-1-4 12-3c3-2 8-2 12-2l-4 2-4 6c2-1 5-2 6-4h6l1 2v-4l-1-1h-1l-3-1 4-1m11 1v2a913 913 0 0 1 0-2m-29 3v17c-2 0-3 0-5 2l2 2 3-1h1l1-1 3 3 14-2-7-1h-1l-10-2 1-4c1-2-2-3 0-5 1-1-1-2-1-4 0-1 1-4-1-4m12 7c-1 2 0 2 1 3 1-2 0-2-1-3m5 0c1 1 1 1 0 0m-13 5-2 1v1l8-1v-4l-6 3m42-1c-1-1-4 0-3 2l3 1-2 2 3 1 1-3 6-2-3-3c-1 2-3 2-5 2m10 3 7-1c2 0 4 0 4-2-3-1-6 0-9-2-2 1-3 3-2 5m20-4c-1 1 0 4 2 3s0-4-2-3m-2 3c1 1 1 1 0 0m-35 3c-1 3 3 0 0 0m-8 2h2c-1-2-2-2-2 0m-39 0v4h3c0-2-2-3-3-4m-21 2v3l2-2h6c3 2 7 2 11 2v-3l-7 1v-2l-12 1m54 7 1 8 2 3c0-7-2-13-1-19l-2 8m-21-3 1 4 6-1-1-2-6-1m-24 3v4c-2-1-3-2-2-4l-1 2h-6v-2c-5-1-10 2-15 1v3l1-2c3-1 8-2 7 2 4 0 9-2 12 0h4c1 2 4 0 3-1v-4l-3 1m41 3c2 3 0 6-2 8h-3l1 6-3-3c-1 1-3 4-5 1 0-1-1-2-3-1 1 2 0 7 3 6 3 2 7 2 10 0v-6c2-3 4-7 4-11h-2m-58 4c0 3-4 2-6 2v3l3 1c0-3 1-2 3-2v-4m-10 2c-1 1 1 3 2 3l-2-3m47 5c0 4 3-1 0 0m25 1v2-2m10 5-3-1c0 2 0 3 2 3l-1 4-2 1h2l7-6-2-3-2 2v-2l-1 2m25-2c1 3 3-2 0 0m-9 7c-1 0-2 3 0 3s2-3 0-3m-84 1c1 1 1 1 0 0m47 1c0 2 0 2 2 2 1-2 0-3-2-2m85 19c0 1 0 2 2 1 0-1 0-2-2-1m15 12c1 4 3-2 0 0m-43 35 8 10-1 3c3 1 6 1 9-1v-2c-1 1-1 3-3 2l-6-6c-2-2-4-5-7-6m43 66c0 3 3-1 0 0ZM1536 79c1-2-1-5 1-7l1 12c-2-1-1-3-2-5ZM1616 74v2-2ZM1752 74c1-1 3 0 4 1-1 2-5 1-4-1ZM1472 80c2 0 2 0 2 2-2 0-2 0-2-2ZM1680 86l3-2 1 2-1 2-3-2ZM1691 85l2-1 2 4-6 3c2 1 4 1 3 3-3 1-4-1-6-3 3-1 6-3 5-6ZM1645 88l2 3c-1 2 0 6-2 8V88ZM826 91h6l-1 5c-3 0-4-3-5-5ZM842 90c5-1 10 1 15 3-2 0-3 1-3 2l-3 12c4 2 7-3 8-6 1 6-3 11-7 14-5 3-9 8-11 13-1 2 0 6 3 5 3 0 3-4 5-5 1 6-5 9-9 12-6 5-13 4-19 8l1-2-3-2-1-3 4 1-2-5-2 1 16-16c8-9 14-20 17-31l-9-1ZM1539 90c2 0 1 3 1 4-2 0-1-3-1-4ZM1732 96c1-4 4-5 7-5l1 2-4 1c-1 0-2 1-2 3l-4 1v-3l2 1ZM788 93l16-1 18-1 2 9-7-2-4 5 3 3-5-2 1 3-5 4-3-2-10 8 3 4-5-2 1 3c-2 0-2-3-3-5l-5 2-1 1v-3l4-4 3 1c2-3 5-6 9-8l-1-3 3 2c1-3 4-8 7-6l2-3-3-1-2-2-16 1-2-1m25 4c-1 0-2 3 0 3 1 0 2-3 0-3m-20 17 8-6c-3 1-6 3-8 6ZM1459 92c1 2 2 5 4 6 1 0 3 1 4-1l-1-5c2 0 2 2 2 4h2c-1 3-6 3-9 4-3-2-3-5-2-8Z"/><path d="m742 96 26-2h18l-4 7 8-5 1 11-7-4-5 1-6 4-1-11c3 1 5 4 8 4-1-3-3-7-7-6-5 3-6 9-5 14l-1-8h-6c1 3 2 5 1 7-2-4-3-9-7-12-4-1-7 4-7 7l7-5 1 11-9-5v3l-1-2-7 5-1-11c3 2 5 4 8 4l-5-6h-13l14-1ZM1651 95c1 1 1 1 0 0ZM1436 103c1-3 3-6 6-6s7 0 10 2h-11l2 5h2l-1 3-5-2 2 5c-1 2-2 2-3 2l-4 4-2-3c1 0 3 0 3-2h-4c0 5 0 10 2 14l4-1h1v2h-9l3-3-4-2-1-10 2 7 1-8c2-2 6-1 8-1l-2-6ZM1676 97l3 1-1 4-2-1-1 2c-1-2 0-4 1-6ZM863 101l6 6 3-2c3 4 6 9 7 14-6-5-15-9-16-18ZM589 105l30-2-2 3 3 4 1-3c1 0 4 0 4 2v2l-2-1 2 6-1 6c2-3 2-5 5-7 0 4-4 7-3 11 3 2 6 2 9 2l-2 3-8-4h-4v2h-2l-1-5-3 1 2 2c1 3 4 4 7 6h-4v3l2-2 3 5h-4l3 5h-3l-3 4 4 3-10 9v-8l4 1v-4l-2 1v-5l2-4-7-5 2-2c3-4-1-7-2-10l3-3-5 1-1-3-2 2v5c-2-1-4-1-6 1l-7 2h6l3 3-17-2 4-3 1-3c2-1 2 2 3 3 1-1 5 0 5-3l-7-1 1-1c3-2 7-2 11-3l1-1c-4 1-9-1-13-1-2 0-6-2-6 1h6v3l-7-1 1 8-3 1 4-19 2-2 2 4h-4v2l11-2v-3h-8c1-2 4-2 6-2l-4-2ZM1666 107c3-1 7-5 10-3l-5 1 1 18c-1 1-2 2-1 4l-2-1 2-9-1-7-4-3ZM633 105l3 1 1-1 1 6-7-1-1-1h5c-2-1-2-2-2-4ZM415 108l24-3 7 1-3 12-4-5c-2-2-4-5-7-6 0 5 3 9 4 14l-7-2-4 5c1 1 3 2 3 4l-5-2 1 2-5 5-3-2-10 8 4 4-5-2v3l-4 4-3-1c-3 4-7 6-12 9l1 9h-5l-2 1v-3h4v-4h-4l1-7-2 1-2-1h-2c0-4 0-7-2-11l1-5-3-2-3 3c3-6 9-10 13-15-1 4-1 8 1 12-3 1-3 4-1 7-1 4-2 7-1 10l3-4-1-2c3 0 3-4 6-6l2-5c-2-3 2-6 3-9l-8 5c0-3 0-7-2-10l3-1 6 4c0-2-2-4-3-5l5-4 4 1-4 8c3-1 5-5 8-5v11l-7-4c0 3 3 4 4 7h-4l-2 8 3 2v-3l4-4 3 1c2-4 5-6 9-8l-1-4 3 2 5-6 3 1 1-4c-1 0-4 0-4-2 4-2 8-4 10-8-4-1-8 1-13 3l-1-2m10 11-2 3c1 1 2-1 3-1 2-1 0-4-1-2m-19 17 5-5c-2 0-4 2-5 5m-14-2-2 5c2 0 4-4 2-5m-2 8c1 0 3 0 4 2h-3c0 4-3 5-5 8l-2 1 2-5c-3 1-3 4-4 6 2 0 4 0 5-2l8-8-3-4-2 2m4 6c1 1 1 1 0 0ZM1625 108c2 0 2 0 2 2l-2-2ZM477 110l6 3 1 3c4 7 7 13 12 19l11 10c-4 0-6-3-8-6l-1 4-4-2c1 4 5 7 4 11-1-6-5-11-10-14s-12-7-12-14c2 1 3 5 6 4 3 0 2-3 1-5l-6-13ZM954 111l5 2h4c2 2 1 5 3 6 2 10 5 20 15 24l-7 10-3-2-1 8v4l-4 8c-2 4-2 8-2 13l-3-8-5-10c-2-4-3-9-3-14-3 1-7 2-10 1l-5-7c4-1 8-3 10-7 6-8 6-19 6-28m5 6c1 1 1 1 0 0m-1 19 1 5-5 1 1 2-1 2 2 2 5-3-1 5h3l-1-5 5 2 1-6-4-1v-4h-6ZM1641 112c2-3 6 0 8-1 1 3-3 3-5 4l-3-3ZM1655 115l3-3c0 3-3 4-5 6l1 1h-3v-5l4 1ZM463 113l4 2-2 5-1 2-1 3 1 5v-3l1 2c3 0 5-3 6-5l-1 5c-2 5-7 7-8 12l-2-1c-3 3-6 6-7 10 0 2-1 4 1 4 1 3 4 0 5-1l1 2-1 1-1 1-9 7c-7-3-16-2-24 0l13-12 14-16c5-7 9-15 11-23m-1 18c-1 3 3 0 0 0ZM753 118c-1-1-5-3-3-5 2 1 3 3 3 5ZM1633 123c-1-2 1-6 4-7l-4 7ZM748 117c2 0 4 2 5 4l-4-1-1-3ZM1474 117c2 0 1 3 0 3v-3Z"/><path d="M1663 117h6c-1 2-6 3-6 0ZM1585 119c3-1 0 3 0 0ZM285 122c1-2 5-2 4 1h-3l-4-2 3 1ZM802 121c3-2 6 1 9 0l-1 3c1 1 2 2 1 3l-5 8-4-1h3l1-2h-2l4-5c-1-1-2-4-4-3l-5 5v-2l1-1h-3l5-5ZM1453 122c1-1 2-2 3-1l-1 3 4 1c-4 0-7-1-10-4l4 1ZM1266 120c2 1 1 4 2 6l2 3-1 4v4l-1 8 7-5c-2-2-4-4-3-6 0-3 2-5 5-5 4-1 7 3 6 7 0 3-3 4-6 5 0 3 0 8 3 10 2 3 6 3 9 2v-4c-3 0-6 2-7 0-1-3-1-6 1-8 3-4 8-3 12-1 2 2 2 4 3 7 2-1 4-2 6-1 4 0 6 3 9 6l-8 2c-7 0-12 6-16 10-1 2-2 5-4 6-5-5-10-9-16-11l-3-39ZM1649 123l2-2 3 4h-4c-1 2 0 3 1 5l-4-1c0-2 3-2 2-4 0-2-3-1-3-3l3 1ZM862 122h1l5 9c-2 0-2-2-4-3 0 1 2 3 0 4-2-1 0-5-3-5 1 2 2 4 1 6h-3l-1-2v6h-1l-1-3v4c-2-1-1-3 0-5l6-11ZM1202 124c1-1 1-1 1 1l-1-1ZM210 125h3l2 34c-1-1-2 0-3 1l-2-1c-1 2 2 3 2 1l2 1c-4 8-12 12-18 19a585 585 0 0 1-5 4v-1l-1-19h3l-1-1 1-1c5-2 10-1 14-1v2h4l-3-3-1-1c-5 0-11 2-17 1v-10c1 0 1-3-1-2v-2l3-4 8 1-7-13-4 4-1-8h10l1 1c1-2 4-1 6-1l-8 3c4 2 5 5 7 8l1 3 4-5 1-10m-14 19c1 1 1 1 0 0m14 2v2c2 0 2-1 0-2m-4 1c0 2 0 2 2 2 0-2-1-2-2-2m-13 19c1 1 1 1 0 0m-1 8c0 2 0 3 2 2 0-1 0-2-2-2ZM724 125h3l7 7-2-1-1 3a619 619 0 0 0 0-1c0-2-3-3-5-4l2-1c0-2-2-2-4-3ZM747 125l4 3c-1 2-5-1-4-3ZM877 126c1 2 2 4 5 5v4c-3-2-6-6-5-9ZM129 130l4-1-4 9c3 4 8 8 8 14h-3c3 0 2 3 2 5l2 4c-1 4 2 9 1 13h-1c-4-3-4-8-8-11l-3-4v-4c-2-2-4-4-4-6 3 0 5 2 8 4v-10l-8 5 1-6 3-2h-10c2 2 4 4 5 8-3 0-5-1-5-4h1l-3-2v-7l4-1v1h1v-1l5-3v4l4-5m4 35c1 1 1 1 0 0ZM44 134v-2c0 3 4 2 3 5h-2l5 13v1c2 3 6 7 3 12-3 0-6-2-7-5 0 4 3 6 5 8v2h3c-1 2-4 1-5 1l-2-1-2 1c3 2 6 1 9 1h2l7 6 1 10h-4l4 4 2 31c-5 2-10 3-15 1-2-3-3-7-6-10 0 4-1 8-4 11l-4-61v-5c2 0 2 1 3 2 0-4-4-2-6-3l3-18c-3 6-6 12-7 19H14c-3-2-1-6-2-10 1 0 3-2 1-3l-1 1-1-1 2-2v-6l31-2m-12 3c-1 2 0 2 2 2 0-2-1-3-2-2m-17 7c1 1 1 1 0 0m7 0 2 3c2-1 0-4-2-3m21 5c1 1 1 1 0 0m2 5c1 1 1 1 0 0m-3 4c1 1 1 1 0 0m14 16c1 1 1 1 0 0m0 4c1 1 1 1 0 0m1 2c0 2 2 1 4 2v-2h-4m-15 7v3l-2 2c2 3 2 7 3 11l1 1c-1 2 2 3 2 1h1l1 2c3 3 7 6 12 4v-1c3-2-1-6 2-9-1-3-4-6-7-5-2 0-3 3-4 1l3-6-4-5-8 1m5 25v-2 2m6 1c1 1 1 1 0 0m7 4c0 3 3-1 0 0m-5 2c1 1 1 1 0 0ZM97 132l2-1 1 19h-5c-1-1-3-2-3-4s2-2 3-3c-4-3-11-4-12-9 5-1 10 1 15 3l-1-5Z"/><path d="m48 134 19-1a307 307 0 0 0 0 2l4 6 1 3h4l1 1 3 2v3c3-1 7-4 9-1l3 4-24 2-2-2 1 2h-5l1 9-2-1v-2l-1-1c-3-2-5-6-6-10 1 1 3-2 1-2h-2l-3-6c3 0 2-4-1-2l-1-3h5c-1-2-3-2-5-3m4 8c-1 3 3 0 0 0m3 1c0 2 0 3 2 2 1-1 0-2-2-2m13 2c1 1 1 1 0 0m1 2c1 1 1 1 0 0m3 0c1 1 1 1 0 0m-8 5c1 1 1 1 0 0ZM251 135l2 1 4 2-4 2 8 1 5 4v2c3 2 1 6 2 8l-9 1c-3-1-4-4-2-6l3 2 5 1 1-5h-13c-3-3-2-7-3-11l1-1v-1Z"/><path d="M76 143c1-3 3-7 6-8 1 3 1 7-1 10h-4l-1-2ZM242 135c3 0 2 2 3 4v1l-2 2c1 1 3 1 2-1l3 7c0 2-1 2-2 3h-4c0 3 3 5 6 7l10 9c2 2 3 5 3 8h-4c-2 0-3-5-5-1 3 4 8 7 14 9 2 0 1 3-1 4l-1-2-5-2 1 3-6-1-1 3-3-3-3 3-3 1v-2c2-4 4-9 0-12l-2-30 2 1v-2l-2 1v-10ZM319 136c3 1-1 3 0 0ZM910 159l5-23c2 4 7 5 10 8 9 8 18 16 26 26 9 12 11 27 13 41l-5 1c0-7 0-14-3-21-3-4-8-4-11-8 2 1 4 1 4-2-4-3-9-4-14-6l3-2c-1-2-2-5-4-6-7-4-16-6-23-9l1 4-2-3m20-7c1 3 3-1 0 0m-3 3c0 2 0 2 2 2 0-2 0-2-2-2m6 7c-1 2 2 3 3 2 1-2-2-3-3-2m4 6c0 2 0 3 2 2 0-2 0-2-2-2ZM316 138c1 1 1 1 0 0ZM1641 139h3v3l-2-1-2 1 1-3ZM363 146l3-6c2 2 4 3 4 6l3-1-1 2 3 7-6-6 5 7-1 3-2-3v4l5-4v5h-4v3h5v6h-11c-1-1-2-1-2-3h6l-1-10-8-2 1-5 7 5-6-8ZM1472 142c1 1 1 1 0 0ZM589 143l8 5v2l-3-2-1 3-1-4c0-2-3-2-3-4ZM775 145l5-2 2 2-2 1v6l-2-1v2c-2-2-5-1-7-1v4c-2-1-2-4-2-6l10-1v-3h-9c1-2 3-1 5-1ZM663 151c-3-1-3-5-1-7l1 7ZM89 147c0-2 2 0 2 1 1 0 3 2 1 2-1 0-3-1-3-3ZM489 148l4 5-1 1c-2-1-3-4-3-6ZM1696 149l13-1-2 3 2 1h-7c0 2 1 5 4 5 5 1 5-7 10-7l-6 8 8 7-4-2-4-4c-3 3-7 5-11 6l2-3-3-4h4c-2-3-6-1-9-1l3-3v-5ZM116 153c1-2 3-4 6-4l-4 8a546 546 0 0 1 5 2v1h1v-1h3c0 2 0 3-2 4l2 2c0 5 4 8 7 11l-1-5c2 0 3 3 4 5h-5c-3-1-6-4-9-7l1-3-3 2c1-4-3-6-5-8v-7m9 7c1 1 1 1 0 0m-1 2c0 3 3-1 0 0ZM474 158c0-3-2-7 1-9v10l-1-1ZM755 151c3 1 7 0 10-1v9c-2-2-2-4-2-6-3 0-5 0-8-2ZM1440 158l4-8 1 3-2 1 2 1-5 3ZM1349 154l52-2c-5 2-11 0-16 1s-11-1-16 2v4l-1-3c-2 1-3 2-3 4h3c-1 3-4 4-7 6l-4 10-1-5-1 14-1-1v-12l4-17-6 1v6c-2-2-2-5-3-8ZM1667 155l2-1 1 5-3 1v-5ZM1642 157c1 1 1 1 0 0ZM261 159l7-1 1 7-8-6ZM1319 158c2 0 2 0 2 2-2 0-2 0-2-2Z"/><path d="M1304 163c7-3 15-1 22-4-1 3-4 4-6 6l-8 3c4-1 7 0 11 1 3 1 6-1 9-1-1 3-4 5-7 6l-12 1c-3 0-5 2-7 4 3-1 6 1 9 2l10-2c-3 5-9 7-15 9-2 0-3 2-4 5h6l-6 4 2 4 3-3-1 3 6 5c-1 5 2 10 3 15l7 2v-6l2 19-1-4c-2 1-5 3-7 2l7-3-1-5-9 6v5l-2-1v4l-2-6v-6c-1-3-4-6-3-10h2c-1 2 2 3 2 1 1-2 0-5-1-7-2 2-3 3-5 2l2-2-5-3-1 5c2 2 3 4 2 6l2 2-2 2 6 8-11 1-1 5c2-3 6-3 9-3l-2 2-1 2-3 1h6l-5 4c1 2 3 3 5 3l-2 3c3-2 7-3 10 0l-2 1 4 3-4 2 1 4h-1l-1 2h-5c1 1 3 2 2 4h-3l2 3-1 2v4h-3l8 4c-2 1-4 0-6-1l-3 2c0-3-1-6-4-7 0 2 1 3 3 5l-2 3c-1-3-3 0-4 1v-2l-3-1v2l-3-2c1 2 2 4 0 6l-1-6h-8l2 2-1 2-5-3 2 4-4 3c1-3 0-5-2-7v-12l-1-17-1-14 9 1c-3-3-6-4-9-5l-1-10c4-1 8-3 10-6s7-4 5-8l3-8-2-2 6 2-5-5 1-4 3 1-2-4-3 4-1-2 2-5-3 3-3-7-3-4 2-4v5l2-2c2 0 4 1 4 4l5 4-1-7-4-1c2-2 5-4 5-7 1-5 6-8 11-7m-15 21c1 1 1 1 0 0m6 17c0 3 6 6 8 3l-8-3m9 5c1 2 3 2 5 2-1-1-3-3-5-2m-18 15-1 2c1 1 1 2 3 2 0-1 0-3-2-4m-7 32 4 3v-6l-4 3ZM1394 163l3-5c2 5 1 10 4 15l2-2c1 2 0 3-2 4-4-2-9-2-13-2-2 0-3-1-3-2 4 1 9 0 14 2l-1-8c-1 0-2-1-2-3l-2 1ZM1345 161c2 1 3 4 1 5-1-1-2-3-1-5ZM587 162c2 2 5 3 9 3v3h-1v-2c-3 0-7-1-8-4ZM55 164c1 1 1 1 0 0Z"/><path d="M1269 163c4 3 8 7 7 12-1-1-2-5-5-4-1 4 4 4 5 7l-3 7c1-2 1-6 4-6l2 3 2 2-2-1v3l-1 2c-3 1-4 4-7 3l2-2-3-1c0-6-2-12 1-18-2-2-3-4-2-7ZM60 165c3 0-1 4 0 0ZM391 165h2v8c-3-1-3-5-2-8ZM572 176l2-11c1 3 4 5 7 3l-5 5v3c-2 0-2-2-2-3l-2 3ZM381 168c1-2 3-2 5-2l4 1c-3 2-6 1-9 1ZM1719 166c0 3-1 5-3 6l3-6ZM1681 172c0-2 0-5 3-5 0 2-1 4-3 5ZM489 168c3 1 5 5 5 8s-1 6-4 6c2-2 3-4 3-7l-2 1v-6l-2-2ZM917 168c3 1 5 3 7 6l-6 1v5c-2-4 0-8-1-12ZM928 168c3-1 0 3 0 0ZM119 173c0-2 1-4 3-4v2h-2c3 4 9 5 13 8 1 2-1 3-2 4l2-2 1 8c-3 0-5 0-7 2l-3-2-4 2 1-5-4-3v-11l2 1ZM210 170c1 1 1 1 0 0ZM1282 171c2-1 2 2 1 2-1 2-2-1-1-2Z"/><path d="M123 172c1-1 3 1 3 2-1 1-3-1-3-2ZM216 172l2 29-2-1-2-2 1 2h-5v5l1 1 1 1 2 1 2 3-2 2h3l-1-3 2 1 1 4-3 1 1 1-2 3v-1c-2 2-5 3-6 1l1 3 4-3 1 4h-1c0-3-2 0-3 0l-3 2h2c-1 2-3 4-5 2v-5l-4-2-1-2 3 2v-2l1-1c3 0 6 0 7-2-1-2-1-5-3-6h-3v5l-1-7c-3 1-5 4-7 7l3 1-1 2-1-1v3l-1-1h-2c1-2 1-4-1-6l1 2-1 3-1-5c-2-1-6 1-7-2l3 1-1-2 6-2v-3c2 0 5 0 5-3 4 1 1-5 0-1-2 0-5-1-5-3-1-4 4-6 7-8l1 1-1-1c4-1 9-2 12-5 1 0 3 0 3-2v-11m-13 27c1 1 1 1 0 0m-6 8c0 2 0 2 2 2 0-2 0-2-2-2m-6 3v2-2m5 0c1 3 3-1 0 0m15 2c1 3 3-1 0 0ZM368 173l9-1v9c-2-1-2-4-2-6-2 0-7 1-7-2ZM381 172h7l1 2h-6c0 2 1 6-2 8v-10ZM514 172c1 0 3 2 2 3-1 0-3-2-2-3ZM139 176h3l1 18h10l-8 1v9c-1 2-4 0-6 0 2-3 2-6 1-9h-9l-1-4h10v-5h-5v-4l5-1-1-5ZM731 176l2 1c-2 1-2 1-2-1ZM487 179c2 0 3 3 1 4l-1-4ZM723 180c3-2 1 3 0 0ZM588 187l4-5-1 6-3-1ZM1357 183c2 1 1 4 1 6-2 0-2-4-1-6ZM1702 183l2 1-1 3 4 13h-3l1-2-2-2-1-13ZM871 185c1-2 5-1 7-1-1 3-5 1-7 1ZM942 185c2 0 2 0 2 2-2 0-2 0-2-2ZM1444 185c3-1 0 3 0 0ZM1448 185c3-1 0 3 0 0ZM1322 189c3-3 8-3 12-2l-4 3c-2 1-3 4-6 5-4 1-8 2-12 1l10-7ZM368 187c3 0-1 3 0 0ZM1279 187c2 0 4 2 6 4l-2-1-3-2-1-1ZM196 189c3-1 0 3 0 0ZM366 190c2 0 2 0 1 2l-1-2ZM1567 190c2 0 2 0 2 2-2 0-2 0-2-2ZM944 191c3-1 0 3 0 0ZM1352 191h12c0 4-3 6-5 9-2 2-3 4-3 7h3l-2 2 5 3-7-1 2 4-8-1c-5 3-11 1-17 2l4-1-1-15h4c4 4 8 6 13 8l-5-9c-2-2-6-3-5-7h8c-1 3-5 1-7 1l7 6 6 4 4-10h2c-2-2-7 1-10-2ZM123 192l6 5h-3l1 4-5-1 1-2-3-3 4 1-1-4ZM576 194c0-2 2-3 3-1-2 2-3 5-3 7v4l-2-4c2-2 1-5 2-6ZM154 194l10-1-4 7-1-2 1-2-6-2Z"/><path d="m167 193 11-1-1 3 1-2 2-1-1 3-7 7-3-1 2 3-9 10-10 1-1-3 7-8-2-1 2-3 2 4 1-1v-2c2-3 6-5 6-8m-4 8c1 1 1 1 0 0ZM185 193c1 1 1 1 0 0ZM277 194c2 0 4 2 3 3s-3-1-3-3ZM966 207c0-5-1-9 1-14v13l3 18-1 2 1 6-2 1 3 6v-2l3 12-14 1c0-2-3-1-2 1-1-1-3-2-2-4 4-4 7-9 8-14-4 2-9 5-12 9l-4 1-1-22c3 0 5 2 7 4 2 1 4 3 7 3l1 1 2 1c-1-5-5-9-8-13-2 0-2-2-2-3l13-1c-1-2-2-4-1-6ZM1368 194c2 0 2 0 2 2-2 0-2 0-2-2ZM1745 194c1 1 1 1 0 0ZM147 196h6l1 3-4-1-4 2 1-4ZM319 196c2-1 4 0 5 1-1 2-5 1-5-1ZM131 201c-1-4 5-5 8-4v4h-8ZM246 197c1 1 1 1 0 0ZM419 202c1-2 2-4 5-5-2 2-2 6-5 5ZM601 197c3-2 1 3 0 0ZM634 197l2 2c-2 0-2 0-2-2ZM668 198c3 0-1 3 0 0ZM118 198l7 6 5-2-1 5 2 1c1 3 3 4 5 5l-3 5c1 3 4 5 7 6v2h-3l-2 2c-3-1-4-5-7-7-2-4-6-7-9-10v-3l2 1c0-1-1-2-2-1l-1-10ZM191 199c3-1 0 3 0 0ZM273 200c1 1 1 1 0 0ZM1659 200c2 0 2 0 2 2-2 0-2 0-2-2ZM145 207c2-2 3-6 7-6l-1 3h4c-2 2-4 5-7 6l1-3h-4Z"/><path d="M134 202c3 1 6 3 7 6h-4l1 3c-3 0-4-3-7-4l1-2 3 1-1-4ZM568 201c3 4 3 8 5 13 0 3 2 6 0 9v8l2-2c2 0 1 3 1 4h9v-1l2-2-2-3 4-1-3 2 4 2v5l11-1 9-1 2-8c3 1 2 5 3 7l-2 15h-2l-1-1v3c-1 2-4 2-6 2l-1-2 5-2-2-4 6 2c0-2 0-5-2-7l-3 4-2-4h-4c-4-2-9-2-12 1l-2-4c-3-1-6 0-9 1v-1l-4 1v4l-2-1c-1 3 3 5 3 8l-6-7 4-4h-6l-1 3h-5l3-15-1 8c3 0 5 2 8 3 0-8 1-17-4-23l-2 3 3-14m39 37c1 1 1 1 0 0ZM1439 207c-2 0-3-4-1-5l1 5ZM610 207c0-3 7-7 6-2h-2c3 2 2 5 0 6-2-1-6-1-7-4h3ZM359 205l3 2v2l3 2h-4v2l-1-4-1-4ZM948 207c1 1 1 1 0 0ZM143 208c2 1 1 4-1 3s0-3 1-3ZM273 208c3-1 0 3 0 0ZM934 212c3-3 8-5 11-2-3 0-5 3-7 5-4 3-9 3-13 3l9-6ZM950 209c1 1 1 1 0 0ZM667 211c3-1 1 3 0 0ZM1317 211c3-1 1 3 0 0ZM1629 211c3 0-1 3 0 0ZM140 212h2c-2 2-2 5-1 7l-1 3c-2-1-4-2-5-5l5-5ZM251 213c1 1 1 1 0 0ZM392 214c2 0 2 0 2 2-2 0-2 0-2-2ZM1654 214c2 0 2 0 2 2-2 0-2 0-2-2ZM1660 219c-2-1-2-4 0-5v5ZM1462 218c3 0-1 3 0 0ZM921 221l2-1-1 4 7 4-2 2 4 13 8 3c-2 3-9 3-9 8-2-2-5-4-4-7 1-2-1-4-2-6h3c0-3 0-5-3-7l-2 1c-1-1 0-3 1-5l-2-3h-6c-1 1-3 3-4 1 0-2 2-3 4-4 2 1 7 0 6-3ZM142 224c-1-2 2-3 3-4 0 2 0 4-2 4l2 2 2 35-1-2-1-2v2h-1l-3-13c-1-6-4-12-6-17l5-1 5 9v-6c-1-2-3-4-3-7m2 30c1 1 1 1 0 0ZM1582 222c1 1 1 1 0 0ZM1625 222c1 1 1 1 0 0ZM62 223c3-1 1 3 0 0ZM405 223l9 2h-9v-2ZM1658 223l5 1h-1c1 1 0 2-1 3 0-2-2-2-3-4ZM121 224c1-1 2 0 3 1-2 1-3 0-3-1ZM194 223c2 0 1 3 2 4v-1l3 2c-1 4 0 10 4 12l1 5 4 2-2 2-5-5 2-1c-2-2-4-1-5 1v-7h-4v-14m3 12c1 1 1 1 0 0ZM479 225c2 0 3 3 1 4-1-1-2-3-1-4ZM675 232c-3-1 0-6 3-6v3h-3v3ZM931 226l2 2c-2 0-2 0-2-2ZM45 227c1 1 1 1 0 0ZM652 227h3l2 6c-3 3-7 0-11 0v-1c1-2 4-1 7-1l-1-4ZM41 230l4 2 1 5c-3 1-3 4-3 6h-1l-1-13ZM46 231c1 1 1 1 0 0ZM49 232l2 1 3 1-1-3 4 1h1c2 4 6 3 9 5l1 21h-4c-1-3-2-6-4-7-1-3-3-5-6-6v-2c-2-3-5-7-5-11m5 3c1 1 1 1 0 0m8 3c0 1 0 2 2 2 0-2 0-3-2-2m1 3v2c2-1 2-1 0-2m1 4c-1 1 0 4 1 2 2 0 0-3-1-2ZM120 232c4 0 8 1 11 3 1 2 0 4-1 5 4 2 8 5 10 9l1 9-4 5-1 4-6 2c2 1 5 1 6 3l-6 2 2 2h-2v2h-5l-2 1-3-47m15 20c-1 3 3 0 0 0m-9 14c0 3 2-1 0 0m3 4v2c2 0 2-1 0-2ZM521 236l1-2v5h-3l-3-4 5 1ZM202 239c1 1 1 1 0 0ZM385 243h4c0 2-4 2-4 0ZM441 245c1-1 3 1 3 2-1 1-4 0-3-2ZM428 246c1 1 1 1 0 0ZM42 250l4-2 1 2 3 1v6l-1-1-3 2-4-2v-3h3-3v-3ZM56 250c1 1 1 1 0 0ZM571 250l4 1 1 4-5 2v-7ZM199 262c4-3 3-9 8-11l-1 3h3l-7 5c-3 4-3 10-5 14v13l-1-17c3-1 3-5 3-7ZM961 253c-1-2 2-2 4-2-1 3 3 2 5 2v3h-1l-5-1-1 2 1-5-3 1ZM968 252c1-2 7-1 5 2l-5-2ZM1349 258c3-1 4-3 5-6l-2 8-3-2ZM1358 253c2 1 3 4 3 6l-3-6ZM969 256c-1 1-1 1 0 0ZM55 257c1 1 1 1 0 0ZM572 264l4-6-1 4c3 3-1 6 2 9h-6l4-4c0-2-2-2-3-3ZM966 258c3 1-2 3 0 0ZM330 259h7a63 63 0 0 1 1 10l-8-10ZM841 259c3-2 1 3 0 0ZM287 262l8-1-1 3 1 3 4-3-2 5h3c2 1 5 3 3 6l2 7h-3l-2-4-4 2 2-3c-3 0-4-2-6-4l1-2c-3-2-5-6-6-9m3 2c0 2 1 4 3 4 1-2-1-5-3-4ZM662 262c1 1 1 1 0 0ZM1747 262c1-1 4 0 2 1l-2-1ZM1402 263c2 0 2 0 2 2-2 0-2 0-2-2ZM1480 263c3-1 1 3 0 0ZM946 264l2 1 1 3 6-1c-1 3-5 1-8 2l1-2-2-3ZM323 265l7 4c2 2 5 4 8 4l1 5-4 1c0 2 3 1 4 1l-32 2 17-1-1-16ZM625 272c1-3 1-6 4-7l1 5 2-2 1 8h2v3c-2 1-5 2-4 5l-3-2 1 5-1-1-3-2v5h-2l-2-5v-2l-3-1h3c1 1 2 0 3-2l2 2c1-3-2-6-1-9ZM47 270l2-5c-1 4-2 7 0 10l-2-1v-2h-2c0 2 1 3 3 3 0 3 0 7-3 8l1-4h-2l-1-8 4-1Z"/><path d="M203 270c0-2-1-4 2-4l-1 5c1 3 3 5 3 8-2-2-4-6-4-9ZM957 267c3 0-2 3 0 0ZM986 267l2 1c6 5 14 7 21 6l3 9c-1 2-3 4-5 4l-1-5-2 3c2 4 1 9 2 13l2-1-1-7 10-2-2 3v15l-8-6-7-4-8-8-2 2-1-3-2 1v-6c-3-4-7-8-8-13 3 1 5 3 8 2l-1-4ZM50 268l2 1 2 2-3 4 7 1c1 1 0 3-1 5l-1-1c-2-1-5 0-4 3l-2-1v3l-1-7c0-4 2-7 1-10ZM61 269c2 0 1 3 0 3-2 0-1-3 0-3ZM266 273l3-3 1 2h2c0 5 2 8 4 12l-17 1-1-5 5 1c0-2-1-5 1-5l4 2 3-1-2-4-3 2c-2-1-4-2-4-4l4 2ZM598 270l4 2 2-2 3 1 2 8c-3-1-6-2-7-5l-7 1 2-2h-2l3-3ZM1015 274l7-4c1 2 3 5 2 8l-4 9h-2l1-2c-3-2-3-4-2-7l-5-5 3 1ZM471 272h1v9l-1-3h-1l-2-4h2l1-2ZM573 273h4l-1 8-3 3-1-6 1-5ZM1356 273l2 1-2 1c0 1 0 4-2 4l2-6ZM490 274c1 0 4 1 3 3-2 1-4-1-3-3ZM970 274l4 5h-3l-1-5ZM1406 274c3 1-2 3 0 0ZM282 274l3 9h-4c-1-3 0-6 1-9ZM1778 275c1 1 1 1 0 0ZM66 276l3 1 1 17-2-1v-5c-2 1 0 5-4 3l2-2h-2l2-9v-1h-1l1-3m1 5c1 1 1 1 0 0m0 2c1 1 1 1 0 0ZM1374 284c-1-2-4-5-2-7 1 3 2 5 5 6l-3 1ZM934 278c3-2 1 3 0 0ZM646 279c3 1-1 3 0 0ZM1779 279c3 1-2 3 0 0ZM608 284l1-2v14c2 0 5-1 7-3l6 5 3 3-2 1v4l-9-2c1 3 4 2 6 3-1 2-3 2-5 2 2 3 6 3 10 3l-1 3c3 0 5 2 7 1l-5-7h2l12 3-6 8 2 2h-8l-7 1-13-11c-4-3-8-7-11-12-2-2-3-6-6-8 1-4 5-3 7-6l-3-1h3l4 5-1-4 5 2 1-3a1056 1056 0 0 1 1-1m1 19c1 1 1 1 0 0ZM44 284l8 3c-1 2-1 3 1 3v-2c2 0 4 3 6 2l2 1-2 2 4 2v-2l3 3-21 1-1-13m2 2c-1 1 2 2 1 4 2-1 4-1 3-3l-4-1Z"/><path d="M637 286c2 0 3 3 4 4-1 3-3 6 0 8v6l5 5v2l1 2 3 1v1l2 1c1 1 3 2 4 1l4-1-1-2 4-1-2 2v2l-2 4 2 1c-5-1-10-2-15 0v-3l-4-1 3-1-2-4c2 0 2 0 2-2l-3 1h-2c-2-3-6-3-9-4 5-4 6-12 2-17l4-5ZM889 289c-1-2 1-3 2-3v2l-2 1ZM1026 293c0-3 4-5 6-2 1 3 3 5 3 8h-1l-5-8-3 2ZM833 293c1 1 1 1 0 0ZM990 299c-1-2-1-4 1-6l2 8h2l-8 4 10 7c4 2 9 1 13 2 3 1 6 3 6 7 1 4-3 4-5 5l5 4-1 6-2 1c-3-3-9-4-11 0h-7v-3c2 0 5 0 6-3 0-2 0-5-2-6s-6-1-7 2c-2 3 1 6 2 8l-2 2-7-1-9-2 1-5 4 1 2 3c2 0 4-1 5-3 1-4-1-10-6-11-4 0-6 3-8 6l-2-1 3-9 3 1 3-4 3-2 1-6c-2-2-2-4-1-6l3 1-2 2c1 2 5 4 5 0l-2-2h2ZM1037 293l9 2-1 2-6-3-3 3 1-4ZM1056 294c2 0 1 4 0 5v-5ZM377 303c0-3 1-6 3-8 0 3-1 6-3 8ZM574 302c2-1 2-5 4-6 1 2 0 5-2 6 0 2 0 3-2 3v-3ZM1059 305c-1-3 1-6 2-9 1 3 0 7-2 9ZM1399 298c2 0 2 0 2 2-2 0-2 0-2-2ZM373 307c0-3 1-6 3-8l-1 5-2 3ZM1055 300l2-1c-1 4-3 9-7 11l5-10ZM1285 301c3 1-2 3 0 0ZM581 304c3-1 1 3 0 0ZM583 310c2-2 4-2 6-2 2 2 3 5 3 8-1-2-3-2-5-2l1 2-5 2 1 2h-2c0-3 0-6 2-8l-1-2ZM686 308c1 1 1 1 0 0ZM399 312c3-1 1 3 0 0ZM1051 317l5-5v1c-2 4-6 7-11 8v-1c1-2 3-3 6-3ZM1034 313h10c-2 2-7 2-10 0ZM786 317c1-1 4 0 3 2-1 1-3 0-3-2ZM795 318c1 1 1 1 0 0ZM461 319c2 0 2 0 2 2-2 0-2 0-2-2ZM585 322l2-3c1 2 1 5 4 5l2 2 3-2c1 3 3 5 6 6l-2 9v4l-7-3-5 3h-1l-2 3 1-5-3-4 3 2 4-8-5-9ZM705 319c1 1 1 1 0 0ZM689 321c3 0-2 3 0 0ZM461 325c3-1 0 3 0 0ZM778 327c3-2 0 3 0 0ZM797 327c1 1 1 1 0 0ZM748 330c1 1 1 1 0 0ZM786 332c1 1 1 1 0 0ZM713 340c1 1 1 1 0 0ZM862 341c2-1 2-1 3 1-2 1-2 0-3-1ZM827 342c1 1 1 1 0 0ZM839 342c1 0 5 0 3 1l-1 1-2-2ZM819 343c3-1 0 4 0 0ZM860 348v1-1ZM583 354c3 0 5-2 8-3l7 2-21 1-15 1c2-2 5-1 8-1l4-2 9 2ZM413 354c3 0-1 3 0 0Z"/></g><g fill="#f0e0ad"><path d="m1683 42 3 1v4l-12 1v-3l-4 3-1 1-2-5 8-1 8-1Z"/><path d="m1650 43 12-1 1 4 4 4-3 3 3 1-1 1c-1 1-3 1-3 3 4 1 8 0 11-3 3 4 6 7 6 12 3-2 1-6-1-8l1-2 3 2v-3c2 2 4 3 6 2l3 2-1 6c3-1 1-5 3-8l6 3c-2 1-3 3-2 5 2 2 2 4 2 7l-3 2c3 1 2 5 2 8l3 3-3 2v6h-2l7 4-1-12h8v3l4-4v9l-4 4 4-1 1-15c-3 1-8 5-11 2 0-4-2-7-4-10l5 2-1 3h7l-2 2a436 436 0 0 1 6-2c-4 0-6-3-6-6l4-2v-4l8 1c-2 3-5 5-5 8l3 7V73l1-1c1-1 3-3 5-3v11c1-2 1-5 4-6 0 5 0 11-3 15l4 2 1-2c-1-5-2-10 0-15 2-1 5-1 6 1l1-1c3 4 3 10 5 15h2v3l2-3 4 1-2-3c-4-6-6-13-5-20l5 1 2-1 1-1c3 0 8 1 9-2h-8l8-1v-3l5 2 3-1-3 5h-6l-1 3 4 3c-1 2-1 4 2 5l-1-5 5-2v5c2-1 2-3 2-5 2 3 4 5 3 9h-2l1 3 4-1c0 4-2 7-4 10l6-2-2 5v1l-2-2-6 7 4 1 7-7 1 3 1 10v6c1 5-1 11-1 16-2 9-4 19-10 26l-7 7 5 5c7 7 10 18 12 28l1 13c1 3 0 5 2 7 0 10 0 20 2 30l-2 5 3 1-1 3c2 2 1 6 2 9l1 5 6 14-9 1v-1l-2-1 1 2c-8 1-15 0-22 2-2-1-1-4 0-5-1-1-2-5 0-5h-2v9l-17 1h-9v-5c3 2 6-3 6-5-2 1-5 2-5 5-2-4-3-7-3-11-1-2 1-4 3-5-5-1-4-6-4-9l-1-9v-8c0-2-2-4-1-7-2-6-3-14-8-18-3-2-6-3-9-2l-35 2c-3 0-1 3-1 5l-2 2c2 2 2 4 2 6 1 19 3 37 3 56v7l-33 2-21 1-1-21-5-83-2-22 2-2-2-4v-19l-1-5c-2-2 1-3 0-5l-1-7 2-3c-1 0-3-1-2-3l1-5c2 1 5 1 7-1-2-2-4-2-6-2 0-2-2-3-3-5l2-2c-3 0-3-3-2-5l3 1 3-1-3-2v-3h-4c0-3-2-8 1-10-2-3 3-4 2-6-2 0-3 2-4 3v-5c0-1 2-1 2-3-2-3-2-6-2-10h4l-3 3c2 0 4 0 5 2 3-3 3-8 5-11h-3l6-3c0 2-1 4 2 4l-1-3 2 1 1-4h-3v-7l1 1v5l5-3 3-3 1 1 1 3h2v2l1 1c2 3 6 8 4 12-4 1-5-3-7-5-2 5 2 7 5 10l-1 2-6-1c1 2 6 3 8 1l5 1-4-3c4-3 2-6 3-10l2 1 1-3-3-2 2-1-2-2v-2h-1l-2-1v-3l3-2m-15 7a309 309 0 0 1 0 0m22 6c0 2 0 2 2 2 0-2 0-2-2-2m-32 2c0 2 0 2 2 2 0-2 0-2-2-2m9 0-1 3h-2l1 6 1-1c2-3 2-6 5-8h-4m25 11c0 1 1 4 3 3 1-1-1-4-3-3m13 2c1 2 4 0 5-1-2 0-4-1-5 1m-56 3v2-2m136 0c-1 2 3 3 4 1-1-1-3-2-4-1m-134 8c-1 1 2 1 3 2 0-2-2-3-3-2m62 4 3 2 1-2-1-2-3 2m11-1c1 3-2 5-5 6 2 2 3 4 6 3 1-2-1-2-3-3l6-3-2-4-2 1m-46 3v11c2-2 1-6 2-8l-2-3m87 8-2-1v3l4-1c0-2 1-3 2-3l4-1-1-2c-3 0-6 1-7 5m-81-1c1 1 1 1 0 0m25 2c-1 2-2 4-1 6l1-2 2 1 1-4-3-1m69 3h2c-1-2-1-2-2 0m-125 2c-1 2 0 2 2 2 0-2-1-3-2-2m69 2h-13c-3-2-7 2-10 3l4 3 1 7-2 9 2 1c-1-2 0-3 1-4 0 9 2 17 1 26 2 2 5 1 7 1l16-1v5l-3 3c3 0 7-2 9 1h-4l3 4-2 3c4-1 8-3 11-6l4 4 4 2-8-7 6-8c-5 0-5 8-10 7-3 0-4-3-4-5h7l-2-1 2-3c4 1 8-1 11-3 5-4 5-10 6-16l-1-8c0-3-2-5-1-8-2-2-2-5-5-7-5-5-13-3-20-3-3 1-7-1-10 1m-30 3c2 2 5-1 3-2-1 0-3 0-3 2m-21 3c2-1 4 0 5-2-1-1-5 0-5 2m-13-2 2 2c0-2 0-2-2-2m104 0c-1 2 0 2 2 2 0-2 0-2-2-2m-88 4 3 3c2-1 6-1 5-4-2 1-6-2-8 1m14 3-4-1v5h3l-1-1c2-2 5-3 5-6l-3 3m-34 2h2-2m11 0-2 2c2 1 5-2 2-2m1 6 4-7c-3 1-5 5-4 7m30-6c0 3 5 2 6 0h-6m-14 6-3-1c0 2 3 1 3 3 1 2-2 2-2 4l4 1c-1-2-2-3-1-5h4l-3-4-2 2m-8 16-1 3 2-1 2 1v-3h-3m15 3c2 0 2-3 0-3s-2 3 0 3m11 13v5l3-1-1-5-2 1m-28 2c-1 2 0 2 2 2 0-2 0-2-2-2m3 0c1 1 1 1 0 0m34 0c1 1 1 1 0 0m20 7c1 1 1 1 0 0m23 2-3 6c2-1 3-3 3-6m-38 6c2-1 3-3 3-5-3 0-3 3-3 5m74 5v2c0 2 2-3 0-2m2 4v2c2 0 2-1 0-2m-55 2 1 13 2 2-1 2h3l-4-13 1-3-2-1m45 7c-1 1 0 2 1 1s0-2-1-1m-2 4c1 1 1 1 0 0m-86 6c0 2 0 2 2 2 0-2 0-2-2-2m-30 11c-1 3 3 0 0 0m40 0c0 3 3-1 0 0m-33 3c-1 2 0 2 2 2 0-2-1-2-2-2m18 0c0 2 0 2 2 2 0-2 0-2-2-2m6 5v-5c-2 1-2 4 0 5m-35 3c1 1 1 1 0 0m38 2-5-1c1 2 3 2 3 4l-13 13-13 16-5 6 21-22 1 2-1-3 13-13c1-1 3-2 3-4l-4 2m-22 1h6c-2-2-4-1-6 0m7-1c0 2 3 2 4 0h-4m-22 0c-1 3 3 0 0 0m6 0c-1 2 2 3 3 2 1-2-2-3-3-2m5 0c-1 2 2 3 3 2 1-2-2-3-3-2m18 0c0 3 3-1 0 0m120 19c-2 2 3 0 0 0m-118 4c1 0 4-2 3-3s-3 1-3 3m10 6c0 2 2 2 4 1 1-1-1-1-2-2l-2 1m80 9 2 1c2-1-1-2-2-1m10 0c-1 2 3 2 4 1 0-2-3-2-4-1m6 0v2h4c-1-2-3-2-4-2m-21 3c-1 3 4 4 4 1l-4-1m23 2 6 1 4 6h2l1-2 2 2 3-2v3l-1 2 7-1c-1-2-2-3-4-2-1-2-3-3-1-5-2 0-4 5-6 1l-7-5v2c-2 0-5-3-6 0m-3 3c0 2 0 3 2 2 0-2 0-2-2-2m-18 2c0 2 0 2 2 2 1-2 0-2-2-2m6 1h5c0-2-4-1-5 0m28 2c1 1 1 1 0 0m1 4c-2 3 3 1 0 0ZM1578 53l4-2 5 2-3 1 4 2-1 2 3 3 1 2-1 2v5l1 3v5l-1 3 2 2 1 14-1 5c2 1 1 4 1 6 0 4 2 7 0 11l1 7c0 4 2 8 0 12 2 3 1 7 1 10l3 44 1 24v8l-1 12c-1 10-3 21-7 31a60 60 0 0 1-38 34c-12 5-24 5-37 6l-4-1-1-6v-1c0-1 1-5-1-6a177 177 0 0 0-10 1l-1-2c-3 0-8-2-10 2l-9-1-8 1 2 4c-1 0-6 0-4-2h3c-3-2-5-2-8-2-5-2-8-7-12-11-8-11-13-24-15-37l-3-15 1-1c-2-2 0-4-2-6l2-3-2-1v-3l-1-13v-14c-1-2 2-2 2-3-2-1-3-2-3-5l2-2-2-1v-10c-2-2-2-5-1-7-1-2-2-4-1-6-2-3 1-6-1-8l2-1-1-2 2-2c0-2 1-5-1-6-2-2-2-5-2-7l3-1c-1-1-3-1-3-3h9v-2c1-1 1-1-1-1v1l-4 1c-2-4-2-9-2-14h4c0 2-2 2-3 2l2 3 4-4c1 0 2 0 3-2l-2-5 5 2 1-3h-2l-2-5h11c-3-2-7-2-10-2s-5 3-6 6l2 6c-2 0-6-1-8 1l-1 8-2-7 1-7c2-3 4-6 3-9-2 1-2 3-3 5-2-4-1-8 0-11 2-4 5-5 8-8l6-7v-3l2-1 3 4-4 3 2 2c-2 0-3 3-1 3 1 0 2 0 2-2v-2c3-1 5 1 7 2l-2 2c2 2 5 2 7 2l-8-8 4-2 4 1 6 3 6-3c1-2 3-3 5-3l-1-1-1-3v-3l3 2 1 3 2 2 1 4 2 44c0 2-2 4-4 5 2 0 4 1 5 3l1 10-3 3 3 1 4 66c1 10 3 20 9 28 7 6 16 8 24 6 5-1 11-2 14-6 7-7 9-18 8-27l1-9-2-28-1-15c0-7-2-13-1-20l-2-22c1-9-1-17-1-26 0-2 2-3 3-4l-2-1-1-12v-3h3l-1 3 3-2-2-2 2-2h2v2c-2 2-1 5-1 8l1 6V72l2-2a93 93 0 0 0 4 3l-2 3h4c2 2 2 5 0 7h-3l3-3-4 1-3-2 2 2-1 5c0 2 2 3 4 3l1-5 5 1-2 3 4-2c0-5 2-8 3-13h5v-2l6-1-3-4-4 1-3-2c0 2 2 3 3 4-1 1-2 3-4 2h-5l-1-5 1-1 1 1h1l-1-1v-3c1 1 3 0 3-2v-1h-4 1c3-1 6-2 8-5-1 3 0 5 2 7 2 0 5-1 6-3l6-3-1-2m0 6 1 3 2-2c2 0 3-2 5-3l-2-3c-3 1-5 3-6 5m-10 15 6 1-1-2c-1 0-4-1-5 1m8 2 3-2c-1-1-4 0-3 2m4-1c-1 2 0 2 2 2 0-1 0-2-2-2m-17 2 1 1c3 0-1-4-1-1m-91 3c0 2 0 2 2 2 0-2 0-2-2-2m-12 1c0 2 0 2 2 2 0-2 0-2-2-2m4 0c0 1 0 2 1 1s1-1-1-1m97 3c0 2 1 2 2 2 1-2 0-2-2-2m-22 6c0 1-1 4 1 4 0-1 1-4-1-4m-80 2c-1 3-1 6 2 8 3-1 8-1 9-4h-2c0-2 0-4-2-4l1 5c-1 2-3 1-4 1-2-1-3-4-4-6m8 21c1 1 1 1 0 0m7 4v3c1 0 2-3 0-3m115 3c2 0 2 0 2-2-1 0-2 0-2 2m-16-1c0 2 0 3 2 2 1-2 0-2-2-2m6 0 2 2c0-2 0-2-2-2m6 0c0 3 3-1 0 0m-132 3-4-1c3 3 6 4 10 4l-4-1 1-3c-1-1-2 0-3 1m102-1c0 2 1 2 2 2 1-2 0-2-2-2m-91 9c0 2 0 2 2 1-1-1-1-2-2-1m9 4h3v-4c-2 0-2 2-3 4m-5-2c-1 2 0 3 2 2 0-2 0-2-2-2m-30 5s-3 0-2 1c2 2 2 4 0 5 4 3 9 2 11 6l4-4c-3-1 0-4-1-6h-4l-2-1-6-1m34 5c1 1 1 1 0 0m-32 16 5-3 1 1 1-4-2 1-1-3-4 8m-1 3c0 2 2 4 3 3 1-2-1-4-3-3m5 24c0 3 3-1 0 0m4 0c0 3 3-1 0 0m-9 1c0 3 3-1 0 0m135 2c-2 0-3 3-1 3s3-3 1-3m4 2h6c-1-2-4-2-6 0m-11 0c0 2 0 2 2 2 0-2 0-2-2-2m-128 17-1-5c-2 1-1 5 1 5m117-1c2 1 5 1 6-1h-4c-1 0-3-1-2 1m8-2c-1 2 0 2 2 2 0-2 0-2-2-2m5 3c1 2 2 2 3 0h-3m-104 4 4 1-2-5c-2 0-3 2-2 4m-21-1c0 2 0 2 2 2 1-2 0-2-2-2m22 5c0 3 3-1 0 0m-4 3c-1 3 3 0 0 0m116 4c0 3 3-1 0 0m4 0c1 1 1 1 0 0m-24 3c1 1 1 1 0 0m-90 15c0 2 2 1 3 1l1-2c-1-1-3 0-4 1m-8 0c1 1 0 3-1 4h-4c0 3 3 1 4 1l4-3c0-1-1-2-3-2m3 3c1 3 6 3 6 0h-6m73 0c1 1 1 1 0 0m-72 7c-2 1-1 3 1 3 2-1 1-3-1-3m8 13c1 1 1 1 0 0m8 0c1 3 3-1 0 0ZM1382 62c3 2 3 6 6 7l-1 1v1c1 3 0 7 2 10 3 6 9 10 16 10l6-5-1 10 2 2v16c3 4-4 4-6 4l-41 3-6-8h6c6 5 15 5 21 1l6-6-1-7 3-2c-1-3-3-5-6-6l3-3-8 1c-1 4-4 7-3 12l-7 1-8-6c4 1 8 2 11-1l2 2-1-5c3-1 5-2 6-5v-3c2-2 2-5 1-7l3-6c-2-1-5-2-5-5l3-1-3-5Z"/><path d="M1708 63c1 0 4-1 4 1s-2 3-3 5c-2-1-2-4-1-6ZM1402 82c0-4 2-7 4-10 0 2 1 5 4 5v8c-3 0-6-1-8-3ZM1002 74h5l1 1-6 1v-2ZM987 74l3 1h1l1 1v4l-1-2h-6c-1 2-4 3-6 4l4-6 4-2ZM1366 79l6 2c-1 2-4 2-6 2v-4ZM977 89l6-3v4l-8 1v-1l2-1ZM1356 88c5-3 11 0 16-1 1 3 3 2 5 2 0 2-1 3-2 3-1-4-5-1-7 0l-2-1-1 2-3-1v-4h-5l-2 4c1 7 3 13 7 19h-4c-2-5-4-10-4-15l-2 1v-6l2 1c1-1 0-4 2-4ZM832 91c3-2 6 0 9-1h1l9 1c-3 11-9 22-17 31l-16 16 2-1 2 5-4-1 1 3 3 2-1 2c6-4 13-3 19-8 4-3 10-6 9-12-2 1-2 5-5 5-3 1-4-3-3-5 2-5 6-10 11-13 4-3 8-8 7-14-1 3-4 8-8 6l3-12c0-1 1-2 3-2a32 32 0 0 1 15 12l-3 2-6-6c1 9 10 13 16 18l3 12c-3-1-4-3-5-5-1 3 2 7 5 9l1 10c0 5 0 10 2 14l-1 6c0 2 0 5-2 6l-1 11c-1 7-5 12-10 17 5 3 10 6 13 10l-2 13 2 1 1 8 1 1c-1-3 0-6 1-8h4c3 5 4 11 5 16l3 20c-1 7 0 14-2 20v6c0 4 0 9-2 12l-2-2-1-3-3 2c0-3 3-4 4-7l1-5 2-2-6-1c-2-2-2-5-3-7 2-3 1-6 1-9h3l-3-2c1-3 2-7-1-9 1-3 0-5-1-7-2 6 1 12-1 17l-3 4 2 1 1 6v4c1 4 3 9 1 14 1 3 0 7 3 9v-4c2 1 1 3 0 4l3 3-3 2c1 5-1 10-3 14-7 8-16 15-27 17 0 1 0 3-2 4l1-4-27 2v2c-2 0-5-3-8-1l2 4 4 3 1 2v1l-2 2c2-2 0-4-2-6 0 2-1 2-2 1l1-1h1l-3-5c-3-2-7-1-11-1-8 0-17 2-25 1v-1l4-2-5-2-1-2-4 1-2-3-1 1-3 2c-1-2 1-3 2-4h3l4-3c-2-3 1-5 2-8-2 0-3 2-5 4l1 2h-1v-2c-3 1-6-2-9-1l1 3 3-2-3 3-4 5-4 1c-3 0 0-3 0-3-3 0-4 4-6 6l-4-1 2 2-2 3h-6l-3-1-1 1 2 2h4l4 2 1-3 4-5 2 2c-2 0-4 1-5 3 3 2 6 0 8 0l20-1 2 1 1 1-20 1c-4 0-9-1-14 1h-23v-6l-1-18-2-18v-16l-3-36-1-29-5-77-2-42v-4l11-1h13l5 6c-3 0-5-2-8-4l1 11 7-5 1 2v-3l9 5-1-11-7 5c0-3 3-8 7-7 4 3 5 8 7 12 1-2 0-4-1-7h6l1 8c-1-5 0-11 5-14 4-1 6 3 7 6-3 0-5-3-8-4l1 11 6-4 5-1 7 4-1-11-8 5 4-7 2-1 2 1 16-1 2 2 3 1-2 3c-3-2-6 3-7 6l-3-2 1 3c-4 2-7 5-9 8l-3-1-4 4v3l1-1 5-2c1 2 1 5 3 5l-1-3 5 2-3-4 10-8 3 2 5-4-1-3 5 2-3-3 4-5 7 2-2-9h4c1 2 2 5 5 5l1-5m3 24c2-1 5-2 5-5-2 1-5 2-5 5m-82 3c0-2-1-4-3-5-2 2 2 4 3 5m59-4-2 3c1-1 4 0 4-2l-2-1m6 0c0 1 0 2 2 1l-2-1m-70 3 1 3 4 1c-1-2-3-4-5-4m74 0c0 3 3-2 0 0m-20 4-5 5-2 2c-2 0-6-1-5 2l1 1-1 2 2 1v-3c2 2 4 0 5-2l2-2v2l5-5c2-1 3 2 4 3l-4 5h2l-1 2h-3l4 1 5-8c1-1 0-2-1-3l1-3c-3 1-6-2-9 0m60 1-6 11c-1 2-2 4 0 5v-4l1 3h1v-6l1 2h3c1-2 0-4-1-6 3 0 1 4 3 5 2-1 0-3 0-4 2 1 2 3 4 3l-5-9h-1m-138 3c2 1 4 1 4 3l-2 1c2 1 5 2 5 4h-3l-1 1h4l1-3 2 1-7-7h-3m23 0c-1 2 3 5 4 3l-4-3m28 20c-2 0-4-1-5 1h9v3l-10 1c0 2 0 5 2 6v-4c2 0 5-1 7 1v-2l2 1v-6l2-1-2-2-5 2m-20 6c3 2 5 2 8 2 0 2 0 4 2 6v-9c-3 1-7 2-10 1m47 3-28 1 1 16c0 5 2 10 1 15h6l39-3 5-3c2-2 1-5 2-7-1-5 1-10-2-14-2-5-8-7-13-6l-11 1m-80 0c0 3 3-2 0 0m3 2c1 1 1 2 3 1-1-2-1-2-3-1m-3 6 2-3-2-2v5m0 3v3l2-1-1-4-1 2m9 11c0 2 0 2 2 1l-2-1m-4 2-1 1c-2 2 6 0 3-1h-2m-4 2c1 3 3-2 0 0m148 5c2 0 6 2 7-1-2 0-6-1-7 1m-129 2c-1 2 0 3 2 2 0-2 0-2-2-2m144 52c1 1 1 1 0 0m-74 2-17 1-16 1 2 38 20-1 21-1c4-1 9 0 13-3s5-9 5-13c-1-2 0-5-2-7-3 0 0 4-3 4l1-3 4-2c-1-3-1-7-4-9v-2c-3-3-8-4-12-4-4-1-8 2-12 1m74 1c-1 1-1 3 1 3 1-1 1-3-1-3m-45 17c1 3 3-2 0 0m-3 30h3c2-1 6-3 3-4-3 0-5 2-6 4m25-1c0 3 5 0 2-1l-2 1m-30 5c1 1 1 1 0 0m4 0c0 2 0 2 2 2 1-2 0-2-2-2m-6 5 3 3c2 0 2-2 3-2 1-1 3-2 2-3-2-1-3 0-5 1-1 0-3-1-3 1m-24 3-1-4c-3 0-2 4 1 4m7 5c1 1 5 1 4-2l-4 2m-2-1c1 1 1 1 0 0m18 3c2-1 5 0 5-2-2-1-4 1-5 2m-20 3-4-2-2 2c2 1 3 3 5 2 1 0 4 2 4 0h-3l1-2c2 0 5 0 4-3-2 0-5 1-5 3m-31 2-6 1-6 5c2 2 4 0 6-2 2 0 5 0 6-3 1-1 3-1 3-3l-3 2m-15-1c-1 1-1 3 1 3s1-4-1-3m27 2v4l2-1-2-3m-5 3c0 2 2 3 3 2 1-2-2-3-3-2m9 1c1 1 1 1 0 0m-59 6c2-1 6 0 7-3-2 1-5 1-7 3m-4 0h2v-1c0-1-3-1-2 1m65 3c1 1 1 1 0 0m-59 2 1 3 5 6c2 0 2-1 1-2l-2-1c-1-2-2-5-5-6m10 1c1 1 1 1 0 0m56 1c-2 1 0 4 1 2 1-1 0-3-1-2m-18 1c1 1 1 1 0 0m11 1v3h3c0-2-1-2-3-3m3 6 5-2c2 0 4 0 4-2l-6 1c-1 0-3 1-3 3m-52-3c-1 2 2 3 3 2 1-2-2-3-3-2m-14 2c-1 2 2 2 3 2h3c1 1 2 2 4 1 1-2-2-2-3-2l-4-1h-3ZM968 96c2-2 3-2 5-2h1l10 2h1l7 1-14 2-3-3c0-2-3-1-2 1l-3 1-2-2ZM1282 100l6-5-4 6-2-1ZM937 96l5 1 1 3c-3 2-7 2-11 1l2-3c1 1 1 3 3 3v-5ZM944 97l12-1v2l7-1v3c-4 0-8 0-11-2h-6l-2 2v-3ZM998 104l2-8c-1 6 1 12 1 19l-2-3-1-8Z"/><path d="M813 97c2 0 1 3 0 3-2 0-1-3 0-3ZM1288 101c1-1 2-4 4-4 0 2-2 4-4 4ZM977 101l6 1 1 2-6 1-1-4ZM619 103c11 0 21-2 32-1l1 1 3 10 2 7 18 60 3 9 7 22 21 73 7 20c1 8 5 15 6 23l6 18-30 2-16 1h-13l-4-15c-1-4-3-8-1-11l-2-1 2-4v-2l2-2-4 1-4-1 1 4c-1 1-3 0-4-1l-2-1v-1c1-2-2-3-3-1l-1-2v-2l-5-5v-6c-3-2-1-5 0-8-1-1-2-4-4-4l-4 5c4 5 3 13-2 17l-4-1-1-2-3 1v-4l2-1c-1-2 0-6-3-7v4l-6-5c-2 2-5 3-7 3v-14l-1 2a2759 2759 0 0 0-1 1l-1 3-5-2 1 4-4-5h-3l3 1c-2 3-6 2-7 6 3 2 4 6 6 8 3 5 7 9 11 12l13 11-18 2-1 5c-3-1-5-3-6-6l-3 2-2-2c-3 0-3-3-4-5l-2 3 5 9-4 8-3-2 3 4-1 5 2-3h1l5-3 7 3c-1 3 0 7-2 10l-7-2c-3 1-5 3-8 3l-9-2-4 2c-3 0-6-1-8 1l-15 1-7-1 3-15c1-2 3-2 3-4l-2-3 8-42c3-17 5-35 9-52h5l1-3h6l-4 4 6 7c0-3-4-5-3-8l2 1v-4l4-1v1c3-1 6-2 9-1l2 4c3-3 8-3 12-1h4l2 4 3-4c2 2 2 5 2 7l-6-2 2 4-5 2 1 2c2 0 5 0 6-2v1h3l-2 12 4 3 2-3 26-1-2-4v-3c-2-5-1-10-4-15 0-6-3-11-4-17l-5-21-3-10-2-10h-1l-2 14v1l-3 23v5l-2 8c-1-2 0-6-3-7l-2 8-9 1-11 1v-5l-4-2 3-2-4 1 2 3-2 2v1h-9c0-1 1-4-1-4l-2 2v-8c2-3 0-6 0-9-2-5-2-9-5-13l4-25 2-3a418 418 0 0 1 2 0l5-5c-3 2-6 0-7-3l6-36 3-1-1-8 7 1v-3h-6c0-3 4-1 6-1 4 0 9 2 13 1l-1 1c-4 1-8 1-11 3l-1 1 7 1c0 3-4 2-5 3-1-1-1-4-3-3l-1 3-4 3 17 2-3-3h-6l7-2c2-2 4-2 6-1v-5l2-2 1 3 5-1-3 3c1 3 5 6 2 10l-2 2 7 5-2 4v5l2-1v4l-4-1v8l10-9-4-3 3-4h3l-3-5h4l-3-5-2 2v-3h4c-3-2-6-3-7-6l-2-2 3-1 1 5h2v-2h4l8 4 2-3c-3 0-6 0-9-2-1-4 3-7 3-11-3 2-3 4-5 7l1-6-2-6 2 1v-2c0-2-3-2-4-2l-1 3-3-4 2-3m14 2c0 2 0 3 2 4h-5l1 1 7 1-1-6-1 1-3-1m-44 38c0 2 3 2 3 4l1 4 1-3 3 2v-2l-8-5m74 8-1-7c-2 2-2 6 1 7m-76 11c1 3 5 4 8 4v2h1v-3c-4 0-7-1-9-3m83 10v2l-7 4c-3 0-4 2-6 4-2-1-6 1-4 3 2-1 4-3 7-3l1 5h-9c0 3 3 2 4 2s3-2 5 0c0 1 1 2 3 2l4-3 2-4c-2-2-3 0-5 2l-3-2 2-4h5l3-1c2-3-2-4-2-7m1 8 2 3v3l1-1v-4l-3-1m-83 7 3 1 1-6-4 5m18 5c-2 0-4-1-5 1l3-1-1 4c2 1 5-1 7-1l-2-1 3-3-3-3c-2 1-3 2-2 4m6-3 3 5c2 0 3-2 4-4-2 1-4-1-7-1m31 2c-2 1 0 4 1 2 3 0 1-4-1-2m-67 3c-1 1 0 4-2 6l2 4v-4c0-2 1-5 3-7-1-2-3-1-3 1m88 0-1 2c2-1 6 3 7-1-2 0-4 1-5-1h-1m-63 3c1 3 3-2 0 0m33 0c0 2 0 2 2 2l-2-2m4 1h2c-1-2-1-2-2 0m26 0-2 3-3-1c2 2 5 1 7 1l1-3h-3m4 0c-1 3 3 0 0 0m-17 5 4-1v2l1-3c-2 0-4 0-5 2m-41 4h-3c1 3 5 3 7 4 2-1 3-4 0-6h2c1-5-6-1-6 2m-12 1c1 1 1 1 0 0m69 3c1 3 3-1 0 0m-54 4c0 4 3-2 0 0m62 17v-3h3v-3c-3 0-6 5-3 6m-23-5 1 4c-3 0-6-1-7 1v1c4 0 8 3 11 0l-2-6h-3m-8 22c1 2 3 0 1-1-1-2-3 0-1 1m7 10c-1 4 1 6 1 10h2c-2-4-1-9-1-13l-2-1-1-6c-2 3-2 8 1 10m-80-9v7l5-2-1-4-4-1m107 2c0 2 0 3 2 2 0-2 0-2-2-2m-106 12c1 1 3 1 3 3l-4 4h6c-3-3 1-6-2-9l1-4-4 6m84-1c1 1 2 3 4 3-1-2-3-6-4-3m6-1c1 1 1 1 0 0m1 2-1 1c1 4 5-1 1-1m-38 8c-1 3 2 6 1 9l-2-2c-1 2-2 3-3 2l-2-8c-1-2 0-5-3-5l2 7 1 6h-1l3 1v2h-1l2 7 1-2h2v-5l3 2 1 1-1-5 3 2c-1-3 2-4 4-5v-3h-2l-1-8-2 2-1-5c-3 1-3 4-4 7m35-5 4 5v-3l3 3 1-1-2-3-3 1-3-2m-62 3-3 3h2l-2 2 7-1c1 3 4 4 7 5l-2-8-3-1-2 2-4-2m-25 3-1 5 1 6 3-3 1-8h-4m70 1 2 4c2 0 1-5-2-4m22 2h3c1 2 2 3 4 3l-4-6-3 3m15 1 1 1c1-1 0-2-1-1m-34 2c-1 3 3 1 0 0m1 3 1 6 2 1c-1-3-1-6-3-7m27 1c1 2 2 3 1 5h3c0-2-2-5-4-5m-4 2v3l3 1-1-3-2-1m-101 6c2 0 3-3 1-3-2-1-3 2-1 3m111-2c-1 1 2 3 3 3 1-2-2-4-3-3m-31 2c1 2 1 4 3 5 0-2 0-6-3-5m34 2 2 3c2 0 0-4-2-3m-109 9a399 399 0 0 1 2 0c2-1 3-4 2-6-2 1-2 5-4 6m78-1c2 2 1 5 2 8l2 1c-1-3-1-6-3-8 0-2 1-4-1-5v4m35-3c0 2 0 2 2 2 0-2 0-3-2-2m-11 1c1 1 1 4 3 4 1-1-1-4-3-4m9 1c-2 3 3 0 0 0m6 2c0 2 1 3 3 4 1-2-1-4-3-4m-110 2c1 3 3-1 0 0m2 6 1 2c-2 2-2 5-2 8h2l-1-2 5-2-1-2c2 0 4 0 5 2 0-3-1-6-3-8-2 0-4 0-6 2m103-2c1 1 1 1 0 0m-6 1c-1 1 0 4 2 3 1-1 0-4-2-3m19 3c1 3 3 5 6 6l-5-7-1 1m-17 2c0 2 0 2 2 2 0-2 0-2-2-2m-15 3c1 1 1 1 0 0m17 2c-1 2 3 7 3 3-1 0-1-3-3-3m21 0c1 1 1 1 0 0m-16 2c-2 3 3 0 0 0m-27 2c-1 2 4 2 4 0h-4m46 0c0 3 3-1 0 0m-41 1c0 3 3-1 0 0m5 1c2 2 5 2 7 2-2-2-5-2-7-2m10 3h3c1 1 3 3 5 2-1-1-3-2-3-4l-5 2m9 1c0 2 3 2 4 2l4 1-1-1-7-2m11 3-1 1c4 0 6 2 10 1l4 2 6 1-2-2-8-2-9-1m-14 1c0 2 0 3 2 2 1-2 0-2-2-2m1 5c-1 2 2 3 3 2 1-2-2-3-3-2m24 2c1 1 1 1 0 0m-23 2c0 2 0 2 2 2 1-2 0-3-2-2ZM953 104l3-1v4l-3 1h-4c-3-2-8 0-12 0 1-4-4-3-7-2l-1 2v-3c5 1 10-2 15-1v2h6l1-2c-1 2 0 3 2 4v-4Z"/><path d="m585 106 4-1 4 2c-2 0-5 0-6 2h8v3l-11 2v-2h4l-2-4-2 2 1-4ZM446 106c7 0 14 0 21 2l10 2 6 13c1 2 2 5-1 5-3 1-4-3-6-4 0 7 7 11 12 14s9 8 10 14c1-4-3-7-4-11l4 2 1-4c2 3 4 6 8 6l-11-10c-5-6-8-12-12-19l-1-3c11 4 21 12 28 21a94 94 0 0 1 15 48l-15 1-15 1-16 1-17 1c-1-5-1-11-5-15l1-7h-2v3c-3 2-5-2-8-3l9-7c0 2-1 5 1 4v-5l1-1v-6l-1 4c-1 1-4 4-5 1-2 0-1-2-1-4 1-4 4-7 7-10l2 1c1-5 6-7 8-12l1-5c-1 2-3 5-6 5l-1-2-1-2 1-3h1v-2l2-5-4-2c-2 8-6 16-11 23l-14 16-13 12c-5 3-10 7-10 13s0 14 7 16l23 5c3 1 7 0 9 2 3-1 6 1 9 1l20 4 14 4c7 2 13 6 19 11l8 9c6 10 10 21 12 33l1 7c1 3 0 5-1 7l2 2v9l-1 8c1 13-3 25-8 37-7 12-17 22-30 27-9 5-19 7-29 9l-13 1-4 1-3-2c1-4 0-9-1-13l-1-27v-6c0 3-2 6-1 9l1 24c-2 5 0 10-1 15-18 0-37-2-53-11-7-5-14-11-18-19-4-5-6-11-9-17-1-7-4-13-4-19l-1-10 2-3 21-1 15-1c2-1 4 0 6 1 3-2 7-1 10-2h12c-1 3 0 5 1 7 0 4 3 7 4 11v-2l3 2 12 4c4-2 8-1 12-2 5-1 10-4 12-9 2-6 1-12 0-18v-9l1-1c0-2-3-1-4-1l2 2-1 2h-2l-5-3h-4l-6-1c-1-1-3 0-3-2l3-2-3-1c-1-3-1-6 1-9 0-2-2-3-3-2 1 3 1 7-1 11l1 3c-3 1-5 0-8-1-10-2-20-3-29-6a73 73 0 0 1-29-9c1-3 3-1 5 0l6 1c4 1 8 1 11 3 9 2 19 2 27 6l6 1c0-2-3-2-5-2-8-1-14-5-22-6l-32-8c-7-6-11-15-15-24l-2-10v-2h4l-3-2v-2l-3-2-1-12c-1-13-1-27 3-39l8 2 1 10h-6c0 2 1 2 2 3h11v-6h-5v-3h4v-5l-5 4v-4l2 3 1-3-5-7 6 6-3-7 1-2-3 1c0-3-2-4-4-6l2-3 3-3 3 2-1 5c2 4 2 7 2 11h2l2 1 2-1-1 7h4v4h-4v3l2-1h5l-1-9c5-3 9-5 12-9l3 1 4-4v-3l5 2-4-4 10-8 3 2 5-5-1-2 5 2c0-2-2-3-3-4l4-5 7 2c-1-5-4-9-4-14 3 1 5 4 7 6l4 5 3-12m15 41v-5c-2 1-1 4 0 5m28 1c0 2 1 5 3 6l1-1-4-5m-15 10 1 1v-10c-3 2-1 6-1 9m-83 7c-1 3-1 7 2 8v-8h-2m-10 3c3 0 6 1 9-1l-4-1c-2 0-4 0-5 2m108 0 2 2v6l2-1c0 3-1 5-3 7 3 0 4-3 4-6s-2-7-5-8m-121 5c0 3 5 2 7 2 0 2 0 5 2 6v-9l-9 1m13-1v10c3-2 2-6 2-8h6l-1-2h-7m133 0c-1 1 1 3 2 3 1-1-1-3-2-3m-27 7 1 4c2-1 1-4-1-4m-119 8c-1 3 3 0 0 0m-2 3 1 2c1-2 1-2-1-2m53 12c3 1 3-3 5-5-3 1-4 3-5 5m34 5h1l-1-2c2-1 2-3 1-4-2 2-1 4-1 6m11 1 2 2c-1 1 0 2 2 1-1-1 0-3 1-4-1 2-4 1-5 1m-12 5v9l1-2c-1-4 0-7 1-11-2 0-3 2-2 4m-60 1c0 2 0 2 2 2 0-2 0-2-2-2m13 9v2h9l-9-2m46 6c2-2 1-4 1-6-2 1-1 4-1 6m28-4c-1 1 0 3 1 4 2-1 1-4-1-4m-29 9-1 10c2 0 2-2 2-3 2-4 0-7 1-11-2 1-2 3-2 4m71 2-5-1 3 4h3v-5l-1 2m-136 7c0 2 4 2 4 0h-4m35 2c-1 2 4 3 2 1l-2-1m21 0c-1 2 2 3 3 2 0-1-2-3-3-2m8 0c-1 1 0 3 1 2l-1-2m-49 1c-1 0-2 3 0 3 2 1 3-3 0-3m28 0c1 1 1 1 0 0m7 0c0 2 0 3 2 2 0-2 0-2-2-2m-42 2c1 1 1 1 0 0m21 0c1 1 1 1 0 0m24 15 1 1 7 1c0-2-2-1-3-1-1-1-3-3-5-1m24-2 1 5c0 2-3 1-3 3l6 1c-4-2-3-6-3-9h-1m28 13c-1 2 1 4 3 3 1-2-2-3-3-3m-95 20c0 2 0 2 2 2 1-2 0-2-2-2m-18 9c2-2 3-5 3-8-2 2-3 5-3 8m-4 4 2-3 1-5c-2 2-3 5-3 8m24-6v2c1 4 4-3 0-2m2 11c1 3 3-1 0 0m31 0c-1 2 2 3 3 2 1-2-2-3-3-2m17 0v9c3-2 0-5 1-7 1-1 1-2-1-2m15 5c2 0 2-3 0-3s-2 3 0 3m-1 2c0 2 0 2 2 2 0-2 0-2-2-2m0 6c0 3 3-1 0 0m-80 12c-2 1-2 4-2 5 1-1 1-4 4-5 1 0 3-1 4 1-1-3-4-2-6-1m4 10c-1 2 0 2 1 2 1-2 0-2-1-2m7 7c1 1 1 1 0 0m21 0c-1 3 3 0 0 0Z"/><path d="M416 110c5-2 9-4 13-3-2 4-6 6-10 8 0 2 3 2 4 2l-1 4-3-1-5 6-3-2 1 4c-4 2-7 4-9 8l-3-1-4 4v3l-3-2 2-8h4c-1-3-4-4-4-7l7 4v-11c-3 0-5 4-8 5l4-8-4-1 21-6 1 2ZM994 107h2c0 4-2 8-4 11v6c-3 2-7 2-10 0v-5c2 3 4 0 5-1l3 3-1-6h3c2-2 4-5 2-8ZM793 114c2-3 5-5 8-6l-8 6Z"/><path d="m967 110 6-2h1v1l-6 2c0 9 2 18 9 24 2 3 6 3 10 4l-6 4c-10-4-13-14-15-24-2-1-1-4-3-6h-4l-5-2c0 9 0 20-6 28-2 4-6 6-10 7l5 7c3 1 7 0 10-1 0 5 1 10 3 14l5 10 3 8c0-5 0-9 2-13l4-8v1l-3 15v14c-2 5-1 9-1 14-1 2 0 4 1 6l-13 1c0 1 0 3 2 3 3 4 7 8 8 13a565 565 0 0 1-10-5c-2-2-4-4-7-4l1 22 4-1c3-4 8-7 12-9-1 5-4 10-8 14-1 2 1 3 2 4l2-1 14-1c4 6 7 13 12 18l1 4c-3 1-5-1-8-2 1 5 5 9 8 13v6l2-1 1 3 2-2 8 8 7 4 8 6v-15l2-3-10 2 1 7-2 1c-1-4 0-9-2-13l2-3 1 5c2 0 4-2 5-4l-3-9 3-1 5 5c-1 3-1 5 2 7l-1 2h2l4-9c1-3-1-6-2-8l4-3 3 1-2 6 2 4c-3 0-4 3-5 5l5-1c1 3 1 6 3 8l7-3v3l4-1c3 2 6 6 3 10l6 2v-6l-1 4-2-1 3-6 4-1 1-3v6c2-3 1-7 1-10l-2-1 3 1 1 1c1 3 0 6 2 8l1-6 3 4 1-4h2c0 4 3 7 3 11 0 2 1 5 3 7v-6l-5-13h-6l-3-3 2 1c3 2 7 1 10 2v-3l1 3 6-2v3l1 2v2h2l1 4c-4 8-10 15-16 22v-5c-2 3-5 6-6 10l-12 7c-10 5-22 6-34 8v-7l-5-4c2-1 6-1 5-5 0-4-3-6-6-7-4-1-9 0-13-2l-10-7 8-4h-2l-2-8c-2 2-2 4-1 6h-2l2 2c0 4-4 2-5 0l2-2-3-1c-1 2-1 4 1 6l-1 6-3 2-3 4-3-1-3 9 2 1c2-3 4-6 8-6 5 1 7 7 6 11-1 2-3 3-5 3l-2-3-4-1-1 5c-18-4-32-16-42-31l2-3h-4l-3-6 1-1c-5-5-7-12-10-19 0-2 2-3 1-5 0-2 3-4 5-5 2 0 3 2 5 3-2-4 1-9-1-13 0-5 7-5 9-8l-8-3-4-13 2-2-7-4a637 637 0 0 1-1-3v-7c0-3 2-5 4-7s5-1 8-2l-2-3v-3l1-3-4-2c-3-1-5-3-6-5-1-3-4-6-4-9v-5l6-1c-2-3-4-5-7-6h-1l-4-6-1-4c7 3 16 5 23 9 2 1 3 4 4 6l-3 2c5 2 10 3 14 6 0 3-2 3-4 2 3 4 8 4 11 8 3 7 3 14 3 21l5-1c-2-14-4-29-13-41-8-10-17-18-26-26-3-3-8-4-10-8l2-6c1 3 2 6 5 8 7 6 19 4 24-3s6-15 5-23h-6l-1 3v1c-2-1-5-3-6 0l-1-6 11 1 9-1v2h6l2-2v4l2-4m-39 58c0 3 3-1 0 0m14 17c0 2 0 2 2 2 0-2 0-2-2-2m2 6c0 3 3-1 0 0m-10 5c-1 1 2 3 3 2 1-2-2-3-3-2m14 11c1 1 1 1 0 0m-14 5-9 6c4 0 9 0 13-3 2-2 4-5 7-5-3-3-8-1-11 2m16-3c1 1 1 1 0 0m0 6 1 2 2-4c-2 0-2 1-3 2m-19 11c0 2 0 2 2 2l-2-2m0 8c-1 2 2 3 3 2 1-2-2-3-3-2m30 19 3-1-1 5 1-2 5 1h1v-3c-2 0-6 1-5-2-2 0-5 0-4 2m7-1 5 2c2-3-4-4-5-2m1 4c-1 1-1 1 0 0m-3 2c-2 3 3 1 0 0m-2 3-4 6c2 0 4-2 5-4 1-1 0-2-1-2m-18 3 2 3-1 2c3-1 7 1 8-2l-6 1-1-3-2-1m-11 2c-1 0-3 2-1 3s4-2 1-3m22 1c-2 3 3 0 0 0m-23 4c1 1 1 1 0 0m36 3 1 5h3l-4-5m-20 4h2l1-3-3 3m-16 0c1 3 3-2 0 0m11 7-2 3c1 2 4-2 2-3m31 4c-1 2 0 2 2 2 0-2-1-2-2-2m-41 1 1 4c1-1 2-4-1-4m91 3 3-2 5 8h1c0-3-2-5-3-8-2-3-6-1-6 2m11 0-1 4 3-3 6 3 1-2-9-2m19 1v5c1-1 2-5 0-5m-120 2-1 1c1 4 5-1 1-1m123 9c2-2 3-6 2-9-1 3-3 6-2 9m-4-5-5 10c4-2 6-7 7-11l-2 1m-4 17c-3 0-5 1-6 3v1c5-1 9-4 11-8v-1l-5 5m-17-4c3 2 8 2 10 0h-10Z"/><path d="M976 109h1c3 1 7-1 8 2h4l-1 2-1 1c-1-4-4-1-7-1l-3 1v-3l-1-2ZM936 111v4c-2 0-3-1-3 2l-3-1v-3c2 0 6 1 6-2ZM926 113l2 3c-1 0-3-2-2-3Z"/><path d="m922 117 1-3c1 2 3 4 5 4l3 1-1 4 2-2 6 4 1-3h3c-2 5-8 9-14 6l-1-5c-1-2-2-6-5-6ZM1266 119a1238 1238 0 0 0 8-4l-3 6c3 1 4-2 6-4 2 1 4 3 6 2 6 1 11 2 15 7l-2 3c-3 0-5-1-8-3l2 5c5 5 11 8 17 9l14 5c-1-4-4-6-4-10 0-2 1-7 4-5l2 26 9-1 17-1c1 3 1 6 3 8v-6l6-1-4 17v12l1 1 1-14 1 5 4-10c3-2 6-3 7-6h-3c0-2 1-3 3-4l1 3v-4c5-3 11-1 16-2s11 1 16-1l6-1c2 4 1 9 2 13l2 32 1 15-55 4-2-4 7 1-5-3 2-2h-3c0-3 1-5 3-7 2-3 5-5 5-9h-12c3 3 8 0 10 2h-2l-4 10-6-4-7-6c2 0 6 2 7-1h-8c-1 4 3 5 5 7l5 9c-5-2-9-4-13-8h-4l1 15-4 1-6 1v6l-7-2c-1-5-4-10-3-15l-6-5 1-3-3 3-2-4 6-4h-6c1-3 2-5 4-5 6-2 12-4 15-9l-10 2c-3-1-6-3-9-2 2-2 4-4 7-4l12-1c3-1 6-3 7-6-3 0-6 2-9 1-4-1-7-2-11-1l8-3c2-2 5-3 6-6-7 3-15 1-22 4-5-1-10 2-11 7 0 3-3 5-5 7l4 1 1 7-5-4c0-3-2-4-4-4l-2 2v-5l-2 4-3-1-1-2c1-5-3-9-7-12v-4c6 2 11 6 16 11 2-1 3-4 4-6 4-4 9-10 16-10l8-2c-3-3-5-6-9-6-2-1-4 0-6 1-1-3-1-5-3-7-4-2-9-3-12 1-2 2-2 5-1 8 1 2 4 0 7 0v4c-3 1-7 1-9-2-3-2-3-7-3-10 3-1 6-2 6-5 1-4-2-8-6-7-3 0-5 2-5 5-1 2 1 4 3 6l-7 5 1-8v-4l1-4-2-3c-1-2 0-5-2-6v-1m53 39c0 2 0 2 2 2 0-2 0-2-2-2m75 5 2-1c0 2 1 3 2 3l1 8c-5-2-10-1-14-2 0 1 1 2 3 2 4 0 9 0 13 2 2-1 3-2 2-4l-2 2c-3-5-2-10-4-15l-3 5m-49-2c-1 2 0 4 1 5 2-1 1-4-1-5m-63 10c-1 1 0 4 1 2 1 0 1-3-1-2m75 12c-1 2-1 6 1 6 0-2 1-5-1-6m-35 6-10 7c4 1 8 0 12-1 3-1 4-4 6-5l4-3c-4-1-9-1-12 2m46 5c0 2 0 2 2 2 0-2 0-2-2-2m10 3c0 2 0 2 2 2 0-2 0-3-2-2m-61 14c1 3 3-1 0 0m5 3c0 2 2 3 3 2 1-2-2-3-3-2ZM389 117v1c1 1 3 3 3 5l-6-4 3-2ZM319 121c2 0 2-2 2-2l4 1 3-2 1 22h-6l1-2c-2 0-2 1-1 2l-10 1v-3c3 1 2-3 3-4l-4 2-4 1c-1-2-4-2-6-2h-2l3 2-3 2 4-2c2 0 3 2 5 3h3v1l-24 1-20 2-1 2-1-1-5-4-8-1 4-2-4-2-2-1h-1v2c1 4 0 8 3 11h13l-1 5a666 666 0 0 0-8-3c-2 2-1 5 2 6l9-1v3l-7 1 8 6 1 24 58-3 1 21-58 3 2 35 1 17h13c1 3 3 7 6 9l-1 2c2 2 3 4 6 4l-2 3 4-2 2 4-17 1-3-9c-1 3-2 6-1 9l-5 1c-2-4-4-7-4-12h-2l-1-2-3 3-4-2c0 2 2 3 4 4l3-2 2 4-3 1-4-2c-2 0-1 3-1 5l-5-1 1 5h-9l-6-96 3-1 3-3 3 3 1-3 6 1-1-3 5 2 1 2c2-1 3-4 1-4-6-2-11-5-14-9 2-4 3 1 5 1h4c0-3-1-6-3-8l-10-9c-3-2-6-4-6-7h4c1-1 2-1 2-3l-3-7v-4c2 2 5 1 3-2h-3l1-1-1-1-1-1-1-2-1 2c-2-3-1-6-1-9l29-1v2l3-3c1 2 2 4 4 3 1 1-1 2-1 4l5-2c2 1 4 3 7 3l2 2-4-1 2 3h3c3-2 4 1 7 0 0-1-2-2-3-1v-2l-3 2-2-2c3 1 4-4 1-4l-2 1c-1-2 1-4 2-6l12-1-3 3c3 2 3-2 5-3h8l2-1c1 1 2 3 1 5a1569 1569 0 0 0 5-2l-4 2c0-2 1-4 2-3m4 2c-2 2 3 0 0 0m-2 2-4 6 3 2-2-1 5-7h-2m3 1c0 2 2 4 2 2l-2-2m-44 3c0 2 1 2 2 2 1-2 0-2-2-2m17 1c0 4 3-1 0 0m8 0c0 2 0 2 2 2l-2-2m4 2c1 1 3 1 2-1 0-2-4 0-2 1m13 1c1 1 1 1 0 0m3 1c1 1 1 1 0 0m-3 1c0 1 1 2 2 1 0-1 0-2-2-1m-3 1c-1 3 3 1 0 0m-3 2c1 1 1 1 0 0m-57 53 2-3c-2 1-5 2-2 3m18 3c0 2 2 4 3 3s-1-3-3-3m42 2c0 2 4 3 5 1-1-1-3-2-5-1m-73 1c1 1 1 1 0 0m27 3c1 1 1 1 0 0m-10 7-2 3-2-2 4 3h1c3 3-5-1-3 3l5-2 1 4 1-1v-4h-1v-2l-4 1 1-3 4-1c-2-2-3 1-5 1m10 1c0 3 3-1 0 0m-22 5c1 1 1 1 0 0m7 0c-2 3 3 1 0 0m-4 1-3 4v-3l-3 1c1 1 1 3-1 3v1c2-2 4 2 6-1l1 2c-1-2 2-3 1-6l-1-1m2 2c0 2 0 2 2 2 0-2 0-2-2-2m-9 6c0 2 3 1 3 0 0-2-3-2-3 0Z"/><path d="m277 122 3-1-1 3-2-2ZM381 122l2-2c2 3 2 7 2 10l8-5c-1 3-5 6-3 9l-2 5c-3 2-3 6-6 6l1 2-3 4c-1-3 0-6 1-10-2-3-2-6 1-7-2-4-2-8-1-12ZM1008 124l1-2v2l2-2 2 3-7 6h-2l2-1 1-4c-2 0-2-1-2-3l3 1ZM205 126l5-1-1 10-4 5-1-3c-2-3-3-6-7-8l8-3ZM133 129h7v5l-2-1 2 2 2 41h-3l1 5-5 1v4h5v5h-10l1 4h9c1 3 1 6-1 9 2 0 5 2 6 0v-9l8-1h1l6 2-1 2-1 2-2 3 2 1-7 8 1 3h-7v5c-1 1-4 2-3 4 0 3 2 5 3 7v6l-5-9v-4c-3-1-6-3-7-6l3-5c-2-1-4-2-5-5l-2-1 1-5-5 2-7-6-1-15 4 3-1 5 4-2 3 2c2-2 4-2 7-2l-1-8-2 2c1-1 3-2 2-4-4-3-10-4-13-8h2v-2c-2 0-3 2-3 4l-2-1-1-12c2 2 6 4 5 8l3-2-1 3c3 3 6 6 9 7h5c-1-2-2-5-4-5l1 5c-3-3-7-6-7-11l-2-2c2-1 2-2 2-4l3 4c4 3 4 8 8 11h1c1-4-2-9-1-13l-2-4c0-2 1-5-2-5h3c0-6-5-10-8-14l4-9m-10 43c0 1 2 3 3 2 0-1-2-3-3-2m0 20 1 4-4-1 3 3-1 2 5 1-1-4h3l-6-5m24 4-1 4 4-2 4 1-1-3h-6m-16 5h8v-4c-3-1-9 0-8 4m14 6h4l-1 3c3-1 5-4 7-6h-4l1-3c-4 0-5 4-7 6m-11-5 1 4-3-1-1 2c3 1 4 4 7 4l-1-3h4c-1-3-4-5-7-6m9 6c-1 0-3 2-1 3s3-2 1-3m-3 4-5 5c1 3 3 4 5 5l1-3c-1-2-1-5 1-7h-2ZM114 131l15-1-4 5v-4l-5 3h-1l-4 1-1-4ZM189 134l4-4 7 13-8-1-3 4-1-7c3-1 3-3 0-3l1-2ZM406 136c1-3 3-5 5-5l-5 5ZM67 133l30-1 1 5c-5-2-10-4-15-3 1 5 8 6 12 9-1 1-3 1-3 3s2 3 3 4h5l1 3h-9l-3-4c-2-3-6 0-9 1v-3l3-2h-2c2-3 2-7 1-10-3 1-5 5-6 8v1h-4l2-2-3-1-4-6v-2m2 2c-1 3 3 0 0 0m20 12c0 2 2 3 3 3 2 0 0-2-1-2 0-1-2-3-2-1ZM392 134c2 1 0 5-2 5l2-5ZM0 137l13-1v6c-2-2-4 2-2 2l1 1v2c1 4-1 8 2 10l-14 1v-21ZM958 136h6v4l4 1-1 6-5-2 1 5h-3l1-5-5 3-2-2 1-2-1-2 5-1-1-5ZM45 137h3l1 3 1 2a145 145 0 0 0 4 8c1 4 3 8 6 10-2 1-1 3 1 3l2 1v12l-7-6h-2c-3 0-6 1-9-1l2-1 2 1c1 0 4 1 5-1h-3v-2c-2-2-5-4-5-8 1 3 4 5 7 5 3-5-1-9-3-12v-1l-5-13m4 8c1 1 1 1 0 0m6 19c1 1 1 1 0 0m5 1c-1 4 3 0 0 0ZM37 138l-3 18-4 1c1-7 4-13 7-19Z"/><path d="M117 140h10l-3 2-1 6 8-5v10c-3-2-5-4-8-4 0 2 2 4 4 6v4h-4l-1-2h-4l4-8c-3 0-5 2-6 4l-1-9 1-1 1 1c0 3 2 4 5 4-1-4-3-6-5-8ZM390 142l2-2 3 4-8 8c-1 2-3 2-5 2 1-2 1-5 4-6l-2 5 2-1c2-3 5-4 5-8h3c-1-2-3-2-4-2ZM362 149l1-3 6 8-7-5ZM189 148c2-1 2 2 1 2l-1-1v-1ZM394 148c1 1 1 1 0 0ZM971 151l3 2-4 11v-5l1-8ZM212 160c1-1 2-2 3-1l1 13v11c0 2-2 2-3 2-3 3-8 4-12 5-3 2-8 4-7 8 0 2 3 3 5 3v1c0 3-3 3-5 3v3l-6 2h-3l1 3-24 1 9-10 1-2 7-7 3 3v-1c-1-1-2-4 0-5h8l2-1-1-8a585 585 0 0 0 5-3c6-7 14-11 18-19l-2-1m-2 10c1 1 1 1 0 0m-3 1v2c2 0 2-1 0-2m2 1c0 3 3-1 0 0m0 2c0 2 0 2 2 2l-2-2m-6 2c0 1 3 3 4 0 0-3-2 0-4 0m-8 12c2 0 2-2 1-3s-1 2-1 3m3-1c0 1 0 2 2 1-1-2-1-2-2-1m-2 2c0 3 3-1 0 0m-11 4c1 1 1 1 0 0m-2 5 1 2 3-1c0-2-3-1-4-1m8 1c0 3 3-1 0 0m-3 3h1v-2c-2-1-3 2-1 2m-6 1v1h-2c-1 2-3 1-5 0 0 2 2 2 4 2 0-2 3-1 3 1h2l-1-2h1v-1c-3 3-1-2-2-3-2 0-3 2 0 2m9-2c-2 3 3 1 0 0m-7 1c1 2 1 3 3 3l-1 3 2-2-1-3-3-1m-9 7-1-3c-2 0-1 4 1 3m15-3c0 3 3-1 0 0m-8 2c-1 1 1 3 2 3 1-1-1-3-2-3ZM190 160c6 1 12-1 17-1l1 1-1 1c-4 0-9-1-14 1-1 0-5 0-3-2ZM244 175c4 3 2 8 0 12v-12ZM60 186h4v4l-4-4ZM42 187l8-1 4 5-3 6c1 2 2-1 4-1 3-1 6 2 7 5-3 3 1 7-2 9 0-2-2 1 0 1-5 2-9-1-12-4l-1-2h-1l-2-1-1-1c-1-4-1-8-3-11l2-2v-3m14 20c1 0 4 0 4-2l-4 2ZM164 193h3c0 3-4 5-6 8l-1-1 4-7ZM1044 197c3 1 5 4 7 6l6 6c2 1 2-1 3-2v2c-3 2-6 2-9 1l1-3-8-10ZM210 200h6l2 1h-2l-2 1 2 2-2 3 3-1-1-2h2v6l-4-2-2-1 1-2-2 1-1-1v-5ZM197 215c2-3 4-6 7-7l1 7v-5h3c2 1 2 4 3 6-1 2-4 2-7 2l-1 1h-3l1-3h-1l-3-1m9-4c0 1 0 2 2 2 0-2 0-3-2-2ZM1305 209l5 3-2 2c2 1 3 0 5-2 1 2 2 5 1 7a140 140 0 0 0-4-1c-1 4 2 7 3 10v6l2 6v-4l2 1v-5l9-6 1 5-7 3c2 1 5-1 7-2l1 4v13l17-1 37-2c2-1 3 2 5 2l2-2 30-2 1 1 3 37v17l-6 2v-4l-4 2 2 2c-3 2-6 1-9 2-2 0-3-2-4-3-3 2-7 4-11 3h-8c-3-1-7 0-9-4 1 3-2 4-4 3-2 1-4 3-7 2-1-1-3 0-4 1l-14 2c-7 1-14-1-21-1-4 0-8-2-13-1l-11 1-7-2c-1 3 0 5-2 7-2 0-1-3-3-3l2 4h-12l-1-10c2-5-2-10-1-15h1l4-3-2-4 5 3 1-2-2-2h8l1 6c2-2 1-4 0-6l3 2v-2l3 1v2c1-1 3-4 4-1l2-3c-2-2-3-3-3-5 3 1 4 4 4 7l3-2c2 1 4 2 6 1l-8-4h3v-4l1-2-2-3h3c1-2-1-3-2-4h5l1-2h1l-1-4 4-2-4-3 2-1c-3-3-7-2-10 0l2-3c-2 0-4-1-5-3l5-4h-6l3-1 1-2 2-2c-3 0-7 0-9 3l1-5 11-1-6-8 2-2-2-2c1-2 0-4-2-6l1-5m13 29c-1 2 0 3 2 2 0-2-1-2-2-2m78 13c0 3 4-1 1-1l-1 1m-47 7 3 2 2-8c-1 3-2 5-5 6m9-5 3 6c0-2-1-5-3-6m40 8 3-1-1 2c0-1 2-2 1-3s-2 1-3 2m4 2c0 2 0 2 2 2 0-2 0-2-2-2m-6 6c3 0 6 0 8-2-1 2 0 3 2 3l-2-4c-2 2-5 3-8 3m-40 4-2 6c2 0 2-3 2-4l2-1-2-1m50 1c-2 3 3 1 0 0m-32 10 3-1c-3-1-4-3-5-6-2 2 1 5 2 7m-55 1v2c2 0 2-1 0-2m92 2c-1 1 0 3 2 3 1-1 0-4-2-3m-130 5v-4c-2 0-3 4 0 4m0 2c-1 1 0 2 1 2v-2h-1m132 0c0 2 0 2 2 2 0-2 0-2-2-2m-131 3c0 1 0 2 2 2 0-2 0-2-2-2m117 1c0 2 0 2 2 2 0-2 0-2-2-2m-9 3 2-1c0-3-5 0-2 1m-105 0c-2 3 3 1 0 0m2 4c-1 3 3 0 0 0ZM119 211c3 3 7 6 9 10 3 2 4 6 7 7a91 91 0 0 0 0 1c2 5 5 11 6 17l3 13h2l1 2c0 1 1 5-1 6l2-1 1 25h-2c-2 0-2-3-4-3l-4 4-2-2 1 2h-8c1-2 0-3-1-3l1 3h-6l-1-13 2-1h5v-2h2l-2-2 6-2c-1-2-4-2-6-3l6-2 1-4 4-5-1-9c-2-4-6-7-10-9 1-1 2-3 1-5-3-2-7-3-11-3l-1-10c2-1 3-1 4 1v-2h-4v-10m2 13c0 1 1 2 3 1-1-1-2-2-3-1m9 5c1 3 4-1 0 0m1 58 2-3 3-7-5 10m-3 0c0 3 3-1 0 0ZM45 212c3 3 4 7 6 10 5 2 10 1 15-1l1 16c-3-2-7-1-9-5 1-3-4-3-5-5l2 4h-3l1 2h-2l-2-1c0 4 3 8 5 11v2c3 1 5 3 6 6 2 1 3 4 4 7l-1 2h3c0 2 0 3 2 2v13l-4-1 2 2a89 89 0 0 0 0 4l-2 9v2l-2-3a425 425 0 0 1-5-1l-2 1c0-3 2-4 4-4-2-1-5-2-6-1l2 2h-3v-2c-1-3 2-4 4-3l1 1c1-2 2-4 1-5l-7-1 3-4-2-2v-2l4-4v-3c-3 2-4-2-4-4l-5 7c3 1 3-3 5-4l1 5a327 327 0 0 0-1 0l-1 4-2-3-2 5-4 1 1-2 1-1v2l2-3h-4l-1-11 4 2 3-2 1 1v-6l-3-1c0-1 1-3-1-4v2l-4 2v-6c2-1 4 0 4-2l-3 1c0-2 0-5 3-6l-1-5-4-2v-7c3-3 4-7 4-11m17 11c1 3 3-1 0 0m-6 2c0 2 1 2 2 2 1-2 0-2-2-2m-11 2c1 1 1 1 0 0m14 0c0 2 0 2 2 1l-2-1m-13 4c1 1 1 1 0 0m2 6c1 1 1 1 0 0m8 13c1 1 1 1 0 0m-2 2c2 0 4 2 5 3l1-2-6-1m1 5c1 1 1 1 0 0m6 1-5 8h3c1-3 3-5 3-8h-1m0 11c-1 0-2 3 0 3 1 0 2-3 0-3ZM565 215l2-3c5 6 4 15 4 23-3-1-5-3-8-3l1-8 1-9Z"/><path d="m217 217 2-1a7614 7614 0 0 0 4 71h-16c-3 0-2-3-3-4v5h-7v-15c2-4 2-10 5-14l7-5h-3l1-3c-5 2-4 8-8 11 0 2 0 6-3 7l-1-13c3 0 1-1 0-2l-1-9h3l-1 4c2-2 3-3 2-5h3l5 5 2-2-4-2-1-5c-4-2-5-8-4-12l-3-2 2-1v-2l-2 1v-1c2 0 2-1 3-2l-4-1-1 2 1-3 3 1 2-1 1 2v2l3 2-4-1 3 4h2c2 2 4 0 5-2h-2l3-2c1 0 3-3 3 0l1 2 1-1v-2c2 0 2-1 2-3l-2 1-1-1 2-3m-18 5v2l1-1v-1h-1m13 6v2c2 0 2-4 0-2m-8 4c2-1 2 1 3 3h-2 2l-1 3c2-1 3-2 2-4 2 1 3-1 4-2l-3-2 1 2-3 2-1-4-2 1-1-2c-1 1-1 3 1 3m0 5c1 1 1 1 0 0m-2 2c1 1 1 1 0 0m1 31c0 3 2 7 4 9 0-3-2-5-3-8l1-5c-3 0-2 2-2 4ZM970 232l1 5v2l-3-6 2-1ZM1273 233c3 1 6 2 9 5l-9-1v-4ZM922 235l2-1c3 2 3 4 3 7h-3l-2-6Z"/><path d="M194 237h4a45 45 0 0 1-1 7l-3 1v-8ZM611 247h2v2l-2-2ZM1035 252l3-2 5 7-2-1-1-2-5-1v-1ZM1279 253l4-3v6l-4-3ZM295 261l35-2 8 10v4c-3 0-6-2-8-4l-7-4 1 16-17 1h-2l-2-7c2-3-1-5-3-6h-3l2-5-4 3a499 499 0 0 1 0-6ZM922 261c2-2 4 1 2 2-2 2-3-1-2-2ZM290 264c2-1 4 2 3 4-2 0-3-2-3-4ZM1802 273c2 0 5-1 7 1h-3l1 7h-2v-7c-2 1-3 0-3-1ZM1810 273l2-1c1 2 2 5 4 6v-2h3l-2-1 1-3h2v9c-2-1-1-3-2-5-2 0-1 3-2 5l-4-6v6c-3-2-1-6-2-8ZM335 279l4-1v2c-1 0-4 1-4-1ZM620 307l5 1v4c-4 0-8 0-10-3 2 0 4 0 5-2ZM640 312h2l1 1 2 4-3 1c-2 0-3-3-5 0 3 1 6 2 9 1v3h-10l-2-2 6-8ZM992 327c1-3 5-3 7-2s2 4 2 6c-1 3-4 3-6 3v3h-3l2-2c-1-2-4-5-2-8ZM1002 337c2-4 8-3 11 0h-11ZM847 342c2-1 3-3 5-3s4 2 5 4h-2l-3-4-2 3 1 2-1 2v-2h-3v-2ZM827 352c2 1 5 1 4 4-2-1-5-1-4-4Z"/></g><g fill="#4f1811"><path d="M1642 49c1-1 3 1 1 2l-1-1v-1ZM1649 49h1v2l-1-2ZM1726 50c3-2 1 3 0 0ZM1558 55c1 1 1 1 0 0ZM1394 60c3 0-2 3 0 0ZM1920 63c-2-1-2-3 0-3v3ZM1369 64c2 0 2 0 2 2-2 0-2 0-2-2ZM1393 65c3-1 0 3 0 0ZM1556 65h1l1 1h-1l-1-1ZM1243 67l7-1 1 6 5 1 1 5c-1 5 2 11 0 16l-3 2h4l2 33v6c-17 1-34 1-50 3l1 16 1 18 4 72 1 14 1 15 2 38-6 6-6 1h-31l-8-1c-3 0-4-3-3-5h24l3-2 1 2c5 0 9 1 14-1 2-2 5-3 6-6l-2-33c2 1 3-1 3-2h-3l-1-15-1-12-1-29-3-47-1-14 1 2h4c-1-1-3-3-3-6l-2 2-1-1c-1-1-4 0-5-2s1-4 2-5c0 3 2 5 4 7l-1-16 1 2 3-4 7-1c-1 3 4 3 3 0l36-2-2-39h-4l3-3-4-1h4V73l-1-6h-7m9 9c1 1 1 1 0 0m2 16c0 3 3-1 0 0m2 15c-2 3 3 0 0 0m-50 30v2c1 3 3-3 0-2m1 6c-1 1 0 4 2 3 0-1-1-4-2-3m2 23c-1 3 3 1 0 0m2 62c1 1 1 1 0 0ZM1406 66c1 1 1 1 0 0ZM1372 68c1 1 1 1 0 0ZM1398 68c1 1 1 1 0 0ZM1366 69c2 0 2 0 2 2-2 0-2 0-2-2ZM1387 70l1-1c3 0 1 3-1 2v-1ZM1355 71ZM1435 70c1 1 1 1 0 0ZM1351 72c3-1 0 4 0 0ZM1371 72c3-1 1 3 0 0ZM1335 74l6-1c2 0 5-1 7 1h-3v2c-2-4-8 2-10-2ZM990 75h1-1ZM1207 74c1 1 1 1 0 0ZM1192 76c3-1 0 3 0 0ZM1319 77l12-1c-1 2-5 0-7 2-2 0-4 1-5-1ZM1557 77c1 1 1 1 0 0ZM973 77c2 0 1 3 1 4 0 2 2 3 1 4-2 2 1 3 0 5l-1 4h-1V77ZM1315 78c1 1 1 1 0 0ZM1310 79c1 1 1 1 0 0ZM1196 80c3-1 2 3 0 3s-1-3 0-3ZM1298 80c2 0 3 0 2 2-2 0-2 0-2-2ZM1303 80c3-1 0 3 0 0ZM1444 82c-2 0-1-3 1-3l1 1c0 2-1 2-2 2ZM1315 81c1 1 1 1 0 0ZM1460 81c2 0 2 0 2 2-2 0-2 0-2-2ZM1464 81c2 0 2 0 1 1s-1 0-1-1ZM1289 82c2 0 3 0 2 2-2 0-2 0-2-2ZM990 84c1 1 1 1 0 0ZM1106 91c-3-2-7-4-4-7l2 1 2 6ZM1019 88c2 0 4 0 5-2l3 3-6 2-1 3-3-1 2-2-3-1c-1-2 2-3 3-2ZM1029 91c-1-2 0-4 2-5 3 2 6 1 9 2 0 2-2 2-4 2l-7 1ZM1049 87c2-1 4 2 2 3s-3-2-2-3ZM1331 87c4 1-2 3 0 0ZM1178 91l3-3 3 3 3-1 2 1-1 2c2 0 3 0 4 2l-3 1c2 2 7 0 8 4 0 2-1 2-2 0h-14v-1c2 0 6-1 8-3l-2-3-3-1-6-1ZM1047 90c1 1 1 1 0 0Z" opacity=".7"/><path d="M1173 93c0-3 3-4 6-3l-6 3ZM1214 90c4-1 0 5-1 1l1-1ZM1231 93c0-2 2-2 4-2 2 2-3 2-4 2ZM1237 91c3-2 0 3 0 0ZM1012 93c3 0-1 3 0 0ZM1104 94l2-2 2 3 4 7 1 4c-4-1-4-5-6-7l1-3-4-2ZM1198 92c2 0 2 0 2 2-2 0-3 0-2-2ZM1194 95c-2 0-1-3 1-2 2 0 1 3-1 2ZM1004 95c0-2 1-2 2 0h-2ZM1183 94c4-1 2 3 0 3s-1-3 0-3ZM1215 94c3-2 0 3 0 0ZM973 97c-1-2 2-3 2-1l-1 1h-1ZM1170 96c3-2 0 4 0 0ZM1068 99c7 6 12 14 16 21 11 21 15 43 18 66l1 14 1 17c1 15 0 29-2 44-2 11-4 22-8 32l-7 13c-5 9-12 17-20 23a90 90 0 0 1-48 14h-9c-7 0-15 0-22-2l-3-5 7 1h21l2-1 1-6v7c12-2 24-3 34-8l12-7c0 2 0 4 2 5 4-1 4-7 4-10 6-7 12-14 16-22s7-16 9-25c2 2 2-2 0-1 5-16 5-32 6-48l-1-22c0-3-2-6-1-9l-1-7c-1-6 0-12-2-17s-1-10-3-14c-3-15-8-29-16-42l-7-11ZM1302 99c3 1-1 4 0 0ZM1171 100c2-1 2 2 1 2-2 1-2-2-1-2ZM1310 100c1 1 1 1 0 0ZM869 101c8 6 13 15 16 24 4 7 3 15 4 23 2 3 0 7 0 10l2 7-1 8c-2-3-3-6-6-8l1-6c-2-4-2-9-2-14l-1-10v-4l-3-12a52 52 0 0 0-10-18ZM973 108c0-2-2-6 1-8l1 4 2 2v3h-1l1 2c0 4-5 3-4-1h1v-2h-1ZM1184 102c2-1 3 3 1 3s-3-2-1-3ZM652 103l1 4 4 1 2 4 2 7 5 17 49 163 4 11 5 16c0 5 3 9 4 14l2 11-29 2h-11c-6 1-11 2-17 1l-2-5-4-1h12l16-1 30-2-6-18c-1-8-5-15-6-23l-7-20-21-73-7-22 2 3c1-3-2-6-1-10l-3-4-1 2-18-60-2-7-3-10m45 245c-1 3 3 0 0 0ZM1113 108c2-1 3 3 1 3s-3-2-1-3ZM1115 114l3-3v7h-3l2-1-2-3ZM1312 111c1 0 4 0 3 2-1 1-4 0-3-2ZM1307 112c1 1 1 1 0 0ZM1467 113c1 1 1 1 0 0ZM812 114l2 1c0 2-3 1-4 2l2-3ZM818 114l2 1c-2 1-2 0-2-1ZM938 116c1-3 4-1 6 0l-3 1-3-1ZM1184 114l7 3c3 0 6 1 8 4l3-1c2 2 4 3 5 6h-2l-2-1c0-2 0-2-1-1h-6c-1-2-2-3-4-3l-1-2c-2 0-4-1-4-3-2 0-3 0-3-2ZM1220 117l3-1 1 4c-2 1-4-1-4-3ZM822 117c3-2 0 3 0 0ZM959 117c1 1 1 1 0 0ZM973 118c3-1 0 4 0 0ZM979 118c2-1 3 0 3 1v5c-3 1-2-4-3-6ZM1365 121l41-3 3 7-82 4 2 26h3l-9 1-2-26v-7l44-2ZM998 119v2-2ZM464 122l1-2v2h-1ZM1117 121c2-2 3 2 2 3-2 1-3-2-2-3ZM1033 122c3-2 1 3 0 0ZM1145 122c2 1 4 2 1 3l2-1c2 5 6 8 7 13l-3-5c-1-2-4-2-6-3l-1 1-5-4-2 2 2-6c1 1 5 3 5 0ZM1437 123c2 0 2 0 1 1h-1v-1ZM1121 131c-2-2-3-4-2-7 3 1 1 5 2 7ZM1197 125l2 3 3-2-4 5v-3l-2 1 1-4ZM1209 125c1-1 4 0 3 2-1 1-5 0-3-2ZM1605 125c3 1-2 3 0 0ZM795 128l2-2h3l-1 1a226 226 0 0 0-7 4v3l-2-1 1-2-1-1c-1-3 3-2 5-2ZM1024 129c2 0 2 3 0 3s-1-3 0-3ZM243 130l1 2-2 1h3l1 1-1 1c-1-1-3-2-4-1l1-2 1-2ZM297 130c3-1 0 4 0 0ZM305 130l2 2c-2 0-2 0-2-2ZM940 130c1 1 1 1 0 0ZM1863 130c3-1 0 3 0 0ZM462 131c3 0-1 3 0 0ZM987 131c2-1 3 0 2 2-2 0-2 0-2-2ZM1200 131c2-1 3 2 2 3-2 1-3-2-2-3ZM1104 138v-6l1 6 16-1 14-1c5-1 9 0 13-2l7 8-4-1-1 6c2-1 7 2 3 4l-1-4-2 2 1 12c-2-1 0-5-1-7 1-4-3-9 0-13l-16 1-29 2-1-6m23 1c-1 3 3 0 0 0Z" opacity=".7"/><path d="M1121 133c3 0-1 3 0 0ZM119 134h1v1h-1v-1ZM325 134c1 1 1 1 0 0ZM511 134c2 0 3 3 4 4 7 8 10 18 13 28 2 7 4 15 3 22l-17 1-3-6 15-1-1-8c-2-14-6-28-14-40ZM1004 135h1c8 1 15 5 20 12-8-7-20-6-30-3-5 2-10 6-12 11-2 4-5 8-6 13-2 7-4 15-4 22 0 13 0 26 2 39l2 13 4 13 7 13-2-1c-5-5-8-12-12-18l-3-12-1-5-1-6 1-2-3-18v-27l3-15v-5 5l4-11 7-10 6-4 1-1c4-1 7-3 11-2l5-1ZM69 135c3 0-1 3 0 0ZM250 135h1v1l-1 1v-2ZM1201 137l2 3c-2 1-3-2-2-3ZM52 142c3 0-1 3 0 0ZM15 144c1 1 1 1 0 0ZM196 144c1 1 1 1 0 0ZM49 145c1 1 1 1 0 0ZM68 145c1 1 1 1 0 0ZM69 147c1 1 1 1 0 0ZM72 147c1 1 1 1 0 0ZM206 147c1 0 2 0 2 2-2 0-2 0-2-2ZM43 149c1 1 1 1 0 0ZM50 151v-1 1ZM1072 150c2-1 2 0 2 1-2 1-2 0-2-1ZM1407 151c2 1 1 4 2 6l5 1 3 35 1 24-34 2c-10 0-19 2-29 1-3 2-7 1-11 1l-11 2 2 26 10-1-17 1v-13l-2-19 6-1c6-1 12 1 17-2l8 1 55-4-1-15-2-32c-1-4 0-9-2-13m-78 69c-1 2 0 2 2 2 0-2 0-2-2-2ZM64 152c1 1 1 1 0 0ZM930 152c3-1 1 3 0 0ZM802 154l11-1c5-1 11 1 13 6l-19 1-26 1v9l1 16h-6c1-5-1-10-1-15l-1-16 28-1ZM45 154c1 1 1 1 0 0ZM927 155c2 0 2 0 2 2-2 0-2 0-2-2ZM458 157l1-1v5c-2 1-1-2-1-4ZM725 156c2-1 2-1 3 1-2 1-2 0-3-1ZM1676 157c1 1 1 1 0 0ZM42 158c1 1 1 1 0 0ZM123 159h1v1h-1v-1ZM125 160c1 1 1 1 0 0ZM1203 160c3 0-1 4 0 0ZM61 163c-2 0-3-2-1-3l1 1v2ZM425 164c8-2 17-3 24 0 3 1 5 5 8 3v-3h2l-1 7c-8-4-17-4-25-1-5 1-10 5-11 10v13c-7-2-7-10-7-16s5-10 10-13ZM933 162c1-1 4 0 3 2-1 1-4 0-3-2ZM1696 164c1 1 1 1 0 0ZM133 165c1 1 1 1 0 0ZM193 166c1 1 1 1 0 0ZM937 168c2 0 2 0 2 2-2 1-2 0-2-2ZM670 172c0 3 4 4 2 7l-3 1h-5l-2 4 3 2c2-2 3-4 5-2l-2 4-4 3c-2 0-3-1-3-2-2-2-4 0-5 0s-4 1-4-2h9l-1-5c-3 0-5 2-7 3-2-2 2-4 4-3 2-2 3-4 6-4l7-4v-2ZM56 174c1 1 1 1 0 0ZM209 174l2 2c-2 0-2 0-2-2ZM1276 175l1 2 3 1 3 4a102 102 0 0 1 4 9l1 2c-1 1-2-1-3-2-2-2-4-4-6-4v-4l2 1-2-2-2-3c-3 0-3 4-4 6l3-7v-3ZM56 178c1 1 1 1 0 0ZM727 178h2c3 1-5 3-3 1l1-1ZM194 182c-1-2 1-4 2-2l-2 2ZM57 180h4v2c-2-1-4 0-4-2ZM622 181h1l2 10 3 10-2-1-4 35c-2 9-2 18-5 27l-2 3-4-3 2-12h-3v-4l1 1 2 2v-2l2-15 2-8v-5l3-23c0 1 0 4 2 4l3-4-5-1 2-14m-3 40c1 3 3-2 0 0m-3 32c0 1 0 2 2 2 0-2-1-2-2-2ZM463 186l17-1 16-1-17 1 3 6-12 1c-2-1-1-4-2-6h-5ZM742 187c2 0 2 0 2 2-2 1-3 0-2-2ZM606 192c-1-2 0-3 2-4l3 3-3 3 2 1c-2 0-5 2-7 1l1-4-3 1c1-2 3-1 5-1ZM612 189c3 0 5 2 7 1-1 2-2 4-4 4l-3-5ZM201 190l1 1-1-1ZM643 191c2-2 4 2 1 2-1 2-3-1-1-2ZM664 194h1c1 2 3 1 5 1-1 4-5 0-7 1l1-2ZM928 194l4 2-1 3c-1-2-3-3-3-5ZM934 196c1-1 4 0 3 2-1 1-4-1-3-2ZM1288 199l1-3 5 5-6-2ZM638 198c1-2 1-2 2 0h-2Z" opacity=".7"/><path d="M1378 197c2-1 2 0 2 2-2 0-2 0-2-2ZM664 198h3l-1 3c-2 0-5 1-7-1l3 1 2-3ZM203 199c1 1 1 1 0 0ZM199 201c1-4 4 2 0 1v-1ZM651 203c1-2 3-2 5-2l-1 3v-2l-4 1ZM163 201c1 1 1 1 0 0ZM214 202l2-1h2v3h-2l1 2-3 1 2-3-2-2ZM1295 201l8 3c-2 3-8 0-8-3ZM44 204l2 1c0 2-3 1-2-1ZM56 207l4-2c0 2-3 2-4 2ZM190 206c3-1 0 3 0 0ZM1304 206c2-1 4 1 5 2-2 0-4 0-5-2ZM197 207c2 0 2 0 2 2-2 0-2 0-2-2ZM464 208c1 0 4 1 5-1-1 1-2 3-1 4-2 1-3 0-2-1l-2-2ZM598 208c1 1 1 1 0 0ZM60 211c-2 0 0-3 0-1v1ZM452 213c-1-2 0-4 2-4-1 4-2 7-1 11l-1 2v-9ZM884 209v9l3 6c-1 2-2 5-1 8l-1-1-1-8-2-1 2-13ZM196 210c3-1 1 3 0 0ZM1444 210c2 0 3 0 2 2-2 0-2 0-2-2ZM1669 211c3-1 0 3 0 0ZM211 212c3-1 1 3 0 0ZM53 213c1 1 1 1 0 0ZM258 213c3 1-2 3 0 0ZM950 215c1-1 1-2 3-2l-2 4-1-2ZM1322 214c1-1 4 0 3 2-1 1-3 0-3-2ZM613 215c3-2 0 4 0 0ZM1466 215c3-1 0 3 0 0ZM256 216c2 0 2 0 2 2-2 0-2 0-2-2ZM60 217c3-1 0 3 0 0ZM1312 218l2 1c0 2-3 1-2-1ZM55 219c1 1 1 1 0 0ZM1286 221c2 1 2 3 2 4-2 0-2-1-3-2l1-2ZM1204 222c3-2 1 3 0 0ZM1578 222c3-1 0 3 0 0ZM451 229c0-2-1-5 1-6 0 2 1 4-1 6ZM1626 224c3 0-1 3 0 0ZM1655 224c3-1 0 3 0 0ZM1558 225c1 1 1 1 0 0ZM130 229c4-1 1 3 0 0ZM450 234c0-1 0-3 2-4-1 4 1 7-1 11 0 1 0 3-2 3l1-10ZM931 234c1-1 4 0 3 2-1 1-4 0-3-2ZM54 235c1 1 1 1 0 0ZM197 235c1 1 1 1 0 0ZM48 237c1 1 1 1 0 0ZM204 237c1 1 1 1 0 0ZM607 238c1 1 1 1 0 0ZM1318 238c1 0 2 0 2 2-2 1-3 0-2-2ZM1468 240c1-1 3-2 4-1l-1 2c-1 0-3 1-3-1ZM886 239c1 1 1 1 0 0ZM812 241c4 1 8-2 12-1 4 0 9 1 12 4v2l-13 1-23 1-15 1 2 27 1 5 13-1-20 1-2-38 16-1 17-1ZM896 240c3 5 8 11 8 17v29l-2 17c-2 2-3-3-4-4l-3 2c0-3 3-4 4-7 0-3 2-5 3-8h-5v-6c2-6 1-13 2-20l-3-20ZM1460 240c2 0 3 1 3 2l-4 3c-1 0-4 2-4-1h4c1-1 2-3 1-4ZM63 241c2 1 2 1 0 2v-2ZM886 242c2 0 2 2 1 3-2 0-2-2-1-3ZM1463 243h6c0 3-5 3-6 0ZM1536 243c1 1 1 1 0 0ZM1419 244c3 0 1 4 2 6h6a2752 2752 0 0 1 2 55l-6 2v-4c-1 0-4 0-4 2 0 1 3 2 1 3l-9 1c-1-1-2-3-4-2-4 2-9 3-13 2-4 0-9 0-13-2-1 2-3 1-5 1l-5 2-4-1c-3 3-7 2-10 3l-12 1-13-1c-4 1-9-1-13-1l-13 1-7-2c-1 3 0 6-3 7-4 2-8 0-12 1l-1-6h7l-2-4c2 0 1 3 3 3 2-2 1-4 2-7l7 2 11-1c5-1 9 1 13 1 7 0 14 2 21 1l14-2c1-1 3-2 4-1 3 1 5-1 7-2 2 1 5 0 4-3 2 4 6 3 9 4h8c4 1 8-1 11-3 1 1 2 3 4 3 3-1 6 0 9-2l-2-2 4-2v4l6-2v-17l-3-37-1-1m-23 61c0 2 0 2 2 2 0-2 0-2-2-2m-103 6c-1 3 4 0 0 0ZM64 245c1-1 3 2 1 2-1 2-2-1-1-2ZM273 245v5l4-1v13h-3l-1-17ZM420 245l2 1c2 2-3 1-2-1ZM449 245l1 2c-1 1-2-1-1-2ZM400 246c3 0 2 4 0 3-2 0-1-3 0-3ZM435 246c2 0 2 0 2 2-2 1-2 0-2-2Z" opacity=".7"/><path d="M885 263c2-5-1-11 1-17 1 2 2 4 1 7 3 2 2 6 1 9l3 2h-3c0 3 1 6-1 9 1 2 1 5 3 7l6 1-2 2v-2h-4l1 5c-1 0-3 1-2 3l2-1h2c-1 3-4 4-4 7l3-2 1 3-1 2 1 2c-1 3 0 6 3 8l2 3h-3c1 7-1 14-6 18-6 7-15 12-24 14v3h-2l1-3-5 1 4 4-3 1v-1c0-4-4-2-5 0l2 2c0 1 0 3-2 3-2-1 0-2 1-2l-3-2 5-5h-7l-1-2 2-3 3 4h2c-1-2-3-4-5-4s-3 2-5 3v2h-1l-7 1c-2-1-1 4-4 1 0 1 0 3-2 3l1-4c-2 0-4 0-5 2l-4-3-2-4c3-2 6 1 8 1v-2l27-2-1 4c2-1 2-3 2-4 11-2 20-9 27-17 2-4 4-9 3-14l3-2-3-3c1-1 2-3 0-4v4c-3-2-2-6-3-9 2-5 0-10-1-14v-4l-1-6-2-1 3-4m-23 78c1 1 1 2 3 1-1-2-1-2-3-1m-35 1c1 1 1 1 0 0m12 0 2 2 1-1c2-1-2-1-3-1ZM378 247l32 8c8 1 14 5 22 6 2 0 5 0 5 2l-6-1c-8-4-18-4-27-6-3-2-7-2-11-3l-6-1c-2-1-4-3-5 0l-4-5ZM393 248c1 1 1 1 0 0ZM414 248c1 1 1 1 0 0ZM651 259c-3-2-3-7-1-10l1 6 2 1c0 4-1 9 1 13h-2c0-4-2-6-1-10ZM958 251c-1-2 2-3 2-1l-2 1ZM678 252c2 0 2 0 2 2-2 1-2 0-2-2Z" opacity=".7"/><path d="M448 254c1-1 3 0 3 2-2 3-2 6-1 9l3 1-3 2c0 2 2 1 3 2l1 4c-3 1-5 0-8-1-10-2-20-3-29-6-10-1-20-4-28-9l1-2 21 5c9 3 19 4 29 6 3 1 5 2 8 1l-1-3c2-4 2-8 1-11m-17 12v1h2v-1h-2ZM144 254c1 1 1 1 0 0ZM833 256c1 1 1 1 0 0ZM145 257l1 2h-1v-2ZM1398 261c1-1 2-3 3-2s-1 2-1 3l1-2-3 1Z" opacity=".7"/><path d="M438 263c2-2 4 0 5 1 1 0 3-1 3 1l-7-1-1-1ZM462 261h1c0 3-1 7 3 9l-6-1c0-2 3-1 3-3l-1-5ZM964 261c1 0 2 1 1 2-1 2-3 4-5 4l4-6ZM1087 263c3-1 0 3 0 0ZM1205 266c0-2 2-3 4-2-1 1-2 3-4 2ZM1472 263c1 1 1 1 0 0ZM338 264h4l1 22-89 4-1-5h6a562 562 0 0 0 22-2h4l17-1h5l32-2v-2l-1-5v-9m-65 20c1 1 1 1 0 0ZM663 264c4 0 0 5-1 1l1-1ZM1396 269c3 0 6-1 8-3l2 4c-2 0-3-1-2-3-2 2-5 2-8 2ZM660 267l3 2 3-1 2 3-1 1-3-3v3l-4-5ZM616 268c3 0 2 3 3 5l2 8h-2l-1-6-2-7ZM469 270c1 0 4-1 4 1l-1 1h-1l-2-2ZM459 271h4l5 3 2 4-14-3c0-2 2-2 3-4ZM934 271c1 1 1 1 0 0ZM643 274c3-1 4 4 2 4l-2-4ZM665 276l3-3 4 6c-2 0-3-1-4-3h-3ZM1852 274c2 0 2 2 3 4l3-1c1 1 3 3 0 4l2 1 1-5c2 1 1 3 1 5l1-3c4 1 0 8 4 9 0-2-2-4-1-6l4 4c-3 1-1 4-3 6l3 1c0 3-4 6-7 3v5h3c1 1-1 2-1 3l-1 5-3-2 2-3-3 2c-3 0-7 0-6-4l-2 4c-1-2-2-3-4-3l2-3v-4l-1 3-1-1-3-1 4-2-2-3 1-2-1-2c-1 1-3 2-3 0l3-4-1-4 2 1 4-4v-3ZM950 278l3-3-1 3h-2ZM680 277c1-1 2 0 1 1l-1-1ZM1687 276c3 0-2 3 0 0ZM65 279h1v1l-1-1ZM222 280l3-2 1 14-25 1 7-5h-11 7v-5c1 1 0 4 3 4h16l-1-7ZM56 280l1 1-1-1ZM67 281c1 1 1 1 0 0ZM647 282c2 1 2 4 3 7l-2-1-1-6ZM67 283c1 1 1 1 0 0ZM674 283c2 0 4 3 4 5h-3c1-2 0-3-1-5ZM620 284h1l2 5-1 2-2-7ZM838 289c1-2 3-4 6-4 3 1-1 3-3 4h-3ZM670 285l2 1 1 3-3-1v-3ZM1319 285c2 1 2 2 0 2v-2ZM128 287c3-1 0 3 0 0ZM538 287l6 10-1 10c-1 11-4 23-9 33-6 8-13 16-22 21-13 9-29 12-44 14-4-1-8 2-12 0l1-6 13-1c10-2 20-4 29-9 13-5 23-15 30-27 5-12 9-24 8-37l1-8ZM863 288l2-1c3 1-2 4-2 1ZM1411 287c2-1 3 2 2 3-2 0-3-2-2-3ZM649 291c3-1 3 3 3 5-2-1-2-3-3-5ZM1814 291c1 1 1 1 0 0ZM1489 294c2-4 7-2 10-2l1 2h8l3 5v1h-4l-2-3c-3 1-8 0-10 3l-9-1c-4 1-9 2-14 1-3 0-6-3-7-6 3 0 5 0 8 2h-3c-2 2 3 2 4 2l-2-4 8-1 9 1m17 2c1 1 1 1 0 0ZM683 293c2-1 4 3 2 3l-2-3ZM837 293c2 0 3 0 2 2-2 0-2 0-2-2ZM429 295l1-2 4 1c-1 4 2 8 2 12l-3-2v2c-1-4-4-7-4-11ZM622 294c3 1 2 5 3 7l-3-3v-4ZM1413 294c2 0 2 0 2 2-2 0-2 0-2-2ZM831 298c0-2 2-1 3-1 2-1 3-2 5-1 1 1-1 2-2 3-1 0-1 2-3 2l-3-3ZM807 301c-3 0-4-4-1-4l1 4ZM1282 297c2 0 2 0 2 2-2 0-2-1-2-2ZM652 301v-4c2 1 1 3 1 5 2 2 2 5 3 8l-2-1c-1-3 0-6-2-8ZM687 298c2-1 2 0 2 2-2 0-2 0-2-2ZM676 299c2 0 4 3 3 4-2 0-2-3-3-4ZM1390 301c-3-1 2-4 2-1l-2 1ZM685 300c3 0-2 3 0 0ZM397 301c4-1 1 6 0 2v-2ZM691 302c2 0 4 2 3 4-2-1-3-2-3-4ZM1099 302c3-1 2 3 0 3s-1-3 0-3ZM1476 302h4c0 2-4 3-4 0ZM609 303c1 1 1 1 0 0ZM895 303a409 409 0 0 1 0 0ZM614 304l9 2 3-1 1 2 4 1c3 1 7 1 9 4l-12-3h-2l5 7c-2 1-4-1-7-1l1-3v-4l-5-1c-2-1-5 0-6-3ZM814 306l4-2c1 3-3 3-4 2ZM812 305c1 1 1 1 0 0ZM830 308c1-1 3-3 5-2 0 2-3 1-5 2ZM1287 305c3 0-1 3 0 0ZM810 311c0-2 3-3 5-3 1 3-2 3-4 3l-1 2h3c0 2-3 0-4 0-2 1-3-1-5-2l2-2 4 2ZM680 309c2-1 3 2 2 3-2 1-3-2-2-3ZM642 312l3-1c0 2 0 2-2 2l-1-1ZM779 313l3-2c0 2-2 2-3 3-1 3-4 3-6 3-2 2-4 4-6 2l6-5 6-1ZM430 312c1-1 4 0 3 2-1 1-4 0-3-2ZM647 313c1-2 4-1 3 1l-3-1ZM699 312l1-1 5 7c-3-1-5-3-6-6ZM764 312c2-1 3 3 1 3s-2-2-1-3ZM655 313l4 1 1 2-4 1-1-4ZM1801 313c1 1 1 1 0 0ZM462 317c-2 0-2-3 0-3s2 3 0 3ZM682 314c2 0 2 0 2 2-2 0-2 0-2-2ZM791 314l2 3-2 1v-4ZM637 318c2-3 3 0 5 0l4 1c-3 1-6 0-9-1ZM667 317c1 1 1 1 0 0ZM684 319c2 0 2 3 3 3 0 4-4-1-3-3ZM777 320a1109 1109 0 0 1 0 0ZM781 324c2-2 3-4 5-4-1 3-4 5-2 8l-4 3h-3c-1 1-3 2-2 4l3-2c-1 2-1 4-3 5l-5 1 1-4c-3 1-4 4-6 6-2 0-5 2-8 0 1-2 3-3 5-3l-2-2-4 5-1 3a567 567 0 0 0-8-2l-2-2 1-1c0 2 3 3 3 1h6l2-3-2-2 4 1c2-2 3-6 6-6 0 0-3 3 0 3l4-1 4-5 3-3-3 2-1-3c3-1 6 2 9 1v2h1l-1-2m-3 3c0 3 3-2 0 0ZM646 322c5-2 10-1 15 0-2 3 0 7 1 11l-2-7a554 554 0 0 1-5 1c-2 2-5 1-7 1h-14c-8 2-17 2-25 2l-2 12v5c-4-1-4-6-7-8l2-9 1-5 18-2 7-1h18ZM736 324c2-2 5-2 7-3-1 3-5 2-7 3ZM448 322v6l1 27c1 4 2 9 1 13l3 2v6l-16-1c-15-1-31-5-43-15v-1c16 9 35 11 53 11 1-5-1-10 1-15l-1-24c-1-3 1-6 1-9ZM662 323h4c0 2-5 2-4 0ZM708 323c3-1 0 3 0 0ZM667 324c3-1 0 3 0 0ZM672 325c2 0 5 0 7 2-2 0-5 0-7-2ZM682 328l5-2c0 2 2 3 3 4-2 1-4-1-5-2h-3ZM691 329l7 2 1 1-4-1c-1 0-4 0-4-2ZM738 329c3 1 4 4 5 6l2 1c1 1 1 2-1 2l-5-6-1-3ZM702 332l9 1 8 2 2 2-6-1-4-2c-4 1-6-1-10-1l1-1ZM804 331c1-1 2 1 1 2-1 2-3-1-1-2ZM688 333c2 0 3 0 2 2-2 1-2 0-2-2ZM797 333c2 1 3 1 3 3h-3v-3ZM1809 333c1 0 4 2 3 4-2 0-3-2-3-4ZM800 339c0-2 2-3 3-3l6-1c0 2-2 2-4 2l-5 2ZM381 337c2-1 5-2 6 1-1-2-3-1-4-1-3 1-3 4-4 5 0-1 0-4 2-5Z" opacity=".7"/><path d="M748 336c1-1 4 0 3 2-1 1-4 0-3-2ZM786 336l5 2-4 2-1-2-5 2c1-2 3-3 5-3v-1ZM689 338c1-1 4 0 3 2-1 1-4 0-3-2ZM737 338l4 1c1 0 4 0 3 2-2 1-3 0-4-1h-3v-2ZM812 340c4 0 8-1 11 1l3 5h-1l-15 1-33 1c-6 1-12 0-18 2-3-2-7 1-10 0h-12v-5l-6-1h8c2 3 4 2 6 1l5 2c0-2-2-2-3-3h5c0 2 0 5 2 4l7 1 4-6c-2 0-3 1-4 3l-5 1-2-3c5-2 10-1 14-1-1 1-4 2-4 4l5 1 25-2 3-3-9-1-1-1c8 1 17-1 25-1m7 3c0 4 3-1 0 0ZM690 342c2-1 3 0 2 2-2 0-2 0-2-2ZM1457 344c3-1 0 3 0 0ZM385 347c1 0 2 0 1 2-1 0-2 0-1-2ZM830 349v-1l7 8-3 3a496 496 0 0 1-1 2l2-6-5-5v-1ZM845 348h4c0 3-4 2-4 0ZM851 348c3 1-2 3 0 0ZM825 349c3-1 0 3 0 0ZM838 352c4 1-1 3 0 0ZM392 354c1 1 1 1 0 0ZM540 354v1l7 1 15-1 15-1 4 6h-8l-26 2v-6c-2-1-6 1-7-2ZM747 357c1 1 1 1 0 0ZM1349 365h2l-5 9 3-9ZM1230 369c-1-1 1-3 2-3 0 2-1 3-2 3ZM1157 367c1 1 1 1 0 0ZM1162 379c-1-2 1-4 3-3l-3 3ZM1475 381c2 0 2 0 2 2-2 0-2 0-2-2ZM1153 383c3-1 0 3 0 0ZM1520 391c2 1-2 5-3 3l3-3ZM1520 395v2-2ZM1596 399c1 1 1 1 0 0ZM1661 406c2 0 3 0 2 2-2 0-2 0-2-2ZM1135 407l2 1c-2 1-2 1-2-1ZM1661 417c1 1 1 1 0 0ZM1682 433c1 1 1 1 0 0ZM1460 449v2-2ZM1257 456c2 0 0 2 0 3h-1l1-3Z" opacity=".7"/></g></svg>