<svg xmlns="http://www.w3.org/2000/svg" width="5378pt" height="1457pt" viewBox="0 0 5378 1457"><g fill="#00bbf1" stroke="#00bbf1" stroke-width=".09"><path d="M521.03 2.99c50.72-4.44 101.75-3.06 152.5.15 15.11 1.38 30.29.13 45.44.59 30.05.2 60.09 1.54 90.02 4.21 73.11 6.63 146.35 21.22 213.52 51.63 44.49 20.15 85.89 47.79 119.81 83.09a358 358 0 0 1 59.13 82.14c41.45-.74 82.91-1.68 124.36-2.58 19.33-2.36 38.66-4.83 58.08-6.37 45.95-3.75 92.47-4.74 138.16 2.32 35.1 5.5 70.16 16.49 99.14 37.61 14.77 10.7 27.56 23.99 38.15 38.81 67.88 6.09 135.75 12.33 203.65 18.34 45.33.91 90.67 1.54 136.01 2.33 9.98.07 19.98.65 29.98.06 83.73-3.4 167.46-6.83 251.19-10.19 21.11-27.49 46.5-52.62 77.75-68.32 25.6-13.04 54.46-18.64 83.05-18.74 32.84-.32 65.33 5.2 97.98 7.93 5.41.18 10.78-.93 16.19-1.21 31.95-2.55 64.42-1.88 95.82 5.09 34.43 7.45 67.39 23.7 92.29 48.9 16.6 1.71 33.21 3.31 49.82 5.02 3.38.49 6.65-.78 9.89-1.62 11.34-3.07 22.7-6.09 34.05-9.16 3.26-1.06 6.67-.14 10 .17 9.13 1.1 18.27 2.12 27.41 3.19.49-6.4.9-12.81 1.47-19.21.04-1.71.46-3.76-1.13-4.92-10.32-10.47-20.57-21-31-31.35-1.47-24.03-.53-48.62 6.63-71.76 5.45-17.66 15.34-34.22 29.64-46.11 12.92-11 28.7-18.13 44.93-22.73 19.56-5.55 39.86-7.86 60.09-9.3 26.25-1.9 52.59-1.72 78.89-2.39 50.4-.88 100.81-2.11 151.21-2.78 6.38 3.28 11.99 7.98 17.91 12.06 16.01 11.85 31.17 24.82 45.74 38.39 28.89 26.99 55.61 56.2 81.36 86.17 44.61-.36 89.22-.78 133.83-1.32 21.67-1.98 43.34-4.07 65.07-5.29 48.23-2.71 96.92-3.49 144.81 3.82 21.84 3.53 43.7 8.78 63.54 18.81 13.83 6.97 26.52 16.88 34.87 30.09 21.56 2.1 43.13 4.24 64.7 6.35 8.36.81 16.76 1.49 25.02 3.19 65.04 11.03 131.64 11.27 197.08 3.7 4.19-.7 7.45-4.27 11.84-4.29a140.5 140.5 0 0 0 29.95-4.55c16.47-4.36 31.78-13.15 43.51-25.56 80.89-13.55 162.63-22.84 244.67-24.8 4.74-.42 9.3 1.16 13.87 2.25 23.73 6 46.81 14.54 68.8 25.28 6.93 3.15 13.39 7.3 20.34 10.39 42.43 2.04 84.93 3.56 127.39 5.31 9.03-1.39 17.35-6.17 26.56-6.83 55.42-4.27 111.03-6.83 166.62-6.4 31.63 10.15 58.91 32.01 77.61 59.29 5.61-.21 11.23-.63 16.88-.87a187.7 187.7 0 0 1-3.6 7.41c4.77-.76 9.64-.72 14.49-.43 17.26 1.08 34.4 3.61 51.49 6.28a1444.97 1444.97 0 0 1 126.61 26.32c3.53.61 6.14 3.2 8.87 5.35 4.56 3.74 8.93 7.73 13.01 12.02 20.39 21.15 32.68 49.1 37.58 77.86 3.46 15.62 8.22 30.92 12.23 46.41 10.67 39.34 21.33 78.69 32.02 118.03.98 3.84 2.46 7.66 2.24 11.71-1.3 35.67-2.4 71.35-3.72 107.02 0 2.5-.81 5.44 1.21 7.46 24.9 34.11 49.6 68.36 74.57 102.42 22.09 28.96 41.06 60.54 54.21 94.59a289.75 289.75 0 0 1 19.67 94.92v15.2c-1.31 40.06-11.1 79.62-27.14 116.27-2.83 4.66-6.78 8.51-10.17 12.72-28.08 32.53-62.48 60.63-102.84 76.29-34.44 13.64-72.12 17.32-108.88 14.79-41.68-2.77-82.43-12.53-123.03-21.79-2.69-.7-5.24.62-7.75 1.19-24.76 6.7-50.61 10.26-76.26 8.22a153.94 153.94 0 0 1-84.36-32.84c-28.57-22.63-49.36-53.66-64.77-86.35-9.46-33.98-18.26-68.16-27.55-102.19-85.77-13.41-172.58-18.65-259.29-20.94-3.43.05-6.67 1.23-9.92 2.04l-139.06 35.76c-10.53 18.15-26.99 32.44-45.9 41.36-19.76 9.49-41.45 14.17-63.09 16.79-38.19 4.48-76.72 2.7-115.01.87-23.65 1.09-47.32 1.94-70.99 1.47-40.8-.84-82-4.22-121.24-15.98-19.45-5.94-38.4-14.22-54.77-26.4a117.93 117.93 0 0 1-28.92-30.72l-37.87 17.87c4.47 83.71 8.05 167.86-.01 251.47-4.59 45.29-12.73 90.66-29.6 133.12-.99 2.2-1.57 4.89-3.87 6.11-16.02 10.71-33.17 19.98-51.62 25.72-17.34 5.44-35.94 7.44-53.91 4.36-20.08-3.34-38.72-12.82-54.68-25.24-25.38-19.82-45.04-45.85-62.4-72.72-33.16-51.86-66.46-103.63-99.63-155.48-137.15 1.3-274.3 2.64-411.45 3.93-21.08.16-42.44 1.35-63.14-3.48a133.1 133.1 0 0 1-45.01-18.67c-15.31-10.01-28.27-23.35-38.64-38.36-20.17-29.23-31.23-63.65-38.46-98.14-34.02-1.38-68.03-2.78-102.04-4.2-15.39 33.47-36.09 66.38-67.73 86.62-18.43 12.03-39.71 18.5-60.79 24.15-4.3 1.27-8.82.6-13.21.65-75.73-.99-151.46-2.04-227.18-2.98-.77 1.4-1.36 3.32-3.18 3.6-4.18.88-8.46-.06-12.54-.93-10.83-2.59-21.24-6.68-31.46-11.03a447.04 447.04 0 0 1-70.66-38.57c-9.46-6.19-18.21-13.41-27.08-20.35-68.63-1.03-137.29-1.55-205.94-2.4-89.84-.94-179.68-2.07-269.51-2.91-7.14 11.36-17.71 20.16-29.21 26.86-14.51 8.41-30.49 13.96-46.65 18.21-39.67 10.11-80.76 13.08-121.55 14.33-52.4 1.36-104.81-1-157.07-4.72-52.83-3.83-105.53-9.33-158.13-15.56-1.67-.1-3.09-1.02-4.39-1.95-12.48-9.22-26.41-16.36-40.86-21.96-36.48-13.95-75.81-18.42-114.62-19.42-4.21-.35-8.02 1.7-11.95 2.83-22 6.9-44.88 11.49-67.99 11.88-22.14.41-44.46-3.33-64.91-11.94-28.85-12.06-53.18-33.36-71.58-58.39.55-4.04 1.77-8.21.17-12.19-3.31-9.49-11.54-15.91-18.41-22.78a333.58 333.58 0 0 0-34.3 5.5c-36.46 7.62-70.5 23.12-104.87 36.94-2.71.96-3.76 3.91-5.32 6.07-10.07 16.1-18.42 34.53-17.28 53.94.77 15.78 9.35 30.23 20.96 40.58 13.38 12.12 29.79 20.25 46.44 26.88 17.78 7.76 35.03 17.21 49.85 29.83 12.66 10.8 23.28 24.52 28.45 40.48 5.06 15.23 4.85 31.75 1.66 47.35-3.81 18.63-11.22 36.3-19.56 53.32-1.52 2.64-.51 5.74-.73 8.62-.35 12.16-6.53 23.3-14.23 32.37-10.77 12.51-24.39 22.21-38.64 30.37-32.29 18.23-68.14 29.7-104.61 35.94-25.26 4.14-51.25 5.66-76.6 1.38-7.29 4.05-15.92 4.22-23.95 5.7-46.01 5.91-92.35 8.75-138.63 11.66a5157.54 5157.54 0 0 1-164.95 7.04c-53.32 1.32-106.68 2.02-160 .35-3.05-.21-6.35.22-9.12-1.35-21.09-10.84-41.19-24.53-56.38-42.96a110.9 110.9 0 0 1-23.6-49.55c-4.22-21.48-2.21-43.73 2.85-64.88 4.73-19.79 12.1-38.83 20.5-57.32-2.1-4.62 2.07-8.51 4.77-11.75 11.09-11.69 24.11-21.31 36.96-30.95 33.57-24.46 68.7-46.76 104.84-67.22 5.75-3 11.17-6.81 17.44-8.69 12.01-3.92 23.98-8 35.99-11.94 12.31-24.71 24.52-49.46 36.83-74.17 1.39-2.91 3.14-5.72 3.77-8.92 10.84-52.38 21.61-104.79 32.53-157.15 11.86-44.52 24.03-88.95 35.93-133.46 7.65-33.5 15.21-67.02 22.83-100.53 3.03-12.47 5.14-25.19 9.29-37.37l23.32-74.87c1.98-6.55 4.29-13.02 5.77-19.71 18.46-77.01 36.86-154.03 55.42-231.01 2.25-10.61 3.81-21.35 5.89-31.99-4.95-2.43-9.98-4.65-14.94-7.04-6.58-3.9-14.24 2.34-21-.77-26-10.13-51.45-25.11-67.38-48.67-8.33-12.14-13.54-26.19-16.51-40.55-.4-1.95-.71-3.93-.63-5.93.69-17.46 4.27-34.97 11.94-50.74a110.22 110.22 0 0 1 29.13-36.89c15.57-12.99 34.03-22.09 53.09-28.77 28.84-10.01 59.19-14.87 89.51-17.67m-54.01 28.88c-4.65.26-9.13 1.6-13.63 2.65-19.85 5.03-39.3 13.33-54.88 26.88-13.11 11.27-22.82 26.25-28.38 42.57a139.4 139.4 0 0 0-7.2 43c2.69 17.25 11.7 33.8 25.87 44.25 15.84 11.86 35.76 16.55 55.14 18.4 9.44.65 19.05 1.37 28 4.66 6.98 2.46 13.59 7.48 15.83 14.8 3.02 9.33.35 19.15-2.27 28.23-74.65 289.33-149.44 578.61-224.24 867.9-4 10.89-12.34 19.77-21.64 26.48-10.23 7.28-21.87 12.3-33.68 16.42-2.84 1.01-5.86 1.22-8.83 1.61-25.01 3.18-49.81 9.64-72.36 21.1-29.95 15.02-54.88 39.05-72.76 67.22-2.18 4.62-3.73 9.52-5.43 14.34-8.76 25.72-13.75 53.67-8.1 80.63 3.82 18.6 12.86 36.02 25.42 50.22 5.56 3.26 12.08 4.68 18.24 6.5 26.41 6.5 53.83 6.88 80.88 6.45 21.36-.36 42.68-1.85 64.03-2.63 15.32.07 30.65-.04 45.98-.34 120.97-1.75 241.95-3.61 362.92-5.39 24.31-.15 48.78-2.89 72.06-10.12 26.29-8.06 51.06-22.84 68.24-44.61 12.36-15.41 20.7-33.8 25.48-52.91 1.61-6.95 3.58-13.98 3.14-21.19-.32-20.53-4.99-41.36-15.99-58.88-9.92-16.09-24.67-28.76-41.07-37.92-23.07-12.91-48.96-19.74-74.84-24.25-8.85-1.55-17.87-5.13-23.62-12.33-6.93-8.55-8.64-19.97-8.86-30.64-.07-15.89 2.94-31.59 6.66-46.97 4.71-18.4 10.12-36.7 17.53-54.22 7.11-16.45 16.99-33.15 33.32-41.84 9.07-5.14 19.68-5.54 29.68-7.49 37.71-6.33 75.05-15.17 111.31-27.37 16.61-5.43 32.78-12.11 48.95-18.67 6.27 1.92 9.34 8.48 10.17 14.53 1.83 12.72-.4 25.55-2.27 38.14-.34 3.95.38 7.91.8 11.85 2.31 18.58 7.74 37.23 18.78 52.59 10.8 15.24 26.98 26.3 44.67 31.99 28.88 2.98 58.08-2.92 85.01-13.26 17.41-5.08 35.96-4.89 53.79-2.34 24.56 3.82 49.3 7.21 74.21 7.11 6.16-.1 12.08 1.91 17.95 3.55 15.3 4.53 28.94 14.04 38.82 26.53 2.39 3.3 6.46 4.48 9.94 6.27 21.44 9.69 44.89 13.85 68.14 16.4 26.6 2.86 53.38 2.74 80.1 2.43 58.32-.27 116.64-.64 174.96-.96 24.04-.41 48.2.67 72.12-2.29 17.17-2.08 34.34-6.14 49.73-14.23 15.63-8.11 29-20.35 38.87-34.9 2.84-4.96 8.92-6.44 14.14-7.41 11.86-1.31 23.65 1.66 35.09 4.47 34.44 7.82 70.09 7.04 105.11 4.74 23.47-3.68 47.12-6.7 70.91-7.11 101.7-.18 203.48-2.98 305.12 2 2.26-.1 4.25 1.07 6.11 2.25 12.23 8.02 20.67 20.36 28.69 32.3 2.17 2.54 5.15 4.21 7.8 6.23 21.36 15.34 45.75 26.59 71.53 32.01 8.17 1.63 16.44 3.4 24.84 3.09 69.97-.18 139.95-.39 209.92-.48 3.8.01 7.45-1.17 11.13-2.07 17.97-4.67 35.45-12.01 50.44-23.09a112.71 112.71 0 0 0 29.72-32.49c9.49-15.62 15.26-33.29 18.3-51.25.51-5.16 6.25-6.93 10.48-8.19 14.67-3.56 29.93-2.98 44.93-2.89 19.33.47 38.68-.21 58.02.46 11.45.52 23.1 1.17 34.07 4.77 5.8 1.97 11.86 5.25 14.5 11.1 1.35 5.11 1.44 10.46 2.34 15.66 3.99 26.9 10.44 54.09 24.58 77.62 7.71 12.82 17.95 24.2 30.31 32.67 16 11.06 35.01 17.2 54.2 19.6 13.67.29 27.35-.14 41.03-.16 120-.86 240-1.8 360-2.66 10.19-.34 20.48.56 30.59-1.18 12.8-1.48 26.19-1.24 38.34 3.48 14.8 5.59 25.78 18.2 32.62 32.12 3.02 6.57 6.11 13.1 9.49 19.51 10.9 21.43 21.42 43.06 32.45 64.43 15.96 30.86 32.63 61.65 54.1 89.11 11.57 14.64 24.68 28.38 40.54 38.42 13.36 8.51 28.91 13.89 44.83 14.15 12.22.37 24.22-2.52 36.01-5.4 17.22-4.33 34.32-11.84 46.55-25.1 13.13-14 19.54-32.87 22.35-51.53 1.41-10.24 2.48-20.62 1.65-30.96l-14.09-304.1c-.3-5.95-1.53-11.89-.64-17.84a28.9 28.9 0 0 1 11.67-20.55c8.8-6.41 19.83-8.63 30.46-9.72 10.28-1.01 20.57-3.36 30.95-2.11a33.51 33.51 0 0 1 18.31 8.04c7.61 6.61 12.42 15.75 16.21 24.95 6.36 15.32 16.26 29.32 29.32 39.65 14.52 11.63 32.33 18.5 50.45 22.08 22.64 4.46 45.92 4.43 68.85 2.53 9.61-1.14 19.31-.57 28.98-.79 58.34-.27 116.67-.58 175.01-.9 3.08-.08 6.35.43 9.35-.77 18.25-7.05 36.67-14.66 52.19-26.84 11.48-8.74 20.56-20.24 27.56-32.78 12.59-1.07 25.27-1.76 37.8-3.67 34.71-4.81 69.39-15.55 97.94-36.43a186.3 186.3 0 0 0 17.5-14.49c4-3.86 10.03-3.7 15.16-2.75 10.65 2.18 20.51 7 30.22 11.76 3.73 1.72 7.17 4.33 11.36 4.95 21.76 3.95 43.82 5.97 65.87 7.62 55.24 3.86 110.64 4.58 166 4.23 9.49.13 19.01-.53 28.51 0 2.42 47.78 7.3 95.91 21.12 141.89 9.96 32.38 25.43 64.57 51.68 86.88 15.11 8.54 31.27 15.62 48.27 19.49 16.3 3.69 33.7 3.41 49.52-2.29 16.79-5.96 31.31-17.07 43.39-30 35.94 12.42 72.6 23.81 110.56 27.98 33.43 3.83 67.8 1.45 99.92-8.92 28.81-9.23 55.61-24.26 79.37-42.9 23.74-18.7 42.82-43.64 52.98-72.21 12.42-34.28 12.65-71.73 7.33-107.43-2.24-14.32-5.03-28.58-8.9-42.55-10.73-30.5-24.74-59.8-41.08-87.69-30.49-52.02-69.15-98.87-111.71-141.44 5.54-16.93 11.06-34.06 12.69-51.9 3.35-34.51-6.65-68.55-19.28-100.28-.82-10.57-.78-21.23-1.92-31.8-5.15-58.12-23.65-115.55-56.33-164.09-20.14-14.81-42.74-27.04-67.28-32.58-18.7-4.15-38.47-3.82-56.9 1.41-14.18 9.42-27.9 20.28-37.91 34.23-14.5-1.25-29.24-2.11-43.16-6.62-6.39-2.21-13.32-5.5-16.18-12.03-8.05-18.59-16.34-37.27-27.87-54.02-9.42-13.74-21.36-25.96-35.8-34.38-16.91-10-36.56-14.49-56.03-15.35-3.68-.08-7.43-.65-10.98.4-20.13 5.47-39.51 14.27-56.15 26.93-1.22.75-2.27 1.93-3.72 1.94a3023.67 3023.67 0 0 1-187.09 2.7c-9.38.68-17.72-4.57-25.61-8.9-3.86-1.81-5.47-5.89-8.17-8.87-6.95-8.12-15.05-15.32-24.26-20.78-16.16-9.73-35.32-13.58-54.04-13-55.99 2.67-112 5.09-167.99 7.75-17.97 3.09-36.4 8.59-50.25 21.01-13.82 12.28-22.81 29.04-29.06 46.22-4.23.09-8.44-.17-12.63-.32l-162.05-6.07c-3.49-.18-7.03.08-10.36-1.01-13.54-4.21-27.52-6.8-41.55-8.7-49.36-6.31-99.27-4.83-148.85-2.8-6.01-9.47-13.01-18.36-21.27-25.96-11.49-10.71-25.46-18.58-40.34-23.48-29.8-9.79-61.72-9.53-92.67-7.35-84.34-.04-168.68-.34-253.02-.42-20.36 1.07-41.79 3.47-61.16-4.43-3.32-.88-4.6-4.2-6.27-6.79-14.25-22.76-28.53-45.51-42.79-68.26-8.5-14.85-20.05-28.09-34.26-37.71-16.19-11-36-15.76-55.42-15.55l-220.08 3.56c-3.72.08-7.49-.14-11.1.77-15.54 3.61-30.85 9.29-43.84 18.71a76.06 76.06 0 0 0-27.17 35.68c-6.95 18.84-6.93 39.46-4.2 59.12.35 4.26 3.18 7.64 5.19 11.25a120.85 120.85 0 0 0 30.82 34.15c15.46 11.68 33.19 19.92 51.27 26.66 2.59 8.41 5.68 17.04 4.88 25.98-.58 7.34-5.04 13.74-10.8 18.05a430.31 430.31 0 0 0-48.03-13.19c-53.45-11.51-109.03-12.04-162.91-3.23-1.83.13-3.83 1.03-5.43-.15-6.39-3.68-12.05-8.87-15.47-15.46-1.61-2.58-1.9-5.85-3.85-8.2-13.63-12.71-29.54-23.27-47.31-29.21-24.07-8.17-49.76-9.79-75-9.83-32.66.67-65.34.23-98.01.35-32.67.06-65.34-.12-98.01.09-17.16 5.88-33.88 13.65-48.86 24-15.59 10.81-28.92 24.67-39.87 40.12a46.28 46.28 0 0 1-9.44 10.45c-8.57 7.01-19.76 10.06-30.68 10.25-66.35-.72-132.71-1.32-199.06-1.99-10.04-.45-19.96 1.54-29.89 2.72-18.88 2.48-37.2 7.92-55.13 14.13-20.9-2.79-41.97-4.66-63.07-4.75-6.31.16-12.79-.06-18.8 2.13-23.11-9.78-47.09-18.23-72.12-21.2-12.27-1.56-24.66-.82-36.99-.85-45.01.42-90.03.74-135.05 1.16-3.08.15-5.62-1.86-8.3-3.03-8.33-4.07-16.77-9.35-21.1-17.87-7.03-14.78-15.54-29.15-27.29-40.7-10.61-10.65-24.42-18.18-39.27-20.75-10.9-2.13-22.03-.92-33.04-1.07-75.66.56-151.32 1.13-226.97 1.71-9.37.38-18.88-.76-28.08 1.45-12.23 2.26-24.41 5.08-35.99 9.69-14.78 5.8-28.37 14.43-40.28 24.89-4.26 4.08-9.37 7.57-12.04 12.99-2.12 3.53-4.56 7.54-8.71 8.85-3.07.8-5.67-1.68-7.24-4-3.86-5.87-5.78-12.75-7.58-19.46a391.62 391.62 0 0 0-22.36-66.79c-17.14-38.96-42.11-74.66-74.02-102.95-26-23.19-56.22-41.4-88.32-54.81-3.05-.97-6.28-1.1-9.42-1.57-166.55-22.68-335.23-25.45-502.96-18.04m4465.2 267.33c.48.65.48.65 0 0z"/><path d="M856.1 873.93c33.44-15.08 64.72-34.68 93.59-57.26a110.92 110.92 0 0 1 3.36 31.32 18.4 18.4 0 0 1-7.07 14.9 421.89 421.89 0 0 1-105.36 59.66c-47.36 18.4-97.89 28.38-148.59 30.64-10.82.1-21.73 1.52-32.49-.1 2.56-12.89 5.01-26.08 4.26-39.27 65.88-.12 132.19-12.47 192.3-39.89zM4398.08 922.94c31.1-12.83 59.24-32.07 84.1-54.61 12.56 13.41 27.43 24.9 44.38 32.2 18.32 8.13 38.5 11.29 58.45 11.39 72.05-1.03 144.1-1.85 216.15-2.84 6.84 49.25 13.63 98.5 20.45 147.75.99 6.43 1.32 13.01 3.4 19.22a132.03 132.03 0 0 0 13.16 29.72c15.5 26.02 41.3 46.03 70.88 53.17 19.62 4.79 41.21 3.8 59.38-5.57 12.72-6.42 22.99-17.16 29.47-29.8 15.15 9.81 31.8 17.14 48.95 22.69a270.21 270.21 0 0 0 104.06 12.17c33.78-2.79 67.3-12.93 95.71-31.67 24.38-15.91 44.48-38.01 58.94-63.22 14.96-25.74 24.01-54.46 29.86-83.53.92 1.66 1.89 3.36 2.61 5.19 1.92 8.5-.15 17.22-.06 25.82-2.2 30.51-8.51 61.17-22.31 88.67a163.32 163.32 0 0 1-46.56 57c-19.74 15.43-42.95 25.68-66.49 33.8-40.56 13.87-84.99 16.76-126.78 6.85-28.22-6.57-55.07-18.36-79.75-33.41-5.14 10.91-12.79 20.84-23.12 27.25-13.79 8.87-30.21 11.94-46.05 14.91-4.27 1.06-8.63.17-12.89-.04-17.3-1.35-34.28-7.39-48.23-17.76-15.45-11.4-27.02-27.29-35.62-44.3-16.44-33.08-23.97-69.7-29.21-106.01-4.21-29.56-6.2-59.34-7.96-89.11a1982.73 1982.73 0 0 1-92.06 7.09c-10.99.02-21.93 1.28-32.91 1.03-17.72-.23-35.47.62-53.13-.72-23.52-.97-47.07-3.4-70.07-8.51-16.28-3.78-32.53-8.92-46.7-17.97-9.15-5.83-17.07-13.77-21.97-23.5-21.01 27.5-47.86 51.39-80.15 64.64-31.23 13.21-65.6 15.65-99.11 16.06-4.46 15.62-12.26 30.8-25 41.25-9.79 8.14-21.6 13.45-33.7 17.11-6.93 1.89-13.9 4.4-21.17 4.03-71.67-.64-143.35-.25-215.03-.48-8.96-.26-17.96.48-26.86-.68-24.86-1.85-49.88-10.8-67.9-28.49-20.03-19.53-30.9-46.24-38.61-72.62-5.89-.35-11.76-.05-17.6.46-7.34.63-14.71.12-22.02.85-5.99.52-11.99.54-17.96.61-6.37.32-12.72.99-19.09.95-7.68-.15-15.31 1.02-22.97.99-9.04-.16-18.02 1.18-27.05 1.04 1.59 25.12 3.48 50.23 5.45 75.34-.12 1.78-.34 3.54-.36 5.35-2.31-2.72-1.74-6.45-2.08-9.73-2.64-36.42-5.32-72.84-7.99-109.25 45.62-2.64 91.23-5.33 136.85-7.88 6.21 19.77 14.41 39.15 26.43 56.14 9.41 13.34 21.45 25.01 35.8 32.94 18.75 10.52 40.71 14.02 61.99 13.01 7.33-.49 14.66-1.09 22.03-.99 72.33-1.02 144.66-2.08 217-3.09 3.51.01 6.73-1.62 9.94-2.92 10.21-4.31 19.72-10.54 27.13-18.85 10.46-11.54 16.5-26.37 19.97-41.39 35.4 1.82 71.24-4.07 103.98-17.75zM2897.42 946.63c37.77-11.44 73.58-28.64 107.5-48.67-.65 14.13-1.57 28.26-2.02 42.4-34.57 22.37-72.02 40.73-111.87 51.47-45.92 12.64-94.7 14.7-141.45 5.5-20.12-3.76-39.77-9.64-59.02-16.53l.02-1.13c.15-15.43 0-30.87.07-46.3 28.56 13.99 59.53 23.18 91.23 26.15 38.88 3.8 78.27-1.57 115.54-12.89zM920.98 941.04c2.42-10.44 5.06-20.88 8.85-30.91-.36 11.93.29 23.91 1.79 35.76 2.23 15.81 6.53 32.07 16.82 44.65 9.72 12.05 25.17 18.64 40.46 19.06 27.15-2.15 53.44-13.29 74.27-30.78 14.1 4.41 28.36 8.36 42.86 11.27 44.36 9.21 90.95 9.17 134.78-2.87 4.72 18.44 12.37 37.09 26.85 50.05 12.51 11.44 29.64 16.53 46.34 16.94 111-.08 222 .35 333 .3 9.13-1.55 17.69-5.65 25.98-9.7 27.01-13.88 47.09-38.59 59.45-65.95 31.59 14.87 65.59 25.07 100.5 27.67 40.24 3.31 80.78-3.42 118.89-16.3 6.43 4.93 14.18 7.76 22.06 9.39 14.81 3.12 30.05 2.9 45.09 2.31 89.02-1.77 178.04-3.51 267.06-5.27 3.26-.03 6.56-.38 9.84.04 6.09 1.42 9.71 7.47 10.83 13.26 1.02 5.99 3.76 11.46 6.51 16.82 6.63 12.7 16.69 23.68 29.12 30.89 15.25 8.97 33.11 12.39 50.62 12.95 67.01-.16 134.03-.04 201.05-.08 9.7-.3 19.62 1.05 29.09-1.72 18.8-4.16 37.66-12.46 49.96-27.81 10.66-12.84 15.28-29.38 17.49-45.62.96 9.18.25 18.46.43 27.68-1.15 20.33-3.51 41.35-13.32 59.56a60.75 60.75 0 0 1-31.73 28.11c-8.6 3.21-17.71 5.78-26.96 5.26-68.66.22-137.31.72-205.96.76-24.27.38-49.38-.96-71.89-10.91a85.7 85.7 0 0 1-31.87-24.06c-9.77-11.85-16.3-26.09-20.47-40.79-18.61-.28-37.19.72-55.8.87-14.31.25-28.62-.09-42.92.52-24.03.86-48.07.24-72.08 1.14-21.67.7-43.35.12-65.01.96-17.01.14-33.96 1.74-50.96 1.22-16.89-.93-34.42-1.46-50.05-8.66-4.91.31-9.56 2.47-14.38 3.4-28.29 6.99-57.34 12.04-86.57 11.55-42.12.77-84.64-11.3-119.23-35.6-5.88 17.73-15.22 34.61-29.02 47.39-19.3 18.24-45.24 27.23-70.84 32.3-5.2 1.24-10.57 1.05-15.86 1.09-33.02.53-66.04.82-99.06.82-23.66-.17-47.3.53-70.95.67-28.01.34-56.02.33-84.04.34-25.52.75-51.56-.22-76.02-8.24-16.34-5.35-32.01-14.56-42.25-28.66-7.5-9.99-11.65-22.03-13.82-34.23a178.95 178.95 0 0 1-60.77 16.59c-24.62 2.11-49.49-1.02-73.24-7.68-11.69-3.09-22.98-7.41-34.31-11.56-12.4 13.15-28.48 23.03-46.13 27.22-15.1 3.72-30.91 3.07-46.07.07-6.87-.99-12.86-4.78-18.74-8.21-14.52-8.8-25.75-22.97-30.44-39.34-6.04-20.84-3.74-43.03.77-63.93zM2899.51 1041.41c3.25-6.73 6.7-13.56 11.73-19.16.63 11.3 1.85 22.64 5.02 33.55 4.33 15.6 12.66 30.35 25.13 40.87 15.17 13 35.03 19.15 54.62 21.25 8.32.39 16.67.15 25.02.31 125.65.82 251.29 1.65 376.94 2.46 23.8-1.07 45.59-13.22 63.47-28.25 3.01-2.4 5.7-5.54 9.51-6.67 2.94-.28 5.34 1.96 7.26 3.95 4.36 4.85 7.66 10.55 10.93 16.18 39.04 72.64 77.93 145.37 116.87 218.07 3.34 7.2 9.06 12.87 14.55 18.48 11.89 11.89 26.9 20.9 43.44 24.42 19.16 4.24 39.15 1.44 57.73-4.18 4.55-1.19 7.56-5.09 11.09-7.93 14.85-13.03 29.16-28.29 34.55-47.81 2.09 21.32-.45 43.77-10.39 63.03-7.7 14.85-19.96 26.84-33.55 36.36-5.53 4.37-12.68 5.54-19.29 7.36-22.2 5.29-46.32 1.92-65.93-9.87-16.22-9.58-30.15-22.86-41.38-37.91-43.06-79.3-85.8-158.79-128.96-238.04-10.58 13.3-24.68 24-40.89 29.4-13.48 4.55-27.84 5.79-41.98 5.58-13.04-.2-25.95-2.56-39-2.21-112.34.32-224.69.38-337.03.34-10.72.25-21.49.19-32.06-1.75-19.21-3.02-38.2-11.06-51.65-25.43-14.88-15.55-22.16-36.76-25.11-57.71-1.11-6.96-1.36-14.01-1.93-21.03.02-4.56-1.1-9.48 1.29-13.66zM67.38 1266.82l.95-.82c-.53 9.8-.64 19.69.99 29.41 2.25 14.45 8.59 28.7 19.81 38.4 13.92 12.14 32.74 16.81 50.78 17.88 178.71.09 357.42-.02 536.13.05 8.16.44 16.07-1.92 23.93-3.75 25.19-6.42 49.22-18.82 67.32-37.71 11.12-11.08 19.45-24.5 27.08-38.11-1.83 18.55-6.55 36.94-14.44 53.86-7.65 16.19-19.01 30.82-33.7 41.2-17.6 12.67-38.92 19.19-60.26 21.81-11.89 1.82-23.96.92-35.94 1.14-111.68-.36-223.36-.09-335.04-.2-58.02.04-116.04-.18-174.06.01-19.31-.59-39.24-3.16-56.51-12.38-12.55-6.64-22.72-17.75-27.73-31.07-4.8-12.56-6.17-26.28-5.42-39.63 3.08-14.09 8.12-28.05 16.11-40.09z"/></g><path fill="#d6fbfc" stroke="#d6fbfc" stroke-width=".09" d="M467.02 31.87c167.73-7.41 336.41-4.64 502.96 18.04 3.14.47 6.37.6 9.42 1.57 32.1 13.41 62.32 31.62 88.32 54.81 31.91 28.29 56.88 63.99 74.02 102.95a391.62 391.62 0 0 1 22.36 66.79c1.8 6.71 3.72 13.59 7.58 19.46 1.57 2.32 4.17 4.8 7.24 4 4.15-1.31 6.59-5.32 8.71-8.85 2.67-5.42 7.78-8.91 12.04-12.99 11.91-10.46 25.5-19.09 40.28-24.89 11.58-4.61 23.76-7.43 35.99-9.69 9.2-2.21 18.71-1.07 28.08-1.45 75.65-.58 151.31-1.15 226.97-1.71 11.01.15 22.14-1.06 33.04 1.07 14.85 2.57 28.66 10.1 39.27 20.75 11.75 11.55 20.26 25.92 27.29 40.7 4.33 8.52 12.77 13.8 21.1 17.87 2.68 1.17 5.22 3.18 8.3 3.03 45.02-.42 90.04-.74 135.05-1.16 12.33.03 24.72-.71 36.99.85 25.03 2.97 49.01 11.42 72.12 21.2 6.01-2.19 12.49-1.97 18.8-2.13 21.1.09 42.17 1.96 63.07 4.75 17.93-6.21 36.25-11.65 55.13-14.13 9.93-1.18 19.85-3.17 29.89-2.72 66.35.67 132.71 1.27 199.06 1.99 10.92-.19 22.11-3.24 30.68-10.25 3.7-2.93 6.8-6.55 9.44-10.45 10.95-15.45 24.28-29.31 39.87-40.12 14.98-10.35 31.7-18.12 48.86-24 32.67-.21 65.34-.03 98.01-.09 32.67-.12 65.35.32 98.01-.35 25.24.04 50.93 1.66 75 9.83 17.77 5.94 33.68 16.5 47.31 29.21 1.95 2.35 2.24 5.62 3.85 8.2 3.42 6.59 9.08 11.78 15.47 15.46 1.6 1.18 3.6.28 5.43.15 53.88-8.81 109.46-8.28 162.91 3.23a430.31 430.31 0 0 1 48.03 13.19c5.76-4.31 10.22-10.71 10.8-18.05.8-8.94-2.29-17.57-4.88-25.98-18.08-6.74-35.81-14.98-51.27-26.66a120.85 120.85 0 0 1-30.82-34.15c-2.01-3.61-4.84-6.99-5.19-11.25-2.73-19.66-2.75-40.28 4.2-59.12a76.06 76.06 0 0 1 27.17-35.68c12.99-9.42 28.3-15.1 43.84-18.71 3.61-.91 7.38-.69 11.1-.77L3178 92.06c19.42-.21 39.23 4.55 55.42 15.55 14.21 9.62 25.76 22.86 34.26 37.71 14.26 22.75 28.54 45.5 42.79 68.26 1.67 2.59 2.95 5.91 6.27 6.79 19.37 7.9 40.8 5.5 61.16 4.43 84.34.08 168.68.38 253.02.42 30.95-2.18 62.87-2.44 92.67 7.35 14.88 4.9 28.85 12.77 40.34 23.48 8.26 7.6 15.26 16.49 21.27 25.96 49.58-2.03 99.49-3.51 148.85 2.8 14.03 1.9 28.01 4.49 41.55 8.7 3.33 1.09 6.87.83 10.36 1.01l162.05 6.07c4.19.15 8.4.41 12.63.32 6.25-17.18 15.24-33.94 29.06-46.22 13.85-12.42 32.28-17.92 50.25-21.01 55.99-2.66 112-5.08 167.99-7.75 18.72-.58 37.88 3.27 54.04 13 9.21 5.46 17.31 12.66 24.26 20.78 2.7 2.98 4.31 7.06 8.17 8.87 7.89 4.33 16.23 9.58 25.61 8.9 62.37.99 124.78.17 187.09-2.7 1.45-.01 2.5-1.19 3.72-1.94 16.64-12.66 36.02-21.46 56.15-26.93 3.55-1.05 7.3-.48 10.98-.4 19.47.86 39.12 5.35 56.03 15.35 14.44 8.42 26.38 20.64 35.8 34.38 11.53 16.75 19.82 35.43 27.87 54.02 2.86 6.53 9.79 9.82 16.18 12.03 13.92 4.51 28.66 5.37 43.16 6.62 10.01-13.95 23.73-24.81 37.91-34.23 18.43-5.23 38.2-5.56 56.9-1.41 24.54 5.54 47.14 17.77 67.28 32.58 32.68 48.54 51.18 105.97 56.33 164.09 1.14 10.57 1.1 21.23 1.92 31.8 12.63 31.73 22.63 65.77 19.28 100.28-1.63 17.84-7.15 34.97-12.69 51.9 42.56 42.57 81.22 89.42 111.71 141.44 16.34 27.89 30.35 57.19 41.08 87.69 3.87 13.97 6.66 28.23 8.9 42.55 5.32 35.7 5.09 73.15-7.33 107.43-10.16 28.57-29.24 53.51-52.98 72.21-23.76 18.64-50.56 33.67-79.37 42.9-32.12 10.37-66.49 12.75-99.92 8.92-37.96-4.17-74.62-15.56-110.56-27.98-12.08 12.93-26.6 24.04-43.39 30-15.82 5.7-33.22 5.98-49.52 2.29-17-3.87-33.16-10.95-48.27-19.49-26.25-22.31-41.72-54.5-51.68-86.88-13.82-45.98-18.7-94.11-21.12-141.89-9.5-.53-19.02.13-28.51 0-55.36.35-110.76-.37-166-4.23-22.05-1.65-44.11-3.67-65.87-7.62-4.19-.62-7.63-3.23-11.36-4.95-9.71-4.76-19.57-9.58-30.22-11.76-5.13-.95-11.16-1.11-15.16 2.75a186.3 186.3 0 0 1-17.5 14.49c-28.55 20.88-63.23 31.62-97.94 36.43-12.53 1.91-25.21 2.6-37.8 3.67-7 12.54-16.08 24.04-27.56 32.78-15.52 12.18-33.94 19.79-52.19 26.84-3 1.2-6.27.69-9.35.77-58.34.32-116.67.63-175.01.9-9.67.22-19.37-.35-28.98.79-22.93 1.9-46.21 1.93-68.85-2.53-18.12-3.58-35.93-10.45-50.45-22.08-13.06-10.33-22.96-24.33-29.32-39.65-3.79-9.2-8.6-18.34-16.21-24.95a33.51 33.51 0 0 0-18.31-8.04c-10.38-1.25-20.67 1.1-30.95 2.11-10.63 1.09-21.66 3.31-30.46 9.72a28.9 28.9 0 0 0-11.67 20.55c-.89 5.95.34 11.89.64 17.84l14.09 304.1c.83 10.34-.24 20.72-1.65 30.96-2.81 18.66-9.22 37.53-22.35 51.53-12.23 13.26-29.33 20.77-46.55 25.1-11.79 2.88-23.79 5.77-36.01 5.4-15.92-.26-31.47-5.64-44.83-14.15-15.86-10.04-28.97-23.78-40.54-38.42-21.47-27.46-38.14-58.25-54.1-89.11-11.03-21.37-21.55-43-32.45-64.43a398.58 398.58 0 0 1-9.49-19.51c-6.84-13.92-17.82-26.53-32.62-32.12-12.15-4.72-25.54-4.96-38.34-3.48-10.11 1.74-20.4.84-30.59 1.18-120 .86-240 1.8-360 2.66-13.68.02-27.36.45-41.03.16-19.19-2.4-38.2-8.54-54.2-19.6-12.36-8.47-22.6-19.85-30.31-32.67-14.14-23.53-20.59-50.72-24.58-77.62-.9-5.2-.99-10.55-2.34-15.66-2.64-5.85-8.7-9.13-14.5-11.1-10.97-3.6-22.62-4.25-34.07-4.77-19.34-.67-38.69.01-58.02-.46-15-.09-30.26-.67-44.93 2.89-4.23 1.26-9.97 3.03-10.48 8.19-3.04 17.96-8.81 35.63-18.3 51.25a112.71 112.71 0 0 1-29.72 32.49c-14.99 11.08-32.47 18.42-50.44 23.09-3.68.9-7.33 2.08-11.13 2.07-69.97.09-139.95.3-209.92.48-8.4.31-16.67-1.46-24.84-3.09-25.78-5.42-50.17-16.67-71.53-32.01-2.65-2.02-5.63-3.69-7.8-6.23-8.02-11.94-16.46-24.28-28.69-32.3-1.86-1.18-3.85-2.35-6.11-2.25-101.64-4.98-203.42-2.18-305.12-2-23.79.41-47.44 3.43-70.91 7.11-35.02 2.3-70.67 3.08-105.11-4.74-11.44-2.81-23.23-5.78-35.09-4.47-5.22.97-11.3 2.45-14.14 7.41-9.87 14.55-23.24 26.79-38.87 34.9-15.39 8.09-32.56 12.15-49.73 14.23-23.92 2.96-48.08 1.88-72.12 2.29-58.32.32-116.64.69-174.96.96-26.72.31-53.5.43-80.1-2.43-23.25-2.55-46.7-6.71-68.14-16.4-3.48-1.79-7.55-2.97-9.94-6.27-9.88-12.49-23.52-22-38.82-26.53-5.87-1.64-11.79-3.65-17.95-3.55-24.91.1-49.65-3.29-74.21-7.11-17.83-2.55-36.38-2.74-53.79 2.34-26.93 10.34-56.13 16.24-85.01 13.26-17.69-5.69-33.87-16.75-44.67-31.99-11.04-15.36-16.47-34.01-18.78-52.59-.42-3.94-1.14-7.9-.8-11.85 1.87-12.59 4.1-25.42 2.27-38.14-.83-6.05-3.9-12.61-10.17-14.53-16.17 6.56-32.34 13.24-48.95 18.67-36.26 12.2-73.6 21.04-111.31 27.37-10 1.95-20.61 2.35-29.68 7.49-16.33 8.69-26.21 25.39-33.32 41.84-7.41 17.52-12.82 35.82-17.53 54.22-3.72 15.38-6.73 31.08-6.66 46.97.22 10.67 1.93 22.09 8.86 30.64 5.75 7.2 14.77 10.78 23.62 12.33 25.88 4.51 51.77 11.34 74.84 24.25 16.4 9.16 31.15 21.83 41.07 37.92 11 17.52 15.67 38.35 15.99 58.88.44 7.21-1.53 14.24-3.14 21.19-4.78 19.11-13.12 37.5-25.48 52.91-17.18 21.77-41.95 36.55-68.24 44.61-23.28 7.23-47.75 9.97-72.06 10.12-120.97 1.78-241.95 3.64-362.92 5.39-15.33.3-30.66.41-45.98.34-21.35.78-42.67 2.27-64.03 2.63-27.05.43-54.47.05-80.88-6.45-6.16-1.82-12.68-3.24-18.24-6.5-12.56-14.2-21.6-31.62-25.42-50.22-5.65-26.96-.66-54.91 8.1-80.63 1.7-4.82 3.25-9.72 5.43-14.34 17.88-28.17 42.81-52.2 72.76-67.22 22.55-11.46 47.35-17.92 72.36-21.1 2.97-.39 5.99-.6 8.83-1.61 11.81-4.12 23.45-9.14 33.68-16.42 9.3-6.71 17.64-15.59 21.64-26.48 74.8-289.29 149.59-578.57 224.24-867.9 2.62-9.08 5.29-18.9 2.27-28.23-2.24-7.32-8.85-12.34-15.83-14.8-8.95-3.29-18.56-4.01-28-4.66-19.38-1.85-39.3-6.54-55.14-18.4-14.17-10.45-23.18-27-25.87-44.25a139.4 139.4 0 0 1 7.2-43c5.56-16.32 15.27-31.3 28.38-42.57 15.58-13.55 35.03-21.85 54.88-26.88 4.5-1.05 8.98-2.39 13.63-2.65m11.92 11.26c-10.86 1.51-21.5 4.6-31.96 7.87-20.52 6.74-40.72 17.54-53.71 35.3-13.7 18.44-17.75 42.28-16.58 64.78 4.9 13.99 16.19 25.17 29.17 31.99 17.83 9.34 38.25 12.05 58.12 12.63 10.64.06 21.17 1.85 31.58 3.93 7.59 1.68 15.26 3.34 22.42 6.46a1172640 1172640 0 0 1-245.97 959.55 707.45 707.45 0 0 0-59.39 12.79c-36.79 9.86-73.43 23.08-104.61 45.44-16.05 11.61-30.4 25.9-40.63 42.95-7.99 12.04-13.03 26-16.11 40.09-.75 13.35.62 27.07 5.42 39.63 5.01 13.32 15.18 24.43 27.73 31.07 17.27 9.22 37.2 11.79 56.51 12.38 58.02-.19 116.04.03 174.06-.01 111.68.11 223.36-.16 335.04.2 11.98-.22 24.05.68 35.94-1.14 21.34-2.62 42.66-9.14 60.26-21.81 14.69-10.38 26.05-25.01 33.7-41.2 7.89-16.92 12.61-35.31 14.44-53.86 1.3-8.64 1.38-17.62-1.13-26.05-2.96-10.49-9.39-19.7-17.25-27.12-10.06-9.5-22.2-16.5-34.71-22.25-20.51-9.32-42.31-15.36-64.23-20.3-20.68-5.43-41.37-10.81-62.02-16.33 10.49-48.09 20.87-96.21 31.32-144.32 4.33-20.67 9.25-41.23 13.21-61.96 10.82.12 21.68.36 32.47-.65 50.7-2.26 101.23-12.24 148.59-30.64a421.89 421.89 0 0 0 105.36-59.66l3.12-2.25a558.52 558.52 0 0 0-19.27 49.49c-3.79 10.03-6.43 20.47-8.85 30.91-4.51 20.9-6.81 43.09-.77 63.93 4.69 16.37 15.92 30.54 30.44 39.34 5.88 3.43 11.87 7.22 18.74 8.21 15.16 3 30.97 3.65 46.07-.07 17.65-4.19 33.73-14.07 46.13-27.22 11.33 4.15 22.62 8.47 34.31 11.56 23.75 6.66 48.62 9.79 73.24 7.68a178.95 178.95 0 0 0 60.77-16.59c2.17 12.2 6.32 24.24 13.82 34.23 10.24 14.1 25.91 23.31 42.25 28.66 24.46 8.02 50.5 8.99 76.02 8.24 28.02-.01 56.03 0 84.04-.34 23.65-.14 47.29-.84 70.95-.67 33.02 0 66.04-.29 99.06-.82 5.29-.04 10.66.15 15.86-1.09 25.6-5.07 51.54-14.06 70.84-32.3 13.8-12.78 23.14-29.66 29.02-47.39 34.59 24.3 77.11 36.37 119.23 35.6 29.23.49 58.28-4.56 86.57-11.55 4.82-.93 9.47-3.09 14.38-3.4 15.63 7.2 33.16 7.73 50.05 8.66 17 .52 33.95-1.08 50.96-1.22 21.66-.84 43.34-.26 65.01-.96 24.01-.9 48.05-.28 72.08-1.14 14.3-.61 28.61-.27 42.92-.52 18.61-.15 37.19-1.15 55.8-.87 4.17 14.7 10.7 28.94 20.47 40.79a85.7 85.7 0 0 0 31.87 24.06c22.51 9.95 47.62 11.29 71.89 10.91 68.65-.04 137.3-.54 205.96-.76 9.25.52 18.36-2.05 26.96-5.26a60.75 60.75 0 0 0 31.73-28.11c9.81-18.21 12.17-39.23 13.32-59.56-.18-9.22.53-18.5-.43-27.68.27-5.24-1.3-10.57.04-15.72l-.02 1.13c19.25 6.89 38.9 12.77 59.02 16.53 46.75 9.2 95.53 7.14 141.45-5.5 39.85-10.74 77.3-29.1 111.87-51.47.29 7.18-3.23 13.71-6.92 19.61-1.38 1.99-2.44 4.52-4.9 5.35-14.91 6.91-29.54 14.52-43.24 23.6-13.76 9.15-26.61 19.97-36.6 33.21v.12c-5.03 5.6-8.48 12.43-11.73 19.16-2.39 4.18-1.27 9.1-1.29 13.66.57 7.02.82 14.07 1.93 21.03 2.95 20.95 10.23 42.16 25.11 57.71 13.45 14.37 32.44 22.41 51.65 25.43 10.57 1.94 21.34 2 32.06 1.75 112.34.04 224.69-.02 337.03-.34 13.05-.35 25.96 2.01 39 2.21 14.14.21 28.5-1.03 41.98-5.58 16.21-5.4 30.31-16.1 40.89-29.4 43.16 79.25 85.9 158.74 128.96 238.04 11.23 15.05 25.16 28.33 41.38 37.91 19.61 11.79 43.73 15.16 65.93 9.87 6.61-1.82 13.76-2.99 19.29-7.36 13.59-9.52 25.85-21.51 33.55-36.36 9.94-19.26 12.48-41.71 10.39-63.03l-15.44-213c-1.48-22.22-3.55-44.45-4.53-66.67l-.01.07a5008.72 5008.72 0 0 1-5.45-75.34c9.03.14 18.01-1.2 27.05-1.04 7.66.03 15.29-1.14 22.97-.99 6.37.04 12.72-.63 19.09-.95 5.97-.07 11.97-.09 17.96-.61 7.31-.73 14.68-.22 22.02-.85 5.84-.51 11.71-.81 17.6-.46 7.71 26.38 18.58 53.09 38.61 72.62 18.02 17.69 43.04 26.64 67.9 28.49 8.9 1.16 17.9.42 26.86.68 71.68.23 143.36-.16 215.03.48 7.27.37 14.24-2.14 21.17-4.03 12.1-3.66 23.91-8.97 33.7-17.11 12.74-10.45 20.54-25.63 25-41.25 33.51-.41 67.88-2.85 99.11-16.06 32.29-13.25 59.14-37.14 80.15-64.64 4.9 9.73 12.82 17.67 21.97 23.5 14.17 9.05 30.42 14.19 46.7 17.97 23 5.11 46.55 7.54 70.07 8.51 17.66 1.34 35.41.49 53.13.72 10.98.25 21.92-1.01 32.91-1.03 30.74-1.56 61.42-4.1 92.06-7.09 1.76 29.77 3.75 59.55 7.96 89.11 5.24 36.31 12.77 72.93 29.21 106.01 8.6 17.01 20.17 32.9 35.62 44.3 13.95 10.37 30.93 16.41 48.23 17.76 4.26.21 8.62 1.1 12.89.04 15.84-2.97 32.26-6.04 46.05-14.91 10.33-6.41 17.98-16.34 23.12-27.25 24.68 15.05 51.53 26.84 79.75 33.41 41.79 9.91 86.22 7.02 126.78-6.85 23.54-8.12 46.75-18.37 66.49-33.8a163.32 163.32 0 0 0 46.56-57c13.8-27.5 20.11-58.16 22.31-88.67-.09-8.6 1.98-17.32.06-25.82-4.55-23.99-11.51-47.53-21.25-69.93-12.66-29.42-29.25-57.04-48.12-82.88-18.52-25.13-38.69-49.12-61.21-70.76-21.59-21.51-43.96-42.24-67.42-61.7 12.09-3.74 24.19-9.52 32.22-19.67 9.05-11.27 11.91-26.16 12.17-40.3.28-21.08-3.72-41.97-8.91-62.32-11.32-37.91-21.15-76.25-30.61-114.66-4.47-18.54-8.98-37.12-12.19-55.91-7.57-15.72-17.84-30.36-31.09-41.82a89.64 89.64 0 0 0-42.74-20.67c-20.43-3.76-41.51-.37-60.98 6.25-2.18.84-4.56 1.27-6.41 2.64-9.09 8.74-18.01 18.55-21.27 31.06-26.75.22-53.49.41-80.22.67-4.96-25.94-8.92-52.83-21.99-76.2a87.1 87.1 0 0 0-35.1-34.55c-20.19-10.81-43.31-14.43-65.92-15.47-3.56-.3-6.82 1.24-10.09 2.26-7.28 2.39-14.35 5.66-20.28 10.53-6.32 5.04-11.15 11.68-15.04 18.69-74.34.41-148.67.96-223 1.25a77.44 77.44 0 0 0-10.41-17.8c-10.6-13.59-26.62-21.76-42.98-26.17-24.46-6.51-50-7.18-75.16-6.85-25.39.22-50.63 3.21-75.96 4.37-24.4 1.76-49.08 4.74-72.11 13.37-13.3 5.14-26.42 12.7-34.55 24.75-6.47 9.45-8.81 21.27-7.72 32.56-16.89.51-33.79.24-50.68.51-53.36.27-106.72.7-160.07.94-5.5-4.97-12.86-6.81-19.87-8.48-14.16-3.11-28.61-4.6-43.02-5.86-30.64-2.44-61.38-3.27-92.1-3.21-11.15.22-22.34-.02-33.43 1.17-9.76-16.18-21.07-32.03-36.92-42.77-19.2-13.18-42.97-17.96-65.94-17.83l-293.65-2.55c-5.77.52-11.4 2.08-17.04 3.29-16.01 3.76-30.01 13.09-42.34 23.66-22.75-40.44-45.28-81-68-121.45-11.14-16.01-28.75-26.8-47.53-31.46-23.2-6.24-47.39-3.82-71.09-3.67l-165.03 3.18c-3.37.1-6.75-.09-10.02.65-11.48 2.38-22.83 5.63-33.49 10.55-14.55 6.62-28.03 17.08-35.19 31.67-8.58 17.19-7.76 37.46-3.13 55.64 6.88 16.42 19.39 30.08 34.13 39.87 18.4 12.25 39.78 19.13 61.28 23.58.18 32.21.37 64.42.63 96.63-38.55-24.24-81.74-41.9-127.09-47.68-48.29-6.53-97.68.89-143.28 17.41-3.14-21.95-12.52-43.87-29.85-58.31-18.72-15.93-43.93-21.57-67.98-22.03-68.32.63-136.64.88-204.96 1.43-25.55-1.31-51.34 11.11-66.39 31.8-10.98 14.79-17.14 32.57-20.84 50.47-89.27.39-178.54.83-267.81 1.22-7.34.39-14.83-.77-22.01 1.21a139.33 139.33 0 0 0-50.17 21.23c-11.02-3.58-22.32-6.41-33.83-7.77a146.82 146.82 0 0 0-66.1 7.14c-5.2-3.89-10.32-7.93-15.94-11.21-17.68-10.83-38.33-16.23-58.95-17.08-65.63.38-131.26.95-196.89 1.26-.01-10.97-.85-22.02-3.64-32.66-3.73-15.14-12.75-29.27-26.2-37.5-18.48-11.49-40.99-13.51-62.26-13.29-82.31.65-164.63 1.22-246.94 2-19.78 4.07-39.46 12.06-54.06 26.41-11.94 11.55-19.19 27.16-22.59 43.26-15.17.97-30.72 3.52-44.02 11.28a575.25 575.25 0 0 0-5.34-44.6c-6.89-42.77-19.88-85.2-43.31-121.93a232.9 232.9 0 0 0-58.69-62.74c-25.33-18.72-54.11-32.38-83.95-42.22-15.59-4.9-31.31-9.84-47.59-11.82-48.56-6.98-97.55-10.5-146.55-12.29-96.98-3.54-194.02-.59-291.02.14z"/><g stroke="#000" stroke-width=".09"><path d="M478.94 43.13c97-.73 194.04-3.68 291.02-.14 49 1.79 97.99 5.31 146.55 12.29 16.28 1.98 32 6.92 47.59 11.82 29.84 9.84 58.62 23.5 83.95 42.22a232.9 232.9 0 0 1 58.69 62.74c23.43 36.73 36.42 79.16 43.31 121.93a575.25 575.25 0 0 1 5.34 44.6c13.3-7.76 28.85-10.31 44.02-11.28 3.4-16.1 10.65-31.71 22.59-43.26 14.6-14.35 34.28-22.34 54.06-26.41 82.31-.78 164.63-1.35 246.94-2 21.27-.22 43.78 1.8 62.26 13.29 13.45 8.23 22.47 22.36 26.2 37.5 2.79 10.64 3.63 21.69 3.64 32.66 65.63-.31 131.26-.88 196.89-1.26 20.62.85 41.27 6.25 58.95 17.08 5.62 3.28 10.74 7.32 15.94 11.21a146.82 146.82 0 0 1 66.1-7.14c11.51 1.36 22.81 4.19 33.83 7.77a139.33 139.33 0 0 1 50.17-21.23c7.18-1.98 14.67-.82 22.01-1.21 89.27-.39 178.54-.83 267.81-1.22 3.7-17.9 9.86-35.68 20.84-50.47 15.05-20.69 40.84-33.11 66.39-31.8 68.32-.55 136.64-.8 204.96-1.43 24.05.46 49.26 6.1 67.98 22.03 17.33 14.44 26.71 36.36 29.85 58.31 45.6-16.52 94.99-23.94 143.28-17.41 45.35 5.78 88.54 23.44 127.09 47.68-.26-32.21-.45-64.42-.63-96.63-21.5-4.45-42.88-11.33-61.28-23.58-14.74-9.79-27.25-23.45-34.13-39.87-4.63-18.18-5.45-38.45 3.13-55.64 7.16-14.59 20.64-25.05 35.19-31.67 10.66-4.92 22.01-8.17 33.49-10.55 3.27-.74 6.65-.55 10.02-.65l165.03-3.18c23.7-.15 47.89-2.57 71.09 3.67 18.78 4.66 36.39 15.45 47.53 31.46 22.72 40.45 45.25 81.01 68 121.45 12.33-10.57 26.33-19.9 42.34-23.66 5.64-1.21 11.27-2.77 17.04-3.29l293.65 2.55c22.97-.13 46.74 4.65 65.94 17.83 15.85 10.74 27.16 26.59 36.92 42.77 11.09-1.19 22.28-.95 33.43-1.17 30.72-.06 61.46.77 92.1 3.21 14.41 1.26 28.86 2.75 43.02 5.86 7.01 1.67 14.37 3.51 19.87 8.48 53.35-.24 106.71-.67 160.07-.94 16.89-.27 33.79 0 50.68-.51-1.09-11.29 1.25-23.11 7.72-32.56 8.13-12.05 21.25-19.61 34.55-24.75 23.03-8.63 47.71-11.61 72.11-13.37 25.33-1.16 50.57-4.15 75.96-4.37 25.16-.33 50.7.34 75.16 6.85 16.36 4.41 32.38 12.58 42.98 26.17a77.44 77.44 0 0 1 10.41 17.8c74.33-.29 148.66-.84 223-1.25 3.89-7.01 8.72-13.65 15.04-18.69 5.93-4.87 13-8.14 20.28-10.53 3.27-1.02 6.53-2.56 10.09-2.26 22.61 1.04 45.73 4.66 65.92 15.47a87.1 87.1 0 0 1 35.1 34.55c13.07 23.37 17.03 50.26 21.99 76.2 26.73-.26 53.47-.45 80.22-.67 3.26-12.51 12.18-22.32 21.27-31.06 1.85-1.37 4.23-1.8 6.41-2.64 19.47-6.62 40.55-10.01 60.98-6.25a89.64 89.64 0 0 1 42.74 20.67c13.25 11.46 23.52 26.1 31.09 41.82 3.21 18.79 7.72 37.37 12.19 55.91 9.46 38.41 19.29 76.75 30.61 114.66 5.19 20.35 9.19 41.24 8.91 62.32-.26 14.14-3.12 29.03-12.17 40.3-8.03 10.15-20.13 15.93-32.22 19.67 23.46 19.46 45.83 40.19 67.42 61.7 22.52 21.64 42.69 45.63 61.21 70.76 18.87 25.84 35.46 53.46 48.12 82.88 9.74 22.4 16.7 45.94 21.25 69.93-.72-1.83-1.69-3.53-2.61-5.19-5.85 29.07-14.9 57.79-29.86 83.53-14.46 25.21-34.56 47.31-58.94 63.22-28.41 18.74-61.93 28.88-95.71 31.67a270.21 270.21 0 0 1-104.06-12.17c-17.15-5.55-33.8-12.88-48.95-22.69-6.48 12.64-16.75 23.38-29.47 29.8-18.17 9.37-39.76 10.36-59.38 5.57-29.58-7.14-55.38-27.15-70.88-53.17a132.03 132.03 0 0 1-13.16-29.72c-2.08-6.21-2.41-12.79-3.4-19.22-6.82-49.25-13.61-98.5-20.45-147.75-72.05.99-144.1 1.81-216.15 2.84-19.95-.1-40.13-3.26-58.45-11.39-16.95-7.3-31.82-18.79-44.38-32.2-24.86 22.54-53 41.78-84.1 54.61-32.74 13.68-68.58 19.57-103.98 17.75-3.47 15.02-9.51 29.85-19.97 41.39-7.41 8.31-16.92 14.54-27.13 18.85-3.21 1.3-6.43 2.93-9.94 2.92-72.34 1.01-144.67 2.07-217 3.09-7.37-.1-14.7.5-22.03.99-21.28 1.01-43.24-2.49-61.99-13.01-14.35-7.93-26.39-19.6-35.8-32.94-12.02-16.99-20.22-36.37-26.43-56.14-45.62 2.55-91.23 5.24-136.85 7.88 2.67 36.41 5.35 72.83 7.99 109.25.34 3.28-.23 7.01 2.08 9.73.02-1.81.24-3.57.36-5.35l.01-.07c.98 22.22 3.05 44.45 4.53 66.67l15.44 213c-5.39 19.52-19.7 34.78-34.55 47.81-3.53 2.84-6.54 6.74-11.09 7.93-18.58 5.62-38.57 8.42-57.73 4.18-16.54-3.52-31.55-12.53-43.44-24.42-5.49-5.61-11.21-11.28-14.55-18.48-38.94-72.7-77.83-145.43-116.87-218.07-3.27-5.63-6.57-11.33-10.93-16.18-1.92-1.99-4.32-4.23-7.26-3.95-3.81 1.13-6.5 4.27-9.51 6.67-17.88 15.03-39.67 27.18-63.47 28.25-125.65-.81-251.29-1.64-376.94-2.46-8.35-.16-16.7.08-25.02-.31-19.59-2.1-39.45-8.25-54.62-21.25-12.47-10.52-20.8-25.27-25.13-40.87-3.17-10.91-4.39-22.25-5.02-33.55v-.12c9.99-13.24 22.84-24.06 36.6-33.21 13.7-9.08 28.33-16.69 43.24-23.6 2.46-.83 3.52-3.36 4.9-5.35 3.69-5.9 7.21-12.43 6.92-19.61.45-14.14 1.37-28.27 2.02-42.4-33.92 20.03-69.73 37.23-107.5 48.67-37.27 11.32-76.66 16.69-115.54 12.89-31.7-2.97-62.67-12.16-91.23-26.15-.07 15.43.08 30.87-.07 46.3-1.34 5.15.23 10.48-.04 15.72-2.21 16.24-6.83 32.78-17.49 45.62-12.3 15.35-31.16 23.65-49.96 27.81-9.47 2.77-19.39 1.42-29.09 1.72-67.02.04-134.04-.08-201.05.08-17.51-.56-35.37-3.98-50.62-12.95-12.43-7.21-22.49-18.19-29.12-30.89-2.75-5.36-5.49-10.83-6.51-16.82-1.12-5.79-4.74-11.84-10.83-13.26-3.28-.42-6.58-.07-9.84-.04-89.02 1.76-178.04 3.5-267.06 5.27-15.04.59-30.28.81-45.09-2.31-7.88-1.63-15.63-4.46-22.06-9.39-38.11 12.88-78.65 19.61-118.89 16.3-34.91-2.6-68.91-12.8-100.5-27.67-12.36 27.36-32.44 52.07-59.45 65.95-8.29 4.05-16.85 8.15-25.98 9.7-111 .05-222-.38-333-.3-16.7-.41-33.83-5.5-46.34-16.94-14.48-12.96-22.13-31.61-26.85-50.05-43.83 12.04-90.42 12.08-134.78 2.87-14.5-2.91-28.76-6.86-42.86-11.27-20.83 17.49-47.12 28.63-74.27 30.78-15.29-.42-30.74-7.01-40.46-19.06-10.29-12.58-14.59-28.84-16.82-44.65a229.89 229.89 0 0 1-1.79-35.76 558.52 558.52 0 0 1 19.27-49.49l-3.12 2.25a18.4 18.4 0 0 0 7.07-14.9c.39-10.54-.77-21.1-3.36-31.32-28.87 22.58-60.15 42.18-93.59 57.26-60.11 27.42-126.42 39.77-192.3 39.89.75 13.19-1.7 26.38-4.26 39.27 10.76 1.62 21.67.2 32.49.1-10.79 1.01-21.65.77-32.47.65-3.96 20.73-8.88 41.29-13.21 61.96-10.45 48.11-20.83 96.23-31.32 144.32 20.65 5.52 41.34 10.9 62.02 16.33 21.92 4.94 43.72 10.98 64.23 20.3 12.51 5.75 24.65 12.75 34.71 22.25 7.86 7.42 14.29 16.63 17.25 27.12 2.51 8.43 2.43 17.41 1.13 26.05-7.63 13.61-15.96 27.03-27.08 38.11-18.1 18.89-42.13 31.29-67.32 37.71-7.86 1.83-15.77 4.19-23.93 3.75-178.71-.07-357.42.04-536.13-.05-18.04-1.07-36.86-5.74-50.78-17.88-11.22-9.7-17.56-23.95-19.81-38.4-1.63-9.72-1.52-19.61-.99-29.41l-.95.82c10.23-17.05 24.58-31.34 40.63-42.95 31.18-22.36 67.82-35.58 104.61-45.44a707.45 707.45 0 0 1 59.39-12.79 1172640 1172640 0 0 0 245.97-959.55c-7.16-3.12-14.83-4.78-22.42-6.46-10.41-2.08-20.94-3.87-31.58-3.93-19.87-.58-40.29-3.29-58.12-12.63-12.98-6.82-24.27-18-29.17-31.99-1.17-22.5 2.88-46.34 16.58-64.78 12.99-17.76 33.19-28.56 53.71-35.3 10.46-3.27 21.1-6.36 31.96-7.87m225.61 42.7c-9.53.25-19.04 1.26-28.59 1.08H463.95c-.01 3.15-.45 6.82 1.95 9.29 3.49 3.45 8.61 4.22 13.23 5.05l132.99 20.94c-64.75 264.26-129.36 528.55-194.18 792.79-24.69 100.52-49.15 201.1-74 301.58-64.34 17.56-128.6 35.42-192.94 53.01l2.05 4.26c183.02-1.09 366.05-2.07 549.08-3.19-64.6-21.54-129.33-42.7-193.93-64.24 42.13-178.8 84.06-357.65 126.11-536.48 41.21-175.03 82.07-350.14 123.36-525.15 30.77 2.12 61.74 1.57 92.36 5.6 17.28 2.48 35.26 6.29 49.44 17.08a177.03 177.03 0 0 1 35.67 41.13c19.54 31.22 29.12 67.85 31.66 104.37a636.64 636.64 0 0 1 1.87 59.09c-.96 69.16-12.91 137.59-27.93 204.93-1.58 9.25-5.92 17.68-9.31 26.35-19.16 45.4-44.84 88.41-78.39 124.68a349.26 349.26 0 0 1-115.05 82.48c-8.76 4.03-17.92 7.1-26.89 10.62-37.69 14.43-75.77 27.89-114.4 39.58 59.68.06 119.81-5.69 177.32-22.24 44.75-12.92 87.78-33.09 124.45-62.05 14.24-11.57 28.44-23.6 39.38-38.46 43.53-55.46 79.4-117.22 103.55-183.56 15.71-43.41 27.18-88.53 31.97-134.51 5.78-50.83 5.99-103.06-6.91-152.87-8.09-31.48-21.73-61.57-40.49-88.14-5.06-6.77-9.62-14.13-16.41-19.35-37.98-32.74-85.83-51.87-134.45-62.2-55.96-11.88-113.55-13.7-170.56-11.47m2325.42 73.05c-21.78 1.23-43.59 1.93-65.34 3.49 34.08 12.66 68.13 25.4 102.24 37.97 4.31 266.01 8.11 532.03 12.47 798.03-30.67 14.8-61.6 29.08-92.34 43.72-1.76.43-1.74 2.41-1.69 3.85.46 2.01 2.75 2.7 4.61 2.67 29.36.15 58.72-.07 88.08-.15 102.06-.6 204.14-1.1 306.2-1.96-27.69-7.05-55.53-13.48-83.27-20.3-46.26-11.15-92.5-22.43-138.77-33.52-11.72-232.34-23.53-464.67-35.03-697.01 7.81 13.37 14.87 27.19 22.4 40.74 19.3 35.69 38.92 71.21 58 107.02 153.69 282.57 307.29 565.2 461.06 847.72-16.35-320.79-32.85-641.59-49.03-962.39 5.84-3.21 12.3-5.4 18.39-8.23 21.05-9.11 42.13-18.17 63.18-27.31-9.38-.39-18.77-.26-28.14-.42-95.29-1.09-190.59-1.85-285.88-3.11 46.32 13.58 92.75 26.8 139.14 40.11 10.65 99.07 20.85 198.19 31.39 297.27 10.2 96.94 20.45 193.88 30.64 290.82-4.44-7.76-8.36-15.79-12.58-23.66l-224.47-427.54c-54.9-105.34-110.4-210.38-165.48-315.64-51.93 2.55-103.85 5.23-155.78 7.83M4263.01 303.1c17.28 8.04 34.73 15.76 52.04 23.75 1.76.59 1.67 2.69 2.1 4.19 22.07 119.96 44.16 239.92 66.37 359.86.8 4.69-.37 9.43-.62 14.14-2.65 25.15-6.46 50.51-15.6 74.23-5.65 14.33-13.87 28.34-26.69 37.35-8.97 6.47-19.8 9.7-30.6 11.4-4.4.95-8.77-.44-13.05-1.09-20.57-3.83-40.59-12.5-55.94-26.93-14.98-13.82-25.03-32.08-32.2-50.95-2.02-5.62-4.44-11.18-5.24-17.14-18.6-107.34-37.38-214.65-55.92-322-.65-1.55.01-2.97 1.08-4.13 10.95-13.9 21.89-27.79 32.82-41.71-62.52 1.25-125.06 2.36-187.58 3.82 15.12 9.7 30.83 18.49 46.11 27.94 1.98 1.32 1.66 4.08 2.38 6.14 16.65 74.27 27.92 149.61 44.06 223.98 9.63 43.36 21.32 86.52 39.22 127.27a368.5 368.5 0 0 0 30.96 46.06c18.71 23.63 41.05 45.13 68.12 58.88 19.2 9.74 40.64 15.12 62.2 15.04 24.47.07 48.56-6.28 70.98-15.77 6.59-2.97 13.55-5.47 19.22-10.1 17.69-13.23 30.12-32.34 38.33-52.61 8.86-21.9 13.48-45.27 16.14-68.67 3.26-29.91 3.23-60.09 1.66-90.1-.61-9.35-.91-18.75-2.21-28.03-15.61-91.82-31.02-183.68-46.79-275.47-.34-1.39.65-2.59 1.44-3.65 10.26-12.51 20.09-25.38 29.99-38.18-50.93 4.17-101.86 8.24-152.78 12.48m-2987.19 6.47c20.47 7.22 41.3 13.39 61.82 20.49a156662 156662 0 0 0 99.92 313.88c1.21 3.23-.06 6.65-.32 9.95-13.23 99.28-26.62 198.54-39.73 297.84-25.77 10.95-51.87 21.12-77.57 32.23 106.24.47 212.49.54 318.73.73-17.44-5.95-35.17-11.1-52.72-16.75l-70.12-22c12.23-95.63 24.54-191.26 36.76-286.89.45-2.52.12-5.41 1.92-7.47 52.94-71.76 105.83-143.56 158.76-215.33 3.35-4.55 6.2-9.61 10.16-13.64 22.5-7.42 45.12-14.52 67.67-21.82 6.67-2.4 13.73-3.87 20.15-6.9-20.43-.37-40.87-.06-61.31-.16-53.41.11-106.84-.22-160.24.16 2.49 1.69 5.45 2.44 8.23 3.56 20.85 7.95 41.68 15.94 62.54 23.86-21.91 29.4-44.53 58.27-66.78 87.41-24.23 31.45-48.29 63.04-72.62 94.4-28.85-89.49-57.42-179.08-86.08-268.64 31.06-8.65 62.06-17.53 93.13-26.16-84.1.24-168.2.78-252.3 1.25m1129.32 4.11c20.13 8.56 40.21 17.23 60.45 25.53-.12 22.28-.81 44.56-1.2 66.84-1.32 67.44-2.7 134.88-4.06 202.31l-244.78-12.01c3.97-58.25 7.8-116.51 11.91-174.75 28.66-7.27 57.18-15.1 85.85-22.33a70.34 70.34 0 0 0-4.29-.25c-85.73.5-171.47 1.17-257.2 1.59 21.86 6.48 43.92 12.35 65.88 18.49-9.93 154.5-20.13 308.99-30.11 463.49l-60.97 24.97c-14.91 6.31-30.15 11.91-44.84 18.68 24.72.29 49.44.04 74.17.13 77.11-.09 154.23.17 231.33-.14a17.12 17.12 0 0 0-3.61-1.9c-27.49-10.72-54.87-21.71-82.37-32.38 3.74-80.02 7.81-160.03 11.69-240.05 83.65 1.16 167.29 2.26 250.94 3.38-3.9 104.95-7.9 209.9-11.81 314.84-25.13 8.97-50.39 17.59-75.48 26.68 4.04.83 8.2.41 12.32.69 72.81 2.06 145.63 4.31 218.44 6.26-21.07-9.14-42.34-17.86-63.48-26.84 1.01-210.59 2.28-421.19 3.33-631.79 24.65-10.38 49.52-20.25 74.07-30.87-72.06-.38-144.12-.2-216.18-.57m2374.61 27.1c-2.99 1.39-6.57.39-9.74.75l-312.22 4.62c-5.84-7.92-10.74-16.5-16.49-24.47 5.4 43.42 11.03 86.81 16.44 130.23 2.93 21.76 5.17 43.63 8.55 65.31 4.52-38.05 9.04-76.1 13.51-114.15 0-1.38.41-3.46 2.22-3.43 36.98-2.61 74-4.99 111-7.56 2.06.11 4.64-1.04 6.43.6.89 2.76 1.26 5.64 1.97 8.46 29.53 137.04 59.41 274 89.02 411.02.71 2.53-2.19 2.99-3.95 3.28-44.57 8.93-89.02 18.51-133.65 27.13 8.36.58 16.75-.02 25.15.02l153-1.9c47.06-.7 94.14-.95 141.19-1.92a79036.65 79036.65 0 0 1-85.14-33.18c-1.75-.38-2.05-2.27-2.3-3.69-31.24-139.66-62.71-279.28-93.84-418.96-.8-1.34.68-3.08 2.12-2.83 25.34-.05 50.68.01 76.03-.03 3.17-.6 4.37 2.94 6.11 4.88 18 24.29 35.83 48.7 53.71 73.09-11.21-48.17-22.92-96.23-34.23-144.38-5.36 8.82-9.6 18.28-14.89 27.11m-998.85 10.85c7.03 7.76 15.23 14.43 22.62 21.88a1032594.6 1032594.6 0 0 1-78.59 381.48c-4.67 21.97-8.81 44.12-13.81 65.98-15.32 9.14-30.91 17.84-46.29 26.87 51.4-2.01 102.79-4.35 154.18-6.48 10.04-.63 20.16-.44 30.16-1.6-17.44-5.18-34.89-10.32-52.32-15.51 6.34-55.24 12.74-110.47 19.13-165.7 37.61 0 75.23-.02 112.85.01 26.03 79.1 52.01 158.21 78.09 237.29-17.07 12.92-34.23 25.73-51.24 38.71 73.43-.65 146.86-1.45 220.29-2.16 9.05-.28 18.15.2 27.18-.59-28.67-10.3-57.35-20.57-86-30.93-55.19-138.5-110.45-276.97-165.67-415.46-15.31-38.12-30.15-76.43-45.57-114.51 7.58-7.38 15.35-14.57 23.08-21.8-49.37.63-98.73 1.69-148.09 2.52m-966.41 21.15c-19.88 2.13-39.65 5.43-58.97 10.58-38.39 10.19-75.77 27.82-104.28 55.98-28.24 26.71-47.55 61.76-58.92 98.7-4.03 11.81-5.68 24.23-7.5 36.53-6.71 47.69-4.9 97.03 8.97 143.34 11.84 40.2 32.73 77.48 59.51 109.62 4.84 6.56 11.86 10.93 18.22 15.87 23.91 17.61 50.83 31.48 79.67 38.88 27.58 7.22 56.64 8.22 84.76 3.8 43.4-6.81 84.07-25.45 121.03-48.7 5.93-4.11 12.82-7.21 17.35-13.05a292.4 292.4 0 0 0 45.25-66.72c18.93-38.41 28.62-80.96 30.78-123.6.37-10 1.26-20.09-.34-30.03-4.6-35.48-13.45-70.7-28.99-103.04a236.92 236.92 0 0 0-59.85-78.16c-16.17-13.54-34.27-24.67-53.37-33.53-6.36-3.32-13.42-4.73-20.25-6.66a335.55 335.55 0 0 0-41.6-8.6c-10.43-1.21-21-2.89-31.47-1.21m-1666.92 22.7c-14.55 8.52-27.17 20.14-37.45 33.47a208.03 208.03 0 0 0-27.12 50.16c-7.39 33.89-4.69 70.85 12.33 101.55 9.76 18.03 23.32 33.76 38.28 47.67 14.13 10.74 27.88 22.05 40.37 34.68 21.87 21.98 40.97 48.31 48.1 78.96 2.43 11.72 4.26 24.05 1.34 35.85-4.73 23.49-13.5 47.49-31.43 64.18-14.17 13.39-33.74 19.76-52.99 20.28-6.6.78-12.8-2.01-18.99-3.8-12.8-4.3-25.24-10.29-35.5-19.16a67.84 67.84 0 0 1-22.18-37.93c-4.36-20.96-1.23-42.58 3.23-63.25.86-4.68.3-9.46.24-14.18-.35-4.8-.31-9.93-2.89-14.18-3.62 1.24-6.31 4.7-7.74 8.12-16.58 68.36-33.2 136.71-49.68 205.1-.58 5.96-2.65 14.57 3.85 18.06 10.41-19.06 20.17-38.48 30.36-57.67a219.7 219.7 0 0 0 37.34 23.72c36.76 18.6 79.23 24.47 119.91 19.11 30.77-4.03 61.41-15.74 84.25-37.26 13.36-12.49 23.62-28.07 30.72-44.87 11.62-27.72 15.53-58.11 15.47-87.98-2.85-33.99-13.73-66.98-29.47-97.12-17.23-32.92-39.81-62.73-64.33-90.52-11.83-12.75-22.97-26.23-32.1-41.07-9.17-14.95-16.45-31.66-17.42-49.37-1.17-18.63 7.84-38.28 24.37-47.63 9.64-5.1 20.76-6.6 31.55-6.45 10.77.24 21.5 1.85 31.95 4.44.43 1.5-.12 3.14-.14 4.69-2.85 25.92-5.64 51.86-8.47 77.78-.84 8.38-2.17 16.75-1.89 25.2.14 2.78.12 5.92 2.34 7.96 1.4-1.24 3.17-2.41 3.51-4.41 12.78-51.44 25.52-102.9 38.11-154.39-32.04-3.7-64.05-10.9-96.47-8.1-21.43 1.66-42.78 7.37-61.36 18.36m3902.82 1.92c-1.39 1.96-2.76 4.04-3.03 6.47-3.03 19.24-5.99 38.48-8.97 57.72l-2.23 1.06a184.73 184.73 0 0 0-38.74-18.24c-19.74-6.65-40.72-8.76-61.46-8.27-4 .15-8.04-.17-11.91.81-11.38 2.69-22.56 6.54-32.75 12.31-13.61 7.55-25.15 18.93-32.3 32.8-9.18 17.75-12.29 38.15-11.24 57.97 1.2 34.84 12.73 68.83 30.87 98.44 19.71 32.53 46.02 60.38 73.07 86.87 2.69 2.74 6.08 4.63 9.25 6.8 57.56 38.86 110.92 83.8 159.98 132.92 8.32 7.43 13.3 17.66 18.71 27.24 9.52 18.29 16.23 38.86 14.46 59.71-1.26 16.02-8.44 31.7-20.59 42.36-12.16 10.79-29.11 16.93-45.34 13.98-48.46-11.65-95.02-32.49-134.51-63.09-27.91-21.54-52.16-47.71-72-76.82-1.53-2.1-2.81-4.9-5.6-5.38-2.99-.83-5.23 1.72-6.89 3.73 10.03 72.37 19.62 144.82 29.58 217.2.73 2.94 4.04 5.38 7.11 4.13 3.47-29.39 6.79-58.79 10.15-88.2.89-.11 2.18-1.06 3.08-.14 16.44 12.26 32.67 24.82 49.23 36.92 30.75 21.85 65.09 40.04 102.53 46.79 33.18 6.23 68.08 1.4 98.59-12.93 7.21-3.59 14.97-6.63 20.86-12.33a180.3 180.3 0 0 0 13.69-13.26c18.25-19.36 31.36-44.2 33.95-70.92 3.41-32.47-7.05-64.63-21.89-93.12-7.44-13.76-15.1-27.61-25.42-39.46-36.04-43.74-76.62-83.59-119.66-120.39-12.1-10.21-24.31-20.28-35.88-31.09-25.18-23.3-49.54-48.15-67.48-77.6-4.91-7.49-7.52-16.12-10.64-24.43-6.04-17.4-11.24-35.45-11.45-54-.13-11.42 2.35-23.52 9.98-32.39 6.2-7.18 15.14-11.87 24.41-13.62 19.81 1.88 39.58 7.85 56.06 19.23 12.13 8.32 22.14 19.5 29.81 32 9.43 15.34 15.56 32.43 20.59 49.65 2.78 1.81 6.19 3.03 9.47 1.53-4-20.26-8.9-40.32-13.54-60.44-9.98-42.5-20.18-84.94-29.93-127.5-.52-1.75-.59-3.72-1.98-5.02m-3044.57 18.46a93.14 93.14 0 0 1-32.82 3.9c-4.48-.07-8.59-1.98-12.86-3.02-12.43-3.22-25.32-4.53-38.14-4.51a303.33 303.33 0 0 0-41.98 6.31c-29.42 6.26-57.37 18.42-82.62 34.68-29.06 18.85-53.55 44.04-74.15 71.74-9.91 13.43-19.42 27.23-27.21 42.02-22.44 41.05-37.4 86.95-38.27 134.01-1.12 43.32 10.08 86.37 29.25 125.05 3.79 7.37 7.21 15.04 12.42 21.56 21.15 28.63 47.42 54.18 79.19 70.73 33.85 17.92 73.73 23.71 111.35 16.75 37.84-6.67 73.12-24.24 103.53-47.39 4.95-3.38 8.46-8.34 12.23-12.9 2.42-3.32 5.35-6.63 6.12-10.79.06-2.54-3.22-2.28-4.89-1.95-3.92.92-8.39 1.46-11.21 4.64-6.35 6.12-13.53 11.68-21.76 15-26.17 7.42-54.03 10.85-80.96 5.75a121.76 121.76 0 0 1-46.31-19.15c-15.48-10.57-28.45-24.54-38.97-39.98a176.28 176.28 0 0 1-13.15-26.02c-15.8-38.34-18.3-80.89-13.82-121.74 4.88-44.68 17.35-88.14 32.34-130.38 6.17-19.46 14.07-38.65 26.14-55.25 9.08-12.5 20.96-23.34 35.34-29.35 16.93-7.22 36.2-7.25 53.87-2.89 9.45 4.55 17.68 11.54 24.13 19.79 9.59 12.31 14.97 27.38 17.84 42.59 4.29 23.1 3.35 46.79.97 70.05.37 3.63 1.71 7.57 4.61 10 2.81 2.11 6.52.88 9.53-.16 12.15-65.16 24.82-130.22 36.94-195.39-6.29-.54-12.05 2.32-16.68 6.3z"/><path d="M2796.44 405.65c9.26-1.56 18.59.24 27.66 2.14 20.67 4.61 40.28 14.77 55.09 30.03 26.25 25.64 40.53 60.66 50.53 95.32 13.74 72.64 9.61 147.83-6 219.82-11.25 30.99-31.29 59.51-59.34 77.41-12.49 8.11-26.27 14.11-40.52 18.36-4.51 1.44-9.32.89-13.94.75-17.64-1.07-34.5-8.37-48.34-19.18-14.81-11.48-26.74-26.23-36.97-41.82-15.69-24.13-27.61-50.49-37.96-77.29-3.34-7.72-4.57-16.09-6.62-24.19-10.47-46.71-18.37-95.01-12.27-142.9 3.11-24.12 10.26-47.84 22.08-69.15 3.81-6.72 7.7-13.5 12.88-19.3 9.43-10.92 20.2-20.79 32.21-28.8 18.39-11.94 39.78-18.84 61.51-21.2zM3845.32 404.76c6.5 18.69 12.21 37.65 18.55 56.4l52.16 158.58c-31.87-.06-63.75.07-95.61-.07 8.37-71.63 16.45-143.29 24.9-214.91z"/></g><g fill="#feee03" stroke="#feee03" stroke-width=".09"><path d="M704.55 85.83c57.01-2.23 114.6-.41 170.56 11.47 48.62 10.33 96.47 29.46 134.45 62.2 6.79 5.22 11.35 12.58 16.41 19.35 18.76 26.57 32.4 56.66 40.49 88.14 12.9 49.81 12.69 102.04 6.91 152.87-4.79 45.98-16.26 91.1-31.97 134.51-24.15 66.34-60.02 128.1-103.55 183.56-10.94 14.86-25.14 26.89-39.38 38.46-36.67 28.96-79.7 49.13-124.45 62.05-57.51 16.55-117.64 22.3-177.32 22.24 38.63-11.69 76.71-25.15 114.4-39.58 8.97-3.52 18.13-6.59 26.89-10.62A349.26 349.26 0 0 0 853.04 728c33.55-36.27 59.23-79.28 78.39-124.68 3.39-8.67 7.73-17.1 9.31-26.35 15.02-67.34 26.97-135.77 27.93-204.93.31-19.71-.35-39.44-1.87-59.09-2.54-36.52-12.12-73.15-31.66-104.37a177.03 177.03 0 0 0-35.67-41.13c-14.18-10.79-32.16-14.6-49.44-17.08-30.62-4.03-61.59-3.48-92.36-5.6-41.29 175.01-82.15 350.12-123.36 525.15-42.05 178.83-83.98 357.68-126.11 536.48 64.6 21.54 129.33 42.7 193.93 64.24-183.03 1.12-366.06 2.1-549.08 3.19l-2.05-4.26c64.34-17.59 128.6-35.45 192.94-53.01 24.85-100.48 49.31-201.06 74-301.58 64.82-264.24 129.43-528.53 194.18-792.79l-132.99-20.94c-4.62-.83-9.74-1.6-13.23-5.05-2.4-2.47-1.96-6.14-1.95-9.29h212.01c9.55.18 19.06-.83 28.59-1.08zM3029.97 158.88c51.93-2.6 103.85-5.28 155.78-7.83 55.08 105.26 110.58 210.3 165.48 315.64l224.47 427.54c4.22 7.87 8.14 15.9 12.58 23.66-10.19-96.94-20.44-193.88-30.64-290.82-10.54-99.08-20.74-198.2-31.39-297.27-46.39-13.31-92.82-26.53-139.14-40.11 95.29 1.26 190.59 2.02 285.88 3.11 9.37.16 18.76.03 28.14.42-21.05 9.14-42.13 18.2-63.18 27.31-6.09 2.83-12.55 5.02-18.39 8.23 16.18 320.8 32.68 641.6 49.03 962.39-153.77-282.52-307.37-565.15-461.06-847.72-19.08-35.81-38.7-71.33-58-107.02-7.53-13.55-14.59-27.37-22.4-40.74 11.5 232.34 23.31 464.67 35.03 697.01 46.27 11.09 92.51 22.37 138.77 33.52 27.74 6.82 55.58 13.25 83.27 20.3-102.06.86-204.14 1.36-306.2 1.96-29.36.08-58.72.3-88.08.15-1.86.03-4.15-.66-4.61-2.67-.05-1.44-.07-3.42 1.69-3.85 30.74-14.64 61.67-28.92 92.34-43.72-4.36-266-8.16-532.02-12.47-798.03-34.11-12.57-68.16-25.31-102.24-37.97 21.75-1.56 43.56-2.26 65.34-3.49zM4263.01 303.1c50.92-4.24 101.85-8.31 152.78-12.48-9.9 12.8-19.73 25.67-29.99 38.18-.79 1.06-1.78 2.26-1.44 3.65 15.77 91.79 31.18 183.65 46.79 275.47 1.3 9.28 1.6 18.68 2.21 28.03 1.57 30.01 1.6 60.19-1.66 90.1-2.66 23.4-7.28 46.77-16.14 68.67-8.21 20.27-20.64 39.38-38.33 52.61-5.67 4.63-12.63 7.13-19.22 10.1-22.42 9.49-46.51 15.84-70.98 15.77-21.56.08-43-5.3-62.2-15.04-27.07-13.75-49.41-35.25-68.12-58.88a368.5 368.5 0 0 1-30.96-46.06c-17.9-40.75-29.59-83.91-39.22-127.27-16.14-74.37-27.41-149.71-44.06-223.98-.72-2.06-.4-4.82-2.38-6.14-15.28-9.45-30.99-18.24-46.11-27.94 62.52-1.46 125.06-2.57 187.58-3.82a33432.54 33432.54 0 0 1-32.82 41.71c-1.07 1.16-1.73 2.58-1.08 4.13 18.54 107.35 37.32 214.66 55.92 322 .8 5.96 3.22 11.52 5.24 17.14 7.17 18.87 17.22 37.13 32.2 50.95 15.35 14.43 35.37 23.1 55.94 26.93 4.28.65 8.65 2.04 13.05 1.09 10.8-1.7 21.63-4.93 30.6-11.4 12.82-9.01 21.04-23.02 26.69-37.35 9.14-23.72 12.95-49.08 15.6-74.23.25-4.71 1.42-9.45.62-14.14-22.21-119.94-44.3-239.9-66.37-359.86-.43-1.5-.34-3.6-2.1-4.19-17.31-7.99-34.76-15.71-52.04-23.75zM1275.82 309.57c84.1-.47 168.2-1.01 252.3-1.25-31.07 8.63-62.07 17.51-93.13 26.16 28.66 89.56 57.23 179.15 86.08 268.64 24.33-31.36 48.39-62.95 72.62-94.4 22.25-29.14 44.87-58.01 66.78-87.41-20.86-7.92-41.69-15.91-62.54-23.86-2.78-1.12-5.74-1.87-8.23-3.56 53.4-.38 106.83-.05 160.24-.16 20.44.1 40.88-.21 61.31.16-6.42 3.03-13.48 4.5-20.15 6.9-22.55 7.3-45.17 14.4-67.67 21.82-3.96 4.03-6.81 9.09-10.16 13.64-52.93 71.77-105.82 143.57-158.76 215.33-1.8 2.06-1.47 4.95-1.92 7.47-12.22 95.63-24.53 191.26-36.76 286.89l70.12 22c17.55 5.65 35.28 10.8 52.72 16.75-106.24-.19-212.49-.26-318.73-.73 25.7-11.11 51.8-21.28 77.57-32.23 13.11-99.3 26.5-198.56 39.73-297.84.26-3.3 1.53-6.72.32-9.95a156662 156662 0 0 1-99.92-313.88c-20.52-7.1-41.35-13.27-61.82-20.49zM2405.14 313.68c72.06.37 144.12.19 216.18.57-24.55 10.62-49.42 20.49-74.07 30.87-1.05 210.6-2.32 421.2-3.33 631.79 21.14 8.98 42.41 17.7 63.48 26.84-72.81-1.95-145.63-4.2-218.44-6.26-4.12-.28-8.28.14-12.32-.69 25.09-9.09 50.35-17.71 75.48-26.68 3.91-104.94 7.91-209.89 11.81-314.84-83.65-1.12-167.29-2.22-250.94-3.38-3.88 80.02-7.95 160.03-11.69 240.05 27.5 10.67 54.88 21.66 82.37 32.38 1.25.47 2.45 1.11 3.61 1.9-77.1.31-154.22.05-231.33.14-24.73-.09-49.45.16-74.17-.13 14.69-6.77 29.93-12.37 44.84-18.68l60.97-24.97c9.98-154.5 20.18-308.99 30.11-463.49-21.96-6.14-44.02-12.01-65.88-18.49 85.73-.42 171.47-1.09 257.2-1.59 1.41.04 2.84.12 4.29.25-28.67 7.23-57.19 15.06-85.85 22.33-4.11 58.24-7.94 116.5-11.91 174.75l244.78 12.01c1.36-67.43 2.74-134.87 4.06-202.31.39-22.28 1.08-44.56 1.2-66.84-20.24-8.3-40.32-16.97-60.45-25.53zM4779.75 340.78c5.29-8.83 9.53-18.29 14.89-27.11 11.31 48.15 23.02 96.21 34.23 144.38-17.88-24.39-35.71-48.8-53.71-73.09-1.74-1.94-2.94-5.48-6.11-4.88-25.35.04-50.69-.02-76.03.03-1.44-.25-2.92 1.49-2.12 2.83 31.13 139.68 62.6 279.3 93.84 418.96.25 1.42.55 3.31 2.3 3.69 28.37 11.07 56.75 22.14 85.14 33.18-47.05.97-94.13 1.22-141.19 1.92l-153 1.9c-8.4-.04-16.79.56-25.15-.02 44.63-8.62 89.08-18.2 133.65-27.13 1.76-.29 4.66-.75 3.95-3.28-29.61-137.02-59.49-273.98-89.02-411.02-.71-2.82-1.08-5.7-1.97-8.46-1.79-1.64-4.37-.49-6.43-.6-37 2.57-74.02 4.95-111 7.56-1.81-.03-2.22 2.05-2.22 3.43-4.47 38.05-8.99 76.1-13.51 114.15-3.38-21.68-5.62-43.55-8.55-65.31-5.41-43.42-11.04-86.81-16.44-130.23 5.75 7.97 10.65 16.55 16.49 24.47l312.22-4.62c3.17-.36 6.75.64 9.74-.75z"/><path d="M3780.9 351.63c49.36-.83 98.72-1.89 148.09-2.52-7.73 7.23-15.5 14.42-23.08 21.8 15.42 38.08 30.26 76.39 45.57 114.51 55.22 138.49 110.48 276.96 165.67 415.46 28.65 10.36 57.33 20.63 86 30.93-9.03.79-18.13.31-27.18.59-73.43.71-146.86 1.51-220.29 2.16 17.01-12.98 34.17-25.79 51.24-38.71-26.08-79.08-52.06-158.19-78.09-237.29-37.62-.03-75.24-.01-112.85-.01-6.39 55.23-12.79 110.46-19.13 165.7 17.43 5.19 34.88 10.33 52.32 15.51-10 1.16-20.12.97-30.16 1.6-51.39 2.13-102.78 4.47-154.18 6.48 15.38-9.03 30.97-17.73 46.29-26.87 5-21.86 9.14-44.01 13.81-65.98 26.22-127.16 52.42-254.32 78.59-381.48-7.39-7.45-15.59-14.12-22.62-21.88m64.42 53.13c-8.45 71.62-16.53 143.28-24.9 214.91 31.86.14 63.74.01 95.61.07l-52.16-158.58c-6.34-18.75-12.05-37.71-18.55-56.4zM2814.49 372.78c10.47-1.68 21.04 0 31.47 1.21a335.55 335.55 0 0 1 41.6 8.6c6.83 1.93 13.89 3.34 20.25 6.66 19.1 8.86 37.2 19.99 53.37 33.53a236.92 236.92 0 0 1 59.85 78.16c15.54 32.34 24.39 67.56 28.99 103.04 1.6 9.94.71 20.03.34 30.03-2.16 42.64-11.85 85.19-30.78 123.6a292.4 292.4 0 0 1-45.25 66.72c-4.53 5.84-11.42 8.94-17.35 13.05-36.96 23.25-77.63 41.89-121.03 48.7-28.12 4.42-57.18 3.42-84.76-3.8-28.84-7.4-55.76-21.27-79.67-38.88-6.36-4.94-13.38-9.31-18.22-15.87-26.78-32.14-47.67-69.42-59.51-109.62-13.87-46.31-15.68-95.65-8.97-143.34 1.82-12.3 3.47-24.72 7.5-36.53 11.37-36.94 30.68-71.99 58.92-98.7 28.51-28.16 65.89-45.79 104.28-55.98 19.32-5.15 39.09-8.45 58.97-10.58m-18.05 32.87c-21.73 2.36-43.12 9.26-61.51 21.2-12.01 8.01-22.78 17.88-32.21 28.8-5.18 5.8-9.07 12.58-12.88 19.3-11.82 21.31-18.97 45.03-22.08 69.15-6.1 47.89 1.8 96.19 12.27 142.9 2.05 8.1 3.28 16.47 6.62 24.19 10.35 26.8 22.27 53.16 37.96 77.29 10.23 15.59 22.16 30.34 36.97 41.82 13.84 10.81 30.7 18.11 48.34 19.18 4.62.14 9.43.69 13.94-.75 14.25-4.25 28.03-10.25 40.52-18.36 28.05-17.9 48.09-46.42 59.34-77.41 15.61-71.99 19.74-147.18 6-219.82-10-34.66-24.28-69.68-50.53-95.32-14.81-15.26-34.42-25.42-55.09-30.03-9.07-1.9-18.4-3.7-27.66-2.14zM1147.57 395.48c18.58-10.99 39.93-16.7 61.36-18.36 32.42-2.8 64.43 4.4 96.47 8.1a42910.34 42910.34 0 0 1-38.11 154.39c-.34 2-2.11 3.17-3.51 4.41-2.22-2.04-2.2-5.18-2.34-7.96-.28-8.45 1.05-16.82 1.89-25.2 2.83-25.92 5.62-51.86 8.47-77.78.02-1.55.57-3.19.14-4.69a146.69 146.69 0 0 0-31.95-4.44c-10.79-.15-21.91 1.35-31.55 6.45-16.53 9.35-25.54 29-24.37 47.63.97 17.71 8.25 34.42 17.42 49.37 9.13 14.84 20.27 28.32 32.1 41.07 24.52 27.79 47.1 57.6 64.33 90.52 15.74 30.14 26.62 63.13 29.47 97.12.06 29.87-3.85 60.26-15.47 87.98-7.1 16.8-17.36 32.38-30.72 44.87-22.84 21.52-53.48 33.23-84.25 37.26-40.68 5.36-83.15-.51-119.91-19.11a219.7 219.7 0 0 1-37.34-23.72c-10.19 19.19-19.95 38.61-30.36 57.67-6.5-3.49-4.43-12.1-3.85-18.06 16.48-68.39 33.1-136.74 49.68-205.1 1.43-3.42 4.12-6.88 7.74-8.12 2.58 4.25 2.54 9.38 2.89 14.18.06 4.72.62 9.5-.24 14.18-4.46 20.67-7.59 42.29-3.23 63.25a67.84 67.84 0 0 0 22.18 37.93c10.26 8.87 22.7 14.86 35.5 19.16 6.19 1.79 12.39 4.58 18.99 3.8 19.25-.52 38.82-6.89 52.99-20.28 17.93-16.69 26.7-40.69 31.43-64.18 2.92-11.8 1.09-24.13-1.34-35.85-7.13-30.65-26.23-56.98-48.1-78.96-12.49-12.63-26.24-23.94-40.37-34.68-14.96-13.91-28.52-29.64-38.28-47.67-17.02-30.7-19.72-67.66-12.33-101.55a208.03 208.03 0 0 1 27.12-50.16c10.28-13.33 22.9-24.95 37.45-33.47zM5050.39 397.4c1.39 1.3 1.46 3.27 1.98 5.02 9.75 42.56 19.95 85 29.93 127.5 4.64 20.12 9.54 40.18 13.54 60.44-3.28 1.5-6.69.28-9.47-1.53-5.03-17.22-11.16-34.31-20.59-49.65-7.67-12.5-17.68-23.68-29.81-32-16.48-11.38-36.25-17.35-56.06-19.23-9.27 1.75-18.21 6.44-24.41 13.62-7.63 8.87-10.11 20.97-9.98 32.39.21 18.55 5.41 36.6 11.45 54 3.12 8.31 5.73 16.94 10.64 24.43 17.94 29.45 42.3 54.3 67.48 77.6 11.57 10.81 23.78 20.88 35.88 31.09 43.04 36.8 83.62 76.65 119.66 120.39 10.32 11.85 17.98 25.7 25.42 39.46 14.84 28.49 25.3 60.65 21.89 93.12-2.59 26.72-15.7 51.56-33.95 70.92a180.3 180.3 0 0 1-13.69 13.26c-5.89 5.7-13.65 8.74-20.86 12.33-30.51 14.33-65.41 19.16-98.59 12.93-37.44-6.75-71.78-24.94-102.53-46.79-16.56-12.1-32.79-24.66-49.23-36.92-.9-.92-2.19.03-3.08.14-3.36 29.41-6.68 58.81-10.15 88.2-3.07 1.25-6.38-1.19-7.11-4.13-9.96-72.38-19.55-144.83-29.58-217.2 1.66-2.01 3.9-4.56 6.89-3.73 2.79.48 4.07 3.28 5.6 5.38 19.84 29.11 44.09 55.28 72 76.82 39.49 30.6 86.05 51.44 134.51 63.09 16.23 2.95 33.18-3.19 45.34-13.98 12.15-10.66 19.33-26.34 20.59-42.36 1.77-20.85-4.94-41.42-14.46-59.71-5.41-9.58-10.39-19.81-18.71-27.24-49.06-49.12-102.42-94.06-159.98-132.92-3.17-2.17-6.56-4.06-9.25-6.8-27.05-26.49-53.36-54.34-73.07-86.87-18.14-29.61-29.67-63.6-30.87-98.44-1.05-19.82 2.06-40.22 11.24-57.97 7.15-13.87 18.69-25.25 32.3-32.8 10.19-5.77 21.37-9.62 32.75-12.31 3.87-.98 7.91-.66 11.91-.81 20.74-.49 41.72 1.62 61.46 8.27a184.73 184.73 0 0 1 38.74 18.24l2.23-1.06c2.98-19.24 5.94-38.48 8.97-57.72.27-2.43 1.64-4.51 3.03-6.47zM2005.82 415.86c4.63-3.98 10.39-6.84 16.68-6.3-12.12 65.17-24.79 130.23-36.94 195.39-3.01 1.04-6.72 2.27-9.53.16-2.9-2.43-4.24-6.37-4.61-10 2.38-23.26 3.32-46.95-.97-70.05-2.87-15.21-8.25-30.28-17.84-42.59-6.45-8.25-14.68-15.24-24.13-19.79-17.67-4.36-36.94-4.33-53.87 2.89-14.38 6.01-26.26 16.85-35.34 29.35-12.07 16.6-19.97 35.79-26.14 55.25-14.99 42.24-27.46 85.7-32.34 130.38-4.48 40.85-1.98 83.4 13.82 121.74a176.28 176.28 0 0 0 13.15 26.02c10.52 15.44 23.49 29.41 38.97 39.98a121.76 121.76 0 0 0 46.31 19.15c26.93 5.1 54.79 1.67 80.96-5.75 8.23-3.32 15.41-8.88 21.76-15 2.82-3.18 7.29-3.72 11.21-4.64 1.67-.33 4.95-.59 4.89 1.95-.77 4.16-3.7 7.47-6.12 10.79-3.77 4.56-7.28 9.52-12.23 12.9-30.41 23.15-65.69 40.72-103.53 47.39-37.62 6.96-77.5 1.17-111.35-16.75-31.77-16.55-58.04-42.1-79.19-70.73-5.21-6.52-8.63-14.19-12.42-21.56-19.17-38.68-30.37-81.73-29.25-125.05.87-47.06 15.83-92.96 38.27-134.01 7.79-14.79 17.3-28.59 27.21-42.02 20.6-27.7 45.09-52.89 74.15-71.74 25.25-16.26 53.2-28.42 82.62-34.68a303.33 303.33 0 0 1 41.98-6.31c12.82-.02 25.71 1.29 38.14 4.51 4.27 1.04 8.38 2.95 12.86 3.02 11.02.6 22.29-.59 32.82-3.9z"/></g></svg>