<svg id="Layer_1" xmlns="http://www.w3.org/2000/svg" viewBox="0 0 594 134"><style>.st0,.st1,.st2{stroke:#000;stroke-width:9.400000e-02}.st1,.st2{fill:#7e0202;stroke:#7e0202}.st2{fill:#aaa;stroke:#aaa}</style><g id="_x23_7e0202ff"><path class="st0" d="M179.4 34.5c5.9-.5 11.8-.5 17.6.3 5.1.3 8.5 4.4 12.7 6.8v19.7c-6.6 1.6-13.2 3.4-19.9 4.9-.2-5.3.4-10.7-.3-15.9l-1.7-2.1c-1.8 1.6-4.4 3-3.9 5.8v38.2l5.8 2.3V81.6h-4.1V70.8c7.9-1.5 15.9-2.7 23.9-4.2.3 13.2 0 26.5.1 39.7-10.6.2-21.2 0-31.8.1-4 .2-7.1-2.8-10.4-4.5-.1-20.7.1-41.5-.1-62.2 3.8-2.2 7.7-4.7 12.1-5.2M170 41v56c.2 1.3-.5 3.3 1 4.1 2.1 1.4 4.3 2.9 6.9 2.8h29.4V69.6l-19 3.3v6.4l4.1-.2.1 19-10.9-4.1V50.3c1.9-1.5 3.5-3.2 5.6-4.3 1.9.4 3.6 1.5 5.3 2.4l-.1 14.6c4.9-1.3 10-2.4 14.9-3.9V42.9c-3.5-2.4-6.8-5.8-11.4-5.9-8.7-.4-18.5-1.6-25.9 4zM18 34.9c11.1-.4 22.3-.1 33.4-.2L46.6 41v16.2c3.6-5.5 6.8-11.1 10.4-16.5l-4.5-6h52.7l-4.3 5.7c4.1 8 8.3 16 12.6 23.9V41.4l-7-6.7H165l-6.4 6.4v55.8c-.3 4.2 4.3 6.1 6.8 8.8h-60.8a73 73 0 0 0 8.1-6.6l-12.3-22.5c.1 7.4-.3 14.9.1 22.3 1.1 1.8 2.8 3.1 4.2 4.6-8.6 5.6-17.5 10.7-26.3 16 1.3-4.6 2.2-9.2 4.1-13.6-7.3-.4-14.7-.2-22-.3-4.5-7.5-9-15-13.8-22.2-.2 5.2-.5 10.5-.1 15.7 1.7 2.7 4.3 4.5 6.5 6.6-11.9-.2-23.7.2-35.6-.2 4.1-2.3 8.3-4.3 12.4-6.6 0-17.7-.1-35.3 0-53-.1-1.5.2-3.1-.5-4.5-3.4-2.5-7.8-3.9-11.4-6.5m9.1 2.4l5.4 2.7v60.3l-5.1 2.9h19.3l-2.6-2.6c-.1-8.7.2-17.5.1-26.2 6.1 9.5 11.8 19.3 17.9 28.9l14-.1a21.2 21.2 0 0 1-4.7-5.6C65.9 88.4 60 79.4 54.5 70.2l16.8-27.1c1.3-2.2 3-4.1 4.8-6H56.4l4 2.8L44 66.3V40.1l3-2.9-19.9.1m54 0l5.2 2.7v57.1c.1 5.9-2.5 11.4-3.8 17.2 6.1-3.5 12.1-7.2 18.2-10.8-.9-1.4-3-2.4-2.9-4.2 0-10.6-.1-21.3.1-31.9 6.2 11 12.2 22.1 18.1 33.3l-5 2.8h19.4l-2.9-2.9.1-60.3 3-2.8h-19.7l5.1 2.8c.2 11.5.1 23.1.1 34.7L97.9 40.4l2.9-2.9c-6.7-.2-13.2-.3-19.7-.2m58 0l5.4 2.7v60.3l-5.2 2.9h19.3l-2.6-2.6V40.1l3.1-2.8h-20m-9.1 3.9c0 19.5-.1 39 .1 58.5l3.9 3.5 8.1-4.2c0-17.7-.1-35.3 0-53-.1-1.5.2-3.1-.4-4.5-2.3-1.8-5-2.9-7.6-4.2l-4.1 3.9M57.3 70.1c4.2 7.2 8.8 14.2 13.2 21.4 1.9 3 3.5 6.3 6.1 8.8 1.7 1.6 3.3 3.3 4.5 5.3 2-2 2.8-4.7 2.7-7.5V41.7l-6.2-3.5c-7.1 10.4-13.4 21.3-20.3 31.9z"/><path class="st0" d="M206.7 34.9c10-.3 19.9-.1 29.9-.1-2.3 8.9-1 18.2-1.3 27.4h6.2V44.1c.2-3.7-2.8-6.3-4.5-9.2 24.2 0 48.5-.2 72.7.1-.1 6.8.1 13.5.1 20.3-2.3-2.8-4.1-5.9-6.5-8.6-3-.7-6.2-.3-9.3-.3 0 17.8-.1 35.6.1 53.4l6.4 5.9c-7.6.3-15.3.1-23 .1.1-19.8-.1-39.5.1-59.3-2.8-.1-5.6-.4-8.3 0-2.9 2.4-4.7 5.9-7 8.8V37.2l-4.2 4.2c0 19.5-.1 38.9.1 58.4 2.2 1.9 4.3 3.9 6.4 6-6.5.3-12.9.1-19.4.2-2.7 0-5.6.3-8-1.1l-23.6 14.9c2.1-8.8 6.1-17.4 5.5-26.6-.1-17.2.1-34.3-.1-51.5l-12.3-6.8m9.4 2.4l5.2 2.7v57c.1 6-2.5 11.5-3.8 17.3a1773 1773 0 0 0 18.3-11l-2.9-2.6V72.9H244c0 9.4.1 18.7-.1 28.1l-2.5 2.4c5.6.1 11.3-.1 16.9.1-1-1.3-3-2.3-2.8-4.2V40.4l3-3h-19.3l4.9 2.8v24.5H233V40.2l2.8-2.8c-6.7-.1-13.2-.2-19.7-.1m48.7 0v10.3l2.6-3.7H280v59.5h14.2l-2.6-2.5c-.2-19 0-38-.1-57h12.7l3 3.7V37.4l-42.4-.1m-29.5 38V97c-.2 2.9 2.2 5.1 3.6 7.4 1.1-2.3 2.7-4.6 2.6-7.3l-.1-21.9-6.1.1zM335.6 34.9c13.4-.3 26.9 0 40.3-.1 4-.1 7.3 2.3 10.8 3.8v24.5c.1 2.8-1.9 5-3.1 7.3 1 1.9 2.3 3.7 2.9 5.9 1 9.3-1.1 19 1.3 28.2 3.4-1.6 6.8-3.4 10.1-5.4-.1-19.2.1-38.3-.1-57.5l-12.2-6.5c23.1-.3 46.3 0 69.4-.2 4.1-.2 7.4 2.4 10.6 4.4l-.1 62.2c-3.4 1.8-6.5 4.8-10.5 4.5h-28.7V41.9c-2.6-1.5-5.3-2.9-7.9-4.5l-4.2 4.1v54.7c-.8 4.6 4 6.8 6.5 9.8h-32.5l3.8 13.8a1993 1993 0 0 1-24.1-15.7c1-2.2 2.3-4.3 2.2-6.8V75.6h-6.2v21.8c-.1 3.5 2.8 5.9 4.6 8.7l-33.4.1 12.2-6.8.1-57.3c-3.9-2.6-7.9-4.8-11.8-7.2m9.3 2.3l5.1 3v60.3l-4.9 2.7h19.1l-2.6-2.5c-.2-9.3 0-18.7-.1-28h11.3v27.8l-2.9 2.8c6.1 3.6 12.2 7.2 18.2 11-1.1-4.5-2.7-8.9-3.6-13.5-.6-8 .2-16.1-.3-24.1-.8-2.3-2.2-4.4-3.4-6.5 1.4-2.6 3.8-5 3.6-8.2V40.1c-2.6-1.3-5.2-3-8.2-2.9h-31.3m50.2.1l5.3 2.8v60.5l-5.1 2.7h19.3c-1.2-1.5-3.1-3-2.6-5.3V40.1l3-2.8h-19.9m28.7-.1l5.1 3v63.1h26.2c3.1.1 5.5-2 8.1-3.3V40.9l-.3-.5c-2.5-1.2-4.9-3.2-7.9-3-10.4-.2-20.8-.1-31.2-.2z"/><path class="st0" d="M462.7 34.9c29.4-.4 58.8 0 88.2-.2 3.9-.2 7.3 2.2 10.6 3.9V63c.2 2.7-1.7 4.9-3 7.1 1.4 2.8 3.3 5.6 3 8.9.4 9-1.3 18.2 1.6 26.9l3.8 13.6c-7.9-4.9-15.8-9.8-23.4-15l-1.6 1.2h-79.6c4.2-2.3 8.4-4.4 12.6-6.8l-.1-57.4c-4-2.2-8.1-4.3-12.1-6.6m9.3 2.4l5.3 2.8v60.4l-5.3 2.9 39.1-.1V92.9l-2.8 3.9h-19.6c0-7.5-.1-14.9.1-22.4h13.7l2.8 2.4c0-4.2-.1-8.4.1-12.6-4.7 3.8-11.1 1.5-16.6 2.1V43.8h19.4l3 3.6.1-10c-13.1-.2-26.2-.1-39.3-.1m47.7 0l5.2 2.8v60.3l-4.9 2.8c6.3.1 12.7-.1 19.1.1-1.3-1.5-3-3-2.7-5.2 0-8.5-.1-16.9.1-25.4h11.1c0 9.3.1 18.7-.1 28l-2.9 2.5 18.5 11c-1.3-4.7-3.1-9.3-3.8-14.1-.3-7.1.1-14.1-.1-21.2.2-3.3-2.1-6-3.7-8.7 1.5-2.6 4-4.9 3.7-8.2V40c-2.6-1.2-5.1-2.9-8.1-2.8l-31.4.1m-5.9-.3v18.1c-2.4-2.8-4.1-6.3-6.8-8.8-5.1-.5-10.3 0-15.5-.2v17.5h10.3l6.2-5.4V82c-2-1.7-3.8-3.6-6.1-4.9-3.4-.9-7-.3-10.5-.3l.1 17.4h15.6l6.7-9.1v18.4a236 236 0 0 1 8.6-4.7l.1-57.4c-3-1.3-5.9-2.9-8.7-4.4M539 75.3l-.1 21.7c-.3 2.8 1.6 5 3 7.2 1.4-2.2 3.5-4.3 3.3-7.1V75.3H539zM440.4 45.4h11.2v48.2a28.7 28.7 0 0 1-11.3 1.6l.1-49.8m2.5 2.5c0 15-.2 30 .1 45l6-.8c.2-14.7 0-29.4.1-44.1l-6.2-.1zM361.5 45.5l11.2-.1.1 16.6c-3.3 2.5-7.3 2.8-11.3 2.5v-19M364 48v14.4c2-.4 4.1-.4 5.8-1.6.9-4.2.3-8.5.4-12.7L364 48z"/><path class="st0" d="M536.4 64.5V45.4h11.1v16.5a15 15 0 0 1-11.1 2.6m2.5-16.5v14.4c2-.4 4.1-.4 5.9-1.6.7-4.2.2-8.5.3-12.8h-6.2z"/><g><path class="st1" d="M172.4 27.5c5.9-.5 11.8-.5 17.6.3 5.1.3 8.5 4.4 12.7 6.8v19.7c-6.6 1.6-13.2 3.4-19.9 4.9-.2-5.3.4-10.7-.3-16l-1.7-2.1c-1.8 1.6-4.4 3-3.9 5.8v38.2l5.8 2.3V74.5h-4.1V63.7c7.9-1.5 15.9-2.7 23.9-4.2.3 13.2 0 26.5.1 39.7-10.6.2-21.2 0-31.8.1-4 .2-7.1-2.8-10.4-4.5-.1-20.7.1-41.5-.1-62.2 3.8-2.1 7.7-4.6 12.1-5.1M163 34v56c.2 1.3-.5 3.3 1 4.1 2.1 1.4 4.3 2.9 6.9 2.8h29.4V62.6l-19 3.3v6.4l4.1-.2.1 19-10.9-4.1V43.3c1.9-1.5 3.5-3.2 5.6-4.3 1.9.4 3.6 1.5 5.3 2.4l-.1 14.6c4.9-1.3 10-2.4 14.9-3.9V35.9c-3.5-2.4-6.8-5.8-11.4-5.9-8.7-.4-18.5-1.6-25.9 4zM11 27.9c11.1-.4 22.3-.1 33.4-.2L39.6 34v16.2c3.6-5.5 6.8-11.1 10.4-16.5l-4.5-6h52.7l-4.3 5.7c4.1 8 8.3 16 12.6 23.9V34.4l-7-6.7H158l-6.4 6.4v55.8c-.3 4.2 4.3 6.1 6.8 8.8H97.6a73 73 0 0 0 8.1-6.6L93.4 69.6c.1 7.4-.3 14.9.1 22.3 1.1 1.8 2.8 3.1 4.2 4.6-8.6 5.6-17.5 10.7-26.3 16 1.3-4.6 2.2-9.2 4.1-13.6-7.3-.4-14.7-.2-22-.3-4.5-7.5-9-15-13.8-22.2-.2 5.2-.5 10.5-.1 15.7 1.7 2.7 4.3 4.5 6.5 6.6-11.9-.2-23.7.2-35.6-.2 4.1-2.3 8.3-4.3 12.4-6.6 0-17.7-.1-35.3 0-53-.1-1.5.2-3.1-.5-4.5-3.4-2.5-7.8-3.9-11.4-6.5m9.1 2.4l5.4 2.7v60.3l-5.1 2.9h19.3l-2.6-2.6c-.1-8.7.2-17.5.1-26.2 6.1 9.5 11.8 19.3 17.9 28.9l14-.1a21.2 21.2 0 0 1-4.7-5.6C58.9 81.4 53 72.4 47.5 63.2l16.8-27.1c1.3-2.2 3-4.1 4.8-6H49.4l4 2.8L37 59.3V33.1l3-2.9-19.9.1m54 0l5.2 2.7v57.1c.1 5.9-2.5 11.4-3.8 17.2 6.1-3.5 12.1-7.2 18.2-10.8-.9-1.4-3-2.4-2.9-4.2 0-10.6-.1-21.3.1-31.9 6.2 11 12.2 22.1 18.1 33.3l-5 2.8h19.4l-2.9-2.9.1-60.3 3-2.8h-19.7l5.1 2.8c.2 11.5.1 23.1.1 34.7L90.9 33.4l2.9-2.9c-6.7-.2-13.2-.3-19.7-.2m58 0l5.4 2.7v60.3l-5.2 2.9h19.3l-2.6-2.6V33.1l3.1-2.9-20 .1m-9.1 3.9c0 19.5-.1 39 .1 58.5l3.9 3.5 8.1-4.2c0-17.7-.1-35.3 0-53-.1-1.5.2-3.1-.4-4.5-2.3-1.8-5-2.9-7.6-4.2l-4.1 3.9M50.3 63.1c4.2 7.2 8.8 14.2 13.2 21.4 1.9 3 3.5 6.3 6.1 8.8 1.7 1.6 3.3 3.3 4.5 5.3 2-2 2.8-4.7 2.7-7.5V34.7l-6.2-3.5c-7.1 10.4-13.4 21.3-20.3 31.9z"/><path class="st1" d="M199.7 27.9c10-.3 19.9-.1 29.9-.1-2.3 8.9-1 18.2-1.3 27.4h6.2V37.1c.2-3.7-2.8-6.3-4.5-9.2 24.2 0 48.5-.2 72.7.1-.1 6.8.1 13.5.1 20.3-2.3-2.8-4.1-5.9-6.5-8.6-3-.7-6.2-.3-9.3-.3 0 17.8-.1 35.6.1 53.4l6.4 5.9c-7.6.3-15.3.1-23 .1.1-19.8-.1-39.5.1-59.3-2.8-.1-5.6-.4-8.3 0-2.9 2.4-4.7 5.9-7 8.8V30.2l-4.2 4.2c0 19.5-.1 38.9.1 58.4 2.2 1.9 4.3 3.9 6.4 6-6.5.3-12.9.1-19.4.2-2.7 0-5.6.3-8-1.1l-23.6 14.9c2.1-8.8 6.1-17.4 5.5-26.6-.1-17.2.1-34.3-.1-51.5l-12.3-6.8m9.4 2.4l5.2 2.7v57c.1 6-2.5 11.5-3.8 17.3a1773 1773 0 0 0 18.3-11l-2.9-2.6V65.9H237c0 9.4.1 18.7-.1 28.1l-2.5 2.4c5.6.1 11.3-.1 16.9.1-1-1.3-3-2.3-2.8-4.2V33.4l3-3h-19.3l4.9 2.8v24.5H226V33.2l2.8-2.8c-6.7-.1-13.2-.2-19.7-.1m48.7 0v10.3l2.6-3.7H273v59.5h14.2l-2.6-2.5c-.2-19 0-38-.1-57h12.7l3 3.7V30.4l-42.4-.1m-29.5 38V90c-.2 2.9 2.2 5.1 3.6 7.4 1.1-2.3 2.7-4.6 2.6-7.3l-.1-21.9-6.1.1zM328.6 27.9c13.4-.3 26.9 0 40.3-.1 4-.1 7.3 2.3 10.8 3.8v24.5c.1 2.8-1.9 5-3.1 7.3 1 1.9 2.3 3.7 2.9 5.9 1 9.3-1.1 19 1.3 28.2 3.4-1.6 6.8-3.4 10.1-5.4-.1-19.2.1-38.3-.1-57.5l-12.2-6.5c23.1-.3 46.3 0 69.4-.2 4.1-.2 7.4 2.4 10.6 4.4l-.1 62.2c-3.4 1.8-6.5 4.8-10.5 4.5h-28.7V34.9c-2.6-1.5-5.3-2.9-7.9-4.5l-4.2 4.1v54.7c-.8 4.6 4 6.8 6.5 9.8h-32.5l3.8 13.8a1993 1993 0 0 1-24.1-15.7c1-2.2 2.3-4.3 2.2-6.8V68.6h-6.2v21.8c-.1 3.5 2.8 5.9 4.6 8.7l-33.4.1 12.2-6.8.1-57.3c-3.9-2.6-7.9-4.8-11.8-7.2m9.3 2.3l5.1 3v60.3l-4.9 2.7h19.1l-2.6-2.5c-.2-9.3 0-18.7-.1-28h11.3v27.8l-2.9 2.8c6.1 3.6 12.2 7.2 18.2 11-1.1-4.5-2.7-8.9-3.6-13.5-.6-8 .2-16.1-.3-24.1-.8-2.3-2.2-4.4-3.4-6.5 1.4-2.6 3.8-5 3.6-8.2V33.1c-2.6-1.3-5.2-3-8.2-2.9h-31.3m50.2.1l5.3 2.8v60.5l-5.1 2.7h19.3c-1.2-1.5-3.1-3-2.6-5.3V33.1l3-2.8h-19.9m28.7-.1l5.1 3v63.1h26.2c3.1.1 5.5-2 8.1-3.3V33.9l-.3-.5c-2.5-1.2-4.9-3.2-7.9-3-10.4-.2-20.8 0-31.2-.2z"/><path class="st1" d="M455.7 27.9c29.4-.4 58.8 0 88.2-.2 3.9-.2 7.3 2.2 10.6 3.9V56c.2 2.7-1.7 4.9-3 7.1 1.4 2.8 3.3 5.6 3 8.9.4 9-1.3 18.2 1.6 26.9l3.8 13.6c-7.9-4.9-15.8-9.8-23.4-15l-1.6 1.2h-79.6c4.2-2.3 8.4-4.4 12.6-6.8l-.1-57.4c-4-2.2-8.1-4.3-12.1-6.6m9.3 2.4l5.3 2.8v60.4l-5.3 2.9 39.1-.1V85.9l-2.8 3.9h-19.6c0-7.5-.1-14.9.1-22.4h13.7l2.8 2.4c0-4.2-.1-8.4.1-12.6-4.7 3.8-11.1 1.5-16.6 2.1V36.8h19.4l3 3.6.1-10c-13.1-.2-26.2-.1-39.3-.1m47.7 0l5.2 2.8v60.3l-4.9 2.8c6.3.1 12.7-.1 19.1.1-1.3-1.5-3-3-2.7-5.2 0-8.5-.1-16.9.1-25.4h11.1c0 9.3.1 18.7-.1 28l-2.9 2.5 18.5 11c-1.3-4.7-3.1-9.3-3.8-14.1-.3-7.1.1-14.1-.1-21.2.2-3.3-2.1-6-3.7-8.7 1.5-2.6 4-4.9 3.7-8.1v-22c-2.6-1.2-5.1-2.9-8.1-2.8h-31.4m-5.9-.3v18.1c-2.4-2.8-4.1-6.3-6.9-8.8-5.1-.5-10.3 0-15.5-.2v17.5h10.3l6.2-5.4V75c-2-1.7-3.8-3.6-6.1-4.9-3.4-.9-7-.3-10.5-.3l.1 17.4H500l6.7-9.1v18.4a236 236 0 0 1 8.6-4.7l.1-57.4c-2.9-1.3-5.8-2.9-8.6-4.4M532 68.3l-.1 21.7c-.3 2.8 1.6 5 3 7.2 1.4-2.2 3.5-4.3 3.3-7.1V68.3H532zM433.4 38.4h11.2v48.2a28.7 28.7 0 0 1-11.3 1.6l.1-49.8m2.5 2.5c0 15-.2 30 .1 45l6-.8c.2-14.7 0-29.4.1-44.1l-6.2-.1zM354.5 38.5l11.2-.1.1 16.6c-3.3 2.5-7.3 2.8-11.3 2.5v-19M357 41v14.4c2-.4 4.1-.4 5.8-1.6.9-4.2.3-8.5.4-12.7L357 41z"/><path class="st1" d="M529.4 57.5V38.4h11.1v16.5a15 15 0 0 1-11.1 2.6m2.5-16.5v14.4c2-.4 4.1-.4 5.9-1.6.7-4.2.2-8.5.3-12.8h-6.2z"/></g></g><g id="_x23_aaaaaaff"><path class="st0" d="M27.1 37.3c6.6-.2 13.3 0 19.9-.1l-3 2.9v26.2l16.3-26.2-4-2.8H76a30.9 30.9 0 0 0-4.8 6c-5.5 9.1-11.2 18-16.8 27.1 5.5 9.2 11.4 18.2 16.9 27.4a25 25 0 0 0 4.7 5.6l-14 .1c-6-9.8-11.7-19.6-17.8-29.1 0 8.8-.2 17.5-.1 26.2l2.6 2.6H27.4l5.1-2.9V40l-5.4-2.7zM81.1 37.3h19.6l-2.9 2.9c6.2 11.5 12.1 23.1 18.2 34.6 0-11.6.1-23.1-.1-34.7l-5.1-2.8h19.7l-3 2.8c-.1 20.1.1 40.2-.1 60.3l2.9 2.9h-19.4l5-2.8C110 89.3 104 78.2 97.8 67.2c-.2 10.6-.1 21.3-.1 31.9-.1 1.9 1.9 2.9 2.9 4.2-6 3.6-12 7.4-18.2 10.8 1.3-5.7 3.9-11.2 3.8-17.2V39.8c-1.7-.7-3.4-1.6-5.1-2.5zM139.1 37.3l20-.1L156 40v60.5l2.6 2.6h-19.3l5.2-2.9V39.9l-5.4-2.6zM170 41c7.4-5.6 17.2-4.5 25.9-3.8 4.6.1 7.9 3.5 11.4 5.9v16.2c-4.9 1.4-9.9 2.5-14.9 3.9l.1-14.6c-1.7-.9-3.4-2-5.3-2.4-2.1 1.1-3.8 2.8-5.6 4.3v43.7l10.9 4.1c0-6.3.1-12.6-.1-19l-4.1.2v-6.4l19-3.3v34.3h-29.4c-2.6.1-4.8-1.4-6.9-2.8-1.5-.8-.8-2.7-1-4.1V41zM216.1 37.3h19.6l-2.8 2.8v24.5H244V40.1l-4.9-2.8h19.3l-3 3v58.9c-.2 1.9 1.8 2.9 2.8 4.2l-16.9-.1 2.5-2.4.1-28.1h-11.1v27.8l2.9 2.6-18.3 11c1.3-5.8 3.9-11.3 3.8-17.3v-57l-5.1-2.6zM264.8 37.3h42.5v10.2l-3-3.7h-12.7c.1 19-.1 38 .1 57l2.6 2.5h-14.2V43.8h-12.6l-2.6 3.7-.1-10.2zM344.9 37.2h31.2c3-.2 5.6 1.6 8.2 2.9V62c.2 3.2-2.1 5.6-3.6 8.2 1.2 2.1 2.6 4.2 3.4 6.5.5 8-.2 16.1.3 24.1.9 4.6 2.5 8.9 3.6 13.5-6-3.8-12.1-7.3-18.2-11l2.9-2.8V72.7h-11.3c0 9.3-.1 18.7.1 28l2.6 2.5H345l4.9-2.7V40.2l-5-3m16.6 8.3v19.1c4 .3 8-.1 11.3-2.5l-.1-16.6h-11.2zM395.1 37.3h19.8l-3 2.8V98c-.5 2.3 1.4 3.7 2.6 5.3h-19.3l5.1-2.7V40.1l-5.2-2.8zM423.8 37.2c10.4.2 20.8 0 31.2.1 3-.2 5.4 1.8 7.9 3l.3.5v59.1c-2.6 1.4-5 3.5-8.1 3.3h-26.2V40.1l-5.1-2.9m16.6 8.2v49.8a29 29 0 0 0 11.3-1.6V45.4h-11.3zM472 37.3h39.2l-.1 10-3-3.6h-19.4v22.5c5.5-.6 11.9 1.7 16.6-2.1-.2 4.2-.1 8.4-.1 12.6l-2.8-2.4c-4.6.1-9.1 0-13.7 0l-.1 22.4h19.6l2.8-3.9v10.4c-13 .1-26.1-.1-39.1.1l5.3-2.9V40l-5.2-2.7zM519.7 37.3l31.3-.1c3-.1 5.5 1.7 8.1 2.8v22c.3 3.2-2.2 5.6-3.7 8.2 1.5 2.7 3.8 5.4 3.7 8.7.2 7.1-.2 14.1.1 21.2.7 4.8 2.5 9.4 3.8 14.1l-18.5-11 2.9-2.5c.2-9.3 0-18.7.1-28h-11.1c-.2 8.5-.1 16.9-.1 25.4-.4 2.2 1.4 3.7 2.7 5.2l-19.1-.1 4.9-2.8V40.1l-5.1-2.8m16.7 27.2a16 16 0 0 0 11.1-2.5V45.5h-11.1v19z"/><g><path class="st2" d="M20.1 30.3l19.9-.1-3 2.9v26.2l16.3-26.2-4-2.8H69a34.2 34.2 0 0 0-4.8 6c-5.5 9.1-11.2 18-16.8 27.1 5.5 9.2 11.4 18.2 16.9 27.4a25 25 0 0 0 4.7 5.6l-14 .1c-6-9.8-11.7-19.6-17.8-29.1 0 8.8-.2 17.5-.1 26.2l2.6 2.6H20.4l5.1-2.9V33l-5.4-2.7zM74.1 30.3h19.6l-2.9 2.9C97 44.7 102.9 56.3 109 67.8c0-11.6.1-23.1-.1-34.7l-5.1-2.8h19.7l-3 2.8c-.1 20.1.1 40.2-.1 60.3l2.9 2.9h-19.4l5-2.8C103 82.3 97 71.2 90.8 60.2c-.2 10.6-.1 21.3-.1 31.9-.1 1.9 1.9 2.9 2.9 4.2-6 3.6-12 7.4-18.2 10.8 1.3-5.7 3.9-11.2 3.8-17.2V32.8c-1.7-.7-3.4-1.6-5.1-2.5zM132.1 30.3l20-.1-3.1 2.9v60.5l2.6 2.6h-19.3l5.2-2.9V33l-5.4-2.7zM163 34c7.4-5.6 17.2-4.4 25.9-3.8 4.6.1 7.9 3.5 11.4 5.9v16.2c-4.9 1.4-9.9 2.5-14.9 3.9l.1-14.6c-1.7-.9-3.4-2-5.3-2.4-2.1 1.1-3.8 2.8-5.6 4.3v43.7l10.9 4.1c0-6.3.1-12.6-.1-19l-4.1.2v-6.4l19-3.3v34.3h-29.4c-2.6.1-4.8-1.4-6.9-2.8-1.5-.8-.8-2.7-1-4.1V34zM209.1 30.3h19.6l-2.8 2.8v24.5H237V33.1l-4.9-2.8h19.3l-3 3v58.9c-.2 1.9 1.8 2.9 2.8 4.2l-16.9-.1 2.5-2.4.1-28.1h-11.1v27.8l2.9 2.6-18.3 11c1.3-5.8 3.9-11.3 3.8-17.3v-57l-5.1-2.6zM257.8 30.3h42.5v10.2l-3-3.7h-12.7c.1 19-.1 38 .1 57l2.6 2.5h-14.2V36.8h-12.6l-2.6 3.7-.1-10.2zM337.9 30.2h31.2c3-.2 5.6 1.6 8.2 2.9V55c.2 3.2-2.1 5.6-3.6 8.2 1.2 2.1 2.6 4.2 3.4 6.5.5 8-.2 16.1.3 24.1.9 4.6 2.5 8.9 3.6 13.5-6-3.8-12.1-7.3-18.2-11l2.9-2.8V65.7h-11.3c0 9.3-.1 18.7.1 28l2.6 2.5H338l4.9-2.7V33.2l-5-3m16.6 8.3v19c4 .3 8-.1 11.3-2.5l-.1-16.6-11.2.1zM388.1 30.3h19.8l-3 2.8V91c-.5 2.3 1.4 3.7 2.6 5.3h-19.3l5.1-2.7V33.1l-5.2-2.8zM416.8 30.2c10.4.2 20.8 0 31.2.1 3-.2 5.4 1.8 7.9 3l.3.5v59.1c-2.6 1.4-5 3.5-8.1 3.3h-26.2V33.1l-5.1-2.9m16.6 8.2v49.8a29 29 0 0 0 11.3-1.6V38.4h-11.3zM465 30.3h39.2l-.1 10-3-3.6h-19.4v22.5c5.5-.6 11.9 1.7 16.6-2.1-.2 4.2-.1 8.4-.1 12.6l-2.8-2.4c-4.6.1-9.1 0-13.7 0l-.1 22.4h19.6l2.8-3.9v10.4c-13 .1-26.1-.1-39.1.1l5.3-2.9V33l-5.2-2.7zM512.7 30.3l31.3-.1c3-.1 5.5 1.7 8.1 2.8v22c.3 3.2-2.2 5.6-3.7 8.1 1.5 2.7 3.8 5.4 3.7 8.7.2 7.1-.2 14.1.1 21.2.7 4.8 2.5 9.4 3.8 14.1l-18.5-11 2.9-2.5c.2-9.3 0-18.7.1-28h-11.1c-.2 8.5-.1 16.9-.1 25.4-.4 2.2 1.4 3.7 2.7 5.2l-19.1-.1 4.9-2.8V33l-5.1-2.7m16.7 27.2a16 16 0 0 0 11.1-2.5V38.5h-11.1v19z"/></g></g></svg>