<svg xmlns="http://www.w3.org/2000/svg" xmlns:xlink="http://www.w3.org/1999/xlink" width="1794.39" height="745.03" viewBox="0 0 138.51 57.51"><path fill="#fff" fill-rule="evenodd" d="M15.88 5.53a.39.39 0 0 0 .29-.11c.07-.1.1-.23.1-.4V2.44c0-.16-.03-.3-.1-.39a.4.4 0 0 0-.3-.1.45.45 0 0 0-.31.1.88.88 0 0 0-.1.39V5c0 .18.05.32.1.41.07.07.16.11.32.11zm0 .2c-.73 0-1.32-.17-1.75-.56A1.66 1.66 0 0 1 13.5 4c-.02-.09-.02-.16-.02-.25s0-.16.02-.25c.04-.47.25-.86.63-1.18a2.64 2.64 0 0 1 1.75-.54c.7 0 1.29.18 1.72.54.43.36.66.84.66 1.43a1.79 1.79 0 0 1-.66 1.43 2.5 2.5 0 0 1-1.72.57zm4.85-3.23c.1-.23.27-.41.5-.55.22-.13.47-.18.76-.18.3 0 .53.07.73.18a.87.87 0 0 1 .34.55h.07c.11-.23.27-.41.5-.55.22-.13.47-.18.77-.18.4 0 .7.09.88.32.16.2.25.59.25 1.13v2.16h.43v.2H23.6v-.2h.23V2.83c0-.14 0-.25-.04-.32-.05-.05-.12-.1-.19-.1-.15 0-.27.1-.33.26-.1.16-.14.4-.14.72v1.98h.25v.2H21.2v-.2h.25V2.84a.6.6 0 0 0-.06-.32c-.05-.05-.12-.1-.19-.1-.15 0-.27.1-.36.26-.07.16-.11.4-.11.72v1.98h.25v.2H18.6v-.2h.43V2.07h-.43v-.2h.88c.18 0 .36 0 .52-.03l.52-.07h.14l-.02.73h.09zm39.26 1.8h.18c.2.37.45.69.8.9.33.22.67.33 1.01.33.18 0 .34-.02.43-.09.12-.09.16-.18.16-.3 0-.22-.38-.45-1.13-.67l-.25-.1a1.59 1.59 0 0 1-.86-.51 1.29 1.29 0 0 1-.32-.84c0-.37.14-.66.4-.91.28-.23.62-.34 1.03-.34.18 0 .36 0 .54.04l.57.16.63-.2h.16l.02 1.22h-.15a1.87 1.87 0 0 0-.68-.77 1.59 1.59 0 0 0-.91-.3.77.77 0 0 0-.36.1.32.32 0 0 0-.14.25c0 .23.3.43.86.59a.17.17 0 0 0 .1.02 3 3 0 0 1 1.15.59c.25.23.36.52.36.88 0 .44-.14.78-.4 1.03-.28.22-.64.34-1.14.34-.2 0-.4-.03-.59-.05-.18-.04-.36-.14-.59-.23l-.63.28h-.2l-.05-1.18-.02-.23h.02zm0-3.46v.28l-.02.1c0 .09-.05.15-.07.24-.05.1-.07.16-.14.25-.04.07-.09.16-.16.23-.06.07-.13.14-.2.18-.07.05-.14.1-.23.14-.04.02-.06.04-.11.04-.04.02-.1.02-.11.02-.05 0-.1 0-.12-.02-.02-.02-.02-.04-.02-.09v-.04l.02-.07c.03 0 .03-.02.05-.05.02 0 .02-.02.04-.04l.16-.14c.05-.07.1-.11.12-.18l.09-.18.02-.18c-.11 0-.23 0-.32-.03-.09-.02-.16-.06-.22-.09l-.12-.15c-.04-.07-.04-.14-.04-.2 0-.05 0-.1.02-.15 0-.04.02-.09.04-.13.03-.05.07-.07.1-.11.04-.05.09-.07.13-.1l.16-.06c.07 0 .11-.03.18-.03.14 0 .25.03.34.05.09.04.18.09.23.16a.4.4 0 0 1 .13.2l.05.15zM40.16 5.22a.27.27 0 0 0 .28-.18c.06-.14.1-.32.1-.6v-.81h-.1c-.12 0-.19.02-.28.04-.09.03-.18.07-.22.16-.1.12-.14.37-.14.73 0 .23.02.38.07.5a.3.3 0 0 0 .27.16h.02zm0-1.77h.37V2.3c0-.11-.03-.2-.12-.27-.04-.04-.13-.07-.25-.07h-.09c-.06 0-.13 0-.2.03-.07.02-.1.06-.1.09 0 0 .03.04.08.07a.73.73 0 0 1 .18.47.5.5 0 0 1-.23.46c-.16.09-.4.13-.7.13-.3 0-.52-.04-.66-.16-.16-.11-.22-.25-.22-.47 0-.3.15-.5.45-.64.3-.13.8-.18 1.47-.18h.02c.53 0 .91.02 1.2.09.3.05.53.14.66.27a.95.95 0 0 1 .2.32c.05.11.07.3.07.54v1.9c0 .08 0 .15.03.19.02.02.07.05.13.05.07 0 .12-.03.16-.05.07-.04.1-.09.14-.14l.11.1c-.13.2-.34.38-.59.5a1.43 1.43 0 0 1-.75.2.9.9 0 0 1-.54-.16.98.98 0 0 1-.36-.43 1.7 1.7 0 0 1-.45.34l-.2.09a1.98 1.98 0 0 1-.85.16c-.36 0-.65-.1-.88-.3a.9.9 0 0 1-.34-.74c0-.39.2-.68.59-.91.38-.23.9-.34 1.59-.34h.08zm2.86 2.13v-.2h.43V2.06h-.43v-.2h1.02c.16 0 .34 0 .52-.02l.5-.07h.13v.73h.07c.14-.23.3-.41.52-.55.23-.13.5-.18.82-.18.4 0 .72.09.9.32.19.2.28.59.28 1.13v2.15h.43v.2h-2.47v-.2h.22V2.83c0-.13-.02-.25-.04-.31a.29.29 0 0 0-.2-.1c-.14 0-.25.1-.34.26-.07.16-.12.4-.12.72v1.98h.25v.2h-2.5zm9.56-.98l.16.12a1.9 1.9 0 0 1-.77.75c-.34.18-.75.27-1.22.27-.66 0-1.2-.18-1.61-.55-.41-.38-.6-.86-.6-1.45 0-.61.21-1.09.6-1.45.4-.36.95-.52 1.65-.52.63 0 1.11.09 1.45.32.36.22.52.52.52.93 0 .27-.07.47-.23.63-.15.16-.38.23-.65.23a.85.85 0 0 1-.6-.2.8.8 0 0 1-.22-.57c0-.16.05-.3.1-.39.04-.09.13-.18.24-.25l.12-.06c.13-.07.2-.14.2-.23 0-.07-.05-.11-.11-.16-.07-.05-.18-.05-.3-.05-.27 0-.5.12-.61.39-.14.25-.2.68-.2 1.25 0 .7.06 1.15.22 1.4.14.28.37.39.7.39a.98.98 0 0 0 .6-.2c.2-.12.38-.32.56-.6zm2.79 1.05L53.3 2.06h-.43v-.2h2.88v.2h-.45l1.1 1.82.76-1.3.06-.13c.03-.05.03-.07.03-.11a.24.24 0 0 0-.12-.2c-.06-.05-.2-.08-.38-.08v-.2h1.31v.2c-.27.05-.52.25-.72.62 0 .02-.03.04-.03.04l-2.01 3.5c-.23.43-.46.7-.68.88-.2.16-.46.25-.75.25-.3 0-.52-.1-.7-.25a.78.78 0 0 1-.25-.6c0-.22.04-.4.18-.51a.82.82 0 0 1 .54-.18c.2 0 .37.04.48.16.11.1.18.27.18.45a.44.44 0 0 1-.16.34c-.11.11-.16.18-.16.2 0 .03.03.05.05.07.02.02.04.02.09.02.13 0 .3-.06.47-.25.19-.16.34-.38.5-.65zM34.23 1.97h-.25A2.7 2.7 0 0 0 33.3.8a1.34 1.34 0 0 0-.95-.4c-.36 0-.61.16-.73.43-.13.3-.2 1.04-.2 2.22 0 .93.07 1.54.23 1.84.15.3.43.45.83.45.41 0 .77-.14 1.07-.4.27-.28.45-.67.54-1.16h.25c-.07.63-.3 1.13-.7 1.47-.43.32-1 .5-1.72.5a2.89 2.89 0 0 1-2.97-2.86 3.1 3.1 0 0 1 .8-2c.26-.27.58-.47.97-.63a2.84 2.84 0 0 1 1.15-.23c.27 0 .52.05.75.1.2.06.45.18.72.33L34 .02h.23zm.54 3.6v-.2h.52V.33h-.47v-.2h1.13c.16 0 .34 0 .52-.03.16-.02.34-.04.5-.09h.14v5.38h.45v.2zm-22.25 0H8.81v-.22h.72V.34c-.36.02-.65.18-.93.48-.27.3-.47.7-.58 1.2h-.19V.12h5.67v1.9h-.16c-.14-.5-.34-.9-.6-1.2-.26-.3-.58-.46-.92-.48v5.01h.7v.23z" clip-rule="evenodd"/><path fill="#33a457" fill-rule="evenodd" d="M19.57 19.32l-.72 3.31h5.34l.75-3.4c.54-2.48 1.08-4.96 1.6-7.44h5.72l.13.03h.66l.09.02h.25l.11.02.1.02.08.02.05.03.07.02.02.04.04.03.03.04.02.07.02.07.02.07v.11l.03.11-.03.14-.02.14-.02.18-.02.09-.03.09-.02.07-.02.09-.02.09-.03.07-.04.09-.02.07-.03.06-.04.07-.02.07-.05.07-.04.07-.03.04-.04.07-.05.05-.02.02-.02.04-.05.03-.02.02-.04.02-.05.05-.07.02-.04.02-.07.03-.07.02-.09.02h-.07l-.09.02h-.09l-.11.03h-.11l-1.36.02H26.9l-1 4.65h7.37l.1-.03h.17l.1-.02h.2l.09-.02h.09l.09-.02h.13l.14-.03.14-.02.13-.02.14-.02.13-.05.12-.02.13-.05.14-.04.11-.05.14-.04.11-.05.12-.04.1-.07.14-.04.12-.07.11-.1.16-.06.11-.1.14-.1.13-.1.12-.11.13-.11.12-.12.1-.13.12-.14.12-.14.1-.13.12-.16.1-.16.08-.16.12-.16.09-.16.09-.18.09-.18.09-.18.07-.2.09-.19.02-.09.04-.11.1-.2.06-.23.07-.2.07-.23.07-.23.07-.25.06-.23.05-.25.07-.25.02-.09v-.09l.02-.06.02-.1.03-.09v-.09l.02-.09.02-.07v-.09l.02-.09v-.09l.03-.09v-.07l.02-.09v-.09l.02-.07v-.18l.02-.09v-.25l.02-.07v-.74l-.02-.14v-.14l-.02-.1v-.14l-.02-.14-.05-.14-.02-.1-.05-.12-.02-.14-.04-.11-.07-.12-.05-.11-.04-.1-.07-.1-.07-.12-.06-.09-.1-.09-.06-.09-.1-.1-.06-.04-.02-.02-.1-.09-.1-.07-.1-.07-.11-.06-.12-.07-.1-.05-.12-.06-.12-.05-.1-.04-.14-.05-.14-.04-.11-.03-.14-.04-.11-.03-.14-.02-.13-.02-.12-.02-.13-.03-.14-.02-.13-.02-.14-.02h-.14l-.13-.03h-.16l-.14-.02h-.3l-.13-.02-1.86-.02H22.22zm102.82 3.31c.58-2.75 1.18-5.5 1.79-8.25l.56-2.59h5.76l1.27.05h.25l.09.02h.18l.09.02h.07l.06.03.05.02.05.02h.04l.02.02.02.03h.05v.02l.02.02.02.02.03.05.02.02v.05l.02.04v.05l.02.04v.34l-.02.1-.02.08-.02.1-.03.13-.04.14-.05.13-.02.12-.05.1-.04.1-.05.1-.06.08-.05.07-.04.07-.05.04-.07.05-.04.05-.05.04-.06.02-.05.03-.02.02-.05.02h-.04l-.05.02h-.04l-.05.03h-.04l-.05.02h-.11l-.05.02h-.31l-.1.02h-.54l-.09.03h-5.4L124.12 19h5.75l.16.02h.3l.1.03h.15l.09.02.09.02.09.02.07.03.06.02.05.02.02.02.05.03.02.02v.02l.02.02v.05l.02.04v.53l-.02.11-.02.14-.02.14-.02.13-.03.16-.04.18-.34 1.86h5.32l.45-2.13.03-.11.04-.11.02-.12v-.11l.03-.11.02-.12.02-.1.02-.12v-.1l.03-.1.02-.1v-.2l.02-.1v-.17l.02-.1v-.31l-.02-.1v-.22l-.02-.07v-.07l-.02-.07-.03-.06-.02-.07v-.07l-.04-.07-.05-.13-.07-.14-.09-.11-.11-.12-.11-.1-.12-.1-.13-.1-.14-.08-.14-.1-.15-.08h-.03l.07-.03.11-.04.1-.05.09-.04.09-.07.09-.04.09-.05.09-.04.09-.05.07-.07.09-.04.07-.07.06-.04.1-.07.06-.05.07-.07.07-.04.04-.07.07-.07.07-.07.04-.06.05-.07.07-.07.04-.07.05-.07.04-.06.05-.07.04-.07.05-.07.02-.09.05-.07.04-.09.05-.06.04-.1.02-.09.05-.06.05-.1.02-.09.04-.09.03-.09.04-.11.02-.1.05-.08.02-.12.05-.09.02-.09.02-.11.05-.11.02-.1.02-.1.02-.12.05-.11.02-.12.02-.11.02-.16.03-.14.04-.15.02-.14.03-.14v-.16l.02-.13.02-.14.02-.16v-.14l.02-.13v-.28l.03-.13v-.5l-.03-.07v-.16l-.02-.07v-.06l-.02-.1-.02-.06-.02-.07v-.07l-.03-.09-.02-.07-.02-.06-.05-.07-.02-.1-.04-.1-.05-.1-.04-.09-.05-.07-.07-.09-.07-.09-.04-.07-.07-.09-.07-.06-.09-.07-.06-.07-.1-.07-.06-.07-.1-.04-.08-.07-.1-.04-.09-.05-.1-.04-.1-.05-.11-.04-.1-.05-.1-.05-.11-.02-.12-.05-.11-.02-.11-.02-.14-.02-.11-.03-.14-.02-.11-.02h-.14l-.11-.02h-.11l-.12-.03h-.1l-.12-.02h-.23l-.11-.02h-.48l-.11-.02h-13.6l-3.35 15.49h5.35zm-4.7-4.28h-11.73l.39-1.75h10.96l.3-1.38.59-2.68h-10.97l.25-1.1.95-4.3h-5.37l-1.88 8.62-1.5 6.87h17.09zm-.08-6.92h1.47l.93-4.29h-10.63l-.93 4.3zm-16.43-4.29h1.5l-1.02 4.65h-6.4l-2.35 10.84h-5.35l2.36-10.84h-6.37l.34-1.6.68-3.05zM83.89 8.75l.37-1.6H78.9l-2.2 10.1-5.6-10.1h-7.68l-3.37 15.48h5.34l2.2-10.11 5.6 10.11h7.68zm-21.02-1.6h-5.35l-3.38 15.48h5.35zm-24.3 11.27l2.46-11.28h5.34L44.02 18h9.79l-1.02 4.64H37.67zm-19-10.14h.02l.07.09.07.09.07.09.07.1.06.1.05.1.04.1.05.12.04.11.05.12.02.11.02.11.05.14v.11l.02.14.02.14v.68l-.02.16-.02.13v.16l-.02.16-.05.16-.27 1.34h-5.28l.07-1v-.18l-.02-.05v-.04l-.02-.03v-.04l-.03-.02-.02-.03v-.02h-.02l-.02-.02-.03-.02-.02-.03h-.04l-.03-.02h-.04l-.02-.02h-.1l-.04-.02h-.14l-.1-.03h-.24l-.11-.02h-.34l-1.18-.07H9.56l-1.16.05h-.11l-.05.02h-.16l-.06.02h-.1l-.04.02h-.1l-.04.03H7.7l-.05.02H7.6l-.07.02-.07.02-.04.03-.07.02-.05.02-.04.05-.02.02-.05.04-.04.05-.03.04-.02.05-.04.04-.03.07-.02.07-.02.07-.02.09-.03.07v.25l.03.02v.02l.02.02.02.02.02.03.03.02.04.02.07.02.07.03.06.02.05.02h.09l.04.02h.07l.05.03h.15l.07.02h.3l.04.02 1.16.02 4.08.12 2.35.11h.14l.13.02h.14l.11.03.14.02h.11l.14.02.11.02.11.03.12.02.13.04.12.03.11.02.11.04.12.03.1.04.15.05.13.06.14.07.13.1.12.08.13.1.1.09.1.1.1.11.09.14.09.11.07.14.09.13.04.14.07.14.05.15.04.16.02.16.05.16.02.16v.18l.02.18v.55l-.02.2-.02.18-.02.2-.03.23-.04.2-.02.23-.05.2-.07.26-.06.25-.07.25-.07.22-.1.23-.08.2-.1.23-.1.2-.1.19-.11.2-.14.18-.11.19-.14.18-.13.16-.14.15-.16.16-.15.14-.16.14-.18.13-.16.12-.18.1-.19.12-.2.1-.18.08-.2.1-.21.06-.23.07-.2.07-.23.07-.22.04-.23.02-.23.05h-.09l-.07.02h-.16l-.09.02h-.09l-.07.03h-.27l-.07.02h-.52l-.11.02h-.45l-.1.02h-.74l-.09.02H9.4l-.12-.02H8.2l-.14-.02h-.8l-.15-.02h-.7l-.19-.02h-.56l-.2-.03H4.9l-.11-.02h-.43l-.1-.02h-.2l-.09-.02h-.3l-.06-.03h-.14l-.1-.02h-.12l-.14-.02h-.11l-.11-.02-.12-.03-.11-.02-.1-.02-.1-.02-.12-.02-.09-.03-.11-.04-.1-.02-.1-.03-.1-.04-.09-.02-.09-.05-.09-.05-.09-.04-.09-.02-.07-.05-.09-.04-.07-.07-.09-.05-.06-.04-.07-.07-.1-.04-.06-.07-.07-.05-.04-.07-.07-.06-.07-.08-.05-.07-.06-.07-.05-.06-.04-.1-.05-.06-.02-.1-.05-.08-.02-.07-.04-.1-.03-.08-.02-.1-.02-.1-.02-.1-.03-.09v-.11l-.02-.1v-.1L0 19.8v-.57l.02-.11v-.14l.02-.11v-.14l.03-.1.02-.15v-.13l.02-.14.25-1.4h5.35l-.14.65-.02.14v.11l-.02.1v.18l.02.09v.04l.02.07v.04l.02.03.03.04v.02h.02l.02.03.02.02h.03l.02.02h.07l.04.02.07.02h.1l.08.03h.1l.08.02h.12l.13.02h.14l.13.02h.3l1.24.05h4.56l.14-.02.13-.03.11-.02.1-.02.09-.05.06-.04.07-.05.07-.04.07-.05.04-.06.02-.07.05-.07.04-.07.03-.09.02-.11.02-.1v-.24l-.02-.04v-.03l-.02-.02-.03-.02v-.02l-.02-.03-.04-.02-.03-.02h-.04l-.07-.02-.07-.03h-.24l-.07-.02h-.25l-.16-.02h-.12l-.88-.05-2.67-.1-1.27-.08-2.22-.1h-.14l-.16-.03h-.3L5 16.77h-.13l-.14-.03h-.14l-.1-.02-.15-.02h-.1l-.14-.02-.12-.03h-.11l-.11-.02-.12-.02-.22-.05-.25-.06-.2-.07-.24-.1-.18-.08-.2-.12-.16-.13-.16-.14-.16-.16-.11-.16-.11-.18-.1-.2-.06-.18-.05-.23-.04-.2-.02-.23v-.23l-.03-.14v-.24l.03-.12v-.25l.02-.13v-.14l.02-.11.02-.14.03-.13.02-.14.02-.11.02-.14.05-.11.02-.12.02-.1.03-.12.02-.12.04-.1.02-.1.03-.11.02-.1.02-.1.05-.1.02-.09.02-.11.05-.1.02-.08.02-.1.05-.08.02-.07.02-.1.05-.08.02-.07.02-.1.05-.06.02-.07.04-.07.03-.09.04-.07.02-.06.05-.07.04-.05.03-.06.04-.07.11-.18.14-.19.11-.16.14-.18.16-.13.13-.16.16-.14.16-.13.16-.12.16-.1.18-.12.16-.12.18-.09.18-.06.2-.07.19-.07.11-.05.09-.02.11-.02.12-.02.1-.03.14-.04.12-.02.13-.03h.14l.16-.02.13-.02.16-.02.16-.02h.16l.18-.03.16-.02h.18l.18-.02h.2l.19-.02h.2l.2-.03h.44L9 7h3.07l.14.02h.9l.14.03h.63l.14.02h.5l.13.02h.41l.18.02h.18l.16.03h.18l.16.02h.16l.16.02.14.02h.15l.16.02.14.03.13.02.14.02.14.02.13.03.12.02.13.02.12.02.1.03.12.04.11.02.12.03.11.04.09.02.11.05.1.04.08.03.1.04.09.05.09.04.07.05.1.04.1.07.09.07.09.06.09.1z" clip-rule="evenodd"/><path fill="#fff" fill-rule="evenodd" d="M19.23 20.75L19 21.82h4.44l.57-2.54h-.02l1.33-6.08.5-2.22h5.33c.83 0 1.47.02 1.88.04.83.05 1.13.59.93 1.61a3.12 3.12 0 0 1-.6 1.36c-.22.32-.67.48-1.33.52l-1.38.03h-3.76l-.82 3.76h6.17c.5 0 .95-.02 1.42-.1.7-.06 1.34-.24 1.88-.56 1.23-.66 2.13-2.1 2.72-4.35.05-.23.12-.46.16-.68.2-.91.3-1.77.25-2.59 0-.61-.16-1.1-.4-1.52-.35-.5-.87-.84-1.57-1.02a11.2 11.2 0 0 0-2.08-.25l-1.84-.02H22.2zm97.99.9l3.15-14.44h12.89c.61 0 1.2.02 1.8.1 1.3.13 2.14.63 2.44 1.47.13.36.2.7.2 1.02a12.83 12.83 0 0 1-.25 2.2 7.36 7.36 0 0 1-1.09 2.72c-.45.59-1.33 1.06-2.6 1.43 1.15.34 1.81.75 2 1.24.2.5.15 1.36-.14 2.63l-.39 1.8h-4.44l.25-1.36c.2-.91.23-1.52.07-1.8-.16-.31-.7-.47-1.63-.47h-5.21l.83-3.77h4.38c.43 0 .9 0 1.4-.02.39-.02.7-.07.95-.18.5-.2.84-.73 1.02-1.59.14-.59.1-1.02-.16-1.29-.2-.2-.6-.32-1.29-.32l-1.29-.04H124l-.74 3.44-.82 3.77-.8 3.63h-4.43zm0-8.88l.05-.16H106.3l.43-2h.02l.75-3.4h-4.49l-2.22 10.23-.95 4.37h16.2l.73-3.4h-11.74l.57-2.65h10.96zm0-2.16h1.11l.75-3.4h-9.74l-.73 3.4zm-16.43-3.4h.95l-.81 3.77h-6.41l-2.36 10.84h-4.44l2.36-10.84H83.7l.8-3.77zm-37.4 0h7.07L76.5 18.1 78.88 7.2h4.44l-3.17 14.6h-7.09L67.04 10.9l-2.38 10.93h-4.44zm-2.31 3.95l.86-3.95h-4.47l-3.17 14.6h4.44zm-22.82 8.68L41 7.21h4.44L43.1 18.05h9.79l-.82 3.77H37.83zM19.23 8.74c.27.56.32 1.33.14 2.28l-.14.64-.07.36h-4.44l.05-.54c0-.5-.18-.82-.57-.93a4.87 4.87 0 0 0-1.25-.14l-1.17-.05h-2.6l-1.19.05a3.4 3.4 0 0 0-.88.14c-.52.1-.84.45-.98 1-.13.58.07.95.66 1.08.3.07.61.12.98.12l1.15.02 4.06.13 2.35.1c.68.04 1.27.15 1.81.33 1.34.5 1.77 1.89 1.27 4.2-.59 2.58-2.06 4.01-4.46 4.3-.38.05-.84.08-1.3.1-.99.05-1.96.07-2.96.07-1.09-.02-2.67-.05-4.8-.12a28.17 28.17 0 0 1-1.63-.09c-1.27-.09-2.18-.43-2.72-1-.48-.52-.61-1.5-.39-2.9l.18-1.02h4.44c-.15.77-.06 1.27.28 1.48.22.13.77.2 1.63.25l1.27.02h4.41c.93-.02 1.48-.4 1.61-1.14.11-.65-.11-1.02-.68-1.1l-.88-.05-.9-.05-2.66-.11-1.27-.07L5.36 16a19.2 19.2 0 0 1-2.01-.2c-1.23-.2-1.86-.84-1.9-1.89a9.57 9.57 0 0 1 1.07-4.6 4.18 4.18 0 0 1 2.28-1.84c.92-.3 2.76-.43 5.52-.43 1.48 0 2.86.04 4.17.1 1.9.08 3.22.3 3.94.74.37.2.64.48.8.86z" clip-rule="evenodd"/><defs><path id="a" d="M31.68 97.08l-.23 1.06h4.44l.57-2.54h-.03l1.34-6.08.5-2.22h5.32c.84 0 1.48.02 1.88.04.84.05 1.14.6.93 1.61a3.12 3.12 0 0 1-.59 1.36c-.22.32-.68.48-1.33.53l-1.38.02h-3.77l-.81 3.76h6.16c.5 0 .95-.02 1.43-.09.7-.07 1.34-.25 1.88-.56 1.22-.66 2.13-2.11 2.72-4.36.04-.23.11-.45.16-.68.2-.9.3-1.77.25-2.58 0-.62-.16-1.12-.41-1.52-.34-.5-.86-.84-1.56-1.03a11.2 11.2 0 0 0-2.09-.25l-1.83-.02H34.65zm97.99.9l3.15-14.44h12.89c.6 0 1.2.02 1.79.09 1.31.13 2.15.63 2.44 1.47.14.36.2.7.2 1.02a12.83 12.83 0 0 1-.24 2.2 7.36 7.36 0 0 1-1.09 2.72c-.45.6-1.34 1.07-2.6 1.43 1.15.34 1.8.75 1.99 1.25.2.5.16 1.36-.14 2.63l-.38 1.79h-4.44l.25-1.36c.2-.9.22-1.52.06-1.8-.15-.3-.7-.47-1.63-.47h-5.2l.83-3.76h4.37c.43 0 .9 0 1.4-.02.4-.03.71-.07.96-.19.5-.2.84-.72 1.02-1.58.13-.6.09-1.02-.16-1.3-.2-.2-.61-.31-1.3-.31l-1.28-.05h-6.12l-.75 3.45-.81 3.76-.8 3.63h-4.44zm0-8.89l.04-.16h-10.96l.43-2h.02l.75-3.4h-4.49l-2.22 10.23-.95 4.38h16.2l.72-3.4h-11.73l.56-2.65h10.97zm0-2.15h1.1l.75-3.4h-9.74l-.72 3.4zm-16.43-3.4h.95l-.81 3.76h-6.42l-2.35 10.84h-4.44l2.35-10.84h-6.36l.8-3.76zm-37.4 0h7.06l6.05 10.88 2.38-10.88h4.44l-3.17 14.6h-7.1l-6.02-10.93-2.38 10.93h-4.44zm-2.32 3.94l.86-3.94h-4.46l-3.17 14.6h4.44zm-22.81 8.69l2.74-12.63h4.44l-2.36 10.84h9.8l-.82 3.76H50.28zM31.68 85.06c.27.56.31 1.33.13 2.29l-.13.63-.07.36h-4.44l.04-.54c0-.5-.18-.82-.56-.93a4.87 4.87 0 0 0-1.25-.14l-1.18-.04h-2.6l-1.18.04a3.4 3.4 0 0 0-.88.14c-.53.11-.84.45-.98 1-.13.59.07.95.66 1.09.3.06.61.11.97.11l1.16.02 4.05.14 2.36.09c.68.04 1.27.16 1.81.34 1.34.5 1.77 1.88 1.27 4.2-.59 2.58-2.06 4-4.46 4.3-.39.05-.84.07-1.3.1-1 .04-1.97.06-2.96.06-1.09-.02-2.68-.04-4.8-.11a28.17 28.17 0 0 1-1.64-.1c-1.27-.08-2.17-.42-2.72-.99-.47-.52-.6-1.5-.38-2.9l.18-1.02h4.44c-.16.77-.07 1.27.27 1.47.23.14.77.2 1.63.25l1.27.02h4.42c.93-.02 1.47-.4 1.6-1.13.12-.66-.1-1.02-.67-1.11l-.89-.05-.9-.04-2.65-.12-1.27-.06-2.22-.12a19.2 19.2 0 0 1-2.02-.2c-1.22-.2-1.86-.84-1.9-1.88a9.57 9.57 0 0 1 1.06-4.6 4.18 4.18 0 0 1 2.3-1.84c.92-.3 2.76-.44 5.52-.44 1.47 0 2.85.05 4.17.1 1.9.09 3.22.31 3.94.74.37.2.64.48.8.86z"/></defs><clipPath id="b"><use width="100%" height="100%" overflow="visible" xlink:href="#a"/></clipPath><g clip-path="url(#b)" transform="translate(-12.45 -76.32)"><defs><path id="c" d="M12.37 83.35h137.78v14.97H12.37z"/></defs><clipPath id="d"><use width="100%" height="100%" overflow="visible" xlink:href="#c"/></clipPath></g><path fill="#33a457" fill-rule="evenodd" d="M54.31 40.71h26.3l1.05-5.13H63.2l.38-1.95h15.07l1.04-5.12H64.62a562.97 562.98 0 0 1 1.52-7.08h-7.9zm2.63-19.28l-1.04 5.13H36.6l-.05.02h-.11l-.05.02h-.13l-.02.02h-.1l-.06.03-.07.02h-.07l-.07.02-.07.02-.06.03-.07.02-.07.02-.05.04-.06.03-.07.02-.07.05-.07.02-.07.04-.06.05-.05.02-.07.05-.06.04-.05.05-.04.04-.05.02-.05.05-.02.04-.02.03-.05.04-.02.03-.02.04v.02l-.02.05-.03.02v.07l-1.42 7.03-.03.07v.18l.03.02v.05l.02.02.02.05.02.02.03.05.04.02.02.05.05.04.04.03.07.04.05.05.04.02.07.04.07.03.06.02.05.02.09.02.07.02.07.03.06.02h.1l.06.02h19.78l-1.04 5.1H33.47l-.2-.02h-.23l-.23-.02h-.2l-.2-.02-.21-.02-.2-.03-.2-.02-.21-.04-.2-.03-.21-.04-.18-.05-.2-.04-.19-.05-.18-.04-.18-.07-.18-.05-.18-.06-.18-.07-.18-.07-.16-.09-.18-.07-.16-.07-.16-.09-.16-.09-.16-.09-.16-.09-.15-.09-.14-.11-.16-.12-.13-.09-.16-.1-.14-.12-.11-.12-.14-.11-.11-.14-.11-.1-.12-.12-.11-.14-.1-.11-.1-.14-.1-.14-.06-.1-.1-.14-.06-.14-.07-.14-.07-.13-.04-.16-.05-.14-.04-.13-.05-.16-.04-.14-.03-.16-.02-.13-.02-.16v-.61l.02-.16.02-.16.03-.16.02-.16.02-.13.02-.14.05-.14.02-.13.02-.14.02-.11.03-.14.02-.14.05-.1.02-.12.02-.14.02-.11.02-.11.03-.12.02-.11.02-.11.02-.12.03-.11.02-.11.02-.1.02-.1.03-.1.02-.11v-.1l.02-.08.02-.12.03-.09.02-.09.02-.09v-.07l.02-.09.03-.09.02-.16.04-.14.03-.15.02-.14.04-.16.02-.14.03-.13.02-.16.04-.14.03-.13.02-.14.02-.13.05-.14.02-.14.02-.13.02-.14.03-.11.02-.14.04-.11v-.1l.03-.1.02-.1.02-.09.02-.07v-.09l.03-.06.02-.05v-.11l.02-.05v-.07l.05-.16.04-.15.05-.14.04-.16.05-.16.06-.16.07-.13.07-.16.07-.16.09-.13.09-.14.09-.16.1-.14.08-.13.11-.14.12-.14.11-.13.11-.14.12-.11.13-.14.14-.13.14-.12.13-.11.14-.14.16-.11.16-.11.15-.12.16-.1.16-.12.18-.12.18-.1.18-.12.19-.11.18-.1.18-.09.2-.1.18-.1.2-.1.19-.06.2-.09.18-.07.2-.09.21-.07.18-.06.2-.07.21-.07.2-.04.21-.07.2-.05.2-.04.21-.05.2-.04.23-.03.2-.04.21-.02.23-.05.2-.02.23-.02.2-.03h.23l.23-.02h.65zm28.82 0h7.25l-2.88 14.15h17.88l-1.04 5.13H81.84zm-2.51 5.13l1.04-5.13H67.32l-1.11 5.13zM108.1 40.7l3.92-19.28h7.25l-2.9 14.15h17.9l-1.04 5.13z" clip-rule="evenodd"/><path fill="#fff" fill-rule="evenodd" d="M79.87 39.87l.86-4.24H62.26l.57-2.84h15.09l.86-4.24H63.69l1.52-7.05h-7l-3.74 18.37zM56 21.5l-.77 3.81-.09.43H36.19c-.1.02-.18.02-.25.05l-.27.02c-.41.1-.82.25-1.2.5-.39.25-.62.54-.68.86l-1.45 7.05c-.07.39.06.73.43 1.02.38.27.83.41 1.4.41h18.96l-.86 4.22H33.31c-2.31 0-4.2-.54-5.64-1.65-1.11-.87-1.7-1.84-1.77-2.98v-.36c.02-.2.05-.43.1-.63.29-1.5.54-2.68.72-3.56l.45-2.27.25-1.25c.32-1.57 1.43-2.9 3.33-4a12.16 12.16 0 0 1 6.3-1.65zm29.73 0h6.34l-2.87 14.13h17.87l-.86 4.24H81.98zm-2.38 0H67.3l-.93 4.24H82.5zm24.88 18.37l3.73-18.37h6.37l-2.88 14.13h17.88l-.86 4.24z" clip-rule="evenodd"/><path fill="#2f4a36" d="M103.68 43.07c.33-.26.76-.14 1.14-.12h7.77c.34-.02.66.3.64.64v3.06c-.01.16.07.3.17.41.25-.1.52-.14.79-.2.13-.01.17-.16.19-.27.04-.36-.03-.72.03-1.08.07-.3.34-.5.58-.68l2.06-1.6c.26-.21.6-.24.92-.23h5.66c.92.01 1.86.44 2.36 1.23.23.33.3.74.53 1.07.14-.22.12-.48.16-.73.05-.3.3-.48.56-.58l1.45-.55c.24-.09.5-.14.75-.1.24.08.4.34.38.58v2.84c0 .16.09.34.26.39.33.06.67 0 1-.03.3-.02.58.05.88.05h3c.1 0 .25.01.32-.1.09-.12.08-.28.09-.43v-2.72c-.02-.27.19-.57.48-.59.4-.04.76.17 1.12.3.34.14.68.24 1.01.39.3.12.5.41.5.74v2.66c0 .28.02.56-.05.83a2.84 2.84 0 0 1-.8 1.5c-.35.33-.82.5-1.29.55-.5.06-1 .03-1.5.03-.2 0-.4-.02-.6.04-.15.1-.14.32-.15.49 0 .36.07.76-.1 1.1-.12.23-.38.33-.6.45-.25.13-.52.3-.82.3-.31-.02-.6-.17-.89-.3-.24-.12-.52-.25-.64-.51-.2-.43-.06-.91-.13-1.37-.03-.15-.2-.2-.34-.2-.82-.01-1.67.08-2.48-.17a2 2 0 0 1-1.3-1.35c-.09-.28-.07-.6-.27-.83-.22.38-.28.83-.54 1.19-.18.32-.52.5-.72.8.21.33.52.57.8.86.22.23.45.46.7.67.2.17.43.37.46.64.01.17.02.4-.14.5-.24.12-.52.14-.78.14h-1.95c-.3 0-.61 0-.88-.15-.24-.16-.42-.4-.61-.6l-1.49-1.69a.78.78 0 0 0-.62-.28h-2.5c-.16-.02-.35.07-.35.25-.03.59 0 1.18-.01 1.77-.01.23-.04.48-.21.65-.17.17-.43.2-.65.21h-1.39c-.32 0-.64.02-.94-.1-.24-.11-.32-.4-.32-.64v-1.62c0-.16 0-.34-.1-.46-.32-.1-.66-.13-.97-.24-.18.3-.39.6-.66.82l-2.06 1.82c-.24.23-.57.28-.89.26h-7.88c-.26 0-.48-.12-.71-.22-.23.14-.46.3-.73.28h-8.55c-.3 0-.58-.14-.79-.36-.38-.4-.77-.78-1.16-1.17-.13-.14-.26-.3-.43-.37-.08.04-.14.1-.14.2-.04.5.06 1.03-.08 1.53-.07.26-.37.38-.62.39h-1.33c-.27 0-.56.03-.78-.14-.2-.14-.22-.41-.24-.63-.03-.74.01-1.47-.02-2.2 0-.18-.19-.27-.35-.25h-4.27c-.12 0-.26-.02-.33.09-.09.12-.08.28-.09.43v3.28c.02.4-.21.74-.4 1.06-.37.57-.7 1.15-1.07 1.72-.2.3-.35.63-.58.9-.15.19-.4.22-.61.16-.22-.1-.3-.35-.29-.57V47.1c0-.3.07-.64-.16-.87-.18.1-.37.18-.58.18h-3.39c-.16-.01-.34.08-.39.25-.04.22-.01.44-.02.66v5.05c.01.27-.1.6-.39.68-.46.12-.94.05-1.41.07-.33 0-.7.04-.99-.16-.26-.2-.26-.56-.27-.87v-5.27c0-.11.02-.26-.09-.33-.12-.08-.28-.08-.43-.08H66.7a.63.63 0 0 1-.64-.6c-.02-.34 0-.7 0-1.04-.01-.3-.02-.62.17-.87.23-.3.55-.63.97-.61H77.5c.27-.02.5.16.72.28.18-.13.37-.27.6-.3.36-.06.71-.02 1.07-.03.33 0 .68-.03 1 .1.23.11.3.4.3.65l.01 2.33c0 .22.2.38.4.36h4.17c.15 0 .34-.01.44-.15.04-.12.03-.25.03-.38v-1.72c0-.29 0-.59.12-.86a.5.5 0 0 1 .62-.18c.44.18.8.51 1.2.75.25.18.51.33.76.52.17.13.24.34.38.5.1.1.22-.03.3-.1.36-.34.7-.7 1.06-1.05.23-.22.44-.49.74-.64.35-.16.74-.13 1.12-.13h7.05c.36 0 .73-.03 1.08.07.19.05.31.22.36.4.12.5-.1 1.07.16 1.55.32-.23.58-.53.9-.78.52-.46 1.04-.95 1.58-1.4m-.07.36c-.67.61-1.36 1.2-2.02 1.82-.26.22-.28.58-.3.9v5.77c0 .12.01.24.06.35l.19.06h7.5c.36-.02.73.03 1.1-.03.46-.38.9-.8 1.37-1.2.27-.25.55-.48.8-.74.14-.1.27-.22.39-.34l.05-.01h.22c.05-.17.1-.35.1-.53v-5.72c0-.2-.05-.4-.23-.51v-.03h-7.19c-.52-.02-1.05.05-1.56-.07a1 1 0 0 0-.48.28m13.44.02c-.5.37-.97.77-1.47 1.14-.28.23-.6.43-.84.7-.26.28-.18.68-.18 1.02 0 .24.02.56-.22.7-.23.08-.49.06-.7.2h-.04l.01.02c-.24.3-.22.71-.22 1.08 0 .38-.03.77.07 1.13.02.12.15.12.23.15h1.13c-.08.06-.13.17-.24.17-.22.02-.45 0-.68.03.15.05.31.07.47.12.17.08.21.28.2.45v1.56c0 .18.03.36.07.53l.2.02h2.58l.2-.03c.1-.45.04-.9.05-1.36.01-.32-.04-.66.04-.98.05-.2.3-.26.48-.26h2.17c.28 0 .59-.04.84.12.26.18.45.44.67.66.57.58 1.04 1.25 1.65 1.79-.13-.2-.28-.38-.44-.55-.6-.67-1.19-1.33-1.77-2.01-.06-.1-.19-.08-.28-.08h-2.84c-.26 0-.55.04-.78-.12v-.06h3.28c.21 0 .44-.04.64.02.36.35.66.75 1 1.11l1.32 1.5c.07.1.2.08.31.08.98 0 1.96.02 2.94 0l.17-.02a.95.95 0 0 0-.34-.57c-.4-.33-.74-.71-1.1-1.07-.18-.18-.38-.33-.53-.54-.08-.08-.06-.22.02-.3.16-.2.37-.33.54-.52.35-.37.53-.87.6-1.37.1-.5.05-1.03.07-1.54a3.72 3.72 0 0 0-.25-1.57 2.45 2.45 0 0 0-1.14-1.29 3.7 3.7 0 0 0-1.97-.34h-5.17c-.28 0-.54.1-.75.28m-25.47.1l-.02-.05c-.55.44-1.02.97-1.52 1.46-.28.26-.5.58-.83.78-.1-.21-.14-.44-.2-.66-.05-.2-.24-.32-.4-.43l-1.39-.95c-.17-.1-.38-.21-.58-.14-.19.16-.2.42-.22.64v2.11c0 .13 0 .28-.1.37-.12.14-.31.16-.48.16h-4.22c-.16 0-.34-.01-.45-.14-.12-.11-.13-.29-.14-.44v-2.28a.56.56 0 0 0-.2-.46c-.74-.02-1.46-.02-2.2 0-.14.2-.18.44-.18.68v11.99c-.01.31-.02.63.06.93l.25.04-.01-.05c.67-1.07 1.34-2.15 1.99-3.23l.17.09-1.36 2.2c-.2.33-.42.63-.58.98.15-.12.27-.26.36-.42.5-.84 1.03-1.67 1.53-2.51.13-.23.19-.49.18-.75v-3.16c0-.2-.02-.41.13-.56.1-.13.3-.13.45-.13h4.33c.24 0 .52.16.52.43.03.5 0 .98.01 1.48.01.34-.04.69.05 1.02a.7.7 0 0 1 .19.05c.7.03 1.4-.02 2.11.02.1-.02.24-.04.24-.17.06-.56-.02-1.13.04-1.7 0-.12.09-.22.15-.32.42.36.78.77 1.18 1.16.33.3.62.67.99.95-.33-.41-.7-.79-1.07-1.15-.3-.32-.64-.6-.9-.95l.14-.1c.18.2.36.4.57.58.04.07.1.13.17.19.35.34.7.68 1.03 1.05.1.11.22.26.4.22h8.9v.06c.08-.07.21-.12.21-.25.04-.33 0-.66.02-1 0-.32.03-.65-.04-.98-.01-.1-.1-.17-.15-.24-.28-.2-.63-.13-.94-.14h-6.55c-.25 0-.51.03-.76-.04l-.08-.23c.1-.02.22-.06.34-.06h4.94c.4 0 .83.05 1.22-.11-2.16-.02-4.33 0-6.5-.01-.17 0-.35-.04-.51-.11v-.1l6.96-.01.22.07c.06-.54 0-1.1.03-1.64 0-.29.05-.65-.21-.84l-.09.01a.76.76 0 0 0-.4-.1h-5.66c-.17.02-.41-.03-.41-.24.05-.17.25-.2.4-.19h7.11c.27 0 .53.02.79-.05-1.11-.04-2.23 0-3.34-.02h-5a.77.77 0 0 1-.4-.12v-.06h8.75l.23.04c.13-.37.04-.77.05-1.15 0-.35.03-.7-.01-1.03-.01-.13-.1-.22-.19-.3h-.04a.75.75 0 0 0-.45-.14h-8.27c-.14-.01-.26.07-.36.15m-25.23.47c-.17.23-.14.53-.14.8.02.39-.05.8.08 1.18l.21-.02v-.05c1.54.04 3.09 0 4.63.02V46c-.11.08-.24.16-.39.15-1.37.03-2.74 0-4.12.02.37.06.75.03 1.12.04h2.5c.17 0 .36-.02.5.1.14.12.13.33.14.5v5.1c-.02.26-.01.52.04.77l.2-.04 2.17-.01v.04h.2c.06-.27.06-.54.06-.81v-5.05c0-.16 0-.34.13-.45.12-.14.33-.13.5-.13h3.05c.2 0 .38-.02.57-.06-1.36-.02-2.71 0-4.06-.01-.16 0-.32-.05-.47-.11v-.1l4.48-.01V46c.08-.06.22-.1.23-.2.06-.3.03-.59.04-.88-.01-.34.02-.69-.03-1.03-.02-.12-.1-.22-.17-.31l.01-.03h-.04a.78.78 0 0 0-.39-.1H67.24c-.39-.02-.68.28-.9.57m62.25-.35l-1.16.45c-.2.08-.45.17-.54.4-.1.23-.07.49-.07.74v1.6c0 .64-.05 1.3.14 1.9.2.65.75 1.15 1.4 1.3.79.14 1.59.1 2.38.1.23 0 .37.23.4.43.03.38-.03.77.05 1.14l.21.01c.39.2.79.37 1.18.57.35-.2.72-.36 1.06-.57l.2.1c.14-.36.08-.76.09-1.15-.03-.25.11-.57.41-.52.56-.02 1.12.03 1.68-.03.3-.03.62-.03.9-.15.34-.15.66-.37.86-.68.18-.28.36-.57.42-.9.05-.29.12-.58.12-.88v-2.72a.53.53 0 0 0-.22-.45l-1.27-.49c-.35-.12-.7-.3-1.08-.33v.04c-.05.06-.13.11-.15.2-.06.27-.05.54-.05.81v2.16c0 .15.02.31-.05.45-.09.1-.21.17-.32.25h-3.2c-.29-.15-.61-.1-.91-.1-.4 0-.8.08-1.2-.01-.21-.05-.24-.3-.24-.47V44.3c.01-.26-.05-.51-.14-.75-.3-.11-.61 0-.9.11m-28.28 2.77c-.33.03-.66 0-.99.01-.1 0-.17.08-.26.12.28.48.16 1.04.18 1.57-.01.47.1.99-.18 1.41.09.04.16.12.26.11.45.03.92-.05 1.36.09.1 0 .22.08.3 0 .1-.08.08-.22.1-.33v-2.78c-.02-.12 0-.3-.15-.34-.2.04-.4.12-.62.14m11.86 4.33l-1.1.97c-.25.24-.53.45-.77.72.18-.1.35-.24.5-.38l1.18-1.05c.3-.28.62-.52.88-.84-.26.17-.48.37-.7.58m-10.62 1.79c.32.08.67.05 1 .05h6.55c.34 0 .68.03 1-.06-1.55-.02-3.1 0-4.66 0-1.3 0-2.6-.03-3.9 0m-9.93.06c.33.09.67.06 1 .06h7.11c.32 0 .64.02.95-.06-1.42-.03-2.85 0-4.28-.01H91.6m-20.48.24c.4.15.82.1 1.23.1.3 0 .62.03.9-.1-.7-.03-1.42-.02-2.13 0z"/><path fill="#58895e" d="M103.6 43.43a1 1 0 0 1 .49-.28.9.9 0 0 1-.24.36c-.64.54-1.25 1.12-1.88 1.67a4.8 4.8 0 0 0-.25.23c-.18.24-.18.56-.18.84v6.08a2.13 2.13 0 0 1-.19-.06.9.9 0 0 1-.05-.35v-5.78c0-.31.03-.67.3-.9.65-.61 1.34-1.2 2-1.8z"/><path fill="#bbfd71" d="M104.09 43.15c.51.12 1.04.05 1.56.07h7.2l-.01.03c-.1.35-.06.7-.06 1.06v5.12c-.15 0-.29 0-.43-.02l-.04-.34h-.17l-.08.32-.1.02a4.08 4.08 0 0 1-.14-1.13l-.3-.1c0-.9-.02-1.81 0-2.72h.8l.01-.26-.8-.02c0-.25.15-.47.23-.7.05-.24.03-.49.01-.72 0-.18-.17-.28-.29-.37l-.3.12a1.25 1.25 0 0 0-.5-.12c-.02.6 0 1.2 0 1.8-1.53.02-3.06 0-4.59 0-1.37 0-2.74.02-4.12 0 .63-.56 1.24-1.14 1.88-1.68a.9.9 0 0 0 .24-.36m.4.45c-.05.33-.05.66-.01.98.01.16.2.16.3.2l.23-.01.26-.07c.02-.38.04-.77-.02-1.15l-.2-.02-.36-.01c-.07.02-.15.04-.2.08m3.23-.04c-.05.34-.07.68-.02 1.02 0 .14.16.14.25.2h.34c.1-.05.24-.06.25-.2a3.9 3.9 0 0 0 0-.97c-.07-.05-.14-.06-.2-.1-.15.02-.3.02-.43.02l-.2.03z"/><path fill="#58895e" d="M117.05 43.45c.21-.17.47-.29.75-.28h5.17a3.7 3.7 0 0 1 1.97.34c.52.27.92.75 1.14 1.29.21.5.26 1.04.25 1.57-.02.51.03 1.03-.06 1.54-.08.5-.26 1-.61 1.37-.17.19-.38.33-.54.52-.08.08-.1.22-.02.3.15.2.35.36.53.54.36.36.7.74 1.1 1.07.18.14.3.34.34.57l-.17.01c-.2-.27-.46-.49-.71-.7-.61-.59-1.19-1.2-1.8-1.78.62.08 1.12-.4 1.42-.88l-.17-.08.1-.19.06-.12.12-.36.01-.05c.1-.4.12-.8.12-1.2-.01-.59.04-1.18-.13-1.75-.11-.43-.4-.8-.6-1.2-.1-.22-.35-.34-.57-.44-.44-.2-.92-.27-1.4-.26-1.95.01-3.91-.01-5.87.01l-.07.19-.12.14c-.7.49-1.34 1.04-2.01 1.55l-.3.23c-.08.06-.16.14-.14.25-.02.55 0 1.1-.01 1.64-.39-.1-.8-.05-1.19-.08.21-.14.47-.12.7-.2.24-.14.22-.46.22-.7 0-.34-.08-.74.18-1.02.24-.27.56-.47.84-.7.5-.37.97-.77 1.47-1.14zM112.84 43.25c.18.1.23.31.22.5v5.73c0 .18-.04.36-.1.53h-.21a6.16 6.16 0 0 0 .03-.58v-5.12c0-.35-.03-.71.06-1.06z"/><path fill="#bbfd71" d="M117.48 43.3c1.96-.03 3.92 0 5.87-.02.48 0 .96.06 1.4.26.22.1.47.22.58.45.2.4.48.76.6 1.2.16.56.11 1.15.12 1.73 0 .4-.02.81-.12 1.2-.33-.06-.68-.04-1.02-.04H113.7c0-.28.03-.58-.09-.85v-.03h.03c.4.04.8-.02 1.19.1.02-.56 0-1.1 0-1.65 0-.11.07-.19.15-.25.59.08 1.18.03 1.77.04h7.66l1.12-.01a5.7 5.7 0 0 1-.06-.23h-8.72c-.5 0-.98.01-1.47-.03.67-.5 1.32-1.06 2.01-1.55.04.32.02.64.05.95 0 .1.08.17.17.2.3.07.62.02.93-.04 0-.34.04-.68 0-1.02 0-.08-.02-.18-.1-.19-.32-.04-.63-.02-.93-.04l.07-.19m3.27.32c-.06.36-.02.72-.01 1.09l.25.06.34.01c.1-.05.24-.06.25-.19.04-.3.04-.62 0-.92 0-.13-.14-.1-.21-.14h-.42c-.07.02-.15.03-.2.09m3.26.04c-.04.35-.01.7 0 1.05l.34.08h.12c.12-.03.31-.04.33-.2.03-.26.1-.63-.18-.77-.1-.11-.24-.18-.36-.25v-.05c-.08.04-.25.01-.25.14m-6.58 2.19l.04.02v1.45c.32-.13.67-.08 1-.09h3.94c.33 0 .67-.03.99.07.03-.47 0-.94.02-1.4h-.03c-.1-.12-.28-.07-.42-.08h-4.17c-.45.02-.91-.03-1.37.03z"/><path fill="#2f4a36" d="M3.66 43.33c.12-.02.24-.03.37-.03h6.66c.36 0 .73-.04 1.07.1.17.07.27.25.3.43.11.5.1 1.02.1 1.54-.01.26-.04.54-.23.74-.2.19-.48.21-.74.22H3.8c-.21 0-.43-.03-.63.03-.13.06-.14.21-.14.34v2.83c.01.14 0 .3.1.4.08.09.22.08.33.08h7.72c.3 0 .64.04.81.31.2.33.15.73.15 1.1-.01.4.05.82-.08 1.2-.08.31-.42.45-.71.45H3.42c-.37.03-.73-.13-.96-.41l-1.8-2.2c-.18-.21-.37-.42-.5-.67a1.8 1.8 0 0 1-.15-.82v-2.1c0-.24.01-.48.1-.7.1-.24.3-.4.5-.57l2.25-1.85c.24-.19.5-.37.8-.42m-.74.54l-1.95 1.6c-.25.2-.55.38-.71.67-.1.17-.1.37-.1.56.02.87 0 1.74 0 2.61 0 .29.15.55.32.77.6.77 1.25 1.5 1.84 2.27.12.16.26.3.42.4-.21-.42-.58-.75-.85-1.13-.5-.68-1.1-1.27-1.59-1.96l.15-.1v.05h.04l.09.1c.72.92 1.48 1.8 2.2 2.73.07.06.12.16.2.19.17.02.33 0 .5 0h8.23l.23.05c.1-.4.05-.8.06-1.2-.01-.3.02-.6-.02-.89 0-.13-.11-.21-.2-.3l.01-.03h-.04a.74.74 0 0 0-.4-.1H4.04c-.22 0-.45.02-.67 0-.17-.02-.35-.13-.4-.3-.06-.26-.06-.52-.07-.78v-2.27c0-.17 0-.38.14-.5.11-.13.29-.14.44-.14h7.78c.17 0 .33-.02.5-.05-.43-.03-.85-.01-1.28-.01H3.2c-.2 0-.4-.02-.58-.12.07-.1.2-.1.3-.1h8.43c.12 0 .24 0 .36-.02v.05l.21.03c.12-.31.07-.65.08-.97-.01-.33.01-.66-.02-.99-.02-.2-.12-.44-.34-.5-.24-.07-.49-.04-.73-.04h-7.1c-.35-.01-.63.22-.89.42m.12 8.95l.07.12h8.25c.12.01.23-.05.34-.1-.32-.02-.64-.01-.96-.02h-7.7zM12.74 43.42c.34-.18.74-.11 1.11-.12.4 0 .83-.06 1.19.15.22.13.28.4.28.64l-.01 2.11c0 .16 0 .35.14.46.07.02.15.02.23.03h4.4c.1-.01.24 0 .31-.11.06-.1.05-.22.05-.32v-2c0-.3.07-.64.35-.79.22-.1.45.03.64.15l1.33.89c.29.2.59.47.6.85.02.62 0 1.23 0 1.84.02.44-.03.88.07 1.3.27.01.55.02.81-.08.12-.04.14-.17.14-.28v-1.78c.03-.35.08-.74.36-.99.6-.59 1.25-1.11 1.86-1.68.27-.26.64-.4 1.02-.4h4.77c.35 0 .71.09.98.32.52.44 1.02.9 1.53 1.35.33.29.7.6.72 1.07.04.7 0 1.4.01 2.1 0 .14.06.3.21.31.31.04.6.15.9.2.11-.48.05-.96.07-1.44.01-.43-.05-.87.06-1.28.1-.38.43-.61.7-.88l1.5-1.33c.17-.16.4-.36.66-.26-.38.16-.7.43-1 .72l-1.4 1.25c-.23.2-.37.48-.37.78-.01.83.02 1.67 0 2.5-.07.6-.05 1.22-.05 1.83 0 .43.07.85.05 1.27-.01.3 0 .58.05.87l.2.01c2.78.03 5.56 0 8.34.01.18.02.34-.06.47-.19.54-.5 1.11-1 1.67-1.49.23-.2.44-.43.7-.59.1-.05.27-.05.28-.2.05-.28.02-.57.02-.86v-4.88c0-.28-.02-.57-.08-.84.13.1.18.28.18.45v5.94c0 .27-.1.54-.29.74-.37.42-.83.75-1.24 1.14-.35.3-.68.61-1.02.93-.34.3-.82.29-1.25.29H37.6c-.3 0-.64-.12-.75-.42-.14-.41-.03-.86-.11-1.29-.3.03-.57.12-.86.17-.06.02-.14.03-.19.09-.11.34.03.73-.16 1.05-.12.24-.4.33-.66.33-.44.02-.88 0-1.33.01-.29 0-.64-.01-.82-.27-.2-.26-.15-.59-.17-.89-.01-.1 0-.23-.1-.29-.24-.08-.5-.05-.74-.05H27.9c-.15 0-.36.03-.4.2-.05.33.02.68-.15.98-.13.24-.42.3-.67.31-.43.02-.85 0-1.27.01-.29 0-.61-.01-.82-.22-.25-.29-.18-.69-.2-1.03 0-.12-.11-.2-.22-.22a2.5 2.5 0 0 0-.63-.1c-.13.04-.12.2-.14.3-.02.36.06.77-.21 1.06-.28.27-.7.2-1.06.2-.43-.01-.87.07-1.28-.08-.32-.11-.4-.49-.4-.78v-2c0-.1 0-.23-.07-.3-.1-.1-.27-.1-.41-.1h-4.22c-.19-.02-.41.06-.4.28-.02 1.17.01 2.33 0 3.5-.01.43-.27.8-.49 1.16-.5.8-.98 1.61-1.49 2.4-.13.2-.39.43-.64.3-.28-.13-.31-.48-.33-.75V44.26c0-.3.06-.68.35-.84m.1.13h-.08v.03c-.26.17-.21.52-.22.79v11.87c.01.25-.02.5.02.75.04.14.2.16.31.22v-.05c.41-.61.78-1.26 1.18-1.88.28-.49.6-.94.85-1.44l.14.15c-.5.84-1.02 1.68-1.54 2.51-.13.2-.27.41-.36.64.27-.18.4-.5.56-.76.4-.63.78-1.26 1.16-1.9.16-.25.32-.53.3-.84v-3.39c0-.16 0-.35.1-.49.1-.15.31-.14.48-.14h4.33c.3-.02.55.28.52.57v2c0 .17.03.33.06.5l.23-.05h2.08l.2-.03c.06-.34.03-.7.05-1.04.02-.12.02-.27.12-.37.1-.05.23-.05.34-.07.38.02.76 0 1.13.02-.06.05-.12.12-.19.16-.22.03-.45.01-.67.03.2.07.48.07.57.3.1.28 0 .6.1.9.03.08.14.07.21.1.74-.01 1.48.01 2.22-.01l.19.15c.06-.2.1-.42.08-.64 0-.2-.03-.42.12-.57.12-.14.3-.18.46-.18h3.83c.26 0 .51-.02.76.04.17.04.25.22.25.37.02.27.01.54.07.8.06.02.13.03.2.03h2.22l.2-.02c.07-.32.03-.64.1-.96.05-.24.35-.24.54-.31-.28-.02-.6.04-.84-.14v-.06h1.15c.07-.04.2-.03.22-.13.07-.27.03-.54.04-.81-.01-.37.03-.75-.02-1.11-.02-.14-.1-.25-.2-.34l.01-.04h-.24c-.18-.05-.37-.07-.55-.15-.15-.13-.16-.35-.17-.53v-1.66c0-.35-.02-.76-.33-.97l-1.24-1.1c-.3-.25-.57-.53-.9-.74H27.1c-.18.1-.34.22-.49.36-.6.55-1.23 1.06-1.8 1.63-.22.2-.23.53-.25.81-.02.6 0 1.2 0 1.79 0 .15-.03.33-.18.41-.16.07-.33.1-.5.15-.1 0-.19.02-.28.03-.1.05-.18.11-.27.17a1.5 1.5 0 0 1-.13-.66V45.6c0-.2 0-.41-.1-.58-.16-.22-.38-.37-.6-.52-.39-.25-.77-.52-1.16-.78-.16-.1-.36-.21-.55-.12-.19.14-.2.4-.2.6v2.01c0 .17 0 .37-.13.5-.13.14-.33.13-.5.14h-3.61c-.26 0-.52.02-.77-.02-.19-.04-.38-.2-.37-.4v-2.16c0-.21-.03-.43-.14-.62-.1-.15-.28-.17-.45-.19h-1.1c-.23 0-.48-.04-.68.1M48.01 51l-1.3 1.15c-.25.23-.53.43-.73.71.26-.16.47-.38.7-.58l1.26-1.12c.2-.18.43-.32.55-.57-.18.12-.33.27-.48.41m-27.22 1.84c.24.1.51.13.78.11.48-.02.98.07 1.45-.1-.75-.02-1.5-.02-2.23 0m3.94 0c.36.17.78.09 1.17.1.4-.02.84.07 1.22-.1-.8-.02-1.6-.02-2.4 0m8.22 0c.3.1.63.11.95.1.46-.01.94.06 1.4-.1-.79-.02-1.57-.02-2.35 0m4.38.06c.27.08.56.05.84.05h6.66c.35 0 .71.03 1.06-.06-2.68-.02-5.37 0-8.05-.01-.17 0-.34 0-.51.02z"/><path fill="#58895e" d="M51.27 43.82c.24-.22.53-.44.88-.43h7.82c.28 0 .6 0 .81.21.23.47.5.91.75 1.37.18.32.43.63.43 1.02h-.2a4.95 4.95 0 0 0-.38-.69c-.2-.37-.4-.74-.62-1.1-.12-.2-.2-.41-.23-.64h-8.65c-.06.15-.14.29-.26.39-.47.4-.92.82-1.38 1.23l-.24.23c-.17.15-.39.27-.49.49-.06.3-.01.6-.03.9-.01.42.06.84.18 1.24-.03.08-.1.16-.06.25.27.7.94 1.17 1.64 1.33.55.14 1.12.1 1.68.1h4.72c.16.01.3-.06.43-.13h.04v.05c.05.25.03.5 0 .76-.38-.1-.79-.07-1.19-.07h-7.05c-.15 0-.3-.01-.44-.03a1 1 0 0 1 .55-.14c2.37.02 4.74 0 7.1.01.16 0 .33.02.47-.07.18-.18-.15-.28-.3-.27h-5.33a3.39 3.39 0 0 1-1.73-.62c-.44-.3-.63-.82-.88-1.26a2.08 2.08 0 0 1-.14-.86c0-.36-.01-.72.01-1.08.05-.35.33-.6.57-.82.48-.48.99-.94 1.52-1.37zM91.58 43.55c.1-.08.22-.16.36-.15h8.27c.16-.01.31.05.45.14-.56.04-1.11 0-1.67.02h-5.16c-.75 0-1.5.01-2.25-.01zM2.92 43.87c.26-.2.54-.43.88-.42h7.11c.24 0 .5-.03.73.04.22.06.32.3.34.5.03.33 0 .66.02.99 0 .32.04.66-.08.97l-.21-.03v-.05-.44-.23c.02-.55-.05-1.09 0-1.63-2.17-.02-4.34 0-6.52 0-.55 0-1.1-.02-1.65 0-.11.3-.4.47-.64.67l-1.16.94-.24.21c-.33.28-.71.51-1 .83-.1.34-.03.7-.04 1.03v2l-.01.31-.15.1c.48.69 1.09 1.28 1.59 1.96.27.38.64.7.85 1.13-.16-.1-.3-.24-.42-.4-.59-.78-1.24-1.5-1.84-2.27a1.27 1.27 0 0 1-.31-.77V46.7c0-.19 0-.39.09-.56.16-.29.46-.46.7-.67l1.96-1.6zM12.84 43.55c.2-.14.45-.1.68-.1h1.1c.17.02.36.04.45.2.11.18.13.4.14.6v2.17c0 .2.18.36.37.4.25.04.51.01.77.01h3.6c.18 0 .38.01.51-.13.14-.13.13-.33.14-.5l-.01-2c0-.21.01-.47.2-.6.19-.1.39.02.55.11.39.26.77.53 1.16.78.22.15.44.3.6.52.1.17.1.38.1.58v2.66c0 .23.04.46.13.66l.27-.17a2.26 2.26 0 0 1 .08.51v1.88c-.12.02-.24.02-.35.07-.1.1-.1.25-.12.37-.02.35 0 .7-.05 1.04l-.2.02v-.27-2.65-.12-.82-.11-3.23-.24c-.16-.22-.4-.34-.62-.49-.49-.32-.96-.66-1.45-.96-.02.49 0 .97-.01 1.45v1.87a1.26 1.26 0 0 0-.53-.12h-4.33c-.38.01-.77-.05-1.11.13v-1.64-.23c0-.55-.02-1.09.02-1.63-.7-.02-1.4 0-2.09-.02zM39.73 43.45h8.03c.29.01.65-.09.85.19.06.27.09.56.09.84-.02 1.63 0 3.26 0 4.88-.01.3.02.58-.03.87 0 .14-.18.14-.28.2.03-.24.04-.48.04-.72v-.06-.35-.15-.44-3.34c0-.59-.03-1.17.03-1.76h-8.64c-.08 0-.18 0-.23.08-.45.57-1.07.97-1.57 1.5l-.27.22c-.15.13-.32.23-.43.4-.1.19-.1.4-.1.6v6.27l-.21-.01a4.08 4.08 0 0 1-.05-.87c.02-.42-.05-.84-.05-1.27 0-.61-.02-1.22.04-1.83.03-.83 0-1.67.01-2.5 0-.3.14-.59.36-.78l1.42-1.25c.3-.29.61-.56 1-.72zM66.35 44.02c.2-.29.5-.6.9-.57H77.4c.14 0 .27.04.39.1-1.3.03-2.6 0-3.89.01-2.3 0-4.62-.01-6.93.01-.06.16-.15.3-.26.43-.08.11-.2.22-.2.36-.03.28 0 .56-.01.84a6.59 6.59 0 0 0 0 .73v.05l-.2.02c-.14-.38-.07-.8-.09-1.19 0-.26-.03-.56.14-.79z"/><path fill="#f1fee3" d="M110.69 43.39c.16 0 .33.04.49.12l.3-.12c.15.59.06 1.2 0 1.8H112.33l-.02.26-.79.01c-.02.91 0 1.82 0 2.72l.3.1c0 .38.04.76.15 1.13l.09-.02.08-.33.17.01.04.34.43.02v.11l-.45.05.01.3.42.02-.01.1-.05.01-.35.05-.03.3c-.26.25-.54.48-.81.72l-.03-.54-.46-.12.47-.1-.01-.26a1.1 1.1 0 0 1-.44-.13l.48-.06-.02-.3-.45-.08.4-.08c.13-.32.27-.67.2-1.03h-.97c-.02-.99 0-1.97 0-2.94-1.28-.05-2.57-.02-3.86-.03h-2.78c-.77 0-1.55.06-2.32-.01l.25-.23c1.38.03 2.75 0 4.12.02 1.53-.01 3.06.01 4.59-.02 0-.6-.02-1.2 0-1.8m.42 1.8h.16a.88.88 0 0 0-.06-.48c-.1.14-.1.32-.1.49m.01.26v2.8l.14-.01c.04-.46.02-.92.02-1.37 0-.48.02-.96-.02-1.44l-.14.02m.84 4.11l-.02.36.2-.07-.05-.31-.13.02m0 .45l-.02.34h.17l.02-.24-.18-.1z"/><path fill="#d5fda9" d="M111.48 43.39c.12.1.28.2.29.37.02.23.04.48 0 .72-.09.23-.23.45-.25.7h-.04c.06-.6.15-1.2 0-1.8z"/><path fill="#bbfd71" d="M78.64 43.52c.73-.02 1.45-.02 2.18 0-.1.4-.06.83-.07 1.24v2.3c.17-.07.34-.12.53-.12h4.33c.38.01.77-.05 1.12.13v-1.64c.57.01 1.14.02 1.72 0v-.23h-1.73v-1.5c.71.46 1.4.93 2.1 1.4.02 2.5 0 5.01.01 7.52-.7-.04-1.4 0-2.11-.02v-.18c.56 0 1.13-.02 1.69 0-.11-.22-.1-.48-.1-.73 0-.1-.06-.17-.11-.25-.06.3-.05.61-.05.92h-.55l-.02-.85-.12-.03c0 .29 0 .58-.02.88h-.56l-.01-.85-.14-.05v-1.75c.57.02 1.14.01 1.72 0v-.12h-1.73l.01-.17v-.05h-4.67c-.43 0-.86-.02-1.3 0h-.03c.05.8.01 1.59.02 2.38 0 .7.03 1.42-.01 2.13-.65 1.08-1.32 2.16-1.99 3.23-.09-.54-.02-1.1-.04-1.64v-2.5c.6-.03 1.19.04 1.78-.04-.25-.14-.54-.09-.81-.1-.33 0-.65 0-.97.02v-.37c.57.02 1.13.02 1.7 0v-.12h-1.7v-2.65h1.47c.12.02.2-.06.3-.08-.58-.08-1.18-.02-1.77-.04v-.34h1.13c.43.02.85-.08 1.28-.07h4.72c.35 0 .7.09 1.05.08h1.56v-.12c-.8-.01-1.6-.02-2.4.01-1.42 0-2.85.02-4.27 0v-.35c2.21-.02 4.44 0 6.66 0v-.14h-4.6c-.68 0-1.37.01-2.05-.01l-.03-.38c-1.02-.02-2.04 0-3.05-.02v-.88h4.63c1.47 0 2.94-.05 4.41 0v.87c-.9.02-1.81.02-2.72 0l-.02-.58h-4.89c-.45 0-.92-.05-1.35.13 1.96.04 3.92 0 5.88.03v.7c.67-.08 1.35-.03 2.02-.04.6-.02 1.18.02 1.78 0v-.22c-.11 0-.22-.02-.32-.03V47.2H78.7v-1.53c.26-.02.49-.15.74-.2.32-.04.65 0 .97-.03v-.24h-1.71c-.03-.56.06-1.13-.07-1.68m.56.2v1.13h.12v-1.14h-.12m.7 0l.01.54.13-.03.01-.5h-.14z"/><path fill="#d5fda9" d="M117.4 43.48c.31.02.62 0 .93.04.1 0 .1.11.11.19.04.34 0 .68 0 1.02-.3.06-.63.11-.93.03-.09-.02-.17-.09-.17-.19-.03-.31 0-.63-.05-.95l.12-.14m.33.1c-.08.36-.03.73-.02 1.1l.35.01c.01-.38.02-.76-.01-1.14-.11 0-.22-.01-.32.03z"/><path fill="#58895e" d="M128.6 43.67c.28-.11.59-.22.89-.11.09.24.15.5.15.75v2.56c0 .18.02.42.23.47.4.1.8 0 1.2 0 .3 0 .62-.04.9.1-.86.01-1.73-.04-2.58.09-.04-.74 0-1.48-.02-2.21v-.06-1.58c-.44.14-.87.32-1.3.48-.31.12-.64.21-.94.37a4.64 4.64 0 0 0-.03.9v2.38c.02.5.11 1 .41 1.41l-.12.1c.17.23.37.44.64.54.74.3 1.54.16 2.32.19.35-.02.74.08 1.06-.13v.28 1.55l-.22-.02c-.08-.37-.02-.76-.06-1.14-.02-.2-.16-.44-.4-.42-.78-.01-1.58.03-2.36-.12a1.9 1.9 0 0 1-1.4-1.28c-.2-.62-.14-1.27-.15-1.9v-1.61c0-.25-.03-.51.07-.75.1-.22.33-.3.54-.4l1.16-.44z"/><path fill="#bbfd71" d="M3.54 43.57c.55-.02 1.1 0 1.65 0 2.18 0 4.35-.02 6.52 0-.05.54.02 1.08 0 1.63H3.2c-.49 0-.97 0-1.46-.02l1.16-.94c.24-.2.53-.36.64-.67zM12.76 43.55h.08c.7.03 1.4 0 2.09.02-.04.54-.02 1.08-.02 1.63h-2.07c-.04-.54.05-1.1-.07-1.62zM27.1 43.56H33a7.7 7.7 0 0 0-.03.2l1.67 1.48c.17.16.38.29.52.48.07.25.06.5.07.75v2.22c-.36-.04-.71-.03-1.06-.04-.03-1.14 0-2.28-.02-3.42-1.25-.02-2.5 0-3.75-.01-.51 0-1.02.02-1.53-.02 0-.36 0-.73-.02-1.09-.69-.01-1.38.03-2.07-.03.16-.13.34-.29.33-.52zM51.88 43.57c2.88-.02 5.76 0 8.65-.01.03.23.11.44.23.63.22.37.42.74.62 1.11-.47-.16-.97-.1-1.46-.1h-9.1c-.2 0-.39 0-.58-.02.46-.41.91-.83 1.38-1.23.12-.1.2-.24.26-.38zM66.97 43.57c2.31-.02 4.62 0 6.93 0 1.3-.02 2.6 0 3.89-.02h.04v.03c-.06.2-.08.41-.08.62v1.74h-4.47v.11c-.03 1.64 0 3.28-.01 4.92 0 .55-.02 1.1.02 1.66-.72.02-1.44 0-2.16 0v-.17h1.33c.2 0 .4-.02.58-.06-.63-.08-1.27-.01-1.91-.04V49.7h1.1c.28 0 .57.06.82-.08-.64-.08-1.28-.02-1.92-.04v-.34l1.5.01c.15.01.29-.03.42-.1-.64-.07-1.28-.02-1.92-.02v-.34c.52-.02 1.04 0 1.56 0 .13 0 .25-.05.36-.1-.63-.1-1.28 0-1.92-.05V45.95c-1.54-.02-3.09.02-4.63-.02v-.5c3.65.01 7.3.02 10.96 0l.06-.2c-.58-.07-1.15-.02-1.73-.03h-9.3l.01-.84c0-.14.13-.25.21-.36.11-.13.2-.27.26-.43m3.63.19c0 .38-.03.76.03 1.13.05-.04.14-.07.13-.15.03-.33 0-.65.01-.98h-.17m.72 0v1.07l.13.03c.03-.37.03-.74 0-1.11l-.13.01m.72 0v1.07l.13.03v-1.11l-.13.01m.72 0v1.1h.12v-1.1h-.12m.69-.02c0 .34-.03.68 0 1.02-.02.1.08.17.17.1.06-.37.02-.74.02-1.12h-.2m.76 0v1.11h.13v-1.09l-.13-.01m.72 0v1.11l.12-.03v-1.07l-.12-.01m.67.01l.01 1.07.14.03c.05-.36.02-.73.03-1.1h-.18m.73 0v1.07l.14.03c.05-.36.02-.73.03-1.1h-.17m.72 0c0 .37-.02.74.02 1.1l.14-.03v-1.07h-.16m-6.74 1.82c.14.05.29.08.44.08 2.25-.02 4.5.01 6.75-.02-.01-.14-.15-.13-.26-.13h-6.66c-.1 0-.18.04-.27.07z"/><path fill="#58895e" d="M78.45 44.2c0-.24.04-.48.19-.68.13.55.04 1.12.07 1.68a6.1 6.1 0 0 0 0 .47v9.79c.02.56-.05 1.1.04 1.65v.05l-.24-.04c-.08-.3-.07-.62-.06-.93V44.2zM80.82 43.52c.14.12.23.28.22.46v2.28c0 .15 0 .33.13.44.11.13.29.13.45.14h4.22c.17 0 .36-.02.48-.16.1-.09.1-.24.1-.37v-2.1c.02-.23.03-.5.22-.65.2-.07.41.04.58.14l1.4.95c.15.1.34.22.4.43.05.22.1.45.2.66.32-.2.54-.52.82-.78.5-.49.97-1.02 1.52-1.46l.02.05.06.14a16.08 16.08 0 0 0-.37.38c-.39.35-.75.73-1.11 1.1l-.24.23c-.12.14-.35.26-.32.48.03.92 0 1.85.01 2.77V50.33l-.15.11c.26.36.6.63.9.95.37.36.74.74 1.07 1.15-.37-.28-.66-.64-.99-.95-.4-.39-.76-.8-1.18-1.16-.06.1-.15.2-.15.33-.06.56.02 1.13-.04 1.69 0 .13-.14.15-.24.17V45.1l-2.1-1.4v3.37c-.35-.18-.74-.12-1.12-.12h-4.33c-.19-.01-.36.04-.53.11v-2.3c0-.41-.04-.83.07-1.24z"/><path fill="#bbfd71" d="M91.58 43.55c.75.02 1.5 0 2.25 0h5.16c.56 0 1.11.03 1.67-.01h.04a1.8 1.8 0 0 0-.08.55v1.89h-8.76V46.84c.39-.1.8-.06 1.2-.06h4.7c.35 0 .68 0 1.02-.02h.09c-.11.41-.07.85-.07 1.27-.01.38.02.75.03 1.13h-6.96a6.44 6.44 0 0 0 0 .9c.38-.1.78-.06 1.18-.06h6.66c.33 0 .67.01 1-.03-.1.48-.04.96-.06 1.45l.01.96h-8.89c-.18.04-.3-.1-.4-.22-.33-.37-.68-.7-1.03-1.05.1-.46.12-.93.11-1.4.38-.02.79.1 1.14-.08-.38-.07-.76-.03-1.15-.04v-.33h1.07v-.13h-1.06v-.33c2.65-.02 5.32 0 7.98 0v-.14h-7.04c-.28 0-.55.02-.83-.01-.13 0-.18-.14-.21-.25-.04-.35-.04-.72.08-1.06-.2-.2-.16-.5-.16-.76 0-.2.12-.36.17-.55.02-.2 0-.4 0-.6 3.28 0 6.55.02 9.83 0v-.23h-9c-.37.01-.74-.05-1.11-.03.36-.37.72-.75 1.1-1.1l.12.66c.32.09.65.08.97 0 .03-.33.03-.67.02-1.01a142.17 142.17 0 0 1-.73-.03l-.06-.14m3.08.15c-.01.3-.05.62.02.92.03.13.18.12.28.15h.34c.1-.05.24-.06.24-.19.05-.29.02-.58 0-.88a19.5 19.5 0 0 1-.7 0h-.18m3.32 0c-.02.33-.02.67 0 1l.34.08h.13c.11-.03.3-.03.32-.2.05-.29.02-.59 0-.88h-.79m-3.39 7.86c-.04.2-.01.41-.02.62h.18c-.02-.23.04-.48-.05-.7-.07-.02-.1 0-.1.08m.72-.09c-.03.24-.03.47-.02.7h.17v-.66l-.15-.04m.72 0c-.03.24-.03.47-.02.71h.17v-.67l-.15-.04m1.41.02v.41h.14v-.41h-.14m.72 0v.41h.13v-.41h-.13m.73 0v.7l.13-.01v-.7h-.13m.72 0l-.01.7h.14v-.7h-.13z"/><path fill="#58895e" d="M100.7 43.54c.08.08.18.17.19.3.04.34 0 .68.01 1.03-.01.38.08.78-.05 1.15l-.23-.04v-1.9c0-.18.03-.36.08-.54z"/><path fill="#d5fda9" d="M104.48 43.6c.06-.04.14-.06.2-.08.02.42-.1.87.1 1.26-.1-.04-.29-.04-.3-.2a4.13 4.13 0 0 1 0-.98z"/><path fill="#f1fee3" d="M104.69 43.52l.37.01a4 4 0 0 1-.05 1.24l-.22.01c-.22-.39-.1-.84-.1-1.26z"/><path fill="#d5fda9" d="M105.06 43.53l.2.02c.05.38.03.77.01 1.15l-.26.07a4 4 0 0 0 .05-1.24zM107.72 43.56l.19-.03c-.03.41-.05.83.04 1.24-.1-.05-.24-.05-.25-.19-.05-.34-.03-.68.02-1.02z"/><path fill="#f1fee3" d="M107.91 43.53l.42-.01c.02.42.05.84-.04 1.25h-.34c-.1-.4-.07-.83-.04-1.24z"/><path fill="#d5fda9" d="M108.33 43.52c.07.03.14.04.2.09.05.32.04.65.01.97 0 .14-.16.15-.25.2.1-.42.06-.84.04-1.26z"/><path fill="#f1fee3" d="M117.74 43.58c.1-.04.21-.02.32-.03.03.38.02.76 0 1.14l-.34-.01c0-.37-.06-.74.02-1.1z"/><path fill="#d5fda9" d="M120.75 43.6c.05-.05.13-.06.2-.09-.02.42-.06.84.04 1.25l-.25-.06c-.01-.37-.05-.73 0-1.1z"/><path fill="#f1fee3" d="M120.95 43.51c.14.01.28.02.42.01.02.42.05.84-.04 1.25H121c-.1-.42-.06-.84-.04-1.26z"/><path fill="#d5fda9" d="M121.37 43.52c.07.05.2.01.21.14.04.3.04.62 0 .92-.01.13-.16.14-.25.2.1-.42.06-.84.04-1.26zM124.01 43.65c0-.13.17-.1.25-.14v.05c-.07.3-.1.61-.05.92 0 .11.07.21.14.3l-.34-.08c-.01-.35-.04-.7 0-1.05z"/><path fill="#bbfd71" d="M135.75 43.54c.38.03.73.21 1.08.33l1.27.49c-.06.22-.08.45-.07.67v1.45h-.98a7.45 7.45 0 0 1 0-1c.15 0 .3-.01.44-.03v-.04c.03-.36.02-.73.01-1.1l-.2-.05v.94h-.23c-.07-.14-.12-.28-.23-.38a.74.74 0 0 0-.55 0c-.13.08-.17.24-.23.37l-.24.01c-.02-.54.05-1.09-.06-1.62z"/><path fill="#58895e" d="M12.54 44.37c0-.27-.04-.62.23-.8.12.54.03 1.09.07 1.63v.23 4.28a141.5 141.5 0 0 0 0 3.1v.15c-.02 1.02 0 2.04-.01 3.06 0 .38-.02.76.04 1.14v.05c-.1-.06-.27-.08-.3-.22-.05-.24-.02-.5-.02-.75V44.37zM26.61 43.92c.15-.14.31-.26.5-.36 0 .23-.18.39-.34.52l-.18.15a15.2 15.2 0 0 0-.89.79l-.17.15c-.2.18-.43.35-.6.56-.1.12-.1.3-.1.44-.04.89.02 1.78-.04 2.67-.28-.15-.6-.13-.9-.13.16-.05.33-.08.49-.15.15-.08.17-.26.18-.41 0-.6-.02-1.2 0-1.79.02-.28.03-.6.25-.8.57-.58 1.2-1.1 1.8-1.64zM32.99 43.56c.33.2.6.49.9.75l1.24 1.09c.31.21.33.62.33.97v1.66c.01.18.02.4.17.53.18.08.37.1.55.15-.33-.01-.65.03-.97.1v-.12c.02-.74 0-1.48 0-2.22 0-.25.01-.5-.06-.75-.14-.2-.35-.32-.52-.48-.56-.5-1.12-.98-1.67-1.49l.03-.19z"/><path fill="#bbfd71" d="M39.59 43.7c.05-.09.15-.09.23-.09h8.64c-.06.59-.02 1.17-.03 1.76v3.34c-.7-.04-1.42-.01-2.12-.01.03-.9 0-1.8.01-2.7v-.05h-6.1c-.27 0-.55-.04-.8.07-.03.9 0 1.78-.01 2.67-.73 0-1.46-.02-2.2.02v-2.3c.01-.2.02-.41.11-.6.11-.17.28-.27.43-.4.41.04.83.03 1.24.03h7.94c.46 0 .92.01 1.39-.02l-.05-.22H40.7c-.9-.01-1.79.01-2.69-.02.5-.52 1.12-.92 1.57-1.49z"/><path fill="#2f4a36" d="M60.78 43.6c.12.07.22.17.28.29.3.52.6 1.04.88 1.57.1.2.23.43.1.64-.12.28-.46.32-.73.34h-1.78a.84.84 0 0 0-.36.09c.25.21.6.29.85.51.26.24.56.45.73.77.4.66.48 1.46.46 2.22 0 .33-.06.69-.3.93-.22.22-.48.38-.72.56-.52.37-1.02.76-1.53 1.14-.21.15-.43.3-.68.38-.35.09-.7.05-1.06.06h-6.88c-.24-.01-.5-.02-.7-.15-.2-.14-.27-.4-.27-.64v-1.28c0-.24-.01-.51.14-.71.12-.16.31-.23.5-.24.54-.05 1.1.07 1.62-.12-.31-.23-.7-.3-1.03-.53-.44-.3-.79-.73-1-1.22-.05-.08-.03-.18.01-.26.25.44.44.95.88 1.26.5.35 1.11.6 1.73.63h5.34c.14-.02.47.08.29.26-.14.09-.31.06-.46.07-2.37-.01-4.74 0-7.11 0a1 1 0 0 0-.55.13.58.58 0 0 0-.16.3c-.06.32-.02.65-.03.98 0 .35 0 .7.04 1.04l.2.03c2.7.03 5.4 0 8.1.01.19 0 .38 0 .53-.11.88-.65 1.75-1.32 2.64-1.95l.22-.05c.12-.59.08-1.2-.02-1.77-.13-.6-.43-1.21-.97-1.54-.26-.17-.55-.3-.84-.41-.45-.21-.96-.17-1.44-.2h-3.94c-.33 0-.66.05-1 0-.1-.02-.24-.1-.2-.24.1-.13.28-.11.42-.13h6.66c.63-.01 1.27.04 1.9-.03-1.28-.03-2.56 0-3.84-.01h-4.6c-.34 0-.7.04-1-.14.1-.04.21-.08.32-.08h9.53c.01-.4-.24-.7-.42-1.03-.26-.46-.52-.9-.75-1.37z"/><path fill="#58895e" d="M77.82 43.58c.07.1.15.19.17.3.05.35.02.7.03 1.04 0 .3.02.59-.04.87-.01.12-.15.15-.23.21v-.06-1.74c0-.2.02-.42.07-.62z"/><path fill="#f1fee3" d="M124.2 44.48c-.03-.3 0-.62.06-.92.12.07.26.14.36.25-.02.32.07.7-.15.98h-.12a.6.6 0 0 1-.14-.31z"/><path fill="#58895e" d="M135.6 43.78c.02-.09.1-.14.16-.2.11.53.04 1.08.06 1.62v2.26h-.64c.1-.09.23-.16.32-.26.07-.14.05-.3.06-.45V44.6c0-.27-.02-.54.04-.8z"/><path fill="#f1fee3" d="M79.2 43.71h.13v1.14h-.13v-1.14zM79.9 43.71h.15l-.01.5-.13.04v-.54zM91.64 43.7h.51c-.02.32.02.64-.04.95-.11.14-.4.14-.5 0-.06-.28-.03-.57-.06-.86l.1-.1z"/><path fill="#d5fda9" d="M92.15 43.7l.22.02c0 .34 0 .68-.02 1.01-.32.08-.65.09-.97 0a9.62 9.62 0 0 0-.11-.66l.28-.28c.03.29 0 .58.06.86.1.14.39.14.5 0 .06-.3.02-.63.04-.94zM94.66 43.7h.18c.02.36-.07.75.12 1.07-.1-.03-.25-.02-.28-.15-.07-.3-.03-.61-.02-.92z"/><path fill="#f1fee3" d="M94.84 43.7h.53c0 .36 0 .72-.07 1.07h-.34c-.19-.32-.1-.7-.12-1.06z"/><path fill="#d5fda9" d="M95.37 43.7h.18c.01.3.04.6 0 .88-.01.13-.16.14-.25.19.07-.35.07-.7.07-1.06zM97.98 43.7h.19c.03.36-.11.78.15 1.08l-.34-.07a8.09 8.09 0 0 1 0-1.02z"/><path fill="#f1fee3" d="M98.17 43.7h.42c-.02.36.07.76-.14 1.09h-.13c-.26-.3-.12-.73-.15-1.1z"/><path fill="#d5fda9" d="M98.59 43.7h.19c0 .3.04.59 0 .88-.03.17-.22.17-.33.2.2-.32.12-.72.14-1.08z"/><path fill="#bbfd71" d="M128.07 44.16c.43-.16.86-.34 1.3-.48v1.58c-.75-.08-1.51-.07-2.27-.06 0-.23 0-.45.03-.67.1.1.22.24.38.25.18 0 .4.03.53-.11.08-.16.03-.34.03-.5zM20.89 43.74c.5.3.96.64 1.45.96.22.15.46.27.62.49-.7-.01-1.39-.02-2.08 0v-1.45z"/><path fill="#f1fee3" d="M70.6 43.76h.17c0 .33.02.65 0 .98 0 .08-.09.1-.14.15-.06-.37-.02-.75-.03-1.13zM71.32 43.76l.13-.01c.03.37.03.74 0 1.11l-.12-.03c-.02-.35-.01-.71-.01-1.07zM72.04 43.76l.13-.01v1.11l-.13-.03v-1.07zM72.76 43.75h.13v1.1h-.13v-1.1z"/><path fill="#d5fda9" d="M73.45 43.74h.19c0 .38.04.75-.02 1.13-.1.06-.19 0-.17-.11-.03-.34 0-.68 0-1.02z"/><path fill="#f1fee3" d="M74.2 43.75l.13.01v1.1h-.13v-1.11zM74.92 43.75l.13.01-.01 1.07-.12.03v-1.11zM75.6 43.76h.17c0 .37.02.74-.03 1.1l-.14-.03v-1.07zM76.32 43.76h.17c0 .37.02.74-.03 1.1l-.14-.03v-1.07zM77.04 43.76h.17v1.07l-.15.03c-.04-.36-.02-.73-.02-1.1z"/><path fill="#d5fda9" d="M124.62 43.8c.29.15.2.52.18.78-.02.16-.2.17-.33.2.22-.27.13-.65.15-.97z"/><path fill="#f1fee3" d="M26.6 44.23l.17-.15c.69.06 1.38.02 2.07.03.03.36.02.73.02 1.1.5.03 1.02 0 1.53.01h3.75c.02 1.15-.01 2.29.02 3.43.35 0 .7 0 1.05.04v.11c-.74-.02-1.47-.03-2.2 0v-.15h1c.01-1.1.02-2.22 0-3.33h-6.3v-.66c-.53-.02-1.05.02-1.57-.03l.13-.12c.52.01 1.04-.01 1.56.02l.02.68c.29.02.58.02.87 0 .02-.32.02-.64 0-.95-.71-.04-1.42 0-2.13-.03z"/><path fill="#d5fda9" d="M127.13 44.53c.3-.16.63-.25.94-.37 0 .17.05.35-.03.5-.13.15-.35.13-.53.12-.16 0-.27-.15-.38-.25z"/><path fill="#bbfd71" d="M26.27 44.51l.32-.28c.71.03 1.42 0 2.13.03.02.31.02.63 0 .95a6.9 6.9 0 0 1-.87 0l-.02-.68c-.52-.03-1.04 0-1.56-.02z"/><path fill="#f1fee3" d="M137.3 44.26l.2.06c0 .36.02.73 0 1.09l-.59.03v1.03h.14c.33.02.65.01.98.01v.12c-.37 0-.74 0-1.1.02v.32c.36.02.73.01 1.1.02v.12l-.98.01h-.14c0 .44.02.87 0 1.3a3 3 0 0 0-.17.17c-.06.33-.03.68-.02 1.01l.37.03-.13.06c-.7-.05-1.41.02-2.12 0h-1.16c-.41 0-.82.07-1.22.06-.5-.01-1 .02-1.5-.02-.53-.06-1.07-.02-1.61-.03-.4-.01-.81.04-1.2-.06.28-.04.57-.02.87-.02 2.5 0 5 .01 7.5-.01v-.7c-1.32.02-2.63 0-3.95.02.02-.41.02-.83.01-1.25h.08v1.15h3.86v-.26l-.36-.06-.04-.15.64-.04v-2.8c-.31 0-.63-.03-.94-.06v-.23l.24-.01a14 14 0 0 1 1 0h.23c.02-.3.02-.62.01-.93z"/><path fill="#58895e" d="M138.1 44.36c.14.1.22.27.21.45v2.72c.01.3-.06.6-.11.88-.06.33-.24.62-.42.9-.2.31-.52.53-.86.68-.28.12-.6.12-.9.15-.56.06-1.12.01-1.68.03-.3-.05-.44.27-.41.52-.01.39.05.79-.09 1.16l-.2-.1v-1.1-.11-.34-.12l-.02-.2h.04c.2.23.52.17.8.17h1.66c.48-.02 1.01-.14 1.34-.52.09-.06 0-.15-.04-.21.3-.38.51-.82.58-1.3.04-.31.03-.63.03-.94v-.12-.36-.12-1.45c-.01-.22.01-.45.07-.67z"/><path fill="#bbfd71" d="M25.7 45.02l.44-.4c.52.06 1.04.02 1.56.04l.01.65c2.1.02 4.2 0 6.3.01.02 1.11.01 2.22 0 3.33h-1c-.02-.6 0-1.19 0-1.79 0-.17-.03-.34-.06-.5-.35-.04-.7-.03-1.06-.03h-4.55a.34.34 0 0 0-.3.15c-.02.72 0 1.45-.02 2.18h-2.19l.02.17c.72-.08 1.44-.03 2.16-.03.2-.03.4-.08.6-.08h4.61c.27-.02.53.04.8.09.72-.04 1.45-.03 2.19 0a4.27 4.27 0 0 1 1.21-.1v.04c-.09.36-.06.74-.06 1.11 0 .43-.01.86.01 1.28h-1.15v1.49H33v-.17h1.05c.36-.01.73.03 1.08-.08a3.73 3.73 0 0 0-.69-.04H33V51.2l.01-.06h-4.67c-.43 0-.87-.02-1.3.01h-.03c.04.4.01.8.02 1.21-.73-.09-1.47 0-2.2-.05 0-.39-.02-.77 0-1.16h-.03c-.37-.03-.75 0-1.13-.02v-1.42c2.77.02 5.54 0 8.3 0l.01.6c1.08.02 2.16.03 3.23 0v-.22c-1-.02-2 0-3-.01l.01-.37c.17 0 .33 0 .5.02.04.06.08.13.14.19.3.05.61.02.92.02.55-.01 1.1.04 1.66-.03-.1-.04-.17-.11-.27-.1l-1.95.01a.71.71 0 0 1-.36-.08c1.07-.05 2.13 0 3.2-.02.09 0 .16-.08.25-.1a2.95 2.95 0 0 0-.37-.03c-1.01 0-2.03.02-3.04-.01v-.32c1.11-.02 2.22 0 3.33 0v-.12c-1.1-.02-2.2 0-3.3-.01l-.08-.29-.11.29h-.47c-.06-.1-.09-.28-.23-.25l-.14.24c-1.28.03-2.56 0-3.84.01h-4.38a2.26 2.26 0 0 0-.08-.4l.28-.02c.3 0 .63-.02.9.13.07-.9 0-1.78.04-2.67.02-.15.01-.32.11-.44.17-.21.4-.38.6-.56.36.01.73 0 1.1.02.02.78-.01 1.55 0 2.33h.13v-2.46c-.35 0-.7 0-1.06-.04m-1.84 5.47a.57.57 0 0 0-.03.38l.16.06c-.03-.14.07-.44-.13-.44m.7 0a8 8 0 0 0-.03.44l.16-.06c.02-.12.02-.24.01-.36l-.14-.03m.7.12c-.02.37 0 .74 0 1.11l.14.03c.04-.43.06-.86-.02-1.28-.04.04-.12.07-.12.14m.72-.1v1.2l.12.04c.02-.42.02-.84 0-1.26l-.12.03m.72 0v1.02c-.01.1.04.17.08.25.1-.43.03-.87.04-1.3l-.12.03m.69-.03l-.01.45h.2v-.45h-.2m.75 0v.42h.14v-.41h-.14m.72 0v.42h.14v-.42h-.14m.72 0c-.03.13-.03.27-.02.4l.16.02-.01-.4-.13-.02m.68.01l.02.41h.16l-.02-.4h-.16m.74-.03l-.03.43.18-.02v-.38l-.15-.03m.75.01c-.08.13-.04.3-.05.44.08-.03.2-.06.18-.18-.02-.1 0-.3-.13-.26m.68.02l-.02.4h.15v-.43l-.13.03m.71-.02c.02.43-.04.86.05 1.28.03-.08.09-.15.08-.24V50.5h-.13m.72 0c.01.43-.05.86.05 1.29.03-.08.09-.16.08-.25V50.5h-.13m.72 0v1.04c0 .09.04.17.09.24.08-.42.03-.85.04-1.28h-.13m.72 0v.42h.13v-.42h-.13m.72 0c-.05.12-.04.26-.05.4l.19.02c-.01-.14.01-.3-.05-.42H36z"/><path fill="#d5fda9" d="M111.1 45.19c0-.17 0-.35.1-.5.07.16.08.33.06.5h-.16zM136.29 44.82a.74.74 0 0 1 .55 0c.1.1.16.24.23.37a14 14 0 0 0-1.01 0c.06-.13.1-.29.23-.37z"/><path fill="#f1fee3" d="M25.53 45.17l.17-.15c.35.04.7.03 1.06.04v2.46h-.12c-.02-.78.01-1.55-.02-2.33-.36-.01-.73 0-1.09-.02zM90.16 45.17c.37-.02.74.04 1.12.03h8.99v.23c-3.28.02-6.55 0-9.82 0 0 .2.01.4-.01.6-.05.19-.17.36-.17.55 0 .26-.04.56.16.76-.12.34-.12.71-.08 1.06.03.1.08.25.21.25.28.03.55 0 .83 0h7.04v.14h-7.99v.34h1.07v.12h-1.07v.34c.39.01.77-.03 1.15.04-.35.17-.76.06-1.14.08 0 .47-.01.94-.11 1.4-.06-.06-.13-.12-.17-.2-.05-.4-.07-.8-.07-1.2h-.49v-.12h.5v-.33h-.5v-.12l.5-.01v-.33h-.5v-.15h.5c0-1.06.01-2.13-.01-3.2l-.18-.05.24-.23zM1.5 45.4l.24-.22c.49.02.97.01 1.46.02h8.51v.23c-3.11.02-6.23 0-9.35.01-.29 0-.58 0-.86-.05zM12.84 45.2h2.07v.23h-2.07v-.23zM20.88 45.19c.69-.02 1.38-.01 2.08 0v.24c-.7.03-1.4.03-2.08 0v-.24zM38.02 45.18c.9.03 1.8 0 2.7.02h7.55l.05.22c-.47.03-.93.02-1.39.02H39c-.41 0-.83.01-1.24-.03l.27-.23zM50 45.4l.24-.22.58.02h9.1c.49 0 .99-.06 1.46.1l.07.12c-1.35.04-2.69 0-4.03.02H52.2c-.73-.02-1.47.03-2.2-.03zM66.5 45.2h9.3c.57.01 1.14-.04 1.72.03l-.06.2c-3.65.02-7.3.01-10.96 0v-.23zM78.7 45.2h1.72v.24l-1.71-.02v-.22zM86.72 45.2h1.73v.23c-.58.02-1.15.01-1.73 0v-.23zM114.98 45.4l.3-.23c.49.04.98.02 1.47.03h8.72l.06.23c-.37.01-.75.01-1.12 0h-7.66c-.59 0-1.18.05-1.77-.03zM127.1 45.2c.76-.01 1.52-.02 2.27.06v.06c-.34.03-.68.13-1.02.12h-1.25v-.24z"/><path fill="#bbfd71" d="M128.35 45.44c.34 0 .68-.1 1.02-.12.01.73-.02 1.47.02 2.2.85-.12 1.72-.07 2.58-.07h3.85v-2.02c.31.03.63.05.94.06v2.8l-.64.04.04.15.36.06v.26h-3.85a20.8 20.8 0 0 1 0-1.14h-.09v1.24c1.3-.03 2.62 0 3.93-.01.02.23.02.46.01.69-2.5.02-5 0-7.5.01-.3 0-.59-.02-.88.02.4.1.8.05 1.2.06.55 0 1.09-.03 1.63.03.5.04.99 0 1.49.02.4.01.8-.06 1.22-.05h1.16c.71.01 1.42-.06 2.12-.01-.36.17-.77.21-1.17.2-.71.01-1.42-.02-2.13.02h-.04l.02.2h-2.24v-.16l.01-.05c-.78-.02-1.56 0-2.34-.01-.57-.02-1.2-.16-1.56-.64-.3-.4-.39-.92-.4-1.41v-2.38l1.24.01zM.5 46.22c.29-.32.67-.55 1-.83.28.06.57.06.86.05h9.35v.43l-.36.02H2.92c-.1 0-.23 0-.3.1-.03.89 0 1.77-.01 2.66H.46v-1.1c.69 0 1.38.01 2.07-.01v-.28c-.7-.02-1.38 0-2.07 0 .01-.35-.06-.7.03-1.04zM12.84 45.43h2.07v1.64c.34-.18.73-.12 1.1-.12h4.34c.19-.01.37.04.53.11v-1.62c.69.02 1.38.02 2.08 0v3.22h-9.1l-1.02-.01v-3.22m.06 1.92v.35c.4.03.78.02 1.17.02h5.06c1.24 0 2.49.01 3.73-.01v-.36c-2.37-.03-4.74 0-7.12-.01-.95 0-1.9-.02-2.84.01zM49.51 45.9c.1-.22.32-.34.49-.5.73.07 1.47.02 2.2.04h5.22c1.34-.01 2.68.02 4.03-.02.1.19.22.38.3.58h-9.33a.81.81 0 0 0-.32.08c.02.24.02.47.01.7.53-.1 1.06-.04 1.6-.06h2.66c.92.01 1.85-.04 2.77.1.29.12.58.25.84.42.2.3.35.62.52.94.36.75.29 1.61.25 2.42-.89.63-1.76 1.3-2.64 1.95-.15.12-.34.12-.52.11-2.7-.01-5.4.02-8.1-.01v-.18h8.38c.13 0 .25-.04.37-.08-.53-.06-1.06-.01-1.6-.03h-7.16v-1.44c.01-.21 0-.42-.05-.62l.44.03h7.05c.4 0 .8-.03 1.2.07.02-.25.04-.5 0-.76.2.11.46.08.69.08h1.5c.12.01.2-.07.31-.1-.36-.06-.73-.02-1.1-.03h-1.45c-.26-.1-.54-.06-.82-.06h-5c-.73 0-1.54-.16-2.07-.71.65-.06 1.31-.02 1.97-.03h8.37v-.13h-9.04c-.47 0-.95-.02-1.42.03-.17-.2-.3-.42-.4-.65-.12-.4-.2-.82-.18-1.23.02-.3-.03-.62.03-.91m1.38 3.26c.25.14.54.1.81.1h8.82l.07-.12c-.9-.02-1.78 0-2.67 0H52.7c-.6 0-1.2-.04-1.81.02z"/><path fill="#d5fda9" d="M78.7 45.42c.58 0 1.15 0 1.72.02-.32.04-.65 0-.97.02-.25.06-.48.19-.74.2v-.24z"/><path fill="#bbfd71" d="M89.6 45.88c-.03-.22.2-.34.32-.48l.18.05c.02 1.07 0 2.14 0 3.2h-.49c0-.92.02-1.85-.01-2.77zM101.54 46.25c0-.28 0-.6.18-.84.77.07 1.55.02 2.32.01h2.78c1.29.01 2.58-.02 3.87.03-.02.97-.03 1.95 0 2.93.31.01.64.02.96 0 .07.37-.07.72-.2 1.04l-.4.08.45.09c0 .1 0 .2.02.3-.16 0-.32.03-.48.05.13.08.28.11.44.13l.01.26-.47.1.46.12.03.54c-.46.4-.9.83-1.38 1.21-.36.06-.73.01-1.1.03h-7.49v-2.62h1.06c.27 0 .56.06.81-.08-.62-.08-1.25-.02-1.87-.04v-.34l1.45.01c.15.01.29-.03.42-.1-.62-.07-1.25-.02-1.87-.02v-.34c.6-.03 1.2 0 1.8-.02l.03-.12c-.61 0-1.22.01-1.83-.01v-2.4m2.23-.53l-.02-.01c.03.74 0 1.47.01 2.21.02.72-.05 1.44-.02 2.16.13-.04.27-.09.4-.09h5.45c.35.01.7-.03 1.04.08.03-.42.01-.84.02-1.26l-.01-3.17-.01-.02c-.08-.05-.18-.03-.27-.04h-3.71c-.82-.01-1.63.05-2.45.03-.14 0-.33-.04-.43.11m1.82 5.42v.16h3.22v-.16h-3.22m-3.86.5c0 .1.01.18.03.27l.15-.03c-.02-.13.03-.28-.05-.4-.1-.04-.13.09-.13.16m.72-.16v.42h.14c.02-.14.02-.27.01-.4l-.15-.02m.72 0v.42h.13v-.41h-.13m.72 0v.41h.13v-.41h-.13m.72 0v.41h.13v-.41h-.13m.72 0v.41h.13v-.41h-.13m.72 0v.41h.13v-.41h-.13m.72 0c-.08.2-.03.42-.04.63h.17c0-.21.04-.44-.04-.64h-.09m.72 0c-.08.2-.03.43-.04.64h.17c0-.2.04-.44-.04-.64h-.09m.72-.03c-.05.22-.05.45-.04.67h.17v-.52c0-.08-.08-.11-.13-.15m.67.04l.02.39.12.03v-.42h-.14m.73 0v.41h.13v-.41h-.13z"/><path fill="#d5fda9" d="M111.11 45.45l.14-.02c.04.48.02.96.02 1.44 0 .45.02.91-.02 1.37h-.15l.01-2.79zM136.91 45.44c.2 0 .4-.02.59-.03v.04l-.45.03c-.02.33-.02.66 0 1l-.14-.01v-1.03zM70.3 45.58c.09-.03.17-.08.27-.07h6.66c.11 0 .25 0 .26.13-2.25.03-4.5 0-6.75.02-.15 0-.3-.03-.44-.08z"/><path fill="#2f4a36" d="M103.77 45.72c.1-.15.29-.1.43-.11.82.02 1.63-.04 2.45-.02h3.71c.09 0 .19-.02.27.03v.02c-.14.13-.35.14-.54.14h-4.16c-.61.02-1.22.1-1.83.03a1.62 1.62 0 0 1-.33-.09z"/><path fill="#58895e" d="M110.09 45.78c.19 0 .4 0 .55-.14.02 1.06 0 2.11 0 3.17 0 .42.02.84 0 1.26-.35-.11-.7-.07-1.05-.07h-5.44c-.14 0-.28.04-.4.08-.04-.72.03-1.44.01-2.16 0-.74.02-1.47-.01-2.21l.02.01c.1.04.21.07.33.09.6.06 1.22-.01 1.83-.04l4.16.01m-5.75.11c-.22.04-.33.27-.32.47v2.84c-.01.19 0 .4.15.53.1.13.27.16.42.16h5.28c.16-.01.36-.02.45-.18.08-.16.07-.34.07-.51v-2.78c-.01-.15 0-.35-.14-.45-.18-.15-.44-.13-.66-.13-1.75.03-3.5-.04-5.25.05z"/><path fill="#2f4a36" d="M117.43 45.84c.46-.06.92-.01 1.37-.03h4.17c.14 0 .31-.04.42.09-.32.16-.69.1-1.03.1h-4.06c-.28 0-.6.05-.83-.14zM104.34 45.9c1.75-.1 3.5-.03 5.25-.06.22 0 .48-.02.66.13.14.1.13.3.14.45v2.78c0 .17 0 .35-.07.5-.09.17-.29.18-.45.19h-5.28c-.15 0-.32-.03-.42-.16-.15-.13-.16-.34-.16-.53.02-.95 0-1.9.01-2.84-.01-.2.1-.43.32-.47m.1.17c-.17.02-.25.2-.24.36-.02.94.02 1.9-.03 2.84 0 .15 0 .35.17.41.26.07.54.03.81.04h4.6c.16-.01.41.01.44-.2.06-.4 0-.8.02-1.2-.01-.68.03-1.37-.01-2.05 0-.23-.27-.24-.44-.24h-2.72c-.56 0-1.11-.02-1.67.02-.3.02-.62-.01-.92.02z"/><path fill="#58895e" d="M117.47 45.86c.24.19.55.14.83.14h4.06c.34 0 .7.06 1.03-.1l.03-.02c-.03.47.01.94-.02 1.41-.32-.1-.66-.07-.99-.07h-3.94c-.33 0-.68-.04-1 .09v-1.45m.57.24c-.36.08-.38.55-.24.83.1.18.32.17.5.18h4.33c.16 0 .37-.02.46-.18.09-.18.09-.41.03-.6-.1-.2-.34-.27-.54-.26h-3.55c-.33.01-.67-.04-.99.03z"/><path fill="#2f4a36" d="M39.42 46.02c.25-.11.53-.07.8-.08h6.1V46c-.15.14-.36.18-.55.17h-5.78c-.2 0-.4-.04-.57-.14z"/><path fill="#58895e" d="M2.6 48.65c.02-.89 0-1.77.02-2.66.17.1.38.12.58.11h7.27c.43.01.85 0 1.28.02-.17.03-.33.06-.5.06H3.47c-.15 0-.33 0-.44.13-.14.12-.14.33-.14.5v2.27c0 .26 0 .52.08.77.04.18.22.3.4.3.21.03.44.01.66.02h7.33c.14-.01.27.03.39.1-2.43.02-4.85 0-7.28 0-.6.01-1.22-.01-1.83.03v-.6-.1l-.03-.35v-.11-.37-.12zM45.77 46.16c.2 0 .4-.03.55-.17-.01.9.02 1.8-.01 2.7v.12l-.01.33v1.26c-.43-.1-.88-.06-1.31-.07h-5.06c-.18 0-.36.05-.53.12v-.7-.12-.36-.12-.34-.12c.02-.89-.01-1.78.02-2.67.18.1.37.15.57.14h5.78m-5.77.1c-.22.05-.32.28-.31.5v2.83c0 .18 0 .4.16.53.2.15.47.1.7.1.9-.02 1.82.05 2.72-.05h2.33c.28.01.43-.29.41-.53v-3c.02-.27-.28-.43-.52-.41h-5.22c-.1 0-.18 0-.27.03zM70.74 46.15c.15.01.28-.07.39-.15V52.64a9.9 9.9 0 0 0-.21.04 3.34 3.34 0 0 1-.05-.76V46.8c0-.17 0-.38-.14-.5-.13-.12-.32-.1-.49-.1h-2.5c-.37 0-.75.02-1.12-.04 1.38-.03 2.75 0 4.12-.02zM73.27 46.05c.15.06.3.1.47.1 1.35.02 2.7 0 4.06.02-.19.04-.38.07-.57.06h-3.05c-.17 0-.38 0-.5.13-.13.11-.13.3-.14.45v5.05c.01.27 0 .54-.04.8l-.21.01v-.04c-.04-.55-.02-1.1-.02-1.66 0-1.64-.02-3.28 0-4.92zM91.86 46.04c.13.07.26.13.41.13h5c1.11 0 2.23-.03 3.34.01-.26.07-.52.06-.79.05h-7.1c-.16 0-.36.02-.41.2 0 .2.24.25.4.24h5.67c.14-.02.28.02.4.09-.34.03-.67.02-1.01.02h-4.72c-.4 0-.8-.04-1.19.07v-.8zM52.11 46.79v-.7c.3.17.65.12.98.13h4.6c1.29 0 2.57-.02 3.85.01-.63.07-1.27.02-1.9.03h-6.66c-.14.02-.33 0-.41.13-.05.14.09.22.2.23.33.06.66.01.99.02h3.94c.48.02.99-.02 1.44.19-.92-.15-1.85-.1-2.77-.1H53.7c-.53.01-1.06-.05-1.59.06z"/><path fill="#2f4a36" d="M118.04 46.1c.32-.07.66-.02.99-.03h3.55c.2 0 .45.05.54.25.06.2.06.43-.03.61-.1.16-.3.17-.46.18h-4.33c-.18 0-.4 0-.5-.18-.14-.28-.12-.75.24-.83m.06.18c-.2.05-.24.33-.15.5.07.15.26.14.4.16h3.67c.24 0 .48.02.71-.03.33-.03.33-.61 0-.65-.29-.05-.58-.01-.87-.02h-2.95c-.27 0-.54-.03-.8.04zM40 46.26c.09-.03.18-.03.27-.03h5.22c.24-.02.54.14.52.41v3c.02.24-.13.54-.4.53h-2.34c-.9.1-1.81.03-2.72.05-.23 0-.5.05-.7-.1-.16-.13-.16-.35-.16-.53v-2.84c-.01-.2.1-.44.31-.5m.07.18c-.2.05-.21.27-.21.43v2.73c0 .16.02.38.2.43.27.06.55.02.82.03 1.44 0 2.89-.02 4.33 0 .17-.01.37 0 .52-.1.11-.09.11-.24.12-.36 0-.34-.02-.69.01-1.03.05-.52.02-1.06.03-1.59 0-.2 0-.48-.24-.55-.24-.04-.48-.02-.72-.02h-4.16c-.23 0-.47-.03-.7.03zM27.03 46.48c.08-.1.18-.16.31-.15h4.55c.35 0 .7 0 1.06.03l-.13.18c-1.44.02-2.88 0-4.32.01-.49-.01-.98.04-1.47-.07z"/><path fill="#58895e" d="M32.95 46.36c.03.16.06.33.06.5 0 .6-.02 1.2 0 1.8v.15c-.26-.05-.52-.1-.79-.1-1.53.02-3.07.01-4.6.01-.21 0-.4.05-.6.08v-.14c.03-.73 0-1.46.01-2.18.49.11.98.06 1.47.07 1.44 0 2.88.01 4.32-.01l.13-.18m-5.32.28c-.22.05-.33.29-.32.5 0 .37-.02.74.02 1.1.03.25.28.39.5.37h4.28c.17 0 .36-.02.48-.15.14-.12.1-.32.11-.48-.01-.34.01-.67-.01-1-.02-.25-.3-.37-.52-.36h-4.28c-.09 0-.18 0-.26.02z"/><path fill="#bbfd71" d="M136.93 46.62c.36-.02.73-.01 1.1-.02v.36c-.37 0-.74 0-1.1-.02v-.32z"/><path fill="#2f4a36" d="M27.63 46.64c.08-.02.17-.02.26-.02h4.28c.22-.01.5.1.52.35.02.34 0 .67.01 1-.01.17.03.37-.1.49-.13.13-.32.15-.49.15h-4.27c-.23.02-.48-.12-.51-.36-.04-.37-.01-.74-.02-1.11 0-.21.1-.45.32-.5m.06.18c-.12.03-.19.15-.2.27-.02.26 0 .52-.01.77 0 .16-.01.32.07.46.09.12.26.12.4.12h4.22c.15.01.31-.06.36-.22.07-.26.04-.53.04-.8 0-.17 0-.37-.1-.52-.08-.11-.23-.11-.36-.12H28.4c-.23.01-.47-.02-.7.04z"/><path fill="#58895e" d="M98.87 46.75c.26.2.2.55.2.84-.01.55.04 1.1-.02 1.64l-.22-.07c-.01-.38-.04-.75-.03-1.13 0-.42-.04-.86.07-1.28z"/><path fill="#d5fda9" d="M136.91 47.1h.14c-.03.45 0 .92-.02 1.38l-.29.08a3 3 0 0 1 .16-.16c.03-.44 0-.87.01-1.3z"/><path fill="#bbfd71" d="M137.05 47.1c.33-.03.65-.02.98-.02 0 .31.01.63-.03.94-.07.48-.28.92-.58 1.3-.1.1-.22.2-.33.28l-.37-.03c-.01-.33-.04-.68.02-1l.3-.09c.01-.46-.02-.93.01-1.39z"/><path fill="#f1fee3" d="M78.7 47.2h9.42v1.03l.32.03v.21c-.59.03-1.18 0-1.77 0-.67.02-1.35-.03-2.01.05l-.01-.7c-1.96-.04-3.92.01-5.88-.03.43-.18.9-.13 1.35-.13h4.89l.02.58c.9.02 1.82.02 2.73 0v-.87c-1.48-.05-2.95 0-4.42 0H78.7v-.17zM.46 47.25l2.06.01v.28c-.68.02-1.37.01-2.06 0v-.29z"/><path fill="#58895e" d="M59.98 47.24c.54.33.84.94.97 1.54.1.58.14 1.18.02 1.77l-.22.05c.04-.8.11-1.67-.25-2.42-.17-.32-.32-.65-.52-.94zM113.39 48.3c0-.36-.02-.77.22-1.07.12.27.09.57.09.85a7.85 7.85 0 0 0 0 .46v1.05c-.1-.03-.22-.03-.24-.15-.1-.36-.07-.75-.07-1.13z"/><path fill="#f1fee3" d="M12.9 47.35c.94-.03 1.9 0 2.84-.01 2.38 0 4.75-.02 7.13 0v.37c-1.25.02-2.5 0-3.74 0h-5.06c-.39 0-.78.02-1.17 0v-.36z"/><path fill="#2f4a36" d="M49.6 48.3c-.04-.1.03-.18.06-.26a2.82 2.82 0 0 0 .52.78c.53.55 1.34.72 2.08.7h5c.27.01.55-.02.81.07-.13.07-.27.14-.43.13h-4.72c-.56 0-1.13.04-1.68-.1a2.27 2.27 0 0 1-1.64-1.33z"/><path fill="#f1fee3" d="M113.7 48.08h11.2c.35 0 .7-.02 1.03.05l-.01.05c-.86.05-1.71 0-2.57.02h-9.65v-.12z"/><path fill="#bbfd71" d="M113.7 48.2h9.65c.86-.01 1.71.03 2.57-.02l-.12.36h-12.1v-.34z"/><path fill="#f1fee3" d="M78.7 48.25c1.02.02 2.04 0 3.06.02l.03.38c.68.02 1.37 0 2.05 0h4.6v.14c-2.22 0-4.45-.01-6.67.01v.34c1.43.03 2.86 0 4.29.01.8-.03 1.59-.02 2.38-.01v.11H86.9c-.35.02-.7-.07-1.05-.07h-4.72c-.43-.01-.85.09-1.28.08h-1.13v-.12c.62 0 1.24-.02 1.86.01.27.01.54 0 .82-.02l.02-.33c-.9-.02-1.8-.02-2.7 0v-.15c.9.01 1.8.02 2.7 0v-.23c-.9-.02-1.8-.02-2.7 0v-.17z"/><path fill="#bbfd71" d="M78.7 48.42c.9-.02 1.8-.02 2.7 0v.23c-.9.02-1.8.01-2.7 0v-.23z"/><path fill="#f1fee3" d="M113.7 48.54h12.1l-.06.12H114.7v.35h2.9l.06-.21c.62-.04 1.24-.01 1.86-.02.63 0 1.25-.02 1.87.02l.06.21h2.8c.41 0 .84-.03 1.25.05l-.07.08h-2.3c-.6 0-1.2.02-1.8-.02a5.77 5.77 0 0 1-.05-.25h-3.5c-.03.09-.04.18-.05.27h-3.1l-.02-.47-.91-.01v-.12zM.46 48.65H2.6v.12c-.72.02-1.43.02-2.15 0v-.12zM12.84 48.65h10.11v.12c-.59.04-1.18.01-1.77.02-2.78 0-5.56-.01-8.34.01v-.15zM24.83 48.66h2.2l-.02.14c-.72 0-1.44-.05-2.16.03l-.02-.17zM50.06 48.69c.47-.05.95-.03 1.42-.03h9.04v.13h-8.37c-.66.01-1.32-.03-1.97.03a2.62 2.62 0 0 1-.12-.13zM71.13 48.65c.64.05 1.29-.06 1.92.06-.11.04-.23.09-.36.08h-1.56v-.14zM101.54 48.65c.61.02 1.22 0 1.83.01l-.03.12c-.6.02-1.2 0-1.8.02v-.15z"/><path fill="#bbfd71" d="M113.7 48.66h.91c0 .16 0 .32.02.48h3.1c0-.1.02-.18.04-.27h3.5l.06.25c.6.04 1.2.02 1.8.02h2.3c-.3.33-.71.5-1.13.61l.1.06c.6.58 1.18 1.19 1.79 1.77.25.22.5.44.7.71-.97.03-1.95 0-2.93.01-.1 0-.24.03-.3-.07l-1.33-1.5c-.34-.37-.64-.77-1-1.12-.2-.06-.43-.01-.64-.03h-3.28V52.48h-2.57c0-.96-.02-1.92.02-2.88h-1.17v-.93m1.64 2.83c.02.2-.09.48.12.62.02-.21.01-.42 0-.62h-.12m.72 0v.75h.13v-.75h-.13m.72 0v.75h.13v-.75h-.13z"/><path fill="#bbfd71" d="M114.7 48.66h11.04a5.93 5.93 0 0 1-.24.4c-.41-.08-.84-.04-1.26-.05h-2.8a5.4 5.4 0 0 1-.05-.21c-.62-.04-1.24-.01-1.87-.02-.62 0-1.24-.02-1.86.02l-.06.21h-2.9v-.35z"/><path fill="#f1fee3" d="M37.22 48.7c.73-.03 1.46 0 2.19 0v.11h-1.47c-.24 0-.49.02-.72-.04zM46.3 48.7c.71 0 1.42-.03 2.13 0v.07c-.25.06-.52.05-.78.05l-1.35-.01v-.11z"/><path fill="#bbfd71" d="M.46 48.77c.72.02 1.43.02 2.15 0v.37H.46v-.37zM21.18 48.79c.59 0 1.18.02 1.77-.02v.82h-2.07l.02-.22h-.04c-.9-.03-1.82 0-2.73 0-1.08 0-2.16-.02-3.23 0V49.59h-2.06v-.34c.8 0 1.6.04 2.4-.05h5.27c.8.09 1.6.05 2.4.05v-.12H12.84v-.33c2.78-.02 5.56 0 8.34-.01z"/><path fill="#58895e" d="M36.42 48.75c.09.1.17.2.19.34.05.36 0 .74.02 1.1 0 .28.03.55-.04.82-.02.1-.15.09-.22.13-.02-.42 0-.85-.01-1.28 0-.37-.03-.75.06-1.11z"/><path fill="#bbfd71" d="M37.22 48.77c.23.06.48.05.72.05l1.47-.01v.34h-2.19v-.38zM47.65 48.82c.26 0 .53.01.78-.05v.38H46.3v-.34h1.35zM78.71 48.8c.9-.02 1.8-.02 2.7 0l-.02.33c-.28.02-.55.03-.82.02-.62-.03-1.24-.02-1.86-.01v-.34zM89.61 48.8h.5v.33h-.5v-.33z"/><path fill="#f1fee3" d="M32.04 48.88c.14-.03.17.15.23.24l.47.01.11-.29.08.29h3.3v.12l-3.33.01v.32c1.01.03 2.03 0 3.04.01.13 0 .25.02.37.04-.09.01-.16.09-.25.09-1.07.02-2.13-.03-3.2.02.1.06.22.08.36.08h1.95c.1-.02.18.05.27.09-.55.07-1.1.02-1.66.03-.3 0-.62.03-.92-.02a1.8 1.8 0 0 1-.15-.2l-.49-.01v.37h3v.23c-1.08.03-2.16.02-3.24 0v-.6c-2.77 0-5.54.02-8.3 0v-.12h8.28v-.33h-8.28v-.13h4.38c1.28 0 2.56.02 3.84-.01l.14-.24m.17.38v.33h.57v-.33h-.57z"/><path fill="#2f4a36" d="M125.64 48.85l.17.08c-.3.48-.8.96-1.42.88l-.09-.06a2.23 2.23 0 0 0 1.2-.69l.14-.21z"/><path fill="#f1fee3" d="M.46 49.14h2.15v.11H.46v-.11zM12.84 49.14H22.9v.11c-.8 0-1.6.04-2.4-.05h-5.27c-.8.1-1.6.05-2.4.05v-.11zM37.22 49.15h2.19v.12c-.73.01-1.46.02-2.19 0v-.12zM46.3 49.14c.7.02 1.42.01 2.12 0v.16c-.7-.02-1.41-.02-2.12 0v-.16zM50.89 49.16c.6-.06 1.2-.01 1.81-.03h5.22c.89 0 1.78-.01 2.67.01l-.07.11H51.7c-.27 0-.56.05-.81-.1zM71.13 49.14c.64 0 1.28-.05 1.92.03a.93.93 0 0 1-.42.1c-.5-.02-1-.01-1.5-.02v-.11zM101.54 49.14c.62 0 1.25-.05 1.87.03a.92.92 0 0 1-.42.1c-.48-.02-.97-.01-1.45-.02v-.11z"/><path fill="#bbfd71" d="M.46 49.25H2.6l.03.34c-.72 0-1.44-.02-2.15.02H.45v-.05-.3zM23.68 49.25h8.28v.33c-2.76.02-5.52 0-8.28.01v-.34zM32.21 49.26h.57v.33h-.57v-.33zM37.22 49.27c.73.02 1.46.01 2.19 0v.36c-.73 0-1.46-.03-2.2.02l.01-.38zM89.61 49.25h.5v.33l-.5.01v-.34z"/><path fill="#58895e" d="M91.87 49.27c.16.07.34.11.52.1 2.16.02 4.33 0 6.5.02-.4.16-.82.1-1.23.1h-4.94c-.12 0-.23.05-.34.07l.08.23c.25.07.5.04.76.05h6.55c.31 0 .66-.06.94.13-.33.04-.67.02-1 .03h-6.66c-.4 0-.8-.04-1.19.07v-.8z"/><path fill="#2f4a36" d="M127.39 49.33l.12-.1c.36.47.99.6 1.56.63h2.34v.06c-.32.2-.71.11-1.06.13-.78-.03-1.58.1-2.32-.2-.27-.09-.47-.3-.64-.52z"/><path fill="#bbfd71" d="M46.3 49.3c.7-.02 1.42-.02 2.13 0v.35c-.7-.05-1.42-.02-2.13-.02v-.33z"/><path fill="#2f4a36" d="M14.9 49.37c1.07-.02 2.15 0 3.23 0 .9 0 1.82-.03 2.73 0-.11.1-.24.2-.4.18H15.8c-.3 0-.63.05-.9-.13z"/><path fill="#58895e" d="M20.86 49.38h.04l-.02.2v3.06l-.23.04a2.64 2.64 0 0 1-.06-.48v-2c.03-.3-.21-.6-.52-.58h-4.33c-.17 0-.38 0-.49.14-.1.14-.08.33-.09.5v3.38c.02.31-.14.59-.3.85l-1.16 1.9c-.17.26-.3.57-.56.75.1-.23.23-.43.36-.64.52-.83 1.04-1.67 1.54-2.51l-.14-.15c.02-.3 0-.58 0-.88v-.15-.3-.14-2.66a8.08 8.08 0 0 1 0-.29c.27.18.6.13.9.13h4.66c.16.02.29-.08.4-.17zM80.73 49.38h.04c.11.1.24.2.4.17h4.67c.3 0 .62.05.89-.13v3l-.01.18a.7.7 0 0 0-.19-.05c-.1-.33-.04-.68-.05-1.02 0-.5.02-.99 0-1.48-.01-.27-.29-.44-.53-.43h-4.33c-.16 0-.34 0-.45.13-.15.15-.13.37-.14.56l.01 3.16c0 .26-.05.52-.18.75-.5.84-1.02 1.67-1.53 2.51-.1.16-.21.3-.36.42.16-.35.39-.65.58-.98l1.36-2.2-.17-.09c.04-.7 0-1.42.01-2.13 0-.8.03-1.58-.02-2.37z"/><path fill="#2f4a36" d="M80.77 49.38c.43-.03.86-.01 1.3-.02h4.66v.06c-.27.18-.6.13-.9.13h-4.66c-.16.02-.29-.08-.4-.17zM137.09 49.6l.33-.28c.04.06.13.15.04.21-.33.38-.86.5-1.34.52h-1.67c-.27 0-.59.06-.8-.17.72-.04 1.43 0 2.14-.02.4.01.8-.03 1.17-.2l.13-.06z"/><path fill="#d5fda9" d="M111.95 49.56l.13-.02.06.3-.2.08.01-.36z"/><path fill="#bbfd71" d="M112.33 49.6c.14-.03.3-.04.45-.06l-.02.37-.42-.03-.01-.29z"/><path fill="#f1fee3" d="M.49 49.6c.71-.03 1.43 0 2.15 0v.1c-.69.02-1.38.03-2.06 0l-.09-.1zM12.84 49.6l2.07-.01v.12c-.7.02-1.38.01-2.08 0v-.12zM20.88 49.59h2.07v.12c-.69.02-1.38.01-2.07 0v-.12zM58.1 49.59h1.43c.36 0 .73-.03 1.1.04-.12.02-.2.1-.32.09h-1.5c-.23 0-.48.03-.7-.08zM71.13 49.6c.64.01 1.28-.05 1.92.03-.25.14-.54.08-.81.09l-1.11-.01v-.12zM78.7 49.59c.6.02 1.2-.04 1.79.04-.1.02-.2.1-.3.09l-1.48-.01v-.12zM86.72 49.59h1.72v.12c-.57.01-1.14.02-1.72 0v-.12zM101.54 49.6c.62.01 1.25-.05 1.87.03-.25.14-.54.08-.81.09l-1.06-.01v-.12z"/><path fill="#58895e" d="M114.82 49.6h.04c-.04.95-.01 1.91-.02 2.87l-.2-.02a2.46 2.46 0 0 1-.07-.53v-1.56c.01-.17-.03-.37-.2-.45-.16-.05-.32-.07-.47-.12.23-.03.46 0 .68-.03.1 0 .16-.1.24-.16z"/><path fill="#f1fee3" d="M37.22 49.65c.73-.05 1.46-.02 2.19-.02v.12h-1.47c-.24 0-.49.02-.72-.04zM46.3 49.63c.7 0 1.42-.03 2.13.02v.06c-.25.06-.52.05-.78.05H46.3v-.13z"/><path fill="#58895e" d="M117.41 49.65c.23.16.52.12.78.12h2.84c.1 0 .22-.01.28.08.58.68 1.17 1.34 1.77 2 .16.18.31.36.44.56-.61-.54-1.08-1.2-1.65-1.79-.22-.22-.4-.48-.67-.66-.25-.16-.56-.12-.84-.12h-2.17c-.19 0-.43.05-.48.26-.08.32-.03.66-.04.98-.01.46.04.91-.05 1.36-.07 0-.14.02-.2.03v-2.82z"/><path fill="#bbfd71" d="M.58 49.7c.68.03 1.37.02 2.06 0v.6c.61-.04 1.22-.02 1.83-.02 2.43-.01 4.85.01 7.28-.01h.04v.02l-.08.28a13.5 13.5 0 0 0-1.13 0H6.42c-.27.02-.54-.03-.78-.15a.67.67 0 0 0-.2.42h4.14c.46 0 .91-.02 1.37.03l.04.88.11-.05.02-.85h.59v1.79H3.47L3 52.63c-.1-.03-.14-.13-.2-.2-.73-.91-1.49-1.8-2.21-2.72m1.62 1.78l.07.23c2.8.02 5.59 0 8.38 0-.01-.07.04-.17-.03-.22-.21-.05-.43-.04-.65-.04-.63.01-1.26 0-1.89.02-1.8-.02-3.59-.01-5.38-.02-.17 0-.34.02-.5.03m.79.88v.04h7.81c.28 0 .56 0 .84-.02-.32-.03-.63-.01-.95-.01h-7.7zM12.83 49.7c.7.02 1.39.03 2.08 0v2.67h-2.07V49.7m.27.8c-.02.4-.02.8 0 1.2l.12.03v-1.26l-.12.03m.72 0c-.02.4-.02.8 0 1.2l.12.03v-1.26l-.12.03m.72 0c-.01.34-.02.68-.01 1.02 0 .1.05.17.08.25.1-.43.04-.87.05-1.3l-.12.03zM20.88 49.7c.69.02 1.38.03 2.07 0v2.66c-.68-.09-1.38 0-2.07-.05v-2.6m.1.78v1.04c-.01.1.04.17.08.25.1-.43.03-.86.04-1.3h-.12m.72 0c0 .44-.06.87.04 1.3.04-.08.09-.16.08-.25V50.5h-.12m.72 0c0 .42-.06.86.04 1.29.04-.08.1-.16.09-.25l-.01-1.02-.12-.03zM37.22 49.7c.23.07.48.06.72.06l1.47-.01-.01.7c.17-.07.35-.13.53-.12H45c.43 0 .88-.04 1.3.07v-.65h1.36c.26 0 .53.02.78-.04 0 .24 0 .48-.04.71-.26.16-.47.4-.7.59-.56.5-1.13.99-1.67 1.5-.13.12-.3.2-.47.18-2.78 0-5.56.02-8.33 0v-.22c2.63.02 5.25 0 7.88.01.28 0 .57.05.83-.1-.37-.06-.74-.04-1.1-.04h-4.28c-1.11 0-2.22-.02-3.33.01v-2.64m.19.78v1.19h.14c.03-.4.04-.8 0-1.19h-.14m.73.02c0 .34-.02.68-.01 1.02 0 .09.05.16.08.25.13-.42.07-.87.05-1.3l-.12.03m.72 0c-.01.34-.02.68-.01 1.02 0 .1.05.17.08.24.1-.42.04-.86.05-1.29l-.12.03m5.01-.03c-.04.4-.02.82-.02 1.23l.14.03c.05-.41.02-.82.02-1.23l-.14-.03m.7.03v1.02c0 .1.05.16.08.25.1-.43.04-.87.04-1.3l-.12.03m.72-.02v.7c0 .2-.04.41.08.58.1-.42.04-.85.04-1.28h-.12m.72 0v.7c0 .2-.03.41.08.58.1-.42.04-.85.04-1.28h-.12m.72 0v.66c.17-.18.13-.44.13-.66h-.13m-7.16.05v1c0 .08.05.15.08.23.1-.4.03-.82.05-1.23h-.13m.69-.03v1.21c.06 0 .13.01.18-.04.04-.38.01-.78 0-1.17h-.18m.75.02c0 .42-.05.84.05 1.25.03-.09.08-.16.08-.25v-1H41m.72 0c0 .42-.06.84.05 1.25.03-.09.08-.16.08-.25v-.99h-.13m.7-.01c-.04.4-.04.8 0 1.2l.14-.02.01-1.17-.15-.01m.7.39c.01.27-.03.56.08.82.12-.26.07-.55.08-.82 0-.16-.02-.3-.08-.45-.05.14-.08.3-.07.45zM89.61 49.7l.49.02c0 .4.02.8.07 1.2-.21-.18-.4-.38-.57-.59l.01-.62z"/><path fill="#58895e" d="M100.7 49.97c.07.07.15.14.16.24.07.33.03.66.04.98-.01.34.02.67-.02 1 0 .13-.13.18-.22.25v-1.02c0-.49-.05-.97.05-1.45z"/><path fill="#d5fda9" d="M111.94 50.01l.18.1-.02.25h-.17l.01-.35z"/><path fill="#bbfd71" d="M112.35 50.07l.35-.05a5.4 5.4 0 0 1-.38.34l.03-.3z"/><path fill="#f1fee3" d="M131.4 50.08h2.24v.12h-2.24v-.12z"/><path fill="#58895e" d="M112.17 50.77c.21-.2.43-.41.69-.58-.26.32-.59.56-.88.84l-1.17 1.05c-.16.14-.33.27-.5.38.23-.27.5-.48.77-.72l1.09-.97z"/><path fill="#bbfd71" d="M131.4 50.2h2.24v.34h-2.24v-.34z"/><path fill="#58895e" d="M11.78 50.3c.09.08.2.16.2.3.04.29.01.58.02.87-.01.4.03.82-.06 1.21l-.23-.04a66.27 66.27 0 0 0 0-2.07l.07-.28zM49.27 50.6c.01-.12.08-.21.16-.3.04.2.06.41.06.62v1.73l-.21-.03c-.05-.34-.05-.69-.04-1.04 0-.33-.03-.66.03-.99z"/><path fill="#f1fee3" d="M5.64 50.42c.24.12.5.17.78.15h4.16c.38-.02.75-.02 1.13 0v.28h-.59l-.02.85-.11.05c0-.3-.02-.59-.04-.88-.46-.05-.91-.02-1.37-.03H5.45c0-.16.08-.3.19-.42zM13.1 50.51l.13-.03v1.26l-.12-.03c-.02-.4-.02-.8 0-1.2zM13.83 50.51l.12-.03v1.26l-.12-.03c-.02-.4-.02-.8 0-1.2zM14.55 50.5l.12-.02c-.01.43.06.87-.05 1.3-.03-.08-.09-.16-.08-.25v-1.02zM20.98 50.49h.12c0 .43.06.86-.04 1.29-.04-.08-.1-.16-.09-.25V50.5zM21.7 50.49h.12v1.04c.01.1-.04.17-.08.25-.1-.43-.03-.86-.04-1.3zM22.42 50.48l.12.03v1.02c.01.1-.04.17-.08.25-.1-.43-.03-.87-.04-1.3zM23.86 50.49c.2 0 .1.3.13.44l-.16-.06a.57.57 0 0 1 .03-.38zM24.56 50.48l.14.03c0 .12.01.24-.01.36l-.16.06a8 8 0 0 1 .03-.45zM25.26 50.6c0-.07.08-.1.12-.14.08.42.06.85.02 1.28l-.14-.03c0-.37-.02-.74 0-1.11zM25.98 50.5l.12-.02c.02.42.02.84 0 1.26l-.12-.03v-1.2zM26.7 50.5l.12-.02c0 .43.06.87-.04 1.3-.04-.08-.1-.16-.09-.25l.01-1.02z"/><path fill="#d5fda9" d="M27.39 50.48h.18l.01.45h-.2v-.45z"/><path fill="#f1fee3" d="M28.13 50.49h.13v.41h-.13v-.41zM28.85 50.49h.13v.41h-.13v-.41zM29.57 50.49l.13.02.01.4-.16-.01c0-.14 0-.28.02-.41zM30.25 50.5h.16l.02.4-.16.01-.02-.4zM31 50.48l.14.03v.38l-.18.02.03-.43zM31.74 50.5c.14-.05.11.16.13.25.03.12-.1.15-.18.18.01-.15-.03-.31.05-.44zM32.42 50.5l.12-.02v.43h-.14l.02-.4zM33.13 50.49h.13v1.04c0 .1-.05.16-.08.24-.1-.42-.03-.85-.05-1.28zM33.85 50.49h.13v1.04c0 .1-.05.17-.08.25-.1-.43-.04-.86-.05-1.3zM34.57 50.49h.13c-.01.43.04.86-.04 1.28-.05-.07-.1-.15-.1-.24l.01-1.04zM35.3 50.49h.12v.41h-.13v-.41zM36.01 50.49h.09c.06.13.04.28.05.42l-.19-.03c.01-.13 0-.27.05-.4zM37.4 50.49h.14c.05.4.04.8.01 1.2l-.14-.01v-1.2zM38.14 50.5l.12-.02c.02.43.08.88-.05 1.3-.03-.09-.08-.16-.08-.25v-1.02zM38.86 50.5l.12-.02c-.01.43.05.87-.05 1.3-.03-.08-.09-.16-.08-.25v-1.02zM43.87 50.48l.14.03c0 .4.03.82-.02 1.23a11 11 0 0 1-.14-.03c0-.4-.02-.82.02-1.23zM44.57 50.5l.12-.02c0 .43.06.87-.04 1.3-.03-.09-.09-.16-.08-.25v-1.02zM45.29 50.49h.12c0 .43.06.86-.04 1.28-.12-.17-.08-.38-.09-.58v-.7zM46 50.49h.13c0 .43.06.86-.04 1.28-.11-.17-.08-.38-.09-.58v-.7zM46.73 50.49h.13c0 .22.04.48-.12.66a5.6 5.6 0 0 1-.01-.66zM39.57 50.54h.13c-.02.4.05.83-.05 1.23-.03-.08-.09-.15-.08-.24v-1z"/><path fill="#d5fda9" d="M40.26 50.51h.19c0 .4.03.79-.01 1.17-.05.05-.12.04-.18.04v-1.2z"/><path fill="#f1fee3" d="M41 50.53h.14v1c0 .1-.05.16-.08.25-.1-.41-.04-.83-.05-1.25zM41.73 50.53l.13.01v1c0 .08-.05.15-.08.24-.1-.41-.04-.83-.05-1.25zM42.43 50.53l.15.01-.01 1.17-.13.03c-.05-.4-.05-.81-.01-1.21zM43.14 50.92c-.01-.16.02-.3.07-.45.06.14.09.3.08.45 0 .27.04.56-.08.82-.1-.26-.07-.55-.07-.82zM131.4 50.54h2.24v.11c-.74.02-1.5.02-2.24 0v-.11z"/><path fill="#58895e" d="M48 51c.16-.15.3-.3.49-.42-.12.25-.36.39-.55.57l-1.26 1.12c-.23.2-.44.42-.7.58.2-.28.48-.48.73-.71l1.3-1.15z"/><path fill="#bbfd71" d="M131.4 50.65c.75.02 1.5.02 2.24 0v1.1c-.34.2-.71.36-1.06.56-.4-.2-.79-.37-1.18-.57v-1.09z"/><path fill="#58895e" d="M24.8 51.15h.04c-.03.39-.02.77-.02 1.16V52.64c-.07-.03-.18-.02-.2-.1-.11-.3-.02-.62-.1-.9-.1-.23-.38-.23-.58-.3.22-.02.45 0 .67-.03.07-.04.13-.1.2-.16zM27 51.15h.04c.12.1.24.2.4.18h4.67c.3 0 .63.05.9-.13-.02.38 0 .77 0 1.15l-.01.1v.18l-.2-.02c-.06-.27-.05-.54-.07-.8 0-.16-.08-.34-.25-.38-.25-.06-.5-.03-.76-.04H27.9c-.17 0-.34.04-.46.18-.15.15-.11.38-.12.57.02.22-.02.43-.08.64l-.2-.15v-.27c0-.4.02-.8-.02-1.2z"/><path fill="#2f4a36" d="M27.04 51.15c.43-.03.87 0 1.3-.01H33v.06c-.27.18-.6.12-.9.13h-4.66c-.17.02-.3-.08-.4-.18z"/><path fill="#f1fee3" d="M105.59 51.14h3.23v.16h-3.22l-.01-.16z"/><path fill="#58895e" d="M35.22 51.2c.25.18.56.12.84.14-.19.07-.49.07-.55.31-.06.32-.02.64-.09.96l-.2.02V51.2z"/><path fill="#f1fee3" d="M2.2 51.49c.16-.01.33-.03.5-.03 1.8.01 3.59 0 5.38.02.63-.03 1.26 0 1.89-.02.22 0 .44-.01.65.04.07.05.02.15.03.23H2.27l-.07-.24zM86.73 51.46l.14.05v.85h.57l.02-.88.12.03.02.85h.55c0-.31 0-.62.05-.92.05.08.11.15.1.25 0 .25 0 .5.1.74-.55-.03-1.12-.01-1.68-.01v-.96zM94.6 51.56c0-.07.03-.1.1-.08.1.22.03.47.05.7h-.18c0-.2-.02-.42.02-.62zM95.32 51.47l.14.04v.67h-.16c-.01-.24 0-.47.02-.7zM96.04 51.47l.14.04.01.67h-.17c-.01-.24 0-.47.02-.7zM97.45 51.49h.14v.41h-.13v-.41zM98.17 51.49h.14v.41h-.14v-.41zM98.9 51.49h.12v.69h-.13v-.7zM99.62 51.49h.12v.7h-.13v-.7zM101.73 51.64c0-.07.03-.2.13-.15.08.11.03.26.05.39l-.15.03a2.69 2.69 0 0 1-.03-.27zM102.45 51.48l.15.01-.01.4-.14.01v-.42zM103.17 51.49h.14v.41h-.14v-.41zM103.9 51.49h.13v.41h-.14v-.41zM104.61 51.49h.13v.41h-.13v-.41zM105.33 51.49h.13v.41h-.13v-.41zM106.05 51.49h.13v.41h-.13v-.41zM106.77 51.48h.09c.08.2.04.43.04.64h-.17c0-.2-.04-.44.04-.64zM107.5 51.48h.08c.08.2.03.43.04.64h-.17c0-.21-.04-.44.04-.64zM108.2 51.45c.06.04.14.07.14.15v.52h-.17c0-.22 0-.45.04-.67zM108.88 51.49h.14v.42l-.12-.03-.02-.4zM109.6 51.49h.14v.41h-.13v-.41zM115.33 51.49h.13l-.01.62c-.2-.14-.1-.42-.12-.62zM116.05 51.49h.13v.75h-.13v-.75zM116.77 51.49h.13v.75h-.13v-.75z"/><path fill="#d5fda9" d="M20.88 52.31c.7.05 1.39-.04 2.07.05v.06c-.68.08-1.38 0-2.07.04v-.15zM24.82 52.31c.74.05 1.48-.04 2.2.05l.01.06c-.73.08-1.47 0-2.2.04v-.15z"/><path fill="#f1fee3" d="M2.99 52.37h7.7c.32 0 .63 0 .95.02-.28.03-.56.02-.84.01H3zM12.84 52.37h2.06v.14h-2.06v-.14z"/><path fill="#d5fda9" d="M33 52.35c.48-.02.96 0 1.44-.01.23 0 .46 0 .7.04-.36.11-.73.07-1.09.07H33v-.1zM37.22 52.35c1.1-.03 2.22 0 3.33-.01h4.27c.37 0 .74-.02 1.1.04-.25.15-.54.1-.82.1h-7.88v-.13z"/><path fill="#f1fee3" d="M49.48 52.36h7.16c.54.02 1.07-.03 1.6.03a1.5 1.5 0 0 1-.37.08h-8.39v-.1zM71.13 52.36c.64.03 1.28-.04 1.91.04-.19.04-.38.06-.58.06h-1.33v-.1zM78.7 52.36h1.7v.13h-1.7v-.13z"/><path fill="#bbfd71" d="M20.88 52.46c.7-.04 1.39.04 2.08-.04v.21h-2.08v-.17zM24.82 52.46c.74-.04 1.48.04 2.21-.04v.2c-.73.03-1.47 0-2.2.02v-.18zM12.84 52.51h2.06v.3c-.69.02-1.38.02-2.06 0v-.3z"/><path fill="#58895e" d="M101.54 52.56c1.3-.04 2.6 0 3.89-.02 1.55.01 3.11-.01 4.67.01-.33.1-.67.06-1 .06h-6.56c-.33 0-.68.03-1-.05zM91.6 52.6h4.78c1.43 0 2.86-.02 4.28.01-.31.08-.63.06-.95.06h-7.1c-.34 0-.68.03-1-.06zM3.04 52.82h7.7l.96.01c-.1.06-.22.12-.34.11H3.11l-.07-.12z"/><path fill="#f1fee3" d="M12.84 52.81c.68.02 1.37.02 2.06 0v.15h-2.06v-.15z"/><path fill="#58895e" d="M20.79 52.83h2.23c-.47.18-.97.1-1.45.11-.27.02-.54 0-.78-.1zM24.73 52.83h2.4c-.4.18-.83.1-1.23.11-.4-.01-.8.07-1.17-.1zM32.94 52.84c.78-.02 1.56-.02 2.34 0-.45.16-.93.09-1.4.1-.31.01-.64 0-.94-.1zM71.12 52.84c.71-.02 1.42-.03 2.13 0-.28.13-.6.1-.9.1-.41 0-.84.05-1.23-.1zM37.32 52.9c.17-.02.34-.02.5-.02h8.06c-.35.1-.7.07-1.06.07h-6.66c-.28 0-.57.03-.84-.05z"/><path fill="#f1fee3" d="M78.7 52.85c.33-.02.65-.01.98-.02.27.01.56-.04.81.1-.59.08-1.19.01-1.78.03v-.11z"/><path fill="#bbfd71" d="M12.84 52.96h2.06c0 .3.02.59 0 .88-.25.5-.57.95-.85 1.44-.4.62-.77 1.27-1.18 1.88-.06-.38-.04-.76-.04-1.14v-3.06z"/></svg>