<?xml version="1.0" encoding="UTF-8"?>
<!DOCTYPE svg  PUBLIC '-//W3C//DTD SVG 1.1//EN'  'http://www.w3.org/Graphics/SVG/1.1/DTD/svg11.dtd'>
<svg width="1280pt" height="1130pt" version="1.1" viewBox="0 0 1280 1130" xmlns="http://www.w3.org/2000/svg">
<g fill="#fff">
<path d="m803.19 0h21.38c3.02 30.04 6.06 60.07 9.09 90.11 0.54 3.16-1.47 5.9-3.13 8.38-12.69 17.72-28.63 32.67-43.45 48.55-16.93 18.05-34.64 35.4-50.49 54.44-4.37 5.17-5.77 12.02-7.24 18.44-3.14 18.08-6.8 36.08-9.58 54.22 0.12 5.43-3.39 12.38 1.56 16.57 4.16 3.18 8.46 6.83 13.78 7.72 8.59-25.89 16.83-51.89 25.27-77.82 1.09-3.02 1.61-6.41 3.69-8.95 2.55-0.75 4.87 0.8 6.91 2.14-5.62 22.7-12.25 45.16-18.25 67.77-2.16 8.36-4.6 18.61 1.76 25.79 3.87-4.13 4.54-10.07 7.27-14.88 8.01-14.68 18.49-27.8 28.73-40.95 6.27-8.38 13.28-16.15 19.81-24.31 2.73-3.73 8.01-2.54 11.33-0.31-2.91 6.6-7.59 12.17-11.4 18.24-10.46 15.78-20.46 31.9-29.19 48.71-3.49 6.46-8.08 12.78-8.85 20.27 0.75 3.38 1.52 7.19 4.17 9.64 1.46 1.52 3.29 0.17 4.5-0.93 22.34-20.32 44.66-40.67 67.01-60.97 6.4-5.05 8.87-13.18 13.16-19.81 1.96-2.23 5.16-0.61 6.98 0.99-3.99 22.99-8.07 45.96-11.96 68.97-0.94 6.29-2.86 12.58-1.76 18.99-0.09 5.29 2.87 9.85 5.56 14.17 6.52 8.71 14.53 16.12 22 23.99 3.81 3.54 7.11 8.17 12.14 10.02 9.63 0.25 18.73-3.94 27.4-7.7 14.34-8.27 24.5-21.77 34.77-34.4 3.87-4.91 9.07-9.08 11.01-15.24-2.16-1.42-4.64-2.2-7.22-2.2-11.65-0.19-22.82-3.98-34.29-5.6 0.71-16.88 1.46-33.75 2.13-50.62 6.35-2.99 12.85-5.64 19.38-8.21 1.83-0.81 3.86-0.56 5.8-0.29 30.43 4.81 60.83 9.79 91.28 14.47 2.1-19.16 0.43-38.53-3.16-57.4-2.81-12.12-8.23-23.43-13.25-34.74-3.39-8.62-9.95-15.35-15.25-22.78-8.63-11.98-19.99-22.08-26.38-35.58-7.52-16.56-9.92-34.94-10.52-52.96-0.29-21.99 0.14-43.97 1.14-65.93l-0.8-0.01h27.1c0.01 30.27-2.85 60.75 1.54 90.86 1.51 7.21 3.86 14.22 6.35 21.15 1 2.96 2.96 5.43 5 7.76 9.02-6.61 17.31-14.24 26.66-20.39 19.32 6.64 38.54 13.59 57.74 20.57-6.52 7.31-13.85 13.84-20.7 20.84-10.2 10.1-20.48 20.14-30.64 30.29-3.1 3.12-1.63 7.88-1.4 11.75 3.04 24.49 8.02 48.69 11.9 73.05 1.19 5.49 1.3 11.26 3.4 16.51 37.02 5.8 74.01 11.86 111.01 17.75-11.84 19.5-23.69 39-35.56 58.49-26.64-4.17-53.28-8.36-79.92-12.5-13.02 10.57-26.82 20.13-40.29 30.11-12.21 8.43-24.52 16.72-36.78 25.1-8.27 6.05-17.36 10.77-26.19 15.91-2.37 1.25-5.3 2.92-7.89 1.3-6.72-4.02-10.79-11.09-14.27-17.86-0.91-2.43-3.76-1.39-5.6-0.87-5.9 2.07-11.91 3.8-17.92 5.49-4.04 1-8.28 2.02-12.44 1.23-3.75-0.97-6.74-3.6-9.72-5.92-16.17-13.36-32.42-26.63-48.47-40.13-30.22 26.58-60.39 53.21-90.62 79.76-23.32-4.86-46.65-9.64-69.97-14.49 29.24-26.53 58.47-53.09 87.71-79.63-1.19-3.1-4.27-4.58-6.8-6.4-7.61-5.06-15.27-10.05-22.99-14.94-8.09-3.79-17.74-5.07-24.31-11.63-6.96-5.44-8.03-14.78-10.69-22.61-35.1-5.78-70.19-11.58-105.29-17.37 12.98-16.1 25.98-32.18 38.97-48.27 21.51 2.63 43.03 5.19 64.53 7.86 1.5 0.1 3.07 0.56 4.57 0.08 1.14-2.05 1.18-4.46 1.54-6.72 0.59-4.96 2.41-9.64 4.02-14.33 2.46-7.73 8.45-13.57 14.14-19.05 15.15-12.57 31.27-23.98 45.8-37.3 6.06-5.55 12.69-10.53 17.86-16.99 8.13-8.57 14.58-18.6 19.79-29.18 6.68-11.78 10.64-25.74 7.87-39.26-3.93-20.01-7.73-40.06-11.88-60.02m172.97 328.16c-8.3 9.56-17.02 19.03-22.66 30.48-1.22 2.66-3.41 5.53-2.53 8.56l1.05 0.39c5.53-1.66 10.15-5.67 15.75-7.26 7.87-1.41 17.04-1.14 23.2 4.65 2 1.38 4.15 4.92 6.89 3.12 12.68-9.94 24.96-21.2 32.12-35.91-0.9-0.67-1.91-1.07-3-1.2-14.03-2.27-28.06-4.53-42.08-6.83-3.45-0.83-6.48 1.72-8.74 4m-26.22 50.76c-0.25 6-0.23 12.78 3.8 17.67 7.99-2.46 14.32-8.2 21.4-12.41 2.72-2.15 6.84-3.49 7.63-7.26-4.89-4.84-11.72-8.02-18.71-7.05-5.61 0.56-12.55 2.98-14.12 9.05z"/>
<path d="m3.75 112.92c81.36 0.13 162.73 0.06 244.09 0.08 0.02 39.59-0.47 79.18-0.22 118.76 5.32-4.65 12.06-7.26 19.06-7.96 10.76-1.15 21.74-1.44 32.44 0.36 7.7 1.32 15.76 4.8 19.71 11.94 4.39 8.22 6.14 17.66 6.3 26.91 0.87 65.68 1.79 131.35 2.65 197.02-0.19 9.99 3.66 20.3 11.5 26.74 4.72 4.33 11.01 5.87 16.81 8.14-1.22 0.8-2.75 0.55-4.13 0.61-28.12-0.19-56.24-0.15-84.36-0.36-1.62-3.53-3.4-7.18-3.42-11.15-0.2-55.63-0.5-111.26-0.71-166.89-0.3-10.58 0.54-21.24-1.04-31.75-0.73-5.03-7.73-6.25-10.96-2.88-2.41 2.51-2.79 6.2-2.81 9.52 0.41 61.31 0.77 122.62 1.2 183.93 0.47 7.71 5.22 14.47 11.12 19.15-82.76 0.26-165.52-0.12-248.29 0-0.16-0.45-0.47-1.37-0.63-1.82 9.07-1.02 18.4-1.61 26.92-5.21 10.16-4.1 17.88-12.72 22.83-22.3 4.75-8.81 4.77-19.06 6.09-28.73-0.45-86.32-0.89-172.65-1.37-258.97 0.03-2.91-3.42-3.16-5.56-2.88-6.45 0.69-13.15 0.87-19.15 3.59-7.9 3.51-15.06 8.82-20.46 15.58-7.13 10.03-11.54 21.74-14.48 33.61-2.3 14.35-1.28 28.98-2.64 43.41-0.68-2.39-0.47-4.9-0.5-7.35 0.02-50.37 0-100.73 0.01-151.1m135.98 63.68c0.53 93.11 1.07 186.23 1.6 279.34 0.03 6.37-0.38 12.98 2.05 19.02 3.23 9.03 11.69 16.58 21.58 16.72 6.52 0.36 12.54-3.73 15.73-9.23 5.28-8.82 6.01-19.46 5.81-29.5 0.12-41.31-0.2-82.62-0.54-123.92-0.51-37.7 0.03-75.42-1.62-113.1-0.49-8.18-1.07-16.75-5.17-24.05-4.12-6.89-10.81-12.13-18.27-15-5.07-2.07-10.64-1.22-15.96-1.38-1.81-0.12-3.55 0.44-5.21 1.1z"/>
<path d="m368.98 225.07c3.98-0.55 8.01-0.63 12.03-0.75 18.64-0.37 37.28-0.35 55.93-0.48 9.29 0.06 18.98 1.89 26.64 7.46 7.14 5.09 11.65 13.17 13.67 21.58 2.13 8.21 1.95 16.75 1.92 25.16 0.18 17.32 0.15 34.64 0.34 51.96-0.04 9.44-4.01 18.48-9.75 25.83-5.14 5.91-11.36 10.81-18 14.92-10.08 6.22-20.19 12.41-30.27 18.63-8.17 5.07-15.28 12.66-17.85 22.11-1.62 5.93-1.06 12.9 3.19 17.64 4.78 5.37 12.23 7.22 19.15 7.66 12.64 0.7 26.31-2.08 35.74-11.06 9.58-8.95 13.68-22.12 15.31-34.79 1.03-6.5 0.4-13.21 2.19-19.59 0.32 25.85 0.29 51.72 0.53 77.58-0.11 6.41 0.58 12.99-1.49 19.19-2.9 9.64-10.32 17.42-19.11 22.05-9.8 5.25-21.07 7.21-32.1 7.06-15.34-0.29-30.69-0.51-46.03-0.79-13.89-0.22-27.45-7.39-35.47-18.73-4.92-6.87-7.76-15.25-7.8-23.71-0.13-61.99-0.27-123.98-0.42-185.97-0.01-12.72 4.68-25.81 14.36-34.35 4.92-4.2 10.74-7.83 17.29-8.61m33.07 60.08c-2.07 3.22-1.71 7.2-1.72 10.85 0.24 14.15 0.2 28.32 0.59 42.48 7.92-4.48 12.71-12.9 15.22-21.4 2.27-7.17 1.63-14.76 1.68-22.16-0.06-4.36-1.73-9.04-5.44-11.58-3.18-2.19-8.23-1.58-10.33 1.81z"/>
<path d="m615.33 506.12c0.01-77.84 0-155.68 0.01-233.53 2.41 0.4 4.84 0.79 7.27 1.14 0.15 78.35-0.02 156.7 0.09 235.05 7.05 3.83 13.66 9.47 16.65 17.11 2.71 7.38 4.39 15.23 4.11 23.12 0.01 15.04 0.89 30.11 0.33 45.14-20.82 12.52-41.57 25.16-62.37 37.7 0.02-19.63 0.24-39.27 0.27-58.91-0.1-2.97-0.23-6.07-1.58-8.77-1.48-3.29-6.26-4.06-8.98-1.94-2.01 2.01-1.96 5.12-2.05 7.77 0.04 32.42 0.12 64.83 0.26 97.25 5.34 0.02 10.68-0.04 16.02 0.04-0.05 21.78-0.02 43.57-0.02 65.35-5.14 0.54-10.48-0.59-15.46 0.97-0.04 48.46 1.17 96.9 1.73 145.36 0.41 12.67-0.75 25.8 3.77 37.92 2.95 8.35 8.89 15.63 16.66 19.95 2.79 1.59 5.99 2.6 8.25 5.02-53.09-0.21-106.18-0.37-159.26-0.75-5.53 0.18-6.91-5.86-8.31-9.98-2.83-0.27-4.68 2.27-6.87 3.63-4.22 3.42-9.58 4.82-14.65 6.46-7.52 2.4-15.45 0.73-23.16 1.19-9.62 0.42-19.8-1.86-27.07-8.49-7.77-7.16-12.88-17.26-13.76-27.82-1.18-12.68-0.68-25.43-0.92-38.15-0.37-54.99-0.73-109.98-1.11-164.97 0.04-8.47 2.63-17.09 8.11-23.66 5.8-7.11 14.54-11.38 23.53-12.72 6.03-1.02 12.16-0.45 18.24-0.44 7.17 0.11 14.52-0.55 21.48 1.56 3.42 0.93 6.28 3.21 9.76 4 0-14.23-0.06-28.46-0.31-42.69-0.66-15.51-4.84-32.44-17.41-42.67-10.29-8.59-24.29-9.9-37.17-9.47 15.77-10.18 32.02-19.6 47.99-29.47 23.38-14.12 46.58-28.55 70.08-42.47 0.93 134.68 1.63 269.36 2.5 404.04 0.28 7.86 1.04 16.03 4.6 23.16 0.82 1.68 3.03 4.22 4.92 2.32 2.14-2.2 2.9-5.36 3.22-8.32 1.25-13.35 0.41-26.77 0.48-40.16-0.7-93.34-1.41-186.68-2.53-280.02-0.06-15.68 0.23-31.35 0-47.03 0-13.85 4.28-28.11 13.76-38.45 7.98-8.91 19.69-14.22 31.62-14.62 14.63-0.37 29.26-0.62 43.89-0.95 7.81-0.31 15.63 0.32 23.39 1.2m-201.73 220.58c-3.15 2.4-3.67 6.71-3.72 10.4 0.26 41.95 0.65 83.91 0.89 125.87-0.06 3.68 0.78 7.47 2.74 10.62 2.6 2.95 7.5 1.26 9.52-1.57 3.83-5.14 4.33-11.89 4.39-18.08-0.18-36.98-0.29-73.96-0.54-110.94-0.36-4.63 0.6-9.73-1.99-13.89-2.21-3.78-7.72-4.83-11.29-2.41z"/>
<path d="m1155.5 330.47c2.25-4.27 4.89-8.34 7.31-12.52 0.01 115.47 0 230.93 0.01 346.39 5.55-3.22 11.09-6.47 16.64-9.7 0.23 11.57 0.04 23.14-0.12 34.71 2.08-4.07 5.46-7.25 7.71-11.21 4.06-6.72 11.15-11.52 19.02-12.34 7.55-0.85 16.38-0.71 22.24 4.85 5.74 5.82 6.44 14.56 6.66 22.3-0.26 16.35-0.75 32.69-1.1 49.04-0.47 9.17 0.12 18.43-1.21 27.54-1.35-4-0.82-8.35-1.73-12.45-1.46-7.48-2.43-15.3-6.11-22.08-4.2-7.03-13.53-8.6-21-7.23-7.95 1.32-15.73 7.7-15.98 16.21-0.1 27.68 0.14 55.36 0.05 83.04 0.31 26.29-0.27 52.59 0.5 78.88 0.29 10.6 5.51 21.43 14.7 27.08 8.58 4.89 18.32 7.07 27.84 9.34-28.99 0.06-57.97-0.18-86.96-0.16-18.72-0.3-37.47 0.24-56.17-0.46 8.62-3.24 18.15-6.22 24.06-13.76 4.56-5.68 8.69-12.43 8.87-19.91 0.29-64.02 0.65-128.04 0.93-192.05 0.14-4.86-1.15-9.73-3.55-13.94-1.89-3.6-6.38-3.87-9.34-6.17 15.53-9.06 31.05-18.14 46.61-27.16 0.04-110.25 0-220.5 0.02-330.76 0.03-2.49-0.16-5 0.1-7.48z"/>
<path d="m1073.9 343.07c2.43 0.38 4.88 0.77 7.33 1.16v325.54c9.15 2.95 18.54 8.11 22.84 17.15 4.62 9.77 3.47 20.84 4.59 31.3 0.17 13.26 0.02 26.52 0.07 39.79-0.05 11.49-2.77 23.43-9.96 32.63-3.93 5.22-9.61 8.6-14.74 12.49-9.18 6.75-18.39 13.48-27.57 20.24-7 5.21-13.67 11.3-17.74 19.14-5.11 9.74-3.86 21.37-1.37 31.68 0.6 4.01 4.43 6.09 7.6 7.95 5.2 2.84 11.32 1.97 16.99 2.58 9.81 1.05 19.33-3.85 26.11-10.65 5.7-5.68 8.63-13.33 11.47-20.69 3.45-8.91 4.2-18.51 5.68-27.87 1.06-6.73 1.98-13.49 3.3-20.18 0.92 9.86 0.42 19.8 0.67 29.69 0.15 15.98 0.29 31.95 0.42 47.93 0.35 10.6-1.14 21.19-3.34 31.53-3.8 8.96-9.77 17.55-18.71 22-9.37 6.02-20.75 6.98-31.59 7.27-13.34 0.23-26.71 0.71-40.04-0.1-9.36-0.45-18.09-4.28-26.33-8.43-5.17-3.75-9.73-8.9-11.46-15.17-3.6-10.6-4.53-21.91-4.31-33.04-0.2-58.33-0.37-116.67-0.58-175 0.19-9.32-0.48-18.66 0.34-27.95-0.01-92.96 0-185.92-0.01-278.88 2.44-1.68 4.88-3.36 7.33-5.03 0.01 92.16 0.02 184.33 0 276.49 8.1-5.15 17.48-8.5 27.12-8.9 11.97-0.4 23.96 0.08 35.95-0.07 9.98 0.34 19.99-0.4 29.94 0.55-0.01-108.38 0-216.77 0-325.15m-38.44 383.47c-1.7 4.95-0.73 10.3-0.98 15.43 0.23 12.24-0.54 24.51 0.2 36.73 6.45-6.83 13.55-14.04 15.44-23.61 1.9-7.23 1.02-14.71 1.05-22.08 0.09-3.76-1.47-8.03-5.16-9.58-3.57-1.41-8.93-0.91-10.55 3.11z"/>
<path d="m851.51 369.61c2.4 2.07 5.25 3.79 7.27 6.24 0.13 45.4 0.01 90.8 0.06 136.2 7.04-4.1 14.11-8.17 21.16-12.26-0.1 58.46-0.29 116.93-0.42 175.39 7.03-4.76 14.71-9.43 23.51-9.32 9.68 0.23 19.48-1.02 29.08 0.6 12.14 2.42 22.96 12.15 25.32 24.5 1.6 8.22 2.55 16.6 2.6 24.99 1.11 61.01 2.24 122.02 3.36 183.02 0.36 8.16 1.72 16.52 5.49 23.84 3.74 5.85 8.81 10.8 14.35 14.93 2.91 2.3 6.57 3.12 9.89 4.64-27.4 0.29-54.8 0.02-82.2 0.14-8.19 0.81-12.48-8.6-12.7-15.51-0.42-63.02-0.76-126.04-1.18-189.06-0.05-4.48-0.84-9.72-4.7-12.57-4.37-3.25-11.81 0.05-11.72 5.67-0.04 60.68 0.01 121.35-0.02 182.03-0.2 8.3 1.16 17.13 6.12 24.01 1.77 2.62 4.85 3.63 7.42 5.23-41.39 0.24-82.8 0.08-124.19 0.01-9.2-0.29-19.75-0.69-26.68-7.61-5.77-5.23-7.03-13.44-7.64-20.78-0.54-100.3-0.96-200.6-1.48-300.9-0.03-4.7-3.09-8.83-6.94-11.25-4.77-3.14-10.61-4.01-16.21-4.03 5.49-3.09 10.91-6.29 16.36-9.45-0.01-52.04 0-104.09 0-156.13 2.41 0.42 4.82 0.84 7.24 1.26 0.01 50.23 0.01 100.46 0 150.69 21.33-12.4 42.67-24.78 64.01-37.15 0.11 40.06 0.1 80.12 0.25 120.18 4.3-0.04 8.61 0.07 12.92 0.1 0.16 21.35-0.03 42.7 0.17 64.05-4.18 0.1-8.37 0.23-12.54 0.31-0.12 60.11-0.26 120.23-0.31 180.34-0.01 8.19 2.09 16.93 7.82 23.05 2.12 2.36 6.98 4.5 8.8 0.69 3.29-6.32 3.03-13.73 3.05-20.65-0.34-114.38-0.65-228.75-1.03-343.12-0.92-6.86 0.2-14.61-4.17-20.49-2.56-3.73-6.71-5.95-11.05-6.86 16.35-9.36 32.61-18.87 48.92-28.29 0.01-48.89-0.02-97.79 0.01-146.68z"/>
<path d="m26.06 518.07c10-8.98 23.58-13.27 36.91-13 80.01 0.38 160.01 0.94 240.02 1.38 16.48 0.31 32.99-0.23 49.45 0.63-3 2.18-6.24 4.01-9.39 5.96-34.33 21.01-68.69 42-103.01 63.03-1.76 1.31-4.01 0.98-6.05 1.04-40-0.32-79.99-0.62-119.98-0.94-8.01-0.04-16.04-0.29-24.04 0.36-4.11 0.37-8.65 1.86-10.73 5.72-2.43 4.46-2.46 9.72-2.58 14.68 0.31 88.38 0.7 176.75 0.98 265.13-0.29 4.51 0.92 9.07 3.25 12.93 3.41 4.96 10.9 6.24 15.81 2.79 5.72-3.85 7.71-11.2 7.64-17.76-0.21-51.34-0.37-102.67-0.58-154 0.04-6.82-0.84-13.65-2.54-20.25-1.46-5.18-3.56-10.6-8-13.95-3.74-3.03-8.5-4.21-12.71-6.37 41.29-0.06 82.6 0.14 123.89 0.39-4.09 2.67-9.11 3.51-13.02 6.52-7.99 5.43-12.03 15.2-12.09 24.66-0.14 60.33 0.06 120.65 0.04 180.98-0.08 22.76 0.26 45.52-0.4 68.26-2.02-4.08-4.83-8.54-9.7-9.36-8.75-1.69-17.82 0.02-26.06 3.14-5.9 1.77-12.06 2.51-18.18 2.98-27.69 0.75-55.4 0.35-83.08-0.62-3.36-0.2-6.76-0.5-9.99-1.52-17.33-6.27-31.27-22.74-31.92-41.57v-79.06c0.69-7.39 0.15-14.83 0.37-22.23 0.33-75.69 0.65-151.37 0.98-227.05 0.55-19.98 9.81-39.6 24.71-52.9z"/>
<path d="m198.67 677.49c6.5-8.17 17.31-11.28 27.38-11.55 19.97-0.06 39.94 0 59.92-0.02 9.25-0.25 18.98 0.3 27.26 4.88 6.85 3.63 11.85 10.1 14.55 17.28 3.56 9.17 4.29 19.14 4.37 28.89 0.16 25.67 0.47 51.35 0.6 77.02 0.03 1.21 0.22 2.41 0.54 3.61-1.06 3.34-0.24 6.91-0.4 10.36 0.02 28.35 0.13 56.69 0.12 85.03 0.01 8.01 0.83 16.37-2.28 23.97-3.63 9.58-12.07 16.62-21.47 20.21-10.22 4.12-21.4 4.37-32.26 4.16h-39c-6.37-0.06-12.88 0.46-19.06-1.41-10.05-2.84-19.69-9.52-23.64-19.49-3.19-8.09-4.41-16.84-4.62-25.48-0.25-60.96-0.44-121.92-0.68-182.88-0.14-11.9 0.95-24.91 8.67-34.58m58.78 48.12c-5.65 1.09-5.72 7.94-5.68 12.46-0.13 39.42 0.51 78.84 0.69 118.27 0.41 6.76-1.19 14.31 2.74 20.34 2.39 4.04 8.74 5.07 12.05 1.64 2.67-3.07 2.01-7.48 2.05-11.22-0.2-43.03-0.36-86.06-0.54-129.09-0.09-3.08 0.48-6.54-1.49-9.18-2.14-3.11-6.31-3.99-9.82-3.22z"/>
<path d="m598.42 677.36c8.17-7.56 19.73-10.09 30.57-10.11 20.34 0.06 40.68 0.14 61.03 0.28 13.37 0.41 25.07 10.36 29.68 22.59 2.74 6.6 2.44 13.86 3.02 20.85 0.11 64.33-0.08 128.65 0.1 192.98 0.45 7.01 0.87 14.2 3.37 20.84 3.12 6.2 8.93 10.78 11.49 17.27-19.23 0.04-38.47 0.02-57.7 0.02-5.43-0.08-9.91-3.94-12.83-8.2-1.18-2.09-3.35-0.28-4.47 0.82-7.51 7.4-18.89 7.08-28.68 7.05-9.59 0.57-19.65 0.09-28.42-4.23-13.63-7.96-22.04-23.84-21.49-39.55-0.31-21.96-0.26-43.93-0.27-65.89 0.74-11.01-0.72-22.42 3.07-33 4.74-14.12 16.03-25.19 28.97-32.08 9.55-4.91 19.17-9.69 28.76-14.53 4.25-2.18 8.91-4.13 11.9-8.03 4.79-6.07 2.94-16.2-3.89-19.96-5.64-3.37-12.4-1.8-18.6-1.98-12.43-0.45-24.35 5.93-32.25 15.28-5.36 6.06-8.27 13.74-11 21.23-0.9-20.32-0.36-40.67-0.63-61-0.42-7.66 2.54-15.48 8.27-20.65m49.86 143.54c-1.19 7.34-3.87 14.56-3.26 22.09 0.2 8.36 0.3 16.72 0.52 25.08 0.16 3.58 0.66 7.49 3.12 10.29 2.42 2.71 7.18 2.58 9.49-0.21 2.41-2.79 2.5-6.68 2.45-10.16-0.13-22.23-0.16-44.46-0.41-66.69-6.17 4.83-9.76 12.23-11.91 19.6z"/>
<path d="m1244.1 669.01c5.14-0.02 10.28-0.01 15.43-0.01v2.41h-6.33c-0.01 5.56 0 11.11 0 16.67h-2.67c-0.01-5.55-0.01-11.11 0-16.66-2.15-0.01-4.29-0.01-6.41 0 0-0.61-0.02-1.81-0.02-2.41z"/>
<path d="m1261.8 668.99c1.23 0 2.48 0.01 3.75 0.03 1.77 5.31 3.6 10.59 5.41 15.89l5.43-15.9c1.21-0.01 2.42-0.02 3.66-0.02v19.1c-0.6-0.01-1.81-0.01-2.41-0.02 0-5.28-0.04-10.56 0.02-15.84-1.74 5.39-3.68 10.72-5.48 16.09-0.65-0.15-1.96-0.45-2.61-0.6-1.93-5.09-3.58-10.29-5.3-15.45 0.04 5.26 0.02 10.54 0.03 15.81h-2.5c-0.01-6.36-0.01-12.73 0-19.09z"/>
<path d="m553 952.08c43.76-0.01 87.52 0.03 131.29-0.02-4.74 2.1-9.46 6.27-9.29 11.88-0.01 20.85 0 41.7 0 62.56 6.55 0 13.11-0.01 19.66 0 0.01-20.85 0.01-41.7 0-62.55 0.01-3.11-0.56-6.51-2.96-8.69-1.87-1.87-4.58-2.25-6.98-2.98 42.83-0.46 85.69-0.07 128.53-0.2-0.05 10.03 0.1 20.06-0.08 30.08-2.18-5.21-7.17-8.67-12.69-9.41-7.34-1.01-14.77-0.28-22.15-0.5 0.02 15.27-0.02 30.54 0.02 45.81-0.17 3.14 1.17 6.88 4.59 7.63 6.47 1.72 12.52-3.3 14.94-8.96 0.44 13.24 0.13 26.5 0.16 39.76-2.5-4.5-6.59-8.82-12.01-9.13-4.23-0.33-7.89 3.52-7.67 7.68-0.06 16.07-0.02 32.14-0.02 48.21 8.25-0.32 16.67 0.84 24.78-1.08 4.72-1.03 7.73-5 10.27-8.77 0.25 9.94 0.05 19.89 0.11 29.85-42.58 0.21-85.15-0.02-127.73 0.12 4.5-3.06 8.31-7.89 8.87-13.43 0.07-20.2 0.01-40.41 0.03-60.61h-19.67c0.04 20.56-0.07 41.12 0.05 61.68 0.07 5.72 4.72 9.83 9.42 12.3-16.8 0.06-33.61 0-50.42 0.03-2.18-0.01-4.37 0.11-6.52-0.28 3.76-1.94 7.29-4.27 10.82-6.59-0.08-49.51 0.17-99.01 0.04-148.51-0.25-4.24-0.47-9.08-3.63-12.29-0.29 11.2 0.13 22.41-0.22 33.61-0.98-3.21-1.4-6.74-3.7-9.35-4.48-5.49-11.9-7.54-18.75-7.31 0.01 44.15-0.02 88.29-0.1 132.43-0.08 3.66-0.14 7.63 2.04 10.79 2.14 3.61 5.79 5.87 9.58 7.43-19.98 0.09-39.97 0.13-59.96-0.02 2.81-1.3 5.87-2.3 8.04-4.62 2.58-2.47 3.72-6.11 3.72-9.6 0.01-45.48 0.01-90.95 0-136.42-6.81-0.21-14.02 1.9-18.69 7.08-2.08 2.15-2.66 5.15-3.6 7.88-0.28-11.82-0.05-23.66-0.12-35.49m178.36 16.22c-0.01 49.2-0.19 98.4-0.08 147.61 2.04 1.13 3.88 2.58 5.71 4.06 1.69-1.24 3.31-2.56 4.8-4.02-0.11-48.65 0.01-97.29-0.06-145.94-0.25-5.47-0.48-11.87-4.95-15.73-4.86 2.38-5.15 9.14-5.42 14.02z"/>
<path d="m855.11 958.05c4.56-4.79 11.53-5.96 17.86-5.97 17.01 0.03 34.03-0.06 51.04 0.04 7.81 0 16.21 5.61 16.96 13.8 0.27 7.5 0.07 15.01 0.07 22.51-2.02-5.66-6.25-10.4-11.83-12.71-9.29-4.06-20-4.42-29.79-2.11-5.41 1.26-11.37 5.15-11.28 11.35-0.1 38.38-0.06 76.78-0.1 115.16-0.36 4.4 4.94 4.47 8.04 4.46 3.15 0.05 8.55-0.2 8.31-4.57 0.04-25.66 0.06-51.33-0.01-76.99 0.42-4.57-4.24-6.17-7.8-6.95 14.8-0.16 29.61-0.03 44.42-0.07 0.02 35.68-0.05 71.35 0.04 107.03 1.97-0.92 4.39-1.62 5.32-3.82 0.92-2.26 0.83-4.76 1.1-7.14 4.32-51.04 8.77-102.07 13.07-153.12 0.54-3.06-1.2-5.79-4.17-6.58 23.08-0.73 46.22 0.03 69.33-0.38-2.37 1.07-3.88 3.35-3.42 6.02 4.34 51.35 8.91 102.68 13.27 154.03 0.13 2.72 0.56 5.43 1.49 8.01 3.38-2.65 5.4-6.77 5.21-11.08-0.03-48.32 0.11-96.65-0.07-144.96 0.18-5.79-4.13-10.49-9.54-11.9 17.29-0.15 34.59 0.16 51.88-0.16-2.27 1.19-4.25 3.35-3.29 6.12 3.57 21.2 7.3 42.37 10.9 63.56 4.42-21.23 8.99-42.44 13.36-63.68 0.7-2.33-1.12-4.12-2.3-5.86 41.27-0.03 82.55 0 123.82-0.01 0.01 10.05-0.02 20.1 0.01 30.16-2.05-4.16-5.51-7.72-10.12-8.83-8.09-2.14-16.56-0.78-24.8-1.16 0.03 15.63-0.08 31.27 0.04 46.9-0.18 3.36 2.31 6.66 5.81 6.79 6.29 0.85 11.24-4.2 13.92-9.32-0.02 13.27-0.07 26.55 0.02 39.82-1.93-2.84-3.95-5.81-7.06-7.46-2.89-1.88-6.98-2.36-9.83-0.16-2.24 1.62-3.06 4.48-2.92 7.14 0.02 15.76 0.01 31.52 0.01 47.29 8.12-0.29 16.38 0.76 24.39-0.98 4.87-0.99 8.09-5.02 10.64-8.96 0.12 9.97 0.03 19.95 0.06 29.93-42.52 0.15-85.05 0.16-127.57 0 5.09-1.52 9.48-5.75 9.19-11.41-0.06-28.13 0.41-56.26-0.05-84.37-1.9 4.55-2.11 9.59-3.24 14.36-5.12 26.68-10.21 53.36-15.34 80.03-0.79 0-2.37-0.02-3.16-0.02-5.19-31.3-9.66-62.74-15.28-93.95-0.64 6.68-0.16 13.4-0.3 20.11 0.02 20.63-0.05 41.27 0.03 61.9 0.14 6.66 5.91 11.47 11.83 13.39-29.86 0.15-59.72-0.03-89.58 0.09 2.92-1.17 7.09-2.47 7.17-6.26-0.23-9.18-0.88-18.35-1.26-27.53-5.4 0-10.8 0-16.19 0.01-0.46 9.15-1.1 18.31-1.45 27.47-0.32 3.72 3.55 5.2 6.39 6.3-15.78-0.07-31.57-0.01-47.35-0.03-0.03 2.21-0.04 4.44-0.05 6.67h-0.48c-0.26-5.38-5.95-7.09-10.47-6.68-19.35 0.03-38.69 0.01-58.03 0.02-5.97-0.11-12.55-1-17.03-5.33-2.74-2.53-3.73-6.35-3.62-9.97 0.01-46.37-0.01-92.74 0.01-139.11-0.07-3.92 0.95-8.03 3.77-10.88m290.16 6.96c-0.05 48.34 0 96.67-0.02 145.01-0.24 3.95 1.2 7.99 4.36 10.5 5.54-3.58 6.44-10.47 5.89-16.51-0.01-46.35 0-92.69 0-139.03 0.13-3.94-1.39-7.82-4.37-10.42-3.42 2.37-5.98 6.15-5.86 10.45m-154.6 31.07c-1.63 23.83-3.26 47.67-4.89 71.5h11.38c-1.92-26.62-3.39-53.29-5.57-79.89-0.77 2.72-0.7 5.58-0.92 8.39z"/>
</g>
</svg>
