<svg id="Layer_1" data-name="Layer 1" xmlns="http://www.w3.org/2000/svg" xmlns:xlink="http://www.w3.org/1999/xlink" viewBox="0 0 490 513"><defs><linearGradient id="linear-gradient" x1="66.6" y1="96.3" x2="412.39" y2="442.09" gradientTransform="matrix(1, 0, 0, -1, 0, 514)" gradientUnits="userSpaceOnUse"><stop offset="0" stop-color="#a68b56"/><stop offset="0.12" stop-color="#987b52"/><stop offset="0.25" stop-color="#e3d7b1"/><stop offset="0.3" stop-color="#dfd1a0"/><stop offset="0.34" stop-color="#ddcf9a"/><stop offset="0.58" stop-color="#ac9467"/><stop offset="0.69" stop-color="#987c52"/><stop offset="1" stop-color="#baa46c"/></linearGradient><linearGradient id="linear-gradient-2" x1="145.1" y1="-16.52" x2="319.3" y2="191.09" xlink:href="#linear-gradient"/><linearGradient id="linear-gradient-3" x1="414.19" y1="152.39" x2="62.27" y2="24.3" xlink:href="#linear-gradient"/><linearGradient id="linear-gradient-4" x1="143.87" y1="-7.03" x2="326.03" y2="175.13" gradientTransform="matrix(1, 0, 0, -1, 0, 514)" gradientUnits="userSpaceOnUse"><stop offset="0" stop-color="#7a6846"/><stop offset="0.23" stop-color="#977b52"/><stop offset="0.47" stop-color="#dacb95"/><stop offset="0.59" stop-color="#bda978"/><stop offset="0.76" stop-color="#977b52"/><stop offset="1" stop-color="#c2ae7d"/></linearGradient></defs><g id="Layer_2" data-name="Layer 2"><g id="Layer_1-2" data-name="Layer 1-2"><path d="M394.59,60.11V183.46H252.76v-.06H234.44v7.11h10.81a22.49,22.49,0,0,1,14.54,5.29,21.57,21.57,0,0,1,5.76-3.44,28.65,28.65,0,0,1,10.1-2H307.9c1.7,0,9.86.3,16,5.63a21.92,21.92,0,0,1,6-3.6,28.71,28.71,0,0,1,10.11-2h45.76v-3.77h45.28v9.12h32V273a18.55,18.55,0,0,1-5.43,13.49c-6.28,6.26-15.36,6.52-17.15,6.54H427.78v35.73H416.09v12h11.69v45.18H295.4v-4.22a23.27,23.27,0,0,1-4.22,2.22,29.3,29.3,0,0,1-10,2H248.91a29,29,0,0,1-10-2,22,22,0,0,1-6.08-3.64,21.7,21.7,0,0,1-6,3.61,29.06,29.06,0,0,1-10,2H184.4c-7.45-.11-15-3.27-19.11-9.21a20.2,20.2,0,0,1-9.22,7.18,29.06,29.06,0,0,1-10,2H113.88a29.21,29.21,0,0,1-9.61-1.88v1.88H49.55a29,29,0,0,1-10-2C31.56,380.61,27,374,27,365.77V303.62A18.83,18.83,0,0,1,32.48,290c6-6,14.6-6.58,16.84-6.58h.25l78.18-.08a19,19,0,0,1-2.94-10.38v-37.1h-6.4V209.29a30.57,30.57,0,0,1-3.58.21H59.71V101.11c0-12.07,11.67-20.17,22.58-20.17h96.88a25,25,0,0,1,16,5.67,21.68,21.68,0,0,1,5.9-3.57A28.55,28.55,0,0,1,211.15,81l96.3.05a26.2,26.2,0,0,1,12.93,3.66,21.54,21.54,0,0,1,2.87,2.07A21.64,21.64,0,0,1,329.41,83a29.31,29.31,0,0,1,10.09-2.07h9.65V60.11h45.44M362.82,283.47h26a18.92,18.92,0,0,1-3.06-10.58V256.57h-23v26.9M397.59,57.11H346.15V77.92H339.5a32.19,32.19,0,0,0-11.22,2.29,25.32,25.32,0,0,0-5,2.74c-.42-.29-.86-.57-1.3-.84A29.32,29.32,0,0,0,307.5,78l-96.3,0A31.73,31.73,0,0,0,200,80.25a25.38,25.38,0,0,0-4.76,2.56,28.61,28.61,0,0,0-16-4.89H82.29A27.55,27.55,0,0,0,65,84.17a21.72,21.72,0,0,0-8.29,16.94V212.52h58.7v26.33h6.4V273a22.74,22.74,0,0,0,1.19,7.36l-73.39.08h-.28c-1.92,0-11.85.36-19,7.45A21.81,21.81,0,0,0,24,303.62v62.15c0,9.55,5.24,17.14,14.39,20.83a32.1,32.1,0,0,0,11.16,2.22h57.72V388a31.88,31.88,0,0,0,6.6.83h32.18a31.83,31.83,0,0,0,11.15-2.27,24.54,24.54,0,0,0,8.1-5.29,27.42,27.42,0,0,0,19.06,7.55h32.39a31.73,31.73,0,0,0,11.13-2.24,25.44,25.44,0,0,0,4.91-2.62,24.94,24.94,0,0,0,5,2.65A32.32,32.32,0,0,0,249,388.81h32.24a32,32,0,0,0,11.15-2.22h.1v2.26H430.78V337.64H419.09v-6h11.69V295.92h9.68c3.65-.05,12.72-.89,19.27-7.42A21.51,21.51,0,0,0,466,272.89V192.68H434v-9.12H397.59ZM237.44,186.4h12.32v.06h133v.87H340a31.87,31.87,0,0,0-11.25,2.26,25.64,25.64,0,0,0-4.84,2.6,30,30,0,0,0-16-4.85H275.65a31.86,31.86,0,0,0-11.24,2.26,26.2,26.2,0,0,0-4.59,2.44,25.86,25.86,0,0,0-14.57-4.52h-7.81V186.4Zm128.38,73.17h17v13.32a23,23,0,0,0,1.26,7.58H365.82v-20.9Z" style="fill:url(#linear-gradient)"/><path d="M298.21,290c-6.27-6.23-15.25-6.5-17.1-6.53H248.9a28.82,28.82,0,0,0-10.09,2,22.16,22.16,0,0,0-5.32,3.06H207.28v-9.42H162v4.26H136.58v-.11l-87,.09c-1.76,0-10.8.3-17.09,6.58A18.81,18.81,0,0,0,27,303.62v62.15c0,8.26,4.56,14.84,12.51,18a29,29,0,0,0,10,2h54.76v-1.88a29.21,29.21,0,0,0,9.61,1.88h32.17a29.06,29.06,0,0,0,10-2,20.2,20.2,0,0,0,9.22-7.18c4.15,5.94,11.66,9.1,19.11,9.21h32.35a29.06,29.06,0,0,0,10-2,21.7,21.7,0,0,0,6-3.61,22,22,0,0,0,6.08,3.64,29,29,0,0,0,10,2h32.24a29.3,29.3,0,0,0,10-2c8-3.2,12.54-9.78,12.54-18V303.68A18.85,18.85,0,0,0,298.21,290Z"/><polygon points="427.78 328.66 427.78 283.47 295.4 283.47 295.4 328.66 306.78 328.66 306.78 340.64 295.4 340.64 295.4 385.82 427.78 385.82 427.78 340.64 416.09 340.64 416.09 328.66 427.78 328.66"/><path d="M431.06,195.68v-9.12H385.79v3.77H340a28.71,28.71,0,0,0-10.11,2,21.92,21.92,0,0,0-6,3.6c-6.17-5.33-14.34-5.63-16-5.63H275.65a28.65,28.65,0,0,0-10.1,2,21.57,21.57,0,0,0-5.76,3.44,22.49,22.49,0,0,0-14.54-5.29H234.44v-7.11h18.32v.06H394.59V60.11H349.15V80.92H339.5A29.31,29.31,0,0,0,329.41,83a21.64,21.64,0,0,0-6.16,3.76,21.54,21.54,0,0,0-2.87-2.07A26.17,26.17,0,0,0,307.45,81l-96.31,0a28.55,28.55,0,0,0-10.07,2,22.09,22.09,0,0,0-5.9,3.57,25,25,0,0,0-16-5.67H82.29c-10.91,0-22.58,8.1-22.58,20.17V209.52h55.12a30.57,30.57,0,0,0,3.58-.21v26.54h6.4V273c0,8.24,4.55,14.82,12.49,18a29.4,29.4,0,0,0,10.07,2h32.22a29.37,29.37,0,0,0,9.58-1.86V293h77.24v-1.71a29.14,29.14,0,0,0,9.24,1.69H307.9a29.06,29.06,0,0,0,9.5-1.82v1.82h45.41V256.57h23v16.32a18.58,18.58,0,0,0,5.41,13.46c6.26,6.25,15.33,6.58,17.12,6.58h32.14c1.79,0,10.87-.29,17.15-6.55A18.57,18.57,0,0,0,463,272.89V195.68Z"/><path d="M358.9,69.86V90.67H339.55s-12.89.07-12.89,10.49V163.4c0,10.22,12.89,10.31,12.89,10.31h45.29V69.86Zm0,83.52h-6.29V111.51h6.29Z" style="fill:#fff"/><path d="M82.28,90.67c-7.76,0-12.82,5.56-12.82,10.42v62.46c0,10.23,12.89,10.3,12.89,10.3h19.33v5.26H69.45v20.67h45.38c12.76,0,12.79-10.85,12.79-10.85V90.67Zm19.39,62.5H95.39V111.5h6.28Z" style="fill:#fff"/><path d="M320.25,173.71V101.25h0c0-8-8.79-10.48-12.79-10.48-8.63,0-15,1.8-19.2,5.23V90.78H262.51v82.93h25.74V111.56h6.25v62.15Z" style="fill:#fff"/><path d="M421.3,226.11h32V205.43h-32v-9.12H395.54v9.12h-6.4v20.68h6.4v46.74c0,10.3,12.8,10.28,12.8,10.28H440.5s12.79.05,12.79-10.28V231.24h-25.6v31.22H421.3Z" style="fill:#fff"/><path d="M385.22,220.91l.1-20.83H340s-12.88,0-12.88,10.49v72.68H353V246.83h32.25V226H353.07v-5.08Z" style="fill:#fff"/><path d="M294.9,257.33v5.25h-6.27V252.11h32.06V210.54c0-10.47-12.82-10.45-12.82-10.45H275.65s-12.82,0-12.82,10.48v62.35c0,10.28,12.84,10.31,12.84,10.31h32.2s12.82,0,12.82-10.33V257.33Zm0-36.42v10.33h-6.27V220.91Z" style="fill:#fff"/><path d="M192.34,272.92V231.31h-25.6V262.6h-6.41V226.11h32V205.43H160V196H134.2v9.48h-6.06v20.68h6.4V273c0,10.24,12.81,10.32,12.81,10.32h32.17s12.81-.06,12.81-10.33Z" style="fill:#fff"/><path d="M245.24,200.27H224.69V179H192V137.43a6.71,6.71,0,0,0-3.21-6.12s3.25-1.2,3.25-4.2V101.25c0-10.48-12.79-10.58-12.79-10.58h-45v99.57H160V142.68h6.22v46.65c0,10.3,13,10.31,13,10.31H199v83.61h25.77V221H231v62.21h25.75V210.73c0-10.46-11.43-10.46-11.43-10.46m-79-88.7v10.32H160V111.54Z" style="fill:#fff"/><path d="M243.33,90.72H211.17s-12.8,0-12.8,10.47v15.37h25.76v-5.07h6.25V121.8H211.17s-12.8,0-12.8,10.3v31.24c0,10.28,12.8,10.31,12.8,10.31h45V101.19c0-10.47-12.81-10.47-12.81-10.47m-13,62.3h-6.25V142.57h6.25Z" style="fill:#fff"/><path d="M81.7,293.11H49.55s-12.8,0-12.8,10.48V319H62.5v-5h6.26v10.31H49.55s-12.8,0-12.8,10.31v31.24c0,10.27,12.8,10.3,12.8,10.3h45V303.62c0-10.51-12.85-10.51-12.85-10.51M68.76,355.45H62.5V345h6.26Z" style="fill:#fff"/><path d="M158.78,365.72V293.16H133.06v62.21h-6.23V293.05H101.1v72.56c0,10.39,12.78,10.5,12.78,10.5H146s12.78-.07,12.78-10.35" style="fill:#fff"/><path d="M197.52,319h32V298.32h-32V288.9H171.76v9.42h-6.4V319h6.4v46.74h0c0,10.09,12.8,10.29,12.8,10.29h32.15s12.8-.06,12.8-10.29V324.11H203.92v31.22h-6.4Z" style="fill:#fff"/><path d="M197.52,319h32V298.32h-32V288.9H171.76v9.42h-6.4V319h6.4v46.74h0c0,10.09,12.8,10.29,12.8,10.29h32.15s12.8-.06,12.8-10.29V324.11H203.92v31.22h-6.4Z" style="fill:#fff"/><path d="M281.13,293.22H248.91s-12.83,0-12.83,10.45v62.1c0,10.3,12.83,10.3,12.83,10.3h32.22s12.84,0,12.84-10.3v-62.1c0-10.53-12.84-10.45-12.84-10.45M261.9,314h6.26v41.5H261.9Z" style="fill:#fff"/><path d="M418,318.9V293.22H305.15V318.9h11.38v31.49H305.15v25.72H418V350.39H406.34V318.9H418m-75.82,0h6.39v31.49h-6.39V318.9m38.45,31.49h-6.39V318.9h6.39Z" style="fill:#d20000"/><rect x="298.72" y="324.04" width="16.03" height="21.33"/><polygon points="41.61 409.52 52.37 452.72 419.36 448 428.15 414.24 41.61 409.52" style="fill:url(#linear-gradient-2)"/><path d="M41.61,409.52l386.54,4.72L419.36,448l-367,4.72L41.6,409.52m-4-3.19,1,3.95,10.76,43.2.6,2.41h2.49l367-4.72h2.4l.6-2.32,8.79-33.76,1-3.89h-4L41.65,406.38H37.58Z" style="fill:url(#linear-gradient-3)"/><path d="M57.23,427.34H63v10.37h3V427.34h5.82v-2.23H57.23ZM88.46,430H79.29v-4.87H76.35v12.6h2.94v-5.43h9.17v5.43h3v-12.6h-3Zm11.9,2.23h5.82v-2.1h-5.82v-2.82h10v-2.18H97.42v12.6h13v-2.37H100.36Zm38.47-5.5a7.93,7.93,0,0,0-5.35-1.62h-8.12v12.62h7.37a17.23,17.23,0,0,0,3.13-.23,6,6,0,0,0,2-.75,5.47,5.47,0,0,0,2.06-2.23,7,7,0,0,0,.73-3.18,5.8,5.8,0,0,0-1.82-4.61Zm-2.44,7.68a7.37,7.37,0,0,1-4.3,1H128.3v-8h5.2a4.39,4.39,0,0,1,3.11,1,3.85,3.85,0,0,1,1,2.93,3.62,3.62,0,0,1-1.22,3.07Zm12.68-2.18h5.83v-2.1h-5.83v-2.82h10v-2.18H146.13v12.6h13.05v-2.37H149.07Zm15.57,5.5h2.94v-4.79h5.32v-2.3h-5.32V427.3h9.83v-2.19H164.64Zm17.36,0h2.94v-12.6H182Zm21.11-6v.68c0,.3,0,.79.09,1.5a8,8,0,0,0-.63-.67c-.23-.22-.5-.46-.8-.7l-8.86-7.41h-2v12.6h2.64V430a7.31,7.31,0,0,0-.09-1.11,5.33,5.33,0,0,0,.46.49c.17.16.36.34.59.54l9.27,7.8h2v-12.6h-2.64Zm8.62,6h2.93v-12.6h-2.93Zm7.49-10.37H225v10.37h3V427.34h5.82v-2.23h-14.6Zm19.12,10.37h2.94v-12.6h-2.94Zm15.88-3.5-5.11-9.1h-3.36l7.3,12.62h2L262,425.11h-2.9Zm15.23-2h5.83v-2.1h-5.83v-2.82h10v-2.18H266.51v12.6h13.05v-2.37H269.45Zm32.32,0h5.82v-2.1h-5.82v-2.82h10v-2.18H298.83v12.6h13v-2.37h-10.1Zm29-5.5a7.89,7.89,0,0,0-5.34-1.62h-8.12v12.62h7.37a17.23,17.23,0,0,0,3.13-.23,5.83,5.83,0,0,0,2.05-.75,5.44,5.44,0,0,0,2.05-2.23,6.75,6.75,0,0,0,.73-3.18,5.76,5.76,0,0,0-1.84-4.61Zm-2.43,7.68a7.37,7.37,0,0,1-4.3,1h-3.8v-8h5.21a4.39,4.39,0,0,1,3.11,1,3.84,3.84,0,0,1,1.05,2.93,3.65,3.65,0,0,1-1.24,3.07Zm9.74,3.32H341v-12.6h-2.94Zm7.5-10.37h5.79v10.37h2.94V427.34h5.82v-2.23H345.61Zm19.11,10.37h2.94v-12.6h-2.94Zm21.22-12.6h-9.29a3.58,3.58,0,0,0-2.48.63,3.29,3.29,0,0,0-.65,2.35v6.66a3.32,3.32,0,0,0,.65,2.36,3.65,3.65,0,0,0,2.48.62h9.29a3.66,3.66,0,0,0,2.49-.62,3.28,3.28,0,0,0,.64-2.36v-6.64a3.24,3.24,0,0,0-.64-2.35A3.67,3.67,0,0,0,385.91,425.11Zm.21,10.25h-9.69v-8h9.69Zm21-10.25v7.31a10,10,0,0,0,.1,1.5,6.75,6.75,0,0,0-.64-.67,8.91,8.91,0,0,0-.8-.7l-8.9-7.44h-2v12.6h2.64V430a7.31,7.31,0,0,0-.09-1.11,3.63,3.63,0,0,0,.47.49c.16.16.36.34.58.54l9.27,7.8h2v-12.6Z"/><path d="M409.72,425.11v12.6h-2l-9.27-7.8c-.22-.2-.42-.38-.58-.54a3.63,3.63,0,0,1-.47-.49q.06.58.09,1.11a6.71,6.71,0,0,1,0,.9v6.82h-2.64v-12.6h2l8.88,7.44a8.91,8.91,0,0,1,.8.7,6.75,6.75,0,0,1,.64.67c-.05-.71-.08-1.21-.1-1.5s0-.53,0-.68v-6.63h2.64m-23.81,0a3.62,3.62,0,0,1,2.49.63,3.28,3.28,0,0,1,.61,2.37v6.66a3.28,3.28,0,0,1-.64,2.36,3.66,3.66,0,0,1-2.49.62h-9.29a3.65,3.65,0,0,1-2.48-.62,3.32,3.32,0,0,1-.65-2.36v-6.66a3.29,3.29,0,0,1,.65-2.35,3.58,3.58,0,0,1,2.48-.63h9.29m-9.48,10.25h9.69v-8h-9.69v8m-8.73-10.27v12.6h-2.94v-12.6h2.94m-7.5,0v2.25h-5.82v10.35H351.4V427.34h-5.79v-2.23h14.55m-19.11,0v12.6h-2.94v-12.6h2.94m-15.59,0a7.89,7.89,0,0,1,5.34,1.62,5.74,5.74,0,0,1,1.87,4.61,6.75,6.75,0,0,1-.73,3.18,5.44,5.44,0,0,1-2.05,2.23,5.83,5.83,0,0,1-2.05.75,17.23,17.23,0,0,1-3.13.23h-7.37V425.11h8.12m-5.19,10.25h3.8a7.37,7.37,0,0,0,4.3-1,3.64,3.64,0,0,0,1.27-3.12,3.84,3.84,0,0,0-1.05-2.93,4.39,4.39,0,0,0-3.11-1h-5.21v8m-8.52-10.2v2.15h-10v2.85h5.82v2.15h-5.82v3.13h10.1v2.37h-13V425.11h12.92m-32.31,0v2.15h-10v2.85h5.83v2.15h-5.83v3.13h10.11v2.37H266.51V425.11h12.93m-17.44,0-6.94,12.62h-2l-7.31-12.62h3.36l5.11,9.12,4.88-9.12H262m-20.74,0v12.6h-2.94v-12.6h2.94m-7.51,0v2.25H228v10.35h-3V427.34h-5.79v-2.23h14.55m-19.11,0v12.6h-2.93v-12.6h2.93m-8.91,0v12.6h-2l-9.27-7.8c-.23-.2-.42-.38-.59-.54a5.33,5.33,0,0,1-.46-.49q.06.58.09,1.11a6.71,6.71,0,0,1,0,.9v6.82h-2.64v-12.6h2l8.89,7.44c.3.24.57.48.8.7a8,8,0,0,1,.63.67c0-.71-.08-1.21-.09-1.5s0-.53,0-.68v-6.63h2.64m-20.81,0v12.6H182v-12.6h2.94m-7.53,0v2.21h-9.83v3.32h5.32v2.3h-5.32v4.79h-2.94V425.11h12.77m-18.35,0v2.15h-10v2.85h5.83v2.15h-5.83v3.13h10.11v2.37h-13V425.11h12.93m-25.58,0a7.93,7.93,0,0,1,5.35,1.62,5.82,5.82,0,0,1,1.87,4.61,7,7,0,0,1-.73,3.18,5.47,5.47,0,0,1-2.06,2.23,6,6,0,0,1-2,.75,17.23,17.23,0,0,1-3.13.23h-7.37V425.11h8.12m-5.18,10.25h3.79a7.37,7.37,0,0,0,4.3-1,3.64,3.64,0,0,0,1.27-3.12,3.85,3.85,0,0,0-1-2.93,4.39,4.39,0,0,0-3.11-1h-5.2v8m-18.06-10.2v2.15h-10v2.85h5.82v2.15h-5.8v3.13h10.1v2.37h-13V425.11h12.88m-18.92,0v12.6h-3v-5.43H79.29v5.43H76.35v-12.6h2.94V430h9.17v-4.89h3m-19.64,0v2.25H66v10.35H63V427.34H57.2v-2.23H71.78M411,423.84h-5.14V431l-8.18-6.84-.35-.29h-3.71v15.12h5.14v-7.13l8.15,6.86.35.29H411Zm-25.06,0h-9.29a4.64,4.64,0,0,0-3.36,1,4.34,4.34,0,0,0-1,3.24v6.66a4.36,4.36,0,0,0,1,3.25,4.68,4.68,0,0,0,3.36,1h9.29a4.68,4.68,0,0,0,3.36-1,4.36,4.36,0,0,0,1-3.25v-6.63a4.34,4.34,0,0,0-1-3.24,4.62,4.62,0,0,0-3.36-1Zm-8.23,4.75h7.19v5.52h-7.19v-5.52Zm-8.77-4.75H363.5V439h5.44Zm-7.5,0H344.36v4.75h5.79V439h5.44V428.59h5.82v-4.75Zm-19.11,0h-5.44V439h5.44Zm-16.84,0h-9.37V439h8.62a18.09,18.09,0,0,0,3.37-.25,7.1,7.1,0,0,0,2.47-.92,6.76,6.76,0,0,0,2.51-2.71,8.19,8.19,0,0,0,.86-3.76,7,7,0,0,0-2.3-5.55A9.13,9.13,0,0,0,325.49,423.84Zm-3.94,4.75h4a3.19,3.19,0,0,1,2.25.66,2.7,2.7,0,0,1,.66,2c0,1.55-.58,2-.76,2.12-.43.32-1.39.7-3.56.7h-2.55v-5.5ZM313,423.84H297.58V439h15.54v-4.85H303v-.63h5.82v-4.67H303v-.32h10Zm-32.31,0H265.26V439h15.55v-4.85H270.7v-.63h5.83v-4.67H270.7v-.32h10v-4.65Zm-16.55,0h-5.79l-.36.66-3.79,7.11-4-7.14-.36-.63h-6.25l1.08,1.87,7.3,12.63.36.62h3.49l.36-.65,6.94-12.62,1-1.85Zm-21.61,0h-5.44V439h5.44Zm-7.51,0H218v4.75h5.79V439h5.44V428.59H235v-4.75Zm-19.11,0h-5.43V439h5.43Zm-8.91,0h-5.14V431l-8.14-6.84-.35-.29h-3.71v15.12h5.14v-7.13l8.14,6.86.35.29H207Zm-20.81,0h-5.44V439h5.44Zm-7.53,0H163.39V439h5.44v-4.79h5.32v-4.8h-5.32v-.82h9.83Zm-18.35,0H144.88V439h15.55v-4.85H150.32v-.63h5.83v-4.67h-5.83v-.32h10v-4.65Zm-26.83,0h-9.37V439h8.62a18.09,18.09,0,0,0,3.37-.25,7.1,7.1,0,0,0,2.47-.92,6.76,6.76,0,0,0,2.51-2.71,8.33,8.33,0,0,0,.87-3.76,7,7,0,0,0-2.3-5.55A9.16,9.16,0,0,0,133.48,423.84Zm-3.93,4.75h4a3.19,3.19,0,0,1,2.25.66,2.7,2.7,0,0,1,.66,2c0,1.55-.57,2-.76,2.12-.43.32-1.39.7-3.56.7H129.6v-5.5Zm-18-4.75H96.17V439h15.54v-4.85h-10.1v-.63h5.82v-4.67h-5.82v-.32h10v-4.65Zm-18.92,0H87.21v4.89H80.54v-4.89H75.1V439h5.44v-5.43h6.67V439h5.46V423.84Zm-19.64,0H56v4.75h5.8V439h5.43V428.59H73v-4.75Z" style="fill:url(#linear-gradient-4)"/><path d="M444.93,304.61a5.16,5.16,0,1,1-5.32-5h.18a5,5,0,0,1,5.14,4.86Zm-9,0a3.89,3.89,0,0,0,3.76,4h.16a4,4,0,0,0,0-8,3.89,3.89,0,0,0-4,3.83v.17Zm3.09,2.63h-1.16v-5a10.4,10.4,0,0,1,1.93-.16,3.1,3.1,0,0,1,1.74.37,1.37,1.37,0,0,1,.49,1.1,1.28,1.28,0,0,1-1,1.16v.07a1.45,1.45,0,0,1,.92,1.22,3.41,3.41,0,0,0,.37,1.25H441a4.85,4.85,0,0,1-.4-1.22.87.87,0,0,0-1-.8H439Zm0-2.84h.55c.65,0,1.17-.21,1.17-.73s-.34-.77-1.07-.77a3.49,3.49,0,0,0-.65.06Z" style="fill:#fff"/></g></g></svg>