<?xml version="1.0" encoding="UTF-8" ?>
<!DOCTYPE svg PUBLIC "-//W3C//DTD SVG 1.1//EN" "http://www.w3.org/Graphics/SVG/1.1/DTD/svg11.dtd">
<svg width="600pt" height="203pt" viewBox="0 0 600 203" version="1.1" xmlns="http://www.w3.org/2000/svg">
<g id="#000000ff">
<path fill="#000000" stroke="#000000" stroke-width="0.09375" opacity="1.00" d=" M 52.90 46.96 C 54.37 42.80 59.37 42.94 62.99 43.03 C 66.86 43.13 72.33 42.32 74.25 46.67 C 78.13 56.29 81.28 66.19 84.96 75.89 C 85.87 79.02 88.03 82.37 86.50 85.64 C 85.29 88.05 82.33 88.18 79.98 88.27 C 76.34 88.28 72.63 88.59 69.05 87.79 C 67.05 87.27 66.35 85.07 65.30 83.56 C 64.40 83.56 62.61 83.56 61.71 83.56 C 60.58 85.38 59.54 87.92 57.02 88.01 C 53.03 88.48 48.97 88.43 44.97 88.09 C 41.21 87.83 39.45 83.08 40.93 79.95 C 44.80 68.91 48.73 57.88 52.90 46.96 M 45.05 83.26 C 48.81 83.28 52.56 83.26 56.32 83.29 C 56.82 81.72 57.32 80.16 57.82 78.60 C 61.61 78.61 65.39 78.61 69.18 78.60 C 69.70 80.16 70.21 81.72 70.73 83.28 C 74.57 83.26 78.41 83.27 82.25 83.27 C 78.05 71.56 73.76 59.87 69.61 48.14 C 65.67 48.04 61.72 48.12 57.77 48.04 C 53.43 59.74 49.24 71.50 45.05 83.26 Z" />
<path fill="#000000" stroke="#000000" stroke-width="0.09375" opacity="1.00" d=" M 164.92 44.93 C 167.35 42.64 170.95 43.15 174.01 43.02 C 177.28 43.16 181.25 42.58 183.69 45.31 C 185.22 46.77 184.91 49.08 185.05 51.00 C 185.04 57.30 185.01 63.61 185.03 69.91 C 189.22 70.06 193.57 69.31 197.64 70.49 C 201.92 72.69 201.11 77.98 201.06 81.97 C 201.12 84.21 200.51 87.00 198.03 87.68 C 193.76 88.73 189.31 88.15 184.96 88.27 C 179.29 88.13 173.61 88.58 167.96 88.05 C 164.97 87.82 163.35 84.63 163.34 81.93 C 163.23 71.95 163.38 61.98 163.28 52.00 C 163.39 49.62 163.07 46.78 164.92 44.93 M 168.31 48.08 C 168.31 59.80 168.33 71.52 168.30 83.24 C 177.43 83.34 186.55 83.19 195.68 83.32 C 195.77 80.59 195.77 77.87 195.76 75.14 C 190.60 75.19 185.45 75.09 180.29 75.23 C 179.25 66.24 180.12 57.12 179.83 48.08 C 175.99 48.09 172.15 48.08 168.31 48.08 Z" />
<path fill="#000000" stroke="#000000" stroke-width="0.09375" opacity="1.00" d=" M 293.42 43.58 C 296.84 42.69 300.45 43.11 303.95 43.07 C 306.53 42.95 309.48 43.79 310.73 46.25 C 311.54 48.40 311.36 50.76 311.42 53.03 C 311.30 62.66 311.49 72.29 311.34 81.91 C 311.41 84.58 310.02 87.78 307.01 87.99 C 302.37 88.45 297.60 88.63 293.01 87.76 C 289.77 86.75 289.60 82.82 289.60 79.99 C 289.71 69.66 289.49 59.32 289.70 48.99 C 289.58 46.56 291.14 44.37 293.42 43.58 M 294.65 48.07 C 294.61 59.80 294.62 71.53 294.64 83.26 C 298.55 83.28 302.46 83.28 306.37 83.26 C 306.37 71.53 306.41 59.80 306.35 48.07 C 302.45 48.09 298.55 48.09 294.65 48.07 Z" />
<path fill="#000000" stroke="#000000" stroke-width="0.09375" opacity="1.00" d=" M 399.01 49.00 C 398.69 45.25 402.64 43.02 405.94 43.12 C 414.29 43.03 422.65 43.08 431.00 43.10 C 433.98 42.98 437.66 44.55 437.99 47.88 C 438.24 52.23 439.15 57.45 435.67 60.82 C 435.00 63.76 435.54 66.96 435.27 70.00 C 436.91 71.67 439.21 73.25 438.98 75.90 C 439.13 79.93 439.89 85.24 435.71 87.59 C 430.97 88.94 425.93 88.02 421.07 88.27 C 414.72 88.00 408.26 88.91 401.99 87.69 C 399.08 86.88 398.86 83.49 398.93 81.00 C 399.00 70.33 398.83 59.66 399.01 49.00 M 404.24 48.06 C 404.23 59.80 404.25 71.53 404.23 83.26 C 414.06 83.28 423.89 83.28 433.73 83.26 C 433.75 80.47 433.75 77.67 433.61 74.88 C 427.67 75.33 421.68 75.27 415.74 74.96 C 415.73 73.14 415.74 71.33 415.76 69.53 C 420.63 69.50 425.51 69.53 430.39 69.50 C 430.39 66.79 430.39 64.08 430.45 61.36 C 425.57 61.19 420.68 61.31 415.80 61.27 C 415.75 59.65 415.71 58.04 415.67 56.42 C 421.50 56.23 427.33 56.40 433.16 56.31 C 433.17 53.59 433.17 50.87 433.17 48.16 C 423.53 47.99 413.88 48.15 404.24 48.06 Z" />
<path fill="#000000" stroke="#000000" stroke-width="0.09375" opacity="1.00" d=" M 515.37 48.95 C 515.29 46.23 517.28 43.73 520.02 43.36 C 523.69 42.85 527.44 42.94 531.13 43.23 C 535.05 43.59 536.85 47.56 538.67 50.51 C 538.81 48.00 539.17 44.96 541.87 43.90 C 545.42 42.51 549.40 43.13 553.14 43.12 C 556.41 43.01 559.66 45.59 559.41 49.07 C 559.61 59.38 559.40 69.71 559.51 80.03 C 559.54 82.89 559.20 86.81 555.96 87.80 C 551.70 88.60 547.28 88.44 542.99 88.02 C 539.46 87.53 538.05 83.74 536.33 81.13 C 535.94 83.52 535.90 86.95 532.98 87.70 C 528.72 88.62 524.26 88.42 519.94 88.05 C 516.57 87.78 515.13 83.99 515.29 81.05 C 515.35 70.35 515.17 59.65 515.37 48.95 M 520.29 48.09 C 520.34 59.83 520.21 71.57 520.36 83.31 C 523.85 83.26 527.34 83.27 530.84 83.27 C 531.41 77.02 530.59 70.76 530.95 64.50 C 535.55 70.52 539.25 77.17 543.71 83.30 C 547.29 83.25 550.88 83.28 554.47 83.26 C 554.47 71.53 554.52 59.79 554.44 48.06 C 550.88 48.10 547.32 48.07 543.76 48.11 C 543.76 54.45 543.76 60.78 543.71 67.12 C 539.50 60.77 535.39 54.35 531.11 48.04 C 527.50 48.11 523.89 48.08 520.29 48.09 Z" />
<path fill="#000000" stroke="#000000" stroke-width="0.09375" opacity="1.00" d=" M 63.25 59.50 C 65.43 63.08 65.83 67.42 67.29 71.31 C 64.84 71.32 62.40 71.32 59.95 71.30 C 61.09 67.38 62.18 63.44 63.25 59.50 Z" />
<path fill="#000000" stroke="#000000" stroke-width="0.09375" opacity="1.00" d=" M 15.43 110.55 C 19.14 109.13 24.16 109.94 26.47 113.40 C 28.06 118.74 26.55 124.42 27.43 129.87 C 28.23 134.15 28.04 138.90 25.69 142.67 C 21.48 145.87 13.95 145.39 11.53 140.13 C 7.69 139.85 3.75 138.88 0.00 140.26 L 0.00 135.42 C 0.51 135.07 1.52 134.36 2.02 134.01 C 1.52 133.92 0.51 133.75 0.00 133.67 L 0.00 128.55 C 1.47 128.95 2.95 129.31 4.43 129.66 C 6.96 129.07 9.54 128.77 12.13 128.59 C 11.03 125.40 9.14 121.99 10.59 118.58 C 11.73 115.70 12.38 112.05 15.43 110.55 M 16.81 115.19 C 16.74 117.01 16.72 118.84 16.72 120.67 C 16.28 120.91 15.41 121.40 14.98 121.65 C 15.39 121.89 16.23 122.38 16.64 122.62 C 16.85 128.23 16.67 133.86 16.73 139.47 C 18.52 139.51 20.31 139.51 22.11 139.45 C 22.19 137.64 22.29 135.84 22.51 134.05 C 21.79 129.90 22.71 125.61 21.57 121.53 C 21.77 121.20 22.17 120.54 22.37 120.20 C 22.18 118.59 22.34 116.89 21.63 115.38 C 20.03 115.17 18.42 115.22 16.81 115.19 M 6.71 134.64 C 8.27 134.76 9.82 134.73 11.37 134.55 C 9.96 133.53 8.03 133.38 6.71 134.64 M 12.91 134.50 C 13.88 135.88 14.69 135.79 15.32 134.23 C 14.34 132.89 13.54 132.98 12.91 134.50 Z" />
<path fill="#000000" stroke="#000000" stroke-width="0.09375" opacity="1.00" d=" M 81.73 110.69 C 85.52 109.30 89.79 109.33 93.63 110.51 C 96.58 111.39 98.44 114.00 100.87 115.69 C 103.01 116.27 105.62 115.92 107.22 117.75 C 109.98 119.87 109.77 124.93 106.59 126.55 C 104.94 127.02 103.22 127.19 101.54 127.51 C 103.46 129.66 106.50 128.81 109.03 128.93 C 113.91 128.96 119.09 128.36 123.61 130.61 C 127.49 132.40 126.59 139.62 122.10 139.86 C 115.76 140.45 109.38 140.34 103.03 140.06 C 99.97 139.34 98.46 142.75 95.90 143.66 C 90.92 145.33 85.29 145.47 80.37 143.52 C 77.82 142.16 75.56 140.32 72.98 139.01 C 70.85 137.94 70.59 134.99 71.38 133.00 C 72.32 131.00 73.67 129.22 74.88 127.38 C 70.34 125.98 69.25 119.02 73.44 116.65 C 76.29 114.78 78.41 111.82 81.73 110.69 M 78.36 121.36 C 77.55 121.37 75.95 121.40 75.15 121.42 C 76.12 122.02 77.17 122.36 78.32 122.44 C 78.36 125.81 81.69 127.83 84.59 128.61 C 87.95 129.72 92.68 129.67 93.63 133.96 C 91.66 135.34 89.36 136.33 86.90 135.85 C 84.41 135.78 83.36 133.20 82.18 131.44 C 80.67 131.47 79.17 131.51 77.66 131.56 C 77.72 132.26 77.85 133.66 77.91 134.36 L 76.26 134.33 C 76.26 134.50 76.26 134.82 76.27 134.98 C 79.15 135.10 80.24 138.38 82.85 139.19 C 87.97 140.71 94.86 140.55 97.82 135.29 C 99.05 135.20 100.30 135.11 101.43 134.57 C 100.70 134.46 99.24 134.23 98.51 134.12 C 98.13 131.93 98.14 129.31 96.29 127.74 C 92.62 124.37 86.86 125.52 83.16 122.14 C 84.36 117.17 91.61 118.05 92.78 122.58 C 96.65 122.26 100.57 122.44 104.40 121.77 C 102.18 121.53 99.94 121.55 97.71 121.58 C 95.77 112.51 80.22 112.08 78.36 121.36 M 102.67 134.56 C 108.67 135.89 115.09 135.40 121.15 134.51 C 115.00 134.20 108.80 133.83 102.67 134.56 Z" />
<path fill="#000000" stroke="#000000" stroke-width="0.09375" opacity="1.00" d=" M 144.18 117.02 C 148.37 109.99 157.97 107.96 165.26 110.86 C 172.00 114.07 176.07 121.55 175.26 128.97 C 177.33 130.68 178.79 133.30 177.71 136.02 C 176.92 138.84 173.64 138.92 171.29 139.45 C 164.55 146.83 151.40 146.85 144.92 139.13 C 140.31 139.36 135.55 140.01 131.03 138.72 C 127.19 137.55 126.90 131.35 130.36 129.57 C 132.99 128.45 135.91 128.57 138.71 128.62 C 138.21 126.41 137.24 123.80 138.81 121.79 C 140.67 120.26 143.02 119.26 144.18 117.02 M 149.87 117.89 C 147.92 119.60 147.01 122.08 146.30 124.51 C 145.35 124.59 143.45 124.74 142.50 124.81 C 143.71 125.05 144.92 125.23 146.13 125.42 C 146.13 128.18 146.44 130.94 147.38 133.55 C 146.72 133.65 145.39 133.85 144.73 133.95 C 145.74 134.16 146.76 134.35 147.78 134.53 C 152.37 142.01 164.53 141.72 168.92 134.17 C 170.15 134.25 171.38 134.32 172.61 134.39 C 172.61 134.22 172.61 133.87 172.60 133.70 C 171.72 133.72 169.94 133.77 169.05 133.79 C 169.49 132.11 169.93 130.43 170.38 128.76 C 169.46 128.72 167.63 128.63 166.72 128.59 C 167.92 128.42 169.12 128.28 170.33 128.16 C 170.14 125.08 169.87 121.75 167.80 119.28 C 163.82 113.61 154.70 113.02 149.87 117.89 M 132.76 134.80 C 136.61 135.08 140.48 135.03 144.31 134.61 C 143.02 132.41 140.20 133.10 138.08 132.93 C 136.23 133.17 133.37 132.36 132.76 134.80 Z" />
<path fill="#000000" stroke="#000000" stroke-width="0.09375" opacity="1.00" d=" M 215.13 114.03 C 217.84 107.55 229.61 108.62 230.39 116.04 C 232.78 115.92 235.31 115.53 237.59 116.50 C 240.66 118.16 241.14 123.21 238.32 125.34 C 236.19 127.61 232.90 127.04 230.13 126.83 C 230.12 127.61 230.09 129.16 230.08 129.94 C 232.90 130.03 235.86 129.61 238.59 130.53 C 242.54 132.53 243.00 137.87 241.50 141.58 C 239.84 144.57 235.93 144.44 232.97 144.53 C 228.31 144.37 223.59 144.91 218.97 144.13 C 216.46 143.86 215.37 141.44 214.58 139.38 C 209.08 139.20 203.49 139.75 198.05 138.75 C 193.51 137.48 194.05 129.44 198.88 129.11 C 204.14 128.56 209.45 128.76 214.73 128.68 C 214.88 123.81 214.24 118.85 215.13 114.03 M 219.63 115.35 C 219.64 117.38 219.59 119.45 220.22 121.41 C 219.17 127.33 219.68 133.45 219.74 139.46 C 225.64 139.46 231.55 139.70 237.44 139.30 C 237.24 137.91 237.03 136.53 236.82 135.15 C 233.03 134.95 229.16 135.53 225.43 134.83 C 224.93 130.46 225.22 126.05 225.07 121.67 C 226.67 121.80 228.28 121.86 229.89 121.87 C 229.19 121.35 228.49 120.83 227.79 120.31 L 227.63 121.27 C 226.66 121.14 225.70 121.01 224.74 120.87 C 225.04 119.01 225.12 117.13 224.97 115.26 C 223.19 115.26 221.40 115.28 219.63 115.35 M 232.13 120.72 C 230.60 122.81 235.68 123.37 235.71 121.19 C 235.17 119.86 233.14 120.21 232.13 120.72 M 199.75 134.10 C 206.11 134.48 212.49 134.30 218.86 134.48 C 218.85 134.24 218.82 133.77 218.80 133.53 C 212.45 133.75 206.08 133.54 199.75 134.10 Z" />
<path fill="#000000" stroke="#000000" stroke-width="0.09375" opacity="1.00" d=" M 289.38 119.15 C 291.39 115.59 292.97 110.10 297.90 110.00 C 300.60 110.02 304.25 109.28 306.06 111.85 C 309.92 118.19 310.23 126.40 315.61 131.85 C 316.14 135.04 316.50 138.50 315.58 141.65 C 313.44 145.15 308.53 144.89 305.02 144.14 C 302.46 143.82 301.38 141.31 300.36 139.30 C 299.94 139.30 299.09 139.29 298.66 139.28 C 297.57 143.10 293.79 145.14 289.95 144.50 C 284.82 143.74 279.53 144.83 274.51 143.34 C 271.97 144.29 269.29 144.26 266.85 143.02 C 264.67 143.70 262.35 144.73 260.07 143.81 C 255.29 142.30 255.76 133.66 260.91 133.06 C 263.00 132.54 265.02 133.44 266.96 134.10 C 269.32 132.91 271.93 132.77 274.40 133.73 C 277.83 132.80 281.40 132.99 284.92 132.98 C 286.50 128.39 288.49 123.94 289.38 119.15 M 296.94 115.30 C 296.14 117.44 295.36 119.63 294.01 121.51 C 293.47 125.70 291.22 129.37 290.05 133.39 C 290.49 133.73 291.38 134.41 291.83 134.76 C 291.29 134.64 290.21 134.40 289.67 134.28 C 289.02 136.01 288.39 137.76 287.87 139.53 C 289.59 139.54 291.32 139.52 293.05 139.47 C 293.72 137.73 294.19 135.87 295.24 134.31 C 298.19 134.05 301.16 134.23 304.12 134.23 C 304.74 135.97 305.36 137.72 305.96 139.48 C 307.78 139.51 309.61 139.52 311.44 139.51 C 310.90 137.95 310.42 136.39 310.13 134.78 C 307.07 128.49 304.87 121.82 302.41 115.28 C 300.58 115.27 298.76 115.28 296.94 115.30 M 261.66 139.32 C 262.02 139.32 262.75 139.32 263.11 139.32 L 263.40 138.63 C 263.32 136.77 260.33 137.95 261.66 139.32 M 270.83 139.75 C 272.27 138.97 272.26 138.20 270.79 137.45 C 269.25 138.25 269.26 139.02 270.83 139.75 M 276.94 139.30 C 278.49 139.25 280.17 139.37 281.49 138.38 C 279.94 138.31 277.94 137.65 276.94 139.30 M 283.10 138.75 C 283.39 140.25 286.21 140.17 286.48 138.69 C 286.27 137.03 283.22 137.04 283.10 138.75 Z" />
<path fill="#000000" stroke="#000000" stroke-width="0.09375" opacity="1.00" d=" M 351.83 112.90 C 354.69 108.46 360.56 110.34 364.94 109.96 C 369.74 110.36 375.18 108.74 379.41 111.68 C 381.57 112.15 384.41 112.05 385.49 114.42 C 386.45 117.01 386.51 121.00 383.64 122.39 C 380.42 123.21 377.17 123.88 374.00 124.85 C 374.01 126.06 374.02 127.27 374.04 128.48 C 375.45 128.89 376.98 129.07 378.30 129.80 C 381.24 132.17 380.99 137.60 377.61 139.47 C 376.25 139.88 374.83 140.04 373.44 140.30 C 372.43 142.07 371.26 144.09 368.96 144.23 C 365.31 145.02 359.62 144.74 358.76 140.17 C 358.07 135.09 358.54 129.90 358.45 124.77 C 355.95 124.37 352.86 124.14 351.50 121.63 C 350.63 118.86 350.39 115.51 351.83 112.90 M 355.71 115.50 C 355.84 116.85 355.77 118.25 356.28 119.54 C 358.61 119.72 360.96 119.62 363.30 119.70 C 363.37 126.30 363.58 132.90 363.39 139.49 C 365.11 139.50 366.84 139.50 368.57 139.50 C 368.62 137.87 368.67 136.25 368.73 134.62 C 369.27 134.59 370.35 134.51 370.90 134.47 C 370.32 134.22 369.18 133.73 368.60 133.48 C 368.70 128.88 368.58 124.29 368.73 119.69 C 370.77 119.61 372.85 119.79 374.89 119.47 C 376.69 117.97 379.05 118.06 381.23 117.73 C 379.65 117.60 378.08 117.49 376.51 117.41 C 376.32 116.88 375.94 115.84 375.74 115.31 C 369.07 115.33 362.37 115.01 355.71 115.50 M 372.52 134.23 C 372.69 135.91 375.72 135.93 375.90 134.24 C 375.64 132.72 372.83 132.77 372.52 134.23 Z" />
<path fill="#000000" stroke="#000000" stroke-width="0.09375" opacity="1.00" d=" M 428.53 112.39 C 429.96 109.62 433.47 109.86 436.12 109.99 C 440.20 110.02 443.04 114.15 442.96 117.97 C 442.71 122.66 441.67 127.56 443.53 132.07 C 444.71 134.74 442.91 137.38 442.19 139.92 C 440.87 145.88 431.41 146.06 428.25 141.71 C 426.58 139.37 422.25 139.62 422.09 136.13 C 421.02 132.55 423.31 129.07 426.99 128.66 C 427.45 123.29 425.69 117.30 428.53 112.39 M 432.26 115.29 C 432.16 121.41 432.23 127.53 432.21 133.65 C 430.30 133.71 428.30 133.55 426.53 134.41 C 428.39 134.74 430.28 134.84 432.18 134.88 C 432.20 136.41 432.23 137.96 432.27 139.50 C 433.94 139.52 435.61 139.52 437.29 139.52 C 436.90 137.05 439.71 134.67 437.57 132.56 C 437.29 126.80 437.83 121.03 437.46 115.29 C 435.72 115.27 433.99 115.27 432.26 115.29 Z" />
<path fill="#000000" stroke="#000000" stroke-width="0.09375" opacity="1.00" d=" M 494.02 112.12 C 498.42 109.32 504.03 109.05 508.97 110.38 C 512.89 112.04 515.85 115.24 519.13 117.87 C 522.58 120.58 519.52 125.27 520.03 128.87 C 524.66 128.92 529.35 128.50 533.94 129.28 C 535.72 129.62 536.33 131.60 537.25 132.92 C 540.77 132.99 544.42 132.61 547.77 133.97 C 548.26 132.30 548.61 130.26 550.40 129.47 C 552.84 128.63 555.48 128.85 558.02 128.71 C 557.94 128.21 557.79 127.19 557.71 126.68 C 554.87 126.11 551.57 124.40 551.93 120.97 C 551.62 117.62 554.82 116.00 557.59 115.42 C 559.63 108.61 570.17 108.02 573.50 114.10 C 575.41 111.87 577.77 109.50 581.01 109.94 C 584.93 109.51 588.19 112.57 588.69 116.35 C 591.67 118.60 591.87 123.43 588.64 125.56 C 588.26 130.42 588.92 135.35 588.21 140.18 C 587.31 144.70 581.72 145.01 578.05 144.35 C 575.42 144.27 573.83 142.14 572.49 140.19 C 572.52 140.67 572.57 141.64 572.60 142.12 C 567.57 145.96 560.72 144.44 555.07 143.07 C 552.64 144.17 550.01 144.36 547.52 143.34 C 543.44 144.48 539.15 144.32 534.98 143.98 C 532.63 143.96 531.55 141.70 530.67 139.90 C 525.57 140.10 520.46 139.94 515.36 140.11 C 508.13 147.61 492.98 146.49 488.35 136.61 C 483.94 128.60 486.04 117.07 494.02 112.12 M 492.11 121.18 C 492.69 121.37 493.84 121.75 494.41 121.94 C 493.73 122.03 492.37 122.22 491.69 122.31 C 490.92 126.40 490.86 130.73 492.70 134.56 C 494.69 134.26 496.76 134.18 498.65 133.40 C 496.91 131.73 496.20 129.37 496.41 127.01 C 496.53 124.85 496.84 121.48 499.91 122.29 C 499.69 121.72 499.24 120.57 499.01 119.99 C 501.31 119.38 503.84 118.61 506.11 119.79 C 509.76 121.89 510.32 126.84 509.45 130.58 C 508.81 133.67 505.57 134.70 503.24 136.20 C 503.28 135.48 503.36 134.03 503.41 133.31 C 503.18 133.34 502.72 133.39 502.49 133.41 C 502.60 134.04 502.82 135.30 502.93 135.93 C 499.85 134.31 496.36 134.55 493.03 134.74 C 497.34 142.18 509.19 141.42 513.70 134.48 C 519.30 134.85 524.92 134.81 530.52 134.53 C 525.07 134.07 519.58 134.46 514.13 133.97 C 514.95 130.17 515.66 126.26 514.37 122.47 C 514.77 122.28 515.57 121.92 515.97 121.74 C 515.52 121.59 514.62 121.29 514.17 121.14 C 511.71 117.79 508.39 114.59 503.92 114.62 C 499.00 114.10 494.57 117.10 492.11 121.18 M 562.79 114.92 C 562.46 121.09 562.75 127.27 562.52 133.44 C 559.24 133.43 555.97 133.51 552.70 133.65 L 552.66 134.90 C 554.81 135.47 558.55 133.78 559.34 136.68 C 560.33 136.00 561.34 135.33 562.35 134.66 C 562.62 136.33 562.35 138.18 563.19 139.71 C 564.87 139.82 566.57 139.73 568.27 139.66 C 568.26 138.12 568.25 136.58 568.26 135.04 C 570.57 134.95 572.89 134.85 575.21 134.75 C 576.19 136.31 577.14 137.89 578.11 139.46 C 579.90 139.52 581.69 139.55 583.50 139.57 C 583.37 131.47 583.81 123.37 583.45 115.28 C 581.82 115.28 580.20 115.30 578.58 115.32 C 578.51 120.58 578.60 125.84 578.44 131.09 C 575.99 127.98 573.98 124.55 572.13 121.06 C 570.70 119.41 569.57 117.54 568.73 115.53 C 566.80 114.98 564.77 114.95 562.79 114.92 M 557.29 120.37 C 557.28 120.74 557.24 121.50 557.23 121.88 C 558.52 121.63 559.91 121.52 561.05 120.78 C 559.79 120.62 558.54 120.48 557.29 120.37 M 500.66 128.54 C 502.08 128.66 503.51 128.77 504.95 128.86 C 504.92 128.23 504.86 126.97 504.83 126.34 C 503.29 126.81 501.66 127.18 500.66 128.54 M 535.52 138.17 C 534.49 140.03 538.42 140.35 538.74 138.78 C 538.65 137.24 536.31 137.14 535.52 138.17 M 540.65 138.81 C 541.34 140.09 543.35 139.85 544.49 139.33 C 545.54 137.21 540.86 136.76 540.65 138.81 M 550.35 137.74 C 549.76 139.31 550.28 139.88 551.90 139.45 C 552.53 137.88 552.01 137.31 550.35 137.74 M 558.55 138.04 C 557.52 139.25 559.57 140.41 560.43 139.35 C 561.43 138.17 559.36 136.83 558.55 138.04 Z" />
<path fill="#000000" stroke="#000000" stroke-width="0.09375" opacity="1.00" d=" M 324.38 113.37 C 327.70 112.07 331.52 112.34 335.00 112.79 C 339.64 113.42 340.63 120.48 336.59 122.56 C 333.32 124.10 329.54 123.49 326.07 123.23 C 321.35 122.69 320.27 115.46 324.38 113.37 M 327.10 119.48 C 329.32 120.08 329.22 115.72 327.00 116.55 C 325.92 117.57 325.96 118.55 327.10 119.48 M 329.92 117.73 C 331.05 118.44 332.36 118.64 333.65 118.92 C 333.68 118.49 333.74 117.64 333.77 117.21 C 332.48 117.36 331.20 117.53 329.92 117.73 Z" />
<path fill="#000000" stroke="#000000" stroke-width="0.09375" opacity="1.00" d=" M 151.47 124.51 C 152.79 121.10 156.09 118.07 160.01 119.36 C 164.14 120.16 164.82 124.77 164.92 128.27 C 164.47 128.27 163.57 128.28 163.13 128.28 C 165.77 128.59 164.38 131.35 163.60 132.64 C 162.14 134.68 159.60 136.18 157.03 135.58 C 155.46 134.97 154.21 133.81 152.81 132.91 C 151.59 130.26 151.43 127.37 151.47 124.51 M 156.51 127.21 C 156.21 128.81 157.86 129.60 158.72 130.64 C 158.94 128.60 159.34 126.58 159.32 124.52 C 157.70 122.98 156.36 125.78 156.51 127.21 Z" />
<path fill="#000000" stroke="#000000" stroke-width="0.09375" opacity="1.00" d=" M 299.46 121.79 C 300.93 124.41 301.85 127.30 302.58 130.20 C 300.54 130.22 298.50 130.21 296.46 130.18 C 297.35 127.34 298.31 124.53 299.46 121.79 Z" />
<path fill="#000000" stroke="#000000" stroke-width="0.09375" opacity="1.00" d=" M 567.95 123.76 C 570.35 126.79 572.29 130.15 574.37 133.40 C 572.19 133.49 570.02 133.55 567.86 133.61 C 567.85 130.33 567.80 127.04 567.95 123.76 Z" />
<path fill="#000000" stroke="#000000" stroke-width="0.09375" opacity="1.00" d=" M 319.38 129.48 C 323.41 128.03 327.79 128.72 331.99 128.56 C 336.99 128.73 342.12 128.01 347.03 129.27 C 351.15 130.56 351.11 137.60 346.92 138.77 C 342.36 139.85 337.63 139.27 333.00 139.44 C 328.69 139.32 324.29 139.90 320.07 138.82 C 316.10 137.65 315.80 131.30 319.38 129.48 M 321.28 134.75 C 329.13 135.26 337.00 134.91 344.86 134.77 C 344.86 134.38 344.87 133.59 344.88 133.19 C 337.90 132.92 330.91 132.92 323.94 133.13 C 322.68 133.04 321.80 133.58 321.28 134.75 Z" />
</g>
<g id="#ffffffff">
<path fill="#ffffff" stroke="#ffffff" stroke-width="0.09375" opacity="1.00" d=" M 45.05 83.26 C 49.24 71.50 53.43 59.74 57.77 48.04 C 61.72 48.12 65.67 48.04 69.61 48.14 C 73.76 59.87 78.05 71.56 82.25 83.27 C 78.41 83.27 74.57 83.26 70.73 83.28 C 70.21 81.72 69.70 80.16 69.18 78.60 C 65.39 78.61 61.61 78.61 57.82 78.60 C 57.32 80.16 56.82 81.72 56.32 83.29 C 52.56 83.26 48.81 83.28 45.05 83.26 M 63.25 59.50 C 62.18 63.44 61.09 67.38 59.95 71.30 C 62.40 71.32 64.84 71.32 67.29 71.31 C 65.83 67.42 65.43 63.08 63.25 59.50 Z" />
<path fill="#ffffff" stroke="#ffffff" stroke-width="0.09375" opacity="1.00" d=" M 168.31 48.08 C 172.15 48.08 175.99 48.09 179.83 48.08 C 180.12 57.12 179.25 66.24 180.29 75.23 C 185.45 75.09 190.60 75.19 195.76 75.14 C 195.77 77.87 195.77 80.59 195.68 83.32 C 186.55 83.19 177.43 83.34 168.30 83.24 C 168.33 71.52 168.31 59.80 168.31 48.08 Z" />
<path fill="#ffffff" stroke="#ffffff" stroke-width="0.09375" opacity="1.00" d=" M 294.65 48.07 C 298.55 48.09 302.45 48.09 306.35 48.07 C 306.41 59.80 306.37 71.53 306.37 83.26 C 302.46 83.28 298.55 83.28 294.64 83.26 C 294.62 71.53 294.61 59.80 294.65 48.07 Z" />
<path fill="#ffffff" stroke="#ffffff" stroke-width="0.09375" opacity="1.00" d=" M 404.24 48.06 C 413.88 48.15 423.53 47.99 433.17 48.16 C 433.17 50.87 433.17 53.59 433.16 56.31 C 427.33 56.40 421.50 56.23 415.67 56.42 C 415.71 58.04 415.75 59.65 415.80 61.27 C 420.68 61.31 425.57 61.19 430.45 61.36 C 430.39 64.08 430.39 66.79 430.39 69.50 C 425.51 69.53 420.63 69.50 415.76 69.53 C 415.74 71.33 415.73 73.14 415.74 74.96 C 421.68 75.27 427.67 75.33 433.61 74.88 C 433.75 77.67 433.75 80.47 433.73 83.26 C 423.89 83.28 414.06 83.28 404.23 83.26 C 404.25 71.53 404.23 59.80 404.24 48.06 Z" />
<path fill="#ffffff" stroke="#ffffff" stroke-width="0.09375" opacity="1.00" d=" M 520.29 48.09 C 523.89 48.08 527.50 48.11 531.11 48.04 C 535.39 54.35 539.50 60.77 543.71 67.12 C 543.76 60.78 543.76 54.45 543.76 48.11 C 547.32 48.07 550.88 48.10 554.44 48.06 C 554.52 59.79 554.47 71.53 554.47 83.26 C 550.88 83.28 547.29 83.25 543.71 83.30 C 539.25 77.17 535.55 70.52 530.95 64.50 C 530.59 70.76 531.41 77.02 530.84 83.27 C 527.34 83.27 523.85 83.26 520.36 83.31 C 520.21 71.57 520.34 59.83 520.29 48.09 Z" />
<path fill="#ffffff" stroke="#ffffff" stroke-width="0.09375" opacity="1.00" d=" M 16.81 115.19 C 18.42 115.22 20.03 115.17 21.63 115.38 C 22.34 116.89 22.18 118.59 22.37 120.20 C 22.17 120.54 21.77 121.20 21.57 121.53 C 22.71 125.61 21.79 129.90 22.51 134.05 C 22.29 135.84 22.19 137.64 22.11 139.45 C 20.31 139.51 18.52 139.51 16.73 139.47 C 16.67 133.86 16.85 128.23 16.64 122.62 C 16.23 122.38 15.39 121.89 14.98 121.65 C 15.41 121.40 16.28 120.91 16.72 120.67 C 16.72 118.84 16.74 117.01 16.81 115.19 Z" />
<path fill="#ffffff" stroke="#ffffff" stroke-width="0.09375" opacity="1.00" d=" M 78.36 121.36 C 80.22 112.08 95.77 112.51 97.71 121.58 C 99.94 121.55 102.18 121.53 104.40 121.77 C 100.57 122.44 96.65 122.26 92.78 122.58 C 91.61 118.05 84.36 117.17 83.16 122.14 C 86.86 125.52 92.62 124.37 96.29 127.74 C 98.14 129.31 98.13 131.93 98.51 134.12 C 99.24 134.23 100.70 134.46 101.43 134.57 C 100.30 135.11 99.05 135.20 97.82 135.29 C 94.86 140.55 87.97 140.71 82.85 139.19 C 80.24 138.38 79.15 135.10 76.27 134.98 C 76.26 134.82 76.26 134.50 76.26 134.33 L 77.91 134.36 C 77.85 133.66 77.72 132.26 77.66 131.56 C 79.17 131.51 80.67 131.47 82.18 131.44 C 83.36 133.20 84.41 135.78 86.90 135.85 C 89.36 136.33 91.66 135.34 93.63 133.96 C 92.68 129.67 87.95 129.72 84.59 128.61 C 81.69 127.83 78.36 125.81 78.32 122.44 C 77.17 122.36 76.12 122.02 75.15 121.42 C 75.95 121.40 77.55 121.37 78.36 121.36 Z" />
<path fill="#ffffff" stroke="#ffffff" stroke-width="0.09375" opacity="1.00" d=" M 149.87 117.89 C 154.70 113.02 163.82 113.61 167.80 119.28 C 169.87 121.75 170.14 125.08 170.33 128.16 C 169.12 128.28 167.92 128.42 166.72 128.59 C 167.63 128.63 169.46 128.72 170.38 128.76 C 169.93 130.43 169.49 132.11 169.05 133.79 C 169.94 133.77 171.72 133.72 172.60 133.70 C 172.61 133.87 172.61 134.22 172.61 134.39 C 171.38 134.32 170.15 134.25 168.92 134.17 C 164.53 141.72 152.37 142.01 147.78 134.53 C 146.76 134.35 145.74 134.16 144.73 133.95 C 145.39 133.85 146.72 133.65 147.38 133.55 C 146.44 130.94 146.13 128.18 146.13 125.42 C 144.92 125.23 143.71 125.05 142.50 124.81 C 143.45 124.74 145.35 124.59 146.30 124.51 C 147.01 122.08 147.92 119.60 149.87 117.89 M 151.47 124.51 C 151.43 127.37 151.59 130.26 152.81 132.91 C 154.21 133.81 155.46 134.97 157.03 135.58 C 159.60 136.18 162.14 134.68 163.60 132.64 C 164.38 131.35 165.77 128.59 163.13 128.28 C 163.57 128.28 164.47 128.27 164.92 128.27 C 164.82 124.77 164.14 120.16 160.01 119.36 C 156.09 118.07 152.79 121.10 151.47 124.51 Z" />
<path fill="#ffffff" stroke="#ffffff" stroke-width="0.09375" opacity="1.00" d=" M 219.63 115.35 C 221.40 115.28 223.19 115.26 224.97 115.26 C 225.12 117.13 225.04 119.01 224.74 120.87 C 225.70 121.01 226.66 121.14 227.63 121.27 L 227.79 120.31 C 228.49 120.83 229.19 121.35 229.89 121.87 C 228.28 121.86 226.67 121.80 225.07 121.67 C 225.22 126.05 224.93 130.46 225.43 134.83 C 229.16 135.53 233.03 134.95 236.82 135.15 C 237.03 136.53 237.24 137.91 237.44 139.30 C 231.55 139.70 225.64 139.46 219.74 139.46 C 219.68 133.45 219.17 127.33 220.22 121.41 C 219.59 119.45 219.64 117.38 219.63 115.35 Z" />
<path fill="#ffffff" stroke="#ffffff" stroke-width="0.09375" opacity="1.00" d=" M 296.94 115.30 C 298.76 115.28 300.58 115.27 302.41 115.28 C 304.87 121.82 307.07 128.49 310.13 134.78 C 310.42 136.39 310.90 137.95 311.44 139.51 C 309.61 139.52 307.78 139.51 305.96 139.48 C 305.36 137.72 304.74 135.97 304.12 134.23 C 301.16 134.23 298.19 134.05 295.24 134.31 C 294.19 135.87 293.72 137.73 293.05 139.47 C 291.32 139.52 289.59 139.54 287.87 139.53 C 288.39 137.76 289.02 136.01 289.67 134.28 C 290.21 134.40 291.29 134.64 291.83 134.76 C 291.38 134.41 290.49 133.73 290.05 133.39 C 291.22 129.37 293.47 125.70 294.01 121.51 C 295.36 119.63 296.14 117.44 296.94 115.30 M 299.46 121.79 C 298.31 124.53 297.35 127.34 296.46 130.18 C 298.50 130.21 300.54 130.22 302.58 130.20 C 301.85 127.30 300.93 124.41 299.46 121.79 Z" />
<path fill="#ffffff" stroke="#ffffff" stroke-width="0.09375" opacity="1.00" d=" M 355.71 115.50 C 362.37 115.01 369.07 115.33 375.74 115.31 C 375.94 115.84 376.32 116.88 376.51 117.41 C 378.08 117.49 379.65 117.60 381.23 117.73 C 379.05 118.06 376.69 117.97 374.89 119.47 C 372.85 119.79 370.77 119.61 368.73 119.69 C 368.58 124.29 368.70 128.88 368.60 133.48 C 369.18 133.73 370.32 134.22 370.90 134.47 C 370.35 134.51 369.27 134.59 368.73 134.62 C 368.67 136.25 368.62 137.87 368.57 139.50 C 366.84 139.50 365.11 139.50 363.39 139.49 C 363.58 132.90 363.37 126.30 363.30 119.70 C 360.96 119.62 358.61 119.72 356.28 119.54 C 355.77 118.25 355.84 116.85 355.71 115.50 Z" />
<path fill="#ffffff" stroke="#ffffff" stroke-width="0.09375" opacity="1.00" d=" M 432.26 115.29 C 433.99 115.27 435.72 115.27 437.46 115.29 C 437.83 121.03 437.29 126.80 437.57 132.56 C 439.71 134.67 436.90 137.05 437.29 139.52 C 435.61 139.52 433.94 139.52 432.27 139.50 C 432.23 137.96 432.20 136.41 432.18 134.88 C 430.28 134.84 428.39 134.74 426.53 134.41 C 428.30 133.55 430.30 133.71 432.21 133.65 C 432.23 127.53 432.16 121.41 432.26 115.29 Z" />
<path fill="#ffffff" stroke="#ffffff" stroke-width="0.09375" opacity="1.00" d=" M 492.11 121.18 C 494.57 117.10 499.00 114.10 503.92 114.62 C 508.39 114.59 511.71 117.79 514.17 121.14 C 514.62 121.29 515.52 121.59 515.97 121.74 C 515.57 121.92 514.77 122.28 514.37 122.47 C 515.66 126.26 514.95 130.17 514.13 133.97 C 519.58 134.46 525.07 134.07 530.52 134.53 C 524.92 134.81 519.30 134.85 513.70 134.48 C 509.19 141.42 497.34 142.18 493.03 134.74 C 496.36 134.55 499.85 134.31 502.93 135.93 C 502.82 135.30 502.60 134.04 502.49 133.41 C 502.72 133.39 503.18 133.34 503.41 133.31 C 503.36 134.03 503.28 135.48 503.24 136.20 C 505.57 134.70 508.81 133.67 509.45 130.58 C 510.32 126.84 509.76 121.89 506.11 119.79 C 503.84 118.61 501.31 119.38 499.01 119.99 C 499.24 120.57 499.69 121.72 499.91 122.29 C 496.84 121.48 496.53 124.85 496.41 127.01 C 496.20 129.37 496.91 131.73 498.65 133.40 C 496.76 134.18 494.69 134.26 492.70 134.56 C 490.86 130.73 490.92 126.40 491.69 122.31 C 492.37 122.22 493.73 122.03 494.41 121.94 C 493.84 121.75 492.69 121.37 492.11 121.18 Z" />
<path fill="#ffffff" stroke="#ffffff" stroke-width="0.09375" opacity="1.00" d=" M 563.01 115.53 C 564.91 115.52 566.82 115.53 568.73 115.53 C 569.57 117.54 570.70 119.41 572.13 121.06 C 573.98 124.55 575.99 127.98 578.44 131.09 C 578.60 125.84 578.51 120.58 578.58 115.32 C 580.20 115.30 581.82 115.28 583.45 115.28 C 583.81 123.37 583.37 131.47 583.50 139.57 C 581.69 139.55 579.90 139.52 578.11 139.46 C 577.14 137.89 576.19 136.31 575.21 134.75 C 575.00 134.41 574.58 133.74 574.37 133.40 C 572.29 130.15 570.35 126.79 567.95 123.76 C 567.80 127.04 567.85 130.33 567.86 133.61 C 567.59 135.41 568.19 137.66 567.11 139.18 C 566.14 139.28 564.21 139.47 563.24 139.56 C 563.45 133.42 562.32 127.09 564.01 121.11 C 563.38 119.31 563.16 117.41 563.01 115.53 Z" />
<path fill="#ffffff" stroke="#ffffff" stroke-width="0.09375" opacity="1.00" d=" M 327.10 119.48 C 325.96 118.55 325.92 117.57 327.00 116.55 C 329.22 115.72 329.32 120.08 327.10 119.48 Z" />
<path fill="#ffffff" stroke="#ffffff" stroke-width="0.09375" opacity="1.00" d=" M 329.92 117.73 C 331.20 117.53 332.48 117.36 333.77 117.21 C 333.74 117.64 333.68 118.49 333.65 118.92 C 332.36 118.64 331.05 118.44 329.92 117.73 Z" />
<path fill="#ffffff" stroke="#ffffff" stroke-width="0.09375" opacity="1.00" d=" M 232.13 120.72 C 233.14 120.21 235.17 119.86 235.71 121.19 C 235.68 123.37 230.60 122.81 232.13 120.72 Z" />
<path fill="#ffffff" stroke="#ffffff" stroke-width="0.09375" opacity="1.00" d=" M 557.29 120.37 C 558.54 120.48 559.79 120.62 561.05 120.78 C 559.91 121.52 558.52 121.63 557.23 121.88 C 557.24 121.50 557.28 120.74 557.29 120.37 Z" />
<path fill="#ffffff" stroke="#ffffff" stroke-width="0.09375" opacity="1.00" d=" M 0.00 133.67 C 0.51 133.75 1.52 133.92 2.02 134.01 C 1.52 134.36 0.51 135.07 0.00 135.42 L 0.00 133.67 Z" />
<path fill="#ffffff" stroke="#ffffff" stroke-width="0.09375" opacity="1.00" d=" M 6.71 134.64 C 8.03 133.38 9.96 133.53 11.37 134.55 C 9.82 134.73 8.27 134.76 6.71 134.64 Z" />
<path fill="#ffffff" stroke="#ffffff" stroke-width="0.09375" opacity="1.00" d=" M 12.91 134.50 C 13.54 132.98 14.34 132.89 15.32 134.23 C 14.69 135.79 13.88 135.88 12.91 134.50 Z" />
<path fill="#ffffff" stroke="#ffffff" stroke-width="0.09375" opacity="1.00" d=" M 102.67 134.56 C 108.80 133.83 115.00 134.20 121.15 134.51 C 115.09 135.40 108.67 135.89 102.67 134.56 Z" />
<path fill="#ffffff" stroke="#ffffff" stroke-width="0.09375" opacity="1.00" d=" M 199.75 134.10 C 206.08 133.54 212.45 133.75 218.80 133.53 C 218.82 133.77 218.85 134.24 218.86 134.48 C 212.49 134.30 206.11 134.48 199.75 134.10 Z" />
<path fill="#ffffff" stroke="#ffffff" stroke-width="0.09375" opacity="1.00" d=" M 372.52 134.23 C 372.83 132.77 375.64 132.72 375.90 134.24 C 375.72 135.93 372.69 135.91 372.52 134.23 Z" />
<path fill="#ffffff" stroke="#ffffff" stroke-width="0.09375" opacity="1.00" d=" M 261.66 139.32 C 260.33 137.95 263.32 136.77 263.40 138.63 L 263.11 139.32 C 262.75 139.32 262.02 139.32 261.66 139.32 Z" />
<path fill="#ffffff" stroke="#ffffff" stroke-width="0.09375" opacity="1.00" d=" M 270.83 139.75 C 269.26 139.02 269.25 138.25 270.79 137.45 C 272.26 138.20 272.27 138.97 270.83 139.75 Z" />
<path fill="#ffffff" stroke="#ffffff" stroke-width="0.09375" opacity="1.00" d=" M 276.94 139.30 C 277.94 137.65 279.94 138.31 281.49 138.38 C 280.17 139.37 278.49 139.25 276.94 139.30 Z" />
<path fill="#ffffff" stroke="#ffffff" stroke-width="0.09375" opacity="1.00" d=" M 283.10 138.75 C 283.22 137.04 286.27 137.03 286.48 138.69 C 286.21 140.17 283.39 140.25 283.10 138.75 Z" />
<path fill="#ffffff" stroke="#ffffff" stroke-width="0.09375" opacity="1.00" d=" M 535.52 138.17 C 536.31 137.14 538.65 137.24 538.74 138.78 C 538.42 140.35 534.49 140.03 535.52 138.17 Z" />
<path fill="#ffffff" stroke="#ffffff" stroke-width="0.09375" opacity="1.00" d=" M 540.65 138.81 C 540.86 136.76 545.54 137.21 544.49 139.33 C 543.35 139.85 541.34 140.09 540.65 138.81 Z" />
<path fill="#ffffff" stroke="#ffffff" stroke-width="0.09375" opacity="1.00" d=" M 550.35 137.74 C 552.01 137.31 552.53 137.88 551.90 139.45 C 550.28 139.88 549.76 139.31 550.35 137.74 Z" />
<path fill="#ffffff" stroke="#ffffff" stroke-width="0.09375" opacity="1.00" d=" M 558.55 138.04 C 559.36 136.83 561.43 138.17 560.43 139.35 C 559.57 140.41 557.52 139.25 558.55 138.04 Z" />
</g>
<g id="#717171ff">
<path fill="#717171" stroke="#717171" stroke-width="0.09375" opacity="1.00" d=" M 562.79 114.92 C 564.77 114.95 566.80 114.98 568.73 115.53 C 566.82 115.53 564.91 115.52 563.01 115.53 C 563.16 117.41 563.38 119.31 564.01 121.11 C 562.32 127.09 563.45 133.42 563.24 139.56 C 564.21 139.47 566.14 139.28 567.11 139.18 C 568.19 137.66 567.59 135.41 567.86 133.61 C 570.02 133.55 572.19 133.49 574.37 133.40 C 574.58 133.74 575.00 134.41 575.21 134.75 C 572.89 134.85 570.57 134.95 568.26 135.04 C 568.25 136.58 568.26 138.12 568.27 139.66 C 566.57 139.73 564.87 139.82 563.19 139.71 C 562.35 138.18 562.62 136.33 562.35 134.66 C 561.34 135.33 560.33 136.00 559.34 136.68 C 558.55 133.78 554.81 135.47 552.66 134.90 L 552.70 133.65 C 555.97 133.51 559.24 133.43 562.52 133.44 C 562.75 127.27 562.46 121.09 562.79 114.92 Z" />
<path fill="#717171" stroke="#717171" stroke-width="0.09375" opacity="1.00" d=" M 132.76 134.80 C 133.37 132.36 136.23 133.17 138.08 132.93 C 140.20 133.10 143.02 132.41 144.31 134.61 C 140.48 135.03 136.61 135.08 132.76 134.80 Z" />
<path fill="#717171" stroke="#717171" stroke-width="0.09375" opacity="1.00" d=" M 321.28 134.75 C 321.80 133.58 322.68 133.04 323.94 133.13 C 330.91 132.92 337.90 132.92 344.88 133.19 C 344.87 133.59 344.86 134.38 344.86 134.77 C 337.00 134.91 329.13 135.26 321.28 134.75 Z" />
</g>
</svg>
