<svg xmlns="http://www.w3.org/2000/svg" viewBox="0 0 1135.36 840"><title>Artboard 2</title><path d="M131.18,4h5.23c5.3.4,10,2.84,14.7,5.11,2.27,1.41,4.16-1,6.21-1.66,2.26.15,4.34,1.32,6.63,1.37C167.67,8,171,4.75,175,6a28.42,28.42,0,0,0,9.14.77c3.29-.48,5.53,3.43,8.86,2.59,7.22-1.52,14.58-3,22-2.49,3.42.29,6.56,1.93,10,2.21,2.42-.41,4.59-1.7,7-2.09,2.36.19,4.61,1,7,1.21,2-.41,3.94-1.22,6-1.52,3.72,0,7.26,1.59,11,1.5a64.39,64.39,0,0,1,10.93.56c3.08.44,6-.91,9.07-1.05,3.07.83,5.63,4,9,3,5.64-1.56,11.5-.84,17.26-1.41,2.37-.22,4.47,1.21,6.79,1.38,4.4-.47,8.52-2.47,13-2.55,5.18-.12,9.85,2.82,15,2.84,3.64-.34,7.21-1.41,10.9-1.06,4.73.43,9.41-.74,14.13-.35,5.06.37,9.88-1.82,14.95-1.6s10.92.55,14.89,4.2c3.4,3.18.56,8,1.31,11.89s1.17,8.22.08,12.27c-.89,3.11.88,7.61-2.68,9.38-4.7,2.45-9.75-.26-14.67.11-8.33.45-16.57-1.53-24.9-.93-3.57,2.43-7.86,4.54-10.23,8.23.06,8.41,4,16.55,3.06,25-.17,2.68.93,5.23,1.48,7.81,2.41,6.33,2.38,13.37,1.9,20,0,4.15-2.49,7.64-3.51,11.55,2.8,2.73,3.54,6.74,3.89,10.48-.55,3.54-3.12,6.41-3.6,10-.41,4,.84,8,.13,12a43.26,43.26,0,0,0-.5,12.9c.95,3.63,2.82,7,3.64,10.64,1.11,4.74,0,9.59.37,14.38.53,4.44-1.19,8.74-1,13.17.41,1.79,1.48,3.34,2.09,5.06a98.35,98.35,0,0,0-1.79,14c-.33,2,1.11,3.56,2.08,5.12.07,1.82.11,3.64.14,5.47-3.05,1.05-5.78,3.49-9.18,3.11s-6.66,1.69-9.84.18c-3.78-1.43-8-4.6-12-2-2.59-.43-4.31,1.65-6.32,2.82a21.06,21.06,0,0,1-9.05-3.56c-3.1-2-2.34-6.14-3-9.25-.76-3.48,2.7-5.84,3.51-9-.14-2-.7-4-.78-6,.33-2.7,1.78-5.26,1.4-8-.2-2.65-1.39-5.23-.88-7.91.63-3.73,1.63-7.52.62-11.29l1.49-1.75a25.73,25.73,0,0,1-1-8.9c1.64-3.52,1.75-7.48,2.6-11.22-.29-2.33-1.5-4.45-1.8-6.79-.45-3.65.79-7.29.24-10.93-1.24-6.33.32-12.76,1.49-19a10.68,10.68,0,0,0,.9-6.59c2.34-3.1,1.41-7,1.34-10.61s.45-7.27.33-10.91-1.67-7.26-1.42-11c.13-2.71.22-5.41.27-8.12-.07-5.29,4-9.61,3.93-14.9a9,9,0,0,0-3.59-7.46c-4.11-3-8.06-7.15-13.56-7.15-4.77-1-8.81,3.19-13.52,1.9-3.5-.76-7,1-10.45.25-7.26-1.35-14.68-.5-22-1.38a34.43,34.43,0,0,0-11.12.92c-4,.87-7.9-1.52-11.9-.73-6.21,1.23-12.52,2.34-18.86,1.64a14.65,14.65,0,0,0-8.27-.35c-5.93-.45-11.89,0-17.81-.59-6.36.23-13.63-2.83-19.15,1.72-5.62,5.58-4.79,14.27-4.4,21.52l-1,2.17c.62,1.9,1.2,3.82,1.84,5.72l-1.86,3.56c1.11,3,1.68,6.33,3.86,8.79,5.16,6.25,14.16,8.4,21.89,6.89,1.8,1,3.5,3,5.8,2.6,5.07-.81,10,1.13,15.14.69,6.47-.92,12.45,3.05,18.93,2.24,5.06-.75,10.3-1.33,15.33-.08,3,.79,6.26-.09,9.09,1.42,3,1.61,6.42,1.86,9.7,2.51,3.16,2.52,5.11,6.37,6.16,10.21,1,7.19-3.6,13.78-2.66,21,.68,6.11-4,11.07-4.23,17-.07,4.08.46,8.16.23,12.25,1.2,1.73,2.93,3.38,2.93,5.64a42.77,42.77,0,0,0,1.19,11.88c-.58,1.69-1.51,3.33-1.51,5.16.49,2.56,3.09,4.28,3,7,.35,4.71,1,9.41,1.07,14.13.1,2.69-2,4.69-3.22,6.88-1.08,6.07-.68,14-6.54,17.75a25.3,25.3,0,0,1-16.43.89c-5.33,1.06-10.81,2.37-16.26,1.27-3.36-.8-6.69.39-10,1L208,240c-2.67-1.18-5.59-2.92-8.28-.74-3.49-.94-6.88-2.19-10.3-3.31-3.8,3.41-9.27,1.41-13.84,2.43l-2.42-1.45-3.05,1.73c-4.76-.38-9.61-.91-14.3.22-2.28.61-4.6,0-6.87-.29-.58,1.05-1.17,2.09-1.76,3.14l-2.34-2.43a71.26,71.26,0,0,0-8.94,4.07A54.57,54.57,0,0,1,125.83,238a23.56,23.56,0,0,1-.38-9.42l-1.29-1.11c.69-1.76,2.06-3.45,1.79-5.43-1.37-7.12.27-14.47-1.31-21.59a26.14,26.14,0,0,1-1.12-10.28c1.08-1.33,3.12-.89,4.61-1.36l2.33-1.78c3,.44,5.63,1.94,8.2,3.45,2.82,1.81,6.3.78,9.42,1.29,1.81.88,3.32,2.26,5.09,3.23a31.82,31.82,0,0,0,3.63-.83c5.17,2,10.76,2.25,16.22,1.67,4.32-.57,8.11,1.81,12.16,2.78,3,.19,5.94-.89,8.92-.38,3.28.46,6.43,2.35,9.81,1.33,2.67-.85,5.16.42,7.55,1.48a18.16,18.16,0,0,1,6.43-6.07l.79-2.24c2.07-3.93.58-8.77,3.42-12.47l-2.14.25,2.39-1.46c-1.11-2.33-2.28-4.65-3.37-7l1.38-1.48a39.81,39.81,0,0,1,3.11-9.95c2.73-4.9-.91-10.08-.14-15.21-2.16-2.44-5.34-3.27-8.38-4s-5.64-2.81-8.82-3c-4.5-.2-9-.71-13.5-.64a56.75,56.75,0,0,0-17.7-2.43c-4.77.32-9.18-2-13.88-2.26a80.61,80.61,0,0,1-16.25-1.84c-6.83-1.6-13.87-1.62-20.81-2.37-3.83-1-8.23-3.31-8.84-7.69.7-1,1.39-2,2.09-3-.19-1.35-.36-2.69-.54-4,2.63-3.07,3-7.15,2.59-11,.61-6.34,1.68-12.72.42-19-1-4.48,2.44-8.1,2.24-12.48L123.66,70c-.58-5,.64-10.09-.09-15.12a80.48,80.48,0,0,1-.23-20L122.14,33c1.34-2.55,2.75-5.07,4.09-7.62A152.85,152.85,0,0,1,126.12,8C126.15,5.34,129.11,4.58,131.18,4Z" style="fill:#fff"/><path d="M631,10.51c4.85.09,9.18-2.61,13.95-3,3.09.75,5.8,2.85,9.07,2.92a87.85,87.85,0,0,0,12.14.23c2.1-.5,3.9-1.82,5.89-2.64,1,1.5,2,3.45,4,3.71a12.94,12.94,0,0,1,9.46,6.82c1.38,3.76,1.25,8,3.6,11.43a12.13,12.13,0,0,1,1.09,12.3c.34,2.37.83,4.82.08,7.16-1.25,4.28-1.16,8.84-2.8,13-.83,1.55,0,3.14.38,4.69,1,3.5.63,7.2.51,10.79-.18,4.57-3,8.52-3.33,13.07a18.72,18.72,0,0,1-3.49,9.48c-1.89,2.92-4.73,6.83-2.4,10.27,4.17,5.16,11.73,5.24,16.38,9.79,4.24,4.09,6.21,9.91,7.31,15.55a100.8,100.8,0,0,1,.93,27.8A59.32,59.32,0,0,1,705,179c-1.62,4.12-.18,8.76-2.25,12.75-1.94,3.56.9,7.43,0,11.13-.87,1.5-2.09,2.76-3,4.25-.13,1.89.14,3.8-.08,5.7-1,2.46-3.32,4.14-4.3,6.61.17,1.91,1.08,3.71,1,5.65-.66,2.08-3,2.76-4.58,3.93-.16,1.34.57,3.28-1.21,3.75-4.95,2.09-10.3,3.74-15.74,3.06-2.75-.34-5.27,1.3-8,1.13-4.73-.77-9-3.52-13.91-3.51-2.88.53-5.27,2.42-8.09,3.13-3.76.54-7.14-1.88-10.87-1.83-4.86-.08-9.42,1.65-14,2.9-2.12.76-4-.86-6-1.32-2.66.84-5.33,2.14-8.18,1.35-8.18-.62-15.81-4.07-24-4.75-5-.48-9.9,2.59-14.9,1.27-2.59-.77-3.4-3.91-2.91-6.29.74-3.91,3.54-7,4.66-10.79.24-2.72-.64-5.41-.57-8.14.21-3.09-2.25-5.88-1.22-9,.73-2.91,2.76-5.24,3.91-8-.14-3.38-3.25-5.69-3.76-9a56.21,56.21,0,0,0,3.64-13c-.6-3.44-2.86-6.38-3.33-9.87-1-4.12.48-8.21.93-12.28.37-3.31-.53-6.57-.73-9.85-.27-4.75,2-9.25,1.66-14-.5-3.06-1.69-6-1.77-9.12-.19-4.74,1.4-9.27,2.32-13.85,1.37-5.74-2.06-11.29-.89-17.07,1.25-9.69-4.25-19.36-.7-28.84,1.8-4.88-.19-9.91-1.78-14.54-2.13-5.89-1.16-12.5-4-18.19-.73-2-2.25-4.59-.81-6.63a35.12,35.12,0,0,1,7.17-5c2.91-1.75,6,1.36,9.09.16a24.47,24.47,0,0,1,10.11-.73c3.68.57,7.18-2.07,10.82-.81a20.27,20.27,0,0,0,7.15.66c2.56-.37,4.5,1.92,7,1.95,3.13-.37,5.8-2.56,9-2.64A34.36,34.36,0,0,0,631,10.51ZM607.12,45.94c-2.53.82-3.29,3.65-4.47,5.73.85,1.7,1.91,3.41,1.73,5.4-.22,9.36.14,18.76-.27,28.08,1,4.5,3.61,9.15,7.93,11.16,5.31.36,10.71-.24,16,.9,4.45,1.11,8.4-2.48,12.89-1.64,5.26,1,11.07-1.24,13.39-6.25,2.61-4.24-.27-9.52,2.26-13.77,2.94-5.72,1.64-12.34,2-18.51-.19-3.39.67-7.89-2.52-10.17-3-1.51-6-2.93-9.07-4.14-4.06-.55-7.92,1.9-12,1.3-1.72-.55-3.26-1.53-4.94-2.16-2.19.45-4.18,2.91-6.46,1.72-2.72-1.25-5.61-2.42-8.64-1.57C611.58,41.76,610,45,607.12,45.94Zm40.34,89.7c-5.38,1.78-10.89-1-16.33.21-4.37.9-8.79-.62-13.17.23-3.48.85-7.8-.71-10.46,2.33-4.7,3.47-8.39,9.11-7,15.14,2.08,2.71,2.51,6.09,2.37,9.42-.39,3.34.88,6.64.07,9.95-.52,5-1.47,10.19-.05,15a60.73,60.73,0,0,0,10.16,9c8.49,1.88,17.33-1.72,25.86.16,2.36.63,4.6,2.33,7.15,1.6,3.28-.88,6.6.38,9.88,0,2.95-1.44,4.9-4.25,7.36-6.34,1.61-1.66,3.95-3,4.39-5.44a17.76,17.76,0,0,1,4.71-9.16c-.53-1.22-1-2.44-1.51-3.66.79-2.1,1-4.33-.71-6A47.49,47.49,0,0,0,668.92,151c-1-2.61,1.49-4.65,2.24-7-1.09-1.42-2.88-2-4.32-2.91-3.13-1.75-5.86-4.82-9.73-4.62C653.82,136.59,650.71,134.37,647.46,135.64Z" style="fill:#fff"/><path d="M802.26,11.22c3.7-1.53,8.61.67,11-3.34,2.51,1,4.83,2.86,7.67,2.48,3.71-.26,7.34,1,11.06.55,2.17-.06,4.92-.61,6.41,1.45,2.55,3.17,7.09,5.1,7.53,9.61,2,6.53-2,12.72-1.55,19.23-.46.87-.92,1.74-1.37,2.62.09.76.26,2.3.35,3.06-.5,1-1,2.1-1.48,3.15.42,1,.86,2,1.31,3.06A35.65,35.65,0,0,0,842.59,65c.72,2.65-1.74,4.56-2.22,7-.26,2.55,2.35,4.87,1.08,7.4s.3,5-.11,7.56c-.54,5.33,1.49,10.66,0,16-1.18,5,1.56,9.61,4.27,13.59,5.85,4.24,11.81,9,15.38,15.44,2.24,4.1-1.43,8.08-2.12,12.08-.73,4.71-2.64,9.28-2.58,14.09,1.39,5.15,2.66,11.09-.27,16-1,3.18-.79,6.63-1.81,9.83-.75,4.68-5.24,8.14-4.56,13.14.24,3.17-1.71,5.9-2,9,.71,2.08,2.55,3.71,2.75,6-1.11,3.7-5.94,4.6-7,8.36s1.51,7.08,1,10.7c-1.19,3.12-4.6,3.52-7.36,2.37-2.87,3.13-7.5,1.79-11.27,2.58-3-1.05-6-2.07-8.94-.3-2.71-1.57-5.32,0-8.05.42-2.63-.8-5-2.89-7.85-2.51a82.76,82.76,0,0,1-20.14.1c-2,.77-3.71,2.4-5.89,2.67-3.68-.79-7.16-2.68-11-2.52-2.51-.1-4.69,1.28-6.9,2.26l-3-1.24-2,1.17-3-.75c-5.42,2.29-10.69-1.65-16.2-1.44-4.54-.73-9.87,2.38-13.59-1.42-4-3.27-2.19-8.75-1.24-13,1.24-4.43.1-8.94-.28-13.39-.48-4.14,3.44-7,3.79-11,.25-7.71-.87-15.38-.57-23.09a22.72,22.72,0,0,1,.91-9c-2-2-4.9-3.76-4.85-6.93,0-4.91,2.41-9.34,3.31-14.07-.87-2.65-3.81-4.8-2.92-7.84,1-4.37.9-8.89,1.86-13.26,1-3.72-1.63-7.17-1.07-10.9.49-5,0-10-.39-15-.63-8,2-16.1,0-24.06-2.17-9.53.17-19.56-3-28.93-2.79-8.3-4.63-17.24-2.85-25.95,1.64-3.83,6.57-4.32,9.84-6.28,3.34.56,6.68,1.4,10.09,1,7.3-.64,14.62,0,21.93-.41,6.7-.28,13.53-.89,20.14.59,3.4.71,6.8,2.62,10.33,1.46C790.3,10.72,796.47,13.27,802.26,11.22ZM754,43.05a8.83,8.83,0,0,0-2.35,9.38c1.3,4-2.07,7.56-1.74,11.56C750.3,71,751.81,78,752.2,85c.33,4,.84,8.83,4.51,11.31s8.11,1.74,12.15,1.12c4.16-.9,8,1.68,12.15,1.46a22.75,22.75,0,0,1,9,1,11.57,11.57,0,0,1,7,.36c3.67-1.1,8.83.57,11.35-3,3.29-9,3.18-18.8,3.16-28.27-.49-3.8,1.18-7.34,1.69-11-.41-3.82-2.56-7.17-3.43-10.88-1-4.38-5.77-6.06-9.56-7.31-5.46-1.73-10.63,2.08-16.1,1.65S773.37,39.62,768,39.32A17.43,17.43,0,0,0,754,43.05Zm33,88.84c-3.71,1-7.33-.95-11-.86-2.09.2-3.9,1.34-5.87,1.9a33,33,0,0,1-4.27-1.58c-2.12,1.91-4.57,3.65-6,6.17a42.31,42.31,0,0,0-1,17.42c.82,3.74-3.28,7.34-.5,10.81A28.53,28.53,0,0,0,756,168c-.09,3.75,4.07,6.8,2.47,10.59-.94,3.24-1.79,7.4.72,10.14,1.86,2.18,3.37,5.11,6.34,5.92,4.67,1.57,9.69.24,14.46,1.26,5.5,1.69,11.31-.08,16.92,1.11,4.21,1.13,8.45-.64,12.49-1.67,3.68-4.06,2.89-10,3.53-15.09,1.78-1.39,3.82-2.93,4.26-5.31,1.52-6.34-1.3-12.62-1.12-19,.31-6.87.42-13.94-1.7-20.56a6.81,6.81,0,0,0-5.33-4.36C801.75,129.59,794.21,130.24,787,131.89Z" style="fill:#fff"/><path d="M871.19,12.3a23.81,23.81,0,0,1,7.86-4.06c3-1.26,6,.55,9,.84,2.72-.14,5.38-1.27,8.13-.88,3.68.85,7,3,10.89,3.17,3.6.08,7.24-1.2,10.81-.11,7.12,1.46,14.76,1.2,21.26-2.29a18.16,18.16,0,0,1,10.42,1.35c4.63,2,9.51-.38,14.28-.4,1,.93,1.83,2.33,3.31,2.6,2.31.8,3.95-1.47,6-2.18,3.95-.47,7.86.89,11.8.76,2.52-1,5.06-3.06,7.94-1.89,3.42,1.26,7.33,1.66,10.4,3.67.86,5.9,1.67,12,1,18.06-.34,4.95,1,10-.5,14.87-1,3-1.43,6.22-2.5,9.21-2,2.75-5.93,1.14-8.74,1-3.34-3.71-8.76-4.12-13.37-3.23a27.67,27.67,0,0,1-12.58-1.06c-3.77-1.09-7.7-.49-11.54-.82-5.09-.84-9.86,2.12-15,1.21-6.44.25-11.74-4.22-18.06-4.46-4.31-.53-8.71,2.57-10.33,6.42.08,9-3.51,18-.56,26.93-1.32,2.5-2.44,5-2.16,8a4.17,4.17,0,0,0-1,6,40.8,40.8,0,0,0,7.26,6c5.14,2,11,.92,16,3.5A130.23,130.23,0,0,1,954,107.45c3.09.91,6.48-.61,9.39,1.16,5.87,2.58,12.28,3.09,18.61,2.92,7,1.44,15.32-2.19,21.15,3.28,3.13,2.06,3.06,6,3.77,9.29a23.83,23.83,0,0,1-.51,13.31c-6.52,8.78-5,20.32-5,30.58.67,4.14-2.17,8.17-.53,12.19a21.62,21.62,0,0,1,.85,6.56,19.33,19.33,0,0,0-1.11,2.29c-.61,5.75-.09,11.79-2.32,17.24-1.56,2.91,1.53,5.57,1.62,8.53.77,3.62-1.91,6.68-1.88,10.23.06,5.55-6.15,8.14-10.56,9.79-5.85,2.92-12.55,1.62-18.46-.38-4.42-1.55-8.71,1.62-13.08,1.09-5.75-1.94-11.94-.9-17.79,0-3.29,2.74-6.58-.73-10-1.28-2.82-.93-5.28,1.2-8,1.51-2.29.18-4.58,0-6.86,0-3.72,3.22-7.91-1.24-12-.47a17.56,17.56,0,0,1-6.38.14c-7.25-1.2-14.58.27-21.86-.1a4.7,4.7,0,0,1-4.26-3c-2.15-5.2-1.85-11-.8-16.42a117.76,117.76,0,0,0-1-13c1.07-3.08,2.39-6.26.48-9.36a14.4,14.4,0,0,1,9.64-5.12c1.63.46,3.17,1.29,4.86,1.64,7-.09,14.53-1.84,21.15,1.36,6.85,1.37,14,2.77,21,1.4,3.1-.37,5.78,1.65,8.6,2.63,3.65,1.56,7.54-1.12,11.27,0,3.29,1,6.63-.23,9.87-.87,4.11-1.63,6.55-6,6.82-10.3l1.13-1.34a56.24,56.24,0,0,0-.83-12c-.48-3.23,2.45-5.73,2.22-8.94,0-3.72.15-7.45-.18-11.16-.56-5.35-4.14-10.56-9.39-12.19-3.44-1-7-.3-10.52-.32-4.38.17-8.67-.83-13-1.2-4.77-.49-9.22-2.5-14-3-3.12-.35-6.26,1.4-9.29.17a27.07,27.07,0,0,0-12.71-1.7c-3.8-.06-7.13,3-11,1.89a17.54,17.54,0,0,1-8.92-6.81c-2.37-4.2-2.36-9.19-3.26-13.81-1-4.1,1-8,1.74-11.9-.57-2.75-2.22-5.18-2.53-8,.09-3.17,2.08-5.93,2.2-9.11.38-9-.37-18.08.36-27.08,1.27-4.54.62-9.26,1.34-13.88-.36-2.89-3.43-4.86-3.38-7.94.2-6,2.75-11.95,1.52-18C871.83,16.15,870.38,14.2,871.19,12.3Z" style="fill:#fff"/><path d="M402.89,13c.18-3,3.65-4,6.15-4,2.48,1.29,4.89,3.06,7.86,2.86,2.31.45,4-1.42,6.09-2,1.86.35,3.28,1.72,5,2.43,2.31-.49,4.47-1.83,6.91-1.53,4,.32,8.06-.76,12,.39a46.39,46.39,0,0,0,5.89,1.13q1.2,2,2.54,4c-.21,2.23-.49,4.45-.79,6.67-3.11,4.2.51,9.64-2.1,14.11,1.57,6.3-1.14,12.81,1.19,18.92-1.08,3-2.86,5.86-2.84,9.12,0,2.3,1.93,3.89,2.68,5.94-.5,4.31-2.49,8.54-1.63,13,.87,5,.16,10,.52,15.06-.08,4.35,1.08,8.66.6,13-.7,6.06,1.25,12,1,18.1-.25,3.2,1.15,6.52-.36,9.55-1.71,4.12,1.29,8.35.05,12.57-.05,8.61-1.15,17.18-.42,25.75-.51,5.74-.2,12.4,4.22,16.67,3,3,7.57,3.07,11.56,2.88,5.72,0,11.8-1.41,17.09,1.43,2.65-.9,5.23-2.34,8.11-1.41,2.15-2.12,5.26-4.07,5.32-7.44.38-4,1.14-8,1.85-12,1-5.32-.26-10.69.12-16,.2-3.38-.71-6.68-.67-10,.05-3.19,3.42-5.69,2.36-9-.46-2.89-2.49-5.22-3.07-8.05.21-3,2-5.95.88-9a24.62,24.62,0,0,1-.67-10.86c.87-5-.64-10.22.65-15.21.89-4.95,0-10,.52-15,.39-4.38-1.12-9,1.07-13.12A27.35,27.35,0,0,1,501,67.05a23.14,23.14,0,0,0-.33-17.16c.06-1.61.83-3.1,1.05-4.69-.44-1.17-1-2.27-1.47-3.43-.64-7.24.14-14.71-2-21.75a18.32,18.32,0,0,1,1.4-10.09c2.59,0,5.32.17,7.53-1.44,1.54.82,2.86,2.77,4.81,2.33,4.51-1.16,8.58,1.82,13.07,1.65a19.28,19.28,0,0,0,10.08-2.36c1.29-.83,2.62.55,3.91.81a26.76,26.76,0,0,1,3.86-1.14c2.31.85,3.41,3.11,4.36,5.2l2.39,1a38.43,38.43,0,0,1-2.07,5.64c-2.32,4.47-2.22,9.63-3.58,14.39-.73,3-2.41,5.88-2,9.08.83,7.28-.44,14.69,1.35,21.87,1.21,4.18-1.16,8-2.13,11.93-.88,3.61,2.42,6.45,2.49,10a57.75,57.75,0,0,1-1.26,16.22c-1.1,3.81,2.08,7.1,1.8,10.87-.42,4.05-2.21,7.88-2,12,.18,6.36-1.24,12.65-.75,19,.09,4.39,1.16,8.67,1.57,13,.42,4-1.34,7.89-1.38,11.9,0,2.59,1.73,5.44,0,7.79s-1.41,5.46-1.25,8.31c-2.18,5.4-3.09,11.7-.7,17.2,1.61,3.73.93,7.82.53,11.72-.7,4.82,2.67,9.3,1.43,14.15a6.5,6.5,0,0,1-5.74,5.46c-6.35.68-12.6-1.11-18.76-2.35-4.68.79-9.42,1.77-14.18,1.23-4-.13-8.9-2.05-11.68,1.89a14.92,14.92,0,0,0-14.43-.88l-2.7-1.78c-4,1.88-7.18-2-11.17-1.74-2.2-.5-4.13.65-5.91,1.75-4.53-2.86-10.16-1-15.09-.6A45.43,45.43,0,0,0,426,235c-1.6.25-2.79,1.4-4,2.32-3.56-.37-7.88-.92-9.83-4.37-1.07-1.72-.05-3.63.39-5.36.91-2.47.33-5.12.51-7.68.58-2.61,3.2-5,1.72-7.79-2.34-5.09-2.37-10.74-2.89-16.21-.63-5.07,3.82-8.94,3.63-14,.47-5.08-1.2-10-1.34-15,1-4-1.15-7.81-.33-11.78,1-5.11-1.93-10-1.24-15.06,1.09-8.1-.47-16.25-2.15-24.13,1.81-4.14,1.36-8.7,2.46-13,0-3.54-3-6.3-3.44-9.81-.57-7,.58-14.09.15-21.14-.32-6,.08-12-.16-17.94-1.22-10.45-2.35-21.13-6.59-30.88C401.34,20,402.11,16.3,402.89,13Z" style="fill:#fff"/><path d="M131.58,250.35c3.57-.45,3.74-4.88,6.34-6.57,4.55.45,7.58,4.62,12.05,5.28,9,1.25,18.23-1.42,27.08,1.06,4.8,1.1,9.38-2.94,14.14-1.25,2.68,1.35,5.14-.92,7.75-1.27,3,.46,5.93,1.78,9,.85,6.28-1.75,12.88.64,19.09-1.48,3.29-1.2,6.67,0,9.95.56,4.81,1.15,9.33-2.67,14.13-1.18,5.59,1.59,11.6,4.06,17.4,2,2.08-.56,4.25-2.32,6.43-1.11,1.91.95,4,2,5.18,3.85.27,4.09,1,8.46-.75,12.34-1.72,2.87.37,6.17-.94,9.17-1.51,3.92.8,7.68,1.6,11.45-.07,2-.56,4-.61,6,.41,3.09,2.18,5.89,2.12,9.07-.43,3.57,2.9,6.94.9,10.4-2.24,3.2-6.43,3.52-9.92,4.3-4.48,1-9-.57-13.5.26-2.14.69-4-.75-6.08-1-2.64.36-5.33,2.33-7.94.83a18,18,0,0,0-11.46-1.68l-2.38-1.83c-3.08-.31-5.56,1.51-8.16,2.8-4.27,1.2-8.51-1.83-12.82-.89-2.42.57-4.7,1.64-7.15,2.08a41.46,41.46,0,0,1-5.73-1.13c-1.35.5-2.74.94-4.12,1.36l-1.08,1.94c-2.36-.64-4.81-1.59-7.24-.67-2,1-3.81-.67-5.8-.78-1.7.6-3.21,1.65-5,2.11-2.77-.2-5.28-1.51-8-2-5.25-.38-9.93,2.61-15,3.11-2.67-.33-5.34-.72-8-.13-5.41-2.75-12.19-2.92-16.52-7.62-1.56-3.45-2.64-7.11-4-10.63-1.59-4.25,3.11-7.7,2.15-12-.83-3-.27-6,.27-9-.55-3.69-.89-7.39.32-11-.64-1.55-1.73-3.13-.86-4.83,1.41-3.28.11-6.71.2-10.09C125.61,250.25,129.29,251.27,131.58,250.35Z" style="fill:#fff"/><path d="M320.6,245.7c3.44-3.13,6.68,1.77,10.38,1.39a15,15,0,0,1,9.22,3.73c2.9,2.28,2.83,6.77,1.28,9.81A9.37,9.37,0,0,1,333,263a6.32,6.32,0,0,0-7.52,4.33c-1.15,4.18-.18,8.59-1,12.83-1,4,1.5,7.77.9,11.76-1.11,7.13,0,14.55-1.89,21.55-1.45,4.62-8.76,5.41-10.49.61-.77-4-.45-8.27-1.67-12.26-1.65-4.53.91-9.25-.36-13.83-.27-2.16-1.59-4.78.33-6.54,4.94-4.74,4.07-13.77-1.12-17.89-5.3-1.39-10.72,1.27-16.1.85-3.8-1-6.29-6.49-3.08-9.45a46.3,46.3,0,0,0,7.35-6.64c2.76-1.42,6.17-3.56,9.25-1.83s6.45-1.36,9.6.24C318.49,247.53,319.54,246.38,320.6,245.7Z" style="fill:#fff"/><path d="M414,247.7c1.84.08,3.16-1.62,5-1.67a45.61,45.61,0,0,1,5.88,1.16,26.42,26.42,0,0,1,3.72-.77c1.77,1.77,3.51,3.93,3.7,6.52.36,4.37-4.59,5.62-7,8.35-3.5,1-8.13-.05-10.77,3.13-1.52,2.28-2.37,6-.09,8.05,3.17,2.63,7.66,1.16,11.22,2.81,2.51,1.1,5.42,1.7,7.45,3.66,1.08,2.21,1.2,4.74,1.68,7.13A45.06,45.06,0,0,1,422,291.9c-2.61,2.08,1,4.19,3,4.88,2.86.64,4.22,3.37,6.09,5.33.87,3.47,4,6.72,2.37,10.46-.53,2.4-3.17,3.31-5.35,3.26a52.08,52.08,0,0,0-13,1.1,21.2,21.2,0,0,1-16.89-8c-2-3.55.72-6.86,2.27-9.92A30.9,30.9,0,0,0,397.74,285c.78-4.68,0-9.67,2.23-14-1.55-5.51-4.3-11.19-3.14-17,1.92-2.4,4.83-3.9,7.22-5.83C407.32,247.68,410.67,248,414,247.7Z" style="fill:#fff"/><path d="M374.14,250c3.07-.94,6.35-1.43,9-3.47,1.9,2.66,4.78,4.53,6.36,7.43.92,4-1.55,7.43-2.91,10.93.72,5.3.52,11.18-2.9,15.57-1.49,4.42.59,9,.37,13.57-.43,3.67,3,6.34,2.77,9.95-.2,3.45,1.35,7.68-1.42,10.44a6.38,6.38,0,0,1-6.48,2.43c-5.53-6.08-5.84-14.78-6.33-22.56-2.16-2.53-5.95-1.83-8.39-.1A24.51,24.51,0,0,0,361.74,307c-.81,2.95-1.55,6-3.16,8.62-1.62,2.09-5.06,1.24-6.39-.75a16.48,16.48,0,0,1-2.46-13.34c1.51-6.74,1.24-13.68.67-20.51a65.91,65.91,0,0,0-.06-15.88c-.45-3.34-.54-7-3-9.62.24-3,2.47-4.95,4.54-6.85,2.43-.26,5-.83,7.36.17a41.66,41.66,0,0,1,5.53,3.52c.27,1.86,1.58,3.83.65,5.68-1,2.26-1.92,4.61-1.31,7.13.59,3-1,6.78,1.56,9.16,1.2,1.38,3.6,1.76,4.76.12,1.85-1.65,1.45-4.23,1-6.37-.76-3.34,1-6.75-.33-10C369.65,255,371.37,251.52,374.14,250Z" style="fill:#fff"/><path d="M970.59,249.52c1.4-.72,2.37-2,3.57-3,3.53,1.64,6.64,4.42,10.69,4.75,4.29.5,8.29,2.21,12.31,3.71,2.83,1,3.71,4.29,3.24,7-.78,5.43-1.81,10.82-2.73,16.23-.49,3.24-3.83,5.38-3.67,8.79.17,6.05,1.33,12.1,0,18.11,1.28,2.16,3.42,4.24,2.63,7-.85,4.27-3.84,9.09-8.68,9.21a82.31,82.31,0,0,1-15.22-2.39c-.88.37-1.75.75-2.61,1.13-4.1-1.47-8.21.68-12.23,1.39-5.23,1.55-10.72.66-15.89-.65l-3.74,1.53c-2.1-1.42-4.56-2.57-7.15-2.09-3.35.53-6.79.11-10.07,1a10.83,10.83,0,0,0-4-1.17c-6-.17-12,.2-18-.74-4.1-.68-8-2.3-12.11-2.8-3.07-.5-6,1-8.94,1.32-3,.12-6-1.47-9-.88-6,1-12.12,0-18.06-1.05-4.62-.94-9.23.4-13.82.82a79.49,79.49,0,0,1-12.15.11c-3.16-.23-5.82,2-8.92,2.11-6.4-.62-12.66-2.54-19.12-2.31-7.33.16-14.72-1.43-22,.21-5,1.34-9.86-1.45-14.88-1.16a35.14,35.14,0,0,0-11.17,2.75c-3.85-2.73-8.65-.59-12.78-2.33-7,3.12-14.8-.07-22,1.41-2.4.64-4.65-.66-7-.8-1.74.59-3.37,1.48-5.13,2-2.43-.35-4.62-1.56-7-2a17.46,17.46,0,0,1-4.77.93c-2.73,1.05-6.13,1.61-8.75,0-5.46-2.88-11.63,1-17.35-.68-4.74-1.69-9.29,1.44-14.12.83-9.07,1.13-18-1.38-27-1.86-4.35-.1-8.58-1.44-12.94-1.38-3.27.12-6.12,1.81-9.11,2.9a20.54,20.54,0,0,0-8,.54c-2.51.76-4.35-2.2-6.91-1.66-4.24-.42-8.08,1.56-12.11,2.3-3.78-.71-7.66-.08-11.41-1-3.06-.79-6.37.8-9.22-.93a12,12,0,0,0-10.63.25c-1.88,1-3.86-.19-5.74-.52-6.31-1.78-12.75.42-19,1.1-6.08.81-12-2.39-18-1.18-5.65,1-11.65,0-17,2.53-2.61,1.59-5.14-1.26-7.86-.93-3.81-.44-7,3.22-10.86,1.78-3.49-1.29-8.07,0-10.69-3.12-2.47-2.74-4.95-6.63-3.2-10.38,2.38-5.78,1.28-12.14,1.22-18.21-.55-7.09,2.26-14,1.44-21.06,0-3.95-2-7.45-3.21-11.09-1-2.81,1.43-5.29,3.71-6.52,4.47-2.37,9.73-1.51,14.6-1.9,3.77,2.44,8,.67,12,.11,2,.65,4,1.43,6.11,1,3.49-.45,6.33,2.51,9.85,2.21,3.27,0,6.62,1.14,9.81,0a32.2,32.2,0,0,1,19.15-.92c1.62-.28,3.28-.75,4.93-.27,3.3.84,6.77.25,10,1.27a17.52,17.52,0,0,1,7,0c3,.7,6-.3,9-.34,3,.28,5.94,2,9.08,1.51a14.74,14.74,0,0,0,7-2.64c6.94.7,14,1.83,20.95.59,4.87-.95,9.12,2.7,14,2.53,7-.43,14-3.49,20.94-1.79,3.66.66,7.47-.69,11,1,2.69,1.54,4.61-1.61,7-2.31a64.49,64.49,0,0,1,10.17,2.92c5,1.74,10.2-1.82,15,.95,5.63-3.59,12.57-3,19-2.86,3.11-.25,5.73,2.45,8.9,1.63,5.53-1,10.9,1.22,16.21,2.41,3.44,1.1,6.38-2.71,9.88-1.36,6.25,2,12.66-.38,19,.31,4.11.7,7.86-2,12-1.47,3.44,0,6.7,1.2,10.05,1.8,3.66-.48,7.23-1.56,10.92-1.92a106.74,106.74,0,0,1,17,1.36c4.21.9,7.91-2,12-2.35,3.15.75,5.88,2.67,9,3.4,2.31.57,4.41-.85,6.51-1.58,2.36-1.09,5-.35,7.49-.36,3.75.22,7.31-1.88,11.09-1.14,4.15.41,7.91,2.41,12,3.17,2.06-.25,4-1.11,6-1.47,2.28.39,4.48,1.69,6.86,1,4.33-1.08,8.64,1.76,13,.2a63.66,63.66,0,0,1,20.18-2.9c2.67.24,5.15,1.55,7.86,1.57,6.05-.33,12-2.52,18.11-1.47A57.18,57.18,0,0,1,936,252.5c4.34-.42,8.73,0,13-.84,3.54-.23,7.23.35,10.65-.92C963.17,249.28,967,250.49,970.59,249.52Z" style="fill:#fff"/><path d="M234.51,328.68c6.41,2.28,13.55.47,19.5-2.38,4.07-.35,7.82,2.76,12,2.18,2.75-.46,5.15,1.61,7.92.9,3.87-.73,7.29,4,5.93,7.56-1.63,4.53-3,9.21-5.79,13.22-2.13,4.77-4.11,9.63-7,14-1.64,2.28-.94,5.31-2,7.78-2.9,5-8.87,7.73-10.55,13.53-4.35,5.53-6.14,12.54-9.37,18.65a21.76,21.76,0,0,0-3.41,4.64c-1.86,4-4.93,7.2-6.43,11.34-3.37,5.53-6.66,11.32-11.73,15.51-1.27,1-3,1.74-3.51,3.43-1.23,3.21-4.47,4.92-6.33,7.72-3.14,4.43-7.83,7.44-11,11.86-2.29,3.34-6.52,5.9-6.48,10.38.17,2.5-1.35,4.53-2.73,6.45-3.29,4.46-4.76,9.91-7.72,14.56-1.42,4.75,2.26,8.8,5.84,11.33,3.65,3.95,9-.55,13.34,1.59,3.33-1,6.75.58,10.07-.45,2.68-.91,5.34.39,8,.65,7-.4,14.06-2,21.07-.86,3.66.57,7.34-.61,11,0,3.31.76,6.49-1.87,9.75-.68,4.64,1.39,9.71,1.24,14.15,3.31,1.72,4.25.41,9.14-.42,13.51-2.17,6.27-3.44,13-2.69,19.6,0,1.36,1.06,2.29,1.77,3.32a21,21,0,0,1,.83,7.4c.62,2.93,3.47,6.75.31,9.16a18.25,18.25,0,0,1-17.15,1.85,9,9,0,0,1-5.19-1c-3.83-.74-7.69-1.71-11.53-.44a64.47,64.47,0,0,0-14.07-1.55c-6.6-1.56-13.86-.06-19.82-3.94a29.56,29.56,0,0,1-4.17.82c-5.58-1.09-11.26,0-16.89-.53-7.09-.06-14.63-2.86-21.34.61-4.5.95-9.22,1.72-13.83,1-3.31,0-6.56.87-9.86,1.15-5.83.43-11.07,3.71-17,3.45-4.9-.36-9.46,1.49-14,3.16-1.45.38-3.29,1.41-4.52,0a18.49,18.49,0,0,1-4.72-8.59A25,25,0,0,1,109,545c3-3.47,4.79-8,9-10.39,2-4.21,6.69-6.65,7.48-11.49,3.25-5.53,4.8-11.8,6.22-18,.78-3.77,2.64-7.18,3.59-10.89,1.08-5.09,4.9-8.93,7.38-13.37,1.18-3.56,2-7.23,2.87-10.87.78-3.31,4.44-4.85,5.43-8.08.84-2.7,2.69-4.8,4.36-7-.26-4.68,1.37-9.53,5.19-12.44,2.19-1.47,2.19-4.33,3.13-6.55,2.42-7.4,7.94-13.13,11.34-20,1.32-2.61,4-4,5.94-6.08,1-1.44,1.25-3.26,2.32-4.63,2.16-2.17,5.18-3.32,7.17-5.67.67-1.51,1-3.15,1.63-4.66,1.28-1.07,2.85-1.71,4.15-2.74a48.46,48.46,0,0,1,8.76-14.33c2.1-3.06-.51-6.75-2.7-9-1.25-1.73-3.46-.54-5.2-.73-4.95-.31-9.94-1.25-14.88-.31-4.64.9-9.45-.81-14,.81-8.77,3-18.35,2-27.18,4.8-4.93,1-9.73,4.05-14.91,2.67-2.37-.37-4.47-2.62-3.83-5.12,1.1-5.35,4.25-10.25,3.94-15.89-.4-5.4,1.77-11.82-2.61-16.11.13-1.92-.1-3.93.55-5.77,2.65-1.63,6.2-1.22,8.48-3.61,5.3-1.74,11.32-3.1,16.65-.78,5-.72,10.05-.51,15.07-.8.88.3,1.76.62,2.63.94a12.06,12.06,0,0,1,8.06-.16c1.67-.37,3.32-1.06,5.07-1,2.13.95,3.87,2.57,5.82,3.84a17.51,17.51,0,0,1,6.3.83c6,1.15,12-2.76,17.92-.42C218.39,332.14,226.1,326.7,234.51,328.68Z" style="fill:#fff"/><path d="M307.86,328.73c3.66-1.15,7.13-3.63,11.16-3.13a31.94,31.94,0,0,1,7.66,1.77c4.14,2.22,8.89,2.69,13.4,3.78,1.46.49,2.73-.67,4.09-1,2.71-1.15,5.87.7,8.47-.89,2.9-1.42,6.26-.54,9.37-.93,2.25-.31,3.7,2.21,6,2,5.38-.17,10.54,1.79,15.85,2.1,5-1.59,10.08-.62,15.14-.23l1.86-1.82a7.33,7.33,0,0,0,8.33-.17c3,1.41,6.23,1.81,9.13-.17l2.49,1.37a34.42,34.42,0,0,1,5.13-1.09c2.39,1.94,5.12,3.41,7.57,5.25,1.76,3.12,1.58,7,2.11,10.43s-3.26,6.32-2.62,9.92c.6,4.28-1,8.47-1.7,12.65-2.89,6-2.62,12.88-1.73,19.32,1.11,4.1,3,8,3.4,12.3-.61,2.66-3.8,4.64-2.66,7.64,2.33,10.36-2.79,20.78-.55,31.12.64,5.12-2.28,11.21,1.91,15.44-.74,5.57-.3,11.2-1,16.77-.21,2,.52,3.91.73,5.88-.2,1.7-.88,3.3-1.18,5,.15,2.05,1.06,3.94,1.31,6-.31,3.09-1.94,5.93-1.92,9.07.52,2.24,2.26,3.94,3.14,6.05.24,4.88-3.17,9.56-1.47,14.45,1.24,3.39,0,6.9.2,10.38,1.2,2.79,3.16,5.22,3.89,8.22.54,2.47,3.31,3.59,4.08,5.91-.19,3.49-.11,7,1.31,10.28-2,1.86-3.18,4.73-5.83,5.72-3.38.35-7.06-.75-10,1.39-3.83-1-7.74-2.64-11.75-1.71-4.74.94-10,2.85-14.26-.42l-3.4.26c-5.53,0-10.93-1.83-16.49-1.44-3.41.3-6.87.31-10.17,1.32-3.38.06-6.37-2.09-9.72-2.3-4.57-.58-8.6,2.35-13.12,2.35-3.48.41-6.55-2.1-10-1.46a52,52,0,0,1-10.87.25c-5.2-.6-9.94,2.59-15.13,2.07-3.34-.1-7,1.68-10.11-.12-2.1-1.83-3.53-4.28-5.36-6.35,1.12-2.3,2.34-4.56,3.51-6.84-1.17-3.47-1.85-7.46.36-10.67a11.19,11.19,0,0,1,.33-5.36c-.94-4.64.19-9.37.14-14-.28-4.32,0-8.65,0-13-1-3-3-6.35-1.11-9.4,2-4.06-.07-8.47-.46-12.64-.21-2.47-1.3-4.73-2.12-7,1-.67,1.94-1.32,2.92-2-.64-2.72-1.85-5.28-2.33-8,1.72-4.82,1.83-9.93,2.06-15-.39-2.72-2.21-5.11-2-7.93-.12-2.9,1.18-5.52,2-8.21.4-3.26,0-6.58.43-9.85.79-8-.65-16,.2-24,1-4.3,1.14-8.72,2-13.05.91-7-1.76-13.89-.48-20.79-.69-3.79-2.62-7.27-3-11.11-.31-6.47-2.89-12.56-3.86-18.92.25-1.79,1.82-3,3.08-4.16A80.52,80.52,0,0,1,307.86,328.73Zm61.82,20.81a68,68,0,0,0,5.57,9.12c-5.31,3.65-9.37,9.85-9.11,16.45,0,2.46,2.2,3.91,3.78,5.47a42.27,42.27,0,0,1-6.6,1.09c.52-2.41,1.11-4.79,1.7-7.17q-7.86-6.78-15.59-13.7c-5.81,6.34-11.36,12.91-17.17,19.26a5.41,5.41,0,0,1,2.68,2c-2.09,4.49-6.73,7.78-7,13-1.71,11-3.81,22-5.41,33-.82,4.16,1,8.06,2.43,11.84l8.77,4.66,1.86-3.55-6.4-4c-.07-1.49-.14-3-.2-4.44l2.42-.26c.63,1.79.8,4.19,3.35,4.09-.41-3.95-2.45-7.91-6.47-9.15q3.72-14.07,7.35-28.16c.79-4.07,4.68-6.31,7.15-9.32.19.78.57,2.36.75,3.14,1.51-2.14,3-4.28,4.56-6.38-1.17,9.8-2.36,19.61-3.68,29.4-1.75,8.51-3.82,16.95-5.68,25.43l4.88,1.27c.56,6.22-.56,12.66,1.28,18.71.94-.58,1.89-1.14,2.84-1.71.3,4.41.57,8.83.86,13.25l-3.27-.85c-2.07,5.43.45,11.36-1.58,16.79-3.79,12.38-7.5,24.78-11.24,37.18l3.3,1c-.36,2.36-.73,4.72-1.09,7.08,7,2.42,14.06,4.88,21.1,7.26.07-.75.2-2.27.27-3-3.13-2.62-6.17-5.34-9.31-7.94l2.8.57c3.86-11.88,7.22-23.91,10.9-35.84.89-3.27,2.47-6.51,2.08-10-.73-11.64-1.49-23.29-2.12-34.93,6.35,19.76,12,39.73,17.62,59.72q1.05-2.55,2.16-5.07c3.67,4.28,3.82,10.17,5.46,15.34q-5.76,4.07-11.53,8.12c0,.75,0,2.26,0,3L395.89,526c.79-8.5-5.78-16.35-3.09-24.72-5.92-22.12-12-44.19-18-66.3a17.64,17.64,0,0,0-1.66-3.77l-4.31-3.52c1-1.15,2-2.32,3-3.46-1.49-.56-3-1.15-4.44-1.72l3.69-4L369,413.82c2-.18,4-.34,6-.51.33-1.51.65-3,1-4.53l3.94,2.51c.86-2.2,1.74-4.4,2.61-6.59,5.33,3.56,10.54,7.3,15.79,11-2,3.85-4,7.73-6,11.6,1.09.68,2.2,1.36,3.32,2-.39,1.3-.78,2.6-1.16,3.91-4,.36-6.53,3.69-8.06,7.11l2.27.95c.5-1.19,1-2.37,1.51-3.55l2.53.46c-.16,1.74-.31,3.49-.46,5.23l-7,1.37c.17,1,.35,2,.54,3,3.26-.49,6.52-1,9.79-1.46a44.13,44.13,0,0,0,5.89-13.71l2.27,1.23c3.23-7.15,6.33-14.34,9.51-21.51q-17.91-15.78-35.78-31.61c-.65,2.21-1.34,4.41-2.11,6.58a20.41,20.41,0,0,1-3.36-6.64,23,23,0,0,0,14.65-6.41,41.39,41.39,0,0,0,5.48,6.06c-.35-2.95-2.14-5.38-3.6-7.85,2.47-2.79,5.37-5.6,6.2-9.38a3.34,3.34,0,0,0-1.44-3.46c-2.37-.84-5.61.7-7.28-1.8-.09-2.1.14-4.19.23-6.27a42.57,42.57,0,0,0-9.24,5.12C374.67,354.26,372.88,351,369.68,349.54Z" style="fill:#fff"/><path d="M471,330.16c5.18,1.43,9.32-4.7,14.59-2.51,3.7,2.59,8.74,3.44,11.12,7.67,2.71,8.34,3.77,17.13,5.36,25.73l1.87,2c-.09,3-.8,6.06-.79,9.12,2.55,5,2,10.92,3.41,16.31,1.56,3.1,3.17,6.19,4.86,9.23,1.41,2.81,4.63,4,6.44,6.44.88,1.84,1.2,3.94,2.41,5.64,1.74,2.46,1.66,5.81,3.93,8,3.45,3.66,4.13,8.88,7,12.88,2.07,3.07,4.64,5.82,6.07,9.29,2.15,1,4.32,2.11,6.73,2.27A32.26,32.26,0,0,0,552.8,431c.16-5.79,3-11.54.87-17.24l1.49-2.77c-.28-5.27,5.77-8.59,5.32-14-.92-6.48,4-11.74,4.16-18.07.85-4.38,4.17-8.25,3.25-13,1.9-5.11,2.56-10.61,3.33-16-.3-2.5.86-4.64,1.86-6.81.19-3.09,0-7.15,3-9,3-2.24,6.8-2.68,10.28-3.76,2.57-1,4.89,1.72,7.54.82,3.76-1,7.5,1,11.25,0,2.79-1,5.12,1.37,7.78,1.74,4.42-2.55,11.13-1.32,13.49,3.52,1,2.57-.71,4.84-1.87,7-1.61,8.82,0,18-2.46,26.65-.2,6.31.19,12.63,0,18.94-.19,3.75,1.95,7.2,1.46,11,.14,3.79-2.57,7.14-1.85,11,.51,3.75,1.45,7.46,1.24,11.28l1.55,1.66c.64,3.4,0,6.76-.53,10.11a74.16,74.16,0,0,1,3.94,15c-.77,4.75,1.13,9.33.7,14.07-.08,3.65-2.17,7.15-.88,10.8s-.74,7.44.22,11.16c.74,2.25-.77,4.2-1.74,6.1-.16,3.66,1.06,7.35.24,11-.93,3.34.76,6.76-.16,10.11-1,3.1,2,5.63,1.67,8.75-.61,5.65.79,11.3,2.83,16.55,2.64,4.67,3.19,11.5-.55,15.74a79.07,79.07,0,0,1-9.27,1.82c-3.13.63-5.58-3.25-8.67-1.79s-6.12-.76-9.25-.65c-6.48-.67-13.82,2.4-19.4-2.27-1.78-3.48-1.87-7.54-2.23-11.37,1-4.35,3.31-8.41,3.4-12.9l1.2-2a11.77,11.77,0,0,1,1.35-6.14,15.06,15.06,0,0,1,.28-6c1.62-3.71-1.91-7.6.7-11.08a26.44,26.44,0,0,1-.6-8.77c.63-4.74-1.89-9.33-.79-14,.54-2.76,2.79-5.16,2-8.1A38.77,38.77,0,0,1,589.7,456c1.07-3.75-2.17-6.71-4.17-9.45-3.55-.52-6.42-2.61-9.55-4.14l-1.72.71c-1.46,2.81-3.08,5.53-4.62,8.3-.58,2.79.07,5.68-.07,8.51,0,5.66-3.83,10.4-4.34,16-.45,3.11-2.72,5.78-2.26,9.05.72,5.07-2.91,9.23-3.24,14.13-.23,3.82-3.13,7-2.73,10.88A52.13,52.13,0,0,1,555.63,522c.07,4.31.12,8.63.49,12.93-1,3.93-2.34,8-5.08,11.07-2.11,2.2-4.58-.54-5.91-2.17-4.8-4.25-1.43-11.8-5.72-16.34-1.83-2.07-1.87-5-2.88-7.41-1-3.09-3.53-5.34-5-8.16-.82-3.18-1.19-6.55-3.06-9.35-2.29-3.23-1.88-7.57-4.43-10.63-2.2-2.62-.94-6.44-2.86-9.17C516,476,517.6,466,511.23,459.88c-3.55-3.31-5.94-8.75-11.3-9.33-2.05.73-2.16,3.1-2.86,4.83l-2.6,1.21c-.52,1.37-1,2.75-1.48,4.15,1.27,3.31.28,6.91.57,10.36-.42,5.36,1.49,10.7.09,16-.54,1.89.87,3.46,1.59,5.07a15.28,15.28,0,0,0,1.23,5.49c1.75,4-.79,8.18.2,12.25.67,3.31-.17,6.66.09,10,.55,4.5,2.18,8.77,3.6,13.05.3,3.31-.08,6.64.27,9.95.58,2.78,2.6,5.19,2.59,8.1-.76,4.21-5.31,6.54-9.27,6.57A71.11,71.11,0,0,1,475.7,554a33.46,33.46,0,0,1-21.36.69,14.14,14.14,0,0,1-3.77-6.66c-.28-6.29,3.61-11.7,4.22-17.86.32-4.15.93-8.29.89-12.46,2.3-3.38.79-7.37-.31-10.87-1.6-5.07.63-10.12,1.34-15.11-.32-3-2.23-5.65-2.29-8.66,1.12-2.53,3.52-4.36,4.22-7.08-1.25-3.73-3.39-7.15-4-11.08a64.42,64.42,0,0,1-.36-14.75c1.09-3.33,3.13-6.56,2.64-10.2-1-2.88-2.64-5.69-2.17-8.87.59-4.44-.9-8.77-.51-13.18.13-4.41-1.91-9.05.33-13.21,1.49-2.88-.22-5.8-1.05-8.55a22.65,22.65,0,0,0-.72-8.16l1-2c-.47-3.77.72-7.39,1.84-10.93,0-2.51-.54-5.05.24-7.5-.48-2.55-1.26-5.08-3.42-6.7,1.29-6,.21-12.15-1.21-18-.54-2.47-2.28-5.1-1.07-7.61,2.27-3.62,6.77-4.59,9.89-7.27C463.78,328.29,467.24,330,471,330.16Z" style="fill:#fff"/><path d="M656,328.85c1.38-.54,2.66-1.28,4-1.82,2.63.73,5,2.12,7.63,3,5.9-4,13-.75,19.43-2.61,6.27-.06,12.57.9,18.88.61,2.53-.24,4.83.91,7.14,1.72,2.72.18,5.07-2.11,7.87-1.72,3.14.07,5.82,2.28,9,2,2.9.15,5.22-2,8-2.46,3.29.15,6.09,2.1,9.12,3.19,4.38,1.67,9.34.52,13.69,2.37,3.25,1.58,5.17,4.85,7,7.81,2.45,4.36,5.7,8.75,5.37,14-.52,5.11,3.89,10,.83,14.89a11.38,11.38,0,0,1-1.12,7.35c-1.72,3,2.3,6.17.26,9.06-1,1.74-1,3.8-1.41,5.7-.79,2-2.33,3.69-2.59,5.87-.85,3.54,2.08,6.64,1.34,10.23-.58,4.91-.9,10.14,1.63,14.6,1.45,2.06,4.17,2.08,6.3,3a18.65,18.65,0,0,1,9.74,7.22c1.51,2.45,4.29,4.13,4.9,7.09,1.28,3.91-.15,8,0,12,.55,2.88-3.31,4.13-2.74,7,.25,2.63.64,5.24.82,7.87l2.13,1.05c-4.21,2.33-3,7.68-5.36,11.3-2.09,3.67-.41,8-1.41,11.91-.62,3.72-2,7.26-2.67,11,0,4,.86,7.92.68,11.91-1.22,3-3.09,5.76-3.57,9a29.27,29.27,0,0,0,.75,7.09c1,2,3.26,3.48,2.93,5.95-.26,5.56-2,11.59-6.53,15.14-2.71,2.3-6.36,2.62-9.67,3.41-5.88,1.5-11.43-2.45-17.3-1.92-3.78.54-7.27-1.81-11-1.32-3.72.32-7.55,0-11.05,1.54-3.36-.69-6.77,0-10.15-.27a12.78,12.78,0,0,1-6,1c-7.67-.52-15.36.46-23-.18-4.67.17-9.33.5-14,.82-3.21.07-6.25-1.67-9.48-1-4.05.35-8.46,1.23-12.31-.44-4.36-2.49-2.3-8.17-4.07-12.06-1.62-3.55,1.18-7.07.9-10.67a27.49,27.49,0,0,1-3.13-13l1.73-1.33c.15-.67.45-2,.59-2.69.56-.62,1.1-1.25,1.62-1.9.05-4.78-1.23-9.78.77-14.31.57-3,1.26-6.39-.29-9.24-1.54-2.44.23-5.92-2.4-7.76,1.85-3.39.76-7.26,1.4-10.89.65-4.33-.66-8.64-.23-13,.41-1.74-.62-3.24-1.21-4.77,1.41-2.33-.1-4.78-.39-7.17.66-3,1.87-6.05.77-9.11-1.31-3.67.27-7.34.62-11,0-4.77-2.42-9.06-4.09-13.4a30,30,0,0,1,.29-11.48c.89-4.6-1.5-9.43.76-13.82a12.3,12.3,0,0,1-.84-6.17c.51-2.76-1-5.29-1.13-8,.26-4.37,2.09-8.62,1.38-13-1-7.33-2.82-14.55-3-22-.88-3.35,1.92-5.86,3.92-8.11C650.62,326.92,653.32,329.19,656,328.85Zm61,32.37c-10,.2-20.11-1.27-30,.88a3.43,3.43,0,0,0-2.79,3.81c.16,4.34-1.14,8.65-.5,13,.65,5.05-.9,10.06-.52,15.13-.06,4.47,2.25,8.48,2.64,12.88.57,2.61.14,6,2.53,7.78,3,2.08,7,1.93,10.42,1.14,5.66-1.29,11.5-.63,17.24-.51,3-.63,6-1.72,9.08-.89,7.51,1.08,13.79-4.12,18.48-9.33,1.31-5.9,1-12,2.62-17.87,1-3.77-1-7.52-.19-11.3,1.73-9.59-9-17.25-17.85-15.64C724.52,361.49,720.68,359.87,717,361.22Zm-30.29,89.87c-.43,3.23.4,6.59-.86,9.7s1.35,6,.32,9.18c-.66,3.23,1.68,5.94,2.34,9a75.5,75.5,0,0,1-3.19,11.22c1.32,3.56.33,7.21,0,10.83.66,3.17,3.09,5.64,4.25,8.65,1.39,3.43,4.46,6.59,8.44,6.32,5.86-.26,11.88,1.88,17.55-.32,3-1,5.43,2.63,8.47,2.06,6.17-.93,12.34-1.9,18.57-2.33,5.24-1.66,9.83-6.7,10-12.37a73.79,73.79,0,0,1,.56-19.69c.62-6,1.74-12.07.91-18.15,1.66-3.11,1.88-7.7-1.15-10.05-2.74-2.17-5.31-5.06-8.93-5.62-5.65-.88-11.39-.5-17.07-.78-6.32-1.21-12.72-1.89-19-3.1-3.66-.82-7.35.7-11,0A9.25,9.25,0,0,0,686.71,451.09Z" style="fill:#fff"/><path d="M806.86,337.06c-.16-3.27,3.66-6.36,6.66-4.49,2.06,1.21,4.27,2.08,6.57.84,4,1.41,8.18-1.45,12,.94l2-1.35c1,.59,2,1.17,3,1.73a14.33,14.33,0,0,1,6.91-.5c3,.42,5.84-3,8.82-1.22,2.19,1.25,5.12,3.11,4.9,6-1.27,4.24-3.64,8.67-1.93,13.15-2.13,2.54-4.31,5.36-4.38,8.83-.09,6.72-1.35,13.61.79,20.16,1,2.74-1.36,5.23-1,8,.66,2.11,3,3.44,2.91,5.85.37,5.9.19,12.12-2.25,17.6-.55,4.82-1.28,9.81.33,14.52-.14,3.76-.43,7.54,1.38,11,.61,6,1.16,12.51-1.37,18.19-1.66,4.16-3,8.67-2,13.17,1.08,4.78.37,9.69,1,14.52.22,3.14-1.33,6-1.72,9.12.1,2.71,1.84,5.19,1.42,8-.22,2.6-1.79,4.75-3,7-2.58,6.82-2.83,15.09,1.71,21.17,1.84,1.87.65,4.5.77,6.79.54,2.5,3,4.31,3,7,0,3,.24,6,.21,9-1.18,2-3.6,2.59-5.67,3.09-5.66,1.42-11.34-1.16-17-.17-3.32.54-6.63,0-9.9-.54a20,20,0,0,0-11,1.66c-2.87-1-6.59-2.43-6.44-6.15.1-5.07,2.67-9.79,2.61-14.92.71-4.87-1.38-9.42-2.25-14.08,1.41-3.51,2.74-7.12,2.44-11,1-6.94,2.73-14.09,1.09-21.08-1-3.47,3-6.78.6-10.09-1.73-2.42.26-5.12-.14-7.71-1.36-6.41,1.31-12.71,1.22-19.1-.09-3.33,1.93-6.45,1.19-9.78s-.5-6.89-1.47-10.21c1.52-4.06,1.43-8.4.79-12.63-1.11-1.27-2.84-2.34-2.86-4.21-.35-2.52,1.08-4.77,1.65-7.14,0-2.34-.64-4.65-.46-7a25.1,25.1,0,0,1,2.6-3.24c-.57-4-1.49-7.87-1.9-11.85-.14-1.93-1.86-3.16-2.53-4.86-.32-5,3.43-9.09,3.15-14,0-4.83-3.49-9.18-2.27-14.09C808.62,347.57,805.11,342.34,806.86,337.06Z" style="fill:#fff"/><path d="M875.44,348.9c-2.76-6-.75-14.33,5.57-17.09,5-1.08,9.42,2.28,14,3.67,3.63,1.21,7.22-1.13,10.9-.68,3.37.43,6.65,1.73,10.11,1.18,3.89-.44,8.62,1.58,11.57-2a117.69,117.69,0,0,1,13.43,2.41c2.68.72,5.34-.35,8-.6,3.35-.13,6.71.66,10.06.11,2-.64,3.78-2.06,5.91-2.45,2.14.34,4.22,1.91,6.45,1.17,2.54-.57,4.77-2.22,7.43-2.32,2.94,0,5.77.9,8.68,1.33,3.07.9,5.26-3.08,8.37-2.18a17.86,17.86,0,0,1,5.92,5.46c.66,4.16-2.28,7.86-2,12,.54,4-2.29,7.63-.55,11.48-.18,5.65.48,11.39-.64,17-3.6,1.13-7.22-.37-10.78-.93-7.62-1.26-15.14-3.78-23-3.24-6.13-.08-12.5,1.49-18.4-.75A33,33,0,0,0,935,370.59c-4.19-.53-7.16,3-10.33,5.09-4.11,5.07-3,12-4.95,17.91a37.09,37.09,0,0,0,.52,14.39c-2.48,4.08-1.87,9.11-.62,13.49,2.33,4,7.28,5.22,11.38,6.59,6.45,1.61,11.63-4.43,18-3.4,7.74.67,15.31-2.55,23.09-1.65,2.85.35,5.67-1.11,8.5-.57a13.35,13.35,0,0,1,5,4.61,66.34,66.34,0,0,1,0,17.86c-.51,1.26-1.13,2.59-.65,4,1,4.71,1.41,9.52,2.39,14.23,1,2.51-1.16,5.11-3.35,6.05-7.89,2-15.27-2.35-22.79-3.9-3-.82-6.13.38-9.1-.46-7.48-2.41-15.42-1.19-23.12-1.53-3.18.56-6.83.19-9.58,2.07-3.28,4.14-2,9.86-3.77,14.57.51,4,.75,8.06,1.47,12.05.38,5.89-1.2,13,3.32,17.73,5.16,4.15,12.35,4.37,18.67,3.86,2.45-.27,5.13.93,7.4-.39,2.73-1.95,5.61,1.82,8.55.6,2.85-.94,5.14-3,8-4.08,2.5.43,5.19,1.57,7.47-.19A155.14,155.14,0,0,0,988,508.09c2.74-.68,5.07,1.33,7.4,2.46,1.53.79,3.37,2.34,2.69,4.3-1.87,6.59-1.46,13.46-2,20.21.95,4.23,2.72,8.51,1.69,13a16.29,16.29,0,0,1-5.16,5.6,25.12,25.12,0,0,1-14.44.71c-5.23-1.38-10.11,1.74-15.26,1.61-6.42-2.21-13.38-1.62-19.94-3.32a161.11,161.11,0,0,0-16.86,1c-3.14.63-6.17-.67-9.2-1.26-5.76-1.37-11.74.08-17.48-1-3.52,1.09-7.23.9-10.85,1-2.58,1.39-5.63,1.47-8.18,2.91-2.85,1.74-6.29-.33-8-2.69a16.57,16.57,0,0,1-2.46-10.66c.46-3.79,2.59-7.16,2.88-11,.32-2.56,2.18-4.57,2.73-7.07a49.13,49.13,0,0,0,.2-16c-.08-11.1.78-22.2-.32-33.26a147.22,147.22,0,0,0,.81-20.46c-1.12-4.2,2.26-8.33-.18-12.33.56-3.18,2.31-5.92,3.33-8.92.71-2.88-1.15-5.39-1.91-8-.58-2.33-1.19-4.65-1.56-7,.44-3.37,5.76-4.91,4.44-8.75-1-2.69-.2-5.41.09-8.12-.48-2-1.36-4-1.8-6,0-3.37,2.44-6.39,1.8-9.78-.79-5.53-.87-11.11-1.27-16.67-.14-3.11-2.51-5.47-3.19-8.41C876.27,356.36,877.17,352.48,875.44,348.9Z" style="fill:#fff"/><path d="M363,382.29c1.72-.07,3.44-.14,5.16-.23a7.68,7.68,0,0,1-.43,4.69c-2.9,7.38-5.77,14.77-8.68,22.15-2,3.71,1,7.54,1.73,11.2,1.64-1.7,3.59-3.2,4.8-5.27,2-10,3-20.25,5.17-30.23,2.2-1.31,3.09,2.41,4.68,3.4q-4,15.12-8.17,30.21c-1.23,4.27-1.54,8.73-2.16,13.12-4.68-.28-9.36-.59-14-.86C354.1,414.18,359,398.33,363,382.29Z" style="fill:#fff"/><path d="M940.9,584.2c7.74-1.54,16.68-2.55,23.43,2.47,3.25,2.07,4.8,5.66,6.15,9.1,4,5.84,6.18,13.4,4.26,20.4a42.36,42.36,0,0,1-18.15,25.53c-5.94,4.52-13.43,8-21,6.89l-2.4-2.16c-1.43,6.05-1.57,12.32-2.36,18.48-.07,5.13-1.75,10.68.7,15.51-1.07,4-4.94,8.23-9.44,7.18-2.52-.45-3.49-3-4.93-4.79-2.3-1.14-4.9-2.08-5.85-4.72l2.27-1.71c-.56-8.28,2.5-16.12,3.56-24.22,1.43-10.12,2.75-20.26,4.68-30.29.94-5.5,2.45-10.93,2.66-16.52-3.79,1-7.12,3.07-10.42,5.11-4.68-2.54-3.58-8.74-6.54-12.64C918.14,592.24,928.92,586.29,940.9,584.2Zm-1.72,16.68c.78,1,1.66,2,2.5,3-2.73,4.5-3,9.88-4.19,14.9-.82,5.38-2.69,10.65-2.45,16.15,5.49-.05,10.07-3.48,14.24-6.66,4.77-3.95,9.44-8.38,12-14.1,2.18-5.05,3.56-11.2.28-16.11C954.18,594.42,946.18,598,939.18,600.88Z" style="fill:#fff"/><path d="M630.93,585c4-.36,7.94-2.32,11.92-1.32a80.71,80.71,0,0,1,4.5,8.79c1.89,6.21-3,11.6-3.57,17.61-1.47,10.6-3.51,21.13-4.49,31.8-.91,11.84-2.86,23.62-3.22,35.49,2.88-8.07,5.82-16.12,8.23-24.35,1.85-6.54,6-12.67,5-19.71a19.54,19.54,0,0,1,6.46-3.52c3.36-1.27,7,.22,10.42-.49a83.83,83.83,0,0,1,4,7.7c-.22,3.81-2.31,7-3.55,10.51-3.19,11.14-5.24,22.8-4.27,34.42.12,2.19,2.09,3.45,3.54,4.82a19.81,19.81,0,0,0,5.94-6c1.92-2.78,2.84-6.31,5.6-8.44a215,215,0,0,1,3.29-26.78c1-5.34,3.44-10.27,4.26-15.65.39-2.2,1-5.69,3.94-5.55,4.07.08,8.12-.34,12.19-.48a17.77,17.77,0,0,1,4-2.83c3.79.27,8.43.61,10.48,4.35,4.64,7.61,5.27,17.06,4,25.7-1.26,7.59-3.19,15-4.16,22.69l1.85,2c1.61.29,3.23.63,4.84,1,3.52-2.25,5.39-6.11,8.3-9,.42-3.66.74-7.34,1.41-11,.8-4.3-.12-8.77,1.07-13,2.21-6-.51-12.53,1.55-18.54.66-1.62,2.13-2.65,3.4-3.75a9,9,0,0,0,8.31-1.68A17.3,17.3,0,0,1,752,627c-.42,5.38-2.44,10.5-3.05,15.86-1.07,8.38-2.56,16.7-3.4,25.11-.29,5.37-.61,11.23,2.43,16,3.52-2.39,4.71-6.73,6.4-10.41,3.09-10.95,3.47-22.41,5-33.62,1-4.9-2.49-10.32,1.23-14.58,4.5.52,9,1.69,13.54.91-.13,2.78,1.05,5.26,2,7.77-1.83,4.44-1.65,9.3-2.78,13.92a146.56,146.56,0,0,0-2.5,20C771,671.74,772,676,775,678.54c1.76.08,3.13-1.21,4.11-2.52,2.72-3.58,3.68-8.18,6.55-11.68a123.83,123.83,0,0,1,2.92-26.24c-2.58-2.23-2.23-5.44-1.35-8.4-.47-2.78-1.37-5.81-.05-8.49.9-1,2.39-1.13,3.54-1.76,1.31-7.75,2.37-15.55,2.92-23.4a17.53,17.53,0,0,1-1.54-2.77c2.47-3.35,5.74-5.95,8.82-8.69,4.47.7,7.88,3.62,11.11,6.56-.37,2.83-2.4,5.13-3,7.93a150.17,150.17,0,0,0-3.88,21.48c2.26.21,4.55.29,6.81.67,1.14,2,1.54,4.28,2.2,6.45-.95,1.41-3.49,3.08-1.72,4.88a7.64,7.64,0,0,1,1.64,6.39c-3.53-.1-7.09-.68-10.58.19a228,228,0,0,0-2.37,23.9c.17,3.76.34,8,2.76,11.06,2.29,2.47,5.31-.51,7-2.22,3.77-3.4,5.26-8.51,8.91-12a72,72,0,0,1,.15,11.28c-3.33,5.13-6.43,10.65-11.71,14A11.86,11.86,0,0,1,795,689c-4.13-2.68-7.16-6.78-9.52-11-3.65,4.45-7.36,9.15-12.25,12.28a7.35,7.35,0,0,1-9.56-.87c-2.65-2.79-3.65-6.62-4.85-10.16-3.55,6.34-6.42,13.72-12.63,18-3.23,2.25-6.95.56-10.35-.17-2.78-5.83-6.26-11.81-5.81-18.51-2.43,3.27-5.86,6.14-10,6.69-2.89.47-5.31-1.45-7.58-2.89-2.89,5.5-5.76,11.37-10.8,15.22-4.14,3.19-9.78,2.49-14.58,2-7-4.07-9.76-12.53-9.52-20.24-.29,2.34.32,5-1.19,7.06-2.31,3.55-5.41,6.48-8.3,9.55-3.39,3.36-8.2,6.24-13.14,4.93-5.2-1.36-7.88-6.82-8.72-11.72-1.84-8.66,1.73-17.09,2.43-25.65-1.86,1.7-2.35,4.25-3.11,6.55-2.23,7.75-5.93,15-7.53,23-1.42,5.27-1.58,10.78-2.86,16.07-2.64,1.07-5.9,4-8.57,1.51-1.92-1.69-4.86-2.78-5.41-5.53-1.07-4.08-.93-8.35-1.19-12.52-3.85,4.32-6.15,10.18-11.33,13.15-3.34,2.19-5.77,6-10,6.65-3.23.46-7,.87-9.66-1.42A32.77,32.77,0,0,1,579.8,699c-2.1,4.28-5.76,7.45-9.06,10.78-3.85,3.64-9.4,5.87-14.64,4.31-5.05-2.71-8.13-8.19-9.35-13.64-1.41-8.21.84-16.42,1.47-24.59.3-5.34,1.35-10.58,1.78-15.9.44-4.4,2.24-8.56,2.26-13l-1.55-1.41c.11-.9.33-2.69.43-3.58,4.61-1.16,9-3.71,13.79-3.69,2.06,1.08,3.29,3.26,5.06,4.76,1.09,1.27,2.88,2.19,3.22,4-.52,2.85-3,5-3.17,7.93-1.4,13.07-6.9,25.9-4.75,39.2.42,2.19,1.77,6,4.67,4.86,5.59-2.74,7-9.26,10.56-13.82.83-7.09.7-14.31,2.36-21.29.68-3,1.73-5.91,2-9-.65-1.33-1.53-2.53-2.13-3.86a23.4,23.4,0,0,1,1.06-6c-.64-3-1.44-6.33.09-9.17.79-2,4.19-.76,4.53-2.94,1.41-8.56,3.15-17.07,4-25.71-.64-1.14-2.53-2.58-1-3.82,2.78-3.44,6.41-6,9.69-8.94,5.08.5,8.84,3.81,12.57,7,.73,1.47-.7,2.78-1.24,4.05-2,3.24-2.91,7-3.83,10.65-1.46,6.18-2.82,12.4-3.71,18.7,2.68.49,5.68-.05,8.17,1.08a52.58,52.58,0,0,1,2.08,6.92c-1.11,1.49-4,3.18-2.37,5.3,1.81,2,3.15,5.19,1,7.49-3.84-.07-7.72-1.08-11.5.22-1.48,10-3.74,19.92-3.47,30,.36,3.62.64,8.35,4.26,10.32,1.91.21,3.58-1,5-2.12a43.93,43.93,0,0,0,9.39-11.66,9.57,9.57,0,0,1,3.27-3.18A166.37,166.37,0,0,0,622.05,656c1.9-16.78,1.48-33.8,4.66-50.44,1.57-5.44-.64-11,.29-16.49A3.66,3.66,0,0,1,630.93,585Zm65.69,61.07A154.13,154.13,0,0,0,693.74,675c.08,4.28.29,8.91,2.63,12.65,1.15,2.06,3.82,1.21,5.11-.26,2.65-2.9,3.75-6.79,5.31-10.31A35.54,35.54,0,0,1,703,665.93c-.9-5.64-2.41-11.21-2.69-16.93-.34-5.16,1.83-10.24.68-15.37C697.75,637,697.56,641.82,696.62,646.09Zm13.14-9.47a28.59,28.59,0,0,0-1,8.34c.21,6.49,0,13,.77,19.46,3.08-4.17,2.29-9.57,2.6-14.42A56.12,56.12,0,0,0,709.76,636.62Z" style="fill:#fff"/><path d="M1033.77,588.82c5.47-4.11,14.65-4.68,19.67.65,3.52,6.47,3.4,14.26,3,21.42-2.12,15.3-9.65,29.35-19.23,41.28-3.22,3.19-3,8.24-1.87,12.3.7,2,2.17,4.7,4.65,4.48,6.82-1.6,11-7.91,14.88-13.2,3.94-4.37,4.58-10.44,6.34-15.83s2.44-10.9,3.57-16.36a62.31,62.31,0,0,1,7.3-4,20.86,20.86,0,0,1,8.6.73c1.35,3.83-.79,8,.54,11.85.91,3.17,1.46,6.41,2.07,9.65,5.67,10.6,3.94,25.23-5.26,33.31a89.52,89.52,0,0,1-15,8.5c-2.78-1.44-6-3.2-6.89-6.47-1.09-3.24-.81-6.68-.5-10-2.2,2.48-4,5.74-7.5,6.53-4.06,4.53-9.89,8.46-16.26,7.19-6.16-1.31-9.55-7.66-10.29-13.47-2.19,3.81-5.79,6.42-9,9.29-2.74,2.08-6.39,4.35-9.87,2.66-3.73-1.74-4.48-6.24-5.55-9.76-3.5,4.94-6.47,10.56-11.53,14.11-3.85,2.69-11.07,1.68-11.85-3.58-4.12-8.22-1.49-17.43,0-26,1.82-5.65,1.36-11.75,3.71-17.24,1.2-5.14-1-12.62,4.71-15.59,2.77,0,5.56,0,8-1.63,2.51,2,5.75,5.13,4.11,8.62A137.12,137.12,0,0,0,989.48,645c-1.58,7.88-4.61,15.73-3.78,23.88.3,1.59.83,5.25,3.12,3.17,6.42-7.53,7.8-17.66,9.8-27,.83-4.73,2.63-9.4,2.07-14.27-.29-2.14-.11-4.4,1.45-6,4.11-.47,8.17,1.32,12.33.62a24.23,24.23,0,0,0,1.31,6.49,166,166,0,0,0-6.92,27.26,11.77,11.77,0,0,0,2.36,9.66c3.54.6,5.31-3.38,7-5.81,1.27-2.67,3.89-4.82,3.93-8,1.28-13.25,2-26.61,5.14-39.6C1028.78,606.39,1031.94,597.77,1033.77,588.82Zm7.38,23.28c-1.75,10.29-4.1,20.5-5,30.91,9.62-13.2,13.06-30.13,11.49-46.2a19.61,19.61,0,0,0-1.43-3.28C1043.19,599.28,1042.48,605.83,1041.15,612.1Zm18.77,48.55c1.82-1.18,3.61-2.39,5.48-3.51,1.53,4.54-4.05,9-.7,13.07a17.26,17.26,0,0,0,3.29,3.21c3.59-2.17,7-5.8,6.09-10.35-2-8.53-4.68-17-4.51-25.87C1066.52,645.08,1063.92,653.17,1059.92,660.65Z" style="fill:#fff"/><path d="M136.92,587.79c3.87-1.63,7.87.7,11,2.86-1.65,13.58.41,27.27-.79,40.87-4.12,1-7.27-2.23-10.52-4.14,1.44-3.29.4-6.9.39-10.34C136.25,607.3,137.32,597.54,136.92,587.79Z" style="fill:#fff"/><path d="M172.34,588.07c2.36-2.58,6.69-.23,8.76,1.92,1.14,13.19-1.08,26.42-.51,39.62-1,2.47-3.89,1.22-5.68.51-1.92-.92-4.64-1.33-5.31-3.67-1.51-5.74-4.13-11.08-6.3-16.58.53,7.11,0,14.25.49,21.36-3.72,2-7.22-.49-10.56-2,1.32-13.34-.93-26.9,1-40.18,2.81-.26,6.49-1.37,8.47,1.35,4.43,6.29,7.1,13.59,10,20.66C172.51,603.39,172,595.72,172.34,588.07Z" style="fill:#fff"/><path d="M436.23,589.22c6,.26,12-1.92,18-.45,3.82,1.8,6,5.86,7.21,9.76.85,2.39-2.15,4-1.79,6.43.34,3.33-2.32,5.78-2.62,9-3.85,13.38-3.31,27.5-6.88,40.93-1.38,14.66-5.33,29.3-3.24,44.09.58,3.28,1.09,7,3.61,9.43,1.53,1.53,3.45-.1,4.65-1.19a47.26,47.26,0,0,0,12.47-22.76c3.12-12.41,5.34-25,7.82-37.56,1.25-7.9,1.86-15.89,2.91-23.83.79-5.3-.21-10.68.58-16,.63-2.76,3.77-3.14,6.08-3.51,3.88-.57,8.09-2.69,11.82-.44,2.4,1.43,5.79,2.22,6.88,5.09.69,3.8,1.18,8.16-.74,11.68-4.23,3.24-2.75,9-3.68,13.55-1.6,8.1-4.16,16.13-3.81,24.49.36,10.16-1,20.37.34,30.49.82,4.43,1.72,9.36,5.14,12.59,2,2,5.36,1,6.87-1.14,2.77-3.58,4.21-7.94,6.06-12,4.12-9.11,7.65-18.78,8.09-28.84a426.42,426.42,0,0,1-.78-43c.21-4.86-.59-9.8.38-14.61.85-3.39,4.66-4.47,6.75-6.93,1.88-2.21,4.42-4.72,7.62-3.79a49.59,49.59,0,0,1,6.54,5.64c1.29,3.53,2.92,7.34,1.77,11.16-2.42,9.33-2.94,19-5.47,28.35-1.08,4.42-2.83,8.7-3.35,13.24a61.47,61.47,0,0,0,3.26,17.56,22.23,22.23,0,0,1-7.79,4.8A151.53,151.53,0,0,1,519,700c-1.63,3.27-5.14,5.1-6.45,8.57-2.88,6.26-9,10-14.83,13.14-4.91,2.74-11.15.2-14.38-4-5.39-6.81-6.82-15.68-8.21-24-2,4.09-3.74,8.32-6.08,12.24-4.51,7.61-10.74,14-16,21-1.18,1.41-2.27,3.06-4,3.84-2.71.13-5.5-.38-8.08.66-4.42,2.05-9.48-.82-11.63-4.81s-4.49-8.06-4.73-12.66c-.69-8.26-2.32-16.61-.89-24.89.93-6,1.39-12.15,2-18.23,1.1-11.13,4.08-22,5.61-33,.37-5.4.65-10.8,1.53-16.15a11.5,11.5,0,0,1-.91-12.87A151.71,151.71,0,0,0,436.23,589.22Z" style="fill:#fff"/><path d="M345.23,603.18a31.36,31.36,0,0,1,24.14-3.74c1.91,1.57,4.22,2.56,6.12,4.16,1.91,2.36,2.8,5.36,3.62,8.24a76.08,76.08,0,0,1-2.19,43.2c-5.3,17.25-15,32.69-26.11,46.75-3.57,3.93-2.78,9.82-2.1,14.66.89,4.08,3.37,9.64,8.32,9.34,2.85-1.39,6.19-1.93,8.58-4.1,5.49-5.36,11.21-10.71,14.6-17.7l2.15-1c-.39,4.22-.26,8.49-.95,12.68a60.2,60.2,0,0,1-11.65,16.24c-5.83,8-15.77,13.87-25.87,11.93-8.71-1.88-14.05-10.39-15.74-18.62A28.45,28.45,0,0,1,320,737c-3.51,3.23-7.92,5.36-11.07,9-6.07,7.11-15.82,9.87-24.84,10.35-11.31-.73-19-11.22-21.4-21.5-1.55,4.64.41,10.62-3.63,14.19a28.54,28.54,0,0,1-14,7.8c-5.21.34-9.06-3.71-12.64-6.88a50.5,50.5,0,0,1-13.51,15.89c-3.35,2.46-6,7.51-10.75,6.59-3.74-.74-7.68-.91-11.23-2.34a54.39,54.39,0,0,1-7.34-13.92c-3.34,6.5-8.91,11.57-15.12,15.3-5,2.86-8.12,8.25-13.5,10.55-6.58,3-13.84,5.1-21.12,4.56-10.46-1.42-18.32-10.59-20.9-20.42-2.31-7.75-.64-15.84.78-23.58,2.52-15.36,7.75-30.09,13-44.68a78.5,78.5,0,0,1,4-9.17c4.71-.68,9-2.85,13.41-4.49,4.07-1.58,8.51-1,12.76-1.42,2.57-.13,5.15-.76,7.72-.37,3.07,1,4.94,3.75,6.93,6.09s5,4,5.7,7.25c3.92,10.89,1.84,23-3.4,33-2.45,5.28-7.25,8.79-11.26,12.78a23.63,23.63,0,0,1-21.47,6.92c-1.45,0-3.75-.9-4.52.85-1.9,6.72,1.06,15.8,8.38,17.75,6,1,11.78-1.62,16.95-4.27,5-2.36,7.93-7.37,12.35-10.56,3.88-2.76,5.87-7.22,9.15-10.57,1.63-8.18,3.48-16.39,3.88-24.76.2-3.82,1.79-7.37,2.52-11.09q4.59-22.38,8.65-44.88a76.67,76.67,0,0,1,5.73-18c-.61-2.67-1.48-5.28-1.82-8a40.27,40.27,0,0,1,2.2-7.39c1.8-1.48,4.3-1.61,6.32-2.69,3.78-2,8.31-3.79,12.58-2.27a12.65,12.65,0,0,1,7,6.34c.19,3.33.8,6.64.73,10-1.92,2.68-4.4,5.09-4.85,8.55-4.87,13.11-6.7,27.06-10.61,40.46-3.25,11.89-7.21,23.71-8.43,36.05-.76,7.56-1.64,15.24-.62,22.83.44,2.45,1.32,5.86,4.34,6.09,3.65,0,4.92-4,6-6.8,1.13-3.61,3.25-6.77,4.72-10.23-1.45-11.69,2.76-23.45.29-35.11a34.44,34.44,0,0,0-3.57-8c4.07-5.61,10.36-10.48,17.47-10.71,3.34-.56,5,2.92,6.8,5.06,2,3.14,4.92,6.74,3.66,10.72-1.32,4.81-2,9.75-3.08,14.63s-3.66,9.28-4.71,14.19c-.87,4-2.87,7.7-4.64,11.41-1.14,1.92.29,3.85.89,5.69,2.67.07,5.35.91,8,.5,5.87-2.43,9.36-8.05,13.36-12.66-.42-9.33,1.67-18.5,3.16-27.65,3.47-13.82,7.22-27.63,12.75-40.79,4.75-.78,8.92-3.28,13.4-4.85,4.06-1.11,8.33-.67,12.46-1.27,2.12-.09,4.5-.9,6.42.4,3,1.89,4.74,5.2,7.42,7.5,3.28,2.62,3.82,7.05,4.59,10.9,1.52,8.39-.53,17-4,24.65-2.24,5.36-6.91,9.06-10.82,13.16-3.53,3.88-8.62,5.85-13.69,6.63-3,.09-6-1-8.94-.36-2.34,6.36.47,15.23,7.3,17.49,5.39,1.1,10.62-1.48,15.26-3.94,5-2.43,7.76-7.56,12.07-10.9,3.41-2.61,4.68-7,8-9.67,2.28-20.72,2.52-41.68,6.67-62.16C336.83,638.47,339,626,343,614,344.25,610.52,344.19,606.73,345.23,603.18ZM362.47,615c-3.14,10.39-4.68,21.16-6.61,31.82-2.09,13.13-4.78,26.2-5.79,39.48,8.92-12,14.16-26.45,16.52-41.15,1.43-8.67,1.08-17.49.87-26.24a13.68,13.68,0,0,0-2.48-8.1A12.79,12.79,0,0,0,362.47,615Zm-70,69.39c-2.42,8.21-5.51,16.31-6.63,24.84,2.6.54,5.64,3,8.09.79,3.52-3.15,5.1-7.8,6.84-12,3.47-9.41,6.35-19.88,3.24-29.79-1.36-.64-2.73-1.29-4.08-1.91C296.24,671.71,294.59,678.2,292.52,684.39ZM152.29,710.06c-2.95,9-6.67,17.79-8.13,27.16,2.27.63,4.46,1.79,6.84,1.93,4.32-1.58,6.2-6.28,8.17-10.06,4.8-10.74,9.17-22.93,5.78-34.72-1.44-.74-2.88-1.49-4.32-2.2C156.34,697.3,154.65,703.94,152.29,710.06Z" style="fill:#fff"/><path d="M560.44,603.6c2.79-1.06,5.87-.56,8.66.27,5.36,3.22,6.91,11.37,3.12,16.33-1.19,1.81-2,3.94-3.51,5.5-7.65,4.42-18-4.31-15.34-12.61C554.73,609.39,555.85,604.3,560.44,603.6Z" style="fill:#fff"/><path d="M853.75,623.79a12.66,12.66,0,0,1,11.24-4.2c2.19,1,3.67,3,5.4,4.64,3,1.34,6.09,2.6,9.49,2.5,3.65,0,5.36,4.42,4.25,7.43-1.26,7-2.8,13.92-3.37,21-1.12,5.77-1.43,12.41,2.63,17.18,4.76-4,7-10,10.47-14.94-.34,4.59,1.62,9.93-1.61,13.83a26.89,26.89,0,0,1-12.34,11.43c-2.52,1.51-5.25,0-7.61-1-2.56-1.68-3.25-5-4.52-7.55-3.08,6.17-5.58,13.31-11.82,17-3.52,1.79-7.63-.5-9.72-3.43-4.22-5.91-4.77-13.55-4.44-20.58a219.64,219.64,0,0,1,3.46-26.18A34.37,34.37,0,0,1,853.75,623.79Zm3.84,29.34c-1.34,6.49-2.17,13.22-1.12,19.81a13.31,13.31,0,0,0,2.33,5.41c5.87-7.16,7.67-16.51,8.4-25.5.53-7.3,3.76-14.74,1.41-22-1.3-.6-2.6-1.2-3.89-1.78C860.41,636.43,859.5,645,857.59,653.13Z" style="fill:#fff"/><path d="M1109.5,620.7a63.75,63.75,0,0,1,9.27-.43c3.37,2.67,6.8,6.15,7.42,10.62a25.88,25.88,0,0,1-3.53,18.62c-3,3.52-6,7.67-10.73,8.75-2.41.85-5-.43-7.39.37-1,4.31,1.11,10.68,6.34,10.59,8.95-.84,13.71-9.34,19.25-15.28-.42,4,.47,8.63-2.28,12-2.52,3.79-6.79,5.79-9.79,9.12-3.3,3.62-8.36,5.06-13.09,5.43-5.59,0-9.94-4.64-11.89-9.51-2.82-6.77-.91-14.16.07-21.1a165.84,165.84,0,0,1,7.28-26C1103.52,623,1106.37,621.44,1109.5,620.7Zm3.69,4.91c-4,8.1-6,17-8,25.75,1.44,1.23,4.09,2.39,5.34.27,3.36-4.9,4.88-10.89,5.75-16.7C1116.47,631.6,1116.91,627.14,1113.19,625.61Z" style="fill:#fff"/><path d="M40.48,646.64c10.38-3.9,21.44-5.48,32.44-6.37a99.7,99.7,0,0,1,20.07.16c4.66.65,9.47,2.26,12.75,5.8,3.39,3.73,5.52,8.38,8.6,12.35,3.66,4.7,8,8.91,11,14.08,2.87,5.07,1.14,11.21-.48,16.41-2.93,7.82-6.43,15.42-9.86,23-2.13,5.13-6.38,8.82-9.94,12.93-3.8,4.25-7.59,8.82-13,11.11-2.84,1.15-4.86,3.46-6.79,5.75,1.16,2.54,2.29,5.19,2.24,8,0,9,2.88,17.63,6.67,25.67,3.76,7.8,6.27,16.16,10.52,23.73,3,5.09,6.84,10,12.16,12.85,4.69,2.51,10.15,1.13,15.17.78,3.13-.13,5.52-2.38,7.94-4.1,3.31-2.63,6.88-5,9.87-8,2.51-2.5,3.84-6.35,7.5-7.49-.33,3.88-.81,7.75-1.37,11.61-.42,5.9-5.58,9.73-9,14-5.5,4.49-10.69,9.37-16.36,13.65-4.43,1.94-9.34,2.55-14.08,3.34H105.8a32.31,32.31,0,0,1-13.08-4.76c-5.28-3.34-8.25-9.09-13-13C77,813.9,75,809.1,72.54,804.59c-4.74-15-10.35-29.74-14.39-45-1.17-4.24-1.3-8.7-2.71-12.88-3.87.3-8.63-1.12-11.66,2-3.45,3.45-2.74,8.75-3.56,13.18-1.66,11.48-4.84,22.81-4.84,34.47.81,3.13,1.69,6.31,3.55,9-.23,1.46-.46,2.94-.69,4.42.23.51.68,1.54.9,2.06-4,2.39-8.52,3.29-13,4-4.34,1-7.67-2.69-11-4.84-.75-3.28-3.78-4.54-6.56-5.71C6.21,804.44,5,802.13,4,800v-1c4.15-6.79,3.32-14.94,4.74-22.45s3-14.87,4.41-22.31c1.27-6.66,1.82-13.49,4-19.93,3.29-9.43,2.24-19.61,4.51-29.23,1.52-6.93,3.49-13.74,5.54-20.52a23.34,23.34,0,0,0,.91-9.1,74.3,74.3,0,0,0-8.58,3.21c-3.25,1.76-5.59,5.54-9.59,5.6-2.26.16-4.08-1.69-4.63-3.74-1.23-4.18-.13-8.6,1.6-12.46,1.32-2.45.65-5.24.55-7.86,4-1.22,7.57-3.4,11.13-5.53C25.68,651.38,33.2,649.3,40.48,646.64ZM67.9,663.46c-4.34.39-8.05,2.73-11.91,4.53,1.6,1.28,4.35,2.32,3.91,4.87-.47,1.38-1.81,2.25-2.7,3.38a52.36,52.36,0,0,1-2.26,7.84c-2.89,8.06-2.57,16.82-5.15,25-1.34,6.13-4.22,11.88-5.1,18.11,1.18,2.57,4.49,4.08,7.12,2.68,8.4-3.36,17-6.45,24.59-11.55,10.15-6.76,19.72-15.84,23.23-27.88,1.7-5.74,4-11.41,4.48-17.41a11.64,11.64,0,0,0-11-11.93C84.64,660.81,76.26,662.41,67.9,663.46Z" style="fill:#fff"/></svg>