<svg width="1568" height="448" viewBox="0 0 1176 336" xmlns="http://www.w3.org/2000/svg"><g fill="#ffaba9"><path d="M224.9 31c10.3-.9 20.8-1 31 0h-31ZM217.4 32.3c1-1.8 4.7-1.7 6.5-1a10 10 0 0 1-6.5 1ZM256.4 31c3.4 0 6.7.6 9.8 1.9-3.3-.5-6.5-1.1-9.8-1.8ZM16.4 32.1c16.2-.2 32.4 0 48.6 0 6.4.2 13-.2 19.2 1.9-21.8-2.6-43.8-1.3-65.7-1.8h-1.1c-.7 4.6-.5 9.2-.5 13.8v175c-.1 2.3.5 4.5 1.6 6.5 2 3.2.1 6.7-2.4 9 0 2.4.2 5 .7 7.4.5 13.3-.7 26.7.7 40l-.4.7-.6.3h-.1c-.4-13 0-26-.2-38.9 0-3.2-1.6-6.3-.7-9.5 1.3-1.8 2.8-3.5 3.8-5.4a21 21 0 0 0-2.8-4.6c-.2-1.8-.3-3.7-.3-5.5V74c0-14-.2-27.9.2-41.9ZM121.9 33.5c1.6-2.3 4.7-1.2 7.2-1.5 5.8.3 11.7-.5 17.4.6 11.7-1 23.6-.4 35.4-.4-.4 5.4.4 10.8 0 16.2v.6l-.4-1c0-5.2-.2-10.4-.7-15.6-8.6-.2-17.2 0-25.9-.1-2.6-.1-5.1.3-7.7 1-5.3-1.6-10.8-.8-16.2-1-3.1-.1-6.3 0-9.1 1.2ZM299.5 32.3c12.8-.5 25.6-.5 38.5-.2v16.2c1.7.2 3.7-.5 5.3.4.6 1.3.4 2.9.5 4.3v245.8c-10 .3-19.9 0-29.8.2-2.7-.1-5.5.2-8.2-.4 12.4-.2 24.9 0 37.3-.1 0-83.2.2-166.4 0-249.6l-5.3.1-.1 234.1v-1.4c-.1-83.1.1-166.2-.1-249.3-12.5-.4-25 0-37.5 0 .2 8.8-.6 17.7.4 26.5-2-8.7 0-17.8-1-26.6ZM356.9 32c18-.3 36 .2 54.1 0 5 .3 10.4.2 15.3 2-23-2.8-46-1.3-69-1.7-.5 18.2 0 36.4-.3 54.6.1 3-.7 6.8 2.5 8.6-3.5 2.9-2.3 7.5-2.4 11.5v87c0 2.8 1.5 5.3 2 8-3.5-4.3-2.3-9.9-2.5-15 .1-28.7-.3-57.4-.1-86.1 0-1.6.1-3.4 1.6-4.4-2.1-2-1.7-4.9-1.8-7.5V49c.2-5.6-.2-11.3.6-17ZM462.2 32.2l33.9-.3c2.4-.2 4.7.7 7 1.5 6-2.5 12.6-.7 19-1.5 0 5.1 0 10.2.2 15.4.9 7.6.4 15.4 0 23l-.3 1.5c-.4-5.7 0-11.3 0-17 0-2.3 0-4.6-.3-7 .2-5 .1-10.3 0-15.4-5.6.2-11.4-1-16.8 1-3 1.2-5.8-1.5-9-1.2-11 0-22 0-33 .3-.3 64.2 0 128.3-.2 192.5-.3 4.5 2.2 9 .6 13.4.5-4.2-1.4-8.2-1.2-12.4.1-64.6-.1-129.2.1-193.8ZM538 32l37.8.1c.9 8.2 2.8 16.3 3 24.6-1.4-8-2.3-16.2-3.6-24.3-12.2-.1-24.5-.2-36.8 0 0 4.6 1 9.1.2 13.7-.6 4.7-.2 9.5-.2 14.3l-.2 1c-.3-9.8.3-19.5-.2-29.3ZM636.4 32.2c12.5-.3 25 0 37.6-.1 4 0 8.1-.4 12 .7 9-1.3 18.5-1 27.7-.6 0 13.3.3 26.7-.5 40-.9-13.2.2-26.4-.3-39.6-8.6-.1-17.5-1.6-26 1-2.6-.7-5.2-1.4-8-1.3H637c-.6 5.5-.3 11-.4 16.6l-2.8-.2 2.4-.6c0-5.3-.1-10.6.2-16ZM743.6 32.2c20-.4 40.1-.1 60.1 0v16.2h8c-.5-5.5-1-10.9-1-16.3 12.3 0 24.6-.2 37 0 .4 15.4 1.4 30.6 2.1 45.9 0 5.3 1 10.8-.3 16 .5 2 1 4.2 2.7 5.5l-.8 10.2-.8 2.2c-.1-5.3.2-10.8-1.2-16-.8-3 .4-6 .3-8.9-1-18.2-1.7-36.4-2.9-54.5-11.9-.4-23.8-.1-35.6-.1 0 5.5 1.1 11 1 16.4l-8.9.3c-.6-5.6-.4-11.1-.3-16.7-19.6-.1-39.2-.2-58.8 0-.3 10.2.2 20.4.1 30.6.1 7.2-.3 14.5.3 21.7-.9-11.9 0-23.9-.4-35.8h-5.3l-1.2-.1c1.8-.7 3.8-.4 5.8-.5 0-5.4-.2-10.7.1-16ZM967.5 32.2c13-.3 26 0 38.9-.1v208.7l-.6-.1V32.4c-12.5-.2-25 0-37.5-.1h-.8ZM205.3 37.1c2-2 4.5-3.5 7.3-4.2-2.4 1.5-4.9 3-7.3 4.2ZM266.4 33c8.3 2.7 12.8 11.6 14.6 19.6-2-5-4-10-7.4-14.2-1.9-2.4-4.6-3.8-7.2-5.4ZM1061.2 36c-.5-1.4 2-2.3 3.1-1.8-.2 1.5-1.9 1.8-3.1 1.8ZM87.5 35c3 .6 5.6 2.5 7.6 4.7L87.5 35ZM429.5 34.8c6.8 3.3 10.7 10.7 12.5 17.7a36.4 36.4 0 0 0-12.5-17.7ZM897.4 57c.4-3.9.3-7.8 1.4-11.5l.1 2.6c1.4 1.5 2.1 4.1.8 5.9l-.5.1-1.4.3c.3 3.3 0 6.5-.5 9.8-1.9 19.3-4 38.6-5.8 58-1 7.2-1 14.7-2.6 22 2.3-29.2 5.8-58.2 8.5-87.3ZM1047.1 50.9c.2-1.2 2-1.8 3-1.4 0 .8-.3 1.6-.7 2.3l-2.3-1ZM443 56.9c1.3 4.2 1 8.7 1.9 13l-.4.8c-.5-4.6-1.2-9.2-1.5-13.8ZM578.8 57.4c1.5.7 1.5 4 1 5.7-1.7-1.5-1.2-3.8-1-5.7ZM195 72c.2-4 0-8.1 1.1-12-.8 22-.7 44 0 66.1-1.2-3.9-.9-8-1-12V72ZM538.2 92.7c-.8-9.9-.3-19.9-.3-29.8 0 4.8.2 9.5.1 14.3a35 35 0 0 0 0 6.7c0 3 0 6 .2 8.8ZM579.7 64.3c1.5.7 1.7 4.2.9 5.7a7.8 7.8 0 0 1-1-5.7ZM1156 66c1.3 15 .4 30 .6 45-.2 8.7.9 17.8-1.6 26.3l.6-5.5c.6-5 .4-9.9.4-14.8V66ZM538.2 92.7V189c0 4.2-.2 8.5.4 12.8l-.3-.8c-.3-36-.1-72.2-.1-108.3Z"/><path d="m501.5 124.4 1-.1c6.6-.4 13.2-.1 19.8-.2 0 14.1.8 28.2.3 42.3l-.5-1.1c-.5-13.5 0-27-.4-40.6-6.8-.2-13.5.5-20.2-.3ZM196.1 126.5c1 5.4 1.8 10.9 4.2 15.8 1.8 3.9 4.8 7 7 10.5-1.5-.3-2.4-1.7-3.3-2.8-5.1-6.7-8-15.1-7.9-23.5ZM589.7 136.3l1.4.8.5 2.2-.6 4a217 217 0 0 0-1.3-7ZM1148 154.7c3-5.4 4.8-11.3 7-17-1.4 8.2-5.8 15.5-9.4 23-7.9 14.8-15.4 29.8-23.6 44.5 2-5.7 5.5-10.7 8-16.2 6.1-11.3 12-22.8 18-34.3ZM279.1 158.7c1.6 3.1 1.9 6.8 3.8 9.8l-1.5-1.5c-1-2.7-1.8-5.5-2.3-8.3ZM886 174c0-2.8.2-5.7.8-8.5.3 2.9-.1 5.8-.9 8.6ZM885 184c-.1-2.8.2-5.7.8-8.5.3 2.9-.2 5.7-.9 8.5ZM195.4 196.6c-1.4-3.3-.7-7-.4-10.5 0 3.5-.3 7.1 1.2 10.4.8 1.7.6 3.4 0 5.1.1-1.7 0-3.5-.8-5ZM570.7 189.7c.9 5.6 1.8 11.2 2.3 16.8l-.3-1c-.7-1.7-.7-3.5-.8-5.3l-1.2-.1V278c0 1.4.3 3-.4 4.4l-.3.8V222c0-10.8-.3-21.6.7-32.3ZM781.4 198l.8-1.2-2 5.2 1.8 2.3-1.4-1-1-2.4 1.8-3ZM195.3 203l.8-1.2c-.8 4.7-.5 9.5-.5 14.2 0 13-.1 26 .5 39-1.5-5.5-.8-11.3-1-17 0-11.6-.4-23.4.2-35ZM357.2 207.4c-.2-1.5.4-2.3 1.9-2.2 0 1.3-.6 2-2 2.2ZM1110.8 225.6c3.6-6.3 6.3-13.2 10.5-19-5.7 11.6-12.2 23-18 34.6 17.7.1 35.5-.1 53.2.1l-.8.4c-6.5.7-13.1 0-19.7.2-11.1-.2-22.2.6-33.3-.1 2-5.8 5.5-10.8 8.1-16.2ZM356.6 216c0-2 0-4.1.3-6.2.5 24.6 0 49.2.2 73.8h4.5v.8l-.1 1c-1.5-.2-3 0-4.5-.4-.7-1.1-.4-2.7-.5-4-.1-21.7.2-43.3.1-65ZM400 242.4l5.2-3.6c-.8 2.4-3.4 4.2-6 3.5v-1.6l.3.7.4 1ZM1015.2 282.4c4.5.6 9 3.2 13.6 1.5-.6 2.2-3.2 1.1-4.8 1.4-1.7.2-3.2-.3-4.3-1.6l-4-.4c-.3 5.2-.2 10.3-.2 15.5-3.5.3-7.5.8-10.5-1.7a21 21 0 0 0 10 1.4c0-5.4 0-10.7.2-16Z"/></g><path fill="#965c5c" opacity=".6" d="M1078 30.8c9.6-1.5 19.3-.5 29-.8 6.3.3 12.8-.8 19 1-14.6.3-29.3.1-44 .1-3.5 0-6.8.7-10.2 1 1.7-1.6 4.1-1 6.3-1.3Z"/><g fill="#fe0000"><path d="m223.9 31.3 1-.3h31.5c3.3.8 6.5 1.4 9.8 1.9h.2c2.6 1.7 5.3 3.1 7.2 5.5 3.5 4.1 5.4 9.3 7.4 14.2l.2.5c1.9 21.7 1.2 43.5 1 65.3-5-.3-10.4 1-15.2-1.4-2-1.2-4 .8-6 1.2-2.8.5-5.7.2-8.6.4l-8 .1V89.3c0-4.7.7-9.5-1-14-.7-2-2.7-3-4.4-4.2-1.6 1.3-3.7 2.2-4.4 4.2-1.4 4.3-1 8.8-1.1 13.3l-2.2 2.4c4.4 7 .8 15.5 3 23 1 4 4.4 6.8 7.5 9.3l1.8 1.4a13 13 0 0 0 3.7 4c3.6 2.7 7 5.8 11.1 7.5 5.8 4.4 10.6 9.8 16.1 14.4h.1l.1.3a23 23 0 0 0 4.4 7.7c.5 3 1.4 5.7 2.3 8.4 1.6 7.9 1.2 16 1.3 24 0 19.7.2 39.3-.1 59-.4 6.7-.8 14-5.1 19.6-1.7 2.3-2.2 5.4-4.4 7.4-4.7 4.8-11.7 6-18 6.6-9 .3-18.1.1-27.1.2-5-.1-10.4.1-15.1-2.1a84 84 0 0 1-1.6-1.8h-3.6a39 39 0 0 1-7.6-10.4c-2.3-4.4-2.9-9.4-4-14.2v-.3c-.6-13-.5-26-.5-39 0-4.7-.3-9.5.6-14.2v-.2c.6-1.7.8-3.4 0-5-1.4-3.4-1.2-7-1.2-10.5v-4l.5-.6c6-1.6 12.3-.6 18.5-.9 6 .2 12-.5 17.7.7.8 3.1.5 6.4.5 9.7-.2 12 0 24-.2 36 0 4.4.4 8.9 2 13 1.4 4 7.7 4.3 9.8.8 2.6-4.1 2-9.2 2.1-13.8-.2-11 .6-22-.5-33-.3 12.7 0 25.4 0 38-.1 1.6-.5 3-1 4.4.2-15.1 0-30.2 0-45.3.3-3.8-.1-7.5-1.2-11l-2.2-1.3c-4.4-4.3-10.4-6.9-14-12-.8-1.3-2.3-1.8-3.6-2.4-6.2-2.5-10-8.7-16-11.5l-.1-.1c-2.2-3.6-5.3-6.6-7-10.5-2.4-5-3.3-10.4-4.2-15.8v-.4c-.7-22-.8-44 0-66l.2-.7c1.3-4.1 1.3-8.6 2.6-12.7l.1-.1c1.8-2.8 3.7-5.6 5.3-8.5l.3-.6.7-.4c2.4-1.3 4.9-2.7 7.3-4.2l.7.2c1.2.5 2 .1 2.6-1l1.5.2c2.2.4 4.5 0 6.5-1ZM1071.8 32c3.4-.2 6.7-.8 10.2-.9 14.7 0 29.4.2 44 0h.4c3 1.3 6.4 1.1 9.5 2 4.3 1.3 7.8 4.2 11.4 6.8l.4.2.2.5c1.7 4.3 4.6 8 5.8 12.5 1.2 3.8 1.3 7.8 1.3 11.7V112c.2 6.6-.6 13.2.6 19.8l-.6 5.5v.4c-2.2 5.7-4 11.6-7 17-6 11.5-11.9 23-18 34.3-2.5 5.5-6 10.5-8 16.2l-.3 1-.4.4c-4.2 5.8-6.9 12.7-10.5 19-2.6 5.4-6 10.5-8 16.2 11 .7 22.1-.1 33.2.1 6.6-.2 13.2.5 19.7-.2.4 14-.1 27.9.3 41.8h-19.2c-30 0-60.2.1-90.2-.1-.1-13.2-.2-26.3 0-39.4 1-5 4.7-9 6.2-13.8l.3 1.4c1.3-5 4.5-9.2 6.6-13.9 11.1-21.2 22.5-42.3 33.3-63.6l.3 1.6c0-1.7 1.4-2.5 2.6-3.4l-.1-3.5c3.6-6.4 7.4-13 9.8-20 2.4-6 2.4-12.5 2.7-18.8-.2-11.8.7-23.6-1.1-35.3-1.7-3.9-7-3.9-10-1.6-2.7 3.3-2.8 7.8-2.8 11.8v34.4a45.5 45.5 0 0 1-17.9.7c-9.5-1.2-19.3 0-28.9-.5-1.7-.8-1-3-1.1-4.5.2-15.3-.3-30.7.3-46 1-5.7 0-11.8 2.6-17.2.4-.7.7-1.5.8-2.3l.6-2.4c2.9-4 6-7.8 9.8-11h.6c1.2-.1 3-.4 3.1-2l.9.1 1.8-1h1.3c1.2.3 2 0 2.6-1l.9-.1ZM18.6 32.2c21.8.5 43.8-.8 65.6 1.8l.7.2 2 .9h.6c2.6 1.4 5 3 7.6 4.6l.7.3.3.7 4.9 9v.4l.5 2.1c-.5 6.8 2.2 13.1 2 19.8v38c.3 11.3-1 22.6-3.2 33.6A24.9 24.9 0 0 1 87 158.7c2.7 4.1 7.8 6 10 10.6 4 5.9 4.4 13.2 6.1 20l.2 1.7c.3 30.4.2 60.9 0 91.3-7.7.3-15.5.1-23.3 0-3.8.8-7.8 1.6-11.8 1.2h-1.7c-.6-20.8 0-41.7-.2-62.5-.3-4.7.8-9.4 0-14-1-7-1-14.4-4.9-20.6-1.2-2.2-3.7-3-6-3.4-.4 6.3-1 12.7-.2 19 .1 2.7-.4 5.3-.5 8-.2 4 .9 8 .4 12-.9 8 0 16 0 24a228 228 0 0 0-.2 23c.7 4.8.4 9.7-.4 14.5-7.5.2-15-.4-22.6.3l-1.2.2c-4.5 1-9 .2-13.6.6l.4-.8.6-1.2c-2-12.8.5-26-1.3-38.7-.5-2.5-.8-5-.7-7.5 2.5-2.2 4.4-5.7 2.4-9-.6-2.4-1-4.9-1.1-7.4V38c0-2 .6-4 1.2-5.8m36.8 41.1c-1.3 4.2-.5 8.5-.2 12.7-1.2 9.6 0 19.3-.4 29 .1 2 .8 4 0 6 .6 5.5-.9 11.2 1 16.5 2.5 0 5-.6 7.3-1.3 1-1.6 2.5-3 2.4-5 1.2-8 .7-16.1.8-24.2-.1-6.7.3-13.4-.5-20-.5-4.4 1-9.7-2.8-13-2.3-1-5-.5-7.6-.7ZM121.9 33.5a21 21 0 0 1 9-1.2c5.5.2 11-.6 16.3 1 2.6-.7 5.1-1.1 7.8-1 8.6.1 17.2-.1 25.8.1.5 5.2.6 10.4.7 15.6-1.7 7.5.6 15.4-1.6 22.8-6 1.3-12 0-18 .5-1 0-2.6.3-2.5 1.7-.4 8 .6 16.1-1.3 24 2.2 9.2.9 18.6 1.2 28 6.7 1.6 13.7-.4 20.4 1.2.8 2.5.6 5.2.6 7.8v26c.1 1.6-.4 3.8-2.3 4-5.8.7-11.8-.5-17.7.6-1.3.3-.7 2.3-1 3.3V232c0 3.4-.3 7 .4 10.3 3.8.6 7.7.6 11.5.5l3.6-.4c1.6.1 3.5 0 5 .9.8 1.4.5 3.1.6 4.7l.1 33.4c-4 1.4-8.3.8-12.5.9l-29-.1a40 40 0 0 0-7.2.6c-3.2.5-6.5.6-9.7.4.2-13.1-.2-26.2-.3-39.4l.6-1.8c.9-.7 1.3-2.8-.3-2.7V87.9c1.5-.6 1.5-1.2 0-1.7 0-17.5.5-35.1-.2-52.7ZM300.1 32.4c12.5 0 25-.4 37.4 0 .3 83 0 166.2.2 249.3H310c-2.9 0-6 .8-8.8 0l-.5-2.7V135c-.1-22.1.3-44.3-.2-66.5.7-3.1 1.5-6.5 0-9.6-1-8.8-.2-17.7-.4-26.5ZM357.3 32.3c23 .4 46-1 69 1.7l.7.2 1.9.8.6-.2c6.3 4.2 9.8 11 12.5 17.7l-.2.8c-.4 1.2 0 2 1.1 2.5v1c.4 4.7 1 9.3 1.6 14v7.5c-.3 1.9-.7 3.8-.8 5.7v142c.2 5-.6 10 .6 15 .6 10.8-.5 22.4-6.5 31.7-4.8 7.6-14.4 10.2-22.9 9.9-5.3-.3-10.6.9-16 .8l-37.3.1H357c-.2-24.5.3-49.1-.3-73.7l.4-2.4c1.3-.2 2-.9 1.9-2.2v-3.1c-.5-2.8-2-5.3-2-8v-87c0-4-1-8.7 2.4-11.6-3.2-1.8-2.4-5.6-2.4-8.6.1-18.2-.3-36.4.2-54.6m38.1 41.1c0 56.3-.1 112.6.1 168.9h3.7c2.6.7 5.2-1 6-3.5v-.6l.2-1.2 1.2 1c.5-4.8-.2-9.7.8-14.4 1.1-4.2-.9-8.4-.6-12.6.2-42.7-.3-85.3.3-128-.4-3 .1-6.6-2.3-8.8-2.4-2.4-7-4-9.4-.8ZM462.9 32.5c11-.3 22-.3 33-.3 3.2-.3 6 2.4 9 1.2 5.4-2 11.2-.8 16.8-1 .1 5.1.2 10.3 0 15.5-1.7 2.2-2 5 .2 7 0 5.6-.3 11.2.1 16.9v.6h-20.6a47 47 0 0 0-.1 16.5c.5 11.8 0 23.6.2 35.5 6.7.8 13.4.1 20.2.3.4 13.6-.1 27.1.4 40.6-6.9.6-13.7 0-20.6.3l-1.2.8c-.3 12.8 0 25.7-.1 38.6-.6 12.2-.2 24.5.1 36.7 7 1.6 14.2-.4 21 1.3.7 13-.3 26 .7 39l.1 1.5h-57.6l-.1.9-.2 1.1c-.8-2.8-1.2-5.6-1-8.5 0-12.7-.2-25.5 0-38.2l.1-.4c1.6-4.4-1-8.9-.6-13.4.2-64.2 0-128.3.2-192.5ZM538.5 32.5c12.2-.3 24.5-.2 36.7 0 1.3 8 2.2 16.1 3.6 24.2v.7c-.2 1.9-.7 4.2 1 5.7l-.1 1.2c-.4 2-.2 4 .9 5.7l.5 1.8c.2 4.6.2 9.3 1.8 13.7v.4c.4 4.6.4 9.3 2 13.7v.4c.6 9.4 2.3 18.7 3.6 28 .3 2.7.3 5.4 1.1 7.9l.1.4 1.3 7c.5 3.2.4 6.5 2.2 9.3.7-6.2.2-12.4.3-18.6 0-19.9.2-39.8 0-59.7-.2-2.2-.2-4.4-.1-6.6 0-2.8-.2-5.7.4-8.5.6-2 1.4-4 1.7-6.3L594 51l-.4-2c.1-5.3-.9-10.8.7-15.9 1.4-1 3.2-.9 4.8-.9 9 .3 17.9.1 26.8.2.2 83.5 0 167 0 250.5h-37.5a44.4 44.4 0 0 1-2.2-12c-.1-4.4-1.9-8.5-2-13 0-5-1.9-9.8-2-14.9-1.5-11-3.5-22-4.5-33-1.7-6.5-1.3-13.3-2.2-19.9v4.8c-1.6-3.8-1.5-8-2.3-11.9-1-5.8-2-11.7-1.8-17.6h-.8v1c-1.7 3-1.2 6.4-1.2 9.6v88c0 6 .4 11.9-.3 17.8-9.9 0-19.8.1-29.7 0-.1-16.8.4-33.5-.2-50.2.1-5.5.2-11 0-16.6 1.7-4.3 2.3-9.3-.5-13.3-.6-4.2-.3-8.5-.4-12.7V93.8c1-5.5 2.6-11.1 1.6-16.8-1-5.5 0-11.2-1.4-16.6 0-4.8-.4-9.6.2-14.3.7-4.6-.3-9.1-.1-13.6ZM637 32.3h42c2.7 0 5.3.6 8 1.3 8.4-2.6 17.3-1.1 26-1 .4 13.2-.7 26.4.2 39.6L710 72c-5.5-.3-11-.4-16.3.3.4 10.5 0 21.1.2 31.7v177.9c-3.3.5-6.6 1-10 1-9.1-.2-18.3 0-27.5-.2-.2-68.9 0-137.8 0-206.6-.4-1.4.5-4.1-1.6-4.2-5.8-.2-11.8.1-17.6 0 0-13.2 0-26.4-.2-39.6ZM744.3 32.4c19.5-.2 39-.1 58.7 0 0 5.6-.3 11.1.3 16.6l.3 8.7c-.3 4.8-.6 9.6-.7 14.5l-7.1.3h-13.4c-.2 5.2.1 10.5-.2 15.8-.8 11.9-.2 23.9-.4 35.8l1.3 1c5.9.8 12.1-.7 18 .7 1.8.5 1 2.8 1.3 4.2v31c0 1.5-.5 3-1.6 4l-.7.7a41 41 0 0 1-3.7-.7 33.2 33.2 0 0 0-13.3-.9c-2.4.2-1.6 3.2-2 4.8.2 9.7.1 19.4.3 29l-1.8 3 1 2.3c1.8 13-.2 26 1.1 39 6.5 1.6 13.4 0 20 1 0 13.4.7 26.9-.5 40.3h1.5l1 .1-1.2.6c-2.3.5-4.6.3-6.8-.1-3.9-1-7.9-.6-11.8-.7-1-.6-2-1.4-3-1.9-1.8-.2-3.3 1.2-4.9 2-10.5.1-21-.2-31.6 0-1-4.4-.6-9-.7-13.5V107c.1-4-.7-8.2 1.5-11.7a9 9 0 0 0-.6-10.6c-.6-7.2-.2-14.5-.3-21.7.1-10.2-.4-20.4 0-30.6ZM811.2 32.4c11.8 0 23.7-.3 35.6 0 1.2 18.3 1.8 36.4 2.9 54.6 0 3-1 6-.3 8.9 1.4 5.2 1 10.7 1.2 16l.8-2.3c-.1 11.5 1.1 23 1.2 34.5 1.2 7.2.7 14.6 1.3 22 1 8.6 0 17.3 1.3 26 .6-5 1.3-10 1.2-15.1 0-7.1 1.3-14.2 1.4-21.3 1 4 .6 8.2.7 12.2.1-13-1-26 .8-38.9.1-11.3 1-22.6 1.4-34 1.2-8 .5-16 1.4-24 .7-6.7 0-13.5 1.1-20.2.3 6 .2 12 .3 18 0-12 .1-24.2.9-36.3 11.8-.3 23.6-.1 35.4 0-.6 4.2-1 8.4-1 12.6v.4c-1.1 3.7-1 7.6-1.4 11.4-2.7 29.1-6.3 58.1-8.5 87.2v.6c-1.5 6.3-1.7 12.8-2 19.3v1.5a42 42 0 0 0-1 8.6l-.1 1.4c-.6 2.8-.9 5.7-.9 8.5v1.5c-.6 1.4-1 2.9-1 4.4-.2 4.4-1 8.8-.9 13.2l-.2 1.5c-1.9 9.4-2.2 19-2.9 28.6l-.1 1.2c-.8 3.8-.9 7.7-1.6 11.5l-2.2 12.4c0 8.1-.8 16.3-2.5 24.3-13.6-.1-27.3.1-40.9-.2 0-7-.4-14-1.6-20.8-1.3-8 .5-16.4-2.7-24-2.4-25.1-4.3-50.4-6.6-75.6-.1-7.4-1.9-14.6-1.4-22 .2-2.4 1.1-4.7 1-7-.9-2.7-2.7-5-2.8-7.9-1.8-25.4-4.3-50.8-6.2-76.3 0-5.5-1.2-10.9-1.1-16.4ZM912.2 33.3H949V276c-.1 2.3.4 4.7-.3 7l-.7.4h-37.5V226c-.6-4.7 4.8-9 1.5-13.4-.2-56.2 0-112.4-.2-168.7 0-3.5 0-7 .4-10.6ZM968.3 32.3c12.5.2 25-.1 37.4 0l.1 208.4.6.1c7.2.5 14.5 0 21.8.3l.1 1v.3c.8 5.9.4 11.7.4 17.6-.2 7.8 0 15.6-.2 23.4-3.7.6-7-.7-10.5-1.8-3 .3-6 1.3-9 1.2h-35c-1.6 0-3.5.3-4.8-1-1.3-1.3-1-3.1-1-4.8.2-81.6-.3-163.2.1-244.7Z"/><path d="M1094.2 150.2c2.9.6-1.4 3 0 0Z"/></g><g fill="#f77a8d"><path d="M1126.4 31c7.7.2 16 2.5 21 8.9-3.7-2.6-7.2-5.5-11.5-6.7-3.1-1-6.5-.8-9.5-2.1ZM593 35c-.7-3 2.8-3.4 5-3.3 9.5.7 19.2-.3 28.8.6-.3 80 0 159.8-.1 239.7-.2 3.8.3 7.5-.4 11.2l-2.6.7-.4-.5h-35.6c-2.4-12-3.5-24.3-5.5-36.4-1.5-12.3-3.7-24.6-5-36.9a93.8 93.8 0 0 1-1.8-20c.9 6.6.5 13.4 2.2 19.9 1 11 3 22 4.5 33 .1 5.1 2 10 2 15 .1 4.4 1.9 8.5 2 13 .1 4 1 8 2.2 11.8l37.5.1c0-83.5.2-167 0-250.5-9 0-17.8 0-26.8-.2-1.6 0-3.4 0-4.8 1-1.6 5-.6 10.5-.7 15.8-1.3-4.5-.2-9.4-.5-14ZM864 32.1c12.2-.2 24.4-.3 36.6.1-.8 4.3-.4 8.8-1.7 13 0-4.3.3-8.5.9-12.8-11.8 0-23.6-.2-35.4.1-.8 12.1-.9 24.3-1 36.4 0-6 .1-12-.2-18v-2.5c-.3-5.4.2-10.9.8-16.3ZM967.3 32.2h1c-.4 81.6 0 163.2-.2 244.8 0 1.7-.2 3.5 1 4.8 1.4 1.3 3.3 1 5 1h34.8c3.1 0 6-1 9.1-1.2 3.4 1 6.8 2.4 10.5 1.8.3-7.8 0-15.6.2-23.4 0-5.9.4-11.7-.3-17.6l.3.3c1.9 4.1.4 9 .8 13.5l1 1.6v.4c-.6 8.3 0 16.6-.4 24.8l-1.3 1c-4.6 1.6-9-1-13.6-1.6-6.6 1.5-13.4.7-20.1 1-9 0-17.9-.3-26.8.1l-.6-4.5V142c-.1-31 .3-62-.2-93v-.8c-.5-5.3-.2-10.7-.2-16ZM636.6 49c0-5.6-.2-11.2.4-16.7.2 13.2.1 26.4.2 39.5 5.8.2 11.8-.1 17.6.1 2.1.1 1.2 2.8 1.5 4.1l.1 206.7c9.2.3 18.4 0 27.5.2 3.4 0 6.7-.5 10-1v-178c-.2-10.5.2-21-.2-31.6 5.4-.7 10.8-.5 16.3-.3l-2.5.2c-4.2.5-8.4-.2-12.5.6l-.9 1c.2 5.1 0 10.3.4 15.4.4 64.6-.1 129.1.3 193.7h-.9c-1.3-.1-2.5 0-3.7.5l-.5.4-.4-.4c-11-.2-22 0-33 0-.3-68.8 0-137.6-.1-206.4a35 35 0 0 0-.5-4.3c-6.3-.6-12.7-.1-19-.2V48.9ZM1050.8 47c2-4.4 5.3-8.8 9.8-11-3.7 3.3-7 7-9.8 11ZM199 46.6a18 18 0 0 1 5.3-8.5c-1.6 3-3.5 5.7-5.3 8.5ZM96.1 40.7c2.5 2.5 4.2 5.6 4.9 9l-4.9-9ZM1148 40.6c5.1 6.4 8 14.8 7.8 23l-.8 1.2c0-4-.1-8-1.3-11.7-1.2-4.5-4-8.2-5.8-12.5ZM196.3 59.4c-.3-4.3.6-8.9 2.6-12.7-1.3 4.1-1.3 8.6-2.6 12.7ZM803.6 57.7l.5 4.3c0 3.3-.5 6.6.2 10l-1 .6c-2 2-5.2 1.2-7.8 1.4l.3-1.5 7.1-.3c.1-4.9.4-9.7.7-14.5ZM581 71.8c1.1 4.5 1.7 9.1 2 13.7-1.7-4.4-1.7-9.1-2-13.7ZM583 86a68 68 0 0 1 1.9 13.6c-1.6-4.4-1.6-9.1-2-13.7Z"/><path d="M585 100c2 10.1 2.9 20.6 4.6 30.8a12 12 0 0 1 0 5c-.8-2.4-.8-5.1-1.1-7.7-1.3-9.4-3-18.7-3.6-28.1ZM258.4 136.2a61.5 61.5 0 0 1 16.1 14.4c-5.6-4.6-10.4-10-16-14.4ZM887 164c.2-6.5.4-13 1.8-19.3.6 4.1-.7 8.2-.8 12.4-.1 2.3-.4 4.6-1 6.8ZM274.7 151c2 2.2 3.5 4.8 4.4 7.6a23 23 0 0 1-4.4-7.7ZM796.4 165l3.7.7.7-.8 1.7-1.8.7 1.6.4.8-1.4 1.8c-2-.2-4-.4-5.8-.8V165ZM883.8 190c0-1.6.5-3.1 1.1-4.5-.4 5.9-.8 11.8-1.9 17.6-.1-4.4.7-8.8.8-13.2ZM103.3 191c.3 3.7.3 7.3.3 11v80.5c-6.5.2-13 0-19.5 0-1.7.2-4 0-5 1.7l-.3.4c-3.5.7-7 .5-10.6.5v-1.6c4 .4 8-.4 11.8-1.3 7.8.2 15.6.4 23.4.1 0-30.4.2-60.9-.1-91.3ZM880 233.2c.6-9.5 1-19.2 2.8-28.6.4 4.9-1 9.6-1 14.4-1 4.7-.5 9.6-1.9 14.2ZM878.2 245.9c.7-3.8.8-7.7 1.6-11.6.4 3-.2 5.8-.5 8.7-1 10.6-2 21.3-3.2 32-.3 3.5-.3 7.1-1.8 10.4-2.6-.2-5.2-.5-7.8-1 2.3-1.8 5.4-1 8.1-1.3 1-12.5 2.5-24.8 3.6-37.2ZM196.2 255.3c1 4.8 1.6 9.8 4 14.2a39 39 0 0 0 7.5 10.3l3.6.1 1.6 1.8c-1.9-1-3.9-1.5-6-1.6l-3.6-3.1c-4.7-6.2-7.3-14-7.1-21.7ZM299.1 283.3l1 .1 6 .2v1.8l-6.3-.1-.7-2ZM937.1 283.5l11-.1.3.5v.8c-3.3 1.3-7.2.4-10.8.3h-.5v-1.5ZM1136.8 283.5h19.2l-.1 1.2c-6.4.8-12.7.4-19 .3l-.1-1.5Z"/></g><path fill="#b86564" opacity=".7" d="M213.3 33.1c.3-1.4 1.1-1.7 2.6-1-.5 1.1-1.4 1.5-2.6 1Z"/><path fill="#c67271" opacity=".8" d="M299.4 31.7v.6c1.2 8.8-1 17.9 1.1 26.6 1.5 3 .7 6.5 0 9.6-.8 4.2-.4 8.4-.5 12.5v202.4h-.9c-.3-70.5 0-141-.1-211.4-.3-3.2 1.5-6 1.9-9-.4-2.4-2.3-4.5-1.8-7 .3-8.1-.4-16.3.3-24.3Z"/><path fill="#5d4949" opacity=".4" d="M522 31.9c1.5 1.3.7 3.4.9 5-.3 3.5.3 7-.6 10.4l-.3-15.4Z"/><path fill="#da1c1c" d="M910.2 32c13-.3 26 0 38.9 0v1.3h-36.9c-.4 3.6-.5 7.1-.4 10.6.2 56.3 0 112.5.2 168.7-2.4-3.8-1.4-8.4-1.6-12.6-.1-50.3.2-100.6-.2-151v-1a154 154 0 0 1 0-16Z"/><path fill="#c06162" opacity=".8" d="M1068.3 33.2c.2-1.5 1-1.8 2.6-1-.6 1-1.4 1.3-2.6 1Z"/><g fill="#8a0302"><path d="M16.9 46c0-4.6-.2-9.2.5-13.8h1.2c-.6 1.9-1.2 3.8-1.2 5.7v182c0 2.6.5 5.1 1 7.6-1-2-1.6-4.2-1.5-6.5V46ZM101.5 52.2l1.6 1c1.9 10.1 1.3 20.5 1.4 30.8 0 16 .2 32-.3 48-1 5.2-1.6 10.6-4 15.3v-3.7c2.2-11 3.6-22.3 3.3-33.6V72c.2-6.7-2.5-13-2-19.8ZM102 176.8l.7.6.3.3c.6 4.4 1.5 8.8 1.4 13.3.3 30.9 0 61.8.2 92.8-8.5.9-17 .2-25.5.4 1-1.7 3.3-1.5 5-1.6h19.5V202c0-3.7 0-7.3-.3-11l-.2-1.7c0-4.2-.6-8.4-1.2-12.6ZM828.3 237.7c3.2 7.5 1.4 16 2.7 23.9 1.2 6.8 1.5 13.8 1.6 20.8 13.6.3 27.3 0 40.9.2 1.7-8 2.4-16.2 2.5-24.3.9-4.1 1.5-8.3 2.2-12.4-1 12.4-2.6 24.7-3.6 37.2-2.7.4-5.8-.5-8 1.4-11.7-1-23.4.4-35-.7-.7-9-2.1-17.8-2.2-26.8 0-6.5-1.8-12.8-1.1-19.3ZM16.8 243.9c1.8 12.8-.7 25.9 1.3 38.7l-.6 1.2c-1.4-13.2-.2-26.6-.7-40Z"/></g><path fill="#bc6768" opacity=".7" d="m1065.2 33.3 1.8-.2-1.8 1.1v-.9Z"/><path fill="#bd6867" opacity=".7" d="M85 34.2h1.7l.1.9-1.9-1Z"/><path fill="#76585b" opacity=".5" d="M121 39c0-1.9.3-3.7.9-5.5.6 17.6.1 35.2.2 52.7-1.3-1-1-2.7-1.1-4.2V39Z"/><path fill="#c26c6a" opacity=".8" d="M427 34.2h1.7l.2.8-2-.8Z"/><g fill="#fff7f8"><path d="M182 48.4c2.8 0 5.8-.1 8.7 0l.7 1c1 13 .3 26.2.2 39.4-6.9.4-13.8 0-20.6.2-.2 6.7 0 13.5-.2 20.2-2 4.8 1.2 9.9 0 15l-.3-.5c.3-4.7-1-9.4-1.2-14.1l1.2.2V88.7c7-.2 13.8 0 20.6-.2.1-13.2.7-26.4-.1-39.6h-9v-.5ZM854.4 49c2.6-1.3 5.9-.4 8.7-.6v.4l-8.2.1-2.7 50.6c-.7-9.2 1-18.3 1-27.5l1.2-23ZM101 50.1c1.3 3 4.7 3.8 6.7 6.2 5.7 6 7 14.7 8 22.7 1.3 15.3.7 30.7.8 46-.4 12.3 0 25-3.9 36.8-1.8 5.8-6 10.8-11.5 13.3l-.1-.4c7.5-3.2 11.3-10.9 12.7-18.5 2.9-14.8 2.3-30.1 2.4-45.2 0-13.5.6-27.3-2.2-40.6-1.3-6.8-4.6-13.7-10.8-17.2l-1.6-1-.4-2ZM737.3 49.5c1 1.7.4 3.7.5 5.5-.2 13 0 26-.1 39 0 1.8 0 3.7.4 5.5.8 2.2 2.7 4 2.6 6.5.1 2.5-1 4.8-2 7l-.7-.7c2.7-2.1 2.3-5.9 2-8.9a8.6 8.6 0 0 1-2.7-6.4V49.5ZM1031.7 70.7c1.7-8.3 7-16.5 15-19.6-6.1 3-10.9 8.4-13.2 14.9-3.3 9-2.7 18.6-3 28-.2 13.9-.1 27.7 0 41.6h45.8c0-5.2 0-10.4.3-15.5 4.3.6 8.8.6 13.2 0v1.4c-4.3-.3-8.6 0-12.9-.2l-.1 14.5c-15.6.3-31.1.1-46.7.1v-35c0-10-.4-20.3 1.6-30.3ZM804.1 62c2 25 4.3 50 6.2 75 .2 3.2.1 6.6 1.9 9.4 1.6 2.3.9 5 .3 7.6-1.1 4.7.2 9.5.4 14.2.3 5 .9 10 1 15-1.2-4.6-.5-9.4-1.3-14.1-.6-4-.5-8.1-1-12.2-.2-2.7 1.7-5.2 1.4-7.9-.5-2.1-2.5-3.8-2.7-6-1.3-18.7-3.1-37.4-4.5-56.1-.8-5-.5-10-1.5-15-.7-3.3-.2-6.6-.1-9.9ZM287.1 65.8c1.1 2.7 1.9 5.6 1.9 8.5l-1.9-8.5ZM708.2 73.7l4.2.2c-1.2.6-2.4.7-3.8.5 0 4.2 0 8.3-.2 12.5 0 1.2-.6 2.4-2 2.3-3.7.2-7.5.7-11.2 0h.3c4-.1 8.2.6 12.1-.6 1-5 .4-10 .6-15ZM289 74.9c1.2 4.3.9 8.7 1 13.1l-.1 46.8h-11c-2.6.3-4.5-2.2-7.2-2 2.2-.8 4 1.2 6.2 1.4 4 .3 8 0 11.9.1-.1-19.8.6-39.6-.8-59.4ZM399.1 89.8c2.2-.1 4.4-.2 6.6-.1v.3c.4 7.7.1 15.3.2 23 0 35 .2 70.1 0 105.2-.3-1.4-.4-2.8-.4-4.2V102c0-4 0-8-.3-12h-5.5c-.7 3.6-.4 7.3-.4 11v128c0 4.1-.1 8.3.2 12.4l-.4-.7V89.8ZM737.2 114.1l.5.1V284c.2 4.8-.5 9.8.5 14.6H767c2.2.2 4-1.2 6-2 2 .5 3.7 2.3 6 2h16.6l.1-14.5c2.2.4 4.5.6 6.8 0l.3 1.1H796V299c-6 0-12 .2-18 0-2 .4-3-2-5-2-1.7.7-3 2.2-5 2h-29.3l-1.2-.4c-.6-7.1-.1-14.4-.2-21.5V114ZM1089.2 139.3c-.3-3.4.5-6.8.8-10.1 0 3.4-.3 6.7-.8 10ZM1069.2 181.6a908.4 908.4 0 0 0 17.8-34.9c-1.8 5.7-4.9 10.8-7.5 16-3 6-6 11.8-9.2 17.7l.5 2.1-1.6-.9ZM207.3 152.8c1.4 2.9 2.4 5.9 4.1 8.5 4 6.3 9.9 11 15.6 15.7-2.9-1.3-5-3.8-7.3-5.8-5.5-5-10.7-11-12.4-18.4ZM795.7 166.4l.7.1c1.9.4 3.9.6 5.8.8h.7-7c0 4.8.2 9.5 0 14.3h-13.4c-.3 5.1.4 10.2-.3 15.2 0-5.2-.2-10.4.1-15.7h13.3l.1-14.7ZM283 168.6a25 25 0 0 1 5 12 52 52 0 0 0-5-12ZM101.3 175.8c2 1.5 4.1 3 5.9 4.9l-4.2-3-.3-.3-.8-.7-.6-.9ZM108 182.1c1.6 0 2.2.7 1.7 2.4-1-.5-1.5-1.3-1.7-2.4ZM110 184.6c6.3 9.5 6 21.5 6.3 32.4.4 27.2.2 54.5.2 81.8-12.5.4-25 0-37.5.1-.3-4.2.6-8.6-.2-12.8-3.1-1.5-6.9-.7-10.3-.4.4 4.4.2 8.7.2 13-9.2.5-18.5.2-27.7.3-3.5-.1-7 .3-10.4-.4h37.6V285c3.5 0 7.1.2 10.6-.5l.7 1c0 4.3-.5 8.7-.3 13 12.3 0 24.6.1 37-.1-.2-23.7.1-47.4-.3-71 .3-4.4.2-8.7 0-13-.1-10.2-1-20.7-5.9-29.9ZM289 186.8c1.1 3.3.9 6.8 1 10.2v65c0 5.2-.5 10.4-1.8 15.4.2-2.3.4-4.6.2-6.9l.7.2c1.2-13.2.6-26.5.8-39.7-.2-14.8.4-29.5-.9-44.2ZM1051 217.6c4.4-9 9-18.2 14-27-4.4 9.1-9 18.2-14 27ZM815.1 197.6c.6 3.5.8 7 .9 10.4a41 41 0 0 1-.9-10.4ZM405.1 238.2c0-4.6 0-9.2.7-13.7 0 4.2.1 8.4-.4 12.5l-.3 1.2ZM1031 256.7c4.6-9.8 9.6-19.6 15-29-4.9 9.7-9.7 19.5-15 29ZM537.8 272c.1-13.3-.2-26.7.2-40-.1 17.3.1 34.5-.2 51.8 0 4.8-.6 9.8.7 14.6 10.2.4 20.5.2 30.7.1.1-4.9-.5-9.8.4-14.6l.4-.7.4-.8c-1.2 5.4-.6 11-.8 16.4-10.6.2-21.4.4-32-.2-.7-8.9.5-17.7.2-26.6ZM818.1 233.6c.4 3 .7 6 .9 9.2l.6-.2c-.7 4.5.4 9 .4 13.5-.6-2.7-.9-5.4-1-8.1 0-4.8-1.2-9.6-.9-14.4ZM899.4 238.8c.6 17.3.2 34.8.3 52.1.3 2.4-1 5.5 1.2 7.2l.5.6c12-.2 23.8 0 35.7-.2v-13.6h.5c-.2 4.7-.1 9.3-.1 13.9-9.2.4-18.4 0-27.5.1-3.5 0-7 .5-10.4-.4-.3-1.8-.4-3.7-.4-5.5.3-18-.2-36.2.2-54.2ZM121.5 257c.1-4.4-.3-8.8.3-13.2.1 13.2.5 26.3.3 39.4v1.6c3.7 0 7.5.2 11.2-.4.3 4.7.2 9.5.3 14.3 19.2-.2 38.3 0 57.5-.2v-41.4c-2.8 0-5.6-.3-8.3.7 2.5-1.9 5.9-.7 8.8-.7v41.6c-19.5.5-39 .2-58.5.2v-13.6h-11.3c-.5-9.5 0-18.9-.3-28.3ZM1030.1 283c.4-8.2-.2-16.5.4-24.8-.2 13.5-.1 27 0 40.4h106.3c.1-4.6.2-9.1 0-13.7 6.4.2 12.8.6 19-.2l-.8.5c-6 .3-12-.2-18 .2V299l-107-.1.1-15.9ZM203.3 277l3.6 3c3 6 6 12.1 11.6 16-6.4-3.3-8.8-10.4-12.3-16.1-1.1-.8-2-1.8-2.9-2.9ZM282 290.5c1.1-4.7 4.6-8.2 6.1-12.8-.3 2.7-1.7 5.1-3.4 7.2-1.3 1.7-1.4 4-2.7 5.6ZM434.7 294c4.4-3.4 7.2-8.3 9.3-13.4a22 22 0 0 1-9.3 13.4ZM17.1 284.6c4.6-.4 9.1.3 13.6-.6l.5 1-.3.6c-4.8-.9-9.6.1-14.3-.7l.5-.3ZM866.5 284.5l7.8.9-7.3-.3c-.1 2.4-.3 4.8-1 7.1l.5-7.7ZM430.7 295.6c.9-1 2.2-1.5 3.5-1.5.4 1.5-2.5 2.3-3.5 1.5ZM270 297.8c1-1.6 3-1.5 4.8-1.7 0 1.6-3.6 2.6-4.8 1.7ZM220.8 297.1l9.5 1.9c-3.3 0-6.5-.6-9.5-1.9Z"/></g><path fill="#767273" opacity=".6" d="m900.7 49.9.2-2c3.1 0 6.2.1 9.3 0v1.2c-3 0-6.2 0-9.2-.5l-.1.6-.2.7Z"/><path fill="#6d6d6d" opacity=".9" d="M955.4 48.4c4-.4 8-.2 12-.2l.1.8H956v249.3c14.8-.3 29.6.1 44.4-.3-1 1.5-2.9.8-4.3 1h-41L955 55c0-2.2-.4-4.5.4-6.6Z"/><path fill="#c00d0e" d="m181.5 48 .4 1c.9 7.8-.4 15.7-.2 23.5-7 .2-14-.2-20.9.2-1 8 .4 16.2-1 24.3 1.2 8.8.5 17.8.6 26.7h10.1l.3.5c3.1 1.5 6.8.7 10.2.9.3 5.2-1 10.6.7 15.6v.4c0 8.2.2 16.4 0 24.6-7.1.3-14.2-.4-21.3.5v74.6c3.2.7 6.5.6 9.7.6l.8 1 .3.4a65 65 0 0 1-11.5-.5c-.7-3.4-.4-6.9-.4-10.3v-64c.3-1.1-.3-3 1-3.4 5.9-1 11.8 0 17.7-.6 2-.2 2.4-2.4 2.3-4v-26c0-2.6.2-5.3-.6-7.8-6.7-1.6-13.7.4-20.4-1.3-.3-9.3 1-18.7-1.2-27.9 2-7.9 1-16 1.3-24-.1-1.4 1.5-1.7 2.6-1.7 6-.5 12 .8 17.9-.5 2.2-7.4-.1-15.3 1.6-22.8Z"/><path d="M182 49c3-.1 6-.2 9-.1.8 13.2.2 26.4.1 39.6-6.8.2-13.7 0-20.5.2-.2 7 0 14 0 21l-1.3-.1c.2 4.7 1.5 9.4 1.2 14.1h-10c-.2-9 .5-17.9-.7-26.7 1.4-8 0-16.2 1-24.3 7-.4 14 0 20.9-.2-.2-7.8 1-15.7.2-23.5ZM337.8 49l5.2-.1c.3 83.2 0 166.4.1 249.6h-37.3c.3-4.3 0-8.7.3-13.1v-1.8h31.6v-.5c.2-78 0-156 0-234ZM633.9 48.7l2.7.2v23.6c6.4.1 12.8-.4 19.1.2.3 1.4.4 2.8.5 4.3.1 68.8-.2 137.6.1 206.4 11 0 22-.2 33 0-.3 5-.3 10-.3 14.9-12-.2-24-.1-36-.1V89.1c-6.4-.2-12.7 0-19-.1-.1-13.4.2-26.9-.1-40.3ZM803.3 49c3 0 6 0 9-.2 2 25.5 4.4 50.9 6.2 76.3.1 2.9 2 5.2 2.9 7.8 0 2.4-1 4.7-1 7-.5 7.5 1.2 14.7 1.3 22 2.3 25.3 4.2 50.6 6.6 75.8-.7 6.5 1.1 12.8 1.1 19.3 0 9 1.5 17.8 2.2 26.8 11.6 1.1 23.3-.2 35 .7l-.6 7.7v.6l-.8 5.7c-13.8.2-27.6 0-41.4.1-1-5.6-.8-11.3-1.7-17l-.1-1.1c0-3.7.2-7.5-.9-11l-.1-1c0-3.8.2-7.6-.8-11.2l-.2-1.2c0-4.5-1-9-.4-13.5l-.6.2a97 97 0 0 0-.9-9.2l-.1-1.6a98 98 0 0 0-1-12c-.1-3.4-.4-7-.9-10.3l-.1-1.7a86.1 86.1 0 0 0-1-12.9c-.1-3.5-.5-7-1-10.3V183c-.2-5-.8-10-1-14.9-.3-4.7-1.6-9.5-.5-14.2.6-2.5 1.3-5.3-.3-7.6-1.8-2.8-1.7-6.2-2-9.4-1.8-25-4.1-50-6-75l-.6-4.3c0-2.9 0-5.8-.3-8.7ZM900.9 49.2l.1-.6c3 .4 6.1.5 9.2.5.4 50.3 0 100.6.2 150.9.2 4.2-.8 8.8 1.6 12.6 3.3 4.4-2.1 8.7-1.5 13.4v57.4h26.6v15.1c-11.9.3-23.8 0-35.7.2l-.5-.6c-1.4-4.2-.9-8.7-.9-13.1v-40c0-2.4.4-4.7.8-7 .7-2.3 1.8-4.6 1.6-7-.6-2.3-1.5-4.5-1.9-6.8.5-23.7.1-47.5.3-71.2V49.2ZM956 49h11.5c.5 31 .1 62 .2 93v137c0 1.5.3 3 .6 4.5 9-.4 17.8 0 26.8-.2 6.7-.2 13.5.6 20.1-.9-.3 5.4-.2 10.7-.2 16a21 21 0 0 1-10-1.3l-3.1.1h-.4l-.4.4-.7.4c-14.8.4-29.6 0-44.4.3V49ZM1046.7 51l.4-.1 2.3 1c-2.6 5.3-1.6 11.4-2.6 17.1-.6 15.3-.1 30.7-.3 46 .2 1.5-.6 3.7 1.1 4.5 9.6.5 19.4-.7 29 .6-.4 5.1-.3 10.3-.3 15.4h-45.9V94c.4-9.4-.2-19 3.1-28 2.3-6.5 7-11.9 13.2-15ZM103 53.2c6.3 3.5 9.6 10.4 11 17.2 2.7 13.3 2 27 2.1 40.6 0 15.1.5 30.3-2.4 45.2-1.4 7.6-5.3 15.3-12.7 18.5a24.5 24.5 0 0 0-12-15c4.7-3.1 9.3-7 11.2-12.4 2.4-4.7 3-10 4-15.3.5-16 .2-32 .3-48-.1-10.3.5-20.7-1.4-30.8ZM283.6 61c1.3 1.5 2.4 3 3.5 4.5v.3l1.9 8.5v.6c1.4 19.8.7 39.6.8 59.4-4 0-8 .2-11.9 0-2.1-.3-4-2.3-6.2-1.5l-.3.1c-4.5 1.9-9.4 1-14.1 1.3-1.7-1-3.3-1.8-4.8-3l-.1-12.6c2.9-.2 5.8 0 8.7-.4 2-.4 4-2.4 6-1.2 4.7 2.4 10 1 15.1 1.4h1.2c.8-19.1 0-38.3.2-57.4ZM501.4 72.4H522c-.2 5.3 0 10.6 0 15.9-7 .4-13.9-.6-20.7.6a47 47 0 0 1 0-16.5ZM782.4 72.4h13.4l-.3 1.6c-.3 4.7 0 9.5 0 14.2h-13.3c.3-5.2 0-10.5.2-15.8Z"/><path d="M1097.2 73c3-2.2 8.3-2.2 10 1.7 1.8 11.7.9 23.5 1.1 35.3-.3 6.3-.3 12.9-2.7 18.9-2.4 7-6.2 13.5-9.8 20l.1 3.4c-1.2.9-2.5 1.7-2.6 3.3l-.3-1.5c-10.8 21.3-22.2 42.4-33.3 63.6-2.1 4.7-5.3 8.9-6.6 14 0-.6-.2-1-.3-1.5-1.5 4.8-5.1 8.8-6.2 13.8-.2 13-.1 26.2 0 39.4 30 .3 60.1 0 90.2 0v1.6c.2 4.5.1 9 0 13.6h-106.4c0-13.4-.1-27 .1-40.4v-.4l.5-1.1c5.3-9.5 10.1-19.3 15-29l.4-1 .1-.4.9-1.7.1-.3.9-1.5.1-.3.2-.2.7-1.5.1-.2.2-.3.7-1.6.2-.3.4-.8c5-8.8 9.6-17.9 14-27l.4-1 .2-.3.8-1.7.1-.3 1-1.5v-.2l.2-.3.7-1.6.1-.4.7-1.7 1.6 1c0-.6-.3-1.7-.5-2.2l9.2-17.7c2.6-5.2 5.7-10.3 7.5-16l.2-.6.8-2 .3-1c.7-1 1-2 .9-3v-.8a66.9 66.9 0 0 0 .6-17.8V120c1.5-.4 3-.6 4.6-.8V85c0-4 .1-8.5 2.8-11.8m-3 77c-1.4 3 2.9.7 0 0ZM55.4 73.3c2.5.3 5.3-.3 7.6.7 3.9 3.3 2.3 8.6 2.8 13 .8 6.6.4 13.3.5 20 0 8 .4 16.1-.8 24.1 0 2-1.4 3.5-2.4 5.1a29 29 0 0 1-7.4 1.3c-1.8-5.3-.3-11-1-16.5.9-2 .2-4 0-6 .5-9.7-.7-19.4.5-29-.4-4.2-1-8.5.2-12.7ZM181.7 141h9.3v40h-20.8c-.2 20.2-.1 40.3 0 60.4-3.3 0-6.6 0-9.8-.6v-74.6c7-.9 14.2-.2 21.3-.5.2-8.2 0-16.4 0-24.6ZM570.5 165.5l.9-.1c-.4 6 .7 11.8 1.7 17.6.8 4 .7 8.1 2.3 11.9 0 5.1.9 10.2 1.8 15.2 1.3 12.3 3.5 24.6 5 36.9 2 12 3 24.3 5.5 36.4h35.6c-.4 4.9-.3 9.8-.3 14.7h-36.8l-1-2.8-.1-1.5c.3-2 0-3.9-.7-5.7l-.3-1.3c.2-2 0-4-.7-5.8l-.2-1.2c.1-2 0-4-.8-5.8l-.4-.9c-2.7-22.2-5.8-44.4-9-66.6-.5-5.6-1.4-11.2-2.3-16.8-.5-7.8.2-15.5-.2-23.3v-1ZM501.5 165.6c6.9-.3 13.7.3 20.6-.3-.3 5.2-.1 10.5-.1 15.7h-20.2c-.7-5-.3-10.2-.3-15.4ZM782.4 166c4.4-.4 9-.8 13.3.4v14.8h-13.4c.2-5.1.1-10.1 0-15.2ZM281.4 167l1.5 1.5v.1a52 52 0 0 1 5 12v.7c-.3 1.6 0 3.2.8 4.6l.3 1c1.3 14.6.7 29.3.9 44-.2 13.3.4 26.6-.8 39.8l-.7-.2c.2 2.3 0 4.6-.2 6.9l-.1.3c-1.5 4.6-5 8.1-6 12.8l-.2.3c-1.6.1-2.5 1.6-3.2 3l-2 1.6-.3.1-.2.1-1.4.5c-1.7.2-3.7.1-4.8 1.7h-1.3c-2-.2-3.9 0-5.6.8l-2 .5c-10 .2-20.1.3-30.1 0l-.7-.1-9.5-1.9-1-.5-.2-.1-.3-.1-.8-.4c-5.6-3.9-8.6-10-11.6-16 2.1.2 4.1.8 6 1.7 4.7 2.2 10 2 15 2 9 0 18.1.2 27.1-.1 6.4-.6 13.4-1.8 18.1-6.6 2.2-2 2.7-5 4.4-7.4 4.3-5.6 4.8-12.9 5-19.6.4-19.7.1-39.3.2-59-.1-8 .3-16.1-1.3-24ZM103 177.7l4.2 3 .8 1.4c.2 1.2.7 2 1.7 2.4l.3.1a64.6 64.6 0 0 1 5.9 30c-.8 4.2-1 8.6 0 12.8.4 23.7.1 47.4.2 71.1-12.3.2-24.6 0-36.9 0-.3-4.2.2-8.6.3-12.9l-.7-1 .3-.4c8.5-.2 17 .5 25.5-.4-.1-31 .2-61.9-.2-92.8 0-4.5-.8-9-1.4-13.3ZM55.2 202c-.8-6.3-.2-12.7.2-19 2.3.5 4.8 1.2 6 3.4 3.8 6.2 4 13.7 4.9 20.6.8 4.6-.3 9.3 0 14 .2 20.8-.4 41.7.2 62.5h1.7v15c-12.3.2-24.7 0-37 .1-1-4.5.2-9.1 0-13.5l-.5-1 1.2-.3c7.5-.7 15-.1 22.6-.3.8-4.8 1-9.7.4-14.6a228 228 0 0 1 .1-23c0-7.9-.8-16 .1-23.9.5-4-.6-8-.4-12 0-2.7.6-5.3.5-8Z"/><path d="M233.6 195.3h8.3c0 15.2-.2 30.5 0 45.7-1.6.7-3.5 1.2-5.1.3-2.9-2.6-2.6-6.8-3-10.3-.3-11.9 0-23.8-.2-35.7ZM444.3 241l.6.7c-.2 3.8 0 7.6.5 11.3l1.7-7.4V261l-.3 2.4c-.7 3-.9 6-.8 9l-.3.6a6 6 0 0 0-.9 3.8v1.2l-.8 2v.6c-2.1 5.1-5 10-9.3 13.4h-.5c-1.3.1-2.6.6-3.5 1.6l-.8.3-2 1h-1.2a9 9 0 0 0-4.7.7l-1 .4c-19.8.6-39.5.7-59.2.6 0-4.7.1-9.5-.2-14.2v-.9H399c5.3 0 10.6-1.1 16-1 8.4.4 18-2.3 22.8-9.8 6-9.3 7.1-21 6.5-31.7ZM181.8 258.5l1-.7c2.7-1 5.5-.7 8.3-.7v41.4c-19.2.2-38.3 0-57.5.2 0-4.8 0-9.6-.2-14.3 5.1-1.2 10.4-.6 15.6-.7 11 0 21.8.1 32.7-.1.2-8.4.5-16.8.1-25.1ZM464.5 283.5h57.6c.4 5 .1 10 .2 15-19.2.2-38.5.1-57.7 0 0-4.7 0-9.4-.2-14.1l.1-.9ZM537.8 283.8c10.6-.2 21.3-.4 31.9.1-1 4.8-.4 9.7-.5 14.6-10.2 0-20.5.3-30.7-.1-1.3-4.8-.6-9.8-.7-14.6Z"/><g fill="#200"><path d="M521.7 47.9c.2 2.3.3 4.6.2 7-2.1-2-1.9-4.8-.2-7ZM538.3 201l.3.8c2.8 4 2.2 9 .6 13.2l-1.3-1.3c0-4.2-.3-8.5.4-12.7Z"/></g><path fill="#7a686a" opacity=".9" d="M591 55c.3-2.3-1-5.4 1.4-6.7v1c-.7 6.1-.2 12.2-.4 18.3l1.4.1v6.6l-1.4.1V124c0 5.1.2 10.3-.4 15.3l-.5-2.2c-.2-20 0-40.1 0-60.2-.2-2.7 3-5 1.3-7.7-2.6-4.3-1-9.5-1.4-14.3Z"/><path fill="#7f7f7f" opacity=".7" d="M633 48.8h.9c.3 13.3 0 26.8.1 40.2l-1 .1V48.8Z"/><g fill="#010000"><path d="M738.9 48.9h5.3c.3 12-.5 24 .4 35.8a9 9 0 0 1 .6 10.6c-2.2 3.5-1.4 7.7-1.5 11.7v163c0 4.5-.4 9.1.7 13.6 10.5-.3 21 0 31.6-.2 1.6-.7 3-2 5-1.9 1 .5 1.9 1.3 2.9 2 4 0 8-.4 11.8.6v14.5H779c-2.3.3-4-1.5-6-2-2 .8-3.8 2.2-6 2h-28.8c-.5-15.9 0-31.8-.2-47.7V117c0-1.3.3-2.7.8-4 .9-2.2 2-4.5 2-7s-2-4.3-2.7-6.5c-.3-13.8 0-27.7-.1-41.6-.2-3 .4-6 .9-9ZM694.1 73.8l1-1c4-.8 8.2-.1 12.4-.6l.7 1.5c-.2 5 .4 10-.6 14.9-4 1.2-8 .5-12.1.6h-1c-.4-5.1-.2-10.3-.4-15.4Z"/></g><path fill="#020000" d="m854.9 49 8.3-.2v2c-1.2 6.7-.4 13.5-1.1 20.2-.9 8-.2 16-1.5 24-.3 11.4-1.2 22.7-1.3 34-1.8 13-.7 26-.8 39 0-4.1.3-8.3-.8-12.3 0 7.1-1.3 14.2-1.3 21.3.1 5-.6 10-1.2 15-1.3-8.6-.3-17.3-1.3-26-.6-7.3-.1-14.7-1.3-22 0-11.4-1.3-22.9-1.2-34.3l.8-10.2c1-16.8 1.7-33.7 2.7-50.6Z"/><g fill="#1a0000"><path d="M592.4 49.3c.3.5 1.1 1.3 1.5 1.7l1.6 2c-.3 2.1-1.1 4.1-1.8 6.2-.5 2.8-.2 5.7-.3 8.5H592c.2-6.2-.3-12.3.4-18.4ZM444.5 70.8l.4-1v1.4c-.3 1.4.1 2.7.7 4l.4 1.4c-.2 3.3 0 6.6.8 9.9l.3 2.6c.2 52.1.2 104.3 0 156.5l-1.7 7.4c-.6-3.7-.7-7.5-.5-11.3.7-10.5.3-21.1.4-31.7V96c-.1-6 .3-11.9-.8-17.7v-7.5Z"/></g><path fill="#731110" d="m281.2 53.1 1 2.5c2 3.2 4 6.3 4.9 10-1-1.6-2.3-3.1-3.5-4.6-.3 19.1.6 38.3-.2 57.4h-1.1c.1-21.8.8-43.6-1.1-65.3Z"/><path fill="#be6565" opacity=".8" d="M441.8 53.3c1.4.2 1.8 1 1.1 2.5-1.1-.4-1.5-1.3-1-2.5Z"/><path fill="#656564" opacity=".6" d="m899.2 54.1.5-.1c.8 2.2.3 4.7.4 7v156c0 2.4 0 4.8.4 7.2.4 2.3 1.3 4.5 1.9 6.8.2 2.4-1 4.7-1.6 7-.3 0-.8.4-1 .6.6-2.8 2-5.3 2.3-8.2l-2-2.7c-.4-2.2-1.1-4.3-1.1-6.6V54.8l.2-.7Z"/><path fill="#b91414" d="m538.2 61.4.2-1c1.4 5.4.5 11.1 1.4 16.6 1 5.7-.7 11.3-1.5 16.8l-.1-1a68 68 0 0 1-.1-8.9c1.5-2 2-5 0-6.7l-.2-14.3.3-1.5Z"/><path fill="#da100f" d="m1155 64.8.8-1.2.2 2.4v51c0 5 .2 9.9-.4 14.8-1.2-6.6-.4-13.2-.5-19.8-.2-15.7 0-31.4-.1-47.2Z"/><path fill="#d20c0d" d="M300 81c0-4.1-.3-8.3.5-12.5.5 22.2 0 44.4.2 66.5v144l.5 2.8c2.9.7 5.9-.2 8.8 0 9.2-.2 18.4-.1 27.7-.1v1.9c-10.5-.1-21 0-31.5 0l-6.2-.2V81Z"/><path fill="#895d5d" opacity=".7" d="M444.8 71.2c1.8-.2 1.8 3 .8 4-.6-1.3-1-2.6-.8-4Z"/><path fill="#474444" opacity=".5" d="m522 71.8.3-1.5c1.6 6 .3 12.5.7 18.7h-20.4c-.6 11.8-.2 23.5-.1 35.3h-1c-.1-11.8.3-23.6-.2-35.4 6.8-1.2 13.8-.2 20.7-.6 0-5.3-.2-10.6 0-16v-.5Z"/><path fill="#010001" d="M234.6 75.3c.7-2 2.8-2.9 4.4-4.2 1.7 1.1 3.7 2.2 4.5 4.2 1.6 4.5.9 9.3 1 14-3.2 4.5-2.5 10.4-2.7 15.6l-2.2 2.9c3.6 4.4 2 10.3 2.2 15.5-3.1-2.5-6.5-5.2-7.5-9.2-2.2-7.6 1.4-16.1-3-23.1l2.2-2.5c0-4.4-.3-9 1.1-13.2Z"/><path fill="#c91617" d="M395.4 73.4c2.3-3.2 7-1.6 9.4.8 2.4 2.2 2 5.8 2.3 8.8-.6 42.7 0 85.3-.3 128-.3 4.2 1.7 8.4.6 12.6-1 4.7-.3 9.6-.8 14.3l-1.2-.9c.5-4.1.5-8.3.4-12.5l.3-1.3c1.6-1.3 1.8-4-.3-5 .3-35 0-70.2.1-105.2 0-7.7.2-15.3-.2-23v-.3c-.3-4.6 1-9.8-1.6-14-1.8-3-5.7-2-8.7-2.3Z"/><path fill="#da545c" opacity=".9" d="m707.5 72.2 2.5-.2 3.2.2-.8 1.7-4.2-.2-.7-1.5Z"/><path fill="#604f4e" opacity=".6" d="M795.5 74c2.6-.2 5.7.7 7.8-1.4-.5 3.6-4.9 1.3-7.3 1.9V89h-13a1241 1241 0 0 0 0 35l-1.2.1c.2-12-.4-24 .4-35.8l13.2-.1c0-4.7-.2-9.5.1-14.2Z"/><path fill="#010101" d="M395.4 73.4c3 .4 7-.8 8.7 2.3 2.6 4.2 1.3 9.4 1.6 14l-6.6.1v150.9l.1 1.6h-3.7c-.2-56.3 0-112.6 0-168.9Z"/><path fill="#3f0101" d="m592 74.4 1.4-.1c.3 19.9 0 39.8.1 59.7 0 6.2.4 12.4-.3 18.6-1.8-2.8-1.7-6.1-2.2-9.2l.6-4c.6-5.1.4-10.3.4-15.4V74.4Z"/><path fill="#6e5e5d" opacity=".8" d="M446 76.6c1.5 3 1 6.6.8 9.9-.8-3.3-1-6.6-.8-10Z"/><path fill="#650101" d="M538 77.2c2.2 1.8 1.6 4.8 0 6.7a35 35 0 0 1 0-6.7Z"/><path fill="#b21919" d="M444.5 78.3c1 5.8.7 11.8.8 17.7v114c-.1 10.6.3 21.2-.4 31.7l-.6-.7c-1.2-5-.4-10-.6-15V84c0-2 .5-3.8.8-5.7Z"/><path fill="#f35a5f" d="M122.1 86.2c1.5.5 1.5 1 0 1.7v-1.7Z"/><g fill="#fff"><path d="M447 89c1 11.7.6 23.4.7 35v110c0 9 .2 18-.6 27v-15.4c.2-52.2.2-104.4 0-156.5ZM814 184.8c.5 3.4.9 6.8 1 10.3-.9-3.4-1-6.9-1-10.3ZM572.7 205.5l.3 1c3.2 22.2 6.3 44.4 9 66.6-2-10.6-3-21.4-4.6-32.1-1.5-11.9-3.5-23.6-4.7-35.5ZM816.1 209.7c.5 3.4.8 6.9.9 10.3-.6-3.4-1.1-6.9-.9-10.3ZM817.1 221.6c.5 3.4.8 6.9.9 10.4-.6-3.5-1.1-7-.9-10.4ZM822 281.7c1 5.6.9 11.3 1.8 17 13.8-.2 27.6 0 41.4-.2l.8-5.7-.3 6c-14.1.3-28.3.2-42.5 0-.1-5.7-1.3-11.4-1.1-17.1ZM522 282l.6 1.2c.5 5.2 0 10.4.2 15.6-19.6.3-39.1.2-58.7 0 0-4.4-.2-8.9 0-13.3l.3-1.1c.2 4.7.2 9.4.2 14.2h57.7c0-5 .2-10.1-.1-15.1l-.2-1.5ZM361.5 285.4v-1c.4 4.7.3 9.5.3 14.2 19.7.1 39.4 0 59.1-.6-3 .5-6 .7-9 .7-16.8.3-33.7.5-50.5 0 0-4.4-.3-8.8 0-13.3ZM231 299c10 .4 20 .3 30 0-5.2 1-10.6.7-16 .8-4.7 0-9.4.2-14-.7Z"/></g><path fill="#6a6a69" opacity=".9" d="M634 89h19c.1 69.8 0 139.5 0 209.2h36c0-4.9 0-9.8.3-14.8l.4.4c1 1.7 3.7 1.6 4.6-.2-.2 2.4-2.7 1.6-4.3 2V299h-38V89.5c-6 .2-12 0-18 .1V89Z"/><path fill="#7a5b5e" opacity=".5" d="M121 89.6h1c.2 49.9.2 99.8 0 149.7-1.4-1-1-2.8-1-4.3V89.6Z"/><path fill="#d87172" opacity=".8" d="M170.8 124.2c3.7-.4 7.4-.3 11.1 0 0 5.5.3 11-.2 16.5-1.6-5-.4-10.4-.7-15.6-3.4-.2-7 .6-10.2-1Z"/><path fill="#e66d6d" opacity=".9" d="M781.8 124.1h1.2c7-.2 14 0 21-.1-2.2 2-5.3 1-8 1.2-4.3-.2-8.6.4-13-.2l-1.2-.9Z"/><path fill="#ca3435" d="M243.6 124.7c3 2 6 4.3 9 6.6 1.4 1 3 2 4.7 2.8l.7.9.4 1.2c-4.1-1.7-7.4-4.8-11.1-7.4a13 13 0 0 1-3.7-4.2Z"/><path fill="#ae6c6d" opacity=".7" d="M802.8 129a6 6 0 0 1 1.2-4.2V161c0 1.6-.1 3.1-.4 4.6l-.4-.8c-.5-1.5-.4-3.1-.4-4.7v-31Z"/><path fill="#666665" opacity=".9" d="M257.3 134.2c4.7-.4 9.6.6 14.1-1.3l-1.8 2c-3.9.2-7.8.2-11.6 0l-.7-.8Z"/><path fill="#6c6b6b" opacity=".8" d="M181.7 140.7c2.9-1.5 6.4-.3 9.6-.7.8 2.5.5 5.3.5 8v32c.1 1.5-1.4 2.3-2.8 2h-18c-.1 20 .2 40.2-.1 60.3l-.8-1c0-20-.1-40.1.1-60.2 7-.2 13.9 0 20.8-.1v-40h-9.3v-.3Z"/><path fill="#686768" opacity=".8" d="M1088.3 143c-1-1.5-.8-2.5.9-3 0 1.1-.2 2.1-.9 3Z"/><path fill="#a50e0f" d="M87 158.7a24.9 24.9 0 0 0 13.3-15l-.1 3.6c-2 5.5-6.5 9.3-11.1 12.4a24.5 24.5 0 0 1 11.9 15l.1.4.2.7.6 1c.6 4.1 1.1 8.3 1.2 12.5-1.7-6.8-2-14.1-6.1-20-2.2-4.6-7.3-6.5-10-10.6Z"/><path fill="#727272" opacity=".8" d="m1087.2 144.2.8-.1-.8 2-.5-.8.5-1Z"/><path fill="#050101" d="M207.3 152.9c6 2.8 9.9 9 16.1 11.5 1.3.6 2.8 1 3.7 2.3 3.5 5.2 9.5 7.8 14 12.1 1 3.4 4 7.4 1.4 10.8-2.9-2.3-6.1-4.4-7.8-7.9a92 92 0 0 1-1.3-2.3l-3.4.1-3-2.5c-5.7-4.7-11.6-9.4-15.6-15.7-1.7-2.6-2.7-5.6-4-8.4Z"/><path fill="#c81010" d="M781.2 169c.3-1.7-.5-4.7 1.9-4.9 4.4-.4 9-.5 13.3 1v1.4h-.7c-4.4-1.3-8.9-.9-13.3-.5 0 5 .1 10.1-.1 15.1-.3 5.3-.2 10.5-.1 15.7l-.8 1.1c-.2-9.6-.1-19.3-.2-29Z"/><path fill="#a12c2c" d="m500.3 166.4 1.2-.8c0 5.2-.4 10.3.3 15.4l.1 1c.6 19.7.1 39.3.3 59h20c.8 6-.2 12 .7 18 0 8 .6 16.2-.3 24.2l-.6-1.2c-1-13 0-26-.7-39-6.8-1.7-14 .3-21-1.3-.3-12.2-.8-24.5-.1-36.7 0-12.9-.2-25.8 0-38.6Z"/><path fill="#7a7979" opacity=".7" d="m522.1 165.3.5 1c1 5 .1 10 .4 15-6.9 1.4-14 .2-21 .8l-.2-1 20.2-.1c0-5.2-.2-10.5.1-15.7Z"/><path fill="#c71111" d="M569.3 176c0-3.2-.5-6.7 1.2-9.6.4 7.8-.3 15.5.2 23.3-1 10.7-.7 21.5-.7 32.3v61.2l-.4.7c-10.5-.5-21.2-.3-31.8-.1.4-17.3 0-34.5.2-51.8l.1-1.6 1 1.2c.6 16.7 0 33.5.2 50.2 10 .1 19.8 0 29.7 0 .7-5.9.3-11.9.3-17.8v-88Z"/><path fill="#e06566" opacity=".9" d="m227 177 3 2.5c-11.1 1.2-22.3 0-33.4.7l-1.1 1.3-.6.6.2-3c11-.3 22.1 0 33.2 0L227 177Z"/><path fill="#ce1414" d="m230 179.5 3.4-.1 1.3 2.3-1.1-.6v14.2c.3 11.9-.1 23.8.2 35.7.4 3.5.1 7.7 3 10.3 1.6.9 3.5.4 5.2-.3.9-1.5 1.8-3 2.4-4.6.5-1.4.9-2.8 1-4.3 0-12.7-.3-25.4 0-38.1 1 11 .3 22 .5 33-.1 4.6.5 9.7-2 13.8-2.2 3.5-8.5 3.2-9.9-.8-1.6-4.1-2-8.6-2-13 .2-12 0-24 .2-36 0-3.3.3-6.6-.5-9.7-5.8-1.2-11.8-.5-17.7-.7-6.2.3-12.5-.7-18.5.9l1-1.3c11.2-.7 22.4.5 33.5-.7Z"/><path fill="#771718" d="m241 178.8 2.2 1.2c1.1 3.6 1.5 7.3 1.2 11l-1.9-1.4c2.6-3.4-.4-7.4-1.5-10.8Z"/><path fill="#5c5c5c" opacity=".8" d="M288 181.3c1.8.1 1.6 3.5.7 4.6-.8-1.4-1-3-.8-4.6Z"/><path fill="gray" opacity=".7" d="m1068.4 183.7.1-.4-.1.4Z"/><path fill="gray" opacity=".8" d="m1067.4 185.8.3-.5-.1.3-.2.2Z"/><path fill="#7e7e7e" opacity=".8" d="m1066.3 187.7.2-.4-.2.3Z"/><path fill="#7c7c7c" opacity=".9" d="M1065.4 189.6Z"/><path fill="#de1a17" d="m780.6 203.2 1.4 1.1.1.7c-.5 12 .1 24-.3 36v1.2c-1.4-13 .6-26-1.2-39Z"/><path fill="#705554" opacity=".4" d="m782.1 205 .8-.9c.2 12.3 0 24.6 0 36.9h-1.1c.5-12-.1-24 .3-36Z"/><path fill="#d73234" d="m538 213.7 1.2 1.3-.1 16.6-1-1.2c-.3-5.5 0-11.1-.2-16.7Z"/><path fill="#121212" d="M115.9 214.6c.2 4.2.3 8.5 0 12.8-1-4.2-.8-8.6 0-12.8Z"/><path fill="#f67b7e" d="M405.8 218.2c2.1 1 1.9 3.7.3 5-.2-1.6-.3-3.3-.3-5Z"/><path fill="#797979" opacity=".7" d="M1050.4 218.7Z"/><path fill="#7f7f7f" opacity=".7" d="m1049.4 220.8.3-.5-.2.3-.1.2Z"/><path fill="#828282" opacity=".8" d="m1048.4 222.8.3-.5-.2.2-.1.3Z"/><path fill="#7f7f7f" opacity=".8" d="m1047.4 224.7.1-.4-.1.3ZM1046.4 226.6Z"/><path fill="#f45858" d="M122 239.3c1.8-.1 1.3 2 .4 2.7l-.3-2.7Z"/><path fill="#df7072" opacity=".9" d="m462.1 237.8 1.1 1c-.2 12.7 0 25.5 0 38.2-.2 2.9.2 5.7 1 8.5-2.7 0-2-2.7-2.2-4.5 0-14.4-.2-28.8.1-43.2Z"/><path fill="#cf6e6e" opacity=".8" d="M174.4 241c2.4 0 5-.3 7.3.4.7 5.6.3 11.4.1 17-2-5.2-.4-11-1-16.4-2 0-4 .2-6 .4l-3.6.4-.3-.5c1.2-.2 2.4-.6 3.5-1.2Z"/><path fill="#c07473" opacity=".8" d="M781.8 241h1.1c6.4.2 12.8-.3 19.1.2l1.3.8c-7.2.2-14.4-.3-21.6.2l.1-1.2Z"/><g><path fill="#b40a0c" d="M174.8 242.4c2-.3 4-.3 6-.5.6 5.5-1 11.3 1 16.6.3 8.3 0 16.7-.1 25.1-10.9.2-21.8 0-32.7.1-5.2.1-10.5-.5-15.6.7h-.1a225 225 0 0 1-1.5-1.6 40 40 0 0 1 7.2-.6h29c4.2 0 8.4.6 12.5-.8-.2-11.1 0-22.3 0-33.4-.2-1.6.1-3.3-.7-4.7-1.5-.8-3.4-.8-5-1Z"/></g><g><path fill="#d60e0e" d="M781.7 242.2c7.2-.5 14.4 0 21.6-.2v.8c-.8 13.6.2 27.2-.6 40.8l-1.5-.1c1.2-13.4.4-26.9.5-40.3-6.6-1-13.5.6-20-1Z"/></g><g><path fill="#cb7778" opacity=".8" d="m1028.3 242 .4.7-.3-.3v-.3Z"/></g><g><path fill="#a06f6f" opacity=".6" d="m1155.7 241.8 1.2-.5c.2 14 0 28 .1 42.1h-1c-.4-13.8 0-27.7-.3-41.6Z"/></g><g><path fill="#ae6c6e" opacity=".7" d="m803.2 242.8.6-1c.2 14 .4 28 0 41.8h-1c.7-13.6-.3-27.2.4-40.8Z"/></g><g><path fill="#626262" opacity=".7" d="M820.2 257.3c1 3.6.9 7.4.8 11.1a25.8 25.8 0 0 1-.8-11Z"/></g><g><path fill="#62615f" opacity=".8" d="M446 272.4c0-3 0-6 .8-9 .2 3 .7 6.3-.8 9Z"/></g><g><path fill="#646464" opacity=".7" d="M821.1 269.4c1.1 3.6 1 7.4.9 11-1.4-3.4-1.1-7.3-.9-11Z"/></g><g><path fill="#626262" opacity=".8" d="M444.8 276.8a6 6 0 0 1 .9-3.8c1 1 1 4-.9 3.8Z"/></g><g><path fill="#5e5e5d" opacity=".7" d="M582.4 274c.8 1.8 1 3.8.8 5.8-2-.7-1.8-4.2-.8-5.8Z"/></g><g><path fill="#737373" opacity=".8" d="m444 280 .8-2v1.8l-.8.2Z"/></g><g><path fill="#5f5f60" opacity=".7" d="M583.4 281c.7 1.9 1 3.8.8 5.8-2-.6-1.8-4.3-.8-5.8Z"/></g><g><path fill="#f0606a" d="M122 283.2c3.3.2 6.6.1 9.8-.4l1.5 1.6c-3.7.6-7.5.5-11.3.4v-1.6Z"/></g><g><path fill="#d7656e" opacity=".9" d="m623.6 283.9 2.7-.7.1.9-1.7 1c-.2-.4-.8-1-1-1.2Z"/></g><g><path fill="#f0616c" d="M690.2 283.4c1.2-.4 2.4-.6 3.7-.5l.4.7c-.9 1.8-3.5 2-4.6.2l.5-.4Z"/></g><g><path fill="#5d5b5b" opacity=".9" d="m623.3 283.4.4.5 1 1.1c-1.5 4.5-.4 9.4-.7 14h-39l.1-3.7 1.1 2.7H623c0-4.8-.1-9.7.3-14.6Z"/></g><g><path fill="#5e5e5d" opacity=".8" d="M584.4 288.1c.7 1.8 1 3.7.7 5.7-2-.6-1.6-4.2-.7-5.7Z"/></g><g><path fill="#414141" opacity=".7" d="M278.7 293.7c.7-1.3 1.6-2.8 3.2-2.9.4 1.5-1.7 3.6-3.2 3Z"/></g><g><path fill="#7c7c7c" opacity=".7" d="m276.4 295.5.3-.1-.5.2.3-.1Z"/></g><g><path fill="#7c7c7c" opacity=".7" d="M219.3 296.4h.3l.2.2-.5-.2Z"/></g><g><path fill="#717171" opacity=".8" d="m428 296.8 1.9-.9-.1 1-1 .4-.9-.5Z"/></g><g><path fill="#5c5c5c" opacity=".7" d="M422 297.6a9 9 0 0 1 4.7-.8c-.2 2-3.5 1.9-4.7.8Z"/></g><g><path fill="#7f7f7f" opacity=".8" d="M1001.5 297.3h.4l-.8.3.4-.4Z"/></g><g><path fill="#5d5d5d" opacity=".7" d="M263 298.6c1.8-.8 3.8-1 5.7-.8-.6 2-4.1 1.7-5.6.8Z"/></g></svg>