<svg width="1524" height="271pt" viewBox="0 0 1143 271" xmlns="http://www.w3.org/2000/svg"><g fill="#fe0000"><path d="M187.6 12.3c4.8-8 14.5-10.1 23.2-10.5 10.5-.2 21-.3 31.5 0 5.5.6 11.4 1.5 15.7 5.3 6 5.3 8.3 13.2 10.5 20.6-.3 5.4.4 10.9.4 16.3.3 15 .2 30.1 0 45.2-5 .2-10.4.8-15.3-.9-2.7-1.2-5.1.9-7.7 1.1-2.5.3-5 .2-7.5.4v1.9c-2.6-.2-5.3-.2-7.9-.2-2-9.9 0-20-.4-29.9.5-5.7 2-12.8-2.2-17.5-1.8-2.6-5.4-1.2-6.7 1.2-3.1 5.2.2 12-3.6 17 4.1 7.5.2 16.3 3.1 24 1.4 3.4 4.3 5.7 7.1 7.8 3.6 2.6 7.1 5.2 10.5 8l5.5 4.1c6.8 5.3 13.9 10.7 18.6 18 0 .2.2.4.3.5 2.9 4.2 3.8 9.4 5.7 14-.4 7.5.7 14.9.6 22.3v49c-.5 10.7.6 22.6-6.1 31.7-2.4 7.2-9.6 11.5-16.8 12.3a193.5 193.5 0 0 1-39.9.5c-4.3-.4-8.3-2-12.3-3.6l1.2 4.8c-1.4-3.3-4.1-5.6-6.3-8.4a39.4 39.4 0 0 1-7-22.2c.6-1.4.9-3.5-.8-4.2.2-14.3 0-28.6 0-43 0-2 .6-4 1.1-6a6 6 0 0 0 0-4.3 27 27 0 0 1-1.3-9.8l.4-7.6c11-.4 22 .4 33-.5 1.7.2 3.4.5 5 .9l.7 1c-.4 5-.3 9.8-.3 14.7V201c.2 3.7 0 7.8 2.5 10.9 1.7 2 4.7 1.6 6.2-.4 2-3.1 1.2-7 1.4-10.5.1-13.2-.3-26.5.2-39.7.9-4.7-.6-9.8-4.4-12.8-4.6-3.8-9.8-6.8-13.5-11.5-7.5-3.4-13-9.6-19.5-14.5a42 42 0 0 1-3.7-3.3c-4.9-6.6-6.6-15-7-23.1.7-1.8.6-3.8-.6-5.3-.2-18.5-.1-37.1 0-55.7 1.2-.7 1.4-1.8.7-3.2.3-6.7 1.7-13.5 5.4-19.2l.3-.4ZM448.3 3.1c11.5-.4 23-.2 34.6-.3 2.2-.1 4.1.9 6 1.7 6-2.7 12.8-1.2 19.1-1.6-.1 5-.2 10.2.2 15.2 1.3 8-.1 16 .5 23.9-.7 1-1.6 1.4-2.7 1.3-6.3.3-12.5 0-18.8 0-.8 7.6.2 15.2.1 22.7v28.7l1.4.3c6.4.3 12.9 0 19.3 0v.8c-.3 6 .1 12.1.4 18.2v22.2c-7 .4-14.1.2-21.1.2-1 25.4-.3 50.8-.4 76.2l1.4-.3h.7c6.4-.2 12.8 0 19.2-.1v.8c.2 13.8.6 27.5.2 41.3-19.3.3-38.5-.2-57.7.2l-.8 1.3-1.6.2c-.4-14 0-28-.2-42-.3-2.8 1-5.3 1.3-8-.5-3-1.5-6-1.3-9 .1-64.6-.2-129.2.1-193.9m58.4 18c-.9 1-.7 3.1.7 3.6 2-.2 1.2-5-.7-3.6ZM579.2 4.2c1.4-2 4.5-1.6 6.7-1.3 8.7.8 17.6-.1 26.3.5.2 83.6.2 167.3 0 251l-.6 1.6-.8-.4c-3.5-2.1-7.9-1-11.8-1.2-8.6-.2-17.3.4-25.9-.3-5-34.4-9.6-69-14.5-103.4-.6-4.6-.7-9.3-2-13.8-.3 7-.2 14.1-.2 21.1 0 4.2 1.4 8.3.8 12.4-.4 1.2-.6 2.4-.8 3.6-.1 26.8.3 53.6-.2 80.3v.6c-10.7-1.2-21.6 0-32.3-.7 0-19.4-.2-38.8.1-58.2.1-3.2-.3-6.5.3-9.7 2.8-4.2 2.8-9.4 0-13.7-.6-1.4-.4-3-.5-4.6.2-31.6 0-63.3.1-95 .6-6-.8-12.2.6-18.2a8 8 0 0 0 0-6.6c-1.5-7.6-.1-15.5-.6-23.2-.3-4 .3-8 .4-12-.1-3.3-.4-6.7-.2-10 12.5 0 25.1-.3 37.7.1 1 8.4 2.8 16.8 3.1 25.2-.2 2 .4 3.9.8 5.8l.1 1c0 2 .4 4 1 5.9l.1 2.2c-.1 1.6.3 3.2.8 4.8l.2 2.2c-.2 1 0 2 .7 2.9 2.6 17.2 5 34.5 7.3 51.8a12 12 0 0 0 1 3.4c.9 6.6.2 13.5 2.4 19.8.3-21.7 0-43.4.1-65.1-.1-6.7.4-13.4-.3-20l-.3-3.1v-.6c.4-4.2.5-8.5 1.9-12.6 1-2.4-1-4.7-1.6-7-.3-5-.2-10.3.1-15.5ZM1045 8c6-4.5 13.5-5.7 20.8-6.3h45.5a40 40 0 0 1 15 3.6l.5.3c8.2 4.3 12.7 13.5 14.4 22.3-.8 1.4-.5 2.5.8 3.2-.1 3.9.2 7.7.5 11.6-.2 18.8-.2 37.7 0 56.6a74.5 74.5 0 0 1-3.3 16 89.3 89.3 0 0 1-5.5 12l-.2.5a530 530 0 0 1-11.8 22.5l-.3.5c-6.4 12.6-13 25-19.7 37.5l-.3.5c-2.8 5.5-5.6 11.1-8.7 16.5l-.3.5-3 6.3c17.7.5 35.3-.3 53 .4.1 14-.1 28 0 41.9-.6 1.4-2 2-3.4 1.8h-15.9l-.6-1.7c-30-.3-59.8.1-89.7-.2-.4-12.1 0-24.2-.2-36.3-.5-5.6 3.2-10.2 5.5-15 15-28 29.6-56.3 44.5-84.4 3.9-7.6 8.5-15 10.4-23.5 1.7-8.3 1.1-16.7 1.2-25.1 0-7.3.3-14.6-.7-21.8-.3-2.2-1.2-4.9-3.6-5.4-2.3-.4-5-.3-6.8 1.3-2.4 3-2.6 7.1-2.7 10.9-.2 11.6 0 23.3-.1 35A27 27 0 0 1 1065 92c-2.4-.5-4.6-1.8-7-1.7-8.5 0-17 .3-25.3-.1-.4-12.8-.1-25.5-.2-38.3.2-10.7-.2-21.7 3.3-32 1.8-4.8 5-9 9-12ZM2.3 3.2C16 2.6 29.4 3 43 2.9c10.3.6 21.2-.8 31 3.2L76 7l2.5 1.2.4.3a22 22 0 0 1 4.6 4.6l.3.5c1.6 2.2 2.8 4.7 3.4 7.4C90.7 33.7 90.3 47 90.3 60c-.1 15 .5 30.1-1.3 45-1 6.5-2.3 13.3-6.3 18.7-2.2 3-5.6 4.8-8.7 6.6 3 2.3 6.3 4.2 8.5 7.3 1.8 2.6 3.2 5.6 4.6 8.5l.7 2c3 13.4 2.4 27.2 2.5 40.9-.1 21.7.2 43.5-.2 65.2-7.6.6-15.3-.2-22.9.4-4.7 1.9-10.2 2.7-14.9 0-.3-21.8 0-43.8-.1-65.6-.2-3.2 1.2-6.3.5-9.5-1.6-7.5-1-16-5.6-22.6-1.3-2-3.7-2.5-5.9-3l-.3 6v94.3c-6.6.4-13.3 0-20 .2-2.7 0-5.1 1.6-7.8 1.8a95 95 0 0 1-10 0l-.8-.2c-.2-12.7 0-25.3 0-38 0-3-1.2-6-1-9 0-2.8 3.3-4.2 3.7-7-.7-2.7-3.3-4.9-2.8-8 .1-63.5-.1-127.2.1-190.8m38.8 41c-.3 5-.2 9.9-.2 14.8.1 16.4-.2 32.7.2 49 3.6.5 8.8.4 10-4 1.3-5.5 1-11.3 1.1-17-.1-10 .3-20-.4-30-.3-4 .7-9-2.9-12-2.3-1.2-5.2-.6-7.8-.8ZM107.8 5.8c-.2-1.8 1.5-3 3.2-2.8 6.6 0 13.3-.4 19.9.2 3 .9 6-.5 9-.3 9.3.1 18.6-.2 27.8.2 0 5.3.5 10.5.2 15.8v.9c-.3 7.7-.2 15.5-.3 23.2-7 .8-14.2.2-21.3.4-.2 7.3.7 14.8-.6 22.1-.6 3.5.7 7 .7 10.5v19c3.4.5 7 .4 10.6.2 3.6-.2 7.2-.1 10.8 0v16c-.4 8.4-.1 17-.2 25.4-7 .1-14.2-.4-21.3.3v75.7c3.6 0 7.1 0 10.7.2 3.6-.2 7.1-1 10.7-.5.2 5.5.2 11 0 16.4-.7 8.5.1 17-.4 25.6-14.8.3-29.6 0-44.4 0-2.7 0-5 1.9-7.9 2-2.3.1-4.7-.2-7-.4-.8-6-.3-12-.4-17.9 0-7.7-.2-15.4.2-23.1 0-1.6.2-3.1 0-4.7a20364.7 20364.7 0 0 0 .2-153c0-17.1.2-34.3-.2-51.4ZM285.3 3.2c5.5-.4 11-.3 16.6-.3 7.3.5 14.7-.5 22 .6v16.4c.4 7 .2 14 .2 21.1v173c0 13.4.3 26.8-.2 40.2-10.5.5-21 0-31.6.2l-.4 2.1c-2.1-.2-4.3-.2-6.4-.1-.4-4.8-.2-9.6-.3-14.4V43c.1-1.8-.1-3.7 1.1-5 .9-.9 1.2-1.8.9-2.8-.6-3.1-2.3-6-2-9.2V3.3ZM343 3c17.6 0 35.3-.2 53 0 6.8.3 14 .3 20.3 3.3l.5.3a16.8 16.8 0 0 1 6.9 7c2.8 4.4 5.2 9.4 5.2 14.6-.2 1.1 0 2 .8 2.9.4 2 .4 4.1.4 6.2 0 1.2 0 2.3.2 3.5 1.1 22.7.7 45.5.8 68.2-.2 35.3.3 70.7-.4 106a55.1 55.1 0 0 1-6.6 28.2 21.3 21.3 0 0 1-11.1 8.7c-5 2.1-10.7 1.7-16 2-15.3.8-30.7.4-46 .5-1.3 0-2.4.5-3.6 1l-4.1.4c-1-6.3-.4-12.5-.6-18.8 0-19 .5-38.1.1-57.2.5-2.5 2.5-4.4 2.4-7 .4-1.6-.7-3.1-2-3.7-.4-4.3-.4-8.7-.4-13.1.5-28-.4-56 0-84l.4-3c.9-2.5-1-4.6-.9-7V17c.2-4.7-.2-9.4.6-14m38.5 41.4c-.3 56.3 0 112.5-.1 168.7h4c2.2-.6 5-1.6 5.7-4 1.1-4.4.8-9 .6-13.5.6-2 .5-4.2.1-6.3.6-12 .2-24.2.3-36.3V70c0-3-.2-5.8-.3-8.8.9-4.4.4-9-.6-13.4-1.4-4.2-6.2-3.7-9.7-3.4ZM622.3 3.2c9.6-.6 19.2-.1 28.7-.3 7.3.2 14.7-.6 21.9 1 6.8-1.7 13.9-1 20.8-.9l5.6.5c.4 9.2 0 18.4 0 27.5-.1 4.1.5 8.4-.8 12.5-1 1.5-2.8 1-4.2.7-4.6-.8-9.3-.9-14-.2v16c-.1 64.8.2 129.6-.1 194.4l-.6 2c-1.2 0-2.4 0-3.6.2 0-.6-.3-1.7-.4-2.2-11.2-.2-22.5.2-33.7-.2-.2-70 0-140.2 0-210.3-6.4-.3-12.7 0-19-.1-.5-7.8-.2-15.6-.2-23.5l-3-.8 2.4-.5c.3-5.3 0-10.5.2-15.8ZM729.9 3c20 0 39.9-.4 59.8.1v16.2h8c-.5-5.5-1.1-10.9-1-16.3 12.4 0 24.7-.4 37 .2.1 11.9 1.3 23.7 1.5 35.6 0 2.9 0 5.8.4 8.7.3 5.5 1 11.1 0 16.6-.3 2.2 1.3 4.2 2 6.2-.2 10.6-.5 21.2.6 31.7.1 11.6 1.3 23.2 1.5 34.8 1.2 9.4.3 19 1.9 28.3 1.5-33.8 3.7-67.5 5.2-101.3 1-14.8 1.8-29.7 2.3-44.6 0-5.4.2-10.8 1-16.1 12.1-.2 24.4-.5 36.5.2-.5 6.2-2.3 12.6-.8 18.8l-.2 2.1-.5.7-1 1.3a571 571 0 0 1-2.5 25.8c-.7.8-1 1.7-.7 2.8.2 2 0 4.2-.1 6.3-3.1 28.5-5.6 57-8.9 85.6-.4 2.8-.6 5.6-.8 8.4-.2 4-.5 8-1.4 12a18 18 0 0 0-.8 6.6c.2 3.3-.1 6.6-.6 9.8A64955 64955 0 0 0 862 247c-.2 3-.5 5.9-1.1 8.8h-.8c-2.3-.1-4.7 0-7-.6-1-.3-2-.8-3-.8-10.8-.2-21.5.3-32.2-.2-1.4-19-3.4-38-4.6-56.9-2-22.1-3.8-44.3-5.7-66.4-.3-6-1.4-11.9-1.4-18-.1-3 1-5.8 1-8.8-.8-2.7-2.4-5.2-2.5-8.1-2.4-25.4-4.2-50.8-6.6-76.2-3-.1-5.9 0-8.8.2 0 4.3 0 8.6.6 13 .3 3.6 1 7.4-.4 11l-.3 1c-2.2 0-4.6.5-6.7-.5-4.4-2-9.4-.9-14.2-1.1.2 17.2-.1 34.5.3 51.8 6.9-.2 13.7.1 20.6-.3.4 9 0 18 .2 27.1-.1 5 .3 10.2-.5 15.3l-.2 1.2H782l-.4-2-13.3-.1c-.1 10.5.4 21.1 0 31.7-1 2.2-2.4 4.7-.5 7 .5 12.4 0 25 .5 37.5h21c-.1 14.3.5 28.5-.3 42.7v1c-2.5 0-5 0-7.2-1-3.4-1.7-7.2-.5-10.8-1-1.6-.5-3.2-1.3-4.8-1.7-2.7.8-5.3 2.1-8.2 1.8-9.4-.1-18.8.2-28.1-.2-.3-60.7 0-121.5-.1-182.3-.4-4.2 3.4-7.5 2.9-11.8-.6-2.8-3-5-3-8 0-10.7.2-21.5 0-32.2l-5-.2-.9-.1c1.8-.3 3.7-.3 5.6-.3.4-5.5-.5-11 .5-16.4ZM896.2 3.2c13-.5 25.8-.3 38.8-.2v249c0 1.5-.4 3-1 4.3-3.3 0-6.7.1-10-.4-1-.6-2-1.5-3.1-1.5-8-.2-16.1.2-24.2-.1-.3-19.1 0-38.2-.1-57.3-.3-4.2 3.3-8.1 1.7-12.3-.9-2.5-1.8-5-1.8-7.7V33c0-4.4.2-9-.2-13.4v-.8c-.3-5.2-.2-10.4 0-15.6ZM954 3.1a810 810 0 0 1 37.8 0c.3 69.6 0 139.2.2 208.7l.8.1c7 .3 14.1 0 21.2.2 3 4.9.4 10.8 2.2 16 0 8.7.1 17.3-.1 25.9-2.5 3.3-7 2.5-10.2 1-4.8-2.3-10-.3-14.9-.6-12.4-.2-24.8.2-37.2-.2-.4-78 .1-155.9-.3-233.8.2-5.8-.2-11.6.5-17.3Z"/></g><path d="M840.4 19.4c2.9 0 5.8 0 8.7-.2-.5 14.9-1.3 29.8-2.3 44.6-1.5 33.8-3.7 67.5-5.2 101.3-1.6-9.4-.7-18.9-2-28.3 0-11.6-1.3-23.2-1.4-34.8-1.1-10.5-.8-21.1-.7-31.7 1.3-17 2-34 2.9-50.9ZM941.2 19.4c4 0 8 0 12-.4l.3 1.4c.4 78-.1 155.9.3 233.8 12.4.4 24.8 0 37.2.2 5 .3 10.1-1.7 14.9.6a59 59 0 0 0-4.1-.5c-.4 5.1-.3 10.2-.2 15.3-2.7.1-5.5.6-8-.5-1.9-.5-3.9-1.6-5.8-.8l-.4.2a14 14 0 0 1-6.4 1.3c-13.2-.1-26.5.1-39.8-.1-.2-38 0-76-.1-113.9 0-45.5-.2-91 .1-136.6ZM167.8 19.8c2.8-.2 5.6-.2 8.3-.1l1.3 1.9c1 12.7.1 25.5.3 38.2-7 .4-13.8 0-20.7.2-.5 8 .8 16.2-1 24 .6 3.7 1.3 7.4 1 11.2-3.6.2-7.2.3-10.7-.1V76c0-3.5-1.2-7-.6-10.5 1.3-7.3.4-14.8.6-22.1 7.1-.2 14.3.4 21.3-.4.1-7.7 0-15.5.2-23.2ZM323.9 19.9l5.4-.3c.3 34.5 0 69 .1 103.4v146.5c-12.6.2-25 0-37.5 0 .3-4.3 0-8.6 0-13l.4-2.1c10.5-.1 21 .3 31.6-.2.5-13.4.1-26.8.2-40.2V41c0-7 .2-14.1-.2-21.1ZM577.4 20.3l1.7-.5c.6 2.2 2.5 4.5 1.6 6.9-1.5 4-1.5 8.4-1.8 12.6l-.4-.3-1.2-1.2c-.4-5.8-.2-11.7 0-17.5ZM619.7 19.5l3 .8c0 7.8-.3 15.7.1 23.5 6.4 0 12.7-.2 19 .1.1 70.1-.1 140.2.1 210.3 11.3.4 22.5 0 33.7.2l.4 2.2c.1 4.4-.1 8.8-.1 13.3-12.6.1-25.2.2-37.7 0-.2-69.8 0-139.5-.2-209.3-6-.2-12-.2-18.1 0V60c-.5-13.4-.3-27-.2-40.5ZM724.8 19.7l5 .2c0 10.8-.1 21.5 0 32.2-.1 3 2.3 5.2 2.9 8 .5 4.3-3.3 7.6-3 11.9.2 60.7 0 121.5.2 182.2 9.4.4 18.8 0 28.1.2 2.9.3 5.5-1 8.2-1.8 1.6.4 3.1 1.2 4.8 1.6 3.6.6 7.4-.5 10.8 1 2.3 1 4.7 1 7.1 1.2-2.3 0-4.6 0-7 .2v13.3h-18c-1.6.2-2.8-1.1-4.1-1.9l-1.5.4c-4.9 1.8-10.2 1-15.3 1.2-6.1-.1-12.3.3-18.4-.3-.7-3.7-.3-7.5-.4-11.3V86c-.2-3.1 2.3-5.8 2-9 .2-2.6-2.3-4.4-2-7V29c0-3.1-.3-6.3.6-9.3ZM789.3 20c3-.3 5.9-.3 8.8-.2 2.4 25.4 4.2 50.8 6.6 76.2.1 2.9 1.7 5.4 2.5 8 0 3-1.1 6-1 9 0 6 1.1 12 1.4 18 2 22 3.6 44.2 5.7 66.3 1.2 19 3.2 38 4.6 56.9 10.7.5 21.4 0 32.1.2 1.1 0 2.1.5 3.1.8-.5 2.3-.8 4.6-.9 7l-.5 7.6c-14.1.3-28.3.2-42.4 0-1.2-14.2-2.5-28.4-3.5-42.7-.1-3.2-.2-6.3-.7-9.5-2.5-25.9-4.3-51.9-6.6-77.8a57.3 57.3 0 0 1-.5-13.6l.1-1.1 1-2c.3-3.1-1.4-5.6-2.7-8.3L790.8 47c-.2-1-.7-2.1-1.3-3.1 1.5-3.6.7-7.4.4-11-.5-4.4-.5-8.7-.6-13ZM886.5 19.7h9.8c.4 4.4.3 8.9.3 13.3v144c-.1 2.7.8 5.2 1.7 7.7 1.6 4.2-2 8-1.7 12.3 0 19-.2 38.2.1 57.3 8 .3 16.1-.1 24.2.1 1.2 0 2 1 3 1.5-.6 4.6-.4 9.2-.3 13.9a739 739 0 0 1-38.2 0c.2-20-.1-40 .1-59.9l.8 1.3c.3 19.1.2 38.3 0 57.4h.4c-.4-20.1 0-40.3-.3-60.5.5-2.3 2.1-4.5 1.3-6.9-.5-2-1.2-3.9-1.5-5.8V32c0-4-.2-8.2.3-12.3ZM1020.9 32.8c3.2-6 9-9.9 15-12.8-3.5 10.3-3 21.3-3.3 32 0 12.8-.2 25.5.2 38.3 8.4.4 16.8 0 25.3.1 2.4-.1 4.6 1.2 7 1.7a27 27 0 0 0 15.2-2.1c.2-11.7-.1-23.4 0-35 .2-3.8.4-7.8 2.8-10.9 1.8-1.6 4.5-1.7 6.8-1.3 2.4.6 3.3 3.2 3.6 5.4 1 7.2.6 14.5.7 21.8 0 8.4.5 16.8-1.2 25.1-1.9 8.5-6.5 15.9-10.4 23.5l-44.5 84.5c-2.3 4.7-6 9.3-5.5 14.9.1 12-.2 24.2.2 36.3 29.9.3 59.8-.1 89.7.2l.6 1.6-.1 13.8H1016c-.1-5.3-.2-10.6 0-16 .2-8.5.1-17.1.1-25.7 6.1-10.7 11.1-22 17.2-32.7l.4-.7.4-.8.5-1 .5-.9.4-.9.4-.7.4-.9c5.2-10.4 10.3-20.9 16-31.1l.4-.7.4-.8.5-1 .5-1 .5-1 .4-.8.4-.7 7-14c4.7-9.6 10.7-18.7 12.5-29.3.7-2.7.7-5.6.8-8.4.2-2.7.2-5.4.2-8.1-4.3-.2-8.7 0-13.1 0l-.1 14.1c-15.6.3-31.1.2-46.7.1v-46c.2-9.4.1-19.5 4.8-28ZM87.1 21c1.6 3 5 4.4 7.1 6.8A32 32 0 0 1 101 44c2 12.5 1.5 25.3 1.6 38-.1 15.1.6 30.4-2.4 45.4-1.5 7.7-5.5 15.6-13.1 18.7-1.4-3-2.8-6-4.6-8.5-2.3-3.1-5.6-5-8.5-7.3 3.1-1.8 6.5-3.6 8.7-6.6 4-5.4 5.3-12.2 6.3-18.6 1.8-15 1.2-30 1.3-45.1 0-13 .4-26.3-3.2-39ZM506.6 21.1c2-1.3 2.7 3.4.7 3.6-1.4-.5-1.6-2.5-.7-3.6ZM268.9 44c0-5.4-.7-10.9-.4-16.3 2.1 2.8 3.7 5.8 4.8 9l.8 2.4A82 82 0 0 1 276 57c0 16.3.2 32.5 0 48.8-5.8 0-11.8.9-17-1.8-4.7 2.5-10 2-15.2 2.2l-5.5-4.1c.2-3.5.1-7 .1-10.4v-1.9c2.5-.2 5-.1 7.5-.4 2.6-.2 5-2.3 7.7-1.1 5 1.7 10.2 1.1 15.3.9.2-15 .3-30.2 0-45.2ZM430.3 40.8l.5.2c2.1 6.4 2 13.2 2.4 19.9.4 36 .1 72 .2 108.1 0 21 .2 42-.2 63.1a50.3 50.3 0 0 1-7.6 28.5c-5 6.6-13.6 8.5-21.4 8.7-18.8.2-37.7.5-56.5.2-.1-4.7 0-9.4-.3-14.1 1.2-.5 2.3-1 3.6-1 15.3-.1 30.7.3 46-.6 5.3-.2 11 .2 16-1.9 4.5-1.6 8.6-4.6 11.1-8.7a55.1 55.1 0 0 0 6.6-28.2c.8-35.3.2-70.7.4-106-.1-22.8.3-45.5-.8-68.2ZM506 43.3c1.1.1 2-.3 2.7-1.3v17.8c-6.6.4-13.4 0-20.1.2-.6 6-.2 12-.3 18 .1 5.7-.3 11.3.4 17l-1.4-.3V66c0-7.5-.9-15.1 0-22.6 6.2-.1 12.4.2 18.7 0ZM221.3 45.3c1.2-2.4 4.8-3.8 6.6-1.2 4.1 4.8 2.7 11.8 2.2 17.5-3.5 5.2-.4 12.1-4 17.4 2.7 4.6 2.3 10 1.7 15-2.8-2-5.7-4.3-7-7.7-3-7.7 1-16.5-3.2-24 3.8-5 .5-11.8 3.7-17ZM579 43c.8 6.6.3 13.3.4 20 0 21.7.2 43.4 0 65-2.3-6.2-1.6-13.1-2.5-19.7.2-19.4.2-38.9.2-58.3-.1-2 .2-3.8 1.2-5.4l.3-.6.5-1ZM768.3 43.4c4.8.2 9.8-1 14.3 1.1 2 1 4.4.5 6.6.6-2.4.5-4.8.3-7.2.4V60l-13.3.1c-.4 11.7-.2 23.5 0 35.2-.6-17.3-.2-34.6-.4-51.8ZM41.1 44.2c2.6.2 5.5-.4 7.8.9 3.6 2.9 2.6 7.9 3 12 .6 9.9.2 19.9.3 29.9-.1 5.7.1 11.5-1.2 17-1.1 4.4-6.3 4.5-10 4-.3-16.3 0-32.6 0-49 0-5-.2-9.9.1-14.8Z"/><path d="M381.4 44.4c3.5-.3 8.3-.8 9.7 3.4 1 4.3 1.5 9 .6 13.4l-.1.7c-2-.9-4.1-1-6.2-.7-.3 50.7 0 101.3-.1 152l-4-.1c.1-56.2-.2-112.4.1-168.7ZM680.4 44c4.6-.6 9.3-.6 13.9.2.1 5 0 10-.1 15v.9l-13-.1h-.9V44ZM167.8 111.1l9.8.2V150c.1 1.2-.2 3-1.8 2.7-6.3.2-12.5-.2-18.8.2v60c-3.6-.2-7.1-.3-10.7-.2v-75.7c7-.8 14.2-.2 21.3-.3 0-8.5-.2-17 .2-25.5ZM188.8 119.2a42 42 0 0 0 3.7 3.3c6.4 4.9 12 11 19.5 14.5 3.8 4.7 9 7.7 13.5 11.5 3.8 3 5.3 8.1 4.4 12.8a24.9 24.9 0 0 1-10.7-10.7c-1.6-.4-3.3-.7-5-.9-7-6.2-15-12-19-20.8-1.7-3.5-4-6.6-6.4-9.7ZM487.3 136.4c7 0 14 .2 21.1-.2 0 5.4.2 10.7 0 16-6.8.3-13.5.1-20.2.2v60l-1.3.2c0-25.4-.5-50.8.4-76.2ZM768.3 136.4h13.3l.4 2.1c.2 4.8 0 9.5-.2 14.2-4.4 0-8.7-.2-13 0-.7 5.2.2 10.3-.5 15.4.4-10.6-.1-21.2 0-31.7ZM556.5 137c1.4 4.4 1.5 9.1 2 13.7 5 34.5 9.7 69 14.6 103.4 8.6.7 17.3.1 25.9.3 4 .2 8.3-.9 11.8 1.2-1.6 4.6-.5 9.6-1 14.3-12.8 0-25.6.2-38.5 0l-9.8-71.1c-.8-7-2.3-14-2.5-21 .2-2 .2-4-.8-5.7l-1-1.7c.6-4.1-.8-8.2-.8-12.4 0-7-.1-14 .1-21ZM269 161c.1-7.4-1-14.8-.6-22.3 7 9.2 7.5 21.3 7.6 32.3v61c-.1 7-.4 14.3-3.3 20.8-3 4.7-4.4 11-10 13.6l-.4.3c-5.4 3-11.7 3.2-17.6 3.8h-24.4c-3.8-.4-7.7-.7-11.4-1.5l-2.5-1-.6-.3-.5-.3a20.6 20.6 0 0 1-9.7-10.7l-.3-.4-.2-.6-1.2-4.8c4 1.6 8 3.2 12.3 3.6 13.3 1.2 26.6 1 39.9-.5 7.2-.8 14.4-5 16.8-12.3 6.7-9.1 5.6-21 6-31.7.2-16.3.2-32.7.1-49ZM87.8 148c2.6.3 4.3 2.5 6 4.2 5 5.7 7 13.5 7.9 20.8.7 5.3-.5 10.6-.2 16 .2-2.4-.5-5 .8-7 .5 29.2 0 58.5.3 87.8-12.5.4-25 .1-37.5.1-.2-4.4 0-8.9 0-13.3-3.5-.3-7-.3-10.3 0-.2 4.4 0 8.8 0 13.2-12.6.3-25.2.1-37.8.1-.8-4.4 0-8.9-.5-13.3-4.4-.6-9 .3-13.4-.5 3.3.2 6.6.3 10 0 2.7 0 5-1.8 7.8-1.7 6.7-.1 13.4.2 20-.2V160l.3-6c2.2.4 4.6.8 5.9 2.9 4.6 6.6 4 15 5.6 22.6.7 3.2-.7 6.3-.5 9.5.1 21.8-.2 43.8.1 65.6 4.7 2.7 10.2 1.9 14.9 0 7.6-.6 15.3.2 23-.4.3-21.7 0-43.5 0-65.2 0-13.7.6-27.5-2.4-41Z"/><path d="M219.6 166.3h8.3c.7 15 0 30.1.4 45.2-1.5 2-4.5 2.4-6.2.4-2.4-3-2.3-7.2-2.5-11v-34.6ZM524.4 172.7c2.7 4.2 2.7 9.4 0 13.6-.6-4.5-.6-9.1 0-13.7ZM508.2 213c.9 18.9.5 37.9.6 56.8-19.6.3-39.1.2-58.7 0 0-4.6 0-9.3-.2-14l.8-1.3c19.2-.4 38.4.2 57.7-.2.4-13.8 0-27.6-.2-41.3ZM107.4 219c0-1.4.1-2.8.4-4.1-.4 7.7-.1 15.4-.2 23.1 0 6-.3 12 .3 18 2.4.1 4.8.4 7.1.3 2.8-.1 5.2-2 8-2 14.7 0 29.5.3 44.3 0 .5-8.6-.3-17 .5-25.6l1.2-.2.7-.2a20 20 0 0 1 8-.1c-.2 13.9-.2 27.7 0 41.6-19.5.4-39 .2-58.6 0v-13.2a89 89 0 0 0-11.6 0v-37.7ZM523.9 254.2c10.7.7 21.6-.5 32.3.7-1 5-.4 10-.5 14.9-10.6.4-21.1.1-31.7.1l-.1-15.7Z"/></svg>