<svg xmlns="http://www.w3.org/2000/svg" xmlns:xlink="http://www.w3.org/1999/xlink" width="2188.192" height="641.675" viewBox="0 0 168.904 49.53"><path fill="#fff" fill-rule="evenodd" d="M16.262 5.533a.388.388 0 0 0 .294-.113c.068-.091.091-.227.091-.408V2.449c0-.158-.023-.294-.091-.385a.391.391 0 0 0-.294-.113.45.45 0 0 0-.317.113.883.883 0 0 0-.091.385v2.563c0 .182.046.317.091.408.068.068.159.113.317.113zm0 .205c-.725 0-1.314-.182-1.745-.567a1.664 1.664 0 0 1-.634-1.179c-.022-.09-.022-.159-.022-.25s0-.159.022-.249c.045-.477.249-.862.634-1.18.431-.363 1.02-.544 1.745-.544.702 0 1.291.182 1.722.544.431.362.657.839.657 1.429a1.79 1.79 0 0 1-.657 1.429c-.431.385-1.02.567-1.722.567zm4.849-3.243c.113-.227.271-.408.498-.544.227-.136.476-.182.771-.182.295 0 .521.068.725.182a.874.874 0 0 1 .34.544h.068c.113-.227.272-.408.499-.544.226-.136.476-.182.77-.182.408 0 .703.091.884.318.158.204.249.589.249 1.134v2.154h.431v.204H23.99v-.204h.227v-2.54c0-.136 0-.25-.045-.317-.045-.045-.113-.091-.182-.091-.158 0-.271.091-.339.25-.091.159-.136.408-.136.726v1.973h.249v.204h-2.175v-.204h.249v-2.54c0-.136-.022-.25-.067-.317-.046-.045-.114-.091-.182-.091-.158 0-.272.091-.362.25-.068.159-.113.408-.113.726v1.973h.249v.204h-2.379v-.204h.431V2.066h-.431v-.204h.883c.182 0 .363 0 .521-.023.181-.022.34-.045.521-.068h.136l-.022.726h.088zm39.264 1.814h.181c.204.362.453.68.793.884.34.227.68.34 1.02.34.181 0 .34-.022.431-.09.113-.091.158-.182.158-.295 0-.227-.385-.454-1.133-.681-.113-.045-.204-.068-.249-.09a1.586 1.586 0 0 1-.861-.522 1.29 1.29 0 0 1-.318-.839c0-.363.136-.658.408-.907.272-.227.612-.34 1.02-.34.182 0 .362 0 .544.045.204.045.385.091.566.159l.634-.204h.159l.022 1.225h-.158a1.872 1.872 0 0 0-.68-.771 1.59 1.59 0 0 0-.906-.295.766.766 0 0 0-.363.091.316.316 0 0 0-.136.25c0 .227.295.431.861.589a.168.168 0 0 0 .09.023c.544.181.929.362 1.156.589.249.227.362.521.362.884 0 .431-.136.771-.408 1.021-.272.227-.634.341-1.133.341-.204 0-.408-.023-.589-.046-.181-.045-.362-.136-.589-.227l-.634.272h-.204l-.045-1.18-.023-.227h.024zm0-3.47v.285c0 .045-.023.068-.023.09 0 .091-.045.159-.068.25-.045.09-.068.158-.136.249-.045.068-.091.159-.158.227-.068.068-.136.136-.204.181-.068.045-.136.091-.227.136-.045.023-.068.045-.113.045-.045.022-.091.022-.113.022-.045 0-.091 0-.113-.022-.022-.022-.022-.045-.022-.091v-.045c0-.022.022-.045.022-.068.022 0 .022-.022.045-.045.022 0 .022-.023.045-.045.068-.045.113-.091.159-.136.045-.068.09-.114.113-.182.045-.068.068-.136.091-.182 0-.068.022-.113.022-.181-.113 0-.226 0-.317-.023-.091-.022-.159-.068-.227-.091-.045-.068-.09-.113-.113-.158-.045-.068-.045-.136-.045-.204 0-.045 0-.091.022-.137 0-.045.023-.09.045-.136.023-.045.068-.068.09-.113.046-.046.091-.068.136-.091.045-.023.113-.045.159-.068.068 0 .113-.023.181-.023.136 0 .25.023.34.045.09.045.181.09.227.159a.408.408 0 0 1 .136.204c.023.057.023.103.046.148zM40.55 5.216a.271.271 0 0 0 .271-.181c.068-.136.114-.317.114-.59v-.816h-.114c-.113 0-.181.022-.271.045-.09.023-.182.068-.227.159-.09.113-.136.363-.136.726 0 .227.023.386.068.499a.297.297 0 0 0 .272.159h.023zm0-1.769h.362V2.313c0-.113-.022-.204-.113-.272-.045-.045-.136-.068-.249-.068h-.091c-.068 0-.136 0-.204.023-.068.022-.09.068-.09.091 0 0 .022.045.068.068a.732.732 0 0 1 .181.476c0 .204-.068.34-.227.454-.159.091-.408.136-.702.136s-.521-.045-.657-.159c-.159-.113-.227-.249-.227-.476 0-.294.159-.499.453-.635.294-.136.793-.182 1.473-.182h.023c.521 0 .906.023 1.201.091.294.045.521.136.657.272a.946.946 0 0 1 .204.317c.045.114.068.295.068.545v1.905c0 .068 0 .136.023.181.022.023.068.045.136.045a.328.328 0 0 0 .159-.045c.068-.045.091-.09.136-.136l.113.091c-.136.204-.34.385-.589.499a1.428 1.428 0 0 1-.748.205.905.905 0 0 1-.544-.159c-.158-.091-.272-.25-.362-.431a1.709 1.709 0 0 1-.453.34c-.068.045-.136.068-.204.091a1.98 1.98 0 0 1-.838.159c-.362 0-.657-.091-.883-.295-.227-.182-.34-.431-.34-.749 0-.385.204-.68.589-.907.385-.227.906-.34 1.586-.34h.089zm2.855 2.132v-.204h.431V2.064h-.431V1.86h1.02c.159 0 .34 0 .521-.023.158-.022.34-.045.498-.068h.136v.726h.068c.136-.227.294-.408.521-.544.227-.136.499-.182.815-.182.408 0 .725.091.907.318.181.204.271.589.271 1.134v2.154h.431v.204h-2.47v-.204h.227v-2.54c0-.136-.023-.25-.045-.317a.29.29 0 0 0-.204-.091c-.136 0-.249.091-.34.25-.068.159-.113.408-.113.726v1.973h.249v.204h-2.492zm9.561-.975l.159.114a1.891 1.891 0 0 1-.771.748c-.34.182-.748.272-1.223.272-.657 0-1.201-.182-1.609-.544-.408-.386-.589-.862-.589-1.452 0-.612.204-1.089.589-1.451.408-.363.952-.522 1.654-.522.634 0 1.11.091 1.45.318.363.227.521.521.521.93 0 .272-.067.477-.227.635-.158.159-.385.227-.657.227a.846.846 0 0 1-.589-.204.806.806 0 0 1-.227-.567.87.87 0 0 1 .091-.385.66.66 0 0 1 .249-.25c.023-.023.068-.045.114-.068.136-.068.204-.136.204-.227 0-.068-.045-.113-.113-.159-.068-.045-.181-.045-.294-.045-.272 0-.499.114-.612.386-.136.25-.204.68-.204 1.247 0 .704.068 1.157.227 1.406.136.272.363.385.703.385a.977.977 0 0 0 .589-.204c.203-.114.384-.318.565-.59zm2.786 1.043L53.69 2.064h-.43V1.86h2.877v.204h-.454l1.11 1.814.748-1.293c.022-.045.045-.113.068-.136.023-.045.023-.068.023-.113a.237.237 0 0 0-.113-.204c-.068-.045-.204-.068-.385-.068V1.86h1.314v.204c-.271.045-.521.25-.725.612 0 .023-.023.045-.023.045l-2.017 3.492c-.227.432-.453.704-.679.885-.204.159-.454.25-.748.25s-.521-.09-.702-.25a.784.784 0 0 1-.25-.589c0-.227.045-.409.181-.521a.823.823 0 0 1 .544-.182c.204 0 .362.045.476.159a.632.632 0 0 1 .182.453.44.44 0 0 1-.159.341c-.113.113-.159.182-.159.204 0 .022.022.045.045.068.022.023.045.023.09.023.136 0 .295-.068.476-.25.181-.159.34-.386.499-.658zM34.614 1.973h-.249c-.158-.499-.385-.907-.68-1.179a1.343 1.343 0 0 0-.952-.408c-.362 0-.611.159-.725.431-.136.294-.204 1.043-.204 2.222 0 .93.068 1.542.227 1.837.159.295.431.454.838.454s.771-.136 1.064-.408c.272-.272.453-.658.544-1.157h.25c-.068.635-.294 1.134-.703 1.474-.431.317-.997.499-1.722.499-.838 0-1.563-.272-2.107-.816-.566-.544-.861-1.225-.861-2.041 0-.363.09-.726.227-1.089.136-.34.34-.658.566-.907.272-.272.589-.477.974-.635a2.84 2.84 0 0 1 1.156-.227c.272 0 .521.046.748.091.204.068.453.181.725.34l.657-.431h.227zm.544 3.606v-.204h.521V.318h-.476V.114h1.133c.159 0 .34 0 .521-.023.159-.022.34-.045.499-.091h.136v5.375h.454v.204zm-22.249 0H9.194v-.227h.725V.34c-.362.023-.657.181-.929.477-.272.294-.476.703-.589 1.202h-.182V.114h5.664v1.905h-.159c-.136-.499-.34-.907-.589-1.202-.271-.295-.589-.454-.929-.477v5.012h.702v.227z" clip-rule="evenodd"/><path fill="#33a457" fill-rule="evenodd" d="M19.57 18.937l-.725 3.311h5.347l.748-3.402c.538-2.479 1.077-4.958 1.608-7.438h5.71l.136.022h.656l.09.022h.249l.113.022.09.023.091.022.045.023.068.022.022.045.045.023.023.045.022.068.022.068.023.068v.114l.023.113-.023.136-.023.136-.022.181-.022.091-.023.091-.022.068-.023.091-.022.091-.022.068-.045.091-.022.068-.023.068-.045.068-.023.068-.045.068-.045.068-.022.045-.045.071-.045.045-.022.023-.022.045-.046.023-.022.022-.046.023-.045.045-.068.023-.045.023-.068.022-.068.022-.09.023h-.068l-.09.022h-.091l-.113.023h-.113l-1.36.022h-4.124l-.997 4.649h7.364l.091-.022h.181l.091-.023h.203l.09-.023h.091l.091-.022h.136l.136-.022.136-.023.136-.022.136-.023.136-.045.113-.023.136-.045.136-.045.113-.045.136-.045.113-.045.114-.045.113-.068.136-.045.113-.068.113-.091.159-.068.113-.091.136-.113.136-.091.113-.114.136-.113.113-.114.113-.136.113-.136.113-.136.113-.136.113-.159.09-.159.091-.159.113-.159.09-.159.091-.182.091-.181.09-.181.068-.204.091-.182.023-.091.045-.113.09-.205.068-.226.068-.205.068-.227.069-.225.068-.25.068-.227.045-.25.068-.25.023-.091v-.09l.022-.068.023-.091.022-.091v-.09l.022-.091.022-.068v-.09l.023-.091v-.091l.022-.091v-.068l.022-.09v-.091l.022-.068v-.182l.023-.091v-.249l.022-.068v-.748l-.022-.136v-.136l-.023-.113V9.48l-.022-.136-.045-.136-.023-.113-.045-.114-.022-.136-.045-.114-.068-.113-.045-.114-.045-.091-.068-.113-.068-.113-.068-.091-.091-.091-.068-.091-.09-.091-.068-.045-.023-.023-.091-.09-.113-.068-.091-.068-.113-.068-.113-.068-.113-.045-.113-.068-.114-.045-.113-.045-.136-.045-.136-.045-.112-.024-.136-.045-.113-.022-.136-.023-.136-.022-.113-.022-.136-.023-.136-.023-.136-.022-.136-.022h-.136l-.136-.023h-.158l-.136-.022h-.295l-.136-.023-1.858-.022H22.221zm102.816 3.311c.585-2.755 1.184-5.505 1.79-8.255l.566-2.585h5.755l1.269.045h.249l.091.022h.181l.091.023h.068l.067.022.046.023.046.022h.045l.022.023.022.022h.044v.023l.023.022.022.023.022.045.022.022v.045l.023.045v.045l.022.046v.34l-.022.091-.023.091-.022.091-.022.136-.046.136-.045.136-.022.113-.046.113-.045.091-.045.091-.068.091-.045.068-.046.068-.045.045-.066.049-.045.045-.046.045-.067.022-.046.023-.022.022-.045.023h-.046l-.045.022h-.046l-.045.022h-.045l-.046.023h-.113l-.045.023h-.316l-.091.022h-.545l-.09.022h-5.392l-1.02 4.627h5.755l.158.022h.295l.113.022h.136l.091.023.091.023.091.022.067.022.068.023.045.022.022.023.046.022.022.022v.023l.022.023v.045l.022.045v.522l-.022.113-.021.142-.022.137-.022.136-.023.159-.045.181-.34 1.86h5.324l.453-2.132.022-.113.046-.113.022-.114v-.113l.022-.113.022-.113.023-.113.022-.114v-.09l.022-.114.022-.09v-.204l.023-.091v-.182l.021-.091v-.317l-.021-.091v-.227l-.023-.068v-.07l-.022-.068-.022-.068-.022-.067v-.068l-.046-.068-.045-.136-.068-.136-.091-.114-.113-.113-.113-.113-.113-.091-.136-.091-.136-.09-.136-.091-.158-.091h-.023l.068-.022.113-.045.091-.045.09-.045.091-.068.091-.045.091-.045.09-.045.091-.045.068-.068.091-.045.067-.068.068-.045.091-.068.068-.045.067-.068.067-.046.046-.068.068-.068.067-.068.045-.068.046-.068.068-.068.045-.068.045-.068.046-.068.045-.068.045-.068.046-.068.022-.091.046-.067.045-.091.045-.068.046-.091.022-.091.045-.068.046-.091.022-.09.045-.091.023-.091.045-.113.022-.091.045-.091.023-.113.045-.091.022-.091.023-.113.045-.113.022-.091.023-.113.021-.113.046-.113.022-.114.023-.114.021-.158.023-.136.045-.159.022-.136.023-.137v-.159l.022-.136.022-.136.022-.159v-.141l.022-.136v-.272l.023-.136v-.499l-.023-.068v-.159l-.022-.068V9.23l-.022-.09-.022-.068-.022-.068v-.068l-.023-.09-.022-.068-.022-.068-.046-.068-.021-.09-.046-.114-.046-.09-.045-.091-.045-.068-.068-.091-.068-.091-.045-.068-.067-.091-.068-.068-.091-.068-.068-.068-.09-.068-.068-.068-.091-.045-.091-.068-.09-.045-.091-.045-.113-.045-.091-.045-.113-.045-.09-.045-.108-.049-.113-.022-.113-.045-.113-.023-.113-.022-.136-.022-.113-.023-.136-.023-.113-.022h-.136l-.113-.022h-.113l-.113-.023h-.113l-.113-.022h-.226l-.113-.023h-.478l-.114-.022h-13.593l-3.354 15.49h5.346zm-4.69-4.286h-11.735l.385-1.747h10.966l.294-1.383.59-2.676H107.23l.249-1.111.951-4.286h-5.369l-1.881 8.618-1.495 6.872h17.083zm-.091-6.917h1.473l.93-4.286h-10.625l-.929 4.286zm-16.426-4.286h1.496l-1.02 4.649h-6.39l-2.356 10.84h-5.347l2.356-10.84h-6.367l.34-1.61.679-3.039zM83.893 8.368l.362-1.61h-5.347l-2.197 10.115-5.597-10.115h-7.681l-3.376 15.49h5.347l2.198-10.115 5.597 10.115h7.68zM62.867 6.759H57.52l-3.376 15.49h5.347zM38.579 18.03l2.447-11.271h5.347L44.017 17.6h9.788l-1.02 4.649H37.673zM19.57 7.892h.023l.068.091.068.091.068.09.068.091.068.113.046.091.045.114.045.113.045.113.045.113.023.113.022.114.045.136v.114l.023.136.022.136v.68l-.022.159-.023.136v.159l-.022.159-.045.159-.272 1.338h-5.279l.068-.998v-.181l-.022-.045v-.045l-.022-.023v-.045l-.023-.023-.022-.023v-.022h-.023l-.022-.022-.023-.023-.022-.022h-.045l-.022-.023h-.045l-.023-.022h-.09l-.045-.022h-.136l-.095-.026h-.249l-.113-.023h-.34l-1.178-.068H9.556L8.4 10.84h-.113l-.045.022h-.158l-.068.023h-.09l-.045.023h-.092l-.045.022h-.045l-.045.022h-.068l-.068.023-.068.022-.045.023-.068.022-.045.022-.045.046-.022.022-.045.045-.045.045-.022.045-.023.046-.045.045-.023.068-.022.068-.022.067-.023.091-.022.068v.25l.022.022v.022l.023.023.022.022.022.022.023.023.045.022.068.023.068.023.068.022.045.023h.09l.045.022h.068l.045.022h.158l.068.023h.294l.045.023 1.155.022 4.079.113 2.356.113h.136l.136.023h.136l.113.022.136.023h.113l.136.022.113.022.113.023.114.023.136.045.113.023.113.022.113.045.113.022.113.046.136.045.136.068.136.068.136.091.113.09.136.091.09.091.113.113.092.103.091.136.091.113.068.136.09.136.045.137.068.136.046.158.045.159.022.159.045.159.023.159v.181l.022.182v.544l-.022.204-.022.181-.023.204-.022.227-.045.204-.022.227-.046.204-.068.25-.068.25-.068.25-.068.227-.091.227-.091.204-.091.227-.113.204-.09.182-.113.204-.136.181-.114.182-.136.181-.136.159-.136.159-.159.159-.158.135-.159.137-.181.137-.159.113-.181.113-.182.113-.204.09-.181.092-.204.09-.204.068-.227.068-.204.068-.227.068-.227.045-.227.021-.227.047h-.091l-.068.021h-.159l-.09.023h-.091l-.068.023h-.272l-.068.021h-.521l-.113.023h-.453l-.091.021h-.743l-.091.023H9.398l-.113-.023H8.196l-.136-.021h-.793l-.159-.023h-.702l-.182-.021h-.565l-.204-.023h-.544l-.113-.023h-.431l-.09-.021h-.204l-.091-.023h-.294l-.068-.023h-.136l-.113-.021h-.113l-.136-.023h-.113l-.113-.021-.114-.023-.113-.023-.09-.021-.113-.023-.113-.021-.091-.023-.113-.045-.091-.023-.113-.021-.09-.047-.091-.021-.09-.047-.091-.045-.091-.045-.09-.023-.068-.045-.091-.045-.068-.068-.09-.045-.068-.045-.068-.068-.091-.045-.068-.068-.068-.045-.045-.068-.068-.068-.07-.077-.046-.068-.067-.068-.045-.067-.045-.091-.045-.068-.022-.091-.045-.091-.022-.068-.045-.091-.023-.091-.022-.09-.022-.114-.023-.09-.022-.091v-.113l-.023-.091v-.113L0 19.414v-.568l.022-.113v-.136l.023-.113v-.136l.022-.113.023-.136v-.136l.022-.136.249-1.406h5.347l-.136.658-.022.136v.113l-.022.091v.181l.022.09v.045l.022.068v.045l.023.022.022.045v.022h.023l.022.023.023.023h.022l.023.022h.068l.045.022.068.022h.091l.091.023h.09l.091.023h.113l.136.022h.136l.136.022h.294l1.246.045h4.554l.136-.022.136-.023.113-.022.09-.022.091-.046.068-.045.068-.045.068-.045.068-.045.045-.068.022-.068.045-.068.045-.068.022-.091.023-.114.022-.09v-.246l-.022-.045v-.023l-.023-.022-.022-.023v-.022l-.022-.022-.046-.023-.022-.023h-.045l-.068-.022-.068-.022h-.248l-.067-.023h-.253l-.158-.022h-.113l-.884-.045-2.673-.113-1.269-.068-2.22-.113h-.136l-.159-.022h-.295l-.136-.023h-.136l-.136-.022h-.136l-.113-.023-.136-.022h-.113l-.136-.022-.113-.023h-.114l-.114-.022-.113-.023-.227-.045-.249-.068-.204-.068-.227-.091-.181-.091-.204-.113-.159-.136-.159-.136-.159-.159-.113-.158-.113-.182-.091-.204-.068-.182-.045-.227-.045-.204-.022-.227v-.227l-.023-.136v-.249l.023-.113v-.249l.022-.136v-.136l.022-.113.023-.136.022-.136.022-.136.023-.113.022-.136.045-.114.022-.113.023-.114.023-.113.022-.113.045-.113.022-.091.023-.113.023-.091.022-.113.045-.091.022-.091.023-.113.045-.091.023-.091.023-.091.045-.09.022-.068.022-.091.046-.091.022-.068.022-.09.045-.068.023-.068.045-.068.022-.091.045-.068.022-.068.045-.068.045-.045.022-.068.045-.068.113-.182.136-.182.114-.159.136-.182.158-.136.136-.158.159-.136.158-.136.159-.113.158-.113.182-.113.158-.114.182-.09.181-.068.204-.068.182-.068.113-.045.09-.023.113-.022.113-.022.113-.023.136-.045.113-.022.136-.023H6.1l.159-.022.136-.023.158-.022.159-.022h.159l.181-.023.159-.023h.181l.181-.022h.204l.181-.022h.204l.204-.023h.431l.204-.022h3.07l.136.022h.906l.136.023h.634l.136.022h.498l.136.022h.407l.182.023h.181l.159.023h.181l.159.022h.158l.159.022.136.023h.158l.159.022.136.023.136.022.136.022.136.023.136.023.114.022.136.022.113.023.113.022.113.045.113.022.113.023.113.045.09.022.114.045.09.045.09.022.091.045.091.045.091.045.068.045.113.045.09.068.091.068.091.068.09.09z" clip-rule="evenodd"/><path fill="#fff" fill-rule="evenodd" d="M19.615 20.752l-.227 1.064h4.441l.566-2.54h-.023l1.337-6.078.499-2.223h5.324c.838 0 1.473.022 1.88.045.838.045 1.133.589.929 1.61-.113.567-.317 1.021-.589 1.36-.227.317-.68.477-1.336.522l-1.382.023h-3.761l-.815 3.765h6.163c.499 0 .952-.023 1.427-.091.703-.068 1.337-.25 1.881-.567 1.223-.658 2.13-2.109 2.719-4.355.045-.227.113-.453.158-.68.204-.907.295-1.769.25-2.585 0-.612-.159-1.111-.408-1.52-.34-.499-.861-.839-1.563-1.021a11.194 11.194 0 0 0-2.084-.25l-1.835-.022H22.584zm97.99.906l3.149-14.446h12.892c.612 0 1.201.022 1.791.09 1.313.136 2.151.635 2.446 1.474.136.363.204.704.204 1.021a12.83 12.83 0 0 1-.249 2.2c-.272 1.202-.635 2.109-1.088 2.721-.453.59-1.337 1.066-2.605 1.429 1.155.34 1.812.749 1.993 1.247.204.5.159 1.361-.136 2.631l-.385 1.791h-4.44l.249-1.36c.204-.907.227-1.52.067-1.792-.158-.317-.702-.476-1.631-.476h-5.211l.838-3.765h4.373c.431 0 .906 0 1.404-.022.386-.022.703-.067.952-.181.498-.204.838-.726 1.02-1.587.136-.59.091-1.021-.159-1.293-.203-.204-.611-.317-1.291-.317l-1.291-.045h-6.118l-.747 3.447-.815 3.765-.793 3.628h-4.441zm0-8.89l.046-.159h-10.966l.431-1.996h.022l.748-3.402H103.4l-2.221 10.228-.951 4.376h16.2l.726-3.401h-11.736l.566-2.653h10.966zm0-2.154h1.111l.747-3.402h-9.742l-.726 3.402zm-16.426-3.402h.951l-.815 3.765h-6.411l-2.356 10.84h-4.44l2.355-10.84h-6.366l.793-3.765zm-37.406 0h7.069l6.049 10.886 2.378-10.886h4.441l-3.171 14.604h-7.092l-6.026-10.93-2.379 10.931h-4.441zm-2.311 3.946l.861-3.946h-4.464l-3.172 14.604h4.44zm-22.815 8.686l2.741-12.632h4.441l-2.356 10.84h9.788l-.816 3.764H38.216zM19.615 8.731c.272.567.317 1.338.136 2.291l-.136.635-.068.363h-4.44l.045-.544c0-.499-.181-.816-.566-.93-.159-.068-.589-.113-1.246-.136l-1.178-.045H9.557l-1.179.045c-.317.022-.634.045-.884.136-.521.113-.838.454-.974.998-.136.589.068.953.657 1.089.294.068.612.113.974.113l1.155.022 4.056.136 2.356.091c.68.045 1.269.159 1.812.34 1.337.499 1.767 1.882 1.269 4.195-.589 2.585-2.062 4.014-4.463 4.309-.385.045-.838.068-1.292.092-.996.045-1.971.066-2.968.066-1.087-.021-2.673-.045-4.803-.113a28.173 28.173 0 0 1-1.631-.09c-1.269-.092-2.175-.432-2.719-.998-.476-.522-.611-1.497-.385-2.903l.181-1.021H5.16c-.159.771-.068 1.27.271 1.474.227.136.771.204 1.631.25l1.269.023h4.418c.929-.023 1.473-.408 1.608-1.134.113-.658-.113-1.021-.68-1.111-.158 0-.453-.022-.884-.045l-.906-.045-2.65-.114-1.269-.068-2.22-.113a19.2 19.2 0 0 1-2.017-.204c-1.224-.204-1.858-.839-1.903-1.883-.068-.589 0-1.225.136-1.905.272-1.225.589-2.132.929-2.699.589-.93 1.359-1.542 2.288-1.837.929-.295 2.764-.431 5.528-.431 1.473 0 2.854.045 4.169.091 1.903.091 3.217.317 3.942.749.365.204.637.476.795.861z" clip-rule="evenodd"/><defs><path id="a" d="M31.676 97.076l-.227 1.064h4.441l.566-2.54h-.023l1.337-6.078.499-2.223h5.324c.838 0 1.473.022 1.88.045.838.045 1.133.589.929 1.61-.113.567-.317 1.021-.589 1.36-.227.317-.68.477-1.336.522l-1.382.023h-3.761l-.815 3.765h6.163c.499 0 .952-.023 1.427-.091.703-.068 1.337-.25 1.881-.567 1.223-.658 2.13-2.109 2.719-4.355.045-.227.113-.453.158-.68.204-.907.295-1.769.25-2.585 0-.612-.159-1.111-.408-1.52-.34-.499-.861-.839-1.563-1.021a11.194 11.194 0 0 0-2.084-.25l-1.835-.022H34.645zm97.99.906l3.149-14.446h12.892c.612 0 1.201.022 1.791.09 1.313.136 2.151.635 2.446 1.474.136.363.204.704.204 1.021a12.83 12.83 0 0 1-.249 2.2c-.272 1.202-.635 2.109-1.088 2.721-.453.59-1.337 1.066-2.605 1.429 1.155.34 1.812.749 1.993 1.247.204.5.159 1.361-.136 2.631l-.385 1.791h-4.44l.249-1.36c.204-.907.227-1.52.067-1.792-.158-.317-.702-.476-1.631-.476h-5.211l.838-3.765h4.373c.431 0 .906 0 1.404-.022.386-.022.703-.067.952-.181.498-.204.838-.726 1.02-1.587.136-.59.091-1.021-.159-1.293-.203-.204-.611-.317-1.291-.317l-1.291-.045h-6.118l-.747 3.447-.815 3.765-.793 3.628h-4.441zm0-8.89l.046-.159h-10.966l.431-1.996h.022l.748-3.402h-4.486l-2.221 10.228-.951 4.376h16.2l.726-3.401h-11.736l.566-2.653h10.966zm0-2.154h1.111l.747-3.402h-9.742l-.726 3.402zm-16.426-3.402h.951l-.815 3.765h-6.411l-2.356 10.84h-4.44l2.355-10.84h-6.366l.793-3.765zm-37.406 0h7.069l6.049 10.886 2.378-10.886h4.441L92.6 98.14h-7.092l-6.026-10.93-2.379 10.931h-4.441zm-2.311 3.946l.861-3.946H69.92L66.748 98.14h4.44zm-22.815 8.686l2.741-12.632h4.441l-2.356 10.84h9.788l-.816 3.764H50.277zM31.676 85.055c.272.567.317 1.338.136 2.291l-.136.635-.068.363h-4.44l.045-.544c0-.499-.181-.816-.566-.93-.159-.068-.589-.113-1.246-.136l-1.178-.045h-2.605l-1.179.045c-.317.022-.634.045-.884.136-.521.113-.838.454-.974.998-.136.589.068.953.657 1.089.294.068.612.113.974.113l1.155.022 4.056.136 2.356.091c.68.045 1.269.159 1.812.34 1.337.499 1.767 1.882 1.269 4.195-.589 2.585-2.062 4.014-4.463 4.309-.385.045-.838.068-1.292.092-.996.045-1.971.066-2.968.066-1.087-.021-2.673-.045-4.803-.113a28.173 28.173 0 0 1-1.631-.09c-1.269-.092-2.175-.432-2.719-.998-.476-.522-.611-1.497-.385-2.903l.181-1.021h4.441c-.159.771-.068 1.27.271 1.474.227.136.771.204 1.631.25l1.269.023h4.418c.929-.023 1.473-.408 1.608-1.134.113-.658-.113-1.021-.68-1.111-.158 0-.453-.022-.884-.045l-.906-.045-2.65-.114-1.269-.068-2.22-.113a19.2 19.2 0 0 1-2.017-.204c-1.224-.204-1.858-.839-1.903-1.883-.068-.589 0-1.225.136-1.905.272-1.225.589-2.132.929-2.699.589-.93 1.359-1.542 2.288-1.837.929-.295 2.764-.431 5.528-.431 1.473 0 2.854.045 4.169.091 1.903.091 3.217.317 3.942.749.365.204.637.476.795.861z"/></defs><clipPath id="b"><use width="100%" height="100%" overflow="visible" xlink:href="#a"/></clipPath><g clip-path="url(#b)" transform="translate(-12.061 -76.324)"><defs><path id="c" d="M12.373 83.354h137.775v14.968H12.373z"/></defs><clipPath id="d"><use width="100%" height="100%" overflow="visible" xlink:href="#c"/></clipPath></g><path fill="#33a457" fill-rule="evenodd" d="M88.9 40.324h26.304l1.042-5.125H97.781l.385-1.951h15.067l1.042-5.125H99.209a562.975 562.975 0 0 1 1.518-7.076H92.82zm2.628-19.277l-1.042 5.125H71.183l-.045.021h-.113l-.045.023h-.134l-.023.023h-.094l-.068.021-.068.023h-.068l-.068.023-.068.021-.068.023-.068.023-.068.021-.045.045-.068.023-.068.023-.068.045-.068.021-.068.047-.068.045-.045.021-.068.047-.068.045-.045.045-.045.045-.046.023-.045.045-.023.045-.022.023-.045.045-.022.023-.023.045v.023l-.022.045-.023.023v.066l-1.427 7.031-.023.068v.181l.023.021v.047l.023.021.02.055.022.023.023.045.045.023.022.045.045.045.045.023.068.045.045.045.045.023.068.045.068.023.068.021.045.023.09.023.068.021.068.023.068.023h.09l.068.021h19.78l-1.042 5.104h-19.55l-.204-.023h-.227l-.227-.021h-.204l-.204-.023-.204-.023-.204-.021-.204-.023-.204-.045-.204-.023-.204-.045-.181-.045-.204-.045-.181-.047-.181-.045-.181-.068-.182-.045-.181-.068-.181-.068-.181-.066-.159-.092-.181-.068-.159-.068-.159-.09-.159-.09-.156-.092-.159-.09-.158-.092-.136-.113-.158-.113-.136-.09-.158-.113-.136-.113-.114-.115-.136-.113-.113-.135-.113-.113-.114-.113-.113-.137-.091-.113-.113-.137-.091-.137-.068-.113-.091-.135-.068-.137-.068-.135-.068-.137-.045-.158-.045-.137-.046-.137-.045-.158-.045-.137-.023-.158-.022-.137-.022-.158v-.611l.022-.16.022-.158.023-.158.022-.16.023-.135.022-.137.045-.137.023-.135.022-.137.022-.113.023-.137.022-.135.046-.113.022-.115.022-.135.023-.113.022-.113.023-.113.022-.113.022-.113.023-.115.023-.113.022-.113.022-.09.022-.113.023-.092.022-.113v-.09l.023-.092.022-.113.022-.09.023-.092.022-.09v-.069l.023-.09.022-.092.022-.158.045-.137.023-.158.022-.137.045-.158.022-.137.023-.135.022-.158.045-.137.023-.137.022-.137.022-.135.045-.137.023-.137.023-.135.022-.137.022-.113.023-.137.045-.113v-.09l.022-.113.022-.092.023-.09.022-.068v-.09l.023-.068.022-.045v-.113l.022-.047v-.068l.046-.158.045-.158.045-.137.045-.158.045-.158.068-.16.068-.135.068-.16.068-.158.091-.135.09-.137.091-.16.091-.135.09-.137.113-.137.113-.135.113-.137.113-.137.114-.113.136-.135.136-.137.136-.113.136-.113.136-.137.159-.113.159-.113.159-.113.158-.113.159-.113.181-.113.181-.113.181-.113.181-.113.182-.092.181-.09.204-.113.182-.092.204-.09.181-.068.204-.09.181-.068.204-.092.204-.068.182-.066.204-.068.204-.068.204-.045.204-.068.204-.045.204-.047.204-.045.204-.045.227-.023.204-.045.204-.021.227-.047.204-.021.227-.023.204-.021h.227l.226-.023h.658zm28.819 0h7.25l-2.878 14.152h17.877l-1.042 5.125h-25.127zm-2.515 5.125l1.043-5.125h-16.97l-1.11 5.125zm24.854 14.152l3.92-19.277h7.25l-2.899 14.152h17.898l-1.042 5.125z" clip-rule="evenodd"/><path fill="#fff" fill-rule="evenodd" d="M114.841 39.869l.861-4.24H97.236l.566-2.834h15.09l.86-4.242H98.663c.499-2.348.996-4.67 1.519-7.053H93.18l-3.738 18.369zM90.984 21.5l-.771 3.811-.091.43H71.159c-.091.023-.181.023-.249.045-.091 0-.181.023-.272.023-.408.092-.816.25-1.201.5-.385.248-.612.543-.68.861l-1.45 7.053c-.068.387.068.727.43 1.021.386.271.838.408 1.405.408h18.964l-.861 4.217H68.282c-2.311 0-4.191-.543-5.642-1.654-1.11-.861-1.699-1.838-1.767-2.971v-.363c.023-.205.045-.432.091-.635.294-1.498.543-2.676.725-3.561.158-.816.317-1.564.453-2.268.136-.704.227-1.111.249-1.248.317-1.564 1.428-2.902 3.331-3.992 1.88-1.111 3.988-1.654 6.298-1.654zm29.726 0h6.344l-2.877 14.129h17.876l-.861 4.24h-24.243zm-2.379 0h-16.063l-.929 4.24h16.132zm24.877 18.369l3.738-18.369h6.366l-2.877 14.129h17.876l-.86 4.24z" clip-rule="evenodd"/><path fill="#83570d" d="M42.277 43.104c1.143-1.219 2.953-1.444 4.538-1.558 1.622.073 3.366.166 4.758 1.097.297.27.695.484.685.94.379.066.565.362.672.703-.126-1.084.866-.61 1.524-.796.15-.486-.463.005-.684-.165-.193-.157-.431-.09-.657-.083-.206-.418-.235-.94.007-1.346 2.575-.016 5.157-.059 7.73.02 1.396.111 3.002 1.522 2.307 2.84.07-.263.092-1.894-.472-1.055-.974.039-1.951.176-2.923.084.435.828-.46 1.352-1.223 1.29-.58-.088-1.54.415-1.93-.172.942.104 3.331.52 2.98-1.172.366-.074.48-.19.114-.39-1.223.23-2.566-.288-3.82.076-.077.323.833-.008.73.461-1.093-.326-2.25-.118-3.366-.097-.03.376-.017.755-.052 1.13-.611-.12-.352-1.084-1.017-1.237-.326-.88-1.281-1.257-2.093-1.56-2.364-.528-5.055-.7-7.188.639-.483.152.39.83-.302.94-.864-.481-1.635 1.9-1.656.144-1.221-.293-2.462-.007-3.688-.198.79.906 1.187 2.547.03 3.309-.433.249.219.412.198.695-.77.165-1.573.114-2.335-.047-1.253.335-2.506-.07-3.764 0-.198.07-.633-.039-.535.293.557.117 1.183.04 1.644.43.217-.085.543-.267.612.085-.456.405-1.513-.077-1.647.513 1.555.007 3.113.025 4.67-.006.014-.464-.848-.327-.643-.89.835.807 1.962.138 2.918.013-.247.492-.774 1.054.325.621-.511-1.2 1.372-.053 1.542-.987-.503.092-1.015.122-1.522.03-1.218.58-.416-1.033.136-.392a5.185 5.185 0 0 0 1.842-.065c.373-.517.566-1.415 1.478-1.024 1.343.054.272.557-.278.684-.058-.23-.113-.461-.412-.367.089.676.725.757 1.268.889-.783 1.495 2.37.284 2.762.866-.213.434-1.337-.068-1.366.477.826.1 1.634.347 2.465.395.095-.574.82-.694.708.021.906-.155.015-.57-.193-1.01.486.341 2.034-.485 1.78.512-.482-.342-.696-.152-.868.384 1.289-.115 2.677-.351 3.663-1.265-1.34-.144-2.68.015-4.019.026-1.089-.2-2.204-.07-3.302-.043-.117-.745.78-.235 1.15-.496-1.257-.725-1.344-2.58-.285-3.524-.659-.271-2.344.406-2.247-.745.537.259 1.078.16 1.596-.052 1.213.054 2.496.267 3.7.158.398.46.937.082 1.39-.075.683.322 1.753-.461 1.755.705-.842.01-1.683.01-2.526 0 .955.848.293 2.092.75 3.123-.38.16-.88-.05-1.176.37 1.261-.24 2.9.706 3.975-.2-.513-.311-1.54.339-1.753-.43-.169-.3.307-.437.486-.234.63.482 1.395-.076 1.95-.356-.046.428.18.505.554.393.084.45-.515.537-.537.95.282.153.884-.144 1.049.275-.533.288-1.626.208-1.039 1.158.978.211 2.19-.04 3.278.08.51-1.414-.941-1.169-1.852-1.129-.58-.782 1.544-.148 1.98-.357.154.539.047 1.093-.017 1.638-1.16 0-2.32.05-3.476-.01-.228-.466-.363-1.268.335-1.282.073-.347-.716-.175-.41-.627.298-.717-.526-.589-.94-.433-.149.438.765.01.453.556-.615.393-.962 1.08-1.677 1.36-2.808.945-6.378 1.179-8.734-.81.144-.262.697-.701-.332-.41-.247-.21-.287-.668-.63-.726.018.478-.379.917-.915.77.549.516-.38.919-.858.818-.44.616-1.176.663-1.87.72-2.186.04-4.379.14-6.57.075-.467.035-.263-1.072.085-.585.33.366.878.058 1.313.067-.376-.708-1.865.127-1.655-.964.622.016.485-.105.006-.292-.002-1.787-.039-3.577.01-5.362 2.473-.178 5.028-.125 7.526.107.673.256 1.679.286 1.953 1.063.381.097.507.268.187.554.672-.628.757.98 1.15.288.166-.66 1.731-.198.737-.811M30.843 42.01c-.03.372-.014.746-.008 1.119.628-.165 1.276-.317 1.87-.001.665-.57 1.555.063 2.322-.18.652-.304.734.592 1.33.587-.111-.206-.285-.398-.25-.651.558-.211.999.735 1.483.217.572-.784 2.055.598 2.294-.323-2.8-1.365-6.052-.56-9.041-.768m22.379 0c-.464 1.448 1.262 1.196 2.12 1.026.442.216.853.235 1.256-.019.44.436.987.054 1.508.008.35.157.794.477 1.169.26.376-.528 1.017.607 1.013-.268.817.06 1.73.629 2.495.103-.583-.762-1.618-1.015-2.526-1.108-2.345-.02-4.692-.012-7.035-.002m-19.584 1.04c-.313.031-.658.015-.814.318.51.07 1.11-.096 1.517.293.004 1.274-.16 2.687.167 3.863.762-.195 1.622.232 2.218-.39 1.382-.495 1.372-2.301.482-3.207-.433-.272-.992-.197-1.424-.464-.537-.583-1.43-.342-2.146-.413m4.778-.005c-.305.041-.646.02-.808.31.757.014 2.267.809 2.422-.186-.544.232-1.07-.18-1.614-.124m-6.708.088c-.032.421.603.269.887.383.11-.469-.714-.303-.887-.383m4.703.029c.168.628.738-.203 0 0m6.736-.023c.075.851.831-.162 0 0m1.313.05c-.227.038-.46.095-.571.32.724-.258.899-.13 1.53.007.107-.498-.763-.221-.96-.328m1.737-.002c-.93.725-1.929 1.815-1.33 3.14.73 1.158 2.305 1.339 3.562 1.336-.346-.592.474-1.037.987-.903-.079-.952.296-2.08-.564-2.779-.444-.335.358-.22.36-.552-.598.234-1.15-.456-1.653.07-.391-.295-.889-.31-1.362-.312m3.503-.034c-.521.885 1.063.19 1.522.441-.135-.76-1.113.108-1.522-.441m10.685.115c-.206.716 1.283.526 1.523.137a41.482 41.482 0 0 0-1.523-.137m2.05.13c-.777.375.713.224 0 0m-31.599.248c.077 1.158.062 2.316.016 3.473.275.13.568.36.877.197.79-.386 1.768.345 2.48-.186.057-1.153-.04-2.345-.126-3.477a75.528 75.528 0 0 0-3.247-.007m2.683 3.796c.304.42.612-.288 0 0m15.597.025c-.355-.008-1.008.5.2.201 1.278.307.38-.708-.2-.201m-4.53.1c.302.42.61-.287 0 0m6.158.008c.08.171.587.171.67 0a.847.847 0 0 0-.67 0m-13.094.733c-.416.58.854-.115 0 0m6.055.014c.303.42.611-.288 0 0m3.882.009c-.156.259.418.353.45.114-.066-.17-.312-.231-.45-.114m-10.446.358c-.127.584.583-.126 0 0zM86.055 42.275c2.584-.946 5.715-1.046 8.15.363.394.292 1.013.653.765 1.225.569-.305.75 1.026.762.166.22-.492 1.166.12 1.242-.51-.41.164-.835.074-1.243-.042-.019-.53-.043-1.063-.005-1.592 1.709-.093 3.412.118 5.115.009.505 1.451 1.255 2.8 1.714 4.269.42-.684.531-1.57.981-2.262.84-.009 1.68-.017 2.523-.02-.547-.581-1.664.103-2.28-.27.08-.6.245-1.24.646-1.715 1.612-.012 3.232-.06 4.844.004.376.386.08 1.093.143 1.595-.5.182-1.178-.07-1.53.378.503.22 1.954-.494 1.54.646.121-.138-.16 1.401.136.88.209-1.652 1.507-3.016 3.138-3.382 2.49-.556 5.359-.674 7.537.873.695.33.567 1.137 1.226 1.446.153-.454.647-.287 1.037-.335.125-.43-.37-.118-.597-.135-.548-.417-.277-1.27-.263-1.838 1.437-.39 2.931.057 4.387-.13 1.811.022 3.973-.27 5.411 1.102.262.27.483.677.16.988.772.57-.224 1.603-.792 1.913-.27.305-1.167.034-.98.591.89.584 1.328 1.596 2.22 2.163.298-1.443-.2-3.005.032-4.489.425-.288.924.054 1.377-.17-.315-.459-1.228.096-1.353-.528.013-.553-.434-1.979.714-1.57 2.75.173 5.645-.452 8.297.491.584.21 1.056.652 1.138 1.294-1.232-2.086-4.018-1.526-6.073-1.61-1.286.003-2.578-.084-3.856.066-.027.49-.027.982 0 1.473.653-.149 1.215.305 1.851.203.706.878-1.448.262-1.845.47-.228 1.14-.005 2.323-.098 3.48.31.412 1.107-.05 1.249.494-.562-.103-1.583-.028-1.14.767.982.009 1.976.097 2.958-.009.91-.555-.57-2.782 1.045-2.496 1.08-.117 1.065 1.817 2.267 1.522.507-.062.026.357-.123.513.287.616.972.505 1.49.258.823.558 1.732-.28 2.53.235-.661-1.045-1.936-1.704-2.39-2.858.654-.175 1.233-.52 1.84-.809-.012 1.742 1.394 3.253 3.09 3.515.464.127.989.071 1.405.35-2.125.099-4.588-1.277-4.609-3.612-.481.253-.975.475-1.48.666.547.967 1.645 1.678 2.251 2.628.172.581-.75.218-.993.005-.504.407-1.269.21-1.714.042-1.175.863-1.58-.641-2.329-1.17-.55-.476-.756-1.53-1.714-1.134-.553.657.33 1.915-.442 2.477-2.372.044-4.746.028-7.116.013-.84-.71-1.384-1.726-2.187-2.486-2.037-.7.059 2.865-1.6 2.5-.93-.248-2.346.525-2.984-.42l.066-.209c.322.1.453.651.832.46.087-.437.586-.435.385.05.73-.002 1.465.028 2.198-.026.021-.82-.187-1.711.16-2.49 1.173-.402 1.711.822 2.398 1.477.407.002.822-.076 1.232-.096-.007.54-.689.247-1.021.382.07.302.367.48.577.687 1.195.065 2.394-.015 3.593.047-.374-1.333-2.031-.383-2.93-.883.411-.551 1.304-.11 1.925-.258-.16-.777-1.464-.904-1.257-1.81.852-.177 1.857-.597 1.998-1.556.198-.45-.737-.1-.433-.46.843-.868-.661-1.493-1.354-1.784-1.725-.277-3.5-.284-5.245-.192-.966.011-1.957-.241-2.893.076.076.433-.37 1.586.446 1.428.715.292 1.657-.469 1.914.558-.785.014-1.567-.065-2.347 0-.355.288.08.965-.342 1.152.093-.424-.073-.836-.348-1.154-.683-.054-1.484.253-2.102-.162-.153-.393.377-.68.616-.342.236.327.675.162 1.017.2.113-.745-.81-.95-1.281-1.32-1.597-.757-3.465-.75-5.192-.61-1.247.133-2.628.457-3.479 1.452.573.461 1.22.055 1.851.076.571.032 1.174.938 1.557.188 1.27-.39 2.676-.056 3.989-.21.639.175.054.586-.338.602.587 1.197.459 3.09-1.138 3.378 1.135-.513 1.774-1.96 1.023-3.035-.463-.41 1.059-1.045-.38-.743-1.128.086-2.636-.469-3.485.557-.818.697-.633 2.031.05 2.75.74.635 1.79.43 2.694.5-1 .348-2.224.184-2.994-.563-.553-.812-.49-1.858-.076-2.722-.982-.246-1.919.098-2.864-.253-.482-.058-.581.477-.674.831-.55 1.546.555 3.17 1.934 3.817 2.458 1.18 5.354.831 7.77-.157.953-.662 1.756-1.48 2.016-2.657.008.56.033 1.12.022 1.68-.038-.194-.11-.584-.147-.779-.306.838-1.073 1.267-1.694 1.831-.567.527-1.492.161-1.942.694-2.115.437-4.454.415-6.403-.615-.747-.5-1.544-1.146-1.677-2.097.274-.638-.716-1.133-.333-.042-.205.86.095 1.866-.086 2.681-1.054-.036-2.207.157-3.303.077-.122-1.441.186-3.273-.118-4.51-.683 1.402-1.298 3.054-2.049 4.511-.776-.269-2.873.697-2.848-.639.366.912 1.52.404 2.27.522.007-.299-.465-.187-.389-.491.391-.193.848.1 1.221-.164.193-.489-.358-.36-.723-.37-.187-.63.945.083 1.053-.414.445-1.211 1.095-2.342 1.472-3.578-.72-.016-1.437-.049-2.151-.007-.777.492-.529 2.09-1.248 2.51-.364-.853-.552-1.804-1.05-2.591-.728.097-1.666-.39-2.208.216.615 1.406 1.24 2.813 1.723 4.273-.825-1.059-.888-2.594-1.732-3.677-.196 1.462.01 2.945-.162 4.412-1.11-.065-2.295.193-3.364-.146-.012-.842-.02-1.683-.028-2.524-.583.891-1.25 1.884-2.35 2.202-2.56.886-5.652 1.027-8.035-.443-1.478-.923-2.083-3.17-.89-4.58-.656.475-.63-.662-1.101-.088-.246.131-.541-.081-.806-.08-.042 1.843.029 3.69-.02 5.534-1.157-.168-2.573.337-3.623-.15.123-1.62-.037-3.241-.01-4.868.008-.462.905.015.755-.51-.845-.1-1.729.316-2.492-.2-.891.839-1.332-.655-1.026-1.428 3.052-.004 6.106-.02 9.158.006-.393 1.041.409.723.791.385m-.434.448c-.463.178-.7-.146-.483-.71-2.972-.016-5.944-.013-8.915-.002.047.367.09.733.019 1.1.416.318.927-.175 1.328.194.6.48 1.348-.17 2.002.026.44.232.972.053 1.437.28.699-.746 2.21-.272 3.166-.196 1.154-.155 2.403-.079 3.581.024.381-.299.912-.2 1.31.027-.304.012-.617-.115-.905.031-.807.372-1.709-.35-2.51.038.61.664 1.758.065 2.543.235-.356.702-1.014 1.343-.775 2.246.647 2.088 4.428 1.871 4.705-.32.42-.877-.568-1.29-.742-2.022-.722-.216-1.484-.155-2.222-.206.808-.234 1.608-.107 2.32.008.24.424.451.859.766 1.25.357 1.22-.454 2.746-1.816 2.824.154.573 1.248-.308 1.008.484a8.73 8.73 0 0 1-2.008-.122c-.38-.023.513-.927-.578-.445-1.712-.167-2.053-2.482-.917-3.575-1.103.263-2.237-.2-3.317-.036-.6.238-.323.912-.678 1.336.067.923.336 2.872 1.721 2.479 1.431-.493.075.793-.287.415.383.251.881.61 1.351.537.274-.448.295.067.477.261 2.22.592 4.663.325 6.717-.625-.019-.354.147-.525.502-.523.512-.058.461-.685.87-.878.4-.144-.12-.974.425-.83.514.116-.404 2.454.497 1.641.32.344-.042.415-.365.394-.365 1.797 2.173.695 3.131.976.004-1.021.057-2.045-.044-3.062-.37-.172.028-.453.058-.703.196-.527-.166-1.07-.001-1.612.752-.094 1.499-.288 2.26-.171a7.99 7.99 0 0 0-.54-1.468c-1.615.181-3.243-.143-4.868-.01l.005 1.225c.5.533 1.064-.144 1.612.179.418.19 1.228-.235 1.28.462a1.842 1.842 0 0 1-1.622-.213c-.231.752-1.81-.263-1.305 1.134-.33-.43-.625-.952-1.18-.98-.794.478-1.816-.058-2.704.188.2-1.026 1.127-.517 1.816-.708.42-.155.674.494 1.084.2-.535-.821-1.52-1.15-2.396-1.475-2.247-.404-4.778-.462-6.813.698m19.326-.658c-.813-.05-.819.899-1.039 1.457.578.04 1.152-.102 1.73-.118.309.106.736.441.971.035.59-.62.745.35.344.378-.264.186-.852.148-.8.575-.073 1.555.137 3.105 0 4.654.928.048 1.856-.215 2.781-.027.56.102.45-.765.115-.999.554-1.01.118-2.264.251-3.375.43-1.338-1.485-.082-1.755-.865.493-.404 1.166-.246 1.745-.415-.051-.528.322-1.746-.747-1.364-1.202.006-2.4.024-3.596.064M81.384 43.39c-.022 1.143 1.874-.57 0 0m11.187.127c.09.621 1.334.232 1.778.37-.11-.78-1.292-.195-1.778-.37m-10.263.176c-.963.616-2.342-.18-3.302.35.122 1.15.01 2.307.14 3.46.207.342.656-.042.976.028.085.318-.057.454-.373.386-1.041-.514-.458.673-.628.997 1.093.02 2.187.015 3.282-.003.05-.506-.655-.287-.894-.254-.183-.578.551-.305.87-.38-.027-1.475.112-3.37-.071-4.584m15.34-.024c.304.42.61-.288 0 0m14.204-.018c-.752.373.615.173 0 0m.32-.012c.096.305.405.263.666.252-.098-.305-.409-.263-.667-.252m11.115.018c-.28.231-.379.464.097.36.534.085.34-.563-.097-.36m-4.135.134c.169.63.738-.202 0 0z"/><path fill="#83570d" d="M142.31 43.805c1.218-1.62 3.452-2.134 5.386-2.129 1.781.01 3.698.307 5.123 1.462-.114-.371-.335-.72-.265-1.132 1.152.083 2.347-.312 3.486.026.138.664.524 1.283.545 1.97.144.258-1.229-.222-.793.18.3.207 1.233-.237 1.02.482-1.113-.678-2.818-.053-4.132-.27-.548.134-.586-1.147.253-.507 1.123.35 2.341.001 3.513-.014-.14-.585-.36-1.15-.533-1.723-1.088-.27-2.21.31-3.252-.006-.022.376.674 1.269.17 1.217-2.688-1.99-6.7-2.11-9.538-.315-.37.216-.61.593-.832.948.449-.028.913-.044 1.365-.063.075-.556.755-.001.84.306-1.893.217-3.79.035-5.658.051-.41 1.362-2.248.782-3.272.97-.362-.496-.13-1.258-.143-1.865.705.017 1.45-.11 2.142.092a67.75 67.75 0 0 0-2.027.045c.115.43-.393 1.74.454 1.57 1.194-.006 2.626.101 3.045-1.316-.483.173-.957-.042-1.376-.273.857.03 1.697.24 2.535.377.609-.357 1.47.362 1.944-.083m-2.678.125c-.158.259.417.353.45.114-.067-.17-.313-.231-.45-.114m.832-.043c.138.392.599.233.918.254-.206-.245-.616-.229-.918-.254m12.007.147c.052.612.65-.207 0 0m1.438-.01c.18.428.798.287 1.06.003-.356-.02-.71-.02-1.06-.003zM.451 41.812c2.6-.051 5.24-.221 7.823.135.505.236 1.675.237 1.561 1.048-.857.138-1.696.067-2.533-.113.583 1.19 2.943-.535 3.189.88.417-1.099 2.084.164 2.375-.749-.556-.148-1.08.127-1.622.108-.389-.395.323-.847.513-1.206 1.217-.283 2.488-.142 3.727-.152.54.127.78.733.884 1.225-.67.458-1.384-.506-1.783.388.713.028 1.43-.022 2.141.026.601 1.136 1.307 2.209 1.987 3.298.242.31-.025 1 .538.839a17.81 17.81 0 0 1-.027-4.066c1.668-.195 3.463-.046 5.18-.078.8.736 1.535 1.651 2.168 2.494.266-.404-.211-1.597-.014-2.242.11-.579 1.052.038 1.288-.492l-1.285-.033c.275-.314-.333-1.561.458-1.317.874.052 1.77-.088 2.644-.014.638.077.106.97.29 1.336-.511.002-1.02.007-1.53.017.448.577 1.85-.369 1.53.874-.261 1.065.514 2.72-.326 3.483 1.038.75-.833.737-1.409.685-.573.559.683.354 1.046.447.159-.554 1.014.125.532.396a57.795 57.795 0 0 1-3.705-.007 1.297 1.297 0 0 1-.434-.592c-.14-.367-.823-.449-.674-.915-.825-.486-1.714-1.409-2.246-2.333-.752-.248.241 1.112-.504 1.265.479.545.198 1.683.148 2.446-1.91.368-3.936.045-5.886.158-.641.135-.502-.728-.91-.993a66.8 66.8 0 0 0-3.822.002c-.074.385-.32.69-.59.959-1.203.049-2.421.093-3.612-.122.35-.88.97-1.614 1.505-2.383.153-.396-.435-.255-.573-.052-1.611.333-3.291.023-4.92.215-.305.712.247 1.704-.144 2.261-1.12-.041-2.295.243-3.388-.051-.015-.735-.06-1.474-.001-2.207.239-.27.917-.06.869-.53-.283-.02-.678.29-.865-.029-.024-.9-.06-1.805-.002-2.706.473-.489 1.625.166 1.995-.275-.483-.235-1.366-.13-2.007-.28.019-.399-.214-1.12.421-1.048m13.563.084c-.426.17.446.96-.614.44-.62-.045-1.975-.341-2.064.666.446-.058.901-.283 1.344-.191.627.43 1.352-.286 2.018.138.454-.53.926.35 1.408-.09.182-.614-1.301-.183-.868-.729.518-.57-.999-.118-1.224-.234M.303 42.02c-.12.225-.176.476-.157.731.58-.334 1.076.304 1.654.046 2.633-.146 5.293-.035 7.916.094-.011-.352-.454-.39-.687-.572-1.571-.401-3.605-.644-4.945.046-.201-.598-1.576-.655-1.58 0-.559.058-1.122.013-1.682.004.026-.354-.216-.43-.52-.35m26.546-.022c.173.362-.28.62-.166.993.5.022.998.102 1.5.12.73-.524 2.153.448 1.642-1.094-.992-.043-1.985-.001-2.976-.019m-24.567.888c-.036.666.953.231 1.262.39.083.528-.268 1.109.042 1.581.382.613 1.272.161 1.847.288.68.05 1.784-.275 1.476-1.212-.173-.305-1.266-.964.025-.684l.005-.221c-1.549-.245-3.113.085-4.657-.142m11.604.065c-.278.07-.57.133-.815.288.281-.146 1.077.453 1.217-.053.196-.259-.242-.2-.402-.235m-6.659.268c-.45.104-.627.272-.2.591.497 1.285-1.045 1.57-1.921 1.514-.245.306-.975.587-.977-.005-.785-.06-.892-.904-1.832-.693-.222-.669.693-.128.97-.248.341-.2.003-.73.155-.984-1.085.107-2.208-.057-3.26.148-.103.831.167 1.668-.008 2.49.512-.199 1.13.084 1.265.612-.421.108-1.281-.262-1.275.384.717.028 1.435-.008 2.152.015-.022.996-1.51.326-2.138.386.035.451-.006.914.143 1.35.727.06 1.46.018 2.188-.003.006-.554.59-.398.948-.357-.605-.52.621-1.194-.774-.9-.244-.82 1.281-.082.782-1.117.475.047 1.075.318.742-.391.758.735 1.945.633 2.855.343.594.367 1.27.029 1.784-.32.814.088-.155.872.37 1.147.119.561-.83.023-.746.576.744-.1.16.814-.395.439.362.282.236.855.86.614-.26-.527.66-1.138 1.089-.936.273.404-.556.472-.542.908.844.465 1.977.118 2.176-.842 1.355-.07 2.718-.02 4.075-.007.464.328.269 1.37 1.163.995.81.192 1.507-.146 2.14-.51.625-.174-.176.526.117.51 1.363.542.033-.892.77-1.009.3.09 1.046-.034.816.458-.28.624 1.368.85.614-.158.044-.619 1.292.206.944-.666-1.68.07-3.342.07-5.025.114-.336.366-1.06-.232-.601-.488.662-.068 1.329.133 1.991-.03-.363-1.262-1.456-2.232-1.936-3.474-1.259-.277-2.555-.094-3.829-.22-.822.065-1.916-.256-2.398.565-.324-1.432-2.315-.163-3.252-.801m21.259.235c-.79.156-2.289-.324-1.803 1.065-.569.755 1.036 1.094.183 1.316-.227 1.012-.742-.434-1.061-.687-.747-.669-1.255-1.974-2.467-1.6-1.31.088-2.613-.03-3.926.02-.455.543.015 1.54-.15 2.211-.584 1.575 1.137-.333.994.616.041.698-1.048.1-.996.751 1.007.106 2.014.142 3.02-.002.21-.696-1.21-.187-1.007-.995.292-.076.49.31.77.16.737-.08.027-.974.203-1.374-.533.38-1.007-.646-.34-.547.881.275 1.194 1.323 1.915 1.874.261.054.662-.272.78.106.444-.173 1.008-.077.828.534-.282-.211-1.4-.064-.748.257 1.696.057 3.465.088 5.14-.02-.198-1.184.166-2.396-.001-3.602-.444-.034-.89-.117-1.334-.083m-10.433 3.863c.303.42.61-.288 0 0m9.414-.015c-.39.35.776.464.997.15-.33-.05-.657-.189-.997-.15m-2.327.377c.294.49.822.266 1.265.25.45.344-.224.62-.62.385.396 1.224 2.12.365 3.037.603.184-.602-.99.137-.884-.381-.217-1.096 2.235-.193 1.735-.857-1.51.1-3.02-.053-4.533 0m-4.835.52c-.088.531.655-.263 0 0m1.765.14c-.333-.069-.447.635-.078.412.334.067.448-.637.078-.413m-1.766.237c-.686.225.36.464 0 0z"/><path fill="#83570d" d="M19.143 41.76c1.287-.004 2.577-.04 3.862.018.314.317.605.66.868 1.021.204.41-.38.076-.588.098-1.256.47-2.673.014-3.998.23-.197-.426-.154-.911-.144-1.368m.123.126c0 .369-.18 1.076.373.99.352-.117.703-.142 1.008.1.96-.382 1.938.047 2.916-.232-.733-1.666-2.923-.567-4.297-.858z"/><path fill="#e0a015" d="M42.897 42.753c2.133-1.34 4.824-1.167 7.188-.639.812.303 1.767.68 2.093 1.56.665.153.406 1.117 1.017 1.237.035-.375.022-.754.052-1.13 1.115-.021 2.273-.229 3.366.097-.009.342-.01.683-.004 1.025.39.587 1.35.084 1.93.172.762.062 1.658-.462 1.223-1.29.972.092 1.949-.045 2.923-.084.564-.839.542.792.472 1.055l-.034.098c-.438.427-.87.91-1.498 1.035-.58.082-.606.748-.88 1.158.477-.1.94-.36 1.184.248-.343.56-1.202-.247-1.33.472 1.802.178 3.64-.012 5.425.166.206.57-.427.237-.738.238.054.379.694 1.168-.371.717-1.685.072-3.382-.274-5.045.053.02-.287.691.001.47-.367-.158-.381-.533-.283-.655.065-.46-.72-2.054-1.388-1.42-2.34-.621.09-1.258.001-1.873.136-.342.254.184.545.265.82l-.052.145c-.435.21-2.56-.425-1.979.357.91-.04 2.363-.285 1.852 1.128-1.089-.12-2.3.132-3.278-.079-.587-.95.506-.87 1.039-1.158-.165-.419-.767-.122-1.049-.274.022-.414.621-.5.537-.95-.373.111-.6.034-.554-.394-.555.28-1.32.838-1.95.356-.18-.203-.655-.066-.486.235.212.768 1.24.118 1.753.43-1.075.905-2.714-.04-3.975.2.295-.42.796-.212 1.176-.371-.457-1.031.205-2.275-.75-3.123.843.01 1.684.01 2.526 0-.002-1.166-1.072-.383-1.755-.705-.453.157-.992.534-1.39.075-1.204.109-2.487-.104-3.7-.158-.518.211-1.059.31-1.596.052-.097 1.151 1.588.474 2.247.745-1.059.943-.972 2.8.286 3.524-.37.261-1.268-.25-1.151.496 1.098-.027 2.213-.157 3.302.043 1.34-.011 2.68-.17 4.019-.026-.986.914-2.374 1.15-3.663 1.265.172-.536.386-.726.869-.384.253-.997-1.295-.17-1.78-.513.207.44 1.098.856.192 1.011.113-.715-.613-.595-.708-.021-.831-.048-1.639-.296-2.465-.395.03-.545 1.153-.043 1.366-.477-.391-.582-3.545.63-2.762-.866-.543-.132-1.18-.213-1.268-.89.299-.093.354.138.412.368.55-.127 1.62-.63.278-.684-.912-.391-1.105.507-1.478 1.024a5.185 5.185 0 0 1-1.842.065c-.552-.641-1.354.972-.136.392.507.092 1.019.062 1.522-.03-.17.934-2.053-.214-1.542.987-1.099.433-.572-.13-.325-.62-.956.124-2.083.793-2.918-.015-.205.564.657.427.643.89-1.557.032-3.115.014-4.67.007.134-.59 1.19-.108 1.647-.513-.07-.352-.395-.17-.612-.086-.46-.388-1.087-.312-1.644-.429-.098-.332.337-.223.535-.293 1.258-.07 2.51.335 3.764 0 .762.161 1.566.212 2.335.047.02-.283-.63-.446-.198-.695 1.157-.762.76-2.403-.03-3.309 1.226.191 2.467-.095 3.688.198.021 1.755.792-.625 1.656-.144.693-.11-.181-.788.302-.94m1.305-.452c-.276.018-.335.222-.293.467.304.116.777-.663.293-.467m-.138 1.864c-.565.712.802.09 0 0m6.502.107c.075.851.831-.162 0 0m-10.152.408c-.019.612.667-.16 0 0m.774-.008c.186.662.792-.292 0 0m1.87-.014c-.314.279.07.706.326.34.336-.214-.089-.433-.326-.34m8.524.115c-.128.368.283.236.5.247.127-.367-.284-.235-.5-.247m9.682 0c-.118.967 1.106-.269 0 0m1.157.027c-.019.666.73-.253 0 0m-19.013.476c-.128.368.283.236.5.247.128-.367-.283-.235-.5-.247m-.104.883c-.147.178-.196.409-.25.626.138.529 1.873.232 1.087-.314-.365.15-.516-.307-.837-.312m15.345.263c-.601.822 1.036-.08 0 0m-20.268.1c-.162.832.85.076 0 0m.905.03c-.358.129.087.531.266.275.215-.125-.117-.379-.266-.274m.5.007c-.018.667.73-.252 0 0m15.219.017c-.433-.015-.285.566.089.456.426.008.147-.485-.09-.456m4.276-.02c-.253.73.666-.018 0 0m-18.745.12c-.127.584.584-.125 0 0m2.793.65c-.567.121-.245.666.225.388 1.254.39.314-.995-.225-.388m16.578.102c-.207.128-.232.483.097.364.438.134.31-.628-.097-.364m-26.139.658c-.291.075-.64.5-.16.582.59.216.927-.968.16-.582m.833-.042c-.122.316.266.717.489.346.17-.405-.19-.386-.49-.346m11.703.125a3.93 3.93 0 0 0 .002.502c.565.143.672-.809-.002-.502m8.944.011c-.2.142-.259.633.11.49.26.058.125-.546-.11-.49m7.403-.012c-.139.92.92-.137 0 0m.75.12c-.093.34.168.6.507.508.09-.34-.168-.6-.508-.508zM85.621 42.723c2.035-1.16 4.566-1.102 6.813-.698.877.324 1.861.654 2.396 1.475-.41.294-.664-.355-1.084-.2-.69.19-1.616-.318-1.816.708.888-.246 1.91.29 2.705-.189.554.029.848.55 1.18.98-.506-1.396 1.073-.381 1.304-1.133.474.32 1.074.4 1.623.213-.053-.697-.863-.271-1.28-.462-.549-.323-1.113.354-1.613-.179 0-.307-.003-.92-.005-1.225 1.625-.133 3.253.191 4.868.01.231.468.405.964.54 1.468-.761-.117-1.508.077-2.26.17-.165.543.197 1.086.001 1.613-.03.25-.429.53-.058.703.1 1.017.048 2.04.044 3.062-.958-.28-3.496.82-3.13-.976.322.021.684-.05.364-.394-.9.813.017-1.525-.497-1.642-.544-.143-.025.687-.425.831-.409.193-.358.82-.87.878-.355-.002-.52.169-.502.523-2.054.95-4.498 1.217-6.717.625-.182-.194-.203-.71-.477-.261-.47.072-.968-.286-1.351-.537.362.378 1.718-.908.287-.415-1.385.393-1.654-1.556-1.721-2.479.355-.424.078-1.098.678-1.336 1.08-.164 2.214.299 3.317.036-1.136 1.093-.795 3.408.917 3.575 1.091-.482.198.422.578.445a8.73 8.73 0 0 0 2.008.122c.24-.792-.854.09-1.008-.484 1.362-.078 2.173-1.603 1.816-2.824-.315-.391-.526-.826-.766-1.25-.712-.115-1.512-.242-2.32-.008l-.093-.002c-.399-.228-.93-.326-1.31-.027-1.179-.103-2.428-.18-3.582-.024-.956-.076-2.467-.55-3.166.195-.465-.226-.997-.047-1.437-.279-.654-.196-1.401.454-2.002-.026-.401-.369-.912.124-1.328-.194.07-.367.028-.733-.019-1.1 2.971-.011 5.943-.014 8.915.001-.217.565.02.89.483.71m7.608 1.684c-.572.73.993.157 0 0m-7.166 2.269c-.483.281.372.846.586.459.088-.3-.354-.462-.586-.46m7.056 0c.053.613.65-.207 0 0m3.23.228c-.16.917 1.04-.104 0 0m1.526.056c-.026.682.723-.02 0 0m-10.037.623c-.248.063-.54.062-.689.302.463.105.933.174 1.403.025.056-.354-.469-.342-.714-.327m4.864.08c-.196.602.544.337.893.374.039-.459-.592-.479-.893-.374m4.38.134c.099.287.392.264.645.247.13-.422-.41-.21-.645-.247m.816.011c.053.613.65-.207 0 0m-10.364.617c.108.894 1.002-.29 0 0m2.293.015c-.127.583.584-.126 0 0m.51.009c-.02.666.729-.253 0 0m5.76-.024c-.128.39.157.437.474.354.437-.376-.158-.424-.474-.354m1.022.02c-.438.518.695.247 0 0m.888-.008c-.207.128-.234.483.097.364.438.134.31-.628-.097-.364m-9.077.237c-.139.92.919-.137 0 0zM114.142 41.92c1.727-.14 3.595-.146 5.192.611.471.37 1.394.575 1.281 1.32-.342-.038-.78.127-1.017-.2-.24-.337-.769-.05-.616.342.618.415 1.42.108 2.102.162.275.318.441.73.348 1.154.423-.187-.013-.864.342-1.152.78-.065 1.562.014 2.347 0-.257-1.027-1.199-.266-1.914-.558-.816.158-.37-.995-.446-1.428.936-.317 1.927-.065 2.893-.076 1.744-.092 3.52-.085 5.245.192.693.291 2.197.916 1.354 1.784-.304.36.631.01.433.46-.141.96-1.146 1.38-1.998 1.557-.207.905 1.096 1.032 1.257 1.809-.621.147-1.514-.293-1.925.258.899.5 2.556-.45 2.93.883-1.199-.062-2.398.018-3.593-.047-.21-.207-.507-.385-.577-.687.332-.135 1.014.159 1.021-.382-.41.02-.825.098-1.232.096-.687-.655-1.225-1.879-2.398-1.477-.347.779-.139 1.67-.16 2.49-.733.054-1.469.024-2.198.025.201-.484-.298-.486-.385-.05-.38.192-.51-.36-.832-.459l.022-.255c.485-.176.995-.171 1.506-.16-.062-.53-1.074-.092-1.507-.315 0-.102.001-.304.003-.405.011-.56-.014-1.12-.022-1.68-.26 1.178-1.063 1.995-2.017 2.657-2.415.988-5.311 1.338-7.77.157-1.378-.648-2.483-2.271-1.933-3.817.093-.354.192-.889.674-.83.945.35 1.882.006 2.864.252-.414.864-.477 1.91.076 2.722.77.747 1.994.91 2.994.563l.098-.03c1.597-.286 1.725-2.18 1.138-3.377.392-.016.977-.427.338-.602-1.313.154-2.719-.18-3.989.21-.383.75-.986-.156-1.557-.188-.63-.021-1.278.385-1.85-.076.85-.995 2.231-1.32 3.478-1.453m11.063 1.54c-.318.186-.945.17-.935.648.652-.001.84.443.906 1.018.93.235 1.895.008 2.824-.139.33-.236.45-.696.33-1.076.377.1.438-.352.074-.381-1.06-.12-2.14-.244-3.2-.07m3.838.05c-.398 1.15 1.113.434 1.645.625-.014-.487-.64-.536-.998-.39-.184-.145-.369-.31-.647-.235m-10.669 3.316c-.345.213-.117.899.33.698.435-.329-.38-.487-.33-.698m1.904-.013c-.112.768.762-.201 0 0m-8.815.376c-.02.667.73-.253 0 0m1.26.639c-.157.259.417.353.45.114-.065-.17-.313-.231-.45-.114m2.604-.044c-.006.406 1.043.792 1.011.16-.336-.065-.669-.154-1.01-.16m1.768.136c-.127.407.395.21.627.241.124-.407-.398-.21-.627-.241m1.635-.003c-.128.367.283.235.5.247.126-.368-.285-.236-.5-.247m4.797.018c-.127.583.584-.126 0 0m.635.009c-.02.666.73-.253 0 0m-9.076.73c.108.272.7.068.998.116-.109-.272-.7-.068-.998-.116zM14.014 41.896c.225.116 1.742-.337 1.224.234-.433.546 1.05.115.868.728-.482.44-.954-.44-1.408.09-.666-.423-1.39.293-2.018-.137-.443-.092-.898.133-1.344.19.089-1.006 1.444-.71 2.064-.666 1.06.52.188-.269.614-.439zM19.266 41.885c1.374.29 3.564-.808 4.297.858-.978.279-1.955-.15-2.916.231-.305-.241-.656-.216-1.008-.1-.552.087-.374-.62-.373-.989z"/><path fill="#83570d" d="M66.074 41.893c1.405-.01 2.815-.053 4.22.002.23.48.628.92.655 1.469-.193.061-.612-.084-.503.255.833-.277 1.158.556 1.401 1.136.879 1.366 1.784 2.786 2.38 4.283-1.248.013-2.496.035-3.74-.018-.434-1.576-2.367-.893-3.613-.907-1.025-.547-.78 1.454-1.835.936-1.716-.011-3.434.016-5.15-.01-.844-.687-1.648-1.515-2.18-2.474-.327-.178-1.247-.251-1.046.3-.015.101.201.54-.006.39-.08-.275-.607-.566-.265-.82.615-.135 1.252-.046 1.873-.136-.634.952.96 1.62 1.42 2.34.122-.348.497-.446.655-.065.221.368-.45.08-.47.367 1.663-.327 3.36.019 5.045-.053 1.065.451.425-.338.37-.717.312-.001.945.332.739-.238-1.786-.178-3.623.012-5.425-.166.128-.719.987.087 1.33-.472-.245-.608-.707-.349-1.184-.248.274-.41.3-1.076.88-1.158.629-.125 1.06-.608 1.498-1.035-.174.75-.981 1.073-1.651 1.254-.293-.004-.27.422-.04.506.47.285.794.725 1.11 1.16.525-.058.238-.72.655-.94.87-1.72 1.938-3.274 2.877-4.941m.126.127c-1.1 1.77-2.12 3.666-3.183 5.37 1.772.364 3.478-.055 5.245.176-.074.547 1.061.59.957-.016 1.269.158 2.919-.372 3.997.219-.994.57-2.01-.17-3.041.17.15.316.296.635.43.959.337.096 1.447.039.875-.274-.221-.742 1.447-.343.602.3.316-.338 2.487.404 1.645-.393-.55-1.634-1.733-3.014-2.491-4.545-.582.23-1.431-.694-.55-.76.046-.453-.35-.804-.516-1.208a87.043 87.043 0 0 0-3.97.002z"/><path fill="#e0a015" d="M143.293 43.046c2.837-1.795 6.85-1.675 9.538.315.504.052-.192-.84-.17-1.217 1.043.316 2.164-.264 3.252.006.174.574.394 1.138.533 1.723-1.172.015-2.39.365-3.513.014-.839-.64-.801.641-.253.507 1.314.217 3.02-.408 4.132.27l.03.096c.242.628.31 1.554.624 2.008.492-.621.54-1.603.93-2.344 1.307-.05 2.626.001 3.928-.12 1.345-.084.978 1.811 1.56 2.47.641-.5.35-1.963.996-2.482.455-.025 2.038.412 1.29-.31l-1.271-.095c.182-.591.4-1.174.655-1.738.463-.288.672.145.954.352.57-.544 1.418-.374 2.15-.36-.038.628-.382 1.199-.666 1.746-.483.052-1.607-.426-1.355.523.413-.15.81-.378 1.275-.128-.5 1.256-.946 2.552-1.495 3.79-.837.53-2.672-.547-3.188.452 1.014-.104 2.036.032 3.048-.099-.1.385-.323.934-.895.624-.996-.023-1.995.072-2.982-.033-.53-1.103-.79-2.355-1.378-3.411-.165-.097-.147-.29-.168-.453.05-.702-.45-.727-.399-.004l-.013.098c-.216.549-.471 1.083-.62 1.655l-.033.09c-.369.648-.515 1.391-.847 2.053-1.246-.16-2.634.173-3.763-.112-.467-.47.75-.685-.09-.8-.699-.572-.51-2.082-1.381-2.505-.01.191-.03.575-.038.766l-.012.102c-.535.631-1.109 2.135-2.09 1.54-.09.253-.131.522-.253.764l-.129.005c-1.173-.03-2.284.63-3.468.45-.055-.675-.973-.455-1.06.083l-.211-.09c-.416-.279-.94-.223-1.405-.35-1.696-.262-3.102-1.773-3.09-3.515-.607.288-1.186.634-1.84.809.454 1.154 1.729 1.813 2.39 2.858-.798-.514-1.707.323-2.53-.235-.518.247-1.203.358-1.49-.258.149-.156.63-.575.123-.513-1.202.295-1.188-1.639-2.267-1.522-1.616-.286-.134 1.94-1.045 2.496-.982.106-1.976.018-2.957.01-.444-.796.577-.871 1.139-.768-.142-.544-.94-.082-1.249-.494.093-1.157-.13-2.34.098-3.48.397-.208 2.55.408 1.845-.47-.636.102-1.198-.352-1.85-.203-.028-.49-.028-.982 0-1.473 1.277-.15 2.57-.063 3.855-.067 2.055.085 4.84-.475 6.073 1.611l.063.122c-.474.445-1.335-.274-1.944.083-.838-.137-1.678-.347-2.535-.377l-.096-.026c-.693-.203-1.437-.075-2.142-.092.013.607-.22 1.37.143 1.865 1.024-.188 2.862.392 3.272-.97 1.868-.016 3.765.166 5.657-.051-.084-.307-.764-.862-.839-.306-.452.019-.916.035-1.365.063.221-.355.461-.732.832-.948m2.471.923c-.27-.1-.446-.013-.494.275.513-.09.308.376.285.694l-.044.098c-.81 1.357 1.004 3.03 2.515 2.63 1.544.114 2.783-1.572 2.167-3.035-.093-.532 1.338.202 1.22-.592-.298-.317-.662-.304-.904.06-1.463-.759-3.248-.836-4.745-.13m-6.368 1.964c.303.42.61-.288 0 0m12.047 1.499c-.127.583.582-.126 0 0m.637.012c-.049.615.678-.276 0 0m11.315-.003c-.02.666.728-.253 0 0m-29.296.486c-.546.576 1.516.564 1.126.094-.345-.163-.768-.118-1.126-.094m4.986.118c-.02.54.577.225.894.354.197-.591-.598-.295-.894-.354m4.665 0c-.09.547.79.276 1.134.313.42-.032 1.449.422 1.254-.308-.796-.041-1.596-.008-2.388-.005m2.634 0c.076.85.831-.163 0 0m.795.014c-.48.37.684.638.826.204.249-.514-.797.016-.826-.204m1.344-.024c.078.79 1.284.2 1.768.388.825.753.878-1.097.047-.321-.614-.05-1.208.087-1.815-.067m9.716.015c-.526.466.45.46.737.368.042-.371-.48-.329-.737-.368m-.76.136c-.127.584.582-.126 0 0z"/><path fill="#83570d" d="M159.127 42.03c1.021.117 2.176-.381 3.141.074.3.577.551 1.231.596 1.889-1.426-.06-.14.256.22.315.536.57.402 1.526.874 2.114.326-1.407.864-2.76 1.345-4.122.066-.56.78-.255 1.172-.248.803.06 1.615-.13 2.429-.041-.838 2.378-1.74 4.75-2.733 7.07-1.226.207-2.619.06-3.904.071-.419-1.178-.997-2.316-1.245-3.547.587 1.056.849 2.308 1.378 3.411.987.105 1.986.01 2.982.033.572.31.794-.24.895-.624-1.012.13-2.034-.005-3.048.1.516-1 2.351.076 3.188-.453.55-1.238.994-2.534 1.495-3.79-.464-.25-.862-.022-1.275.128-.252-.95.872-.471 1.355-.523.284-.547.628-1.118.665-1.745-.731-.015-1.579-.185-2.149.36-.282-.208-.491-.64-.954-.353a14.754 14.754 0 0 0-.655 1.738l1.271.096c.748.721-.835.284-1.29.309-.646.52-.355 1.982-.996 2.482-.582-.659-.215-2.554-1.56-2.47-1.302.121-2.62.07-3.927.12-.39.74-.44 1.723-.93 2.344-.315-.454-.383-1.38-.626-2.008.468.324.313 1.21.727 1.5.244-.644.41-1.317.7-1.944.114-.224.938.051.825-.403-1.065.082-.127-1.344.034-1.883m.126.12c-.206.513-.496 1.024-.534 1.581.403.063.795.197 1.202.254.125-.434.519.053.794.026.59-.476 1.316.215 2.039-.14-.163-.586-.346-1.204-.667-1.723-.944-.063-1.893-.016-2.834.002m.871 1.902c-.019.61.667-.16 0 0m.882-.02c-.416.58.854-.115 0 0m4.406.034c-.104.34.41.125.552.033-.062-.183-.419-.13-.552-.033z"/><path fill="#e0a015" d="M.303 42.02c.303-.08.545-.005.519.35.56.008 1.123.053 1.681-.006.005-.654 1.38-.597 1.58.001 1.341-.69 3.375-.447 4.946-.046.233.182.676.22.687.572-2.623-.13-5.283-.24-7.916-.094-.578.258-1.075-.38-1.654-.046a1.346 1.346 0 0 1 .157-.731zM26.848 41.997c.99.018 1.984-.024 2.976.019.51 1.542-.913.57-1.642 1.094-.502-.018-1-.098-1.5-.12-.115-.373.34-.63.166-.993m2.505.292c-.048.615.679-.277 0 0zM30.843 42.01c2.989.21 6.242-.596 9.04.77-.238.92-1.72-.462-2.293.322-.484.518-.925-.428-1.482-.217-.036.253.138.445.249.651-.596.005-.678-.891-1.33-.587-.767.243-1.657-.39-2.322.18-.594-.316-1.242-.164-1.87.001-.006-.373-.021-.747.008-1.12m1.402.404c-.048.615.679-.276 0 0zM53.222 42.01c2.343-.01 4.69-.017 7.035.003.908.093 1.943.346 2.526 1.108-.766.526-1.678-.044-2.495-.103.004.875-.637-.26-1.013.268-.375.217-.819-.103-1.17-.26-.52.046-1.067.428-1.507-.008-.403.254-.814.235-1.256.019-.858.17-2.584.422-2.12-1.026m1.63.376c-.127.407.394.21.625.241.125-.407-.396-.21-.626-.241zM66.2 42.02a87.043 87.043 0 0 1 3.97-.002c.166.404.562.755.516 1.209-.881.065-.032.99.55.76.758 1.53 1.941 2.91 2.49 4.544.843.797-1.328.055-1.644.392.845-.642-.823-1.041-.602-.3.572.314-.538.37-.875.275-.134-.324-.28-.643-.43-.96 1.03-.339 2.047.402 3.041-.17-1.078-.59-2.728-.06-3.997-.218.104.606-1.031.563-.957.016-1.767-.231-3.473.188-5.245-.176 1.063-1.704 2.084-3.6 3.183-5.37m-.25 1.138c-.202.14-.336.34-.29.593.798-.017 1.604.214 2.393.035.346-.114.925.319 1.172-.109.372-.527-.671-.685-.96-.356-.506-.007-1.218-.427-1.618.066-.313.129-.39-.385-.697-.23m3.912.633l.103.015c.267.444.33-.696-.151-.544-.404-.174-.361.706.048.53m-1.781.243c-.275.205-.264.616-.546.806-.38-.046-1.243-.183-.698.272 1.225-.217.08.75.095 1.27.41.396 1.105.034 1.558.332.308.637 1.158.206 1.7.315.222-1.608-.565.5-1.26-.242-.156-.526.978.029.318-.829-.431-.576-.579-1.662-1.167-1.924M65.154 46.4c-.04.48 1.161 1.058 1.125.418-.47.072-.674-.47-1.125-.418m5.693.03c-.564.711.803.089 0 0m.754-.008c-.082.245-.293.792.172.718.244-.349.525-.932-.172-.718m-7.407.28c-.313-.054-.664.404-.166.338.392.242.579-.511.166-.338m.468.073c-.164.831.85.076 0 0m7.567.164c-.019.666.73-.253 0 0m.33 1.359c.227.182.459.425.78.378.065-.467-.478-.398-.78-.378zM104.947 42.065a126.63 126.63 0 0 1 3.596-.064c1.07-.382.696.836.747 1.364-.58.169-1.252.011-1.745.415.27.783 2.184-.473 1.755.865-.133 1.11.303 2.366-.251 3.375.334.234.445 1.1-.115.999-.925-.188-1.853.075-2.781.027.137-1.549-.073-3.1 0-4.654-.052-.427.536-.39.8-.575.4-.028.246-.998-.344-.378-.235.406-.662.07-.97-.035-.579.016-1.153.159-1.73.118.22-.558.225-1.507 1.038-1.457m3.365 2.6c-.127.584.584-.125 0 0m.132 2.398c-.02.667.73-.252 0 0zM159.253 42.15c.94-.018 1.89-.065 2.834-.002.32.52.504 1.137.667 1.723-.723.355-1.449-.336-2.039.14-.275.027-.669-.46-.794-.026-.407-.057-.799-.191-1.202-.254.038-.557.328-1.068.534-1.58z"/><path fill="#83570d" d="M29.353 42.289c.679-.277-.048.615 0 0zM44.202 42.301c.484-.196.011.583-.293.467-.042-.245.017-.45.293-.467zM32.245 42.414c.679-.276-.048.615 0 0zM54.851 42.387c.23.031.75-.166.626.241-.23-.031-.752.166-.626-.241z"/><path fill="#e0a015" d="M7.226 43.218c.937.638 2.928-.631 3.252.801.482-.821 1.576-.5 2.398-.566 1.274.127 2.57-.056 3.829.221.48 1.242 1.573 2.212 1.936 3.474-.662.163-1.329-.038-1.991.03-.458.256.265.854.6.488 1.684-.043 3.346-.043 5.026-.114.348.872-.9.047-.944.666.754 1.008-.894.782-.614.158.23-.492-.516-.368-.817-.458-.736.117.594 1.55-.77 1.009-.292.016.509-.684-.116-.51-.633.364-1.33.702-2.14.51-.894.375-.7-.667-1.163-.995-1.357-.014-2.72-.064-4.075.007-.2.96-1.332 1.307-2.176.842-.014-.436.815-.504.542-.908-.43-.202-1.35.409-1.09.936-.623.241-.497-.332-.86-.614.555.375 1.14-.54.396-.439-.083-.553.865-.015.746-.576-.525-.275.444-1.059-.37-1.147-.514.349-1.19.687-1.784.32-.91.29-2.097.392-2.855-.343.333.709-.267.438-.742.39.5 1.036-1.026.299-.782 1.119 1.395-.295.17.38.774.899-.358-.04-.942-.197-.948.357-.728.021-1.461.063-2.188.002-.15-.435-.108-.898-.143-1.349.627-.06 2.116.61 2.138-.386-.717-.023-1.435.013-2.152-.015-.006-.646.854-.276 1.275-.384-.134-.528-.753-.81-1.265-.612.175-.822-.095-1.659.009-2.49 1.051-.205 2.174-.041 3.26-.148-.153.254.185.784-.157.984-.276.12-1.19-.42-.97.248.941-.211 1.048.633 1.833.693.002.592.732.31.977.005.876.055 2.418-.229 1.92-1.514-.426-.32-.249-.487.201-.591m4.27.815c-.41.347.232.222.475.23.123-.357-.26-.245-.476-.23m.84-.001c.05.382.267.856.736.716.482-.317-.609-.503-.737-.716m1.183 0c-.157.764-.628 1.402-.928 2.11-.929.01-1.857.114-2.785.017.135.155.44.098.416.376.131.37.484-.232.72.006 1.14.246 2.325-.217 3.401.1.211-.096.417-.201.634-.284-.22-.755-.629-1.44-.918-2.168-.056-.262-.349-.164-.54-.156m1.995 1.01c-.126.583.583-.126 0 0m.632.37c-.54.7.928.213 0 0m-10.799.526c-.694.258.093.46.473.333.04-.269-.231-.47-.473-.333m10.941.133c-.439-.12-.65.68-.163.588.992.669.603-.775.163-.588m.989.097c-.056.178-.321.648.065.445.514-.091.524-.665-.065-.445m-14.708.127c-.459.424.278.574.589.341-.038-.32-.29-.439-.589-.34m8.3.804a3.545 3.545 0 0 1-1.571.087c.687.693 1.722.115 2.564.312.255-.105.88.412.996-.075-.592-.364-1.327-.277-1.99-.324m2.478.072c.137.695 1.06.426 1.52.195-.316-.477-1.08.073-1.52-.195m2.174-.002c-.599.759 1.15.047 0 0m3.245.746c-.137.92.92-.137 0 0m-16.951.391c-.601.823 1.037-.079 0 0m-1.264.13c-.126.583.583-.126 0 0z"/><path fill="#83570d" d="M65.95 43.158c.308-.156.384.358.697.229.4-.493 1.112-.073 1.619-.066.288-.33 1.331-.17.96.356-.248.428-.827-.005-1.173.11-.79.178-1.595-.053-2.394-.036-.045-.254.09-.454.29-.593m2.659.156c-.419.528-1.59-.458-1.674.303.708.188 1.434-.003 2.153 0-.137-.109-.273-.443-.48-.303m-2.665.118c.104.615.778-.161 0 0zM69.862 43.79c-.41.177-.452-.703-.048-.53.481-.151.418.99.15.545.255-.524-.626-.452-.102-.015z"/><path fill="#e0a015" d="M28.485 43.453c.444-.034.89.05 1.334.083.167 1.206-.197 2.418.001 3.602-1.675.108-3.444.077-5.14.02-.652-.321.466-.468.748-.257.18-.611-.384-.707-.829-.534-.117-.378-.518-.052-.78-.106-.72-.55-1.033-1.6-1.914-1.874-.667-.099-.193.927.34.547-.176.4.534 1.294-.202 1.374-.28.15-.48-.236-.77-.16-.205.808 1.216.3 1.006.995-1.006.144-2.013.108-3.02.002-.052-.651 1.037-.053.996-.75.143-.95-1.578.958-.994-.617.165-.671-.305-1.668.15-2.212 1.313-.049 2.616.07 3.926-.019 1.212-.374 1.72.931 2.467 1.6.32.253.834 1.699 1.061.687.853-.222-.752-.561-.183-1.316-.486-1.39 1.013-.909 1.803-1.065m-.273.71c-.126.583.583-.126 0 0m-5.185.363c-.066.312.351.51.553.288.331-.4-.304-.3-.553-.288m1.413.14c-.126.583.583-.126 0 0m3.753-.02c-.194.9.9-.193 0 0m-7.883.422c-.21-.04-.473.358-.168.334.309.161.59-.568.168-.334m4.993.328c-.14.416.183.43.509.376.044-.304-.253-.429-.509-.376m-4.423.136c.1.286.393.264.645.246.132-.421-.41-.209-.645-.246m7.106.675c-.29.19-.613.15-.93.072-.069 1.035 1.225.328 1.773.627.052-.415-.422-.918-.843-.699m-1.894.113c-.342-.033-.449.6-.04.468.52.264.545-.782.04-.468m3.126.232c-.126.583.583-.126 0 0z"/><path fill="#83570d" d="M125.205 43.46c1.059-.174 2.139-.05 3.199.07.364.029.303.481-.073.38.12.38 0 .84-.33 1.077-.93.147-1.895.374-2.825.139-.067-.575-.254-1.019-.906-1.018-.01-.479.617-.462.935-.649m.125.126c-.255.164-.66.125-.818.403.608.025.703.51.783 1.02.878-.128 2.762.483 2.95-.842-.473-1.049-2.044-.544-2.915-.58zM129.042 43.51c.278-.076.463.09.647.235.358-.146.984-.097.998.39-.532-.191-2.043.525-1.645-.625m.796.416c.03.177.51.177.541 0a.565.565 0 0 0-.54 0zM145.764 43.969c1.497-.706 3.282-.629 4.745.13.242-.364.606-.377.905-.06.117.794-1.314.06-1.221.592.616 1.463-.623 3.15-2.167 3.035-1.511.4-3.326-1.273-2.515-2.63-.67 2.62 3.583 3.467 4.516 1.233.35-.73-.028-1.467-.062-2.205-1.19-.515-2.56-.577-3.776-.117-.386.186-.434.658-.634.991.023-.318.228-.784-.285-.694.048-.288.224-.376.494-.275m5.056.076c-.02.667.728-.252 0 0z"/><path fill="#e0a015" d="M30.835 43.646a75.528 75.528 0 0 1 3.247.007c.087 1.132.183 2.324.126 3.477-.712.53-1.69-.2-2.48.186-.31.164-.602-.068-.877-.197.046-1.157.06-2.315-.016-3.473m1.778 1.02c-.126.583.584-.126 0 0m.635.008c-.019.667.73-.253 0 0m-2.008 1.494c-.49.68.482.718.982.732.055-.48-.516-.928-.982-.732m2.361.114c-.137.92.92-.137 0 0m-.997.136c-.478.831 1.031.297 0 0zM82.308 43.693c.183 1.214.044 3.109.071 4.584-.319.075-1.053-.198-.87.38.24-.033.943-.252.894.254-1.095.018-2.189.022-3.282.003.17-.324-.413-1.511.628-.997.316.068.458-.068.373-.386-.32-.07-.77.314-.975-.029-.131-1.152-.02-2.309-.141-3.46.96-.528 2.339.267 3.302-.349m-2.414 2.859c-.127.583.583-.126 0 0m.987.987c-.194.9.9-.194 0 0m.78.01c-.365.29-.01.481.322.343.356-.174-.093-.465-.322-.343m-.755.898c-.02.666.73-.253 0 0zM99.267 44.157c.542-.606 1.48-.12 2.208-.216.498.787.686 1.738 1.05 2.592.72-.422.47-2.019 1.248-2.511.714-.042 1.432-.01 2.151.007-.377 1.236-1.027 2.367-1.472 3.578-.108.497-1.24-.215-1.053.413.365.01.916-.118.723.371-.373.264-.83-.029-1.22.164-.077.304.395.192.388.491-.75-.118-1.904.39-2.27-.522l-.03-.094c-.483-1.46-1.108-2.867-1.723-4.273m4.776 2.53c-.02.666.73-.254 0 0m-2.638.112c-.166.066-.28.545-.032.487.385.114.49-.631.032-.487m.62 1.01c-.127.583.583-.126 0 0z"/><path fill="#83570d" d="M11.495 44.033c.215-.015.599-.127.476.23-.243-.008-.886.117-.476-.23zM12.334 44.032c.128.213 1.219.4.737.716-.47.14-.687-.334-.737-.716z"/><path fill="#83570d" d="M13.517 44.033c.191-.008.484-.106.54.156.289.728.698 1.413.918 2.168-.217.083-.423.188-.634.284-1.076-.317-2.26.146-3.4-.1-.237-.238-.59.364-.72-.006.023-.278-.282-.221-.417-.376.928.097 1.856-.007 2.785-.017.3-.708.771-1.346.928-2.11m.126.124c-.16.76-.614 1.407-.94 2.099-.168.27-.506-.008-.754.024.258.333.798.342 1.128.102.536-.405 1.3.525 1.641-.232-.324-.635-.454-1.736-1.075-1.993zM68.08 44.034c.59.262.737 1.348 1.168 1.924.66.858-.474.303-.318.829.695.742 1.482-1.366 1.26.242-.542-.109-1.392.322-1.7-.315-.453-.298-1.148.064-1.558-.332-.015-.52 1.13-1.487-.095-1.27-.545-.455.318-.318.698-.272.282-.19.27-.6.546-.806m-.008.244c-.31.695-.777 1.357-.906 2.113.666-.012 1.362.22 2.013-.01-.209-.716-.633-1.673-1.107-2.103zM28.212 44.162c.583-.125-.126.584 0 0zM44.064 44.165c.802.09-.565.712 0 0zM50.566 44.272c.831-.162.075.851 0 0zM93.229 44.406c.993.157-.572.73 0 0zM23.027 44.526c.25-.012.884-.112.553.288-.202.222-.62.024-.553-.288zM160.455 45.148c-.05-.723.449-.698.399.004-.134-.226-.27-.245-.399-.004zM24.44 44.665c.583-.125-.126.584 0 0zM28.193 44.646c.9-.193-.194.9 0 0zM32.613 44.665c.584-.125-.126.584 0 0zM33.248 44.674c.73-.253-.019.667 0 0zM40.414 44.68c.667-.16-.019.612 0 0zM41.188 44.672c.792-.292.186.662 0 0zM43.058 44.658c.237-.093.662.126.326.34-.256.366-.64-.061-.326-.34zM108.312 44.665c.584-.125-.127.584 0 0zM51.582 44.773c.216.012.627-.12.5.247-.217-.011-.628.12-.5-.247zM61.264 44.773c1.106-.269-.118.967 0 0zM62.421 44.8c.73-.253-.019.666 0 0zM15.512 45.043c.583-.126-.126.583 0 0zM20.31 45.068c.423-.234.141.495-.168.334-.305.024-.042-.375.168-.334zM43.408 45.276c.217.012.628-.12.5.247-.217-.011-.628.12-.5-.247zM159.821 46.901c.15-.572.405-1.106.621-1.655.042.576-.246 1.26-.62 1.655zM16.144 45.414c.928.212-.54.7 0 0zM25.303 45.396c.256-.053.553.072.509.376-.326.054-.65.04-.509-.376zM20.88 45.532c.235.037.777-.175.645.246-.252.018-.545.04-.645-.246zM153.708 45.627c.871.423.682 1.933 1.381 2.505.84.115-.377.33.09.8 1.129.285 2.517-.048 3.763.112.332-.662.478-1.405.847-2.054-.063.747-.433 1.48-.718 2.173-1.327.01-2.655.037-3.978-.007-.279-1.067-.713-2.084-1.187-3.076-.167-.25.023.473-.236.313l.038-.766zM5.345 45.94c.242-.138.513.063.473.332-.38.127-1.167-.075-.473-.333zM139.396 45.933c.61-.288.303.42 0 0zM16.286 46.072c.44-.187.829 1.257-.163.588-.487.093-.276-.708.163-.588m-.263.24c-.047.616.68-.276 0 0zM17.275 46.17c.59-.22.58.353.065.444-.386.203-.12-.267-.065-.445zM27.986 46.207c.42-.219.895.284.843.7-.548-.3-1.842.407-1.774-.628.318.078.64.118.93-.072zM31.24 46.168c.466-.196 1.037.251.982.732-.5-.014-1.472-.052-.982-.732m.1.108c-.177.863 1.027-.112 0 0zM43.304 46.16c.32.004.472.46.837.311.786.546-.949.843-1.087.314.054-.217.103-.448.25-.626zM2.567 46.296c.3-.098.551.02.589.341-.31.233-1.048.083-.589-.34zM26.092 46.32c.505-.314.48.732-.04.468-.409.132-.302-.5.04-.468zM33.601 46.282c.92-.137-.137.92 0 0zM32.604 46.418c1.031.297-.478.831 0 0zM58.649 46.422c1.036-.08-.601.822 0 0zM65.154 46.4c.451-.053.655.489 1.125.417.036.64-1.166.063-1.125-.418zM70.847 46.428c.803.09-.564.712 0 0zM71.6 46.42c.698-.213.417.37.173.719-.465.074-.254-.473-.172-.718zM29.218 46.552c.583-.126-.126.583 0 0zM38.381 46.523c.85.075-.162.83 0 0zM39.286 46.553c.149-.105.48.15.266.274-.179.256-.624-.146-.266-.274zM39.787 46.56c.73-.252-.019.667 0 0zM55.005 46.577c.236-.03.515.464.089.456-.374.11-.522-.471-.09-.456zM59.28 46.558c.666-.019-.253.73 0 0zM79.894 46.552c.583-.126-.127.583 0 0zM151.567 48.034c.982.596 1.556-.908 2.091-1.54-.21 1.16-1.307 1.905-2.343 2.305.122-.242.163-.51.252-.765zM40.535 46.677c.584-.125-.127.584 0 0zM64.194 46.701c.413-.173.226.58-.166.338-.498.066-.147-.392.166-.338zM86.063 46.675c.232-.003.674.16.586.459-.214.387-1.07-.178-.586-.46zM93.12 46.675c.65-.208.052.612 0 0zM104.043 46.686c.73-.253-.02.667 0 0zM64.662 46.774c.85.076-.164.831 0 0zM101.405 46.8c.458-.145.353.6-.032.486-.247.058-.134-.421.032-.487zM118.373 46.826c-.05.21.765.37.33.698-.447.2-.675-.485-.33-.698zM120.277 46.813c.762-.201-.112.768 0 0zM72.23 46.938c.729-.253-.02.666 0 0zM96.35 46.902c1.04-.104-.161.917 0 0zM97.875 46.958c.723-.02-.026.682 0 0zM10.867 47.101c.662.047 1.397-.04 1.989.324-.116.487-.74-.03-.996.075-.842-.197-1.877.38-2.564-.312a3.545 3.545 0 0 0 1.57-.087zM108.444 47.063c.73-.252-.02.667 0 0zM13.344 47.173c.44.268 1.204-.282 1.52.195-.46.231-1.383.5-1.52-.195zM15.518 47.171c1.15.047-.599.759 0 0zM111.462 47.19c.73-.254-.02.666 0 0z"/><path fill="#83570d" d="M43.328 47.327c.54-.607 1.479.779.225.388-.47.278-.792-.267-.225-.388zM59.906 47.43c.406-.265.535.497.097.363-.33.12-.304-.236-.097-.364zM151.443 47.432c.582-.126-.127.583 0 0zM152.08 47.444c.678-.276-.049.615 0 0zM163.395 47.44c.728-.252-.02.667 0 0zM80.88 47.539c.9-.194-.193.9 0 0zM81.661 47.549c.23-.122.678.17.322.343-.333.138-.687-.053-.322-.343zM87.838 47.581c.245-.015.77-.027.714.327-.47.149-.94.08-1.403-.025.148-.24.441-.239.69-.302z"/><path fill="#e0a015" d="M25.139 47.678c1.512-.053 3.023.1 4.533 0 .5.664-1.952-.239-1.735.857-.106.518 1.068-.22.884.38-.917-.237-2.641.622-3.037-.602.396.235 1.07-.041.62-.385-.443.016-.971.24-1.265-.25m2.2.25c-.573.73.992.156 0 0z"/><path fill="#83570d" d="M92.702 47.66c.3-.104.932-.084.893.375-.349-.037-1.09.228-.893-.374zM97.082 47.795c.235.038.776-.175.645.247-.253.017-.546.04-.645-.247zM97.898 47.806c.65-.207.053.613 0 0zM102.025 47.809c.583-.126-.127.583 0 0zM112.722 47.828c.137-.117.385-.057.45.114-.033.24-.607.145-.45-.114zM115.326 47.784c.342.006.675.095 1.011.16.032.632-1.017.246-1.01-.16zM121.617 47.817c.433.223 1.445-.215 1.507.315-.51-.011-1.021-.016-1.506.16a4.61 4.61 0 0 1 0-.475zM18.763 47.917c.92-.137-.137.92 0 0zM27.338 47.927c.993.157-.572.73 0 0zM117.095 47.92c.23.031.751-.166.627.241-.232-.031-.754.166-.627-.241zM118.73 47.917c.215.011.626-.12.5.247-.217-.012-.628.12-.5-.247zM123.527 47.935c.584-.126-.127.583 0 0zM124.162 47.944c.73-.253-.02.666 0 0zM134.099 47.927c.358-.024.78-.069 1.126.094.39.47-1.672.482-1.126-.094zM33.767 48.087c.767-.386.43.798-.16.582-.48-.082-.131-.507.16-.582m.129.097c-.11.068-.297.18-.248.333.204.157.639-.41.248-.333zM34.6 48.045c.3-.04.659-.059.489.346-.223.371-.611-.03-.49-.346zM139.085 48.045c.296.06 1.091-.237.894.354-.317-.129-.913.186-.894-.354zM143.75 48.045c.792-.003 1.592-.036 2.388.005.195.73-.834.276-1.254.308-.345-.037-1.224.234-1.134-.313zM146.384 48.044c.831-.162.076.851 0 0zM147.179 48.06c.029.22 1.075-.311.826.203-.142.434-1.307.166-.826-.204zM148.523 48.035c.607.154 1.2.017 1.815.067.83-.776.778 1.074-.047.32-.484-.187-1.69.403-1.768-.387zM158.24 48.05c.256.04.778-.003.736.368-.288.091-1.263.098-.737-.368zM46.302 48.17c.674-.307.567.645.002.502a3.93 3.93 0 0 1-.002-.502zM55.246 48.181c.235-.056.37.548.11.49-.369.143-.31-.348-.11-.49zM62.649 48.169c.92-.137-.139.92 0 0zM157.479 48.186c.582-.126-.127.584 0 0zM1.812 48.308c1.037-.079-.601.823 0 0z"/><path fill="#e0a015" d="M22.07 48.337c.369-.224.255.48-.079.413-.37.223-.255-.48.078-.413z"/><path fill="#83570d" d="M63.398 48.29c.34-.092.599.168.508.507-.34.092-.6-.168-.508-.508zM72.559 48.297c.302-.02.845-.09.78.378-.321.047-.553-.196-.78-.378zM.548 48.438c.583-.126-.126.583 0 0zM80.906 48.447c.73-.253-.02.666 0 0zM87.534 48.423c1.002-.29.108.894 0 0zM89.827 48.438c.584-.126-.127.583 0 0zM90.337 48.447c.729-.253-.02.666 0 0zM96.097 48.423c.316-.07.91-.022.474.354-.317.083-.602.037-.474-.354zM97.12 48.443c.694.247-.44.518 0 0zM98.007 48.435c.406-.264.535.498.097.364-.33.12-.304-.236-.097-.364z"/><path fill="#e0a015" d="M20.303 48.574c.36.464-.686.225 0 0zM37.14 48.69c.583-.127-.127.583 0 0z"/><path fill="#83570d" d="M88.93 48.672c.919-.137-.139.92 0 0zM115.086 48.674c.298.048.889-.156.998.116-.299-.048-.89.156-.998-.116zM146.658 49.337c.087-.538 1.005-.758 1.06-.083 1.184.18 2.295-.48 3.468-.45-.714.12-1.546.535-2.365.54-.402-.071-1.436.46-1.32-.304-.048.308-.912.748-.843.297z"/></svg>