<svg xmlns="http://www.w3.org/2000/svg" width="824.6" height="318.8">
  <rect width="100%" height="100%" fill="none"/>
  <g class="currentLayer">
    <path fill="#54753c" stroke="#54753c" stroke-miterlimit="10.4" stroke-width=".1" d="M111 96.7l2.8-.1h60.3A32.6 32.6 0 0 1 189 100a37 37 0 0 1 4.3 4l-2.1 2.3c-3.9-4.8-10.4-6.3-16.3-6.7-20.4-.4-40.8.2-61.1-.3l.2-1.8z"/>
    <path fill="#50753a" stroke="#50753a" stroke-miterlimit="10.4" stroke-width=".1" d="M281 96.7c8.7 0 17.5-.6 26 .3a9.2 9.2 0 0 0-3.2 2.5c-6.6.1-13.2.2-19.7-.1.5-2-1.7-2.2-3-2.7z"/>
    <path fill="#50773a" stroke="#50773a" stroke-miterlimit="10.4" stroke-width=".1" d="M311 96.7l2.8-.2c11.3.4 22.7-.4 34.1.4-1.6 0-2.4 1.1-3 2.5-10.5.4-21 .2-31.6 0a2.3 2.3 0 0 0-2.3-2.7z"/>
    <path fill="#50743a" stroke="#50743a" stroke-miterlimit="10.4" stroke-width=".1" d="M502.9 97.2a16.9 16.9 0 0 1 4.3-.7h73a63.6 63.6 0 0 1 7.7.5l.7 2.8-3-.7v-1.7c-1.4 1-2.6 2.6-4.4 2.2-25.4-.2-50.8 0-76.2-.1l-.3-1.8z"/>
    <path fill="#4f7338" stroke="#4f7338" stroke-miterlimit="10.4" stroke-width=".1" d="M587.9 97c5-.9 10.2-.3 15.3-.4h56.4c4.4 1.4 9.4 1.7 12.8 5.2l-1.2-.2c0 1.2.2 2.3.3 3.4-6.3-5.6-15.4-5.4-23.3-5.4h-57.8l-.6 2.8-1.2-2.5z"/>
    <path fill="#55743e" stroke="#55743e" stroke-miterlimit="10.4" stroke-width=".1" d="M20.4 99.5a35 35 0 0 1 14.8-2.8h51c4.2 0 9 .5 12 3.7l-1.7-.2 1 2.5-1.4-.4a23 23 0 0 0-11-2.7h-45a43 43 0 0 0-19 3.4c-4.6 2.6-7 7.5-9.1 12.1l-1.6 1c.4-1.6 1.1-3.3-.2-4.7 2.3-4.8 5.4-9.6 10.3-11.9z"/>
    <path fill="#7d9a4b" stroke="#7d9a4b" stroke-miterlimit="10.4" stroke-width=".1" d="M111 96.7l3 1-.3 1.7c-1.3 2-1.5 4.4-2 6.7-4.4 21.3-9 42.5-13.3 63.8l-3.7 2.1q6.5-29.8 12.6-59.8c1.3-5.1 1.7-10.5 3.8-15.5z"/>
    <path fill="#7da135" stroke="#7da135" stroke-miterlimit="10.4" stroke-width=".1" d="M201.2 97c7.6-.6 15.2 0 22.8-.3l.7 2.8c-6.8.3-13.6 0-20.4.2-1.5-.3-1.4 1.6-1.7 2.5-3 14.7-6.2 29.5-9 44.2l-2.8-1 .3-2.2c2.6-4 2.6-8.8 3.6-13.2.6-1.7-.6-3-1.4-4.3.8-6.4 2-13.7-2.1-19.3l2.1-2.4c2.3 2.7 3 6 3.7 9.4 2.2-5.2 1.6-11.3 4.2-16.4z"/>
    <path fill="#95ae54" stroke="#95ae54" stroke-miterlimit="10.4" stroke-width=".1" d="M224 96.8c1.2.3 3.9-.5 4 1.5.3 4.9-1.4 9.7-2.3 14.5-2.6 12.5-5.4 25-7.9 37.4l-3.7 3c.7-6.1 2.8-12 3.8-18l5.4-25.6c.7-3.3 1.7-6.7 1.5-10z"/>
    <path fill="#79974a" stroke="#79974a" stroke-miterlimit="10.4" stroke-width=".1" d="M264.6 172.3c5.6-25.2 10.7-50.5 16.5-75.6 1.3.5 3.5.6 3 2.7a11 11 0 0 0-1.7 4.4l-14.1 66.4z"/>
    <path fill="#91ab56" stroke="#91ab56" stroke-miterlimit="10.4" stroke-width=".1" d="M303.8 99.5a9.2 9.2 0 0 1 3.3-2.5l.9.2a32.7 32.7 0 0 1-.1 4.8c-4.8 24.1-10.2 48-15 72.2l-.3-.3-2-2c4.3-24 10.2-47.8 14.5-71.8z"/>
    <path fill="#7e984e" stroke="#7e984e" stroke-miterlimit="10.4" stroke-width=".1" d="M307.6 111.3c1-4.9 1.6-10 3.4-14.6a2.3 2.3 0 0 1 2.3 2.8c-5.6 23.5-9.8 47.3-14.8 71l-2.6-2.6c4-18.9 7.7-37.8 11.7-56.6z"/>
    <path fill="#68863d" stroke="#68863d" stroke-miterlimit="10.4" stroke-width=".1" d="M345 99.4c.5-1.4 1.3-2.5 3-2.6 1.2 1.8 2.2 3.7 3.3 5.5l16.9 28.1c2.7 5 6 9.5 8.5 14.6l3.7-16.9 2.5 2.5c-1.3 7.5-3.6 14.9-4.6 22.5-9.1-14-17.3-28.6-26-42.9-2.5-3.6-4-8-7.3-10.8z"/>
    <path fill="#7e9744" stroke="#7e9744" stroke-miterlimit="10.4" stroke-width=".1" d="M385.6 104.1a25.5 25.5 0 0 1 2.1-7.5c7.5.4 15-.1 22.5.3l.6 2.5c-7 .4-14 .2-21.1.2-2.3 10.4-4.3 20.7-6.8 31l-2.5-2.5c1.7-8 3.6-16 5.2-24z"/>
    <path fill="#89ae3d" stroke="#89ae3d" stroke-miterlimit="10.4" stroke-width=".1" d="M410.1 96.9l4 .5 1.3-.6A130 130 0 0 1 413 110c-.4 1.3.1 2.6.4 3.8l.3 3.7-1.7 2a6.2 6.2 0 0 0-2.3.7l-2.2-2.2c1-6.2 3.1-12.2 3.3-18.5l-.7-2.6z"/>
    <path fill="#537739" stroke="#537739" stroke-miterlimit="10.4" stroke-width=".1" d="M415.3 96.8h83.8l-.8 2.8c-27.3-.1-54.6 0-82 0-.8 4.7-1.7 9.5-2.9 14.2-.3-1.3-.8-2.5-.4-3.8a130 130 0 0 0 2.3-13.2zM329.7 232c1.1.6 2.2 1.3 3.2 2.1 1.7 3.7 5.5 5.4 9.3 5.4h72c5.8 0 11.6-.2 17.4.4l-2.1.2-.2 2.4c-26.4.2-52.7 0-79.1 0-4.8 0-9.8.7-14.4-1l-2.3 1.7 1.7-1.7a11.2 11.2 0 0 1-5.5-9.6z"/>
    <path fill="#86ac36" stroke="#86ac36" stroke-miterlimit="10.4" stroke-width=".1" d="M499.1 96.8h2.4l1.4.4 1.9.5.2 1.8-1 4.8-1.5-2.4c-1.4 5.8-2.3 11.7-4 17.4l-.8 2.1-.1-1.4h-29.2l.3-1.4c9.3.3 18.5 0 27.8.2a68.2 68.2 0 0 1 .8-9l2.7-10.2h-1.7l.8-2.8z"/>
    <path fill="#fefefa" stroke="#fefefa" stroke-miterlimit="10.4" stroke-width=".1" d="M581.3 99.6c1.8.5 3-1.2 4.2-2.1l.1 1.7v2.7l-1.9 1-3 14.4-1.5-1.2c-16.7.2-33.3 0-50 0a44.2 44.2 0 0 0-5.7.3l-.3 1.4-1.3 7.5-.6 4c15.3.4 30.6 0 46 .2 2 0 4.1.2 6-.8l1 2.3c-.8 4.4-1.4 9-3.1 13-4 1-8 .3-12 .5-14 .2-28.2-.4-42.2.3-.2 2.5-.5 5-.9 7.4l-.5 3.4h55.6l2.5.1c-1.2 4-1.9 8-2.7 12l-.4 1h-66.4a22.4 22.4 0 0 0-6.3 1 11.8 11.8 0 0 0-1.4 4.2l-4 .3v-3c-2-1.4-2-3.6-1.8-5.7 3.7-15 6.6-30.3 9.9-45.4 1-5.3 2.2-10.5 3.3-15.8.4-1.6.8-3.2 1-4.8 25.5.2 51 0 76.4.1zM282.4 103.8a11 11 0 0 1 1.7-4.4c6.6.3 13.2.2 19.7 0l1.3.7c-4.3 24-10.2 47.8-14.5 71.8l-.8 1.8c-7.4.3-14.8.3-22.2-.1l.7-3.4 14.1-66.4z"/>
    <path fill="#fefffb" stroke="#fefffb" stroke-miterlimit="10.4" stroke-width=".1" d="M21 103a43 43 0 0 1 19.2-3.4h45a23 23 0 0 1 11 2.7c1.3 1.8 3 3.6 3.2 6a67.1 67.1 0 0 1-.6 7.7c-.5 2.1-.3 4.6-1.6 6.4-6.3.4-12.7.3-19.1.1-2.1-1.1-1-4-1.3-6l-2.8-1.2a15.4 15.4 0 0 0-7.7-1.3c-9.3.4-18.7-.2-28 .4l-1.3.7a12.2 12.2 0 0 0-4.5 7 5.2 5.2 0 0 0 5.7 4.7c8.4-.2 16.8.7 25.2.8 7.2.4 14.5-.2 21.7 1.3 3.9 1 8 3 9.8 6.8 1.6 4.7.5 9.6-.4 14.4-1.4 6.4-3.2 13.4-8.6 17.7-7 6.2-16.8 7-25.7 6.8-15-.3-30 0-45-.2-5-.2-11.1-2.9-11.8-8.4.5-5.4-.3-10.8.6-16 1.3-1.5 3.5-.8 5.2-.9 5.5.5 11 0 16.6 0v1.8c0 1.8-.1 4 1.5 5.3 2 1.4 4.6 1.2 6.9 1.3h31c3.4.1 5.8-2.5 7.4-5.2.2-1.9.8-4.3-1-5.5-3.9-2.5-8.8-2-13.3-2.1-8 0-16-1-24.1-1a182 182 0 0 1-15.8-1.2 12.3 12.3 0 0 1-8.7-6.5c-1.8-7 .2-14.3 2.4-21 2-4.5 4.4-9.4 9-12zM111.8 106.1c.4-2.3.6-4.7 2-6.7 20.3.5 40.7 0 61 .3 6 .4 12.5 1.9 16.4 6.7 4 5.6 3 13 2 19.3-2.5 8.6-4 18.4-11.2 24.5-4.4 2.8-9.4 5-14.8 4.6-12-.3-24 .3-36-.4 1.2-5.5 1.9-11.2 3.7-16.6l1.6-.9c7.5.3 15.1-.1 22.7.3a10.6 10.6 0 0 0 8.1-3 16.2 16.2 0 0 0 3-4.9 20.3 20.3 0 0 0 .3-8.6c-1.8-.9-3.6-2-5.7-2.1-8.2-.8-16.4-.4-24.7-.5a51 51 0 0 0-9.4.6c-3.2 16.6-6.8 33-10.4 49.5l-.8 4.8c-7 1-14.2.7-21.2.2V170c4.3-21.4 9-42.6 13.3-63.9z"/>
    <path fill="#fefefb" stroke="#fefefb" stroke-miterlimit="10.4" stroke-width=".1" d="M202.6 102.2c.3-1 .2-2.8 1.7-2.5 6.8-.2 13.6.1 20.4-.2.2 3.4-.7 6.8-1.4 10.1q-2.9 12.8-5.4 25.7c-1 6-3.2 11.7-3.8 17.8a70 70 0 0 0-.4 2.5c16 0 32 .3 48-.2.1 6.1-2.6 11.8-3 17.9-13.5.6-27 0-40.5.2-10-.1-20 .2-30-.1l5.4-27c2.8-14.8 6-29.5 9-44.2zM313.3 99.5c10.5 0 21.1.3 31.7 0 3.4 2.7 4.8 7.1 7.2 10.7 8.8 14.3 17 29 26.1 43 1-7.7 3.2-15 4.6-22.6 2.5-10.3 4.5-20.6 6.8-31 7 0 14 .2 21.1-.2-.2 6.3-2.3 12.4-3.4 18.6-3.6 16.9-6.9 33.8-10.6 50.7-12 .2-24 0-36.1.1-7.1-13.6-16-26.1-23.7-39.4-1.7-2.9-3.1-6-5.6-8.5-4 17.6-7.7 35.3-12 52.8-7 0-14.1.2-21.3 0l.4-3.3c5-23.6 9.2-47.4 14.8-71zM416.4 99.5l82 .1h1.6l-2.8 10.2-1.9 6.7c-9.5.5-19.1.1-28.7.2l-1.8 1.8-.4 5.9q-4.6 21.2-9 42.5c-2.1 1.5-3.2 3.9-4.5 6-4.1 1.5-5.2-3.8-8.6-4.8a13.7 13.7 0 0 0-8.1-1l-.2-4.1c3.1-15.3 6.5-30.6 9.1-46-9.8.6-19.6.4-29.5.5l-.2-3.8c1.2-4.6 2-9.4 3-14.2zM590.4 99.5h57.8c8 0 17-.1 23.3 5.5a37.5 37.5 0 0 1 2.8 6.4c.9 6.9-1.3 13.5-3.4 20a19.8 19.8 0 0 1-8.7 11.5l-3.7 2c2.1 1.1 4.6 2 6 4.2 3.6 8.2-1.4 16.6-2.5 24.8h-21.6c1.3-5.7 3.5-11.5 2.3-17.4a9.2 9.2 0 0 0-6.6-2.5h-26.6l.1-2.7c.8-5.2 2-10.4 3-15.6l1.9-.1c8.8.2 17.7 0 26.6.2 3.7.4 7-2.3 8.6-5.5a9.8 9.8 0 0 0 .9-9.7c-3-3-7.6-2.6-11.5-2.6-10 .2-20.2-.3-30.2.4-3.8 16.8-8 33.4-11.7 50.3-4.1-.1-8.2 0-12.3.3a38.7 38.7 0 0 0-1.5 4.5 22.6 22.6 0 0 0-1.8-3.8c-1.3-1.2-3.2-.8-4.8-1h-1.4a117.7 117.7 0 0 1 2.4-12.4c4-18 8.1-35.9 12-54l.6-2.8z"/>
    <path fill="#85ab42" stroke="#85ab42" stroke-miterlimit="10.4" stroke-width=".1" d="M585.6 101.9v-2.7l3 .7 1.2 2.5c-3.8 18-8 36-12 54a117.7 117.7 0 0 0-2.3 12.3h1.4l.5 1.3a13.1 13.1 0 0 1-4-1.3l-.5 1.2-1.9-2.2c.8-4 1.6-8 2.7-12h-2.4l1.7-2.3a38.5 38.5 0 0 0-7.8-.5c-10.7.5-21.4-.3-32 0-4.8 0-9.6.2-14.3-.2 18.8 0 37.8-.1 56.7.2 2.5-11.1 4.8-22.2 7.4-33.3-19 .4-38 0-57 .2 0-.6.3-1.7.4-2.3 18 0 36.2.3 54.3-.2l3-14.5z"/>
    <path fill="#8ead5c" stroke="#8ead5c" stroke-miterlimit="10.4" stroke-width=".1" d="M96.5 100.2l1.7.1a10.2 10.2 0 0 1 4 10c-.6 3.3-.2 7-1.4 10.2l-2.1-4.5a67.1 67.1 0 0 0 .7-7.8c-.3-2.3-2-4-3.3-5.9l1.3.4-.9-2.5z"/>
    <path fill="#75983c" stroke="#75983c" stroke-miterlimit="10.4" stroke-width=".1" d="M502.5 102l1.5 2.4-3.4 15.8-2.1-1c1.7-5.6 2.6-11.5 4-17.3z"/>
    <path fill="#778e46" stroke="#778e46" stroke-miterlimit="10.4" stroke-width=".1" d="M671.2 101.6l1.2.2a14.7 14.7 0 0 1 4 5.7c-.8 1.3-1.4 2.6-2 4a37.5 37.5 0 0 0-2.8-6.5l-.4-3.4z"/>
    <path fill="#97ae55" stroke="#97ae55" stroke-miterlimit="10.4" stroke-width=".1" d="M674.3 111.4l2-3.9.3.8a59 59 0 0 1-.3 15.4c-1.8 7.2-3.7 15-9.7 20l-4.5-.9c4.4-2.4 7.2-6.8 8.7-11.5 2.2-6.4 4.4-13 3.5-19.9z"/>
    <path fill="#becf89" stroke="#becf89" stroke-miterlimit="10.4" stroke-width=".1" d="M495.3 116.6l2-6.7a68.2 68.2 0 0 0-.8 9c-9.3-.3-18.6 0-27.8-.2l-2.3-.7-2 6.4.4-5.8 1.8-1.8c9.6-.1 19.2.2 28.7-.2z"/>
    <path fill="#8ba354" stroke="#8ba354" stroke-miterlimit="10.4" stroke-width=".1" d="M10.2 111.3c1.3 1.5.6 3.2.2 4.8l1.6-1c-2.2 6.7-4.1 14-2.3 21l-2.3 2.1c-1.7-2.9-.8-6.7-1-10-.2-5.9 1.7-11.5 3.8-16.9z"/>
    <path fill="#deeead" stroke="#deeead" stroke-miterlimit="10.4" stroke-width=".1" d="M37 115.1l1.3-.7c9.3-.6 18.6 0 28-.3a15.4 15.4 0 0 1 7.7 1.2c-12.3-.4-24.7-.1-37-.2z"/>
    <path fill="#9fb664" stroke="#9fb664" stroke-miterlimit="10.4" stroke-width=".1" d="M32.4 122.1c.9-2.7 2.2-5.4 4.6-7 12.3 0 24.7-.2 37 .2-1.4 2-3.8 1.5-5.8 1.6h-25c-1.7 0-3.6-.2-5 1a134 134 0 0 0-2.5 3.4l-1 1.4z"/>
    <path fill="#98b256" stroke="#98b256" stroke-miterlimit="10.4" stroke-width=".1" d="M74 115.3l2.8 1.3c.3 1.9-.9 4.8 1.3 6 6.3.2 12.7.3 19-.1 1.3-1.9 1.2-4.3 1.6-6.5l2.1 4.5c.1 2-.5 4.4-2.6 4.9a92.4 92.4 0 0 1-14.3-.4 15.4 15.4 0 0 0-6.7.6l-2.9-2.2c.4-2.3.2-6-3-5.6a475 475 0 0 0-33.2 0c1.5-1 3.4-.9 5.2-1 8.3.2 16.6 0 24.9.2 2-.2 4.4.3 5.8-1.7z"/>
    <path fill="#eaf8c3" stroke="#eaf8c3" stroke-miterlimit="10.4" stroke-width=".1" d="M523.5 116.4a44.2 44.2 0 0 1 5.7-.4c16.6.1 33.3.3 50 .1l1.5 1.2c-18 .6-36.2.2-54.3.2l-3.2.3z"/>
    <path fill="#7e974c" stroke="#7e974c" stroke-miterlimit="10.4" stroke-width=".1" d="M413.6 117.5c9.9 0 19.7.1 29.5-.4-2.6 15.4-6 30.6-9.1 45.9a37.1 37.1 0 0 0-.9 6 50.8 50.8 0 0 1 8.4.4l-.4.7a78.1 78.1 0 0 1-11.7-.6c3.6-15.4 6.4-31 9.7-46.5.2-1.1 1-3.5-1-3.2-8.7-.2-17.4.4-26-.3z"/>
    <path fill="#93b04f" stroke="#93b04f" stroke-miterlimit="10.4" stroke-width=".1" d="M523.2 117.8l3.2-.3-.5 2.4-.8 4.1-1.2 1.8-2-.5 1.3-7.5z"/>
    <path fill="#a5b864" stroke="#a5b864" stroke-miterlimit="10.4" stroke-width=".1" d="M130.8 118.6a51 51 0 0 1 9.4-.6c8.3.1 16.5-.3 24.7.5 2.1.2 4 1.3 5.7 2.2a20.3 20.3 0 0 1-.2 8.6 27.4 27.4 0 0 0-.4-7.9l-2.6.6a25 25 0 0 0-7.1-1.2l-26.8.1.3-1.5z"/>
    <path fill="#96ae5b" stroke="#96ae5b" stroke-miterlimit="10.4" stroke-width=".1" d="M396.8 168.7c3.7-16.8 7-33.8 10.6-50.7l2.2 2.2c-.4 5.1-1.8 10-2.7 15.1-2.4 11.1-4.5 22.3-7 33.4h-3z"/>
    <path fill="#92ac55" stroke="#92ac55" stroke-miterlimit="10.4" stroke-width=".1" d="M466.4 118l2.3.7-.4 1.4c-3.6 16.2-6.8 32.5-10.3 48.7l-3.3.2.7-2q4.4-21.3 9-42.5l2-6.5z"/>
    <path fill="#a6b766" stroke="#a6b766" stroke-miterlimit="10.4" stroke-width=".1" d="M609 118.3c10-.6 20 0 30.1-.3 4 0 8.5-.5 11.5 2.5l-2.3 1.7c-5-2.2-10.7-1.1-16-1.4-6.7-.1-13.5.4-20.1-.3l-3.3-2.2z"/>
    <path fill="#92ac53" stroke="#92ac53" stroke-miterlimit="10.4" stroke-width=".1" d="M130.8 118.6l3 .8-.3 1.5a255 255 0 0 0-2.7 12.8c-2.8 12.3-5 24.8-7.8 37a7 7 0 0 1-2.6-2.5c3.6-16.5 7.2-33 10.4-49.6z"/>
    <path fill="#7e9d49" stroke="#7e9d49" stroke-miterlimit="10.4" stroke-width=".1" d="M498.5 119.3l2.1.9c-3.3 15.1-6.1 30.3-9.8 45.4l-.8-1.3-1 2.8-1-1c1.9-9.8 4.1-19.6 6-29.3 1.3-5.1 2-10.4 3.7-15.4l.8-2.1z"/>
    <path fill="#95ad54" stroke="#95ad54" stroke-miterlimit="10.4" stroke-width=".1" d="M597.3 168.6c3.6-16.8 7.9-33.5 11.6-50.3 1 .8 2.2 1.5 3.3 2.2-2 3.6-2.4 7.7-3.4 11.6-2.9 12.1-5.5 24.4-8.6 36.5l-2.7.8z"/>
    <path fill="#4f7233" stroke="#4f7233" stroke-miterlimit="10.4" stroke-width=".1" d="M34.7 122.7l1-1.4 1.3 2.2c5 .7 10.1.1 15.2.5q11 .7 22 .8l.2-1.4 2.8 2.1a15.4 15.4 0 0 1 6.7-.6c5 2 10.4 4 13.5 8.7l-2.5 2.1c-1.8-3.8-6-5.7-9.8-6.8-7.1-1.4-14.5-.9-21.7-1.3-8.4 0-16.8-1-25.2-.8a5.2 5.2 0 0 1-5.7-4.7z"/>
    <path fill="#758d3f" stroke="#758d3f" stroke-miterlimit="10.4" stroke-width=".1" d="M167.4 122l2.6-.6a27.4 27.4 0 0 1 .4 7.8 16.2 16.2 0 0 1-3 5v-2.5l-2.5 2.2-1.8-.1c3.4-2.7 5.8-7.4 4.3-11.8z"/>
    <path fill="#9bb357" stroke="#9bb357" stroke-miterlimit="10.4" stroke-width=".1" d="M331.4 121c2.5 2.3 3.9 5.5 5.6 8.4 7.7 13.3 16.6 25.9 23.7 39.4l-2.3 1-2.1-2.6c-8-13-15.6-26-23.5-39-2.4 9.4-4.2 18.9-6.4 28.3-1 4.9-2.2 9.7-3.3 14.6l-1.7 5.4-1.8.1c-8.2-.5-16.5.4-24.6-.6a43.7 43.7 0 0 1 .9-8.1l2.6 2.5-.3 3.3c7 .2 14.2 0 21.3 0 4.2-17.5 7.8-35.2 12-52.8z"/>
    <path fill="#81974d" stroke="#81974d" stroke-miterlimit="10.4" stroke-width=".1" d="M648.3 122.2l2.3-1.7a9.8 9.8 0 0 1-.9 9.8l-.3-1.3-2.4 1 .2-1a20.2 20.2 0 0 0 1.1-6.8z"/>
    <path fill="#537338" stroke="#537338" stroke-miterlimit="10.4" stroke-width=".1" d="M523.9 125.8l1.2-1.8v2.4c5.6.1 11.4-.6 17.1-.2 6.7.6 13.3-.6 20 0 5.1.3 10.2 0 15.3.5l-4.2 2c-1.8 1-4 .8-6 .8-15.3-.2-30.7.2-46-.1l.6-4z"/>
    <path fill="#8dad3f" stroke="#8dad3f" stroke-miterlimit="10.4" stroke-width=".1" d="M193.2 125.8c.9 1.2 2.1 2.5 1.5 4.2-1 4.4-1 9.3-3.6 13.2-2 3.4-4.2 6.8-7.4 9.3l-1.7-2.3c7.2-6 8.7-16 11.2-24.4z"/>
    <path fill="#9bb85c" stroke="#9bb85c" stroke-miterlimit="10.4" stroke-width=".1" d="M573.3 128.7a95 95 0 0 1 4.2-2c.6 4-.9 8-1.7 11.9-.6 2.7-1 5.5-2.1 8-17.2 1-34.4.2-51.5.4-2.5-.4-2.8 2.5-3.2 4.2l-2.9 1 .9-7.5c14-.7 28.1 0 42.2-.2 4-.2 8 .4 12-.5 1.7-4.1 2.3-8.6 3.1-13l-1-2.3z"/>
    <path fill="#547141" stroke="#547141" stroke-miterlimit="10.4" stroke-width=".1" d="M641.1 132.5c2.5 0 4.4-1.8 6.1-3.4l-.2 1 2.4-1 .3 1.3c-1.6 3.2-4.8 5.9-8.6 5.4-8.8-.2-17.7 0-26.6-.1a10.3 10.3 0 0 0-3.3-2.8c10-.7 20 0 30-.4z"/>
    <path fill="#4d7433" stroke="#4d7433" stroke-miterlimit="10.4" stroke-width=".1" d="M164.9 133.9l2.5-2.1v2.4a10.6 10.6 0 0 1-8.2 3c-7.6-.4-15.2 0-22.7-.3a16.2 16.2 0 0 0-4.7-1.9 23.3 23.3 0 0 1 6.3-1c8.4-.3 16.7 0 25-.2z"/>
    <path fill="#7c924f" stroke="#7c924f" stroke-miterlimit="10.4" stroke-width=".1" d="M610 132.8h1.2a10.3 10.3 0 0 1 3.3 2.7l-1.8.1c-1.1 5.2-2.3 10.4-3 15.7l-3-1.2c1-5.8 2.6-11.5 3.4-17.3z"/>
    <path fill="#a1b863" stroke="#a1b863" stroke-miterlimit="10.4" stroke-width=".1" d="M94.9 135.7l2.4-2a21.7 21.7 0 0 1 1 10.5c-1.1 8-2 17-7.8 23.3a24.3 24.3 0 0 1-11.3 7.8c-9.7 2.7-20 2-30 1.7h-36c-5.4 0-9.7-3.7-12.7-7.9l.6-.7 2.3-2.4c.7 5.6 6.9 8.2 11.8 8.4 15 .1 30 0 45 .2 9 .2 18.7-.5 25.7-6.7 5.4-4.4 7.2-11.3 8.6-17.8 1-4.7 2-9.7.4-14.4z"/>
    <path fill="#a3b665" stroke="#a3b665" stroke-miterlimit="10.4" stroke-width=".1" d="M131.8 135a16.2 16.2 0 0 1 4.7 2l-1.6.8c-1.8 5.4-2.5 11-3.7 16.6 12 .7 24 0 36 .4 5.4.3 10.4-1.8 14.8-4.6l1.7 2.3a26.2 26.2 0 0 1-17.5 5.1c-12.6-.5-25.2.5-37.8-.5-.3-7.5 3-14.6 3.4-22z"/>
    <path fill="#a2b65f" stroke="#a2b65f" stroke-miterlimit="10.4" stroke-width=".1" d="M9.7 136a12.3 12.3 0 0 0 8.6 6.6c5.3.6 10.5 1 15.8 1.2 8 0 16.1 1 24.2 1 4.4.2 9.3-.5 13.3 2 1.8 1.3 1.2 3.7 1 5.6l-.6-3.2-2.1 2-.5-2.1c-4.2-2-9-1.2-13.6-1.5-9-.8-18.1-.8-27.2-1.3l.3 3.7-1.3 2.9-2-2v-1.8l.2-1.1.2-2c-2.7-1.6-5.8-1.1-8.7-1-4.5.2-7.7-3.4-10-6.8z"/>
    <path fill="#7b9e44" stroke="#7b9e44" stroke-miterlimit="10.4" stroke-width=".1" d="M658.5 144.9l3.7-2 4.4.8-1.4 1.4a16.4 16.4 0 0 1 3.4 6l-2 1.8-2.1-3.8c-1.4-2.2-3.9-3.1-6-4.2z"/>
    <path fill="#427010" stroke="#427010" stroke-miterlimit="10.4" stroke-width=".1" d="M17.4 145c2.9-.1 6-.6 8.6 1l-.2 2c-2 .1-4.1.3-6.2.3l-3.7-2z"/>
    <path fill="#a2b859" stroke="#a2b859" stroke-miterlimit="10.4" stroke-width=".1" d="M190.8 145.4l2.8 1-5.4 27c10 .3 20 0 30 .1 13.5-.2 27 .4 40.5-.2l2.1 2.5c-25 .3-50.2.2-75.2 0a26.4 26.4 0 0 1 .3-6.7c1.6-7.9 3.4-15.8 4.9-23.7z"/>
    <path fill="#536d36" stroke="#536d36" stroke-miterlimit="10.4" stroke-width=".1" d="M2 146.5a40 40 0 0 1 13.9-.2l3.7 2c-5.9-.2-12.2 1.4-17.6-1.8z"/>
    <path fill="#859d5e" stroke="#859d5e" stroke-miterlimit="10.4" stroke-width=".1" d="M.8 152.2a11.8 11.8 0 0 1 1.2-5.7c5.4 3.2 11.7 1.7 17.6 1.8l6.2-.3v1c-5.6.2-11.1.6-16.6.2-1.8 0-4-.7-5.3.8-.9 5.3 0 10.7-.5 16L1 168.4c-.5-5.4 0-10.8-.2-16.2z"/>
    <path fill="#557540" stroke="#557540" stroke-miterlimit="10.4" stroke-width=".1" d="M70 151.2l2-2 .6 3.1c-1.6 2.7-4 5.4-7.4 5.2h-31c-2.4 0-5 .1-7-1.3-1.5-1.3-1.4-3.4-1.5-5.2l2 1.8L29 150v3.4a21 21 0 0 0 8.3 1.1c9-.2 18 .2 27-.1 2.3 0 4-1.6 5.6-3.2z"/>
    <path fill="#94ab56" stroke="#94ab56" stroke-miterlimit="10.4" stroke-width=".1" d="M664.5 149.1l2.1 3.7 2-1.8c.7 7.6-1.7 14.9-3.4 22.1-.4 1.5-1 3.8-3 3.5-8.3-.2-16.6.4-24.8-.5 0-5.8 2.5-11.2 3.3-17a3.3 3.3 0 0 1 2-2.6c1.2 5.9-1 11.7-2.4 17.3H662c1.1-8.1 6.1-16.5 2.5-24.7z"/>
    <path fill="#55773b" stroke="#55773b" stroke-miterlimit="10.4" stroke-width=".1" d="M214.1 153.1l3.7-2.9.1 2.2h.9c12.5.2 25.1.3 37.7.1a47.2 47.2 0 0 1 8 .5l-3 .7v1.7c-16 .5-32 0-47.9.2l.5-2.5z"/>
    <path fill="#a4b45e" stroke="#a4b45e" stroke-miterlimit="10.4" stroke-width=".1" d="M606.7 150.1l3 1.2-.2 2.6c8.9.2 17.8 0 26.6.1a9.2 9.2 0 0 1 6.6 2.5 3.3 3.3 0 0 0-2 2.6c-1.3-1-2.6-2.5-4.4-2.3-10-.3-19.9.3-29.8-.3a55.5 55.5 0 0 1 .2-6.4z"/>
    <path fill="#557642" stroke="#557642" stroke-miterlimit="10.4" stroke-width=".1" d="M516.1 152.2l3-1-.3 1.6c4.8.3 9.6 0 14.3.1 10.7-.2 21.4.5 32.1 0a38.5 38.5 0 0 1 7.7.5l-1.6 2.3h-55.7z"/>
    <path fill="#97af5d" stroke="#97af5d" stroke-miterlimit="10.4" stroke-width=".1" d="M261.6 153.7l3-.7a18.4 18.4 0 0 1-.1 6.4c-1.2 5.5-2.2 11-3.7 16.4l-2-2.5c.3-6 3-11.8 2.8-18v-1.6z"/>
    <path fill="#d1e4b2" stroke="#d1e4b2" stroke-miterlimit="10.4" stroke-width=".1" d="M433.1 169a37.1 37.1 0 0 1 .9-6l.2 4c2.8-.2 5.6-.3 8.2 1.2 3.3 1 4.4 6.2 8.6 4.8 1.2-2.2 2.3-4.6 4.4-6l-.7 2c-1.1 1.8-2.3 3.5-3.2 5.4H445l-1.4-4.8-2.2-.3a50.8 50.8 0 0 0-8.4-.4z"/>
    <path fill="#8ca44f" stroke="#8ca44f" stroke-miterlimit="10.4" stroke-width=".1" d="M489 167.1l1-2.8.8 1.3c-.2 2-.1 4.2 1.7 5.6l.1 3 4-.2a11.8 11.8 0 0 1 1.4-4.2l3 1.9c-2.7 5-2.3 11-3.5 16.5l-3.5 2.2c.7-4.5 1.6-9 2.2-13.6H492l-.7 3.5c-.4-2.2-1-4.4-1.6-6.7l-.2-1.7-2-3 .5-2.9z"/>
    <path fill="#45702a" stroke="#45702a" stroke-miterlimit="10.4" stroke-width=".1" d="M356.3 167.2l2.1 2.5 2.3-.9h39.2c9.8.5 19.7-.7 29.5.7a78.1 78.1 0 0 0 11.7.6l-.8 1.9h-85.1a81 81 0 0 0-18.7 1.8 23.1 23.1 0 0 0-5.3-2 79.7 79.7 0 0 1 24.3-2.8l1 .1z"/>
    <path fill="#a3b762" stroke="#a3b762" stroke-miterlimit="10.4" stroke-width=".1" d="M120.4 168.2a7 7 0 0 0 2.6 2.6l-1.2 5c-8.8.3-17.7.2-26.5.1l-.6-3.9 3.7-2.1v3.3c7 .4 14.2.7 21.2-.2l.8-4.8z"/>
    <path fill="#4a7330" stroke="#4a7330" stroke-miterlimit="10.4" stroke-width=".1" d="M454.7 169l3.3-.3c9.8.4 19.6.2 29.5.3l1.9 2.9c-10.8.3-21.6-.2-32.4.3l-2.3-3.2z"/>
    <path fill="#40692a" stroke="#40692a" stroke-miterlimit="10.4" stroke-width=".1" d="M570.7 168.7l.3-1 1.9 2.2.4-1.2a13.1 13.1 0 0 0 4.1 1.4l1.4.3v1.5c-24.5.2-49 0-73.6.1a34.3 34.3 0 0 1-4.2-.3l-3-1.8a22.4 22.4 0 0 1 6.2-1.1h66.5z"/>
    <path fill="#809d4a" stroke="#809d4a" stroke-miterlimit="10.4" stroke-width=".1" d="M585 169c4-.3 8.1-.5 12.3-.4l.2.8c-3.4.7-6.8.6-10.1 1l-.5 1.6c-5.6 30.1-10.4 60.4-16 90.6.4 1.8 3 .8 4.3 1.1h113.9l-.3 2.4H611c-14.4-.2-28.8.5-43.2-.3 0-5.5 1.6-10.8 2.3-16.2 3.2-18 6.2-36.2 9.5-54.2 1.6-6.5 2.5-13.2 3.8-19.8v-2a38.7 38.7 0 0 1 1.4-4.7z"/>
    <path fill="#4c7336" stroke="#4c7336" stroke-miterlimit="10.4" stroke-width=".1" d="M597.5 169.4l2.7-.8c7.4.8 14.9-.3 22.2.8l-3.4 2.4c-10.7.5-21.4.1-32 .2l.3-1.6c3.4-.4 6.8-.3 10.2-1z"/>
    <path fill="#4a7032" stroke="#4a7032" stroke-miterlimit="10.4" stroke-width=".1" d="M714.1 169.8c4.9-1.7 10-.8 15.1-1 7.3.2 14.7-.7 22 .6a4 4 0 0 0-3 2.4c-10.3.3-20.8.3-31.2 0l-.6-2z"/>
    <path fill="#91ab51" stroke="#91ab51" stroke-miterlimit="10.4" stroke-width=".1" d="M441.5 169.4l2.1.3 1.5 4.6 6.3.2-.8 1.8-6.7.5-3.1 17.3a2.5 2.5 0 0 1-2.5 2.4c-28.9.1-57.7-.2-86.6.2-4.7 0-10.2 1.6-12.7 6-1.5 6-2.9 12-4 18-.8 4.4-2.8 8.8-2.1 13.4l-3.2-2.2c1-9.2 3.9-18 5.4-27.1a12.3 12.3 0 0 1 7.6-9.3c5.5-2.3 11.6-1.7 17.4-1.8h77.6c1.5-6.9 2.5-14 4.1-20.8l-1.5-1 .8-1.9z"/>
    <path fill="#809c4b" stroke="#809c4b" stroke-miterlimit="10.4" stroke-width=".1" d="M451.4 174.5c1-2 2.2-3.7 3.3-5.5l2.3 3.2-1.5.3c-4 18.2-6.4 36.6-10.2 54.7-1.8 11.1-4.2 22.1-5.8 33.2l-3-.3c4.6-26.7 9.5-53.2 14.3-79.8a6.7 6.7 0 0 0-.2-4l.8-1.8z"/>
    <path fill="#a4b760" stroke="#a4b760" stroke-miterlimit="10.4" stroke-width=".1" d="M576.9 168.7c1.5.2 3.4-.2 4.7 1a22.6 22.6 0 0 1 1.9 3.9v2l-2 1c-1.8 6.2-2.1 12.7-4.1 19-27.8-.1-55.5 0-83.2-.7l-.3-4.5 3.5-2.2a22.6 22.6 0 0 0-.3 3.8 20.3 20.3 0 0 0 4.1.5l74.2.2c1.3-6.9 3.5-13.7 3.4-20.8v-1.5l-1.4-.3z"/>
    <path fill="#9eb65c" stroke="#9eb65c" stroke-miterlimit="10.4" stroke-width=".1" d="M264.6 172.3l3.7-2.1-.7 3.4c7.4.4 14.8.4 22.2 0l.8-1.7 2 2 .1 1.4-1.4 1.2c-8 .2-16 0-24.1 0-2.4.3-2.5-2.5-2.6-4.2z"/>
    <path fill="#94ab5a" stroke="#94ab5a" stroke-miterlimit="10.4" stroke-width=".1" d="M619 171.8l3.5-2.4c1.6 2.9.2 6.2-.2 9.3L612.2 236l-1.1 3-2.2-.6q5.3-31 10.8-61.8c.2-1.7.7-3.5-.7-4.8z"/>
    <path fill="#7d9b4c" stroke="#7d9b4c" stroke-miterlimit="10.4" stroke-width=".1" d="M712.1 178.2c.6-2.8.6-5.8 2-8.4l2.3.1.6 2c-1.8 4.2-2.1 9-3.1 13.4l-14.5 78.2h-1.2c1.3 1.4 3.3 1 5 1.1h111a35.3 35.3 0 0 1 7 1 26.2 26.2 0 0 1-8 .7h-113c-1.4 0-4 0-3.6-2-.2-3 .7-6 1.2-9l14.3-77z"/>
    <path fill="#8eaa52" stroke="#8eaa52" stroke-miterlimit="10.4" stroke-width=".1" d="M748.3 171.8a4 4 0 0 1 2.9-2.4c1.6 1.8.6 4.6.4 6.7-4 20-7.6 40-11.7 60l-.8 2.9-2.4-.7c3.4-19 7.3-38.1 11-57.2.3-3 2-6.3.6-9.3z"/>
    <path fill="#577838" stroke="#577838" stroke-miterlimit="10.4" stroke-width=".1" d="M321.4 176.5l1.7-5.4-.3 3.4c2.8-.9 5.6-2 8.4-2.8a23.1 23.1 0 0 1 5.3 2 52.5 52.5 0 0 0-26.4 13.9l-1.8-2.7a43.1 43.1 0 0 1 11.3-8.3z"/>
    <path fill="#fffffe" stroke="#fffffe" stroke-miterlimit="10.4" stroke-width=".1" d="M336.5 173.8a81 81 0 0 1 18.7-1.8h85.1l1.5 1c-1.6 6.9-2.6 14-4.1 20.8h-77.6c-5.8 0-11.9-.5-17.4 1.8a12.3 12.3 0 0 0-7.6 9.3c-1.5 9-4.4 18-5.4 27.1a11.2 11.2 0 0 0 5.5 9.6l-1.8 1.6 2.4-1.6c4.6 1.7 9.5 1 14.4 1h79c-1.2 6.4-3.1 12.7-3.6 19.3l-1.5 1.7h-89.9c-7.2-.6-14.6-1-21.6-2.9a25.1 25.1 0 0 1-13.9-9.3c-3.7-5.3-3.5-12-2.4-18.2 1.7-7.5 3-15 4.8-22.6 1-5 2-10.2 4.2-15a30.4 30.4 0 0 1 4.8-8 52.2 52.2 0 0 1 26.4-13.8zM497.4 188.2c1.2-5.5.8-11.5 3.6-16.5a34.3 34.3 0 0 0 4.2.3l73.6-.1c.1 7-2.1 14-3.4 20.8q-37-.2-74.2-.2a20.3 20.3 0 0 1-4.1-.5 22.6 22.6 0 0 1 .3-3.8z"/>
    <path fill="#fefffd" stroke="#fefffd" stroke-miterlimit="10.4" stroke-width=".1" d="M455.5 172.5l1.5-.3c10.8-.5 21.6 0 32.4-.3l.2 1.8c-2.1 10.5-4 21-5.7 31.7l-.5 2.4c24.3.4 48.6 0 72.8.2l1.4 1.1c-1.3 6-2.4 12-3.9 18-6.1.8-12.3.3-18.5.4-18.5.1-37-.2-55.6 0-.7 3.6-1.4 7.2-1.9 10.7l-.5 4.3h76c4.4 0 9 .1 13.4-.3.9 6-1.7 11.6-2.2 17.3l-.8 3.6a39 39 0 0 1-7.4.5c-39-.3-78 .2-117-.2l.3-3c1.6-11.1 4-22.1 5.8-33.2 3.8-18.1 6.3-36.5 10.2-54.7z"/>
    <path fill="#fffffd" stroke="#fffffd" stroke-miterlimit="10.4" stroke-width=".1" d="M587 172c10.6 0 21.3.3 32-.2 1.4 1.3.9 3.1.7 4.7l-10.8 61.8-.4 4.3c27.5-.2 55 .2 82.6-.2l1.6 1.5c-1.1 6.6-2.5 13.2-3.6 19.7-38 .2-76 0-113.9.1-1.4-.3-4 .7-4.4-1.1 5.7-30.2 10.5-60.5 16.1-90.6zM713.9 185.3c1-4.5 1.3-9.2 3.1-13.5 10.4.3 20.9.4 31.3 0 1.4 3-.3 6.3-.7 9.3-3.6 19.1-7.5 38.2-11 57.3 0 1.4-.2 2.7-.4 4.1 28.5 0 57 .2 85.4 0-.2 7.1-2 14-3.2 21-39.6 0-79.3.3-119 0l14.5-78.2z"/>
    <path fill="#94af53" stroke="#94af53" stroke-miterlimit="10.4" stroke-width=".1" d="M483.9 205.3c1.7-10.5 3.6-21.1 5.7-31.6.5 2.2 1.2 4.4 1.6 6.6-1.1 7.7-3 15.2-3.8 22.9l-3.5 2.2z"/>
    <path fill="#77944c" stroke="#77944c" stroke-miterlimit="10.4" stroke-width=".1" d="M303 192.9a33.1 33.1 0 0 1 5.3-8l1.8 2.7a30.4 30.4 0 0 0-4.8 8z"/>
    <path fill="#7f994a" stroke="#7f994a" stroke-miterlimit="10.4" stroke-width=".1" d="M292.9 233c4.3-13.1 4.4-27.4 10-40l2.4 2.6a72 72 0 0 0-4.2 15c-1.7 7.5-3.1 15.1-4.8 22.7-1.2 6-1.3 12.8 2.4 18.1l-3.2.2c-3.8-5.5-2.4-12.4-2.6-18.6z" class="selected"/>
    <path fill="#4c7137" stroke="#4c7137" stroke-miterlimit="10.4" stroke-width=".1" d="M483.9 205.3l3.5-2.1.1 1.6c23.6.2 47.2-.3 70.8.4l-2 2.8c-24.3-.2-48.6.2-73-.2l.6-2.5z"/>
    <path fill="#a1b556" stroke="#a1b556" stroke-miterlimit="10.4" stroke-width=".1" d="M558.3 205.2c1.4.5 2.8 1.2 2.4 3a197 197 0 0 1-4.7 21.7h-61.8c-4.1 0-8.3-.3-12.4.5l-.6 4.8-.3 1-1.1 2.6-2.1-.5c.5-3.6 1.2-7.2 1.9-10.7 18.5-.3 37 0 55.6 0 6.2-.2 12.4.3 18.5-.5 1.5-6 2.6-12 3.9-18l-1.4-1.1 2.1-2.8z"/>
    <path fill="#51783a" stroke="#51783a" stroke-miterlimit="10.4" stroke-width=".1" d="M479.8 238.8l1.1-2.7v3.4c20.5-.1 41 .2 61.4 0 7.8-.6 15.6.7 23.4-.2l3.8.3c-1 .7-2.7 1.2-2.9 2.7-4.5.4-9 .3-13.4.3h-76l.5-4.3z"/>
    <path fill="#527738" stroke="#527738" stroke-miterlimit="10.4" stroke-width=".1" d="M611 239l1.1-3-.1 3.4c27.8.2 55.6-.2 83.4.2a24 24 0 0 0-4.4 2.7c-27.5.4-55 0-82.5.2l.3-4.2z"/>
    <path fill="#52783a" stroke="#52783a" stroke-miterlimit="10.4" stroke-width=".1" d="M739 239l1-2.9v3.4c27.7 0 55.5-.2 83.2.1a2.3 2.3 0 0 0-1.6 2.8c-28.5.3-57 .1-85.4.1l.5-4.2z"/>
    <path fill="#94ab57" stroke="#94ab57" stroke-miterlimit="10.4" stroke-width=".1" d="M429.4 240.2l2.2-.3c1.1 7.5-2.3 14.9-3.4 22.3l-2.6-.4c.5-6.6 2.4-12.9 3.7-19.3l.1-2.3z"/>
    <path fill="#92ad54" stroke="#92ad54" stroke-miterlimit="10.4" stroke-width=".1" d="M566.6 242.3c.2-1.6 1.8-2 3-2.7.7 2.7.4 5.5.2 8.2-1 4.2-1.9 8.4-2.6 12.6l-2.8-.8c.5-5.8 3.1-11.4 2.2-17.3z"/>
    <path fill="#95ad5b" stroke="#95ad5b" stroke-miterlimit="10.4" stroke-width=".1" d="M691 242.4a24 24 0 0 1 4.4-2.8 18.4 18.4 0 0 1 0 6.8c-1.4 6.5-2.4 13-4 19.4l-2.7.2.3-2.4 3.7-19.7z"/>
    <path fill="#95ad4e" stroke="#95ad4e" stroke-miterlimit="10.4" stroke-width=".1" d="M821.6 242.4a2.3 2.3 0 0 1 1.6-2.8c1.9.7 1.2 3 1.3 4.6-.9 7.2-2.3 14.3-3.2 21.4a35.3 35.3 0 0 0-7.1-1h-111c-1.7 0-3.7.3-5-1.1h1.2c39.7.3 79.4.1 119 0 1.1-7 3-14 3.2-21z"/>
    <path fill="#a7b75a" stroke="#a7b75a" stroke-miterlimit="10.4" stroke-width=".1" d="M295.4 251.6l3.3-.2a25.1 25.1 0 0 0 13.9 9.3c7 1.9 14.4 2.3 21.6 2.8 30 0 60 .2 90 0l1.4-1.7 2.6.4-.8 3.6c-9.7.5-19.5 0-29.2.2-24 0-48.1.3-72.2-.2-9.8-.8-20.6-2.6-27.7-10.1l-2.9-4.1z"/>
    <path fill="#a8b758" stroke="#a8b758" stroke-miterlimit="10.4" stroke-width=".1" d="M436.4 260l3.1.4-.2 3c39 .5 77.9 0 116.9.2a39 39 0 0 0 7.4-.5l.8-3.5 2.8.8a28 28 0 0 1-1.5 5.3c-8.8.6-17.7.2-26.5.3h-89c-4.7 0-9.6.3-14.4-.4l.6-5.5z"/>
    <path fill="#010101" stroke="#010101" stroke-miterlimit="10.4" stroke-width=".1" d="M52.6 304.4c1.3-1.3 3.8.6 2.3 2-1.3 1.4-3.9-.7-2.3-2zM212.7 305a46.8 46.8 0 0 0 5.2.6l.1 2c-1.5-.1-3-.1-4.4-.3l-1-2.3zM48.4 309.6c5.8 0 11.7-.8 17.3.7-5.7-.1-11.6.7-17.3-.7zM350.3 310.5c2.4.1 4.7.2 7.1.1l-1 .8-6.4.3.3-1.2z"/>
    <path fill="#040603" stroke="#040603" stroke-miterlimit="10.4" stroke-width=".1" d="M321.2 290.7a69 69 0 0 1 18.4.3c-5.8 1.1-11.9.8-17.7.3z"/>
    <path fill="#f7f3c9" stroke="#f7f3c9" stroke-miterlimit="10.4" stroke-width=".1" d="M143.7 316.4a35.3 35.3 0 0 0 3.7-1l-.3 2c-6-.3-12 .5-18-.2a64.9 64.9 0 0 0 14.6-.8z"/>
    <path fill="#d7a82f" stroke="#d7a82f" stroke-miterlimit="10.4" stroke-width=".1" d="M218.6 283.1c6.2-.9 12.6-1.8 19-1 7 1 15 2.6 19.2 9l-4 .2c-3-2.3-7-1.7-10.5-1.3-3.2.5-6.4-.4-9.6-.4-6.8-.4-13.7 0-20.5-.3l.4 2.3c3.7 0 7.4.3 11 .6-2.1 2.4-4.2 5.3-3.8 8.8-.3 5 4.4 8.2 8.6 9.3 8.7 2.5 17.8.4 26.6 1.5-4.3 3.8-10 5.4-15.4 6.5a18.4 18.4 0 0 1-8-.6c-4.3 1.4-9 .7-13.3-.3l-3-2 7.6-1c-4.9-.2-10 .7-14.5-1.7l1.5-3.2h-4.2l-1.4-3.4 6.2.1 3.1 1.2 4.5.2v-2c-.3-3.8-1-7.9.7-11.6-3-.2-6.5 0-8.3-2.9l-2-3a101.7 101.7 0 0 1 10-5zM211 311l6 .2c-.5-3.6-4.3-1.8-6-.2zm6.9-1.2c1.2 3.6 5.4 1.4 8 1.3-2-1.7-5.3-1.3-8-1.3zm14.4 4l4.1 3 .6-2.7-4.7-.3zm6.2.2c-.5 1.6 0 2.2 1.7 1.7.5-1.7 0-2.2-1.7-1.7z"/>
    <path fill="#e2c423" stroke="#e2c423" stroke-miterlimit="10.4" stroke-width=".1" d="M417.2 287a48.8 48.8 0 0 1 38-2.6c5.4 1.6 9 6.2 11.8 11 3.3-4.7 9.5-3.7 14.3-2.7l-.5-2a123 123 0 0 1-13-.3v-7.1c8.2-.1 16.3.3 24.4 0l2.8 6.2c-3.3 2.2-7.4 2-11 2.3v25.7h-16c1.4-4.8 0-9.7-.1-14.5a35.7 35.7 0 0 1-5 8.2H458a78.7 78.7 0 0 0-14.3.3l-1.9-.3c3-2.7 7.6-4 8.5-8.4 1.5-4-1-8-3.4-11.2-3.6-1.9-7.8-.9-11.6-1.1-10.3-.3-20.7.4-31-.3-4.2-.3-8.4.8-12.6.6-6.3 0-12.6 0-18.9-1.2v-6.3h43.7l.6 3.8zm31.9 5.3c4 .3 8.1.4 12.2.5l-.1-2.5c-4 .4-8.9-1.1-12.1 2zm6.5 2.6c-1.6.5-.7 3 .9 2.4 1.6-.4.7-3-.9-2.4zm15.2 12.4q-.8 2.4 1.6 1.6.8-2.4-1.6-1.6zm2.1 4c1.8 1.4 4.1 1.6 6.3 1.8l1.4-2.1c-2.6.1-5.1 0-7.7.3zm5.2 3.7c.2 1.4.8 1.7 2 .7-.2-1.4-.9-1.6-2-.7z"/>
    <path fill="#e0bb27" stroke="#e0bb27" stroke-miterlimit="10.4" stroke-width=".1" d="M558.2 282.4c6.8-.3 13.9-.5 20.5 1.4l-4.5 2 5.6 5.2h-2.1c-5.7-.3-11.5-.5-17.2-.3-2-.1-3.6 1.2-5.1 2.4-2.7-1-5.4-2.7-8.4-2.2a18.6 18.6 0 0 1-7.9-.6c5-5 12-7.6 19-7.9z"/>
    <path fill="#a47f27" stroke="#a47f27" stroke-miterlimit="10.4" stroke-width=".1" d="M2.9 283.5c5.8-1.2 11.7-.6 17.6-.7 7.3.2 14.8-.5 22 1a61 61 0 0 0-16.5.7c-2.5.6-5-.3-7.5-.3-3 0-5.8 1.8-8.9 1.6a37.6 37.6 0 0 1-6.7-2.3z"/>
    <path fill="#aa8f27" stroke="#aa8f27" stroke-miterlimit="10.4" stroke-width=".1" d="M59.9 283.2a67.6 67.6 0 0 1 9.9-.3l1 3.4c-4-.6-8-1-12 0l1-3.1z"/>
    <path fill="#ecce35" stroke="#ecce35" stroke-miterlimit="10.4" stroke-width=".1" d="M69.8 283c3.3.4 6.7 0 10 .6l1.1 2.1-4.5-1.2 1.7 1.8 3.5-.2a11.3 11.3 0 0 0 .8 2.6c-8.5-.4-17-.3-25.4-.2l1.8-2.1c3.9-1.2 8-.7 11.9 0l-1-3.5z"/>
    <path fill="#eac82c" stroke="#eac82c" stroke-miterlimit="10.4" stroke-width=".1" d="M96 283.2c6 .2 12-.4 18 .3a36.2 36.2 0 0 1 4.7 4.6c-5.5.5-11 .3-16.4.4l-6.4-.1.1-5.2z"/>
    <path fill="#d6b434" stroke="#d6b434" stroke-miterlimit="10.4" stroke-width=".1" d="M132.7 283.2h15.2v5.7a100.4 100.4 0 0 1-15.9.2 37.7 37.7 0 0 1 .7-5.9z"/>
    <path fill="#4a2e01" stroke="#4a2e01" stroke-miterlimit="10.4" stroke-width=".1" d="M151.4 283.2h1l-.2 6.2c7.9.4 16-2.4 23.7.3l-6.3 1.7a98.7 98.7 0 0 0 .1 18.5l3 .5a59.7 59.7 0 0 1-16.4-.1l4.8-1.2c2.6 0 5.2.2 7.7.3q.4-9 0-17.9c-5.6-.2-11-.2-16.6 0l.1 5.3c0 4.5-1 9.5 1.7 13.6l-1.8 1.2c-1-9.5-.3-19-.8-28.4z"/>
    <path fill="#d5a835" stroke="#d5a835" stroke-miterlimit="10.4" stroke-width=".1" d="M152.3 283.2h25.5c6.7.1 13.7.8 19.7 4-4 3.3-9.9-.5-13.5 3.6a50.8 50.8 0 0 0 6.6.8l-2.4 3c1 4.2 3.6 9 .4 13a86.2 86.2 0 0 0 11.9 0l-.8-4.2 4.3.9a34.4 34.4 0 0 1-3.2 5.2c-4.5.8-9 0-13.5.6 4.1.5 8.4.4 12.5.9-2 2.3-5 2.8-7.8 3a7.1 7.1 0 0 1-5.3 3.4l2.8-4.3c-5 1.4-10.2 2-15.2.3l4.1 3.8c-7.7-.2-15.4.4-23-1.3a84 84 0 0 0 8.3-1.4 111 111 0 0 0-11.3-1.2l-.2-1.7 1.8-1.2c-2.6-4-1.6-9-1.6-13.6l1.7 6 4.3-3.7v4.4l2.8 1.5a4.7 4.7 0 0 0 .6 3.8l-.7.4-4.8 1.2a59.7 59.7 0 0 0 16.3.1c6.9 1.6 15.1-3.9 14.3-11.3a27.8 27.8 0 0 0-7.6-11.4l-.2 3.8-3.2-1.8c-7.6-2.7-15.8.1-23.7-.3l.1-6.3zm1.7 20.4l.5 3a28.8 28.8 0 0 0 5-.5 11.8 11.8 0 0 0-5.5-2.5zm12.7 9.5c-2 .3-1.6 3.6.5 2.8 2-.3 1.6-3.6-.5-2.8zm4.2.2c-1.2 1.4 1.3 3.1 2.3 1.6 1.2-1.5-1.3-3.2-2.3-1.6z"/>
    <path fill="#d5a731" stroke="#d5a731" stroke-miterlimit="10.4" stroke-width=".1" d="M260.3 283.1h1c11.2.3 22.6 0 34 .2a18 18 0 0 1 13.3 6c-4.7 2.1-9.7 0-14.5.5-5.4.7-10.7-.3-16-.4-5-.3-10 0-14.8 0l-2.8-.1-.2-6.2z"/>
    <path fill="#dbb028" stroke="#dbb028" stroke-miterlimit="10.4" stroke-width=".1" d="M322.5 285.2c1-.8 1.8-2 3.1-2 6-.2 12 0 18-.1l3.5 6-2.5 1.9c2.2 1 4.8 1.6 6 4l8.3 14.5-1.5 1.2a80 80 0 0 1-7.1-.2l-2.7-.1c-3.7-.2-7.3 1-11 1.3-3.1-.3-6-1.5-9.2-2.2 2.2-.5 4.3-1 6.5-1.3a79 79 0 0 1 5.1-4 90.3 90.3 0 0 0-5.5-10.7 54.7 54.7 0 0 1-10.4-1.2l-1.2-1c5.9.6 11.9.9 17.7-.3a69 69 0 0 0-18.4-.2l-1-1 2.3-4.6zm18.4 5c-1.1 1.5 1.4 3.2 2.4 1.8s-1.4-3.1-2.4-1.7zm10 15c-1.2.6-1.8 3-.2 3.4 2 .2 2.6-4.1.2-3.4z"/>
    <path fill="#e2c523" stroke="#e2c523" stroke-miterlimit="10.4" stroke-width=".1" d="M509.3 283.8c8.1-1.2 16.5-.3 24.7-.5v7.2a22 22 0 0 0-9 1.7 80.2 80.2 0 0 0 9 .5c-.2 6 .3 12-.6 17.8-.4 2.3.3 4.6.6 6.9h-15.5c.9-8 .5-16.1 0-24.2a43.8 43.8 0 0 0 5.3-2.6 115.8 115.8 0 0 1-17.2.7 42.2 42.2 0 0 1 2.7-7.5zm11.8 29l6.5.5V311c-2.3.4-5.4-.5-6.6 2z"/>
    <path fill="#e1bd22" stroke="#e1bd22" stroke-miterlimit="10.4" stroke-width=".1" d="M707.5 283.4c6.5-1.7 13.3-1.3 20-1a30.3 30.3 0 0 1 18 7.3l-2.1-6.3c5.5 0 11-.4 16.6-.2l2.8 9.3c-4.3.2-8.7.1-13 0l-.2 1.3c4.6.1 9.6-1 14 1 1.7 3.6 2.6 7.5 3.8 11.2 1.2-4 2.7-8.1 4-12.2 5.8-.3 11.5-.1 17.2-.2a59 59 0 0 0-5.4 2.5l-1 .7c-1.3 4.3-2.6 8.6-4.3 12.7l-4.5 2.3c-2.2.5-4.4.8-6.6 1.1l.7 1.2-.9 3.4h-10.2c-2.2-5.8-4.7-11.4-6.6-17.3l-.6 2.3c-4.1-2.3-8.9-4.6-13.8-3.6-1.7.1-2.4 1.9-3.1 3.1a84 84 0 0 0-.8-7.6 21.4 21.4 0 0 0 7-1.2c-4.4-.4-9-.7-13.2-2-5.3-1.7-10.6.6-15.8 1.6 1-3.3-.3-6.6-2-9.4zm35.4 9.2l-.1 1 4.4.2v-1.3z"/>
    <path fill="#e6c825" stroke="#e6c825" stroke-miterlimit="10.4" stroke-width=".1" d="M775.6 283.2h14.6c1 3 2.3 6 3.1 9.2-7 .2-13.9.6-20.8-.3.9-3 2-6 3-8.9z"/>
    <path fill="#e1bd20" stroke="#e1bd20" stroke-miterlimit="10.4" stroke-width=".1" d="M806 283.3h16.5c-1.2 3-2 6.5-4 9.2a53.3 53.3 0 0 1-6.5.1c0 .4-.3 1.1-.4 1.5 2.2-.4 4.5-.6 6.8-.8-2 7-5 13.6-7.7 20.3-5.2.1-10.4-.5-15.5.8l-5 1.3c-2.4-6.5-5.2-12.8-6.9-19.6a59 59 0 0 1 5.5-2.5l5.6.2c1.5 4.1 3 8.2 4.2 12.3 1-4.2 2.3-8.3 3.7-12.4l8 1c0-.4-.4-1.3-.5-1.8l-6.7-1.5 2.8-8.1z"/>
    <path fill="#d8a739" stroke="#d8a739" stroke-miterlimit="10.4" stroke-width=".1" d="M2.9 283.5a37.6 37.6 0 0 0 6.8 2.3c3 .2 5.8-1.5 8.8-1.6 2.5 0 5 .9 7.5.3 5.4-1.2 11-1 16.5-.7a18.3 18.3 0 0 1 9 4.1c-12.2 1.4-24.6-.2-36.9.7a40.5 40.5 0 0 1-11-1l-.7-4.1z"/>
    <path fill="#daa62b" stroke="#daa62b" stroke-miterlimit="10.4" stroke-width=".1" d="M578.8 283.9a35.3 35.3 0 0 1 8.5 4.3 29.4 29.4 0 0 1 2.4 3.7 82 82 0 0 1-9-.5l.5 2 7.6.1c-1.7 1.4-3.3 3-5.4 3.7a25.4 25.4 0 0 1-6.7 0l-1 5.9c.5-3.6-.6-7-2-10.2l4-2 2.1.1-5.6-5.1 4.5-2z"/>
    <path fill="#e8d61c" stroke="#e8d61c" stroke-miterlimit="10.4" stroke-width=".1" d="M593 283.5c7.6-.5 15 .1 22.5-.2 5.3 0 10.7-.3 16 .4 4.6.7 10 3.4 10.2 8.7l-1.9-.2 3 4.3a21.5 21.5 0 0 1-10.6 7.5c2.4 2.7 4.8 5.4 7 8.3l-9.8.3.3.7 2.2 3-5-.6a255.1 255.1 0 0 0 1-3.5 33.1 33.1 0 0 1-5.4.5c-2.4-1.4-4-4-6-5.8-1.4-2-4.1-1.2-6.2-1.6-.1 4-.2 8.2-.1 12.3a115.2 115.2 0 0 0-12.3.3 7.3 7.3 0 0 1-5.3-4c3.6-1.5 7.5-1.6 11.4-1.8l-10.6-.4-.3-8.1v-10a153.2 153.2 0 0 1 16.2.1c.8 1.6 1.3 3.3 2.4 4.7a30.3 30.3 0 0 0 12.2-.9c1.4-1.8 2.2-4 3.2-6-6.5-1-13.4-2.2-19.7.5-2.9.5-5.7-.7-8.7-.3-1.7 0-3.3-.2-5-.3l-.6-8zm36.7 6.8l-.1 3.4h7.9l-.7-2c-2.4-.3-4.8-.8-7.1-1.4z"/>
    <path fill="#daac22" stroke="#daac22" stroke-miterlimit="10.4" stroke-width=".1" d="M644.2 291.3c0-2.6 0-5.2.3-7.7 5 2.9 11.3.8 16.9 1.7l-.2 5a60.8 60.8 0 0 0 .4 8.3c-3.6 4.9-10.1 3.8-15.3 3.3l2.1-6.8-.8-1.2c2.4-.2 4.8-.3 7.2-.7a32.3 32.3 0 0 0-4-1 53.2 53.2 0 0 0-6.6-1z"/>
    <path fill="#e7d223" stroke="#e7d223" stroke-miterlimit="10.4" stroke-width=".1" d="M644.5 283.6c11.3-.6 22.7-.4 34-.3 5.7.1 13.4 2.2 14.8 8.6l-.4.7c-3 .2-6-.3-9-.1l-.8-.3c-1.3-.7-2.3-.5-2.9.8.5 1.3 1.4 1.7 2.9 1l-.3.9-5.5-.6 1.8-2.5a77.3 77.3 0 0 0-18-1.5l.2-5c-5.5-.9-11.7 1.2-16.8-1.7z"/>
    <path fill="#ead71b" stroke="#ead71b" stroke-miterlimit="10.4" stroke-width=".1" d="M696.3 289.7c3-3.2 7.2-4.8 11.2-6.3 1.8 2.8 3 6 2 9.4-.6 4.8-1 9.7 1 14.2l.6 1.8a5 5 0 0 1-6.4-.4v3c-2.8-3.8-5-8-8-11.5-2-2.3-5-3.4-7.9-4.6l7.1-1.7c1.7 0 3.4-.2 5-.4l-6-.5c-.6-1.3.7-2.2 1.4-3zm5.4 2c-1.3 1.4 1.1 3.6 2.4 2.2s-1.2-3.5-2.4-2.2z"/>
    <path fill="#080406" stroke="#080406" stroke-miterlimit="10.4" stroke-width=".1" d="M742.9 292.6l4.2-.1.1 1.3-4.4-.1v-1.1zM232.4 313.8c1.6 0 3.2.2 4.7.3l-.6 2.7-4-3z"/>
    <path fill="#422b01" stroke="#422b01" stroke-miterlimit="10.4" stroke-width=".1" d="M197.5 287.3a23.6 23.6 0 0 1 4.2 4.4l-11.1-.1a50.8 50.8 0 0 1-6.7-.9c3.7-4 9.6-.3 13.6-3.4z"/>
    <path fill="#201800" stroke="#201800" stroke-miterlimit="10.4" stroke-width=".1" d="M56.5 288.5h.5c8.5-.1 17-.2 25.4.3l1 2.6c-9.2-1.4-18.5-.6-27.7-.8z"/>
    <path fill="#201300" stroke="#201300" stroke-miterlimit="10.4" stroke-width=".1" d="M102.3 288.5c5.5-.1 11 .1 16.5-.4l2.6 2.7c-8.4.3-17 .4-25.4.4v-2l6.3-.7z"/>
    <path fill="#3a2f00" stroke="#3a2f00" stroke-miterlimit="10.4" stroke-width=".1" d="M212.2 289.2c6.8.4 13.6 0 20.4.3-3 .7-6 1.7-9 2.6l-11-.6c-.2-.5-.3-1.7-.4-2.3z"/>
    <path fill="#d7a824" stroke="#d7a824" stroke-miterlimit="10.4" stroke-width=".1" d="M263.3 289.3c4.9 0 9.8-.2 14.7.1l-.8 8-1.3-.5-1.3 1.7-4.5-1.2 1.3 5.3-7.9-.8-1.7 3.5a21 21 0 0 0-8.6 1.5l5 1.2c-.5.5-1.3 1.6-1.8 2a117.2 117.2 0 0 1-18.4-1.3l5-2.5c.3-5 .2-10.3-2.8-14.6 4.1 0 8.3 0 12.4-.4l4-.3c1.3 1.6 2.4 3.2 3.5 5l.5-4.4c3.5 0 7 0 10.5-.5-2.3-1.4-5.1-1.6-7.8-1.8zM250 305.1c-1.2 1.2.7 3.5 2 2.2s-.7-3.4-2-2.2z"/>
    <path fill="#e0bf25" stroke="#e0bf25" stroke-miterlimit="10.4" stroke-width=".1" d="M35.5 290.3l17.7.2 1.2 2.7 1.3-2.6c9.2.2 18.6-.6 27.7.8l2 .6c-3.2 1.7-6.6 3-9.6 5 2 2.1 3.5 5.4 6.7 5.4 2.4.3 3.5-2.1 4.9-3.6-3.2.8-6.5 1-9-1.2l8.4-2.2c2.8 4.6 5.6 9.1 8 14H83.8v1.2c9.4 0 18.7-.2 28-.4l.2 2.3-5.3.5-.1 3.7-3.5-1 1.1-2.9-5.1-.3-.4 2.6-2 2.2-.8-2.3a39.8 39.8 0 0 1-14.4 2.4c-1-1.6-1.4-4.6-3.8-4.6-5.7-.2-11.3 0-17 0l-3.8 4.8c-2.8 0-5.5 0-8.3-.2l3-5.3-4.6 2.6-.3-.8-1-2.1 1-1.8c-1-2 .2-3.8.8-5.7l-3.7.6c-3.7-.3-7.5-.7-11-2.1a21.5 21.5 0 0 1-.7-3.5 41 41 0 0 0 5.3-3l-1.8-6zm27.2 3.2l1 3.5 3.4-.1a32.7 32.7 0 0 0-4.4-3.4zm1.8 10.9c-2.5 0-5.1-.2-7.5.9 6.2.5 12.3 0 18.5 0a120.5 120.5 0 0 0-5.4-11.8 64 64 0 0 0-5.6 10.9zm23.2-1c-1.8.3-1.3 3.3.5 2.6 1.8-.3 1.3-3.3-.5-2.7zm-35.1 1c-1.6 1.4 1 3.4 2.3 2 1.5-1.4-1-3.3-2.3-2zm27.3-.4c.2 2.5 2.8 2.4 4.7 3l-1-3.2zm-31.5 5.6c5.7 1.4 11.6.6 17.3.7-5.6-1.5-11.5-.8-17.3-.7zm18.7-.4a6.8 6.8 0 0 0 8.7 0 40 40 0 0 0-8.7 0zm9.9-.2c.5 2.1 2.7 1.8 4.3 2l.2-2.2-4.5.2z"/>
    <path fill="#ead420" stroke="#ead420" stroke-miterlimit="10.4" stroke-width=".1" d="M312.2 303c2.6-4.4 5.5-8.7 8-13.2l1 1 .7.4 1.2 1a54.7 54.7 0 0 0 10.4 1.2l-1.9 4-1.9-.4a2.2 2.2 0 0 0-3.1 1c.4 1.2 1.3 1.5 2.7.8-2.2 1.2-4.8 1.5-7.3 2l1.6 4.4a29.5 29.5 0 0 0-10.8.5l-.6-2.7z"/>
    <path fill="#695402" stroke="#695402" stroke-miterlimit="10.4" stroke-width=".1" d="M341 290.3c1-1.4 3.4.2 2.3 1.7s-3.5-.3-2.4-1.7z"/>
    <path fill="#2f2700" stroke="#2f2700" stroke-miterlimit="10.4" stroke-width=".1" d="M391.7 290.8c4.2.2 8.4-1 12.7-.7 10.3.7 20.6 0 30.9.3a20 20 0 0 0-5.6 2.7c-5.7-1-11.6-.7-17.4-1-3-.2-6-.6-9-.6a55.6 55.6 0 0 1-11.8 1l.2-1.7z"/>
    <path fill="#281a00" stroke="#281a00" stroke-miterlimit="10.4" stroke-width=".1" d="M449 292.3c3.3-3.1 8.1-1.6 12.2-2l.1 2.5c-4 0-8.2-.2-12.2-.5z"/>
    <path fill="#4f3d00" stroke="#4f3d00" stroke-miterlimit="10.4" stroke-width=".1" d="M629.6 290.3l7.2 1.5.7 1.9h-8l.1-3.4z"/>
    <path fill="#d5a329" stroke="#d5a329" stroke-miterlimit="10.4" stroke-width=".1" d="M3.2 290.5c5.6-.2 11.3-.2 17 0v8.7a116.5 116.5 0 0 0 11.8.2 21.5 21.5 0 0 0 .7 3.4c3.5 1.4 7.3 1.8 11 2.2-4.5 2-9.5 1.3-14.3 1.5-2 .3-3.7-1.2-5.4-2.2l.2 2c-3-.2-5 2-7.5 3.4l3.4.5v7.4H3.4a94 94 0 0 1-.1-11.5l6 .2-2.2-2.7-3.9.9v-14zm25.5 12.4c-1.7.4-.7 3 .9 2.3 1.7-.4.7-3-.9-2.3zM15 305c-1.2 1.4 1.4 3 2.4 1.5 1.2-1.5-1.5-3-2.4-1.6zM4 310c3.3 0 7.4 1 10.1-1-3.3-.1-7.6-1.6-10.1 1z"/>
    <path fill="#d5a72a" stroke="#d5a72a" stroke-miterlimit="10.4" stroke-width=".1" d="M96 291.2c8.5 0 17-.1 25.4-.3a92.9 92.9 0 0 1 11 13.1c-.3-4.4-.4-8.8-.4-13.2l4.5-.2-2 4 6.3-.8 1.4 4.5 4 1.2 1.6 4.7.1 5.4c-8.7-.2-17.5.2-26.2-.2l-1.7-2.6 6.8-.7c-3-.5-6-.5-8.9-1.7-2.5-1.8-3.9-4.7-6.1-6.8-1.5-1.2-3.5-1.7-5.3-2.3 1.7 1 3.4 1.9 5.2 2.7l.3 6.6-5.7.2c2.5.8 5 2 6.3 4.6a133.8 133.8 0 0 1-16.4.2c-.2-6.2-.2-12.3-.2-18.4zm19 4.8c-1 1.3 1.3 2.8 2.2 1.5s-1.4-2.8-2.2-1.5zm-16.2 8.3c-1.5 1 .2 3.4 1.7 2.3 1.4-1-.3-3.5-1.7-2.3zm35.3 2.5a61.5 61.5 0 0 0 9 .1c-1.9-3.6-7.1-3.5-9 0zm-5.2-1.6c-1.1 1.3 1.3 2.8 2.1 1.4 1.1-1.4-1.3-2.8-2.2-1.4z"/>
    <path fill="#ead527" stroke="#ead527" stroke-miterlimit="10.4" stroke-width=".1" d="M136.5 290.6c3.8-.1 7.6 0 11.4.1v13.5l-1.7-4.7-4-1.2-1.3-4.6-6.3.9z"/>
    <path fill="#d49b25" stroke="#d49b25" stroke-miterlimit="10.4" stroke-width=".1" d="M190.6 291.6l11 .1 1.5 2.1a16.4 16.4 0 0 1 7.3-2.8c1.8 3 5.3 2.8 8.3 3-1.7 3.6-1 7.7-.8 11.6a46.8 46.8 0 0 1-5.3-.6l1 2.3-3.2-1.1a44.6 44.6 0 0 0-6.4-2 127 127 0 0 0-4.3-.8l.8 4.2a86.2 86.2 0 0 1-12 0c3.3-4 .7-8.9-.3-13l2.4-3zm22 4.7c-1.3 0-1.7 2.4-.1 2.4s1.7-2.3.2-2.4z"/>
    <path fill="#e2c925" stroke="#e2c925" stroke-miterlimit="10.4" stroke-width=".1" d="M293 292.2c5.6-.5 11.3-.6 17-1 0 3.2 0 7.2-3.2 9-3.5 2-7.3 3.8-9.2 7.6l4-.9a38.3 38.3 0 0 0 4.6 4.3c3.4.8 6.9.2 10.4.2l.9 1.8-15 1.1 2.9 3.1h-9.7l-.4-3.5-4.5 1.3-7.2-9h6.2a29 29 0 0 0-13.4-.8 25.7 25.7 0 0 1 1 4.5c-3.4.8-7 .6-10.4 1a100.7 100.7 0 0 0 10.3.4v6c-5.7.1-11.3.2-17 0l.2-5.2 5.3-1.4-5.6-.7 2.9-4.6h-1.3l1.7-3.4 7.8.7-1.2-5.3 4.5 1.2 1.2-1.7 1.4.6c4.8 2 10.2 1 15-.5.4-1.6.6-3.2.8-4.8zm7.5 5q-.8 2.3 1.7 1.5.8-2.4-1.6-1.6zm-31 8c-2 .4-1.1 3.6.8 3 2-.4 1.1-3.5-.7-3zm24 4.8q-.8 2.5 1.7 1.7c.5-1.6 0-2.2-1.6-1.6zm-22.8 3.9l-1.4.8c-1 2 2.8 1.8 3.5.6 1-1.3-1.2-2-2-1.4z"/>
    <path fill="#dec042" stroke="#dec042" stroke-miterlimit="10.4" stroke-width=".1" d="M391.5 292.4a55.6 55.6 0 0 0 11.9-.9c-.4 8.6-.4 17.2-.2 25.7-2.8.3-5.7.3-8.5.4l-8.5-.4 5.6-.4 2.6-.1 7.8-.1v-2.8a123.7 123.7 0 0 0-.8-18.8c-3-.3-6.2-.8-9.3-.3-2 .5-3.5 2-5 3.3l-.7-3.4-.1-2.3 5.2.1z"/>
    <path fill="#272721" stroke="#272721" stroke-miterlimit="10.4" stroke-width=".1" d="M598.8 291.6c2.9-.4 5.8.9 8.7.4l1.9 1.7a153.2 153.2 0 0 0-16.2-.2l5.6-2z"/>
    <path fill="#715c01" stroke="#715c01" stroke-miterlimit="10.4" stroke-width=".1" d="M701.7 291.7c1.2-1.3 3.6.8 2.4 2.2s-3.7-.8-2.4-2.2z"/>
    <path fill="#402900" stroke="#402900" stroke-miterlimit="10.4" stroke-width=".1" d="M802.2 293.7l.8-2.3 6.8 1.5.5 1.9-8-1.1z"/>
    <path fill="#bb9817" stroke="#bb9817" stroke-miterlimit="10.4" stroke-width=".1" d="M85.3 292l1.5 3.4c-2.8.9-5.7 1.5-8.5 2.2 2.6 2.3 6 2 9 1.3-1.3 1.4-2.4 3.9-4.8 3.5-3.3 0-4.8-3.3-6.7-5.4 3-2 6.4-3.3 9.5-5z"/>
    <path fill="#daba23" stroke="#daba23" stroke-miterlimit="10.4" stroke-width=".1" d="M152.2 291.5c5.5-.2 11-.2 16.5 0q.5 9 .1 17.8l-7.7-.2.7-.4c2-.8 1.2-3.5-.6-3.9l-2.8-1.5V299l-4.3 3.7-1.7-6-.2-5.2z"/>
    <path fill="#daaf22" stroke="#daaf22" stroke-miterlimit="10.4" stroke-width=".1" d="M412.3 292.1c5.8.3 11.7 0 17.4 1-3.2 3.9-3 8.9-1.4 13.4l-1 2-3.4-1.2-3.6-1.2-2.6-1-2.6 4.2-2.9-1c-3-5-2.5-11 .1-16.2z"/>
    <path fill="#e4cf20" stroke="#e4cf20" stroke-miterlimit="10.4" stroke-width=".1" d="M484.4 292.7c3.8-.2 7.6-.4 11.4-1L501 305c1.4-4.2 3-8.3 4.6-12.4a89.4 89.4 0 0 1 12.9.5c.5 8 .9 16.1 0 24.2h-.8c.4-7.7.2-15.4 0-23-3 5.5-5.4 11.3-7.8 17.1a38.6 38.6 0 0 0-5.8.5l5.1.6-1 2.4c-4.8.1-9.1 2.2-13.8 2.6-3.2-8.4-7.5-16.3-10-25zm11.2 13.6c-1.6 0-1.8 2.7-.1 2.7s1.8-2.7.1-2.7zm12.4-.3q-.6 2.1 1.5 1.4.6-2-1.5-1.4z"/>
    <path fill="#e4ca1f" stroke="#e4ca1f" stroke-miterlimit="10.4" stroke-width=".1" d="M535.1 298.3a59.6 59.6 0 0 1 2.8-6.2c5.4.7 11 0 16.2 2.3-1.8 3-2.7 6.8-1 10 1.2 3.8 5.4 4.9 8.9 5.7 1 2.8 3.7 3.4 6.5 3.5l-3-3.8a11 11 0 0 0 10.2-6.8l1-6a25.4 25.4 0 0 0 6.7.2c2.1-.7 3.7-2.4 5.5-3.7h3a43 43 0 0 1 1 10.7 21 21 0 0 1-11 11l-10.2 3.1c-7.8.8-15.9.7-23.4-1.9a22.2 22.2 0 0 1-10.9-8.4c-1.8-2.9-1.8-6.4-2.3-9.7zm42.7 7.6l-1.5 3.2 4.4.8-3-4zm-34 2.3c-1.2 1.4 1.4 3 2.4 1.6 1.2-1.5-1.4-3.1-2.4-1.6zm5.6 2.6v2.4c2.2 0 4.4-.2 6.7-.4-1.4-2.3-4.4-1.6-6.7-2zm22.6 1.3c.2 1.4.8 1.7 2 .8-.2-1.5-.8-1.7-2-.8zm7.7 0"/>
    <path fill="#624a08" stroke="#624a08" stroke-miterlimit="10.4" stroke-width=".1" d="M639.9 292.3l1.9.1a47.4 47.4 0 0 0 9-.2 32.3 32.3 0 0 1 4 1l-7.2.7h-2.9v17.6l6 1.9h-5.5c-.3 1-1 2.8-1.2 3.8h-.8v-2c.5-6.2 1.4-12.6-.4-18.7-.8-1.4-1.9-2.9-3-4.3z"/>
    <path fill="#564402" stroke="#564402" stroke-miterlimit="10.4" stroke-width=".1" d="M680.3 293c.6-1.2 1.6-1.5 2.9-.7l-.1 1.8c-1.4.6-2.4.2-2.8-1.1z"/>
    <path fill="#e3c21f" stroke="#e3c21f" stroke-miterlimit="10.4" stroke-width=".1" d="M683.2 292.2l.7.3c3.8 1.6 8 1 12 1.1l-7.1 1.7c2.8 1.2 5.8 2.3 7.8 4.6 3 3.5 5.3 7.7 8 11.4v-3a5 5 0 0 0 6.4.5l.8 3c-3.6.2-7.3.4-11 .8-4.3-2.8-6.3-7.6-9-11.7l-.2-.9a79.4 79.4 0 0 1-8.4 3.9l5.6 6.2q-1 3.7-2.2 7.3l-4.1-.2-.1-2.6-.1-2.5-4.3.4h-1.4l-3.8.3c-2.2-2.5-4-5.3-7-7.1a42.9 42.9 0 0 0-4.6-.4v7.5c-2.6-.1-5-.4-7.6-.6l.9 1.3-3.8-.1-6-1.9V294l2.9-.1.8 1.2-2.1 6.8c5.2.6 11.7 1.6 15.3-3.3 5.4-.5 12.6 1.4 15.8-4.3 1.8.2 3.6.5 5.5.6l.2-.8v-1.9z"/>
    <path fill="#8c7705" stroke="#8c7705" stroke-miterlimit="10.4" stroke-width=".1" d="M62.7 293.5a32.7 32.7 0 0 1 4.3 3.4h-3.4l-1-3.4z"/>
    <path fill="#dbab22" stroke="#dbab22" stroke-miterlimit="10.4" stroke-width=".1" d="M392.1 294.6c3.1-.4 6.2.1 9.3.4a123.7 123.7 0 0 1 .9 18.8l-7 .5-.9 2.4h-2.6l-.9-2.4-3.1-.4 5.3-3-5.3-.8a71.3 71.3 0 0 0-.8-12.1c1.6-1.2 3.1-2.8 5.1-3.4zm6.3 15.5l.4 3.1a11.2 11.2 0 0 0 3.3-3z"/>
    <path fill="#bf9c3d" stroke="#bf9c3d" stroke-miterlimit="10.4" stroke-width=".1" d="M386.4 294.6l.6 3.4a71.3 71.3 0 0 1 .8 12.1l5.3.9-5.3 2.9 3.1.4 1 2.5c-2 0-3.8.2-5.7.4.1-7.5 0-15 .2-22.6z"/>
    <path fill="#a2830d" stroke="#a2830d" stroke-miterlimit="10.4" stroke-width=".1" d="M455.6 295c1.6-.7 2.5 1.9.9 2.3-1.6.7-2.5-2-.9-2.4z"/>
    <path fill="#8a6703" stroke="#8a6703" stroke-miterlimit="10.4" stroke-width=".1" d="M115 296c.9-1.3 3.2.2 2.2 1.5s-3.3-.1-2.2-1.5z"/>
    <path fill="#8d5b03" stroke="#8d5b03" stroke-miterlimit="10.4" stroke-width=".1" d="M212.7 296.3c1.5 0 1.2 2.5-.2 2.4s-1.2-2.5.2-2.4z"/>
    <path fill="#7d6e00" stroke="#7d6e00" stroke-miterlimit="10.4" stroke-width=".1" d="M300.6 297.1q2.4-.8 1.6 1.6-2.4.9-1.6-1.6z"/>
    <path fill="#7b6805" stroke="#7b6805" stroke-miterlimit="10.4" stroke-width=".1" d="M326.6 297.9a2.2 2.2 0 0 1 3.1-1l-.4 1.9c-1.4.7-2.3.4-2.7-.9z"/>
    <path fill="#c89c30" stroke="#c89c30" stroke-miterlimit="10.4" stroke-width=".1" d="M329.7 297l2 .4-3.3 7.2c2.6.5 5.3.9 7.9 1.5a79 79 0 0 0-2.4 2l-6.5 1.4-2.4 3.4a22.4 22.4 0 0 1-3.8 4.2c-5.2 1-10.5.2-15.8.4l-2.8-3.1 15-1.2-1-1.8c-2.7-1-5.7-.9-8.5-1.2l4.1-7.1.6 2.6a29.5 29.5 0 0 1 10.8-.5l-1.6-4.4c2.5-.5 5-.8 7.3-2 0-.5.3-1.4.4-1.8zm-7.8 13.3c-1.2 1.4 1.4 3 2.4 1.6 1.2-1.6-1.4-3.1-2.4-1.7z"/>
    <path fill="#e6cd1a" stroke="#e6cd1a" stroke-miterlimit="10.4" stroke-width=".1" d="M732.4 302c.7-1.2 1.4-3 3.1-3.1 5-1 9.7 1.3 13.8 3.6-1.2 4.9-4.4 11.3-10.4 10.4l-3-.1a81.1 81.1 0 0 0-9.8-.6l1.7-3a35.4 35.4 0 0 0 4.6-7.2zm5 6.7l-.9 2.1 7.3-.1a12.2 12.2 0 0 0-1.7-3 23.3 23.3 0 0 0-4.6 1z"/>
    <path fill="#dcbc39" stroke="#dcbc39" stroke-miterlimit="10.4" stroke-width=".1" d="M691.8 300.9c2.7 4 4.8 8.9 9 11.6 3.6 1.9 7.7 1.8 11.6 1.8l-.6-2.5-.8-3c0-.4-.4-1.3-.5-1.8 5.2 3.3 11.4 3.1 17.3 2.1l-1.7 3a5.6 5.6 0 0 0-3 1.7c4.2.3 8.8 1.1 12.7-1h3l.6 2.3c-4.3 1.2-8.5 2.7-13 3.3-4 .7-7.7-1.4-11.6-.7-10.3 1-22.4-5.6-23-16.8zm21.8 11.3c-.5 1.6 0 2.2 1.7 1.7.5-1.7 0-2.2-1.7-1.7zm2.6 0c.7 2.6 3.8 1.7 5.8 2-.2-3.2-3.8-1.8-5.8-2z"/>
    <path fill="#946211" stroke="#946211" stroke-miterlimit="10.4" stroke-width=".1" d="M28.7 302.9c1.6-.7 2.6 1.9.9 2.3-1.6.7-2.6-1.9-.9-2.3z"/>
    <path fill="#936c08" stroke="#936c08" stroke-miterlimit="10.4" stroke-width=".1" d="M87.7 303.3c1.8-.6 2.3 2.4.5 2.7-1.8.7-2.3-2.4-.5-2.7z"/>
    <path fill="#745503" stroke="#745503" stroke-miterlimit="10.4" stroke-width=".1" d="M79.9 304l3.7-.2 1 3.1c-1.9-.5-4.5-.4-4.7-2.9z"/>
    <path fill="#784907" stroke="#784907" stroke-miterlimit="10.4" stroke-width=".1" d="M98.8 304.3c1.4-1.2 3.1 1.3 1.6 2.3-1.4 1.2-3.2-1.3-1.6-2.3z"/>
    <path fill="#714c0d" stroke="#714c0d" stroke-miterlimit="10.4" stroke-width=".1" d="M134 306.8c2-3.4 7.2-3.5 9 .1a61.5 61.5 0 0 1-9 0z"/>
    <path fill="#563d04" stroke="#563d04" stroke-miterlimit="10.4" stroke-width=".1" d="M154 303.6a11.8 11.8 0 0 1 5.5 2.5 28.8 28.8 0 0 1-5 .5l-.5-3z"/>
    <path fill="#865c07" stroke="#865c07" stroke-miterlimit="10.4" stroke-width=".1" d="M14.9 305c1-1.4 3.6.1 2.4 1.6-1 1.5-3.6 0-2.4-1.6z"/>
    <path fill="#8b6105" stroke="#8b6105" stroke-miterlimit="10.4" stroke-width=".1" d="M128.8 305.2c.9-1.4 3.3 0 2.2 1.4-.9 1.4-3.3 0-2.2-1.4z"/>
    <path fill="#9b720b" stroke="#9b720b" stroke-miterlimit="10.4" stroke-width=".1" d="M161.2 304.9c1.8.3 2.6 3 .6 3.8a4.7 4.7 0 0 1-.6-3.8z"/>
    <path fill="#684d04" stroke="#684d04" stroke-miterlimit="10.4" stroke-width=".1" d="M250 305.1c1.3-1.2 3.2 1 2 2.2s-3.2-1-2-2.2z"/>
    <path fill="#8e8208" stroke="#8e8208" stroke-miterlimit="10.4" stroke-width=".1" d="M269.6 305.3c1.8-.6 2.7 2.5.8 2.8-2 .7-2.8-2.5-.8-2.9z"/>
    <path fill="#8e6706" stroke="#8e6706" stroke-miterlimit="10.4" stroke-width=".1" d="M351 305.2c2.3-.7 1.7 3.6-.3 3.4-1.6-.5-1-2.8.2-3.4z"/>
    <path fill="#cb942a" stroke="#cb942a" stroke-miterlimit="10.4" stroke-width=".1" d="M417.7 305.2l2.6.9.8 2.7 2.8-1.5 3.4 1.2 1-2a22.1 22.1 0 0 0 11.8 3.6v2.8l1.8-1.7 1.8.3c4.7 1.1 10 2.3 14.4-.4h4.6c-8 7.6-19.8 8.2-30.2 7.3-7.5-1.2-15.9-3.2-20.2-10l2.8 1 2.6-4.2z"/>
    <path fill="#975b0c" stroke="#975b0c" stroke-miterlimit="10.4" stroke-width=".1" d="M420.3 306.1l3.6 1.3-2.8 1.4z"/>
    <path fill="#806b02" stroke="#806b02" stroke-miterlimit="10.4" stroke-width=".1" d="M495.6 306.3c1.7 0 1.5 2.8-.1 2.7s-1.5-2.7.1-2.7z"/>
    <path fill="#938000" stroke="#938000" stroke-miterlimit="10.4" stroke-width=".1" d="M508 306q2.1-.7 1.5 1.4-2.1.7-1.5-1.4z"/>
    <path fill="#a28904" stroke="#a28904" stroke-miterlimit="10.4" stroke-width=".1" d="M577.8 305.9l2.9 4-4.4-.8 1.5-3.2z"/>
    <path fill="#916d03" stroke="#916d03" stroke-miterlimit="10.4" stroke-width=".1" d="M470.8 307.3q2.4-.8 1.6 1.6-2.4.8-1.6-1.6z"/>
    <path fill="#bca714" stroke="#bca714" stroke-miterlimit="10.4" stroke-width=".1" d="M737.5 308.7a23.3 23.3 0 0 1 4.6-1 12.2 12.2 0 0 1 1.7 3l-7.3.1z"/>
    <path fill="#462c00" stroke="#462c00" stroke-miterlimit="10.4" stroke-width=".1" d="M228.4 310.3c3.2-.3 6.4-1 9.6-1.5a117.2 117.2 0 0 0 18.4 1.4l-1.4 1.5c-8.9-1-18 1-26.6-1.4z"/>
    <path fill="#a98908" stroke="#a98908" stroke-miterlimit="10.4" stroke-width=".1" d="M543.8 308.2c1-1.5 3.6.1 2.4 1.6-1 1.4-3.6-.2-2.4-1.6z"/>
    <path fill="#623f00" stroke="#623f00" stroke-miterlimit="10.4" stroke-width=".1" d="M4 310.1c2.5-2.6 6.8-1.1 10.1-1-2.7 2-6.8 1-10.1 1z"/>
    <path fill="#847508" stroke="#847508" stroke-miterlimit="10.4" stroke-width=".1" d="M67 309.2a40 40 0 0 1 8.8 0 6.8 6.8 0 0 1-8.7 0z"/>
    <path fill="#a7950a" stroke="#a7950a" stroke-miterlimit="10.4" stroke-width=".1" d="M77 309l4.5-.1-.2 2.1c-1.7-.2-3.9.1-4.3-2z"/>
    <path fill="#78580e" stroke="#78580e" stroke-miterlimit="10.4" stroke-width=".1" d="M211 311c1.8-1.6 5.6-3.4 6 .2l-6-.2z"/>
    <path fill="#d6b741" stroke="#d6b741" stroke-miterlimit="10.4" stroke-width=".1" d="M773.5 311.7c1.5-.6 3-1.4 4.5-2.2l-3.2 8h-8l.8-3.4c2.2.2 4.5.2 6.8.3l-.9-2.7z"/>
    <path fill="#be9344" stroke="#be9344" stroke-miterlimit="10.4" stroke-width=".1" d="M40 317.5c1.4-2.8 3-5.5 4.5-8.1l2.1.6-1 1.8a26.3 26.3 0 0 1 2.2 5.8l-7.8-.1z"/>
    <path fill="#745007" stroke="#745007" stroke-miterlimit="10.4" stroke-width=".1" d="M218 309.8c2.7 0 6-.4 8 1.2-2.6.2-6.8 2.4-8-1.2z"/>
    <path fill="#98760a" stroke="#98760a" stroke-miterlimit="10.4" stroke-width=".1" d="M293.6 310c1.6-.5 2.1 0 1.6 1.7q-2.4.8-1.6-1.6z"/>
    <path fill="#83570a" stroke="#83570a" stroke-miterlimit="10.4" stroke-width=".1" d="M322 310.2c1-1.4 3.5.1 2.3 1.6-1 1.4-3.6-.1-2.4-1.6z"/>
    <path fill="#6f4f04" stroke="#6f4f04" stroke-miterlimit="10.4" stroke-width=".1" d="M325 312.8l2.4-3.3c3.1.6 6 1.9 9.2 2.2 3.7-.4 7.3-1.6 11-1.4l.5 1.4-6 .9a80.3 80.3 0 0 1-17.1.2z"/>
    <path fill="#c69333" stroke="#c69333" stroke-miterlimit="10.4" stroke-width=".1" d="M347.6 310.3l2.7.2-.3 1.2 6.3-.3 1.1-.8 1.5-1.1c1.5 2.5 3 5.1 4.3 7.8-5.9.3-11.8.1-17.6.2l-3.5-5 6-.8z"/>
    <path fill="#aa780e" stroke="#aa780e" stroke-miterlimit="10.4" stroke-width=".1" d="M398.4 310.1l3.7.1a11.2 11.2 0 0 1-3.3 3z"/>
    <path fill="#9c8527" stroke="#9c8527" stroke-miterlimit="10.4" stroke-width=".1" d="M562 310.1l3.4-.2 3 3.7c-2.7 0-5.4-.7-6.4-3.5z"/>
    <path fill="#c9ae4f" stroke="#c9ae4f" stroke-miterlimit="10.4" stroke-width=".1" d="M688.8 310.1l6.1 6.5-8.2.7 2.1-7.2z"/>
    <path fill="#d6ab30" stroke="#d6ab30" stroke-miterlimit="10.4" stroke-width=".1" d="M123.8 311.5c7.8-2 16-.3 24-1v2.8l-8.8.2c0 .5-.3 1.4-.4 1.9l5 1a64.9 64.9 0 0 1-14.6.7h-1v-3.2l4.5-.3c-3-.2-6.2-.2-8.7-2.1zm11.2 1.7c-1 1.2 1.1 2.5 2 1.3 1-1.2-1.2-2.5-2-1.3z"/>
    <path fill="#987008" stroke="#987008" stroke-miterlimit="10.4" stroke-width=".1" d="M443.7 311.5a78.7 78.7 0 0 1 14.3-.4c-4.3 2.6-9.6 1.5-14.3.4z"/>
    <path fill="#a6880c" stroke="#a6880c" stroke-miterlimit="10.4" stroke-width=".1" d="M473 311.3c2.5-.3 5-.2 7.6-.3l-1.4 2.1c-2.2-.1-4.5-.3-6.3-1.8z"/>
    <path fill="#bfa606" stroke="#bfa606" stroke-miterlimit="10.4" stroke-width=".1" d="M521 312.8c1.2-2.4 4.3-1.5 6.5-1.9v2.4l-6.5-.5z"/>
    <path fill="#ae8f07" stroke="#ae8f07" stroke-miterlimit="10.4" stroke-width=".1" d="M549.4 310.8c2.3.4 5.3-.3 6.7 2l-6.8.4.1-2.4z"/>
    <path fill="#6e570c" stroke="#6e570c" stroke-miterlimit="10.4" stroke-width=".1" d="M99 312.5l5.2.3c-.3.8-1 2.2-1.2 3l-4.4-.7z"/>
    <path fill="#ac8e3a" stroke="#ac8e3a" stroke-miterlimit="10.4" stroke-width=".1" d="M106.6 313l5.3-.5v5.2l-5.5-1z"/>
    <path fill="#7f6200" stroke="#7f6200" stroke-miterlimit="10.4" stroke-width=".1" d="M572 312.1c1.2-1 1.8-.7 2 .8-1.2.9-1.8.6-2-.8z"/>
    <path fill="#d2bb47" stroke="#d2bb47" stroke-miterlimit="10.4" stroke-width=".1" d="M676.6 312.5h1.4c1.5.6 3 1.3 4.4 2.1l.1 2.5c-1.9 0-3.8.5-5.7 0a32.4 32.4 0 0 1-3-2.8l2.8-1.8z"/>
    <path fill="#977503" stroke="#977503" stroke-miterlimit="10.4" stroke-width=".1" d="M678 312.4l4.3-.3.1 2.5-4.4-2.2z"/>
    <path fill="#8f6e06" stroke="#8f6e06" stroke-miterlimit="10.4" stroke-width=".1" d="M700.9 312.5c3.6-.4 7.3-.6 11-.7l.5 2.5c-3.9 0-8 0-11.5-1.8z"/>
    <path fill="#9b7501" stroke="#9b7501" stroke-miterlimit="10.4" stroke-width=".1" d="M713.6 312.2c1.6-.5 2.2 0 1.7 1.7-1.7.5-2.2 0-1.7-1.7z"/>
    <path fill="#896d06" stroke="#896d06" stroke-miterlimit="10.4" stroke-width=".1" d="M716.2 312.2c2 .2 5.6-1.2 5.8 2-2-.3-5 .5-5.8-2z"/>
    <path fill="#8b7503" stroke="#8b7503" stroke-miterlimit="10.4" stroke-width=".1" d="M723 313.8a5.6 5.6 0 0 1 3.1-1.6 81.1 81.1 0 0 1 9.7.6c-4 2.1-8.5 1.3-12.8 1z"/>
    <path fill="#a87e0c" stroke="#a87e0c" stroke-miterlimit="10.4" stroke-width=".1" d="M767 312.9l6.5-1.2.9 2.7c-2.3-.1-4.6-.1-6.8-.3z"/>
    <path fill="#816702" stroke="#816702" stroke-miterlimit="10.4" stroke-width=".1" d="M135 313.2c.8-1.2 3 .1 2 1.3-.8 1.2-3-.1-2-1.3z"/>
    <path fill="#6d4701" stroke="#6d4701" stroke-miterlimit="10.4" stroke-width=".1" d="M166.7 313.1c2.1-.8 2.5 2.5.6 2.8-2.2.8-2.5-2.5-.6-2.8z"/>
    <path fill="#825410" stroke="#825410" stroke-miterlimit="10.4" stroke-width=".1" d="M170.9 313.3c1-1.6 3.5 0 2.3 1.6-1 1.5-3.5-.2-2.3-1.6z"/>
    <path fill="#8a752f" stroke="#8a752f" stroke-miterlimit="10.4" stroke-width=".1" d="M174.3 313.3c5 1.6 10.2 1 15.2-.3a320 320 0 0 0-2.8 4.3c-11.3.9-22.8.3-34.2.4l-.7-2.5 3.6.7c7.5 1.6 15.3 1 23 1.3l-4.1-4z"/>
    <path fill="#e6db33" stroke="#e6db33" stroke-miterlimit="10.4" stroke-width=".1" d="M622.4 313.3l5.1.1-.6 2.2 5 .7-2.2-3c4.5.3 9.8-1.4 13.5 2v2c-5.8 0-11.7.5-17.5-.1a31.8 31.8 0 0 1-3.4-4z"/>
    <path fill="#ddbd43" stroke="#ddbd43" stroke-miterlimit="10.4" stroke-width=".1" d="M645.2 313.4h9.3c2.3 0 4.5 0 6.8-.2l-.4 4.3c-5.6.1-11.3 0-16.9-.2l1.2-3.9z"/>
    <path fill="#8a6b07" stroke="#8a6b07" stroke-miterlimit="10.4" stroke-width=".1" d="M238.6 314c1.7-.5 2.2 0 1.7 1.7-1.6.5-2.2 0-1.7-1.7z"/>
    <path fill="#978408" stroke="#978408" stroke-miterlimit="10.4" stroke-width=".1" d="M270.8 313.9c.8-.5 3 .1 2 1.4-.7 1.2-4.5 1.4-3.5-.6z"/>
    <path fill="#9d7e2e" stroke="#9d7e2e" stroke-miterlimit="10.4" stroke-width=".1" d="M290.9 315.2l4.5-1.2.3 3.4-3 .2z"/>
    <path fill="#a87a1a" stroke="#a87a1a" stroke-miterlimit="10.4" stroke-width=".1" d="M395.3 314.3l7-.5-.1 2.7c-2.6 0-5.2 0-7.8.2l1-2.4z"/>
    <path fill="#e1bb48" stroke="#e1bb48" stroke-miterlimit="10.4" stroke-width=".1" d="M795.2 314.4c5-.4 10-.2 15-.2 0 .7-.4 2.3-.6 3-6 .2-12 .6-17.8 0-.5-.3-1.3-1.1-1.7-1.5 1.7-.5 3.4-1 5-1.3z"/>
    <path fill="#7b6a31" stroke="#7b6a31" stroke-miterlimit="10.4" stroke-width=".1" d="M81.4 317.4c4.8-.1 9.8-.6 14.3-2.4l.9 2.3 2-2.2 4.3.7c1.2.2 2.3.6 3.5.9l5.5 1c-10.1 0-20.4.8-30.5-.3z"/>
    <path fill="#87700d" stroke="#87700d" stroke-miterlimit="10.4" stroke-width=".1" d="M478.1 315c1.1-1 1.8-.7 2 .8-1.2.9-1.8.6-2-.8z"/>
    <path fill="#907e52" stroke="#907e52" stroke-miterlimit="10.4" stroke-width=".1" d="M494.4 317.6c4.7-.4 9-2.5 13.8-2.6l-.7 2.3c-4.4 1-8.8.4-13.1.3z"/>
    <path fill="#fff" stroke="#fff" stroke-miterlimit="10.4" stroke-width=".1" d="M16.4 7.5C15.2 1.8 22.7-1.8 27 1c2.5 1.6 3.9 4.5 4.6 7.2a6.7 6.7 0 0 1-3.9 3 11.7 11.7 0 0 0 1 2.8 2 2 0 0 0 1-2.8 10 10 0 0 1 2 1.2c1.3.4 3.6-.8 4 1.1.7-.5.7-1.5 1-2.4 1.2-.6 2.6 0 4 0a51.5 51.5 0 0 0 9.3.7c0 1 .3 2.1-.8 2.5a6.6 6.6 0 0 0-4 1l-1 1.4-.2 2.3c1.2.8 2.6.5 3.8.9 2 1.6 1.9 4.4 1.5 6.7a30.3 30.3 0 0 1-9.8-.9 5 5 0 0 0-3.9-1.4c-.4 4.2 2.4 8.7-.3 12.4.6 2.1 2.5 3.8 4.3 5 2.2 4 5.5 7.1 7.6 11.2l.4 8.2c.6 2.8 0 5.9 2.1 8.2l-.4 1.6c1.9 2.5 5.5 3.5 6.9 6.4a3.3 3.3 0 0 1-3.5 2c-2.3.3-4-1.4-5.7-2.6a7.1 7.1 0 0 1-2.7-1.4l.2-3.3c-3.2-2.8-4.6-7-6.1-10.8-3.1-2.5-3-7-6.1-9.5-2.4-1.8-4.8-4-7.8-4.8-3 1.9-6.4 3.7-7.8 7-1.8 1.1-3.5 2.6-4 4.8l-2.3 3.1A7.3 7.3 0 0 1 11 65a7.3 7.3 0 0 1-2.8.7l-2.1 2.7a10.1 10.1 0 0 1-4.5.7L0 68a3.3 3.3 0 0 1 1.3-2c1.8-1.4 3.4-3 5.1-4.6l-1.3-2.2 1.2-2.7c-.5-1-1-2.6.2-3.4.8-1 2.5-1.8 2.2-3.3 1-2.9 3-5 4.4-7.6l-2.4 1.3c-1.2-.2-1.2-2-.3-2.6l-1-1 1.9.5a30.4 30.4 0 0 0 4.2-4 35.7 35.7 0 0 1-1.8-10.6 7.8 7.8 0 0 1-3.3-7.7 7 7 0 0 0 1.7-2.2c2-.4 5.9-.2 5.7-3.1-2-.8-2.8-2.9-3-4.8l1.6-.5zm6.8 4.2c-2 1.5-.2 4.2 2 4 1.4-1 2-2.7.6-4zM63.1 33.3h44.3V42H90.8V70H79.3V42H63.1v-8.8zM232.2 34.5c4-1.7 8.6-1 12.9-1.4 5.3-.5 10.7.3 16.1.2 2.8.2 5.8 1 7.9 3 2.6 2.7 2.4 6.7 2.7 10.3-3.7 0-7.4-.2-11 0a3.7 3.7 0 0 0-3.5-4.3c-5-.3-10-.1-15 0-2.3-.3-5.3 1-5.5 3.7-.6 4.2-1 8.6.4 12.6 2 3 6 2.4 9.2 2.5 4.1-.2 8.4.5 12.4-.5 2-.6 1.8-2.8 2.4-4.4H272c0 2.7.3 5.5-.7 8.1-.8 3-3.7 4.8-6.6 5.3-8 1.3-16.3.6-24.4.8-3.8-.3-7.9-.7-11.1-3-3-2.3-3.7-6.4-3.8-10a70.5 70.5 0 0 1 .2-14.8 9.7 9.7 0 0 1 6.6-8.1zM278.1 33.3h9.4v36.6h-9.4V33.3zM454 33.3h11V46a6.5 6.5 0 0 1-4.5 6.4 36.6 36.6 0 0 1-8.1.7v-5.6l3.7-1a20.6 20.6 0 0 0 1.1-3.2H454V33.3zM178.2 48.4c2-4 6.9-4.6 10.9-4.8 4.7-.3 10 1.1 12.7 5.4 2.4 6.7 1 14 1.4 20.9h-9.6V56.8c-.2-1.7-.1-4.2-2.1-4.9a16.1 16.1 0 0 0-7.8-.5 4.4 4.4 0 0 0-4 4V70h-9.9c-.2-5.5.4-11-.3-16.5-.8-2.4-4-2.1-6-2.3-3-.1-7.2.4-7.7 4-.6 4.8-.1 9.8-.3 14.7h-9.4V44h9.4v4c2.6-4.7 8.7-4.6 13.3-4.4a12.8 12.8 0 0 1 9.4 4.8zM295 48.3c2-3.3 6-4.3 9.5-4.4 5.9-.2 11.9-.8 17.7.4a7.4 7.4 0 0 1 5.9 7.2c.2 6.1 0 12.3 0 18.4h-9.5c0-1.7.2-3.3.4-5-1 4-5.5 5.6-9.2 5.5-4.8-.3-10 .8-14.2-2-2.5-2-2.3-5.4-2.1-8.2a6.2 6.2 0 0 1 3.8-5.7c4.7-1.7 9.7-.9 14.5-1a9.2 9.2 0 0 1 4.4.8l2.4 1.4a10.2 10.2 0 0 0-.8-4.7c-1.4-1.4-3.5-1.1-5.3-1.2-2.6.1-5.3-.4-7.8.4l-1 1.5c-3.1.2-6.2 0-9.3 0l.6-3.4zm8 12v2.4c.9.6 1.6 1.6 2.7 1.6 3.9 0 7.8.4 11.6-.7a8.2 8.2 0 0 0 1.4-2A3.7 3.7 0 0 0 316 59a56.9 56.9 0 0 0-10.8.2 4.5 4.5 0 0 0-2.2 1.1zM344.2 48.4c1.4-2.8 4.4-4.3 7.5-4.6 4.3-.3 9-.7 13 1.3a9 9 0 0 1 5 7.7c.3 5.7 0 11.4.2 17h-9.5c-.2-4.7 0-9.5 0-14.3a4 4 0 0 0-4-4c-3.2-.2-6.6-.8-9.4.8a5.6 5.6 0 0 0-2.9 5.2V70h-9.5V44h9.5v4.4zM384.5 44.2a69 69 0 0 1 17.7-.1c2.5.3 5.3 1 6.9 3.2a10 10 0 0 1 1.7 7.1h-9.5c-.8-3.5-5-3.3-8-3.4-2.6.3-6.4-.2-7.7 2.8-.7 3-1 8 2.8 8.9 2.7.6 5.6.2 8.4.3a4.3 4.3 0 0 0 4.7-3.5h9.5c.3 3.5-.8 7.7-4.4 9.2-5.7 2.4-12 1.6-17.9 1.7-3.5-.5-7.6-.5-10.4-3.2-2.3-2-2.6-5.4-3-8.3a20.5 20.5 0 0 1 1.7-10.4c1.4-2.8 4.6-3.9 7.5-4.3zM469.6 46c2.1-2 5.2-2.1 8-2.3 5.7-.2 11.4-.4 17 .3 2.4.4 5 1.2 6.2 3.4.8 1.2.6 2.8.8 4.2h-9.8l-.8-1.3c-3.4-1.1-7-.7-10.6-.8-1.1-.1-2 .8-2.8 1.3l.3 1.7c2.2 1.3 4.8.8 7.2 1 4.4.1 9-.5 13.2.9a6.7 6.7 0 0 1 4.4 5.1c.3 3 0 6.6-2.3 8.7-3.3 2.2-7.4 2.3-11.2 2.2-6-.2-12 .5-17.7-1.2-3.2-1-4.7-4.5-4.6-7.7h10l.9 2c3.6 1.4 7.6.7 11.4.9 1.6.1 3.7-.8 3.6-2.7-.2-1-1.4-1.3-2.2-1.4-5.7-.4-11.4.2-17-.8-2.8-.4-5.6-2.4-6-5.4-.4-2.7-.2-6 2-8.1zM110.6 44.5a82.3 82.3 0 0 1 20.5-.4c3.4.3 7.4 1.8 8.5 5.4a30 30 0 0 1-.3 15.4c-1.8 4.5-7.3 5-11.6 5.4-5.8.1-11.6.4-17.3-.8-2.6-.7-5-2.3-6-5-1.5-4.6-1-9.7-.2-14.5.6-3 3.5-5 6.4-5.5zm5.4 6.8a3.5 3.5 0 0 0-2.5 2.9 11.2 11.2 0 0 0 .5 7c1.6 2.4 4.7 1.6 7 1.8 2.8 0 6 .7 8.4-1.1 1.5-1.5 1-3.8 1.3-5.7.3-2.3-1.1-4.9-3.5-5.2-3.8-.2-7.6-.5-11.2.3zM413.5 44h10.3c2.6 6.3 4.9 12.7 7.6 18.9 2.5-6.4 5.5-12.5 8-18.8H450c-5.4 11-10.3 22.4-15.6 33.4-2.8 4.7-9 4.4-13.7 3.9v-6.6a19 19 0 0 0 5.1-.5c1.6-1 2.1-2.9 3-4.4H425c-3.9-8.6-7.8-17.2-11.5-25.8z"/>
    <path fill="#020202" stroke="#020202" stroke-miterlimit="10.4" stroke-width=".1" d="M23.2 11.7h2.6c1.3 1.2.8 3-.7 4-2.1.2-4-2.5-1.9-4z"/>
  </g>
</svg>
