<svg xmlns="http://www.w3.org/2000/svg" xml:space="preserve" id="Layer_1" x="0" y="0" style="enable-background:new 0 0 1280 280" version="1.1" viewBox="0 0 1280 280"><style>.st0{fill:#fefefe}.st3{fill:#fff}.st4{fill:#39af3a}</style><g id="_x23_fefefeff"><path d="M151 22c2-1 5-1 6 1 2 1 2 3 2 5l-3 2-4-2c0 2 3 3 4 2l9 2v2l8 2 1-3 1 5c1 1 3 0 4 2l-10-1-5 1v4h-2l-1-2-3 4v4l7 9c3 3 1 8 2 12l-1 4c0 4 5 4 5 8-2 2-6 1-7-2-1-1-3-1-3-3 1-4-2-7 0-11l-2-1v-2l-9-7c-5 5-11 8-16 14v2l-4 4-4-1 1-2c4-2 4-6 6-10 3-2 5-6 6-9l2-5 5-2-2-8-6 1-2-3c3-5 8-7 13-9l-1-4 3-3zM480 46h8l8 9 8-9h9l-13 16v10h-7V62l-13-16zM179 46h34v6h-13v20h-7V52h-14v-6zM254 46h7l13 20 13-20h7v26h-7V58l-9 14h-8l-9-15v15h-7V46zM404 46h7l20 17 1-17h6v26h-7l-20-18v18h-7V46zM442 46h34l-1 6h-26v13h26l1 7h-27c-4 0-7-3-7-7V46z" class="st0"/></g><path id="_x23_fdfdfdff" d="M518 46h8l-6 7h-5v-4l3-3z" style="fill:#fdfdfd"/><path id="_x23_fffffeff" d="M217 46h27c3 0 6 3 7 6v13c0 4-3 7-7 7h-21c-3 0-6-4-6-7V46zm7 6v13h20V53l-20-1z" style="fill:#fffffe"/><g id="_x23_ffffffff"><path d="M306 65V46h34l-1 6h-26v13h26l1 7h-27c-3 0-7-3-7-7zM344 46h6v19h17l-4 7h-19V46zM378 50c2-2 4-4 7-4h15v26h-7v-7h-16l-5 7h-8l14-22zm7 3-4 5h12v-6l-8 1zM532 62c-7-1-7-14 0-16h29l-1 7h-26v2l20 1c9 0 9 15 1 16h-27l1-7h23c2 0 2-2 2-3h-22zM117 120c0-12 11-23 23-22h63l-3 17h-59c-2 0-5 2-5 5 1 2 3 2 4 1h44c5 0 10 3 13 7 2 4 2 9 1 14-3 9-13 16-23 16h-66l3-18h63c3 1 6-4 3-6h-38c-5 0-9 1-14-1s-9-7-9-13zM211 98h74c4-1 8 4 7 8l-6 27c-1 5-6 9-11 9h-56l-3 16h-18l13-60zm14 17-2 9h47c2-2 1-6 2-9h-47zM299 98h18l-9 42h64l-4 18h-66c-2 0-5-2-6-4l-4-13-1-6 8-37zM373 158l13-60h18l-13 60h-18zM397 158l13-60h18l39 39 8-39h18l-13 60h-18l-39-39-8 39h-18zM494 115l4-17h83l-4 17h-33l-9 43h-17l9-43h-33zM585 98h83l-4 17h-65l-1 6h56l-2 13h-57l-1 6h65l-4 18h-68c-3 0-4-3-5-5l-5-16 8-39zM661 158l13-60h73c3-1 6 1 7 3 2 2 1 5 0 8l-5 24-3 6c-2 2-5 3-8 3l9 16h-20l-9-16h-36l-3 16h-18zm27-43-2 9h47l2-9h-47zM831 107c1-5 6-10 11-9h65c4 0 7 3 7 7l-3 14h-18l2-4h-48l-6 25h48l1-3h18l-3 12c-1 5-6 9-11 9h-59c-4 0-5-4-6-7-2-5-4-10-4-15l6-29zM912 136l8-38h83l-4 17h-65l-1 6h56l-3 13h-56l-1 6h65l-4 18h-68c-4 0-5-4-6-7l-4-15zM999 136l8-38h17l-9 42h64l-3 18h-67c-4 0-5-4-6-7-1-5-4-10-4-15zM1087 98h18l-9 42h64l-4 18h-66c-3 0-5-2-6-5l-5-15 1-5 7-35zM293 184h71c4-1 8 3 7 7l-3 14c0 5-4 8-9 9 2 1 5 2 5 4 2 3 0 7 0 10l-3 12c-2 3-6 5-10 5l-57-1c-3 1-4-3-5-6l-4-15 8-39zm13 18-1 5h46l1-5h-46zm-4 19-1 5 46 1 1-6h-46zM375 184h17l-9 43h63l-4 15v3h-65c-3 0-5-4-5-6l-5-16 8-39z" class="st3"/><path d="M492 184h23l25 61h-21l-3-8h-46l-7 8h-19l-2-2h1l49-59zm-8 36h25l-8-21-17 21zM543 193c1-5 5-10 11-10l63 1c4 0 7 3 6 7l-2 14h-18l1-3-46-1-5 26h46l1-4h17l-3 15c-2 4-6 7-10 6h-57c-3 1-5-2-5-4l-5-17 6-30zM627 184h17l-4 21h35c2 0 2-1 3-2l15-19h20l-24 30 11 31-20-1-8-21h-36l-4 22c-2-1-4 0-6-2-2-1-2-4-3-6l-4-14 8-39zM715 184h17l-9 43h62l-3 18h-65c-2 0-4-2-5-5l-5-17 8-39zM800 184h17l-12 61h-18l13-61zM833 184l9-1 58 1-4 17-57 1c-2-1-4 2-4 4l3 2h43c4-1 9 1 12 5s3 10 2 15c-3 9-12 17-22 17h-65l4-18h61c3 0 5-5 2-6l-46-1c-6 0-12-5-13-11-1-11 7-22 17-25zM904 184h80l-3 18h-32l-9 42-17 1 9-44h-32l4-17z" class="st3"/></g><path id="_x23_69b73cff" d="M813 139c-2 5-7 9-12 8-5 0-8-3-10-7-2-7 2-14 9-16 4 0 8 2 11 4 2 3 3 7 2 11z" class="st4"/><path id="_x23_69b73cff_00000073703964106485807580000006759123000266586501_" d="M784 139c-2 5-7 9-12 8-5 0-8-3-10-7-2-7 2-14 9-16 4 0 8 2 11 4 2 3 3 7 2 11z" class="st4"/><path id="_x23_69b73cff_00000144323970693248622660000007479806714353646752_" d="M798 116c-2 5-7 9-12 8-5 0-8-3-10-8-2-6 2-13 9-15 4 0 8 2 11 4 2 3 3 7 2 11z" class="st4"/></svg>