<svg xmlns="http://www.w3.org/2000/svg" width="489.76" height="198.88" viewBox="0 0 367.32 149.16"><defs><filter id="a" width="1.02" height="1.04" x="-.01" y="-.02" color-interpolation-filters="sRGB"><feGaussianBlur stdDeviation="1.26"/></filter></defs><g stroke="#000" stroke-width="11.25" filter="url(#a)" transform="translate(-68.2 -71.83)"><path d="M137.94 79.12a48.19 48.19 0 0 1 4.07-4.26c-.56 1.11-1.11 2.24-1.69 3.34l-.13 2.64c.49 1.1 1 2.2 1.52 3.3.32-1.38.74-2.74 1.01-4.14 1.15-.39 2.29-.8 3.44-1.2l.18 2.64.56-2.62 1.46-1.02c.02 1.67 0 3.34-.04 5.01a14.15 14.15 0 0 1 4.66-1.13l.12 1.58c1.88.01 4.26-1.65 5.57.63l1.57-2.61c3.74 2.5 8.44 1 12.65 1.46 4.94-2.51 10.78-.38 16.11-1.15 2.82-.51 5.31 2.04 8.11.83l1.22 1.71c1.05-1.16 2.12-2.31 3.22-3.44 1.35.95 2.88 1.79 3.68 3.34a6.5 6.5 0 0 0 1.36-4.02l.04 2.78 2.73-.11 3.39 1.09-.16-2.56c1.18.64 2.36 1.26 3.55 1.89l2.79-2.55 1.37 2.96 2.41-.46c1.73-.8 4.13-2.02 4.07.98-.85.59-4.16-1-4.46.71 1.63 1.37 5.06.56 5.41 3.27.64 5.66 1.59 11.28 2.2 16.95.97 7.02.64 14.15-.87 21.07l-2-.86c-.64-3.37-1.52-6.7-2.09-10.09-.19-1.9-.19-3.81-.13-5.72l1.66.04 2.39-2.23a44.1 44.1 0 0 0-4.65-1.21c-.42-1.34-.81-2.68-1.18-4.04-.57-5.22-2.1-10.43-1.79-15.7-.37-.7-.72-1.41-1.04-2.13-35.39.97-70.81.81-106.22 1.53-6.97-.29-14.12.62-20.99-.71l2.91-.19c2.46-1.16 5.34-1 7.6-2.63l.34 1.47c2.09-2.03 5.35-1.53 8.02-2 1.51.19 1.33-1.79 1.78-2.71l.84 2.05c1.66.16 1.97-1.71 2.58-2.82a8.2 8.2 0 0 0 3.7 1.99l.86-2.48 1.84.83c.55 1.07.95 2.25 1.76 3.16 2.07-.59 4.1-1.32 6.19-1.87.46-1.32.96-2.62 1.43-3.93l2.23 1.79 1.02-1.9a187.7 187.7 0 0 1 1.82 3.45m.45-.04a4 4 0 0 0 .07 3.6c1.25-.18 1.56-3.83-.07-3.6m89.9 31.21c.52.56.52.56 0 0m-1.91 1.93c-.62 1.21 1.37 2.51 2.36 1.73.59-1.22-1.38-2.43-2.36-1.73zM241.57 81.43c.93 1.26 2.61 3.11 3.69.88l1.53 1.07c.97-.9 2-1.72 3.03-2.54l.61 2.56c1.72-.24 4.05.64 5.13-1.29l1.32.94c1.61-.1 3.23-.21 4.85-.19-2 1.25-4.55.62-6.78.79-7.2.18-14.39-.12-21.59-.03-.78-1.67 1.06-2.22 2.02-.98 1.79 1.01 5.72 1.42 6.19-1.21zM228 82.5c.9-.82 3.24-.1 2.58 1.32-.82 1.23-3.96.14-2.58-1.32zM247.27 76.3c.56.58.56.58 0 0zM309.36 77.23c2.53.36 4.16 2.53 5.92 4.17-1.14.54-2.28 1.09-3.42 1.6l-.73.34c-.34-2.1-.95-4.15-1.77-6.11zM318.22 83.16c1.94-2.23 4.76-3.65 7.41-4.94-1.13 2.96-2.32 6.06-2.31 9.27 1.55.96 2.96 2.1 4.35 3.28-1.29.82-2.56 1.64-3.88 2.39-1.04.2-2.09.37-3.14.5a14.13 14.13 0 0 0-1.38 5.95l-.79.15c-.37-1.88-1.15-3.81-.63-5.74.91-3.57.27-7.24.37-10.86z"/><path d="M151.36 79.34c.54.62.54.62 0 0zM297.07 80.3c3.33.86 7.6.43 9.86 3.5-3.42-.78-6.57-2.35-9.86-3.5zM325.96 130.45l.99-.16c.36 1.7.58 3.47-.13 5.13a14.93 14.93 0 0 0 5.88 2.54l3.23.2c-3.15 1-6.47.2-9.69.16-.66 1.06-1.33 2.11-1.97 3.18 2.29 1.68.88 4.66.12 6.77.48 1.15.99 2.3 1.34 3.51-.83 1.34-2.53 1.09-3.85 1.43-2.57-6.42-3.35-13.55-1.5-20.27l.22 2.22-.27 2.34c1.77.16 3.53-.09 5.2-.73-.24-2.12-.25-4.28.43-6.32zM367.63 86.06a8.23 8.23 0 0 1 5.39-5.91c3.01.46 6.44.91 8.49 3.42 2.29 2.49 4.4 6.45 1.68 9.42l-.25-1.58c-1.61-.1-3.22-.14-4.82-.22a10.08 10.08 0 0 0-5.7-2.49l.25-2.29-5.04-.35m9.52-2.84c-.51 1.59.07 2.09 1.73 1.51.52-1.61-.05-2.11-1.73-1.51zM315.28 81.4l.53-.26c2.79 2.36 1.36 6.35 1.52 9.53-.84.81-1.67 1.63-2.47 2.46-3.03-1.55-6.39.75-9.58-.44l-.05-.44h.26c1.76.01 3.52.02 5.29.01l-.88-3.56c2.29-1.07 1.89-3.6 1.96-5.7 1.14-.51 2.28-1.06 3.42-1.6z"/><path d="M377.15 83.22c1.68-.6 2.25-.1 1.73 1.51-1.66.58-2.24.08-1.73-1.51zM277.41 85.39c1.32-.07 2.95.46 3.72-.98.87.6 2.23 1.14 1.88 2.5.4 3.54.13 7.23-1.96 10.23l-.97.73c-1.28-.5-1.86-1.54-1.74-3.14 2.81.41.75-1.53.08-2.08-.88-2.29-.57-4.86-1.01-7.26zM234.47 85.56c2.14.48 5.37-.77 6.8 1.3 1.51 7.28 2.28 14.72 3.68 22.03.36 5.96-1.54 11.75-1.48 17.69l-1.32-.05c-1.54-1.86-1.53-4.45-2.1-6.7-.74-4.3-1.26-8.64-1.6-13-.78 6.36-1.86 12.67-2.53 19.04-1.7.58-3.48.82-5.28.86-.37-6.1.94-12.05 1.34-18.08.54-7.72 1.23-15.46 2.49-23.09m-1.36 23.7c-1.47 3.15 3.2.12 0 0zM193.34 86.27c1.91.47 5.68-.3 5.68 2.66.72 12.06.05 24.13.8 36.2l-1.03 2.39c-1.7-.06-3.41-.14-5.1-.17-1.3-8.39.2-16.9-.72-25.32.02-5.23-1.09-10.66.37-15.76zM89.21 85.22c.57.57.57.57 0 0zM248.46 85.37c2.12.1 4.26.2 6.36.58-.76 9.74-2.7 19.41-2.91 29.18l-2.63-.69c.78.48 1.64.77 2.58.87-.66 3.17-1 6.38-1.18 9.61 2.46-.1 4.91-.16 7.37-.21l-.2-3.61 2.08.66c-1.01-.86-3.3-1.52-1.95-3.36 1.61.43 3.18 1 4.7 1.69.63.15 1.16.45 1.59.88.04 1.55.01 3.12.04 4.68l-2.11.46c-3.71-.29-7.47-1.1-11.16-.25-2.28.58-4.62.57-6.94.52.25-6.21 1.7-12.3 1.73-18.53.52-7.54 1.85-14.97 2.63-22.48m1.86 9.64c.04 3.26 3.1-1.47 0 0m-2 6.11c-.49 1.21 1.49 2.44 2.47 1.68.53-1.25-1.48-2.42-2.47-1.68m12.95 21.16c.56.57.56.57 0 0zM288.26 84.25c1.55.15 3.09.39 4.62.7 2.11 1.19 1.26 4 1.2 5.96l-1.78 1.12c-.16 2.66.04 5.33.02 8l.82 1.26c3.85-1.78 9.4-.52 10.17 4.21.81 5.96 1.5 12.58-1.69 18.01l-.44.82-.88 1.04a396.1 396.1 0 0 1-4.97-.7l.01-2.33-.05-2.45-1.25-1.71 1.03.46 2.43-1.33c.08-2.86 0-5.72-.15-8.57-1.4-1.38-2.44-3.22-4.09-4.31-.27.49-.51.99-.71 1.51 2.52-.9 2.12 1.37 1.86 2.58-2.97.34-5.59-.7-7-3.36l1.56-.71-1.92.45c-2.06-5.58-2.6-12.2.08-17.66l1.13-2.99m-1.52 18c2.03.49 3.72-1.24 4.36-2.99-1.92-.2-4.82.4-4.36 2.99m3.47 0c-1.21.81-.19 3.41 1.22 2.21 1.46-.78.26-3.47-1.22-2.21m5.02.8c.19 3.23 3.07-1.53 0 0m1.64 2.55c1.47.71 3.2 3.25 4.87 1.48l-2.49-1.47c.83-.65 1.7-1.29 1.69-2.47-1.54.48-3.05 1.15-4.07 2.46m2.03 9.77c1.03-.86 2.12-1.67 3.14-2.55l-.32-3.81c-1.09 2.04-2.67 3.96-2.82 6.36z"/><path d="M294.78 84.58c2.32-.27 5.38-.52 6.47 2.1 2.79 3.61 2.17 8.22 2.15 12.49-1.94-.1-4.38.9-6-.45-.31-2.29-.31-4.61-.42-6.91l-1.87-.84a32.5 32.5 0 0 1-.33-6.39zM144.35 87.66c2.01.26 4.63-.88 6.28.68a70.58 70.58 0 0 1 4.18 9.9l-1.97.24c1.85-.38 2.87.4 3.07 2.35l.51-.75 1.27 1.89.12.39c-2.63.09-.16 2.61.27 3.69 1.53 4.84.32 9.99 1.04 14.95-.05 2.22.73 4.7-.29 6.76-1.88.4-3.8.22-5.68.14-1.61-7.27 0-14.8-1.32-22.09-.18-.99.11-1.82.87-2.49l-.33-1.15c-.72 1.18-2.68.52-2.63-.9-1.73-4.57-4.13-8.86-5.39-13.61m4.92 7.58c.55.55.55.55 0 0m5.1 18.91c-.71 1.33 1.56 2.59 2.5 1.54 1-1.44-1.56-2.68-2.5-1.54zM124.56 88.24c2.46-.13 5.33-.74 6.92 1.72-1.28 3.22-.13 6.69-.24 10.03.6 8.36.05 16.74.58 25.1a71.4 71.4 0 0 1-.1 3.27c-2.15.02-5.5 1.07-6.27-1.81-1.09-5.47.05-11.02-.29-16.53a31.6 31.6 0 0 1-.29-5.91c-.03-5.29.02-10.58-.31-15.87zM212.38 105.61c2.22 2.41 4.27 5.78 8.04 5.35.89 4.74 1.94 9.46 2.45 14.28-1.72.45-3.45.85-5.17 1.26l-1.43-1.47c-.5-1.33-.87-2.7-1.22-4.06a300 300 0 0 0-4.25.03c-.2-2.14-.07-4.27.08-6.4l3-1.17c-.21-.8-.4-1.6-.58-2.41-.32-1.8-.65-3.6-.92-5.41m4.03 6.44c-.45 1.36.02 1.91 1.4 1.64.46-1.38 0-1.93-1.4-1.64zM264.69 105.4l4.35-.3c2.51 5.94 4.27 12.19 6.35 18.3l.47 1.76c-1.94.23-3.9.6-5.85.25-.93-.93-1.35-2.2-1.88-3.36-2.36-5.23-3.76-10.88-3.44-16.65zM182.62 86.5c1.56.09 3.12.22 4.69.38-1.67.78-3.36 1.52-5.03 2.28.43 3.35-1.08 7.44 1.27 10.25-.09 2.09-.18 4.17-.21 6.26l1.08.86a95.03 95.03 0 0 1 5.09-2.44c1.03 1.09 2.08 2.17 3.13 3.24l-.04 1.66c-1.51.19-3.01.39-4.51.61l.05.97c-.03 1.63-.08 3.26-.13 4.9-2.19-.75-3.18-2.77-4.24-4.64-.99 1.24-.53 2.69-.34 4.13l-1.5.65c.01-8.57-.15-17.15-.12-25.73.02-1.17.5-2.27.81-3.38z"/><path d="M257.66 86.71c.62-2.46 4.38-1.38 5.95-.41 1.01 6.16.76 12.44.97 18.63-.95 4.66 1.19 9.86-.85 14.17-2.25 1.15-2.44-2.1-.9-2.98-1.4-.05-2.07 1.13-2.83 2.05-2.48.44-3.25-.86-2.31-3.88.53.52 1.05 1.06 1.56 1.61l.61-1.97-1.47.91-.8-2.68c-1.02-2.6 3.15-3.04 2.77-5.4.14-1.47 1.41-2.61 1.61-4.11l-1.87-.1c1.64 1.61-1.18 3.46-1.28 5.28-1.42-.29-1.84-1.24-1.26-2.85.28-6.08-.33-12.18.1-18.27m4.71 22.58c-1.16.43-2.37 1.49-2.4 2.82.99 2.7 4.56-2.33 2.4-2.82zM268.42 85.43c1.92.19 5.02-.72 5.89 1.68-1.2 5.39-3.17 10.59-4.59 15.92-.49 2.11-3.23 1.59-4.75 1.56l.08-1.62c-.12-1.69 3.06-1.03 2.7-2.6-.89.42-1.74.94-2.53 1.55-.97-4.52.65-8.81 1.43-13.18l1.76-1.44.01-1.87zM367.63 86.06l5.04.35-.25 2.29c2.12.27 4.11 1.02 5.7 2.49 1.6.08 3.21.12 4.82.22l.25 1.58-1.21 2.07-1.49 1.46c-1.94-.07-4.54-.21-4.92 2.31-.31 1.8-2.09 1.84-3.54 2.01 1.07-.75 2.17-1.46 3.27-2.18a87.3 87.3 0 0 1-4.95-2.88l-.35-3.37.94.06c-1.69-.59-3.38-1.18-5.05-1.81.61-1.52 1.13-3.08 1.74-4.6m5.59 7.21c-.81 2.23 1.67 1.82 3.09 2.2l.61-2.1-3.7-.1zM158.61 87.4c2.2-.01 4.48-.27 6.56.62-1.18 5.87-3.7 11.36-5.39 17.09l-1.07.38-.9-3.13-.12-.39 2.29-1.22-1.45-3.48-3.25-.32c.73-1.56.5-3.88 2.18-4.79l-.04-2.51 1.19-2.25zM182.28 89.16c1.67-.76 3.36-1.5 5.03-2.28 1.86 4.99.34 10.42.94 15.6l4.4 1.1-.01 3.75c-1.05-1.07-2.1-2.15-3.13-3.24a95.03 95.03 0 0 0-5.09 2.44l-1.08-.86c.03-2.09.12-4.17.21-6.26-2.35-2.81-.84-6.9-1.27-10.25m2.87 14.12c-1.62 2.96 3.27.34 0 0zM105.15 88.32c3.47.35 6.96-.1 10.42.16 1.67.33 2.1 2.12 2.67 3.46.82 2.28 1.81 4.61 1.68 7.08-.17 7.64.42 15.28.45 22.89-1.19 2.26-1.63 5.14-3.58 6.87-1.53-.06-3.59.75-4.67-.69-.77-1.9-.05-3.98.12-5.94l1.23.12c.24-8.78-.44-17.55-.65-26.32-.88-.52-1.76-1.06-2.64-1.6.17-1.44.27-2.89.1-4.33-1.24-1.3-3.41-.62-5.04-.93zM206.44 86.46c2.07.16 4.55-.75 6.22.93.6 3.84-.8 7.67-.84 11.52-.04 3.41-.59 6.78-.9 10.17-.36 4.64-.34 9.32-1.13 13.92-.32 1.42-.7 2.83-1.07 4.24-1.9.08-3.8.1-5.69.08-.34-2.83-.4-5.7-.16-8.54 1.29-10.77 1.29-21.69 3.57-32.32zM213.62 85.74c3.66 1.59 3.28 5.91 4.05 9.16l-2.69-1.02-.74 1.69c1.64.5 1.37 2 1.25 3.35l1.58.88-4.89-.54c.23-4.53 1.28-8.98 1.44-13.52zM135.5 88.57c1.26-1.93 4.42-1.03 6.06-.08 1 2.15.3 4.72.44 7.02l-2.46.07c1.63 1.46 3.3 3.06 2.64 5.49-.62 9 1.77 18.14-.13 27.02-1.68-.03-3.57.77-5.11-.14-2.24-4.19-2.95-8.95-4.52-13.38-.44-6.2.05-12.42-.68-18.6.23-1.91-.99-4.67.99-5.89 1.27 5.25 1.93 10.68 3.66 15.79-.11-1.97-.23-3.94-.29-5.92 1.27-.35 3.15-.86 2.5-2.68-1.03.97-2.16.2-3.03-.55.05-2.71-.14-5.43-.07-8.15m2.73 4.69c.55.54.55.54 0 0zM80.57 89.53c3.94-.31 8.04-.72 11.92-.03.95 2.84-.06 6.06.26 9-.81-.82-3.44-1.45-2.08-2.95l-2.41-.17c.95 1.66 4.67 2.98 3.17 5.13-1.38 1.36-1.6-1.28-1.79-2.12l.26 2.54-1.93-.28 2.83 1.27c-1 1.67-1.67 3.51-1.43 5.48l1.25-.09c-.68-1.68-.2-3.45.49-5.05l1.88.12c.05 8.57.32 17.16.15 25.73l-.46 1.45c-1.74-.05-3.55.34-5.23-.25l.49-1.93c1.86-.63 2.55-2.56 3.62-4.01-.65-.5-1.3-1.01-1.93-1.53l.21-.81c.41-1.22.82-2.45 1.3-3.64-1.09.19-2.18.39-3.26.6 0-2.42-.07-4.85-.76-7.18-.83-4.8-.39-9.73-.49-14.58-1.69-.25-3.43-.29-5.07-.73-1.19-1.74-.8-3.98-.99-5.97m10.66 30.85c-1.52 3.04 3.24.24 0 0m.03 4.83c.54.57.54.57 0 0zM93.53 88.51c1.95.37 3.93.62 5.88.99.17 2.04.06 4.1-.17 6.13-1.96.16-3.94.18-5.89-.1-.19-2.34-.07-4.69.18-7.02m1.81 2.88c.55.55.55.55 0 0z"/><path d="M104.5 89.07l.74.02c1.63.31 3.8-.37 5.04.93.17 1.44.07 2.89-.1 4.33l-.82 1.38-1.6-.19c-1.9-.27-3.76.37-5.56.87a5.6 5.6 0 0 1 1.08-4.21c.48-1.02.88-2.06 1.22-3.13zM305.49 92.25c.7-1.91 2.83-2.56 4.41-3.55l.88 3.56c-1.77.01-3.53 0-5.29-.01zM95.34 91.39c.55.55.55.55 0 0zM314.86 93.13c.8-.83 1.63-1.65 2.47-2.46-.23 2.94-.32 5.88-.45 8.83-1.49-1.64-1.98-4.2-2.02-6.37zM327.67 90.77c.94.61 1.84 1.3 2.54 2.2-2.11.55-4.28.42-6.42.19 1.32-.75 2.59-1.57 3.88-2.39zM138.23 93.26c.55.54.55.54 0 0zM366.23 92.15l3.77.26.35 3.37a87.3 87.3 0 0 0 4.95 2.88c-1.1.72-2.2 1.43-3.27 2.18 1.45-.17 3.23-.21 3.54-2.01.38-2.52 2.98-2.38 4.92-2.31l1.49-1.46a34.84 34.84 0 0 1-2.56 5.42c.12 1.15.25 2.31.39 3.46.56-1.05 1.07-2.12 1.65-3.17l2.65 1.37c-.59 3.91 4.89 2.98 5.53 6.34.89 2.62 2.35 4.92 5.03 5.98l-.86.87c-3.32.13-6.6.64-9.87 1.17l-.1-2.58c-1.91-.13-3.05 1.39-4.17 2.67-1.8-.5-3.59-1.06-5.43-1.34-.85 1.11.38 2.3.68 3.39-1.3.94-2.61 1.86-3.91 2.79l-2.25-.71c-2.51 1.05-5.25.55-7.86.42.3 1.33.59 2.67.9 4-2.44.32-4.9.41-7.35.45.04-.8.09-1.59.15-2.39a57.5 57.5 0 0 1-3.7.46 28.4 28.4 0 0 0-5.43.83 92 92 0 0 1-1.02-1.66c1.21-1.75 2.54-3.41 3.79-5.14.92 1.17 1.89 2.31 2.82 3.47 2.92.07 5.84.21 8.74.61l-.21-2.29-3.41.32.15-4.7c.81 1.02 1.64 2.04 2.5 3.04.26-2.97-2.69-4.96-2.35-8.01l-.64-.51c-1.29-.63-2.6-1.16-3.86-1.81 1.52-2.52 5.22-1.91 7.74-2.75 1.92.82 4.04.61 6.09.64l-.56.75c-1.78.31-3.57.51-5.35.73 1.47.62 3.05 3.2 4.66 1.46 2.04 1.49 4.48 1.8 6.22-.31l1.09 1.71 2.05-1.14 2.95.79a33.41 33.41 0 0 1 7.14-2.22c-4.79-.23-9.57-.43-14.37-.44l.77-3.81-.79-.74a5.09 5.09 0 0 0-2.3-3.15l-.06-.7c.09-2.22-.25-4.41-1.03-6.48m13.97 16.79c-2.67 1.5 1.03 2.82 2.19 1.28 1.41-1.36-1.32-2.25-2.19-1.28m-12.71 2.13c-.89 1.19 1.17 2.98 2.15 1.72 1.03-1.32-1.11-3.01-2.15-1.72m-6.39 2.95c-.64 2.01-.29 4.14-.28 6.21 1.7.42 3.15-.34 4.46-1.36-.63-.43-1.23-.9-1.79-1.4 2.77-.56-.73-4.71-2.39-3.45m5.03.93c-2.01 2.58 2.96 6.53 4.39 3.11-1.06-1.32-2.45-3.6-4.39-3.11z"/><path d="M373.22 93.27l3.7.1-.61 2.1c-1.42-.38-3.9.03-3.09-2.2zM214.98 93.88l2.69 1.02c.77 5.38 2.13 10.66 2.75 16.06-3.77.43-5.82-2.94-8.04-5.35a32.88 32.88 0 0 1-.2-6.35l4.89.54-1.58-.88c.12-1.35.39-2.85-1.25-3.35l.74-1.69m1.28 8.3c-2 .78-.36 3.01.08 4.31 1.07-.86 2.42-4.45-.08-4.31zM102.2 96.41c1.8-.5 3.66-1.14 5.56-.87 1.1 1.09.46 3.03.7 4.45-.08 7.39.48 14.77.18 22.16l2.83.63a53.7 53.7 0 0 1-.66 6.06c-1.89.24-3.98.25-5.1-1.58-4.78-4.88-2.74-12.06-3.45-18.13-.59-4.17.14-8.4-.67-12.54zM149.27 95.24c.55.55.55.55 0 0zM250.32 95.01c3.1-1.47.04 3.26 0 0zM347.26 98.35c3.1-4.41 8.57 0 12.54-2.75 1.03.31 2.07.61 3.08 1.01-.97.76-1.93 1.52-2.88 2.3-4.02.45-8.1-1.05-12.03.3.32 2.09.99 4.11 1.89 6.03-2.57.61-5.84.2-7.53 2.63l-3.11-1.22-2.46-1.05c3.06-1.9 5.69-4.36 8.26-6.87l2.24-.38zM155.28 96.95l3.25.32 1.45 3.48-2.29 1.22-1.27-1.89-1.14-3.13zM331.82 100.64c1.55-4.54 6.72-3.36 10.45-3.56a24.37 24.37 0 0 1-5.94 3.41l.19 3.03a14.45 14.45 0 0 0-2.87 2.42l-.57.27-2.1-.57c.19-1.68.47-3.35.84-5z"/><path d="M342.27 97.08l3.18-.29-.43 1.94c-2.57 2.51-5.2 4.97-8.26 6.87l2.46 1.05c-1.85-.29-3.72-.47-5.57-.71.84-.94 1.82-1.73 2.87-2.42l-.19-3.03c2.13-.85 4.13-2 5.94-3.41zM360 98.91c.95-.78 1.91-1.54 2.88-2.3 1.44.71 2.89 1.39 4.38 2.02l.06.7a5.09 5.09 0 0 1 2.3 3.15 7.9 7.9 0 0 0-3.81 3.22c-2.05-.03-4.17.18-6.09-.64l.13-1.49c-2.98 1.46-4.02-1.7-4.89-3.89-.71 1.69-1.42 3.38-2.09 5.08l-3.01.48a22.14 22.14 0 0 1-1.89-6.03c3.93-1.35 8.01.15 12.03-.3zM286.74 102.25c-.46-2.59 2.44-3.19 4.36-2.99-.64 1.75-2.33 3.48-4.36 2.99z"/><path d="M352.87 104.76c.67-1.7 1.38-3.39 2.09-5.08.87 2.19 1.91 5.35 4.89 3.89l-.13 1.49c-2.52.84-6.22.23-7.74 2.75 1.26.65 2.57 1.18 3.86 1.81-2.33 1.91-5.2 2.47-8.13 2.19l-.37-3.18c-1.69-.13-3.41-.18-5.01-.76 1.69-2.43 4.96-2.02 7.53-2.63l3.01-.48zM248.32 101.12c.99-.74 3 .43 2.47 1.68-.98.76-2.96-.47-2.47-1.68zM216.26 102.18c2.5-.14 1.15 3.45.08 4.31-.44-1.3-2.08-3.53-.08-4.31zM223.06 101.92c.37 1.36.76 2.7 1.18 4.04 1.57.33 3.12.71 4.65 1.21l-2.39 2.23-1.66-.04c-.06 1.91-.06 3.82.13 5.72-.77-4.36-1.21-8.78-1.91-13.16zM339.19 131.9c1.92-2.93 3.57-6.01 5.26-9.07a92 92 0 0 0 1.02 1.66 28.4 28.4 0 0 1 5.43-.83c-.42 3.77 3.01 6.31 2.76 10l-2.41.41c.26 1.39.52 2.77.8 4.15l-2.6-.04c-.55-2.52-2.48-4.64-5.23-3.87a8.4 8.4 0 0 0-5.03-2.41zM290.21 102.25c1.48-1.26 2.68 1.43 1.22 2.21-1.41 1.2-2.43-1.4-1.22-2.21zM185.15 103.28c3.27.34-1.62 2.96 0 0zM295.23 103.05c3.07-1.53.19 3.23 0 0zM296.87 105.6c1.02-1.31 2.53-1.98 4.07-2.46.01 1.18-.86 1.82-1.69 2.47l2.49 1.47c-1.67 1.77-3.4-.77-4.87-1.48zM365.81 105.7a7.9 7.9 0 0 1 3.81-3.22l.79.74-.77 3.81c4.8.01 9.58.21 14.37.44a33.41 33.41 0 0 0-7.14 2.22l-2.95-.79-2.05 1.14-1.09-1.71c-1.74 2.11-4.18 1.8-6.22.31-1.61 1.74-3.19-.84-4.66-1.46 1.78-.22 3.57-.42 5.35-.73zM384.11 102.14c1.62.47 3.94.22 3.83 2.54l.78-1.35c2.61.81 5.17 1.85 7.28 3.65 2.33 2.31 6.74 1.76 7.78 5.37-.81 2.03-1.56 4.09-2.28 6.15-2.58-1.03-5.36-1.6-7.69-3.17l.86-.87c-2.68-1.06-4.14-3.36-5.03-5.98-.64-3.36-6.12-2.43-5.53-6.34zM155.78 174.03a9.08 9.08 0 0 1 5.06-.14l-.14.4c-1.49.65-3.8 1.33-4.92-.26zM90.95 189.07l-.29-3.14 1.71 1.33c-.27.95-.52 1.92-.74 2.89.56 1.38 2.34 1.45 3.43 2.25l-1.11 3.17c-3.36 0-6.64 1.34-10.01.75l.29 1.7-2.14-.77c-.68.47-1.35.94-2.01 1.43l-2.52-.54c.33.97.65 1.95.96 2.93a79.03 79.03 0 0 1-5.16-2.49l1.64-1.19-3.78-1.92c.81-.87 1.62-1.73 2.44-2.58 2.05 1 4.11 1.99 6.13 3.03l.69-2.71a8.32 8.32 0 0 1 5.01.23c1.16-2.18 3.44-3.19 5.46-4.37zM233.11 109.26c3.2.12-1.47 3.15 0 0zM262.37 109.29c2.16.49-1.41 5.52-2.4 2.82.03-1.33 1.24-2.39 2.4-2.82zM298.9 115.37c.15-2.4 1.73-4.32 2.82-6.36a489 489 0 0 1 .32 3.81c-1.02.88-2.11 1.69-3.14 2.55z"/><path d="M380.2 108.94c.87-.97 3.6-.08 2.19 1.28-1.16 1.54-4.86.22-2.19-1.28zM228.29 110.29c.52.56.52.56 0 0zM286.76 110.74c1.9 0 3.81.11 5.68.51.06 1.89.13 3.79.36 5.68l1.24 1.25 1.25 1.71.05 2.45a27.21 27.21 0 0 0-6.81-4.02l-.34-2.53a20.54 20.54 0 0 0-1.56 3.24c-.16-2.76-.06-5.53.13-8.29m4.45 6.48c.53.59.53.59 0 0zM347.71 111.81c2.93.28 5.8-.28 8.13-2.19l.64.51c-.34 3.05 2.61 5.04 2.35 8.01-.86-1-1.69-2.02-2.5-3.04l-.15 4.7 3.41-.32.21 2.29c-2.9-.4-5.82-.54-8.74-.61-.93-1.16-1.9-2.3-2.82-3.47a7.48 7.48 0 0 0-.08-4.27l-.45-1.61zM87.12 110.81c.69 2.33.76 4.76.76 7.18 1.08-.21 2.17-.41 3.26-.6-.48 1.19-.89 2.42-1.3 3.64l-1.89.73-.95.48a50.8 50.8 0 0 1 .12-11.43zM183.43 114.96c-.19-1.44-.65-2.89.34-4.13 1.06 1.87 2.05 3.89 4.24 4.64.05-1.64.1-3.27.13-4.9.64 5.18.29 10.44.68 15.65l-2.39 1.35-3.64-.88c-.92-3.83-1.19-8.12.64-11.73zM367.49 111.07c1.04-1.29 3.18.4 2.15 1.72-.98 1.26-3.04-.53-2.15-1.72zM329.44 189.74l1.69-2.11 1.79 1.91c.6.69 1.19 1.4 1.79 2.11l-1.7 1.09c2.92 1.31 5.94.67 8.6-.9.08 1.69.29 3.37.26 5.07-.7 2.02-3.24 2.14-4.94 2.87l-1.01-.45c-.98 6.17.03 12.51-1.32 18.64.36-4.69-.19-9.33-1.06-13.92.12-4.21-3.01-7.38-3.87-11.35l-5.61-.18c1.75-.1 3.5-.17 5.26-.25l.12-2.53zM226.38 112.22c.98-.7 2.95.51 2.36 1.73-.99.78-2.98-.52-2.36-1.73zM401.5 118.5c.72-2.06 1.47-4.12 2.28-6.15 5.6 1.57 10.66 4.55 16.07 6.63-1.03 1.45-1.93 3.29-3.97 3.39-4.8-1.27-9.91-1.52-14.38-3.87zM154.37 114.15c.94-1.14 3.5.1 2.5 1.54-.94 1.05-3.21-.21-2.5-1.54zM361.1 114.02c1.66-1.26 5.16 2.89 2.39 3.45.56.5 1.16.97 1.79 1.4-1.31 1.02-2.76 1.78-4.46 1.36-.01-2.07-.36-4.2.28-6.21zM379.67 116.59c1.12-1.28 2.26-2.8 4.17-2.67l.1 2.58c-.17 2.07-.09 4.23-.82 6.21l-.47.04c-1.86-1.19-4.1-.98-6.2-1.12-.52-.99-1.03-1.99-1.53-2.99-.3-1.09-1.53-2.28-.68-3.39 1.84.28 3.63.84 5.43 1.34zM366.13 114.95c1.94-.49 3.33 1.79 4.39 3.11-1.43 3.42-6.4-.53-4.39-3.11z"/><path d="M286.63 119.03c.44-1.12.93-2.21 1.56-3.24l.34 2.53c2.46.98 4.73 2.37 6.81 4.02l-.01 2.33c-1.9.53-3.87.69-5.83.66l-.99-2.09c-.65-1.39-1.29-2.79-1.88-4.21zM291.21 117.22c.53.59.53.59 0 0zM423.33 118.12c3.97-2.29 7.06 3.06 9.16 5.73-.41 1.08-.84 2.15-1.28 3.21a37.37 37.37 0 0 0-.46-3.81c-2.16-1.09-4.54-1.59-6.86-2.17-2.15-.92-4.46.11-5.73 1.94l-1.95-.1-.33-.55c2.04-.1 2.94-1.94 3.97-3.39 1.34.39 2.76.73 3.48-.86zM371.01 121.43c1.3-.93 2.61-1.85 3.91-2.79.5 1 1.01 2 1.53 2.99 2.1.14 4.34-.07 6.2 1.12l-1.92 1.43c-2.69.2-5.39.09-8.07.02a44.28 44.28 0 0 1-2.11 5.77l1.08 3.01a8.37 8.37 0 0 0-2.53-2.36l-1.82 2.15c.03-1.47.02-2.95.21-4.41 1.17-.88 3.7-1.27 2.65-3.3-2.7-1.21-5.59-.34-8.34.08-.31-1.33-.6-2.67-.9-4 2.61.13 5.35.63 7.86-.42l2.25.71zM91.23 120.38c3.24.24-1.52 3.04 0 0zM87.95 121.76l1.89-.73-.21.81-.86.37zM264.27 120.97l.71 2.68 3.14-.45.01-1.15c.53 1.16.95 2.43 1.88 3.36 1.95.35 3.91-.02 5.85-.25l-.47-1.76c4.37.12 8.75-.07 13.12-.16l.99 2.09c-8.42-.16-16.8.47-25.19.32-.03-1.56 0-3.13-.04-4.68z"/><path d="M418.16 123.02c1.27-1.83 3.58-2.86 5.73-1.94 2.27 1.79 4.83 3.84 4.4 7.1l-1.34.36c-2.18-1.75-3.63-4.52-6.64-4.98l-2.15-.54z"/><path d="M423.89 121.08c2.32.58 4.7 1.08 6.86 2.17.22 1.26.37 2.53.46 3.81l-1.29 2.09c-1-.19-1.99-.39-2.97-.61l1.34-.36c.43-3.26-2.13-5.31-4.4-7.1zM87 122.24l.95-.48.82.45-1.87.8z"/><path d="M88.77 122.21l.86-.37c.63.52 1.28 1.03 1.93 1.53-1.07 1.45-1.76 3.38-3.62 4.01l-.49 1.93a17.39 17.39 0 0 1-.55-6.3l1.87-.8zM261.27 122.28c.56.57.56.57 0 0zM308.36 122.79l1.44.52.76-.03a25.2 25.2 0 0 1-.1 1.93c.09 2.47.49 4.97.05 7.43l-1.44.52-1.26.74c-.39 5.45.17 10.92-.31 16.37-1.11-1.1-2.21-2.21-3.29-3.32-.1-2.04-.41-4.06-.78-6.06-.15 5.39-.4 10.78-.6 16.17.01-10.38-.76-20.74-.53-31.1l-1.12-1.63.44-.82 3.4-.51c-2.5 1.69 2.13 2.54 2.61.73l-.37-.92 1.1-.02z"/><path d="M310.56 123.28c5.58-.51 11.36-1.53 16.91-.27-.64 1.01-1.29 2.01-1.95 3.01.9 1.25 1.66 2.71 3.08 3.46l1.52.48-3.17.33-.99.16c-.68 2.04-.67 4.2-.43 6.32-1.67.64-3.43.89-5.2.73l.27-2.34c.9-.81 1.81-1.59 2.74-2.35 3.11-1.52 1.67-4.96.06-7.1-1.4-2.25-4.32-.66-6.43-.85l.09.74c-1.66.34-3.33.62-4.99.89-.15 1.75-.27 3.5-.36 5.26l-.11-.32c-.4-2.03.88-4.89-1.14-6.22.06-.65.09-1.29.1-1.93zM350.9 123.66c1.24-.1 2.47-.28 3.7-.46-.06.8-.11 1.59-.15 2.39 2.45-.04 4.91-.13 7.35-.45 2.75-.42 5.64-1.29 8.34-.08 1.05 2.03-1.48 2.42-2.65 3.3-.19 1.46-.18 2.94-.21 4.41l1.82-2.15a8.37 8.37 0 0 1 2.53 2.36l-1.08-3.01c.82-1.88 1.56-3.8 2.11-5.77 2.68.07 5.38.18 8.07-.02-.76.91-1.4 1.91-1.94 2.96l-.45-.51c-.89-1.07-1.93-1.23-3.1-.5-.26 1.41.46 2.11 2.14 2.1l-.53 2.72c-2.76 1.91.45 5.22-1.44 7.56-2.36-.47-5.21-.07-6.93-2.08a536.37 536.37 0 0 0-3.64 3.07 82.43 82.43 0 0 0-1.86-1.88l-.86-.4-2.18.98c-1.7-.63-3.41-1.26-5.12-1.87-.44 1.34-1.37 1.97-2.77 1.89-.28-1.38-.54-2.76-.8-4.15l2.41-.41c.25-3.69-3.18-6.23-2.76-10m8.18 8.09c1.09.96 2.2 1.98 3.71 2.2l1.22-2.97c-1.66-.95-3.93-1.21-4.93.77zM91.26 125.21c.54.57.54.57 0 0z"/><path d="M312.07 126.49c1.66-.27 3.33-.55 4.99-.89 1.07 2.47 2.33 4.84 3.32 7.34-1.85 6.72-1.07 13.85 1.5 20.27.22 1.55.31 3.13.43 4.7a31.73 31.73 0 0 0-2.52 5.76c-2.15-.11-3.41 3.19-5.58 1.24.34-1.44.6-2.91.96-4.34l.01-.06c1.74-2.39 1.19-5.45 1.32-8.21l-1.47-1.59-.61-.68c2.25-.61 2.48-2.97 2.19-4.9-.71-4.34.7-9-1.77-12.96l-3.13-.42c.09-1.76.21-3.51.36-5.26zM141.79 133.95c1.4-1.02 3.37-.8 5.02-.76 1.73 2.45 2.3 5.57 3.58 8.29.13 7.17.2 14.37.86 21.53.48 4.25-1.81 8.05-3.46 11.79-1.59.21-3.19.25-4.79.17a40.02 40.02 0 0 1-.32-5.99l2.14-1.62c-.57-8.91-.31-17.87-1.32-26.74-2.91-.91-1.89-4.43-1.71-6.67m1.44 1.31l.05 2.64c3.76 4.15 1.12 10.21 2.56 15.18.28 6.03 2.15 12.97-1.53 18.33l1 1.45c1.13-.2 2.28-.7 2.57-1.93 1.11-3.01 2.18-6.26 1.54-9.5-.96-6.09-.63-12.28-.75-18.41.07-2.75-1.54-5.12-2.23-7.7l-3.21-.06zM109.08 134.53c1.82-.15 3.64-.15 5.46-.17l.9 1.01c-.41 7.92 1.07 15.76.95 23.67-.16 5.35 1.53 10.66.55 16-.86 1.46-2.62 2.05-3.94 3.03-1.44-1.74-2.88-3.67-2.65-6.07-.04-12.51-1.58-24.96-1.27-37.47m2.28 1.79a5.95 5.95 0 0 0-.85 4.48c2.05 11.18-.6 22.7 1.96 33.82l2.19.03c-.1-7.2.28-14.42-.22-21.61-1.09-4.93-.75-9.98-.84-14.99a1.64 1.64 0 0 0-2.24-1.73zM246.14 135.78c1.29 1.39 1.12 3.37 1.41 5.11.58 6.02 1.64 12.02 1.66 18.08.25 3.51-2.05 6.5-2.08 9.98 2.45-.25 4-2.24 5.99-3.43l-.83 2.57c-.62.72-1.22 1.46-1.83 2.19-1.44.1-2.88.18-4.31.32-.73-2.67-1.31-5.88 1.23-7.79-.22-9.02-1.54-18.01-1.24-27.03zM161.58 169.81c.88-3 4.76-3.08 7.22-2.42 1.32 1.76.73 4.27 1.03 6.35-2.45.52-5.11 1.53-7.52.31 1.36-1.7 3.67-1.3 5.57-1.62-.42-1.27.19-3.36-1.23-4.01-1.74.23-3.4.87-5.07 1.39zM323.4 125.71c1.61 2.14 3.05 5.58-.06 7.1l-2.14-1.26a46.07 46.07 0 0 1 2.2-5.84zM375.24 126.13c1.17-.73 2.21-.57 3.1.5l-.96 1.6c-1.68.01-2.4-.69-2.14-2.1zM279.53 126.81c1.83.02 3.66.13 5.49.31 1.22 9.61 1.3 19.28 1.52 28.96-.03 4.19 1.33 8.42.18 12.54-1.65-.05-3.4.43-4.98-.17-1.93-2.71-1.04-6.26-1.28-9.37.19-10.77-1.5-21.51-.93-32.27zM290.68 129.04c-.5-3.43 4.01-2.89 6.14-2.34.75 8.05.77 16.14.92 24.21-.06 5.69 1.94 11.47.26 17.1-1.68.08-3.43.67-5.07.11-2.19-3.72-3.01-8-4.4-12.04-1.8-4.78-.64-9.99-1.42-14.94-.65-4.01-.4-8.07-.74-12.1l1.08.38c.82 4.7 3.06 9.46 2.83 14.18-1.62 2.67-1.64 5.85-1.18 8.86.7 2.46 1.52 4.89 2.13 7.38.89 2.67 1.48 7.53 5.31 6.82.25-2.53.34-5.08.28-7.62-.01-3.15.07-6.31-.54-9.42-.28-6.64-.57-13.29-.94-19.92.1-1.68-2.44-2.1-2.81-.53-.31 4.78 1.67 9.85-.63 14.37-.88-4.77-.93-9.66-1.22-14.5zM256.89 128.21c1.92-.04 3.85-.06 5.78.01.18 6.2.94 12.39.87 18.6l-.55 2.82-1.63 2.17-2.34-2.25-1.56 2.61c-.63-5.71-.53-11.47-.79-17.2-.07-2.25-.55-4.57.22-6.76zM268.16 128.13c2.13-.66 4.43-1.04 6.55-.12.11 2.34.4 4.68.33 7.03-.56 3.97-.24 7.97-.24 11.95-.01 2.21-1.63 3.99-3.38 5.13.37-3.13.02-6.28-1.12-9.23-.42 2.43-.78 4.88-1.04 7.33-.92-7.32-.77-14.73-1.1-22.09z"/><path d="M292.53 129.17c.37-1.57 2.91-1.15 2.81.53.37 6.63.66 13.28.94 19.92l-.6 3.02c-1.05-.74-2.08-1.49-3.13-2.22l-3.45 2.04c-.46-3.01-.44-6.19 1.18-8.86l.86.17.29 2.15c.05-.82.2-1.62.47-2.38 2.3-4.52.32-9.59.63-14.37zM235.92 133.38c-.07-3.74 3.64-5.45 6.93-4.49.16 2.09.24 4.18.12 6.27l-2.24.68c.29 9.24.83 18.48 1.33 27.71 3.6.42 2.28 4.51 2.2 6.93a5.56 5.56 0 0 1-5.6-1.83c1.04-2.29-1.54-4.3-1.62-6.6-.28-9.56-.98-19.1-1.12-28.67zM244.05 128.96c1.95-.35 5.09-1.43 6.11.99 3.92 6.67 2.67 14.69 3.28 22.07-.28 4.5 1.67 9.21-.32 13.5-1.99 1.19-3.54 3.18-5.99 3.43.03-3.48 2.33-6.47 2.08-9.98-.02-6.06-1.08-12.06-1.66-18.08-.29-1.74-.12-3.72-1.41-5.11l-2.4-.8c.02-2-.45-4.1.31-6.02zM202.46 130.43c1.89.24 4.06.16 5.58 1.52 2.8 3.29 3.05 7.81 2.73 11.93a9.71 9.71 0 0 1-5.84.31c-.61-2.51 1.02-6.04-1.77-7.52-1.98-1.42-1.39-4.26-.7-6.24zM214.78 129.86c1.76-.04 3.51-.14 5.27-.02 1.41.86 1.08 2.65 1.22 4.04.15 12.51 1.45 24.97 1.59 37.48-2.01.03-6.44 1.8-6.52-1.44a86.76 86.76 0 0 1-.89-11.94c-.5-9.36-1.5-18.75-.67-28.12zM221.78 129.77c1.69.08 3.49-.35 5.11.31 4.82 5.1 4.11 12.47 4.37 18.97-.19 2.15-1.6 3.95-2.18 6 1.38 5.34 4.25 10.28 4.87 15.82-1.99.34-4.01.42-6.02.51-2.12-4.36-2.59-9.28-4.5-13.72a111.2 111.2 0 0 1-.8-7.73l2.17-.51c.52-3.95-.25-7.95-.18-11.92-3.37-1.15-2.93-4.85-2.84-7.73zM326.95 130.29l3.17-.33c1.4.41 2.78.89 4.11 1.51l-2.27.55 1.58 1.33a7.6 7.6 0 0 0-.84 4.61 14.93 14.93 0 0 1-5.88-2.54c.71-1.66.49-3.43.13-5.13zM359.08 131.75c1-1.98 3.27-1.72 4.93-.77l-1.22 2.97c-1.51-.22-2.62-1.24-3.71-2.2zM196.11 131.01c1.54-.51 3.19-.22 4.78-.2-.23 2.42 1.02 5.62-1.43 7.24.2 9.09.58 18.2 1.09 27.27l2.34.65c.06 2.05.09 4.1.12 6.15-1.7.19-3.41.28-5.12.31-1.86-3.26-4.07-6.62-3.98-10.53-.08-7.66-1.13-15.28-1.11-22.94-.08-2.98 1.63-5.62 3.31-7.95m1.12 2.21c-2.76 1.82-2.88 5.5-2.78 8.47.68 7.74.01 15.61 1.5 23.27.64 2.4 1.68 5.99 4.8 5.8 1.56-.76.99-2.55.04-3.55-3.43-3.93-1.78-9.52-1.68-14.22a67 67 0 0 1-.91-14.07c.05-2.13 2.46-4.93-.21-6.26zM172.01 131.96c2.14-.01 6.61-1.8 6.43 1.74a37.6 37.6 0 0 0-4.97-.33c-1.04 4.69.06 9.55-1.16 14.22a68.66 68.66 0 0 1-.3-15.63zM180.05 131.79c2.12-1 5.11-.05 5.75 2.38 3.25 4.65 2.2 10.51 2.68 15.84.39 2.6-1.72 4.57-2.19 6.98 1.27 5.32 4.53 10.19 4.81 15.68-1.99.08-4.06.76-6.01.15-1.71-2.66-1.86-6.04-2.92-8.99a32.5 32.5 0 0 1-1.95-12.2l2.13-.24c-.09-4.13-.19-8.26-.53-12.38l-2.23-.88c-.24-2.07-2.08-5.04.46-6.34zM311.71 131.75l3.13.42c2.47 3.96 1.06 8.62 1.77 12.96.29 1.93.06 4.29-2.19 4.9-.06-5.63-.23-11.26-.69-16.87l-2.02-1.41z"/><path d="M331.96 132.02l2.27-.55c1.35.63 2.58 1.48 3.85 2.28l1.11-1.85a8.4 8.4 0 0 1 5.03 2.41c2.75-.77 4.68 1.35 5.23 3.87-4.53.69-9.14-1.66-13.52-.02l-3.23-.2a7.6 7.6 0 0 1 .84-4.61l-1.58-1.33zM153.79 132.87c2.1.11 4.24-.01 6.22.83 2.57-.52 5.21-.4 7.82-.35.01 2.16.39 4.38-.2 6.49-2.46.8-5.13.39-7.67.58.91 9.85-.18 19.82 1.41 29.61l.26 1.75-.79 2.11a9.08 9.08 0 0 0-5.06.14c.42-2.21 1.35-5.26-.92-6.79-.59-11.21-1.81-22.44-1.62-33.68zM173.47 133.37c1.66 0 3.32.11 4.97.33.27 12.45 1.09 24.87 1.67 37.31l-.43 2.73c-1.87-.02-3.74-.05-5.61-.05-1.09-3.96-.76-8.12-1.23-12.16-.22-4.64-.97-9.31-.53-13.94 1.22-4.67.12-9.53 1.16-14.22zM197.23 133.22l.76-.56c2.67 1.33.26 4.13.21 6.26a67 67 0 0 0 .91 14.07c-.1 4.7-1.75 10.29 1.68 14.22.95 1 1.52 2.79-.04 3.55-3.12.19-4.16-3.4-4.8-5.8-1.49-7.66-.82-15.53-1.5-23.27-.1-2.97.02-6.65 2.78-8.47zM307.81 133.9l1.26-.74c.02 3.87.22 7.75.24 11.63-.58 3.54-.3 7.14-.41 10.71-.9-1.61-1.57-3.36-1.4-5.23.48-5.45-.08-10.92.31-16.37zM120.34 134.81c1.58-1.39 3.74-1.11 5.67-1.44 1.09 1.99 1.2 4.26 1.14 6.48-.7 5.39-.37 10.82-.63 16.23-1.46-6.84.33-14.05-1.67-20.79l-2.73.02c-.94 4.84 1.97 10.17-.76 14.58-.81-4.98-.76-10.05-1.02-15.08zM132.05 133.8c2.74-.42 5.51-.65 8.28-.37.42 3 .38 5.94-1.18 8.58.17 8.31-.02 16.65.43 24.96 1.96 1.58 2.4 3.73 2.31 6.21-2.34-.1-5.89 1.89-7.39-.56-.6-6.88.19-13.85-1.11-20.68-.18 6.33-.12 12.66-.45 18.99-.31-12.37-1.03-24.75-.89-37.13zM234.93 133.75l.99-.37c.14 9.57.84 19.11 1.12 28.67.08 2.3 2.66 4.31 1.62 6.6-2.77-2.84-3.14-6.8-2.99-10.56-.16-8.1-1.93-16.26-.74-24.34zM74.4 137.68c2.5-1.22 4.93-2.7 7.75-3.02.04 6.71.39 13.42.36 20.13l-.98 1.84-2.3-.11c.08.73.18 1.46.28 2.2l-1.2 1.01-1.61-1.5-2.37.51c.69-2.79.32-6.1 2.09-8.47l-.87-1.12c1.15-3.38-.29-7.01 1.43-10.31l-2.56-.65-.02-.51m4.9 16.44c.3 3.22 3.03-1.62 0 0zM98.04 135.28c2.06-.05 5.76-1.7 6.57 1.05.36 4.16.42 8.35.56 12.52-.68 5.75-.21 11.53-.6 17.29-1.23-9.9-.81-19.92-1.68-29.84l-3.6.09c-.54 4.21.45 8.39.56 12.6.76 6.96.92 13.97.91 20.98-.48-1.03-.96-2.05-1.4-3.09-.83-10.34-.96-20.75-1.8-31.1z"/><path d="M122.12 135.31l2.73-.02c2 6.74.21 13.95 1.67 20.79.26-5.41-.07-10.84.63-16.23.19 7.52.48 15.03.71 22.54-1.57 3.72.03 7.91-.91 11.8-1.28-.21-3.43.42-3.86-1.35-2.23-5.34-4.37-10.95-4.05-16.84-.13-1.79.59-3.43 1.58-4.86l.78 1.63-.04-2.88c2.73-4.41-.18-9.74.76-14.58zM143.23 135.26l3.21.06c.69 2.58 2.3 4.95 2.23 7.7.12 6.13-.21 12.32.75 18.41.64 3.24-.43 6.49-1.54 9.5-.29 1.23-1.44 1.73-2.57 1.93l-1-1.45c3.68-5.36 1.81-12.3 1.53-18.33-1.44-4.97 1.2-11.03-2.56-15.18l-.05-2.64zM275.04 135.04c.71 9.82.73 19.71.99 29.53l-.9-.46a46.6 46.6 0 0 1-.52-7.91c-.01 2.95-2.13 4.38-4.55 5.47-.84-3.75-.83-7.63-.8-11.45.26-2.45.62-4.9 1.04-7.33a19.23 19.23 0 0 1 1.12 9.23c1.75-1.14 3.37-2.92 3.38-5.13 0-3.98-.32-7.98.24-11.95zM86.13 135.99c2.17-.42 4.45-.87 6.61-.09.85 11.36.26 22.78 1.39 34.11l1.96 1.1.28 2.9c-1.82 2.75-4.83 1.48-7.06.06l-.43-.22c-1.96-5.77-1.11-11.92-1.94-17.87-.37-6.66-.46-13.33-.81-19.99zM99.29 136.39l3.6-.09c.87 9.92.45 19.94 1.68 29.84.39-5.76-.08-11.54.6-17.29.36 6.38.25 12.77.74 19.14.38 2.94-1.02 5.76-2.74 8.04-1.18 1.87-3.62.83-5.42 1.08a86.75 86.75 0 0 1-.35-6.02l2.24-1.79-.28-2.42c.44 1.04.92 2.06 1.4 3.09a190.7 190.7 0 0 0-.91-20.98c-.11-4.21-1.1-8.39-.56-12.6zM111.36 136.32a1.64 1.64 0 0 1 2.24 1.73c.09 5.01-.25 10.06.84 14.99.5 7.19.12 14.41.22 21.61l-2.19-.03c-2.56-11.12.09-22.64-1.96-33.82a5.95 5.95 0 0 1 .85-4.48z"/><path d="M116 135.95l1.5 1.22c1.09 4.65 2.22 9.28 3.12 13.97-.99 1.43-1.71 3.07-1.58 4.86-.32 5.89 1.82 11.5 4.05 16.84.43 1.77 2.58 1.14 3.86 1.35.94-3.89-.66-8.08.91-11.8.39 4.43.97 8.94-.07 13.33-1.61.05-3.21.16-4.82.09-1.28-1.09-1.4-3.01-2.15-4.43l-1.66 1.22a8.8 8.8 0 0 1 1.24-2.42c-2.65-5.26-3.33-11.19-3.25-17-.89-5.71-.39-11.51-1.15-17.23zM354.82 136.33c1.71.61 3.42 1.24 5.12 1.87l2.18-.98.86.4c-.96 1.04-1.89 2.12-2.84 3.16l-2.99-1.83-2.15 1.9c-2.99.13-6.01.83-8.97.03-2.49 1.68-6.23 1.39-7.7 4.41.03 2.46.63 4.88 1.11 7.28l.51.25c3 .2 6-.16 8.98-.58.92.66 1.82 1.34 2.8 1.94l2.15 1.32c-2.84.66-6.05.84-8.23 3.01a54.17 54.17 0 0 1-7.24-2.47l.17 1.7-.45 1.41c-1.27-.08-2.52-.18-3.78-.29-2.06-4.05-6.25-.37-6.91 2.71l-2.42.47-1.33.26a185 185 0 0 1-1.38-4.39c-.12-1.57-.21-3.15-.43-4.7 1.32-.34 3.02-.09 3.85-1.43-.35-1.21-.86-2.36-1.34-3.51.76-2.11 2.17-5.09-.12-6.77.64-1.07 1.31-2.12 1.97-3.18 3.22.04 6.54.84 9.69-.16 4.38-1.64 8.99.71 13.52.02l2.6.04c1.4.08 2.33-.55 2.77-1.89M330 143.62c1.74-.33 3.48-.6 5.24-.85-.21-3.48-6.14-2.41-5.24.85zM364.84 139.5l3.64-3.07c1.72 2.01 4.57 1.61 6.93 2.08-.89.99-1.81 1.96-2.7 2.95l-2.63-.52a26.23 26.23 0 0 1-5.24-1.44z"/><path d="M360.14 140.78c.95-1.04 1.88-2.12 2.84-3.16.63.62 1.25 1.24 1.86 1.88 1.68.68 3.45 1.12 5.24 1.44-.56 3.15-2.67 5.66-6.13 5.39l-.28 2.85-2.24-.64a78.58 78.58 0 0 0-3.74-6.4c-.47 1.93.26 4.13-.67 5.89-1.83-.13-1.72-2.41-2.39-3.65a131 131 0 0 0-3.53-1.82c1.33-.48 2.72-.88 3.9-1.71l2.15-1.9 2.99 1.83zM303.43 140.89c.37 2 .68 4.02.78 6.06.01 4.1.27 8.19.2 12.29.31 2.28-1.23 5.98 1.63 6.97 2.12.58 4.2-.76 6.23-1.25-.31.89-.64 1.78-.97 2.66-2.52.09-5.03.2-7.54.43a45.09 45.09 0 0 1-.93-10.99c.2-5.39.45-10.78.6-16.17zM330 143.62c-.9-3.26 5.03-4.33 5.24-.85-1.76.25-3.5.52-5.24.85z"/><path d="M338.33 145.29c1.47-3.02 5.21-2.73 7.7-4.41 2.96.8 5.98.1 8.97-.03-1.18.83-2.57 1.23-3.9 1.71a131 131 0 0 1 3.53 1.82c.67 1.24.56 3.52 2.39 3.65.93-1.76.2-3.96.67-5.89a78.58 78.58 0 0 1 3.74 6.4l2.24.64-.17 1.37-1.51 1.45-1.54 1.12c3.27 1.52 8.01 4.14 11.07 1.1l-1.08-2.07c.62-.72 1.27-1.42 1.9-2.14l.39 3.78 1.94-.24 2.05 1.78c2.69-4.27 7.47-.3 10.89.74a10 10 0 0 0 .65 3.86c-.11 1.36-.2 2.73-.35 4.09-.8.55-1.61 1.09-2.42 1.62.51 2.12 2.68 5.93-.3 6.93-.71-1.47-1.33-2.98-2.18-4.37-1.9-1.73-4.53-2.28-6.81-3.34-2.36-1.92-7.76-1.99-6.66-6.15l4.11-.24-.01-1.21c-1.75.15-3.49.44-4.98 1.42l-1.72-.18c-.38 1.06-.76 2.12-1.12 3.19-1.44-.98-3.13-1.19-4.81-1.3-4.5-3.28-10.28-.66-15.36-1.88 2.18-2.17 5.39-2.35 8.23-3.01l-2.15-1.32c2.73-.47 5.49-.41 8.09.63l-1.01-2.34-2.46.45c-.69-.94-.9-2.82-2.45-2.61-4.41-.07-8.81.84-13.21.15l-.74 2.36-.51-.25c-.48-2.4-1.08-4.82-1.11-7.28m44.98 12.78c.22 3.23 3.05-1.57 0 0z"/><path d="M370.08 140.94l2.63.52a113.1 113.1 0 0 1 6.94 4.53l3.02 2.17a19.14 19.14 0 0 1-6.1 3.8c-.82-2.46-2.03-5.67-5.3-4.74-.5.88-1.02 1.74-1.55 2.59-1.71.21-3.57-1.26-4.93.3 1.44.6 3.12 1.06 3.48 2.82a54.94 54.94 0 0 1-6.28-.93l1.51-1.45.17-1.37.28-2.85c3.46.27 5.57-2.24 6.13-5.39zM309.31 144.79c.26 5-.31 10.07.65 15.02l1.88 1.45c.17 1.23.32 2.46.43 3.7-2.03.49-4.11 1.83-6.23 1.25-2.86-.99-1.32-4.69-1.63-6.97l2.25-1.69.94 1.27c.44-1.11.92-2.2 1.3-3.32.11-3.57-.17-7.17.41-10.71zM263.54 146.82c.16 5.2.31 10.41.75 15.61 3.41.76 2.26 5.03 1.75 7.49-1.53-.13-3.09-.1-4.6-.44a11.24 11.24 0 0 1-3.06-5.45c-.01-2.7 2.47-3.53 4.54-4.35.52-3.33.32-6.7.07-10.04l.55-2.82z"/><path d="M304.21 146.95c1.08 1.11 2.18 2.22 3.29 3.32-.17 1.87.5 3.62 1.4 5.23-.38 1.12-.86 2.21-1.3 3.32l-.94-1.27-2.25 1.69c.07-4.1-.19-8.19-.2-12.29zM371.27 147.22c3.27-.93 4.48 2.28 5.3 4.74a19.14 19.14 0 0 0 6.1-3.8c5.63 4.24 11.74 8 16.45 13.32.65 2.1 1.09 4.26 1.51 6.41-.61 1.09-1.07 2.25-1.61 3.38-1.59 1.12-4.67 1.37-4.68 3.77.24 1.12 1.17 1.94 1.74 2.91a18.95 18.95 0 0 0-3.71 4.37 56.77 56.77 0 0 0-6.05 2.33l-.45-2.79.57-3.46-2.28.12.03-1.01 2.51.13a18.3 18.3 0 0 0-1.51-5.07c2.98-1 .81-4.81.3-6.93.81-.53 1.62-1.07 2.42-1.62l1.59-2.48c1.99 3.75-.4 8.15-.63 12.12l-1.8.7c.11 1.52.24 3.05.37 4.57l4.15-2.2c-.42-1.18-.89-2.33-1.19-3.54 1.03-1.3 3.28-1.09 4.14-2.55.37-1.77-.12-3.57-.33-5.33l2.44.5a40.55 40.55 0 0 0-4.04-7.19l-.09-1.66c-1.65-.28-3.29-.58-4.91-.89-3.42-1.04-8.2-5.01-10.89-.74l-2.05-1.78-1.94.24-.39-3.78c-.63.72-1.28 1.42-1.9 2.14l1.08 2.07c-3.06 3.04-7.8.42-11.07-1.1l1.54-1.12c2.07.4 4.16.77 6.28.93-.36-1.76-2.04-2.22-3.48-2.82 1.36-1.56 3.22-.09 4.93-.3.53-.85 1.05-1.71 1.55-2.59zM160.65 151.87c.47-4.43 9.47-3.66 8.51 1.16.83 4.06-5.24 5.06-7.79 3.57l-.27-1.47c1.52.22 3.05.7 4.61.52 1.84-.9 2.61-4.14.31-5.02-1.91-.45-3.64.62-5.37 1.24zM257.46 152.17l1.56-2.61 2.34 2.25 1.63-2.17c.25 3.34.45 6.71-.07 10.04-2.07.82-4.55 1.65-4.54 4.35-1.09-3.86-.84-7.9-.92-11.86zM292.55 150.42c1.05.73 2.08 1.48 3.13 2.22l.6-3.02c.61 3.11.53 6.27.54 9.42l-5.59.8c-.61-2.49-1.43-4.92-2.13-7.38l3.45-2.04zM314.12 159.01c-.04-3 .07-5.99.3-8.98l.61.68c-.01 3.27-.08 6.54.15 9.8l-.01.06c-3.79-.2-1.7 4.42-2.16 6.74 2.01.15 4.1.06 5.82-1.13-.44.78-.89 1.55-1.35 2.32-2.06-.33-4.12-.62-6.18-.88.33-.88.66-1.77.97-2.66a76.14 76.14 0 0 0-.43-3.7l2.28-2.25zM340.69 150.46c4.4.69 8.8-.22 13.21-.15 1.55-.21 1.76 1.67 2.45 2.61l2.46-.45 1.01 2.34a14.77 14.77 0 0 0-8.09-.63c-.98-.6-1.88-1.28-2.8-1.94-2.98.42-5.98.78-8.98.58l.74-2.36z"/><path d="M160.65 151.87c1.73-.62 3.46-1.69 5.37-1.24 2.3.88 1.53 4.12-.31 5.02-1.56.18-3.09-.3-4.61-.52l-.45-3.26zM201.14 151.11c3.16-.32 6.73-1.26 9.72-.02 1.32 3.43.39 7.31 1.02 10.91.67 3.41-.98 6.6-2.38 9.6-1.64 1.12-3.86.62-5.74.59-.18-2.13-.22-4.27.03-6.4l1.85-.42c.38-3.08.07-6.19-.36-9.25h-3.55a42.5 42.5 0 0 1-.59-5.01zM315.03 150.71l1.47 1.59c-.13 2.76.42 5.82-1.32 8.21-.23-3.26-.16-6.53-.15-9.8zM132.94 170.93c.33-6.33.27-12.66.45-18.99 1.3 6.83.51 13.8 1.11 20.68 1.5 2.45 5.05.46 7.39.56l-.53 1.89c-2.7.23-5.45.42-8.1-.27-.13-1.29-.24-2.58-.32-3.87zM79.3 154.12c3.03-1.62.3 3.22 0 0zM81.53 156.63l.98-1.84c-.18 3.62.19 7.23.08 10.84l-.76 1.64c-.89-1.83-2.37-3.2-4.46-3.38l.65 2.39c-1.73-.29-2.29-1.87-2.79-3.33-.35-1.4-.65-2.8-.9-4.21l2.37-.51 1.61 1.5 1.2-1.01c-.1-.74-.2-1.47-.28-2.2l2.3.11m-.15 2.74c-1.07.65-1.73 2.78-.16 3.27 1.47-.02 1.6-3.24.16-3.27zM274.61 156.2a46.6 46.6 0 0 0 .52 7.91c.46 3.45-3.74 6.98-6.97 4.94-1.25-2.65-1.23-6.22 1.9-7.38 2.42-1.09 4.54-2.52 4.55-5.47zM387.61 156.07c1.62.31 3.26.61 4.91.89l.09 1.66a40.55 40.55 0 0 1 4.04 7.19l-2.44-.5c.21 1.76.7 3.56.33 5.33-.86 1.46-3.11 1.25-4.14 2.55.3 1.21.77 2.36 1.19 3.54l-4.15 2.2c-.13-1.52-.26-3.05-.37-4.57l1.8-.7c.23-3.97 2.62-8.37.63-12.12l-1.59 2.48c.15-1.36.24-2.73.35-4.09a10 10 0 0 1-.65-3.86zM327.44 161.57c.66-3.08 4.85-6.76 6.91-2.71-1.57 1.55-3.98 1.09-5.61 2.25-.18 1.99.65 3.89 1.13 5.79a16.9 16.9 0 0 1-5.13-1.73l.28-3.13 2.42-.47zM368.66 158.68c1.49-.98 3.23-1.27 4.98-1.42l.01 1.21-4.11.24c-1.1 4.16 4.3 4.23 6.66 6.15l-2.78-.7a5.93 5.93 0 0 1-.92 3.05l.1-3.44c-2.3-.56-4.68-.95-6.78-2.08.36-1.07.74-2.13 1.12-3.19l1.72.18z"/><path d="M338.58 157.74c1.09 3.8 2.69 7.45 3.52 11.33-1.99.23-3.98.6-5.98.54-1.41-.52-2.54-1.56-3.84-2.28l-2.41-.43c-.48-1.9-1.31-3.8-1.13-5.79 1.63-1.16 4.04-.7 5.61-2.25 1.26.11 2.51.21 3.78.29zM383.31 158.07c3.05-1.57.22 3.23 0 0zM81.38 159.37c1.44.03 1.31 3.25-.16 3.27-1.57-.49-.91-2.62.16-3.27zM291.23 159.84l5.59-.8c.06 2.54-.03 5.09-.28 7.62-3.83.71-4.42-4.15-5.31-6.82zM399.12 161.48c.85-.38 1.7-.77 2.54-1.18-.35.76-.71 1.51-1.1 2.24 1.74 2.18 2.26 4.91 2.54 7.62-.34.74-.67 1.49-.99 2.25-1.38.34-4.62.1-3.9 2.41.8 2.61 0 5.23-.87 7.71a8.73 8.73 0 0 0-2.7 4.43c-3.3-.09-6.6-.15-9.86.33-.57-1.93.46-3.68 1.09-5.43l.45 2.79c1.97-.9 3.99-1.66 6.05-2.33a18.95 18.95 0 0 1 3.71-4.37c-.57-.97-1.5-1.79-1.74-2.91.01-2.4 3.09-2.65 4.68-3.77.54-1.13 1-2.29 1.61-3.38a61.47 61.47 0 0 0-1.51-6.41zM313.01 167.31c.46-2.32-1.63-6.94 2.16-6.74-.36 1.43-.62 2.9-.96 4.34 2.17 1.95 3.43-1.35 5.58-1.24l-.96 2.51c-1.72 1.19-3.81 1.28-5.82 1.13z"/><path d="M323.69 162.3l1.33-.26-.28 3.13a16.9 16.9 0 0 0 5.13 1.73l2.41.43c-1.41 1.25-3.23 1.38-5.02 1.14-.15 3.31-1.03 6.51-1.88 9.7 2.37.48 4.73 1.45 7.18 1.32a29.89 29.89 0 0 1 9.76-5.71c-.1 1.32-.18 2.65-.24 3.98l-2.73-.4-2.05 1.92c.46.78.92 1.56 1.4 2.34l-2.55.67c-.5 1.79-.7 3.64-.64 5.5l-2.59 1.75-1.79-1.91c.67-1.36.78-2.88.94-4.35-1.18.24-2.37.5-3.54.77a9.46 9.46 0 0 1-1.97 3.58c-3.94-3.19-4.83-8.72-3.15-13.33 1.78-3.78.79-8.05.28-12zM75.23 162.95c.5 1.46 1.06 3.04 2.79 3.33-.19.85-.38 1.7-.59 2.54l2.85.05a47.56 47.56 0 0 0-1.23 7.3l1.5-1.83 1.49 2.11c-.06-3.06-.33-6.12-.21-9.18l.76-1.64c-.49 5.03 1.24 9.9 1.03 14.91a6.35 6.35 0 0 0 2.98 2.2c2.09.94 4.41 1.08 6.67 1.33l-.73.47-1.88 1.39.29 3.14c-2.02 1.18-4.3 2.19-5.46 4.37a8.32 8.32 0 0 0-5.01-.23l-.69 2.71c-2.02-1.04-4.08-2.03-6.13-3.03-.08-1.42-.2-2.84-.51-4.22l2.31-.4c-.28-1.19-.55-2.39-.81-3.59l.61-2.04-2.26.16 1.37-1.36c.87-4.06 1.78-8.29.64-12.39-.68-2.03-.4-4.11.22-6.1m7.92 21.44c-1.13 1.15.17 3.46 1.77 2.81 2.23-.75-.27-3.76-1.77-2.81z"/><path d="M77.37 163.89c2.09.18 3.57 1.55 4.46 3.38-.12 3.06.15 6.12.21 9.18l-1.49-2.11-1.5 1.83c.21-2.46.64-4.9 1.23-7.3l-2.85-.05c.21-.84.4-1.69.59-2.54l-.65-2.39zM154.86 167.24c2.27 1.53 1.34 4.58.92 6.79-1.45-1.94-.75-4.55-.92-6.79zM332.28 167.33c1.3.72 2.43 1.76 3.84 2.28 2 .06 3.99-.31 5.98-.54l.36 2.71-.14 2a29.89 29.89 0 0 0-9.76 5.71c-2.45.13-4.81-.84-7.18-1.32.85-3.19 1.73-6.39 1.88-9.7 1.79.24 3.61.11 5.02-1.14m-2.09 7.85c-1.54.08-1.75 2.71-.13 2.87 1.53-.01 1.67-2.77.13-2.87zM161.58 169.81c1.67-.52 3.33-1.16 5.07-1.39 1.42.65.81 2.74 1.23 4.01-1.9.32-4.21-.08-5.57 1.62l-.68-2.27-.26-1.75z"/><path d="M342.46 171.78c.34 2.41.46 4.84.51 7.27-.16 3.71 1.91 7.15 1.26 10.86l-1.09.85-1.53 1.08c-2.66 1.57-5.68 2.21-8.6.9l1.7-1.09c-.6-.71-1.19-1.42-1.79-2.11l2.59-1.75c-.06-1.86.14-3.71.64-5.5l2.55-.67c-.48-.78-.94-1.56-1.4-2.34l2.05-1.92 2.73.4c.06-1.33.14-2.66.24-3.98l.14-2zM398.21 174.82c-.72-2.31 2.52-2.07 3.9-2.41-.25 2.6-.42 5.28-1.53 7.69-1.29 2.44-1.55 5.18-1.48 7.9a62.6 62.6 0 0 1-9.18.55c.76.77 1.51 1.54 2.32 2.28l-1.67.81-1.32-.31c.13.77.26 1.55.41 2.33a29.9 29.9 0 0 0-5.9 2.69c.16-3.04 1.46-6 1.02-9.06 3.26-.48 6.56-.42 9.86-.33a8.73 8.73 0 0 1 2.7-4.43c.87-2.48 1.67-5.1.87-7.71zM89.31 174.07c2.23 1.42 5.24 2.69 7.06-.06l-.26 3.27c-1.7.04-3.4.01-5.09-.08-.56-1.05-1.13-2.1-1.71-3.13zM330.19 175.18c1.54.1 1.4 2.86-.13 2.87-1.62-.16-1.41-2.79.13-2.87zM113.37 188c1.65-2.96 2.45-6.28 4.11-9.21l1.74 2.65c.08 2.04.29 4.08.87 6.05 2.4-.14 4.86-.42 7.22.19.94.43 2.83.42 2.41 1.93-2.2 2.08-5.1 3.21-7.69 4.72.57 2.54 1.68 5 1.47 7.65-3.08-.28-5.28-2.55-7.52-4.42-1.68.98-3.34 2-5 3.01l-2.39-.8c.86-2.47 2.7-5 1.56-7.68l-2.4.39c-.65.76-1.31 1.53-1.94 2.3.09-1.95-.85-2.78-2.81-2.5a20.93 20.93 0 0 1 3.49-2.57l-.02-1.69c1.76.08 3.52.19 5.27.34l.91 1.43.72-1.79z"/><g><path d="M86.6 182.74c9.22-.8 18.53-.82 27.81-.91l.44.81c-7.16.55-14.42.55-21.58 1.43-2.26-.25-4.58-.39-6.67-1.33z"/></g><g><path d="M328.53 184.05c1.17-.27 2.36-.53 3.54-.77-.16 1.47-.27 2.99-.94 4.35l-1.69 2.11a292 292 0 0 1-1.29-2.47l-2.1 1.64.51-1.28c.98-1 1.51-2.29 1.97-3.58z"/></g><g><path d="M83.15 184.39c1.5-.95 4 2.06 1.77 2.81-1.6.65-2.9-1.66-1.77-2.81z"/></g><g><path d="M90.66 185.93l1.88-1.39c2.01.15 3.98.56 5.93 1.07a7.52 7.52 0 0 1-3.2 3.12c1.09-.13 2.19-.26 3.29-.31.43-1.08.83-2.18 1.28-3.25 4.21 2.34 9.68-.04 13.53 2.83l-.72 1.79-.91-1.43c-1.75-.15-3.51-.26-5.27-.34l.02 1.69a20.93 20.93 0 0 0-3.49 2.57c-.8.8-1.61 1.58-2.45 2.33-2-.18-3.71-1.38-5.49-2.21-1.09-.8-2.87-.87-3.43-2.25.22-.97.47-1.94.74-2.89l-1.71-1.33m11.64 3.35c.54.53.54.53 0 0z"/></g><g><path d="M102.3 189.28c.54.53.54.53 0 0z"/></g><g><path d="M341.61 191.84l1.53-1.08c.3 4.29-.71 8.49-1.88 12.58-1.46.2-2.93.19-4.38-.05l.05-3.51c1.7-.73 4.24-.85 4.94-2.87.03-1.7-.18-3.38-.26-5.07z"/></g><g><path d="M110.98 200.57c-.83 2.47-5.18 1.28-2.39-.8l2.39.8z"/></g><g><path d="M336.88 203.29c1.45.24 2.92.25 4.38.05a43.88 43.88 0 0 0-1.01 4.82l-3.44.07c.01-1.65.02-3.3.07-4.94z"/></g></g><g fill="#fdfbf8" stroke="#fdfbf8" stroke-width=".09"><path d="M69.75 7.29a48.19 48.19 0 0 1 4.07-4.26c-.56 1.1-1.11 2.24-1.7 3.34L72 9c.49 1.1 1 2.2 1.52 3.3.32-1.38.74-2.74 1-4.14l3.45-1.2.18 2.64.56-2.62 1.46-1.02c.02 1.67 0 3.34-.04 5a14.15 14.15 0 0 1 4.66-1.12l.12 1.58c1.88 0 4.26-1.65 5.57.63l1.57-2.61c3.74 2.5 8.44 1 12.65 1.46 4.94-2.51 10.78-.38 16.1-1.15 2.83-.51 5.32 2.04 8.12.83.3.43.9 1.28 1.22 1.7 1.05-1.15 2.12-2.3 3.22-3.43 1.35.95 2.88 1.79 3.68 3.34a6.5 6.5 0 0 0 1.36-4.02l.04 2.78 2.73-.11 3.39 1.09-.16-2.56c1.18.64 2.36 1.26 3.55 1.89l2.79-2.55 1.37 2.96 2.4-.46c1.74-.8 4.14-2.02 4.08.98-.85.59-4.16-1-4.46.7 1.63 1.38 5.06.57 5.4 3.28.65 5.66 1.6 11.28 2.2 16.95.98 7.02.65 14.15-.86 21.07l-2-.86c-.64-3.37-1.52-6.7-2.1-10.1-.18-1.9-.18-3.8-.12-5.71.42 0 1.25.03 1.66.04.8-.75 1.59-1.5 2.39-2.23a44.1 44.1 0 0 0-4.65-1.21c-.42-1.34-.81-2.68-1.18-4.04-.57-5.22-2.1-10.43-1.8-15.7-.36-.7-.71-1.41-1.03-2.13-35.4.97-70.81.8-106.22 1.53-6.97-.3-14.12.62-21-.71.74-.05 2.2-.14 2.92-.2 2.46-1.15 5.34-1 7.6-2.62l.34 1.47c2.09-2.03 5.35-1.53 8.02-2 1.5.19 1.33-1.8 1.78-2.71l.84 2.05c1.66.16 1.97-1.71 2.58-2.82a8.2 8.2 0 0 0 3.7 1.99l.86-2.48 1.84.83c.55 1.07.95 2.25 1.76 3.16 2.07-.6 4.1-1.32 6.19-1.87.46-1.32.96-2.62 1.43-3.93l2.23 1.79 1.02-1.9a187.7 187.7 0 0 1 1.82 3.45m.45-.04a4 4 0 0 0 .07 3.6c1.25-.18 1.56-3.83-.07-3.6m89.9 31.2c.52.57.52.57 0 0m-1.91 1.94c-.62 1.2 1.37 2.5 2.36 1.73.59-1.22-1.38-2.43-2.36-1.73zM173.38 9.6c.93 1.26 2.6 3.1 3.69.88l1.53 1.07c.97-.9 2-1.72 3.03-2.54l.6 2.56c1.73-.24 4.06.64 5.14-1.3.33.25.99.7 1.32.95 1.6-.1 3.23-.21 4.85-.2-2 1.26-4.55.63-6.78.8-7.2.18-14.4-.12-21.6-.03-.77-1.67 1.07-2.22 2.03-.98 1.79 1 5.72 1.42 6.19-1.21zM159.8 10.67c.9-.82 3.25-.1 2.59 1.32-.82 1.23-3.96.14-2.58-1.32z"/></g><path fill="#606060" stroke="#606060" stroke-width=".09" d="M179.08 4.47c.56.58.56.58 0 0z"/><path fill="#8c4230" stroke="#8c4230" stroke-width=".09" d="M241.17 5.4c2.53.36 4.16 2.53 5.92 4.17-1.14.54-2.28 1.09-3.42 1.6l-.73.34c-.34-2.1-.95-4.15-1.77-6.11z"/><path fill="#c13d1a" stroke="#c13d1a" stroke-width=".09" d="M250.03 11.33c1.94-2.23 4.76-3.65 7.4-4.94-1.12 2.96-2.31 6.06-2.3 9.27 1.55.96 2.96 2.1 4.35 3.28-1.3.82-2.56 1.64-3.88 2.39-1.04.2-2.1.37-3.14.5a14.13 14.13 0 0 0-1.38 5.95c-.2.04-.6.1-.8.15-.36-1.88-1.14-3.81-.62-5.74.9-3.57.27-7.24.37-10.86z"/><path fill="#aea9a5" stroke="#aea9a5" stroke-width=".09" d="M83.17 7.5c.54.63.54.63 0 0z"/><g fill="#e3d9c9" stroke="#e3d9c9" stroke-width=".09"><path d="M228.88 8.47c3.33.86 7.6.43 9.86 3.5-3.42-.78-6.57-2.35-9.86-3.5zM257.77 58.62l.99-.16c.36 1.7.58 3.47-.13 5.13a14.93 14.93 0 0 0 5.88 2.54l3.23.2c-3.15 1-6.47.2-9.7.16-.65 1.06-1.32 2.1-1.96 3.18 2.29 1.68.88 4.66.12 6.77.48 1.15.99 2.3 1.34 3.5-.83 1.35-2.53 1.1-3.85 1.44-2.57-6.42-3.35-13.55-1.5-20.27l.22 2.22-.27 2.34c1.77.16 3.53-.1 5.2-.73-.24-2.12-.25-4.28.43-6.32z"/></g><path fill="#818588" stroke="#818588" stroke-width=".09" d="M299.44 14.23a8.23 8.23 0 0 1 5.39-5.91c3 .46 6.44.9 8.49 3.42 2.29 2.49 4.4 6.45 1.68 9.42-.06-.4-.2-1.2-.25-1.58-1.61-.1-3.22-.14-4.82-.22a10.08 10.08 0 0 0-5.7-2.5l.25-2.28-5.04-.35m9.52-2.84c-.51 1.59.07 2.09 1.73 1.5.52-1.6-.05-2.1-1.73-1.5z"/><path fill="#a43312" stroke="#a43312" stroke-width=".09" d="M247.09 9.57l.53-.26c2.79 2.36 1.36 6.35 1.52 9.53-.84.8-1.67 1.63-2.47 2.46-3.03-1.55-6.4.75-9.58-.44l-.05-.44h.26c1.76 0 3.52.02 5.29 0-.3-1.18-.6-2.36-.88-3.55 2.29-1.07 1.89-3.6 1.96-5.7 1.14-.51 2.28-1.06 3.42-1.6z"/><path fill="#484b4e" stroke="#484b4e" stroke-width=".09" d="M308.96 11.39c1.68-.6 2.25-.1 1.73 1.5-1.66.59-2.24.09-1.73-1.5z"/><g fill="#fefefc" stroke="#fefefc" stroke-width=".09"><path d="M209.22 13.56c1.32-.07 2.95.46 3.72-.98.87.6 2.23 1.14 1.88 2.5.4 3.54.13 7.23-1.96 10.23l-.97.73c-1.28-.5-1.86-1.54-1.74-3.14 2.8.4.75-1.53.08-2.08-.88-2.3-.57-4.86-1.01-7.26zM166.28 13.73c2.14.48 5.37-.77 6.8 1.3 1.5 7.28 2.28 14.72 3.68 22.03.36 5.96-1.54 11.75-1.48 17.69l-1.32-.05c-1.54-1.86-1.53-4.45-2.1-6.7-.74-4.3-1.26-8.64-1.6-13-.78 6.36-1.86 12.67-2.53 19.04-1.7.58-3.48.82-5.28.86-.37-6.1.94-12.05 1.34-18.08.54-7.72 1.23-15.46 2.49-23.1m-1.36 23.7c-1.47 3.16 3.2.13 0 0zM125.15 14.44c1.9.47 5.68-.3 5.68 2.66.72 12.06.05 24.13.8 36.2l-1.03 2.39c-1.7-.06-3.41-.14-5.1-.17-1.3-8.4.2-16.9-.72-25.32.02-5.23-1.1-10.66.37-15.76z"/></g><path fill="#676765" stroke="#676765" stroke-width=".09" d="M21.02 13.39c.57.57.57.57 0 0z"/><g fill="#fefdfa" stroke="#fefdfa" stroke-width=".09"><path d="M180.27 13.54c2.12.1 4.26.2 6.36.58-.76 9.74-2.7 19.4-2.91 29.18-.66-.17-1.97-.51-2.63-.7.78.49 1.64.78 2.58.88-.66 3.17-1 6.38-1.18 9.6 2.46-.1 4.9-.15 7.37-.2l-.2-3.61 2.08.66c-1.01-.86-3.3-1.52-1.95-3.36 1.6.43 3.18 1 4.7 1.69.63.15 1.16.45 1.59.88.04 1.55 0 3.12.04 4.68-.52.1-1.58.35-2.11.46-3.71-.3-7.47-1.1-11.16-.25-2.28.58-4.62.57-6.94.52.25-6.21 1.7-12.3 1.73-18.53.52-7.54 1.85-14.97 2.63-22.48m1.86 9.64c.04 3.26 3.1-1.47 0 0m-2 6.1c-.5 1.22 1.49 2.45 2.47 1.69.53-1.25-1.48-2.42-2.47-1.68m12.95 21.16c.56.57.56.57 0 0zM220.07 12.42c1.55.15 3.09.39 4.62.7 2.1 1.19 1.26 4 1.2 5.96l-1.78 1.12c-.16 2.66.04 5.33.02 8 .2.32.6.95.82 1.26 3.85-1.78 9.4-.52 10.17 4.2.8 5.97 1.5 12.59-1.7 18.02l-.43.82-.88 1.04a396.1 396.1 0 0 1-4.97-.7V50.5l-.04-2.45-1.25-1.71 1.03.46 2.43-1.33c.08-2.86 0-5.72-.15-8.57-1.4-1.38-2.44-3.22-4.1-4.31-.26.49-.5.99-.7 1.5 2.52-.9 2.12 1.38 1.86 2.59-2.97.34-5.6-.7-7-3.36l1.56-.71-1.92.45c-2.06-5.58-2.6-12.2.08-17.66l1.13-3m-1.52 18c2.03.5 3.72-1.23 4.36-2.98-1.92-.2-4.82.4-4.36 2.99m3.47 0c-1.21.8-.2 3.4 1.22 2.2 1.46-.77.26-3.46-1.22-2.2m5.02.8c.19 3.23 3.07-1.53 0 0m1.64 2.55c1.47.7 3.2 3.25 4.87 1.48l-2.5-1.47c.84-.65 1.7-1.3 1.7-2.47-1.54.48-3.05 1.15-4.07 2.46m2.03 9.77c1.03-.86 2.12-1.67 3.14-2.55l-.32-3.81c-1.1 2.04-2.67 3.96-2.82 6.36z"/></g><g fill="#fefdfb" stroke="#fefdfb" stroke-width=".09"><path d="M226.59 12.75c2.32-.27 5.38-.52 6.47 2.1 2.79 3.6 2.17 8.22 2.15 12.49-1.94-.1-4.38.9-6-.45-.31-2.3-.31-4.61-.42-6.91l-1.87-.84a32.5 32.5 0 0 1-.33-6.4zM76.16 15.83c2 .26 4.63-.88 6.28.68a70.58 70.58 0 0 1 4.18 9.9l-1.97.24c1.85-.38 2.87.4 3.07 2.35l.5-.75 1.28 1.89.12.39c-2.63.09-.16 2.6.27 3.69 1.53 4.84.32 9.99 1.04 14.95-.05 2.22.73 4.7-.3 6.76-1.87.4-3.8.22-5.67.14-1.61-7.27 0-14.8-1.32-22.1-.18-.98.1-1.81.87-2.48l-.33-1.15c-.72 1.18-2.68.52-2.63-.9-1.73-4.57-4.13-8.86-5.4-13.61m4.93 7.58c.55.55.55.55 0 0m5.1 18.9c-.71 1.34 1.56 2.6 2.5 1.55 1-1.44-1.56-2.68-2.5-1.54zM56.37 16.4c2.46-.12 5.33-.73 6.92 1.73-1.28 3.22-.13 6.69-.24 10.03.6 8.36.05 16.74.58 25.1a71.4 71.4 0 0 1-.1 3.27c-2.15.02-5.5 1.07-6.27-1.81-1.1-5.47.05-11.02-.3-16.53a31.6 31.6 0 0 1-.28-5.91c-.03-5.3.02-10.58-.31-15.87zM144.19 33.78c2.22 2.4 4.27 5.78 8.04 5.35.89 4.74 1.94 9.46 2.45 14.28-1.72.45-3.45.85-5.17 1.26l-1.43-1.47c-.5-1.33-.87-2.7-1.22-4.06a300 300 0 0 0-4.25.03c-.2-2.14-.07-4.27.08-6.4l3-1.17c-.21-.8-.4-1.6-.58-2.41-.32-1.8-.65-3.6-.92-5.41m4.03 6.44c-.45 1.36.02 1.9 1.4 1.64.46-1.38 0-1.93-1.4-1.64zM196.5 33.57l4.35-.3c2.5 5.94 4.27 12.19 6.35 18.3l.47 1.76c-1.94.23-3.9.6-5.85.25-.93-.93-1.35-2.2-1.88-3.36-2.36-5.23-3.76-10.88-3.44-16.65z"/></g><path fill="#ebeaea" stroke="#ebeaea" stroke-width=".09" d="M114.43 14.67c1.56.09 3.12.22 4.69.38-1.67.78-3.36 1.52-5.03 2.28.43 3.35-1.08 7.44 1.27 10.25-.1 2.09-.18 4.17-.21 6.26l1.08.86a95.03 95.03 0 0 1 5.09-2.44c1.03 1.09 2.08 2.17 3.13 3.24l-.04 1.66c-1.51.19-3.01.39-4.51.6l.05.98c-.03 1.63-.08 3.26-.13 4.9-2.2-.75-3.18-2.77-4.24-4.64-1 1.24-.53 2.69-.34 4.13l-1.5.65c0-8.57-.15-17.15-.12-25.73.02-1.17.5-2.27.8-3.38z"/><path fill="#fdfdfa" stroke="#fdfdfa" stroke-width=".09" d="M189.47 14.88c.62-2.46 4.38-1.38 5.95-.41 1 6.16.76 12.44.97 18.63-.95 4.66 1.19 9.86-.85 14.17-2.25 1.15-2.44-2.1-.9-2.98-1.4-.05-2.07 1.13-2.83 2.05-2.48.44-3.25-.86-2.31-3.88.53.52 1.05 1.06 1.56 1.6l.6-1.96-1.46.9-.8-2.67c-1.02-2.6 3.15-3.04 2.77-5.4.14-1.47 1.4-2.61 1.6-4.11l-1.86-.1c1.64 1.6-1.18 3.46-1.28 5.28-1.42-.3-1.84-1.24-1.26-2.85.28-6.08-.33-12.18.1-18.27m4.7 22.58c-1.15.43-2.36 1.49-2.4 2.82 1 2.7 4.57-2.33 2.4-2.82z"/><path fill="#fffefc" stroke="#fffefc" stroke-width=".09" d="M200.23 13.6c1.92.19 5.02-.72 5.89 1.68-1.2 5.39-3.17 10.59-4.6 15.92-.48 2.1-3.22 1.59-4.74 1.56l.08-1.62c-.12-1.7 3.06-1.03 2.7-2.6-.9.42-1.74.94-2.53 1.55-.97-4.52.65-8.81 1.43-13.18l1.76-1.44V13.6z"/><path fill="#b9babe" stroke="#b9babe" stroke-width=".09" d="M299.44 14.23l5.04.35-.25 2.29c2.12.27 4.1 1.02 5.7 2.49 1.6.08 3.2.12 4.82.22l.25 1.58-1.21 2.07-1.5 1.46c-1.93-.07-4.53-.21-4.91 2.3-.31 1.8-2.1 1.85-3.54 2.02 1.07-.75 2.17-1.46 3.27-2.18a87.3 87.3 0 0 1-4.95-2.88c-.1-.84-.26-2.53-.35-3.37l.94.06c-1.7-.6-3.38-1.18-5.05-1.81.6-1.52 1.13-3.08 1.74-4.6m5.59 7.2c-.81 2.24 1.67 1.83 3.09 2.2l.6-2.1c-1.23-.02-2.46-.06-3.7-.1z"/><path fill="#fefdf9" stroke="#fefdf9" stroke-width=".09" d="M90.42 15.57c2.2-.01 4.48-.27 6.56.62-1.18 5.87-3.7 11.36-5.4 17.09l-1.06.38-.9-3.13-.12-.4 2.29-1.21c-.5-1.16-.97-2.32-1.45-3.48l-3.25-.32c.73-1.56.5-3.88 2.18-4.8l-.04-2.5 1.19-2.25z"/><g fill="#fefdfc" stroke="#fefdfc" stroke-width=".09"><path d="M114.09 17.33c1.67-.76 3.36-1.5 5.03-2.28 1.86 4.99.34 10.42.94 15.6l4.4 1.1-.01 3.75c-1.05-1.07-2.1-2.15-3.13-3.24a95.03 95.03 0 0 0-5.1 2.44l-1.07-.86c.03-2.1.12-4.17.2-6.26-2.34-2.81-.83-6.9-1.26-10.25m2.87 14.12c-1.62 2.96 3.27.34 0 0zM36.96 16.49c3.47.35 6.96-.1 10.42.16 1.67.33 2.1 2.12 2.67 3.46.82 2.28 1.8 4.6 1.68 7.08-.17 7.64.42 15.28.45 22.89-1.2 2.26-1.63 5.14-3.58 6.87-1.53-.06-3.6.75-4.67-.7-.77-1.9-.05-3.97.12-5.93l1.23.12c.24-8.78-.44-17.55-.65-26.32-.88-.52-1.76-1.06-2.64-1.6.17-1.44.27-2.9.1-4.33-1.24-1.3-3.41-.62-5.04-.93z"/></g><path fill="#fefefb" stroke="#fefefb" stroke-width=".09" d="M138.25 14.63c2.07.16 4.55-.75 6.22.93.6 3.84-.8 7.67-.84 11.52-.04 3.4-.6 6.78-.9 10.17-.36 4.64-.34 9.32-1.13 13.92-.32 1.42-.7 2.83-1.07 4.24-1.9.08-3.8.1-5.7.08-.33-2.83-.4-5.7-.15-8.54 1.29-10.77 1.29-21.7 3.57-32.32z"/><path fill="#fffcf9" stroke="#fffcf9" stroke-width=".09" d="M145.43 13.9c3.66 1.6 3.28 5.92 4.05 9.17l-2.7-1.02c-.17.42-.55 1.26-.73 1.69 1.64.5 1.37 2 1.25 3.35l1.58.88-4.9-.54c.24-4.53 1.29-8.98 1.45-13.52z"/><path fill="#fcfcfb" stroke="#fcfcfb" stroke-width=".09" d="M67.3 16.74c1.27-1.93 4.43-1.03 6.07-.08 1 2.15.3 4.72.44 7.02l-2.46.07c1.63 1.46 3.3 3.06 2.64 5.49-.62 9 1.77 18.14-.13 27.02-1.68-.03-3.57.77-5.11-.14-2.24-4.2-2.95-8.95-4.52-13.38-.44-6.2.05-12.42-.68-18.6.23-1.91-1-4.67.99-5.9 1.27 5.26 1.93 10.69 3.66 15.8-.11-1.97-.23-3.94-.3-5.92 1.28-.35 3.16-.86 2.5-2.68-1.02.97-2.15.2-3.02-.55.05-2.71-.14-5.43-.07-8.15m2.73 4.69c.55.54.55.54 0 0z"/><path fill="#fbfaf8" stroke="#fbfaf8" stroke-width=".09" d="M12.38 17.7c3.94-.31 8.04-.72 11.92-.03.95 2.84-.06 6.06.26 9-.81-.82-3.44-1.45-2.08-2.95l-2.41-.17c.95 1.66 4.67 2.98 3.17 5.13-1.38 1.36-1.6-1.28-1.8-2.12l.27 2.54-1.93-.28 2.83 1.27c-1 1.67-1.67 3.5-1.43 5.48.3-.02.94-.06 1.25-.1-.68-1.67-.2-3.44.49-5.04l1.88.12c.05 8.57.32 17.16.15 25.73l-.46 1.45c-1.74-.05-3.55.34-5.23-.25l.49-1.93c1.86-.63 2.55-2.56 3.62-4.01-.65-.5-1.3-1.01-1.93-1.53l.2-.81c.42-1.22.83-2.45 1.3-3.64-1.08.19-2.17.39-3.25.6 0-2.42-.07-4.85-.76-7.18-.83-4.8-.4-9.73-.5-14.58-1.68-.25-3.42-.3-5.06-.73-1.2-1.74-.8-3.98-1-5.97m10.67 30.85c-1.52 3.04 3.24.24 0 0m.03 4.83c.54.57.54.57 0 0z"/><path fill="#fefbfa" stroke="#fefbfa" stroke-width=".09" d="M25.34 16.68c1.95.37 3.93.62 5.88.99.17 2.04.06 4.1-.17 6.13-1.96.16-3.94.18-5.9-.1-.18-2.34-.06-4.7.19-7.02m1.8 2.88c.56.55.56.55 0 0z"/><path fill="#fcfbf8" stroke="#fcfbf8" stroke-width=".09" d="M36.3 17.24l.75.02c1.63.3 3.8-.37 5.04.93.17 1.44.07 2.89-.1 4.33l-.82 1.38-1.6-.2c-1.9-.26-3.76.38-5.56.88a5.6 5.6 0 0 1 1.08-4.21c.48-1.02.88-2.06 1.22-3.13z"/><path fill="#b25038" stroke="#b25038" stroke-width=".09" d="M237.3 20.42c.7-1.91 2.83-2.56 4.4-3.55l.89 3.56-5.3-.01z"/><path fill="#c3bfbc" stroke="#c3bfbc" stroke-width=".09" d="M27.15 19.56c.55.55.55.55 0 0z"/><path fill="#84463f" stroke="#84463f" stroke-width=".09" d="M246.67 21.3c.8-.83 1.63-1.65 2.47-2.46-.23 2.94-.32 5.88-.45 8.83-1.5-1.64-1.98-4.2-2.02-6.37z"/><path fill="#9d4c3a" stroke="#9d4c3a" stroke-width=".09" d="M259.48 18.94c.94.6 1.84 1.3 2.54 2.2-2.11.55-4.28.42-6.42.19 1.32-.75 2.59-1.57 3.88-2.4z"/><path fill="#c9c9c7" stroke="#c9c9c7" stroke-width=".09" d="M70.04 21.43c.55.54.55.54 0 0z"/><path fill="#e6e6e8" stroke="#e6e6e8" stroke-width=".09" d="M298.04 20.32l3.77.26.35 3.37a87.3 87.3 0 0 0 4.95 2.88c-1.1.72-2.2 1.43-3.27 2.18 1.45-.17 3.23-.21 3.54-2.01.38-2.52 2.98-2.38 4.92-2.31l1.49-1.46a34.84 34.84 0 0 1-2.56 5.42l.39 3.46c.56-1.05 1.07-2.12 1.65-3.17l2.65 1.37c-.6 3.9 4.89 2.98 5.53 6.34.89 2.62 2.35 4.92 5.03 5.98l-.86.87c-3.32.13-6.6.64-9.87 1.17l-.1-2.58c-1.91-.13-3.05 1.39-4.17 2.67-1.8-.5-3.6-1.06-5.43-1.34-.85 1.1.38 2.3.68 3.39-1.3.94-2.61 1.86-3.91 2.79l-2.25-.71c-2.51 1.05-5.25.55-7.86.42.3 1.33.59 2.67.9 4-2.44.32-4.9.4-7.35.45l.15-2.4a57.5 57.5 0 0 1-3.7.47 28.4 28.4 0 0 0-5.43.83 92 92 0 0 1-1.02-1.66c1.2-1.75 2.54-3.41 3.79-5.14.92 1.17 1.89 2.3 2.82 3.47 2.92.07 5.84.2 8.74.6l-.21-2.28-3.41.32.15-4.7c.8 1.02 1.64 2.04 2.5 3.04.26-2.97-2.7-4.96-2.35-8.01l-.64-.51c-1.3-.63-2.6-1.16-3.86-1.81 1.52-2.52 5.22-1.91 7.74-2.75 1.92.82 4.04.6 6.09.64l-.56.75c-1.78.3-3.57.5-5.35.73 1.47.62 3.05 3.2 4.66 1.46 2.04 1.49 4.48 1.8 6.22-.31l1.09 1.7 2.05-1.13 2.95.79a33.41 33.41 0 0 1 7.14-2.22c-4.8-.23-9.57-.43-14.37-.44.26-1.27.5-2.54.77-3.81-.2-.2-.6-.56-.8-.74a5.09 5.09 0 0 0-2.3-3.15l-.05-.7c.09-2.22-.25-4.41-1.03-6.48M312 37.1c-2.67 1.5 1.03 2.82 2.19 1.28 1.4-1.36-1.32-2.25-2.2-1.28m-12.7 2.13c-.9 1.19 1.17 2.98 2.15 1.72 1.03-1.32-1.11-3.01-2.15-1.72m-6.4 2.95c-.63 2-.28 4.14-.27 6.2 1.7.43 3.15-.33 4.46-1.35-.63-.43-1.23-.9-1.8-1.4 2.78-.56-.72-4.71-2.38-3.45m5.03.93c-2.01 2.58 2.96 6.53 4.39 3.1-1.06-1.31-2.45-3.6-4.4-3.1z"/><path fill="#d6d7db" stroke="#d6d7db" stroke-width=".09" d="M305.03 21.44l3.7.1-.61 2.1c-1.42-.38-3.9.03-3.1-2.2z"/><path fill="#eeedeb" stroke="#eeedeb" stroke-width=".09" d="M146.79 22.05l2.69 1.02c.77 5.38 2.13 10.66 2.75 16.06-3.77.43-5.82-2.94-8.04-5.35a32.88 32.88 0 0 1-.2-6.35l4.89.54-1.58-.88c.12-1.35.39-2.85-1.25-3.35l.74-1.7m1.28 8.3c-2 .79-.36 3.02.08 4.32 1.07-.86 2.42-4.45-.08-4.31z"/><path fill="#fdfcfa" stroke="#fdfcfa" stroke-width=".09" d="M34 24.58c1.8-.5 3.67-1.14 5.57-.87 1.1 1.09.46 3.03.7 4.45-.08 7.39.48 14.77.18 22.16l2.83.63a53.7 53.7 0 0 1-.66 6.06c-1.9.24-3.98.25-5.1-1.58-4.78-4.88-2.74-12.06-3.45-18.13-.6-4.17.14-8.4-.67-12.54z"/><path fill="#c2c2c0" stroke="#c2c2c0" stroke-width=".09" d="M81.08 23.4c.55.56.55.56 0 0z"/><path fill="#d8d6d6" stroke="#d8d6d6" stroke-width=".09" d="M182.13 23.18c3.1-1.47.04 3.26 0 0z"/><path fill="#818084" stroke="#818084" stroke-width=".09" d="M279.07 26.52c3.1-4.41 8.57 0 12.54-2.75 1.03.3 2.07.6 3.08 1l-2.88 2.3c-4.02.46-8.1-1.04-12.03.3.32 2.1.99 4.12 1.89 6.04-2.57.6-5.84.2-7.53 2.63l-3.11-1.22-2.46-1.05c3.06-1.9 5.69-4.36 8.26-6.87l2.24-.38z"/><path fill="#d1d0cf" stroke="#d1d0cf" stroke-width=".09" d="M87.09 25.12l3.25.32 1.45 3.48c-.57.3-1.72.9-2.3 1.22l-1.26-1.9c-.3-.77-.85-2.34-1.14-3.12z"/><path fill="#323334" stroke="#323334" stroke-width=".09" d="M263.63 28.8c1.55-4.53 6.72-3.35 10.45-3.55a24.37 24.37 0 0 1-5.94 3.4l.19 3.04a14.45 14.45 0 0 0-2.87 2.42l-.57.27-2.1-.57c.19-1.68.47-3.35.84-5z"/><path fill="#58585a" stroke="#58585a" stroke-width=".09" d="M274.08 25.25l3.18-.3-.43 1.95c-2.57 2.5-5.2 4.97-8.26 6.87l2.46 1.05c-1.85-.3-3.72-.47-5.57-.71.84-.94 1.82-1.73 2.87-2.42l-.2-3.03c2.14-.85 4.14-2 5.95-3.41z"/><path fill="#a5a6ab" stroke="#a5a6ab" stroke-width=".09" d="M291.8 27.08c.96-.78 1.92-1.54 2.89-2.3 1.44.7 2.89 1.39 4.38 2.02 0 .17.04.52.06.7a5.09 5.09 0 0 1 2.3 3.15 7.9 7.9 0 0 0-3.81 3.22c-2.05-.03-4.17.18-6.1-.64l.14-1.5c-2.98 1.47-4.02-1.7-4.9-3.88-.7 1.69-1.41 3.38-2.08 5.08l-3.01.48a22.14 22.14 0 0 1-1.9-6.03c3.94-1.35 8.02.15 12.04-.3z"/><path fill="#d7d7d5" stroke="#d7d7d5" stroke-width=".09" d="M218.55 30.42c-.46-2.6 2.44-3.2 4.36-3-.64 1.76-2.33 3.49-4.36 3z"/><path fill="#cecfd1" stroke="#cecfd1" stroke-width=".09" d="M284.68 32.93c.67-1.7 1.38-3.4 2.09-5.08.87 2.19 1.9 5.35 4.89 3.89l-.13 1.49c-2.52.84-6.22.23-7.74 2.75 1.26.65 2.57 1.18 3.86 1.8-2.33 1.92-5.2 2.48-8.13 2.2l-.37-3.18c-1.7-.13-3.41-.18-5.01-.76 1.69-2.43 4.96-2.02 7.53-2.63l3-.48z"/><path fill="#d4d2d1" stroke="#d4d2d1" stroke-width=".09" d="M180.13 29.29c.99-.74 3 .43 2.47 1.68-.98.76-2.96-.47-2.47-1.68z"/><path fill="#d0d0cf" stroke="#d0d0cf" stroke-width=".09" d="M148.07 30.35c2.5-.14 1.15 3.45.08 4.3-.44-1.3-2.08-3.52-.08-4.3z"/><g fill="#cccdd0" stroke="#cccdd0" stroke-width=".09"><path d="M154.87 30.09c.37 1.36.76 2.7 1.18 4.04 1.57.33 3.12.7 4.65 1.2l-2.4 2.24-1.65-.04c-.06 1.9-.06 3.82.13 5.72-.77-4.36-1.21-8.78-1.91-13.16zM271 60.07c1.92-2.93 3.57-6.01 5.26-9.07a92 92 0 0 0 1.02 1.66 28.4 28.4 0 0 1 5.43-.83c-.42 3.77 3 6.3 2.76 10l-2.41.4c.26 1.4.52 2.78.8 4.16l-2.6-.04c-.55-2.52-2.48-4.64-5.23-3.87a8.4 8.4 0 0 0-5.03-2.41z"/></g><path fill="#dbdada" stroke="#dbdada" stroke-width=".09" d="M222.02 30.42c1.48-1.26 2.68 1.43 1.22 2.2-1.41 1.2-2.43-1.4-1.22-2.2z"/><path fill="#d8d7d6" stroke="#d8d7d6" stroke-width=".09" d="M116.96 31.45c3.27.34-1.62 2.96 0 0z"/><path fill="#b1b0ae" stroke="#b1b0ae" stroke-width=".09" d="M227.04 31.22c3.07-1.53.19 3.23 0 0z"/><path fill="#d9d8d7" stroke="#d9d8d7" stroke-width=".09" d="M228.68 33.77c1.02-1.31 2.53-1.98 4.07-2.46 0 1.18-.86 1.82-1.7 2.47l2.5 1.47c-1.67 1.77-3.4-.77-4.87-1.48z"/><path fill="#fdfefe" stroke="#fdfefe" stroke-width=".09" d="M297.62 33.87a7.9 7.9 0 0 1 3.8-3.22l.8.74-.77 3.8c4.8.02 9.58.22 14.37.45a33.41 33.41 0 0 0-7.14 2.22c-1-.26-1.97-.52-2.95-.8-.51.3-1.54.87-2.05 1.15l-1.1-1.71c-1.73 2.1-4.17 1.8-6.21.3-1.61 1.75-3.2-.83-4.66-1.45 1.78-.22 3.57-.42 5.35-.73z"/><g fill="#b3b3b7" stroke="#b3b3b7" stroke-width=".09"><path d="M315.92 30.3c1.62.48 3.94.23 3.83 2.55l.78-1.35c2.6.8 5.17 1.85 7.28 3.65 2.33 2.3 6.74 1.76 7.78 5.37-.81 2.03-1.56 4.09-2.28 6.15-2.58-1.03-5.36-1.6-7.7-3.17l.87-.87c-2.68-1.06-4.14-3.36-5.03-5.98-.64-3.36-6.12-2.43-5.53-6.34zM87.59 102.2a9.08 9.08 0 0 1 5.06-.14l-.14.4c-1.5.65-3.8 1.33-4.92-.26z"/></g><path fill="#6f4411" stroke="#6f4411" stroke-width=".09" d="M22.76 117.24l-.3-3.14 1.72 1.33c-.27.95-.52 1.92-.74 2.89.56 1.38 2.34 1.45 3.43 2.25l-1.11 3.17c-3.36 0-6.64 1.34-10.01.75l.29 1.7-2.14-.77c-.68.47-1.35.94-2.01 1.43l-2.52-.54c.33.97.65 1.95.96 2.93a79.03 79.03 0 0 1-5.16-2.5l1.64-1.18-3.78-1.92c.8-.87 1.62-1.73 2.44-2.58 2.05 1 4.1 1.99 6.13 3.03l.69-2.71a8.32 8.32 0 0 1 5 .23c1.17-2.18 3.45-3.2 5.47-4.37z"/><path fill="#d4d3cf" stroke="#d4d3cf" stroke-width=".09" d="M164.92 37.43c3.2.12-1.47 3.15 0 0z"/><path fill="#d5d6d5" stroke="#d5d6d5" stroke-width=".09" d="M194.18 37.46c2.16.49-1.41 5.52-2.4 2.82.03-1.33 1.24-2.4 2.4-2.82z"/><path fill="#dbdbda" stroke="#dbdbda" stroke-width=".09" d="M230.7 43.54c.16-2.4 1.74-4.32 2.83-6.36a489 489 0 0 1 .32 3.8c-1.02.89-2.11 1.7-3.14 2.56z"/><path fill="#c5c6c8" stroke="#c5c6c8" stroke-width=".09" d="M312 37.1c.88-.96 3.6-.07 2.2 1.29-1.16 1.54-4.86.22-2.2-1.28z"/><path fill="#c8c8c8" stroke="#c8c8c8" stroke-width=".09" d="M160.1 38.46c.52.56.52.56 0 0z"/><path fill="#f6f5f7" stroke="#f6f5f7" stroke-width=".09" d="M218.57 38.9c1.9 0 3.8.12 5.68.52.06 1.89.13 3.79.36 5.68l1.24 1.25 1.25 1.7c0 .62.04 1.85.05 2.46a27.21 27.21 0 0 0-6.81-4.02l-.34-2.53a20.54 20.54 0 0 0-1.56 3.24c-.16-2.76-.06-5.53.13-8.3m4.45 6.49c.53.59.53.59 0 0z"/><path fill="#a2a5aa" stroke="#a2a5aa" stroke-width=".09" d="M279.52 39.98c2.93.28 5.8-.28 8.13-2.2l.64.52c-.34 3.05 2.6 5.04 2.35 8-.86-1-1.7-2.01-2.5-3.03l-.15 4.7 3.4-.32.22 2.29c-2.9-.4-5.82-.54-8.74-.61-.93-1.16-1.9-2.3-2.82-3.47a7.48 7.48 0 0 0-.08-4.27l-.45-1.61z"/><path fill="#d7d5d2" stroke="#d7d5d2" stroke-width=".09" d="M18.93 38.98c.69 2.33.76 4.76.76 7.18 1.08-.21 2.17-.41 3.26-.6-.48 1.19-.9 2.42-1.3 3.64l-1.9.73-.94.48a50.8 50.8 0 0 1 .12-11.43z"/><path fill="#fdfcfb" stroke="#fdfcfb" stroke-width=".09" d="M115.24 43.13c-.2-1.44-.65-2.9.34-4.13 1.06 1.87 2.05 3.89 4.24 4.64.05-1.64.1-3.27.13-4.9.64 5.18.29 10.44.68 15.65l-2.4 1.35-3.63-.88c-.92-3.83-1.2-8.12.64-11.73z"/><path fill="#b8b8b9" stroke="#b8b8b9" stroke-width=".09" d="M299.3 39.24c1.04-1.3 3.18.4 2.15 1.72-.98 1.26-3.04-.53-2.15-1.72z"/><path fill="#7e7e7e" stroke="#7e7e7e" stroke-width=".09" d="M261.25 117.9l1.69-2.1 1.79 1.9 1.79 2.12-1.7 1.09c2.92 1.3 5.94.67 8.6-.9.08 1.69.29 3.37.26 5.07-.7 2.02-3.24 2.14-4.94 2.87l-1.01-.45c-.98 6.17.03 12.5-1.32 18.64.36-4.7-.2-9.33-1.06-13.92.12-4.21-3.01-7.38-3.87-11.35l-5.61-.18c1.75-.1 3.5-.17 5.26-.25l.12-2.53z"/><path fill="#d0cecb" stroke="#d0cecb" stroke-width=".09" d="M158.19 40.39c.98-.7 2.95.5 2.36 1.73-1 .78-2.98-.52-2.36-1.73z"/><path fill="#b6b6b8" stroke="#b6b6b8" stroke-width=".09" d="M333.3 46.67c.73-2.06 1.48-4.12 2.29-6.15 5.6 1.57 10.66 4.55 16.07 6.63-1.03 1.45-1.93 3.29-3.97 3.39-4.8-1.27-9.91-1.52-14.38-3.87z"/><path fill="#d9d8d8" stroke="#d9d8d8" stroke-width=".09" d="M86.18 42.32c.94-1.14 3.5.1 2.5 1.54-.94 1.05-3.21-.21-2.5-1.54z"/><path fill="#c7cacc" stroke="#c7cacc" stroke-width=".09" d="M292.9 42.19c1.67-1.26 5.17 2.89 2.4 3.45.56.5 1.16.97 1.79 1.4-1.31 1.02-2.76 1.78-4.46 1.36-.01-2.07-.36-4.2.28-6.21z"/><path fill="#d5d9da" stroke="#d5d9da" stroke-width=".09" d="M311.48 44.76c1.12-1.28 2.26-2.8 4.17-2.67l.1 2.58c-.17 2.07-.1 4.23-.82 6.2l-.47.05c-1.86-1.2-4.1-.98-6.2-1.12l-1.53-3c-.3-1.08-1.53-2.27-.68-3.38 1.84.28 3.63.84 5.43 1.34z"/><path fill="#bec0c2" stroke="#bec0c2" stroke-width=".09" d="M297.94 43.12c1.94-.5 3.33 1.79 4.39 3.1-1.43 3.43-6.4-.52-4.4-3.1z"/><path fill="#fffcf4" stroke="#fffcf4" stroke-width=".09" d="M218.44 47.2c.44-1.12.93-2.21 1.56-3.24l.34 2.53c2.46.98 4.73 2.37 6.8 4.02v2.33c-1.9.53-3.87.69-5.83.66l-1-2.1c-.64-1.38-1.28-2.78-1.87-4.2z"/><path fill="#a6a5a3" stroke="#a6a5a3" stroke-width=".09" d="M223.02 45.39c.53.59.53.59 0 0z"/><path fill="#555557" stroke="#555557" stroke-width=".09" d="M355.14 46.29c3.97-2.3 7.06 3.06 9.16 5.73-.41 1.08-.84 2.15-1.28 3.2a37.37 37.37 0 0 0-.46-3.8c-2.16-1.1-4.54-1.6-6.86-2.17-2.15-.92-4.46.1-5.73 1.94l-1.95-.1-.33-.55c2.04-.1 2.94-1.94 3.97-3.4 1.34.4 2.76.74 3.48-.85z"/><path fill="#f3f3f5" stroke="#f3f3f5" stroke-width=".09" d="M302.82 49.6c1.3-.93 2.6-1.85 3.9-2.8.5 1 1.02 2 1.54 3 2.1.14 4.34-.07 6.2 1.12l-1.92 1.43c-2.7.2-5.4.09-8.07.02a44.28 44.28 0 0 1-2.11 5.77l1.08 3a8.37 8.37 0 0 0-2.53-2.35c-.45.54-1.37 1.6-1.82 2.15.03-1.47.02-2.95.2-4.41 1.18-.88 3.7-1.27 2.66-3.3-2.7-1.21-5.6-.34-8.34.08-.31-1.33-.6-2.67-.9-4 2.6.13 5.35.63 7.86-.42l2.25.7z"/><path fill="#c6c6c4" stroke="#c6c6c4" stroke-width=".09" d="M23.04 48.55c3.24.24-1.52 3.04 0 0z"/><path fill="#a3a2a0" stroke="#a3a2a0" stroke-width=".09" d="M19.76 49.93c.47-.2 1.42-.55 1.89-.73l-.21.8-.86.38z"/><path fill="#d1a872" stroke="#d1a872" stroke-width=".09" d="M196.08 49.14l.7 2.68 3.15-.45v-1.15c.54 1.16.96 2.43 1.89 3.36 1.95.35 3.9-.02 5.85-.25l-.47-1.76c4.37.12 8.75-.07 13.12-.16l.99 2.09c-8.42-.16-16.8.47-25.2.32-.02-1.56 0-3.13-.03-4.68z"/><path fill="#aaabad" stroke="#aaabad" stroke-width=".09" d="M349.97 51.19c1.27-1.83 3.58-2.86 5.73-1.94 2.27 1.79 4.83 3.84 4.4 7.1l-1.34.36c-2.18-1.75-3.63-4.52-6.64-4.98l-2.15-.54z"/><path fill="#7d7e82" stroke="#7d7e82" stroke-width=".09" d="M355.7 49.25c2.32.58 4.7 1.08 6.86 2.17.22 1.26.37 2.53.46 3.8l-1.3 2.1-2.96-.61 1.34-.36c.43-3.26-2.13-5.31-4.4-7.1z"/><path fill="#faf8f5" stroke="#faf8f5" stroke-width=".09" d="M18.8 50.4l.96-.47.82.45-1.87.8z"/><path fill="#d5d3d2" stroke="#d5d3d2" stroke-width=".09" d="M20.58 50.38l.86-.37c.63.52 1.28 1.03 1.93 1.53-1.07 1.45-1.76 3.38-3.62 4-.12.49-.36 1.46-.5 1.94a17.39 17.39 0 0 1-.54-6.3l1.87-.8z"/><path fill="#a3a4a6" stroke="#a3a4a6" stroke-width=".09" d="M193.08 50.45c.56.57.56.57 0 0z"/><path fill="#f3921d" stroke="#f3921d" stroke-width=".09" d="M240.17 50.96l1.44.52.76-.03a25.2 25.2 0 0 1-.1 1.93c.09 2.47.49 4.97.05 7.43l-1.44.52-1.26.74c-.4 5.45.17 10.92-.31 16.37-1.11-1.1-2.21-2.21-3.3-3.32-.1-2.04-.4-4.06-.77-6.06-.15 5.39-.4 10.78-.6 16.17 0-10.38-.76-20.74-.53-31.1l-1.12-1.63c.1-.21.33-.61.44-.82.85-.13 2.55-.4 3.4-.51-2.5 1.69 2.13 2.54 2.6.73l-.36-.92 1.1-.02z"/><path fill="#856440" stroke="#856440" stroke-width=".09" d="M242.37 51.45c5.58-.51 11.36-1.53 16.9-.27-.63 1-1.28 2-1.94 3 .9 1.26 1.66 2.72 3.08 3.47l1.52.48-3.17.33-1 .16c-.67 2.04-.66 4.2-.42 6.32-1.67.64-3.43.89-5.2.73l.27-2.34c.9-.81 1.8-1.6 2.74-2.35 3.1-1.52 1.67-4.96.06-7.1-1.4-2.25-4.32-.66-6.43-.85l.09.74c-1.66.34-3.33.62-5 .89-.14 1.75-.26 3.5-.35 5.26l-.11-.32c-.4-2.03.88-4.9-1.14-6.22.06-.65.09-1.3.1-1.93z"/><path fill="#a7aaae" stroke="#a7aaae" stroke-width=".09" d="M282.7 51.83c1.25-.1 2.48-.28 3.7-.46l-.14 2.39c2.45-.04 4.9-.13 7.35-.45 2.75-.42 5.64-1.3 8.34-.08 1.05 2.03-1.48 2.42-2.65 3.3-.2 1.46-.18 2.94-.21 4.4l1.82-2.14a8.37 8.37 0 0 1 2.53 2.36l-1.08-3.01c.82-1.88 1.56-3.8 2.1-5.77 2.69.07 5.39.18 8.08-.02-.76.9-1.4 1.9-1.94 2.96l-.45-.51c-.9-1.07-1.93-1.23-3.1-.5-.26 1.4.46 2.1 2.14 2.1l-.53 2.72c-2.76 1.9.45 5.22-1.44 7.56-2.36-.47-5.21-.07-6.93-2.08a536.37 536.37 0 0 0-3.64 3.07 82.43 82.43 0 0 0-1.86-1.88l-.86-.4-2.18.98c-1.7-.63-3.41-1.26-5.12-1.87-.44 1.34-1.37 1.97-2.77 1.89-.28-1.38-.54-2.76-.8-4.15l2.4-.41c.26-3.7-3.17-6.23-2.75-10m8.18 8.09c1.09.96 2.2 1.98 3.7 2.2.4-1 .82-1.98 1.23-2.97-1.66-.95-3.93-1.21-4.93.77z"/><path fill="#c1c1c1" stroke="#c1c1c1" stroke-width=".09" d="M23.07 53.38c.54.57.54.57 0 0z"/><g fill="#ed9a32" stroke="#ed9a32" stroke-width=".09"><path d="M243.88 54.66c1.66-.27 3.33-.55 4.99-.9 1.07 2.48 2.33 4.85 3.32 7.35-1.85 6.72-1.07 13.85 1.5 20.27.22 1.55.3 3.13.43 4.7a31.73 31.73 0 0 0-2.52 5.76c-2.15-.11-3.41 3.19-5.58 1.24.34-1.44.6-2.91.96-4.34v-.06c1.75-2.4 1.2-5.45 1.33-8.21l-1.47-1.6-.61-.67c2.25-.61 2.48-2.97 2.19-4.9-.71-4.34.7-9-1.77-12.96l-3.13-.42c.09-1.76.2-3.51.36-5.26zM73.6 62.12c1.4-1.02 3.37-.8 5.02-.76 1.73 2.45 2.3 5.57 3.58 8.29.13 7.17.2 14.37.86 21.53.48 4.25-1.81 8.05-3.46 11.79-1.6.2-3.2.25-4.8.17a40.02 40.02 0 0 1-.31-6l2.14-1.61c-.57-8.91-.31-17.87-1.32-26.74-2.91-.91-1.9-4.43-1.71-6.67m1.44 1.3c0 .67.04 1.99.05 2.65 3.76 4.15 1.12 10.2 2.56 15.18.28 6.03 2.15 12.97-1.53 18.33l1 1.45c1.13-.2 2.28-.7 2.57-1.93 1.1-3.01 2.18-6.26 1.54-9.5-.96-6.1-.63-12.28-.75-18.41.07-2.75-1.54-5.12-2.23-7.7l-3.21-.06zM40.89 62.7c1.82-.15 3.64-.15 5.46-.17.23.25.67.76.9 1-.41 7.93 1.07 15.77.95 23.68-.16 5.35 1.53 10.66.55 16-.86 1.46-2.62 2.05-3.94 3.03-1.44-1.74-2.88-3.67-2.65-6.07-.04-12.51-1.58-24.96-1.27-37.47m2.28 1.79a5.95 5.95 0 0 0-.85 4.48c2.05 11.18-.6 22.7 1.96 33.82l2.19.03c-.1-7.2.28-14.42-.22-21.61-1.1-4.93-.75-9.98-.84-15a1.64 1.64 0 0 0-2.24-1.72zM177.95 63.95c1.29 1.39 1.12 3.37 1.4 5.1.59 6.03 1.65 12.03 1.67 18.09.25 3.5-2.05 6.5-2.08 9.98 2.45-.25 4-2.24 5.99-3.43l-.83 2.57c-.62.72-1.22 1.46-1.83 2.19-1.44.1-2.88.18-4.31.32-.73-2.67-1.31-5.88 1.23-7.8-.22-9.01-1.54-18-1.24-27.02zM93.39 97.98c.88-3 4.76-3.08 7.22-2.42 1.32 1.76.73 4.27 1.03 6.35-2.45.52-5.11 1.53-7.52.3 1.36-1.7 3.67-1.3 5.57-1.61-.42-1.27.19-3.36-1.23-4.01-1.74.23-3.4.87-5.07 1.39z"/></g><path fill="#35271b" stroke="#35271b" stroke-width=".09" d="M255.2 53.88c1.62 2.14 3.06 5.58-.05 7.1L253 59.72a46.07 46.07 0 0 1 2.2-5.84z"/><path fill="#cfd1d3" stroke="#cfd1d3" stroke-width=".09" d="M307.05 54.3c1.17-.73 2.2-.57 3.1.5l-.96 1.6c-1.68 0-2.4-.7-2.14-2.1z"/><path fill="#f3941d" stroke="#f3941d" stroke-width=".09" d="M211.34 54.98c1.83.02 3.66.13 5.49.3 1.22 9.62 1.3 19.29 1.52 28.97-.03 4.19 1.33 8.42.18 12.54-1.65-.05-3.4.43-4.98-.17-1.93-2.71-1.04-6.26-1.28-9.37.19-10.77-1.5-21.51-.93-32.27z"/><path fill="#eb9f3d" stroke="#eb9f3d" stroke-width=".09" d="M222.49 57.2c-.5-3.42 4-2.88 6.14-2.33.75 8.05.77 16.14.92 24.2-.06 5.7 1.94 11.48.26 17.1-1.68.09-3.43.68-5.07.12-2.2-3.72-3.01-8-4.4-12.04-1.8-4.78-.64-10-1.42-14.94-.65-4.01-.4-8.07-.74-12.1l1.08.38c.82 4.7 3.06 9.46 2.83 14.18-1.62 2.67-1.64 5.85-1.18 8.86.7 2.46 1.52 4.89 2.13 7.38.89 2.67 1.48 7.53 5.3 6.82.26-2.53.35-5.08.29-7.62-.01-3.15.07-6.31-.54-9.42-.28-6.64-.57-13.3-.94-19.92.1-1.68-2.44-2.1-2.81-.53-.31 4.78 1.67 9.85-.63 14.37-.88-4.77-.93-9.66-1.22-14.5z"/><path fill="#f09420" stroke="#f09420" stroke-width=".09" d="M188.7 56.38c1.92-.04 3.85-.06 5.78 0 .18 6.2.94 12.4.87 18.6l-.55 2.83-1.63 2.17-2.34-2.25-1.56 2.6c-.63-5.7-.53-11.46-.8-17.2-.06-2.24-.54-4.56.23-6.75z"/><path fill="#f19320" stroke="#f19320" stroke-width=".09" d="M199.97 56.3c2.13-.66 4.43-1.04 6.55-.12.1 2.34.4 4.68.33 7.03-.56 3.97-.24 7.97-.24 11.95-.01 2.2-1.63 3.99-3.38 5.13.37-3.13.02-6.28-1.12-9.23-.42 2.43-.78 4.88-1.04 7.33-.92-7.32-.77-14.73-1.1-22.1z"/><path fill="#f48d1a" stroke="#f48d1a" stroke-width=".09" d="M224.34 57.34c.37-1.57 2.9-1.15 2.8.53.38 6.63.67 13.28.95 19.92l-.6 3.02c-1.05-.74-2.08-1.5-3.13-2.22l-3.45 2.04c-.46-3.01-.44-6.2 1.18-8.86l.86.17.29 2.15c.05-.82.2-1.62.47-2.38 2.3-4.52.32-9.6.63-14.37z"/><path fill="#f5961c" stroke="#f5961c" stroke-width=".09" d="M167.73 61.55c-.07-3.74 3.64-5.45 6.93-4.5.16 2.1.24 4.19.12 6.28l-2.24.68c.29 9.24.83 18.48 1.33 27.7 3.6.43 2.28 4.52 2.2 6.94a5.56 5.56 0 0 1-5.6-1.83c1.04-2.3-1.54-4.3-1.62-6.6-.28-9.56-.98-19.1-1.12-28.67z"/><path fill="#f4931b" stroke="#f4931b" stroke-width=".09" d="M175.86 57.13c1.95-.35 5.09-1.43 6.1.99 3.93 6.67 2.68 14.69 3.29 22.07-.28 4.5 1.67 9.2-.32 13.5-2 1.19-3.54 3.18-6 3.43.04-3.48 2.34-6.47 2.09-9.98-.02-6.06-1.08-12.06-1.66-18.08-.3-1.74-.12-3.72-1.41-5.11l-2.4-.8c.02-2-.45-4.1.3-6.02z"/><path fill="#f09528" stroke="#f09528" stroke-width=".09" d="M134.27 58.6c1.89.24 4.06.16 5.58 1.52 2.8 3.29 3.05 7.8 2.73 11.93a9.71 9.71 0 0 1-5.84.3c-.61-2.5 1.02-6.03-1.77-7.51-1.98-1.42-1.4-4.26-.7-6.24z"/><path fill="#f5951a" stroke="#f5951a" stroke-width=".09" d="M146.59 58.03c1.76-.04 3.5-.14 5.27-.02 1.4.86 1.08 2.65 1.22 4.04.15 12.5 1.45 24.97 1.59 37.48-2.01.03-6.44 1.8-6.52-1.44a86.76 86.76 0 0 1-.9-11.94c-.5-9.36-1.5-18.75-.66-28.12z"/><path fill="#f4961e" stroke="#f4961e" stroke-width=".09" d="M153.59 57.94c1.69.08 3.49-.35 5.1.3 4.83 5.1 4.12 12.48 4.38 18.98-.2 2.15-1.6 3.95-2.18 6 1.38 5.34 4.25 10.28 4.87 15.82-2 .34-4.01.42-6.02.5-2.12-4.35-2.6-9.27-4.5-13.71a111.2 111.2 0 0 1-.8-7.73l2.17-.51c.52-3.95-.25-7.95-.18-11.92-3.37-1.15-2.93-4.85-2.84-7.73z"/><path fill="#969697" stroke="#969697" stroke-width=".09" d="M258.76 58.46c.79-.1 2.38-.25 3.17-.33 1.4.4 2.78.89 4.1 1.5l-2.26.56 1.58 1.33a7.6 7.6 0 0 0-.84 4.6 14.93 14.93 0 0 1-5.88-2.53c.7-1.66.49-3.43.13-5.13z"/><path fill="#898c90" stroke="#898c90" stroke-width=".09" d="M290.89 59.92c1-1.98 3.27-1.72 4.93-.77l-1.22 2.97c-1.51-.22-2.62-1.24-3.71-2.2z"/><path fill="#d48c3d" stroke="#d48c3d" stroke-width=".09" d="M127.92 59.18c1.54-.51 3.19-.22 4.78-.2-.23 2.42 1.02 5.62-1.43 7.24.2 9.09.58 18.2 1.09 27.27l2.34.65c.06 2.05.09 4.1.12 6.15-1.7.19-3.41.28-5.12.3-1.86-3.25-4.07-6.61-3.98-10.52-.08-7.66-1.13-15.28-1.11-22.94-.08-2.98 1.63-5.62 3.3-7.95m1.13 2.2c-2.76 1.83-2.88 5.5-2.78 8.48.68 7.74 0 15.6 1.5 23.27.64 2.4 1.68 5.99 4.8 5.8 1.56-.76.99-2.55.04-3.55-3.43-3.93-1.78-9.52-1.68-14.22a67 67 0 0 1-.91-14.07c.05-2.13 2.46-4.93-.21-6.26z"/><path fill="#e6a048" stroke="#e6a048" stroke-width=".09" d="M103.82 60.13c2.14-.01 6.6-1.8 6.43 1.74a37.6 37.6 0 0 0-4.97-.33c-1.04 4.69.06 9.55-1.16 14.22a68.66 68.66 0 0 1-.3-15.63z"/><path fill="#f3931e" stroke="#f3931e" stroke-width=".09" d="M111.86 59.96c2.12-1 5.1-.05 5.75 2.38 3.25 4.65 2.2 10.5 2.68 15.84.39 2.6-1.72 4.57-2.2 6.98 1.28 5.32 4.54 10.19 4.82 15.68-2 .08-4.06.76-6.01.15-1.71-2.66-1.86-6.04-2.92-9a32.5 32.5 0 0 1-1.95-12.2l2.13-.23c-.1-4.13-.2-8.26-.53-12.38l-2.23-.88c-.24-2.07-2.08-5.04.46-6.34z"/><path fill="#eea64b" stroke="#eea64b" stroke-width=".09" d="M243.52 59.92l3.13.42c2.47 3.96 1.06 8.62 1.77 12.96.29 1.93.06 4.29-2.2 4.9-.05-5.63-.22-11.26-.68-16.87l-2.02-1.41z"/><path fill="#b0b4b7" stroke="#b0b4b7" stroke-width=".09" d="M263.77 60.19l2.27-.55c1.35.63 2.58 1.48 3.85 2.28l1.1-1.85a8.4 8.4 0 0 1 5.04 2.4c2.75-.76 4.68 1.36 5.23 3.88-4.53.69-9.14-1.66-13.52-.02l-3.23-.2a7.6 7.6 0 0 1 .84-4.61l-1.58-1.33z"/><path fill="#f6951a" stroke="#f6951a" stroke-width=".09" d="M85.6 61.04c2.1.1 4.24-.01 6.22.83 2.57-.52 5.2-.4 7.82-.35 0 2.16.39 4.38-.2 6.49-2.46.8-5.13.39-7.67.58.9 9.85-.18 19.82 1.4 29.6.08.45.2 1.33.27 1.76l-.8 2.1a9.08 9.08 0 0 0-5.05.15c.42-2.21 1.35-5.26-.92-6.8-.6-11.2-1.81-22.43-1.62-33.67z"/><path fill="#f4951d" stroke="#f4951d" stroke-width=".09" d="M105.28 61.54c1.66 0 3.32.1 4.97.33.27 12.45 1.09 24.87 1.67 37.3l-.43 2.74c-1.87-.02-3.74-.05-5.61-.05-1.1-3.96-.76-8.12-1.23-12.16-.22-4.64-.97-9.31-.53-13.94 1.22-4.67.12-9.53 1.16-14.22z"/><path fill="#f59019" stroke="#f59019" stroke-width=".09" d="M129.04 61.39l.76-.56c2.67 1.33.26 4.13.2 6.26a67 67 0 0 0 .92 14.07c-.1 4.7-1.75 10.29 1.68 14.22.95 1 1.52 2.79-.04 3.55-3.12.19-4.16-3.4-4.8-5.8-1.5-7.66-.82-15.53-1.5-23.27-.1-2.97.02-6.65 2.78-8.47z"/><path fill="#e6a04e" stroke="#e6a04e" stroke-width=".09" d="M239.62 62.07l1.26-.74c.02 3.87.22 7.75.24 11.63-.58 3.54-.3 7.14-.41 10.7-.9-1.6-1.57-3.35-1.4-5.22.48-5.45-.08-10.92.3-16.37z"/><path fill="#e19e54" stroke="#e19e54" stroke-width=".09" d="M52.15 62.98c1.58-1.4 3.74-1.11 5.67-1.44 1.09 1.99 1.2 4.26 1.14 6.48-.7 5.39-.37 10.82-.63 16.23-1.46-6.84.33-14.05-1.67-20.8-.7.02-2.05.03-2.73.03-.94 4.84 1.97 10.17-.76 14.58-.81-4.98-.76-10.05-1.02-15.08z"/><path fill="#f5931b" stroke="#f5931b" stroke-width=".09" d="M63.86 61.97c2.74-.42 5.5-.65 8.28-.37.42 3 .38 5.94-1.18 8.58.17 8.3-.02 16.65.43 24.96 1.96 1.58 2.4 3.73 2.3 6.2-2.33-.1-5.88 1.9-7.38-.55-.6-6.88.19-13.85-1.11-20.68-.18 6.33-.12 12.66-.45 18.99-.31-12.37-1.03-24.75-.9-37.13z"/><path fill="#e59e48" stroke="#e59e48" stroke-width=".09" d="M166.74 61.92l.99-.37c.14 9.57.84 19.1 1.12 28.67.08 2.3 2.66 4.3 1.62 6.6-2.77-2.84-3.14-6.8-3-10.56-.15-8.1-1.92-16.26-.73-24.34z"/><path fill="#d28224" stroke="#d28224" stroke-width=".09" d="M6.2 65.85c2.5-1.22 4.94-2.7 7.76-3.02.04 6.7.39 13.42.36 20.13l-.98 1.84-2.3-.11c.08.73.18 1.46.28 2.2l-1.2 1-1.61-1.5-2.37.52c.69-2.8.32-6.1 2.09-8.47l-.87-1.12C8.5 73.94 7.06 70.3 8.79 67c-.64-.16-1.92-.5-2.56-.65l-.02-.51m4.9 16.44c.3 3.22 3.03-1.62 0 0z"/><path fill="#d58e40" stroke="#d58e40" stroke-width=".09" d="M29.85 63.45c2.06-.05 5.76-1.7 6.57 1.05.36 4.16.42 8.35.56 12.52-.68 5.75-.21 11.53-.6 17.29-1.23-9.9-.81-19.92-1.68-29.84l-3.6.09c-.54 4.2.45 8.39.56 12.6.76 6.96.92 13.97.9 20.98-.47-1.03-.95-2.05-1.4-3.1-.82-10.33-.95-20.74-1.8-31.1z"/><path fill="#f7982a" stroke="#f7982a" stroke-width=".09" d="M53.93 63.48l2.73-.02c2 6.74.2 13.95 1.67 20.79.26-5.41-.07-10.84.63-16.23.19 7.52.48 15.03.7 22.54-1.56 3.72.04 7.9-.9 11.8-1.28-.21-3.43.42-3.86-1.35-2.23-5.34-4.37-10.95-4.05-16.84-.13-1.8.59-3.43 1.58-4.86l.78 1.63-.04-2.88c2.73-4.41-.18-9.74.76-14.58z"/><path fill="#f69118" stroke="#f69118" stroke-width=".09" d="M75.04 63.43l3.2.06c.7 2.58 2.3 4.95 2.24 7.7.12 6.13-.21 12.32.75 18.4.64 3.25-.43 6.5-1.54 9.5-.3 1.24-1.44 1.74-2.57 1.94l-1-1.45c3.68-5.36 1.8-12.3 1.53-18.33-1.44-4.97 1.2-11.03-2.56-15.18l-.05-2.64z"/><path fill="#e68923" stroke="#e68923" stroke-width=".09" d="M206.85 63.2c.7 9.83.73 19.72.99 29.54l-.9-.46a46.6 46.6 0 0 1-.52-7.91c-.01 2.95-2.13 4.38-4.55 5.47-.84-3.75-.83-7.63-.8-11.45.26-2.45.62-4.9 1.04-7.33a19.23 19.23 0 0 1 1.12 9.23c1.75-1.14 3.37-2.92 3.38-5.13 0-3.98-.32-7.98.24-11.95z"/><path fill="#eb9024" stroke="#eb9024" stroke-width=".09" d="M17.94 64.16c2.17-.42 4.45-.87 6.6-.1.86 11.37.27 22.79 1.4 34.12l1.96 1.1.28 2.9c-1.82 2.75-4.83 1.48-7.06.06l-.43-.22c-1.96-5.77-1.11-11.92-1.94-17.87-.37-6.66-.46-13.33-.81-20z"/><path fill="#f08e1a" stroke="#f08e1a" stroke-width=".09" d="M31.1 64.56l3.6-.1c.87 9.93.45 19.95 1.68 29.85.39-5.76-.08-11.54.6-17.3.36 6.39.25 12.78.74 19.15.38 2.94-1.02 5.76-2.74 8.04-1.18 1.87-3.62.83-5.42 1.08a86.75 86.75 0 0 1-.35-6.02l2.24-1.8-.28-2.41c.44 1.04.92 2.06 1.4 3.09a190.7 190.7 0 0 0-.91-20.98c-.11-4.21-1.1-8.4-.56-12.6z"/><path fill="#f5921d" stroke="#f5921d" stroke-width=".09" d="M43.17 64.49a1.64 1.64 0 0 1 2.24 1.73c.09 5-.25 10.06.84 14.99.5 7.19.12 14.4.22 21.6l-2.2-.02c-2.55-11.12.1-22.64-1.95-33.82a5.95 5.95 0 0 1 .85-4.48z"/><path fill="#f2a54d" stroke="#f2a54d" stroke-width=".09" d="M47.8 64.12c.39.3 1.14.92 1.5 1.22 1.1 4.65 2.23 9.28 3.13 13.97-1 1.43-1.71 3.07-1.58 4.86-.32 5.89 1.82 11.5 4.05 16.84.43 1.77 2.58 1.14 3.86 1.35.94-3.9-.66-8.08.9-11.8.4 4.43.98 8.94-.06 13.33-1.61.05-3.21.16-4.82.09-1.28-1.1-1.4-3.01-2.15-4.43-.42.3-1.25.9-1.66 1.22a8.8 8.8 0 0 1 1.24-2.42c-2.65-5.26-3.33-11.2-3.25-17-.9-5.71-.4-11.51-1.15-17.23z"/><path fill="#f8f7f7" stroke="#f8f7f7" stroke-width=".09" d="M286.63 64.5c1.7.6 3.42 1.24 5.12 1.87l2.18-.98.86.4c-.96 1.04-1.9 2.12-2.84 3.16l-3-1.83-2.14 1.9c-3 .13-6.01.83-8.97.03-2.5 1.68-6.23 1.39-7.7 4.4.03 2.47.63 4.89 1.1 7.29l.52.25c3 .2 6-.16 8.98-.58.92.66 1.82 1.34 2.8 1.94l2.15 1.32c-2.84.66-6.05.84-8.23 3a54.17 54.17 0 0 1-7.24-2.46l.17 1.7-.45 1.4c-1.27-.07-2.52-.17-3.78-.28-2.06-4.05-6.25-.37-6.91 2.7l-2.42.48-1.33.26a185 185 0 0 1-1.38-4.4c-.12-1.56-.21-3.14-.43-4.7 1.32-.33 3.02-.08 3.85-1.42-.35-1.21-.86-2.36-1.34-3.51.76-2.11 2.17-5.1-.12-6.77.64-1.07 1.3-2.12 1.97-3.18 3.22.04 6.54.84 9.69-.16 4.38-1.64 8.99.7 13.52.02l2.6.04c1.4.08 2.33-.55 2.77-1.9m-24.82 7.3c1.74-.33 3.48-.6 5.24-.85-.21-3.48-6.14-2.41-5.24.85z"/><path fill="#ebecee" stroke="#ebecee" stroke-width=".09" d="M296.65 67.67c1.2-1.03 2.42-2.05 3.64-3.07 1.72 2 4.57 1.6 6.93 2.08-.9.99-1.81 1.96-2.7 2.95-.65-.13-1.97-.4-2.63-.52a26.23 26.23 0 0 1-5.24-1.44z"/><path fill="#9fa3a5" stroke="#9fa3a5" stroke-width=".09" d="M291.95 68.95c.95-1.04 1.88-2.12 2.84-3.16.63.62 1.25 1.24 1.86 1.88 1.68.68 3.45 1.12 5.24 1.44-.56 3.15-2.67 5.66-6.13 5.39l-.28 2.85-2.24-.64a78.58 78.58 0 0 0-3.74-6.4c-.47 1.93.26 4.13-.67 5.89-1.83-.13-1.72-2.41-2.4-3.65a131 131 0 0 0-3.52-1.82c1.33-.48 2.72-.88 3.9-1.71l2.15-1.9 2.99 1.83z"/><path fill="#d1914a" stroke="#d1914a" stroke-width=".09" d="M235.24 69.06c.37 2 .68 4.02.78 6.06 0 4.1.27 8.19.2 12.29.3 2.28-1.23 5.98 1.63 6.97 2.12.58 4.2-.76 6.23-1.25-.31.89-.64 1.78-.97 2.66-2.52.09-5.03.2-7.54.43a45.09 45.09 0 0 1-.93-11c.2-5.38.45-10.77.6-16.16z"/><path fill="#d9d9d9" stroke="#d9d9d9" stroke-width=".09" d="M261.8 71.79c-.9-3.26 5.04-4.33 5.25-.85-1.76.25-3.5.52-5.24.85z"/><path fill="#e6e7e8" stroke="#e6e7e8" stroke-width=".09" d="M270.14 73.46c1.47-3.02 5.2-2.73 7.7-4.41 2.96.8 5.98.1 8.97-.03-1.18.83-2.57 1.23-3.9 1.7a131 131 0 0 1 3.53 1.83c.67 1.24.56 3.52 2.39 3.65.93-1.76.2-3.96.67-5.9a78.58 78.58 0 0 1 3.74 6.4l2.24.65-.17 1.37-1.51 1.45-1.54 1.12c3.27 1.52 8 4.14 11.07 1.1l-1.08-2.07c.62-.72 1.27-1.42 1.9-2.14l.39 3.78 1.94-.24 2.05 1.78c2.69-4.27 7.47-.3 10.89.74a10 10 0 0 0 .65 3.86c-.11 1.36-.2 2.73-.35 4.09-.8.55-1.61 1.09-2.42 1.62.5 2.12 2.68 5.93-.3 6.93-.71-1.47-1.33-2.98-2.18-4.37-1.9-1.73-4.53-2.28-6.81-3.34-2.36-1.92-7.76-2-6.66-6.15l4.1-.24v-1.21c-1.75.15-3.5.44-4.98 1.42l-1.72-.18c-.38 1.06-.76 2.12-1.12 3.19-1.44-.98-3.13-1.2-4.81-1.3-4.5-3.28-10.28-.66-15.36-1.88 2.18-2.17 5.39-2.35 8.23-3.01l-2.15-1.32c2.73-.47 5.49-.41 8.09.63l-1.01-2.34-2.46.45c-.7-.94-.9-2.82-2.45-2.61-4.41-.07-8.81.84-13.21.15-.2.59-.56 1.77-.74 2.36l-.51-.25c-.48-2.4-1.08-4.82-1.11-7.28m44.98 12.78c.22 3.23 3.05-1.57 0 0z"/><path fill="#c1c2c6" stroke="#c1c2c6" stroke-width=".09" d="M301.89 69.1l2.63.53a113.1 113.1 0 0 1 6.94 4.53l3.02 2.17a19.14 19.14 0 0 1-6.1 3.8c-.82-2.46-2.03-5.67-5.3-4.74-.5.88-1.02 1.74-1.55 2.59-1.71.2-3.57-1.26-4.93.3 1.44.6 3.12 1.06 3.48 2.82a54.94 54.94 0 0 1-6.28-.93l1.5-1.45.18-1.37c.07-.72.2-2.14.28-2.85 3.46.27 5.57-2.24 6.13-5.4z"/><path fill="#fb9a20" stroke="#fb9a20" stroke-width=".09" d="M241.12 72.96c.26 5-.31 10.07.65 15.02l1.88 1.45c.17 1.23.32 2.46.43 3.7-2.03.49-4.11 1.83-6.23 1.25-2.86-1-1.32-4.7-1.63-6.97l2.25-1.7.94 1.28c.44-1.11.92-2.2 1.3-3.32.1-3.57-.17-7.17.4-10.71z"/><path fill="#f5971c" stroke="#f5971c" stroke-width=".09" d="M195.35 74.99c.16 5.2.3 10.4.75 15.6 3.4.77 2.26 5.04 1.75 7.5-1.53-.13-3.1-.1-4.6-.44a11.24 11.24 0 0 1-3.06-5.45c-.01-2.7 2.47-3.53 4.54-4.35.52-3.33.32-6.7.07-10.04.14-.71.4-2.12.55-2.82z"/><path fill="#d97f21" stroke="#d97f21" stroke-width=".09" d="M236.02 75.12c1.08 1.1 2.18 2.22 3.29 3.32-.17 1.87.5 3.62 1.4 5.23-.38 1.12-.86 2.2-1.3 3.32l-.94-1.27-2.25 1.69c.07-4.1-.2-8.2-.2-12.3z"/><path fill="#a0a0a0" stroke="#a0a0a0" stroke-width=".09" d="M303.08 75.39c3.27-.93 4.48 2.28 5.3 4.74a19.14 19.14 0 0 0 6.1-3.8c5.63 4.24 11.74 8 16.45 13.32.65 2.1 1.09 4.26 1.5 6.4-.6 1.1-1.06 2.26-1.6 3.39-1.6 1.12-4.67 1.37-4.68 3.77.24 1.12 1.17 1.94 1.74 2.9a18.95 18.95 0 0 0-3.71 4.38 56.77 56.77 0 0 0-6.05 2.33l-.45-2.8.57-3.45-2.28.12.03-1.01 2.5.13a18.3 18.3 0 0 0-1.5-5.07c2.98-1 .8-4.81.3-6.93.8-.53 1.62-1.07 2.42-1.62l1.59-2.48c1.99 3.75-.4 8.15-.63 12.12l-1.8.7c.1 1.52.24 3.05.37 4.57l4.15-2.2c-.42-1.18-.9-2.33-1.2-3.54 1.04-1.3 3.29-1.1 4.15-2.55.37-1.77-.12-3.57-.33-5.33l2.44.5a40.55 40.55 0 0 0-4.04-7.2l-.1-1.65c-1.64-.28-3.28-.58-4.9-.9-3.42-1.03-8.2-5-10.9-.73-.68-.6-1.36-1.2-2.04-1.78l-1.94.24-.4-3.78c-.62.72-1.27 1.42-1.9 2.14l1.09 2.07c-3.06 3.04-7.8.42-11.07-1.1l1.54-1.12c2.07.4 4.16.77 6.28.93-.36-1.76-2.04-2.22-3.48-2.82 1.36-1.56 3.22-.1 4.93-.3.53-.85 1.05-1.71 1.55-2.6z"/><path fill="#c98a42" stroke="#c98a42" stroke-width=".09" d="M92.46 80.04c.47-4.43 9.47-3.66 8.5 1.16.84 4.06-5.23 5.06-7.78 3.57l-.27-1.47c1.52.22 3.05.7 4.6.52 1.85-.9 2.62-4.14.32-5.02-1.91-.45-3.64.62-5.37 1.24z"/><path fill="#e7881c" stroke="#e7881c" stroke-width=".09" d="M189.27 80.34l1.56-2.61 2.34 2.25 1.63-2.17c.25 3.34.45 6.7-.07 10.04-2.07.82-4.55 1.65-4.54 4.35-1.1-3.86-.84-7.9-.92-11.86z"/><path fill="#d67b18" stroke="#d67b18" stroke-width=".09" d="M224.36 78.59c1.05.73 2.08 1.48 3.13 2.22l.6-3.02c.6 3.1.53 6.27.54 9.42l-5.6.8c-.6-2.5-1.42-4.92-2.12-7.38l3.45-2.04z"/><path fill="#6f4512" stroke="#6f4512" stroke-width=".09" d="M245.93 87.18c-.04-3 .07-6 .3-8.98l.6.68c0 3.27-.07 6.54.16 9.8l-.01.06c-3.8-.2-1.7 4.42-2.16 6.74 2 .15 4.1.06 5.82-1.13-.44.78-.9 1.55-1.35 2.32-2.06-.33-4.12-.62-6.18-.88.33-.88.66-1.77.97-2.66a76.14 76.14 0 0 0-.43-3.7c.75-.75 1.5-1.5 2.28-2.25z"/><path fill="#b2b3b7" stroke="#b2b3b7" stroke-width=".09" d="M272.5 78.63c4.4.69 8.8-.22 13.2-.15 1.56-.21 1.77 1.67 2.46 2.6l2.46-.44c.34.77.67 1.56 1 2.34a14.77 14.77 0 0 0-8.08-.63c-.98-.6-1.88-1.28-2.8-1.94-2.98.42-5.98.78-8.98.58l.74-2.36z"/><path fill="#f69319" stroke="#f69319" stroke-width=".09" d="M92.46 80.04c1.73-.62 3.46-1.7 5.37-1.24 2.3.88 1.53 4.12-.31 5.02-1.56.18-3.1-.3-4.61-.52l-.45-3.26z"/><path fill="#f09421" stroke="#f09421" stroke-width=".09" d="M132.95 79.28c3.16-.32 6.73-1.26 9.72-.02 1.32 3.43.39 7.3 1.02 10.9.67 3.42-.98 6.6-2.38 9.6-1.64 1.13-3.86.63-5.74.6-.18-2.13-.22-4.27.03-6.4l1.85-.42c.38-3.08.07-6.2-.36-9.25h-3.55a42.5 42.5 0 0 1-.6-5.01z"/><path fill="#e6a964" stroke="#e6a964" stroke-width=".09" d="M246.84 78.88l1.47 1.59c-.13 2.76.42 5.82-1.32 8.2-.23-3.25-.16-6.52-.15-9.8z"/><path fill="#dd9a4c" stroke="#dd9a4c" stroke-width=".09" d="M64.75 99.1c.33-6.33.27-12.66.45-19 1.3 6.84.5 13.8 1.1 20.69 1.5 2.45 5.06.46 7.4.56l-.53 1.89c-2.7.23-5.45.42-8.1-.27-.13-1.3-.24-2.58-.32-3.87z"/><path fill="#aa5300" stroke="#aa5300" stroke-width=".09" d="M11.1 82.29c3.04-1.62.3 3.22 0 0z"/><path fill="#be7b2d" stroke="#be7b2d" stroke-width=".09" d="M13.34 84.8l.98-1.84c-.18 3.62.19 7.23.08 10.84-.2.4-.57 1.23-.76 1.64-.9-1.83-2.37-3.2-4.46-3.38l.65 2.39c-1.73-.3-2.3-1.87-2.8-3.33-.34-1.4-.64-2.8-.9-4.21.6-.13 1.79-.4 2.38-.51l1.6 1.5 1.2-1.01c-.1-.74-.2-1.47-.27-2.2l2.3.1m-.15 2.75c-1.07.65-1.73 2.78-.16 3.27 1.47-.02 1.6-3.24.16-3.27z"/><path fill="#f99618" stroke="#f99618" stroke-width=".09" d="M206.42 84.37a46.6 46.6 0 0 0 .52 7.9c.46 3.46-3.74 6.99-6.97 4.95-1.25-2.65-1.23-6.22 1.9-7.38 2.42-1.1 4.54-2.52 4.55-5.47z"/><path fill="#cccecd" stroke="#cccecd" stroke-width=".09" d="M319.42 84.24l4.9.89.1 1.66a40.55 40.55 0 0 1 4.04 7.19l-2.44-.5c.2 1.76.7 3.56.33 5.33-.86 1.46-3.11 1.25-4.14 2.55.3 1.2.77 2.36 1.19 3.54l-4.15 2.2c-.13-1.52-.26-3.05-.37-4.57l1.8-.7c.23-3.97 2.62-8.37.63-12.12l-1.6 2.48c.16-1.36.25-2.73.36-4.1a10 10 0 0 1-.65-3.85z"/><path fill="#eae7e0" stroke="#eae7e0" stroke-width=".09" d="M259.25 89.74c.66-3.08 4.85-6.76 6.9-2.71-1.56 1.55-3.97 1.09-5.6 2.25-.18 1.99.65 3.89 1.13 5.79a16.9 16.9 0 0 1-5.13-1.73c.07-.8.2-2.35.28-3.13l2.42-.47z"/><path fill="#a5a6a5" stroke="#a5a6a5" stroke-width=".09" d="M300.47 86.85c1.49-.98 3.23-1.27 4.98-1.42v1.2l-4.1.25c-1.1 4.16 4.3 4.23 6.66 6.15l-2.78-.7a5.93 5.93 0 0 1-.92 3.05l.1-3.44c-2.3-.56-4.68-.95-6.78-2.08.36-1.07.74-2.13 1.12-3.2.43.06 1.29.14 1.72.19z"/><path fill="#b2b7bb" stroke="#b2b7bb" stroke-width=".09" d="M270.39 85.9c1.09 3.8 2.69 7.46 3.52 11.34-2 .23-3.98.6-5.98.54-1.41-.52-2.54-1.56-3.84-2.28l-2.41-.43c-.48-1.9-1.31-3.8-1.13-5.8 1.63-1.15 4.04-.7 5.6-2.24l3.79.29z"/><path fill="#bebebe" stroke="#bebebe" stroke-width=".09" d="M315.12 86.24c3.05-1.57.22 3.23 0 0z"/><path fill="#ce8d44" stroke="#ce8d44" stroke-width=".09" d="M13.19 87.54c1.44.03 1.3 3.25-.16 3.27-1.57-.5-.91-2.62.16-3.27z"/><path fill="#f99416" stroke="#f99416" stroke-width=".09" d="M223.04 88c1.87-.26 3.73-.52 5.59-.8.06 2.55-.03 5.1-.28 7.63-3.83.7-4.42-4.15-5.31-6.82z"/><path fill="#6a6a6a" stroke="#6a6a6a" stroke-width=".09" d="M330.93 89.65c.85-.38 1.7-.77 2.54-1.18-.35.76-.71 1.5-1.1 2.24 1.74 2.18 2.26 4.9 2.54 7.62-.34.74-.67 1.49-1 2.25-1.37.34-4.61.1-3.9 2.4.8 2.62 0 5.24-.86 7.72a8.73 8.73 0 0 0-2.7 4.43c-3.3-.1-6.6-.15-9.86.33-.57-1.93.46-3.68 1.09-5.43.1.69.34 2.09.45 2.79 1.97-.9 3.99-1.66 6.05-2.33a18.95 18.95 0 0 1 3.7-4.37c-.56-.97-1.5-1.8-1.73-2.91 0-2.4 3.09-2.65 4.68-3.77.54-1.13 1-2.3 1.6-3.38a61.47 61.47 0 0 0-1.5-6.41z"/><path fill="#e9ad5e" stroke="#e9ad5e" stroke-width=".09" d="M244.82 95.48c.46-2.32-1.63-6.94 2.16-6.74-.36 1.43-.62 2.9-.96 4.34 2.17 1.95 3.43-1.35 5.58-1.24l-.96 2.5c-1.72 1.2-3.81 1.29-5.82 1.14z"/><path fill="#c6c7c7" stroke="#c6c7c7" stroke-width=".09" d="M255.5 90.47l1.33-.26-.28 3.13a16.9 16.9 0 0 0 5.13 1.73l2.4.43c-1.4 1.25-3.22 1.38-5.01 1.14-.15 3.3-1.03 6.5-1.88 9.7 2.37.48 4.73 1.45 7.18 1.32a29.89 29.89 0 0 1 9.76-5.71c-.1 1.32-.18 2.65-.24 3.98l-2.73-.4c-.7.64-1.37 1.28-2.05 1.92.46.78.92 1.56 1.4 2.34l-2.55.67c-.5 1.79-.7 3.64-.64 5.5l-2.6 1.75-1.78-1.91c.67-1.36.78-2.88.94-4.35-1.18.24-2.37.5-3.54.77a9.46 9.46 0 0 1-1.97 3.58c-3.94-3.2-4.83-8.72-3.15-13.33 1.78-3.78.79-8.05.28-12z"/><path fill="#c4741e" stroke="#c4741e" stroke-width=".09" d="M7.04 91.12c.5 1.46 1.06 3.04 2.79 3.33-.2.85-.38 1.7-.6 2.54.72 0 2.14.04 2.86.05a47.56 47.56 0 0 0-1.23 7.3l1.5-1.83 1.49 2.1c-.06-3.05-.33-6.11-.21-9.17l.76-1.64c-.5 5.03 1.24 9.9 1.03 14.9a6.35 6.35 0 0 0 2.98 2.2c2.09.95 4.4 1.09 6.67 1.34l-.73.47-1.88 1.39.29 3.14c-2.02 1.18-4.3 2.19-5.46 4.37a8.32 8.32 0 0 0-5.01-.23l-.7 2.7c-2.01-1.03-4.07-2.02-6.12-3.02-.08-1.42-.2-2.84-.51-4.22l2.3-.4-.8-3.6c.15-.5.46-1.52.6-2.03l-2.25.16 1.37-1.36c.87-4.06 1.78-8.3.64-12.4-.68-2.02-.4-4.1.22-6.1m7.92 21.45c-1.13 1.15.17 3.46 1.77 2.8 2.23-.74-.27-3.75-1.77-2.8z"/><path fill="#d5862c" stroke="#d5862c" stroke-width=".09" d="M9.18 92.06c2.09.18 3.57 1.55 4.46 3.38-.12 3.06.15 6.12.2 9.18l-1.48-2.11-1.5 1.83c.2-2.46.64-4.9 1.23-7.3l-2.85-.05.59-2.54c-.16-.6-.5-1.8-.65-2.4z"/><path fill="#c68b52" stroke="#c68b52" stroke-width=".09" d="M86.67 95.4c2.27 1.54 1.34 4.59.92 6.8-1.45-1.94-.75-4.55-.92-6.8z"/><path fill="#eae8e9" stroke="#eae8e9" stroke-width=".09" d="M264.09 95.5c1.3.72 2.43 1.76 3.84 2.28 2 .06 3.99-.31 5.98-.54l.36 2.7-.14 2a29.89 29.89 0 0 0-9.76 5.72c-2.45.13-4.81-.84-7.18-1.32.85-3.2 1.73-6.4 1.88-9.7 1.79.24 3.6.1 5.02-1.14m-2.1 7.85c-1.53.08-1.74 2.7-.12 2.87 1.53-.01 1.67-2.77.13-2.87z"/><path fill="#f3921c" stroke="#f3921c" stroke-width=".09" d="M93.39 97.98c1.67-.52 3.33-1.16 5.07-1.4 1.42.66.8 2.75 1.23 4.02-1.9.32-4.21-.08-5.57 1.62l-.68-2.27-.26-1.75z"/><path fill="#a1a1a1" stroke="#a1a1a1" stroke-width=".09" d="M274.27 99.95c.34 2.4.46 4.84.5 7.27-.15 3.7 1.92 7.15 1.27 10.86-.28.2-.82.64-1.1.85l-1.52 1.08c-2.66 1.57-5.68 2.2-8.6.9l1.7-1.1-1.8-2.1c.87-.6 1.73-1.17 2.6-1.75-.06-1.86.14-3.71.64-5.5l2.55-.67c-.48-.78-.94-1.56-1.4-2.34l2.05-1.92 2.73.4c.06-1.33.14-2.66.24-3.98l.14-2z"/><path fill="#353536" stroke="#353536" stroke-width=".09" d="M330.02 102.99c-.72-2.31 2.52-2.07 3.9-2.41-.25 2.6-.42 5.28-1.53 7.69-1.3 2.44-1.55 5.18-1.48 7.9a62.6 62.6 0 0 1-9.18.55c.76.77 1.5 1.54 2.32 2.28l-1.67.8-1.32-.3.4 2.33a29.9 29.9 0 0 0-5.9 2.69c.17-3.04 1.47-6 1.03-9.06 3.26-.48 6.56-.42 9.86-.33a8.73 8.73 0 0 1 2.7-4.43c.87-2.48 1.67-5.1.87-7.71z"/><path fill="#e09d4e" stroke="#e09d4e" stroke-width=".09" d="M21.12 102.24c2.23 1.42 5.24 2.69 7.06-.06l-.26 3.27c-1.7.04-3.4 0-5.1-.08-.55-1.05-1.12-2.1-1.7-3.13z"/><path fill="#bdbdbe" stroke="#bdbdbe" stroke-width=".09" d="M262 103.35c1.54.1 1.4 2.86-.13 2.87-1.62-.16-1.41-2.8.13-2.87z"/><path fill="#b5421e" stroke="#b5421e" stroke-width=".09" d="M45.18 116.17c1.65-2.96 2.45-6.28 4.1-9.21.45.66 1.32 1.99 1.75 2.65.08 2.04.29 4.08.87 6.05 2.4-.14 4.86-.42 7.22.19.94.43 2.83.42 2.4 1.93-2.2 2.08-5.1 3.2-7.68 4.72.57 2.54 1.68 5 1.47 7.65-3.08-.28-5.28-2.55-7.52-4.42-1.68.98-3.34 2-5 3l-2.4-.8c.87-2.46 2.7-5 1.57-7.67l-2.4.39c-.65.76-1.31 1.53-1.94 2.3.09-1.95-.85-2.78-2.81-2.5a20.93 20.93 0 0 1 3.49-2.57l-.02-1.7c1.76.09 3.52.2 5.27.35l.9 1.43.73-1.8z"/><path fill="#927052" stroke="#927052" stroke-width=".09" d="M18.4 110.9c9.23-.8 18.54-.81 27.82-.9l.44.8c-7.16.56-14.42.56-21.58 1.44-2.26-.25-4.58-.4-6.67-1.33z"/><path fill="#b8b8ba" stroke="#b8b8ba" stroke-width=".09" d="M260.34 112.22c1.17-.27 2.36-.53 3.54-.77-.16 1.47-.27 2.99-.94 4.35l-1.7 2.1a292 292 0 0 1-1.28-2.46c-.53.4-1.58 1.23-2.1 1.64l.5-1.28c.99-1 1.52-2.3 1.98-3.58z"/><path fill="#e38b2b" stroke="#e38b2b" stroke-width=".09" d="M14.96 112.56c1.5-.95 4 2.06 1.77 2.8-1.6.66-2.9-1.65-1.77-2.8z"/><path fill="#aa6623" stroke="#aa6623" stroke-width=".09" d="M22.47 114.1l1.88-1.4c2 .16 3.98.57 5.93 1.08a7.52 7.52 0 0 1-3.2 3.12c1.09-.13 2.19-.26 3.29-.31.43-1.08.83-2.18 1.28-3.25 4.2 2.34 9.68-.04 13.53 2.83l-.72 1.79-.91-1.43c-1.75-.15-3.51-.26-5.27-.34l.02 1.69a20.93 20.93 0 0 0-3.5 2.57c-.8.8-1.6 1.58-2.44 2.33-2-.18-3.71-1.38-5.5-2.21-1.08-.8-2.86-.87-3.42-2.25.22-.97.47-1.94.74-2.9l-1.71-1.32m11.64 3.35c.54.53.54.53 0 0z"/><path fill="#833d00" stroke="#833d00" stroke-width=".09" d="M34.1 117.45c.55.53.55.53 0 0z"/><path fill="#646464" stroke="#646464" stroke-width=".09" d="M273.42 120c.39-.26 1.15-.8 1.53-1.07.3 4.29-.71 8.49-1.88 12.58-1.46.2-2.93.19-4.38-.05 0-.88.04-2.63.05-3.51 1.7-.73 4.24-.85 4.94-2.87.03-1.7-.18-3.38-.26-5.07z"/><path fill="#874636" stroke="#874636" stroke-width=".09" d="M42.79 128.74c-.83 2.47-5.18 1.28-2.4-.8l2.4.8z"/><path fill="#434343" stroke="#434343" stroke-width=".09" d="M268.69 131.46c1.45.24 2.92.25 4.38.05a43.88 43.88 0 0 0-1.01 4.82l-3.44.07c0-1.65.02-3.3.07-4.94z"/></svg>