<svg xmlns="http://www.w3.org/2000/svg" width="964" height="299pt" viewBox="0 0 723 299"><g stroke="#000" stroke-width=".1"><path d="M277.1 75.1c3.9-3 9.2-3.4 13.8-2.4 5 1.5 7.5 6.5 9 11-4.4 1.9-8.9 3-13 5.1-3.6 2-6.8 4.7-9.7 7.4-3.9 3.5-5.6 8.5-8.9 12.4-1.8-5-1-10.5-.8-15.7 1.1-6.7 3.8-13.8 9.6-17.8zM363.8 74.6c3-2.8 7.4-2.6 11.2-2 5.4 2 9.2 7 10.8 12.4-6.2 3.7-13.4 5.9-18.4 11.4-4.5 5-7.3 11.1-10.9 16.7-2-5.1-.9-10.7-1.2-16.1a28.2 28.2 0 0 1 8.4-22.4zM379.6 102a41 41 0 0 1 7-6.2c1 3 .9 6.3 1.4 9.4 1.4 3.5 6 4.3 7.4 7.7-.8 7-3.3 15.3-10.3 18.4-3 1.7-6.6 1.4-9.8.2.3-9.9-1-20.5 4.3-29.5zM259.3 173.3c-.4-5.7 2.7-11 8.1-13 3.2 1.3 6.8 2.6 10 .3 1.9.6 4 1.2 5.5 2.6a37 37 0 0 1 10.8 14.2c.9 1.4 1.2 4 3.2 4.1 3.3-.5 6.3-1.9 9.4-3a118 118 0 0 0-.4 7.3c1.5 3 3.8 5.4 5.6 8 .4 3.4.1 6.8.2 10.2 0 2.6.4 5.5-1.3 7.8-4.3-4.1-8.2-8.9-13.7-11.4-4.6-2-8.6-4.9-12.8-7.5a51.9 51.9 0 0 0-23.2-18.9l-1.4-.7z"/></g><path fill="#333" stroke="#333" stroke-width=".1" d="M69.9 53C80.7 42.6 96.7 40.8 111 41.6c7 1.2 14.3 1.4 20.5 5 3 1.7 4.2 5.2 4.7 8.4.7 4 1.9 8.2 1 12.3-1.6-4.3-2-8.8-2.9-13.3-.8-4.7-6.5-7.3-10.8-5.7l-7.5-1.6c-3.4-.1-6.8-.3-10-1h-4c-9.7 1.3-20 2.9-27.8 9.4-4.7 3.2-8 8-10.3 13.2l-.5-5.3A72 72 0 0 0 60.6 79c-.2 5.3 1.4 10.6 1.8 16l1.5-4.3a24.9 24.9 0 0 0 13 14.5c7 .8 14.1-.1 21.2.4-6.8.7-13.6.5-20.3 1 7 .5 14.4-.2 21.3 1.9l-5.4.7c-3.5.3-7 .3-10.5 0l2.8 1.6a33 33 0 0 1-14.6-3.2 36.1 36.1 0 0 1-10.6-11.1C59 91.2 57 85.7 57.5 80c-.1-10.2 3.8-21.1 12.4-27z"/><g fill="#fff" stroke="#fff" stroke-width=".1"><path d="M74.3 55.2c7.7-6.6 18-8.1 27.7-9.4h4c3.2.7 6.6.9 10 1l7.5 1.6c2.3.7 4.6 1.6 7 2.5 1.7 8 3 16.2 4 24.4a38 38 0 0 1-6.7 1.8l-3-6.3c-2.8-6-7.6-10.8-13-14.5-6.5-2.6-14-2.1-20.3.6-5.3 3-8.9 9-8 15.2.3 7.2 6 12.5 12 15.8 5.4 3.4 11.5 5.6 17.5 7.8 10.6 4.6 22 10.9 26 22.6a45 45 0 0 1 1.2 16.8c-1.8 6-4.5 11.8-8.7 16.4-3.4 3-6.7 6-11 7.8a61.5 61.5 0 0 1-32.5 3.2c-5-.1-9.5-2.7-14.3-4.1-4-2.4-3.9-7.3-5-11.4-.9-4.3-2.3-8.6-2.5-13-.5-2.2 2-3.2 3.7-2.9 1.5 1.6 2.5 3.6 3.6 5.5 4.6 8 11 15.3 19.6 19 9.3 3.6 21.3 2.1 27.8-5.8 5-5.6 5.6-13.6 4-20.6-.7-3.2-2-6.3-4.6-8.6a88.6 88.6 0 0 0-22.2-15c-7-.5-14.1.4-21.2-.3-5.8-3-11.2-8-13-14.6-2.3-7.3-2-15 0-22.3 2.3-5.1 5.6-10 10.4-13.2zM253 75a47.1 47.1 0 0 1 27-12.4c11.3-.2 23.2-1 33.7 3.7a88 88 0 0 1 .4 18.5l-2.5 1.1 2.1.7c-2.7.2-5.3.6-8 1l-2-5.6-.3-2.1-2.1-4-.8-2c-2.1-1.5-4-3.3-5.8-5.2-7.1-2.2-15.8-2.1-21.4 3.4-4 4.4-9.2 9.1-9 15.5l-1.4-.7c-.9 10.8-1.8 22 2 32.3 1.6 5.5 5.5 10 10 13.2 5.5 3 11.7 4.4 17.8 4.3 4.9.2 10.3.5 14.3-2.9 4.6-3.4 6.1-9.2 6.8-14.7l2 .1c.5 5 .7 9.9.6 14.8-5 4.6-12 5.3-18.2 7.2-5 .7-10.2.7-15.2 0-2.9-.6-5.6-1.7-8.4-2.6l3 17.2-2 1.8h-5c-1.3-2.8-2.4-5.6-4-8.3a39.7 39.7 0 0 0-10-10.8c-1.9-2-4.5-2.5-7-2.8-7.3-1-15.8.4-20.4 6.5-4.6 6.2-3.5 15.2 1.3 21 2.8 2.4 6 4.6 9.2 6.5 6.8 4 14.4 6 21.4 9.3 8 4.3 16.5 9.3 20 18.2 4 7.9 2.8 17.1.2 25.3-2 3.2-3.5 6.8-6.2 9.6-4.2 4.2-9 8-14.8 9.7-4.8 2-10 2-15.1 2.7-8.6-.3-17.7-.2-25.6-4.1-2.2-1.1-5.3-1.8-6-4.6-1.8-7.3-3.4-14.7-4.8-22 1.5-1 3.1-1.8 5-1.5l.7 1.4c2.2 5.1 5.4 9.6 9 13.8 6.6 7.7 17 12.8 27.3 10.7a20.8 20.8 0 0 0 17.5-15.4c1.2-6.7.7-14.3-3.8-19.8a79.8 79.8 0 0 0-19-14c-7.6-4.9-17-1.4-25.4-3-3.8-1.6-7-4.4-9.6-7.6a30.2 30.2 0 0 1-5.2-14.4c0-7 .6-14.3 5-20l4.7-5.8a1597 1597 0 0 1-11 .2c-4.3.1-8.5 0-12.7.3-8.5 0-17.1 0-25.7-.2v-3.1c2.5-.1 5-.1 7.4-.5l2.4-.4 1-4.2v-24c-2.9.1-5.8 0-8.6-.6-.4-10-.2-20-.2-30-.2-1.8-.8-3.5-1.3-5-3-.7-6.2-1.1-9.3-1.3l.2-3.5c20.9-.8 41.8.2 62.6-.5l.9.4c1.5 6.3.8 13 .8 19.3l-5.9.2-1.4-4.9c-1.1-4-4-7.6-8.2-8.6-5.5-.5-11-.3-16.6 0l.1 32.7c4.7 0 9.3-.1 14-.3l1.8.4c3-2.6 3.9-6.4 4-10.2l5.3-.1c1.4 7 .3 14.2-.1 21.3l-2.3-3a9.3 9.3 0 0 0-6.2-2.8c-5.5-.4-11 0-16.5-.2 0 6.5-.3 13 0 19.4.1 2.8 2.1 5 4.4 6.5 3.7.5 7.4.3 11.1.4 2.9 0 6 .2 8.6-1.3 2.1-1 2.8-3.5 3.8-5.5l1.8-3.8h2.5l-.5 2.8-1.4 6.6c3-1.5 6-3.1 9.3-4.4l4.1-1.6c3.3-.2 6.6-.6 9.9-1 5.8-.8 11.7.4 17.5 1a49.4 49.4 0 0 1-6.2-8.8c-.8-2-1.6-3.8-2.2-5.8-.8-2.8-1.3-5.7-2-8.6l-8.5-.2-.5-.1.2-6.3c0-3.7 1.5-7 2.9-10.4 2.1-5 4.7-9.9 8.7-13.5zM362.9 63.7c8-2.4 16.5-.7 24.5.6 13 2.3 22.9 13.9 25.4 26.4 1.3 4.8 1.6 9.7 1.4 14.6l-.8 3.5a49.3 49.3 0 0 1-12.2 23.4c-6.3 6-14.8 9-23.4 9-3.3 0-6.6-.7-10-1.2-4.6-1-9.2-2.4-13.4-4.5a40.5 40.5 0 0 1-16.7-24l-.4-5.7c-2.7 0-5.4-.3-8.2-.5 0-1.6.1-3.3.3-4.9l.3-4.2c1.7-5.5 4-10.9 7.4-15.6 2.8-3 5.1-6.6 8.6-8.9a65.6 65.6 0 0 1 17.2-8m-.8 6.3a31.3 31.3 0 0 0-10.3 17 58.3 58.3 0 0 0 3.5 36v.5c2.3 2 4 4.7 6.2 6.8 2.3 1.7 4.5 3.6 7 4.9l7.5 2.1c3.4.2 6.8 0 10-1h-.6c6.1-1.8 9.9-7.5 12.2-13 .4-4.8.4-9.5.3-14.1.5 3.5.2 7.2.5 10.8 1.3-3.3 1.5-6.7 2-10a4 4 0 0 1-.7-3.7c-2.5.2-5 0-7.4-.6.2-3.3 0-6.5-.5-9.7-.5-3 .1-6-1-9-.5-1.5-1-3.1-1.3-4.7h-.6c-.5-6-5.4-10.3-10.3-13a18.4 18.4 0 0 0-16.5.8zM487.7 65.8a384 384 0 0 1 32.2.1v2.8c-3.2.8-6.2 1.8-9.1 3l-.6 2c-1.7 5.7-.8 11.6-1 17.3 0 15.8.4 31.5-.2 47.3-5.6.3-11.3.2-17 .1-8-10.3-16-20.3-23.8-30.7-3.5-5.2-7.3-10.1-11.3-14.9-.2 7.7 0 15.5-.1 23.2.1 6.2-.4 12.4.6 18.6 1.9.4 3.8.9 5.8.9l5.6-.3-.4 3h-1c-3.2 0-6.4 0-9.6.2-8 .2-16-.1-24-.2l-1-2.9h7.2c2 .2 4.3-1 4.2-3.3.3-8.7 0-17.5.1-26.2h-8c-1-9.6-.2-19.2-.6-28.8 0-3-1.7-6-4.4-7.3-2-.5-4.2-.4-6.3-.7l-.4-.3-.6-2.8c8.7-.6 17.3-.1 26-.3 2.8.2 6.4-.6 8.2 2.1 3.6 4.6 7 9.5 10.5 14 5.2 8.2 11.3 15.7 17 23.4-1.9.2-3.8.3-5.6.6.7 2.6 2.9 4.4 4.5 6.5 1.7 2 3.4 4.2 5 6.4 2 2.8 4.1 5.6 6.5 8.2.2-7 0-14 .1-21H491l-3.4-.1v-12c-.1-9.3-.3-18.6.1-27.9zM539.3 65.5c14.3-.4 28.5-.2 42.7-.2 6.8-.1 13.7.9 20 3.6A32.3 32.3 0 0 1 618.6 86a42 42 0 0 1 1.9 26.1 35.7 35.7 0 0 1-20.9 21.6c-13.6 5.8-28.6 4.4-43 4.5-3.3 0-6.7-.3-10-.5v-2.5l9.5-1c.6-1.6 1.4-3.3 1.3-5.2.2-7.8 0-15.7.1-23.5-2.5-.1-5-.3-7.4-.7-1-8.9-.3-17.8-.5-26.8-.1-2.4.3-5.3-1.4-7.3-2-2.9-5.9-2.1-8.9-2.4v-2.8m35.7 4.8l.6 2-2.1-1.2-1.2 1c-.4 5.6-.2 11.3-.2 17v39.6h1.3l-.3 2.5 1.6-1-1 1.5c5 0 10.1.4 15.2-.1 6.6-1.7 11.5-6.8 16.2-11.5 2-4.7 3.9-9.5 3.6-14.7h-5.9l-1.2-1.3c-.2-4 .1-8.2-.9-12.1-.1-2.8-.5-5.5-1.5-8.1l-.8-1.7c-2.8-9.8-14.4-13-23.4-11.9zM380.2 147a82 82 0 0 1 15.8-3.4c6.3-.7 12.6.5 18.9.8 4.5.3 9.1 1 13.6 1.8 1.5 6.3.6 12.8.5 19.2-2.6.7-5.3 1.5-8 1.1-.9-3-2.2-6-3.9-8.6-1.1-2-2.4-4-3.9-5.6-3.3-2.9-7.6-5.4-12.2-4.8-5 .4-9.8 2.3-13.4 5.8a38.5 38.5 0 0 0-5.4 6.2c-3.9 4.2-4.3 10.2-5.6 15.4a41.1 41.1 0 0 0 1.5 22 36.3 36.3 0 0 0 14.3 18.7c3 1.7 6.5 2.5 9.8 3.3 5.4 1 11.3 1.1 16.2-1.8 2.4-6.4.7-13.5 1.5-20.1 0-2.9 1-6.1 0-8.7-5.9-.7-11.3-4-17.2-3.4l-.2-3.5 3.2-.6h33.6l1.5.6v3.4c-2.5.9-5.8 1.9-5.9 5.2-.8 9.4-.2 18.9-.3 28.4l-.7.2c-9.4 3.6-19.6 4-29.5 4-3.4 0-6.8-.2-10.2-.1h-1.8l.2-1.1c-2.2 0-4.5 0-6.8.2l3.1-1h-2.5v-1.4l-2 .6v-1.5l-2 .4.1-1.3-2 .2.1-1.3-1.3.4.3-1.5-1.9.4c0-1.4-.7-2.2-2.2-2.3v-.9h-1l.1-.8-1-.3v-1.9l-1.2.2.4-1.3-1.5.3.5-2.2-1.3.2-.1-3h-1.2l.5-2h-1.1a44 44 0 0 0-.6-4c-.7-3.4-1.4-6.7-1.7-10.1l-9.8-.3a24 24 0 0 1 1.4-17c3.1-7.1 8.6-13 14.6-18 2.4-2 5-3.7 7.7-5.2zM560.7 165.7c0-7.3-.7-14.7.5-22 2.8 1.3 5.5 3.3 8.7 3l54.2-.1c3.1.2 6-1 8.7-2.6l2.3.3c.8 7 .2 14 1 21l-5.2.1-.6-3.2c-.5-2.8-1.4-6-4-7.5-5.8-3.8-13-2.8-19.5-2.8v43c0 6.6-.5 13.2.6 19.7 3.4 1.2 7 1.5 10.6 1.6l.2 3.9c-10.5.5-21 0-31.4.4H582l.3-3.8 3.2-.2c3-.1 7.6-.6 7.8-4.5.5-8.5 0-17 .2-25.4h-7.7l-.7-1.9c.3-10.8.2-21.6-.5-32.3-4 .1-8.2-.4-12 1.3a15.4 15.4 0 0 0-6 6.5l-2 5.5h-4zM462.3 146.6c11.3 0 22.6-.2 33.9.3l.2 3.4h-4c-2.2.4-5.5 1-5.9 3.8-.5 5-.6 9.8-.7 14.8v12.3h25.7a366 366 0 0 1-.4-5.6c0-4.9.3-9.7.1-14.5l-.1-.6c.1-2.6.3-5.7-1.7-7.7-2.5-2.7-6.4-3-9.8-3.4V147c11.3-.5 22.5 0 33.7-.4 2.4 0 4.7.2 7 .3l-.6 3.3-1.3.2c-2.9 0-6.9-.2-8.1 3-1.8 5-.8 10.3-1 15.4.3 12.8 0 25.6.2 38.3 0 2.8.7 5.5 1.3 8.2 2.7 1.1 5.5 1.7 8.4 1.5h1.4v3.8h-10.8c-8.2.1-16.4.1-24.6-.1v-3.8h1.4c2.8-.1 6.3.7 8.4-1.6 1.5-1.6 1.5-3.9 1.6-6v-22.2c-10.3-.1-20.6.6-30.8-.2.1 8.5-.5 17 .4 25.4.6 3.8 5 4.7 8.2 4.5h3.4v4h-3.3c-11 0-22 .3-32.9-.3 0-1 .2-1.8.3-2.7 3.8-.4 9.6.4 10.7-4.6 1.4-8.4.3-17 .7-25.6h-5.7c-.5-8.8-1.1-17.6-.6-26.3l.2-1c1-4-.7-9.2-5.5-9.5h-5.3l.2-3.8 5.7-.1z"/><path d="M301 147.4c5.4 0 10.7 0 16-.3 7.1.3 14.2 0 21.2.3h3.4v3c-2.6 0-5.2.2-7.7.3h-2.1a23.1 23.1 0 0 0-1.5 11.3c.3 17-.3 34 .3 51 1.4 4.8 7.1 3.7 11 4l-.1 3a474 474 0 0 1-34.6 0l-.5-2.6 8.4-.8c1-1.4 2-2.8 1.8-4.6.1-8.2 0-16.4 0-24.7-1.7 0-3.4 0-5-.2-.4-10.7-.5-21.3-1-32-.2-1.2-.8-2.2-1.3-3.3l-2.5-.6-.5-.6c-1.8 0-3.7 0-5.5-.2l.2-3z"/></g><g fill="#4c4c4c" stroke="#4c4c4c" stroke-width=".1"><path d="M123.5 48.4c4.3-1.5 10 1 10.8 5.7.9 4.5 1.3 9 3 13.3l.1.8.5 2.1-.2-.3a127 127 0 0 0-2.6-2c-.3 2.4-.5 4.8-.6 7.3-1-8.2-2.3-16.4-4-24.4-2.4-1-4.7-1.8-7-2.5zM387.6 153.3c3.6-3.5 8.5-5.4 13.4-5.8 4.6-.6 8.9 2 12.2 4.8l1.1 2-3 2.8c-1.5-3.2-5-5-8.2-5.6-4.6.3-9.8 1.4-12.5 5.4l-3-3.6z"/></g><path fill="#595859" stroke="#595859" stroke-width=".1" d="M91.5 56.9a26.6 26.6 0 0 1 20.3-.6 38.5 38.5 0 0 1 13 14.5v2.4c-1.4-1.7-2.2-5.3-5.2-4.5-.5-1-1-1.9-1.7-2.8l-2.5-2.7c-4.7-5.7-12.8-5.4-19.4-4.3-3.5.6-6.6 3-8 6.1-1 3.3-1 7 .2 10.3.5 1.5 1.2 3 1.9 4.6 1.3 3.3 4.7 5 7.5 6.9l-2 1c-6-3.2-11.8-8.5-12.1-15.7a15.6 15.6 0 0 1 8-15.2z"/><path fill="#020101" stroke="#020101" stroke-width=".1" d="M88 65c1.4-3.2 4.5-5.5 8-6.1 6.6-1 14.7-1.4 19.5 4.3-.8 4.4-5.6 5.1-9.2 6.2-5.1 1.3-9.4 4.7-14 7.2l-4.1-1.3C87 72 86.9 68.3 88 65z"/><g fill="#504f4f" stroke="#504f4f" stroke-width=".1"><path d="M262.3 64.4a63.2 63.2 0 0 1 24.7-5.8c5-.1 10 .9 15 1 5.2 1 12 1.4 14.4 7 2.3 5.6.6 11.9 1.3 17.8-1.1 1-2.2 2.4-4 2.2l-2-.7 2.4-1a88 88 0 0 0-.4-18.6c-10.5-4.7-22.4-4-33.6-3.7-10 1.5-20 5-27 12.4-4.1 3.6-6.7 8.5-8.8 13.5l-.5-3a126 126 0 0 0-3.4 3.5l.5-1.5a44.1 44.1 0 0 1 21.4-23.1zM191.3 138.7c4.2-.3 8.4-.2 12.7-.3l1.3 2.2c-9 .3-18.2 1.5-27.3 0 4.2-2 9-.9 13.3-1.9z"/></g><path fill="#323232" stroke="#323232" stroke-width=".1" d="M356.4 61.2c7.4-3.6 15.7-2.8 23.7-2.5 7.8.2 15 3.5 21.5 7.7 2.8 2.5 5.3 5.4 8 8 2.9 3 4.1 7 5.3 11l.5 2.3H414a38.1 38.1 0 0 0-20.3-23.3c-7.3-2.4-15.1-3.4-22.8-3.5-13.9 1.3-28.3 7.7-35.5 20.1-1.2 1.5-2.2 3-3.5 4.3l-1.3.4c-.9-2.4 1.3-3.6 2.4-5.2 2.6-4.7 6.4-8.6 10.4-12.1 4.4-1.9 8.3-5 13-6v-1.2z"/><path fill="#1d1d1d" stroke="#1d1d1d" stroke-width=".1" d="M154.3 64.3c1.5-4 6.2-3.9 9.7-4h51c3.6 0 7.4.7 10.3 3 1.3 7 1.8 14.3 1.1 21.4-.3 1.2-1.4 2-2.4 2.8H221.4l.1-2.4c0-6.4.7-13-.8-19.3l-.9-.4c-2.2-2.7-5.8-2-8.8-2.1h-46c-3 0-6 .5-8.5 2.3l-.4 4.2c3 1.5 5.7 3.5 8.6 5.1l-1.2 1.4c-2.8-1.3-5.6-2.9-8.7-3.7-1.3-2.6-2.4-5.7-.5-8.3z"/><path fill="#1c1c1c" stroke="#1c1c1c" stroke-width=".1" d="M516.7 60.6c2.1-.2 4.3.4 6 1.7 2.5 3 2 7.4 0 10.4-1.5 2.3-4.9 1.4-6.6 3.4-2.7 2.7-1.5 6.8-1.9 10.2l-.1 3.9-.3 3.5-1.9-1c-.4-5.5-1.1-11.2.3-16.6l.9-2c2.6-1 5.1-2 7.6-3.4.8-3.4-.4-7.2-4.1-8-8.3-.7-16.6 0-25-.4 1-1.1 2-1.6 3.4-1.5 7.2-.1 14.5.3 21.7-.2z"/><path fill="#7f7e7e" stroke="#7f7e7e" stroke-width=".1" d="M335.4 81c7.2-12.4 21.6-18.8 35.5-20.1 7.7.1 15.5 1.1 22.8 3.5A38.1 38.1 0 0 1 414 87.7l-.4 2-.8 1c-2.5-12.5-12.4-24.1-25.4-26.4-8-1.3-16.4-3-24.5-.6-6 1.8-11.9 4.5-17.1 8-3.6 2.3-5.9 5.9-8.7 9l-1.8.3z"/><path fill="#444" stroke="#444" stroke-width=".1" d="M422.2 70c-2.4-3.9 1.7-8.7 5.7-8.4H446c5.7-.3 12.2.6 15.9 5.5 4.7 6.5 10.2 12.6 14 19.7l-1.2.6a26.2 26.2 0 0 0-6-5.6c-3.6-4.6-6.9-9.5-10.5-14-1.8-2.8-5.4-2-8.2-2.2-8.7.2-17.3-.3-26 .3l.6 2.8.4.3c3.2 2.5 8.2 4.3 8.4 9 .3 5.8.2 11.5 0 17.3l-1 1c-.2-5.4.2-10.9-.1-16.4-.2-2.3-1-5-3.3-6-2.3-1.2-5.6-1.2-6.8-4z"/><path fill="#3e3c3c" stroke="#3e3c3c" stroke-width=".1" d="M538.8 62.8c2-1.5 4.8-1.4 7.3-1.4H588c6-.1 12 2 17.5 4.3 4.3 1.7 7.3 5.1 10.5 8.3 3.9 3.5 6 8.5 8.2 13l.6 3.2c-.3-.6-1-1.7-1.2-2.3l-1.3 1.7-2-4.2-1.6.6c-3.2-7.5-9.2-14-16.8-17a47.5 47.5 0 0 0-19.9-3.7c-14.2 0-28.5-.2-42.7.2l.1 2.8c3 .3 6.9-.5 8.9 2.4 1.8 2 1.3 4.9 1.4 7.3.2 9-.5 18 .5 26.8 2.5.4 5 .6 7.4.7-.2 7.8.1 15.7 0 23.5 0 1.9-.8 3.6-1.4 5.3l-9.5.9v2.5c1.3 5.2 8.3 2.6 11.5 5.2-.7 5.4-.9 10.8-1.4 16.2.2 2.8 1.4 5.6 3.3 7.7 2.2 1 4.8.8 7.1 1-2.6 2-6 1.8-9 1.7l1-1.4-2.3-1.9c-.5-2.4-1.1-4.8-2-7.1 1.2-5 1-10.2.5-15.3-3.2-2-7.4-1.3-10.9-2.3-.6-2.7-1-5.5-1.1-8.2 2.8-2 5.9-3.2 9-4.2.3-5.6.4-11.3.3-17 .1-3.3-4.2-3.6-5.9-5.8-2.1-5-1-10.8-2.1-16a14 14 0 0 0 1-5c-.2-3.7.4-7.8-1.8-11.1-1.6-2.2-4.9-2.5-6.3-4.9-.3-2.1-.9-5 1.2-6.5z"/><path fill="#464646" stroke="#464646" stroke-width=".1" d="M484.8 66.6c1-2.8 4-4.5 6.9-4.3 8.3.5 16.6-.3 24.9.4 3.7.8 5 4.6 4 8-2.4 1.3-4.9 2.5-7.5 3.4l-.9 2-1.8.6-.2-3 .6-2c3-1.2 6-2.2 9-3v-2.8a384 384 0 0 0-32.1 0c-.4 9.2-.2 18.5-.2 27.8l-.6-1.2-2.3-3.9-.6-1.5c-.7-2-.3-4-.4-6 .1-4.9-.5-9.9 1.2-14.5z"/><path fill="#747474" stroke="#747474" stroke-width=".1" d="M63.4 63.1l.5 5.3c-2 7.3-2.3 15 0 22.3L62.4 95c-.4-5.3-2-10.6-1.8-16a72 72 0 0 1 2.8-15.8z"/><g fill="#1a0000" stroke="#1a0000" stroke-width=".1"><path d="M115.5 63.2l2.4 2.7c-2 6.4-10 5.7-14 9.9a22 22 0 0 1-10 5.8l-3.8-1.7c-.7-1.5-1.4-3-2-4.7l4.2 1.4c4.6-2.5 8.9-5.9 14-7.2 3.6-1 8.4-1.8 9.2-6.2zM636.7 169.1c1.5-1.5 2.9-3.1 3.6-5.1 1.3 1 2.4 2.3 4 2.8 7.5-.4 15.1 1.2 22.7.7 1.2.8 3 1.5 3.2 3.2.2 3.2.4 6.4 0 9.5-.2 2.5.8 5 .5 7.5a6.3 6.3 0 0 1-5 1.5c-6.6-.8-13.2-1.5-19.7-2.5-2.6-.5-5.7.4-6.1 3.3a76 76 0 0 1-.2 25c.3 4 1.4 8 1 12-.5 3.8 1 7.6 0 11.3 3.4 2.3 7.3 3.6 11 5.1v3.4c-2.5 1.2-5.2.6-7.8.2-5.8.7-11.6.5-17.5.3-4.9-1-10.2.3-14.8-1.9-4.4-1.4-7.8-4.8-12.3-5.7-5-1.1-9.7-2.9-14.3-4.7-1-.3-2.7-1.6-1.6-2.6 2.8-1.6 6.6-1.4 8.8-4.1l-1.1-2.5h6.2c6.7.7 13.7 1 20.4-.2 4.7-1 7-6.5 5.2-10.9.9-3.2 5-4.8 4.6-8.4-.3-6.4-.9-12.8-.4-19.2 1.8-2.2 5.4-3 5.8-6.1.6-1.4.4-3.6 2.2-4 5.2-1.6 10.7-1.1 16-2 1-.9 1.8-2.1 2.6-3.3-5.3-2.6-11.3-1.7-17-2.6m-34.5 59l-.8 6.2c7.5 3 15.3 4.9 22.9 7.3 4.4 1.8 9.3 1 13.8-.2-7-6-16.1-7.8-24.5-11-3.7-1-7.6-1.3-11.4-2.3z"/></g><path fill="#636363" stroke="#636363" stroke-width=".1" d="M156.5 65.5c2.5-1.7 5.5-2.2 8.5-2.2h46c3 0 6.6-.6 8.8 2-20.8.8-41.7-.2-62.6.6l-.2 3.5c3.1.2 6.2.6 9.3 1.2.5 1.6 1.1 3.3 1.3 5l-2.9-.7c-2.9-1.6-5.6-3.6-8.6-5.1l.4-4.3z"/><path fill="#2f0101" stroke="#2f0101" stroke-width=".1" d="M118 66l1.6 2.7c1.6 3.2 2.6 6.8 5.2 9.4 2.7 2.5 6.7 1.6 10 1l.6-.2c8.5 5.8 20 4.7 28.2 11.1v8c-2-2.8-5.4-4-8.7-5-4.5-1-5.6-6.8-10-8-3.8-1.3-8.8-2.2-11.8 1.2-3.7 2.9-3.8 8-4.5 12.1-5.8-3.9-12-7-18.7-9.1-5.6-1.9-10.7-5-16-7.7a22 22 0 0 0 10-5.7c4-4.2 12-3.5 14-9.9z"/><path fill="#663d3e" stroke="#663d3e" stroke-width=".1" d="M119.6 68.7c3-.8 3.8 2.8 5.3 4.5v-2.4l2.9 6.3a38 38 0 0 0 6.7-1.8c.1-2.5.3-4.9.6-7.3l2.6 2c-.2 2.8-1 5.5-3 7.6l.1 1.4c-3.3.7-7.3 1.6-10-.9-2.6-2.6-3.6-6.2-5.2-9.4z"/><path fill="#590101" stroke="#590101" stroke-width=".1" d="M137.4 68.2c5.8 1.5 11.7 2.7 17.4 4.4 3 .8 5.8 2.4 8.7 3.7-.1 4.5.1 9.1 0 13.7-8.1-6.4-19.6-5.3-28-11 3-1.3 5.8.7 8.7 1.7 4 1.5 8.4 1.9 12.7 2-.7-2-1-4.6-3-5.7-4.7-2.6-10.2-1-15.3-1-.2-2-.3-3.8-.7-5.7 0-.5-.3-1.5-.5-2z"/><path fill="#373737" stroke="#373737" stroke-width=".1" d="M273.3 72.1c5.6-5.5 14.3-5.6 21.4-3.4 1.8 1.9 3.7 3.7 5.8 5.2l.8 2c.9 3.4 1 7-.9 10l-.6-2.1c-1.4-4.6-4-9.6-8.9-11.1-4.6-1-10-.6-13.8 2.4-5.8 4-8.5 11.1-9.6 17.8-.1 5.2-1 10.7.8 15.7-1.2 2.3-.4 4.8-.3 7.2v2.8c-1.3-2.4-3-4.8-3.2-7.6-1-7.8.3-15.6-.5-23.4-.2-6.4 5-11.1 9-15.5z"/><path fill="#424040" stroke="#424040" stroke-width=".1" d="M362.1 70a18.4 18.4 0 0 1 16.5-.7c5 2.7 9.8 7 10.3 13 .6 4 1.3 8.2-.2 12.1a34 34 0 0 0-2.9-9.4A18.5 18.5 0 0 0 375 72.6c-3.8-.6-8.3-.8-11.3 2a28.2 28.2 0 0 0-8.4 22.4c.3 5.4-.8 11 1.2 16.1v1.3l1 1.5-.3.8c-1 2-1.9 4-1.9 6.3a58.3 58.3 0 0 1-3.5-36c1.7-6.5 5-12.8 10.3-17z"/><path fill="#5c5859" stroke="#5c5859" stroke-width=".1" d="M425 69c2.1.3 4.3.2 6.3.7a8.5 8.5 0 0 1 4.4 7.3c.4 9.6-.5 19.2.6 28.7l1.5.1c2 1.5 4 3 5.2 5.2.7 5 .2 10 .4 15 .3 3.5-1.8 6.4-3.4 9.3h-4.4l3.5-3.3c1.1-1 2.5-2.2 2.3-4 .1-5.6.5-11.3-.3-17-1.7-3-6.3-3.9-7.4-7.6-.6-2.6-.4-5.4-.4-8 .3-5.9.4-11.7.1-17.4-.2-4.7-5.2-6.5-8.3-9z"/><path fill="#830102" stroke="#830102" stroke-width=".1" d="M137.7 70l.3.3.6 5.7c5.1 0 10.6-1.6 15.3 1 2 1.1 2.3 3.7 3 5.7-4.3-.1-8.7-.5-12.7-2-2.9-1-5.7-3-8.8-1.8l-.6.1v-1.4c1.8-2.1 2.7-4.8 2.9-7.6z"/><path fill="#3f3d3d" stroke="#3f3d3d" stroke-width=".1" d="M575.1 70.3c9-1 20.6 2 23.4 11.9 0 2.1-.6 4.2-2.2 5.8l-1.3-3.8c-2.3-7.3-10.5-9.7-17.3-10-2.2 2.8-2.4 6.3-2.2 9.8 0 1.6 0 3.3.2 4.9l-3.5.1c0-5.6-.2-11.3.2-17l1.2-1 2.1 1.3-.6-2z"/><path fill="#776869" stroke="#776869" stroke-width=".1" d="M189.4 71.9c5.5-.4 11.1-.6 16.6-.1 4.1 1 7 4.6 8.2 8.6h-2.6c-.6-2.1-1.8-4.1-3.9-5.1-4.6-2.4-10.1-2-15-.6a34 34 0 0 0-1 12.3c.6 5-1.8 11.3 2.3 15.3 3.2.6 6.3 1.2 9.4 2l-13.9.2V71.9z"/><path fill="#262525" stroke="#262525" stroke-width=".1" d="M192.7 74.7a21.1 21.1 0 0 1 15 .6c2.1 1 3.3 3 4 5 .7 2.4 1.5 4.8 2.4 7.1l-1.8.1-1.4-2.2c-1.4-2.8-2.2-6.4-5.2-8-3-1-6.5-1-9.7-.5-2.7 2.3-1 6.2-1.4 9.2l-.3 1.6-2.6-.6a34 34 0 0 1 1-12.3z"/><path fill="#936060" stroke="#936060" stroke-width=".1" d="M509.3 91c.1-5.7-.8-11.6 1-17.2l.1 2.9 1.8-.6c-1.4 5.4-.8 11.1-.3 16.6-.5 12 0 24.1-.2 36.2l.1 4c-1.5 2.6-1.7 6.5-5.1 7.3-4.9.3-10.7 1.7-14.7-1.8 5.7.1 11.4.2 17-.1.6-15.8.2-31.5.3-47.3z"/><path fill="#694645" stroke="#694645" stroke-width=".1" d="M164.7 75l3 .6c-.1 10-.3 20 0 30.1 3 .5 5.8.7 8.7.6v24h-2l-.6-1c-.6-6 .4-12-.4-17.9-.2-1.7-2.2-2-3.5-2.8-4.2-1.3-4.7-6.3-6.1-9.8l-.2-.7v-8c0-4.7-.2-9.3 0-13.8l1.1-1.4z"/><g fill="#010001" stroke="#010001" stroke-width=".1"><path d="M575.5 84c-.2-3.5 0-7 2.2-9.9 6.8.4 15 2.8 17.3 10l-2.2 1.8c-4.8 1-9.8.2-14.7.3l-2.6-2.2zM234.3 144.2c4-3.5 9.7-4 14.8-3.3 5 .7 9 4.5 12 8.4l-1.3 1.1a27 27 0 0 0-17.2-1.8c-2 2.2-2.5 5.3-4.3 7.7-1.8.6-3.6.7-5.5 1-1.8-4.2-1.9-9.7 1.5-13.2zM404 189c3.9.8 9.2.6 11.5 4.4.5 6.3-.1 12.7-.1 19-4.2 2.6-9.2 2.3-13.8 1-2-8.2-.4-16.6 2.3-24.3z"/></g><path fill="#4f0101" stroke="#4f0101" stroke-width=".1" d="M301.3 76l2.1 3.9.3 2.1 2 5.6c2.7-.4 5.3-.8 8-1 1.8.3 2.9-1.2 4-2.2 3.8 1.5 8 .8 12 2l-1.3 1.8c-2.4.6-4.8 1-7.3 1.5l2 4.1a20.8 20.8 0 0 0-18 1.2 29.7 29.7 0 0 0-13.3 23c-.3 4.8-.1 9.7 0 14.6l-3.1-.5-1.4-.3c0-7-.5-14 .6-20.8.6-4 3.1-7.2 4.3-11-1-2.9-4-.7-5.5.7-7.2 6.4-10 16-12.6 24.9-2.4-2-4.6-4.1-6-7v-2.8c3.2-.8 3.8-4.2 5-6.8 2.3-6.9 8-12 13.5-16.3 4.1-3.2 10-3.3 13.8-6.8 1.9-3 1.8-6.6.9-10z"/><g fill="#010000" stroke="#010000" stroke-width=".1"><path d="M194.6 86c.3-3-1.3-7 1.4-9.2 3.2-.5 6.6-.5 9.7.5 3 1.6 3.8 5.2 5.2 8-5.3 1.4-10.9.8-16.3.7zM137.3 89.3c1.3-1.4 3-3.9 5-2.7 4.2 1.6 3.4 7.9 7.5 9.6 4 1.6 8.3 2.6 12.6 3.8.4 2.6.6 5.4 1.9 7.7 2 1.8 4.5 2.8 6.5 4.6 1.3 4.5.5 9.3.3 14-3.8-1.6-7.4-3.5-11.1-5.2-4.6-2.2-9.6-3.4-13.9-6.2-2.8-1.8-4.7-4.6-6.8-7.2a26.3 26.3 0 0 1-5.2-9c-1.4-3.4 1.3-6.8 3.2-9.5zM308.2 97.2c4.7-2.2 10.5-3 15.3-.6 1 2.3.8 4.8.8 7.2.4-1.8 1-3.6 1.6-5.4.2 2.6.3 5.2 1 7.7 1.6 2.4 5 2.9 6.7 5.2 2.1 3 2.7 6.6 4.3 9.9 4.1 8 10.3 15.3 18.7 19 3 1.1 6.1 1.8 9.2 2.4 1.4 2.3 2.7 4.7 3.9 7.1-2 .4-4 1.3-5.4 2.8a37.7 37.7 0 0 0-10.8 17h-18.7c0-2.8-.7-6 .9-8.6 2.9-2 7.4-3.5 7-7.8 0-3 0-6.2-.4-9.3-.5 0-1.6-.4-2.1-.5-7 .2-14.2 0-21.3.2-2.4 0-4.9-.5-7.2-1.3 2-3 5.7-4.7 7.3-8.1a17 17 0 0 0-1.2-16c-2.3.2-4.8-.3-7 .7-2 3.4-2.9 7.5-6 10.1-2.3 2.6-6 3-9.2 3.5-1.2-5-1.1-10.3-.5-15.4a28 28 0 0 1 13.1-19.8zM230.2 99l6.1.6c-.2 2.8-.6 5.8.8 8.4 2.3 2.8 6.3 3.2 9.5 4.3l1.8 6.1c-4.3.7-8.1-2.3-12.4-2.5-2-.1-3.9 0-5.8-.2a28 28 0 0 1 0-16.7zM285.6 223.3c1.7.8 4 1.1 5.1 3a30 30 0 0 1 3.4 21.8l-2.2 2.7-.5.5a43.5 43.5 0 0 1-16.4 2.4c-5.3.2-9.7-3.3-13.2-7a68 68 0 0 0 17.5-12.3c2.6-3.4 4.8-7 6.3-11.1z"/></g><path fill="#542627" stroke="#542627" stroke-width=".1" d="M90 80l4 1.5c5.2 2.7 10.3 5.8 16 7.7a74 74 0 0 1 18.6 9.1c1.1 1.2 2 2.6 2.6 4-7-2.7-13-7.2-20-9.6-4.7-1.7-9-4-13.6-6-2.8-1.8-6.2-3.5-7.5-6.8z"/><path fill="#524444" stroke="#524444" stroke-width=".1" d="M211.6 80.4h2.6l1.4 5 6-.3-.2 2.5-7.3-.2-2.5-7z"/><path fill="#886969" stroke="#886969" stroke-width=".1" d="M332 85.3l3.4-4.3 1.7-.4a53.4 53.4 0 0 0-7.4 15.7c.2-2.2.3-4.4.1-6.6l-1.2-1.3-.2-.2 1.2-1.9 1-.6 1.3-.4z"/><path fill="#3a3c3a" stroke="#3a3c3a" stroke-width=".1" d="M389 82.2h.5c.4 1.7.8 3.3 1.4 4.9 1 2.8.4 6 .9 8.9.5 3.2.7 6.4.5 9.7 2.4.5 5 .8 7.4.6a4 4 0 0 0 .7 3.6c-.5 3.4-.8 6.8-2 10-.3-3.5 0-7.2-.5-10.8.1 4.8 0 9.5-.3 14.1-2.3 5.6-6 11.3-12.2 13.2-3.6 0-8.6 1.3-10.2-3l.2-1.9c3.1 1.2 6.6 1.5 9.7-.2 7-3 9.5-11.4 10.3-18.4-1.4-3.4-6-4.2-7.4-7.7-.5-3.1-.3-6.4-1.4-9.4l2-1.4c1.6-3.9.8-8.2.3-12.2z"/><path fill="#987575" stroke="#987575" stroke-width=".1" d="M468.7 81.8c2.4 1.4 4.2 3.5 6 5.6 3 3.1 4.9 7.3 8.3 10 3 1 3.4-2.9 4-4.9l.5 1.2c.2 4 .1 8 .1 12h3.4c1.4 1.4 3.4 2.4 4.1 4.3.7 2.8 0 5.8-.3 8.7l-5.3-.1a89.4 89.4 0 0 0-5-6.4c-.4-2.4-.1-5 1.2-7-5.7-7.8-11.8-15.3-17-23.4m18.5 25.3c-1.8 4 1.7 7.5 4.6 10 1.9-1.3 3.2-3.8 2-6-.8-3-4-3.9-6.6-4z"/><path fill="#6b3635" stroke="#6b3635" stroke-width=".1" d="M598.5 82.2l.8 1.7c1 2.6 1.4 5.3 1.6 8 1 4 .6 8.1.8 12.2l-2.9 1.4c-2.5-4.8-2.4-10.4-2.4-15.7V88a7.7 7.7 0 0 0 2.1-5.8z"/><path fill="#1b0101" stroke="#1b0101" stroke-width=".1" d="M133.1 86.2c3-3.4 8-2.5 11.8-1.2 4.4 1.2 5.5 7 10 8 3.3 1 6.6 2.2 8.7 5l.2.8-1.4 1.2c-4.3-1.2-8.6-2.2-12.6-3.8-4.1-1.8-3.3-8-7.4-9.6-2.1-1.2-3.8 1.3-5.1 2.7-1.9 2.7-4.6 6-3.2 9.4 1 3.4 3 6.3 5.2 9 2 2.6 4 5.4 6.8 7.2 4.3 2.8 9.3 4 13.9 6.2 3.7 1.7 7.3 3.6 11.1 5.2l-.2 2.3c-3.2-.4-5.7-2.5-8.4-4-6.5-3.9-14-5.8-20.2-10l-.6 1.2-1-1.2a66.2 66.2 0 0 0-9.5-12.3c-.7-1.4-1.5-2.8-2.6-4 .8-4.2.8-9.2 4.5-12.1z"/><path fill="#210100" stroke="#210100" stroke-width=".1" d="M286.8 88.8c4.2-2 8.7-3.2 13-5l.6 2c-3.8 3.6-9.7 3.7-13.8 7A38.2 38.2 0 0 0 273 109c-1 2.6-1.7 6-5 6.8-.1-2.4-.9-5 .3-7.2 3.3-3.8 5-9 8.9-12.4 3-2.7 6.1-5.3 9.6-7.4z"/><path fill="#360102" stroke="#360102" stroke-width=".1" d="M415 85.3c0-.4.5-1.2.6-1.6l1 2.7c5.2 1.2 8.7 5.3 12.8 8.1 1 .8 2 1.5 2.1 2.8 0 2.3.2 4.6.4 6.9-5.2-3.7-8.5-9.4-13.8-13l-.1 2.4-1.2-1.3c-.6-1.5-1-3-1.4-4.6l-.5-2.4z"/><path fill="#2e0000" stroke="#2e0000" stroke-width=".1" d="M575.5 84l2.6 2.2c4.9-.1 9.9.6 14.7-.3l2.2-1.7c.5 1.2 1 2.5 1.3 3.8v1.8A72 72 0 0 0 576 91l-.3-2.2c-.2-1.7-.2-3.3-.2-5z"/><path fill="#230102" stroke="#230102" stroke-width=".1" d="M211 85.3l1.3 2.2-3.2 1.3c-5 .4-10 .6-14.8-.2v-1l.3-1.6c5.4.1 11 .7 16.3-.7z"/><path fill="#8c4647" stroke="#8c4647" stroke-width=".1" d="M240.4 89a126 126 0 0 1 3.4-3.5l.5 3a28.5 28.5 0 0 0-2.9 10.4l-3.4-.8 1-6.8 1.4-2.3z"/><path fill="#4b0101" stroke="#4b0101" stroke-width=".1" d="M367.4 96.4c5-5.5 12.2-7.7 18.4-11.4a34 34 0 0 1 2.9 9.4l-2.1 1.4a41 41 0 0 0-7 6.2c1.4-3.3 4.1-5.9 4.8-9.4-2.9-.2-5.3 1.6-7.8 2.8a39 39 0 0 0-19.2 20.5l-.9-1.5V113c3.6-5.6 6.4-11.7 10.9-16.7z"/><path fill="#200001" stroke="#200001" stroke-width=".1" d="M516 87c9.8-2.2 20 .4 29.7-1.7a14 14 0 0 1-1 5c-2.3 1.4-5.3 2.7-6 5.6-1.5 5.1-.6 10.5-.5 15.8-.2 9.7-.8 19.5.2 29.1l-3.5.8-2 .3c-1.1-1.4-3.4-2.5-3.1-4.6 1-12 .2-24.2.5-36.3 0-2.1.7-4.1 1.4-6 3.3-1 6.5-2.3 8.6-5-8.7-1.2-17.6-1-26.2.2l.1-4 1.9.8z"/><g fill="#776161" stroke="#776161" stroke-width=".1"><path d="M618.7 86l1.7-.6 2 4.2c1.6 6 1.4 12.2 1.1 18.4a23.3 23.3 0 0 1-6.8 15.8c-3.3 3-6 6.8-9.8 9-4.4 2.8-9.4 4.4-14 6.5-4.7-1.6-9.2 1.3-13.9 1.2-4.1.3-8.6-.9-12.3 1.5 1.9 1.2 4 2.4 6.3 2.3 6.9.3 13.8 0 20.7 0 8.4.3 16.9 0 25.3.1 5.3.3 10.5-1.8 15.8-1l.3 1-2.3-.4a14.5 14.5 0 0 1-8.7 2.6h-54.2c-3.2.4-6-1.6-8.7-2.9l.8-1.6-5.3-3.9c14.4-.1 29.4 1.3 43-4.5a35.7 35.7 0 0 0 20.9-21.6 42 42 0 0 0-1.9-26.1zM97.6 86.8c4.5 2 8.9 4.3 13.6 5.9 7 2.4 13 6.9 20 9.6 3.6 3.8 6.9 7.8 9.5 12.3v4.8l-1.7-1.1c-4-11.7-15.4-18-26-22.6-6-2.2-12-4.4-17.5-7.8l2-1.1z"/></g><path fill="#582625" stroke="#582625" stroke-width=".1" d="M191.7 87l2.6.6v5.6c-.1 1.6-.4 3.2-.4 4.8 1.8 3 5.8 1 8.4.7l1.5 2.4c-3 1.6-6.5 1.6-9.8 1.2-4-4-1.8-10.3-2.3-15.3z"/><path fill="#4b1415" stroke="#4b1415" stroke-width=".1" d="M212.3 87.5H223.7a43 43 0 0 1-6.9 4.1 13 13 0 0 0-9-.3l1.3-2.5 3.2-1.3z"/><g fill="#480101" stroke="#480101" stroke-width=".1"><path d="M223.7 87.5h.3c5.7.3 11.3.3 16.9 0l-.5 1.5-1.3 2.3c-2.6.4-5.1 1-7.7 1.6 1.8 1.6 3.7 3 5.6 4.5l-.6 1.5c-2.6-3-6.9-2.3-10.3-1.7-2.4.2-2.2 3-2.3 4.8-.1 7 .8 14 .9 21.1-2.2-1.5-4.8-1.8-7.3-2.2l.9-4.7a63.4 63.4 0 0 0 1-18.8 10 10 0 0 0-2.5-5.8 43 43 0 0 0 6.9-4zM400.4 214.2c-4.3-8-3-18 .2-26.3l3.3 1.2a42.5 42.5 0 0 0-2.3 24.3l.3 1.5-1.5-.7z"/></g><path fill="#5f3f3d" stroke="#5f3f3d" stroke-width=".1" d="M474.7 87.4l1.2-.6h.9c1.8 2.6 3.6 5.2 6.2 7a89 89 0 0 0 1.6-5.2l2.3 4c-.5 1.9-.9 5.8-4 4.8-3.3-2.7-5.2-6.9-8.2-10z"/><path fill="#361212" stroke="#361212" stroke-width=".1" d="M476.8 86.8c2.3.7 4.8.9 7.3.3 0 .4.4 1.1.5 1.5a89 89 0 0 1-1.6 5.3c-2.6-1.9-4.4-4.5-6.3-7z"/><path fill="#250000" stroke="#250000" stroke-width=".1" d="M624.2 87c8 1.3 15.3 6 20.6 12a46 46 0 0 1 8 19c0 8 0 16.5-4.6 23.2a23 23 0 0 1-7.8 8.9c0-.6-.3-1.7-.4-2.3-.5-2.8-1.5-6-4.2-7.4-2.4-1.6-5.1-.2-7.6.2-6.3 1.7-12.8.4-19.1 1.1-1.2-3.4 1.6-6.3 2.7-9.3l3-2.6c8-1.6 16-3.1 24.2-3.9 1.3-6 .5-12.5-3.8-17l-3.4 1.6-1.3-1-2.3 1c.2-3 .1-6.2-1-9.1-.7-3.8-1.3-7.5-2.4-11.2l-.6-3.1z"/><g fill="#4b0102" stroke="#4b0102" stroke-width=".1"><path d="M194.3 88.6c4.9.8 9.8.6 14.8.2l-1.3 2.5-1.3.2a22 22 0 0 1-12.1-.1l-.1-2.8zM341.8 232.1l1.5-2.4v8l11.1-.2 1.6-1.6c0 1.8.4 4.8-2 5.1a22 22 0 0 1-11.5-.6c-1-2.6-.7-5.5-.7-8.3z"/></g><path fill="#704847" stroke="#704847" stroke-width=".1" d="M263 87l1.3.6c.8 7.8-.4 15.6.5 23.4.2 2.8 2 5.2 3.3 7.6 1.4 2.9 3.6 5 6 7a25 25 0 0 0 13.2 6.2l1.4.3 1 1c-4.9-.7-9.8-.5-14.7-.7a26.2 26.2 0 0 1-10.1-13.2 75.8 75.8 0 0 1-2-32.3z"/><path fill="#7b0708" stroke="#7b0708" stroke-width=".1" d="M321.1 89.7l7.3-1.5.2.2a45.7 45.7 0 0 0-3 7.8l-2.4-2.4c-.8-1.3-1.4-2.8-2.1-4.1z"/><path fill="#984f50" stroke="#984f50" stroke-width=".1" d="M414 87.7h1.4c.3 1.6.8 3.1 1.4 4.6.7 6 .1 12-.7 18l-1-.2-1.7-1.3.8-3.5c1.3-5.2.8-10.5-.6-15.6l.3-2z"/><path fill="#4b2a2a" stroke="#4b2a2a" stroke-width=".1" d="M622.3 89.6l1.3-1.7 1.2 2.3c1.1 3.7 1.7 7.4 2.3 11.2-1 10.4-3.9 21.5-12.3 28.4l-3 2.6c-4.8 3.2-10.3 5-15.3 7.8 3.3 3.5 8.4 2 12.6 1.5 6.3-.7 12.8.6 19.1-1 2.5-.5 5.2-1.9 7.6-.3 2.7 1.4 3.7 4.6 4.2 7.4-1.5 5.8 0 12.4-3.9 17.5-.8-7-.2-14-1-21l-.3-1c-5.3-.7-10.5 1.4-15.8 1.1-8.4-.1-16.9.3-25.3-.2l-3.6-2.7 2.8-2.2c4.6-2.1 9.6-3.7 14-6.5 3.9-2.2 6.5-6 9.8-9 4.5-4 6.3-10 6.8-15.8.3-6.2.5-12.5-1.2-18.4z"/><path fill="#a4403f" stroke="#a4403f" stroke-width=".1" d="M328.6 88.4l1.2 1.3c.2 2.2 0 4.4 0 6.5l-.4 4.2-3-3.4-.7-.8c.7-2.7 1.7-5.3 3-7.8z"/><path fill="#560100" stroke="#560100" stroke-width=".1" d="M514 90.2c8.7-1.2 17.6-1.4 26.3-.3a15.1 15.1 0 0 1-8.6 5c-2 .9-3.7 2-5.4 3.2-.6 7.2-1.8 14.5-.9 21.8 0 2.4 1 5.5-1.1 7.4-3 1.3-6.2 1.6-9.3 2.1.2 4.4 1.5 9 5 11.9l-6.5-.5c.5-4.1.7-8.3.6-12.5l.9-.2c1.8-.4 3.8-.8 5.6-1.5 1-1.7.8-3.7.7-5.6-.3-4.7.4-9.4 0-14.1-.3-3 .6-6 1.5-9 2.5-.9 5.3-2 6.5-4.6-4.9-.6-9.7 0-14.5.8l-1-.4.3-3.5z"/><path fill="#733133" stroke="#733133" stroke-width=".1" d="M572.2 89l3.5-.1.3 2.2.5 2.6-.7 4.1c.2 10.2-1 20.6 1 30.6l-2 1.8-1.6 1 .3-2.6-1.3.1V89z"/><path fill="#7c3736" stroke="#7c3736" stroke-width=".1" d="M207.8 91.3c3-1 6.2-1 9 .3a10 10 0 0 1 2.5 5.8c.5 6.3.4 12.7-1 18.8-2.8 1.3-6 2-8.4-.2l4.6-.3c.4-7.2 1.5-14.3.1-21.4l-.6-1.1-7.5-1.7 1.3-.3z"/><path fill="#bc9092" stroke="#bc9092" stroke-width=".1" d="M412.8 90.7l.8-1c1.4 5.1 1.8 10.4.6 15.6.2-4.9-.1-9.8-1.4-14.6z"/><path fill="#4c0001" stroke="#4c0001" stroke-width=".1" d="M576 91.1a72 72 0 0 1 20.4-1.3c0 5.3-.1 10.9 2.4 15.7l.8 1.5c-2.6-1.1-6.2-5.2-8.4-1.7-1.1 3.8-.5 7.8-.5 11.7.4 2.7 0 6 2.2 8a23.4 23.4 0 0 1-16.1 3.4c-2-10-.8-20.4-1-30.6 5.8-.7 12.4.3 17-4-.1-1-.8-1.6-1.8-1.6-5-1-9.8.5-14.5 1.5L576 91z"/><path fill="#7f0a0a" stroke="#7f0a0a" stroke-width=".1" d="M194.4 91.4c3.9 1.4 8.1 1 12.1.1 2.5.6 5 1 7.5 1.7-1.9 0-3.7 0-5.5.4-1.8 2.4-3 5.2-4.7 7.5l-1.5-2.4c-1.8-2.8-5-4.1-8-5.5v-1.8z"/><path fill="#780706" stroke="#780706" stroke-width=".1" d="M231.4 92.9c2.6-.6 5.1-1.2 7.7-1.6-.5 2.2-.8 4.5-1.1 6.9l-1-.8c-2-1.4-3.8-3-5.6-4.5z"/><path fill="#5f0101" stroke="#5f0101" stroke-width=".1" d="M418.1 91.1c5.3 3.7 8.6 9.4 13.8 13l1 2.7c0 5.9 2.6 11.4 2.3 17.2.3 2.2-.7 5.2 1.7 6.5l-1.1.8-1-.2-3-.7a41 41 0 0 0-4-23.4c-1.9-4-5.5-7-8.5-10.2l-1.3-3.2.1-2.5z"/><g fill="#020001" stroke="#020001" stroke-width=".1"><path d="M538.7 95.9c.7-3 3.7-4.2 6-5.7 1.1 5.3 0 11 2.1 16.1 1.7 2.2 6 2.5 5.9 5.9.1 5.6 0 11.3-.2 17-3.2.9-6.3 2.2-9.1 4 .1 2.8.5 5.6 1.1 8.3 3.5 1 7.7.3 10.9 2.3.6 5 .7 10.3-.6 15.3 1 2.3 1.6 4.7 2 7.1l2.3 1.9-1 1.4c-8.2-.6-16.4-2.1-24.6-1.5-.5-4 0-8.1 1.8-11.8 2.9-2 6.3-3.6 7.8-7.2-1.2-3.8-4-7-8.2-7.4l3.5-.8c-1-9.6-.4-19.4-.2-29.1-.1-5.3-1-10.7.5-15.8zM491.4 156.6c1.8-.7 3.5-1.8 5.6-1.8 3.5 1.1 6.6 3.5 9 6.3.6 2.3.3 4.8.4 7.1-5.2.5-10.4-.1-15.6.3-.4-3.4-.1-7 2.8-9.2l-2.2-2.7zM610.5 160.4c4.2-.5 8.4-1.5 12.7-2 1.6 2.2 2.9 4.5 4.2 6.9l-1 2.3c-5.2.7-10.5.6-15.8.6-.2-2.5-.3-5.2-.1-7.8zM381.7 170c.3-3.6 1.8-7 4.3-9.4 3.8 1.5 8 2 12 2.6 5.6 1 11-1 16.4-2l2.2 3.7c-5 1.3-10.3 1.8-15.2 3.7a64.4 64.4 0 0 0-20.3 19.9c-1.1-6.2 0-12.4.6-18.6zM409 227.5c9.3.1 18.8-1.4 27.4-5 1 3.5 1.8 8.6-2.1 10.7-6.2 3.2-13.2.5-19.4-.9-2.8-.4-4.7-2.4-6-4.8z"/></g><path fill="#200000" stroke="#200000" stroke-width=".1" d="M305 95a20.8 20.8 0 0 1 18.2-1.2l2.5 2.4.7.8a243 243 0 0 0-2 6.8c-.1-2.4.1-5-.9-7.2-4.8-2.4-10.6-1.6-15.3.6a28 28 0 0 0-13.1 19.8c-.6 5.1-.7 10.3.5 15.4l-3.7.2c-.2-5-.4-9.8-.1-14.6 0-9.3 5.8-17.8 13.2-23z"/><path fill="#7a0203" stroke="#7a0203" stroke-width=".1" d="M576.5 93.7c4.7-1 9.6-2.5 14.5-1.5 1 0 1.7.6 1.9 1.6-4.7 4.3-11.3 3.3-17 4 0-1.4.3-2.8.6-4.1z"/><path fill="#aa7576" stroke="#aa7576" stroke-width=".1" d="M208.5 93.6c1.8-.4 3.6-.4 5.5-.4l.6 1-5.3.2c-.1 3.8-1 7.6-4 10.2l-1.9-.4-9.4-2c3.3.5 6.8.5 9.8-1.1 1.8-2.3 3-5.1 4.7-7.5z"/><g fill="#8a0101" stroke="#8a0101" stroke-width=".1"><path d="M376.6 95.3c2.5-1.1 5-2.9 7.8-2.7-.7 3.5-3.4 6.2-4.8 9.4-5.3 9-4 19.6-4.3 29.5v1.8c-2.4-2.1-5.7-2.5-8.3-4.2-4.4-3.1-7.6-7.6-9.8-12.4l.3-.8a39 39 0 0 1 19-20.6zM332.8 169.7l2-.1c6-.2 12.1 0 18.2 0-1.1 5-3.1 10.2-1.5 15.5.1 2.7 2.2 4.6 4.2 6.2V229c0 2.4.1 4.7.3 7l-1.6 1.6-11 .1c-.1-2.6-.2-5.3-.1-8 .6-4.2-1.2-8.4-.3-12.6.4-2.7.8-5.4.3-8.1-1.1-1.5-3.2-1.3-4.8-1.7-.5-10 .3-20.2-.3-30.3-.1-2.5-2.7-3.2-4.8-3.6a210 210 0 0 0-.6-3.7z"/></g><path fill="#8b2323" stroke="#8b2323" stroke-width=".1" d="M416.8 92.3l1.2 1.3 1.3 3.2a72 72 0 0 1-1.3 13.8l-1.6 2.9-.3-3.3c.8-5.9 1.4-11.9.7-17.9z"/><path fill="#7a1a1b" stroke="#7a1a1b" stroke-width=".1" d="M512 92.7l1.8 1 1 .4-.1 10c0 8-.2 16 .3 24l-1 .2-2.3.6c.2-12.1-.3-24.2.2-36.2z"/><path fill="#830103" stroke="#830103" stroke-width=".1" d="M514.8 94.1c4.8-.9 9.6-1.4 14.5-.8-1.2 2.7-4 3.7-6.5 4.7-3.2 1.2-6 3.3-8.1 6l.1-9.9z"/><path fill="#360304" stroke="#360304" stroke-width=".1" d="M194 98c0-1.6.2-3.2.4-4.8 2.9 1.4 6 2.7 8 5.5-2.7.2-6.7 2.3-8.5-.7z"/><path fill="#a77c7f" stroke="#a77c7f" stroke-width=".1" d="M456.9 92.8c4 4.8 7.8 9.7 11.3 14.9l-.7 2.4-2.4-3.2c-1.3-2.2-3.3-3.8-5.8-4-1.3 8-.6 16-.7 24.1-.2 3.5 2.6 6 4.6 8.5-2 0-4-.5-5.8-1-1-6-.5-12.3-.6-18.5V92.8z"/><g fill="#410001" stroke="#410001" stroke-width=".1"><path d="M526.3 98c1.7-1.1 3.5-2.2 5.4-3-.8 1.9-1.4 3.9-1.4 6-.3 12 .4 24.2-.5 36.3-.3 2 2 3.2 3.1 4.6l-3.3.3-9.6-1c-3.5-2.8-4.8-7.4-5-11.8 3.1-.5 6.4-.8 9.3-2.1 2.2-1.8 1.1-5 1.1-7.4-1-7.3.3-14.6.9-21.8zM236.3 247.3c8 1.5 16.4.9 24-2l.7.6-2.2 2.3c2.3 2.5 4.8 4.7 7.5 6.7-4 2.2-6.4 6-10 8.5-3.7.5-7.4-1.5-10.9-2.9-3.8-1.8-3.3-6.6-3.8-10.2l-5.3-1.6v-1.4z"/></g><path fill="#3c2222" stroke="#3c2222" stroke-width=".1" d="M432.4 96.4l1-1c0 2.6-.3 5.4.3 8 1.2 3.7 5.7 4.5 7.4 7.7.8 5.6.4 11.3.3 17 .3 1.8-1.2 2.8-2.3 4l-3.3-.8 1.1-.8c1-.9 2.3-2 2.2-3.4a84 84 0 0 0 0-14c-1.5-2.6-4.2-4.2-6.2-6.3l-1-2.6-.4-6.9.9-1z"/><path fill="#210001" stroke="#210001" stroke-width=".1" d="M223.8 102c.1-1.7 0-4.6 2.3-4.8 3.4-.6 7.7-1.3 10.3 1.7v.7L230 99a28 28 0 0 0 .1 16.7c2 .2 3.9 0 5.8.2 4.3.2 8 3.2 12.4 2.5l1 3c-6.4 1.4-13 1.7-19.4 3.6-2.2 1-3.9-.4-5.3-1.9-.1-7-1-14-1-21.1z"/><path fill="#555" stroke="#555" stroke-width=".1" d="M326.4 97l3 3.4-.3 4.9c3.1 1.7 6 3.9 8.6 6.3a40.5 40.5 0 0 0 16.7 24 61.4 61.4 0 0 0 11.4 4.1v2.9c-3-.6-6.2-1.3-9.2-2.4a40.1 40.1 0 0 1-18.7-19c-1.6-3.3-2.2-7-4.3-9.9-1.7-2.3-5-2.8-6.6-5.2-.8-2.5-.9-5.1-1.1-7.7l.5-1.4z"/><g fill="#890101" stroke="#890101" stroke-width=".1"><path d="M419.3 96.8c3 3.2 6.6 6.1 8.6 10.2a41 41 0 0 1 4 23.4c-2.6 2.6-3.1 6.1-3.3 9.5l-3 .5c.4-4.1 3.3-8.8.6-12.6-2.4-.6-5-.5-7.4-.7-.3-5.5 0-11-.8-16.5a72 72 0 0 0 1.3-13.8zM288.3 147.2c1.6-.3 3-.5 4.6-1 3.3 5.1 7.8 9.6 13.4 12l.3 2.6-6.6 1.4-.2 8.9c-3.8-4.2-7-9-12-12-1.8-1.1-4-1-6-1l-2.4.1a39 39 0 0 0 2-7.7h7.3l-.4-3.3zM288.6 206c5.6 2 9.8 6.3 14.1 10.3l.6 5.4c1 1.3 2.5 2 3.8 2.9a32 32 0 0 1-1 22l-2 2.1c-4 2.9-8 6-13 7.3l.8-5.2 2.2-2.7c2.7-3.1 5.3-6.7 5.5-11 .4-5.2.4-10.8-2.4-15.4-2-3.5-5.3-6-9-7.7.5-2.7.6-5.4.4-8z"/></g><path fill="#181415" stroke="#181415" stroke-width=".1" d="M237 97.4l1 .8c.3 2 .4 4 .9 6 2 3.2 6 3.8 8.6 6.3 2 3.2 3 6.9 4 10.4l-2 .4-1-2.9-1.9-6c-3.2-1.3-7.2-1.6-9.5-4.5-1.4-2.5-1-5.5-.8-8.3l.1-.7.6-1.5z"/><path fill="#685151" stroke="#685151" stroke-width=".1" d="M238 98.2l3.4.7-.2 6.3h.5c4.4 1.8 9 4 10.5 9 .6 1.9 1.4 3.8 2.2 5.6a56 56 0 0 1-.5 6.8c-6.5-.2-13.1-.2-19.5 1.3l-5-.3c4.1-1.3 8.2-3 12.5-3 3.5-.1 7 0 10.3-1.3l-.7-2.4c-1-3.5-2-7.2-4-10.4-2.6-2.5-6.7-3.1-8.6-6.3-.5-2-.6-4-1-6z"/><path fill="#700100" stroke="#700100" stroke-width=".1" d="M514.7 104c2.1-2.7 4.9-4.8 8.1-6-1 2.8-1.8 5.8-1.4 8.9.3 4.7-.4 9.4-.1 14.1 0 1.9.2 3.9-.7 5.6-1.8.7-3.8 1.1-5.6 1.6-.5-8-.2-16.1-.3-24.2z"/><path fill="#222" stroke="#222" stroke-width=".1" d="M163.8 98.8c1.4 3.5 1.9 8.5 6.1 9.8 1.3.8 3.3 1.1 3.5 2.9.8 5.9-.2 11.9.4 17.8-1 .9-2.2 1.7-3.3 2.5l.4-3.2.2-2.3c.3-4.7 1-9.5-.3-14-2-1.8-4.6-2.8-6.5-4.6-1.3-2.3-1.5-5.1-2-7.8l1.5-1.1z"/><path fill="#860101" stroke="#860101" stroke-width=".1" d="M286.7 100.7c1.4-1.4 4.4-3.6 5.5-.6-1.2 3.7-3.7 7-4.3 10.9-1 6.9-.7 13.9-.6 20.8a25 25 0 0 1-13.2-6.2c2.7-8.9 5.4-18.5 12.6-24.9z"/><path fill="#3b0100" stroke="#3b0100" stroke-width=".1" d="M627.1 101.4c1.2 3 1.3 6 1.1 9.2l2.3-1 1.3.9 3.4-1.7c4.3 4.6 5 11.2 3.8 17.1-8.2.8-16.2 2.3-24.2 4 8.4-7 11.4-18 12.3-28.5z"/><path fill="#7a2a2a" stroke="#7a2a2a" stroke-width=".1" d="M459.3 103c2.6.1 4.5 1.8 5.8 3.9l-.4 2.6c-.9 0-1.7-.2-2.6-.3a112.7 112.7 0 0 0 .2 21.5l6.5.7c1 1.2 2.2 2.3 2.8 3.8l-.3 5.7 5 1.6 1.3.7c-2.8 0-5.7.6-8.4-.4-1.7-.9-1.2-3.2-1.8-4.6h1l.4-3-5.6.3c-2-2.5-4.8-5-4.6-8.5.1-8-.6-16.1.7-24z"/><g fill="#290001" stroke="#290001" stroke-width=".1"><path d="M591.2 105.3c2.2-3.5 5.8.6 8.3 1.7l4.3 2.8c.3 7-5.3 12-11 15.1-2.2-2-1.7-5.2-2-8 0-3.8-.7-7.9.4-11.6zM261 246l.8.8c3.5 3.6 8 7 13.2 6.9 5.6.4 11.1-.7 16.4-2.4-2 1.7-4.2 3.2-6 5-2 2.2-2.6 5-3.5 7.7 9.3-1.2 18-6.9 22.3-15.3l2-2.2 1-.9c-2 6.8-7.3 11.6-12.7 15.8-3.7 3.9-8.9 5.6-13.9 7.3-4.4.7-9 .8-13.6 1.3l-12.8-1.2c-5.3-.4-10-2.9-14.5-5.6-1.8-1-1.7-3.3-2.2-5a35 35 0 0 0-3.4-9.6h2.2l5.3 1.7c.5 3.6 0 8.4 3.8 10.2 3.5 1.4 7.2 3.4 11 3 3.5-2.6 6-6.4 9.9-8.6-2.7-2-5.2-4.3-7.5-6.7l2.2-2.3z"/></g><path fill="#644546" stroke="#644546" stroke-width=".1" d="M601.7 104c.3.4 1 1 1.2 1.4h5.9c.3 5.2-1.7 10-3.6 14.7-4.7 4.7-9.6 9.8-16.2 11.5-5 .5-10.2.2-15.3 0l1.1-1.4 2-1.8c5.6.7 11.3-.3 16-3.5 5.7-3 11.3-8.1 11-15.1l-4.3-2.8-.7-1.5 2.9-1.4z"/><path fill="#988284" stroke="#988284" stroke-width=".1" d="M241.7 105.3l8.6.2c.5 3 1.1 5.8 1.9 8.6-1.4-5-6.1-7-10.5-8.8z"/><path fill="#b48787" stroke="#b48787" stroke-width=".1" d="M329.1 105.3c2.8.3 5.5.4 8.2.5l.4 5.8a46.4 46.4 0 0 0-8.6-6.3z"/><path fill="#c2a1a1" stroke="#c2a1a1" stroke-width=".1" d="M480 105.7l5.7-.6a9.8 9.8 0 0 0-1.1 7.1c-1.6-2-3.8-3.9-4.5-6.5z"/><path fill="#9f7a7a" stroke="#9f7a7a" stroke-width=".1" d="M77.8 106.5c6.7-.4 13.5-.2 20.3-.9 8 4 15.8 8.7 22.2 15 2.5 2.3 3.9 5.4 4.7 8.6l-1.9-.6c-4.2-10.1-14.6-15.5-24-20.1-6.9-2-14.2-1.4-21.3-2z"/><path fill="#797879" stroke="#797879" stroke-width=".1" d="M437.8 105.8h6.5c0 8.7.2 17.5 0 26.2 0 2.4-2.3 3.5-4.3 3.3 1.6-2.9 3.7-5.8 3.4-9.3-.2-5 .3-10-.4-15-1.1-2.2-3.3-3.7-5.2-5.2z"/><path fill="#b3898a" stroke="#b3898a" stroke-width=".1" d="M491 105.7l5.2.1c0 7 .1 14-.1 21a80.5 80.5 0 0 1-6.6-8.2h5.3c.3-2.8 1-5.8.3-8.6-.7-2-2.7-3-4.1-4.3z"/><path fill="#390200" stroke="#390200" stroke-width=".1" d="M433 106.8c2 2.1 4.6 3.7 6 6.3.5 4.6.4 9.3.1 14 0 1.5-1.2 2.5-2.2 3.4-2.4-1.3-1.4-4.3-1.7-6.5.3-5.8-2.2-11.3-2.3-17.2z"/><path fill="#850303" stroke="#850303" stroke-width=".1" d="M465.1 106.9l2.4 3.2c1.6 5.6 6.9 8.6 9.8 13.2l-.3 1.6-3.8-.6-2.5 3.5H462c-.4-6.2-.5-12.4.1-18.6l2.6.3.4-2.6z"/><path fill="#6b2f30" stroke="#6b2f30" stroke-width=".1" d="M487.2 107c2.6.2 5.8 1.2 6.7 4 1.1 2.3-.2 4.8-2.1 6-2.9-2.4-6.4-5.8-4.6-10z"/><path fill="#753e3d" stroke="#753e3d" stroke-width=".1" d="M468.2 107.7c7.7 10.4 15.9 20.5 23.8 30.7 4 3.5 9.8 2.1 14.7 1.8v4.4c-2.4.8-4.9 1.5-7.4 2l-.2 3.1c3.3 1.4 6.5 3.1 9.2 5.6l.2 5a11.8 11.8 0 0 0-16.4-7.2l.4-2.7 3.9-.1-.2-3.4-2.1-2.8 4.8-.5c-8.4-1.7-13.3-9.2-19-14.8-1-1.3-2-2.6-2.8-3.9l.2-1.6c-3-4.6-8.2-7.6-9.8-13.2l.7-2.4z"/><path fill="#280001" stroke="#280001" stroke-width=".1" d="M83.2 109.3c3.5.2 7 .2 10.5 0 .8.2 1.6.6 2.5 1l-1.8 1.3c2.7 5.8 5.9 12.9 12.7 14.3 2.6.8 5.4 1 8 1h3.7l1.3 1.2.2.5v1.2c-7.5-3-16.3-1-23.3-5.6-2.9-2.3-6-4.7-7.3-8.3-.8-2-2-3.8-3.7-5.1l-2.8-1.5z"/><path fill="#812f2f" stroke="#812f2f" stroke-width=".1" d="M93.7 109.2l5.4-.7c9.4 4.5 19.8 10 24 20.1l-3-.5-1.3-1.2a43 43 0 0 0-17-13.6c-1.8-1-3.7-2.1-5.6-3a39 39 0 0 0-2.5-1z"/><path fill="#757474" stroke="#757474" stroke-width=".1" d="M413.4 108.8l1.6 1.3c-.9 2.9-1.8 5.8-3 8.6a44 44 0 0 1-9.7 14.6c-2.7 2.5-5.6 4.9-8.3 7.5 8.8 1.3 17.6 1.9 26.4 1.8l.2 1.6-5.7.2c-6.3-.3-12.6-1.5-18.9-.8a82 82 0 0 0-15.8 3.4l-2.4-5.8c8.6 0 17.1-3 23.4-9a49.3 49.3 0 0 0 12.2-23.4z"/><path fill="#816b6b" stroke="#816b6b" stroke-width=".1" d="M189.5 109.6c5.5.2 11-.2 16.5.2 2.4.1 4.6 1.1 6.2 2.8l-1.8.8a29.2 29.2 0 0 0-17.7-1c-1.6 5-1.4 10.4-1 15.6 0 2.6 2.4 4 4 5.8l.7 1.6H194c-2.3-1.3-4.3-3.6-4.3-6.4-.4-6.4 0-13-.1-19.4z"/><path fill="#5e2e2d" stroke="#5e2e2d" stroke-width=".1" d="M415 110.1l1 .1c.2.8.4 2.5.4 3.3-.5 3-1.3 6-2.6 8.7l-1.7-3.5c1.1-2.8 2-5.7 3-8.6z"/><path fill="#3e0101" stroke="#3e0101" stroke-width=".1" d="M94.4 111.6l1.8-1.3c2 .9 3.8 2 5.7 3 1.5 3.2 3.9 5.9 5.8 8.8 1.7 2.6 4.8 3.6 7.5 4.8-2.7 0-5.5-.2-8-1-7-1.5-10.1-8.5-12.8-14.3z"/><path fill="#550102" stroke="#550102" stroke-width=".1" d="M416.4 113.5l1.6-3c.9 5.5.5 11.1.8 16.6 2.5.2 5 .1 7.4.7 2.7 3.8-.2 8.5-.6 12.6l-3.4 1-1.8.2v-1c.7-3.7 1.7-7.4 0-11h-6l-1.8-5.1 1.2-2.3a32 32 0 0 0 2.6-8.7z"/><path fill="#813c3c" stroke="#813c3c" stroke-width=".1" d="M192.7 112.5c5.8-1.5 12-1.3 17.7.9l1.8-.8 2.3 3v.1l-4.6.3-2-1.1c-4.7-2.4-10-2.2-15.2-2.4z"/><path fill="#472929" stroke="#472929" stroke-width=".1" d="M191.8 128c-.5-5.2-.7-10.5 1-15.5 5 .2 10.4 0 15.1 2.4l-1.8-.2-6-.2c-2 .3-5-.3-5.6 2-.6 3.4-.2 6.8-.2 10.1.2 1.3-.3 3.1 1.3 3.8 2 1.5 4.7.5 7 .7 1.7 0 3.4.2 5 .3-3.8 1.4-7.9 2-12 2.4-1.5-1.8-3.8-3.2-3.8-5.8z"/><path fill="#590302" stroke="#590302" stroke-width=".1" d="M101.9 113.3a43 43 0 0 1 16.9 13.6h-3.6c-2.7-1.2-5.8-2.2-7.5-4.8-1.9-3-4.3-5.6-5.8-8.8z"/><path fill="#510101" stroke="#510101" stroke-width=".1" d="M142.3 114.5c6.3 4.3 13.7 6.2 20.2 10 2.7 1.6 5.2 3.7 8.4 4.1l-.4 3.2-7.2-.3-1 3c-4.6-1.3-6.3-6.4-10.2-8.6a22.2 22.2 0 0 1-10.4-10.1l.6-1.3z"/><path fill="#a03733" stroke="#a03733" stroke-width=".1" d="M140.7 114.6l1 1.2 1.3 2.2c1.1 4.2 2.3 8.5 1.4 12.8l-2 2.8-.6-3c-.2-3.7-.2-7.5-1-11.2l-.1-4.8z"/><path fill="#3a0101" stroke="#3a0101" stroke-width=".1" d="M194.5 116.6c.7-2.4 3.7-1.8 5.6-2 2.6 3.7 1.9 8.3 1.2 12.5 2.2 1.3 4.3 2.8 6.4 4.3l-5-.3a15.4 15.4 0 0 0-8.4-4.5c0-3.3-.4-6.7.2-10z"/><path fill="#590000" stroke="#590000" stroke-width=".1" d="M200 114.5c2 0 4 0 6 .2.9 3.8.3 7.8.6 11.6 0 2.2 2 3.4 3.5 4.5l-2.4.6c-2-1.6-4.2-3-6.4-4.3.7-4.3 1.3-8.8-1.2-12.5z"/><path fill="#760304" stroke="#760304" stroke-width=".1" d="M206 114.7l1.9.2 2 1c2.5 2.3 5.7 1.6 8.4.3l-1 4.7-1 3.4c-1.4 2.3-3 4.5-4.5 6.7l-1.7-.2c-1.6-1.1-3.4-2.3-3.5-4.5-.3-3.8.3-7.8-.5-11.6z"/><path fill="#a54847" stroke="#a54847" stroke-width=".1" d="M355.3 123c0-2.3.9-4.3 1.9-6.3 2.2 4.8 5.4 9.3 9.8 12.4 2.6 1.7 5.9 2 8.2 4.2 1.6 4.3 6.6 3.1 10.2 3h.6c-3.2 1-6.6 1.2-10 1-2.4-.8-5-1.3-7.4-2.1-2.6-1.3-4.8-3.2-7.1-5-2.3-2-3.9-4.7-6.2-6.7v-.5z"/><path fill="#810101" stroke="#810101" stroke-width=".1" d="M143 118c2 3.7 5.6 5.8 9 8 4 2.1 5.7 7.2 10.2 8.5l-1.1 2.9c-5.7-.8-10.5-4-15.7-6l-.7 2.8-.3-3.4c.9-4.3-.3-8.6-1.4-12.8z"/><path fill="#3f3e3f" stroke="#3f3e3f" stroke-width=".1" d="M310.9 118.8c2.1-1 4.6-.5 7-.6A17 17 0 0 1 319 134c-.4-5 .7-10.8-3.1-14.9h-2.1c-.7 5.4-2.2 11.2-6.9 14.6-3.9 3.4-9.3 3.1-14.2 3-1-1.3-1.8-2.7-3-3.8l-1-.9 3.2.5 3.7-.2c3.3-.4 6.9-.9 9.2-3.5 3.1-2.6 4-6.7 6-10z"/><path fill="#c29090" stroke="#c29090" stroke-width=".1" d="M139 118.3l1.7 1.1c.9 3.7 1 7.5 1.1 11.3l-1.6 4.4a45 45 0 0 0-1.2-16.8z"/><path fill="#464545" stroke="#464545" stroke-width=".1" d="M315.9 119.2c3.8 4 2.7 9.9 3.1 14.9-1.6 3.4-5.3 5-7.3 8.1 2.3.8 4.8 1.4 7.2 1.3 7.1-.1 14.2 0 21.3-.2l-2 4.1c-7-.2-14.1 0-21.2-.3-5.3.2-10.6.2-16 .3l-.2 3 5.5.2.5.6 1.7 2.5a62 62 0 0 1-.4 3.3c-2.4-2.3-5.3-4-7.5-6.4-.6-1.7-.8-3.4-1-5.2l-3.8-1-1.4-.4c1.2-1 2.5-2 3.8-2.8 6.2-2 13.1-2.6 18.2-7.2.1-5-.1-9.8-.5-14.8z"/><path fill="#313030" stroke="#313030" stroke-width=".1" d="M412 118.7l1.8 3.5-1.2 2.3c-2.3 4-5 7.6-8.1 11-.9.8-2.3 2.8-.3 3.1 5.3 1.2 10.8 1 16.1 2v1l.1 1c-8.8.1-17.6-.5-26.4-1.8 2.7-2.6 5.6-5 8.3-7.5a44 44 0 0 0 9.8-14.6z"/><path fill="#868688" stroke="#868688" stroke-width=".1" d="M254.4 119.8c1.7 3.2 3.8 6.1 6.2 8.9-5.8-.6-11.7-1.8-17.5-1-3.3.4-6.6.8-9.9 1l1.2-.8c6.4-1.5 13-1.5 19.5-1.3.3-2.3.5-4.5.5-6.8z"/><path fill="#481d1c" stroke="#481d1c" stroke-width=".1" d="M217.4 120.9c2.5.4 5.1.7 7.3 2.2 1.4 1.5 3.2 2.9 5.3 1.9 6.4-1.9 13-2.2 19.5-3.7l2-.4.7 2.4c-3.3 1.3-6.8 1.2-10.3 1.3-4.3 0-8.4 1.7-12.4 3-4.6-.5-8.3-4-13.2-3.3.4-1.1.8-2.3 1-3.4z"/><path fill="#9a4b4a" stroke="#9a4b4a" stroke-width=".1" d="M216.3 124.3c4.8-.8 8.6 2.8 13.2 3.3 1.6.1 3.3.3 5 .3l-1.3.8-4.1 1.6c-2.8 0-5.8 0-7.9-2.2l.5-2.7h-2.5l-1.8 3.7-3.1 2.1-2.5-.2c1.5-2.3 3.1-4.4 4.5-6.7z"/><path fill="#570202" stroke="#570202" stroke-width=".1" d="M473.2 124.3l3.9.6 2.8 3.9c.6 1.4 1.2 3 2 4.4-4.8.7-3.2 5.7-2.2 8.9l-3.4.4-5-1.6c.2-2 .4-3.8.3-5.7-.6-1.5-1.8-2.6-2.8-3.8a443 443 0 0 1-6.5-.7l-.3-3c2.9.1 5.8.2 8.7.1l2.5-3.5z"/><g fill="#020000" stroke="#020000" stroke-width=".1"><path d="M404.5 135.5c3-3.4 5.9-7 8.1-11l1.8 5.1h6c1.7 3.6.7 7.3 0 11-5.4-1-10.9-.8-16.1-2-2-.3-.7-2.3.2-3.1zM433.4 143.4l2-1.5c4.5.6 9 .5 13.6.4 2.2.1 4.7-.2 6.7 1-.6 2.7-1.4 5.3-1.4 8.1 3 1.8 6.2 3.3 8.2 6.2l.1 3c0 8.3-.4 16.6 0 25 .4 4.3 6 6 5.8 10.4 0 4.7.6 9.7-1.2 14-2.3 2.3-5.6 3.2-8.3 4.8.4-1.9.3-4 1.2-5.7 1-.9 2.3-1.6 3.4-2.3-3.7-2.8-7.6-6-12.5-6.1-4-.1-8 0-12-.4.4-4.5.5-9.7 4.7-12.5 3.3 1 8 3 10.6-.5 1.4-4.6 1-9.6.7-14.3-.1-4-5-4.7-8-5.2l-2.8-.2c-4-.2-8.1-1-12.1-1.7 2.4-6.2 1-13 1.3-19.6v-2.9z"/></g><path fill="#1d0a09" stroke="#1d0a09" stroke-width=".1" d="M194.3 126.6c3.1.8 6.2 2 8.3 4.5-2.3-.2-5 .8-7-.7-1.5-.7-1-2.5-1.3-3.8z"/><path fill="#524f4f" stroke="#524f4f" stroke-width=".1" d="M63.9 130.7c1.5-3.3 5.6-1.9 8.5-2.1C76 134 79 140.4 83.9 145c3.6 2.8 6.7 6.4 11.2 7.7a29 29 0 0 0 21.9-2.8l4-.1c-6.6 8-18.6 9.4-27.9 5.9a43.7 43.7 0 0 1-19.6-19.1c-1.1-2-2.1-3.9-3.6-5.5-1.7-.3-4.2.8-3.7 2.9.2 4.4 1.6 8.7 2.5 13 1.1 4 1 9 5 11.4 1.2 1 2.2 2.4 3.7 3.1a72 72 0 0 0 30.5 3c5.4 0 10.3-2.7 15.6-3.4-9.5 6.2-21.2 5.7-32 5.5-2.7-.2-5.4.2-7.9-1-3.8-1.6-8-2.2-11.3-4.8-2.8-1.5-4-4.5-5.5-7l-.5 3.1c-.9-4.3-.5-8.7-1.7-12.9-1.3-4.3-1.7-8.9-.7-13.3z"/><path fill="#4a4a4a" stroke="#4a4a4a" stroke-width=".1" d="M120 128l3.1.6 1.9.6c1.5 7 .8 15-4 20.6h-4c1.5-3.6 4.8-6.6 4.6-10.8 0-3.5.6-7.2-1.3-10.4l-.2-.5z"/><path fill="#c49d9d" stroke="#c49d9d" stroke-width=".1" d="M219.8 134.7l1.4-6.6c2 2.2 5.2 2.2 7.9 2.2-3.2 1.3-6.3 2.9-9.3 4.4z"/><path fill="#631a1a" stroke="#631a1a" stroke-width=".1" d="M511.7 128.9l2.4-.6c0 4.2 0 8.4-.6 12.5l6.5.5 9.6 1 .8 1c-3 0-5.9 0-8.8.2-3.9-.3-7.7-.8-11.3-2.3 1.2-2.6 2.6-5.3 1.5-8.2v-4.1z"/><path fill="#8b6f6e" stroke="#8b6f6e" stroke-width=".1" d="M170.5 131.8c1.1-.8 2.3-1.6 3.3-2.5l.6 1h2l-1 4.2-2.4.4c-2.2 0-4.4-.2-6.7-.4l4.2-2.7z"/><path fill="#a28889" stroke="#a28889" stroke-width=".1" d="M214.3 131.2l3-2c-1 1.9-1.6 4.3-3.7 5.4-2.6 1.5-5.7 1.3-8.6 1.3-3.7 0-7.4.1-11-.4h2.4c3.9-.2 7.8 0 11.6-.4 2.7-.2 4.4-2.4 6.3-3.9z"/><path fill="#3e2727" stroke="#3e2727" stroke-width=".1" d="M479.9 128.8c5.7 5.6 10.6 13 19 14.8l-4.8.5c-4.9.7-9.8.3-14.7-.2l-1.8-.7-1.3-.7 3.4-.4c2.9-.1 5.7 0 8.6-.2-.8-3.8-4-6-6.5-8.7l-2-4.4z"/><path fill="#5e5e5e" stroke="#5e5e5e" stroke-width=".1" d="M140.2 135l1.6-4.3.6 2.9-2 9.2a38.9 38.9 0 0 1-17 18.3c-5.2.7-10 3.3-15.5 3.5a72 72 0 0 1-30.5-3c-1.5-.8-2.5-2.1-3.7-3.2 4.8 1.4 9.3 4 14.3 4a61.5 61.5 0 0 0 32.6-3c4.2-1.8 7.5-5 10.9-8 4.2-4.5 6.9-10.4 8.7-16.3z"/><path fill="#522727" stroke="#522727" stroke-width=".1" d="M142.4 133.6l2-2.8a97.4 97.4 0 0 0 .6 5.6l-2.5 6-1.2 2.6-.8-2.2c.5-3.1 1.2-6.2 2-9.2z"/><path fill="#4a0001" stroke="#4a0001" stroke-width=".1" d="M145.4 131.3c5.2 2.2 10 5.3 15.7 6 1 5.5 7.8 7.7 12.4 5.5l3.7.6-.6.5c-.8 3.2-.6 6.5-1 9.8-1 1.5-3 1.8-4.5 2.7l-1.7-3c-4.2 1.2-9.7 0-11.5-4.3-1-2-2-3.9-3.7-5.3-2.9-2.7-5.3-6-9.2-7.4l-.3-2.2.7-2.9z"/><path fill="#76282b" stroke="#76282b" stroke-width=".1" d="M163.3 131.5l7.2.3c-1.3 1-2.8 1.8-4.2 2.7 2.3.2 4.5.4 6.7.4-2.4.4-5 .4-7.4.5v3c8.6.3 17.2.2 25.7.3-4.4 1-9.1-.2-13.3 2l-4.5 2c-4.6 2.3-11.3 0-12.4-5.3l1.1-2.9 1.1-3z"/><path fill="#6c413f" stroke="#6c413f" stroke-width=".1" d="M207.7 131.4l2.4-.6a910.8 910.8 0 0 1 4.2.4c-2 1.5-3.7 3.7-6.3 3.9-3.8.5-7.7.2-11.6.3l-.8-1.6c4.1-.5 8.2-1 12-2.4z"/><path fill="#821818" stroke="#821818" stroke-width=".1" d="M428.6 140c.2-3.5.7-7 3.2-9.6l3 .7c-3 3.8-3.5 8.8-5.2 13.2a33.7 33.7 0 0 0-7.4-2.9l3.4-1 3-.5z"/><path fill="#581e1f" stroke="#581e1f" stroke-width=".1" d="M434.8 131l1 .3 3.3.8-3.5 3.2h-2.7a57 57 0 0 0 2.5 6.6l-2 1.5v3c-.6 0-1.9 0-2.5.2l-1.3-2.3c1.7-4.4 2.2-9.4 5.2-13.2z"/><path fill="#9c5051" stroke="#9c5051" stroke-width=".1" d="M275 132.4c4.9.2 9.8 0 14.7.6 1.2 1.1 2 2.5 3 3.8-6.1 0-12.3-1.4-17.7-4.4z"/><path fill="#170504" stroke="#170504" stroke-width=".1" d="M596.5 140.2c5-2.7 10.5-4.6 15.3-7.8-1.1 3-3.9 6-2.7 9.3-4.2.5-9.3 2-12.6-1.5z"/><path fill="#240203" stroke="#240203" stroke-width=".1" d="M479.7 142c-1-3-2.6-8 2.1-8.8 2.4 2.7 5.7 5 6.5 8.7-2.9.1-5.7 0-8.6.2z"/><path fill="#7e2e30" stroke="#7e2e30" stroke-width=".1" d="M506.7 140.2c3.4-.8 3.6-4.7 5.1-7.2 1.1 2.8-.3 5.6-1.5 8.2 3.6 1.5 7.4 2 11.3 2.3l-1.3.9c-4.6.1-9.1-.3-13.6.2v-4.4z"/><path fill="#9a9090" stroke="#9a9090" stroke-width=".1" d="M229.2 142.2c4.6-6 13.1-7.5 20.3-6.5 2.6.3 5.2.8 7 2.8-4.5-.4-8.9-2.8-13.5-1.9-4.7.7-9.7 2.1-12.5 6.2-3.4 4-4.8 10.9-.8 15l1.6 2-.8 3.3c-4.8-5.7-6-14.7-1.3-20.9z"/><path fill="#330001" stroke="#330001" stroke-width=".1" d="M145 136.4c3.9 1.3 6.3 4.8 9.3 7.4a15 15 0 0 1 3.6 5.3c1.8 4.3 7.3 5.5 11.5 4.3l1.7 3c1.5-.9 3.5-1.2 4.5-2.7.4-3.3.3-6.6 1-9.8l6.4.4c1.1 9.1-1 18.7-6.7 26a59 59 0 0 1-10.5 8.6c-4.4 1.8-9.1 3.8-14 3.3a92 92 0 0 0 6.4-3.8c-9-2-18.3-.5-27.3.7-3.6.5-7.3 1.3-10.2 3.5 5.6 2 11.7 1.6 17.6 1.8-9 3.4-19 1.6-28.4.7a37 37 0 0 1-14.1-7l-1.3-7.7c-1.3-1.1-2.8-2-3-3.8 10.8.2 22.5.7 32-5.5l2.3-1.2-1.6 5.8a48 48 0 0 0 12.2 9.8c4.3 0 10.3 0 12.4-4.7 3.8-8 3.4-17.5-.3-25.4-1-2.5-3.6-3.2-6-3l2.5-6z"/><path fill="#626262" stroke="#626262" stroke-width=".1" d="M230.5 142.8c2.8-4 7.8-5.5 12.5-6.2 4.6-1 9 1.5 13.5 1.9 4 3 7.7 6.4 10.1 10.8-.5.8-1.2 1.5-1.8 2.2A27.1 27.1 0 0 0 251 139c-5.7-1-12.2-1-17 3-4.7 3.6-5.7 10.7-3 16l-1.2-.2c-4-4-2.6-11 .8-15z"/><path fill="#b7a1a1" stroke="#b7a1a1" stroke-width=".1" d="M208 138.3h7c-1.6 1.8-3.2 3.7-4.7 5.8.2-2.3.2-4.8-2.3-5.8z"/><path fill="#443e3e" stroke="#443e3e" stroke-width=".1" d="M433.8 138.2c8 0 16 .4 24 .2l3.5 2.2 1.6 3.8-3 1.2 2.4 1-5.7.1-.2 3.8h5.3c.6 2.1 1.7 4 3 5.7l-2.2 1.4c-2-2.9-5.3-4.4-8.2-6.2 0-2.8.8-5.4 1.4-8-2-1.3-4.5-1-6.7-1-4.6 0-9.1 0-13.6-.5l-1.6-3.7z"/><path fill="#454344" stroke="#454344" stroke-width=".1" d="M558.2 142.9c-3.3-2.6-10.2 0-11.6-5.2 3.4.2 6.8.5 10.1.5l5.3 4c-.3.3-.6 1.1-.8 1.5-1.2 7.3-.6 14.7-.5 22h4l2-5.5 5-.4-3 7.9h-1.5c-2.4-.1-5 .2-7-1-2-2-3.2-4.8-3.4-7.6.5-5.4.8-10.8 1.4-16.2z"/><path fill="#8d6667" stroke="#8d6667" stroke-width=".1" d="M204 138.4h4c2.5 1 2.5 3.4 2.3 5.7-4.4 5.6-5 13-5 19.9l-1.8-2c-.6-1.1-1.3-2.3-.8-3.5.8-4.8 2.7-9.3 4-13.9.5-1.5-.8-2.8-1.4-4l-1.3-2.2z"/><path fill="#252222" stroke="#252222" stroke-width=".1" d="M234 141.8c4.7-3.8 11.2-4 17-3 6.1 2 10.6 7.3 13.8 12.7l-2-.2-1.7-2c-3-3.9-7-7.7-12-8.4-5-.7-10.8-.2-14.8 3.3-3.4 3.4-3.3 8.9-1.5 13l.5.7h-2.5c-2.6-5.3-1.6-12.4 3.2-16z"/><path fill="#8a8687" stroke="#8a8687" stroke-width=".1" d="M274.6 138.6c2.8 1 5.5 2 8.4 2.6l-.4.7c-1.5.4-3 .7-4.4 1.3-1.7 2-.8 4.8-.2 7 0 2-.3 3.8-.5 5.6l-2.9-17.2z"/><path fill="#6c3738" stroke="#6c3738" stroke-width=".1" d="M457.8 138.4l9.6-.2c.6 1.5.1 3.7 1.8 4.6 2.7 1 5.6.3 8.4.4l1.8.8c-5.5.6-11-.1-16.5.4l-1.6-3.8-3.5-2.2z"/><path fill="#583031" stroke="#583031" stroke-width=".1" d="M579 140.5c4.7 0 9.2-2.8 13.9-1.2l-2.8 2.2 3.6 2.7c-6.9.2-13.8.4-20.7.1-2.3 0-4.4-1.1-6.3-2.3 3.7-2.4 8.2-1.2 12.3-1.5z"/><path fill="#ad5d60" stroke="#ad5d60" stroke-width=".1" d="M365.8 139.7l2 .3c3.4.5 6.7 1.2 10 1.2l2.4 5.8a49.3 49.3 0 0 0-7.7 5.2l-1.1-2.7c2.6-1 5.8-2.4 5.2-5.7-3.6-.6-7.2-1-10.8-1.2v-2.9z"/><path fill="#4a2e2e" stroke="#4a2e2e" stroke-width=".1" d="M173.5 142.8l4.5-2.1c9 1.4 18.3.2 27.3-.1.6 1.2 1.9 2.5 1.4 4-1.3 4.7-3.2 9.1-4 13.9-.5 1.2.2 2.4.8 3.4h-1.2l-1.1-.2v-4.6c.7-4.5 2-9 3.6-13.2-1.8-1-3.7-1.6-5.8-1.5-7.2 0-14.6-.4-21.8 1l-3.7-.6z"/><path fill="#a16b6b" stroke="#a16b6b" stroke-width=".1" d="M283 141.2c5 .7 10.1.7 15.2 0l-3.8 2.8h-10.1l-1.8-2.1.5-.7z"/><path fill="#9a585a" stroke="#9a585a" stroke-width=".1" d="M420.4 141.6l1.8-.2c2.5.7 5 1.6 7.4 2.9l1.3 2.3h-.6l-1.8-.3c-4.5-1-9-1.6-13.6-1.9 1.9 0 3.8 0 5.7-.2l-.2-1.6v-1z"/><path fill="#080001" stroke="#080001" stroke-width=".1" d="M142.5 142.3c2.4 0 5 .6 6 3.1 3.7 8 4 17.4.3 25.4-2 4.6-8 4.6-12.4 4.7a48 48 0 0 1-12.2-9.8l1.6-5.8c6.5-4 11.5-10.2 14.7-17.1l.8 2.2 1.2-2.7z"/><path fill="#1c0305" stroke="#1c0305" stroke-width=".1" d="M177.2 143.4c7.2-1.4 14.6-1 21.9-1 2-.1 3.9.5 5.7 1.5a69.2 69.2 0 0 0-3.5 13.2c-2.6.7-5.8.7-7.5 3.1 2.4.6 5 1 7.4 1.5l-1.1.9c-3.8-.5-7.7-.6-11.5-1.2-1.5-.2-1.8-1.7-.9-2.7 3-.8 6.2-1.2 9.2-1.8 1.4-3.6 2.1-8 .7-11.5-4.3-2.7-9.8-.5-14.6-1.1l-6.4-.4.6-.5z"/><path fill="#4e4747" stroke="#4e4747" stroke-width=".1" d="M278.2 143.2c1.4-.6 2.9-.9 4.4-1.3l1.7 2-1.4.6c-2.6.9-3.5 3.3-3.4 5.9a80 80 0 0 1-1.5-.2c-.6-2.2-1.5-5 .2-7z"/><path fill="#403131" stroke="#403131" stroke-width=".1" d="M529.6 142.2l3.3-.3 2-.3c4.3.3 7 3.6 8.2 7.4-1.5 3.6-5 5.1-7.9 7.2a22.2 22.2 0 0 0-1.8 11.8l.3.8h-2.2c-.2-4.1-.6-8.4.7-12.3 1.6-2.5 4.1-4.2 6.2-6.2l1.3-.2.6-3.3c-2.3-.1-4.6-.3-7-.3l1.2-.2 4.6-.7a13 13 0 0 0-8.7-2.3l-.8-1z"/><path fill="#903f3e" stroke="#903f3e" stroke-width=".1" d="M340.2 143.3l2.1.5c.4 3.1.4 6.2.3 9.3-2.2.6-4.4 1-6.5 1.7l.8-2.3.8-1.4-3.8-.4 7.7-.3v-3h-3.4l2-4z"/><path fill="#972121" stroke="#972121" stroke-width=".1" d="M365.8 142.6c3.6.1 7.2.6 10.8 1.2.6 3.3-2.7 4.7-5.2 5.7l-1.7.2a99.7 99.7 0 0 0-3.9-7.1z"/><path fill="#614747" stroke="#614747" stroke-width=".1" d="M521.6 143.5l8.8-.2a13 13 0 0 1 8.7 2.3l-4.6.7a120 120 0 0 0-14.2-2l1.3-.8z"/><path fill="#852424" stroke="#852424" stroke-width=".1" d="M284.3 144h10l1.5.4-2.9 1.9-4.6.9-5.4-2.7 1.4-.5z"/><path fill="#765859" stroke="#765859" stroke-width=".1" d="M462.9 144.4c5.5-.5 11 .2 16.5-.5 4.9.5 9.8.8 14.7.2l2 2.8c-11.2-.5-22.5-.3-33.8-.3l-2.3-1 2.9-1.2z"/><path fill="#a06567" stroke="#a06567" stroke-width=".1" d="M499.3 146.7c2.5-.6 5-1.3 7.4-2.1 4.5-.5 9 0 13.6-.2 4.7.4 9.5.9 14.2 2h-1.2c-11.2.5-22.4 0-33.6.5l-.1 2.5c3.4.5 7.3.7 9.8 3.4 2 2 1.8 5 1.7 7.7-1-1.8-1.8-3.6-2.8-5.2a31.5 31.5 0 0 0-9.2-5.6l.2-3z"/><path fill="#2a0506" stroke="#2a0506" stroke-width=".1" d="M279.5 150.4c-.1-2.6.8-5 3.4-6 1.8 1 3.6 2 5.4 2.8l.3 3.4h-7.1l-2-.2z"/><path fill="#46191a" stroke="#46191a" stroke-width=".1" d="M295.8 144.4l3.8 1c.3 1.8.4 3.5 1 5.2 2.2 2.4 5.1 4 7.5 6.4l-1.8 1.2c-5.7-2.4-10-6.9-13.4-12l3-1.8z"/><path fill="#8c8585" stroke="#8c8585" stroke-width=".1" d="M428.5 146.3l1.8.2c.2 6.2.7 12.5-.5 18.6l-.8.3c0-6.4 1-12.9-.5-19.2z"/><path fill="#423a3a" stroke="#423a3a" stroke-width=".1" d="M430.9 146.6l2.5-.3c-.3 6.6 1 13.4-1.3 19.6l-1 .9-1.3-1.7c1.2-6.1.7-12.4.5-18.6h.6z"/><path fill="#1a0101" stroke="#1a0101" stroke-width=".1" d="M242.6 148.6a27 27 0 0 1 17.3 1.8l1.2-1 1.7 2c-8.5.5-16.5 3.3-24.2 6.5h-5.3l-.5-.7c1.9-.2 3.7-.3 5.5-.9 1.8-2.4 2.3-5.5 4.3-7.7z"/><path fill="#383332" stroke="#383332" stroke-width=".1" d="M640 147.8l.4 2.3c.2 4.6.2 9.3-.1 13.9-.7 2-2.1 3.6-3.6 5.1-3.3-.6-7.6-.3-9.3-3.8-1.3-2.4-2.6-4.7-4.2-6.9l-1.3-1.7 4 .4c1.4 1.8 2.9 3.5 4.4 5.1l.6 3.2 5.2-.1c3.8-5 2.4-11.7 4-17.5z"/><path fill="#a23d3e" stroke="#a23d3e" stroke-width=".1" d="M266.6 149.3c1.6 2.7 2.7 5.5 4 8.4 1.6 0 3.3-.2 5-.1l2.8.7c-3 .2-6 .4-9 .4l-3.2-.1-3-5.8 1.6-1.3c.6-.7 1.3-1.4 1.8-2.2z"/><path fill="#a23936" stroke="#a23936" stroke-width=".1" d="M278 150.3h1.5l2 .2a39 39 0 0 1-2.1 7.7h-1l-2.8-.6 2-1.8.4-5.6z"/><path fill="#777576" stroke="#777576" stroke-width=".1" d="M331.8 150.7h2c1.3 0 2.6.2 3.9.4l-.8 1.4-4.3 2.9-.1 6.7-2.2-.1c-.1-3.8-.2-7.8 1.5-11.3z"/><path fill="#252525" stroke="#252525" stroke-width=".1" d="M364.3 152.5a10 10 0 0 1 5.4-2.8l1.7-.2c-2.7 4.2-6.9 7-9.9 11-2.3 2.8-3.8 6-5.5 9.2l-2.5-.1c1.7-6.7 6-12.3 10.8-17.1z"/><path fill="#787473" stroke="#787473" stroke-width=".1" d="M371.4 149.5l1.1 2.7c-6 5-11.5 10.9-14.6 18l-2-.5c1.8-3.1 3.3-6.4 5.6-9.2 3-4 7.2-6.8 9.9-11z"/><path fill="#4d0103" stroke="#4d0103" stroke-width=".1" d="M262.8 151.3l2 .2-1.7 1.3c-4 2.4-9 2-13.4 3.8a24.5 24.5 0 0 1-11 1.3c7.7-3.3 15.6-6 24-6.6z"/><path fill="#3a3535" stroke="#3a3535" stroke-width=".1" d="M306.8 151.2l2.5.6c.5 1 1.1 2.1 1.3 3.3.5 10.7.6 21.3 1 32 1 3.2 2.4 6.4 2.2 10-.2 5 .3 10-.5 15-1 1.4-2.8 1.3-4.3 1.6l1.4-1.9c1.7-2.3 1.3-5.2 1.3-7.8 0-3.4.2-6.8-.2-10.1-1.8-2.7-4.1-5.1-5.6-8 0-2.5.2-5 .4-7.3.3-5.4 0-10.7.4-16l3.7.9c.2-3.4.2-7-1.9-9.8-.5-.9-1-1.7-1.7-2.5z"/><path fill="#a05758" stroke="#a05758" stroke-width=".1" d="M461.7 150.5c4.8.3 6.4 5.5 5.5 9.5l-.2 1-4.4-.4-.1-3 2.2-1.4a16.7 16.7 0 0 1-3-5.7z"/><path fill="#6a5c5d" stroke="#6a5c5d" stroke-width=".1" d="M486.5 154.1c.4-2.8 3.7-3.4 6-3.7l-.4 2.7-2.4 1a38.1 38.1 0 0 0-1 14l-1.8 1-1.1-.3c0-4.9.2-9.8.7-14.7z"/><path fill="#877173" stroke="#877173" stroke-width=".1" d="M530.3 153.3c1.2-3.2 5.2-3 8-3-2 2-4.5 3.7-6 6.2-1.4 4-1 8.2-.8 12.3h-2.1c0-5.2-.9-10.6.9-15.5z"/><path fill="#030101" stroke="#030101" stroke-width=".1" d="M390.6 157c2.7-4.1 8-5.2 12.5-5.5 3.3.6 6.7 2.4 8.2 5.6-6 4.6-14.2 2.3-20.7-.2z"/><path fill="#860a0a" stroke="#860a0a" stroke-width=".1" d="M413.2 152.3c1.6 1.7 2.8 3.6 4 5.6-.8 1.2-1.7 2.3-2.8 3.3-5.4 1-10.8 3-16.3 2-4-.7-8.3-1.1-12.1-2.6l-2.4-.9-1.4-.2a113.9 113.9 0 0 1 5.4-6.2l3 3.6c6.5 2.4 14.6 4.8 20.7.2l3-2.8-1.1-2z"/><path fill="#311819" stroke="#311819" stroke-width=".1" d="M492.1 153c6.3-3.1 14.5.5 16.4 7.4 0 2.5 0 5-.3 7.6l-1.8.2c0-2.3.2-4.8-.4-7a20.5 20.5 0 0 0-9-6.4c-2 0-3.8 1.1-5.6 1.8l2.2 2.7c-3 2.2-3.2 5.8-2.8 9.2l-1.7.5h-.4v-.9c-.4-4.7-.4-9.5 1-14l2.4-1z"/><path fill="#833e40" stroke="#833e40" stroke-width=".1" d="M572.8 153.7c3.7-1.7 7.9-1.2 11.9-1.3.7 10.7.8 21.5.5 32.3l-.2 1.6c-2.6-8.4-.8-17.2-1-25.8l-4-.6a30 30 0 0 0-8.3-.1l-5 .4c1.5-2.6 3.4-5.1 6-6.5z"/><path fill="#998586" stroke="#998586" stroke-width=".1" d="M606.8 151.8c6.5.1 13.7-.9 19.4 2.9 2.7 1.5 3.6 4.7 4.1 7.5l-4.4-5c-3-4-8.4-4.2-12.8-3.9-2.6 0-4.3 2.5-4.9 4.8-.8 3.6-.5 7.3-.4 11v6c0 11.4-.3 22.7.2 34 0 4.3 4.6 6.4 8.4 6h2.9l-.8 5.5c-11 1.8-22 1.1-33 .3l1.3-.4c10.4-.5 21 0 31.4-.4l-.2-4c-3.6 0-7.2-.3-10.6-1.5-1-6.5-.6-13.1-.6-19.6v-43.2z"/><path fill="#870202" stroke="#870202" stroke-width=".1" d="M249.7 156.6c4.3-1.8 9.3-1.4 13.4-3.8l3 5.8c-5.4 1-11.3 3.6-13.3 9.1-.8 1.3.6 2.3 1.1 3.3l.3 2.6c-3.4-2.1-7.1-3.5-10.8-5.1l-2.7-1.2 3-.5 2-.3 4.2-5.5c-5.1-.8-10.3-1-15.4-.4l-2 .8-1.2-1.6-1.6-2h1.1l2.5.1h5.3c3.8.2 7.6.2 11.1-1.3z"/><path fill="#2f2b2d" stroke="#2f2b2d" stroke-width=".1" d="M332.6 155.4l4.3-2.9-.8 2.3c-1 1-2 2-2.8 3.1-.7 1.7 1.5 2.1 2.4 3-1.6 2.6-.8 5.8-1 8.7h-1.9a34 34 0 0 1-.3-7.5v-6.7z"/><path fill="#8b0a0a" stroke="#8b0a0a" stroke-width=".1" d="M336 154.8l6.6-1.7c.5 4.3-4 5.9-6.9 7.8-.9-.9-3.1-1.3-2.4-3l2.8-3.1z"/><path fill="#674241" stroke="#674241" stroke-width=".1" d="M608.2 158c.6-2.2 2.3-4.6 4.9-4.7 4.4-.3 9.8 0 12.8 3.8a169 169 0 0 1-4-.4c-3-.2-6.4-1.9-9.3-.1-1.4.8-1.6 2.5-2.1 3.8-.1 2.6-.1 5.3.1 7.8l.3 1.2h-.6l-2.5-.4c0-3.6-.4-7.3.4-11z"/><path fill="#923c3b" stroke="#923c3b" stroke-width=".1" d="M308.5 153.7c2 2.8 2.1 6.4 2 9.8l-3.8-1-.1-1.7-.3-2.7 1.8-1.1.4-3.3z"/><path fill="#565655" stroke="#565655" stroke-width=".1" d="M508.3 155.3c1 1.6 1.9 3.4 2.8 5.2l.1.6c.2 4.8 0 9.6 0 14.5-1.3 1.8-2.7 4-5.1 4 3-2.8 6.2-8 2.1-11.4v-.2a70.3 70.3 0 0 0 0-12.7z"/><path fill="#390e10" stroke="#390e10" stroke-width=".1" d="M612.6 156.6c2.9-1.8 6.2 0 9.3.1l1.3 1.8c-4.3.4-8.5 1.4-12.7 2 .5-1.4.8-3.1 2.1-4z"/><path fill="#430605" stroke="#430605" stroke-width=".1" d="M193.8 160.2c1.7-2.4 4.9-2.4 7.5-3l-.1 4.5c-2.5-.4-5-1-7.4-1.5z"/><path fill="#282423" stroke="#282423" stroke-width=".1" d="M278.4 158.3h1v1.3l-2 1c-3.2 2.3-6.8 1-10-.3l2-1.6c3 0 6-.2 9-.4z"/><path fill="#310100" stroke="#310100" stroke-width=".1" d="M279.4 158.2h2.4a35.5 35.5 0 0 1 18.2 20.2c1.6-.1 4-.4 4.1-2.5 0-4-1.2-8-1.9-12l4.6-1.3c-.4 5.3-.2 10.6-.5 16-3 1-6.1 2.4-9.4 3-2-.3-2.3-2.8-3.2-4.2a37 37 0 0 0-10.8-14.2c-1.6-1.4-3.6-2-5.6-2.6l2.1-1v-1.4z"/><path fill="#690201" stroke="#690201" stroke-width=".1" d="M281.8 158.2c2 0 4.2-.2 6 1 5 2.8 8.2 7.7 12 11.9l.2-8.9 6.6-1.4.1 1.8-4.5 1.3c.7 4 2 8 2 12-.2 2.1-2.6 2.4-4.2 2.5a35.5 35.5 0 0 0-18.2-20.2z"/><path fill="#524c4e" stroke="#524c4e" stroke-width=".1" d="M417.1 158c1.7 2.6 3 5.5 3.9 8.5a365.2 365.2 0 0 1-4.4 0v-1.6l-2.2-3.7c1-1 2-2 2.7-3.3z"/><g fill="#500101" stroke="#500101" stroke-width=".1"><path d="M252.8 167.7c2-5.5 7.9-8.1 13.4-9.1l3.3.1-2 1.6c-5.5 2-8.6 7.3-8.2 13-1.7-.9-3.6-1.6-5.4-2.3-.5-1-2-2-1.1-3.3zM439 200.3c4 .4 8 .3 12 .4 4.9 0 8.8 3.3 12.5 6-1.1.8-2.3 1.5-3.4 2.4-.9 1.8-.9 3.8-1.2 5.7-.2 2.4-.4 4.8-.8 7.2a74.2 74.2 0 0 0-1.3 17.6c-2.5 1-5 2.3-7.6 2.9-3.7-2.5-9.3-5.2-9-10.4-.4-5.3 1.1-10.7-.5-15.9l-.7-6.4c2.4.5 5.3 1.2 6.5 3.6.8 6.2-.4 12.4.4 18.6.5 2 3.3 3.4 4.9 1.9 1-2.2.6-4.6.7-6.8-.3-6.4.1-12.8-.2-19.2a3 3 0 0 0-2.4-3c-2.9-.5-5.8-.3-8.7-.2l-1.4-3 .2-1.4z"/></g><path fill="#847070" stroke="#847070" stroke-width=".1" d="M231.3 159.8l1.2 1.5c2 2.9 5.1 4.6 8.2 6l2.7 1.2-3.7 1.2c-3.3-1.9-6.3-4.1-9.2-6.6l.8-3.3z"/><path fill="#4f2b2b" stroke="#4f2b2b" stroke-width=".1" d="M232.5 161.3a20 20 0 0 1 2-.7c2.7 2.6 6 4.2 9.2 6.2l-3 .5c-3-1.4-6.2-3.1-8.2-6z"/><path fill="#470000" stroke="#470000" stroke-width=".1" d="M234.5 160.6c5.1-.7 10.3-.4 15.4.4l-4.2 5.5-2 .3c-3.1-2-6.5-3.6-9.2-6.2z"/><g fill="#727272" stroke="#727272" stroke-width=".1"><path d="M376.6 175c1.3-5.3 1.7-11.3 5.6-15.5l1.4.2c-5.1 11-8.1 24-3.7 35.6l.4 3.1-2.2-1.4c-2-7.2-3.6-14.7-1.5-22zM467.6 187.2l5.7.1c-.4 8.5.7 17.2-.7 25.6-1.1 5-6.9 4.2-10.7 4.6 3.2-2 7.6-3.2 8.6-7.3 1.3-4.6 1-9.5.9-14.3 0-3.3-2-6-3.8-8.7z"/></g><path fill="#2c2b2c" stroke="#2c2b2c" stroke-width=".1" d="M383.6 159.7l2.4.9c-2.6 2.5-4 5.8-4.3 9.3-.6 6.2-1.7 12.4-.6 18.6.3 2.2.3 4.4.3 6.7v1.2l-1.5-1c-4.4-11.8-1.4-24.7 3.7-35.7z"/><path fill="#050000" stroke="#050000" stroke-width=".1" d="M571.7 159.8a30 30 0 0 1 8.2.1l1.7 1.3v6.2l-1.7.3c-3.8.2-7.5 0-11.2 0l3-8z"/><path fill="#533536" stroke="#533536" stroke-width=".1" d="M580 160l4 .5c.2 8.6-1.6 17.4 1 25.8l.1.3c3 1.3 6.6 2.7 7 6.4.5 5 .3 10 .2 15.1 0 4.1-4.1 6-6.7 8.4-1 0-2.1 0-3.2.2l-.3 3.8-1 .1c.1-1.9.2-3.8.8-5.6 2.8-1.8 7.2-2.3 8-6.2.3-4.6-.7-9.2-.5-13.8.4-4.6-5.6-5.5-6.8-9.4-1-3.3-1.1-6.8-1.9-10.1-.4-2.6-1.4-5.1-.8-7.8l1.7-.3v-6.2l-1.7-1.3z"/><path fill="#2f2a29" stroke="#2f2a29" stroke-width=".1" d="M462.6 160.6l4.4.5c-.5 8.7 0 17.4.6 26.1 1.8 2.7 3.8 5.4 3.8 8.8.1 4.7.4 9.6-.9 14.2-1 4-5.4 5.3-8.6 7.3l-.3 2.7v1.3c2 1 4 2 6.3 2 6.6.2 13.1-.3 19.7.3.7.4 2 1.2 2.8 1.5l-2 .1-3.1.2c-7.7-.2-15.5 0-23.2-.2l-4-3.4c.4-2.4.6-4.8.8-7.2 2.7-1.6 6-2.5 8.3-4.7 1.8-4.4 1.3-9.4 1.2-14.1.2-4.4-5.4-6.1-5.7-10.5-.5-8.3-.1-16.6 0-25z"/><path fill="#595555" stroke="#595555" stroke-width=".1" d="M202.3 161.8l1.2.1 1.8 2.1c.8 5 1.9 10.3 5.2 14.4 2.7 3.2 5.8 6 9.6 7.6 8.4 1.6 17.8-1.9 25.5 3l-16.8.6c-3.5 0-7.1.3-10.5-1a28.2 28.2 0 0 1-16-26.8z"/><path fill="#5d5d5d" stroke="#5d5d5d" stroke-width=".1" d="M330.3 162l2.2.1a34 34 0 0 0 1 11.2c-.1 11.9-.2 23.8 0 35.8-.2 4.7 5.8 5.4 9 7.6v3.7l-.4.2c-1.7.7-3.4 1.7-5.2 2-8 .6-16-.6-23.9.7l-1 .1-1-3.2c10.2.2 20.3.2 30.5-.2v-3c-3.8-.3-9.5.8-11-4-.4-17 .1-34-.2-51z"/><path fill="#3c0101" stroke="#3c0101" stroke-width=".1" d="M401.4 168.6c5-1.9 10.2-2.4 15.2-3.7v1.5c-4.2 1.1-8.4 2-12.2 4a58.2 58.2 0 0 0-23 24.8c0-2.3 0-4.5-.3-6.7a64.4 64.4 0 0 1 20.3-20z"/><path fill="#a35857" stroke="#a35857" stroke-width=".1" d="M421 166.5c2.7.4 5.4-.4 8-1.2l.8-.2 1.3 1.7c-3.7 3.5-10 3.6-13.4-.5l3.3.2z"/><g fill="#440101" stroke="#440101" stroke-width=".1"><path d="M627.4 165.3c1.7 3.5 6 3.2 9.3 3.8 5.7.9 11.7 0 17 2.7-.8 1-1.6 2.3-2.6 3.3-5.3.8-10.8.3-16 2-1.9.3-1.6 2.5-2.2 3.9-.4 3.1-4 3.9-5.8 6-.5 6.5.1 13 .4 19.3.4 3.6-3.7 5.2-4.6 8.4-3-3-7.2-4.1-11-5.6 0-11.5-.2-23 0-34.5l.7-1.3c7.8-.5 16.3 3.3 23.4-1.3-1.3-.7-2.5-1.7-4-1.9-7-.9-14.1 0-21.1-.7l-.3-1.2c5.3 0 10.6 0 15.8-.6l1-2.3zM501.3 223.7c3.8.5 7.6 1.3 11.5.9l-.4.8c-2 .7-4.2 2-3.7 4.5 1.3 5.5 6.6 8.8 10.2 12.7-5.7 0-11.5.6-17.2-.3-4.7-1.7-8.7-4.7-13-7-2.4-1-.6-3.3-.3-5 .8-1.5.3-3.3 0-4.9h2c3.8.6 7.3-.8 10.9-1.8m-5.6 8.3c3.2 4.4 8.8 7.5 14.3 5.9-1.9-2.4-3.9-5-6.8-6.1-2.4-1-5.7-2.6-7.5.2z"/></g><path fill="#890202" stroke="#890202" stroke-width=".1" d="M404.4 170.3c3.8-1.9 8-2.8 12.2-3.9h1c3.5 4 9.8 3.9 13.5.4l1-.9c4 .8 8 1.5 12.1 1.7 3 4.5 1.6 10.3 1.3 15.4a25.5 25.5 0 0 0-29.3-12.7c-3.5 1.2-6 4-9 6.3-2 .9-5 1-6.2 3.4-1.1 1.8-.6 4-.6 6l.2 2c-3.1 8.2-4.5 18.2-.2 26.2l.3.8c-3.6-1.4-7.5-2.6-10.3-5.3-4.2-3.6-6.4-8.6-9-13.3v-1.2a58.2 58.2 0 0 1 23-24.8z"/><path fill="#650101" stroke="#650101" stroke-width=".1" d="M444.2 167.6l2.8.2 2.2 2.3c0 5.3.1 10.5-.3 15.8l-4.7-.2 1.3-2.7c.3-5.1 1.7-10.9-1.3-15.4z"/><path fill="#3d0001" stroke="#3d0001" stroke-width=".1" d="M447 167.8c3 .5 7.9 1.1 8 5.2.2 4.7.7 9.7-.7 14.3-2.5 3.5-7.3 1.5-10.6.5l-.4-2.1h.9l4.8.2c.3-5.3.3-10.5.2-15.8l-2.2-2.3z"/><path fill="#864747" stroke="#864747" stroke-width=".1" d="M486.9 169l1.8-.9v.9c.3 2.4 0 5 1 7.2 3.2 3 7.7 2 11.6 1.8 2-.5 4.7.2 6-1.8.5-2.6.6-5.3 1-8 4 3.4.8 8.6-2.2 11.5-5.4-.5-11.1.8-16.3-1.2-4-1.4-2.5-6.2-3-9.4z"/><path fill="#531112" stroke="#531112" stroke-width=".1" d="M489.1 169c.4 0 1.3-.3 1.7-.5 5.2-.4 10.4.2 15.6-.3l1.8-.2v.2c-.3 2.7-.4 5.4-1 8-1.2 2-4 1.3-6 1.8l-1.3-2.1c2.1-.1 4.3-.2 6.4-.7l.5-3.3c-.1-.3-.3-1-.5-1.2-5-1-10.2-.6-15.4-1.1l-1.8-.6z"/><g fill="#390101" stroke="#390101" stroke-width=".1"><path d="M533.5 168c8.2-.6 16.4 1 24.6 1.5 3.2.1 6.5.2 9.1-1.8h1.5c3.7 0 7.4.2 11.2 0-.6 2.7.4 5.2.8 7.8l-.3 1.6c-1.8-1.3-3.7-2.8-6-2.6-6.6 0-13.7-3.7-19.8 0-2.6 1.2-2.8 4.1-2.7 6.6 0 16.3.2 32.6 0 49-.4 4.2 2.6 8 6.7 8.8l1.2.4.3.4 1.7 3c-7 0-15 1.9-21.2-2.3-4.4-2.3-9.3-3.5-13.5-6 .7-2.1 1.6-4.2 1.9-6.3-.3-2-2.6-1.8-4-2.4l-3.2-1c5.4-.4 10.9.1 16.3-.5l1-2.9c-3-.4-6.1-.7-9.3-.7l10.8-.1v-3.9h-1.4c-.2-2-1.6-3-3.2-3.8l-1-2c2.7.6 5.5 2 8.4 1.7 2.9-.8 2.6-4.1 2.7-6.5l-.1-25c.1-2.4 0-5.3 1.8-7.2 2.5-1.1 5.1-1.8 7.6-2.7-7-2-14.4-2-21.7-2.3l-.3-.8m1.5 63.1c.5 1.7 1 3.7 3 4 5.5 2 11 6.3 17.1 4.5-5.5-5-12.4-9.3-20-8.5zM284 192.9c4 2.6 8.1 5.4 12.7 7.5 5.5 2.5 9.4 7.3 13.7 11.4l-1.4 1.9-2.6.4c-3-2.2-5.4-5-8.2-7.3-3.6-2.6-7.9-4.2-11.4-7a86 86 0 0 0-2.9-7z"/></g><path fill="#a76767" stroke="#a76767" stroke-width=".1" d="M239.7 169.7l3.7-1.2c3.7 1.6 7.4 3 10.8 5.1 2 1.3 4.1 2.6 6.3 3.7l.6 1.7c-7-3.3-14.6-5.3-21.4-9.3z"/><path fill="#a48585" stroke="#a48585" stroke-width=".1" d="M485.8 168.8l1 .3c.5 3.2-1 8 3 9.4 5.2 2 10.9.7 16.3 1.2 2.4-.1 3.8-2.3 5-4.1l.4 5.6h-25.7V169z"/><path fill="#832222" stroke="#832222" stroke-width=".1" d="M488.7 169h.4l1.8.6.3 6.3h8.7l1.4 2c-3.9.3-8.4 1.2-11.6-1.7-1-2.2-.7-4.8-1-7.2z"/><path fill="#834847" stroke="#834847" stroke-width=".1" d="M529.4 168.7h2.1l2.2.1v1l-.2 5.2c.3 12-1.2 24 1.5 35.8l1 2c1.6.7 3 1.9 3.2 3.8-3 .3-5.8-.3-8.4-1.4-.6-2.7-1.3-5.4-1.3-8.2-.2-12.7 0-25.5-.1-38.3z"/><path fill="#520100" stroke="#520100" stroke-width=".1" d="M533.7 168.8c7.3.3 14.7.2 21.7 2.3-2.5 1-5.1 1.6-7.6 2.7-1.9 1.9-1.7 4.8-1.8 7.2v25c0 2.4.3 5.7-2.6 6.5-2.9.3-5.7-1-8.4-1.7-2.7-11.7-1.2-23.8-1.5-35.8 3.9-1 7.8-2.3 11.4-4.1a34.8 34.8 0 0 0-11.3-1.1v-1z"/><path fill="#9c4d4d" stroke="#9c4d4d" stroke-width=".1" d="M607.8 169l2.5.3v4.6l-2.5 1.3V169z"/><path fill="#880203" stroke="#880203" stroke-width=".1" d="M610.3 169.3l.6.1c7 .7 14.1-.2 21.1.7 1.5.2 2.7 1.2 4 1.9-7 4.6-15.6.8-23.4 1.3l-.6 1.3-1.9 1.5.2-2.2v-4.6z"/><path fill="#a33b3c" stroke="#a33b3c" stroke-width=".1" d="M353 169.6h3l1.9.7a24 24 0 0 0-1.4 16.8l.1.9a19 19 0 0 1-1 3.3c-1.9-1.6-4-3.5-4.1-6.2-1.6-5.3.4-10.5 1.5-15.5z"/><path fill="#3f0809" stroke="#3f0809" stroke-width=".1" d="M416.2 170.2c8.5-2.2 18 0 24.3 6.2l-3.2 1.2H416c-3 .2-5.9-.3-8.7-1 2.9-2.2 5.4-5.1 9-6.4m-3.3 5.6c6.6 1 13.3.7 20 .4 2.4-2-2-4.6-4-5-5.6-.2-12.4-.2-16 4.6z"/><path fill="#860102" stroke="#860102" stroke-width=".1" d="M491 169.6c5 .5 10.3 0 15.3 1l.5 1.3c-3.4 0-7 .7-8.5 4h-7.1l-.3-6.3z"/><path fill="#810102" stroke="#810102" stroke-width=".1" d="M533.6 169.8c3.8 0 7.6-.1 11.3 1-3.6 2-7.5 3.1-11.4 4.2l.1-5.2z"/><path fill="#602f30" stroke="#602f30" stroke-width=".1" d="M254 171c1.7.7 3.6 1.4 5.3 2.3l1.4.7 2.3 4-2.5-.7a78.5 78.5 0 0 1-6.3-3.7l-.3-2.6z"/><path fill="#040201" stroke="#040201" stroke-width=".1" d="M413 175.8c3.6-4.8 10.4-4.8 16-4.6 2 .4 6.4 3 4 5-6.7.3-13.4.7-20-.4z"/><path fill="#550303" stroke="#550303" stroke-width=".1" d="M498.3 176c1.6-3.4 5.1-4.2 8.5-4l-.5 3.2c-2.1.5-4.3.6-6.4.7h-1.6z"/><path fill="#1d0100" stroke="#1d0100" stroke-width=".1" d="M554.6 174.5c6.1-3.7 13.2 0 19.7 0 2.4-.2 4.3 1.3 6.1 2.6a42 42 0 0 0 0 8.8c-2.4-1-4.8-2-7-3.3-2.4.4-4.8 1.2-7.2 1-2.2-1.5-1.7-4.8-1.7-7.3-1-1.8-3.5-.8-5.2-1.1-1.8 5-1 10.5-1.1 15.8l-.1 41c0 2.3.2 4.6.5 7a8.3 8.3 0 0 1-6.6-9c.1-16.3-.1-32.6-.1-49 0-2.4.1-5.3 2.7-6.5z"/><path fill="#382c2c" stroke="#382c2c" stroke-width=".1" d="M260.7 174c9 4.6 18.1 9.8 23.2 18.9a86 86 0 0 1 3 7l.3 1-2.5-1c-.5-1.3-1.1-2.7-1.8-4a43 43 0 0 0-20-17.9l-2.2-4z"/><path fill="#1b0a0b" stroke="#1b0a0b" stroke-width=".1" d="M333.4 173.3c2 .4 4.7 1 4.8 3.6.6 10-.2 20.2.3 30.3 1.6.4 3.7.3 4.8 1.7.4 2.7 0 5.4-.3 8.1l-.5-.3c-3.2-2.2-9.2-2.9-9-7.6-.2-12-.1-24 0-35.8z"/><path fill="#7a4f4f" stroke="#7a4f4f" stroke-width=".1" d="M607.8 175.2l2.5-1.3-.2 2.2c-.6 5.6-.4 11.2-.4 16.8 0 6.2-.4 12.4.7 18.5 2 1.1 4.1 2.3 6 3.7-3.8.4-8.3-1.7-8.4-6-.5-11.3-.1-22.6-.2-34z"/><path fill="#5a2323" stroke="#5a2323" stroke-width=".1" d="M610.1 176.1l1.9-1.5c-.3 11.5-.1 23-.2 34.5.9 3.6 5.7 3.1 7.5 6h-2.9c-1.9-1.4-4-2.6-6-3.7-1.1-6-.7-12.3-.7-18.5 0-5.6-.2-11.2.4-16.8z"/><path fill="#201f1e" stroke="#201f1e" stroke-width=".1" d="M580.4 177.1l.3-1.6c.8 3.3.8 6.8 1.9 10 1.2 4 7.2 4.9 6.8 9.5-.2 4.6.8 9.2.4 13.8-.7 3.9-5 4.4-8 6.2-.5 1.8-.6 3.7-.8 5.6h1.1l4.7-.1-1.3.4-2 .7c3.9 2.3 8.5 1.8 12.7 2.1l-3 .5 4.1 1.6h-6.2c-4-.2-8.9.3-12-2.8a10 10 0 0 1 .5-9.4c2.5-2.5 8-1.3 8.8-5.5.2-4.3-.3-8.7-.5-13-.5-4.4-6.6-5-7.5-9.2a42 42 0 0 1 0-8.8z"/><path fill="#5d0303" stroke="#5d0303" stroke-width=".1" d="M131 179c9-1 18.2-2.5 27.2-.6a92 92 0 0 1-6.4 3.8c-4.4 1.4-9 1.7-13.5 2.2-5.9-.2-12 .2-17.6-1.8 3-2.2 6.6-3 10.2-3.5m12.2-.2c-4.4.7-9 .6-13.3 2.3 1.4.6 2.7 1.5 4.2 1.5 6 .5 12.4-.2 17.8-3.3-2.9-.6-5.8-1-8.7-.5z"/><path fill="#7b383a" stroke="#7b383a" stroke-width=".1" d="M401 180c1.2-2.3 4.1-2.5 6.3-3.4 2.8.7 5.7 1.2 8.7 1h21.3l-1.3.4c-7.3-.3-14.7-.5-22-.1-3 .1-5.6 1.6-8.3 2.9l-3.2.6c0 1.2 0 2.3.2 3.5l-2.3 1c0-2-.5-4.1.6-6z"/><path fill="#752a2b" stroke="#752a2b" stroke-width=".1" d="M437.3 177.6l3.2-1.2a20 20 0 0 1 5 6.6l-1.3 2.7h-.9l-2.6-.1.1-.8v-3.4l-1.6-.5-3.2-2.9 1.3-.4z"/><path fill="#820304" stroke="#820304" stroke-width=".1" d="M143 179c3-.6 6-.2 8.8.4-5.4 3-11.7 3.8-17.8 3.3-1.5 0-2.8-.9-4.2-1.5 4.3-1.7 8.8-1.6 13.3-2.3z"/><path fill="#777171" stroke="#777171" stroke-width=".1" d="M260.5 177.3l2.5.7a43 43 0 0 1 20 17.8l-2 1.4c-3.4-8.9-12-13.9-19.9-18.2l-.6-1.7z"/><path fill="#595a5a" stroke="#595a5a" stroke-width=".1" d="M405.7 180.8c2.7-1.3 5.3-2.8 8.3-3 7.3-.3 14.7 0 22 .2 1 1 2.1 2 3.3 2.9-11.2-.2-22.4 0-33.6-.1z"/><path fill="#302626" stroke="#302626" stroke-width=".1" d="M400.4 186l2.3-1.1c3.2 3.8 8.7 3.2 12.8 5.6 3 2.7 1.8 7 2 10.6-.3 4.2.5 8.9-1.6 12.8-3.7 3.7-9.7 3.3-14 1l-.3-1.5c4.6 1.3 9.6 1.6 13.8-1 0-6.3.6-12.7 0-19-2.2-3.8-7.5-3.6-11.4-4.3l-3.4-1.2-.2-2z"/><g fill="#5c5c5c" stroke="#5c5c5c" stroke-width=".1"><path d="M402.7 184.9c5.9-.6 11.3 2.7 17.1 3.4 1.2 2.6 0 5.8 0 8.7-.7 6.6 1 13.7-1.4 20-5 3-10.8 3-16.2 1.8l-.5-1.2-1-2.6-.3-.8 1.5.7c4.3 2.3 10.3 2.7 14-1 2.1-3.9 1.3-8.6 1.6-12.8-.2-3.6 1-8-2-10.6-4-2.4-9.6-1.8-12.8-5.6zM311.5 187.1l5.2.3c-.1 8.2 0 16.4 0 24.6.2 1.8-1 3.2-1.9 4.6l-8.4.8-.2-.7-.6-2.2.8-.4 2.6-.4c1.5-.3 3.4-.2 4.3-1.7.8-5 .3-10 .5-15 .2-3.5-1.1-6.7-2.3-9.9z"/></g><path fill="#6f6565" stroke="#6f6565" stroke-width=".1" d="M435 190c0-3.3 3.3-4.3 5.8-5.2l-.1.8c-1.1 1.8-2.6 3.5-3.3 5.6-.9 3-.7 6-.8 9.2-.4 2.9-2.4 7 1 8.9v.2c-.7 3-.7 6.5-3 8.9.1-9.5-.5-19 .3-28.4z"/><path fill="#2b2827" stroke="#2b2827" stroke-width=".1" d="M440.7 185.6l2.6.1.4 2.1c-4.2 2.8-4.3 8-4.7 12.5l-.2 1.4-.2 1.4-2-2.7c.1-3.1 0-6.3.8-9.3.7-2 2.2-3.7 3.3-5.5z"/><path fill="#8e8282" stroke="#8e8282" stroke-width=".1" d="M585.2 184.7l.7 2 7.7-.1c-.1 8.5.3 17-.2 25.4-.2 3.9-4.8 4.4-7.8 4.5 2.5-2.4 6.7-4.3 6.7-8.4.1-5 .3-10-.2-15.1-.4-3.7-4-5-7-6.4V184.7z"/><path fill="gray" stroke="gray" stroke-width=".1" d="M356.5 187.2l9.8.3c.3 3.4 1 6.7 1.7 10 0 1.6 0 3.5-1.2 4.7-1.3-3.7-.4-8.3-3.4-11.4-1.4-.2-2.5-1-3.5-2l-3.3-.8-.1-.8z"/><path fill="#847b7b" stroke="#847b7b" stroke-width=".1" d="M485.8 186.6c10.2.8 20.5 0 30.8.2v22.3c0 2 0 4.3-1.6 5.9-2.1 2.3-5.6 1.5-8.4 1.6 2-1.3 4-2.8 5.8-4.4l1.3-1.3c1-3.5.8-7.2.9-10.7-.1-3.7.8-8-2.2-10.8a59.7 59.7 0 0 0-22.9-1.1l-.9 2c-1.7 5.7-1 11.8-.8 17.7-.2 4.2 3.9 6.2 6.6 8.5-3.3.2-7.6-.7-8.1-4.5-1-8.4-.4-17-.5-25.4z"/><path fill="#864d4d" stroke="#864d4d" stroke-width=".1" d="M489.5 188.3c7.6-1.3 15.4-.6 22.9 1l-6.4.4c-5.8 0-11.6.5-17.4.6l1-2z"/><path fill="#531d1d" stroke="#531d1d" stroke-width=".1" d="M228.8 189.6l16.8-.5 1.1.6-4.7.3 1 2-1.3-.1-4-.2c-2.5 0-5-.2-7.6-.6l-1.3-1.5z"/><path fill="#ac5253" stroke="#ac5253" stroke-width=".1" d="M242 190c1.6 0 3.2-.2 4.7-.3a79.8 79.8 0 0 1 17.8 13.3l-.6 3.8-2.9-2.1c-5.3-5-11.4-9.6-18-12.7l-1-2z"/><path fill="#622d2f" stroke="#622d2f" stroke-width=".1" d="M487.8 208c-.2-6-.9-12 .8-17.8 5.8 0 11.6-.4 17.4-.5l-.2 1.5-4.1.4c-3.4.5-8-1.4-10.6 1.6-1 4.5-.7 9.2-.2 13.7.6 5.2 6.9 5 10.5 7l2.4-1.8 1.1 1.5 7.5-1.4c-1.8 1.6-3.8 3-5.8 4.4h-1.3l-.1 3.8c8.2.2 16.4.2 24.6.2 3.2 0 6.3.3 9.4.7l-1.1 2.9c-5.4.6-11 0-16.3.6-3-.3-6-.4-9-.2-4 .4-7.7-.4-11.5-1-3.6 1-7.1 2.4-10.9 1.8l-2.8-1.6 1.2-.3-1.4-1c2.4-.2 5-.4 7-2h3.4v-4h-3.4c-2.7-2.3-6.8-4.3-6.6-8.5z"/><path fill="#452a2b" stroke="#452a2b" stroke-width=".1" d="M506 189.7l6.4-.3c3 2.8 2 7 2.2 10.8l-2.7.8v-.7c0-2.6 0-5.1-.2-7.7a173.5 173.5 0 0 0-5.9-1.4l.2-1.5z"/><path fill="#320001" stroke="#320001" stroke-width=".1" d="M230.1 191.1c2.5.4 5 .5 7.6.6a35.7 35.7 0 0 0 12 13.8c3.5 2.3 8 1.6 12 1.4l1 3c-6.5 0-13.2 1.2-19.3-1.2-7-3.4-10.6-10.7-13.3-17.6z"/><path fill="#5c0101" stroke="#5c0101" stroke-width=".1" d="M237.7 191.7l4 .2c3.2 3.6 6.6 7 10.3 10 2.8 2.2 6.3 2.9 9.4 4l.3 1c-4 .2-8.5 1-12-1.4-5.3-3.3-9.1-8.4-12-13.8z"/><path fill="#4c0101" stroke="#4c0101" stroke-width=".1" d="M501.7 191.6l4.1-.4 1.2.2c-.4 2-1.4 4.2-.6 6.3 1.3 1.7 3.7 1.8 5.5 2.6v.7l-.8.2c-3.3-.6-6.6-1.1-9.5-3-1.4-2-.2-4.4.1-6.6z"/><path fill="#840a09" stroke="#840a09" stroke-width=".1" d="M241.7 191.9l1.2.1c6.7 3 12.8 7.6 18.1 12.7l.4 1.3c-3.1-1.2-6.6-1.9-9.4-4-3.7-3-7.1-6.5-10.3-10.1z"/><path fill="#6f0102" stroke="#6f0102" stroke-width=".1" d="M491 193.2c2.6-3 7.3-1 10.7-1.6-.3 2.2-1.5 4.6 0 6.7 2.8 1.8 6.1 2.3 9.4 2.9l.3 5.2c-2.6.3-5.4 0-7.8 1.2-1 1.4-.1 3 .2 4.5l-2.4 1.8c-3.6-2-10-1.8-10.5-7-.5-4.5-.8-9.2.2-13.7z"/><path fill="#2c0102" stroke="#2c0102" stroke-width=".1" d="M507 191.4l4.7 1.2c.2 2.6.3 5.2.2 7.7-1.8-.8-4.2-.9-5.5-2.6-.8-2 .2-4.2.6-6.3z"/><path fill="#a96f6f" stroke="#a96f6f" stroke-width=".1" d="M281 197.2l2-1.4 1.7 4.2c1.3 5 1 10.4.9 15.6a22 22 0 0 1-4.3 6.9c2.6-8.2 3.8-17.4-.3-25.3z"/><path fill="#924747" stroke="#924747" stroke-width=".1" d="M380 195.3l1.4 1.1c2.6 4.7 4.8 9.7 9 13.3 2.8 2.7 6.7 4 10.3 5.3l1 2.6c-4.3-2.2-9.2-3.3-13-6.2-3.5-3.8-5.6-8.7-8.4-13 0-.8-.3-2.3-.4-3z"/><path fill="#b18484" stroke="#b18484" stroke-width=".1" d="M378 197l2.3 1.4c2.8 4.3 4.9 9.2 8.3 13 4 3 8.8 4 13.1 6.2l.5 1.3c-3.3-.8-6.7-1.6-9.8-3.3a36.3 36.3 0 0 1-14.3-18.6z"/><path fill="#962324" stroke="#962324" stroke-width=".1" d="M284.7 200l2.5.9 1.4 5c.2 2.7.1 5.4-.3 8l-.4 1-2.3.7c.1-5.2.4-10.5-.9-15.6z"/><path fill="#680001" stroke="#680001" stroke-width=".1" d="M286.8 199.8c3.5 2.8 7.8 4.4 11.4 7 2.8 2.4 5.3 5 8.2 7.3l-.8.4-2.9 1.8c-4.3-4-8.5-8.3-14-10.4l-1.5-5-.4-1z"/><path fill="#802220" stroke="#802220" stroke-width=".1" d="M512 201l2.6-.8c-.1 3.6.1 7.2-1 10.7l-2.2-4.5-.3-5.2.8-.2z"/><path fill="#874645" stroke="#874645" stroke-width=".1" d="M437.7 209.3c-3.5-1.8-1.5-6-1-9 .4.8 1.4 2.1 2 2.8l-1 6.2z"/><path fill="#810202" stroke="#810202" stroke-width=".1" d="M438.6 203l.2-1.3 1.4 3c3 0 5.8-.3 8.7.2a3 3 0 0 1 2.4 3c.3 6.4 0 12.8.2 19.2-.1 2.2.2 4.7-.7 6.8-1.6 1.5-4.4 0-4.9-2-.8-6 .4-12.3-.4-18.5-1.2-2.4-4.1-3.1-6.5-3.6l-1.4-.3v-.2c.4-2 .8-4.2 1-6.2z"/><path fill="#706364" stroke="#706364" stroke-width=".1" d="M264.5 203c4.5 5.5 5 13.1 3.8 19.8a20.8 20.8 0 0 1-17.5 15.4c-10.3 2.1-20.7-3-27.3-10.8a54.1 54.1 0 0 1-9-13.7c4.6 2.5 6.2 7.8 9.6 11.4 4.6 5.1 10.5 10.3 17.8 10.4 6.7.4 14.6 0 19.3-5.4 2.2-2.5 4.5-5 5.2-8.3.5-5 .8-10.7-2.5-15l.6-3.8z"/><path fill="#2c2c2b" stroke="#2c2c2b" stroke-width=".1" d="M261 204.7l3 2.1c3.1 4.3 2.9 10 2.4 15-.7 3.3-3 5.8-5.2 8.3-4.7 5.4-12.6 5.8-19.3 5.4-7.3 0-13.2-5.3-17.8-10.4-3.4-3.6-5-9-9.6-11.3l-.8-1.5h3.6c-1.6-.9-3.3-2.1-5.3-1.9-2.4-.3-3.9 1.8-5.5 3.1-.3 6.6 1.9 12.9 3.2 19.3.7 4 3.3 7.5 6.9 9.4 6.1 3.2 13 4.3 19.8 5.1l-.1 1.4H234c-3.7-.3-7.4-1-11-1.9-3.9-1-7-3.4-10.8-4.6a17 17 0 0 1-4.3-9c-.5-5.9-3.1-11.3-3.4-17.2-.1-3 1.6-5.6 3.8-7.5h7.4c2.6 2.3 4.6 5.3 6.3 8.5a36.6 36.6 0 0 0 16.9 15.6 27.3 27.3 0 0 0 17-.9c7.9-3.9 10.2-14.3 6.7-21.9l-.9-3-.3-.8-.4-1.3z"/><path fill="#3a0506" stroke="#3a0506" stroke-width=".1" d="M503.6 207.6c2.4-1.3 5.2-.9 7.8-1.2l2.3 4.5-1.3 1.3-7.5 1.4-1-1.5c-.4-1.4-1.3-3.1-.3-4.5z"/><path fill="#3d1717" stroke="#3d1717" stroke-width=".1" d="M611.8 209.1c3.9 1.5 8.2 2.6 11.1 5.6 1.7 4.4-.5 9.8-5.2 10.9-6.7 1.3-13.7 1-20.4.2l-4.2-1.6c.8 0 2.3-.3 3.1-.5 6.6.1 13.2.6 19.8-.2 3.8-.6 6.2-5.3 3.3-8.3-1.8-3-6.6-2.5-7.5-6z"/><g fill="#4f4f4f" stroke="#4f4f4f" stroke-width=".1"><path d="M206.5 213.5c1.6-1.3 3.1-3.4 5.5-3 2-.3 3.7 1 5.3 1.8h-3.6c-1.8-.3-3.4.4-5 1.5 1.5 7.3 3.1 14.7 5 22 .6 2.8 3.7 3.5 6 4.6 7.8 4 16.9 3.8 25.5 4-4 .7-8 1-12 1l3.2 2c-6.8-.9-13.7-2-19.8-5.2a13.4 13.4 0 0 1-7-9.4c-1.2-6.4-3.4-12.7-3.1-19.3zM404.4 222.6c10 0 20.1-.4 29.5-4l-.3 3c-8.9 3.4-18.6 3.4-28 3.7l-1.2-2.7z"/></g><path fill="#252323" stroke="#252323" stroke-width=".1" d="M434.6 218.4c2.3-2.4 2.3-5.8 3-8.9l1.4.3.7 6.4c-1 2.1-2.1 4.2-3.3 6.2a67.8 67.8 0 0 1-27.5 5.1l-2-.1h-.2l-1-2.1c9.3-.3 19-.3 27.9-3.7l.3-3 .7-.2z"/><path fill="#460000" stroke="#460000" stroke-width=".1" d="M288.3 214c3.6 1.6 6.8 4.2 8.9 7.7 2.8 4.6 2.8 10.2 2.4 15.4-.2 4.3-2.8 7.9-5.5 11a30 30 0 0 0-3.4-21.9c-1.1-1.8-3.4-2-5.1-2.9.6-2.8 1.2-5.6 2.3-8.3l.4-1z"/><path fill="#3e3838" stroke="#3e3838" stroke-width=".1" d="M285.6 215.6l2.3-.6c-1 2.7-1.7 5.5-2.3 8.3-1.5 4-3.7 7.7-6.3 11.1a68 68 0 0 1-17.5 12.3 63 63 0 0 1-1.4-1.4v-3.5A35.8 35.8 0 0 0 275 232c2.7-2.8 4.2-6.4 6.2-9.6a22 22 0 0 0 4.3-7z"/><path fill="#8a1e1e" stroke="#8a1e1e" stroke-width=".1" d="M302.7 216.3l2.9-1.8.6 2.2.2 4.2c1 1.2 2.4 2 3.7 2.9l-3 .8c-1.3-1-2.8-1.6-3.8-2.9-.4-1.8-.4-3.6-.6-5.4z"/><path fill="#594140" stroke="#594140" stroke-width=".1" d="M619.3 215.2c2.9 3 .5 7.7-3.3 8.3-6.6.8-13.2.3-19.8.2-4.3-.3-8.8.2-12.7-2l2-.8c11 .8 22 1.4 33-.3l.8-5.4z"/><path fill="#83494b" stroke="#83494b" stroke-width=".1" d="M306.2 216.7l.2.7.5 2.6 4.2.2.9 3.3-1.9.3c-1.3-.9-2.7-1.7-3.7-3l-.2-4.1z"/><path fill="#230001" stroke="#230001" stroke-width=".1" d="M439.7 216.2c1.6 5.2.1 10.6.6 15.9-.4 5.2 5.2 8 8.9 10.4 2.7-.6 5.1-1.8 7.6-2.9 0-5.9 0-11.8 1.3-17.6l4 3.4c-2.2 5.8.8 12.4-1.8 18-11 5.1-23.3 3.6-35 4-5.8-.8-12-1.3-16.5-5.3-3.8-3.3-9.5-5.9-10.7-11.2 5.5 6 12.5 11.3 21 12 .1-4.4-3-7.6-6.7-9.1-2.3-1.7-3.9-4-5.4-6.4l2 .1c1.2 2.4 3 4.4 5.9 4.8 6.2 1.4 13.2 4 19.4 1 3.9-2.2 3.1-7.3 2-10.9 1.3-2 2.4-4 3.4-6.2z"/><path fill="#4e4d4e" stroke="#4e4d4e" stroke-width=".1" d="M461.6 220.2c11 .6 22 .2 32.9.3-2 1.6-4.7 1.8-7.1 2l1.4 1-1.3.3c-6.5-.6-13-.1-19.6-.3-2.2 0-4.3-1-6.3-2v-1.3z"/><path fill="#1a1a1a" stroke="#1a1a1a" stroke-width=".1" d="M336.9 222.5c1.8-.2 3.5-1.2 5.2-1.9 1 2-1 3.9-2.5 4.9-8.7 1-17.6-1.2-26.1 1.2a131 131 0 0 0-.5-3.4c8-1.3 16-.1 23.9-.8z"/><path fill="#a03431" stroke="#a03431" stroke-width=".1" d="M394.2 222.5c3.4-.1 6.8.2 10.2 0l1.3 2.8 1 2c-3.2 0-6.5.3-9.8.3h-.4l-3.6-3.8 1.3-1.3z"/><path fill="#500202" stroke="#500202" stroke-width=".1" d="M307 224.6a333.7 333.7 0 0 1 5-1.2l1-.1.5 3.4c.5 4.7-1.4 9.3-3.4 13.5-.9 1.8-1.4 4-3 5.4l-1 1a32 32 0 0 0 1-22z"/><path fill="#070001" stroke="#070001" stroke-width=".1" d="M512.8 224.6c3-.2 6-.1 9 .2l3.2.9.7 3.3c-1.6 1.2-3 3-5 3.5-2.3.2-4.7-.4-6.5-1.7-1.3-1.5-1.3-3.6-1.8-5.4l.4-.8z"/><path fill="#200" stroke="#200" stroke-width=".1" d="M485.3 225.6l3-.2c.4 1.7.9 3.4.1 5-.3 1.6-2 4 .3 4.8 4.3 2.4 8.3 5.4 13 7 5.7 1 11.5.3 17.2.4-3.6-4-8.9-7.2-10.2-12.7-.5-2.5 1.7-3.8 3.7-4.5.5 1.8.5 4 1.8 5.4 1.8 1.3 4.2 1.8 6.5 1.7 2-.5 3.4-2.3 5-3.5l-.7-3.3c1.4.6 3.7.4 4 2.4-.3 2.2-1.2 4.2-1.9 6.3 4.2 2.5 9.1 3.7 13.5 6 6.3 4.2 14.1 2.3 21.2 2.3l-1.8-3c2.4 1 4.6 2.5 6.3 4.4l-1.2 1.2c-7 .3-14-.1-21 0-2.9 0-6 .5-8.5-.9l-15.9-8.1c-1.4-.8-3-1-4.5-1.2l.2 2.5c2.9 2.3 6.2 4 9 6.5l-1 1.3c-9.5.2-19-.1-28.4-.1-3.9.1-6.3-3.3-9.4-5-2.8-2-6.7-3.2-8.2-6.4 1.8-2 5.3-.4 6.8-2.8 1.4-1.5 1.4-3.6 1-5.5z"/><path fill="#1f0303" stroke="#1f0303" stroke-width=".1" d="M238.9 232.6c4.3-.8 7.7-3.8 11.8-5.4a27 27 0 0 0 5.3 4.5 27.3 27.3 0 0 1-17.1.9z"/><path fill="#880202" stroke="#880202" stroke-width=".1" d="M406.7 227.4h.3c1.5 2.3 3 4.7 5.4 6.4l-.7 3.2c-5-1.5-9.5-4.5-13.8-7.4l-1-2 9.8-.2z"/><path fill="#460102" stroke="#460102" stroke-width=".1" d="M602.2 228.1c3.8 1 7.7 1.4 11.4 2.4 8.4 3.1 17.5 4.9 24.4 11-4.4 1-9.3 2-13.7.1-7.6-2.4-15.4-4.3-22.9-7.3l.8-6.2z"/><path fill="#210000" stroke="#210000" stroke-width=".1" d="M355.7 229a9.7 9.7 0 0 0 7.3 3.9c4.4 0 3.3 5.2 3.4 8 .4 2.2-1 4-3.2 3.9-9.8 1-19.9 1-29.6-.4-1.1-2.5.4-5.3 1-7.8.7-3.3 4.4-4 7.2-4.5 0 2.8-.3 5.7.7 8.3a22 22 0 0 0 11.4.6c2.5-.3 2.2-3.3 2-5l-.2-7z"/><path fill="#520102" stroke="#520102" stroke-width=".1" d="M397.9 229.6c4.3 2.9 8.7 5.9 13.8 7.4l.7-3.2c3.8 1.5 6.8 4.7 6.7 9a32.6 32.6 0 0 1-21-12l-.2-1.2z"/><path fill="#710203" stroke="#710203" stroke-width=".1" d="M495.7 232c1.8-3 5-1.3 7.5-.3 3 1.2 5 3.7 6.8 6.1-5.5 1.6-11-1.5-14.3-5.9z"/><path fill="#5c0303" stroke="#5c0303" stroke-width=".1" d="M535 231.1c7.6-.8 14.5 3.5 20 8.5-6.1 1.8-11.6-2.5-17.2-4.4-2-.4-2.4-2.4-2.9-4.1z"/><path fill="#6d4342" stroke="#6d4342" stroke-width=".1" d="M245.2 244.5c5-.7 10.3-.7 15.1-2.7v3.5c-7.6 2.9-16 3.5-24 2l-3.1-1.9c4 0 8-.3 12-1z"/><path fill="#520202" stroke="#520202" stroke-width=".1" d="M291 256c5-1.3 9.1-4.4 13.2-7.3a29.1 29.1 0 0 1-22.3 15.3c.9-2.6 1.6-5.5 3.5-7.6 1.8-1.9 4-3.4 6-5.1l.6-.5-1 5.2z"/></svg>