<svg xmlns="http://www.w3.org/2000/svg" width="1259.027" height="154.15" viewBox="0 0 944.271 115.613"><defs><filter id="a" width="1.013" height="1.12" x="-.007" y="-.06" color-interpolation-filters="sRGB"><feGaussianBlur stdDeviation="2.588"/></filter></defs><g stroke="#000" stroke-width="7.5" filter="url(#a)" transform="translate(-11.03 -24.52)"><path d="M865.94 31.38c19.67-.23 41.01-3.41 58.96 6.75 7.89 4.3 11.26 13.26 11.67 21.78-.66 6.36-5.73 10.98-9.21 16.01 2.72 1.45 5.51 2.55 8.45 3.6-2.19.8-4.34 1.68-6.46 2.59 3.37 6.22 6.94 12.39 11.3 17.95 2.69 1.1 5.6 1.39 8.44 2.06-2.54 1.71-8.78-.17-9.62 4.08-2.53 10.05-9.65 19.04-19.35 22.95-17.84 6.59-37.2 4.66-55.82 3.97.56-1.86 1.11-3.72 1.64-5.59-4.97-4.92-10.61-9.62-13.53-16.12-1.51-2.62-.37-6.12 1.89-7.92 7.67-1.06 15.79 1.37 23.24-1.32.04 11.67 14.42 19.77 24.48 13.86 4.93-1.17 5.84-6.32 6.38-10.55-2.15-.96-4.28-1.95-6.4-2.95 2.22-.88 4.43-1.78 6.65-2.68-.46-3.2-.57-6.97-3.34-9.15-3.79-4.12-9.92-4.1-14.92-5.42.37-3.8.73-7.6 1.13-11.4 6.39-.8 12.63-3.34 16.77-8.42-1.73-1.68-3.46-3.34-5.19-5.01 2.13-1.91 6.5-4.15 4.03-7.51-6.5-9.31-22.74-6.94-25.87 4.07 2.95 1.41 5.98 2.66 9 3.91-25.88-1.56-51.83.86-77.68-.7 11.35-.66 22.87-5.68 34.21-2.44 5.27-6.39 11.02-12.35 16.48-18.57 2.03-2.1 2.19-5.12 2.67-7.83zM38.91 43.84c12.77-3.65 27.13-3.23 38.88 3.43 6.11 3.37 8.49 10.28 11.29 16.27-6.75.41-13.49-.13-20.24-.01-1.56-5.1-5.16-9.43-10.52-10.86-3.72-.92-9.64-1.9-11.91 2.29-1.39 3.67-2.92 7.29-4.18 11 11.62 9.22 27.29 8.79 41.38 10.07.82 6.61 5.66 10.66 10.98 13.89-1.15 2.67-2.48 5.28-3.26 8.08-.03 3.82 3.61 5.83 6.39 7.67-7.02-1.16-10.87 5.58-15.97 9.1-11.59 8.11-26.83 9.26-40.39 6.77-7.15-2.2-14.97-5.11-19.08-11.79-2.51-3.21-3.86-7.12-5.04-10.96 6.43-.54 12.96-.85 19.37-.13 4.2 3.66 5.07 11.41 11.59 11.73 2.28.19 6.84.56 9.12.75 2.68-3.78 6.21-6.85 10.59-8.59 3.66-1.75 2.09-7-1.04-8.45-11.12-6.17-24.74-5.12-36.04-11-4.3-2.32-8.32-5.11-12.37-7.84 2.11-7.38-.25-16.17 5.54-22.27 3.74-4.57 9.13-7.85 14.91-9.15zM116.35 45.12c4.53-.55 9.07-.88 13.63-.98 2.6-.01 5.96 1.01 6.22 4.07.65 3.83 2.19 7.4 4.41 10.58-6.3 8.64-4.02 19.68-4.4 29.61-.54 6.28.33 13.15 5.22 17.64-5.35 3.01-5.34 9.25-6.06 14.66-6.21.12-12.42.16-18.63.12-.32-3.84-.74-7.67-1.26-11.48-1.59-1.73-3.84-2.63-5.87-3.74 2.25-1.31 5.12-2.31 6.13-4.96 2.13-4.64-2.08-7.5-4.82-10.19 2.27-2.42 5.45-4.76 5.57-8.38.56-6.96-.62-13.89-1.37-20.79-.21-5.4.84-10.78 1.23-16.16zM164.93 45.78c6.65-1.29 13.53-2.09 20.21-.54.69 4.97 1.99 9.8 3.56 14.56-1.51 3.84-4.1 7.67-2.61 12.03.95 2.1 2.81 3.59 4.38 5.22-7.93 5.89-5.87 17.52-1.34 24.88 1.66 3.74 6.1 5 9.83 5.23 8.56 1.12 17.25.8 25.87.93.32 4.28.73 8.54 1.15 12.8-19.59 1.12-39.22.67-58.8-.18-2.22-3.43-1.87-7.85-3.53-11.49-2.37-2.15-5.76-2.55-8.65-3.75 2.76-.67 5.56-1.37 8.3-2.18-1.04-6.77 1.26-13.39 1.49-20.11-.77-2.22-2.48-3.91-3.95-5.69 6.4-9.48 3.74-21.08 4.09-31.71m21.64 58.36c-.26 1.31-.51 2.62-.76 3.93 1.37.39 2.73.8 4.1 1.18.44-1.08.87-2.16 1.31-3.25-1.55-.63-3.1-1.25-4.65-1.86zM244.09 44.74c15.87-.41 31.75-.21 47.61-.27 6.4-.83 8.74 6.14 14.17 7.55 4.63 1.09 9.41 1.44 14.11 2.16 2.22-2.98 4.46-5.95 6.52-9.05 7.28-.58 14.59-1.19 21.89-.52 2.49.23 5.15 1.26 6.18 3.74 6.84 13.7 12.48 27.98 19.3 41.69 1.5 0 3.01 0 4.53.01 2.41-14.85 1.57-29.94 2.91-44.88 5.6-.89 11.59-1.72 16.94.85 4.01 2.09 7.64 5.6 12.62 4.84 7.2-1.7 13.46-6.88 21.13-6.72 16.35-.65 32.71.37 49.05.79 7.2-.41 8.99 7.98 13.84 11.63-10.24 2.95-22.16.24-31.44 6.22.6 4.17-.14 8.63 1.17 12.69 2 2.61 4.67 4.62 7.03 6.91-2.84 2.14-5.47 4.53-8.11 6.9 1.2 3.4.99 7.88 3.55 10.68 4.91 2.5 10.77 1.38 16.09 2.1-4.74 1.21-10.22.53-14.17 3.93-5.22 2.98-3.95 9.95-5.78 14.8-5.73 1.12-11.62.8-17.37.02-.82-5.36-1.17-11.22-5.56-14.96 1.78-2.96 4.53-5.78 4.39-9.47-.22-8.59-.97-17.17-2.52-25.62-.56-3.39 2.6-7.93-.47-10.43-6.6-2.58-14.02-1.56-20.79-3.48-5.71-1.49-11.67-3.96-17.64-2.61-3.48 2.59-3.18 7.44-4.31 11.21 3.29 1.51 6.59 2.96 9.94 4.4-2.95 1.07-5.87 2.19-8.79 3.34-1.4 13.42-.28 26.87 1.16 40.22 1.5 7.26-6.22 8.62-11.37 8.26-7.24-.6-16.65 1.99-21.83-4.73-2.89-3.71-7.3-5.32-11.29-7.47 1.83-.66 3.66-1.32 5.51-1.95-2.23-12.58-8.9-23.63-13.98-35.17-1.74 1.5-4.07 2.71-4.78 5.04-1.36 9.18-1.79 18.6-.49 27.81.88 4.45 6.44 4.43 9.83 5.26-3.86 1.26-7.38 3.39-9.65 6.84-4.54 6.73-18.31 6.52-20.63-2.15-3.37-8.67 3.92-18.17.21-26.97-1.93-3.37-5.88-5.43-9.81-4.97-5.22-.42-10.48-1.21-15.72-.88-2.13 1.43-3.49 3.78-5.72 5.09-9.36.94-18.77.59-28.14 1.24-.44 6.15-.86 12.3-.86 18.47 11.88 1.89 23.88 1.17 35.83 1.62-.13 4.02 1.18 8.66-1.59 12.05-6.18 1.52-12.56.67-18.82.63-10.99-.38-22.01.49-32.99-.49-1.15-.02-2.72-.61-2.65-2-.38-11.6 1.62-23.22.34-34.8-.96-2.34-2.42-4.43-3.65-6.61 2.15-3.95 5.13-8.57 3.69-13.21-1.3-2.17-3.64-3.36-5.67-4.72 5.11-3.21 5.95-9.44 7.05-14.86m53.48 12.53c-10.67 1.54-21.75-.89-32.23 2.05-5.01 3.05-1.77 10.28-2.76 14.91 7.77.71 15.58.67 23.35 1.31 6.14-.15 10.91 4.64 17.05 4.5 7.31.83 14.7-.3 21.36-3.41-.39-5.56-.27-11.19-1.28-16.68-.27-2.41-2.4-4.06-4.67-4.42-6.99-1.33-14 .3-20.82 1.74zM630.74 45.14c6.14-.51 12.31-.66 18.48-.38 4.86 14.74-.13 30.43.95 45.6-.53 5.07 4.42 7.86 7.63 10.91a390.35 390.35 0 0 0-7.5 5.74c.25 4.62-.09 9.22-.52 13.81-6.21.44-12.44.46-18.65.32-.89-6.94.06-14.93-5.66-20 1.75-2.77 3.73-5.45 4.99-8.49.39-4.22-4.04-7.87-2.21-12.1 1.93-7.04 3.2-15-1.4-21.23 2-4.51 2.86-9.39 3.89-14.18zM757.52 45.86c6.27-.87 12.8-2.35 18.97-.12 1 5.37.86 12.05 6.5 14.83-7.93 5.35-5.42 16.34-6.2 24.64 9.55 5.15 21.02 3.92 30.77 8.54-9.88 2.26-21.8-2.14-30.24 4.69 3.95 3.35 7.1 8.39 12.33 9.76 7.84.31 15.72.21 23.57.86.19 4.31.3 8.63.74 12.93-19.29.34-38.57-.73-57.85 0 .71-7.74 1.14-15.72-1.04-23.27-1.52-5.49-9.39-2.54-13.27-4.16 4.15-1.1 9.41.14 13-2.72 2.48-7.94 1.76-16.5 1.92-24.7-1.68-2.71-4.25-4.64-6.67-6.62 5.29-2.93 7.06-8.98 7.47-14.66m20.34 58.13c.2 1.23.41 2.46.63 3.69 1.05-.03 2.11-.06 3.19-.08-.24-1.17-.48-2.34-.71-3.51-.78-.02-2.33-.07-3.11-.1zM534.21 45c5.79.05 11.6.1 17.41.24.39 7.81.61 15.63 1.05 23.43.33 2.34.9 5.52 3.72 5.95 7.63.46 15.81 1.44 23.21-1.05 4.31-3.82 3.15-9.82-.27-13.77 2.52-4.61 3.39-9.81 4.22-14.94 5.4.14 10.85-.18 16.25.37 2.48 4.92 3.19 10.58 5.63 15.55-3.55 4.76-4.41 11.21-3.1 16.92.94 3.21 4.23 4.59 7.02 5.82-2.71 1.24-6.35 2.46-6.84 5.87-1 10.34-.53 20.74-.49 31.11-6.39.57-12.77 1.19-19.18 1.01-.56-7.39-.07-14.81-.46-22.21-.66-3.48-.86-9.42-5.32-10.44-8.04-1.62-16.25-.17-24.24 1.11-1.52 7.4-2.15 15.88 3.52 21.83-2.27 2.94-3.76 6.55-6.55 9.06-5.3 1.87-11.21.25-16.71.46-1.19-4.72-1.95-9.52-2.81-14.29-.53-3.81-5.45-3.69-8.17-4.71 3.19-1.4 7.03-2.03 9.47-4.72 1.74-4.52.71-9.53 1.16-14.22.01-9.27 2.51-20-4.31-27.62 1.99-3.55 3.91-7.14 5.79-10.76zM680.51 44.63c6.36.44 12.78.83 19.14 1.56 1.58 9.03-3.51 22.38 5.72 28.67-7.28 4.07-6.23 13.75-1.54 19.56-1.13 1.58-2.25 3.16-3.34 4.75 4.93 3.5 9.82 7.5 15.7 9.24 7.6.57 15.27-.27 22.89.53-.15 3.96-.28 7.91-.4 11.87-21.05 1.72-42.35 2.26-63.35-.24 3.79-4.08 6.19-9.77 3.38-15.26-2.76-3.92-8.39-3.56-12.48-4.49 4.67-2.61 9.27-5.74 12.73-9.84 2.77-6.82-1.98-13.56-.81-20.44 1.28-8.59.9-17.34 2.36-25.91m20.9 57.81c-.19 1.56-.37 3.13-.54 4.69 1.55-.18 3.12-.36 4.69-.54-1.37-1.4-2.76-2.79-4.15-4.15zM743.53 60.12c1.41-2.18 3.16 1.9.57 1.29-.14-.32-.43-.97-.57-1.29zM149.53 106.12c1.42-2.18 3.17 1.9.57 1.29-.14-.32-.43-.97-.57-1.29z" opacity=".98"/></g><g fill="#fff" stroke="#fff" stroke-width=".094"><path d="M854.91 6.86c19.67-.23 41.01-3.41 58.96 6.75 7.89 4.3 11.26 13.26 11.67 21.78-.66 6.36-5.73 10.98-9.21 16.01 2.72 1.45 5.51 2.55 8.45 3.6-2.19.8-4.34 1.68-6.46 2.59 3.37 6.22 6.94 12.39 11.3 17.95 2.69 1.1 5.6 1.39 8.44 2.06-2.54 1.71-8.78-.17-9.62 4.08-2.53 10.05-9.65 19.04-19.35 22.95-17.84 6.59-37.2 4.66-55.82 3.97.56-1.86 1.11-3.72 1.64-5.59-4.97-4.92-10.61-9.62-13.53-16.12-1.51-2.62-.37-6.12 1.89-7.92 7.67-1.06 15.79 1.37 23.24-1.32.04 11.67 14.42 19.77 24.48 13.86 4.93-1.17 5.84-6.32 6.38-10.55-2.15-.96-4.28-1.95-6.4-2.95 2.22-.88 4.43-1.78 6.65-2.68-.46-3.2-.57-6.97-3.34-9.15-3.79-4.12-9.92-4.1-14.92-5.42.37-3.8.73-7.6 1.13-11.4 6.39-.8 12.63-3.34 16.77-8.42-1.73-1.68-3.46-3.34-5.19-5.01 2.13-1.91 6.5-4.15 4.03-7.51-6.5-9.31-22.74-6.94-25.87 4.07 2.95 1.41 5.98 2.66 9 3.91-25.88-1.56-51.83.86-77.68-.7 11.35-.66 22.87-5.68 34.21-2.44 5.27-6.39 11.02-12.35 16.48-18.57 2.03-2.1 2.19-5.12 2.67-7.83zM27.88 19.32c12.77-3.65 27.13-3.23 38.88 3.43 6.11 3.37 8.49 10.28 11.29 16.27-6.75.41-13.49-.13-20.24-.01-1.56-5.1-5.16-9.43-10.52-10.86-3.72-.92-9.64-1.9-11.91 2.29-1.39 3.67-2.92 7.29-4.18 11 11.62 9.22 27.29 8.79 41.38 10.07.82 6.61 5.66 10.66 10.98 13.89-1.15 2.67-2.48 5.28-3.26 8.08-.03 3.82 3.61 5.83 6.39 7.67-7.02-1.16-10.87 5.58-15.97 9.1-11.59 8.11-26.83 9.26-40.39 6.77-7.15-2.2-14.97-5.11-19.08-11.79-2.51-3.21-3.86-7.12-5.04-10.96 6.43-.54 12.96-.85 19.37-.13 4.2 3.66 5.07 11.41 11.59 11.73 2.28.19 6.84.56 9.12.75 2.68-3.78 6.21-6.85 10.59-8.59 3.66-1.75 2.09-7-1.04-8.45-11.12-6.17-24.74-5.12-36.04-11-4.3-2.32-8.32-5.11-12.37-7.84 2.11-7.38-.25-16.17 5.54-22.27 3.74-4.57 9.13-7.85 14.91-9.15zM105.32 20.6c4.53-.55 9.07-.88 13.63-.98 2.6-.01 5.96 1.01 6.22 4.07.65 3.83 2.19 7.4 4.41 10.58-6.3 8.64-4.02 19.68-4.4 29.61-.54 6.28.33 13.15 5.22 17.64-5.35 3.01-5.34 9.25-6.06 14.66-6.21.12-12.42.16-18.63.12-.32-3.84-.74-7.67-1.26-11.48-1.59-1.73-3.84-2.63-5.87-3.74 2.25-1.31 5.12-2.31 6.13-4.96 2.13-4.64-2.08-7.5-4.82-10.19 2.27-2.42 5.45-4.76 5.57-8.38.56-6.96-.62-13.89-1.37-20.79-.21-5.4.84-10.78 1.23-16.16zM153.9 21.26c6.65-1.29 13.53-2.09 20.21-.54.69 4.97 1.99 9.8 3.56 14.56-1.51 3.84-4.1 7.67-2.61 12.03.95 2.1 2.81 3.59 4.38 5.22-7.93 5.89-5.87 17.52-1.34 24.88 1.66 3.74 6.1 5 9.83 5.23 8.56 1.12 17.25.8 25.87.93.32 4.28.73 8.54 1.15 12.8-19.59 1.12-39.22.67-58.8-.18-2.22-3.43-1.87-7.85-3.53-11.49-2.37-2.15-5.76-2.55-8.65-3.75 2.76-.67 5.56-1.37 8.3-2.18-1.04-6.77 1.26-13.39 1.49-20.11-.77-2.22-2.48-3.91-3.95-5.69 6.4-9.48 3.74-21.08 4.09-31.71m21.64 58.36c-.26 1.31-.51 2.62-.76 3.93 1.37.39 2.73.8 4.1 1.18.44-1.08.87-2.16 1.31-3.25-1.55-.63-3.1-1.25-4.65-1.86zM233.06 20.22c15.87-.41 31.75-.21 47.61-.27 6.4-.83 8.74 6.14 14.17 7.55 4.63 1.09 9.41 1.44 14.11 2.16 2.22-2.98 4.46-5.95 6.52-9.05 7.28-.58 14.59-1.19 21.89-.52 2.49.23 5.15 1.26 6.18 3.74 6.84 13.7 12.48 27.98 19.3 41.69 1.5 0 3.01 0 4.53.01 2.41-14.85 1.57-29.94 2.91-44.88 5.6-.89 11.59-1.72 16.94.85 4.01 2.09 7.64 5.6 12.62 4.84 7.2-1.7 13.46-6.88 21.13-6.72 16.35-.65 32.71.37 49.05.79 7.2-.41 8.99 7.98 13.84 11.63-10.24 2.95-22.16.24-31.44 6.22.6 4.17-.14 8.63 1.17 12.69 2 2.61 4.67 4.62 7.03 6.91-2.84 2.14-5.47 4.53-8.11 6.9 1.2 3.4.99 7.88 3.55 10.68 4.91 2.5 10.77 1.38 16.09 2.1-4.74 1.21-10.22.53-14.17 3.93-5.22 2.98-3.95 9.95-5.78 14.8-5.73 1.12-11.62.8-17.37.02-.82-5.36-1.17-11.22-5.56-14.96 1.78-2.96 4.53-5.78 4.39-9.47-.22-8.59-.97-17.17-2.52-25.62-.56-3.39 2.6-7.93-.47-10.43-6.6-2.58-14.02-1.56-20.79-3.48-5.71-1.49-11.67-3.96-17.64-2.61-3.48 2.59-3.18 7.44-4.31 11.21 3.29 1.51 6.59 2.96 9.94 4.4-2.95 1.07-5.87 2.19-8.79 3.34-1.4 13.42-.28 26.87 1.16 40.22 1.5 7.26-6.22 8.62-11.37 8.26-7.24-.6-16.65 1.99-21.83-4.73-2.89-3.71-7.3-5.32-11.29-7.47 1.83-.66 3.66-1.32 5.51-1.95-2.23-12.58-8.9-23.63-13.98-35.17-1.74 1.5-4.07 2.71-4.78 5.04-1.36 9.18-1.79 18.6-.49 27.81.88 4.45 6.44 4.43 9.83 5.26-3.86 1.26-7.38 3.39-9.65 6.84-4.54 6.73-18.31 6.52-20.63-2.15-3.37-8.67 3.92-18.17.21-26.97-1.93-3.37-5.88-5.43-9.81-4.97-5.22-.42-10.48-1.21-15.72-.88-2.13 1.43-3.49 3.78-5.72 5.09-9.36.94-18.77.59-28.14 1.24-.44 6.15-.86 12.3-.86 18.47 11.88 1.89 23.88 1.17 35.83 1.62-.13 4.02 1.18 8.66-1.59 12.05-6.18 1.52-12.56.67-18.82.63-10.99-.38-22.01.49-32.99-.49-1.15-.02-2.72-.61-2.65-2-.38-11.6 1.62-23.22.34-34.8-.96-2.34-2.42-4.43-3.65-6.61 2.15-3.95 5.13-8.57 3.69-13.21-1.3-2.17-3.64-3.36-5.67-4.72 5.11-3.21 5.95-9.44 7.05-14.86m53.48 12.53c-10.67 1.54-21.75-.89-32.23 2.05-5.01 3.05-1.77 10.28-2.76 14.91 7.77.71 15.58.67 23.35 1.31 6.14-.15 10.91 4.64 17.05 4.5 7.31.83 14.7-.3 21.36-3.41-.39-5.56-.27-11.19-1.28-16.68-.27-2.41-2.4-4.06-4.67-4.42-6.99-1.33-14 .3-20.82 1.74zM619.71 20.62c6.14-.51 12.31-.66 18.48-.38 4.86 14.74-.13 30.43.95 45.6-.53 5.07 4.42 7.86 7.63 10.91a390.35 390.35 0 0 0-7.5 5.74c.25 4.62-.09 9.22-.52 13.81-6.21.44-12.44.46-18.65.32-.89-6.94.06-14.93-5.66-20 1.75-2.77 3.73-5.45 4.99-8.49.39-4.22-4.04-7.87-2.21-12.1 1.93-7.04 3.2-15-1.4-21.23 2-4.51 2.86-9.39 3.89-14.18zM746.49 21.34c6.27-.87 12.8-2.35 18.97-.12 1 5.37.86 12.05 6.5 14.83-7.93 5.35-5.42 16.34-6.2 24.64 9.55 5.15 21.02 3.92 30.77 8.54-9.88 2.26-21.8-2.14-30.24 4.69 3.95 3.35 7.1 8.39 12.33 9.76 7.84.31 15.72.21 23.57.86.19 4.31.3 8.63.74 12.93-19.29.34-38.57-.73-57.85 0 .71-7.74 1.14-15.72-1.04-23.27-1.52-5.49-9.39-2.54-13.27-4.16 4.15-1.1 9.41.14 13-2.72 2.48-7.94 1.76-16.5 1.92-24.7-1.68-2.71-4.25-4.64-6.67-6.62 5.29-2.93 7.06-8.98 7.47-14.66m20.34 58.13c.2 1.23.41 2.46.63 3.69 1.05-.03 2.11-.06 3.19-.08-.24-1.17-.48-2.34-.71-3.51-.78-.02-2.33-.07-3.11-.1zM523.18 20.48c5.79.05 11.6.1 17.41.24.39 7.81.61 15.63 1.05 23.43.33 2.34.9 5.52 3.72 5.95 7.63.46 15.81 1.44 23.21-1.05 4.31-3.82 3.15-9.82-.27-13.77 2.52-4.61 3.39-9.81 4.22-14.94 5.4.14 10.85-.18 16.25.37 2.48 4.92 3.19 10.58 5.63 15.55-3.55 4.76-4.41 11.21-3.1 16.92.94 3.21 4.23 4.59 7.02 5.82-2.71 1.24-6.35 2.46-6.84 5.87-1 10.34-.53 20.74-.49 31.11-6.39.57-12.77 1.19-19.18 1.01-.56-7.39-.07-14.81-.46-22.21-.66-3.48-.86-9.42-5.32-10.44-8.04-1.62-16.25-.17-24.24 1.11-1.52 7.4-2.15 15.88 3.52 21.83-2.27 2.94-3.76 6.55-6.55 9.06-5.3 1.87-11.21.25-16.71.46-1.19-4.72-1.95-9.52-2.81-14.29-.53-3.81-5.45-3.69-8.17-4.71 3.19-1.4 7.03-2.03 9.47-4.72 1.74-4.52.71-9.53 1.16-14.22.01-9.27 2.51-20-4.31-27.62 1.99-3.55 3.91-7.14 5.79-10.76zM669.48 20.11c6.36.44 12.78.83 19.14 1.56 1.58 9.03-3.51 22.38 5.72 28.67-7.28 4.07-6.23 13.75-1.54 19.56-1.13 1.58-2.25 3.16-3.34 4.75 4.93 3.5 9.82 7.5 15.7 9.24 7.6.57 15.27-.27 22.89.53-.15 3.96-.28 7.91-.4 11.87-21.05 1.72-42.35 2.26-63.35-.24 3.79-4.08 6.19-9.77 3.38-15.26-2.76-3.92-8.39-3.56-12.48-4.49 4.67-2.61 9.27-5.74 12.73-9.84 2.77-6.82-1.98-13.56-.81-20.44 1.28-8.59.9-17.34 2.36-25.91m20.9 57.81c-.19 1.56-.37 3.13-.54 4.69 1.55-.18 3.12-.36 4.69-.54-1.37-1.4-2.76-2.79-4.15-4.15zM732.5 35.6c1.41-2.18 3.16 1.9.57 1.29-.14-.32-.43-.97-.57-1.29zM138.5 81.6c1.42-2.18 3.17 1.9.57 1.29-.14-.32-.43-.97-.57-1.29z" opacity=".98"/></g></svg>