<?xml version="1.0" encoding="UTF-8"?>
<svg version="1.1" viewBox="0 0 2223 680" xmlns="http://www.w3.org/2000/svg">
<rect width="100%" height="100%" fill="none"/>
<g class="currentLayer" style="">
<title>Layer 1</title>
<g class="" fill="#fff">
<path d="m1812.9 14.57c10.38-1.23 20.79-3.72 31.29-2.22 5.98 1.25 12.38 2.35 17.18 6.45 6.16 4.7 8.86 12.65 9.27 20.15 0.73 10.82-1.97 21.43-3.61 32.04-1.94 11.34-3.85 22.68-5.98 33.98-1.96 10.04-5.97 20.14-13.57 27.25-7.17 6.71-16.96 9.57-26.4 11.31 0.66 5.09 2.96 9.86 4.34 14.81 6.77 21.2 13.76 42.33 20.19 63.64 1.47 5.01 3.56 9.82 6.44 14.19 0.89 0.9-0.01 2.18-1.15 2.03-22.6 3.22-45.18 6.58-67.81 9.58-9.28 1.27-18.51 2.99-27.83 3.88-1.21-0.73-1.11-2.39-1.53-3.56-7.47-30.21-14.95-60.43-22.23-90.68-1.43-2.07-4.34 0.24-6.37-0.53 1.85-11.73 4.2-23.37 6.09-35.09 0.28-1.47 0.42-3.03 1.23-4.33 11.43-2.11 23.13-2.85 34.48-5.45 4.83-0.86 7.98-5.36 8.7-9.98 2.09-11.34 3.9-22.72 6.05-34.04 0.44-3.3 0.76-8.71-3.87-8.8-8.56-0.17-16.96 2-25.43 2.9-10.23 1.49-20.49 2.79-30.7 4.38-2.03 13-4.28 25.98-6.57 38.94-2.35 10.74-2.94 21.75-5.16 32.53-4.84 25.28-9.34 50.62-13.55 76.02-2.46 14.02-5.35 28.68-1.85 42.78 0.18 1.15 1.38 3.54-0.58 3.72-23.6 3.36-47.2 6.81-70.83 10.06-9.99 1.34-19.93 3.22-29.96 4.03 1.36-3.71 3.89-6.82 5.29-10.51 5.31-11.72 7.69-24.44 9.67-37.07 8.26-47.29 16.32-94.61 24.48-141.92 1.67-10.22 3.86-20.56 2.94-30.96-0.3-4.85-2.3-9.29-4.32-13.61 60.52-8.89 121.12-17.2 181.66-25.92z"/>
<path d="m1580.5 46.7c6.6-0.79 13.18-2.47 19.84-2.38-0.68 14.81 0.1 29.65-0.65 44.44-3.65 0.03-7.15-1.18-10.77-1.35-12.28-1.51-24.6 0.38-36.73 2.24-20.61 2.72-41.18 5.73-61.73 8.79-3.17 17.83-5.92 35.82-9.02 53.69 21.16-3.41 42.46-5.88 63.65-9.14 9.9-1.64 19.75-3.93 29.02-7.84 3.04-0.99 5.79-3.04 9.08-3.18-2.88 15.99-5.23 32.08-8.22 48.06-0.28 1.55-0.62 4.46-2.99 3.57-21.96-4.43-44.02 1.29-65.8 3.92-10.56 1.51-21.1 3.08-31.68 4.43-1.51 11.05-3.71 22-5.52 33-1.95 9.38-2.98 18.93-5.06 28.28 22.08-2.89 44.06-6.48 66.16-9.29 12.65-1.7 25.37-3.79 37.37-8.33 3.87-1.31 7.44-3.39 11.38-4.54 0.25 3.03-1.43 5.71-2.29 8.51-3.82 10.96-7.34 22.01-11.2 32.96-0.91 2.09-0.91 5.49-3.77 5.86-66.41 9.39-132.82 18.84-199.23 28.27 0.12-0.52 0.35-1.56 0.47-2.08 6.37-10.16 9.96-21.82 12.14-33.55 8.73-49.35 17.04-98.78 25.69-148.14 2.13-14.14 5.7-28.43 3.63-42.81-0.27-2.85-1.73-5.46-1.67-8.35 59.31-8.26 118.59-16.76 177.9-25.04z"/>
<path d="m1337.3 81.35c19.63-3.57 39.53-5.45 59.17-8.9-0.05 0.51-0.15 1.54-0.2 2.06-5.21 4.78-9.12 10.71-13.09 16.5-12.08 18.33-21.27 38.33-31.6 57.65-28.57 55.12-57.33 110.15-85.84 165.31-1.26 2.31-2.28 4.79-3.93 6.85-32.33 4.76-64.69 9.38-97.06 13.86-4.91-23.1-8.85-46.42-13.45-69.59-7.9-41.38-15.73-82.78-23.65-124.15-1.33-7.53-2.27-15.53-6.74-21.97-1.41-2.31-3.96-3.88-4.7-6.58 35.95-4.91 71.86-10.17 107.79-15.24 1.72-0.12 0.54 2.26 0.28 3.11-4.73 10.48-4.8 22.46-2.49 33.56 8.19 42.03 16.78 83.98 24.9 126.02 0.69 3.37 1.62 6.73 1.56 10.2l1.3-0.73c24.11-46.72 48.65-93.23 72.89-139.89 7.72-14.88 16.52-30.7 14.86-48.07z"/>
<path d="m1005.3 128.57c33.86-4.53 67.64-9.68 101.5-14.24-0.1 2.56-2.03 4.41-3.07 6.6-5.03 9.71-7.85 20.39-9.91 31.07-9.1 52.98-18.31 105.94-27.37 158.92-1.41 9.95-3.51 20.13-1.43 30.14 0.36 2.71 1.82 5.29 1.31 8.07-33.69 4.77-67.38 9.55-101.06 14.37-0.12-1.27 0.16-2.5 0.95-3.52 8.21-13.41 10.97-29.18 13.5-44.46 8.71-49.52 16.95-99.12 25.59-148.65 1.8-11.47 3.52-23.47 0.34-34.84-0.41-1.14-0.52-2.29-0.35-3.46z"/>
<path d="m904.85 143.39c14.02-2.04 28.89-4.7 42.64 0.17 8.46 2.76 14.38 10.71 15.6 19.38 1.97 9.36-0.04 18.91-1.56 28.18-2.36 13.81-4.7 27.63-7.18 41.42-2.19 10.96-6.42 22.33-15.35 29.58-7.1 6.03-16.42 8.38-25.35 10.16 8.53 26.55 17.37 53 25.38 79.71 1.41 3.99 2.8 8.06 5.26 11.56 0.87 0.94 2.15 3.57-0.28 3.38-31.64 4.3-63.25 8.97-94.87 13.32-1.4 0.35-1.88-1.17-2.05-2.2-3.14-13.33-6.72-26.55-9.81-39.89-4.7-17.68-8.49-35.6-13.34-53.23-1.87 0.54-3.8 0.82-5.73 0.94 0-0.73-0.02-2.19-0.02-2.91 2.02-11.91 4.4-23.77 6.24-35.7 0.34-1.34 1.93-1.32 3.02-1.63 10.82-1.57 21.75-2.62 32.44-4.92 4.72-0.97 7.83-5.1 8.68-9.67 2.07-11.81 4.35-23.59 6.23-35.44 0.28-2.68 0.36-6.58-2.82-7.51-5.5-0.7-11 0.63-16.44 1.26-13.57 2.03-27.2 3.59-40.72 5.9-2.21 10.84-3.61 21.82-5.76 32.66-1.3 8.17-3.15 16.26-3.98 24.5-6 34.17-12.23 68.3-17.85 102.53-1.46 11-2.81 22.6 1.16 33.26-1.01 0.59-2.06 1.15-3.25 1.2-32.91 4.75-65.85 9.27-98.75 14.04 0.25-2.4 1.83-4.28 2.93-6.34 5.11-9.37 7.8-19.81 9.89-30.22 9.29-53.29 18.34-106.62 27.63-159.91 1.46-10.53 3.56-21.61 0.05-31.97-0.62-2.09-2.31-3.86-2.17-6.14 60.06-8.35 120.07-17.12 180.13-25.47z"/>
<path d="m624.97 183.05c13.56-1.77 27.42-4.41 41.02-1.51 9.1 1.61 17.8 7.37 21.33 16.15 5.39 12.36 3.64 26.34 1.71 39.28-4.5 26.41-9.08 52.79-13.61 79.19-3.8 20.06-5.49 41-14.96 59.45-7.32 15.25-20.71 27.28-36.49 33.28-17.16 7.11-35.88 8.16-54.01 11.05-50.94 7.09-101.83 14.55-152.77 21.59 0.12-3.01 2.59-5.1 3.66-7.77 8.78-17.64 10.16-37.6 13.88-56.65 6.4-36.66 12.53-73.38 19.01-110.03 1.99-15.01 6.18-29.81 5.98-45.05-0.01-4.78-1.18-9.42-2.42-13.99-0.26-1.46 1.7-1.12 2.53-1.51 55.03-7.92 110.1-15.62 165.14-23.48m-80 50.15c-1.5 6.74-2.08 13.64-3.51 20.4-7.27 44.95-15.03 89.83-22.78 134.7 10.69-1.83 21.47-2.96 32.18-4.64 7-1.22 14.24-1.48 20.99-3.87 3.53-1.27 6.21-4.3 7.28-7.86 2.54-8.13 3.47-16.64 5.01-24.99 6.14-35.97 12.51-71.89 18.51-107.88 0.19-3.92 1.64-9.03-1.84-11.95-3.42-1.44-7.25-0.71-10.79-0.25-15 2.21-30 4.46-45.05 6.34z"/>
<path d="m1789.1 259.9c20.51-2.78 40.95-6.08 61.5-8.54 0.19 6.75-0.35 13.52-0.33 20.28 0.11 1.63-1.99 1.47-2.93 0.94-4.98-1.98-10.3-0.76-15.42-0.41-14.63 2.23-29.32 4.07-43.95 6.22-1.91 0.34-3.29 1.69-3.47 3.63-0.79 4.38-1.79 8.71-2.65 13.08 12.1-1.19 24.04-3.6 36.12-5.03 5.91-0.8 12.27-2.09 17.97 0.35 5.09 2.34 7.37 8.24 7.23 13.56-0.35 6.16-2.35 12.04-3.38 18.09-2.06 8.85-2.64 18.38-7.59 26.26-3.05 5.11-7.72 9.29-13.23 11.57-6.12 2.96-13.05 2.88-19.58 4.21-10.78 1.29-21.49 3.13-32.27 4.36-10.58 1.51-21.15 3.36-31.79 4.28 0.19-7.14 0.41-14.32 1.07-21.43 7.28 2.49 15.01 1.27 22.45 0.21 12.67-2.01 25.41-3.58 38.11-5.47 1.36-0.39 3.42-0.51 3.87-2.19 1.69-6.04 2.76-12.24 3.94-18.4-10.95 1.33-21.84 3.19-32.77 4.59-7.01 0.8-14.47 3.15-21.27 0.16-5.88-2.35-7.89-9.56-7.15-15.35 1.32-9.05 3.89-17.87 5.44-26.88 1.57-8.25 5.9-16.28 13.05-20.97 7.93-5.45 17.84-5.73 27.03-7.12z"/>
<path d="m1727.9 268.56c4.52-0.28 8.96-1.96 13.52-1.31-0.61 7.1-0.02 14.26-0.83 21.34-9.7-3.33-19.86-0.33-29.67 0.68-8.53 1.44-17.15 2.2-25.63 3.81-1.85 8.4-3.06 16.95-5.4 25.24 8.77-0.75 17.4-2.62 26.16-3.54 7.46-1.07 15.3-1.91 21.92-5.82 0.81-0.52 1.72-0.77 2.72-0.76 0.47 1.66-0.18 3.28-0.54 4.89-1.67 6.38-2.66 12.91-4.09 19.34-0.19 1.73-2.11 0.75-3.08 0.54-5.19-1.91-10.72-0.5-16.01-0.02-10.29 1.58-20.62 2.83-30.87 4.5-1.59 8.95-3.9 17.75-5.6 26.67 2.53-0.55 5.11-0.85 7.67-1.38 0.09-0.37 0.26-1.1 0.34-1.47 0.26 0.36 0.79 1.07 1.05 1.43 11.46-1.79 23.06-2.8 34.42-5.22 4.59-0.84 8.57-3.32 12.7-5.35 0.93 2.8-1.19 5.39-1.9 8.03-2.17 4.89-3.32 10.28-5.85 14.95-8.89 1.95-18.05 2.6-27.04 4.05-21.34 3.09-42.69 6.1-64.04 9.12 0.82-4.34 3.87-7.91 4.74-12.28 5.08-22.58 9.53-45.31 14.45-67.93 1.38-7.34 3.48-14.58 3.8-22.08 0.21-2.14-1.46-4.35-0.34-6.35 25.76-3.89 51.62-7.25 77.4-11.08z"/>
<path d="m1616.5 284.55c7.06-1.42 14.24-2.12 21.35-3.28 1.36-0.24 2.73-0.23 4.13 0.05-1.86 4.28-4.5 8.22-5.26 12.91-6.69 31.22-13.05 62.52-19.61 93.77-0.05 1.42-1.48 2.01-2.65 2.16-11.45 1.8-22.94 3.25-34.4 4.97-0.97 0.18-1.98 0.01-2.92-0.06-8.44-18.18-17.12-36.25-25.77-54.34-0.67-1.36-1.1-2.79-1.28-4.29-0.62 0.65-1.21 1.31-1.77 1.97 0.82-4.44-2.02-8.09-3.61-11.97l-1.19-0.74c-3.93 21.2-8.88 42.19-13.06 63.34-0.96 4.37-0.26 8.81 0.06 13.2-8.42 0.65-16.7 2.36-25.08 3.3 0.22-1.03 0.39-2.1 0.97-3 3.42-5.64 4.44-12.26 5.9-18.58 4.69-22.36 9.43-44.71 14.07-67.08 1.23-6.41 3.16-13.09 1.06-19.53 9.08-2.06 18.45-2.75 27.65-4.22 5.27-0.43 10.6-2.29 15.83-1.89 11.04 22.86 21.65 45.98 32.78 68.8 3.95-19.71 8.28-39.35 12.31-59.05 1.28-5.38 1.89-11.02 0.49-16.44z"/>
<path d="m1472.5 304.82c13.8-2 27.63-4.04 41.46-5.77-0.33 3.3-2.86 5.76-3.74 8.88-2.69 8.24-3.63 16.9-5.75 25.28-4.33 20.96-8.98 41.86-13 62.89-0.82 3.79-0.11 7.62 0.21 11.43-13.78 2.07-27.63 3.8-41.4 5.91 0.55-4.16 3.49-7.52 4.4-11.6 2.73-10.58 4.43-21.4 6.89-32.05 2.86-12.24 4.99-24.63 7.77-36.88 2.03-9.21 4.77-18.58 3.16-28.09z"/>
<path d="m1366.6 319.84c13.11-2.03 26.28-3.73 39.41-5.65 1.77-0.77 2.27 1.14 1.42 2.34-1.63 3.08-3.5 6.09-4.22 9.55-5.57 25.98-10.93 52-16.53 77.98 2.63-0.22 5.23-0.6 7.85-1.03-0.04-0.43-0.12-1.3-0.16-1.73l0.34 1.47c9.79-0.94 19.52-2.59 29.28-3.96 4.97-0.72 9.99-1.84 14.45-4.28 1.67-0.95 3.41-1.85 5.32-2.29-1.73 6.03-4.55 11.67-6.24 17.71-1.04 1.89-1 5.19-3.5 5.75-29.9 4.34-59.86 8.43-89.76 12.77 0.12-3.3 2.6-5.83 3.46-8.93 2.68-8.19 3.9-16.77 5.81-25.15 2.95-14.84 6.31-29.59 9.31-44.41 1.85-9.97 5.41-19.88 3.76-30.14z"/>
<path d="m1213.8 340.92c12.71-1.64 25.39-3.54 38.08-5.4 1.27-0.31 2.55-0.32 3.86-0.04-1.91 4.31-4.59 8.33-5.44 13.05-5.6 25.54-10.6 51.21-16.41 76.7 10.08-1.4 20.13-2.94 30.22-4.27 6.32-0.97 12.82-1.52 18.83-3.87 2.95-1.05 5.38-3.43 8.61-3.66-1.66 5.83-4.3 11.33-6.17 17.1-1.17 2.2-1.04 6.08-4.23 6.31-25.72 3.65-51.43 7.36-77.14 11.08-4.61 0.21-9.06 1.8-13.7 1.51 1.66-3.77 5.05-7.14 4.55-11.54 0.26-0.11 0.77-0.33 1.02-0.44 4.76-23.23 9.69-46.45 14.81-69.6 1.21-8.05 4.46-16.07 2.95-24.31-0.17-0.89-0.12-1.76 0.16-2.62z"/>
<path d="m1111.6 355.69c30.67-4.39 61.32-9.02 92.04-13.11 0.77 3.8-0.19 7.65-0.19 11.48-0.35 3.5 0.21 7.14-0.94 10.53-7.44-3.4-15.81-1.32-23.52-0.22-10.68 1.3-21.27 3.19-31.96 4.3-1.76 8.54-3.52 17.08-5.28 25.61 12.48-1.67 24.95-3.49 37.38-5.55 5.08-0.64 9.35-3.63 14.16-5.09-1.35 7.55-3.19 15-4.56 22.55-0.14 1.21-0.73 2.28-1.49 3.2-4.74-2.28-10.1-1.43-15.14-1.13-11.46 1.68-22.94 3.21-34.39 4.91-1.95 8.92-3.61 17.89-5.68 26.79 12.54-2.06 25.17-3.64 37.76-5.43 5.16-0.98 10.43-2.06 15.06-4.67 1.52-0.8 3.05-1.99 4.9-1.56-2.79 6.86-5.01 13.92-7.65 20.84-0.28 1.22-1.24 2.16-2.5 2.27-30.36 4.28-60.7 8.82-91.07 12.89 1.4-4.23 4.44-7.81 5.23-12.31 4.86-21.93 9.34-43.96 14.08-65.91 1.95-10.03 5.46-20.05 3.76-30.39z"/>
<path d="m1009.3 370.39c14.07-2.46 28.29-4.19 42.45-6.04-1.18 4.46-4.38 8.14-5.1 12.79-3.23 15.34-6.62 30.66-9.85 46-2.34 10.45-4.08 21.05-6.99 31.37 8.75-1.18 17.46-2.64 26.23-3.75 7.33-1.12 14.8-1.71 21.91-3.95 3.33-1.26 6.28-3.35 9.66-4.5-1.11 5.85-4.17 11.12-5.78 16.84-1.22 2.4-1.18 6.39-4.42 6.95-25.49 3.48-50.93 7.27-76.39 10.89-4.94 0.32-9.75 2.06-14.72 1.44 2.41-3.04 4.05-6.53 5.19-10.23 1.72-6.04 2.68-12.25 3.92-18.4 3.98-17.56 7.43-35.23 11.32-52.82 1.48-8.76 4.96-17.65 2.57-26.59z"/>
<path d="m1885.8 375.99c0.12 0.91 0.31 1.82 0.55 2.73 3.33-0.9 6.77-1.03 10.22-0.93-0.21 0.44-0.63 1.32-0.84 1.75-3.25 0.04-8.07-1.96-9.68 1.99 0.82 0.35 2.46 1.05 3.28 1.41-2 1.57-4.45 2.19-6.86 2.68 0.32-0.61 0.95-1.81 1.27-2.42-2.04 0.23-4.04 0.61-5.98 1.21 1.02-0.03 3.07-0.07 4.1-0.09l-0.24 1.83c-4.2 3.67-9.93 2.8-14.88 4.33-0.43-0.23-1.28-0.7-1.71-0.93-2.15 0.39-4 1.61-5.77 2.8-5.46 0.39-11.48-1-16.35 2.11-1.41-0.01-2.8-0.01-4.16 0.02 3.05 3.01 8.35-0.99 11.43 1.89 2.34-0.2 4.68-0.78 6.81-1.86 1.02 0.45 2.12 1.31 3.33 0.73 5.17-1.64 10.73-1 15.93-2.56l2.04 1.52c-4.29 1.62-8.83 2.38-13.35 2.94-5.15 0.51-10.09 2.19-15.26 2.37-0.21 0.46-0.62 1.36-0.83 1.81 1.37 0.14 2.76 0.26 4.17 0.35-0.53 1.52-1.91 2.3-3 3.31 3.92-0.67 6.52-3.92 9.9-5.72 0.71 1.09 1.45 2.17 2.22 3.26 2.18 0.01 4.37 0.07 6.57 0.18-0.15-1.29-0.32-2.56-0.47-3.83 0.56 0.89 1.13 1.78 1.72 2.69 2.38-0.03 4.99 0.45 7.12-0.98 2.57 0.91 5.29 1.04 8.01 0.74-1.18 0.34-2.33 0.67-3.47 1.01-0.06 0.56-0.19 1.68-0.26 2.24-1.2 0.67-2.39 1.34-3.55 2.01-1.97-0.02-3.92 0-5.84 0.06-2.03 0.8-4.45 1.81-6.14-0.2-0.98 0.5-1.91 1.04-2.81 1.62-0.16-0.82-0.47-2.48-0.63-3.3-1.2 0.69-2.41 1.39-3.56 2.09-0.44-0.37-1.34-1.09-1.78-1.46-4.93 1.86-10.25 1.98-15.35 3.02 1.23 0.65 2.53 1.24 3.87 1.77-3.3 0.1-6.38 1.77-9.69 1.45-2.4-0.23-4.59 0.81-6.79 1.52-3.21 1.32-6.77 0.82-10.09 1.55-6.61 1.44-13.38 1.75-20.06 2.62-6.23 1.4-12.61 1.89-18.96 2.22-2.33 0.75-4.67 1.63-7.13 0.98-2.77 1.24-5.73 1.96-8.68 2.56-2.55 0.62-5.47-0.56-7.6 1.34-0.71-0.06-2.13-0.18-2.84-0.25-0.43 0.33-1.3 0.99-1.74 1.32-0.45-0.34-1.34-1.03-1.79-1.38-2.96 0.78-6.48 0.34-8.92 2.42-2.57-0.52-4.93 0.62-7.32 1.29-2.89 0.09-5.81-1.25-8.63-0.27-4 1.2-8.26 0.98-12.16 2.51-3.41 1.36-7.03 0.21-10.54 0.52-0.27-0.03-0.81-0.09-1.08-0.12l0.68-0.46c-3.47 0.63-6.89 1.43-10.3 2.26-1.8 0.61-2.28-1.65-2.79-2.77-0.49-0.03-1.45-0.08-1.93-0.1 0.4 1.16 2.1 2.23 1.13 3.56-4.87 0.76-9.75 3.23-14.66 1.3-0.58-0.68-1.14-1.36-1.68-2.03-0.34 0.38-1 1.14-1.33 1.52-0.79-0.06-1.54-0.09-2.28-0.11-0.5-0.12-1.51-0.36-2.02-0.48 0.06 0.62 0.16 1.87 0.21 2.5-2.37 0.33-4.81 0.34-6.99 1.38-4.01 1.66-8.39 1.74-12.64 2.12-6.22 0.22-11.92 3.19-18.18 3.05-4.71 1.32-9.57 1.11-14.39 1.39 0.67-4.21-1.78-1.75-0.76 0.28-6.81-0.34-13.03 2.75-19.72 3.39-1.06-0.28-2.07-0.83-3.15-0.43-2.55 0.58-5.24 0.18-7.71 1.09-3.7 1.29-7.85 1.19-11.16 3.47-0.7-0.54-1.38-1.08-2.04-1.61-4.65 1.57-9.58 1.83-14.42 2.25-4.23 0.32-8.25 3.15-12.51 1.52-0.49 0.29-1.46 0.88-1.95 1.18-3.27-0.82-6.44 0.97-9.72 0.28-0.02 0.66-0.05 1.97-0.07 2.63-0.21-0.27-0.62-0.81-0.83-1.08-1.16-0.32-2.31-0.63-3.43-0.94-2.07 1.44-4.53 1.29-6.91 1.24-6.17 1.32-12.44 2.53-18.77 2.43-6.61 1.16-13.2 2.44-19.77 3.83-6.21 0.41-12.4 1.13-18.48 2.41-2.55 0.19-5.32 1.13-7.63-0.34-4.24 3.21-9.72 1.21-14.45 2.77-3.25 1.07-6.78 0.66-9.97 1.91-2.96-1.79-6.19 0.36-9.1 1.17-0.49-0.28-1.46-0.84-1.95-1.12-5.47 2.85-11.81 1.24-17.4 3.56-5.02 0.51-10.07 1.17-15.03 1.94-3.12 1.99-6.91 2.01-10.35 0.98-0.36 0.36-1.08 1.09-1.44 1.45-3.6 0.21-7.09 1.27-10.69 1.19-3.46-0.3-6.55 2.95-9.96 1.37-1.2 0.47-2.42 0.9-3.6 1.34-7.63 0.03-15.33 0.36-22.57 3.01-8.06 1.86-16.52 1.41-24.52 3.71-5.79 0.58-11.58 1.17-17.28 2.4-0.53-0.21-1.6-0.64-2.13-0.85-1.32 0.63-2.53 1.53-3.94 1.89-7.24 0.16-14.44 1.18-21.54 2.61-3.85 0.64-7.83 0.36-11.55 1.69-5.19 1.42-10.72 0.3-15.85 2.01-3.05 0.85-6.52 1.51-9.31-0.36-0.69 0.65-1.35 1.31-2 1.98-1.85-1.82-3.31 0.25-4.77 1.38-0.46-0.32-1.39-0.96-1.85-1.28-8.1 3.13-16.91 3.73-25.39 5.39-10.49 0.96-20.77 3.45-31.29 4.06-5.22 1.66-10.75 1.68-15.98 3.25-0.42-0.11-1.26-0.31-1.67-0.41-4.45 0.77-8.98 1.01-13.28 2.43-7.22 0.01-14.34 1.26-21.4 2.62-5.53 1.07-11.32 0.13-16.68 2.12-3.46 1.24-7.35-0.21-10.64 1.58-0.41-0.25-1.22-0.76-1.63-1.01-6.19 2.4-13.13 1.2-19.25 3.82-4.33 0.12-8.52 1.49-12.85 1.26-3.51-0.17-6.78 1.27-10.21 1.62-2.95 0.64-5.97 1.89-8.95 0.72-3.32 0.95-6.67 1.79-10.06 2.33-3.73 0.64-7.58-0.25-11.22 0.88-6.11 1.66-12.43 2.21-18.65 3.27-10.05 0.39-19.94 2.48-29.98 3.27-7.32 1.1-14.58 2.89-22.01 2.92-6.01 0.86-12.02 1.72-17.98 2.8-6.1 0.09-12.07 1.48-18.1 2.24-4.38 0.31-8.52 2.04-12.94 1.97-6.3 0.91-12.6 1.89-18.88 2.91-6.33-0.5-12.38 1.54-18.53 2.62-5.64 0.58-11.27 1.24-16.88 1.94-4.72 1.78-9.83 1.06-14.65 2.34-3.72-0.02-7.38 0.37-11.02 1.07-4.15-0.06-7.91 2.01-12.04 2.1-12.25 1.56-24.42 3.64-36.64 5.33-10.84 2.66-22.27 1.97-33.06 5.03-3.82 0.71-7.92 0.4-11.3 2.64-0.47-0.26-1.41-0.8-1.88-1.07-3.39 1.42-7.25 0.68-10.57 2.35-2.99 1.47-6.29 1.14-9.48 0.82-3.61 1.34-7.76 0.34-10.99 2.82-2.9-1.88-5.97-0.23-8.74 1.01-1.25-0.51-2.56-1.37-3.89-0.58-4.55 1.79-9.42 2.15-14.25 2.32-7.41 0.73-14.76 2.26-22.21 2.39-10.21 2.25-20.67 3.28-31.03 4.53-9.16 2.18-18.53 3.33-27.89 4.36-5.07 0.27-9.97 2-15.07 2.04-2.93-0.05-5.72 0.9-8.54 1.52-3.89-1.45-7.51 1.23-11.35 1.38-4.38 0.42-8.71 1.22-13.1 1.46-3.88-1-7.62 1.02-11.51 0.9-3.69-0.32-6.34 2.67-9.46 4.11 0.84-1.16 1.65-2.34 2.38-3.56-5.87 2.74-12.55 1.96-18.54 4.17-0.43-0.27-1.29-0.8-1.72-1.07-6.04 2.29-12.6 2.64-18.91 3.94-0.04 0.26-0.12 0.76-0.17 1.01 0.54 0.67 1.09 1.34 1.66 2.01-1.33-0.46-2.69-0.85-3.78-1.77-3-0.25-6.28 0.02-9.09 1.22-4.24 0.28-8.62-0.56-12.7 0.98-7.08 2.71-15.99-1.29-22.09 4.16-1.99-0.43-4.01-1.53-6.07-0.75-3.28 1.3-6.78 1.84-10.14 2.88-0.22-0.42-0.66-1.27-0.88-1.7-2.58 1.35-5.47 1.96-8.19 2.96-11.61 1.37-23.25 2.74-34.74 4.97-47.09 5.64-93.94 13.17-140.91 19.73-4.99 3.52-11.1 4.64-16.94 6.03-14.66 2.01-29.4 3.41-44.1 5.15-14.7 2.16-29.47 3.86-44.15 6.12-2.68 0.32-5.44 0.53-7.88 1.82 0.39 0.59 1.17 1.76 1.56 2.35-1.15 1.33-1.85 4.26-4.14 3.37-3.14 0.05-4.97-2.47-6.53-4.81-4.16 1.41-8.4 2.66-12.8 3.04-5.4 0.5-10.61 2.38-16.08 2.14-3.28-0.34-5.85 2.87-9.14 1.95-4.21-0.68-8.49-0.56-12.73-0.37-1.63 0.92-3.44 0.93-5.23 0.57-2.48-0.73-4.48 1.49-6.86 1.52-0.98-0.53-1.88-1.21-2.8-1.82-6.9-0.38-13.55 1.46-20.3 2.43-4.13 0.65-6.37-3.15-8.12-6.16 0.57-1.32 1.16-2.64 1.61-3.99-0.25-1.57-1.56-2.61-2.49-3.78v-0.53c1.68-2.43 3.85-4.45 6.28-6.11-0.2-0.42-0.62-1.24-0.82-1.65 0.49-0.62 0.98-1.23 1.47-1.83-0.34-1.31-0.74-2.59-1.2-3.84-1.41-0.65-2.8-1.33-4.18-2.01 0.19-0.61 0.34-1.22 0.44-1.82 7.92-5.11 17.54-5.8 26.49-7.82 3.81-2.69 8.43-3.26 12.68-4.94 8.35-0.12 16.48-2.55 24.84-2.81 5.19-0.05 10.06-1.85 15-3.1 5.28 1 10.64 0.72 15.97 1.29 5.14 0.22 9.96-2.06 15.05-2.28 8.39-0.46 16.65-2.07 24.96-3.18 3.81-0.7 7.11-2.96 10.91-3.76 4.02 1.42 8.12-1.1 12.24-0.19 6.39-0.09 13.11-0.28 19.02-2.98 3.41-0.8 7.1 0.84 10.38-0.88 5.11-2.3 10.83-1.79 16.19-2.94 4.97-1.71 10.19-2.46 15.18-4.1 1.2 1.02 2.24 2.79 4.11 2.31 1.9-0.49 3.3-2.03 5.1-2.77 4.24-0.69 8.61-1.09 12.85-0.15 6.37 0.46 12.62-1.25 18.93-1.77 4.83-1.04 9.6-2.39 14.36-3.63 5.46 1.33 10.34-1.98 15.76-1.89 5.37-0.14 10.56-2.84 15.96-1.78 2.57-0.85 5.26-0.92 7.94-0.81 5.82 0.24 11.17-3.44 17.02-1.95 5.4-1.05 10.79-2.02 16.25-2.73 3.61 0.77 7.15-0.73 10.75-0.93 21.03-2.82 42.07-5.6 63.08-8.6 8.22-1.2 16.55-1.68 24.69-3.38 22.79-3.47 45.75-5.92 68.5-9.72 17-1.59 33.8-4.77 50.77-6.66 17.26-3.07 34.77-4.55 52.03-7.66 20.02-2.55 40-5.45 59.98-8.26 5.68-1.15 11.4-2.06 17.18-2.53 23.53-3.92 47.22-6.63 70.75-10.44 55.48-7.06 110.85-14.95 166.25-22.65 50.25-6.85 100.57-13.31 150.79-20.5 74.04-9.69 147.88-20.89 221.9-30.8 11-1.7 21.99-3.52 33.06-4.74 96.65-13.56 193.33-26.93 289.99-40.45 46.93-6.75 93.97-12.73 140.94-19.19 24.96-3.38 49.9-7.01 74.93-9.81 4.43-0.63 8.85-1.53 13.36-1.54 3.2 0.37 6.38 0.94 9.65 0.95-0.48-0.39-1.42-1.19-1.9-1.58l3.6-1.8c0.07 0.55 0.19 1.64 0.26 2.19 5.26 0.18 10.54-0.13 15.8 0.45 0.11-1.29 0.21-2.57 0.29-3.86z"/>
<path d="m1906.6 376.92c0.77-0.93 1.74-1.04 2.9-0.34 1.65 2.44-2.83 2.7-2.9 0.34z"/>
<path d="m1897 377.41c2.93 0 5.65-1.42 8.64-1.05l0.07 2c-1.71-0.23-2.78 0.75-3.64 2.02-1.74-0.07-3.44-0.18-5.07-0.66v-2.31z"/>
<path d="m915.9 383.63c8.73-1.23 17.43-2.64 26.17-3.82 2.61-0.29 5.27-1.3 7.91-0.56-1.11 3.44-3.59 6.27-4.34 9.84-2.77 10.1-4.51 20.44-6.87 30.64-3.34 16.52-7.06 32.96-10.45 49.46 12.48-2.13 25.05-3.64 37.58-5.5 5.71-0.95 11.53-2.25 16.53-5.33 1.02-0.67 2.2-0.98 3.4-1.23-0.98 4.41-3.12 8.46-4.46 12.77-1.41 3.43-2.03 7.28-4.19 10.35-9.57 1.88-19.32 2.8-28.96 4.25-34.1 4.96-68.21 9.78-102.3 14.74-1.86 0.36-3.76 0.42-5.63 0.5 0.05-2.67 1.54-5.07 1.48-7.75 0.31-6.92-2.3-13.45-3.88-20.07-14.7 2.37-29.58 3.9-44.2 6.62-5.48 9.26-12.79 18-14.56 28.93-0.45 1.75-2.66 1.5-4.02 1.88-19.33 2.8-38.67 5.56-58 8.3-1.22 0.16-3.58 1.07-4-0.64-2.9-13.87-5.74-27.78-8.23-41.73-6.25 0.82-12.47 1.73-18.7 2.66-2.01 11.11-4.84 22.06-6.81 33.18-0.62 3.81-0.53 7.72 0.3 11.5-1.16 0.37-2.29 0.8-3.48 1-24.77 3.21-49.47 6.87-74.18 10.5-3.74 0.32-7.42 1.34-11.19 1.15 0.54-3.1 2.03-6.06 1.72-9.26-0.35-6.37-2.36-12.51-4.29-18.55-14.3 2.56-28.74 4.41-43.13 6.36l-0.83 0.45c-4.37 7.35-9.54 14.3-12.9 22.21-1.25 2.45-0.43 6.2-2.82 7.89-8.71 1.79-17.62 2.42-26.34 4.18-0.29-1.03-0.12-1.93 0.49-2.71 9.82-10.94 17.2-23.74 25.07-36.08 12.73-20.25 25.4-40.53 38.11-60.79 1.31-2.38 3.16-4.48 4.2-7.01-0.9-2.57-2.39-4.87-3.71-7.23 1.49-2.12 4.31-1.63 6.55-2.06 10.72-1.54 21.46-2.97 32.16-4.61 1.34-0.54 2.03 0.91 2.34 1.92 7.68 27.95 15.19 55.94 22.89 83.88 1.21 4.94 2.6 10.64 7.58 13.12 3.67-6.17 5.27-13.2 6.52-20.18 5.16-23.63 9.97-47.33 15.19-70.94 1.19-5.14 1.27-10.37 0.49-15.56 28.98-4.25 57.97-8.37 86.96-12.51 6.53-1.1 14.98 0.02 18.2 6.65 3.49 6.91 0.1 14.42-0.98 21.47-2 8.07-2.33 16.97-7.57 23.83-3.23 5.06-8.72 7.88-14.11 10.07l-0.28 0.83c1.47 6.56 2.45 13.23 4.04 19.77 1.4 6.38 1.47 13.97 6.96 18.46 10.87-12.69 18.91-27.43 27.95-41.41 12.77-20.48 25.7-40.87 38.42-61.39-1.08-2.65-3.91-5.12-3.45-8.04 8.15-1.6 16.44-2.48 24.66-3.7 5.16-0.45 10.22-1.86 15.43-1.89 7.4 27.5 14.97 54.97 22.46 82.45 1.61 5.16 2.19 11.18 6.34 15.08 0.4-0.02 1.2-0.08 1.6-0.1 1.93-4.1 3.41-8.42 4.2-12.89 5.61-26.02 11.08-52.08 16.61-78.13 0.87-4.43 1.09-9.02-0.06-13.41 2.61-1.3 5.56-1.41 8.41-1.81m-90.55 43.42c-5.48 10.68-12.97 20.28-18.49 30.93 8.8-0.98 17.54-2.49 26.34-3.62-2.06-7.77-4.25-15.51-6.16-23.32-0.61-1.28-0.28-3.27-1.69-3.99m-129.22 6.24c-0.19 0.2-0.58 0.61-0.77 0.82-1.58 8.34-3.37 16.64-5.05 24.96 1.88-0.28 3.78-0.54 5.68-0.8 1.01-0.74 2.54-3.02 3.48-0.9 7.85-0.4 15.6-2.09 23.4-3.03 2.35-0.08 3.5-2.4 3.88-4.42 1.33-7.12 3.05-14.15 4.42-21.25-11.75 0.91-23.32 3.41-35.04 4.62m-139.23 60.64c9.01-1.26 18.02-2.5 26.99-4.03-2.51-9.06-5.05-18.12-7.16-27.27-6.94 10.19-13.08 20.96-19.83 31.3z"/>
<path d="m1889.3 380.06c3.06-1.36 5.56 0.7 6.64 3.45-2.12 0.09-4.23 0.07-6.32 0.01-0.12-1.16-0.23-2.31-0.32-3.46z"/>
<path d="m2198.1 389.92c0.95-1.09 3.35 0.26 2.5 1.61-1.01 0.88-3.55-0.2-2.5-1.61z"/>
<path d="m2179.8 392.25c5.43-0.65 10.92-1.04 16.42-0.98 0.14 0.55 0.44 1.65 0.59 2.2-0.79 0.01-2.38 0.03-3.18 0.03-1.99 1.79-5 2.87-5.52 5.78-0.72 0.41-2.15 1.23-2.86 1.65 0.34-1.19 0.8-2.34 1.4-3.44-1.17-0.11-2.31-0.22-3.43-0.32 0.08 0.87 0.19 1.75 0.33 2.64-4.05 1.57-8.53 1.75-12.35 3.92 0.05 0.54 0.16 1.6 0.21 2.13 1.97-0.25 3.81-1 5.55-2 2.83 0.94 5.74 0.18 8.54-0.58l0.08 2.24c-4.19 0.98-8.53 1.51-12.42 3.41 0.15 0.56 0.45 1.7 0.6 2.26 0.4 0.19 1.2 0.55 1.6 0.73 0.02-0.58 0.05-1.75 0.06-2.34 2.37-1.26 5.19-0.09 7.76-0.14-1.11 0.53-2.2 1.08-3.24 1.65 1.32 2.14 4.03 1.27 6.12 1.54-1.91 1.76-4.04 3.21-6.12 4.71-0.32-0.47-0.96-1.41-1.27-1.88-1.31-0.27-2.59-0.52-3.85-0.74-1.03 4.57-6.34 4.3-8.84 7.46-2.05 0.44-5.51-0.82-5.95 1.98-5.64-0.14-11.16 1.19-16.46 2.94-4.57 0.33-8.95 1.83-13.55 1.59-10.21 2.52-20.64 4.1-31.12 4.87-9 2.39-18.24 3.29-27.49 4.08-6.32 1.86-12.87 2.4-19.34 3.33-4.26 1.15-8.65 1.48-13.01 1.91-11.56 1.69-23.14 3.35-34.65 5.28-4.77-0.05-9.39 1.03-14.02 1.94-8.49 0.63-16.84 2.4-25.28 3.45-21.33 3.65-42.74 6.56-64.15 9.69-11.9 2.14-23.97 3-35.92 4.73-5.35 1.19-10.78 1.81-16.21 2.33-10.89 2.01-21.88 3.31-32.79 5.1-6.79 1.57-13.8 1.49-20.63 2.69-5.51 1.01-11.19 0.78-16.61 2.26-4.81 1.31-9.82 1.34-14.7 2.15-22.1 3.32-44.09 7.49-66.29 9.96-21.97 2.66-43.67 7.18-65.73 9.08-5.64 1.44-11.43 1.93-17.13 3.02-12.18 1.44-24.26 3.56-36.45 4.83-9.87 1.3-19.62 3.55-29.55 4.35-5.78 0.45-11.43 1.87-17.19 2.37-7.36 0.4-14.49 2.48-21.82 3.07-11.25 1.81-22.61 2.81-33.82 4.84-45.04 5.88-90.03 12.43-135.09 18.33-22.59 2.96-45.06 6.73-67.64 9.8-51.8 7.53-103.76 14.02-155.52 21.88-12.56 1.74-25.15 3.06-37.67 5.04-5.28 1.67-10.82 2.04-16.26 2.86-53.86 7.75-107.75 15.62-161.74 22.14-7.94 2.31-16.31 1.61-24.33 3.41-3.7-0.5-7.32-0.27-10.86 0.92-9.37 0.92-18.62 2.93-28.02 3.44-4.93 0.89-10.1 0.46-14.72 2.7-1.71-0.74-3.56-1.08-5.34-0.4-3.42 1.02-7.28-0.98-10.42 1.1-4.36-0.23-8.8-0.01-13.1 0.73 0.42 0.87 0.83 1.76 1.22 2.67-0.42-0.16-1.27-0.46-1.7-0.61-1.63-0.58-3.26-1.05-4.93-1.43-6.5 0.99-13.08 1.37-19.5 2.76-8.25 1.71-16.67 2.43-24.93 4.09-8.46 1.88-17.27 1.96-25.52 4.78-5.7 0.46-12.4-0.48-17.16 3.21-1.64-0.27-3.27-0.56-4.92-0.58-2.45 0.99-4.7 2.89-7.5 2.45-1.85 0.27-4.52-0.9-5.55 1.16-1.64-3.21-5.72-0.62-8.41-0.73-0.04 0.58-0.13 1.74-0.17 2.31-1.03-0.37-1.82-1.08-2.24-2.09-8.33 1.24-16.81 1.17-25.07 2.81-10.35 1.44-20.79 2.32-31 4.57-19.12 1.8-38.04 5.29-57.08 7.66-3.05-0.11-4.09 3.68-7.09 3.56-11.42 1.54-22.71 3.85-34.04 5.91-16.98 3.26-34.17 5.24-51.11 8.7-9.51 1.46-19.2 1.79-28.56 4.1-5.5 1.35-11.22 0.44-16.72 1.77-5.3-0.09-10.26 1.85-15.44 2.57-3.5 0.63-7.15-0.77-10.53 0.65-3.77 1.46-7.7 2.4-11.51 3.74h-3.96c-2.18-3.4-7.16-2.21-9.39-5.53-0.25-2.75 1.92-5.17 3.94-6.78 2.36-2.22 5.82-1.79 8.57-3.16 0.94 0.44 1.79 1.03 2.56 1.76 1.54-2.58 4.19-3.9 7.12-4.14 8.81-1.11 17.35-3.82 26.23-4.49 1.83-0.09 3.56-0.74 5.26-1.37-4.11-0.17-8.21 0.23-12.27 0.87-4.14 0.65-8.62 0.44-12.26 2.84-0.91-0.36-1.82-0.72-2.73-1.06-1.77 0.24-3.54 0.41-5.32 0.51-1.82 0.65-3.68 2.06-5.68 1.45-1.8-1.2-3.44-3.44-5.87-2.44 1.77 3.32-1.42 3.69-3.69 3.96-1.67-1.28-0.16-2.98 1.38-3.27 2.04-0.53 3.16-2.44 4.52-3.88l-0.47 2.17c2.74-0.67 5.59-0.97 8.2 0.37 2.28-1.36 4.82-2.19 7.48-2.37 0.25-0.52 0.75-1.54 1-2.05-0.63-0.2-1.9-0.59-2.53-0.79 1.14-0.82 2.42-1.34 3.84-0.99l-1.57 1.34c0.62 0.46 1.25 0.91 1.89 1.37 4.63-1.56 9.99-1.08 14.19-3.67-2.15-1.29-4.57-1.59-7.01-1.37-0.29-0.51-0.87-1.52-1.16-2.02-3.9 0.44-7.84 1.43-11.76 1.09-3.06-0.64-2.27-4.13-2.51-6.41 2.23 0.31 4.6 1.25 6.78 0.18 5.21-2.17 10.93-2.45 16.43-3.44 19.13-3.89 38.49-6.57 57.77-9.57 6.45-0.02 12.67-1.93 19.09-2.37 31.63-4.46 63.31-8.61 94.89-13.49 5.47 0.01 10.65-1.84 16.05-2.22 4.79 0.06 9.28-1.86 14.04-2.07 10.32-1.41 20.77-2.05 30.98-4.25 15.73-2.04 31.43-4.28 47.17-6.32 9.92-1.6 19.8-3.36 29.8-4.44 21.71-2.76 43.32-6.41 65.05-8.94 4.73-0.24 9.2-2.14 13.98-2.08 20.56-3.29 41.33-5.32 61.89-8.75 11.58-0.95 22.94-3.44 34.49-4.69 14.47-2.32 29.09-3.71 43.52-6.34 6.45-0.16 12.73-1.77 19.13-2.45 12.38-1.56 24.72-3.37 37.06-5.22 6.72-0.34 13.18-2.63 19.93-2.53 59.3-8.8 118.6-17.18 177.92-25.82 19.17-2.35 38.24-5.27 57.41-7.69 11.4-1.67 22.77-3.7 34.26-4.83 22.09-3.28 44.18-6.56 66.35-9.27 20.71-3.89 41.8-5.11 62.56-8.78 10.79-1.51 21.62-2.69 32.41-4.26 21.28-3.46 42.7-6.07 64.03-9.26 73.9-10.06 147.66-21.16 221.55-31.24 24.82-3.79 49.68-7.19 74.53-10.75 3.47-0.61 7.24-0.37 10.45-1.99 1.86 0.52 3.79-0.09 5.69-0.27 31.65-3.99 63.2-8.8 94.84-12.92 12.58-2.09 25.24-3.77 37.88-5.5 10.43-0.58 20.57-3.37 30.99-4.1 18.81-3.35 37.85-5.17 56.68-8.38 19.14-2.29 38.14-5.62 57.33-7.54 5.74-0.38 11.32-2.59 17.13-1.89 3.16 0.59 5.7-2.3 8.88-1.99 5.89 0.51 11.34-2.24 17.2-2.23 0.41 0.31 1.22 0.95 1.63 1.27 2.46-1.71 5.57-1.09 8.4-1.14 0.92-1.67 2.32-2.41 4.28-1.96-0.28 0.59-0.84 1.79-1.11 2.38 2.17-0.67 4.33-1.46 6.58-2.02 3.23-0.94 6.61-0.06 9.93-0.52z"/>
<path d="m2209.8 400.49c-0.1 0.23-0.29 0.69-0.39 0.92-1.08 0.12-2.2 1.05-3.15 0.22-1.11 0.52-2.41 2.02-3.59 0.36-0.93 2.69-4.69 0.68-6.76 1.47-1.79 1.39-4.15 0.99-6.2 0.99-0.44 0.32-1.33 0.96-1.77 1.28 2.41-3.75 7.32-3.22 11.2-3.1 3.14-2.47 7.58-0.03 10.66-2.14z"/>
<path d="m2186.3 408.16c0.8-1.39 3.39 0.03 2.33 1.4-0.95 1-3.41 0.05-2.33-1.4z"/>
<path d="m2176.3 417.12l0.67-0.47c0.17 0.34 0.52 1.01 0.7 1.34l-0.67 0.46c-0.18-0.33-0.53-1-0.7-1.33z"/>
<path d="m496.08 443.75c7.43-0.91 15.46-2.69 22.56 0.64 6.04 2.88 7.96 10.42 6.7 16.54-1.84 9.38-4.07 18.68-5.93 28.06-1.7 7.97-6.48 15.34-13.38 19.76-7.98 5.28-17.76 6.55-27.06 7.6-12.24 1.96-24.57 3.39-36.8 5.43-1.44 8.12-3.34 16.16-4.85 24.27-0.7 3.74 0.07 7.53 0.05 11.27-3.62 1.37-7.6 1.17-11.36 1.95-10.23 1.41-20.41 3.22-30.67 4.24 1.43-4.49 4.27-8.44 5.23-13.11 4.56-21.49 9.25-42.94 13.66-64.46 1.59-6.97 3.25-13.95 4.26-21.04 0.48-3.01 0.08-6.03-0.59-8.96 0.39-1.29 1.93-1.17 2.96-1.45 25.08-3.55 50.16-7.07 75.22-10.74m-42.37 24.36c-2.75 11.47-4.62 23.17-7.59 34.57 10.63-1.22 21.24-2.91 31.85-4.47 2.9-0.15 5.55-2.22 5.88-5.2 1.79-9.93 5.02-19.68 5.77-29.76-12 1.16-23.92 3.41-35.91 4.86z"/>
</g>
</g>
</svg>
