<svg width="1226pt" height="812" viewBox="0 0 1226 609" xmlns="http://www.w3.org/2000/svg"><g fill="#ef3125"><path d="M580.2 6c6-5.8 15-6.6 22.9-5.2 4.7.8 9.4 3.3 11.5 7.8 3.1 4.6 3.5 10.7.8 15.6-3.1 6.8-9.2 13.3-7.8 21.3C611 61.8 622 76 622.6 93c-8.8 4.8-15 13.7-24.8 17-8 2.8-16.4 4.3-24 8-1.7 3.7-1.4 8-1.8 12 .7 5.5 4.6 9.8 6.8 14.7 7.7 0 15.4-1.9 23-.1 4.2-2 7.9-5.7 12.9-6.2.5-6 5.8-10.9 4.6-17.1-.4-2.8-.6-5.5-.5-8.3 4.5-2.5 8.5-7.1 14.1-6.5 3.5 1 7 1.9 10.4 3.3.7 2.3.6 5 1.7 7.2 4.2 5 10.4 8.2 14.1 13.8 3.5 5.5 1.7 13-3 17.2a85.6 85.6 0 0 1-17.9 11.3c-6.7 3-13.7 6.5-21.3 5.4-5.5 3.5-10 9.4-16.8 10.2-3.6.4-6.8 2.3-10.3 2.7-6 .8-10.8 4.6-16.3 6.9-3 1.3-5.8-1-8.5-2-4.5-1-8.7 1.4-13 2.3-6.9-1.7-12.2-6.8-18.7-9.2-.2 5.6-2.6 10.8-2.7 16.3-.3 5-.2 10.8-4 14.7-3.4 3.6-8.8 3.7-13.4 4a12.8 12.8 0 0 1-13.7-7c-1.7-3.3-2-7-2.3-10.6-1.1-8 4.5-15 4.6-23-.2-2.2-1.5-4-2.3-6-8.2.4-16.4.8-24.6 1-6.2.3-12.6 2.6-16.4 7.6.3 4 .2 8.2 0 12.2a50 50 0 0 1 4 33.3c-8 4.5-17.1 7.5-26.3 7.2-4-6.8-11.8-12.6-10.3-21.4 2.6-11.2 9.4-21.2 10.6-32.9-3.6-3.2-8.5-6.6-8.4-12-.3-3.6-2.5-7.2-1.2-10.9 2.3-4.7 6.6-8.7 7.2-14.2-.4-2-1.2-4-2.5-5.4-2.2-1-4.5.5-6.7.9-2.4-3.3-5.3-7.5-10-7.1-4.7.6-9.4 2-14.1 2.8-1.4 4-3.8 7.6-5.2 11.5-.6 2 .7 4 1.1 5.8 1.5 3.8.4 7.7.5 11.5-.4 5.5 1.5 10.8 2.3 16.2 1.5 9.9 2.8 19.8 3.6 29.8.2 4.5-1.8 8.8-3 13-1.3 3.3-2 7.1-4.3 10-3.4 2.9-8.6 4-10.2 8.8-6.5.8-13.7.9-19.4-2.9a22.4 22.4 0 0 1-6.3-20.7c2.9-16.2 9.4-31.4 13.5-47.3 2-8.8 3.3-17.9 3.4-27 .2-1.8-1.6-2.8-3-3.6-4-2.4-8.9-.1-12.6 1.8a118.8 118.8 0 0 1-34.2 13.3c-4.3 1-8.7.7-13 .8-5-.1-9.4 3.9-10.2 8.6-1 3.7 0 7.6-.6 11.4-.9 3.7-3.3 7-3 10.9.1 5.4 2 10.8 1.5 16.3A69 69 0 0 1 307 222c-.9 6.2-1 12.6-1.4 18.9.5 13.3.9 26.7 4.1 39.6 1.2 4.4.1 9-.2 13.4-1 5.8 5 9.5 5.9 15-.2 2.6-1.3 5.2-1.2 8 .1 3.6 1.1 7.1 2.4 10.6 1.6 1 3.2 2.3 4.7 3.5 4.3-2.6 9.3-4.2 13-7.9 4.5-4.8 8-10.6 13.5-14.5 1.7-.7 3.7-.3 5.5-.4 1.6-2.1 2.7-4.5 4.2-6.6 4.4-3.6 9.4-6.5 14.7-8.7 2.1-1 4.5-.6 6.8-.6 4.7.2 9.4.6 14 .9 4.8-.1 8.3 3.5 12 5.7 6.1 4 13.6 4.3 20.2 6.6 7.7 4.9 15 10.3 22.2 16 4.8 4.7 7.2 12 14.2 14.1l-.2 4 2.5.6c-.3 2.3-1.7 4.7-.7 6.9 1.6 4.3 2.9 9 6.3 12.4 2 2 4.8 2.6 7.4 3a92 92 0 0 1 3.5-2.4c.9-6.2 3.7-12.5 2-18.9-3-6.4-10.5-8.8-17.2-9.2l-2-11.1c2.7-4.2 6-8 8.3-12.4 2.1-5.7.3-12.3 3.4-17.7 1.1-.8 2.6-.4 3.9-.6 2.2-4.1 5.8-7.2 9.3-10.3 7.9-6.2 16.9-11 26.2-14.9 4.5-1.7 9.3-3.7 14.3-3 8.2 1.3 16 4.7 24.4 5.5a352.2 352.2 0 0 1 20.6-30c2-2.4 4-5.6 7.3-6.2 4-1 8 1.2 12 0 18.9-5.1 38.6-6.4 58-7 8-.9 16 .2 24 .4 3.3 10.6 16.2 13.3 20.2 23.4 2.2 5.7 3.1 11.8 3.3 17.9 0 7.9.4 15.9-1.2 23.7-1 5.3-2 11-4.9 15.7-5.3 7.2-12 13.2-18.3 19.5-3.7 3.9-9.6 4-13.5 7.4-.7 3.1-1 6.7 1 9.5 3.9 6.7 8.6 13.6 15.9 17 4.6 3.8 6.4 9.9 10.1 14.5a20 20 0 0 0 14.1 8.5l-.2 2.7a36 36 0 0 1 23.8 17.6c1.7 2.7 0 6 1.1 8.8 1.6 5.2 3.6 10.6 2.9 16.2-.5 4-3.6 7-5.9 10.2-4.1 5.1-8 10.6-12.8 15.1-1.5-1.6-2.5-3.4-4-5-2-1.2-4.9.6-6.5-1.4-1.6-2.4-1.9-5.4-3.5-7.7-1.6-2-4.5-1.3-6.7-1.5-3.4-2.6-3-7.1-3.4-11-.7-5.7-.7-11.5-1.2-17.4-1.5-2-2.5-4.5-4-6.7-3.6-3.6-9.7-2.2-13.3-5.8-2-2.7-2-7-5.6-8.1-3.9-1.6-8-2.1-12.2-3-3.6-5-3-11.5-6-16.7-2.7-5-8.3-7.3-12.2-11.3-2.4.1-5.4-.3-7.2 1.8a7.5 7.5 0 0 0-.3 7.8c2.4 4.2 5 8.1 7 12.5.5 4-1.3 8 0 12 1.8 4.6 5.8 8 7.7 12.5 2 4.6 2 10 .5 14.7-2.3 6.4-.6 13.3-1.3 20-4 10.3-12.8 17.3-21.4 23.7l.4 2.4-9.8 8.1c-5.2 4-12.2 4-18.4 3.7-1.8-3-4.8-5.1-8.5-5.3-.5-2.8-1.3-5.6-2-8.4h-6.4c-1.3-6.4-8.6-8.8-10.8-14.8-1.6-2.9 1.7-6.1-.2-8.9a66 66 0 0 0-10.7-13.2c-1.1-1.2-2.9-1.3-4.3-1.8-2.3-3.8-4.2-8-7.6-10.8-1.8-1.7-4.3-1.1-6.5-1.1-3.2-1.9-4.3-6.5-8.2-7.5-1.8-.3-5-1.4-5.6 1.1-2 6.5-2.3 14.1 1.4 20 5.1 9 13.1 16.4 16 26.5 1.6 6-2.6 11.3-3.4 17-1.1 6.5-2.6 13.4-7.4 18a16 16 0 0 1-12.6 4c-6.2-4-13.7-4-20.4-6.8-.6-1.9-1-3.9-1.1-5.8 1-1.4 3.2-2.4 2.7-4.4-1.3-4-4.5-7.1-6.8-10.7-1.9-2.4-.5-5.5-.3-8.2.8-4.4-.8-8.6-.6-13-.2-15 1.4-30.8-5.5-44.6l-5-1c-2.1 5.2-6.4 9.3-8.3 14.6-1.4 8.3-1.7 16.6-2.6 25-.6 7 2.4 14 1 20.9-2.4 7-8.1 12.3-12 18.6-1.3 2.4-.5 6.1-3.3 7.7a54.6 54.6 0 0 1-21.2 7.8c-4.8 1.4-8.6-3.3-13.4-2.4l.2 2.8c-4.8 1.7-9.7-.5-14.7-.2-13 .5-26-1-39-2.2-5-.8-10-1.3-14.7-2.6-12.8-4.8-21.7-16.3-34.3-21.5-.6 11-.9 22-1 33.2-.4 9-1.4 18-3.1 27-1 5 .1 10.6-2.6 15.2A76.5 76.5 0 0 1 297 554c-1.7 1.7-3.4 3.8-6 4.1-4.7.8-9.4 1.2-14.3 1.3-3.4-3.2-8.3-3.5-12-6.2-.6-2.2-.7-5-2.8-6.3-1.8-1.4-4.3-1.9-5.7-3.8-2.4-3.6-6.2-6.4-7.6-10.7-.9-2.5 2-4.8.6-7.2-2-4.1-5.1-7.5-7-11.7-1.8-4.8-1.1-10-2-14.9-1.5-2.8-4-4.8-5.5-7.6-1.5-5.5 2.5-10 4.1-15-9-9.1-8.9-23.5-16.7-33.5a170 170 0 0 0-3.8-.5l-.7-4.2c-2.3.3-5.2 0-6.2 2.6-2 3.7.5 7.6.2 11.5-.3 7-2.2 14-1 21.1-1.3 2-3.8 4-3 6.8 2.5 9.3 8.6 17.4 9.7 27 1.4 10-4.8 18.6-6.2 28-1.3 6-.6 12.1-1 18.1-.3 6.7-5.5 12.6-3.7 19.4l-4.2 1.9c-1.7 4.3-.9 9-.5 13.5 1 7 2 13.8 2.8 20.7h-2.8c-.8-9-3.6-18-9.3-25.3-5.8 2.6-11.6-1.1-17.4-1.6-3.2-.3-7-.1-9.4-2.6-7.4-9.5-8-22.2-14.5-32-1.4-2.2-3.3-3.9-4.8-5.9.3-2.4 1.5-4.7 1-7.1-1.2-3.7-4-6.5-6.3-9.5-2.5-.1-5.2-1-7.6 0-1.7 1.4-3.1 3-4.7 4.5-3.2-5-3.2-11.2-2.5-17 .4-6 2-11.8 2.7-17.8-3.4-2-5.5-5.7-7-9.2.9-2 1.9-4 2-6.3a44.9 44.9 0 0 1-8.7-8.7c1.1-1.9 3-3.6 2.5-6-.9-4.2-3.1-9-.7-13.1.5-1.3 1.9-2.4 1.3-3.9-1.8-3.4-4.1-6.4-6.5-9.4.5-1.7 2.2-3.6.6-5-2-2.1-4.3-3.9-5.8-6.3 1.8-2.8.9-6.2.8-9.3-1.7-.1-3.4-.1-5-.5-1.6-4.5-2.4-9.2-4.5-13.4-.7-1.4-2.1-1.8-3.3-2.5a11.8 11.8 0 0 1-5.8-6.6c0-2.6.8-5.1.6-7.8A18 18 0 0 1 83 381l3.7-2.5a22 22 0 0 1 .2-8.5c-2.2-3.2-5.8-6-5.3-10.4l-3.2-1.2c.6-2.8 1.8-5.8.8-8.6-1-1-2.8-1-3.6-2.2-1.4-5 .1-10.7-2.6-15.4l-3 .6c-1.6-3.8-1.4-8-2-12-.4-3.2-2.7-5.7-5-7.9.5-5.4-.8-10.8-3.6-15.5-2.9-5.8-7.8-11.6-6.3-18.6-3.4-6.5-7.2-12.9-10.6-19.4-.8-1.4-.8-3-.6-4.5A82.1 82.1 0 0 1 24 232.4h-2.5c-2.9-5-2.5-11.2-6.4-15.7-2.4-.7-4.7-1.5-7-2.5l-.5-4c-1.8-1.2-4.6-1.3-5.4-3.6a30.3 30.3 0 0 1-1.3-16.8 59.8 59.8 0 0 1 8.9-22.2c3.7-6 11.2-7.5 16.2-12.3 7.3 2.6 14.6 5.5 22.4 6.6l1.4-2.6c1.1.8 2 2 3.4 2.5 2.3-.3 4.6-1.3 7-1 1.3 1.2 2.1 2.7 3 4 2.6-.4 5.2-1 7.8-.7l1.6 4.3 4.7 1.2c1 3 0 6.2.1 9.4 2 1 3.6 2.3 4.2 4.5 4.4 11 6 22.8 7.3 34.6.5 4.6 0 9.2.4 13.8.7 4 3.9 6.7 6 9.8 1.6 1.9 1.3 4.5 2.6 6.5 4.6 8.1 8.5 16.6 12 25.2 1.5 3 1.2 6.6 3.1 9.4 4.1 7.2 10 14.2 9.6 23l2.7-1c1.2 8.4 6.4 15.4 10.5 22.6 1 1.7 1.5 3.7 1.8 5.6 1.5 1 3.3 1.6 4.5 3 1.5 3.8.9 8 .4 11.9 2.6 4 5.2 8.2 7.3 12.5 2.7 5.6.7 12.2 2.9 18 3.5 6.7 9.3 12 12.2 19.2 1.8-.7 3.6-1.2 5.5-1.7a51.1 51.1 0 0 0 3.7-24c0-12.1-3-24-6.3-35.8-1-3.7-2.7-7.3-3-11.2-.3-3.7-.1-7.4-.3-11-1.4-1.1-3.3-1.7-4.2-3.3-.3-3.2 1.8-6.7-.3-9.6-2.6-4-5.1-8-7.2-12.3 0-2.3 0-4.5-.2-6.8-2.2-2.4-2-6-4.2-8.4-2.4-1.9-5.1-3.3-7.4-5.4-.3-1.9 0-4-1.3-5.7-4.4-6.5-9.8-12.5-12.8-19.9-2.2-5.6-1.1-11.7-1-17.6-.2-3.5-3.7-5.8-3.5-9.4 0-1.9.3-3.8.4-5.7 5.5-4.8 11-9.6 16.2-14.9 4.4 1 8.8-.3 13.2-.1l.1 2.1c2.8-.7 5.6-.4 8.4-.4l2.5-2.5c4.6 1 9 3 13.7 3.6 2.1-.9 4.3-1.3 6.5-1.5 1.4-1 1.5-3 2.3-4.6 3.8-1.1 7.8-1.7 11.9-1.9 0-2-.1-4-.4-6a7 7 0 0 0 4.8-5.7c.2-3.5-1-7 0-10.6.8-2.3 3.3-3.4 5.4-4.4l.8-1.9c-.5-1.7-1.3-3.4-.8-5.3 1.3-8.8.8-18 4.3-26.3.5-2.5 3.5-1.8 5.3-2.5 15.2-2.3 27.5-12.4 42.1-16.5 8-1.7 16.5-1.3 24.3 1.1 4 1 5 6 8.8 7.2 7.2-3.3 15.4-2 23-3.7 11.6-3 22.2-8.8 33.7-12.2 6.9-2 14.3 0 21-2.2 4.4-1.3 4.9-7 9-8.7 7.8-3.7 16.8-4.5 24.4-9 8-4.4 15.4-10.7 24.7-12.2 6.2-1.2 10.8 5.8 17 3.6 10.5-3.2 18.5-12.6 30-13a59.1 59.1 0 0 1 4.8 20.8c-8.7 4.7-18 8-26.7 12.7 1.4 6.3 4.5 12 6.1 18.1.8 2.5-1.5 4.6-1.6 7 .4 3 1.3 6 2 9 3.6.9 7.4 2 11.1 1.7 2.9-3.3 5.3-7.2 9.4-9.2 5.2-.7 10.8.2 15.6-2 4-4 5.7-10.6 11.6-12.5 4.5-1 9.8-1.8 14 1 3 1.8 6 4.3 6.7 8 1.8 7.3-2.4 14.5-1.2 22 1 5.4-.6 11.2 1 16.6.8 2.9 3.5 4.5 6.4 4.7 1.4-4 2.4-8.2 3.6-12.3l3.2-1.2c-.2-1.8-.9-3.7-.7-5.6 1.4-4 4.4-7.1 5.7-11.1 1.8-3.7-1.6-7.2-1-11 .8-1.6 2.4-2.7 3.6-4 1.8-6.5 1.4-13.4 1.6-20-.1-7.5 0-14.9-1-22.2-1-7.3-8.3-10.8-13.4-15-.2-7.5 1.1-16 7.4-20.9 2.6-1.6 5.7-3.4 8.8-3 4.2 2 9.2 3.4 13.8 1.6 1.5-4.4 5.3-7.4 7-11.8 2.4-5.6 3.3-12 7.5-16.8m-6.7 62.7c.4 3 .5 6 .4 9A61 61 0 0 0 605 66c3.3-2 2-6.6 1.8-9.8-1.3-3.5-4.6-5.8-6.7-8.9-10.9 4.2-18.7 13.2-26.5 21.5m-367.1 132c-2.5 9.3 0 18.9-.3 28.3-.4 11.5 9.2 21.3 6.7 33-1 4 1.3 7.7 3 11.2 1.4 2.4.8 5.2.5 7.8 7.2 13 12.8 27.2 22.2 39-.3 2.4-1.4 5-.7 7.4 10.5 18.4 12 40.6 23 58.8 3.1 5.1 8.4 9.5 14.7 8.6.6-16.6 0-33.2-2.1-49.6C271 334 272 322.4 271 311c-1.8-7.3-7-13.4-7.6-21-.8-9.3.6-18.6 1.3-27.9.8-8.1-1.7-16-2.8-24-1.4-9.5-4.3-18.6-7.7-27.4-7.4-4.9-15.2-9.1-23.3-12.6-1.8-.6-3.9-2-5.8-1-5.9 2.7-12.5 2.5-18.7 3.6m426 52.7c-3.6 2.2-8.2 3.6-10.2 7.8a44.3 44.3 0 0 0-4.7 18.8c1.6 4.8 3.8 9.5 7 13.4 3.4 4.4 9 6.4 14.2 6.9a35.7 35.7 0 0 0 18.6-11.9c3.2-4.9 8-10.5 5.7-16.7-3.5-9-12.7-14.2-21.2-17.5-3-.9-6.5-3.1-9.3-.8m-118.6 52.1c-2 2-4.8 2-7.4 2v3.2l-4.1-.7c-.2 1.6-.8 2.8-2.5 2.8-6.1 7.6-4 18.8 0 27 6.6.4 13.3 0 20 .4 2.8-5.9 10.1-7.3 13.7-12.6 3-3.4 1.5-8.1 3-12l-5.5-5.8c-5.9-1-11.4-3-17.2-4.3M579 331c-6.8 8.6-8.5 20-15.4 28.5-5 5.9-12.4 10.4-14.6 18.2 4 5.2 7 11 11 16.2 5.4 7.1 13 13.2 22.3 13.7 2.3-2 5.4-3.5 6.8-6.5a74 74 0 0 0 2-8c.2-3.4-1.3-6.6-1.8-10-1.2-5.6.8-11.3-.2-16.9-.6-12.3-4-24-6.3-36-1.3 0-3-.6-3.8.8m-198.4 8.7c-6.4 4-14.6 2.3-21.2 6-5 2.6-9.7 5.5-14.7 7.9l.4 3h-4.5c-3.5 3-5.3 7.4-8.3 10.8-4.1 4.2-12 3.3-14.4 9.4-2.2 5.8-1.6 12.1-1.7 18.2.1 4.8-.8 10 1.7 14.3l5.3.2c4.3-4.5 10.6-6.8 13.9-12.3 4.7-6.6 8.4-15.2 16.8-17.9 3.5-4.9 8.9-8 13.4-11.8 6.3-5.5 15.2-6.4 23.1-5.2 7.6.7 15.3 3.1 22.8.7 4-1.2 8.7-1 12-3.8 1.7-1.9 2.9-4.5 2.2-7-2.2-5-7.4-7.7-12.4-9.3-11.2-2.9-23.2-.2-34.4-3.2m10.5 57.8c-.7 1.2-1.2 2.6-2.4 3.4-6.1 4.9-14.8 6-20 12-5.7 6.4-6.3 15.3-7.5 23.3 3 3 5.7 6.6 6.7 10.9 5.1 3.3 10.3 8.1 16.9 7.4 7.7-1.8 14-8.6 22.4-7.9 2.6-5.5 8.6-8.1 14-9.6.2-9.1 6.8-16.9 6.1-26a36.3 36.3 0 0 0-8.4-14.7c-6-1-12-2.3-18-2.1a25.2 25.2 0 0 1-9.8 3.3ZM721.7 146a24 24 0 0 1 15.6-6.4c4 2.8 9.7 4.1 12 9 2.7 5.3 4.9 11 6.6 16.8 1 4.5 2.3 9.1 1.3 13.7-1.7 3.6-5.8 5.3-7.3 9-.7 2.4-1 4.8-1.3 7.2 6 7 13.2 13.8 15.5 23 2.8 10.8 3 22.3-.1 33-1.3 5.3-6.1 8.7-8.4 13.5-1.3 2.4-.1 5 .6 7.3-.5 3.2-2.5 5.8-4 8.6-2.1 4-1.8 8.6-1.6 13l2 1.4c1.2 4-.8 8-.4 12 1 3.8 2.4 7.5 3.2 11.4 1.3 2.8 3.8 4.8 5.9 7h5l2.2-2.3c-.3-4.4-.2-8.9 1-13.2 4-15.4 12-29.3 21.2-42 .8-11.2 3.4-22.1 7.2-32.6 1.2-3 2.5-6.4 5.3-8.5 3-1.6 6.6-1.4 9.7-2.8 4-2.1 2.7-7.6 6.1-10.1 5.6-4.8 12.4-8.1 19.4-10.4 5.7-2 11.4 1 16.3 3.7 11 4.5 22.5 7.6 33.2 12.8 4.9 2.3 11 1 15.2 4.8 9.5 8.1 16.2 19 21.6 30.3 2.7 5.7 3.3 12.2 6.4 17.8 2.3 3.9 7 5.3 11.4 5.6.1-2.9.1-5.8 1-8.5 2.4-8 9.5-13.7 11.6-21.9 2.5-11 1-22.6 2.4-33.8 4-4 7.6-8.8 13.6-9.8 6.5 4 13.6 7 21 9.2 3.8 1 7.7 2.6 11.7 1.7 5-1.2 9.9-3.3 15-2.3 12.1 2.2 22.6 8.9 33.7 13.8l-.4 2.4a77 77 0 0 1 15 16.8l-1.2 2.2 5.8 1.1c1.8-1.3 3.7-2.2 5.5-3.4 1.9-2.2 3-4.9 4.5-7.2h3.7c.1-2.6 1.2-5.6 4-6.2 5.3-.8 11 .3 15.8-2.5a70.2 70.2 0 0 1 41.8-8.8c13 1 25.5 5.6 36.9 11.7 4.2 2.1 8 5 12.6 6.2a20 20 0 0 1 9.2 5c.3 4.2 5.2 3.5 8.2 4.3.4 2.6-2.2 3.3-4 4.2 4.3 5.1 10.8 8.3 13.8 14.5 3.6 6 1.8 13.1 0 19.3-1.4 4.7 1.7 9.4.2 14-2.7 8.2-8.6 15-15.7 19.6-6.4 4-14.2 6.2-21.7 4.4l-1.5 1.5c-1.3-.7-2.5-1.8-4-2-2.6.4-5.2 2.2-7.8.5l.6-2-3.6 1.7a45.8 45.8 0 0 1-11.8-17.9l-2.2-.2c1.6-3.6-1.1-6.7-2.8-9.7-3.1-5-6.6-10.6-12.8-11.8-5.3-2-8.8 3.5-12.2 6.6-1.8-.2-3.7-.8-5.4.2-5.3 2.5-10.6 5.2-15.8 7.9-3.4 1.9-7.6-.6-11 1.5-2.6 1.5-5.1 3.5-8.3 3.6-.2 4.3-4.1 7.2-4.4 11.4.8 6.1 1.2 12.5 3.4 18.3 4 5.5 8.2 11 12.4 16.5a62.9 62.9 0 0 0 20.5 18.3c5 2.5 10.5 4.6 14.2 9 2.7 3 5.2 6.2 7.6 9.4 1.8 2.6 4 5.1 4.2 8.4a58.7 58.7 0 0 1 17.4 26.3c1.2 4.2-.8 8.6.5 12.7 2.8 10 2.6 20.6.5 30.7-.4 1.7-.7 3.5-1.6 5-3.8 2.9-8.3 4.8-11.5 8.5-2.2 2.6-3 6.2-5.7 8.4-3.4 2.1-7.6 1.6-11.3 1.6-4.3-.3-8.1 1.7-12 3.1-6.2-1.5-12.5-3-18.9-2.4-3.9.3-6.3 3.5-9.5 5.3-4.3 1.4-8.9 1.5-13.2 2.8-7.5 3.1-12.2 10.9-20.5 12.4-4-.4-6.9-3.1-10-5.4l-1.8 2.7c-6-2.4-11.1-6.5-15.9-10.8a49 49 0 0 1-9.8-11.7 33 33 0 0 0 3.4-11.1c7.7-3.6 13.5-10.5 21.8-13.1 9-2.5 17.5 3.3 26.3 4.5-.3 2.1-.7 4.2-.5 6.3 1.2 3.3 4 6.5 7.9 6.2l1.6 1.5 6-2.7c2.4 1 4.5 2.3 7 3.2 2.6.4 5.2-.4 7.8-1.2 6.7-2.2 13.6-4.3 20-7.6 3.8-2 5.5-6.2 7.3-9.9 2.8-6.4 5.6-13 5.8-20.1.2-4-2.6-7.1-3-10.9-.8-5.6-3.6-10.7-6.3-15.6-1.4-2.1-2.8-4.8-5.5-5.5-2.6-1-5.8-1-7.8-3.3-5.6-5.6-5-14.8-10.5-20.5-5.8-5.1-14.7-3.5-20.7-8.3-3.9-4-4.8-10.2-9.1-13.9-3.2-2.3-7.5-1.1-10.7-3.2-3.7-3.2-4.7-8.9-9-11.4-1.8-5-2.8-10.3-3.8-15.5-.4-2.4 2.7-4.1 2-6.6-1.7-6.4-5.4-12-8.5-17.8-8 1.7-16 4.2-23.7 6.8-5.2 1.9-10.5 3.8-15 7-2.3 1.4-4 4-3.6 6.8.5 3.2 2.5 5.9 3.6 9a77 77 0 0 0 7.5 29c2 4.3 6.2 8.3 11.3 7.5 5-1.1 8.7-5.3 13.6-6.9l2.6 1c4.3 6.4 3.1 14.3 1.2 21.3-1.5 6.7-5.5 12.9-5.2 20 0 5.9.1 12-2.6 17.4-2.6 6-8.4 9.2-13 13.4-1.6 1.7-4.2 1.5-5.9.2-3.3-2-7.7-2.6-9.6-6.4l-9.4-15.4c-4.4-8-4.3-17.5-6.3-26.3-.7-3.6-2.7-6.7-4.1-10-.2-3.2 1.1-6.7-.8-9.5-2.5-4.2-7.8-7-7-12.6l-2.7-.3a729 729 0 0 1-2.4-3.5c-2 .5-4 1-6.1 1.2.5 4.3-3.2 7.5-3.1 11.7-.5 3.6 1.5 7.4-.2 11-3.3 8.7-5.4 17.8-7.7 27-4.5 2.2-7.8 6.9-13.3 6.6-4 2.2-6.1 6.6-9.3 9.7-6.4 2.6-13-1.1-17.3-5.7-4-4.4-7.4-9.6-8.1-15.6.4-2.3 2.2-4.3 2.3-6.8.6-5.6-.5-11.3 1.3-16.8-2.4 0-5-1-7 .7-3.3 2.1-7 3.4-10.6 4.7l-1 1.7c-2-.3-3.9-1.1-5.8-1-3.3 2.4-5.2 6.4-9 8-8.8 3.5-18.4 2.8-27.7 2.7-5-.2-9.1 3-13.8 4.1-2.9 0-5.3-2.4-8.2-1.8-4 .5-8 1.3-12 2l-1.7-2.7c-2.8-.6-5.6-1.3-8.2-2.5.2-1.4.4-3.3-1.4-3.8-4-2-8.4-3.3-12.1-5.8-2.9-2-4.5-5.2-6.3-8.2-3.6-1.5-7.4-3-11.4-3.6-4.5 11-2.3 24-9.1 34-5.6 5.5-13.9 8-21.6 7.4-3.5-6.7-9.2-11.8-14.6-16.8-1-.8-1.9-2-1.6-3.3a122 122 0 0 1 3-22c.8-3.4 2.2-6.6 2.8-10 1-6.4-4.9-11.7-3.2-18 1-6.5 2.9-12.8 3.5-19.3-.7-4.7-2.7-9-3.6-13.6a160.6 160.6 0 0 1-4.8-35.3c-.2-2.3.6-4.8-.7-6.8-3-5.1-7.6-9.3-9.8-14.9l-3-.1c-3-4.3-7.3-7.8-8.8-13 3.6-.8 7.4-2.4 9-5.9 2.8-5.9.4-12.6 2.1-18.7a35 35 0 0 0 4-25.6l-4.2-3.9c.2-2.5 1-5.1 0-7.5-2.1-3.4-6.2-5.3-7.7-9.3-1.3-3.8-2.5-8.2-.8-12.1 1.6-4.4 3.7-9.4 8.3-11.3 2.5.8 5.1 1.2 7.7.8v-2.7m5.6 75.3-.3 2.8 6.2 1 .7-4.9c-2.2.4-4.5.3-6.6 1.1m397.6 14.8c-1.4 1.6-3.6 3-2.2 5.4 1.9.7 4 .8 6 .2 1-1.7 1.2-3.7 1.6-5.5h-5.4M981 251c-5.6 8.3-4.6 19-3.8 28.6l4.2 1.5 1.9-1.3c1 2.1 2.3 4.4 4.8 4.8 6-.2 12-1.5 17.4-4.4 6.6-3.5 11.8-9.2 18-13.4 0-4.3 1.6-9.3-1.6-12.9-3.5-5.1-10-5.5-15.5-6.5l.6-1.8c-4.8-.2-9.3-2-14-2.4-3.7 3.2-9.4 3.3-12 7.7m-118.4 8.6c-3.6 2.4-8 3.1-12.1 4.1-1.2.4-3 .7-3 2.3-1 11.4 1.6 22.7 1.2 34h-2.1c.2-6.5-.7-13-2.4-19.4-1.5-4.6-3.8-9.3-8-11.9-2.5-1.3-4.9.8-7.3 1.3-1.8.7-4.8.3-5.3 2.8-3.5 9.3-7.3 18.6-11.1 27.8-2 3.5-.5 7.6-.5 11.4 1 13.8-.6 28.8 6.7 41.2 4 6.8 12.1 8.9 19.3 9.6 9.7-.8 18.5-5.4 26.4-10.9 7-4.7 14-9.7 18.8-16.8 5-7.4 7.5-16.2 9.8-24.8 1.8-7 2.5-14.4 1.1-21.5-.5-4.6-6-5.7-7.2-10 1.4-5.1 0-11-3.4-15.1-1.8-2.4-5-2.2-7.7-2.3-3.9-2.5-8.8-2.4-13.1-1.8m336.2 32.8c-.3 2.4-.8 4.8-1 7.1a12 12 0 0 0 4.7-2.6l.3-4.5h-4m-19.1 9.8.8 3.4 1.9-1.2v-1.5l-2.7-.7Z"/></g></svg>