<svg width="545pt" height="151pt" viewBox="0 0 545 151" xmlns="http://www.w3.org/2000/svg"><path fill="#fff" d="m213 126.8 1.3 1.5-.5 9.7h-1.2l-.4-.8.7-10.4Z"/><g fill="#dc0b2b"><path d="M256.4 9.8H267c.9 4.9 1.7 9.8 2.2 14.7.3 4 1.2 7.8 1.7 11.7l.7 6.9c1-10.1.4-20.3.4-30.4V9.8h9.3c.1 3 .3 6.1.3 9.2-.2 19.8 0 39.7-.1 59.5-3.8.2-7.7.1-11.5 0-.4-5.5-1.4-11-2.1-16.6-.8-5-1-10-2.4-15v9c0 7.5.3 15.1-.3 22.7h-8.5c.3-6.5-.3-13 .4-19.6l-.6-2.2c0-14.3.2-28.6 0-43v-4ZM284 9.8h22c-.1 3.8 0 7.5-.4 11.2h-5.2l-.1 3.7c-2 3.5-1.3 7.5-1.4 11.3.2 13.7-.1 27.4 0 41.2-2.5-.3-5.1-.4-7.7-.4-.3-18.5 0-37-.3-55.6h-1.1l-5.6-.3a85.7 85.7 0 0 1-.1-11ZM314.3 9.8H331c.2 3.5.2 7 0 10.5l-.2.7v-.2h-2.2l-3.7.1v3.7l.1 1.5V35c2 0 4.2 0 6.3-.2a140 140 0 0 0-.2 11.6 200.1 200.1 0 0 0-6-.2v4.3c-.5 5.5 0 11-.1 16.5h6c0 4 .1 7.9-.1 11.8h-2.6c-4.7-.7-9.4 0-14.1-.1V40c0-4.7-.4-9.4.5-14-.6-4-.6-8-.6-12V9.8ZM125.5 10.2a7 7 0 0 1 7.8 3.8l.6 3v1.4c-2.3 4.5-.8 9.8-1.3 14.6 0 3-1.6 6.1.3 8.7l-2.9 2.9c1.8 1.8 3.9 3.8 3.9 6.5.6 9.2.1 18.4.3 27.5h-9c-.4-8.3.2-16.6-.5-24.8l-1 1.2-.3.3c-.5-1.4-1-2.8-1.6-4l-1.7-.1h-.7c-.1 8.6.5 17.1-.4 25.6l-5.4.8-2.4-1c0-21.7-.2-43.5 0-65.3 4.8-.2 9.8.5 14.3-1.1M119 27c.2 3.8-.6 7.7.5 11.4l.8.7 1.7-1 1.3.2v-1c1.3-4.9 1-10.3 0-15.3v-.8l-3.1-.4c-1.9 1.5-1 4.1-1.2 6.2ZM160.7 14.4c.6-2.4 2.8-4.5 5.3-4.6 4.3-.7 8.7-.8 13 0 2.3.3 3.8 2.3 4.7 4.3l.4 1.4c-2.1 4.9-.5 10.2-1.4 15.3-.6 1.2-2 1.6-3 2.4l-3.6.4-2.2-.3-.2-8.3c0-1.6.1-5.6-2.5-4-.8 4.3-1.8 10 1.3 13.5 2.4 1.7 4.8 3.4 7.2 5.3 1.4 1.1 2.7 2.4 3.7 4l.8 3.4c-2.1 4.7-1 9.8-1.2 14.8.1 3.5-1 7.4 1 10.7-.9 2.3-2 5-4.8 5.5-4.5 1-9.3.6-13.8.2l-3.3-1.6a17.3 17.3 0 0 1-2-5.8c-.3-7 0-14-.3-21 3.3.5 7.5-1.1 10.3 1l.8 2.8c-.1 4.2-.8 8.8.4 12.9l1.5 1.1c1.2-4.8.5-9.8.6-14.8.2-1.6-.4-2.9-1.6-3.8-3-2.7-6.6-4.7-9.7-7.4-3-5-2-11.1-2.1-16.7 0-3.6-.2-7.2.7-10.7ZM189.1 9.8H200l.3 3.8c-.3 21.6-.2 43.3 0 65h-9.7l-1.4.1c-.1-23 .2-46 0-68.9ZM205.2 9.9c6.3 0 12.6-.2 18.9.2 3.6.3 5.3 4.2 6 7.4l.2 5.3c-.3 11.7-.1 23.5-.2 35.2 0 5.4.4 10.8-.8 16l-2.4-2c-6.5.1-13 0-19.4.2l-1 6c-1.6-9 0-18.1-.5-27.2-.5-8.4.5-16.9-.6-25.3-.6-5.2 0-10.5-.2-15.8m10.8 11c.3 15.6-.2 31.3.4 46.8l2.4-1c.6-3.2.3-6.5.3-9.8V25.7l-.3-4.5-2.8-.2ZM235 9.8c5.7 0 11.3.2 17 0l.5 11H246V35h.5l5.5.1.1 3.8c0 2.5 0 5.1-.3 7.7l-5.8-.3V67h6l.1 3.7c0 2.7 0 5.4-.4 8-5.3-.2-10.7 0-16 0h-.7V9.8ZM348 9.9l1.3 1.7 6.9.2c.4 3.8.2 7.6-.5 11.4-2.4 18-3.8 36.3-6 54.4l1.3 1.2-2.3-.1h-9.5c-2-21.5-3.3-43.1-5.9-64.5l-.2-1 .4-.2c2.2-2 5.2-2 8-1.8.4 2.3.7 4.7 2.3 6.5.4 3.6.2 7.2.8 10.8.4 8.1.4 16.4.8 24.6 1.3-6.3 1.2-12.7 1.5-19.1.1-6.8 1.1-13.6 1-20.4 0-1.2 0-2.5.2-3.7ZM361.1 9.8H372c.5 22.9 0 45.8.3 68.7l-2.9.1h-8.3c.2-6.1-.4-12.4.7-18.5-1-4.7-.6-9.4-.6-14.1V13.5l-.1-3.7ZM408.1 13.3c1.7-2.5 5-3.4 8-3.3 4.5 0 9.1-.4 13.7.2 4 1 5.7 5 5.9 8.7a98 98 0 0 1 0 15.3c-.4 3-2.2 5.4-4.6 7 6.2 4.2 4.5 12.4 4.8 18.8-.3 5.5 1 12.6-4 16.5-1.6.5-3.2.9-4.9 1.2-4.8 0-9.6.5-14.3-.4-3-.5-5.2-3.3-5.6-6.3-.9-5.2-.5-10.5-.6-15.7v-4.1h4.4l7.3-.2 1.4.2c.1 4.6-.2 9.3.2 13.9-.2 2.3 3.1 1.8 3 0 .6-5.7.4-11.5 0-17.1-2.4-.2-4.8-.4-7.2-.4 0-2.8 0-5.5.2-8.2v-4.3h4c.7 0 2.1-.4 2.9-.5a36 36 0 0 0 0-13l-3-1-.1 1.5-.7 9H414.7l-8.3-.2c.1-5.2.1-10.5.6-15.7l1.1-1.9ZM141.4 11.4c4.9.7 11.1-2 14.7 2.5v.1l-.1 7-6-.1V35h5.9l.2 3.2v.8l-.1 7.3h-6V67h2.2a59 59 0 0 0 3.8 0l.1 3.5c0 2.7 0 5.4-.2 8h-17.1l.5-.2 2.2-.6c-.9-6.9-.4-13.9-.5-20.8.4-15.2-.6-30.4.4-45.5ZM377.3 12.8c2.8-1.9 6.1-1.7 9.4-1.6.6 18.5-.4 37 .4 55.6h1c2.2.3 4.4 0 6.6.5.3 3.8 0 7.7 0 11.6a6 6 0 0 1-3.5-1.4c-.2 1.4-.2 3-.8 4.3l-.7-3.4c-4.1.3-8.2.3-12.4.3V12.8Z"/></g><path fill="#d60008" d="M348 9.8h10.2c-.3 4.1-.4 8.3-1 12.5l-.2 1.4-.4 1.1c0 1.8 0 3.5-.2 5.2-2 16.2-3.2 32.6-5.4 48.8-.3-.3-1-1-1.4-1.2 2.3-18.1 3.7-36.3 6.1-54.4.7-3.8.9-7.6.5-11.4l-6.9-.2-1.2-1.7Z"/><g fill="#000200"><path d="M184.5 17c2.5 6.2 2 13.2 1.1 19.7h-9l-.5-3.1 3.6-.4 4.9.2-.1-16.4ZM216 21l2.8.2.3 4.5-1.6-.6c-1.3 5.6-.7 11.3-.8 17 .1 5.6-.3 11.2.3 16.8.4 3 0 6-.6 8.8-.6-15.5 0-31.2-.4-46.7ZM184.2 47.2l1 2.2c-.1 8-.4 16 .4 24-.3 3.2-1.7 7.5-5.5 8a54 54 0 0 1-11.2 0c-1.6-.1-4.3-.8-3.6-3 4.6.4 9.4.8 14-.2 2.6-.5 3.8-3.2 4.7-5.5.9-8.5.6-17 .2-25.5ZM200.7 112c3-.8 2.1-5.5 5.5-6.2H225c2.1 0 4.5-.3 6.3 1.3l1-2.7-.7 2.2c1.3.8 2 1.9 1.8 3.4.1 8.7.2 17.4 0 26-.5-9.3.4-18.7-.9-28-.3 1.7-.7 3.4-.9 5.2l.2-5.4c-1.2-.6-2.5-1.3-4-1.5h-3.5c-5.2.2-10.4.2-15.7 0 .3 2.2-1.5 3.2-3 4.3l.4-.9c0-.9 1.6-3.1 0-3.3-2.8 1.4-3 4.7-3.8 7.3-1-1.3-2.4-.8-3.7-.7l-.7-3.8c1.1.8 2.1 1.6 3 2.7ZM362.3 115.5l.8-1.3h2.8v2.9l-3.6-1.6Z"/></g><path fill="#001611" d="m325.1 46.2 3.7.2-.3 4h-3.3v-4.2Z"/><path fill="#d7030a" d="M109.5 9.8c5.4.2 10.7-.2 16 .4-4.5 1.6-9.5.9-14.2 1-.3 21.9 0 43.7 0 65.5l2.3.9-3.8.8c0-3.9 0-7.7-.4-11.6l-.1-.9 1.2-1.7c-1.4-2.6-.8-5.5-1-8.2V9.8Z"/><path fill="#db0016" d="M139.2 9.9H156v4c-3.5-4.5-9.7-1.8-14.6-2.5-1 15.2 0 30.4-.4 45.6 0 7-.4 13.9.5 20.8l-2.2.6c-.4-22.8 0-45.7-.1-68.5Z"/><path fill="#d8000a" d="M333.2 9.8h10.2l.4 7.9c-1.6-1.8-1.9-4.3-2.3-6.5-2.8-.1-5.8-.2-8 1.8l-.3-3.2Z"/><path fill="#d60007" d="M377.4 9.8h10.8l-.1 57h-1c-.8-18.5.2-37-.4-55.6-3.3-.1-6.6-.3-9.4 1.6v-3Z"/><path d="m282.6 14.6 1.3-.2c0 2.2.1 4.3.3 6.5l5.6.2c-.5 19.2 0 38.3-.3 57.5 3 0 6 .1 8.9.4-1.6 4.2-6.8 2-10 1.4v-1.7c.3-18 .4-36.1 0-54.1l-5.3-.2.6-1h-1.2v-8.8ZM133.9 17l1-1.1c1 2.5 1.9 5.2 1.8 8 0 5.7.1 11.4-.1 17.1 0 2.9-2.3 5.1-2.4 8 1 2.6 2.6 5.2 2.4 8.1.2 8.1.2 16.3 0 24.4-3 0-5.8.3-8.7-.2l-.6-2.6h7c-.3-9.2.2-18.4-.4-27.6 0-2.7-2-4.7-3.9-6.5l2.9-2.9c2-7.5 1.2-15.5 1-23.3V17ZM403.7 20c.2-2.1 2-3.4 3.3-4.8-.5 5.2-.5 10.5-.6 15.7l8.3.1-.4 3.3c-3.6 0-7.2 0-10.8.2-.2-4.9-.6-9.8.2-14.6ZM120 20.8l3.2.4v.8l-.2 3.5c-1.5 4-.8 8.4-1.1 12.6l-1.7 1c0-6 .1-12.2-.1-18.3ZM419.7 20.6l3 1a36 36 0 0 1 0 13l-2.9.6c.4-4.4-.2-8.7-.2-13.1l.1-1.5ZM412.5 50.4c-.1-3.6-.8-7.3.3-10.8l3-.2-.2 8.2c2.4 0 4.8.2 7.2.4.4 5.6.6 11.4 0 17 .1 2-3.2 2.4-3 .1-.4-4.6 0-9.3-.3-14h-1.3l-5.7-.7ZM246 46.2c2 0 3.9.2 5.8.3l-1.4 3.1-4.4.2v-3.6ZM120.1 51.2h1.7l1.6 4.1c-.2 8.7-.1 17.4 0 26.1l-8.6.2-1.4-2.9 7-.3c-.3-9 0-18.1-.3-27.2ZM403.4 56.4l3-1.1c.2 5.2-.1 10.5.7 15.8.4 2.9 2.6 5.7 5.6 6.2 4.7.9 9.6.5 14.3.4l2.5.1c-1.7 1.2-3.4 2.6-5.5 2.7-5 .3-10 .4-15-.1-4-.6-5.7-4.9-5.6-8.4-.1-5.2-1.2-10.5 0-15.6ZM256.6 78.6h8.5l-1.6 3h-6l-.9-2v-1ZM131.7 106.7l3 1.3-.3 8.2c-5 .8-10.3 1-15.4.6l-.4-2.4c4.3 0 8.6-.2 13 0v-7.7ZM339.3 119l2.5 1c7.7 3.2 16.1 4 24.1 6.5l-.1 2-.2 1 1 1.6.7 4 1.6 1-1.7-.7-3.1 1.4c1.8-1 3.6-2 2.5-4.3-1-.9-2.2-1.6-3.3-2.4v-3.6h-13.5l.6-.3a90 90 0 0 1 1.8-.9 21 21 0 0 0-5.9-1.8c-3-.3-5.6-2-7-4.6Z"/><g fill="#322f31"><path d="m271.5 14.3.4-1.6c0 10.1.5 20.3-.4 30.4l-.7-7c1-7.2 0-14.5.7-21.8ZM367.3 117.5c3.7-1.6 7.8-.6 11.7-.8 3.2.2 7-1 9.8 1l-6.9 1.4 3.1 1.3-2 .7c-5.3-1.3-10.6-2.2-15.7-3.6Z"/></g><g fill="#00100d"><path d="m312.4 14.5 1.8-.5c0 4 0 8 .6 12-.9 4.6-.4 9.3-.5 14V80.9c4.1 0 8.3.5 12.5-.2l1.6-2h.4l-.3 3.8h-16c-.4-22.7 0-45.3-.1-68ZM345.2 17l.3-3.6 2.4.2c.1 6.8-.9 13.6-1 20.4-.3 6.4-.2 12.8-1.4 19-.5-8.1-.4-16.4-.9-24.6.3-3.7-.6-7.7.6-11.3ZM171.2 21c2.6-1.6 2.5 2.4 2.5 4l-1 1.7c-.4 2.6-.3 5.2-.2 7.8-3-3.6-2.2-9.2-1.3-13.4Z"/></g><g fill="#6d6c74"><path d="M272.4 106.8c7.1-1.2 14.4-.7 21.6-1 3.8-.1 7.6.3 11.4 1 .4 4.2.2 8.3.2 12.4l-1.4-1.6-.3-.4c-4 .2-8.1.3-12.2 0 4.5-.8 10.2 1.4 13.6-2.5-4.5-.2-9 0-13.4 0l.1-.6h5.6v-3.3l-1-2.1c1 1.6 2 3.4 1.4 5.4h5.8l.2-7.2c-5.3 0-10.7-.2-16 .1-.8 1.1-1.7 2-2.6 3l2.8 2 .4 2.6-1.4-1.3-3.1 1.7 1.2-2.4c-.5-1.2-1-2.4-1.3-3.7 3.1.5 3-2.9 0-2l-5.4.1c-.1 2.4-.6 4.8-1.3 7l5.6-1.7-4 1.8-.2 3.7 2 2.7h-2.3c-.2-1.2-.9-2.8-2-1.1-.4-.7-.9-1.5-1.2-2.4.7-.5 1.5-1 2.4-1.3-1.4-1.7-3-3.8-2.2-6.1 1.8 2.4 2.1-1.3 2.6-2.6l-5.6-.2ZM386.4 107.7l.9-.2a10 10 0 0 1 1.3 10.8l.2-.6c-2.8-2-6.6-.8-9.8-1-3.9.2-8-.8-11.7.8l-1.4-.4v-3h2l-2 2c3.5 0 7 .2 10.5.1l.8-5.4-1.9-1.5 2 .4v5.2l-.8 1.2c4 .2 8 .2 11.9-.1-.5-2.8-3.4-1.4-5.2-1.5l-2.4-5.1 2.8 2 1.2-3.4 1.6-.3m-1.6 1a9.1 9.1 0 0 0-1.3 5.7 20 20 0 0 0 4.6-1.8c-.4-1.6-.8-5.3-3.3-3.8ZM524.2 118.7l6.5-1c-2.2 2.1-.3 4.4 2 5.4l1.7.8v1c0 2.8.4 5.7-.2 8.4-.7 3-3.7 5-6.7 5.4l-2.2-.4.7-.8c2.3-.7 5.3-1.1 6.3-3.7a18 18 0 0 0-.3-9.7c-1-2.1-3.5-2.4-5.6-2.8.8 2.1 1 4.4 1.3 6.6-.9-2-2-3.8-3-5.6l1.2-.5-.7-1.2-1-1.9Z"/></g><g fill="#84827e"><path d="M167.8 106.5c2.2-1.3 4.8-1 7.2-1 6 0 12-.3 18 0 1.3-.2 2.3.7 3.2 1.4h-1.3l-12.8.1h-9.4c-1 3.5-2.2 7.6.9 10.4l-.8 3.3-1.7-4c.8-1.3-.4-2.8-.1-4.3l.8-5.5-4-.4ZM268.6 108.4c-.2-1.2 1.3-1.7 2-2.4l-.2 1c-.1 10.3.6 20.7-.3 31l-1.6.6c0-10-.2-20.1 0-30.2ZM166.4 116c.2-2.8-.6-6.1 1.4-8.5.4 10.2 0 20.4 0 30.7l.3 1-1.6-1.6c-.6-7.2 0-14.4 0-21.6Z"/></g><g fill="#060909"><path d="M200.3 13.6c1.7.8 1.2 2.8 1.3 4.4v63.5h-1.1v1h-9l.1-1h-1.2l.2-2.8 9.7-.2c-.2-21.6-.3-43.3 0-65ZM508.5 109.3l1 .4c2 2.1 1 5 0 7.4-1.3-.4-2.5-1.3-2.7-2.8l2.7-.3c-.4-1.5.5-3.7-1-4.7ZM388.7 129.3l.9-3.5c-.5 3.5.9 7.8-2 10.5-4.8 3.6-11 3.7-16.6 4-8.3-.3-16.7.5-25-1-2.5-.6-5.2-1.7-6.5-4l.8-1.6.3.7c2.5 2 5.6 3.2 8.8 3.5l2.7.2c8.5.2 17 .2 25.4 0 3.9 0 8.3-.8 10.8-4.1.3-1.6.3-3.2.4-4.8Z"/></g><g fill="#4f4e4a"><path d="m445.3 107.3 1 .1.8.2.4 23.4c0 2.7.2 5.6-.9 8.2l-.8-1.1-1.3-1.7 1.3.3c0-6 0-12.1-.2-18.2-1 .2-1.9-.1-2.3-.8l1.8-.2c.5-1.8 0-2.9-1.6-3.4 2.2-1.6 2-4.3 1.8-6.8ZM304.2 117.6l1.4 1.6c0 2.3-.2 4.6-.4 7-3.5.6-7 1-10.4 1.7 2.2 1.5 4.9 1.6 7.4 1.9-2.4.4-5 .7-7.4.9h-3.1l.1-6.1c4.1-.1 8.2 0 12.3 0 0-2.3.2-4.6.1-7Z"/></g><path fill="#030d0c" d="M331.8 19c-.1-1.6-1.7-5.6 1.5-4.8 2.6 21.4 3.8 43 5.9 64.5h9.5c.1 1.6-.1 4.4-2.6 3.8h-8.6l-.1-1.2-1.7.2c.4-8.3-1.6-16.4-1.2-24.7 0-6-1.4-12-1-18 0-2.1 0-4.3-1.1-6.2-.8-4.5 1-9.2-.6-13.5Z"/><path fill="#050e0d" d="M358.5 13.5h2.6V46c.1 4.7-.3 9.4.7 14.1-1.1 6.1-.5 12.4-.7 18.5h7.2l-1.2 2.9-8.3-.1c-.6-7.5.2-15-.2-22.4-.3-12.1.3-24.3 0-36.4-.6 3.5-.4 7.1-1 10.6 0-3.2.3-6.4-.6-9.5l.2-1.4 1-1.2c.1-2.6.1-5.1.3-7.6Z"/><path fill="#000202" d="m374.6 14.5-.1-1.2 2.8.3v65c4.2 0 8.3 0 12.4-.2l.7 3.3.2.7-16.1.1v-1.1l-1 .1v-67h1Z"/><path fill="#071210" d="m156 14 2.3.7c.3 3.3.2 6.5-.4 9.7-1.8.3-4.1-.3-5.2 1.5-.3 3-.2 6-.1 9.1H150V21h6V14Z"/><path fill="#fa062b" d="M182.7 30.8c.9-5-.7-10.4 1.4-15.3l.4 1.5v16.4l-4.8-.2c1-.8 2.4-1.2 3-2.4Z"/><path fill="#f00d2f" d="M132.6 33c.5-4.8-1-10 1.3-14.6.2 7.8 1 15.8-1 23.3-1.9-2.6-.2-5.8-.3-8.7Z"/><path fill="#fe0d32" d="M118.9 27c.2-2-.7-4.7 1.2-6.2.3 6.1 0 12.2.1 18.3l-.8-.7c-1-3.7-.3-7.6-.5-11.4Z"/><g fill="#171715"><path d="M246 20.9h6.5c-.3 1.5-.8 3-1.2 4.4l-4.8.1V35h-.6V21ZM232.5 108c1.3 9.3.4 18.7.9 28-.2 1.2.4 3.7-1.5 3.5-6.2.3-12.4.3-18.6 0l-.7-1.6h1.2l17.8.1v-24.8c.2-1.8.6-3.5 1-5.2Z"/></g><path fill="#f90829" d="m289.8 21.1 1.1.1c.4 18.5 0 37 .3 55.6 2.6 0 5.2 0 7.8.4l.8 1.2-10.3.2c.3-19.2-.2-38.3.3-57.5Z"/><g fill="#000404"><path d="M300.4 21h3.5c0 2.4-1.3 3.7-3.6 3.7l.1-3.7ZM230.3 22.8c.5 15.7.1 31.5.1 47.2.2 4.3-.8 9.7-5.4 11.3-5.7.6-11.5.2-17.2.3l-1.3-3c5.9-.1 11.8.3 17.7-.5 2.3-.2 3.8-2.2 5.1-4 1.2-5.3.8-10.7.8-16 0-11.8-.1-23.6.2-35.3ZM156.1 70.6h2.4v1.6c-.1 3.2 0 6.4-.6 9.5-5-.2-10.2.5-15.2-.4l-.4-2.7H156l.2-8Z"/></g><path fill="#0c110f" d="m325 21 3.7-.1-.4 3.4-3.2.3-.1-3.7Z"/><path fill="#8e2833" d="M123.2 22c1 5 1.3 10.4 0 15.3a584.2 584.2 0 0 1 0-15.3Z"/><path fill="#da0009" d="M298.9 36c0-3.8-.5-7.8 1.4-11.3v1.4c.3 17.5.2 35 0 52.4h-.5l-.8-1.3c-.2-13.8 0-27.5-.1-41.3Z"/><path fill="#001e18" d="M121.9 38.1c.3-4.2-.4-8.6 1.1-12.6l.1 11.8v1L122 38Z"/><path fill="#de1a2b" d="M205.4 25.7c1 8.4.1 17 .6 25.3.4 9-1 18.3.6 27.2l.9-6c6.4-.2 13-.1 19.4-.1l2.4 2c-1.3 1.8-2.8 3.8-5.1 4-5.9.8-11.8.4-17.7.6h-1.3c.3-17.7-.3-35.3.2-53Z"/><path fill="#c0bdbb" d="M336 113c1.6-6.2 8.2-8.9 14-9.4 9-.3 18 0 27-.1 6 0 14.4 2.2 15.2 9.4 1 3.2-3 6-1.5 9.3 2.3 4.7 3 11-.4 15.3a19.9 19.9 0 0 1-14.3 5c-9.3 0-18.7.2-28 0-4.6-.1-9.8-2.4-11.4-7-.5-3.8-.6-8.1 1.8-11.5-1.6-3.4-3.9-7.2-2.3-11m8-6.2c-3.5 1.3-6.5 4.5-6.5 8.3-.3 3.5 2 6.3 3.9 9-1.4 1.8-3.5 3.4-3.6 5.9-.1 1.7-.4 4.3 1.6 5.2 1.3 2.4 4 3.5 6.6 4 8.2 1.6 16.6.8 25 1 5.5-.2 11.7-.3 16.4-3.9 3-2.7 1.6-7 2-10.5.4-1.8-1-3.4-1.6-5l.7-2.5a10 10 0 0 0-1.4-10.8l-.8.2A21.9 21.9 0 0 0 375 105h-20c-3.6 0-7.4.4-10.9 1.8Z"/><path fill="#020606" d="M156.2 39c2.8 2.7 1.3 6.9 1.3 10.3l-5 .4c-.6 5.8-.2 11.6-.3 17.4H150V46.3h6c0-2.5 0-5 .2-7.3Z"/><g fill="#232321"><path d="M162.1 41.8c3.1 2.7 6.7 4.7 9.7 7.4 1.2 1 1.8 2.2 1.6 3.8-3.8-3.7-9.3-5.8-11.3-11.2ZM131.8 124.9c0-2.7-1-5.8.8-8.1 3.2 2 2.8 7.6-.5 9.4-2.9.3-5.8.2-8.7.4l.3 3.6-4.9-.1v-5.2h13Z"/></g><path fill="#020707" d="M265.4 46.9c1.4 5 1.6 10 2.4 15 .7 5.6 1.7 11 2 16.7 3.9 0 7.8.1 11.6-.1-1 .7-1.2 1.7-.9 3h-1v1h-9l-.1-1.2-1.7.2c-.3-2.8.4-5.9-1-8.4-.2-2.2-.3-4.4-.3-6.7 0-3.6-1.2-7-2-10.6V47Z"/><path fill="#fc072c" d="M183 62c.2-5-.9-10.1 1.2-14.8.4 8.5.7 17-.2 25.5-2-3.3-.9-7.2-1-10.7Z"/><path fill="#0b2e27" d="m185.3 49.4.4.9c.6 7.6.6 15.4-.1 23-.8-7.9-.5-16-.3-23.9Z"/><path fill="#ec3549" d="M119.4 51.2h.7c.3 9 0 18.2.2 27.2l-6.9.3h-4c.2-4 .2-8 0-11.9.5 3.9.3 7.7.4 11.6l3.8-.8 5.4-.8c1-8.5.3-17 .4-25.6Z"/><path fill="#fb0829" d="m123.6 55 1-1.2c.8 8.2.2 16.5.6 24.7h-1.6V55Z"/><path fill="#051c15" d="m171 53.8 1.6-.7c.2 5 0 9.8.2 14.7l-1.5-1.1c-1.2-4.2-.5-8.7-.4-13Z"/><path fill="#3d534c" d="m256.4 56.8.6 2.2-.8-.2.2-2Z"/><path fill="#9c343e" d="m256.2 58.8.8.2c-.7 6.5-.1 13-.4 19.6v1l-.4-1c.1-6.6.2-13.2 0-19.8Z"/><path fill="#030505" d="M314.3 78.7c4.7 0 9.4-.6 14.1 0l-1.6 2c-4.2.7-8.4.2-12.6.2v-2.2Z"/><path fill="#010404" d="M235.6 78.7c5.4 0 10.8-.2 16.1 0-.3.8-1 2.2-1.2 3l-13.7-.1-1.2-3Z"/><path fill="#cfccca" d="M13.4 103.7c7.2-.3 14.3-.5 21.5 0 3.7 1.3 7.3-.5 11-.3 5.3.2 10.4-.2 15.6.3 3.2.2 6.2 2.9 6 6.2.2 8.4 0 16.8 0 25.2-.2 3.1-1.4 7.7-5.4 7.5-8 0-16 .1-24.1-.3-8 .4-16 .4-24 .2-2.5 0-5.7-1.7-5.6-4.5-.2-8.7.1-17.3 0-26-.1-3.5 1.2-7.5 5-8.3m.6 3a37 37 0 0 1-2.1 7.6 47 47 0 0 0-.4-6.4c-.6 10.1-1.4 20.3-.7 30.4l2 .8c4.5 2 9.5 1 14.2 1.3 5.4.4 10.7-2 16-.3 7 .3 14.2 1 21-.8.5-10.4.8-21 .4-31.3-3.3-1.4-6.9-2-10.5-1.9-4.1.3-8.5-.5-12.6.7l-.8.4c-4.2 1.4-8.1-2.2-12.5-1.5-4.6.6-9.4.2-14 1Z"/><path fill="#d1cecc" d="M169.4 103.6c8.2-.3 16.4-.1 24.7-.1 2.7-.3 4.3 2.6 6.8 3 2-1.2 3.6-3.2 6-3 7.4-.2 14.8 0 22.1 0 3.8-.5 7.7 2.6 7.6 6.5v27c.2 3-2.5 5.8-5.5 5.6-7 0-14 .4-21-.6-6.2 1.1-12.7.8-19 0-5.6 1-11.4.5-17.1.6-2.5-.1-5.4.4-7.6-1.2-1.7-1.2-2.1-3.5-2-5.4v-26c-.1-3 2.3-5.7 5-6.4m-1.6 3v1c-2 2.3-1.2 5.6-1.4 8.4 0 7.2-.5 14.4 0 21.6l1.7 1.5.8.3c2.7 1.8 6 1 9.2 1.2 4.3-.1 9.3.9 13-2.3a20.4 20.4 0 0 0 18.9.5l3.3.7c6.2.3 12.4.3 18.6 0 2 .2 1.3-2.3 1.5-3.4.2-8.7.1-17.4 0-26.1.3-1.5-.5-2.6-1.8-3.4l.8-2.2-1.1 2.7c-1.8-1.6-4.2-1.3-6.3-1.3h-18.8c-3.4.7-2.4 5.4-5.5 6.1-.8-1-1.8-2-2.9-2.7a4 4 0 0 0-1.6-2.3c-1-.7-1.8-1.6-3.1-1.5-6-.2-12 .1-18 0-2.5.1-5.1-.2-7.3 1.1Z"/><path fill="#c8c6c5" d="M422.7 103.6H443c3.4-.3 6.6 3 6.5 6.3-.2 9.6.8 19.2 0 28.8-1.7 2.9-5.2 4-8.4 3.9-6-.1-12 .1-18-.2-3.1-.2-5-3.4-4.7-6.3.1-8.7-.3-17.4 0-26.2-.3-2.9 2.4-4.5 4.3-6.3m-2.3 5.7c-1.3 5.5-.4 11.2-.4 16.8.4 4.1-.5 8.6 1.5 12.5l.4 1.4.6-.4c8-.1 16.1.5 24.1-.4 1.1-2.6.8-5.5.9-8.2l-.4-23.4-.8-.2-1.6-1.9c-7-.7-14-.6-20.8 0-1.6.4-3.9 2-3.5 3.8Z"/><path fill="#c0bebd" d="M94.6 110.7a7 7 0 0 1 6.4-6.6c7.6-.8 15.3-.1 23-.4 4.3.1 9.8-.3 12.3 4 2 2.4 1 5.5.9 8.3-.3 2.7.5 5.4 0 8-.5 1.4-1.3 2.6-1.8 4-.2 3.2 3 5.9 1.7 9-.4 1.3-1.3 1.9-2.6 2v-7.3l-1.6-.9c-.7-1-1.2-2.1-1.8-3.2 1.5-.8 3.5-1.3 4.3-3 .3-3.5 0-7 .2-10.5 0-2 .3-4.3-1-6l-3-1.4c-1.4-.6-3-1.3-4.6-1.2h-20c-3 0-6-.3-8.6 1.2-1.3 5-.5 10.3-1.1 15.5-.5-4.5.9-9.2-.9-13.5-.8 6.4-.5 13-.7 19.4 0 3.1-.6 6.5 1.1 9.4l.3.6.7 1c4 .8 8.2.5 12.3.6 8 0 16 0 24-.2-.3 2-2.1 3-4 2.9H104c-3.3.1-7-.8-9-3.5a14.2 14.2 0 0 1-1-8c.7-6.7 0-13.5.6-20.3Z"/><path fill="#b6b2af" d="M271.4 104.4H302c3-.3 6 2.5 5.6 5.6-.3 6 1 12.2-1.3 18 .7 3.8 3 8.7-.2 12.2-5 3.6-11.5 1.7-17.1 2.1-5.7-.4-11.8 1.1-17.3-1l-1-1.8c11.4.2 22.7 0 34 0 .7-2.6.8-5.3.6-8l-.9-.4a193 193 0 0 0-9.6-.4c2.5-.2 5-.5 7.4-.9-2.5-.3-5.2-.4-7.4-1.9l10.4-1.7c.2-2.4.4-4.7.4-7 0-4.1.2-8.2-.2-12.3-3.8-.8-7.6-1.2-11.4-1-7.2.2-14.5-.3-21.6.9l-2 .2.2-1 .8-1.6Z"/><path fill="#999895" d="M344 106.8c3.5-1.4 7.3-1.8 11-1.8h20c3.9 0 8 .5 11.4 2.7l-1.6.3c-6.8-1.7-13.9-1-20.9-1.2-1.6.2-3.8-.3-5 1.1-.8 2-1 4-1.4 6l-1.3.8-.7-2.7c2.3-.8 2-3.2 2-5.1h-1.1c-5.7 0-14.2-.5-16.6 6.1v1.7l.1 2.6h2.7l-.8 2.6-2.5-1c1.4 2.7 4 4.3 7 4.6L344 126l6.6.2-.7.3-1.8.7-1-.2c-1.3-.2-2.6-.2-3.9 0l-1 .1-1.6.2-.2 6.4-.8 1.5c-2-.9-1.7-3.5-1.6-5.2.1-2.5 2.2-4.1 3.6-6-1.8-2.7-4.2-5.5-3.9-9 0-3.7 3-6.9 6.4-8.2Z"/><g fill="#a6a7b7"><path d="M420.4 109.3c-.4-1.8 2-3.4 3.5-3.9 6.9-.5 13.9-.6 20.8.1l1.6 2-1-.2-21.3-.3c0 7.3-.1 14.7.3 22 0 3 .6 6.3-.2 9.3l-1.6 1.3-.6.4c0-.4-.3-1-.4-1.4.8-6.2.4-12.5.5-18.7-.1-3.6.3-7.4-1.6-10.6Z"/><path d="m428.5 109.2 2 .2c1 3.5 0 8 3.2 10.5-1.2-.2-2.4-.5-2.7-1.9-1.3.5-2.5.6-3.7 0l1-2.1-1-1.5 2.5-.3c0-1.7-.2-3.5-1.3-5Z"/></g><g fill="#8d8b8c"><path d="M480.2 110.5c3.7-3.7 9-4.8 13.8-5.9 9-.3 18 0 27-.1a17 17 0 0 1 13.5 5.9v6.2l-2.2 2.2.4 4.3c-2.3-1-4.2-3.3-2-5.5l2.3-.9-.7-.3c-.6-2.5.2-6-2.3-7.6-2.1-2-4.4.8-6.7 1l2.4-2.7c-2.8-.3-5.5-.4-8.3.2l-1.3 7.3h-.8l-.8-2.7 2.3-1.6-.4-3.2h-.8c-5.3-.5-10.6-.3-16-.3h-1.3c-2.4 0-4.8.2-7.2.4-.7 2.1-1.3 4.2-1.8 6.4l5.8-1.1-4.5 1.5c.7 2 .9 4 .8 6l-1.2-2.8-2 1.1-.8-1.5 2.7-.8c-.6-2-2.4-3.5-3.1-5.5l2.2 1.3 1.4-4.3c-2.3.7-4.5 1.6-6.6 2.7-1.2.2-2.5.3-3.8.3ZM98.9 114c.3-2.1 3-2.3 4.6-2.9-1.1 2.1-1.8 4.8-.3 6.9l-.9 1.4-.5-3.1-2.9 2.6 1.5-3L99 114ZM204.3 114c1.2-1.3 2.7-2.3 4.4-3a215 215 0 0 1-.4 5.1c.9 1.2 2.4 2.7 0 3.2l-.4-3-3 2.5 1.7-3-2.3-1.8Z"/></g><path fill="#1f1d1f" d="M14 106.7c4.6-.8 9.4-.4 14-1 4.4-.7 8.3 2.9 12.5 1.5-.3 4.5 0 9 .5 13.4-3-4.3-4.6-9.6-7.8-13.9-6.4-.6-12.8.3-19.2 0Z"/><path fill="#262525" d="M41.3 106.8c4.1-1.3 8.5-.4 12.7-.7 3.5-.2 7.1.5 10.4 1.9.4 10.4.1 20.9-.4 31.3-6.7-.2-13.4.2-20 0-1.7 0-3.4-.4-4.9-1.3H59c.5-10.5.2-20.9.8-31.3-6.2 0-12.3-.2-18.5.1Z"/><g fill="#93918f"><path d="M98.4 106.7c2.6-1.5 5.7-1.1 8.6-1.2h20c1.6 0 3.2.6 4.6 1.2-4 .6-7.9.5-11.8.4-.6 2.4-1.2 4.8-1.2 7.3l.4 2.4c5.2.5 10.3.2 15.4-.6l.3-8.2c1.3 1.8.9 4 .9 6-.2 3.6 0 7.1-.2 10.7-.8 1.6-2.8 2-4.3 3l1.8 3.1h-1.5v7l-.9.1.2-7.5-4.3 2.6.9-2H118c0-2.3 0-4.5.3-6.8 4-.7 8.5 1.2 12.3-.7l.2-.5c.3-1.7.2-3.4.3-5.1-4.2.3-8.4-.7-12.6-.3-.3-2-.8-4-1.7-6 2.6.1 1.5-3 2-4.6h-17.3l1.3 2.4-1.6-.2-2.3 1.5 2.6-3.4-3.1-.6m33.4 18.2h-13v5.2h4.9l-.3-3.5c2.9-.2 5.8 0 8.7-.4 3.3-1.8 3.7-7.3.5-9.4-1.8 2.3-.7 5.4-.8 8ZM207.7 139l3-5.2a364 364 0 0 1 1.9 4.1l.7 1.6-3.3-.7a20.4 20.4 0 0 1-19-.5c-3.6 3.2-8.6 2.2-13 2.3-3-.1-6.4.6-9.1-1.2 6.7.1 13.4.2 20.2-.1v-3.7l3.6.8.7 1.7c4 2.8 9.6 1.1 14.3 1Z"/></g><path fill="#dcdfed" d="M14 106.7c6.4.3 12.8-.6 19.2 0 3.2 4.3 4.8 9.5 7.8 14 1.3-2 1-4.5 1.1-6.7-.1-2.3.5-5.2-1.7-6.8h.1l.8-.4c6.2-.3 12.3-.1 18.5 0-.6 10.3-.3 20.7-.8 31.1-6.6.2-13.3 0-19.9.1-.7-.6-1.2-1.5-1.7-2.3-2-3.5-3.7-7.4-5.7-11l-2.7.2 1.3-4.1-1.8 4.5 2.5-.2-.3 12.9c-6.5 0-13-.1-19.5.1l-.1-3.6c1.5-.6 3-1.2 4.3-2l-4.2 1.7c.2-6.7 0-13.3.7-19.9.9-2.5 1.8-5 2.1-7.6m18.2 2.2-.6 5-3 .1 1.8 1.4-.8 3.7 3.2-1c.5 2.3 4.5 2.5 5.3.5-1.8.6-3.5.3-4.6-1.3l1-1.9c-.6-2.2-1.2-4.5-2.3-6.5m14.4 3 .6.7-1 2.2c-.4 1.7-1 3.4 0 5 2-2.6 4.1-5.3 4.4-8.8l-4 1m-31.4 0c-2.6 1.4 1.1 3.3 2.2 1.3 1-1.3-1.3-2-2.2-1.3m4 1.4c-1.6 3 3.3 0 0 0m.9 2.8c-1.5 0-1.8 2.8-.2 2.9 1.5-.1 1.8-2.8.2-2.9m2.1 1c-.5 1.6 0 2.1 1.7 1.6.5-1.7 0-2.2-1.7-1.7m27 .1c-1.5 3 3.3.1 0 0m-28 4c-1.3.6-1.4 1.3-.1 2 1.3-.8 1.3-1.4 0-2m26 0c-.6 1.7 0 2.2 1.6 1.6.6-1.6 0-2.1-1.6-1.5m-25 4c-1.5 3 3.3.3 0 0m-5 3-.4 4.1c2.2-.3 2.6-2.5 3.4-4.2h-3m28.2 8.8c1.4-.5 2.8-1 4.2-1.3-.6-1.7-.6-3.4-.5-5.1-3.2.1-2.2 4.3-3.7 6.4m-7.3-4c-.1 1.2.3 2.2 1.3 2.8 1.2-1.2 2.8-2.2 2.9-4-1.5.3-2.9.7-4.2 1.2Z"/><path fill="#dcdeec" d="M97.3 122.2c.6-5.2-.2-10.5 1-15.5l3.2.6-2.6 3.4 2.3-1.5 1.6.2-1.3-2.4h17.2c-.4 1.7.7 4.7-2 4.7a20 20 0 0 1 1.8 6c4.2-.5 8.4.5 12.6.2 0 1.7 0 3.4-.3 5H128c1.3-2.3-2.6-2.2-1.7 0H119l-.8 1.3-.2 6.8h9.3l-1 2 4.4-2.6c0 2.5 0 5-.2 7.5-11.1.3-22.3 0-33.4.2l-.3-.6c.3-5.1.3-10.2.5-15.3m13.5-8.4c-.6 1.9-2.7 4.3 0 5.4l.7-3 1.3 1.6c.4-3 .3-6-.5-8.9-1.7 1-.6 3.4-1.5 5m-12 .1 1.6 2-1.5 2.9 2.9-2.6.5 3 1-1.3c-1.6-2.1-1-4.8.2-6.9-1.6.6-4.3.8-4.6 3m1.2 7.2c-.5 1.6 0 2.1 1.7 1.6.5-1.6 0-2.2-1.7-1.7m13 1.8c-1.6 2-1.6 4.6-2 7-.7 1-1.6 1.7-2.2 2.8 1.5-.7 3.3-1.3 3.9-3 1.2-1.7-.4-4.7 2.1-5.3l-1.8-1.5m-11.6 2.1c-.5 1.4 0 2 1.3 1.7.5-1.4 0-2-1.3-1.7m-1.3 6c-.4 2-.9 4-1.9 6l4.1-1.5a11 11 0 0 1 .3-5.3l-2.5.7m20 1-1 1.2c1 3.4 4.9-1.8 1-1.2Z"/><path fill="#dde0ee" d="M119.8 107c4 .2 7.9.3 11.8-.3v7.8c-4.4-.3-8.7-.2-13 0 0-2.6.6-5 1.2-7.4Z"/><path fill="#dadceb" d="m167.8 106.5 4 .4-.8 5.5c-.3 1.5.9 3 0 4.4.7 1.2 1.3 2.5 1.8 3.9l.8-3.3c-3.1-2.8-2-6.9-1-10.3h7.6l-2.1 3 1.6 2.9 1.5 1.7-3.3.8 2.6 3.3c2.4-3.4 3.1-7.8 1.6-11.8l12.8-.1c1 3.3 2.2 6.6 3.5 9.8l-2.9-.4-.9 2.5-1.4-1c-.4-3 .8-7.5-2.6-9.1l-.3 5.7-4.3-5.4c-1 1.8-2.5 3.6-2 5.8 1.8 1.4 3.7 2.6 5.4 4h2a9 9 0 0 0 6 1.4l.6-2.5 1 .1.9 2.3c1-2 1.9-4.2 2.3-6.4.9-2.6 1-5.9 3.7-7.3 1.7.2.2 2.4.1 3.3l-.4.9c1.5-1 3.3-2.1 3-4.2h15.7l-.6 4.5-1.7-1.7c.4 2 .8 4.2 1.4 6.2-3.1 3 1.4 5.5 4.1 5.8-.6-3-2-6-2.3-9.1.3-2.2 1.7-4 2.7-5.8 1.4.2 2.7.9 4 1.5l-.3 5.4V138h-17.8l.5-9.7-1.4-1.5.5-5.8c-1.8 3.4-3 7-4.8 10.3l-2.5.7 2 .2-2.2 5.7c-4.2.2-8.3 0-12.5.2a41 41 0 0 1-.7-1.7c-1-2.2-1.7-4.4-2.6-6.6-1-2.6-1.9-5.2-3.1-7.7-.3 5.3-.2 10.6-.1 16-6.4-.1-12.8-.2-19.2 0 .1-10.2.5-20.4.2-30.6v-1m36.4 7.5 2.3 1.8-1.6 3 2.9-2.5c0 .8.3 2.2.4 3 2.4-.5.9-2 0-3.2l.4-5c-1.7.6-3.2 1.6-4.3 2.9m11.3 5.2a9 9 0 0 0 3.2-8.7 15.8 15.8 0 0 0-3.2 8.7m-41.6-6.9c-1.3 1.5 1.6 2.4 2.3 1.2 1.3-1.5-1.5-2.4-2.3-1.2m53-.2c-2.5 1.4 1.3 3.2 2.4 1.3 1-1.4-1.5-2-2.3-1.3m-46.9 9c-1.3.8-1.4 1.5 0 2 1.3-.7 1.3-1.3 0-2m26 .2c-.6 1.6 0 2.2 1.6 1.6.5-1.6 0-2.2-1.7-1.6m9.3 0c-.8 1.3-1.1 3.1-.3 4.4 1.3-.4 1.6-4 .3-4.3M193 123c-2.3 2-2.3 4.8-.4 6.9l.5-4.8 2-.8-2.1-1.3m25.9 0c-1.9 3-.9 7.3-4.1 9.6l3.8-1.2c.8-2 1.3-4 .8-6.1l2.6-1-3.1-1.3m-37.8 2.2c-.4 1.4 0 2 1.4 1.6.4-1.4 0-2-1.4-1.7m26.8 0c-1.5 3 3.3.2 0 0m-3.5 1.8c-1.1 1-2.4 2-3.3 3.3 0 1.5.5 4 2.5 3.8 1-2.2 1.4-4.7.8-7m-30.3 3.4 3.5 1.5 2-4c-2.1-.1-3.8 1.3-5.5 2.5m5.2.7c.3 2-.3 4-1.3 6l4.4-1.6a14 14 0 0 1-.4-5l-2.7.6m-8.7 1.7.5 3.4c1.6-1.1 3.4-2.3 4-4.3l-4.5.9Z"/><g fill="#c6c9d8"><path d="M180.2 107h1.9c1.5 4 .8 8.4-1.6 11.8l-2.6-3.3 3.3-.8.7-.1c.8-1 .5-4.2-1.3-2.9l-1 1.3-1.5-2.9 2.1-3ZM518.4 132.2c1.6-2.4 3.7-4.7 6.9-4.4l-2 5.4 1 1.8.9-4.1 2.8-1c0 1.9-.2 3.7-.3 5.5l-1.7 2.1-.7.8-.8-.2-3.5-3.8c-1.5 1-2.7 2.8-4.7 2.8V133l2-.8Z"/></g><path fill="#4f4e52" d="M194.9 106.9h1.3a4 4 0 0 1 1.6 2.3l.7 3.8c1.3 0 2.8-.6 3.8.7-.5 2.2-1.4 4.3-2.4 6.4l-1-2.3-.5-1.1a149 149 0 0 1-3.5-9.8Z"/><path fill="#c5c7d7" d="m224.3 106.4 3.6-.1c-1 1.8-2.4 3.6-2.7 5.8.3 3.1 1.7 6 2.3 9.1-2.7-.3-7.2-2.9-4-5.8-.7-2-1.1-4.1-1.5-6.2l1.7 1.7.6-4.5Z"/><path fill="#d7dae9" d="m270.4 107 2-.2 5.6.2c-.5 1.3-.8 5-2.6 2.6-.8 2.3.8 4.4 2.2 6-.9.4-1.7.9-2.4 1.4.3.9.8 1.7 1.3 2.4 1-1.7 1.7-.1 2 1h2.1l-2-2.6c.2-1.2.2-2.5.2-3.7l4.1-1.8-5.6 1.7c.8-2.2 1.2-4.6 1.3-7h5.4c3-1 3.1 2.4 0 2 .2 1.2.8 2.4 1.3 3.6l-1.2 2.4 3.1-1.7 1.4 1.3-.4-2.6c-1-.7-2-1.3-2.8-2 1-1 1.8-1.9 2.6-3 5.3-.3 10.7 0 16-.1l-.2 7.1-5.8.1c.5-2-.3-3.8-1.4-5.4l1 2.1v3.3H292l-.1.6-.2 2.5c4 .3 8.1.2 12.2 0l.3.4-.1 7c-4 0-8.2-.1-12.3 0l-.1 6.2 3-.1c3.3 0 6.5.2 9.7.4v6.9h-34.3c.9-10.3.2-20.7.3-31m15.8 14c-1.8.5-.9 3.1.8 2.9 2.1-.3 1.2-3.9-.8-3m1.2 4.2c-1 1 .1 3.4 1.5 2.6 1-1-.1-3.6-1.5-2.6m-9 6.3c-2 1-2.2 3.8-.5 5.2a18 18 0 0 0 3.8-4.5l1.4 2.2c1-2 2-4.2 2.8-6.3-2.9-.1-5.2 1.9-7.5 3.4m7.8-.3-1.3 5.8 3.5-1.3c0-1.8 0-3.6.3-5.4l-2.5.9Z"/><path fill="#d7daeb" d="M339.8 113c2.4-6.6 10.9-6.2 16.6-6a89 89 0 0 0-2.3 2c.1 2-.3 3.8-1.7 5.2-.6-2-.9-4.2-2.7-5.5 0 1.8 0 3.7-.2 5.6-1.3-1.7-2.4-3.5-4-5l-3.2 2 .2 2.7-2.7-1Z"/><path fill="#c6cadf" d="m356.4 107 1-.1c0 2 .4 4.3-2 5.1l.9 2.7 1.2-.8c2 1.7 2.4 4.3 2.3 6.7-3.5 0-7.8 1-9.8-2.6a22 22 0 0 1 2.4-3.8 6.6 6.6 0 0 0 1.8-5.2 89 89 0 0 1 2.2-2Z"/><path fill="#d4d7e7" d="M358.8 108c1.3-1.5 3.4-1 5.1-1.2 7 .1 14-.5 20.9 1.2l-1.3 3.4c-1-.6-1.8-1.3-2.7-2l2.4 5.1-5.8.4v-5.2l-2.1-.4 1.9 1.5-.8 5.4H366c.4-.6 1.4-1.6 1.9-2.1H363l-.8 1.4 3.6 1.6c.4 0 1 .3 1.4.4 5.1 1.4 10.4 2.3 15.6 3.6 1.6.7 3.2 1.4 4.4 2.7.8 1.7 1 3.6 1.4 5.5-.1 1.5-.1 3.1-.4 4.7-2.5 3.3-6.9 4.2-10.8 4.1-2.9-.6-5.8-1-8.6-2l-1.6-1-.8-4c2.5-1 1.4-6-.7-2.5l.1-2.1c-8-2.4-16.4-3.3-24.1-6.6l.8-2.7-2.7.1v-2.6c2.8.6 5.6 1.5 8 3.3l1.6 1 .5-1c2 3.7 6.3 2.6 9.8 2.6 0-2.4-.2-5-2.3-6.7.3-2 .6-4 1.3-6m.6 4.4c-1.2 1.5 1.4 2.5 2.2 1.2 1.2-1.4-1.4-2.5-2.2-1.2m13.8 13.6c2.9.5 2.3-3.2 2.7-5-2.5.2-2 3.2-2.7 5m4 1.9c.8 2.3-1.8 3.6-3 5 1.2-.4 3-.6 3.8-1.8 1.3-1.7 1-3.9 1.2-5.9l2 .5c-.5-1.2-1.4-2-2.3-2.8-1 1.4-2.4 3-1.7 5m9.2 4.6c-1 0-2.7.2-3 1.4.4 2.5 5-.3 3-1.4Z"/><path fill="#d3d5e6" d="m424 107 21.3.3c.2 2.5.4 5.2-1.8 6.8 1.6.5 2.1 1.7 1.6 3.4l-1.8.2c.4.7 1.2 1 2.3.8.1 6 .3 12.1.2 18.2l-1.3-.3 1.3 1.7c-7.2 0-14.5-.4-21.7.3.8-3.1.3-6.3.2-9.4-.4-7.3-.3-14.7-.3-22m4.5 2.2c1 1.4 1.3 3.2 1.3 5l-2.5.2c.2.3.8 1 1 1.5l-1 2.1c1.2.6 2.4.5 3.7 0 .3 1.4 1.5 1.7 2.7 1.9-3.2-2.6-2.2-7-3.2-10.5l-2-.2m-.6 16.6c.7-1.5.8-3.1 1-4.8-2.4-.6-3.5 4.7-1 4.8m4.1-2.7c-1.2 1.3-2.3 2.9-1.7 4.7.6 2-1.1 3.5-2.6 4.6 3.9.6 4.9-4.3 4.6-7.1l1.7-1-2-1.2m8.1 7.2c1.4 1 2 2.5 2.7 4a20 20 0 0 0 1.4-6.5 15 15 0 0 0-4 2.5m-4 2.9 1.1 3.8c1.4-1.5 3-3 3.7-5-1.6.1-3.2.6-4.8 1.2Z"/><path fill="#d2d5e5" d="M491 107.2c2.5-.2 4.9-.4 7.3-.4l-2 2.3c-.1 3.3-.5 6.6-.1 9.9.8.6 2 .4 3 .5.1-1.3.4-2.6.6-3.8l3.6-1.7v2.4c2-.8 2.3-3 3-4.9l-4.1.2c-.9-1-1-2.4-1.5-3.6 5 .3 10 .6 14.8-1h.8l.4 3.2-2.3 1.6.8 2.7-3.3.6-.5 1c0 .3-.3.9-.4 1.1 4.7 1.2 9.4 2.1 14 3.3l.8 1.2-1.1.5 2.9 5.6c-.3-2.2-.5-4.5-1.3-6.6 2 .4 4.6.7 5.6 2.8a18 18 0 0 1 .3 9.7c-1 2.6-4 3-6.3 3.7l1.7-2.1.3-5.4-2.8.9-1 4.1-1-1.8c.8-1.8 1.4-3.6 2-5.4-3.1-.3-5.2 2-6.8 4.4l-2.1.8v4c-2-.6-4-.4-5.7 1a8.9 8.9 0 0 0-9.2.1c-4.8.3-9.8.2-14.2-2-.5-2.6-.8-5.3-1-8 7 .6 14.2-1 21.2.9l1.7 2.2 1.7-4.8-11.8-2.8.2-2.6-.5 2.7c-5-1.7-11.8-1.5-14.8-6.5l.2-7c2-1 4.2-2 6.5-2.8l-1.4 4.4-2.2-1.3c.7 2 2.5 3.5 3 5.5l-2.6.8.7 1.5 2-1 1.3 2.8c0-2.1 0-4.2-.8-6.1l4.5-1.5-5.8 1.1c.5-2.2 1.1-4.3 1.8-6.4m17.4 2c1.5 1.1.6 3.3 1 4.8l-2.7.3c.2 1.5 1.4 2.4 2.8 2.8 1-2.4 1.9-5.3 0-7.4l-1.1-.4m-1.2 12.1c-.9 1.3-.7 2 .6 2.3.9-1.3.7-2-.6-2.3M497 137l5-1-1-2c-1.6.6-4.1.6-4 3Z"/><path fill="#c7cada" d="M498.3 106.8h1.4l1 1.3c.6 1.2.7 2.6 1.6 3.6 1.3 0 2.7 0 4-.2-.6 1.8-.9 4.1-2.8 5V114l-3.7 1.7-.7 3.8c-1-.1-2 0-3-.5-.3-3.3 0-6.6.1-9.9l2-2.3Z"/><path fill="#e6e9fc" d="M499.7 106.8c5.3 0 10.6-.3 16 .3a40 40 0 0 1-15 1l-1-1.3Z"/><path fill="#d0d3e2" d="M517.5 107.3c2.7-.6 5.4-.5 8.2-.2l-2.4 2.7c2.3-.2 4.6-3 6.8-1 2.4 1.7 1.5 5 2.2 7.6l-6 .1c1-1.7 1.1-3.7 1.2-5.7l-2.5 1.4c-.4.9-.9 1.8-1.5 2.5H516l1.4-7.4m1.7 4.7-1 1.3c1.1 3.2 5-2.1 1-1.3Z"/><path fill="#262526" d="M10.8 138.3c-.7-10.1.1-20.3.7-30.4.3 2.1.4 4.3.4 6.4-.6 6.6-.5 13.2-.7 19.9l4.3-1.6-4.4 2v3.5c6.6-.2 13.1 0 19.6-.1l.3-13-2.5.3 1.8-4.5-1.3 4 2.7-.1c2 3.6 3.6 7.5 5.7 11l-1.7 3.4c-7.6.3-15.3.3-22.9 0l-2-.8Z"/><path fill="#f5f7fd" d="M40.4 107.3c2.3 1.5 1.6 4.4 1.7 6.7 0 2.3.2 4.6-1 6.6a82 82 0 0 1-.7-13.3Z"/><path fill="#c8cad9" d="M32.2 108.9c1.1 2 1.7 4.3 2.3 6.5l-1 1.9c1 1.6 2.8 2 4.6 1.3-.8 2-4.8 1.8-5.3-.4l-3.2.9.8-3.7-1.7-1.4h3l.5-5.1Z"/><path fill="#817f7c" d="M96.4 108.7c1.8 4.3.4 9 .9 13.5-.2 5-.2 10.2-.5 15.3-1.7-2.9-1.1-6.3-1.1-9.4.3-6.5 0-13 .7-19.4Z"/><path fill="#c0c2cf" d="M110.8 113.8c.9-1.5-.2-4 1.5-4.9.8 3 .9 6 .5 9l-1.3-1.8-.6 3c-2.8-1-.7-3.4-.1-5.3Z"/><path fill="#d2d4e0" d="m186 109 4.3 5.4.3-5.7c3.4 1.6 2.2 6 2.6 9.1l1.4 1 1-2.5 2.8.4.5 1.1h-1l-.6 2.4a9 9 0 0 1-5.8-1.3l-2.1-.1-5.3-4c-.6-2.2 1-4 2-5.8Z"/><path fill="#c8cada" d="M345.4 109.4c1.7 1.4 2.8 3.2 4.1 5l-1.6 3.6a21.7 21.7 0 0 0-8-3.3V113l2.6 1-.2-2.7 3.1-2Z"/><path fill="#aeb1c0" d="M349.7 108.7c1.8 1.3 2.1 3.5 2.7 5.5a22 22 0 0 0-2.4 3.8l-.5 1-1.6-1 1.6-3.7.2-5.6Z"/><path fill="#d6d9eb" d="M384.8 108.8c2.5-1.5 3 2.2 3.3 3.8a20 20 0 0 1-4.6 1.8c-.2-2 .3-4 1.3-5.6Z"/><path fill="#8f8d8e" d="M420.4 109.3c2 3.2 1.5 7 1.6 10.6 0 6.2.3 12.5-.5 18.7-2-4-1.1-8.4-1.5-12.5 0-5.6-1-11.3.4-16.8Z"/><path fill="#adacb3" d="M478.3 116c.1-1.7-.5-5.3 1.9-5.5 1.3 0 2.6 0 3.9-.3l-.2 7-.4 1.5h-3.3c1.3 1.8 2.8 3.7 5.2 4.3l-.3 3.1v.3c-.2 2.7-.2 5.4-.1 8.2-1.4.2-2.6 0-3.8-.8-.8-1.5-.6-3.2-.8-4.9 0 2-.3 3.9.2 5.7 3.3 5 10 5.1 15.4 5.4 10.5.3 21.1.6 31.5-1.3 3-.4 6-2.3 6.7-5.4.6-2.7.3-5.6.3-8.3 1.6.5 1.7 2.5 1.9 4 0 3.4-.7 7.3-3.8 9.4-4 3.6-9.6 3.2-14.6 4-8 .2-16 0-24 0-4.4-.3-9.4-.4-12.6-4-3.4-3-4-8.5-1.1-12.2 1.9-3.6-2.6-6.5-2-10.2Z"/><path fill="#b3b5c2" d="m46.6 112 4-1c-.3 3.5-2.3 6.2-4.5 8.8-1-1.6-.3-3.3.1-5 1.4.6 2.3-1.5 1-2.2l-.6-.7Z"/><path fill="#a8a9b6" d="M180.6 111.7c1.8-1.3 2 1.8 1.3 2.9l-.7.1-1.5-1.7.9-1.3Z"/><path fill="#b5b7c4" d="M215.7 119.2c0-3.1 1.4-6.2 3.2-8.7a9 9 0 0 1-3.2 8.7Z"/><path fill="#100e0b" d="m525 112.2 2.5-1.4c-.1 2-.3 4-1.3 5.7l6-.1.8.3-2.3 1-6.5 1 1 2c-4.7-1.3-9.4-2.2-14-3.4l.3-1c4.9.1 9.8.5 14.6-.3l-2.6-1.3c.6-.7 1.1-1.6 1.5-2.5Z"/><path fill="#c5c7d6" d="M15.2 112c.9-.7 3.3 0 2.2 1.3-1 2-4.8.1-2.2-1.3Z"/><path fill="#bdbfd0" d="M174.1 112.3c.8-1.2 3.6-.3 2.3 1.2-.8 1.2-3.6.3-2.3-1.2Z"/><path fill="#bfc1d1" d="M227.2 112c.8-.6 3.3 0 2.3 1.4-1 1.8-4.9 0-2.3-1.3Z"/><path fill="#babccc" d="M359.4 112.3c.8-1.3 3.4-.2 2.2 1.2-.8 1.3-3.4.3-2.2-1.2Z"/><path fill="#b5b8c9" d="M519.2 112c4-.8.1 4.5-1 1.3l1-1.3Z"/><path fill="#bbbcc8" d="M19.1 113.4c3.3 0-1.5 3 0 0Z"/><path fill="#807e82" d="m46.2 114.8 1-2.2c1.3.8.4 2.8-1 2.2Z"/><path fill="#100e0c" d="M291.9 114.7c4.4 0 8.9-.2 13.4 0-3.4 3.9-9.1 1.7-13.6 2.5l.2-2.5Z"/><path fill="#e7ebfb" d="m512 115.2 3.3-.6h.8c2.5 0 5 0 7.4.2l2.6 1.3c-4.8.7-9.7.3-14.6.2l.5-1.1Z"/><path fill="#bdbecc" d="M20 116.2c1.7 0 1.4 2.8 0 2.9-1.7-.1-1.4-2.8 0-2.9Z"/><path fill="#a6a5aa" d="M22.2 117.1c1.6-.5 2.2 0 1.7 1.7-1.6.5-2.2 0-1.7-1.7Z"/><path fill="#8e8a8d" d="M49.2 117.2c3.3.1-1.5 3 0 0Z"/><path fill="#1c1b18" d="M483.5 118.7c0-.4.3-1.1.4-1.5 3 5 9.8 4.8 14.8 6.5l.5-2.8-.2 2.7 11.8 2.8-1.7 4.8-1.7-2.2v-2.5l-22.3-.1v-.3c1.8-.2 3.8-.4 5.2-1.6-1.6-.6-3.3-1-5-1.5-2.3-.6-3.8-2.5-5.1-4.3h3.3Z"/><path fill="#9b9a9b" d="m381.9 119.1 6.9-1.4-.2.5-.7 2.6c.6 1.6 2 3.2 1.7 5l-1 3.5c-.3-1.9-.5-3.8-1.3-5.5-1.2-1.3-2.8-2-4.4-2.7l2.1-.7-3.1-1.3Z"/><path fill="#a6aabb" d="M21.2 121.1c1.2.7 1.2 1.4-.1 2-1.3-.6-1.2-1.3 0-2Z"/><path fill="#b0b4c5" d="M47.1 121.3c1.6-.6 2.2-.1 1.6 1.5-1.6.6-2.2.1-1.6-1.5Z"/><path fill="#adb1c2" d="M100.1 121.3c1.7-.6 2.2 0 1.7 1.6-1.7.5-2.2 0-1.7-1.7Z"/><path fill="#abafc1" d="M126.3 122.8c-.9-2.1 3-2.2 1.7 0h-1.7Z"/><path fill="#a7abbc" d="M180.3 121.2c1.3.6 1.3 1.2 0 2-1.4-.6-1.3-1.3 0-2Z"/><path fill="#aaaec1" d="M206.2 121.3c1.6-.6 2.2 0 1.7 1.6-1.6.6-2.2 0-1.7-1.6Z"/><path fill="#151513" d="m213.4 121-.5 5.8-.7 10.4-1.5-3.4-3 5.3c-4.7.1-10.2 1.8-14.3-1 4.2-.2 8.3 0 12.5-.2l2.2-5.7-2-.2 2.5-.7c1.8-3.3 3-7 4.8-10.3Z"/><path fill="#b2b3be" d="M215.4 121.4c1.4.3 1.1 3.9-.2 4.3-.8-1.3-.5-3.1.3-4.3Z"/><path fill="#b6bacd" d="M286.2 121c2-1 2.9 2.6.8 2.9-1.7.2-2.6-2.4-.8-3Z"/><path fill="#babcc7" d="M373.2 125.9c.6-1.8.2-4.8 2.7-5-.4 1.8.2 5.5-2.7 5Z"/><path fill="#b8b9c5" d="M428 125.8c-2.6 0-1.5-5.4 1-4.8-.3 1.7-.4 3.3-1 4.8Z"/><path fill="#a8a9b4" d="M507.3 121.4c1.3.3 1.5 1 .6 2.3-1.3-.3-1.5-1-.6-2.3Z"/><path fill="#f1f5ff" d="M128 122.8c1 0 1.8 0 2.8.2l-.2.5c-3.8 2-8.3 0-12.3.7l.7-1.3h9Z"/><path fill="#c9cad7" d="m113.1 123 1.8 1.5c-2.5.6-1 3.6-2.1 5.2-.6 1.8-2.4 2.4-4 3.1.7-1 1.6-1.9 2.4-2.8.3-2.4.3-5 2-7Z"/><path fill="#161413" d="M187 122c1.2 2.6 2.1 5.2 3.1 7.8a41.7 41.7 0 0 0-1 9.5c-6.8.3-13.5.2-20.2.1l-.8-.3-.4-1c6.4-.2 12.8-.1 19.2 0-.1-5.4-.2-10.7 0-16Z"/><path fill="#c3c5d2" d="m193 123.1 2.1 1.3-2 .8c0 1.6-.2 3.2-.4 4.8-2-2.1-1.9-5 .4-6.9Z"/><path fill="#c8c9d7" d="m219 123 3 1.4-2.5 1c.5 2 0 4.2-.8 6.1l-3.8 1.2c3.2-2.3 2.2-6.5 4-9.6Z"/><path fill="#c3c4d2" d="M377.2 127.8c-.7-2 .7-3.6 1.7-5 1 .8 1.8 1.6 2.2 2.8l-2-.5c0 2 .2 4.2-1 6-1 1.2-2.7 1.3-4 1.8 1.3-1.5 3.9-2.8 3.1-5.1Z"/><g fill="#c0c2d0"><path d="m432 123.1 2 1.2-1.7 1c.3 2.9-.7 7.7-4.6 7 1.5-1 3.2-2.4 2.6-4.5-.6-1.8.5-3.4 1.7-4.7ZM278.4 131.4c2.3-1.5 4.6-3.5 7.5-3.4-.8 2.2-1.8 4.3-2.8 6.3l-1.4-2.2a18 18 0 0 1-3.8 4.5c-1.7-1.4-1.5-4.2.5-5.2Z"/></g><path fill="#666461" d="m485.4 123 5 1.5c-1.5 1.2-3.5 1.4-5.3 1.6l.3-3.1Z"/><path fill="#403e3b" d="M346.3 123.5c2 .3 4 1 5.8 1.8l-1.7.9c-2.2 0-4.3 0-6.5-.2l2.4-2.5Z"/><path fill="#b7baca" d="M22.1 125.3c3.3.3-1.5 3 0 0Z"/><path fill="#bec1d1" d="M101.5 125.1c1.3-.3 1.8.3 1.3 1.7-1.4.3-1.8-.3-1.3-1.7Z"/><path fill="#babece" d="M181.2 125.3c1.4-.4 1.8.2 1.4 1.6-1.4.3-1.8-.2-1.4-1.7Z"/><path fill="#b4b7c6" d="M208 125.2c3.3.2-1.5 3 0 0Z"/><path fill="#bdc0d1" d="M287.4 125.1c1.4-1 2.6 1.6 1.5 2.6-1.4.8-2.5-1.6-1.5-2.6Z"/><path fill="#c3c5d3" d="M204.5 127c.6 2.4.2 4.9-.8 7.1-2 .2-2.4-2.3-2.5-3.8 1-1.3 2.2-2.2 3.3-3.3Z"/><path fill="#ced1e1" d="M342.1 127.1h1c1 1.3 4.4 2.8 3.9 0l1 .1c1 1.2 1.7 1 1.8-.7h1.8c1.2 1.7 2.5 3.3 4 4.6l-.2-3c2.5.6 6.6 2.3 7.2-1.6h.7v3.6c1.1.8 2.3 1.5 3.3 2.4 1.1 2.4-.7 3.4-2.5 4.3l-3.2-1c-2.2 1.6-6.3 3-7.5-.5l-1.3 2.8-2.7-.2c-1.8-2.3-4.8-2.8-7.3-4-.6-2.2 0-4.5 0-6.8m14.7 6 .9 3.2c1.4-1.2 3.3-2.2 3.4-4.4l-4.3 1.1Z"/><path fill="#edf1fb" d="M485 126.4c7.5.2 14.9.2 22.3 0v2.6c-6.9-2-14-.3-21.2-.8l1 8-2.1-1.6v-8.2Z"/><path fill="#c4c6d5" d="M17.1 128.2h3c-.8 1.7-1.2 4-3.4 4.3 0-1.5.2-2.9.4-4.3Z"/><path fill="#c0c3d1" d="M174.2 130.5c1.7-1.3 3.4-2.6 5.6-2.5l-2 4-3.6-1.5Z"/><path fill="#bbbdcc" d="M440.1 130.3a15 15 0 0 1 4.1-2.5 20 20 0 0 1-1.4 6.5c-.6-1.5-1.3-3-2.7-4Z"/><g fill="#121211"><path d="M480.6 134.6c-.5-1.8-.2-3.8-.2-5.7.2 1.7 0 3.4.8 5 1.2.6 2.4.9 3.8.7l2.2 1.6c4.4 2 9.4 2.2 14.2 2l9.2-.1c4.6.3 9.2.1 13.9 0l.8.2 2.2.4c-10.4 1.9-21 1.6-31.5 1.3-5.4-.3-12-.3-15.4-5.4ZM304.4 131.1l1 .4c.1 2.7 0 5.4-.7 8-11.3 0-22.6.2-34 0l-1-.1 1.2-1.4h33.5v-6.9Z"/></g><path fill="#b6b8c8" d="m100.2 131 2.5-.7a11 11 0 0 0-.3 5.3l-4 1.5c.9-2 1.4-4 1.8-6Z"/><path fill="#5d5b5b" d="m190.1 129.8 2.6 6.6-3.6-.8c.2-2 .6-3.9 1-5.8Z"/><path fill="#b0b3c2" d="m286.2 131 2.5-.8c-.3 1.8-.4 3.6-.3 5.4l-3.5 1.3 1.3-5.8Z"/><g fill="#b6b9c8"><path d="M45.3 137c1.5-2 .5-6.3 3.7-6.4-.1 1.7 0 3.4.5 5l-4.2 1.4ZM179.4 131.2l2.7-.5a14 14 0 0 0 .4 4.9l-4.4 1.5c1-1.8 1.6-3.8 1.3-5.9Z"/></g><g fill="#151414"><path d="M131.4 130.8h1.5l1.6.9v7.8h-.4c-8 .2-16 .1-24 .2-4.1 0-8.2.2-12.3-.6l-.7-1c11.1-.3 22.3 0 33.4-.2l.8-.2.1-6.9ZM422.5 139.6l1.6-1.3c7.2-.7 14.5-.2 21.7-.2l.8 1c-8 1-16 .4-24.1.5Z"/></g><g><path fill="#b7b9c5" d="m38 133 4.1-1.3c0 1.9-1.6 3-2.8 4-1-.5-1.4-1.5-1.3-2.7Z"/></g><g><path fill="#babbc5" d="M120.2 132c3.9-.6 0 4.6-1 1.2l1-1.2Z"/></g><g><path fill="#b4b5c3" d="m170.7 132.9 4.5-.9c-.6 2-2.4 3.2-4 4.3l-.5-3.4Z"/></g><g><path fill="#afb1bd" d="m356.8 133 4.3-1c0 2-2 3.1-3.4 4.3l-1-3.3Z"/></g><g><path fill="#abadb8" d="M386.4 132.4c2 1-2.6 3.9-3 1.4.3-1.2 2-1.3 3-1.4Z"/></g><g><path fill="#b3b4c2" d="M436.2 133.2c1.6-.6 3.2-1.1 4.8-1.2-.7 2-2.3 3.5-3.7 5l-1-3.8Z"/></g><g><path fill="#b6b9ca" d="M496.9 137c-.1-2.4 2.4-2.4 4-3l1 2-5 1Z"/></g><g><path fill="#e0e4f4" d="M516.3 137c2 0 3.2-1.7 4.7-2.7l3.5 3.8c-4.7.1-9.3.3-14 0 1.7-1.5 3.8-1.7 5.8-1Z"/></g><g><path fill="#646362" d="M37.4 135.8c.5.7 1 1.6 1.7 2.2 1.5.9 3.2 1.3 4.9 1.3 6.6.2 13.3-.2 20 0-6.8 1.7-14 1-21 .8-5.3-1.7-10.6.7-16 .3-4.7-.3-9.7.7-14.2-1.3 7.6.3 15.3.3 22.9 0l1.7-3.3Z"/></g><g><path fill="#ebedfa" d="M501.4 138.1a8.9 8.9 0 0 1 9.2 0c-3 .2-6.1.1-9.2 0Z"/></g></svg>