<svg width="512pt" height="152pt" viewBox="0 0 512 152" xmlns="http://www.w3.org/2000/svg"><g fill="#e01414"><path d="M483.5 0h13.3c4.5.5 9.3 2.4 11.8 6.4 4.3 6.8 3 15 3.2 22.6.1 7.6.7 16-4.9 22-2.8-1-2.8 3 0 2.7 3.3 2 4.6 5.8 5.1 9.5V77c-2 .8-1.9 4 0 4.8v10a23 23 0 0 1-5.6 13.1c-7 4.3-15.5 3.2-23.4 3.1-2.2 0-4.2-.8-6-2.1-5.4-.7-8-6.2-9-11-1.2-7.8 0-15.7-.2-23.6h17.1c.5 5.5-.5 11.1.4 16.6.6 2.3 3.4 1.8 5.1 2.2 1.5-.6 3.3-1.4 3.1-3.3.3-6.3 0-12.6.1-19-.2-1.7.4-4.2-1.7-5-5.1-.8-10.4-.1-15.6-.3V44.1c5.1-.4 10.3 0 15.4-.6 2.5-2 1.6-5.6 1.9-8.5-.3-5.5.7-11.3-1-16.7-2.4.3-6.2-1.1-7 2-.7 4.8-.2 9.7-.3 14.5-5.8-.7-11.6-.4-17.4-.4-.3-7.8-.7-15.8 1-23.5 1-2.7 2.1-5.6 4.6-7.2a55 55 0 0 1 10-3.7ZM86.3 2.5c5-1.7 10.5-1.3 15.8-1.3 3.8 0 8.2-.1 11.4 2.4 2.9 2.6 4.1 6.5 4.7 10.2v23.9c-5-.4-9.9-.5-14.8.4l-2.1-.1V23.5c.7-2.5-1.4-7.3-4.1-4.4-1.7 5.1-1 10.6-.6 15.8 0 1.6 1.2 2.8 2.1 3.9l4 2.8 2.3 1.6c5.9 4 12.4 9 13.1 16.6.3 11 .5 22 0 33.1-.1 4.2-1.8 8.5-4.8 11.4-4 2.7-8.9 2.2-13.3 2.4-5.8-.1-12.5.7-17.2-3.5-3.2-4.7-3.2-10.7-3.2-16.2 0-5.3-.3-10.6.4-16-.8-2.5-.7-5.1-.5-7.8h14.9v-.7l2 1.5v3.8c.4 6.9-.9 13.9.8 20.5l1.5 1.3a3.4 3.4 0 0 0 2.5-3.6c.2-6.2 0-12.3 0-18.4-.1-1.5 0-3.4-1.3-4.5-5.2-5-11.8-8.2-17-13.2-3.4-5-3.3-11.1-3.3-16.9.1-6.6-.3-13.3.3-20 .3-4.2 2.3-8.8 6.4-10.5ZM275.1 1.8h33.6c.3 5.6.2 11.3 0 17h-.5c-2.6-.2-5.2-.2-7.8 0v5.8c0 27.4.2 54.9-.1 82.3h-.5c-5.4-.8-10.8-.3-16.2-.5V18.6H275c0-3.6 0-7.1-.2-10.7l.2-6.1ZM.5 1.8h23.6c3.5.3 7.5.4 10.4 2.7 2.5 1.8 3.2 5 4.3 7.7.3 11 .9 22-.4 33-.3 4-2.6 7.4-6 9.5 1.6 1.5 3.2 3 4.5 4.7l1.5 3.4c1.1 8.7.6 17.5.7 26.2 0 5.9.2 11.7-.2 17.6-4.5-.3-9-.1-13.4.2l-3-.1c0-10-.1-19.8 0-29.7 0-2.7-.3-5.3-1-8-.3-2.2-2-3.8-3.8-5-1.2 14 .2 28.3-.5 42.4h-.4a79 79 0 0 0-16.3.5C.3 101 .9 95.3 0 89.5v-2.4l1.5-2.3C1 83 .5 81 .5 79V1.8m16.9 44c1.5-.3 3-.3 4.3-1.2l-.2-.5c2.1-7 .2-14.6 1-21.9v.2c.4-3-2.8-3.7-5-4-.4 9.2-.2 18.3-.1 27.4ZM47.1 2c8.8-.6 17.5 0 26.3-.3l-.1.6c-.5 5.4.4 10.8.1 16.1h-9.2c-.8 7.2 0 14.4-.6 21.6l.6.1c2.9 1 6-.2 9 .2V46c.2 3.7.2 7.5.2 11.3H64c-.4 10.5-.2 21.1 0 31.7l2 .1c2.5.2 4.9.2 7.3.2v5c-.2 4 .5 8-.3 11.9-7.7.8-15.5-.3-23.2.5l-2.8.2V1.9ZM125.8 1.9c5.6 0 11.3-.6 17 0l-.1 5.6c.1 32.8-.2 65.7.1 98.5h-.9c-5.4.7-10.8-.3-16.1.8V20c1-6-.6-12 0-18.1ZM151.1 1.8c8.3 0 16.6-.2 25 .1 3.2.3 7 .2 9.4 2.7 3.6 3.7 4.2 9.2 4.5 14.2 0 21.7.2 43.5 0 65.2-.3 5.8.4 12.2-2.7 17.4-1.7 2.8-5 4.3-8.2 4.5-8.9.8-17.7.2-26.5.9h-1.4c-.2-9.6 0-19.2 0-28.8-.1-1.8.3-3.4.8-5-1.6-5.5-.6-11.3-.9-17 .3-9.1-.5-18.4.4-27.5-1-8.9-.1-17.8-.4-26.7m17 17.1v66c0 1.7-.3 3.5.8 5 1-.8 3.3-.7 3.6-2.3.8-5.5.2-11 .3-16.6 0-15.4-.2-30.8 0-46.2 0-1.6.2-3.4-.5-5-1-1.3-2.8-.8-4.2-.9ZM198 1.8c5 0 10-.4 15 0 3.7.7 7.4-.5 11.2 0-.1 5.5.3 11 0 16.6h-9.1a152 152 0 0 0 .1 22c2.8.4 5.9-.4 8.5.8 1 5.3.5 10.7.6 16h-9.4c-.3 10.5-.1 20.9-.1 31.3l.5.2c2.9.9 6 .2 9 .5v17.1c-8.5.3-17 0-25.5.2h-.9c-.4-9.2.7-18.3 0-27.5V1.8ZM231.5 1.8H248c2.3 17.2 5 34.2 7.5 51.3.8-13 0-26 .4-39.1.4-4-.5-8.1.2-12.1 4.7-.4 9.5 0 14.3-.1l-.1 104.8c-5.8-.3-11.5 0-17.2-.3-2.2-15.3-4.3-30.6-7-45.8l-.5-2.3c.3 6.2.2 12.4 0 18.6-.4 9.9.3 19.8 0 29.7h-14c-.3-8.2.1-16.4-.2-24.6-.2-3 1.1-6 .4-9-.6-5-.5-10-.4-15V1.9ZM322.5 1.8h26.3c0 5.7.2 11.4 0 17h-1l-2.7-.2c-1.9-.3-3.9-.4-5.8-.2.1 7-.1 14.1.2 21.2 2.5 1.4 6.3.3 9.3.6-.1 5.8.3 11.5-.3 17.2-3 0-6 0-9.1-.2-.3 4.6-.3 9.2-.4 13.8l-.1 1.2c1 5.5.2 11.1.5 16.7 3.1.3 6.3.3 9.4.2 0 6 .2 11.9-.2 17.8h-.9c-8.4-1.5-16.9.1-25.4-.6.7-5.4.3-10.9.4-16.3-.1-18.7.3-37.5-.3-56.2-.1-3.6 2-7.3.3-10.7-1.2-7-.2-14.2-.2-21.3ZM352.3 1.8c5.3 0 10.6-.3 15.9.1l3 57.3.3 8.4h.8c.4-13.9 1.4-27.7 2.2-41.5.8-1.7.8-3.5.2-5.1 0-6.3 1.6-12.5 1-18.8v-.5c5.3.2 10.6 0 16 0l-11.3 105.1h-1c-6-.5-11.9-.3-17.8-.4l-5-56.4c.3-6-1.4-12-1.7-18l-2.2-23.8c-.3-2.1-.4-4.3-.4-6.4ZM396.4 1.8h16.9c0 35 .1 70-.1 105.1l-2-.1c-4.9-.4-9.8-.3-14.8-.4 0-9.2-.5-18.3.5-27.4 0-2.7-.6-5.3-.6-8V7.8l.1-6ZM421.7 1.8h16.8c.2 29 0 58 .1 87.2a66 66 0 0 1 10.2.2c0 5.8.3 11.7-.1 17.5h-2c-8.3-.9-16.7.2-25-.3V1.8Z"/></g><path d="M73.3 2.3c.7 2 .4 4.3 1 6.4l1.5-.5v16.3h-9.3c.2 5.2-.6 10.4.2 15.6h-3.1c.7-7.3-.2-14.5.6-21.7h9.2c.3-5.3-.6-10.7-.1-16.1ZM224.2 1.8c1.1 4.6.1 9.4.5 14.1-.2 2.8.6 6-.4 8.5-3 .3-6 0-8.8.1-.2 5.3 0 10.5 0 15.7 3 0 6-.2 9 0 .4 7.5 0 15 .2 22.5h-9.1c-.5 8.6 0 17.3-.3 26l-.5-.2c0-10.4-.2-20.8.1-31.2h9.4c-.1-5.4.3-10.8-.6-16.1-2.6-1.2-5.7-.4-8.5-.9a152 152 0 0 1-.1-21.8h9.2c.2-5.6-.3-11.2-.1-16.7ZM351 7.8l1.7.5 2.2 23.7c.3 6 2 12 1.7 18l5 56.4c5.9.1 11.8 0 17.7.3l-.4 5c-6.2-.5-12.5-.3-18.7-.5-1.6-18.7-3.5-37.4-5-56.1.5-5.2-1.3-10.1-1.5-15.2-.7-10.7-2.1-21.3-2.6-32ZM419.4 8.3l2.3-.3v98.4c8.3.5 16.7-.6 25 .2l-.5 5.2c-8.8-1.8-17.9.5-26.8-.8.2-34.3.1-68.5 0-102.7ZM465.2 40.6c-.3-10-1.7-20.8 3.6-29.7-1.6 7.7-1.2 15.7-.9 23.5l.1.4h14.2v5.8h-17ZM38.8 12.2c3.6 4.9 3 11.2 3 16.8-.1 7.6.6 15.4-.8 22.9-.4 3-2 5.4-4.1 7.5a36.1 36.1 0 0 0-4.5-4.6c3.4-2.2 5.7-5.7 6-9.7 1.3-10.9.7-22 .4-32.9ZM118.2 13.8c.6 1.6 1.5 3.3 1.5 5.2.6 8.1.4 16.3.4 24.5-3.4 0-6.8-.7-10.2-.2-1.6 0-3.4 1-4.9 0l-2.3-1.7.7-3.5c5-.9 9.9-.8 14.8-.4v-24ZM17.4 45.8c0-9.1-.3-18.2.2-27.4 2.1.3 5.3 1 4.8 4L20.6 26l-.3 13c0 1.8-.2 3.8 1.2 5.1l.2.5c-1.3.9-2.8.9-4.3 1.2ZM168.1 18.9c1.4.1 3.2-.4 4.2 1 .7 1.5.4 3.3.5 5l-3.6.1c-.5 21.6 0 43.2-.3 64.8-1.1-1.4-.7-3.2-.8-4.8V18.9ZM300.4 18.8c2.6-.2 5.2-.2 7.8 0l-.1 6c-2.6-.2-5.1-.3-7.7-.2v-5.8ZM340.2 19.3c1.5-.8 3.3-.6 5-.7l2.5.2v6c-2.6-.1-5-.2-7.6-.1-.1-1.8-.8-3.8.1-5.4ZM73.3 46l2.3.3c0 5.5.3 11 .2 16.5h-9.2c-.5 8.7.4 17.6-.4 26.3L64 89c-.2-10.6-.4-21.2 0-31.8h9.3c0-3.7 0-7.5-.2-11.2ZM473.6 50l2.6-.6v13.2c5.3.2 10.6-.5 15.7.3 2.1.8 1.5 3.3 1.7 5 0 6.4.2 12.7 0 19 .1 2-1.7 2.7-3.2 3.3 0-6 .2-12.1 0-18.2 0-1.3 0-3.3-1.7-3.7-5-.9-10.2 0-15.3-.2 0-6-.4-12.1.2-18.2ZM339.4 57.2c3 .1 6 .3 9.1.2-1.3 1.5-.9 3.6-1 5.4-2.4.6-5-.1-7.4-.5-.7 2.9.1 6-1 8.7 0-4.6 0-9.2.3-13.8ZM38.4 62.8c2 3 3.3 6.6 3.4 10.4.3 12.7 0 25.4.1 38-5.4 0-10.9.4-16.3.5v-5c4.4-.2 8.8-.4 13.3-.1.4-5.9.2-11.7.2-17.6 0-8.7.4-17.5-.7-26.2ZM245.7 76.8c-.1 11.5.2 23 0 34.6-4.6-.2-9.2 0-13.8-.2l-.3-4.8h14c.3-9.8-.4-19.7 0-29.6ZM485.8 124.8c2-.4 4.7-1.3 5.5 1.4 6.6.2 13.2.1 19.8.1l-.1 3.5c-3.8 0-7.5 0-11.3.2-4.8-.9-10.5-1.1-14-5.2ZM464 131.3l.8-1.9c6.3 4.5 14.4 5.2 21.8 6.8-4 1-8.2.8-12.3.8-3.7-1.2-8-2.2-10.2-5.7Z"/><g fill="#010000"><path d="M374.3 9.3c1.1-2.2.5-4.8 1.4-7 .6 6.2-1 12.4-1 18.7-1.4 1.4-1.4 3.5-.2 5-.8 13.9-1.8 27.7-2.2 41.6h-.8l-.2-8.4c1.2-16.6 1.6-33.3 3-50ZM142.8 106c-.3-32.8 0-65.7-.1-98.5l1.4 1.3c.2 34.1.2 68.3 0 102.5-5.5 0-11-.2-16.5.3l-.4-4.5c5.2-.7 10.5-.4 15.7 0l-2-.9 1-.1 1-.1ZM273.8 126.5h.5c4.8.7 9.6.1 14.4.5l-.8 1.5a91.3 91.3 0 0 1-8.5.1h-5.6v-2.1Z"/></g><path d="M274.7 24.6c.2-5.5-.2-11.1.3-16.7 0 3.6.2 7.1 0 10.7h8.6v87.8c5.4.2 10.8-.3 16.2.5v4.8c-5.5-.8-11-.1-16.6-.5V24.7h-8.5ZM394.6 8.4l1.8-.6V71c0 2.7.5 5.3.5 8-1 9-.5 18.3-.5 27.4 5 .1 10 0 14.8.4v5c-5.5-.3-11-.6-16.6-.5 0-9.5-.6-19 .6-28.3-.3-2-.8-4-.7-6V8.4ZM485.6 20.3c.8-3.1 4.6-1.7 7-2 1.7 5.4.7 11.2 1 16.7-.3 2.9.6 6.4-1.9 8.5l-1.1-1c-.6-6 .6-12.3-1-18.2l-3.5.4-.5-4.4ZM190 18.8c1.1 4.3.8 8.8.9 13.2v59c-.2 5.3.2 11.2-3 15.8-2 2.9-5.7 4-9 4.1-8.8.7-17.6 0-26.4.8v-5c8.9-.6 17.7 0 26.6-.8 3.2-.2 6.5-1.7 8.2-4.5 3.1-5.2 2.4-11.6 2.8-17.4V18.8ZM118.1 59.8c1.3 2.2 1.8 4.7 1.8 7.2.4 11.3.6 22.7-.3 34-1 4.3-3.6 9.3-8.5 9.8-6.7 1-13.5 1-20.2.1-4.1-.4-7.1-3.8-8-7.7 4.6 4.2 11.3 3.4 17 3.5 4.5-.2 9.5.3 13.3-2.4 3.1-3 4.8-7.2 5-11.4.4-11 .2-22 0-33.1ZM246.1 64v-3.5c2.8 15.2 4.8 30.5 7 45.8 5.7.3 11.4 0 17.2.3l-.2 4.8c-5.6-.3-11.3.1-17-.3-2.2-15.7-4.6-31.4-7-47ZM467.6 71.4h.2c.1 7.9-1 15.8.3 23.6.9 4.8 3.5 10.3 9 11a9.4 9.4 0 0 0 6 2.1c7.8 0 16.3 1.2 23.3-3-1.3 2-2.6 4.2-4.8 5.5-5 3-11 2.2-16.6 2.4-3.6-.2-7.9.6-10.7-2.2-6.2-.7-8.7-7.5-9.3-12.8-.5-7-.3-14-.2-21l2-.3.8-5.3ZM73.3 94.2h2.4c0 5.8.2 11.5 0 17.1-8.7 0-17.3-.2-26 .4l.1-5c7.8-.8 15.6.3 23.3-.5.8-4 0-8 .2-12ZM224.3 106.3V93.6c.8 5.8.1 11.6.4 17.4-8.6.7-17.3.1-26 .3v-4.8c8.6-.1 17 .1 25.6-.2ZM322 106.3h.3c8.5.7 17-.9 25.4.5l-.4 5c-3.4-.2-6.8-1-10.3-1-5 .8-10.3.5-15.4.5l.4-5ZM117.3 117.5c2.4 1.6.7 5.5 1.2 8l-1.8 1.7 1.8 2.3v6.8c-1.5 1.3-1.6 2.5-.1 3.8l.1 7.4-1.5 1.3v3.2H84.3v-3.8c5 0 10 .3 15-.2-1.2-.7-2.5-1.2-3.8-1.7l2-.8c1.4 1.1 2.3 3.3 4.5 2.2.6-1.6 1.3-1.4 1.7.6l13.7-.1v-8.6c-4.7 0-9.3-.3-14 0v-2.3h14v-8.7c-4.7 0-9.3-.3-14 .2v-2.5h14v-8.8ZM216.8 117.6c.2 11.4.4 23-.2 34.4h-19c-.3-4 0-8-.7-12-1.8 4-3.3 8-5 12h-13.6c-1.7-4.1-3-8.3-5.1-12.3-.3 4.1-.5 8.2-1.3 12.3h-18.7v-3.8h19.1V133.8a135.9 135.9 0 0 1 5.8 14.4h14c1.5-3.5 3-7 4.3-10.5l1.3-1.7c0 3.4.1 6.9-.1 10.3l.7 1.4c3.8 1.3 8 .2 12 .5h6.4v-11.4c0-6.4-.2-12.8 0-19.2ZM21.7 142.3l1-2.2c2 2.8 3.9 5.6 6.1 8.2 6.3-.2 12.5 0 18.7-.1h.3c-.2 1.2-.2 2.5-.3 3.8H28.7c-2.4-3.2-4.8-6.4-7-9.7ZM416.9 148.1c2-2.7 5.2-4.1 8.4-5.2v.3c-3.2.9-6 2.5-8.3 5h8.3v3.8h-18.9c0-1.2-.2-2.3-.3-3.5l1.7-.2c3 0 6 0 9-.2ZM322.8 144.1l1 .9c5.8 4.8 13.7 2.9 20.5 3.2 8.6-.4 18.3 1.9 25.8-3.4 0 1.4.3 3.2-1 4.1-3 2.2-7 2.5-10.4 3.1h-25.4c-4.5-.5-10.9-2-10.5-7.9ZM507 147.3c1.8-.7 3.5-1.8 5-3.2v3.7c-3 3-7.4 3.5-11.4 4.2h-26.2c-3.9-.6-8.3-1.8-10-5.9l2.5.4c6 2.4 12.7 1.7 19 1.7 7 0 14.2.5 21-.8ZM0 148.3h6l13.1-.1 2.2-.2-2.3.6.1 3.4H0v-3.7ZM254.8 148.2h33v3.8h-33v-3.8ZM321.5 8c1 5-1 10.3 1.2 15 1.8 3.5-.4 7.2-.3 10.8-1-8.5-1.5-17.3-.9-25.9ZM17.2 106.4c.7-14.2-.7-28.3.5-42.4 1.8 1.2 3.5 2.8 3.8 5-1.3 2.5-1.1 5.3-1.2 8 0 11.4.4 22.8.1 34.3-5.4-.2-11 .3-16.4.4l-.7-4.7c4.5-.5 9 .1 13.5-.6h.4Z"/><path d="m96.5 67.8 1.4 1.2c-.5 6.4.4 13-.7 19.3-1.7-6.6-.4-13.6-.7-20.5Z"/><g fill="#010000"><path d="M97.2 19.1c2.7-3 4.8 2 4.1 4.4-4.7 3.5-2.9 10.3-2.6 15.3-1-1.1-2-2.3-2.1-3.9-.4-5.2-1-10.6.6-15.8ZM98 69l.5.5c.2 6.7-.2 13.4.2 20.1l-1.5-1.3c1.1-6.4.2-12.9.7-19.3Z"/></g><path fill="#5b0808" d="M374.5 26c-1.2-1.5-1.2-3.6.2-5 .6 1.6.6 3.4-.2 5Z"/><path opacity=".5" d="M321.4 34.8c1 1.6.6 3.5.7 5.2-.1 22 .2 44.2-.1 66.3l-.4 5c-.8-5.8-.6-11.5-.6-17.3V45c0-3.4-.1-6.8.4-10.2Z"/><path d="M82.9 50C88 54.8 94.7 58 99.9 63c1.3 1.1 1.2 3 1.4 4.5a139 139 0 0 1-7-5.1C89.8 59.3 83.8 56 83 49.9ZM321.9 130.2c-.8-3.3-1.9-7.6.9-10.2-1.1 2.3-2.2 5.3-.6 7.7 2 3.5 6.3 4.5 9.8 5.6 5.2 1.4 10.5 2.5 15.9 3.3v2.8l-1 .8c-2.2 1.4-1.8-1.6-2.3-3h-12.1c-3.9-1.7-9-2.6-10.6-7ZM344.7 125.8c.7-3 4.3-1.4 5.4.5H369.5v3.4c-4 0-7.9 0-11.8.2l-1.6-.2a78.3 78.3 0 0 1-8.4-1.8l-3-2.1Z"/><path fill="#340404" opacity=".8" d="M506.8 53.7c-2.7.2-2.7-3.6.1-2.7v2.7Z"/><path fill="#860b0b" opacity=".6" d="M512 81.9c-1.9-.9-2-4 0-4.8v4.8Z"/><path fill="#353535" opacity=".8" d="M21.9 117.5c2.7-.4 4.1 2.3 5.4 4.3 1 1 .7 2.3.5 3.6a91.7 91.7 0 0 1-3.5-4.4l-2.4-3.5Z"/><g fill="#282828"><path d="M153.3 117.7c4.2-.4 8.4 0 12.7-.1 4.8.2 9.7-.7 14.6 0 1.5 3.5 3.2 7 4.9 10.4l-.6 1-3-7.1-1.9-4.2h-26.7ZM461.3 123c1-4.3 6-5.8 10-6.1-3.3 1-7.4 2.3-8 6.2-.6 2.2.5 4.4 1.5 6.3l-.7 1.9c-1.6-2.5-3.7-5.1-2.8-8.2ZM47.5 117.7l2.2.1v30l-2 .4h-.2v-30.5ZM404.8 118.4l1.3-.9c.3 10.3.3 20.7 0 31-2-1.3-1.3-3.6-1.4-5.5.2-8.2-.2-16.4 0-24.6Z"/></g><g fill="#d9d9d9"><path d="M322.8 120c2.9-2.3 6.6-3.3 10.2-3.3h15.6c-.7.8-1.4 1.5-2.3 2.1l-2.5 1.6c-3.5-.5-7-.6-10.6-.3l2.4 4.8-7.4 2.3 4.4 3.9-.6 2.2c-3.6-1.1-7.8-2-9.8-5.6-1.6-2.4-.5-5.4.6-7.7ZM157 128.6c3-1.1 6.5-1.6 9.2-3.6 1.2 1.4 5.2 2.1 4.1 4.4-4.4.4-9-.4-13.3-.8Z"/></g><path fill="#dfdfdf" d="M348.6 116.7h7.5l-2.6 2.5c3.3.3 6.5.3 9.7.6a168 168 0 0 1-4.1 4.4l.8 2.1h-9.8c-1.1-2-4.7-3.5-5.4-.5l3 2-3.3 1.1-1.6.9-1.6-.8 1.6-3.2-4 2-1.1-1.2-2.3 1.4.2-3.1-2.4-4.8c3.5-.3 7-.2 10.6.3l2.6-1.6c.8-.6 1.6-1.3 2.2-2Z"/><path fill="#cacac9" d="M356.1 116.7c4.5-.2 9.6.3 12.8 3.9a20.1 20.1 0 0 0-6.3 5.7H360l-.8-2.1a168 168 0 0 0 4.1-4.4c-3.2-.3-6.4-.3-9.7-.6l2.6-2.5Z"/><g fill="#e2e2e2"><path d="M471.2 116.9c8.6-.5 17.2 0 25.8-.2 4.2 0 9.2-.3 12.5 3 1.9 1.6 1.5 4.3 1.6 6.6h-19.8c-.8-2.8-3.6-2-5.5-1.5 3.4 4 9 4.3 14 5.2 4.1.9 8.7 1.4 12.2 4.2v8.8c-2.2 0-4.5 0-6.6.4-.3 1.6.9 2.7 1.6 4-7 1.3-14 .7-21 .8-6.4 0-13 .7-19.1-1.7-2.5-2.5-2.6-6-2.4-9.2 7.1.1 14.3-.2 21.5 0 .5 2 1 4.3 3.5 3.6v-4.4l-3-.3c-7.3-1.6-15.4-2.3-21.7-6.8-1-2-2-4-1.4-6.3.5-3.8 4.6-5.3 7.8-6.2m-3.1 4.2c-.3 1.4.2 2.5 1.2 3.4 0 2 .2 4.2.5 6.2 1.7-1.4 3.6-3.2 5.7-1.3.3 1.2.8 2.2 1.6 3 .4-1.3.5-2.7.5-4.1l5.5.3c.2-2.3-2.3-2.5-3.8-3.3l.4-2.4c-2.7-.6-5.3.2-8 .5-1.3-.6-2.4-1.5-3.6-2.3m-3 3.1c-1 1.4 1.5 2.8 2.5 1.7.8-1.4-1.6-2.7-2.5-1.7m26.2 10v2.5c1.7-1 3.4-2.6 5.6-2.2 3.8.5 7.8.1 11.5 1.3-.4-2-2.4-2.3-4-2.4-4.4-.4-9-1-13.1.8ZM105.7 117.6l11.6-.1v8.8h-14c-.1-2.7 2.8-3.1 4.8-4l-7.1-.8c2.4-1.6 5.3-1.7 8-1.8l-3.3-2Z"/></g><path fill="#d8d8d8" d="M0 117.6h13l-2.1 2.2 3.5.6c-4 3.3-9.6 1.9-14.4 2.7v-5.5Z"/><path fill="#e5e5e5" d="M13 117.6H22l2.4 3.4a48.5 48.5 0 0 0-6.2 5.2c-1.8 1.7-4.4 2.6-5.6 5 3.4-1.2 6.3-3.2 9.2-5.2a202 202 0 0 0-.6 4.3c2.3 0 4-4 6-2.5-1.6 2.1-4 3.5-6.1 5l3 .5c2.8-2.4 5.8-4.6 8.3-7.3 5.2-.1 10.1-1.8 15.2-2.4v3.3l-2.6.7c-.9 2.4-2.3 4.6-4.4 6.1l1.5 2.4-1 1c-1 .9-2 1.6-3 2.3-.5 2.3-.2 4.8.4 7h4c1.6-1.1 3.4-2.1 5.1-3v4.8l-18.7.1a99.7 99.7 0 0 1-6.1-8.2L20 137c4.4-.6 9 .1 13.2-1.6 1.2-1.1.5-3 .8-4.5l-2.4 4c-4.3-.3-8.5 0-12.8.3l.6-3.2-2 2-2.3-1.3-3.7 1.3-.1-2.4-2.7.1c-.6-1.2-1.6-1.6-2.8-1.4 2 4.8 7.5 6 12.2 6v3.3l-6.9-.4 2 2c-3.9 1-7.9.5-11.8.4.1-1.8-.6-3.4-1.4-5v-1l4.6 2c1.3-.8 2.6-1.8 3.7-3-2.8 0-5.6 0-8.3-.5v-11c4.8-.7 10.3.7 14.4-2.6l-3.5-.6 2.2-2.2Z"/><path fill="#dadada" d="M28.6 117.5c6.3.1 12.6 0 19 .2v4.5c-4.7 1.5-9.2-2.1-13.7-.3l-3.3 1.5 4.3 1.2-4 .9 1.4.5c-2.5 2.7-5.5 5-8.4 7.3l-3-.5c2.3-1.5 4.6-2.9 6.2-5-2-1.5-3.7 2.5-6 2.5l.6-4.3c-3 2-5.8 4-9.2 5.2 1.2-2.4 3.8-3.3 5.6-5 2-1.9 4-3.7 6.2-5.2l3.5 4.4.5.6c.1-2.8.3-5.6.3-8.5Z"/><g fill="#e0e0e0"><path d="M84.1 117.6h16.3c-.7 2.6-2 4.9-4 6.7-1.6.3-3 .8-4.6 1.4l2 2.4c-3-.3-6.4-1.6-9.2.3 3.3.8 6.4 1.9 9.3 3.6l-1.6 3.2 3-.7c-1 1.6-2.2 3-3.9 4v-3l-4.9-.2c2.2 2 5 4 8.2 3.4 2.6 1.5 3.5 4 2.8 6.9l-2.1.7c1.3.5 2.6 1 3.9 1.7-5 .4-10.1.2-15.1.2v-30.6M86 143l3-1.9c1.7 1.7 3 3.7 2.4 6.2 2-.8 3.8-2 4.5-4.1-2-3.3-6.4-2.8-9-5.2-2.1 1-2.1 3.3-.9 5ZM185.5 128c1.8-3.4 3.4-7 5.1-10.5l19.3.1-.7 2.4 1.6 3-4.6.6-2.5 2.8-4.3.2-1-1.1-2.3 1.7-.5-4.5-2.2 3.5c-2 1.4-4.3 2.3-6.7 2.8l3.3 1.5 3 1-2.7 1-.2 1.8 3.3.5-4.5 7.8h2.4c.8-2.4 2.3-4.6 5.1-4.9l-4.3 10.5h-14c-1.3-3.7-2.7-7.3-4.2-11l1.4-1.8 2 1.8c1.4-.7 3-1.5 4.1-2.7l-3 .2c1.2-1.9 2.1-3.9 2.7-6-2 .8-2.6 2.8-3.4 4.5-3.1-.5-4.2-3.8-5.8-6 2.6-.6 5.3-.5 8-.8 0-.2 0-.8.2-1-3.3-.6-6.6.6-9.8-.1 3.2-3 8-.7 11.5-3.4l3.1 7.2.6-1Z"/><path d="M103.3 128.8c4.7-.5 9.3-.2 14-.2v8.7h-14v2.4l-1.3.8-5.1-2c.7-1.5 1.6-2.8 2.7-4.1L97 133c1.6-.4 3.3-.6 5-.7l.7-.7-2.8-1c1.1-.7 2.3-1.3 3.4-1.8m.8 2.5 5 1.5c1.5-1 3.1-1.8 4.8-2.5-3.3.2-6.7-.6-9.8 1Z"/></g><g fill="#d2d2d2"><path d="M100.4 117.6h5.3l3.4 2.1c-2.8.1-5.7.2-8.1 1.8l7 .8c-2 .9-4.8 1.3-4.7 4v2.5l-3.4 1.7 2.8 1.1-.7.7c-1.7 0-3.4.3-5 .7l2.6 1.4c-1 1.3-2 2.6-2.7 4.1l-2.2.2c-3.2.7-6-1.3-8.2-3.4l4.9.2v3c1.7-1 2.9-2.4 4-4l-3.1.7 1.5-3.2c-2.8-1.7-6-2.8-9.2-3.6 2.8-1.9 6.2-.6 9.3-.3l-2.1-2.4c1.5-.6 3-1 4.6-1.4 2-1.8 3.3-4 4-6.7ZM491.3 134.2c4.1-1.8 8.7-1.2 13-.8 1.6.1 3.7.5 4 2.4-3.6-1.2-7.6-.8-11.4-1.3-2.2-.4-4 1.2-5.7 2.2v-2.5Z"/></g><g><path fill="#c5c5c5" opacity=".9" d="M153.3 117.7h9c-2 .9-3.8 2-5.7 2.9-1.3.8-3.8 1.2-2.6 3.3 1.9 1 4 1.3 6 2-2 .4-4.1.6-6.2.4a281 281 0 0 0 0 22h-.7c.1-10.3-.3-20.5.2-30.7Z"/></g><g><path fill="#dfdfdf" d="M162.3 117.6h8.2l3.9 2.6c-3.6 2.4-7.8 1-11.7 1.4-2.1.3-4.2-.3-6-1l5.6-3Z"/></g><g><path fill="#e6e6e6" d="M170.5 117.6c3.2.1 6.4.3 9.5.1l1.8 4.2c-3.5 2.7-8.3.4-11.5 3.4 3.2.8 6.5-.5 9.8 0l-.3 1.2c-2.6.2-5.3.1-7.9.6 1.6 2.3 2.7 5.6 5.8 6.1.8-1.7 1.5-3.7 3.4-4.5-.6 2.1-1.5 4.1-2.7 6l3-.2c-1.2 1.2-2.7 2-4.2 2.8l-1.8-1.9-1.5 1.9-1.6-3.5v9.2c-2.4-.7-4.7-1.7-7.2-1.8-1.6.3-3 1.4-4.5 2.1 4 .7 8.2.8 11.7 3v2h-18.5a281 281 0 0 1 0-22c2.1.2 4.2 0 6.2-.5-2-.6-4.1-1-6-1.9-1.2-2 1.3-2.5 2.6-3.3 2 .7 4 1.3 6 1 4-.3 8.3 1 11.8-1.4l-3.9-2.6m-13.5 11c4.4.4 9 1.2 13.3.8 1.1-2.3-2.9-3-4.1-4.4-2.7 2-6.1 2.5-9.2 3.6Z"/></g><g fill="#e7e7e7"><path d="M209.9 117.6h6.9c-.3 6.4 0 12.8-.1 19.2-1.8 0-3.5.4-5.2.7l2.2 1.9-3 1.3-.5 1.8-2.3 1.4 2.4 4.3c-4-.3-8.2.8-12-.5l-.7-1.4 2.5.2 2-1a10 10 0 0 0 4.8-1.3L205 142l.2-1.7 1.7 1.7.7-2.6c1.9-2 3.7-4.2 5.3-6.5l-1-1.4a87 87 0 0 1-10.7 1l-.5.2a60 60 0 0 0-4.3 5.1c-2.8.3-4.3 2.5-5 5h-2.5c1.4-2.7 3-5.3 4.5-8-1.1 0-2.2-.3-3.3-.4l.2-1.8 2.6-1-3-1c2.3-.8 4.3-2 6.2-3.3l2.4-1.7 1 1.1 4.2-.2 2.6-2.8 4.5-.6-1.6-3 .7-2.4ZM5.8 144c4.4-.3 8.9-1.1 13.3-.3v4.5h-13a512 512 0 0 1-2.4-2.5l2-1.7Z"/></g><g fill="#e1e1e1"><path d="M254.8 117.6h25.6l-2.6 3.6a9 9 0 0 1 .2 5c-1.2 0-2.5.1-3.7.3h-.5v2l5.6.1-2.6 4.4 2.4.7c2-1.5 4.2-2.5 6.5-3.2l-1.9-1.9 4-.1v8.9c-4.8-.2-9.6-.1-14.3 0l.6 2c4.5.3 9.1 0 13.7 0v8.8h-10l1.5-1.5c3.1-.4 8-.3 8-4.5l-5.2 2 2-4-7.1 1.3 2.1 1.4a42 42 0 0 1-6.2 4.6 28 28 0 0 1 1.7-3.8c-2 .5-5.9 3.3-5.8-.3-1 1.8-3.3 2.8-4.2.3l-3.9 2.2-.7 2.4h-5.2v-30.7ZM406.1 117.5l19.2.1v18.1a24 24 0 0 0-11 .7c-2.2 2.3-.2 5.1 1.2 7.2l-2 .9-1.4 3c-1.1-1-1.8-3.7-3.7-2.5l-.6 3.3-1.7.2c.3-10.3.3-20.7 0-31Z"/></g><g><path fill="#c0bfc0" d="M280.4 117.6h7.4l.1 8.7H278a9 9 0 0 0-.2-5.1l2.6-3.6Z"/></g><g><path fill="#b9b8b8" d="M34 121.9c4.4-1.8 8.9 1.8 13.5.3v1.4c-5 .6-10 2.3-15.2 2.5l-1.4-.6 4-.9-4.3-1.2 3.3-1.5Z"/></g><g><path fill="#d2d2d2" d="M362.6 126.3c1.8-2.3 3.8-4.3 6.3-5.7.4 1.9.5 3.8.6 5.7h-6.9Z"/></g><g><path fill="#d6d6d6" d="M468 121.1c1.3.8 2.4 1.7 3.7 2.4 2.7-.4 5.3-1.2 8-.6l-.4 2.4c1.5.8 4 1 3.8 3.3-1.9 0-3.7-.2-5.5-.3 0 1.4 0 2.8-.5 4.2a6.9 6.9 0 0 1-1.6-3c-2.1-2-4-.3-5.7 1.2-.3-2-.4-4.1-.5-6.2-1-.9-1.5-2-1.3-3.4Z"/></g><g><path fill="#cbcbcb" d="m193.4 126.2 2.2-3.5.5 4.5c-1.9 1.3-4 2.5-6.2 3.3l-3.2-1.5c2.4-.5 4.7-1.4 6.7-2.8Z"/></g><g><path fill="#c5c5c5" d="M465 124.2c1-1 3.4.3 2.6 1.7-1 1-3.4-.3-2.5-1.7Z"/></g><g><path fill="#ececec" d="m328.2 127.2 7.4-2.3-.2 3 2.3-1.3 1 1.2 4-2-1.5 3.2 1.6.8 1.6-.9 3.3-1 4.4 1 1 2a422 422 0 0 0-8.2 3.6l3 .6v1.5c-5.4-.8-10.7-2-15.9-3.3l.6-2.2-4.4-3.9Z"/></g><g><path fill="#bebcbd" d="m44.9 127.6 2.6-.7v16.5c-1.7.9-3.5 1.9-5.1 3H40l2.2-3.4-.8-2.8 1.4-1.4-1.7-1.6 1-1.1-1.6-2.4c2.1-1.5 3.5-3.7 4.4-6.1Z"/></g><g><path fill="#c3c3c3" d="M279.4 128.6h4.4l1.9 1.9c-2.3.7-4.6 1.7-6.5 3.2l-2.4-.7 2.6-4.4Z"/></g><g><path fill="#cacaca" d="m352 128.9 4.1.8c-1.9 4-5.2 6.7-8.3 9.7V135l-2.9-.6a422 422 0 0 1 8.2-3.5l-1-2.1Z"/></g><g fill="#d5d5d5"><path d="M5.8 130.2c1.3-.2 2.3.2 2.9 1.4h2.7v2.3l3.8-1.3 2.4 1.3 2-2-.7 3.2c4.3-.3 8.5-.6 12.8-.3l2.4-4c-.3 1.4.4 3.4-.8 4.5-4.2 1.7-8.8 1-13.1 1.6l-1-1.2v8c-4.5-.8-9 0-13.4.3l-2 1.7 2.2 2.5H0v-11.7c.8 1.6 1.5 3.2 1.4 5 4 0 7.9.6 11.7-.4a173 173 0 0 0-1.8-2l6.8.4v-3.3c-4.7 0-10.3-1.2-12.3-6Z"/><path d="M0 134c2.8.4 5.5.5 8.3.6l-3.7 3c-1.5-.8-3-1.4-4.6-2.1V134Z"/></g><g><path fill="#d1d1d1" d="M104.1 131.3c3-1.6 6.5-.8 9.8-1-1.7.7-3.3 1.5-4.8 2.5l-5-1.5Z"/></g><g><path fill="#cbcbcb" d="m356.1 129.7 1.6.2 5.4 1.1h-3l-1.3 2.7c-2 .6-4.2 1-5.2 2.9-2.3 4-7.1 4.5-11 6-.2-1.7 1-3.2 1.7-4.7-5.8-.4-11.7-.2-17.6-.1-3.2-1-4.9 2-2.8 4.5v2.7l-1-.9c-.4-2.3-.4-4.6-.5-6.9h22.2c.5 1.4 0 4.4 2.3 3l1-.8c3-3 6.3-5.8 8.2-9.7Z"/></g><g><path fill="#c5c5c5" d="M201.2 132.5a87 87 0 0 0 10.7-1l1 1.3a58 58 0 0 1-5.3 6.5L204 138l-2 .7 1.9-2.4-3.5-.5.8-3.2Z"/></g><g><path fill="#e9e9e9" d="M360.1 131h3c2.4.7 5 1.3 7 3.1.6 3.5.3 7.1 0 10.7-7.5 5.3-17.2 3-25.8 3.4-2-3.2-6.3-3.2-9.4-1.5l2-4.3c1.8 1.4 3.8 1.2 5.7.3 3.9-1.6 8.7-2.1 11-6.1 1-2 3.3-2.3 5.2-2.9l1.3-2.6Z"/></g><g><path fill="#d5d5d4" d="m200.7 132.6.5-.1-.8 3.2 3.5.5-2 2.4 2-.7 3.7 1.4-.7 2.6-1.7-1.7-.2 1.7 2 2.3a10 10 0 0 1-5 1.3l-1.9 1-2.5-.2c.2-3.4.2-6.9 0-10.3l3-3.4Z"/></g><g><path fill="#d3d3d2" d="M414.4 136.4a24 24 0 0 1 10.9-.7v2.2c-2.5.6-5 1.6-7.2 2.8l7.2.5v1.7c-3.2 1.1-6.3 2.5-8.4 5.2-3 .2-6 .1-9 .2 0-.8.4-2.5.5-3.3 2-1.2 2.6 1.5 3.7 2.5l1.5-3 1.9-.9c-1.4-2.1-3.4-4.9-1.1-7.2Z"/></g><g><path fill="#303030" d="m19.2 135.8 1 1 2.5 3.3-1 2.2-.4 5.7-2.2.2v-12.5Z"/></g><g><path fill="#272727" d="m486.6 136.3 3 .2v4.4c-2.6.7-3.1-1.6-3.6-3.5-7.2-.3-14.4 0-21.5 0-.2 3.2 0 6.6 2.4 9l-2.5-.3c-2-2.5-2.2-5.8-2-8.9 4 0 7.9 0 11.9-.2 4 0 8.2.2 12.3-.8Z"/></g><g><path fill="#cfcfcf" d="m38 139.4 3-2.2 1.8 1.6-1.3 1.4.7 2.8-2.2 3.4h-1.6c-.6-2.3-1-4.7-.4-7Z"/></g><g><path fill="#d4d4d4" d="M211.5 137.5c1.7-.3 3.4-.6 5.2-.7v11.5h-6.4l-2.4-4.4 2.3-1.4.5-1.8 3-1.3-2.2-1.9Z"/></g><g><path fill="#dedede" d="M86 143c-1.2-1.8-1.2-4.1.9-5.1 2.6 2.4 7 2 9 5.2-.7 2-2.6 3.3-4.5 4 .6-2.4-.7-4.4-2.3-6l-3 1.8Z"/></g><g><path fill="#eaeaea" d="m94.7 138.7 2.2-.2 5 2 1.4-.8c4.7-.4 9.3-.1 14-.1v8.6h-13.7c-.4-2-1-2.1-1.7-.5-2.2 1.1-3.1-1-4.4-2.1.7-2.8-.2-5.4-2.8-6.9Z"/></g><g><path d="M273.5 137.4c4.8-.1 9.5-.2 14.3 0v2c-4.6 0-9.2.3-13.7 0l-.6-2Z"/></g><g><path fill="#eaeaea" d="M323.9 142.3c-2-2.5-.4-5.5 2.8-4.5l4.3 4.1-4.5-.5.1 1.6-2.8-.7Z"/></g><g><path fill="#d7d7d7" d="M326.7 137.8c5.9 0 11.8-.3 17.6 0-.7 1.6-1.9 3-1.7 4.9-1.9.9-4 1.1-5.7-.3l-2 4.3c3.1-1.7 7.4-1.7 9.4 1.5-6.8-.3-14.7 1.6-20.4-3.2v-2.7l2.7.7-.1-1.6 4.5.5-4.3-4.1Z"/></g><g><path fill="#e6e6e6" d="M418 140.7c2.4-1.2 4.8-2.2 7.3-2.8v3.3l-7.2-.5Z"/></g><g><path fill="#c4c4c4" d="m277 141.5 7.2-1.3-2.1 4 5.3-2c0 4.2-5 4.1-8 4.5l-1.6 1.5h-5.2l.3-.7a42 42 0 0 0 6.2-4.6l-2.1-1.4Z"/></g><g><path fill="#d0d0d0" d="M160.6 143.3c1.4-.7 2.9-1.8 4.6-2 2.4 0 4.8 1 7.1 1.7v3.3c-3.5-2.2-7.8-2.3-11.8-3Z"/></g><g><path fill="#c4c4c3" d="m260.8 146 3.8-2.3c1 2.5 3.1 1.5 4.2-.3 0 3.6 3.9.8 5.8.3a28 28 0 0 0-1.7 3.8l-.3.7H260l.8-2.3Z"/></g><g><path fill="#c8c8c8" d="M505.4 143.4c2.1-.5 4.4-.4 6.6-.4v1.1a17.3 17.3 0 0 1-5 3.3c-.7-1.3-2-2.4-1.6-4Z"/></g><g><path fill="#cecece" d="M417 148.2c2.2-2.5 5.1-4.1 8.3-5v5H417Z"/></g></svg>