<svg xmlns="http://www.w3.org/2000/svg" xmlns:xlink="http://www.w3.org/1999/xlink" width="1794.39" height="866.71" viewBox="0 0 138.51 66.9"><path fill="#fff" fill-rule="evenodd" d="M15.88 5.53a.39.39 0 0 0 .29-.11c.07-.1.1-.23.1-.4V2.44c0-.16-.03-.3-.1-.39a.4.4 0 0 0-.3-.1.45.45 0 0 0-.31.1.88.88 0 0 0-.1.39V5c0 .18.05.32.1.41.07.07.16.11.32.11zm0 .2c-.73 0-1.32-.17-1.75-.56A1.66 1.66 0 0 1 13.5 4c-.02-.09-.02-.16-.02-.25s0-.16.02-.25c.04-.47.25-.86.63-1.18a2.64 2.64 0 0 1 1.75-.54c.7 0 1.29.18 1.72.54.43.36.66.84.66 1.43a1.79 1.79 0 0 1-.66 1.43 2.5 2.5 0 0 1-1.72.57zm4.85-3.23c.1-.23.27-.41.5-.55.22-.13.47-.18.76-.18.3 0 .53.07.73.18a.87.87 0 0 1 .34.55h.07c.11-.23.27-.41.5-.55.22-.13.47-.18.77-.18.4 0 .7.09.88.32.16.2.25.59.25 1.13v2.16h.43v.2H23.6v-.2h.23V2.83c0-.14 0-.25-.04-.32-.05-.05-.12-.1-.19-.1-.15 0-.27.1-.33.26-.1.16-.14.4-.14.72v1.98h.25v.2H21.2v-.2h.25V2.84a.6.6 0 0 0-.06-.32c-.05-.05-.12-.1-.19-.1-.15 0-.27.1-.36.26-.07.16-.11.4-.11.72v1.98h.25v.2H18.6v-.2h.43V2.07h-.43v-.2h.88c.18 0 .36 0 .52-.03l.52-.07h.14l-.02.73h.09zm39.26 1.8h.18c.2.37.45.69.8.9.33.22.67.33 1.01.33.18 0 .34-.02.43-.09.12-.09.16-.18.16-.3 0-.22-.38-.45-1.13-.67l-.25-.1a1.59 1.59 0 0 1-.86-.51 1.29 1.29 0 0 1-.32-.84c0-.37.14-.66.4-.91.28-.23.62-.34 1.03-.34.18 0 .36 0 .54.04l.57.16.63-.2h.16l.02 1.22h-.15a1.87 1.87 0 0 0-.68-.77 1.59 1.59 0 0 0-.91-.3.77.77 0 0 0-.36.1.32.32 0 0 0-.14.25c0 .23.3.43.86.59a.17.17 0 0 0 .1.02 3 3 0 0 1 1.15.59c.25.23.36.52.36.88 0 .44-.14.78-.4 1.03-.28.22-.64.34-1.14.34-.2 0-.4-.03-.59-.05-.18-.04-.36-.14-.59-.23l-.63.28h-.2l-.05-1.18-.02-.23h.02zm0-3.46v.28l-.02.1c0 .09-.05.15-.07.24-.05.1-.07.16-.14.25-.04.07-.09.16-.16.23-.06.07-.13.14-.2.18-.07.05-.14.1-.23.14-.04.02-.06.04-.11.04-.04.02-.1.02-.11.02-.05 0-.1 0-.12-.02-.02-.02-.02-.04-.02-.09v-.04l.02-.07c.03 0 .03-.02.05-.05.02 0 .02-.02.04-.04l.16-.14c.05-.07.1-.11.12-.18l.09-.18.02-.18c-.11 0-.23 0-.32-.03-.09-.02-.16-.06-.22-.09l-.12-.15c-.04-.07-.04-.14-.04-.2 0-.05 0-.1.02-.15 0-.04.02-.09.04-.13.03-.05.07-.07.1-.11.04-.05.09-.07.13-.1l.16-.06c.07 0 .11-.03.18-.03.14 0 .25.03.34.05.09.04.18.09.23.16a.4.4 0 0 1 .13.2l.05.15zM40.16 5.22a.27.27 0 0 0 .28-.18c.06-.14.1-.32.1-.6v-.81h-.1c-.12 0-.19.02-.28.04-.09.03-.18.07-.22.16-.1.12-.14.37-.14.73 0 .23.02.38.07.5a.3.3 0 0 0 .27.16h.02zm0-1.77h.37V2.3c0-.11-.03-.2-.12-.27-.04-.04-.13-.07-.25-.07h-.09c-.06 0-.13 0-.2.03-.07.02-.1.06-.1.09 0 0 .03.04.08.07a.73.73 0 0 1 .18.47.5.5 0 0 1-.23.46c-.16.09-.4.13-.7.13-.3 0-.52-.04-.66-.16-.16-.11-.22-.25-.22-.47 0-.3.15-.5.45-.64.3-.13.8-.18 1.47-.18h.02c.53 0 .91.02 1.2.09.3.05.53.14.66.27a.95.95 0 0 1 .2.32c.05.11.07.3.07.54v1.9c0 .08 0 .15.03.19.02.02.07.05.13.05.07 0 .12-.03.16-.05.07-.04.1-.09.14-.14l.11.1c-.13.2-.34.38-.59.5a1.43 1.43 0 0 1-.75.2.9.9 0 0 1-.54-.16.98.98 0 0 1-.36-.43 1.7 1.7 0 0 1-.45.34l-.2.09a1.98 1.98 0 0 1-.85.16c-.36 0-.65-.1-.88-.3a.9.9 0 0 1-.34-.74c0-.39.2-.68.59-.91.38-.23.9-.34 1.59-.34h.08zm2.86 2.13v-.2h.43V2.06h-.43v-.2h1.02c.16 0 .34 0 .52-.02l.5-.07h.13v.73h.07c.14-.23.3-.41.52-.55.23-.13.5-.18.82-.18.4 0 .72.09.9.32.19.2.28.59.28 1.13v2.15h.43v.2h-2.47v-.2h.22V2.83c0-.13-.02-.25-.04-.31a.29.29 0 0 0-.2-.1c-.14 0-.25.1-.34.26-.07.16-.12.4-.12.72v1.98h.25v.2h-2.5zm9.56-.98l.16.12a1.9 1.9 0 0 1-.77.75c-.34.18-.75.27-1.22.27-.66 0-1.2-.18-1.61-.55-.41-.38-.6-.86-.6-1.45 0-.61.21-1.09.6-1.45.4-.36.95-.52 1.65-.52.63 0 1.11.09 1.45.32.36.22.52.52.52.93 0 .27-.07.47-.23.63-.15.16-.38.23-.65.23a.85.85 0 0 1-.6-.2.8.8 0 0 1-.22-.57c0-.16.05-.3.1-.39.04-.09.13-.18.24-.25l.12-.06c.13-.07.2-.14.2-.23 0-.07-.05-.11-.11-.16-.07-.05-.18-.05-.3-.05-.27 0-.5.12-.61.39-.14.25-.2.68-.2 1.25 0 .7.06 1.15.22 1.4.14.28.37.39.7.39a.98.98 0 0 0 .6-.2c.2-.12.38-.32.56-.6zm2.79 1.05L53.3 2.06h-.43v-.2h2.88v.2h-.45l1.1 1.82.76-1.3.06-.13c.03-.05.03-.07.03-.11a.24.24 0 0 0-.12-.2c-.06-.05-.2-.08-.38-.08v-.2h1.31v.2c-.27.05-.52.25-.72.62 0 .02-.03.04-.03.04l-2.01 3.5c-.23.43-.46.7-.68.88-.2.16-.46.25-.75.25-.3 0-.52-.1-.7-.25a.78.78 0 0 1-.25-.6c0-.22.04-.4.18-.51a.82.82 0 0 1 .54-.18c.2 0 .37.04.48.16.11.1.18.27.18.45a.44.44 0 0 1-.16.34c-.11.11-.16.18-.16.2 0 .03.03.05.05.07.02.02.04.02.09.02.13 0 .3-.06.47-.25.19-.16.34-.38.5-.65zM34.23 1.97h-.25A2.7 2.7 0 0 0 33.3.8a1.34 1.34 0 0 0-.95-.4c-.36 0-.61.16-.73.43-.13.3-.2 1.04-.2 2.22 0 .93.07 1.54.23 1.84.15.3.43.45.83.45.41 0 .77-.14 1.07-.4.27-.28.45-.67.54-1.16h.25c-.07.63-.3 1.13-.7 1.47-.43.32-1 .5-1.72.5a2.89 2.89 0 0 1-2.97-2.86 3.1 3.1 0 0 1 .8-2c.26-.27.58-.47.97-.63a2.84 2.84 0 0 1 1.15-.23c.27 0 .52.05.75.1.2.06.45.18.72.33L34 .02h.23zm.54 3.6v-.2h.52V.33h-.47v-.2h1.13c.16 0 .34 0 .52-.03.16-.02.34-.04.5-.09h.14v5.38h.45v.2zm-22.25 0H8.81v-.22h.72V.34c-.36.02-.65.18-.93.48-.27.3-.47.7-.58 1.2h-.19V.12h5.67v1.9h-.16c-.14-.5-.34-.9-.6-1.2-.26-.3-.58-.46-.92-.48v5.01h.7v.23z" clip-rule="evenodd"/><path fill="#84bb39" fill-rule="evenodd" d="M19.57 19.32l-.72 3.31h5.34l.75-3.4c.54-2.48 1.08-4.96 1.6-7.44h5.72l.13.03h.66l.09.02h.25l.11.02.1.02.08.02.05.03.07.02.02.04.04.03.03.04.02.07.02.07.02.07v.11l.03.11-.03.14-.02.14-.02.18-.02.09-.03.09-.02.07-.02.09-.02.09-.03.07-.04.09-.02.07-.03.06-.04.07-.02.07-.05.07-.04.07-.03.04-.04.07-.05.05-.02.02-.02.04-.05.03-.02.02-.04.02-.05.05-.07.02-.04.02-.07.03-.07.02-.09.02h-.07l-.09.02h-.09l-.11.03h-.11l-1.36.02H26.9l-1 4.65h7.37l.1-.03h.17l.1-.02h.2l.09-.02h.09l.09-.02h.13l.14-.03.14-.02.13-.02.14-.02.13-.05.12-.02.13-.05.14-.04.11-.05.14-.04.11-.05.12-.04.1-.07.14-.04.12-.07.11-.1.16-.06.11-.1.14-.1.13-.1.12-.11.13-.11.12-.12.1-.13.12-.14.12-.14.1-.13.12-.16.1-.16.08-.16.12-.16.09-.16.09-.18.09-.18.09-.18.07-.2.09-.19.02-.09.04-.11.1-.2.06-.23.07-.2.07-.23.07-.23.07-.25.06-.23.05-.25.07-.25.02-.09v-.09l.02-.06.02-.1.03-.09v-.09l.02-.09.02-.07v-.09l.02-.09v-.09l.03-.09v-.07l.02-.09v-.09l.02-.07v-.18l.02-.09v-.25l.02-.07v-.74l-.02-.14v-.14l-.02-.1v-.14l-.02-.14-.05-.14-.02-.1-.05-.12-.02-.14-.04-.11-.07-.12-.05-.11-.04-.1-.07-.1-.07-.12-.06-.09-.1-.09-.06-.09-.1-.1-.06-.04-.02-.02-.1-.09-.1-.07-.1-.07-.11-.06-.12-.07-.1-.05-.12-.06-.12-.05-.1-.04-.14-.05-.14-.04-.11-.03-.14-.04-.11-.03-.14-.02-.13-.02-.12-.02-.13-.03-.14-.02-.13-.02-.14-.02h-.14l-.13-.03h-.16l-.14-.02h-.3l-.13-.02-1.86-.02H22.22zm102.82 3.31c.58-2.75 1.18-5.5 1.79-8.25l.56-2.59h5.76l1.27.05h.25l.09.02h.18l.09.02h.07l.06.03.05.02.05.02h.04l.02.02.02.03h.05v.02l.02.02.02.02.03.05.02.02v.05l.02.04v.05l.02.04v.34l-.02.1-.02.08-.02.1-.03.13-.04.14-.05.13-.02.12-.05.1-.04.1-.05.1-.06.08-.05.07-.04.07-.05.04-.07.05-.04.05-.05.04-.06.02-.05.03-.02.02-.05.02h-.04l-.05.02h-.04l-.05.03h-.04l-.05.02h-.11l-.05.02h-.31l-.1.02h-.54l-.09.03h-5.4L124.12 19h5.75l.16.02h.3l.1.03h.15l.09.02.09.02.09.02.07.03.06.02.05.02.02.02.05.03.02.02v.02l.02.02v.05l.02.04v.53l-.02.11-.02.14-.02.14-.02.13-.03.16-.04.18-.34 1.86h5.32l.45-2.13.03-.11.04-.11.02-.12v-.11l.03-.11.02-.12.02-.1.02-.12v-.1l.03-.1.02-.1v-.2l.02-.1v-.17l.02-.1v-.31l-.02-.1v-.22l-.02-.07v-.07l-.02-.07-.03-.06-.02-.07v-.07l-.04-.07-.05-.13-.07-.14-.09-.11-.11-.12-.11-.1-.12-.1-.13-.1-.14-.08-.14-.1-.15-.08h-.03l.07-.03.11-.04.1-.05.09-.04.09-.07.09-.04.09-.05.09-.04.09-.05.07-.07.09-.04.07-.07.06-.04.1-.07.06-.05.07-.07.07-.04.04-.07.07-.07.07-.07.04-.06.05-.07.07-.07.04-.07.05-.07.04-.06.05-.07.04-.07.05-.07.02-.09.05-.07.04-.09.05-.06.04-.1.02-.09.05-.06.05-.1.02-.09.04-.09.03-.09.04-.11.02-.1.05-.08.02-.12.05-.09.02-.09.02-.11.05-.11.02-.1.02-.1.02-.12.05-.11.02-.12.02-.11.02-.16.03-.14.04-.15.02-.14.03-.14v-.16l.02-.13.02-.14.02-.16v-.14l.02-.13v-.28l.03-.13v-.5l-.03-.07v-.16l-.02-.07v-.06l-.02-.1-.02-.06-.02-.07v-.07l-.03-.09-.02-.07-.02-.06-.05-.07-.02-.1-.04-.1-.05-.1-.04-.09-.05-.07-.07-.09-.07-.09-.04-.07-.07-.09-.07-.06-.09-.07-.06-.07-.1-.07-.06-.07-.1-.04-.08-.07-.1-.04-.09-.05-.1-.04-.1-.05-.11-.04-.1-.05-.1-.05-.11-.02-.12-.05-.11-.02-.11-.02-.14-.02-.11-.03-.14-.02-.11-.02h-.14l-.11-.02h-.11l-.12-.03h-.1l-.12-.02h-.23l-.11-.02h-.48l-.11-.02h-13.6l-3.35 15.49h5.35zm-4.7-4.28h-11.73l.39-1.75h10.96l.3-1.38.59-2.68h-10.97l.25-1.1.95-4.3h-5.37l-1.88 8.62-1.5 6.87h17.09zm-.08-6.92h1.47l.93-4.29h-10.63l-.93 4.3zm-16.43-4.29h1.5l-1.02 4.65h-6.4l-2.35 10.84h-5.35l2.36-10.84h-6.37l.34-1.6.68-3.05zM83.89 8.75l.37-1.6H78.9l-2.2 10.1-5.6-10.1h-7.68l-3.37 15.48h5.34l2.2-10.11 5.6 10.11h7.68zm-21.02-1.6h-5.35l-3.38 15.48h5.35zm-24.3 11.27l2.46-11.28h5.34L44.02 18h9.79l-1.02 4.64H37.67zm-19-10.14h.02l.07.09.07.09.07.09.07.1.06.1.05.1.04.1.05.12.04.11.05.12.02.11.02.11.05.14v.11l.02.14.02.14v.68l-.02.16-.02.13v.16l-.02.16-.05.16-.27 1.34h-5.28l.07-1v-.18l-.02-.05v-.04l-.02-.03v-.04l-.03-.02-.02-.03v-.02h-.02l-.02-.02-.03-.02-.02-.03h-.04l-.03-.02h-.04l-.02-.02h-.1l-.04-.02h-.14l-.1-.03h-.24l-.11-.02h-.34l-1.18-.07H9.56l-1.16.05h-.11l-.05.02h-.16l-.06.02h-.1l-.04.02h-.1l-.04.03H7.7l-.05.02H7.6l-.07.02-.07.02-.04.03-.07.02-.05.02-.04.05-.02.02-.05.04-.04.05-.03.04-.02.05-.04.04-.03.07-.02.07-.02.07-.02.09-.03.07v.25l.03.02v.02l.02.02.02.02.02.03.03.02.04.02.07.02.07.03.06.02.05.02h.09l.04.02h.07l.05.03h.15l.07.02h.3l.04.02 1.16.02 4.08.12 2.35.11h.14l.13.02h.14l.11.03.14.02h.11l.14.02.11.02.11.03.12.02.13.04.12.03.11.02.11.04.12.03.1.04.15.05.13.06.14.07.13.1.12.08.13.1.1.09.1.1.1.11.09.14.09.11.07.14.09.13.04.14.07.14.05.15.04.16.02.16.05.16.02.16v.18l.02.18v.55l-.02.2-.02.18-.02.2-.03.23-.04.2-.02.23-.05.2-.07.26-.06.25-.07.25-.07.22-.1.23-.08.2-.1.23-.1.2-.1.19-.11.2-.14.18-.11.19-.14.18-.13.16-.14.15-.16.16-.15.14-.16.14-.18.13-.16.12-.18.1-.19.12-.2.1-.18.08-.2.1-.21.06-.23.07-.2.07-.23.07-.22.04-.23.02-.23.05h-.09l-.07.02h-.16l-.09.02h-.09l-.07.03h-.27l-.07.02h-.52l-.11.02h-.45l-.1.02h-.74l-.09.02H9.4l-.12-.02H8.2l-.14-.02h-.8l-.15-.02h-.7l-.19-.02h-.56l-.2-.03H4.9l-.11-.02h-.43l-.1-.02h-.2l-.09-.02h-.3l-.06-.03h-.14l-.1-.02h-.12l-.14-.02h-.11l-.11-.02-.12-.03-.11-.02-.1-.02-.1-.02-.12-.02-.09-.03-.11-.04-.1-.02-.1-.03-.1-.04-.09-.02-.09-.05-.09-.05-.09-.04-.09-.02-.07-.05-.09-.04-.07-.07-.09-.05-.06-.04-.07-.07-.1-.04-.06-.07-.07-.05-.04-.07-.07-.06-.07-.08-.05-.07-.06-.07-.05-.06-.04-.1-.05-.06-.02-.1-.05-.08-.02-.07-.04-.1-.03-.08-.02-.1-.02-.1-.02-.1-.03-.09v-.11l-.02-.1v-.1L0 19.8v-.57l.02-.11v-.14l.02-.11v-.14l.03-.1.02-.15v-.13l.02-.14.25-1.4h5.35l-.14.65-.02.14v.11l-.02.1v.18l.02.09v.04l.02.07v.04l.02.03.03.04v.02h.02l.02.03.02.02h.03l.02.02h.07l.04.02.07.02h.1l.08.03h.1l.08.02h.12l.13.02h.14l.13.02h.3l1.24.05h4.56l.14-.02.13-.03.11-.02.1-.02.09-.05.06-.04.07-.05.07-.04.07-.05.04-.06.02-.07.05-.07.04-.07.03-.09.02-.11.02-.1v-.24l-.02-.04v-.03l-.02-.02-.03-.02v-.02l-.02-.03-.04-.02-.03-.02h-.04l-.07-.02-.07-.03h-.24l-.07-.02h-.25l-.16-.02h-.12l-.88-.05-2.67-.1-1.27-.08-2.22-.1h-.14l-.16-.03h-.3L5 16.77h-.13l-.14-.03h-.14l-.1-.02-.15-.02h-.1l-.14-.02-.12-.03h-.11l-.11-.02-.12-.02-.22-.05-.25-.06-.2-.07-.24-.1-.18-.08-.2-.12-.16-.13-.16-.14-.16-.16-.11-.16-.11-.18-.1-.2-.06-.18-.05-.23-.04-.2-.02-.23v-.23l-.03-.14v-.24l.03-.12v-.25l.02-.13v-.14l.02-.11.02-.14.03-.13.02-.14.02-.11.02-.14.05-.11.02-.12.02-.1.03-.12.02-.12.04-.1.02-.1.03-.11.02-.1.02-.1.05-.1.02-.09.02-.11.05-.1.02-.08.02-.1.05-.08.02-.07.02-.1.05-.08.02-.07.02-.1.05-.06.02-.07.04-.07.03-.09.04-.07.02-.06.05-.07.04-.05.03-.06.04-.07.11-.18.14-.19.11-.16.14-.18.16-.13.13-.16.16-.14.16-.13.16-.12.16-.1.18-.12.16-.12.18-.09.18-.06.2-.07.19-.07.11-.05.09-.02.11-.02.12-.02.1-.03.14-.04.12-.02.13-.03h.14l.16-.02.13-.02.16-.02.16-.02h.16l.18-.03.16-.02h.18l.18-.02h.2l.19-.02h.2l.2-.03h.44L9 7h3.07l.14.02h.9l.14.03h.63l.14.02h.5l.13.02h.41l.18.02h.18l.16.03h.18l.16.02h.16l.16.02.14.02h.15l.16.02.14.03.13.02.14.02.14.02.13.03.12.02.13.02.12.02.1.03.12.04.11.02.12.03.11.04.09.02.11.05.1.04.08.03.1.04.09.05.09.04.07.05.1.04.1.07.09.07.09.06.09.1z" clip-rule="evenodd"/><path fill="#fff" fill-rule="evenodd" d="M19.23 20.75L19 21.82h4.44l.57-2.54h-.02l1.33-6.08.5-2.22h5.33c.83 0 1.47.02 1.88.04.83.05 1.13.59.93 1.61a3.12 3.12 0 0 1-.6 1.36c-.22.32-.67.48-1.33.52l-1.38.03h-3.76l-.82 3.76h6.17c.5 0 .95-.02 1.42-.1.7-.06 1.34-.24 1.88-.56 1.23-.66 2.13-2.1 2.72-4.35.05-.23.12-.46.16-.68.2-.91.3-1.77.25-2.59 0-.61-.16-1.1-.4-1.52-.35-.5-.87-.84-1.57-1.02a11.2 11.2 0 0 0-2.08-.25l-1.84-.02H22.2zm97.99.9l3.15-14.44h12.89c.61 0 1.2.02 1.8.1 1.3.13 2.14.63 2.44 1.47.13.36.2.7.2 1.02a12.83 12.83 0 0 1-.25 2.2 7.36 7.36 0 0 1-1.09 2.72c-.45.59-1.33 1.06-2.6 1.43 1.15.34 1.81.75 2 1.24.2.5.15 1.36-.14 2.63l-.39 1.8h-4.44l.25-1.36c.2-.91.23-1.52.07-1.8-.16-.31-.7-.47-1.63-.47h-5.21l.83-3.77h4.38c.43 0 .9 0 1.4-.02.39-.02.7-.07.95-.18.5-.2.84-.73 1.02-1.59.14-.59.1-1.02-.16-1.29-.2-.2-.6-.32-1.29-.32l-1.29-.04H124l-.74 3.44-.82 3.77-.8 3.63h-4.43zm0-8.88l.05-.16H106.3l.43-2h.02l.75-3.4h-4.49l-2.22 10.23-.95 4.37h16.2l.73-3.4h-11.74l.57-2.65h10.96zm0-2.16h1.11l.75-3.4h-9.74l-.73 3.4zm-16.43-3.4h.95l-.81 3.77h-6.41l-2.36 10.84h-4.44l2.36-10.84H83.7l.8-3.77zm-37.4 0h7.07L76.5 18.1 78.88 7.2h4.44l-3.17 14.6h-7.09L67.04 10.9l-2.38 10.93h-4.44zm-2.31 3.95l.86-3.95h-4.47l-3.17 14.6h4.44zm-22.82 8.68L41 7.21h4.44L43.1 18.05h9.79l-.82 3.77H37.83zM19.23 8.74c.27.56.32 1.33.14 2.28l-.14.64-.07.36h-4.44l.05-.54c0-.5-.18-.82-.57-.93a4.87 4.87 0 0 0-1.25-.14l-1.17-.05h-2.6l-1.19.05a3.4 3.4 0 0 0-.88.14c-.52.1-.84.45-.98 1-.13.58.07.95.66 1.08.3.07.61.12.98.12l1.15.02 4.06.13 2.35.1c.68.04 1.27.15 1.81.33 1.34.5 1.77 1.89 1.27 4.2-.59 2.58-2.06 4.01-4.46 4.3-.38.05-.84.08-1.3.1-.99.05-1.96.07-2.96.07-1.09-.02-2.67-.05-4.8-.12a28.17 28.17 0 0 1-1.63-.09c-1.27-.09-2.18-.43-2.72-1-.48-.52-.61-1.5-.39-2.9l.18-1.02h4.44c-.15.77-.06 1.27.28 1.48.22.13.77.2 1.63.25l1.27.02h4.41c.93-.02 1.48-.4 1.61-1.14.11-.65-.11-1.02-.68-1.1l-.88-.05-.9-.05-2.66-.11-1.27-.07L5.36 16a19.2 19.2 0 0 1-2.01-.2c-1.23-.2-1.86-.84-1.9-1.89a9.57 9.57 0 0 1 1.07-4.6 4.18 4.18 0 0 1 2.28-1.84c.92-.3 2.76-.43 5.52-.43 1.48 0 2.86.04 4.17.1 1.9.08 3.22.3 3.94.74.37.2.64.48.8.86z" clip-rule="evenodd"/><defs><path id="a" d="M31.68 97.08l-.23 1.06h4.44l.57-2.54h-.03l1.34-6.08.5-2.22h5.32c.84 0 1.48.02 1.88.04.84.05 1.14.6.93 1.61a3.12 3.12 0 0 1-.59 1.36c-.22.32-.68.48-1.33.53l-1.38.02h-3.77l-.81 3.76h6.16c.5 0 .95-.02 1.43-.09.7-.07 1.34-.25 1.88-.56 1.22-.66 2.13-2.11 2.72-4.36.04-.23.11-.45.16-.68.2-.9.3-1.77.25-2.58 0-.62-.16-1.12-.41-1.52-.34-.5-.86-.84-1.56-1.03a11.2 11.2 0 0 0-2.09-.25l-1.83-.02H34.65zm97.99.9l3.15-14.44h12.89c.6 0 1.2.02 1.79.09 1.31.13 2.15.63 2.44 1.47.14.36.2.7.2 1.02a12.83 12.83 0 0 1-.24 2.2 7.36 7.36 0 0 1-1.09 2.72c-.45.6-1.34 1.07-2.6 1.43 1.15.34 1.8.75 1.99 1.25.2.5.16 1.36-.14 2.63l-.38 1.79h-4.44l.25-1.36c.2-.9.22-1.52.06-1.8-.15-.3-.7-.47-1.63-.47h-5.2l.83-3.76h4.37c.43 0 .9 0 1.4-.02.4-.03.71-.07.96-.19.5-.2.84-.72 1.02-1.58.13-.6.09-1.02-.16-1.3-.2-.2-.61-.31-1.3-.31l-1.28-.05h-6.12l-.75 3.45-.81 3.76-.8 3.63h-4.44zm0-8.89l.04-.16h-10.96l.43-2h.02l.75-3.4h-4.49l-2.22 10.23-.95 4.38h16.2l.72-3.4h-11.73l.56-2.65h10.97zm0-2.15h1.1l.75-3.4h-9.74l-.72 3.4zm-16.43-3.4h.95l-.81 3.76h-6.42l-2.35 10.84h-4.44l2.35-10.84h-6.36l.8-3.76zm-37.4 0h7.06l6.05 10.88 2.38-10.88h4.44l-3.17 14.6h-7.1l-6.02-10.93-2.38 10.93h-4.44zm-2.32 3.94l.86-3.94h-4.46l-3.17 14.6h4.44zm-22.81 8.69l2.74-12.63h4.44l-2.36 10.84h9.8l-.82 3.76H50.28zM31.68 85.06c.27.56.31 1.33.13 2.29l-.13.63-.07.36h-4.44l.04-.54c0-.5-.18-.82-.56-.93a4.87 4.87 0 0 0-1.25-.14l-1.18-.04h-2.6l-1.18.04a3.4 3.4 0 0 0-.88.14c-.53.11-.84.45-.98 1-.13.59.07.95.66 1.09.3.06.61.11.97.11l1.16.02 4.05.14 2.36.09c.68.04 1.27.16 1.81.34 1.34.5 1.77 1.88 1.27 4.2-.59 2.58-2.06 4-4.46 4.3-.39.05-.84.07-1.3.1-1 .04-1.97.06-2.96.06-1.09-.02-2.68-.04-4.8-.11a28.17 28.17 0 0 1-1.64-.1c-1.27-.08-2.17-.42-2.72-.99-.47-.52-.6-1.5-.38-2.9l.18-1.02h4.44c-.16.77-.07 1.27.27 1.47.23.14.77.2 1.63.25l1.27.02h4.42c.93-.02 1.47-.4 1.6-1.13.12-.66-.1-1.02-.67-1.11l-.89-.05-.9-.04-2.65-.12-1.27-.06-2.22-.12a19.2 19.2 0 0 1-2.02-.2c-1.22-.2-1.86-.84-1.9-1.88a9.57 9.57 0 0 1 1.06-4.6 4.18 4.18 0 0 1 2.3-1.84c.92-.3 2.76-.44 5.52-.44 1.47 0 2.85.05 4.17.1 1.9.09 3.22.31 3.94.74.37.2.64.48.8.86z"/></defs><clipPath id="b"><use width="100%" height="100%" overflow="visible" xlink:href="#a"/></clipPath><g clip-path="url(#b)" transform="translate(-12.45 -76.32)"><defs><path id="c" d="M12.37 83.35h137.78v14.97H12.37z"/></defs><clipPath id="d"><use width="100%" height="100%" overflow="visible" xlink:href="#c"/></clipPath></g><path fill="#485621" fill-rule="evenodd" d="M54.31 40.71h26.3l1.05-5.13H63.2l.38-1.95h15.07l1.04-5.12H64.62a562.97 562.98 0 0 1 1.52-7.08h-7.9zm2.63-19.28l-1.04 5.13H36.6l-.05.02h-.11l-.05.02h-.13l-.02.02h-.1l-.06.03-.07.02h-.07l-.07.02-.07.02-.06.03-.07.02-.07.02-.05.04-.06.03-.07.02-.07.05-.07.02-.07.04-.06.05-.05.02-.07.05-.06.04-.05.05-.04.04-.05.02-.05.05-.02.04-.02.03-.05.04-.02.03-.02.04v.02l-.02.05-.03.02v.07l-1.42 7.03-.03.07v.18l.03.02v.05l.02.02.02.05.02.02.03.05.04.02.02.05.05.04.04.03.07.04.05.05.04.02.07.04.07.03.06.02.05.02.09.02.07.02.07.03.06.02h.1l.06.02h19.78l-1.04 5.1H33.47l-.2-.02h-.23l-.23-.02h-.2l-.2-.02-.21-.02-.2-.03-.2-.02-.21-.04-.2-.03-.21-.04-.18-.05-.2-.04-.19-.05-.18-.04-.18-.07-.18-.05-.18-.06-.18-.07-.18-.07-.16-.09-.18-.07-.16-.07-.16-.09-.16-.09-.16-.09-.16-.09-.15-.09-.14-.11-.16-.12-.13-.09-.16-.1-.14-.12-.11-.12-.14-.11-.11-.14-.11-.1-.12-.12-.11-.14-.1-.11-.1-.14-.1-.14-.06-.1-.1-.14-.06-.14-.07-.14-.07-.13-.04-.16-.05-.14-.04-.13-.05-.16-.04-.14-.03-.16-.02-.13-.02-.16v-.61l.02-.16.02-.16.03-.16.02-.16.02-.13.02-.14.05-.14.02-.13.02-.14.02-.11.03-.14.02-.14.05-.1.02-.12.02-.14.02-.11.02-.11.03-.12.02-.11.02-.11.02-.12.03-.11.02-.11.02-.1.02-.1.03-.1.02-.11v-.1l.02-.08.02-.12.03-.09.02-.09.02-.09v-.07l.02-.09.03-.09.02-.16.04-.14.03-.15.02-.14.04-.16.02-.14.03-.13.02-.16.04-.14.03-.13.02-.14.02-.13.05-.14.02-.14.02-.13.02-.14.03-.11.02-.14.04-.11v-.1l.03-.1.02-.1.02-.09.02-.07v-.09l.03-.06.02-.05v-.11l.02-.05v-.07l.05-.16.04-.15.05-.14.04-.16.05-.16.06-.16.07-.13.07-.16.07-.16.09-.13.09-.14.09-.16.1-.14.08-.13.11-.14.12-.14.11-.13.11-.14.12-.11.13-.14.14-.13.14-.12.13-.11.14-.14.16-.11.16-.11.15-.12.16-.1.16-.12.18-.12.18-.1.18-.12.19-.11.18-.1.18-.09.2-.1.18-.1.2-.1.19-.06.2-.09.18-.07.2-.09.21-.07.18-.06.2-.07.21-.07.2-.04.21-.07.2-.05.2-.04.21-.05.2-.04.23-.03.2-.04.21-.02.23-.05.2-.02.23-.02.2-.03h.23l.23-.02h.65zm28.82 0h7.25l-2.88 14.15h17.88l-1.04 5.13H81.84zm-2.51 5.13l1.04-5.13H67.32l-1.11 5.13zM108.1 40.7l3.92-19.28h7.25l-2.9 14.15h17.9l-1.04 5.13z" clip-rule="evenodd"/><path fill="#fff" fill-rule="evenodd" d="M79.87 39.87l.86-4.24H62.26l.57-2.84h15.09l.86-4.24H63.69l1.52-7.05h-7l-3.74 18.37zM56 21.5l-.77 3.81-.09.43H36.19c-.1.02-.18.02-.25.05l-.27.02c-.41.1-.82.25-1.2.5-.39.25-.62.54-.68.86l-1.45 7.05c-.07.39.06.73.43 1.02.38.27.83.41 1.4.41h18.96l-.86 4.22H33.31c-2.31 0-4.2-.54-5.64-1.65-1.11-.87-1.7-1.84-1.77-2.98v-.36c.02-.2.05-.43.1-.63.29-1.5.54-2.68.72-3.56l.45-2.27.25-1.25c.32-1.57 1.43-2.9 3.33-4a12.16 12.16 0 0 1 6.3-1.65zm29.73 0h6.34l-2.87 14.13h17.87l-.86 4.24H81.98zm-2.38 0H67.3l-.93 4.24H82.5zm24.88 18.37l3.73-18.37h6.37l-2.88 14.13h17.88l-.86 4.24z" clip-rule="evenodd"/><path fill="#9bcc2e" d="M125.2 36.56l-.2.7c-1.95.13-3.9.23-5.83.42-1.03.11-2.09.04-3.1.28-.73.2-1.47.04-2.2.1-2.07.12-4.14.25-6.2.44l-.08-.43c-.1.12-.17.26-.23.4-.68.11-1.37.07-2.06.16-.96.13-1.93.12-2.89.21-.9.08-1.78.24-2.68.24-1.45 0-2.89.21-4.34.23-1.36.2-2.74.1-4.1.28-2.46.05-4.9.43-7.37.42-.72.2-1.48.13-2.2.27-.53.1-1.16-.06-1.6.3l.5.13-.52.1-.3-.36c-.68.06-1.36.02-2.03.03l.01.56-.43.32.22-.45-.2-.33-1.19.05c0 .3-.02.62.14.89l-.42.33-.12-.74.32.1-.18-.58-1.04.17v.1a5.2 5.2 0 0 0-1.23-.08l-.44.82-.58.46c-.94.1-1.87.3-2.7.78l.38-.65c-.42-.2-.84-.5-1.33-.36.07.53.1 1.07.1 1.6 2.43-.2 4.85-.34 7.28-.51.32-.03.64-.14.96-.21.19.07.4.12.6.09 1.54-.11 3.07-.19 4.6-.32.25-.17.63-.43.8.04-.02-.16-.01-.33.01-.5l.34-.16a3.16 3.16 0 0 1-.66-.47c.28-.11.56-.23.79-.44l.28.42c.33-.16.67-.31 1.02-.43l.44.39.15-.45c.3.24.15.51-.03.76l.35.2-.14.43A6.56 6.56 0 0 0 88 41.6l-.03.44.46.08-.26-.24c.26-.25.73-.33.77.15l.52.02c.27-.17.56-.33.85-.47l.19.5.05-.5c.56-.04 1.12-.22 1.49-.67.28.29.5.09.7-.19.02.37.04.75.04 1.12 1.07-.25 2.25.04 3.27-.46.26.07.53.16.82.13l2.99-.2.22-.25.3.24c1.82-.23 3.66-.23 5.49-.42l-.84-.53c.33-.22.65-.58 1.08-.56.31-.03.22.31.27.51l.39.14-.58.42c.66.1 1.18-.27 1.65-.68l.31.52.56-.47.39.5c.25-.15.45-.34.56-.6.23.16.47.3.74.39a24.4 24.4 0 0 0-.37-.7h.31l.5.72c1.46-.03 2.9-.2 4.37-.29 1.73-.2 3.48-.08 5.21-.25 1.11.23 2.25.02 3.36.17l.28-.24c0-.1-.03-.3-.05-.4l.21-.22.4-.42-.3-.5.48.35c.55-.19 1.1-.4 1.65-.55l-.22.88.44.15.14.1.15.12.57.01.12-.13.17-.17a8 8 0 0 1 .46-.1l-.02.3c-.06.57.02 1.13.07 1.7.18 2.06.3 4.13.5 6.19.76-.09 1.52-.15 2.29-.19-.12-.82-.15-1.65-.18-2.48l-.53-.47.45-.27c-.12-.43-.38-.81-.5-1.25.15-.35.28-.7.41-1.04l-.91-.64.67-.09.12-.72v-.01-.02-.02-.02-.04h-.34l-.1-.38.4.32c0-.15-.04-.44-.05-.59a3.46 3.46 0 0 0-.44-1.68l.02-.4-.62.6a110 110 0 0 1-.27-.92c-1.33.21-2.69.1-4.02.32l-.01-.69zm-18.06 2.98l-.09.52-.49-.44.58-.08zm-3.25.88c.42.03-.1.66-.24.18l.15-.17h.1zm-18.45.31c.25-.03-.1.55-.14.06.06-.04.1-.06.14-.06zm9.07.1c.3.02.58.29.47.62l-.3-.3c-.14.36-.68.06-.46-.24a.48.48 0 0 1 .29-.07zm-7.57.25c.19 0 .35.3.16.44-.24.18-.54-.22-.3-.4a.2.2 0 0 1 .14-.04zm-9.64.54l.32.33-.27.42-.5-.31c.14-.16.3-.3.45-.44zm-.77.64c.56.1-.32.46 0 0zm-1.3.17c.13 0 .17.1.1.3-.27.1-.36 0-.28-.27a.58.58 0 0 1 .17-.03zm-1.21 0c.13 0 .17.1.1.32-.26.09-.36 0-.27-.28a.55.55 0 0 1 .17-.03zm55.82 4.2c.12 0 .14.08.07.25-.24.08-.32 0-.22-.22a.52.52 0 0 1 .15-.03z"/><path fill="#9bcc2e" d="M126.6 36.33l.7.23.58.16c-.28.02-.57.12-.85.06-.16-.14-.29-.3-.43-.45zM105.52 40.2c.23-.09.54.16.59.39-.2.34-.65-.12-.59-.4zM72.19 40.94l.18-.05c-.14.34-.12.62.32.68l-.46.12-.04-.75zM118.71 41.53c2.5-.24 5.01-.35 7.51-.58.1.86.1 1.75.37 2.58.19-.07.37-.17.55-.25l-.33.53-.56-.12-.47.12c-.76-.26-1.56-.05-2.34-.02-1.04.05-2.07.17-3.11.2l-.2.36a26.6 26.6 0 0 0-1.32-.05c.03-.37.03-.74.03-1.1l-.34.37-.29-.37.56-.02c-.28-.19-.58-.38-.45-.78l.44.51a8.28 8.28 0 0 1-.05-1.38zM126.51 40.93l.85-.1.29.5c-.01-.3.11-.49.36-.58l-.05.75-.75.03a1.6 1.6 0 0 0-.22-.63c-.04.26-.08.52-.1.79a2.1 2.1 0 0 0-.1-.02l-.28-.74zM84.2 41.94c-.25-.12-.25-.26 0-.4.25.12.25.26 0 .4zM113.69 41.84c1-.07 2-.2 3.02-.22.28 4.66.6 9.32.95 13.98-.49.02-.97.05-1.46.04-.11-.45-.26-.9-.5-1.3.01-.77-.47-1.42-.56-2.18-.17-1.1-.68-2.11-.83-3.2-.08-.51.33-.93.32-1.42-.18-.11-.36-.2-.54-.29-.06-1.8-.28-3.6-.4-5.4m1.4.03c-.07.28.03.37.3.28.06-.29-.04-.38-.3-.28m-.5.2c.05.12.05.12 0 0zM56.5 42.34c.26-.5.93-.24 1.4-.35l.03.4-.42-.2-.14.34-.58-.38.19.48-.72.24.6.24-.4.54.53.1-.52.29.68.18c.29-.32.56-.65.82-.99l-.54-.39.64-.19.02.42.5.43h-.48c0 .26.16.7-.24.76-.74.11-1.5.06-2.24.13a1.5 1.5 0 0 0-.86.01l-.24-.12c-.38.38-.95.27-1.44.31l-.14-.28c-.18.3-.53.36-.85.37-2.37.08-4.72.36-7.08.47.72-.36 1.54-.4 2.3-.63.47-.28.66-.82 1-1.22-.1-.34-.22-.7.27-.74l.1.35-.02-.32.81.06v.81c.3-.25.5-.58.67-.92.31-.05.63-.1.95-.02l-.26.26c.1.35-.18.48-.45.6l.81.65.21-.4c-.08.02-.25.03-.33.04l.08-.27-.23-.58c.4-.04.78-.18 1.15-.3-.08.34-.39.53-.65.73l.7-.26.53.3c.27-.3.52-.62.68-1l.57.41c.02.56-.17 1.16.09 1.68l.2.01c.28-.36.45-.78.62-1.2l.67.4-.37.18.26.45c.3-.23.62-.43.92-.65-.16-.22-.33-.43-.5-.63l-.41.31-.01-.35-.52-.3c-.13.25-.2.51-.2.8a4.2 4.2 0 0 1-.64-.6l.53.1c.14-.18.24-.38.35-.56.29.06.54-.04.77-.24 0 .2.02.4.03.59l.56-.11c-.19-.2-.38-.39-.55-.6.26.11.53.23.78.36zM109.16 42.13c.81-.08 1.63-.1 2.44-.17.5 1.82 1.08 3.62 1.55 5.45-.39.12-.8.1-1.2.14.38.07.77.1 1.15.15 0 .56-.03 1.13-.02 1.69h-.35l-.39.4c.5-.02 1-.07 1.44-.3.36 1.13.56 2.3 1.08 3.36.09.22.23.43.23.68 0 .76.33 1.46.44 2.2-.85.06-1.7.07-2.54.18-.58-2.24-1.26-4.45-1.85-6.68.35.14.7.28 1.06.4a22.5 22.5 0 0 0-.62-.34l-.4-.12a7.23 7.23 0 0 1-.49-1.68c-.58-1.77-1-3.58-1.53-5.36zM106.97 42.3c.52-.07 1.04-.13 1.57-.14.48 1.73.99 3.46 1.41 5.21-.5-.09-.98-.22-1.47-.3-.44-.08-.82.2-1.2.34-.05-1.7-.25-3.4-.31-5.1z"/><path d="M114.6 42.09c.04.11.04.11 0 0z"/><path fill="#9bcc2e" d="M54.34 42.28c.08.1.08.1 0 0zM102.16 42.65c1.1-.12 2.2-.18 3.3-.23.03.87.06 1.74.22 2.6l-.57-.03-.33-.35-.6.01-.09.37c-.67.05-1.33.18-1.97.39l.26.64c-.22 0-.47 0-.5-.28-.16-.47.14-.94.3-1.37.02-.59.03-1.17-.02-1.75zM126.83 42.44c.3-.03.22.45-.04.44-.3.01-.22-.45.04-.44z"/><path fill="#9bcc2e" d="M98.4 42.88c1.04-.03 2.08-.1 3.12-.23.11 1 .18 2.02.21 3.03l-.32.2-.12.34.46-.47c.09 1.21.14 2.43.27 3.64-.3-.01-.61-.02-.92.03l-.24.35c-.46.19-.2-.47-.05-.65-.17-.17-.36-.3-.54-.47l.04-.35-.14.3-.18-.14c.02.27-.1.5-.24.72.05.26-.01.6.27.75l.18-.65.47.69c.28.02.46-.18.59-.42l.6.12-.03.23.1.2.2-.6.29.09-.14.65.61-.03c-.04-.18-.35-.38-.14-.55l.25-.26.04-.77c-.07.25.1.7-.28.7-.44-.09-.14-.72-.22-1.04.77-.05 1.54-.15 2.32-.14-.01.8.06 1.58.15 2.37-.84-.02-1.68.2-2.51.04l-.4.17c.12 1.13-.07 2.37.43 3.43h.2c.2-.3-.08-.6-.16-.88.27.05.46.2.46.51l.36-.1-.1.43c.43-.04.86-.06 1.29-.13l-.18-.27a19 19 0 0 1-.22-.17l.38-.23.08.63c.4-.03 1.11.24.96-.46l.36.45.43-.01c.1.54.16 1.1.17 1.65l-.56-.42.1.45-.5-.02c-.3.23-.7.18-1 .38l.37.44-1.86.2.07-.65-.52-.39c.08-.33.23-.66.21-1-.33.08-.39.53-.61.76-.22-.06-.44-.14-.65-.22-.1.39-.34.74-.78.76l-.02-.54c.46.02.64-.35.73-.73.3 0 .6 0 .9-.02-.3-.46-.74-.25-1.14-.12l.03.32-.39.04.06-1.03-.37-.06-.15.36-.41.04.5.7c-.43-.1-.7-.45-1.03-.72.02.44.23.78.67.88l-.14.4c.28.03.49.18.62.42l-.3.66.28.03v-.55l.69-.03-.03.7c-.66.15-1.35.16-2.03.17l-.03-1.14c-.31-.08-.63-.53-.92-.16.27-.38.42-.84.78-1.15-.2-2.57-.37-5.14-.54-7.71a4.9 4.9 0 0 1 0-1.68c.1-.34-.13-.65-.2-.96h1c-.02.27-.12.58.07.82.03-.45-.01-.9-.15-1.33a24.8 24.8 0 0 1-.35-.05l.04.42-.34.04c-.1-.34-.2-.67-.27-1.01m1.53 4.91l-.15.18c.13.51.74-.27.15-.18m-.66 2.02c.06.56.47-.3 0 0m.22 4.08c.23-.24.44-.5.63-.76-.34.11-.68.36-.63.76m-.38.85c-.28.04-.14.62.13.53.14-.16.07-.47-.13-.53m.5.69c.25-.14.24-.28-.01-.4-.25.13-.24.26.01.4zM46.45 43.51c.25-.28.49-.57.76-.82-.03.37-.15.73-.27 1.08l.43.29-.45.1c-.16-.22-.3-.44-.47-.65zM47.6 42.78c.1.1.1.1 0 0zM60.22 42.91c.35-.16.51.06.57.4a9 9 0 0 1 .36-.18c.05.2.1.39.17.58-.36-.26-1.1-.27-1.1-.8zM64.44 43.41l.29-.54c.1.16.22.32.33.47l.27-.29-.11.52.59-.04c-.33.14-.68.21-1.03.29l.11-.48-.45.07zM91.94 43.16c.73-.05 1.46.01 2.18-.06.48.38 1.17.72 1.17 1.43.24.22.35.5.3.83l.2.04-.5.48.5-.04c-.4.5.35 1.18.1 1.8-1.03.1-2.06.14-3.1.21-.08-.8.15-1.87-.7-2.34-.04-.79-.04-1.57-.15-2.35zM40.05 43.3c.42-.1.84-.14 1.27-.16-.26.39-.54.78-.6 1.26.32-.2.45-.55.63-.85.08.28.15.6-.13.8l-.04.52-.38-.27-.35.39.24-.52.03-.15c-.3.18-.61.36-.98.35.16-.21.34-.41.5-.63.05-.26-.14-.5-.2-.74zM61.42 43.04c.23-.07.32.02.25.25-.23.07-.32-.02-.25-.25zM62.58 43.33l.58-.19c.1.23-.12.4-.22.57l-.36-.38zM66.16 43.6a2.55 2.55 0 0 1 1.67-.62v.62c-.56.02-1.11.04-1.67 0zM63.5 43.06l.81.45.01.26-1.18.13.36-.84zM88.19 44.42c.77-.91 2.03-1.17 3.17-1.17.03.78.1 1.56.15 2.34-.14.17-.4.28-.44.52-.07 1 .11 2 .15 3 .03.52-.04 1.06.15 1.56l.41-.43.14.24c-.2.1-.42.19-.63.27.1.99.1 1.99.27 2.97 0 .48.01.97.32 1.38l.43-.14-.13.72.6-.01-.16-.52.55-.33c0 .3-.06.58-.2.84-.25.13-.55.05-.81.07l.15 1.77c-.65-.04-1.31.03-1.97-.06-.04-.23.13-.41.23-.6v-.44c-.2.26-.31.64-.62.8-.33-.14-.74-.29-.81-.68-.47-.2-.61-.7-.67-1.16a57.7 57.7 0 0 1-.49-5.72c-.04-1.24-.26-2.48-.05-3.71-.09-.43-.1-1.18.5-1.14l-.24-.37m.66 9.45c-.17.04-.33.37-.1.43.3.07.49-.55.1-.43m1.27.52l-.44.93c.4-.02.57-.4.8-.65l-.36-.28m.9 2.02l.18.9.7-.04.05-.74-.75.32.03-.42-.2-.02zM54.2 43.4c.5-.24-.02.57 0 0zM59.41 43.47c.37.09-.02.72-.3.53-.14-.2.08-.5.3-.53zM62.13 43.41c.21-.15.57.22.4.42-.24.14-.55-.2-.4-.42z"/><path fill="#9bcc2e" d="M30.75 45.34c.54-.5 1-1.08 1.4-1.7.02.23.09.43.22.62l.69-.58c.7-.04 1.41-.13 2.1.01.3.1.55-.14.83-.2.28.24.51.66.94.37-.03.35-.07.7-.07 1.04.13.12.3.15.45.23.18-.39.43-.73.68-1.08-.11.42-.27.83-.38 1.24.63-.28 1.2-.68 1.75-1.08-.14.38-.36.72-.54 1.07.3-.14.59-.32.83-.55l.43.25.04.53-.81.04-.35-.3-.27.4.11-.48c-.38-.06-.75.01-1.06.23l.35.32c-.25-.14-.58-.22-.65-.54-.1.16-.2.33-.28.5-4.43.32-8.86.65-13.3.95l-.46-.6.25.6c-1.6.17-3.21.2-4.8.4l-1.02.43-.3-.13-.35.12a4.25 4.25 0 0 0-1.58-.23c-1.6.1-3.18.25-4.78.33v-.22l-.22.25-1.02.08.1.44-.49-.2.16.35-.18.28-.5-.08.32 4.22c.12.36-.25.53-.46.75l.63.23c-.06.28-.14.57-.23.84.13.36.23.72.3 1.1-.77.04-1.54.1-2.31.16-.1-1.03-.17-2.06-.2-3.09.23-.4.48-.78.59-1.23l.31-.32a2.17 2.17 0 0 0-1.11-.8l-.08-.6.52.03-.49-.2-.02-.61c.25-.2.49-.39.71-.6.1.18.26.32.46.4.02-.56-.71-.6-.75-1.12.26.12.5.27.74.43l-.13-.5.46-.03-.27-.18c-.01-.27-.19-.48-.34-.7l.27-.29c-.16-.37-.25-1.06.3-1.11l.12-.33.58-.04c.46.32 1 .44 1.57.49l-.6-.79.68.3h.44l-.5.44c.3-.03.59-.04.88-.05l.29.42c.2-.2.36-.52.7-.51l.53.62-.1-.7c.14.16.23.36.27.59.14-.06.43-.16.57-.2l-.4-.33c1.68-.15 3.37-.24 5.05-.45l.33-.13c.38.15.79.14 1.2.12l.36.41-.05-.48c.31 0 .62 0 .93.02 0 .32-.23.57-.33.86l.15.55.33-.4c-.36-.34-.13-.76.17-1.05.25.66.44 0 .62-.24.43.07.86.12 1.29.16l-.08-.6c.3.12.26.37.12.64.34-.15.69-.08 1 .08a61 61 0 0 0 .2-.34l.95.09.41-.2-.03.37c.14-.19.32-.34.52-.46.03.41.32.7.68.88-.12-.3-.34-.55-.55-.78l1.12-.05c.45-.16.79.14 1 .5l.62.16c-.01.23.06.42.2.58.12-.17.22-.35.32-.52l.26.34c.53-.06-.06-.45-.16-.63.38-.22.76-.44 1.15-.62l-.44.66h.54l.42-.25c-.17.52-.76.94-1.22.41l-.03.38.78.19m-9.17-.59c.38.29.87.7 1.31.28l-.54-.03-.18-.55-.59.3m5.36-.11c-.1.2.24.4.4.26.1-.2-.25-.4-.4-.26m.8.85c.45.39.52-.34.7-.62-.25.18-.5.38-.7.62m-.66-.05c.06.56.48-.3 0 0m.7.52c-.08.23 0 .32.24.27.08-.24 0-.33-.23-.27m-13.5.18c.1.08.1.08 0 0M8.03 50.2c-.09.27 0 .36.28.29.09-.28 0-.37-.28-.3m-.19 3.36l.18.3-.1.8.38.12-.27-.47.37-.16c.2-.02.4-.04.58-.16a1.5 1.5 0 0 1-.8-.7l-.34.27m-.27.33c.1.08.1.08 0 0zM80.75 44.07c.96-.06 1.92-.07 2.87-.21.32 1.77.8 3.51 1.17 5.28.03.28.21.5.38.7l-.17.29c.35.41.12 1.03.38 1.5.15-.18.27-.39.39-.59h.13l-.23.58.45.17.15-.34a23.3 23.3 0 0 1-.12-.43l.17.01c.02.35.11.73-.18 1l-.75-.21c.28 1.17.46 2.37.8 3.52.17.49.08.99-.07 1.46l.39-.08.18 1.02c-.68.02-1.36.04-2.04.1l-.08-.31-.04.34-1.06-.04-.4-2.13.42.06-.03-.56-.44.32-.72-3.76.55-.04-.09-.33-.52.18c-.45-2.3-.86-4.6-1.33-6.88l.29-.08a1.3 1.3 0 0 1-.45-.54m2.1 1.88l.04.31c.16.13.32.25.47.4a5.86 5.86 0 0 0-.1-.18h.55c-.07-.12-.1-.33-.27-.29-.35.05-.26-.28-.23-.52-.14.11-.3.2-.46.28z"/><path fill="#9bcc2e" d="M28.95 43.96l.38.01-.04.75-.66-.2.32-.56zM39.67 44c.2.13.2.24-.03.35-.21-.13-.2-.25.03-.35zM21.56 44.14c.09.1.09.1 0 0zM78.54 44.22c.55-.02 1.1-.05 1.65-.1.3 1.45.56 2.92.9 4.36.07 1.57-.32 3.15-.06 4.7l.28.08.02-.31c-.13-.18-.45-.34-.24-.59.21-.08.43-.14.66-.18l.24 1.29.46-.07-.35.45.07.69c-.24-.05-.55 0-.66-.28l.02.28-.77.05c.03.36.02.74.15 1.08.5.07.18-.54.21-.82l.22-.14.21.6c-.25.38-.49.76-.69 1.17-.14.42-.18.89-.43 1.27l.35.4-.57-.26c-.27-.53-.95-.5-1.45-.65l-.16.77c.19-.12.4-.23.6-.33l.1.4.06-.42c.22.1.41.26.54.48-.82.08-1.65.19-2.47.2.34-4.7.77-9.4 1.11-14.12m-.88 13.23c-.1.28 0 .37.27.27.1-.28 0-.37-.27-.27zM121.7 43.96c.33.09.61.3.89.5.55-.03 1.1-.1 1.66-.16.17.99.14 2 .25 3 .15.72-1.02.46-1.02 1.13.25.18.5.38.75.58l-.05.7.3.26-.34.7c.2.05.39.1.58.17.12 1.42.19 2.85.3 4.27-1.09 0-2.18.19-3.27.17 0-.93-.09-1.86-.08-2.79-.03-.84-.27-1.67-.17-2.52.2-.19.48-.25.72-.37a.66.66 0 0 0-.45-.46l.2-.67-.4.43c-.25-.23-.22-.57-.27-.87-.1-1.12-.14-2.25-.24-3.38.24-.2.55-.27.85-.33l-.21-.36m.8 7.6c-.06.27-.12.53-.16.8.18.2.45.23.7.3l.01-1.12-.55.02zM106.14 44.29l.52.35-.3.53-.22-.88zM44.07 44.59l.78.13c-.1.17-.23.33-.34.49-.37.04-.75.14-1.11.02-.01-.18.09-.32.3-.4l.09.4.26-.05.02-.6zM41.57 45.03c.22-.1.44-.28.68-.14.24.15.45-.05.67-.14.1.16.17.32.28.46-.82.13-1.72.34-2.54.08l.6-.33.31.07zM105.98 44.8c.1.1.1.1 0 0zM67.37 45.02c1.09-.03 2.17-.2 3.27-.22l.15 2.52c-1.08 0-2.16.17-3.25.21-.08-.84-.17-1.67-.17-2.51z"/><path fill="#9bcc2e" d="M63.57 45.26c1.04-.1 2.08-.06 3.11-.22.19 1.31.2 2.63.34 3.95-.6.31-1.06.8-1.27 1.45.5-.02.95-.22 1.4-.42-.06.28-.13.56-.33.78l.32-.17.06.62c-.4.02-.8.03-1.2.14.08.2.23.38.4.53.2-.17.4-.48.72-.34.1.27.18.54.26.82.5-.44.56-1.12.38-1.73l.81-.1c.22.29.52.47.84.62a4.74 4.74 0 0 1-.64-.59l1.29-.07c-.06.38.13.92-.35 1.08.34.16.58.42.32.79l.19.48c-.78.06-1.56.1-2.34.19 0-.15-.04-.45-.05-.6-.93.54-.32 1.7-.51 2.54-.16.16-.31.34-.45.52.28-.09.52-.27.75-.44l.46.6.64-.47.26.3-.44-.09c-.01.35-.04.7-.07 1.04.69-.06 1.38-.02 2.06-.06l.12.47.02-.56h1l.1 2.42c-.77.1-1.54.08-2.31.07l.1-.4-.37.06.03.48-.9.02c-.04-.5-.1-1-.13-1.5l-.37-.2c.21-.41.28-.88.35-1.33-.27.19-.58.4-.63.76-.08.77.1 1.54.12 2.32-.42 0-.93.23-1.26-.14-.34-.15-.68-.4-1.06-.23l-.04.52-.8.05c-.27-3.5-.52-7.02-.71-10.52.22-.04.42.05.63.14l.37-.32.05-.56-.1.6c-.3.05-.6 0-.81-.25l-.22.26c-.02-.49-.03-.97-.03-1.46.26-.1.48-.26.7-.44l-.74.24c-.08-.55-.07-1.1-.07-1.65m1.75 1.03c-.18.22.19.58.37.32.18-.23-.18-.59-.37-.32m.41 1.73c-.22.51.57-.03 0 0m2.55 2.86c-.07.24.01.32.25.27.07-.24-.02-.33-.25-.27m-2.15 3.2c-.2-.02-.4.39-.1.39.2.01.4-.4.1-.4zM6.48 45.68l1-.13-.4.44.05.6-.29.31.33-.05-.05.53c-.4.06-.58.42-.46.79l-.47.13c.1-.18.2-.37.28-.55l-.28-.28.23-.86-.24-.33.47-.08-.17-.52zM102.57 45.97c-.23-.16-.23-.3.02-.44.23.15.22.3-.02.44zM6.08 45.8c.1.1.1.1 0 0zM55.37 45.8c1.06-.06 2.12-.14 3.18-.18.2 2.57.36 5.14.53 7.7-.01 1.03.23 2.05.18 3.07l-.41.14c.35.4.88.77 1.43.53l-.02.22-.29-.03-.38.57.02-.73-.42.02.24.57a1.7 1.7 0 0 1-1.31-.51l-.01.25a6.37 6.37 0 0 0-1.62-.54c.43.15.86.3 1.25.55.56.11 1.1.25 1.66.4.04.59.08 1.18.07 1.78-1.03.11-2.07-.02-3.1.17-.04-.46-.1-.92-.13-1.37l-.53.1.05.36-.2-.31-.31.3-.08-.4-.3.27-.18-.27.4-.13a8.85 8.85 0 0 0-.2-1.07l-.53.43.3.53-.49-.5c0-.21 0-.43-.02-.65.22.22.53.12.8.07.12.2.3.33.52.42l-.19-.65-.25-.18v-.14c.4.12.79.27 1.17.45a5.04 5.04 0 0 1-.15-1.17c-.12-2.13-.34-4.25-.4-6.37l.91.06-.44.25.72.39.06-.54.5.27c.07-.15.2-.43.25-.58l-.48.08.32-.56c-.62.2-1.26.3-1.91.34-.04-1.14-.18-2.27-.2-3.42m1.83 4.38l.06.37.32.05.03-.42h-.41m-.59 8.66c.17.38.54.33.87.3-.1-.46-.53-.34-.87-.3z"/><path d="M14.29 46.14c.1.08.1.08 0 0z"/><path fill="#9bcc2e" d="M47.57 46.42c1.37-.12 2.78-.29 4.12.15l.49.51.57-.1-.26.44c.5 1 .51 2.15.56 3.25l.6.31.36-.34-.2.55c-.3.06-.56-.12-.84-.17-.08.4-.18.85.1 1.22-.59-.1-1.01.35-1.54.48l-.78.18c.77.12 1.65.17 2.2.8.49.67.58 1.54.67 2.35l.4.06.07-.77.13.8-.57.25v1l.26.31-.35.48.53-.1-.36.62-.08-.36c-.34.46-.62.99-1.12 1.3-.47.33-1.05.41-1.6.54l-.79-.49.06.49c-.39.01-.77.05-1.15.1-.08-.76-.11-1.53-.1-2.3.44-.03 1.03-.01 1.27-.48.2-.51.07-1.08.07-1.61.2.05.41.3.63.16l.15-.4-.47-.07.34-.42a7.1 7.1 0 0 0 1.64-.61l-.94.39c-.49.05-.95.2-1.4.37-.08-.36-.06-.83-.43-1.03-.38-.07-.77-.04-1.16-.05 0-.75-.25-1.48-.16-2.24.41-.07 1.04 0 1.2-.5.07-.78.07-1.58-.1-2.34-.28-.82-1.32-.4-1.96-.45.16.98.09 2 .32 2.96-.07.5-.06.99.1 1.47l-.57-.06c.1.22.29.35.52.42.02.7-.05 1.44.27 2.1l-.15.6.75-.31-.25.46c.4.08.69.31.56.75l-.3.07-.06-.7c-.23.04-.44.1-.66.16l.13.89.47-.06c-.15.2-.32.4-.45.61 0 .76.1 1.51.07 2.27-1.04.06-2.07.19-3.11.22-.13-.45.04-1.09-.43-1.37l.31-.28c-.37-3.75-.5-7.53-.8-11.29-.05-.32.03-.64.1-.95.85-.13 1.73-.17 2.6-.16l.19.4.33-.48m-2.4 8.05c-.06.27-.08.54-.1.82l1.47-.03c.34-.23.7-.42.99-.73a3.7 3.7 0 0 1-.28-.38c-.05.1-.16.32-.2.43-.37-.09-.71-.21-1.05-.35-.28.07-.56.14-.83.24m.48 1.53l.06.52.45-.12-.24-.45-.27.05z"/><path fill="#9bcc2e" d="M52.08 46.47c.27-.08.37.02.29.3-.28.07-.37-.03-.29-.3zM38.17 47c.89 0 1.77-.13 2.66-.17.31-.04.6.09.89.21-.2.23-.31.5-.33.8l.45-.4-.11.44h.36l.02-.68c.15.35.25.72.33 1.1l-.6-.12c.17.26.64.47.44.83l-.37.13.07.78c-.1-.03-.31-.06-.42-.08.09 1.34.27 2.68.23 4.02l-.62-.3-.5.25c.08.28.19.56.28.84-.3-.16-.61-.31-.94-.43l-.62.8-.6-.1c.1.2.19.42.28.63.25-.33.51-.67.86-.92.07.33-.25.7-.09 1.02.22-.35.54-.5.94-.3l-.32.32.44.32c.2-.36.42-.7.76-.93l-.47-.1-.55.18c.22-.12.44-.58.7-.22l.32-.3c-.26-.19-.52-.37-.82-.47l-.05-.32c.24.04.49.07.73.15.08.22.13.45.2.67 0 .09.03.26.04.35.3.58.2 1.25.28 1.88.03 1.13.15 2.46-.7 3.36-.69.8-1.8.87-2.77 1-.1-.77-.09-1.54-.21-2.3l-.02-.1c-.01-.2.1-.3.33-.3l.23-.47-.63.24a32.1 32.1 0 0 0-.67-.17c.45.02.9 0 1.33-.15-.3-1.31-.11-2.66-.29-3.98-.1-.68-.11-1.36-.15-2.04l.3-.2-.32-.13c-.1-.6-.08-1.21-.13-1.82-.26-.1-.58-.18-.63-.51.19.04.38.1.56.15-.08-.82-.05-1.64-.1-2.47z"/><path fill="#9bcc2e" d="M33.21 47.35c1.1-.04 2.21-.24 3.32-.14l-.57.3c.25.02.49.09.68.26l.9-.3.06.43c-.15-.05-.3-.09-.46-.12-.5-.01.12.51.12.75.19-.26.45-.45.73-.6l-.22.47-.34.17-.62.38.2-.45a1.2 1.2 0 0 1-.15-.76l-.3.18c-.1.66.03 1.33.08 1.99.19 2.81.35 5.63.63 8.44.22.26.63.34.73.68l.03.06-.25.07c.06.68.08 1.35.14 2.03-.98.03-2.12.2-2.9-.51-.4-.31-.6-.78-.7-1.27-.38-.47-.3-1.12-.4-1.68-.2-3.46-.45-6.92-.71-10.38m1.03 6.88c.14.48.48.9 1 .94l-.01-.67-.99-.27zM107.37 47.4c.42-.15.85-.22 1.3-.19.42.16.87.17 1.32.2.5 1.53.4 3.18.56 4.78l.53-.38c-.12.26-.29.49-.48.7.07 1.19.1 2.38.3 3.55-.68.03-1.35.09-2.03.13l.03-.46h-.2l.07.41-.48.02.08-.53-.2.63-.26-.01c.02-.76-.1-1.5-.16-2.25-.05-.32.2-.52.39-.72.35-.26-.26-.38-.43-.46l.01-.1c.4.14 1.04.72 1.31.06l-.74-.18.43.02.02-.53c-.36.14-.73.26-1.12.32-.02-1.67-.29-3.34-.25-5.01m1.16 6.01l.04.37.38.03v-.4h-.42m.01 1.34c-.09.25.15.72.44.62.12-.25-.19-.63-.44-.62zM24.43 47.9c.46-.04.92-.12 1.37-.21-.05.42.2.96-.16 1.29l.27.09.1 1.03c-.44.21-.6.6-.57 1.08l-.33.1c.26.22.45.5.5.84-.44 0-.88-.02-1.3-.2v.39c.4-.07.8-.13 1.2-.16l-.28.52.18-.3c.36 1.25.3 2.56.39 3.85l-.51.42c.23-.03.43-.14.65-.2a1.1 1.1 0 0 1-.3.61l.2.1c.16.62.12 1.27.18 1.91.08.27.4.34.6.5.04.82.1 1.64.18 2.47-1.15.02-2.57.13-3.36-.88-.5-.44-.3-1.3-.92-1.6l.18-.4-.33-.04.25-.34a37 37 0 0 0-.4-.1c.13-.12.28-.22.42-.32v-.45c-.31-.1-.58-.26-.64-.62l-.3.32.21.2-.29.2a41.8 41.8 0 0 0-.06-.82l.37.1.48-.8.09.59.08-.3c.55.03 1.11.05 1.61-.22v.42l.2-.49.76.58c-.15-.34-.59-.43-.87-.64-.4.16-.84.21-1.27.25-.01-.38.2-.61.53-.77-.23-.38-.7-.25-1.06-.26l-.02-.6c-.2-.08-.39-.17-.57-.28h.53c-.1-.89.12-1.83-.33-2.65l.18-.23-.02-1.2-.78.09c.49-.2.2-.64.1-.98l.64.7.08-.59-.3-.45.44-.06c.28-.53.65-1.15 1.3-1.24.47.25.55.86.75 1.3l-.1-.61.34.04.46-.6-.54-.3-.19.33-.02-.4m.27 3.63c-.09.28 0 .37.27.28.1-.28 0-.37-.27-.28m.04.97c-.31.06-.11.5.15.36.32-.07.12-.5-.15-.36zM26.64 47.62l.5-.1.05.43.12-.4c.86.1 1.87.14 2.46.89.76.95.7 2.24.83 3.38.02.61.18 1.21.18 1.83-.21.18-.45.33-.67.5-.6-.1-1.21-.22-1.83-.24-.17.17-.11.42-.13.64l.78.08.28.18.5-.38-.07.54h.71a1.8 1.8 0 0 1-.46-.83c.38.04.8.2.92.6.09.51.16 1.03.07 1.55h.21l.05-.34.34.25-.66.44c.09.28.17.57.24.85l-.41.03v.1c.13-.03.25-.04.37-.05-.02 1.1.18 2.33-.55 3.26-.7.96-1.99 1.02-3.06 1.15-.1-.68-.12-1.37-.12-2.06l-.36.1c.14-.17.27-.36.4-.54.49-.26.5-.8.37-1.27l-.1-.87-.47-.34.56-.06a33 33 0 0 0-.07-.4l-.57.33c.04-.3.24-.49.54-.5.02-.27.05-.53.06-.8-.15-.38-.18-.79-.33-1.17.25-.72.02-1.49 0-2.23-.05-.63.05-1.3-.26-1.87-.13-.12-.47-.1-.46-.33-.05-.77-.27-1.6.04-2.35m3.27 2.24c.24-.15.23-.3 0-.43-.24.15-.23.3 0 .43m-.94 5.23c-.04.26.4.43.63.38.03-.25-.4-.49-.63-.38m-.87.45c-.24.1-.25.2-.03.33.23-.1.24-.21.03-.33zM11.4 47.97c.2.29.38.62.67.83l.32-.24.11.23c.3-.04.61-.03.86-.23 1.28.31 2.63-.26 3.93.07 1.3.19 2.02 1.48 2.18 2.66.21 1.54.38 3.09.42 4.63.27-.06.4 0 .38.2l-.3.03c-.02.31 0 .63.04.94l.53-.15c.02.32.06.63.06.95-.03.28-.43.17-.6.27.07.9.03 1.8-.22 2.67-.09.19.02.36.1.53l.44-.5-.1.57c-.92.22-1.68.9-2.65.95l-.09.3-.62.02a7.37 7.37 0 0 0-.99-.19c-.06-.77-.04-1.55-.17-2.32.46-.06.98-.65 1.4-.27.41.45-.4.6-.69.82l-.36-.04c.29.06.58.14.87.1.28-.29.5-.65.82-.9l-.36-.06-.02-.15a1.13 1.13 0 0 0-.6-.05c.02-1.53-.02-3.06-.14-4.58l.62.18.17.8-.65-.25.3.33.46-.07c0-.21-.02-.43-.04-.65 0-.23.18-.5-.01-.69l-.45-.11-.14-.25.01.7-.28-.24c-.19-1.09-.14-2.2-.4-3.28-.3-.68-1.14-.45-1.71-.45.17 2.82.4 5.65.57 8.47.04.41 0 .86.27 1.2l-.18-.11c.04.66.05 1.33.13 2-.57-.02-1.18.18-1.72-.04l-.1-.37c-.33.11-.65.26-.91.49l1.16-.02-.52.63c-.1-.13-.18-.26-.27-.4l-.22.45-.5-.58a4.3 4.3 0 0 0-.4-1.2c-.2.15-.42.25-.65.32.16-.18.35-.35.54-.5-.31-.1-.5-.3-.39-.63l-.29-.05.34-.1-.09-.33.52.2c.06-.54.2-1.15-.12-1.64a37 37 0 0 0-.13-3.82c-.05-.58-.15-1.2.15-1.74l-.3-.14c0-.9-.15-1.8-.12-2.7-.64-.33-.08-1.06-.26-1.58l.85-.07-.46-.85m8.75 9.14c-.15.17-.13.56.12.63.3-.08.22-.8-.12-.63m-7.7 1.51l.06.42c.26-.17.51-.36.74-.58-.27.04-.53.1-.8.16m5.64.28c.25.5.76.77 1.14 1.15.1-.07.15-.19.22-.28-.46-.27-.8-.75-1.36-.87m-6.35 1.7c-.28.1-.15.75.14.72.14-.2.11-.6-.14-.72zM60.74 48.62c-.06-.18-.12-.38-.03-.56.07.25.14.52.16.8l.43.33.01-.54.48.43-.22.78-.26.25c-.03.35-.06.71-.16 1.06l.01.48a27.9 27.9 0 0 0-.4-.19c.11-.38.25-.78.1-1.17l.39-.27.07-.8c-.4.1-.53-.19-.6-.51a44 44 0 0 1-.43.16l.45-.25zM130.1 48.4l1.1-.11c.06 1.74.33 3.46.4 5.2l.62.09c-.21.09-.43.17-.62.31-.02.47.08.92.16 1.38.2.1.4.23.58.38l-.74-.17.03.25-.43-.23c-.18.2-.33.55-.67.42l-.34-.29c-.23.29-.52.5-.83.7l-.46-.3.15.88c-.58.06-1.08.39-1.39.88-.73 0-1.46-.04-2.18.08l-.11.37.58-.01-.21.61.7-.18c-.25.5-.83.4-1.29.48l.59-.64c-.34-.16-.7-.17-1.07-.18l-.6.38c-.48.34-1.08.25-1.63.31-.44.02-.93.18-1.33-.1l.55-.33c-.55.2-1.14.33-1.61.7l-.41-.2a5.45 5.45 0 0 0-.3-.94c.35-.3.8-.23 1.12.09l-.01-.48c.3-.1.24-.38.24-.63l-.19-.26c.92-.1 1.86-.08 2.78-.19.38 0 .8-.15 1.15.1.8-.36 1.7-.23 2.55-.4.47-.17 1.01-.1 1.47-.34a.75.75 0 0 0 .54-.34l-.5-.05c.07-.16 0-.54.3-.44.17.23.24.51.34.78l.4-.04-.51-.46.26-.1c-.24-.18-.62-.42-.53-.77l.63.36c-.05-.25-.12-.49-.14-.73.17-.33.46-.57.68-.86l-.72.3c.07-.28.16-.56.26-.85h-.27c.1-.33.2-.65.28-.98l-.3-.4c.36 0 .56-.19.53-.57l-.53.32-.1-.24.59-.18.33.04c-.24-.31-.6-.5-.91-.75.54.05 1.1-.03 1.48-.46l-.18-.33c-.1-.3-.37-.46-.68-.51l.4-.38zM121.5 49c.57.04-.27.51 0 0z"/><path fill="#9bcc2e" d="M60.38 49.27l.51.38c-.16.32-.35.66-.13 1l-.41.5-.03-.5h-.43c.43-.3.65-.87.5-1.38zM66.45 50.13c.12-.39.27-.77.53-1.08.03.24.05.48.06.73-.18.14-.37.26-.59.35zM92.41 49.77c1.25-.02 2.5-.2 3.74-.23.13.97.1 1.94.17 2.91h.6l-.03.34.17.2c-.18.21-.36.45-.65.52.02.98.15 2.1-.47 2.94-.71.9-1.97.89-3 1.07 0-.54-.03-1.07-.06-1.6.22-.12.46-.2.62.05-.5-.35-.2-1.14.3-1.33l-.4-.24a8 8 0 0 1-.1-2.04l-.72.01c-.04-.87-.14-1.73-.17-2.6m1.27.4c0 .3.5.28.53 0-.02-.28-.51-.29-.53 0m-.51.2c-.1.28-.01.37.27.29.1-.28 0-.37-.27-.28m3.34 2.18c-.16.12-.11.55.13.53.07-.15.13-.54-.13-.53m-1.75 3.04l-.68.22.03.27.32.03.24-.26.54.2-.45-.46zM10.64 50.21c.27-.08.37.02.29.3-.27.07-.36-.02-.29-.3zM53.15 51.4c.27-.09.37 0 .3.28-.28.08-.38-.01-.3-.28zM53.46 52.07c.1.1.1.1 0 0zM52.71 52.5l.34-.01c.1.28-.45.3-.34 0zM54 52.72c.56.02-.27.5 0 0zM110.88 52.9l.48.47-.39.45-.09-.93zM54.78 53.05c-.09.21-.12.47-.31.62-.36-.02-.78-.08-.9-.49.43.1.92.36 1.2-.13zM48.21 53.36c.57.01-.25.51 0 0zM31.36 53.7c.52-.1.83.31 1.16.61l.14.99c-.25.04-.66-.18-.76.17-.03.14-.1.41-.12.55l-.39-.54.52-.3c-.11-.03-.34-.1-.46-.12l.09-.9c.3.2.25.58.3.89.47-.01.27-.5.1-.73-.18-.22-.39-.41-.58-.62zM42.31 53.51l.67.6c-.38 0-.73.13-1.06.32l-.04-.57.42.16.01-.5z"/><path d="M7.57 53.9c.1.07.1.07 0 0z"/><path fill="#9bcc2e" d="M98.75 54.23c.1.08.1.08 0 0zM45.37 54.72c.28-.11.57-.2.86-.3-.09.5-.5.73-.94.86.01-.18-.18-.5.08-.56zM62.37 54.72l.28.94.35-.37h.3l-.01.29c-.13.1-.25.21-.37.33l-.4.07c-.26.1-.54.2-.81.28l.34.67.2-.46.46-.22c-.26.43-.54 1.1-.1 1.5l.18-.54.29.22-.3.32.47.19.16-.41-.13-.5c.2.38.36.89-.07 1.17l-.75-.3.04 1.49-2.36.16c-.04-.63-.09-1.26-.16-1.88.4-.14 1.06-.14 1.03-.72l.47-.04v-1.08l.16.3c.2-.17.4-.33.67-.39l.02-.67-.29.06.33-.41zM69.66 54.71c.08.1.08.1 0 0zM17 54.83c.22-.07.3.02.24.27-.23.06-.3-.03-.24-.27zM26.7 55.11l.34-.45.31.91-.48.05.21-.51h-.37zM32.8 54.88c.48-.3.04.57 0 0zM48.83 54.85c.2.24.55.47.34.82l.27.2-.5-.22c-.05-.27-.08-.53-.11-.8zM68.07 54.9c.28-.08.37.01.28.29-.27.07-.37-.02-.28-.3zM69.18 55.37l.46.39-.4.6-.06-.99zM101.42 56.64c.05-.5.28-1.08.86-1.13l.15.66-.46-.1v.22h.46c-.04.58-.65.3-1.01.35zM132.56 55.55c.56.08-.3.47 0 0zM21.12 55.74c.32.11.64.27.95.4l.06.46h-.32c-.05.4-.46.33-.75.38-.02-.27-.05-.56.13-.8l-.07-.44zM127.7 55.71c.53-.3.16.83-.1.28l.1-.28zM128.2 55.73c.09.1.09.1 0 0zM37.75 56.27l.28-.41.02.28.52-.35c.22.26-.12.41-.27.58-.09.3.18.48.33.7l-.8.14.45-.45-.4.02.06-.37-.19-.14zM32.43 56.33l.14-.43.52.38.52-.23c-.12.15-.23.31-.37.46-.27-.03-.54-.11-.8-.18zM105.46 56.33c.2-.52.76-.43 1.07-.06-.35.03-.71.05-1.07.06zM131.1 56.09l.52.05c.1.34.18.68.23 1.03l-.63.44.17-.4c-.06-.39-.1-.78-.28-1.12zM31.94 56.49c-.21-.13-.22-.25 0-.36.22.13.22.25 0 .36zM31.2 56.53c.16-.27.7-.06.46.22-.18.2-.77.09-.45-.22zM129.7 56.77l.47-.55c.12.12.23.26.3.42-.18.22-.52.09-.76.13zM6.97 57c.39.02.92-.24 1.21.04.1.28.24.65.56.34l-.32-.16-.03-.15c.25-.23.6-.24.92-.28.1.36-.2.6-.43.8l.48-.14c-.02.7.08 1.41.15 2.12l-.58.07c.64.28.66.99.72 1.58l-.49.35c.2.22.52.37.58.68-.02.33-.13.65-.2.97.31.41.12.98.46 1.37l.4-.5-.22.53c1.14-.1 2.28-.18 3.42-.26.26.03.35-.28.51-.41l.06.5.7-.37.33.24c0-.13.03-.38.04-.5.15.24.36.36.64.36l-.42-.62c.43.1.76.77 1.2.49l-.4-.41c.27.04.51.17.72.34l.64.14.11-.63.2.68.3-.92.16.66c.06-.03.17-.1.23-.12l-.06-.57c.29.2.59.36.91.5l.08-.53.4-.1c.35.13.69.25 1.02.4l-.68.37c.5-.04.99-.07 1.48-.06v-.53l.71.5.4-.6c0 .26-.05.52-.12.77l.1-.09c.23-.27.58-.3.92-.3a8.17 8.17 0 0 0-.21-.62c.39.26.7.7 1.21.7-.17-.27-.36-.53-.54-.8.4.05.64.35.79.7l.6-.1.1.42.06-.51c.4.03.8.14 1.04.48l-.12-.44c1.62.05 3.22-.17 4.82-.35l.23-.02c.4.03.8-.04 1.2-.1l.07-.32.36.36.35-.48.07.46c.6-.08 1.2-.14 1.8-.13a5 5 0 0 1-.5-.69c.37.13.7.35.93.67l.4-.28-.04.46c.54-.36 1.32-.45 1.74.13.18.06.36.12.54.2.11.27.19.57.28.86.07-.42.1-.85.35-1.2l.69-.05-.5-.33.67-.07-.17.43.7.46-.54.08.69-.07-.34.53.63-.8c-.08.03-.25.06-.33.08l-.3-.72.77-.11-.2.4.53-.3c.22.06.43.17.67.18.14-.12.29-.23.44-.33 1.7-.16 3.4-.18 5.08-.38l.18-.38.26.46.22-.63.25.59.15-.58.18-.04-.06.44.64-.01.33-.16c.09-.68.62-.15.83.14l.26-.27c.4.14.82.15 1.23.18-.18-.26-.36-.51-.53-.78.28.11.56.24.83.38l-.1.33c1.02.02 2.03-.25 3.05-.2l.02-.36.28.31 1.07-.04-.23-.47.73.4c-.07.26 0 .35.2.26.14-.27.3-.2.49-.02l-.07-.27.96-.08.3.29-.19.22c.2-.11.26-.33.34-.53l1.87-.07-.39.83.57-.9c.99.03 1.96-.15 2.94-.2 1.55-.09 3.09-.23 4.64-.3 0 .37 0 .77-.29 1.06l-.3-.48.34-.4-.49.26a5.2 5.2 0 0 0-.85.81c.04.37.05.74.06 1.1l-.38.08c.5-.46-.01-1.09-.07-1.62-.35.23-.24.56-.1.87a1.84 1.84 0 0 1-.95-.23c-.05.16-.08.33-.1.5-.09-.27-.17-.55-.24-.83l-.46.54-.4-.64.2.39-.58.33.03-.64-.72.84-.44-.18.4.9c-1.47.06-2.95.24-4.43.21l-.37-.34-.01.58a8.58 8.58 0 0 1-.7-.88c.14.07.4.23.53.31l.23-.19-.24-.08c.07-.35-.18-.52-.46-.66l-.02.57-.38-.45.2-.43c-.39.04-.54.3-.56.65l-.12-.55-.32.3c-.4-.44-.95-.1-1.42-.02-.25-.09-.44-.29-.66-.43-.24.39-.63.63-.99.9-.25 0-.51-.02-.75-.12l-.14.6-.45-.41.25-.28c-.33.16-.66.34-1 .52l.7.73c-.52.23-.66-.53-.82-.86-.3.1-.6.22-.9.34l-.6.49.44-1.04-.11.08c-.2.23-.42.45-.66.65l.05.37-.55.08.26-.55-.79.53.49.38-.88.04-.24.6.06-.63c-.25.16-.44.4-.62.63l-.34-.19-.36.31-.28-.26-.33.16-1.23-.34-.28.09c-.68-.14-1.37 0-2.06.04-1.57.14-3.15.15-4.7.4a4.7 4.7 0 0 1-1.97.04l.1.5-.41-.5-.33.54.01.18h-.17l-.02-.27a1.58 1.58 0 0 1-.62-.63c-1.37 1.02-3.15.6-4.71.51l-.64.25c.19-.27.37-.55.34-.9.31.14.64.27.9.5h.06l-.1-.62-.2-.24-.9.46-.44-.38c-.17.15-.35.31-.6.31l-.24.42-.45-.17.57.57-.48.11c-.27-.33-.61-.07-.91.07l.26-.53-.19-.05c-.1.2-.15.42-.34.56-.92.13-1.85.1-2.78.15.21-.17.57-.26.59-.58-.1-.34-.33-.61-.54-.88l-.82.5-.02-.8a.85.85 0 0 0-.8.83l-.3-.17-.47.92c.33-.02.5-.3.72-.52l.46.8c-.64.16-1.31.2-1.97.16l.03.5-.33-.51-.41.68.13-.58c-.25-.04-.5-.04-.74-.02l.17.59c-.35-.04-.65-.2-.78-.54a2.75 2.75 0 0 0-.96-.04c.16-.32.25-.66.21-1-.46.15-.92.67-1.43.31l.47-.54-.51.28c-.43.26-.94.4-1.27.79l-.39-.1.02.3.81-.09.1.34c-1.98.07-3.95.28-5.92.39v-.6l-.38.43-.98-.4v.46c-.33.02-.65-.05-.85-.33.35-.23.71-.44.97-.77-.37.18-.72.42-1.14.49.22-.25.46-.47.7-.69l-.31-.02-.06-.62.5-.34c-.36.03-.7-.03-.96-.3v-.57l-.44.03-.19-.59c.2.16.38.33.56.5-.1-.83-.03-1.66-.09-2.48.2-.12.53-.25.23-.48l-.25-.52.37-.22-.34-.1c-.17-.93-.2-1.86-.3-2.78m60.99 3.79c.1.09.1.09 0 0m-7.7.63c.05.56.49-.28 0 0m-6.35.75l.29.04c.3-.4-.41-.5-.29-.04m9.71-.18c.1.1.1.1 0 0m-4.56.14c-.09.06-.24.2-.32.26l.27.44.42-.27-.37-.43m-9.62.67c.1.08.1.08 0 0M8.2 63.84c-.23.26.25.48.4.24.22-.26-.24-.48-.4-.24m1.02 2.46c.15-.08.3-.13.46-.2a1.28 1.28 0 0 1-.3-.76c-.12.3-.42.63-.16.96m4.47-.98l-.48.48c.24.04.55.26.72-.03l-.24-.45m6.77-.04c-.1.28-.01.37.26.28.1-.27.02-.37-.26-.28m-10.2.88c.09.1.09.1 0 0z"/><path fill="#9bcc2e" d="M62.91 56.92c.1.08.1.08 0 0zM119.33 56.9c.2-.14.31-.1.33.14-.2.15-.32.1-.33-.13zM112.71 57.36a69.3 69.3 0 0 0 4.01-.23l.5.68-.1.68c-.15 0-.44-.03-.59-.04.37.28.7.6 1.02.95l-.4.16-.28-.65-.42.31c-.17.26-.62 1.04-.67.15-.14.17-.26.35-.39.53l.21-.71.39.2.27-.56-.55.22-.04-.5-.46-.19-.16.42.5.07-.2.35a26.2 26.2 0 0 0-.83-.22c-.04-.32-.08-.64-.1-.96l-.17.71c-.33.2-.67.44-1.07.42l.54.38c.25-.14.44-.33.42-.65l.63.63-.76.24a71.7 71.7 0 0 0-.47-.26l-.52.24-.3-.13-.14.42-.88-.08.17-.56c-.11.05-.33.14-.43.2-.1-.37-.08-.9-.6-.77l.5.5c-.22.17-.46.16-.7.03-.17.06-.34.11-.52.14-.2.14-.38.3-.56.45l-.55-.51.13.5c-1.36.2-2.73.16-4.08.34l-.3-.14-.29.17-.72-.01-.03-.73-.53-.05c.17-.31.48-.28.79-.2.34-.32.54-.75.77-1.14l-.58.21-.04-.38h.68c.28.23.58.49.87.1l-.39-.1c.92-.1 1.84-.2 2.76-.25l.2.52.31-.5.27.08c.58-.2 1.19-.22 1.78-.29-.43.36.06.85.38.5a7.72 7.72 0 0 0-.13-.54c.62-.01 1.24-.06 1.85-.15m2.19.35c.02.56.5-.27 0 0m1.15.64c.24.13.55-.22.45-.45-.22-.1-.58.22-.45.45m-9.62.28l.68.22c-.05-.21-.09-.43-.2-.62-.25-.02-.34.24-.48.4m2.13-.25c-.11.26.27.6.51.46.1-.25-.28-.6-.51-.46m1.64.56c.09.1.09.1 0 0m-5.58.11c0 .57.5-.24 0 0zM117.96 57.51l.07-.4.63.2-.54.22c.02.2.07.39 0 .58-.15.01-.3 0-.44-.04 0-.23.09-.42.28-.56zM119.66 57.3l.35.3c-.36.05-.68.23-1 .4l-.23-.3c.31-.09.6-.23.88-.4zM129.83 58.47c.71-.35 1.42-.7 2.14-1.03-.2.36-.43.74-.79.97-.44.1-.9.06-1.35.06zM26.94 57.7c.23-.08.32 0 .26.25-.23.07-.32-.01-.26-.25zM26.54 58c.21.3.4.63.5.98-.22-.07-.73.15-.62-.29l.3-.08.02-.1a22 22 0 0 1-.32-.03zM27.23 58.27c.57.02-.26.5 0 0zM100.3 58.3l.73-.02-.52.41c-.08-.13-.14-.26-.2-.38zM101.94 58.8c.5-.17 1.02-.3 1.53-.44l-.04.71-.03-.38c-.48.05-1 .37-1.46.1zM118.28 58.47c.28-.1.37 0 .28.26-.28.1-.37 0-.28-.26zM97.7 58.61l.25-.17.74.22-.08.23.46-.05.23.6c.25-.23.52-.42.78-.63l.28.23h-.46l.37.5.5-.14c.04.47-.32.5-.7.46l-.39-.52-.29.45-.42-.24-.03.72c.29-.15.57-.32.84-.51l.15.23 1.33.37c-.33.08-.67.14-1 .2l-.07-.3-1.04.2-.07.28-.43-.44-.55-.22.63-.16c-.23-.2-.7-.29-.63-.7l.4.33.1-.31c-.46-.04-.98-.21-1.38.1l.02.2c.22.1.47.12.73.05a28 28 0 0 0-.65.3c-.22-.2-.42-.41-.62-.62-.25.29-.51.58-.73.9l-.46-.31.33.34c-.21.19-.42.4-.1.58.37-.18.77-.28 1.19-.26l-.03-.16h-.74c.12-.23.25-.45.39-.66.18.11.37.23.55.37.03.26-.1.51-.17.77-.72-.01-1.44.03-2.16.13.18-.22.44-.31.7-.4l-.08-.21-.76.41c-.39.09-.78.18-1.17.25-.11-.37-.22-.8-.58-1l-.18-.44c-.56-.02-.95.4-1.21.84l.49.45c-.47-.23-.99-.2-1.49-.15l-.13-.5c-.1.17-.18.34-.27.52l-.53-.47-.1.42h.48l-.08.43-1.09.03-.29-.63c-.37.21-.79.2-1.2.1l-.63.34.07.38-.33.02c-.1-.47-.2-.94-.22-1.42l.53.4-.08-.54c.32.08.65.15.98.21l-.22.55.77-.2-.24-.48.4.13.47-.2-.08-.32.54.46c0-.22-.05-.44-.01-.65.15-.17.39-.22.58-.32l.25.8-.07-.61c.57-.21 1.11.2 1.34.7l.3-.42.24.05.5-.2.02-.27.25.38.28-.2-.18-.41c.25.01.51.04.75.16l.21-.23c.6-.06 1.22-.06 1.83-.12.28-.06.51.1.74.22l.23-.22c.06.27.27.44.48.59v-.52l.72-.07m-4.57.47c.1.3.26.57.56.69-.07-.3-.33-.5-.56-.69m2.77.05c-.08.27.02.36.3.27.06-.28-.04-.37-.3-.27m-4.74.98c-.29.48.56.05 0 0m3.56-.04c.06.56.47-.3 0 0zM101.41 58.6c.57.01-.25.5 0 0z"/><path fill="#9bcc2e" d="M103.83 58.56c.52-.22-.03.57 0 0zM117.22 58.56c.27-.09.36 0 .28.28-.28.08-.37-.01-.28-.28zM65.43 58.95c.56-.02-.23.51 0 0z"/><path d="M110.2 58.94c.09.1.09.1 0 0z"/><path fill="#9bcc2e" d="M119.72 59.87c.35-.4.8-.68 1.28-.9.12.2.27.4.54.42l-.38.72-.32-.17c-.38.11-.75 0-1.12-.07zM44.45 59.19c.28-.09.37 0 .28.28-.28.08-.37-.01-.28-.28zM84.54 59.45c.43-.07.87-.12 1.3-.15l-.14.69.33.24c.07.3.14.62-.05.9l.33.09-.42.3c-.27-.02-.65.2-.83-.08-.2-.44-.3-.93-.42-1.4.03.52.14 1.03.21 1.54-.28.16-.51 0-.73-.16l.23-.35c-.23.14-.26.38-.26.62-.62-.04-1.24.16-1.86.13l-.11-.45.02.49-.6-.05-.28-.55-.12.62c-.3.03-.61.1-.92.05-.18-.15-.34-.32-.5-.49l.36.54c-.53.04-1.06.07-1.59.07-.11-.2-.22-.4-.35-.6-.48-.09-.62.44-.64.8-.61-.4-.29-1.6-1.23-1.65l-.09.38c.52-.14.2.21.15.39-.2-.15-.37-.54-.63-.26-.29.32.27.46.43.69a.78.78 0 0 1-.53.07l-.25.42c-.09-.33-.12-.68-.27-.99-.37-.16-.02.42-.02.58l-.28.17c0-.43-.05-.86-.12-1.3l-.15.07-.56-.68.94-.05-.5.27c.25.15.38.4.5.66.24.13.5-.05.74-.12.2-.41.67-.25.98-.51l-.65-.24-.23.33-.6-.44h1.08c.6-.12 1.2-.1 1.8-.17.55-.04 1.1-.14 1.64-.02l.17.38-.04-.55c1.34.09 2.68-.37 4-.03l.59-.2-.2.69.37-.34.35.1-.35-.45m-3.11 1.16c.08.1.08.1 0 0m-.4.34c-.07.22 0 .3.25.22.08-.23 0-.3-.24-.22zM116.6 59.38c.27-.08.36.01.26.28-.28.08-.37-.01-.26-.28zM117.82 59.44c.22-.12.65.12.6.38-.22.06-.66-.11-.6-.38zM121.69 59.39c.2-.13.4.24.23.38-.2.12-.39-.24-.23-.38zM91.96 60.48c.1-.17.17-.38.35-.49.28.12.54.28.8.42-.25.46-.77.08-1.15.07zM72.29 60.12c.23.16.34.59.65.59v-.64c.4.09.3.48.32.78l-.66.1a12.7 12.7 0 0 1-.31-.83zM97.22 60.48c.27-.08.37 0 .29.28-.28.08-.38 0-.3-.28z"/><path fill="#9bcc2e" d="M73.76 60.58c.17.24.36.47.36.78.14.3.16.6.14.93-.26.05-.52.1-.77.17l-.15.07-.23-.18-.47.2-.29-.26-.16.19a.82.82 0 0 0-.85-.37l.42.42-.7.03-.04-.8.47.16-.3-.6c.4.3.75.1 1.05-.2l-.2.57-.46-.02-.06.34c.23-.05.44 0 .62.13.39-.36.82.1 1.18.25l-.12-.26c.1.04.22.05.33.03l.12-.02.48.05-.32-.84-.48.28-.13-.5.36.11.2-.66z"/><path d="M81.43 60.6c.08.1.08.1 0 0z"/><path fill="#9bcc2e" d="M90.22 60.66c.04.04.04.04 0 0z"/><path d="M67.97 60.79c.1.09.1.09 0 0z"/><path fill="#9bcc2e" d="M71 61.1c.56.03-.27.5 0 0zM50.65 61.26c.5-.26.03.56 0 0zM49.64 61.4c.5-.28.06.57 0 0zM68.1 61.52l1.04.05-.42.35-.13.65.53-.24.11.45c-.43.06-.72-.3-1.04-.51l-.05-.26.35.02-.38-.5zM77.96 62.14c-.25-.14-.24-.28 0-.43.25.14.24.28 0 .43z"/><path d="M63.63 62c.1.08.1.08 0 0z"/><path fill="#9bcc2e" d="M11.62 62.12c.56.04-.27.5 0 0zM70.38 62.21l.37-.15.3.43-.5.23-.17-.5zM64.25 62.27c.1.1.1.1 0 0zM34.02 62.41c.23-.07.32.01.26.25-.24.07-.32-.02-.26-.25zM38.13 62.67c.31.01.77-.32.96.06l-.02.51-.75-.22-.19-.35zM63.9 62.65c.56.03-.27.5 0 0zM64.5 62.8c.11-.22.23-.2.36.01-.11.21-.23.2-.36-.02zM27.02 62.95c.07-.23.45-.07.43.13-.06.25-.44.08-.43-.13z"/><path d="M49.45 62.8c.1.08.1.08 0 0z"/><path fill="#9bcc2e" d="M65.11 62.76c.5-.27.04.56 0 0zM25.23 62.99c.2.12.2.24-.02.36-.2-.12-.2-.25.02-.36zM22.33 63.17c.56 0-.24.51 0 0zM23.2 63.12c.55.05-.29.5 0 0zM53.82 63.16c.27-.08.37.02.3.3-.28.07-.38-.03-.3-.3zM52.65 63.47c.08.1.08.1 0 0zM14.41 63.83c.56.02-.25.5 0 0zM48.97 64.48c.06.11.06.11 0 0zM28.57 65.08c.18-.15.58.06.47.3-.18.13-.58-.06-.47-.3zM22.56 65.37c.35-.08.57.22.81.4l-.53.24-.28-.64zM23.73 65.33c.5-.25 0 .56 0 0zM34.37 65.35c.13-.24.55-.06.4.2l-.34-.04z"/><path d="M10.26 66.16c.09.1.09.1 0 0z"/><path fill="#9bcc2e" d="M21.19 66.51c.1.08.1.08 0 0z"/></svg>