<svg xmlns="http://www.w3.org/2000/svg" viewBox="0 0 72 72"><rect width="72" height="72" rx="12" data-name="Layer 2"/><g data-name="Layer 1"><path d="M25.6 21.2V24c0 .2 0 .3.2.3s.2-.2.4-.5l.4-.4a.4.4 0 0 0 .2-.1.4.4 0 0 1 .3-.1c.1 0 .2.1.2.4a3.3 3.3 0 0 1 0 .4 3.5 3.5 0 0 0 0 .5c0 .2 0 .3.2.3s.1-.1.2-.4l.3-1a9.7 9.7 0 0 1 .3-.8l.3-.4c.1 0 .2.2.2.8v.7l.3-.3a6.2 6.2 0 0 1 .3-.7.7.7 0 0 1 .6-.4c.2 0 .4.2.5.6v.8l-1.7 6.7-2 9.6-1.2 8.2a6.3 6.3 0 0 1-.3 1.3c-.2.4-.4.6-.7.6s-.4-.2-.5-.6a1.8 1.8 0 0 0-.5-1.3 1.3 1.3 0 0 0-1-.5c-.1 0-.3-.2-.4-.5a7.6 7.6 0 0 1-.5-1l-.5-1.5-.5-1.7-1.4-4.5c0-.2-.2-.3-.2-.3l-.2.2-.4 1-2.3 8-.3.3q-.3 0-.3-.6v-.7s0-.3-.2-.3l-.8 1.4-.6 1a2.5 2.5 0 0 1-.3.4l-.5.3a1.7 1.7 0 0 1-.4.3l-.1-.2-.3-.7-.3-1c0-.3-.2-.5-.3-.7l-1-5.2c-.3-.8-.4-1.7-.6-2.5l-.5-2.4-.3-1.7-.5-2.6-1.1-6-.2-2a2.3 2.3 0 0 1 0-.6l.1-.5h.1l.3.3a1.3 1.3 0 0 0 .1.3h.5c.1 0 .3.4.5 1.3l.3 1 .4 1.6a10 10 0 0 0 .4 1.1c.2.3.2.3.2-.1a10.7 10.7 0 0 0 0-1.4A147 147 0 0 0 10 25a4.8 4.8 0 0 1 0-.8q0-1 .2-1c.1 0 .3.2.4.5s.2.4.4.4a.5.5 0 0 1 .4.3l.3.6a1 1 0 0 0 .3.4c.1 0 .2 0 .4-.3l.3-.5c.1 0 .2 0 .2.2a4 4 0 0 1 .2.6 4 4 0 0 0 .2.7l.6-.5a13 13 0 0 1 .4 1.8l.5 2.9c.2 0 .3-.5.6-1.3l.8-2.6 1-2.7c.3-.7.7-1.2 1-1.2l.2.2c.1.2.2.2.3.2a4.2 4.2 0 0 1 .3-.4 18.1 18.1 0 0 1 1-1s.3.1.4.4a7.7 7.7 0 0 1 .5 1l.5 1.3.4 1.3a7.3 7.3 0 0 0 .2.8l.5 1.6.4 1.6.4.7.7-3.6.4-3.2c.2-1.5.5-2.3 1-2.3a.4.4 0 0 1 .2 0Z" style="fill:#c4d8f0"/><path d="M37.3 22.8a3.3 3.3 0 0 1 .2.7l.4.5.2-.4.2-.4a1.5 1.5 0 0 0 .8.4 3.2 3.2 0 0 0 1 .2 9.3 9.3 0 0 0 1.2-.1 10.5 10.5 0 0 1 1.2 0h.5a1.7 1.7 0 0 1 .3 0 1.8 1.8 0 0 0 .4 0 1.4 1.4 0 0 0 .5-.3 1.3 1.3 0 0 1 .6-.2c.4 0 .5.6.5 1.8a.3.3 0 0 1-.1.3 3.4 3.4 0 0 1-.4.2 1.3 1.3 0 0 0-.3.2.6.6 0 0 0-.2.5 1 1 0 0 0 .6.2h.3a1 1 0 0 0 .4-.1 1.4 1.4 0 0 1 .3 0h.1v.1a1 1 0 0 1-.1.4l-.3.5-.3.5a1 1 0 0 0-.1.5 3 3 0 0 0 0 .6 5.5 5.5 0 0 1 .1 1.1q0 .2.4.4a2.8 2.8 0 0 1 .5.6.9.9 0 0 1-.2.4.9.9 0 0 0-.2.4c0 .3.5.8 1.3 1.5v.3h-.4a3.2 3.2 0 0 1-.8-.1 3 3 0 0 0-.8-.2.6.6 0 0 0-.1.4v.4a1 1 0 0 1-.3.7l-.4.4a.2.2 0 0 0 .1.1l.3.2a1.3 1.3 0 0 1 .2.1.5.5 0 0 1 .2.3v.1a3.2 3.2 0 0 1-.1.8 3 3 0 0 0-.2.7 1 1 0 0 0 .3.7v.2c0 .4-.2.6-.4.6a.5.5 0 0 0-.4.4l.7 1c0 .2-.1.3-.4.4a4 4 0 0 1-.7 0 3.7 3.7 0 0 1-.7 0l-1-.2-.8-.2H41l-.2.5v2.8l.1 1.6v3l-.2.2c-.3 0-.5-.2-.6-.5a14 14 0 0 0-.5-1.4s-.1 0-.4 0a7.1 7.1 0 0 0-1 .4 11.9 11.9 0 0 0-1.3.6 6.1 6.1 0 0 0-1.2.9c-.2 0-.3-.3-.4-.9a20.8 20.8 0 0 1 0-2V37l-.1-2.6V34q0-5.6-.3-9.4a2.3 2.3 0 0 0 0-.3 3.4 3.4 0 0 0 0-.5 2.4 2.4 0 0 1 0-.3v-.3c0-.5 0-.7.2-.6a.5.5 0 0 0 .3.2c.1 0 .3 0 .5-.3a1.6 1.6 0 0 1 .3-.2 1.5 1.5 0 0 0 .6 0c.3.1.4.3.6.5Zm3.6 9.4h-.5l-.2.2c0 .6.3.9 1 .9h.5a2 2 0 0 0 .4 0l1-.1.2-.2V33q0-.2-.2-.3a4 4 0 0 0-.7-.2h-.8a6.7 6.7 0 0 0-.7-.2Z" style="fill:#e270aa"/><path d="M55 22.6h.1a.9.9 0 0 1 .3.1.8.8 0 0 0 .3.1c.2 0 .3-.2.3-.6s0-.5.2-.6a.3.3 0 0 1 .3.2l.4.4a7.5 7.5 0 0 1 3.3.8l.2.4a4.7 4.7 0 0 0 .3.5l.5.7a12.7 12.7 0 0 0 .8 1l1.3 1.4.4.4a1.2 1.2 0 0 1 .1.3 1.2 1.2 0 0 1 .1.4l.1.7.2 1.6.2 2.9a9.2 9.2 0 0 1-.4 3 1.5 1.5 0 0 0-.2.5l-.3 1-.2 1a1.7 1.7 0 0 1-.3.6 4.4 4.4 0 0 1-1.5 2 22.2 22.2 0 0 0-3 2.5v1l.1 1.7.1 1.4v.8l-.3.4c-.1 0-.3-.2-.4-.6s-.2-.5-.3-.5a.4.4 0 0 0-.1 0 .3.3 0 0 1-.2.2.3.3 0 0 1-.2-.2L57 48a3 3 0 0 0-.2.6c-.1.4-.3.6-.4.6l-.3-.2a2.3 2.3 0 0 1-.2-.6l-.1-.6-.2-.2c-.1 0-.3.2-.5.6a1 1 0 0 1-.7.4 6.5 6.5 0 0 1-1.2.1c-.1 0-.2-.2-.2-.7a.7.7 0 0 0-.2-.5l-.4.6-.3.5H52l.2-1 .1-2.3.2-2.5v-1.4l-.1-1.7-.2-3-.1-2.8-.1-2a6.6 6.6 0 0 1 .1-1.3l-.5-7.5V22h1a3.2 3.2 0 0 1 .4.8l.2 1.1c.1.4.2.4.2.2V22.4a.6.6 0 0 1 .3.2l.2.4c0 .2.2.3.2.3s.2-.4.2-1 0-1.1.1-1.1l.3.6a5.7 5.7 0 0 0 .3.8Zm5 10L58.6 31a.5.5 0 0 0-.2-.2h-.2q-.4 0-.4 1.5v1l.1 1a7.9 7.9 0 0 0 .2.8l.1.3.3-.2a2.8 2.8 0 0 0 1.4-2.1 1 1 0 0 0 0-.3Z" style="fill:#e0bf00"/></g></svg>