<svg xmlns="http://www.w3.org/2000/svg" viewBox="0 0 72 72"><defs><style>.cls-1{fill:#c4d8f0;}.cls-2{fill:#e270aa;}.cls-3{fill:#e0bf00;}</style></defs><g id="Layer_2" data-name="Layer 2"><rect width="72" height="72" rx="12"/></g><g id="Layer_1" data-name="Layer 1"><path class="cls-1" d="M25.63,21.18,25.51,24c.09.17.18.25.27.25s.2-.14.4-.42.34-.42.4-.42h.05a.4.4,0,0,0,.22-.12.44.44,0,0,1,.22-.13c.14,0,.2.14.2.42a3.31,3.31,0,0,1-.05.46,3.47,3.47,0,0,0,0,.46c0,.22.1.34.3.34h.05s.08-.14.17-.42.17-.6.28-.95a9.73,9.73,0,0,1,.32-.92c.1-.26.2-.39.28-.39s.15.28.15.83,0,.72.07.72.12-.11.22-.32a6.2,6.2,0,0,1,.38-.69.65.65,0,0,1,.53-.38c.26,0,.44.21.53.63l-.09.8-1.57,6.7L26.71,40,25.6,48.24a6.35,6.35,0,0,1-.33,1.29c-.13.37-.35.55-.65.55s-.44-.2-.53-.59a1.83,1.83,0,0,0-.46-1.32,1.31,1.31,0,0,0-1-.48c-.15,0-.31-.15-.47-.44a7.62,7.62,0,0,1-.48-1.11c-.15-.44-.31-.94-.47-1.48s-.33-1.09-.49-1.62l-1.43-4.52c-.08-.22-.16-.34-.24-.34s-.15.07-.2.21l-.39,1-2.3,8-.24.29a.11.11,0,0,1-.1,0q-.27,0-.24-.54c0-.36,0-.6,0-.71s-.07-.3-.22-.3h0c-.33.56-.59,1-.78,1.36s-.39.67-.57,1a2.47,2.47,0,0,1-.29.42c-.1,0-.26.1-.49.31a1.69,1.69,0,0,1-.39.31s-.09-.09-.16-.27-.16-.41-.26-.69-.2-.57-.3-.88-.2-.57-.29-.79l-1.1-5.16c-.19-.89-.38-1.75-.55-2.59l-.48-2.39c-.08-.36-.18-.91-.31-1.63s-.31-1.62-.52-2.68L7.77,26.54l-.14-2a2.29,2.29,0,0,1,0-.63c0-.22.08-.39.11-.5h.08q.12,0,.24.27a1.26,1.26,0,0,0,.17.32l.49,0c.09,0,.23.43.45,1.3,0,.16.14.51.29,1s.3,1.05.45,1.55a9.94,9.94,0,0,0,.43,1.17c.13.28.2.23.2-.16a10.73,10.73,0,0,0-.1-1.34c-.07-.48-.14-.94-.21-1.39s-.14-.83-.21-1.17a4.85,4.85,0,0,1-.1-.75q0-1.05.27-1c.15,0,.29.15.41.46s.25.46.38.46a.48.48,0,0,1,.41.3c.12.19.23.39.33.58a1,1,0,0,0,.31.38c.1.06.22-.06.37-.34s.23-.42.32-.44.15.06.2.21a4,4,0,0,1,.16.59,4,4,0,0,0,.22.69h.05c.08,0,.26-.18.52-.54a13.09,13.09,0,0,1,.43,1.88c.17,1,.35,1.91.55,2.81h0c.11,0,.29-.41.55-1.22s.53-1.7.84-2.68.63-1.87,1-2.68.62-1.21.88-1.21c.08,0,.18.07.31.21s.21.21.28.21a4.17,4.17,0,0,1,.25-.34c.16-.2.34-.42.56-.67s.36-.38.46-.38.28.14.44.41a7.68,7.68,0,0,1,.5,1c.18.41.34.85.51,1.33s.3.91.41,1.3a7.34,7.34,0,0,0,.19.81q.18.73.42,1.59c.17.58.33,1.1.48,1.58s.27.71.33.71h.05c.12,0,.33-1.22.64-3.65l.41-3.14c.23-1.53.58-2.3,1-2.3A.37.37,0,0,1,25.63,21.18Z" transform="translate(0 0)"/><path class="cls-2" d="M37.26,22.81a3.26,3.26,0,0,1,.27.65c.13.38.24.57.32.57h0q.12,0,.27-.42c.1-.28.17-.42.22-.42a1.54,1.54,0,0,0,.72.46,3.16,3.16,0,0,0,1,.13,9.34,9.34,0,0,0,1.26-.09,10.52,10.52,0,0,1,1.21-.08H43a1.69,1.69,0,0,1,.34,0,1.77,1.77,0,0,0,.35,0,1.42,1.42,0,0,0,.55-.21,1.32,1.32,0,0,1,.55-.21c.36,0,.54.62.54,1.85a.29.29,0,0,1-.15.23,3.37,3.37,0,0,1-.34.21,1.31,1.31,0,0,0-.35.27.64.64,0,0,0-.14.42,1,1,0,0,0,.58.21h.3a1,1,0,0,0,.35-.09,1.4,1.4,0,0,1,.36-.08H46s0,.07,0,.21a.93.93,0,0,1-.13.38c-.08.16-.17.34-.28.52s-.2.36-.28.52a1,1,0,0,0-.12.42,3,3,0,0,0,.07.61A5.52,5.52,0,0,1,45.35,30q0,.16.33.42a2.82,2.82,0,0,1,.55.54.89.89,0,0,1-.2.4.87.87,0,0,0-.2.48c0,.31.43.8,1.28,1.47l0,.33s0,0-.12,0h-.24a3.18,3.18,0,0,1-.85-.16,2.91,2.91,0,0,0-.84-.17.56.56,0,0,0-.1.4c0,.12,0,.25,0,.39a1.07,1.07,0,0,1-.29.65c-.2.24-.3.37-.32.4a.17.17,0,0,0,.07.19l.24.13a1.28,1.28,0,0,1,.27.16.53.53,0,0,1,.18.32v.08a3.19,3.19,0,0,1-.15.82,3.05,3.05,0,0,0-.14.69,1.07,1.07,0,0,0,.24.71v.13c0,.39-.11.6-.32.62a.48.48,0,0,0-.41.38c0,.17.22.52.68,1.05,0,.19-.13.32-.4.38a4.06,4.06,0,0,1-.73.08,3.68,3.68,0,0,1-.64-.08l-1-.21-.83-.17-.32-.07-.17,0-.22.51c0,.33,0,.76,0,1.27s0,1,.06,1.6,0,1.06.07,1.57,0,.9,0,1.21c0,.59,0,1.17-.07,1.76-.08.14-.15.21-.2.21-.24,0-.42-.17-.52-.52a14,14,0,0,0-.51-1.32s-.18,0-.45,0a7.11,7.11,0,0,0-1,.31,11.89,11.89,0,0,0-1.26.61,6.13,6.13,0,0,0-1.24.92c-.18,0-.3-.29-.35-.88a20.76,20.76,0,0,1-.09-2.09c0-1,0-1.93.06-3s.06-1.84.06-2.49c0-1,0-2-.05-2.93s-.08-1.8-.14-2.64l.07-.42q0-5.65-.37-9.46a2.31,2.31,0,0,0,0-.32,3.4,3.4,0,0,0,0-.44,2.36,2.36,0,0,1,0-.35v-.23c0-.53.06-.73.19-.61a.5.5,0,0,0,.38.19c.08,0,.22-.09.44-.27a1.55,1.55,0,0,1,.36-.27,1.46,1.46,0,0,0,.53.06C37,22.44,37.13,22.56,37.26,22.81Zm3.63,9.43h-.54l-.15.16v.09c0,.53.31.79.93.79h.58a2,2,0,0,0,.35,0l1-.08.27-.17v-.17q0-.16-.27-.27a3.91,3.91,0,0,0-.64-.17l-.78-.1A6.71,6.71,0,0,0,40.89,32.24Z" transform="translate(0 0)"/><path class="cls-3" d="M55,22.65h.1a.86.86,0,0,1,.31.08.78.78,0,0,0,.3.08c.18,0,.28-.18.29-.56s.08-.59.18-.65h.05a.33.33,0,0,1,.31.17l.32.42a7.45,7.45,0,0,1,3.33.83c.08.12.16.24.24.38a4.71,4.71,0,0,0,.29.48c.12.18.28.41.49.69a12.66,12.66,0,0,0,.84,1L63.25,27l.4.44a1.17,1.17,0,0,1,.2.29,1.2,1.2,0,0,1,.08.36c0,.14,0,.36.08.67l.17,1.63c.16,1.4.24,2.36.24,2.89a9.17,9.17,0,0,1-.46,3,1.54,1.54,0,0,0-.18.52c-.07.3-.16.62-.25,1s-.17.69-.26,1a1.66,1.66,0,0,1-.26.59,4.44,4.44,0,0,1-1.56,2.09,22.19,22.19,0,0,0-2.93,2.39c0,.22,0,.56,0,1s.07,1,.12,1.68l.1,1.42c0,.23,0,.4,0,.53s0,.21,0,.27c-.16.28-.29.42-.37.42h0c-.11,0-.24-.18-.37-.55s-.23-.54-.29-.54a.36.36,0,0,0-.15.08.28.28,0,0,1-.17.09.35.35,0,0,1-.22-.13C57.13,48,57.08,48,57,48H57a3,3,0,0,0-.22.62c-.13.42-.25.63-.34.63s-.24-.08-.32-.25a2.27,2.27,0,0,1-.2-.59c0-.22-.1-.41-.15-.58s-.11-.25-.2-.25-.28.22-.46.67a1,1,0,0,1-.74.39,6.47,6.47,0,0,1-1.18.11c-.13,0-.2-.24-.2-.71a.71.71,0,0,0-.17-.51h0c-.13,0-.26.18-.38.53s-.23.52-.33.52H52c.05,0,.1-.34.16-1s.12-1.45.19-2.3.11-1.67.15-2.45.07-1.25.07-1.42-.11-.87-.18-1.76-.12-1.85-.18-2.87-.11-2-.15-2.91S52,32.27,52,31.9a6.57,6.57,0,0,1,.1-1.34l-.54-7.45V22l1-.09a3.23,3.23,0,0,1,.39.93l.29,1.08c.08.37.14.42.16.17s0-.7,0-1.34c0-.28,0-.41.07-.4a.57.57,0,0,1,.19.21l.24.44c.09.17.17.25.23.25s.18-.34.18-1,0-1.05.14-1.05.17.19.26.57A5.74,5.74,0,0,0,55,22.65Zm5,10L58.6,30.9a.48.48,0,0,0-.22-.21l-.18,0q-.36,0-.36,1.5c0,.28,0,.6,0,1s0,.68.09,1a7.89,7.89,0,0,0,.13.8c.05.21.11.31.17.31l.27-.21a2.79,2.79,0,0,0,1.42-2.09A.94.94,0,0,0,59.92,32.66Z" transform="translate(0 0)"/></g></svg>