<?xml version="1.0" encoding="utf-8"?>
<!-- Generator: Adobe Illustrator 26.1.0, SVG Export Plug-In . SVG Version: 6.00 Build 0)  -->
<svg version="1.1" xmlns="http://www.w3.org/2000/svg" xmlns:xlink="http://www.w3.org/1999/xlink" x="0px" y="0px"
	 viewBox="0 0 1710 1710" style="enable-background:new 0 0 1710 1710;" xml:space="preserve">
<style type="text/css">
	.st0{display:none;}
	.st1{display:inline;}
	.st2{fill:#FFFFFF;stroke:#000000;stroke-width:23;stroke-linecap:round;stroke-miterlimit:10;}
	.st3{fill:#C4D8F0;}
	.st4{fill:#E270AA;}
	.st5{fill:#E0BF00;}
</style>
<g id="Layer_3" class="st0">
</g>
<g id="Layer_4" class="st0">
	<rect class="st1" width="1710" height="1710"/>
</g>
<g id="Layer_5">
	<circle cx="855" cy="855" r="855"/>
</g>
<g id="Layer_1" class="st0">
	<g id="_x23_ffffffff" class="st1">
		<path class="st2" d="M222.8,584.7c6.1,0.1,12.3-0.3,18.4,0.5c44.8,0,89.7,0,134.5,0c7.8,79.6,15.8,159.2,23.5,238.9
			c0.3-0.1,1-0.4,1.3-0.6c7.6-59.5,14.7-119,22.2-178.4c0.3-2,0.5-4.1,0.2-6.2c-4.7-0.4-9.3-1.3-14-1.9c5-0.8,10.1-1.3,15.1-2.4
			c0.3-2,0.6-4.1,0.8-6.1c-8.6-2.2-17.6-2.5-26.3-4.4c9.1-1,18.1-2.5,27.2-3.8c0.2-1.4,0.5-2.8,0.8-4.2c-0.1-0.6-0.3-1.8-0.4-2.4
			c-10.1-1.4-20.2-2.9-30.3-4.4c-4.5-1.2-9-1.8-13.5-2.2c4.4-0.7,8.8-1.3,13.1-2.4c10.9-1.8,21.9-3,32.8-5c1.4-4.8,1.3-10,1.7-15
			c40.3,0.4,80.6,0.2,121,0.1c1.4,4.3,1.3,9,2.2,13.4c9.7,1.8,19.5,2.3,29.2,3.9c7.4,1.1,14.7,2.1,22.1,3.3c0.5-7,1.7-13.8,1.9-20.8
			c50.3,0.4,100.7,0.1,151.1,0.2c-2,21.8-5.1,43.5-7.5,65.2c-10.9,92.3-21.8,184.5-32.7,276.8c-3.5,30.2-7.3,60.3-10.6,90.5
			c9.7,2.8,19.7,4,29.4,6.6c-10.5,2.5-21.3,4.4-31.6,7.8l1,1.2c13.9,3.8,28,6.6,42,9.7c-13.8,2.8-27.5,5.9-41.1,9.5
			c1.4,1.3,3.4,1.4,5.2,1.9c9,2.1,18,4.2,27,6.3c7.2,1,14.2,3,21.2,4.6c-8,1.8-16,4-24.1,5.3c-12.1,2.9-24.3,5.5-36.3,8.6
			c-1.8,15.3-3.6,30.7-5.4,46c-52.1,0-104.2,0-156.3,0c-7.4-0.2-14.7,0.8-22.1,0.4c-5.4-48.7-10.9-97.4-16.3-146.1
			c-1.7-22.5-4.8-44.9-7.1-67.3c-0.1-2.2-0.7-4.4-1.4-6.5c-8.5,73.1-16.4,146.3-24.6,219.4c-54.1,0.1-108.3,0-162.4,0.1
			c-4.8,0.5-9.6,0.4-14.3,0.4c-3.4-27.7-6.8-55.4-10.2-83.1c-1-6.1-0.6-12.3-2.1-18.2c-24.9-4.1-49.7-8.3-74.6-12.4
			c-19.6-3.2-39.2-6.9-58.9-9.5c-12.9-2.2-25.9-4.3-38.8-6.6c12.8-2.2,25.7-4.3,38.6-6.5c17.5-2.1,34.9-5.6,52.3-8.4
			c24.8-4.1,49.6-8.4,74.5-12.4c0.2-5.8-1.7-11.3-2.2-17c-1-7.2-1.2-14.4-2.2-21.6c-17.3-2.6-34.6-4.3-51.9-6.6
			c-33.6-4.1-67.2-8.3-100.9-12.4c-10.2-1.1-20.3-2.8-30.5-3.4c-18.6-2.3-37.2-4.6-55.9-6.9c21-2.5,42-5.6,63-7.4
			c56.2-6.9,112.5-13.8,168.7-20.7c0.4-6.9-2.4-13.4-2.2-20.2c-0.2-3.6-0.9-7.1-1.2-10.6c-0.6-0.1-1.7-0.4-2.2-0.5
			c-61.7-7.1-123.5-14.2-185.2-21.3c-11.3-1.2-22.6-2.9-33.9-3.5c-19.9-2.3-39.7-4.5-59.6-6.9c19.2-2.3,38.5-4.5,57.7-6.7
			c8.3-0.3,16.5-1.6,24.7-2.5c63.5-7.2,127-14.7,190.5-21.8c-0.5-7.6-1.6-15.1-2.8-22.6c-34.5-4.6-69-9.2-103.5-13.9
			c-20.5-2.6-41-5.9-61.6-7.9c-15.9-2.1-31.9-4.3-47.8-6.4c19.8-2.6,39.5-5.7,59.3-7.6c48.9-6.5,97.8-13.2,146.7-19.6
			c0.2-4.8-1-9.5-1.5-14.3c-25.7-6-51.4-11.9-77.1-17.9c-7.4-1.6-14.7-3.7-22.2-4.8c-10.6-2.5-21.2-4.9-31.8-7.4
			c12.7-2.8,25.2-6.2,38-8.4c26.3-6.1,52.7-12.2,79-18.4c2.2-0.6,4.6-0.8,6.8-1.8c0-4-0.8-8-1.6-12C225.2,605,224,594.9,222.8,584.7
			 M554.8,612.6c0.3,2.6,0.7,5.2,1.1,7.7c9.6,1.4,19.1,3,28.7,4.1c-9.2,1.6-18.5,2.6-27.7,4.3c0.2,1.6,0.5,3.2,0.7,4.8
			c4.7,0.8,9.4,1.6,14.2,2.2c-4.5,0.6-9,1.2-13.5,2c1.9,18.5,4.8,36.9,7.1,55.3c5.8,43.4,11.5,86.7,17.2,130.1
			c0.1,1.9,0.9,3.6,1.6,5.3c3.5-40.8,7.4-81.5,11.1-122.3c2.9-33.5,6.5-67,8.8-100.5C587.7,608.2,571.1,609.6,554.8,612.6z"/>
		<path class="st2" d="M781.5,584.7c5.6,0,11.2-0.3,16.8,0.5c98.7,0.1,197.4-0.1,296.2,0.1c0.1,46.1-0.1,92.2,0.1,138.2
			c-2.6,1.2-5.6,0.5-8.3,0.6c-44.5,0.1-88.9-0.2-133.4,0.1c0,4.2-0.1,8.5,0.1,12.7c10.5,2.3,21,4.9,31.5,7.3
			c7.7,1.1,15.2,3.3,22.8,4.9c-6,1.4-12,3-18.2,3.9c-10.5,2.7-21.3,4.5-31.7,7.8c10.1,2.8,20.4,5,30.6,7.2
			c-11.6,3.2-23.5,5.4-35.1,8.5c0,7.2-0.1,14.4,0.1,21.5c41.3,0.1,82.6,0,123.9,0c0,46.1,0,92.2,0,138.3
			c-41.3,0.1-82.6-0.1-123.9,0.1c-0.2,62.7,0,125.4-0.1,188.1c-49.2,0-98.4,0-147.5,0c-7.9-0.2-15.8,0.8-23.8,0.4
			C781.5,945.1,781.5,764.9,781.5,584.7z"/>
		<path class="st2" d="M1127.9,584.7c5.4,0.1,10.9-0.3,16.3,0.5c58.7,0.1,117.4,0,176.1,0c23-0.3,46.1,2,68.4,7.7
			c21.3,5.5,41.9,14.6,59,28.7c2.4,1.9,4.3,4.6,7.6,4.8c42.4,9.6,84.6,20,127.1,29.1c2.5,0.6,5,1.2,7.6,1.8
			c-12.8,3.2-25.8,5.5-38.6,8.6c-21.2,5-42.5,9.8-63.8,14.9c3,9.4,5.2,18.9,7.1,28.6c37.5,5,75,10,112.4,15.1
			c7.9,1.3,16,1.6,23.9,2.8c9.8,1.3,19.5,2.6,29.3,4c-11.8,1.6-23.5,3.1-35.3,4.8c-20,1.9-39.9,5.1-59.8,7.6
			c-22.5,3.1-45.1,6-67.6,9.1c-0.3,12,0,24-0.1,35.9c5.5,1.3,11.2,1.4,16.8,2.2c48.2,5.6,96.5,11.1,144.7,16.6
			c10.8,1.1,21.6,2.9,32.5,3.3c14.5,1.7,29.1,3.3,43.6,5c-14.3,1.7-28.5,3.3-42.8,5c-22.1,1.8-44.1,4.9-66.2,7.3
			c-43.5,4.9-86.9,10.2-130.4,14.8c-1.8,8.5-2.9,17.2-5.4,25.6c-0.9,3.6-2.3,7.1-3,10.8c44.1,6,88.2,11.8,132.3,17.8
			c16.5,1.8,33,3.9,49.5,6.3c-11.6,1.5-23.2,3.1-34.8,4.7c-20.6,2-41,5.3-61.5,7.8c-39.5,5.3-79.1,10.6-118.6,15.9
			c-13.9,13.2-30.8,23-48.8,29.4c-4.7,1.9-9.6,2.9-14.2,4.9c7,1.8,14.3,2.3,21.5,3.6c45.9,6.9,91.7,13.8,137.6,20.8
			c13.3,1.3,26.5,3.7,39.7,5.6c-10.2,1.6-20.4,3.1-30.5,4.6c-19.2,2.2-38.2,5.6-57.3,8.3c-44.3,6.7-88.6,13.4-132.9,20.1
			c-23.3,3.6-46.8,6.8-70.1,10.7c0,28.4,0,56.8,0,85.2c-51.6,0-103.2,0-154.8,0c-5.4,0.5-10.9,0.5-16.4,0.4
			C1127.8,945.1,1127.8,764.9,1127.9,584.7 M1298.9,715.6c0.2,11,0,21.9,0.1,32.9c0.2,0.2,0.6,0.7,0.7,1c10.3,2.9,20.9,4.2,31.2,7
			c-0.3-5.2,0.8-10.3,0.4-15.5c-1-6.6,0-14.1-4.4-19.7c-3.7-5.2-10.6-6.7-16.7-6.4C1306.5,715.2,1302.5,714.1,1298.9,715.6
			 M1301.1,764.7c-2.4-0.1-3.2,3.8-0.8,4.4c5.8,1.4,11.6,2.7,17.4,4.1c-6.1,1.8-12.5,2.8-18.6,4.6c0,22.2-0.1,44.4,0,66.6
			c5.8,0.1,11.6,0.3,17.3-0.1c6.8-0.7,12.6-6.3,13.6-13c1.7-8.6,0.8-17.4,1-26.2c0.2-11.7-0.4-23.4,0.5-35
			c-0.3-3.9-0.6-7.9-0.4-11.8C1320.9,759.5,1311.1,762.6,1301.1,764.7z"/>
	</g>
</g>
<g id="Layer_2">
	<g id="_x23_ffffffff_00000090262435205647325090000007237960077086418872_">
		<path class="st3" d="M222.8,584.7c6.1,0.1,12.3-0.3,18.4,0.5c44.8,0,89.7,0,134.5,0c7.8,79.6,15.8,159.2,23.5,238.9
			c0.3-0.1,1-0.4,1.3-0.6c7.6-59.5,14.7-119,22.2-178.4c0.3-2,0.5-4.1,0.2-6.2c-4.7-0.4-9.3-1.3-14-1.9c5-0.8,10.1-1.3,15.1-2.4
			c0.3-2,0.6-4.1,0.8-6.1c-8.6-2.2-17.6-2.5-26.3-4.4c9.1-1,18.1-2.5,27.2-3.8c0.2-1.4,0.5-2.8,0.8-4.2c-0.1-0.6-0.3-1.8-0.4-2.4
			c-10.1-1.4-20.2-2.9-30.3-4.4c-4.5-1.2-9-1.8-13.5-2.2c4.4-0.7,8.8-1.3,13.1-2.4c10.9-1.8,21.9-3,32.8-5c1.4-4.8,1.3-10,1.7-15
			c40.3,0.4,80.6,0.2,121,0.1c1.4,4.3,1.3,9,2.2,13.4c9.7,1.8,19.5,2.3,29.2,3.9c7.4,1.1,14.7,2.1,22.1,3.3c0.5-7,1.7-13.8,1.9-20.8
			c50.3,0.4,100.7,0.1,151.1,0.2c-2,21.8-5.1,43.5-7.5,65.2c-10.9,92.3-21.8,184.5-32.7,276.8c-3.5,30.2-7.3,60.3-10.6,90.5
			c9.7,2.8,19.7,4,29.4,6.6c-10.5,2.5-21.3,4.4-31.6,7.8l1,1.2c13.9,3.8,28,6.6,42,9.7c-13.8,2.8-27.5,5.9-41.1,9.5
			c1.4,1.3,3.4,1.4,5.2,1.9c9,2.1,18,4.2,27,6.3c7.2,1,14.2,3,21.2,4.6c-8,1.8-16,4-24.1,5.3c-12.1,2.9-24.3,5.5-36.3,8.6
			c-1.8,15.3-3.6,30.7-5.4,46c-52.1,0-104.2,0-156.3,0c-7.4-0.2-14.7,0.8-22.1,0.4c-5.4-48.7-10.9-97.4-16.3-146.1
			c-1.7-22.5-4.8-44.9-7.1-67.3c-0.1-2.2-0.7-4.4-1.4-6.5c-8.5,73.1-16.4,146.3-24.6,219.4c-54.1,0.1-108.3,0-162.4,0.1
			c-4.8,0.5-9.6,0.4-14.3,0.4c-3.4-27.7-6.8-55.4-10.2-83.1c-1-6.1-0.6-12.3-2.1-18.2c-24.9-4.1-49.7-8.3-74.6-12.4
			c-19.6-3.2-39.2-6.9-58.9-9.5c-12.9-2.2-25.9-4.3-38.8-6.6c12.8-2.2,25.7-4.3,38.6-6.5c17.5-2.1,34.9-5.6,52.3-8.4
			c24.8-4.1,49.6-8.4,74.5-12.4c0.2-5.8-1.7-11.3-2.2-17c-1-7.2-1.2-14.4-2.2-21.6c-17.3-2.6-34.6-4.3-51.9-6.6
			c-33.6-4.1-67.2-8.3-100.9-12.4c-10.2-1.1-20.3-2.8-30.5-3.4c-18.6-2.3-37.2-4.6-55.9-6.9c21-2.5,42-5.6,63-7.4
			c56.2-6.9,112.5-13.8,168.7-20.7c0.4-6.9-2.4-13.4-2.2-20.2c-0.2-3.6-0.9-7.1-1.2-10.6c-0.6-0.1-1.7-0.4-2.2-0.5
			c-61.7-7.1-123.5-14.2-185.2-21.3c-11.3-1.2-22.6-2.9-33.9-3.5c-19.9-2.3-39.7-4.5-59.6-6.9c19.2-2.3,38.5-4.5,57.7-6.7
			c8.3-0.3,16.5-1.6,24.7-2.5c63.5-7.2,127-14.7,190.5-21.8c-0.5-7.6-1.6-15.1-2.8-22.6c-34.5-4.6-69-9.2-103.5-13.9
			c-20.5-2.6-41-5.9-61.6-7.9c-15.9-2.1-31.9-4.3-47.8-6.4c19.8-2.6,39.5-5.7,59.3-7.6c48.9-6.5,97.8-13.2,146.7-19.6
			c0.2-4.8-1-9.5-1.5-14.3c-25.7-6-51.4-11.9-77.1-17.9c-7.4-1.6-14.7-3.7-22.2-4.8c-10.6-2.5-21.2-4.9-31.8-7.4
			c12.7-2.8,25.2-6.2,38-8.4c26.3-6.1,52.7-12.2,79-18.4c2.2-0.6,4.6-0.8,6.8-1.8c0-4-0.8-8-1.6-12C225.2,605,224,594.9,222.8,584.7
			 M554.8,612.6c0.3,2.6,0.7,5.2,1.1,7.7c9.6,1.4,19.1,3,28.7,4.1c-9.2,1.6-18.5,2.6-27.7,4.3c0.2,1.6,0.5,3.2,0.7,4.8
			c4.7,0.8,9.4,1.6,14.2,2.2c-4.5,0.6-9,1.2-13.5,2c1.9,18.5,4.8,36.9,7.1,55.3c5.8,43.4,11.5,86.7,17.2,130.1
			c0.1,1.9,0.9,3.6,1.6,5.3c3.5-40.8,7.4-81.5,11.1-122.3c2.9-33.5,6.5-67,8.8-100.5C587.7,608.2,571.1,609.6,554.8,612.6z"/>
		<path class="st4" d="M781.5,584.7c5.6,0,11.2-0.3,16.8,0.5c98.7,0.1,197.4-0.1,296.2,0.1c0.1,46.1-0.1,92.2,0.1,138.2
			c-2.6,1.2-5.6,0.5-8.3,0.6c-44.5,0.1-88.9-0.2-133.4,0.1c0,4.2-0.1,8.5,0.1,12.7c10.5,2.3,21,4.9,31.5,7.3
			c7.7,1.1,15.2,3.3,22.8,4.9c-6,1.4-12,3-18.2,3.9c-10.5,2.7-21.3,4.5-31.7,7.8c10.1,2.8,20.4,5,30.6,7.2
			c-11.6,3.2-23.5,5.4-35.1,8.5c0,7.2-0.1,14.4,0.1,21.5c41.3,0.1,82.6,0,123.9,0c0,46.1,0,92.2,0,138.3
			c-41.3,0.1-82.6-0.1-123.9,0.1c-0.2,62.7,0,125.4-0.1,188.1c-49.2,0-98.4,0-147.5,0c-7.9-0.2-15.8,0.8-23.8,0.4
			C781.5,945.1,781.5,764.9,781.5,584.7z"/>
		<path class="st5" d="M1127.9,584.7c5.4,0.1,10.9-0.3,16.3,0.5c58.7,0.1,117.4,0,176.1,0c23-0.3,46.1,2,68.4,7.7
			c21.3,5.5,41.9,14.6,59,28.7c2.4,1.9,4.3,4.6,7.6,4.8c42.4,9.6,84.6,20,127.1,29.1c2.5,0.6,5,1.2,7.6,1.8
			c-12.8,3.2-25.8,5.5-38.6,8.6c-21.2,5-42.5,9.8-63.8,14.9c3,9.4,5.2,18.9,7.1,28.6c37.5,5,75,10,112.4,15.1
			c7.9,1.3,16,1.6,23.9,2.8c9.8,1.3,19.5,2.6,29.3,4c-11.8,1.6-23.5,3.1-35.3,4.8c-20,1.9-39.9,5.1-59.8,7.6
			c-22.5,3.1-45.1,6-67.6,9.1c-0.3,12,0,24-0.1,35.9c5.5,1.3,11.2,1.4,16.8,2.2c48.2,5.6,96.5,11.1,144.7,16.6
			c10.8,1.1,21.6,2.9,32.5,3.3c14.5,1.7,29.1,3.3,43.6,5c-14.3,1.7-28.5,3.3-42.8,5c-22.1,1.8-44.1,4.9-66.2,7.3
			c-43.5,4.9-86.9,10.2-130.4,14.8c-1.8,8.5-2.9,17.2-5.4,25.6c-0.9,3.6-2.3,7.1-3,10.8c44.1,6,88.2,11.8,132.3,17.8
			c16.5,1.8,33,3.9,49.5,6.3c-11.6,1.5-23.2,3.1-34.8,4.7c-20.6,2-41,5.3-61.5,7.8c-39.5,5.3-79.1,10.6-118.6,15.9
			c-13.9,13.2-30.8,23-48.8,29.4c-4.7,1.9-9.6,2.9-14.2,4.9c7,1.8,14.3,2.3,21.5,3.6c45.9,6.9,91.7,13.8,137.6,20.8
			c13.3,1.3,26.5,3.7,39.7,5.6c-10.2,1.6-20.4,3.1-30.5,4.6c-19.2,2.2-38.2,5.6-57.3,8.3c-44.3,6.7-88.6,13.4-132.9,20.1
			c-23.3,3.6-46.8,6.8-70.1,10.7c0,28.4,0,56.8,0,85.2c-51.6,0-103.2,0-154.8,0c-5.4,0.5-10.9,0.5-16.4,0.4
			C1127.8,945.1,1127.8,764.9,1127.9,584.7 M1298.9,715.6c0.2,11,0,21.9,0.1,32.9c0.2,0.2,0.6,0.7,0.7,1c10.3,2.9,20.9,4.2,31.2,7
			c-0.3-5.2,0.8-10.3,0.4-15.5c-1-6.6,0-14.1-4.4-19.7c-3.7-5.2-10.6-6.7-16.7-6.4C1306.5,715.2,1302.5,714.1,1298.9,715.6
			 M1301.1,764.7c-2.4-0.1-3.2,3.8-0.8,4.4c5.8,1.4,11.6,2.7,17.4,4.1c-6.1,1.8-12.5,2.8-18.6,4.6c0,22.2-0.1,44.4,0,66.6
			c5.8,0.1,11.6,0.3,17.3-0.1c6.8-0.7,12.6-6.3,13.6-13c1.7-8.6,0.8-17.4,1-26.2c0.2-11.7-0.4-23.4,0.5-35
			c-0.3-3.9-0.6-7.9-0.4-11.8C1320.9,759.5,1311.1,762.6,1301.1,764.7z"/>
	</g>
</g>
</svg>
