<?xml version="1.0" encoding="utf-8"?>
<!-- Generator: Adobe Illustrator 28.1.0, SVG Export Plug-In . SVG Version: 6.00 Build 0)  -->
<svg version="1.1" id="Layer_2_00000094581243401944777510000017276607788502879617_"
	 xmlns="http://www.w3.org/2000/svg" xmlns:xlink="http://www.w3.org/1999/xlink" x="0px" y="0px" viewBox="0 0 1440 1440"
	 style="enable-background:new 0 0 1440 1440;" xml:space="preserve">
<style type="text/css">
	.st0{fill-rule:evenodd;clip-rule:evenodd;fill:#FFFFFF;}
</style>
<path class="st0" d="M720.6,0C322.1,0,0,324.5,0,725.9c0,320.9,206.4,592.5,492.7,688.7c35.8,7.2,48.9-15.6,48.9-34.8
	c0-16.8-1.2-74.5-1.2-134.6c-200.5,43.3-242.2-86.5-242.2-86.5c-32.2-84.1-79.9-105.8-79.9-105.8c-65.6-44.5,4.8-44.5,4.8-44.5
	c72.8,4.8,111,74.5,111,74.5c64.4,110.6,168.2,79.3,210,60.1c6-46.9,25.1-79.3,45.3-97.3c-159.9-16.8-328.1-79.3-328.1-358.2
	c0-79.3,28.6-144.2,74-194.7c-7.2-18-32.2-92.6,7.2-192.3c0,0,60.8-19.2,198,74.5c58.7-15.9,119.3-24,180.2-24
	c60.8,0,122.9,8.4,180.1,24c137.2-93.8,198-74.5,198-74.5c39.4,99.8,14.3,174.3,7.2,192.3c46.5,50.5,74,115.4,74,194.7
	c0,278.8-168.2,340.1-329.3,358.2c26.3,22.8,48.9,66.1,48.9,134.6c0,97.3-1.2,175.5-1.2,199.5c0,19.2,13.1,42.1,48.9,34.9
	c286.3-96.2,492.7-367.8,492.7-688.7C1441.2,324.5,1117.9,0,720.6,0z"/>
</svg>
