<?xml version="1.0" encoding="UTF-8" ?>
<!DOCTYPE svg PUBLIC "-//W3C//DTD SVG 1.1//EN" "http://www.w3.org/Graphics/SVG/1.1/DTD/svg11.dtd">
<svg width="256pt" height="256pt" viewBox="0 0 256 256" version="1.1" xmlns="http://www.w3.org/2000/svg">
<g id="#db2f12ff">
<path fill="#db2f12" stroke="#db2f12" stroke-width="0.09375" opacity="1.00" d=" M 0.00 0.00 L 33.78 0.00 C 36.56 7.13 37.65 14.75 39.91 22.04 C 41.25 25.88 40.32 29.95 39.88 33.86 C 39.25 39.60 41.83 45.08 41.39 50.81 C 42.42 52.71 43.43 54.63 44.14 56.68 C 44.16 58.70 44.07 60.73 43.89 62.74 C 43.20 62.49 42.50 60.82 41.78 61.83 C 41.15 63.04 40.80 64.38 40.36 65.67 C 39.30 66.39 38.25 67.09 37.19 67.80 C 37.29 66.91 37.40 66.02 37.50 65.13 C 33.76 60.92 27.85 62.94 23.30 60.64 C 23.05 60.65 22.54 60.68 22.29 60.69 C 19.18 58.79 15.77 57.47 12.23 56.62 C 11.35 57.44 10.47 58.26 9.58 59.08 C 9.41 58.13 9.06 56.22 8.89 55.26 C 6.11 56.11 7.19 59.28 6.88 61.44 C 6.32 61.40 5.75 61.36 5.19 61.32 C 5.06 62.37 4.94 63.42 4.81 64.48 C 3.82 64.00 2.93 62.84 1.72 63.25 C 1.00 64.96 0.47 66.75 0.00 68.55 L 0.00 0.00 M 5.05 30.95 C 7.94 31.46 9.75 28.91 11.22 26.89 C 8.88 26.93 4.52 28.08 5.05 30.95 M 16.51 56.19 C 17.76 57.01 19.13 57.60 20.55 58.05 C 20.52 57.61 20.48 56.73 20.45 56.29 C 21.61 56.07 22.76 55.85 23.91 55.65 C 23.61 55.30 23.00 54.59 22.70 54.24 C 20.61 54.82 18.54 55.46 16.51 56.19 M 39.18 56.48 C 38.10 57.85 40.47 59.73 41.70 58.65 C 42.58 57.32 40.39 55.55 39.18 56.48 Z" />
</g>
<g id="#e35924ff">
<path fill="#e35924" stroke="#e35924" stroke-width="0.09375" opacity="1.00" d=" M 33.78 0.00 L 177.50 0.00 C 178.65 0.46 179.80 0.94 180.94 1.43 C 180.69 1.81 180.18 2.57 179.92 2.94 C 176.00 3.64 172.06 4.19 168.09 4.56 C 170.89 4.63 173.69 4.80 176.47 5.22 C 173.24 6.14 169.74 6.01 166.69 7.53 C 170.28 7.50 173.86 7.10 177.45 7.00 C 173.17 9.06 168.47 9.89 164.01 11.46 C 167.03 11.81 170.06 12.12 173.09 12.48 C 167.97 13.78 162.63 13.25 157.51 14.45 C 160.98 15.19 164.47 15.82 167.95 16.53 C 163.21 16.61 158.52 17.86 153.78 17.27 C 151.45 16.99 149.10 17.13 146.79 17.44 C 148.73 17.86 150.69 18.21 152.65 18.57 C 152.53 19.26 152.42 19.96 152.31 20.65 C 153.66 20.84 155.01 21.04 156.36 21.24 C 155.94 21.51 155.11 22.04 154.69 22.30 C 148.05 22.26 141.46 20.67 134.82 21.41 C 136.56 21.82 138.31 22.21 140.06 22.58 C 138.13 22.76 136.19 22.95 134.27 23.21 C 131.05 25.47 126.96 24.90 123.25 25.12 C 123.94 25.82 124.64 26.51 125.35 27.20 C 124.36 27.64 123.37 28.07 122.37 28.48 C 122.74 28.71 123.46 29.17 123.83 29.41 C 122.59 30.21 121.36 31.02 120.12 31.81 C 123.09 31.61 126.30 30.93 128.98 32.67 C 128.44 33.23 127.35 34.36 126.81 34.92 C 123.03 35.72 119.17 36.15 115.44 37.19 C 115.49 36.61 115.58 35.47 115.63 34.89 C 114.57 35.43 113.51 35.96 112.46 36.49 C 112.07 36.12 111.30 35.38 110.91 35.01 C 91.61 34.89 72.30 34.98 53.00 34.93 C 49.79 34.89 46.49 34.33 43.36 35.31 C 42.20 34.83 41.04 34.35 39.88 33.86 C 40.32 29.95 41.25 25.88 39.91 22.04 C 37.65 14.75 36.56 7.13 33.78 0.00 Z" />
</g>
<g id="#d62d12ff">
<path fill="#d62d12" stroke="#d62d12" stroke-width="0.09375" opacity="1.00" d=" M 177.50 0.00 L 239.41 0.00 C 237.03 0.34 234.77 1.26 232.90 2.77 C 237.22 5.62 242.43 7.80 247.62 6.00 C 245.46 4.61 243.22 3.37 240.96 2.16 C 243.72 1.61 246.53 1.60 249.32 1.91 C 248.49 1.27 247.66 0.63 246.82 -0.00 L 256.00 0.00 L 256.00 29.81 C 252.85 34.02 249.60 38.17 246.11 42.12 C 245.17 41.87 244.24 41.62 243.30 41.36 C 242.27 42.20 241.25 43.03 240.22 43.86 C 240.37 42.86 240.52 41.86 240.67 40.86 C 237.94 39.05 234.66 38.77 231.47 38.77 C 231.58 38.07 231.68 37.38 231.79 36.68 C 229.41 36.58 227.06 36.20 224.76 35.64 C 225.10 35.29 225.79 34.59 226.13 34.24 C 223.95 33.50 221.75 32.80 219.66 31.82 C 222.12 31.21 224.67 31.89 227.17 31.90 C 226.02 30.95 224.86 30.00 223.71 29.06 C 225.53 29.23 227.37 29.39 229.20 29.55 C 228.00 28.66 226.79 27.77 225.59 26.88 C 227.10 26.72 228.61 26.56 230.12 26.39 C 227.06 25.12 223.86 24.23 220.67 23.33 C 224.49 22.51 228.34 23.52 232.17 23.70 C 230.38 22.52 228.56 21.37 226.74 20.24 C 229.22 20.54 231.72 20.74 234.21 20.97 C 232.76 20.21 230.67 19.64 231.39 17.54 C 230.19 16.59 228.88 15.79 227.68 14.86 C 232.62 15.11 237.09 17.64 242.05 17.84 C 238.83 16.32 235.52 14.98 232.54 13.03 C 234.99 13.16 237.43 13.46 239.84 13.97 C 238.67 13.12 237.53 12.23 236.47 11.26 C 240.61 11.68 244.48 14.01 248.73 13.38 C 245.07 10.93 241.06 9.08 237.29 6.82 C 235.33 5.77 233.37 4.46 231.10 4.22 C 229.62 4.58 228.29 5.35 226.97 6.07 C 210.05 15.90 192.19 24.38 173.15 29.20 C 173.34 28.59 173.72 27.38 173.91 26.78 C 169.74 25.35 166.96 29.84 162.97 30.19 C 165.14 28.51 167.34 26.85 169.31 24.93 C 166.87 25.61 164.55 26.64 162.34 27.86 C 162.53 27.32 162.90 26.26 163.09 25.73 C 160.29 27.03 157.38 28.04 154.37 28.72 C 148.16 30.20 143.35 35.29 136.84 35.80 C 138.62 34.72 140.47 33.72 142.05 32.34 C 138.86 32.48 135.61 32.66 132.58 31.47 C 135.78 30.98 139.00 30.49 142.09 29.48 C 139.04 29.16 135.99 28.90 132.94 28.61 C 138.19 27.75 143.45 26.78 148.80 26.73 C 148.55 26.35 148.07 25.58 147.82 25.20 C 143.45 25.04 139.06 25.04 134.73 24.32 C 145.22 23.43 155.80 25.14 166.24 23.52 C 162.42 22.86 158.55 22.64 154.69 22.30 C 155.11 22.04 155.94 21.51 156.36 21.24 C 155.01 21.04 153.66 20.84 152.31 20.65 C 152.42 19.96 152.53 19.26 152.65 18.57 C 150.69 18.21 148.73 17.86 146.79 17.44 C 149.10 17.13 151.45 16.99 153.78 17.27 C 158.52 17.86 163.21 16.61 167.95 16.53 C 164.47 15.82 160.98 15.19 157.51 14.45 C 162.63 13.25 167.97 13.78 173.09 12.48 C 170.06 12.12 167.03 11.81 164.01 11.46 C 168.47 9.89 173.17 9.06 177.45 7.00 C 173.86 7.10 170.28 7.50 166.69 7.53 C 169.74 6.01 173.24 6.14 176.47 5.22 C 173.69 4.80 170.89 4.63 168.09 4.56 C 172.06 4.19 176.00 3.64 179.92 2.94 C 180.18 2.57 180.69 1.81 180.94 1.43 C 179.80 0.94 178.65 0.46 177.50 0.00 Z" />
</g>
<g id="#d54319ff">
<path fill="#d54319" stroke="#d54319" stroke-width="0.09375" opacity="1.00" d=" M 239.41 0.00 L 246.82 0.00 C 247.66 0.63 248.49 1.27 249.32 1.91 C 246.53 1.60 243.72 1.61 240.96 2.16 C 243.22 3.37 245.46 4.61 247.62 6.00 C 242.43 7.80 237.22 5.62 232.90 2.77 C 234.77 1.26 237.03 0.34 239.41 0.00 Z" />
</g>
<g id="#e96124ff">
<path fill="#e96124" stroke="#e96124" stroke-width="0.09375" opacity="1.00" d=" M 226.97 6.07 C 228.29 5.35 229.62 4.58 231.10 4.22 C 233.37 4.46 235.33 5.77 237.29 6.82 C 241.06 9.08 245.07 10.93 248.73 13.38 C 244.48 14.01 240.61 11.68 236.47 11.26 C 237.53 12.23 238.67 13.12 239.84 13.97 C 237.43 13.46 234.99 13.16 232.54 13.03 C 235.52 14.98 238.83 16.32 242.05 17.84 C 237.09 17.64 232.62 15.11 227.68 14.86 C 228.88 15.79 230.19 16.59 231.39 17.54 C 230.67 19.64 232.76 20.21 234.21 20.97 C 231.72 20.74 229.22 20.54 226.74 20.24 C 228.56 21.37 230.38 22.52 232.17 23.70 C 228.34 23.52 224.49 22.51 220.67 23.33 C 223.86 24.23 227.06 25.12 230.12 26.39 C 228.61 26.56 227.10 26.72 225.59 26.88 C 226.79 27.77 228.00 28.66 229.20 29.55 C 227.37 29.39 225.53 29.23 223.71 29.06 C 224.86 30.00 226.02 30.95 227.17 31.90 C 224.67 31.89 222.12 31.21 219.66 31.82 C 221.75 32.80 223.95 33.50 226.13 34.24 C 225.79 34.59 225.10 35.29 224.76 35.64 C 220.41 35.12 215.60 34.17 211.64 36.58 C 216.31 36.71 221.16 35.32 225.61 37.35 C 223.49 38.04 221.33 38.62 219.25 39.41 C 219.68 40.09 220.14 40.77 220.60 41.44 C 220.53 41.65 220.37 42.07 220.30 42.28 C 220.82 42.57 221.87 43.15 222.39 43.44 C 218.69 45.21 214.78 46.43 210.91 47.75 C 213.87 47.56 216.82 47.24 219.78 46.95 C 216.93 49.62 213.19 50.88 209.82 52.70 C 212.52 52.08 215.20 51.35 217.87 50.60 C 217.29 51.84 216.72 53.08 216.14 54.32 C 214.56 55.43 212.99 56.55 211.43 57.69 C 206.89 55.60 201.83 56.40 197.01 56.08 C 189.89 55.72 182.72 56.65 175.66 55.43 C 172.99 54.91 170.27 55.14 167.60 55.57 C 163.11 56.27 158.54 56.07 154.01 56.03 C 121.36 56.10 88.71 55.95 56.06 56.08 C 52.09 56.14 47.95 55.00 44.14 56.68 C 43.43 54.63 42.42 52.71 41.39 50.81 C 41.83 45.08 39.25 39.60 39.88 33.86 C 41.04 34.35 42.20 34.83 43.36 35.31 C 46.49 34.33 49.79 34.89 53.00 34.93 C 72.30 34.98 91.61 34.89 110.91 35.01 C 111.30 35.38 112.07 36.12 112.46 36.49 C 113.51 35.96 114.57 35.43 115.63 34.89 C 115.58 35.47 115.49 36.61 115.44 37.19 C 119.17 36.15 123.03 35.72 126.81 34.92 C 127.35 34.36 128.44 33.23 128.98 32.67 C 130.76 32.98 132.56 33.16 134.36 33.36 C 130.98 34.82 127.38 36.11 124.84 38.90 C 128.85 37.90 132.88 36.79 137.05 36.79 C 141.50 36.81 145.60 34.81 149.99 34.39 C 153.69 34.02 156.79 31.78 160.00 30.10 C 161.93 30.73 163.83 31.74 165.91 31.71 C 168.46 31.35 170.75 30.06 173.15 29.20 C 192.19 24.38 210.05 15.90 226.97 6.07 Z" />
</g>
<g id="#e0441aff">
<path fill="#e0441a" stroke="#e0441a" stroke-width="0.09375" opacity="1.00" d=" M 134.82 21.41 C 141.46 20.67 148.05 22.26 154.69 22.30 C 158.55 22.64 162.42 22.86 166.24 23.52 C 155.80 25.14 145.22 23.43 134.73 24.32 C 139.06 25.04 143.45 25.04 147.82 25.20 C 148.07 25.58 148.55 26.35 148.80 26.73 C 143.45 26.78 138.19 27.75 132.94 28.61 C 135.99 28.90 139.04 29.16 142.09 29.48 C 139.00 30.49 135.78 30.98 132.58 31.47 C 135.61 32.66 138.86 32.48 142.05 32.34 C 140.47 33.72 138.62 34.72 136.84 35.80 C 143.35 35.29 148.16 30.20 154.37 28.72 C 157.38 28.04 160.29 27.03 163.09 25.73 C 162.90 26.26 162.53 27.32 162.34 27.86 C 164.55 26.64 166.87 25.61 169.31 24.93 C 167.34 26.85 165.14 28.51 162.97 30.19 C 166.96 29.84 169.74 25.35 173.91 26.78 C 173.72 27.38 173.34 28.59 173.15 29.20 C 170.75 30.06 168.46 31.35 165.91 31.71 C 163.83 31.74 161.93 30.73 160.00 30.10 C 156.79 31.78 153.69 34.02 149.99 34.39 C 145.60 34.81 141.50 36.81 137.05 36.79 C 132.88 36.79 128.85 37.90 124.84 38.90 C 127.38 36.11 130.98 34.82 134.36 33.36 C 132.56 33.16 130.76 32.98 128.98 32.67 C 126.30 30.93 123.09 31.61 120.12 31.81 C 121.36 31.02 122.59 30.21 123.83 29.41 C 123.46 29.17 122.74 28.71 122.37 28.48 C 123.37 28.07 124.36 27.64 125.35 27.20 C 124.64 26.51 123.94 25.82 123.25 25.12 C 126.96 24.90 131.05 25.47 134.27 23.21 C 136.19 22.95 138.13 22.76 140.06 22.58 C 138.31 22.21 136.56 21.82 134.82 21.41 Z" />
</g>
<g id="#e75325ff">
<path fill="#e75325" stroke="#e75325" stroke-width="0.09375" opacity="1.00" d=" M 5.05 30.95 C 4.52 28.08 8.88 26.93 11.22 26.89 C 9.75 28.91 7.94 31.46 5.05 30.95 Z" />
</g>
<g id="#eb6428ff">
<path fill="#eb6428" stroke="#eb6428" stroke-width="0.09375" opacity="1.00" d=" M 246.11 42.12 C 249.60 38.17 252.85 34.02 256.00 29.81 L 256.00 68.04 C 240.69 68.19 225.61 71.09 210.43 72.71 C 213.70 69.36 218.14 67.63 221.79 64.77 C 230.66 58.09 238.58 50.25 246.11 42.12 Z" />
</g>
<g id="#e13113ff">
<path fill="#e13113" stroke="#e13113" stroke-width="0.09375" opacity="1.00" d=" M 211.64 36.58 C 215.60 34.17 220.41 35.12 224.76 35.64 C 227.06 36.20 229.41 36.58 231.79 36.68 C 231.68 37.38 231.58 38.07 231.47 38.77 C 234.66 38.77 237.94 39.05 240.67 40.86 C 240.52 41.86 240.37 42.86 240.22 43.86 C 241.25 43.03 242.27 42.20 243.30 41.36 C 244.24 41.62 245.17 41.87 246.11 42.12 C 238.58 50.25 230.66 58.09 221.79 64.77 C 218.14 67.63 213.70 69.36 210.43 72.71 C 208.56 72.95 206.69 73.21 204.83 73.53 C 204.83 72.96 204.84 71.81 204.84 71.24 C 203.63 70.98 202.43 70.74 201.23 70.52 C 201.61 69.12 202.00 67.72 202.39 66.32 C 206.65 66.32 210.92 66.25 215.15 65.74 C 211.83 64.61 208.33 64.24 204.84 64.36 C 209.07 62.33 213.74 61.30 217.71 58.74 C 215.07 58.44 212.42 58.61 209.79 58.90 C 210.20 58.60 211.02 57.99 211.43 57.69 C 212.99 56.55 214.56 55.43 216.14 54.32 C 216.72 53.08 217.29 51.84 217.87 50.60 C 215.20 51.35 212.52 52.08 209.82 52.70 C 213.19 50.88 216.93 49.62 219.78 46.95 C 216.82 47.24 213.87 47.56 210.91 47.75 C 214.78 46.43 218.69 45.21 222.39 43.44 C 221.87 43.15 220.82 42.57 220.30 42.28 C 220.37 42.07 220.53 41.65 220.60 41.44 C 220.14 40.77 219.68 40.09 219.25 39.41 C 221.33 38.62 223.49 38.04 225.61 37.35 C 221.16 35.32 216.31 36.71 211.64 36.58 Z" />
</g>
<g id="#e84720ff">
<path fill="#e84720" stroke="#e84720" stroke-width="0.09375" opacity="1.00" d=" M 16.51 56.19 C 18.54 55.46 20.61 54.82 22.70 54.24 C 23.00 54.59 23.61 55.30 23.91 55.65 C 22.76 55.85 21.61 56.07 20.45 56.29 C 20.48 56.73 20.52 57.61 20.55 58.05 C 19.13 57.60 17.76 57.01 16.51 56.19 Z" />
</g>
<g id="#ed662cff">
<path fill="#ed662c" stroke="#ed662c" stroke-width="0.09375" opacity="1.00" d=" M 44.14 56.68 C 47.95 55.00 52.09 56.14 56.06 56.08 C 88.71 55.95 121.36 56.10 154.01 56.03 C 158.54 56.07 163.11 56.27 167.60 55.57 C 170.27 55.14 172.99 54.91 175.66 55.43 C 182.72 56.65 189.89 55.72 197.01 56.08 C 201.83 56.40 206.89 55.60 211.43 57.69 C 211.02 57.99 210.20 58.60 209.79 58.90 C 212.42 58.61 215.07 58.44 217.71 58.74 C 213.74 61.30 209.07 62.33 204.84 64.36 C 208.33 64.24 211.83 64.61 215.15 65.74 C 210.92 66.25 206.65 66.32 202.39 66.32 C 202.00 67.72 201.61 69.12 201.23 70.52 C 202.43 70.74 203.63 70.98 204.84 71.24 C 204.84 71.81 204.83 72.96 204.83 73.53 C 192.35 76.28 180.19 80.27 168.03 84.13 C 166.10 83.08 163.96 83.13 161.88 83.55 C 161.44 83.28 161.01 83.02 160.57 82.77 C 158.30 84.28 155.62 83.85 153.09 83.51 C 150.05 85.35 146.44 84.98 143.05 84.97 C 114.71 84.78 86.37 85.06 58.04 84.88 C 54.50 85.10 52.18 82.06 49.73 80.01 C 47.77 76.05 45.80 72.08 44.09 68.00 C 43.31 66.34 43.80 64.48 43.89 62.74 C 44.07 60.73 44.16 58.70 44.14 56.68 Z" />
</g>
<g id="#e94a1dff">
<path fill="#e94a1d" stroke="#e94a1d" stroke-width="0.09375" opacity="1.00" d=" M 6.88 61.44 C 7.19 59.28 6.11 56.11 8.89 55.26 C 9.06 56.22 9.41 58.13 9.58 59.08 C 10.47 58.26 11.35 57.44 12.23 56.62 C 15.77 57.47 19.18 58.79 22.29 60.69 C 19.39 60.83 16.59 61.66 13.94 62.81 C 11.61 62.27 9.27 61.68 6.88 61.44 Z" />
</g>
<g id="#ee5327ff">
<path fill="#ee5327" stroke="#ee5327" stroke-width="0.09375" opacity="1.00" d=" M 39.18 56.48 C 40.39 55.55 42.58 57.32 41.70 58.65 C 40.47 59.73 38.10 57.85 39.18 56.48 Z" />
</g>
<g id="#e53318ff">
<path fill="#e53318" stroke="#e53318" stroke-width="0.09375" opacity="1.00" d=" M 22.29 60.69 C 22.54 60.68 23.05 60.65 23.30 60.64 C 27.85 62.94 33.76 60.92 37.50 65.13 C 37.40 66.02 37.29 66.91 37.19 67.80 C 38.25 67.09 39.30 66.39 40.36 65.67 C 40.80 64.38 41.15 63.04 41.78 61.83 C 42.50 60.82 43.20 62.49 43.89 62.74 C 43.80 64.48 43.31 66.34 44.09 68.00 C 45.80 72.08 47.77 76.05 49.73 80.01 C 54.38 90.71 58.46 101.63 62.41 112.59 C 59.77 113.58 57.15 114.60 54.53 115.65 C 52.72 110.51 50.79 105.42 48.89 100.32 C 46.31 92.89 43.53 85.49 40.06 78.42 C 39.01 80.63 38.04 82.87 37.12 85.13 C 36.14 84.47 35.16 83.82 34.18 83.16 C 33.63 84.02 33.09 84.87 32.54 85.73 C 29.81 83.86 26.72 82.35 23.35 83.38 C 21.77 82.35 20.20 81.29 18.65 80.21 C 20.22 80.33 21.79 80.46 23.36 80.59 C 23.82 79.19 24.19 77.67 25.20 76.54 C 26.89 76.46 28.58 76.62 30.26 76.75 C 29.67 76.36 28.49 75.58 27.89 75.19 C 28.38 75.11 29.37 74.95 29.86 74.87 C 29.64 74.39 29.20 73.43 28.99 72.94 C 31.01 73.27 33.08 73.98 35.13 73.46 C 33.01 70.83 29.99 69.01 26.54 69.11 C 22.78 74.93 16.13 77.37 11.04 81.67 C 7.30 83.40 3.47 84.99 0.00 87.25 L 0.00 68.55 C 0.47 66.75 1.00 64.96 1.72 63.25 C 2.93 62.84 3.82 64.00 4.81 64.48 C 4.94 63.42 5.06 62.37 5.19 61.32 C 5.75 61.36 6.32 61.40 6.88 61.44 C 9.27 61.68 11.61 62.27 13.94 62.81 C 16.59 61.66 19.39 60.83 22.29 60.69 M 31.36 66.50 C 31.09 66.46 30.54 66.39 30.27 66.35 C 29.96 66.67 29.35 67.31 29.05 67.63 C 30.32 68.02 31.59 68.41 32.86 68.81 C 33.16 67.47 33.44 66.14 33.71 64.80 C 32.93 65.37 32.15 65.94 31.36 66.50 Z" />
</g>
<g id="#ef5228ff">
<path fill="#ef5228" stroke="#ef5228" stroke-width="0.09375" opacity="1.00" d=" M 31.36 66.50 C 32.15 65.94 32.93 65.37 33.71 64.80 C 33.44 66.14 33.16 67.47 32.86 68.81 C 31.59 68.41 30.32 68.02 29.05 67.63 C 29.35 67.31 29.96 66.67 30.27 66.35 C 30.54 66.39 31.09 66.46 31.36 66.50 Z" />
</g>
<g id="#000000ff">
<path fill="#000000" stroke="#000000" stroke-width="0.09375" opacity="1.00" d=" M 210.43 72.71 C 225.61 71.09 240.69 68.19 256.00 68.04 L 256.00 69.59 C 248.32 69.10 240.70 70.27 233.08 71.02 C 222.22 71.78 211.50 73.69 200.83 75.77 C 200.85 76.20 200.91 77.06 200.93 77.48 C 200.87 77.66 200.74 78.02 200.68 78.20 C 199.93 78.38 199.17 78.47 198.42 78.58 L 200.23 78.06 C 200.24 77.26 199.75 76.73 198.76 76.47 C 182.14 80.66 165.89 86.19 149.63 91.59 C 144.66 94.31 138.87 92.95 133.56 94.32 C 125.13 96.27 116.80 98.67 108.60 101.43 C 104.24 103.07 99.46 101.31 95.06 102.89 C 77.70 107.87 60.55 113.63 43.92 120.68 C 45.10 121.36 46.33 122.34 47.76 121.66 C 60.37 117.73 72.97 113.78 85.55 109.78 C 91.90 108.39 97.77 104.59 104.46 105.16 C 95.54 108.70 86.10 110.74 77.09 114.05 C 73.78 115.39 70.13 115.11 66.78 116.22 C 55.67 119.88 44.66 123.92 34.12 129.02 C 31.32 130.52 28.01 128.68 25.14 130.05 C 21.28 131.62 16.63 133.04 15.02 137.33 C 13.48 137.48 11.94 137.63 10.41 137.80 C 10.48 141.43 13.01 144.23 15.43 146.65 C 19.69 150.93 25.32 153.38 29.99 157.15 C 32.17 159.08 35.26 159.48 37.76 157.95 C 40.64 156.13 45.03 158.18 47.05 155.01 C 50.00 151.00 54.82 149.20 59.13 147.08 C 86.19 135.36 113.24 123.54 140.67 112.72 C 134.36 110.34 127.37 112.05 120.79 111.06 C 126.18 110.29 131.65 110.02 137.09 110.23 C 138.87 110.19 140.34 111.24 141.77 112.15 C 160.64 104.46 180.17 98.50 199.89 93.41 C 209.45 91.30 219.06 88.72 228.94 89.08 C 238.05 88.88 246.93 91.30 255.99 91.84 L 255.27 90.33 C 245.54 88.44 235.70 86.91 225.76 87.14 C 232.48 82.30 239.54 77.91 246.61 73.58 C 249.34 71.59 252.80 71.89 256.00 71.83 L 256.00 72.94 C 252.84 74.71 249.59 76.35 246.76 78.62 C 245.02 79.86 243.34 81.17 241.72 82.54 C 242.38 83.73 243.85 83.62 245.01 83.88 C 248.76 84.36 252.34 85.64 256.00 86.54 L 256.00 92.77 C 245.02 91.65 234.07 88.84 222.98 90.06 C 212.78 91.25 202.81 93.80 192.90 96.39 C 166.60 103.41 141.31 113.61 116.14 123.87 C 94.14 132.77 72.02 141.65 51.31 153.29 C 49.26 154.28 48.36 156.49 46.86 158.06 C 44.62 158.53 42.31 158.10 40.04 158.32 C 37.32 158.98 34.69 161.96 31.82 160.09 C 25.22 155.83 18.96 151.03 13.00 145.91 C 13.88 148.15 14.83 150.35 15.81 152.55 C 16.42 152.93 17.02 153.34 17.61 153.76 C 17.31 153.75 16.72 153.74 16.43 153.73 C 17.16 157.14 19.42 159.89 21.15 162.83 C 28.37 174.82 37.54 185.72 48.61 194.32 C 52.34 197.58 57.50 195.82 61.91 195.56 C 85.91 193.43 109.92 191.40 133.91 189.22 C 138.46 188.64 143.61 189.15 147.38 186.03 C 148.84 184.16 150.00 182.08 150.90 179.89 C 153.29 173.68 157.44 168.41 160.64 162.63 C 166.29 152.74 172.38 143.13 178.57 133.58 C 181.91 128.46 184.46 122.16 190.21 119.26 C 201.19 114.56 213.37 115.57 225.03 114.96 C 230.36 114.86 236.36 114.59 240.78 118.13 C 245.68 121.74 247.27 127.90 249.83 133.12 C 251.86 138.25 254.88 143.31 254.67 149.00 C 254.61 153.08 254.10 157.37 251.82 160.86 C 249.83 164.29 244.50 164.90 244.41 169.54 C 248.35 168.63 252.22 167.48 256.00 166.05 L 256.00 256.00 L 0.00 256.00 L 0.00 171.78 C 4.29 171.67 8.57 171.52 12.86 171.36 C 12.07 168.19 11.05 165.08 10.37 161.89 C 12.82 161.19 15.36 160.90 17.84 160.30 C 16.93 157.85 15.58 155.57 15.06 152.98 C 13.93 147.57 9.69 143.35 9.15 137.75 C 10.74 137.20 12.33 136.68 13.92 136.16 C 19.42 129.77 28.12 127.94 35.22 123.92 C 41.58 120.99 48.01 118.22 54.53 115.65 C 57.15 114.60 59.77 113.58 62.41 112.59 C 72.84 108.79 83.42 105.44 94.10 102.44 C 99.72 100.70 105.75 101.33 111.36 99.53 C 118.84 97.16 126.37 94.95 133.97 93.01 C 137.94 92.02 142.15 92.78 146.08 91.54 C 153.45 89.25 160.70 86.58 168.03 84.13 C 180.19 80.27 192.35 76.28 204.83 73.53 C 206.69 73.21 208.56 72.95 210.43 72.71 M 30.73 127.40 L 29.80 128.81 C 35.48 128.05 40.63 125.28 45.36 122.19 C 39.93 121.52 35.53 125.55 30.73 127.40 M 208.70 138.76 C 203.38 148.63 202.37 160.22 203.66 171.20 C 204.91 177.40 207.37 184.70 213.73 187.30 C 218.27 188.99 222.50 185.72 225.44 182.60 C 231.35 176.22 233.39 167.44 234.66 159.10 C 234.83 157.12 235.54 154.69 233.44 153.50 C 232.72 151.55 231.75 149.61 229.34 149.83 C 228.89 153.46 228.44 157.10 227.41 160.62 C 226.49 158.83 226.80 156.78 226.77 154.85 C 227.27 153.34 225.80 152.41 225.01 151.41 C 225.87 150.75 226.73 150.09 227.59 149.43 C 227.76 145.04 227.84 140.30 225.58 136.37 C 223.83 133.46 219.38 133.93 217.50 136.47 C 213.36 141.60 212.16 148.65 213.06 155.06 C 213.76 157.81 211.40 159.65 209.92 161.57 C 212.51 162.30 215.85 163.71 215.45 167.03 C 215.75 169.31 212.17 170.98 213.71 173.19 C 215.01 174.19 216.62 174.67 218.10 175.32 C 218.34 174.74 218.80 173.57 219.04 172.98 C 219.78 172.92 221.26 172.80 222.00 172.74 C 223.77 168.71 225.52 164.60 226.07 160.19 C 228.07 161.64 226.49 164.10 226.49 166.05 C 225.54 168.95 228.08 171.21 228.43 173.91 C 227.76 177.41 225.80 180.58 223.11 182.88 C 222.95 182.04 222.64 180.34 222.48 179.49 C 219.99 178.18 218.80 181.01 217.96 182.79 C 219.05 183.34 220.14 183.88 221.24 184.43 C 218.76 186.00 215.83 185.69 213.19 184.76 C 213.60 184.33 214.43 183.48 214.85 183.05 C 213.60 181.71 212.45 181.70 211.39 183.02 C 211.32 182.02 211.26 181.03 211.19 180.04 C 207.42 176.22 206.20 170.87 204.71 165.91 C 205.23 155.67 206.33 144.88 212.05 136.07 C 214.58 132.12 219.25 129.07 224.08 130.04 C 227.85 130.63 229.69 134.37 231.98 136.98 C 230.65 132.43 227.30 127.45 222.01 127.50 C 215.36 127.16 211.21 133.45 208.70 138.76 M 210.18 143.99 C 208.84 144.44 208.43 146.44 209.23 147.52 C 210.88 148.12 212.02 144.30 210.18 143.99 M 209.17 164.23 C 207.51 167.15 212.49 164.52 209.17 164.23 M 215.98 183.42 C 215.55 184.79 216.04 185.31 217.47 184.99 C 217.90 183.62 217.40 183.10 215.98 183.42 Z" />
</g>
<g id="#eb582aff">
<path fill="#eb582a" stroke="#eb582a" stroke-width="0.09375" opacity="1.00" d=" M 26.54 69.11 C 29.99 69.01 33.01 70.83 35.13 73.46 C 33.08 73.98 31.01 73.27 28.99 72.94 C 29.20 73.43 29.64 74.39 29.86 74.87 C 29.37 74.95 28.38 75.11 27.89 75.19 C 28.49 75.58 29.67 76.36 30.26 76.75 C 28.58 76.62 26.89 76.46 25.20 76.54 C 24.19 77.67 23.82 79.19 23.36 80.59 C 21.79 80.46 20.22 80.33 18.65 80.21 C 20.20 81.29 21.77 82.35 23.35 83.38 C 20.36 83.70 17.35 83.72 14.35 83.67 C 13.21 83.06 12.13 82.36 11.04 81.67 C 16.13 77.37 22.78 74.93 26.54 69.11 Z" />
</g>
<g id="#faf58fff">
<path fill="#faf58f" stroke="#faf58f" stroke-width="0.09375" opacity="1.00" d=" M 233.08 71.02 C 240.70 70.27 248.32 69.10 256.00 69.59 L 256.00 71.83 C 252.80 71.89 249.34 71.59 246.61 73.58 C 239.54 77.91 232.48 82.30 225.76 87.14 C 235.70 86.91 245.54 88.44 255.27 90.33 L 255.99 91.84 C 246.93 91.30 238.05 88.88 228.94 89.08 C 219.06 88.72 209.45 91.30 199.89 93.41 C 180.17 98.50 160.64 104.46 141.77 112.15 C 140.34 111.24 138.87 110.19 137.09 110.23 C 131.65 110.02 126.18 110.29 120.79 111.06 C 127.37 112.05 134.36 110.34 140.67 112.72 C 113.24 123.54 86.19 135.36 59.13 147.08 C 54.82 149.20 50.00 151.00 47.05 155.01 C 45.03 158.18 40.64 156.13 37.76 157.95 C 35.26 159.48 32.17 159.08 29.99 157.15 C 25.32 153.38 19.69 150.93 15.43 146.65 C 13.01 144.23 10.48 141.43 10.41 137.80 C 11.94 137.63 13.48 137.48 15.02 137.33 C 16.63 133.04 21.28 131.62 25.14 130.05 C 28.01 128.68 31.32 130.52 34.12 129.02 C 44.66 123.92 55.67 119.88 66.78 116.22 C 70.13 115.11 73.78 115.39 77.09 114.05 C 86.10 110.74 95.54 108.70 104.46 105.16 C 97.77 104.59 91.90 108.39 85.55 109.78 C 72.97 113.78 60.37 117.73 47.76 121.66 C 46.33 122.34 45.10 121.36 43.92 120.68 C 60.55 113.63 77.70 107.87 95.06 102.89 C 99.46 101.31 104.24 103.07 108.60 101.43 C 116.80 98.67 125.13 96.27 133.56 94.32 C 138.87 92.95 144.66 94.31 149.63 91.59 C 165.89 86.19 182.14 80.66 198.76 76.47 C 199.75 76.73 200.24 77.26 200.23 78.06 L 198.42 78.58 C 198.18 78.63 197.70 78.73 197.45 78.78 C 188.46 80.87 179.65 83.78 170.96 86.88 C 166.65 88.35 162.29 89.67 158.10 91.46 C 175.14 90.09 191.76 84.91 208.96 85.21 C 212.81 84.87 217.30 86.25 220.52 83.48 C 225.86 79.58 231.67 76.39 236.97 72.43 C 234.18 72.81 231.40 73.25 228.60 73.52 C 220.92 74.33 213.30 75.65 205.64 76.60 C 204.05 76.81 202.48 77.11 200.93 77.48 C 200.91 77.06 200.85 76.20 200.83 75.77 C 211.50 73.69 222.22 71.78 233.08 71.02 M 58.98 122.69 C 63.57 122.12 67.87 120.31 72.34 119.20 C 76.54 117.84 81.09 117.40 85.04 115.35 C 76.23 117.24 67.69 120.34 58.98 122.69 M 46.97 126.63 C 47.43 126.46 48.33 126.13 48.78 125.96 C 50.29 125.58 51.90 125.32 53.21 124.42 C 51.06 124.87 48.75 125.24 46.97 126.63 M 69.95 128.96 C 65.00 131.31 59.54 132.61 55.03 135.81 C 59.77 137.06 64.47 138.44 69.22 139.65 C 71.05 140.22 72.67 138.88 74.29 138.27 C 83.18 133.96 92.73 130.86 101.15 125.70 C 94.39 125.18 87.64 124.36 80.86 124.16 C 77.06 125.32 73.63 127.47 69.95 128.96 M 30.99 134.85 C 33.78 134.50 36.85 134.05 38.88 131.90 C 38.80 131.59 38.64 130.98 38.57 130.68 C 35.46 130.59 33.11 132.88 30.99 134.85 M 49.01 147.95 C 46.82 149.81 43.57 150.02 41.72 152.24 C 47.57 149.49 54.21 148.08 59.35 144.02 C 55.65 144.52 52.40 146.53 49.01 147.95 Z" />
<path fill="#faf58f" stroke="#faf58f" stroke-width="0.09375" opacity="1.00" d=" M 16.43 153.73 C 16.72 153.74 17.31 153.75 17.61 153.76 C 21.35 156.74 23.94 161.79 28.99 162.72 C 33.27 163.34 37.01 165.90 39.97 168.93 C 41.83 171.03 40.68 173.75 39.91 176.03 C 42.45 175.89 45.26 175.01 47.60 176.45 C 51.61 178.55 55.28 181.22 59.19 183.51 C 61.09 184.78 63.39 185.85 64.41 188.04 C 61.99 190.58 58.07 191.12 55.62 193.77 C 73.75 192.56 91.84 190.77 109.94 189.11 C 122.44 188.36 134.86 186.50 147.38 186.03 C 143.61 189.15 138.46 188.64 133.91 189.22 C 109.92 191.40 85.91 193.43 61.91 195.56 C 57.50 195.82 52.34 197.58 48.61 194.32 C 37.54 185.72 28.37 174.82 21.15 162.83 C 19.42 159.89 17.16 157.14 16.43 153.73 M 30.01 165.08 C 30.78 167.93 31.12 171.34 33.49 173.37 C 35.26 174.50 39.29 173.78 38.94 171.16 C 36.30 168.68 33.10 166.93 30.01 165.08 Z" />
</g>
<g id="#020000ff">
<path fill="#020000" stroke="#020000" stroke-width="0.09375" opacity="1.00" d=" M 228.60 73.52 C 231.40 73.25 234.18 72.81 236.97 72.43 C 231.67 76.39 225.86 79.58 220.52 83.48 C 217.30 86.25 212.81 84.87 208.96 85.21 C 191.76 84.91 175.14 90.09 158.10 91.46 C 162.29 89.67 166.65 88.35 170.96 86.88 C 176.46 86.74 181.99 86.45 187.25 84.67 C 193.42 83.34 199.78 83.88 206.00 82.97 C 211.21 82.07 217.39 84.31 221.63 80.20 C 224.88 78.67 228.45 77.58 230.99 74.87 C 230.39 74.53 229.20 73.86 228.60 73.52 Z" />
</g>
<g id="#2e302fff">
<path fill="#2e302f" stroke="#2e302f" stroke-width="0.09375" opacity="1.00" d=" M 246.76 78.62 C 249.59 76.35 252.84 74.71 256.00 72.94 L 256.00 74.11 C 253.22 76.39 251.21 79.37 249.92 82.71 C 251.95 83.15 253.99 83.57 256.00 84.10 L 256.00 86.54 C 252.34 85.64 248.76 84.36 245.01 83.88 C 243.85 83.62 242.38 83.73 241.72 82.54 C 244.90 83.56 247.68 81.66 248.82 78.73 L 246.76 78.62 Z" />
</g>
<g id="#323233ff">
<path fill="#323233" stroke="#323233" stroke-width="0.09375" opacity="1.00" d=" M 205.64 76.60 C 213.30 75.65 220.92 74.33 228.60 73.52 C 229.20 73.86 230.39 74.53 230.99 74.87 C 228.45 77.58 224.88 78.67 221.63 80.20 L 221.98 78.35 C 217.92 78.93 213.83 79.33 209.73 79.28 C 210.50 78.56 211.27 77.85 212.05 77.14 C 209.91 76.94 207.78 76.75 205.64 76.60 Z" />
</g>
<g id="#5b5b5aff">
<path fill="#5b5b5a" stroke="#5b5b5a" stroke-width="0.09375" opacity="1.00" d=" M 249.92 82.71 C 251.21 79.37 253.22 76.39 256.00 74.11 L 256.00 84.10 C 253.99 83.57 251.95 83.15 249.92 82.71 Z" />
</g>
<g id="#8c8c8dff">
<path fill="#8c8c8d" stroke="#8c8c8d" stroke-width="0.09375" opacity="1.00" d=" M 200.93 77.48 C 202.48 77.11 204.05 76.81 205.64 76.60 C 207.78 76.75 209.91 76.94 212.05 77.14 C 211.27 77.85 210.50 78.56 209.73 79.28 C 213.83 79.33 217.92 78.93 221.98 78.35 L 221.63 80.20 C 217.39 84.31 211.21 82.07 206.00 82.97 C 199.78 83.88 193.42 83.34 187.25 84.67 L 185.06 84.28 C 188.76 81.47 193.78 81.63 197.45 78.78 C 197.70 78.73 198.18 78.63 198.42 78.58 C 199.17 78.47 199.93 78.38 200.68 78.20 C 200.74 78.02 200.87 77.66 200.93 77.48 Z" />
</g>
<g id="#f06c3cff">
<path fill="#f06c3c" stroke="#f06c3c" stroke-width="0.09375" opacity="1.00" d=" M 37.12 85.13 C 38.04 82.87 39.01 80.63 40.06 78.42 C 43.53 85.49 46.31 92.89 48.89 100.32 C 47.48 101.91 47.39 103.96 47.54 105.96 C 42.47 106.08 37.47 104.82 32.39 105.08 C 32.13 105.92 31.87 106.76 31.60 107.60 C 30.05 106.27 28.48 104.95 26.92 103.62 C 30.98 97.85 34.60 91.73 37.12 85.13 Z" />
</g>
<g id="#7a7a62ff">
<path fill="#7a7a62" stroke="#7a7a62" stroke-width="0.09375" opacity="1.00" d=" M 170.96 86.88 C 179.65 83.78 188.46 80.87 197.45 78.78 C 193.78 81.63 188.76 81.47 185.06 84.28 L 187.25 84.67 C 181.99 86.45 176.46 86.74 170.96 86.88 Z" />
</g>
<g id="#5d5d5eff">
<path fill="#5d5d5e" stroke="#5d5d5e" stroke-width="0.09375" opacity="1.00" d=" M 241.72 82.54 C 243.34 81.17 245.02 79.86 246.76 78.62 L 248.82 78.73 C 247.68 81.66 244.90 83.56 241.72 82.54 Z" />
</g>
<g id="#f06b3aff">
<path fill="#f06b3a" stroke="#f06b3a" stroke-width="0.09375" opacity="1.00" d=" M 49.73 80.01 C 52.18 82.06 54.50 85.10 58.04 84.88 C 86.37 85.06 114.71 84.78 143.05 84.97 C 146.44 84.98 150.05 85.35 153.09 83.51 C 155.62 83.85 158.30 84.28 160.57 82.77 C 161.01 83.02 161.44 83.28 161.88 83.55 C 163.96 83.13 166.10 83.08 168.03 84.13 C 160.70 86.58 153.45 89.25 146.08 91.54 C 142.15 92.78 137.94 92.02 133.97 93.01 C 126.37 94.95 118.84 97.16 111.36 99.53 C 105.75 101.33 99.72 100.70 94.10 102.44 C 83.42 105.44 72.84 108.79 62.41 112.59 C 58.46 101.63 54.38 90.71 49.73 80.01 Z" />
</g>
<g id="#ee6a38ff">
<path fill="#ee6a38" stroke="#ee6a38" stroke-width="0.09375" opacity="1.00" d=" M 0.00 87.25 C 3.47 84.99 7.30 83.40 11.04 81.67 C 12.13 82.36 13.21 83.06 14.35 83.67 C 17.42 85.32 20.47 87.00 23.33 89.00 C 19.99 89.02 16.60 86.65 13.38 88.26 C 12.64 88.30 11.90 88.33 11.16 88.37 C 12.25 89.31 13.34 90.24 14.44 91.18 C 12.43 90.91 10.45 90.56 8.44 90.28 C 8.07 90.97 7.70 91.66 7.32 92.35 C 8.40 92.81 9.48 93.26 10.56 93.71 C 9.71 93.86 8.01 94.15 7.16 94.30 C 7.88 94.91 8.58 95.53 9.27 96.18 C 7.17 96.22 5.07 96.27 2.96 96.32 C 3.89 96.64 4.82 96.97 5.75 97.30 C 5.59 98.06 5.44 98.81 5.28 99.57 C 6.00 99.73 7.44 100.06 8.16 100.23 C 7.17 100.90 5.91 100.92 4.92 101.59 C 5.52 101.71 6.71 101.96 7.31 102.09 C 7.00 102.34 6.38 102.83 6.07 103.08 C 4.51 102.80 2.96 102.51 1.42 102.18 C 2.60 103.16 3.80 104.12 4.99 105.09 C 3.33 105.05 1.66 105.01 0.00 104.98 L 0.00 87.25 Z" />
</g>
<g id="#e8361fff">
<path fill="#e8361f" stroke="#e8361f" stroke-width="0.09375" opacity="1.00" d=" M 14.35 83.67 C 17.35 83.72 20.36 83.70 23.35 83.38 C 26.72 82.35 29.81 83.86 32.54 85.73 C 33.09 84.87 33.63 84.02 34.18 83.16 C 35.16 83.82 36.14 84.47 37.12 85.13 C 34.60 91.73 30.98 97.85 26.92 103.62 C 22.65 109.33 17.67 114.48 12.66 119.53 C 8.84 122.86 4.99 126.19 0.74 128.97 L 0.00 129.46 L 0.00 118.31 C 3.02 116.41 6.32 114.78 8.55 111.88 C 6.64 112.50 4.76 113.20 2.86 113.84 C 5.30 111.00 8.54 109.05 11.28 106.55 C 9.60 106.23 7.91 105.92 6.22 105.63 C 6.19 104.99 6.11 103.72 6.07 103.08 C 6.38 102.83 7.00 102.34 7.31 102.09 C 6.71 101.96 5.52 101.71 4.92 101.59 C 5.91 100.92 7.17 100.90 8.16 100.23 C 7.44 100.06 6.00 99.73 5.28 99.57 C 5.44 98.81 5.59 98.06 5.75 97.30 C 4.82 96.97 3.89 96.64 2.96 96.32 C 5.07 96.27 7.17 96.22 9.27 96.18 C 8.58 95.53 7.88 94.91 7.16 94.30 C 8.01 94.15 9.71 93.86 10.56 93.71 C 9.48 93.26 8.40 92.81 7.32 92.35 C 7.70 91.66 8.07 90.97 8.44 90.28 C 10.45 90.56 12.43 90.91 14.44 91.18 C 13.34 90.24 12.25 89.31 11.16 88.37 C 11.90 88.33 12.64 88.30 13.38 88.26 C 16.60 86.65 19.99 89.02 23.33 89.00 C 20.47 87.00 17.42 85.32 14.35 83.67 Z" />
</g>
<g id="#fcac3bff">
<path fill="#fcac3b" stroke="#fcac3b" stroke-width="0.09375" opacity="1.00" d=" M 192.90 96.39 C 202.81 93.80 212.78 91.25 222.98 90.06 C 234.07 88.84 245.02 91.65 256.00 92.77 L 256.00 166.05 C 252.22 167.48 248.35 168.63 244.41 169.54 C 244.50 164.90 249.83 164.29 251.82 160.86 C 254.10 157.37 254.61 153.08 254.67 149.00 C 254.88 143.31 251.86 138.25 249.83 133.12 C 247.27 127.90 245.68 121.74 240.78 118.13 C 236.36 114.59 230.36 114.86 225.03 114.96 C 213.37 115.57 201.19 114.56 190.21 119.26 C 184.46 122.16 181.91 128.46 178.57 133.58 C 172.38 143.13 166.29 152.74 160.64 162.63 C 157.44 168.41 153.29 173.68 150.90 179.89 C 150.00 182.08 148.84 184.16 147.38 186.03 C 134.86 186.50 122.44 188.36 109.94 189.11 C 91.84 190.77 73.75 192.56 55.62 193.77 C 58.07 191.12 61.99 190.58 64.41 188.04 C 63.39 185.85 61.09 184.78 59.19 183.51 C 55.28 181.22 51.61 178.55 47.60 176.45 C 45.26 175.01 42.45 175.89 39.91 176.03 C 40.68 173.75 41.83 171.03 39.97 168.93 C 37.01 165.90 33.27 163.34 28.99 162.72 C 23.94 161.79 21.35 156.74 17.61 153.76 C 17.02 153.34 16.42 152.93 15.81 152.55 C 14.83 150.35 13.88 148.15 13.00 145.91 C 18.96 151.03 25.22 155.83 31.82 160.09 C 34.69 161.96 37.32 158.98 40.04 158.32 C 42.31 158.10 44.62 158.53 46.86 158.06 C 48.36 156.49 49.26 154.28 51.31 153.29 C 72.02 141.65 94.14 132.77 116.14 123.87 C 141.31 113.61 166.60 103.41 192.90 96.39 M 196.98 105.42 C 190.17 106.25 183.25 107.66 177.39 111.38 C 170.93 115.14 166.35 121.18 161.98 127.08 C 152.90 139.87 144.50 153.16 135.11 165.72 C 135.12 165.99 135.14 166.52 135.15 166.78 C 139.46 163.90 141.50 158.68 144.79 154.77 C 153.86 143.56 159.85 130.16 169.53 119.43 C 173.69 114.69 179.16 111.19 185.17 109.29 C 199.96 104.40 215.72 104.50 230.97 102.00 C 233.49 101.42 235.87 102.56 238.16 103.44 C 235.91 101.58 232.92 100.42 229.99 100.95 C 218.99 102.44 207.98 103.95 196.98 105.42 M 129.15 136.00 C 129.10 137.74 129.06 139.49 129.02 141.24 C 130.33 141.41 131.65 141.74 132.98 141.59 C 135.64 141.51 134.70 138.05 134.65 136.32 C 133.26 134.61 130.94 135.84 129.15 136.00 M 129.02 168.96 C 115.18 169.48 101.39 170.89 87.58 171.85 C 83.80 172.51 79.88 172.19 76.18 173.31 C 95.78 172.17 115.39 171.24 135.00 170.13 C 138.79 169.57 142.20 172.05 146.02 171.15 C 148.32 170.54 151.95 171.85 153.20 169.24 C 146.87 169.64 140.65 168.97 134.37 168.38 L 133.90 168.12 C 132.25 168.30 130.67 168.85 129.02 168.96 M 59.45 183.03 C 59.93 180.30 59.95 177.50 59.59 174.76 C 58.94 177.47 59.03 180.29 59.45 183.03 Z" />
<path fill="#fcac3b" stroke="#fcac3b" stroke-width="0.09375" opacity="1.00" d=" M 130.87 136.85 C 131.68 136.93 133.31 137.08 134.12 137.16 C 134.12 137.95 134.11 139.53 134.10 140.33 C 133.29 140.36 131.66 140.43 130.85 140.46 C 130.86 139.56 130.86 137.75 130.87 136.85 Z" />
</g>
<g id="#f06f47ff">
<path fill="#f06f47" stroke="#f06f47" stroke-width="0.09375" opacity="1.00" d=" M 47.54 105.96 C 47.39 103.96 47.48 101.91 48.89 100.32 C 50.79 105.42 52.72 110.51 54.53 115.65 C 48.01 118.22 41.58 120.99 35.22 123.92 C 33.25 122.56 31.50 120.53 29.07 120.04 C 24.44 120.34 19.86 121.21 15.22 121.47 C 14.36 120.82 13.51 120.18 12.66 119.53 C 17.67 114.48 22.65 109.33 26.92 103.62 C 28.48 104.95 30.05 106.27 31.60 107.60 C 31.87 106.76 32.13 105.92 32.39 105.08 C 37.47 104.82 42.47 106.08 47.54 105.96 Z" />
</g>
<g id="#030100ff">
<path fill="#030100" stroke="#030100" stroke-width="0.09375" opacity="1.00" d=" M 196.98 105.42 C 207.98 103.95 218.99 102.44 229.99 100.95 C 232.92 100.42 235.91 101.58 238.16 103.44 C 235.87 102.56 233.49 101.42 230.97 102.00 C 215.72 104.50 199.96 104.40 185.17 109.29 C 179.16 111.19 173.69 114.69 169.53 119.43 C 159.85 130.16 153.86 143.56 144.79 154.77 C 141.50 158.68 139.46 163.90 135.15 166.78 C 135.14 166.52 135.12 165.99 135.11 165.72 C 144.50 153.16 152.90 139.87 161.98 127.08 C 166.35 121.18 170.93 115.14 177.39 111.38 C 183.25 107.66 190.17 106.25 196.98 105.42 Z" />
<path fill="#030100" stroke="#030100" stroke-width="0.09375" opacity="1.00" d=" M 58.98 122.69 C 67.69 120.34 76.23 117.24 85.04 115.35 C 81.09 117.40 76.54 117.84 72.34 119.20 C 67.87 120.31 63.57 122.12 58.98 122.69 Z" />
<path fill="#030100" stroke="#030100" stroke-width="0.09375" opacity="1.00" d=" M 46.97 126.63 C 48.75 125.24 51.06 124.87 53.21 124.42 C 51.90 125.32 50.29 125.58 48.78 125.96 C 48.33 126.13 47.43 126.46 46.97 126.63 Z" />
<path fill="#030100" stroke="#030100" stroke-width="0.09375" opacity="1.00" d=" M 69.95 128.96 C 73.63 127.47 77.06 125.32 80.86 124.16 C 87.64 124.36 94.39 125.18 101.15 125.70 C 92.73 130.86 83.18 133.96 74.29 138.27 C 72.67 138.88 71.05 140.22 69.22 139.65 C 64.47 138.44 59.77 137.06 55.03 135.81 C 59.54 132.61 65.00 131.31 69.95 128.96 M 80.56 125.88 L 80.30 126.41 C 75.17 128.16 70.27 130.47 65.25 132.46 C 63.37 133.20 61.36 133.83 59.90 135.30 C 62.92 136.03 65.88 137.04 68.94 137.56 C 70.77 137.12 72.45 136.25 74.11 135.41 C 75.59 134.85 77.04 134.21 78.48 133.56 C 80.55 132.74 82.61 131.89 84.61 130.91 C 87.27 129.58 89.99 128.42 92.76 127.31 C 92.72 127.17 92.66 126.87 92.63 126.72 C 88.93 126.60 85.25 126.04 81.55 126.10 C 81.30 126.05 80.81 125.93 80.56 125.88 Z" />
<path fill="#030100" stroke="#030100" stroke-width="0.09375" opacity="1.00" d=" M 30.99 134.85 C 33.11 132.88 35.46 130.59 38.57 130.68 C 38.64 130.98 38.80 131.59 38.88 131.90 C 36.85 134.05 33.78 134.50 30.99 134.85 Z" />
<path fill="#030100" stroke="#030100" stroke-width="0.09375" opacity="1.00" d=" M 129.15 136.00 C 130.94 135.84 133.26 134.61 134.65 136.32 C 134.70 138.05 135.64 141.51 132.98 141.59 C 131.65 141.74 130.33 141.41 129.02 141.24 C 129.06 139.49 129.10 137.74 129.15 136.00 M 130.87 136.85 C 130.86 137.75 130.86 139.56 130.85 140.46 C 131.66 140.43 133.29 140.36 134.10 140.33 C 134.11 139.53 134.12 137.95 134.12 137.16 C 133.31 137.08 131.68 136.93 130.87 136.85 Z" />
<path fill="#030100" stroke="#030100" stroke-width="0.09375" opacity="1.00" d=" M 49.01 147.95 C 52.40 146.53 55.65 144.52 59.35 144.02 C 54.21 148.08 47.57 149.49 41.72 152.24 C 43.57 150.02 46.82 149.81 49.01 147.95 Z" />
<path fill="#030100" stroke="#030100" stroke-width="0.09375" opacity="1.00" d=" M 129.02 168.96 C 130.67 168.85 132.25 168.30 133.90 168.12 L 134.37 168.38 C 140.65 168.97 146.87 169.64 153.20 169.24 C 151.95 171.85 148.32 170.54 146.02 171.15 C 142.20 172.05 138.79 169.57 135.00 170.13 C 115.39 171.24 95.78 172.17 76.18 173.31 C 79.88 172.19 83.80 172.51 87.58 171.85 C 101.39 170.89 115.18 169.48 129.02 168.96 Z" />
<path fill="#030100" stroke="#030100" stroke-width="0.09375" opacity="1.00" d=" M 59.45 183.03 C 59.03 180.29 58.94 177.47 59.59 174.76 C 59.95 177.50 59.93 180.30 59.45 183.03 Z" />
</g>
<g id="#eb4c32ff">
<path fill="#eb4c32" stroke="#eb4c32" stroke-width="0.09375" opacity="1.00" d=" M 1.42 102.18 C 2.96 102.51 4.51 102.80 6.07 103.08 C 6.11 103.72 6.19 104.99 6.22 105.63 C 7.91 105.92 9.60 106.23 11.28 106.55 C 8.54 109.05 5.30 111.00 2.86 113.84 C 4.76 113.20 6.64 112.50 8.55 111.88 C 6.32 114.78 3.02 116.41 0.00 118.31 L 0.00 113.28 C 0.71 112.74 1.44 112.21 2.16 111.69 C 2.63 110.94 3.10 110.18 3.56 109.42 C 3.00 109.15 2.51 108.78 2.08 108.33 C 2.75 107.70 3.42 107.07 4.09 106.45 C 2.73 106.28 1.37 106.12 0.00 105.96 L 0.00 104.98 C 1.66 105.01 3.33 105.05 4.99 105.09 C 3.80 104.12 2.60 103.16 1.42 102.18 Z" />
</g>
<g id="#e0653fff">
<path fill="#e0653f" stroke="#e0653f" stroke-width="0.09375" opacity="1.00" d=" M 0.00 105.96 C 1.37 106.12 2.73 106.28 4.09 106.45 C 3.42 107.07 2.75 107.70 2.08 108.33 C 2.51 108.78 3.00 109.15 3.56 109.42 C 3.10 110.18 2.63 110.94 2.16 111.69 C 1.44 112.21 0.71 112.74 0.00 113.28 L 0.00 105.96 Z" />
</g>
<g id="#f17151ff">
<path fill="#f17151" stroke="#f17151" stroke-width="0.09375" opacity="1.00" d=" M 0.74 128.97 C 4.99 126.19 8.84 122.86 12.66 119.53 C 13.51 120.18 14.36 120.82 15.22 121.47 C 19.86 121.21 24.44 120.34 29.07 120.04 C 31.50 120.53 33.25 122.56 35.22 123.92 C 28.12 127.94 19.42 129.77 13.92 136.16 C 12.33 136.68 10.74 137.20 9.15 137.75 C 8.68 136.89 8.00 136.24 7.12 135.81 C 6.45 136.85 5.81 137.90 5.20 138.98 C 3.48 137.10 2.12 134.94 0.93 132.70 C 0.87 131.45 0.81 130.21 0.74 128.97 Z" />
</g>
<g id="#feffffff">
<path fill="#feffff" stroke="#feffff" stroke-width="0.09375" opacity="1.00" d=" M 30.73 127.40 C 35.53 125.55 39.93 121.52 45.36 122.19 C 40.63 125.28 35.48 128.05 29.80 128.81 L 30.73 127.40 Z" />
<path fill="#feffff" stroke="#feffff" stroke-width="0.09375" opacity="1.00" d=" M 65.25 132.46 C 70.27 130.47 75.17 128.16 80.30 126.41 C 79.79 127.45 79.27 128.49 78.76 129.52 C 78.67 130.87 78.57 132.21 78.48 133.56 C 77.04 134.21 75.59 134.85 74.11 135.41 C 70.85 135.80 67.40 135.11 65.25 132.46 Z" />
</g>
<g id="#c7be92ff">
<path fill="#c7be92" stroke="#c7be92" stroke-width="0.09375" opacity="1.00" d=" M 80.56 125.88 C 80.81 125.93 81.30 126.05 81.55 126.10 C 82.77 126.40 84.00 126.69 85.23 126.97 C 85.03 128.29 84.82 129.60 84.61 130.91 C 82.61 131.89 80.55 132.74 78.48 133.56 C 78.57 132.21 78.67 130.87 78.76 129.52 C 79.27 128.49 79.79 127.45 80.30 126.41 L 80.56 125.88 Z" />
</g>
<g id="#fffdf2ff">
<path fill="#fffdf2" stroke="#fffdf2" stroke-width="0.09375" opacity="1.00" d=" M 81.55 126.10 C 85.25 126.04 88.93 126.60 92.63 126.72 C 92.66 126.87 92.72 127.17 92.76 127.31 C 89.99 128.42 87.27 129.58 84.61 130.91 C 84.82 129.60 85.03 128.29 85.23 126.97 C 84.00 126.69 82.77 126.40 81.55 126.10 Z" />
</g>
<g id="#5d5648ff">
<path fill="#5d5648" stroke="#5d5648" stroke-width="0.09375" opacity="1.00" d=" M 208.70 138.76 C 211.21 133.45 215.36 127.16 222.01 127.50 C 227.30 127.45 230.65 132.43 231.98 136.98 C 229.69 134.37 227.85 130.63 224.08 130.04 C 219.25 129.07 214.58 132.12 212.05 136.07 C 206.33 144.88 205.23 155.67 204.71 165.91 C 206.20 170.87 207.42 176.22 211.19 180.04 C 211.26 181.03 211.32 182.02 211.39 183.02 C 212.45 181.70 213.60 181.71 214.85 183.05 C 214.43 183.48 213.60 184.33 213.19 184.76 C 215.83 185.69 218.76 186.00 221.24 184.43 C 220.14 183.88 219.05 183.34 217.96 182.79 C 218.80 181.01 219.99 178.18 222.48 179.49 C 222.64 180.34 222.95 182.04 223.11 182.88 C 225.80 180.58 227.76 177.41 228.43 173.91 C 228.08 171.21 225.54 168.95 226.49 166.05 C 226.49 164.10 228.07 161.64 226.07 160.19 C 226.33 158.41 226.59 156.64 226.77 154.85 C 226.80 156.78 226.49 158.83 227.41 160.62 C 228.44 157.10 228.89 153.46 229.34 149.83 C 231.75 149.61 232.72 151.55 233.44 153.50 C 235.54 154.69 234.83 157.12 234.66 159.10 C 233.39 167.44 231.35 176.22 225.44 182.60 C 222.50 185.72 218.27 188.99 213.73 187.30 C 207.37 184.70 204.91 177.40 203.66 171.20 C 202.37 160.22 203.38 148.63 208.70 138.76 Z" />
</g>
<g id="#f27562ff">
<path fill="#f27562" stroke="#f27562" stroke-width="0.09375" opacity="1.00" d=" M 0.00 129.46 L 0.74 128.97 C 0.81 130.21 0.87 131.45 0.93 132.70 C 2.12 134.94 3.48 137.10 5.20 138.98 C 5.81 137.90 6.45 136.85 7.12 135.81 C 8.00 136.24 8.68 136.89 9.15 137.75 C 9.69 143.35 13.93 147.57 15.06 152.98 C 15.58 155.57 16.93 157.85 17.84 160.30 C 15.36 160.90 12.82 161.19 10.37 161.89 C 11.05 165.08 12.07 168.19 12.86 171.36 C 8.57 171.52 4.29 171.67 0.00 171.78 L 0.00 129.46 Z" />
</g>
<g id="#929087ff">
<path fill="#929087" stroke="#929087" stroke-width="0.09375" opacity="1.00" d=" M 59.90 135.30 C 61.36 133.83 63.37 133.20 65.25 132.46 C 67.40 135.11 70.85 135.80 74.11 135.41 C 72.45 136.25 70.77 137.12 68.94 137.56 C 65.88 137.04 62.92 136.03 59.90 135.30 Z" />
</g>
<g id="#908b87ff">
<path fill="#908b87" stroke="#908b87" stroke-width="0.09375" opacity="1.00" d=" M 217.50 136.47 C 219.38 133.93 223.83 133.46 225.58 136.37 C 227.84 140.30 227.76 145.04 227.59 149.43 C 226.73 150.09 225.87 150.75 225.01 151.41 C 225.80 152.41 227.27 153.34 226.77 154.85 C 226.59 156.64 226.33 158.41 226.07 160.19 C 225.52 164.60 223.77 168.71 222.00 172.74 C 221.26 172.80 219.78 172.92 219.04 172.98 C 218.80 173.57 218.34 174.74 218.10 175.32 C 216.62 174.67 215.01 174.19 213.71 173.19 C 212.17 170.98 215.75 169.31 215.45 167.03 C 215.85 163.71 212.51 162.30 209.92 161.57 C 211.40 159.65 213.76 157.81 213.06 155.06 C 212.16 148.65 213.36 141.60 217.50 136.47 M 216.43 147.49 C 213.50 149.98 214.35 156.28 219.00 155.59 C 221.21 153.79 221.28 150.36 219.97 148.02 C 219.37 146.63 217.34 145.98 216.43 147.49 Z" />
</g>
<g id="#696866ff">
<path fill="#696866" stroke="#696866" stroke-width="0.09375" opacity="1.00" d=" M 210.18 143.99 C 212.02 144.30 210.88 148.12 209.23 147.52 C 208.43 146.44 208.84 144.44 210.18 143.99 Z" />
</g>
<g id="#010102ff">
<path fill="#010102" stroke="#010102" stroke-width="0.09375" opacity="1.00" d=" M 216.43 147.49 C 217.34 145.98 219.37 146.63 219.97 148.02 C 221.28 150.36 221.21 153.79 219.00 155.59 C 214.35 156.28 213.50 149.98 216.43 147.49 Z" />
</g>
<g id="#3d3d3dff">
<path fill="#3d3d3d" stroke="#3d3d3d" stroke-width="0.09375" opacity="1.00" d=" M 209.17 164.23 C 212.49 164.52 207.51 167.15 209.17 164.23 Z" />
</g>
<g id="#fab041ff">
<path fill="#fab041" stroke="#fab041" stroke-width="0.09375" opacity="1.00" d=" M 30.01 165.08 C 33.10 166.93 36.30 168.68 38.94 171.16 C 39.29 173.78 35.26 174.50 33.49 173.37 C 31.12 171.34 30.78 167.93 30.01 165.08 M 33.20 169.40 C 32.21 170.75 34.45 172.70 35.68 171.59 C 36.62 170.25 34.41 168.44 33.20 169.40 Z" />
</g>
<g id="#fbd364ff">
<path fill="#fbd364" stroke="#fbd364" stroke-width="0.09375" opacity="1.00" d=" M 33.20 169.40 C 34.41 168.44 36.62 170.25 35.68 171.59 C 34.45 172.70 32.21 170.75 33.20 169.40 Z" />
</g>
<g id="#6e6c6bff">
<path fill="#6e6c6b" stroke="#6e6c6b" stroke-width="0.09375" opacity="1.00" d=" M 215.98 183.42 C 217.40 183.10 217.90 183.62 217.47 184.99 C 216.04 185.31 215.55 184.79 215.98 183.42 Z" />
</g>
</svg>
