<svg xmlns="http://www.w3.org/2000/svg" xml:space="preserve" id="Layer_1" x="0" y="0" style="enable-background:new 0 0 341 129" version="1.1" viewBox="0 0 341 129"><style>.st1{fill:#00bcf2}.st2{fill:#050708}</style><path id="_x23_ffffffff" d="m32.8 45.4 52.2-.1c6.4-.3 12.8 4.2 14.5 10.5 2.3 6.5-.9 14.5-7.2 17.5-3.5 2.1-7.6 1.9-11.5 2.4-1.3 2.6-.5 6.1-2.6 8.4-1.4 1.8-3.8 2.5-6.1 2.3-10.4-.1-20.7.1-31.1.3-3.2.2-7.6-.8-8-4.7-.4-12.2-.1-24.4-.2-36.6m47.5 5.7c-.4 5.9 0 11.8-.2 17.7l1.8 1.9c3.1.2 6.6.6 9.2-1.6 6.4-4.3 5.9-15.9-1.7-18.7-2.8-.5-6.9-2-9.1.7m-36.1 4.1c-4.3 3.2-3 9.8.4 13.2 3.9 4 7.7 8 12.2 11.2 4.2-4.1 8.6-8 12.4-12.4 3-3.5 3.2-9.9-1.1-12.4-3.7-2.5-8.4-.9-11.5 1.8-3.5-2.6-8.6-4.3-12.4-1.4z" style="fill:#fff"/><g id="_x23_00bcf2ff"><path d="M56.4 14.7A50.1 50.1 0 1 1 28 98.9a50 50 0 0 1 5.5-74.3 50.5 50.5 0 0 1 22.9-9.9M28.7 47v34a9.4 9.4 0 0 0 7 9.4c4.1.8 8.2.4 12.3.4 8.9-.4 17.9.1 26.8-.3 5.5-.6 8.8-5.7 9.4-10.8 6.5-.5 13.1-3 16.8-8.5 4.2-6.1 4.1-14.5.6-20.8a19 19 0 0 0-16.7-9.2h-52c-3.1-.2-4.3 3.2-4.2 5.8z" class="st1"/><path d="M84.4 66.9c0-4.5-.1-9 .1-13.5 3.4.4 7.2 2.5 7 6.4a6.7 6.7 0 0 1-7.1 7.1z" class="st1"/></g><g id="_x23_6d6e71ff"><path d="M115.4 25.4c-.8-6.4 7.3-9.1 12.3-7 1.8.8 5.5 2.4 3.5 5-3.4-.9-7-3.7-10.5-2-.9 1.3-1.7 2.6-2.4 4.1 3.8 2.5 8.8 2.5 12.3 5.4 3.1 4.1-.7 9.4-5.2 9.8-4.2.5-10.5-.1-11.3-5.4 4.1.9 8.4 3.8 12.6 1.8.7-1.3 1.2-2.6 1.7-3.9-4.1-2.6-11.8-1.8-13-7.8zM222.4 19.7c3.1 0 3 3 3.3 5.4h4.3l-.4 2.9-4.3-.1c.1 3.1.1 6.3.4 9.4l4.1 1.3c.1.5.1 1.7.3 2.2-2.6 0-6.2.4-7.6-2.4-.9-3.1-.4-6.6-.5-9.8-1.4-.9-2.9-1.8-4.1-3.1l4.1-.5.4-5.3zM135.4 24.7l3-.1c.4 4.1.3 8.1.9 12.2 1.7 1.6 3.7.7 5.4-.4 1.7-3.7.8-7.9.9-11.7l3.3.3c.3 4.9.4 9.7 0 14.6-.8 1.8-2.8 1-3.5-.4-2.9 1.6-7.2 2.5-9.3-.7-1.7-4.2-.7-9.1-.7-13.8zM175.9 26c2.1-.9 4.6-2.4 7-1.2 6 2.9 6 12.9-.1 15.6-2.6 1-5.1-.5-7.5-1.6v7.3h-3.1c0-7.1-.3-14 0-21.1 1.3-.4 2.6-.1 3.7 1m1.4 2.1c-2.2 1.6-2.4 5-1.4 7.3 1.2 3.8 7.5 2.9 7.6-1 1.4-3.6-2.5-9.1-6.2-6.3zM197 24.5c7.5-.8 11.1 10.1 5.4 14.6-4.3 4.6-13.2.7-12.7-5.6-.7-4.4 2.8-9 7.3-9m-1.7 13.2c2 .3 4.5.5 5.4-1.6 2-3.3.3-7.2-2.6-9.3-5.2.8-6.8 7.8-2.8 10.9zM269.2 39.2c-5.5-4.6-1.8-15.6 5.8-14.7 4.3 0 5.8 4.5 6.7 7.7-3.7 2-8 1.2-11.9 1.4.9 1.3 1.4 3.1 3 3.8 2.9.7 5.6-.8 8.5-1.2-1 5.4-8.5 5.7-12.1 3m.7-8h8.5c-.9-1.7-2.1-4.1-4.5-3.7-2 .1-3.1 2.1-4 3.7zM296.8 24.9c5.2-2 11.1 2.9 10.4 8.4.3 5.9-7.2 9.8-12.1 6.4-5.4-3.4-4.5-12.9 1.7-14.8m-.1 3.5c-2.1 2.4-1.7 6.2-.1 8.7 2.9 2.1 7.5.1 7-3.7.9-4-3.5-8-6.9-5zM153.6 46.6c0-7.5-1-15.1.5-22.4 3 3.8 7.2-1.2 10.8 1 4.7 3 5.4 10.6.9 14.2-2.6 2.6-6.6 1-9.3-.4-.3 2.8 1.6 8-2.9 7.6m5.2-18.6c-3.3 2.4-2.6 10.5 2.4 9.8 6.6-.1 4.2-13.6-2.4-9.8z"/><path d="M208.1 38.6c0-5-1-10.2 1.4-14.8l2 2.4c2.5-.8 5.5-2.8 7 .8-1.8.5-3.5 1-5.2 1.7-2.4 3.4-.8 7.7-1.8 11.4-.5 1.8-4 .2-3.4-1.5zM240.8 40.1c0-5.2-1.8-11.5 1.4-16.1l1.8 2.2a7.2 7.2 0 0 1 9.2.5c2.8-2.1 8-3.7 9.7.5 1 4.5.4 9.1.3 13.5a38 38 0 0 0-3-.3c.1-4.2 0-8.5-.7-12.7-1.7.4-4.3-.3-5.4 1.7-.9 3.7-.5 7.6-.5 11.4-5.6.4-2.2-7.1-3.5-10.4.1-3.4-3.7-2.8-5.8-1.8-.5 4.2-.7 8.4-.9 12.5l-2.6-1zM310.3 35.9c.3-4.1-.8-8.5 1.6-12.1l1.8 2.5c3-1.3 6.7-3 9.4-.3 2.4 4.3 1 9.7 1.3 14.4l-3.1.1c-1-3.8 0-7.9-1-11.7-1.4-2.4-4.5-1-6 .4-.7 3.8.4 7.9-1.2 11.4-3.2 1-2.8-2.8-2.8-4.7z"/></g><g id="_x23_050708ff"><path d="M28.7 47c-.1-2.6 1.1-6 4.3-5.7h52c6.7-.3 13.4 3.3 16.7 9.2a20.2 20.2 0 0 1-.6 20.8 21.7 21.7 0 0 1-16.8 8.5c-.6 5.1-3.9 10.2-9.4 10.8-9 .3-17.9-.3-26.9.2-4.1 0-8.3.4-12.3-.4a9.4 9.4 0 0 1-7-9.4V47m4.1-1.6c.1 12.2-.2 24.4.1 36.6.4 3.9 4.8 4.9 8 4.7 10.4-.2 20.7-.4 31.1-.3a7 7 0 0 0 6.1-2.3c2.1-2.3 1.3-5.8 2.6-8.4 3.9-.5 8-.3 11.5-2.4 6.3-3 9.4-10.9 7.2-17.5-1.6-6.3-8-10.8-14.5-10.5l-52.1.1z" class="st2"/><path d="M80.3 51.1c2.1-2.7 6.2-1.3 9.1-.7 7.6 2.8 8.1 14.4 1.7 18.7-2.6 2.1-6.1 1.8-9.2 1.6-.7-.6-1.3-1.2-1.8-1.9.3-5.8-.2-11.8.2-17.7m4.1 15.8c3.9.1 7.4-3 7-7.1.3-3.9-3.6-6-7-6.4v13.5z" class="st2"/></g><g id="_x23_000000ff"><path d="M252.4 56.5c3.3-4.4 9.9-5.7 14.9-3.7 2.2.9 2.2 3.6 1.3 5.4l-2.4 1.2-4.2-.8-2.6.8c-.7 1.9-1 4-1.1 6l7.5.2c2.2 1.8 2.6 5.9-.6 6.8-2.3.2-4.5.1-6.8.1-.1 7.6.2 15.1-.1 22.7.1 4.6-7.8 4.6-7.6-.1-.2-7.5 0-15-.1-22.5-1.8-.1-3.8.2-5.5-.5-1.8-1.6-2-4.9.2-6.2 1.7-.5 3.4-.4 5.2-.5.1-3.1 0-6.4 1.9-8.9zM166.4 60.4c2.6-2.4 4.7-5.5 8.2-6.6 1.6.9 2.9 2.3 3.5 4.1-.7 1.3-1.3 2.7-2.5 3.7-4.2 3.9-8.1 8-12.4 11.8 4.2 5.9 8.8 11.6 13.1 17.4 1 1.5 2.3 3.2 1.5 5.1-.9 2.8-5.2 3.7-6.9 1.2-4.8-5.8-9.1-12-13.8-17.9l-5.9 5.8c-.1 3.7.2 7.4-.1 11-1 3.8-8.1 3.1-7.7-1.1V58c-.4-4.1 6.9-5 7.7-1.1.3 6.1 0 12.1.1 18.2 5-4.9 10.3-9.6 15.2-14.7zM271.8 53.8c2.5-.5 5-.5 7.4 0 0 2.1.5 4.2-.2 6.2a7.5 7.5 0 0 1-7.1 0c-.7-2-.2-4.2-.1-6.2zM197.5 64.1c3.6.3 7.4.9 10.3 3.2 8.6 5.9 9.5 19.6 2.3 26.9-5.5 5.8-15 6.7-21.6 2.5-9.4-5.6-10.6-20.5-2.6-27.8 3-3.2 7.4-4.5 11.6-4.8m-2.9 7.6c-7.4 2.8-8.5 14.3-2 18.7 5.1 3.8 13.3.6 14.3-5.8 2.6-7.1-4.8-15.9-12.3-12.9zM273.4 65.4c2.4-2.1 6.3.4 6 3.5V92c0 2 .2 4.5-1.6 6-2.3 1.3-6.3.2-6-3V68.9c-.2-1.4.4-2.7 1.6-3.5zM219.9 79.4c.4-2.5 2.4-4.4 5-4 4.4.3 9.3-1.1 13.3 1.2l.8 2.9-1 2.7c-2.8 1.1-5.9.7-8.9.8-2.7 0-5.5.2-8-.8l-1.2-2.8z"/></g><path id="_x23_f15e5fff" d="M44.2 55.2c3.9-2.9 8.9-1.2 12.3 1.5 3.1-2.7 7.8-4.3 11.5-1.8 4.3 2.5 4.1 8.9 1.1 12.4-3.8 4.4-8.2 8.3-12.4 12.4a86.2 86.2 0 0 1-12.2-11.2c-3.3-3.5-4.6-10.1-.3-13.3z" style="fill:#f15e5f"/></svg>