<?xml version="1.0" encoding="UTF-8"?><svg id="Layer_1" xmlns="http://www.w3.org/2000/svg" viewBox="0 0 731 93.8"><rect x="395" y="13.9" width="162" height="66" style="fill:#fff; stroke-width:0px;"/><polygon points="731 93.8 565 79.9 565 13.9 731 0 731 93.8" style="fill:#fff; stroke-width:0px;"/><polygon points="386.74 80.09 0 93.69 0 0 386.74 13.6 386.74 80.09" style="fill:#fff; stroke-width:0px;"/><path d="m17.02,21.5l8.06,33.05-7.92,10.01L6.72,21.5h10.3Zm44.71,0h10.3l-12.31,50.4h-13.18l-7.2-30.67-7.06,30.67h-10.51l12.46-50.4h10.37l8.57,41.54,8.57-41.54Z" style="fill:#c4d8f0; stroke-width:0px;"/><path d="m74.9,21.5h9.58v8.42h-9.58v-8.42Zm0,50.4v-36h9.58v36h-9.58Z" style="fill:#c4d8f0; stroke-width:0px;"/><path d="m127.53,21.5v50.4h-9.65l.07-18.07c0-1.34-.28-2.62-.83-3.82-.55-1.2-1.27-2.24-2.16-3.13-.89-.89-1.94-1.58-3.17-2.09s-2.53-.76-3.92-.76-2.69.25-3.89.76c-1.2.5-2.24,1.21-3.13,2.12-.89.91-1.6,1.97-2.12,3.17-.53,1.2-.79,2.5-.79,3.89s.26,2.69.79,3.89c.53,1.2,1.23,2.24,2.12,3.13.89.89,1.93,1.6,3.13,2.12,1.2.53,2.5.79,3.89.79.67,0,1.34-.05,2.02-.14.67-.1,1.3-.29,1.87-.58h.14l3.53,6.48-.07.07c-2.35,1.83-5.23,2.74-8.64,2.74-2.59,0-5.02-.48-7.27-1.44-2.26-.96-4.22-2.28-5.9-3.96-1.68-1.68-3.01-3.65-4-5.9-.98-2.26-1.48-4.66-1.48-7.2s.49-4.94,1.48-7.2c.98-2.26,2.32-4.22,4-5.9,1.68-1.68,3.65-3,5.9-3.96,2.26-.96,4.68-1.44,7.27-1.44,4.9,0,8.64,1.82,11.23,5.47v-19.44h9.58Z" style="fill:#c4d8f0; stroke-width:0px;"/><path d="m149.78,35.32c2.54,0,4.94.49,7.2,1.48,2.26.98,4.22,2.32,5.9,4,1.68,1.68,3.01,3.65,4,5.9.98,2.26,1.48,4.68,1.48,7.27,0,1.39-.14,2.74-.43,4.03l-.07.14h-18.29l-4.61-7.34h13.68c-.67-2.02-1.79-3.67-3.35-4.97-1.56-1.3-3.4-1.94-5.51-1.94-1.3,0-2.52.26-3.67.79-1.15.53-2.15,1.23-2.99,2.12-.84.88-1.5,1.94-1.98,3.16-.48,1.22-.72,2.55-.72,3.98,0,1.1.22,2.24.65,3.41.43,1.17,1.06,2.24,1.87,3.19.82.96,1.8,1.76,2.95,2.4,1.15.65,2.45.97,3.89.97,1.3,0,2.48-.18,3.56-.54,1.08-.36,2.1-1.16,3.06-2.41l.07-.07.14.07,8.35,3.68-.14.15c-1.73,2.42-3.92,4.31-6.59,5.66-2.66,1.36-5.48,2.03-8.46,2.03-2.59,0-5.03-.48-7.31-1.44-2.28-.96-4.26-2.28-5.94-3.96-1.68-1.68-3.01-3.65-4-5.9-.98-2.26-1.48-4.66-1.48-7.2s.49-5.02,1.48-7.27c.98-2.26,2.32-4.22,4-5.9s3.66-3.01,5.94-4c2.28-.98,4.72-1.48,7.31-1.48Z" style="fill:#c4d8f0; stroke-width:0px;"/><path d="m187.15,50.52c1.58.53,3.04,1.07,4.36,1.62,1.32.55,2.47,1.21,3.46,1.98.98.77,1.75,1.69,2.3,2.77.55,1.08.83,2.36.83,3.85v.07c0,3.65-1.21,6.5-3.64,8.57-2.42,2.06-5.82,3.1-10.19,3.1-2.74,0-5.42-.47-8.06-1.42-2.64-.94-5.11-2.29-7.42-4.03l-.07-.07.07-.07,4.9-7.73.07.07c1.44,1.54,3.07,2.7,4.9,3.49,1.82.79,3.77,1.19,5.83,1.19,2.83,0,4.25-.91,4.25-2.73,0-.86-.46-1.51-1.37-1.94-.91-.43-1.99-.84-3.24-1.22-.24-.09-.47-.15-.68-.18-.22-.02-.44-.08-.68-.18-1.44-.38-2.88-.8-4.32-1.26-1.44-.45-2.74-1.08-3.89-1.87-1.15-.79-2.1-1.79-2.84-3.02-.75-1.22-1.12-2.79-1.12-4.71v-.14c0-1.68.31-3.21.94-4.6.62-1.39,1.51-2.59,2.66-3.59,1.15-1.01,2.54-1.78,4.18-2.33,1.63-.55,3.43-.83,5.4-.83,2.3,0,4.63.35,6.98,1.04,2.35.7,4.54,1.72,6.55,3.06v.14l-4.39,7.99-.07-.07c-1.1-1.1-2.47-1.98-4.1-2.63-1.63-.65-3.36-.97-5.18-.97-.34,0-.72.02-1.15.07-.43.05-.83.17-1.19.36-.36.19-.66.44-.9.76-.24.31-.36.76-.36,1.33,0,.43.19.83.58,1.19.38.36.88.7,1.48,1.01.6.31,1.27.61,2.02.9.74.29,1.48.55,2.2.79.14,0,.3.02.47.07.17.05.32.1.47.14Z" style="fill:#c4d8f0; stroke-width:0px;"/><path d="m227.4,58.15l7.78,5.11-.07.07c-1.68,2.88-3.95,5.14-6.8,6.77-2.86,1.63-5.94,2.45-9.25,2.45-2.59,0-5.02-.49-7.27-1.48-2.26-.98-4.22-2.32-5.9-4-1.68-1.68-3.01-3.65-4-5.9-.98-2.26-1.48-4.66-1.48-7.2s.49-4.94,1.48-7.2c.98-2.26,2.32-4.22,4-5.9,1.68-1.68,3.65-3.01,5.9-4,2.26-.98,4.68-1.48,7.27-1.48,3.31,0,6.4.82,9.25,2.45,2.86,1.63,5.12,3.89,6.8,6.77l.07.07-7.85,5.11-.07-.07c-.77-1.78-1.88-3.22-3.35-4.32-1.46-1.1-3.08-1.66-4.86-1.66-1.3,0-2.51.28-3.64.83-1.13.55-2.1,1.3-2.92,2.23-.82.94-1.46,2.02-1.94,3.24-.48,1.22-.72,2.53-.72,3.92s.24,2.69.72,3.89c.48,1.2,1.13,2.24,1.94,3.13.82.89,1.79,1.58,2.92,2.09,1.13.5,2.34.76,3.64.76,1.78,0,3.4-.49,4.86-1.48,1.46-.98,2.58-2.36,3.35-4.14l.07-.14.07.07Z" style="fill:#c4d8f0; stroke-width:0px;"/><path d="m267.43,37.34l-.86,1.44-3.67,6.55-.07-.07c-1.58-.91-3.29-1.37-5.11-1.37-1.25,0-2.42.2-3.53.61-1.1.41-2.09.98-2.95,1.73-.86.74-1.6,1.62-2.2,2.63-.6,1.01-1,2.09-1.19,3.24v19.8h-9.79v-36h9.79v4.68c2.54-3.5,6.26-5.26,11.16-5.26,2.88,0,5.66.67,8.35,2.02h.07Z" style="fill:#c4d8f0; stroke-width:0px;"/><path d="m283.2,35.32c2.54,0,4.94.49,7.2,1.48,2.26.98,4.22,2.32,5.9,4,1.68,1.68,3.01,3.65,4,5.9.98,2.26,1.48,4.68,1.48,7.27,0,1.39-.14,2.74-.43,4.03l-.07.14h-18.29l-4.61-7.34h13.68c-.67-2.02-1.79-3.67-3.35-4.97-1.56-1.3-3.4-1.94-5.51-1.94-1.3,0-2.52.26-3.67.79-1.15.53-2.15,1.23-2.99,2.12-.84.88-1.5,1.94-1.98,3.16-.48,1.22-.72,2.55-.72,3.98,0,1.1.22,2.24.65,3.41.43,1.17,1.06,2.24,1.87,3.19.82.96,1.8,1.76,2.95,2.4,1.15.65,2.45.97,3.89.97,1.3,0,2.48-.18,3.56-.54,1.08-.36,2.1-1.16,3.06-2.41l.07-.07.14.07,8.35,3.68-.14.15c-1.73,2.42-3.92,4.31-6.59,5.66-2.66,1.36-5.48,2.03-8.46,2.03-2.59,0-5.03-.48-7.31-1.44-2.28-.96-4.26-2.28-5.94-3.96-1.68-1.68-3.01-3.65-4-5.9-.98-2.26-1.48-4.66-1.48-7.2s.49-5.02,1.48-7.27c.98-2.26,2.32-4.22,4-5.9s3.66-3.01,5.94-4c2.28-.98,4.72-1.48,7.31-1.48Z" style="fill:#c4d8f0; stroke-width:0px;"/><path d="m323.37,35.32c2.54,0,4.94.49,7.2,1.48,2.26.98,4.22,2.32,5.9,4,1.68,1.68,3.01,3.65,4,5.9.98,2.26,1.48,4.68,1.48,7.27,0,1.39-.14,2.74-.43,4.03l-.07.14h-18.29l-4.61-7.34h13.68c-.67-2.02-1.79-3.67-3.35-4.97-1.56-1.3-3.4-1.94-5.51-1.94-1.3,0-2.52.26-3.67.79-1.15.53-2.15,1.23-2.99,2.12-.84.88-1.5,1.94-1.98,3.16-.48,1.22-.72,2.55-.72,3.98,0,1.1.22,2.24.65,3.41.43,1.17,1.06,2.24,1.87,3.19.82.96,1.8,1.76,2.95,2.4,1.15.65,2.45.97,3.89.97,1.3,0,2.48-.18,3.56-.54,1.08-.36,2.1-1.16,3.06-2.41l.07-.07.14.07,8.35,3.68-.14.15c-1.73,2.42-3.92,4.31-6.59,5.66-2.66,1.36-5.48,2.03-8.46,2.03-2.59,0-5.03-.48-7.31-1.44-2.28-.96-4.26-2.28-5.94-3.96-1.68-1.68-3.01-3.65-4-5.9-.98-2.26-1.48-4.66-1.48-7.2s.49-5.02,1.48-7.27c.98-2.26,2.32-4.22,4-5.9s3.66-3.01,5.94-4c2.28-.98,4.72-1.48,7.31-1.48Z" style="fill:#c4d8f0; stroke-width:0px;"/><path d="m345.55,35.9h9.79v36h-9.79v-36Zm33.26,4.18c1.2,1.49,2.06,3.36,2.59,5.62.53,2.26.79,5.04.79,8.35v17.86h-9.79v-17.9c0-1.35-.04-2.63-.11-3.86-.07-1.23-.32-2.31-.76-3.25-.43-.94-1.13-1.67-2.09-2.2-.96-.53-2.33-.79-4.1-.79-1.68,0-3.24.36-4.68,1.08v.07l-.07-.07-3.53-6.22.07-.07c2.5-2.24,5.62-3.36,9.36-3.36,5.76,0,9.86,1.58,12.31,4.75Z" style="fill:#c4d8f0; stroke-width:0px;"/><path d="m400.92,21.43h34.06v8.57h-23.9v41.9h-10.15V21.43Zm16.63,30.24l-4.68-9.36h15.98v9.36h-11.3Z" style="fill:#e270aa; stroke-width:0px;"/><path d="m437.85,21.5h9.58v8.42h-9.58v-8.42Zm0,50.4v-36h9.58v36h-9.58Z" style="fill:#e270aa; stroke-width:0px;"/><path d="m450.31,71.9l9.65-13.1,8.78,4.03-6.7,9.07h-11.74Zm24.91-17.86l13.25,17.86h-11.81v-.07l-13.1-17.71-13.18-18.22h11.66l7.27,12.24,7.34-12.24h11.81l-.14.07-13.1,18.07Z" style="fill:#e270aa; stroke-width:0px;"/><path d="m503.88,35.32c2.54,0,4.94.49,7.2,1.48,2.25.98,4.22,2.32,5.9,4,1.68,1.68,3.01,3.65,4,5.9.98,2.26,1.48,4.68,1.48,7.27,0,1.39-.14,2.74-.43,4.03l-.07.14h-18.29l-4.61-7.34h13.68c-.67-2.02-1.79-3.67-3.35-4.97-1.56-1.3-3.4-1.94-5.51-1.94-1.3,0-2.52.26-3.67.79-1.15.53-2.15,1.23-2.99,2.12-.84.88-1.5,1.94-1.98,3.16-.48,1.22-.72,2.55-.72,3.98,0,1.1.22,2.24.65,3.41.43,1.17,1.05,2.24,1.87,3.19.82.96,1.8,1.76,2.95,2.4,1.15.65,2.45.97,3.89.97,1.3,0,2.48-.18,3.56-.54,1.08-.36,2.1-1.16,3.06-2.41l.07-.07.14.07,8.35,3.68-.14.15c-1.73,2.42-3.92,4.31-6.59,5.66-2.66,1.36-5.48,2.03-8.46,2.03-2.59,0-5.03-.48-7.31-1.44-2.28-.96-4.26-2.28-5.94-3.96-1.68-1.68-3.01-3.65-4-5.9-.98-2.26-1.48-4.66-1.48-7.2s.49-5.02,1.48-7.27c.98-2.26,2.32-4.22,4-5.9s3.66-3.01,5.94-4c2.28-.98,4.72-1.48,7.31-1.48Z" style="fill:#e270aa; stroke-width:0px;"/><path d="m541.24,50.52c1.58.53,3.04,1.07,4.36,1.62,1.32.55,2.47,1.21,3.46,1.98.98.77,1.75,1.69,2.3,2.77.55,1.08.83,2.36.83,3.85v.07c0,3.65-1.21,6.5-3.64,8.57s-5.82,3.1-10.19,3.1c-2.74,0-5.42-.47-8.06-1.42-2.64-.94-5.11-2.29-7.42-4.03l-.07-.07.07-.07,4.9-7.73.07.07c1.44,1.54,3.07,2.7,4.9,3.49,1.82.79,3.77,1.19,5.83,1.19,2.83,0,4.25-.91,4.25-2.73,0-.86-.46-1.51-1.37-1.94-.91-.43-1.99-.84-3.24-1.22-.24-.09-.47-.15-.68-.18-.22-.02-.44-.08-.68-.18-1.44-.38-2.88-.8-4.32-1.26-1.44-.45-2.74-1.08-3.89-1.87-1.15-.79-2.1-1.79-2.84-3.02-.74-1.22-1.12-2.79-1.12-4.71v-.14c0-1.68.31-3.21.94-4.6.62-1.39,1.51-2.59,2.66-3.59,1.15-1.01,2.54-1.78,4.18-2.33,1.63-.55,3.43-.83,5.4-.83,2.3,0,4.63.35,6.98,1.04,2.35.7,4.54,1.72,6.55,3.06v.14l-4.39,7.99-.07-.07c-1.1-1.1-2.47-1.98-4.1-2.63-1.63-.65-3.36-.97-5.18-.97-.34,0-.72.02-1.15.07-.43.05-.83.17-1.19.36-.36.19-.66.44-.9.76-.24.31-.36.76-.36,1.33,0,.43.19.83.58,1.19.38.36.88.7,1.48,1.01.6.31,1.27.61,2.02.9.74.29,1.48.55,2.2.79.14,0,.3.02.47.07.17.05.32.1.47.14Z" style="fill:#e270aa; stroke-width:0px;"/><path d="m600.21,22.9c2.16.94,4.06,2.21,5.69,3.82,1.63,1.61,2.92,3.49,3.85,5.65.94,2.16,1.4,4.46,1.4,6.91s-.47,4.75-1.4,6.91c-.94,2.16-2.22,4.03-3.85,5.62-1.63,1.58-3.53,2.84-5.69,3.78-2.16.94-4.46,1.4-6.91,1.4h-5.62l-5.47-10.08h11.09c1.05,0,2.05-.2,2.99-.61.94-.41,1.74-.98,2.41-1.73.67-.74,1.21-1.63,1.62-2.66.41-1.03.61-2.17.61-3.42,0-1.06-.21-2.08-.61-3.06-.41-.98-.95-1.86-1.62-2.63-.67-.77-1.48-1.39-2.41-1.87-.94-.48-1.93-.72-2.99-.72h-12.74v41.69h-10.01V21.5h22.75c2.45,0,4.75.47,6.91,1.4Z" style="fill:#e0bf00; stroke-width:0px;"/><path d="m650.97,35.9v36h-9.43v-18.05c0-1.4-.26-2.69-.79-3.9-.53-1.2-1.26-2.26-2.2-3.18-.94-.91-2.02-1.62-3.24-2.13-1.22-.51-2.51-.76-3.85-.76s-2.69.27-3.89.8c-1.2.53-2.27,1.24-3.2,2.13-.94.89-1.67,1.95-2.2,3.18-.53,1.23-.79,2.54-.79,3.94s.26,2.63.79,3.83c.53,1.2,1.26,2.26,2.2,3.18.94.92,2,1.64,3.2,2.17,1.2.53,2.5.79,3.89.79,1.49,0,2.76-.26,3.82-.79h.07v.14l3.6,6.41-.07.07c-2.35,1.83-5.26,2.74-8.71,2.74-2.54,0-4.94-.48-7.2-1.44-2.26-.96-4.22-2.28-5.9-3.96-1.68-1.68-3.01-3.65-4-5.9-.98-2.26-1.48-4.66-1.48-7.2s.49-5.02,1.48-7.27c.98-2.26,2.32-4.22,4-5.9s3.65-3.01,5.9-4c2.25-.98,4.66-1.48,7.2-1.48s4.68.46,6.55,1.39,3.48,2.27,4.82,4.03v-4.85h9.43Z" style="fill:#e0bf00; stroke-width:0px;"/><path d="m681,58.15l7.78,5.11-.07.07c-1.68,2.88-3.95,5.14-6.8,6.77-2.86,1.63-5.94,2.45-9.25,2.45-2.59,0-5.02-.49-7.27-1.48-2.26-.98-4.22-2.32-5.9-4-1.68-1.68-3.01-3.65-4-5.9-.98-2.26-1.48-4.66-1.48-7.2s.49-4.94,1.48-7.2c.98-2.26,2.32-4.22,4-5.9,1.68-1.68,3.65-3.01,5.9-4,2.25-.98,4.68-1.48,7.27-1.48,3.31,0,6.4.82,9.25,2.45,2.86,1.63,5.12,3.89,6.8,6.77l.07.07-7.85,5.11-.07-.07c-.77-1.78-1.88-3.22-3.35-4.32-1.46-1.1-3.08-1.66-4.86-1.66-1.3,0-2.51.28-3.64.83-1.13.55-2.1,1.3-2.92,2.23-.82.94-1.46,2.02-1.94,3.24-.48,1.22-.72,2.53-.72,3.92s.24,2.69.72,3.89c.48,1.2,1.13,2.24,1.94,3.13.82.89,1.79,1.58,2.92,2.09,1.13.5,2.34.76,3.64.76,1.78,0,3.4-.49,4.86-1.48,1.46-.98,2.58-2.36,3.35-4.14l.07-.14.07.07Z" style="fill:#e0bf00; stroke-width:0px;"/><path d="m728.37,35.9c-4.51,4.46-8.62,8.54-12.31,12.24l-14.83,14.83v8.93h-9.58V21.5h9.58v29.02l15.26-14.62h11.88Zm-17.35,19.08c2.21,2.21,4,3.98,5.36,5.33,1.37,1.34,2.48,2.45,3.35,3.31.86.86,1.55,1.55,2.05,2.05.5.5,1.02,1.01,1.55,1.51.53.5,1.14,1.12,1.84,1.84.7.72,1.67,1.68,2.92,2.88h-11.81l-.07-.07-7.78-7.78,2.59-9.07Z" style="fill:#e0bf00; stroke-width:0px;"/></svg>