<svg xmlns="http://www.w3.org/2000/svg" viewBox="0 0 288.12 32.04"><title>logo-stroke</title><path d="M30.79,17.86l-.11,2.43c.09.14.16.21.23.21s.17-.12.35-.36.29-.35.34-.35h0a.35.35,0,0,0,.19-.11c.09-.07.15-.11.19-.11s.17.12.17.36a3.67,3.67,0,0,1,0,.39,2.53,2.53,0,0,0,0,.4c0,.19.09.28.25.28h0s.07-.12.14-.36l.24-.8q.13-.45.27-.78c.09-.23.17-.34.24-.34s.13.24.13.71,0,.61.06.61.11-.09.19-.27a5.05,5.05,0,0,1,.32-.59.58.58,0,0,1,.45-.32c.23,0,.38.18.46.53l-.08.68-1.34,5.72-1.77,8.14-.94,7A6.39,6.39,0,0,1,30.49,42a.6.6,0,0,1-.56.46c-.22,0-.37-.17-.46-.5a1.58,1.58,0,0,0-.38-1.12,1.14,1.14,0,0,0-.83-.42c-.12,0-.26-.12-.4-.37a7,7,0,0,1-.4-1c-.13-.38-.27-.8-.41-1.26s-.28-.93-.42-1.38l-1.21-3.86c-.07-.19-.14-.28-.21-.28s-.12.06-.17.18l-.33.82-2,6.85-.21.25s0,0-.08,0-.22-.15-.2-.46,0-.52,0-.61-.06-.25-.19-.25h0l-.67,1.16c-.17.3-.33.57-.48.8a2.27,2.27,0,0,1-.25.36q-.12,0-.42.27a1.33,1.33,0,0,1-.33.27s-.08-.08-.14-.24-.13-.35-.22-.59-.17-.48-.26-.75l-.24-.67-.94-4.4c-.17-.76-.32-1.5-.47-2.21s-.28-1.39-.41-2c-.06-.31-.16-.77-.27-1.39s-.25-1.38-.44-2.28l-1-5-.12-1.68a1.62,1.62,0,0,1,0-.53c0-.19.07-.34.09-.43h.07c.07,0,.14.08.2.23a2,2,0,0,0,.15.27l.42,0c.07,0,.19.37.38,1.11,0,.14.12.44.25.89s.25.89.38,1.32a7.35,7.35,0,0,0,.37,1c.11.24.16.19.16-.14a7.63,7.63,0,0,0-.08-1.14c-.05-.41-.11-.8-.18-1.18s-.12-.72-.17-1a3.5,3.5,0,0,1-.09-.64c0-.6.08-.9.23-.9s.24.14.35.4.21.39.32.39a.42.42,0,0,1,.36.25l.28.5a.74.74,0,0,0,.26.32c.08.05.19-.05.31-.29s.2-.36.27-.37.13.05.18.18a3.13,3.13,0,0,1,.14.5,3.09,3.09,0,0,0,.18.59h.05c.07,0,.21-.16.44-.47a12,12,0,0,1,.36,1.61c.15.83.3,1.63.47,2.39h0c.1,0,.26-.34.47-1s.46-1.45.72-2.29.54-1.59.82-2.28.53-1,.75-1c.07,0,.16.06.26.18s.18.18.24.18a3.44,3.44,0,0,1,.22-.29c.13-.17.29-.36.47-.57s.31-.32.4-.32.23.11.37.35a7.06,7.06,0,0,1,.43.87c.15.35.29.73.43,1.14s.26.77.35,1.1c0,.05.06.28.16.7s.23.87.37,1.36.27.93.4,1.34.23.6.28.6h.05a14.09,14.09,0,0,0,.54-3.1l.35-2.68c.2-1.31.49-2,.88-2A.39.39,0,0,1,30.79,17.86Z" transform="translate(-12.43 -14.82)" style="fill:#c6d9ef;stroke:#000;stroke-linecap:square;stroke-linejoin:round;stroke-width:6px"/><path d="M42.82,22.65l.16-.36c.08-.19.16-.29.25-.29h.06c.05,0,.07.28.07.84,0,.13,0,.53-.06,1.21s-.1,1.42-.15,2.22S43,27.8,43,28.48s-.07,1.08-.07,1.21v.71a47.72,47.72,0,0,1,.83,9.24,1.21,1.21,0,0,1-.49.87,1.24,1.24,0,0,1-1.06.19,1.27,1.27,0,0,1-.37.88,8.25,8.25,0,0,1-.91.61h0s-.1-.07-.16-.21a4.72,4.72,0,0,1-.16-.45c0-.16-.1-.31-.13-.45s-.08-.21-.12-.21-.16.08-.31.25-.24.26-.29.26a.59.59,0,0,1-.13-.19,4.83,4.83,0,0,0-.24-.42l-.28-.42c-.1-.13-.17-.2-.22-.2,0-.53,0-1.08,0-1.63s0-1.11,0-1.69V35.57q0-1.45-.12-2.91c0-.58,0-1.13.06-1.66s0-1,0-1.5V27.75c0-.24,0-.48,0-.73s0-.48,0-.69l-.07-1.52-.12-1.65.08-.29s0,0,.07.15l.18.4c.07.15.14.3.2.46a2.55,2.55,0,0,0,.15.32l.34-2.13s.09.1.16.32.15.45.23.71.16.49.24.69.14.31.2.31.3-.23.36-.69.14-.91.23-1.34h.09c.17,0,.29.1.38.32v.29c0,.47,0,.71.11.71s.09-.09.16-.27.13-.39.2-.62.15-.43.22-.61.12-.28.16-.28.12.1.17.29A5.06,5.06,0,0,0,42.82,22.65Z" transform="translate(-12.43 -14.82)" style="fill:#fff;stroke:#000;stroke-linecap:square;stroke-linejoin:round;stroke-width:6px"/><path d="M55.4,23.75h0c.12,0,.21.13.3.4a1.56,1.56,0,0,0,.21.5c.49.82,1,1.7,1.55,2.63A14.51,14.51,0,0,1,58.74,30a21.41,21.41,0,0,1,.59,2.26.59.59,0,0,1-.21.38.82.82,0,0,0-.23.3A8.26,8.26,0,0,1,59,34a10.16,10.16,0,0,1-1.7,5.17c-1.09,1.75-2,2.62-2.61,2.62l-.2,0c-.11,0-.26.07-.46.13l-2.46.74-.25.07L51,42.8H49.88a2.53,2.53,0,0,1-2.42-1.35c0-.2.3-.44.74-.75.16-.1.23-.2.2-.29a.44.44,0,0,0-.21-.22L47.86,40c-.11,0-.17-.12-.17-.21s.16-.24.49-.39c.16-.06.22-.16.17-.3a1.86,1.86,0,0,0-.26-.47c-.11-.18-.24-.36-.36-.57a1.13,1.13,0,0,1-.19-.63,1.29,1.29,0,0,1,.13-.4,1.31,1.31,0,0,0,.13-.5.53.53,0,0,1,.21-.49.56.56,0,0,0,.25-.45L48,29a.66.66,0,0,0-.15-.3.69.69,0,0,1-.15-.37.66.66,0,0,1,.19-.42.7.7,0,0,0,.18-.39v-.07a1.1,1.1,0,0,0-.18-.48,1.28,1.28,0,0,1-.17-.49.91.91,0,0,0-.24-.64.72.72,0,0,1-.24-.39,1.19,1.19,0,0,1,.1-.45,1.76,1.76,0,0,0,.09-.58,6.07,6.07,0,0,0-.3-1,1,1,0,0,1,.76-.52,7,7,0,0,1,1-.1l.42,0,.69.05.83.06.33-.27a1.08,1.08,0,0,1,.75-.28h.49l.24,0,.25,0A2.61,2.61,0,0,1,55.4,23.75ZM52.68,30l0,5.43.13.29a2.54,2.54,0,0,0,.48-.32,5.07,5.07,0,0,0,.68-.65,4.7,4.7,0,0,0,.61-.85,1.83,1.83,0,0,0,.27-.92,1.3,1.3,0,0,0-.22-.75L54,31.4l-1-1.48-.15-.07A.22.22,0,0,0,52.68,30Z" transform="translate(-12.43 -14.82)" style="fill:#fff;stroke:#000;stroke-linecap:square;stroke-linejoin:round;stroke-width:6px"/><path d="M65,22.81l.34,0,.83-.11.7-.1.27,0h.39l.19,0h.15a1,1,0,0,0,.3-.06l.83-.2c.22,0,.43.1.65.42a3.37,3.37,0,0,0,.62-.14l.72-.28h.09c.1,0,.17.07.19.2v.06a1.18,1.18,0,0,1-.21.57,1.46,1.46,0,0,0-.21.4.52.52,0,0,0,.21.33h.08l.06,0,0,0c.06,0,.08,0,0,.12a2.77,2.77,0,0,1-.15.29c-.07.12-.14.23-.2.35a.74.74,0,0,0-.1.31V25c0,.07.09.16.27.29a.52.52,0,0,1,.26.42.65.65,0,0,1-.33.29c-.18.11-.26.23-.25.36s.12.21.34.32.31.31.24.41a.59.59,0,0,1-.34.22c-.16.06-.33.1-.51.15s-.26.11-.26.19.06.14.19.23l.42.27.43.29c.12.1.19.19.19.28v.06c0,.09-.07.15-.19.18a2.17,2.17,0,0,1-.49.05,8,8,0,0,1-1-.07,9.6,9.6,0,0,0-1-.06h-.17l-.2,0c-.66-.09-1,.14-1,.68v.19l.27.29,1.87-.26c.16,0,.37,0,.62,0h.91a1.07,1.07,0,0,0,.19.48c.12.22.16.38.11.49l-.22.17a3.57,3.57,0,0,0-.39.39.68.68,0,0,0-.22.44,1.29,1.29,0,0,0,.08.38.9.9,0,0,1-.25.49.82.82,0,0,0-.24.48,1.2,1.2,0,0,0,.25.34.8.8,0,0,1,.24.47,1,1,0,0,1,0,.18.45.45,0,0,0,0,.18.93.93,0,0,0,.08.25.9.9,0,0,1,.07.26v.07l-.41.39-2.69.16c-.07,0-.11.16-.11.48a2.73,2.73,0,0,0,0,.44c0,.18,0,.33,0,.43l.19.26.53,0,.41,0H69a1.38,1.38,0,0,0,.31,0l.76-.06.37,0h.32c.21,0,.31,0,.31.09a1.41,1.41,0,0,1,0,.25.68.68,0,0,0,0,.21c0,.15.08.21.25.17l.28,0c.08,0,.11.05.11.16a1.68,1.68,0,0,1-.06.4c-.05.16-.11.34-.18.52s-.15.35-.21.5a5.34,5.34,0,0,0-.2.5.31.31,0,0,0,0,.16.51.51,0,0,0,.08.13,1,1,0,0,1,0,.4v.13l-.69.62s0,.1.11.24a.65.65,0,0,1,.13.31.48.48,0,0,1-.13.34,1.57,1.57,0,0,1-.32.24,2,2,0,0,1-.38.14,1.48,1.48,0,0,1-.32.05,4,4,0,0,1-.53-.11,4,4,0,0,0-1-.11h-.23a1.6,1.6,0,0,0-.32,0,1.14,1.14,0,0,1-.32,0l-.44,0-.45,0a1.35,1.35,0,0,0-1,.38H65.1a.92.92,0,0,1-.32-.09,1,1,0,0,0-.24-.1c-.13,0-.22.11-.27.32a1.4,1.4,0,0,1-.34-.27,5.63,5.63,0,0,1-.51-.6,8.26,8.26,0,0,1-.46-.69,1.26,1.26,0,0,1-.2-.57s0-.25,0-.63.05-.84.08-1.4,0-1.19.07-1.88,0-1.36,0-2c0-1.21,0-2.32-.1-3.33s-.1-2.12-.13-3.32l0-1.75a6,6,0,0,0,.12-1.36c0-.26,0-.64,0-1.16s0-.9,0-1.16v-.39s0-.11,0-.21,0-.17,0-.21l.11-.19h0a1,1,0,0,1,.49.3c.23.21.37.31.44.31s.22-.12.28-.35l.08-.62c.08,0,.16.08.22.24a5.08,5.08,0,0,1,.18.55q.09.32.18.57C64.88,22.69,65,22.79,65,22.81Z" transform="translate(-12.43 -14.82)" style="fill:#fff;stroke:#000;stroke-linecap:square;stroke-linejoin:round;stroke-width:6px"/><path d="M79.69,20.77h.07l0,.46a2.05,2.05,0,0,0,0,.37c0,.07,0,.14,0,.19a1.06,1.06,0,0,1,0,.23l-.11.47s.1-.07.23-.2l.4-.43c.13-.17.27-.31.39-.44s.2-.19.23-.19a1.87,1.87,0,0,1,.81.25,2.55,2.55,0,0,0,1.23.26s.06,0,.11-.06,0,0,0,.13a1.51,1.51,0,0,1-.09.37c-.07.18-.14.38-.21.58l-.21.55a1.8,1.8,0,0,0-.09.27h.07a1.54,1.54,0,0,0,.31-.12l.5-.23.27-.13c.2,0,.22.13,0,.4s-.39.6-.67,1-.53.76-.79,1.15a1.59,1.59,0,0,0-.35.94l.23,2.26A3.57,3.57,0,0,0,83,30.69a22.76,22.76,0,0,1,.21,3,12.53,12.53,0,0,1-.26,2.91c-.13.45-.28.94-.46,1.45s-.38,1-.59,1.44a6.39,6.39,0,0,1-.65,1.1.93.93,0,0,1-.68.43.2.2,0,0,1-.21-.2,1.41,1.41,0,0,1,0-.46,3,3,0,0,1,.08-.45,1.71,1.71,0,0,0,0-.24c0-.13,0-.21-.11-.23a1.68,1.68,0,0,0-.38,0,1.47,1.47,0,0,0-.63.24,1.52,1.52,0,0,1-.61.24c-.11,0-.18-.07-.24-.22a4.92,4.92,0,0,1-.16-.5,4.92,4.92,0,0,0-.16-.5c-.06-.15-.14-.23-.24-.23a1.13,1.13,0,0,0-.49.18,1.13,1.13,0,0,1-.49.18c-.26,0-.4-.05-.4-.13a.85.85,0,0,1,.14-.29A.88.88,0,0,0,76.8,38v-.06l-.12-.13c-.07-.09-.23-.06-.46.09a1.26,1.26,0,0,1-.69.23.8.8,0,0,1-.53-.26v-.13L77.19,36a4.73,4.73,0,0,0,1.59-3v-.16a3.1,3.1,0,0,0-.25-1c-.17-.44-.32-.87-.45-1.3l-.49-.68-.26-3c.69-2.22,1.12-3.55,1.3-4s.33-.72.5-1.08S79.49,21.1,79.69,20.77Z" transform="translate(-12.43 -14.82)" style="fill:#fff;stroke:#000;stroke-linecap:square;stroke-linejoin:round;stroke-width:6px"/><path d="M94.31,22.07v.13s-.07.13-.2.27a5.63,5.63,0,0,0-.38.45,1.44,1.44,0,0,0-.23.44c0,.13,0,.19.22.19A1,1,0,0,0,94,23.5a1.24,1.24,0,0,1,.3,0q.09,0,.09.06a.42.42,0,0,1-.08.16A1.49,1.49,0,0,1,94,24a1.48,1.48,0,0,0-.3.52c0,.17.07.26.33.26a1.57,1.57,0,0,0,.55-.15,1.75,1.75,0,0,1,.55-.14,1.35,1.35,0,0,1,0,.48.3.3,0,0,0,.09.26h.48a1.12,1.12,0,0,1-.35.45,5.5,5.5,0,0,0-.52.59.38.38,0,0,0,.18.29,1,1,0,0,1,.19.16v.06a.74.74,0,0,1,0,.23.52.52,0,0,0-.06.22c0,.2.13.3.38.3l.21,0,.2,0c.12,0,.17,0,.17.1a.4.4,0,0,1-.07.21l-.16.23a.31.31,0,0,0-.09.17c0,.18.21.3.63.39.21,0,.3.1.26.16a.48.48,0,0,1-.28.18c-.15.05-.33.11-.53.16s-.37.1-.49.15a5.56,5.56,0,0,0-1,.4,8.11,8.11,0,0,0-1.18.76,5,5,0,0,0-1,1.06,2.44,2.44,0,0,0-.41,1.39,2.05,2.05,0,0,0,.19.88,4,4,0,0,0,.49.77,4.73,4.73,0,0,0,1.21,1.1c.18.11.93.43,2.22,1a2,2,0,0,0-.26.55,5.22,5.22,0,0,0,0,.58c0,.26,0,.48,0,.68a.85.85,0,0,1-.16.43.85.85,0,0,0-.15.38v.06c0,.06-.1.1-.3.1H95a.27.27,0,0,1-.17,0l-.32-.06c-.27,0-.4,0-.4.13a.58.58,0,0,0,.12.31,4.6,4.6,0,0,0,.31.35l.39.34c.13.11.25.19.35.26v.06c0,.2-.15.38-.57.55l-.54.26a1.66,1.66,0,0,0-.49.32l.43,1L94,43a1.45,1.45,0,0,1-.75-.2l-.76-.48a4,4,0,0,1-.74-.66c-.29-.32-.59-.63-.91-1s-.62-.62-.92-.88a2.33,2.33,0,0,0-.82-.51,8.57,8.57,0,0,1-.56-.75,7.53,7.53,0,0,1-.49-.86c-.17-.32-.35-.69-.55-1.11l-.72-1.51a6.58,6.58,0,0,1-.11-1.19,9.43,9.43,0,0,1,.09-1.13c.06-.48.14-1,.24-1.49s.19-1,.3-1.48.21-.87.31-1.17C88.3,26.41,89,25.3,89.7,25.3a8.94,8.94,0,0,1,3.23-3.17.9.9,0,0,0-.47.74l.11.13.72-.42.46-.26Z" transform="translate(-12.43 -14.82)" style="fill:#fff;stroke:#000;stroke-linecap:square;stroke-linejoin:round;stroke-width:6px"/><path d="M104.42,20.06l1.73,1.78a8.85,8.85,0,0,1,.74.94c.29.41.62.86,1,1.35a7.13,7.13,0,0,1,1.49,3.62,3.64,3.64,0,0,0-.36,1.16c-.11.61-.23,1.14-.35,1.62l-1.23,2.58a7,7,0,0,0,0,.73,2.87,2.87,0,0,0,.1.56,5.18,5.18,0,0,0,.22.67l.37,1,1.11,3.17.07.78a1.14,1.14,0,0,1-.58.12,1.83,1.83,0,0,1-1-.35s-.13.19-.23.52-.19.48-.28.48a4.74,4.74,0,0,0-.89-.42.39.39,0,0,0-.32.21.37.37,0,0,1-.3.21c-.24,0-.46-.31-.66-.92s-.42-1.21-.66-1.79c-.15,0-.23.23-.23.58v.52a4.38,4.38,0,0,1-.07.64c0,.3-.09.45-.14.45s-.17-.1-.17-.32V39.7c0-.3,0-.41-.11-.32a.34.34,0,0,1-.27.13l-.15,0-.17-.05s-.08.11-.17.26l-.28.5c-.1.19-.2.35-.28.49s-.15.21-.17.21-.12-.06-.19-.18l-.25-.4c-.09-.15-.17-.29-.26-.41s-.17-.18-.25-.18l-.17.07-.72.61-.07-.26a2.26,2.26,0,0,1-.07-.56c0-.25,0-.51,0-.79V37.15c0-.26,0-.55,0-.87,0-.82,0-1.35.06-1.58a8.92,8.92,0,0,0,0-1.05c0-.23,0-.59,0-1.09,0-.3,0-.76,0-1.37s0-1.07,0-1.37V29a1.39,1.39,0,0,0,0-.32c0-.13,0-.22,0-.26,0-.2,0-.36,0-.5s0-.26,0-.34c0-.28,0-.59,0-.92s0-.65,0-1-.05-.57-.06-.82,0-.41,0-.5a7.37,7.37,0,0,1,.15-1.58,12,12,0,0,0-.07-1.3c0-.56.16-.84.49-.84a.85.85,0,0,1,.22.08l.36.18c.13.07.29.15.47.26s.11-.07.21-.22.18-.23.25-.23.16.1.24.29l.25.52h.07a.4.4,0,0,0,.4-.25,3.16,3.16,0,0,0,.21-.55,2.21,2.21,0,0,1,.24-.54.49.49,0,0,1,.48-.25h.15A1.28,1.28,0,0,1,104.42,20.06ZM104,26.52a7.08,7.08,0,0,0-.1,1.3c0,.68,0,1.43.06,2.22l.08.23c0,.11.1.08.23-.1a5.94,5.94,0,0,0,.42-.64q.21-.39.39-.78a1.85,1.85,0,0,0,.18-.48C104.94,27.26,104.52,26.67,104,26.52Z" transform="translate(-12.43 -14.82)" style="fill:#fff;stroke:#000;stroke-linecap:square;stroke-linejoin:round;stroke-width:6px"/><path d="M115.09,22.81l.34,0,.83-.11.7-.1.27,0h.39l.19,0H118a1.11,1.11,0,0,0,.3-.06l.83-.2c.22,0,.43.1.64.42a3.46,3.46,0,0,0,.63-.14l.72-.28h.09c.1,0,.16.07.19.2v.06a1.18,1.18,0,0,1-.21.57,1.46,1.46,0,0,0-.21.4.52.52,0,0,0,.21.33h.08l.06,0,0,0c.06,0,.08,0,0,.12a2.77,2.77,0,0,1-.15.29c-.07.12-.14.23-.2.35a.62.62,0,0,0-.1.31V25c0,.07.09.16.27.29a.55.55,0,0,1,.26.42.75.75,0,0,1-.33.29c-.18.11-.27.23-.25.36s.12.21.34.32.31.31.24.41a.59.59,0,0,1-.34.22c-.16.06-.33.1-.51.15s-.26.11-.26.19.06.14.19.23.26.18.42.27l.43.29c.12.1.19.19.19.28v.06c0,.09-.07.15-.19.18a2.17,2.17,0,0,1-.49.05,8,8,0,0,1-1-.07,9.6,9.6,0,0,0-1-.06h-.17l-.2,0c-.66-.09-1,.14-1,.68v.19l.27.29,1.87-.26c.16,0,.37,0,.62,0h.91a1.07,1.07,0,0,0,.19.48c.12.22.16.38.11.49l-.22.17a3.57,3.57,0,0,0-.39.39.68.68,0,0,0-.22.44,1.23,1.23,0,0,0,.07.38.87.87,0,0,1-.24.49.85.85,0,0,0-.25.48,1.7,1.7,0,0,0,.26.34.78.78,0,0,1,.23.47.82.82,0,0,1,0,.18.45.45,0,0,0,0,.18.79.79,0,0,0,.07.25,1.07,1.07,0,0,1,.08.26v.07l-.41.39-2.69.16c-.07,0-.11.16-.11.48a2.73,2.73,0,0,0,0,.44,4.22,4.22,0,0,1,0,.43l.19.26.54,0,.41,0h.2a1.38,1.38,0,0,0,.31,0l.75-.06.38,0h.32q.3,0,.3.09a1.29,1.29,0,0,1,0,.25.68.68,0,0,0,0,.21c0,.15.08.21.24.17l.29,0c.07,0,.11.05.11.16a1.68,1.68,0,0,1-.06.4c0,.16-.11.34-.18.52s-.15.35-.21.5a3.42,3.42,0,0,0-.2.5.31.31,0,0,0,0,.16.51.51,0,0,0,.08.13,1,1,0,0,1,0,.4v.13l-.7.62s0,.1.12.24a.78.78,0,0,1,.13.31.53.53,0,0,1-.13.34,1.57,1.57,0,0,1-.32.24,2.22,2.22,0,0,1-.38.14,1.48,1.48,0,0,1-.32.05,3.69,3.69,0,0,1-.53-.11,4,4,0,0,0-1-.11h-.23a1.6,1.6,0,0,0-.32,0,1.14,1.14,0,0,1-.32,0l-.44,0-.45,0a1.34,1.34,0,0,0-1,.38h-.08a.92.92,0,0,1-.32-.09,1,1,0,0,0-.24-.1c-.13,0-.22.11-.27.32a1.4,1.4,0,0,1-.34-.27,5.63,5.63,0,0,1-.51-.6,8.26,8.26,0,0,1-.46-.69,1.26,1.26,0,0,1-.2-.57s0-.25,0-.63,0-.84.07-1.4,0-1.19.08-1.88,0-1.36,0-2c0-1.21,0-2.32-.1-3.33s-.1-2.12-.13-3.32l0-1.75a6,6,0,0,0,.12-1.36c0-.26,0-.64,0-1.16s0-.9,0-1.16v-.39s0-.11,0-.21,0-.17,0-.21l.11-.19h0c.1,0,.26.1.49.3s.37.31.44.31.22-.12.28-.35l.07-.62c.09,0,.17.08.23.24s.12.35.18.55.12.4.18.57S115,22.79,115.09,22.81Z" transform="translate(-12.43 -14.82)" style="fill:#fff;stroke:#000;stroke-linecap:square;stroke-linejoin:round;stroke-width:6px"/><path d="M127.37,22.81l.34,0,.83-.11.7-.1.27,0h.39l.19,0h.15a1.11,1.11,0,0,0,.3-.06l.83-.2c.21,0,.43.1.64.42a3.46,3.46,0,0,0,.63-.14c.22-.08.46-.17.71-.28h.1c.1,0,.16.07.19.2v.06a1.18,1.18,0,0,1-.21.57,1.46,1.46,0,0,0-.21.4.52.52,0,0,0,.21.33h.07l.07,0,.05,0c.06,0,.08,0,0,.12l-.16.29-.19.35a.62.62,0,0,0-.1.31V25c0,.07.09.16.27.29a.55.55,0,0,1,.26.42.75.75,0,0,1-.33.29c-.18.11-.27.23-.25.36s.12.21.33.32.31.31.25.41a.63.63,0,0,1-.34.22c-.16.06-.33.1-.51.15s-.26.11-.26.19.06.14.19.23.26.18.42.27.3.2.42.29.19.19.19.28v.06c0,.09-.06.15-.19.18a2,2,0,0,1-.49.05,8,8,0,0,1-1-.07q-.58-.06-1-.06H131l-.21,0c-.65-.09-1,.14-1,.68v.19l.27.29,1.87-.26c.16,0,.37,0,.62,0h.91a1.15,1.15,0,0,0,.18.48c.13.22.17.38.12.49l-.22.17a4.7,4.7,0,0,0-.4.39.71.71,0,0,0-.21.44A1.23,1.23,0,0,0,133,32a.87.87,0,0,1-.24.49.79.79,0,0,0-.25.48,1.35,1.35,0,0,0,.26.34.84.84,0,0,1,.23.47.82.82,0,0,1,0,.18.45.45,0,0,0,0,.18.79.79,0,0,0,.07.25,1.07,1.07,0,0,1,.08.26v.07l-.42.39-2.68.16c-.08,0-.11.16-.11.48a4.21,4.21,0,0,0,0,.44,2.72,2.72,0,0,1,0,.43l.19.26.54,0,.41,0h.19a1.39,1.39,0,0,0,.32,0l.75-.06.38,0h.32q.3,0,.3.09a.85.85,0,0,1,0,.25,1,1,0,0,0,0,.21c0,.15.08.21.24.17l.29,0c.07,0,.11.05.11.16a1.35,1.35,0,0,1-.07.4,3.23,3.23,0,0,1-.18.52l-.2.5a3.42,3.42,0,0,0-.2.5.31.31,0,0,0,0,.16.88.88,0,0,0,.07.13.81.81,0,0,1,.06.4v.13l-.7.62s0,.1.12.24a.78.78,0,0,1,.13.31.53.53,0,0,1-.13.34,1.4,1.4,0,0,1-.33.24,1.86,1.86,0,0,1-.37.14,1.56,1.56,0,0,1-.33.05,4,4,0,0,1-.52-.11,4,4,0,0,0-1-.11H130a1.52,1.52,0,0,0-.32,0,1.19,1.19,0,0,1-.32,0l-.45,0-.44,0a1.34,1.34,0,0,0-1,.38h-.08a.92.92,0,0,1-.32-.09,1,1,0,0,0-.24-.1c-.13,0-.22.11-.27.32a1.23,1.23,0,0,1-.34-.27,5.63,5.63,0,0,1-.51-.6,6.36,6.36,0,0,1-.46-.69,1.26,1.26,0,0,1-.2-.57s0-.25,0-.63,0-.84.07-1.4.05-1.19.08-1.88,0-1.36,0-2c0-1.21,0-2.32-.1-3.33s-.11-2.12-.13-3.32l0-1.75a6.06,6.06,0,0,0,.11-1.36c0-.26,0-.64,0-1.16s0-.9,0-1.16v-.39s0-.11,0-.21,0-.17,0-.21l.11-.19h0c.1,0,.26.1.49.3s.37.31.43.31.22-.12.29-.35l.07-.62c.09,0,.17.08.23.24s.12.35.18.55a5.51,5.51,0,0,0,.18.57C127.22,22.69,127.29,22.79,127.37,22.81Z" transform="translate(-12.43 -14.82)" style="fill:#fff;stroke:#000;stroke-linecap:square;stroke-linejoin:round;stroke-width:6px"/><path d="M139.59,22.42H140c.17,0,.34-.13.51-.4s.32-.41.47-.41.41.2.56.6.3.83.48,1.28l3.49,5.88a.88.88,0,0,0,.46-.6,5.74,5.74,0,0,0,.28-1.2c.06-.46.11-.95.13-1.48s0-1,0-1.54,0-.64-.1-.38-.15.61-.24,1.06c0,.22-.07.32-.11.32s0-.05-.07-.17,0-.26,0-.42,0-.29,0-.38l0-.32A8.45,8.45,0,0,1,146,23c0-.15.06-.23.1-.23s.07,0,.11.08a1,1,0,0,1,.11.2c0,.07.07.11.08.11s.07-.13.12-.4.16-.41.3-.41.1,0,.17.1.11.1.15.1.14-.15.28-.45.26-.46.36-.46a1.66,1.66,0,0,0,.37,0q.42,0,1.08,0a.64.64,0,0,0,.55-.26.55.55,0,0,1,.44-.26c.15,0,.25.17.3.5a8.49,8.49,0,0,1,.07,1.21q0,.91-.06,2.07c0,.78-.07,1.47-.07,2.07v1.26c0,.15,0,.35,0,.61s0,.57,0,.94l-.07,2.29c-.08,2.37-.12,3.44-.12,3.2a23.12,23.12,0,0,0,.12,2.74c0,.11.1,1,.19,2.78-.07.33-.16.43-.3.33a.61.61,0,0,0-.38-.17,2.77,2.77,0,0,0-.32.38,1,1,0,0,1-.74.37c-.09,0-.21-.08-.38-.23s-.26-.22-.3-.22-.15.08-.23.25l-.68-1c-.2,0-.3.11-.3.32V41c0,.32-.06.48-.19.48a.53.53,0,0,1-.35-.19,4.55,4.55,0,0,1-.42-.49l-.45-.59c-.14-.21-.26-.39-.37-.54l-.34-.51-1-1.78a9.89,9.89,0,0,0-1.09-1.55s-.05-.07-.08-.07c-.19,0-.28.37-.28,1.1v.45A7.3,7.3,0,0,1,142,40h-.06a.52.52,0,0,1-.25-.13c-.11-.08-.18-.13-.22-.13s-.06.14-.13.34-.15.45-.26.73a2.16,2.16,0,0,1-.29.58l-.42.52a1.59,1.59,0,0,0-.3.61s-.09-.06-.18-.19a3.12,3.12,0,0,0-.36-.42,5.77,5.77,0,0,0-.44-.42.68.68,0,0,0-.44-.19l-.31,0-.31,0-.11,0-.19,0-.19-1s0-1,.05-3.23l0-2.14c0-.34,0-.63,0-.87v-1c0-.52,0-1,0-1.42s0-.82-.05-1.16a13.68,13.68,0,0,1-.12-2c0-.25,0-.65,0-1.19s0-.94,0-1.2v-.58c0-.06,0-.16,0-.29s0-.23,0-.29c0-.24,0-.59,0-1.05s-.06-.81-.06-1.05c0-.58.06-.87.19-.87s.12.05.21.16a.54.54,0,0,0,.15.16l.3-.13.42-.19a1.35,1.35,0,0,0,.51-.94s0,.07.09.21.08.28.12.45.09.32.13.46A.83.83,0,0,0,139.59,22.42Z" transform="translate(-12.43 -14.82)" style="fill:#fff;stroke:#000;stroke-linecap:square;stroke-linejoin:round;stroke-width:6px"/><path d="M168.12,19.25a2.58,2.58,0,0,1,.23.56q.17.48.27.48h0c.07,0,.15-.12.23-.36s.15-.36.19-.36a1.36,1.36,0,0,0,.62.4,2.87,2.87,0,0,0,.8.1,8,8,0,0,0,1.08-.07,9.55,9.55,0,0,1,1-.07H173a1.37,1.37,0,0,1,.29,0l.29,0a1.17,1.17,0,0,0,.47-.18,1.35,1.35,0,0,1,.47-.18c.31,0,.46.53.46,1.58a.23.23,0,0,1-.13.19,2.45,2.45,0,0,1-.29.18,1.09,1.09,0,0,0-.29.23.57.57,0,0,0-.13.36.88.88,0,0,0,.51.18h.25a.88.88,0,0,0,.3-.07.88.88,0,0,1,.3-.07h.06s0,.06,0,.17a.89.89,0,0,1-.11.33c-.07.14-.15.29-.24.44l-.24.45a.82.82,0,0,0-.1.36,2.67,2.67,0,0,0,.06.51,5.17,5.17,0,0,1,.06.91c0,.1.1.22.28.36a2.09,2.09,0,0,1,.47.47.67.67,0,0,1-.16.33.72.72,0,0,0-.17.42c0,.26.36.67,1.08,1.25l0,.28s0,0-.11,0h-.21a2.69,2.69,0,0,1-.72-.15,2.85,2.85,0,0,0-.72-.14.49.49,0,0,0-.08.34c0,.11,0,.22,0,.34a.87.87,0,0,1-.25.55l-.27.34a.13.13,0,0,0,.06.16,1.2,1.2,0,0,0,.2.11,2,2,0,0,1,.23.14.45.45,0,0,1,.15.27v.07a2.9,2.9,0,0,1-.12.7,3.23,3.23,0,0,0-.13.59.88.88,0,0,0,.21.6v.11c0,.34-.09.51-.27.54a.39.39,0,0,0-.35.32c0,.14.19.44.58.89,0,.17-.11.28-.34.32a2.94,2.94,0,0,1-.62.07,2.64,2.64,0,0,1-.55-.07l-.87-.18-.71-.14-.27,0-.15,0-.19.43c0,.28,0,.65,0,1.09s0,.89.05,1.36,0,.91,0,1.33,0,.78,0,1q0,.75-.06,1.5c-.07.12-.13.18-.17.18q-.31,0-.45-.45a10.44,10.44,0,0,0-.43-1.12s-.15,0-.38,0a6.11,6.11,0,0,0-.85.27,8,8,0,0,0-1.07.52,5.09,5.09,0,0,0-1.06.78q-.22,0-.3-.75c-.05-.5-.07-1.09-.07-1.78s0-1.65.05-2.52.05-1.58.05-2.12c0-.88,0-1.72,0-2.5s-.07-1.54-.13-2.25l.07-.36q0-4.82-.32-8.07a1,1,0,0,0,0-.27,1.56,1.56,0,0,0,0-.37c0-.12,0-.22,0-.31v-.19c0-.46.06-.63.16-.52a.43.43,0,0,0,.32.16.86.86,0,0,0,.38-.23,1.23,1.23,0,0,1,.31-.24,1.07,1.07,0,0,0,.45.06A.45.45,0,0,1,168.12,19.25Zm3.09,8h-.46l-.12.14v.07c0,.45.26.68.79.68h.49a1.53,1.53,0,0,0,.3,0l.82-.07.23-.14v-.14c0-.1-.08-.17-.23-.24a4.86,4.86,0,0,0-.55-.14l-.66-.09Z" transform="translate(-12.43 -14.82)" style="fill:#ee77b2;stroke:#000;stroke-linecap:square;stroke-linejoin:round;stroke-width:6px"/><path d="M184.45,22.65s.08-.16.16-.36.17-.29.25-.29h.06c.05,0,.08.28.08.84,0,.13,0,.53-.07,1.21s-.09,1.42-.15,2.22-.11,1.53-.15,2.21-.07,1.08-.07,1.21v.71a46.94,46.94,0,0,1,.83,9.24,1.18,1.18,0,0,1-.49.87,1.24,1.24,0,0,1-1.06.19,1.26,1.26,0,0,1-.36.88,8.56,8.56,0,0,1-.92.61h0c-.05,0-.1-.07-.16-.21a4.72,4.72,0,0,1-.16-.45c0-.16-.09-.31-.13-.45s-.08-.21-.11-.21-.17.08-.32.25-.24.26-.29.26a.7.7,0,0,1-.12-.19c-.07-.13-.15-.27-.25-.42s-.19-.29-.28-.42-.17-.2-.22-.2c0-.53,0-1.08,0-1.63s0-1.11,0-1.69V35.57c0-1,0-1.94-.11-2.91,0-.58,0-1.13.05-1.66s0-1,0-1.5V27.75c0-.24,0-.48,0-.73s0-.48,0-.69l-.07-1.52-.12-1.65.08-.29s0,0,.08.15l.17.4c.07.15.14.3.2.46l.15.32.34-2.13s.1.1.17.32.14.45.22.71.16.49.24.69.14.31.21.31.29-.23.35-.69.14-.91.23-1.34h.1c.16,0,.29.1.37.32v.29c0,.47,0,.71.12.71s.09-.09.15-.27.13-.39.21-.62.14-.43.21-.61.13-.28.16-.28.12.1.17.29A5.06,5.06,0,0,0,184.45,22.65Z" transform="translate(-12.43 -14.82)" style="fill:#fff;stroke:#000;stroke-linecap:square;stroke-linejoin:round;stroke-width:6px"/><path d="M198.94,20.77l.09.2V21a.75.75,0,0,1-.07.28.9.9,0,0,0-.08.24.15.15,0,0,0,.13.16,1.49,1.49,0,0,1,.66-.87h.21c.11,0,.17.06.17.19a3.37,3.37,0,0,1-.06.44,2.38,2.38,0,0,0-.07.47,3.29,3.29,0,0,0,.41.87l-.14.35q-.1.27-.21.6a5.29,5.29,0,0,0-.2.71,3,3,0,0,0-.09.7c0,.17.09.13.27-.13l.41-.52c.39-.52.63-.77.7-.77s.3.14.53.42a1.21,1.21,0,0,1,.34.74l0,.19-3.17,6.07.06.59L201,36.08a1.71,1.71,0,0,1,.15.71v.13a.35.35,0,0,1-.2.29.42.42,0,0,0-.2.36,1.15,1.15,0,0,0,.07.32,1.64,1.64,0,0,1,.06.42c0,.84-.22,1.26-.67,1.26a2.31,2.31,0,0,1-.8-.35.77.77,0,0,0-.07.39c0,.06,0,.15,0,.27a1.53,1.53,0,0,1,0,.27v.13h0c-.09,0-.22.1-.4.28s-.28.27-.32.27-.27-.14-.44-.42l-.32-.48a1.86,1.86,0,0,0-.26-.31c-.1-.09-.15,0-.15.15a1.53,1.53,0,0,0,.07.32,1.57,1.57,0,0,1,.08.39.65.65,0,0,1-.14.4.39.39,0,0,1-.28.18l-1.57-3.49c-.06-.13-.13-.19-.2-.19a.21.21,0,0,0-.19.13l-2,4.2c-.13-.52-.31-.78-.55-.78a1.72,1.72,0,0,1-.39-.11,1.27,1.27,0,0,0-.44-.12,1.46,1.46,0,0,0-.38,0c-.11,0-.17-.14-.17-.53a1.32,1.32,0,0,1,.1-.47,1.9,1.9,0,0,0,.09-.31v-.06c0-.07-.06-.1-.19-.1s-.24.15-.44.44-.38.43-.5.43h-.12l-.19-.06s0-.13,0-.39a3.43,3.43,0,0,0-.11-.71,2.86,2.86,0,0,1-.11-.71,1.2,1.2,0,0,1,.09-.45l1.78-4.46a8.07,8.07,0,0,0,.68-2.2V31a4,4,0,0,0-.33-1.35c-.23-.54-.5-1.13-.84-1.78s-.7-1.31-1.1-2-.79-1.36-1.15-2c-.16-.26-.16-.37,0-.31a2.45,2.45,0,0,1,.54.35c.22.19.45.37.67.57a1.87,1.87,0,0,0,.37.29,1.28,1.28,0,0,1,.09-.5q.06-.09.15,0l.23.22a.38.38,0,0,0,.28.15s.08-.07.08-.19,0-.21,0-.38a2,2,0,0,1,0-.33c0-.2,0-.3.12-.31a.42.42,0,0,1,.27.08,2.61,2.61,0,0,1,.4.36c.16,0,.21-.12.17-.34a4.78,4.78,0,0,1,0-.5.52.52,0,0,1,.11-.33h0q.14,0,.3-.48a2.69,2.69,0,0,1,.19-.49,5.82,5.82,0,0,0,.42.55c.17.22.31.33.41.33h.08c.13-.48.21-.73.22-.75l.17.13a3,3,0,0,1,.68,1.23c.24.65.5,1.31.78,2l.15-.06a8.11,8.11,0,0,0,.92-2c.67-1.66,1.29-2.49,1.87-2.49A1,1,0,0,1,198.94,20.77Z" transform="translate(-12.43 -14.82)" style="fill:#fff;stroke:#000;stroke-linecap:square;stroke-linejoin:round;stroke-width:6px"/><path d="M207.65,22.81l.34,0,.83-.11.7-.1.27,0h.39l.19,0h.15a1.11,1.11,0,0,0,.3-.06l.83-.2c.21,0,.43.1.64.42a3.46,3.46,0,0,0,.63-.14c.22-.08.46-.17.71-.28h.1c.1,0,.16.07.19.2v.06a1.18,1.18,0,0,1-.21.57,1.46,1.46,0,0,0-.21.4.52.52,0,0,0,.21.33h.07l.07,0,.05,0c.06,0,.08,0,0,.12l-.16.29-.19.35a.62.62,0,0,0-.1.31V25c0,.07.09.16.27.29a.55.55,0,0,1,.26.42.75.75,0,0,1-.33.29c-.18.11-.27.23-.26.36s.13.21.34.32.31.31.25.41a.63.63,0,0,1-.34.22c-.16.06-.33.1-.51.15s-.26.11-.26.19.06.14.18.23.27.18.43.27.3.2.42.29.19.19.19.28v.06c0,.09-.06.15-.19.18a2,2,0,0,1-.49.05,8,8,0,0,1-1-.07q-.58-.06-1-.06h-.17l-.21,0c-.65-.09-1,.14-1,.68v.19l.27.29,1.87-.26c.16,0,.37,0,.62,0h.91a1.15,1.15,0,0,0,.18.48c.13.22.17.38.12.49l-.22.17a4.7,4.7,0,0,0-.4.39.71.71,0,0,0-.21.44,1.23,1.23,0,0,0,.07.38.87.87,0,0,1-.24.49.79.79,0,0,0-.25.48,1.35,1.35,0,0,0,.26.34.84.84,0,0,1,.23.47.54.54,0,0,1,0,.18.67.67,0,0,0,0,.18.79.79,0,0,0,.07.25,1.07,1.07,0,0,1,.08.26v.07l-.42.39-2.68.16c-.08,0-.11.16-.11.48a4.21,4.21,0,0,0,0,.44,2.72,2.72,0,0,1,0,.43l.19.26.54,0,.41,0h.19a1.39,1.39,0,0,0,.32,0l.75-.06.38,0h.32q.3,0,.3.09a.85.85,0,0,1,0,.25,1,1,0,0,0,0,.21c0,.15.08.21.24.17l.29,0c.07,0,.11.05.11.16a1.35,1.35,0,0,1-.07.4,3.23,3.23,0,0,1-.18.52l-.2.5a3.42,3.42,0,0,0-.2.5c0,.08,0,.13,0,.16a.88.88,0,0,0,.07.13.81.81,0,0,1,.06.4v.13L213,41s0,.1.11.24a.7.7,0,0,1,.14.31.49.49,0,0,1-.14.34,1.16,1.16,0,0,1-.32.24,1.86,1.86,0,0,1-.37.14,1.56,1.56,0,0,1-.33.05,3.68,3.68,0,0,1-.52-.11,4,4,0,0,0-1-.11h-.23a1.52,1.52,0,0,0-.32,0,1.19,1.19,0,0,1-.32,0l-.45,0-.44,0a1.34,1.34,0,0,0-1,.38h-.08a.92.92,0,0,1-.32-.09.88.88,0,0,0-.25-.1c-.12,0-.21.11-.26.32a1.23,1.23,0,0,1-.34-.27,5.63,5.63,0,0,1-.51-.6,6.36,6.36,0,0,1-.46-.69,1.15,1.15,0,0,1-.2-.57s0-.25,0-.63.05-.84.07-1.4,0-1.19.08-1.88,0-1.36,0-2c0-1.21,0-2.32-.1-3.33s-.11-2.12-.13-3.32l0-1.75a6.06,6.06,0,0,0,.11-1.36c0-.26,0-.64,0-1.16s0-.9,0-1.16v-.39a1,1,0,0,1,0-.21c0-.1,0-.17,0-.21l.11-.19h0c.1,0,.26.1.49.3s.37.31.43.31.22-.12.29-.35l.07-.62c.09,0,.17.08.23.24s.12.35.18.55a3.83,3.83,0,0,0,.18.57C207.5,22.69,207.57,22.79,207.65,22.81Z" transform="translate(-12.43 -14.82)" style="fill:#fff;stroke:#000;stroke-linecap:square;stroke-linejoin:round;stroke-width:6px"/><path d="M222.3,20.77h.08l0,.46c0,.17,0,.29,0,.37a.81.81,0,0,1,0,.19.66.66,0,0,1,0,.23c0,.09,0,.25-.1.47a1,1,0,0,0,.23-.2l.39-.43c.14-.17.27-.31.4-.44s.2-.19.23-.19a1.87,1.87,0,0,1,.81.25,2.52,2.52,0,0,0,1.23.26.24.24,0,0,0,.11-.06c0-.05,0,0,0,.13a1.27,1.27,0,0,1-.1.37c-.06.18-.13.38-.21.58l-.2.55a1.36,1.36,0,0,0-.1.27h.08a1.84,1.84,0,0,0,.31-.12l.5-.23.27-.13c.2,0,.21.13,0,.4s-.39.6-.66,1-.53.76-.79,1.15a1.52,1.52,0,0,0-.35.94l.22,2.26a3.59,3.59,0,0,0,.76,1.87,22.76,22.76,0,0,1,.21,3,11.91,11.91,0,0,1-.27,2.91c-.12.45-.28.94-.46,1.45s-.38,1-.58,1.44a5.81,5.81,0,0,1-.66,1.1.89.89,0,0,1-.68.43c-.11,0-.18-.07-.2-.2a1.41,1.41,0,0,1,0-.46c0-.16,0-.31.07-.45s.05-.22.05-.24,0-.21-.11-.23a1.74,1.74,0,0,0-.38,0,1.47,1.47,0,0,0-.63.24,1.54,1.54,0,0,1-.62.24c-.1,0-.18-.07-.24-.22s-.11-.32-.16-.5a4.92,4.92,0,0,0-.16-.5c0-.15-.13-.23-.23-.23a1.13,1.13,0,0,0-.49.18,1.18,1.18,0,0,1-.49.18c-.27,0-.4-.05-.4-.13a.75.75,0,0,1,.13-.29.75.75,0,0,0,.13-.36v-.06l-.11-.13c-.08-.09-.23-.06-.46.09a1.29,1.29,0,0,1-.69.23.76.76,0,0,1-.53-.26v-.13L219.81,36a4.73,4.73,0,0,0,1.59-3v-.16a3.19,3.19,0,0,0-.26-1c-.17-.44-.32-.87-.44-1.3l-.49-.68-.27-3c.69-2.22,1.13-3.55,1.31-4s.33-.72.5-1.08S222.1,21.1,222.3,20.77Z" transform="translate(-12.43 -14.82)" style="fill:#fff;stroke:#000;stroke-linecap:square;stroke-linejoin:round;stroke-width:6px"/><path d="M245,19.11h.08a.67.67,0,0,1,.26.07.76.76,0,0,0,.27.07c.15,0,.23-.16.25-.48s.06-.51.14-.55h0a.29.29,0,0,1,.28.14l.27.36a6.38,6.38,0,0,1,2.84.71,2.46,2.46,0,0,1,.19.32,4.42,4.42,0,0,0,.26.41c.1.16.24.35.41.59s.42.53.72.86L252,22.79l.34.37a1.11,1.11,0,0,1,.17.25,1.29,1.29,0,0,1,.07.31c0,.12,0,.31.07.57l.14,1.39q.21,1.79.21,2.46a7.88,7.88,0,0,1-.39,2.57,1.21,1.21,0,0,0-.16.45l-.21.84c-.07.31-.15.6-.23.86a1.24,1.24,0,0,1-.22.5,3.67,3.67,0,0,1-1.33,1.78,18.21,18.21,0,0,0-2.49,2c0,.19,0,.48,0,.86s.06.85.1,1.42l.09,1.22q0,.28,0,.45a2.2,2.2,0,0,1,0,.23c-.14.24-.25.35-.32.35h0c-.1,0-.2-.15-.31-.46s-.2-.46-.25-.46a.23.23,0,0,0-.13.07.23.23,0,0,1-.15.07.35.35,0,0,1-.19-.11c-.06-.07-.11-.11-.14-.11h-.06a2.43,2.43,0,0,0-.19.54c-.12.36-.21.54-.3.54s-.2-.08-.27-.22a2.09,2.09,0,0,1-.17-.5c0-.19-.08-.36-.12-.5s-.1-.21-.17-.21-.25.19-.4.57a.87.87,0,0,1-.63.34,5.5,5.5,0,0,1-1,.09c-.11,0-.16-.2-.16-.61a.58.58,0,0,0-.15-.43h0c-.11,0-.22.15-.32.45s-.2.44-.29.44h0a2.42,2.42,0,0,0,.14-.87c.05-.58.1-1.24.15-2s.1-1.43.14-2.09.05-1.08.05-1.22-.09-.74-.14-1.5-.11-1.57-.16-2.44-.09-1.7-.13-2.49-.05-1.33-.05-1.64a6.39,6.39,0,0,1,.08-1.14l-.45-6.36v-.93l.81-.07a2.2,2.2,0,0,1,.33.79l.26.93c.06.31.11.35.13.14s0-.6,0-1.14c0-.24,0-.35.06-.34s.1.07.16.18l.21.37c.08.14.14.21.2.21s.14-.29.14-.89.05-.89.13-.89.14.16.22.48A5.54,5.54,0,0,0,245,19.11Zm4.22,8.53-1.13-1.5a.37.37,0,0,0-.19-.17.43.43,0,0,0-.14,0c-.21,0-.32.43-.32,1.29,0,.23,0,.5,0,.8s0,.58.08.86a5.83,5.83,0,0,0,.11.67q.06.27.15.27l.23-.18a2.41,2.41,0,0,0,1.21-1.78A.82.82,0,0,0,249.19,27.64Z" transform="translate(-12.43 -14.82)" style="fill:#e0bf00;stroke:#000;stroke-linecap:square;stroke-linejoin:round;stroke-width:6px"/><path d="M264.42,21.11a2.87,2.87,0,0,0-.11.83v.22q0,.19.15.21a1,1,0,0,0,.34,0l.36-.11.18-.07a.66.66,0,0,1,.26.13.52.52,0,0,0,.25.13c.09,0,.17-.07.22-.22s.14-.23.26-.23c.29,0,.52.26.7.77a13.49,13.49,0,0,1,.46,2c.13.8.25,1.68.35,2.65s.21,1.91.32,2.81l.34,2.52c.05.43.12,1,.2,1.71s.21,1.49.38,2.33l1.2,5.62a.47.47,0,0,1-.07.4c-.08.1-.15.15-.2.15s-.13,0-.24-.15l-.33-.3-.3-.31A.6.6,0,0,0,269,42c-.13,0-.26.18-.4.54,0,0-.11-.08-.19-.25l-.25-.49a.74.74,0,0,0-.22-.29c-.06,0-.09.06-.09.29,0,0,0,.08,0,.29v.1a.37.37,0,0,1-.19.37l-.36.15c-.08,0-.15-.07-.23-.21s-.15-.29-.22-.46-.15-.31-.21-.45-.12-.21-.15-.21-.11.06-.13.18a2.22,2.22,0,0,0,0,.37l0,.37c0,.12-.05.18-.1.18s-.11-.13-.19-.39-.16-.57-.25-1-.19-.77-.28-1.18-.19-.76-.28-1.07c-.52,0-1,0-1.47.07a13.1,13.1,0,0,0-1.34.19,1.65,1.65,0,0,0-.2.68A10.87,10.87,0,0,1,262,41a3.75,3.75,0,0,1-.44,1.06.86.86,0,0,1-.78.47.38.38,0,0,0-.3.2h0c-.07,0-.12-.06-.15-.17l-.15-.22a4.19,4.19,0,0,0-1.34,1.52l-.13,0c0-.22,0-.4,0-.55s0-.27,0-.36c0-.3,0-.42-.12-.38a.46.46,0,0,1-.22.06c-.08,0-.13,0-.15-.16v-.06a1.52,1.52,0,0,1,.07-.42,1.94,1.94,0,0,0,.08-.33c0-.23,0-.32-.15-.26a2.63,2.63,0,0,0-.67.88l-.18.32-.59,0a9,9,0,0,1,.87-2.52,2.16,2.16,0,0,0,.63-1.23c.17-.65.34-1.28.52-1.91l.3-2.68a83.08,83.08,0,0,0,1.61-8.46A27.88,27.88,0,0,1,262,21.61h0a.83.83,0,0,1,.27.08.71.71,0,0,0,.26.09c0-.05.09-.18.19-.41S263,21,263,21h.08c0,.54.1.81.2.81s.11-.06.17-.18.13-.25.2-.39a3.44,3.44,0,0,1,.22-.38q.1-.18.21-.18C264.21,20.71,264.31,20.84,264.42,21.11Zm-.23,8.55c-.06.13-.29,1-.68,2.55a1.6,1.6,0,0,0,.17.84h.15l.11,0s.09,0,.14,0h.3a.43.43,0,0,0,.41-.26,1.44,1.44,0,0,0,.12-.61,3.37,3.37,0,0,0-.15-.91l-.17-.61-.11-.65C264.44,29.8,264.34,29.68,264.19,29.66Z" transform="translate(-12.43 -14.82)" style="fill:#fff;stroke:#000;stroke-linecap:square;stroke-linejoin:round;stroke-width:6px"/><path d="M281.33,22.07v.13s-.07.13-.2.27a5.63,5.63,0,0,0-.38.45,1.5,1.5,0,0,0-.24.44c0,.13,0,.19.23.19a.91.91,0,0,0,.28-.05,1.38,1.38,0,0,1,.31,0q.09,0,.09.06a.54.54,0,0,1-.09.16A1.28,1.28,0,0,1,281,24a1.31,1.31,0,0,0-.29.52c0,.17.07.26.33.26a1.57,1.57,0,0,0,.55-.15,1.75,1.75,0,0,1,.55-.14,1.91,1.91,0,0,1,0,.48.3.3,0,0,0,.1.26h.47a1.07,1.07,0,0,1-.34.45,5.64,5.64,0,0,0-.53.59.38.38,0,0,0,.18.29.87.87,0,0,1,.2.16v.06a.56.56,0,0,1-.06.23.68.68,0,0,0,0,.22c0,.2.12.3.38.3l.2,0,.21,0c.11,0,.17,0,.17.1a.43.43,0,0,1-.08.21l-.16.23a.36.36,0,0,0-.08.17c0,.18.21.3.62.39.22,0,.3.1.27.16a.52.52,0,0,1-.29.18c-.15.05-.32.11-.52.16s-.37.1-.5.15a5.23,5.23,0,0,0-1,.4,7.61,7.61,0,0,0-1.18.76,4.75,4.75,0,0,0-1,1.06,2.45,2.45,0,0,0-.42,1.39,2.06,2.06,0,0,0,.2.88,3.56,3.56,0,0,0,.48.77,5.46,5.46,0,0,0,.62.65,4.64,4.64,0,0,0,.59.45c.19.11.93.43,2.23,1a1.69,1.69,0,0,0-.26.55c0,.13,0,.32,0,.58a5.83,5.83,0,0,1,0,.68.83.83,0,0,1-.15.43.85.85,0,0,0-.15.38v.06c0,.06-.1.1-.3.1H282a.29.29,0,0,1-.17,0l-.32-.06c-.26,0-.39,0-.39.13a.58.58,0,0,0,.12.31,3.12,3.12,0,0,0,.31.35l.39.34c.13.11.25.19.35.26v.06c0,.2-.15.38-.57.55l-.55.26a1.81,1.81,0,0,0-.49.32l.44,1L281,43a1.44,1.44,0,0,1-.74-.2l-.77-.48a4.34,4.34,0,0,1-.73-.66c-.29-.32-.6-.63-.91-1s-.62-.62-.93-.88a2.22,2.22,0,0,0-.81-.51c-.21-.25-.4-.51-.57-.75s-.32-.54-.49-.86l-.54-1.11c-.21-.42-.45-.93-.72-1.51a5.79,5.79,0,0,1-.12-1.19,9.82,9.82,0,0,1,.1-1.13c.06-.48.14-1,.23-1.49s.2-1,.31-1.48a10.48,10.48,0,0,1,.31-1.17c.68-2.21,1.37-3.32,2.08-3.32A8.94,8.94,0,0,1,280,22.13a.91.91,0,0,0-.48.74l.12.13.72-.42.46-.26C280.94,22.24,281.12,22.15,281.33,22.07Z" transform="translate(-12.43 -14.82)" style="fill:#fff;stroke:#000;stroke-linecap:square;stroke-linejoin:round;stroke-width:6px"/><path d="M294.7,21.16c0,.11,0,.2,0,.28s0,.12,0,.14a5.39,5.39,0,0,1-.07.65,4.86,4.86,0,0,0-.06.64c0,.35.07.52.22.52a.69.69,0,0,0,.26-.06.54.54,0,0,1,.27-.07,1,1,0,0,1,.5.18,1,1,0,0,0,.48.18c.24,0,.34.17.31.51a1,1,0,0,0,0,.23c0,.06,0,.14,0,.22a.4.4,0,0,0,.09.33l.15-.2a.4.4,0,0,1,.29-.19c.09,0,.16.09.22.26l0,.06a2.69,2.69,0,0,1-.2.68c-.14.41-.32.91-.54,1.49L296,28.85l-.63,1.68v.84L297.21,36a3.9,3.9,0,0,1,.34,1.1.77.77,0,0,1-.13.45l-.36,1c-.13.34-.3.55-.53.61a2.82,2.82,0,0,1-.24.75c-.17.38-.31.76-.44,1.13h-.07c-.07,0-.17.07-.32.21s-.25.21-.29.21-.09-.06-.15-.18-.13-.18-.19-.18-.15.1-.29.31-.25.31-.31.31h0l-.55-1.46c-.09-.21-.16-.4-.22-.56a2.06,2.06,0,0,0-.16-.38,7.59,7.59,0,0,0-.68-1.35h0c-.13,0-.21.16-.24.47s-.06.65-.09,1a9.12,9.12,0,0,1-.16,1c-.06.31-.21.47-.42.47q-.06,0-.27.36c-.15.23-.25.35-.32.35a.44.44,0,0,1-.28-.19.48.48,0,0,0-.36-.2,1.12,1.12,0,0,0-.49.13l-.42.2-.73-.1c-.18,0-.28,0-.3-.07a1.44,1.44,0,0,1-.91-.8c0-.71,0-1.45,0-2.2s0-1.53,0-2.33V32.37q0-.61,0-1.26c0-.43,0-.89-.07-1.39v-.09a1.45,1.45,0,0,0-.06-.33l-.15-.47c-.05-.16-.09-.31-.14-.45a1.24,1.24,0,0,1-.06-.31.86.86,0,0,1,.22-.48,1.54,1.54,0,0,0,.23-.94c0,.05,0,0,0-.16s-.05-.36-.08-.63-.06-.57-.08-.92,0-.68,0-1,0-.71-.07-1.28-.08-1-.08-1.27.09-.62.26-.62a.48.48,0,0,1,.44.25,1.86,1.86,0,0,1,.22.59,6,6,0,0,1,.08.78c0,.28,0,.54.06.77,0,0,0-.16.07-.35s.08-.41.13-.65a4.87,4.87,0,0,1,.15-.63c.05-.18.1-.27.14-.27a.83.83,0,0,1,.25.08.72.72,0,0,0,.24.08c.09,0,.16-.09.23-.26h0s.1.05.17.15.13.21.2.34.13.24.19.33.09.15.11.15a.73.73,0,0,0,.1-.19,4.33,4.33,0,0,1,.22-.42,4.38,4.38,0,0,1,.28-.42.43.43,0,0,1,.32-.2q.72,0,.93.84a9.47,9.47,0,0,1,.2,2.2v1c.12.13.19.19.21.19.22-.49.48-1.12.8-1.89s.68-1.64,1.11-2.63C294.5,20.6,294.62,20.79,294.7,21.16Z" transform="translate(-12.43 -14.82)" style="fill:#fff;stroke:#000;stroke-linecap:square;stroke-linejoin:round;stroke-width:6px"/><path d="M30.79,17.86l-.11,2.43c.09.14.16.21.23.21s.17-.12.35-.36.29-.35.34-.35h0a.35.35,0,0,0,.19-.11c.09-.07.15-.11.19-.11s.17.12.17.36a3.67,3.67,0,0,1,0,.39,2.53,2.53,0,0,0,0,.4c0,.19.09.28.25.28h0s.07-.12.14-.36l.24-.8q.13-.45.27-.78c.09-.23.17-.34.24-.34s.13.24.13.71,0,.61.06.61.11-.09.19-.27a5.05,5.05,0,0,1,.32-.59.58.58,0,0,1,.45-.32c.23,0,.38.18.46.53l-.08.68-1.34,5.72-1.77,8.14-.94,7A6.39,6.39,0,0,1,30.49,42a.6.6,0,0,1-.56.46c-.22,0-.37-.17-.46-.5a1.58,1.58,0,0,0-.38-1.12,1.14,1.14,0,0,0-.83-.42c-.12,0-.26-.12-.4-.37a7,7,0,0,1-.4-1c-.13-.38-.27-.8-.41-1.26s-.28-.93-.42-1.38l-1.21-3.86c-.07-.19-.14-.28-.21-.28s-.12.06-.17.18l-.33.82-2,6.85-.21.25s0,0-.08,0-.22-.15-.2-.46,0-.52,0-.61-.06-.25-.19-.25h0l-.67,1.16c-.17.3-.33.57-.48.8a2.27,2.27,0,0,1-.25.36q-.12,0-.42.27a1.33,1.33,0,0,1-.33.27s-.08-.08-.14-.24-.13-.35-.22-.59-.17-.48-.26-.75l-.24-.67-.94-4.4c-.17-.76-.32-1.5-.47-2.21s-.28-1.39-.41-2c-.06-.31-.16-.77-.27-1.39s-.25-1.38-.44-2.28l-1-5-.12-1.68a1.62,1.62,0,0,1,0-.53c0-.19.07-.34.09-.43h.07c.07,0,.14.08.2.23a2,2,0,0,0,.15.27l.42,0c.07,0,.19.37.38,1.11,0,.14.12.44.25.89s.25.89.38,1.32a7.35,7.35,0,0,0,.37,1c.11.24.16.19.16-.14a7.63,7.63,0,0,0-.08-1.14c-.05-.41-.11-.8-.18-1.18s-.12-.72-.17-1a3.5,3.5,0,0,1-.09-.64c0-.6.08-.9.23-.9s.24.14.35.4.21.39.32.39a.42.42,0,0,1,.36.25l.28.5a.74.74,0,0,0,.26.32c.08.05.19-.05.31-.29s.2-.36.27-.37.13.05.18.18a3.13,3.13,0,0,1,.14.5,3.09,3.09,0,0,0,.18.59h.05c.07,0,.21-.16.44-.47a12,12,0,0,1,.36,1.61c.15.83.3,1.63.47,2.39h0c.1,0,.26-.34.47-1s.46-1.45.72-2.29.54-1.59.82-2.28.53-1,.75-1c.07,0,.16.06.26.18s.18.18.24.18a3.44,3.44,0,0,1,.22-.29c.13-.17.29-.36.47-.57s.31-.32.4-.32.23.11.37.35a7.06,7.06,0,0,1,.43.87c.15.35.29.73.43,1.14s.26.77.35,1.1c0,.05.06.28.16.7s.23.87.37,1.36.27.93.4,1.34.23.6.28.6h.05a14.09,14.09,0,0,0,.54-3.1l.35-2.68c.2-1.31.49-2,.88-2A.39.39,0,0,1,30.79,17.86Z" transform="translate(-12.43 -14.82)" style="fill:#c6d9ef"/><path d="M42.82,22.65l.16-.36c.08-.19.16-.29.25-.29h.06c.05,0,.07.28.07.84,0,.13,0,.53-.06,1.21s-.1,1.42-.15,2.22S43,27.8,43,28.48s-.07,1.08-.07,1.21v.71a47.72,47.72,0,0,1,.83,9.24,1.21,1.21,0,0,1-.49.87,1.24,1.24,0,0,1-1.06.19,1.27,1.27,0,0,1-.37.88,8.25,8.25,0,0,1-.91.61h0s-.1-.07-.16-.21a4.72,4.72,0,0,1-.16-.45c0-.16-.1-.31-.13-.45s-.08-.21-.12-.21-.16.08-.31.25-.24.26-.29.26a.59.59,0,0,1-.13-.19,4.83,4.83,0,0,0-.24-.42l-.28-.42c-.1-.13-.17-.2-.22-.2,0-.53,0-1.08,0-1.63s0-1.11,0-1.69V35.57q0-1.45-.12-2.91c0-.58,0-1.13.06-1.66s0-1,0-1.5V27.75c0-.24,0-.48,0-.73s0-.48,0-.69l-.07-1.52-.12-1.65.08-.29s0,0,.07.15l.18.4c.07.15.14.3.2.46a2.55,2.55,0,0,0,.15.32l.34-2.13s.09.1.16.32.15.45.23.71.16.49.24.69.14.31.2.31.3-.23.36-.69.14-.91.23-1.34h.09c.17,0,.29.1.38.32v.29c0,.47,0,.71.11.71s.09-.09.16-.27.13-.39.2-.62.15-.43.22-.61.12-.28.16-.28.12.1.17.29A5.06,5.06,0,0,0,42.82,22.65Z" transform="translate(-12.43 -14.82)" style="fill:#fff"/><path d="M55.4,23.75h0c.12,0,.21.13.3.4a1.56,1.56,0,0,0,.21.5c.49.82,1,1.7,1.55,2.63A14.51,14.51,0,0,1,58.74,30a21.41,21.41,0,0,1,.59,2.26.59.59,0,0,1-.21.38.82.82,0,0,0-.23.3A8.26,8.26,0,0,1,59,34a10.16,10.16,0,0,1-1.7,5.17c-1.09,1.75-2,2.62-2.61,2.62l-.2,0c-.11,0-.26.07-.46.13l-2.46.74-.25.07L51,42.8H49.88a2.53,2.53,0,0,1-2.42-1.35c0-.2.3-.44.74-.75.16-.1.23-.2.2-.29a.44.44,0,0,0-.21-.22L47.86,40c-.11,0-.17-.12-.17-.21s.16-.24.49-.39c.16-.06.22-.16.17-.3a1.86,1.86,0,0,0-.26-.47c-.11-.18-.24-.36-.36-.57a1.13,1.13,0,0,1-.19-.63,1.29,1.29,0,0,1,.13-.4,1.31,1.31,0,0,0,.13-.5.53.53,0,0,1,.21-.49.56.56,0,0,0,.25-.45L48,29a.66.66,0,0,0-.15-.3.69.69,0,0,1-.15-.37.66.66,0,0,1,.19-.42.7.7,0,0,0,.18-.39v-.07a1.1,1.1,0,0,0-.18-.48,1.28,1.28,0,0,1-.17-.49.91.91,0,0,0-.24-.64.72.72,0,0,1-.24-.39,1.19,1.19,0,0,1,.1-.45,1.76,1.76,0,0,0,.09-.58,6.07,6.07,0,0,0-.3-1,1,1,0,0,1,.76-.52,7,7,0,0,1,1-.1l.42,0,.69.05.83.06.33-.27a1.08,1.08,0,0,1,.75-.28h.49l.24,0,.25,0A2.61,2.61,0,0,1,55.4,23.75ZM52.68,30l0,5.43.13.29a2.54,2.54,0,0,0,.48-.32,5.07,5.07,0,0,0,.68-.65,4.7,4.7,0,0,0,.61-.85,1.83,1.83,0,0,0,.27-.92,1.3,1.3,0,0,0-.22-.75L54,31.4l-1-1.48-.15-.07A.22.22,0,0,0,52.68,30Z" transform="translate(-12.43 -14.82)" style="fill:#fff"/><path d="M65,22.81l.34,0,.83-.11.7-.1.27,0h.39l.19,0h.15a1,1,0,0,0,.3-.06l.83-.2c.22,0,.43.1.65.42a3.37,3.37,0,0,0,.62-.14l.72-.28h.09c.1,0,.17.07.19.2v.06a1.18,1.18,0,0,1-.21.57,1.46,1.46,0,0,0-.21.4.52.52,0,0,0,.21.33h.08l.06,0,0,0c.06,0,.08,0,0,.12a2.77,2.77,0,0,1-.15.29c-.07.12-.14.23-.2.35a.74.74,0,0,0-.1.31V25c0,.07.09.16.27.29a.52.52,0,0,1,.26.42.65.65,0,0,1-.33.29c-.18.11-.26.23-.25.36s.12.21.34.32.31.31.24.41a.59.59,0,0,1-.34.22c-.16.06-.33.1-.51.15s-.26.11-.26.19.06.14.19.23l.42.27.43.29c.12.1.19.19.19.28v.06c0,.09-.07.15-.19.18a2.17,2.17,0,0,1-.49.05,8,8,0,0,1-1-.07,9.6,9.6,0,0,0-1-.06h-.17l-.2,0c-.66-.09-1,.14-1,.68v.19l.27.29,1.87-.26c.16,0,.37,0,.62,0h.91a1.07,1.07,0,0,0,.19.48c.12.22.16.38.11.49l-.22.17a3.57,3.57,0,0,0-.39.39.68.68,0,0,0-.22.44,1.29,1.29,0,0,0,.08.38.9.9,0,0,1-.25.49.82.82,0,0,0-.24.48,1.2,1.2,0,0,0,.25.34.8.8,0,0,1,.24.47,1,1,0,0,1,0,.18.45.45,0,0,0,0,.18.93.93,0,0,0,.08.25.9.9,0,0,1,.07.26v.07l-.41.39-2.69.16c-.07,0-.11.16-.11.48a2.73,2.73,0,0,0,0,.44c0,.18,0,.33,0,.43l.19.26.53,0,.41,0H69a1.38,1.38,0,0,0,.31,0l.76-.06.37,0h.32c.21,0,.31,0,.31.09a1.41,1.41,0,0,1,0,.25.68.68,0,0,0,0,.21c0,.15.08.21.25.17l.28,0c.08,0,.11.05.11.16a1.68,1.68,0,0,1-.06.4c-.05.16-.11.34-.18.52s-.15.35-.21.5a5.34,5.34,0,0,0-.2.5.31.31,0,0,0,0,.16.51.51,0,0,0,.08.13,1,1,0,0,1,0,.4v.13l-.69.62s0,.1.11.24a.65.65,0,0,1,.13.31.48.48,0,0,1-.13.34,1.57,1.57,0,0,1-.32.24,2,2,0,0,1-.38.14,1.48,1.48,0,0,1-.32.05,4,4,0,0,1-.53-.11,4,4,0,0,0-1-.11h-.23a1.6,1.6,0,0,0-.32,0,1.14,1.14,0,0,1-.32,0l-.44,0-.45,0a1.35,1.35,0,0,0-1,.38H65.1a.92.92,0,0,1-.32-.09,1,1,0,0,0-.24-.1c-.13,0-.22.11-.27.32a1.4,1.4,0,0,1-.34-.27,5.63,5.63,0,0,1-.51-.6,8.26,8.26,0,0,1-.46-.69,1.26,1.26,0,0,1-.2-.57s0-.25,0-.63.05-.84.08-1.4,0-1.19.07-1.88,0-1.36,0-2c0-1.21,0-2.32-.1-3.33s-.1-2.12-.13-3.32l0-1.75a6,6,0,0,0,.12-1.36c0-.26,0-.64,0-1.16s0-.9,0-1.16v-.39s0-.11,0-.21,0-.17,0-.21l.11-.19h0a1,1,0,0,1,.49.3c.23.21.37.31.44.31s.22-.12.28-.35l.08-.62c.08,0,.16.08.22.24a5.08,5.08,0,0,1,.18.55q.09.32.18.57C64.88,22.69,65,22.79,65,22.81Z" transform="translate(-12.43 -14.82)" style="fill:#fff"/><path d="M79.69,20.77h.07l0,.46a2.05,2.05,0,0,0,0,.37c0,.07,0,.14,0,.19a1.06,1.06,0,0,1,0,.23l-.11.47s.1-.07.23-.2l.4-.43c.13-.17.27-.31.39-.44s.2-.19.23-.19a1.87,1.87,0,0,1,.81.25,2.55,2.55,0,0,0,1.23.26s.06,0,.11-.06,0,0,0,.13a1.51,1.51,0,0,1-.09.37c-.07.18-.14.38-.21.58l-.21.55a1.8,1.8,0,0,0-.09.27h.07a1.54,1.54,0,0,0,.31-.12l.5-.23.27-.13c.2,0,.22.13,0,.4s-.39.6-.67,1-.53.76-.79,1.15a1.59,1.59,0,0,0-.35.94l.23,2.26A3.57,3.57,0,0,0,83,30.69a22.76,22.76,0,0,1,.21,3,12.53,12.53,0,0,1-.26,2.91c-.13.45-.28.94-.46,1.45s-.38,1-.59,1.44a6.39,6.39,0,0,1-.65,1.1.93.93,0,0,1-.68.43.2.2,0,0,1-.21-.2,1.41,1.41,0,0,1,0-.46,3,3,0,0,1,.08-.45,1.71,1.71,0,0,0,0-.24c0-.13,0-.21-.11-.23a1.68,1.68,0,0,0-.38,0,1.47,1.47,0,0,0-.63.24,1.52,1.52,0,0,1-.61.24c-.11,0-.18-.07-.24-.22a4.92,4.92,0,0,1-.16-.5,4.92,4.92,0,0,0-.16-.5c-.06-.15-.14-.23-.24-.23a1.13,1.13,0,0,0-.49.18,1.13,1.13,0,0,1-.49.18c-.26,0-.4-.05-.4-.13a.85.85,0,0,1,.14-.29A.88.88,0,0,0,76.8,38v-.06l-.12-.13c-.07-.09-.23-.06-.46.09a1.26,1.26,0,0,1-.69.23.8.8,0,0,1-.53-.26v-.13L77.19,36a4.73,4.73,0,0,0,1.59-3v-.16a3.1,3.1,0,0,0-.25-1c-.17-.44-.32-.87-.45-1.3l-.49-.68-.26-3c.69-2.22,1.12-3.55,1.3-4s.33-.72.5-1.08S79.49,21.1,79.69,20.77Z" transform="translate(-12.43 -14.82)" style="fill:#fff"/><path d="M94.31,22.07v.13s-.07.13-.2.27a5.63,5.63,0,0,0-.38.45,1.44,1.44,0,0,0-.23.44c0,.13,0,.19.22.19A1,1,0,0,0,94,23.5a1.24,1.24,0,0,1,.3,0q.09,0,.09.06a.42.42,0,0,1-.08.16A1.49,1.49,0,0,1,94,24a1.48,1.48,0,0,0-.3.52c0,.17.07.26.33.26a1.57,1.57,0,0,0,.55-.15,1.75,1.75,0,0,1,.55-.14,1.35,1.35,0,0,1,0,.48.3.3,0,0,0,.09.26h.48a1.12,1.12,0,0,1-.35.45,5.5,5.5,0,0,0-.52.59.38.38,0,0,0,.18.29,1,1,0,0,1,.19.16v.06a.74.74,0,0,1,0,.23.52.52,0,0,0-.06.22c0,.2.13.3.38.3l.21,0,.2,0c.12,0,.17,0,.17.1a.4.4,0,0,1-.07.21l-.16.23a.31.31,0,0,0-.09.17c0,.18.21.3.63.39.21,0,.3.1.26.16a.48.48,0,0,1-.28.18c-.15.05-.33.11-.53.16s-.37.1-.49.15a5.56,5.56,0,0,0-1,.4,8.11,8.11,0,0,0-1.18.76,5,5,0,0,0-1,1.06,2.44,2.44,0,0,0-.41,1.39,2.05,2.05,0,0,0,.19.88,4,4,0,0,0,.49.77,4.73,4.73,0,0,0,1.21,1.1c.18.11.93.43,2.22,1a2,2,0,0,0-.26.55,5.22,5.22,0,0,0,0,.58c0,.26,0,.48,0,.68a.85.85,0,0,1-.16.43.85.85,0,0,0-.15.38v.06c0,.06-.1.1-.3.1H95a.27.27,0,0,1-.17,0l-.32-.06c-.27,0-.4,0-.4.13a.58.58,0,0,0,.12.31,4.6,4.6,0,0,0,.31.35l.39.34c.13.11.25.19.35.26v.06c0,.2-.15.38-.57.55l-.54.26a1.66,1.66,0,0,0-.49.32l.43,1L94,43a1.45,1.45,0,0,1-.75-.2l-.76-.48a4,4,0,0,1-.74-.66c-.29-.32-.59-.63-.91-1s-.62-.62-.92-.88a2.33,2.33,0,0,0-.82-.51,8.57,8.57,0,0,1-.56-.75,7.53,7.53,0,0,1-.49-.86c-.17-.32-.35-.69-.55-1.11l-.72-1.51a6.58,6.58,0,0,1-.11-1.19,9.43,9.43,0,0,1,.09-1.13c.06-.48.14-1,.24-1.49s.19-1,.3-1.48.21-.87.31-1.17C88.3,26.41,89,25.3,89.7,25.3a8.94,8.94,0,0,1,3.23-3.17.9.9,0,0,0-.47.74l.11.13.72-.42.46-.26Z" transform="translate(-12.43 -14.82)" style="fill:#fff"/><path d="M104.42,20.06l1.73,1.78a8.85,8.85,0,0,1,.74.94c.29.41.62.86,1,1.35a7.13,7.13,0,0,1,1.49,3.62,3.64,3.64,0,0,0-.36,1.16c-.11.61-.23,1.14-.35,1.62l-1.23,2.58a7,7,0,0,0,0,.73,2.87,2.87,0,0,0,.1.56,5.18,5.18,0,0,0,.22.67l.37,1,1.11,3.17.07.78a1.14,1.14,0,0,1-.58.12,1.83,1.83,0,0,1-1-.35s-.13.19-.23.52-.19.48-.28.48a4.74,4.74,0,0,0-.89-.42.39.39,0,0,0-.32.21.37.37,0,0,1-.3.21c-.24,0-.46-.31-.66-.92s-.42-1.21-.66-1.79c-.15,0-.23.23-.23.58v.52a4.38,4.38,0,0,1-.07.64c0,.3-.09.45-.14.45s-.17-.1-.17-.32V39.7c0-.3,0-.41-.11-.32a.34.34,0,0,1-.27.13l-.15,0-.17-.05s-.08.11-.17.26l-.28.5c-.1.19-.2.35-.28.49s-.15.21-.17.21-.12-.06-.19-.18l-.25-.4c-.09-.15-.17-.29-.26-.41s-.17-.18-.25-.18l-.17.07-.72.61-.07-.26a2.26,2.26,0,0,1-.07-.56c0-.25,0-.51,0-.79V37.15c0-.26,0-.55,0-.87,0-.82,0-1.35.06-1.58a8.92,8.92,0,0,0,0-1.05c0-.23,0-.59,0-1.09,0-.3,0-.76,0-1.37s0-1.07,0-1.37V29a1.39,1.39,0,0,0,0-.32c0-.13,0-.22,0-.26,0-.2,0-.36,0-.5s0-.26,0-.34c0-.28,0-.59,0-.92s0-.65,0-1-.05-.57-.06-.82,0-.41,0-.5a7.37,7.37,0,0,1,.15-1.58,12,12,0,0,0-.07-1.3c0-.56.16-.84.49-.84a.85.85,0,0,1,.22.08l.36.18c.13.07.29.15.47.26s.11-.07.21-.22.18-.23.25-.23.16.1.24.29l.25.52h.07a.4.4,0,0,0,.4-.25,3.16,3.16,0,0,0,.21-.55,2.21,2.21,0,0,1,.24-.54.49.49,0,0,1,.48-.25h.15A1.28,1.28,0,0,1,104.42,20.06ZM104,26.52a7.08,7.08,0,0,0-.1,1.3c0,.68,0,1.43.06,2.22l.08.23c0,.11.1.08.23-.1a5.94,5.94,0,0,0,.42-.64q.21-.39.39-.78a1.85,1.85,0,0,0,.18-.48C104.94,27.26,104.52,26.67,104,26.52Z" transform="translate(-12.43 -14.82)" style="fill:#fff"/><path d="M115.09,22.81l.34,0,.83-.11.7-.1.27,0h.39l.19,0H118a1.11,1.11,0,0,0,.3-.06l.83-.2c.22,0,.43.1.64.42a3.46,3.46,0,0,0,.63-.14l.72-.28h.09c.1,0,.16.07.19.2v.06a1.18,1.18,0,0,1-.21.57,1.46,1.46,0,0,0-.21.4.52.52,0,0,0,.21.33h.08l.06,0,0,0c.06,0,.08,0,0,.12a2.77,2.77,0,0,1-.15.29c-.07.12-.14.23-.2.35a.62.62,0,0,0-.1.31V25c0,.07.09.16.27.29a.55.55,0,0,1,.26.42.75.75,0,0,1-.33.29c-.18.11-.27.23-.25.36s.12.21.34.32.31.31.24.41a.59.59,0,0,1-.34.22c-.16.06-.33.1-.51.15s-.26.11-.26.19.06.14.19.23.26.18.42.27l.43.29c.12.1.19.19.19.28v.06c0,.09-.07.15-.19.18a2.17,2.17,0,0,1-.49.05,8,8,0,0,1-1-.07,9.6,9.6,0,0,0-1-.06h-.17l-.2,0c-.66-.09-1,.14-1,.68v.19l.27.29,1.87-.26c.16,0,.37,0,.62,0h.91a1.07,1.07,0,0,0,.19.48c.12.22.16.38.11.49l-.22.17a3.57,3.57,0,0,0-.39.39.68.68,0,0,0-.22.44,1.23,1.23,0,0,0,.07.38.87.87,0,0,1-.24.49.85.85,0,0,0-.25.48,1.7,1.7,0,0,0,.26.34.78.78,0,0,1,.23.47.82.82,0,0,1,0,.18.45.45,0,0,0,0,.18.79.79,0,0,0,.07.25,1.07,1.07,0,0,1,.08.26v.07l-.41.39-2.69.16c-.07,0-.11.16-.11.48a2.73,2.73,0,0,0,0,.44,4.22,4.22,0,0,1,0,.43l.19.26.54,0,.41,0h.2a1.38,1.38,0,0,0,.31,0l.75-.06.38,0h.32q.3,0,.3.09a1.29,1.29,0,0,1,0,.25.68.68,0,0,0,0,.21c0,.15.08.21.24.17l.29,0c.07,0,.11.05.11.16a1.68,1.68,0,0,1-.06.4c0,.16-.11.34-.18.52s-.15.35-.21.5a3.42,3.42,0,0,0-.2.5.31.31,0,0,0,0,.16.51.51,0,0,0,.08.13,1,1,0,0,1,0,.4v.13l-.7.62s0,.1.12.24a.78.78,0,0,1,.13.31.53.53,0,0,1-.13.34,1.57,1.57,0,0,1-.32.24,2.22,2.22,0,0,1-.38.14,1.48,1.48,0,0,1-.32.05,3.69,3.69,0,0,1-.53-.11,4,4,0,0,0-1-.11h-.23a1.6,1.6,0,0,0-.32,0,1.14,1.14,0,0,1-.32,0l-.44,0-.45,0a1.34,1.34,0,0,0-1,.38h-.08a.92.92,0,0,1-.32-.09,1,1,0,0,0-.24-.1c-.13,0-.22.11-.27.32a1.4,1.4,0,0,1-.34-.27,5.63,5.63,0,0,1-.51-.6,8.26,8.26,0,0,1-.46-.69,1.26,1.26,0,0,1-.2-.57s0-.25,0-.63,0-.84.07-1.4,0-1.19.08-1.88,0-1.36,0-2c0-1.21,0-2.32-.1-3.33s-.1-2.12-.13-3.32l0-1.75a6,6,0,0,0,.12-1.36c0-.26,0-.64,0-1.16s0-.9,0-1.16v-.39s0-.11,0-.21,0-.17,0-.21l.11-.19h0c.1,0,.26.1.49.3s.37.31.44.31.22-.12.28-.35l.07-.62c.09,0,.17.08.23.24s.12.35.18.55.12.4.18.57S115,22.79,115.09,22.81Z" transform="translate(-12.43 -14.82)" style="fill:#fff"/><path d="M127.37,22.81l.34,0,.83-.11.7-.1.27,0h.39l.19,0h.15a1.11,1.11,0,0,0,.3-.06l.83-.2c.21,0,.43.1.64.42a3.46,3.46,0,0,0,.63-.14c.22-.08.46-.17.71-.28h.1c.1,0,.16.07.19.2v.06a1.18,1.18,0,0,1-.21.57,1.46,1.46,0,0,0-.21.4.52.52,0,0,0,.21.33h.07l.07,0,.05,0c.06,0,.08,0,0,.12l-.16.29-.19.35a.62.62,0,0,0-.1.31V25c0,.07.09.16.27.29a.55.55,0,0,1,.26.42.75.75,0,0,1-.33.29c-.18.11-.27.23-.25.36s.12.21.33.32.31.31.25.41a.63.63,0,0,1-.34.22c-.16.06-.33.1-.51.15s-.26.11-.26.19.06.14.19.23.26.18.42.27.3.2.42.29.19.19.19.28v.06c0,.09-.06.15-.19.18a2,2,0,0,1-.49.05,8,8,0,0,1-1-.07q-.58-.06-1-.06H131l-.21,0c-.65-.09-1,.14-1,.68v.19l.27.29,1.87-.26c.16,0,.37,0,.62,0h.91a1.15,1.15,0,0,0,.18.48c.13.22.17.38.12.49l-.22.17a4.7,4.7,0,0,0-.4.39.71.71,0,0,0-.21.44A1.23,1.23,0,0,0,133,32a.87.87,0,0,1-.24.49.79.79,0,0,0-.25.48,1.35,1.35,0,0,0,.26.34.84.84,0,0,1,.23.47.82.82,0,0,1,0,.18.45.45,0,0,0,0,.18.79.79,0,0,0,.07.25,1.07,1.07,0,0,1,.08.26v.07l-.42.39-2.68.16c-.08,0-.11.16-.11.48a4.21,4.21,0,0,0,0,.44,2.72,2.72,0,0,1,0,.43l.19.26.54,0,.41,0h.19a1.39,1.39,0,0,0,.32,0l.75-.06.38,0h.32q.3,0,.3.09a.85.85,0,0,1,0,.25,1,1,0,0,0,0,.21c0,.15.08.21.24.17l.29,0c.07,0,.11.05.11.16a1.35,1.35,0,0,1-.07.4,3.23,3.23,0,0,1-.18.52l-.2.5a3.42,3.42,0,0,0-.2.5.31.31,0,0,0,0,.16.88.88,0,0,0,.07.13.81.81,0,0,1,.06.4v.13l-.7.62s0,.1.12.24a.78.78,0,0,1,.13.31.53.53,0,0,1-.13.34,1.4,1.4,0,0,1-.33.24,1.86,1.86,0,0,1-.37.14,1.56,1.56,0,0,1-.33.05,4,4,0,0,1-.52-.11,4,4,0,0,0-1-.11H130a1.52,1.52,0,0,0-.32,0,1.19,1.19,0,0,1-.32,0l-.45,0-.44,0a1.34,1.34,0,0,0-1,.38h-.08a.92.92,0,0,1-.32-.09,1,1,0,0,0-.24-.1c-.13,0-.22.11-.27.32a1.23,1.23,0,0,1-.34-.27,5.63,5.63,0,0,1-.51-.6,6.36,6.36,0,0,1-.46-.69,1.26,1.26,0,0,1-.2-.57s0-.25,0-.63,0-.84.07-1.4.05-1.19.08-1.88,0-1.36,0-2c0-1.21,0-2.32-.1-3.33s-.11-2.12-.13-3.32l0-1.75a6.06,6.06,0,0,0,.11-1.36c0-.26,0-.64,0-1.16s0-.9,0-1.16v-.39s0-.11,0-.21,0-.17,0-.21l.11-.19h0c.1,0,.26.1.49.3s.37.31.43.31.22-.12.29-.35l.07-.62c.09,0,.17.08.23.24s.12.35.18.55a5.51,5.51,0,0,0,.18.57C127.22,22.69,127.29,22.79,127.37,22.81Z" transform="translate(-12.43 -14.82)" style="fill:#fff"/><path d="M139.59,22.42H140c.17,0,.34-.13.51-.4s.32-.41.47-.41.41.2.56.6.3.83.48,1.28l3.49,5.88a.88.88,0,0,0,.46-.6,5.74,5.74,0,0,0,.28-1.2c.06-.46.11-.95.13-1.48s0-1,0-1.54,0-.64-.1-.38-.15.61-.24,1.06c0,.22-.07.32-.11.32s0-.05-.07-.17,0-.26,0-.42,0-.29,0-.38l0-.32A8.45,8.45,0,0,1,146,23c0-.15.06-.23.1-.23s.07,0,.11.08a1,1,0,0,1,.11.2c0,.07.07.11.08.11s.07-.13.12-.4.16-.41.3-.41.1,0,.17.1.11.1.15.1.14-.15.28-.45.26-.46.36-.46a1.66,1.66,0,0,0,.37,0q.42,0,1.08,0a.64.64,0,0,0,.55-.26.55.55,0,0,1,.44-.26c.15,0,.25.17.3.5a8.49,8.49,0,0,1,.07,1.21q0,.91-.06,2.07c0,.78-.07,1.47-.07,2.07v1.26c0,.15,0,.35,0,.61s0,.57,0,.94l-.07,2.29c-.08,2.37-.12,3.44-.12,3.2a23.12,23.12,0,0,0,.12,2.74c0,.11.1,1,.19,2.78-.07.33-.16.43-.3.33a.61.61,0,0,0-.38-.17,2.77,2.77,0,0,0-.32.38,1,1,0,0,1-.74.37c-.09,0-.21-.08-.38-.23s-.26-.22-.3-.22-.15.08-.23.25l-.68-1c-.2,0-.3.11-.3.32V41c0,.32-.06.48-.19.48a.53.53,0,0,1-.35-.19,4.55,4.55,0,0,1-.42-.49l-.45-.59c-.14-.21-.26-.39-.37-.54l-.34-.51-1-1.78a9.89,9.89,0,0,0-1.09-1.55s-.05-.07-.08-.07c-.19,0-.28.37-.28,1.1v.45A7.3,7.3,0,0,1,142,40h-.06a.52.52,0,0,1-.25-.13c-.11-.08-.18-.13-.22-.13s-.06.14-.13.34-.15.45-.26.73a2.16,2.16,0,0,1-.29.58l-.42.52a1.59,1.59,0,0,0-.3.61s-.09-.06-.18-.19a3.12,3.12,0,0,0-.36-.42,5.77,5.77,0,0,0-.44-.42.68.68,0,0,0-.44-.19l-.31,0-.31,0-.11,0-.19,0-.19-1s0-1,.05-3.23l0-2.14c0-.34,0-.63,0-.87v-1c0-.52,0-1,0-1.42s0-.82-.05-1.16a13.68,13.68,0,0,1-.12-2c0-.25,0-.65,0-1.19s0-.94,0-1.2v-.58c0-.06,0-.16,0-.29s0-.23,0-.29c0-.24,0-.59,0-1.05s-.06-.81-.06-1.05c0-.58.06-.87.19-.87s.12.05.21.16a.54.54,0,0,0,.15.16l.3-.13.42-.19a1.35,1.35,0,0,0,.51-.94s0,.07.09.21.08.28.12.45.09.32.13.46A.83.83,0,0,0,139.59,22.42Z" transform="translate(-12.43 -14.82)" style="fill:#fff"/><path d="M168.12,19.25a2.58,2.58,0,0,1,.23.56q.17.48.27.48h0c.07,0,.15-.12.23-.36s.15-.36.19-.36a1.36,1.36,0,0,0,.62.4,2.87,2.87,0,0,0,.8.1,8,8,0,0,0,1.08-.07,9.55,9.55,0,0,1,1-.07H173a1.37,1.37,0,0,1,.29,0l.29,0a1.17,1.17,0,0,0,.47-.18,1.35,1.35,0,0,1,.47-.18c.31,0,.46.53.46,1.58a.23.23,0,0,1-.13.19,2.45,2.45,0,0,1-.29.18,1.09,1.09,0,0,0-.29.23.57.57,0,0,0-.13.36.88.88,0,0,0,.51.18h.25a.88.88,0,0,0,.3-.07.88.88,0,0,1,.3-.07h.06s0,.06,0,.17a.89.89,0,0,1-.11.33c-.07.14-.15.29-.24.44l-.24.45a.82.82,0,0,0-.1.36,2.67,2.67,0,0,0,.06.51,5.17,5.17,0,0,1,.06.91c0,.1.1.22.28.36a2.09,2.09,0,0,1,.47.47.67.67,0,0,1-.16.33.72.72,0,0,0-.17.42c0,.26.36.67,1.08,1.25l0,.28s0,0-.11,0h-.21a2.69,2.69,0,0,1-.72-.15,2.85,2.85,0,0,0-.72-.14.49.49,0,0,0-.08.34c0,.11,0,.22,0,.34a.87.87,0,0,1-.25.55l-.27.34a.13.13,0,0,0,.06.16,1.2,1.2,0,0,0,.2.11,2,2,0,0,1,.23.14.45.45,0,0,1,.15.27v.07a2.9,2.9,0,0,1-.12.7,3.23,3.23,0,0,0-.13.59.88.88,0,0,0,.21.6v.11c0,.34-.09.51-.27.54a.39.39,0,0,0-.35.32c0,.14.19.44.58.89,0,.17-.11.28-.34.32a2.94,2.94,0,0,1-.62.07,2.64,2.64,0,0,1-.55-.07l-.87-.18-.71-.14-.27,0-.15,0-.19.43c0,.28,0,.65,0,1.09s0,.89.05,1.36,0,.91,0,1.33,0,.78,0,1q0,.75-.06,1.5c-.07.12-.13.18-.17.18q-.31,0-.45-.45a10.44,10.44,0,0,0-.43-1.12s-.15,0-.38,0a6.11,6.11,0,0,0-.85.27,8,8,0,0,0-1.07.52,5.09,5.09,0,0,0-1.06.78q-.22,0-.3-.75c-.05-.5-.07-1.09-.07-1.78s0-1.65.05-2.52.05-1.58.05-2.12c0-.88,0-1.72,0-2.5s-.07-1.54-.13-2.25l.07-.36q0-4.82-.32-8.07a1,1,0,0,0,0-.27,1.56,1.56,0,0,0,0-.37c0-.12,0-.22,0-.31v-.19c0-.46.06-.63.16-.52a.43.43,0,0,0,.32.16.86.86,0,0,0,.38-.23,1.23,1.23,0,0,1,.31-.24,1.07,1.07,0,0,0,.45.06A.45.45,0,0,1,168.12,19.25Zm3.09,8h-.46l-.12.14v.07c0,.45.26.68.79.68h.49a1.53,1.53,0,0,0,.3,0l.82-.07.23-.14v-.14c0-.1-.08-.17-.23-.24a4.86,4.86,0,0,0-.55-.14l-.66-.09Z" transform="translate(-12.43 -14.82)" style="fill:#ee77b2"/><path d="M184.45,22.65s.08-.16.16-.36.17-.29.25-.29h.06c.05,0,.08.28.08.84,0,.13,0,.53-.07,1.21s-.09,1.42-.15,2.22-.11,1.53-.15,2.21-.07,1.08-.07,1.21v.71a46.94,46.94,0,0,1,.83,9.24,1.18,1.18,0,0,1-.49.87,1.24,1.24,0,0,1-1.06.19,1.26,1.26,0,0,1-.36.88,8.56,8.56,0,0,1-.92.61h0c-.05,0-.1-.07-.16-.21a4.72,4.72,0,0,1-.16-.45c0-.16-.09-.31-.13-.45s-.08-.21-.11-.21-.17.08-.32.25-.24.26-.29.26a.7.7,0,0,1-.12-.19c-.07-.13-.15-.27-.25-.42s-.19-.29-.28-.42-.17-.2-.22-.2c0-.53,0-1.08,0-1.63s0-1.11,0-1.69V35.57c0-1,0-1.94-.11-2.91,0-.58,0-1.13.05-1.66s0-1,0-1.5V27.75c0-.24,0-.48,0-.73s0-.48,0-.69l-.07-1.52-.12-1.65.08-.29s0,0,.08.15l.17.4c.07.15.14.3.2.46l.15.32.34-2.13s.1.1.17.32.14.45.22.71.16.49.24.69.14.31.21.31.29-.23.35-.69.14-.91.23-1.34h.1c.16,0,.29.1.37.32v.29c0,.47,0,.71.12.71s.09-.09.15-.27.13-.39.21-.62.14-.43.21-.61.13-.28.16-.28.12.1.17.29A5.06,5.06,0,0,0,184.45,22.65Z" transform="translate(-12.43 -14.82)" style="fill:#fff"/><path d="M198.94,20.77l.09.2V21a.75.75,0,0,1-.07.28.9.9,0,0,0-.08.24.15.15,0,0,0,.13.16,1.49,1.49,0,0,1,.66-.87h.21c.11,0,.17.06.17.19a3.37,3.37,0,0,1-.06.44,2.38,2.38,0,0,0-.07.47,3.29,3.29,0,0,0,.41.87l-.14.35q-.1.27-.21.6a5.29,5.29,0,0,0-.2.71,3,3,0,0,0-.09.7c0,.17.09.13.27-.13l.41-.52c.39-.52.63-.77.7-.77s.3.14.53.42a1.21,1.21,0,0,1,.34.74l0,.19-3.17,6.07.06.59L201,36.08a1.71,1.71,0,0,1,.15.71v.13a.35.35,0,0,1-.2.29.42.42,0,0,0-.2.36,1.15,1.15,0,0,0,.07.32,1.64,1.64,0,0,1,.06.42c0,.84-.22,1.26-.67,1.26a2.31,2.31,0,0,1-.8-.35.77.77,0,0,0-.07.39c0,.06,0,.15,0,.27a1.53,1.53,0,0,1,0,.27v.13h0c-.09,0-.22.1-.4.28s-.28.27-.32.27-.27-.14-.44-.42l-.32-.48a1.86,1.86,0,0,0-.26-.31c-.1-.09-.15,0-.15.15a1.53,1.53,0,0,0,.07.32,1.57,1.57,0,0,1,.08.39.65.65,0,0,1-.14.4.39.39,0,0,1-.28.18l-1.57-3.49c-.06-.13-.13-.19-.2-.19a.21.21,0,0,0-.19.13l-2,4.2c-.13-.52-.31-.78-.55-.78a1.72,1.72,0,0,1-.39-.11,1.27,1.27,0,0,0-.44-.12,1.46,1.46,0,0,0-.38,0c-.11,0-.17-.14-.17-.53a1.32,1.32,0,0,1,.1-.47,1.9,1.9,0,0,0,.09-.31v-.06c0-.07-.06-.1-.19-.1s-.24.15-.44.44-.38.43-.5.43h-.12l-.19-.06s0-.13,0-.39a3.43,3.43,0,0,0-.11-.71,2.86,2.86,0,0,1-.11-.71,1.2,1.2,0,0,1,.09-.45l1.78-4.46a8.07,8.07,0,0,0,.68-2.2V31a4,4,0,0,0-.33-1.35c-.23-.54-.5-1.13-.84-1.78s-.7-1.31-1.1-2-.79-1.36-1.15-2c-.16-.26-.16-.37,0-.31a2.45,2.45,0,0,1,.54.35c.22.19.45.37.67.57a1.87,1.87,0,0,0,.37.29,1.28,1.28,0,0,1,.09-.5q.06-.09.15,0l.23.22a.38.38,0,0,0,.28.15s.08-.07.08-.19,0-.21,0-.38a2,2,0,0,1,0-.33c0-.2,0-.3.12-.31a.42.42,0,0,1,.27.08,2.61,2.61,0,0,1,.4.36c.16,0,.21-.12.17-.34a4.78,4.78,0,0,1,0-.5.52.52,0,0,1,.11-.33h0q.14,0,.3-.48a2.69,2.69,0,0,1,.19-.49,5.82,5.82,0,0,0,.42.55c.17.22.31.33.41.33h.08c.13-.48.21-.73.22-.75l.17.13a3,3,0,0,1,.68,1.23c.24.65.5,1.31.78,2l.15-.06a8.11,8.11,0,0,0,.92-2c.67-1.66,1.29-2.49,1.87-2.49A1,1,0,0,1,198.94,20.77Z" transform="translate(-12.43 -14.82)" style="fill:#fff"/><path d="M207.65,22.81l.34,0,.83-.11.7-.1.27,0h.39l.19,0h.15a1.11,1.11,0,0,0,.3-.06l.83-.2c.21,0,.43.1.64.42a3.46,3.46,0,0,0,.63-.14c.22-.08.46-.17.71-.28h.1c.1,0,.16.07.19.2v.06a1.18,1.18,0,0,1-.21.57,1.46,1.46,0,0,0-.21.4.52.52,0,0,0,.21.33h.07l.07,0,.05,0c.06,0,.08,0,0,.12l-.16.29-.19.35a.62.62,0,0,0-.1.31V25c0,.07.09.16.27.29a.55.55,0,0,1,.26.42.75.75,0,0,1-.33.29c-.18.11-.27.23-.26.36s.13.21.34.32.31.31.25.41a.63.63,0,0,1-.34.22c-.16.06-.33.1-.51.15s-.26.11-.26.19.06.14.18.23.27.18.43.27.3.2.42.29.19.19.19.28v.06c0,.09-.06.15-.19.18a2,2,0,0,1-.49.05,8,8,0,0,1-1-.07q-.58-.06-1-.06h-.17l-.21,0c-.65-.09-1,.14-1,.68v.19l.27.29,1.87-.26c.16,0,.37,0,.62,0h.91a1.15,1.15,0,0,0,.18.48c.13.22.17.38.12.49l-.22.17a4.7,4.7,0,0,0-.4.39.71.71,0,0,0-.21.44,1.23,1.23,0,0,0,.07.38.87.87,0,0,1-.24.49.79.79,0,0,0-.25.48,1.35,1.35,0,0,0,.26.34.84.84,0,0,1,.23.47.54.54,0,0,1,0,.18.67.67,0,0,0,0,.18.79.79,0,0,0,.07.25,1.07,1.07,0,0,1,.08.26v.07l-.42.39-2.68.16c-.08,0-.11.16-.11.48a4.21,4.21,0,0,0,0,.44,2.72,2.72,0,0,1,0,.43l.19.26.54,0,.41,0h.19a1.39,1.39,0,0,0,.32,0l.75-.06.38,0h.32q.3,0,.3.09a.85.85,0,0,1,0,.25,1,1,0,0,0,0,.21c0,.15.08.21.24.17l.29,0c.07,0,.11.05.11.16a1.35,1.35,0,0,1-.07.4,3.23,3.23,0,0,1-.18.52l-.2.5a3.42,3.42,0,0,0-.2.5c0,.08,0,.13,0,.16a.88.88,0,0,0,.07.13.81.81,0,0,1,.06.4v.13L213,41s0,.1.11.24a.7.7,0,0,1,.14.31.49.49,0,0,1-.14.34,1.16,1.16,0,0,1-.32.24,1.86,1.86,0,0,1-.37.14,1.56,1.56,0,0,1-.33.05,3.68,3.68,0,0,1-.52-.11,4,4,0,0,0-1-.11h-.23a1.52,1.52,0,0,0-.32,0,1.19,1.19,0,0,1-.32,0l-.45,0-.44,0a1.34,1.34,0,0,0-1,.38h-.08a.92.92,0,0,1-.32-.09.88.88,0,0,0-.25-.1c-.12,0-.21.11-.26.32a1.23,1.23,0,0,1-.34-.27,5.63,5.63,0,0,1-.51-.6,6.36,6.36,0,0,1-.46-.69,1.15,1.15,0,0,1-.2-.57s0-.25,0-.63.05-.84.07-1.4,0-1.19.08-1.88,0-1.36,0-2c0-1.21,0-2.32-.1-3.33s-.11-2.12-.13-3.32l0-1.75a6.06,6.06,0,0,0,.11-1.36c0-.26,0-.64,0-1.16s0-.9,0-1.16v-.39a1,1,0,0,1,0-.21c0-.1,0-.17,0-.21l.11-.19h0c.1,0,.26.1.49.3s.37.31.43.31.22-.12.29-.35l.07-.62c.09,0,.17.08.23.24s.12.35.18.55a3.83,3.83,0,0,0,.18.57C207.5,22.69,207.57,22.79,207.65,22.81Z" transform="translate(-12.43 -14.82)" style="fill:#fff"/><path d="M222.3,20.77h.08l0,.46c0,.17,0,.29,0,.37a.81.81,0,0,1,0,.19.66.66,0,0,1,0,.23c0,.09,0,.25-.1.47a1,1,0,0,0,.23-.2l.39-.43c.14-.17.27-.31.4-.44s.2-.19.23-.19a1.87,1.87,0,0,1,.81.25,2.52,2.52,0,0,0,1.23.26.24.24,0,0,0,.11-.06c0-.05,0,0,0,.13a1.27,1.27,0,0,1-.1.37c-.06.18-.13.38-.21.58l-.2.55a1.36,1.36,0,0,0-.1.27h.08a1.84,1.84,0,0,0,.31-.12l.5-.23.27-.13c.2,0,.21.13,0,.4s-.39.6-.66,1-.53.76-.79,1.15a1.52,1.52,0,0,0-.35.94l.22,2.26a3.59,3.59,0,0,0,.76,1.87,22.76,22.76,0,0,1,.21,3,11.91,11.91,0,0,1-.27,2.91c-.12.45-.28.94-.46,1.45s-.38,1-.58,1.44a5.81,5.81,0,0,1-.66,1.1.89.89,0,0,1-.68.43c-.11,0-.18-.07-.2-.2a1.41,1.41,0,0,1,0-.46c0-.16,0-.31.07-.45s.05-.22.05-.24,0-.21-.11-.23a1.74,1.74,0,0,0-.38,0,1.47,1.47,0,0,0-.63.24,1.54,1.54,0,0,1-.62.24c-.1,0-.18-.07-.24-.22s-.11-.32-.16-.5a4.92,4.92,0,0,0-.16-.5c0-.15-.13-.23-.23-.23a1.13,1.13,0,0,0-.49.18,1.18,1.18,0,0,1-.49.18c-.27,0-.4-.05-.4-.13a.75.75,0,0,1,.13-.29.75.75,0,0,0,.13-.36v-.06l-.11-.13c-.08-.09-.23-.06-.46.09a1.29,1.29,0,0,1-.69.23.76.76,0,0,1-.53-.26v-.13L219.81,36a4.73,4.73,0,0,0,1.59-3v-.16a3.19,3.19,0,0,0-.26-1c-.17-.44-.32-.87-.44-1.3l-.49-.68-.27-3c.69-2.22,1.13-3.55,1.31-4s.33-.72.5-1.08S222.1,21.1,222.3,20.77Z" transform="translate(-12.43 -14.82)" style="fill:#fff"/><path d="M245,19.11h.08a.67.67,0,0,1,.26.07.76.76,0,0,0,.27.07c.15,0,.23-.16.25-.48s.06-.51.14-.55h0a.29.29,0,0,1,.28.14l.27.36a6.38,6.38,0,0,1,2.84.71,2.46,2.46,0,0,1,.19.32,4.42,4.42,0,0,0,.26.41c.1.16.24.35.41.59s.42.53.72.86L252,22.79l.34.37a1.11,1.11,0,0,1,.17.25,1.29,1.29,0,0,1,.07.31c0,.12,0,.31.07.57l.14,1.39q.21,1.79.21,2.46a7.88,7.88,0,0,1-.39,2.57,1.21,1.21,0,0,0-.16.45l-.21.84c-.07.31-.15.6-.23.86a1.24,1.24,0,0,1-.22.5,3.67,3.67,0,0,1-1.33,1.78,18.21,18.21,0,0,0-2.49,2c0,.19,0,.48,0,.86s.06.85.1,1.42l.09,1.22q0,.28,0,.45a2.2,2.2,0,0,1,0,.23c-.14.24-.25.35-.32.35h0c-.1,0-.2-.15-.31-.46s-.2-.46-.25-.46a.23.23,0,0,0-.13.07.23.23,0,0,1-.15.07.35.35,0,0,1-.19-.11c-.06-.07-.11-.11-.14-.11h-.06a2.43,2.43,0,0,0-.19.54c-.12.36-.21.54-.3.54s-.2-.08-.27-.22a2.09,2.09,0,0,1-.17-.5c0-.19-.08-.36-.12-.5s-.1-.21-.17-.21-.25.19-.4.57a.87.87,0,0,1-.63.34,5.5,5.5,0,0,1-1,.09c-.11,0-.16-.2-.16-.61a.58.58,0,0,0-.15-.43h0c-.11,0-.22.15-.32.45s-.2.44-.29.44h0a2.42,2.42,0,0,0,.14-.87c.05-.58.1-1.24.15-2s.1-1.43.14-2.09.05-1.08.05-1.22-.09-.74-.14-1.5-.11-1.57-.16-2.44-.09-1.7-.13-2.49-.05-1.33-.05-1.64a6.39,6.39,0,0,1,.08-1.14l-.45-6.36v-.93l.81-.07a2.2,2.2,0,0,1,.33.79l.26.93c.06.31.11.35.13.14s0-.6,0-1.14c0-.24,0-.35.06-.34s.1.07.16.18l.21.37c.08.14.14.21.2.21s.14-.29.14-.89.05-.89.13-.89.14.16.22.48A5.54,5.54,0,0,0,245,19.11Zm4.22,8.53-1.13-1.5a.37.37,0,0,0-.19-.17.43.43,0,0,0-.14,0c-.21,0-.32.43-.32,1.29,0,.23,0,.5,0,.8s0,.58.08.86a5.83,5.83,0,0,0,.11.67q.06.27.15.27l.23-.18a2.41,2.41,0,0,0,1.21-1.78A.82.82,0,0,0,249.19,27.64Z" transform="translate(-12.43 -14.82)" style="fill:#e0bf00"/><path d="M264.42,21.11a2.87,2.87,0,0,0-.11.83v.22q0,.19.15.21a1,1,0,0,0,.34,0l.36-.11.18-.07a.66.66,0,0,1,.26.13.52.52,0,0,0,.25.13c.09,0,.17-.07.22-.22s.14-.23.26-.23c.29,0,.52.26.7.77a13.49,13.49,0,0,1,.46,2c.13.8.25,1.68.35,2.65s.21,1.91.32,2.81l.34,2.52c.05.43.12,1,.2,1.71s.21,1.49.38,2.33l1.2,5.62a.47.47,0,0,1-.07.4c-.08.1-.15.15-.2.15s-.13,0-.24-.15l-.33-.3-.3-.31A.6.6,0,0,0,269,42c-.13,0-.26.18-.4.54,0,0-.11-.08-.19-.25l-.25-.49a.74.74,0,0,0-.22-.29c-.06,0-.09.06-.09.29,0,0,0,.08,0,.29v.1a.37.37,0,0,1-.19.37l-.36.15c-.08,0-.15-.07-.23-.21s-.15-.29-.22-.46-.15-.31-.21-.45-.12-.21-.15-.21-.11.06-.13.18a2.22,2.22,0,0,0,0,.37l0,.37c0,.12-.05.18-.1.18s-.11-.13-.19-.39-.16-.57-.25-1-.19-.77-.28-1.18-.19-.76-.28-1.07c-.52,0-1,0-1.47.07a13.1,13.1,0,0,0-1.34.19,1.65,1.65,0,0,0-.2.68A10.87,10.87,0,0,1,262,41a3.75,3.75,0,0,1-.44,1.06.86.86,0,0,1-.78.47.38.38,0,0,0-.3.2h0c-.07,0-.12-.06-.15-.17l-.15-.22a4.19,4.19,0,0,0-1.34,1.52l-.13,0c0-.22,0-.4,0-.55s0-.27,0-.36c0-.3,0-.42-.12-.38a.46.46,0,0,1-.22.06c-.08,0-.13,0-.15-.16v-.06a1.52,1.52,0,0,1,.07-.42,1.94,1.94,0,0,0,.08-.33c0-.23,0-.32-.15-.26a2.63,2.63,0,0,0-.67.88l-.18.32-.59,0a9,9,0,0,1,.87-2.52,2.16,2.16,0,0,0,.63-1.23c.17-.65.34-1.28.52-1.91l.3-2.68a83.08,83.08,0,0,0,1.61-8.46A27.88,27.88,0,0,1,262,21.61h0a.83.83,0,0,1,.27.08.71.71,0,0,0,.26.09c0-.05.09-.18.19-.41S263,21,263,21h.08c0,.54.1.81.2.81s.11-.06.17-.18.13-.25.2-.39a3.44,3.44,0,0,1,.22-.38q.1-.18.21-.18C264.21,20.71,264.31,20.84,264.42,21.11Zm-.23,8.55c-.06.13-.29,1-.68,2.55a1.6,1.6,0,0,0,.17.84h.15l.11,0s.09,0,.14,0h.3a.43.43,0,0,0,.41-.26,1.44,1.44,0,0,0,.12-.61,3.37,3.37,0,0,0-.15-.91l-.17-.61-.11-.65C264.44,29.8,264.34,29.68,264.19,29.66Z" transform="translate(-12.43 -14.82)" style="fill:#fff"/><path d="M281.33,22.07v.13s-.07.13-.2.27a5.63,5.63,0,0,0-.38.45,1.5,1.5,0,0,0-.24.44c0,.13,0,.19.23.19a.91.91,0,0,0,.28-.05,1.38,1.38,0,0,1,.31,0q.09,0,.09.06a.54.54,0,0,1-.09.16A1.28,1.28,0,0,1,281,24a1.31,1.31,0,0,0-.29.52c0,.17.07.26.33.26a1.57,1.57,0,0,0,.55-.15,1.75,1.75,0,0,1,.55-.14,1.91,1.91,0,0,1,0,.48.3.3,0,0,0,.1.26h.47a1.07,1.07,0,0,1-.34.45,5.64,5.64,0,0,0-.53.59.38.38,0,0,0,.18.29.87.87,0,0,1,.2.16v.06a.56.56,0,0,1-.06.23.68.68,0,0,0,0,.22c0,.2.12.3.38.3l.2,0,.21,0c.11,0,.17,0,.17.1a.43.43,0,0,1-.08.21l-.16.23a.36.36,0,0,0-.08.17c0,.18.21.3.62.39.22,0,.3.1.27.16a.52.52,0,0,1-.29.18c-.15.05-.32.11-.52.16s-.37.1-.5.15a5.23,5.23,0,0,0-1,.4,7.61,7.61,0,0,0-1.18.76,4.75,4.75,0,0,0-1,1.06,2.45,2.45,0,0,0-.42,1.39,2.06,2.06,0,0,0,.2.88,3.56,3.56,0,0,0,.48.77,5.46,5.46,0,0,0,.62.65,4.64,4.64,0,0,0,.59.45c.19.11.93.43,2.23,1a1.69,1.69,0,0,0-.26.55c0,.13,0,.32,0,.58a5.83,5.83,0,0,1,0,.68.83.83,0,0,1-.15.43.85.85,0,0,0-.15.38v.06c0,.06-.1.1-.3.1H282a.29.29,0,0,1-.17,0l-.32-.06c-.26,0-.39,0-.39.13a.58.58,0,0,0,.12.31,3.12,3.12,0,0,0,.31.35l.39.34c.13.11.25.19.35.26v.06c0,.2-.15.38-.57.55l-.55.26a1.81,1.81,0,0,0-.49.32l.44,1L281,43a1.44,1.44,0,0,1-.74-.2l-.77-.48a4.34,4.34,0,0,1-.73-.66c-.29-.32-.6-.63-.91-1s-.62-.62-.93-.88a2.22,2.22,0,0,0-.81-.51c-.21-.25-.4-.51-.57-.75s-.32-.54-.49-.86l-.54-1.11c-.21-.42-.45-.93-.72-1.51a5.79,5.79,0,0,1-.12-1.19,9.82,9.82,0,0,1,.1-1.13c.06-.48.14-1,.23-1.49s.2-1,.31-1.48a10.48,10.48,0,0,1,.31-1.17c.68-2.21,1.37-3.32,2.08-3.32A8.94,8.94,0,0,1,280,22.13a.91.91,0,0,0-.48.74l.12.13.72-.42.46-.26C280.94,22.24,281.12,22.15,281.33,22.07Z" transform="translate(-12.43 -14.82)" style="fill:#fff"/><path d="M294.7,21.16c0,.11,0,.2,0,.28s0,.12,0,.14a5.39,5.39,0,0,1-.07.65,4.86,4.86,0,0,0-.06.64c0,.35.07.52.22.52a.69.69,0,0,0,.26-.06.54.54,0,0,1,.27-.07,1,1,0,0,1,.5.18,1,1,0,0,0,.48.18c.24,0,.34.17.31.51a1,1,0,0,0,0,.23c0,.06,0,.14,0,.22a.4.4,0,0,0,.09.33l.15-.2a.4.4,0,0,1,.29-.19c.09,0,.16.09.22.26l0,.06a2.69,2.69,0,0,1-.2.68c-.14.41-.32.91-.54,1.49L296,28.85l-.63,1.68v.84L297.21,36a3.9,3.9,0,0,1,.34,1.1.77.77,0,0,1-.13.45l-.36,1c-.13.34-.3.55-.53.61a2.82,2.82,0,0,1-.24.75c-.17.38-.31.76-.44,1.13h-.07c-.07,0-.17.07-.32.21s-.25.21-.29.21-.09-.06-.15-.18-.13-.18-.19-.18-.15.1-.29.31-.25.31-.31.31h0l-.55-1.46c-.09-.21-.16-.4-.22-.56a2.06,2.06,0,0,0-.16-.38,7.59,7.59,0,0,0-.68-1.35h0c-.13,0-.21.16-.24.47s-.06.65-.09,1a9.12,9.12,0,0,1-.16,1c-.06.31-.21.47-.42.47q-.06,0-.27.36c-.15.23-.25.35-.32.35a.44.44,0,0,1-.28-.19.48.48,0,0,0-.36-.2,1.12,1.12,0,0,0-.49.13l-.42.2-.73-.1c-.18,0-.28,0-.3-.07a1.44,1.44,0,0,1-.91-.8c0-.71,0-1.45,0-2.2s0-1.53,0-2.33V32.37q0-.61,0-1.26c0-.43,0-.89-.07-1.39v-.09a1.45,1.45,0,0,0-.06-.33l-.15-.47c-.05-.16-.09-.31-.14-.45a1.24,1.24,0,0,1-.06-.31.86.86,0,0,1,.22-.48,1.54,1.54,0,0,0,.23-.94c0,.05,0,0,0-.16s-.05-.36-.08-.63-.06-.57-.08-.92,0-.68,0-1,0-.71-.07-1.28-.08-1-.08-1.27.09-.62.26-.62a.48.48,0,0,1,.44.25,1.86,1.86,0,0,1,.22.59,6,6,0,0,1,.08.78c0,.28,0,.54.06.77,0,0,0-.16.07-.35s.08-.41.13-.65a4.87,4.87,0,0,1,.15-.63c.05-.18.1-.27.14-.27a.83.83,0,0,1,.25.08.72.72,0,0,0,.24.08c.09,0,.16-.09.23-.26h0s.1.05.17.15.13.21.2.34.13.24.19.33.09.15.11.15a.73.73,0,0,0,.1-.19,4.33,4.33,0,0,1,.22-.42,4.38,4.38,0,0,1,.28-.42.43.43,0,0,1,.32-.2q.72,0,.93.84a9.47,9.47,0,0,1,.2,2.2v1c.12.13.19.19.21.19.22-.49.48-1.12.8-1.89s.68-1.64,1.11-2.63C294.5,20.6,294.62,20.79,294.7,21.16Z" transform="translate(-12.43 -14.82)" style="fill:#fff"/></svg>