<?xml version="1.0" encoding="utf-8"?>
<!-- Generator: Adobe Illustrator 26.1.0, SVG Export Plug-In . SVG Version: 6.00 Build 0)  -->
<svg version="1.1" xmlns="http://www.w3.org/2000/svg" xmlns:xlink="http://www.w3.org/1999/xlink" x="0px" y="0px"
	 viewBox="0 0 3818.4 403.7" style="enable-background:new 0 0 3818.4 403.7;" xml:space="preserve">
<style type="text/css">
	.st0{fill:#FFFFFF;stroke:#000000;stroke-width:23;stroke-linecap:round;stroke-miterlimit:10;}
	.st1{fill:#FFFFFF;stroke:#000000;stroke-width:6;stroke-miterlimit:10;}
	.st2{fill:#C4D8F0;stroke:#000000;stroke-width:6;stroke-miterlimit:10;}
	.st3{fill:#E270AA;stroke:#000000;stroke-width:6;stroke-miterlimit:10;}
	.st4{fill:#E0BF00;stroke:#000000;stroke-width:6;stroke-miterlimit:10;}
</style>
<g id="Layer_2">
	<g id="_x23_ffffffff_00000128451350465132905180000013822554469965600947_">
		<path class="st0" d="M1011.3,75.4c17.8-3.7,36.4-3.9,54.3-0.7c16.5,3.4,33.4,10.1,44.5,23.3c9.8,10.8,16.2,25.2,15.9,39.9
			c0,6.7,0,13.3,0,20c-25.8,0-51.6,0.1-77.3-0.1c0.1-5.6,0-11.3,0.1-16.9c-0.1-3.1-0.2-6.7-2.4-9.1c-2.9-2.7-8.4-2.4-10.6,1.1
			c-2.2,3.9-1.3,8.6-1.5,12.9c-0.2,5.4,0.6,12,5.8,15.1c9.7,6.2,20.8,9.8,31.2,14.5c11.6,1.9,23.5,2.1,35.1,3.8
			c-7.5,0.6-15,1.1-22.4,2.2c11.8,1.7,23.7,1.9,35.4,3.9c-8.1,0.4-16.1,1.5-24.2,2.1c11.3,1.2,22.7,2.3,34.1,3.2
			c-8.6,1.3-17.4,1.7-26,2.7c8.1,6.8,15.8,14.6,20,24.5c6.7,14.9,5.9,31.5,5.6,47.4c-0.6,18.3-7.9,36.4-20.8,49.4
			c-11,11.5-26.6,17.1-42,19.6c-18.1,2.8-36.7,2.7-54.8-0.1c-14-2.5-28.2-7-39.5-15.9c-10.1-8.6-17.8-20.4-20.5-33.5
			c-2.8-12.3-1.5-25-1.7-37.5c27.7,0.1,55.3,0,83,0c0,7.9,0,15.7,0,23.6c0,3,1.6,6.4,4.7,7.2c3,0.7,7,0.4,8.8-2.5
			c2.2-3.5,1.3-7.8,1.5-11.7c0.1-5.9,0.2-12.6-4.2-17.1c-5.2-4.5-11.7-7.4-18-9.8c-17-1.8-34-3.2-50.9-4.9
			c-4.9-0.6-9.9-0.7-14.7-1.7c11.1-0.6,22.1-2,33.1-2.9c-9.2-1.4-18.5-1.5-27.6-3.1c9.4-0.6,18.8-1.3,28.1-2.7
			c-7.1-1-14.2-1.3-21.3-2.2c4.8-0.7,9.7-0.9,14.6-1.5c-11.8-8.3-22.3-19.1-27.8-32.6c-5.3-12.1-5.6-25.4-5.3-38.4
			c-0.5-17.1,4.8-34.6,16.2-47.6C980.1,86.6,995.4,78.7,1011.3,75.4z"/>
		<path class="st0" d="M1182.2,78.9c16.6-6.1,34.6-7.1,52.1-6c17.6,1.3,35.5,6.2,49.3,17.6c11.3,9.1,18.8,22.2,22.3,36.2
			c4.4,16.3,3.4,33.2,3.5,49.9c-25.9,0-51.8-0.1-77.7,0.1c-0.2-10,0-19.9-0.1-29.9c-0.1-2.3-0.4-4.7-1.8-6.5
			c-2.2-3.1-6.8-3.5-9.9-1.6c-3.1,1.9-3.5,5.9-3.6,9.2c0,14.6,0,29.2,0,43.8c5.2,0.8,10.5,1.2,15.7,2.4c-5.3,0.7-10.5,1.4-15.8,2.2
			c0,0.5,0,1.6,0.1,2.1c8.6,1.4,17.2,2.9,25.9,4.1c-8.4,1.7-17,2.6-25.3,4.4c-0.3,0.3-0.9,0.9-1.2,1.2c5.5,1.4,11.2,2,16.7,3.2
			c-5.3,1.2-10.7,1.9-16.1,2.9c0,15.6,0,31.2,0,46.8c0.1,2.9,0.3,6.1,2.3,8.4c2.4,2.2,6.2,2.4,9.1,1.1c3.1-1.6,3.7-5.5,3.8-8.6
			c0-11.6,0-23.3,0-34.9c25.9-0.1,51.9,0,77.8-0.1c-0.1,13.4,0.5,26.8-0.8,40.1c-1.5,13.7-5.4,27.4-13.5,38.7
			c-8.2,11.8-20.6,20.2-34,24.8c-12.5,4.4-25.8,5.7-38.9,5.8c-17.7-0.2-35.9-3-51.4-12c-13-7.4-23.3-19.5-28.6-33.5
			c-5.7-14.3-6.5-29.8-6.5-45c0.1-29.9-0.1-59.7,0.1-89.6c0.1-16.9,2.7-34.5,11.6-49.2C1155.1,93.8,1167.9,84.1,1182.2,78.9z"/>
		<path class="st0" d="M2673.3,78.7c15.3-5.5,31.8-6.6,47.9-6.1c14.2,0.6,28.5,3.4,41.4,9.6c18.3,8.3,32.4,25.7,36.2,45.5
			c1.5,9.9,0.8,20.1,0.9,30.1c-25.8,0-51.7,0-77.5,0c-0.2-7.4,0.4-14.8-0.4-22.2c-0.6-5.4-8-7.5-11.7-3.9c-2.9,3.3-2.3,8-2.4,12.1
			c0,5.1-0.2,11,3.4,15.1c5.1,4.6,11.7,7.1,18,9.9c3.5,1.8,7.4,1.4,11.2,1.9c15.8,1.6,31.7,2.8,47.4,4.7c-9.8,1.1-19.7,1.8-29.5,2.9
			c15.4,1.6,30.9,2.8,46.3,4.6c-10.1,1.3-20.4,1.6-30.4,3.2c14.4,1.1,28.8,2.2,43.1,4.2c-13.3,0.8-26.5,2.5-39.8,3.6
			c8.8,7,16.5,15.8,20.5,26.4c5.7,14.4,4.6,30.2,4.5,45.4c-0.9,23.1-12.7,46.5-33,58.4c-10.9,6.4-23.5,9.4-36,11
			c-18.1,2-36.5,1.6-54.4-2.1c-13-2.9-26.1-7.8-36.2-16.9c-8-7.7-14.4-17.3-17.3-28.1c-3.8-13.2-1.9-27.1-2.4-40.6
			c27.6,0,55.1,0,82.7,0c0.2,7.8-0.1,15.6,0.1,23.5c0.1,3.2,1.9,6.8,5.3,7.5c2.6,0.4,5.7,0.3,7.6-1.8c2.6-3.3,2.1-7.8,2.3-11.7
			c-0.2-5.6,0.2-11.9-3.2-16.7c-4-4.7-9.9-7-15.3-9.6c-5.6-2.3-11-5.1-16.6-7.1c-16-2-32.2-2.6-48.2-5c10.1-0.7,20.2-1.4,30.2-3
			c-15.8-0.7-31.4-3.2-47.2-4c11.9-2,24-2.4,36-3.8c-15.4-10.8-26.8-27.7-29.2-46.5c-1.2-8.3-0.4-16.8-0.7-25.1
			c-0.3-16,5.3-32.1,15.8-44.2C2650.9,90,2661.6,82.8,2673.3,78.7z"/>
		<path class="st0" d="M3253.1,77.7c15.1-4.9,31.3-5.8,47.1-4.9c17.2,1.1,34.9,5.5,48.9,16.1c13.6,9.9,22.1,25.6,25.4,41.9
			c3.2,15,2.4,30.5,2.6,45.8c-25.9,0-51.8,0-77.7,0c-0.1-9.9,0.1-19.9-0.1-29.8c0.1-3.9-1.7-8.6-6-9.1c-4.6-1.2-9,2.6-9,7.2
			c-0.4,14.9,0,29.8-0.1,44.7c4.7,0.8,9.5,1.4,14.2,2.3c-4.7,0.8-9.5,1.5-14.2,2.2c0,0.8,0,2.4-0.1,3.2c9.1,1.3,18.3,2.2,27.5,3.6
			c-9.1,1.5-18.3,2.2-27.5,3.6c0,1.4,0,2.9,0,4.3c5.7,1,11.4,2,17.2,3c-5.7,1.2-11.5,2-17.2,3.1c0,15.7,0,31.4,0,47
			c0,2.9,0.6,6.3,3.1,8.2c2.9,1.8,7.1,1.7,9.7-0.6c2.3-2.6,2.3-6.3,2.4-9.6c0-11,0-22,0-33c25.9,0,51.8,0,77.8,0
			c-0.3,21.7,1.6,44.3-6.8,64.9c-6.2,16.2-19.2,29.4-35.1,36.2c-13.4,6-28.3,8-42.9,8.4c-20.5,0.1-42-3.2-59.1-15.3
			c-12.7-8.8-21.7-22.3-25.8-37.1c-3.3-11.4-4.1-23.3-4.1-35.1c0-31.3,0-62.7,0-94c0.2-16.6,3-33.7,11.8-48.1
			C3223.4,92.6,3237.6,82.6,3253.1,77.7z"/>
		<path class="st0" d="M257.4,77.9c24,0,48,0,71.9,0c3.8,37.7,7.2,75.4,11.3,113.1c2.2-20.6,5.1-41.2,7.5-61.8
			c-3.3-0.7-6.6-1.5-10-2.1c3.5-0.9,7-1.7,10.6-2.4c0.3-3,0.7-5.9,1.1-8.9c-5.2-1.2-10.5-2.3-15.8-3.5c5.5-1.3,11.1-2.5,16.6-3.7
			c0.3-2.5,0.6-5,0.9-7.4c-6.6-1.5-13.2-2.8-19.8-4.4c6.9-1.7,14-3.1,20.9-4.7c0.6-4.7,1.2-9.4,1.7-14.1c19.1-0.1,38.1-0.1,57.2,0
			c0.5,4.5,1.1,9,1.8,13.4c6.9,1.4,13.7,3,20.6,4.5c-6.5,1.5-13,2.9-19.4,4.3c0.3,2.5,0.7,4.9,1,7.4c5.6,1.4,11.2,2.5,16.9,3.8
			c-5.3,1.3-10.6,2.4-15.9,3.6c0.5,3.2,0.9,6.5,1.4,9.7c3.4,0.7,6.9,1.4,10.2,2.4c-3.2,0.7-6.4,1.4-9.6,2c2.4,20.7,5.7,41.3,8,62
			c0.5-2.1,0.8-4.2,1-6.3c3.2-35.6,6.6-71.2,9.8-106.9c23.8-0.2,47.5,0,71.3-0.1c-7.5,62.7-14.9,125.4-22.4,188.1
			c4.3,1.4,8.6,2.7,12.8,4.1c-4.4,1.4-8.9,2.8-13.3,4.2c6.3,2.6,13.2,4,19.5,6.7c-7,2.3-14,4.5-21,6.7c8.3,3,16.9,5.1,25.1,8.3
			c-9.2,3.1-18.6,5.8-27.8,9c-0.8,8.6-2.1,17.1-2.9,25.7c-26.9,0.3-53.7,0-80.6,0.2c-1.1-0.3-3.5,0.7-3.6-1
			c-0.7-6.7-1.5-13.3-2.2-20c-6-0.8-12.1-1.6-18.1-2.5c-1,7.8-1.8,15.6-2.6,23.4c-27.8,0-55.5,0.1-83.3,0c-2.6-21.6-5.2-43.2-8-64.8
			c-19.2-4.4-38.4-8.8-57.5-13.4c18-4.5,36.1-8.4,54.1-12.7c-27.9-4-56-7.3-83.8-11.5c27.1-3.3,54.2-7.1,81.3-10.8
			c-0.1-0.4-0.2-1.3-0.3-1.8c-32.8-4-65.6-7.4-98.4-11.5c31.9-3.7,63.8-7.3,95.7-11.1c0-0.4-0.1-1.2-0.1-1.7
			c-26.1-3.5-52.2-7.1-78.3-10.4c23.2-3.4,46.5-6.3,69.7-9.5c2.2-0.5,4.9-0.1,6.6-1.9c-1.3-0.7-2.7-1.2-4.1-1.5
			c-14.2-3.3-28.4-6.4-42.5-10c14.4-3.4,28.9-6.7,43.3-10.1C263.1,124.8,260.3,101.3,257.4,77.9 M383.2,228.7
			c-3,26.2-5.9,52.4-8.8,78.5c5.9-1,11.9-1.2,17.6-2.7c-0.3-1.5-0.5-2.9-0.8-4.4c-4.4-0.6-8.9-1.1-13.3-1.8
			c4.3-0.7,8.6-1.2,12.9-1.8C388.3,273.9,386,251.3,383.2,228.7z"/>
		<path class="st0" d="M516.2,77.9c26.8,0.1,53.7-0.1,80.6,0.1c-0.1,84.3-0.1,168.6,0,252.9c-26.8,0.1-53.7,0-80.5,0.1
			C516.2,246.5,516.2,162.2,516.2,77.9z"/>
		<path class="st0" d="M611.2,77.9c30.3,0.2,60.7-0.3,91.1,0.3c16,0.6,32.2,3.1,47,9.5c7.6,1.7,15.4,2.6,23.1,4.2
			c-3.9,1-7.9,1.3-11.8,2.3c1.5,0.9,2.8,2.1,4.5,2.5c6.4,1.3,12.8,2,19.2,3.5c-4.6,0.6-9.1,1.6-13.7,2.2
			c12.5,13.1,17.5,31.7,17.5,49.4c0.3,28.4,0,56.8,0.1,85.2c-0.1,15.3,0.8,31.1-4.1,45.9c-2.7,8.3-7.2,16-13,22.5
			c3.8,0.6,7.7,1.3,11.5,2c-5.4,1.2-10.9,1.8-16.3,3c-2.3,1.2-4.2,3.1-6.2,4.6c4.3,0.8,8.6,1.4,12.8,2.3c-8.5,1.6-17.1,2.8-25.6,4.6
			c-20.2,8.4-42.4,9.6-63.9,9.1c-24,0-48,0-72,0C611.2,246.5,611.2,162.2,611.2,77.9 M692,142.8c0,14.9,0,29.8,0,44.8
			c3,1,6,1.9,9,2.9c-3,1-6,1.9-9,2.9c0,2.2,0,4.4,0,6.6c4.1,1.3,8.1,2.5,12.2,3.9c-4.1,1.3-8.1,2.6-12.2,3.9c0,2.3,0,4.6,0,6.8
			c3,1,6,1.9,9,2.8c-3,1-6.1,2-9.1,3c0.1,15.2,0,30.3,0,45.5c3.9-0.2,8.3,0.8,11.8-1.5c3-2.1,3.6-6.1,3.6-9.5c0-33.3,0-66.6,0-99.9
			c-0.1-3.5-0.3-7.5-3.2-9.9C700.8,142.2,696.1,143,692,142.8z"/>
		<path class="st0" d="M800.7,77.9c47.5-0.2,95,0,142.6-0.1c0,21.8,0,43.7,0,65.5c-20.7,0.1-41.4,0-62,0c0,2.7,0,5.3,0,8
			c3.4,0.5,6.7,1.1,10,1.9c-3.4,0.4-6.8,1-10.2,1.7c5.7,1.1,11.4,1.8,17,3.3c-5.8,0.7-11.5,1.8-17.2,3c3.4,0.5,6.8,1.1,10.2,1.8
			c-3.3,0.6-6.7,1.2-10,1.8c0,2.6,0,5.2,0,7.8c17.7,0,35.5,0,53.2,0c0,19.9,0,39.8,0,59.7c-17.8,0.1-35.5,0-53.3,0
			c0,3.4,0,6.7,0,10.1c3.4,0.6,6.7,1.1,10,1.9c-3.1,0.5-6.1,0.9-9.1,1.7c5,1.1,10.2,1.5,15.2,2.9c-5.3,1.2-10.7,1.8-16,3
			c3.3,0.6,6.6,1.2,10,1.7c-3.3,0.7-6.7,1.2-10,1.9c0,3.4,0,6.7,0,10.1c20.7,0,41.5,0,62.2,0c0,21.8,0,43.5,0,65.2
			c-47.6,0-95.2,0.1-142.8-0.1C800.8,246.5,800.8,162.2,800.7,77.9z"/>
		<path class="st0" d="M1320,77.9c29.1,0,58.1,0,87.2,0c16.8,0.2,34,1.7,49.5,8.5c10.1,4.3,19.3,11.3,25.2,20.7
			c7.4,11.4,9.7,25.4,9.4,38.8c-0.1,16.2,1.6,33.5-6.3,48.4c2.2,0.7,4.4,1.4,6.6,2.2c-3.4,1.1-6.9,2.1-10.2,3.5
			c4.2,1.4,8.5,2.7,12.7,4.2c-7.3,2.2-14.6,4.6-21.8,7c8.7,1.5,17.4,3,26.2,4.5c-7.7,1.8-15.6,2.6-23.2,4.3c6,2,12,3.9,18,5.8
			c-3.9,1.4-7.9,2.6-11.8,3.8c3,1,6.1,1.9,9.1,3.1c-2,0.7-4,1.4-6,2c5,8.5,7,18.5,6.8,28.3c0.1,16-0.3,32,0.3,48
			c0.3,6.7,0.9,13.5,3,19.9c-26.2,0-52.4,0-78.5,0c-3.1-7.6-3.2-15.9-3.5-24c0-16.3,0-32.7,0-49c0-3.5-0.8-7.4-3.8-9.5
			c-2.5-1.6-5.7-1.2-8.5-1.3c-0.1,27.9,0,55.9,0,83.8c-26.8,0-53.5,0-80.2,0C1320,246.5,1320,162.2,1320,77.9 M1400.3,139.1
			c0,4.3,0,8.6,0,12.8c2.9,0.9,5.9,1.9,8.9,2.8c-3.1,1.2-6.4,1.7-9.2,3.4c3.8,1.4,7.7,2.4,11.5,3.9c-3.7,1.3-7.5,2.2-11.1,3.7l0,1
			c2.6,1.1,5.3,1.8,8,2.6c-2.7,0.9-5.3,1.8-8,2.6c0,5.3,0,10.6,0,15.9c3.1-0.1,6.6,0.2,9.2-1.9c2.5-2.3,3.1-6,3.1-9.2c0-9,0-18,0-27
			c0-3.2-0.6-6.8-3.2-9C1406.9,138.5,1403.3,139.2,1400.3,139.1z"/>
		<path class="st0" d="M1504.2,77.9c47.5,0,95-0.1,142.5,0c-0.1,21.8,0,43.6,0,65.5c-20.7,0-41.3,0-62,0c0,3,0,6,0,9
			c4,0.7,7.9,1.4,11.9,2.1c-3.3,0.8-6.7,1.3-10,2c5.6,1,11.3,1.9,16.9,3c-5.7,1-11.4,1.9-17.1,3.1c3.4,0.6,6.8,1.1,10.2,1.9
			c-4,0.7-8,1.4-11.9,2.1c0,2.1,0,4.1,0,6.2c17.7-0.1,35.5,0,53.2,0c0,19.9,0.1,39.9-0.1,59.8c-17.7-0.1-35.5,0-53.2,0
			c0,3.2,0,6.5,0,9.7c4.9,1,9.9,1.5,14.7,2.8c-3.8,0.9-7.7,1.3-11.4,2.3c6.3,0.9,12.6,2.1,18.8,3.3c-5.6,1.1-11.2,2-16.8,3
			c3.4,0.7,6.8,1.3,10.2,1.9c-5.2,0.9-10.3,1.8-15.5,2.7c0,2.5,0,4.9-0.1,7.4c20.8,0.1,41.5,0,62.3,0.1c0,21.8,0,43.5,0,65.2
			c-47.6,0-95.2,0-142.8,0C1504.2,246.5,1504.2,162.2,1504.2,77.9z"/>
		<path class="st0" d="M1658.7,77.9c47.5-0.2,95,0,142.6-0.1c0,21.8,0.1,43.7,0,65.5c-20.5-0.1-41.1,0.1-61.6-0.1
			c-0.1,2.6-0.3,5.2,0.1,7.7c3.8,0.8,7.8,1.3,11.6,2.2c-3.4,0.5-6.8,1-10.1,1.8c5.4,1.1,11,1.7,16.3,3.1c-5.5,1.1-11,1.9-16.5,3
			c3.4,0.6,6.9,1.1,10.2,2c-3.9,0.5-7.8,1.3-11.7,2c0,2.5,0,5,0,7.5c17.7,0,35.3,0,53,0c0,19.9,0,39.8,0,59.7
			c-17.7,0.1-35.4-0.1-53.1,0.1c0.1,3.3,0,6.7,0.1,10c4.3,0.9,8.7,1.2,12.9,2.5c-3.1,0.7-6.2,1.2-9.3,1.7c5.6,1,11.2,2.5,16.9,2.6
			c-5,2.1-10.7,2-15.9,3.4c3.4,0.9,6.9,1.3,10.3,2c-4.9,1.1-9.9,1.8-14.9,2.7c0,2.7,0,5.4,0,8.2c20.7,0,41.5,0,62.2,0
			c0.1,21.7-0.1,43.5,0.1,65.2c-47.7,0.1-95.4,0.1-143.1,0C1658.8,246.5,1658.8,162.2,1658.7,77.9z"/>
		<path class="st0" d="M1813.5,77.9c20.6,0,41.3-0.1,61.9,0c6.3,16.1,11.9,32.7,17.9,49c4.8,13.8,10.3,27.3,14.6,41.2
			c0.8-22.5,0.1-45.1,0.4-67.6c-4.4-0.7-8.9-0.9-13.2-2c4.5-0.6,9.1-0.8,13.5-1.9c-6.4-1-12.9-1.6-19.2-2.6c6.4-1,12.8-1.6,19.1-2.6
			c-8.7-1.6-17.6-2.2-26.3-3.7c8.7-1,17.5-2.2,26.2-3.4c-0.1-2.1-0.1-4.2,0-6.3c24.5,0,49-0.1,73.6,0.1c-0.1,84.3-0.1,168.6,0,252.9
			c-20.5,0.2-40.9,0.1-61.4,0c-11-29.4-22.1-58.8-33-88.2c-0.4,21.4-0.1,42.9-0.2,64.3c4.1,0.6,8.2,1,12.3,1.6
			c-3.9,0.9-8,1.1-11.9,1.8c6.2,1.2,12.6,1.9,18.8,3.5c-5.9,1.3-11.9,1.9-17.7,3.3c8.6,1.1,17.2,2.4,25.8,3.2
			c-9,1.6-18.2,2.5-27.2,3.7c-0.1,2.2-0.1,4.4-0.1,6.6c-24.6,0-49.2,0-73.8,0C1813.5,246.5,1813.5,162.2,1813.5,77.9z"/>
		<path class="st0" d="M2034.2,77.9c49,0,98,0,147,0c-0.1,21.9,0.1,43.7-0.1,65.6c-22.1-0.2-44.3,0-66.4-0.1c0,3,0,6.1,0,9.1
			c8.6,1.4,17.2,2.6,25.7,4.1c-7,1.3-14.1,2.1-21.2,3.5c4.7,0.6,9.4,1.3,14.1,2.2c-6.2,0.9-12.5,1.9-18.7,2.8c0,4.2,0,8.3,0,12.5
			c19.4,0.1,38.9,0,58.3,0c0,21.8,0,43.5,0,65.2c-19.4,0-38.8,0-58.3,0c0,29.3-0.1,58.6,0,88c-26.9,0.1-53.7,0-80.5,0
			C2034.2,246.5,2034.2,162.2,2034.2,77.9z"/>
		<path class="st0" d="M2193.2,77.9c26.9,0,53.8,0,80.8,0c0,84.3,0,168.6,0,253c-26.9,0-53.8,0-80.8,0
			C2193.2,246.5,2193.2,162.2,2193.2,77.9z"/>
		<path class="st0" d="M2278.6,77.9c26.5,0,53,0,79.5,0c5.7,17.1,11.4,34.1,17,51.2c3.8-10.9,7-22.1,10.6-33
			c-4.2-0.6-8.3-1.4-12.5-1.7c4.3-1.2,8.7-1.5,13.1-2.3c-6.7-1.5-13.6-2-20.3-3.5c7.7-1.3,15.5-2.4,23.2-3.7c0.7-2.3,1.4-4.6,2.2-7
			c26.2,0,52.4,0,78.5,0c-16,37.7-31.8,75.4-47.8,113.1c5.9,0.8,11.8,1.9,17.8,2.6c0,0.1,0,0.4,0,0.5c-5.4,0.7-10.6,1.6-16,2.4
			c10.1,2,20.2,3.2,30.4,4.9c-10,2.1-20.2,3.1-30.2,5c5.8,0.9,11.6,1.6,17.4,2.8c-6.4,1-12.9,2-19.3,3
			c15.9,39.6,31.8,79.2,47.7,118.8c-27.6,0-55.2,0-82.8,0c-5.1-15.6-10.4-31.2-15.4-46.9c-3.2,9.5-6.5,19-9.4,28.5
			c3.8,0.5,7.6,1,11.4,1.8c-4.4,1.1-8.9,1.5-13.3,2.3c7,1.4,14.2,2.1,21.2,3.5c-7.7,0.9-15.4,2.2-23,3.5c-0.8,2.4-1.6,4.8-2.4,7.3
			c-25.8,0-51.6,0-77.4,0c15.8-39.6,31.9-79.1,47.7-118.8c-7.4-1.2-14.8-2-22.1-3.6c6.4-0.6,12.8-1.7,19.1-2.9
			c-9.8-1.2-19.5-3.1-29.2-4.3c9.3-2.1,18.9-2.8,28.2-4.8c-5.1-0.5-10.2-1.5-15.3-2.1c5.7-1.6,11.6-2,17.5-3
			C2309.3,153.5,2293.8,115.7,2278.6,77.9z"/>
		<path class="st0" d="M2474.2,77.9c47.5,0,95-0.1,142.6,0.1c-0.1,21.8,0,43.6-0.1,65.4c-20.6,0-41.2,0-61.7,0c0,1.5-0.1,2.9,0,4.4
			c6.1,0.9,12.1,2.1,18.3,2.7c-4.9,1.3-10.1,1.5-15,2.7c9.5,1.2,18.9,3,28.4,4.2c-10,2.1-20.2,3-30.2,5c5.6,1.1,11.4,1.4,16.9,2.9
			c-6.2,0.8-12.4,1.8-18.5,2.8c0,1.1,0,3.2-0.1,4.3c17.7,0.2,35.3,0.1,53,0c0.1,19.9,0.2,39.9,0,59.9c-17.6-0.2-35.3,0-52.9-0.1
			c0,2.6,0,5.2,0,7.8c6.1,1.1,12.2,1.6,18.3,3.1c-5.1,0.4-10.1,1.5-15.2,2c9.7,1.9,19.5,3,29.2,4.8c-10.4,1.2-20.7,3.2-31,4.6
			c5.7,1.1,11.5,1.9,17.3,2.7c-6.1,1.5-12.5,2-18.7,3.1c0,1.7,0,3.4,0,5.1c20.7,0,41.5,0,62.2,0c0,21.8,0,43.5,0,65.2
			c-47.7,0-95.3,0-143,0C2474.2,246.5,2474.2,162.2,2474.2,77.9z"/>
		<path class="st0" d="M2849.7,77.9c29.5-0.2,59.1,0,88.6-0.1c19.4,0.1,39.9,2.6,56.6,13.5c13.1,8.3,21.9,22.3,25.6,37.2
			c4.5,16.8,2.7,34.2,3,51.4c0.5,18.8-2.8,38.6-14.4,53.9c-10,13.2-25.8,20.9-41.8,24.1c-12.2,2.6-24.6,2.6-37,2.5
			c0,23.5,0,47,0,70.5c-26.9,0-53.7,0.1-80.6-0.1C2849.8,246.5,2849.8,162.2,2849.7,77.9 M2930.3,139.1c0,6.5,0,13,0,19.5
			c2.8,0.5,5.6,1,8.4,1.7c-2.7,0.7-5.5,1.1-8.2,1.8c-0.1,0.4-0.3,1.2-0.4,1.5c4.8,0.9,9.6,2,14.5,2.8c-4.7,1.3-9.5,2-14.3,3
			c0,0.5,0.1,1.5,0.1,2c2.7,0.5,5.5,0.9,8.1,1.8c-2.8,0.5-5.5,1.1-8.2,1.6c0,8.2,0,16.4,0,24.6c3.5-0.2,7.3,0.6,10.6-1
			c2.9-1.6,4.1-5.2,4.1-8.4c0-13.7,0-27.4,0-41.1c0-3-0.8-6.4-3.3-8.3C2938.3,138.2,2934,139.4,2930.3,139.1z"/>
		<path class="st0" d="M3057.8,84.4c0.4-2.2,0.8-4.4,1.2-6.6c32.8,0,65.5-0.1,98.3,0c0.4,2.1,0.8,4.3,1.3,6.4
			c16.6,2.1,33.2,3.8,49.8,6.1c-13.5,1.3-26.9,3.2-40.3,4.6c-1.1,0.4-3-0.2-3.5,0.5c9.9,1.4,20,2,29.9,3.9c-5.9,0-11.6,1.2-17.4,1.7
			c-5,0.7-10,0.9-14.9,2c6.1,0.8,12.3,1.4,18.5,2.2c-5.8,1-11.6,1.5-17.4,2.2c14.3,74.5,28.9,148.9,43.4,223.4
			c-26.9,0-53.7,0-80.5,0c-1.4-10.9-2.6-21.8-4-32.7c-10.1,0-20.3,0-30.4,0c-1.2,10.9-2.4,21.8-3.6,32.7c-26,0-52.1,0-78.1,0
			c14.6-75.2,29.2-150.4,43.9-225.6c-5.9-0.6-11.7-1.5-17.6-1.9c5.7-1,11.5-1.9,17.4-1.8c-9.4-2.2-19.1-2.2-28.6-4
			c8.1-0.9,16.2-1.6,24.3-3c-12.8-1.2-25.5-3.1-38.3-4.3C3026.6,87.9,3042.2,86.3,3057.8,84.4 M3106.6,168.9
			c-2.3,25.4-6,50.6-8.7,76c6,0,11.9,0,17.9,0C3112.8,219.5,3110,194.2,3106.6,168.9z"/>
		<path class="st0" d="M3387.5,77.9c26.8,0,53.7,0,80.5,0c-0.1,31.1,0.1,62.1-0.1,93.1c6.8-31,12.8-62.1,19.3-93.1
			c26.1,0,52.3,0,78.5,0c-5.8,21.9-11.5,43.7-17.3,65.6c13,3,25.9,6.1,38.9,9c-14.6,3.6-29.4,6.6-43.9,10.4
			c-0.2,0.6-0.6,1.8-0.8,2.4c24.6,3.5,49.3,6.3,73.9,10.1c-25,3-50,6.7-75,9.9c-1.7,0.5-4.2-0.2-4.9,1.9
			c32.6,3.8,65.3,7.6,97.9,11.2c-32.8,3.9-65.6,7.6-98.4,11.4c0.2,0.6,0.6,1.7,0.8,2.2c26.5,3.3,53,7.4,79.5,10.4
			c-24.7,4-49.5,6.7-74.3,10.3c0.2,1.2,0.6,2.5,0.9,3.7c14.7,3.3,29.3,6.9,44,10.1c-12.9,3.3-26,6-38.9,9.2
			c6.6,25,13.1,50.1,19.7,75.1c-26.9,0-53.8,0-80.7,0c-5-23.3-10-46.6-14.9-69.9c-1.4-5.8-2.2-11.8-4-17.5
			c-0.6,29.1-0.1,58.3-0.2,87.4c-26.9,0-53.7,0-80.5,0C3387.5,246.5,3387.5,162.2,3387.5,77.9z"/>
	</g>
</g>
<g id="Layer_1">
	<g id="_x23_ffffffff">
		<path class="st1" d="M1011.3,75.4c17.8-3.7,36.4-3.9,54.3-0.7c16.5,3.4,33.4,10.1,44.5,23.3c9.8,10.8,16.2,25.2,15.9,39.9
			c0,6.7,0,13.3,0,20c-25.8,0-51.6,0.1-77.3-0.1c0.1-5.6,0-11.3,0.1-16.9c-0.1-3.1-0.2-6.7-2.4-9.1c-2.9-2.7-8.4-2.4-10.6,1.1
			c-2.2,3.9-1.3,8.6-1.5,12.9c-0.2,5.4,0.6,12,5.8,15.1c9.7,6.2,20.8,9.8,31.2,14.5c11.6,1.9,23.5,2.1,35.1,3.8
			c-7.5,0.6-15,1.1-22.4,2.2c11.8,1.7,23.7,1.9,35.4,3.9c-8.1,0.4-16.1,1.5-24.2,2.1c11.3,1.2,22.7,2.3,34.1,3.2
			c-8.6,1.3-17.4,1.7-26,2.7c8.1,6.8,15.8,14.6,20,24.5c6.7,14.9,5.9,31.5,5.6,47.4c-0.6,18.3-7.9,36.4-20.8,49.4
			c-11,11.5-26.6,17.1-42,19.6c-18.1,2.8-36.7,2.7-54.8-0.1c-14-2.5-28.2-7-39.5-15.9c-10.1-8.6-17.8-20.4-20.5-33.5
			c-2.8-12.3-1.5-25-1.7-37.5c27.7,0.1,55.3,0,83,0c0,7.9,0,15.7,0,23.6c0,3,1.6,6.4,4.7,7.2c3,0.7,7,0.4,8.8-2.5
			c2.2-3.5,1.3-7.8,1.5-11.7c0.1-5.9,0.2-12.6-4.2-17.1c-5.2-4.5-11.7-7.4-18-9.8c-17-1.8-34-3.2-50.9-4.9
			c-4.9-0.6-9.9-0.7-14.7-1.7c11.1-0.6,22.1-2,33.1-2.9c-9.2-1.4-18.5-1.5-27.6-3.1c9.4-0.6,18.8-1.3,28.1-2.7
			c-7.1-1-14.2-1.3-21.3-2.2c4.8-0.7,9.7-0.9,14.6-1.5c-11.8-8.3-22.3-19.1-27.8-32.6c-5.3-12.1-5.6-25.4-5.3-38.4
			c-0.5-17.1,4.8-34.6,16.2-47.6C980.1,86.6,995.4,78.7,1011.3,75.4z"/>
		<path class="st1" d="M1182.2,78.9c16.6-6.1,34.6-7.1,52.1-6c17.6,1.3,35.5,6.2,49.3,17.6c11.3,9.1,18.8,22.2,22.3,36.2
			c4.4,16.3,3.4,33.2,3.5,49.9c-25.9,0-51.8-0.1-77.7,0.1c-0.2-10,0-19.9-0.1-29.9c-0.1-2.3-0.4-4.7-1.8-6.5
			c-2.2-3.1-6.8-3.5-9.9-1.6c-3.1,1.9-3.5,5.9-3.6,9.2c0,14.6,0,29.2,0,43.8c5.2,0.8,10.5,1.2,15.7,2.4c-5.3,0.7-10.5,1.4-15.8,2.2
			c0,0.5,0,1.6,0.1,2.1c8.6,1.4,17.2,2.9,25.9,4.1c-8.4,1.7-17,2.6-25.3,4.4c-0.3,0.3-0.9,0.9-1.2,1.2c5.5,1.4,11.2,2,16.7,3.2
			c-5.3,1.2-10.7,1.9-16.1,2.9c0,15.6,0,31.2,0,46.8c0.1,2.9,0.3,6.1,2.3,8.4c2.4,2.2,6.2,2.4,9.1,1.1c3.1-1.6,3.7-5.5,3.8-8.6
			c0-11.6,0-23.3,0-34.9c25.9-0.1,51.9,0,77.8-0.1c-0.1,13.4,0.5,26.8-0.8,40.1c-1.5,13.7-5.4,27.4-13.5,38.7
			c-8.2,11.8-20.6,20.2-34,24.8c-12.5,4.4-25.8,5.7-38.9,5.8c-17.7-0.2-35.9-3-51.4-12c-13-7.4-23.3-19.5-28.6-33.5
			c-5.7-14.3-6.5-29.8-6.5-45c0.1-29.9-0.1-59.7,0.1-89.6c0.1-16.9,2.7-34.5,11.6-49.2C1155.1,93.8,1167.9,84.1,1182.2,78.9z"/>
		<path class="st1" d="M2673.3,78.7c15.3-5.5,31.8-6.6,47.9-6.1c14.2,0.6,28.5,3.4,41.4,9.6c18.3,8.3,32.4,25.7,36.2,45.5
			c1.5,9.9,0.8,20.1,0.9,30.1c-25.8,0-51.7,0-77.5,0c-0.2-7.4,0.4-14.8-0.4-22.2c-0.6-5.4-8-7.5-11.7-3.9c-2.9,3.3-2.3,8-2.4,12.1
			c0,5.1-0.2,11,3.4,15.1c5.1,4.6,11.7,7.1,18,9.9c3.5,1.8,7.4,1.4,11.2,1.9c15.8,1.6,31.7,2.8,47.4,4.7c-9.8,1.1-19.7,1.8-29.5,2.9
			c15.4,1.6,30.9,2.8,46.3,4.6c-10.1,1.3-20.4,1.6-30.4,3.2c14.4,1.1,28.8,2.2,43.1,4.2c-13.3,0.8-26.5,2.5-39.8,3.6
			c8.8,7,16.5,15.8,20.5,26.4c5.7,14.4,4.6,30.2,4.5,45.4c-0.9,23.1-12.7,46.5-33,58.4c-10.9,6.4-23.5,9.4-36,11
			c-18.1,2-36.5,1.6-54.4-2.1c-13-2.9-26.1-7.8-36.2-16.9c-8-7.7-14.4-17.3-17.3-28.1c-3.8-13.2-1.9-27.1-2.4-40.6
			c27.6,0,55.1,0,82.7,0c0.2,7.8-0.1,15.6,0.1,23.5c0.1,3.2,1.9,6.8,5.3,7.5c2.6,0.4,5.7,0.3,7.6-1.8c2.6-3.3,2.1-7.8,2.3-11.7
			c-0.2-5.6,0.2-11.9-3.2-16.7c-4-4.7-9.9-7-15.3-9.6c-5.6-2.3-11-5.1-16.6-7.1c-16-2-32.2-2.6-48.2-5c10.1-0.7,20.2-1.4,30.2-3
			c-15.8-0.7-31.4-3.2-47.2-4c11.9-2,24-2.4,36-3.8c-15.4-10.8-26.8-27.7-29.2-46.5c-1.2-8.3-0.4-16.8-0.7-25.1
			c-0.3-16,5.3-32.1,15.8-44.2C2650.9,90,2661.6,82.8,2673.3,78.7z"/>
		<path class="st1" d="M3253.1,77.7c15.1-4.9,31.3-5.8,47.1-4.9c17.2,1.1,34.9,5.5,48.9,16.1c13.6,9.9,22.1,25.6,25.4,41.9
			c3.2,15,2.4,30.5,2.6,45.8c-25.9,0-51.8,0-77.7,0c-0.1-9.9,0.1-19.9-0.1-29.8c0.1-3.9-1.7-8.6-6-9.1c-4.6-1.2-9,2.6-9,7.2
			c-0.4,14.9,0,29.8-0.1,44.7c4.7,0.8,9.5,1.4,14.2,2.3c-4.7,0.8-9.5,1.5-14.2,2.2c0,0.8,0,2.4-0.1,3.2c9.1,1.3,18.3,2.2,27.5,3.6
			c-9.1,1.5-18.3,2.2-27.5,3.6c0,1.4,0,2.9,0,4.3c5.7,1,11.4,2,17.2,3c-5.7,1.2-11.5,2-17.2,3.1c0,15.7,0,31.4,0,47
			c0,2.9,0.6,6.3,3.1,8.2c2.9,1.8,7.1,1.7,9.7-0.6c2.3-2.6,2.3-6.3,2.4-9.6c0-11,0-22,0-33c25.9,0,51.8,0,77.8,0
			c-0.3,21.7,1.6,44.3-6.8,64.9c-6.2,16.2-19.2,29.4-35.1,36.2c-13.4,6-28.3,8-42.9,8.4c-20.5,0.1-42-3.2-59.1-15.3
			c-12.7-8.8-21.7-22.3-25.8-37.1c-3.3-11.4-4.1-23.3-4.1-35.1c0-31.3,0-62.7,0-94c0.2-16.6,3-33.7,11.8-48.1
			C3223.4,92.6,3237.6,82.6,3253.1,77.7z"/>
		<path class="st2" d="M257.4,77.9c24,0,48,0,71.9,0c3.8,37.7,7.2,75.4,11.3,113.1c2.2-20.6,5.1-41.2,7.5-61.8
			c-3.3-0.7-6.6-1.5-10-2.1c3.5-0.9,7-1.7,10.6-2.4c0.3-3,0.7-5.9,1.1-8.9c-5.2-1.2-10.5-2.3-15.8-3.5c5.5-1.3,11.1-2.5,16.6-3.7
			c0.3-2.5,0.6-5,0.9-7.4c-6.6-1.5-13.2-2.8-19.8-4.4c6.9-1.7,14-3.1,20.9-4.7c0.6-4.7,1.2-9.4,1.7-14.1c19.1-0.1,38.1-0.1,57.2,0
			c0.5,4.5,1.1,9,1.8,13.4c6.9,1.4,13.7,3,20.6,4.5c-6.5,1.5-13,2.9-19.4,4.3c0.3,2.5,0.7,4.9,1,7.4c5.6,1.4,11.2,2.5,16.9,3.8
			c-5.3,1.3-10.6,2.4-15.9,3.6c0.5,3.2,0.9,6.5,1.4,9.7c3.4,0.7,6.9,1.4,10.2,2.4c-3.2,0.7-6.4,1.4-9.6,2c2.4,20.7,5.7,41.3,8,62
			c0.5-2.1,0.8-4.2,1-6.3c3.2-35.6,6.6-71.2,9.8-106.9c23.8-0.2,47.5,0,71.3-0.1c-7.5,62.7-14.9,125.4-22.4,188.1
			c4.3,1.4,8.6,2.7,12.8,4.1c-4.4,1.4-8.9,2.8-13.3,4.2c6.3,2.6,13.2,4,19.5,6.7c-7,2.3-14,4.5-21,6.7c8.3,3,16.9,5.1,25.1,8.3
			c-9.2,3.1-18.6,5.8-27.8,9c-0.8,8.6-2.1,17.1-2.9,25.7c-26.9,0.3-53.7,0-80.6,0.2c-1.1-0.3-3.5,0.7-3.6-1
			c-0.7-6.7-1.5-13.3-2.2-20c-6-0.8-12.1-1.6-18.1-2.5c-1,7.8-1.8,15.6-2.6,23.4c-27.8,0-55.5,0.1-83.3,0c-2.6-21.6-5.2-43.2-8-64.8
			c-19.2-4.4-38.4-8.8-57.5-13.4c18-4.5,36.1-8.4,54.1-12.7c-27.9-4-56-7.3-83.8-11.5c27.1-3.3,54.2-7.1,81.3-10.8
			c-0.1-0.4-0.2-1.3-0.3-1.8c-32.8-4-65.6-7.4-98.4-11.5c31.9-3.7,63.8-7.3,95.7-11.1c0-0.4-0.1-1.2-0.1-1.7
			c-26.1-3.5-52.2-7.1-78.3-10.4c23.2-3.4,46.5-6.3,69.7-9.5c2.2-0.5,4.9-0.1,6.6-1.9c-1.3-0.7-2.7-1.2-4.1-1.5
			c-14.2-3.3-28.4-6.4-42.5-10c14.4-3.4,28.9-6.7,43.3-10.1C263.1,124.8,260.3,101.3,257.4,77.9 M383.2,228.7
			c-3,26.2-5.9,52.4-8.8,78.5c5.9-1,11.9-1.2,17.6-2.7c-0.3-1.5-0.5-2.9-0.8-4.4c-4.4-0.6-8.9-1.1-13.3-1.8
			c4.3-0.7,8.6-1.2,12.9-1.8C388.3,273.9,386,251.3,383.2,228.7z"/>
		<path class="st1" d="M516.2,77.9c26.8,0.1,53.7-0.1,80.6,0.1c-0.1,84.3-0.1,168.6,0,252.9c-26.8,0.1-53.7,0-80.5,0.1
			C516.2,246.5,516.2,162.2,516.2,77.9z"/>
		<path class="st1" d="M611.2,77.9c30.3,0.2,60.7-0.3,91.1,0.3c16,0.6,32.2,3.1,47,9.5c7.6,1.7,15.4,2.6,23.1,4.2
			c-3.9,1-7.9,1.3-11.8,2.3c1.5,0.9,2.8,2.1,4.5,2.5c6.4,1.3,12.8,2,19.2,3.5c-4.6,0.6-9.1,1.6-13.7,2.2
			c12.5,13.1,17.5,31.7,17.5,49.4c0.3,28.4,0,56.8,0.1,85.2c-0.1,15.3,0.8,31.1-4.1,45.9c-2.7,8.3-7.2,16-13,22.5
			c3.8,0.6,7.7,1.3,11.5,2c-5.4,1.2-10.9,1.8-16.3,3c-2.3,1.2-4.2,3.1-6.2,4.6c4.3,0.8,8.6,1.4,12.8,2.3c-8.5,1.6-17.1,2.8-25.6,4.6
			c-20.2,8.4-42.4,9.6-63.9,9.1c-24,0-48,0-72,0C611.2,246.5,611.2,162.2,611.2,77.9 M692,142.8c0,14.9,0,29.8,0,44.8
			c3,1,6,1.9,9,2.9c-3,1-6,1.9-9,2.9c0,2.2,0,4.4,0,6.6c4.1,1.3,8.1,2.5,12.2,3.9c-4.1,1.3-8.1,2.6-12.2,3.9c0,2.3,0,4.6,0,6.8
			c3,1,6,1.9,9,2.8c-3,1-6.1,2-9.1,3c0.1,15.2,0,30.3,0,45.5c3.9-0.2,8.3,0.8,11.8-1.5c3-2.1,3.6-6.1,3.6-9.5c0-33.3,0-66.6,0-99.9
			c-0.1-3.5-0.3-7.5-3.2-9.9C700.8,142.2,696.1,143,692,142.8z"/>
		<path class="st1" d="M800.7,77.9c47.5-0.2,95,0,142.6-0.1c0,21.8,0,43.7,0,65.5c-20.7,0.1-41.4,0-62,0c0,2.7,0,5.3,0,8
			c3.4,0.5,6.7,1.1,10,1.9c-3.4,0.4-6.8,1-10.2,1.7c5.7,1.1,11.4,1.8,17,3.3c-5.8,0.7-11.5,1.8-17.2,3c3.4,0.5,6.8,1.1,10.2,1.8
			c-3.3,0.6-6.7,1.2-10,1.8c0,2.6,0,5.2,0,7.8c17.7,0,35.5,0,53.2,0c0,19.9,0,39.8,0,59.7c-17.8,0.1-35.5,0-53.3,0
			c0,3.4,0,6.7,0,10.1c3.4,0.6,6.7,1.1,10,1.9c-3.1,0.5-6.1,0.9-9.1,1.7c5,1.1,10.2,1.5,15.2,2.9c-5.3,1.2-10.7,1.8-16,3
			c3.3,0.6,6.6,1.2,10,1.7c-3.3,0.7-6.7,1.2-10,1.9c0,3.4,0,6.7,0,10.1c20.7,0,41.5,0,62.2,0c0,21.8,0,43.5,0,65.2
			c-47.6,0-95.2,0.1-142.8-0.1C800.8,246.5,800.8,162.2,800.7,77.9z"/>
		<path class="st1" d="M1320,77.9c29.1,0,58.1,0,87.2,0c16.8,0.2,34,1.7,49.5,8.5c10.1,4.3,19.3,11.3,25.2,20.7
			c7.4,11.4,9.7,25.4,9.4,38.8c-0.1,16.2,1.6,33.5-6.3,48.4c2.2,0.7,4.4,1.4,6.6,2.2c-3.4,1.1-6.9,2.1-10.2,3.5
			c4.2,1.4,8.5,2.7,12.7,4.2c-7.3,2.2-14.6,4.6-21.8,7c8.7,1.5,17.4,3,26.2,4.5c-7.7,1.8-15.6,2.6-23.2,4.3c6,2,12,3.9,18,5.8
			c-3.9,1.4-7.9,2.6-11.8,3.8c3,1,6.1,1.9,9.1,3.1c-2,0.7-4,1.4-6,2c5,8.5,7,18.5,6.8,28.3c0.1,16-0.3,32,0.3,48
			c0.3,6.7,0.9,13.5,3,19.9c-26.2,0-52.4,0-78.5,0c-3.1-7.6-3.2-15.9-3.5-24c0-16.3,0-32.7,0-49c0-3.5-0.8-7.4-3.8-9.5
			c-2.5-1.6-5.7-1.2-8.5-1.3c-0.1,27.9,0,55.9,0,83.8c-26.8,0-53.5,0-80.2,0C1320,246.5,1320,162.2,1320,77.9 M1400.3,139.1
			c0,4.3,0,8.6,0,12.8c2.9,0.9,5.9,1.9,8.9,2.8c-3.1,1.2-6.4,1.7-9.2,3.4c3.8,1.4,7.7,2.4,11.5,3.9c-3.7,1.3-7.5,2.2-11.1,3.7l0,1
			c2.6,1.1,5.3,1.8,8,2.6c-2.7,0.9-5.3,1.8-8,2.6c0,5.3,0,10.6,0,15.9c3.1-0.1,6.6,0.2,9.2-1.9c2.5-2.3,3.1-6,3.1-9.2c0-9,0-18,0-27
			c0-3.2-0.6-6.8-3.2-9C1406.9,138.5,1403.3,139.2,1400.3,139.1z"/>
		<path class="st1" d="M1504.2,77.9c47.5,0,95-0.1,142.5,0c-0.1,21.8,0,43.6,0,65.5c-20.7,0-41.3,0-62,0c0,3,0,6,0,9
			c4,0.7,7.9,1.4,11.9,2.1c-3.3,0.8-6.7,1.3-10,2c5.6,1,11.3,1.9,16.9,3c-5.7,1-11.4,1.9-17.1,3.1c3.4,0.6,6.8,1.1,10.2,1.9
			c-4,0.7-8,1.4-11.9,2.1c0,2.1,0,4.1,0,6.2c17.7-0.1,35.5,0,53.2,0c0,19.9,0.1,39.9-0.1,59.8c-17.7-0.1-35.5,0-53.2,0
			c0,3.2,0,6.5,0,9.7c4.9,1,9.9,1.5,14.7,2.8c-3.8,0.9-7.7,1.3-11.4,2.3c6.3,0.9,12.6,2.1,18.8,3.3c-5.6,1.1-11.2,2-16.8,3
			c3.4,0.7,6.8,1.3,10.2,1.9c-5.2,0.9-10.3,1.8-15.5,2.7c0,2.5,0,4.9-0.1,7.4c20.8,0.1,41.5,0,62.3,0.1c0,21.8,0,43.5,0,65.2
			c-47.6,0-95.2,0-142.8,0C1504.2,246.5,1504.2,162.2,1504.2,77.9z"/>
		<path class="st1" d="M1658.7,77.9c47.5-0.2,95,0,142.6-0.1c0,21.8,0.1,43.7,0,65.5c-20.5-0.1-41.1,0.1-61.6-0.1
			c-0.1,2.6-0.3,5.2,0.1,7.7c3.8,0.8,7.8,1.3,11.6,2.2c-3.4,0.5-6.8,1-10.1,1.8c5.4,1.1,11,1.7,16.3,3.1c-5.5,1.1-11,1.9-16.5,3
			c3.4,0.6,6.9,1.1,10.2,2c-3.9,0.5-7.8,1.3-11.7,2c0,2.5,0,5,0,7.5c17.7,0,35.3,0,53,0c0,19.9,0,39.8,0,59.7
			c-17.7,0.1-35.4-0.1-53.1,0.1c0.1,3.3,0,6.7,0.1,10c4.3,0.9,8.7,1.2,12.9,2.5c-3.1,0.7-6.2,1.2-9.3,1.7c5.6,1,11.2,2.5,16.9,2.6
			c-5,2.1-10.7,2-15.9,3.4c3.4,0.9,6.9,1.3,10.3,2c-4.9,1.1-9.9,1.8-14.9,2.7c0,2.7,0,5.4,0,8.2c20.7,0,41.5,0,62.2,0
			c0.1,21.7-0.1,43.5,0.1,65.2c-47.7,0.1-95.4,0.1-143.1,0C1658.8,246.5,1658.8,162.2,1658.7,77.9z"/>
		<path class="st1" d="M1813.5,77.9c20.6,0,41.3-0.1,61.9,0c6.3,16.1,11.9,32.7,17.9,49c4.8,13.8,10.3,27.3,14.6,41.2
			c0.8-22.5,0.1-45.1,0.4-67.6c-4.4-0.7-8.9-0.9-13.2-2c4.5-0.6,9.1-0.8,13.5-1.9c-6.4-1-12.9-1.6-19.2-2.6c6.4-1,12.8-1.6,19.1-2.6
			c-8.7-1.6-17.6-2.2-26.3-3.7c8.7-1,17.5-2.2,26.2-3.4c-0.1-2.1-0.1-4.2,0-6.3c24.5,0,49-0.1,73.6,0.1c-0.1,84.3-0.1,168.6,0,252.9
			c-20.5,0.2-40.9,0.1-61.4,0c-11-29.4-22.1-58.8-33-88.2c-0.4,21.4-0.1,42.9-0.2,64.3c4.1,0.6,8.2,1,12.3,1.6
			c-3.9,0.9-8,1.1-11.9,1.8c6.2,1.2,12.6,1.9,18.8,3.5c-5.9,1.3-11.9,1.9-17.7,3.3c8.6,1.1,17.2,2.4,25.8,3.2
			c-9,1.6-18.2,2.5-27.2,3.7c-0.1,2.2-0.1,4.4-0.1,6.6c-24.6,0-49.2,0-73.8,0C1813.5,246.5,1813.5,162.2,1813.5,77.9z"/>
		<path class="st3" d="M2034.2,77.9c49,0,98,0,147,0c-0.1,21.9,0.1,43.7-0.1,65.6c-22.1-0.2-44.3,0-66.4-0.1c0,3,0,6.1,0,9.1
			c8.6,1.4,17.2,2.6,25.7,4.1c-7,1.3-14.1,2.1-21.2,3.5c4.7,0.6,9.4,1.3,14.1,2.2c-6.2,0.9-12.5,1.9-18.7,2.8c0,4.2,0,8.3,0,12.5
			c19.4,0.1,38.9,0,58.3,0c0,21.8,0,43.5,0,65.2c-19.4,0-38.8,0-58.3,0c0,29.3-0.1,58.6,0,88c-26.9,0.1-53.7,0-80.5,0
			C2034.2,246.5,2034.2,162.2,2034.2,77.9z"/>
		<path class="st1" d="M2193.2,77.9c26.9,0,53.8,0,80.8,0c0,84.3,0,168.6,0,253c-26.9,0-53.8,0-80.8,0
			C2193.2,246.5,2193.2,162.2,2193.2,77.9z"/>
		<path class="st1" d="M2278.6,77.9c26.5,0,53,0,79.5,0c5.7,17.1,11.4,34.1,17,51.2c3.8-10.9,7-22.1,10.6-33
			c-4.2-0.6-8.3-1.4-12.5-1.7c4.3-1.2,8.7-1.5,13.1-2.3c-6.7-1.5-13.6-2-20.3-3.5c7.7-1.3,15.5-2.4,23.2-3.7c0.7-2.3,1.4-4.6,2.2-7
			c26.2,0,52.4,0,78.5,0c-16,37.7-31.8,75.4-47.8,113.1c5.9,0.8,11.8,1.9,17.8,2.6c0,0.1,0,0.4,0,0.5c-5.4,0.7-10.6,1.6-16,2.4
			c10.1,2,20.2,3.2,30.4,4.9c-10,2.1-20.2,3.1-30.2,5c5.8,0.9,11.6,1.6,17.4,2.8c-6.4,1-12.9,2-19.3,3
			c15.9,39.6,31.8,79.2,47.7,118.8c-27.6,0-55.2,0-82.8,0c-5.1-15.6-10.4-31.2-15.4-46.9c-3.2,9.5-6.5,19-9.4,28.5
			c3.8,0.5,7.6,1,11.4,1.8c-4.4,1.1-8.9,1.5-13.3,2.3c7,1.4,14.2,2.1,21.2,3.5c-7.7,0.9-15.4,2.2-23,3.5c-0.8,2.4-1.6,4.8-2.4,7.3
			c-25.8,0-51.6,0-77.4,0c15.8-39.6,31.9-79.1,47.7-118.8c-7.4-1.2-14.8-2-22.1-3.6c6.4-0.6,12.8-1.7,19.1-2.9
			c-9.8-1.2-19.5-3.1-29.2-4.3c9.3-2.1,18.9-2.8,28.2-4.8c-5.1-0.5-10.2-1.5-15.3-2.1c5.7-1.6,11.6-2,17.5-3
			C2309.3,153.5,2293.8,115.7,2278.6,77.9z"/>
		<path class="st1" d="M2474.2,77.9c47.5,0,95-0.1,142.6,0.1c-0.1,21.8,0,43.6-0.1,65.4c-20.6,0-41.2,0-61.7,0c0,1.5-0.1,2.9,0,4.4
			c6.1,0.9,12.1,2.1,18.3,2.7c-4.9,1.3-10.1,1.5-15,2.7c9.5,1.2,18.9,3,28.4,4.2c-10,2.1-20.2,3-30.2,5c5.6,1.1,11.4,1.4,16.9,2.9
			c-6.2,0.8-12.4,1.8-18.5,2.8c0,1.1,0,3.2-0.1,4.3c17.7,0.2,35.3,0.1,53,0c0.1,19.9,0.2,39.9,0,59.9c-17.6-0.2-35.3,0-52.9-0.1
			c0,2.6,0,5.2,0,7.8c6.1,1.1,12.2,1.6,18.3,3.1c-5.1,0.4-10.1,1.5-15.2,2c9.7,1.9,19.5,3,29.2,4.8c-10.4,1.2-20.7,3.2-31,4.6
			c5.7,1.1,11.5,1.9,17.3,2.7c-6.1,1.5-12.5,2-18.7,3.1c0,1.7,0,3.4,0,5.1c20.7,0,41.5,0,62.2,0c0,21.8,0,43.5,0,65.2
			c-47.7,0-95.3,0-143,0C2474.2,246.5,2474.2,162.2,2474.2,77.9z"/>
		<path class="st4" d="M2850.7,77.9c29.5-0.2,59.1,0,88.6-0.1c19.4,0.1,39.9,2.6,56.6,13.5c13.1,8.3,21.9,22.3,25.6,37.2
			c4.5,16.8,2.7,34.2,3,51.4c0.5,18.8-2.8,38.6-14.4,53.9c-10,13.2-25.8,20.9-41.8,24.1c-12.2,2.6-24.6,2.6-37,2.5
			c0,23.5,0,47,0,70.5c-26.9,0-53.7,0.1-80.6-0.1C2850.8,246.5,2850.8,162.2,2850.7,77.9 M2931.3,139.1c0,6.5,0,13,0,19.5
			c2.8,0.5,5.6,1,8.4,1.7c-2.7,0.7-5.5,1.1-8.2,1.8c-0.1,0.4-0.3,1.2-0.4,1.5c4.8,0.9,9.6,2,14.5,2.8c-4.7,1.3-9.5,2-14.3,3
			c0,0.5,0.1,1.5,0.1,2c2.7,0.5,5.5,0.9,8.1,1.8c-2.8,0.5-5.5,1.1-8.2,1.6c0,8.2,0,16.4,0,24.6c3.5-0.2,7.3,0.6,10.6-1
			c2.9-1.6,4.1-5.2,4.1-8.4c0-13.7,0-27.4,0-41.1c0-3-0.8-6.4-3.3-8.3C2939.3,138.2,2935,139.4,2931.3,139.1z"/>
		<path class="st1" d="M3057.8,84.4c0.4-2.2,0.8-4.4,1.2-6.6c32.8,0,65.5-0.1,98.3,0c0.4,2.1,0.8,4.3,1.3,6.4
			c16.6,2.1,33.2,3.8,49.8,6.1c-13.5,1.3-26.9,3.2-40.3,4.6c-1.1,0.4-3-0.2-3.5,0.5c9.9,1.4,20,2,29.9,3.9c-5.9,0-11.6,1.2-17.4,1.7
			c-5,0.7-10,0.9-14.9,2c6.1,0.8,12.3,1.4,18.5,2.2c-5.8,1-11.6,1.5-17.4,2.2c14.3,74.5,28.9,148.9,43.4,223.4
			c-26.9,0-53.7,0-80.5,0c-1.4-10.9-2.6-21.8-4-32.7c-10.1,0-20.3,0-30.4,0c-1.2,10.9-2.4,21.8-3.6,32.7c-26,0-52.1,0-78.1,0
			c14.6-75.2,29.2-150.4,43.9-225.6c-5.9-0.6-11.7-1.5-17.6-1.9c5.7-1,11.5-1.9,17.4-1.8c-9.4-2.2-19.1-2.2-28.6-4
			c8.1-0.9,16.2-1.6,24.3-3c-12.8-1.2-25.5-3.1-38.3-4.3C3026.6,87.9,3042.2,86.3,3057.8,84.4 M3106.6,168.9
			c-2.3,25.4-6,50.6-8.7,76c6,0,11.9,0,17.9,0C3112.8,219.5,3110,194.2,3106.6,168.9z"/>
		<path class="st1" d="M3387.5,77.9c26.8,0,53.7,0,80.5,0c-0.1,31.1,0.1,62.1-0.1,93.1c6.8-31,12.8-62.1,19.3-93.1
			c26.1,0,52.3,0,78.5,0c-5.8,21.9-11.5,43.7-17.3,65.6c13,3,25.9,6.1,38.9,9c-14.6,3.6-29.4,6.6-43.9,10.4
			c-0.2,0.6-0.6,1.8-0.8,2.4c24.6,3.5,49.3,6.3,73.9,10.1c-25,3-50,6.7-75,9.9c-1.7,0.5-4.2-0.2-4.9,1.9
			c32.6,3.8,65.3,7.6,97.9,11.2c-32.8,3.9-65.6,7.6-98.4,11.4c0.2,0.6,0.6,1.7,0.8,2.2c26.5,3.3,53,7.4,79.5,10.4
			c-24.7,4-49.5,6.7-74.3,10.3c0.2,1.2,0.6,2.5,0.9,3.7c14.7,3.3,29.3,6.9,44,10.1c-12.9,3.3-26,6-38.9,9.2
			c6.6,25,13.1,50.1,19.7,75.1c-26.9,0-53.8,0-80.7,0c-5-23.3-10-46.6-14.9-69.9c-1.4-5.8-2.2-11.8-4-17.5
			c-0.6,29.1-0.1,58.3-0.2,87.4c-26.9,0-53.7,0-80.5,0C3387.5,246.5,3387.5,162.2,3387.5,77.9z"/>
	</g>
</g>
</svg>
