<svg xmlns="http://www.w3.org/2000/svg" viewBox="0 0 34.28 20.91"><title>modloader</title><g style="isolation:isolate"><g style="mix-blend-mode:multiply"><path d="M8.14,12.69a1.42,1.42,0,0,1-.45-.08,1.53,1.53,0,0,1-.4-.21A1.37,1.37,0,0,1,7,12.1a.7.7,0,0,1-.1-.36V4.58a0,0,0,0,0,0,0H6.28s0,0,0,0V10.3H3.76V4.58s0,0,0,0H3.18a0,0,0,0,0,0,0V10.3H.66V2.63H3.15v.5a1.4,1.4,0,0,1,.66-.37,3.48,3.48,0,0,1,1-.13,2,2,0,0,1,.86.15,1.31,1.31,0,0,1,.51.43,1.25,1.25,0,0,1,.69-.46,3.65,3.65,0,0,1,1-.12,2.37,2.37,0,0,1,.61.08,1.52,1.52,0,0,1,.48.22,1.1,1.1,0,0,1,.33.35.79.79,0,0,1,.12.42v7.06l0,0h6.17v1.91ZM11.2,10.3c-.83,0-1.24-.31-1.24-1V3.61c0-.65.41-1,1.24-1h3.11c.83,0,1.25.33,1.25,1V9.35c0,.64-.42,1-1.25,1Zm1.86-5.72s0,0,0,0h-.56a0,0,0,0,0,0,0V8.37s0,0,0,0H13s0,0,0,0Z" style="stroke:#000;stroke-miterlimit:10;stroke-width:0.25px"/><path d="M17.38,10.3a1.56,1.56,0,0,1-.94-.23.87.87,0,0,1-.3-.72V3.61c0-.65.41-1,1.24-1h1.86V.71h2.5V10.3Zm1.86-5.75h-.58a0,0,0,0,0,0,0V8.37s0,0,0,0h.58Z" style="stroke:#000;stroke-miterlimit:10;stroke-width:0.25px"/></g><path d="M7.64,12.19a1.42,1.42,0,0,1-.45-.08,1.53,1.53,0,0,1-.4-.21,1.37,1.37,0,0,1-.29-.3.7.7,0,0,1-.1-.36V4.08a0,0,0,0,0,0,0H5.78s0,0,0,0V9.8H3.26V4.08s0,0,0,0H2.68a0,0,0,0,0,0,0V9.8H.16V2.13H2.65v.5a1.4,1.4,0,0,1,.66-.37,3.48,3.48,0,0,1,1-.13,2,2,0,0,1,.86.15,1.31,1.31,0,0,1,.51.43,1.25,1.25,0,0,1,.69-.46,3.65,3.65,0,0,1,1-.12,2.37,2.37,0,0,1,.61.08,1.52,1.52,0,0,1,.48.22,1.1,1.1,0,0,1,.33.35.79.79,0,0,1,.12.42v7.06l0,0h6.17v1.91ZM10.7,9.8c-.83,0-1.24-.31-1.24-1V3.11c0-.65.41-1,1.24-1h3.11c.83,0,1.25.33,1.25,1V8.85c0,.64-.42,1-1.25,1Zm1.86-5.72s0,0,0,0H12a0,0,0,0,0,0,0V7.87s0,0,0,0h.56s0,0,0,0Z" style="fill:#fff;stroke:#000;stroke-miterlimit:10;stroke-width:0.25px"/><path d="M16.88,9.8a1.56,1.56,0,0,1-.94-.23.87.87,0,0,1-.3-.72V3.11c0-.65.41-1,1.24-1h1.86V.21h2.5V9.8Zm1.86-5.75h-.58a0,0,0,0,0,0,0V7.87s0,0,0,0h.58Z" style="fill:#fff;stroke:#000;stroke-miterlimit:10;stroke-width:0.25px"/><g style="mix-blend-mode:multiply"><path d="M.66,20.75v-10H3.15v8.15H9.36v1.9ZM5,18.37c-.83,0-1.25-.32-1.25-.95V11.67c0-.65.42-1,1.25-1H8.11c.83,0,1.25.32,1.25,1v5.75c0,.63-.42.95-1.25.95Zm1.86-5.73,0,0H6.27l0,0v3.79s0,0,0,0h.57s0,0,0,0Z" style="stroke:#000;stroke-miterlimit:10;stroke-width:0.25px"/><path d="M11.18,18.37c-.83,0-1.25-.32-1.25-.95V14.53c0-.64.42-.95,1.25-.95H13v-.94l0,0h-.57l0,0v.45H9.93V11.67c0-.65.42-1,1.25-1h3.11c.83,0,1.25.32,1.25,1v6.7ZM13,15.26h-.59l0,0v1.15s0,0,0,0H13Z" style="stroke:#000;stroke-miterlimit:10;stroke-width:0.25px"/><path d="M17.37,18.37a1.52,1.52,0,0,1-.95-.24.83.83,0,0,1-.3-.71V11.67c0-.65.42-1,1.25-1h1.86V8.78h2.5v9.59Zm1.86-5.75h-.59a0,0,0,0,0,0,0v3.79s0,0,0,0h.59Z" style="stroke:#000;stroke-miterlimit:10;stroke-width:0.25px"/><path d="M23.58,18.37c-.84,0-1.25-.32-1.25-.95V11.67c0-.65.41-1,1.25-1h3.1c.84,0,1.25.32,1.25,1V15.5H24.82v.93a0,0,0,0,0,0,0h.56a0,0,0,0,0,0,0V16h2.49v1.44c0,.63-.41.95-1.25.95Zm1.86-5.73s0,0,0,0h-.56s0,0,0,0v1.07h.62Z" style="stroke:#000;stroke-miterlimit:10;stroke-width:0.25px"/><path d="M31.64,18.37V15.32s0,0,0,0H31v3.08h-2.5V10.7h4.36c.82,0,1.23.32,1.23,1V13.9c0,.37-.2.58-.61.63q.63.08.63.63v3.21Zm0-5.73,0,0H31v1.15h.59l0,0Z" style="stroke:#000;stroke-miterlimit:10;stroke-width:0.25px"/></g><path d="M.16,20.25v-10H2.65v8.15H8.86v1.9ZM4.5,17.87c-.83,0-1.25-.32-1.25-.95V11.17c0-.65.42-1,1.25-1H7.61c.83,0,1.25.32,1.25,1v5.75c0,.63-.42.95-1.25.95Zm1.86-5.73,0,0H5.77l0,0v3.79s0,0,0,0h.57s0,0,0,0Z" style="fill:#fff;stroke:#000;stroke-miterlimit:10;stroke-width:0.25px"/><path d="M10.68,17.87c-.83,0-1.25-.32-1.25-.95V14c0-.64.42-.95,1.25-.95h1.86v-.94l0,0H12l0,0v.45H9.43V11.17c0-.65.42-1,1.25-1h3.11c.83,0,1.25.32,1.25,1v6.7Zm1.86-3.11H12l0,0v1.15s0,0,0,0h.59Z" style="fill:#fff;stroke:#000;stroke-miterlimit:10;stroke-width:0.25px"/><path d="M16.87,17.87a1.52,1.52,0,0,1-1-.24.83.83,0,0,1-.3-.71V11.17c0-.65.42-1,1.25-1h1.86V8.28h2.5v9.59Zm1.86-5.75h-.59a0,0,0,0,0,0,0v3.79s0,0,0,0h.59Z" style="fill:#fff;stroke:#000;stroke-miterlimit:10;stroke-width:0.25px"/><path d="M23.08,17.87c-.84,0-1.25-.32-1.25-.95V11.17c0-.65.41-1,1.25-1h3.1c.84,0,1.25.32,1.25,1V15H24.32v.93a0,0,0,0,0,0,0h.56a0,0,0,0,0,0,0v-.45h2.49v1.44c0,.63-.41.95-1.25.95Zm1.86-5.73s0,0,0,0h-.56s0,0,0,0v1.07h.62Z" style="fill:#fff;stroke:#000;stroke-miterlimit:10;stroke-width:0.25px"/><path d="M31.14,17.87V14.82s0,0,0,0h-.59v3.08H28V10.2h4.36c.82,0,1.23.32,1.23,1V13.4c0,.37-.2.58-.61.63q.63.08.63.63v3.21Zm0-5.73,0,0h-.59v1.15h.59l0,0Z" style="fill:#fff;stroke:#000;stroke-miterlimit:10;stroke-width:0.25px"/></g></svg>