<svg xmlns="http://www.w3.org/2000/svg" xml:space="preserve" style="enable-background:new 0 0 235.6 292.2" viewBox="0 0 235.6 292.2"><path d="M164.7 145.9c0 9.3-2.7 18.1-7.3 25.5l18.8 18.9c9.2-12.3 15-27.8 15-44.4s-5.8-32-15-44.4l-18.8 18.9a47.6 47.6 0 0 1 7.3 25.5z" style="fill-rule:evenodd;clip-rule:evenodd;fill:#b8d3f4"/><path d="M117.8 193a47.2 47.2 0 0 1 0-94.2 44 44 0 0 1 25.4 7.7L162 87.7a73.5 73.5 0 0 0-44.2-15.1 73.6 73.6 0 1 0 44.6 132l-18.8-18.9a48.3 48.3 0 0 1-25.8 7.3z" style="fill-rule:evenodd;clip-rule:evenodd;fill:#3385ff"/></svg>