<svg xmlns="http://www.w3.org/2000/svg" width="1440" height="1440" viewBox="0 0 1080 1080"><g fill="#fff"><path d="M52.8 71.8h171.4v936.4H52.8V71.8ZM632 75c30.2-3.7 60.9-3.7 91.1-.1 2.3.6 4.7.7 7 1 2 .6 4 .7 6 1 3.6.9 7.3 1.3 11 2 3 .8 6 1.4 9 2l4 1 8 2c2.3.8 4.7 1.3 7 2a394 394 0 0 1 24.8 8.3l8 3 6.2 2.6 7.8 3.5 2 1a352.1 352.1 0 0 1 203 338.7c-.1 4.7-.6 9.4-.9 14.1-1 7.7-1.7 15.3-3 23-.5 2-.7 4-1 6a357.4 357.4 0 0 1-28.9 89 353 353 0 0 1-154 159.2c-3 1.5-6 3.3-9.2 4.5l-4.7 2.4c-5.1 2.3-10.2 4.6-15.3 6.7l-13.8 5.3-5.9 2-9 3L771 761c-8.2 2.4-16.6 4.2-25 6-3.7.6-7.3 1.2-11 2-2 .3-4 .3-6 1-2.7.4-5.4.4-7.9 1.1-7 .7-14 1.2-21 2-14.8.6-29.7.5-44.4 0l-1.7-.4c-3.7-.2-7.5-.3-11.2-.6-5.9-1-11.9-1-17.7-2.4-2-.3-4-.4-6-1-3.5-.4-6.9-1.2-10.3-1.7a499.3 499.3 0 0 1-35.1-9c-5-1.4-10-3.2-15-4.9l-3.6-1.4c-3.2-1-6.3-2.4-9.4-3.5l-5.7-2.5a352.9 352.9 0 0 1-202-233l-1-4-1-4-1-4-1-5c-.5-1.6-.7-3.3-1-5-.5-1.6-.7-3.2-1-4.9-.7-2.2-.5-4.6-1.3-6.8-.3-2.4-.4-4.7-1-7a326.9 326.9 0 0 1-2.7-32.2c-1-6.9-.5-14-.6-20.9.3-4-.3-8 .6-12 .3-5 .3-10.1.7-15.1 1-3.6.3-7.3 1.3-10.8.4-2.7.3-5.4 1-8 .3-2 .4-4 1-6 .3-2 .4-4 1-5.9.8-5 1.7-10.1 3-15l.6-3.4c1-2.9 1.4-5.9 2.3-8.8l1-3.9 1.8-6.3c2.3-7.3 4.6-14.6 7.3-21.7A353 353 0 0 1 573 87.9l13.9-4 4-1c2.6-.8 5.3-1.3 8-2 2.9-.6 5.8-1.2 8.8-2l24.2-4Z"/></g></svg>