<svg xmlns="http://www.w3.org/2000/svg" width="1440" height="1440" viewBox="0 0 1080 1080"><g fill="#ff424d"><path d="M52.8 71.8h171.4v936.4H52.8V71.8ZM651.8 73a349.5 349.5 0 0 1 325.8 169.5 351.5 351.5 0 0 1 27 306A351 351 0 0 1 746 767.1c-22.8 4.3-46 7-69.1 6.5a336.5 336.5 0 0 1-93.2-12.4l-10-3A352.7 352.7 0 0 1 338 512.8l-1-3.8c-1-4.4-2.2-8.7-3-13.1a339.7 339.7 0 0 1-7.3-87c1-6.3.3-12.6 1.3-18.8a246 246 0 0 1 3-23c.3-2 .5-4 1-6 2-12.7 5.3-25 8.6-37.4l.4-.6a349 349 0 0 1 81.2-140.7A351.3 351.3 0 0 1 651.7 73Z"/></g></svg>