<svg xmlns="http://www.w3.org/2000/svg" viewBox="0 0 123.59 31.16"><title>paypal-default</title><path d="M55.21,12.75H48.37a1,1,0,0,0-.94.8L44.67,31.09a.57.57,0,0,0,.56.66H48.5a.94.94,0,0,0,.93-.81l.75-4.73a1,1,0,0,1,.94-.8h2.16c4.51,0,7.11-2.18,7.79-6.5a5.29,5.29,0,0,0-.87-4.41C59.22,13.35,57.5,12.75,55.21,12.75Zm.79,6.4c-.37,2.46-2.25,2.46-4.06,2.46h-1L51.63,17a.57.57,0,0,1,.56-.48h.48c1.23,0,2.4,0,3,.71A2.25,2.25,0,0,1,56,19.15Z" transform="translate(-9 -5.02)" style="fill:#253b80"/><path d="M75.65,19.07H72.38a.57.57,0,0,0-.56.49l-.15.91-.23-.33c-.71-1-2.29-1.37-3.87-1.37a7.53,7.53,0,0,0-7.31,6.58,6.17,6.17,0,0,0,1.22,5,5.13,5.13,0,0,0,4.13,1.67,6.28,6.28,0,0,0,4.53-1.87l-.15.91a.58.58,0,0,0,.57.66h3a.94.94,0,0,0,.93-.81l1.77-11.21A.57.57,0,0,0,75.65,19.07Zm-4.56,6.38a3.66,3.66,0,0,1-3.7,3.13,2.77,2.77,0,0,1-2.2-.89,2.81,2.81,0,0,1-.51-2.3,3.68,3.68,0,0,1,3.67-3.15,2.75,2.75,0,0,1,2.18.89A2.85,2.85,0,0,1,71.09,25.45Z" transform="translate(-9 -5.02)" style="fill:#253b80"/><path d="M93.1,19.07H89.81a1,1,0,0,0-.79.42l-4.54,6.69-1.93-6.43a1,1,0,0,0-.91-.68H78.41a.57.57,0,0,0-.54.76l3.62,10.64-3.41,4.81a.57.57,0,0,0,.47.9h3.29a1,1,0,0,0,.78-.41L93.56,20A.57.57,0,0,0,93.1,19.07Z" transform="translate(-9 -5.02)" style="fill:#253b80"/><path d="M104,12.75H97.15a1,1,0,0,0-.94.8L93.45,31.09a.57.57,0,0,0,.56.66h3.51a.67.67,0,0,0,.66-.57l.78-5a1,1,0,0,1,.94-.8h2.16c4.51,0,7.11-2.18,7.79-6.5A5.26,5.26,0,0,0,109,14.5C108,13.35,106.28,12.75,104,12.75Zm.79,6.4c-.37,2.46-2.25,2.46-4.06,2.46h-1l.72-4.59a.58.58,0,0,1,.56-.48h.48c1.23,0,2.4,0,3,.71A2.25,2.25,0,0,1,104.78,19.15Z" transform="translate(-9 -5.02)" style="fill:#179bd7"/><path d="M124.43,19.07h-3.27a.57.57,0,0,0-.56.49l-.15.91-.23-.33c-.71-1-2.29-1.37-3.86-1.37a7.53,7.53,0,0,0-7.31,6.58,6.14,6.14,0,0,0,1.22,5,5.11,5.11,0,0,0,4.12,1.67,6.25,6.25,0,0,0,4.53-1.87l-.14.91a.57.57,0,0,0,.56.66h3a1,1,0,0,0,.94-.81L125,19.73A.58.58,0,0,0,124.43,19.07Zm-4.56,6.38a3.65,3.65,0,0,1-3.7,3.13,2.74,2.74,0,0,1-2.19-.89,2.77,2.77,0,0,1-.52-2.3,3.68,3.68,0,0,1,3.67-3.15,2.79,2.79,0,0,1,2.19.89A2.84,2.84,0,0,1,119.87,25.45Z" transform="translate(-9 -5.02)" style="fill:#179bd7"/><path d="M128.29,13.23l-2.8,17.86a.57.57,0,0,0,.56.66h2.82a1,1,0,0,0,.94-.81l2.77-17.53a.57.57,0,0,0-.56-.66h-3.16A.58.58,0,0,0,128.29,13.23Z" transform="translate(-9 -5.02)" style="fill:#179bd7"/><path d="M16.27,35.15l.52-3.32-1.17,0H10.06L13.93,7.29A.35.35,0,0,1,14,7.1.32.32,0,0,1,14.24,7h9.38C26.74,7,28.88,7.67,30,9a4.44,4.44,0,0,1,1,1.92,7,7,0,0,1,0,2.64l0,.08v.68l.53.29a3.83,3.83,0,0,1,1.07.82,3.73,3.73,0,0,1,.86,1.93,8.37,8.37,0,0,1-.12,2.82,9.78,9.78,0,0,1-1.16,3.18,6.48,6.48,0,0,1-1.82,2,7.49,7.49,0,0,1-2.46,1.11,12.52,12.52,0,0,1-3.07.35h-.73a2.22,2.22,0,0,0-1.43.53A2.18,2.18,0,0,0,22,28.62l-.06.3L21,34.78l0,.21a.18.18,0,0,1-.06.13.17.17,0,0,1-.1,0Z" transform="translate(-9 -5.02)" style="fill:#253b80"/><path d="M32.05,13.67h0c0,.18-.06.36-.1.55-1.23,6.35-5.47,8.54-10.87,8.54H18.33A1.33,1.33,0,0,0,17,23.89h0L15.6,32.83l-.4,2.53a.7.7,0,0,0,.69.82h4.88a1.17,1.17,0,0,0,1.16-1l.05-.25.92-5.83.06-.32a1.17,1.17,0,0,1,1.16-1h.73c4.73,0,8.43-1.92,9.51-7.47.45-2.32.22-4.26-1-5.62A4.73,4.73,0,0,0,32.05,13.67Z" transform="translate(-9 -5.02)" style="fill:#179bd7"/><path d="M30.75,13.15,30.17,13l-.62-.12a15.23,15.23,0,0,0-2.42-.17H19.77a1.18,1.18,0,0,0-.5.11,1.22,1.22,0,0,0-.66.88l-1.56,9.9,0,.29a1.33,1.33,0,0,1,1.32-1.13h2.75c5.4,0,9.64-2.19,10.87-8.54,0-.19.07-.37.1-.55a5.9,5.9,0,0,0-1-.43Z" transform="translate(-9 -5.02)" style="fill:#222d65"/><path d="M18.61,13.7a1.21,1.21,0,0,1,.66-.88,1.18,1.18,0,0,1,.5-.11h7.36a15.18,15.18,0,0,1,2.42.18l.62.11.58.15.28.09a5.9,5.9,0,0,1,1,.43c.37-2.35,0-3.95-1.27-5.39C29.38,6.68,26.85,6,23.62,6H14.24a1.33,1.33,0,0,0-1.32,1.13L9,31.9a.8.8,0,0,0,.8.93H15.6l1.45-9.23Z" transform="translate(-9 -5.02)" style="fill:#253b80"/><path d="M53.15,7.23a3,3,0,0,1-.45,1.6A3.29,3.29,0,0,1,51.53,10a3,3,0,0,1-.9.31,7.2,7.2,0,0,1-1.12.07H47.67l1.17-5.09h1.65a4.56,4.56,0,0,1,1.17.12,2,2,0,0,1,.72.3,1.69,1.69,0,0,1,.57.65A1.89,1.89,0,0,1,53.15,7.23Zm-1.37.12a1.4,1.4,0,0,0-.13-.6,1,1,0,0,0-.4-.41,1.09,1.09,0,0,0-.25-.1l-.29,0-.36,0H50L49.2,9.4h.55l.36,0,.33-.05a2.4,2.4,0,0,0,.32-.13,1.75,1.75,0,0,0,.75-.75A2.3,2.3,0,0,0,51.78,7.35Z" transform="translate(-9 -5.02)" style="fill:#3fa9f5"/><path d="M57.84,7.9a2.79,2.79,0,0,1-.18,1,2.35,2.35,0,0,1-1.3,1.35,2.64,2.64,0,0,1-1.06.19A1.86,1.86,0,0,1,54,10a1.42,1.42,0,0,1-.46-1.13,2.93,2.93,0,0,1,.17-1,2.31,2.31,0,0,1,.51-.81A2.22,2.22,0,0,1,55,6.58a2.62,2.62,0,0,1,1.07-.2,1.9,1.9,0,0,1,1.31.4A1.4,1.4,0,0,1,57.84,7.9Zm-1.6,1.26a2,2,0,0,0,.24-.53,2.61,2.61,0,0,0,.08-.69.81.81,0,0,0-.16-.54.59.59,0,0,0-.48-.19.78.78,0,0,0-.46.13,1.1,1.1,0,0,0-.35.36,2,2,0,0,0-.22.53,2.82,2.82,0,0,0-.08.65.76.76,0,0,0,.18.57.64.64,0,0,0,.47.17.75.75,0,0,0,.43-.13A1,1,0,0,0,56.24,9.16Z" transform="translate(-9 -5.02)" style="fill:#3fa9f5"/><path d="M62.71,7.36a1.85,1.85,0,0,1,0,.23,2,2,0,0,1-.05.24l-.57,2.5H60.83l.44-1.9.08-.36c0-.1,0-.2,0-.28a.45.45,0,0,0-.11-.33.62.62,0,0,0-.41-.1,1.11,1.11,0,0,0-.34.06l-.43.19-.63,2.72H58.21L59.1,6.5h1.24l-.1.42a4.18,4.18,0,0,1,.69-.39,1.74,1.74,0,0,1,.69-.14,1.16,1.16,0,0,1,.8.25A.89.89,0,0,1,62.71,7.36Z" transform="translate(-9 -5.02)" style="fill:#3fa9f5"/><path d="M65.62,9.93l-.28.18a2.43,2.43,0,0,1-.3.17l-.36.12a2,2,0,0,1-.47,0,1.12,1.12,0,0,1-.78-.27.89.89,0,0,1-.3-.7,1.36,1.36,0,0,1,.21-.77A1.58,1.58,0,0,1,64,8.19a3.85,3.85,0,0,1,1-.25c.36-.05.76-.09,1.18-.12,0,0,0,0,0-.07s0-.06,0-.1a.35.35,0,0,0-.23-.34,1.85,1.85,0,0,0-.67-.1,2.46,2.46,0,0,0-.67.11,3.73,3.73,0,0,0-.55.17H63.9l.18-.91c.15,0,.37-.08.67-.13a6.8,6.8,0,0,1,.9-.06A2.86,2.86,0,0,1,67,6.62a.78.78,0,0,1,.42.73c0,.05,0,.11,0,.18a.9.9,0,0,1,0,.19l-.6,2.61H65.53ZM66,8.52l-.62.07a2,2,0,0,0-.49.11.69.69,0,0,0-.32.21.57.57,0,0,0-.11.36.29.29,0,0,0,.15.28.89.89,0,0,0,.42.08,1.18,1.18,0,0,0,.39-.08,1.87,1.87,0,0,0,.39-.22Z" transform="translate(-9 -5.02)" style="fill:#3fa9f5"/><path d="M69.35,10.41a1.5,1.5,0,0,1-.91-.21.73.73,0,0,1-.28-.63,1.49,1.49,0,0,1,0-.21c0-.07,0-.15,0-.24l.42-1.81h-.5l.18-.81h.51l.25-1.1h1.24l-.25,1.1h1.15L71,7.31H69.88l-.32,1.38c0,.1,0,.19-.07.29a1.29,1.29,0,0,0,0,.25.31.31,0,0,0,.12.28.62.62,0,0,0,.35.08l.25,0a1.86,1.86,0,0,0,.25-.08h.1l-.19.82-.44.08A4.33,4.33,0,0,1,69.35,10.41Z" transform="translate(-9 -5.02)" style="fill:#3fa9f5"/><path d="M73.23,10.44A2.37,2.37,0,0,1,71.71,10a1.46,1.46,0,0,1-.53-1.2,2.73,2.73,0,0,1,.17-1,2.35,2.35,0,0,1,.51-.77,2.4,2.4,0,0,1,.78-.51,2.91,2.91,0,0,1,1-.18,2.08,2.08,0,0,1,1.3.34,1.24,1.24,0,0,1,.43,1,2.22,2.22,0,0,1,0,.45c0,.15-.08.3-.13.45H72.39v.07a.75.75,0,0,0,.28.63,1.36,1.36,0,0,0,.86.22,2.13,2.13,0,0,0,.76-.13,2.84,2.84,0,0,0,.63-.31h.14l-.23,1a3.21,3.21,0,0,1-.76.24A4.44,4.44,0,0,1,73.23,10.44Zm.94-2.52s0-.08,0-.11V7.7A.48.48,0,0,0,74,7.29a.69.69,0,0,0-.48-.15,1,1,0,0,0-.64.21,1.32,1.32,0,0,0-.39.57Z" transform="translate(-9 -5.02)" style="fill:#3fa9f5"/><path d="M86.37,5.24,83.9,10.33H82.49L82.27,7l-1.65,3.37H79.16l-.23-5.09H80.3V8.75L82,5.24h1.32l.15,3.5L85,5.24Z" transform="translate(-9 -5.02)" style="fill:#3fa9f5"/><path d="M88.13,6.5l-.89,3.83H86l.89-3.83ZM88.51,5,88.29,6H87L87.2,5Z" transform="translate(-9 -5.02)" style="fill:#3fa9f5"/><path d="M89.87,10.41A1.5,1.5,0,0,1,89,10.2a.73.73,0,0,1-.28-.63,1.49,1.49,0,0,1,0-.21c0-.07,0-.15,0-.24l.42-1.81h-.51l.18-.81h.51l.25-1.1h1.24l-.25,1.1h1.15l-.19.81H90.4l-.32,1.38c0,.1,0,.19-.07.29a1.29,1.29,0,0,0,0,.25.31.31,0,0,0,.12.28.62.62,0,0,0,.35.08l.25,0A1.48,1.48,0,0,0,91,9.48h.1l-.19.82-.44.08A4.33,4.33,0,0,1,89.87,10.41Z" transform="translate(-9 -5.02)" style="fill:#3fa9f5"/><path d="M96.08,7.36a1.86,1.86,0,0,1,0,.22,2.17,2.17,0,0,1,0,.25l-.58,2.5H94.2l.44-1.9c0-.15.06-.27.08-.37a1.39,1.39,0,0,0,0-.27.42.42,0,0,0-.12-.33.6.6,0,0,0-.41-.1,1.16,1.16,0,0,0-.34.06l-.43.19-.63,2.72H91.59L92.81,5h1.24l-.44,1.9a4.18,4.18,0,0,1,.69-.39A1.74,1.74,0,0,1,95,6.39a1.17,1.17,0,0,1,.81.25A.91.91,0,0,1,96.08,7.36Z" transform="translate(-9 -5.02)" style="fill:#3fa9f5"/></svg>