<?xml version="1.0" encoding="UTF-8"?><svg id="Layer_1" xmlns="http://www.w3.org/2000/svg" viewBox="0 0 159.82 93.69"><polygon points="159.82 88.07 0 93.69 0 0 159.82 5.62 159.82 88.07" style="stroke-width:0px;"/><path d="m17.02,21.5l8.06,33.05-7.92,10.01L6.72,21.5h10.3Zm44.71,0h10.3l-12.31,50.4h-13.18l-7.2-30.67-7.06,30.67h-10.51l12.46-50.4h10.37l8.57,41.54,8.57-41.54Z" style="fill:#c4d8f0; stroke-width:0px;"/><path d="m75.26,21.43h34.06v8.57h-23.9v41.9h-10.15V21.43Zm16.63,30.24l-4.68-9.36h15.98v9.36h-11.3Z" style="fill:#e270aa; stroke-width:0px;"/><path d="m142.22,22.9c2.16.94,4.06,2.21,5.69,3.82,1.63,1.61,2.92,3.49,3.85,5.65.94,2.16,1.4,4.46,1.4,6.91s-.47,4.75-1.4,6.91c-.94,2.16-2.22,4.03-3.85,5.62-1.63,1.58-3.53,2.84-5.69,3.78s-4.46,1.4-6.91,1.4h-5.62l-5.47-10.08h11.09c1.06,0,2.05-.2,2.99-.61.94-.41,1.74-.98,2.41-1.73.67-.74,1.21-1.63,1.62-2.66.41-1.03.61-2.17.61-3.42,0-1.06-.2-2.08-.61-3.06-.41-.98-.95-1.86-1.62-2.63-.67-.77-1.48-1.39-2.41-1.87-.94-.48-1.93-.72-2.99-.72h-12.74v41.69h-10.01V21.5h22.75c2.45,0,4.75.47,6.91,1.4Z" style="fill:#e0bf00; stroke-width:0px;"/></svg>