<svg xmlns="http://www.w3.org/2000/svg" version="1" viewBox="0 0 1604 613">
  <path d="M795 48c19-6 40-7 59-4 12 3 24 8 34 15 13 11 20 26 25 42l3 17 1 28v31c0 3-1 7-4 7h-67c-3 0-6-2-6-5v-57l-2-15c-2-3-8-3-11-1-2 6-2 12-2 18v166c1 7 0 14 3 20 3 1 6 2 8-1 2-2 2-5 3-8v-61-13c2-2 5-2 8-3l65 1c3 0 5 3 5 6v32 30c-2 11-4 22-8 33-7 17-19 31-35 40-7 2-14 6-21 6-22 4-46 2-67-6l-13-10c-7-6-13-14-17-23-3-7-5-15-6-23-2-8-2-17-3-25v-69-81l1-18c2-10 3-20 7-29 3-7 7-14 12-20 8-8 17-16 28-20m-12 13l-10 8-3 4-8 12-4 9v1c-2 7-4 13-4 20-1 3-2 5-1 8l-1 8v2 119 32l1 6c0 13 3 26 7 38 0 3 1 6 3 8l10 13 4 5 9 5 8 4 15 4 15 2h2c8 0 17 0 25-2 2 0 6 1 6-2l1-3 1 3c1 2 3-1 5-1a200 200 0 0 1 7-3l3-1v-1h1l1-1 4-2c2-2 4-3 4-5a95 95 0 0 0 11-9c1-4 4-7 6-11l4-9c2-8 6-16 5-25h1v-4l1-2v-9l-1-16c2-3 1-7 1-10v-4-13l-1-10v1h-57l-9-1-1 5v56c-1 8 1 16-3 23v1h-2l-6 2h-5l-4-3-1-3c-2-3-3-6-2-10l-1-6 1-9-1-26v-3-17a885 885 0 0 0 0-22v-3a304 304 0 0 1 0-28v-59-3l1-13v-2c1-3 2-7 4-8 5-2 12-3 16 1 2 3 2 7 3 10v2l1 3v41a625 625 0 0 0 0 8v13h65l2 1v-34l-1-27c0-6-3-12-4-19v-2h-1c-1-3-1-6-3-8-3-7-6-14-11-19l-5-6-4-2v-1l-15-8-2-1-10-3-1-1h-6l1 2-2-2c-22-3-46-1-65 12zM99 50c1-2 3-2 5-2h141c4 0 8 2 8 6v59c0 3-1 7-5 7l-14 1h-20v238c0 4-2 8-6 7h-63c-3 0-6 1-7-2-2-3-1-7-2-10v-23-210h-20l-15-1c-3 0-4-5-4-8V57c0-2 0-5 2-7m3 3v60h2-2v2l17 1h23v58c4 1 6 5 10 7-4-1-6-6-10-7v34h2l-2 1v10l3 4-3-2v96c0 2-1 5 1 7l1-2-1 3-1-2v20 18h62l-1-1h2v1h4v-11-16-98-93-27h21l18-1V62v-9h-50v1h-3l-1-1h-92zM258 55c-1-4 3-8 7-7h79c13 0 27 1 39 6 13 5 24 15 30 28 8 19 9 40 8 61-1 15-2 30-9 43-3 6-9 10-14 13 9 5 17 13 20 23 6 16 4 32 4 48v84c0 3 1 8-2 10-1 3-4 2-7 2h-58c-3 1-6-3-6-6v-75-49c0-3 0-7-3-9-2-3-7-3-10-3v137c0 2-2 5-4 5h-66c-3 1-7-1-7-4v-20-45l-1-72c0-17-1-33 1-50l-1-19V55m6-2c-2 9 0 18-1 26h3v1h-3c-1 4 3 8 2 12v-5l-2 1v35h2l2 1-4-1v24l1 5c-2 11 1 21-1 32v41l1 61a251 251 0 0 0 0 1l2 1-1 1c-2 1-1 3-1 5v67h41l1-12-1 12h26v-61-4-31l-1-46c6 0 12-1 17 2 5 2 7 8 7 13v46c0 5-1 11 1 16l-1 5 1 26-1 34h50v-2 2h9v1l4-1v-64-5-37c-1-2-3 1-4 1l2-3c1-1 1 0 2 1 0-7 1-13-1-19 0-14-9-26-21-32-4-2-9-3-13-6 9-1 18-4 23-10l4-7c4-9 5-18 6-27l1-9v-5h-1l1-13v-7l-3-23c-4 1-7 4-7 8l1 18h-1c0-8-1-15 1-22l2-3 3-1-3-9-6-12-2 2 1-3c-8-10-19-16-31-18v4l-2 4c-1 2 0 6-4 6 3-3 4-7 6-10v-4l-8-2v1l-5-1-26-1h-68zM613 51c1-2 4-3 7-3h110c3 0 6 0 8 3 2 4 0 9 0 13l1 46c0 3 0 7-2 9-1 2-4 2-6 2h-41v47h36c2 0 5 0 6 2 2 2 2 6 2 9l-1 47c0 3 1 7-2 9h-13l-28 1v59h44c3 0 6 1 7 3l1 8-1 46c0 4 2 9-1 13-3 2-7 1-10 1H615c-2-1-2-4-2-6V245l-1-38 1-55-1-94 1-7m5 2v150 75a233 233 0 0 1-1 20l1 1 1 6h-1v54l1 2h19v-2 2h3v-2 2h5v-2l1 2a1102 1102 0 0 0 78 0l-1-3 1 3h11v-8-22l1-10-3-1 1 3h-1l-2-4 2-3v3c0 2 2 1 3 0l-1-19h-7l-22 1-15-1h-7v-21h-9 9a1433 1433 0 0 0 0-39c0-4-1-9 2-12v2h7v-2l1 2h22l12 1-1-58h-43v-11-3-43h49l-1-26c2-13 0-25 1-37h-1l-39 1-2-1h-74zM930 48h66l31 1c10 1 20 2 29 7a52 52 0 0 1 27 29c3 6 5 12 5 18 4 21 3 43 0 64-2 13-9 26-21 32l14 10c8 10 10 24 10 36 0 4 2 9 1 13v14 30l-1 59c0 3-3 6-6 5h-59c-4 1-7-2-7-6l-1-41 1-36v-32c-1-7 1-15-2-22-1-5-8-5-12-6v135c0 3 0 7-3 8h-70c-3-1-3-4-3-6-2-35-1-69-1-104v-73-19l-1-110 3-6m2 5l1 43-1 3 1 61-1 2 1 21h-1l1 6v164l1 9 6-1h47a128 128 0 0 0 13 0v-15-12-35-2-22-4-10-14-29c7 0 17 0 21 7 4 6 2 13 3 19v11 17 44 7l1 38h61v-56-5-25-17l1-1-1-7c0-10 0-21-5-30l-6-10-4-2-13-8h-2v-1h-3v-2l3-1 8-2 5-2c4-3 7-7 9-12 4-5 5-11 5-17l2-24v-8-3-2-2-4l-2-17c-1-7-3-13-6-19l-1-3-1-2-1-1v-1c-4-4-8-9-13-12l-7-4-5-2-1-1-14-3c-12-2-24-1-36-1h-51c0-1-3-2-4-1h-11zM1163 48c5 1 11-1 15 2 3 4 1 10 1 15v129a3757 3757 0 0 0 0 161c1 5 1 11-5 11h-67c-3 0-6-3-6-6V251v-19-89-82-10c2-3 6-2 9-3h53m-57 6v171l-1 5h1v131h66l2 1v-7-59-4-26-2-70a124 124 0 0 0 0-9v-4-21-2-3-3-23-2-9a227 227 0 0 0 0-12v-4-39-10h-11v1l-42-1-2 1-4-1-1 1h-8zM1213 49h72c3 0 6 3 6 6l8 66 3 29h1l11-94c1-3 3-7 6-7h87c4 0 7 3 6 7v297c0 4 1 8-2 11-2 3-5 2-8 2h-54c-3 0-6-4-5-7v-31-80l1-17-6 44c-2 7-2 15-3 23l-9 62c0 3-2 7-6 6h-38c-3 0-7 0-8-3l-3-30-9-71-2-18v-10h-1v126c0 3-3 6-6 6h-50c-4 0-11 1-13-4v-26V59c0-4 0-8 4-10h18m148 5h-41l-4 36c-1 2-2 5-1 8h-1v4a773 773 0 0 1-4 34l-1 2-4 37h-1v5l-2 11c-3-3-1-8-2-12v-4h-1l-4-37v-3-5l-1-6h-1l-1-18v-1l-2-21-2-5v-7l-2-17-24-1h-65l-1 22v8 44l1 16-1 2v44c1 5-1 10 1 14l-2-1 2 3-1 24v74a812 812 0 0 0 1 57h57l1-18v-3-62-2-16-8-9-3l1-16v-3a919 919 0 0 0 0-8v-8-2-1-8-3-15l1-7 1 5v3l1 4 1 7 1 5 1 13 1 10 1 7v3l2 14v3c2 6 1 12 2 17 2 5 1 11 3 16l-1 1c2 5 2 11 2 17l6 52 1 3 1 12h42c2-6 1-12 2-17l1-8c1-8 3-15 3-23v-2l3-16 1-6v-2-3l3-22 4-28 2-10 1-12v-3l4-30a123 123 0 0 0 2-12c3 3 0 7 1 11v1l1 30v11l-1 1v1l1 13-1 71v24l1 14-1 17h59v-3-66-3-38-3-30-20-3-15-6-12-40-5-32-2-29h-47zM1440 49l104-1c3 0 7 1 7 5v62c1 3-2 6-5 6h-44v14l1 15-1 18h38c3 0 6 3 6 6v58c-1 4-6 3-9 3h-35v49l1 12 29-1c6-1 13 0 19 1 3 3 3 7 3 11v52c0 2-1 5-3 7h-121c-4 0-5-4-5-7V56c0-3 1-6 4-7h11m-9 5l-1 68 1 3-1 4h1l-1 41 1 1v10h-1v180h119v-50-3-7l-10-1h-2l-3 1h-33l-4-1v-5l1-4-1-46 1-2-1-6v-7h8a226 226 0 0 0 7 0h18l6 1v-1h5v-3-4-6-18-6-3-7-6c0-1 0-4-2-4h-38l-4-1v-19-7-30h32v-3l2-1 2 2v2a405 405 0 0 0 12 0c1-1 2-1 1-3V81v-2-26l-30 1h-4l-7-1h-43l-31 1m99 59c-2 1 0 4 2 3 1-1-1-4-2-3zM433 50l6-1h63c2 0 5 0 6 2 2 3 1 7 2 10v227c-1 6-1 12 1 17l2 4c2 0 6 1 7-2 2-3 2-7 2-11v-49l1-47-1-54V86 54c1-3 3-5 6-5h67c3 0 6 3 6 6v196c0 19 1 38-3 57-2 12-5 25-13 35-7 11-18 19-30 24-15 5-30 8-46 7-17-1-34-6-47-16-12-9-20-21-24-35-5-15-6-31-7-46a115164 115164 0 0 1 2-227m3 4v19l1 69-1 121 2 1 1 2-1-2-1 1c-1 1 0 3 1 4l-2-1 1 23 1 9c2 16 7 32 17 44v-20 17l1 5c5 5 11 10 17 13l6 3 6 2h1c2 2 7 2 10 3l18 2 1-4 2 4 16-2c2 0 2-3 2-4v4c13-3 27-7 36-16 7-4 11-11 15-18l2-7 3-9 1-6h1l2-20 1-20v-29-5l-6-2-5-2h5l1 2 5 2v-60-8l-1-12 1-6V54h-2l-1 1-7-1h-8a1338 1338 0 0 0-40 2l-1-2h-10v39l1 13-1 6 3-1-2 1-1 48v35l2-1-2 4 1 5v1l-1 13v26a282 282 0 0 1 1 2l-1 61-2 4c-4 7-18 5-19-3h-4l1-2 2 1c1-3-1-6-1-8v-1-6-20-7-13-38-4-15-5-18-2-79l-1-3v1l-1-1h1l-2-3 1-1 1 3 1-1v-3-5-23c-1 0-5-1-5 2v-2h-9a106 106 0 0 1-10 0h-44z"/>
  <path d="M351 101h1v5c-2-2-4-1-5 0 4 2 5 7 5 11v31l-1 14-3 6-4 2-13 1v-69c6-1 11 1 17 3l-1-2c2 3 4 0 4-2m-15 6v59c3-1 8 0 10-4 2-7 1-13 1-20 0-9 1-19-1-29-1-4-6-5-10-6zM1000 102c6-1 13 1 18 5l3 8 1 10v2c-1 11 1 22-1 33l-2 4-2 4-3 1c-5 2-9 2-14 1v-5-2-36-4-17-2-2m5 5v59l7-2c4-1 4-5 4-8v-25c0-6 2-13-1-19-2-4-6-4-10-5zM155 413c10-2 19-2 29 0 6 1 12 3 17 7 2 3 3 7 3 10h-25c-1-5-7-6-11-6-3 0-6 0-8 3-1 2 1 4 3 4l27 4c5 1 10 3 13 6 5 6 5 14 1 19-3 5-9 8-15 9-10 2-20 2-29 1-7-1-14-2-19-7-4-3-5-7-5-11h26l4 5c4 1 9 1 13-1 3-1 2-6-1-7l-27-4c-5-1-10-3-12-8-3-5-3-13 2-18 4-4 9-5 14-6zM564 413c9-2 18-2 27 0 7 1 13 2 18 7 3 3 4 6 4 10h-25c0-3-3-5-6-5-3-1-8-1-12 1-2 1-2 4 1 5l24 3c6 1 13 2 17 7 5 5 5 13 2 19-3 4-7 7-12 8-8 3-16 3-24 3-9-1-19-1-27-7-4-2-6-7-6-12h26c1 2 1 4 3 4 5 2 10 2 14 0 3-1 2-6-1-7l-28-4c-5-1-9-3-11-8-4-5-3-13 2-18 4-4 9-5 14-6zM681 412c11-1 22-1 32 3 8 3 13 11 15 19 1 10 0 22-9 29-8 7-20 8-30 8s-21-1-29-8c-6-6-8-16-7-25 0-7 3-14 8-19 6-4 13-6 20-7m3 15c-4 1-7 4-8 8-1 5-1 10 1 15 2 4 7 6 11 7 4 0 10 0 13-4 4-4 4-9 4-14s-2-9-6-12c-5-2-10-2-15 0zM208 414h62v13h-20v42h-22v-42h-20v-13zM275 469v-56l49 1c5 0 12 0 15 5 6 7 4 20-5 23 2 1 4 2 5 5 3 7 0 16 5 22h-24l-2-12c0-2-1-5-4-5h-17v17h-22m22-42v11h18c5-1 5-10 0-10l-18-1zM349 469v-56l59 1v13h-37v8l35-1v14h-35v8h37v13h-59zM417 469v-56l59 1v13h-37v8l35-1v14h-35v8h37v13h-59zM481 414h62v13h-20v42h-22v-42h-20v-13zM734 414h56v13h-34v9l32-1v14h-32v20h-22v-55zM827 469v-56l22 1v40h34v15h-56zM908 414h27l24 55h-24l-2-7h-23l-2 7h-23l23-55m14 16l-7 19h13l-6-19z"/>
  <g fill="#9e1616">
    <path d="M783 61c19-13 43-15 65-12-3 3-5 5-6 9l3-2 3 1-1-6 4 6-1-5 3 3-1-6h3l-2 9-14 8c-9 5-16 13-25 19-3 2-7 1-10 1l-1 4c-2-2-5-5-8-4-4 0-3 6-4 9-2-4-1-9-1-14h-3v4c-2 1-6 1-6 3v10l-2-1-1-10-5-2V69l10-8m55-6l-8 7-1-1c0 2 0 5 2 6 4-2 9-4 11-8l-1-6-3 2m-13 5c-1 3 1 7 4 9 0-3-1-7-3-10l-1 1m-4 2c0 3 1 7 4 9l-2-9h-2zM856 50l10 3c-4 0-7 1-10 3v-6zM932 53h11c1 2 3 3 4 1h51c12 0 24-1 36 1l14 3h-2v20l-5 1-1 8-2-13-2 1 1 4h-6l-1 7c-1-4-2-8-5-9l-1-2h-3v10l-2-6c-1-2-4-1-5 0l-1 6-2-4-3-1-1 5c-2-2-2-5-1-8l4 2 2-2c-2-1-4-4-7-2-4 1-3 6-3 9h-6v-5h-7v7l-2-7c-2-1-5-1-6 2h4l-1 2 2 2-2 1-3-4-1 6-2-1 2-3-6-7c2 1 4 3 6 1-1-4-6-3-9-3 0 4 2 7 5 10l-5-1 3 5-16 3h-5l-1-10-1-27-4 5v13c-1 7 3 14 2 21-3-1-6-2-8 0l-8 2-1-43m22 3c-1 1 0 4 1 2 2 0 1-3-1-2m44 10c-1 1 0 4 2 3 1-1 0-4-2-3m-61 4v4c2 0 3-2 4-4h-4m5 1c0 2 0 2 2 2 0-2 0-2-2-2m12 4v12l6 1 1-3h-4v-2l4-3h-4v-3c2 0 4 0 4-2h-7m-15 1v2c1-1 2-1 0-2m1 3l4 2v-3c-2-1-3 1-4 1m-5 4h5c0-3-4-2-5 0m7 0c0 3 3-1 0 0m-8 4c1 3 4 3 7 3v-5c-3 0-5 0-7 2m8-2l1 3-1 3c1-1 4 0 3-2 1-2-1-3-3-4m21 0c-2 1-1 4 1 3 2 0 1-4-1-3zM1106 54h8l-3 2-4-2v3h6l2-4 4 1c-4 7-8 15-13 21V54zM1361 54a508 508 0 0 0 47 0v29l-6 3c-2-11-1-21-1-32h-3c-1 11 1 21 1 32-7 3-14 0-20-3-5-3-11-1-17-2l-1-27m29 16c1 3 3 5 6 4-2-2-4-4-6-4m-2 6c1 3 4 3 6 5l1-5-3 2-4-2zM1431 54l31-1a3233 3233 0 0 0 50 1h-3c5 8 3 17 2 26h-30l4-7h-4l-1-4-3 7 3 2 1 2c-4 1-9 0-13-1-6 2-12 1-17 1l-1 3 13-1 3 4c3 0 5-2 7-4h37l1 3c5 1 6 6 8 10l1 9-9-2c-2-2-3 1-4 2-1 4 0 8 1 12h-11v30c-2 2-2 5-2 8l2-1v19l-14 4-1 1h9l-4 7-6-4v-6c-6-1-11-3-17-2l-12-1-22-1 1-41h4v-10l-4-2v4l-1 1 1-68m44 16l-1 9c2-2 5-7 1-9m-40 1l1 7c1-3 3-8-1-7m3 4c2 2 4 4 5 1l5 1-8-7-2 5m12 2l4-1c0-1 0-4-2-3-2 0-2 2-2 4m5 0c-1 3 2 0 3-1l2 1 2-4h-2v2l-2-3c-1 2-3 3-3 5m-22-3c-1 1 0 4 2 3 1-1 0-4-2-3m1 7c-1 0-4 0-3 2h15c2 0 2-2 3-3l-15 1m27 6l-1 8c0 3 4 6 7 4 2-1 1-3 1-5-2 0-3 2-4 3v-9l4 3v-4h-7m10 0v12c3-1 3-4 1-7h2c1 3-1 7 3 8v-9l-3-1c-1-2-1-4-3-3m22 3h-5c0 3-1 7 1 10 2-3 0-7 4-8 0 3 0 8 4 8v-9c1-2-1-3-2-4l-2 3m-14 0l1 4-1 1v4h7v-9h-7m19 6l5 4c2-2 3-5 3-8l-4-3c-3 1-5 4-4 7m10-6l-1 6c0 2 1 4 3 3l1-5 2-5-5 1m-44 12c-3 1-3 5-4 7 0 3 1 6 4 7 2 0 4-1 5-3v-8c-1-2-3-4-5-3m15 5c-2-1-5-3-7 0l-1 7c1 3 5 1 8 1v-8l1 8c2 2 2-2 2-3 2 2 3 4 5 3l-1-5 1-4-5 2v-6c-2 0-2 3-3 5m-41 12v10l2-3c0-2 1-6-2-7m35 27l-2 7 4-3 1 2 2-7-5 1m-35 3c0 2 3 3 4 4l1-7-5 3m23-3v6h4c0-3-2-5-4-6m-16 2v2c5 1 9 3 14 2l-2-5-2 2-10-1m34 0v5c3 1 2-3 2-5h-2m5 8c4 0 4-5 5-8-3 2-4 5-5 8zM1516 54l30-1v26h-26c-2-8-2-17-1-25h-3zM868 54l15 8v1l1 9 3-6 1 2 1 2 3 1a66 66 0 0 1 14 27l-18 1c-7 2-14 1-21 2-4 0-7 2-11 4l-12 7c-1-3-1-7-3-10-4-4-11-3-16-1-2 1-3 5-4 8l-7-10c-2-3-1-7-1-10h3l-3 6c3 3 7 3 10 3V87l-3-2 18-13 22-14 1 13c2-2 1-6 2-9l3 9 4-8c0 3-1 7 3 8V57h-4l-3 7-2-9 4-1m7 8v7c1 3 4 2 6 1l1-7c-2-2-5-2-7-1m16 29c-1 1 0 4 2 3 1-1 0-4-2-3zM1121 53l42 1 3 3 3-3h4c-2 3-6 5-6 9l-6 18c-2-2-5-5-8-5-5-1-8-3-11-6 5-3 12-3 18-6h-6l-18 5 2 2c6 1 10 6 16 9v3l1 2 1-4 4 1c0 4-1 8-3 11v7l-13 17-10 12c0 4-3 7-6 10-3 5-3 11-6 16l-6 16h-2l-2-8-6-1c0 2 2 4 3 5l-3 1v3h3c-3 2-3 5-3 8 4-1 7-3 9-6l-2 13 4-2-1 14c0 3-3 4-5 5l2-15-4 14c-3 2-3 5-3 8l10-3c2 0 2 3 2 5l-4 16c0 2-2 4-4 6l-4-4h-1l1-5c1-4 3-9 1-14l-1 7v-83l16-1c-1 5-2 11-1 17 2-3 1-7 2-10l1-10 8-2-6-1 2-5-10 9 1-6-5 2-1-3h-3v5l5 2h-9a77 77 0 0 0 4-6h-3l-1-3V85l4-9 12-3c5-1 10-1 14-4-9 0-17 4-25 5l4-8c3-4 5-8 6-13m21 5l-1 2-2-1-3 3 2 3c3 0 4-2 5-5l-1-2m-21 6h3l-2-3c-1 1-2 2-1 3m5-1v2h1l3 2v-6l-4 2m5 2l5-4c-3 0-6 0-5 4m-8 0c-1 1 0 4 2 3 1-1 0-4-2-3m37 5c0 2 0 2 2 2 0-2 0-2-2-2m-6 1c-1 1 0 3 1 2s0-3-1-2m2 2c0 3 3 3 5 4v-3l-3 1v-3l-2 1m-31 0v7l5 3 2-7c0-2-2 0-3 1h-1l-3-4m-3 3v7l2-1c0-2 1-6-2-6m27 8c-2 3 2 4 4 5v-5h-4m5 3c-1 2 1 4 2 2 2-1 0-3-2-2m-6 2v3h3l-1 2 2 2c-1 1-1 3-3 3l-4-4c-1 3 2 5 3 7 3-1 5-3 7-6l-2-1v-5l-2 1-3-2m-5 18l-3-1-1 3-3 2 3 6 5-6-4 1 4-4 3 2-2-6c-2 0-2 2-2 3m-15 14l1 1c3-3 7-5 7-9-4 1-5 5-8 8m9-4v4l3-1c0-2-1-4-3-3zM1197 54h62v26l-3 6h-13l1 2 15-1 1 11v33l-17-1 2 3 14 1c0 10-3 20-2 30v5l-1 7-12 1v7l11-2-1 7c-2 4-6 6-9 9l-2 6 6-3v4l-4 2v10c3-3 5-8 7-12h4v8l-2-2-1 3-7 8-1 17 11-15-1 16h-10v2l10 1v9c-2 0-4-1-5 1l-1 8 6-1v16l-11-1v3h11v62l-10-7c-1 6 6 8 10 10l-1 18h-46l-3-2 4-5c-1-6 2-11 6-16l8-15 13 9c0-2 0-4-2-5l-9-7c1-2 3-4 3-7 1-13 0-25 3-38l6 1-1-4-5-1c-1-4 0-9 1-14l1-6 4-4-1-5-5-3-11-12 5-2-1 3 6 4c4-4-2-7-5-10l10-11c2-1 2-4 2-6-6 4-9 11-14 15l-3-3-1 3-2-2 2-3c-2-1-5-2-7-1l2-3a738 738 0 0 1-6-4c-1-3-2-6-5-6l1 3v3l4 3 2-2c0 3 0 6 3 8a403 403 0 0 1 2 1l3 6 2-1-1 4-22-22c-2-4 0-9-1-14h5l-1 4c8-6 18-7 28-9 3-1 6 0 9-2 0-2 0-7-3-6-4 0-7 2-11 3l-14 2 10-11 9-10c2-3 2-7 2-10v-17l6-2v-3l-27 9-1-17-3-1 1-4 1 4h2l-1-19 3 4h2l2-6 2 6c6-1 5-8 5-13-3 1-3 4-4 7l-2-7c-3 1-4 5-4 8 0-4-3-7-4-11 3-2 7-2 10-2h17v-3c-9 0-18 2-27 1-5-2-8-6-12-9l1-22m27 34c-1 0-1 4 1 3 2 0 1-4-1-3m30 4l1 5-4-4 1 4h6c-1-2-1-7-4-5m-30 1v10c0 1 0 2 2 2V93h-2m4 0v13c4-2 2-7 2-10h2v10c4-3 2-9 1-13h-5m26 6l1 4-3-1c2 3 3 6 1 9 2-1 6-3 4-6l1-7-4 1m0 13c-1 2 2 3 3 2 1-2-2-3-3-2m2 3c-2 3-2 6-2 9h3l-1-1c2-2 2-5 3-7l-3-1m-44 10v4h5l-1-5-4 1m40 0c-1 2 2 3 3 2 1-2-2-3-3-2m-7 60l-1 7 3 1 1-6-3-2m-21 7c-1 2 2 3 3 2 1-2-2-3-3-2m-25 10l6-3-1-3c-2 1-5 3-5 6m22 1c0 3 3-1 0 0m5 1v5l4 1 1-6h-5m20 44c-1 5-2 9-1 14l2-2 1-11-2-1m-14 64v7h4v-7h-4m-10 16c-1 2 1 4 3 3 1-2-1-4-3-3m4 3l-2 3c2 1 4-2 2-3m-3 5c-1 1-1 3 1 3 1-1 1-3-1-3m-6 6c0 2 0 2 2 2 0-2 0-2-2-2m-6 12l2-6c-3 0-4 4-2 6m3-6l1 6 3 1c0-3-1-6-4-7m4 0c-1 1 0 3 1 2 1 0 0-3-1-2zM1262 54l24 1 2 17-1 2-1 4 2 1 2 5 2 21c-1-1-4-2-4 0s3 1 4 1l1 18-5-2c1 3 4 5 7 8v5l-9-1v-26l-1-21 5-2c-9-1-17-1-26 1l-2-10V54m1 15v10c2 0 3-1 2-2l1-8h-3m4 5c0 2-1 5 2 6v-8l-2 2m8-2v3l-4-2 4 7 1-3 3-3-4-2m8 0v8l1-2c1-2 2-6-1-6m-4 3c-1 1-2 3-1 4 2 0 3-3 1-4m8 53c2 2 4 4 7 4-1-3-3-4-6-5l-1 1zM1323 54h35l1 27c-12 0-24 2-37 1-1-9-2-17-1-26l2-2m5 11c0 2 1 4 3 4l3-2c-2-1-4-3-6-2m0 5v4l-1-3c-2 0-4-1-4 2l8 4-1-3 2-4h-4zM1049 59l5 2 2 4h5c5 3 9 8 13 12v1c-1 1-1 1 1 1l1 2-23 6-1-12h-3V59m8 7c-2 1-1 4-1 5l4-3c1-2-2-2-3-2m0 7c-1 0-3-1-3 1 1 3 4 3 7 4v-8l-4 3zM1167 84l7-21v39-16l-7-2zM762 85l8-12c0 4 1 8-1 12h-7z"/>
    <path d="M1513 78h5v5h-5v-5zM1196 79l6 6c-2 0-5 0-6 3h8v5h-5c-1 4-2 8 1 11l6 1c0 4 0 8-3 10v-7h-4v14c-1 2 1 2 2 3l2-4 3 5h-10V84v-5zM1520 82l26-1v32c-2-1-3 2-1 3h-7v-15c-4 1-7 3-11 3 0-4 0-8-2-11l-5-11zM1325 85c11-1 23 0 34-2 0 16 2 32 1 48-13 0-25 3-38 3v-19c-1-4 0-8 1-11l-9-2v-2l1-2c-1-3 0-6 1-8l4-1c1-2 3-4 5-4m28 7h-3c0 2 1 3 3 4l1-3c0 2 0 4 3 5V88c-3-2-4 2-4 4m-28-3l3 7c-1 3-3 7-2 11h4l1-2v3l2-1c1-3-3-3-5-5 1-2 3-5 2-8l-5-5m-9 4v7l3-1-2-7-1 1m4 0c-2 0 0 3 0 4v3h4c1-2 2-5 1-7-1-1-3-2-5 0m33 19l4-4c-3 0-5 2-4 4m-27-3a532 532 0 0 1 7 7l-4-2 1-3 2 3 1-4-7-1m30 3c-1 1 1 4 2 3s0-4-2-3m-3 4l-1 5 5 3-1 4-5-3c0 4 5 6 8 3l-2-6 2-2-6-4m-27 7h4c1 1 1 3-1 4v2l-2-3c-2-1-4 0-3 2l10 5-2-5c1-1 3-3 2-5l-4-1-2-4-2 5zM1362 84h11c8 3 17 8 25 4l1 15v19c0 2 2 5-1 5 0-3 0-8-4-10-3-1-6 2-6 5l1 5-4 2 1-5-3-1-2 3c-3-2-2-7-1-11 2 2 4 4 6 4 1-2 0-5-3-6-2-1-5 0-7 2-1 5-1 10 2 15h-15v-18l-1-28m28 7l2 5c-1 1-2 3 0 3l5-1-4-4 4 1c0-4-4-4-7-4m1 13l6 2v-4h-3l1-2c-2 0-4 2-4 4m0 2c0 2 3 3 3 1l-3-1m-3 6c2 2 5 4 8 3 3-2 1-7-3-6l-1 3-1-3c-2 0-3 1-3 3zM1050 90l27-6c3 6 5 12 6 19l2 17-5-2-3 4h7l1 2v2c-7-2-14-1-22-2 0-3 0-7-4-8l2 6c-3 1-7 4-8 0l-3-32m11-1c-1 1 1 3 1 2 1-2-1-3-1-2m2 2l2 4 1-4h-3m-5 5c3 0 2-3 2-6-3 0-2 4-2 6m-2 4c-1 0-2 3 0 3h4c0-2-2-2-4-3m-2 4c-1 2 1 4 2 3 2-2 0-4-2-3m5 0v3c2 0 2-3 0-3m-4 5l6 6c1-1 2-2 0-3-1-2-4-2-6-3m12 9l3 3 1-7-4 4m5 4c3 0 4-1 6-3-1-1-2-3-4-2-2 0-2 3-2 5zM995 88l5-2 7 2h5c12 1 23-1 35 2l1 16c1 6 1 12 3 17-10 3-20 1-29 2l-1-10 1-14c0-2-3-2-4-3v9c-5-4-12-6-18-5v2h-10l1 11h3a2676 2676 0 0 1 2 0h3l1-9v17h-4c-3 2-7 2-10 2l1-5 5 4c3-3-2-7-5-6-4 0-5 4-6 7h-16v3h16c1 2 2 5 5 6 2 1 5 0 6-2 1-1 1-4-1-4l-5 4v-5h8v7h4l2-7v36l-19-6c-8 1-17 0-25 2l-1-5-1-25c4-2 7-1 10-2l-1-2-8 1-1-4-1-23v-4c3-2 7-1 10-2 5-1 11-1 16-3 4-2 9-1 14-2h2m8 7l5 1-1-6-4 5m6-4v6l2-1 2-6-4 1m-10 5l3 1-1-6c-2 1-2 3-2 5m22-3v4l3-1-1-4-2 1m6 0l-1 2a344 344 0 0 1-2 1h5c2 0 3 2 5 3l2-6c-2 0-3 2-5 3l-1-4-3 1m10 6c2-1 2-4 2-6-3 1-2 4-2 6m-71 0l4 4v11c1 2 3 1 4 1v-12c3-1 5-1 5-4h-13m13 8c0 3-1 7 2 8h6v-5l-4 3-1-2c2-1 7 0 7-3 0-2-2-3-4-4-2-2-6 0-6 3m45 4c-1 5 5 5 8 4 0-1 1-4-1-4l-4 2v-3c3 0 5 0 7-2-1-2-3-4-6-5-4 1-5 4-4 8m-30 7v3c2 1 5 0 5-2l-5-1zM1167 86c1 1 3 2 2 4l1 13 4 3v3l-4-1v16h3l1-6v9c-6 0-13-1-19 1l19 1v23l-6 4 6-1v3l-3 3-4 1 1 3c2 0 4-2 6-5v21l-20-18 4-4c-6 1-11 4-17 6l-12 3c-3 0-3-3-2-5 2-10 5-20 12-27l7-7 9-1-9-1c4-9 11-15 15-24l6-17m-13 33v4l5 1-1-3v-3l-4 1m8 0v4c2 0 2-5 0-4m3 37c-2 1-6 2-7 4 3 0 7-2 10-4h-3m-4 10a217 217 0 0 1 6 1l-4-7-2 6zM1264 87h18l1 20v21c1 2 1 5-1 6l-19-2v-19l3 2v-3h-3c0-7-2-14-1-21l2-4m2 23h5l-2-3c-1 1-3 1-3 3m0 4l5 2-1-5-4 3zM1402 89l6-4v32l-2 1-2 4c-4-11-2-22-2-33zM766 90l4-3v11c-4 1-7 2-10 5s-4 8-6 12c0-7 2-13 4-20 2 2 5 5 8 2 4-1 1-5 0-7zM798 98l5-4 1 3 3 1v32c-5 3-11-1-17-1-7-2-14-6-22-5-5-1-10 1-15 1 3-5 6-9 7-14s6-8 11-9c4-2 7-2 11-2l10-2h6m2 0c-1 0-2 3 0 3s2-3 0-3m3 1c-1 1 0 4 2 3 1-1 0-4-2-3m-4 7l3 2v-3l3 2-2-4c-2 0-3 2-4 3m1 7l-1 3 4-2c1 3-2 3-4 4l1 5 3-4 2 2v-10l-3 1-1-3c-3-1-1 3-1 4m-35-3c1 2 4 6 7 5 0-2-2-2-3-2l-2-3h-2m-4 3c0 2-1 4 1 5l7 4 1-4-3-4-6-1m37 11c1 3 4 3 6 4v-4h-6z"/>
    <path d="M1201 95c4 1 4 6 0 7v-7zM1481 95c2 0 2 0 2 2-2 0-2 0-2-2zM932 99l7-2c2 1 2 3 4 3l5-2 2 15-1 31c0 5 2 10 1 14-5 2-11 0-17 2l-1-61m7 3l6 1-3 2 3 1v-4c-2-1-4-2-6 0m1 5v4c2 1 5 2 6-1h-3l2-3h-5m-1 7l2 3 2 2 2 3 2-7c-2-2-5-2-8-1m1 12l6 2c1-2-3-2-4-4l4-1-5-2 1-3c-3 2-2 6-2 8m-1 3l5 5-1 2-3-2 1 5-2 2 4 5-4-1c-2 1-2 4-2 6h3l-1-4h2v3l5-2-2-2c1-1 3-3 3-5l-5-2 2-2 3 2-1-5v-4c-2-2-5-2-7-1m5 21c-2 0 0 3 1 2 2 0 1-3-1-2zM809 100l8 9c-1 0-3-2-5-1l3 5-2 5 6-3-2-4h4l-1 13-3-5-6 2 7 3-7 5-1-9-1-20zM892 102l15-2c1 7 4 13 4 19 0 4-1 7-3 10l1 2c-1 5-2 10 1 14v17l-32 1-33 3v-4l9 1v-9c-2-4-8-3-9 1h5l-5 3v-34-6a633 633 0 0 0 4 3l-1-5-3 1-1-3 20-10c9-2 19-1 28-2m-19 10c0 5 6 5 7 9h-2c-1-1-2-3-4-3-1 1-2 2-1 4 1 3 5 2 7 2 3 0 4-4 3-7-2-2-6-3-5-7l5 3c2-7-10-7-10-1m-11-3l1 6 4-1v-3l-5-2m35 4v11l4-1v-8c2 2 1 6 2 9h3v-11l-3-1-6 1m-11 3l5-1c-2 2-7 2-6 6s6 3 9 3v-10c-2-3-9-2-8 2m-19 12c-4 4-3 10-1 15 3 2 6 2 9 1 3-2 1-5 1-8l-5-1 1 6c-1 1-3-1-3-2 0-3-1-7 2-9 1 2 3 3 5 3 2-5-5-8-9-5m24-1c-3 5-1 11-1 17 3 0 6 1 8-1v-10l-5-1v-4l-2-1m-11 5l-1 2 1 3c-1 2-3 5 0 7h7c1-3 2-7 0-10-1-3-4-2-7-2m21 0v11l4 1v-7l2-5h-6zM1314 103c2 2 3 3 3 5l1 27-8 1a411 411 0 0 1 4-33zM1510 104c1-1 3 2 2 3-2 1-3-2-2-3zM1521 104c3 0 5 0 6 3h-5l-1-3zM1531 107c1-2 3-2 5-3v3h-5zM1464 113c1-2-2-7 2-8 0 2 2 7-2 8zM983 106c3 1-1 3 0 0zM1027 106c2 0 2 0 2 2-2 0-2 0-2-2zM1520 114l5-2v4h-3l-2-2zM763 115l6 3-3 2-3-5z"/>
    <path d="M889 119c2-1 3 2 2 3-2 1-3-2-2-3zM1391 120h3v6h-3v-6zM1406 129l2-7v40l-6-4v-11-17l4-1zM752 131l1-8v3h12c7-2 13 1 19 3l-3 2c0 2-1 5 1 8h6l-1-3-3 2-1-6h6v8l4-8 14 1 1 20c-2-1-5-2-8-1l-1 4c2-1 4-3 6-1l-6 2 1 6 7 1 2 5-18 2c-11 1-22 2-32 5l-5 4 19-5c5-2 10-1 16-2s13 0 19-2v11l-1 3-21 4-8 5-10 5c-4 5-11 7-16 10v-61-15l5 5-5-7m16 32h3l1-3h4c1 2 2 4 4 4l-3-15c0-2-3-2-4-3-3 5-4 11-5 17m14-12c0 4-1 8 1 12h2l1-13-2-4-2 5m6-4v16h3v-9c3 2 1 6 2 9h3v-11h-5v-5h-3m6 30v3c2 0 4 0 5-2 1-3-3-2-5-1m-7 4h4l-1-4c-3-1-3 2-3 4m15-4c-1 1-1 4 1 4s1-5-1-4m-21 2c0 1 1 4 3 3l1-4-4 1m16 1c1 4 3-1 0 0zM1140 125l4 3-2 3-5-2c0-2 2-2 3-4zM1022 127h29c1 5 3 11 3 17l-6 12-7 1-1 7-8 11-4-4c-1-3 5-5 4-8-3 1-4 6-7 8l-8-3 2-4 6 2v-6h-4c2-11 0-22 1-33m21 16c3-1 5-4 4-7-3 1-4 4-4 7z"/>
    <path d="M1054 127l8-1 23 2v3l-12 30c-3 1-7 1-9 4-2 5 0 10 2 14-7 2-15 2-22 2-4 1-7-3-10-5l6-6v8h5v-14l4 14 4-1 4-14v14h4v-20c-2-1-6-3-7 0-2 4-2 8-3 13-1-5-4-10 0-13l7-13v8l11-1 1-3-7-1v-4c2-1 6-1 7-4l-7-1-1-4h7v-4h-11c0 5 1 9-1 13l-3-16m17 4v7l1 13c0 2 4 1 4-1v-20c-2 0-4-1-5 1zM811 132l9-5v59l-8-1-2-13 5-1-1 8 2-2 3 2-2-5 3 1-2-3 2-4-9 1 1-6c3-2 2-6 2-9 2 3 2 6 2 9h3l1-10-10-1c1-7-1-14 1-20zM1196 128h10c0 4 1 8-1 12l-8 4-1-16zM1384 132c5-2 10-2 15-2l1 27-7-1h-11c-2 0-2 2-2 3v11c-5 4-13 5-18 0 2-12 1-25 1-37l21-1m-11 2l-4 2-1 3 5-1v-4m-6 31v4l5-1v-4l-5 1zM1262 134c7 1 15 1 22 3v36c-8 4-17 1-26 4v-3l4-40zM1322 138c13-2 26-4 39-4l-1 35c-1 4-6 5-10 5l-1 4c-1-4 2-8-1-11l-1 7h-18c-2 0-5 0-7-2v-21-13m31-2v4h5l-1-4h-4zM1211 141c4-4 11-4 17-6l-1 20c0 4-3 7-6 10l-14 15-11 5v-30l4-3-4-2v-4l14-5v6h5v-5l-4-1m-9 8l-4-2c1 2 2 5 5 5 2-2 2-5 5-6v-3l-6 6m4 0c0 2 0 2 2 2 0-2 0-3-2-2zM1286 137l9 1 4 37c-4 0-9 0-13-2v-17-19zM1309 138h10l-1 33c-4 3-9 3-13 4l4-37zM1079 154c1-6 4-10 6-15l-2 24h-5v14h-3v-11c-1-5 2-8 4-12zM773 152c2 1 3 5 0 5v-5z"/>
    <path d="M1383 159h17v12c-4 3-9 3-13 2l-4-4v-10zM967 160c6 0 12-2 18 0l15 5v5c5 1 9 1 14-1l14 6c3 1 0 4-1 6l-4 9c-1 1-4 3-6 1l-14-6c-5-3-11-2-17-2h-29c-2-7 0-14-2-20 3-4 8-2 12-3m14 2l-2 7h1l2-1 1 2h8l3 4 2-3 2 1-2 4 5-4c-2-2-4-4-7-4l-2-3-3 3-2-3-2 1 1-3-5-1m26 15l7 2-1-7c-3 0-5 3-6 5m9 1l-1 4 5-3 2 2h-3l2 3 5-5-9-2-1-3v4zM932 162l19-1v16c1 2 0 5-2 6h-16l-1-21zM1402 162l6 1v11l-6-3v-9zM1147 165c1-1 3-2 5-1l8 9 14 12v3l-9 2-3-7-5 5-5-4-6 3-6-3c-2 3-2 8-2 11l-15 4c-2-10-1-20 4-28l20-6zM874 167l36-3v15h-36v-12zM845 168l25-2c2 4 0 9 2 13h-27v-11zM1070 171c-2-2-2-4 0-5v5zM1120 167l5 1v5c-3 0-5 0-6-2l1-4zM1431 171c4 2 8 1 13 2l2 1c3-2 7-1 10 0l-1 6 2-2v5l2-1-1-8c7-1 14 0 20 2l1 3c-4 2-9 2-14 3l-12 3c-3 0-6-2-9-4h-13v-10m17 9l5 2c1-3 0-6-1-8l-4 6m12-4c0 2 0 2 2 2 0-2 0-2-2-2m-15 1c-1 2 0 3 2 4 2-1-1-5-2-4zM1359 173c1-2 3 0 5 0v5h-6l1-5zM1379 173h5c1 2 0 4-1 5h-4v-5zM1399 175c1-2 3-1 5-1v6h-5v-5zM1501 173h38c2 0 2 3 2 4v6c-2 2-3 6 0 7v3h-2l-1 1h-2c-4 2-9 1-14 1-6-2-13-1-19-3l-12-7 2-3-1-3 9-6m-3 4c-2 2-4 5-4 8h2l4-7-2-1m1 7l4 2 2-4-2-3c-2 1-4 3-4 5m7-2l1 8c3-2 5-6 6-8l-4 2v-3l-3 1m17 2l-4-1-1 2 4 1h-4l-2-3c-3 1-4 4-6 5l6 2v-3c1 1 1 4 3 4v-3l2 2 2-4 1 4h9l-1-3h2c1 1 0 4 3 3l1-7-2 1-2-2-4 1-1 2-2-3-4 2zM1283 175h5v6h-5v-6zM1318 176c1-2 5-2 5 1 1 2-2 3-3 4l1 2c3-2 6-5 10-4h15l-4 30h-19v3h19l-1 12-3 1-2-11c-1 1-4 1-4 3l-2 9-2-11h-3l3 15 3 3 3-11c1 4 2 9 5 12l-4 28-3 22c-2-1-2 3 0 3v2l-2-1 1 7-3 16-19-17 4 8 15 11c0 8-2 15-3 23-2-1-5-3-6 0-2 2-1 5 0 7l5 1c-1 5 0 11-2 17h-42l-1-12 10 2c-2-3-7-4-11-5l-6-52c0-6 0-12-2-17 5 2 11 3 16 1-5-2-10-2-15-2-2-5-1-11-3-16-1-5 0-11-2-17h34l20 1v-3h-44l-10-1-2-14c3 2 2-2 0-3l-1-7 5-4h51v-3l-25 1h-23c2-4 6-8 9-10l-1 5 4 2v-7l2-8c2-2 1-5 2-8l5-4 8-1c1 4-1 9 2 12l2-11 10-2c1 2 3 4 5 4l-1-6m9 30l2-1 3 1-1-8c-3 1-3 5-4 8m-40-5l-3 4 4 1v-1l2 1 4-3 5 3 2-4h-10c-1 1-3 0-4-1m15 6l3-5c-3-2-4 3-3 5m2-2l3 2 1-6-4 4m6 0c2 1 4 0 6-2l-3-2c-2 1-6 2-3 4m23 0l3 1 1-3c-2 0-3 0-4 2m-65 20c4-3 0-7-3-9l3 9m60 12c-4 2-3 7-3 11 1 4 6 7 9 4 2-1 1-4 1-5-2-1-3 2-5 3l-1-11c3 0 4 3 6 2 2-4-4-7-7-4m-49 11l-1 3-3 1v8h6l1-10c0-2-2-2-3-2m-11 4v4l2-2v7l3-1v-7c-1-2-3-2-5-1m15 1l1 2v6l7-1v-8l-8 1m4 25v1c6 1 13 4 17 10 0 2 2 5 4 3 0-3-4-5-5-8-4-5-10-7-16-6m34 11c-1 4 2 5 5 6l-4 2c2 2 5 0 6-2 1-3-3-3-5-3l3-4-5 1m-23 7c-1 2 2 3 3 2s-1-3-3-2m-5 3l4 6 3-5h-4l-3-1m5 11c0 2 0 4 2 5 3 3 7-3 4-5-1-3-4-1-6 0m10 9c1 3 5 3 5 7-2-1-3-3-5-2 0 2 1 4 4 4 3 1 5-2 5-5l-6-5c2 1 7 2 5-2-2-3-8-1-8 3m-16 2c0-1 3-3 0-4-3 0-3 3 0 4m2-2v0m25 9h5c1-2 2-5 1-8-2-2-4-1-6-2v10m-30-2c1-1 4-1 4-4-2 0-5 0-4 4m-2 3c-1 1-1 3 1 3 1-1 1-3-1-3m26 13l-3-3c-3 1-1 3 0 5l4-1c2-1 2-3 2-5 1-3 1-6-2-8l-1 12m-24-10v3l-6-1c0 3 3 5 5 7 0-3 2-5 3-8l-2-1m4 18v2c6 0 13 1 19 3v-1c0-2-3-2-4-2l-15-2m20 5l6-1c-2-1-6-3-6 1zM1032 178l17 13-16 1c-2 1-4-1-6-1 0-5 3-9 5-13zM1383 181c4-4 8-2 12-3l1 3 4 1v11l8 5v20c-4 0-7-2-10-4-3-1-6-4-10-3 6 4 12 10 20 8v29c-3-1-3 4 0 3v38l-11 5c-7 3-14 4-22 6-6 2-10 7-15 11-3 2-7 2-10 2l1-8-2 1 1-71-1-13 2 1v2c1 3-1 5-1 8l4-2v-9c-1-2-3-2-4-2v-8l28-1 9 1-3-6-1-19 2-1c-1-2-3-4-2-5m-17 40l1 9c1 2 4 3 6 2l-2-6 1-5-3-4-3 4m-8-1c-2 1-2 3-2 5a407 407 0 0 1 5 5c-1-1-3-3-4-1-2 1 1 3 2 3 2 1 4-1 6-1l-1-4-5-4 1-1c2 1 3 2 5 1-1-3-4-3-7-3m1 16v3h3v-3h-3m-9 7c0 4 0 9 4 10 3-3 4-7 4-12-4-1-4 4-5 6l-1-6c-2 0-3 1-2 2m10-2l-1 10 3 2 1-10c0-2-1-3-3-2m6 0v11l2 1v-12h-2m3 0c2 3 2 7 2 11l3 1v-12h-5m8 0v3c1 1 3-1 4-2l1 2c-2 1-5 2-6 4s1 3 2 4h3l4 1v-11c-2-2-6-1-8-1m23 9c0 4 0 7 2 9h4l-3-2c-1-2-1-5-3-7m-6 4l1 9 4-2-2-2-2-6-1 1m-3 1c0 2-1 6 2 8-1-2 1-7-2-8m-4 1c0 3 0 7 3 9-1-3 0-7-3-9m-5 2c0 3 0 7 3 9l1-5-4-4m-9 4c0 2 0 3 2 2 0-2 0-2-2-2m-2 9c0 2 2 2 3 2l-1-3 2-4-2 1-1-4c-2 2-2 5-1 8m-6-5c-1 2 2 3 3 2 1-2-2-3-3-2m-2 3c0 2 3 3 4 4v3l3-2-1-4h-4c0-1-2-4-2-1m-9 5c-1 2 0 5 3 6-1-3-1-6 1-9l2 3-1 5c1 0 3 0 3-2 1-2 0-5-1-7-3 0-7 1-7 4m-3 0l-1 10 4-2-1-8h-2m36 2c2 4 2 9 3 13 1 2 4 3 5 1l2-9c2 3 2 6 3 10h3c1-6 4-11 4-17h-3c-1 3-1 7-3 10l-2-10h-4a429 429 0 0 0-3 9c-1-3 0-6-2-8-1-2-3-1-3 1m-12 14c-2 1-1 4 1 4 1-1 1-4-1-4m-8 2c0 2 0 5 2 6l2-2 2 1-1-3-1-3-4 1m-14 13c-1 2 0 2 1 3 1-2 1-2-1-3z"/>
    <path d="M1349 179c4-1 8 0 11 2v28h-10l-1-30zM1362 181c6-4 13-3 19 0v28h-19l1-18-1-10zM1067 182l11-2c-2 5-5 9-9 12l-6-1 4-9zM1259 181l20-1 5 4c0 3 1 7-2 9l-16 16v-4l-3-3-1 4-1-13 2 1 3-8-3-3-1 4-2 1-1-7m14 3l-1 6h6v-4c-1-2-3-1-5-2zM1403 182l5-2v15l-5-4v-9zM1058 183l5-1c-1 3-1 5-3 7l-6 2-9-7h7v4l5-1 1-4zM1477 182l5 1v4l-2 2-5-3 2-4zM1203 184l3-1 1 5h-4v-4zM952 184h3c2 1 1 4 1 6h-4v-6zM1526 185c1 0 2 0 1 2-2-1-2-1-1-2z"/>
    <path d="M1430 186c6 1 12 1 17 3 7 4 14 0 21-2 4-2 7 2 10 3l8-1c4 2 7 5 11 6l11 4 13 1c7 1 13-1 20-1v18l-5-3 1 5 4 4v1l-5 6v1l1-5-4-4 1 5-4-3c-1 2-2 4 0 6h-18c1-2-3-2-2 0h-5a19125 19125 0 0 0-8 0v7l-2-2-2 5h2l2-3 1 6c-9 6-18 10-27 14-2-6-4-13-11-16-4-2-10 0-15-3-5-2-10-3-15-7v-45m99 22v4l6-1-1-5-5 2m7 14c-1 2 1 4 3 3 1-2-1-4-3-3m-45 16c-1 1-2 3-1 4s3-3 1-4m-7 3c-1 1 0 4 2 3 1-1 0-4-2-3m-2 1c-1 3 3 0 0 0m5 0c-1 1 0 4 2 3 1-1-1-4-2-3m-15 8c1 2 1 2 3 1l-2-7c-3 1-1 4-1 6m3-2h7l-2-5c-2 1-6 2-5 5zM808 188c0-2 3-1 4-1v5h-5l1-4zM933 189l13 1c4 0 8 3 11 5l1 3c4 3 6 8 8 13l-8 2h-25v-24m7 5v5h-5c-1 3-2 7 0 10 1 1 3 2 5 1h3v-16h-3z"/>
    <path d="M959 190h18l20-1c3 0 4 3 6 4h3l12 5c3 1 6 3 5 6 0 2 1 6-1 7l-25 1v2c5 1 10-1 14-1h17l21-1c-2 14 1 27 0 41 0 4-3 6-6 9l-7 11c-4 2-8 0-12-1v-17l1 6 2 1v-10h-3v-6h3c0-3 1-7-1-9l-2 7c-1-6 1-13-3-19-4-7-14-7-21-7v29l-3 3v12l3-1v10l-7-5 1 3c-5 1-10 2-15 1-2-1-2-3-2-4v-25c-1-9 0-17-3-25 7-3 15 1 22-3-7-2-15 0-22 0l-10-14-5-9m24 7l-1 1c1 4 5-2 1-1m-8 5l3 1 2-3-5 2m60 44l2 1 1-8 1 7h3v-7l-4-2-2-4c-2 4-1 9-1 13m-6-1l4 2v-8c1-2-1-3-2-5-3 3-3 7-2 11m-50 5l1 10a849 849 0 0 1 7 4l-1-5-3-2 3-3-4-2c2-1 5-1 4-4-2 0-6 0-7 2m9-2v14l3-2v-12h-3m41 12l4 2v-9l-2-4c-3 3-3 7-2 11m5-5c-1 3 1 5 2 7 2 0 5 0 5-2 1-3 2-6-1-7-2-2-5-1-6 2m-46 10c-1 2 2 4 3 3 1-2-1-4-3-3zM1057 192c3-2 5 2 7 2l-8 2 1-4zM1250 199l6-8v3c-2 3-2 5 0 8v1l-6-4zM812 195c2-2 6-2 8-3v22h-7l-1-19zM1022 193c2-1 6-1 5 2 1 3-2 3-4 4l-1-6zM790 194c4 0 8-2 12-1l8 2v20c-6-1-12 1-17 5l-3 3-12-17c1-3 1-6 4-7l8-5zM1146 194l4-1v9h-2l-2-8zM1154 193h5v9c-2 0-5 1-6-1v-6l1-2m1 2v4h3c0-2-1-4-3-4z"/>
    <path d="M1165 196l9-2v70c-4-4-2-9-3-14 0-2-2-1-3 0v15l6 1v26c-2-2-5-2-8-1l1 10-6 5-7-2c-1 3-1 7 1 10-4 5-7 11-8 17l-21-19c-6-5-13-6-20-8v-71l3 2c0 5-2 9-3 13l1 19c3-3 3-8 4-12l-2-3c2-4 5-8 8-10l13 9c3 2 3 6 6 9 2-1 5 0 8 2l-5 5c2-1 5-3 6-6l-5-6c-1-3-5-3-7-5-5-3-9-7-14-9-1-7 2-14 3-21 2-6 1-12 5-17l13-2c3 4 6 8 10 10 3-1 6-1 8-4l7-11m-18 66v3l13 9c3 3 8 5 8 10h5l-2-6h3v-3h-3v-3h3c0-2 0-5-2-4-2 0-5 0-5 2l1 7-4-1-17-14m-21 9c1 5 0 11 5 13l3-7c0 3 1 5 3 8l2-2c1-4 2-8 1-12h-1l-2 7-2-7h-3c0 3-1 6-3 8v-8h-3m17 10c-1 1-1 3 1 3 1-1 1-3-1-3m-17 6v12c3 0 3-2 3-5 3 0 6-3 5-6-2-2-5-1-8-1m35 5c0 3-1 7 3 8v-10c1-1-1-2-2-2l-1 4m-21-2c-1 2 0 5-2 7v-6h-3v7c1 2 4 1 6 1 0-3 2-7-1-9m4 2c-1 2-1 5 1 7l5-1 1-7c-2-2-6-1-7 1m9-1v8l2-2c-1-2 0-3 1-5 1 3 0 6 3 7v-8c-1-2-4 0-6 0m-27 10c0 4 0 10 4 13l2-2 3-11c-4-1-3 5-5 8l-2-8h-2m19 13c1-1 3-2 2-3 1-4 1-8-1-11-3 4-1 10-1 14m4-13v11l2 2c2-4 1-9 1-13h-3m-12 6c-1 2-2 5 1 6h5c0-3 1-6-1-8-2-1-5-1-5 2zM1033 198l20-1v2h3v1l-5 9-17 1h-8v-9c2-1 4-3 7-3zM771 201c1-2 2-3 4-3l2 4-4 3-2-4zM1058 200l13 8-16 1 3-9zM1117 201l5-1 1 4-3 3-2-2-1-4zM938 200c3 2 2 6 0 8v-8zM767 207c3 0 6-2 8 0 4 3 5 7 8 11l5 8-4 4v-10c-2 1-5 0-6 2-2 3-2 6-2 9l-3-9c-1-2-3-1-5-2v18l4-1-1-8 4 10c-8 4-17 6-23 13v-28l4 2-2-3 4 1-3-5 6 4v-5l3 3v-7-1l4 4-1-10zM1197 206a777 777 0 0 0 35 40l-3 9-2 15-21-20c-2-2-4-4-6-4 3 5 8 9 13 14s10 9 14 15l-2 24v15l-4 5c-4-2-9-3-13-7l-12-10v-17l3-2c0-4 0-7-3-10v-29c1 1 3 2 3 0l-3-2v-10c3 1 3-3 0-2l1-24m6 19l5 6 4-2-3-1v-6l-6 3m-4 13l4-1-3-4c-2 1-1 3-1 5m5 0l-2 4 2 1c2 1 3 0 4-1l-4-4m7 9c-1 1 1 2 1 3h2l2 4c1-1 4-2 3-5l-4 3 2-6-2-2-4 3m-1 25v11c2 1 3 4 5 1-2-3-2-7-1-10l-1-4-3 2m-6 1h-3c-2 3 0 7-1 10 0 2 2 2 3 2 1-3-1-7 2-9v9c2 1 4-1 4-3-1-3-1-7-3-10l-2 1m15-1c-4 2-3 7-3 11 1 3 5 2 7 2l1-9c-1-2-2-4-5-4z"/>
    <path d="M764 210c3-2 1 3 0 0zM1075 210l6 10c5 9 5 20 5 30l-3-2-4 3c-1 7 2 13 5 18-4 5-10 7-14 11-3 2-7 5-11 5l-5-4c-6 0-10-4-15-7l11-16c3-2 1-6 1-9v-28l1-8c2-2 5-1 7-2 5 1 11 0 16-1m-19 29l-2 4 7 1-2-3 3-1-6-1m-2 20l2 5 2-2c-1-1-2-4-4-3m-2 3c-1 0-1 3 1 3s1-4-1-3m2 3c0 2 0 2 2 2 1-2 0-2-2-2m-6 2c1 2 3 5 6 4l-2-5-4 1m-4 3c1 3 3 6 6 6-1-3-3-5-6-6m26 3c-1 0-2 1-1 2 1 2 4-2 1-2m-10 3c-1 0-3 3-1 3 2 1 4-3 1-3zM933 215h27l-6 9 1 2c2-4 5-9 9-11 4-1 6 2 8 5v13c2 12 2 24 0 36l-5 1-16 3-16 4 2 5-4 3v-13-57m13 15c3-1 4-4 5-7-4 0-4 4-5 7m2 10l3-4-4-2c-1 2-2 6 1 6m-6-4c-1 0-2 2 0 3 1 0 3-4 0-3m-5 4c1 4 3-2 0 0m18 0c0 1 2 3 3 2 0-1-2-3-3-2m7 2l-1 3 5 1-4-4m-9 6c1-1 3-3 1-4-2 0-1 3-1 4m15-1c1 3 4 3 4 0h-4m-25 23c0 3 5 3 6 0h-6zM802 218l9-1c0 4-1 7-3 10l1 7c-3-1-2-5-3-8h-8l-1 12h4v-9h2l1 10-4 3-1 4c-2 1-5-1-7 1l-1 13-5 9-4 9-5-2c1 1 3 3 3 5l-2 3-10-1c-6-1-11 0-16 1v-7h3l-2-3v-19c3-5 10-8 15-9l1 12 4-1v-5l6-2c1-4 0-7-3-10l7-3 3-4 2 5c2 0 7 1 7-3 2-4 0-7-2-10l9-7m-20 28v3l5-1-4 3c-2 1-3 3-2 5 2 3 6 1 9 2v-11c-2-2-6-1-8-1m-25 29c-2 3 7 4 6 0h-6m9 2c3 0 8 2 10-2-3 1-8-1-10 2z"/>
    <path d="M814 217h6v8c-2 1-5 2-5 5-1 4 2 7 5 9v17l-6-3c0 2 2 4 3 5v1l-5-1 1 3v2l-2 4h-3c1 3 4 5 7 5l1-3v-2l2-6 2-2 1 26-1 9h-25c-5-1-12-3-15-8 2-6 6-10 9-15l10-19c1 2 0 5 2 6l4-2c1 1 3 3 5 1l-3-6 3-5-7 2 6-11 5 1c0-3-2-5-1-8l1-13m-4 55l-2 5 3 1-2 2 1 3-4-2 1-3h-3c-1 4 3 7 7 7l3-12-4-1zM1538 217c1 0 3 2 2 3-1 0-3-2-2-3zM790 228h2v7h-2v-7zM844 234l1-5c3 5 2 10 3 15 4-4 5-9 6-14h34l-1 5 5 5-5-2v4l7 1 1-5-5-6a1112 1112 0 0 0 5-1l-2-1h18l-1 15 2 7v4l-4 4v9c0 3-2 5-1 8l2 5c-4 6-12 3-18 4-16 2-31 5-47 6v7l20-3c10-1 20-4 30-4 6 0 12-2 18-1l-1 2c-4 3-11 3-15 7l-7 6c-3 3-3 8-6 12l-6 1c-2 2-3 5-2 7l4 6-2 4-18-4c2-3 2-6 1-10h3l1 9 2-1c0-4 2-9-2-11-2-1-5-1-7 1-1 4 0 8 1 12l-4-1c1-3 2-7 1-10-1-2-5-3-7-2-4 2-2 7-3 10-2-4-1-9-1-14l-3-1v-1c4-7 2-15 3-23l13-2v-4l2 4 2-2 4 2 3-4 2 2-1-7c-2 0-2 2-3 3l-2 1 1-3-3 3-2-4-2 4-3-3v8l-1-5-5-2-1 4-4-4v-47m53 6c-1 1-1 3 1 3 3 0 2-5-1-3m-26 3c-2 1-1 4-1 6l5 3-1 2-4-3-1 2c1 2 2 4 4 4l5-4c-1-3-5-4-5-8 1 1 4 2 5 0-2-1-4-3-7-2m9 4c0 3-1 7 1 10l5-2c1-3 0-5-1-8h-5m8 0c-1 4-1 7 1 10 2-2 1-5 1-8 3 1 2 5 3 8 4-2 1-7 1-10h-6m-43 14c-1 4-1 8 2 10 2 2 5 1 7 1v-7h-4l2 4-2 1c-1-3-2-6 0-9l4 2c2-5-7-6-9-2m20-2v13h6v-9l-3-1c0-2-1-4-3-3m15 4h-6c-1 2-2 5-1 8h3c1-2 1-5 3-7 0 3-2 8 3 8v-13c-3 0-2 2-2 4m12-2v11h3c0-4 1-9-1-13 0-2-3 1-2 2m-6 1c-3 1-3 5-3 8 1 3 8 3 7-1 1-3 0-7-4-7m-29 1c0 3-3 7 0 9h6c1-3 0-6-1-9h-5m36 11c-1 2 1 4 3 3 1-2-1-4-3-3m-4 1l-3 8c3 0 4-4 5-7l-2-1m-9 3v5l2-1h2v-6l-4 2m16-1v4c3 0 3-3 2-5l-2 1m-20 1c-1 1-1 6 2 4 1-1 0-5-2-4m15 0c0 1 0 5 2 4 1-2 1-6-2-4m-24 41c1 3 2 7 1 10 2 1 4 2 6 1-2-3-2-7-1-10l-2-5-4 4zM1430 234c6 5 13 6 20 7 5 1 10 1 13 6 3 3 4 7 4 11-5 6-11 10-19 12l-18 7v-43m2 8l-1 7 1-4c2-1 4-1 5-3h-5m8 3c-1 0-1 3 1 3 2-1 1-4-1-3m-7 1v3l5-1c-1-2-3-2-5-2m10 4c2 1 3-1 5-1l7 4c1-2-1-2-3-3l-1-4-3 1-3-1c-1 1-5 3-2 4m12 1c2-1 2-3 3-5-2 1-4 2-3 5zM1115 242c-4 0-5-5-2-8l4 3-2 5zM1472 259c9-3 17-8 25-14l1 46-9 6c-2-6-2-12-5-18l-4-10c-1-5-5-7-8-10zM1380 247c4-1 0 5-1 1l1-1zM1084 264l2-6v17c1-4-1-7-2-11z"/>
    <path d="M1469 260l6 5c4 5 5 10 7 14l4 17v6c-2 7-8 14-15 17-9 5-18 9-26 16-4 4-11 5-13 11l9-5 9-7c9-7 19-11 28-16l-6 15-6 14-4 14h-32v-71l4 1v-13l22-8 13-10m-2 9c1 1 1 4 3 4l4-3c0-2-3 0-4 0l-3-1m3 5v3l4-3h-4m-21 5l1 9c0 2 4 4 5 2-1-3-2-7 0-10l-2-4c-2 0-3 2-4 3m-13 1c0 3-1 7 1 9 3 2 7 2 10 2l1-12h-3l-1 9c-3-2-1-6-2-9-2 0-4-1-6 1m40 10l-1 4 6 1-1-5h-4zM909 277c-1-4 1-8 2-11l1 16c-1-2-3-3-3-5zM972 271h6v5h-6v-5zM980 275h20v22l-8 5c3 0 5-2 8-3v35c-7 8-10 18-13 27h-14l1-2-1-3-5 5h-7l-18-7 6-17c3-7 9-13 13-19h14v-2h-12c-1-1 1-3 3-4 4-3 10-1 14-3l11-7-12 5c-3 2-7 1-10 1 3-5 6-11 7-17 1-5-1-12 3-16m-19 46l1 3c0 3 1 7 5 6l-3-4c1 0 4 4 4 1-2-3-4-5-7-6m-1 8l1 2-3 1c2 2 5 3 7 2l-5-5m-5 2v1l7 7c-1-4-4-6-7-8m29 11h1c3-2 7-4 6-9l-7 9m-31-3c1 3 3 4 6 6l2-5-6-5c-3-1-4 3-2 4m-2 13c0 2 2 2 3 3l1-2 2 1c3 0 4 2 6 4v-4l-6-4h-2l1-3-5 5m13 2v6l3-2h3c-1-3-4-3-6-4z"/>
    <path d="M952 279l16-4c6 2 6 9 5 14 0 8-5 14-9 21l-10-7-1-2c-6-5-12-9-14-16 3-4 8-4 13-6m-3 2l-1 3 4 1c0-2-2-3-3-4m-8 4c-1 2 2 3 3 2 1-2-2-3-3-2zM1035 276c2-1 4 1 5 2l-2 4c-2 1-3-1-5-2l2-4zM1069 288l17-12v24c-5-2-9-6-14-9-1-1-3-1-3-3zM1024 279h6l5 6c-2 4-7 3-11 3v-9zM1037 288c0-2 2-5 5-5l3 3c3 1 8 1 10 4v1l-14 12c-3-4-3-9-1-14l-3-1zM774 286l5 2-1 5-5-2 1-5z"/>
    <path d="M933 286h4c3 7 8 11 12 16 3 4 10 5 13 10l-6-2c0 2 3 4 1 6-8 11-15 23-18 37l-6-2v-11-54m2 5c-1 3 3 0 0 0m-1 39h2l8-7c-4 1-7 4-10 7zM1062 286l4 4c-1 2-4 4-6 2-3-2 1-4 2-6zM753 290l12-1c3 0 6 2 8 5-5 10-7 22-10 33l-3 1c-4-12-7-25-7-38zM1024 290c4 1 8 1 11-1l-3 5 5-1c-1 4 1 9-2 12l-11 11v-26zM1129 289c2-1 3 2 2 3-2 1-3-2-2-3zM1380 301c10-1 19-5 28-9v66l-7 3h-28v-14c0-3 4-4 5-6l-2-4 2-1c-3-2-6-3-7-7l-1-10h-7l-2-5c5-6 11-12 19-13m-8 18c0 3-1 8 3 10v-9c3 2 2 6 2 8h2v-9h-7zM774 294c8 1 14 7 22 7s16-2 25-1c-1 4 0 7 2 10l-5 11c-5 0-10-2-15-4-6-1-11-6-16-9l-12-8-1-6m38 10l2 5 4-4-6-1zM1057 297c4-3 10-3 13 1 5 2 10 6 16 7v56h-61l-1-38 13-10 2 13c4-4-1-12 4-16l14-13m9 3c-2 0-1 4 1 3 1 0 1-4-1-3m-3 11c-1 1 1 4 2 3 2-2 0-4-2-3m-4 3l4 5c-1-2-1-5-4-5m-8 11c-1 2-1 2 1 2 1-1 1-1-1-2m-3 4v4l1-2 4 1c-1-2-2-4-5-3m-6 7c2-1 4-3 4-5-2 1-4 3-4 5m-4 0c0 3 2 4 4 5 0-3-2-4-4-5m-7 6l-2 3h-2l1 7c0 2 4 1 3-1l3-1v-3l5-1-1-3-4 3-3-4zM1147 295c2 0 2 0 2 2-2 0-3 0-2-2zM1491 298l6-3v5l4 1h33l-5 13-10 19c-3-8-8-17-14-23-4-5-9-8-14-12zM1167 303l7-7v59c-9-6-18-14-26-23l6-14 9-8v7c5-2 6-9 4-14zM888 313c4-9 13-14 22-16 1 9-3 17-5 25v-3c-2 0-5-1-7 1v9l3 2c-2 4-5 7-6 11-5-3-10-4-15-5l3-8 3-10v11c3 0 7 2 9-1l1-9-5-2-3-5z"/>
    <path d="M772 300l19 14c8 5 17 8 26 9 0 8 3 16 6 23l-3 16 4 1v6l-15-2-15-4c5-2 4-8 3-12s-9-5-11-1v9l-9-5v-13l-4 1v7l-10-13 4-2-2-8 7-26m1 15v21l12-1c0-4-4-2-7-2 0-2-2-4 0-6l6-2-1-2-5-1c-2 0-1-4 1-4 2-1 6 1 6-3h-12m15 16v5h3c0-2 0-5-3-5m11 22l8 5-1 3c-2-3-4-4-7-3l2 4h7c3 0 3-4 2-6-2-2-6-3-6-6 2 1 4 3 6 2 1-3-2-4-4-5-3 0-8 2-7 6zM1537 300h2l2 3-1 4-5-2 2-5zM1490 301l14 10 11 18c0 2 2 5 0 7-3 3-7 4-10 6l-13 6-6 4-10 9h-11l5-17 7-16 3-9c0-3 3-6 5-8l5-10zM1196 304l10 9c4 4 10 6 15 9l-10 19-2-8v10l-4 9-4-4c-1 2 1 3 3 5l-4 1 5 2-2 5h-6l-1-5c3-1 4-4 4-7l-2 3-2 2 1-8-1-9v-33m8 31c-2 2-2 5 0 7l4-1v-4l-4-2zM1036 308c0-3 5-4 6-1 0 2-2 3-3 5-1-1-3-2-3-4zM1542 307l7 1c-5 1-5 8-8 12-6 7-11 16-18 22l2-2c0-5 2-9 4-13 4-7 7-15 13-20zM1106 309l6 2c7 2 12 8 17 13l15 14c-1 5-4 8-4 13l2 10h-36v-52zM1531 339c6-9 13-18 18-28v50h-7c-4-4-9-6-12-10l-5-6 6-6zM821 321c0-3 2-5 3-8l4 3-1 6c-1 3-6 1-6-1zM833 316l6-2-4 10-2-8zM1349 315l6-1-1 6 5 5-6-1 2 4c3 1 6 0 7-3 0-3-3-4-4-6l-1-2 6 5 1 6h4c-1 5-2 10-1 15h4v18h-6l-15-3c-1 2 2 2 3 3h-4l1-17 2-6c1 1 2 5 4 5v-14l-4 7-3-6v-15m9 18h3v-3c-2 1-3 1-3 3m5-3v13l1 1c1-5 2-10-1-14m-5 4v9h3v-8l-3-1z"/>
    <path d="M831 320l2 10h2c6 0 1-7 6-9l-2 9 9 2 33 8c-2 5-2 10-1 16l-4 2c0-2-3-1-2 1v1l-3 1-1-5h8l-1-7c-2-2-6-3-9-1-4 4-2 10-1 15l-3 1v-16c-4 0-9-2-12 1-1 5-1 10 2 14l-3 4c-8 2-17 2-25 2v-10l3-2c1 3 3 6 7 7l-3-16c-1-2-1-5-3-6h-7c-2-6-4-12-3-18l6 3 2 3c2 1 3 0 3-2v-8m7 28l-3 3 2 1 1 10c1 1 3 2 4 1v-12l2 1 1 10c1 3 5 1 4-1l1-11c-3-4-8-2-12-2z"/>
    <path d="M849 321h3v6l-2 2-1-8zM879 321c2 0 2 1 2 2-2 0-2 0-2-2zM1322 326c-2-1-2-4 0-6v6zM1321 336l1 6c-2-2-2-4-1-6zM1516 339c0-2 2-3 3-4l3 4-3 4-3-4zM957 339c1-1 3 2 2 3-2 1-3-2-2-3zM1141 353c1-5 4-9 6-14 8 8 16 16 25 22h-27l-4-8zM884 341l9 2-9 8v-10zM1506 347c4-2 10-5 14-2l-13 16h-20l3-3c2 3 5 3 9 3l-1-9 8-5m-5 5c-2 2 0 4 0 6l5-5-5-1zM994 361l6-15v15h-6zM827 347h1l1 8-2-1-1-2 1-5zM1510 361c4-5 7-10 13-14 5 5 9 11 15 14h-28zM790 350l2 1 1 9c-2 0-3 0-3-2v-8zM856 351l2-1c2 3 2 7 0 10-3-2-2-6-2-9z"/>
    <path d="M1489 353l3-4 4 5-4 3c-1-1-3-2-3-4zM933 353l5 2-4 7-1-9zM942 356l11 5h-13l2-5z"/>
  </g>
  <g fill="#de2429">
    <path d="M848 49l2 2-1-2h3l1 6-3-3 1 5-4-6a1043 1043 0 0 1-2 5l-3 2c1-4 3-6 6-9z"/>
    <path d="M853 58l2-9 1 1v6c3-2 6-3 10-3l2 1-4 1 2 9 3-7h4v14c-4-1-3-5-3-8l-4 8-3-9c-1 3 0 7-2 9l-1-13-22 14-18 13 3 2v11c-3 0-7 0-10-3l3-6h-3c0 3-1 7 1 10l7 10v2h-4l2 4-6 3 2-5-3-5c2-1 4 1 5 1l-8-9 1 20 1 9 7-5-7-3 6-2 3 5v3l-9 5c-2 6 0 13-1 20l10 1-1 10h-3c0-3 0-6-2-9 0 3 1 7-2 9l-1 6 9-1-2 4 2 3-3-1a2269 2269 0 0 0-1 3l-2 2 1-8-5 1 2 13 8 1v6c-2 1-6 1-8 3l1 19h7v3h-6l-1 13c-1 3 1 5 1 8l-5-1-6 11 7-2-3 5 3 6c-2 2-4 0-5-1l-4 2c-2-1-1-4-2-6l-10 19c-3 5-7 9-9 15 3 5 10 7 15 8h25l1 6c-9-1-17 1-25 1s-14-6-22-7l1 6 12 8c5 3 10 8 16 9 5 2 10 4 15 4l5-11 1 3c-1 3-3 5-3 8 0 2 5 4 6 1l1-6h5l2 8 4-10h2l3 1c0 5-1 10 1 14 1-3-1-8 3-10 2-1 6 0 7 2 1 3 0 7-1 10l4 1c-1-4-2-8-1-12 2-2 5-2 7-1 4 2 2 7 2 11l-2 1-1-9h-3c1 4 1 7-1 10l18 4 2-4-4-6c-1-2 0-5 2-7l6-1c3-4 3-9 6-12l7-6c4-4 11-4 15-7v4h-1c-9 2-18 7-22 16l3 5 5 2-1 9c-2 3-6 1-9 1v-11l-3 10-3 8c5 1 10 2 15 5l-2 1-9-2v10c0 2-2 3-4 5-1-6-1-11 1-16l-33-8-9-2 2-9c-5 2 0 9-6 9h-2l-2-10v8c0 2-1 3-3 2l-2-3-6-3c-1 6 1 12 3 18h7c2 1 2 4 3 6l3 16c-4-1-6-4-7-7l-3 2v10h-2v-6l-4-1 3-16c-3-7-6-15-6-23-9-1-18-4-26-9l-19-14-7 26 2 8-4 2c-2-2-3-5-3-8l3-1c3-11 5-23 10-33-2-3-5-5-8-5l-12 1-1-6c5-1 10-2 16-1l10 1 2-3c0-2-2-4-3-5l5 2 4-9 5-9 1-13c2-2 5 0 7-1l1-4 4-3-1-10h-2v9h-4l1-12h8c1 3 0 7 3 8l-1-7c2-3 3-6 3-10l-9 1-9 7c2 3 4 6 2 10 0 4-5 3-7 3l-2-5-3 4-7 3c3 3 4 6 3 10l-6 2v5l-4 1-1-12c-5 1-12 4-15 9v19l2 3h-3v-25c6-7 15-9 23-13l-4-10 1 8-4 1v-18c2 1 4 0 5 2l3 9c0-3 0-6 2-9 1-2 4-1 6-2v10l4-4-5-8c-3-4-4-8-8-11-2-2-5 0-8 0l1 10-4-4v8l-3-3v5l-6-4 3 5-4-1 2 3-4-2v-5l7-2v-3l3 1 1-5-11 7v-8c5-3 12-5 16-10l10-5 8-5 21-4 1-3v-11c-6 2-13 1-19 2s-11 0-16 2l-19 5 5-4c10-3 21-4 32-5l18-2-2-5-7-1-1-6 6-2c-2-2-4 0-6 1l1-4c3-1 6 0 8 1l-1-20-14-1-4 8v-8h-6l1 6 3-2 1 3h-6c-2-3-1-6-1-8l3-2c-6-2-12-5-19-3h-12v-3c-1-3 0-5 1-8 2-4 3-9 6-12s6-4 10-5V87l-4 3c1 2 4 6 0 7-3 3-6 0-8-2v-1l4-9h7c2-4 1-8 1-12l3-4v16l5 2 1 10 2 1V88c0-2 4-2 6-3v-4h3c0 5-1 10 1 14 1-3 0-9 4-9 3-1 6 2 8 4l1-4c3 0 7 1 10-1 9-6 16-14 25-19l14-8m-80 30c0 2 0 2 2 2 0-2 0-2-2-2m11 0v8c4-1 4-7 0-8m12 0c-1 1 0 4 2 3 1-1 0-4-2-3m22 0c-1 0-1 3 1 3 2-1 1-4-1-3m-57 4l3 4c0-2-1-3-3-4m13 0c-1 1-2 2-1 3 2 2 4-3 1-3m44 4c2 0 2-2 2-4-3 0-2 3-2 4m-20 2h-6l-10 2c-4 0-7 0-11 2-5 1-10 4-11 9s-4 9-7 14c5 0 10-2 15-1 8-1 15 3 22 5 6 0 12 4 17 1V98l-3-1-1-3-5 4m4 60v4l3-4h-3m6 30l-1 4h5v-5c-1 0-4-1-4 1m-18 6l-8 5c-3 1-3 4-4 7l12 17 3-3c5-4 11-6 17-5v-20l-8-2c-4-1-8 1-12 1m-19 7l2 4 4-3-2-4c-2 0-3 1-4 3m-7 9c1 3 3-2 0 0m26 18v7h2v-7h-2m-10 1l-2 6c3 0 3-4 2-6m-7 15v4l3-1c0-2-1-4-3-3m23 5c0 2 0 2 2 2 0-2 0-2-2-2m-22 37l-1 5 5 2 1-5-5-2m75 35l1 8 2-2a515 515 0 0 1-3-6m30 0c0 2 0 2 2 2 0-1 0-2-2-2m11 1v6c3 1 4-8 0-6m-11 3c-1 1 0 3 2 2 1 0-1-3-2-2m-52 22a531 531 0 0 0 0 7l2 1-1-8h-1zM1163 53h11v10l-7 21 7 2v20l-4-3-1-13c1-2-1-3-2-4l-6 17c-4 9-11 15-15 24l9 1-9 1-7 7c-7 7-10 17-12 27-1 2-1 5 2 5l12-3c6-2 11-5 17-6l-4 4 20 18v4l-14-12-8-9c-2-1-4 0-5 1l-20 6c-5 8-6 18-4 28l15-4c0-3 0-8 2-11l6 3 6-3 5 4 5-5 3 7 9-2v6l-9 2-7 11c-2 3-5 3-8 4-4-2-7-6-10-10l-13 2c-4 5-3 11-5 17-1 7-4 14-3 21 5 2 9 6 14 9 2 2 6 2 7 5l5 6c-1 3-4 5-6 6l5-5c-3-2-6-3-8-2-3-3-3-7-6-9l-13-9c-3 2-6 6-8 10l2 3c-1 4-1 9-4 12l-1-19c1-4 3-8 3-13l-3-2v-3l4 4c2-2 4-4 4-6l4-16c0-2 0-5-2-5l-10 3c0-3 0-6 3-8l4-14-2 15c2-1 5-2 5-5l1-14-4 2 2-13c-2 3-5 5-9 6 0-3 0-6 3-8h-3v-3l3-1c-1-1-3-3-3-5l6 1 2 8h2l6-16c3-5 3-11 6-16 3-3 6-6 6-10l10-12 13-17v-7c2-3 3-7 3-11l-4-1-1 4-1-2v-3c-6-3-10-8-16-9l-2-2 18-5h6c-6 3-13 3-18 6 3 3 6 5 11 6 3 0 6 3 8 5l6-18c0-4 4-6 6-9h-4l-3 3-3-3v-1m-23 72c-1 2-3 2-3 4l5 2 2-3-4-3m-20 42l-1 4c1 2 3 2 6 2v-5l-5-1m-4 15c2-2 2-5 2-8-4 1-2 6-2 8m30 12l2 8h2v-9l-4 1m8-1l-1 2v6c1 2 4 1 6 1v-9h-5m-37 8l1 4 2 2 3-3-1-4-5 1m-2 41l2-5-4-3c-3 3-2 8 2 8zM1107 54l4 2 3-2 1-1-2 4h-6v-3zM1119 54l2-1c-1 5-3 9-6 13l-4 8c8-1 16-5 25-5-4 3-9 3-14 4l-12 3-4 9V75c5-6 9-14 13-21zM1259 54h3v22l2 10c9-2 17-2 26-1l-5 2 1 21v26l9 1v3l-9-1v36c4 2 9 2 13 2h1v4l-8 1-5 4c-1 3 0 6-2 8l-2 8v7l-4-2 1-5c-3 2-7 6-9 10h23l25-1v3h-51l-5 4-1-10 1-4 3 3v4l16-16c3-2 2-6 2-9l-5-4-20 1-1-4c9-3 18 0 26-4v-36c-7-2-15-2-22-3l-4 40-1-5v-5c-1-10 2-20 2-30l-14-1-2-3 17 1V98l-1-11-15 1-1-2h13l3-6V54m5 33l-2 4c-1 7 1 14 1 21h3v3l-3-2v19l19 2c2-1 2-4 1-6v-21l-1-20h-18m19 88v6h5v-6h-5z"/>
    <path d="M1320 54h3l-2 2c-1 9 0 17 1 26 13 1 25-1 37-1l-1-27h3l1 27c6 1 12-1 17 2 6 3 13 6 20 3 0-11-2-21-1-32h3c0 11-1 21 1 32a4731 4731 0 0 1 6-1l-6 4c0 11-2 22 2 33l2-4 2-1v5l-2 7-4 1v28l6 4v1l-6-1v9l6 3v6l-5 2v9l5 4v3l-8-5v-11l-4-1-1-3c-4 1-8-1-12 3-1 1 1 3 2 5l-2 1 1 19 3 6-9-1-28 1v-3h10v-28c-3-2-7-3-11-2v-1l1-4c4 0 9-1 10-5l1-35c-13 0-26 2-39 4v34c2 2 5 2 7 2h18l-1 5h-15c-4-1-7 2-10 4l-1-2c1-1 4-2 3-4 0-3-4-3-5-1l1 6c-2 0-4-2-5-4l-10 2v-5h1c4-1 9-1 13-4l1-33h-10l1-2 8-1-1-27c0-2-1-3-3-5l-1 4 1-5 9 2c-1 3-2 7-1 11v19c13 0 25-3 38-3 1-16-1-32-1-48-11 2-23 1-34 2-2 0-4 2-5 4l-4 1 4-36m42 30l1 28v18h15c-3-5-3-10-2-15 2-2 5-3 7-2 3 1 4 4 3 6-2 0-4-2-6-4-1 4-2 9 1 11l2-3 3 1-1 5 4-2-1-5c0-3 3-6 6-5 4 2 4 7 4 10 3 0 1-3 1-5v-19l-1-15c-8 4-17-1-25-4h-11m29 36v6h3v-6h-3m-7 12l-21 1c0 12 1 25-1 37 5 5 13 4 18 0v-11c0-1 0-3 2-3h11l7 1-1-27c-5 0-10 0-15 2m-1 27v10l4 4c4 1 9 1 13-2v-12h-17m-24 14l-1 5h6v-5c-2 0-4-2-5 0m20 0v5h4c1-1 2-3 1-5h-5m20 2v5h5v-6c-2 0-4-1-5 1m-37 6l1 10-1 18h19v-28c-6-3-13-4-19 0zM1509 54h10c-1 8-1 17 1 25h26v2l-26 1 5 11c2 3 2 7 2 11 4 0 7-2 11-3v15h-5v-2l-2-2-2 1v3h-4v-4l-5 2 2 2h-14c-1-4-2-8-1-12 1-1 2-4 4-2l9 2-1-9c-2-4-3-9-8-10l-1-3h-37c-2 2-4 4-7 4l-3-4-13 1 1-3c5 0 11 1 17-1 4 1 9 2 13 1l-1-2-3-2 3-7 1 4h4l-4 7h30c1-9 3-18-2-26m4 24v5h5v-5h-5m-3 26c-1 1 0 4 2 3 1-1-1-4-2-3m11 0l1 3h5c-1-3-3-3-6-3m10 3h5v-3c-2 1-4 1-5 3zM947 60l4-5 1 27 1 10h5l16-3-3-5 5 1c-3-3-5-6-5-10 3 0 8-1 9 3-2 2-4 0-6-1l6 7-2 3 2 1 1-6 3 4 2-1-2-2 1-2h-4c1-3 4-3 6-2l2 7v-7h7v5h6c0-3-1-8 3-9 3-2 5 1 7 2l-2 2-4-2c-1 3-1 6 1 8l1-5 3 1 2 4 1-6c1-1 4-2 5 0l2 6V75h3l1 2c3 1 4 5 5 9l1-7h6l-1-4 2-1 2 13 1-8 5-1V58h2l1 1v16h3l1 12 23-6 1 3-27 6 3 32c1 4 5 1 8 0l-2-6c4 1 4 5 4 8 8 1 15 0 22 2v2l-23-2-8 1 3 16c2-4 1-8 1-13h11v4h-7l1 4 7 1c-1 3-5 3-7 4v4l7 1-1 3-11 1v-8l-7 13c-4 3-1 8 0 13 1-5 1-9 3-13 1-3 5-1 7 0v20h-4v-14l-4 14-4 1-4-14v14h-5v-8l-6 6c3 2 6 6 10 5 7 0 15 0 22-2-2-4-4-9-2-14 2-3 6-3 9-4l12-30v8c-2 5-5 9-6 15-2 4-5 7-4 12v11h3v-14h5c0 6-1 12-5 17l-11 2-4 9 6 1-5 2c-2 0-4-4-7-2l-1 4-3 1-20 1c-3 0-5 2-7 3v9h8l17-1 5-9h2l-3 9 16-1 4 2c-5 1-11 2-16 1-2 1-5 0-7 2l-1 8v28c0 3 2 7-1 9l-11 16c5 3 9 7 15 7l5 4c4 0 8-3 11-5 4-4 10-6 14-11-3-5-6-11-5-18l4-3 3 2 1 7-1 1-2 6c1 4 3 7 2 11v1l-17 12c0 2 2 2 3 3 5 3 9 7 14 9v5c-6-1-11-5-16-7-3-4-9-4-13-1l-14 13c-5 4 0 12-4 16l-2-13-13 10v-7l11-11c3-3 1-8 2-12l-5 1 3-5c-3 2-7 2-11 1v-2c4 0 9 1 11-3l-5-6h-6v-7c4 1 8 3 12 1l7-11c3-3 6-5 6-9 1-14-2-27 0-41l-21 1h-17c-4 0-9 2-14 1v-2l25-1c2-1 1-5 1-7 1-3-2-5-5-6l-12-5h-3c-2-1-3-4-6-4l-20 1h-18l5 9 10 14v3c3 8 2 16 3 25v25c0 1 0 3 2 4 5 1 10 0 15-1l-1-3 7 5v4h-20c-4 4-2 11-3 16-1 6-4 12-7 17 3 0 7 1 10-1l12-5-11 7c-4 2-10 0-14 3-2 1-4 3-3 4h12v2h-14c-4 6-10 12-13 19l-6 17 18 7h-8l-11-5-2 5-6 1 4-7-5-2v-2l6 2c3-14 10-26 18-37 2-2-1-4-1-6l6 2c-3-5-10-6-13-10-4-5-9-9-12-16h-4v-1l4-3-2-5 16-4 16-3 5-1c2-12 2-24 0-36v-3-10c-2-3-4-6-8-5-4 2-7 7-9 11l-1-2 6-9h-27v-2h25l8-2c-2-5-4-10-8-13l-1-3c-3-2-7-5-11-5l-13-1-1-6h17c2-1 3-4 2-6v-16l-19 1 1-2c6-2 12 0 17-2 1-4-1-9-1-14l1-31-2-15-5 2c-2 0-2-2-4-3l-7 2 1-3 8-2c2-2 5-1 8 0 1-7-3-14-2-21V60m88 27l1-7c-3 1-4 5-1 7m-43-6v5c1-1 3-4 0-5m32 0v5c2-1 3-5 0-5m-29 7h-2c-5 1-10 0-14 2-5 2-11 2-16 3-3 1-7 0-10 2v4l1 23 1 4 8-1 1 2c-3 1-6 0-10 2l1 25 1 5c8-2 17-1 25-2l19 6v2l-15-5c-6-2-12 0-18 0-4 1-9-1-12 3 2 6 0 13 2 20h29c6 0 12-1 17 2l14 6c2 2 5 0 6-1l4-9c1-2 4-5 1-6l-14-6 3-1 8 3c3-2 4-7 7-8 1 3-5 5-4 8l4 4 8-11 1-7 7-1 6-12c0-6-2-12-3-17h-29v-2c9-1 19 1 29-2-2-5-2-11-3-17l-1-16c-12-3-23-1-35-2h-5l-7-2-5 2m75 83v-5c-2 1-2 3 0 5m-38 7c-2 4-5 8-5 13 2 0 4 2 6 1l16-1-17-13m26 5l-1 4-5 1v-4h-7l9 7 6-2c2-2 2-4 3-7l-5 1m-106 1v6h4c0-2 1-5-1-6h-3m70 9l1 6c2-1 5-1 4-4 1-3-3-3-5-2m-50 78v5h6v-5h-6m-20 8c-5 2-10 2-13 6 2 7 8 11 14 16l1 2 10 7c4-7 9-13 9-21 1-5 1-12-5-14l-16 4m83-3l-2 4c2 1 3 3 5 2l2-4c-1-1-3-3-5-2m2 12l3 1c-2 5-2 10 1 14l14-12v-1c-2-3-7-3-10-4l-3-3c-3 0-5 3-5 5m25-2c-1 2-5 4-2 6 2 2 5 0 6-2l-4-4m-26 22c0 2 2 3 3 4 1-2 3-3 3-5-1-3-6-2-6 1zM1142 58l1 2c-1 3-2 5-5 5l-2-3 3-3 2 1 1-2zM825 60l1-1c2 3 3 7 3 10-3-2-5-6-4-9zM875 62c2-1 5-1 7 1l-1 7c-2 1-5 2-6-1v-7z"/>
    <path d="M1054 61l7 4h-5l-2-4zM1121 64c-1-1 0-2 1-3l2 3h-3zM1126 63l4-2v6l-3-2h-1v-2zM821 62h2l2 9c-3-2-4-6-4-9zM884 72l-1-9 4 2 5 6-3-1-1-2-1-2-3 6zM1057 66c1 0 4 0 3 2l-4 3c0-1-1-4 1-5zM1263 69h3l-1 8c1 1 0 2-2 2V69zM937 70h4c-1 2-2 4-4 4v-4zM1160 70c2 0 2 0 2 2-2 0-2 0-2-2zM1328 70h4l-2 4 1 3-8-4c0-3 2-2 4-2l1 3v-4zM1390 70c2 0 4 2 6 4-3 1-5-1-6-4zM1475 70c4 2 1 7-1 9l1-9zM942 71c2 0 2 0 2 2-2 0-2 0-2-2zM1057 73l4-3v8c-3-1-6-1-7-4 0-2 2-1 3-1zM1435 71c4-1 2 4 1 7l-1-7zM1438 75l2-5 8 7-5-1c-1 3-3 1-5-1zM1156 73l2-1v3l3-1v3c-2-1-5-1-5-4zM1267 74l2-2v8c-3-1-2-4-2-6zM1275 72l4 2-3 3-1 3-4-7 4 2v-3zM1283 72c3 0 2 4 1 6l-1 2v-8zM1287 74l1-2v7l-2-1 1-4zM1450 77c0-2 0-4 2-4 2-1 2 2 2 3l-4 1zM1455 77c0-2 2-3 3-5l2 3v-2h2l-2 4-2-1c-1 1-4 4-3 1z"/>
    <path d="M1433 74c2-1 3 2 2 3-2 1-3-2-2-3zM954 75h7c0 2-2 2-4 2v3h4l-4 3v2h4l-1 3-6-1V75zM1279 75c2 1 1 4-1 4-1-1 0-3 1-4zM939 76c2 1 1 1 0 2v-2zM1122 76c3 0 2 4 2 6l-2 1v-7zM1388 76l4 2 3-2-1 5c-2-2-5-2-6-5zM1196 76c4 3 7 7 12 9 9 1 18-1 27-1v3h-17c-3 0-7 0-10 2 1 4 4 7 4 11 0-3 1-7 4-8l2 7c1-3 1-6 4-7 0 5 1 12-5 13l-2-6-2 6h-2l-3-4 1 19h-2l-1-4-1 4 3 1 1 17 27-9v3l-6 2v17c0 3 0 7-2 10l-9 10-10 11 14-2c4-1 7-3 11-3 3-1 3 4 3 6-3 2-6 1-9 2-10 2-20 3-28 9l1-4h-5v-5l11-5 14-15c3-3 6-6 6-10l1-20c-6 2-13 2-17 6l4 1v5h-5v-6l-14 5 1-2 8-4c2-4 1-8 1-12h-10v-2h10l-3-5-2 4c-1-1-3-1-2-3v-14h4v7c3-2 3-6 3-10l-6-1c-3-3-2-7-1-11h5v-5h-8c1-3 4-3 6-3l-6-6v-3m5 19v7c4-1 4-6 0-7m2 89v4h4l-1-5-3 1zM940 79c1 0 2-2 4-1v3l-4-2zM1075 79c-2 0-2 0-1-1l1 1zM935 83c1-2 5-3 5 0h-5zM942 83c3-1 0 3 0 0zM1149 84h4v5c-2-1-6-2-4-5zM934 87c2-2 4-2 7-2v5c-3 0-6 0-7-3zM942 85c2 1 4 2 3 4 1 2-2 1-3 2l1-3-1-3zM963 85c2-1 3 3 1 3-2 1-3-2-1-3zM1461 87h7v4l-4-3v9c1-1 2-3 4-3 0 2 1 4-1 5-3 2-7-1-7-4l1-8zM1471 87c2-1 2 1 3 3l3 1v9c-4-1-2-5-3-8h-2c2 3 2 6-1 7V87z"/>
    <path d="M1224 88c2-1 3 3 1 3-2 1-2-3-1-3zM1353 92c0-2 1-6 4-4v10c-3-1-3-3-3-5l-1 3c-2-1-3-2-3-4h3zM1493 90l2-3c1 1 3 2 2 4v9c-4 0-4-5-4-8-4 1-2 5-4 8-2-3-1-7-1-10h5zM1148 89l3 2 2-1v5l2 1c-2 3-4 5-7 6-1-2-4-4-3-7l4 4c2 0 2-2 3-3l-2-2 1-2h-3v-3zM1325 89l5 5c1 3-1 6-2 8 2 2 6 2 5 5l-2 1v-3l-1 2h-4c-1-4 1-8 2-11l-3-7zM1498 96c-1-3 1-6 4-7l4 3c0 3-1 6-3 8l-5-4m4-2c-2 1-1 4 1 3 1 0 1-3-1-3zM1508 90l5-1-2 5-1 5c-2 1-3-1-3-3l1-6zM1003 95l4-5 1 6-5-1zM1009 91l4-1-2 6-2 1v-6zM1063 91h3l-1 4-2-4zM999 96c0-2 0-4 2-5l1 6-3-1zM1390 91c3 0 7 0 7 4l-4-1 4 4-5 1c-2 0-1-2 0-3l-2-5zM1480 94l6-4v9h-7v-4l1-1m1 1c0 2 0 2 2 2 0-2 0-2-2-2zM1021 93l2-1 1 4-3 1v-4zM1027 93l3-1 1 4c2-1 3-3 5-3l-2 6c-2-1-3-3-5-3h-5a379 379 0 0 1 2-1l1-2zM1254 92c3-2 3 3 4 5h-6l-1-4 4 4-1-5zM1316 93l1-1 2 7-3 1v-7z"/>
    <path d="M1320 93c2-2 4-1 5 0 1 2 0 5-1 7h-4v-3c0-1-2-4 0-4zM1037 99c0-2-1-5 2-6 0 2 0 5-2 6zM1224 93h2v12c-2 0-2-1-2-2V93zM1228 93h5c1 4 3 10-1 13V96h-2c0 3 2 8-2 10V93zM800 98c2 0 2 3 0 3s-1-3 0-3zM888 99l18-1h1v2l-15 2c-9 1-19 0-28 2l-20 10v-2l12-7c4-2 7-4 11-4 7-1 14 0 21-2zM1254 99l4-1-1 7c2 3-2 5-4 6 2-3 1-6-1-9l3 1-1-4zM1314 98h1l-1 2v-2zM803 99c2-1 3 2 2 3-2 1-3-2-2-3zM966 99h13c0 3-2 3-5 4v12c-1 0-3 1-4-1v-11l-4-4zM1018 98c1 1 4 1 4 3l-1 14-3-8v-9zM1391 104c0-2 2-4 4-4l-1 2h3v4l-6-2zM939 102c2-2 4-1 6 0v4l-3-1 3-2-6-1zM1464 102c2-1 4 1 5 3v8c-1 2-3 3-5 3-3-1-4-4-4-7 1-2 1-6 4-7m0 11c4-1 2-6 2-8-4 1-1 6-2 8zM1479 107c1-2 1-5 3-5v6l5-2-1 4 1 5c-2 1-3-1-5-3 0 1 0 5-2 3l-1-8v8c-3 0-7 2-8-1l1-7c2-3 5-1 7 0zM799 106c1-1 2-3 4-3l2 4-3-2v3l-3-2zM979 107c0-3 4-5 6-3 2 1 4 2 4 4 0 3-5 2-7 3l1 2 4-3v5h-6c-3-1-2-5-2-8m4-1c-1 3 3 1 0 0zM990 104h10v2l-1 9h-3a668 668 0 0 1-2 0h-3l-1-11zM1024 111c-1-4 0-7 4-8 3 1 5 3 6 5-2 2-4 2-7 2v3l4-2c2 0 1 3 1 4-3 1-9 1-8-4m3-5c0 2 0 2 2 2 0-2 0-2-2-2zM1143 107c0-1 0-3 2-3l2 6-3-2-4 4 4-1-5 6-3-6 3-2 1-3 3 1zM1288 105c0-2 3-1 4 0v1c-1 0-4 1-4-1z"/>
    <path d="M873 112c0-6 12-6 10 1l-5-3c-1 4 3 5 5 7 1 3 0 7-3 7-2 0-6 1-7-2-1-2 0-3 1-4 2 0 3 2 4 3h2c-1-4-7-4-7-9zM940 107h5l-2 3h3c-1 3-4 2-6 1v-4zM1266 110c0-2 2-2 3-3l2 3h-5zM800 113c0-1-2-5 1-4l1 3 3-1v10l-2-2-3 4-1-5c2-1 5-1 4-4l-4 2 1-3zM862 109l5 2v3l-4 1-1-6zM1170 108l4 1v9l-1 6h-3v-16zM1326 109l7 1-1 4-2-3-1 3 4 2a532 532 0 0 0-7-7zM765 110h2l2 3c1 0 3 0 3 2-3 1-6-3-7-5zM897 113l6-1 3 1v11h-3c-1-3 0-7-2-9v8l-4 1v-11zM1254 112c1-1 4 0 3 2-1 1-4 0-3-2zM761 113l6 1 3 4-1 4-7-4c-2-1-1-3-1-5m2 2l3 5 3-2-6-3zM886 116c-1-4 6-5 8-2v10c-3 0-8 1-9-3s4-4 6-6l-5 1m3 3c-1 1 0 4 2 3 1-1 0-4-2-3zM939 114c3-1 6-1 8 1l-2 7-2-3-2-2-2-3zM1067 118l4-4-1 7-3-3zM1256 115l3 1c-1 2-1 5-3 7l1 1h-3c0-3 0-6 2-9zM845 117l3-1a412 412 0 0 0 0 6l-3-4v-1zM1353 116l6 4-2 2 2 6c-3 3-8 1-8-3l5 3 1-4-5-3 1-5zM1072 122c0-2 0-5 2-5 2-1 3 1 4 2-2 2-3 3-6 3zM1431 117l4 2v10h-5l1-4-1-3 1-1v-4zM981 125c1-3 2-7 6-7 3-1 8 3 5 6l-5-4-1 5c3 0 7 0 10-2h4v4l-2 7h-4v-7h-8v5l5-4c2 0 2 3 1 4-1 2-4 3-6 2-3-1-4-4-5-6h-16v-3h16z"/>
    <path d="M994 118l5 1c0 2-3 3-5 2v-3zM1080 118l5 2v4l-1-2h-7l3-4zM940 126c0-2-1-6 2-8l-1 3 5 2-4 1c1 2 5 2 4 4l-6-2zM1162 119c2-1 2 4 0 4v-4zM1326 123l2-5 2 4 4 1c1 2-1 4-2 5l2 5-10-5c-1-2 1-3 3-2l2 3v-2c2-1 2-3 1-4h-4zM1438 119c3 1 2 5 2 7l-2 3v-10zM908 129c2-3 3-6 3-10l1 27v34l-2-1v-15l-36 3v12h-2c-2-4 0-9-2-13l-25 2v-2l33-3 32-1v-17c-3-4-2-9-1-14l-1-2zM798 124h6v4c-2-1-5-1-6-4zM1118 132l10-9-2 5 6 1-8 2-1 10c-1 3 0 7-2 10-1-6 0-12 1-17l-16 1v-3h9l-5-2v-5h3l1 3 5-2-1 6zM1212 125l4-1 1 5h-5v-4zM1252 125c1-1 4 0 3 2-1 1-4 0-3-2zM867 128c4-3 11 0 9 5-2 0-4-1-5-3-3 2-2 6-2 9 0 1 2 3 3 2l-1-6 5 1c0 3 2 6-1 8-3 1-6 1-9-1-2-5-3-11 1-15z"/>
    <path d="M891 127l2 1v4l5 1v10c-2 2-5 1-8 1 0-6-2-12 1-17m2 14l2 1v-7c-3 1-2 4-2 6zM1155 128c6-2 13-1 19-1v2l-19-1zM1287 128l1-1c3 1 5 2 6 5-3 0-5-2-7-4zM939 129c2-1 5-1 7 1v4l1 5-3-2-2 2 5 2c0 2-2 4-3 5l2 2-5 2v-3h-2l1 4h-3c0-2 0-5 2-6l4 1-4-5 2-2-1-5a438 438 0 0 0 4 0l-5-5m3 12c-1 2 1 4 2 3 2-2 0-4-2-3zM1071 131c1-2 3-1 5-1v20c0 2-4 3-4 1l-1-13v-7zM752 131l5 7-5-5v-2zM880 132c3 0 6-1 7 2 2 3 1 7 0 10h-7c-3-2-1-5 0-7l-1-3 1-2m2 2l-1 1c1 4 5-1 1-1m0 5c-2 0-1 3 1 3s1-4-1-3zM901 132h6l-2 5v7l-4-1v-11zM1373 134v4a693 693 0 0 0-4-2l4-2zM1353 136h4l1 4h-5v-4zM1202 149l6-6v3c-3 1-3 4-5 6-3 0-4-3-5-5l4 2zM1473 146l5-1-2 7-1-2-4 3 2-7zM1438 149l5-3-1 7c-1-1-4-2-4-4zM768 163c1-6 2-12 5-17 1 1 4 1 4 3l3 15c-2 0-3-2-4-4h-4l-1 3h-3m5-11v5c3 0 2-4 0-5zM782 151l2-5 2 4-1 13h-2c-2-4-1-8-1-12zM788 147h3v5h5v11h-3c-1-3 1-7-2-9v9h-3v-16zM1206 149c2-1 2 0 2 2-2 0-2 0-2-2zM944 150c2-1 3 2 1 2-1 1-3-2-1-2zM845 155c1-4 7-5 9-1v9l-9-1v-4l5-3h-5m3 4c0 1 1 3 3 3v-3h-3zM1168 156l6-4v3l-6 1zM1165 156h3c-3 2-7 4-10 4 1-2 5-3 7-4zM1171 161l3-3v2c-2 3-4 5-6 5l-1-3 4-1zM1019 164l2-4h4v6l-6-2zM1161 166l2-6 4 7a290 290 0 0 1-6-1zM1367 165l5-1v4l-5 1v-4zM980 169c0-1-1-3 1-4l1 3-2 1zM985 166l2-1 2 3 3-3 2 3c3 0 5 2 7 4l-5 4 2-4-2-1-2 3-3-4h-8l2-4zM1430 170l22 1 12 1c6-1 11 1 17 2v6l6 4 4-7h-9l1-1 14-4 4 1-9 6 1 3-2 3 12 7c6 2 13 1 19 3 5 0 10 1 14-1h2l1-1h2v6c-7 0-13 2-20 1l-13-1-11-4c-4-1-7-4-11-6l-8 1c-3-1-6-5-10-3-7 2-14 6-21 2-5-2-11-2-17-3v-5h14c3 2 6 4 9 4l12-3c5-1 10-1 14-3l-1-3c-6-2-13-3-20-2l1 8-2 1v-5l-2 2 1-6c-3-1-7-2-10 0l-2-1c-5-1-9 0-13-2l-1-1m47 12l-2 4 5 3 2-2v-4l-5-1zM1007 177c1-2 3-5 6-5l1 7-7-2zM1016 178v-4l1 3 9 2-5 5-2-3h3l-2-2-5 3 1-4z"/>
    <path d="M1448 180l4-6c1 2 2 5 1 8l-5-2zM1244 177l12-1v15l-6 8 6 4v2h-4c-2 4-4 9-7 12v-10l4-2v-4l-6 3 2-6c3-3 7-5 9-9l1-7-11 2v-7zM1460 176c2 0 2 0 2 2-2 0-2 0-2-2zM787 181c0-2 0-5 3-4l1 4h-4zM802 177c2-1 3 4 1 4s-2-3-1-4zM1445 177c1-1 4 3 2 4-2-1-3-2-2-4zM1498 177l2 1-4 7h-2c0-3 2-6 4-8zM781 179l4-1-1 4c-2 1-3-2-3-3zM1499 184c0-2 2-4 4-5l2 3-2 4-4-2zM797 180c3-1 1 4 0 0zM1506 182l3-1v3l4-2c-1 2-3 6-6 8l-1-8zM1523 184l4-2 2 3 1-2 4-1 2 2 2-1-1 7c-3 1-2-2-3-3h-2l1 3h-9l-1-4-2 4-2-2v3c-2 0-2-3-3-4v3l-6-2c2-1 3-4 6-5l2 3h4l-4-1 1-2 4 1m3 1c-1 1-1 1 1 2 1-2 0-2-1-2zM1263 183l3 3-3 8-2-1-1-5 2-1 1-4zM1273 184c2 1 4 0 5 2v4h-6l1-6zM1541 190c-3-1-2-5 0-7v7z"/>
    <path d="M1245 185l3 2-1 6-3-1 1-7zM940 194h3v16h-3c-2 1-4 0-5-1-2-3-1-7 0-10h5v-5m-2 6v8c2-2 3-6 0-8zM1155 195c2 0 3 2 3 4h-3v-4zM1256 202c-2-3-2-5 0-8v8zM1199 202c0-3 3-5 5-6l1 3-6 3zM983 197c4-1 0 5-1 1l1-1zM1327 206c1-3 1-7 4-8l1 8-3-1-2 1z"/>
    <path d="M1203 201c3 0 4 3 5 6h2l4 4-2 3c2-1 5 0 7 1l-2 3 2 2 1-3 3 3c5-4 8-11 14-15 0 2 0 5-2 6l-10 11c3 3 9 6 5 10l-6-4 1-3-5 2 11 12 5 3 1 5-4 4-1 6c-1 5-2 10-1 14l5 1 1 4-6-1c-3 13-2 25-3 38 0 3-2 5-3 7l9 7c2 1 2 3 2 5l-13-9-8 15c-4 5-7 10-6 16l-4 5 3 2h-5l2-5-5-2 4-1c-2-2-4-3-3-5l4 4 4-9v-10l2 8 10-19c-5-3-11-5-15-9l-10-9v-2l12 10c4 4 9 5 13 7l4-5v-15l2-24c-4-6-9-10-14-15s-10-9-13-14c2 0 4 2 6 4l21 20 2-15 3-9-3-6a777 777 0 0 1-34-37l2 1 22 22 1-4-2 1-3-6 1-2-3 1c-3-2-3-5-3-8l-2 2-4-3v-3l-1-3zM1287 201c1 1 3 2 4 1h10l-2 4-5-3-4 3-2-1v1l-4-1 3-4z"/>
    <path d="M1221 203c3-1 0 3 0 0zM1333 205c1-2 2-2 4-2l-1 3-3-1zM1226 204h5l-1 6-4-1v-5zM1529 208l5-2 1 5-6 1v-4zM1323 209h19v3h-19v-3zM1388 211c4-1 7 2 10 3 3 2 6 4 10 4v1c-8 2-14-4-20-8zM1254 211l2 2v5h-5l1 3-5 8c4-1 6-5 9-8v3l-11 15 1-17 7-8 1-3zM1107 211c2 5 0 10-1 14v-7l1-7zM1536 214l5 3v6l-4-4-1-5m2 3c-1 1 1 3 2 3 1-1-1-3-2-3zM1325 215h3l2 11 2-9c0-2 3-2 4-3l2 11 3-1-2 10c-3-3-4-8-5-12l-3 11-3-3-3-15zM1268 225l-3-9c3 2 7 6 3 9zM1366 221l3-4 3 4-1 5 2 6c-2 1-5 0-6-2l-1-9zM1350 220c1 0 3 0 4 2v9l-4 2c0-3 2-5 1-8v-2l-2-1v-1l1-1zM1358 220c3 0 6 0 7 3-2 1-3 0-5-1l-1 1 5 4 1 4c-2 0-4 2-6 1-1 0-4-2-2-3 1-2 3 0 4 1l1-2-6-3c0-2 0-4 2-5zM1203 225l6-3v6l3 1-4 2-5-6zM1536 222c2-1 4 1 3 3-2 1-4-1-3-3zM1264 223c2 1 3 5 0 3v-3z"/>
    <path d="M1534 227l-1-5 4 4-1 5-6-1c-2-2-1-4 0-6l4 3z"/>
    <path d="M1536 230l5-6v6h-5zM815 230c0-3 3-4 5-5v14c-3-2-6-5-5-9zM1503 230c-1-3 3-2 2 0h-2zM1510 230c-1-2 3-2 2 0h-2zM845 229l9 1c-1 5-2 10-6 14-1-5 0-10-3-15zM888 230a320 320 0 0 1 7 1l-1 3-4-2 5 6-1 5-7-1v-4l5 2-5-5 1-5zM911 230v-1l1 10v13l-2-7 1-15zM1430 231c5 4 10 5 15 7 5 3 11 1 15 3 7 3 9 10 11 16 9-4 18-8 27-14l-1 2c-8 6-16 11-25 14 3 3 7 5 8 10l4 10c3 6 3 12 5 18l9-6-1 4-6 3c5 4 10 7 14 12 6 6 11 15 14 23l10-19 5-13 3-1-2 5 5 2 1-4-2-3 10 1v7l-7-1c-6 5-9 13-13 20-2 4-4 8-4 13l-2 2c7-6 12-15 18-22 3-4 3-11 8-12v3c-5 10-12 19-18 28l-6 6 5 6c3 4 8 6 12 10h-4c-6-3-10-9-15-14-6 4-9 9-13 14h-3l13-16c-4-3-10 0-14 2l-8 5 1 9c-4 0-7 0-9-3l-3 3h-11l10-9 6-4 13-6c3-2 7-3 10-6 2-2 0-5 0-7l-11-18-14-10-5 10c-2 2-5 5-5 8l-3 9-7 16-5 17h-3l4-14 6-14 6-15c-9 5-19 9-28 16l-9 7-9 5c2-6 9-7 13-11 8-7 17-11 26-16 7-3 13-10 15-17v-6l-4-17c-2-4-3-9-7-14l-6-5-13 10-22 8v13l-4-1v-13l18-7c8-2 14-6 19-12 0-4-1-8-4-11-3-5-8-5-13-6-7-1-14-2-20-7v-3m86 108l3 4 3-4-3-4c-1 1-3 2-3 4m-27 14c0 2 2 3 3 4l4-3-4-5-3 4zM1199 238c0-2-1-4 1-5l3 4-4 1zM1035 246c0-4-1-9 1-13l2 4 4 2v7h-3l-1-7-1 8-2-1zM1029 245c-1-4-1-8 2-11 1 2 3 3 2 5v8l-4-2zM1493 240l2-5 2 2-2 3h-2zM942 236c3-1 1 3 0 3-2-1-1-3 0-3zM1328 237c3-3 9 0 7 4-2 1-3-2-6-2l1 11c2-1 3-4 5-3 0 1 1 4-1 5-3 3-8 0-9-4 0-4-1-9 3-11zM1359 236h3v3h-3v-3zM1024 244l2-7c2 2 1 6 1 9h-3v-2zM1204 238l4 4c-1 1-2 2-4 1l-2-1 2-4z"/>
    <path d="M1491 238c2 1 0 5-1 4s0-3 1-4zM1056 239l6 1-3 1 2 3-7-1 2-4zM1245 240h10v3l-10-1v-2zM897 240c3-2 4 3 1 3-2 0-2-2-1-3zM937 240c3-2 1 4 0 0zM955 240c1-1 3 1 3 2-1 1-3-1-3-2zM1266 240l10 1h44v3l-20-1h-34v-3zM1350 243c-1-1 0-2 2-2l1 6c1-2 1-7 5-6 0 5-1 9-4 12-4-1-4-6-4-10zM1360 241c2-1 3 0 3 2l-1 10-3-2 1-10zM1366 241h2v12l-2-1v-11zM1369 241h5v12l-3-1c0-4 0-8-2-11zM1377 241c2 0 6-1 8 1v11l-4-1h-3c-1-1-3-2-2-4s4-3 6-4l-1-2c-1 1-3 3-4 2v-3m3 6l-1 1c1 4 5-2 1-1zM1484 241c2-1 3 2 2 3-2 1-3-2-2-3zM1196 242l3 2c0 2-2 1-3 0v-2zM1432 242h5c-1 2-3 2-5 3l-1 4 1-7zM1482 242c3 0-1 3 0 0zM1487 242c1-1 3 2 2 3-2 1-3-2-2-3zM871 243c3-1 5 1 7 2-1 2-4 1-5 0 0 4 4 5 5 8l-5 4c-2 0-3-2-4-4l1-2 4 3 1-2-5-3c0-2-1-5 1-6zM953 248c0-1-1-4 1-4 2 1 0 3-1 4zM1211 247l4-3 2 2-2 6 4-3c1 3-2 4-3 5l-2-4h-2c0-1-2-2-1-3zM1472 250c0-2-2-5 1-6l2 7c-2 1-2 1-3-1zM1440 245c2-1 3 2 1 3-2 0-2-3-1-3zM782 246c2 0 6-1 8 1v11c-3-1-7 1-9-2-1-2 0-4 2-5l4-3-5 1v-3m2 8l3 1v-3l-3 2zM1443 250c-3-1 1-3 2-4l3 1 3-1 1 4c2 1 4 1 3 3l-7-4c-2 0-3 2-5 1zM1455 251c-1-3 1-4 3-5-1 2-1 4-3 5zM880 247h5c1 3 2 5 1 8l-5 2c-2-3-1-7-1-10m2 3c-1 1-1 3 1 4 1-1 1-4-1-4zM888 247h6c0 3 3 8-1 10-1-3 0-7-3-8 0 3 1 6-1 8-2-3-2-6-1-10zM968 247h4c0 3-3 3-4 0zM979 250c1-2 5-2 7-2 1 3-2 3-4 4l4 2-3 3 3 2 1 5-3-2c-2 0-4 0-4-2l-1-10zM988 248h3v12l-3 2v-14zM997 250l3-3v14l-3 1v-12zM1279 248c1 0 3 0 3 2l-1 10h-6v-8l3-1 1-3m-2 11c2 0 2-3 2-5-3 0-1 4-2 5zM1408 251c-3 1-3-4 0-3v3zM1168 250c1-1 3-2 3 0 1 5-1 10 3 14v2l-6-1v-15zM1246 248l2 1-1 11-2 2c-1-5 0-9 1-14zM1029 260c-1-4-1-8 2-11l2 4v9l-4-2zM1250 253c1-2 3-1 5-1v8l-6 1 1-8m1 4c-1 1 2 3 3 1 0-1-2-2-3-1zM1268 252c2-1 4-1 5 1v7l-3 1a455 455 0 0 1-2-9zM1400 250c2 2 2 5 3 7l3 2h-4c-2-2-2-5-2-9zM1024 252h3v10l-2-1-1-6v-3zM1034 255c1-3 4-4 6-2 3 1 2 4 1 7 0 2-3 2-5 2-1-2-3-4-2-7m4 2v0zM1283 253l8-1v8l-7 1v-6l-1-2zM1394 254l1-1 2 6 2 2-4 2-1-9zM817 258c-1-1-3-3-3-5l6 3v3l-2 2-2 6v2l-3-1v-5-2l-1-3 5 1v-1zM1391 255c3 1 1 6 2 8-3-2-2-6-2-8zM1387 256c3 2 2 6 3 9-3-2-3-6-3-9zM908 260l4-4c0 3 1 7-1 10-1 3-3 7-2 11 0 2 2 3 3 5v9c-6-1-12 1-18 1-10 0-20 3-30 4l-20 3v-7c16-1 31-4 47-6 6-1 14 2 18-4l-2-5c-1-3 1-5 1-8v-9zM845 261c2-4 11-3 9 2l-4-2c-2 3-1 6 0 9l2-1-2-4h4v7c-2 0-5 1-7-1-3-2-3-6-2-10zM865 259c2-1 3 1 3 3l3 1v9h-6v-13m2 7c-1 1 0 4 2 3 1-1 0-4-2-3z"/>
    <path d="M880 263c0-2-1-4 2-4v13c-5 0-3-5-3-8-2 2-2 5-3 7h-3c-1-3 0-6 1-8h6zM892 261c-1-1 2-4 2-2 2 4 1 9 1 13h-3v-11zM1054 259c2-1 3 2 4 3l-2 2-2-5zM1382 258l4 4-1 5c-3-2-3-6-3-9zM886 262c4 0 5 4 4 7 1 4-6 4-7 1 0-3 0-7 3-8m0 6c-1 2 2 3 2 1 2-1-1-2-2-1zM1147 262l17 14 4 1-1-7c0-2 3-2 5-2 2-1 2 2 2 4h-3v3h3v3h-3l2 6h-5c0-5-5-7-8-10l-13-9v-3zM1373 262c2 0 2 0 2 2-2 1-2 0-2-2zM857 263h5c1 3 2 6 1 9h-6c-3-2 0-6 0-9m1 5c-1 1 2 3 2 1 1-1-1-2-2-1z"/>
    <path d="M1371 271c-1-3-1-6 1-8l1 4 2-1-2 4 1 3c-1 0-3 0-3-2zM1054 265c2 0 3 0 2 2-2 0-2 0-2-2zM1048 267l4-1 2 5c-3 1-5-2-6-4zM1365 266c1-1 4 0 3 2-1 1-4 0-3-2z"/>
    <path d="M1363 269c0-3 2 0 2 1h4l1 4-3 2v-3c-1-1-4-2-4-4zM1467 269l3 1c1 0 4-2 4 0l-4 3c-2 0-2-3-3-4zM943 270h6c-1 3-6 3-6 0zM1044 270c3 1 5 3 6 6-3 0-5-3-6-6zM1210 272l3-2 1 4c-1 3-1 7 1 10-2 3-3 0-5-1v-11zM1354 274c0-3 4-4 7-4 1 2 2 5 1 7 0 2-2 2-3 2l1-5-2-3c-2 3-2 6-1 9-3-1-4-4-3-6zM1126 271h3v8c2-2 3-5 3-8h3l2 7 2-7h1c1 4 0 8-1 12l-2 2c-2-3-3-5-3-8l-3 7c-5-2-4-8-5-13zM810 272l4 1-3 12c-4 0-8-3-7-7h3l-1 3 4 2-1-3 2-2-3-1 2-5zM1204 273l2-1c2 3 2 7 3 10 0 2-2 4-4 3v-9c-3 2-1 6-2 9-1 0-3 0-3-2 1-3-1-7 1-10h3zM1219 272c3 0 4 2 5 4l-1 9c-2 0-6 1-7-2 0-4-1-9 3-11m0 7c-1 1-1 4 1 4s2-5-1-4zM1070 273c3 0 0 4-1 2-1-1 0-2 1-2zM1351 274h2l1 8-4 2 1-10zM1196 273c3 3 3 6 3 10l-3 2v-12zM1244 275l11 1v2h-11v-3zM1387 276c0-2 2-3 3-1 2 2 1 5 2 8l1-1 2-8h4l2 10c2-3 2-7 3-10h3c0 6-3 11-4 17h-3c-1-4-1-7-3-10l-2 9c-1 2-4 1-5-1-1-4-1-9-3-13zM1470 274h4l-4 3v-3zM766 277c2-3 7-1 10-2-2 4-7 2-10 2zM889 275l2 1c-1 3-2 7-5 7l3-8zM1449 279c1-1 2-3 4-3l2 4c-2 3-1 7 0 10-1 2-5 0-5-2l-1-9zM891 278c3-2 3 2 2 4-2 1-2-3-2-4zM866 282c1-1 1-3 3-3l1 7-2-2-3 4-4-2-2 2-2-4v4l-13 2v-9l4 4 1-4 5 2 1 5v-8l3 3 2-4 2 4 3-3-1 3 2-1zM1436 280c2-2 4-1 6-1 1 3-1 7 2 9l1-9h3l-1 12c-3 0-7 0-10-2-2-2-1-6-1-9zM1143 281c2 0 2 2 1 3-2 0-2-2-1-3zM1332 287c-2 0-2-4 0-3v3zM1126 287c3 0 6-1 8 1 1 3-2 6-5 6 0 3 0 5-3 5v-12m3 2c-1 1 0 4 2 3 1-1 0-4-2-3zM1161 292l1-4c1 0 3 1 2 2v10c-4-1-3-5-3-8zM1321 289l5-1-3 4c2 0 6 0 5 3-1 2-4 4-6 2l4-2c-3-1-6-2-5-6zM1330 288l2 1-1 6-1-7z"/>
    <path d="M1397 294l11-5v3c-9 4-18 8-28 9-8 1-14 7-19 13l2 5h7l1 10c1 4 4 5 7 7l-2 1 2 4c-1 2-5 3-5 6v14h-2v-18h-4c-1-5 0-10 1-15h-4l-1-6-6-5 1 2c1 2 4 3 4 6-1 3-4 4-7 3l-2-4 6 1-5-5 1-6-6 1v-9l2-1-1 8c3 0 7 0 10-2 5-4 9-9 15-11 8-2 15-3 22-6m-31 26c0 2 0 2 2 2 0-2 0-2-2-2m3 17c-1 1 0 4 2 3 1-1 0-4-2-3m4 2c-1 1 1 3 2 3 1-1-1-3-2-3zM1140 290c3 2 1 6 1 9-2 0-5 1-6-1v-7h3v6c2-2 1-5 2-7zM1144 292c1-2 5-3 7-1l-1 7-5 1c-2-2-2-5-1-7m3 3c-1 2 0 2 2 2 0-2 0-2-2-2zM1153 291c2 0 5-2 6 0v8c-3-1-2-4-3-7-1 2-2 3-1 5l-2 2v-8z"/>
    <path d="M1166 291c3-1 6-1 8 1v4l-7 7c2 5 1 12-4 14v-7l-9 8-6 14c8 9 17 17 26 23v7l-2-1c-9-6-17-14-25-22-2 5-5 9-6 14l4 8h-3l-2-10c0-5 3-8 4-13l-15-14c-5-5-10-11-17-13l-6-2v-5c7 2 14 3 20 8l21 19c1-6 4-12 8-17-2-3-2-7-1-10l7 2 6-5-1-10m3 6c3 0 1-3 2-5-2 1-2 3-2 5m-13 9c0 2 0 2 2 2 0-2 0-2-2-2zM1375 290c2 0 2 3 1 4-2 0-3-3-1-4zM1476 290h4l1 5-6-1 1-4zM935 291c3 0-1 3 0 0zM1309 294l19 17v2l-15-11-4-8zM992 302l8-5v2c-3 1-5 3-8 3zM1293 299a2004 2004 0 0 0 7 1l-3 5-4-6z"/>
    <path d="M1126 301h2l2 8c2-3 1-9 5-8l-3 11-2 2c-4-3-4-9-4-13zM1145 314c0-4-2-10 1-14 2 3 2 7 1 11 1 1-1 2-2 3zM1149 301h3c0 4 1 9-1 13l-2-2v-11zM1137 307c0-3 3-3 5-2 2 2 1 5 1 8h-5c-3-1-2-4-1-6zM1353 305c2 1 2 1 1 3-1-1-2-1-1-3zM1298 310c2-1 5-3 6 0 3 2-1 8-4 5-2-1-2-3-2-5zM1063 311c2-1 4 1 2 3-1 1-3-2-2-3zM1232 312h4v7h-4v-7zM1059 314c3 0 3 3 4 5l-4-5zM773 315h12c0 4-4 2-6 3-2 0-3 4-1 4l5 1 1 2-6 2c-2 2 0 4 0 6 3 0 7-2 7 2l-12 1v-21zM1308 319c0-4 6-6 8-3 2 4-3 3-5 2l6 5c0 3-2 6-5 5-3 0-4-2-4-4 2-1 3 1 5 2 0-4-4-4-5-7zM867 319l4-4 2 5c-1 3-1 7 1 10-2 1-4 0-6-1 1-3 0-7-1-10zM898 320c2-2 5-1 7-1v3l-4 9-3-2v-9m3 1c-1 1 0 4 2 3 1-1 0-4-2-3zM1319 328v-10c2 1 4 0 6 2 1 3 0 6-1 8h-5m3-2v-6c-2 2-2 5 0 6zM1372 319h7v9h-2c0-2 1-6-2-8v9c-4-2-3-7-3-10zM961 321c3 1 5 3 7 6 0 3-3-1-4-1l3 4c-4 1-5-3-5-6l-1-3zM934 330c3-3 6-6 10-7l-8 7h-2zM1051 325c2 1 2 1 1 2-2 0-2 0-1-2zM960 329l5 5c-2 1-5 0-7-2l3-1-1-2zM1048 329c3-1 4 1 5 3l-4-1-1 2v-4zM1287 329c2 0 2 2 1 3-2 0-2-2-1-3zM1352 336l4-7v14c-2 0-3-4-4-5l-2 6-1-14 3 6zM1358 333c0-2 1-2 3-3v3h-3zM1363 330c3 4 2 9 1 14l-1-1v-13zM788 331c3 0 3 3 3 5h-3v-5zM955 331c3 2 6 4 7 8l-7-7v-1zM1226 331c2 1 0 4-2 3l2-3zM1313 342l1-12c3 2 3 5 2 8 0 2 0 4-2 5l-4 1c-1-2-3-4 0-5l3 3zM1289 332l2 1c-1 3-3 5-3 8-2-2-5-4-5-7l6 1v-3zM1245 333l10 7v3c-4-2-11-4-10-10zM1319 336c1-3 4-1 6 0l-1 8-5-1c-1-2-2-5 0-7m2 0c-1 2-1 4 1 6l-1-6zM953 339c-2-1-1-5 2-4l6 5-2 5c-3-2-5-3-6-6m1-2c0 2 0 2 2 2 0-2 0-2-2-2m3 2c-1 1 0 4 2 3 1-1-1-4-2-3zM987 361c3-9 6-19 13-27v12l-6 15h-7zM1204 335l4 2v4l-4 1c-2-2-2-5 0-7m0 2c-1 1 0 4 2 3 1-1 0-4-2-3zM1358 334l3 1v8h-3v-9zM1038 336c2 1 4 2 4 5-2-1-4-2-4-5zM773 342l4-1v13l-4-5v-7zM1217 342c2 0 2 0 2 2-2 0-2 0-2-2zM786 350c2-4 10-3 11 1s2 10-3 12l-8-4v-9m4 0v8c0 2 1 2 3 2l-1-9-2-1zM799 353c-1-4 4-6 7-6 2 1 5 2 4 5-2 1-4-1-6-2 0 3 4 4 6 6 1 2 1 6-2 6h-7l-2-4c3-1 5 0 7 3l1-3-8-5zM838 348c4 0 9-2 12 2l-1 11c1 2-3 4-4 1l-1-10-2-1v12c-1 1-3 0-4-1l-1-10-2-1 3-3zM852 349c3-3 8-1 12-1v16c-2 0-4 3-5 1l-1-3-1 3c0 3-4 2-6 2l3-4c-3-4-3-9-2-14m4 2c0 3-1 7 2 9 2-3 2-7 0-10l-2 1zM868 348c3-2 7-1 9 1l1 7h-8l1 5-4 2c-1-5-3-11 1-15m2 5h4l-2-4-2 4zM951 352l5-5-1 3h2l6 4v4c-2-2-3-4-6-4l-2-1-1 2c-1-1-3-1-3-3zM1278 346c4 1 9 2 11 5l-10-2-1-3zM1211 354c-2-2-1-6 2-6l-2 6zM1214 348c3 1 4 4 4 7l-3-1-1-6zM1218 348c1-1 2 2 1 2-1 1-2-1-1-2zM1198 352l2-3c0 3-1 6-4 7v-2l2-2zM1028 352c0-2 2-2 3-1 1 2-3 3-3 1zM964 354c2 1 5 1 6 4h-3l-3 2v-6z"/>
    <path d="M874 359c-1-2 2-3 2-1l-1 1h-1zM968 361l5-5 1 3-1 2h-5z"/>
  </g>
  <g fill="#fff">
    <path d="M102 53h92l1 1 4 8-2 4c-3 6-5 13-5 20l-4 18-3 20-3 15c-4 8-15 10-18 19-3 6 2 11 4 16l-10 7c4-1 7-3 11-6 4 7 8 15 15 19-4-7-10-12-14-20l11-10 11-7c3-4 6-9 10-12h6v28c1 5-4 7-8 9l3 2v-3l5-3v133l-4 1h-40l-13 1-9 1v-93l3 2-3-4v-10l2-1h-2v-34c4 1 6 6 10 7-4-2-6-6-10-7v-58h-23l-17-1v-2h2-2V53m10 13v14l7 1 3-4-3-3c1-3 2-5 1-8h-8m53 0l-1 15h3v-8l2-2a493 493 0 0 0 2 14c2 0 4-2 4-4l3-11-2 1-1 4-2 3-1-6-1-2-4 1v-6l-2 1m-41 6v8c2 1 4 2 7 1 2-1 3-3 0-4l-3 3-1-4h6c1-3-2-6-5-7l-4 3m10-1l3 10 3 1c2-4 4-8 4-12l-1-1c-3 2-3 7-5 9v-7h-4m12-1c-2 3-3 9 1 11 3 1 7 1 7-2 1-3 2-6-1-8-1-2-5-3-7-1m11 0v12h3v-8l3-5-6 1m-3 15v16l2 1V85h-2m-6 0v3h3c1-2-1-3-3-3m11 0l-1 16 4 1V87c-1-1-2-3-3-2m-25 1v14c1 1 1 2 3 1l1-7h3l1 7 3 1V85l-3 1-1 5-3 1v-5c-1-2-3-1-4-1m31 4l-2 3 6 4v3c-2-1-3-3-5-3l1 4c2 1 6 1 7-1 2-2 0-4-2-6l3-1c-2-3-5-4-8-3m-17 0v11h3V90h-3m-44 12c-2 3 3 0 0 0m1 7c-2 3 3 1 0 0m64 4l1 9 1 1 1 14 5 2 2-2h-4c-2-3 0-7-1-11l-3-4v-4l-2-3 4-5 4 2-3-3-5 4m7 0c2 5 1 10 4 14v3h2l-3-8c0-3 0-7-3-9m18 69l3 3c-2 1-3 3-3 5 3 0 3-3 4-5 1-3-3-2-4-3m-22 9l-2 6 3-2 1 3-3 1 2 2 3-4-4-6m-14 12c-1 3 1 6 3 8l6-5-1-2v3l-5-3 1 4-4-5 3-1-1-1-2 2m9-2l3 3v-3h-3m-18 10c-1 2 2 4 3 3 1-2-1-4-3-3m-4 4c0 2 0 2 2 2 0-2 0-2-2-2m29 9v3l3-1 2 2v-5l-5 1m18 7v1h7l2-1h-9m-18 16v4h5v-4h-5zM198 53h49v6l-11 1c-3-1-7-3-10-1-5 2-7 8-12 10-8-1-11-9-16-15v-1zM264 53h30l10 8c4 1 5 6 8 8s7 0 10 0l5 5h8l-7-9 2-4 5 5c3 4 5 9 5 14l2 8c2 3 6 4 8 6l4 7a13292 13292 0 0 1 6 2c1 4 5 5 8 7h3l2 3h12c4 1 8 3 9 7l-1 3 4 5c7 0 9 7 9 12h3c0 4 3 7 6 9v4c-1 9-2 18-6 27l-1-13 1-20-3-1c-1 4-1 8 1 11v27l-3 1 1 2c-5 6-14 9-23 10 4 3 9 4 13 6 12 6 21 18 21 32 2 6 1 12 1 19-1-1-1-2-2-1l-2 3c1 0 3-3 4-1v37l-6-3-6 4-20 2c-9 0-17 3-26 2-2 0-2-1-2-3l7-15v-5h3l-2-2 7-16v-4l-9 23-8 20-1-15v-46c0-5-2-11-7-13-5-3-11-2-17-2l1 46v35c-5 0-9 0-12-4v10l12-2v57h-26l1-12-1 12h-22c0-3 2-6 4-8l-3 2v-7l-3-1 1 4h-3l2 3-3-1 1 2 2 1v5h-17v-44-7c0-3-1-8 3-9 6 0 12 4 19 4h25l3 2-5 11c5-1 5-7 7-11l-2-9c-5 3-11 2-16 2-7 0-15 0-22-2l-1-2 10-6 1 4h2v-4l5-4c-3 1-7 1-10 3l-2-2c-4 1-6 4-8 6l4-1-3 4-3-1c-2 1-5 0-7-1 0-2-1-4 1-5l1-1-2-1 3-2c-1 1-2 2-3 1l-1-61v-41c2-11-1-21 1-32l1 2c2 4 1 10 6 10l4-17c-6 2-3 8-6 12l-3-11-3-1v-24l4 1h10l3 3c15-2 30 1 45-2 4 5-1 12 4 17v-16c-2-2-4-2-6-2-7 1-15 2-22 1h-20c-2-2-1-6-2-10-1-2-4-2-6-3l5 3v8h-13-2V88l2-1v5c1-4-3-8-2-12h3v-1h-3c1-8-1-17 1-26m0 21c0 3 3-1 0 0m4 12c-1 1 0 3 1 2 2 0 0-2-1-2m4 5c-2 3 3 1 0 0m-7 2l1 9c0 4 2 7 3 11l3-1-5-7V93h-2m8 2c-1 1 0 4 2 3 1-1 0-4-2-3m57 7c0 5 1 11-1 16 2 4 1 9 1 13v18l-1-3h-1l1 30-4-4c-3 0-6-1-7 2-2 5 1 9 5 12 1-3 4-5 4-8l2-1v7h6l3-4c1-3 0-6-1-8h-8l1-21c0 6-1 13 1 20l13-1h2c0 4-1 9 1 13v2h2l-1-17 3-6 1-14v-13c0-2 2-3 4-5h-4l1-5c2-1 5-2 5-5l-2-2c0 2 0 5-3 6l-1-7c0-4-1-9-5-11 1-1 3-2 5 0v-5h-1c0 2-2 5-4 2l1 2c-6-2-11-4-17-3l1-1-2 1m25 0v13l3-1c-2-3-2-8-2-12h-1m-68 14c0 2 0 2 2 2 0-2 0-3-2-2m33 0c0 2 0 2 2 2 0-2 0-2-2-2m6 0c-1 0-2 3 0 3s2-3 0-3m57 15c-1 3 3 0 0 0m-101 5l-1 3 3-1 2 2 1-4h-5m107 12c-1 3-4 6-1 8l1-5 2 5c2-1 2-3 1-5h1a2585 2585 0 0 1-1-3l-2 4-1-4m-92 5l2 10h4c-3-2-4-6-1-9l-2-5-3 4m12-4l5 5-5-5m7 1l2 4-3 1c0 2 3 1 5 1l-2-4 1-3-3 1m7-1c-1 1-1 4 1 3 1 0 1-3-1-3m-42 4l2 3-5 2 2-5c-5 2-4 7-2 10 3 1 6 1 7-3l-3 2c-3 1-4-1-4-3l7-1c0-3-2-5-4-5m11 0c-1 2 1 4 3 3 1-2-2-4-3-3m106 1c-1 0 0 3 2 2 1-1-1-4-2-2m-111 0v3l6 3c0 2-1 3-3 2l-2-2-1 3 8-1c0-3-3-5-5-6 0-1-1-2-3-2m22 0c-2 3 3 1 0 0m74 7v4l4-1 1-3h-5m-103 6l-1 16 3-1v-13c0-2-1-2-2-2m5 0l-1 16 3-1v-15h-2m5 5l2 13h-21l15 1h24l-15-1c0-4 4-8 3-13-3-1-3 4-4 6l-2-6h-2m10 0c1 3 0 8 3 11 3 0 4-5 5-7l3 8c4-4 5-8 4-13-3 2-3 5-3 8l-4-7c-3 0-2 4-4 7l-1-7h-3m-32 10c3 2 5 1 8 0 0-3 2-10-3-10v9h-2v-7l-1-2c-3 3-2 7-2 10m73-10v10c1 1 2 3 3 2v-4c-1-3 0-6 1-8h-4m35 17c0 2 0 2 2 2 0-2 0-2-2-2m5 2c-1 2 2 3 3 2 1-2-2-3-3-2m-58 4c-1 1 1 3 2 1 1-1-2-2-2-1m-46 18v4l4-4h-4m9 1l1 2-2 2h6v-4h-5m40 2v0m-54 9c-1 3 3 0 0 0m56 3c-1 3 4 0 0 0m53 1l-5 13v5c2-6 3-13 7-19l-2 1m26 0c0 2 0 2 2 2 0-2 0-2-2-2m-81 9h2v-7c-2 2-1 4-2 7m83-4v14l-1 2c1 5-1 11 2 15a152 152 0 0 0 0-17l-1-14m-36 15c-2 1 0 4 1 3s0-4-1-3m24 21c-2 3 3 1 0 0m-93 3l-1 1 5-1v-1l-4 1m-14 1c0 2 2 3 3 2l4-1 6-2c-4 0-8 2-13 1m38-1c-1 2 0 2 1 2 1-1 1-1-1-2m-1 4c-1 2-1 2 1 2 1-1 0-1-1-2m48 2c-1 1 0 4 2 3 1-1 0-4-2-3m-6 9h2l1-1 3 1v-5c-2 1-3 4-6 5m-101-4c0 2 1 4 3 5v-5h-3m5 6c1-1 5-3 2-5l-2 5m48 6c4 0 4-5 5-8-4 0-4 5-5 8m-21-7c-1 2 0 2 2 2 0-2 0-2-2-2m-30 1c0 2 0 2 2 2 1-2 0-3-2-2m30 22c-1 1 0 1 1 2 1-2 1-2-1-2m4-1c-2 3 3 0 0 0m-32 1c-1 1 0 4 1 3 2-1 1-4-1-3m5 2c-1 1 0 3 1 2 1 0 0-3-1-2m28 9c-1 2-3 5-1 7l5-11-4 4m-33-2c-1 3 3 1 0 0m5 7c2-2 1-5 1-7l-1 7m40-5c-2 1-2 4 0 4s2-4 0-4m-7 1c0 3 3-1 0 0m-21 13c0 3-2 6-4 9l2 1 2-4h3l-3-6m-24 1v2l4 3 1-3 1 3c-3 1-3 3-3 6l-3 6c2 2 5 2 7 2 0-2-3-4 0-5a782 782 0 0 1 1-9v-4c-2 1-5 0-8-1m27 7l1 3 2-5-3 2m4 0c0 1-1 3 1 4 1-1 1-5-1-4m-6 2c1 1 1 1 0 0m-18 7c-1 3 3 0 0 0m5 3c0 2 0 2 2 2 0-2 0-3-2-2z"/>
    <path d="M297 53h30l1 5c-2 2-3 5-3 7l5 5c1 1 3 5 0 3l-7-8-9 3-7-8-10-7zM328 53h4l11 14 5 15 3 10-6-2-3-7v-4c-2-10-8-18-14-26zM618 53h74l2 12-4 9 3-3 2-1c-1-5 2-11-1-16l39-1v8l-2-1 2 5-4 5c-2 2-5 1-7 2-5-1-9 2-14 3l-6-2 3 2c0 2-2 3-3 4-8 5-15 12-22 18v2l-2-1-15 7 1 1c-5-1-9 4-12 9-2 1-1 2 0 3l-2 1c-3 2-4 6-7 9-3 4-7 8-12 10-5 1-9 4-13 8v-5c8-4 16-10 20-18l11-19 7-10-8 8-10 17-8 12-12 9V53m64 5c0 2 0 3 2 2 0-2 0-2-2-2m7 1v3c2 0 2-3 0-3m29 2v9c2-2 3-7 0-9m4 1v7h4l-3-3v-3l-1-1m-37 5c-1 2 1 4 3 4 1-2-1-4-3-4m20 0c0 2 0 3 2 2 0-2 0-2-2-2m-9 3c1 2 3 3 5 3l-5-3m-21 5c-2 3 3 0 0 0m2 0c-1 1 0 4 2 3 1-1 0-4-2-3m6 5l1 1c2-2 5-3 5-6l-6 5m-12-2v3h2v-3h-2m-6 1c0 2 0 2 2 2 1-2 0-2-2-2m-7 2v7c3-2 2-4 0-6l2-2-2 1m4 1c-1 2 0 2 2 2 0-2 0-2-2-2m5 0c-1 1 0 4 2 3 1-1 0-4-2-3m-34 21l1 4 5 1v-5l-3 1-3-1zM340 53l9 1 3 7v-2c0-2-2-3-1-5h7l5 1v-1l8 2v4c-2 3-3 7-6 10 4 0 3-4 4-6l2-4v-4c12 2 23 8 31 18l-1 3 2-2 6 12 3 9-3 1-2 3c-2 7-1 14-1 22h-2l-10-10c-7-3-15-3-23-5-4-3-8-7-10-12l-6-8v-3l-2 1c1-2 2-5-1-6l1-4-3 2 1-6c-2-7-8-12-11-18m12 9l3 6-3-6m23 7v4h2v-4h-2m13 1c-1 0-1 3 1 2 1 0 1-3-1-2m-7 3c0 2 0 2 2 2 0-2 0-2-2-2m9 0c-1 2 1 4 3 4 0-2-1-5-3-4m-6 1v3l2-2 2 2-4-3m-6 15v-4c-2 1-2 3 0 4zM437 54h40c1 7 1 14 4 20l-2 2-7 2 10-2h2l6-6 4 4 7 10 2 3h-1l-10 11c-2 7 0 16-5 22-2 5-7 8-9 13 7-5 13-13 14-22 0-5 0-11 3-16l8-7v-1l1 3v79c-4-2-7-4-10-8-4-4-6-10-9-16l-8-12c-4-3-7-7-12-8 3 3 8 5 10 9l-9 7-15 4c0-7-2-14-1-21 0-3 4-1 6-1h2l7 2c-5-3-10-3-15-4l-1-27v-8l21-7-19 6-2-13c-3-6-8-10-12-14v-4m31 14l-4 4v3c3 1 2-2 2-3h1v4c3-2 1-5 1-8m-15 3v8c1 1 3-1 4-1 1-1-1-3-1-4 3-2-1-2-3-3m6 2l2 4c2-1 0-5-2-4m30 15c-1 1 1 3 2 3 1-1-1-3-2-3m-2 8c0 3 3-1 0 0m-3 5c0 1 0 2 1 1 0-2 0-2-1-1m0 2c0 2 0 2 2 2 1-2 0-2-2-2m16 1c-1 1 1 3 2 2s-1-3-2-2m-18 3c0 2 0 2 2 1 0-1 0-2-2-1m4 0c-1 0-1 4 1 3 1 0 1-4-1-3m8 0l4 2v2l2 1 1-5h-7m-11 4c0 2 2 3 4 3 0-2-2-4-4-3m1 6c0-2-2-3-3-5-1 3 1 4 3 5m-4 1c0 1 2 3 4 2 0-2-2-3-4-2z"/>
    <path d="M480 54h4l4 15-5 6c-3-7-1-14-3-21zM490 54h9v2c0-3 4-2 5-2v23c-3-3-7-6-7-11-3-4-1-7 1-10l-4 4-4-6zM537 54h41l-1 3c3-2 5-3 8-3-5 9-14 14-21 20l-3-1 1 3-7-1-2 2a142 142 0 0 1-16-23m31 2c1 3 2 6 5 7-1-3-2-6-5-7m5 1c-1 1 1 4 2 3s-1-3-2-3m-8 3c0 3 2 6 4 7 0-3-2-5-4-7m-4 4c0 1 2 4 3 3 1-2-1-4-3-3m0 4c0 2 1 4 3 4 1-2-1-4-3-4m3 0c0 3 3-2 0 0zM586 54l7 1c-2 1-5 1-7-1z"/>
    <path d="M594 54h2v97l-12-4c-11-7-20-17-29-27l-6-8 2-15c1-4 3-9 7-11l5 5 9 11c7 9 13 18 22 24l-8-9-11-12-15-21 20-16c5-3 8-10 14-11v-3zM528 61c-1-3 3-5 5-7l6 7 13 17-1 4c0 4-4 6-5 10l-3 15-15-13V61zM218 69l9-7c3-2 6 1 10 2 3-2 7-3 11-2v53l-18 1h-21v27c-3 0-7-2-9 1l-11 12c-3 3-7 4-9 7l-10 9c-3-4-6-8-4-14 3-8 12-9 17-16 3-7 4-15 5-23l4-26 4-20c1-4 4-6 6-9l6 7c3-1 7 0 10-2m-19 6c0 2 0 2 2 2 0-2 0-2-2-2m4 3c0 3 3-1 0 0m-7 2c0 2 0 2 2 2 1-2 0-2-2-2m1 15v3c2 0 2-3 0-3m1 6c0 1 2 3 3 2 0-1-2-3-3-2m-3 1c0 2 0 2 2 2 0-2 0-2-2-2m0 7l2 5c2 0 2-1 0-2l2-2-4-1m-3 15v6h1v-3l2-1-3-2m-3 6l2 4-2 1c2 1 4 2 6 1l-3-1 2-2-5-3m-1 12c-1 0-1 3 1 2 1 0 1-3-1-2m-4 2c0 2 0 2 2 2 1-2 0-2-2-2m-4 6c0 2 0 2 2 2 0-2 0-2-2-2m0 4c-1 2 2 3 3 2 1-2-2-3-3-2m-5 2c1 2 2 5 5 3l-5-3zM489 64l3-3 3 4-4 4-2-5zM437 62c7 4 12 13 12 21 0 3-4 3-6 4l-1 1h3c3 2 2 5 3 8v26h-7l2 1 5-1 1 20-3 3h3v22l-3 1c0-4 0-8-3-11l1 9-4 4 10 2v12l-3-1-5 1h8v28c3-3 2-6 2-9v-20l7 1-2-7c3 0 6 2 8 3l-3 4 5-2c3 1 5 4 8 4h7l6 3h2a293 293 0 0 0 11 4l3 1v15l-4 9-5 14c2-1 3-4 4-6l5-13v51l-6-2 2 3-3 6-3 3c-4 3-3 9-7 12l-6 1-3 2c-5-2-8-7-14-7 4 1 8 3 10 6l-4 2 2 2-12 1-6-5 1-4-1-18v-16c-1-1-2-3-1-4v-14l-1-3a173 173 0 0 0 2 30l-1 2v20l1 3a158 158 0 0 0-1 5c-5 3-11 3-16 2l-1-23 2 1c-1-1-2-3-1-4l1-1 1 2-1-2-2-1 1-121V89a503 503 0 0 1 0-1c-1-3 0-5 1-8-2-6-2-12-1-18m3 14c-1 1 0 4 2 3 1-1 0-4-2-3m0 72l-1 3h3c2 1 1 3 1 4l3-2-6-5m-2 8c0 3-1 8 2 9 1-3 1-7-2-9m59 41c0 2 0 3 2 2 1-1 0-2-2-2m-46 17l1 13c2-4 1-8 1-13h-2m40 4c0 2 0 2 2 2 0-2-1-2-2-2m-2 3c-2 1 0 4 2 3l-2-3m4 0v3c2 0 2-3 0-3m-7 9l5 2 1-5-6 3m1 3c0 2 0 2 2 2 0-2 0-2-2-2m-2 5c0 2 4 0 3-2-1 0-4 0-3 2m-1 7c0 3 3-1 0 0m-5 1c0 2 0 2 2 2 0-2 0-2-2-2m2 3l2 2 2-4-4 2m-11 5c-1 1 1 4 2 3s0-4-2-3m-7 1l3 6-3-6m-8 4l2-1 3-1c-1-2-3 1-5 2zM114 67c1 0 3-1 4 1 0 1 1 3-1 4l-3 1v-6zM713 80c8-1 14-6 20-11v21l1 26h-49v43c-6 3-8 10-11 15-1 2 1 3 2 3l9-15v11h43v18l-5 7 5-3v28l-11 7h-22l-1-2v2h-7v-2c-3 3-2 8-2 12l-31 1 3-10-5 10-18-1c-4 0-5-5-5-8 5-4 11-8 14-13-5 2-8 7-13 11l-2-2-4-26h16l-17-1-1-19c0-5-2-9-4-13v-16l10-7 13-7c4-3 8-7 10-11 2-5 5-10 9-14s9-6 14-8c3-2 8-3 11-6l9-8 1-2h-1l4-1c4-4 8-7 13-9 2 2 3 5 3 8l7 6-3 1c-1-1-2-3-4-2v4h10l-2-9 10 2c-1-3-5-3-8-4l-2-4h-8l-1-2m-9 9l3 1v-5l-3 4m-2-1v3c2 0 2-3 0-3m-3 3c0 2 0 2 2 2 0-2 0-2-2-2m3 2c-1 2 1 3 3 3 0-1-1-5-3-3m24 4h4l-2-3c-2 0-2 2-2 3m-34-1c1 2 1 5 3 6l-1-5 4 2-3-4-3 1m7-1c-1 2 1 4 3 3 1-2-1-4-3-3m-9 9l2-1-2-5c-2 2-1 4 0 6m-15 3c1 3 5 4 8 5-2-2-4-5-8-5m-2 4l2 4-5-2 5 8-2-6 5 3c-1-3-2-6-5-7m4 0c-1 2 1 4 3 3 1-1-1-4-3-3m9 0c-1 1 0 4 2 3 1-1-1-4-2-3m-19 5l1 4-1 4h1l2-3c0 1 1 3 3 3l-2-3c-1-3-2-4-4-5m-4 5c-2 1 1 2 1 3l2-4-3 1m-4 4c1 3 4 3 6 4-2-1-3-5-6-4m7 1c0 2 0 2 2 2 0-2 0-2-2-2m-5 3c-2 3 3 1 0 0m-2 3c0 2 0 3 2 2 0-2 0-2-2-2m-7 1c-1 2 1 2 3 3-1 1-4 3-1 3l2-3-4-3m-4 7c-1 2 0 2 2 2 0-2 0-2-2-2m-23 19c2-1 2-4 2-6l-2 6m9 0c-1 1 0 1 1 2 1-2 1-2-1-2m-10 0c-1 1 1 3 2 3 1-2-1-4-2-3m16 9c-1 1-1 4 1 3 2 0 1-4-1-3m13 36c-4-1-7-4-11-3 2 2 4 4 7 2l3 3c-3 3-5 6-6 10 4-3 6-7 8-12l8 2v-2h-7c1-4 5-6 6-10l9-9c1 3-1 7-2 10l-2 11c0 4-2 8-4 12l-5 11 2 2h2l-2-2 7-16 2-7 8 3v-5l-3 3c-1-1-3-3-3-5-1-3 0-5 1-8l2-12 2-2-1-2c-8 8-15 17-21 26m4-22c-1 3 4 1 0 0m22 15c0 2-2 7 2 8v-9l-2 1m4-1c-2 1-1 4 1 3 2 0 1-3-1-3m3 0c2 3 2 5 0 8h3v-8h-3m28 10c4-1 6-4 9-8-4 2-7 5-9 8m-31-4c-1 2 0 2 2 2 0-2 0-3-2-2m-49 9c-1 1 1 3 2 2s-1-3-2-2m-3 4c-1 2 2 4 3 3 1-2-1-4-3-3m50 10c-1 1 0 4 2 3 1-1 0-4-2-3zM128 71c2 0 3 3 1 3-2 1-3-2-1-3zM114 73h4v6h-5l1-6zM149 77l2-1v3l-2-1v-1zM552 81l4-3 4 3-4 4-4-4zM502 83l2-1v3l-1 1-1-3z"/>
    <path d="M718 83l3 5c-3-1-3-3-3-5zM352 92l5-1 1 5-3 2c-2-1-3-3-3-6zM406 104c0-4 3-7 7-8l3 23v4l-9-1-1-18zM528 102l14 12c-2 8-7 13-11 20h4l-1 4c6-5 9-12 12-19l5 2c-1 2 1 4 3 5 8 10 16 19 27 26l1-1v2l13 4 1 12c-4 3-8 7-11 12l-11 16c-4 7-13 10-19 16-3-7-9-13-10-21 0-7-5-15-13-16 3 2 7 4 9 7 3 5 3 11 4 16 2 5 6 10 9 14l-3 2v4l3 2-5 3v3h3l17 14c0 5-1 10 1 15l1-14c3 2 6 4 10 4 5 1 10 2 13 6 2 2 1 4 1 7 0 4 1 9-1 14 1 6 2 12 1 18l-2 20h-1l-4-1-1-3c-2 3-5 4-8 4l-3-4-1 2-1 13h-3l-1-23-1-1v25c-7-1-14-2-18-7l-6-2c-4 0-6-6-10-5l-2 1 1-3-7-1 1-61 2-1-3-1 3-4c1-4-3-8-2-12v-24l6 6h1c2 4 7 7 10 11-3 3-7 6-8 10l3-2 1 4 8-8-3-3 3-4h2c-8-6-14-15-24-19l2-4-2 1v-35l1-48 2-1-3 1 1-6v-4m6 10c-1 1 0 4 2 3 1-1 0-4-2-3m-1 5c0 2 0 2 2 2 0-2 0-2-2-2m18 17c1 1 1 1 0 0m4 7l5-5-5 5m7 3c-1 1 2 3 3 2s-2-3-3-2m7 12l3-2 2-4c-2 1-4 3-5 6m4 2l4-2v2l3-3-2-3-5 6m7 0l-1 4 5-2-1 3 4-2-2-2 1-3-6 2m7-1l2 4-2 3 2 1 4-5-6-3m-15 24h4v-4h-4v4m-40 10c-2 1-1 4 1 3 2 0 1-4-1-3m34 0l-1 5h5v-3l-4-2m-34 4c-1 0-2 3 0 3 2 1 3-4 0-3m4 4l3-3c-2-1-3 1-3 3m15-1c-1 1 0 4 1 2 2 0 0-3-1-2m1 40c0 3 3 4 5 4v-5l-5 1m16 19v13l1 1 1-10c1-2 0-4-2-4m-5 32c-1 3 3 0 0 0m-2 3c-1 3 3 0 0 0m-3 11l2-5c-2 1-4 3-2 5m-7 13l4-7c1-2 3-4 2-7-2 4-5 9-6 14zM397 121l3-2 2 5c-1 2-3 2-5 2 0-2-2-4 0-5zM415 139c-3-5-8-10-9-16h10v3l-1 13zM462 143c6-1 11-4 15-8 3 5 7 10 9 16l8 13 10 7v18l-20-8-1 2c-2-2-3-5-6-6-5-1-10-1-15-4l-11-7v-21l7-2 2 1 2-1m-1 21l-2 3 3-1 3 2c0-2-2-3-4-4m7 0c-1 2 2 3 3 2 1-2-2-3-3-2m13 11c2 0 4-2 3-3-2-1-4 1-3 3m9-3c-1 0-2 2-1 4 1 1 3-3 1-4m-5 4c0 2 0 2 2 2 0-2 0-3-2-2m4 1c-1 0-1 4 1 3 2 0 2-4-1-3m10 5c-1 1 1 4 3 3 0-1-1-4-3-3zM411 142l4-3h1v5l-2 3-3-5zM452 177c-1-2 0-4 2-5l2 4-4 1zM321 174h3v7h-3v-7zM332 174c5-1 5 7 0 7v-7z"/>
    <path d="M581 199c5-7 9-15 15-22v60l-5-2-1-2h-5l5 2 6 2v5l-2 3c-7-3-16-4-22-9-2-2-1-5-1-8l3-2-7-2c-3-2-6-4-7-7 7-6 15-10 21-18zM473 183c-2-1 0-3 1-4 2-1 3 0 5 1l-1 5c-2 0-4 0-5-2zM618 203l2 8 2 16v7l-4-1v-30z"/>
    <path d="M555 219c6-1 8 6 14 6 1 3 0 6-1 9l-11-11c-2-1-2-2-2-4zM618 235l6-2-1 6-5 1v-5zM624 243c-1-4 4-3 6-3v6c-2 0-6 0-6-3zM618 248c1-1 1-3 3-3 2 1 4 3 4 6l-7-3zM632 246l16 1 1 1c-3 4-6 8-7 13l-7-5 6 5c-4 10-10 19-13 30v1l15-31 5 3-4-4 7-14 34-1v34h-9 9v21h7c-4 2-9 1-13 3-6 2-12 5-19 6l-19 3c-6-1-12-5-17-9 0-3 2-5 3-7l-2 1c-1 1-2 4-4 4l-3-2-1-1 1-5c2-2 3-3 3-5 3-10 7-20 9-31l4-1c-2-2-4-3-4-5l2-5m22 4c0 2 1 2 2 2 0-2 0-2-2-2m8 4c2 0 3-4 1-4s-1 3-1 4m5-4c-1 2 0 2 2 2 0-2 0-2-2-2m2 7c1-1 3-3 2-5-2 0-2 3-2 5m-22 14c-1 2 2 3 3 2 1-2-2-3-3-2m3 4c-1 1 0 4 2 3 1-1 0-4-2-3m6 0c-2 3 3 0 0 0m-1 3c-1 0-2 3 0 3s3-4 0-3zM618 249l7 4c-1 9-5 17-7 25v-29zM495 285c1-6 5-10 9-14v20l-9-6zM489 286c2 0 5-1 6 1v5h-6v-6zM279 289c3-1 2 3 0 3-2-1-1-3 0-3zM451 291h5l1 6h-6v-6zM409 292h4v6h-4v-6z"/>
    <path d="M484 292c2 0 4 1 5 3l-1 2a364 364 0 0 0-1 23l-5-1v-3h-8l-1 4-1-1-2-5v12c2 6 5 10 10 14-4 6-5 13-7 19-6-3-12-8-17-13l-1-5v3a87 87 0 0 1-17-44v-3c5-1 10-2 14 2l1 8c2-2 1-5 1-8 5-2 9-3 14-3s10-4 15-2l1-2m-1 23c0 4 3-1 0 0m-39 5c-1 3 4 0 0 0m2 1c0 2 0 2 2 2 0-2 0-2-2-2zM495 296c-1-2 1-3 2-4l7 5v1c0 2 2 5 1 8l-2-1-1 2h4c1 8 15 10 19 3 8 2 15 8 23 12l-4 6-3-3h-2l5 3-1 5c2-3 3-7 6-10l20 5 1 5 1-6 6-2c2 3 5 6 9 8-4 7-8 14-15 18-9 9-23 13-36 16v-4-13c3-5 7-10 7-16l-6 12c-4 6-2 14-3 21l-16 2-2-4-1 4-18-2c-3-1-8-1-10-3h-1l-6-2 3-13c1-3 2-7 5-8 5-2 9-7 12-12v-14l-5 1c2-6 2-13 1-20zM392 298l13-1 6 4v55l2 5h-9v-2 2h-50l1-34-1-26 1-5 2 4-1 5 4-3c5-1 11-3 16-2 5-1 11 0 16-2m-35 28c-1 1 0 4 2 3 1-1 0-4-2-3m49 10c-1 3 3 0 0 0m-48 9c0 2 0 2 2 2 1-2 0-2-2-2m45 2c0 2 0 3 2 2 0-2 0-2-2-2m-47 3c0 2 0 2 2 2 0-2-1-2-2-2z"/>
    <path d="M416 298l1-1v64l-4 1-1-3v-21l1-39 3-1zM707 301l22-1c-4 8-6 17-7 25l-3 1h3v8l-7-2c-9-1-18 1-27 1-7 0-13-3-20-5-5-1-9-5-14-6l-9-3v-3c10-1 20-3 29-6l13-4c6-2 14-2 20-5zM734 300h2l1 19c-1 1-3 2-3 0v-3l-2 3 2 4h1l-1-3 3 1-1 10-2 6 2 2v8l-6-6c-2-6-2-12-1-18l2-1c-2-7 1-15 3-22z"/>
    <path d="M619 305v7l3-3 7 5 7 7 18 6c7 2 13 8 21 8l2 1c11 3 22 2 34 0l6 2c3 1 4 4 5 6 2 4 0 10 2 14l1 3a1719 1719 0 0 1-78 0l-1-2v2h-5v-2 2h-3v-2 2h-19l-1-2v-12-42h1m10 14c1 1 1 1 0 0m3 2l2 4 1-4h-3m-3 3c0 2 2 4 4 3 1-2-2-3-4-3m7 0c-1 2 2 4 3 2s-2-3-3-2m0 4c-1 1 0 4 2 3 1-1 0-4-2-3m12 3c0 2 0 3 2 2 0-2 0-2-2-2m13 5c-2 3 3 1 0 0m2 7l2-1 1 3 8 1 1-2-4-1-2 1-1-1-2-2 1-2v-2c-2 1-3 3-4 6m-5-4c-1 1 0 4 2 3 1-1 0-4-2-3m15 1c-1 2 0 2 2 2 0-2 0-2-2-2m-12 1c-1 3 3 0 0 0m26 2l-1 7c3-1 3-5 3-7h-2m4 6l4 1 1-3h-4l1-4-2 6m4-6c-1 1 0 4 2 3 1-1 0-4-2-3m5 0l2 8c2-2 1-7-2-8m9 2l-5-1v1c3 0 3 3 3 5l3-5v-2l-1 2m-11 1l-1 5c3 0 3-4 1-5m-77 8c0 2 0 2 2 2 0-2 0-2-2-2m5 0c0 2 0 3 2 2 0-2 0-2-2-2m3 0c-1 3 3 1 0 0m33 1l-1 1c1 3 5-1 1-1m-26 1c0 3 3-2 0 0m31 1c0 2 0 2 2 1-1-1-1-2-2-1m5 1v2c2 0 3 0 4-2h-4z"/>
    <path d="M634 316l4-4c2 2 4 4 2 7s-5-1-6-3zM580 316l4-1v9l-2 1c-1-2 0-5-2-6v-3zM586 317l5-3v3l-3 9-2-9zM142 317h66v11l-1 2 1 1-3 6 3-1c1 2-1 3-2 4l-6 5 3-5-4-1-4 10h-4l-1 12h-20l-2-4c3-2 7-5 11-6 0 3-1 8 3 10 4 1 7-2 8-6h-4c-1 1-1 3-3 3-1-3-3-8 1-11 1 2 3 3 5 3l-2-7 8-3-5-3-7 6-16 11h-1l-20-26-2-2 17 22 3 8-3 2c-4-1-6-4-8-7l-11-17v-11l1 2 1-3-1 2c-2-2-1-5-1-7m12 16c2 1 4-1 3-3-2 0-3 2-3 3m48-2c-2 1-4 3-4 5l5-1v-5l-1 1zM474 325l4-2c2 3 1 6 1 9h-3l-2-7zM482 325l5-2v10h-3a302 302 0 0 0-2-8zM490 323l5 1v7c-1 3-4 1-5 2l-2-6 2-4m2 4v3c2 0 2-3 0-3zM723 338h5v6h-4l-1-6zM206 345l2-4-1 9 2 11h-4v-1l1-1v-14zM142 343l3 6 1-2c0 4 3 8 5 11l3-1-2 3 1 1h-11v-18m1 14c-1 1 0 4 2 3 1-1 0-4-2-3z"/>
    <path d="M200 349l2-3v13l1 1 1 1h-8l-2-6h2c0 2-1 6 3 6l1-12zM730 361v-13c2 2 3 4 6 5v8h-6zM154 361l4-3 3 3h-7zM162 361l4-3 2 3h-6zM102 390h1448v104H102V390m53 23c-5 1-10 2-14 6-5 5-5 13-2 18 2 5 7 7 12 8l27 4c3 1 4 6 1 7-4 2-9 2-13 1l-4-5h-26c0 4 1 8 5 11 5 5 12 6 19 7 9 1 19 1 29-1 6-1 12-4 15-9 4-5 4-13-1-19-3-3-8-5-13-6l-27-4c-2 0-4-2-3-4 2-3 5-3 8-3 4 0 10 1 11 6h25c0-3-1-7-3-10-5-4-11-6-17-7-10-2-19-2-29 0m409 0c-5 1-10 2-14 6-5 5-6 13-2 18 2 5 6 7 11 8l28 4c3 1 4 6 1 7-4 2-9 2-14 0-2 0-2-2-3-4h-26c0 5 2 10 6 12 8 6 18 6 27 7 8 0 16 0 24-3 5-1 9-4 12-8 3-6 3-14-2-19-4-5-11-6-17-7l-24-3c-3-1-3-4-1-5 4-2 9-2 12-1 3 0 6 2 6 5h25c0-4-1-7-4-10-5-5-11-6-18-7-9-2-18-2-27 0m117-1c-7 1-14 3-20 7-5 5-8 12-8 19-1 9 1 19 7 25 8 7 19 8 29 8s22-1 30-8c9-7 10-19 9-29-2-8-7-16-15-19-10-4-21-4-32-3m-473 2v13h20v42h22v-42h20v-13h-62m67 55h22v-17h17c3 0 4 3 4 5l2 12h24c-5-6-2-15-5-22-1-3-3-4-5-5 9-3 11-16 5-23-3-5-10-5-15-5l-49-1v56m74 0h59v-13h-37v-8h35v-14l-35 1v-8h37v-13l-59-1v56m68 0h59v-13h-37v-8h35v-14l-35 1v-8h37v-13l-59-1v56m64-55v13h20v42h22v-42h20v-13h-62m253 0v55h22v-20h32v-14l-32 1v-9h34v-13h-56m93 55h56v-15h-34v-40l-22-1v56m81-55l-23 55h23l2-7h23l2 7h24l-24-55h-27z"/>
    <path d="M684 427c5-2 10-2 15 0 4 3 6 7 6 12s0 10-4 14c-3 4-9 4-13 4-4-1-9-3-11-7-2-5-2-10-1-15 1-4 4-7 8-8zM297 427l18 1c5 0 5 9 0 10h-18v-11zM922 430l6 19h-13l7-19z"/>
  </g>
  <g fill="#abacac">
    <path d="M247 53h1v9c-4-1-8 0-11 2-4-1-7-4-10-2l-9 7c-3 2-7 1-10 2l-6-7c-2 3-5 5-6 9l-4 20-4 26c-1 8-2 16-5 23-5 7-14 8-17 16-2 6 1 10 4 14l10-9c2-3 6-4 9-7l11-12c2-3 6-1 9-1v218l-2-11 1-9-2 4v14l-1 1h-2l-1-1v-13l-2 3-1 12c-4 0-3-4-3-6h-2l2 6h-6l1-12h4l4-10 4 1-3 5 6-5c1-1 3-2 2-4l-3 1 3-6-1-1 1-2v-11h-66v-3l9-1 13-1h40l4-1v-12-121l-5 3v3l-3-2c4-2 9-4 8-9v-28h-6c-4 3-7 8-10 12l-11 7-11 10c4 8 10 13 14 20-7-4-11-12-15-19-4 3-7 5-11 6l10-7c-2-5-7-10-4-16 3-9 14-11 18-19l3-15 3-20 4-18c0-7 2-14 5-20l2-4-4-8h3c5 6 8 14 16 15 5-2 7-8 12-10 3-2 7 0 10 1l11-1v-6zM294 53h3l10 7 7 8 9-3 7 8c3 2 1-2 0-3l-5-5c0-2 1-5 3-7l-1-5h1c6 8 12 16 14 26v4l3 7 6 2-3-10-5-15-11-14 26 1h-7c-1 2 1 3 1 5v2l-3-7-9-1c3 6 9 11 11 18l-1 6 3-2-1 4c3 1 2 4 1 6l2-1v3l6 8c2 5 6 9 10 12 8 2 16 2 23 5l10 10h3l9 1v-4 4h-10c1 6 6 11 9 16l-4 3 3 5 2-3-1 9v-4c-3-2-6-5-6-9h-3c0-5-2-12-9-12l-4-5 1-3c-1-4-5-6-9-7h-12l-2-3h-3c-3-2-7-3-8-7l-2-3-4 1-4-7c-2-2-6-3-8-6l-2-8c0-5-2-10-5-14l-5-5-2 4 7 9h-8l-5-5c-3 0-7 2-10 0s-4-7-8-8l-10-8m58 39c0 3 1 5 3 6l3-2-1-5-5 1m45 29c-2 1 0 3 0 5 2 0 4 0 5-2l-2-5-3 2zM692 53l2 1c3 5 0 11 1 16l-2 1-3 3 4-9-2-12zM733 53h1c-1 12 1 24-1 37V69c-6 5-12 10-20 11l1 2h8l2 4c3 1 7 1 8 4l-10-2 2 9h-10v-4c2-1 3 1 4 2l3-1-7-6c0-3-1-6-3-8-5 2-9 5-13 9l-4 1h1l-1 2-9 8c-3 3-8 4-11 6-5 2-10 4-14 8s-7 9-9 14c-2 4-6 8-10 11l-13 7-10 7v-7c4-4 8-7 13-8 5-2 9-6 12-10 3-3 4-7 7-9l2-1c-1-1-2-2 0-3 3-5 7-10 12-9l-1-1 15-7 2 1v-2c7-6 14-13 22-18 1-1 3-2 3-4l-3-2 6 2c5-1 9-4 14-3 2-1 5 0 7-2l4-5-2-5 2 1v-8m-15 30c0 2 0 4 3 5l-3-5zM436 54h1v4c4 4 9 8 12 14l2 13 19-6-21 7v8l1 27c5 1 10 1 15 4l-7-2h-2c-2 0-6-2-6 1-1 7 1 14 1 21l15-4 9-7c-2-4-7-6-10-9 5 1 8 5 12 8l8 12c3 6 5 12 9 16 3 4 6 6 10 8v2l-10-7-8-13c-2-6-6-11-9-16-4 4-9 7-15 8l-2 1-2-1-7 2v21l11 7c5 3 10 3 15 4 3 1 4 4 6 6l1-2 20 8v5l-3-1a302 302 0 0 1-11-4h-2l-6-3h-7c-3 0-5-3-8-4l-5 2 3-4c-2-1-5-3-8-3l2 7-7-1v20c0 3 1 6-2 9v-28h-8l5-1 3 1v-12l-10-2 4-4-1-9c3 3 3 7 3 11l3-1v-22h-3l3-3-1-20-5 1-2-1h7V96c-1-3 0-6-3-8h-3l1-1c2-1 6-1 6-4 0-8-5-17-12-21-1 6-1 12 1 18-1 3-2 5-1 8l4 1h-4v53l-1-69V54m16 123l4-1-2-4c-2 1-3 3-2 5m21 6c1 2 3 2 5 2l1-5c-2-1-3-2-5-1-1 1-3 3-1 4zM477 54h3c2 7 0 14 3 21l5-6-4-15h6l4 6 4-4c-2 3-4 6-1 10 0 5 4 8 7 11v5l-2 1-1 1-7-10-4-4-6 6h-2l-10 2 7-2 2-2c-3-6-3-13-4-20m12 10l2 5 4-4-3-4-3 3zM527 54h10l1 2 15 21 2-2 7 1-1-3 3 1c7-6 16-11 21-20-3 0-5 1-8 3l1-3h8c2 2 5 2 7 1l1-1v3c-6 1-9 8-14 11l-20 16 15 21 11 12 8 9c-9-6-15-15-22-24l-9-11-5-5c-4 2-6 7-7 11l-2 15 6 8c9 10 18 20 29 27l12 4-1 6-13-4v-2l-1 1c-11-7-19-16-27-26-2-1-4-3-3-5l-5-2c-3 7-6 14-12 19l1-4h-4c4-7 9-12 11-20l-14-12v4l-1-13V54m1 7v33l15 13 3-15c1-4 5-6 5-10l1-4-13-17-6-7c-2 2-6 4-5 7m24 20l4 4 4-4-4-3-4 3z"/>
    <path d="M568 56c3 1 4 4 5 7-3-1-4-4-5-7zM573 57c1 0 3 2 2 3s-3-2-2-3zM682 58c2 0 2 0 2 2-2 1-2 0-2-2zM689 59c2 0 2 3 0 3v-3zM565 60c2 2 4 4 4 7-2-1-4-4-4-7zM352 62l3 6-3-6zM718 61c3 2 2 7 0 9v-9zM722 62l1 1v3l3 3h-4v-7zM561 64c2-1 4 1 3 3-1 1-3-2-3-3zM685 67c2 0 4 2 3 4-2 0-4-2-3-4zM705 67c2 0 2 0 2 2-2 1-2 0-2-2zM468 68c0 3 2 6-1 8v-4h-1c0 1 1 4-2 3v-3l4-4zM561 68c2 0 4 2 3 4-2 0-3-2-3-4z"/>
    <path d="M564 68c3-2 0 3 0 0zM124 72l4-3c3 1 6 4 5 7h-6l1 4 3-3c3 1 2 3 0 4-3 1-5 0-7-1v-8m4-1c-2 1-1 4 1 3 2 0 1-3-1-3zM375 69h2v4h-2v-4zM388 70c2-1 2 2 1 2-2 1-2-2-1-2zM134 71h4v7c2-2 2-7 5-9l1 1c0 4-2 8-4 12l-3-1-3-10zM146 70c2-2 6-1 7 1 3 2 2 5 1 8 0 3-4 3-7 2-4-2-3-8-1-11m3 7v1l2 1v-3l-2 1zM157 70l6-1-3 5v8h-3V70zM696 70l5 3c-2 0-4-1-5-3zM453 71c2 1 6 1 3 3 0 1 2 3 1 4-1 0-3 2-4 1v-8zM381 73c2 0 2 0 2 2-2 0-2 0-2-2zM390 73c2-1 3 2 3 4-2 0-4-2-3-4zM459 73c2-1 4 3 2 4l-2-4zM264 74c3-1 0 3 0 0zM384 74l4 3-2-2-2 2v-3zM199 75c2 0 2 0 2 2-2 0-2 0-2-2zM675 75c3 0-2 3 0 0zM677 75c2-1 3 2 2 3-2 1-3-2-2-3zM683 80l6-5c0 3-3 4-5 6l-1-1zM440 76c2-1 3 2 2 3-2 1-3-2-2-3zM203 78c3-1 0 3 0 0zM671 78h2v3h-2v-3zM665 79c2 0 3 0 2 2-2 0-2 0-2-2zM196 80c2 0 3 0 2 2-2 0-2 0-2-2zM658 81l2-1-2 2c2 2 3 4 0 6v-7zM662 82c2 0 2 0 2 2-2 0-3 0-2-2zM667 82c2-1 3 2 2 3-2 1-3-2-2-3zM148 85c2 0 4 1 3 3h-3v-3zM159 85c1-1 2 1 3 2v15l-4-1 1-16zM378 89c-2-1-2-3 0-4v4zM134 86c1 0 3-1 4 1v5l3-1 1-5 3-1v17l-3-1-1-7h-3l-1 7c-2 1-2 0-3-1V86zM268 86c1 0 3 2 1 2-1 1-2-1-1-2zM704 89l3-4v5l-3-1zM502 87l1 1-8 7c-3 5-3 11-3 16-1 9-7 17-14 22 2-5 7-8 9-13 5-6 3-15 5-22l10-11zM489 88c1 0 3 2 2 3-1 0-3-2-2-3zM702 88c2 0 2 3 0 3v-3zM165 90c3-1 6 0 8 3l-3 1c2 2 4 4 2 6-1 2-5 2-7 1l-1-4c2 0 3 2 5 3v-3l-6-4 2-3zM272 91c3 1-2 3 0 0zM699 91c2 0 2 0 2 2-2 0-2 0-2-2zM265 93h2v12l5 7-3 1c-1-4-3-7-3-11l-1-9zM702 93c2-2 3 2 3 3-2 0-4-1-3-3zM648 102l8-8-7 10-11 19c-4 8-12 14-20 18v-1l12-9 8-12 10-17zM726 97c0-1 0-3 2-3l2 3h-4zM197 95c2 0 2 3 0 3v-3zM273 95c2-1 3 2 2 3-2 1-3-2-2-3zM692 96l3-1 3 4-4-2 1 5c-2-1-2-4-3-6z"/>
    <path d="M699 95c2-1 4 1 3 3-2 1-4-1-3-3zM487 96c3-1 0 3 0 0zM690 104c-1-2-2-4 0-6a417 417 0 0 1 0 6zM198 101c1-1 3 1 3 2-1 1-3-1-3-2zM330 102l2-1-1 1v69c-2-7-1-14-1-20l-1 21h8c1 2 2 5 1 8l-3 4h-6v-7l-2 1c0 3-3 5-4 8-4-3-7-7-5-12 1-3 4-2 7-2l4 4-1-30h1l1 3v-18c0-4 1-9-1-13 2-5 1-11 1-16m-9 72v7h3v-7h-3m11 0v7c5 0 5-8 0-7zM484 101c1-1 1-1 1 1-1 1-1 0-1-1zM104 102c3 0-2 3 0 0zM195 102c2 0 2 0 2 2-2 0-2 0-2-2zM355 102h1c0 4 0 9 2 12l-3 1v-13zM484 103c2 0 3 0 2 2-2 0-2 0-2-2zM500 104c1-1 3 1 2 2s-3-1-2-2zM633 103l3 1 3-1v5l-5-1-1-4zM482 107c2-1 2 0 2 1-2 1-2 1-2-1zM486 107c2-1 2 3 1 3-2 1-2-3-1-3zM494 107h7l-1 5-2-1v-2l-4-2zM675 107c4 0 6 3 8 5-3-1-7-2-8-5zM105 109c3 1-2 3 0 0zM169 113l5-4 3 3-4-2-4 5 2 3v4l3 4c1 4-1 8 1 11h4l-2 2-5-2-1-14-1-1-1-9zM195 109l4 1-2 2c2 1 2 2 0 2l-2-5zM483 111c2-1 4 1 4 3-2 0-4-1-4-3zM673 111c3 1 4 4 5 7l-5-3 2 6-5-8 5 2-2-4zM677 111c2-1 4 2 3 3-2 1-4-1-3-3zM686 111c1-1 3 2 2 3-2 1-3-2-2-3z"/>
    <path d="M273 112c2 1 5 1 6 3 1 4 0 8 2 10h20c7 1 15 0 22-1 2 0 4 0 6 2v16c-5-5 0-12-4-17-15 3-30 0-45 2l-3-3h-10l-2-1h13v-8l-5-3zM484 117c-2-1-4-2-3-5 1 2 3 3 3 5zM534 112c2-1 3 2 2 3-2 1-3-2-2-3zM176 113c3 2 3 6 3 9l3 8h-2v-3c-3-4-2-9-4-14z"/>
    <path d="M287 116c2-1 2 0 2 2-2 0-2 0-2-2zM320 116c2 0 2 0 2 2-2 0-2 0-2-2zM326 116c2 0 2 3 0 3s-1-3 0-3zM667 116c2 1 3 2 4 5l2 3c-2 0-3-2-3-3l-2 3h-1l1-4-1-4zM352 117l1 7c3-1 3-4 3-6l2 2c0 3-3 4-5 5l-1 5h4c-2 2-4 3-4 5v-18zM480 118c2-1 4 0 4 2-2 1-4-1-4-2zM533 117c2 0 2 0 2 2-2 0-2 0-2-2zM663 121l3-1-2 4c0-1-3-2-1-3zM192 124l3 2-2 1v3h-1v-6zM659 125c3-1 4 3 6 4-2-1-5-1-6-4zM666 126c2 0 2 0 2 2-2 0-2 0-2-2zM661 129c3 1-2 3 0 0zM189 130l5 3-2 2 3 1c-2 1-4 0-6-1l2-1-2-4zM383 131c3 0-1 3 0 0zM659 132c2 0 2 0 2 2-2 1-2 0-2-2zM652 133l4 3-2 3c-3 0 0-2 1-3-2-1-4-1-3-3zM551 134c1 1 1 1 0 0zM282 136h5l-1 4-2-2-3 1 1-3zM555 141l5-5-5 5zM648 140c2 0 2 0 2 2-2 0-3 0-2-2zM188 142c2-1 2 2 1 2-2 1-2-2-1-2zM184 144c2 0 3 0 2 2-2 0-2 0-2-2zM562 144c1-1 4 1 3 2s-4-1-3-2zM406 146l3 1-1 20 1 13-4 7-1-2 3-1v-16-11c-2-3-2-7-1-11zM263 147l3 1 3 11c3-4 0-10 6-12l-4 17c-5 0-4-6-6-10l-1-2-1-5zM389 148l1 4 2-4a3242 3242 0 0 0 1 3h-1c1 2 1 4-1 5l-2-5-1 5c-3-2 0-5 1-8zM440 148l6 5-3 2c0-1 1-3-1-4h-3l1-3zM297 153l3-4 2 5c-3 3-2 7 1 9h-4l-2-10zM309 149l5 5-5-5zM316 150l3-1-1 3 2 4c-2 0-5 1-5-1l3-1-2-4zM323 149c2 0 2 3 1 3-2 1-2-2-1-3zM180 150c2 0 2 0 2 2-2 0-2 0-2-2zM569 156c1-3 3-5 5-6l-2 4-3 2zM292 153c1-1 4 1 3 3-2 1-4-1-3-3zM398 154c1-2 3 1 2 2-2 1-3-2-2-2zM573 158l5-6 2 3-3 3v-2l-4 2zM625 159l2-6c0 2 0 5-2 6zM180 154c1-1 4 0 3 2-1 1-4 0-3-2zM309 154c3 1-2 3 0 0zM175 156l5 3c-3 2-4-1-5-3zM580 158l6-2-1 3 2 2-4 2 1-3-5 2 1-4zM438 156c3 2 3 6 2 9-3-1-2-6-2-9zM587 157l6 3-4 5-2-1 2-3-2-4zM634 159c2 0 2 0 1 2-1-1-2-1-1-2z"/>
    <path d="M624 159c1-1 3 1 2 3-1 0-3-2-2-3zM674 174c3-5 5-12 11-15v3l-9 15c-1 0-3-1-2-3zM383 161h5l-1 3-4 1v-4zM461 164c2 1 4 2 4 4l-3-2-3 1 2-3zM468 164c1-1 4 0 3 2-1 1-4 0-3-2zM280 167c1 0 2 0 2 2v13l-3 1 1-16zM285 167h2v15l-3 1 1-16zM344 170l4-2 1 17h-2v-2c-2-4-1-9-1-13h-2zM640 168c2-1 3 3 1 3-2 1-2-2-1-3zM585 181c3-5 7-9 11-12v8c-6 7-10 15-15 22-6 8-14 12-21 18 1 3 4 5 7 7l7 2-3 2c0 3-1 6 1 8 6 5 15 6 22 9l2-3v29l-1 20c1-6 0-12-1-18 2-5 1-10 1-14 0-3 1-5-1-7-3-4-8-5-13-6-4 0-7-2-10-4l-1 14c-2-5-1-10-1-15l-17-14h-3v-3l5-3-3-2v-4l3-2c-3-4-7-9-9-14-1-5-1-11-4-16-2-3-6-5-9-7 8 1 13 9 13 16 1 8 7 14 10 21 6-6 15-9 19-16l11-16m-30 38c0 2 0 3 2 4l11 11c1-3 2-6 1-9-6 0-8-7-14-6zM618 169c2 4 4 8 4 13l1 19 17 1h-16l4 26 2 2c5-4 8-9 13-11-3 5-9 9-14 13 0 3 1 8 5 8l18 1 5-10-3 10 31-1v5l-34 1-7 14 4 4-5-3-15 31v-1c3-11 9-20 13-30l-6-5 7 5c1-5 4-9 7-13l-1-1-16-1-2 5c0 2 2 3 4 5l-4 1c-2 11-6 21-9 31 0 2-1 3-3 5v-15c2-8 6-16 7-25l-7-4v-9l5-1 1-6-6 2v-2l4 1v-7l-2-16-2-8v-34m6 74c0 3 4 3 6 3v-6c-2 0-7-1-6 3m-6 5l7 3c0-3-2-5-4-6-2 0-2 2-3 3z"/>
    <path d="M290 172h2l2 6c1-2 1-7 4-6 1 5-3 9-3 13l15 1h-24l-15-1h21l-2-13z"/>
    <path d="M300 172h3l1 7c2-3 1-7 4-7l4 7c0-3 0-6 3-8 1 5 0 9-4 13l-3-8c-1 2-2 7-5 7-3-3-2-8-3-11zM481 175c-1-2 1-4 3-3 1 1-1 3-3 3zM490 172c2 1 0 5-1 4-1-2 0-4 1-4zM268 182c0-3-1-7 2-10l1 2v7h2v-9c5 0 3 7 3 10-3 1-5 2-8 0zM341 172h4c-1 2-2 5-1 8v4c-1 1-2-1-3-2v-10zM728 173l1 58-12-1 11-7v-28l-5 3 5-7v-18zM485 176c2-1 2 0 2 2-2 0-2 0-2-2zM489 177c3-1 3 3 1 3-2 1-2-3-1-3zM572 181v-4h4v4h-4zM653 204c6-9 13-18 21-26l1 2-2 2-2 12c-1 3-2 5-1 8 0 2 2 4 3 5l3-3v5l-8-3-2 7-7 16 2 2h-2l-2-2 5-11c2-4 4-8 4-12l2-11c1-3 3-7 2-10l-9 9c-1 4-5 6-6 10h7v2l-8-2c-2 5-4 9-8 12 1-4 3-7 6-10l-3-3c-3 2-5 0-7-2 4-1 7 2 11 3zM499 182c2-1 3 2 3 3-2 1-4-2-3-3zM194 182c1 1 5 0 4 3-1 2-1 5-4 5 0-2 1-4 3-5l-3-3zM657 182c4 1-1 3 0 0zM376 189c2 0 2 0 2 2-2 0-2 0-2-2zM172 191l4 6-3 4-2-2 3-1-1-3-3 2 2-6zM381 191c1-1 4 0 3 2-1 1-4 0-3-2zM532 191c2-1 3 3 1 3-2 1-3-2-1-3zM566 191l4 2v3h-5l1-5zM323 195c0-1 3 0 2 1-1 2-3 0-2-1zM532 195c3-1 2 4 0 3-2 0-1-3 0-3zM536 199c0-2 1-4 3-3l-3 3zM679 197l2-1v9c-4-1-2-6-2-8zM683 196c2 0 3 3 1 3-2 1-3-2-1-3zM686 196h3v8h-3c2-3 2-5 0-8zM497 197c2 0 3 1 2 2-2 1-2 0-2-2zM551 198c1-1 3 2 1 2-1 2-2-1-1-2zM527 198c10 4 16 13 24 19h-2l-3 4 3 3-8 8-1-4-3 2c1-4 5-7 8-10-3-4-8-7-10-11h-1l-6-6-1-5zM714 206c2-3 5-6 9-8-3 4-5 7-9 8zM158 203l2-2 1 1-3 1 4 5-1-4 5 3v-3l1 2-6 5c-2-2-4-5-3-8zM167 201h3v3l-3-3zM683 202c2-1 2 0 2 2-2 0-3 0-2-2zM527 217l1-13v23c-1 4 3 8 2 12l-3 4v-26zM500 218l4-9v4l-5 13c-1 2-2 5-4 6l5-14zM634 211c1-1 3 1 2 2s-3-1-2-2zM149 211c2-1 4 1 3 3-1 1-4-1-3-3zM277 213h4l-4 4v-4zM286 214h5v4h-6l2-2-1-2zM451 214h2c0 5 1 9-1 13l-1-13zM145 215c2 0 2 0 2 2-2 0-2 0-2-2zM631 215c2-1 4 1 3 3-1 1-4-1-3-3zM326 216v2-2zM491 218c1 0 2 0 2 2-2 0-2 0-2-2zM489 221l2 3c-2 1-4-2-2-3zM493 221c2 0 2 3 0 3v-3zM174 224l5-1v5l-2-2-3 1v-3zM272 225c3 0-1 3 0 0zM681 225c2-1 3 2 2 3-2 1-3-2-2-3zM486 230l6-3-1 5-5-2zM328 228c4 0-1 3 0 0zM381 229l2-1c-4 6-5 13-7 19v-5l5-13zM407 229c2 0 2 0 2 2-2 0-2 0-2-2zM452 229l1 3v14c-1 1 0 3 1 4v16l1 18-1 4 6 5 12-1-2-2 4-2c-2-3-6-5-10-6 6 0 9 5 14 7l3-2 6-1c4-3 3-9 7-12l3-3 3-6-2-3 6 2v7c-4 4-8 8-9 14l9 6v6l-7-5c-1 1-3 2-2 4 1 7 1 14-1 20l5-1v14c-3 5-7 10-12 12-3 1-4 5-5 8l-3 13-6-3c2-6 3-13 7-19-5-4-8-8-10-14v-12l2 5 1 1 1-4h8v3h4a364 364 0 0 1 3-24c-1-2-3-3-5-3l-1 2c-5-2-10 2-15 2s-9 1-14 3c0 3 1 6-1 8l-1-8c-4-4-9-3-14-2v3l-1-9c5 1 11 1 16-2a103 103 0 0 1 1-5l-1-3v-20l1-2-2-10v-20m37 57v6h6v-5c-1-2-4-1-6-1m-38 5v6h6l-1-6h-5m23 34l2 7h3c0-3 1-6-1-9l-4 2m8 0l2 3v5h3v-10l-5 2m8-2l-2 4 2 6c1-1 4 1 5-2v-7l-5-1zM192 231h9l-2 1h-7v-1zM326 238c1-3 0-5 2-7v7h-2zM487 233c2 0 2 0 2 2-2 0-2 0-2-2zM409 234l1 14v17c-3-4-1-10-2-15l1-2v-14zM485 238c-1-2 2-2 3-2 1 2-3 4-3 2zM552 238l5-1v5c-2 0-5-1-5-4zM484 245c3-1 0 3 0 0zM174 247h5v4h-5v-4z"/>
    <path d="M479 246c2 0 2 0 2 2-2 0-2 0-2-2zM481 249l4-2-2 4-2-2zM373 249c1-1 2 2 1 3s-3-2-1-3zM654 250c2 0 2 0 2 2-1 0-2 0-2-2zM662 254c0-1-1-4 1-4s1 4-1 4zM667 250c2 0 2 0 2 2-2 0-3 0-2-2zM363 275l9-23v4l-7 16 2 2h-3v5l-7 15c0 2 0 3 2 3 9 1 17-2 26-2l20-2 6-4 6 3v5l-1 1-3 1-1 39v21l1 3v-1l-2-5v-55l-6-4-13 1c-5 2-11 1-16 2-5-1-11 1-16 2l-4 3 1-5-2-4c-2-5-1-11-1-16l1 15 8-20m46 17v6h4v-6h-4zM669 257c0-2 0-5 2-5 1 2-1 4-2 5zM470 254c2-1 3 2 2 3s-3-2-2-3zM463 255l3 6-3-6zM455 259c2-1 4-4 5-2l-3 1-2 1zM568 257c2 0 3 2 2 4l-1 10-1-1v-13zM397 270c3 1-2 3 0 0zM647 271c1-1 4 0 3 2-1 1-4 0-3-2zM304 273l4-1v1l-5 1 1-1zM290 274c5 1 9-1 13-1l-6 2-4 1c-1 1-3 0-3-2zM328 273c2 1 2 1 1 2-1 0-2 0-1-2zM650 275c2-1 3 2 2 3-2 1-3-2-2-3zM656 275c3 0-2 3 0 0zM327 277c1 1 2 1 1 2-2 0-2 0-1-2zM655 278c3-1 2 3 0 3s-1-3 0-3z"/>
    <path d="M375 279c2-1 3 2 2 3-2 1-3-2-2-3zM369 288c3-1 4-4 6-5v5l-3-1-1 1h-2zM268 284h3v5c-2-1-3-3-3-5zM273 290l2-5c3 2-1 4-2 5zM283 289c3-2 7-2 10-3l-5 4v4h-2l-1-4-10 6 1 2c7 2 15 2 22 2 5 0 11 1 16-2l2 9c-2 4-2 10-7 11l5-11-3-2h-25c-7 0-13-4-19-4-4 1-3 6-3 9v-16c2 1 5 2 7 1l3 1 3-4-4 1c2-2 4-5 8-6l2 2m-4 0c-1 0-2 2 0 3 2 0 3-4 0-3zM321 296c1-3 1-8 5-8-1 3-1 8-5 8z"/>
    <path d="M300 289c2 0 2 0 2 2-2 0-3 0-2-2zM563 289c3 0-1 3 0 0zM270 290c2-1 3 0 2 2-2 0-2 0-2-2zM561 292c3 0-1 3 0 0zM625 297l2-1c-1 2-3 4-3 7 5 4 11 8 17 9l19-3c7-1 13-4 19-6 4-2 9-1 13-3l15 1c-6 3-14 3-20 5l-13 4c-9 3-19 5-29 6v3l9 3c5 1 9 5 14 6 7 2 13 5 20 5 9 0 18-2 27-1l7 2v-8h-3l3-1c1-8 3-17 7-25h5c-2 7-5 15-3 22l-2 1c-1 6-1 12 1 18l6 6v-8l-2-2 2-6v22c-3-1-4-3-6-5v13h-5l-1-3c-2-4 0-10-2-14-1-2-2-5-5-6l-6-2c-12 2-23 3-34 0l-2-1c-8 0-14-6-21-8l-18-6-7-7-7-5-3 3v-7l-1-6 3 2c2 0 3-3 4-4m9 19c1 2 4 6 6 3s0-5-2-7l-4 4m89 22l1 6h4v-6h-5zM319 296c3 4 7 4 12 4v4l-12 2v-10zM558 303c-2-2 0-4 2-5l-2 5z"/>
    <path d="M569 298l1 1 1 23h3l1-13 1-2 3 4c3 0 6-1 8-4l1 3 4 1-1 6v-3l-5 3 2 9-2 7c-4-2-7-5-9-8l-6 2-1 6-1-5-20-5c-3 3-4 7-6 10l1-5-5-3h2l3 3 4-6c-8-4-15-10-23-12l2-4 7 1-1 3 2-1c4-1 6 5 10 5l6 2c4 5 11 6 18 7v-25m11 18v3c2 1 1 4 2 6l2-1v-9l-4 1z"/>
    <path d="M551 316c1-5 4-10 6-14 1 3-1 5-2 7l-4 7zM300 312c2 0 2 0 1 2-1-1-2-1-1-2zM304 311c3 0-2 3 0 0zM272 312c2-1 3 2 1 3-1 1-2-2-1-3zM277 314c1-1 2 2 1 2-1 1-2-1-1-2zM483 315c3-1 0 4 0 0zM305 323l4-4-5 11c-2-2 0-5 1-7zM629 319c1 1 1 1 0 0zM444 320c4 0-1 3 0 0zM272 321c3 1-1 3 0 0zM277 328l1-7c0 2 1 5-1 7zM446 321c2 0 2 0 2 2-2 0-2 0-2-2zM632 321h3l-1 4-2-4zM317 323c2 0 2 4 0 4s-2-3 0-4zM310 324c3-1 0 3 0 0zM629 324c2 0 5 1 4 3-2 1-4-1-4-3zM636 324c1-1 4 0 3 2s-4 0-3-2zM144 326l2 2 20 26h1l16-11 7-6 5 3-8 3 2 7c-2 0-4-1-5-3-4 3-2 8-1 11 2 0 2-2 3-3h4c-1 4-4 7-8 6-4-2-3-7-3-10-4 1-8 4-11 6l2 4h-2l-2-3-4 3h-1l-3-3-4 3h-1l-1-1 2-3-3 1c-2-3-5-7-5-11l-1 2-3-6v-9l11 17c2 3 4 6 8 7l3-2-3-8-17-22zM357 326c2-1 3 2 2 3-2 1-3-2-2-3zM492 327c2 0 2 3 0 3v-3zM636 328c2-1 3 2 2 3-2 1-3-2-2-3z"/>
    <path d="M154 333c0-1 1-3 3-3 1 2-1 4-3 3zM202 331l1-1v5l-5 1c0-2 2-4 4-5zM648 331c2 0 2 0 2 2-2 1-2 0-2-2zM542 334c0 6-4 11-7 16v13c0 1 0 4-2 4 1-7-1-15 3-21l6-12zM406 336c3 0-1 3 0 0zM661 336c3 1-2 3 0 0zM289 337l3 6h-3l-2 4-2-1c2-3 4-6 4-9zM265 338c3 1 6 2 8 1v4l-2 2 2 2-1 5c-3 1 0 3 0 5-2 0-5 0-7-2l3-6c0-3 0-5 3-6l-1-3-1 3-4-3v-2zM663 343c1-3 2-5 4-6v2l-1 2 2 2 1 1 2-1 4 1-1 2-8-1-1-3-2 1zM658 339c2-1 3 2 2 3-2 1-3-2-2-3z"/>
    <path d="M673 340c2 0 2 0 2 2-2 0-3 0-2-2zM661 341c3 0-1 3 0 0zM292 345l3-2-2 5-1-3zM687 343h2c0 2 0 6-3 7l1-7zM691 349l2-6-1 4h4l-1 3-4-1z"/>
    <path d="M695 343c2-1 3 2 2 3-2 1-3-2-2-3zM700 343c3 1 4 6 2 8l-2-8zM709 345l1-2v2l-3 5c0-2 0-5-3-5v-1l5 1zM296 345c2-1 2 3 1 4-2-1-1-3-1-4zM358 345c2 0 3 0 2 2-2 0-2 0-2-2zM698 346c2 1 2 5-1 5l1-5zM281 347l3 1v7l3-2c-2 2-4 5-4 8h-2v-5l-2-1-1-2 3 1a1243 1243 0 0 0 1-3l-1-4zM290 347c1 1 1 1 0 0zM403 347c2 0 2 0 2 2-2 1-2 0-2-2zM356 350c1 0 2 0 2 2-2 0-2 0-2-2zM272 354c3 0-1 3 0 0zM621 354c2 0 2 0 2 2-2 0-2 0-2-2zM626 354c2 0 2 0 2 2-2 1-2 0-2-2zM629 354c3 1-1 3 0 0zM662 355c4 0 0 4-1 1l1-1zM636 356c3-2 0 3 0 0zM143 357c2-1 3 2 2 3-2 1-3-2-2-3zM277 357c2-1 2 0 2 2-2 0-2 0-2-2zM667 357c1-1 1 0 2 1-2 1-2 1-2-1zM672 358h4c-1 2-2 2-4 2v-2z"/>
  </g>
  <g fill="#bd1b1a">
    <path d="M838 55l3-2 1 6c-2 4-7 6-11 8-2-1-2-4-2-6l1 1 8-7zM943 53c1-1 4 0 4 1-1 2-3 1-4-1zM954 56c2-1 3 2 1 2-1 2-2-1-1-2zM1131 65c-1-4 2-4 5-4l-5 4zM1123 65c2-1 3 2 2 3-2 1-3-2-2-3zM1328 65c2-1 4 1 6 2l-3 2c-2 0-3-2-3-4zM998 66c2-1 3 2 2 3-2 1-3-2-2-3zM1154 71c1-1 2 1 1 2s-2-1-1-2zM1125 73l3 4h1c1-1 3-3 3-1l-2 7-5-3v-7zM1035 87c-3-2-2-6 1-7l-1 7zM1434 81l15-1c-1 1-1 3-3 3h-15c-1-2 2-2 3-2zM992 81c3 1 1 4 0 5v-5zM1024 81c3 0 2 4 0 5v-5zM1154 87c2-1 4 1 2 2-1 2-3 0-2-2zM773 88c2 0 2 0 2 2-2 0-2 0-2-2zM784 88c4 1 4 7 0 8v-8zM796 88c2-1 3 2 2 3-2 1-3-2-2-3zM818 88c2-1 3 2 1 3-2 0-2-3-1-3zM1061 89c0-1 2 0 1 2 0 1-2-1-1-2zM1479 90h7l-6 4-1-4zM891 91c2-1 3 2 2 3-2 1-3-2-2-3zM1058 96c0-2-1-6 2-6 0 3 1 6-2 6zM761 92c2 1 3 2 3 4l-3-4zM774 92c3 0 1 5-1 3-1-1 0-2 1-3zM818 96c0-1-1-4 2-4 0 2 0 4-2 4zM1502 94c2 0 2 3 1 3-2 1-3-2-1-3zM1056 100c2 1 4 1 4 3h-4c-2 0-1-3 0-3zM1054 104c2-1 4 1 2 3-1 1-3-1-2-3zM1059 104c2 0 2 3 0 3v-3zM1391 106l3 1c0 2-3 1-3-1zM1353 112c-1-2 1-4 4-4l-4 4zM1055 109c2 1 5 1 6 3 2 1 1 2 0 3l-6-6zM1388 112c0-2 1-3 3-3l1 3 1-3c4-1 6 4 3 6-3 1-6-1-8-3zM1266 114l4-3 1 5-5-2zM1356 112c2-1 3 2 2 3s-3-2-2-3zM1128 121c3-3 4-7 8-8 0 4-4 6-7 9l-1-1zM1530 113c1-1 3 2 2 3-2 1-4-2-2-3zM1545 116c-2-1-1-4 1-3 1 2 0 2-1 3zM1137 117c2-1 3 1 3 3l-3 1v-4zM1154 119l4-1v3l1 3-5-1v-4zM1288 122l5 2h1l1 6c-3-3-6-5-7-8zM1106 123l1 3h3l-4 5v-8zM882 134c4 0 0 5-1 1l1-1zM893 141c0-2-1-5 2-6v7l-2-1zM1043 143c0-3 1-6 4-7 1 3-1 6-4 7zM882 139c2-1 3 3 1 3s-3-3-1-3zM942 141c2-1 4 1 2 3-1 1-3-1-2-3zM1461 146c2 1 4 3 4 6h-4v-6zM1495 154c0-3 0-6 2-8v7l-2 1zM1445 148l10 1 2-2 2 5c-5 1-9-1-14-2v-2zM1479 148h2c0 2 1 6-2 5v-5zM1484 156c1-3 2-6 5-8-1 3-1 8-5 8zM1196 150l4 2-4 3v-5zM802 158h3l-3 4v-4zM848 159h3v3c-2 0-3-2-3-3zM981 162l5 1-1 3-2 4-1-2-1-3c-2 1-1 3-1 4h-1l2-7zM1116 182c0-2-2-7 2-8 0 3 0 6-2 8zM794 177c2-1 6-2 5 1-1 2-3 2-5 2v-3zM1224 192c1-1 4 0 3 2-1 1-4 0-3-2zM975 202l5-2-2 3-3-1zM1302 207c-1-2 0-7 3-5l-3 5zM1304 205l4-4-1 6-3-2zM1310 205c-3-2 1-3 3-4l3 2c-2 2-4 3-6 2zM752 217l11-7-1 5-3-1v3l-7 2v-2zM974 213c7 0 15-2 22 0-7 4-15 0-22 3v-3zM1251 218a1045 1045 0 0 1 5 3c-3 3-5 7-9 8l5-8-1-3zM946 230c1-3 1-7 5-7-1 3-2 6-5 7zM780 229c1 2 1 6-2 6l2-6zM1196 230c3-1 3 3 0 2v-2zM948 240c-3 0-2-4-1-6l4 2-3 4zM962 242l4 4-5-1 1-3zM773 244c2-1 3 1 3 3l-3 1v-4zM1475 248c-1-3 3-4 5-5l2 5h-7zM1433 246c2 0 4 0 5 2l-5 1v-3zM796 249c2 0 2 0 2 2-2 0-2 0-2-2zM882 250c2 0 2 3 1 4-2-1-2-3-1-4zM784 254l3-2v3l-3-1zM1277 259c1-1-1-5 2-5 0 2 0 5-2 5zM1038 257v2-2zM1251 257c1-1 3 0 3 1-1 2-4 0-3-1zM1052 262c2-1 3 3 1 3s-2-3-1-3zM811 267l2-4v5l3 1-1 3c-3 0-6-2-7-5h3zM988 265c2-1 4 1 3 3-1 1-4-1-3-3zM867 266c2-1 3 2 2 3-2 1-3-2-2-3zM858 268c1-1 3 0 2 1 0 2-3 0-2-1zM886 268c1-1 4 0 2 1 0 2-3 1-2-1zM893 274c2-1 4 1 3 3-2 1-4-1-3-3zM757 275h6c1 4-8 3-6 0zM880 278l4-2v6h-2l-2 1v-5zM896 277l2-1c1 2 1 5-2 5v-4zM1060 276c3 0 1 4-1 3-2 0 0-3 1-3zM1271 276c5 0 10 0 15 2-5 2-11 1-16-1l1-1zM876 278c2-1 3 3 2 4-3 2-3-3-2-4zM1287 278c6-1 12 1 16 6 1 3 5 5 5 8-2 2-4-1-4-3-4-6-11-9-17-10v-1zM1219 279c3-1 3 4 1 4s-2-3-1-4zM949 281c1 1 3 2 3 4l-4-1 1-3zM941 285c1-1 4 0 3 2-1 1-4 0-3-2zM1367 292l4-1 1 3 1 3-2-1-2 2c-2-1-2-4-2-6zM1169 297c0-2 0-4 2-5-1 2 1 5-2 5zM1298 296c2-1 4 1 3 2s-4 0-3-2zM1066 300c2-1 2 3 1 3-2 1-3-3-1-3zM812 304l6 1-4 4-2-5zM1156 306c2 0 2 0 2 2-2 0-2 0-2-2zM1292 321c-3-1-3-4 0-4 3 1 0 3 0 4zM1294 319v2-2zM1366 320c2 0 2 0 2 2-2 0-2 0-2-2zM901 321c2-1 3 2 2 3-2 1-3-2-2-3zM890 322c4-2 3 7 0 6v-6zM1289 326c-1-4 2-4 4-4 0 3-3 3-4 4zM879 325c1-1 3 2 2 2-2 1-3-1-2-2zM1222 328c2-1 4 1 3 3-2 1-4-1-3-3zM1042 336c0-2 2-4 4-5 0 2-2 4-4 5zM984 342l7-9c1 5-3 7-6 9h-1zM1223 336c2 0 2 2 1 3-2 0-2-2-1-3zM954 337c2 0 2 0 2 2-2 0-2 0-2-2zM1204 337c2-1 3 2 2 3-2 1-3-2-2-3zM1369 337c2-1 3 2 2 3-2 1-3-2-2-3zM1373 339c1 0 3 2 2 3-1 0-3-2-2-3zM1031 342l3 4 4-3 1 3-5 1v3l-3 1c-1-1-3-1-3 1l-1-7h2l2-3zM870 353l2-4 2 4h-4zM1293 350l15 2c1 0 4 0 4 2v1c-6-2-13-3-19-3v-2zM1501 352l5 1-5 5c0-2-2-4 0-6zM1313 355c0-4 4-2 6-1l-6 1zM1350 358l15 3h-12c-1-1-4-1-3-3zM1401 361l7-3v3h-7z"/>
  </g>
  <g fill="#4a4a4a">
    <path d="M112 66h8c1 3 0 5-1 8l3 3-3 4-7-1V66m2 1v6l3-1c2-1 1-3 1-4-1-2-3-1-4-1m0 6l-1 6h5v-6h-4zM165 66l2-1v6l4-1 1 2 1 6 2-3 1-4 2-1-3 11c0 2-2 4-4 4a493 493 0 0 1-4-12v8h-3l1-15zM154 85h2v17l-2-1V85zM148 90h3v11h-3V90zM281 153c2 0 4 2 4 5l-7 1c0 2 1 4 4 3l3-2c-1 4-4 4-7 3-2-3-3-8 2-10l-2 5 5-2-2-3zM287 154c2 0 3 1 3 2 2 1 5 3 5 6l-8 1 1-3 2 2c2 1 3 0 3-2l-6-3v-3z"/>
  </g>
</svg>
